<?xml version="1.0" encoding="UTF-8" standalone="no"?><svg xmlns="http://www.w3.org/2000/svg" xmlns:xlink="http://www.w3.org/1999/xlink" contentScriptType="application/ecmascript" contentStyleType="text/css" height="648px" preserveAspectRatio="none" style="width:1103px;height:648px;" version="1.1" viewBox="0 0 1103 648" width="1103px" zoomAndPan="magnify"><defs><filter height="300%" id="f1t6ltev3akaq1" width="300%" x="-1" y="-1"><feGaussianBlur result="blurOut" stdDeviation="2.0"/><feColorMatrix in="blurOut" result="blurOut2" type="matrix" values="0 0 0 0 0 0 0 0 0 0 0 0 0 0 0 0 0 0 .4 0"/><feOffset dx="4.0" dy="4.0" in="blurOut2" result="blurOut3"/><feBlend in="SourceGraphic" in2="blurOut3" mode="normal"/></filter></defs><g><polygon fill="#DDDDDD" filter="url(#f1t6ltev3akaq1)" points="29.5,6,96.5,6,103.5,29.6094,110.5,29.6094,110.5,61.2188,29.5,61.2188,29.5,6" style="stroke: #000000; stroke-width: 1.5;"/><line style="stroke: #000000; stroke-width: 1.5;" x1="29.5" x2="103.5" y1="29.6094" y2="29.6094"/><text fill="#000000" font-family="sans-serif" font-size="14" font-weight="bold" lengthAdjust="spacingAndGlyphs" textLength="61" x="33.5" y="22.5332">tictactoe</text><polygon fill="#DDDDDD" filter="url(#f1t6ltev3akaq1)" points="213,236,361,236,368,259.6094,375,259.6094,375,291.2188,213,291.2188,213,236" style="stroke: #000000; stroke-width: 1.5;"/><line style="stroke: #000000; stroke-width: 1.5;" x1="213" x2="368" y1="259.6094" y2="259.6094"/><text fill="#000000" font-family="sans-serif" font-size="14" font-weight="bold" lengthAdjust="spacingAndGlyphs" textLength="142" x="217" y="252.5332">tictactoe.controllers</text><polygon fill="#FFFFFF" filter="url(#f1t6ltev3akaq1)" points="1032.5,6,1067.5,6,1074.5,29.6094,1081.5,29.6094,1081.5,61.2188,1032.5,61.2188,1032.5,6" style="stroke: #000000; stroke-width: 1.5;"/><line style="stroke: #000000; stroke-width: 1.5;" x1="1032.5" x2="1074.5" y1="29.6094" y2="29.6094"/><text fill="#000000" font-family="sans-serif" font-size="14" font-weight="bold" lengthAdjust="spacingAndGlyphs" textLength="29" x="1036.5" y="22.5332">java</text><polygon fill="#DDDDDD" filter="url(#f1t6ltev3akaq1)" points="478,6,626,6,633,29.6094,640,29.6094,640,61.2188,478,61.2188,478,6" style="stroke: #000000; stroke-width: 1.5;"/><line style="stroke: #000000; stroke-width: 1.5;" x1="478" x2="633" y1="29.6094" y2="29.6094"/><text fill="#000000" font-family="sans-serif" font-size="14" font-weight="bold" lengthAdjust="spacingAndGlyphs" textLength="142" x="482" y="22.5332">tictactoe.distributed</text><polygon fill="#DDDDDD" filter="url(#f1t6ltev3akaq1)" points="390.5,121,625.5,121,632.5,144.6094,639.5,144.6094,639.5,176.2188,390.5,176.2188,390.5,121" style="stroke: #000000; stroke-width: 1.5;"/><line style="stroke: #000000; stroke-width: 1.5;" x1="390.5" x2="632.5" y1="144.6094" y2="144.6094"/><text fill="#000000" font-family="sans-serif" font-size="14" font-weight="bold" lengthAdjust="spacingAndGlyphs" textLength="229" x="394.5" y="137.5332">tictactoe.distributed.dispatchers</text><polygon fill="#DDDDDD" filter="url(#f1t6ltev3akaq1)" points="145.5,6,428.5,6,435.5,29.6094,442.5,29.6094,442.5,61.2188,145.5,61.2188,145.5,6" style="stroke: #000000; stroke-width: 1.5;"/><line style="stroke: #000000; stroke-width: 1.5;" x1="145.5" x2="435.5" y1="29.6094" y2="29.6094"/><text fill="#000000" font-family="sans-serif" font-size="14" font-weight="bold" lengthAdjust="spacingAndGlyphs" textLength="277" x="149.5" y="22.5332">tictactoe.distributed.dispatchers.errors</text><polygon fill="#DDDDDD" filter="url(#f1t6ltev3akaq1)" points="675,6,983,6,990,29.6094,997,29.6094,997,61.2188,675,61.2188,675,6" style="stroke: #000000; stroke-width: 1.5;"/><line style="stroke: #000000; stroke-width: 1.5;" x1="675" x2="990" y1="29.6094" y2="29.6094"/><text fill="#000000" font-family="sans-serif" font-size="14" font-weight="bold" lengthAdjust="spacingAndGlyphs" textLength="302" x="679" y="22.5332">tictactoe.distributed.dispatchers.undoredo</text><polygon fill="#DDDDDD" filter="url(#f1t6ltev3akaq1)" points="132,351,254,351,261,374.6094,268,374.6094,268,406.2188,132,406.2188,132,351" style="stroke: #000000; stroke-width: 1.5;"/><line style="stroke: #000000; stroke-width: 1.5;" x1="132" x2="261" y1="374.6094" y2="374.6094"/><text fill="#000000" font-family="sans-serif" font-size="14" font-weight="bold" lengthAdjust="spacingAndGlyphs" textLength="116" x="136" y="367.5332">tictactoe.models</text><polygon fill="#FFFFFF" filter="url(#f1t6ltev3akaq1)" points="216.5,466,277.5,466,284.5,489.6094,291.5,489.6094,291.5,521.2188,216.5,521.2188,216.5,466" style="stroke: #000000; stroke-width: 1.5;"/><line style="stroke: #000000; stroke-width: 1.5;" x1="216.5" x2="284.5" y1="489.6094" y2="489.6094"/><text fill="#000000" font-family="sans-serif" font-size="14" font-weight="bold" lengthAdjust="spacingAndGlyphs" textLength="55" x="220.5" y="482.5332">java.util</text><polygon fill="#DDDDDD" filter="url(#f1t6ltev3akaq1)" points="120,466,156,466,163,489.6094,170,489.6094,170,521.2188,120,521.2188,120,466" style="stroke: #000000; stroke-width: 1.5;"/><line style="stroke: #000000; stroke-width: 1.5;" x1="120" x2="163" y1="489.6094" y2="489.6094"/><text fill="#000000" font-family="sans-serif" font-size="14" font-weight="bold" lengthAdjust="spacingAndGlyphs" textLength="30" x="124" y="482.5332">utils</text><polygon fill="#FFFFFF" filter="url(#f1t6ltev3akaq1)" points="112,581,164,581,171,604.6094,178,604.6094,178,636.2188,112,636.2188,112,581" style="stroke: #000000; stroke-width: 1.5;"/><line style="stroke: #000000; stroke-width: 1.5;" x1="112" x2="171" y1="604.6094" y2="604.6094"/><text fill="#000000" font-family="sans-serif" font-size="14" font-weight="bold" lengthAdjust="spacingAndGlyphs" textLength="46" x="116" y="597.5332">java.io</text><polygon fill="#DDDDDD" filter="url(#f1t6ltev3akaq1)" points="16,121,128,121,135,144.6094,142,144.6094,142,176.2188,16,176.2188,16,121" style="stroke: #000000; stroke-width: 1.5;"/><line style="stroke: #000000; stroke-width: 1.5;" x1="16" x2="135" y1="144.6094" y2="144.6094"/><text fill="#000000" font-family="sans-serif" font-size="14" font-weight="bold" lengthAdjust="spacingAndGlyphs" textLength="106" x="20" y="137.5332">tictactoe.views</text><!--MD5=[8fe1157dabbcf20ee852fc992046f19b]
link tictactoe to tictactoe.views--><path d="M72.1329,61.279 C73.433,77.604 75.1018,98.556 76.4687,115.718 " fill="none" id="tictactoe-&gt;tictactoe.views" style="stroke: #A80036; stroke-width: 1.0; stroke-dasharray: 7.0,7.0;"/><polygon fill="#A80036" points="76.8824,120.913,80.1549,111.6237,76.4853,115.9288,72.1802,112.2592,76.8824,120.913" style="stroke: #A80036; stroke-width: 1.0;"/><!--MD5=[4c8e626184b37a51cac3aeda5d7a8756]
link tictactoe to tictactoe.controllers--><path d="M97.9253,61.119 C115.5959,78.09 138.83,100.643 159,121 C196.393,158.741 238.51,203.209 265.607,232.082 " fill="none" id="tictactoe-&gt;tictactoe.controllers" style="stroke: #A80036; stroke-width: 1.0; stroke-dasharray: 7.0,7.0;"/><polygon fill="#A80036" points="269.164,235.874,265.9256,226.5728,265.7439,232.2267,260.0899,232.045,269.164,235.874" style="stroke: #A80036; stroke-width: 1.0;"/><!--MD5=[f6dfdd433beafcf2daacaf58db85d2a6]
link tictactoe.controllers to tictactoe.models--><path d="M271.723,291.279 C257.793,308.026 239.811,329.642 225.337,347.041 " fill="none" id="tictactoe.controllers-&gt;tictactoe.models" style="stroke: #A80036; stroke-width: 1.0; stroke-dasharray: 7.0,7.0;"/><polygon fill="#A80036" points="222.117,350.913,230.9472,346.551,225.3141,347.0687,224.7964,341.4356,222.117,350.913" style="stroke: #A80036; stroke-width: 1.0;"/><!--MD5=[c868621a8ffa7a8485ccb8c9dbdaad11]
link tictactoe.controllers to java.util--><path d="M294.515,291.134 C294.558,319.8 293.146,366.587 285,406 C281.137,424.688 274.116,444.799 267.731,460.922 " fill="none" id="tictactoe.controllers-&gt;java.util" style="stroke: #A80036; stroke-width: 1.0; stroke-dasharray: 7.0,7.0;"/><polygon fill="#A80036" points="265.774,465.791,272.841,458.9311,267.6381,461.1515,265.4178,455.9486,265.774,465.791" style="stroke: #A80036; stroke-width: 1.0;"/><!--MD5=[05166684c1a59f6da1b9a25ccea13098]
link tictactoe.distributed to tictactoe.distributed.dispatchers--><path d="M548.573,61.279 C542.161,77.745 533.917,98.917 527.203,116.161 " fill="none" id="tictactoe.distributed-&gt;tictactoe.distributed.dispatchers" style="stroke: #A80036; stroke-width: 1.0; stroke-dasharray: 7.0,7.0;"/><polygon fill="#A80036" points="525.353,120.913,532.3457,113.9774,527.167,116.2537,524.8908,111.075,525.353,120.913" style="stroke: #A80036; stroke-width: 1.0;"/><!--MD5=[fc9a0ada8190c13f83b22042efd24c15]
link tictactoe.distributed.dispatchers to tictactoe.controllers--><path d="M462.906,176.136 C429.198,193.371 385.316,215.809 350.728,233.494 " fill="none" id="tictactoe.distributed.dispatchers-&gt;tictactoe.controllers" style="stroke: #A80036; stroke-width: 1.0; stroke-dasharray: 7.0,7.0;"/><polygon fill="#A80036" points="346.127,235.847,355.9614,235.3131,350.5793,233.5716,352.3207,228.1895,346.127,235.847" style="stroke: #A80036; stroke-width: 1.0;"/><!--MD5=[241179430107c216ef5e5d25f87c5ece]
link tictactoe.distributed.dispatchers.errors to tictactoe.distributed.dispatchers--><path d="M346.094,61.136 C379.802,78.371 423.684,100.809 458.272,118.494 " fill="none" id="tictactoe.distributed.dispatchers.errors-&gt;tictactoe.distributed.dispatchers" style="stroke: #A80036; stroke-width: 1.0; stroke-dasharray: 7.0,7.0;"/><polygon fill="#A80036" points="462.873,120.847,456.6793,113.1895,458.4207,118.5716,453.0386,120.3131,462.873,120.847" style="stroke: #A80036; stroke-width: 1.0;"/><!--MD5=[ee2d1546299e79ac8c6c1a2d490aec42]
link tictactoe.distributed.dispatchers.errors to tictactoe.controllers--><path d="M294,61.101 C294,103.291 294,185.393 294,230.652 " fill="none" id="tictactoe.distributed.dispatchers.errors-&gt;tictactoe.controllers" style="stroke: #A80036; stroke-width: 1.0; stroke-dasharray: 7.0,7.0;"/><polygon fill="#A80036" points="294,235.716,298,226.716,294,230.716,290,226.716,294,235.716" style="stroke: #A80036; stroke-width: 1.0;"/><!--MD5=[ade12dcbcb8b208048e722e0b686ff1f]
link tictactoe.distributed.dispatchers.undoredo to tictactoe.distributed.dispatchers--><path d="M760.334,61.136 C710.685,78.614 645.837,101.442 595.282,119.239 " fill="none" id="tictactoe.distributed.dispatchers.undoredo-&gt;tictactoe.distributed.dispatchers" style="stroke: #A80036; stroke-width: 1.0; stroke-dasharray: 7.0,7.0;"/><polygon fill="#A80036" points="590.436,120.945,600.2536,121.7297,595.1523,119.2848,597.5972,114.1836,590.436,120.945" style="stroke: #A80036; stroke-width: 1.0;"/><!--MD5=[6de17b07ad77692c0ff15aa7f265dc15]
link tictactoe.distributed.dispatchers.undoredo to tictactoe.controllers--><path d="M810.062,61.166 C777.343,93.241 717.953,146.449 657,176 C568.19,219.056 456.53,241.5 380.665,252.617 " fill="none" id="tictactoe.distributed.dispatchers.undoredo-&gt;tictactoe.controllers" style="stroke: #A80036; stroke-width: 1.0; stroke-dasharray: 7.0,7.0;"/><polygon fill="#A80036" points="375.266,253.398,384.7459,256.0685,380.2145,252.6823,383.6008,248.1509,375.266,253.398" style="stroke: #A80036; stroke-width: 1.0;"/><!--MD5=[e6c0f23e74b5161a168046a341518387]
link tictactoe.models to java.util--><path d="M212.797,406.279 C220.666,422.745 230.783,443.917 239.024,461.161 " fill="none" id="tictactoe.models-&gt;java.util" style="stroke: #A80036; stroke-width: 1.0; stroke-dasharray: 7.0,7.0;"/><polygon fill="#A80036" points="241.295,465.913,241.0239,456.0679,239.1393,461.4016,233.8056,459.517,241.295,465.913" style="stroke: #A80036; stroke-width: 1.0;"/><!--MD5=[592d3e5213f5052c5b4a8146f8a66fb9]
link tictactoe.models to utils--><path d="M186.966,406.279 C178.952,422.745 168.647,443.917 160.254,461.161 " fill="none" id="tictactoe.models-&gt;utils" style="stroke: #A80036; stroke-width: 1.0; stroke-dasharray: 7.0,7.0;"/><polygon fill="#A80036" points="157.941,465.913,165.4768,459.5717,160.1295,461.4174,158.2838,456.0701,157.941,465.913" style="stroke: #A80036; stroke-width: 1.0;"/><!--MD5=[e79504c030c2940e8dd8427e90ad9823]
link utils to java.io--><path d="M145,521.279 C145,537.6038 145,558.5556 145,575.7176 " fill="none" id="utils-&gt;java.io" style="stroke: #A80036; stroke-width: 1.0; stroke-dasharray: 7.0,7.0;"/><polygon fill="#A80036" points="145,580.9128,149,571.9128,145,575.9128,141,571.9128,145,580.9128" style="stroke: #A80036; stroke-width: 1.0;"/><!--MD5=[6ba7a600a15b805df477e9f81c752d07]
link tictactoe.views to tictactoe.controllers--><path d="M129.68,176.136 C162.472,193.371 205.164,215.809 238.812,233.494 " fill="none" id="tictactoe.views-&gt;tictactoe.controllers" style="stroke: #A80036; stroke-width: 1.0; stroke-dasharray: 7.0,7.0;"/><polygon fill="#A80036" points="243.288,235.847,237.1837,228.118,238.8625,233.52,233.4605,235.1987,243.288,235.847" style="stroke: #A80036; stroke-width: 1.0;"/><!--MD5=[cd646adb6bbab9424d87d89ba9c34900]
link tictactoe.views to utils--><path d="M80.7904,176.056 C84.3597,223.002 93.8195,323.488 114,406 C118.534,424.537 125.599,444.638 131.841,460.793 " fill="none" id="tictactoe.views-&gt;utils" style="stroke: #A80036; stroke-width: 1.0; stroke-dasharray: 7.0,7.0;"/><polygon fill="#A80036" points="133.748,465.674,134.2003,455.8355,131.9293,461.0165,126.7483,458.7455,133.748,465.674" style="stroke: #A80036; stroke-width: 1.0;"/><!--MD5=[bf2d33753ef97ddcff22345b583558fd]
@startuml

package tictactoe #DDDDDD { }
tictactoe .down.> tictactoe.views
tictactoe .down.> tictactoe.controllers

package tictactoe.controllers #DDDDDD { }
tictactoe.controllers .down.> tictactoe.models
tictactoe.controllers .down.> java.util

package tictactoe.distributed #DDDDDD { }
tictactoe.distributed .down.> tictactoe.distributed.dispatchers

package tictactoe.distributed.dispatchers #DDDDDD { }
tictactoe.distributed.dispatchers .down.> tictactoe.controllers

package tictactoe.distributed.dispatchers.errors #DDDDDD { }
tictactoe.distributed.dispatchers.errors .down.> tictactoe.distributed.dispatchers
tictactoe.distributed.dispatchers.errors .down.> tictactoe.controllers

package tictactoe.distributed.dispatchers.undoredo #DDDDDD { }
tictactoe.distributed.dispatchers.undoredo .down.> tictactoe.distributed.dispatchers
tictactoe.distributed.dispatchers.undoredo .down.> tictactoe.controllers

package tictactoe.models #DDDDDD { }
package java.util{ }
tictactoe.models .down.> java.util
tictactoe.models .down.> utils

package utils #DDDDDD { }
package java.io{ }
utils .down.> java.io

package tictactoe.views #DDDDDD { }
tictactoe.views .down.> tictactoe.controllers
tictactoe.views .down.> utils

@enduml

PlantUML version 1.2020.15(Sun Jun 28 13:39:45 CEST 2020)
(GPL source distribution)
Java Runtime: Java(TM) SE Runtime Environment
JVM: Java HotSpot(TM) 64-Bit Server VM
Default Encoding: windows-1252
Language: es
Country: ES
--></g></svg>