<?xml version="1.0" encoding="UTF-8" standalone="no"?><svg xmlns="http://www.w3.org/2000/svg" xmlns:xlink="http://www.w3.org/1999/xlink" contentScriptType="application/ecmascript" contentStyleType="text/css" height="763px" preserveAspectRatio="none" style="width:1080px;height:763px;" version="1.1" viewBox="0 0 1080 763" width="1080px" zoomAndPan="magnify"><defs><filter height="300%" id="f1citr1a9k576x" width="300%" x="-1" y="-1"><feGaussianBlur result="blurOut" stdDeviation="2.0"/><feColorMatrix in="blurOut" result="blurOut2" type="matrix" values="0 0 0 0 0 0 0 0 0 0 0 0 0 0 0 0 0 0 .4 0"/><feOffset dx="4.0" dy="4.0" in="blurOut2" result="blurOut3"/><feBlend in="SourceGraphic" in2="blurOut3" mode="normal"/></filter></defs><g><polygon fill="#DDDDDD" filter="url(#f1citr1a9k576x)" points="861.6201,121,928.6201,121,935.6201,144.6094,942.6201,144.6094,942.6201,176.2188,861.6201,176.2188,861.6201,121" style="stroke: #000000; stroke-width: 1.5;"/><line style="stroke: #000000; stroke-width: 1.5;" x1="861.6201" x2="935.6201" y1="144.6094" y2="144.6094"/><text fill="#000000" font-family="sans-serif" font-size="14" font-weight="bold" lengthAdjust="spacingAndGlyphs" textLength="61" x="865.6201" y="137.5332">tictactoe</text><polygon fill="#DDDDDD" filter="url(#f1citr1a9k576x)" points="727.1201,351,875.1201,351,882.1201,374.6094,889.1201,374.6094,889.1201,406.2188,727.1201,406.2188,727.1201,351" style="stroke: #000000; stroke-width: 1.5;"/><line style="stroke: #000000; stroke-width: 1.5;" x1="727.1201" x2="882.1201" y1="374.6094" y2="374.6094"/><text fill="#000000" font-family="sans-serif" font-size="14" font-weight="bold" lengthAdjust="spacingAndGlyphs" textLength="142" x="731.1201" y="367.5332">tictactoe.controllers</text><polygon fill="#FFFFFF" filter="url(#f1citr1a9k576x)" points="924.6201,6,959.6201,6,966.6201,29.6094,973.6201,29.6094,973.6201,61.2188,924.6201,61.2188,924.6201,6" style="stroke: #000000; stroke-width: 1.5;"/><line style="stroke: #000000; stroke-width: 1.5;" x1="924.6201" x2="966.6201" y1="29.6094" y2="29.6094"/><text fill="#000000" font-family="sans-serif" font-size="14" font-weight="bold" lengthAdjust="spacingAndGlyphs" textLength="29" x="928.6201" y="22.5332">java</text><polygon fill="#DDDDDD" filter="url(#f1citr1a9k576x)" points="727.1201,6,875.1201,6,882.1201,29.6094,889.1201,29.6094,889.1201,61.2188,727.1201,61.2188,727.1201,6" style="stroke: #000000; stroke-width: 1.5;"/><line style="stroke: #000000; stroke-width: 1.5;" x1="727.1201" x2="882.1201" y1="29.6094" y2="29.6094"/><text fill="#000000" font-family="sans-serif" font-size="14" font-weight="bold" lengthAdjust="spacingAndGlyphs" textLength="142" x="731.1201" y="22.5332">tictactoe.distributed</text><polygon fill="#DDDDDD" filter="url(#f1citr1a9k576x)" points="331.6201,236,566.6201,236,573.6201,259.6094,580.6201,259.6094,580.6201,291.2188,331.6201,291.2188,331.6201,236" style="stroke: #000000; stroke-width: 1.5;"/><line style="stroke: #000000; stroke-width: 1.5;" x1="331.6201" x2="573.6201" y1="259.6094" y2="259.6094"/><text fill="#000000" font-family="sans-serif" font-size="14" font-weight="bold" lengthAdjust="spacingAndGlyphs" textLength="229" x="335.6201" y="252.5332">tictactoe.distributed.dispatchers</text><polygon fill="#FFFFFF" filter="url(#f1citr1a9k576x)" points="498.6201,696,559.6201,696,566.6201,719.6094,573.6201,719.6094,573.6201,751.2188,498.6201,751.2188,498.6201,696" style="stroke: #000000; stroke-width: 1.5;"/><line style="stroke: #000000; stroke-width: 1.5;" x1="498.6201" x2="566.6201" y1="719.6094" y2="719.6094"/><text fill="#000000" font-family="sans-serif" font-size="14" font-weight="bold" lengthAdjust="spacingAndGlyphs" textLength="55" x="502.6201" y="712.5332">java.util</text><polygon fill="#DDDDDD" filter="url(#f1citr1a9k576x)" points="100.6199,121,383.6199,121,390.6199,144.6094,397.6199,144.6094,397.6199,176.2188,100.6199,176.2188,100.6199,121" style="stroke: #000000; stroke-width: 1.5;"/><line style="stroke: #000000; stroke-width: 1.5;" x1="100.6199" x2="390.6199" y1="144.6094" y2="144.6094"/><text fill="#000000" font-family="sans-serif" font-size="14" font-weight="bold" lengthAdjust="spacingAndGlyphs" textLength="277" x="104.6199" y="137.5332">tictactoe.distributed.dispatchers.errors</text><polygon fill="#DDDDDD" filter="url(#f1citr1a9k576x)" points="433.1201,121,741.1201,121,748.1201,144.6094,755.1201,144.6094,755.1201,176.2188,433.1201,176.2188,433.1201,121" style="stroke: #000000; stroke-width: 1.5;"/><line style="stroke: #000000; stroke-width: 1.5;" x1="433.1201" x2="748.1201" y1="144.6094" y2="144.6094"/><text fill="#000000" font-family="sans-serif" font-size="14" font-weight="bold" lengthAdjust="spacingAndGlyphs" textLength="302" x="437.1201" y="137.5332">tictactoe.distributed.dispatchers.undoredo</text><polygon fill="#DDDDDD" filter="url(#f1citr1a9k576x)" points="548.1201,466,670.1201,466,677.1201,489.6094,684.1201,489.6094,684.1201,521.2188,548.1201,521.2188,548.1201,466" style="stroke: #000000; stroke-width: 1.5;"/><line style="stroke: #000000; stroke-width: 1.5;" x1="548.1201" x2="677.1201" y1="489.6094" y2="489.6094"/><text fill="#000000" font-family="sans-serif" font-size="14" font-weight="bold" lengthAdjust="spacingAndGlyphs" textLength="116" x="552.1201" y="482.5332">tictactoe.models</text><polygon fill="#DDDDDD" filter="url(#f1citr1a9k576x)" points="712.1201,581,748.1201,581,755.1201,604.6094,762.1201,604.6094,762.1201,636.2188,712.1201,636.2188,712.1201,581" style="stroke: #000000; stroke-width: 1.5;"/><line style="stroke: #000000; stroke-width: 1.5;" x1="712.1201" x2="755.1201" y1="604.6094" y2="604.6094"/><text fill="#000000" font-family="sans-serif" font-size="14" font-weight="bold" lengthAdjust="spacingAndGlyphs" textLength="30" x="716.1201" y="597.5332">utils</text><polygon fill="#FFFFFF" filter="url(#f1citr1a9k576x)" points="752.1201,696,814.1201,696,821.1201,719.6094,828.1201,719.6094,828.1201,751.2188,752.1201,751.2188,752.1201,696" style="stroke: #000000; stroke-width: 1.5;"/><line style="stroke: #000000; stroke-width: 1.5;" x1="752.1201" x2="821.1201" y1="719.6094" y2="719.6094"/><text fill="#000000" font-family="sans-serif" font-size="14" font-weight="bold" lengthAdjust="spacingAndGlyphs" textLength="56" x="756.1201" y="712.5332">java.net</text><polygon fill="#FFFFFF" filter="url(#f1citr1a9k576x)" points="651.1201,696,703.1201,696,710.1201,719.6094,717.1201,719.6094,717.1201,751.2188,651.1201,751.2188,651.1201,696" style="stroke: #000000; stroke-width: 1.5;"/><line style="stroke: #000000; stroke-width: 1.5;" x1="651.1201" x2="710.1201" y1="719.6094" y2="719.6094"/><text fill="#000000" font-family="sans-serif" font-size="14" font-weight="bold" lengthAdjust="spacingAndGlyphs" textLength="46" x="655.1201" y="712.5332">java.io</text><polygon fill="#DDDDDD" filter="url(#f1citr1a9k576x)" points="932.1201,236,1044.1201,236,1051.1201,259.6094,1058.1201,259.6094,1058.1201,291.2188,932.1201,291.2188,932.1201,236" style="stroke: #000000; stroke-width: 1.5;"/><line style="stroke: #000000; stroke-width: 1.5;" x1="932.1201" x2="1051.1201" y1="259.6094" y2="259.6094"/><text fill="#000000" font-family="sans-serif" font-size="14" font-weight="bold" lengthAdjust="spacingAndGlyphs" textLength="106" x="936.1201" y="252.5332">tictactoe.views</text><!--MD5=[8fe1157dabbcf20ee852fc992046f19b]
link tictactoe to tictactoe.views--><path d="M924.1601,176.279 C937.9421,193.026 955.7331,214.642 970.0521,232.041 " fill="none" id="tictactoe-&gt;tictactoe.views" style="stroke: #A80036; stroke-width: 1.0; stroke-dasharray: 7.0,7.0;"/><polygon fill="#A80036" points="973.2381,235.913,970.6069,226.4221,970.0606,232.0525,964.4302,231.5062,973.2381,235.913" style="stroke: #A80036; stroke-width: 1.0;"/><!--MD5=[4c8e626184b37a51cac3aeda5d7a8756]
link tictactoe to tictactoe.controllers--><path d="M891.1531,176.101 C873.7241,218.376 839.7721,300.727 821.1371,345.927 " fill="none" id="tictactoe-&gt;tictactoe.controllers" style="stroke: #A80036; stroke-width: 1.0; stroke-dasharray: 7.0,7.0;"/><polygon fill="#A80036" points="819.1621,350.716,826.2903,343.9198,821.0677,346.0934,818.8941,340.8708,819.1621,350.716" style="stroke: #A80036; stroke-width: 1.0;"/><!--MD5=[f6dfdd433beafcf2daacaf58db85d2a6]
link tictactoe.controllers to tictactoe.models--><path d="M762.6181,406.279 C733.4471,423.448 695.5781,445.735 665.6501,463.349 " fill="none" id="tictactoe.controllers-&gt;tictactoe.models" style="stroke: #A80036; stroke-width: 1.0; stroke-dasharray: 7.0,7.0;"/><polygon fill="#A80036" points="661.2951,465.913,671.0805,464.7968,665.6046,463.3776,667.0238,457.9017,661.2951,465.913" style="stroke: #A80036; stroke-width: 1.0;"/><!--MD5=[c868621a8ffa7a8485ccb8c9dbdaad11]
link tictactoe.controllers to java.util--><path d="M726.8021,393.826 C653.5061,408.59 553.7181,433.944 530.1201,466 C480.8751,532.896 506.5591,638.441 524.1391,690.8292 " fill="none" id="tictactoe.controllers-&gt;java.util" style="stroke: #A80036; stroke-width: 1.0; stroke-dasharray: 7.0,7.0;"/><polygon fill="#A80036" points="525.8131,695.73,526.6903,685.9203,524.1974,690.9982,519.1195,688.5054,525.8131,695.73" style="stroke: #A80036; stroke-width: 1.0;"/><!--MD5=[7686e8f287a000f4f4382fab73cbe1d6]
link tictactoe.controllers to utils--><path d="M799.8361,406.101 C786.6721,448.376 761.0271,530.727 746.9521,575.927 " fill="none" id="tictactoe.controllers-&gt;utils" style="stroke: #A80036; stroke-width: 1.0; stroke-dasharray: 7.0,7.0;"/><polygon fill="#A80036" points="745.4601,580.716,751.9557,573.3128,746.9471,575.9422,744.3177,570.9336,745.4601,580.716" style="stroke: #A80036; stroke-width: 1.0;"/><!--MD5=[7c72f5d865466b77d7ca9513c93392ec]
link tictactoe.distributed to tictactoe.controllers--><path d="M808.1201,61.129 C808.1201,123.411 808.1201,278.386 808.1201,345.581 " fill="none" id="tictactoe.distributed-&gt;tictactoe.controllers" style="stroke: #A80036; stroke-width: 1.0; stroke-dasharray: 7.0,7.0;"/><polygon fill="#A80036" points="808.1201,350.651,812.1201,341.651,808.1201,345.651,804.1201,341.651,808.1201,350.651" style="stroke: #A80036; stroke-width: 1.0;"/><!--MD5=[b12a8c2b3a7919c9e97025327732ddf3]
link tictactoe.distributed to tictactoe--><path d="M830.3961,61.279 C844.3271,78.026 862.3091,99.642 876.7831,117.041 " fill="none" id="tictactoe.distributed-&gt;tictactoe" style="stroke: #A80036; stroke-width: 1.0; stroke-dasharray: 7.0,7.0;"/><polygon fill="#A80036" points="880.0031,120.913,877.3237,111.4356,876.806,117.0687,871.1729,116.551,880.0031,120.913" style="stroke: #A80036; stroke-width: 1.0;"/><!--MD5=[05166684c1a59f6da1b9a25ccea13098]
link tictactoe.distributed to tictactoe.distributed.dispatchers--><path d="M726.9531,38.217 C546.6551,47.305 125.3297,73.455 83.1199,121 C6,207.868 190.0301,241.648 326.1261,254.615 " fill="none" id="tictactoe.distributed-&gt;tictactoe.distributed.dispatchers" style="stroke: #A80036; stroke-width: 1.0; stroke-dasharray: 7.0,7.0;"/><polygon fill="#A80036" points="331.3521,255.105,322.7651,250.2817,326.374,254.6379,322.0178,258.2467,331.3521,255.105" style="stroke: #A80036; stroke-width: 1.0;"/><!--MD5=[fc9a0ada8190c13f83b22042efd24c15]
link tictactoe.distributed.dispatchers to tictactoe.controllers--><path d="M539.0931,291.136 C594.1401,308.808 666.2241,331.948 721.9201,349.828 " fill="none" id="tictactoe.distributed.dispatchers-&gt;tictactoe.controllers" style="stroke: #A80036; stroke-width: 1.0; stroke-dasharray: 7.0,7.0;"/><polygon fill="#A80036" points="726.9181,351.432,719.5721,344.8718,722.1575,349.9032,717.1261,352.4887,726.9181,351.432" style="stroke: #A80036; stroke-width: 1.0;"/><!--MD5=[b7310407d86ea056357ccca7cd04e118]
link tictactoe.distributed.dispatchers to java.util--><path d="M455.6941,291.217 C455.3821,353.121 458.4851,510.652 494.1201,636 C499.5861,655.2279 509.1281,675.3931 517.7361,691.4121 " fill="none" id="tictactoe.distributed.dispatchers-&gt;java.util" style="stroke: #A80036; stroke-width: 1.0; stroke-dasharray: 7.0,7.0;"/><polygon fill="#A80036" points="520.1351,695.8161,519.3427,685.9992,517.7434,691.4252,512.3173,689.8259,520.1351,695.8161" style="stroke: #A80036; stroke-width: 1.0;"/><!--MD5=[f1ff7a5fd4bd330114cf79fdd2b626de]
link tictactoe.distributed.dispatchers to utils--><path d="M504.4871,291.276 C560.4331,324.784 651.2221,387.433 701.1201,466 C722.5091,499.679 731.2051,545.433 734.7311,575.683 " fill="none" id="tictactoe.distributed.dispatchers-&gt;utils" style="stroke: #A80036; stroke-width: 1.0; stroke-dasharray: 7.0,7.0;"/><polygon fill="#A80036" points="735.2931,580.772,738.2816,571.3875,734.7445,575.8022,730.3299,572.2652,735.2931,580.772" style="stroke: #A80036; stroke-width: 1.0;"/><!--MD5=[241179430107c216ef5e5d25f87c5ece]
link tictactoe.distributed.dispatchers.errors to tictactoe.distributed.dispatchers--><path d="M297.9141,176.136 C329.3571,193.301 370.2541,215.626 402.5891,233.278 " fill="none" id="tictactoe.distributed.dispatchers.errors-&gt;tictactoe.distributed.dispatchers" style="stroke: #A80036; stroke-width: 1.0; stroke-dasharray: 7.0,7.0;"/><polygon fill="#A80036" points="407.2951,235.847,401.3121,228.0237,402.9064,233.4512,397.4789,235.0456,407.2951,235.847" style="stroke: #A80036; stroke-width: 1.0;"/><!--MD5=[ee2d1546299e79ac8c6c1a2d490aec42]
link tictactoe.distributed.dispatchers.errors to tictactoe.controllers--><path d="M380.3411,176.028 C462.4501,193.776 559.7001,217.229 598.1201,236 C633.6691,253.368 635.6831,268.344 668.1201,291 C697.0151,311.183 730.5721,332 757.5881,348.154 " fill="none" id="tictactoe.distributed.dispatchers.errors-&gt;tictactoe.controllers" style="stroke: #A80036; stroke-width: 1.0; stroke-dasharray: 7.0,7.0;"/><polygon fill="#A80036" points="762.2081,350.91,756.5277,342.8643,757.914,348.3487,752.4296,349.7349,762.2081,350.91" style="stroke: #A80036; stroke-width: 1.0;"/><!--MD5=[ade12dcbcb8b208048e722e0b686ff1f]
link tictactoe.distributed.dispatchers.undoredo to tictactoe.distributed.dispatchers--><path d="M561.4161,176.279 C540.7061,193.237 513.8991,215.188 492.5161,232.697 " fill="none" id="tictactoe.distributed.dispatchers.undoredo-&gt;tictactoe.distributed.dispatchers" style="stroke: #A80036; stroke-width: 1.0; stroke-dasharray: 7.0,7.0;"/><polygon fill="#A80036" points="488.5891,235.913,498.0869,233.3068,492.4579,232.7456,493.0191,227.1167,488.5891,235.913" style="stroke: #A80036; stroke-width: 1.0;"/><!--MD5=[6de17b07ad77692c0ff15aa7f265dc15]
link tictactoe.distributed.dispatchers.undoredo to tictactoe.controllers--><path d="M619.0871,176.101 C659.0881,218.718 737.3151,302.063 779.5091,347.018 " fill="none" id="tictactoe.distributed.dispatchers.undoredo-&gt;tictactoe.controllers" style="stroke: #A80036; stroke-width: 1.0; stroke-dasharray: 7.0,7.0;"/><polygon fill="#A80036" points="782.9811,350.716,779.7389,341.4161,779.5595,347.0701,773.9055,346.8907,782.9811,350.716" style="stroke: #A80036; stroke-width: 1.0;"/><!--MD5=[e6c0f23e74b5161a168046a341518387]
link tictactoe.models to java.util--><path d="M606.7861,521.101 C591.9531,563.376 563.0581,645.727 547.1981,690.927 " fill="none" id="tictactoe.models-&gt;java.util" style="stroke: #A80036; stroke-width: 1.0; stroke-dasharray: 7.0,7.0;"/><polygon fill="#A80036" points="545.5181,695.7163,552.2729,688.5488,547.1739,690.9984,544.7243,685.8995,545.5181,695.7163" style="stroke: #A80036; stroke-width: 1.0;"/><!--MD5=[592d3e5213f5052c5b4a8146f8a66fb9]
link tictactoe.models to utils--><path d="M644.7951,521.279 C663.9261,539.146 688.9931,562.555 708.1781,580.472 " fill="none" id="tictactoe.models-&gt;utils" style="stroke: #A80036; stroke-width: 1.0; stroke-dasharray: 7.0,7.0;"/><polygon fill="#A80036" points="711.9341,583.979,708.0868,574.9127,708.2799,580.5662,702.6264,580.7594,711.9341,583.979" style="stroke: #A80036; stroke-width: 1.0;"/><!--MD5=[9624d8b6af0789eb8a4c95ebf6500f7c]
link utils to java.util--><path d="M712.0691,623.583 C678.6981,642.344 619.1701,675.8103 578.6871,698.5694 " fill="none" id="utils-&gt;java.util" style="stroke: #A80036; stroke-width: 1.0; stroke-dasharray: 7.0,7.0;"/><polygon fill="#A80036" points="573.8471,701.2901,583.6526,700.367,578.2057,698.8401,579.7326,693.3932,573.8471,701.2901" style="stroke: #A80036; stroke-width: 1.0;"/><!--MD5=[02b60266fa6b6f1d17bc27ed61662f3a]
link utils to java.net--><path d="M749.6801,636.279 C757.4031,652.7445 767.3331,673.9172 775.4211,691.1606 " fill="none" id="utils-&gt;java.net" style="stroke: #A80036; stroke-width: 1.0; stroke-dasharray: 7.0,7.0;"/><polygon fill="#A80036" points="777.6501,695.9128,777.4499,686.066,775.527,691.386,770.207,689.463,777.6501,695.9128" style="stroke: #A80036; stroke-width: 1.0;"/><!--MD5=[e79504c030c2940e8dd8427e90ad9823]
link utils to java.io--><path d="M724.5601,636.279 C716.8371,652.7445 706.9061,673.9172 698.8191,691.1606 " fill="none" id="utils-&gt;java.io" style="stroke: #A80036; stroke-width: 1.0; stroke-dasharray: 7.0,7.0;"/><polygon fill="#A80036" points="696.5901,695.9128,704.0332,689.463,698.7132,691.386,696.7903,686.066,696.5901,695.9128" style="stroke: #A80036; stroke-width: 1.0;"/><!--MD5=[6ba7a600a15b805df477e9f81c752d07]
link tictactoe.views to tictactoe.controllers--><path d="M950.8031,291.279 C922.5081,308.378 885.8111,330.553 856.7191,348.132 " fill="none" id="tictactoe.views-&gt;tictactoe.controllers" style="stroke: #A80036; stroke-width: 1.0; stroke-dasharray: 7.0,7.0;"/><polygon fill="#A80036" points="852.1181,350.913,861.8895,349.6804,856.3971,348.3265,857.7511,342.834,852.1181,350.913" style="stroke: #A80036; stroke-width: 1.0;"/><!--MD5=[cd646adb6bbab9424d87d89ba9c34900]
link tictactoe.views to utils--><path d="M979.9131,291.021 C962.9651,319.992 934.2331,367.416 906.1201,406 C860.0731,469.197 800.0011,538.018 765.2771,576.655 " fill="none" id="tictactoe.views-&gt;utils" style="stroke: #A80036; stroke-width: 1.0; stroke-dasharray: 7.0,7.0;"/><polygon fill="#A80036" points="761.5841,580.756,770.5789,576.7443,764.9298,577.0403,764.6338,571.3912,761.5841,580.756" style="stroke: #A80036; stroke-width: 1.0;"/><!--MD5=[25edc196e47defab95d7789ae64e520a]
@startuml

package tictactoe #DDDDDD { }
tictactoe .down.> tictactoe.views
tictactoe .down.> tictactoe.controllers

package tictactoe.controllers #DDDDDD { }
tictactoe.controllers .down.> tictactoe.models
tictactoe.controllers .down.> java.util
tictactoe.controllers .down.> utils

package tictactoe.distributed #DDDDDD { }
tictactoe.distributed .down.> tictactoe.controllers
tictactoe.distributed .down.> tictactoe
tictactoe.distributed .down.> tictactoe.distributed.dispatchers

package tictactoe.distributed.dispatchers #DDDDDD { }
tictactoe.distributed.dispatchers .down.> tictactoe.controllers
package java.util{ }
tictactoe.distributed.dispatchers .down.> java.util
tictactoe.distributed.dispatchers .down.> utils

package tictactoe.distributed.dispatchers.errors #DDDDDD { }
tictactoe.distributed.dispatchers.errors .down.> tictactoe.distributed.dispatchers
tictactoe.distributed.dispatchers.errors .down.> tictactoe.controllers

package tictactoe.distributed.dispatchers.undoredo #DDDDDD { }
tictactoe.distributed.dispatchers.undoredo .down.> tictactoe.distributed.dispatchers
tictactoe.distributed.dispatchers.undoredo .down.> tictactoe.controllers

package tictactoe.models #DDDDDD { }
package java.util{ }
tictactoe.models .down.> java.util
tictactoe.models .down.> utils

package utils #DDDDDD { }
package java.util{ }
utils .down.> java.util
package java.net{ }
utils .down.> java.net
package java.io{ }
utils .down.> java.io

package tictactoe.views #DDDDDD { }
tictactoe.views .down.> tictactoe.controllers
tictactoe.views .down.> utils

@enduml

PlantUML version 1.2020.15(Sun Jun 28 13:39:45 CEST 2020)
(GPL source distribution)
Java Runtime: Java(TM) SE Runtime Environment
JVM: Java HotSpot(TM) 64-Bit Server VM
Default Encoding: windows-1252
Language: es
Country: ES
--></g></svg>