<?xml version="1.0" encoding="UTF-8" standalone="no"?><svg xmlns="http://www.w3.org/2000/svg" xmlns:xlink="http://www.w3.org/1999/xlink" contentScriptType="application/ecmascript" contentStyleType="text/css" height="648px" preserveAspectRatio="none" style="width:848px;height:648px;" version="1.1" viewBox="0 0 848 648" width="848px" zoomAndPan="magnify"><defs><filter height="300%" id="fbf5za18yio7q" width="300%" x="-1" y="-1"><feGaussianBlur result="blurOut" stdDeviation="2.0"/><feColorMatrix in="blurOut" result="blurOut2" type="matrix" values="0 0 0 0 0 0 0 0 0 0 0 0 0 0 0 0 0 0 .4 0"/><feOffset dx="4.0" dy="4.0" in="blurOut2" result="blurOut3"/><feBlend in="SourceGraphic" in2="blurOut3" mode="normal"/></filter></defs><g><polygon fill="#DDDDDD" filter="url(#fbf5za18yio7q)" points="196.7635,6,263.7635,6,270.7635,29.6094,277.7635,29.6094,277.7635,61.2188,196.7635,61.2188,196.7635,6" style="stroke: #000000; stroke-width: 1.5;"/><line style="stroke: #000000; stroke-width: 1.5;" x1="196.7635" x2="270.7635" y1="29.6094" y2="29.6094"/><text fill="#000000" font-family="sans-serif" font-size="14" font-weight="bold" lengthAdjust="spacingAndGlyphs" textLength="61" x="200.7635" y="22.5332">tictactoe</text><polygon fill="#DDDDDD" filter="url(#fbf5za18yio7q)" points="222.2635,236,334.2635,236,341.2635,259.6094,348.2635,259.6094,348.2635,291.2188,222.2635,291.2188,222.2635,236" style="stroke: #000000; stroke-width: 1.5;"/><line style="stroke: #000000; stroke-width: 1.5;" x1="222.2635" x2="341.2635" y1="259.6094" y2="259.6094"/><text fill="#000000" font-family="sans-serif" font-size="14" font-weight="bold" lengthAdjust="spacingAndGlyphs" textLength="106" x="226.2635" y="252.5332">tictactoe.views</text><polygon fill="#DDDDDD" filter="url(#fbf5za18yio7q)" points="181.2635,351,329.2635,351,336.2635,374.6094,343.2635,374.6094,343.2635,406.2188,181.2635,406.2188,181.2635,351" style="stroke: #000000; stroke-width: 1.5;"/><line style="stroke: #000000; stroke-width: 1.5;" x1="181.2635" x2="336.2635" y1="374.6094" y2="374.6094"/><text fill="#000000" font-family="sans-serif" font-size="14" font-weight="bold" lengthAdjust="spacingAndGlyphs" textLength="142" x="185.2635" y="367.5332">tictactoe.controllers</text><polygon fill="#FFFFFF" filter="url(#fbf5za18yio7q)" points="312.7635,6,347.7635,6,354.7635,29.6094,361.7635,29.6094,361.7635,61.2188,312.7635,61.2188,312.7635,6" style="stroke: #000000; stroke-width: 1.5;"/><line style="stroke: #000000; stroke-width: 1.5;" x1="312.7635" x2="354.7635" y1="29.6094" y2="29.6094"/><text fill="#000000" font-family="sans-serif" font-size="14" font-weight="bold" lengthAdjust="spacingAndGlyphs" textLength="29" x="316.7635" y="22.5332">java</text><polygon fill="#DDDDDD" filter="url(#fbf5za18yio7q)" points="134.2635,466,256.2635,466,263.2635,489.6094,270.2635,489.6094,270.2635,521.2188,134.2635,521.2188,134.2635,466" style="stroke: #000000; stroke-width: 1.5;"/><line style="stroke: #000000; stroke-width: 1.5;" x1="134.2635" x2="263.2635" y1="489.6094" y2="489.6094"/><text fill="#000000" font-family="sans-serif" font-size="14" font-weight="bold" lengthAdjust="spacingAndGlyphs" textLength="116" x="138.2635" y="482.5332">tictactoe.models</text><polygon fill="#FFFFFF" filter="url(#fbf5za18yio7q)" points="224.7635,581,285.7635,581,292.7635,604.6094,299.7635,604.6094,299.7635,636.2188,224.7635,636.2188,224.7635,581" style="stroke: #000000; stroke-width: 1.5;"/><line style="stroke: #000000; stroke-width: 1.5;" x1="224.7635" x2="292.7635" y1="604.6094" y2="604.6094"/><text fill="#000000" font-family="sans-serif" font-size="14" font-weight="bold" lengthAdjust="spacingAndGlyphs" textLength="55" x="228.7635" y="597.5332">java.util</text><polygon fill="#DDDDDD" filter="url(#fbf5za18yio7q)" points="66.2635,236,102.2635,236,109.2635,259.6094,116.2635,259.6094,116.2635,291.2188,66.2635,291.2188,66.2635,236" style="stroke: #000000; stroke-width: 1.5;"/><line style="stroke: #000000; stroke-width: 1.5;" x1="66.2635" x2="109.2635" y1="259.6094" y2="259.6094"/><text fill="#000000" font-family="sans-serif" font-size="14" font-weight="bold" lengthAdjust="spacingAndGlyphs" textLength="30" x="70.2635" y="252.5332">utils</text><polygon fill="#FFFFFF" filter="url(#fbf5za18yio7q)" points="58.2635,351,110.2635,351,117.2635,374.6094,124.2635,374.6094,124.2635,406.2188,58.2635,406.2188,58.2635,351" style="stroke: #000000; stroke-width: 1.5;"/><line style="stroke: #000000; stroke-width: 1.5;" x1="58.2635" x2="117.2635" y1="374.6094" y2="374.6094"/><text fill="#000000" font-family="sans-serif" font-size="14" font-weight="bold" lengthAdjust="spacingAndGlyphs" textLength="46" x="62.2635" y="367.5332">java.io</text><polygon fill="#DDDDDD" filter="url(#fbf5za18yio7q)" points="71.2635,121,243.2635,121,250.2635,144.6094,257.2635,144.6094,257.2635,176.2188,71.2635,176.2188,71.2635,121" style="stroke: #000000; stroke-width: 1.5;"/><line style="stroke: #000000; stroke-width: 1.5;" x1="71.2635" x2="250.2635" y1="144.6094" y2="144.6094"/><text fill="#000000" font-family="sans-serif" font-size="14" font-weight="bold" lengthAdjust="spacingAndGlyphs" textLength="166" x="75.2635" y="137.5332">tictactoe.views.console</text><polygon fill="#DDDDDD" filter="url(#fbf5za18yio7q)" points="382.7635,121,559.7635,121,566.7635,144.6094,573.7635,144.6094,573.7635,176.2188,382.7635,176.2188,382.7635,121" style="stroke: #000000; stroke-width: 1.5;"/><line style="stroke: #000000; stroke-width: 1.5;" x1="382.7635" x2="566.7635" y1="144.6094" y2="144.6094"/><text fill="#000000" font-family="sans-serif" font-size="14" font-weight="bold" lengthAdjust="spacingAndGlyphs" textLength="171" x="386.7635" y="137.5332">tictactoe.views.graphics</text><polygon fill="#FFFFFF" filter="url(#fbf5za18yio7q)" points="454.7635,236,517.7635,236,524.7635,259.6094,531.7635,259.6094,531.7635,291.2188,454.7635,291.2188,454.7635,236" style="stroke: #000000; stroke-width: 1.5;"/><line style="stroke: #000000; stroke-width: 1.5;" x1="454.7635" x2="524.7635" y1="259.6094" y2="259.6094"/><text fill="#000000" font-family="sans-serif" font-size="14" font-weight="bold" lengthAdjust="spacingAndGlyphs" textLength="57" x="458.7635" y="252.5332">java.awt</text><polygon fill="#FFFFFF" filter="url(#fbf5za18yio7q)" points="567.2635,236,675.2635,236,682.2635,259.6094,689.2635,259.6094,689.2635,291.2188,567.2635,291.2188,567.2635,236" style="stroke: #000000; stroke-width: 1.5;"/><line style="stroke: #000000; stroke-width: 1.5;" x1="567.2635" x2="682.2635" y1="259.6094" y2="259.6094"/><text fill="#000000" font-family="sans-serif" font-size="14" font-weight="bold" lengthAdjust="spacingAndGlyphs" textLength="102" x="571.2635" y="252.5332">java.awt.event</text><polygon fill="#FFFFFF" filter="url(#fbf5za18yio7q)" points="724.2635,236,812.2635,236,819.2635,259.6094,826.2635,259.6094,826.2635,291.2188,724.2635,291.2188,724.2635,236" style="stroke: #000000; stroke-width: 1.5;"/><line style="stroke: #000000; stroke-width: 1.5;" x1="724.2635" x2="819.2635" y1="259.6094" y2="259.6094"/><text fill="#000000" font-family="sans-serif" font-size="14" font-weight="bold" lengthAdjust="spacingAndGlyphs" textLength="82" x="728.2635" y="252.5332">javax.swing</text><!--MD5=[e75f446ce7e4e6233c0f378e4a80c309]
link tictactoe to tictactoe.views.graphics--><path d="M277.8735,53.541 C315.9265,71.383 373.3235,98.296 416.9505,118.752 " fill="none" id="tictactoe-&gt;tictactoe.views.graphics" style="stroke: #A80036; stroke-width: 1.0; stroke-dasharray: 7.0,7.0;"/><polygon fill="#A80036" points="421.6635,120.961,415.2131,113.5184,417.1365,118.8382,411.8167,120.7616,421.6635,120.961" style="stroke: #A80036; stroke-width: 1.0;"/><!--MD5=[14e8060986a8fc6b4a58b3b27491f648]
link tictactoe to tictactoe.views.console--><path d="M219.9635,61.279 C209.2355,77.885 195.4145,99.279 184.2245,116.602 " fill="none" id="tictactoe-&gt;tictactoe.views.console" style="stroke: #A80036; stroke-width: 1.0; stroke-dasharray: 7.0,7.0;"/><polygon fill="#A80036" points="181.4395,120.913,189.684,115.5252,184.1534,116.7136,182.965,111.183,181.4395,120.913" style="stroke: #A80036; stroke-width: 1.0;"/><!--MD5=[4c8e626184b37a51cac3aeda5d7a8756]
link tictactoe to tictactoe.controllers--><path d="M196.6745,41.056 C153.0555,50.467 85.639,72.373 53.2635,121 C11.3727,183.919 6,228.331 48.2635,291 C63.5661,313.691 123.4635,336.794 176.0105,353.409 " fill="none" id="tictactoe-&gt;tictactoe.controllers" style="stroke: #A80036; stroke-width: 1.0; stroke-dasharray: 7.0,7.0;"/><polygon fill="#A80036" points="181.0715,354.996,173.6824,348.4844,176.301,353.4987,171.2867,356.1173,181.0715,354.996" style="stroke: #A80036; stroke-width: 1.0;"/><!--MD5=[8fe1157dabbcf20ee852fc992046f19b]
link tictactoe to tictactoe.views--><path d="M251.4625,61.367 C259.5895,78.057 269.1585,100.221 274.2635,121 C283.3115,157.831 285.4555,201.525 285.7275,230.515 " fill="none" id="tictactoe-&gt;tictactoe.views" style="stroke: #A80036; stroke-width: 1.0; stroke-dasharray: 7.0,7.0;"/><polygon fill="#A80036" points="285.7575,235.752,289.706,226.7293,285.7289,230.7521,281.7061,226.775,285.7575,235.752" style="stroke: #A80036; stroke-width: 1.0;"/><!--MD5=[f6dfdd433beafcf2daacaf58db85d2a6]
link tictactoe.controllers to tictactoe.models--><path d="M248.0445,406.279 C239.3015,422.745 228.0595,443.917 218.9035,461.161 " fill="none" id="tictactoe.controllers-&gt;tictactoe.models" style="stroke: #A80036; stroke-width: 1.0; stroke-dasharray: 7.0,7.0;"/><polygon fill="#A80036" points="216.3805,465.913,224.1329,459.8384,218.7245,461.4965,217.0664,456.0881,216.3805,465.913" style="stroke: #A80036; stroke-width: 1.0;"/><!--MD5=[c868621a8ffa7a8485ccb8c9dbdaad11]
link tictactoe.controllers to java.util--><path d="M272.1415,406.343 C277.8145,423.21 284.3705,445.57 287.2635,466 C290.6905,490.203 290.6905,496.797 287.2635,521 C284.6415,539.515 279.0115,559.6142 273.7565,575.7742 " fill="none" id="tictactoe.controllers-&gt;java.util" style="stroke: #A80036; stroke-width: 1.0; stroke-dasharray: 7.0,7.0;"/><polygon fill="#A80036" points="272.1415,580.6568,278.7656,573.3683,273.7117,575.9098,271.1703,570.8559,272.1415,580.6568" style="stroke: #A80036; stroke-width: 1.0;"/><!--MD5=[e6c0f23e74b5161a168046a341518387]
link tictactoe.models to java.util--><path d="M216.4825,521.279 C225.2255,537.7445 236.4675,558.9172 245.6235,576.1606 " fill="none" id="tictactoe.models-&gt;java.util" style="stroke: #A80036; stroke-width: 1.0; stroke-dasharray: 7.0,7.0;"/><polygon fill="#A80036" points="248.1465,580.9128,247.4596,571.0879,245.8021,576.4965,240.3935,574.839,248.1465,580.9128" style="stroke: #A80036; stroke-width: 1.0;"/><!--MD5=[e79504c030c2940e8dd8427e90ad9823]
link utils to java.io--><path d="M91.2635,291.279 C91.2635,307.604 91.2635,328.556 91.2635,345.718 " fill="none" id="utils-&gt;java.io" style="stroke: #A80036; stroke-width: 1.0; stroke-dasharray: 7.0,7.0;"/><polygon fill="#A80036" points="91.2635,350.913,95.2635,341.913,91.2635,345.913,87.2635,341.913,91.2635,350.913" style="stroke: #A80036; stroke-width: 1.0;"/><!--MD5=[6ba7a600a15b805df477e9f81c752d07]
link tictactoe.views to tictactoe.controllers--><path d="M279.8125,291.279 C276.4905,307.604 272.2255,328.556 268.7325,345.718 " fill="none" id="tictactoe.views-&gt;tictactoe.controllers" style="stroke: #A80036; stroke-width: 1.0; stroke-dasharray: 7.0,7.0;"/><polygon fill="#A80036" points="267.6755,350.913,273.3899,342.8914,268.6726,346.0134,265.5505,341.2961,267.6755,350.913" style="stroke: #A80036; stroke-width: 1.0;"/><!--MD5=[d9231b12cc9710bcc39738b6493510f9]
link tictactoe.views.console to tictactoe.views--><path d="M192.9385,176.279 C211.0215,193.167 234.4075,215.006 253.1175,232.479 " fill="none" id="tictactoe.views.console-&gt;tictactoe.views" style="stroke: #A80036; stroke-width: 1.0; stroke-dasharray: 7.0,7.0;"/><polygon fill="#A80036" points="256.7945,235.913,252.9472,226.8467,253.1403,232.5002,247.4868,232.6934,256.7945,235.913" style="stroke: #A80036; stroke-width: 1.0;"/><!--MD5=[ae85e2051aac6338671b2c0e494e498c]
link tictactoe.views.console to tictactoe.controllers--><path d="M169.1865,176.199 C175.1485,205.326 186.6395,252.882 204.2635,291 C213.2805,310.501 226.4225,330.536 237.9185,346.407 " fill="none" id="tictactoe.views.console-&gt;tictactoe.controllers" style="stroke: #A80036; stroke-width: 1.0; stroke-dasharray: 7.0,7.0;"/><polygon fill="#A80036" points="241.1125,350.769,239.0246,341.144,238.1593,346.7343,232.569,345.8691,241.1125,350.769" style="stroke: #A80036; stroke-width: 1.0;"/><!--MD5=[b62e8057ebb64db4cc41eb56011c03b5]
link tictactoe.views.console to utils--><path d="M146.9635,176.279 C136.2355,192.885 122.4145,214.279 111.2243,231.602 " fill="none" id="tictactoe.views.console-&gt;utils" style="stroke: #A80036; stroke-width: 1.0; stroke-dasharray: 7.0,7.0;"/><polygon fill="#A80036" points="108.4393,235.913,116.6839,230.5253,111.1533,231.7137,109.9649,226.183,108.4393,235.913" style="stroke: #A80036; stroke-width: 1.0;"/><!--MD5=[c7abc341df818e9399752b73ea287ffa]
link tictactoe.views.graphics to java.awt--><path d="M481.8185,176.279 C483.9855,192.604 486.7665,213.556 489.0445,230.718 " fill="none" id="tictactoe.views.graphics-&gt;java.awt" style="stroke: #A80036; stroke-width: 1.0; stroke-dasharray: 7.0,7.0;"/><polygon fill="#A80036" points="489.7345,235.913,492.5144,226.4646,489.076,230.9565,484.5841,227.5182,489.7345,235.913" style="stroke: #A80036; stroke-width: 1.0;"/><!--MD5=[1c28faa5b8dc6ea7b3ae1a3bac7bae3d]
link tictactoe.views.graphics to java.awt.event--><path d="M513.8115,176.279 C536.3215,193.237 565.4605,215.188 588.7025,232.697 " fill="none" id="tictactoe.views.graphics-&gt;java.awt.event" style="stroke: #A80036; stroke-width: 1.0; stroke-dasharray: 7.0,7.0;"/><polygon fill="#A80036" points="592.9705,235.913,588.1882,227.3031,588.9767,232.9048,583.375,233.6933,592.9705,235.913" style="stroke: #A80036; stroke-width: 1.0;"/><!--MD5=[36236f1ad998eba9fea5e75bc6a115c4]
link tictactoe.views.graphics to tictactoe.views--><path d="M432.5255,176.279 C403.2015,193.448 365.1355,215.735 335.0525,233.349 " fill="none" id="tictactoe.views.graphics-&gt;tictactoe.views" style="stroke: #A80036; stroke-width: 1.0; stroke-dasharray: 7.0,7.0;"/><polygon fill="#A80036" points="330.6735,235.913,340.4615,234.8194,334.9888,233.3875,336.4207,227.9149,330.6735,235.913" style="stroke: #A80036; stroke-width: 1.0;"/><!--MD5=[e76a6be31849206907fd12c2469d4e43]
link tictactoe.views.graphics to tictactoe.controllers--><path d="M459.5045,176.086 C438.1805,205.53 401.5975,253.758 365.2635,291 C345.5425,311.214 321.4675,331.634 301.5535,347.554 " fill="none" id="tictactoe.views.graphics-&gt;tictactoe.controllers" style="stroke: #A80036; stroke-width: 1.0; stroke-dasharray: 7.0,7.0;"/><polygon fill="#A80036" points="297.6285,350.676,307.1619,348.2032,301.5413,347.5632,302.1813,341.9426,297.6285,350.676" style="stroke: #A80036; stroke-width: 1.0;"/><!--MD5=[b630ab80351c1f98f91c87ac09bf7168]
link tictactoe.views.graphics to javax.swing--><path d="M549.0015,176.002 C594.2935,193.025 654.2935,215.675 707.2635,236 C711.1745,237.501 715.2095,239.056 719.2715,240.626 " fill="none" id="tictactoe.views.graphics-&gt;javax.swing" style="stroke: #A80036; stroke-width: 1.0; stroke-dasharray: 7.0,7.0;"/><polygon fill="#A80036" points="724.0465,242.474,717.0983,235.4938,719.3839,240.6684,714.2093,242.954,724.0465,242.474" style="stroke: #A80036; stroke-width: 1.0;"/><!--MD5=[a9188ee2b8f2c21af8e18b7e0d0d2eff]
@startuml

package tictactoe #DDDDDD { }
tictactoe .down.> tictactoe.views.graphics
tictactoe .down.> tictactoe.views.console
tictactoe .down.> tictactoe.controllers
tictactoe .down.> tictactoe.views

package tictactoe.controllers #DDDDDD { }
tictactoe.controllers .down.> tictactoe.models
tictactoe.controllers .down.> java.util

package tictactoe.models #DDDDDD { }
package java.util{ }
tictactoe.models .down.> java.util

package utils #DDDDDD { }
package java.io{ }
utils .down.> java.io

package tictactoe.views #DDDDDD { }
tictactoe.views .down.> tictactoe.controllers

package tictactoe.views.console #DDDDDD { }
tictactoe.views.console .down.> tictactoe.views
tictactoe.views.console .down.> tictactoe.controllers
tictactoe.views.console .down.> utils

package tictactoe.views.graphics #DDDDDD { }
package java.awt{ }
tictactoe.views.graphics .down.> java.awt
package java.awt.event{ }
tictactoe.views.graphics .down.> java.awt.event
tictactoe.views.graphics .down.> tictactoe.views
tictactoe.views.graphics .down.> tictactoe.controllers
package javax.swing{ }
tictactoe.views.graphics .down.> javax.swing

@enduml

PlantUML version 1.2020.15(Sun Jun 28 13:39:45 CEST 2020)
(GPL source distribution)
Java Runtime: Java(TM) SE Runtime Environment
JVM: Java HotSpot(TM) 64-Bit Server VM
Default Encoding: windows-1252
Language: es
Country: ES
--></g></svg>