<?xml version="1.0" encoding="UTF-8" standalone="no"?><svg xmlns="http://www.w3.org/2000/svg" xmlns:xlink="http://www.w3.org/1999/xlink" contentScriptType="application/ecmascript" contentStyleType="text/css" height="648px" preserveAspectRatio="none" style="width:923px;height:648px;" version="1.1" viewBox="0 0 923 648" width="923px" zoomAndPan="magnify"><defs><filter height="300%" id="f2sudhvywjbar" width="300%" x="-1" y="-1"><feGaussianBlur result="blurOut" stdDeviation="2.0"/><feColorMatrix in="blurOut" result="blurOut2" type="matrix" values="0 0 0 0 0 0 0 0 0 0 0 0 0 0 0 0 0 0 .4 0"/><feOffset dx="4.0" dy="4.0" in="blurOut2" result="blurOut3"/><feBlend in="SourceGraphic" in2="blurOut3" mode="normal"/></filter></defs><g><polygon fill="#DDDDDD" filter="url(#f2sudhvywjbar)" points="246.6114,6,313.6114,6,320.6114,29.6094,327.6114,29.6094,327.6114,61.2188,246.6114,61.2188,246.6114,6" style="stroke: #000000; stroke-width: 1.5;"/><line style="stroke: #000000; stroke-width: 1.5;" x1="246.6114" x2="320.6114" y1="29.6094" y2="29.6094"/><text fill="#000000" font-family="sans-serif" font-size="14" font-weight="bold" lengthAdjust="spacingAndGlyphs" textLength="61" x="250.6114" y="22.5332">tictactoe</text><polygon fill="#DDDDDD" filter="url(#f2sudhvywjbar)" points="194.1114,236,306.1114,236,313.1114,259.6094,320.1114,259.6094,320.1114,291.2188,194.1114,291.2188,194.1114,236" style="stroke: #000000; stroke-width: 1.5;"/><line style="stroke: #000000; stroke-width: 1.5;" x1="194.1114" x2="313.1114" y1="259.6094" y2="259.6094"/><text fill="#000000" font-family="sans-serif" font-size="14" font-weight="bold" lengthAdjust="spacingAndGlyphs" textLength="106" x="198.1114" y="252.5332">tictactoe.views</text><polygon fill="#DDDDDD" filter="url(#f2sudhvywjbar)" points="176.1114,351,324.1114,351,331.1114,374.6094,338.1114,374.6094,338.1114,406.2188,176.1114,406.2188,176.1114,351" style="stroke: #000000; stroke-width: 1.5;"/><line style="stroke: #000000; stroke-width: 1.5;" x1="176.1114" x2="331.1114" y1="374.6094" y2="374.6094"/><text fill="#000000" font-family="sans-serif" font-size="14" font-weight="bold" lengthAdjust="spacingAndGlyphs" textLength="142" x="180.1114" y="367.5332">tictactoe.controllers</text><polygon fill="#DDDDDD" filter="url(#f2sudhvywjbar)" points="53.1115,466,175.1115,466,182.1115,489.6094,189.1115,489.6094,189.1115,521.2188,53.1115,521.2188,53.1115,466" style="stroke: #000000; stroke-width: 1.5;"/><line style="stroke: #000000; stroke-width: 1.5;" x1="53.1115" x2="182.1115" y1="489.6094" y2="489.6094"/><text fill="#000000" font-family="sans-serif" font-size="14" font-weight="bold" lengthAdjust="spacingAndGlyphs" textLength="116" x="57.1115" y="482.5332">tictactoe.models</text><polygon fill="#FFFFFF" filter="url(#f2sudhvywjbar)" points="83.6115,581,144.6115,581,151.6115,604.6094,158.6115,604.6094,158.6115,636.2188,83.6115,636.2188,83.6115,581" style="stroke: #000000; stroke-width: 1.5;"/><line style="stroke: #000000; stroke-width: 1.5;" x1="83.6115" x2="151.6115" y1="604.6094" y2="604.6094"/><text fill="#000000" font-family="sans-serif" font-size="14" font-weight="bold" lengthAdjust="spacingAndGlyphs" textLength="55" x="87.6115" y="597.5332">java.util</text><polygon fill="#DDDDDD" filter="url(#f2sudhvywjbar)" points="38.1115,236,74.1115,236,81.1115,259.6094,88.1115,259.6094,88.1115,291.2188,38.1115,291.2188,38.1115,236" style="stroke: #000000; stroke-width: 1.5;"/><line style="stroke: #000000; stroke-width: 1.5;" x1="38.1115" x2="81.1115" y1="259.6094" y2="259.6094"/><text fill="#000000" font-family="sans-serif" font-size="14" font-weight="bold" lengthAdjust="spacingAndGlyphs" textLength="30" x="42.1115" y="252.5332">utils</text><polygon fill="#FFFFFF" filter="url(#f2sudhvywjbar)" points="38.1115,351,90.1115,351,97.1115,374.6094,104.1115,374.6094,104.1115,406.2188,38.1115,406.2188,38.1115,351" style="stroke: #000000; stroke-width: 1.5;"/><line style="stroke: #000000; stroke-width: 1.5;" x1="38.1115" x2="97.1115" y1="374.6094" y2="374.6094"/><text fill="#000000" font-family="sans-serif" font-size="14" font-weight="bold" lengthAdjust="spacingAndGlyphs" textLength="46" x="42.1115" y="367.5332">java.io</text><polygon fill="#DDDDDD" filter="url(#f2sudhvywjbar)" points="48.1115,121,220.1115,121,227.1115,144.6094,234.1115,144.6094,234.1115,176.2188,48.1115,176.2188,48.1115,121" style="stroke: #000000; stroke-width: 1.5;"/><line style="stroke: #000000; stroke-width: 1.5;" x1="48.1115" x2="227.1115" y1="144.6094" y2="144.6094"/><text fill="#000000" font-family="sans-serif" font-size="14" font-weight="bold" lengthAdjust="spacingAndGlyphs" textLength="166" x="52.1115" y="137.5332">tictactoe.views.console</text><polygon fill="#DDDDDD" filter="url(#f2sudhvywjbar)" points="386.6114,121,563.6114,121,570.6114,144.6094,577.6114,144.6094,577.6114,176.2188,386.6114,176.2188,386.6114,121" style="stroke: #000000; stroke-width: 1.5;"/><line style="stroke: #000000; stroke-width: 1.5;" x1="386.6114" x2="570.6114" y1="144.6094" y2="144.6094"/><text fill="#000000" font-family="sans-serif" font-size="14" font-weight="bold" lengthAdjust="spacingAndGlyphs" textLength="171" x="390.6114" y="137.5332">tictactoe.views.graphics</text><polygon fill="#FFFFFF" filter="url(#f2sudhvywjbar)" points="355.6114,236,418.6114,236,425.6114,259.6094,432.6114,259.6094,432.6114,291.2188,355.6114,291.2188,355.6114,236" style="stroke: #000000; stroke-width: 1.5;"/><line style="stroke: #000000; stroke-width: 1.5;" x1="355.6114" x2="425.6114" y1="259.6094" y2="259.6094"/><text fill="#000000" font-family="sans-serif" font-size="14" font-weight="bold" lengthAdjust="spacingAndGlyphs" textLength="57" x="359.6114" y="252.5332">java.awt</text><polygon fill="#FFFFFF" filter="url(#f2sudhvywjbar)" points="468.1114,236,576.1114,236,583.1114,259.6094,590.1114,259.6094,590.1114,291.2188,468.1114,291.2188,468.1114,236" style="stroke: #000000; stroke-width: 1.5;"/><line style="stroke: #000000; stroke-width: 1.5;" x1="468.1114" x2="583.1114" y1="259.6094" y2="259.6094"/><text fill="#000000" font-family="sans-serif" font-size="14" font-weight="bold" lengthAdjust="spacingAndGlyphs" textLength="102" x="472.1114" y="252.5332">java.awt.event</text><polygon fill="#FFFFFF" filter="url(#f2sudhvywjbar)" points="625.1114,236,713.1114,236,720.1114,259.6094,727.1114,259.6094,727.1114,291.2188,625.1114,291.2188,625.1114,236" style="stroke: #000000; stroke-width: 1.5;"/><line style="stroke: #000000; stroke-width: 1.5;" x1="625.1114" x2="720.1114" y1="259.6094" y2="259.6094"/><text fill="#000000" font-family="sans-serif" font-size="14" font-weight="bold" lengthAdjust="spacingAndGlyphs" textLength="82" x="629.1114" y="252.5332">javax.swing</text><!--MD5=[e75f446ce7e4e6233c0f378e4a80c309]
link tictactoe to tictactoe.views.graphics--><path d="M327.9904,58.189 C358.1134,75.645 399.2734,99.496 431.4804,118.16 " fill="none" id="tictactoe-&gt;tictactoe.views.graphics" style="stroke: #A80036; stroke-width: 1.0; stroke-dasharray: 7.0,7.0;"/><polygon fill="#A80036" points="436.1644,120.874,430.3816,112.9016,431.8379,118.3678,426.3717,119.8241,436.1644,120.874" style="stroke: #A80036; stroke-width: 1.0;"/><!--MD5=[a65998a409184a650758a5d227ee8afa]
link tictactoe to tictactoe.models--><path d="M246.4594,35.233 C188.2724,38.687 82.4964,54.392 30.1115,121 C6,151.658 13.8778,392.454 20.1115,406 C30.744,429.105 50.93,448.343 70.4778,462.764 " fill="none" id="tictactoe-&gt;tictactoe.models" style="stroke: #A80036; stroke-width: 1.0; stroke-dasharray: 7.0,7.0;"/><polygon fill="#A80036" points="74.8977,465.953,69.9401,457.4429,70.8431,463.0272,65.2588,463.9302,74.8977,465.953" style="stroke: #A80036; stroke-width: 1.0;"/><!--MD5=[14e8060986a8fc6b4a58b3b27491f648]
link tictactoe to tictactoe.views.console--><path d="M252.5114,61.279 C230.6014,78.237 202.2404,100.188 179.6174,117.697 " fill="none" id="tictactoe-&gt;tictactoe.views.console" style="stroke: #A80036; stroke-width: 1.0; stroke-dasharray: 7.0,7.0;"/><polygon fill="#A80036" points="175.4634,120.913,185.0287,118.5668,179.4172,117.8523,180.1316,112.2408,175.4634,120.913" style="stroke: #A80036; stroke-width: 1.0;"/><!--MD5=[4c8e626184b37a51cac3aeda5d7a8756]
link tictactoe to tictactoe.controllers--><path d="M327.6234,39.542 C467.1054,58.435 911.6624,132.219 777.1114,291 C722.5304,355.411 476.5214,371.909 343.3654,376.1 " fill="none" id="tictactoe-&gt;tictactoe.controllers" style="stroke: #A80036; stroke-width: 1.0; stroke-dasharray: 7.0,7.0;"/><polygon fill="#A80036" points="338.2854,376.255,347.4035,379.978,343.2831,376.1021,347.1589,371.9817,338.2854,376.255" style="stroke: #A80036; stroke-width: 1.0;"/><!--MD5=[8fe1157dabbcf20ee852fc992046f19b]
link tictactoe to tictactoe.views--><path d="M283.6114,61.101 C278.0604,103.291 267.2574,185.393 261.3024,230.652 " fill="none" id="tictactoe-&gt;tictactoe.views" style="stroke: #A80036; stroke-width: 1.0; stroke-dasharray: 7.0,7.0;"/><polygon fill="#A80036" points="260.6354,235.716,265.7739,227.3139,261.2869,230.7586,257.8421,226.2716,260.6354,235.716" style="stroke: #A80036; stroke-width: 1.0;"/><!--MD5=[f6dfdd433beafcf2daacaf58db85d2a6]
link tictactoe.controllers to tictactoe.models--><path d="M224.8814,406.279 C204.4724,423.237 178.0534,445.188 156.9804,462.697 " fill="none" id="tictactoe.controllers-&gt;tictactoe.models" style="stroke: #A80036; stroke-width: 1.0; stroke-dasharray: 7.0,7.0;"/><polygon fill="#A80036" points="153.1104,465.913,162.5889,463.2374,156.956,462.7174,157.476,457.0845,153.1104,465.913" style="stroke: #A80036; stroke-width: 1.0;"/><!--MD5=[e6c0f23e74b5161a168046a341518387]
link tictactoe.models to java.util--><path d="M121.1114,521.279 C121.1114,537.6038 121.1114,558.5556 121.1114,575.7176 " fill="none" id="tictactoe.models-&gt;java.util" style="stroke: #A80036; stroke-width: 1.0; stroke-dasharray: 7.0,7.0;"/><polygon fill="#A80036" points="121.1114,580.9128,125.1114,571.9128,121.1114,575.9128,117.1114,571.9128,121.1114,580.9128" style="stroke: #A80036; stroke-width: 1.0;"/><!--MD5=[e79504c030c2940e8dd8427e90ad9823]
link utils to java.io--><path d="M65.0074,291.279 C66.1631,307.604 67.6464,328.556 68.8614,345.718 " fill="none" id="utils-&gt;java.io" style="stroke: #A80036; stroke-width: 1.0; stroke-dasharray: 7.0,7.0;"/><polygon fill="#A80036" points="69.2292,350.913,72.5841,341.6532,68.8764,345.9255,64.6041,342.2177,69.2292,350.913" style="stroke: #A80036; stroke-width: 1.0;"/><!--MD5=[6ba7a600a15b805df477e9f81c752d07]
link tictactoe.views to tictactoe.controllers--><path d="M257.1114,291.279 C257.1114,307.604 257.1114,328.556 257.1114,345.718 " fill="none" id="tictactoe.views-&gt;tictactoe.controllers" style="stroke: #A80036; stroke-width: 1.0; stroke-dasharray: 7.0,7.0;"/><polygon fill="#A80036" points="257.1114,350.913,261.1114,341.913,257.1114,345.913,253.1114,341.913,257.1114,350.913" style="stroke: #A80036; stroke-width: 1.0;"/><!--MD5=[d9231b12cc9710bcc39738b6493510f9]
link tictactoe.views.console to tictactoe.views--><path d="M168.6024,176.279 C185.7934,193.026 207.9834,214.642 225.8444,232.041 " fill="none" id="tictactoe.views.console-&gt;tictactoe.views" style="stroke: #A80036; stroke-width: 1.0; stroke-dasharray: 7.0,7.0;"/><polygon fill="#A80036" points="229.8184,235.913,226.1643,226.7671,226.2375,232.4235,220.5811,232.4966,229.8184,235.913" style="stroke: #A80036; stroke-width: 1.0;"/><!--MD5=[ae85e2051aac6338671b2c0e494e498c]
link tictactoe.views.console to tictactoe.controllers--><path d="M143.6474,176.25 C147.3514,205.839 156.1234,254.196 176.1114,291 C187.5164,312 205.2484,331.752 221.2164,347.064 " fill="none" id="tictactoe.views.console-&gt;tictactoe.controllers" style="stroke: #A80036; stroke-width: 1.0; stroke-dasharray: 7.0,7.0;"/><polygon fill="#A80036" points="225.2334,350.86,221.4393,341.7713,221.5993,347.4259,215.9447,347.5859,225.2334,350.86" style="stroke: #A80036; stroke-width: 1.0;"/><!--MD5=[b62e8057ebb64db4cc41eb56011c03b5]
link tictactoe.views.console to utils--><path d="M122.6264,176.279 C111.1642,192.885 96.3965,214.279 84.4394,231.602 " fill="none" id="tictactoe.views.console-&gt;utils" style="stroke: #A80036; stroke-width: 1.0; stroke-dasharray: 7.0,7.0;"/><polygon fill="#A80036" points="81.4637,235.913,89.8679,230.7779,84.3038,231.7979,83.2838,226.2338,81.4637,235.913" style="stroke: #A80036; stroke-width: 1.0;"/><!--MD5=[c7abc341df818e9399752b73ea287ffa]
link tictactoe.views.graphics to java.awt--><path d="M461.2564,176.279 C448.3244,192.885 431.6634,214.279 418.1734,231.602 " fill="none" id="tictactoe.views.graphics-&gt;java.awt" style="stroke: #A80036; stroke-width: 1.0; stroke-dasharray: 7.0,7.0;"/><polygon fill="#A80036" points="414.8164,235.913,423.502,231.2696,417.8884,231.968,417.19,226.3544,414.8164,235.913" style="stroke: #A80036; stroke-width: 1.0;"/><!--MD5=[1c28faa5b8dc6ea7b3ae1a3bac7bae3d]
link tictactoe.views.graphics to java.awt.event--><path d="M493.2494,176.279 C500.0984,192.745 508.9044,213.917 516.0764,231.161 " fill="none" id="tictactoe.views.graphics-&gt;java.awt.event" style="stroke: #A80036; stroke-width: 1.0; stroke-dasharray: 7.0,7.0;"/><polygon fill="#A80036" points="518.0534,235.913,518.29,226.067,516.1331,231.2965,510.9036,229.1395,518.0534,235.913" style="stroke: #A80036; stroke-width: 1.0;"/><!--MD5=[36236f1ad998eba9fea5e75bc6a115c4]
link tictactoe.views.graphics to tictactoe.views--><path d="M429.0744,176.136 C394.7574,193.371 350.0804,215.809 314.8664,233.494 " fill="none" id="tictactoe.views.graphics-&gt;tictactoe.views" style="stroke: #A80036; stroke-width: 1.0; stroke-dasharray: 7.0,7.0;"/><polygon fill="#A80036" points="310.1814,235.847,320.0193,235.3822,314.6495,233.6029,316.4288,228.2332,310.1814,235.847" style="stroke: #A80036; stroke-width: 1.0;"/><!--MD5=[e76a6be31849206907fd12c2469d4e43]
link tictactoe.views.graphics to tictactoe.controllers--><path d="M577.7104,165.304 C673.7884,185.247 800.3224,225.142 745.1114,291 C694.8154,350.996 469.4354,369.405 343.3024,375.034 " fill="none" id="tictactoe.views.graphics-&gt;tictactoe.controllers" style="stroke: #A80036; stroke-width: 1.0; stroke-dasharray: 7.0,7.0;"/><polygon fill="#A80036" points="338.1154,375.261,347.2817,378.8638,343.1106,375.0425,346.932,370.8714,338.1154,375.261" style="stroke: #A80036; stroke-width: 1.0;"/><!--MD5=[b630ab80351c1f98f91c87ac09bf7168]
link tictactoe.views.graphics to javax.swing--><path d="M528.0864,176.279 C557.5624,193.448 595.8254,215.735 626.0644,233.349 " fill="none" id="tictactoe.views.graphics-&gt;javax.swing" style="stroke: #A80036; stroke-width: 1.0; stroke-dasharray: 7.0,7.0;"/><polygon fill="#A80036" points="630.4664,235.913,624.704,227.9259,626.1463,233.3958,620.6764,234.8381,630.4664,235.913" style="stroke: #A80036; stroke-width: 1.0;"/><!--MD5=[4a41a00960c051ce8bd4b1296142b767]
@startuml

package tictactoe #DDDDDD { }
tictactoe .down.> tictactoe.views.graphics
tictactoe .down.> tictactoe.models
tictactoe .down.> tictactoe.views.console
tictactoe .down.> tictactoe.controllers
tictactoe .down.> tictactoe.views

package tictactoe.controllers #DDDDDD { }
tictactoe.controllers .down.> tictactoe.models

package tictactoe.models #DDDDDD { }
package java.util{ }
tictactoe.models .down.> java.util

package utils #DDDDDD { }
package java.io{ }
utils .down.> java.io

package tictactoe.views #DDDDDD { }
tictactoe.views .down.> tictactoe.controllers

package tictactoe.views.console #DDDDDD { }
tictactoe.views.console .down.> tictactoe.views
tictactoe.views.console .down.> tictactoe.controllers
tictactoe.views.console .down.> utils

package tictactoe.views.graphics #DDDDDD { }
package java.awt{ }
tictactoe.views.graphics .down.> java.awt
package java.awt.event{ }
tictactoe.views.graphics .down.> java.awt.event
tictactoe.views.graphics .down.> tictactoe.views
tictactoe.views.graphics .down.> tictactoe.controllers
package javax.swing{ }
tictactoe.views.graphics .down.> javax.swing

@enduml

PlantUML version 1.2020.15(Sun Jun 28 13:39:45 CEST 2020)
(GPL source distribution)
Java Runtime: Java(TM) SE Runtime Environment
JVM: Java HotSpot(TM) 64-Bit Server VM
Default Encoding: windows-1252
Language: es
Country: ES
--></g></svg>