<?xml version="1.0" encoding="UTF-8" standalone="no"?><svg xmlns="http://www.w3.org/2000/svg" xmlns:xlink="http://www.w3.org/1999/xlink" contentScriptType="application/ecmascript" contentStyleType="text/css" height="648px" preserveAspectRatio="none" style="width:1112px;height:648px;" version="1.1" viewBox="0 0 1112 648" width="1112px" zoomAndPan="magnify"><defs><filter height="300%" id="f5u924xbc6ecb" width="300%" x="-1" y="-1"><feGaussianBlur result="blurOut" stdDeviation="2.0"/><feColorMatrix in="blurOut" result="blurOut2" type="matrix" values="0 0 0 0 0 0 0 0 0 0 0 0 0 0 0 0 0 0 .4 0"/><feOffset dx="4.0" dy="4.0" in="blurOut2" result="blurOut3"/><feBlend in="SourceGraphic" in2="blurOut3" mode="normal"/></filter></defs><g><polygon fill="#DDDDDD" filter="url(#f5u924xbc6ecb)" points="397.5,6,464.5,6,471.5,29.6094,478.5,29.6094,478.5,61.2188,397.5,61.2188,397.5,6" style="stroke: #000000; stroke-width: 1.5;"/><line style="stroke: #000000; stroke-width: 1.5;" x1="397.5" x2="471.5" y1="29.6094" y2="29.6094"/><text fill="#000000" font-family="sans-serif" font-size="14" font-weight="bold" lengthAdjust="spacingAndGlyphs" textLength="61" x="401.5" y="22.5332">tictactoe</text><polygon fill="#DDDDDD" filter="url(#f5u924xbc6ecb)" points="259,236,371,236,378,259.6094,385,259.6094,385,291.2188,259,291.2188,259,236" style="stroke: #000000; stroke-width: 1.5;"/><line style="stroke: #000000; stroke-width: 1.5;" x1="259" x2="378" y1="259.6094" y2="259.6094"/><text fill="#000000" font-family="sans-serif" font-size="14" font-weight="bold" lengthAdjust="spacingAndGlyphs" textLength="106" x="263" y="252.5332">tictactoe.views</text><polygon fill="#DDDDDD" filter="url(#f5u924xbc6ecb)" points="365,351,513,351,520,374.6094,527,374.6094,527,406.2188,365,406.2188,365,351" style="stroke: #000000; stroke-width: 1.5;"/><line style="stroke: #000000; stroke-width: 1.5;" x1="365" x2="520" y1="374.6094" y2="374.6094"/><text fill="#000000" font-family="sans-serif" font-size="14" font-weight="bold" lengthAdjust="spacingAndGlyphs" textLength="142" x="369" y="367.5332">tictactoe.controllers</text><polygon fill="#DDDDDD" filter="url(#f5u924xbc6ecb)" points="633,466,755,466,762,489.6094,769,489.6094,769,521.2188,633,521.2188,633,466" style="stroke: #000000; stroke-width: 1.5;"/><line style="stroke: #000000; stroke-width: 1.5;" x1="633" x2="762" y1="489.6094" y2="489.6094"/><text fill="#000000" font-family="sans-serif" font-size="14" font-weight="bold" lengthAdjust="spacingAndGlyphs" textLength="116" x="637" y="482.5332">tictactoe.models</text><polygon fill="#DDDDDD" filter="url(#f5u924xbc6ecb)" points="384.5,581,493.5,581,500.5,604.6094,507.5,604.6094,507.5,636.2188,384.5,636.2188,384.5,581" style="stroke: #000000; stroke-width: 1.5;"/><line style="stroke: #000000; stroke-width: 1.5;" x1="384.5" x2="500.5" y1="604.6094" y2="604.6094"/><text fill="#000000" font-family="sans-serif" font-size="14" font-weight="bold" lengthAdjust="spacingAndGlyphs" textLength="103" x="388.5" y="597.5332">tictactoe.types</text><polygon fill="#FFFFFF" filter="url(#f5u924xbc6ecb)" points="663.5,581,724.5,581,731.5,604.6094,738.5,604.6094,738.5,636.2188,663.5,636.2188,663.5,581" style="stroke: #000000; stroke-width: 1.5;"/><line style="stroke: #000000; stroke-width: 1.5;" x1="663.5" x2="731.5" y1="604.6094" y2="604.6094"/><text fill="#000000" font-family="sans-serif" font-size="14" font-weight="bold" lengthAdjust="spacingAndGlyphs" textLength="55" x="667.5" y="597.5332">java.util</text><polygon fill="#DDDDDD" filter="url(#f5u924xbc6ecb)" points="28,236,64,236,71,259.6094,78,259.6094,78,291.2188,28,291.2188,28,236" style="stroke: #000000; stroke-width: 1.5;"/><line style="stroke: #000000; stroke-width: 1.5;" x1="28" x2="71" y1="259.6094" y2="259.6094"/><text fill="#000000" font-family="sans-serif" font-size="14" font-weight="bold" lengthAdjust="spacingAndGlyphs" textLength="30" x="32" y="252.5332">utils</text><polygon fill="#FFFFFF" filter="url(#f5u924xbc6ecb)" points="16,351,68,351,75,374.6094,82,374.6094,82,406.2188,16,406.2188,16,351" style="stroke: #000000; stroke-width: 1.5;"/><line style="stroke: #000000; stroke-width: 1.5;" x1="16" x2="75" y1="374.6094" y2="374.6094"/><text fill="#000000" font-family="sans-serif" font-size="14" font-weight="bold" lengthAdjust="spacingAndGlyphs" textLength="46" x="20" y="367.5332">java.io</text><polygon fill="#DDDDDD" filter="url(#f5u924xbc6ecb)" points="113,121,285,121,292,144.6094,299,144.6094,299,176.2188,113,176.2188,113,121" style="stroke: #000000; stroke-width: 1.5;"/><line style="stroke: #000000; stroke-width: 1.5;" x1="113" x2="292" y1="144.6094" y2="144.6094"/><text fill="#000000" font-family="sans-serif" font-size="14" font-weight="bold" lengthAdjust="spacingAndGlyphs" textLength="166" x="117" y="137.5332">tictactoe.views.console</text><polygon fill="#DDDDDD" filter="url(#f5u924xbc6ecb)" points="491.5,121,668.5,121,675.5,144.6094,682.5,144.6094,682.5,176.2188,491.5,176.2188,491.5,121" style="stroke: #000000; stroke-width: 1.5;"/><line style="stroke: #000000; stroke-width: 1.5;" x1="491.5" x2="675.5" y1="144.6094" y2="144.6094"/><text fill="#000000" font-family="sans-serif" font-size="14" font-weight="bold" lengthAdjust="spacingAndGlyphs" textLength="171" x="495.5" y="137.5332">tictactoe.views.graphics</text><polygon fill="#FFFFFF" filter="url(#f5u924xbc6ecb)" points="633.5,236,696.5,236,703.5,259.6094,710.5,259.6094,710.5,291.2188,633.5,291.2188,633.5,236" style="stroke: #000000; stroke-width: 1.5;"/><line style="stroke: #000000; stroke-width: 1.5;" x1="633.5" x2="703.5" y1="259.6094" y2="259.6094"/><text fill="#000000" font-family="sans-serif" font-size="14" font-weight="bold" lengthAdjust="spacingAndGlyphs" textLength="57" x="637.5" y="252.5332">java.awt</text><polygon fill="#FFFFFF" filter="url(#f5u924xbc6ecb)" points="746,236,854,236,861,259.6094,868,259.6094,868,291.2188,746,291.2188,746,236" style="stroke: #000000; stroke-width: 1.5;"/><line style="stroke: #000000; stroke-width: 1.5;" x1="746" x2="861" y1="259.6094" y2="259.6094"/><text fill="#000000" font-family="sans-serif" font-size="14" font-weight="bold" lengthAdjust="spacingAndGlyphs" textLength="102" x="750" y="252.5332">java.awt.event</text><polygon fill="#FFFFFF" filter="url(#f5u924xbc6ecb)" points="903,236,991,236,998,259.6094,1005,259.6094,1005,291.2188,903,291.2188,903,236" style="stroke: #000000; stroke-width: 1.5;"/><line style="stroke: #000000; stroke-width: 1.5;" x1="903" x2="998" y1="259.6094" y2="259.6094"/><text fill="#000000" font-family="sans-serif" font-size="14" font-weight="bold" lengthAdjust="spacingAndGlyphs" textLength="82" x="907" y="252.5332">javax.swing</text><!--MD5=[e75f446ce7e4e6233c0f378e4a80c309]
link tictactoe to tictactoe.views.graphics--><path d="M473.311,61.279 C495.671,78.237 524.615,100.188 547.703,117.697 " fill="none" id="tictactoe-&gt;tictactoe.views.graphics" style="stroke: #A80036; stroke-width: 1.0; stroke-dasharray: 7.0,7.0;"/><polygon fill="#A80036" points="551.943,120.913,547.1888,112.2876,547.959,117.8918,542.3548,118.662,551.943,120.913" style="stroke: #A80036; stroke-width: 1.0;"/><!--MD5=[a65998a409184a650758a5d227ee8afa]
link tictactoe to tictactoe.models--><path d="M478.801,33.842 C589.245,34.56 894.359,53.647 1023,236 C1100.31,345.59 891.275,432.336 774.14,470.846 " fill="none" id="tictactoe-&gt;tictactoe.models" style="stroke: #A80036; stroke-width: 1.0; stroke-dasharray: 7.0,7.0;"/><polygon fill="#A80036" points="769.323,472.419,779.1202,473.4261,774.0758,470.8662,776.6357,465.8217,769.323,472.419" style="stroke: #A80036; stroke-width: 1.0;"/><!--MD5=[14e8060986a8fc6b4a58b3b27491f648]
link tictactoe to tictactoe.views.console--><path d="M397.323,54.312 C360.785,72.109 306.68,98.462 265.321,118.607 " fill="none" id="tictactoe-&gt;tictactoe.views.console" style="stroke: #A80036; stroke-width: 1.0; stroke-dasharray: 7.0,7.0;"/><polygon fill="#A80036" points="260.598,120.907,270.4408,120.5616,265.093,118.7173,266.9373,113.3696,260.598,120.907" style="stroke: #A80036; stroke-width: 1.0;"/><!--MD5=[4c8e626184b37a51cac3aeda5d7a8756]
link tictactoe to tictactoe.controllers--><path d="M438.621,61.129 C440.074,123.411 443.688,278.386 445.256,345.581 " fill="none" id="tictactoe-&gt;tictactoe.controllers" style="stroke: #A80036; stroke-width: 1.0; stroke-dasharray: 7.0,7.0;"/><polygon fill="#A80036" points="445.374,350.651,449.1646,341.5608,445.2583,345.6523,441.1668,341.746,445.374,350.651" style="stroke: #A80036; stroke-width: 1.0;"/><!--MD5=[8fe1157dabbcf20ee852fc992046f19b]
link tictactoe to tictactoe.views--><path d="M424.466,61.101 C402.914,103.462 360.89,186.06 337.924,231.201 " fill="none" id="tictactoe-&gt;tictactoe.views" style="stroke: #A80036; stroke-width: 1.0; stroke-dasharray: 7.0,7.0;"/><polygon fill="#A80036" points="335.627,235.716,343.2726,229.5076,337.8939,231.2594,336.1421,225.8806,335.627,235.716" style="stroke: #A80036; stroke-width: 1.0;"/><!--MD5=[f6dfdd433beafcf2daacaf58db85d2a6]
link tictactoe.controllers to tictactoe.models--><path d="M506.109,406.136 C545.161,423.442 596.049,445.992 636.033,463.711 " fill="none" id="tictactoe.controllers-&gt;tictactoe.models" style="stroke: #A80036; stroke-width: 1.0; stroke-dasharray: 7.0,7.0;"/><polygon fill="#A80036" points="640.854,465.847,634.2462,458.5438,636.2827,463.8213,631.0051,465.8579,640.854,465.847" style="stroke: #A80036; stroke-width: 1.0;"/><!--MD5=[4e9a725c163a4a3e00e0ce560a5db196]
link tictactoe.controllers to tictactoe.types--><path d="M446,406.101 C446,448.291 446,530.393 446,575.6521 " fill="none" id="tictactoe.controllers-&gt;tictactoe.types" style="stroke: #A80036; stroke-width: 1.0; stroke-dasharray: 7.0,7.0;"/><polygon fill="#A80036" points="446,580.7163,450,571.7163,446,575.7163,442,571.7163,446,580.7163" style="stroke: #A80036; stroke-width: 1.0;"/><!--MD5=[e6c0f23e74b5161a168046a341518387]
link tictactoe.models to java.util--><path d="M701,521.279 C701,537.6038 701,558.5556 701,575.7176 " fill="none" id="tictactoe.models-&gt;java.util" style="stroke: #A80036; stroke-width: 1.0; stroke-dasharray: 7.0,7.0;"/><polygon fill="#A80036" points="701,580.9128,705,571.9128,701,575.9128,697,571.9128,701,580.9128" style="stroke: #A80036; stroke-width: 1.0;"/><!--MD5=[f1ef2a356c956f8a73e3a19c14814b65]
link tictactoe.models to tictactoe.types--><path d="M640.891,521.136 C601.839,538.4417 550.951,560.9925 510.967,578.7108 " fill="none" id="tictactoe.models-&gt;tictactoe.types" style="stroke: #A80036; stroke-width: 1.0; stroke-dasharray: 7.0,7.0;"/><polygon fill="#A80036" points="506.146,580.8469,515.9949,580.8576,510.7173,578.8212,512.7537,573.5436,506.146,580.8469" style="stroke: #A80036; stroke-width: 1.0;"/><!--MD5=[e79504c030c2940e8dd8427e90ad9823]
link utils to java.io--><path d="M52.0521,291.279 C51.4742,307.604 50.7325,328.556 50.125,345.718 " fill="none" id="utils-&gt;java.io" style="stroke: #A80036; stroke-width: 1.0; stroke-dasharray: 7.0,7.0;"/><polygon fill="#A80036" points="49.9411,350.913,54.2574,342.0604,50.1182,345.9161,46.2625,341.7769,49.9411,350.913" style="stroke: #A80036; stroke-width: 1.0;"/><!--MD5=[6ba7a600a15b805df477e9f81c752d07]
link tictactoe.views to tictactoe.controllers--><path d="M351.386,291.279 C369.917,308.167 393.883,330.006 413.057,347.479 " fill="none" id="tictactoe.views-&gt;tictactoe.controllers" style="stroke: #A80036; stroke-width: 1.0; stroke-dasharray: 7.0,7.0;"/><polygon fill="#A80036" points="416.825,350.913,412.868,341.894,413.1297,347.5448,407.4789,347.8065,416.825,350.913" style="stroke: #A80036; stroke-width: 1.0;"/><!--MD5=[e96436d729bbb84b7b77caf89585f866]
link tictactoe.views to tictactoe.types--><path d="M324.443,291.122 C327.608,319.977 334.295,367.111 347,406 C367.646,469.194 404.728,537.6294 427.18,576.2683 " fill="none" id="tictactoe.views-&gt;tictactoe.types" style="stroke: #A80036; stroke-width: 1.0; stroke-dasharray: 7.0,7.0;"/><polygon fill="#A80036" points="429.843,580.8303,428.7604,571.0411,427.3224,576.5121,421.8514,575.0741,429.843,580.8303" style="stroke: #A80036; stroke-width: 1.0;"/><!--MD5=[d9231b12cc9710bcc39738b6493510f9]
link tictactoe.views.console to tictactoe.views--><path d="M233.49,176.279 C250.682,193.026 272.872,214.642 290.733,232.041 " fill="none" id="tictactoe.views.console-&gt;tictactoe.views" style="stroke: #A80036; stroke-width: 1.0; stroke-dasharray: 7.0,7.0;"/><polygon fill="#A80036" points="294.707,235.913,291.0529,226.7671,291.1261,232.4235,285.4697,232.4966,294.707,235.913" style="stroke: #A80036; stroke-width: 1.0;"/><!--MD5=[ae85e2051aac6338671b2c0e494e498c]
link tictactoe.views.console to tictactoe.controllers--><path d="M205.754,176.153 C206.865,207.232 213.22,258.483 241,291 C271.199,326.349 318.315,347.579 359.766,360.153 " fill="none" id="tictactoe.views.console-&gt;tictactoe.controllers" style="stroke: #A80036; stroke-width: 1.0; stroke-dasharray: 7.0,7.0;"/><polygon fill="#A80036" points="364.791,361.644,357.301,355.2487,359.9976,360.2214,355.0249,362.918,364.791,361.644" style="stroke: #A80036; stroke-width: 1.0;"/><!--MD5=[b62e8057ebb64db4cc41eb56011c03b5]
link tictactoe.views.console to utils--><path d="M169.741,176.279 C143.01,196.022 107.1148,222.533 82.2151,240.923 " fill="none" id="tictactoe.views.console-&gt;utils" style="stroke: #A80036; stroke-width: 1.0; stroke-dasharray: 7.0,7.0;"/><polygon fill="#A80036" points="78.008,244.03,87.6238,241.9,82.0297,241.0592,82.8705,235.4652,78.008,244.03" style="stroke: #A80036; stroke-width: 1.0;"/><!--MD5=[41c78a4448c1d219acd325d35025abdb]
link tictactoe.views.console to tictactoe.types--><path d="M201.692,176.019 C198.008,204.989 194.998,252.411 207,291 C245.141,413.636 354.58,525.585 411.173,577.3165 " fill="none" id="tictactoe.views.console-&gt;tictactoe.types" style="stroke: #A80036; stroke-width: 1.0; stroke-dasharray: 7.0,7.0;"/><polygon fill="#A80036" points="415.154,580.9364,411.1866,571.922,411.4548,577.5725,405.8043,577.8407,415.154,580.9364" style="stroke: #A80036; stroke-width: 1.0;"/><!--MD5=[c7abc341df818e9399752b73ea287ffa]
link tictactoe.views.graphics to java.awt--><path d="M607.144,176.279 C619.635,192.885 635.728,214.279 648.758,231.602 " fill="none" id="tictactoe.views.graphics-&gt;java.awt" style="stroke: #A80036; stroke-width: 1.0; stroke-dasharray: 7.0,7.0;"/><polygon fill="#A80036" points="652.001,235.913,649.7873,226.3162,648.9953,231.9173,643.3942,231.1253,652.001,235.913" style="stroke: #A80036; stroke-width: 1.0;"/><!--MD5=[1c28faa5b8dc6ea7b3ae1a3bac7bae3d]
link tictactoe.views.graphics to java.awt.event--><path d="M638.858,176.136 C672.413,193.371 716.098,215.809 750.529,233.494 " fill="none" id="tictactoe.views.graphics-&gt;java.awt.event" style="stroke: #A80036; stroke-width: 1.0; stroke-dasharray: 7.0,7.0;"/><polygon fill="#A80036" points="755.109,235.847,748.931,228.1768,750.6614,233.5625,745.2757,235.2929,755.109,235.847" style="stroke: #A80036; stroke-width: 1.0;"/><!--MD5=[36236f1ad998eba9fea5e75bc6a115c4]
link tictactoe.views.graphics to tictactoe.views--><path d="M524.534,176.136 C483.868,193.477 430.851,216.084 389.261,233.819 " fill="none" id="tictactoe.views.graphics-&gt;tictactoe.views" style="stroke: #A80036; stroke-width: 1.0; stroke-dasharray: 7.0,7.0;"/><polygon fill="#A80036" points="384.505,235.847,394.3527,235.9953,389.1041,233.8853,391.2141,228.6367,384.505,235.847" style="stroke: #A80036; stroke-width: 1.0;"/><!--MD5=[e76a6be31849206907fd12c2469d4e43]
link tictactoe.views.graphics to tictactoe.controllers--><path d="M570.55,176.101 C544.353,218.462 493.272,301.06 465.356,346.201 " fill="none" id="tictactoe.views.graphics-&gt;tictactoe.controllers" style="stroke: #A80036; stroke-width: 1.0; stroke-dasharray: 7.0,7.0;"/><polygon fill="#A80036" points="462.564,350.716,470.6997,345.1653,465.1938,346.4635,463.8956,340.9576,462.564,350.716" style="stroke: #A80036; stroke-width: 1.0;"/><!--MD5=[fcbd5a738619604e3580ade8084f6dd8]
link tictactoe.views.graphics to tictactoe.types--><path d="M585.045,176.308 C581.038,223.644 569.983,324.713 544,406 C523.798,469.201 487.012,537.6339 464.709,576.2706 " fill="none" id="tictactoe.views.graphics-&gt;tictactoe.types" style="stroke: #A80036; stroke-width: 1.0; stroke-dasharray: 7.0,7.0;"/><polygon fill="#A80036" points="462.063,580.8323,470.0394,575.055,464.5722,576.5075,463.1196,571.0403,462.063,580.8323" style="stroke: #A80036; stroke-width: 1.0;"/><!--MD5=[b630ab80351c1f98f91c87ac09bf7168]
link tictactoe.views.graphics to javax.swing--><path d="M682.615,174.8 C741.643,191.001 818.696,213.202 886,236 C889.968,237.344 894.045,238.783 898.137,240.27 " fill="none" id="tictactoe.views.graphics-&gt;javax.swing" style="stroke: #A80036; stroke-width: 1.0; stroke-dasharray: 7.0,7.0;"/><polygon fill="#A80036" points="902.942,242.034,895.8719,235.1774,898.2483,240.3108,893.1148,242.6873,902.942,242.034" style="stroke: #A80036; stroke-width: 1.0;"/><!--MD5=[0c5f17d678af9d8b46680ed1c8891b3a]
@startuml

package tictactoe #DDDDDD { }
tictactoe .down.> tictactoe.views.graphics
tictactoe .down.> tictactoe.models
tictactoe .down.> tictactoe.views.console
tictactoe .down.> tictactoe.controllers
tictactoe .down.> tictactoe.views

package tictactoe.controllers #DDDDDD { }
tictactoe.controllers .down.> tictactoe.models
tictactoe.controllers .down.> tictactoe.types

package tictactoe.models #DDDDDD { }
package tictactoe.types #DDDDDD { }
package java.util{ }
tictactoe.models .down.> java.util
tictactoe.models .down.> tictactoe.types

package utils #DDDDDD { }
package java.io{ }
utils .down.> java.io

package tictactoe.views #DDDDDD { }
tictactoe.views .down.> tictactoe.controllers
tictactoe.views .down.> tictactoe.types

package tictactoe.views.console #DDDDDD { }
tictactoe.views.console .down.> tictactoe.views
tictactoe.views.console .down.> tictactoe.controllers
tictactoe.views.console .down.> utils
tictactoe.views.console .down.> tictactoe.types

package tictactoe.views.graphics #DDDDDD { }
package java.awt{ }
tictactoe.views.graphics .down.> java.awt
package java.awt.event{ }
tictactoe.views.graphics .down.> java.awt.event
tictactoe.views.graphics .down.> tictactoe.views
tictactoe.views.graphics .down.> tictactoe.controllers
tictactoe.views.graphics .down.> tictactoe.types
package javax.swing{ }
tictactoe.views.graphics .down.> javax.swing

@enduml

PlantUML version 1.2020.15(Sun Jun 28 13:39:45 CEST 2020)
(GPL source distribution)
Java Runtime: Java(TM) SE Runtime Environment
JVM: Java HotSpot(TM) 64-Bit Server VM
Default Encoding: windows-1252
Language: es
Country: ES
--></g></svg>