<?xml version="1.0" encoding="UTF-8" standalone="no"?><svg xmlns="http://www.w3.org/2000/svg" xmlns:xlink="http://www.w3.org/1999/xlink" contentScriptType="application/ecmascript" contentStyleType="text/css" height="878px" preserveAspectRatio="none" style="width:2591px;height:878px;" version="1.1" viewBox="0 0 2591 878" width="2591px" zoomAndPan="magnify"><defs><filter height="300%" id="f1cf4wltpjlrzw" width="300%" x="-1" y="-1"><feGaussianBlur result="blurOut" stdDeviation="2.0"/><feColorMatrix in="blurOut" result="blurOut2" type="matrix" values="0 0 0 0 0 0 0 0 0 0 0 0 0 0 0 0 0 0 .4 0"/><feOffset dx="4.0" dy="4.0" in="blurOut2" result="blurOut3"/><feBlend in="SourceGraphic" in2="blurOut3" mode="normal"/></filter></defs><g><polygon fill="#DDDDDD" filter="url(#f1cf4wltpjlrzw)" points="1117.5,121,1184.5,121,1191.5,144.6094,1198.5,144.6094,1198.5,176.2188,1117.5,176.2188,1117.5,121" style="stroke: #000000; stroke-width: 1.5;"/><line style="stroke: #000000; stroke-width: 1.5;" x1="1117.5" x2="1191.5" y1="144.6094" y2="144.6094"/><text fill="#000000" font-family="sans-serif" font-size="14" font-weight="bold" lengthAdjust="spacingAndGlyphs" textLength="61" x="1121.5" y="137.5332">tictactoe</text><polygon fill="#DDDDDD" filter="url(#f1cf4wltpjlrzw)" points="486,581,608,581,615,604.6094,622,604.6094,622,636.2188,486,636.2188,486,581" style="stroke: #000000; stroke-width: 1.5;"/><line style="stroke: #000000; stroke-width: 1.5;" x1="486" x2="615" y1="604.6094" y2="604.6094"/><text fill="#000000" font-family="sans-serif" font-size="14" font-weight="bold" lengthAdjust="spacingAndGlyphs" textLength="116" x="490" y="597.5332">tictactoe.models</text><polygon fill="#DDDDDD" filter="url(#f1cf4wltpjlrzw)" points="1493,466,1641,466,1648,489.6094,1655,489.6094,1655,521.2188,1493,521.2188,1493,466" style="stroke: #000000; stroke-width: 1.5;"/><line style="stroke: #000000; stroke-width: 1.5;" x1="1493" x2="1648" y1="489.6094" y2="489.6094"/><text fill="#000000" font-family="sans-serif" font-size="14" font-weight="bold" lengthAdjust="spacingAndGlyphs" textLength="142" x="1497" y="482.5332">tictactoe.controllers</text><polygon fill="#FFFFFF" filter="url(#f1cf4wltpjlrzw)" points="1393.5,6,1428.5,6,1435.5,29.6094,1442.5,29.6094,1442.5,61.2188,1393.5,61.2188,1393.5,6" style="stroke: #000000; stroke-width: 1.5;"/><line style="stroke: #000000; stroke-width: 1.5;" x1="1393.5" x2="1435.5" y1="29.6094" y2="29.6094"/><text fill="#000000" font-family="sans-serif" font-size="14" font-weight="bold" lengthAdjust="spacingAndGlyphs" textLength="29" x="1397.5" y="22.5332">java</text><polygon fill="#DDDDDD" filter="url(#f1cf4wltpjlrzw)" points="1212,351,1472,351,1479,374.6094,1486,374.6094,1486,406.2188,1212,406.2188,1212,351" style="stroke: #000000; stroke-width: 1.5;"/><line style="stroke: #000000; stroke-width: 1.5;" x1="1212" x2="1479" y1="374.6094" y2="374.6094"/><text fill="#000000" font-family="sans-serif" font-size="14" font-weight="bold" lengthAdjust="spacingAndGlyphs" textLength="254" x="1216" y="367.5332">tictactoe.controllers.implementation</text><polygon fill="#DDDDDD" filter="url(#f1cf4wltpjlrzw)" points="1196,6,1344,6,1351,29.6094,1358,29.6094,1358,61.2188,1196,61.2188,1196,6" style="stroke: #000000; stroke-width: 1.5;"/><line style="stroke: #000000; stroke-width: 1.5;" x1="1196" x2="1351" y1="29.6094" y2="29.6094"/><text fill="#000000" font-family="sans-serif" font-size="14" font-weight="bold" lengthAdjust="spacingAndGlyphs" textLength="142" x="1200" y="22.5332">tictactoe.distributed</text><polygon fill="#DDDDDD" filter="url(#f1cf4wltpjlrzw)" points="1734.5,236,1969.5,236,1976.5,259.6094,1983.5,259.6094,1983.5,291.2188,1734.5,291.2188,1734.5,236" style="stroke: #000000; stroke-width: 1.5;"/><line style="stroke: #000000; stroke-width: 1.5;" x1="1734.5" x2="1976.5" y1="259.6094" y2="259.6094"/><text fill="#000000" font-family="sans-serif" font-size="14" font-weight="bold" lengthAdjust="spacingAndGlyphs" textLength="229" x="1738.5" y="252.5332">tictactoe.distributed.dispatchers</text><polygon fill="#DDDDDD" filter="url(#f1cf4wltpjlrzw)" points="1520.5,121,1803.5,121,1810.5,144.6094,1817.5,144.6094,1817.5,176.2188,1520.5,176.2188,1520.5,121" style="stroke: #000000; stroke-width: 1.5;"/><line style="stroke: #000000; stroke-width: 1.5;" x1="1520.5" x2="1810.5" y1="144.6094" y2="144.6094"/><text fill="#000000" font-family="sans-serif" font-size="14" font-weight="bold" lengthAdjust="spacingAndGlyphs" textLength="277" x="1524.5" y="137.5332">tictactoe.distributed.dispatchers.errors</text><polygon fill="#DDDDDD" filter="url(#f1cf4wltpjlrzw)" points="1924.5,121,2197.5,121,2204.5,144.6094,2211.5,144.6094,2211.5,176.2188,1924.5,176.2188,1924.5,121" style="stroke: #000000; stroke-width: 1.5;"/><line style="stroke: #000000; stroke-width: 1.5;" x1="1924.5" x2="2204.5" y1="144.6094" y2="144.6094"/><text fill="#000000" font-family="sans-serif" font-size="14" font-weight="bold" lengthAdjust="spacingAndGlyphs" textLength="267" x="1928.5" y="137.5332">tictactoe.distributed.dispatchers.save</text><polygon fill="#DDDDDD" filter="url(#f1cf4wltpjlrzw)" points="2247,121,2555,121,2562,144.6094,2569,144.6094,2569,176.2188,2247,176.2188,2247,121" style="stroke: #000000; stroke-width: 1.5;"/><line style="stroke: #000000; stroke-width: 1.5;" x1="2247" x2="2562" y1="144.6094" y2="144.6094"/><text fill="#000000" font-family="sans-serif" font-size="14" font-weight="bold" lengthAdjust="spacingAndGlyphs" textLength="302" x="2251" y="137.5332">tictactoe.distributed.dispatchers.undoredo</text><polygon fill="#FFFFFF" filter="url(#f1cf4wltpjlrzw)" points="1873.5,696,1934.5,696,1941.5,719.6094,1948.5,719.6094,1948.5,751.2188,1873.5,751.2188,1873.5,696" style="stroke: #000000; stroke-width: 1.5;"/><line style="stroke: #000000; stroke-width: 1.5;" x1="1873.5" x2="1941.5" y1="719.6094" y2="719.6094"/><text fill="#000000" font-family="sans-serif" font-size="14" font-weight="bold" lengthAdjust="spacingAndGlyphs" textLength="55" x="1877.5" y="712.5332">java.util</text><polygon fill="#DDDDDD" filter="url(#f1cf4wltpjlrzw)" points="272,466,428,466,435,489.6094,442,489.6094,442,521.2188,272,521.2188,272,466" style="stroke: #000000; stroke-width: 1.5;"/><line style="stroke: #000000; stroke-width: 1.5;" x1="272" x2="435" y1="489.6094" y2="489.6094"/><text fill="#000000" font-family="sans-serif" font-size="14" font-weight="bold" lengthAdjust="spacingAndGlyphs" textLength="150" x="276" y="482.5332">tictactoe.models.DAO</text><polygon fill="#DDDDDD" filter="url(#f1cf4wltpjlrzw)" points="402,351,592,351,599,374.6094,606,374.6094,606,406.2188,402,406.2188,402,351" style="stroke: #000000; stroke-width: 1.5;"/><line style="stroke: #000000; stroke-width: 1.5;" x1="402" x2="599" y1="374.6094" y2="374.6094"/><text fill="#000000" font-family="sans-serif" font-size="14" font-weight="bold" lengthAdjust="spacingAndGlyphs" textLength="184" x="406" y="367.5332">tictactoe.models.database</text><polygon fill="#FFFFFF" filter="url(#f1cf4wltpjlrzw)" points="477,466,537,466,544,489.6094,551,489.6094,551,521.2188,477,521.2188,477,466" style="stroke: #000000; stroke-width: 1.5;"/><line style="stroke: #000000; stroke-width: 1.5;" x1="477" x2="544" y1="489.6094" y2="489.6094"/><text fill="#000000" font-family="sans-serif" font-size="14" font-weight="bold" lengthAdjust="spacingAndGlyphs" textLength="54" x="481" y="482.5332">java.sql</text><polygon fill="#DDDDDD" filter="url(#f1cf4wltpjlrzw)" points="130,351,282,351,289,374.6094,296,374.6094,296,406.2188,130,406.2188,130,351" style="stroke: #000000; stroke-width: 1.5;"/><line style="stroke: #000000; stroke-width: 1.5;" x1="130" x2="289" y1="374.6094" y2="374.6094"/><text fill="#000000" font-family="sans-serif" font-size="14" font-weight="bold" lengthAdjust="spacingAndGlyphs" textLength="146" x="134" y="367.5332">tictactoe.models.File</text><polygon fill="#FFFFFF" filter="url(#f1cf4wltpjlrzw)" points="326,811,378,811,385,834.6094,392,834.6094,392,866.2188,326,866.2188,326,811" style="stroke: #000000; stroke-width: 1.5;"/><line style="stroke: #000000; stroke-width: 1.5;" x1="326" x2="385" y1="834.6094" y2="834.6094"/><text fill="#000000" font-family="sans-serif" font-size="14" font-weight="bold" lengthAdjust="spacingAndGlyphs" textLength="46" x="330" y="827.5332">java.io</text><polygon fill="#DDDDDD" filter="url(#f1cf4wltpjlrzw)" points="650,696,686,696,693,719.6094,700,719.6094,700,751.2188,650,751.2188,650,696" style="stroke: #000000; stroke-width: 1.5;"/><line style="stroke: #000000; stroke-width: 1.5;" x1="650" x2="693" y1="719.6094" y2="719.6094"/><text fill="#000000" font-family="sans-serif" font-size="14" font-weight="bold" lengthAdjust="spacingAndGlyphs" textLength="30" x="654" y="712.5332">utils</text><polygon fill="#FFFFFF" filter="url(#f1cf4wltpjlrzw)" points="637,811,699,811,706,834.6094,713,834.6094,713,866.2188,637,866.2188,637,811" style="stroke: #000000; stroke-width: 1.5;"/><line style="stroke: #000000; stroke-width: 1.5;" x1="637" x2="706" y1="834.6094" y2="834.6094"/><text fill="#000000" font-family="sans-serif" font-size="14" font-weight="bold" lengthAdjust="spacingAndGlyphs" textLength="56" x="641" y="827.5332">java.net</text><polygon fill="#DDDDDD" filter="url(#f1cf4wltpjlrzw)" points="952,236,1064,236,1071,259.6094,1078,259.6094,1078,291.2188,952,291.2188,952,236" style="stroke: #000000; stroke-width: 1.5;"/><line style="stroke: #000000; stroke-width: 1.5;" x1="952" x2="1071" y1="259.6094" y2="259.6094"/><text fill="#000000" font-family="sans-serif" font-size="14" font-weight="bold" lengthAdjust="spacingAndGlyphs" textLength="106" x="956" y="252.5332">tictactoe.views</text><polygon fill="#DDDDDD" filter="url(#f1cf4wltpjlrzw)" points="712.5,351,875.5,351,882.5,374.6094,889.5,374.6094,889.5,406.2188,712.5,406.2188,712.5,351" style="stroke: #000000; stroke-width: 1.5;"/><line style="stroke: #000000; stroke-width: 1.5;" x1="712.5" x2="882.5" y1="374.6094" y2="374.6094"/><text fill="#000000" font-family="sans-serif" font-size="14" font-weight="bold" lengthAdjust="spacingAndGlyphs" textLength="157" x="716.5" y="367.5332">tictactoe.views.menus</text><polygon fill="#DDDDDD" filter="url(#f1cf4wltpjlrzw)" points="924.5,351,1091.5,351,1098.5,374.6094,1105.5,374.6094,1105.5,406.2188,924.5,406.2188,924.5,351" style="stroke: #000000; stroke-width: 1.5;"/><line style="stroke: #000000; stroke-width: 1.5;" x1="924.5" x2="1098.5" y1="374.6094" y2="374.6094"/><text fill="#000000" font-family="sans-serif" font-size="14" font-weight="bold" lengthAdjust="spacingAndGlyphs" textLength="161" x="928.5" y="367.5332">tictactoe.views.models</text><!--MD5=[8fe1157dabbcf20ee852fc992046f19b]
link tictactoe to tictactoe.views--><path d="M1124.11,176.279 C1102.65,193.237 1074.87,215.188 1052.71,232.697 " fill="none" id="tictactoe-&gt;tictactoe.views" style="stroke: #A80036; stroke-width: 1.0; stroke-dasharray: 7.0,7.0;"/><polygon fill="#A80036" points="1048.65,235.913,1058.1914,233.4712,1052.573,232.8129,1053.2313,227.1945,1048.65,235.913" style="stroke: #A80036; stroke-width: 1.0;"/><!--MD5=[4c8e626184b37a51cac3aeda5d7a8756]
link tictactoe to tictactoe.controllers--><path d="M1198.65,164.253 C1268.77,191.471 1413.53,255.655 1503,351 C1532.99,382.962 1553.17,430.011 1564.12,460.949 " fill="none" id="tictactoe-&gt;tictactoe.controllers" style="stroke: #A80036; stroke-width: 1.0; stroke-dasharray: 7.0,7.0;"/><polygon fill="#A80036" points="1565.8,465.771,1566.6221,455.9565,1564.1578,461.0484,1559.0659,458.5841,1565.8,465.771" style="stroke: #A80036; stroke-width: 1.0;"/><!--MD5=[83591d2dc28aa4842e0d00f1dce5956f]
link tictactoe to tictactoe.models.DAO--><path d="M1117.25,154.383 C972.62,172.547 487.069,240.879 384,351 C356.536,380.343 352.913,428.606 354.022,460.473 " fill="none" id="tictactoe-&gt;tictactoe.models.DAO" style="stroke: #A80036; stroke-width: 1.0; stroke-dasharray: 7.0,7.0;"/><polygon fill="#A80036" points="354.258,465.832,357.8556,456.6637,354.0366,460.8369,349.8634,457.0179,354.258,465.832" style="stroke: #A80036; stroke-width: 1.0;"/><!--MD5=[f6dfdd433beafcf2daacaf58db85d2a6]
link tictactoe.controllers to tictactoe.models--><path d="M1492.68,503.509 C1298.98,524.968 812.687,578.842 627.328,599.376 " fill="none" id="tictactoe.controllers-&gt;tictactoe.models" style="stroke: #A80036; stroke-width: 1.0; stroke-dasharray: 7.0,7.0;"/><polygon fill="#A80036" points="622.2,599.944,631.5862,602.9271,627.1695,599.3926,630.704,594.9759,622.2,599.944" style="stroke: #A80036; stroke-width: 1.0;"/><!--MD5=[c868621a8ffa7a8485ccb8c9dbdaad11]
link tictactoe.controllers to java.util--><path d="M1613.32,521.101 C1677.37,564.435 1803.66,649.877 1869.25,694.252 " fill="none" id="tictactoe.controllers-&gt;java.util" style="stroke: #A80036; stroke-width: 1.0; stroke-dasharray: 7.0,7.0;"/><polygon fill="#A80036" points="1873.48,697.115,1868.2659,688.7596,1869.3383,694.3139,1863.784,695.3863,1873.48,697.115" style="stroke: #A80036; stroke-width: 1.0;"/><!--MD5=[162517b0fdf7ac038ce82f9f30feacef]
link tictactoe.controllers.implementation to tictactoe.controllers--><path d="M1402.04,406.136 C1436.35,423.371 1481.03,445.809 1516.25,463.494 " fill="none" id="tictactoe.controllers.implementation-&gt;tictactoe.controllers" style="stroke: #A80036; stroke-width: 1.0; stroke-dasharray: 7.0,7.0;"/><polygon fill="#A80036" points="1520.93,465.847,1514.6807,458.2348,1516.4613,463.6041,1511.092,465.3847,1520.93,465.847" style="stroke: #A80036; stroke-width: 1.0;"/><!--MD5=[65e4b3a227831cd57e7d255aea05671d]
link tictactoe.controllers.implementation to tictactoe.models--><path d="M1256.25,406.101 C1096.45,451.928 772.46,544.847 627.267,586.488 " fill="none" id="tictactoe.controllers.implementation-&gt;tictactoe.models" style="stroke: #A80036; stroke-width: 1.0; stroke-dasharray: 7.0,7.0;"/><polygon fill="#A80036" points="622.178,587.947,631.9319,589.311,626.9843,586.5687,629.7266,581.621,622.178,587.947" style="stroke: #A80036; stroke-width: 1.0;"/><!--MD5=[3782e8f0393471a3d6e41cc814a16492]
link tictactoe.controllers.implementation to tictactoe.models.DAO--><path d="M1211.92,396.166 C1182.6,399.565 1151.78,403.013 1123,406 C828.27,436.59 750.934,415.241 459,466 C455.134,466.672 451.201,467.418 447.237,468.219 " fill="none" id="tictactoe.controllers.implementation-&gt;tictactoe.models.DAO" style="stroke: #A80036; stroke-width: 1.0; stroke-dasharray: 7.0,7.0;"/><polygon fill="#A80036" points="442.204,469.264,451.8289,471.3523,447.0997,468.2483,450.2038,463.5191,442.204,469.264" style="stroke: #A80036; stroke-width: 1.0;"/><!--MD5=[05166684c1a59f6da1b9a25ccea13098]
link tictactoe.distributed to tictactoe.distributed.dispatchers--><path d="M1358.11,57.13 C1364.14,58.531 1370.15,59.841 1376,61 C1476.9,81.009 1760.89,49.658 1835,121 C1864.14,149.049 1865.97,198.415 1863.42,230.789 " fill="none" id="tictactoe.distributed-&gt;tictactoe.distributed.dispatchers" style="stroke: #A80036; stroke-width: 1.0; stroke-dasharray: 7.0,7.0;"/><polygon fill="#A80036" points="1862.97,235.833,1867.7454,227.2193,1863.4094,230.8523,1859.7764,226.5163,1862.97,235.833" style="stroke: #A80036; stroke-width: 1.0;"/><!--MD5=[0931617df30f9d44ae5c1aecc4e3b8e8]
link tictactoe.distributed to tictactoe.controllers.implementation--><path d="M1282.59,61.129 C1295.66,123.411 1328.19,278.386 1342.3,345.581 " fill="none" id="tictactoe.distributed-&gt;tictactoe.controllers.implementation" style="stroke: #A80036; stroke-width: 1.0; stroke-dasharray: 7.0,7.0;"/><polygon fill="#A80036" points="1343.36,350.651,1345.4285,341.0218,1342.3342,345.7574,1337.5986,342.6631,1343.36,350.651" style="stroke: #A80036; stroke-width: 1.0;"/><!--MD5=[b12a8c2b3a7919c9e97025327732ddf3]
link tictactoe.distributed to tictactoe--><path d="M1248.8,61.279 C1231.16,78.026 1208.4,99.642 1190.08,117.041 " fill="none" id="tictactoe.distributed-&gt;tictactoe" style="stroke: #A80036; stroke-width: 1.0; stroke-dasharray: 7.0,7.0;"/><polygon fill="#A80036" points="1186,120.913,1195.2807,117.6164,1189.6258,117.4701,1189.7721,111.8151,1186,120.913" style="stroke: #A80036; stroke-width: 1.0;"/><!--MD5=[1eb04637296290153f87d589b79edb33]
link tictactoe.distributed to tictactoe.models--><path d="M1195.93,41.277 C926.36,64.882 77,148.319 77,262.5 C77,262.5 77,262.5 77,379.5 C77,556.325 347.126,596.134 480.822,605.009 " fill="none" id="tictactoe.distributed-&gt;tictactoe.models" style="stroke: #A80036; stroke-width: 1.0; stroke-dasharray: 7.0,7.0;"/><polygon fill="#A80036" points="485.911,605.336,477.1868,600.7656,480.9213,605.0145,476.6724,608.749,485.911,605.336" style="stroke: #A80036; stroke-width: 1.0;"/><!--MD5=[7c72f5d865466b77d7ca9513c93392ec]
link tictactoe.distributed to tictactoe.controllers--><path d="M1309.04,61.231 C1366.95,111.486 1488.54,226.284 1548,351 C1564.82,386.273 1570.79,431.28 1572.89,460.951 " fill="none" id="tictactoe.distributed-&gt;tictactoe.controllers" style="stroke: #A80036; stroke-width: 1.0; stroke-dasharray: 7.0,7.0;"/><polygon fill="#A80036" points="1573.22,465.941,1576.6221,456.6984,1572.8926,460.9517,1568.6393,457.2222,1573.22,465.941" style="stroke: #A80036; stroke-width: 1.0;"/><!--MD5=[22af3868d68ebd878d004d57e85ec3dc]
link tictactoe.distributed to utils--><path d="M1195.92,36.594 C984.576,42.798 420.961,64.321 244,121 C126.804,158.537 6,139.439 6,262.5 C6,262.5 6,262.5 6,494.5 C6,631.413 514.354,702.881 644.791,718.965 " fill="none" id="tictactoe.distributed-&gt;utils" style="stroke: #A80036; stroke-width: 1.0; stroke-dasharray: 7.0,7.0;"/><polygon fill="#A80036" points="649.995,719.602,641.5473,714.5387,645.032,718.9948,640.5759,722.4795,649.995,719.602" style="stroke: #A80036; stroke-width: 1.0;"/><!--MD5=[fc9a0ada8190c13f83b22042efd24c15]
link tictactoe.distributed.dispatchers to tictactoe.controllers--><path d="M1833.34,291.009 C1804.07,320.598 1754.16,369.157 1707,406 C1680.53,426.677 1649.1,447.283 1623.44,463.193 " fill="none" id="tictactoe.distributed.dispatchers-&gt;tictactoe.controllers" style="stroke: #A80036; stroke-width: 1.0; stroke-dasharray: 7.0,7.0;"/><polygon fill="#A80036" points="1619.05,465.906,1628.8089,464.5782,1623.3036,463.2779,1624.6039,457.7725,1619.05,465.906" style="stroke: #A80036; stroke-width: 1.0;"/><!--MD5=[4cad6c011ed5cf04d2802135824f0217]
link tictactoe.distributed.dispatchers to tictactoe.controllers.implementation--><path d="M1739.11,291.065 C1659.44,308.717 1555.03,331.849 1474.28,349.741 " fill="none" id="tictactoe.distributed.dispatchers-&gt;tictactoe.controllers.implementation" style="stroke: #A80036; stroke-width: 1.0; stroke-dasharray: 7.0,7.0;"/><polygon fill="#A80036" points="1469,350.912,1478.6538,352.8626,1473.8807,349.8264,1476.9169,345.0534,1469,350.912" style="stroke: #A80036; stroke-width: 1.0;"/><!--MD5=[f1ff7a5fd4bd330114cf79fdd2b626de]
link tictactoe.distributed.dispatchers to utils--><path d="M1848.02,291.306 C1824.53,344.892 1763.98,464.894 1672,521 C1501.41,625.061 853.242,702.613 705.224,719.198 " fill="none" id="tictactoe.distributed.dispatchers-&gt;utils" style="stroke: #A80036; stroke-width: 1.0; stroke-dasharray: 7.0,7.0;"/><polygon fill="#A80036" points="700.171,719.762,709.5597,722.7371,705.14,719.2064,708.6708,714.7867,700.171,719.762" style="stroke: #A80036; stroke-width: 1.0;"/><!--MD5=[b7310407d86ea056357ccca7cd04e118]
link tictactoe.distributed.dispatchers to java.util--><path d="M1884.48,291.311 C1897.88,307.292 1912.95,328.754 1920,351 C1958.21,471.47 1932.67,625.104 1918.57,690.604 " fill="none" id="tictactoe.distributed.dispatchers-&gt;java.util" style="stroke: #A80036; stroke-width: 1.0; stroke-dasharray: 7.0,7.0;"/><polygon fill="#A80036" points="1917.5,695.542,1923.3262,687.6012,1918.5656,690.6569,1915.51,685.8963,1917.5,695.542" style="stroke: #A80036; stroke-width: 1.0;"/><!--MD5=[241179430107c216ef5e5d25f87c5ece]
link tictactoe.distributed.dispatchers.errors to tictactoe.distributed.dispatchers--><path d="M1714.03,176.279 C1742.9,193.448 1780.37,215.735 1809.99,233.349 " fill="none" id="tictactoe.distributed.dispatchers.errors-&gt;tictactoe.distributed.dispatchers" style="stroke: #A80036; stroke-width: 1.0; stroke-dasharray: 7.0,7.0;"/><polygon fill="#A80036" points="1814.3,235.913,1808.6114,227.8731,1810.0032,233.3561,1804.5203,234.748,1814.3,235.913" style="stroke: #A80036; stroke-width: 1.0;"/><!--MD5=[ee2d1546299e79ac8c6c1a2d490aec42]
link tictactoe.distributed.dispatchers.errors to tictactoe.controllers--><path d="M1669.78,176.027 C1670.29,223.778 1667.24,326.619 1636,406 C1628.02,426.288 1614.22,446.251 1601.67,461.878 " fill="none" id="tictactoe.distributed.dispatchers.errors-&gt;tictactoe.controllers" style="stroke: #A80036; stroke-width: 1.0; stroke-dasharray: 7.0,7.0;"/><polygon fill="#A80036" points="1598.5,465.755,1607.2898,461.3121,1601.6617,461.8815,1601.0922,456.2534,1598.5,465.755" style="stroke: #A80036; stroke-width: 1.0;"/><!--MD5=[60c9490d8bb99db3bdda38d7e5fa00d7]
link tictactoe.distributed.dispatchers.save to tictactoe.distributed.dispatchers--><path d="M2018.73,176.136 C1986.99,193.301 1945.7,215.626 1913.05,233.278 " fill="none" id="tictactoe.distributed.dispatchers.save-&gt;tictactoe.distributed.dispatchers" style="stroke: #A80036; stroke-width: 1.0; stroke-dasharray: 7.0,7.0;"/><polygon fill="#A80036" points="1908.3,235.847,1918.1183,235.0722,1912.6951,233.4631,1914.3042,228.04,1908.3,235.847" style="stroke: #A80036; stroke-width: 1.0;"/><!--MD5=[000f1c0097869f6e6013e50e47379ab9]
link tictactoe.distributed.dispatchers.save to tictactoe.controllers--><path d="M2061.25,176.112 C2052.17,207.151 2033.33,258.364 2001,291 C1905.37,387.55 1754.52,443.554 1660.08,471.036 " fill="none" id="tictactoe.distributed.dispatchers.save-&gt;tictactoe.controllers" style="stroke: #A80036; stroke-width: 1.0; stroke-dasharray: 7.0,7.0;"/><polygon fill="#A80036" points="1655.07,472.484,1664.8261,473.8323,1659.874,471.0979,1662.6084,466.1459,1655.07,472.484" style="stroke: #A80036; stroke-width: 1.0;"/><!--MD5=[ade12dcbcb8b208048e722e0b686ff1f]
link tictactoe.distributed.dispatchers.undoredo to tictactoe.distributed.dispatchers--><path d="M2278.94,176.065 C2191.52,194.058 2076.44,217.745 1988.86,235.772 " fill="none" id="tictactoe.distributed.dispatchers.undoredo-&gt;tictactoe.distributed.dispatchers" style="stroke: #A80036; stroke-width: 1.0; stroke-dasharray: 7.0,7.0;"/><polygon fill="#A80036" points="1983.92,236.788,1993.5442,238.8795,1988.8161,235.7739,1991.9217,231.0458,1983.92,236.788" style="stroke: #A80036; stroke-width: 1.0;"/><!--MD5=[6de17b07ad77692c0ff15aa7f265dc15]
link tictactoe.distributed.dispatchers.undoredo to tictactoe.controllers--><path d="M2364.06,176.035 C2278.43,226.808 2082.05,338.631 1905,406 C1824.12,436.777 1728.08,460.541 1660.34,475.305 " fill="none" id="tictactoe.distributed.dispatchers.undoredo-&gt;tictactoe.controllers" style="stroke: #A80036; stroke-width: 1.0; stroke-dasharray: 7.0,7.0;"/><polygon fill="#A80036" points="1655.1,476.44,1664.7422,478.4468,1659.987,475.3829,1663.0509,470.6276,1655.1,476.44" style="stroke: #A80036; stroke-width: 1.0;"/><!--MD5=[e6c0f23e74b5161a168046a341518387]
link tictactoe.models to java.util--><path d="M622.224,615.181 C863.551,635.277 1672.81,702.665 1868.25,718.94 " fill="none" id="tictactoe.models-&gt;java.util" style="stroke: #A80036; stroke-width: 1.0; stroke-dasharray: 7.0,7.0;"/><polygon fill="#A80036" points="1873.3,719.361,1864.6624,714.629,1868.3172,718.9467,1863.9995,722.6015,1873.3,719.361" style="stroke: #A80036; stroke-width: 1.0;"/><!--MD5=[592d3e5213f5052c5b4a8146f8a66fb9]
link tictactoe.models to utils--><path d="M582.675,636.279 C601.806,654.146 626.873,677.555 646.059,695.472 " fill="none" id="tictactoe.models-&gt;utils" style="stroke: #A80036; stroke-width: 1.0; stroke-dasharray: 7.0,7.0;"/><polygon fill="#A80036" points="649.814,698.979,645.9667,689.9127,646.1598,695.5662,640.5063,695.7594,649.814,698.979" style="stroke: #A80036; stroke-width: 1.0;"/><!--MD5=[349b6948f2336803e0e442e8c9529c00]
link tictactoe.models.DAO to tictactoe.models--><path d="M403.686,521.279 C433.618,538.448 472.472,560.735 503.179,578.349 " fill="none" id="tictactoe.models.DAO-&gt;tictactoe.models" style="stroke: #A80036; stroke-width: 1.0; stroke-dasharray: 7.0,7.0;"/><polygon fill="#A80036" points="507.649,580.913,501.8315,572.9659,503.3116,578.4257,497.8518,579.9058,507.649,580.913" style="stroke: #A80036; stroke-width: 1.0;"/><!--MD5=[576165af4ed418a4c21cf8626a0662eb]
link tictactoe.models.database to tictactoe.models--><path d="M530.716,406.093 C544.762,422.004 560.571,443.468 568,466 C580.021,502.457 572.272,546.834 564.336,576.057 " fill="none" id="tictactoe.models.database-&gt;tictactoe.models" style="stroke: #A80036; stroke-width: 1.0; stroke-dasharray: 7.0,7.0;"/><polygon fill="#A80036" points="562.96,580.972,569.2373,573.3828,564.3074,576.157,561.5332,571.227,562.96,580.972" style="stroke: #A80036; stroke-width: 1.0;"/><!--MD5=[b5b81e6b3bcab04dddce8dab8c8815f4]
link tictactoe.models.database to tictactoe.models.DAO--><path d="M469.163,406.279 C447.103,423.237 418.547,445.188 395.77,462.697 " fill="none" id="tictactoe.models.database-&gt;tictactoe.models.DAO" style="stroke: #A80036; stroke-width: 1.0; stroke-dasharray: 7.0,7.0;"/><polygon fill="#A80036" points="391.587,465.913,401.1598,463.5974,395.5505,462.865,396.283,457.2558,391.587,465.913" style="stroke: #A80036; stroke-width: 1.0;"/><!--MD5=[ca0c8e2053ced505f7c0f58062eced23]
link tictactoe.models.database to java.sql--><path d="M506.37,406.279 C507.814,422.604 509.669,443.556 511.187,460.718 " fill="none" id="tictactoe.models.database-&gt;java.sql" style="stroke: #A80036; stroke-width: 1.0; stroke-dasharray: 7.0,7.0;"/><polygon fill="#A80036" points="511.647,465.913,514.8367,456.595,511.2055,460.9325,506.868,457.3013,511.647,465.913" style="stroke: #A80036; stroke-width: 1.0;"/><!--MD5=[ab06c5d7ef950161602a92aa652c26bd]
link tictactoe.models.File to tictactoe.models--><path d="M213.356,406.275 C215.25,437.958 223.235,490.275 254,521 C314.088,581.01 412.988,599.966 480.691,605.642 " fill="none" id="tictactoe.models.File-&gt;tictactoe.models" style="stroke: #A80036; stroke-width: 1.0; stroke-dasharray: 7.0,7.0;"/><polygon fill="#A80036" points="485.918,606.059,477.2655,601.3543,480.9339,605.6604,476.6278,609.3289,485.918,606.059" style="stroke: #A80036; stroke-width: 1.0;"/><!--MD5=[8d333adefddb52fe38a40417401aec4d]
link tictactoe.models.File to tictactoe.models.DAO--><path d="M247.126,406.279 C268.736,423.237 296.709,445.188 319.021,462.697 " fill="none" id="tictactoe.models.File-&gt;tictactoe.models.DAO" style="stroke: #A80036; stroke-width: 1.0; stroke-dasharray: 7.0,7.0;"/><polygon fill="#A80036" points="323.119,465.913,318.5078,457.2103,319.1854,462.8264,313.5693,463.504,323.119,465.913" style="stroke: #A80036; stroke-width: 1.0;"/><!--MD5=[17f07fe05afed453ec0cb7e7f1e7d97c]
link tictactoe.models.File to java.io--><path d="M210.415,406.225 C208.362,434.967 207.124,481.818 216,521 C241.138,631.964 306.91,751.302 339.757,806.3826 " fill="none" id="tictactoe.models.File-&gt;java.io" style="stroke: #A80036; stroke-width: 1.0; stroke-dasharray: 7.0,7.0;"/><polygon fill="#A80036" points="342.448,810.874,341.2537,801.0978,339.8783,806.5849,334.3912,805.2094,342.448,810.874" style="stroke: #A80036; stroke-width: 1.0;"/><!--MD5=[e79504c030c2940e8dd8427e90ad9823]
link utils to java.io--><path d="M649.94,733.461 C594.881,753.15 463.055,800.2904 397.445,823.7522 " fill="none" id="utils-&gt;java.io" style="stroke: #A80036; stroke-width: 1.0; stroke-dasharray: 7.0,7.0;"/><polygon fill="#A80036" points="392.455,825.5367,402.2762,826.274,397.1633,823.8538,399.5835,818.7408,392.455,825.5367" style="stroke: #A80036; stroke-width: 1.0;"/><!--MD5=[02b60266fa6b6f1d17bc27ed61662f3a]
link utils to java.net--><path d="M675,751.279 C675,767.6038 675,788.5556 675,805.7176 " fill="none" id="utils-&gt;java.net" style="stroke: #A80036; stroke-width: 1.0; stroke-dasharray: 7.0,7.0;"/><polygon fill="#A80036" points="675,810.9128,679,801.9128,675,805.9128,671,801.9128,675,810.9128" style="stroke: #A80036; stroke-width: 1.0;"/><!--MD5=[6ba7a600a15b805df477e9f81c752d07]
link tictactoe.views to tictactoe.controllers--><path d="M1048.54,291.316 C1099.22,331.795 1189.89,404.033 1194,406 C1288.66,451.301 1408.09,473.461 1487.54,483.892 " fill="none" id="tictactoe.views-&gt;tictactoe.controllers" style="stroke: #A80036; stroke-width: 1.0; stroke-dasharray: 7.0,7.0;"/><polygon fill="#A80036" points="1492.72,484.562,1484.309,479.4381,1487.7615,483.9192,1483.2804,487.3717,1492.72,484.562" style="stroke: #A80036; stroke-width: 1.0;"/><!--MD5=[cd646adb6bbab9424d87d89ba9c34900]
link tictactoe.views to utils--><path d="M951.894,272.764 C868.144,285.139 727.082,311.351 695,351 C613.863,451.276 647.145,621.182 665.706,691.056 " fill="none" id="tictactoe.views-&gt;utils" style="stroke: #A80036; stroke-width: 1.0; stroke-dasharray: 7.0,7.0;"/><polygon fill="#A80036" points="667.015,695.912,668.5343,686.181,665.7134,691.0844,660.8101,688.2635,667.015,695.912" style="stroke: #A80036; stroke-width: 1.0;"/><!--MD5=[45b98f9d43c3c996f29e8fa60c28e78a]
link tictactoe.views to tictactoe.views.menus--><path d="M964.556,291.136 C931.916,308.371 889.423,330.809 855.931,348.494 " fill="none" id="tictactoe.views-&gt;tictactoe.views.menus" style="stroke: #A80036; stroke-width: 1.0; stroke-dasharray: 7.0,7.0;"/><polygon fill="#A80036" points="851.476,350.847,861.3024,350.1824,855.8976,348.5126,857.5674,343.1078,851.476,350.847" style="stroke: #A80036; stroke-width: 1.0;"/><!--MD5=[b5f91feee15b6ac99e1e35630feb6e5c]
link tictactoe.views to tictactoe.views.models--><path d="M1015,291.279 C1015,307.604 1015,328.556 1015,345.718 " fill="none" id="tictactoe.views-&gt;tictactoe.views.models" style="stroke: #A80036; stroke-width: 1.0; stroke-dasharray: 7.0,7.0;"/><polygon fill="#A80036" points="1015,350.913,1019,341.913,1015,345.913,1011,341.913,1015,350.913" style="stroke: #A80036; stroke-width: 1.0;"/><!--MD5=[20a6fc4f881d1f78158893b4ae3e4254]
link tictactoe.views.menus to tictactoe.controllers--><path d="M889.72,405.947 C889.814,405.965 889.907,405.982 890,406 C1102.61,446.222 1356.91,473.537 1487.59,485.556 " fill="none" id="tictactoe.views.menus-&gt;tictactoe.controllers" style="stroke: #A80036; stroke-width: 1.0; stroke-dasharray: 7.0,7.0;"/><polygon fill="#A80036" points="1492.95,486.047,1484.3533,481.241,1487.9709,485.5899,1483.622,489.2076,1492.95,486.047" style="stroke: #A80036; stroke-width: 1.0;"/><!--MD5=[20a6fc4f881d1f78158893b4ae3e4254]
link tictactoe.views.menus to tictactoe.controllers--><path d="M889.779,398.459 C901.661,401.219 913.63,403.849 925,406 C1125.44,443.92 1362.94,470.369 1487.85,483.343 " fill="none" id="tictactoe.views.menus-&gt;tictactoe.controllers-1" style="stroke: #A80036; stroke-width: 1.0; stroke-dasharray: 7.0,7.0;"/><polygon fill="#A80036" points="1492.98,483.875,1484.4391,478.9706,1488.0065,483.3608,1483.6164,486.9282,1492.98,483.875" style="stroke: #A80036; stroke-width: 1.0;"/><!--MD5=[99728db5549aa6166925dcd5e8670393]
link tictactoe.views.menus to utils--><path d="M783.992,406.129 C753.943,468.411 696.823,623.386 678.929,690.581 " fill="none" id="tictactoe.views.menus-&gt;utils" style="stroke: #A80036; stroke-width: 1.0; stroke-dasharray: 7.0,7.0;"/><polygon fill="#A80036" points="677.611,695.651,683.7451,687.9456,678.868,690.8116,676.0021,685.9345,677.611,695.651" style="stroke: #A80036; stroke-width: 1.0;"/><!--MD5=[99728db5549aa6166925dcd5e8670393]
link tictactoe.views.menus to utils--><path d="M798.869,406.129 C783.551,468.536 726.626,624.007 694.789,690.984 " fill="none" id="tictactoe.views.menus-&gt;utils-1" style="stroke: #A80036; stroke-width: 1.0; stroke-dasharray: 7.0,7.0;"/><polygon fill="#A80036" points="692.541,695.651,700.0508,689.279,694.7111,691.1465,692.8436,685.8068,692.541,695.651" style="stroke: #A80036; stroke-width: 1.0;"/><!--MD5=[77e928041e5a807f1b8df896d54508d9]
@startuml

package tictactoe #DDDDDD { }
tictactoe .down.> tictactoe.views
tictactoe .down.> tictactoe.controllers
tictactoe .down.> tictactoe.models.DAO

package tictactoe.controllers #DDDDDD { }
tictactoe.controllers .down.> tictactoe.models
tictactoe.controllers .down.> java.util

package tictactoe.controllers.implementation #DDDDDD { }
tictactoe.controllers.implementation .down.> tictactoe.controllers
tictactoe.controllers.implementation .down.> tictactoe.models
tictactoe.controllers.implementation .down.> tictactoe.models.DAO

package tictactoe.distributed #DDDDDD { }
tictactoe.distributed .down.> tictactoe.distributed.dispatchers
tictactoe.distributed .down.> tictactoe.controllers.implementation
tictactoe.distributed .down.> tictactoe
tictactoe.distributed .down.> tictactoe.models
tictactoe.distributed .down.> tictactoe.controllers
tictactoe.distributed .down.> utils

package tictactoe.distributed.dispatchers #DDDDDD { }
tictactoe.distributed.dispatchers .down.> tictactoe.controllers
tictactoe.distributed.dispatchers .down.> tictactoe.controllers.implementation
tictactoe.distributed.dispatchers .down.> utils
tictactoe.distributed.dispatchers .down.> java.util

package tictactoe.distributed.dispatchers.errors #DDDDDD { }
tictactoe.distributed.dispatchers.errors .down.> tictactoe.distributed.dispatchers
tictactoe.distributed.dispatchers.errors .down.> tictactoe.controllers

package tictactoe.distributed.dispatchers.save #DDDDDD { }
tictactoe.distributed.dispatchers.save .down.> tictactoe.distributed.dispatchers
tictactoe.distributed.dispatchers.save .down.> tictactoe.controllers

package tictactoe.distributed.dispatchers.undoredo #DDDDDD { }
tictactoe.distributed.dispatchers.undoredo .down.> tictactoe.distributed.dispatchers
tictactoe.distributed.dispatchers.undoredo .down.> tictactoe.controllers

package tictactoe.models #DDDDDD { }
package java.util{ }
tictactoe.models .down.> java.util
tictactoe.models .down.> utils

package tictactoe.models.DAO #DDDDDD { }
tictactoe.models.DAO .down.> tictactoe.models

package tictactoe.models.database #DDDDDD { }
package java.sql{ }
tictactoe.models.database .down.> tictactoe.models
tictactoe.models.database .down.> tictactoe.models.DAO
tictactoe.models.database .down.> java.sql

package tictactoe.models.File #DDDDDD { }
package java.io{ }
tictactoe.models.File .down.> tictactoe.models
tictactoe.models.File .down.> tictactoe.models.DAO
tictactoe.models.File .down.> java.io

package utils #DDDDDD { }
package java.io{ }
utils .down.> java.io
package java.net{ }
utils .down.> java.net

package tictactoe.views #DDDDDD { }
tictactoe.views .down.> tictactoe.controllers
tictactoe.views .down.> utils
tictactoe.views ..> tictactoe.views.menus
tictactoe.views ..> tictactoe.views.models

package tictactoe.views.menus #DDDDDD { }
tictactoe.views.menus .down.> tictactoe.controllers
tictactoe.views.menus .down.> utils

package tictactoe.views.models #DDDDDD { }
tictactoe.views.menus .down.> tictactoe.controllers
tictactoe.views.menus .down.> utils

@enduml

PlantUML version 1.2020.15(Sun Jun 28 13:39:45 CEST 2020)
(GPL source distribution)
Java Runtime: Java(TM) SE Runtime Environment
JVM: Java HotSpot(TM) 64-Bit Server VM
Default Encoding: windows-1252
Language: es
Country: ES
--></g></svg>