<?xml version="1.0" encoding="UTF-8" standalone="no"?><svg xmlns="http://www.w3.org/2000/svg" xmlns:xlink="http://www.w3.org/1999/xlink" contentScriptType="application/ecmascript" contentStyleType="text/css" height="648px" preserveAspectRatio="none" style="width:1007px;height:648px;" version="1.1" viewBox="0 0 1007 648" width="1007px" zoomAndPan="magnify"><defs><filter height="300%" id="f7g94mz2m8udy" width="300%" x="-1" y="-1"><feGaussianBlur result="blurOut" stdDeviation="2.0"/><feColorMatrix in="blurOut" result="blurOut2" type="matrix" values="0 0 0 0 0 0 0 0 0 0 0 0 0 0 0 0 0 0 .4 0"/><feOffset dx="4.0" dy="4.0" in="blurOut2" result="blurOut3"/><feBlend in="SourceGraphic" in2="blurOut3" mode="normal"/></filter></defs><g><polygon fill="#DDDDDD" filter="url(#f7g94mz2m8udy)" points="300.0236,6,367.0236,6,374.0236,29.6094,381.0236,29.6094,381.0236,61.2188,300.0236,61.2188,300.0236,6" style="stroke: #000000; stroke-width: 1.5;"/><line style="stroke: #000000; stroke-width: 1.5;" x1="300.0236" x2="374.0236" y1="29.6094" y2="29.6094"/><text fill="#000000" font-family="sans-serif" font-size="14" font-weight="bold" lengthAdjust="spacingAndGlyphs" textLength="61" x="304.0236" y="22.5332">tictactoe</text><polygon fill="#DDDDDD" filter="url(#f7g94mz2m8udy)" points="233.5236,236,345.5236,236,352.5236,259.6094,359.5236,259.6094,359.5236,291.2188,233.5236,291.2188,233.5236,236" style="stroke: #000000; stroke-width: 1.5;"/><line style="stroke: #000000; stroke-width: 1.5;" x1="233.5236" x2="352.5236" y1="259.6094" y2="259.6094"/><text fill="#000000" font-family="sans-serif" font-size="14" font-weight="bold" lengthAdjust="spacingAndGlyphs" textLength="106" x="237.5236" y="252.5332">tictactoe.views</text><polygon fill="#DDDDDD" filter="url(#f7g94mz2m8udy)" points="215.5236,351,363.5236,351,370.5236,374.6094,377.5236,374.6094,377.5236,406.2188,215.5236,406.2188,215.5236,351" style="stroke: #000000; stroke-width: 1.5;"/><line style="stroke: #000000; stroke-width: 1.5;" x1="215.5236" x2="370.5236" y1="374.6094" y2="374.6094"/><text fill="#000000" font-family="sans-serif" font-size="14" font-weight="bold" lengthAdjust="spacingAndGlyphs" textLength="142" x="219.5236" y="367.5332">tictactoe.controllers</text><polygon fill="#DDDDDD" filter="url(#f7g94mz2m8udy)" points="92.5239,466,214.5239,466,221.5239,489.6094,228.5239,489.6094,228.5239,521.2188,92.5239,521.2188,92.5239,466" style="stroke: #000000; stroke-width: 1.5;"/><line style="stroke: #000000; stroke-width: 1.5;" x1="92.5239" x2="221.5239" y1="489.6094" y2="489.6094"/><text fill="#000000" font-family="sans-serif" font-size="14" font-weight="bold" lengthAdjust="spacingAndGlyphs" textLength="116" x="96.5239" y="482.5332">tictactoe.models</text><polygon fill="#FFFFFF" filter="url(#f7g94mz2m8udy)" points="123.0239,581,184.0239,581,191.0239,604.6094,198.0239,604.6094,198.0239,636.2188,123.0239,636.2188,123.0239,581" style="stroke: #000000; stroke-width: 1.5;"/><line style="stroke: #000000; stroke-width: 1.5;" x1="123.0239" x2="191.0239" y1="604.6094" y2="604.6094"/><text fill="#000000" font-family="sans-serif" font-size="14" font-weight="bold" lengthAdjust="spacingAndGlyphs" textLength="55" x="127.0239" y="597.5332">java.util</text><polygon fill="#DDDDDD" filter="url(#f7g94mz2m8udy)" points="77.5239,236,113.5239,236,120.5239,259.6094,127.5239,259.6094,127.5239,291.2188,77.5239,291.2188,77.5239,236" style="stroke: #000000; stroke-width: 1.5;"/><line style="stroke: #000000; stroke-width: 1.5;" x1="77.5239" x2="120.5239" y1="259.6094" y2="259.6094"/><text fill="#000000" font-family="sans-serif" font-size="14" font-weight="bold" lengthAdjust="spacingAndGlyphs" textLength="30" x="81.5239" y="252.5332">utils</text><polygon fill="#FFFFFF" filter="url(#f7g94mz2m8udy)" points="77.5239,351,129.5239,351,136.5239,374.6094,143.5239,374.6094,143.5239,406.2188,77.5239,406.2188,77.5239,351" style="stroke: #000000; stroke-width: 1.5;"/><line style="stroke: #000000; stroke-width: 1.5;" x1="77.5239" x2="136.5239" y1="374.6094" y2="374.6094"/><text fill="#000000" font-family="sans-serif" font-size="14" font-weight="bold" lengthAdjust="spacingAndGlyphs" textLength="46" x="81.5239" y="367.5332">java.io</text><polygon fill="#DDDDDD" filter="url(#f7g94mz2m8udy)" points="119.5239,121,291.5239,121,298.5239,144.6094,305.5239,144.6094,305.5239,176.2188,119.5239,176.2188,119.5239,121" style="stroke: #000000; stroke-width: 1.5;"/><line style="stroke: #000000; stroke-width: 1.5;" x1="119.5239" x2="298.5239" y1="144.6094" y2="144.6094"/><text fill="#000000" font-family="sans-serif" font-size="14" font-weight="bold" lengthAdjust="spacingAndGlyphs" textLength="166" x="123.5239" y="137.5332">tictactoe.views.console</text><polygon fill="#DDDDDD" filter="url(#f7g94mz2m8udy)" points="374.0236,121,551.0236,121,558.0236,144.6094,565.0236,144.6094,565.0236,176.2188,374.0236,176.2188,374.0236,121" style="stroke: #000000; stroke-width: 1.5;"/><line style="stroke: #000000; stroke-width: 1.5;" x1="374.0236" x2="558.0236" y1="144.6094" y2="144.6094"/><text fill="#000000" font-family="sans-serif" font-size="14" font-weight="bold" lengthAdjust="spacingAndGlyphs" textLength="171" x="378.0236" y="137.5332">tictactoe.views.graphics</text><polygon fill="#FFFFFF" filter="url(#f7g94mz2m8udy)" points="760.0236,236,823.0236,236,830.0236,259.6094,837.0236,259.6094,837.0236,291.2188,760.0236,291.2188,760.0236,236" style="stroke: #000000; stroke-width: 1.5;"/><line style="stroke: #000000; stroke-width: 1.5;" x1="760.0236" x2="830.0236" y1="259.6094" y2="259.6094"/><text fill="#000000" font-family="sans-serif" font-size="14" font-weight="bold" lengthAdjust="spacingAndGlyphs" textLength="57" x="764.0236" y="252.5332">java.awt</text><polygon fill="#FFFFFF" filter="url(#f7g94mz2m8udy)" points="465.5236,236,573.5236,236,580.5236,259.6094,587.5236,259.6094,587.5236,291.2188,465.5236,291.2188,465.5236,236" style="stroke: #000000; stroke-width: 1.5;"/><line style="stroke: #000000; stroke-width: 1.5;" x1="465.5236" x2="580.5236" y1="259.6094" y2="259.6094"/><text fill="#000000" font-family="sans-serif" font-size="14" font-weight="bold" lengthAdjust="spacingAndGlyphs" textLength="102" x="469.5236" y="252.5332">java.awt.event</text><polygon fill="#FFFFFF" filter="url(#f7g94mz2m8udy)" points="622.5236,236,710.5236,236,717.5236,259.6094,724.5236,259.6094,724.5236,291.2188,622.5236,291.2188,622.5236,236" style="stroke: #000000; stroke-width: 1.5;"/><line style="stroke: #000000; stroke-width: 1.5;" x1="622.5236" x2="717.5236" y1="259.6094" y2="259.6094"/><text fill="#000000" font-family="sans-serif" font-size="14" font-weight="bold" lengthAdjust="spacingAndGlyphs" textLength="82" x="626.5236" y="252.5332">javax.swing</text><!--MD5=[e75f446ce7e4e6233c0f378e4a80c309]
link tictactoe to tictactoe.views.graphics--><path d="M371.0946,61.279 C390.3736,78.167 415.3056,100.006 435.2526,117.479 " fill="none" id="tictactoe-&gt;tictactoe.views.graphics" style="stroke: #A80036; stroke-width: 1.0; stroke-dasharray: 7.0,7.0;"/><polygon fill="#A80036" points="439.1726,120.913,435.0394,111.9734,435.4119,117.6179,429.7674,117.9904,439.1726,120.913" style="stroke: #A80036; stroke-width: 1.0;"/><!--MD5=[a65998a409184a650758a5d227ee8afa]
link tictactoe to tictactoe.models--><path d="M299.8566,38.688 C247.2896,46.191 156.0516,66.631 101.5239,121 C10.8581,211.402 6,289.69 59.5239,406 C70.1563,429.105 90.3423,448.343 109.8902,462.764 " fill="none" id="tictactoe-&gt;tictactoe.models" style="stroke: #A80036; stroke-width: 1.0; stroke-dasharray: 7.0,7.0;"/><polygon fill="#A80036" points="114.31,465.953,109.3522,457.443,110.2553,463.0273,104.671,463.9305,114.31,465.953" style="stroke: #A80036; stroke-width: 1.0;"/><!--MD5=[14e8060986a8fc6b4a58b3b27491f648]
link tictactoe to tictactoe.views.console--><path d="M310.1896,61.279 C291.0606,78.167 266.3226,100.006 246.5296,117.479 " fill="none" id="tictactoe-&gt;tictactoe.views.console" style="stroke: #A80036; stroke-width: 1.0; stroke-dasharray: 7.0,7.0;"/><polygon fill="#A80036" points="242.6406,120.913,252.0352,117.9563,246.3893,117.6043,246.7413,111.9584,242.6406,120.913" style="stroke: #A80036; stroke-width: 1.0;"/><!--MD5=[4c8e626184b37a51cac3aeda5d7a8756]
link tictactoe to tictactoe.controllers--><path d="M381.4796,38.983 C525.9536,56.307 995.6686,126.29 854.5236,291 C794.8506,360.636 524.3596,374.688 383.0706,377.208 " fill="none" id="tictactoe-&gt;tictactoe.controllers" style="stroke: #A80036; stroke-width: 1.0; stroke-dasharray: 7.0,7.0;"/><polygon fill="#A80036" points="377.6856,377.3,386.7529,381.1451,382.6849,377.2143,386.6157,373.1463,377.6856,377.3" style="stroke: #A80036; stroke-width: 1.0;"/><!--MD5=[f6dfdd433beafcf2daacaf58db85d2a6]
link tictactoe.controllers to tictactoe.models--><path d="M264.2936,406.279 C243.8846,423.237 217.4656,445.188 196.3926,462.697 " fill="none" id="tictactoe.controllers-&gt;tictactoe.models" style="stroke: #A80036; stroke-width: 1.0; stroke-dasharray: 7.0,7.0;"/><polygon fill="#A80036" points="192.5226,465.913,202.0011,463.2374,196.3682,462.7174,196.8881,457.0845,192.5226,465.913" style="stroke: #A80036; stroke-width: 1.0;"/><!--MD5=[e6c0f23e74b5161a168046a341518387]
link tictactoe.models to java.util--><path d="M160.5236,521.279 C160.5236,537.6038 160.5236,558.5556 160.5236,575.7176 " fill="none" id="tictactoe.models-&gt;java.util" style="stroke: #A80036; stroke-width: 1.0; stroke-dasharray: 7.0,7.0;"/><polygon fill="#A80036" points="160.5236,580.9128,164.5236,571.9128,160.5236,575.9128,156.5236,571.9128,160.5236,580.9128" style="stroke: #A80036; stroke-width: 1.0;"/><!--MD5=[e79504c030c2940e8dd8427e90ad9823]
link utils to java.io--><path d="M104.4198,291.279 C105.5755,307.604 107.0588,328.556 108.2738,345.718 " fill="none" id="utils-&gt;java.io" style="stroke: #A80036; stroke-width: 1.0; stroke-dasharray: 7.0,7.0;"/><polygon fill="#A80036" points="108.6416,350.913,111.9965,341.6531,108.2887,345.9255,104.0164,342.2177,108.6416,350.913" style="stroke: #A80036; stroke-width: 1.0;"/><!--MD5=[6ba7a600a15b805df477e9f81c752d07]
link tictactoe.views to tictactoe.controllers--><path d="M296.5236,291.279 C296.5236,307.604 296.5236,328.556 296.5236,345.718 " fill="none" id="tictactoe.views-&gt;tictactoe.controllers" style="stroke: #A80036; stroke-width: 1.0; stroke-dasharray: 7.0,7.0;"/><polygon fill="#A80036" points="296.5236,350.913,300.5236,341.913,296.5236,345.913,292.5236,341.913,296.5236,350.913" style="stroke: #A80036; stroke-width: 1.0;"/><!--MD5=[d9231b12cc9710bcc39738b6493510f9]
link tictactoe.views.console to tictactoe.views--><path d="M232.4306,176.279 C244.7746,192.885 260.6786,214.279 273.5556,231.602 " fill="none" id="tictactoe.views.console-&gt;tictactoe.views" style="stroke: #A80036; stroke-width: 1.0; stroke-dasharray: 7.0,7.0;"/><polygon fill="#A80036" points="276.7596,235.913,274.6008,226.3037,273.7768,231.9002,268.1803,231.0762,276.7596,235.913" style="stroke: #A80036; stroke-width: 1.0;"/><!--MD5=[ae85e2051aac6338671b2c0e494e498c]
link tictactoe.views.console to tictactoe.controllers--><path d="M207.5926,176.195 C203.4026,205.525 200.2266,253.454 215.5236,291 C224.3256,312.604 241.2216,332.041 257.3146,346.991 " fill="none" id="tictactoe.views.console-&gt;tictactoe.controllers" style="stroke: #A80036; stroke-width: 1.0; stroke-dasharray: 7.0,7.0;"/><polygon fill="#A80036" points="261.3836,350.693,257.4211,341.6764,257.6862,347.3271,252.0356,347.5922,261.3836,350.693" style="stroke: #A80036; stroke-width: 1.0;"/><!--MD5=[b62e8057ebb64db4cc41eb56011c03b5]
link tictactoe.views.console to utils--><path d="M186.4556,176.279 C169.9176,193.269 148.4996,215.27 131.4396,232.795 " fill="none" id="tictactoe.views.console-&gt;utils" style="stroke: #A80036; stroke-width: 1.0; stroke-dasharray: 7.0,7.0;"/><polygon fill="#A80036" points="127.6476,236.691,136.792,233.0332,131.1357,233.1086,131.0603,227.4523,127.6476,236.691" style="stroke: #A80036; stroke-width: 1.0;"/><!--MD5=[c7abc341df818e9399752b73ea287ffa]
link tictactoe.views.graphics to java.awt--><path d="M564.1166,176.039 C617.1746,191.776 684.2186,213.089 742.5236,236 C746.7146,237.647 751.0316,239.463 755.3226,241.35 " fill="none" id="tictactoe.views.graphics-&gt;java.awt" style="stroke: #A80036; stroke-width: 1.0; stroke-dasharray: 7.0,7.0;"/><polygon fill="#A80036" points="759.9606,243.421,753.3715,236.1009,755.3945,241.3837,750.1118,243.4067,759.9606,243.421" style="stroke: #A80036; stroke-width: 1.0;"/><!--MD5=[1c28faa5b8dc6ea7b3ae1a3bac7bae3d]
link tictactoe.views.graphics to java.awt.event--><path d="M483.0316,176.279 C491.3376,192.745 502.0176,213.917 510.7156,231.161 " fill="none" id="tictactoe.views.graphics-&gt;java.awt.event" style="stroke: #A80036; stroke-width: 1.0; stroke-dasharray: 7.0,7.0;"/><polygon fill="#A80036" points="513.1126,235.913,512.6289,226.076,510.86,231.4492,505.4868,229.6802,513.1126,235.913" style="stroke: #A80036; stroke-width: 1.0;"/><!--MD5=[36236f1ad998eba9fea5e75bc6a115c4]
link tictactoe.views.graphics to tictactoe.views--><path d="M428.5256,176.279 C402.3486,193.378 368.3986,215.553 341.4846,233.132 " fill="none" id="tictactoe.views.graphics-&gt;tictactoe.views" style="stroke: #A80036; stroke-width: 1.0; stroke-dasharray: 7.0,7.0;"/><polygon fill="#A80036" points="337.2286,235.913,346.9512,234.3413,341.415,233.1792,342.5771,227.643,337.2286,235.913" style="stroke: #A80036; stroke-width: 1.0;"/><!--MD5=[e76a6be31849206907fd12c2469d4e43]
link tictactoe.views.graphics to tictactoe.controllers--><path d="M453.7946,176.212 C436.2256,205.348 406.3226,252.914 376.5236,291 C361.3016,310.456 342.6386,330.805 327.1676,346.875 " fill="none" id="tictactoe.views.graphics-&gt;tictactoe.controllers" style="stroke: #A80036; stroke-width: 1.0; stroke-dasharray: 7.0,7.0;"/><polygon fill="#A80036" points="323.3076,350.865,332.4409,347.1795,326.7848,347.2721,326.6922,341.616,323.3076,350.865" style="stroke: #A80036; stroke-width: 1.0;"/><!--MD5=[b630ab80351c1f98f91c87ac09bf7168]
link tictactoe.views.graphics to javax.swing--><path d="M517.6106,176.136 C548.5986,193.301 588.9016,215.626 620.7686,233.278 " fill="none" id="tictactoe.views.graphics-&gt;javax.swing" style="stroke: #A80036; stroke-width: 1.0; stroke-dasharray: 7.0,7.0;"/><polygon fill="#A80036" points="625.4066,235.847,619.4717,227.9872,621.0327,233.4244,615.5955,234.9854,625.4066,235.847" style="stroke: #A80036; stroke-width: 1.0;"/><!--MD5=[3fec42337d3f724be4b10d990b26a210]
@startuml

package tictactoe #DDDDDD { }
tictactoe .down.> tictactoe.views.graphics
tictactoe .down.> tictactoe.models
tictactoe .down.> tictactoe.views.console
tictactoe .down.> tictactoe.controllers

package tictactoe.controllers #DDDDDD { }
tictactoe.controllers .down.> tictactoe.models

package tictactoe.models #DDDDDD { }
package java.util{ }
tictactoe.models .down.> java.util

package utils #DDDDDD { }
package java.io{ }
utils .down.> java.io

package tictactoe.views #DDDDDD { }
tictactoe.views .down.> tictactoe.controllers

package tictactoe.views.console #DDDDDD { }
tictactoe.views.console .down.> tictactoe.views
tictactoe.views.console .down.> tictactoe.controllers
tictactoe.views.console .down.> utils

package tictactoe.views.graphics #DDDDDD { }
package java.awt{ }
tictactoe.views.graphics .down.> java.awt
package java.awt.event{ }
tictactoe.views.graphics .down.> java.awt.event
tictactoe.views.graphics .down.> tictactoe.views
tictactoe.views.graphics .down.> tictactoe.controllers
package javax.swing{ }
tictactoe.views.graphics .down.> javax.swing

@enduml

PlantUML version 1.2020.15(Sun Jun 28 13:39:45 CEST 2020)
(GPL source distribution)
Java Runtime: Java(TM) SE Runtime Environment
JVM: Java HotSpot(TM) 64-Bit Server VM
Default Encoding: windows-1252
Language: es
Country: ES
--></g></svg>