<?xml version="1.0" encoding="UTF-8" standalone="no"?><svg xmlns="http://www.w3.org/2000/svg" xmlns:xlink="http://www.w3.org/1999/xlink" contentScriptType="application/ecmascript" contentStyleType="text/css" height="167px" preserveAspectRatio="none" style="width:3586px;height:167px;" version="1.1" viewBox="0 0 3586 167" width="3586px" zoomAndPan="magnify"><defs><filter height="300%" id="fa5lr1oiv1b5v" width="300%" x="-1" y="-1"><feGaussianBlur result="blurOut" stdDeviation="2.0"/><feColorMatrix in="blurOut" result="blurOut2" type="matrix" values="0 0 0 0 0 0 0 0 0 0 0 0 0 0 0 0 0 0 .4 0"/><feOffset dx="4.0" dy="4.0" in="blurOut2" result="blurOut3"/><feBlend in="SourceGraphic" in2="blurOut3" mode="normal"/></filter></defs><g><!--MD5=[483b12a8a4a1981ac5430bdda5fd5916]
entity tictactoe--><polygon fill="#FFFFFF" filter="url(#fa5lr1oiv1b5v)" points="16,115,83,115,90,138.6094,107,138.6094,107,155.6094,16,155.6094,16,115" style="stroke: #000000; stroke-width: 1.5;"/><line style="stroke: #000000; stroke-width: 1.5;" x1="16" x2="90" y1="138.6094" y2="138.6094"/><text fill="#000000" font-family="sans-serif" font-size="14" font-weight="bold" lengthAdjust="spacingAndGlyphs" textLength="61" x="20" y="132.5332">tictactoe</text><!--MD5=[bc6102f5c7110c2c1c7ba872ac02f333]
entity tictactoe.distributed--><polygon fill="#FFFFFF" filter="url(#fa5lr1oiv1b5v)" points="142.5,115,290.5,115,297.5,138.6094,314.5,138.6094,314.5,155.6094,142.5,155.6094,142.5,115" style="stroke: #000000; stroke-width: 1.5;"/><line style="stroke: #000000; stroke-width: 1.5;" x1="142.5" x2="297.5" y1="138.6094" y2="138.6094"/><text fill="#000000" font-family="sans-serif" font-size="14" font-weight="bold" lengthAdjust="spacingAndGlyphs" textLength="142" x="146.5" y="132.5332">tictactoe.distributed</text><!--MD5=[4420d1aeeaa1c084ae374c955337ed05]
entity tictactoe.distributed.dispatchers--><polygon fill="#FFFFFF" filter="url(#fa5lr1oiv1b5v)" points="350,115,585,115,592,138.6094,609,138.6094,609,155.6094,350,155.6094,350,115" style="stroke: #000000; stroke-width: 1.5;"/><line style="stroke: #000000; stroke-width: 1.5;" x1="350" x2="592" y1="138.6094" y2="138.6094"/><text fill="#000000" font-family="sans-serif" font-size="14" font-weight="bold" lengthAdjust="spacingAndGlyphs" textLength="229" x="354" y="132.5332">tictactoe.distributed.dispatchers</text><!--MD5=[daad211c4573dbe60b33f42b7411f08f]
entity tictactoe.distributed.dispatchers.errors--><polygon fill="#FFFFFF" filter="url(#fa5lr1oiv1b5v)" points="644,115,927,115,934,138.6094,951,138.6094,951,155.6094,644,155.6094,644,115" style="stroke: #000000; stroke-width: 1.5;"/><line style="stroke: #000000; stroke-width: 1.5;" x1="644" x2="934" y1="138.6094" y2="138.6094"/><text fill="#000000" font-family="sans-serif" font-size="14" font-weight="bold" lengthAdjust="spacingAndGlyphs" textLength="277" x="648" y="132.5332">tictactoe.distributed.dispatchers.errors</text><!--MD5=[3183ec681926bb365d43bd091b71ae8f]
entity tictactoe.distributed.dispatchers.save--><polygon fill="#FFFFFF" filter="url(#fa5lr1oiv1b5v)" points="986,115,1259,115,1266,138.6094,1283,138.6094,1283,155.6094,986,155.6094,986,115" style="stroke: #000000; stroke-width: 1.5;"/><line style="stroke: #000000; stroke-width: 1.5;" x1="986" x2="1266" y1="138.6094" y2="138.6094"/><text fill="#000000" font-family="sans-serif" font-size="14" font-weight="bold" lengthAdjust="spacingAndGlyphs" textLength="267" x="990" y="132.5332">tictactoe.distributed.dispatchers.save</text><!--MD5=[73744e03def399d5559d0b91fa4d2d9b]
entity tictactoe.distributed.dispatchers.undoredo--><polygon fill="#FFFFFF" filter="url(#fa5lr1oiv1b5v)" points="1318.5,115,1626.5,115,1633.5,138.6094,1650.5,138.6094,1650.5,155.6094,1318.5,155.6094,1318.5,115" style="stroke: #000000; stroke-width: 1.5;"/><line style="stroke: #000000; stroke-width: 1.5;" x1="1318.5" x2="1633.5" y1="138.6094" y2="138.6094"/><text fill="#000000" font-family="sans-serif" font-size="14" font-weight="bold" lengthAdjust="spacingAndGlyphs" textLength="302" x="1322.5" y="132.5332">tictactoe.distributed.dispatchers.undoredo</text><!--MD5=[21ee9191f94b37e164ce8850dd375de6]
entity tictactoe.models--><polygon fill="#FFFFFF" filter="url(#fa5lr1oiv1b5v)" points="1685.5,115,1807.5,115,1814.5,138.6094,1831.5,138.6094,1831.5,155.6094,1685.5,155.6094,1685.5,115" style="stroke: #000000; stroke-width: 1.5;"/><line style="stroke: #000000; stroke-width: 1.5;" x1="1685.5" x2="1814.5" y1="138.6094" y2="138.6094"/><text fill="#000000" font-family="sans-serif" font-size="14" font-weight="bold" lengthAdjust="spacingAndGlyphs" textLength="116" x="1689.5" y="132.5332">tictactoe.models</text><!--MD5=[d35223fd8f7d7c99496ee8d9b067ffdf]
entity tictactoe.controllers--><polygon fill="#FFFFFF" filter="url(#fa5lr1oiv1b5v)" points="1866.5,115,2014.5,115,2021.5,138.6094,2038.5,138.6094,2038.5,155.6094,1866.5,155.6094,1866.5,115" style="stroke: #000000; stroke-width: 1.5;"/><line style="stroke: #000000; stroke-width: 1.5;" x1="1866.5" x2="2021.5" y1="138.6094" y2="138.6094"/><text fill="#000000" font-family="sans-serif" font-size="14" font-weight="bold" lengthAdjust="spacingAndGlyphs" textLength="142" x="1870.5" y="132.5332">tictactoe.controllers</text><!--MD5=[4911aefd0c1747f0d800ce616c3836ce]
entity tictactoe.controllers.implementation--><polygon fill="#FFFFFF" filter="url(#fa5lr1oiv1b5v)" points="2073.5,115,2333.5,115,2340.5,138.6094,2357.5,138.6094,2357.5,155.6094,2073.5,155.6094,2073.5,115" style="stroke: #000000; stroke-width: 1.5;"/><line style="stroke: #000000; stroke-width: 1.5;" x1="2073.5" x2="2340.5" y1="138.6094" y2="138.6094"/><text fill="#000000" font-family="sans-serif" font-size="14" font-weight="bold" lengthAdjust="spacingAndGlyphs" textLength="254" x="2077.5" y="132.5332">tictactoe.controllers.implementation</text><!--MD5=[170e9aa8a7c5483a45070c603c759464]
entity tictactoe.views--><polygon fill="#FFFFFF" filter="url(#fa5lr1oiv1b5v)" points="2392.5,115,2504.5,115,2511.5,138.6094,2528.5,138.6094,2528.5,155.6094,2392.5,155.6094,2392.5,115" style="stroke: #000000; stroke-width: 1.5;"/><line style="stroke: #000000; stroke-width: 1.5;" x1="2392.5" x2="2511.5" y1="138.6094" y2="138.6094"/><text fill="#000000" font-family="sans-serif" font-size="14" font-weight="bold" lengthAdjust="spacingAndGlyphs" textLength="106" x="2396.5" y="132.5332">tictactoe.views</text><!--MD5=[e9200ba29f1e05d1f31e2a8ef61fac10]
entity tictactoe.views.menus--><polygon fill="#FFFFFF" filter="url(#fa5lr1oiv1b5v)" points="2564,115,2727,115,2734,138.6094,2751,138.6094,2751,155.6094,2564,155.6094,2564,115" style="stroke: #000000; stroke-width: 1.5;"/><line style="stroke: #000000; stroke-width: 1.5;" x1="2564" x2="2734" y1="138.6094" y2="138.6094"/><text fill="#000000" font-family="sans-serif" font-size="14" font-weight="bold" lengthAdjust="spacingAndGlyphs" textLength="157" x="2568" y="132.5332">tictactoe.views.menus</text><!--MD5=[2efa0b14ba02b52a684babbdabf10da8]
entity tictactoe.views.models--><polygon fill="#FFFFFF" filter="url(#fa5lr1oiv1b5v)" points="2786,115,2953,115,2960,138.6094,2977,138.6094,2977,155.6094,2786,155.6094,2786,115" style="stroke: #000000; stroke-width: 1.5;"/><line style="stroke: #000000; stroke-width: 1.5;" x1="2786" x2="2960" y1="138.6094" y2="138.6094"/><text fill="#000000" font-family="sans-serif" font-size="14" font-weight="bold" lengthAdjust="spacingAndGlyphs" textLength="161" x="2790" y="132.5332">tictactoe.views.models</text><!--MD5=[621aa5355b1fbe35f692172da5dce4b9]
entity tictactoe.views.models.DAO--><polygon fill="#FFFFFF" filter="url(#fa5lr1oiv1b5v)" points="3012,115,3213,115,3220,138.6094,3237,138.6094,3237,155.6094,3012,155.6094,3012,115" style="stroke: #000000; stroke-width: 1.5;"/><line style="stroke: #000000; stroke-width: 1.5;" x1="3012" x2="3220" y1="138.6094" y2="138.6094"/><text fill="#000000" font-family="sans-serif" font-size="14" font-weight="bold" lengthAdjust="spacingAndGlyphs" textLength="195" x="3016" y="132.5332">tictactoe.views.models.DAO</text><!--MD5=[815e17c207bbf712f7f26918c1feb6f8]
entity utils--><polygon fill="#FFFFFF" filter="url(#fa5lr1oiv1b5v)" points="3272.5,115,3308.5,115,3315.5,138.6094,3332.5,138.6094,3332.5,155.6094,3272.5,155.6094,3272.5,115" style="stroke: #000000; stroke-width: 1.5;"/><line style="stroke: #000000; stroke-width: 1.5;" x1="3272.5" x2="3315.5" y1="138.6094" y2="138.6094"/><text fill="#000000" font-family="sans-serif" font-size="14" font-weight="bold" lengthAdjust="spacingAndGlyphs" textLength="30" x="3276.5" y="132.5332">utils</text><!--MD5=[48fa9072fd51d9920e6db8484beec696]
entity java.io--><polygon fill="#FFFFFF" filter="url(#fa5lr1oiv1b5v)" points="3367.5,115,3419.5,115,3426.5,138.6094,3443.5,138.6094,3443.5,155.6094,3367.5,155.6094,3367.5,115" style="stroke: #000000; stroke-width: 1.5;"/><line style="stroke: #000000; stroke-width: 1.5;" x1="3367.5" x2="3426.5" y1="138.6094" y2="138.6094"/><text fill="#000000" font-family="sans-serif" font-size="14" font-weight="bold" lengthAdjust="spacingAndGlyphs" textLength="46" x="3371.5" y="132.5332">java.io</text><!--MD5=[034f0f7ed136bf78fc117f7e41f76e93]
entity java.util--><polygon fill="#FFFFFF" filter="url(#fa5lr1oiv1b5v)" points="3479,115,3540,115,3547,138.6094,3564,138.6094,3564,155.6094,3479,155.6094,3479,115" style="stroke: #000000; stroke-width: 1.5;"/><line style="stroke: #000000; stroke-width: 1.5;" x1="3479" x2="3547" y1="138.6094" y2="138.6094"/><text fill="#000000" font-family="sans-serif" font-size="14" font-weight="bold" lengthAdjust="spacingAndGlyphs" textLength="55" x="3483" y="132.5332">java.util</text><!--MD5=[a6a51606d0752e41353840c3c1bca06a]
entity jarClient--><rect fill="#FEFECE" filter="url(#fa5lr1oiv1b5v)" height="47.6094" style="stroke: #A80036; stroke-width: 1.5;" width="149" x="2009" y="7"/><rect fill="#FEFECE" height="10" style="stroke: #A80036; stroke-width: 1.5;" width="15" x="2138" y="12"/><rect fill="#FEFECE" height="2" style="stroke: #A80036; stroke-width: 1.5;" width="4" x="2136" y="14"/><rect fill="#FEFECE" height="2" style="stroke: #A80036; stroke-width: 1.5;" width="4" x="2136" y="18"/><text fill="#000000" font-family="sans-serif" font-size="14" lengthAdjust="spacingAndGlyphs" textLength="109" x="2024" y="41.5332">tictactoeClient.jar</text><!--MD5=[457bb6843a8d1c875ab27d0179ab8782]
link jarClient to tictactoe--><path d="M1996.9805,32.6985 C1996.9805,32.6985 491.84,51.468 124.5,115 C123.002,115.2591 121.489,115.5439 119.968,115.8509 " fill="none" id="jarClient-tictactoe" style="stroke: #A80036; stroke-width: 1.0;"/><polygon fill="#A80036" points="107.271,118.8362,116.9475,120.6709,112.1384,117.6922,115.1171,112.8831,107.271,118.8362" style="stroke: #A80036; stroke-width: 1.0;"/><line style="stroke: #A80036; stroke-width: 1.0;" x1="112.1384" x2="119.926" y1="117.6922" y2="115.8607"/><polygon fill="#A80036" points="2008.98,32.593,2002.9451,28.6459,1996.9805,32.6985,2003.0154,36.6456,2008.98,32.593" style="stroke: #A80036; stroke-width: 1.0;"/><!--MD5=[66bcfc51c11ee705829a2a0e89376480]
link jarClient to tictactoe.distributed--><path d="M1996.96,31.8914 C1996.96,31.8914 967.259,40.806 332.5,115 C330.858,115.1919 329.203,115.3945 327.537,115.6067 " fill="none" id="jarClient-tictactoe.distributed" style="stroke: #A80036; stroke-width: 1.0;"/><polygon fill="#A80036" points="314.62,117.4054,324.0857,120.126,319.5722,116.7158,322.9823,112.2024,314.62,117.4054" style="stroke: #A80036; stroke-width: 1.0;"/><line style="stroke: #A80036; stroke-width: 1.0;" x1="319.5722" x2="327.4965" y1="116.7158" y2="115.6123"/><polygon fill="#A80036" points="2008.96,31.865,2002.9512,27.8782,1996.96,31.8914,2002.9688,35.8782,2008.96,31.865" style="stroke: #A80036; stroke-width: 1.0;"/><!--MD5=[16c52a86c8b83105508491ca417863e6]
link jarClient to tictactoe.distributed.dispatchers--><path d="M1996.6761,34.6634 C1996.6761,34.6634 1144.3,65.9772 626.5,115 C625.09,115.1335 623.673,115.2702 622.25,115.41 " fill="none" id="jarClient-tictactoe.distributed.dispatchers" style="stroke: #A80036; stroke-width: 1.0;"/><polygon fill="#A80036" points="609.296,116.7454,618.659,119.8005,614.2696,116.2322,617.8379,111.8428,609.296,116.7454" style="stroke: #A80036; stroke-width: 1.0;"/><line style="stroke: #A80036; stroke-width: 1.0;" x1="614.2696" x2="622.228" y1="116.2322" y2="115.4122"/><polygon fill="#A80036" points="2008.67,34.281,2002.5456,30.4742,1996.6761,34.6634,2002.8005,38.4702,2008.67,34.281" style="stroke: #A80036; stroke-width: 1.0;"/><!--MD5=[ab368545b17553a6613fe3c5925fbf4e]
link jarClient to tictactoe.distributed.dispatchers.errors--><path d="M1996.7327,37.2885 C1996.7327,37.2885 1350.44,79.0214 968.5,115 C967.087,115.1331 965.667,115.268 964.242,115.4045 " fill="none" id="jarClient-tictactoe.distributed.dispatchers.errors" style="stroke: #A80036; stroke-width: 1.0;"/><polygon fill="#A80036" points="951.281,116.6753,960.6284,119.778,956.2571,116.1874,959.8477,111.8162,951.281,116.6753" style="stroke: #A80036; stroke-width: 1.0;"/><line style="stroke: #A80036; stroke-width: 1.0;" x1="956.2571" x2="964.219" y1="116.1874" y2="115.4067"/><polygon fill="#A80036" points="2008.71,36.55,2002.4752,32.9268,1996.7327,37.2885,2002.9675,40.9117,2008.71,36.55" style="stroke: #A80036; stroke-width: 1.0;"/><!--MD5=[c87ff80f01b5b688f02d0974d7ecce60]
link jarClient to tictactoe.distributed.dispatchers.save--><path d="M1997.0428,40.8424 C1997.0428,40.8424 1552.78,86.8117 1300.5,115 C1299.18,115.1473 1297.86,115.2955 1296.53,115.4446 " fill="none" id="jarClient-tictactoe.distributed.dispatchers.save" style="stroke: #A80036; stroke-width: 1.0;"/><polygon fill="#A80036" points="1283.36,116.9309,1292.7516,119.8969,1288.3285,116.3705,1291.8549,111.9473,1283.36,116.9309" style="stroke: #A80036; stroke-width: 1.0;"/><line style="stroke: #A80036; stroke-width: 1.0;" x1="1288.3285" x2="1296.28" y1="116.3705" y2="115.4729"/><polygon fill="#A80036" points="2008.98,39.616,2002.6026,36.2502,1997.0428,40.8424,2003.4202,44.2083,2008.98,39.616" style="stroke: #A80036; stroke-width: 1.0;"/><!--MD5=[fd630eba4eaee002b466186ef5ed5f03]
link jarClient to tictactoe.distributed.dispatchers.undoredo--><path d="M1997.0208,46.7917 C1997.0208,46.7917 1727.2,92.9693 1611.7,112.7345 " fill="none" id="jarClient-tictactoe.distributed.dispatchers.undoredo" style="stroke: #A80036; stroke-width: 1.0;"/><polygon fill="#A80036" points="1598.58,114.979,1608.1271,117.3984,1603.5079,114.1329,1606.7734,109.5137,1598.58,114.979" style="stroke: #A80036; stroke-width: 1.0;"/><line style="stroke: #A80036; stroke-width: 1.0;" x1="1603.5079" x2="1611.39" y1="114.1329" y2="112.7863"/><polygon fill="#A80036" points="2008.85,44.774,2002.2629,41.8398,1997.0208,46.7917,2003.608,49.7259,2008.85,44.774" style="stroke: #A80036; stroke-width: 1.0;"/><!--MD5=[31812314a6084e7a4254d0191fed9e96]
link jarClient to tictactoe.models--><path d="M1999.113,58.6039 C1999.113,58.6039 1882.12,95.5133 1832.99,111.0062 " fill="none" id="jarClient-tictactoe.models" style="stroke: #A80036; stroke-width: 1.0;"/><polygon fill="#A80036" points="1820.53,114.936,1830.3167,116.0408,1825.298,113.4306,1827.9081,108.412,1820.53,114.936" style="stroke: #A80036; stroke-width: 1.0;"/><line style="stroke: #A80036; stroke-width: 1.0;" x1="1825.298" x2="1832.93" y1="113.4306" y2="111.0258"/><polygon fill="#A80036" points="2010.56,55.003,2003.6362,52.9878,1999.113,58.6039,2006.0368,60.6191,2010.56,55.003" style="stroke: #A80036; stroke-width: 1.0;"/><!--MD5=[198b31a385eb23d499dd602faf4cb0cb]
link jarClient to tictactoe.controllers--><path d="M2044.6507,62.3996 C2044.6507,62.3996 2005.61,92.941 1988.51,106.3234 " fill="none" id="jarClient-tictactoe.controllers" style="stroke: #A80036; stroke-width: 1.0;"/><polygon fill="#A80036" points="1977.83,114.6838,1987.3825,112.2861,1981.7672,111.6019,1982.4515,105.9866,1977.83,114.6838" style="stroke: #A80036; stroke-width: 1.0;"/><line style="stroke: #A80036; stroke-width: 1.0;" x1="1981.7672" x2="1988.065" y1="111.6019" y2="106.6729"/><polygon fill="#A80036" points="2054.1,55.003,2046.9098,55.5515,2044.6507,62.3996,2051.8409,61.8511,2054.1,55.003" style="stroke: #A80036; stroke-width: 1.0;"/><!--MD5=[4ddb519868096ad16b5f835e1f162e4f]
link jarClient to tictactoe.controllers.implementation--><path d="M2122.5988,62.3618 C2122.5988,62.3618 2162.37,93.2466 2179.71,106.7051 " fill="none" id="jarClient-tictactoe.controllers.implementation" style="stroke: #A80036; stroke-width: 1.0;"/><polygon fill="#A80036" points="2189.98,114.6838,2185.3239,106.0051,2186.0305,111.6176,2180.418,112.3243,2189.98,114.6838" style="stroke: #A80036; stroke-width: 1.0;"/><line style="stroke: #A80036; stroke-width: 1.0;" x1="2186.0305" x2="2179.71" y1="111.6176" y2="106.7107"/><polygon fill="#A80036" points="2113.12,55.003,2115.4064,61.842,2122.5988,62.3618,2120.3123,55.5228,2113.12,55.003" style="stroke: #A80036; stroke-width: 1.0;"/><!--MD5=[07c489bc016c3a24be9a3f4c6581f7c3]
link jarClient to tictactoe.views--><path d="M2170.0088,55.5243 C2170.0088,55.5243 2318.3,95.838 2379.64,112.5144 " fill="none" id="jarClient-tictactoe.views" style="stroke: #A80036; stroke-width: 1.0;"/><polygon fill="#A80036" points="2392.36,115.9743,2384.7264,109.7511,2387.5355,114.6612,2382.6254,117.4703,2392.36,115.9743" style="stroke: #A80036; stroke-width: 1.0;"/><line style="stroke: #A80036; stroke-width: 1.0;" x1="2387.5355" x2="2379.815" y1="114.6612" y2="112.5636"/><polygon fill="#A80036" points="2158.43,52.373,2163.169,57.8083,2170.0088,55.5243,2165.2698,50.089,2158.43,52.373" style="stroke: #A80036; stroke-width: 1.0;"/><!--MD5=[12da2b086c988c293bab6c90bdff8681]
link jarClient to tictactoe.views.menus--><path d="M2170.063,47.4579 C2170.063,47.4579 2441.26,95.8852 2550.72,115.432 " fill="none" id="jarClient-tictactoe.views.menus" style="stroke: #A80036; stroke-width: 1.0;"/><polygon fill="#A80036" points="2563.77,117.7622,2555.6135,112.2421,2558.8479,116.8831,2554.2069,120.1175,2563.77,117.7622" style="stroke: #A80036; stroke-width: 1.0;"/><line style="stroke: #A80036; stroke-width: 1.0;" x1="2558.8479" x2="2550.97" y1="116.8831" y2="115.4769"/><polygon fill="#A80036" points="2158.25,45.348,2163.4532,50.3407,2170.063,47.4579,2164.8598,42.4653,2158.25,45.348" style="stroke: #A80036; stroke-width: 1.0;"/><!--MD5=[2f19ed294e34f3711e2aec59ba034c27]
link jarClient to tictactoe.views.models--><path d="M2170.1016,41.082 C2170.1016,41.082 2554.51,83.5917 2768.5,115 C2770.02,115.2227 2771.55,115.4496 2773.08,115.6804 " fill="none" id="jarClient-tictactoe.views.models" style="stroke: #A80036; stroke-width: 1.0;"/><polygon fill="#A80036" points="2786,117.6716,2777.7166,112.3439,2781.0587,116.9079,2776.4946,120.25,2786,117.6716" style="stroke: #A80036; stroke-width: 1.0;"/><line style="stroke: #A80036; stroke-width: 1.0;" x1="2781.0587" x2="2773.145" y1="116.9079" y2="115.6902"/><polygon fill="#A80036" points="2158.17,39.803,2163.7095,44.4197,2170.1016,41.082,2164.5622,36.4653,2158.17,39.803" style="stroke: #A80036; stroke-width: 1.0;"/><!--MD5=[4937b8c169e1bb7a7905d5ea789e8cff]
link jarClient to tictactoe.views.models.DAO--><path d="M2170.0174,38.2025 C2170.0174,38.2025 2693.14,78.7008 2994.5,115 C2995.92,115.1706 2997.34,115.3444 2998.77,115.5213 " fill="none" id="jarClient-tictactoe.views.models.DAO" style="stroke: #A80036; stroke-width: 1.0;"/><polygon fill="#A80036" points="3011.81,117.1882,3003.3933,112.0737,3006.8508,116.5509,3002.3736,120.0084,3011.81,117.1882" style="stroke: #A80036; stroke-width: 1.0;"/><line style="stroke: #A80036; stroke-width: 1.0;" x1="3006.8508" x2="2998.92" y1="116.5509" y2="115.54"/><polygon fill="#A80036" points="2158.05,37.319,2163.7392,41.7499,2170.0174,38.2025,2164.3282,33.7716,2158.05,37.319" style="stroke: #A80036; stroke-width: 1.0;"/><!--MD5=[bea9f559fd90f465a2e8608ffbd4001a]
link jarClient to utils--><path d="M2170.3135,34.6256 C2170.3135,34.6256 3048.56,67.1457 3254.5,115 C3256.24,115.405 3258,115.8647 3259.77,116.3683 " fill="none" id="jarClient-utils" style="stroke: #A80036; stroke-width: 1.0;"/><polygon fill="#A80036" points="3272.24,120.5384,3264.976,113.8876,3267.4988,118.9507,3262.4356,121.4735,3272.24,120.5384" style="stroke: #A80036; stroke-width: 1.0;"/><line style="stroke: #A80036; stroke-width: 1.0;" x1="3267.4988" x2="3259.915" y1="118.9507" y2="116.4153"/><polygon fill="#A80036" points="2158.32,34.23,2164.1849,38.4256,2170.3135,34.6256,2164.4486,30.43,2158.32,34.23" style="stroke: #A80036; stroke-width: 1.0;"/><!--MD5=[4b52c1cb0b8f7e02453e64ac4b9d7029]
link jarClient to java.io--><path d="M2170.0139,34.5744 C2170.0139,34.5744 3124.32,68.4274 3350.5,115 C3351.89,115.286 3353.29,115.5991 3354.7,115.9354 " fill="none" id="jarClient-java.io" style="stroke: #A80036; stroke-width: 1.0;"/><polygon fill="#A80036" points="3367.42,119.4861,3359.8291,113.2109,3362.6046,118.1401,3357.6754,120.9156,3367.42,119.4861" style="stroke: #A80036; stroke-width: 1.0;"/><line style="stroke: #A80036; stroke-width: 1.0;" x1="3362.6046" x2="3354.895" y1="118.1401" y2="115.9906"/><polygon fill="#A80036" points="2158.02,34.192,2163.8895,38.3812,2170.0139,34.5744,2164.1444,30.3852,2158.02,34.192" style="stroke: #A80036; stroke-width: 1.0;"/><!--MD5=[c235450950c0b3c493f4fd848123fa72]
link jarClient to java.util--><path d="M2170.2951,34.3458 C2170.2951,34.3458 3212.54,67.8432 3461.5,115 C3463.02,115.287 3464.54,115.6013 3466.08,115.9393 " fill="none" id="jarClient-java.util" style="stroke: #A80036; stroke-width: 1.0;"/><polygon fill="#A80036" points="3478.91,119.1993,3471.1716,113.1069,3474.0639,117.9685,3469.2023,120.8607,3478.91,119.1993" style="stroke: #A80036; stroke-width: 1.0;"/><line style="stroke: #A80036; stroke-width: 1.0;" x1="3474.0639" x2="3466.31" y1="117.9685" y2="115.9969"/><polygon fill="#A80036" points="2158.3,34.003,2164.1833,38.1728,2170.2951,34.3458,2164.4118,30.176,2158.3,34.003" style="stroke: #A80036; stroke-width: 1.0;"/><!--MD5=[7d47d9e4a108556217c0a5c39299d01d]
@startuml

package "  "  as tictactoe {
}
package "  "  as tictactoe.distributed {
}
package "  "  as tictactoe.distributed.dispatchers {
}
package "  "  as tictactoe.distributed.dispatchers.errors {
}
package "  "  as tictactoe.distributed.dispatchers.save {
}
package "  "  as tictactoe.distributed.dispatchers.undoredo {
}
package "  "  as tictactoe.models {
}
package "  "  as tictactoe.controllers {
}
package "  "  as tictactoe.controllers.implementation {
}
package "  "  as tictactoe.views {
}
package "  "  as tictactoe.views.menus {
}
package "  "  as tictactoe.views.models {
}
package "  "  as tictactoe.views.models.DAO {
}
package "  "  as utils {
}
package "  "  as java.io {
}
package "  "  as java.util {
}

[tictactoeClient.jar] as jarClient

jarClient *- -> tictactoe
jarClient *- -> tictactoe.distributed
jarClient *- -> tictactoe.distributed.dispatchers
jarClient *- -> tictactoe.distributed.dispatchers.errors
jarClient *- -> tictactoe.distributed.dispatchers.save
jarClient *- -> tictactoe.distributed.dispatchers.undoredo
jarClient *- -> tictactoe.models
jarClient *- -> tictactoe.controllers
jarClient *- -> tictactoe.controllers.implementation
jarClient *- -> tictactoe.views
jarClient *- -> tictactoe.views.menus
jarClient *- -> tictactoe.views.models
jarClient *- -> tictactoe.views.models.DAO
jarClient *- -> utils
jarClient *- -> java.io
jarClient *- -> java.util

@enduml

PlantUML version 1.2020.15(Sun Jun 28 13:39:45 CEST 2020)
(GPL source distribution)
Java Runtime: Java(TM) SE Runtime Environment
JVM: Java HotSpot(TM) 64-Bit Server VM
Default Encoding: windows-1252
Language: es
Country: ES
--></g></svg>