<?xml version="1.0" encoding="UTF-8" standalone="no"?><svg xmlns="http://www.w3.org/2000/svg" xmlns:xlink="http://www.w3.org/1999/xlink" contentScriptType="application/ecmascript" contentStyleType="text/css" height="167px" preserveAspectRatio="none" style="width:2226px;height:167px;" version="1.1" viewBox="0 0 2226 167" width="2226px" zoomAndPan="magnify"><defs><filter height="300%" id="f1owjasudixqmm" width="300%" x="-1" y="-1"><feGaussianBlur result="blurOut" stdDeviation="2.0"/><feColorMatrix in="blurOut" result="blurOut2" type="matrix" values="0 0 0 0 0 0 0 0 0 0 0 0 0 0 0 0 0 0 .4 0"/><feOffset dx="4.0" dy="4.0" in="blurOut2" result="blurOut3"/><feBlend in="SourceGraphic" in2="blurOut3" mode="normal"/></filter></defs><g><!--MD5=[483b12a8a4a1981ac5430bdda5fd5916]
entity tictactoe--><polygon fill="#FFFFFF" filter="url(#f1owjasudixqmm)" points="16,115,83,115,90,138.6094,107,138.6094,107,155.6094,16,155.6094,16,115" style="stroke: #000000; stroke-width: 1.5;"/><line style="stroke: #000000; stroke-width: 1.5;" x1="16" x2="90" y1="138.6094" y2="138.6094"/><text fill="#000000" font-family="sans-serif" font-size="14" font-weight="bold" lengthAdjust="spacingAndGlyphs" textLength="61" x="20" y="132.5332">tictactoe</text><!--MD5=[bc6102f5c7110c2c1c7ba872ac02f333]
entity tictactoe.distributed--><polygon fill="#FFFFFF" filter="url(#f1owjasudixqmm)" points="142.5,115,290.5,115,297.5,138.6094,314.5,138.6094,314.5,155.6094,142.5,155.6094,142.5,115" style="stroke: #000000; stroke-width: 1.5;"/><line style="stroke: #000000; stroke-width: 1.5;" x1="142.5" x2="297.5" y1="138.6094" y2="138.6094"/><text fill="#000000" font-family="sans-serif" font-size="14" font-weight="bold" lengthAdjust="spacingAndGlyphs" textLength="142" x="146.5" y="132.5332">tictactoe.distributed</text><!--MD5=[4420d1aeeaa1c084ae374c955337ed05]
entity tictactoe.distributed.dispatchers--><polygon fill="#FFFFFF" filter="url(#f1owjasudixqmm)" points="350,115,585,115,592,138.6094,609,138.6094,609,155.6094,350,155.6094,350,115" style="stroke: #000000; stroke-width: 1.5;"/><line style="stroke: #000000; stroke-width: 1.5;" x1="350" x2="592" y1="138.6094" y2="138.6094"/><text fill="#000000" font-family="sans-serif" font-size="14" font-weight="bold" lengthAdjust="spacingAndGlyphs" textLength="229" x="354" y="132.5332">tictactoe.distributed.dispatchers</text><!--MD5=[daad211c4573dbe60b33f42b7411f08f]
entity tictactoe.distributed.dispatchers.errors--><polygon fill="#FFFFFF" filter="url(#f1owjasudixqmm)" points="644,115,927,115,934,138.6094,951,138.6094,951,155.6094,644,155.6094,644,115" style="stroke: #000000; stroke-width: 1.5;"/><line style="stroke: #000000; stroke-width: 1.5;" x1="644" x2="934" y1="138.6094" y2="138.6094"/><text fill="#000000" font-family="sans-serif" font-size="14" font-weight="bold" lengthAdjust="spacingAndGlyphs" textLength="277" x="648" y="132.5332">tictactoe.distributed.dispatchers.errors</text><!--MD5=[73744e03def399d5559d0b91fa4d2d9b]
entity tictactoe.distributed.dispatchers.undoredo--><polygon fill="#FFFFFF" filter="url(#f1owjasudixqmm)" points="986.5,115,1294.5,115,1301.5,138.6094,1318.5,138.6094,1318.5,155.6094,986.5,155.6094,986.5,115" style="stroke: #000000; stroke-width: 1.5;"/><line style="stroke: #000000; stroke-width: 1.5;" x1="986.5" x2="1301.5" y1="138.6094" y2="138.6094"/><text fill="#000000" font-family="sans-serif" font-size="14" font-weight="bold" lengthAdjust="spacingAndGlyphs" textLength="302" x="990.5" y="132.5332">tictactoe.distributed.dispatchers.undoredo</text><!--MD5=[21ee9191f94b37e164ce8850dd375de6]
entity tictactoe.models--><polygon fill="#FFFFFF" filter="url(#f1owjasudixqmm)" points="1353.5,115,1475.5,115,1482.5,138.6094,1499.5,138.6094,1499.5,155.6094,1353.5,155.6094,1353.5,115" style="stroke: #000000; stroke-width: 1.5;"/><line style="stroke: #000000; stroke-width: 1.5;" x1="1353.5" x2="1482.5" y1="138.6094" y2="138.6094"/><text fill="#000000" font-family="sans-serif" font-size="14" font-weight="bold" lengthAdjust="spacingAndGlyphs" textLength="116" x="1357.5" y="132.5332">tictactoe.models</text><!--MD5=[d35223fd8f7d7c99496ee8d9b067ffdf]
entity tictactoe.controllers--><polygon fill="#FFFFFF" filter="url(#f1owjasudixqmm)" points="1534.5,115,1682.5,115,1689.5,138.6094,1706.5,138.6094,1706.5,155.6094,1534.5,155.6094,1534.5,115" style="stroke: #000000; stroke-width: 1.5;"/><line style="stroke: #000000; stroke-width: 1.5;" x1="1534.5" x2="1689.5" y1="138.6094" y2="138.6094"/><text fill="#000000" font-family="sans-serif" font-size="14" font-weight="bold" lengthAdjust="spacingAndGlyphs" textLength="142" x="1538.5" y="132.5332">tictactoe.controllers</text><!--MD5=[170e9aa8a7c5483a45070c603c759464]
entity tictactoe.views--><polygon fill="#FFFFFF" filter="url(#f1owjasudixqmm)" points="1741.5,115,1853.5,115,1860.5,138.6094,1877.5,138.6094,1877.5,155.6094,1741.5,155.6094,1741.5,115" style="stroke: #000000; stroke-width: 1.5;"/><line style="stroke: #000000; stroke-width: 1.5;" x1="1741.5" x2="1860.5" y1="138.6094" y2="138.6094"/><text fill="#000000" font-family="sans-serif" font-size="14" font-weight="bold" lengthAdjust="spacingAndGlyphs" textLength="106" x="1745.5" y="132.5332">tictactoe.views</text><!--MD5=[815e17c207bbf712f7f26918c1feb6f8]
entity utils--><polygon fill="#FFFFFF" filter="url(#f1owjasudixqmm)" points="1912.5,115,1948.5,115,1955.5,138.6094,1972.5,138.6094,1972.5,155.6094,1912.5,155.6094,1912.5,115" style="stroke: #000000; stroke-width: 1.5;"/><line style="stroke: #000000; stroke-width: 1.5;" x1="1912.5" x2="1955.5" y1="138.6094" y2="138.6094"/><text fill="#000000" font-family="sans-serif" font-size="14" font-weight="bold" lengthAdjust="spacingAndGlyphs" textLength="30" x="1916.5" y="132.5332">utils</text><!--MD5=[48fa9072fd51d9920e6db8484beec696]
entity java.io--><polygon fill="#FFFFFF" filter="url(#f1owjasudixqmm)" points="2007.5,115,2059.5,115,2066.5,138.6094,2083.5,138.6094,2083.5,155.6094,2007.5,155.6094,2007.5,115" style="stroke: #000000; stroke-width: 1.5;"/><line style="stroke: #000000; stroke-width: 1.5;" x1="2007.5" x2="2066.5" y1="138.6094" y2="138.6094"/><text fill="#000000" font-family="sans-serif" font-size="14" font-weight="bold" lengthAdjust="spacingAndGlyphs" textLength="46" x="2011.5" y="132.5332">java.io</text><!--MD5=[034f0f7ed136bf78fc117f7e41f76e93]
entity java.util--><polygon fill="#FFFFFF" filter="url(#f1owjasudixqmm)" points="2119,115,2180,115,2187,138.6094,2204,138.6094,2204,155.6094,2119,155.6094,2119,115" style="stroke: #000000; stroke-width: 1.5;"/><line style="stroke: #000000; stroke-width: 1.5;" x1="2119" x2="2187" y1="138.6094" y2="138.6094"/><text fill="#000000" font-family="sans-serif" font-size="14" font-weight="bold" lengthAdjust="spacingAndGlyphs" textLength="55" x="2123" y="132.5332">java.util</text><!--MD5=[a6a51606d0752e41353840c3c1bca06a]
entity jarClient--><rect fill="#FEFECE" filter="url(#f1owjasudixqmm)" height="47.6094" style="stroke: #A80036; stroke-width: 1.5;" width="149" x="1352" y="7"/><rect fill="#FEFECE" height="10" style="stroke: #A80036; stroke-width: 1.5;" width="15" x="1481" y="12"/><rect fill="#FEFECE" height="2" style="stroke: #A80036; stroke-width: 1.5;" width="4" x="1479" y="14"/><rect fill="#FEFECE" height="2" style="stroke: #A80036; stroke-width: 1.5;" width="4" x="1479" y="18"/><text fill="#000000" font-family="sans-serif" font-size="14" lengthAdjust="spacingAndGlyphs" textLength="109" x="1367" y="41.5332">tictactoeClient.jar</text><!--MD5=[457bb6843a8d1c875ab27d0179ab8782]
link jarClient to tictactoe--><path d="M1339.697,34.8518 C1339.697,34.8518 358.53,71.9502 124.5,115 C123.004,115.2751 121.495,115.5741 119.976,115.8939 " fill="none" id="jarClient-tictactoe" style="stroke: #A80036; stroke-width: 1.0;"/><polygon fill="#A80036" points="107.2918,118.9529,116.9787,120.7319,112.1525,117.7809,115.1035,112.9548,107.2918,118.9529" style="stroke: #A80036; stroke-width: 1.0;"/><line style="stroke: #A80036; stroke-width: 1.0;" x1="112.1525" x2="119.9295" y1="117.7809" y2="115.905"/><polygon fill="#A80036" points="1351.69,34.443,1345.5572,30.6497,1339.697,34.8518,1345.8298,38.6451,1351.69,34.443" style="stroke: #A80036; stroke-width: 1.0;"/><!--MD5=[66bcfc51c11ee705829a2a0e89376480]
link jarClient to tictactoe.distributed--><path d="M1339.9405,35.3371 C1339.9405,35.3371 704.861,66.1156 332.5,115 C330.861,115.2152 329.208,115.4394 327.545,115.6716 " fill="none" id="jarClient-tictactoe.distributed" style="stroke: #A80036; stroke-width: 1.0;"/><polygon fill="#A80036" points="314.644,117.5954,324.1355,120.2244,319.5893,116.858,322.9557,112.3119,314.644,117.5954" style="stroke: #A80036; stroke-width: 1.0;"/><line style="stroke: #A80036; stroke-width: 1.0;" x1="319.5893" x2="327.502" y1="116.858" y2="115.6781"/><polygon fill="#A80036" points="1351.93,34.836,1345.7682,31.09,1339.9405,35.3371,1346.1023,39.0831,1351.93,34.836" style="stroke: #A80036; stroke-width: 1.0;"/><!--MD5=[16c52a86c8b83105508491ca417863e6]
link jarClient to tictactoe.distributed.dispatchers--><path d="M1340.025,40.1642 C1340.025,40.1642 885.021,84.4487 626.5,115 C625.094,115.1662 623.68,115.3342 622.26,115.504 " fill="none" id="jarClient-tictactoe.distributed.dispatchers" style="stroke: #A80036; stroke-width: 1.0;"/><polygon fill="#A80036" points="609.331,117.0734,618.7476,119.9593,614.2945,116.4707,617.7832,112.0176,609.331,117.0734" style="stroke: #A80036; stroke-width: 1.0;"/><line style="stroke: #A80036; stroke-width: 1.0;" x1="614.2945" x2="622.2365" y1="116.4707" y2="115.5068"/><polygon fill="#A80036" points="1351.97,39.017,1345.6151,35.6089,1340.025,40.1642,1346.3799,43.5723,1351.97,39.017" style="stroke: #A80036; stroke-width: 1.0;"/><!--MD5=[ab368545b17553a6613fe3c5925fbf4e]
link jarClient to tictactoe.distributed.dispatchers.errors--><path d="M1340.0376,46.0994 C1340.0376,46.0994 1053.33,92.811 930.277,112.863 " fill="none" id="jarClient-tictactoe.distributed.dispatchers.errors" style="stroke: #A80036; stroke-width: 1.0;"/><polygon fill="#A80036" points="917.431,114.9564,926.9573,117.4564,922.3659,114.152,925.6703,109.5606,917.431,114.9564" style="stroke: #A80036; stroke-width: 1.0;"/><line style="stroke: #A80036; stroke-width: 1.0;" x1="922.3659" x2="930.262" y1="114.152" y2="112.8655"/><polygon fill="#A80036" points="1351.88,44.161,1345.3127,41.1827,1340.0376,46.0994,1346.6049,49.0776,1351.88,44.161" style="stroke: #A80036; stroke-width: 1.0;"/><!--MD5=[fd630eba4eaee002b466186ef5ed5f03]
link jarClient to tictactoe.distributed.dispatchers.undoredo--><path d="M1353.7713,59.2092 C1353.7713,59.2092 1257.93,95.0587 1217.24,110.2804 " fill="none" id="jarClient-tictactoe.distributed.dispatchers.undoredo" style="stroke: #A80036; stroke-width: 1.0;"/><polygon fill="#A80036" points="1205.02,114.8521,1214.8511,115.4435,1209.7028,113.0995,1212.0468,107.9511,1205.02,114.8521" style="stroke: #A80036; stroke-width: 1.0;"/><line style="stroke: #A80036; stroke-width: 1.0;" x1="1209.7028" x2="1217.195" y1="113.0995" y2="110.2972"/><polygon fill="#A80036" points="1365.01,55.003,1357.9886,53.3599,1353.7713,59.2092,1360.7927,60.8523,1365.01,55.003" style="stroke: #A80036; stroke-width: 1.0;"/><!--MD5=[31812314a6084e7a4254d0191fed9e96]
link jarClient to tictactoe.models--><path d="M1426.5,67.003 C1426.5,67.003 1426.5,90.8564 1426.5,101.535 " fill="none" id="jarClient-tictactoe.models" style="stroke: #A80036; stroke-width: 1.0;"/><polygon fill="#A80036" points="1426.5,114.6838,1430.5,105.6838,1426.5,109.6838,1422.5,105.6838,1426.5,114.6838" style="stroke: #A80036; stroke-width: 1.0;"/><line style="stroke: #A80036; stroke-width: 1.0;" x1="1426.5" x2="1426.5" y1="109.6838" y2="101.6838"/><polygon fill="#A80036" points="1426.5,55.003,1422.5,61.003,1426.5,67.003,1430.5,61.003,1426.5,55.003" style="stroke: #A80036; stroke-width: 1.0;"/><!--MD5=[198b31a385eb23d499dd602faf4cb0cb]
link jarClient to tictactoe.controllers--><path d="M1480.6507,60.6077 C1480.6507,60.6077 1544.25,94.2134 1571.64,108.6868 " fill="none" id="jarClient-tictactoe.controllers" style="stroke: #A80036; stroke-width: 1.0;"/><polygon fill="#A80036" points="1583.31,114.8521,1577.2202,107.1117,1578.8889,112.5168,1573.4837,114.1855,1583.31,114.8521" style="stroke: #A80036; stroke-width: 1.0;"/><line style="stroke: #A80036; stroke-width: 1.0;" x1="1578.8889" x2="1571.815" y1="112.5168" y2="108.779"/><polygon fill="#A80036" points="1470.04,55.003,1473.4771,61.3423,1480.6507,60.6077,1477.2136,54.2685,1470.04,55.003" style="stroke: #A80036; stroke-width: 1.0;"/><!--MD5=[07c489bc016c3a24be9a3f4c6581f7c3]
link jarClient to tictactoe.views--><path d="M1512.8529,55.1051 C1512.8529,55.1051 1665.72,96.0222 1728.7,112.8769 " fill="none" id="jarClient-tictactoe.views" style="stroke: #A80036; stroke-width: 1.0;"/><polygon fill="#A80036" points="1741.36,116.2637,1733.7049,110.0669,1736.531,114.9673,1731.6307,117.7933,1741.36,116.2637" style="stroke: #A80036; stroke-width: 1.0;"/><line style="stroke: #A80036; stroke-width: 1.0;" x1="1736.531" x2="1728.8" y1="114.9673" y2="112.9028"/><polygon fill="#A80036" points="1501.26,52.006,1506.0234,57.4199,1512.8529,55.1051,1508.0895,49.6913,1501.26,52.006" style="stroke: #A80036; stroke-width: 1.0;"/><!--MD5=[bea9f559fd90f465a2e8608ffbd4001a]
link jarClient to utils--><path d="M1513.0704,41.5757 C1513.0704,41.5757 1765.3,76.9659 1895.5,115 C1896.96,115.4277 1898.44,115.8864 1899.93,116.37 " fill="none" id="jarClient-utils" style="stroke: #A80036; stroke-width: 1.0;"/><polygon fill="#A80036" points="1912.26,120.8219,1905.1602,113.996,1907.5589,119.1191,1902.4358,121.5178,1912.26,120.8219" style="stroke: #A80036; stroke-width: 1.0;"/><line style="stroke: #A80036; stroke-width: 1.0;" x1="1907.5589" x2="1900.03" y1="119.1191" y2="116.405"/><polygon fill="#A80036" points="1501.16,40.112,1506.6273,44.814,1513.0704,41.5757,1507.6031,36.8737,1501.16,40.112" style="stroke: #A80036; stroke-width: 1.0;"/><!--MD5=[4b52c1cb0b8f7e02453e64ac4b9d7029]
link jarClient to java.io--><path d="M1513.245,39.4822 C1513.245,39.4822 1824.82,73.8546 1990.5,115 C1991.88,115.3418 1993.27,115.7046 1994.67,116.085 " fill="none" id="jarClient-java.io" style="stroke: #A80036; stroke-width: 1.0;"/><polygon fill="#A80036" points="2007.33,119.8948,1999.8629,113.4728,2002.5417,118.4551,1997.5594,121.134,2007.33,119.8948" style="stroke: #A80036; stroke-width: 1.0;"/><line style="stroke: #A80036; stroke-width: 1.0;" x1="2002.5417" x2="1994.88" y1="118.4551" y2="116.1487"/><polygon fill="#A80036" points="1501.3,38.335,1506.8901,42.8903,1513.245,39.4822,1507.6549,34.9269,1501.3,38.335" style="stroke: #A80036; stroke-width: 1.0;"/><!--MD5=[c235450950c0b3c493f4fd848123fa72]
link jarClient to java.util--><path d="M1513.1712,37.3178 C1513.1712,37.3178 1893.87,68.9431 2101.5,115 C2103.01,115.3339 2104.53,115.6901 2106.06,116.0651 " fill="none" id="jarClient-java.util" style="stroke: #A80036; stroke-width: 1.0;"/><polygon fill="#A80036" points="2118.84,119.5328,2111.2061,113.3099,2114.0154,118.2199,2109.1055,121.0292,2118.84,119.5328" style="stroke: #A80036; stroke-width: 1.0;"/><line style="stroke: #A80036; stroke-width: 1.0;" x1="2114.0154" x2="2106.295" y1="118.2199" y2="116.1293"/><polygon fill="#A80036" points="1501.2,36.487,1506.9087,40.8928,1513.1712,37.3178,1507.4625,32.912,1501.2,36.487" style="stroke: #A80036; stroke-width: 1.0;"/><!--MD5=[38e5850421f1d0d7ff5160249ac3a58c]
@startuml

package "  "  as tictactoe {
}
package "  "  as tictactoe.distributed {
}
package "  "  as tictactoe.distributed.dispatchers {
}
package "  "  as tictactoe.distributed.dispatchers.errors {
}
package "  "  as tictactoe.distributed.dispatchers.undoredo {
}
package "  "  as tictactoe.models {
}
package "  "  as tictactoe.controllers {
}
package "  "  as tictactoe.views {
}
package "  "  as utils {
}
package "  "  as java.io {
}
package "  "  as java.util {
}

[tictactoeClient.jar] as jarClient

jarClient *- -> tictactoe
jarClient *- -> tictactoe.distributed
jarClient *- -> tictactoe.distributed.dispatchers
jarClient *- -> tictactoe.distributed.dispatchers.errors
jarClient *- -> tictactoe.distributed.dispatchers.undoredo
jarClient *- -> tictactoe.models
jarClient *- -> tictactoe.controllers
jarClient *- -> tictactoe.views
jarClient *- -> utils
jarClient *- -> java.io
jarClient *- -> java.util

@enduml

PlantUML version 1.2020.15(Sun Jun 28 13:39:45 CEST 2020)
(GPL source distribution)
Java Runtime: Java(TM) SE Runtime Environment
JVM: Java HotSpot(TM) 64-Bit Server VM
Default Encoding: windows-1252
Language: es
Country: ES
--></g></svg>