<?xml version="1.0" encoding="UTF-8" standalone="no"?><svg xmlns="http://www.w3.org/2000/svg" xmlns:xlink="http://www.w3.org/1999/xlink" contentScriptType="application/ecmascript" contentStyleType="text/css" height="167px" preserveAspectRatio="none" style="width:1222px;height:167px;" version="1.1" viewBox="0 0 1222 167" width="1222px" zoomAndPan="magnify"><defs><filter height="300%" id="f7enjjv4i28iz" width="300%" x="-1" y="-1"><feGaussianBlur result="blurOut" stdDeviation="2.0"/><feColorMatrix in="blurOut" result="blurOut2" type="matrix" values="0 0 0 0 0 0 0 0 0 0 0 0 0 0 0 0 0 0 .4 0"/><feOffset dx="4.0" dy="4.0" in="blurOut2" result="blurOut3"/><feBlend in="SourceGraphic" in2="blurOut3" mode="normal"/></filter></defs><g><!--MD5=[483b12a8a4a1981ac5430bdda5fd5916]
entity tictactoe--><polygon fill="#FFFFFF" filter="url(#f7enjjv4i28iz)" points="16,115,83,115,90,138.6094,107,138.6094,107,155.6094,16,155.6094,16,115" style="stroke: #000000; stroke-width: 1.5;"/><line style="stroke: #000000; stroke-width: 1.5;" x1="16" x2="90" y1="138.6094" y2="138.6094"/><text fill="#000000" font-family="sans-serif" font-size="14" font-weight="bold" lengthAdjust="spacingAndGlyphs" textLength="61" x="20" y="132.5332">tictactoe</text><!--MD5=[bc6102f5c7110c2c1c7ba872ac02f333]
entity tictactoe.distributed--><polygon fill="#FFFFFF" filter="url(#f7enjjv4i28iz)" points="142.5,115,290.5,115,297.5,138.6094,314.5,138.6094,314.5,155.6094,142.5,155.6094,142.5,115" style="stroke: #000000; stroke-width: 1.5;"/><line style="stroke: #000000; stroke-width: 1.5;" x1="142.5" x2="297.5" y1="138.6094" y2="138.6094"/><text fill="#000000" font-family="sans-serif" font-size="14" font-weight="bold" lengthAdjust="spacingAndGlyphs" textLength="142" x="146.5" y="132.5332">tictactoe.distributed</text><!--MD5=[21ee9191f94b37e164ce8850dd375de6]
entity tictactoe.models--><polygon fill="#FFFFFF" filter="url(#f7enjjv4i28iz)" points="349.5,115,471.5,115,478.5,138.6094,495.5,138.6094,495.5,155.6094,349.5,155.6094,349.5,115" style="stroke: #000000; stroke-width: 1.5;"/><line style="stroke: #000000; stroke-width: 1.5;" x1="349.5" x2="478.5" y1="138.6094" y2="138.6094"/><text fill="#000000" font-family="sans-serif" font-size="14" font-weight="bold" lengthAdjust="spacingAndGlyphs" textLength="116" x="353.5" y="132.5332">tictactoe.models</text><!--MD5=[d35223fd8f7d7c99496ee8d9b067ffdf]
entity tictactoe.controllers--><polygon fill="#FFFFFF" filter="url(#f7enjjv4i28iz)" points="530.5,115,678.5,115,685.5,138.6094,702.5,138.6094,702.5,155.6094,530.5,155.6094,530.5,115" style="stroke: #000000; stroke-width: 1.5;"/><line style="stroke: #000000; stroke-width: 1.5;" x1="530.5" x2="685.5" y1="138.6094" y2="138.6094"/><text fill="#000000" font-family="sans-serif" font-size="14" font-weight="bold" lengthAdjust="spacingAndGlyphs" textLength="142" x="534.5" y="132.5332">tictactoe.controllers</text><!--MD5=[170e9aa8a7c5483a45070c603c759464]
entity tictactoe.views--><polygon fill="#FFFFFF" filter="url(#f7enjjv4i28iz)" points="737.5,115,849.5,115,856.5,138.6094,873.5,138.6094,873.5,155.6094,737.5,155.6094,737.5,115" style="stroke: #000000; stroke-width: 1.5;"/><line style="stroke: #000000; stroke-width: 1.5;" x1="737.5" x2="856.5" y1="138.6094" y2="138.6094"/><text fill="#000000" font-family="sans-serif" font-size="14" font-weight="bold" lengthAdjust="spacingAndGlyphs" textLength="106" x="741.5" y="132.5332">tictactoe.views</text><!--MD5=[815e17c207bbf712f7f26918c1feb6f8]
entity utils--><polygon fill="#FFFFFF" filter="url(#f7enjjv4i28iz)" points="908.5,115,944.5,115,951.5,138.6094,968.5,138.6094,968.5,155.6094,908.5,155.6094,908.5,115" style="stroke: #000000; stroke-width: 1.5;"/><line style="stroke: #000000; stroke-width: 1.5;" x1="908.5" x2="951.5" y1="138.6094" y2="138.6094"/><text fill="#000000" font-family="sans-serif" font-size="14" font-weight="bold" lengthAdjust="spacingAndGlyphs" textLength="30" x="912.5" y="132.5332">utils</text><!--MD5=[48fa9072fd51d9920e6db8484beec696]
entity java.io--><polygon fill="#FFFFFF" filter="url(#f7enjjv4i28iz)" points="1003.5,115,1055.5,115,1062.5,138.6094,1079.5,138.6094,1079.5,155.6094,1003.5,155.6094,1003.5,115" style="stroke: #000000; stroke-width: 1.5;"/><line style="stroke: #000000; stroke-width: 1.5;" x1="1003.5" x2="1062.5" y1="138.6094" y2="138.6094"/><text fill="#000000" font-family="sans-serif" font-size="14" font-weight="bold" lengthAdjust="spacingAndGlyphs" textLength="46" x="1007.5" y="132.5332">java.io</text><!--MD5=[034f0f7ed136bf78fc117f7e41f76e93]
entity java.util--><polygon fill="#FFFFFF" filter="url(#f7enjjv4i28iz)" points="1115,115,1176,115,1183,138.6094,1200,138.6094,1200,155.6094,1115,155.6094,1115,115" style="stroke: #000000; stroke-width: 1.5;"/><line style="stroke: #000000; stroke-width: 1.5;" x1="1115" x2="1183" y1="138.6094" y2="138.6094"/><text fill="#000000" font-family="sans-serif" font-size="14" font-weight="bold" lengthAdjust="spacingAndGlyphs" textLength="55" x="1119" y="132.5332">java.util</text><!--MD5=[a6a51606d0752e41353840c3c1bca06a]
entity jarClient--><rect fill="#FEFECE" filter="url(#f7enjjv4i28iz)" height="47.6094" style="stroke: #A80036; stroke-width: 1.5;" width="149" x="636" y="7"/><rect fill="#FEFECE" height="10" style="stroke: #A80036; stroke-width: 1.5;" width="15" x="765" y="12"/><rect fill="#FEFECE" height="2" style="stroke: #A80036; stroke-width: 1.5;" width="4" x="763" y="14"/><rect fill="#FEFECE" height="2" style="stroke: #A80036; stroke-width: 1.5;" width="4" x="763" y="18"/><text fill="#000000" font-family="sans-serif" font-size="14" lengthAdjust="spacingAndGlyphs" textLength="109" x="651" y="41.5332">tictactoeClient.jar</text><!--MD5=[457bb6843a8d1c875ab27d0179ab8782]
link jarClient to tictactoe--><path d="M623.8683,39.9085 C623.8683,39.9085 299.068,75.8831 124.5,115 C122.897,115.3591 121.277,115.7392 119.645,116.1367 " fill="none" id="jarClient-tictactoe" style="stroke: #A80036; stroke-width: 1.0;"/><polygon fill="#A80036" points="107.0338,119.4696,116.7571,121.0374,111.8679,118.1921,114.7131,113.3029,107.0338,119.4696" style="stroke: #A80036; stroke-width: 1.0;"/><line style="stroke: #A80036; stroke-width: 1.0;" x1="111.8679" x2="119.6025" y1="118.1921" y2="116.1479"/><polygon fill="#A80036" points="635.81,38.727,629.4453,35.3372,623.8683,39.9085,630.233,43.2983,635.81,38.727" style="stroke: #A80036; stroke-width: 1.0;"/><!--MD5=[66bcfc51c11ee705829a2a0e89376480]
link jarClient to tictactoe.distributed--><path d="M624.2425,50.3432 C624.2425,50.3432 414.355,94.977 327.367,113.4753 " fill="none" id="jarClient-tictactoe.distributed" style="stroke: #A80036; stroke-width: 1.0;"/><polygon fill="#A80036" points="314.554,116.2002,324.1892,118.2405,319.4446,115.1601,322.525,110.4155,314.554,116.2002" style="stroke: #A80036; stroke-width: 1.0;"/><line style="stroke: #A80036; stroke-width: 1.0;" x1="319.4446" x2="327.2695" y1="115.1601" y2="113.496"/><polygon fill="#A80036" points="635.98,47.847,629.2792,45.1826,624.2425,50.3432,630.9433,53.0076,635.98,47.847" style="stroke: #A80036; stroke-width: 1.0;"/><!--MD5=[31812314a6084e7a4254d0191fed9e96]
link jarClient to tictactoe.models--><path d="M634.5615,59.0262 C634.5615,59.0262 532.967,95.1844 490.026,110.4674 " fill="none" id="jarClient-tictactoe.models" style="stroke: #A80036; stroke-width: 1.0;"/><polygon fill="#A80036" points="477.706,114.8521,487.5262,115.6031,482.4166,113.1757,484.844,108.0661,477.706,114.8521" style="stroke: #A80036; stroke-width: 1.0;"/><line style="stroke: #A80036; stroke-width: 1.0;" x1="482.4166" x2="489.9535" y1="113.1757" y2="110.4931"/><polygon fill="#A80036" points="645.867,55.003,638.8732,53.2461,634.5615,59.0262,641.5553,60.7831,645.867,55.003" style="stroke: #A80036; stroke-width: 1.0;"/><!--MD5=[198b31a385eb23d499dd602faf4cb0cb]
link jarClient to tictactoe.controllers--><path d="M681.2938,63.8466 C681.2938,63.8466 655.274,92.2199 643.79,104.742 " fill="none" id="jarClient-tictactoe.controllers" style="stroke: #A80036; stroke-width: 1.0;"/><polygon fill="#A80036" points="634.673,114.6838,643.7039,110.7542,638.0524,110.9987,637.8078,105.3472,634.673,114.6838" style="stroke: #A80036; stroke-width: 1.0;"/><line style="stroke: #A80036; stroke-width: 1.0;" x1="638.0524" x2="643.4595" y1="110.9987" y2="105.1027"/><polygon fill="#A80036" points="689.405,55.003,682.4016,56.7211,681.2938,63.8466,688.2973,62.1285,689.405,55.003" style="stroke: #A80036; stroke-width: 1.0;"/><!--MD5=[07c489bc016c3a24be9a3f4c6581f7c3]
link jarClient to tictactoe.views--><path d="M739.9773,63.804 C739.9773,63.804 766.585,92.5123 778.267,105.117 " fill="none" id="jarClient-tictactoe.views" style="stroke: #A80036; stroke-width: 1.0;"/><polygon fill="#A80036" points="787.134,114.6838,783.9497,105.3639,783.7351,111.0167,778.0824,110.8021,787.134,114.6838" style="stroke: #A80036; stroke-width: 1.0;"/><line style="stroke: #A80036; stroke-width: 1.0;" x1="783.7351" x2="778.297" y1="111.0167" y2="105.1492"/><polygon fill="#A80036" points="731.82,55.003,732.965,62.1226,739.9773,63.804,738.8323,56.6844,731.82,55.003" style="stroke: #A80036; stroke-width: 1.0;"/><!--MD5=[bea9f559fd90f465a2e8608ffbd4001a]
link jarClient to utils--><path d="M772.613,59.923 C772.613,59.923 862.099,100.1529 896.506,115.6211 " fill="none" id="jarClient-utils" style="stroke: #A80036; stroke-width: 1.0;"/><polygon fill="#A80036" points="908.466,120.9978,901.898,113.6588,903.9058,118.9473,898.6172,120.9551,908.466,120.9978" style="stroke: #A80036; stroke-width: 1.0;"/><line style="stroke: #A80036; stroke-width: 1.0;" x1="903.9058" x2="896.609" y1="118.9473" y2="115.6674"/><polygon fill="#A80036" points="761.668,55.003,765.5005,61.1114,772.613,59.923,768.7805,53.8147,761.668,55.003" style="stroke: #A80036; stroke-width: 1.0;"/><!--MD5=[4b52c1cb0b8f7e02453e64ac4b9d7029]
link jarClient to java.io--><path d="M796.7112,56.7576 C796.7112,56.7576 923.767,94.4599 986.5,115 C987.958,115.4773 989.435,115.9663 990.926,116.4641 " fill="none" id="jarClient-java.io" style="stroke: #A80036; stroke-width: 1.0;"/><polygon fill="#A80036" points="1003.414,120.7271,996.1889,114.0339,998.6821,119.1117,993.6043,121.6049,1003.414,120.7271" style="stroke: #A80036; stroke-width: 1.0;"/><line style="stroke: #A80036; stroke-width: 1.0;" x1="998.6821" x2="991.111" y1="119.1117" y2="116.5275"/><polygon fill="#A80036" points="785.192,53.395,789.8308,58.916,796.7112,56.7576,792.0725,51.2365,785.192,53.395" style="stroke: #A80036; stroke-width: 1.0;"/><!--MD5=[c235450950c0b3c493f4fd848123fa72]
link jarClient to java.util--><path d="M797.0223,47.9086 C797.0223,47.9086 995.671,87.611 1097.5,115 C1098.99,115.4005 1100.5,115.8159 1102.01,116.2434 " fill="none" id="jarClient-java.util" style="stroke: #A80036; stroke-width: 1.0;"/><polygon fill="#A80036" points="1114.73,120.0057,1107.2335,113.618,1109.9352,118.588,1104.9652,121.2897,1114.73,120.0057" style="stroke: #A80036; stroke-width: 1.0;"/><line style="stroke: #A80036; stroke-width: 1.0;" x1="1109.9352" x2="1102.26" y1="118.588" y2="116.3162"/><polygon fill="#A80036" points="785.235,45.659,790.3788,50.7129,797.0223,47.9086,791.8785,42.8547,785.235,45.659" style="stroke: #A80036; stroke-width: 1.0;"/><!--MD5=[9d577aad35e633f179c3acaba9c2b1a1]
@startuml

package "  "  as tictactoe {
}
package "  "  as tictactoe.distributed {
}
package "  "  as tictactoe.models {
}
package "  "  as tictactoe.controllers {
}
package "  "  as tictactoe.views {
}
package "  "  as utils {
}
package "  "  as java.io {
}
package "  "  as java.util {
}

[tictactoeClient.jar] as jarClient

jarClient *- -> tictactoe
jarClient *- -> tictactoe.distributed
jarClient *- -> tictactoe.models
jarClient *- -> tictactoe.controllers
jarClient *- -> tictactoe.views
jarClient *- -> utils
jarClient *- -> java.io
jarClient *- -> java.util

@enduml

PlantUML version 1.2020.15(Sun Jun 28 13:39:45 CEST 2020)
(GPL source distribution)
Java Runtime: Java(TM) SE Runtime Environment
JVM: Java HotSpot(TM) 64-Bit Server VM
Default Encoding: windows-1252
Language: es
Country: ES
--></g></svg>