<?xml version="1.0" encoding="UTF-8" standalone="no"?><svg xmlns="http://www.w3.org/2000/svg" xmlns:xlink="http://www.w3.org/1999/xlink" contentScriptType="application/ecmascript" contentStyleType="text/css" height="167px" preserveAspectRatio="none" style="width:1541px;height:167px;" version="1.1" viewBox="0 0 1541 167" width="1541px" zoomAndPan="magnify"><defs><filter height="300%" id="f1r1ncvexd673y" width="300%" x="-1" y="-1"><feGaussianBlur result="blurOut" stdDeviation="2.0"/><feColorMatrix in="blurOut" result="blurOut2" type="matrix" values="0 0 0 0 0 0 0 0 0 0 0 0 0 0 0 0 0 0 .4 0"/><feOffset dx="4.0" dy="4.0" in="blurOut2" result="blurOut3"/><feBlend in="SourceGraphic" in2="blurOut3" mode="normal"/></filter></defs><g><!--MD5=[483b12a8a4a1981ac5430bdda5fd5916]
entity tictactoe--><polygon fill="#FFFFFF" filter="url(#f1r1ncvexd673y)" points="16,115,83,115,90,138.6094,107,138.6094,107,155.6094,16,155.6094,16,115" style="stroke: #000000; stroke-width: 1.5;"/><line style="stroke: #000000; stroke-width: 1.5;" x1="16" x2="90" y1="138.6094" y2="138.6094"/><text fill="#000000" font-family="sans-serif" font-size="14" font-weight="bold" lengthAdjust="spacingAndGlyphs" textLength="61" x="20" y="132.5332">tictactoe</text><!--MD5=[bc6102f5c7110c2c1c7ba872ac02f333]
entity tictactoe.distributed--><polygon fill="#FFFFFF" filter="url(#f1r1ncvexd673y)" points="142.5,115,290.5,115,297.5,138.6094,314.5,138.6094,314.5,155.6094,142.5,155.6094,142.5,115" style="stroke: #000000; stroke-width: 1.5;"/><line style="stroke: #000000; stroke-width: 1.5;" x1="142.5" x2="297.5" y1="138.6094" y2="138.6094"/><text fill="#000000" font-family="sans-serif" font-size="14" font-weight="bold" lengthAdjust="spacingAndGlyphs" textLength="142" x="146.5" y="132.5332">tictactoe.distributed</text><!--MD5=[21ee9191f94b37e164ce8850dd375de6]
entity tictactoe.models--><polygon fill="#FFFFFF" filter="url(#f1r1ncvexd673y)" points="349.5,115,471.5,115,478.5,138.6094,495.5,138.6094,495.5,155.6094,349.5,155.6094,349.5,115" style="stroke: #000000; stroke-width: 1.5;"/><line style="stroke: #000000; stroke-width: 1.5;" x1="349.5" x2="478.5" y1="138.6094" y2="138.6094"/><text fill="#000000" font-family="sans-serif" font-size="14" font-weight="bold" lengthAdjust="spacingAndGlyphs" textLength="116" x="353.5" y="132.5332">tictactoe.models</text><!--MD5=[d35223fd8f7d7c99496ee8d9b067ffdf]
entity tictactoe.controllers--><polygon fill="#FFFFFF" filter="url(#f1r1ncvexd673y)" points="530.5,115,678.5,115,685.5,138.6094,702.5,138.6094,702.5,155.6094,530.5,155.6094,530.5,115" style="stroke: #000000; stroke-width: 1.5;"/><line style="stroke: #000000; stroke-width: 1.5;" x1="530.5" x2="685.5" y1="138.6094" y2="138.6094"/><text fill="#000000" font-family="sans-serif" font-size="14" font-weight="bold" lengthAdjust="spacingAndGlyphs" textLength="142" x="534.5" y="132.5332">tictactoe.controllers</text><!--MD5=[4911aefd0c1747f0d800ce616c3836ce]
entity tictactoe.controllers.implementation--><polygon fill="#FFFFFF" filter="url(#f1r1ncvexd673y)" points="737.5,115,997.5,115,1004.5,138.6094,1021.5,138.6094,1021.5,155.6094,737.5,155.6094,737.5,115" style="stroke: #000000; stroke-width: 1.5;"/><line style="stroke: #000000; stroke-width: 1.5;" x1="737.5" x2="1004.5" y1="138.6094" y2="138.6094"/><text fill="#000000" font-family="sans-serif" font-size="14" font-weight="bold" lengthAdjust="spacingAndGlyphs" textLength="254" x="741.5" y="132.5332">tictactoe.controllers.implementation</text><!--MD5=[170e9aa8a7c5483a45070c603c759464]
entity tictactoe.views--><polygon fill="#FFFFFF" filter="url(#f1r1ncvexd673y)" points="1056.5,115,1168.5,115,1175.5,138.6094,1192.5,138.6094,1192.5,155.6094,1056.5,155.6094,1056.5,115" style="stroke: #000000; stroke-width: 1.5;"/><line style="stroke: #000000; stroke-width: 1.5;" x1="1056.5" x2="1175.5" y1="138.6094" y2="138.6094"/><text fill="#000000" font-family="sans-serif" font-size="14" font-weight="bold" lengthAdjust="spacingAndGlyphs" textLength="106" x="1060.5" y="132.5332">tictactoe.views</text><!--MD5=[815e17c207bbf712f7f26918c1feb6f8]
entity utils--><polygon fill="#FFFFFF" filter="url(#f1r1ncvexd673y)" points="1227.5,115,1263.5,115,1270.5,138.6094,1287.5,138.6094,1287.5,155.6094,1227.5,155.6094,1227.5,115" style="stroke: #000000; stroke-width: 1.5;"/><line style="stroke: #000000; stroke-width: 1.5;" x1="1227.5" x2="1270.5" y1="138.6094" y2="138.6094"/><text fill="#000000" font-family="sans-serif" font-size="14" font-weight="bold" lengthAdjust="spacingAndGlyphs" textLength="30" x="1231.5" y="132.5332">utils</text><!--MD5=[48fa9072fd51d9920e6db8484beec696]
entity java.io--><polygon fill="#FFFFFF" filter="url(#f1r1ncvexd673y)" points="1322.5,115,1374.5,115,1381.5,138.6094,1398.5,138.6094,1398.5,155.6094,1322.5,155.6094,1322.5,115" style="stroke: #000000; stroke-width: 1.5;"/><line style="stroke: #000000; stroke-width: 1.5;" x1="1322.5" x2="1381.5" y1="138.6094" y2="138.6094"/><text fill="#000000" font-family="sans-serif" font-size="14" font-weight="bold" lengthAdjust="spacingAndGlyphs" textLength="46" x="1326.5" y="132.5332">java.io</text><!--MD5=[034f0f7ed136bf78fc117f7e41f76e93]
entity java.util--><polygon fill="#FFFFFF" filter="url(#f1r1ncvexd673y)" points="1434,115,1495,115,1502,138.6094,1519,138.6094,1519,155.6094,1434,155.6094,1434,115" style="stroke: #000000; stroke-width: 1.5;"/><line style="stroke: #000000; stroke-width: 1.5;" x1="1434" x2="1502" y1="138.6094" y2="138.6094"/><text fill="#000000" font-family="sans-serif" font-size="14" font-weight="bold" lengthAdjust="spacingAndGlyphs" textLength="55" x="1438" y="132.5332">java.util</text><!--MD5=[a6a51606d0752e41353840c3c1bca06a]
entity jarClient--><rect fill="#FEFECE" filter="url(#f1r1ncvexd673y)" height="47.6094" style="stroke: #A80036; stroke-width: 1.5;" width="149" x="805" y="7"/><rect fill="#FEFECE" height="10" style="stroke: #A80036; stroke-width: 1.5;" width="15" x="934" y="12"/><rect fill="#FEFECE" height="2" style="stroke: #A80036; stroke-width: 1.5;" width="4" x="932" y="14"/><rect fill="#FEFECE" height="2" style="stroke: #A80036; stroke-width: 1.5;" width="4" x="932" y="18"/><text fill="#000000" font-family="sans-serif" font-size="14" lengthAdjust="spacingAndGlyphs" textLength="109" x="820" y="41.5332">tictactoeClient.jar</text><!--MD5=[457bb6843a8d1c875ab27d0179ab8782]
link jarClient to tictactoe--><path d="M792.8374,36.1496 C792.8374,36.1496 362.767,65.5009 124.5,115 C123.011,115.3093 121.507,115.639 119.994,115.9861 " fill="none" id="jarClient-tictactoe" style="stroke: #A80036; stroke-width: 1.0;"/><polygon fill="#A80036" points="107.3408,119.203,117.0489,120.8623,112.1867,117.9711,115.0779,113.1089,107.3408,119.203" style="stroke: #A80036; stroke-width: 1.0;"/><line style="stroke: #A80036; stroke-width: 1.0;" x1="112.1867" x2="119.94" y1="117.9711" y2="115.9997"/><polygon fill="#A80036" points="804.819,35.485,798.6067,31.8234,792.8374,36.1496,799.0497,39.8112,804.819,35.485" style="stroke: #A80036; stroke-width: 1.0;"/><!--MD5=[66bcfc51c11ee705829a2a0e89376480]
link jarClient to tictactoe.distributed--><path d="M793.0239,44.0962 C793.0239,44.0962 493.586,87.3917 331.5,115 C330.217,115.2185 328.926,115.4399 327.628,115.664 " fill="none" id="jarClient-tictactoe.distributed" style="stroke: #A80036; stroke-width: 1.0;"/><polygon fill="#A80036" points="314.725,117.934,324.282,120.3138,319.6493,117.0675,322.8956,112.4349,314.725,117.934" style="stroke: #A80036; stroke-width: 1.0;"/><line style="stroke: #A80036; stroke-width: 1.0;" x1="319.6493" x2="327.5285" y1="117.0675" y2="115.6815"/><polygon fill="#A80036" points="804.905,42.411,798.4027,39.2933,793.0239,44.0962,799.5262,47.214,804.905,42.411" style="stroke: #A80036; stroke-width: 1.0;"/><!--MD5=[31812314a6084e7a4254d0191fed9e96]
link jarClient to tictactoe.models--><path d="M793.094,51.3807 C793.094,51.3807 589.627,97.0152 508.591,115.1908 " fill="none" id="jarClient-tictactoe.models" style="stroke: #A80036; stroke-width: 1.0;"/><polygon fill="#A80036" points="495.689,118.0845,505.3463,120.0174,500.5677,116.99,503.5951,112.2114,495.689,118.0845" style="stroke: #A80036; stroke-width: 1.0;"/><line style="stroke: #A80036; stroke-width: 1.0;" x1="500.5677" x2="508.374" y1="116.99" y2="115.2394"/><polygon fill="#A80036" points="804.803,48.754,798.0729,46.1644,793.094,51.3807,799.8241,53.9704,804.803,48.754" style="stroke: #A80036; stroke-width: 1.0;"/><!--MD5=[198b31a385eb23d499dd602faf4cb0cb]
link jarClient to tictactoe.controllers--><path d="M809.2969,59.3598 C809.2969,59.3598 717.906,94.9788 679.096,110.1043 " fill="none" id="jarClient-tictactoe.controllers" style="stroke: #A80036; stroke-width: 1.0;"/><polygon fill="#A80036" points="666.914,114.8521,676.7522,115.3104,671.5726,113.0362,673.8468,107.8566,666.914,114.8521" style="stroke: #A80036; stroke-width: 1.0;"/><line style="stroke: #A80036; stroke-width: 1.0;" x1="671.5726" x2="679.0265" y1="113.0362" y2="110.1314"/><polygon fill="#A80036" points="820.478,55.003,813.4351,53.4544,809.2969,59.3598,816.3397,60.9085,820.478,55.003" style="stroke: #A80036; stroke-width: 1.0;"/><!--MD5=[4ddb519868096ad16b5f835e1f162e4f]
link jarClient to tictactoe.controllers.implementation--><path d="M879.5,67.003 C879.5,67.003 879.5,90.8564 879.5,101.535 " fill="none" id="jarClient-tictactoe.controllers.implementation" style="stroke: #A80036; stroke-width: 1.0;"/><polygon fill="#A80036" points="879.5,114.6838,883.5,105.6838,879.5,109.6838,875.5,105.6838,879.5,114.6838" style="stroke: #A80036; stroke-width: 1.0;"/><line style="stroke: #A80036; stroke-width: 1.0;" x1="879.5" x2="879.5" y1="109.6838" y2="101.6838"/><polygon fill="#A80036" points="879.5,55.003,875.5,61.003,879.5,67.003,883.5,61.003,879.5,55.003" style="stroke: #A80036; stroke-width: 1.0;"/><!--MD5=[07c489bc016c3a24be9a3f4c6581f7c3]
link jarClient to tictactoe.views--><path d="M945.5528,59.6354 C945.5528,59.6354 1029.56,94.7789 1065.33,109.7446 " fill="none" id="jarClient-tictactoe.views" style="stroke: #A80036; stroke-width: 1.0;"/><polygon fill="#A80036" points="1077.54,114.8521,1070.7796,107.6899,1072.927,112.9233,1067.6936,115.0708,1077.54,114.8521" style="stroke: #A80036; stroke-width: 1.0;"/><line style="stroke: #A80036; stroke-width: 1.0;" x1="1072.927" x2="1065.545" y1="112.9233" y2="109.8347"/><polygon fill="#A80036" points="934.483,55.003,938.4738,61.0091,945.5528,59.6354,941.562,53.6292,934.483,55.003" style="stroke: #A80036; stroke-width: 1.0;"/><!--MD5=[bea9f559fd90f465a2e8608ffbd4001a]
link jarClient to utils--><path d="M965.7354,49.9574 C965.7354,49.9574 1129.29,88.1357 1210.5,115 C1212.06,115.515 1213.64,116.0579 1215.22,116.6219 " fill="none" id="jarClient-utils" style="stroke: #A80036; stroke-width: 1.0;"/><polygon fill="#A80036" points="1227.41,121.2462,1220.4157,114.3123,1222.7355,119.4716,1217.5762,121.7914,1227.41,121.2462" style="stroke: #A80036; stroke-width: 1.0;"/><line style="stroke: #A80036; stroke-width: 1.0;" x1="1222.7355" x2="1215.255" y1="119.4716" y2="116.6336"/><polygon fill="#A80036" points="954.015,47.382,959.0167,52.5765,965.7354,49.9574,960.7337,44.7629,954.015,47.382" style="stroke: #A80036; stroke-width: 1.0;"/><!--MD5=[4b52c1cb0b8f7e02453e64ac4b9d7029]
link jarClient to java.io--><path d="M966.0005,44.9895 C966.0005,44.9895 1190.04,83.4709 1305.5,115 C1306.87,115.3736 1308.25,115.7647 1309.64,116.1702 " fill="none" id="jarClient-java.io" style="stroke: #A80036; stroke-width: 1.0;"/><polygon fill="#A80036" points="1322.27,120.1276,1314.8772,113.6202,1317.4986,118.633,1312.4858,121.2544,1322.27,120.1276" style="stroke: #A80036; stroke-width: 1.0;"/><line style="stroke: #A80036; stroke-width: 1.0;" x1="1317.4986" x2="1309.86" y1="118.633" y2="116.2383"/><polygon fill="#A80036" points="954.15,43.101,959.4457,47.9954,966.0005,44.9895,960.7047,40.0951,954.15,43.101" style="stroke: #A80036; stroke-width: 1.0;"/><!--MD5=[c235450950c0b3c493f4fd848123fa72]
link jarClient to java.util--><path d="M965.9885,41.0278 C965.9885,41.0278 1260.13,77.7614 1416.5,115 C1418,115.3572 1419.52,115.7341 1421.04,116.1275 " fill="none" id="jarClient-java.util" style="stroke: #A80036; stroke-width: 1.0;"/><polygon fill="#A80036" points="1433.8,119.6983,1426.2094,113.4228,1428.9846,118.352,1424.0554,121.1273,1433.8,119.6983" style="stroke: #A80036; stroke-width: 1.0;"/><line style="stroke: #A80036; stroke-width: 1.0;" x1="1428.9846" x2="1421.285" y1="118.352" y2="116.1949"/><polygon fill="#A80036" points="954.064,39.684,959.5783,44.3308,965.9885,41.0278,960.4742,36.3811,954.064,39.684" style="stroke: #A80036; stroke-width: 1.0;"/><!--MD5=[7ea4b09f07a96c4ddc323e3c54b8d5b6]
@startuml

package "  "  as tictactoe {
}
package "  "  as tictactoe.distributed {
}
package "  "  as tictactoe.models {
}
package "  "  as tictactoe.controllers {
}
package "  "  as tictactoe.controllers.implementation {
}
package "  "  as tictactoe.views {
}
package "  "  as utils {
}
package "  "  as java.io {
}
package "  "  as java.util {
}

[tictactoeClient.jar] as jarClient

jarClient *- -> tictactoe
jarClient *- -> tictactoe.distributed
jarClient *- -> tictactoe.models
jarClient *- -> tictactoe.controllers
jarClient *- -> tictactoe.controllers.implementation
jarClient *- -> tictactoe.views
jarClient *- -> utils
jarClient *- -> java.io
jarClient *- -> java.util

@enduml

PlantUML version 1.2020.15(Sun Jun 28 13:39:45 CEST 2020)
(GPL source distribution)
Java Runtime: Java(TM) SE Runtime Environment
JVM: Java HotSpot(TM) 64-Bit Server VM
Default Encoding: windows-1252
Language: es
Country: ES
--></g></svg>