<?xml version="1.0" encoding="UTF-8" standalone="no"?><svg xmlns="http://www.w3.org/2000/svg" xmlns:xlink="http://www.w3.org/1999/xlink" contentScriptType="application/ecmascript" contentStyleType="text/css" height="167px" preserveAspectRatio="none" style="width:1334px;height:167px;" version="1.1" viewBox="0 0 1334 167" width="1334px" zoomAndPan="magnify"><defs><filter height="300%" id="f1csl6duxqbfuf" width="300%" x="-1" y="-1"><feGaussianBlur result="blurOut" stdDeviation="2.0"/><feColorMatrix in="blurOut" result="blurOut2" type="matrix" values="0 0 0 0 0 0 0 0 0 0 0 0 0 0 0 0 0 0 .4 0"/><feOffset dx="4.0" dy="4.0" in="blurOut2" result="blurOut3"/><feBlend in="SourceGraphic" in2="blurOut3" mode="normal"/></filter></defs><g><!--MD5=[483b12a8a4a1981ac5430bdda5fd5916]
entity tictactoe--><polygon fill="#FFFFFF" filter="url(#f1csl6duxqbfuf)" points="16,115,83,115,90,138.6094,107,138.6094,107,155.6094,16,155.6094,16,115" style="stroke: #000000; stroke-width: 1.5;"/><line style="stroke: #000000; stroke-width: 1.5;" x1="16" x2="90" y1="138.6094" y2="138.6094"/><text fill="#000000" font-family="sans-serif" font-size="14" font-weight="bold" lengthAdjust="spacingAndGlyphs" textLength="61" x="20" y="132.5332">tictactoe</text><!--MD5=[21ee9191f94b37e164ce8850dd375de6]
entity tictactoe.models--><polygon fill="#FFFFFF" filter="url(#f1csl6duxqbfuf)" points="142.5,115,264.5,115,271.5,138.6094,288.5,138.6094,288.5,155.6094,142.5,155.6094,142.5,115" style="stroke: #000000; stroke-width: 1.5;"/><line style="stroke: #000000; stroke-width: 1.5;" x1="142.5" x2="271.5" y1="138.6094" y2="138.6094"/><text fill="#000000" font-family="sans-serif" font-size="14" font-weight="bold" lengthAdjust="spacingAndGlyphs" textLength="116" x="146.5" y="132.5332">tictactoe.models</text><!--MD5=[d35223fd8f7d7c99496ee8d9b067ffdf]
entity tictactoe.controllers--><polygon fill="#FFFFFF" filter="url(#f1csl6duxqbfuf)" points="323.5,115,471.5,115,478.5,138.6094,495.5,138.6094,495.5,155.6094,323.5,155.6094,323.5,115" style="stroke: #000000; stroke-width: 1.5;"/><line style="stroke: #000000; stroke-width: 1.5;" x1="323.5" x2="478.5" y1="138.6094" y2="138.6094"/><text fill="#000000" font-family="sans-serif" font-size="14" font-weight="bold" lengthAdjust="spacingAndGlyphs" textLength="142" x="327.5" y="132.5332">tictactoe.controllers</text><!--MD5=[4911aefd0c1747f0d800ce616c3836ce]
entity tictactoe.controllers.implementation--><polygon fill="#FFFFFF" filter="url(#f1csl6duxqbfuf)" points="530.5,115,790.5,115,797.5,138.6094,814.5,138.6094,814.5,155.6094,530.5,155.6094,530.5,115" style="stroke: #000000; stroke-width: 1.5;"/><line style="stroke: #000000; stroke-width: 1.5;" x1="530.5" x2="797.5" y1="138.6094" y2="138.6094"/><text fill="#000000" font-family="sans-serif" font-size="14" font-weight="bold" lengthAdjust="spacingAndGlyphs" textLength="254" x="534.5" y="132.5332">tictactoe.controllers.implementation</text><!--MD5=[170e9aa8a7c5483a45070c603c759464]
entity tictactoe.views--><polygon fill="#FFFFFF" filter="url(#f1csl6duxqbfuf)" points="849.5,115,961.5,115,968.5,138.6094,985.5,138.6094,985.5,155.6094,849.5,155.6094,849.5,115" style="stroke: #000000; stroke-width: 1.5;"/><line style="stroke: #000000; stroke-width: 1.5;" x1="849.5" x2="968.5" y1="138.6094" y2="138.6094"/><text fill="#000000" font-family="sans-serif" font-size="14" font-weight="bold" lengthAdjust="spacingAndGlyphs" textLength="106" x="853.5" y="132.5332">tictactoe.views</text><!--MD5=[815e17c207bbf712f7f26918c1feb6f8]
entity utils--><polygon fill="#FFFFFF" filter="url(#f1csl6duxqbfuf)" points="1020.5,115,1056.5,115,1063.5,138.6094,1080.5,138.6094,1080.5,155.6094,1020.5,155.6094,1020.5,115" style="stroke: #000000; stroke-width: 1.5;"/><line style="stroke: #000000; stroke-width: 1.5;" x1="1020.5" x2="1063.5" y1="138.6094" y2="138.6094"/><text fill="#000000" font-family="sans-serif" font-size="14" font-weight="bold" lengthAdjust="spacingAndGlyphs" textLength="30" x="1024.5" y="132.5332">utils</text><!--MD5=[48fa9072fd51d9920e6db8484beec696]
entity java.io--><polygon fill="#FFFFFF" filter="url(#f1csl6duxqbfuf)" points="1115.5,115,1167.5,115,1174.5,138.6094,1191.5,138.6094,1191.5,155.6094,1115.5,155.6094,1115.5,115" style="stroke: #000000; stroke-width: 1.5;"/><line style="stroke: #000000; stroke-width: 1.5;" x1="1115.5" x2="1174.5" y1="138.6094" y2="138.6094"/><text fill="#000000" font-family="sans-serif" font-size="14" font-weight="bold" lengthAdjust="spacingAndGlyphs" textLength="46" x="1119.5" y="132.5332">java.io</text><!--MD5=[034f0f7ed136bf78fc117f7e41f76e93]
entity java.util--><polygon fill="#FFFFFF" filter="url(#f1csl6duxqbfuf)" points="1227,115,1288,115,1295,138.6094,1312,138.6094,1312,155.6094,1227,155.6094,1227,115" style="stroke: #000000; stroke-width: 1.5;"/><line style="stroke: #000000; stroke-width: 1.5;" x1="1227" x2="1295" y1="138.6094" y2="138.6094"/><text fill="#000000" font-family="sans-serif" font-size="14" font-weight="bold" lengthAdjust="spacingAndGlyphs" textLength="55" x="1231" y="132.5332">java.util</text><!--MD5=[c2796faf4134bd8b5f3bc71f44d02e74]
entity jar--><rect fill="#FEFECE" filter="url(#f1csl6duxqbfuf)" height="47.6094" style="stroke: #A80036; stroke-width: 1.5;" width="113" x="738" y="7"/><rect fill="#FEFECE" height="10" style="stroke: #A80036; stroke-width: 1.5;" width="15" x="831" y="12"/><rect fill="#FEFECE" height="2" style="stroke: #A80036; stroke-width: 1.5;" width="4" x="829" y="14"/><rect fill="#FEFECE" height="2" style="stroke: #A80036; stroke-width: 1.5;" width="4" x="829" y="18"/><text fill="#000000" font-family="sans-serif" font-size="14" lengthAdjust="spacingAndGlyphs" textLength="73" x="753" y="41.5332">tictactoe.jar</text><!--MD5=[db071693898cb010136cdcd0ecfb308f]
link jar to tictactoe--><path d="M725.9386,36.4728 C725.9386,36.4728 340.708,68.5298 124.5,115 C122.894,115.3451 121.271,115.7127 119.637,116.0993 " fill="none" id="jar-tictactoe" style="stroke: #A80036; stroke-width: 1.0;"/><polygon fill="#A80036" points="107.0128,119.3739,116.7289,120.9858,111.8526,118.1184,114.72,113.2422,107.0128,119.3739" style="stroke: #A80036; stroke-width: 1.0;"/><line style="stroke: #A80036; stroke-width: 1.0;" x1="111.8526" x2="119.5965" y1="118.1184" y2="116.1097"/><polygon fill="#A80036" points="737.908,35.617,731.638,32.0551,725.9386,36.4728,732.2085,40.0347,737.908,35.617" style="stroke: #A80036; stroke-width: 1.0;"/><!--MD5=[6b3133dd7dabc2019ad83d1281580956]
link jar to tictactoe.models--><path d="M726.0226,42.6214 C726.0226,42.6214 454.484,86.2315 305.5,115 C304.212,115.2487 302.915,115.5014 301.609,115.7577 " fill="none" id="jar-tictactoe.models" style="stroke: #A80036; stroke-width: 1.0;"/><polygon fill="#A80036" points="288.63,118.3658,298.2417,120.5141,293.532,117.3806,296.6655,112.6709,288.63,118.3658" style="stroke: #A80036; stroke-width: 1.0;"/><line style="stroke: #A80036; stroke-width: 1.0;" x1="293.532" x2="301.3745" y1="117.3806" y2="115.8048"/><polygon fill="#A80036" points="737.877,40.758,731.3286,37.7382,726.0226,42.6214,732.5709,45.6412,737.877,40.758" style="stroke: #A80036; stroke-width: 1.0;"/><!--MD5=[a80195ddb4f09d1000c65393133bbdfd]
link jar to tictactoe.controllers--><path d="M726.0958,50.2109 C726.0958,50.2109 564.759,93.1647 495.614,111.5735 " fill="none" id="jar-tictactoe.controllers" style="stroke: #A80036; stroke-width: 1.0;"/><polygon fill="#A80036" points="483.028,114.9245,492.7543,116.4736,487.8596,113.6377,490.6954,108.743,483.028,114.9245" style="stroke: #A80036; stroke-width: 1.0;"/><line style="stroke: #A80036; stroke-width: 1.0;" x1="487.8596" x2="495.59" y1="113.6377" y2="111.5799"/><polygon fill="#A80036" points="737.692,47.124,730.8649,44.8021,726.0958,50.2109,732.9229,52.5329,737.692,47.124" style="stroke: #A80036; stroke-width: 1.0;"/><!--MD5=[b6573741d666ed3b7571ef2e20ac0ea3]
link jar to tictactoe.controllers.implementation--><path d="M757.9328,62.7216 C757.9328,62.7216 722.2,92.7439 706.443,105.9824 " fill="none" id="jar-tictactoe.controllers.implementation" style="stroke: #A80036; stroke-width: 1.0;"/><polygon fill="#A80036" points="696.086,114.6838,705.55,111.9575,699.9144,111.4677,700.4042,105.8321,696.086,114.6838" style="stroke: #A80036; stroke-width: 1.0;"/><line style="stroke: #A80036; stroke-width: 1.0;" x1="699.9144" x2="706.0395" y1="111.4677" y2="106.3214"/><polygon fill="#A80036" points="767.121,55.003,759.954,55.7996,757.9328,62.7216,765.0998,61.925,767.121,55.003" style="stroke: #A80036; stroke-width: 1.0;"/><!--MD5=[c97a190b1fd883cd6d17f82504278168]
link jar to tictactoe.views--><path d="M831.3231,62.6847 C831.3231,62.6847 867.393,92.7439 883.279,105.9824 " fill="none" id="jar-tictactoe.views" style="stroke: #A80036; stroke-width: 1.0;"/><polygon fill="#A80036" points="893.721,114.6838,889.368,105.8491,889.88,111.4828,884.2463,111.9948,893.721,114.6838" style="stroke: #A80036; stroke-width: 1.0;"/><line style="stroke: #A80036; stroke-width: 1.0;" x1="889.88" x2="883.734" y1="111.4828" y2="106.3614"/><polygon fill="#A80036" points="822.104,55.003,824.153,61.9169,831.3231,62.6847,829.2741,55.7708,822.104,55.003" style="stroke: #A80036; stroke-width: 1.0;"/><!--MD5=[2b24531f65345f8226c8757364dc2f7a]
link jar to utils--><path d="M862.5285,58.7139 C862.5285,58.7139 956.949,96.101 1003.5,115 C1005.042,115.6262 1006.612,116.2659 1008.198,116.9136 " fill="none" id="jar-utils" style="stroke: #A80036; stroke-width: 1.0;"/><polygon fill="#A80036" points="1020.44,121.9486,1013.6377,114.8262,1015.8158,120.0469,1010.595,122.225,1020.44,121.9486" style="stroke: #A80036; stroke-width: 1.0;"/><line style="stroke: #A80036; stroke-width: 1.0;" x1="1015.8158" x2="1008.4175" y1="120.0469" y2="117.004"/><polygon fill="#A80036" points="851.365,54.312,855.4794,60.2341,862.5285,58.7139,858.414,52.7918,851.365,54.312" style="stroke: #A80036; stroke-width: 1.0;"/><!--MD5=[f17a38c250a1605cd3da9b9fac2ef94b]
link jar to java.io--><path d="M862.7994,49.1029 C862.7994,49.1029 1018.69,89.9939 1098.5,115 C1099.96,115.4586 1101.45,115.9312 1102.94,116.4144 " fill="none" id="jar-java.io" style="stroke: #A80036; stroke-width: 1.0;"/><polygon fill="#A80036" points="1115.46,120.5995,1108.196,113.9487,1110.7188,119.0118,1105.6556,121.5346,1115.46,120.5995" style="stroke: #A80036; stroke-width: 1.0;"/><line style="stroke: #A80036; stroke-width: 1.0;" x1="1110.7188" x2="1103.125" y1="119.0118" y2="116.4762"/><polygon fill="#A80036" points="851.173,46.132,855.9959,51.4929,862.7994,49.1029,857.9765,43.742,851.173,46.132" style="stroke: #A80036; stroke-width: 1.0;"/><!--MD5=[a929e6d2b54380e4c3e4c2b17ce7cd9b]
link jar to java.util--><path d="M862.8571,43.1474 C862.8571,43.1474 1089.35,83.5755 1209.5,115 C1210.99,115.3902 1212.5,115.7964 1214.02,116.2157 " fill="none" id="jar-java.util" style="stroke: #A80036; stroke-width: 1.0;"/><polygon fill="#A80036" points="1226.74,119.9322,1219.2215,113.5704,1221.9403,118.531,1216.9797,121.2498,1226.74,119.9322" style="stroke: #A80036; stroke-width: 1.0;"/><line style="stroke: #A80036; stroke-width: 1.0;" x1="1221.9403" x2="1214.265" y1="118.531" y2="116.2872"/><polygon fill="#A80036" points="851.025,41.147,856.2743,46.0912,862.8571,43.1474,857.6078,38.2032,851.025,41.147" style="stroke: #A80036; stroke-width: 1.0;"/><!--MD5=[88c2a805928cf694392d7e72dbd2c212]
@startuml

package "  "  as tictactoe {
}
package "  "  as tictactoe.models {
}
package "  "  as tictactoe.controllers {
}
package "  "  as tictactoe.controllers.implementation {
}
package "  "  as tictactoe.views {
}
package "  "  as utils {
}
package "  "  as java.io {
}
package "  "  as java.util {
}

[tictactoe.jar] as jar

jar *- -> tictactoe
jar *- -> tictactoe.models
jar *- -> tictactoe.controllers
jar *- -> tictactoe.controllers.implementation
jar *- -> tictactoe.views
jar *- -> utils
jar *- -> java.io
jar *- -> java.util

@enduml

PlantUML version 1.2020.15(Sun Jun 28 13:39:45 CEST 2020)
(GPL source distribution)
Java Runtime: Java(TM) SE Runtime Environment
JVM: Java HotSpot(TM) 64-Bit Server VM
Default Encoding: windows-1252
Language: es
Country: ES
--></g></svg>