<?xml version="1.0" encoding="UTF-8" standalone="no"?><svg xmlns="http://www.w3.org/2000/svg" xmlns:xlink="http://www.w3.org/1999/xlink" contentScriptType="application/ecmascript" contentStyleType="text/css" height="167px" preserveAspectRatio="none" style="width:4144px;height:167px;" version="1.1" viewBox="0 0 4144 167" width="4144px" zoomAndPan="magnify"><defs><filter height="300%" id="fj9a1567bcdih" width="300%" x="-1" y="-1"><feGaussianBlur result="blurOut" stdDeviation="2.0"/><feColorMatrix in="blurOut" result="blurOut2" type="matrix" values="0 0 0 0 0 0 0 0 0 0 0 0 0 0 0 0 0 0 .4 0"/><feOffset dx="4.0" dy="4.0" in="blurOut2" result="blurOut3"/><feBlend in="SourceGraphic" in2="blurOut3" mode="normal"/></filter></defs><g><!--MD5=[483b12a8a4a1981ac5430bdda5fd5916]
entity tictactoe--><polygon fill="#FFFFFF" filter="url(#fj9a1567bcdih)" points="16,115,83,115,90,138.6094,107,138.6094,107,155.6094,16,155.6094,16,115" style="stroke: #000000; stroke-width: 1.5;"/><line style="stroke: #000000; stroke-width: 1.5;" x1="16" x2="90" y1="138.6094" y2="138.6094"/><text fill="#000000" font-family="sans-serif" font-size="14" font-weight="bold" lengthAdjust="spacingAndGlyphs" textLength="61" x="20" y="132.5332">tictactoe</text><!--MD5=[bc6102f5c7110c2c1c7ba872ac02f333]
entity tictactoe.distributed--><polygon fill="#FFFFFF" filter="url(#fj9a1567bcdih)" points="142.5,115,290.5,115,297.5,138.6094,314.5,138.6094,314.5,155.6094,142.5,155.6094,142.5,115" style="stroke: #000000; stroke-width: 1.5;"/><line style="stroke: #000000; stroke-width: 1.5;" x1="142.5" x2="297.5" y1="138.6094" y2="138.6094"/><text fill="#000000" font-family="sans-serif" font-size="14" font-weight="bold" lengthAdjust="spacingAndGlyphs" textLength="142" x="146.5" y="132.5332">tictactoe.distributed</text><!--MD5=[4420d1aeeaa1c084ae374c955337ed05]
entity tictactoe.distributed.dispatchers--><polygon fill="#FFFFFF" filter="url(#fj9a1567bcdih)" points="350,115,585,115,592,138.6094,609,138.6094,609,155.6094,350,155.6094,350,115" style="stroke: #000000; stroke-width: 1.5;"/><line style="stroke: #000000; stroke-width: 1.5;" x1="350" x2="592" y1="138.6094" y2="138.6094"/><text fill="#000000" font-family="sans-serif" font-size="14" font-weight="bold" lengthAdjust="spacingAndGlyphs" textLength="229" x="354" y="132.5332">tictactoe.distributed.dispatchers</text><!--MD5=[daad211c4573dbe60b33f42b7411f08f]
entity tictactoe.distributed.dispatchers.errors--><polygon fill="#FFFFFF" filter="url(#fj9a1567bcdih)" points="644,115,927,115,934,138.6094,951,138.6094,951,155.6094,644,155.6094,644,115" style="stroke: #000000; stroke-width: 1.5;"/><line style="stroke: #000000; stroke-width: 1.5;" x1="644" x2="934" y1="138.6094" y2="138.6094"/><text fill="#000000" font-family="sans-serif" font-size="14" font-weight="bold" lengthAdjust="spacingAndGlyphs" textLength="277" x="648" y="132.5332">tictactoe.distributed.dispatchers.errors</text><!--MD5=[3183ec681926bb365d43bd091b71ae8f]
entity tictactoe.distributed.dispatchers.save--><polygon fill="#FFFFFF" filter="url(#fj9a1567bcdih)" points="986,115,1259,115,1266,138.6094,1283,138.6094,1283,155.6094,986,155.6094,986,115" style="stroke: #000000; stroke-width: 1.5;"/><line style="stroke: #000000; stroke-width: 1.5;" x1="986" x2="1266" y1="138.6094" y2="138.6094"/><text fill="#000000" font-family="sans-serif" font-size="14" font-weight="bold" lengthAdjust="spacingAndGlyphs" textLength="267" x="990" y="132.5332">tictactoe.distributed.dispatchers.save</text><!--MD5=[73744e03def399d5559d0b91fa4d2d9b]
entity tictactoe.distributed.dispatchers.undoredo--><polygon fill="#FFFFFF" filter="url(#fj9a1567bcdih)" points="1318.5,115,1626.5,115,1633.5,138.6094,1650.5,138.6094,1650.5,155.6094,1318.5,155.6094,1318.5,115" style="stroke: #000000; stroke-width: 1.5;"/><line style="stroke: #000000; stroke-width: 1.5;" x1="1318.5" x2="1633.5" y1="138.6094" y2="138.6094"/><text fill="#000000" font-family="sans-serif" font-size="14" font-weight="bold" lengthAdjust="spacingAndGlyphs" textLength="302" x="1322.5" y="132.5332">tictactoe.distributed.dispatchers.undoredo</text><!--MD5=[21ee9191f94b37e164ce8850dd375de6]
entity tictactoe.models--><polygon fill="#FFFFFF" filter="url(#fj9a1567bcdih)" points="1685.5,115,1807.5,115,1814.5,138.6094,1831.5,138.6094,1831.5,155.6094,1685.5,155.6094,1685.5,115" style="stroke: #000000; stroke-width: 1.5;"/><line style="stroke: #000000; stroke-width: 1.5;" x1="1685.5" x2="1814.5" y1="138.6094" y2="138.6094"/><text fill="#000000" font-family="sans-serif" font-size="14" font-weight="bold" lengthAdjust="spacingAndGlyphs" textLength="116" x="1689.5" y="132.5332">tictactoe.models</text><!--MD5=[d35223fd8f7d7c99496ee8d9b067ffdf]
entity tictactoe.controllers--><polygon fill="#FFFFFF" filter="url(#fj9a1567bcdih)" points="1866.5,115,2014.5,115,2021.5,138.6094,2038.5,138.6094,2038.5,155.6094,1866.5,155.6094,1866.5,115" style="stroke: #000000; stroke-width: 1.5;"/><line style="stroke: #000000; stroke-width: 1.5;" x1="1866.5" x2="2021.5" y1="138.6094" y2="138.6094"/><text fill="#000000" font-family="sans-serif" font-size="14" font-weight="bold" lengthAdjust="spacingAndGlyphs" textLength="142" x="1870.5" y="132.5332">tictactoe.controllers</text><!--MD5=[4911aefd0c1747f0d800ce616c3836ce]
entity tictactoe.controllers.implementation--><polygon fill="#FFFFFF" filter="url(#fj9a1567bcdih)" points="2073.5,115,2333.5,115,2340.5,138.6094,2357.5,138.6094,2357.5,155.6094,2073.5,155.6094,2073.5,115" style="stroke: #000000; stroke-width: 1.5;"/><line style="stroke: #000000; stroke-width: 1.5;" x1="2073.5" x2="2340.5" y1="138.6094" y2="138.6094"/><text fill="#000000" font-family="sans-serif" font-size="14" font-weight="bold" lengthAdjust="spacingAndGlyphs" textLength="254" x="2077.5" y="132.5332">tictactoe.controllers.implementation</text><!--MD5=[170e9aa8a7c5483a45070c603c759464]
entity tictactoe.views--><polygon fill="#FFFFFF" filter="url(#fj9a1567bcdih)" points="2392.5,115,2504.5,115,2511.5,138.6094,2528.5,138.6094,2528.5,155.6094,2392.5,155.6094,2392.5,115" style="stroke: #000000; stroke-width: 1.5;"/><line style="stroke: #000000; stroke-width: 1.5;" x1="2392.5" x2="2511.5" y1="138.6094" y2="138.6094"/><text fill="#000000" font-family="sans-serif" font-size="14" font-weight="bold" lengthAdjust="spacingAndGlyphs" textLength="106" x="2396.5" y="132.5332">tictactoe.views</text><!--MD5=[e9200ba29f1e05d1f31e2a8ef61fac10]
entity tictactoe.views.menus--><polygon fill="#FFFFFF" filter="url(#fj9a1567bcdih)" points="2564,115,2727,115,2734,138.6094,2751,138.6094,2751,155.6094,2564,155.6094,2564,115" style="stroke: #000000; stroke-width: 1.5;"/><line style="stroke: #000000; stroke-width: 1.5;" x1="2564" x2="2734" y1="138.6094" y2="138.6094"/><text fill="#000000" font-family="sans-serif" font-size="14" font-weight="bold" lengthAdjust="spacingAndGlyphs" textLength="157" x="2568" y="132.5332">tictactoe.views.menus</text><!--MD5=[2efa0b14ba02b52a684babbdabf10da8]
entity tictactoe.views.models--><polygon fill="#FFFFFF" filter="url(#fj9a1567bcdih)" points="2786,115,2953,115,2960,138.6094,2977,138.6094,2977,155.6094,2786,155.6094,2786,115" style="stroke: #000000; stroke-width: 1.5;"/><line style="stroke: #000000; stroke-width: 1.5;" x1="2786" x2="2960" y1="138.6094" y2="138.6094"/><text fill="#000000" font-family="sans-serif" font-size="14" font-weight="bold" lengthAdjust="spacingAndGlyphs" textLength="161" x="2790" y="132.5332">tictactoe.views.models</text><!--MD5=[621aa5355b1fbe35f692172da5dce4b9]
entity tictactoe.views.models.DAO--><polygon fill="#FFFFFF" filter="url(#fj9a1567bcdih)" points="3012,115,3213,115,3220,138.6094,3237,138.6094,3237,155.6094,3012,155.6094,3012,115" style="stroke: #000000; stroke-width: 1.5;"/><line style="stroke: #000000; stroke-width: 1.5;" x1="3012" x2="3220" y1="138.6094" y2="138.6094"/><text fill="#000000" font-family="sans-serif" font-size="14" font-weight="bold" lengthAdjust="spacingAndGlyphs" textLength="195" x="3016" y="132.5332">tictactoe.views.models.DAO</text><!--MD5=[8c5624b4dae5bc0cba8a32a62825252a]
entity tictactoe.views.models.database--><polygon fill="#FFFFFF" filter="url(#fj9a1567bcdih)" points="3272,115,3507,115,3514,138.6094,3531,138.6094,3531,155.6094,3272,155.6094,3272,115" style="stroke: #000000; stroke-width: 1.5;"/><line style="stroke: #000000; stroke-width: 1.5;" x1="3272" x2="3514" y1="138.6094" y2="138.6094"/><text fill="#000000" font-family="sans-serif" font-size="14" font-weight="bold" lengthAdjust="spacingAndGlyphs" textLength="229" x="3276" y="132.5332">tictactoe.views.models.database</text><!--MD5=[ddd071b4e813a4390d87f7bf67dbb151]
entity tictactoe.views.models.Files--><polygon fill="#FFFFFF" filter="url(#fj9a1567bcdih)" points="3566,115,3771,115,3778,138.6094,3795,138.6094,3795,155.6094,3566,155.6094,3566,115" style="stroke: #000000; stroke-width: 1.5;"/><line style="stroke: #000000; stroke-width: 1.5;" x1="3566" x2="3778" y1="138.6094" y2="138.6094"/><text fill="#000000" font-family="sans-serif" font-size="14" font-weight="bold" lengthAdjust="spacingAndGlyphs" textLength="199" x="3570" y="132.5332">tictactoe.views.models.Files</text><!--MD5=[815e17c207bbf712f7f26918c1feb6f8]
entity utils--><polygon fill="#FFFFFF" filter="url(#fj9a1567bcdih)" points="3830.5,115,3866.5,115,3873.5,138.6094,3890.5,138.6094,3890.5,155.6094,3830.5,155.6094,3830.5,115" style="stroke: #000000; stroke-width: 1.5;"/><line style="stroke: #000000; stroke-width: 1.5;" x1="3830.5" x2="3873.5" y1="138.6094" y2="138.6094"/><text fill="#000000" font-family="sans-serif" font-size="14" font-weight="bold" lengthAdjust="spacingAndGlyphs" textLength="30" x="3834.5" y="132.5332">utils</text><!--MD5=[48fa9072fd51d9920e6db8484beec696]
entity java.io--><polygon fill="#FFFFFF" filter="url(#fj9a1567bcdih)" points="3925.5,115,3977.5,115,3984.5,138.6094,4001.5,138.6094,4001.5,155.6094,3925.5,155.6094,3925.5,115" style="stroke: #000000; stroke-width: 1.5;"/><line style="stroke: #000000; stroke-width: 1.5;" x1="3925.5" x2="3984.5" y1="138.6094" y2="138.6094"/><text fill="#000000" font-family="sans-serif" font-size="14" font-weight="bold" lengthAdjust="spacingAndGlyphs" textLength="46" x="3929.5" y="132.5332">java.io</text><!--MD5=[034f0f7ed136bf78fc117f7e41f76e93]
entity java.util--><polygon fill="#FFFFFF" filter="url(#fj9a1567bcdih)" points="4037,115,4098,115,4105,138.6094,4122,138.6094,4122,155.6094,4037,155.6094,4037,115" style="stroke: #000000; stroke-width: 1.5;"/><line style="stroke: #000000; stroke-width: 1.5;" x1="4037" x2="4105" y1="138.6094" y2="138.6094"/><text fill="#000000" font-family="sans-serif" font-size="14" font-weight="bold" lengthAdjust="spacingAndGlyphs" textLength="55" x="4041" y="132.5332">java.util</text><!--MD5=[a6a51606d0752e41353840c3c1bca06a]
entity jarClient--><rect fill="#FEFECE" filter="url(#fj9a1567bcdih)" height="47.6094" style="stroke: #A80036; stroke-width: 1.5;" width="149" x="2263" y="7"/><rect fill="#FEFECE" height="10" style="stroke: #A80036; stroke-width: 1.5;" width="15" x="2392" y="12"/><rect fill="#FEFECE" height="2" style="stroke: #A80036; stroke-width: 1.5;" width="4" x="2390" y="14"/><rect fill="#FEFECE" height="2" style="stroke: #A80036; stroke-width: 1.5;" width="4" x="2390" y="18"/><text fill="#000000" font-family="sans-serif" font-size="14" lengthAdjust="spacingAndGlyphs" textLength="109" x="2278" y="41.5332">tictactoeClient.jar</text><!--MD5=[457bb6843a8d1c875ab27d0179ab8782]
link jarClient to tictactoe--><path d="M2250.8701,32.2126 C2250.8701,32.2126 543.934,43.506 124.5,115 C123.001,115.2555 121.488,115.537 119.966,115.8411 " fill="none" id="jarClient-tictactoe" style="stroke: #A80036; stroke-width: 1.0;"/><polygon fill="#A80036" points="107.2665,118.8096,116.9407,120.6564,112.1353,117.6717,115.12,112.8663,107.2665,118.8096" style="stroke: #A80036; stroke-width: 1.0;"/><line style="stroke: #A80036; stroke-width: 1.0;" x1="112.1353" x2="119.9255" y1="117.6717" y2="115.8506"/><polygon fill="#A80036" points="2262.87,32.173,2256.8568,28.1928,2250.8701,32.2126,2256.8832,36.1928,2262.87,32.173" style="stroke: #A80036; stroke-width: 1.0;"/><!--MD5=[66bcfc51c11ee705829a2a0e89376480]
link jarClient to tictactoe.distributed--><path d="M2250.7332,33.9289 C2250.7332,33.9289 712.116,71.7813 332.5,115 C330.857,115.187 329.202,115.385 327.536,115.5929 " fill="none" id="jarClient-tictactoe.distributed" style="stroke: #A80036; stroke-width: 1.0;"/><polygon fill="#A80036" points="314.616,117.3652,324.0762,120.1047,319.5696,116.6855,322.9887,112.1789,314.616,117.3652" style="stroke: #A80036; stroke-width: 1.0;"/><line style="stroke: #A80036; stroke-width: 1.0;" x1="319.5696" x2="327.4955" y1="116.6855" y2="115.5984"/><polygon fill="#A80036" points="2262.73,33.652,2256.6393,29.7915,2250.7332,33.9289,2256.8239,37.7894,2262.73,33.652" style="stroke: #A80036; stroke-width: 1.0;"/><!--MD5=[16c52a86c8b83105508491ca417863e6]
link jarClient to tictactoe.distributed.dispatchers--><path d="M2250.7226,33.6515 C2250.7226,33.6515 1246.66,58.9237 626.5,115 C625.09,115.1275 623.672,115.2585 622.249,115.3929 " fill="none" id="jarClient-tictactoe.distributed.dispatchers" style="stroke: #A80036; stroke-width: 1.0;"/><polygon fill="#A80036" points="609.291,116.6857,618.6438,119.7718,614.2663,116.189,617.8491,111.8114,609.291,116.6857" style="stroke: #A80036; stroke-width: 1.0;"/><line style="stroke: #A80036; stroke-width: 1.0;" x1="614.2663" x2="622.227" y1="116.189" y2="115.395"/><polygon fill="#A80036" points="2262.72,33.401,2256.6378,29.5271,2250.7226,33.6515,2256.8048,37.5254,2262.72,33.401" style="stroke: #A80036; stroke-width: 1.0;"/><!--MD5=[ab368545b17553a6613fe3c5925fbf4e]
link jarClient to tictactoe.distributed.dispatchers.errors--><path d="M2250.8416,35.6615 C2250.8416,35.6615 1451.48,72.85 968.5,115 C967.086,115.1234 965.666,115.2489 964.24,115.3765 " fill="none" id="jarClient-tictactoe.distributed.dispatchers.errors" style="stroke: #A80036; stroke-width: 1.0;"/><polygon fill="#A80036" points="951.272,116.5754,960.6021,119.7296,956.2508,116.115,959.8654,111.7636,951.272,116.5754" style="stroke: #A80036; stroke-width: 1.0;"/><line style="stroke: #A80036; stroke-width: 1.0;" x1="956.2508" x2="964.217" y1="116.115" y2="115.3785"/><polygon fill="#A80036" points="2262.83,35.134,2256.66,31.4016,2250.8416,35.6615,2257.0116,39.3939,2262.83,35.134" style="stroke: #A80036; stroke-width: 1.0;"/><!--MD5=[c87ff80f01b5b688f02d0974d7ecce60]
link jarClient to tictactoe.distributed.dispatchers.save--><path d="M2250.9379,37.8347 C2250.9379,37.8347 1651.68,80.3316 1300.5,115 C1299.18,115.1303 1297.85,115.2621 1296.52,115.3955 " fill="none" id="jarClient-tictactoe.distributed.dispatchers.save" style="stroke: #A80036; stroke-width: 1.0;"/><polygon fill="#A80036" points="1283.34,116.7455,1292.7017,119.8048,1288.3138,116.2345,1291.8841,111.8467,1283.34,116.7455" style="stroke: #A80036; stroke-width: 1.0;"/><line style="stroke: #A80036; stroke-width: 1.0;" x1="1288.3138" x2="1296.275" y1="116.2345" y2="115.4212"/><polygon fill="#A80036" points="2262.91,37.017,2256.6514,33.4351,2250.9379,37.8347,2257.1965,41.4165,2262.91,37.017" style="stroke: #A80036; stroke-width: 1.0;"/><!--MD5=[fd630eba4eaee002b466186ef5ed5f03]
link jarClient to tictactoe.distributed.dispatchers.undoredo--><path d="M2251.0064,42.3993 C2251.0064,42.3993 1839.36,91.8589 1659.83,113.4319 " fill="none" id="jarClient-tictactoe.distributed.dispatchers.undoredo" style="stroke: #A80036; stroke-width: 1.0;"/><polygon fill="#A80036" points="1646.8,114.9979,1656.2143,117.8911,1651.764,114.399,1655.2561,109.9487,1646.8,114.9979" style="stroke: #A80036; stroke-width: 1.0;"/><line style="stroke: #A80036; stroke-width: 1.0;" x1="1651.764" x2="1659.705" y1="114.399" y2="113.4468"/><polygon fill="#A80036" points="2262.92,40.962,2256.4841,37.7094,2251.0064,42.3993,2257.4423,45.6518,2262.92,40.962" style="stroke: #A80036; stroke-width: 1.0;"/><!--MD5=[31812314a6084e7a4254d0191fed9e96]
link jarClient to tictactoe.models--><path d="M2250.897,45.4826 C2250.897,45.4826 1988.34,87.9971 1848.5,115 C1847.21,115.2487 1845.91,115.5014 1844.61,115.7577 " fill="none" id="jarClient-tictactoe.models" style="stroke: #A80036; stroke-width: 1.0;"/><polygon fill="#A80036" points="1831.63,118.3658,1841.241,120.5172,1836.5323,117.3822,1839.6673,112.6735,1831.63,118.3658" style="stroke: #A80036; stroke-width: 1.0;"/><line style="stroke: #A80036; stroke-width: 1.0;" x1="1836.5323" x2="1844.375" y1="117.3822" y2="115.8048"/><polygon fill="#A80036" points="2262.75,43.61,2256.1993,40.5953,2250.897,45.4826,2257.4477,48.4973,2262.75,43.61" style="stroke: #A80036; stroke-width: 1.0;"/><!--MD5=[198b31a385eb23d499dd602faf4cb0cb]
link jarClient to tictactoe.controllers--><path d="M2251.2135,54.9707 C2251.2135,54.9707 2101.67,94.7848 2038.69,111.5538 " fill="none" id="jarClient-tictactoe.controllers" style="stroke: #A80036; stroke-width: 1.0;"/><polygon fill="#A80036" points="2026,114.9319,2035.7259,116.483,2030.8319,113.6461,2033.6687,108.752,2026,114.9319" style="stroke: #A80036; stroke-width: 1.0;"/><line style="stroke: #A80036; stroke-width: 1.0;" x1="2030.8319" x2="2038.56" y1="113.6461" y2="111.5873"/><polygon fill="#A80036" points="2262.81,51.885,2255.9832,49.5624,2251.2135,54.9707,2258.0403,57.2934,2262.81,51.885" style="stroke: #A80036; stroke-width: 1.0;"/><!--MD5=[4ddb519868096ad16b5f835e1f162e4f]
link jarClient to tictactoe.controllers.implementation--><path d="M2300.9298,62.7193 C2300.9298,62.7193 2265.2,92.7439 2249.44,105.9824 " fill="none" id="jarClient-tictactoe.controllers.implementation" style="stroke: #A80036; stroke-width: 1.0;"/><polygon fill="#A80036" points="2239.09,114.6838,2248.5524,111.9519,2242.9165,111.4654,2243.403,105.8295,2239.09,114.6838" style="stroke: #A80036; stroke-width: 1.0;"/><line style="stroke: #A80036; stroke-width: 1.0;" x1="2242.9165" x2="2249.04" y1="111.4654" y2="106.3214"/><polygon fill="#A80036" points="2310.12,55.003,2302.9528,55.7978,2300.9298,62.7193,2308.097,61.9245,2310.12,55.003" style="stroke: #A80036; stroke-width: 1.0;"/><!--MD5=[07c489bc016c3a24be9a3f4c6581f7c3]
link jarClient to tictactoe.views--><path d="M2374.3223,62.6808 C2374.3223,62.6808 2410.39,92.7439 2426.28,105.9824 " fill="none" id="jarClient-tictactoe.views" style="stroke: #A80036; stroke-width: 1.0;"/><polygon fill="#A80036" points="2436.72,114.6838,2432.37,105.8477,2432.8801,111.4815,2427.2463,111.9916,2436.72,114.6838" style="stroke: #A80036; stroke-width: 1.0;"/><line style="stroke: #A80036; stroke-width: 1.0;" x1="2432.8801" x2="2426.735" y1="111.4815" y2="106.3614"/><polygon fill="#A80036" points="2365.1,55.003,2367.1519,61.916,2374.3223,62.6808,2372.2704,55.7678,2365.1,55.003" style="stroke: #A80036; stroke-width: 1.0;"/><!--MD5=[12da2b086c988c293bab6c90bdff8681]
link jarClient to tictactoe.views.menus--><path d="M2420.7403,58.6567 C2420.7403,58.6567 2535.52,95.427 2583.85,110.9075 " fill="none" id="jarClient-tictactoe.views.menus" style="stroke: #A80036; stroke-width: 1.0;"/><polygon fill="#A80036" points="2596.42,114.936,2589.0719,108.3781,2591.659,113.4087,2586.6283,115.9958,2596.42,114.936" style="stroke: #A80036; stroke-width: 1.0;"/><line style="stroke: #A80036; stroke-width: 1.0;" x1="2591.659" x2="2584.04" y1="113.4087" y2="110.9704"/><polygon fill="#A80036" points="2409.31,55.003,2413.8072,60.6399,2420.7403,58.6567,2416.243,53.0197,2409.31,55.003" style="stroke: #A80036; stroke-width: 1.0;"/><!--MD5=[2f19ed294e34f3711e2aec59ba034c27]
link jarClient to tictactoe.views.models--><path d="M2423.7913,48.2653 C2423.7913,48.2653 2670.91,94.8213 2773.12,114.0795 " fill="none" id="jarClient-tictactoe.views.models" style="stroke: #A80036; stroke-width: 1.0;"/><polygon fill="#A80036" points="2785.96,116.4983,2777.8593,110.8966,2781.047,115.5698,2776.3738,118.7575,2785.96,116.4983" style="stroke: #A80036; stroke-width: 1.0;"/><line style="stroke: #A80036; stroke-width: 1.0;" x1="2781.047" x2="2773.185" y1="115.5698" y2="114.0911"/><polygon fill="#A80036" points="2412,46.037,2417.1529,51.0816,2423.7913,48.2653,2418.6384,43.2207,2412,46.037" style="stroke: #A80036; stroke-width: 1.0;"/><!--MD5=[4937b8c169e1bb7a7905d5ea789e8cff]
link jarClient to tictactoe.views.models.DAO--><path d="M2424.3736,42.3323 C2424.3736,42.3323 2791.01,86.8884 2994.5,115 C2995.91,115.1952 2997.33,115.3925 2998.76,115.5916 " fill="none" id="jarClient-tictactoe.views.models.DAO" style="stroke: #A80036; stroke-width: 1.0;"/><polygon fill="#A80036" points="3011.78,117.4288,3003.432,112.2028,3006.8297,116.7256,3002.3069,120.1233,3011.78,117.4288" style="stroke: #A80036; stroke-width: 1.0;"/><line style="stroke: #A80036; stroke-width: 1.0;" x1="3006.8297" x2="2998.91" y1="116.7256" y2="115.6123"/><polygon fill="#A80036" points="2412.46,40.895,2417.9377,45.5848,2424.3736,42.3323,2418.8959,37.6424,2412.46,40.895" style="stroke: #A80036; stroke-width: 1.0;"/><!--MD5=[4b02a63f3c2ab7afc66ba0fb9fb4c69e]
link jarClient to tictactoe.views.models.database--><path d="M2424.1534,38.6372 C2424.1534,38.6372 2950.67,81.1125 3254.5,115 C3255.91,115.157 3257.32,115.3162 3258.74,115.4775 " fill="none" id="jarClient-tictactoe.views.models.database" style="stroke: #A80036; stroke-width: 1.0;"/><polygon fill="#A80036" points="3271.68,116.9809,3263.2017,111.9692,3266.7134,116.404,3262.2786,119.9157,3271.68,116.9809" style="stroke: #A80036; stroke-width: 1.0;"/><line style="stroke: #A80036; stroke-width: 1.0;" x1="3266.7134" x2="3258.765" y1="116.404" y2="115.4801"/><polygon fill="#A80036" points="2412.19,37.701,2417.8597,42.1569,2424.1534,38.6372,2418.4838,34.1813,2412.19,37.701" style="stroke: #A80036; stroke-width: 1.0;"/><!--MD5=[90bf6c0301edc7705d409445dfb15f5a]
link jarClient to tictactoe.views.models.Files--><path d="M2424.0784,35.6065 C2424.0784,35.6065 3128.94,69.7016 3548.5,115 C3549.91,115.1523 3551.33,115.3085 3552.76,115.4683 " fill="none" id="jarClient-tictactoe.views.models.Files" style="stroke: #A80036; stroke-width: 1.0;"/><polygon fill="#A80036" points="3565.74,116.9962,3557.2672,111.975,3560.774,116.4138,3556.3353,119.9206,3565.74,116.9962" style="stroke: #A80036; stroke-width: 1.0;"/><line style="stroke: #A80036; stroke-width: 1.0;" x1="3560.774" x2="3552.83" y1="116.4138" y2="115.4768"/><polygon fill="#A80036" points="2412.09,35.079,2417.9084,39.3389,2424.0784,35.6065,2418.26,31.3466,2412.09,35.079" style="stroke: #A80036; stroke-width: 1.0;"/><!--MD5=[bea9f559fd90f465a2e8608ffbd4001a]
link jarClient to utils--><path d="M2424.2086,33.1486 C2424.2086,33.1486 3545.83,55.073 3812.5,115 C3814.25,115.3923 3816.01,115.8413 3817.78,116.3359 " fill="none" id="jarClient-utils" style="stroke: #A80036; stroke-width: 1.0;"/><polygon fill="#A80036" points="3830.26,120.4685,3822.9733,113.8425,3825.5134,118.897,3820.4589,121.4371,3830.26,120.4685" style="stroke: #A80036; stroke-width: 1.0;"/><line style="stroke: #A80036; stroke-width: 1.0;" x1="3825.5134" x2="3817.92" y1="118.897" y2="116.3814"/><polygon fill="#A80036" points="2412.21,32.964,2418.1478,37.0558,2424.2086,33.1486,2418.2708,29.0568,2412.21,32.964" style="stroke: #A80036; stroke-width: 1.0;"/><!--MD5=[4b52c1cb0b8f7e02453e64ac4b9d7029]
link jarClient to java.io--><path d="M2424.2384,33.3018 C2424.2384,33.3018 3621.27,57.7457 3908.5,115 C3909.89,115.2773 3911.29,115.5825 3912.7,115.9119 " fill="none" id="jarClient-java.io" style="stroke: #A80036; stroke-width: 1.0;"/><polygon fill="#A80036" points="3925.43,119.4218,3917.8178,113.1725,3920.61,118.0922,3915.6904,120.8844,3925.43,119.4218" style="stroke: #A80036; stroke-width: 1.0;"/><line style="stroke: #A80036; stroke-width: 1.0;" x1="3920.61" x2="3912.9" y1="118.0922" y2="115.9657"/><polygon fill="#A80036" points="2412.24,33.104,2418.1733,37.2024,2424.2384,33.3018,2418.3051,29.2034,2412.24,33.104" style="stroke: #A80036; stroke-width: 1.0;"/><!--MD5=[c235450950c0b3c493f4fd848123fa72]
link jarClient to java.util--><path d="M2424.0484,33.2558 C2424.0484,33.2558 3709.04,57.9386 4019.5,115 C4021.02,115.2787 4022.55,115.5858 4024.09,115.9172 " fill="none" id="jarClient-java.util" style="stroke: #A80036; stroke-width: 1.0;"/><polygon fill="#A80036" points="4036.92,119.1409,4029.1676,113.0663,4032.071,117.9212,4027.2161,120.8246,4036.92,119.1409" style="stroke: #A80036; stroke-width: 1.0;"/><line style="stroke: #A80036; stroke-width: 1.0;" x1="4032.071" x2="4024.31" y1="117.9212" y2="115.9736"/><polygon fill="#A80036" points="2412.05,33.058,2417.9833,37.1564,2424.0484,33.2558,2418.1151,29.1574,2412.05,33.058" style="stroke: #A80036; stroke-width: 1.0;"/><!--MD5=[a5d773e56c49d652bcb9e96e2608f02f]
@startuml

package "  "  as tictactoe {
}
package "  "  as tictactoe.distributed {
}
package "  "  as tictactoe.distributed.dispatchers {
}
package "  "  as tictactoe.distributed.dispatchers.errors {
}
package "  "  as tictactoe.distributed.dispatchers.save {
}
package "  "  as tictactoe.distributed.dispatchers.undoredo {
}
package "  "  as tictactoe.models {
}
package "  "  as tictactoe.controllers {
}
package "  "  as tictactoe.controllers.implementation {
}
package "  "  as tictactoe.views {
}
package "  "  as tictactoe.views.menus {
}
package "  "  as tictactoe.views.models {
}
package "  "  as tictactoe.views.models.DAO {
}
package "  "  as tictactoe.views.models.database {
}
package "  "  as tictactoe.views.models.Files {
}
package "  "  as utils {
}
package "  "  as java.io {
}
package "  "  as java.util {
}

[tictactoeClient.jar] as jarClient

jarClient *- -> tictactoe
jarClient *- -> tictactoe.distributed
jarClient *- -> tictactoe.distributed.dispatchers
jarClient *- -> tictactoe.distributed.dispatchers.errors
jarClient *- -> tictactoe.distributed.dispatchers.save
jarClient *- -> tictactoe.distributed.dispatchers.undoredo
jarClient *- -> tictactoe.models
jarClient *- -> tictactoe.controllers
jarClient *- -> tictactoe.controllers.implementation
jarClient *- -> tictactoe.views
jarClient *- -> tictactoe.views.menus
jarClient *- -> tictactoe.views.models
jarClient *- -> tictactoe.views.models.DAO
jarClient *- -> tictactoe.views.models.database
jarClient *- -> tictactoe.views.models.Files
jarClient *- -> utils
jarClient *- -> java.io
jarClient *- -> java.util

@enduml

PlantUML version 1.2020.15(Sun Jun 28 13:39:45 CEST 2020)
(GPL source distribution)
Java Runtime: Java(TM) SE Runtime Environment
JVM: Java HotSpot(TM) 64-Bit Server VM
Default Encoding: windows-1252
Language: es
Country: ES
--></g></svg>