<?xml version="1.0" encoding="UTF-8" standalone="no"?><svg xmlns="http://www.w3.org/2000/svg" xmlns:xlink="http://www.w3.org/1999/xlink" contentScriptType="application/ecmascript" contentStyleType="text/css" height="173px" preserveAspectRatio="none" style="width:2544px;height:173px;" version="1.1" viewBox="0 0 2544 173" width="2544px" zoomAndPan="magnify"><defs><filter height="300%" id="f1e4t14nscp1p2" width="300%" x="-1" y="-1"><feGaussianBlur result="blurOut" stdDeviation="2.0"/><feColorMatrix in="blurOut" result="blurOut2" type="matrix" values="0 0 0 0 0 0 0 0 0 0 0 0 0 0 0 0 0 0 .4 0"/><feOffset dx="4.0" dy="4.0" in="blurOut2" result="blurOut3"/><feBlend in="SourceGraphic" in2="blurOut3" mode="normal"/></filter></defs><g><!--MD5=[483b12a8a4a1981ac5430bdda5fd5916]
entity tictactoe--><polygon fill="#FFFFFF" filter="url(#f1e4t14nscp1p2)" points="16,121,83,121,90,144.6094,107,144.6094,107,161.6094,16,161.6094,16,121" style="stroke: #000000; stroke-width: 1.5;"/><line style="stroke: #000000; stroke-width: 1.5;" x1="16" x2="90" y1="144.6094" y2="144.6094"/><text fill="#000000" font-family="sans-serif" font-size="14" font-weight="bold" lengthAdjust="spacingAndGlyphs" textLength="61" x="20" y="138.5332">tictactoe</text><!--MD5=[bc6102f5c7110c2c1c7ba872ac02f333]
entity tictactoe.distributed--><polygon fill="#FFFFFF" filter="url(#f1e4t14nscp1p2)" points="142.5,121,290.5,121,297.5,144.6094,314.5,144.6094,314.5,161.6094,142.5,161.6094,142.5,121" style="stroke: #000000; stroke-width: 1.5;"/><line style="stroke: #000000; stroke-width: 1.5;" x1="142.5" x2="297.5" y1="144.6094" y2="144.6094"/><text fill="#000000" font-family="sans-serif" font-size="14" font-weight="bold" lengthAdjust="spacingAndGlyphs" textLength="142" x="146.5" y="138.5332">tictactoe.distributed</text><!--MD5=[4420d1aeeaa1c084ae374c955337ed05]
entity tictactoe.distributed.dispatchers--><polygon fill="#FFFFFF" filter="url(#f1e4t14nscp1p2)" points="1554,121,1789,121,1796,144.6094,1813,144.6094,1813,161.6094,1554,161.6094,1554,121" style="stroke: #000000; stroke-width: 1.5;"/><line style="stroke: #000000; stroke-width: 1.5;" x1="1554" x2="1796" y1="144.6094" y2="144.6094"/><text fill="#000000" font-family="sans-serif" font-size="14" font-weight="bold" lengthAdjust="spacingAndGlyphs" textLength="229" x="1558" y="138.5332">tictactoe.distributed.dispatchers</text><!--MD5=[daad211c4573dbe60b33f42b7411f08f]
entity tictactoe.distributed.dispatchers.errors--><polygon fill="#FFFFFF" filter="url(#f1e4t14nscp1p2)" points="1848,121,2131,121,2138,144.6094,2155,144.6094,2155,161.6094,1848,161.6094,1848,121" style="stroke: #000000; stroke-width: 1.5;"/><line style="stroke: #000000; stroke-width: 1.5;" x1="1848" x2="2138" y1="144.6094" y2="144.6094"/><text fill="#000000" font-family="sans-serif" font-size="14" font-weight="bold" lengthAdjust="spacingAndGlyphs" textLength="277" x="1852" y="138.5332">tictactoe.distributed.dispatchers.errors</text><!--MD5=[73744e03def399d5559d0b91fa4d2d9b]
entity tictactoe.distributed.dispatchers.undoredo--><polygon fill="#FFFFFF" filter="url(#f1e4t14nscp1p2)" points="2190.5,121,2498.5,121,2505.5,144.6094,2522.5,144.6094,2522.5,161.6094,2190.5,161.6094,2190.5,121" style="stroke: #000000; stroke-width: 1.5;"/><line style="stroke: #000000; stroke-width: 1.5;" x1="2190.5" x2="2505.5" y1="144.6094" y2="144.6094"/><text fill="#000000" font-family="sans-serif" font-size="14" font-weight="bold" lengthAdjust="spacingAndGlyphs" textLength="302" x="2194.5" y="138.5332">tictactoe.distributed.dispatchers.undoredo</text><!--MD5=[21ee9191f94b37e164ce8850dd375de6]
entity tictactoe.models--><polygon fill="#FFFFFF" filter="url(#f1e4t14nscp1p2)" points="349.5,121,471.5,121,478.5,144.6094,495.5,144.6094,495.5,161.6094,349.5,161.6094,349.5,121" style="stroke: #000000; stroke-width: 1.5;"/><line style="stroke: #000000; stroke-width: 1.5;" x1="349.5" x2="478.5" y1="144.6094" y2="144.6094"/><text fill="#000000" font-family="sans-serif" font-size="14" font-weight="bold" lengthAdjust="spacingAndGlyphs" textLength="116" x="353.5" y="138.5332">tictactoe.models</text><!--MD5=[d35223fd8f7d7c99496ee8d9b067ffdf]
entity tictactoe.controllers--><polygon fill="#FFFFFF" filter="url(#f1e4t14nscp1p2)" points="530.5,121,678.5,121,685.5,144.6094,702.5,144.6094,702.5,161.6094,530.5,161.6094,530.5,121" style="stroke: #000000; stroke-width: 1.5;"/><line style="stroke: #000000; stroke-width: 1.5;" x1="530.5" x2="685.5" y1="144.6094" y2="144.6094"/><text fill="#000000" font-family="sans-serif" font-size="14" font-weight="bold" lengthAdjust="spacingAndGlyphs" textLength="142" x="534.5" y="138.5332">tictactoe.controllers</text><!--MD5=[4911aefd0c1747f0d800ce616c3836ce]
entity tictactoe.controllers.implementation--><polygon fill="#FFFFFF" filter="url(#f1e4t14nscp1p2)" points="737.5,121,997.5,121,1004.5,144.6094,1021.5,144.6094,1021.5,161.6094,737.5,161.6094,737.5,121" style="stroke: #000000; stroke-width: 1.5;"/><line style="stroke: #000000; stroke-width: 1.5;" x1="737.5" x2="1004.5" y1="144.6094" y2="144.6094"/><text fill="#000000" font-family="sans-serif" font-size="14" font-weight="bold" lengthAdjust="spacingAndGlyphs" textLength="254" x="741.5" y="138.5332">tictactoe.controllers.implementation</text><!--MD5=[170e9aa8a7c5483a45070c603c759464]
entity tictactoe.views--><polygon fill="#FFFFFF" filter="url(#f1e4t14nscp1p2)" points="1056.5,121,1168.5,121,1175.5,144.6094,1192.5,144.6094,1192.5,161.6094,1056.5,161.6094,1056.5,121" style="stroke: #000000; stroke-width: 1.5;"/><line style="stroke: #000000; stroke-width: 1.5;" x1="1056.5" x2="1175.5" y1="144.6094" y2="144.6094"/><text fill="#000000" font-family="sans-serif" font-size="14" font-weight="bold" lengthAdjust="spacingAndGlyphs" textLength="106" x="1060.5" y="138.5332">tictactoe.views</text><!--MD5=[815e17c207bbf712f7f26918c1feb6f8]
entity utils--><polygon fill="#FFFFFF" filter="url(#f1e4t14nscp1p2)" points="1227.5,121,1263.5,121,1270.5,144.6094,1287.5,144.6094,1287.5,161.6094,1227.5,161.6094,1227.5,121" style="stroke: #000000; stroke-width: 1.5;"/><line style="stroke: #000000; stroke-width: 1.5;" x1="1227.5" x2="1270.5" y1="144.6094" y2="144.6094"/><text fill="#000000" font-family="sans-serif" font-size="14" font-weight="bold" lengthAdjust="spacingAndGlyphs" textLength="30" x="1231.5" y="138.5332">utils</text><!--MD5=[48fa9072fd51d9920e6db8484beec696]
entity java.io--><polygon fill="#FFFFFF" filter="url(#f1e4t14nscp1p2)" points="1322.5,121,1374.5,121,1381.5,144.6094,1398.5,144.6094,1398.5,161.6094,1322.5,161.6094,1322.5,121" style="stroke: #000000; stroke-width: 1.5;"/><line style="stroke: #000000; stroke-width: 1.5;" x1="1322.5" x2="1381.5" y1="144.6094" y2="144.6094"/><text fill="#000000" font-family="sans-serif" font-size="14" font-weight="bold" lengthAdjust="spacingAndGlyphs" textLength="46" x="1326.5" y="138.5332">java.io</text><!--MD5=[034f0f7ed136bf78fc117f7e41f76e93]
entity java.util--><polygon fill="#FFFFFF" filter="url(#f1e4t14nscp1p2)" points="1434,121,1495,121,1502,144.6094,1519,144.6094,1519,161.6094,1434,161.6094,1434,121" style="stroke: #000000; stroke-width: 1.5;"/><line style="stroke: #000000; stroke-width: 1.5;" x1="1434" x2="1502" y1="144.6094" y2="144.6094"/><text fill="#000000" font-family="sans-serif" font-size="14" font-weight="bold" lengthAdjust="spacingAndGlyphs" textLength="55" x="1438" y="138.5332">java.util</text><!--MD5=[0d115cc3126806fe6665d5d004f14955]
entity jarServer--><rect fill="#FEFECE" filter="url(#f1e4t14nscp1p2)" height="47.6094" style="stroke: #A80036; stroke-width: 1.5;" width="155" x="802" y="7"/><rect fill="#FEFECE" height="10" style="stroke: #A80036; stroke-width: 1.5;" width="15" x="937" y="12"/><rect fill="#FEFECE" height="2" style="stroke: #A80036; stroke-width: 1.5;" width="4" x="935" y="14"/><rect fill="#FEFECE" height="2" style="stroke: #A80036; stroke-width: 1.5;" width="4" x="935" y="18"/><text fill="#000000" font-family="sans-serif" font-size="14" lengthAdjust="spacingAndGlyphs" textLength="115" x="817" y="41.5332">tictactoeServer.jar</text><!--MD5=[a6a51606d0752e41353840c3c1bca06a]
entity jarClient--><ellipse cx="2001.5" cy="31" fill="#FEFECE" filter="url(#f1e4t14nscp1p2)" rx="8" ry="8" style="stroke: #A80036; stroke-width: 2.0;"/><text fill="#000000" font-family="sans-serif" font-size="14" lengthAdjust="spacingAndGlyphs" textLength="52" x="1975.5" y="62.5332">jarClient</text><!--MD5=[49ae3ffe237487e70dd5e8dddae114d0]
link jarServer to tictactoe--><path d="M789.87,37.2469 C789.87,37.2469 361.064,70.8859 124.5,121 C122.893,121.3404 121.269,121.7038 119.634,122.0866 " fill="none" id="jarServer-tictactoe" style="stroke: #A80036; stroke-width: 1.0;"/><polygon fill="#A80036" points="107.0058,125.3414,116.7193,126.9688,111.8476,124.0936,114.7228,119.2219,107.0058,125.3414" style="stroke: #A80036; stroke-width: 1.0;"/><line style="stroke: #A80036; stroke-width: 1.0;" x1="111.8476" x2="119.5945" y1="124.0936" y2="122.0967"/><polygon fill="#A80036" points="801.844,36.457,795.5937,32.8606,789.87,37.2469,796.1203,40.8433,801.844,36.457" style="stroke: #A80036; stroke-width: 1.0;"/><!--MD5=[3272468af9f5055da1892d56776b769f]
link jarServer to tictactoe.distributed--><path d="M789.9437,45.8098 C789.9437,45.8098 492.277,92.73 331.5,121 C330.219,121.2253 328.929,121.4532 327.631,121.6834 " fill="none" id="jarServer-tictactoe.distributed" style="stroke: #A80036; stroke-width: 1.0;"/><polygon fill="#A80036" points="314.737,124.002,324.303,126.3455,319.658,123.1168,322.8867,118.4719,314.737,124.002" style="stroke: #A80036; stroke-width: 1.0;"/><line style="stroke: #A80036; stroke-width: 1.0;" x1="319.658" x2="327.5315" y1="123.1168" y2="121.7013"/><polygon fill="#A80036" points="801.801,43.965,795.2574,40.9349,789.9437,45.8098,796.4873,48.8398,801.801,43.965" style="stroke: #A80036; stroke-width: 1.0;"/><!--MD5=[16c52a86c8b83105508491ca417863e6]
link jarClient to tictactoe.distributed.dispatchers--><path d="M1980.9735,39.0069 C1980.9735,39.0069 1825.79,91.9514 1753.55,116.6003 " fill="none" id="jarClient-tictactoe.distributed.dispatchers" style="stroke: #A80036; stroke-width: 1.0;"/><polygon fill="#A80036" points="1740.95,120.8996,1750.7596,121.7776,1745.6819,119.2843,1748.1752,114.2065,1740.95,120.8996" style="stroke: #A80036; stroke-width: 1.0;"/><line style="stroke: #A80036; stroke-width: 1.0;" x1="1745.6819" x2="1753.25" y1="119.2843" y2="116.7017"/><polygon fill="#A80036" points="1992.33,35.13,1985.3595,33.283,1980.9735,39.0069,1987.9441,40.854,1992.33,35.13" style="stroke: #A80036; stroke-width: 1.0;"/><!--MD5=[ab368545b17553a6613fe3c5925fbf4e]
link jarClient to tictactoe.distributed.dispatchers.errors--><path d="M2001.5,52.155 C2001.5,52.155 2001.5,89.8353 2001.5,107.4584 " fill="none" id="jarClient-tictactoe.distributed.dispatchers.errors" style="stroke: #A80036; stroke-width: 1.0;"/><polygon fill="#A80036" points="2001.5,120.6547,2005.5,111.6547,2001.5,115.6547,1997.5,111.6547,2001.5,120.6547" style="stroke: #A80036; stroke-width: 1.0;"/><line style="stroke: #A80036; stroke-width: 1.0;" x1="2001.5" x2="2001.5" y1="115.6547" y2="107.6547"/><polygon fill="#A80036" points="2001.5,40.155,1997.5,46.155,2001.5,52.155,2005.5,46.155,2001.5,40.155" style="stroke: #A80036; stroke-width: 1.0;"/><!--MD5=[fd630eba4eaee002b466186ef5ed5f03]
link jarClient to tictactoe.distributed.dispatchers.undoredo--><path d="M2022.1058,38.2989 C2022.1058,38.2989 2197.86,92.0145 2279.85,117.0725 " fill="none" id="jarClient-tictactoe.distributed.dispatchers.undoredo" style="stroke: #A80036; stroke-width: 1.0;"/><polygon fill="#A80036" points="2292.37,120.8993,2284.9323,114.4432,2287.5884,119.4378,2282.5939,122.0938,2292.37,120.8993" style="stroke: #A80036; stroke-width: 1.0;"/><line style="stroke: #A80036; stroke-width: 1.0;" x1="2287.5884" x2="2279.94" y1="119.4378" y2="117.0995"/><polygon fill="#A80036" points="2010.63,34.791,2015.1986,40.3702,2022.1058,38.2989,2017.5372,32.7197,2010.63,34.791" style="stroke: #A80036; stroke-width: 1.0;"/><!--MD5=[aa18e39e8f878424e538d7bf6f652f2c]
link jarServer to tictactoe.models--><path d="M790.3005,53.1778 C790.3005,53.1778 588.967,100.9778 508.867,119.995 " fill="none" id="jarServer-tictactoe.models" style="stroke: #A80036; stroke-width: 1.0;"/><polygon fill="#A80036" points="495.862,123.0826,505.5426,124.8955,500.7268,121.9277,503.6947,117.1119,495.862,123.0826" style="stroke: #A80036; stroke-width: 1.0;"/><line style="stroke: #A80036; stroke-width: 1.0;" x1="500.7268" x2="508.51" y1="121.9277" y2="120.0797"/><polygon fill="#A80036" points="801.976,50.406,795.2143,47.9001,790.3005,53.1778,797.0622,55.6837,801.976,50.406" style="stroke: #A80036; stroke-width: 1.0;"/><!--MD5=[39077666b121fc2ae6525f4dfe3566f0]
link jarServer to tictactoe.controllers--><path d="M812.6308,59.586 C812.6308,59.586 716.229,99.3572 675.9,115.9945 " fill="none" id="jarServer-tictactoe.controllers" style="stroke: #A80036; stroke-width: 1.0;"/><polygon fill="#A80036" points="663.832,120.9731,673.6773,121.2389,668.4542,119.0665,670.6266,113.8434,663.832,120.9731" style="stroke: #A80036; stroke-width: 1.0;"/><line style="stroke: #A80036; stroke-width: 1.0;" x1="668.4542" x2="675.85" y1="119.0665" y2="116.0153"/><polygon fill="#A80036" points="823.724,55.01,816.652,53.6003,812.6308,59.586,819.7027,60.9958,823.724,55.01" style="stroke: #A80036; stroke-width: 1.0;"/><!--MD5=[3361f83fbf5b72d07e7ed0f01e3aee56]
link jarServer to tictactoe.controllers.implementation--><path d="M879.5,67.01 C879.5,67.01 879.5,95.1241 879.5,107.6254 " fill="none" id="jarServer-tictactoe.controllers.implementation" style="stroke: #A80036; stroke-width: 1.0;"/><polygon fill="#A80036" points="879.5,120.7964,883.5,111.7964,879.5,115.7964,875.5,111.7964,879.5,120.7964" style="stroke: #A80036; stroke-width: 1.0;"/><line style="stroke: #A80036; stroke-width: 1.0;" x1="879.5" x2="879.5" y1="115.7964" y2="107.7965"/><polygon fill="#A80036" points="879.5,55.01,875.5,61.01,879.5,67.01,883.5,61.01,879.5,55.01" style="stroke: #A80036; stroke-width: 1.0;"/><!--MD5=[4cbba630b08d96496e1f162a4871c692]
link jarServer to tictactoe.views--><path d="M942.4301,59.8693 C942.4301,59.8693 1031.08,99.1268 1068.27,115.5989 " fill="none" id="jarServer-tictactoe.views" style="stroke: #A80036; stroke-width: 1.0;"/><polygon fill="#A80036" points="1080.41,120.9731,1073.797,113.6746,1075.8373,118.9507,1070.5612,120.9909,1080.41,120.9731" style="stroke: #A80036; stroke-width: 1.0;"/><line style="stroke: #A80036; stroke-width: 1.0;" x1="1075.8373" x2="1068.52" y1="118.9507" y2="115.7091"/><polygon fill="#A80036" points="931.458,55.01,935.3243,61.097,942.4301,59.8693,938.5638,53.7823,931.458,55.01" style="stroke: #A80036; stroke-width: 1.0;"/><!--MD5=[6bbade547dbfa8111ef9d1300a2afab1]
link jarServer to utils--><path d="M968.9694,52.9801 C968.9694,52.9801 1129.76,94.1607 1209.5,121 C1211.34,121.6187 1213.21,122.2715 1215.09,122.9482 " fill="none" id="jarServer-utils" style="stroke: #A80036; stroke-width: 1.0;"/><polygon fill="#A80036" points="1227.5,127.6553,1220.5056,120.7215,1222.8255,125.8807,1217.6663,128.2007,1227.5,127.6553" style="stroke: #A80036; stroke-width: 1.0;"/><line style="stroke: #A80036; stroke-width: 1.0;" x1="1222.8255" x2="1215.345" y1="125.8807" y2="123.0444"/><polygon fill="#A80036" points="957.313,50.129,962.1908,55.44,968.9694,52.9801,964.0916,47.6691,957.313,50.129" style="stroke: #A80036; stroke-width: 1.0;"/><!--MD5=[2499a1e8af06fc89889ed101064edb54]
link jarServer to java.io--><path d="M969.1959,47.3173 C969.1959,47.3173 1190.67,89.4042 1304.5,121 C1306.24,121.4823 1308,121.9899 1309.77,122.517 " fill="none" id="jarServer-java.io" style="stroke: #A80036; stroke-width: 1.0;"/><polygon fill="#A80036" points="1322.45,126.5159,1315.0719,119.9918,1317.682,125.0105,1312.6633,127.6206,1322.45,126.5159" style="stroke: #A80036; stroke-width: 1.0;"/><line style="stroke: #A80036; stroke-width: 1.0;" x1="1317.682" x2="1310.05" y1="125.0105" y2="122.6046"/><polygon fill="#A80036" points="957.384,45.201,962.5845,50.1965,969.1959,47.3173,963.9954,42.3219,957.384,45.201" style="stroke: #A80036; stroke-width: 1.0;"/><!--MD5=[ddafa1d433952cb5022b9c2195af1a6b]
link jarServer to java.util--><path d="M969.3339,42.8691 C969.3339,42.8691 1261.02,83.6915 1415.5,121 C1417.36,121.4486 1419.24,121.9249 1421.14,122.4231 " fill="none" id="jarServer-java.util" style="stroke: #A80036; stroke-width: 1.0;"/><polygon fill="#A80036" points="1433.73,125.9685,1426.1534,119.6761,1428.9177,124.6115,1423.9822,127.3758,1433.73,125.9685" style="stroke: #A80036; stroke-width: 1.0;"/><line style="stroke: #A80036; stroke-width: 1.0;" x1="1428.9177" x2="1421.215" y1="124.6115" y2="122.4453"/><polygon fill="#A80036" points="957.432,41.338,962.8726,46.0709,969.3339,42.8691,963.8933,38.1362,957.432,41.338" style="stroke: #A80036; stroke-width: 1.0;"/><!--MD5=[885096c0bfcb7a274654834102c240bd]
@startuml

package "  "  as tictactoe {
}
package "  "  as tictactoe.distributed {
}
package "  "  as tictactoe.distributed.dispatchers {
}
package "  "  as tictactoe.distributed.dispatchers.errors {
}
package "  "  as tictactoe.distributed.dispatchers.undoredo {
}
package "  "  as tictactoe.models {
}
package "  "  as tictactoe.controllers {
}
package "  "  as tictactoe.controllers.implementation {
}
package "  "  as tictactoe.views {
}
package "  "  as utils {
}
package "  "  as java.io {
}
package "  "  as java.util {
}

[tictactoeServer.jar] as jarServer

jarServer *- -> tictactoe
jarServer *- -> tictactoe.distributed
jarClient *- -> tictactoe.distributed.dispatchers
jarClient *- -> tictactoe.distributed.dispatchers.errors
jarClient *- -> tictactoe.distributed.dispatchers.undoredo
jarServer *- -> tictactoe.models
jarServer *- -> tictactoe.controllers
jarServer *- -> tictactoe.controllers.implementation
jarServer *- -> tictactoe.views
jarServer *- -> utils
jarServer *- -> java.io
jarServer *- -> java.util
@enduml

PlantUML version 1.2020.15(Sun Jun 28 13:39:45 CEST 2020)
(GPL source distribution)
Java Runtime: Java(TM) SE Runtime Environment
JVM: Java HotSpot(TM) 64-Bit Server VM
Default Encoding: windows-1252
Language: es
Country: ES
--></g></svg>