<?xml version="1.0" encoding="UTF-8" standalone="no"?><svg xmlns="http://www.w3.org/2000/svg" xmlns:xlink="http://www.w3.org/1999/xlink" contentScriptType="application/ecmascript" contentStyleType="text/css" height="311px" preserveAspectRatio="none" style="width:447px;height:311px;" version="1.1" viewBox="0 0 447 311" width="447px" zoomAndPan="magnify"><defs><filter height="300%" id="f5em4jcvn0k8o" width="300%" x="-1" y="-1"><feGaussianBlur result="blurOut" stdDeviation="2.0"/><feColorMatrix in="blurOut" result="blurOut2" type="matrix" values="0 0 0 0 0 0 0 0 0 0 0 0 0 0 0 0 0 0 .4 0"/><feOffset dx="4.0" dy="4.0" in="blurOut2" result="blurOut3"/><feBlend in="SourceGraphic" in2="blurOut3" mode="normal"/></filter></defs><g><!--MD5=[807bc46d8103c809ff053af9e140e1f5]
cluster tictactoe--><polygon fill="#FFFFFF" filter="url(#f5em4jcvn0k8o)" points="171,6,238,6,245,29.6094,319,29.6094,319,175,171,175,171,6" style="stroke: #000000; stroke-width: 1.5;"/><line style="stroke: #000000; stroke-width: 1.5;" x1="171" x2="245" y1="29.6094" y2="29.6094"/><text fill="#000000" font-family="sans-serif" font-size="14" font-weight="bold" lengthAdjust="spacingAndGlyphs" textLength="61" x="175" y="22.5332">tictactoe</text><!--MD5=[f4e83a21a957c5b9ba9691e6361db36b]
cluster tictactoe.views--><polygon fill="#FFFFFF" filter="url(#f5em4jcvn0k8o)" points="16,199,128,199,135,222.6094,138,222.6094,138,299,16,299,16,199" style="stroke: #000000; stroke-width: 1.5;"/><line style="stroke: #000000; stroke-width: 1.5;" x1="16" x2="135" y1="222.6094" y2="222.6094"/><text fill="#000000" font-family="sans-serif" font-size="14" font-weight="bold" lengthAdjust="spacingAndGlyphs" textLength="106" x="20" y="215.5332">tictactoe.views</text><!--MD5=[ee7e9a007a7c4d40c0679a27f272732d]
cluster tictactoe.controllers--><polygon fill="#FFFFFF" filter="url(#f5em4jcvn0k8o)" points="162,199,310,199,317,222.6094,425,222.6094,425,299,162,299,162,199" style="stroke: #000000; stroke-width: 1.5;"/><line style="stroke: #000000; stroke-width: 1.5;" x1="162" x2="317" y1="222.6094" y2="222.6094"/><text fill="#000000" font-family="sans-serif" font-size="14" font-weight="bold" lengthAdjust="spacingAndGlyphs" textLength="142" x="166" y="215.5332">tictactoe.controllers</text><!--MD5=[dcfee6ff2a733e6a859ce2b7bcbe021e]
class tictactoe.TicTacToe--><rect fill="#FEFECE" filter="url(#f5em4jcvn0k8o)" height="117.1797" id="tictactoe.TicTacToe" style="stroke: #A80036; stroke-width: 1.5;" width="116" x="187" y="42"/><ellipse cx="214.15" cy="58" fill="#ADD1B2" rx="11" ry="11" style="stroke: #A80036; stroke-width: 1.0;"/><path d="M216.9156,53.875 Q217.0719,53.6563 217.2594,53.5469 Q217.4469,53.4375 217.6656,53.4375 Q218.0406,53.4375 218.275,53.7031 Q218.5094,53.9531 218.5094,54.5625 L218.5094,56.0156 Q218.5094,56.625 218.275,56.8906 Q218.0406,57.1563 217.6656,57.1563 Q217.3219,57.1563 217.1188,56.9531 Q216.9156,56.7656 216.8063,56.25 Q216.7594,55.8906 216.5719,55.7031 Q216.2438,55.3281 215.6344,55.1094 Q215.025,54.8906 214.4,54.8906 Q213.6344,54.8906 212.9938,55.2188 Q212.3688,55.5469 211.8688,56.2969 Q211.3844,57.0469 211.3844,58.0781 L211.3844,59.1719 Q211.3844,60.4063 212.275,61.2344 Q213.1656,62.0469 214.7594,62.0469 Q215.6969,62.0469 216.3531,61.7969 Q216.7438,61.6406 217.1656,61.2031 Q217.4313,60.9375 217.5719,60.8594 Q217.7281,60.7813 217.9313,60.7813 Q218.2594,60.7813 218.5094,61.0469 Q218.775,61.2969 218.775,61.6406 Q218.775,61.9844 218.4313,62.3906 Q217.9313,62.9688 217.1344,63.2969 Q216.0563,63.75 214.7594,63.75 Q213.2438,63.75 212.0406,63.125 Q211.0563,62.625 210.3688,61.5625 Q209.6813,60.4844 209.6813,59.2031 L209.6813,58.0469 Q209.6813,56.7188 210.2906,55.5781 Q210.9156,54.4219 212.0094,53.8125 Q213.1031,53.1875 214.3375,53.1875 Q215.0719,53.1875 215.7125,53.3594 Q216.3688,53.5156 216.9156,53.875 Z "/><text fill="#000000" font-family="sans-serif" font-size="12" lengthAdjust="spacingAndGlyphs" textLength="57" x="230.85" y="62.9102">TicTacToe</text><line style="stroke: #A80036; stroke-width: 1.5;" x1="188" x2="302" y1="74" y2="74"/><rect fill="none" height="6" style="stroke: #C82930; stroke-width: 1.0;" width="6" x="195" y="82"/><text fill="#000000" font-family="sans-serif" font-size="11" lengthAdjust="spacingAndGlyphs" textLength="54" x="207" y="89.4189">logic: Logic</text><rect fill="none" height="6" style="stroke: #C82930; stroke-width: 1.0;" width="6" x="195" y="95.8359"/><text fill="#000000" font-family="sans-serif" font-size="11" lengthAdjust="spacingAndGlyphs" textLength="56" x="207" y="103.2549">view: View</text><line style="stroke: #A80036; stroke-width: 1.5;" x1="188" x2="302" y1="109.6719" y2="109.6719"/><polygon fill="#FFFF44" points="198,115.6719,202,119.6719,198,123.6719,194,119.6719" style="stroke: #B38D22; stroke-width: 1.0;"/><text fill="#000000" font-family="sans-serif" font-size="11" lengthAdjust="spacingAndGlyphs" textLength="58" x="207" y="125.0908">TicTacToe()</text><polygon fill="#FFFF44" points="198,129.5078,202,133.5078,198,137.5078,194,133.5078" style="stroke: #B38D22; stroke-width: 1.0;"/><text fill="#000000" font-family="sans-serif" font-size="11" lengthAdjust="spacingAndGlyphs" textLength="54" x="207" y="138.9268">play(): void</text><ellipse cx="198" cy="148.3438" fill="#84BE84" rx="3" ry="3" style="stroke: #038048; stroke-width: 1.0;"/><text fill="#000000" font-family="sans-serif" font-size="11" lengthAdjust="spacingAndGlyphs" text-decoration="underline" textLength="90" x="207" y="152.7627">main(String[]): void</text><!--MD5=[015754420c4cdd9bacda884b3fa8c6ca]
class tictactoe.views.View--><rect fill="#FEFECE" filter="url(#f5em4jcvn0k8o)" height="48" id="tictactoe.views.View" style="stroke: #A80036; stroke-width: 1.5;" width="58" x="64" y="235"/><ellipse cx="79" cy="251" fill="#ADD1B2" rx="11" ry="11" style="stroke: #A80036; stroke-width: 1.0;"/><path d="M81.7656,246.875 Q81.9219,246.6563 82.1094,246.5469 Q82.2969,246.4375 82.5156,246.4375 Q82.8906,246.4375 83.125,246.7031 Q83.3594,246.9531 83.3594,247.5625 L83.3594,249.0156 Q83.3594,249.625 83.125,249.8906 Q82.8906,250.1563 82.5156,250.1563 Q82.1719,250.1563 81.9688,249.9531 Q81.7656,249.7656 81.6563,249.25 Q81.6094,248.8906 81.4219,248.7031 Q81.0938,248.3281 80.4844,248.1094 Q79.875,247.8906 79.25,247.8906 Q78.4844,247.8906 77.8438,248.2188 Q77.2188,248.5469 76.7188,249.2969 Q76.2344,250.0469 76.2344,251.0781 L76.2344,252.1719 Q76.2344,253.4063 77.125,254.2344 Q78.0156,255.0469 79.6094,255.0469 Q80.5469,255.0469 81.2031,254.7969 Q81.5938,254.6406 82.0156,254.2031 Q82.2813,253.9375 82.4219,253.8594 Q82.5781,253.7813 82.7813,253.7813 Q83.1094,253.7813 83.3594,254.0469 Q83.625,254.2969 83.625,254.6406 Q83.625,254.9844 83.2813,255.3906 Q82.7813,255.9688 81.9844,256.2969 Q80.9063,256.75 79.6094,256.75 Q78.0938,256.75 76.8906,256.125 Q75.9063,255.625 75.2188,254.5625 Q74.5313,253.4844 74.5313,252.2031 L74.5313,251.0469 Q74.5313,249.7188 75.1406,248.5781 Q75.7656,247.4219 76.8594,246.8125 Q77.9531,246.1875 79.1875,246.1875 Q79.9219,246.1875 80.5625,246.3594 Q81.2188,246.5156 81.7656,246.875 Z "/><text fill="#000000" font-family="sans-serif" font-size="12" lengthAdjust="spacingAndGlyphs" textLength="26" x="93" y="255.9102">View</text><line style="stroke: #A80036; stroke-width: 1.5;" x1="65" x2="121" y1="267" y2="267"/><line style="stroke: #A80036; stroke-width: 1.5;" x1="65" x2="121" y1="275" y2="275"/><!--MD5=[3b8962fd5847b9038b2e29740dae8054]
class tictactoe.controllers.Logic--><rect fill="#FEFECE" filter="url(#f5em4jcvn0k8o)" height="48" id="tictactoe.controllers.Logic" style="stroke: #A80036; stroke-width: 1.5;" width="62" x="347" y="235"/><ellipse cx="362" cy="251" fill="#ADD1B2" rx="11" ry="11" style="stroke: #A80036; stroke-width: 1.0;"/><path d="M364.7656,246.875 Q364.9219,246.6563 365.1094,246.5469 Q365.2969,246.4375 365.5156,246.4375 Q365.8906,246.4375 366.125,246.7031 Q366.3594,246.9531 366.3594,247.5625 L366.3594,249.0156 Q366.3594,249.625 366.125,249.8906 Q365.8906,250.1563 365.5156,250.1563 Q365.1719,250.1563 364.9688,249.9531 Q364.7656,249.7656 364.6563,249.25 Q364.6094,248.8906 364.4219,248.7031 Q364.0938,248.3281 363.4844,248.1094 Q362.875,247.8906 362.25,247.8906 Q361.4844,247.8906 360.8438,248.2188 Q360.2188,248.5469 359.7188,249.2969 Q359.2344,250.0469 359.2344,251.0781 L359.2344,252.1719 Q359.2344,253.4063 360.125,254.2344 Q361.0156,255.0469 362.6094,255.0469 Q363.5469,255.0469 364.2031,254.7969 Q364.5938,254.6406 365.0156,254.2031 Q365.2813,253.9375 365.4219,253.8594 Q365.5781,253.7813 365.7813,253.7813 Q366.1094,253.7813 366.3594,254.0469 Q366.625,254.2969 366.625,254.6406 Q366.625,254.9844 366.2813,255.3906 Q365.7813,255.9688 364.9844,256.2969 Q363.9063,256.75 362.6094,256.75 Q361.0938,256.75 359.8906,256.125 Q358.9063,255.625 358.2188,254.5625 Q357.5313,253.4844 357.5313,252.2031 L357.5313,251.0469 Q357.5313,249.7188 358.1406,248.5781 Q358.7656,247.4219 359.8594,246.8125 Q360.9531,246.1875 362.1875,246.1875 Q362.9219,246.1875 363.5625,246.3594 Q364.2188,246.5156 364.7656,246.875 Z "/><text fill="#000000" font-family="sans-serif" font-size="12" lengthAdjust="spacingAndGlyphs" textLength="30" x="376" y="255.9102">Logic</text><line style="stroke: #A80036; stroke-width: 1.5;" x1="348" x2="408" y1="267" y2="267"/><line style="stroke: #A80036; stroke-width: 1.5;" x1="348" x2="408" y1="275" y2="275"/><!--MD5=[294b28e7c71f580fcd8922373db841ed]
class tictactoe.controllers.AcceptorController--><rect fill="#FEFECE" filter="url(#f5em4jcvn0k8o)" height="48" id="tictactoe.controllers.AcceptorController" style="stroke: #A80036; stroke-width: 1.5;" width="133" x="178.5" y="235"/><ellipse cx="193.5" cy="251" fill="#ADD1B2" rx="11" ry="11" style="stroke: #A80036; stroke-width: 1.0;"/><path d="M196.2656,246.875 Q196.4219,246.6563 196.6094,246.5469 Q196.7969,246.4375 197.0156,246.4375 Q197.3906,246.4375 197.625,246.7031 Q197.8594,246.9531 197.8594,247.5625 L197.8594,249.0156 Q197.8594,249.625 197.625,249.8906 Q197.3906,250.1563 197.0156,250.1563 Q196.6719,250.1563 196.4688,249.9531 Q196.2656,249.7656 196.1563,249.25 Q196.1094,248.8906 195.9219,248.7031 Q195.5938,248.3281 194.9844,248.1094 Q194.375,247.8906 193.75,247.8906 Q192.9844,247.8906 192.3438,248.2188 Q191.7188,248.5469 191.2188,249.2969 Q190.7344,250.0469 190.7344,251.0781 L190.7344,252.1719 Q190.7344,253.4063 191.625,254.2344 Q192.5156,255.0469 194.1094,255.0469 Q195.0469,255.0469 195.7031,254.7969 Q196.0938,254.6406 196.5156,254.2031 Q196.7813,253.9375 196.9219,253.8594 Q197.0781,253.7813 197.2813,253.7813 Q197.6094,253.7813 197.8594,254.0469 Q198.125,254.2969 198.125,254.6406 Q198.125,254.9844 197.7813,255.3906 Q197.2813,255.9688 196.4844,256.2969 Q195.4063,256.75 194.1094,256.75 Q192.5938,256.75 191.3906,256.125 Q190.4063,255.625 189.7188,254.5625 Q189.0313,253.4844 189.0313,252.2031 L189.0313,251.0469 Q189.0313,249.7188 189.6406,248.5781 Q190.2656,247.4219 191.3594,246.8125 Q192.4531,246.1875 193.6875,246.1875 Q194.4219,246.1875 195.0625,246.3594 Q195.7188,246.5156 196.2656,246.875 Z "/><text fill="#000000" font-family="sans-serif" font-size="12" lengthAdjust="spacingAndGlyphs" textLength="101" x="207.5" y="255.9102">AcceptorController</text><line style="stroke: #A80036; stroke-width: 1.5;" x1="179.5" x2="310.5" y1="267" y2="267"/><line style="stroke: #A80036; stroke-width: 1.5;" x1="179.5" x2="310.5" y1="275" y2="275"/><!--MD5=[2e9845d2d438f1c6c29fdc19d0711783]
link tictactoe.TicTacToe to tictactoe.views.View--><path d="M188.833,159.33 C165.048,183.819 138.476,211.177 119.357,230.8628 " fill="none" id="tictactoe.TicTacToe-&gt;tictactoe.views.View" style="stroke: #A80036; stroke-width: 1.0;"/><polygon fill="#A80036" points="115.635,234.6945,124.7753,231.0265,119.1191,231.1083,119.0374,225.452,115.635,234.6945" style="stroke: #A80036; stroke-width: 1.0;"/><!--MD5=[e63e3ab671b1ac769a6a0410c90c40ce]
link tictactoe.TicTacToe to tictactoe.controllers.Logic--><path d="M301.18,159.304 C310.687,169.662 320.292,180.504 329,191 C339.499,203.654 350.373,218.3385 359.203,230.729 " fill="none" id="tictactoe.TicTacToe-&gt;tictactoe.controllers.Logic" style="stroke: #A80036; stroke-width: 1.0;"/><polygon fill="#A80036" points="362.115,234.8369,360.174,225.1812,359.2237,230.7577,353.6472,229.8073,362.115,234.8369" style="stroke: #A80036; stroke-width: 1.0;"/><!--MD5=[41f4deb364fa6ba7fda421627349cb62]
link tictactoe.TicTacToe to tictactoe.controllers.AcceptorController--><path d="M245,159.33 C245,183.309 245,210.039 245,229.6226 " fill="none" id="tictactoe.TicTacToe-&gt;tictactoe.controllers.AcceptorController" style="stroke: #A80036; stroke-width: 1.0; stroke-dasharray: 7.0,7.0;"/><polygon fill="#A80036" points="245,234.6945,249,225.6945,245,229.6945,241,225.6945,245,234.6945" style="stroke: #A80036; stroke-width: 1.0;"/><!--MD5=[30a811f1bc0c2c7aa68f3ed30ea269e4]
@startuml

class  tictactoe.TicTacToe{
- logic: Logic
- view: View
# TicTacToe()
# play(): void
+ {static} main(String[]): void
}
tictactoe.TicTacToe - -> tictactoe.views.View
tictactoe.TicTacToe - -> tictactoe.controllers.Logic
tictactoe.TicTacToe ..> tictactoe.controllers.AcceptorController

@enduml

PlantUML version 1.2020.15(Sun Jun 28 13:39:45 CEST 2020)
(GPL source distribution)
Java Runtime: Java(TM) SE Runtime Environment
JVM: Java HotSpot(TM) 64-Bit Server VM
Default Encoding: windows-1252
Language: es
Country: ES
--></g></svg>