<?xml version="1.0" encoding="UTF-8" standalone="no"?><svg xmlns="http://www.w3.org/2000/svg" xmlns:xlink="http://www.w3.org/1999/xlink" contentScriptType="application/ecmascript" contentStyleType="text/css" height="666px" preserveAspectRatio="none" style="width:1169px;height:666px;" version="1.1" viewBox="0 0 1169 666" width="1169px" zoomAndPan="magnify"><defs><filter height="300%" id="f1xik9s63quvlq" width="300%" x="-1" y="-1"><feGaussianBlur result="blurOut" stdDeviation="2.0"/><feColorMatrix in="blurOut" result="blurOut2" type="matrix" values="0 0 0 0 0 0 0 0 0 0 0 0 0 0 0 0 0 0 .4 0"/><feOffset dx="4.0" dy="4.0" in="blurOut2" result="blurOut3"/><feBlend in="SourceGraphic" in2="blurOut3" mode="normal"/></filter></defs><g><!--MD5=[64182ab34c08ac367bbf699869515711]
cluster tictactoe.views.console--><polygon fill="#FFFFFF" filter="url(#f1xik9s63quvlq)" points="198,130,370,130,377,153.6094,960,153.6094,960,654,198,654,198,130" style="stroke: #000000; stroke-width: 1.5;"/><line style="stroke: #000000; stroke-width: 1.5;" x1="198" x2="377" y1="153.6094" y2="153.6094"/><text fill="#000000" font-family="sans-serif" font-size="14" font-weight="bold" lengthAdjust="spacingAndGlyphs" textLength="166" x="202" y="146.5332">tictactoe.views.console</text><!--MD5=[c52f45833d539af9e29a9d34b8b7302b]
cluster utils--><polygon fill="#FFFFFF" filter="url(#f1xik9s63quvlq)" points="985,178.5,1021,178.5,1028,202.1094,1147,202.1094,1147,278.5,985,278.5,985,178.5" style="stroke: #000000; stroke-width: 1.5;"/><line style="stroke: #000000; stroke-width: 1.5;" x1="985" x2="1028" y1="202.1094" y2="202.1094"/><text fill="#000000" font-family="sans-serif" font-size="14" font-weight="bold" lengthAdjust="spacingAndGlyphs" textLength="30" x="989" y="195.0332">utils</text><!--MD5=[f4e83a21a957c5b9ba9691e6361db36b]
cluster tictactoe.views--><polygon fill="#FFFFFF" filter="url(#f1xik9s63quvlq)" points="363,6,475,6,482,29.6094,701,29.6094,701,106,363,106,363,6" style="stroke: #000000; stroke-width: 1.5;"/><line style="stroke: #000000; stroke-width: 1.5;" x1="363" x2="482" y1="29.6094" y2="29.6094"/><text fill="#000000" font-family="sans-serif" font-size="14" font-weight="bold" lengthAdjust="spacingAndGlyphs" textLength="106" x="367" y="22.5332">tictactoe.views</text><!--MD5=[ee7e9a007a7c4d40c0679a27f272732d]
cluster tictactoe.controllers--><polygon fill="#FFFFFF" filter="url(#f1xik9s63quvlq)" points="16,519.5,164,519.5,171,543.1094,174,543.1094,174,619.5,16,619.5,16,519.5" style="stroke: #000000; stroke-width: 1.5;"/><line style="stroke: #000000; stroke-width: 1.5;" x1="16" x2="171" y1="543.1094" y2="543.1094"/><text fill="#000000" font-family="sans-serif" font-size="14" font-weight="bold" lengthAdjust="spacingAndGlyphs" textLength="142" x="20" y="536.0332">tictactoe.controllers</text><!--MD5=[270aad5bca7cd81b5a24665b2403b70b]
class tictactoe.views.console.BoardView--><rect fill="#FEFECE" filter="url(#f1xik9s63quvlq)" height="117.1797" id="tictactoe.views.console.BoardView" style="stroke: #A80036; stroke-width: 1.5;" width="201" x="391.5" y="521"/><ellipse cx="458.25" cy="537" fill="#ADD1B2" rx="11" ry="11" style="stroke: #A80036; stroke-width: 1.0;"/><path d="M461.0156,532.875 Q461.1719,532.6563 461.3594,532.5469 Q461.5469,532.4375 461.7656,532.4375 Q462.1406,532.4375 462.375,532.7031 Q462.6094,532.9531 462.6094,533.5625 L462.6094,535.0156 Q462.6094,535.625 462.375,535.8906 Q462.1406,536.1563 461.7656,536.1563 Q461.4219,536.1563 461.2188,535.9531 Q461.0156,535.7656 460.9063,535.25 Q460.8594,534.8906 460.6719,534.7031 Q460.3438,534.3281 459.7344,534.1094 Q459.125,533.8906 458.5,533.8906 Q457.7344,533.8906 457.0938,534.2188 Q456.4688,534.5469 455.9688,535.2969 Q455.4844,536.0469 455.4844,537.0781 L455.4844,538.1719 Q455.4844,539.4063 456.375,540.2344 Q457.2656,541.0469 458.8594,541.0469 Q459.7969,541.0469 460.4531,540.7969 Q460.8438,540.6406 461.2656,540.2031 Q461.5313,539.9375 461.6719,539.8594 Q461.8281,539.7813 462.0313,539.7813 Q462.3594,539.7813 462.6094,540.0469 Q462.875,540.2969 462.875,540.6406 Q462.875,540.9844 462.5313,541.3906 Q462.0313,541.9688 461.2344,542.2969 Q460.1563,542.75 458.8594,542.75 Q457.3438,542.75 456.1406,542.125 Q455.1563,541.625 454.4688,540.5625 Q453.7813,539.4844 453.7813,538.2031 L453.7813,537.0469 Q453.7813,535.7188 454.3906,534.5781 Q455.0156,533.4219 456.1094,532.8125 Q457.2031,532.1875 458.4375,532.1875 Q459.1719,532.1875 459.8125,532.3594 Q460.4688,532.5156 461.0156,532.875 Z "/><text fill="#000000" font-family="sans-serif" font-size="12" lengthAdjust="spacingAndGlyphs" textLength="59" x="478.75" y="541.9102">BoardView</text><line style="stroke: #A80036; stroke-width: 1.5;" x1="392.5" x2="591.5" y1="553" y2="553"/><polygon fill="none" points="402.5,560,398.5,566,406.5,566" style="stroke: #1963A0; stroke-width: 1.0;"/><text fill="#000000" font-family="sans-serif" font-size="11" lengthAdjust="spacingAndGlyphs" textLength="63" x="411.5" y="568.4189">board: Board</text><line style="stroke: #A80036; stroke-width: 1.5;" x1="392.5" x2="591.5" y1="574.8359" y2="574.8359"/><polygon fill="#4177AF" points="402.5,581.8359,398.5,587.8359,406.5,587.8359" style="stroke: #1963A0; stroke-width: 1.0;"/><text fill="#000000" font-family="sans-serif" font-size="11" lengthAdjust="spacingAndGlyphs" textLength="92" x="411.5" y="590.2549">BoardView(Board)</text><polygon fill="#4177AF" points="402.5,595.6719,398.5,601.6719,406.5,601.6719" style="stroke: #1963A0; stroke-width: 1.0;"/><text fill="#000000" font-family="sans-serif" font-size="11" lengthAdjust="spacingAndGlyphs" textLength="59" x="411.5" y="604.0908">write(): void</text><rect fill="#F24D5C" height="6" style="stroke: #C82930; stroke-width: 1.0;" width="6" x="399.5" y="610.5078"/><text fill="#000000" font-family="sans-serif" font-size="11" lengthAdjust="spacingAndGlyphs" textLength="118" x="411.5" y="617.9268">printRowBoard(int): void</text><rect fill="#F24D5C" height="6" style="stroke: #C82930; stroke-width: 1.0;" width="6" x="399.5" y="624.3438"/><text fill="#000000" font-family="sans-serif" font-size="11" lengthAdjust="spacingAndGlyphs" textLength="175" x="411.5" y="631.7627">printSquareValueBoard(int, int): void</text><!--MD5=[0e5b47c419ba94b2bd3b06fa97d12493]
class tictactoe.views.console.ChoosePlayerView--><rect fill="#FEFECE" filter="url(#f1xik9s63quvlq)" height="75.6719" id="tictactoe.views.console.ChoosePlayerView" style="stroke: #A80036; stroke-width: 1.5;" width="139" x="651.5" y="541.5"/><ellipse cx="667.85" cy="557.5" fill="#ADD1B2" rx="11" ry="11" style="stroke: #A80036; stroke-width: 1.0;"/><path d="M670.6156,553.375 Q670.7719,553.1563 670.9594,553.0469 Q671.1469,552.9375 671.3656,552.9375 Q671.7406,552.9375 671.975,553.2031 Q672.2094,553.4531 672.2094,554.0625 L672.2094,555.5156 Q672.2094,556.125 671.975,556.3906 Q671.7406,556.6563 671.3656,556.6563 Q671.0219,556.6563 670.8188,556.4531 Q670.6156,556.2656 670.5063,555.75 Q670.4594,555.3906 670.2719,555.2031 Q669.9438,554.8281 669.3344,554.6094 Q668.725,554.3906 668.1,554.3906 Q667.3344,554.3906 666.6938,554.7188 Q666.0688,555.0469 665.5688,555.7969 Q665.0844,556.5469 665.0844,557.5781 L665.0844,558.6719 Q665.0844,559.9063 665.975,560.7344 Q666.8656,561.5469 668.4594,561.5469 Q669.3969,561.5469 670.0531,561.2969 Q670.4438,561.1406 670.8656,560.7031 Q671.1313,560.4375 671.2719,560.3594 Q671.4281,560.2813 671.6313,560.2813 Q671.9594,560.2813 672.2094,560.5469 Q672.475,560.7969 672.475,561.1406 Q672.475,561.4844 672.1313,561.8906 Q671.6313,562.4688 670.8344,562.7969 Q669.7563,563.25 668.4594,563.25 Q666.9438,563.25 665.7406,562.625 Q664.7563,562.125 664.0688,561.0625 Q663.3813,559.9844 663.3813,558.7031 L663.3813,557.5469 Q663.3813,556.2188 663.9906,555.0781 Q664.6156,553.9219 665.7094,553.3125 Q666.8031,552.6875 668.0375,552.6875 Q668.7719,552.6875 669.4125,552.8594 Q670.0688,553.0156 670.6156,553.375 Z "/><text fill="#000000" font-family="sans-serif" font-size="12" lengthAdjust="spacingAndGlyphs" textLength="104" x="682.15" y="562.4102">ChoosePlayerView</text><line style="stroke: #A80036; stroke-width: 1.5;" x1="652.5" x2="789.5" y1="573.5" y2="573.5"/><line style="stroke: #A80036; stroke-width: 1.5;" x1="652.5" x2="789.5" y1="581.5" y2="581.5"/><polygon fill="#4177AF" points="662.5,588.5,658.5,594.5,666.5,594.5" style="stroke: #1963A0; stroke-width: 1.0;"/><text fill="#000000" font-family="sans-serif" font-size="11" lengthAdjust="spacingAndGlyphs" textLength="92" x="671.5" y="596.9189">readPlayers(): void</text><rect fill="#F24D5C" height="6" style="stroke: #C82930; stroke-width: 1.0;" width="6" x="659.5" y="603.3359"/><text fill="#000000" font-family="sans-serif" font-size="11" lengthAdjust="spacingAndGlyphs" textLength="113" x="671.5" y="610.7549">readUsersNumber(): int</text><!--MD5=[bde0c8ed193d8d2dbac1dee471354ab0]
class tictactoe.views.console.ConsoleView--><rect fill="#FEFECE" filter="url(#f1xik9s63quvlq)" height="144.8516" id="tictactoe.views.console.ConsoleView" style="stroke: #A80036; stroke-width: 1.5;" width="141" x="233.5" y="166"/><ellipse cx="264.7" cy="182" fill="#ADD1B2" rx="11" ry="11" style="stroke: #A80036; stroke-width: 1.0;"/><path d="M267.4656,177.875 Q267.6219,177.6563 267.8094,177.5469 Q267.9969,177.4375 268.2156,177.4375 Q268.5906,177.4375 268.825,177.7031 Q269.0594,177.9531 269.0594,178.5625 L269.0594,180.0156 Q269.0594,180.625 268.825,180.8906 Q268.5906,181.1563 268.2156,181.1563 Q267.8719,181.1563 267.6688,180.9531 Q267.4656,180.7656 267.3563,180.25 Q267.3094,179.8906 267.1219,179.7031 Q266.7938,179.3281 266.1844,179.1094 Q265.575,178.8906 264.95,178.8906 Q264.1844,178.8906 263.5438,179.2188 Q262.9188,179.5469 262.4188,180.2969 Q261.9344,181.0469 261.9344,182.0781 L261.9344,183.1719 Q261.9344,184.4063 262.825,185.2344 Q263.7156,186.0469 265.3094,186.0469 Q266.2469,186.0469 266.9031,185.7969 Q267.2938,185.6406 267.7156,185.2031 Q267.9813,184.9375 268.1219,184.8594 Q268.2781,184.7813 268.4813,184.7813 Q268.8094,184.7813 269.0594,185.0469 Q269.325,185.2969 269.325,185.6406 Q269.325,185.9844 268.9813,186.3906 Q268.4813,186.9688 267.6844,187.2969 Q266.6063,187.75 265.3094,187.75 Q263.7938,187.75 262.5906,187.125 Q261.6063,186.625 260.9188,185.5625 Q260.2313,184.4844 260.2313,183.2031 L260.2313,182.0469 Q260.2313,180.7188 260.8406,179.5781 Q261.4656,178.4219 262.5594,177.8125 Q263.6531,177.1875 264.8875,177.1875 Q265.6219,177.1875 266.2625,177.3594 Q266.9188,177.5156 267.4656,177.875 Z "/><text fill="#000000" font-family="sans-serif" font-size="12" lengthAdjust="spacingAndGlyphs" textLength="73" x="282.3" y="186.9102">ConsoleView</text><line style="stroke: #A80036; stroke-width: 1.5;" x1="234.5" x2="373.5" y1="198" y2="198"/><rect fill="none" height="6" style="stroke: #C82930; stroke-width: 1.0;" width="6" x="241.5" y="206"/><text fill="#000000" font-family="sans-serif" font-size="11" lengthAdjust="spacingAndGlyphs" textLength="103" x="253.5" y="213.4189">startView: StartView</text><rect fill="none" height="6" style="stroke: #C82930; stroke-width: 1.0;" width="6" x="241.5" y="219.8359"/><text fill="#000000" font-family="sans-serif" font-size="11" lengthAdjust="spacingAndGlyphs" textLength="98" x="253.5" y="227.2549">playView: PlayView</text><rect fill="none" height="6" style="stroke: #C82930; stroke-width: 1.0;" width="6" x="241.5" y="233.6719"/><text fill="#000000" font-family="sans-serif" font-size="11" lengthAdjust="spacingAndGlyphs" textLength="115" x="253.5" y="241.0908">resultView: ResultView</text><line style="stroke: #A80036; stroke-width: 1.5;" x1="234.5" x2="373.5" y1="247.5078" y2="247.5078"/><ellipse cx="244.5" cy="258.5078" fill="#84BE84" rx="3" ry="3" style="stroke: #038048; stroke-width: 1.0;"/><text fill="#000000" font-family="sans-serif" font-size="11" lengthAdjust="spacingAndGlyphs" textLength="99" x="253.5" y="262.9268">ConsoleView(Logic)</text><polygon fill="#FFFF44" points="244.5,267.3438,248.5,271.3438,244.5,275.3438,240.5,271.3438" style="stroke: #B38D22; stroke-width: 1.0;"/><text fill="#000000" font-family="sans-serif" font-size="11" lengthAdjust="spacingAndGlyphs" textLength="56" x="253.5" y="276.7627">start(): void</text><polygon fill="#FFFF44" points="244.5,281.1797,248.5,285.1797,244.5,289.1797,240.5,285.1797" style="stroke: #B38D22; stroke-width: 1.0;"/><text fill="#000000" font-family="sans-serif" font-size="11" lengthAdjust="spacingAndGlyphs" textLength="72" x="253.5" y="290.5986">play(): boolean</text><polygon fill="#FFFF44" points="244.5,295.0156,248.5,299.0156,244.5,303.0156,240.5,299.0156" style="stroke: #B38D22; stroke-width: 1.0;"/><text fill="#000000" font-family="sans-serif" font-size="11" lengthAdjust="spacingAndGlyphs" textLength="61" x="253.5" y="304.4346">result(): void</text><!--MD5=[54aa299435631381f3c0c028f26a058f]
class tictactoe.views.console.StartView--><rect fill="#FEFECE" filter="url(#f1xik9s63quvlq)" height="89.5078" id="tictactoe.views.console.StartView" style="stroke: #A80036; stroke-width: 1.5;" width="109" x="514.5" y="371"/><ellipse cx="541.2" cy="387" fill="#ADD1B2" rx="11" ry="11" style="stroke: #A80036; stroke-width: 1.0;"/><path d="M543.9656,382.875 Q544.1219,382.6563 544.3094,382.5469 Q544.4969,382.4375 544.7156,382.4375 Q545.0906,382.4375 545.325,382.7031 Q545.5594,382.9531 545.5594,383.5625 L545.5594,385.0156 Q545.5594,385.625 545.325,385.8906 Q545.0906,386.1563 544.7156,386.1563 Q544.3719,386.1563 544.1688,385.9531 Q543.9656,385.7656 543.8563,385.25 Q543.8094,384.8906 543.6219,384.7031 Q543.2938,384.3281 542.6844,384.1094 Q542.075,383.8906 541.45,383.8906 Q540.6844,383.8906 540.0438,384.2188 Q539.4188,384.5469 538.9188,385.2969 Q538.4344,386.0469 538.4344,387.0781 L538.4344,388.1719 Q538.4344,389.4063 539.325,390.2344 Q540.2156,391.0469 541.8094,391.0469 Q542.7469,391.0469 543.4031,390.7969 Q543.7938,390.6406 544.2156,390.2031 Q544.4813,389.9375 544.6219,389.8594 Q544.7781,389.7813 544.9813,389.7813 Q545.3094,389.7813 545.5594,390.0469 Q545.825,390.2969 545.825,390.6406 Q545.825,390.9844 545.4813,391.3906 Q544.9813,391.9688 544.1844,392.2969 Q543.1063,392.75 541.8094,392.75 Q540.2938,392.75 539.0906,392.125 Q538.1063,391.625 537.4188,390.5625 Q536.7313,389.4844 536.7313,388.2031 L536.7313,387.0469 Q536.7313,385.7188 537.3406,384.5781 Q537.9656,383.4219 539.0594,382.8125 Q540.1531,382.1875 541.3875,382.1875 Q542.1219,382.1875 542.7625,382.3594 Q543.4188,382.5156 543.9656,382.875 Z "/><text fill="#000000" font-family="sans-serif" font-size="12" lengthAdjust="spacingAndGlyphs" textLength="51" x="557.8" y="391.9102">StartView</text><line style="stroke: #A80036; stroke-width: 1.5;" x1="515.5" x2="622.5" y1="403" y2="403"/><polygon fill="none" points="525.5,410,521.5,416,529.5,416" style="stroke: #1963A0; stroke-width: 1.0;"/><text fill="#000000" font-family="sans-serif" font-size="11" lengthAdjust="spacingAndGlyphs" textLength="54" x="534.5" y="418.4189">logic: Logic</text><line style="stroke: #A80036; stroke-width: 1.5;" x1="515.5" x2="622.5" y1="424.8359" y2="424.8359"/><polygon fill="#4177AF" points="525.5,431.8359,521.5,437.8359,529.5,437.8359" style="stroke: #1963A0; stroke-width: 1.0;"/><text fill="#000000" font-family="sans-serif" font-size="11" lengthAdjust="spacingAndGlyphs" textLength="83" x="534.5" y="440.2549">StartView(Logic)</text><polygon fill="#4177AF" points="525.5,445.6719,521.5,451.6719,529.5,451.6719" style="stroke: #1963A0; stroke-width: 1.0;"/><text fill="#000000" font-family="sans-serif" font-size="11" lengthAdjust="spacingAndGlyphs" textLength="70" x="534.5" y="454.0908">interact(): void</text><!--MD5=[0158df0baddf48f83142f472e341eacc]
class tictactoe.views.console.PlayView--><rect fill="#FEFECE" filter="url(#f1xik9s63quvlq)" height="89.5078" id="tictactoe.views.console.PlayView" style="stroke: #A80036; stroke-width: 1.5;" width="114" x="214" y="371"/><ellipse cx="243.85" cy="387" fill="#ADD1B2" rx="11" ry="11" style="stroke: #A80036; stroke-width: 1.0;"/><path d="M246.6156,382.875 Q246.7719,382.6563 246.9594,382.5469 Q247.1469,382.4375 247.3656,382.4375 Q247.7406,382.4375 247.975,382.7031 Q248.2094,382.9531 248.2094,383.5625 L248.2094,385.0156 Q248.2094,385.625 247.975,385.8906 Q247.7406,386.1563 247.3656,386.1563 Q247.0219,386.1563 246.8188,385.9531 Q246.6156,385.7656 246.5063,385.25 Q246.4594,384.8906 246.2719,384.7031 Q245.9438,384.3281 245.3344,384.1094 Q244.725,383.8906 244.1,383.8906 Q243.3344,383.8906 242.6938,384.2188 Q242.0688,384.5469 241.5688,385.2969 Q241.0844,386.0469 241.0844,387.0781 L241.0844,388.1719 Q241.0844,389.4063 241.975,390.2344 Q242.8656,391.0469 244.4594,391.0469 Q245.3969,391.0469 246.0531,390.7969 Q246.4438,390.6406 246.8656,390.2031 Q247.1313,389.9375 247.2719,389.8594 Q247.4281,389.7813 247.6313,389.7813 Q247.9594,389.7813 248.2094,390.0469 Q248.475,390.2969 248.475,390.6406 Q248.475,390.9844 248.1313,391.3906 Q247.6313,391.9688 246.8344,392.2969 Q245.7563,392.75 244.4594,392.75 Q242.9438,392.75 241.7406,392.125 Q240.7563,391.625 240.0688,390.5625 Q239.3813,389.4844 239.3813,388.2031 L239.3813,387.0469 Q239.3813,385.7188 239.9906,384.5781 Q240.6156,383.4219 241.7094,382.8125 Q242.8031,382.1875 244.0375,382.1875 Q244.7719,382.1875 245.4125,382.3594 Q246.0688,382.5156 246.6156,382.875 Z "/><text fill="#000000" font-family="sans-serif" font-size="12" lengthAdjust="spacingAndGlyphs" textLength="49" x="261.15" y="391.9102">PlayView</text><line style="stroke: #A80036; stroke-width: 1.5;" x1="215" x2="327" y1="403" y2="403"/><polygon fill="none" points="225,410,221,416,229,416" style="stroke: #1963A0; stroke-width: 1.0;"/><text fill="#000000" font-family="sans-serif" font-size="11" lengthAdjust="spacingAndGlyphs" textLength="54" x="234" y="418.4189">logic: Logic</text><line style="stroke: #A80036; stroke-width: 1.5;" x1="215" x2="327" y1="424.8359" y2="424.8359"/><polygon fill="#4177AF" points="225,431.8359,221,437.8359,229,437.8359" style="stroke: #1963A0; stroke-width: 1.0;"/><text fill="#000000" font-family="sans-serif" font-size="11" lengthAdjust="spacingAndGlyphs" textLength="80" x="234" y="440.2549">PlayView(Logic)</text><polygon fill="#4177AF" points="225,445.6719,221,451.6719,229,451.6719" style="stroke: #1963A0; stroke-width: 1.0;"/><text fill="#000000" font-family="sans-serif" font-size="11" lengthAdjust="spacingAndGlyphs" textLength="88" x="234" y="454.0908">interact(): boolean</text><!--MD5=[4ad8229f56e3458317cb6855b3145039]
class tictactoe.views.console.ResultView--><rect fill="#FEFECE" filter="url(#f1xik9s63quvlq)" height="89.5078" id="tictactoe.views.console.ResultView" style="stroke: #A80036; stroke-width: 1.5;" width="116" x="363" y="371"/><ellipse cx="387.9" cy="387" fill="#ADD1B2" rx="11" ry="11" style="stroke: #A80036; stroke-width: 1.0;"/><path d="M390.6656,382.875 Q390.8219,382.6563 391.0094,382.5469 Q391.1969,382.4375 391.4156,382.4375 Q391.7906,382.4375 392.025,382.7031 Q392.2594,382.9531 392.2594,383.5625 L392.2594,385.0156 Q392.2594,385.625 392.025,385.8906 Q391.7906,386.1563 391.4156,386.1563 Q391.0719,386.1563 390.8688,385.9531 Q390.6656,385.7656 390.5563,385.25 Q390.5094,384.8906 390.3219,384.7031 Q389.9938,384.3281 389.3844,384.1094 Q388.775,383.8906 388.15,383.8906 Q387.3844,383.8906 386.7438,384.2188 Q386.1188,384.5469 385.6188,385.2969 Q385.1344,386.0469 385.1344,387.0781 L385.1344,388.1719 Q385.1344,389.4063 386.025,390.2344 Q386.9156,391.0469 388.5094,391.0469 Q389.4469,391.0469 390.1031,390.7969 Q390.4938,390.6406 390.9156,390.2031 Q391.1813,389.9375 391.3219,389.8594 Q391.4781,389.7813 391.6813,389.7813 Q392.0094,389.7813 392.2594,390.0469 Q392.525,390.2969 392.525,390.6406 Q392.525,390.9844 392.1813,391.3906 Q391.6813,391.9688 390.8844,392.2969 Q389.8063,392.75 388.5094,392.75 Q386.9938,392.75 385.7906,392.125 Q384.8063,391.625 384.1188,390.5625 Q383.4313,389.4844 383.4313,388.2031 L383.4313,387.0469 Q383.4313,385.7188 384.0406,384.5781 Q384.6656,383.4219 385.7594,382.8125 Q386.8531,382.1875 388.0875,382.1875 Q388.8219,382.1875 389.4625,382.3594 Q390.1188,382.5156 390.6656,382.875 Z "/><text fill="#000000" font-family="sans-serif" font-size="12" lengthAdjust="spacingAndGlyphs" textLength="62" x="404.1" y="391.9102">ResultView</text><line style="stroke: #A80036; stroke-width: 1.5;" x1="364" x2="478" y1="403" y2="403"/><polygon fill="none" points="374,410,370,416,378,416" style="stroke: #1963A0; stroke-width: 1.0;"/><text fill="#000000" font-family="sans-serif" font-size="11" lengthAdjust="spacingAndGlyphs" textLength="54" x="383" y="418.4189">logic: Logic</text><line style="stroke: #A80036; stroke-width: 1.5;" x1="364" x2="478" y1="424.8359" y2="424.8359"/><polygon fill="#4177AF" points="374,431.8359,370,437.8359,378,437.8359" style="stroke: #1963A0; stroke-width: 1.0;"/><text fill="#000000" font-family="sans-serif" font-size="11" lengthAdjust="spacingAndGlyphs" textLength="90" x="383" y="440.2549">ResultView(Logic)</text><polygon fill="#4177AF" points="374,445.6719,370,451.6719,378,451.6719" style="stroke: #1963A0; stroke-width: 1.0;"/><text fill="#000000" font-family="sans-serif" font-size="11" lengthAdjust="spacingAndGlyphs" textLength="70" x="383" y="454.0908">interact(): void</text><!--MD5=[8830b246a550294711e6eb5af1606829]
class tictactoe.views.console.CoordinateView--><rect fill="#FEFECE" filter="url(#f1xik9s63quvlq)" height="61.8359" id="tictactoe.views.console.CoordinateView" style="stroke: #A80036; stroke-width: 1.5;" width="142" x="802" y="385"/><ellipse cx="827.35" cy="401" fill="#ADD1B2" rx="11" ry="11" style="stroke: #A80036; stroke-width: 1.0;"/><path d="M830.1156,396.875 Q830.2719,396.6563 830.4594,396.5469 Q830.6469,396.4375 830.8656,396.4375 Q831.2406,396.4375 831.475,396.7031 Q831.7094,396.9531 831.7094,397.5625 L831.7094,399.0156 Q831.7094,399.625 831.475,399.8906 Q831.2406,400.1563 830.8656,400.1563 Q830.5219,400.1563 830.3188,399.9531 Q830.1156,399.7656 830.0063,399.25 Q829.9594,398.8906 829.7719,398.7031 Q829.4438,398.3281 828.8344,398.1094 Q828.225,397.8906 827.6,397.8906 Q826.8344,397.8906 826.1938,398.2188 Q825.5688,398.5469 825.0688,399.2969 Q824.5844,400.0469 824.5844,401.0781 L824.5844,402.1719 Q824.5844,403.4063 825.475,404.2344 Q826.3656,405.0469 827.9594,405.0469 Q828.8969,405.0469 829.5531,404.7969 Q829.9438,404.6406 830.3656,404.2031 Q830.6313,403.9375 830.7719,403.8594 Q830.9281,403.7813 831.1313,403.7813 Q831.4594,403.7813 831.7094,404.0469 Q831.975,404.2969 831.975,404.6406 Q831.975,404.9844 831.6313,405.3906 Q831.1313,405.9688 830.3344,406.2969 Q829.2563,406.75 827.9594,406.75 Q826.4438,406.75 825.2406,406.125 Q824.2563,405.625 823.5688,404.5625 Q822.8813,403.4844 822.8813,402.2031 L822.8813,401.0469 Q822.8813,399.7188 823.4906,398.5781 Q824.1156,397.4219 825.2094,396.8125 Q826.3031,396.1875 827.5375,396.1875 Q828.2719,396.1875 828.9125,396.3594 Q829.5688,396.5156 830.1156,396.875 Z "/><text fill="#000000" font-family="sans-serif" font-size="12" lengthAdjust="spacingAndGlyphs" textLength="87" x="843.65" y="405.9102">CoordinateView</text><line style="stroke: #A80036; stroke-width: 1.5;" x1="803" x2="943" y1="417" y2="417"/><line style="stroke: #A80036; stroke-width: 1.5;" x1="803" x2="943" y1="425" y2="425"/><polygon fill="#4177AF" points="813,432,809,438,817,438" style="stroke: #1963A0; stroke-width: 1.0;"/><text fill="#000000" font-family="sans-serif" font-size="11" lengthAdjust="spacingAndGlyphs" textLength="116" x="822" y="440.4189">read(String): Coordinate</text><!--MD5=[1ca4e66fd27a79cb5d7093d90b3139a4]
class tictactoe.views.console.ErrorView--><rect fill="#FEFECE" filter="url(#f1xik9s63quvlq)" height="75.6719" id="tictactoe.views.console.ErrorView" style="stroke: #A80036; stroke-width: 1.5;" width="108" x="659" y="378"/><ellipse cx="684.35" cy="394" fill="#ADD1B2" rx="11" ry="11" style="stroke: #A80036; stroke-width: 1.0;"/><path d="M687.1156,389.875 Q687.2719,389.6563 687.4594,389.5469 Q687.6469,389.4375 687.8656,389.4375 Q688.2406,389.4375 688.475,389.7031 Q688.7094,389.9531 688.7094,390.5625 L688.7094,392.0156 Q688.7094,392.625 688.475,392.8906 Q688.2406,393.1563 687.8656,393.1563 Q687.5219,393.1563 687.3188,392.9531 Q687.1156,392.7656 687.0063,392.25 Q686.9594,391.8906 686.7719,391.7031 Q686.4438,391.3281 685.8344,391.1094 Q685.225,390.8906 684.6,390.8906 Q683.8344,390.8906 683.1938,391.2188 Q682.5688,391.5469 682.0688,392.2969 Q681.5844,393.0469 681.5844,394.0781 L681.5844,395.1719 Q681.5844,396.4063 682.475,397.2344 Q683.3656,398.0469 684.9594,398.0469 Q685.8969,398.0469 686.5531,397.7969 Q686.9438,397.6406 687.3656,397.2031 Q687.6313,396.9375 687.7719,396.8594 Q687.9281,396.7813 688.1313,396.7813 Q688.4594,396.7813 688.7094,397.0469 Q688.975,397.2969 688.975,397.6406 Q688.975,397.9844 688.6313,398.3906 Q688.1313,398.9688 687.3344,399.2969 Q686.2563,399.75 684.9594,399.75 Q683.4438,399.75 682.2406,399.125 Q681.2563,398.625 680.5688,397.5625 Q679.8813,396.4844 679.8813,395.2031 L679.8813,394.0469 Q679.8813,392.7188 680.4906,391.5781 Q681.1156,390.4219 682.2094,389.8125 Q683.3031,389.1875 684.5375,389.1875 Q685.2719,389.1875 685.9125,389.3594 Q686.5688,389.5156 687.1156,389.875 Z "/><text fill="#000000" font-family="sans-serif" font-size="12" lengthAdjust="spacingAndGlyphs" textLength="53" x="700.65" y="398.9102">ErrorView</text><line style="stroke: #A80036; stroke-width: 1.5;" x1="660" x2="766" y1="410" y2="410"/><line style="stroke: #A80036; stroke-width: 1.5;" x1="660" x2="766" y1="418" y2="418"/><polygon fill="#4177AF" points="670,425,666,431,674,431" style="stroke: #1963A0; stroke-width: 1.0;"/><text fill="#000000" font-family="sans-serif" font-size="11" lengthAdjust="spacingAndGlyphs" textLength="82" x="679" y="433.4189">ErrorView(Error)</text><polygon fill="#4177AF" points="670,438.8359,666,444.8359,674,444.8359" style="stroke: #1963A0; stroke-width: 1.0;"/><text fill="#000000" font-family="sans-serif" font-size="11" lengthAdjust="spacingAndGlyphs" textLength="67" x="679" y="447.2549">writeln(): void</text><!--MD5=[4afe6aabb27d783e4a9a9dcc50c35fae]
class tictactoe.views.console.MachinePlayerView--><rect fill="#FEFECE" filter="url(#f1xik9s63quvlq)" height="89.5078" id="tictactoe.views.console.MachinePlayerView" style="stroke: #A80036; stroke-width: 1.5;" width="216" x="410" y="193.5"/><ellipse cx="460.75" cy="209.5" fill="#ADD1B2" rx="11" ry="11" style="stroke: #A80036; stroke-width: 1.0;"/><path d="M463.5156,205.375 Q463.6719,205.1563 463.8594,205.0469 Q464.0469,204.9375 464.2656,204.9375 Q464.6406,204.9375 464.875,205.2031 Q465.1094,205.4531 465.1094,206.0625 L465.1094,207.5156 Q465.1094,208.125 464.875,208.3906 Q464.6406,208.6563 464.2656,208.6563 Q463.9219,208.6563 463.7188,208.4531 Q463.5156,208.2656 463.4063,207.75 Q463.3594,207.3906 463.1719,207.2031 Q462.8438,206.8281 462.2344,206.6094 Q461.625,206.3906 461,206.3906 Q460.2344,206.3906 459.5938,206.7188 Q458.9688,207.0469 458.4688,207.7969 Q457.9844,208.5469 457.9844,209.5781 L457.9844,210.6719 Q457.9844,211.9063 458.875,212.7344 Q459.7656,213.5469 461.3594,213.5469 Q462.2969,213.5469 462.9531,213.2969 Q463.3438,213.1406 463.7656,212.7031 Q464.0313,212.4375 464.1719,212.3594 Q464.3281,212.2813 464.5313,212.2813 Q464.8594,212.2813 465.1094,212.5469 Q465.375,212.7969 465.375,213.1406 Q465.375,213.4844 465.0313,213.8906 Q464.5313,214.4688 463.7344,214.7969 Q462.6563,215.25 461.3594,215.25 Q459.8438,215.25 458.6406,214.625 Q457.6563,214.125 456.9688,213.0625 Q456.2813,211.9844 456.2813,210.7031 L456.2813,209.5469 Q456.2813,208.2188 456.8906,207.0781 Q457.5156,205.9219 458.6094,205.3125 Q459.7031,204.6875 460.9375,204.6875 Q461.6719,204.6875 462.3125,204.8594 Q462.9688,205.0156 463.5156,205.375 Z "/><text fill="#000000" font-family="sans-serif" font-size="12" lengthAdjust="spacingAndGlyphs" textLength="106" x="481.25" y="214.4102">MachinePlayerView</text><line style="stroke: #A80036; stroke-width: 1.5;" x1="411" x2="625" y1="225.5" y2="225.5"/><line style="stroke: #A80036; stroke-width: 1.5;" x1="411" x2="625" y1="233.5" y2="233.5"/><polygon fill="#4177AF" points="421,240.5,417,246.5,425,246.5" style="stroke: #1963A0; stroke-width: 1.0;"/><text fill="#000000" font-family="sans-serif" font-size="11" lengthAdjust="spacingAndGlyphs" textLength="134" x="430" y="248.9189">MachinePlayerView(Player)</text><polygon fill="#4177AF" points="421,254.3359,417,260.3359,425,260.3359" style="stroke: #1963A0; stroke-width: 1.0;"/><text fill="#000000" font-family="sans-serif" font-size="11" lengthAdjust="spacingAndGlyphs" textLength="167" x="430" y="262.7549">readCoordinateToPut(): Coordinate</text><polygon fill="#4177AF" points="421,268.1719,417,274.1719,425,274.1719" style="stroke: #1963A0; stroke-width: 1.0;"/><text fill="#000000" font-family="sans-serif" font-size="11" lengthAdjust="spacingAndGlyphs" textLength="190" x="430" y="276.5908">readCoordinatesToMove(): Coordinate[]</text><!--MD5=[d4f4ae14a368e3fcfff527b6459d05f0]
class tictactoe.views.console.UserPlayerView--><rect fill="#FEFECE" filter="url(#f1xik9s63quvlq)" height="117.1797" id="tictactoe.views.console.UserPlayerView" style="stroke: #A80036; stroke-width: 1.5;" width="233" x="661.5" y="180"/><ellipse cx="730.25" cy="196" fill="#ADD1B2" rx="11" ry="11" style="stroke: #A80036; stroke-width: 1.0;"/><path d="M733.0156,191.875 Q733.1719,191.6563 733.3594,191.5469 Q733.5469,191.4375 733.7656,191.4375 Q734.1406,191.4375 734.375,191.7031 Q734.6094,191.9531 734.6094,192.5625 L734.6094,194.0156 Q734.6094,194.625 734.375,194.8906 Q734.1406,195.1563 733.7656,195.1563 Q733.4219,195.1563 733.2188,194.9531 Q733.0156,194.7656 732.9063,194.25 Q732.8594,193.8906 732.6719,193.7031 Q732.3438,193.3281 731.7344,193.1094 Q731.125,192.8906 730.5,192.8906 Q729.7344,192.8906 729.0938,193.2188 Q728.4688,193.5469 727.9688,194.2969 Q727.4844,195.0469 727.4844,196.0781 L727.4844,197.1719 Q727.4844,198.4063 728.375,199.2344 Q729.2656,200.0469 730.8594,200.0469 Q731.7969,200.0469 732.4531,199.7969 Q732.8438,199.6406 733.2656,199.2031 Q733.5313,198.9375 733.6719,198.8594 Q733.8281,198.7813 734.0313,198.7813 Q734.3594,198.7813 734.6094,199.0469 Q734.875,199.2969 734.875,199.6406 Q734.875,199.9844 734.5313,200.3906 Q734.0313,200.9688 733.2344,201.2969 Q732.1563,201.75 730.8594,201.75 Q729.3438,201.75 728.1406,201.125 Q727.1563,200.625 726.4688,199.5625 Q725.7813,198.4844 725.7813,197.2031 L725.7813,196.0469 Q725.7813,194.7188 726.3906,193.5781 Q727.0156,192.4219 728.1094,191.8125 Q729.2031,191.1875 730.4375,191.1875 Q731.1719,191.1875 731.8125,191.3594 Q732.4688,191.5156 733.0156,191.875 Z "/><text fill="#000000" font-family="sans-serif" font-size="12" lengthAdjust="spacingAndGlyphs" textLength="87" x="750.75" y="200.9102">UserPlayerView</text><line style="stroke: #A80036; stroke-width: 1.5;" x1="662.5" x2="893.5" y1="212" y2="212"/><polygon fill="none" points="672.5,219,668.5,225,676.5,225" style="stroke: #1963A0; stroke-width: 1.0;"/><text fill="#000000" font-family="sans-serif" font-size="11" lengthAdjust="spacingAndGlyphs" text-decoration="underline" textLength="183" x="681.5" y="227.4189">ENTER_COORDINATE_TO_PUT: String</text><polygon fill="none" points="672.5,232.8359,668.5,238.8359,676.5,238.8359" style="stroke: #1963A0; stroke-width: 1.0;"/><text fill="#000000" font-family="sans-serif" font-size="11" lengthAdjust="spacingAndGlyphs" text-decoration="underline" textLength="207" x="681.5" y="241.2549">ENTER_COORDINATE_TO_REMOVE: String</text><line style="stroke: #A80036; stroke-width: 1.5;" x1="662.5" x2="893.5" y1="247.6719" y2="247.6719"/><polygon fill="#4177AF" points="672.5,254.6719,668.5,260.6719,676.5,260.6719" style="stroke: #1963A0; stroke-width: 1.0;"/><text fill="#000000" font-family="sans-serif" font-size="11" lengthAdjust="spacingAndGlyphs" textLength="117" x="681.5" y="263.0908">UserPlayerView(Player)</text><polygon fill="#4177AF" points="672.5,268.5078,668.5,274.5078,676.5,274.5078" style="stroke: #1963A0; stroke-width: 1.0;"/><text fill="#000000" font-family="sans-serif" font-size="11" lengthAdjust="spacingAndGlyphs" textLength="167" x="681.5" y="276.9268">readCoordinateToPut(): Coordinate</text><polygon fill="#4177AF" points="672.5,282.3438,668.5,288.3438,676.5,288.3438" style="stroke: #1963A0; stroke-width: 1.0;"/><text fill="#000000" font-family="sans-serif" font-size="11" lengthAdjust="spacingAndGlyphs" textLength="190" x="681.5" y="290.7627">readCoordinatesToMove(): Coordinate[]</text><!--MD5=[2dcb8e10b6e8b78f41f52f48677e1ea3]
class utils.WithConsoleView--><rect fill="#FEFECE" filter="url(#f1xik9s63quvlq)" height="48" id="utils.WithConsoleView" style="stroke: #A80036; stroke-width: 1.5;" width="129" x="1001.5" y="214.5"/><ellipse cx="1016.5" cy="230.5" fill="#ADD1B2" rx="11" ry="11" style="stroke: #A80036; stroke-width: 1.0;"/><path d="M1019.2656,226.375 Q1019.4219,226.1563 1019.6094,226.0469 Q1019.7969,225.9375 1020.0156,225.9375 Q1020.3906,225.9375 1020.625,226.2031 Q1020.8594,226.4531 1020.8594,227.0625 L1020.8594,228.5156 Q1020.8594,229.125 1020.625,229.3906 Q1020.3906,229.6563 1020.0156,229.6563 Q1019.6719,229.6563 1019.4688,229.4531 Q1019.2656,229.2656 1019.1563,228.75 Q1019.1094,228.3906 1018.9219,228.2031 Q1018.5938,227.8281 1017.9844,227.6094 Q1017.375,227.3906 1016.75,227.3906 Q1015.9844,227.3906 1015.3438,227.7188 Q1014.7188,228.0469 1014.2188,228.7969 Q1013.7344,229.5469 1013.7344,230.5781 L1013.7344,231.6719 Q1013.7344,232.9063 1014.625,233.7344 Q1015.5156,234.5469 1017.1094,234.5469 Q1018.0469,234.5469 1018.7031,234.2969 Q1019.0938,234.1406 1019.5156,233.7031 Q1019.7813,233.4375 1019.9219,233.3594 Q1020.0781,233.2813 1020.2813,233.2813 Q1020.6094,233.2813 1020.8594,233.5469 Q1021.125,233.7969 1021.125,234.1406 Q1021.125,234.4844 1020.7813,234.8906 Q1020.2813,235.4688 1019.4844,235.7969 Q1018.4063,236.25 1017.1094,236.25 Q1015.5938,236.25 1014.3906,235.625 Q1013.4063,235.125 1012.7188,234.0625 Q1012.0313,232.9844 1012.0313,231.7031 L1012.0313,230.5469 Q1012.0313,229.2188 1012.6406,228.0781 Q1013.2656,226.9219 1014.3594,226.3125 Q1015.4531,225.6875 1016.6875,225.6875 Q1017.4219,225.6875 1018.0625,225.8594 Q1018.7188,226.0156 1019.2656,226.375 Z "/><text fill="#000000" font-family="sans-serif" font-size="12" lengthAdjust="spacingAndGlyphs" textLength="97" x="1030.5" y="235.4102">WithConsoleView</text><line style="stroke: #A80036; stroke-width: 1.5;" x1="1002.5" x2="1129.5" y1="246.5" y2="246.5"/><line style="stroke: #A80036; stroke-width: 1.5;" x1="1002.5" x2="1129.5" y1="254.5" y2="254.5"/><!--MD5=[015754420c4cdd9bacda884b3fa8c6ca]
class tictactoe.views.View--><rect fill="#FEFECE" filter="url(#f1xik9s63quvlq)" height="48" id="tictactoe.views.View" style="stroke: #A80036; stroke-width: 1.5;" width="58" x="379" y="42"/><ellipse cx="394" cy="58" fill="#ADD1B2" rx="11" ry="11" style="stroke: #A80036; stroke-width: 1.0;"/><path d="M396.7656,53.875 Q396.9219,53.6563 397.1094,53.5469 Q397.2969,53.4375 397.5156,53.4375 Q397.8906,53.4375 398.125,53.7031 Q398.3594,53.9531 398.3594,54.5625 L398.3594,56.0156 Q398.3594,56.625 398.125,56.8906 Q397.8906,57.1563 397.5156,57.1563 Q397.1719,57.1563 396.9688,56.9531 Q396.7656,56.7656 396.6563,56.25 Q396.6094,55.8906 396.4219,55.7031 Q396.0938,55.3281 395.4844,55.1094 Q394.875,54.8906 394.25,54.8906 Q393.4844,54.8906 392.8438,55.2188 Q392.2188,55.5469 391.7188,56.2969 Q391.2344,57.0469 391.2344,58.0781 L391.2344,59.1719 Q391.2344,60.4063 392.125,61.2344 Q393.0156,62.0469 394.6094,62.0469 Q395.5469,62.0469 396.2031,61.7969 Q396.5938,61.6406 397.0156,61.2031 Q397.2813,60.9375 397.4219,60.8594 Q397.5781,60.7813 397.7813,60.7813 Q398.1094,60.7813 398.3594,61.0469 Q398.625,61.2969 398.625,61.6406 Q398.625,61.9844 398.2813,62.3906 Q397.7813,62.9688 396.9844,63.2969 Q395.9063,63.75 394.6094,63.75 Q393.0938,63.75 391.8906,63.125 Q390.9063,62.625 390.2188,61.5625 Q389.5313,60.4844 389.5313,59.2031 L389.5313,58.0469 Q389.5313,56.7188 390.1406,55.5781 Q390.7656,54.4219 391.8594,53.8125 Q392.9531,53.1875 394.1875,53.1875 Q394.9219,53.1875 395.5625,53.3594 Q396.2188,53.5156 396.7656,53.875 Z "/><text fill="#000000" font-family="sans-serif" font-size="12" lengthAdjust="spacingAndGlyphs" textLength="26" x="408" y="62.9102">View</text><line style="stroke: #A80036; stroke-width: 1.5;" x1="380" x2="436" y1="74" y2="74"/><line style="stroke: #A80036; stroke-width: 1.5;" x1="380" x2="436" y1="82" y2="82"/><!--MD5=[17799e03bfee0ccb3aa03b93da9c26d6]
class tictactoe.views.ErrorView--><rect fill="#FEFECE" filter="url(#f1xik9s63quvlq)" height="48" id="tictactoe.views.ErrorView" style="stroke: #A80036; stroke-width: 1.5;" width="85" x="599.5" y="42"/><ellipse cx="614.5" cy="58" fill="#ADD1B2" rx="11" ry="11" style="stroke: #A80036; stroke-width: 1.0;"/><path d="M617.2656,53.875 Q617.4219,53.6563 617.6094,53.5469 Q617.7969,53.4375 618.0156,53.4375 Q618.3906,53.4375 618.625,53.7031 Q618.8594,53.9531 618.8594,54.5625 L618.8594,56.0156 Q618.8594,56.625 618.625,56.8906 Q618.3906,57.1563 618.0156,57.1563 Q617.6719,57.1563 617.4688,56.9531 Q617.2656,56.7656 617.1563,56.25 Q617.1094,55.8906 616.9219,55.7031 Q616.5938,55.3281 615.9844,55.1094 Q615.375,54.8906 614.75,54.8906 Q613.9844,54.8906 613.3438,55.2188 Q612.7188,55.5469 612.2188,56.2969 Q611.7344,57.0469 611.7344,58.0781 L611.7344,59.1719 Q611.7344,60.4063 612.625,61.2344 Q613.5156,62.0469 615.1094,62.0469 Q616.0469,62.0469 616.7031,61.7969 Q617.0938,61.6406 617.5156,61.2031 Q617.7813,60.9375 617.9219,60.8594 Q618.0781,60.7813 618.2813,60.7813 Q618.6094,60.7813 618.8594,61.0469 Q619.125,61.2969 619.125,61.6406 Q619.125,61.9844 618.7813,62.3906 Q618.2813,62.9688 617.4844,63.2969 Q616.4063,63.75 615.1094,63.75 Q613.5938,63.75 612.3906,63.125 Q611.4063,62.625 610.7188,61.5625 Q610.0313,60.4844 610.0313,59.2031 L610.0313,58.0469 Q610.0313,56.7188 610.6406,55.5781 Q611.2656,54.4219 612.3594,53.8125 Q613.4531,53.1875 614.6875,53.1875 Q615.4219,53.1875 616.0625,53.3594 Q616.7188,53.5156 617.2656,53.875 Z "/><text fill="#000000" font-family="sans-serif" font-size="12" lengthAdjust="spacingAndGlyphs" textLength="53" x="628.5" y="62.9102">ErrorView</text><line style="stroke: #A80036; stroke-width: 1.5;" x1="600.5" x2="683.5" y1="74" y2="74"/><line style="stroke: #A80036; stroke-width: 1.5;" x1="600.5" x2="683.5" y1="82" y2="82"/><!--MD5=[2ae15d20e7f22fd333327d3852982126]
class tictactoe.views.PlayerView--><rect fill="#FEFECE" filter="url(#f1xik9s63quvlq)" height="48" id="tictactoe.views.PlayerView" style="stroke: #A80036; stroke-width: 1.5;" width="92" x="472" y="42"/><ellipse cx="487" cy="58" fill="#ADD1B2" rx="11" ry="11" style="stroke: #A80036; stroke-width: 1.0;"/><path d="M489.7656,53.875 Q489.9219,53.6563 490.1094,53.5469 Q490.2969,53.4375 490.5156,53.4375 Q490.8906,53.4375 491.125,53.7031 Q491.3594,53.9531 491.3594,54.5625 L491.3594,56.0156 Q491.3594,56.625 491.125,56.8906 Q490.8906,57.1563 490.5156,57.1563 Q490.1719,57.1563 489.9688,56.9531 Q489.7656,56.7656 489.6563,56.25 Q489.6094,55.8906 489.4219,55.7031 Q489.0938,55.3281 488.4844,55.1094 Q487.875,54.8906 487.25,54.8906 Q486.4844,54.8906 485.8438,55.2188 Q485.2188,55.5469 484.7188,56.2969 Q484.2344,57.0469 484.2344,58.0781 L484.2344,59.1719 Q484.2344,60.4063 485.125,61.2344 Q486.0156,62.0469 487.6094,62.0469 Q488.5469,62.0469 489.2031,61.7969 Q489.5938,61.6406 490.0156,61.2031 Q490.2813,60.9375 490.4219,60.8594 Q490.5781,60.7813 490.7813,60.7813 Q491.1094,60.7813 491.3594,61.0469 Q491.625,61.2969 491.625,61.6406 Q491.625,61.9844 491.2813,62.3906 Q490.7813,62.9688 489.9844,63.2969 Q488.9063,63.75 487.6094,63.75 Q486.0938,63.75 484.8906,63.125 Q483.9063,62.625 483.2188,61.5625 Q482.5313,60.4844 482.5313,59.2031 L482.5313,58.0469 Q482.5313,56.7188 483.1406,55.5781 Q483.7656,54.4219 484.8594,53.8125 Q485.9531,53.1875 487.1875,53.1875 Q487.9219,53.1875 488.5625,53.3594 Q489.2188,53.5156 489.7656,53.875 Z "/><text fill="#000000" font-family="sans-serif" font-size="12" lengthAdjust="spacingAndGlyphs" textLength="60" x="501" y="62.9102">PlayerView</text><line style="stroke: #A80036; stroke-width: 1.5;" x1="473" x2="563" y1="74" y2="74"/><line style="stroke: #A80036; stroke-width: 1.5;" x1="473" x2="563" y1="82" y2="82"/><!--MD5=[3b8962fd5847b9038b2e29740dae8054]
class tictactoe.controllers.Logic--><rect fill="#FEFECE" filter="url(#f1xik9s63quvlq)" height="48" id="tictactoe.controllers.Logic" style="stroke: #A80036; stroke-width: 1.5;" width="62" x="96" y="555.5"/><ellipse cx="111" cy="571.5" fill="#ADD1B2" rx="11" ry="11" style="stroke: #A80036; stroke-width: 1.0;"/><path d="M113.7656,567.375 Q113.9219,567.1563 114.1094,567.0469 Q114.2969,566.9375 114.5156,566.9375 Q114.8906,566.9375 115.125,567.2031 Q115.3594,567.4531 115.3594,568.0625 L115.3594,569.5156 Q115.3594,570.125 115.125,570.3906 Q114.8906,570.6563 114.5156,570.6563 Q114.1719,570.6563 113.9688,570.4531 Q113.7656,570.2656 113.6563,569.75 Q113.6094,569.3906 113.4219,569.2031 Q113.0938,568.8281 112.4844,568.6094 Q111.875,568.3906 111.25,568.3906 Q110.4844,568.3906 109.8438,568.7188 Q109.2188,569.0469 108.7188,569.7969 Q108.2344,570.5469 108.2344,571.5781 L108.2344,572.6719 Q108.2344,573.9063 109.125,574.7344 Q110.0156,575.5469 111.6094,575.5469 Q112.5469,575.5469 113.2031,575.2969 Q113.5938,575.1406 114.0156,574.7031 Q114.2813,574.4375 114.4219,574.3594 Q114.5781,574.2813 114.7813,574.2813 Q115.1094,574.2813 115.3594,574.5469 Q115.625,574.7969 115.625,575.1406 Q115.625,575.4844 115.2813,575.8906 Q114.7813,576.4688 113.9844,576.7969 Q112.9063,577.25 111.6094,577.25 Q110.0938,577.25 108.8906,576.625 Q107.9063,576.125 107.2188,575.0625 Q106.5313,573.9844 106.5313,572.7031 L106.5313,571.5469 Q106.5313,570.2188 107.1406,569.0781 Q107.7656,567.9219 108.8594,567.3125 Q109.9531,566.6875 111.1875,566.6875 Q111.9219,566.6875 112.5625,566.8594 Q113.2188,567.0156 113.7656,567.375 Z "/><text fill="#000000" font-family="sans-serif" font-size="12" lengthAdjust="spacingAndGlyphs" textLength="30" x="125" y="576.4102">Logic</text><line style="stroke: #A80036; stroke-width: 1.5;" x1="97" x2="157" y1="587.5" y2="587.5"/><line style="stroke: #A80036; stroke-width: 1.5;" x1="97" x2="157" y1="595.5" y2="595.5"/><!--MD5=[4fe29ebdeb3371b5754843c99b0088e8]
reverse link utils.WithConsoleView to tictactoe.views.console.BoardView--><path d="M1051.35,281.799 C1030.52,339.487 991.462,438.288 961,461 C843.106,548.901 774.616,468.458 634,511.5 C620.316,515.689 606.272,520.977 592.592,526.738 " fill="none" id="utils.WithConsoleView&lt;-tictactoe.views.console.BoardView" style="stroke: #A80036; stroke-width: 1.0;"/><polygon fill="none" points="1044.87,279.131,1058.16,262.622,1058.07,283.812,1044.87,279.131" style="stroke: #A80036; stroke-width: 1.0;"/><!--MD5=[1b1ec1db639c24163e1745874c80bdf8]
reverse link utils.WithConsoleView to tictactoe.views.console.ChoosePlayerView--><path d="M1069.22,282.671 C1070.48,331.479 1065.02,410.676 1023,461 C964.854,530.633 860.139,559.163 790.591,570.7433 " fill="none" id="utils.WithConsoleView&lt;-tictactoe.views.console.ChoosePlayerView" style="stroke: #A80036; stroke-width: 1.0;"/><polygon fill="none" points="1062.22,282.904,1068.27,262.598,1076.21,282.247,1062.22,282.904" style="stroke: #A80036; stroke-width: 1.0;"/><!--MD5=[d1f1f21fa3eb12d639631512d925e9a6]
reverse link tictactoe.views.View to tictactoe.views.console.ConsoleView--><path d="M383.187,107.68 C372.565,125.093 359.838,145.959 347.725,165.816 " fill="none" id="tictactoe.views.View&lt;-tictactoe.views.console.ConsoleView" style="stroke: #A80036; stroke-width: 1.0;"/><polygon fill="none" points="377.366,103.779,393.757,90.35,389.318,111.069,377.366,103.779" style="stroke: #A80036; stroke-width: 1.0;"/><!--MD5=[9113815f8bbc012213d6467f94b3dc5b]
link tictactoe.views.console.ConsoleView to tictactoe.views.console.StartView--><path d="M384.5052,305.7162 C384.5052,305.7162 389.783,309.474 392,311 C435.958,341.254 450.035,343.892 496,371 C498.34,372.38 500.72,373.789 503.122,375.214 " fill="none" id="tictactoe.views.console.ConsoleView-tictactoe.views.console.StartView" style="stroke: #A80036; stroke-width: 1.0;"/><polygon fill="#A80036" points="514.457,381.969,508.7739,373.9252,510.162,379.4091,504.6781,380.7973,514.457,381.969" style="stroke: #A80036; stroke-width: 1.0;"/><line style="stroke: #A80036; stroke-width: 1.0;" x1="510.162" x2="503.2895" y1="379.4091" y2="375.3145"/><polygon fill="#A80036" points="374.826,298.623,377.3012,305.396,384.5052,305.7162,382.03,298.9432,374.826,298.623" style="stroke: #A80036; stroke-width: 1.0;"/><!--MD5=[1735144fa38f1aa47117a26d071db586]
link tictactoe.views.console.ConsoleView to tictactoe.views.console.PlayView--><path d="M288.3119,322.9292 C288.3119,322.9292 283.77,347.085 281.73,357.935 " fill="none" id="tictactoe.views.console.ConsoleView-tictactoe.views.console.PlayView" style="stroke: #A80036; stroke-width: 1.0;"/><polygon fill="#A80036" points="279.318,370.761,284.9126,362.6554,280.2422,365.8472,277.0505,361.1767,279.318,370.761" style="stroke: #A80036; stroke-width: 1.0;"/><line style="stroke: #A80036; stroke-width: 1.0;" x1="280.2422" x2="281.7205" y1="365.8472" y2="357.985"/><polygon fill="#A80036" points="290.53,311.136,285.4899,316.2933,288.3119,322.9292,293.352,317.772,290.53,311.136" style="stroke: #A80036; stroke-width: 1.0;"/><!--MD5=[44d2792f564883fbc9918566bab83309]
link tictactoe.views.console.ConsoleView to tictactoe.views.console.ResultView--><path d="M358.4134,321.1206 C358.4134,321.1206 376.132,347.698 384.091,359.636 " fill="none" id="tictactoe.views.console.ConsoleView-tictactoe.views.console.ResultView" style="stroke: #A80036; stroke-width: 1.0;"/><polygon fill="#A80036" points="391.508,370.761,389.8433,361.0538,388.7342,366.6009,383.1872,365.4919,391.508,370.761" style="stroke: #A80036; stroke-width: 1.0;"/><line style="stroke: #A80036; stroke-width: 1.0;" x1="388.7342" x2="384.2965" y1="366.6009" y2="359.945"/><polygon fill="#A80036" points="351.757,311.136,351.757,318.3471,358.4134,321.1206,358.4134,313.9095,351.757,311.136" style="stroke: #A80036; stroke-width: 1.0;"/><!--MD5=[d983ff7a7ecf259bcdad60485d19cf95]
reverse link utils.WithConsoleView to tictactoe.views.console.CoordinateView--><path d="M1025.29,276.517 C989.874,308.723 939.184,354.817 906.182,384.827 " fill="none" id="utils.WithConsoleView&lt;-tictactoe.views.console.CoordinateView" style="stroke: #A80036; stroke-width: 1.0;"/><polygon fill="none" points="1020.86,271.081,1040.37,262.805,1030.28,281.439,1020.86,271.081" style="stroke: #A80036; stroke-width: 1.0;"/><!--MD5=[521be967e4e828bbb4868581b766b1da]
reverse link tictactoe.views.ErrorView to tictactoe.views.console.ErrorView--><path d="M705.014,70.853 C776.459,76.69 886.371,90.623 912,122 C965.139,187.055 957.062,240.11 912,311 C878.295,364.023 839.241,341.068 784,371 C778.517,373.971 772.874,377.185 767.277,380.477 " fill="none" id="tictactoe.views.ErrorView&lt;-tictactoe.views.console.ErrorView" style="stroke: #A80036; stroke-width: 1.0;"/><polygon fill="none" points="704.074,77.802,684.655,69.321,705.124,63.841,704.074,77.802" style="stroke: #A80036; stroke-width: 1.0;"/><!--MD5=[f807ad8458e0e3d6ca100de41032e69a]
reverse link tictactoe.views.PlayerView to tictactoe.views.console.MachinePlayerView--><path d="M518,110.657 C518,136.045 518,167.952 518,193.414 " fill="none" id="tictactoe.views.PlayerView&lt;-tictactoe.views.console.MachinePlayerView" style="stroke: #A80036; stroke-width: 1.0;"/><polygon fill="none" points="511,110.35,518,90.35,525,110.35,511,110.35" style="stroke: #A80036; stroke-width: 1.0;"/><!--MD5=[9623adb787708e117decab727ca41eb7]
link tictactoe.views.console.PlayView to tictactoe.views.console.BoardView--><path d="M328.2,458.8 C352.723,476.721 381.851,498.006 408.695,517.624 " fill="none" id="tictactoe.views.console.PlayView-&gt;tictactoe.views.console.BoardView" style="stroke: #A80036; stroke-width: 1.0; stroke-dasharray: 7.0,7.0;"/><polygon fill="#A80036" points="412.983,520.757,408.0762,512.2175,408.9459,517.8071,403.3563,518.6768,412.983,520.757" style="stroke: #A80036; stroke-width: 1.0;"/><!--MD5=[c652744ae97b12ae96764b7849bbed7e]
link tictactoe.views.console.PlayView to tictactoe.views.PlayerView--><path d="M242.369,370.836 C204.889,306.947 151.151,189.066 216,122 C225.196,112.489 441.499,118.331 454,114 C466.879,109.538 479.357,101.511 489.822,93.34 " fill="none" id="tictactoe.views.console.PlayView-&gt;tictactoe.views.PlayerView" style="stroke: #A80036; stroke-width: 1.0; stroke-dasharray: 7.0,7.0;"/><polygon fill="#A80036" points="493.879,90.086,484.3558,92.5975,489.9788,93.2147,489.3617,98.8378,493.879,90.086" style="stroke: #A80036; stroke-width: 1.0;"/><!--MD5=[c8a90a2b65a3861994a50ca43a93eb42]
link tictactoe.views.console.PlayView to tictactoe.controllers.Logic--><path d="M231.651,461.131 C205.883,490.031 173.035,526.87 151.079,551.495 " fill="none" id="tictactoe.views.console.PlayView-&gt;tictactoe.controllers.Logic" style="stroke: #A80036; stroke-width: 1.0; stroke-dasharray: 7.0,7.0;"/><polygon fill="#A80036" points="147.651,555.34,156.6254,551.2829,150.9779,551.6074,150.6533,545.9599,147.651,555.34" style="stroke: #A80036; stroke-width: 1.0;"/><!--MD5=[21c61c4413df6bb2bed2f6b18eeadacf]
link tictactoe.views.console.ResultView to tictactoe.controllers.Logic--><path d="M362.68,452.266 C356.786,455.374 350.826,458.343 345,461 C282.146,489.663 257.121,475.766 198,511.5 C180.234,522.238 163.215,538.038 150.296,551.599 " fill="none" id="tictactoe.views.console.ResultView-&gt;tictactoe.controllers.Logic" style="stroke: #A80036; stroke-width: 1.0; stroke-dasharray: 7.0,7.0;"/><polygon fill="#A80036" points="146.763,555.358,155.8409,551.5381,150.1868,551.7141,150.0107,546.06,146.763,555.358" style="stroke: #A80036; stroke-width: 1.0;"/><!--MD5=[dfa315847ca75b86a537546c793c8626]
link tictactoe.views.console.StartView to tictactoe.views.console.ChoosePlayerView--><path d="M610.535,461.131 C632.979,484.978 660.511,514.23 682.474,537.566 " fill="none" id="tictactoe.views.console.StartView-&gt;tictactoe.views.console.ChoosePlayerView" style="stroke: #A80036; stroke-width: 1.0; stroke-dasharray: 7.0,7.0;"/><polygon fill="#A80036" points="685.949,541.259,682.6936,531.9637,682.5222,537.618,676.868,537.4465,685.949,541.259" style="stroke: #A80036; stroke-width: 1.0;"/><!--MD5=[ff58a14b78596881a931b802b8db76be]
link tictactoe.views.console.StartView to tictactoe.controllers.Logic--><path d="M514.288,452.889 C508.267,455.95 502.105,458.736 496,461 C370.05,507.712 318.241,451.605 198,511.5 C179.003,520.963 161.602,537.2 148.782,551.319 " fill="none" id="tictactoe.views.console.StartView-&gt;tictactoe.controllers.Logic" style="stroke: #A80036; stroke-width: 1.0; stroke-dasharray: 7.0,7.0;"/><polygon fill="#A80036" points="145.289,555.238,154.2634,551.1809,148.6159,551.5054,148.2913,545.8579,145.289,555.238" style="stroke: #A80036; stroke-width: 1.0;"/><!--MD5=[e665259f0705ebc0d9068c66ae844f61]
reverse link tictactoe.views.PlayerView to tictactoe.views.console.UserPlayerView--><path d="M559.743,102.135 C566.83,106.753 574.375,110.937 582,114 C607.373,124.191 618.023,110.874 643,122 C673.43,135.555 702.212,158.229 725.32,179.916 " fill="none" id="tictactoe.views.PlayerView&lt;-tictactoe.views.console.UserPlayerView" style="stroke: #A80036; stroke-width: 1.0;"/><polygon fill="none" points="555.333,107.582,543.28,90.154,563.57,96.263,555.333,107.582" style="stroke: #A80036; stroke-width: 1.0;"/><!--MD5=[d08a44d06940417b04e1f442f789385d]
link tictactoe.views.console.UserPlayerView to tictactoe.views.console.ErrorView--><path d="M756.536,297.452 C747.388,322.153 736.915,350.429 728.534,373.057 " fill="none" id="tictactoe.views.console.UserPlayerView-&gt;tictactoe.views.console.ErrorView" style="stroke: #A80036; stroke-width: 1.0; stroke-dasharray: 7.0,7.0;"/><polygon fill="#A80036" points="726.779,377.797,733.6567,370.7473,728.5161,373.1085,726.155,367.9679,726.779,377.797" style="stroke: #A80036; stroke-width: 1.0;"/><!--MD5=[93525d2da9d792717dcb2150911bbe9e]
link tictactoe.views.console.UserPlayerView to tictactoe.views.console.CoordinateView--><path d="M809.37,297.452 C824.165,324.783 841.329,356.492 854.099,380.084 " fill="none" id="tictactoe.views.console.UserPlayerView-&gt;tictactoe.views.console.CoordinateView" style="stroke: #A80036; stroke-width: 1.0; stroke-dasharray: 7.0,7.0;"/><polygon fill="#A80036" points="856.593,384.69,855.8267,374.871,854.213,380.2928,848.7912,378.6791,856.593,384.69" style="stroke: #A80036; stroke-width: 1.0;"/><!--MD5=[3bd2d1c3511444f9306dd0e53d674bb1]
@startuml

class  tictactoe.views.console.BoardView{
~ board: Board
~ BoardView(Board)
~ write(): void
- printRowBoard(int): void
- printSquareValueBoard(int, int): void
}
utils.WithConsoleView <|-down- tictactoe.views.console.BoardView

class  tictactoe.views.console.ChoosePlayerView{
~ readPlayers(): void
- readUsersNumber(): int
}
utils.WithConsoleView <|-down- tictactoe.views.console.ChoosePlayerView

class  tictactoe.views.console.ConsoleView{
- startView: StartView
- playView: PlayView
- resultView: ResultView
+ ConsoleView(Logic)
# start(): void
# play(): boolean
# result(): void
}
tictactoe.views.View <|-down- tictactoe.views.console.ConsoleView
tictactoe.views.console.ConsoleView *-down-> tictactoe.views.console.StartView
tictactoe.views.console.ConsoleView *-down-> tictactoe.views.console.PlayView
tictactoe.views.console.ConsoleView *-down-> tictactoe.views.console.ResultView

class  tictactoe.views.console.CoordinateView{
~ read(String): Coordinate
}
utils.WithConsoleView <|-down- tictactoe.views.console.CoordinateView

class  tictactoe.views.console.ErrorView{
~ ErrorView(Error)
~ writeln(): void
}
tictactoe.views.ErrorView <|-down- tictactoe.views.console.ErrorView

class  tictactoe.views.console.MachinePlayerView{
~ MachinePlayerView(Player)
~ readCoordinateToPut(): Coordinate
~ readCoordinatesToMove(): Coordinate[]
}
tictactoe.views.PlayerView <|-down- tictactoe.views.console.MachinePlayerView

class  tictactoe.views.console.PlayView{
~ logic: Logic
~ PlayView(Logic)
~ interact(): boolean
}
tictactoe.views.console.PlayView ..> tictactoe.views.console.BoardView
tictactoe.views.console.PlayView ..> tictactoe.views.PlayerView
tictactoe.views.console.PlayView ..> tictactoe.controllers.Logic

class tictactoe.views.console.ResultView{
~ logic: Logic
~ ResultView(Logic)
~ interact(): void
}
tictactoe.views.console.ResultView..> tictactoe.controllers.Logic

class tictactoe.views.console.StartView{
~ logic: Logic
~ StartView(Logic)
~ interact(): void
}
tictactoe.views.console.StartView ..> tictactoe.views.console.ChoosePlayerView
tictactoe.views.console.StartView ..> tictactoe.controllers.Logic

class  tictactoe.views.console.UserPlayerView{
~ {static} ENTER_COORDINATE_TO_PUT: String
~ {static} ENTER_COORDINATE_TO_REMOVE: String
~ UserPlayerView(Player)
~ readCoordinateToPut(): Coordinate
~ readCoordinatesToMove(): Coordinate[]
}
tictactoe.views.PlayerView <|-down- tictactoe.views.console.UserPlayerView
tictactoe.views.console.UserPlayerView ..> tictactoe.views.console.ErrorView
tictactoe.views.console.UserPlayerView ..> tictactoe.views.console.CoordinateView

@enduml

PlantUML version 1.2020.15(Sun Jun 28 13:39:45 CEST 2020)
(GPL source distribution)
Java Runtime: Java(TM) SE Runtime Environment
JVM: Java HotSpot(TM) 64-Bit Server VM
Default Encoding: windows-1252
Language: es
Country: ES
--></g></svg>