<?xml version="1.0" encoding="UTF-8" standalone="no"?><svg xmlns="http://www.w3.org/2000/svg" xmlns:xlink="http://www.w3.org/1999/xlink" contentScriptType="application/ecmascript" contentStyleType="text/css" height="790px" preserveAspectRatio="none" style="width:1115px;height:790px;" version="1.1" viewBox="0 0 1115 790" width="1115px" zoomAndPan="magnify"><defs><filter height="300%" id="f1gmp87qgtqxs5" width="300%" x="-1" y="-1"><feGaussianBlur result="blurOut" stdDeviation="2.0"/><feColorMatrix in="blurOut" result="blurOut2" type="matrix" values="0 0 0 0 0 0 0 0 0 0 0 0 0 0 0 0 0 0 .4 0"/><feOffset dx="4.0" dy="4.0" in="blurOut2" result="blurOut3"/><feBlend in="SourceGraphic" in2="blurOut3" mode="normal"/></filter></defs><g><!--MD5=[ee7e9a007a7c4d40c0679a27f272732d]
cluster tictactoe.controllers--><polygon fill="#FFFFFF" filter="url(#f1gmp87qgtqxs5)" points="16,6,164,6,171,29.6094,748,29.6094,748,654,16,654,16,6" style="stroke: #000000; stroke-width: 1.5;"/><line style="stroke: #000000; stroke-width: 1.5;" x1="16" x2="171" y1="29.6094" y2="29.6094"/><text fill="#000000" font-family="sans-serif" font-size="14" font-weight="bold" lengthAdjust="spacingAndGlyphs" textLength="142" x="20" y="22.5332">tictactoe.controllers</text><!--MD5=[51cd642fcc96b47682a93d9084d46dec]
cluster tictactoe.models--><polygon fill="#FFFFFF" filter="url(#f1gmp87qgtqxs5)" points="644,678,766,678,773,701.6094,1093,701.6094,1093,778,644,778,644,678" style="stroke: #000000; stroke-width: 1.5;"/><line style="stroke: #000000; stroke-width: 1.5;" x1="644" x2="773" y1="701.6094" y2="701.6094"/><text fill="#000000" font-family="sans-serif" font-size="14" font-weight="bold" lengthAdjust="spacingAndGlyphs" textLength="116" x="648" y="694.5332">tictactoe.models</text><!--MD5=[957eef6538bab7382edbc29d98579a60]
class tictactoe.controllers.Controller--><rect fill="#FEFECE" filter="url(#f1gmp87qgtqxs5)" height="103.3438" id="tictactoe.controllers.Controller" style="stroke: #A80036; stroke-width: 1.5;" width="139" x="533.5" y="219"/><ellipse cx="572.35" cy="235" fill="#ADD1B2" rx="11" ry="11" style="stroke: #A80036; stroke-width: 1.0;"/><path d="M575.1156,230.875 Q575.2719,230.6563 575.4594,230.5469 Q575.6469,230.4375 575.8656,230.4375 Q576.2406,230.4375 576.475,230.7031 Q576.7094,230.9531 576.7094,231.5625 L576.7094,233.0156 Q576.7094,233.625 576.475,233.8906 Q576.2406,234.1563 575.8656,234.1563 Q575.5219,234.1563 575.3188,233.9531 Q575.1156,233.7656 575.0063,233.25 Q574.9594,232.8906 574.7719,232.7031 Q574.4438,232.3281 573.8344,232.1094 Q573.225,231.8906 572.6,231.8906 Q571.8344,231.8906 571.1938,232.2188 Q570.5688,232.5469 570.0688,233.2969 Q569.5844,234.0469 569.5844,235.0781 L569.5844,236.1719 Q569.5844,237.4063 570.475,238.2344 Q571.3656,239.0469 572.9594,239.0469 Q573.8969,239.0469 574.5531,238.7969 Q574.9438,238.6406 575.3656,238.2031 Q575.6313,237.9375 575.7719,237.8594 Q575.9281,237.7813 576.1313,237.7813 Q576.4594,237.7813 576.7094,238.0469 Q576.975,238.2969 576.975,238.6406 Q576.975,238.9844 576.6313,239.3906 Q576.1313,239.9688 575.3344,240.2969 Q574.2563,240.75 572.9594,240.75 Q571.4438,240.75 570.2406,240.125 Q569.2563,239.625 568.5688,238.5625 Q567.8813,237.4844 567.8813,236.2031 L567.8813,235.0469 Q567.8813,233.7188 568.4906,232.5781 Q569.1156,231.4219 570.2094,230.8125 Q571.3031,230.1875 572.5375,230.1875 Q573.2719,230.1875 573.9125,230.3594 Q574.5688,230.5156 575.1156,230.875 Z "/><text fill="#000000" font-family="sans-serif" font-size="12" lengthAdjust="spacingAndGlyphs" textLength="54" x="591.65" y="239.9102">Controller</text><line style="stroke: #A80036; stroke-width: 1.5;" x1="534.5" x2="671.5" y1="251" y2="251"/><polygon fill="none" points="544.5,257,548.5,261,544.5,265,540.5,261" style="stroke: #B38D22; stroke-width: 1.0;"/><text fill="#000000" font-family="sans-serif" font-size="11" lengthAdjust="spacingAndGlyphs" textLength="60" x="553.5" y="266.4189">game: Game</text><polygon fill="none" points="544.5,270.8359,548.5,274.8359,544.5,278.8359,540.5,274.8359" style="stroke: #B38D22; stroke-width: 1.0;"/><text fill="#000000" font-family="sans-serif" font-size="11" lengthAdjust="spacingAndGlyphs" textLength="55" x="553.5" y="280.2549">state: State</text><line style="stroke: #A80036; stroke-width: 1.5;" x1="534.5" x2="671.5" y1="286.6719" y2="286.6719"/><polygon fill="#4177AF" points="544.5,293.6719,540.5,299.6719,548.5,299.6719" style="stroke: #1963A0; stroke-width: 1.0;"/><text fill="#000000" font-family="sans-serif" font-size="11" lengthAdjust="spacingAndGlyphs" textLength="113" x="553.5" y="302.0908">Controller(Game, State)</text><ellipse cx="544.5" cy="311.5078" fill="#84BE84" rx="3" ry="3" style="stroke: #038048; stroke-width: 1.0;"/><text fill="#000000" font-family="sans-serif" font-size="11" lengthAdjust="spacingAndGlyphs" textLength="87" x="553.5" y="315.9268">getBoard(): Board</text><!--MD5=[3b8962fd5847b9038b2e29740dae8054]
class tictactoe.controllers.Logic--><rect fill="#FEFECE" filter="url(#f1gmp87qgtqxs5)" height="117.1797" id="tictactoe.controllers.Logic" style="stroke: #A80036; stroke-width: 1.5;" width="220" x="512" y="42"/><ellipse cx="602.75" cy="58" fill="#ADD1B2" rx="11" ry="11" style="stroke: #A80036; stroke-width: 1.0;"/><path d="M605.5156,53.875 Q605.6719,53.6563 605.8594,53.5469 Q606.0469,53.4375 606.2656,53.4375 Q606.6406,53.4375 606.875,53.7031 Q607.1094,53.9531 607.1094,54.5625 L607.1094,56.0156 Q607.1094,56.625 606.875,56.8906 Q606.6406,57.1563 606.2656,57.1563 Q605.9219,57.1563 605.7188,56.9531 Q605.5156,56.7656 605.4063,56.25 Q605.3594,55.8906 605.1719,55.7031 Q604.8438,55.3281 604.2344,55.1094 Q603.625,54.8906 603,54.8906 Q602.2344,54.8906 601.5938,55.2188 Q600.9688,55.5469 600.4688,56.2969 Q599.9844,57.0469 599.9844,58.0781 L599.9844,59.1719 Q599.9844,60.4063 600.875,61.2344 Q601.7656,62.0469 603.3594,62.0469 Q604.2969,62.0469 604.9531,61.7969 Q605.3438,61.6406 605.7656,61.2031 Q606.0313,60.9375 606.1719,60.8594 Q606.3281,60.7813 606.5313,60.7813 Q606.8594,60.7813 607.1094,61.0469 Q607.375,61.2969 607.375,61.6406 Q607.375,61.9844 607.0313,62.3906 Q606.5313,62.9688 605.7344,63.2969 Q604.6563,63.75 603.3594,63.75 Q601.8438,63.75 600.6406,63.125 Q599.6563,62.625 598.9688,61.5625 Q598.2813,60.4844 598.2813,59.2031 L598.2813,58.0469 Q598.2813,56.7188 598.8906,55.5781 Q599.5156,54.4219 600.6094,53.8125 Q601.7031,53.1875 602.9375,53.1875 Q603.6719,53.1875 604.3125,53.3594 Q604.9688,53.5156 605.5156,53.875 Z "/><text fill="#000000" font-family="sans-serif" font-size="12" lengthAdjust="spacingAndGlyphs" textLength="30" x="623.25" y="62.9102">Logic</text><line style="stroke: #A80036; stroke-width: 1.5;" x1="513" x2="731" y1="74" y2="74"/><rect fill="none" height="6" style="stroke: #C82930; stroke-width: 1.0;" width="6" x="520" y="82"/><text fill="#000000" font-family="sans-serif" font-size="11" lengthAdjust="spacingAndGlyphs" textLength="55" x="532" y="89.4189">state: State</text><rect fill="none" height="6" style="stroke: #C82930; stroke-width: 1.0;" width="6" x="520" y="95.8359"/><text fill="#000000" font-family="sans-serif" font-size="11" lengthAdjust="spacingAndGlyphs" textLength="60" x="532" y="103.2549">game: Game</text><rect fill="none" height="6" style="stroke: #C82930; stroke-width: 1.0;" width="6" x="520" y="109.6719"/><text fill="#000000" font-family="sans-serif" font-size="11" lengthAdjust="spacingAndGlyphs" textLength="194" x="532" y="117.0908">controllers: Map&lt;StateValue, Controller&gt;</text><line style="stroke: #A80036; stroke-width: 1.5;" x1="513" x2="731" y1="123.5078" y2="123.5078"/><ellipse cx="523" cy="134.5078" fill="#84BE84" rx="3" ry="3" style="stroke: #038048; stroke-width: 1.0;"/><text fill="#000000" font-family="sans-serif" font-size="11" lengthAdjust="spacingAndGlyphs" textLength="34" x="532" y="138.9268">Logic()</text><ellipse cx="523" cy="148.3438" fill="#84BE84" rx="3" ry="3" style="stroke: #038048; stroke-width: 1.0;"/><text fill="#000000" font-family="sans-serif" font-size="11" lengthAdjust="spacingAndGlyphs" textLength="121" x="532" y="152.7627">getController(): Controller</text><!--MD5=[b574e60c06c50037ff1b014277a67d62]
class tictactoe.controllers.PlayController--><rect fill="#FEFECE" filter="url(#f1gmp87qgtqxs5)" height="255.5391" id="tictactoe.controllers.PlayController" style="stroke: #A80036; stroke-width: 1.5;" width="298" x="434" y="382"/><ellipse cx="540.25" cy="398" fill="#ADD1B2" rx="11" ry="11" style="stroke: #A80036; stroke-width: 1.0;"/><path d="M543.0156,393.875 Q543.1719,393.6563 543.3594,393.5469 Q543.5469,393.4375 543.7656,393.4375 Q544.1406,393.4375 544.375,393.7031 Q544.6094,393.9531 544.6094,394.5625 L544.6094,396.0156 Q544.6094,396.625 544.375,396.8906 Q544.1406,397.1563 543.7656,397.1563 Q543.4219,397.1563 543.2188,396.9531 Q543.0156,396.7656 542.9063,396.25 Q542.8594,395.8906 542.6719,395.7031 Q542.3438,395.3281 541.7344,395.1094 Q541.125,394.8906 540.5,394.8906 Q539.7344,394.8906 539.0938,395.2188 Q538.4688,395.5469 537.9688,396.2969 Q537.4844,397.0469 537.4844,398.0781 L537.4844,399.1719 Q537.4844,400.4063 538.375,401.2344 Q539.2656,402.0469 540.8594,402.0469 Q541.7969,402.0469 542.4531,401.7969 Q542.8438,401.6406 543.2656,401.2031 Q543.5313,400.9375 543.6719,400.8594 Q543.8281,400.7813 544.0313,400.7813 Q544.3594,400.7813 544.6094,401.0469 Q544.875,401.2969 544.875,401.6406 Q544.875,401.9844 544.5313,402.3906 Q544.0313,402.9688 543.2344,403.2969 Q542.1563,403.75 540.8594,403.75 Q539.3438,403.75 538.1406,403.125 Q537.1563,402.625 536.4688,401.5625 Q535.7813,400.4844 535.7813,399.2031 L535.7813,398.0469 Q535.7813,396.7188 536.3906,395.5781 Q537.0156,394.4219 538.1094,393.8125 Q539.2031,393.1875 540.4375,393.1875 Q541.1719,393.1875 541.8125,393.3594 Q542.4688,393.5156 543.0156,393.875 Z "/><text fill="#000000" font-family="sans-serif" font-size="12" lengthAdjust="spacingAndGlyphs" textLength="77" x="560.75" y="402.9102">PlayController</text><line style="stroke: #A80036; stroke-width: 1.5;" x1="435" x2="731" y1="414" y2="414"/><line style="stroke: #A80036; stroke-width: 1.5;" x1="435" x2="731" y1="422" y2="422"/><ellipse cx="445" cy="433" fill="#84BE84" rx="3" ry="3" style="stroke: #038048; stroke-width: 1.0;"/><text fill="#000000" font-family="sans-serif" font-size="11" lengthAdjust="spacingAndGlyphs" textLength="133" x="454" y="437.4189">PlayController(Game, State)</text><ellipse cx="445" cy="446.8359" fill="#84BE84" rx="3" ry="3" style="stroke: #038048; stroke-width: 1.0;"/><text fill="#000000" font-family="sans-serif" font-size="11" lengthAdjust="spacingAndGlyphs" textLength="164" x="454" y="451.2549">getTokenPlayerFromTurn(): Player</text><ellipse cx="445" cy="460.6719" fill="#84BE84" rx="3" ry="3" style="stroke: #038048; stroke-width: 1.0;"/><text fill="#000000" font-family="sans-serif" font-size="11" lengthAdjust="spacingAndGlyphs" textLength="224" x="454" y="465.0908">getTypeOfTokenPlayerFromTurn(): PlayerType</text><ellipse cx="445" cy="474.5078" fill="#84BE84" rx="3" ry="3" style="stroke: #038048; stroke-width: 1.0;"/><text fill="#000000" font-family="sans-serif" font-size="11" lengthAdjust="spacingAndGlyphs" textLength="196" x="454" y="478.9268">controlErrorsPutCoordinate(int, int): Error</text><ellipse cx="445" cy="488.3438" fill="#84BE84" rx="3" ry="3" style="stroke: #038048; stroke-width: 1.0;"/><text fill="#000000" font-family="sans-serif" font-size="11" lengthAdjust="spacingAndGlyphs" textLength="235" x="454" y="492.7627">controlErrorsMoveOriginCoordinate(int, int): Error</text><ellipse cx="445" cy="502.1797" fill="#84BE84" rx="3" ry="3" style="stroke: #038048; stroke-width: 1.0;"/><text fill="#000000" font-family="sans-serif" font-size="11" lengthAdjust="spacingAndGlyphs" textLength="272" x="454" y="506.5986">controlErrorsMoveTargetCoordinate(int, int, int, int): Error</text><ellipse cx="445" cy="516.0156" fill="#84BE84" rx="3" ry="3" style="stroke: #038048; stroke-width: 1.0;"/><text fill="#000000" font-family="sans-serif" font-size="11" lengthAdjust="spacingAndGlyphs" textLength="164" x="454" y="520.4346">isCoordinateValid(int, int): boolean</text><ellipse cx="445" cy="529.8516" fill="#84BE84" rx="3" ry="3" style="stroke: #038048; stroke-width: 1.0;"/><text fill="#000000" font-family="sans-serif" font-size="11" lengthAdjust="spacingAndGlyphs" textLength="165" x="454" y="534.2705">generateRandomCoordinate(): int[]</text><ellipse cx="445" cy="543.6875" fill="#84BE84" rx="3" ry="3" style="stroke: #038048; stroke-width: 1.0;"/><text fill="#000000" font-family="sans-serif" font-size="11" lengthAdjust="spacingAndGlyphs" textLength="133" x="454" y="548.1064">isBoardComplete(): boolean</text><ellipse cx="445" cy="557.5234" fill="#84BE84" rx="3" ry="3" style="stroke: #038048; stroke-width: 1.0;"/><text fill="#000000" font-family="sans-serif" font-size="11" lengthAdjust="spacingAndGlyphs" textLength="182" x="454" y="561.9424">putTokenPlayerFromTurn(int, int): void</text><ellipse cx="445" cy="571.3594" fill="#84BE84" rx="3" ry="3" style="stroke: #038048; stroke-width: 1.0;"/><text fill="#000000" font-family="sans-serif" font-size="11" lengthAdjust="spacingAndGlyphs" textLength="227" x="454" y="575.7783">moveTokenPlayerFromTurn(int, int, int, int): void</text><ellipse cx="445" cy="585.1953" fill="#84BE84" rx="3" ry="3" style="stroke: #038048; stroke-width: 1.0;"/><text fill="#000000" font-family="sans-serif" font-size="11" lengthAdjust="spacingAndGlyphs" textLength="92" x="454" y="589.6143">changeTurn(): void</text><ellipse cx="445" cy="599.0313" fill="#84BE84" rx="3" ry="3" style="stroke: #038048; stroke-width: 1.0;"/><text fill="#000000" font-family="sans-serif" font-size="11" lengthAdjust="spacingAndGlyphs" textLength="115" x="454" y="603.4502">getToken(int, int): Token</text><ellipse cx="445" cy="612.8672" fill="#84BE84" rx="3" ry="3" style="stroke: #038048; stroke-width: 1.0;"/><text fill="#000000" font-family="sans-serif" font-size="11" lengthAdjust="spacingAndGlyphs" textLength="141" x="454" y="617.2861">getCoordinateDimension(): int</text><ellipse cx="445" cy="626.7031" fill="#84BE84" rx="3" ry="3" style="stroke: #038048; stroke-width: 1.0;"/><text fill="#000000" font-family="sans-serif" font-size="11" lengthAdjust="spacingAndGlyphs" textLength="110" x="454" y="631.1221">isTicTacToe(): boolean</text><!--MD5=[2c3ef77d19c2424f55dfd6db4f13e20e]
class tictactoe.controllers.ResultController--><rect fill="#FEFECE" filter="url(#f1gmp87qgtqxs5)" height="75.6719" id="tictactoe.controllers.ResultController" style="stroke: #A80036; stroke-width: 1.5;" width="169" x="32.5" y="472"/><ellipse cx="68.65" cy="488" fill="#ADD1B2" rx="11" ry="11" style="stroke: #A80036; stroke-width: 1.0;"/><path d="M71.4156,483.875 Q71.5719,483.6563 71.7594,483.5469 Q71.9469,483.4375 72.1656,483.4375 Q72.5406,483.4375 72.775,483.7031 Q73.0094,483.9531 73.0094,484.5625 L73.0094,486.0156 Q73.0094,486.625 72.775,486.8906 Q72.5406,487.1563 72.1656,487.1563 Q71.8219,487.1563 71.6188,486.9531 Q71.4156,486.7656 71.3063,486.25 Q71.2594,485.8906 71.0719,485.7031 Q70.7438,485.3281 70.1344,485.1094 Q69.525,484.8906 68.9,484.8906 Q68.1344,484.8906 67.4938,485.2188 Q66.8688,485.5469 66.3688,486.2969 Q65.8844,487.0469 65.8844,488.0781 L65.8844,489.1719 Q65.8844,490.4063 66.775,491.2344 Q67.6656,492.0469 69.2594,492.0469 Q70.1969,492.0469 70.8531,491.7969 Q71.2438,491.6406 71.6656,491.2031 Q71.9313,490.9375 72.0719,490.8594 Q72.2281,490.7813 72.4313,490.7813 Q72.7594,490.7813 73.0094,491.0469 Q73.275,491.2969 73.275,491.6406 Q73.275,491.9844 72.9313,492.3906 Q72.4313,492.9688 71.6344,493.2969 Q70.5563,493.75 69.2594,493.75 Q67.7438,493.75 66.5406,493.125 Q65.5563,492.625 64.8688,491.5625 Q64.1813,490.4844 64.1813,489.2031 L64.1813,488.0469 Q64.1813,486.7188 64.7906,485.5781 Q65.4156,484.4219 66.5094,483.8125 Q67.6031,483.1875 68.8375,483.1875 Q69.5719,483.1875 70.2125,483.3594 Q70.8688,483.5156 71.4156,483.875 Z "/><text fill="#000000" font-family="sans-serif" font-size="12" lengthAdjust="spacingAndGlyphs" textLength="90" x="87.35" y="492.9102">ResultController</text><line style="stroke: #A80036; stroke-width: 1.5;" x1="33.5" x2="200.5" y1="504" y2="504"/><line style="stroke: #A80036; stroke-width: 1.5;" x1="33.5" x2="200.5" y1="512" y2="512"/><polygon fill="#4177AF" points="43.5,519,39.5,525,47.5,525" style="stroke: #1963A0; stroke-width: 1.0;"/><text fill="#000000" font-family="sans-serif" font-size="11" lengthAdjust="spacingAndGlyphs" textLength="143" x="52.5" y="527.4189">ResultController(Game, State)</text><polygon fill="#4177AF" points="43.5,532.8359,39.5,538.8359,47.5,538.8359" style="stroke: #1963A0; stroke-width: 1.0;"/><text fill="#000000" font-family="sans-serif" font-size="11" lengthAdjust="spacingAndGlyphs" textLength="141" x="52.5" y="541.2549">getOtherValueFromTurn(): int</text><!--MD5=[8ede4dbfb3b498095887802b64b699f0]
class tictactoe.controllers.StartController--><rect fill="#FEFECE" filter="url(#f1gmp87qgtqxs5)" height="75.6719" id="tictactoe.controllers.StartController" style="stroke: #A80036; stroke-width: 1.5;" width="162" x="237" y="472"/><ellipse cx="274.95" cy="488" fill="#ADD1B2" rx="11" ry="11" style="stroke: #A80036; stroke-width: 1.0;"/><path d="M277.7156,483.875 Q277.8719,483.6563 278.0594,483.5469 Q278.2469,483.4375 278.4656,483.4375 Q278.8406,483.4375 279.075,483.7031 Q279.3094,483.9531 279.3094,484.5625 L279.3094,486.0156 Q279.3094,486.625 279.075,486.8906 Q278.8406,487.1563 278.4656,487.1563 Q278.1219,487.1563 277.9188,486.9531 Q277.7156,486.7656 277.6063,486.25 Q277.5594,485.8906 277.3719,485.7031 Q277.0438,485.3281 276.4344,485.1094 Q275.825,484.8906 275.2,484.8906 Q274.4344,484.8906 273.7938,485.2188 Q273.1688,485.5469 272.6688,486.2969 Q272.1844,487.0469 272.1844,488.0781 L272.1844,489.1719 Q272.1844,490.4063 273.075,491.2344 Q273.9656,492.0469 275.5594,492.0469 Q276.4969,492.0469 277.1531,491.7969 Q277.5438,491.6406 277.9656,491.2031 Q278.2313,490.9375 278.3719,490.8594 Q278.5281,490.7813 278.7313,490.7813 Q279.0594,490.7813 279.3094,491.0469 Q279.575,491.2969 279.575,491.6406 Q279.575,491.9844 279.2313,492.3906 Q278.7313,492.9688 277.9344,493.2969 Q276.8563,493.75 275.5594,493.75 Q274.0438,493.75 272.8406,493.125 Q271.8563,492.625 271.1688,491.5625 Q270.4813,490.4844 270.4813,489.2031 L270.4813,488.0469 Q270.4813,486.7188 271.0906,485.5781 Q271.7156,484.4219 272.8094,483.8125 Q273.9031,483.1875 275.1375,483.1875 Q275.8719,483.1875 276.5125,483.3594 Q277.1688,483.5156 277.7156,483.875 Z "/><text fill="#000000" font-family="sans-serif" font-size="12" lengthAdjust="spacingAndGlyphs" textLength="79" x="294.05" y="492.9102">StartController</text><line style="stroke: #A80036; stroke-width: 1.5;" x1="238" x2="398" y1="504" y2="504"/><line style="stroke: #A80036; stroke-width: 1.5;" x1="238" x2="398" y1="512" y2="512"/><polygon fill="#4177AF" points="248,519,244,525,252,525" style="stroke: #1963A0; stroke-width: 1.0;"/><text fill="#000000" font-family="sans-serif" font-size="11" lengthAdjust="spacingAndGlyphs" textLength="136" x="257" y="527.4189">StartController(Game, State)</text><polygon fill="#4177AF" points="248,532.8359,244,538.8359,252,538.8359" style="stroke: #1963A0; stroke-width: 1.0;"/><text fill="#000000" font-family="sans-serif" font-size="11" lengthAdjust="spacingAndGlyphs" textLength="101" x="257" y="541.2549">createPlayers(): void</text><!--MD5=[8d3188f3c370ea7d5d91d12bca83b67a]
class tictactoe.models.Game--><rect fill="#FEFECE" filter="url(#f1gmp87qgtqxs5)" height="48" id="tictactoe.models.Game" style="stroke: #A80036; stroke-width: 1.5;" width="66" x="789" y="714"/><ellipse cx="804" cy="730" fill="#ADD1B2" rx="11" ry="11" style="stroke: #A80036; stroke-width: 1.0;"/><path d="M806.7656,725.875 Q806.9219,725.6563 807.1094,725.5469 Q807.2969,725.4375 807.5156,725.4375 Q807.8906,725.4375 808.125,725.7031 Q808.3594,725.9531 808.3594,726.5625 L808.3594,728.0156 Q808.3594,728.625 808.125,728.8906 Q807.8906,729.1563 807.5156,729.1563 Q807.1719,729.1563 806.9688,728.9531 Q806.7656,728.7656 806.6563,728.25 Q806.6094,727.8906 806.4219,727.7031 Q806.0938,727.3281 805.4844,727.1094 Q804.875,726.8906 804.25,726.8906 Q803.4844,726.8906 802.8438,727.2188 Q802.2188,727.5469 801.7188,728.2969 Q801.2344,729.0469 801.2344,730.0781 L801.2344,731.1719 Q801.2344,732.4063 802.125,733.2344 Q803.0156,734.0469 804.6094,734.0469 Q805.5469,734.0469 806.2031,733.7969 Q806.5938,733.6406 807.0156,733.2031 Q807.2813,732.9375 807.4219,732.8594 Q807.5781,732.7813 807.7813,732.7813 Q808.1094,732.7813 808.3594,733.0469 Q808.625,733.2969 808.625,733.6406 Q808.625,733.9844 808.2813,734.3906 Q807.7813,734.9688 806.9844,735.2969 Q805.9063,735.75 804.6094,735.75 Q803.0938,735.75 801.8906,735.125 Q800.9063,734.625 800.2188,733.5625 Q799.5313,732.4844 799.5313,731.2031 L799.5313,730.0469 Q799.5313,728.7188 800.1406,727.5781 Q800.7656,726.4219 801.8594,725.8125 Q802.9531,725.1875 804.1875,725.1875 Q804.9219,725.1875 805.5625,725.3594 Q806.2188,725.5156 806.7656,725.875 Z "/><text fill="#000000" font-family="sans-serif" font-size="12" lengthAdjust="spacingAndGlyphs" textLength="34" x="818" y="734.9102">Game</text><line style="stroke: #A80036; stroke-width: 1.5;" x1="790" x2="854" y1="746" y2="746"/><line style="stroke: #A80036; stroke-width: 1.5;" x1="790" x2="854" y1="754" y2="754"/><!--MD5=[895b6132a90c2908aef15a128e2ee1f5]
class tictactoe.models.State--><rect fill="#FEFECE" filter="url(#f1gmp87qgtqxs5)" height="48" id="tictactoe.models.State" style="stroke: #A80036; stroke-width: 1.5;" width="60" x="890" y="714"/><ellipse cx="905" cy="730" fill="#ADD1B2" rx="11" ry="11" style="stroke: #A80036; stroke-width: 1.0;"/><path d="M907.7656,725.875 Q907.9219,725.6563 908.1094,725.5469 Q908.2969,725.4375 908.5156,725.4375 Q908.8906,725.4375 909.125,725.7031 Q909.3594,725.9531 909.3594,726.5625 L909.3594,728.0156 Q909.3594,728.625 909.125,728.8906 Q908.8906,729.1563 908.5156,729.1563 Q908.1719,729.1563 907.9688,728.9531 Q907.7656,728.7656 907.6563,728.25 Q907.6094,727.8906 907.4219,727.7031 Q907.0938,727.3281 906.4844,727.1094 Q905.875,726.8906 905.25,726.8906 Q904.4844,726.8906 903.8438,727.2188 Q903.2188,727.5469 902.7188,728.2969 Q902.2344,729.0469 902.2344,730.0781 L902.2344,731.1719 Q902.2344,732.4063 903.125,733.2344 Q904.0156,734.0469 905.6094,734.0469 Q906.5469,734.0469 907.2031,733.7969 Q907.5938,733.6406 908.0156,733.2031 Q908.2813,732.9375 908.4219,732.8594 Q908.5781,732.7813 908.7813,732.7813 Q909.1094,732.7813 909.3594,733.0469 Q909.625,733.2969 909.625,733.6406 Q909.625,733.9844 909.2813,734.3906 Q908.7813,734.9688 907.9844,735.2969 Q906.9063,735.75 905.6094,735.75 Q904.0938,735.75 902.8906,735.125 Q901.9063,734.625 901.2188,733.5625 Q900.5313,732.4844 900.5313,731.2031 L900.5313,730.0469 Q900.5313,728.7188 901.1406,727.5781 Q901.7656,726.4219 902.8594,725.8125 Q903.9531,725.1875 905.1875,725.1875 Q905.9219,725.1875 906.5625,725.3594 Q907.2188,725.5156 907.7656,725.875 Z "/><text fill="#000000" font-family="sans-serif" font-size="12" lengthAdjust="spacingAndGlyphs" textLength="28" x="919" y="734.9102">State</text><line style="stroke: #A80036; stroke-width: 1.5;" x1="891" x2="949" y1="746" y2="746"/><line style="stroke: #A80036; stroke-width: 1.5;" x1="891" x2="949" y1="754" y2="754"/><!--MD5=[c8f7ee38df84fc6c47e5792f2767cf35]
class tictactoe.models.StateValue--><rect fill="#FEFECE" filter="url(#f1gmp87qgtqxs5)" height="48" id="tictactoe.models.StateValue" style="stroke: #A80036; stroke-width: 1.5;" width="91" x="985.5" y="714"/><ellipse cx="1000.5" cy="730" fill="#ADD1B2" rx="11" ry="11" style="stroke: #A80036; stroke-width: 1.0;"/><path d="M1003.2656,725.875 Q1003.4219,725.6563 1003.6094,725.5469 Q1003.7969,725.4375 1004.0156,725.4375 Q1004.3906,725.4375 1004.625,725.7031 Q1004.8594,725.9531 1004.8594,726.5625 L1004.8594,728.0156 Q1004.8594,728.625 1004.625,728.8906 Q1004.3906,729.1563 1004.0156,729.1563 Q1003.6719,729.1563 1003.4688,728.9531 Q1003.2656,728.7656 1003.1563,728.25 Q1003.1094,727.8906 1002.9219,727.7031 Q1002.5938,727.3281 1001.9844,727.1094 Q1001.375,726.8906 1000.75,726.8906 Q999.9844,726.8906 999.3438,727.2188 Q998.7188,727.5469 998.2188,728.2969 Q997.7344,729.0469 997.7344,730.0781 L997.7344,731.1719 Q997.7344,732.4063 998.625,733.2344 Q999.5156,734.0469 1001.1094,734.0469 Q1002.0469,734.0469 1002.7031,733.7969 Q1003.0938,733.6406 1003.5156,733.2031 Q1003.7813,732.9375 1003.9219,732.8594 Q1004.0781,732.7813 1004.2813,732.7813 Q1004.6094,732.7813 1004.8594,733.0469 Q1005.125,733.2969 1005.125,733.6406 Q1005.125,733.9844 1004.7813,734.3906 Q1004.2813,734.9688 1003.4844,735.2969 Q1002.4063,735.75 1001.1094,735.75 Q999.5938,735.75 998.3906,735.125 Q997.4063,734.625 996.7188,733.5625 Q996.0313,732.4844 996.0313,731.2031 L996.0313,730.0469 Q996.0313,728.7188 996.6406,727.5781 Q997.2656,726.4219 998.3594,725.8125 Q999.4531,725.1875 1000.6875,725.1875 Q1001.4219,725.1875 1002.0625,725.3594 Q1002.7188,725.5156 1003.2656,725.875 Z "/><text fill="#000000" font-family="sans-serif" font-size="12" lengthAdjust="spacingAndGlyphs" textLength="59" x="1014.5" y="734.9102">StateValue</text><line style="stroke: #A80036; stroke-width: 1.5;" x1="986.5" x2="1075.5" y1="746" y2="746"/><line style="stroke: #A80036; stroke-width: 1.5;" x1="986.5" x2="1075.5" y1="754" y2="754"/><!--MD5=[55d70ecb9e3ba4786ec1f15d0b7dce13]
class tictactoe.models.Coordinate--><rect fill="#FEFECE" filter="url(#f1gmp87qgtqxs5)" height="48" id="tictactoe.models.Coordinate" style="stroke: #A80036; stroke-width: 1.5;" width="93" x="660.5" y="714"/><ellipse cx="675.5" cy="730" fill="#ADD1B2" rx="11" ry="11" style="stroke: #A80036; stroke-width: 1.0;"/><path d="M678.2656,725.875 Q678.4219,725.6563 678.6094,725.5469 Q678.7969,725.4375 679.0156,725.4375 Q679.3906,725.4375 679.625,725.7031 Q679.8594,725.9531 679.8594,726.5625 L679.8594,728.0156 Q679.8594,728.625 679.625,728.8906 Q679.3906,729.1563 679.0156,729.1563 Q678.6719,729.1563 678.4688,728.9531 Q678.2656,728.7656 678.1563,728.25 Q678.1094,727.8906 677.9219,727.7031 Q677.5938,727.3281 676.9844,727.1094 Q676.375,726.8906 675.75,726.8906 Q674.9844,726.8906 674.3438,727.2188 Q673.7188,727.5469 673.2188,728.2969 Q672.7344,729.0469 672.7344,730.0781 L672.7344,731.1719 Q672.7344,732.4063 673.625,733.2344 Q674.5156,734.0469 676.1094,734.0469 Q677.0469,734.0469 677.7031,733.7969 Q678.0938,733.6406 678.5156,733.2031 Q678.7813,732.9375 678.9219,732.8594 Q679.0781,732.7813 679.2813,732.7813 Q679.6094,732.7813 679.8594,733.0469 Q680.125,733.2969 680.125,733.6406 Q680.125,733.9844 679.7813,734.3906 Q679.2813,734.9688 678.4844,735.2969 Q677.4063,735.75 676.1094,735.75 Q674.5938,735.75 673.3906,735.125 Q672.4063,734.625 671.7188,733.5625 Q671.0313,732.4844 671.0313,731.2031 L671.0313,730.0469 Q671.0313,728.7188 671.6406,727.5781 Q672.2656,726.4219 673.3594,725.8125 Q674.4531,725.1875 675.6875,725.1875 Q676.4219,725.1875 677.0625,725.3594 Q677.7188,725.5156 678.2656,725.875 Z "/><text fill="#000000" font-family="sans-serif" font-size="12" lengthAdjust="spacingAndGlyphs" textLength="61" x="689.5" y="734.9102">Coordinate</text><line style="stroke: #A80036; stroke-width: 1.5;" x1="661.5" x2="752.5" y1="746" y2="746"/><line style="stroke: #A80036; stroke-width: 1.5;" x1="661.5" x2="752.5" y1="754" y2="754"/><!--MD5=[67f54059f517de4e17e4f415259fadfa]
link tictactoe.controllers.Controller to tictactoe.models.Game--><path d="M672.848,308.851 C700.931,327.279 731.081,352.034 750,382 C817.105,488.288 823.314,645.016 822.811,708.6236 " fill="none" id="tictactoe.controllers.Controller-&gt;tictactoe.models.Game" style="stroke: #A80036; stroke-width: 1.0; stroke-dasharray: 7.0,7.0;"/><polygon fill="#A80036" points="822.754,713.764,826.8538,704.809,822.8096,708.7643,818.8543,704.7201,822.754,713.764" style="stroke: #A80036; stroke-width: 1.0;"/><!--MD5=[958c68ec9081d3cd0ffa7948938073c3]
link tictactoe.controllers.Controller to tictactoe.models.State--><path d="M672.929,292.929 C718.271,310.192 775.333,338.801 811,382 C893.446,481.856 913.618,643.549 918.483,708.5782 " fill="none" id="tictactoe.controllers.Controller-&gt;tictactoe.models.State" style="stroke: #A80036; stroke-width: 1.0; stroke-dasharray: 7.0,7.0;"/><polygon fill="#A80036" points="918.858,713.8298,922.2068,704.5677,918.5018,708.8425,914.2271,705.1376,918.858,713.8298" style="stroke: #A80036; stroke-width: 1.0;"/><!--MD5=[bf6ea4e22b99b81dd48bbf2eb1cf70e8]
link tictactoe.controllers.Logic to tictactoe.models.Game--><path d="M683.0697,168.3065 C683.0697,168.3065 785.011,301.408 811,382 C846.967,493.535 835.593,635.124 827.346,700.6694 " fill="none" id="tictactoe.controllers.Logic-tictactoe.models.Game" style="stroke: #A80036; stroke-width: 1.0;"/><polygon fill="#A80036" points="825.602,713.8275,830.7504,705.4315,826.2593,708.8709,822.8199,704.3798,825.602,713.8275" style="stroke: #A80036; stroke-width: 1.0;"/><line style="stroke: #A80036; stroke-width: 1.0;" x1="826.2593" x2="827.3105" y1="708.8709" y2="700.9403"/><polygon fill="#A80036" points="675.33,159.136,676.143,166.3011,683.0697,168.3065,682.2567,161.1414,675.33,159.136" style="stroke: #A80036; stroke-width: 1.0;"/><!--MD5=[758f687dc2a943dbf7811856af1b401c]
link tictactoe.controllers.Logic to tictactoe.models.State--><path d="M727.132,166.5492 C727.132,166.5492 766.103,199.994 781,219 C898.484,368.885 916.967,609.916 919.65,700.7783 " fill="none" id="tictactoe.controllers.Logic-tictactoe.models.State" style="stroke: #A80036; stroke-width: 1.0;"/><polygon fill="#A80036" points="919.954,713.7936,923.7429,704.7027,919.8373,708.795,915.7451,704.8894,919.954,713.7936" style="stroke: #A80036; stroke-width: 1.0;"/><line style="stroke: #A80036; stroke-width: 1.0;" x1="919.8373" x2="919.6505" y1="708.795" y2="700.7972"/><polygon fill="#A80036" points="717.618,159.236,719.9373,166.064,727.132,166.5492,724.8128,159.7213,717.618,159.236" style="stroke: #A80036; stroke-width: 1.0;"/><!--MD5=[12d6b2ee7a1b6faf9fe809f483963ab7]
link tictactoe.controllers.Logic to tictactoe.controllers.Controller--><path d="M614.1119,171.2399 C614.1119,171.2399 611.443,194.848 610.204,205.805 " fill="none" id="tictactoe.controllers.Logic-tictactoe.controllers.Controller" style="stroke: #A80036; stroke-width: 1.0;"/><polygon fill="#A80036" points="608.726,218.874,613.7114,210.3801,609.2875,213.9056,605.762,209.4817,608.726,218.874" style="stroke: #A80036; stroke-width: 1.0;"/><line style="stroke: #A80036; stroke-width: 1.0;" x1="609.2875" x2="610.1865" y1="213.9056" y2="205.956"/><polygon fill="#A80036" points="615.461,159.316,610.8118,164.8283,614.1119,171.2399,618.7611,165.7276,615.461,159.316" style="stroke: #A80036; stroke-width: 1.0;"/><!--MD5=[096abf58a0a258fd61b5f735b2bb7393]
link tictactoe.controllers.Logic to tictactoe.models.StateValue--><path d="M742.7695,151.5213 C742.7695,151.5213 810.007,192.053 836,219 C973.062,361.091 1015.72,608.749 1027.23,701.0093 " fill="none" id="tictactoe.controllers.Logic-tictactoe.models.StateValue" style="stroke: #A80036; stroke-width: 1.0;"/><polygon fill="#A80036" points="1028.76,713.9539,1031.6736,704.5459,1028.1719,708.9886,1023.7291,705.4869,1028.76,713.9539" style="stroke: #A80036; stroke-width: 1.0;"/><line style="stroke: #A80036; stroke-width: 1.0;" x1="1028.1719" x2="1027.23" y1="708.9886" y2="701.0442"/><polygon fill="#A80036" points="732.147,145.939,735.5975,152.271,742.7695,151.5213,739.319,145.1893,732.147,145.939" style="stroke: #A80036; stroke-width: 1.0;"/><!--MD5=[5700b97431232c099330215bddfcc855]
reverse link tictactoe.controllers.Controller to tictactoe.controllers.PlayController--><path d="M597.037,342.31 C595.982,354.838 594.855,368.222 593.716,381.753 " fill="none" id="tictactoe.controllers.Controller&lt;-tictactoe.controllers.PlayController" style="stroke: #A80036; stroke-width: 1.0;"/><polygon fill="none" points="590.08,341.5,598.734,322.158,604.031,342.675,590.08,341.5" style="stroke: #A80036; stroke-width: 1.0;"/><!--MD5=[70aedda6b24476e26c690784403df0dd]
link tictactoe.controllers.PlayController to tictactoe.models.Coordinate--><path d="M652.792,638.202 C667.515,665.035 681.642,690.783 691.782,709.2633 " fill="none" id="tictactoe.controllers.PlayController-&gt;tictactoe.models.Coordinate" style="stroke: #A80036; stroke-width: 1.0; stroke-dasharray: 7.0,7.0;"/><polygon fill="#A80036" points="694.271,713.8012,693.4493,703.9867,691.8662,709.4175,686.4354,707.8344,694.271,713.8012" style="stroke: #A80036; stroke-width: 1.0;"/><!--MD5=[8f435ed2c59169c4603cda7b7477fe61]
reverse link tictactoe.controllers.Controller to tictactoe.controllers.ResultController--><path d="M513.185,281.628 C430.935,294.366 308.712,322.301 219,382 C184.509,404.952 156.091,443.226 138.09,471.768 " fill="none" id="tictactoe.controllers.Controller&lt;-tictactoe.controllers.ResultController" style="stroke: #A80036; stroke-width: 1.0;"/><polygon fill="none" points="512.389,274.67,533.19,278.707,514.412,288.523,512.389,274.67" style="stroke: #A80036; stroke-width: 1.0;"/><!--MD5=[5deb1e5c7bf9906a35de112138d88f9c]
reverse link tictactoe.controllers.Controller to tictactoe.controllers.StartController--><path d="M515.186,314.315 C482.2,332.65 445.567,355.877 416,382 C386.259,408.277 359.263,444.651 341.171,471.739 " fill="none" id="tictactoe.controllers.Controller&lt;-tictactoe.controllers.StartController" style="stroke: #A80036; stroke-width: 1.0;"/><polygon fill="none" points="512.146,308.001,533.068,304.644,518.806,320.315,512.146,308.001" style="stroke: #A80036; stroke-width: 1.0;"/><!--MD5=[7db67bddb3b615f1e8b26ce7923f9d65]
@startuml

class  tictactoe.controllers.Controller{
# game: Game
# state: State
~ Controller(Game, State)
+ getBoard(): Board
}
tictactoe.controllers.Controller ..> tictactoe.models.Game
tictactoe.controllers.Controller ..> tictactoe.models.State

class  tictactoe.controllers.Logic{
- state: State
- game: Game
- controllers: Map<StateValue, Controller>
+ Logic()
+ getController(): Controller
}
tictactoe.controllers.Logic *-down-> tictactoe.models.Game
tictactoe.controllers.Logic *-down-> tictactoe.models.State
tictactoe.controllers.Logic *-down-> tictactoe.controllers.Controller
tictactoe.controllers.Logic *-down-> tictactoe.models.StateValue

class  tictactoe.controllers.PlayController{
+ PlayController(Game, State)
+ getTokenPlayerFromTurn(): Player
+ getTypeOfTokenPlayerFromTurn(): PlayerType
+ controlErrorsPutCoordinate(int, int): Error
+ controlErrorsMoveOriginCoordinate(int, int): Error
+ controlErrorsMoveTargetCoordinate(int, int, int, int): Error
+ isCoordinateValid(int, int): boolean
+ generateRandomCoordinate(): int[]
+ isBoardComplete(): boolean
+ putTokenPlayerFromTurn(int, int): void
+ moveTokenPlayerFromTurn(int, int, int, int): void
+ changeTurn(): void
+ getToken(int, int): Token
+ getCoordinateDimension(): int
+ isTicTacToe(): boolean
}
tictactoe.controllers.Controller <|-down- tictactoe.controllers.PlayController
tictactoe.controllers.PlayController ..> tictactoe.models.Coordinate

class  tictactoe.controllers.ResultController{
~ ResultController(Game, State)
~ getOtherValueFromTurn(): int
}
tictactoe.controllers.Controller <|-down- tictactoe.controllers.ResultController

class  tictactoe.controllers.StartController{
~ StartController(Game, State)
~ createPlayers(): void
}
tictactoe.controllers.Controller <|-down- tictactoe.controllers.StartController

@enduml

PlantUML version 1.2020.15(Sun Jun 28 13:39:45 CEST 2020)
(GPL source distribution)
Java Runtime: Java(TM) SE Runtime Environment
JVM: Java HotSpot(TM) 64-Bit Server VM
Default Encoding: windows-1252
Language: es
Country: ES
--></g></svg>