<?xml version="1.0" encoding="UTF-8" standalone="no"?><svg xmlns="http://www.w3.org/2000/svg" xmlns:xlink="http://www.w3.org/1999/xlink" contentScriptType="application/ecmascript" contentStyleType="text/css" height="844px" preserveAspectRatio="none" style="width:943px;height:844px;" version="1.1" viewBox="0 0 943 844" width="943px" zoomAndPan="magnify"><defs><filter height="300%" id="f3aizonjh93lo" width="300%" x="-1" y="-1"><feGaussianBlur result="blurOut" stdDeviation="2.0"/><feColorMatrix in="blurOut" result="blurOut2" type="matrix" values="0 0 0 0 0 0 0 0 0 0 0 0 0 0 0 0 0 0 .4 0"/><feOffset dx="4.0" dy="4.0" in="blurOut2" result="blurOut3"/><feBlend in="SourceGraphic" in2="blurOut3" mode="normal"/></filter></defs><g><!--MD5=[72af72b686d7f5c58ec944c4cda2ac97]
cluster tictactoe.models.Files--><polygon fill="#FFFFFF" filter="url(#f3aizonjh93lo)" points="325,130,485,130,492,153.6094,736,153.6094,736,708,325,708,325,130" style="stroke: #000000; stroke-width: 1.5;"/><line style="stroke: #000000; stroke-width: 1.5;" x1="325" x2="492" y1="153.6094" y2="153.6094"/><text fill="#000000" font-family="sans-serif" font-size="14" font-weight="bold" lengthAdjust="spacingAndGlyphs" textLength="154" x="329" y="146.5332">tictactoe.models.Files</text><!--MD5=[8a5320718bbdccbe8ee87e38fc96e0de]
cluster tictactoe.models.DAO--><polygon fill="#FFFFFF" filter="url(#f3aizonjh93lo)" points="365,6,521,6,528,29.6094,921,29.6094,921,106,365,106,365,6" style="stroke: #000000; stroke-width: 1.5;"/><line style="stroke: #000000; stroke-width: 1.5;" x1="365" x2="528" y1="29.6094" y2="29.6094"/><text fill="#000000" font-family="sans-serif" font-size="14" font-weight="bold" lengthAdjust="spacingAndGlyphs" textLength="150" x="369" y="22.5332">tictactoe.models.DAO</text><!--MD5=[51cd642fcc96b47682a93d9084d46dec]
cluster tictactoe.models--><polygon fill="#FFFFFF" filter="url(#f3aizonjh93lo)" points="495,732,617,732,624,755.6094,912,755.6094,912,832,495,832,495,732" style="stroke: #000000; stroke-width: 1.5;"/><line style="stroke: #000000; stroke-width: 1.5;" x1="495" x2="624" y1="755.6094" y2="755.6094"/><text fill="#000000" font-family="sans-serif" font-size="14" font-weight="bold" lengthAdjust="spacingAndGlyphs" textLength="116" x="499" y="748.5332">tictactoe.models</text><!--MD5=[0d852700fdad35b7061d461d6907a324]
cluster java.io--><polygon fill="#FFFFFF" filter="url(#f3aizonjh93lo)" points="16,732,68,732,75,755.6094,374,755.6094,374,832,16,832,16,732" style="stroke: #000000; stroke-width: 1.5;"/><line style="stroke: #000000; stroke-width: 1.5;" x1="16" x2="75" y1="755.6094" y2="755.6094"/><text fill="#000000" font-family="sans-serif" font-size="14" font-weight="bold" lengthAdjust="spacingAndGlyphs" textLength="46" x="20" y="748.5332">java.io</text><!--MD5=[b7cbc60cf17ce8b0a3758a41c7df7c69]
class tictactoe.models.Files.BoardFileDAO--><rect fill="#FEFECE" filter="url(#f3aizonjh93lo)" height="89.5078" id="tictactoe.models.Files.BoardFileDAO" style="stroke: #A80036; stroke-width: 1.5;" width="158" x="562" y="595.5"/><ellipse cx="598.6" cy="611.5" fill="#ADD1B2" rx="11" ry="11" style="stroke: #A80036; stroke-width: 1.0;"/><path d="M601.3656,607.375 Q601.5219,607.1563 601.7094,607.0469 Q601.8969,606.9375 602.1156,606.9375 Q602.4906,606.9375 602.725,607.2031 Q602.9594,607.4531 602.9594,608.0625 L602.9594,609.5156 Q602.9594,610.125 602.725,610.3906 Q602.4906,610.6563 602.1156,610.6563 Q601.7719,610.6563 601.5688,610.4531 Q601.3656,610.2656 601.2563,609.75 Q601.2094,609.3906 601.0219,609.2031 Q600.6938,608.8281 600.0844,608.6094 Q599.475,608.3906 598.85,608.3906 Q598.0844,608.3906 597.4438,608.7188 Q596.8188,609.0469 596.3188,609.7969 Q595.8344,610.5469 595.8344,611.5781 L595.8344,612.6719 Q595.8344,613.9063 596.725,614.7344 Q597.6156,615.5469 599.2094,615.5469 Q600.1469,615.5469 600.8031,615.2969 Q601.1938,615.1406 601.6156,614.7031 Q601.8813,614.4375 602.0219,614.3594 Q602.1781,614.2813 602.3813,614.2813 Q602.7094,614.2813 602.9594,614.5469 Q603.225,614.7969 603.225,615.1406 Q603.225,615.4844 602.8813,615.8906 Q602.3813,616.4688 601.5844,616.7969 Q600.5063,617.25 599.2094,617.25 Q597.6938,617.25 596.4906,616.625 Q595.5063,616.125 594.8188,615.0625 Q594.1313,613.9844 594.1313,612.7031 L594.1313,611.5469 Q594.1313,610.2188 594.7406,609.0781 Q595.3656,607.9219 596.4594,607.3125 Q597.5531,606.6875 598.7875,606.6875 Q599.5219,606.6875 600.1625,606.8594 Q600.8188,607.0156 601.3656,607.375 Z "/><text fill="#000000" font-family="sans-serif" font-size="12" lengthAdjust="spacingAndGlyphs" textLength="78" x="617.4" y="616.4102">BoardFileDAO</text><line style="stroke: #A80036; stroke-width: 1.5;" x1="563" x2="719" y1="627.5" y2="627.5"/><line style="stroke: #A80036; stroke-width: 1.5;" x1="563" x2="719" y1="635.5" y2="635.5"/><polygon fill="#4177AF" points="573,642.5,569,648.5,577,648.5" style="stroke: #1963A0; stroke-width: 1.0;"/><text fill="#000000" font-family="sans-serif" font-size="11" lengthAdjust="spacingAndGlyphs" textLength="105" x="582" y="650.9189">BoardFileDAO(Board)</text><ellipse cx="573" cy="660.3359" fill="#84BE84" rx="3" ry="3" style="stroke: #038048; stroke-width: 1.0;"/><text fill="#000000" font-family="sans-serif" font-size="11" lengthAdjust="spacingAndGlyphs" textLength="103" x="582" y="664.7549">save(FileWriter): void</text><ellipse cx="573" cy="674.1719" fill="#84BE84" rx="3" ry="3" style="stroke: #038048; stroke-width: 1.0;"/><text fill="#000000" font-family="sans-serif" font-size="11" lengthAdjust="spacingAndGlyphs" textLength="132" x="582" y="678.5908">load(BufferedReader): void</text><!--MD5=[c4967d3c993f751d0eb3a095fa63a460]
class tictactoe.models.Files.FileDAO--><rect fill="#FEFECE" filter="url(#f3aizonjh93lo)" height="75.6719" id="tictactoe.models.Files.FileDAO" style="stroke: #A80036; stroke-width: 1.5;" width="158" x="562" y="432.5"/><ellipse cx="613.75" cy="448.5" fill="#B4A7E5" rx="11" ry="11" style="stroke: #A80036; stroke-width: 1.0;"/><path d="M614.7031,445.1406 L614.7031,451.7969 L616.4219,451.7969 Q617.0313,451.7969 617.2969,452.0313 Q617.5625,452.2656 617.5625,452.6563 Q617.5625,453.0313 617.2969,453.2656 Q617.0313,453.5 616.4219,453.5 L611.2813,453.5 Q610.6719,453.5 610.4063,453.2656 Q610.1406,453.0313 610.1406,452.6406 Q610.1406,452.2656 610.4063,452.0313 Q610.6719,451.7969 611.2813,451.7969 L613,451.7969 L613,445.1406 L611.2813,445.1406 Q610.6719,445.1406 610.4063,444.9063 Q610.1406,444.6719 610.1406,444.2813 Q610.1406,443.9063 610.4063,443.6719 Q610.6719,443.4375 611.2813,443.4375 L616.4219,443.4375 Q617.0313,443.4375 617.2969,443.6719 Q617.5625,443.9063 617.5625,444.2813 Q617.5625,444.6719 617.2969,444.9063 Q617.0313,445.1406 616.4219,445.1406 L614.7031,445.1406 Z "/><text fill="#000000" font-family="sans-serif" font-size="12" font-style="italic" lengthAdjust="spacingAndGlyphs" textLength="46" x="634.25" y="453.4102">FileDAO</text><line style="stroke: #A80036; stroke-width: 1.5;" x1="563" x2="719" y1="464.5" y2="464.5"/><line style="stroke: #A80036; stroke-width: 1.5;" x1="563" x2="719" y1="472.5" y2="472.5"/><ellipse cx="573" cy="483.5" fill="#84BE84" rx="3" ry="3" style="stroke: #038048; stroke-width: 1.0;"/><text fill="#000000" font-family="sans-serif" font-size="11" font-style="italic" lengthAdjust="spacingAndGlyphs" textLength="107" x="582" y="487.9189">save(FileWriter): void</text><ellipse cx="573" cy="497.3359" fill="#84BE84" rx="3" ry="3" style="stroke: #038048; stroke-width: 1.0;"/><text fill="#000000" font-family="sans-serif" font-size="11" font-style="italic" lengthAdjust="spacingAndGlyphs" textLength="132" x="582" y="501.7549">load(BufferedReader): void</text><!--MD5=[8522c8ddf1badaf7e95d7cc981dd2fdd]
class tictactoe.models.Files.GameFileDAO--><rect fill="#FEFECE" filter="url(#f3aizonjh93lo)" height="117.1797" id="tictactoe.models.Files.GameFileDAO" style="stroke: #A80036; stroke-width: 1.5;" width="167" x="341.5" y="412"/><ellipse cx="381.7" cy="428" fill="#ADD1B2" rx="11" ry="11" style="stroke: #A80036; stroke-width: 1.0;"/><path d="M384.4656,423.875 Q384.6219,423.6563 384.8094,423.5469 Q384.9969,423.4375 385.2156,423.4375 Q385.5906,423.4375 385.825,423.7031 Q386.0594,423.9531 386.0594,424.5625 L386.0594,426.0156 Q386.0594,426.625 385.825,426.8906 Q385.5906,427.1563 385.2156,427.1563 Q384.8719,427.1563 384.6688,426.9531 Q384.4656,426.7656 384.3563,426.25 Q384.3094,425.8906 384.1219,425.7031 Q383.7938,425.3281 383.1844,425.1094 Q382.575,424.8906 381.95,424.8906 Q381.1844,424.8906 380.5438,425.2188 Q379.9188,425.5469 379.4188,426.2969 Q378.9344,427.0469 378.9344,428.0781 L378.9344,429.1719 Q378.9344,430.4063 379.825,431.2344 Q380.7156,432.0469 382.3094,432.0469 Q383.2469,432.0469 383.9031,431.7969 Q384.2938,431.6406 384.7156,431.2031 Q384.9813,430.9375 385.1219,430.8594 Q385.2781,430.7813 385.4813,430.7813 Q385.8094,430.7813 386.0594,431.0469 Q386.325,431.2969 386.325,431.6406 Q386.325,431.9844 385.9813,432.3906 Q385.4813,432.9688 384.6844,433.2969 Q383.6063,433.75 382.3094,433.75 Q380.7938,433.75 379.5906,433.125 Q378.6063,432.625 377.9188,431.5625 Q377.2313,430.4844 377.2313,429.2031 L377.2313,428.0469 Q377.2313,426.7188 377.8406,425.5781 Q378.4656,424.4219 379.5594,423.8125 Q380.6531,423.1875 381.8875,423.1875 Q382.6219,423.1875 383.2625,423.3594 Q383.9188,423.5156 384.4656,423.875 Z "/><text fill="#000000" font-family="sans-serif" font-size="12" lengthAdjust="spacingAndGlyphs" textLength="79" x="401.3" y="432.9102">GameFileDAO</text><line style="stroke: #A80036; stroke-width: 1.5;" x1="342.5" x2="507.5" y1="444" y2="444"/><rect fill="none" height="6" style="stroke: #C82930; stroke-width: 1.0;" width="6" x="349.5" y="452"/><text fill="#000000" font-family="sans-serif" font-size="11" lengthAdjust="spacingAndGlyphs" textLength="141" x="361.5" y="459.4189">boardFileDAO: BoardFileDAO</text><rect fill="none" height="6" style="stroke: #C82930; stroke-width: 1.0;" width="6" x="349.5" y="465.8359"/><text fill="#000000" font-family="sans-serif" font-size="11" lengthAdjust="spacingAndGlyphs" textLength="125" x="361.5" y="473.2549">turnFileDAO: TurnFileDAO</text><line style="stroke: #A80036; stroke-width: 1.5;" x1="342.5" x2="507.5" y1="479.6719" y2="479.6719"/><polygon fill="#4177AF" points="352.5,486.6719,348.5,492.6719,356.5,492.6719" style="stroke: #1963A0; stroke-width: 1.0;"/><text fill="#000000" font-family="sans-serif" font-size="11" lengthAdjust="spacingAndGlyphs" textLength="103" x="361.5" y="495.0908">GameFileDAO(Game)</text><ellipse cx="352.5" cy="504.5078" fill="#84BE84" rx="3" ry="3" style="stroke: #038048; stroke-width: 1.0;"/><text fill="#000000" font-family="sans-serif" font-size="11" lengthAdjust="spacingAndGlyphs" textLength="103" x="361.5" y="508.9268">save(FileWriter): void</text><ellipse cx="352.5" cy="518.3438" fill="#84BE84" rx="3" ry="3" style="stroke: #038048; stroke-width: 1.0;"/><text fill="#000000" font-family="sans-serif" font-size="11" lengthAdjust="spacingAndGlyphs" textLength="132" x="361.5" y="522.7627">load(BufferedReader): void</text><!--MD5=[03d00c848d9fa5d1101de5c4f1c24b2c]
class tictactoe.models.Files.TurnFileDAO--><rect fill="#FEFECE" filter="url(#f3aizonjh93lo)" height="103.3438" id="tictactoe.models.Files.TurnFileDAO" style="stroke: #A80036; stroke-width: 1.5;" width="158" x="369" y="589"/><ellipse cx="409.2" cy="605" fill="#ADD1B2" rx="11" ry="11" style="stroke: #A80036; stroke-width: 1.0;"/><path d="M411.9656,600.875 Q412.1219,600.6563 412.3094,600.5469 Q412.4969,600.4375 412.7156,600.4375 Q413.0906,600.4375 413.325,600.7031 Q413.5594,600.9531 413.5594,601.5625 L413.5594,603.0156 Q413.5594,603.625 413.325,603.8906 Q413.0906,604.1563 412.7156,604.1563 Q412.3719,604.1563 412.1688,603.9531 Q411.9656,603.7656 411.8563,603.25 Q411.8094,602.8906 411.6219,602.7031 Q411.2938,602.3281 410.6844,602.1094 Q410.075,601.8906 409.45,601.8906 Q408.6844,601.8906 408.0438,602.2188 Q407.4188,602.5469 406.9188,603.2969 Q406.4344,604.0469 406.4344,605.0781 L406.4344,606.1719 Q406.4344,607.4063 407.325,608.2344 Q408.2156,609.0469 409.8094,609.0469 Q410.7469,609.0469 411.4031,608.7969 Q411.7938,608.6406 412.2156,608.2031 Q412.4813,607.9375 412.6219,607.8594 Q412.7781,607.7813 412.9813,607.7813 Q413.3094,607.7813 413.5594,608.0469 Q413.825,608.2969 413.825,608.6406 Q413.825,608.9844 413.4813,609.3906 Q412.9813,609.9688 412.1844,610.2969 Q411.1063,610.75 409.8094,610.75 Q408.2938,610.75 407.0906,610.125 Q406.1063,609.625 405.4188,608.5625 Q404.7313,607.4844 404.7313,606.2031 L404.7313,605.0469 Q404.7313,603.7188 405.3406,602.5781 Q405.9656,601.4219 407.0594,600.8125 Q408.1531,600.1875 409.3875,600.1875 Q410.1219,600.1875 410.7625,600.3594 Q411.4188,600.5156 411.9656,600.875 Z "/><text fill="#000000" font-family="sans-serif" font-size="12" lengthAdjust="spacingAndGlyphs" textLength="70" x="428.8" y="609.9102">TurnFileDAO</text><line style="stroke: #A80036; stroke-width: 1.5;" x1="370" x2="526" y1="621" y2="621"/><rect fill="none" height="6" style="stroke: #C82930; stroke-width: 1.0;" width="6" x="377" y="629"/><text fill="#000000" font-family="sans-serif" font-size="11" lengthAdjust="spacingAndGlyphs" textLength="47" x="389" y="636.4189">turn: Turn</text><line style="stroke: #A80036; stroke-width: 1.5;" x1="370" x2="526" y1="642.8359" y2="642.8359"/><polygon fill="#4177AF" points="380,649.8359,376,655.8359,384,655.8359" style="stroke: #1963A0; stroke-width: 1.0;"/><text fill="#000000" font-family="sans-serif" font-size="11" lengthAdjust="spacingAndGlyphs" textLength="91" x="389" y="658.2549">TurnFileDAO(Turn)</text><ellipse cx="380" cy="667.6719" fill="#84BE84" rx="3" ry="3" style="stroke: #038048; stroke-width: 1.0;"/><text fill="#000000" font-family="sans-serif" font-size="11" lengthAdjust="spacingAndGlyphs" textLength="103" x="389" y="672.0908">save(FileWriter): void</text><ellipse cx="380" cy="681.5078" fill="#84BE84" rx="3" ry="3" style="stroke: #038048; stroke-width: 1.0;"/><text fill="#000000" font-family="sans-serif" font-size="11" lengthAdjust="spacingAndGlyphs" textLength="132" x="389" y="685.9268">load(BufferedReader): void</text><!--MD5=[898d34d5658ced2d08cf559dcebf4878]
class tictactoe.models.Files.SessionImplementationFileDAO--><rect fill="#FEFECE" filter="url(#f3aizonjh93lo)" height="186.3594" id="tictactoe.models.Files.SessionImplementationFileDAO" style="stroke: #A80036; stroke-width: 1.5;" width="249" x="341.5" y="166"/><ellipse cx="374.5" cy="182" fill="#ADD1B2" rx="11" ry="11" style="stroke: #A80036; stroke-width: 1.0;"/><path d="M377.2656,177.875 Q377.4219,177.6563 377.6094,177.5469 Q377.7969,177.4375 378.0156,177.4375 Q378.3906,177.4375 378.625,177.7031 Q378.8594,177.9531 378.8594,178.5625 L378.8594,180.0156 Q378.8594,180.625 378.625,180.8906 Q378.3906,181.1563 378.0156,181.1563 Q377.6719,181.1563 377.4688,180.9531 Q377.2656,180.7656 377.1563,180.25 Q377.1094,179.8906 376.9219,179.7031 Q376.5938,179.3281 375.9844,179.1094 Q375.375,178.8906 374.75,178.8906 Q373.9844,178.8906 373.3438,179.2188 Q372.7188,179.5469 372.2188,180.2969 Q371.7344,181.0469 371.7344,182.0781 L371.7344,183.1719 Q371.7344,184.4063 372.625,185.2344 Q373.5156,186.0469 375.1094,186.0469 Q376.0469,186.0469 376.7031,185.7969 Q377.0938,185.6406 377.5156,185.2031 Q377.7813,184.9375 377.9219,184.8594 Q378.0781,184.7813 378.2813,184.7813 Q378.6094,184.7813 378.8594,185.0469 Q379.125,185.2969 379.125,185.6406 Q379.125,185.9844 378.7813,186.3906 Q378.2813,186.9688 377.4844,187.2969 Q376.4063,187.75 375.1094,187.75 Q373.5938,187.75 372.3906,187.125 Q371.4063,186.625 370.7188,185.5625 Q370.0313,184.4844 370.0313,183.2031 L370.0313,182.0469 Q370.0313,180.7188 370.6406,179.5781 Q371.2656,178.4219 372.3594,177.8125 Q373.4531,177.1875 374.6875,177.1875 Q375.4219,177.1875 376.0625,177.3594 Q376.7188,177.5156 377.2656,177.875 Z "/><text fill="#000000" font-family="sans-serif" font-size="12" lengthAdjust="spacingAndGlyphs" textLength="177" x="392.5" y="186.9102">SessionImplementationFileDAO</text><line style="stroke: #A80036; stroke-width: 1.5;" x1="342.5" x2="589.5" y1="198" y2="198"/><ellipse cx="352.5" cy="209" fill="none" rx="3" ry="3" style="stroke: #038048; stroke-width: 1.0;"/><text fill="#000000" font-family="sans-serif" font-size="11" lengthAdjust="spacingAndGlyphs" text-decoration="underline" textLength="90" x="361.5" y="213.4189">EXTENSION: String</text><ellipse cx="352.5" cy="222.8359" fill="none" rx="3" ry="3" style="stroke: #038048; stroke-width: 1.0;"/><text fill="#000000" font-family="sans-serif" font-size="11" lengthAdjust="spacingAndGlyphs" text-decoration="underline" textLength="92" x="361.5" y="227.2549">DIRECTORY: String</text><rect fill="none" height="6" style="stroke: #C82930; stroke-width: 1.0;" width="6" x="349.5" y="233.6719"/><text fill="#000000" font-family="sans-serif" font-size="11" lengthAdjust="spacingAndGlyphs" text-decoration="underline" textLength="65" x="361.5" y="241.0908">directory: File</text><rect fill="none" height="6" style="stroke: #C82930; stroke-width: 1.0;" width="6" x="349.5" y="247.5078"/><text fill="#000000" font-family="sans-serif" font-size="11" lengthAdjust="spacingAndGlyphs" textLength="223" x="361.5" y="254.9268">sessionImplementation: SessionImplementation</text><rect fill="none" height="6" style="stroke: #C82930; stroke-width: 1.0;" width="6" x="349.5" y="261.3438"/><text fill="#000000" font-family="sans-serif" font-size="11" lengthAdjust="spacingAndGlyphs" textLength="138" x="361.5" y="268.7627">gameFileDAO: GameFileDAO</text><line style="stroke: #A80036; stroke-width: 1.5;" x1="342.5" x2="589.5" y1="275.1797" y2="275.1797"/><ellipse cx="352.5" cy="286.1797" fill="#84BE84" rx="3" ry="3" style="stroke: #038048; stroke-width: 1.0;"/><text fill="#000000" font-family="sans-serif" font-size="11" lengthAdjust="spacingAndGlyphs" textLength="164" x="361.5" y="290.5986">associate(SessionImplementation)</text><ellipse cx="352.5" cy="300.0156" fill="#84BE84" rx="3" ry="3" style="stroke: #038048; stroke-width: 1.0;"/><text fill="#000000" font-family="sans-serif" font-size="11" lengthAdjust="spacingAndGlyphs" textLength="86" x="361.5" y="304.4346">save(String): void</text><ellipse cx="352.5" cy="313.8516" fill="#84BE84" rx="3" ry="3" style="stroke: #038048; stroke-width: 1.0;"/><text fill="#000000" font-family="sans-serif" font-size="11" lengthAdjust="spacingAndGlyphs" textLength="82" x="361.5" y="318.2705">load(String): void</text><ellipse cx="352.5" cy="327.6875" fill="#84BE84" rx="3" ry="3" style="stroke: #038048; stroke-width: 1.0;"/><text fill="#000000" font-family="sans-serif" font-size="11" lengthAdjust="spacingAndGlyphs" textLength="130" x="361.5" y="332.1064">getGamesNames(): String[]</text><ellipse cx="352.5" cy="341.5234" fill="#84BE84" rx="3" ry="3" style="stroke: #038048; stroke-width: 1.0;"/><text fill="#000000" font-family="sans-serif" font-size="11" lengthAdjust="spacingAndGlyphs" textLength="109" x="361.5" y="345.9424">exists(String): boolean</text><!--MD5=[a640076ebffcac44349a197c956ab88d]
class tictactoe.models.DAO.BoardDAO--><rect fill="#FEFECE" filter="url(#f3aizonjh93lo)" height="48" id="tictactoe.models.DAO.BoardDAO" style="stroke: #A80036; stroke-width: 1.5;" width="90" x="815" y="42"/><ellipse cx="830" cy="58" fill="#ADD1B2" rx="11" ry="11" style="stroke: #A80036; stroke-width: 1.0;"/><path d="M832.7656,53.875 Q832.9219,53.6563 833.1094,53.5469 Q833.2969,53.4375 833.5156,53.4375 Q833.8906,53.4375 834.125,53.7031 Q834.3594,53.9531 834.3594,54.5625 L834.3594,56.0156 Q834.3594,56.625 834.125,56.8906 Q833.8906,57.1563 833.5156,57.1563 Q833.1719,57.1563 832.9688,56.9531 Q832.7656,56.7656 832.6563,56.25 Q832.6094,55.8906 832.4219,55.7031 Q832.0938,55.3281 831.4844,55.1094 Q830.875,54.8906 830.25,54.8906 Q829.4844,54.8906 828.8438,55.2188 Q828.2188,55.5469 827.7188,56.2969 Q827.2344,57.0469 827.2344,58.0781 L827.2344,59.1719 Q827.2344,60.4063 828.125,61.2344 Q829.0156,62.0469 830.6094,62.0469 Q831.5469,62.0469 832.2031,61.7969 Q832.5938,61.6406 833.0156,61.2031 Q833.2813,60.9375 833.4219,60.8594 Q833.5781,60.7813 833.7813,60.7813 Q834.1094,60.7813 834.3594,61.0469 Q834.625,61.2969 834.625,61.6406 Q834.625,61.9844 834.2813,62.3906 Q833.7813,62.9688 832.9844,63.2969 Q831.9063,63.75 830.6094,63.75 Q829.0938,63.75 827.8906,63.125 Q826.9063,62.625 826.2188,61.5625 Q825.5313,60.4844 825.5313,59.2031 L825.5313,58.0469 Q825.5313,56.7188 826.1406,55.5781 Q826.7656,54.4219 827.8594,53.8125 Q828.9531,53.1875 830.1875,53.1875 Q830.9219,53.1875 831.5625,53.3594 Q832.2188,53.5156 832.7656,53.875 Z "/><text fill="#000000" font-family="sans-serif" font-size="12" lengthAdjust="spacingAndGlyphs" textLength="58" x="844" y="62.9102">BoardDAO</text><line style="stroke: #A80036; stroke-width: 1.5;" x1="816" x2="904" y1="74" y2="74"/><line style="stroke: #A80036; stroke-width: 1.5;" x1="816" x2="904" y1="82" y2="82"/><!--MD5=[3f20e7d379bae6d9fa20994d0a588cac]
class tictactoe.models.DAO.DAO--><rect fill="#FEFECE" filter="url(#f3aizonjh93lo)" height="48" id="tictactoe.models.DAO.DAO" style="stroke: #A80036; stroke-width: 1.5;" width="57" x="605.5" y="42"/><ellipse cx="620.5" cy="58" fill="#ADD1B2" rx="11" ry="11" style="stroke: #A80036; stroke-width: 1.0;"/><path d="M623.2656,53.875 Q623.4219,53.6563 623.6094,53.5469 Q623.7969,53.4375 624.0156,53.4375 Q624.3906,53.4375 624.625,53.7031 Q624.8594,53.9531 624.8594,54.5625 L624.8594,56.0156 Q624.8594,56.625 624.625,56.8906 Q624.3906,57.1563 624.0156,57.1563 Q623.6719,57.1563 623.4688,56.9531 Q623.2656,56.7656 623.1563,56.25 Q623.1094,55.8906 622.9219,55.7031 Q622.5938,55.3281 621.9844,55.1094 Q621.375,54.8906 620.75,54.8906 Q619.9844,54.8906 619.3438,55.2188 Q618.7188,55.5469 618.2188,56.2969 Q617.7344,57.0469 617.7344,58.0781 L617.7344,59.1719 Q617.7344,60.4063 618.625,61.2344 Q619.5156,62.0469 621.1094,62.0469 Q622.0469,62.0469 622.7031,61.7969 Q623.0938,61.6406 623.5156,61.2031 Q623.7813,60.9375 623.9219,60.8594 Q624.0781,60.7813 624.2813,60.7813 Q624.6094,60.7813 624.8594,61.0469 Q625.125,61.2969 625.125,61.6406 Q625.125,61.9844 624.7813,62.3906 Q624.2813,62.9688 623.4844,63.2969 Q622.4063,63.75 621.1094,63.75 Q619.5938,63.75 618.3906,63.125 Q617.4063,62.625 616.7188,61.5625 Q616.0313,60.4844 616.0313,59.2031 L616.0313,58.0469 Q616.0313,56.7188 616.6406,55.5781 Q617.2656,54.4219 618.3594,53.8125 Q619.4531,53.1875 620.6875,53.1875 Q621.4219,53.1875 622.0625,53.3594 Q622.7188,53.5156 623.2656,53.875 Z "/><text fill="#000000" font-family="sans-serif" font-size="12" lengthAdjust="spacingAndGlyphs" textLength="25" x="634.5" y="62.9102">DAO</text><line style="stroke: #A80036; stroke-width: 1.5;" x1="606.5" x2="661.5" y1="74" y2="74"/><line style="stroke: #A80036; stroke-width: 1.5;" x1="606.5" x2="661.5" y1="82" y2="82"/><!--MD5=[ecdcff099030514e29d73b90811b962a]
class tictactoe.models.DAO.SessionImplementationDAO--><rect fill="#FEFECE" filter="url(#f3aizonjh93lo)" height="48" id="tictactoe.models.DAO.SessionImplementationDAO" style="stroke: #A80036; stroke-width: 1.5;" width="189" x="381.5" y="42"/><ellipse cx="396.5" cy="58" fill="#ADD1B2" rx="11" ry="11" style="stroke: #A80036; stroke-width: 1.0;"/><path d="M399.2656,53.875 Q399.4219,53.6563 399.6094,53.5469 Q399.7969,53.4375 400.0156,53.4375 Q400.3906,53.4375 400.625,53.7031 Q400.8594,53.9531 400.8594,54.5625 L400.8594,56.0156 Q400.8594,56.625 400.625,56.8906 Q400.3906,57.1563 400.0156,57.1563 Q399.6719,57.1563 399.4688,56.9531 Q399.2656,56.7656 399.1563,56.25 Q399.1094,55.8906 398.9219,55.7031 Q398.5938,55.3281 397.9844,55.1094 Q397.375,54.8906 396.75,54.8906 Q395.9844,54.8906 395.3438,55.2188 Q394.7188,55.5469 394.2188,56.2969 Q393.7344,57.0469 393.7344,58.0781 L393.7344,59.1719 Q393.7344,60.4063 394.625,61.2344 Q395.5156,62.0469 397.1094,62.0469 Q398.0469,62.0469 398.7031,61.7969 Q399.0938,61.6406 399.5156,61.2031 Q399.7813,60.9375 399.9219,60.8594 Q400.0781,60.7813 400.2813,60.7813 Q400.6094,60.7813 400.8594,61.0469 Q401.125,61.2969 401.125,61.6406 Q401.125,61.9844 400.7813,62.3906 Q400.2813,62.9688 399.4844,63.2969 Q398.4063,63.75 397.1094,63.75 Q395.5938,63.75 394.3906,63.125 Q393.4063,62.625 392.7188,61.5625 Q392.0313,60.4844 392.0313,59.2031 L392.0313,58.0469 Q392.0313,56.7188 392.6406,55.5781 Q393.2656,54.4219 394.3594,53.8125 Q395.4531,53.1875 396.6875,53.1875 Q397.4219,53.1875 398.0625,53.3594 Q398.7188,53.5156 399.2656,53.875 Z "/><text fill="#000000" font-family="sans-serif" font-size="12" lengthAdjust="spacingAndGlyphs" textLength="157" x="410.5" y="62.9102">SessionImplementationDAO</text><line style="stroke: #A80036; stroke-width: 1.5;" x1="382.5" x2="569.5" y1="74" y2="74"/><line style="stroke: #A80036; stroke-width: 1.5;" x1="382.5" x2="569.5" y1="82" y2="82"/><!--MD5=[68f45206d9611e5c435d19b57c4a25c8]
class tictactoe.models.DAO.TurnDAO--><rect fill="#FEFECE" filter="url(#f3aizonjh93lo)" height="48" id="tictactoe.models.DAO.TurnDAO" style="stroke: #A80036; stroke-width: 1.5;" width="82" x="698" y="42"/><ellipse cx="713" cy="58" fill="#ADD1B2" rx="11" ry="11" style="stroke: #A80036; stroke-width: 1.0;"/><path d="M715.7656,53.875 Q715.9219,53.6563 716.1094,53.5469 Q716.2969,53.4375 716.5156,53.4375 Q716.8906,53.4375 717.125,53.7031 Q717.3594,53.9531 717.3594,54.5625 L717.3594,56.0156 Q717.3594,56.625 717.125,56.8906 Q716.8906,57.1563 716.5156,57.1563 Q716.1719,57.1563 715.9688,56.9531 Q715.7656,56.7656 715.6563,56.25 Q715.6094,55.8906 715.4219,55.7031 Q715.0938,55.3281 714.4844,55.1094 Q713.875,54.8906 713.25,54.8906 Q712.4844,54.8906 711.8438,55.2188 Q711.2188,55.5469 710.7188,56.2969 Q710.2344,57.0469 710.2344,58.0781 L710.2344,59.1719 Q710.2344,60.4063 711.125,61.2344 Q712.0156,62.0469 713.6094,62.0469 Q714.5469,62.0469 715.2031,61.7969 Q715.5938,61.6406 716.0156,61.2031 Q716.2813,60.9375 716.4219,60.8594 Q716.5781,60.7813 716.7813,60.7813 Q717.1094,60.7813 717.3594,61.0469 Q717.625,61.2969 717.625,61.6406 Q717.625,61.9844 717.2813,62.3906 Q716.7813,62.9688 715.9844,63.2969 Q714.9063,63.75 713.6094,63.75 Q712.0938,63.75 710.8906,63.125 Q709.9063,62.625 709.2188,61.5625 Q708.5313,60.4844 708.5313,59.2031 L708.5313,58.0469 Q708.5313,56.7188 709.1406,55.5781 Q709.7656,54.4219 710.8594,53.8125 Q711.9531,53.1875 713.1875,53.1875 Q713.9219,53.1875 714.5625,53.3594 Q715.2188,53.5156 715.7656,53.875 Z "/><text fill="#000000" font-family="sans-serif" font-size="12" lengthAdjust="spacingAndGlyphs" textLength="50" x="727" y="62.9102">TurnDAO</text><line style="stroke: #A80036; stroke-width: 1.5;" x1="699" x2="779" y1="74" y2="74"/><line style="stroke: #A80036; stroke-width: 1.5;" x1="699" x2="779" y1="82" y2="82"/><!--MD5=[b42b9147ed7462532394f7fe6f96703d]
class tictactoe.models.Turn--><rect fill="#FEFECE" filter="url(#f3aizonjh93lo)" height="48" id="tictactoe.models.Turn" style="stroke: #A80036; stroke-width: 1.5;" width="57" x="511.5" y="768"/><ellipse cx="526.5" cy="784" fill="#ADD1B2" rx="11" ry="11" style="stroke: #A80036; stroke-width: 1.0;"/><path d="M529.2656,779.875 Q529.4219,779.6563 529.6094,779.5469 Q529.7969,779.4375 530.0156,779.4375 Q530.3906,779.4375 530.625,779.7031 Q530.8594,779.9531 530.8594,780.5625 L530.8594,782.0156 Q530.8594,782.625 530.625,782.8906 Q530.3906,783.1563 530.0156,783.1563 Q529.6719,783.1563 529.4688,782.9531 Q529.2656,782.7656 529.1563,782.25 Q529.1094,781.8906 528.9219,781.7031 Q528.5938,781.3281 527.9844,781.1094 Q527.375,780.8906 526.75,780.8906 Q525.9844,780.8906 525.3438,781.2188 Q524.7188,781.5469 524.2188,782.2969 Q523.7344,783.0469 523.7344,784.0781 L523.7344,785.1719 Q523.7344,786.4063 524.625,787.2344 Q525.5156,788.0469 527.1094,788.0469 Q528.0469,788.0469 528.7031,787.7969 Q529.0938,787.6406 529.5156,787.2031 Q529.7813,786.9375 529.9219,786.8594 Q530.0781,786.7813 530.2813,786.7813 Q530.6094,786.7813 530.8594,787.0469 Q531.125,787.2969 531.125,787.6406 Q531.125,787.9844 530.7813,788.3906 Q530.2813,788.9688 529.4844,789.2969 Q528.4063,789.75 527.1094,789.75 Q525.5938,789.75 524.3906,789.125 Q523.4063,788.625 522.7188,787.5625 Q522.0313,786.4844 522.0313,785.2031 L522.0313,784.0469 Q522.0313,782.7188 522.6406,781.5781 Q523.2656,780.4219 524.3594,779.8125 Q525.4531,779.1875 526.6875,779.1875 Q527.4219,779.1875 528.0625,779.3594 Q528.7188,779.5156 529.2656,779.875 Z "/><text fill="#000000" font-family="sans-serif" font-size="12" lengthAdjust="spacingAndGlyphs" textLength="25" x="540.5" y="788.9102">Turn</text><line style="stroke: #A80036; stroke-width: 1.5;" x1="512.5" x2="567.5" y1="800" y2="800"/><line style="stroke: #A80036; stroke-width: 1.5;" x1="512.5" x2="567.5" y1="808" y2="808"/><!--MD5=[55d70ecb9e3ba4786ec1f15d0b7dce13]
class tictactoe.models.Coordinate--><rect fill="#FEFECE" filter="url(#f3aizonjh93lo)" height="48" id="tictactoe.models.Coordinate" style="stroke: #A80036; stroke-width: 1.5;" width="93" x="603.5" y="768"/><ellipse cx="618.5" cy="784" fill="#ADD1B2" rx="11" ry="11" style="stroke: #A80036; stroke-width: 1.0;"/><path d="M621.2656,779.875 Q621.4219,779.6563 621.6094,779.5469 Q621.7969,779.4375 622.0156,779.4375 Q622.3906,779.4375 622.625,779.7031 Q622.8594,779.9531 622.8594,780.5625 L622.8594,782.0156 Q622.8594,782.625 622.625,782.8906 Q622.3906,783.1563 622.0156,783.1563 Q621.6719,783.1563 621.4688,782.9531 Q621.2656,782.7656 621.1563,782.25 Q621.1094,781.8906 620.9219,781.7031 Q620.5938,781.3281 619.9844,781.1094 Q619.375,780.8906 618.75,780.8906 Q617.9844,780.8906 617.3438,781.2188 Q616.7188,781.5469 616.2188,782.2969 Q615.7344,783.0469 615.7344,784.0781 L615.7344,785.1719 Q615.7344,786.4063 616.625,787.2344 Q617.5156,788.0469 619.1094,788.0469 Q620.0469,788.0469 620.7031,787.7969 Q621.0938,787.6406 621.5156,787.2031 Q621.7813,786.9375 621.9219,786.8594 Q622.0781,786.7813 622.2813,786.7813 Q622.6094,786.7813 622.8594,787.0469 Q623.125,787.2969 623.125,787.6406 Q623.125,787.9844 622.7813,788.3906 Q622.2813,788.9688 621.4844,789.2969 Q620.4063,789.75 619.1094,789.75 Q617.5938,789.75 616.3906,789.125 Q615.4063,788.625 614.7188,787.5625 Q614.0313,786.4844 614.0313,785.2031 L614.0313,784.0469 Q614.0313,782.7188 614.6406,781.5781 Q615.2656,780.4219 616.3594,779.8125 Q617.4531,779.1875 618.6875,779.1875 Q619.4219,779.1875 620.0625,779.3594 Q620.7188,779.5156 621.2656,779.875 Z "/><text fill="#000000" font-family="sans-serif" font-size="12" lengthAdjust="spacingAndGlyphs" textLength="61" x="632.5" y="788.9102">Coordinate</text><line style="stroke: #A80036; stroke-width: 1.5;" x1="604.5" x2="695.5" y1="800" y2="800"/><line style="stroke: #A80036; stroke-width: 1.5;" x1="604.5" x2="695.5" y1="808" y2="808"/><!--MD5=[336fc191853266db375d2ae64f177715]
class tictactoe.models.SessionImplementation--><rect fill="#FEFECE" filter="url(#f3aizonjh93lo)" height="48" id="tictactoe.models.SessionImplementation" style="stroke: #A80036; stroke-width: 1.5;" width="164" x="732" y="768"/><ellipse cx="747" cy="784" fill="#ADD1B2" rx="11" ry="11" style="stroke: #A80036; stroke-width: 1.0;"/><path d="M749.7656,779.875 Q749.9219,779.6563 750.1094,779.5469 Q750.2969,779.4375 750.5156,779.4375 Q750.8906,779.4375 751.125,779.7031 Q751.3594,779.9531 751.3594,780.5625 L751.3594,782.0156 Q751.3594,782.625 751.125,782.8906 Q750.8906,783.1563 750.5156,783.1563 Q750.1719,783.1563 749.9688,782.9531 Q749.7656,782.7656 749.6563,782.25 Q749.6094,781.8906 749.4219,781.7031 Q749.0938,781.3281 748.4844,781.1094 Q747.875,780.8906 747.25,780.8906 Q746.4844,780.8906 745.8438,781.2188 Q745.2188,781.5469 744.7188,782.2969 Q744.2344,783.0469 744.2344,784.0781 L744.2344,785.1719 Q744.2344,786.4063 745.125,787.2344 Q746.0156,788.0469 747.6094,788.0469 Q748.5469,788.0469 749.2031,787.7969 Q749.5938,787.6406 750.0156,787.2031 Q750.2813,786.9375 750.4219,786.8594 Q750.5781,786.7813 750.7813,786.7813 Q751.1094,786.7813 751.3594,787.0469 Q751.625,787.2969 751.625,787.6406 Q751.625,787.9844 751.2813,788.3906 Q750.7813,788.9688 749.9844,789.2969 Q748.9063,789.75 747.6094,789.75 Q746.0938,789.75 744.8906,789.125 Q743.9063,788.625 743.2188,787.5625 Q742.5313,786.4844 742.5313,785.2031 L742.5313,784.0469 Q742.5313,782.7188 743.1406,781.5781 Q743.7656,780.4219 744.8594,779.8125 Q745.9531,779.1875 747.1875,779.1875 Q747.9219,779.1875 748.5625,779.3594 Q749.2188,779.5156 749.7656,779.875 Z "/><text fill="#000000" font-family="sans-serif" font-size="12" lengthAdjust="spacingAndGlyphs" textLength="132" x="761" y="788.9102">SessionImplementation</text><line style="stroke: #A80036; stroke-width: 1.5;" x1="733" x2="895" y1="800" y2="800"/><line style="stroke: #A80036; stroke-width: 1.5;" x1="733" x2="895" y1="808" y2="808"/><!--MD5=[195139e51a02fc55b3e6ed06cd1d4df2]
class java.io.FileWriter--><rect fill="#FEFECE" filter="url(#f3aizonjh93lo)" height="48" id="java.io.FileWriter" style="stroke: #A80036; stroke-width: 1.5;" width="84" x="274" y="768"/><ellipse cx="289" cy="784" fill="#ADD1B2" rx="11" ry="11" style="stroke: #A80036; stroke-width: 1.0;"/><path d="M291.7656,779.875 Q291.9219,779.6563 292.1094,779.5469 Q292.2969,779.4375 292.5156,779.4375 Q292.8906,779.4375 293.125,779.7031 Q293.3594,779.9531 293.3594,780.5625 L293.3594,782.0156 Q293.3594,782.625 293.125,782.8906 Q292.8906,783.1563 292.5156,783.1563 Q292.1719,783.1563 291.9688,782.9531 Q291.7656,782.7656 291.6563,782.25 Q291.6094,781.8906 291.4219,781.7031 Q291.0938,781.3281 290.4844,781.1094 Q289.875,780.8906 289.25,780.8906 Q288.4844,780.8906 287.8438,781.2188 Q287.2188,781.5469 286.7188,782.2969 Q286.2344,783.0469 286.2344,784.0781 L286.2344,785.1719 Q286.2344,786.4063 287.125,787.2344 Q288.0156,788.0469 289.6094,788.0469 Q290.5469,788.0469 291.2031,787.7969 Q291.5938,787.6406 292.0156,787.2031 Q292.2813,786.9375 292.4219,786.8594 Q292.5781,786.7813 292.7813,786.7813 Q293.1094,786.7813 293.3594,787.0469 Q293.625,787.2969 293.625,787.6406 Q293.625,787.9844 293.2813,788.3906 Q292.7813,788.9688 291.9844,789.2969 Q290.9063,789.75 289.6094,789.75 Q288.0938,789.75 286.8906,789.125 Q285.9063,788.625 285.2188,787.5625 Q284.5313,786.4844 284.5313,785.2031 L284.5313,784.0469 Q284.5313,782.7188 285.1406,781.5781 Q285.7656,780.4219 286.8594,779.8125 Q287.9531,779.1875 289.1875,779.1875 Q289.9219,779.1875 290.5625,779.3594 Q291.2188,779.5156 291.7656,779.875 Z "/><text fill="#000000" font-family="sans-serif" font-size="12" lengthAdjust="spacingAndGlyphs" textLength="52" x="303" y="788.9102">FileWriter</text><line style="stroke: #A80036; stroke-width: 1.5;" x1="275" x2="357" y1="800" y2="800"/><line style="stroke: #A80036; stroke-width: 1.5;" x1="275" x2="357" y1="808" y2="808"/><!--MD5=[06343bf850d7d7a24456cd327e63b99b]
class java.io.BufferedReader--><rect fill="#FEFECE" filter="url(#f3aizonjh93lo)" height="48" id="java.io.BufferedReader" style="stroke: #A80036; stroke-width: 1.5;" width="119" x="119.5" y="768"/><ellipse cx="134.5" cy="784" fill="#ADD1B2" rx="11" ry="11" style="stroke: #A80036; stroke-width: 1.0;"/><path d="M137.2656,779.875 Q137.4219,779.6563 137.6094,779.5469 Q137.7969,779.4375 138.0156,779.4375 Q138.3906,779.4375 138.625,779.7031 Q138.8594,779.9531 138.8594,780.5625 L138.8594,782.0156 Q138.8594,782.625 138.625,782.8906 Q138.3906,783.1563 138.0156,783.1563 Q137.6719,783.1563 137.4688,782.9531 Q137.2656,782.7656 137.1563,782.25 Q137.1094,781.8906 136.9219,781.7031 Q136.5938,781.3281 135.9844,781.1094 Q135.375,780.8906 134.75,780.8906 Q133.9844,780.8906 133.3438,781.2188 Q132.7188,781.5469 132.2188,782.2969 Q131.7344,783.0469 131.7344,784.0781 L131.7344,785.1719 Q131.7344,786.4063 132.625,787.2344 Q133.5156,788.0469 135.1094,788.0469 Q136.0469,788.0469 136.7031,787.7969 Q137.0938,787.6406 137.5156,787.2031 Q137.7813,786.9375 137.9219,786.8594 Q138.0781,786.7813 138.2813,786.7813 Q138.6094,786.7813 138.8594,787.0469 Q139.125,787.2969 139.125,787.6406 Q139.125,787.9844 138.7813,788.3906 Q138.2813,788.9688 137.4844,789.2969 Q136.4063,789.75 135.1094,789.75 Q133.5938,789.75 132.3906,789.125 Q131.4063,788.625 130.7188,787.5625 Q130.0313,786.4844 130.0313,785.2031 L130.0313,784.0469 Q130.0313,782.7188 130.6406,781.5781 Q131.2656,780.4219 132.3594,779.8125 Q133.4531,779.1875 134.6875,779.1875 Q135.4219,779.1875 136.0625,779.3594 Q136.7188,779.5156 137.2656,779.875 Z "/><text fill="#000000" font-family="sans-serif" font-size="12" lengthAdjust="spacingAndGlyphs" textLength="87" x="148.5" y="788.9102">BufferedReader</text><line style="stroke: #A80036; stroke-width: 1.5;" x1="120.5" x2="237.5" y1="800" y2="800"/><line style="stroke: #A80036; stroke-width: 1.5;" x1="120.5" x2="237.5" y1="808" y2="808"/><!--MD5=[c6f7a6c596e3395cd93cf9c14e16296b]
class java.io.File--><rect fill="#FEFECE" filter="url(#f3aizonjh93lo)" height="48" id="java.io.File" style="stroke: #A80036; stroke-width: 1.5;" width="52" x="32" y="768"/><ellipse cx="47" cy="784" fill="#ADD1B2" rx="11" ry="11" style="stroke: #A80036; stroke-width: 1.0;"/><path d="M49.7656,779.875 Q49.9219,779.6563 50.1094,779.5469 Q50.2969,779.4375 50.5156,779.4375 Q50.8906,779.4375 51.125,779.7031 Q51.3594,779.9531 51.3594,780.5625 L51.3594,782.0156 Q51.3594,782.625 51.125,782.8906 Q50.8906,783.1563 50.5156,783.1563 Q50.1719,783.1563 49.9688,782.9531 Q49.7656,782.7656 49.6563,782.25 Q49.6094,781.8906 49.4219,781.7031 Q49.0938,781.3281 48.4844,781.1094 Q47.875,780.8906 47.25,780.8906 Q46.4844,780.8906 45.8438,781.2188 Q45.2188,781.5469 44.7188,782.2969 Q44.2344,783.0469 44.2344,784.0781 L44.2344,785.1719 Q44.2344,786.4063 45.125,787.2344 Q46.0156,788.0469 47.6094,788.0469 Q48.5469,788.0469 49.2031,787.7969 Q49.5938,787.6406 50.0156,787.2031 Q50.2813,786.9375 50.4219,786.8594 Q50.5781,786.7813 50.7813,786.7813 Q51.1094,786.7813 51.3594,787.0469 Q51.625,787.2969 51.625,787.6406 Q51.625,787.9844 51.2813,788.3906 Q50.7813,788.9688 49.9844,789.2969 Q48.9063,789.75 47.6094,789.75 Q46.0938,789.75 44.8906,789.125 Q43.9063,788.625 43.2188,787.5625 Q42.5313,786.4844 42.5313,785.2031 L42.5313,784.0469 Q42.5313,782.7188 43.1406,781.5781 Q43.7656,780.4219 44.8594,779.8125 Q45.9531,779.1875 47.1875,779.1875 Q47.9219,779.1875 48.5625,779.3594 Q49.2188,779.5156 49.7656,779.875 Z "/><text fill="#000000" font-family="sans-serif" font-size="12" lengthAdjust="spacingAndGlyphs" textLength="20" x="61" y="788.9102">File</text><line style="stroke: #A80036; stroke-width: 1.5;" x1="33" x2="83" y1="800" y2="800"/><line style="stroke: #A80036; stroke-width: 1.5;" x1="33" x2="83" y1="808" y2="808"/><!--MD5=[4a220cc5fc32b7713592bc0fe84b32ec]
reverse link tictactoe.models.Files.FileDAO to tictactoe.models.Files.BoardFileDAO--><path d="M641,529.008 C641,550.76 641,575.152 641,595.473 " fill="none" id="tictactoe.models.Files.FileDAO&lt;-tictactoe.models.Files.BoardFileDAO" style="stroke: #A80036; stroke-width: 1.0;"/><polygon fill="none" points="634,528.785,641,508.785,648,528.785,634,528.785" style="stroke: #A80036; stroke-width: 1.0;"/><!--MD5=[947e69fb8448229a95a7d38d0a65657f]
reverse link tictactoe.models.DAO.BoardDAO to tictactoe.models.Files.BoardFileDAO--><path d="M865.209,110.195 C873.425,196.635 880.917,394.148 799,529 C780.405,559.611 749.752,583.937 720.369,601.885 " fill="none" id="tictactoe.models.DAO.BoardDAO&lt;-tictactoe.models.Files.BoardFileDAO" style="stroke: #A80036; stroke-width: 1.0;"/><polygon fill="none" points="858.243,110.885,863.105,90.261,872.165,109.416,858.243,110.885" style="stroke: #A80036; stroke-width: 1.0;"/><!--MD5=[41be8c01f1727f2cdd3ae6ada8aa5261]
link tictactoe.models.Files.BoardFileDAO to tictactoe.models.Turn--><path d="M611.243,685.546 C594.223,710.74 573.398,741.565 558.67,763.3643 " fill="none" id="tictactoe.models.Files.BoardFileDAO-&gt;tictactoe.models.Turn" style="stroke: #A80036; stroke-width: 1.0; stroke-dasharray: 7.0,7.0;"/><polygon fill="#A80036" points="555.809,767.5996,564.162,762.3816,558.6082,763.4566,557.5332,757.9028,555.809,767.5996" style="stroke: #A80036; stroke-width: 1.0;"/><!--MD5=[9b6179b44b973c50a6fe339d63e326db]
link tictactoe.models.Files.BoardFileDAO to tictactoe.models.Coordinate--><path d="M643.652,685.546 C645.149,710.425 646.978,740.795 648.287,762.5426 " fill="none" id="tictactoe.models.Files.BoardFileDAO-&gt;tictactoe.models.Coordinate" style="stroke: #A80036; stroke-width: 1.0; stroke-dasharray: 7.0,7.0;"/><polygon fill="#A80036" points="648.591,767.5996,652.0428,758.3754,648.2905,762.6086,644.0573,758.8563,648.591,767.5996" style="stroke: #A80036; stroke-width: 1.0;"/><!--MD5=[6071ad2471b6e80e8df0de7117b59453]
link tictactoe.models.Files.BoardFileDAO to java.io.FileWriter--><path d="M593.162,685.666 C578.353,697.204 561.344,708.495 544,716 C523.749,724.763 516.324,718.327 495,724 C449.12,736.205 398.612,755.6955 362.979,770.5156 " fill="none" id="tictactoe.models.Files.BoardFileDAO-&gt;java.io.FileWriter" style="stroke: #A80036; stroke-width: 1.0; stroke-dasharray: 7.0,7.0;"/><polygon fill="#A80036" points="358.272,772.4825,368.1184,772.7019,362.8852,770.5541,365.033,765.3208,358.272,772.4825" style="stroke: #A80036; stroke-width: 1.0;"/><!--MD5=[cffa56b923dfeeefa94e8ccd58ad59ce]
link tictactoe.models.Files.BoardFileDAO to java.io.BufferedReader--><path d="M595.735,685.607 C580.498,697.749 562.608,709.389 544,716 C513.835,726.717 285.824,712.367 256,724 C234.693,732.311 215.299,749.2713 201.305,764.0474 " fill="none" id="tictactoe.models.Files.BoardFileDAO-&gt;java.io.BufferedReader" style="stroke: #A80036; stroke-width: 1.0; stroke-dasharray: 7.0,7.0;"/><polygon fill="#A80036" points="197.865,767.7503,206.9212,763.8791,201.2681,764.0871,201.0601,758.4341,197.865,767.7503" style="stroke: #A80036; stroke-width: 1.0;"/><!--MD5=[9adac38c8cf9126d7d5ee6f82eed1d96]
reverse link tictactoe.models.DAO.DAO to tictactoe.models.Files.GameFileDAO--><path d="M641.148,110.293 C648.596,169.479 653.602,276.863 608,352 C595.61,372.415 550.781,401.345 508.597,425.389 " fill="none" id="tictactoe.models.DAO.DAO&lt;-tictactoe.models.Files.GameFileDAO" style="stroke: #A80036; stroke-width: 1.0;"/><polygon fill="none" points="634.168,110.925,638.275,90.137,648.027,108.949,634.168,110.925" style="stroke: #A80036; stroke-width: 1.0;"/><!--MD5=[54e9146bfb7a662bd3a38d1b7cdd2ae2]
reverse link tictactoe.models.Files.GameFileDAO to tictactoe.models.Files.GameFileDAO--><path d="M528.105,445.115 C537.552,450.377 543.5,458.839 543.5,470.5 C543.5,488.928 528.648,499.365 508.603,501.813 " fill="none" id="tictactoe.models.Files.GameFileDAO&lt;-tictactoe.models.Files.GameFileDAO" style="stroke: #A80036; stroke-width: 1.0;"/><polygon fill="none" points="525.703,451.701,508.603,439.187,529.774,438.306,525.703,451.701" style="stroke: #A80036; stroke-width: 1.0;"/><!--MD5=[a888cb609d12db7576e36addc699a64e]
link tictactoe.models.Files.GameFileDAO to tictactoe.models.Files.BoardFileDAO--><path d="M508.5051,536.4485 C508.5051,536.4485 553.432,571.392 573.728,587.178 " fill="none" id="tictactoe.models.Files.GameFileDAO-tictactoe.models.Files.BoardFileDAO" style="stroke: #A80036; stroke-width: 1.0;"/><polygon fill="#A80036" points="584.118,595.259,579.4698,586.576,580.1713,592.1892,574.5581,592.8908,584.118,595.259" style="stroke: #A80036; stroke-width: 1.0;"/><line style="stroke: #A80036; stroke-width: 1.0;" x1="580.1713" x2="573.8565" y1="592.1892" y2="587.2775"/><polygon fill="#A80036" points="499.033,529.081,501.3132,535.9221,508.5051,536.4485,506.2249,529.6074,499.033,529.081" style="stroke: #A80036; stroke-width: 1.0;"/><!--MD5=[24160108b480e7c8c63d97ca9d2a2454]
link tictactoe.models.Files.GameFileDAO to tictactoe.models.Files.TurnFileDAO--><path d="M434.5422,541.2052 C434.5422,541.2052 437.78,564.848 439.28,575.805 " fill="none" id="tictactoe.models.Files.GameFileDAO-tictactoe.models.Files.TurnFileDAO" style="stroke: #A80036; stroke-width: 1.0;"/><polygon fill="#A80036" points="441.069,588.874,443.8116,579.4147,440.391,583.9202,435.8855,580.4995,441.069,588.874" style="stroke: #A80036; stroke-width: 1.0;"/><line style="stroke: #A80036; stroke-width: 1.0;" x1="440.391" x2="439.306" y1="583.9202" y2="575.994"/><polygon fill="#A80036" points="432.915,529.316,429.7656,535.803,434.5422,541.2052,437.6917,534.7182,432.915,529.316" style="stroke: #A80036; stroke-width: 1.0;"/><!--MD5=[5a6763eecbdff20bf3e8be9ec9f28fb5]
link tictactoe.models.Files.GameFileDAO to java.io.FileWriter--><path d="M382.402,529.191 C370.62,547.526 358.911,568.409 351,589 C328.279,648.142 320.233,722.703 317.44,762.6454 " fill="none" id="tictactoe.models.Files.GameFileDAO-&gt;java.io.FileWriter" style="stroke: #A80036; stroke-width: 1.0; stroke-dasharray: 7.0,7.0;"/><polygon fill="#A80036" points="317.094,767.8115,321.6856,759.0984,317.4276,762.8226,313.7034,758.5647,317.094,767.8115" style="stroke: #A80036; stroke-width: 1.0;"/><!--MD5=[b9a360fc22b3c0218725ba76ef01271c]
link tictactoe.models.Files.GameFileDAO to java.io.BufferedReader--><path d="M367.693,529.021 C350.132,547.605 331.189,568.671 315,589 C267.928,648.111 220.291,723.148 195.824,763.0583 " fill="none" id="tictactoe.models.Files.GameFileDAO-&gt;java.io.BufferedReader" style="stroke: #A80036; stroke-width: 1.0; stroke-dasharray: 7.0,7.0;"/><polygon fill="#A80036" points="192.957,767.7479,201.0646,762.1562,195.5653,763.4821,194.2394,757.9829,192.957,767.7479" style="stroke: #A80036; stroke-width: 1.0;"/><!--MD5=[44cd755458f5be9d784f84efeb604022]
reverse link tictactoe.models.DAO.SessionImplementationDAO to tictactoe.models.Files.SessionImplementationFileDAO--><path d="M473.74,110.172 C472.87,126.789 471.84,146.463 470.82,165.945 " fill="none" id="tictactoe.models.DAO.SessionImplementationDAO&lt;-tictactoe.models.Files.SessionImplementationFileDAO" style="stroke: #A80036; stroke-width: 1.0;"/><polygon fill="none" points="466.758,109.646,474.794,90.039,480.738,110.378,466.758,109.646" style="stroke: #A80036; stroke-width: 1.0;"/><!--MD5=[ca2db4be31fc42d9846cb9f2ac3f30b9]
link tictactoe.models.Files.SessionImplementationFileDAO to tictactoe.models.SessionImplementation--><path d="M601.4005,307.8297 C601.4005,307.8297 703.531,366.1 737,412 C814.14,517.791 818.438,682.318 816.107,754.7183 " fill="none" id="tictactoe.models.Files.SessionImplementationFileDAO-tictactoe.models.SessionImplementation" style="stroke: #A80036; stroke-width: 1.0;"/><polygon fill="#A80036" points="815.572,767.9254,819.9331,759.0947,815.7744,762.9295,811.9396,758.7709,815.572,767.9254" style="stroke: #A80036; stroke-width: 1.0;"/><line style="stroke: #A80036; stroke-width: 1.0;" x1="815.7744" x2="816.0985" y1="762.9295" y2="754.9361"/><polygon fill="#A80036" points="590.546,302.713,594.2677,308.8895,601.4005,307.8297,597.6788,301.6532,590.546,302.713" style="stroke: #A80036; stroke-width: 1.0;"/><!--MD5=[c6efe9aba627b5d24cb351f21c8bc6c0]
link tictactoe.models.Files.SessionImplementationFileDAO to tictactoe.models.Files.GameFileDAO--><path d="M445.6521,363.9716 C445.6521,363.9716 440.944,388.029 438.81,398.935 " fill="none" id="tictactoe.models.Files.SessionImplementationFileDAO-tictactoe.models.Files.GameFileDAO" style="stroke: #A80036; stroke-width: 1.0;"/><polygon fill="#A80036" points="436.268,411.925,441.9222,403.8609,437.2284,407.0181,434.0712,402.3243,436.268,411.925" style="stroke: #A80036; stroke-width: 1.0;"/><line style="stroke: #A80036; stroke-width: 1.0;" x1="437.2284" x2="438.7645" y1="407.0181" y2="399.167"/><polygon fill="#A80036" points="447.957,352.195,442.879,357.315,445.6521,363.9716,450.73,358.8516,447.957,352.195" style="stroke: #A80036; stroke-width: 1.0;"/><!--MD5=[2112fe747e30bec40930c8d381875195]
link tictactoe.models.Files.SessionImplementationFileDAO to java.io.FileWriter--><path d="M361.415,352.344 C346.411,370.583 333.024,390.722 324,412 C272.514,533.402 296.722,696.939 309.675,762.2833 " fill="none" id="tictactoe.models.Files.SessionImplementationFileDAO-&gt;java.io.FileWriter" style="stroke: #A80036; stroke-width: 1.0; stroke-dasharray: 7.0,7.0;"/><polygon fill="#A80036" points="310.739,767.5584,312.8809,757.9453,309.7506,762.6571,305.0388,759.5267,310.739,767.5584" style="stroke: #A80036; stroke-width: 1.0;"/><!--MD5=[7e181f8d8a2cb43dd50022cf405cd853]
link tictactoe.models.Files.SessionImplementationFileDAO to java.io.File--><path d="M341.454,318.544 C299.666,342.863 255.482,374.303 223,412 C128.038,522.21 80.0064,695.531 64.1265,762.9036 " fill="none" id="tictactoe.models.Files.SessionImplementationFileDAO-&gt;java.io.File" style="stroke: #A80036; stroke-width: 1.0; stroke-dasharray: 7.0,7.0;"/><polygon fill="#A80036" points="62.9506,767.9504,68.8887,760.093,64.0853,763.0809,61.0974,758.2775,62.9506,767.9504" style="stroke: #A80036; stroke-width: 1.0;"/><!--MD5=[3113150377f1dc8c3c37a214bb1b5823]
link tictactoe.models.Files.SessionImplementationFileDAO to java.io.BufferedReader--><path d="M342.315,352.068 C322.756,370.404 304.052,390.646 289,412 C209.17,525.248 186.821,696.086 180.954,762.853 " fill="none" id="tictactoe.models.Files.SessionImplementationFileDAO-&gt;java.io.BufferedReader" style="stroke: #A80036; stroke-width: 1.0; stroke-dasharray: 7.0,7.0;"/><polygon fill="#A80036" points="180.529,767.8565,185.2776,759.228,180.9529,762.8745,177.3064,758.5498,180.529,767.8565" style="stroke: #A80036; stroke-width: 1.0;"/><!--MD5=[a40475c5c34172e981e09facea305cb0]
reverse link tictactoe.models.DAO.TurnDAO to tictactoe.models.Files.TurnFileDAO--><path d="M753.799,109.365 C781.609,197.325 830.858,402.108 737,529 C683.582,601.218 626.985,554.613 544,589 C538.433,591.307 532.757,593.826 527.088,596.469 " fill="none" id="tictactoe.models.DAO.TurnDAO&lt;-tictactoe.models.Files.TurnFileDAO" style="stroke: #A80036; stroke-width: 1.0;"/><polygon fill="none" points="747.061,111.285,747.449,90.099,760.358,106.903,747.061,111.285" style="stroke: #A80036; stroke-width: 1.0;"/><!--MD5=[6a6532608dd1d3b7c40122bdc8fb90c2]
link tictactoe.models.Files.TurnFileDAO to tictactoe.models.Turn--><path d="M485.4359,702.334 C485.4359,702.334 508.99,740.608 518.674,756.3458 " fill="none" id="tictactoe.models.Files.TurnFileDAO-tictactoe.models.Turn" style="stroke: #A80036; stroke-width: 1.0;"/><polygon fill="#A80036" points="525.631,767.6509,524.3207,757.8896,523.0105,763.3926,517.5075,762.0824,525.631,767.6509" style="stroke: #A80036; stroke-width: 1.0;"/><line style="stroke: #A80036; stroke-width: 1.0;" x1="523.0105" x2="518.818" y1="763.3926" y2="756.5794"/><polygon fill="#A80036" points="479.147,692.114,478.8848,699.3203,485.4359,702.334,485.6982,695.1277,479.147,692.114" style="stroke: #A80036; stroke-width: 1.0;"/><!--MD5=[7d88a318230f6cd485f61837dcedd275]
link tictactoe.models.Files.TurnFileDAO to java.io.FileWriter--><path d="M403.311,692.114 C382.135,716.097 357.68,743.794 340.048,763.7634 " fill="none" id="tictactoe.models.Files.TurnFileDAO-&gt;java.io.FileWriter" style="stroke: #A80036; stroke-width: 1.0; stroke-dasharray: 7.0,7.0;"/><polygon fill="#A80036" points="336.616,767.6509,345.5711,763.5514,339.9252,763.9026,339.5739,758.2567,336.616,767.6509" style="stroke: #A80036; stroke-width: 1.0;"/><!--MD5=[c9ea96090b12ec8682a2c9944d3f1a8d]
link tictactoe.models.Files.TurnFileDAO to java.io.BufferedReader--><path d="M368.639,669.181 C332.926,683.231 291.021,701.997 256,724 C237.896,735.374 219.753,750.91 205.629,764.1578 " fill="none" id="tictactoe.models.Files.TurnFileDAO-&gt;java.io.BufferedReader" style="stroke: #A80036; stroke-width: 1.0; stroke-dasharray: 7.0,7.0;"/><polygon fill="#A80036" points="201.755,767.8284,211.0395,764.5425,205.3847,764.3897,205.5376,758.7349,201.755,767.8284" style="stroke: #A80036; stroke-width: 1.0;"/><!--MD5=[56f826eeb8454f8ef43994976f50b904]
@startuml

class  tictactoe.models.Files.BoardFileDAO{
~ BoardFileDAO(Board)
+ save(FileWriter): void
+ load(BufferedReader): void
}
tictactoe.models.Files.FileDAO <|-down- tictactoe.models.Files.BoardFileDAO
tictactoe.models.DAO.BoardDAO <|-down- tictactoe.models.Files.BoardFileDAO
tictactoe.models.Files.BoardFileDAO ..> tictactoe.models.Turn
tictactoe.models.Files.BoardFileDAO ..> tictactoe.models.Coordinate
tictactoe.models.Files.BoardFileDAO ..> java.io.FileWriter
tictactoe.models.Files.BoardFileDAO ..> java.io.BufferedReader

interface  tictactoe.models.Files.FileDAO{
+ {abstract} save(FileWriter): void
+ {abstract} load(BufferedReader): void
}

class  tictactoe.models.Files.GameFileDAO{
- boardFileDAO: BoardFileDAO
- turnFileDAO: TurnFileDAO
~ GameFileDAO(Game)
+ save(FileWriter): void
+ load(BufferedReader): void
}
tictactoe.models.DAO.DAO <|-down- tictactoe.models.Files.GameFileDAO
tictactoe.models.Files.GameFileDAO <|-down- tictactoe.models.Files.GameFileDAO
tictactoe.models.Files.GameFileDAO *-down-> tictactoe.models.Files.BoardFileDAO
tictactoe.models.Files.GameFileDAO *-down-> tictactoe.models.Files.TurnFileDAO
tictactoe.models.Files.GameFileDAO ..> java.io.FileWriter
tictactoe.models.Files.GameFileDAO ..> java.io.BufferedReader

class  tictactoe.models.Files.SessionImplementationFileDAO{
+ {static} EXTENSION: String
+ {static} DIRECTORY: String
- {static} directory: File
- sessionImplementation: SessionImplementation
- gameFileDAO: GameFileDAO
+ associate(SessionImplementation)
+ save(String): void
+ load(String): void
+ getGamesNames(): String[]
+ exists(String): boolean
}
tictactoe.models.DAO.SessionImplementationDAO <|-down- tictactoe.models.Files.SessionImplementationFileDAO
tictactoe.models.Files.SessionImplementationFileDAO *-down-> tictactoe.models.SessionImplementation
tictactoe.models.Files.SessionImplementationFileDAO *-down-> tictactoe.models.Files.GameFileDAO
tictactoe.models.Files.SessionImplementationFileDAO ..> java.io.FileWriter
tictactoe.models.Files.SessionImplementationFileDAO ..> java.io.File
tictactoe.models.Files.SessionImplementationFileDAO ..> java.io.BufferedReader

class  tictactoe.models.Files.TurnFileDAO{
- turn: Turn
~ TurnFileDAO(Turn)
+ save(FileWriter): void
+ load(BufferedReader): void
}
tictactoe.models.DAO.TurnDAO <|-down- tictactoe.models.Files.TurnFileDAO
tictactoe.models.Files.TurnFileDAO *-down-> tictactoe.models.Turn
tictactoe.models.Files.TurnFileDAO ..> java.io.FileWriter
tictactoe.models.Files.TurnFileDAO ..> java.io.BufferedReader

@enduml

PlantUML version 1.2020.15(Sun Jun 28 13:39:45 CEST 2020)
(GPL source distribution)
Java Runtime: Java(TM) SE Runtime Environment
JVM: Java HotSpot(TM) 64-Bit Server VM
Default Encoding: windows-1252
Language: es
Country: ES
--></g></svg>