<?xml version="1.0" encoding="UTF-8" standalone="no"?><svg xmlns="http://www.w3.org/2000/svg" xmlns:xlink="http://www.w3.org/1999/xlink" contentScriptType="application/ecmascript" contentStyleType="text/css" height="1325px" preserveAspectRatio="none" style="width:1272px;height:1325px;" version="1.1" viewBox="0 0 1272 1325" width="1272px" zoomAndPan="magnify"><defs><filter height="300%" id="f1m193fcwipz2d" width="300%" x="-1" y="-1"><feGaussianBlur result="blurOut" stdDeviation="2.0"/><feColorMatrix in="blurOut" result="blurOut2" type="matrix" values="0 0 0 0 0 0 0 0 0 0 0 0 0 0 0 0 0 0 .4 0"/><feOffset dx="4.0" dy="4.0" in="blurOut2" result="blurOut3"/><feBlend in="SourceGraphic" in2="blurOut3" mode="normal"/></filter></defs><g><!--MD5=[ee7e9a007a7c4d40c0679a27f272732d]
cluster tictactoe.controllers--><polygon fill="#FFFFFF" filter="url(#f1m193fcwipz2d)" points="38.7989,6,186.7989,6,193.7989,29.6094,901.7989,29.6094,901.7989,1189,38.7989,1189,38.7989,6" style="stroke: #000000; stroke-width: 1.5;"/><line style="stroke: #000000; stroke-width: 1.5;" x1="38.7989" x2="193.7989" y1="29.6094" y2="29.6094"/><text fill="#000000" font-family="sans-serif" font-size="14" font-weight="bold" lengthAdjust="spacingAndGlyphs" textLength="142" x="42.7989" y="22.5332">tictactoe.controllers</text><!--MD5=[51cd642fcc96b47682a93d9084d46dec]
cluster tictactoe.models--><polygon fill="#FFFFFF" filter="url(#f1m193fcwipz2d)" points="714.7989,1213,836.7989,1213,843.7989,1236.6094,1080.7989,1236.6094,1080.7989,1313,714.7989,1313,714.7989,1213" style="stroke: #000000; stroke-width: 1.5;"/><line style="stroke: #000000; stroke-width: 1.5;" x1="714.7989" x2="843.7989" y1="1236.6094" y2="1236.6094"/><text fill="#000000" font-family="sans-serif" font-size="14" font-weight="bold" lengthAdjust="spacingAndGlyphs" textLength="116" x="718.7989" y="1229.5332">tictactoe.models</text><!--MD5=[f4a8416df5d5f7c80a7d3a30f9e0f7a6]
cluster mastermind.controllers--><polygon fill="#FFFFFF" filter="url(#f1m193fcwipz2d)" points="1071.7989,33.5,1240.7989,33.5,1247.7989,57.1094,1250.7989,57.1094,1250.7989,133.5,1071.7989,133.5,1071.7989,33.5" style="stroke: #000000; stroke-width: 1.5;"/><line style="stroke: #000000; stroke-width: 1.5;" x1="1071.7989" x2="1247.7989" y1="57.1094" y2="57.1094"/><text fill="#000000" font-family="sans-serif" font-size="14" font-weight="bold" lengthAdjust="spacingAndGlyphs" textLength="163" x="1075.7989" y="50.0332">mastermind.controllers</text><!--MD5=[7db3c59d38ae5b37b484eb2df9368145]
cluster java.util--><polygon fill="#FFFFFF" filter="url(#f1m193fcwipz2d)" points="1117.7989,183,1178.7989,183,1185.7989,206.6094,1205.7989,206.6094,1205.7989,283,1117.7989,283,1117.7989,183" style="stroke: #000000; stroke-width: 1.5;"/><line style="stroke: #000000; stroke-width: 1.5;" x1="1117.7989" x2="1185.7989" y1="206.6094" y2="206.6094"/><text fill="#000000" font-family="sans-serif" font-size="14" font-weight="bold" lengthAdjust="spacingAndGlyphs" textLength="55" x="1121.7989" y="199.5332">java.util</text><!--MD5=[294b28e7c71f580fcd8922373db841ed]
class tictactoe.controllers.AcceptorController--><rect fill="#FEFECE" filter="url(#f1m193fcwipz2d)" height="75.6719" id="tictactoe.controllers.AcceptorController" style="stroke: #A80036; stroke-width: 1.5;" width="180" x="439.7989" y="205"/><ellipse cx="475.9489" cy="221" fill="#ADD1B2" rx="11" ry="11" style="stroke: #A80036; stroke-width: 1.0;"/><path d="M478.7145,216.875 Q478.8708,216.6563 479.0583,216.5469 Q479.2458,216.4375 479.4645,216.4375 Q479.8395,216.4375 480.0739,216.7031 Q480.3083,216.9531 480.3083,217.5625 L480.3083,219.0156 Q480.3083,219.625 480.0739,219.8906 Q479.8395,220.1563 479.4645,220.1563 Q479.1208,220.1563 478.9177,219.9531 Q478.7145,219.7656 478.6052,219.25 Q478.5583,218.8906 478.3708,218.7031 Q478.0427,218.3281 477.4333,218.1094 Q476.8239,217.8906 476.1989,217.8906 Q475.4333,217.8906 474.7927,218.2188 Q474.1677,218.5469 473.6677,219.2969 Q473.1833,220.0469 473.1833,221.0781 L473.1833,222.1719 Q473.1833,223.4063 474.0739,224.2344 Q474.9645,225.0469 476.5583,225.0469 Q477.4958,225.0469 478.152,224.7969 Q478.5427,224.6406 478.9645,224.2031 Q479.2302,223.9375 479.3708,223.8594 Q479.527,223.7813 479.7302,223.7813 Q480.0583,223.7813 480.3083,224.0469 Q480.5739,224.2969 480.5739,224.6406 Q480.5739,224.9844 480.2302,225.3906 Q479.7302,225.9688 478.9333,226.2969 Q477.8552,226.75 476.5583,226.75 Q475.0427,226.75 473.8395,226.125 Q472.8552,225.625 472.1677,224.5625 Q471.4802,223.4844 471.4802,222.2031 L471.4802,221.0469 Q471.4802,219.7188 472.0895,218.5781 Q472.7145,217.4219 473.8083,216.8125 Q474.902,216.1875 476.1364,216.1875 Q476.8708,216.1875 477.5114,216.3594 Q478.1677,216.5156 478.7145,216.875 Z "/><text fill="#000000" font-family="sans-serif" font-size="12" lengthAdjust="spacingAndGlyphs" textLength="101" x="494.6489" y="225.9102">AcceptorController</text><line style="stroke: #A80036; stroke-width: 1.5;" x1="440.7989" x2="618.7989" y1="237" y2="237"/><line style="stroke: #A80036; stroke-width: 1.5;" x1="440.7989" x2="618.7989" y1="245" y2="245"/><polygon fill="#4177AF" points="450.7989,252,446.7989,258,454.7989,258" style="stroke: #1963A0; stroke-width: 1.0;"/><text fill="#000000" font-family="sans-serif" font-size="11" lengthAdjust="spacingAndGlyphs" textLength="138" x="459.7989" y="260.4189">AcceptorController(Session)</text><ellipse cx="450.7989" cy="269.8359" fill="#84BE84" rx="3" ry="3" style="stroke: #038048; stroke-width: 1.0;"/><text fill="#000000" font-family="sans-serif" font-size="11" font-style="italic" lengthAdjust="spacingAndGlyphs" textLength="154" x="459.7989" y="274.2549">accept(ControllersVisitor): void</text><!--MD5=[957eef6538bab7382edbc29d98579a60]
class tictactoe.controllers.Controller--><rect fill="#FEFECE" filter="url(#f1m193fcwipz2d)" height="75.6719" id="tictactoe.controllers.Controller" style="stroke: #A80036; stroke-width: 1.5;" width="119" x="70.2989" y="55.5"/><ellipse cx="100.1489" cy="71.5" fill="#ADD1B2" rx="11" ry="11" style="stroke: #A80036; stroke-width: 1.0;"/><path d="M102.9145,67.375 Q103.0708,67.1563 103.2583,67.0469 Q103.4458,66.9375 103.6645,66.9375 Q104.0395,66.9375 104.2739,67.2031 Q104.5083,67.4531 104.5083,68.0625 L104.5083,69.5156 Q104.5083,70.125 104.2739,70.3906 Q104.0395,70.6563 103.6645,70.6563 Q103.3208,70.6563 103.1177,70.4531 Q102.9145,70.2656 102.8052,69.75 Q102.7583,69.3906 102.5708,69.2031 Q102.2427,68.8281 101.6333,68.6094 Q101.0239,68.3906 100.3989,68.3906 Q99.6333,68.3906 98.9927,68.7188 Q98.3677,69.0469 97.8677,69.7969 Q97.3833,70.5469 97.3833,71.5781 L97.3833,72.6719 Q97.3833,73.9063 98.2739,74.7344 Q99.1645,75.5469 100.7583,75.5469 Q101.6958,75.5469 102.352,75.2969 Q102.7427,75.1406 103.1645,74.7031 Q103.4302,74.4375 103.5708,74.3594 Q103.727,74.2813 103.9302,74.2813 Q104.2583,74.2813 104.5083,74.5469 Q104.7739,74.7969 104.7739,75.1406 Q104.7739,75.4844 104.4302,75.8906 Q103.9302,76.4688 103.1333,76.7969 Q102.0552,77.25 100.7583,77.25 Q99.2427,77.25 98.0395,76.625 Q97.0552,76.125 96.3677,75.0625 Q95.6802,73.9844 95.6802,72.7031 L95.6802,71.5469 Q95.6802,70.2188 96.2895,69.0781 Q96.9145,67.9219 98.0083,67.3125 Q99.102,66.6875 100.3364,66.6875 Q101.0708,66.6875 101.7114,66.8594 Q102.3677,67.0156 102.9145,67.375 Z "/><text fill="#000000" font-family="sans-serif" font-size="12" lengthAdjust="spacingAndGlyphs" textLength="54" x="117.4489" y="76.4102">Controller</text><line style="stroke: #A80036; stroke-width: 1.5;" x1="71.2989" x2="188.2989" y1="87.5" y2="87.5"/><polygon fill="none" points="81.2989,93.5,85.2989,97.5,81.2989,101.5,77.2989,97.5" style="stroke: #B38D22; stroke-width: 1.0;"/><text fill="#000000" font-family="sans-serif" font-size="11" lengthAdjust="spacingAndGlyphs" textLength="83" x="90.2989" y="102.9189">session: Session</text><line style="stroke: #A80036; stroke-width: 1.5;" x1="71.2989" x2="188.2989" y1="109.3359" y2="109.3359"/><polygon fill="#4177AF" points="81.2989,116.3359,77.2989,122.3359,85.2989,122.3359" style="stroke: #1963A0; stroke-width: 1.0;"/><text fill="#000000" font-family="sans-serif" font-size="11" lengthAdjust="spacingAndGlyphs" textLength="93" x="90.2989" y="124.7549">Controller(Session)</text><!--MD5=[cd4f094777041ea0b287ad7c5b510f06]
class tictactoe.controllers.ControllersVisitor--><rect fill="#FEFECE" filter="url(#f1m193fcwipz2d)" height="89.5078" id="tictactoe.controllers.ControllersVisitor" style="stroke: #A80036; stroke-width: 1.5;" width="155" x="395.2989" y="341"/><ellipse cx="423.3489" cy="357" fill="#B4A7E5" rx="11" ry="11" style="stroke: #A80036; stroke-width: 1.0;"/><path d="M424.302,353.6406 L424.302,360.2969 L426.0208,360.2969 Q426.6302,360.2969 426.8958,360.5313 Q427.1614,360.7656 427.1614,361.1563 Q427.1614,361.5313 426.8958,361.7656 Q426.6302,362 426.0208,362 L420.8802,362 Q420.2708,362 420.0052,361.7656 Q419.7395,361.5313 419.7395,361.1406 Q419.7395,360.7656 420.0052,360.5313 Q420.2708,360.2969 420.8802,360.2969 L422.5989,360.2969 L422.5989,353.6406 L420.8802,353.6406 Q420.2708,353.6406 420.0052,353.4063 Q419.7395,353.1719 419.7395,352.7813 Q419.7395,352.4063 420.0052,352.1719 Q420.2708,351.9375 420.8802,351.9375 L426.0208,351.9375 Q426.6302,351.9375 426.8958,352.1719 Q427.1614,352.4063 427.1614,352.7813 Q427.1614,353.1719 426.8958,353.4063 Q426.6302,353.6406 426.0208,353.6406 L424.302,353.6406 Z "/><text fill="#000000" font-family="sans-serif" font-size="12" font-style="italic" lengthAdjust="spacingAndGlyphs" textLength="94" x="440.2489" y="361.9102">ControllersVisitor</text><line style="stroke: #A80036; stroke-width: 1.5;" x1="396.2989" x2="549.2989" y1="373" y2="373"/><line style="stroke: #A80036; stroke-width: 1.5;" x1="396.2989" x2="549.2989" y1="381" y2="381"/><polygon fill="#4177AF" points="406.2989,388,402.2989,394,410.2989,394" style="stroke: #1963A0; stroke-width: 1.0;"/><text fill="#000000" font-family="sans-serif" font-size="11" lengthAdjust="spacingAndGlyphs" textLength="122" x="415.2989" y="396.4189">visit(StartController): void</text><polygon fill="#4177AF" points="406.2989,401.8359,402.2989,407.8359,410.2989,407.8359" style="stroke: #1963A0; stroke-width: 1.0;"/><text fill="#000000" font-family="sans-serif" font-size="11" lengthAdjust="spacingAndGlyphs" textLength="119" x="415.2989" y="410.2549">visit(PlayController): void</text><polygon fill="#4177AF" points="406.2989,415.6719,402.2989,421.6719,410.2989,421.6719" style="stroke: #1963A0; stroke-width: 1.0;"/><text fill="#000000" font-family="sans-serif" font-size="11" lengthAdjust="spacingAndGlyphs" textLength="129" x="415.2989" y="424.0908">visit(ResultController): void</text><!--MD5=[2c3ef77d19c2424f55dfd6db4f13e20e]
class tictactoe.controllers.ResultController--><rect fill="#FEFECE" filter="url(#f1m193fcwipz2d)" height="103.3438" id="tictactoe.controllers.ResultController" style="stroke: #A80036; stroke-width: 1.5;" width="176" x="498.7989" y="622.5"/><ellipse cx="538.0989" cy="638.5" fill="#ADD1B2" rx="11" ry="11" style="stroke: #A80036; stroke-width: 1.0;"/><path d="M540.8645,634.375 Q541.0208,634.1563 541.2083,634.0469 Q541.3958,633.9375 541.6145,633.9375 Q541.9895,633.9375 542.2239,634.2031 Q542.4583,634.4531 542.4583,635.0625 L542.4583,636.5156 Q542.4583,637.125 542.2239,637.3906 Q541.9895,637.6563 541.6145,637.6563 Q541.2708,637.6563 541.0677,637.4531 Q540.8645,637.2656 540.7552,636.75 Q540.7083,636.3906 540.5208,636.2031 Q540.1927,635.8281 539.5833,635.6094 Q538.9739,635.3906 538.3489,635.3906 Q537.5833,635.3906 536.9427,635.7188 Q536.3177,636.0469 535.8177,636.7969 Q535.3333,637.5469 535.3333,638.5781 L535.3333,639.6719 Q535.3333,640.9063 536.2239,641.7344 Q537.1145,642.5469 538.7083,642.5469 Q539.6458,642.5469 540.302,642.2969 Q540.6927,642.1406 541.1145,641.7031 Q541.3802,641.4375 541.5208,641.3594 Q541.677,641.2813 541.8802,641.2813 Q542.2083,641.2813 542.4583,641.5469 Q542.7239,641.7969 542.7239,642.1406 Q542.7239,642.4844 542.3802,642.8906 Q541.8802,643.4688 541.0833,643.7969 Q540.0052,644.25 538.7083,644.25 Q537.1927,644.25 535.9895,643.625 Q535.0052,643.125 534.3177,642.0625 Q533.6302,640.9844 533.6302,639.7031 L533.6302,638.5469 Q533.6302,637.2188 534.2395,636.0781 Q534.8645,634.9219 535.9583,634.3125 Q537.052,633.6875 538.2864,633.6875 Q539.0208,633.6875 539.6614,633.8594 Q540.3177,634.0156 540.8645,634.375 Z "/><text fill="#000000" font-family="sans-serif" font-size="12" lengthAdjust="spacingAndGlyphs" textLength="90" x="557.4989" y="643.4102">ResultController</text><line style="stroke: #A80036; stroke-width: 1.5;" x1="499.7989" x2="673.7989" y1="654.5" y2="654.5"/><line style="stroke: #A80036; stroke-width: 1.5;" x1="499.7989" x2="673.7989" y1="662.5" y2="662.5"/><ellipse cx="509.7989" cy="673.5" fill="#84BE84" rx="3" ry="3" style="stroke: #038048; stroke-width: 1.0;"/><text fill="#000000" font-family="sans-serif" font-size="11" lengthAdjust="spacingAndGlyphs" textLength="123" x="518.7989" y="677.9189">ResultController(Session)</text><ellipse cx="509.7989" cy="687.3359" fill="#84BE84" rx="3" ry="3" style="stroke: #038048; stroke-width: 1.0;"/><text fill="#000000" font-family="sans-serif" font-size="11" lengthAdjust="spacingAndGlyphs" textLength="60" x="518.7989" y="691.7549">finish(): void</text><ellipse cx="509.7989" cy="701.1719" fill="#84BE84" rx="3" ry="3" style="stroke: #038048; stroke-width: 1.0;"/><text fill="#000000" font-family="sans-serif" font-size="11" lengthAdjust="spacingAndGlyphs" textLength="141" x="518.7989" y="705.5908">getOtherValueFromTurn(): int</text><ellipse cx="509.7989" cy="715.0078" fill="#84BE84" rx="3" ry="3" style="stroke: #038048; stroke-width: 1.0;"/><text fill="#000000" font-family="sans-serif" font-size="11" lengthAdjust="spacingAndGlyphs" textLength="150" x="518.7989" y="719.4268">accept(ControllersVisitor): void</text><!--MD5=[8ede4dbfb3b498095887802b64b699f0]
class tictactoe.controllers.StartController--><rect fill="#FEFECE" filter="url(#f1m193fcwipz2d)" height="103.3438" id="tictactoe.controllers.StartController" style="stroke: #A80036; stroke-width: 1.5;" width="176" x="709.7989" y="622.5"/><ellipse cx="754.0489" cy="638.5" fill="#ADD1B2" rx="11" ry="11" style="stroke: #A80036; stroke-width: 1.0;"/><path d="M756.8145,634.375 Q756.9708,634.1563 757.1583,634.0469 Q757.3458,633.9375 757.5645,633.9375 Q757.9395,633.9375 758.1739,634.2031 Q758.4083,634.4531 758.4083,635.0625 L758.4083,636.5156 Q758.4083,637.125 758.1739,637.3906 Q757.9395,637.6563 757.5645,637.6563 Q757.2208,637.6563 757.0177,637.4531 Q756.8145,637.2656 756.7052,636.75 Q756.6583,636.3906 756.4708,636.2031 Q756.1427,635.8281 755.5333,635.6094 Q754.9239,635.3906 754.2989,635.3906 Q753.5333,635.3906 752.8927,635.7188 Q752.2677,636.0469 751.7677,636.7969 Q751.2833,637.5469 751.2833,638.5781 L751.2833,639.6719 Q751.2833,640.9063 752.1739,641.7344 Q753.0645,642.5469 754.6583,642.5469 Q755.5958,642.5469 756.252,642.2969 Q756.6427,642.1406 757.0645,641.7031 Q757.3302,641.4375 757.4708,641.3594 Q757.627,641.2813 757.8302,641.2813 Q758.1583,641.2813 758.4083,641.5469 Q758.6739,641.7969 758.6739,642.1406 Q758.6739,642.4844 758.3302,642.8906 Q757.8302,643.4688 757.0333,643.7969 Q755.9552,644.25 754.6583,644.25 Q753.1427,644.25 751.9395,643.625 Q750.9552,643.125 750.2677,642.0625 Q749.5802,640.9844 749.5802,639.7031 L749.5802,638.5469 Q749.5802,637.2188 750.1895,636.0781 Q750.8145,634.9219 751.9083,634.3125 Q753.002,633.6875 754.2364,633.6875 Q754.9708,633.6875 755.6114,633.8594 Q756.2677,634.0156 756.8145,634.375 Z "/><text fill="#000000" font-family="sans-serif" font-size="12" lengthAdjust="spacingAndGlyphs" textLength="79" x="774.5489" y="643.4102">StartController</text><line style="stroke: #A80036; stroke-width: 1.5;" x1="710.7989" x2="884.7989" y1="654.5" y2="654.5"/><line style="stroke: #A80036; stroke-width: 1.5;" x1="710.7989" x2="884.7989" y1="662.5" y2="662.5"/><ellipse cx="720.7989" cy="673.5" fill="#84BE84" rx="3" ry="3" style="stroke: #038048; stroke-width: 1.0;"/><text fill="#000000" font-family="sans-serif" font-size="11" lengthAdjust="spacingAndGlyphs" textLength="116" x="729.7989" y="677.9189">StartController(Session)</text><ellipse cx="720.7989" cy="687.3359" fill="#84BE84" rx="3" ry="3" style="stroke: #038048; stroke-width: 1.0;"/><text fill="#000000" font-family="sans-serif" font-size="11" lengthAdjust="spacingAndGlyphs" textLength="56" x="729.7989" y="691.7549">start(): void</text><ellipse cx="720.7989" cy="701.1719" fill="#84BE84" rx="3" ry="3" style="stroke: #038048; stroke-width: 1.0;"/><text fill="#000000" font-family="sans-serif" font-size="11" lengthAdjust="spacingAndGlyphs" textLength="112" x="729.7989" y="705.5908">createPlayers(int): void</text><ellipse cx="720.7989" cy="715.0078" fill="#84BE84" rx="3" ry="3" style="stroke: #038048; stroke-width: 1.0;"/><text fill="#000000" font-family="sans-serif" font-size="11" lengthAdjust="spacingAndGlyphs" textLength="150" x="729.7989" y="719.4268">accept(ControllersVisitor): void</text><!--MD5=[b574e60c06c50037ff1b014277a67d62]
class tictactoe.controllers.PlayController--><rect fill="#FEFECE" filter="url(#f1m193fcwipz2d)" height="366.2266" id="tictactoe.controllers.PlayController" style="stroke: #A80036; stroke-width: 1.5;" width="298" x="165.7989" y="491"/><ellipse cx="272.0489" cy="507" fill="#ADD1B2" rx="11" ry="11" style="stroke: #A80036; stroke-width: 1.0;"/><path d="M274.8145,502.875 Q274.9708,502.6563 275.1583,502.5469 Q275.3458,502.4375 275.5645,502.4375 Q275.9395,502.4375 276.1739,502.7031 Q276.4083,502.9531 276.4083,503.5625 L276.4083,505.0156 Q276.4083,505.625 276.1739,505.8906 Q275.9395,506.1563 275.5645,506.1563 Q275.2208,506.1563 275.0177,505.9531 Q274.8145,505.7656 274.7052,505.25 Q274.6583,504.8906 274.4708,504.7031 Q274.1427,504.3281 273.5333,504.1094 Q272.9239,503.8906 272.2989,503.8906 Q271.5333,503.8906 270.8927,504.2188 Q270.2677,504.5469 269.7677,505.2969 Q269.2833,506.0469 269.2833,507.0781 L269.2833,508.1719 Q269.2833,509.4063 270.1739,510.2344 Q271.0645,511.0469 272.6583,511.0469 Q273.5958,511.0469 274.252,510.7969 Q274.6427,510.6406 275.0645,510.2031 Q275.3302,509.9375 275.4708,509.8594 Q275.627,509.7813 275.8302,509.7813 Q276.1583,509.7813 276.4083,510.0469 Q276.6739,510.2969 276.6739,510.6406 Q276.6739,510.9844 276.3302,511.3906 Q275.8302,511.9688 275.0333,512.2969 Q273.9552,512.75 272.6583,512.75 Q271.1427,512.75 269.9395,512.125 Q268.9552,511.625 268.2677,510.5625 Q267.5802,509.4844 267.5802,508.2031 L267.5802,507.0469 Q267.5802,505.7188 268.1895,504.5781 Q268.8145,503.4219 269.9083,502.8125 Q271.002,502.1875 272.2364,502.1875 Q272.9708,502.1875 273.6114,502.3594 Q274.2677,502.5156 274.8145,502.875 Z "/><text fill="#000000" font-family="sans-serif" font-size="12" lengthAdjust="spacingAndGlyphs" textLength="77" x="292.5489" y="511.9102">PlayController</text><line style="stroke: #A80036; stroke-width: 1.5;" x1="166.7989" x2="462.7989" y1="523" y2="523"/><rect fill="none" height="6" style="stroke: #C82930; stroke-width: 1.0;" width="6" x="173.7989" y="531"/><text fill="#000000" font-family="sans-serif" font-size="11" lengthAdjust="spacingAndGlyphs" textLength="196" x="185.7989" y="538.4189">movementController: MovementController</text><rect fill="none" height="6" style="stroke: #C82930; stroke-width: 1.0;" width="6" x="173.7989" y="544.8359"/><text fill="#000000" font-family="sans-serif" font-size="11" lengthAdjust="spacingAndGlyphs" textLength="147" x="185.7989" y="552.2549">undoController: UndoController</text><rect fill="none" height="6" style="stroke: #C82930; stroke-width: 1.0;" width="6" x="173.7989" y="558.6719"/><text fill="#000000" font-family="sans-serif" font-size="11" lengthAdjust="spacingAndGlyphs" textLength="145" x="185.7989" y="566.0908">redoController: RedoController</text><line style="stroke: #A80036; stroke-width: 1.5;" x1="166.7989" x2="462.7989" y1="572.5078" y2="572.5078"/><ellipse cx="176.7989" cy="583.5078" fill="#84BE84" rx="3" ry="3" style="stroke: #038048; stroke-width: 1.0;"/><text fill="#000000" font-family="sans-serif" font-size="11" lengthAdjust="spacingAndGlyphs" textLength="113" x="185.7989" y="587.9268">PlayController(Session)</text><ellipse cx="176.7989" cy="597.3438" fill="#84BE84" rx="3" ry="3" style="stroke: #038048; stroke-width: 1.0;"/><text fill="#000000" font-family="sans-serif" font-size="11" lengthAdjust="spacingAndGlyphs" textLength="58" x="185.7989" y="601.7627">undo(): void</text><ellipse cx="176.7989" cy="611.1797" fill="#84BE84" rx="3" ry="3" style="stroke: #038048; stroke-width: 1.0;"/><text fill="#000000" font-family="sans-serif" font-size="11" lengthAdjust="spacingAndGlyphs" textLength="56" x="185.7989" y="615.5986">redo(): void</text><ellipse cx="176.7989" cy="625.0156" fill="#84BE84" rx="3" ry="3" style="stroke: #038048; stroke-width: 1.0;"/><text fill="#000000" font-family="sans-serif" font-size="11" lengthAdjust="spacingAndGlyphs" textLength="96" x="185.7989" y="629.4346">undoable(): boolean</text><ellipse cx="176.7989" cy="638.8516" fill="#84BE84" rx="3" ry="3" style="stroke: #038048; stroke-width: 1.0;"/><text fill="#000000" font-family="sans-serif" font-size="11" lengthAdjust="spacingAndGlyphs" textLength="94" x="185.7989" y="643.2705">redoable(): boolean</text><ellipse cx="176.7989" cy="652.6875" fill="#84BE84" rx="3" ry="3" style="stroke: #038048; stroke-width: 1.0;"/><text fill="#000000" font-family="sans-serif" font-size="11" lengthAdjust="spacingAndGlyphs" textLength="224" x="185.7989" y="657.1064">getTypeOfTokenPlayerFromTurn(): PlayerType</text><ellipse cx="176.7989" cy="666.5234" fill="#84BE84" rx="3" ry="3" style="stroke: #038048; stroke-width: 1.0;"/><text fill="#000000" font-family="sans-serif" font-size="11" lengthAdjust="spacingAndGlyphs" textLength="196" x="185.7989" y="670.9424">controlErrorsPutCoordinate(int, int): Error</text><ellipse cx="176.7989" cy="680.3594" fill="#84BE84" rx="3" ry="3" style="stroke: #038048; stroke-width: 1.0;"/><text fill="#000000" font-family="sans-serif" font-size="11" lengthAdjust="spacingAndGlyphs" textLength="235" x="185.7989" y="684.7783">controlErrorsMoveOriginCoordinate(int, int): Error</text><ellipse cx="176.7989" cy="694.1953" fill="#84BE84" rx="3" ry="3" style="stroke: #038048; stroke-width: 1.0;"/><text fill="#000000" font-family="sans-serif" font-size="11" lengthAdjust="spacingAndGlyphs" textLength="272" x="185.7989" y="698.6143">controlErrorsMoveTargetCoordinate(int, int, int, int): Error</text><ellipse cx="176.7989" cy="708.0313" fill="#84BE84" rx="3" ry="3" style="stroke: #038048; stroke-width: 1.0;"/><text fill="#000000" font-family="sans-serif" font-size="11" lengthAdjust="spacingAndGlyphs" textLength="164" x="185.7989" y="712.4502">isCoordinateValid(int, int): boolean</text><ellipse cx="176.7989" cy="721.8672" fill="#84BE84" rx="3" ry="3" style="stroke: #038048; stroke-width: 1.0;"/><text fill="#000000" font-family="sans-serif" font-size="11" lengthAdjust="spacingAndGlyphs" textLength="165" x="185.7989" y="726.2861">generateRandomCoordinate(): int[]</text><ellipse cx="176.7989" cy="735.7031" fill="#84BE84" rx="3" ry="3" style="stroke: #038048; stroke-width: 1.0;"/><text fill="#000000" font-family="sans-serif" font-size="11" lengthAdjust="spacingAndGlyphs" textLength="133" x="185.7989" y="740.1221">isBoardComplete(): boolean</text><ellipse cx="176.7989" cy="749.5391" fill="#84BE84" rx="3" ry="3" style="stroke: #038048; stroke-width: 1.0;"/><text fill="#000000" font-family="sans-serif" font-size="11" lengthAdjust="spacingAndGlyphs" textLength="182" x="185.7989" y="753.958">putTokenPlayerFromTurn(int, int): void</text><ellipse cx="176.7989" cy="763.375" fill="#84BE84" rx="3" ry="3" style="stroke: #038048; stroke-width: 1.0;"/><text fill="#000000" font-family="sans-serif" font-size="11" lengthAdjust="spacingAndGlyphs" textLength="227" x="185.7989" y="767.7939">moveTokenPlayerFromTurn(int, int, int, int): void</text><ellipse cx="176.7989" cy="777.2109" fill="#84BE84" rx="3" ry="3" style="stroke: #038048; stroke-width: 1.0;"/><text fill="#000000" font-family="sans-serif" font-size="11" lengthAdjust="spacingAndGlyphs" textLength="92" x="185.7989" y="781.6299">changeTurn(): void</text><ellipse cx="176.7989" cy="791.0469" fill="#84BE84" rx="3" ry="3" style="stroke: #038048; stroke-width: 1.0;"/><text fill="#000000" font-family="sans-serif" font-size="11" lengthAdjust="spacingAndGlyphs" textLength="131" x="185.7989" y="795.4658">getTokenChar(int, int): char</text><ellipse cx="176.7989" cy="804.8828" fill="#84BE84" rx="3" ry="3" style="stroke: #038048; stroke-width: 1.0;"/><text fill="#000000" font-family="sans-serif" font-size="11" lengthAdjust="spacingAndGlyphs" textLength="146" x="185.7989" y="809.3018">isEmptyToken(int, int): boolean</text><ellipse cx="176.7989" cy="818.7188" fill="#84BE84" rx="3" ry="3" style="stroke: #038048; stroke-width: 1.0;"/><text fill="#000000" font-family="sans-serif" font-size="11" lengthAdjust="spacingAndGlyphs" textLength="141" x="185.7989" y="823.1377">getCoordinateDimension(): int</text><ellipse cx="176.7989" cy="832.5547" fill="#84BE84" rx="3" ry="3" style="stroke: #038048; stroke-width: 1.0;"/><text fill="#000000" font-family="sans-serif" font-size="11" lengthAdjust="spacingAndGlyphs" textLength="110" x="185.7989" y="836.9736">isTicTacToe(): boolean</text><ellipse cx="176.7989" cy="846.3906" fill="#84BE84" rx="3" ry="3" style="stroke: #038048; stroke-width: 1.0;"/><text fill="#000000" font-family="sans-serif" font-size="11" lengthAdjust="spacingAndGlyphs" textLength="150" x="185.7989" y="850.8096">accept(ControllersVisitor): void</text><!--MD5=[3b8962fd5847b9038b2e29740dae8054]
class tictactoe.controllers.Logic--><rect fill="#FEFECE" filter="url(#f1m193fcwipz2d)" height="103.3438" id="tictactoe.controllers.Logic" style="stroke: #A80036; stroke-width: 1.5;" width="309" x="576.2989" y="42"/><ellipse cx="711.5489" cy="58" fill="#ADD1B2" rx="11" ry="11" style="stroke: #A80036; stroke-width: 1.0;"/><path d="M714.3145,53.875 Q714.4708,53.6563 714.6583,53.5469 Q714.8458,53.4375 715.0645,53.4375 Q715.4395,53.4375 715.6739,53.7031 Q715.9083,53.9531 715.9083,54.5625 L715.9083,56.0156 Q715.9083,56.625 715.6739,56.8906 Q715.4395,57.1563 715.0645,57.1563 Q714.7208,57.1563 714.5177,56.9531 Q714.3145,56.7656 714.2052,56.25 Q714.1583,55.8906 713.9708,55.7031 Q713.6427,55.3281 713.0333,55.1094 Q712.4239,54.8906 711.7989,54.8906 Q711.0333,54.8906 710.3927,55.2188 Q709.7677,55.5469 709.2677,56.2969 Q708.7833,57.0469 708.7833,58.0781 L708.7833,59.1719 Q708.7833,60.4063 709.6739,61.2344 Q710.5645,62.0469 712.1583,62.0469 Q713.0958,62.0469 713.752,61.7969 Q714.1427,61.6406 714.5645,61.2031 Q714.8302,60.9375 714.9708,60.8594 Q715.127,60.7813 715.3302,60.7813 Q715.6583,60.7813 715.9083,61.0469 Q716.1739,61.2969 716.1739,61.6406 Q716.1739,61.9844 715.8302,62.3906 Q715.3302,62.9688 714.5333,63.2969 Q713.4552,63.75 712.1583,63.75 Q710.6427,63.75 709.4395,63.125 Q708.4552,62.625 707.7677,61.5625 Q707.0802,60.4844 707.0802,59.2031 L707.0802,58.0469 Q707.0802,56.7188 707.6895,55.5781 Q708.3145,54.4219 709.4083,53.8125 Q710.502,53.1875 711.7364,53.1875 Q712.4708,53.1875 713.1114,53.3594 Q713.7677,53.5156 714.3145,53.875 Z "/><text fill="#000000" font-family="sans-serif" font-size="12" lengthAdjust="spacingAndGlyphs" textLength="30" x="732.0489" y="62.9102">Logic</text><line style="stroke: #A80036; stroke-width: 1.5;" x1="577.2989" x2="884.2989" y1="74" y2="74"/><rect fill="none" height="6" style="stroke: #C82930; stroke-width: 1.0;" width="6" x="584.2989" y="82"/><text fill="#000000" font-family="sans-serif" font-size="11" lengthAdjust="spacingAndGlyphs" textLength="83" x="596.2989" y="89.4189">session: Session</text><rect fill="none" height="6" style="stroke: #C82930; stroke-width: 1.0;" width="6" x="584.2989" y="95.8359"/><text fill="#000000" font-family="sans-serif" font-size="11" lengthAdjust="spacingAndGlyphs" textLength="283" x="596.2989" y="103.2549">acceptorControllers: Map&lt;StateValue, AcceptorController&gt;</text><line style="stroke: #A80036; stroke-width: 1.5;" x1="577.2989" x2="884.2989" y1="109.6719" y2="109.6719"/><ellipse cx="587.2989" cy="120.6719" fill="#84BE84" rx="3" ry="3" style="stroke: #038048; stroke-width: 1.0;"/><text fill="#000000" font-family="sans-serif" font-size="11" lengthAdjust="spacingAndGlyphs" textLength="34" x="596.2989" y="125.0908">Logic()</text><ellipse cx="587.2989" cy="134.5078" fill="#84BE84" rx="3" ry="3" style="stroke: #038048; stroke-width: 1.0;"/><text fill="#000000" font-family="sans-serif" font-size="11" lengthAdjust="spacingAndGlyphs" textLength="166" x="596.2989" y="138.9268">getController(): AcceptorController</text><!--MD5=[24677159852abec703b2234099a98eae]
class tictactoe.controllers.MovementController--><rect fill="#FEFECE" filter="url(#f1m193fcwipz2d)" height="255.5391" id="tictactoe.controllers.MovementController" style="stroke: #A80036; stroke-width: 1.5;" width="298" x="412.7989" y="917"/><ellipse cx="502.5489" cy="933" fill="#ADD1B2" rx="11" ry="11" style="stroke: #A80036; stroke-width: 1.0;"/><path d="M505.3145,928.875 Q505.4708,928.6563 505.6583,928.5469 Q505.8458,928.4375 506.0645,928.4375 Q506.4395,928.4375 506.6739,928.7031 Q506.9083,928.9531 506.9083,929.5625 L506.9083,931.0156 Q506.9083,931.625 506.6739,931.8906 Q506.4395,932.1563 506.0645,932.1563 Q505.7208,932.1563 505.5177,931.9531 Q505.3145,931.7656 505.2052,931.25 Q505.1583,930.8906 504.9708,930.7031 Q504.6427,930.3281 504.0333,930.1094 Q503.4239,929.8906 502.7989,929.8906 Q502.0333,929.8906 501.3927,930.2188 Q500.7677,930.5469 500.2677,931.2969 Q499.7833,932.0469 499.7833,933.0781 L499.7833,934.1719 Q499.7833,935.4063 500.6739,936.2344 Q501.5645,937.0469 503.1583,937.0469 Q504.0958,937.0469 504.752,936.7969 Q505.1427,936.6406 505.5645,936.2031 Q505.8302,935.9375 505.9708,935.8594 Q506.127,935.7813 506.3302,935.7813 Q506.6583,935.7813 506.9083,936.0469 Q507.1739,936.2969 507.1739,936.6406 Q507.1739,936.9844 506.8302,937.3906 Q506.3302,937.9688 505.5333,938.2969 Q504.4552,938.75 503.1583,938.75 Q501.6427,938.75 500.4395,938.125 Q499.4552,937.625 498.7677,936.5625 Q498.0802,935.4844 498.0802,934.2031 L498.0802,933.0469 Q498.0802,931.7188 498.6895,930.5781 Q499.3145,929.4219 500.4083,928.8125 Q501.502,928.1875 502.7364,928.1875 Q503.4708,928.1875 504.1114,928.3594 Q504.7677,928.5156 505.3145,928.875 Z "/><text fill="#000000" font-family="sans-serif" font-size="12" lengthAdjust="spacingAndGlyphs" textLength="110" x="523.0489" y="937.9102">MovementController</text><line style="stroke: #A80036; stroke-width: 1.5;" x1="413.7989" x2="709.7989" y1="949" y2="949"/><line style="stroke: #A80036; stroke-width: 1.5;" x1="413.7989" x2="709.7989" y1="957" y2="957"/><ellipse cx="423.7989" cy="968" fill="#84BE84" rx="3" ry="3" style="stroke: #038048; stroke-width: 1.0;"/><text fill="#000000" font-family="sans-serif" font-size="11" lengthAdjust="spacingAndGlyphs" textLength="142" x="432.7989" y="972.4189">MovementController(Session)</text><ellipse cx="423.7989" cy="981.8359" fill="#84BE84" rx="3" ry="3" style="stroke: #038048; stroke-width: 1.0;"/><text fill="#000000" font-family="sans-serif" font-size="11" lengthAdjust="spacingAndGlyphs" textLength="224" x="432.7989" y="986.2549">getTypeOfTokenPlayerFromTurn(): PlayerType</text><ellipse cx="423.7989" cy="995.6719" fill="#84BE84" rx="3" ry="3" style="stroke: #038048; stroke-width: 1.0;"/><text fill="#000000" font-family="sans-serif" font-size="11" lengthAdjust="spacingAndGlyphs" textLength="196" x="432.7989" y="1000.0908">controlErrorsPutCoordinate(int, int): Error</text><ellipse cx="423.7989" cy="1009.5078" fill="#84BE84" rx="3" ry="3" style="stroke: #038048; stroke-width: 1.0;"/><text fill="#000000" font-family="sans-serif" font-size="11" lengthAdjust="spacingAndGlyphs" textLength="235" x="432.7989" y="1013.9268">controlErrorsMoveOriginCoordinate(int, int): Error</text><ellipse cx="423.7989" cy="1023.3438" fill="#84BE84" rx="3" ry="3" style="stroke: #038048; stroke-width: 1.0;"/><text fill="#000000" font-family="sans-serif" font-size="11" lengthAdjust="spacingAndGlyphs" textLength="272" x="432.7989" y="1027.7627">controlErrorsMoveTargetCoordinate(int, int, int, int): Error</text><ellipse cx="423.7989" cy="1037.1797" fill="#84BE84" rx="3" ry="3" style="stroke: #038048; stroke-width: 1.0;"/><text fill="#000000" font-family="sans-serif" font-size="11" lengthAdjust="spacingAndGlyphs" textLength="164" x="432.7989" y="1041.5986">isCoordinateValid(int, int): boolean</text><ellipse cx="423.7989" cy="1051.0156" fill="#84BE84" rx="3" ry="3" style="stroke: #038048; stroke-width: 1.0;"/><text fill="#000000" font-family="sans-serif" font-size="11" lengthAdjust="spacingAndGlyphs" textLength="165" x="432.7989" y="1055.4346">generateRandomCoordinate(): int[]</text><ellipse cx="423.7989" cy="1064.8516" fill="#84BE84" rx="3" ry="3" style="stroke: #038048; stroke-width: 1.0;"/><text fill="#000000" font-family="sans-serif" font-size="11" lengthAdjust="spacingAndGlyphs" textLength="133" x="432.7989" y="1069.2705">isBoardComplete(): boolean</text><ellipse cx="423.7989" cy="1078.6875" fill="#84BE84" rx="3" ry="3" style="stroke: #038048; stroke-width: 1.0;"/><text fill="#000000" font-family="sans-serif" font-size="11" lengthAdjust="spacingAndGlyphs" textLength="182" x="432.7989" y="1083.1064">putTokenPlayerFromTurn(int, int): void</text><ellipse cx="423.7989" cy="1092.5234" fill="#84BE84" rx="3" ry="3" style="stroke: #038048; stroke-width: 1.0;"/><text fill="#000000" font-family="sans-serif" font-size="11" lengthAdjust="spacingAndGlyphs" textLength="227" x="432.7989" y="1096.9424">moveTokenPlayerFromTurn(int, int, int, int): void</text><ellipse cx="423.7989" cy="1106.3594" fill="#84BE84" rx="3" ry="3" style="stroke: #038048; stroke-width: 1.0;"/><text fill="#000000" font-family="sans-serif" font-size="11" lengthAdjust="spacingAndGlyphs" textLength="92" x="432.7989" y="1110.7783">changeTurn(): void</text><ellipse cx="423.7989" cy="1120.1953" fill="#84BE84" rx="3" ry="3" style="stroke: #038048; stroke-width: 1.0;"/><text fill="#000000" font-family="sans-serif" font-size="11" lengthAdjust="spacingAndGlyphs" textLength="131" x="432.7989" y="1124.6143">getTokenChar(int, int): char</text><ellipse cx="423.7989" cy="1134.0313" fill="#84BE84" rx="3" ry="3" style="stroke: #038048; stroke-width: 1.0;"/><text fill="#000000" font-family="sans-serif" font-size="11" lengthAdjust="spacingAndGlyphs" textLength="146" x="432.7989" y="1138.4502">isEmptyToken(int, int): boolean</text><ellipse cx="423.7989" cy="1147.8672" fill="#84BE84" rx="3" ry="3" style="stroke: #038048; stroke-width: 1.0;"/><text fill="#000000" font-family="sans-serif" font-size="11" lengthAdjust="spacingAndGlyphs" textLength="141" x="432.7989" y="1152.2861">getCoordinateDimension(): int</text><ellipse cx="423.7989" cy="1161.7031" fill="#84BE84" rx="3" ry="3" style="stroke: #038048; stroke-width: 1.0;"/><text fill="#000000" font-family="sans-serif" font-size="11" lengthAdjust="spacingAndGlyphs" textLength="110" x="432.7989" y="1166.1221">isTicTacToe(): boolean</text><!--MD5=[1f5f35d7f9326073e91e7944d692e6ef]
class tictactoe.controllers.UndoController--><rect fill="#FEFECE" filter="url(#f1m193fcwipz2d)" height="89.5078" id="tictactoe.controllers.UndoController" style="stroke: #A80036; stroke-width: 1.5;" width="144" x="54.7989" y="1000"/><ellipse cx="82.3989" cy="1016" fill="#ADD1B2" rx="11" ry="11" style="stroke: #A80036; stroke-width: 1.0;"/><path d="M85.1645,1011.875 Q85.3208,1011.6563 85.5083,1011.5469 Q85.6958,1011.4375 85.9145,1011.4375 Q86.2895,1011.4375 86.5239,1011.7031 Q86.7583,1011.9531 86.7583,1012.5625 L86.7583,1014.0156 Q86.7583,1014.625 86.5239,1014.8906 Q86.2895,1015.1563 85.9145,1015.1563 Q85.5708,1015.1563 85.3677,1014.9531 Q85.1645,1014.7656 85.0552,1014.25 Q85.0083,1013.8906 84.8208,1013.7031 Q84.4927,1013.3281 83.8833,1013.1094 Q83.2739,1012.8906 82.6489,1012.8906 Q81.8833,1012.8906 81.2427,1013.2188 Q80.6177,1013.5469 80.1177,1014.2969 Q79.6333,1015.0469 79.6333,1016.0781 L79.6333,1017.1719 Q79.6333,1018.4063 80.5239,1019.2344 Q81.4145,1020.0469 83.0083,1020.0469 Q83.9458,1020.0469 84.602,1019.7969 Q84.9927,1019.6406 85.4145,1019.2031 Q85.6802,1018.9375 85.8208,1018.8594 Q85.977,1018.7813 86.1802,1018.7813 Q86.5083,1018.7813 86.7583,1019.0469 Q87.0239,1019.2969 87.0239,1019.6406 Q87.0239,1019.9844 86.6802,1020.3906 Q86.1802,1020.9688 85.3833,1021.2969 Q84.3052,1021.75 83.0083,1021.75 Q81.4927,1021.75 80.2895,1021.125 Q79.3052,1020.625 78.6177,1019.5625 Q77.9302,1018.4844 77.9302,1017.2031 L77.9302,1016.0469 Q77.9302,1014.7188 78.5395,1013.5781 Q79.1645,1012.4219 80.2583,1011.8125 Q81.352,1011.1875 82.5864,1011.1875 Q83.3208,1011.1875 83.9614,1011.3594 Q84.6177,1011.5156 85.1645,1011.875 Z "/><text fill="#000000" font-family="sans-serif" font-size="12" lengthAdjust="spacingAndGlyphs" textLength="84" x="99.1989" y="1020.9102">UndoController</text><line style="stroke: #A80036; stroke-width: 1.5;" x1="55.7989" x2="197.7989" y1="1032" y2="1032"/><line style="stroke: #A80036; stroke-width: 1.5;" x1="55.7989" x2="197.7989" y1="1040" y2="1040"/><ellipse cx="65.7989" cy="1051" fill="#84BE84" rx="3" ry="3" style="stroke: #038048; stroke-width: 1.0;"/><text fill="#000000" font-family="sans-serif" font-size="11" lengthAdjust="spacingAndGlyphs" textLength="118" x="74.7989" y="1055.4189">UndoController(Session)</text><ellipse cx="65.7989" cy="1064.8359" fill="#84BE84" rx="3" ry="3" style="stroke: #038048; stroke-width: 1.0;"/><text fill="#000000" font-family="sans-serif" font-size="11" lengthAdjust="spacingAndGlyphs" textLength="58" x="74.7989" y="1069.2549">undo(): void</text><ellipse cx="65.7989" cy="1078.6719" fill="#84BE84" rx="3" ry="3" style="stroke: #038048; stroke-width: 1.0;"/><text fill="#000000" font-family="sans-serif" font-size="11" lengthAdjust="spacingAndGlyphs" textLength="96" x="74.7989" y="1083.0908">undoable(): boolean</text><!--MD5=[1bd008d284a521cfc942b8fbe0753cf3]
class tictactoe.controllers.RedoController--><rect fill="#FEFECE" filter="url(#f1m193fcwipz2d)" height="89.5078" id="tictactoe.controllers.RedoController" style="stroke: #A80036; stroke-width: 1.5;" width="144" x="233.7989" y="1000"/><ellipse cx="261.3989" cy="1016" fill="#ADD1B2" rx="11" ry="11" style="stroke: #A80036; stroke-width: 1.0;"/><path d="M264.1645,1011.875 Q264.3208,1011.6563 264.5083,1011.5469 Q264.6958,1011.4375 264.9145,1011.4375 Q265.2895,1011.4375 265.5239,1011.7031 Q265.7583,1011.9531 265.7583,1012.5625 L265.7583,1014.0156 Q265.7583,1014.625 265.5239,1014.8906 Q265.2895,1015.1563 264.9145,1015.1563 Q264.5708,1015.1563 264.3677,1014.9531 Q264.1645,1014.7656 264.0552,1014.25 Q264.0083,1013.8906 263.8208,1013.7031 Q263.4927,1013.3281 262.8833,1013.1094 Q262.2739,1012.8906 261.6489,1012.8906 Q260.8833,1012.8906 260.2427,1013.2188 Q259.6177,1013.5469 259.1177,1014.2969 Q258.6333,1015.0469 258.6333,1016.0781 L258.6333,1017.1719 Q258.6333,1018.4063 259.5239,1019.2344 Q260.4145,1020.0469 262.0083,1020.0469 Q262.9458,1020.0469 263.602,1019.7969 Q263.9927,1019.6406 264.4145,1019.2031 Q264.6802,1018.9375 264.8208,1018.8594 Q264.977,1018.7813 265.1802,1018.7813 Q265.5083,1018.7813 265.7583,1019.0469 Q266.0239,1019.2969 266.0239,1019.6406 Q266.0239,1019.9844 265.6802,1020.3906 Q265.1802,1020.9688 264.3833,1021.2969 Q263.3052,1021.75 262.0083,1021.75 Q260.4927,1021.75 259.2895,1021.125 Q258.3052,1020.625 257.6177,1019.5625 Q256.9302,1018.4844 256.9302,1017.2031 L256.9302,1016.0469 Q256.9302,1014.7188 257.5395,1013.5781 Q258.1645,1012.4219 259.2583,1011.8125 Q260.352,1011.1875 261.5864,1011.1875 Q262.3208,1011.1875 262.9614,1011.3594 Q263.6177,1011.5156 264.1645,1011.875 Z "/><text fill="#000000" font-family="sans-serif" font-size="12" lengthAdjust="spacingAndGlyphs" textLength="84" x="278.1989" y="1020.9102">RedoController</text><line style="stroke: #A80036; stroke-width: 1.5;" x1="234.7989" x2="376.7989" y1="1032" y2="1032"/><line style="stroke: #A80036; stroke-width: 1.5;" x1="234.7989" x2="376.7989" y1="1040" y2="1040"/><ellipse cx="244.7989" cy="1051" fill="#84BE84" rx="3" ry="3" style="stroke: #038048; stroke-width: 1.0;"/><text fill="#000000" font-family="sans-serif" font-size="11" lengthAdjust="spacingAndGlyphs" textLength="118" x="253.7989" y="1055.4189">RedoController(Session)</text><ellipse cx="244.7989" cy="1064.8359" fill="#84BE84" rx="3" ry="3" style="stroke: #038048; stroke-width: 1.0;"/><text fill="#000000" font-family="sans-serif" font-size="11" lengthAdjust="spacingAndGlyphs" textLength="56" x="253.7989" y="1069.2549">redo(): void</text><ellipse cx="244.7989" cy="1078.6719" fill="#84BE84" rx="3" ry="3" style="stroke: #038048; stroke-width: 1.0;"/><text fill="#000000" font-family="sans-serif" font-size="11" lengthAdjust="spacingAndGlyphs" textLength="94" x="253.7989" y="1083.0908">redoable(): boolean</text><!--MD5=[fa99c436b17806d9277b14ee7a9cac8e]
class tictactoe.models.Session--><rect fill="#FEFECE" filter="url(#f1m193fcwipz2d)" height="48" id="tictactoe.models.Session" style="stroke: #A80036; stroke-width: 1.5;" width="78" x="859.7989" y="1249"/><ellipse cx="874.7989" cy="1265" fill="#ADD1B2" rx="11" ry="11" style="stroke: #A80036; stroke-width: 1.0;"/><path d="M877.5645,1260.875 Q877.7208,1260.6563 877.9083,1260.5469 Q878.0958,1260.4375 878.3145,1260.4375 Q878.6895,1260.4375 878.9239,1260.7031 Q879.1583,1260.9531 879.1583,1261.5625 L879.1583,1263.0156 Q879.1583,1263.625 878.9239,1263.8906 Q878.6895,1264.1563 878.3145,1264.1563 Q877.9708,1264.1563 877.7677,1263.9531 Q877.5645,1263.7656 877.4552,1263.25 Q877.4083,1262.8906 877.2208,1262.7031 Q876.8927,1262.3281 876.2833,1262.1094 Q875.6739,1261.8906 875.0489,1261.8906 Q874.2833,1261.8906 873.6427,1262.2188 Q873.0177,1262.5469 872.5177,1263.2969 Q872.0333,1264.0469 872.0333,1265.0781 L872.0333,1266.1719 Q872.0333,1267.4063 872.9239,1268.2344 Q873.8145,1269.0469 875.4083,1269.0469 Q876.3458,1269.0469 877.002,1268.7969 Q877.3927,1268.6406 877.8145,1268.2031 Q878.0802,1267.9375 878.2208,1267.8594 Q878.377,1267.7813 878.5802,1267.7813 Q878.9083,1267.7813 879.1583,1268.0469 Q879.4239,1268.2969 879.4239,1268.6406 Q879.4239,1268.9844 879.0802,1269.3906 Q878.5802,1269.9688 877.7833,1270.2969 Q876.7052,1270.75 875.4083,1270.75 Q873.8927,1270.75 872.6895,1270.125 Q871.7052,1269.625 871.0177,1268.5625 Q870.3302,1267.4844 870.3302,1266.2031 L870.3302,1265.0469 Q870.3302,1263.7188 870.9395,1262.5781 Q871.5645,1261.4219 872.6583,1260.8125 Q873.752,1260.1875 874.9864,1260.1875 Q875.7208,1260.1875 876.3614,1260.3594 Q877.0177,1260.5156 877.5645,1260.875 Z "/><text fill="#000000" font-family="sans-serif" font-size="12" lengthAdjust="spacingAndGlyphs" textLength="46" x="888.7989" y="1269.9102">Session</text><line style="stroke: #A80036; stroke-width: 1.5;" x1="860.7989" x2="936.7989" y1="1281" y2="1281"/><line style="stroke: #A80036; stroke-width: 1.5;" x1="860.7989" x2="936.7989" y1="1289" y2="1289"/><!--MD5=[c8f7ee38df84fc6c47e5792f2767cf35]
class tictactoe.models.StateValue--><rect fill="#FEFECE" filter="url(#f1m193fcwipz2d)" height="48" id="tictactoe.models.StateValue" style="stroke: #A80036; stroke-width: 1.5;" width="91" x="973.2989" y="1249"/><ellipse cx="988.2989" cy="1265" fill="#ADD1B2" rx="11" ry="11" style="stroke: #A80036; stroke-width: 1.0;"/><path d="M991.0645,1260.875 Q991.2208,1260.6563 991.4083,1260.5469 Q991.5958,1260.4375 991.8145,1260.4375 Q992.1895,1260.4375 992.4239,1260.7031 Q992.6583,1260.9531 992.6583,1261.5625 L992.6583,1263.0156 Q992.6583,1263.625 992.4239,1263.8906 Q992.1895,1264.1563 991.8145,1264.1563 Q991.4708,1264.1563 991.2677,1263.9531 Q991.0645,1263.7656 990.9552,1263.25 Q990.9083,1262.8906 990.7208,1262.7031 Q990.3927,1262.3281 989.7833,1262.1094 Q989.1739,1261.8906 988.5489,1261.8906 Q987.7833,1261.8906 987.1427,1262.2188 Q986.5177,1262.5469 986.0177,1263.2969 Q985.5333,1264.0469 985.5333,1265.0781 L985.5333,1266.1719 Q985.5333,1267.4063 986.4239,1268.2344 Q987.3145,1269.0469 988.9083,1269.0469 Q989.8458,1269.0469 990.502,1268.7969 Q990.8927,1268.6406 991.3145,1268.2031 Q991.5802,1267.9375 991.7208,1267.8594 Q991.877,1267.7813 992.0802,1267.7813 Q992.4083,1267.7813 992.6583,1268.0469 Q992.9239,1268.2969 992.9239,1268.6406 Q992.9239,1268.9844 992.5802,1269.3906 Q992.0802,1269.9688 991.2833,1270.2969 Q990.2052,1270.75 988.9083,1270.75 Q987.3927,1270.75 986.1895,1270.125 Q985.2052,1269.625 984.5177,1268.5625 Q983.8302,1267.4844 983.8302,1266.2031 L983.8302,1265.0469 Q983.8302,1263.7188 984.4395,1262.5781 Q985.0645,1261.4219 986.1583,1260.8125 Q987.252,1260.1875 988.4864,1260.1875 Q989.2208,1260.1875 989.8614,1260.3594 Q990.5177,1260.5156 991.0645,1260.875 Z "/><text fill="#000000" font-family="sans-serif" font-size="12" lengthAdjust="spacingAndGlyphs" textLength="59" x="1002.2989" y="1269.9102">StateValue</text><line style="stroke: #A80036; stroke-width: 1.5;" x1="974.2989" x2="1063.2989" y1="1281" y2="1281"/><line style="stroke: #A80036; stroke-width: 1.5;" x1="974.2989" x2="1063.2989" y1="1289" y2="1289"/><!--MD5=[55d70ecb9e3ba4786ec1f15d0b7dce13]
class tictactoe.models.Coordinate--><rect fill="#FEFECE" filter="url(#f1m193fcwipz2d)" height="48" id="tictactoe.models.Coordinate" style="stroke: #A80036; stroke-width: 1.5;" width="93" x="731.2989" y="1249"/><ellipse cx="746.2989" cy="1265" fill="#ADD1B2" rx="11" ry="11" style="stroke: #A80036; stroke-width: 1.0;"/><path d="M749.0645,1260.875 Q749.2208,1260.6563 749.4083,1260.5469 Q749.5958,1260.4375 749.8145,1260.4375 Q750.1895,1260.4375 750.4239,1260.7031 Q750.6583,1260.9531 750.6583,1261.5625 L750.6583,1263.0156 Q750.6583,1263.625 750.4239,1263.8906 Q750.1895,1264.1563 749.8145,1264.1563 Q749.4708,1264.1563 749.2677,1263.9531 Q749.0645,1263.7656 748.9552,1263.25 Q748.9083,1262.8906 748.7208,1262.7031 Q748.3927,1262.3281 747.7833,1262.1094 Q747.1739,1261.8906 746.5489,1261.8906 Q745.7833,1261.8906 745.1427,1262.2188 Q744.5177,1262.5469 744.0177,1263.2969 Q743.5333,1264.0469 743.5333,1265.0781 L743.5333,1266.1719 Q743.5333,1267.4063 744.4239,1268.2344 Q745.3145,1269.0469 746.9083,1269.0469 Q747.8458,1269.0469 748.502,1268.7969 Q748.8927,1268.6406 749.3145,1268.2031 Q749.5802,1267.9375 749.7208,1267.8594 Q749.877,1267.7813 750.0802,1267.7813 Q750.4083,1267.7813 750.6583,1268.0469 Q750.9239,1268.2969 750.9239,1268.6406 Q750.9239,1268.9844 750.5802,1269.3906 Q750.0802,1269.9688 749.2833,1270.2969 Q748.2052,1270.75 746.9083,1270.75 Q745.3927,1270.75 744.1895,1270.125 Q743.2052,1269.625 742.5177,1268.5625 Q741.8302,1267.4844 741.8302,1266.2031 L741.8302,1265.0469 Q741.8302,1263.7188 742.4395,1262.5781 Q743.0645,1261.4219 744.1583,1260.8125 Q745.252,1260.1875 746.4864,1260.1875 Q747.2208,1260.1875 747.8614,1260.3594 Q748.5177,1260.5156 749.0645,1260.875 Z "/><text fill="#000000" font-family="sans-serif" font-size="12" lengthAdjust="spacingAndGlyphs" textLength="61" x="760.2989" y="1269.9102">Coordinate</text><line style="stroke: #A80036; stroke-width: 1.5;" x1="732.2989" x2="823.2989" y1="1281" y2="1281"/><line style="stroke: #A80036; stroke-width: 1.5;" x1="732.2989" x2="823.2989" y1="1289" y2="1289"/><!--MD5=[23fa68f5dd51b02db50930b64c1246c4]
class mastermind.controllers.Logic--><rect fill="#FEFECE" filter="url(#f1m193fcwipz2d)" height="48" id="mastermind.controllers.Logic" style="stroke: #A80036; stroke-width: 1.5;" width="62" x="1130.7989" y="69.5"/><ellipse cx="1145.7989" cy="85.5" fill="#ADD1B2" rx="11" ry="11" style="stroke: #A80036; stroke-width: 1.0;"/><path d="M1148.5645,81.375 Q1148.7208,81.1563 1148.9083,81.0469 Q1149.0958,80.9375 1149.3145,80.9375 Q1149.6895,80.9375 1149.9239,81.2031 Q1150.1583,81.4531 1150.1583,82.0625 L1150.1583,83.5156 Q1150.1583,84.125 1149.9239,84.3906 Q1149.6895,84.6563 1149.3145,84.6563 Q1148.9708,84.6563 1148.7677,84.4531 Q1148.5645,84.2656 1148.4552,83.75 Q1148.4083,83.3906 1148.2208,83.2031 Q1147.8927,82.8281 1147.2833,82.6094 Q1146.6739,82.3906 1146.0489,82.3906 Q1145.2833,82.3906 1144.6427,82.7188 Q1144.0177,83.0469 1143.5177,83.7969 Q1143.0333,84.5469 1143.0333,85.5781 L1143.0333,86.6719 Q1143.0333,87.9063 1143.9239,88.7344 Q1144.8145,89.5469 1146.4083,89.5469 Q1147.3458,89.5469 1148.002,89.2969 Q1148.3927,89.1406 1148.8145,88.7031 Q1149.0802,88.4375 1149.2208,88.3594 Q1149.377,88.2813 1149.5802,88.2813 Q1149.9083,88.2813 1150.1583,88.5469 Q1150.4239,88.7969 1150.4239,89.1406 Q1150.4239,89.4844 1150.0802,89.8906 Q1149.5802,90.4688 1148.7833,90.7969 Q1147.7052,91.25 1146.4083,91.25 Q1144.8927,91.25 1143.6895,90.625 Q1142.7052,90.125 1142.0177,89.0625 Q1141.3302,87.9844 1141.3302,86.7031 L1141.3302,85.5469 Q1141.3302,84.2188 1141.9395,83.0781 Q1142.5645,81.9219 1143.6583,81.3125 Q1144.752,80.6875 1145.9864,80.6875 Q1146.7208,80.6875 1147.3614,80.8594 Q1148.0177,81.0156 1148.5645,81.375 Z "/><text fill="#000000" font-family="sans-serif" font-size="12" lengthAdjust="spacingAndGlyphs" textLength="30" x="1159.7989" y="90.4102">Logic</text><line style="stroke: #A80036; stroke-width: 1.5;" x1="1131.7989" x2="1191.7989" y1="101.5" y2="101.5"/><line style="stroke: #A80036; stroke-width: 1.5;" x1="1131.7989" x2="1191.7989" y1="109.5" y2="109.5"/><!--MD5=[a8a83881b90490f923aa71f2c5ea5dc6]
class java.util.Map--><rect fill="#FEFECE" filter="url(#f1m193fcwipz2d)" height="48" id="java.util.Map" style="stroke: #A80036; stroke-width: 1.5;" width="55" x="1134.2989" y="219"/><ellipse cx="1149.2989" cy="235" fill="#ADD1B2" rx="11" ry="11" style="stroke: #A80036; stroke-width: 1.0;"/><path d="M1152.0645,230.875 Q1152.2208,230.6563 1152.4083,230.5469 Q1152.5958,230.4375 1152.8145,230.4375 Q1153.1895,230.4375 1153.4239,230.7031 Q1153.6583,230.9531 1153.6583,231.5625 L1153.6583,233.0156 Q1153.6583,233.625 1153.4239,233.8906 Q1153.1895,234.1563 1152.8145,234.1563 Q1152.4708,234.1563 1152.2677,233.9531 Q1152.0645,233.7656 1151.9552,233.25 Q1151.9083,232.8906 1151.7208,232.7031 Q1151.3927,232.3281 1150.7833,232.1094 Q1150.1739,231.8906 1149.5489,231.8906 Q1148.7833,231.8906 1148.1427,232.2188 Q1147.5177,232.5469 1147.0177,233.2969 Q1146.5333,234.0469 1146.5333,235.0781 L1146.5333,236.1719 Q1146.5333,237.4063 1147.4239,238.2344 Q1148.3145,239.0469 1149.9083,239.0469 Q1150.8458,239.0469 1151.502,238.7969 Q1151.8927,238.6406 1152.3145,238.2031 Q1152.5802,237.9375 1152.7208,237.8594 Q1152.877,237.7813 1153.0802,237.7813 Q1153.4083,237.7813 1153.6583,238.0469 Q1153.9239,238.2969 1153.9239,238.6406 Q1153.9239,238.9844 1153.5802,239.3906 Q1153.0802,239.9688 1152.2833,240.2969 Q1151.2052,240.75 1149.9083,240.75 Q1148.3927,240.75 1147.1895,240.125 Q1146.2052,239.625 1145.5177,238.5625 Q1144.8302,237.4844 1144.8302,236.2031 L1144.8302,235.0469 Q1144.8302,233.7188 1145.4395,232.5781 Q1146.0645,231.4219 1147.1583,230.8125 Q1148.252,230.1875 1149.4864,230.1875 Q1150.2208,230.1875 1150.8614,230.3594 Q1151.5177,230.5156 1152.0645,230.875 Z "/><text fill="#000000" font-family="sans-serif" font-size="12" lengthAdjust="spacingAndGlyphs" textLength="23" x="1163.2989" y="239.9102">Map</text><line style="stroke: #A80036; stroke-width: 1.5;" x1="1135.2989" x2="1188.2989" y1="251" y2="251"/><line style="stroke: #A80036; stroke-width: 1.5;" x1="1135.2989" x2="1188.2989" y1="259" y2="259"/><!--MD5=[a529e301e2ce118fc91e7c41e65359f9]
reverse link tictactoe.controllers.Controller to tictactoe.controllers.AcceptorController--><path d="M208.4539,123.5 C274.8489,147.99 369.9269,183.05 439.4359,208.68 " fill="none" id="tictactoe.controllers.Controller&lt;-tictactoe.controllers.AcceptorController" style="stroke: #A80036; stroke-width: 1.0;"/><polygon fill="none" points="206.0259,130.07,189.6829,116.58,210.8699,116.93,206.0259,130.07" style="stroke: #A80036; stroke-width: 1.0;"/><!--MD5=[527e06623682f5de62acf3957d9913db]
link tictactoe.controllers.AcceptorController to tictactoe.controllers.ControllersVisitor--><path d="M514.8229,281.05 C508.0389,297.83 499.9249,317.9 492.6429,335.912 " fill="none" id="tictactoe.controllers.AcceptorController-&gt;tictactoe.controllers.ControllersVisitor" style="stroke: #A80036; stroke-width: 1.0; stroke-dasharray: 7.0,7.0;"/><polygon fill="#A80036" points="490.6129,340.934,497.6948,334.0895,492.4871,336.2985,490.2781,331.0908,490.6129,340.934" style="stroke: #A80036; stroke-width: 1.0;"/><!--MD5=[bbf1bce257605cd4c508c0932cf88819]
link tictactoe.controllers.Controller to tictactoe.models.Session--><path d="M189.4709,95.43 C286.6499,98.78 483.6309,113.37 636.7989,175 C788.4659,236.02 938.7989,221.52 938.7989,385 C938.7989,385 938.7989,385 938.7989,675 C938.7989,894.521 911.5419,1158.433 902.0279,1243.8586 " fill="none" id="tictactoe.controllers.Controller-&gt;tictactoe.models.Session" style="stroke: #A80036; stroke-width: 1.0;"/><polygon fill="#A80036" points="901.4539,1248.9875,906.4297,1240.488,902.0098,1244.0185,898.4793,1239.5986,901.4539,1248.9875" style="stroke: #A80036; stroke-width: 1.0;"/><!--MD5=[113dea69a3460f5570c3c0b3d2d08b7b]
link tictactoe.controllers.ControllersVisitor to tictactoe.controllers.ResultController--><path d="M490.3619,431.061 C510.3079,481.101 542.8919,562.847 564.5869,617.276 " fill="none" id="tictactoe.controllers.ControllersVisitor-&gt;tictactoe.controllers.ResultController" style="stroke: #A80036; stroke-width: 1.0; stroke-dasharray: 7.0,7.0;"/><polygon fill="#A80036" points="566.5209,622.128,566.9038,612.2866,564.6694,617.4835,559.4725,615.249,566.5209,622.128" style="stroke: #A80036; stroke-width: 1.0;"/><!--MD5=[c4479c2b753b757fcf886b22c7a436e9]
link tictactoe.controllers.ControllersVisitor to tictactoe.controllers.StartController--><path d="M550.4579,410.869 C595.6719,427.728 651.5169,453.968 691.7989,491 C729.9539,526.076 758.3519,578.102 776.1019,617.557 " fill="none" id="tictactoe.controllers.ControllersVisitor-&gt;tictactoe.controllers.StartController" style="stroke: #A80036; stroke-width: 1.0; stroke-dasharray: 7.0,7.0;"/><polygon fill="#A80036" points="778.2139,622.304,778.2122,612.4551,776.1824,617.7353,770.9023,615.7055,778.2139,622.304" style="stroke: #A80036; stroke-width: 1.0;"/><!--MD5=[ccfc00cc7008c98e03882e77f79ceb2e]
link tictactoe.controllers.ControllersVisitor to tictactoe.controllers.PlayController--><path d="M438.9449,431.061 C428.9019,446.933 417.4739,465.994 405.6999,486.362 " fill="none" id="tictactoe.controllers.ControllersVisitor-&gt;tictactoe.controllers.PlayController" style="stroke: #A80036; stroke-width: 1.0; stroke-dasharray: 7.0,7.0;"/><polygon fill="#A80036" points="403.1819,490.727,411.1424,484.9278,405.6792,486.3953,404.2117,480.9321,403.1819,490.727" style="stroke: #A80036; stroke-width: 1.0;"/><!--MD5=[23cbcec275552d5168a12b754cf1cb3c]
link tictactoe.controllers.PlayController to tictactoe.controllers.ControllersVisitor--><path d="M428.5319,490.727 C439.0679,470.785 448.6179,451.947 456.2299,435.937 " fill="none" id="tictactoe.controllers.PlayController-&gt;tictactoe.controllers.ControllersVisitor" style="stroke: #A80036; stroke-width: 1.0; stroke-dasharray: 7.0,7.0;"/><polygon fill="#A80036" points="458.5299,431.061,451.0733,437.4952,456.3973,435.5834,458.3091,440.9074,458.5299,431.061" style="stroke: #A80036; stroke-width: 1.0;"/><!--MD5=[7ed153862216946a66e2ddd4e084a78d]
link tictactoe.controllers.Logic to tictactoe.models.Session--><path d="M896.5216,127.313 C896.5216,127.313 946.5929,154.46 964.7989,175 C1028.1189,246.43 1009.7989,289.55 1009.7989,385 C1009.7989,385 1009.7989,385 1009.7989,675 C1009.7989,907.86 1069.2389,988.872 964.7989,1197 C962.3989,1201.783 959.5419,1201.175 955.7989,1205 C945.4379,1215.588 934.7459,1227.771 925.4599,1238.8212 " fill="none" id="tictactoe.controllers.Logic-tictactoe.models.Session" style="stroke: #A80036; stroke-width: 1.0;"/><polygon fill="#A80036" points="917.0449,1248.9788,925.8667,1244.5998,920.2346,1245.1284,919.706,1239.4963,917.0449,1248.9788" style="stroke: #A80036; stroke-width: 1.0;"/><line style="stroke: #A80036; stroke-width: 1.0;" x1="920.2346" x2="925.3389" y1="1245.1284" y2="1238.9678"/><polygon fill="#A80036" points="885.4689,122.64,889.4376,128.6608,896.5216,127.313,892.5529,121.2923,885.4689,122.64" style="stroke: #A80036; stroke-width: 1.0;"/><!--MD5=[ea09686a2ef9af1489d791b8e224dfe5]
link tictactoe.controllers.Logic to tictactoe.controllers.AcceptorController--><path d="M652.2355,152.1538 C652.2355,152.1538 610.0029,183.14 591.0769,197.03 " fill="none" id="tictactoe.controllers.Logic-tictactoe.controllers.AcceptorController" style="stroke: #A80036; stroke-width: 1.0;"/><polygon fill="#A80036" points="580.5119,204.79,590.1334,202.686,584.5417,201.8301,585.3975,196.2384,580.5119,204.79" style="stroke: #A80036; stroke-width: 1.0;"/><line style="stroke: #A80036; stroke-width: 1.0;" x1="584.5417" x2="590.9929" y1="201.8301" y2="197.095"/><polygon fill="#A80036" points="661.9069,145.05,654.7033,145.3781,652.2355,152.1538,659.4391,151.8257,661.9069,145.05" style="stroke: #A80036; stroke-width: 1.0;"/><!--MD5=[096abf58a0a258fd61b5f735b2bb7393]
link tictactoe.controllers.Logic to tictactoe.models.StateValue--><path d="M897.0458,112.8579 C897.0458,112.8579 983.1089,144.19 1014.7989,175 C1084.9489,243.19 1080.7989,287.17 1080.7989,385 C1080.7989,385 1080.7989,385 1080.7989,675 C1080.7989,888.593 1041.0489,1142.884 1025.2089,1235.7627 " fill="none" id="tictactoe.controllers.Logic-tictactoe.models.StateValue" style="stroke: #A80036; stroke-width: 1.0;"/><polygon fill="#A80036" points="1022.9589,1248.763,1028.4303,1240.5738,1023.8087,1243.8357,1020.5467,1239.2141,1022.9589,1248.763" style="stroke: #A80036; stroke-width: 1.0;"/><line style="stroke: #A80036; stroke-width: 1.0;" x1="1023.8087" x2="1025.1739" y1="1243.8357" y2="1235.9522"/><polygon fill="#A80036" points="885.4419,109.8,890.2245,115.1969,897.0458,112.8579,892.2631,107.461,885.4419,109.8" style="stroke: #A80036; stroke-width: 1.0;"/><!--MD5=[fc24b75630ff8e398ba55db0f8ccdfce]
link mastermind.controllers.Logic to java.util.Map--><path d="M1161.7989,129.55 C1161.7989,129.55 1161.7989,182.69 1161.7989,205.42 " fill="none" id="mastermind.controllers.Logic-java.util.Map" style="stroke: #A80036; stroke-width: 1.0;"/><polygon fill="#A80036" points="1161.7989,218.63,1165.7989,209.63,1161.7989,213.63,1157.7989,209.63,1161.7989,218.63" style="stroke: #A80036; stroke-width: 1.0;"/><line style="stroke: #A80036; stroke-width: 1.0;" x1="1161.7989" x2="1161.7989" y1="213.63" y2="205.63"/><polygon fill="#A80036" points="1161.7989,117.55,1157.7989,123.55,1161.7989,129.55,1165.7989,123.55,1161.7989,117.55" style="stroke: #A80036; stroke-width: 1.0;"/><!--MD5=[678ab56be6f4f67d24a611a7cf3f2bff]
reverse link tictactoe.controllers.Controller to tictactoe.controllers.MovementController--><path d="M127.2109,151.85 C120.1675,319.88 103.984,802.601 147.7989,857 C218.6619,944.981 292.7939,868.449 394.7989,917 C400.7189,919.818 406.6319,922.867 412.5099,926.102 " fill="none" id="tictactoe.controllers.Controller&lt;-tictactoe.controllers.MovementController" style="stroke: #A80036; stroke-width: 1.0;"/><polygon fill="none" points="120.227,151.32,128.0779,131.63,134.2139,151.92,120.227,151.32" style="stroke: #A80036; stroke-width: 1.0;"/><!--MD5=[57fe92fdbf463b4ea82d77f5a8e481e7]
link tictactoe.controllers.MovementController to tictactoe.models.Coordinate--><path d="M683.3719,1173.202 C709.2359,1200.263 734.0439,1226.22 751.7369,1244.7316 " fill="none" id="tictactoe.controllers.MovementController-&gt;tictactoe.models.Coordinate" style="stroke: #A80036; stroke-width: 1.0; stroke-dasharray: 7.0,7.0;"/><polygon fill="#A80036" points="755.6269,1248.8012,752.2997,1239.5314,752.1721,1245.1868,746.5166,1245.0591,755.6269,1248.8012" style="stroke: #A80036; stroke-width: 1.0;"/><!--MD5=[4c73c2b2338091ed29a3a30e3916cd07]
reverse link tictactoe.controllers.AcceptorController to tictactoe.controllers.PlayController--><path d="M428.7399,291.95 C409.2739,305.35 390.8959,321.66 377.7989,341 C348.1149,384.844 331.5299,439.036 322.4979,490.832 " fill="none" id="tictactoe.controllers.AcceptorController&lt;-tictactoe.controllers.PlayController" style="stroke: #A80036; stroke-width: 1.0;"/><polygon fill="none" points="425.0159,286.02,445.6369,281.15,432.5559,297.82,425.0159,286.02" style="stroke: #A80036; stroke-width: 1.0;"/><!--MD5=[26c0e73b3cfabbbd8937b448971b8997]
link tictactoe.controllers.PlayController to tictactoe.controllers.MovementController--><path d="M443.3462,867.04 C443.3462,867.04 461.0329,893.464 469.3559,905.897 " fill="none" id="tictactoe.controllers.PlayController-tictactoe.controllers.MovementController" style="stroke: #A80036; stroke-width: 1.0;"/><polygon fill="#A80036" points="476.6139,916.74,474.9315,907.0359,473.8325,912.585,468.2835,911.4861,476.6139,916.74" style="stroke: #A80036; stroke-width: 1.0;"/><line style="stroke: #A80036; stroke-width: 1.0;" x1="473.8325" x2="469.3829" y1="912.585" y2="905.937"/><polygon fill="#A80036" points="436.6709,857.068,436.6845,864.2791,443.3462,867.04,443.3325,859.8289,436.6709,857.068" style="stroke: #A80036; stroke-width: 1.0;"/><!--MD5=[fdceb88dd4ce88bad0912e893ceb7641]
link tictactoe.controllers.PlayController to tictactoe.controllers.UndoController--><path d="M216.5892,867.7597 C216.5892,867.7597 171.8629,955.55 155.3359,987.988 " fill="none" id="tictactoe.controllers.PlayController-tictactoe.controllers.UndoController" style="stroke: #A80036; stroke-width: 1.0;"/><polygon fill="#A80036" points="149.2749,999.884,156.9247,993.6807,151.5448,995.4289,149.7966,990.049,149.2749,999.884" style="stroke: #A80036; stroke-width: 1.0;"/><line style="stroke: #A80036; stroke-width: 1.0;" x1="151.5448" x2="155.1769" y1="995.4289" y2="988.3005"/><polygon fill="#A80036" points="222.0379,857.068,215.7497,860.5976,216.5892,867.7597,222.8774,864.2301,222.0379,857.068" style="stroke: #A80036; stroke-width: 1.0;"/><!--MD5=[b0c8587f2dacb7f013b4c7eea5bedb0e]
link tictactoe.controllers.PlayController to tictactoe.controllers.RedoController--><path d="M310.0651,869.0644 C310.0651,869.0644 307.9739,954.828 307.1939,986.813 " fill="none" id="tictactoe.controllers.PlayController-tictactoe.controllers.RedoController" style="stroke: #A80036; stroke-width: 1.0;"/><polygon fill="#A80036" points="306.8749,999.884,311.0933,990.9843,306.9969,994.8855,303.0956,990.7891,306.8749,999.884" style="stroke: #A80036; stroke-width: 1.0;"/><line style="stroke: #A80036; stroke-width: 1.0;" x1="306.9969" x2="307.1919" y1="994.8855" y2="986.888"/><polygon fill="#A80036" points="310.3579,857.068,306.2127,862.9686,310.0651,869.0644,314.2103,863.1638,310.3579,857.068" style="stroke: #A80036; stroke-width: 1.0;"/><!--MD5=[cfbf8d60c9a24e78ee02d3e2172e16f5]
reverse link tictactoe.controllers.Controller to tictactoe.controllers.RedoController--><path d="M122.0189,151.68 C101.9123,307.56 54.2725,736.299 120.7989,857 C144.9039,900.735 179.5609,882.64 215.7989,917 C241.3899,941.265 264.2779,973.793 280.5679,999.855 " fill="none" id="tictactoe.controllers.Controller&lt;-tictactoe.controllers.RedoController" style="stroke: #A80036; stroke-width: 1.0;"/><polygon fill="none" points="115.1168,150.48,124.6589,131.56,128.9979,152.3,115.1168,150.48" style="stroke: #A80036; stroke-width: 1.0;"/><!--MD5=[7be671399119a683b3d065b58f2bc4f4]
reverse link tictactoe.controllers.AcceptorController to tictactoe.controllers.ResultController--><path d="M555.3139,300.32 C560.2769,313.43 564.8489,327.51 567.7989,341 C589.1959,438.855 590.3169,556.566 588.8179,622.272 " fill="none" id="tictactoe.controllers.AcceptorController&lt;-tictactoe.controllers.ResultController" style="stroke: #A80036; stroke-width: 1.0;"/><polygon fill="none" points="548.6579,302.54,547.6399,281.37,561.6339,297.28,548.6579,302.54" style="stroke: #A80036; stroke-width: 1.0;"/><!--MD5=[88d5a3a4b61e1bc69fe5562ef1aab11c]
link tictactoe.controllers.ResultController to tictactoe.models.Session--><path d="M615.7609,725.737 C636.7179,762.32 665.8069,812.827 691.7989,857 C707.5699,883.803 714.3279,888.971 727.7989,917 C785.3049,1036.649 754.0359,1089.409 831.7989,1197 C835.1329,1201.613 837.7139,1201.037 841.7989,1205 C854.4039,1217.23 867.1859,1231.9923 877.4429,1244.5441 " fill="none" id="tictactoe.controllers.ResultController-&gt;tictactoe.models.Session" style="stroke: #A80036; stroke-width: 1.0; stroke-dasharray: 7.0,7.0;"/><polygon fill="#A80036" points="880.8209,1248.7092,878.258,1239.1997,877.6712,1244.826,872.0448,1244.2392,880.8209,1248.7092" style="stroke: #A80036; stroke-width: 1.0;"/><!--MD5=[2168a191c671df69662f87ac86eb6940]
reverse link tictactoe.controllers.AcceptorController to tictactoe.controllers.StartController--><path d="M566.4029,298 C599.7979,347.685 650.1429,423.654 691.7989,491 C718.9199,534.848 748.3219,585.606 769.2649,622.361 " fill="none" id="tictactoe.controllers.AcceptorController&lt;-tictactoe.controllers.StartController" style="stroke: #A80036; stroke-width: 1.0;"/><polygon fill="none" points="560.4969,301.76,555.1269,281.26,572.1069,293.94,560.4969,301.76" style="stroke: #A80036; stroke-width: 1.0;"/><!--MD5=[69619c26af204ab0a49ff1332a022321]
link tictactoe.controllers.StartController to tictactoe.models.Session--><path d="M806.3669,725.642 C826.8419,846.67 878.0929,1149.608 894.0079,1243.6792 " fill="none" id="tictactoe.controllers.StartController-&gt;tictactoe.models.Session" style="stroke: #A80036; stroke-width: 1.0; stroke-dasharray: 7.0,7.0;"/><polygon fill="#A80036" points="894.8719,1248.788,897.3144,1239.2468,894.0378,1243.8581,889.4265,1240.5814,894.8719,1248.788" style="stroke: #A80036; stroke-width: 1.0;"/><!--MD5=[6b841329018ed361bb360a8821f75218]
reverse link tictactoe.controllers.Controller to tictactoe.controllers.UndoController--><path d="M93.5282,149.48 C89.5303,157.75 86.0844,166.39 83.7989,175 C6,467.957 49.6175,555.822 83.7989,857 C89.4338,906.65 103.2282,962.318 113.6856,999.905 " fill="none" id="tictactoe.controllers.Controller&lt;-tictactoe.controllers.UndoController" style="stroke: #A80036; stroke-width: 1.0;"/><polygon fill="none" points="87.5375,145.85,103.2446,131.62,99.8352,152.54,87.5375,145.85" style="stroke: #A80036; stroke-width: 1.0;"/><!--MD5=[72026c8efa274d854bda90cd1b5ae70d]
@startuml

class  tictactoe.controllers.AcceptorController{
~ AcceptorController(Session)
+ {abstract} accept(ControllersVisitor): void
}
tictactoe.controllers.Controller <|-down- tictactoe.controllers.AcceptorController
tictactoe.controllers.AcceptorController ..> tictactoe.controllers.ControllersVisitor

class  tictactoe.controllers.Controller{
# session: Session
~ Controller(Session)
}
tictactoe.controllers.Controller -down-> tictactoe.models.Session

interface  tictactoe.controllers.ControllersVisitor{
~ visit(StartController): void
~ visit(PlayController): void
~ visit(ResultController): void
}
tictactoe.controllers.ControllersVisitor ..> tictactoe.controllers.ResultController
tictactoe.controllers.ControllersVisitor ..> tictactoe.controllers.StartController
tictactoe.controllers.ControllersVisitor ..> tictactoe.controllers.PlayController

class  tictactoe.controllers.Logic{
- session: Session
- acceptorControllers: Map<StateValue, AcceptorController>
+ Logic()
+ getController(): AcceptorController
}
tictactoe.controllers.Logic *-down-> tictactoe.models.Session
tictactoe.controllers.Logic *-down-> tictactoe.controllers.AcceptorController
tictactoe.controllers.Logic *-down-> tictactoe.models.StateValue
mastermind.controllers.Logic *-down-> java.util.Map

class  tictactoe.controllers.MovementController{
+ MovementController(Session)
+ getTypeOfTokenPlayerFromTurn(): PlayerType
+ controlErrorsPutCoordinate(int, int): Error
+ controlErrorsMoveOriginCoordinate(int, int): Error
+ controlErrorsMoveTargetCoordinate(int, int, int, int): Error
+ isCoordinateValid(int, int): boolean
+ generateRandomCoordinate(): int[]
+ isBoardComplete(): boolean
+ putTokenPlayerFromTurn(int, int): void
+ moveTokenPlayerFromTurn(int, int, int, int): void
+ changeTurn(): void
+ getTokenChar(int, int): char
+ isEmptyToken(int, int): boolean
+ getCoordinateDimension(): int
+ isTicTacToe(): boolean
}
tictactoe.controllers.Controller <|-down- tictactoe.controllers.MovementController
tictactoe.controllers.MovementController ..> tictactoe.models.Coordinate

class  tictactoe.controllers.PlayController{
- movementController: MovementController
- undoController: UndoController
- redoController: RedoController
+ PlayController(Session)
+ undo(): void
+ redo(): void
+ undoable(): boolean
+ redoable(): boolean
+ getTypeOfTokenPlayerFromTurn(): PlayerType
+ controlErrorsPutCoordinate(int, int): Error
+ controlErrorsMoveOriginCoordinate(int, int): Error
+ controlErrorsMoveTargetCoordinate(int, int, int, int): Error
+ isCoordinateValid(int, int): boolean
+ generateRandomCoordinate(): int[]
+ isBoardComplete(): boolean
+ putTokenPlayerFromTurn(int, int): void
+ moveTokenPlayerFromTurn(int, int, int, int): void
+ changeTurn(): void
+ getTokenChar(int, int): char
+ isEmptyToken(int, int): boolean
+ getCoordinateDimension(): int
+ isTicTacToe(): boolean
+ accept(ControllersVisitor): void
}
tictactoe.controllers.AcceptorController <|-down- tictactoe.controllers.PlayController
tictactoe.controllers.PlayController *-down-> tictactoe.controllers.MovementController
tictactoe.controllers.PlayController *-down-> tictactoe.controllers.UndoController
tictactoe.controllers.PlayController *-down-> tictactoe.controllers.RedoController
tictactoe.controllers.PlayController ..> tictactoe.controllers.ControllersVisitor

class  tictactoe.controllers.RedoController{
+ RedoController(Session)
+ redo(): void
+ redoable(): boolean
}
tictactoe.controllers.Controller <|-down- tictactoe.controllers.RedoController

class  tictactoe.controllers.ResultController{
+ ResultController(Session)
+ finish(): void
+ getOtherValueFromTurn(): int
+ accept(ControllersVisitor): void
}
tictactoe.controllers.AcceptorController <|-down- tictactoe.controllers.ResultController
tictactoe.controllers.ResultController ..> tictactoe.models.Session

class  tictactoe.controllers.StartController{
+ StartController(Session)
+ start(): void
+ createPlayers(int): void
+ accept(ControllersVisitor): void
}
tictactoe.controllers.AcceptorController <|-down- tictactoe.controllers.StartController
tictactoe.controllers.StartController ..> tictactoe.models.Session

class  tictactoe.controllers.UndoController{
+ UndoController(Session)
+ undo(): void
+ undoable(): boolean
}
tictactoe.controllers.Controller <|-down- tictactoe.controllers.UndoController

@enduml

PlantUML version 1.2020.15(Sun Jun 28 13:39:45 CEST 2020)
(GPL source distribution)
Java Runtime: Java(TM) SE Runtime Environment
JVM: Java HotSpot(TM) 64-Bit Server VM
Default Encoding: windows-1252
Language: es
Country: ES
--></g></svg>