<?xml version="1.0" encoding="UTF-8" standalone="no"?><svg xmlns="http://www.w3.org/2000/svg" xmlns:xlink="http://www.w3.org/1999/xlink" contentScriptType="application/ecmascript" contentStyleType="text/css" height="557px" preserveAspectRatio="none" style="width:1760px;height:557px;" version="1.1" viewBox="0 0 1760 557" width="1760px" zoomAndPan="magnify"><defs><filter height="300%" id="foo8ajioz7qcb" width="300%" x="-1" y="-1"><feGaussianBlur result="blurOut" stdDeviation="2.0"/><feColorMatrix in="blurOut" result="blurOut2" type="matrix" values="0 0 0 0 0 0 0 0 0 0 0 0 0 0 0 0 0 0 .4 0"/><feOffset dx="4.0" dy="4.0" in="blurOut2" result="blurOut3"/><feBlend in="SourceGraphic" in2="blurOut3" mode="normal"/></filter></defs><g><!--MD5=[c8f472f346fc5da420fb1e34cc85077e]
cluster tictactoe.views.menus--><polygon fill="#FFFFFF" filter="url(#foo8ajioz7qcb)" points="144.5311,130,307.5311,130,314.5311,153.6094,1738.5301,153.6094,1738.5301,421,144.5311,421,144.5311,130" style="stroke: #000000; stroke-width: 1.5;"/><line style="stroke: #000000; stroke-width: 1.5;" x1="144.5311" x2="314.5311" y1="153.6094" y2="153.6094"/><text fill="#000000" font-family="sans-serif" font-size="14" font-weight="bold" lengthAdjust="spacingAndGlyphs" textLength="157" x="148.5311" y="146.5332">tictactoe.views.menus</text><!--MD5=[c52f45833d539af9e29a9d34b8b7302b]
cluster utils--><polygon fill="#FFFFFF" filter="url(#foo8ajioz7qcb)" points="560.5311,6,596.5311,6,603.5311,29.6094,781.5311,29.6094,781.5311,106,560.5311,106,560.5311,6" style="stroke: #000000; stroke-width: 1.5;"/><line style="stroke: #000000; stroke-width: 1.5;" x1="560.5311" x2="603.5311" y1="29.6094" y2="29.6094"/><text fill="#000000" font-family="sans-serif" font-size="14" font-weight="bold" lengthAdjust="spacingAndGlyphs" textLength="30" x="564.5311" y="22.5332">utils</text><!--MD5=[ee7e9a007a7c4d40c0679a27f272732d]
cluster tictactoe.controllers--><polygon fill="#FFFFFF" filter="url(#foo8ajioz7qcb)" points="299.5311,445,447.5311,445,454.5311,468.6094,755.5311,468.6094,755.5311,545,299.5311,545,299.5311,445" style="stroke: #000000; stroke-width: 1.5;"/><line style="stroke: #000000; stroke-width: 1.5;" x1="299.5311" x2="454.5311" y1="468.6094" y2="468.6094"/><text fill="#000000" font-family="sans-serif" font-size="14" font-weight="bold" lengthAdjust="spacingAndGlyphs" textLength="142" x="303.5311" y="461.5332">tictactoe.controllers</text><!--MD5=[a12d804b92463d10c3d536d6637273c5]
cluster tictactoe.views.models--><polygon fill="#FFFFFF" filter="url(#foo8ajioz7qcb)" points="1278.5301,445,1445.5301,445,1452.5301,468.6094,1547.5301,468.6094,1547.5301,545,1278.5301,545,1278.5301,445" style="stroke: #000000; stroke-width: 1.5;"/><line style="stroke: #000000; stroke-width: 1.5;" x1="1278.5301" x2="1452.5301" y1="468.6094" y2="468.6094"/><text fill="#000000" font-family="sans-serif" font-size="14" font-weight="bold" lengthAdjust="spacingAndGlyphs" textLength="161" x="1282.5301" y="461.5332">tictactoe.views.models</text><!--MD5=[4b9aa69800eb8b72a3f6bdbcc705be4a]
class tictactoe.views.menus.Command--><rect fill="#FEFECE" filter="url(#foo8ajioz7qcb)" height="75.6719" id="tictactoe.views.menus.Command" style="stroke: #A80036; stroke-width: 1.5;" width="212" x="671.5311" y="166"/><ellipse cx="743.7811" cy="182" fill="#ADD1B2" rx="11" ry="11" style="stroke: #A80036; stroke-width: 1.0;"/><path d="M746.5467,177.875 Q746.703,177.6563 746.8905,177.5469 Q747.078,177.4375 747.2967,177.4375 Q747.6717,177.4375 747.9061,177.7031 Q748.1405,177.9531 748.1405,178.5625 L748.1405,180.0156 Q748.1405,180.625 747.9061,180.8906 Q747.6717,181.1563 747.2967,181.1563 Q746.953,181.1563 746.7499,180.9531 Q746.5467,180.7656 746.4374,180.25 Q746.3905,179.8906 746.203,179.7031 Q745.8749,179.3281 745.2655,179.1094 Q744.6561,178.8906 744.0311,178.8906 Q743.2655,178.8906 742.6249,179.2188 Q741.9999,179.5469 741.4999,180.2969 Q741.0155,181.0469 741.0155,182.0781 L741.0155,183.1719 Q741.0155,184.4063 741.9061,185.2344 Q742.7967,186.0469 744.3905,186.0469 Q745.328,186.0469 745.9842,185.7969 Q746.3749,185.6406 746.7967,185.2031 Q747.0624,184.9375 747.203,184.8594 Q747.3592,184.7813 747.5624,184.7813 Q747.8905,184.7813 748.1405,185.0469 Q748.4061,185.2969 748.4061,185.6406 Q748.4061,185.9844 748.0624,186.3906 Q747.5624,186.9688 746.7655,187.2969 Q745.6874,187.75 744.3905,187.75 Q742.8749,187.75 741.6717,187.125 Q740.6874,186.625 739.9999,185.5625 Q739.3124,184.4844 739.3124,183.2031 L739.3124,182.0469 Q739.3124,180.7188 739.9217,179.5781 Q740.5467,178.4219 741.6405,177.8125 Q742.7342,177.1875 743.9686,177.1875 Q744.703,177.1875 745.3436,177.3594 Q745.9999,177.5156 746.5467,177.875 Z "/><text fill="#000000" font-family="sans-serif" font-size="12" lengthAdjust="spacingAndGlyphs" textLength="59" x="764.2811" y="186.9102">Command</text><line style="stroke: #A80036; stroke-width: 1.5;" x1="672.5311" x2="882.5311" y1="198" y2="198"/><polygon fill="none" points="682.5311,204,686.5311,208,682.5311,212,678.5311,208" style="stroke: #B38D22; stroke-width: 1.0;"/><text fill="#000000" font-family="sans-serif" font-size="11" lengthAdjust="spacingAndGlyphs" textLength="186" x="691.5311" y="213.4189">acceptorController: AcceptorController</text><line style="stroke: #A80036; stroke-width: 1.5;" x1="672.5311" x2="882.5311" y1="219.8359" y2="219.8359"/><polygon fill="#FFFF44" points="682.5311,225.8359,686.5311,229.8359,682.5311,233.8359,678.5311,229.8359" style="stroke: #B38D22; stroke-width: 1.0;"/><text fill="#000000" font-family="sans-serif" font-size="11" lengthAdjust="spacingAndGlyphs" textLength="180" x="691.5311" y="235.2549">Command(String, AcceptorController)</text><!--MD5=[624ddfaa3bc9c15d47dfcc3e421586db]
class tictactoe.views.menus.ExitCommand--><rect fill="#FEFECE" filter="url(#foo8ajioz7qcb)" height="89.5078" id="tictactoe.views.menus.ExitCommand" style="stroke: #A80036; stroke-width: 1.5;" width="164" x="913.5311" y="308.5"/><ellipse cx="952.8311" cy="324.5" fill="#ADD1B2" rx="11" ry="11" style="stroke: #A80036; stroke-width: 1.0;"/><path d="M955.5967,320.375 Q955.753,320.1563 955.9405,320.0469 Q956.128,319.9375 956.3467,319.9375 Q956.7217,319.9375 956.9561,320.2031 Q957.1905,320.4531 957.1905,321.0625 L957.1905,322.5156 Q957.1905,323.125 956.9561,323.3906 Q956.7217,323.6563 956.3467,323.6563 Q956.003,323.6563 955.7999,323.4531 Q955.5967,323.2656 955.4874,322.75 Q955.4405,322.3906 955.253,322.2031 Q954.9249,321.8281 954.3155,321.6094 Q953.7061,321.3906 953.0811,321.3906 Q952.3155,321.3906 951.6749,321.7188 Q951.0499,322.0469 950.5499,322.7969 Q950.0655,323.5469 950.0655,324.5781 L950.0655,325.6719 Q950.0655,326.9063 950.9561,327.7344 Q951.8467,328.5469 953.4405,328.5469 Q954.378,328.5469 955.0342,328.2969 Q955.4249,328.1406 955.8467,327.7031 Q956.1124,327.4375 956.253,327.3594 Q956.4092,327.2813 956.6124,327.2813 Q956.9405,327.2813 957.1905,327.5469 Q957.4561,327.7969 957.4561,328.1406 Q957.4561,328.4844 957.1124,328.8906 Q956.6124,329.4688 955.8155,329.7969 Q954.7374,330.25 953.4405,330.25 Q951.9249,330.25 950.7217,329.625 Q949.7374,329.125 949.0499,328.0625 Q948.3624,326.9844 948.3624,325.7031 L948.3624,324.5469 Q948.3624,323.2188 948.9717,322.0781 Q949.5967,320.9219 950.6905,320.3125 Q951.7842,319.6875 953.0186,319.6875 Q953.753,319.6875 954.3936,319.8594 Q955.0499,320.0156 955.5967,320.375 Z "/><text fill="#000000" font-family="sans-serif" font-size="12" lengthAdjust="spacingAndGlyphs" textLength="78" x="972.2311" y="329.4102">ExitCommand</text><line style="stroke: #A80036; stroke-width: 1.5;" x1="914.5311" x2="1076.5311" y1="340.5" y2="340.5"/><line style="stroke: #A80036; stroke-width: 1.5;" x1="914.5311" x2="1076.5311" y1="348.5" y2="348.5"/><polygon fill="#FFFF44" points="924.5311,354.5,928.5311,358.5,924.5311,362.5,920.5311,358.5" style="stroke: #B38D22; stroke-width: 1.0;"/><text fill="#000000" font-family="sans-serif" font-size="11" lengthAdjust="spacingAndGlyphs" textLength="138" x="933.5311" y="363.9189">ExitCommand(PlayController)</text><polygon fill="#FFFF44" points="924.5311,368.3359,928.5311,372.3359,924.5311,376.3359,920.5311,372.3359" style="stroke: #B38D22; stroke-width: 1.0;"/><text fill="#000000" font-family="sans-serif" font-size="11" lengthAdjust="spacingAndGlyphs" textLength="73" x="933.5311" y="377.7549">execute(): void</text><polygon fill="#FFFF44" points="924.5311,382.1719,928.5311,386.1719,924.5311,390.1719,920.5311,386.1719" style="stroke: #B38D22; stroke-width: 1.0;"/><text fill="#000000" font-family="sans-serif" font-size="11" lengthAdjust="spacingAndGlyphs" textLength="91" x="933.5311" y="391.5908">isActive(): boolean</text><!--MD5=[b0f2c96bd229475832c56f2aa1381520]
class tictactoe.views.menus.GameSelectCommand--><rect fill="#FEFECE" filter="url(#foo8ajioz7qcb)" height="89.5078" id="tictactoe.views.menus.GameSelectCommand" style="stroke: #A80036; stroke-width: 1.5;" width="242" x="160.5311" y="308.5"/><ellipse cx="213.7811" cy="324.5" fill="#ADD1B2" rx="11" ry="11" style="stroke: #A80036; stroke-width: 1.0;"/><path d="M216.5467,320.375 Q216.703,320.1563 216.8905,320.0469 Q217.078,319.9375 217.2967,319.9375 Q217.6717,319.9375 217.9061,320.2031 Q218.1405,320.4531 218.1405,321.0625 L218.1405,322.5156 Q218.1405,323.125 217.9061,323.3906 Q217.6717,323.6563 217.2967,323.6563 Q216.953,323.6563 216.7498,323.4531 Q216.5467,323.2656 216.4373,322.75 Q216.3905,322.3906 216.203,322.2031 Q215.8748,321.8281 215.2655,321.6094 Q214.6561,321.3906 214.0311,321.3906 Q213.2655,321.3906 212.6248,321.7188 Q211.9998,322.0469 211.4998,322.7969 Q211.0155,323.5469 211.0155,324.5781 L211.0155,325.6719 Q211.0155,326.9063 211.9061,327.7344 Q212.7967,328.5469 214.3905,328.5469 Q215.328,328.5469 215.9842,328.2969 Q216.3748,328.1406 216.7967,327.7031 Q217.0623,327.4375 217.203,327.3594 Q217.3592,327.2813 217.5623,327.2813 Q217.8905,327.2813 218.1405,327.5469 Q218.4061,327.7969 218.4061,328.1406 Q218.4061,328.4844 218.0623,328.8906 Q217.5623,329.4688 216.7655,329.7969 Q215.6873,330.25 214.3905,330.25 Q212.8748,330.25 211.6717,329.625 Q210.6873,329.125 209.9998,328.0625 Q209.3123,326.9844 209.3123,325.7031 L209.3123,324.5469 Q209.3123,323.2188 209.9217,322.0781 Q210.5467,320.9219 211.6405,320.3125 Q212.7342,319.6875 213.9686,319.6875 Q214.703,319.6875 215.3436,319.8594 Q215.9998,320.0156 216.5467,320.375 Z "/><text fill="#000000" font-family="sans-serif" font-size="12" lengthAdjust="spacingAndGlyphs" textLength="127" x="234.2811" y="329.4102">GameSelectCommand</text><line style="stroke: #A80036; stroke-width: 1.5;" x1="161.5311" x2="401.5311" y1="340.5" y2="340.5"/><line style="stroke: #A80036; stroke-width: 1.5;" x1="161.5311" x2="401.5311" y1="348.5" y2="348.5"/><polygon fill="#FFFF44" points="171.5311,354.5,175.5311,358.5,171.5311,362.5,167.5311,358.5" style="stroke: #B38D22; stroke-width: 1.0;"/><text fill="#000000" font-family="sans-serif" font-size="11" lengthAdjust="spacingAndGlyphs" textLength="216" x="180.5311" y="363.9189">GameSelectCommand(StartController, String)</text><polygon fill="#FFFF44" points="171.5311,368.3359,175.5311,372.3359,171.5311,376.3359,167.5311,372.3359" style="stroke: #B38D22; stroke-width: 1.0;"/><text fill="#000000" font-family="sans-serif" font-size="11" lengthAdjust="spacingAndGlyphs" textLength="73" x="180.5311" y="377.7549">execute(): void</text><polygon fill="#FFFF44" points="171.5311,382.1719,175.5311,386.1719,171.5311,390.1719,167.5311,386.1719" style="stroke: #B38D22; stroke-width: 1.0;"/><text fill="#000000" font-family="sans-serif" font-size="11" lengthAdjust="spacingAndGlyphs" textLength="91" x="180.5311" y="391.5908">isActive(): boolean</text><!--MD5=[bb50695a4d00871309ce1ef839a62c39]
class tictactoe.views.menus.GameSelectMenu--><rect fill="#FEFECE" filter="url(#foo8ajioz7qcb)" height="61.8359" id="tictactoe.views.menus.GameSelectMenu" style="stroke: #A80036; stroke-width: 1.5;" width="187" x="188.0311" y="173"/><ellipse cx="228.6811" cy="189" fill="#ADD1B2" rx="11" ry="11" style="stroke: #A80036; stroke-width: 1.0;"/><path d="M231.4467,184.875 Q231.603,184.6563 231.7905,184.5469 Q231.978,184.4375 232.1967,184.4375 Q232.5717,184.4375 232.8061,184.7031 Q233.0405,184.9531 233.0405,185.5625 L233.0405,187.0156 Q233.0405,187.625 232.8061,187.8906 Q232.5717,188.1563 232.1967,188.1563 Q231.853,188.1563 231.6499,187.9531 Q231.4467,187.7656 231.3374,187.25 Q231.2905,186.8906 231.103,186.7031 Q230.7749,186.3281 230.1655,186.1094 Q229.5561,185.8906 228.9311,185.8906 Q228.1655,185.8906 227.5249,186.2188 Q226.8999,186.5469 226.3999,187.2969 Q225.9155,188.0469 225.9155,189.0781 L225.9155,190.1719 Q225.9155,191.4063 226.8061,192.2344 Q227.6967,193.0469 229.2905,193.0469 Q230.228,193.0469 230.8842,192.7969 Q231.2749,192.6406 231.6967,192.2031 Q231.9624,191.9375 232.103,191.8594 Q232.2592,191.7813 232.4624,191.7813 Q232.7905,191.7813 233.0405,192.0469 Q233.3061,192.2969 233.3061,192.6406 Q233.3061,192.9844 232.9624,193.3906 Q232.4624,193.9688 231.6655,194.2969 Q230.5874,194.75 229.2905,194.75 Q227.7749,194.75 226.5717,194.125 Q225.5874,193.625 224.8999,192.5625 Q224.2124,191.4844 224.2124,190.2031 L224.2124,189.0469 Q224.2124,187.7188 224.8217,186.5781 Q225.4467,185.4219 226.5405,184.8125 Q227.6342,184.1875 228.8686,184.1875 Q229.603,184.1875 230.2436,184.3594 Q230.8999,184.5156 231.4467,184.875 Z "/><text fill="#000000" font-family="sans-serif" font-size="12" lengthAdjust="spacingAndGlyphs" textLength="98" x="248.3811" y="193.9102">GameSelectMenu</text><line style="stroke: #A80036; stroke-width: 1.5;" x1="189.0311" x2="374.0311" y1="205" y2="205"/><line style="stroke: #A80036; stroke-width: 1.5;" x1="189.0311" x2="374.0311" y1="213" y2="213"/><polygon fill="#4177AF" points="199.0311,220,195.0311,226,203.0311,226" style="stroke: #1963A0; stroke-width: 1.0;"/><text fill="#000000" font-family="sans-serif" font-size="11" lengthAdjust="spacingAndGlyphs" textLength="161" x="208.0311" y="228.4189">GameSelectMenu(StartController)</text><!--MD5=[bee25bea89ed47f910a225fd744ddaeb]
class tictactoe.views.menus.MovementCommand--><rect fill="#FEFECE" filter="url(#foo8ajioz7qcb)" height="89.5078" id="tictactoe.views.menus.MovementCommand" style="stroke: #A80036; stroke-width: 1.5;" width="196" x="1319.5301" y="308.5"/><ellipse cx="1356.5801" cy="324.5" fill="#ADD1B2" rx="11" ry="11" style="stroke: #A80036; stroke-width: 1.0;"/><path d="M1359.3457,320.375 Q1359.502,320.1563 1359.6895,320.0469 Q1359.877,319.9375 1360.0957,319.9375 Q1360.4707,319.9375 1360.7051,320.2031 Q1360.9395,320.4531 1360.9395,321.0625 L1360.9395,322.5156 Q1360.9395,323.125 1360.7051,323.3906 Q1360.4707,323.6563 1360.0957,323.6563 Q1359.752,323.6563 1359.5489,323.4531 Q1359.3457,323.2656 1359.2364,322.75 Q1359.1895,322.3906 1359.002,322.2031 Q1358.6739,321.8281 1358.0645,321.6094 Q1357.4551,321.3906 1356.8301,321.3906 Q1356.0645,321.3906 1355.4239,321.7188 Q1354.7989,322.0469 1354.2989,322.7969 Q1353.8145,323.5469 1353.8145,324.5781 L1353.8145,325.6719 Q1353.8145,326.9063 1354.7051,327.7344 Q1355.5957,328.5469 1357.1895,328.5469 Q1358.127,328.5469 1358.7832,328.2969 Q1359.1739,328.1406 1359.5957,327.7031 Q1359.8614,327.4375 1360.002,327.3594 Q1360.1582,327.2813 1360.3614,327.2813 Q1360.6895,327.2813 1360.9395,327.5469 Q1361.2051,327.7969 1361.2051,328.1406 Q1361.2051,328.4844 1360.8614,328.8906 Q1360.3614,329.4688 1359.5645,329.7969 Q1358.4864,330.25 1357.1895,330.25 Q1355.6739,330.25 1354.4707,329.625 Q1353.4864,329.125 1352.7989,328.0625 Q1352.1114,326.9844 1352.1114,325.7031 L1352.1114,324.5469 Q1352.1114,323.2188 1352.7207,322.0781 Q1353.3457,320.9219 1354.4395,320.3125 Q1355.5332,319.6875 1356.7676,319.6875 Q1357.502,319.6875 1358.1426,319.8594 Q1358.7989,320.0156 1359.3457,320.375 Z "/><text fill="#000000" font-family="sans-serif" font-size="12" lengthAdjust="spacingAndGlyphs" textLength="115" x="1375.4801" y="329.4102">MovementCommand</text><line style="stroke: #A80036; stroke-width: 1.5;" x1="1320.5301" x2="1514.5301" y1="340.5" y2="340.5"/><line style="stroke: #A80036; stroke-width: 1.5;" x1="1320.5301" x2="1514.5301" y1="348.5" y2="348.5"/><ellipse cx="1330.5301" cy="359.5" fill="#84BE84" rx="3" ry="3" style="stroke: #038048; stroke-width: 1.0;"/><text fill="#000000" font-family="sans-serif" font-size="11" lengthAdjust="spacingAndGlyphs" textLength="170" x="1339.5301" y="363.9189">MovementCommand(PlayController)</text><polygon fill="#FFFF44" points="1330.5301,368.3359,1334.5301,372.3359,1330.5301,376.3359,1326.5301,372.3359" style="stroke: #B38D22; stroke-width: 1.0;"/><text fill="#000000" font-family="sans-serif" font-size="11" lengthAdjust="spacingAndGlyphs" textLength="73" x="1339.5301" y="377.7549">execute(): void</text><polygon fill="#FFFF44" points="1330.5301,382.1719,1334.5301,386.1719,1330.5301,390.1719,1326.5301,386.1719" style="stroke: #B38D22; stroke-width: 1.0;"/><text fill="#000000" font-family="sans-serif" font-size="11" lengthAdjust="spacingAndGlyphs" textLength="91" x="1339.5301" y="391.5908">isActive(): boolean</text><!--MD5=[f8f4bdce51c1d34a834b16f3f45fd449]
class tictactoe.views.menus.NewGameCommand--><rect fill="#FEFECE" filter="url(#foo8ajioz7qcb)" height="89.5078" id="tictactoe.views.menus.NewGameCommand" style="stroke: #A80036; stroke-width: 1.5;" width="201" x="677.0311" y="308.5"/><ellipse cx="714.9811" cy="324.5" fill="#ADD1B2" rx="11" ry="11" style="stroke: #A80036; stroke-width: 1.0;"/><path d="M717.7467,320.375 Q717.903,320.1563 718.0905,320.0469 Q718.278,319.9375 718.4967,319.9375 Q718.8717,319.9375 719.1061,320.2031 Q719.3405,320.4531 719.3405,321.0625 L719.3405,322.5156 Q719.3405,323.125 719.1061,323.3906 Q718.8717,323.6563 718.4967,323.6563 Q718.153,323.6563 717.9499,323.4531 Q717.7467,323.2656 717.6374,322.75 Q717.5905,322.3906 717.403,322.2031 Q717.0749,321.8281 716.4655,321.6094 Q715.8561,321.3906 715.2311,321.3906 Q714.4655,321.3906 713.8249,321.7188 Q713.1999,322.0469 712.6999,322.7969 Q712.2155,323.5469 712.2155,324.5781 L712.2155,325.6719 Q712.2155,326.9063 713.1061,327.7344 Q713.9967,328.5469 715.5905,328.5469 Q716.528,328.5469 717.1842,328.2969 Q717.5749,328.1406 717.9967,327.7031 Q718.2624,327.4375 718.403,327.3594 Q718.5592,327.2813 718.7624,327.2813 Q719.0905,327.2813 719.3405,327.5469 Q719.6061,327.7969 719.6061,328.1406 Q719.6061,328.4844 719.2624,328.8906 Q718.7624,329.4688 717.9655,329.7969 Q716.8874,330.25 715.5905,330.25 Q714.0749,330.25 712.8717,329.625 Q711.8874,329.125 711.1999,328.0625 Q710.5124,326.9844 710.5124,325.7031 L710.5124,324.5469 Q710.5124,323.2188 711.1217,322.0781 Q711.7467,320.9219 712.8405,320.3125 Q713.9342,319.6875 715.1686,319.6875 Q715.903,319.6875 716.5436,319.8594 Q717.1999,320.0156 717.7467,320.375 Z "/><text fill="#000000" font-family="sans-serif" font-size="12" lengthAdjust="spacingAndGlyphs" textLength="118" x="734.0811" y="329.4102">NewGameCommand</text><line style="stroke: #A80036; stroke-width: 1.5;" x1="678.0311" x2="877.0311" y1="340.5" y2="340.5"/><line style="stroke: #A80036; stroke-width: 1.5;" x1="678.0311" x2="877.0311" y1="348.5" y2="348.5"/><polygon fill="#FFFF44" points="688.0311,354.5,692.0311,358.5,688.0311,362.5,684.0311,358.5" style="stroke: #B38D22; stroke-width: 1.0;"/><text fill="#000000" font-family="sans-serif" font-size="11" lengthAdjust="spacingAndGlyphs" textLength="175" x="697.0311" y="363.9189">NewGameCommand(StartController)</text><polygon fill="#FFFF44" points="688.0311,368.3359,692.0311,372.3359,688.0311,376.3359,684.0311,372.3359" style="stroke: #B38D22; stroke-width: 1.0;"/><text fill="#000000" font-family="sans-serif" font-size="11" lengthAdjust="spacingAndGlyphs" textLength="73" x="697.0311" y="377.7549">execute(): void</text><polygon fill="#FFFF44" points="688.0311,382.1719,692.0311,386.1719,688.0311,390.1719,684.0311,386.1719" style="stroke: #B38D22; stroke-width: 1.0;"/><text fill="#000000" font-family="sans-serif" font-size="11" lengthAdjust="spacingAndGlyphs" textLength="91" x="697.0311" y="391.5908">isActive(): boolean</text><!--MD5=[2f6cb0b54508750022dc30076ea3e443]
class tictactoe.views.menus.OpenGameCommand--><rect fill="#FEFECE" filter="url(#foo8ajioz7qcb)" height="89.5078" id="tictactoe.views.menus.OpenGameCommand" style="stroke: #A80036; stroke-width: 1.5;" width="204" x="437.5311" y="308.5"/><ellipse cx="474.5811" cy="324.5" fill="#ADD1B2" rx="11" ry="11" style="stroke: #A80036; stroke-width: 1.0;"/><path d="M477.3467,320.375 Q477.503,320.1563 477.6905,320.0469 Q477.878,319.9375 478.0967,319.9375 Q478.4717,319.9375 478.7061,320.2031 Q478.9405,320.4531 478.9405,321.0625 L478.9405,322.5156 Q478.9405,323.125 478.7061,323.3906 Q478.4717,323.6563 478.0967,323.6563 Q477.753,323.6563 477.5499,323.4531 Q477.3467,323.2656 477.2374,322.75 Q477.1905,322.3906 477.003,322.2031 Q476.6749,321.8281 476.0655,321.6094 Q475.4561,321.3906 474.8311,321.3906 Q474.0655,321.3906 473.4249,321.7188 Q472.7999,322.0469 472.2999,322.7969 Q471.8155,323.5469 471.8155,324.5781 L471.8155,325.6719 Q471.8155,326.9063 472.7061,327.7344 Q473.5967,328.5469 475.1905,328.5469 Q476.128,328.5469 476.7842,328.2969 Q477.1749,328.1406 477.5967,327.7031 Q477.8624,327.4375 478.003,327.3594 Q478.1592,327.2813 478.3624,327.2813 Q478.6905,327.2813 478.9405,327.5469 Q479.2061,327.7969 479.2061,328.1406 Q479.2061,328.4844 478.8624,328.8906 Q478.3624,329.4688 477.5655,329.7969 Q476.4874,330.25 475.1905,330.25 Q473.6749,330.25 472.4717,329.625 Q471.4874,329.125 470.7999,328.0625 Q470.1124,326.9844 470.1124,325.7031 L470.1124,324.5469 Q470.1124,323.2188 470.7217,322.0781 Q471.3467,320.9219 472.4405,320.3125 Q473.5342,319.6875 474.7686,319.6875 Q475.503,319.6875 476.1436,319.8594 Q476.7999,320.0156 477.3467,320.375 Z "/><text fill="#000000" font-family="sans-serif" font-size="12" lengthAdjust="spacingAndGlyphs" textLength="123" x="493.4811" y="329.4102">OpenGameCommand</text><line style="stroke: #A80036; stroke-width: 1.5;" x1="438.5311" x2="640.5311" y1="340.5" y2="340.5"/><line style="stroke: #A80036; stroke-width: 1.5;" x1="438.5311" x2="640.5311" y1="348.5" y2="348.5"/><polygon fill="#FFFF44" points="448.5311,354.5,452.5311,358.5,448.5311,362.5,444.5311,358.5" style="stroke: #B38D22; stroke-width: 1.0;"/><text fill="#000000" font-family="sans-serif" font-size="11" lengthAdjust="spacingAndGlyphs" textLength="178" x="457.5311" y="363.9189">OpenGameCommand(StartController)</text><polygon fill="#FFFF44" points="448.5311,368.3359,452.5311,372.3359,448.5311,376.3359,444.5311,372.3359" style="stroke: #B38D22; stroke-width: 1.0;"/><text fill="#000000" font-family="sans-serif" font-size="11" lengthAdjust="spacingAndGlyphs" textLength="73" x="457.5311" y="377.7549">execute(): void</text><polygon fill="#FFFF44" points="448.5311,382.1719,452.5311,386.1719,448.5311,390.1719,444.5311,386.1719" style="stroke: #B38D22; stroke-width: 1.0;"/><text fill="#000000" font-family="sans-serif" font-size="11" lengthAdjust="spacingAndGlyphs" textLength="91" x="457.5311" y="391.5908">isActive(): boolean</text><!--MD5=[dcf719b4766208d68ecb2f6f86eede79]
class tictactoe.views.menus.PlayMenu--><rect fill="#FEFECE" filter="url(#foo8ajioz7qcb)" height="61.8359" id="tictactoe.views.menus.PlayMenu" style="stroke: #A80036; stroke-width: 1.5;" width="146" x="1023.5301" y="173"/><ellipse cx="1065.9801" cy="189" fill="#ADD1B2" rx="11" ry="11" style="stroke: #A80036; stroke-width: 1.0;"/><path d="M1068.7457,184.875 Q1068.902,184.6563 1069.0895,184.5469 Q1069.277,184.4375 1069.4957,184.4375 Q1069.8707,184.4375 1070.1051,184.7031 Q1070.3395,184.9531 1070.3395,185.5625 L1070.3395,187.0156 Q1070.3395,187.625 1070.1051,187.8906 Q1069.8707,188.1563 1069.4957,188.1563 Q1069.152,188.1563 1068.9489,187.9531 Q1068.7457,187.7656 1068.6364,187.25 Q1068.5895,186.8906 1068.402,186.7031 Q1068.0739,186.3281 1067.4645,186.1094 Q1066.8551,185.8906 1066.2301,185.8906 Q1065.4645,185.8906 1064.8239,186.2188 Q1064.1989,186.5469 1063.6989,187.2969 Q1063.2145,188.0469 1063.2145,189.0781 L1063.2145,190.1719 Q1063.2145,191.4063 1064.1051,192.2344 Q1064.9957,193.0469 1066.5895,193.0469 Q1067.527,193.0469 1068.1832,192.7969 Q1068.5739,192.6406 1068.9957,192.2031 Q1069.2614,191.9375 1069.402,191.8594 Q1069.5582,191.7813 1069.7614,191.7813 Q1070.0895,191.7813 1070.3395,192.0469 Q1070.6051,192.2969 1070.6051,192.6406 Q1070.6051,192.9844 1070.2614,193.3906 Q1069.7614,193.9688 1068.9645,194.2969 Q1067.8864,194.75 1066.5895,194.75 Q1065.0739,194.75 1063.8707,194.125 Q1062.8864,193.625 1062.1989,192.5625 Q1061.5114,191.4844 1061.5114,190.2031 L1061.5114,189.0469 Q1061.5114,187.7188 1062.1207,186.5781 Q1062.7457,185.4219 1063.8395,184.8125 Q1064.9332,184.1875 1066.1676,184.1875 Q1066.902,184.1875 1067.5426,184.3594 Q1068.1989,184.5156 1068.7457,184.875 Z "/><text fill="#000000" font-family="sans-serif" font-size="12" lengthAdjust="spacingAndGlyphs" textLength="53" x="1086.0801" y="193.9102">PlayMenu</text><line style="stroke: #A80036; stroke-width: 1.5;" x1="1024.5301" x2="1168.5301" y1="205" y2="205"/><line style="stroke: #A80036; stroke-width: 1.5;" x1="1024.5301" x2="1168.5301" y1="213" y2="213"/><polygon fill="#4177AF" points="1034.5301,220,1030.5301,226,1038.5301,226" style="stroke: #1963A0; stroke-width: 1.0;"/><text fill="#000000" font-family="sans-serif" font-size="11" lengthAdjust="spacingAndGlyphs" textLength="120" x="1043.5301" y="228.4189">PlayMenu(PlayController)</text><!--MD5=[0bf9e16d560ad4cee24d96209cde1e3e]
class tictactoe.views.menus.UndoCommand--><rect fill="#FEFECE" filter="url(#foo8ajioz7qcb)" height="103.3438" id="tictactoe.views.menus.UndoCommand" style="stroke: #A80036; stroke-width: 1.5;" width="172" x="1112.5301" y="302"/><ellipse cx="1150.4801" cy="318" fill="#ADD1B2" rx="11" ry="11" style="stroke: #A80036; stroke-width: 1.0;"/><path d="M1153.2457,313.875 Q1153.402,313.6563 1153.5895,313.5469 Q1153.777,313.4375 1153.9957,313.4375 Q1154.3707,313.4375 1154.6051,313.7031 Q1154.8395,313.9531 1154.8395,314.5625 L1154.8395,316.0156 Q1154.8395,316.625 1154.6051,316.8906 Q1154.3707,317.1563 1153.9957,317.1563 Q1153.652,317.1563 1153.4489,316.9531 Q1153.2457,316.7656 1153.1364,316.25 Q1153.0895,315.8906 1152.902,315.7031 Q1152.5739,315.3281 1151.9645,315.1094 Q1151.3551,314.8906 1150.7301,314.8906 Q1149.9645,314.8906 1149.3239,315.2188 Q1148.6989,315.5469 1148.1989,316.2969 Q1147.7145,317.0469 1147.7145,318.0781 L1147.7145,319.1719 Q1147.7145,320.4063 1148.6051,321.2344 Q1149.4957,322.0469 1151.0895,322.0469 Q1152.027,322.0469 1152.6832,321.7969 Q1153.0739,321.6406 1153.4957,321.2031 Q1153.7614,320.9375 1153.902,320.8594 Q1154.0582,320.7813 1154.2614,320.7813 Q1154.5895,320.7813 1154.8395,321.0469 Q1155.1051,321.2969 1155.1051,321.6406 Q1155.1051,321.9844 1154.7614,322.3906 Q1154.2614,322.9688 1153.4645,323.2969 Q1152.3864,323.75 1151.0895,323.75 Q1149.5739,323.75 1148.3707,323.125 Q1147.3864,322.625 1146.6989,321.5625 Q1146.0114,320.4844 1146.0114,319.2031 L1146.0114,318.0469 Q1146.0114,316.7188 1146.6207,315.5781 Q1147.2457,314.4219 1148.3395,313.8125 Q1149.4332,313.1875 1150.6676,313.1875 Q1151.402,313.1875 1152.0426,313.3594 Q1152.6989,313.5156 1153.2457,313.875 Z "/><text fill="#000000" font-family="sans-serif" font-size="12" lengthAdjust="spacingAndGlyphs" textLength="89" x="1169.5801" y="322.9102">UndoCommand</text><line style="stroke: #A80036; stroke-width: 1.5;" x1="1113.5301" x2="1283.5301" y1="334" y2="334"/><rect fill="none" height="6" style="stroke: #C82930; stroke-width: 1.0;" width="6" x="1120.5301" y="342"/><text fill="#000000" font-family="sans-serif" font-size="11" lengthAdjust="spacingAndGlyphs" textLength="138" x="1132.5301" y="349.4189">playController: PlayController</text><line style="stroke: #A80036; stroke-width: 1.5;" x1="1113.5301" x2="1283.5301" y1="355.8359" y2="355.8359"/><polygon fill="#4177AF" points="1123.5301,362.8359,1119.5301,368.8359,1127.5301,368.8359" style="stroke: #1963A0; stroke-width: 1.0;"/><text fill="#000000" font-family="sans-serif" font-size="11" lengthAdjust="spacingAndGlyphs" textLength="146" x="1132.5301" y="371.2549">UndoCommand(PlayController)</text><polygon fill="#FFFF44" points="1123.5301,375.6719,1127.5301,379.6719,1123.5301,383.6719,1119.5301,379.6719" style="stroke: #B38D22; stroke-width: 1.0;"/><text fill="#000000" font-family="sans-serif" font-size="11" lengthAdjust="spacingAndGlyphs" textLength="73" x="1132.5301" y="385.0908">execute(): void</text><polygon fill="#FFFF44" points="1123.5301,389.5078,1127.5301,393.5078,1123.5301,397.5078,1119.5301,393.5078" style="stroke: #B38D22; stroke-width: 1.0;"/><text fill="#000000" font-family="sans-serif" font-size="11" lengthAdjust="spacingAndGlyphs" textLength="91" x="1132.5301" y="398.9268">isActive(): boolean</text><!--MD5=[d1e22b8641b970b3d90eda735cb0b121]
class tictactoe.views.menus.RedoCommand--><rect fill="#FEFECE" filter="url(#foo8ajioz7qcb)" height="103.3438" id="tictactoe.views.menus.RedoCommand" style="stroke: #A80036; stroke-width: 1.5;" width="172" x="1550.5301" y="302"/><ellipse cx="1588.4801" cy="318" fill="#ADD1B2" rx="11" ry="11" style="stroke: #A80036; stroke-width: 1.0;"/><path d="M1591.2457,313.875 Q1591.402,313.6563 1591.5895,313.5469 Q1591.777,313.4375 1591.9957,313.4375 Q1592.3707,313.4375 1592.6051,313.7031 Q1592.8395,313.9531 1592.8395,314.5625 L1592.8395,316.0156 Q1592.8395,316.625 1592.6051,316.8906 Q1592.3707,317.1563 1591.9957,317.1563 Q1591.652,317.1563 1591.4489,316.9531 Q1591.2457,316.7656 1591.1364,316.25 Q1591.0895,315.8906 1590.902,315.7031 Q1590.5739,315.3281 1589.9645,315.1094 Q1589.3551,314.8906 1588.7301,314.8906 Q1587.9645,314.8906 1587.3239,315.2188 Q1586.6989,315.5469 1586.1989,316.2969 Q1585.7145,317.0469 1585.7145,318.0781 L1585.7145,319.1719 Q1585.7145,320.4063 1586.6051,321.2344 Q1587.4957,322.0469 1589.0895,322.0469 Q1590.027,322.0469 1590.6832,321.7969 Q1591.0739,321.6406 1591.4957,321.2031 Q1591.7614,320.9375 1591.902,320.8594 Q1592.0582,320.7813 1592.2614,320.7813 Q1592.5895,320.7813 1592.8395,321.0469 Q1593.1051,321.2969 1593.1051,321.6406 Q1593.1051,321.9844 1592.7614,322.3906 Q1592.2614,322.9688 1591.4645,323.2969 Q1590.3864,323.75 1589.0895,323.75 Q1587.5739,323.75 1586.3707,323.125 Q1585.3864,322.625 1584.6989,321.5625 Q1584.0114,320.4844 1584.0114,319.2031 L1584.0114,318.0469 Q1584.0114,316.7188 1584.6207,315.5781 Q1585.2457,314.4219 1586.3395,313.8125 Q1587.4332,313.1875 1588.6676,313.1875 Q1589.402,313.1875 1590.0426,313.3594 Q1590.6989,313.5156 1591.2457,313.875 Z "/><text fill="#000000" font-family="sans-serif" font-size="12" lengthAdjust="spacingAndGlyphs" textLength="89" x="1607.5801" y="322.9102">RedoCommand</text><line style="stroke: #A80036; stroke-width: 1.5;" x1="1551.5301" x2="1721.5301" y1="334" y2="334"/><rect fill="none" height="6" style="stroke: #C82930; stroke-width: 1.0;" width="6" x="1558.5301" y="342"/><text fill="#000000" font-family="sans-serif" font-size="11" lengthAdjust="spacingAndGlyphs" textLength="138" x="1570.5301" y="349.4189">playController: PlayController</text><line style="stroke: #A80036; stroke-width: 1.5;" x1="1551.5301" x2="1721.5301" y1="355.8359" y2="355.8359"/><polygon fill="#4177AF" points="1561.5301,362.8359,1557.5301,368.8359,1565.5301,368.8359" style="stroke: #1963A0; stroke-width: 1.0;"/><text fill="#000000" font-family="sans-serif" font-size="11" lengthAdjust="spacingAndGlyphs" textLength="146" x="1570.5301" y="371.2549">RedoCommand(PlayController)</text><polygon fill="#FFFF44" points="1561.5301,375.6719,1565.5301,379.6719,1561.5301,383.6719,1557.5301,379.6719" style="stroke: #B38D22; stroke-width: 1.0;"/><text fill="#000000" font-family="sans-serif" font-size="11" lengthAdjust="spacingAndGlyphs" textLength="73" x="1570.5301" y="385.0908">execute(): void</text><polygon fill="#FFFF44" points="1561.5301,389.5078,1565.5301,393.5078,1561.5301,397.5078,1557.5301,393.5078" style="stroke: #B38D22; stroke-width: 1.0;"/><text fill="#000000" font-family="sans-serif" font-size="11" lengthAdjust="spacingAndGlyphs" textLength="91" x="1570.5301" y="398.9268">isActive(): boolean</text><!--MD5=[c3a348d5621f8c2aeba5d733705dd6a6]
class tictactoe.views.menus.StartMenu--><rect fill="#FEFECE" filter="url(#foo8ajioz7qcb)" height="61.8359" id="tictactoe.views.menus.StartMenu" style="stroke: #A80036; stroke-width: 1.5;" width="152" x="473.5311" y="173"/><ellipse cx="517.7811" cy="189" fill="#ADD1B2" rx="11" ry="11" style="stroke: #A80036; stroke-width: 1.0;"/><path d="M520.5467,184.875 Q520.703,184.6563 520.8905,184.5469 Q521.078,184.4375 521.2967,184.4375 Q521.6717,184.4375 521.9061,184.7031 Q522.1405,184.9531 522.1405,185.5625 L522.1405,187.0156 Q522.1405,187.625 521.9061,187.8906 Q521.6717,188.1563 521.2967,188.1563 Q520.953,188.1563 520.7498,187.9531 Q520.5467,187.7656 520.4373,187.25 Q520.3905,186.8906 520.203,186.7031 Q519.8748,186.3281 519.2655,186.1094 Q518.6561,185.8906 518.0311,185.8906 Q517.2655,185.8906 516.6248,186.2188 Q515.9998,186.5469 515.4998,187.2969 Q515.0155,188.0469 515.0155,189.0781 L515.0155,190.1719 Q515.0155,191.4063 515.9061,192.2344 Q516.7967,193.0469 518.3905,193.0469 Q519.328,193.0469 519.9842,192.7969 Q520.3748,192.6406 520.7967,192.2031 Q521.0623,191.9375 521.203,191.8594 Q521.3592,191.7813 521.5623,191.7813 Q521.8905,191.7813 522.1405,192.0469 Q522.4061,192.2969 522.4061,192.6406 Q522.4061,192.9844 522.0623,193.3906 Q521.5623,193.9688 520.7655,194.2969 Q519.6873,194.75 518.3905,194.75 Q516.8748,194.75 515.6717,194.125 Q514.6873,193.625 513.9998,192.5625 Q513.3123,191.4844 513.3123,190.2031 L513.3123,189.0469 Q513.3123,187.7188 513.9217,186.5781 Q514.5467,185.4219 515.6405,184.8125 Q516.7342,184.1875 517.9686,184.1875 Q518.703,184.1875 519.3436,184.3594 Q519.9998,184.5156 520.5467,184.875 Z "/><text fill="#000000" font-family="sans-serif" font-size="12" lengthAdjust="spacingAndGlyphs" textLength="55" x="538.2811" y="193.9102">StartMenu</text><line style="stroke: #A80036; stroke-width: 1.5;" x1="474.5311" x2="624.5311" y1="205" y2="205"/><line style="stroke: #A80036; stroke-width: 1.5;" x1="474.5311" x2="624.5311" y1="213" y2="213"/><ellipse cx="484.5311" cy="224" fill="#84BE84" rx="3" ry="3" style="stroke: #038048; stroke-width: 1.0;"/><text fill="#000000" font-family="sans-serif" font-size="11" lengthAdjust="spacingAndGlyphs" textLength="126" x="493.5311" y="228.4189">StartMenu(StartController)</text><!--MD5=[8356458262f68e05fc628f2b3e46c9c1]
class utils.Command--><rect fill="#FEFECE" filter="url(#foo8ajioz7qcb)" height="48" id="utils.Command" style="stroke: #A80036; stroke-width: 1.5;" width="91" x="674.0311" y="42"/><ellipse cx="689.0311" cy="58" fill="#ADD1B2" rx="11" ry="11" style="stroke: #A80036; stroke-width: 1.0;"/><path d="M691.7967,53.875 Q691.953,53.6563 692.1405,53.5469 Q692.328,53.4375 692.5467,53.4375 Q692.9217,53.4375 693.1561,53.7031 Q693.3905,53.9531 693.3905,54.5625 L693.3905,56.0156 Q693.3905,56.625 693.1561,56.8906 Q692.9217,57.1563 692.5467,57.1563 Q692.203,57.1563 691.9999,56.9531 Q691.7967,56.7656 691.6874,56.25 Q691.6405,55.8906 691.453,55.7031 Q691.1249,55.3281 690.5155,55.1094 Q689.9061,54.8906 689.2811,54.8906 Q688.5155,54.8906 687.8749,55.2188 Q687.2499,55.5469 686.7499,56.2969 Q686.2655,57.0469 686.2655,58.0781 L686.2655,59.1719 Q686.2655,60.4063 687.1561,61.2344 Q688.0467,62.0469 689.6405,62.0469 Q690.578,62.0469 691.2342,61.7969 Q691.6249,61.6406 692.0467,61.2031 Q692.3124,60.9375 692.453,60.8594 Q692.6092,60.7813 692.8124,60.7813 Q693.1405,60.7813 693.3905,61.0469 Q693.6561,61.2969 693.6561,61.6406 Q693.6561,61.9844 693.3124,62.3906 Q692.8124,62.9688 692.0155,63.2969 Q690.9374,63.75 689.6405,63.75 Q688.1249,63.75 686.9217,63.125 Q685.9374,62.625 685.2499,61.5625 Q684.5624,60.4844 684.5624,59.2031 L684.5624,58.0469 Q684.5624,56.7188 685.1717,55.5781 Q685.7967,54.4219 686.8905,53.8125 Q687.9842,53.1875 689.2186,53.1875 Q689.953,53.1875 690.5936,53.3594 Q691.2499,53.5156 691.7967,53.875 Z "/><text fill="#000000" font-family="sans-serif" font-size="12" lengthAdjust="spacingAndGlyphs" textLength="59" x="703.0311" y="62.9102">Command</text><line style="stroke: #A80036; stroke-width: 1.5;" x1="675.0311" x2="764.0311" y1="74" y2="74"/><line style="stroke: #A80036; stroke-width: 1.5;" x1="675.0311" x2="764.0311" y1="82" y2="82"/><!--MD5=[ad57fc3fed10c44941145670cf00f844]
class utils.Menu--><rect fill="#FEFECE" filter="url(#foo8ajioz7qcb)" height="48" id="utils.Menu" style="stroke: #A80036; stroke-width: 1.5;" width="62" x="576.5311" y="42"/><ellipse cx="591.5311" cy="58" fill="#ADD1B2" rx="11" ry="11" style="stroke: #A80036; stroke-width: 1.0;"/><path d="M594.2967,53.875 Q594.453,53.6563 594.6405,53.5469 Q594.828,53.4375 595.0467,53.4375 Q595.4217,53.4375 595.6561,53.7031 Q595.8905,53.9531 595.8905,54.5625 L595.8905,56.0156 Q595.8905,56.625 595.6561,56.8906 Q595.4217,57.1563 595.0467,57.1563 Q594.703,57.1563 594.4999,56.9531 Q594.2967,56.7656 594.1874,56.25 Q594.1405,55.8906 593.953,55.7031 Q593.6249,55.3281 593.0155,55.1094 Q592.4061,54.8906 591.7811,54.8906 Q591.0155,54.8906 590.3749,55.2188 Q589.7499,55.5469 589.2499,56.2969 Q588.7655,57.0469 588.7655,58.0781 L588.7655,59.1719 Q588.7655,60.4063 589.6561,61.2344 Q590.5467,62.0469 592.1405,62.0469 Q593.078,62.0469 593.7342,61.7969 Q594.1249,61.6406 594.5467,61.2031 Q594.8124,60.9375 594.953,60.8594 Q595.1092,60.7813 595.3124,60.7813 Q595.6405,60.7813 595.8905,61.0469 Q596.1561,61.2969 596.1561,61.6406 Q596.1561,61.9844 595.8124,62.3906 Q595.3124,62.9688 594.5155,63.2969 Q593.4374,63.75 592.1405,63.75 Q590.6249,63.75 589.4217,63.125 Q588.4374,62.625 587.7499,61.5625 Q587.0624,60.4844 587.0624,59.2031 L587.0624,58.0469 Q587.0624,56.7188 587.6717,55.5781 Q588.2967,54.4219 589.3905,53.8125 Q590.4842,53.1875 591.7186,53.1875 Q592.453,53.1875 593.0936,53.3594 Q593.7499,53.5156 594.2967,53.875 Z "/><text fill="#000000" font-family="sans-serif" font-size="12" lengthAdjust="spacingAndGlyphs" textLength="30" x="605.5311" y="62.9102">Menu</text><line style="stroke: #A80036; stroke-width: 1.5;" x1="577.5311" x2="637.5311" y1="74" y2="74"/><line style="stroke: #A80036; stroke-width: 1.5;" x1="577.5311" x2="637.5311" y1="82" y2="82"/><!--MD5=[294b28e7c71f580fcd8922373db841ed]
class tictactoe.controllers.AcceptorController--><rect fill="#FEFECE" filter="url(#foo8ajioz7qcb)" height="48" id="tictactoe.controllers.AcceptorController" style="stroke: #A80036; stroke-width: 1.5;" width="133" x="316.0311" y="481"/><ellipse cx="331.0311" cy="497" fill="#ADD1B2" rx="11" ry="11" style="stroke: #A80036; stroke-width: 1.0;"/><path d="M333.7967,492.875 Q333.953,492.6563 334.1405,492.5469 Q334.328,492.4375 334.5467,492.4375 Q334.9217,492.4375 335.1561,492.7031 Q335.3905,492.9531 335.3905,493.5625 L335.3905,495.0156 Q335.3905,495.625 335.1561,495.8906 Q334.9217,496.1563 334.5467,496.1563 Q334.203,496.1563 333.9999,495.9531 Q333.7967,495.7656 333.6874,495.25 Q333.6405,494.8906 333.453,494.7031 Q333.1249,494.3281 332.5155,494.1094 Q331.9061,493.8906 331.2811,493.8906 Q330.5155,493.8906 329.8749,494.2188 Q329.2499,494.5469 328.7499,495.2969 Q328.2655,496.0469 328.2655,497.0781 L328.2655,498.1719 Q328.2655,499.4063 329.1561,500.2344 Q330.0467,501.0469 331.6405,501.0469 Q332.578,501.0469 333.2342,500.7969 Q333.6249,500.6406 334.0467,500.2031 Q334.3124,499.9375 334.453,499.8594 Q334.6092,499.7813 334.8124,499.7813 Q335.1405,499.7813 335.3905,500.0469 Q335.6561,500.2969 335.6561,500.6406 Q335.6561,500.9844 335.3124,501.3906 Q334.8124,501.9688 334.0155,502.2969 Q332.9374,502.75 331.6405,502.75 Q330.1249,502.75 328.9217,502.125 Q327.9374,501.625 327.2499,500.5625 Q326.5624,499.4844 326.5624,498.2031 L326.5624,497.0469 Q326.5624,495.7188 327.1717,494.5781 Q327.7967,493.4219 328.8905,492.8125 Q329.9842,492.1875 331.2186,492.1875 Q331.953,492.1875 332.5936,492.3594 Q333.2499,492.5156 333.7967,492.875 Z "/><text fill="#000000" font-family="sans-serif" font-size="12" lengthAdjust="spacingAndGlyphs" textLength="101" x="345.0311" y="501.9102">AcceptorController</text><line style="stroke: #A80036; stroke-width: 1.5;" x1="317.0311" x2="448.0311" y1="513" y2="513"/><line style="stroke: #A80036; stroke-width: 1.5;" x1="317.0311" x2="448.0311" y1="521" y2="521"/><!--MD5=[b574e60c06c50037ff1b014277a67d62]
class tictactoe.controllers.PlayController--><rect fill="#FEFECE" filter="url(#foo8ajioz7qcb)" height="48" id="tictactoe.controllers.PlayController" style="stroke: #A80036; stroke-width: 1.5;" width="109" x="630.0311" y="481"/><ellipse cx="645.0311" cy="497" fill="#ADD1B2" rx="11" ry="11" style="stroke: #A80036; stroke-width: 1.0;"/><path d="M647.7967,492.875 Q647.953,492.6563 648.1405,492.5469 Q648.328,492.4375 648.5467,492.4375 Q648.9217,492.4375 649.1561,492.7031 Q649.3905,492.9531 649.3905,493.5625 L649.3905,495.0156 Q649.3905,495.625 649.1561,495.8906 Q648.9217,496.1563 648.5467,496.1563 Q648.203,496.1563 647.9999,495.9531 Q647.7967,495.7656 647.6874,495.25 Q647.6405,494.8906 647.453,494.7031 Q647.1249,494.3281 646.5155,494.1094 Q645.9061,493.8906 645.2811,493.8906 Q644.5155,493.8906 643.8749,494.2188 Q643.2499,494.5469 642.7499,495.2969 Q642.2655,496.0469 642.2655,497.0781 L642.2655,498.1719 Q642.2655,499.4063 643.1561,500.2344 Q644.0467,501.0469 645.6405,501.0469 Q646.578,501.0469 647.2342,500.7969 Q647.6249,500.6406 648.0467,500.2031 Q648.3124,499.9375 648.453,499.8594 Q648.6092,499.7813 648.8124,499.7813 Q649.1405,499.7813 649.3905,500.0469 Q649.6561,500.2969 649.6561,500.6406 Q649.6561,500.9844 649.3124,501.3906 Q648.8124,501.9688 648.0155,502.2969 Q646.9374,502.75 645.6405,502.75 Q644.1249,502.75 642.9217,502.125 Q641.9374,501.625 641.2499,500.5625 Q640.5624,499.4844 640.5624,498.2031 L640.5624,497.0469 Q640.5624,495.7188 641.1717,494.5781 Q641.7967,493.4219 642.8905,492.8125 Q643.9842,492.1875 645.2186,492.1875 Q645.953,492.1875 646.5936,492.3594 Q647.2499,492.5156 647.7967,492.875 Z "/><text fill="#000000" font-family="sans-serif" font-size="12" lengthAdjust="spacingAndGlyphs" textLength="77" x="659.0311" y="501.9102">PlayController</text><line style="stroke: #A80036; stroke-width: 1.5;" x1="631.0311" x2="738.0311" y1="513" y2="513"/><line style="stroke: #A80036; stroke-width: 1.5;" x1="631.0311" x2="738.0311" y1="521" y2="521"/><!--MD5=[8ede4dbfb3b498095887802b64b699f0]
class tictactoe.controllers.StartController--><rect fill="#FEFECE" filter="url(#foo8ajioz7qcb)" height="48" id="tictactoe.controllers.StartController" style="stroke: #A80036; stroke-width: 1.5;" width="111" x="484.0311" y="481"/><ellipse cx="499.0311" cy="497" fill="#ADD1B2" rx="11" ry="11" style="stroke: #A80036; stroke-width: 1.0;"/><path d="M501.7967,492.875 Q501.953,492.6563 502.1405,492.5469 Q502.328,492.4375 502.5467,492.4375 Q502.9217,492.4375 503.1561,492.7031 Q503.3905,492.9531 503.3905,493.5625 L503.3905,495.0156 Q503.3905,495.625 503.1561,495.8906 Q502.9217,496.1563 502.5467,496.1563 Q502.203,496.1563 501.9999,495.9531 Q501.7967,495.7656 501.6874,495.25 Q501.6405,494.8906 501.453,494.7031 Q501.1249,494.3281 500.5155,494.1094 Q499.9061,493.8906 499.2811,493.8906 Q498.5155,493.8906 497.8749,494.2188 Q497.2499,494.5469 496.7499,495.2969 Q496.2655,496.0469 496.2655,497.0781 L496.2655,498.1719 Q496.2655,499.4063 497.1561,500.2344 Q498.0467,501.0469 499.6405,501.0469 Q500.578,501.0469 501.2342,500.7969 Q501.6249,500.6406 502.0467,500.2031 Q502.3124,499.9375 502.453,499.8594 Q502.6092,499.7813 502.8124,499.7813 Q503.1405,499.7813 503.3905,500.0469 Q503.6561,500.2969 503.6561,500.6406 Q503.6561,500.9844 503.3124,501.3906 Q502.8124,501.9688 502.0155,502.2969 Q500.9374,502.75 499.6405,502.75 Q498.1249,502.75 496.9217,502.125 Q495.9374,501.625 495.2499,500.5625 Q494.5624,499.4844 494.5624,498.2031 L494.5624,497.0469 Q494.5624,495.7188 495.1717,494.5781 Q495.7967,493.4219 496.8905,492.8125 Q497.9842,492.1875 499.2186,492.1875 Q499.953,492.1875 500.5936,492.3594 Q501.2499,492.5156 501.7967,492.875 Z "/><text fill="#000000" font-family="sans-serif" font-size="12" lengthAdjust="spacingAndGlyphs" textLength="79" x="513.0311" y="501.9102">StartController</text><line style="stroke: #A80036; stroke-width: 1.5;" x1="485.0311" x2="594.0311" y1="513" y2="513"/><line style="stroke: #A80036; stroke-width: 1.5;" x1="485.0311" x2="594.0311" y1="521" y2="521"/><!--MD5=[3eea00d89eb7af8160b9007b551ff4f7]
class tictactoe.views.models.MessageView--><rect fill="#FEFECE" filter="url(#foo8ajioz7qcb)" height="48" id="tictactoe.views.models.MessageView" style="stroke: #A80036; stroke-width: 1.5;" width="109" x="1295.0301" y="481"/><ellipse cx="1310.0301" cy="497" fill="#ADD1B2" rx="11" ry="11" style="stroke: #A80036; stroke-width: 1.0;"/><path d="M1312.7957,492.875 Q1312.952,492.6563 1313.1395,492.5469 Q1313.327,492.4375 1313.5457,492.4375 Q1313.9207,492.4375 1314.1551,492.7031 Q1314.3895,492.9531 1314.3895,493.5625 L1314.3895,495.0156 Q1314.3895,495.625 1314.1551,495.8906 Q1313.9207,496.1563 1313.5457,496.1563 Q1313.202,496.1563 1312.9989,495.9531 Q1312.7957,495.7656 1312.6864,495.25 Q1312.6395,494.8906 1312.452,494.7031 Q1312.1239,494.3281 1311.5145,494.1094 Q1310.9051,493.8906 1310.2801,493.8906 Q1309.5145,493.8906 1308.8739,494.2188 Q1308.2489,494.5469 1307.7489,495.2969 Q1307.2645,496.0469 1307.2645,497.0781 L1307.2645,498.1719 Q1307.2645,499.4063 1308.1551,500.2344 Q1309.0457,501.0469 1310.6395,501.0469 Q1311.577,501.0469 1312.2332,500.7969 Q1312.6239,500.6406 1313.0457,500.2031 Q1313.3114,499.9375 1313.452,499.8594 Q1313.6082,499.7813 1313.8114,499.7813 Q1314.1395,499.7813 1314.3895,500.0469 Q1314.6551,500.2969 1314.6551,500.6406 Q1314.6551,500.9844 1314.3114,501.3906 Q1313.8114,501.9688 1313.0145,502.2969 Q1311.9364,502.75 1310.6395,502.75 Q1309.1239,502.75 1307.9207,502.125 Q1306.9364,501.625 1306.2489,500.5625 Q1305.5614,499.4844 1305.5614,498.2031 L1305.5614,497.0469 Q1305.5614,495.7188 1306.1707,494.5781 Q1306.7957,493.4219 1307.8895,492.8125 Q1308.9832,492.1875 1310.2176,492.1875 Q1310.952,492.1875 1311.5926,492.3594 Q1312.2489,492.5156 1312.7957,492.875 Z "/><text fill="#000000" font-family="sans-serif" font-size="12" lengthAdjust="spacingAndGlyphs" textLength="77" x="1324.0301" y="501.9102">MessageView</text><line style="stroke: #A80036; stroke-width: 1.5;" x1="1296.0301" x2="1403.0301" y1="513" y2="513"/><line style="stroke: #A80036; stroke-width: 1.5;" x1="1296.0301" x2="1403.0301" y1="521" y2="521"/><!--MD5=[790c12d02b838eb204554276c6d1db49]
class tictactoe.views.models.GameView--><rect fill="#FEFECE" filter="url(#foo8ajioz7qcb)" height="48" id="tictactoe.views.models.GameView" style="stroke: #A80036; stroke-width: 1.5;" width="92" x="1439.5301" y="481"/><ellipse cx="1454.5301" cy="497" fill="#ADD1B2" rx="11" ry="11" style="stroke: #A80036; stroke-width: 1.0;"/><path d="M1457.2957,492.875 Q1457.452,492.6563 1457.6395,492.5469 Q1457.827,492.4375 1458.0457,492.4375 Q1458.4207,492.4375 1458.6551,492.7031 Q1458.8895,492.9531 1458.8895,493.5625 L1458.8895,495.0156 Q1458.8895,495.625 1458.6551,495.8906 Q1458.4207,496.1563 1458.0457,496.1563 Q1457.702,496.1563 1457.4989,495.9531 Q1457.2957,495.7656 1457.1864,495.25 Q1457.1395,494.8906 1456.952,494.7031 Q1456.6239,494.3281 1456.0145,494.1094 Q1455.4051,493.8906 1454.7801,493.8906 Q1454.0145,493.8906 1453.3739,494.2188 Q1452.7489,494.5469 1452.2489,495.2969 Q1451.7645,496.0469 1451.7645,497.0781 L1451.7645,498.1719 Q1451.7645,499.4063 1452.6551,500.2344 Q1453.5457,501.0469 1455.1395,501.0469 Q1456.077,501.0469 1456.7332,500.7969 Q1457.1239,500.6406 1457.5457,500.2031 Q1457.8114,499.9375 1457.952,499.8594 Q1458.1082,499.7813 1458.3114,499.7813 Q1458.6395,499.7813 1458.8895,500.0469 Q1459.1551,500.2969 1459.1551,500.6406 Q1459.1551,500.9844 1458.8114,501.3906 Q1458.3114,501.9688 1457.5145,502.2969 Q1456.4364,502.75 1455.1395,502.75 Q1453.6239,502.75 1452.4207,502.125 Q1451.4364,501.625 1450.7489,500.5625 Q1450.0614,499.4844 1450.0614,498.2031 L1450.0614,497.0469 Q1450.0614,495.7188 1450.6707,494.5781 Q1451.2957,493.4219 1452.3895,492.8125 Q1453.4832,492.1875 1454.7176,492.1875 Q1455.452,492.1875 1456.0926,492.3594 Q1456.7489,492.5156 1457.2957,492.875 Z "/><text fill="#000000" font-family="sans-serif" font-size="12" lengthAdjust="spacingAndGlyphs" textLength="60" x="1468.5301" y="501.9102">GameView</text><line style="stroke: #A80036; stroke-width: 1.5;" x1="1440.5301" x2="1530.5301" y1="513" y2="513"/><line style="stroke: #A80036; stroke-width: 1.5;" x1="1440.5301" x2="1530.5301" y1="521" y2="521"/><!--MD5=[05c118dc6a84f7f565af3615e8a6e44c]
reverse link utils.Command to tictactoe.views.menus.Command--><path d="M737.3311,108.737 C745.1191,126.999 754.1801,148.247 761.7271,165.941 " fill="none" id="utils.Command&lt;-tictactoe.views.menus.Command" style="stroke: #A80036; stroke-width: 1.0;"/><polygon fill="none" points="730.7771,111.213,729.3701,90.071,743.6551,105.721,730.7771,111.213" style="stroke: #A80036; stroke-width: 1.0;"/><!--MD5=[1319edc746cb91c4a56257b34fddfe3a]
link tictactoe.views.menus.Command to tictactoe.controllers.AcceptorController--><path d="M659.7185,238.4637 C659.7185,238.4637 647.8371,240.996 642.5311,242 C519.3401,265.312 165.3401,208.75 81.5313,302 C43.8009,343.981 46.7773,384.524 81.5313,429 C108.5446,463.5701 223.0961,484.5159 302.8181,495.1766 " fill="none" id="tictactoe.views.menus.Command-tictactoe.controllers.AcceptorController" style="stroke: #A80036; stroke-width: 1.0;"/><polygon fill="#A80036" points="315.7871,496.862,307.3778,491.7353,310.8288,496.2175,306.3466,499.6685,315.7871,496.862" style="stroke: #A80036; stroke-width: 1.0;"/><line style="stroke: #A80036; stroke-width: 1.0;" x1="310.8288" x2="302.8956" y1="496.2175" y2="495.1867"/><polygon fill="#A80036" points="671.4191,235.8,664.6809,233.2317,659.7185,238.4637,666.4567,241.0321,671.4191,235.8" style="stroke: #A80036; stroke-width: 1.0;"/><!--MD5=[384c35fbcdb5af22fce153c698571f05]
reverse link tictactoe.views.menus.Command to tictactoe.views.menus.ExitCommand--><path d="M848.9331,253.311 C875.1421,271.044 904.6571,291.014 930.2971,308.362 " fill="none" id="tictactoe.views.menus.Command&lt;-tictactoe.views.menus.ExitCommand" style="stroke: #A80036; stroke-width: 1.0;"/><polygon fill="none" points="844.9021,259.035,832.2601,242.03,852.7481,247.44,844.9021,259.035" style="stroke: #A80036; stroke-width: 1.0;"/><!--MD5=[ac7bf3a3417f75b7cce631e07ed925b1]
link tictactoe.views.menus.ExitCommand to tictactoe.controllers.PlayController--><path d="M942.4851,398.59 C927.8491,409.459 911.5691,420.427 895.5311,429 C847.0011,454.942 787.6321,475.1251 744.2461,487.9868 " fill="none" id="tictactoe.views.menus.ExitCommand-&gt;tictactoe.controllers.PlayController" style="stroke: #A80036; stroke-width: 1.0; stroke-dasharray: 7.0,7.0;"/><polygon fill="#A80036" points="739.3021,489.4411,749.0652,490.7379,744.0988,488.0297,746.807,483.0632,739.3021,489.4411" style="stroke: #A80036; stroke-width: 1.0;"/><!--MD5=[ea929ee3c3b1f7af5c253dadde218977]
reverse link tictactoe.views.menus.Command to tictactoe.views.menus.GameSelectCommand--><path d="M651.8711,239.461 C648.7271,240.317 645.6091,241.164 642.5311,242 C543.4831,268.898 517.3741,271.001 419.5311,302 C413.0861,304.042 406.4971,306.202 399.8621,308.435 " fill="none" id="tictactoe.views.menus.Command&lt;-tictactoe.views.menus.GameSelectCommand" style="stroke: #A80036; stroke-width: 1.0;"/><polygon fill="none" points="650.2871,232.637,671.4241,234.131,653.9691,246.145,650.2871,232.637" style="stroke: #A80036; stroke-width: 1.0;"/><!--MD5=[58fc0903de8a9b3c3db724c5110ecad7]
link tictactoe.views.menus.GameSelectCommand to tictactoe.controllers.StartController--><path d="M352.5551,398.559 C373.4931,409.953 396.8791,421.195 419.5311,429 C439.5651,435.903 447.5031,427.677 466.5311,437 C485.8761,446.478 503.7631,462.7155 516.9891,476.8314 " fill="none" id="tictactoe.views.menus.GameSelectCommand-&gt;tictactoe.controllers.StartController" style="stroke: #A80036; stroke-width: 1.0; stroke-dasharray: 7.0,7.0;"/><polygon fill="#A80036" points="520.5941,480.7491,517.4447,471.4173,517.209,477.0693,511.557,476.8335,520.5941,480.7491" style="stroke: #A80036; stroke-width: 1.0;"/><!--MD5=[c5abc381df0db6b4b6d1895c406b01f8]
reverse link utils.Menu to tictactoe.views.menus.GameSelectMenu--><path d="M557.2591,83.935 C527.4411,94.29 489.0431,108.168 455.5311,122 C417.4921,137.7 375.6601,157.103 342.5471,172.983 " fill="none" id="utils.Menu&lt;-tictactoe.views.menus.GameSelectMenu" style="stroke: #A80036; stroke-width: 1.0;"/><polygon fill="none" points="555.1761,77.249,576.3661,77.373,559.7241,90.49,555.1761,77.249" style="stroke: #A80036; stroke-width: 1.0;"/><!--MD5=[9aa6f93d648f7b2117146f13cca21ae0]
link tictactoe.views.menus.GameSelectMenu to tictactoe.controllers.StartController--><path d="M187.8041,218.027 C136.5591,230.458 77.2207,254.713 45.5313,302 C14.1084,348.889 6,388.71 45.5313,429 C61.9149,445.698 444.8141,428.306 466.5311,437 C486.9681,445.181 505.2141,461.9252 518.3531,476.6267 " fill="none" id="tictactoe.views.menus.GameSelectMenu-&gt;tictactoe.controllers.StartController" style="stroke: #A80036; stroke-width: 1.0; stroke-dasharray: 7.0,7.0;"/><polygon fill="#A80036" points="521.9211,480.7104,519.0121,471.3009,518.6315,476.945,512.9875,476.5643,521.9211,480.7104" style="stroke: #A80036; stroke-width: 1.0;"/><!--MD5=[434d96dcba071a692f6639efab313782]
link tictactoe.views.menus.GameSelectMenu to tictactoe.views.menus.GameSelectCommand--><path d="M281.5311,247.205 C281.5311,247.205 281.5311,279.481 281.5311,295.022 " fill="none" id="tictactoe.views.menus.GameSelectMenu-tictactoe.views.menus.GameSelectCommand" style="stroke: #A80036; stroke-width: 1.0;"/><polygon fill="#A80036" points="281.5311,308.344,285.5311,299.344,281.5311,303.344,277.5311,299.344,281.5311,308.344" style="stroke: #A80036; stroke-width: 1.0;"/><line style="stroke: #A80036; stroke-width: 1.0;" x1="281.5311" x2="281.5311" y1="303.344" y2="295.3435"/><polygon fill="#A80036" points="281.5311,235.205,277.5311,241.205,281.5311,247.205,285.5311,241.205,281.5311,235.205" style="stroke: #A80036; stroke-width: 1.0;"/><!--MD5=[b7ef962a6042d3de25ffb08edc3c3c60]
reverse link tictactoe.views.menus.Command to tictactoe.views.menus.MovementCommand--><path d="M903.7531,226.746 C1046.7701,251.635 1264.9701,290.453 1302.5301,302 C1308.7801,303.922 1315.1501,306.087 1321.5201,308.412 " fill="none" id="tictactoe.views.menus.Command&lt;-tictactoe.views.menus.MovementCommand" style="stroke: #A80036; stroke-width: 1.0;"/><polygon fill="none" points="902.1691,233.576,883.6631,223.256,904.5661,219.783,902.1691,233.576" style="stroke: #A80036; stroke-width: 1.0;"/><!--MD5=[42fbb6fac9ec7ceaa4b783ecb7b60288]
link tictactoe.views.menus.MovementCommand to tictactoe.controllers.PlayController--><path d="M1360.5701,398.646 C1342.8501,410.328 1322.6601,421.703 1302.5301,429 C1200.5801,465.9606 878.7351,491.0603 744.3721,500.1836 " fill="none" id="tictactoe.views.menus.MovementCommand-&gt;tictactoe.controllers.PlayController" style="stroke: #A80036; stroke-width: 1.0; stroke-dasharray: 7.0,7.0;"/><polygon fill="#A80036" points="739.2831,500.5276,748.5323,503.9116,744.2717,500.1905,747.9929,495.9298,739.2831,500.5276" style="stroke: #A80036; stroke-width: 1.0;"/><!--MD5=[fe342c13a60af05134f273cd4465702a]
link tictactoe.views.menus.MovementCommand to tictactoe.views.models.MessageView--><path d="M1397.5001,398.546 C1386.1301,423.53 1372.2501,454.051 1362.3501,475.8174 " fill="none" id="tictactoe.views.menus.MovementCommand-&gt;tictactoe.views.models.MessageView" style="stroke: #A80036; stroke-width: 1.0; stroke-dasharray: 7.0,7.0;"/><polygon fill="#A80036" points="1360.1701,480.5996,1367.5343,474.0598,1362.2381,476.0473,1360.2506,470.7511,1360.1701,480.5996" style="stroke: #A80036; stroke-width: 1.0;"/><!--MD5=[238786891b5c4209150342faafa7b9ae]
link tictactoe.views.menus.MovementCommand to tictactoe.views.models.GameView--><path d="M1437.5701,398.546 C1448.9301,423.53 1462.8101,454.051 1472.7101,475.8174 " fill="none" id="tictactoe.views.menus.MovementCommand-&gt;tictactoe.views.models.GameView" style="stroke: #A80036; stroke-width: 1.0; stroke-dasharray: 7.0,7.0;"/><polygon fill="#A80036" points="1474.8901,480.5996,1474.8096,470.7511,1472.8221,476.0473,1467.5259,474.0598,1474.8901,480.5996" style="stroke: #A80036; stroke-width: 1.0;"/><!--MD5=[8c7aae62e0ab07b08c9cb072563f106a]
reverse link tictactoe.views.menus.Command to tictactoe.views.menus.NewGameCommand--><path d="M777.5311,262.26 C777.5311,277.608 777.5311,293.96 777.5311,308.47 " fill="none" id="tictactoe.views.menus.Command&lt;-tictactoe.views.menus.NewGameCommand" style="stroke: #A80036; stroke-width: 1.0;"/><polygon fill="none" points="770.5311,262.221,777.5311,242.22,784.5311,262.22,770.5311,262.221" style="stroke: #A80036; stroke-width: 1.0;"/><!--MD5=[4336c376b3ef1cd2a6689a6d548063e6]
link tictactoe.views.menus.NewGameCommand to tictactoe.controllers.StartController--><path d="M717.2351,398.536 C699.1141,410 678.6761,421.285 658.5311,429 C639.1531,436.422 631.1501,427.836 612.5311,437 C593.2031,446.513 575.3171,462.751 562.0871,476.8586 " fill="none" id="tictactoe.views.menus.NewGameCommand-&gt;tictactoe.controllers.StartController" style="stroke: #A80036; stroke-width: 1.0; stroke-dasharray: 7.0,7.0;"/><polygon fill="#A80036" points="558.4811,480.7738,567.5207,476.864,561.8686,477.0962,561.6364,471.4441,558.4811,480.7738" style="stroke: #A80036; stroke-width: 1.0;"/><!--MD5=[449f8ad0fcc3ced9ae6b67ddb387de83]
reverse link tictactoe.views.menus.Command to tictactoe.views.menus.OpenGameCommand--><path d="M700.3961,252.804 C671.5791,270.663 639.0091,290.849 610.7501,308.362 " fill="none" id="tictactoe.views.menus.Command&lt;-tictactoe.views.menus.OpenGameCommand" style="stroke: #A80036; stroke-width: 1.0;"/><polygon fill="none" points="697.0931,246.616,717.7811,242.03,704.4681,258.516,697.0931,246.616" style="stroke: #A80036; stroke-width: 1.0;"/><!--MD5=[6131b46c41a2d361d6c66c3974e79daa]
link tictactoe.views.menus.OpenGameCommand to tictactoe.controllers.StartController--><path d="M539.5311,398.546 C539.5311,423.425 539.5311,453.795 539.5311,475.5426 " fill="none" id="tictactoe.views.menus.OpenGameCommand-&gt;tictactoe.controllers.StartController" style="stroke: #A80036; stroke-width: 1.0; stroke-dasharray: 7.0,7.0;"/><polygon fill="#A80036" points="539.5311,480.5996,543.5311,471.5996,539.5311,475.5996,535.5311,471.5996,539.5311,480.5996" style="stroke: #A80036; stroke-width: 1.0;"/><!--MD5=[94729fa40f4719a496bf8107bc54d447]
reverse link utils.Menu to tictactoe.views.menus.PlayMenu--><path d="M639.6321,103.742 C644.8611,107.863 650.5431,111.478 656.5311,114 C681.6331,124.571 874.9111,116.238 901.5311,122 C949.9001,132.47 1001.4831,154.423 1039.4401,172.836 " fill="none" id="utils.Menu&lt;-tictactoe.views.menus.PlayMenu" style="stroke: #A80036; stroke-width: 1.0;"/><polygon fill="none" points="634.8181,108.824,625.0521,90.019,644.4131,98.629,634.8181,108.824" style="stroke: #A80036; stroke-width: 1.0;"/><!--MD5=[c0a31e8051c1a374c430e453e708a362]
link tictactoe.views.menus.PlayMenu to tictactoe.controllers.PlayController--><path d="M1023.2201,220.862 C986.7881,228.247 942.0021,236.577 901.5311,242 C817.6841,253.235 199.9451,239.869 142.5311,302 C104.224,343.455 102.9602,388.75 142.5311,429 C151.6851,438.311 600.4211,432.118 612.5311,437 C632.7971,445.17 650.7931,461.9141 663.7251,476.6185 " fill="none" id="tictactoe.views.menus.PlayMenu-&gt;tictactoe.controllers.PlayController" style="stroke: #A80036; stroke-width: 1.0; stroke-dasharray: 7.0,7.0;"/><polygon fill="#A80036" points="667.2351,480.7029,664.4014,471.2705,663.9757,476.9113,658.3349,476.4856,667.2351,480.7029" style="stroke: #A80036; stroke-width: 1.0;"/><!--MD5=[87b677bf39b31d0969fa999ed9bd738d]
link tictactoe.views.menus.PlayMenu to tictactoe.views.menus.MovementCommand--><path d="M1172.7839,240.0378 C1172.7839,240.0378 1264.9601,282.394 1309.4501,302.836 " fill="none" id="tictactoe.views.menus.PlayMenu-tictactoe.views.menus.MovementCommand" style="stroke: #A80036; stroke-width: 1.0;"/><polygon fill="#A80036" points="1321.5201,308.383,1315.0125,300.9903,1316.9769,306.2952,1311.672,308.2595,1321.5201,308.383" style="stroke: #A80036; stroke-width: 1.0;"/><line style="stroke: #A80036; stroke-width: 1.0;" x1="1316.9769" x2="1309.7101" y1="306.2952" y2="302.9555"/><polygon fill="#A80036" points="1161.8801,235.027,1165.6617,241.167,1172.7839,240.0378,1169.0022,233.8978,1161.8801,235.027" style="stroke: #A80036; stroke-width: 1.0;"/><!--MD5=[be1e2e32bad81655b81c50df6906e513]
link tictactoe.views.menus.PlayMenu to tictactoe.views.menus.UndoCommand--><path d="M1124.2423,245.0771 C1124.2423,245.0771 1145.4601,275.75 1155.9101,290.867 " fill="none" id="tictactoe.views.menus.PlayMenu-tictactoe.views.menus.UndoCommand" style="stroke: #A80036; stroke-width: 1.0;"/><polygon fill="#A80036" points="1163.4101,301.714,1161.5842,292.0359,1160.5675,297.6006,1155.0028,296.584,1163.4101,301.714" style="stroke: #A80036; stroke-width: 1.0;"/><line style="stroke: #A80036; stroke-width: 1.0;" x1="1160.5675" x2="1156.0151" y1="297.6006" y2="291.021"/><polygon fill="#A80036" points="1117.4201,235.205,1117.5405,242.4151,1124.2423,245.0771,1124.1219,237.867,1117.4201,235.205" style="stroke: #A80036; stroke-width: 1.0;"/><!--MD5=[d3f53dfa419e31d71661ad598ea93228]
link tictactoe.views.menus.PlayMenu to tictactoe.views.menus.RedoCommand--><path d="M1181.7525,217.7534 C1181.7525,217.7534 1415.1701,260.512 1533.5301,302 C1535.0901,302.547 1536.6601,303.111 1538.2301,303.691 " fill="none" id="tictactoe.views.menus.PlayMenu-tictactoe.views.menus.RedoCommand" style="stroke: #A80036; stroke-width: 1.0;"/><polygon fill="#A80036" points="1550.3401,308.421,1543.4114,301.4215,1545.6826,306.6024,1540.5016,308.8735,1550.3401,308.421" style="stroke: #A80036; stroke-width: 1.0;"/><line style="stroke: #A80036; stroke-width: 1.0;" x1="1545.6826" x2="1538.2351" y1="306.6024" y2="303.6915"/><polygon fill="#A80036" points="1169.9101,215.815,1175.1852,220.7316,1181.7525,217.7534,1176.4774,212.8367,1169.9101,215.815" style="stroke: #A80036; stroke-width: 1.0;"/><!--MD5=[02176555b62e10473c43bd2d5d7cf37e]
link tictactoe.views.menus.PlayMenu to tictactoe.views.menus.ExitCommand--><path d="M1069.0707,245.1065 C1069.0707,245.1065 1044.8901,280.419 1033.2501,297.418 " fill="none" id="tictactoe.views.menus.PlayMenu-tictactoe.views.menus.ExitCommand" style="stroke: #A80036; stroke-width: 1.0;"/><polygon fill="#A80036" points="1025.7701,308.344,1034.1552,303.1777,1028.5949,304.2184,1027.5542,298.6581,1025.7701,308.344" style="stroke: #A80036; stroke-width: 1.0;"/><line style="stroke: #A80036; stroke-width: 1.0;" x1="1028.5949" x2="1033.1151" y1="304.2184" y2="297.617"/><polygon fill="#A80036" points="1075.8501,235.205,1069.1599,237.8959,1069.0707,245.1065,1075.7609,242.4156,1075.8501,235.205" style="stroke: #A80036; stroke-width: 1.0;"/><!--MD5=[0995ba6a816fc37ffc8ce19666b7cc33]
reverse link tictactoe.views.menus.Command to tictactoe.views.menus.RedoCommand--><path d="M903.5671,226.45 C936.9911,231.841 973.0871,237.397 1006.5311,242 C1240.0601,274.142 1307.2801,235.81 1533.5301,302 C1539.0701,303.622 1544.6801,305.524 1550.2701,307.622 " fill="none" id="tictactoe.views.menus.Command&lt;-tictactoe.views.menus.RedoCommand" style="stroke: #A80036; stroke-width: 1.0;"/><polygon fill="none" points="902.3091,233.338,883.6941,223.214,904.5591,219.52,902.3091,233.338" style="stroke: #A80036; stroke-width: 1.0;"/><!--MD5=[bb2e5608e205b62035046620e95db6a8]
link tictactoe.views.menus.UndoCommand to tictactoe.controllers.PlayController--><path d="M1121.1301,405.161 C1107.4901,414.261 1093.0401,422.807 1078.5301,429 C966.2521,476.9143 823.9611,494.2441 744.4811,500.4945 " fill="none" id="tictactoe.views.menus.UndoCommand-&gt;tictactoe.controllers.PlayController" style="stroke: #A80036; stroke-width: 1.0; stroke-dasharray: 7.0,7.0;"/><polygon fill="#A80036" points="739.3381,500.8903,748.618,504.1894,744.3234,500.5074,748.0054,496.2129,739.3381,500.8903" style="stroke: #A80036; stroke-width: 1.0;"/><!--MD5=[bb2e5608e205b62035046620e95db6a8]
link tictactoe.views.menus.UndoCommand to tictactoe.controllers.PlayController--><path d="M1155.3701,405.161 C1142.4901,414.261 1128.0401,422.807 1113.5301,429 C989.9081,481.7551 829.9031,497.4336 744.1351,502.0697 " fill="none" id="tictactoe.views.menus.UndoCommand-&gt;tictactoe.controllers.PlayController-1" style="stroke: #A80036; stroke-width: 1.0; stroke-dasharray: 7.0,7.0;"/><polygon fill="#A80036" points="739.0991,502.3339,748.2959,505.8579,744.0923,502.0725,747.8776,497.8688,739.0991,502.3339" style="stroke: #A80036; stroke-width: 1.0;"/><!--MD5=[7facfeff5f20d73203b8757e9f81faa3]
reverse link utils.Menu to tictactoe.views.menus.StartMenu--><path d="M589.7341,108.731 C580.9341,129.366 570.5071,153.815 562.4781,172.643 " fill="none" id="utils.Menu&lt;-tictactoe.views.menus.StartMenu" style="stroke: #A80036; stroke-width: 1.0;"/><polygon fill="none" points="583.4081,105.721,597.6921,90.071,596.2851,111.213,583.4081,105.721" style="stroke: #A80036; stroke-width: 1.0;"/><!--MD5=[f1aac0c69f4b0f8ec47e6acb59b04895]
link tictactoe.views.menus.StartMenu to tictactoe.controllers.StartController--><path d="M473.4111,223.6 C447.7671,229.689 418.9551,236.34 392.5311,242 C254.8831,271.485 171.1491,193.44 81.5313,302 C45.5977,345.529 42.0358,388.675 81.5313,429 C96.5008,444.284 446.6771,429.032 466.5311,437 C486.9611,445.199 505.2071,461.9433 518.3481,476.6404 " fill="none" id="tictactoe.views.menus.StartMenu-&gt;tictactoe.controllers.StartController" style="stroke: #A80036; stroke-width: 1.0; stroke-dasharray: 7.0,7.0;"/><polygon fill="#A80036" points="521.9161,480.7226,519.0042,471.3141,518.6253,476.9582,512.9811,476.5793,521.9161,480.7226" style="stroke: #A80036; stroke-width: 1.0;"/><!--MD5=[559ce4aea2323115c5c4e29da832853e]
link tictactoe.views.menus.StartMenu to tictactoe.views.menus.NewGameCommand--><path d="M606.0203,241.5455 C606.0203,241.5455 667.9231,281.591 697.8411,300.946 " fill="none" id="tictactoe.views.menus.StartMenu-tictactoe.views.menus.NewGameCommand" style="stroke: #A80036; stroke-width: 1.0;"/><polygon fill="#A80036" points="709.1181,308.241,703.7346,299.9937,704.9201,305.5249,699.3889,306.7105,709.1181,308.241" style="stroke: #A80036; stroke-width: 1.0;"/><line style="stroke: #A80036; stroke-width: 1.0;" x1="704.9201" x2="698.2026" y1="305.5249" y2="301.18"/><polygon fill="#A80036" points="595.9451,235.027,598.8098,241.6446,606.0203,241.5455,603.1555,234.9279,595.9451,235.027" style="stroke: #A80036; stroke-width: 1.0;"/><!--MD5=[c6c4a5cc49cf30401735cb8bb01ed2b7]
link tictactoe.views.menus.StartMenu to tictactoe.views.menus.OpenGameCommand--><path d="M546.6709,247.1775 C546.6709,247.1775 544.4821,279.481 543.4281,295.022 " fill="none" id="tictactoe.views.menus.StartMenu-tictactoe.views.menus.OpenGameCommand" style="stroke: #A80036; stroke-width: 1.0;"/><polygon fill="#A80036" points="542.5251,308.344,547.1252,299.6354,542.8636,303.3555,539.1435,299.0939,542.5251,308.344" style="stroke: #A80036; stroke-width: 1.0;"/><line style="stroke: #A80036; stroke-width: 1.0;" x1="542.8636" x2="543.4046" y1="303.3555" y2="295.373"/><polygon fill="#A80036" points="547.4831,235.205,543.0862,240.9205,546.6709,247.1775,551.0678,241.462,547.4831,235.205" style="stroke: #A80036; stroke-width: 1.0;"/><!--MD5=[40d7b69f13a042d569541d0d04011772]
reverse link tictactoe.views.menus.Command to tictactoe.views.menus.UndoCommand--><path d="M903.1031,238.288 C962.2461,255.235 1033.3101,277.438 1095.5301,302 C1101.0901,304.194 1106.7601,306.567 1112.4401,309.047 " fill="none" id="tictactoe.views.menus.Command&lt;-tictactoe.views.menus.UndoCommand" style="stroke: #A80036; stroke-width: 1.0;"/><polygon fill="none" points="900.8691,244.931,883.5331,232.747,904.6841,231.461,900.8691,244.931" style="stroke: #A80036; stroke-width: 1.0;"/><!--MD5=[9176d2a59f878c2da2b2939d18024ee3]
@startuml

class  tictactoe.views.menus.Command{
# acceptorController: AcceptorController
# Command(String, AcceptorController)
}
utils.Command <|-down- tictactoe.views.menus.Command
tictactoe.views.menus.Command *-down-> tictactoe.controllers.AcceptorController

class  tictactoe.views.menus.ExitCommand{
# ExitCommand(PlayController)
# execute(): void
# isActive(): boolean
}
tictactoe.views.menus.Command <|-down- tictactoe.views.menus.ExitCommand
tictactoe.views.menus.ExitCommand ..> tictactoe.controllers.PlayController

class  tictactoe.views.menus.GameSelectCommand{
# GameSelectCommand(StartController, String)
# execute(): void
# isActive(): boolean
}
tictactoe.views.menus.Command <|-down- tictactoe.views.menus.GameSelectCommand
tictactoe.views.menus.GameSelectCommand ..> tictactoe.controllers.StartController

class  tictactoe.views.menus.GameSelectMenu{
~ GameSelectMenu(StartController)
}
utils.Menu <|-down- tictactoe.views.menus.GameSelectMenu
tictactoe.views.menus.GameSelectMenu ..> tictactoe.controllers.StartController
tictactoe.views.menus.GameSelectMenu *-down-> tictactoe.views.menus.GameSelectCommand

class  tictactoe.views.menus.MovementCommand{
+ MovementCommand(PlayController)
# execute(): void
# isActive(): boolean
}
tictactoe.views.menus.Command <|-down- tictactoe.views.menus.MovementCommand
tictactoe.views.menus.MovementCommand ..> tictactoe.controllers.PlayController
tictactoe.views.menus.MovementCommand ..> tictactoe.views.models.MessageView
tictactoe.views.menus.MovementCommand ..> tictactoe.views.models.GameView

class  tictactoe.views.menus.NewGameCommand{
# NewGameCommand(StartController)
# execute(): void
# isActive(): boolean
}
tictactoe.views.menus.Command <|-down- tictactoe.views.menus.NewGameCommand
tictactoe.views.menus.NewGameCommand ..> tictactoe.controllers.StartController

class  tictactoe.views.menus.OpenGameCommand{
# OpenGameCommand(StartController)
# execute(): void
# isActive(): boolean
}
tictactoe.views.menus.Command <|-down- tictactoe.views.menus.OpenGameCommand
tictactoe.views.menus.OpenGameCommand ..> tictactoe.controllers.StartController

class tictactoe.views.menus.PlayMenu{
~ PlayMenu(PlayController)
}
utils.Menu <|-down- tictactoe.views.menus.PlayMenu
tictactoe.views.menus.PlayMenu ..> tictactoe.controllers.PlayController
tictactoe.views.menus.PlayMenu *-down-> tictactoe.views.menus.MovementCommand
tictactoe.views.menus.PlayMenu *-down-> tictactoe.views.menus.UndoCommand
tictactoe.views.menus.PlayMenu *-down-> tictactoe.views.menus.RedoCommand
tictactoe.views.menus.PlayMenu *-down-> tictactoe.views.menus.ExitCommand

class tictactoe.views.menus.RedoCommand{
- playController: PlayController
~ RedoCommand(PlayController)
# execute(): void
# isActive(): boolean
}
tictactoe.views.menus.Command <|-down- tictactoe.views.menus.RedoCommand
tictactoe.views.menus.UndoCommand ..> tictactoe.controllers.PlayController

class  tictactoe.views.menus.StartMenu{
+ StartMenu(StartController)
}
utils.Menu <|-down- tictactoe.views.menus.StartMenu
tictactoe.views.menus.StartMenu ..> tictactoe.controllers.StartController
tictactoe.views.menus.StartMenu*-down-> tictactoe.views.menus.NewGameCommand
tictactoe.views.menus.StartMenu*-down-> tictactoe.views.menus.OpenGameCommand

class tictactoe.views.menus.UndoCommand{
- playController: PlayController
~ UndoCommand(PlayController)
# execute(): void
# isActive(): boolean
}
tictactoe.views.menus.Command <|-down- tictactoe.views.menus.UndoCommand
tictactoe.views.menus.UndoCommand ..> tictactoe.controllers.PlayController

@enduml

PlantUML version 1.2020.15(Sun Jun 28 13:39:45 CEST 2020)
(GPL source distribution)
Java Runtime: Java(TM) SE Runtime Environment
JVM: Java HotSpot(TM) 64-Bit Server VM
Default Encoding: windows-1252
Language: es
Country: ES
--></g></svg>