<?xml version="1.0" encoding="UTF-8" standalone="no"?><svg xmlns="http://www.w3.org/2000/svg" xmlns:xlink="http://www.w3.org/1999/xlink" contentScriptType="application/ecmascript" contentStyleType="text/css" height="1409px" preserveAspectRatio="none" style="width:1536px;height:1409px;" version="1.1" viewBox="0 0 1536 1409" width="1536px" zoomAndPan="magnify"><defs><filter height="300%" id="fdkbghyo3fi0t" width="300%" x="-1" y="-1"><feGaussianBlur result="blurOut" stdDeviation="2.0"/><feColorMatrix in="blurOut" result="blurOut2" type="matrix" values="0 0 0 0 0 0 0 0 0 0 0 0 0 0 0 0 0 0 .4 0"/><feOffset dx="4.0" dy="4.0" in="blurOut2" result="blurOut3"/><feBlend in="SourceGraphic" in2="blurOut3" mode="normal"/></filter></defs><g><!--MD5=[ee7e9a007a7c4d40c0679a27f272732d]
cluster tictactoe.controllers--><polygon fill="#FFFFFF" filter="url(#fdkbghyo3fi0t)" points="133.7573,6,281.7573,6,288.7573,29.6094,978.7572,29.6094,978.7572,1273,133.7573,1273,133.7573,6" style="stroke: #000000; stroke-width: 1.5;"/><line style="stroke: #000000; stroke-width: 1.5;" x1="133.7573" x2="288.7573" y1="29.6094" y2="29.6094"/><text fill="#000000" font-family="sans-serif" font-size="14" font-weight="bold" lengthAdjust="spacingAndGlyphs" textLength="142" x="137.7573" y="22.5332">tictactoe.controllers</text><!--MD5=[c52f45833d539af9e29a9d34b8b7302b]
cluster utils--><polygon fill="#FFFFFF" filter="url(#fdkbghyo3fi0t)" points="1002.7572,410,1038.7572,410,1045.7572,433.6094,1102.7562,433.6094,1102.7562,510,1002.7572,510,1002.7572,410" style="stroke: #000000; stroke-width: 1.5;"/><line style="stroke: #000000; stroke-width: 1.5;" x1="1002.7572" x2="1045.7572" y1="433.6094" y2="433.6094"/><text fill="#000000" font-family="sans-serif" font-size="14" font-weight="bold" lengthAdjust="spacingAndGlyphs" textLength="30" x="1006.7572" y="426.5332">utils</text><!--MD5=[51cd642fcc96b47682a93d9084d46dec]
cluster tictactoe.models--><polygon fill="#FFFFFF" filter="url(#fdkbghyo3fi0t)" points="914.7572,1297,1036.7572,1297,1043.7572,1320.6094,1280.7562,1320.6094,1280.7562,1397,914.7572,1397,914.7572,1297" style="stroke: #000000; stroke-width: 1.5;"/><line style="stroke: #000000; stroke-width: 1.5;" x1="914.7572" x2="1043.7572" y1="1320.6094" y2="1320.6094"/><text fill="#000000" font-family="sans-serif" font-size="14" font-weight="bold" lengthAdjust="spacingAndGlyphs" textLength="116" x="918.7572" y="1313.5332">tictactoe.models</text><!--MD5=[7db3c59d38ae5b37b484eb2df9368145]
cluster java.util--><polygon fill="#FFFFFF" filter="url(#fdkbghyo3fi0t)" points="1247.7562,410,1308.7562,410,1315.7562,433.6094,1335.7562,433.6094,1335.7562,510,1247.7562,510,1247.7562,410" style="stroke: #000000; stroke-width: 1.5;"/><line style="stroke: #000000; stroke-width: 1.5;" x1="1247.7562" x2="1315.7562" y1="433.6094" y2="433.6094"/><text fill="#000000" font-family="sans-serif" font-size="14" font-weight="bold" lengthAdjust="spacingAndGlyphs" textLength="55" x="1251.7562" y="426.5332">java.util</text><!--MD5=[294b28e7c71f580fcd8922373db841ed]
class tictactoe.controllers.AcceptorController--><rect fill="#FEFECE" filter="url(#fdkbghyo3fi0t)" height="75.6719" id="tictactoe.controllers.AcceptorController" style="stroke: #A80036; stroke-width: 1.5;" width="180" x="437.7572" y="240.5"/><ellipse cx="473.9072" cy="256.5" fill="#ADD1B2" rx="11" ry="11" style="stroke: #A80036; stroke-width: 1.0;"/><path d="M476.6728,252.375 Q476.8291,252.1563 477.0166,252.0469 Q477.2041,251.9375 477.4228,251.9375 Q477.7978,251.9375 478.0322,252.2031 Q478.2666,252.4531 478.2666,253.0625 L478.2666,254.5156 Q478.2666,255.125 478.0322,255.3906 Q477.7978,255.6563 477.4228,255.6563 Q477.0791,255.6563 476.8759,255.4531 Q476.6728,255.2656 476.5634,254.75 Q476.5166,254.3906 476.3291,254.2031 Q476.0009,253.8281 475.3916,253.6094 Q474.7822,253.3906 474.1572,253.3906 Q473.3916,253.3906 472.7509,253.7188 Q472.1259,254.0469 471.6259,254.7969 Q471.1416,255.5469 471.1416,256.5781 L471.1416,257.6719 Q471.1416,258.9063 472.0322,259.7344 Q472.9228,260.5469 474.5166,260.5469 Q475.4541,260.5469 476.1103,260.2969 Q476.5009,260.1406 476.9228,259.7031 Q477.1884,259.4375 477.3291,259.3594 Q477.4853,259.2813 477.6884,259.2813 Q478.0166,259.2813 478.2666,259.5469 Q478.5322,259.7969 478.5322,260.1406 Q478.5322,260.4844 478.1884,260.8906 Q477.6884,261.4688 476.8916,261.7969 Q475.8134,262.25 474.5166,262.25 Q473.0009,262.25 471.7978,261.625 Q470.8134,261.125 470.1259,260.0625 Q469.4384,258.9844 469.4384,257.7031 L469.4384,256.5469 Q469.4384,255.2188 470.0478,254.0781 Q470.6728,252.9219 471.7666,252.3125 Q472.8603,251.6875 474.0947,251.6875 Q474.8291,251.6875 475.4697,251.8594 Q476.1259,252.0156 476.6728,252.375 Z "/><text fill="#000000" font-family="sans-serif" font-size="12" lengthAdjust="spacingAndGlyphs" textLength="101" x="492.6072" y="261.4102">AcceptorController</text><line style="stroke: #A80036; stroke-width: 1.5;" x1="438.7572" x2="616.7572" y1="272.5" y2="272.5"/><line style="stroke: #A80036; stroke-width: 1.5;" x1="438.7572" x2="616.7572" y1="280.5" y2="280.5"/><polygon fill="#4177AF" points="448.7572,287.5,444.7572,293.5,452.7572,293.5" style="stroke: #1963A0; stroke-width: 1.0;"/><text fill="#000000" font-family="sans-serif" font-size="11" lengthAdjust="spacingAndGlyphs" textLength="138" x="457.7572" y="295.9189">AcceptorController(Session)</text><ellipse cx="448.7572" cy="305.3359" fill="#84BE84" rx="3" ry="3" style="stroke: #038048; stroke-width: 1.0;"/><text fill="#000000" font-family="sans-serif" font-size="11" font-style="italic" lengthAdjust="spacingAndGlyphs" textLength="154" x="457.7572" y="309.7549">accept(ControllersVisitor): void</text><!--MD5=[957eef6538bab7382edbc29d98579a60]
class tictactoe.controllers.Controller--><rect fill="#FEFECE" filter="url(#fdkbghyo3fi0t)" height="89.5078" id="tictactoe.controllers.Controller" style="stroke: #A80036; stroke-width: 1.5;" width="161" x="298.2572" y="42"/><ellipse cx="347.5072" cy="58" fill="#ADD1B2" rx="11" ry="11" style="stroke: #A80036; stroke-width: 1.0;"/><path d="M350.2728,53.875 Q350.4291,53.6563 350.6166,53.5469 Q350.8041,53.4375 351.0228,53.4375 Q351.3978,53.4375 351.6322,53.7031 Q351.8666,53.9531 351.8666,54.5625 L351.8666,56.0156 Q351.8666,56.625 351.6322,56.8906 Q351.3978,57.1563 351.0228,57.1563 Q350.6791,57.1563 350.476,56.9531 Q350.2728,56.7656 350.1635,56.25 Q350.1166,55.8906 349.9291,55.7031 Q349.601,55.3281 348.9916,55.1094 Q348.3822,54.8906 347.7572,54.8906 Q346.9916,54.8906 346.351,55.2188 Q345.726,55.5469 345.226,56.2969 Q344.7416,57.0469 344.7416,58.0781 L344.7416,59.1719 Q344.7416,60.4063 345.6322,61.2344 Q346.5228,62.0469 348.1166,62.0469 Q349.0541,62.0469 349.7103,61.7969 Q350.101,61.6406 350.5228,61.2031 Q350.7885,60.9375 350.9291,60.8594 Q351.0853,60.7813 351.2885,60.7813 Q351.6166,60.7813 351.8666,61.0469 Q352.1322,61.2969 352.1322,61.6406 Q352.1322,61.9844 351.7885,62.3906 Q351.2885,62.9688 350.4916,63.2969 Q349.4135,63.75 348.1166,63.75 Q346.601,63.75 345.3978,63.125 Q344.4135,62.625 343.726,61.5625 Q343.0385,60.4844 343.0385,59.2031 L343.0385,58.0469 Q343.0385,56.7188 343.6478,55.5781 Q344.2728,54.4219 345.3666,53.8125 Q346.4603,53.1875 347.6947,53.1875 Q348.4291,53.1875 349.0697,53.3594 Q349.726,53.5156 350.2728,53.875 Z "/><text fill="#000000" font-family="sans-serif" font-size="12" lengthAdjust="spacingAndGlyphs" textLength="54" x="368.0072" y="62.9102">Controller</text><line style="stroke: #A80036; stroke-width: 1.5;" x1="299.2572" x2="458.2572" y1="74" y2="74"/><polygon fill="none" points="309.2572,80,313.2572,84,309.2572,88,305.2572,84" style="stroke: #B38D22; stroke-width: 1.0;"/><text fill="#000000" font-family="sans-serif" font-size="11" lengthAdjust="spacingAndGlyphs" textLength="83" x="318.2572" y="89.4189">session: Session</text><line style="stroke: #A80036; stroke-width: 1.5;" x1="299.2572" x2="458.2572" y1="95.8359" y2="95.8359"/><polygon fill="#4177AF" points="309.2572,102.8359,305.2572,108.8359,313.2572,108.8359" style="stroke: #1963A0; stroke-width: 1.0;"/><text fill="#000000" font-family="sans-serif" font-size="11" lengthAdjust="spacingAndGlyphs" textLength="93" x="318.2572" y="111.2549">Controller(Session)</text><ellipse cx="309.2572" cy="120.6719" fill="#84BE84" rx="3" ry="3" style="stroke: #038048; stroke-width: 1.0;"/><text fill="#000000" font-family="sans-serif" font-size="11" lengthAdjust="spacingAndGlyphs" textLength="135" x="318.2572" y="125.0908">getValueState(): StateValue</text><!--MD5=[cd4f094777041ea0b287ad7c5b510f06]
class tictactoe.controllers.ControllersVisitor--><rect fill="#FEFECE" filter="url(#fdkbghyo3fi0t)" height="89.5078" id="tictactoe.controllers.ControllersVisitor" style="stroke: #A80036; stroke-width: 1.5;" width="161" x="584.2572" y="425"/><ellipse cx="615.0072" cy="441" fill="#B4A7E5" rx="11" ry="11" style="stroke: #A80036; stroke-width: 1.0;"/><path d="M615.9603,437.6406 L615.9603,444.2969 L617.6791,444.2969 Q618.2885,444.2969 618.5541,444.5313 Q618.8197,444.7656 618.8197,445.1563 Q618.8197,445.5313 618.5541,445.7656 Q618.2885,446 617.6791,446 L612.5385,446 Q611.9291,446 611.6635,445.7656 Q611.3978,445.5313 611.3978,445.1406 Q611.3978,444.7656 611.6635,444.5313 Q611.9291,444.2969 612.5385,444.2969 L614.2572,444.2969 L614.2572,437.6406 L612.5385,437.6406 Q611.9291,437.6406 611.6635,437.4063 Q611.3978,437.1719 611.3978,436.7813 Q611.3978,436.4063 611.6635,436.1719 Q611.9291,435.9375 612.5385,435.9375 L617.6791,435.9375 Q618.2885,435.9375 618.5541,436.1719 Q618.8197,436.4063 618.8197,436.7813 Q618.8197,437.1719 618.5541,437.4063 Q618.2885,437.6406 617.6791,437.6406 L615.9603,437.6406 Z "/><text fill="#000000" font-family="sans-serif" font-size="12" font-style="italic" lengthAdjust="spacingAndGlyphs" textLength="94" x="632.5072" y="445.9102">ControllersVisitor</text><line style="stroke: #A80036; stroke-width: 1.5;" x1="585.2572" x2="744.2572" y1="457" y2="457"/><line style="stroke: #A80036; stroke-width: 1.5;" x1="585.2572" x2="744.2572" y1="465" y2="465"/><polygon fill="#4177AF" points="595.2572,472,591.2572,478,599.2572,478" style="stroke: #1963A0; stroke-width: 1.0;"/><text fill="#000000" font-family="sans-serif" font-size="11" font-style="italic" lengthAdjust="spacingAndGlyphs" textLength="126" x="604.2572" y="480.4189">visit(StartController): void</text><polygon fill="#4177AF" points="595.2572,485.8359,591.2572,491.8359,599.2572,491.8359" style="stroke: #1963A0; stroke-width: 1.0;"/><text fill="#000000" font-family="sans-serif" font-size="11" font-style="italic" lengthAdjust="spacingAndGlyphs" textLength="124" x="604.2572" y="494.2549">visit(PlayController): void</text><polygon fill="#4177AF" points="595.2572,499.6719,591.2572,505.6719,599.2572,505.6719" style="stroke: #1963A0; stroke-width: 1.0;"/><text fill="#000000" font-family="sans-serif" font-size="11" font-style="italic" lengthAdjust="spacingAndGlyphs" textLength="135" x="604.2572" y="508.0908">visit(ResultController): void</text><!--MD5=[2c3ef77d19c2424f55dfd6db4f13e20e]
class tictactoe.controllers.ResultController--><rect fill="#FEFECE" filter="url(#fdkbghyo3fi0t)" height="103.3438" id="tictactoe.controllers.ResultController" style="stroke: #A80036; stroke-width: 1.5;" width="176" x="786.7572" y="706.5"/><ellipse cx="826.0572" cy="722.5" fill="#ADD1B2" rx="11" ry="11" style="stroke: #A80036; stroke-width: 1.0;"/><path d="M828.8228,718.375 Q828.9791,718.1563 829.1666,718.0469 Q829.3541,717.9375 829.5728,717.9375 Q829.9478,717.9375 830.1822,718.2031 Q830.4166,718.4531 830.4166,719.0625 L830.4166,720.5156 Q830.4166,721.125 830.1822,721.3906 Q829.9478,721.6563 829.5728,721.6563 Q829.2291,721.6563 829.026,721.4531 Q828.8228,721.2656 828.7135,720.75 Q828.6666,720.3906 828.4791,720.2031 Q828.151,719.8281 827.5416,719.6094 Q826.9322,719.3906 826.3072,719.3906 Q825.5416,719.3906 824.901,719.7188 Q824.276,720.0469 823.776,720.7969 Q823.2916,721.5469 823.2916,722.5781 L823.2916,723.6719 Q823.2916,724.9063 824.1822,725.7344 Q825.0728,726.5469 826.6666,726.5469 Q827.6041,726.5469 828.2603,726.2969 Q828.651,726.1406 829.0728,725.7031 Q829.3385,725.4375 829.4791,725.3594 Q829.6353,725.2813 829.8385,725.2813 Q830.1666,725.2813 830.4166,725.5469 Q830.6822,725.7969 830.6822,726.1406 Q830.6822,726.4844 830.3385,726.8906 Q829.8385,727.4688 829.0416,727.7969 Q827.9635,728.25 826.6666,728.25 Q825.151,728.25 823.9478,727.625 Q822.9635,727.125 822.276,726.0625 Q821.5885,724.9844 821.5885,723.7031 L821.5885,722.5469 Q821.5885,721.2188 822.1978,720.0781 Q822.8228,718.9219 823.9166,718.3125 Q825.0103,717.6875 826.2447,717.6875 Q826.9791,717.6875 827.6197,717.8594 Q828.276,718.0156 828.8228,718.375 Z "/><text fill="#000000" font-family="sans-serif" font-size="12" lengthAdjust="spacingAndGlyphs" textLength="90" x="845.4572" y="727.4102">ResultController</text><line style="stroke: #A80036; stroke-width: 1.5;" x1="787.7572" x2="961.7572" y1="738.5" y2="738.5"/><line style="stroke: #A80036; stroke-width: 1.5;" x1="787.7572" x2="961.7572" y1="746.5" y2="746.5"/><ellipse cx="797.7572" cy="757.5" fill="#84BE84" rx="3" ry="3" style="stroke: #038048; stroke-width: 1.0;"/><text fill="#000000" font-family="sans-serif" font-size="11" lengthAdjust="spacingAndGlyphs" textLength="123" x="806.7572" y="761.9189">ResultController(Session)</text><ellipse cx="797.7572" cy="771.3359" fill="#84BE84" rx="3" ry="3" style="stroke: #038048; stroke-width: 1.0;"/><text fill="#000000" font-family="sans-serif" font-size="11" lengthAdjust="spacingAndGlyphs" textLength="60" x="806.7572" y="775.7549">finish(): void</text><ellipse cx="797.7572" cy="785.1719" fill="#84BE84" rx="3" ry="3" style="stroke: #038048; stroke-width: 1.0;"/><text fill="#000000" font-family="sans-serif" font-size="11" lengthAdjust="spacingAndGlyphs" textLength="141" x="806.7572" y="789.5908">getOtherValueFromTurn(): int</text><ellipse cx="797.7572" cy="799.0078" fill="#84BE84" rx="3" ry="3" style="stroke: #038048; stroke-width: 1.0;"/><text fill="#000000" font-family="sans-serif" font-size="11" lengthAdjust="spacingAndGlyphs" textLength="150" x="806.7572" y="803.4268">accept(ControllersVisitor): void</text><!--MD5=[8ede4dbfb3b498095887802b64b699f0]
class tictactoe.controllers.StartController--><rect fill="#FEFECE" filter="url(#fdkbghyo3fi0t)" height="103.3438" id="tictactoe.controllers.StartController" style="stroke: #A80036; stroke-width: 1.5;" width="176" x="575.7572" y="706.5"/><ellipse cx="620.0072" cy="722.5" fill="#ADD1B2" rx="11" ry="11" style="stroke: #A80036; stroke-width: 1.0;"/><path d="M622.7728,718.375 Q622.9291,718.1563 623.1166,718.0469 Q623.3041,717.9375 623.5228,717.9375 Q623.8978,717.9375 624.1322,718.2031 Q624.3666,718.4531 624.3666,719.0625 L624.3666,720.5156 Q624.3666,721.125 624.1322,721.3906 Q623.8978,721.6563 623.5228,721.6563 Q623.1791,721.6563 622.976,721.4531 Q622.7728,721.2656 622.6635,720.75 Q622.6166,720.3906 622.4291,720.2031 Q622.101,719.8281 621.4916,719.6094 Q620.8822,719.3906 620.2572,719.3906 Q619.4916,719.3906 618.851,719.7188 Q618.226,720.0469 617.726,720.7969 Q617.2416,721.5469 617.2416,722.5781 L617.2416,723.6719 Q617.2416,724.9063 618.1322,725.7344 Q619.0228,726.5469 620.6166,726.5469 Q621.5541,726.5469 622.2103,726.2969 Q622.601,726.1406 623.0228,725.7031 Q623.2885,725.4375 623.4291,725.3594 Q623.5853,725.2813 623.7885,725.2813 Q624.1166,725.2813 624.3666,725.5469 Q624.6322,725.7969 624.6322,726.1406 Q624.6322,726.4844 624.2885,726.8906 Q623.7885,727.4688 622.9916,727.7969 Q621.9135,728.25 620.6166,728.25 Q619.101,728.25 617.8978,727.625 Q616.9135,727.125 616.226,726.0625 Q615.5385,724.9844 615.5385,723.7031 L615.5385,722.5469 Q615.5385,721.2188 616.1478,720.0781 Q616.7728,718.9219 617.8666,718.3125 Q618.9603,717.6875 620.1947,717.6875 Q620.9291,717.6875 621.5697,717.8594 Q622.226,718.0156 622.7728,718.375 Z "/><text fill="#000000" font-family="sans-serif" font-size="12" lengthAdjust="spacingAndGlyphs" textLength="79" x="640.5072" y="727.4102">StartController</text><line style="stroke: #A80036; stroke-width: 1.5;" x1="576.7572" x2="750.7572" y1="738.5" y2="738.5"/><line style="stroke: #A80036; stroke-width: 1.5;" x1="576.7572" x2="750.7572" y1="746.5" y2="746.5"/><ellipse cx="586.7572" cy="757.5" fill="#84BE84" rx="3" ry="3" style="stroke: #038048; stroke-width: 1.0;"/><text fill="#000000" font-family="sans-serif" font-size="11" lengthAdjust="spacingAndGlyphs" textLength="116" x="595.7572" y="761.9189">StartController(Session)</text><ellipse cx="586.7572" cy="771.3359" fill="#84BE84" rx="3" ry="3" style="stroke: #038048; stroke-width: 1.0;"/><text fill="#000000" font-family="sans-serif" font-size="11" lengthAdjust="spacingAndGlyphs" textLength="56" x="595.7572" y="775.7549">start(): void</text><ellipse cx="586.7572" cy="785.1719" fill="#84BE84" rx="3" ry="3" style="stroke: #038048; stroke-width: 1.0;"/><text fill="#000000" font-family="sans-serif" font-size="11" lengthAdjust="spacingAndGlyphs" textLength="112" x="595.7572" y="789.5908">createPlayers(int): void</text><ellipse cx="586.7572" cy="799.0078" fill="#84BE84" rx="3" ry="3" style="stroke: #038048; stroke-width: 1.0;"/><text fill="#000000" font-family="sans-serif" font-size="11" lengthAdjust="spacingAndGlyphs" textLength="150" x="595.7572" y="803.4268">accept(ControllersVisitor): void</text><!--MD5=[b574e60c06c50037ff1b014277a67d62]
class tictactoe.controllers.PlayController--><rect fill="#FEFECE" filter="url(#fdkbghyo3fi0t)" height="366.2266" id="tictactoe.controllers.PlayController" style="stroke: #A80036; stroke-width: 1.5;" width="280" x="260.7572" y="575"/><ellipse cx="358.0072" cy="591" fill="#ADD1B2" rx="11" ry="11" style="stroke: #A80036; stroke-width: 1.0;"/><path d="M360.7728,586.875 Q360.9291,586.6563 361.1166,586.5469 Q361.3041,586.4375 361.5228,586.4375 Q361.8978,586.4375 362.1322,586.7031 Q362.3666,586.9531 362.3666,587.5625 L362.3666,589.0156 Q362.3666,589.625 362.1322,589.8906 Q361.8978,590.1563 361.5228,590.1563 Q361.1791,590.1563 360.976,589.9531 Q360.7728,589.7656 360.6635,589.25 Q360.6166,588.8906 360.4291,588.7031 Q360.101,588.3281 359.4916,588.1094 Q358.8822,587.8906 358.2572,587.8906 Q357.4916,587.8906 356.851,588.2188 Q356.226,588.5469 355.726,589.2969 Q355.2416,590.0469 355.2416,591.0781 L355.2416,592.1719 Q355.2416,593.4063 356.1322,594.2344 Q357.0228,595.0469 358.6166,595.0469 Q359.5541,595.0469 360.2103,594.7969 Q360.601,594.6406 361.0228,594.2031 Q361.2885,593.9375 361.4291,593.8594 Q361.5853,593.7813 361.7885,593.7813 Q362.1166,593.7813 362.3666,594.0469 Q362.6322,594.2969 362.6322,594.6406 Q362.6322,594.9844 362.2885,595.3906 Q361.7885,595.9688 360.9916,596.2969 Q359.9135,596.75 358.6166,596.75 Q357.101,596.75 355.8978,596.125 Q354.9135,595.625 354.226,594.5625 Q353.5385,593.4844 353.5385,592.2031 L353.5385,591.0469 Q353.5385,589.7188 354.1478,588.5781 Q354.7728,587.4219 355.8666,586.8125 Q356.9603,586.1875 358.1947,586.1875 Q358.9291,586.1875 359.5697,586.3594 Q360.226,586.5156 360.7728,586.875 Z "/><text fill="#000000" font-family="sans-serif" font-size="12" lengthAdjust="spacingAndGlyphs" textLength="77" x="378.5072" y="595.9102">PlayController</text><line style="stroke: #A80036; stroke-width: 1.5;" x1="261.7572" x2="539.7572" y1="607" y2="607"/><rect fill="none" height="6" style="stroke: #C82930; stroke-width: 1.0;" width="6" x="268.7572" y="615"/><text fill="#000000" font-family="sans-serif" font-size="11" lengthAdjust="spacingAndGlyphs" textLength="196" x="280.7572" y="622.4189">movementController: MovementController</text><rect fill="none" height="6" style="stroke: #C82930; stroke-width: 1.0;" width="6" x="268.7572" y="628.8359"/><text fill="#000000" font-family="sans-serif" font-size="11" lengthAdjust="spacingAndGlyphs" textLength="147" x="280.7572" y="636.2549">undoController: UndoController</text><rect fill="none" height="6" style="stroke: #C82930; stroke-width: 1.0;" width="6" x="268.7572" y="642.6719"/><text fill="#000000" font-family="sans-serif" font-size="11" lengthAdjust="spacingAndGlyphs" textLength="145" x="280.7572" y="650.0908">redoController: RedoController</text><line style="stroke: #A80036; stroke-width: 1.5;" x1="261.7572" x2="539.7572" y1="656.5078" y2="656.5078"/><ellipse cx="271.7572" cy="667.5078" fill="#84BE84" rx="3" ry="3" style="stroke: #038048; stroke-width: 1.0;"/><text fill="#000000" font-family="sans-serif" font-size="11" lengthAdjust="spacingAndGlyphs" textLength="146" x="280.7572" y="671.9268">PlayController(Session, TCPIP)</text><ellipse cx="271.7572" cy="681.3438" fill="#84BE84" rx="3" ry="3" style="stroke: #038048; stroke-width: 1.0;"/><text fill="#000000" font-family="sans-serif" font-size="11" lengthAdjust="spacingAndGlyphs" textLength="58" x="280.7572" y="685.7627">undo(): void</text><ellipse cx="271.7572" cy="695.1797" fill="#84BE84" rx="3" ry="3" style="stroke: #038048; stroke-width: 1.0;"/><text fill="#000000" font-family="sans-serif" font-size="11" lengthAdjust="spacingAndGlyphs" textLength="56" x="280.7572" y="699.5986">redo(): void</text><ellipse cx="271.7572" cy="709.0156" fill="#84BE84" rx="3" ry="3" style="stroke: #038048; stroke-width: 1.0;"/><text fill="#000000" font-family="sans-serif" font-size="11" lengthAdjust="spacingAndGlyphs" textLength="96" x="280.7572" y="713.4346">undoable(): boolean</text><ellipse cx="271.7572" cy="722.8516" fill="#84BE84" rx="3" ry="3" style="stroke: #038048; stroke-width: 1.0;"/><text fill="#000000" font-family="sans-serif" font-size="11" lengthAdjust="spacingAndGlyphs" textLength="94" x="280.7572" y="727.2705">redoable(): boolean</text><ellipse cx="271.7572" cy="736.6875" fill="#84BE84" rx="3" ry="3" style="stroke: #038048; stroke-width: 1.0;"/><text fill="#000000" font-family="sans-serif" font-size="11" lengthAdjust="spacingAndGlyphs" textLength="224" x="280.7572" y="741.1064">getTypeOfTokenPlayerFromTurn(): PlayerType</text><ellipse cx="271.7572" cy="750.5234" fill="#84BE84" rx="3" ry="3" style="stroke: #038048; stroke-width: 1.0;"/><text fill="#000000" font-family="sans-serif" font-size="11" lengthAdjust="spacingAndGlyphs" textLength="178" x="280.7572" y="754.9424">getErrorsPutCoordinate(int, int): Error</text><ellipse cx="271.7572" cy="764.3594" fill="#84BE84" rx="3" ry="3" style="stroke: #038048; stroke-width: 1.0;"/><text fill="#000000" font-family="sans-serif" font-size="11" lengthAdjust="spacingAndGlyphs" textLength="217" x="280.7572" y="768.7783">getErrorsMoveOriginCoordinate(int, int): Error</text><ellipse cx="271.7572" cy="778.1953" fill="#84BE84" rx="3" ry="3" style="stroke: #038048; stroke-width: 1.0;"/><text fill="#000000" font-family="sans-serif" font-size="11" lengthAdjust="spacingAndGlyphs" textLength="254" x="280.7572" y="782.6143">getErrorsMoveTargetCoordinate(int, int, int, int): Error</text><ellipse cx="271.7572" cy="792.0313" fill="#84BE84" rx="3" ry="3" style="stroke: #038048; stroke-width: 1.0;"/><text fill="#000000" font-family="sans-serif" font-size="11" lengthAdjust="spacingAndGlyphs" textLength="164" x="280.7572" y="796.4502">isCoordinateValid(int, int): boolean</text><ellipse cx="271.7572" cy="805.8672" fill="#84BE84" rx="3" ry="3" style="stroke: #038048; stroke-width: 1.0;"/><text fill="#000000" font-family="sans-serif" font-size="11" lengthAdjust="spacingAndGlyphs" textLength="165" x="280.7572" y="810.2861">generateRandomCoordinate(): int[]</text><ellipse cx="271.7572" cy="819.7031" fill="#84BE84" rx="3" ry="3" style="stroke: #038048; stroke-width: 1.0;"/><text fill="#000000" font-family="sans-serif" font-size="11" lengthAdjust="spacingAndGlyphs" textLength="133" x="280.7572" y="824.1221">isBoardComplete(): boolean</text><ellipse cx="271.7572" cy="833.5391" fill="#84BE84" rx="3" ry="3" style="stroke: #038048; stroke-width: 1.0;"/><text fill="#000000" font-family="sans-serif" font-size="11" lengthAdjust="spacingAndGlyphs" textLength="182" x="280.7572" y="837.958">putTokenPlayerFromTurn(int, int): void</text><ellipse cx="271.7572" cy="847.375" fill="#84BE84" rx="3" ry="3" style="stroke: #038048; stroke-width: 1.0;"/><text fill="#000000" font-family="sans-serif" font-size="11" lengthAdjust="spacingAndGlyphs" textLength="227" x="280.7572" y="851.7939">moveTokenPlayerFromTurn(int, int, int, int): void</text><ellipse cx="271.7572" cy="861.2109" fill="#84BE84" rx="3" ry="3" style="stroke: #038048; stroke-width: 1.0;"/><text fill="#000000" font-family="sans-serif" font-size="11" lengthAdjust="spacingAndGlyphs" textLength="92" x="280.7572" y="865.6299">changeTurn(): void</text><ellipse cx="271.7572" cy="875.0469" fill="#84BE84" rx="3" ry="3" style="stroke: #038048; stroke-width: 1.0;"/><text fill="#000000" font-family="sans-serif" font-size="11" lengthAdjust="spacingAndGlyphs" textLength="131" x="280.7572" y="879.4658">getTokenChar(int, int): char</text><ellipse cx="271.7572" cy="888.8828" fill="#84BE84" rx="3" ry="3" style="stroke: #038048; stroke-width: 1.0;"/><text fill="#000000" font-family="sans-serif" font-size="11" lengthAdjust="spacingAndGlyphs" textLength="146" x="280.7572" y="893.3018">isEmptyToken(int, int): boolean</text><ellipse cx="271.7572" cy="902.7188" fill="#84BE84" rx="3" ry="3" style="stroke: #038048; stroke-width: 1.0;"/><text fill="#000000" font-family="sans-serif" font-size="11" lengthAdjust="spacingAndGlyphs" textLength="141" x="280.7572" y="907.1377">getCoordinateDimension(): int</text><ellipse cx="271.7572" cy="916.5547" fill="#84BE84" rx="3" ry="3" style="stroke: #038048; stroke-width: 1.0;"/><text fill="#000000" font-family="sans-serif" font-size="11" lengthAdjust="spacingAndGlyphs" textLength="110" x="280.7572" y="920.9736">isTicTacToe(): boolean</text><ellipse cx="271.7572" cy="930.3906" fill="#84BE84" rx="3" ry="3" style="stroke: #038048; stroke-width: 1.0;"/><text fill="#000000" font-family="sans-serif" font-size="11" lengthAdjust="spacingAndGlyphs" textLength="150" x="280.7572" y="934.8096">accept(ControllersVisitor): void</text><!--MD5=[3b8962fd5847b9038b2e29740dae8054]
class tictactoe.controllers.Logic--><rect fill="#FEFECE" filter="url(#fdkbghyo3fi0t)" height="172.5234" id="tictactoe.controllers.Logic" style="stroke: #A80036; stroke-width: 1.5;" width="309" x="653.2572" y="192"/><ellipse cx="788.5072" cy="208" fill="#ADD1B2" rx="11" ry="11" style="stroke: #A80036; stroke-width: 1.0;"/><path d="M791.2728,203.875 Q791.4291,203.6563 791.6166,203.5469 Q791.8041,203.4375 792.0228,203.4375 Q792.3978,203.4375 792.6322,203.7031 Q792.8666,203.9531 792.8666,204.5625 L792.8666,206.0156 Q792.8666,206.625 792.6322,206.8906 Q792.3978,207.1563 792.0228,207.1563 Q791.6791,207.1563 791.476,206.9531 Q791.2728,206.7656 791.1635,206.25 Q791.1166,205.8906 790.9291,205.7031 Q790.601,205.3281 789.9916,205.1094 Q789.3822,204.8906 788.7572,204.8906 Q787.9916,204.8906 787.351,205.2188 Q786.726,205.5469 786.226,206.2969 Q785.7416,207.0469 785.7416,208.0781 L785.7416,209.1719 Q785.7416,210.4063 786.6322,211.2344 Q787.5228,212.0469 789.1166,212.0469 Q790.0541,212.0469 790.7103,211.7969 Q791.101,211.6406 791.5228,211.2031 Q791.7885,210.9375 791.9291,210.8594 Q792.0853,210.7813 792.2885,210.7813 Q792.6166,210.7813 792.8666,211.0469 Q793.1322,211.2969 793.1322,211.6406 Q793.1322,211.9844 792.7885,212.3906 Q792.2885,212.9688 791.4916,213.2969 Q790.4135,213.75 789.1166,213.75 Q787.601,213.75 786.3978,213.125 Q785.4135,212.625 784.726,211.5625 Q784.0385,210.4844 784.0385,209.2031 L784.0385,208.0469 Q784.0385,206.7188 784.6478,205.5781 Q785.2728,204.4219 786.3666,203.8125 Q787.4603,203.1875 788.6947,203.1875 Q789.4291,203.1875 790.0697,203.3594 Q790.726,203.5156 791.2728,203.875 Z "/><text fill="#000000" font-family="sans-serif" font-size="12" lengthAdjust="spacingAndGlyphs" textLength="30" x="809.0072" y="212.9102">Logic</text><line style="stroke: #A80036; stroke-width: 1.5;" x1="654.2572" x2="961.2572" y1="224" y2="224"/><polygon fill="none" points="664.2572,230,668.2572,234,664.2572,238,660.2572,234" style="stroke: #B38D22; stroke-width: 1.0;"/><text fill="#000000" font-family="sans-serif" font-size="11" lengthAdjust="spacingAndGlyphs" textLength="83" x="673.2572" y="239.4189">session: Session</text><polygon fill="none" points="664.2572,243.8359,668.2572,247.8359,664.2572,251.8359,660.2572,247.8359" style="stroke: #B38D22; stroke-width: 1.0;"/><text fill="#000000" font-family="sans-serif" font-size="11" lengthAdjust="spacingAndGlyphs" textLength="283" x="673.2572" y="253.2549">acceptorControllers: Map&lt;StateValue, AcceptorController&gt;</text><polygon fill="none" points="664.2572,257.6719,668.2572,261.6719,664.2572,265.6719,660.2572,261.6719" style="stroke: #B38D22; stroke-width: 1.0;"/><text fill="#000000" font-family="sans-serif" font-size="11" lengthAdjust="spacingAndGlyphs" textLength="143" x="673.2572" y="267.0908">startController: StartController</text><polygon fill="none" points="664.2572,271.5078,668.2572,275.5078,664.2572,279.5078,660.2572,275.5078" style="stroke: #B38D22; stroke-width: 1.0;"/><text fill="#000000" font-family="sans-serif" font-size="11" lengthAdjust="spacingAndGlyphs" textLength="138" x="673.2572" y="280.9268">playController: PlayController</text><polygon fill="none" points="664.2572,285.3438,668.2572,289.3438,664.2572,293.3438,660.2572,289.3438" style="stroke: #B38D22; stroke-width: 1.0;"/><text fill="#000000" font-family="sans-serif" font-size="11" lengthAdjust="spacingAndGlyphs" textLength="164" x="673.2572" y="294.7627">resumeController: ResultController</text><rect fill="none" height="6" style="stroke: #C82930; stroke-width: 1.0;" width="6" x="661.2572" y="301.1797"/><text fill="#000000" font-family="sans-serif" font-size="11" lengthAdjust="spacingAndGlyphs" textLength="56" x="673.2572" y="308.5986">tcpip: TCPIP</text><line style="stroke: #A80036; stroke-width: 1.5;" x1="654.2572" x2="961.2572" y1="315.0156" y2="315.0156"/><ellipse cx="664.2572" cy="326.0156" fill="#84BE84" rx="3" ry="3" style="stroke: #038048; stroke-width: 1.0;"/><text fill="#000000" font-family="sans-serif" font-size="11" lengthAdjust="spacingAndGlyphs" textLength="72" x="673.2572" y="330.4346">Logic(boolean)</text><ellipse cx="664.2572" cy="339.8516" fill="#84BE84" rx="3" ry="3" style="stroke: #038048; stroke-width: 1.0;"/><text fill="#000000" font-family="sans-serif" font-size="11" lengthAdjust="spacingAndGlyphs" textLength="60" x="673.2572" y="344.2705">close(): void</text><ellipse cx="664.2572" cy="353.6875" fill="#84BE84" rx="3" ry="3" style="stroke: #038048; stroke-width: 1.0;"/><text fill="#000000" font-family="sans-serif" font-size="11" lengthAdjust="spacingAndGlyphs" textLength="166" x="673.2572" y="358.1064">getController(): AcceptorController</text><!--MD5=[24677159852abec703b2234099a98eae]
class tictactoe.controllers.MovementController--><rect fill="#FEFECE" filter="url(#fdkbghyo3fi0t)" height="255.5391" id="tictactoe.controllers.MovementController" style="stroke: #A80036; stroke-width: 1.5;" width="280" x="149.7573" y="1001"/><ellipse cx="230.5073" cy="1017" fill="#ADD1B2" rx="11" ry="11" style="stroke: #A80036; stroke-width: 1.0;"/><path d="M233.2729,1012.875 Q233.4292,1012.6563 233.6167,1012.5469 Q233.8042,1012.4375 234.0229,1012.4375 Q234.3979,1012.4375 234.6323,1012.7031 Q234.8667,1012.9531 234.8667,1013.5625 L234.8667,1015.0156 Q234.8667,1015.625 234.6323,1015.8906 Q234.3979,1016.1563 234.0229,1016.1563 Q233.6792,1016.1563 233.4761,1015.9531 Q233.2729,1015.7656 233.1636,1015.25 Q233.1167,1014.8906 232.9292,1014.7031 Q232.6011,1014.3281 231.9917,1014.1094 Q231.3823,1013.8906 230.7573,1013.8906 Q229.9917,1013.8906 229.3511,1014.2188 Q228.7261,1014.5469 228.2261,1015.2969 Q227.7417,1016.0469 227.7417,1017.0781 L227.7417,1018.1719 Q227.7417,1019.4063 228.6323,1020.2344 Q229.5229,1021.0469 231.1167,1021.0469 Q232.0542,1021.0469 232.7104,1020.7969 Q233.1011,1020.6406 233.5229,1020.2031 Q233.7886,1019.9375 233.9292,1019.8594 Q234.0854,1019.7813 234.2886,1019.7813 Q234.6167,1019.7813 234.8667,1020.0469 Q235.1323,1020.2969 235.1323,1020.6406 Q235.1323,1020.9844 234.7886,1021.3906 Q234.2886,1021.9688 233.4917,1022.2969 Q232.4136,1022.75 231.1167,1022.75 Q229.6011,1022.75 228.3979,1022.125 Q227.4136,1021.625 226.7261,1020.5625 Q226.0386,1019.4844 226.0386,1018.2031 L226.0386,1017.0469 Q226.0386,1015.7188 226.6479,1014.5781 Q227.2729,1013.4219 228.3667,1012.8125 Q229.4604,1012.1875 230.6948,1012.1875 Q231.4292,1012.1875 232.0698,1012.3594 Q232.7261,1012.5156 233.2729,1012.875 Z "/><text fill="#000000" font-family="sans-serif" font-size="12" lengthAdjust="spacingAndGlyphs" textLength="110" x="251.0073" y="1021.9102">MovementController</text><line style="stroke: #A80036; stroke-width: 1.5;" x1="150.7573" x2="428.7573" y1="1033" y2="1033"/><line style="stroke: #A80036; stroke-width: 1.5;" x1="150.7573" x2="428.7573" y1="1041" y2="1041"/><ellipse cx="160.7573" cy="1052" fill="#84BE84" rx="3" ry="3" style="stroke: #038048; stroke-width: 1.0;"/><text fill="#000000" font-family="sans-serif" font-size="11" lengthAdjust="spacingAndGlyphs" textLength="142" x="169.7573" y="1056.4189">MovementController(Session)</text><ellipse cx="160.7573" cy="1065.8359" fill="#84BE84" rx="3" ry="3" style="stroke: #038048; stroke-width: 1.0;"/><text fill="#000000" font-family="sans-serif" font-size="11" lengthAdjust="spacingAndGlyphs" textLength="224" x="169.7573" y="1070.2549">getTypeOfTokenPlayerFromTurn(): PlayerType</text><ellipse cx="160.7573" cy="1079.6719" fill="#84BE84" rx="3" ry="3" style="stroke: #038048; stroke-width: 1.0;"/><text fill="#000000" font-family="sans-serif" font-size="11" lengthAdjust="spacingAndGlyphs" textLength="178" x="169.7573" y="1084.0908">getErrorsPutCoordinate(int, int): Error</text><ellipse cx="160.7573" cy="1093.5078" fill="#84BE84" rx="3" ry="3" style="stroke: #038048; stroke-width: 1.0;"/><text fill="#000000" font-family="sans-serif" font-size="11" lengthAdjust="spacingAndGlyphs" textLength="217" x="169.7573" y="1097.9268">getErrorsMoveOriginCoordinate(int, int): Error</text><ellipse cx="160.7573" cy="1107.3438" fill="#84BE84" rx="3" ry="3" style="stroke: #038048; stroke-width: 1.0;"/><text fill="#000000" font-family="sans-serif" font-size="11" lengthAdjust="spacingAndGlyphs" textLength="254" x="169.7573" y="1111.7627">getErrorsMoveTargetCoordinate(int, int, int, int): Error</text><ellipse cx="160.7573" cy="1121.1797" fill="#84BE84" rx="3" ry="3" style="stroke: #038048; stroke-width: 1.0;"/><text fill="#000000" font-family="sans-serif" font-size="11" lengthAdjust="spacingAndGlyphs" textLength="164" x="169.7573" y="1125.5986">isCoordinateValid(int, int): boolean</text><ellipse cx="160.7573" cy="1135.0156" fill="#84BE84" rx="3" ry="3" style="stroke: #038048; stroke-width: 1.0;"/><text fill="#000000" font-family="sans-serif" font-size="11" lengthAdjust="spacingAndGlyphs" textLength="165" x="169.7573" y="1139.4346">generateRandomCoordinate(): int[]</text><ellipse cx="160.7573" cy="1148.8516" fill="#84BE84" rx="3" ry="3" style="stroke: #038048; stroke-width: 1.0;"/><text fill="#000000" font-family="sans-serif" font-size="11" lengthAdjust="spacingAndGlyphs" textLength="133" x="169.7573" y="1153.2705">isBoardComplete(): boolean</text><ellipse cx="160.7573" cy="1162.6875" fill="#84BE84" rx="3" ry="3" style="stroke: #038048; stroke-width: 1.0;"/><text fill="#000000" font-family="sans-serif" font-size="11" lengthAdjust="spacingAndGlyphs" textLength="182" x="169.7573" y="1167.1064">putTokenPlayerFromTurn(int, int): void</text><ellipse cx="160.7573" cy="1176.5234" fill="#84BE84" rx="3" ry="3" style="stroke: #038048; stroke-width: 1.0;"/><text fill="#000000" font-family="sans-serif" font-size="11" lengthAdjust="spacingAndGlyphs" textLength="227" x="169.7573" y="1180.9424">moveTokenPlayerFromTurn(int, int, int, int): void</text><ellipse cx="160.7573" cy="1190.3594" fill="#84BE84" rx="3" ry="3" style="stroke: #038048; stroke-width: 1.0;"/><text fill="#000000" font-family="sans-serif" font-size="11" lengthAdjust="spacingAndGlyphs" textLength="92" x="169.7573" y="1194.7783">changeTurn(): void</text><ellipse cx="160.7573" cy="1204.1953" fill="#84BE84" rx="3" ry="3" style="stroke: #038048; stroke-width: 1.0;"/><text fill="#000000" font-family="sans-serif" font-size="11" lengthAdjust="spacingAndGlyphs" textLength="131" x="169.7573" y="1208.6143">getTokenChar(int, int): char</text><ellipse cx="160.7573" cy="1218.0313" fill="#84BE84" rx="3" ry="3" style="stroke: #038048; stroke-width: 1.0;"/><text fill="#000000" font-family="sans-serif" font-size="11" lengthAdjust="spacingAndGlyphs" textLength="146" x="169.7573" y="1222.4502">isEmptyToken(int, int): boolean</text><ellipse cx="160.7573" cy="1231.8672" fill="#84BE84" rx="3" ry="3" style="stroke: #038048; stroke-width: 1.0;"/><text fill="#000000" font-family="sans-serif" font-size="11" lengthAdjust="spacingAndGlyphs" textLength="141" x="169.7573" y="1236.2861">getCoordinateDimension(): int</text><ellipse cx="160.7573" cy="1245.7031" fill="#84BE84" rx="3" ry="3" style="stroke: #038048; stroke-width: 1.0;"/><text fill="#000000" font-family="sans-serif" font-size="11" lengthAdjust="spacingAndGlyphs" textLength="110" x="169.7573" y="1250.1221">isTicTacToe(): boolean</text><!--MD5=[1f5f35d7f9326073e91e7944d692e6ef]
class tictactoe.controllers.UndoController--><rect fill="#FEFECE" filter="url(#fdkbghyo3fi0t)" height="89.5078" id="tictactoe.controllers.UndoController" style="stroke: #A80036; stroke-width: 1.5;" width="144" x="464.7572" y="1084"/><ellipse cx="492.3572" cy="1100" fill="#ADD1B2" rx="11" ry="11" style="stroke: #A80036; stroke-width: 1.0;"/><path d="M495.1228,1095.875 Q495.2791,1095.6563 495.4666,1095.5469 Q495.6541,1095.4375 495.8728,1095.4375 Q496.2478,1095.4375 496.4822,1095.7031 Q496.7166,1095.9531 496.7166,1096.5625 L496.7166,1098.0156 Q496.7166,1098.625 496.4822,1098.8906 Q496.2478,1099.1563 495.8728,1099.1563 Q495.5291,1099.1563 495.326,1098.9531 Q495.1228,1098.7656 495.0135,1098.25 Q494.9666,1097.8906 494.7791,1097.7031 Q494.451,1097.3281 493.8416,1097.1094 Q493.2322,1096.8906 492.6072,1096.8906 Q491.8416,1096.8906 491.201,1097.2188 Q490.576,1097.5469 490.076,1098.2969 Q489.5916,1099.0469 489.5916,1100.0781 L489.5916,1101.1719 Q489.5916,1102.4063 490.4822,1103.2344 Q491.3728,1104.0469 492.9666,1104.0469 Q493.9041,1104.0469 494.5603,1103.7969 Q494.951,1103.6406 495.3728,1103.2031 Q495.6385,1102.9375 495.7791,1102.8594 Q495.9353,1102.7813 496.1385,1102.7813 Q496.4666,1102.7813 496.7166,1103.0469 Q496.9822,1103.2969 496.9822,1103.6406 Q496.9822,1103.9844 496.6385,1104.3906 Q496.1385,1104.9688 495.3416,1105.2969 Q494.2635,1105.75 492.9666,1105.75 Q491.451,1105.75 490.2478,1105.125 Q489.2635,1104.625 488.576,1103.5625 Q487.8885,1102.4844 487.8885,1101.2031 L487.8885,1100.0469 Q487.8885,1098.7188 488.4978,1097.5781 Q489.1228,1096.4219 490.2166,1095.8125 Q491.3103,1095.1875 492.5447,1095.1875 Q493.2791,1095.1875 493.9197,1095.3594 Q494.576,1095.5156 495.1228,1095.875 Z "/><text fill="#000000" font-family="sans-serif" font-size="12" lengthAdjust="spacingAndGlyphs" textLength="84" x="509.1572" y="1104.9102">UndoController</text><line style="stroke: #A80036; stroke-width: 1.5;" x1="465.7572" x2="607.7572" y1="1116" y2="1116"/><line style="stroke: #A80036; stroke-width: 1.5;" x1="465.7572" x2="607.7572" y1="1124" y2="1124"/><ellipse cx="475.7572" cy="1135" fill="#84BE84" rx="3" ry="3" style="stroke: #038048; stroke-width: 1.0;"/><text fill="#000000" font-family="sans-serif" font-size="11" lengthAdjust="spacingAndGlyphs" textLength="118" x="484.7572" y="1139.4189">UndoController(Session)</text><ellipse cx="475.7572" cy="1148.8359" fill="#84BE84" rx="3" ry="3" style="stroke: #038048; stroke-width: 1.0;"/><text fill="#000000" font-family="sans-serif" font-size="11" lengthAdjust="spacingAndGlyphs" textLength="58" x="484.7572" y="1153.2549">undo(): void</text><ellipse cx="475.7572" cy="1162.6719" fill="#84BE84" rx="3" ry="3" style="stroke: #038048; stroke-width: 1.0;"/><text fill="#000000" font-family="sans-serif" font-size="11" lengthAdjust="spacingAndGlyphs" textLength="96" x="484.7572" y="1167.0908">undoable(): boolean</text><!--MD5=[1bd008d284a521cfc942b8fbe0753cf3]
class tictactoe.controllers.RedoController--><rect fill="#FEFECE" filter="url(#fdkbghyo3fi0t)" height="89.5078" id="tictactoe.controllers.RedoController" style="stroke: #A80036; stroke-width: 1.5;" width="144" x="643.7572" y="1084"/><ellipse cx="671.3572" cy="1100" fill="#ADD1B2" rx="11" ry="11" style="stroke: #A80036; stroke-width: 1.0;"/><path d="M674.1228,1095.875 Q674.2791,1095.6563 674.4666,1095.5469 Q674.6541,1095.4375 674.8728,1095.4375 Q675.2478,1095.4375 675.4822,1095.7031 Q675.7166,1095.9531 675.7166,1096.5625 L675.7166,1098.0156 Q675.7166,1098.625 675.4822,1098.8906 Q675.2478,1099.1563 674.8728,1099.1563 Q674.5291,1099.1563 674.326,1098.9531 Q674.1228,1098.7656 674.0135,1098.25 Q673.9666,1097.8906 673.7791,1097.7031 Q673.451,1097.3281 672.8416,1097.1094 Q672.2322,1096.8906 671.6072,1096.8906 Q670.8416,1096.8906 670.201,1097.2188 Q669.576,1097.5469 669.076,1098.2969 Q668.5916,1099.0469 668.5916,1100.0781 L668.5916,1101.1719 Q668.5916,1102.4063 669.4822,1103.2344 Q670.3728,1104.0469 671.9666,1104.0469 Q672.9041,1104.0469 673.5603,1103.7969 Q673.951,1103.6406 674.3728,1103.2031 Q674.6385,1102.9375 674.7791,1102.8594 Q674.9353,1102.7813 675.1385,1102.7813 Q675.4666,1102.7813 675.7166,1103.0469 Q675.9822,1103.2969 675.9822,1103.6406 Q675.9822,1103.9844 675.6385,1104.3906 Q675.1385,1104.9688 674.3416,1105.2969 Q673.2635,1105.75 671.9666,1105.75 Q670.451,1105.75 669.2478,1105.125 Q668.2635,1104.625 667.576,1103.5625 Q666.8885,1102.4844 666.8885,1101.2031 L666.8885,1100.0469 Q666.8885,1098.7188 667.4978,1097.5781 Q668.1228,1096.4219 669.2166,1095.8125 Q670.3103,1095.1875 671.5447,1095.1875 Q672.2791,1095.1875 672.9197,1095.3594 Q673.576,1095.5156 674.1228,1095.875 Z "/><text fill="#000000" font-family="sans-serif" font-size="12" lengthAdjust="spacingAndGlyphs" textLength="84" x="688.1572" y="1104.9102">RedoController</text><line style="stroke: #A80036; stroke-width: 1.5;" x1="644.7572" x2="786.7572" y1="1116" y2="1116"/><line style="stroke: #A80036; stroke-width: 1.5;" x1="644.7572" x2="786.7572" y1="1124" y2="1124"/><ellipse cx="654.7572" cy="1135" fill="#84BE84" rx="3" ry="3" style="stroke: #038048; stroke-width: 1.0;"/><text fill="#000000" font-family="sans-serif" font-size="11" lengthAdjust="spacingAndGlyphs" textLength="118" x="663.7572" y="1139.4189">RedoController(Session)</text><ellipse cx="654.7572" cy="1148.8359" fill="#84BE84" rx="3" ry="3" style="stroke: #038048; stroke-width: 1.0;"/><text fill="#000000" font-family="sans-serif" font-size="11" lengthAdjust="spacingAndGlyphs" textLength="56" x="663.7572" y="1153.2549">redo(): void</text><ellipse cx="654.7572" cy="1162.6719" fill="#84BE84" rx="3" ry="3" style="stroke: #038048; stroke-width: 1.0;"/><text fill="#000000" font-family="sans-serif" font-size="11" lengthAdjust="spacingAndGlyphs" textLength="94" x="663.7572" y="1167.0908">redoable(): boolean</text><!--MD5=[2c721b8e75ee69878c5473c2e2c68362]
class utils.TCPIP--><rect fill="#FEFECE" filter="url(#fdkbghyo3fi0t)" height="48" id="utils.TCPIP" style="stroke: #A80036; stroke-width: 1.5;" width="67" x="1019.2572" y="446"/><ellipse cx="1034.2572" cy="462" fill="#ADD1B2" rx="11" ry="11" style="stroke: #A80036; stroke-width: 1.0;"/><path d="M1037.0228,457.875 Q1037.1791,457.6563 1037.3666,457.5469 Q1037.5541,457.4375 1037.7728,457.4375 Q1038.1478,457.4375 1038.3822,457.7031 Q1038.6166,457.9531 1038.6166,458.5625 L1038.6166,460.0156 Q1038.6166,460.625 1038.3822,460.8906 Q1038.1478,461.1563 1037.7728,461.1563 Q1037.4291,461.1563 1037.226,460.9531 Q1037.0228,460.7656 1036.9135,460.25 Q1036.8666,459.8906 1036.6791,459.7031 Q1036.351,459.3281 1035.7416,459.1094 Q1035.1322,458.8906 1034.5072,458.8906 Q1033.7416,458.8906 1033.101,459.2188 Q1032.476,459.5469 1031.976,460.2969 Q1031.4916,461.0469 1031.4916,462.0781 L1031.4916,463.1719 Q1031.4916,464.4063 1032.3822,465.2344 Q1033.2728,466.0469 1034.8666,466.0469 Q1035.8041,466.0469 1036.4603,465.7969 Q1036.851,465.6406 1037.2728,465.2031 Q1037.5385,464.9375 1037.6791,464.8594 Q1037.8353,464.7813 1038.0385,464.7813 Q1038.3666,464.7813 1038.6166,465.0469 Q1038.8822,465.2969 1038.8822,465.6406 Q1038.8822,465.9844 1038.5385,466.3906 Q1038.0385,466.9688 1037.2416,467.2969 Q1036.1635,467.75 1034.8666,467.75 Q1033.351,467.75 1032.1478,467.125 Q1031.1635,466.625 1030.476,465.5625 Q1029.7885,464.4844 1029.7885,463.2031 L1029.7885,462.0469 Q1029.7885,460.7188 1030.3978,459.5781 Q1031.0228,458.4219 1032.1166,457.8125 Q1033.2103,457.1875 1034.4447,457.1875 Q1035.1791,457.1875 1035.8197,457.3594 Q1036.476,457.5156 1037.0228,457.875 Z "/><text fill="#000000" font-family="sans-serif" font-size="12" lengthAdjust="spacingAndGlyphs" textLength="35" x="1048.2572" y="466.9102">TCPIP</text><line style="stroke: #A80036; stroke-width: 1.5;" x1="1020.2572" x2="1085.2572" y1="478" y2="478"/><line style="stroke: #A80036; stroke-width: 1.5;" x1="1020.2572" x2="1085.2572" y1="486" y2="486"/><!--MD5=[fa99c436b17806d9277b14ee7a9cac8e]
class tictactoe.models.Session--><rect fill="#FEFECE" filter="url(#fdkbghyo3fi0t)" height="48" id="tictactoe.models.Session" style="stroke: #A80036; stroke-width: 1.5;" width="78" x="1059.7572" y="1333"/><ellipse cx="1074.7572" cy="1349" fill="#ADD1B2" rx="11" ry="11" style="stroke: #A80036; stroke-width: 1.0;"/><path d="M1077.5228,1344.875 Q1077.6791,1344.6563 1077.8666,1344.5469 Q1078.0541,1344.4375 1078.2728,1344.4375 Q1078.6478,1344.4375 1078.8822,1344.7031 Q1079.1166,1344.9531 1079.1166,1345.5625 L1079.1166,1347.0156 Q1079.1166,1347.625 1078.8822,1347.8906 Q1078.6478,1348.1563 1078.2728,1348.1563 Q1077.9291,1348.1563 1077.726,1347.9531 Q1077.5228,1347.7656 1077.4135,1347.25 Q1077.3666,1346.8906 1077.1791,1346.7031 Q1076.851,1346.3281 1076.2416,1346.1094 Q1075.6322,1345.8906 1075.0072,1345.8906 Q1074.2416,1345.8906 1073.601,1346.2188 Q1072.976,1346.5469 1072.476,1347.2969 Q1071.9916,1348.0469 1071.9916,1349.0781 L1071.9916,1350.1719 Q1071.9916,1351.4063 1072.8822,1352.2344 Q1073.7728,1353.0469 1075.3666,1353.0469 Q1076.3041,1353.0469 1076.9603,1352.7969 Q1077.351,1352.6406 1077.7728,1352.2031 Q1078.0385,1351.9375 1078.1791,1351.8594 Q1078.3353,1351.7813 1078.5385,1351.7813 Q1078.8666,1351.7813 1079.1166,1352.0469 Q1079.3822,1352.2969 1079.3822,1352.6406 Q1079.3822,1352.9844 1079.0385,1353.3906 Q1078.5385,1353.9688 1077.7416,1354.2969 Q1076.6635,1354.75 1075.3666,1354.75 Q1073.851,1354.75 1072.6478,1354.125 Q1071.6635,1353.625 1070.976,1352.5625 Q1070.2885,1351.4844 1070.2885,1350.2031 L1070.2885,1349.0469 Q1070.2885,1347.7188 1070.8978,1346.5781 Q1071.5228,1345.4219 1072.6166,1344.8125 Q1073.7103,1344.1875 1074.9447,1344.1875 Q1075.6791,1344.1875 1076.3197,1344.3594 Q1076.976,1344.5156 1077.5228,1344.875 Z "/><text fill="#000000" font-family="sans-serif" font-size="12" lengthAdjust="spacingAndGlyphs" textLength="46" x="1088.7572" y="1353.9102">Session</text><line style="stroke: #A80036; stroke-width: 1.5;" x1="1060.7572" x2="1136.7572" y1="1365" y2="1365"/><line style="stroke: #A80036; stroke-width: 1.5;" x1="1060.7572" x2="1136.7572" y1="1373" y2="1373"/><!--MD5=[c8f7ee38df84fc6c47e5792f2767cf35]
class tictactoe.models.StateValue--><rect fill="#FEFECE" filter="url(#fdkbghyo3fi0t)" height="48" id="tictactoe.models.StateValue" style="stroke: #A80036; stroke-width: 1.5;" width="91" x="1173.2562" y="1333"/><ellipse cx="1188.2562" cy="1349" fill="#ADD1B2" rx="11" ry="11" style="stroke: #A80036; stroke-width: 1.0;"/><path d="M1191.0218,1344.875 Q1191.1781,1344.6563 1191.3656,1344.5469 Q1191.5531,1344.4375 1191.7718,1344.4375 Q1192.1468,1344.4375 1192.3812,1344.7031 Q1192.6156,1344.9531 1192.6156,1345.5625 L1192.6156,1347.0156 Q1192.6156,1347.625 1192.3812,1347.8906 Q1192.1468,1348.1563 1191.7718,1348.1563 Q1191.4281,1348.1563 1191.225,1347.9531 Q1191.0218,1347.7656 1190.9125,1347.25 Q1190.8656,1346.8906 1190.6781,1346.7031 Q1190.35,1346.3281 1189.7406,1346.1094 Q1189.1312,1345.8906 1188.5062,1345.8906 Q1187.7406,1345.8906 1187.1,1346.2188 Q1186.475,1346.5469 1185.975,1347.2969 Q1185.4906,1348.0469 1185.4906,1349.0781 L1185.4906,1350.1719 Q1185.4906,1351.4063 1186.3812,1352.2344 Q1187.2718,1353.0469 1188.8656,1353.0469 Q1189.8031,1353.0469 1190.4593,1352.7969 Q1190.85,1352.6406 1191.2718,1352.2031 Q1191.5375,1351.9375 1191.6781,1351.8594 Q1191.8343,1351.7813 1192.0375,1351.7813 Q1192.3656,1351.7813 1192.6156,1352.0469 Q1192.8812,1352.2969 1192.8812,1352.6406 Q1192.8812,1352.9844 1192.5375,1353.3906 Q1192.0375,1353.9688 1191.2406,1354.2969 Q1190.1625,1354.75 1188.8656,1354.75 Q1187.35,1354.75 1186.1468,1354.125 Q1185.1625,1353.625 1184.475,1352.5625 Q1183.7875,1351.4844 1183.7875,1350.2031 L1183.7875,1349.0469 Q1183.7875,1347.7188 1184.3968,1346.5781 Q1185.0218,1345.4219 1186.1156,1344.8125 Q1187.2093,1344.1875 1188.4437,1344.1875 Q1189.1781,1344.1875 1189.8187,1344.3594 Q1190.475,1344.5156 1191.0218,1344.875 Z "/><text fill="#000000" font-family="sans-serif" font-size="12" lengthAdjust="spacingAndGlyphs" textLength="59" x="1202.2562" y="1353.9102">StateValue</text><line style="stroke: #A80036; stroke-width: 1.5;" x1="1174.2562" x2="1263.2562" y1="1365" y2="1365"/><line style="stroke: #A80036; stroke-width: 1.5;" x1="1174.2562" x2="1263.2562" y1="1373" y2="1373"/><!--MD5=[55d70ecb9e3ba4786ec1f15d0b7dce13]
class tictactoe.models.Coordinate--><rect fill="#FEFECE" filter="url(#fdkbghyo3fi0t)" height="48" id="tictactoe.models.Coordinate" style="stroke: #A80036; stroke-width: 1.5;" width="93" x="931.2572" y="1333"/><ellipse cx="946.2572" cy="1349" fill="#ADD1B2" rx="11" ry="11" style="stroke: #A80036; stroke-width: 1.0;"/><path d="M949.0228,1344.875 Q949.1791,1344.6563 949.3666,1344.5469 Q949.5541,1344.4375 949.7728,1344.4375 Q950.1478,1344.4375 950.3822,1344.7031 Q950.6166,1344.9531 950.6166,1345.5625 L950.6166,1347.0156 Q950.6166,1347.625 950.3822,1347.8906 Q950.1478,1348.1563 949.7728,1348.1563 Q949.4291,1348.1563 949.226,1347.9531 Q949.0228,1347.7656 948.9135,1347.25 Q948.8666,1346.8906 948.6791,1346.7031 Q948.351,1346.3281 947.7416,1346.1094 Q947.1322,1345.8906 946.5072,1345.8906 Q945.7416,1345.8906 945.101,1346.2188 Q944.476,1346.5469 943.976,1347.2969 Q943.4916,1348.0469 943.4916,1349.0781 L943.4916,1350.1719 Q943.4916,1351.4063 944.3822,1352.2344 Q945.2728,1353.0469 946.8666,1353.0469 Q947.8041,1353.0469 948.4603,1352.7969 Q948.851,1352.6406 949.2728,1352.2031 Q949.5385,1351.9375 949.6791,1351.8594 Q949.8353,1351.7813 950.0385,1351.7813 Q950.3666,1351.7813 950.6166,1352.0469 Q950.8822,1352.2969 950.8822,1352.6406 Q950.8822,1352.9844 950.5385,1353.3906 Q950.0385,1353.9688 949.2416,1354.2969 Q948.1635,1354.75 946.8666,1354.75 Q945.351,1354.75 944.1478,1354.125 Q943.1635,1353.625 942.476,1352.5625 Q941.7885,1351.4844 941.7885,1350.2031 L941.7885,1349.0469 Q941.7885,1347.7188 942.3978,1346.5781 Q943.0228,1345.4219 944.1166,1344.8125 Q945.2103,1344.1875 946.4447,1344.1875 Q947.1791,1344.1875 947.8197,1344.3594 Q948.476,1344.5156 949.0228,1344.875 Z "/><text fill="#000000" font-family="sans-serif" font-size="12" lengthAdjust="spacingAndGlyphs" textLength="61" x="960.2572" y="1353.9102">Coordinate</text><line style="stroke: #A80036; stroke-width: 1.5;" x1="932.2572" x2="1023.2572" y1="1365" y2="1365"/><line style="stroke: #A80036; stroke-width: 1.5;" x1="932.2572" x2="1023.2572" y1="1373" y2="1373"/><!--MD5=[a8a83881b90490f923aa71f2c5ea5dc6]
class java.util.Map--><rect fill="#FEFECE" filter="url(#fdkbghyo3fi0t)" height="48" id="java.util.Map" style="stroke: #A80036; stroke-width: 1.5;" width="55" x="1264.2562" y="446"/><ellipse cx="1279.2562" cy="462" fill="#ADD1B2" rx="11" ry="11" style="stroke: #A80036; stroke-width: 1.0;"/><path d="M1282.0218,457.875 Q1282.1781,457.6563 1282.3656,457.5469 Q1282.5531,457.4375 1282.7718,457.4375 Q1283.1468,457.4375 1283.3812,457.7031 Q1283.6156,457.9531 1283.6156,458.5625 L1283.6156,460.0156 Q1283.6156,460.625 1283.3812,460.8906 Q1283.1468,461.1563 1282.7718,461.1563 Q1282.4281,461.1563 1282.225,460.9531 Q1282.0218,460.7656 1281.9125,460.25 Q1281.8656,459.8906 1281.6781,459.7031 Q1281.35,459.3281 1280.7406,459.1094 Q1280.1312,458.8906 1279.5062,458.8906 Q1278.7406,458.8906 1278.1,459.2188 Q1277.475,459.5469 1276.975,460.2969 Q1276.4906,461.0469 1276.4906,462.0781 L1276.4906,463.1719 Q1276.4906,464.4063 1277.3812,465.2344 Q1278.2718,466.0469 1279.8656,466.0469 Q1280.8031,466.0469 1281.4593,465.7969 Q1281.85,465.6406 1282.2718,465.2031 Q1282.5375,464.9375 1282.6781,464.8594 Q1282.8343,464.7813 1283.0375,464.7813 Q1283.3656,464.7813 1283.6156,465.0469 Q1283.8812,465.2969 1283.8812,465.6406 Q1283.8812,465.9844 1283.5375,466.3906 Q1283.0375,466.9688 1282.2406,467.2969 Q1281.1625,467.75 1279.8656,467.75 Q1278.35,467.75 1277.1468,467.125 Q1276.1625,466.625 1275.475,465.5625 Q1274.7875,464.4844 1274.7875,463.2031 L1274.7875,462.0469 Q1274.7875,460.7188 1275.3968,459.5781 Q1276.0218,458.4219 1277.1156,457.8125 Q1278.2093,457.1875 1279.4437,457.1875 Q1280.1781,457.1875 1280.8187,457.3594 Q1281.475,457.5156 1282.0218,457.875 Z "/><text fill="#000000" font-family="sans-serif" font-size="12" lengthAdjust="spacingAndGlyphs" textLength="23" x="1293.2562" y="466.9102">Map</text><line style="stroke: #A80036; stroke-width: 1.5;" x1="1265.2562" x2="1318.2562" y1="478" y2="478"/><line style="stroke: #A80036; stroke-width: 1.5;" x1="1265.2562" x2="1318.2562" y1="486" y2="486"/><!--MD5=[a529e301e2ce118fc91e7c41e65359f9]
reverse link tictactoe.controllers.Controller to tictactoe.controllers.AcceptorController--><path d="M426.3672,148.55 C450.0942,178.73 478.0242,214.25 498.5562,240.36 " fill="none" id="tictactoe.controllers.Controller&lt;-tictactoe.controllers.AcceptorController" style="stroke: #A80036; stroke-width: 1.0;"/><polygon fill="none" points="420.5502,152.48,413.6912,132.43,431.5562,143.82,420.5502,152.48" style="stroke: #A80036; stroke-width: 1.0;"/><!--MD5=[3aad84600b2b388450be309cb07dd4d6]
link tictactoe.controllers.AcceptorController to utils.TCPIP--><path d="M572.8623,324.5233 C572.8623,324.5233 613.2672,355.79 635.7572,365 C777.6572,423.088 838.8562,339.25 978.7572,402 C996.2722,409.86 1012.4842,423.457 1025.2422,436.361 " fill="none" id="tictactoe.controllers.AcceptorController-utils.TCPIP" style="stroke: #A80036; stroke-width: 1.0;"/><polygon fill="#A80036" points="1034.2882,445.985,1031.0394,436.6874,1030.864,442.3415,1025.2098,442.1662,1034.2882,445.985" style="stroke: #A80036; stroke-width: 1.0;"/><line style="stroke: #A80036; stroke-width: 1.0;" x1="1030.864" x2="1025.3847" y1="442.3415" y2="436.513"/><polygon fill="#A80036" points="563.8412,316.61,565.714,323.5737,572.8623,324.5233,570.9895,317.5596,563.8412,316.61" style="stroke: #A80036; stroke-width: 1.0;"/><!--MD5=[527e06623682f5de62acf3957d9913db]
link tictactoe.controllers.AcceptorController to tictactoe.controllers.ControllersVisitor--><path d="M554.8242,316.94 C576.3172,346.67 606.5282,388.46 629.8422,420.705 " fill="none" id="tictactoe.controllers.AcceptorController-&gt;tictactoe.controllers.ControllersVisitor" style="stroke: #A80036; stroke-width: 1.0; stroke-dasharray: 7.0,7.0;"/><polygon fill="#A80036" points="632.9392,424.989,630.9101,415.3514,630.0108,420.9363,624.4259,420.0369,632.9392,424.989" style="stroke: #A80036; stroke-width: 1.0;"/><!--MD5=[bbf1bce257605cd4c508c0932cf88819]
link tictactoe.controllers.Controller to tictactoe.models.Session--><path d="M459.4002,92.71 C577.0292,101.62 801.0992,126.35 979.7572,192 C1152.1862,255.36 1244.6562,242.48 1335.7562,402 C1524.3762,732.259 1204.9862,1210.487 1119.1262,1328.7771 " fill="none" id="tictactoe.controllers.Controller-&gt;tictactoe.models.Session" style="stroke: #A80036; stroke-width: 1.0;"/><polygon fill="#A80036" points="1116.1762,1332.8324,1124.7079,1327.912,1119.1197,1328.7906,1118.2411,1323.2024,1116.1762,1332.8324" style="stroke: #A80036; stroke-width: 1.0;"/><!--MD5=[7c31aee3c79c272bd3a0bffa530d3eb5]
link tictactoe.controllers.Controller to tictactoe.models.StateValue--><path d="M459.4222,92.04 C635.2942,101.88 1047.4482,130.92 1171.7562,192 C1326.6162,268.09 1443.7562,296.46 1443.7562,469 C1443.7562,469 1443.7562,469 1443.7562,759 C1443.7562,812.494 1346.0462,1178.624 1287.7562,1281 C1277.5962,1298.849 1262.4562,1315.9319 1248.9562,1329.2739 " fill="none" id="tictactoe.controllers.Controller-&gt;tictactoe.models.StateValue" style="stroke: #A80036; stroke-width: 1.0; stroke-dasharray: 7.0,7.0;"/><polygon fill="#A80036" points="1245.1962,1332.9353,1254.4362,1329.5262,1248.7799,1329.4486,1248.8575,1323.7923,1245.1962,1332.9353" style="stroke: #A80036; stroke-width: 1.0;"/><!--MD5=[113dea69a3460f5570c3c0b3d2d08b7b]
link tictactoe.controllers.ControllersVisitor to tictactoe.controllers.ResultController--><path d="M714.0712,515.204 C732.3482,532.854 752.5512,553.963 768.7572,575 C799.4212,614.805 827.7072,664.316 847.3332,701.645 " fill="none" id="tictactoe.controllers.ControllersVisitor-&gt;tictactoe.controllers.ResultController" style="stroke: #A80036; stroke-width: 1.0; stroke-dasharray: 7.0,7.0;"/><polygon fill="#A80036" points="849.6832,706.135,849.0538,696.3063,847.3647,701.7051,841.9659,700.0159,849.6832,706.135" style="stroke: #A80036; stroke-width: 1.0;"/><!--MD5=[c4479c2b753b757fcf886b22c7a436e9]
link tictactoe.controllers.ControllersVisitor to tictactoe.controllers.StartController--><path d="M664.6032,515.061 C664.4282,565.001 664.1432,646.518 663.9532,700.947 " fill="none" id="tictactoe.controllers.ControllersVisitor-&gt;tictactoe.controllers.StartController" style="stroke: #A80036; stroke-width: 1.0; stroke-dasharray: 7.0,7.0;"/><polygon fill="#A80036" points="663.9352,706.128,667.966,697.1418,663.9523,701.128,659.9661,697.1143,663.9352,706.128" style="stroke: #A80036; stroke-width: 1.0;"/><!--MD5=[ccfc00cc7008c98e03882e77f79ceb2e]
link tictactoe.controllers.ControllersVisitor to tictactoe.controllers.PlayController--><path d="M617.5282,515.18 C598.5782,533.348 576.7672,554.827 557.7572,575 C553.3102,579.719 548.8252,584.536 544.3222,589.421 " fill="none" id="tictactoe.controllers.ControllersVisitor-&gt;tictactoe.controllers.PlayController" style="stroke: #A80036; stroke-width: 1.0; stroke-dasharray: 7.0,7.0;"/><polygon fill="#A80036" points="540.8752,593.17,549.9117,589.2531,544.2598,589.4897,544.0232,583.8378,540.8752,593.17" style="stroke: #A80036; stroke-width: 1.0;"/><!--MD5=[f0d647b4d597eb7a904e84056b3f7bd5]
link tictactoe.controllers.Logic to tictactoe.controllers.ResultController--><path d="M837.301,376.6641 C837.301,376.6641 841.2822,394.08 842.7572,402 C861.5142,502.732 869.3942,621.669 872.6212,693.121 " fill="none" id="tictactoe.controllers.Logic-tictactoe.controllers.ResultController" style="stroke: #A80036; stroke-width: 1.0;"/><polygon fill="#A80036" points="873.1882,706.327,876.7978,697.1635,872.9734,701.3316,868.8052,697.5072,873.1882,706.327" style="stroke: #A80036; stroke-width: 1.0;"/><line style="stroke: #A80036; stroke-width: 1.0;" x1="872.9734" x2="872.6302" y1="701.3316" y2="693.3395"/><polygon fill="#A80036" points="834.4002,365.02,831.9692,371.809,837.301,376.6641,839.732,369.8751,834.4002,365.02" style="stroke: #A80036; stroke-width: 1.0;"/><!--MD5=[7ed153862216946a66e2ddd4e084a78d]
link tictactoe.controllers.Logic to tictactoe.models.Session--><path d="M973.7229,310.986 C973.7229,310.986 1073.2382,357.78 1102.7562,402 C1205.1962,555.455 1126.3062,1164.376 1104.1162,1319.758 " fill="none" id="tictactoe.controllers.Logic-tictactoe.models.Session" style="stroke: #A80036; stroke-width: 1.0;"/><polygon fill="#A80036" points="1102.2062,1332.9567,1107.4505,1324.6202,1102.9203,1328.008,1099.5325,1323.4777,1102.2062,1332.9567" style="stroke: #A80036; stroke-width: 1.0;"/><line style="stroke: #A80036; stroke-width: 1.0;" x1="1102.9203" x2="1104.0612" y1="1328.008" y2="1320.0901"/><polygon fill="#A80036" points="962.3902,307.04,966.7412,312.7905,973.7229,310.986,969.3719,305.2354,962.3902,307.04" style="stroke: #A80036; stroke-width: 1.0;"/><!--MD5=[096abf58a0a258fd61b5f735b2bb7393]
link tictactoe.controllers.Logic to tictactoe.models.StateValue--><path d="M973.965,302.9005 C973.965,302.9005 1104.6862,350.4 1147.7562,402 C1381.0662,681.516 1266.8562,1181.888 1229.2262,1319.8932 " fill="none" id="tictactoe.controllers.Logic-tictactoe.models.StateValue" style="stroke: #A80036; stroke-width: 1.0;"/><polygon fill="#A80036" points="1225.6362,1332.8061,1231.8997,1325.2055,1226.9748,1327.9886,1224.1917,1323.0637,1225.6362,1332.8061" style="stroke: #A80036; stroke-width: 1.0;"/><line style="stroke: #A80036; stroke-width: 1.0;" x1="1226.9748" x2="1229.1212" y1="1327.9886" y2="1320.2809"/><polygon fill="#A80036" points="962.3592,299.85,967.1453,305.2438,973.965,302.9005,969.1789,297.5066,962.3592,299.85" style="stroke: #A80036; stroke-width: 1.0;"/><!--MD5=[a6fb96677e8f708ac9e610c842063bed]
link tictactoe.controllers.Logic to java.util.Map--><path d="M974.1352,302.8029 C974.1352,302.8029 1158.6062,350.71 1236.7562,402 C1249.7662,410.53 1261.2262,423.099 1270.2862,435.049 " fill="none" id="tictactoe.controllers.Logic-java.util.Map" style="stroke: #A80036; stroke-width: 1.0;"/><polygon fill="#A80036" points="1277.8962,445.716,1275.9268,436.0661,1274.9929,441.6453,1269.4136,440.7114,1277.8962,445.716" style="stroke: #A80036; stroke-width: 1.0;"/><line style="stroke: #A80036; stroke-width: 1.0;" x1="1274.9929" x2="1270.3412" y1="441.6453" y2="435.1335"/><polygon fill="#A80036" points="962.3782,300.4,967.4557,305.5204,974.1352,302.8029,969.0576,297.6824,962.3782,300.4" style="stroke: #A80036; stroke-width: 1.0;"/><!--MD5=[19457e990bfffed372bd4754e4caf1bd]
link tictactoe.controllers.Logic to tictactoe.controllers.StartController--><path d="M794.0176,377.0702 C794.0176,377.0702 776.2262,472.798 762.7572,518 C744.4112,579.57 715.6562,646.956 693.8542,694.434 " fill="none" id="tictactoe.controllers.Logic-tictactoe.controllers.StartController" style="stroke: #A80036; stroke-width: 1.0;"/><polygon fill="#A80036" points="688.3302,706.363,695.742,699.8773,690.4314,701.8259,688.4827,696.5153,688.3302,706.363" style="stroke: #A80036; stroke-width: 1.0;"/><line style="stroke: #A80036; stroke-width: 1.0;" x1="690.4314" x2="693.7927" y1="701.8259" y2="694.567"/><polygon fill="#A80036" points="795.9692,365.23,791.0466,370.4996,794.0176,377.0702,798.9401,371.8007,795.9692,365.23" style="stroke: #A80036; stroke-width: 1.0;"/><!--MD5=[98dc890c8f91665c71a26ef9fdb9e200]
link tictactoe.controllers.Logic to utils.TCPIP--><path d="M940.5461,372.3347 C940.5461,372.3347 966.8762,392.42 978.7572,402 C992.2472,412.88 1006.4892,425.483 1018.8382,436.804 " fill="none" id="tictactoe.controllers.Logic-utils.TCPIP" style="stroke: #A80036; stroke-width: 1.0;"/><polygon fill="#A80036" points="1028.7072,445.945,1024.8228,436.8945,1025.0391,442.5472,1019.3864,442.7635,1028.7072,445.945" style="stroke: #A80036; stroke-width: 1.0;"/><line style="stroke: #A80036; stroke-width: 1.0;" x1="1025.0391" x2="1019.1702" y1="442.5472" y2="437.111"/><polygon fill="#A80036" points="930.9272,365.16,933.3451,371.9537,940.5461,372.3347,938.1282,365.541,930.9272,365.16" style="stroke: #A80036; stroke-width: 1.0;"/><!--MD5=[600c1fe4dddc39bb8e79c6dad4949c4a]
link tictactoe.controllers.Logic to tictactoe.controllers.PlayController--><path d="M642.5147,361.0677 C642.5147,361.0677 570.4802,398.15 566.7572,402 C541.4842,428.118 508.3942,494.264 478.4142,562.479 " fill="none" id="tictactoe.controllers.Logic-tictactoe.controllers.PlayController" style="stroke: #A80036; stroke-width: 1.0;"/><polygon fill="#A80036" points="473.0502,574.78,480.3144,568.1294,475.0489,570.1969,472.9814,564.9314,473.0502,574.78" style="stroke: #A80036; stroke-width: 1.0;"/><line style="stroke: #A80036; stroke-width: 1.0;" x1="475.0489" x2="478.2462" y1="570.1969" y2="562.864"/><polygon fill="#A80036" points="653.2272,355.66,646.0684,354.793,642.5147,361.0677,649.6735,361.9347,653.2272,355.66" style="stroke: #A80036; stroke-width: 1.0;"/><!--MD5=[ea09686a2ef9af1489d791b8e224dfe5]
link tictactoe.controllers.Logic to tictactoe.controllers.AcceptorController--><path d="M641.2022,278.5 C641.2022,278.5 634.1752,278.5 631.1952,278.5 " fill="none" id="tictactoe.controllers.Logic-tictactoe.controllers.AcceptorController" style="stroke: #A80036; stroke-width: 1.0;"/><polygon fill="#A80036" points="617.9922,278.5,626.9922,282.5,622.9922,278.5,626.9922,274.5,617.9922,278.5" style="stroke: #A80036; stroke-width: 1.0;"/><line style="stroke: #A80036; stroke-width: 1.0;" x1="622.9922" x2="630.9917" y1="278.5" y2="278.5"/><polygon fill="#A80036" points="653.2022,278.5,647.2022,274.5,641.2022,278.5,647.2022,282.5,653.2022,278.5" style="stroke: #A80036; stroke-width: 1.0;"/><!--MD5=[678ab56be6f4f67d24a611a7cf3f2bff]
reverse link tictactoe.controllers.Controller to tictactoe.controllers.MovementController--><path d="M279.3402,115.1 C240.9842,130.94 201.0482,155.28 178.7572,192 C6,476.552 90.6574,619.981 178.7572,941 C184.3032,961.206 192.6612,981.44 202.3512,1000.741 " fill="none" id="tictactoe.controllers.Controller&lt;-tictactoe.controllers.MovementController" style="stroke: #A80036; stroke-width: 1.0;"/><polygon fill="none" points="277.0732,108.47,298.2552,107.88,282.0622,121.55,277.0732,108.47" style="stroke: #A80036; stroke-width: 1.0;"/><!--MD5=[57fe92fdbf463b4ea82d77f5a8e481e7]
link tictactoe.controllers.MovementController to tictactoe.models.Coordinate--><path d="M407.8802,1257.293 C420.3032,1266.344 433.3272,1274.461 446.7572,1281 C530.7852,1321.9135 809.5992,1344.7824 926.0012,1352.7462 " fill="none" id="tictactoe.controllers.MovementController-&gt;tictactoe.models.Coordinate" style="stroke: #A80036; stroke-width: 1.0; stroke-dasharray: 7.0,7.0;"/><polygon fill="#A80036" points="931.0842,1353.0915,922.377,1348.4888,926.0958,1352.7515,921.833,1356.4703,931.0842,1353.0915" style="stroke: #A80036; stroke-width: 1.0;"/><!--MD5=[4c73c2b2338091ed29a3a30e3916cd07]
reverse link tictactoe.controllers.AcceptorController to tictactoe.controllers.PlayController--><path d="M512.6932,336.14 C497.0572,394.93 471.7732,489.993 449.1882,574.909 " fill="none" id="tictactoe.controllers.AcceptorController&lt;-tictactoe.controllers.PlayController" style="stroke: #A80036; stroke-width: 1.0;"/><polygon fill="none" points="505.9922,334.1,517.8972,316.57,519.5212,337.7,505.9922,334.1" style="stroke: #A80036; stroke-width: 1.0;"/><!--MD5=[26c0e73b3cfabbbd8937b448971b8997]
link tictactoe.controllers.PlayController to tictactoe.controllers.MovementController--><path d="M342.5328,952.5594 C342.5328,952.5594 335.2172,976.877 331.8302,988.137 " fill="none" id="tictactoe.controllers.PlayController-tictactoe.controllers.MovementController" style="stroke: #A80036; stroke-width: 1.0;"/><polygon fill="#A80036" points="328.0392,1000.74,334.4617,993.2733,329.4792,995.9519,326.8007,990.9693,328.0392,1000.74" style="stroke: #A80036; stroke-width: 1.0;"/><line style="stroke: #A80036; stroke-width: 1.0;" x1="329.4792" x2="331.7837" y1="995.9519" y2="988.2915"/><polygon fill="#A80036" points="345.9892,941.068,340.4305,945.6616,342.5328,952.5594,348.0915,947.9659,345.9892,941.068" style="stroke: #A80036; stroke-width: 1.0;"/><!--MD5=[fdceb88dd4ce88bad0912e893ceb7641]
link tictactoe.controllers.PlayController to tictactoe.controllers.UndoController--><path d="M472.0109,952.3277 C472.0109,952.3277 504.0932,1039.374 515.9752,1071.613 " fill="none" id="tictactoe.controllers.PlayController-tictactoe.controllers.UndoController" style="stroke: #A80036; stroke-width: 1.0;"/><polygon fill="#A80036" points="520.4982,1083.884,521.1388,1074.056,518.769,1079.1925,513.6324,1076.8227,520.4982,1083.884" style="stroke: #A80036; stroke-width: 1.0;"/><line style="stroke: #A80036; stroke-width: 1.0;" x1="518.769" x2="516.0022" y1="1079.1925" y2="1071.6865"/><polygon fill="#A80036" points="467.8612,941.068,466.1828,948.0811,472.0109,952.3277,473.6893,945.3146,467.8612,941.068" style="stroke: #A80036; stroke-width: 1.0;"/><!--MD5=[b0c8587f2dacb7f013b4c7eea5bedb0e]
link tictactoe.controllers.PlayController to tictactoe.controllers.RedoController--><path d="M549.2633,932.3068 C549.2633,932.3068 555.2312,938.445 557.7572,941 C586.0972,969.659 598.8142,971.024 625.7572,1001 C645.6292,1023.108 665.0402,1049.665 680.7172,1072.766 " fill="none" id="tictactoe.controllers.PlayController-tictactoe.controllers.RedoController" style="stroke: #A80036; stroke-width: 1.0;"/><polygon fill="#A80036" points="688.0992,1083.794,686.4168,1074.0899,685.3178,1079.639,679.7688,1078.5401,688.0992,1083.794" style="stroke: #A80036; stroke-width: 1.0;"/><line style="stroke: #A80036; stroke-width: 1.0;" x1="685.3178" x2="680.8682" y1="1079.639" y2="1072.991"/><polygon fill="#A80036" points="540.9572,923.646,542.2233,930.7451,549.2633,932.3068,547.9972,925.2077,540.9572,923.646" style="stroke: #A80036; stroke-width: 1.0;"/><!--MD5=[dd1726a492e3e8b3b491092cf398e4f4]
link tictactoe.controllers.PlayController to tictactoe.models.Session--><path d="M540.9732,929.775 C546.4632,933.76 552.0602,937.518 557.7572,941 C654.1462,999.919 720.6842,925.541 804.7572,1001 C903.2102,1089.365 799.7792,1201.817 905.7572,1281 C930.0102,1299.121 1014.6612,1275.497 1041.7572,1289 C1058.9752,1297.58 1073.0502,1313.9392 1082.9062,1328.3438 " fill="none" id="tictactoe.controllers.PlayController-&gt;tictactoe.models.Session" style="stroke: #A80036; stroke-width: 1.0; stroke-dasharray: 7.0,7.0;"/><polygon fill="#A80036" points="1085.8262,1332.7407,1084.1686,1323.0323,1083.0555,1328.5786,1077.5092,1327.4655,1085.8262,1332.7407" style="stroke: #A80036; stroke-width: 1.0;"/><!--MD5=[cfbf8d60c9a24e78ee02d3e2172e16f5]
reverse link tictactoe.controllers.Controller to tictactoe.controllers.RedoController--><path d="M356.5492,151.18 C296.2762,327.85 140.791,821.816 242.7572,941 C354.7662,1071.922 479.3062,910.232 625.7572,1001 C657.2262,1020.504 680.7882,1055.504 695.8952,1083.829 " fill="none" id="tictactoe.controllers.Controller&lt;-tictactoe.controllers.RedoController" style="stroke: #A80036; stroke-width: 1.0;"/><polygon fill="none" points="349.9502,148.84,363.0732,132.21,363.1892,153.4,349.9502,148.84" style="stroke: #A80036; stroke-width: 1.0;"/><!--MD5=[7be671399119a683b3d065b58f2bc4f4]
reverse link tictactoe.controllers.AcceptorController to tictactoe.controllers.ResultController--><path d="M582.6442,329.61 C598.8752,342.52 617.2702,355.46 635.7572,365 C687.9972,391.97 720.7282,360.89 762.7572,402 C847.0732,484.471 868.0932,629.772 873.2122,706.408 " fill="none" id="tictactoe.controllers.AcceptorController&lt;-tictactoe.controllers.ResultController" style="stroke: #A80036; stroke-width: 1.0;"/><polygon fill="none" points="578.1492,334.98,567.2122,316.83,587.0802,324.19,578.1492,334.98" style="stroke: #A80036; stroke-width: 1.0;"/><!--MD5=[88d5a3a4b61e1bc69fe5562ef1aab11c]
link tictactoe.controllers.ResultController to tictactoe.models.Session--><path d="M905.6132,809.863 C933.6802,857.807 974.7332,932.346 1001.7572,1001 C1048.0782,1118.675 1080.7562,1266.605 1093.1962,1327.6572 " fill="none" id="tictactoe.controllers.ResultController-&gt;tictactoe.models.Session" style="stroke: #A80036; stroke-width: 1.0; stroke-dasharray: 7.0,7.0;"/><polygon fill="#A80036" points="1094.1962,1332.5976,1096.3287,1322.9824,1093.203,1327.6972,1088.4881,1324.5715,1094.1962,1332.5976" style="stroke: #A80036; stroke-width: 1.0;"/><!--MD5=[2168a191c671df69662f87ac86eb6940]
reverse link tictactoe.controllers.AcceptorController to tictactoe.controllers.StartController--><path d="M533.4962,336.89 C539.2382,385.69 549.7092,457.304 566.7572,518 C585.5872,585.039 617.3302,658.818 639.3522,706.414 " fill="none" id="tictactoe.controllers.AcceptorController&lt;-tictactoe.controllers.StartController" style="stroke: #A80036; stroke-width: 1.0;"/><polygon fill="none" points="526.5192,337.48,531.2522,316.83,540.4322,335.93,526.5192,337.48" style="stroke: #A80036; stroke-width: 1.0;"/><!--MD5=[69619c26af204ab0a49ff1332a022321]
link tictactoe.controllers.StartController to tictactoe.models.Session--><path d="M682.4752,809.731 C699.5652,849.966 728.3442,905.202 768.7572,941 C819.7372,986.158 864.0122,950.546 909.7572,1001 C997.3772,1097.638 899.9522,1194.685 997.7572,1281 C1012.6602,1294.152 1024.5372,1279.075 1041.7572,1289 C1058.1852,1298.468 1072.0852,1314.5118 1082.0462,1328.5257 " fill="none" id="tictactoe.controllers.StartController-&gt;tictactoe.models.Session" style="stroke: #A80036; stroke-width: 1.0; stroke-dasharray: 7.0,7.0;"/><polygon fill="#A80036" points="1085.0062,1332.8001,1083.156,1323.1266,1082.1533,1328.6939,1076.586,1327.6912,1085.0062,1332.8001" style="stroke: #A80036; stroke-width: 1.0;"/><!--MD5=[6b841329018ed361bb360a8821f75218]
reverse link tictactoe.controllers.Controller to tictactoe.controllers.UndoController--><path d="M280.5312,128.95 C254.8532,144.69 230.3142,165.45 215.7572,192 C135.7496,337.95 113.9264,809.341 215.7572,941 C280.6532,1024.905 359.4642,940.739 446.7572,1001 C476.8912,1021.802 500.3402,1056.163 515.7372,1083.902 " fill="none" id="tictactoe.controllers.Controller&lt;-tictactoe.controllers.UndoController" style="stroke: #A80036; stroke-width: 1.0;"/><polygon fill="none" points="277.0772,122.86,297.9262,119.08,283.9862,135.03,277.0772,122.86" style="stroke: #A80036; stroke-width: 1.0;"/><!--MD5=[9410d2180d19a24d3fe06564a421a98b]
@startuml

class  tictactoe.controllers.AcceptorController{
~ AcceptorController(Session)
+ {abstract} accept(ControllersVisitor): void
}
tictactoe.controllers.Controller <|-down- tictactoe.controllers.AcceptorController
tictactoe.controllers.AcceptorController *-down-> utils.TCPIP
tictactoe.controllers.AcceptorController ..> tictactoe.controllers.ControllersVisitor

class  tictactoe.controllers.Controller{
# session: Session
~ Controller(Session)
+ getValueState(): StateValue
}
tictactoe.controllers.Controller -down-> tictactoe.models.Session
tictactoe.controllers.Controller ..> tictactoe.models.StateValue

interface  tictactoe.controllers.ControllersVisitor{
~ {abstract} visit(StartController): void
~ {abstract} visit(PlayController): void
~ {abstract} visit(ResultController): void
}
tictactoe.controllers.ControllersVisitor ..> tictactoe.controllers.ResultController
tictactoe.controllers.ControllersVisitor ..> tictactoe.controllers.StartController
tictactoe.controllers.ControllersVisitor ..> tictactoe.controllers.PlayController

class  tictactoe.controllers.Logic{
# session: Session
# acceptorControllers: Map<StateValue, AcceptorController>
# startController: StartController
# playController: PlayController
# resumeController: ResultController
- tcpip: TCPIP
+ Logic(boolean)
+ close(): void
+ getController(): AcceptorController
}
tictactoe.controllers.Logic *-down-> tictactoe.controllers.ResultController
tictactoe.controllers.Logic *-down-> tictactoe.models.Session
tictactoe.controllers.Logic *-down-> tictactoe.models.StateValue
tictactoe.controllers.Logic *-down-> java.util.Map
tictactoe.controllers.Logic *-down-> tictactoe.controllers.StartController
tictactoe.controllers.Logic *-down-> utils.TCPIP
tictactoe.controllers.Logic *-down-> tictactoe.controllers.PlayController
tictactoe.controllers.Logic *-> tictactoe.controllers.AcceptorController

class  tictactoe.controllers.MovementController{
+ MovementController(Session)
+ getTypeOfTokenPlayerFromTurn(): PlayerType
+ getErrorsPutCoordinate(int, int): Error
+ getErrorsMoveOriginCoordinate(int, int): Error
+ getErrorsMoveTargetCoordinate(int, int, int, int): Error
+ isCoordinateValid(int, int): boolean
+ generateRandomCoordinate(): int[]
+ isBoardComplete(): boolean
+ putTokenPlayerFromTurn(int, int): void
+ moveTokenPlayerFromTurn(int, int, int, int): void
+ changeTurn(): void
+ getTokenChar(int, int): char
+ isEmptyToken(int, int): boolean
+ getCoordinateDimension(): int
+ isTicTacToe(): boolean
}
tictactoe.controllers.Controller <|-down- tictactoe.controllers.MovementController
tictactoe.controllers.MovementController ..> tictactoe.models.Coordinate

class  tictactoe.controllers.PlayController{
- movementController: MovementController
- undoController: UndoController
- redoController: RedoController
+ PlayController(Session, TCPIP)
+ undo(): void
+ redo(): void
+ undoable(): boolean
+ redoable(): boolean
+ getTypeOfTokenPlayerFromTurn(): PlayerType
+ getErrorsPutCoordinate(int, int): Error
+ getErrorsMoveOriginCoordinate(int, int): Error
+ getErrorsMoveTargetCoordinate(int, int, int, int): Error
+ isCoordinateValid(int, int): boolean
+ generateRandomCoordinate(): int[]
+ isBoardComplete(): boolean
+ putTokenPlayerFromTurn(int, int): void
+ moveTokenPlayerFromTurn(int, int, int, int): void
+ changeTurn(): void
+ getTokenChar(int, int): char
+ isEmptyToken(int, int): boolean
+ getCoordinateDimension(): int
+ isTicTacToe(): boolean
+ accept(ControllersVisitor): void
}
tictactoe.controllers.AcceptorController <|-down- tictactoe.controllers.PlayController
tictactoe.controllers.PlayController *-down-> tictactoe.controllers.MovementController
tictactoe.controllers.PlayController *-down-> tictactoe.controllers.UndoController
tictactoe.controllers.PlayController *-down-> tictactoe.controllers.RedoController
tictactoe.controllers.PlayController ..> tictactoe.models.Session

class  tictactoe.controllers.RedoController{
+ RedoController(Session)
+ redo(): void
+ redoable(): boolean
}
tictactoe.controllers.Controller <|-down- tictactoe.controllers.RedoController

class  tictactoe.controllers.ResultController{
+ ResultController(Session)
+ finish(): void
+ getOtherValueFromTurn(): int
+ accept(ControllersVisitor): void
}
tictactoe.controllers.AcceptorController <|-down- tictactoe.controllers.ResultController
tictactoe.controllers.ResultController ..> tictactoe.models.Session

class  tictactoe.controllers.StartController{
+ StartController(Session)
+ start(): void
+ createPlayers(int): void
+ accept(ControllersVisitor): void
}
tictactoe.controllers.AcceptorController <|-down- tictactoe.controllers.StartController
tictactoe.controllers.StartController ..> tictactoe.models.Session

class  tictactoe.controllers.UndoController{
+ UndoController(Session)
+ undo(): void
+ undoable(): boolean
}
tictactoe.controllers.Controller <|-down- tictactoe.controllers.UndoController

@enduml

PlantUML version 1.2020.15(Sun Jun 28 13:39:45 CEST 2020)
(GPL source distribution)
Java Runtime: Java(TM) SE Runtime Environment
JVM: Java HotSpot(TM) 64-Bit Server VM
Default Encoding: windows-1252
Language: es
Country: ES
--></g></svg>