<?xml version="1.0" encoding="UTF-8" standalone="no"?><svg xmlns="http://www.w3.org/2000/svg" xmlns:xlink="http://www.w3.org/1999/xlink" contentScriptType="application/ecmascript" contentStyleType="text/css" height="995px" preserveAspectRatio="none" style="width:1262px;height:995px;" version="1.1" viewBox="0 0 1262 995" width="1262px" zoomAndPan="magnify"><defs><filter height="300%" id="f1feetnky1tuwq" width="300%" x="-1" y="-1"><feGaussianBlur result="blurOut" stdDeviation="2.0"/><feColorMatrix in="blurOut" result="blurOut2" type="matrix" values="0 0 0 0 0 0 0 0 0 0 0 0 0 0 0 0 0 0 .4 0"/><feOffset dx="4.0" dy="4.0" in="blurOut2" result="blurOut3"/><feBlend in="SourceGraphic" in2="blurOut3" mode="normal"/></filter></defs><g><!--MD5=[ee7e9a007a7c4d40c0679a27f272732d]
cluster tictactoe.controllers--><polygon fill="#FFFFFF" filter="url(#f1feetnky1tuwq)" points="16,6,164,6,171,29.6094,794,29.6094,794,859,16,859,16,6" style="stroke: #000000; stroke-width: 1.5;"/><line style="stroke: #000000; stroke-width: 1.5;" x1="16" x2="171" y1="29.6094" y2="29.6094"/><text fill="#000000" font-family="sans-serif" font-size="14" font-weight="bold" lengthAdjust="spacingAndGlyphs" textLength="142" x="20" y="22.5332">tictactoe.controllers</text><!--MD5=[51cd642fcc96b47682a93d9084d46dec]
cluster tictactoe.models--><polygon fill="#FFFFFF" filter="url(#f1feetnky1tuwq)" points="690,883,812,883,819,906.6094,1139,906.6094,1139,983,690,983,690,883" style="stroke: #000000; stroke-width: 1.5;"/><line style="stroke: #000000; stroke-width: 1.5;" x1="690" x2="819" y1="906.6094" y2="906.6094"/><text fill="#000000" font-family="sans-serif" font-size="14" font-weight="bold" lengthAdjust="spacingAndGlyphs" textLength="116" x="694" y="899.5332">tictactoe.models</text><!--MD5=[7db3c59d38ae5b37b484eb2df9368145]
cluster java.util--><polygon fill="#FFFFFF" filter="url(#f1feetnky1tuwq)" points="1152,210.5,1213,210.5,1220,234.1094,1240,234.1094,1240,310.5,1152,310.5,1152,210.5" style="stroke: #000000; stroke-width: 1.5;"/><line style="stroke: #000000; stroke-width: 1.5;" x1="1152" x2="1220" y1="234.1094" y2="234.1094"/><text fill="#000000" font-family="sans-serif" font-size="14" font-weight="bold" lengthAdjust="spacingAndGlyphs" textLength="55" x="1156" y="227.0332">java.util</text><!--MD5=[957eef6538bab7382edbc29d98579a60]
class tictactoe.controllers.Controller--><rect fill="#FEFECE" filter="url(#f1feetnky1tuwq)" height="103.3438" id="tictactoe.controllers.Controller" style="stroke: #A80036; stroke-width: 1.5;" width="180" x="578" y="219"/><ellipse cx="636.75" cy="235" fill="#ADD1B2" rx="11" ry="11" style="stroke: #A80036; stroke-width: 1.0;"/><path d="M639.5156,230.875 Q639.6719,230.6563 639.8594,230.5469 Q640.0469,230.4375 640.2656,230.4375 Q640.6406,230.4375 640.875,230.7031 Q641.1094,230.9531 641.1094,231.5625 L641.1094,233.0156 Q641.1094,233.625 640.875,233.8906 Q640.6406,234.1563 640.2656,234.1563 Q639.9219,234.1563 639.7188,233.9531 Q639.5156,233.7656 639.4063,233.25 Q639.3594,232.8906 639.1719,232.7031 Q638.8438,232.3281 638.2344,232.1094 Q637.625,231.8906 637,231.8906 Q636.2344,231.8906 635.5938,232.2188 Q634.9688,232.5469 634.4688,233.2969 Q633.9844,234.0469 633.9844,235.0781 L633.9844,236.1719 Q633.9844,237.4063 634.875,238.2344 Q635.7656,239.0469 637.3594,239.0469 Q638.2969,239.0469 638.9531,238.7969 Q639.3438,238.6406 639.7656,238.2031 Q640.0313,237.9375 640.1719,237.8594 Q640.3281,237.7813 640.5313,237.7813 Q640.8594,237.7813 641.1094,238.0469 Q641.375,238.2969 641.375,238.6406 Q641.375,238.9844 641.0313,239.3906 Q640.5313,239.9688 639.7344,240.2969 Q638.6563,240.75 637.3594,240.75 Q635.8438,240.75 634.6406,240.125 Q633.6563,239.625 632.9688,238.5625 Q632.2813,237.4844 632.2813,236.2031 L632.2813,235.0469 Q632.2813,233.7188 632.8906,232.5781 Q633.5156,231.4219 634.6094,230.8125 Q635.7031,230.1875 636.9375,230.1875 Q637.6719,230.1875 638.3125,230.3594 Q638.9688,230.5156 639.5156,230.875 Z "/><text fill="#000000" font-family="sans-serif" font-size="12" lengthAdjust="spacingAndGlyphs" textLength="54" x="657.25" y="239.9102">Controller</text><line style="stroke: #A80036; stroke-width: 1.5;" x1="579" x2="757" y1="251" y2="251"/><polygon fill="none" points="589,257,593,261,589,265,585,261" style="stroke: #B38D22; stroke-width: 1.0;"/><text fill="#000000" font-family="sans-serif" font-size="11" lengthAdjust="spacingAndGlyphs" textLength="60" x="598" y="266.4189">game: Game</text><polygon fill="none" points="589,270.8359,593,274.8359,589,278.8359,585,274.8359" style="stroke: #B38D22; stroke-width: 1.0;"/><text fill="#000000" font-family="sans-serif" font-size="11" lengthAdjust="spacingAndGlyphs" textLength="55" x="598" y="280.2549">state: State</text><line style="stroke: #A80036; stroke-width: 1.5;" x1="579" x2="757" y1="286.6719" y2="286.6719"/><polygon fill="#4177AF" points="589,293.6719,585,299.6719,593,299.6719" style="stroke: #1963A0; stroke-width: 1.0;"/><text fill="#000000" font-family="sans-serif" font-size="11" lengthAdjust="spacingAndGlyphs" textLength="113" x="598" y="302.0908">Controller(Game, State)</text><ellipse cx="589" cy="311.5078" fill="#84BE84" rx="3" ry="3" style="stroke: #038048; stroke-width: 1.0;"/><text fill="#000000" font-family="sans-serif" font-size="11" font-style="italic" lengthAdjust="spacingAndGlyphs" textLength="154" x="598" y="315.9268">accept(ControllersVisitor): void</text><!--MD5=[cd4f094777041ea0b287ad7c5b510f06]
class tictactoe.controllers.ControllersVisitor--><rect fill="#FEFECE" filter="url(#f1feetnky1tuwq)" height="89.5078" id="tictactoe.controllers.ControllersVisitor" style="stroke: #A80036; stroke-width: 1.5;" width="164" x="502" y="382"/><ellipse cx="533.65" cy="398" fill="#ADD1B2" rx="11" ry="11" style="stroke: #A80036; stroke-width: 1.0;"/><path d="M536.4156,393.875 Q536.5719,393.6563 536.7594,393.5469 Q536.9469,393.4375 537.1656,393.4375 Q537.5406,393.4375 537.775,393.7031 Q538.0094,393.9531 538.0094,394.5625 L538.0094,396.0156 Q538.0094,396.625 537.775,396.8906 Q537.5406,397.1563 537.1656,397.1563 Q536.8219,397.1563 536.6188,396.9531 Q536.4156,396.7656 536.3063,396.25 Q536.2594,395.8906 536.0719,395.7031 Q535.7438,395.3281 535.1344,395.1094 Q534.525,394.8906 533.9,394.8906 Q533.1344,394.8906 532.4938,395.2188 Q531.8688,395.5469 531.3688,396.2969 Q530.8844,397.0469 530.8844,398.0781 L530.8844,399.1719 Q530.8844,400.4063 531.775,401.2344 Q532.6656,402.0469 534.2594,402.0469 Q535.1969,402.0469 535.8531,401.7969 Q536.2438,401.6406 536.6656,401.2031 Q536.9313,400.9375 537.0719,400.8594 Q537.2281,400.7813 537.4313,400.7813 Q537.7594,400.7813 538.0094,401.0469 Q538.275,401.2969 538.275,401.6406 Q538.275,401.9844 537.9313,402.3906 Q537.4313,402.9688 536.6344,403.2969 Q535.5563,403.75 534.2594,403.75 Q532.7438,403.75 531.5406,403.125 Q530.5563,402.625 529.8688,401.5625 Q529.1813,400.4844 529.1813,399.2031 L529.1813,398.0469 Q529.1813,396.7188 529.7906,395.5781 Q530.4156,394.4219 531.5094,393.8125 Q532.6031,393.1875 533.8375,393.1875 Q534.5719,393.1875 535.2125,393.3594 Q535.8688,393.5156 536.4156,393.875 Z "/><text fill="#000000" font-family="sans-serif" font-size="12" lengthAdjust="spacingAndGlyphs" textLength="95" x="551.35" y="402.9102">ControllersVisitor</text><line style="stroke: #A80036; stroke-width: 1.5;" x1="503" x2="665" y1="414" y2="414"/><line style="stroke: #A80036; stroke-width: 1.5;" x1="503" x2="665" y1="422" y2="422"/><polygon fill="#4177AF" points="513,429,509,435,517,435" style="stroke: #1963A0; stroke-width: 1.0;"/><text fill="#000000" font-family="sans-serif" font-size="11" lengthAdjust="spacingAndGlyphs" textLength="122" x="522" y="437.4189">visit(StartController): void</text><polygon fill="#4177AF" points="513,442.8359,509,448.8359,517,448.8359" style="stroke: #1963A0; stroke-width: 1.0;"/><text fill="#000000" font-family="sans-serif" font-size="11" lengthAdjust="spacingAndGlyphs" textLength="119" x="522" y="451.2549">visit(PlayController): void</text><polygon fill="#4177AF" points="513,456.6719,509,462.6719,517,462.6719" style="stroke: #1963A0; stroke-width: 1.0;"/><text fill="#000000" font-family="sans-serif" font-size="11" lengthAdjust="spacingAndGlyphs" textLength="138" x="522" y="465.0908">visit(ResumeController): void</text><!--MD5=[d75e1ad11e6a17be2ba08b218e20e3d7]
class tictactoe.controllers.ResumeController--><rect fill="#FEFECE" filter="url(#f1feetnky1tuwq)" height="89.5078" id="tictactoe.controllers.ResumeController" style="stroke: #A80036; stroke-width: 1.5;" width="178" x="389" y="642.5"/><ellipse cx="423.8" cy="658.5" fill="#ADD1B2" rx="11" ry="11" style="stroke: #A80036; stroke-width: 1.0;"/><path d="M426.5656,654.375 Q426.7219,654.1563 426.9094,654.0469 Q427.0969,653.9375 427.3156,653.9375 Q427.6906,653.9375 427.925,654.2031 Q428.1594,654.4531 428.1594,655.0625 L428.1594,656.5156 Q428.1594,657.125 427.925,657.3906 Q427.6906,657.6563 427.3156,657.6563 Q426.9719,657.6563 426.7688,657.4531 Q426.5656,657.2656 426.4563,656.75 Q426.4094,656.3906 426.2219,656.2031 Q425.8938,655.8281 425.2844,655.6094 Q424.675,655.3906 424.05,655.3906 Q423.2844,655.3906 422.6438,655.7188 Q422.0188,656.0469 421.5188,656.7969 Q421.0344,657.5469 421.0344,658.5781 L421.0344,659.6719 Q421.0344,660.9063 421.925,661.7344 Q422.8156,662.5469 424.4094,662.5469 Q425.3469,662.5469 426.0031,662.2969 Q426.3938,662.1406 426.8156,661.7031 Q427.0813,661.4375 427.2219,661.3594 Q427.3781,661.2813 427.5813,661.2813 Q427.9094,661.2813 428.1594,661.5469 Q428.425,661.7969 428.425,662.1406 Q428.425,662.4844 428.0813,662.8906 Q427.5813,663.4688 426.7844,663.7969 Q425.7063,664.25 424.4094,664.25 Q422.8938,664.25 421.6906,663.625 Q420.7063,663.125 420.0188,662.0625 Q419.3313,660.9844 419.3313,659.7031 L419.3313,658.5469 Q419.3313,657.2188 419.9406,656.0781 Q420.5656,654.9219 421.6594,654.3125 Q422.7531,653.6875 423.9875,653.6875 Q424.7219,653.6875 425.3625,653.8594 Q426.0188,654.0156 426.5656,654.375 Z "/><text fill="#000000" font-family="sans-serif" font-size="12" lengthAdjust="spacingAndGlyphs" textLength="102" x="442.2" y="663.4102">ResumeController</text><line style="stroke: #A80036; stroke-width: 1.5;" x1="390" x2="566" y1="674.5" y2="674.5"/><line style="stroke: #A80036; stroke-width: 1.5;" x1="390" x2="566" y1="682.5" y2="682.5"/><ellipse cx="400" cy="693.5" fill="#84BE84" rx="3" ry="3" style="stroke: #038048; stroke-width: 1.0;"/><text fill="#000000" font-family="sans-serif" font-size="11" lengthAdjust="spacingAndGlyphs" textLength="152" x="409" y="697.9189">ResumeController(Game, State)</text><ellipse cx="400" cy="707.3359" fill="#84BE84" rx="3" ry="3" style="stroke: #038048; stroke-width: 1.0;"/><text fill="#000000" font-family="sans-serif" font-size="11" lengthAdjust="spacingAndGlyphs" textLength="108" x="409" y="711.7549">resume(boolean): void</text><ellipse cx="400" cy="721.1719" fill="#84BE84" rx="3" ry="3" style="stroke: #038048; stroke-width: 1.0;"/><text fill="#000000" font-family="sans-serif" font-size="11" lengthAdjust="spacingAndGlyphs" textLength="150" x="409" y="725.5908">accept(ControllersVisitor): void</text><!--MD5=[8ede4dbfb3b498095887802b64b699f0]
class tictactoe.controllers.StartController--><rect fill="#FEFECE" filter="url(#f1feetnky1tuwq)" height="103.3438" id="tictactoe.controllers.StartController" style="stroke: #A80036; stroke-width: 1.5;" width="176" x="602" y="636"/><ellipse cx="646.25" cy="652" fill="#ADD1B2" rx="11" ry="11" style="stroke: #A80036; stroke-width: 1.0;"/><path d="M649.0156,647.875 Q649.1719,647.6563 649.3594,647.5469 Q649.5469,647.4375 649.7656,647.4375 Q650.1406,647.4375 650.375,647.7031 Q650.6094,647.9531 650.6094,648.5625 L650.6094,650.0156 Q650.6094,650.625 650.375,650.8906 Q650.1406,651.1563 649.7656,651.1563 Q649.4219,651.1563 649.2188,650.9531 Q649.0156,650.7656 648.9063,650.25 Q648.8594,649.8906 648.6719,649.7031 Q648.3438,649.3281 647.7344,649.1094 Q647.125,648.8906 646.5,648.8906 Q645.7344,648.8906 645.0938,649.2188 Q644.4688,649.5469 643.9688,650.2969 Q643.4844,651.0469 643.4844,652.0781 L643.4844,653.1719 Q643.4844,654.4063 644.375,655.2344 Q645.2656,656.0469 646.8594,656.0469 Q647.7969,656.0469 648.4531,655.7969 Q648.8438,655.6406 649.2656,655.2031 Q649.5313,654.9375 649.6719,654.8594 Q649.8281,654.7813 650.0313,654.7813 Q650.3594,654.7813 650.6094,655.0469 Q650.875,655.2969 650.875,655.6406 Q650.875,655.9844 650.5313,656.3906 Q650.0313,656.9688 649.2344,657.2969 Q648.1563,657.75 646.8594,657.75 Q645.3438,657.75 644.1406,657.125 Q643.1563,656.625 642.4688,655.5625 Q641.7813,654.4844 641.7813,653.2031 L641.7813,652.0469 Q641.7813,650.7188 642.3906,649.5781 Q643.0156,648.4219 644.1094,647.8125 Q645.2031,647.1875 646.4375,647.1875 Q647.1719,647.1875 647.8125,647.3594 Q648.4688,647.5156 649.0156,647.875 Z "/><text fill="#000000" font-family="sans-serif" font-size="12" lengthAdjust="spacingAndGlyphs" textLength="79" x="666.75" y="656.9102">StartController</text><line style="stroke: #A80036; stroke-width: 1.5;" x1="603" x2="777" y1="668" y2="668"/><line style="stroke: #A80036; stroke-width: 1.5;" x1="603" x2="777" y1="676" y2="676"/><ellipse cx="613" cy="687" fill="#84BE84" rx="3" ry="3" style="stroke: #038048; stroke-width: 1.0;"/><text fill="#000000" font-family="sans-serif" font-size="11" lengthAdjust="spacingAndGlyphs" textLength="136" x="622" y="691.4189">StartController(Game, State)</text><ellipse cx="613" cy="700.8359" fill="#84BE84" rx="3" ry="3" style="stroke: #038048; stroke-width: 1.0;"/><text fill="#000000" font-family="sans-serif" font-size="11" lengthAdjust="spacingAndGlyphs" textLength="56" x="622" y="705.2549">start(): void</text><ellipse cx="613" cy="714.6719" fill="#84BE84" rx="3" ry="3" style="stroke: #038048; stroke-width: 1.0;"/><text fill="#000000" font-family="sans-serif" font-size="11" lengthAdjust="spacingAndGlyphs" textLength="112" x="622" y="719.0908">createPlayers(int): void</text><ellipse cx="613" cy="728.5078" fill="#84BE84" rx="3" ry="3" style="stroke: #038048; stroke-width: 1.0;"/><text fill="#000000" font-family="sans-serif" font-size="11" lengthAdjust="spacingAndGlyphs" textLength="150" x="622" y="732.9268">accept(ControllersVisitor): void</text><!--MD5=[b574e60c06c50037ff1b014277a67d62]
class tictactoe.controllers.PlayController--><rect fill="#FEFECE" filter="url(#f1feetnky1tuwq)" height="310.8828" id="tictactoe.controllers.PlayController" style="stroke: #A80036; stroke-width: 1.5;" width="322" x="32" y="532"/><ellipse cx="150.25" cy="548" fill="#ADD1B2" rx="11" ry="11" style="stroke: #A80036; stroke-width: 1.0;"/><path d="M153.0156,543.875 Q153.1719,543.6563 153.3594,543.5469 Q153.5469,543.4375 153.7656,543.4375 Q154.1406,543.4375 154.375,543.7031 Q154.6094,543.9531 154.6094,544.5625 L154.6094,546.0156 Q154.6094,546.625 154.375,546.8906 Q154.1406,547.1563 153.7656,547.1563 Q153.4219,547.1563 153.2188,546.9531 Q153.0156,546.7656 152.9063,546.25 Q152.8594,545.8906 152.6719,545.7031 Q152.3438,545.3281 151.7344,545.1094 Q151.125,544.8906 150.5,544.8906 Q149.7344,544.8906 149.0938,545.2188 Q148.4688,545.5469 147.9688,546.2969 Q147.4844,547.0469 147.4844,548.0781 L147.4844,549.1719 Q147.4844,550.4063 148.375,551.2344 Q149.2656,552.0469 150.8594,552.0469 Q151.7969,552.0469 152.4531,551.7969 Q152.8438,551.6406 153.2656,551.2031 Q153.5313,550.9375 153.6719,550.8594 Q153.8281,550.7813 154.0313,550.7813 Q154.3594,550.7813 154.6094,551.0469 Q154.875,551.2969 154.875,551.6406 Q154.875,551.9844 154.5313,552.3906 Q154.0313,552.9688 153.2344,553.2969 Q152.1563,553.75 150.8594,553.75 Q149.3438,553.75 148.1406,553.125 Q147.1563,552.625 146.4688,551.5625 Q145.7813,550.4844 145.7813,549.2031 L145.7813,548.0469 Q145.7813,546.7188 146.3906,545.5781 Q147.0156,544.4219 148.1094,543.8125 Q149.2031,543.1875 150.4375,543.1875 Q151.1719,543.1875 151.8125,543.3594 Q152.4688,543.5156 153.0156,543.875 Z "/><text fill="#000000" font-family="sans-serif" font-size="12" lengthAdjust="spacingAndGlyphs" textLength="77" x="170.75" y="552.9102">PlayController</text><line style="stroke: #A80036; stroke-width: 1.5;" x1="33" x2="353" y1="564" y2="564"/><line style="stroke: #A80036; stroke-width: 1.5;" x1="33" x2="353" y1="572" y2="572"/><ellipse cx="43" cy="583" fill="#84BE84" rx="3" ry="3" style="stroke: #038048; stroke-width: 1.0;"/><text fill="#000000" font-family="sans-serif" font-size="11" lengthAdjust="spacingAndGlyphs" textLength="133" x="52" y="587.4189">PlayController(Game, State)</text><ellipse cx="43" cy="596.8359" fill="#84BE84" rx="3" ry="3" style="stroke: #038048; stroke-width: 1.0;"/><text fill="#000000" font-family="sans-serif" font-size="11" lengthAdjust="spacingAndGlyphs" textLength="164" x="52" y="601.2549">getTokenPlayerFromTurn(): Player</text><ellipse cx="43" cy="610.6719" fill="#84BE84" rx="3" ry="3" style="stroke: #038048; stroke-width: 1.0;"/><text fill="#000000" font-family="sans-serif" font-size="11" lengthAdjust="spacingAndGlyphs" textLength="224" x="52" y="615.0908">getTypeOfTokenPlayerFromTurn(): PlayerType</text><ellipse cx="43" cy="624.5078" fill="#84BE84" rx="3" ry="3" style="stroke: #038048; stroke-width: 1.0;"/><text fill="#000000" font-family="sans-serif" font-size="11" lengthAdjust="spacingAndGlyphs" textLength="196" x="52" y="628.9268">getPutCoordinateError(Coordinate): Error</text><ellipse cx="43" cy="638.3438" fill="#84BE84" rx="3" ry="3" style="stroke: #038048; stroke-width: 1.0;"/><text fill="#000000" font-family="sans-serif" font-size="11" lengthAdjust="spacingAndGlyphs" textLength="235" x="52" y="642.7627">getMoveOriginCoordinateError(Coordinate): Error</text><ellipse cx="43" cy="652.1797" fill="#84BE84" rx="3" ry="3" style="stroke: #038048; stroke-width: 1.0;"/><text fill="#000000" font-family="sans-serif" font-size="11" lengthAdjust="spacingAndGlyphs" textLength="296" x="52" y="656.5986">getMoveTargetCoordinateError(Coordinate, Coordinate): Error</text><ellipse cx="43" cy="666.0156" fill="#84BE84" rx="3" ry="3" style="stroke: #038048; stroke-width: 1.0;"/><text fill="#000000" font-family="sans-serif" font-size="11" lengthAdjust="spacingAndGlyphs" textLength="188" x="52" y="670.4346">isCoordinateValid(Coordinate): boolean</text><ellipse cx="43" cy="679.8516" fill="#84BE84" rx="3" ry="3" style="stroke: #038048; stroke-width: 1.0;"/><text fill="#000000" font-family="sans-serif" font-size="11" lengthAdjust="spacingAndGlyphs" textLength="200" x="52" y="684.2705">generateRandomCoordinate(): Coordinate</text><ellipse cx="43" cy="693.6875" fill="#84BE84" rx="3" ry="3" style="stroke: #038048; stroke-width: 1.0;"/><text fill="#000000" font-family="sans-serif" font-size="11" lengthAdjust="spacingAndGlyphs" textLength="133" x="52" y="698.1064">isBoardComplete(): boolean</text><ellipse cx="43" cy="707.5234" fill="#84BE84" rx="3" ry="3" style="stroke: #038048; stroke-width: 1.0;"/><text fill="#000000" font-family="sans-serif" font-size="11" lengthAdjust="spacingAndGlyphs" textLength="206" x="52" y="711.9424">putTokenPlayerFromTurn(Coordinate): void</text><ellipse cx="43" cy="721.3594" fill="#84BE84" rx="3" ry="3" style="stroke: #038048; stroke-width: 1.0;"/><text fill="#000000" font-family="sans-serif" font-size="11" lengthAdjust="spacingAndGlyphs" textLength="275" x="52" y="725.7783">moveTokenPlayerFromTurn(Coordinate, Coordinate): void</text><ellipse cx="43" cy="735.1953" fill="#84BE84" rx="3" ry="3" style="stroke: #038048; stroke-width: 1.0;"/><text fill="#000000" font-family="sans-serif" font-size="11" lengthAdjust="spacingAndGlyphs" textLength="92" x="52" y="739.6143">changeTurn(): void</text><ellipse cx="43" cy="749.0313" fill="#84BE84" rx="3" ry="3" style="stroke: #038048; stroke-width: 1.0;"/><text fill="#000000" font-family="sans-serif" font-size="11" lengthAdjust="spacingAndGlyphs" textLength="155" x="52" y="753.4502">getTokenChar(Coordinate): char</text><ellipse cx="43" cy="762.8672" fill="#84BE84" rx="3" ry="3" style="stroke: #038048; stroke-width: 1.0;"/><text fill="#000000" font-family="sans-serif" font-size="11" lengthAdjust="spacingAndGlyphs" textLength="170" x="52" y="767.2861">isEmptyToken(Coordinate): boolean</text><ellipse cx="43" cy="776.7031" fill="#84BE84" rx="3" ry="3" style="stroke: #038048; stroke-width: 1.0;"/><text fill="#000000" font-family="sans-serif" font-size="11" lengthAdjust="spacingAndGlyphs" textLength="141" x="52" y="781.1221">getCoordinateDimension(): int</text><ellipse cx="43" cy="790.5391" fill="#84BE84" rx="3" ry="3" style="stroke: #038048; stroke-width: 1.0;"/><text fill="#000000" font-family="sans-serif" font-size="11" lengthAdjust="spacingAndGlyphs" textLength="114" x="52" y="794.958">getValueFromTurn(): int</text><ellipse cx="43" cy="804.375" fill="#84BE84" rx="3" ry="3" style="stroke: #038048; stroke-width: 1.0;"/><text fill="#000000" font-family="sans-serif" font-size="11" lengthAdjust="spacingAndGlyphs" textLength="110" x="52" y="808.7939">isTicTacToe(): boolean</text><ellipse cx="43" cy="818.2109" fill="#84BE84" rx="3" ry="3" style="stroke: #038048; stroke-width: 1.0;"/><text fill="#000000" font-family="sans-serif" font-size="11" lengthAdjust="spacingAndGlyphs" textLength="100" x="52" y="822.6299">continueState(): void</text><ellipse cx="43" cy="832.0469" fill="#84BE84" rx="3" ry="3" style="stroke: #038048; stroke-width: 1.0;"/><text fill="#000000" font-family="sans-serif" font-size="11" lengthAdjust="spacingAndGlyphs" textLength="150" x="52" y="836.4658">accept(ControllersVisitor): void</text><!--MD5=[3b8962fd5847b9038b2e29740dae8054]
class tictactoe.controllers.Logic--><rect fill="#FEFECE" filter="url(#f1feetnky1tuwq)" height="117.1797" id="tictactoe.controllers.Logic" style="stroke: #A80036; stroke-width: 1.5;" width="220" x="558" y="42"/><ellipse cx="648.75" cy="58" fill="#ADD1B2" rx="11" ry="11" style="stroke: #A80036; stroke-width: 1.0;"/><path d="M651.5156,53.875 Q651.6719,53.6563 651.8594,53.5469 Q652.0469,53.4375 652.2656,53.4375 Q652.6406,53.4375 652.875,53.7031 Q653.1094,53.9531 653.1094,54.5625 L653.1094,56.0156 Q653.1094,56.625 652.875,56.8906 Q652.6406,57.1563 652.2656,57.1563 Q651.9219,57.1563 651.7188,56.9531 Q651.5156,56.7656 651.4063,56.25 Q651.3594,55.8906 651.1719,55.7031 Q650.8438,55.3281 650.2344,55.1094 Q649.625,54.8906 649,54.8906 Q648.2344,54.8906 647.5938,55.2188 Q646.9688,55.5469 646.4688,56.2969 Q645.9844,57.0469 645.9844,58.0781 L645.9844,59.1719 Q645.9844,60.4063 646.875,61.2344 Q647.7656,62.0469 649.3594,62.0469 Q650.2969,62.0469 650.9531,61.7969 Q651.3438,61.6406 651.7656,61.2031 Q652.0313,60.9375 652.1719,60.8594 Q652.3281,60.7813 652.5313,60.7813 Q652.8594,60.7813 653.1094,61.0469 Q653.375,61.2969 653.375,61.6406 Q653.375,61.9844 653.0313,62.3906 Q652.5313,62.9688 651.7344,63.2969 Q650.6563,63.75 649.3594,63.75 Q647.8438,63.75 646.6406,63.125 Q645.6563,62.625 644.9688,61.5625 Q644.2813,60.4844 644.2813,59.2031 L644.2813,58.0469 Q644.2813,56.7188 644.8906,55.5781 Q645.5156,54.4219 646.6094,53.8125 Q647.7031,53.1875 648.9375,53.1875 Q649.6719,53.1875 650.3125,53.3594 Q650.9688,53.5156 651.5156,53.875 Z "/><text fill="#000000" font-family="sans-serif" font-size="12" lengthAdjust="spacingAndGlyphs" textLength="30" x="669.25" y="62.9102">Logic</text><line style="stroke: #A80036; stroke-width: 1.5;" x1="559" x2="777" y1="74" y2="74"/><rect fill="none" height="6" style="stroke: #C82930; stroke-width: 1.0;" width="6" x="566" y="82"/><text fill="#000000" font-family="sans-serif" font-size="11" lengthAdjust="spacingAndGlyphs" textLength="55" x="578" y="89.4189">state: State</text><rect fill="none" height="6" style="stroke: #C82930; stroke-width: 1.0;" width="6" x="566" y="95.8359"/><text fill="#000000" font-family="sans-serif" font-size="11" lengthAdjust="spacingAndGlyphs" textLength="60" x="578" y="103.2549">game: Game</text><rect fill="none" height="6" style="stroke: #C82930; stroke-width: 1.0;" width="6" x="566" y="109.6719"/><text fill="#000000" font-family="sans-serif" font-size="11" lengthAdjust="spacingAndGlyphs" textLength="194" x="578" y="117.0908">controllers: Map&lt;StateValue, Controller&gt;</text><line style="stroke: #A80036; stroke-width: 1.5;" x1="559" x2="777" y1="123.5078" y2="123.5078"/><ellipse cx="569" cy="134.5078" fill="#84BE84" rx="3" ry="3" style="stroke: #038048; stroke-width: 1.0;"/><text fill="#000000" font-family="sans-serif" font-size="11" lengthAdjust="spacingAndGlyphs" textLength="34" x="578" y="138.9268">Logic()</text><ellipse cx="569" cy="148.3438" fill="#84BE84" rx="3" ry="3" style="stroke: #038048; stroke-width: 1.0;"/><text fill="#000000" font-family="sans-serif" font-size="11" lengthAdjust="spacingAndGlyphs" textLength="121" x="578" y="152.7627">getController(): Controller</text><!--MD5=[8d3188f3c370ea7d5d91d12bca83b67a]
class tictactoe.models.Game--><rect fill="#FEFECE" filter="url(#f1feetnky1tuwq)" height="48" id="tictactoe.models.Game" style="stroke: #A80036; stroke-width: 1.5;" width="66" x="835" y="919"/><ellipse cx="850" cy="935" fill="#ADD1B2" rx="11" ry="11" style="stroke: #A80036; stroke-width: 1.0;"/><path d="M852.7656,930.875 Q852.9219,930.6563 853.1094,930.5469 Q853.2969,930.4375 853.5156,930.4375 Q853.8906,930.4375 854.125,930.7031 Q854.3594,930.9531 854.3594,931.5625 L854.3594,933.0156 Q854.3594,933.625 854.125,933.8906 Q853.8906,934.1563 853.5156,934.1563 Q853.1719,934.1563 852.9688,933.9531 Q852.7656,933.7656 852.6563,933.25 Q852.6094,932.8906 852.4219,932.7031 Q852.0938,932.3281 851.4844,932.1094 Q850.875,931.8906 850.25,931.8906 Q849.4844,931.8906 848.8438,932.2188 Q848.2188,932.5469 847.7188,933.2969 Q847.2344,934.0469 847.2344,935.0781 L847.2344,936.1719 Q847.2344,937.4063 848.125,938.2344 Q849.0156,939.0469 850.6094,939.0469 Q851.5469,939.0469 852.2031,938.7969 Q852.5938,938.6406 853.0156,938.2031 Q853.2813,937.9375 853.4219,937.8594 Q853.5781,937.7813 853.7813,937.7813 Q854.1094,937.7813 854.3594,938.0469 Q854.625,938.2969 854.625,938.6406 Q854.625,938.9844 854.2813,939.3906 Q853.7813,939.9688 852.9844,940.2969 Q851.9063,940.75 850.6094,940.75 Q849.0938,940.75 847.8906,940.125 Q846.9063,939.625 846.2188,938.5625 Q845.5313,937.4844 845.5313,936.2031 L845.5313,935.0469 Q845.5313,933.7188 846.1406,932.5781 Q846.7656,931.4219 847.8594,930.8125 Q848.9531,930.1875 850.1875,930.1875 Q850.9219,930.1875 851.5625,930.3594 Q852.2188,930.5156 852.7656,930.875 Z "/><text fill="#000000" font-family="sans-serif" font-size="12" lengthAdjust="spacingAndGlyphs" textLength="34" x="864" y="939.9102">Game</text><line style="stroke: #A80036; stroke-width: 1.5;" x1="836" x2="900" y1="951" y2="951"/><line style="stroke: #A80036; stroke-width: 1.5;" x1="836" x2="900" y1="959" y2="959"/><!--MD5=[895b6132a90c2908aef15a128e2ee1f5]
class tictactoe.models.State--><rect fill="#FEFECE" filter="url(#f1feetnky1tuwq)" height="48" id="tictactoe.models.State" style="stroke: #A80036; stroke-width: 1.5;" width="60" x="936" y="919"/><ellipse cx="951" cy="935" fill="#ADD1B2" rx="11" ry="11" style="stroke: #A80036; stroke-width: 1.0;"/><path d="M953.7656,930.875 Q953.9219,930.6563 954.1094,930.5469 Q954.2969,930.4375 954.5156,930.4375 Q954.8906,930.4375 955.125,930.7031 Q955.3594,930.9531 955.3594,931.5625 L955.3594,933.0156 Q955.3594,933.625 955.125,933.8906 Q954.8906,934.1563 954.5156,934.1563 Q954.1719,934.1563 953.9688,933.9531 Q953.7656,933.7656 953.6563,933.25 Q953.6094,932.8906 953.4219,932.7031 Q953.0938,932.3281 952.4844,932.1094 Q951.875,931.8906 951.25,931.8906 Q950.4844,931.8906 949.8438,932.2188 Q949.2188,932.5469 948.7188,933.2969 Q948.2344,934.0469 948.2344,935.0781 L948.2344,936.1719 Q948.2344,937.4063 949.125,938.2344 Q950.0156,939.0469 951.6094,939.0469 Q952.5469,939.0469 953.2031,938.7969 Q953.5938,938.6406 954.0156,938.2031 Q954.2813,937.9375 954.4219,937.8594 Q954.5781,937.7813 954.7813,937.7813 Q955.1094,937.7813 955.3594,938.0469 Q955.625,938.2969 955.625,938.6406 Q955.625,938.9844 955.2813,939.3906 Q954.7813,939.9688 953.9844,940.2969 Q952.9063,940.75 951.6094,940.75 Q950.0938,940.75 948.8906,940.125 Q947.9063,939.625 947.2188,938.5625 Q946.5313,937.4844 946.5313,936.2031 L946.5313,935.0469 Q946.5313,933.7188 947.1406,932.5781 Q947.7656,931.4219 948.8594,930.8125 Q949.9531,930.1875 951.1875,930.1875 Q951.9219,930.1875 952.5625,930.3594 Q953.2188,930.5156 953.7656,930.875 Z "/><text fill="#000000" font-family="sans-serif" font-size="12" lengthAdjust="spacingAndGlyphs" textLength="28" x="965" y="939.9102">State</text><line style="stroke: #A80036; stroke-width: 1.5;" x1="937" x2="995" y1="951" y2="951"/><line style="stroke: #A80036; stroke-width: 1.5;" x1="937" x2="995" y1="959" y2="959"/><!--MD5=[c8f7ee38df84fc6c47e5792f2767cf35]
class tictactoe.models.StateValue--><rect fill="#FEFECE" filter="url(#f1feetnky1tuwq)" height="48" id="tictactoe.models.StateValue" style="stroke: #A80036; stroke-width: 1.5;" width="91" x="1031.5" y="919"/><ellipse cx="1046.5" cy="935" fill="#ADD1B2" rx="11" ry="11" style="stroke: #A80036; stroke-width: 1.0;"/><path d="M1049.2656,930.875 Q1049.4219,930.6563 1049.6094,930.5469 Q1049.7969,930.4375 1050.0156,930.4375 Q1050.3906,930.4375 1050.625,930.7031 Q1050.8594,930.9531 1050.8594,931.5625 L1050.8594,933.0156 Q1050.8594,933.625 1050.625,933.8906 Q1050.3906,934.1563 1050.0156,934.1563 Q1049.6719,934.1563 1049.4688,933.9531 Q1049.2656,933.7656 1049.1563,933.25 Q1049.1094,932.8906 1048.9219,932.7031 Q1048.5938,932.3281 1047.9844,932.1094 Q1047.375,931.8906 1046.75,931.8906 Q1045.9844,931.8906 1045.3438,932.2188 Q1044.7188,932.5469 1044.2188,933.2969 Q1043.7344,934.0469 1043.7344,935.0781 L1043.7344,936.1719 Q1043.7344,937.4063 1044.625,938.2344 Q1045.5156,939.0469 1047.1094,939.0469 Q1048.0469,939.0469 1048.7031,938.7969 Q1049.0938,938.6406 1049.5156,938.2031 Q1049.7813,937.9375 1049.9219,937.8594 Q1050.0781,937.7813 1050.2813,937.7813 Q1050.6094,937.7813 1050.8594,938.0469 Q1051.125,938.2969 1051.125,938.6406 Q1051.125,938.9844 1050.7813,939.3906 Q1050.2813,939.9688 1049.4844,940.2969 Q1048.4063,940.75 1047.1094,940.75 Q1045.5938,940.75 1044.3906,940.125 Q1043.4063,939.625 1042.7188,938.5625 Q1042.0313,937.4844 1042.0313,936.2031 L1042.0313,935.0469 Q1042.0313,933.7188 1042.6406,932.5781 Q1043.2656,931.4219 1044.3594,930.8125 Q1045.4531,930.1875 1046.6875,930.1875 Q1047.4219,930.1875 1048.0625,930.3594 Q1048.7188,930.5156 1049.2656,930.875 Z "/><text fill="#000000" font-family="sans-serif" font-size="12" lengthAdjust="spacingAndGlyphs" textLength="59" x="1060.5" y="939.9102">StateValue</text><line style="stroke: #A80036; stroke-width: 1.5;" x1="1032.5" x2="1121.5" y1="951" y2="951"/><line style="stroke: #A80036; stroke-width: 1.5;" x1="1032.5" x2="1121.5" y1="959" y2="959"/><!--MD5=[55d70ecb9e3ba4786ec1f15d0b7dce13]
class tictactoe.models.Coordinate--><rect fill="#FEFECE" filter="url(#f1feetnky1tuwq)" height="48" id="tictactoe.models.Coordinate" style="stroke: #A80036; stroke-width: 1.5;" width="93" x="706.5" y="919"/><ellipse cx="721.5" cy="935" fill="#ADD1B2" rx="11" ry="11" style="stroke: #A80036; stroke-width: 1.0;"/><path d="M724.2656,930.875 Q724.4219,930.6563 724.6094,930.5469 Q724.7969,930.4375 725.0156,930.4375 Q725.3906,930.4375 725.625,930.7031 Q725.8594,930.9531 725.8594,931.5625 L725.8594,933.0156 Q725.8594,933.625 725.625,933.8906 Q725.3906,934.1563 725.0156,934.1563 Q724.6719,934.1563 724.4688,933.9531 Q724.2656,933.7656 724.1563,933.25 Q724.1094,932.8906 723.9219,932.7031 Q723.5938,932.3281 722.9844,932.1094 Q722.375,931.8906 721.75,931.8906 Q720.9844,931.8906 720.3438,932.2188 Q719.7188,932.5469 719.2188,933.2969 Q718.7344,934.0469 718.7344,935.0781 L718.7344,936.1719 Q718.7344,937.4063 719.625,938.2344 Q720.5156,939.0469 722.1094,939.0469 Q723.0469,939.0469 723.7031,938.7969 Q724.0938,938.6406 724.5156,938.2031 Q724.7813,937.9375 724.9219,937.8594 Q725.0781,937.7813 725.2813,937.7813 Q725.6094,937.7813 725.8594,938.0469 Q726.125,938.2969 726.125,938.6406 Q726.125,938.9844 725.7813,939.3906 Q725.2813,939.9688 724.4844,940.2969 Q723.4063,940.75 722.1094,940.75 Q720.5938,940.75 719.3906,940.125 Q718.4063,939.625 717.7188,938.5625 Q717.0313,937.4844 717.0313,936.2031 L717.0313,935.0469 Q717.0313,933.7188 717.6406,932.5781 Q718.2656,931.4219 719.3594,930.8125 Q720.4531,930.1875 721.6875,930.1875 Q722.4219,930.1875 723.0625,930.3594 Q723.7188,930.5156 724.2656,930.875 Z "/><text fill="#000000" font-family="sans-serif" font-size="12" lengthAdjust="spacingAndGlyphs" textLength="61" x="735.5" y="939.9102">Coordinate</text><line style="stroke: #A80036; stroke-width: 1.5;" x1="707.5" x2="798.5" y1="951" y2="951"/><line style="stroke: #A80036; stroke-width: 1.5;" x1="707.5" x2="798.5" y1="959" y2="959"/><!--MD5=[a8a83881b90490f923aa71f2c5ea5dc6]
class java.util.Map--><rect fill="#FEFECE" filter="url(#f1feetnky1tuwq)" height="48" id="java.util.Map" style="stroke: #A80036; stroke-width: 1.5;" width="55" x="1168.5" y="246.5"/><ellipse cx="1183.5" cy="262.5" fill="#ADD1B2" rx="11" ry="11" style="stroke: #A80036; stroke-width: 1.0;"/><path d="M1186.2656,258.375 Q1186.4219,258.1563 1186.6094,258.0469 Q1186.7969,257.9375 1187.0156,257.9375 Q1187.3906,257.9375 1187.625,258.2031 Q1187.8594,258.4531 1187.8594,259.0625 L1187.8594,260.5156 Q1187.8594,261.125 1187.625,261.3906 Q1187.3906,261.6563 1187.0156,261.6563 Q1186.6719,261.6563 1186.4688,261.4531 Q1186.2656,261.2656 1186.1563,260.75 Q1186.1094,260.3906 1185.9219,260.2031 Q1185.5938,259.8281 1184.9844,259.6094 Q1184.375,259.3906 1183.75,259.3906 Q1182.9844,259.3906 1182.3438,259.7188 Q1181.7188,260.0469 1181.2188,260.7969 Q1180.7344,261.5469 1180.7344,262.5781 L1180.7344,263.6719 Q1180.7344,264.9063 1181.625,265.7344 Q1182.5156,266.5469 1184.1094,266.5469 Q1185.0469,266.5469 1185.7031,266.2969 Q1186.0938,266.1406 1186.5156,265.7031 Q1186.7813,265.4375 1186.9219,265.3594 Q1187.0781,265.2813 1187.2813,265.2813 Q1187.6094,265.2813 1187.8594,265.5469 Q1188.125,265.7969 1188.125,266.1406 Q1188.125,266.4844 1187.7813,266.8906 Q1187.2813,267.4688 1186.4844,267.7969 Q1185.4063,268.25 1184.1094,268.25 Q1182.5938,268.25 1181.3906,267.625 Q1180.4063,267.125 1179.7188,266.0625 Q1179.0313,264.9844 1179.0313,263.7031 L1179.0313,262.5469 Q1179.0313,261.2188 1179.6406,260.0781 Q1180.2656,258.9219 1181.3594,258.3125 Q1182.4531,257.6875 1183.6875,257.6875 Q1184.4219,257.6875 1185.0625,257.8594 Q1185.7188,258.0156 1186.2656,258.375 Z "/><text fill="#000000" font-family="sans-serif" font-size="12" lengthAdjust="spacingAndGlyphs" textLength="23" x="1197.5" y="267.4102">Map</text><line style="stroke: #A80036; stroke-width: 1.5;" x1="1169.5" x2="1222.5" y1="278.5" y2="278.5"/><line style="stroke: #A80036; stroke-width: 1.5;" x1="1169.5" x2="1222.5" y1="286.5" y2="286.5"/><!--MD5=[67f54059f517de4e17e4f415259fadfa]
link tictactoe.controllers.Controller to tictactoe.models.Game--><path d="M697.937,322.113 C726.961,373.351 770.144,455.695 795,532 C840.287,671.023 859.579,846.258 865.685,913.736 " fill="none" id="tictactoe.controllers.Controller-&gt;tictactoe.models.Game" style="stroke: #A80036; stroke-width: 1.0;"/><polygon fill="#A80036" points="866.136,918.7879,869.3207,909.4681,865.6918,913.8077,861.3523,910.1788,866.136,918.7879" style="stroke: #A80036; stroke-width: 1.0;"/><!--MD5=[958c68ec9081d3cd0ffa7948938073c3]
link tictactoe.controllers.Controller to tictactoe.models.State--><path d="M724.459,322.2 C742.516,340.048 761.756,360.933 777,382 C904.69,558.457 950.569,827.31 962.517,914.0095 " fill="none" id="tictactoe.controllers.Controller-&gt;tictactoe.models.State" style="stroke: #A80036; stroke-width: 1.0;"/><polygon fill="#A80036" points="963.191,918.9717,965.9429,909.5151,962.5178,914.0172,958.0157,910.5922,963.191,918.9717" style="stroke: #A80036; stroke-width: 1.0;"/><!--MD5=[4127cc8c86163a8135ac1ffbe5841b27]
link tictactoe.controllers.Controller to tictactoe.controllers.ControllersVisitor--><path d="M640.495,322.089 C630.835,339.857 620.009,359.769 610.439,377.372 " fill="none" id="tictactoe.controllers.Controller-&gt;tictactoe.controllers.ControllersVisitor" style="stroke: #A80036; stroke-width: 1.0; stroke-dasharray: 7.0,7.0;"/><polygon fill="#A80036" points="608.034,381.794,615.8473,375.798,610.4225,377.4014,608.8191,371.9765,608.034,381.794" style="stroke: #A80036; stroke-width: 1.0;"/><!--MD5=[9b074b476e1f8b0920b81204b835436f]
link tictactoe.controllers.ControllersVisitor to tictactoe.controllers.ResumeController--><path d="M565.898,472.144 C547.09,518.011 517.727,589.618 498.183,637.281 " fill="none" id="tictactoe.controllers.ControllersVisitor-&gt;tictactoe.controllers.ResumeController" style="stroke: #A80036; stroke-width: 1.0; stroke-dasharray: 7.0,7.0;"/><polygon fill="#A80036" points="496.204,642.105,503.3192,635.2952,498.1008,637.4787,495.9172,632.2603,496.204,642.105" style="stroke: #A80036; stroke-width: 1.0;"/><!--MD5=[c4479c2b753b757fcf886b22c7a436e9]
link tictactoe.controllers.ControllersVisitor to tictactoe.controllers.StartController--><path d="M602.102,472.144 C620.109,516.059 647.793,583.57 667.271,631.07 " fill="none" id="tictactoe.controllers.ControllersVisitor-&gt;tictactoe.controllers.StartController" style="stroke: #A80036; stroke-width: 1.0; stroke-dasharray: 7.0,7.0;"/><polygon fill="#A80036" points="669.248,635.892,669.5348,626.0473,667.3512,631.2657,662.1328,629.0822,669.248,635.892" style="stroke: #A80036; stroke-width: 1.0;"/><!--MD5=[ccfc00cc7008c98e03882e77f79ceb2e]
link tictactoe.controllers.ControllersVisitor to tictactoe.controllers.PlayController--><path d="M501.887,462.028 C461.148,480.401 412.012,504.864 371,532 C366.777,534.794 362.546,537.679 358.318,540.64 " fill="none" id="tictactoe.controllers.ControllersVisitor-&gt;tictactoe.controllers.PlayController" style="stroke: #A80036; stroke-width: 1.0; stroke-dasharray: 7.0,7.0;"/><polygon fill="#A80036" points="354.092,543.625,363.751,541.7007,358.1762,540.7407,359.1362,535.1659,354.092,543.625" style="stroke: #A80036; stroke-width: 1.0;"/><!--MD5=[bf6ea4e22b99b81dd48bbf2eb1cf70e8]
link tictactoe.controllers.Logic to tictactoe.models.Game--><path d="M749.1444,167.9198 C749.1444,167.9198 768.162,190.689 775,202.5 C912.709,440.372 885.92,792.627 872.806,905.6778 " fill="none" id="tictactoe.controllers.Logic-tictactoe.models.Game" style="stroke: #A80036; stroke-width: 1.0;"/><polygon fill="#A80036" points="871.212,918.8429,876.2646,910.3888,871.8129,913.8791,868.3226,909.4274,871.212,918.8429" style="stroke: #A80036; stroke-width: 1.0;"/><line style="stroke: #A80036; stroke-width: 1.0;" x1="871.8129" x2="872.7745" y1="913.8791" y2="905.9372"/><polygon fill="#A80036" points="740.912,159.189,742.1179,166.2986,749.1444,167.9198,747.9385,160.8103,740.912,159.189" style="stroke: #A80036; stroke-width: 1.0;"/><!--MD5=[758f687dc2a943dbf7811856af1b401c]
link tictactoe.controllers.Logic to tictactoe.models.State--><path d="M787.8579,164.1014 C787.8579,164.1014 816.279,188.503 827,202.5 C996.478,423.759 980.013,789.85 969.823,905.6882 " fill="none" id="tictactoe.controllers.Logic-tictactoe.models.State" style="stroke: #A80036; stroke-width: 1.0;"/><polygon fill="#A80036" points="968.595,918.848,973.4141,910.2587,969.0597,913.8696,965.4488,909.5152,968.595,918.848" style="stroke: #A80036; stroke-width: 1.0;"/><line style="stroke: #A80036; stroke-width: 1.0;" x1="969.0597" x2="969.803" y1="913.8696" y2="905.9043"/><polygon fill="#A80036" points="778.241,156.924,780.657,163.7183,787.8579,164.1014,785.4419,157.3071,778.241,156.924" style="stroke: #A80036; stroke-width: 1.0;"/><!--MD5=[12d6b2ee7a1b6faf9fe809f483963ab7]
link tictactoe.controllers.Logic to tictactoe.controllers.Controller--><path d="M668,159.316 C668,176.863 668,196.105 668,213.529 " fill="none" id="tictactoe.controllers.Logic-&gt;tictactoe.controllers.Controller" style="stroke: #A80036; stroke-width: 1.0;"/><polygon fill="#A80036" points="668,218.874,672,209.874,668,213.874,664,209.874,668,218.874" style="stroke: #A80036; stroke-width: 1.0;"/><!--MD5=[096abf58a0a258fd61b5f735b2bb7393]
link tictactoe.controllers.Logic to tictactoe.models.StateValue--><path d="M789.147,138.2148 C789.147,138.2148 860.549,174.807 887,202.5 C1083.2,407.907 1084.06,787.589 1079.14,905.8612 " fill="none" id="tictactoe.controllers.Logic-tictactoe.models.StateValue" style="stroke: #A80036; stroke-width: 1.0;"/><polygon fill="#A80036" points="1078.52,918.9595,1082.9389,910.1576,1078.7552,913.965,1074.9477,909.7813,1078.52,918.9595" style="stroke: #A80036; stroke-width: 1.0;"/><line style="stroke: #A80036; stroke-width: 1.0;" x1="1078.7552" x2="1079.135" y1="913.965" y2="905.9739"/><polygon fill="#A80036" points="778.098,133.533,782.0619,139.5569,789.147,138.2148,785.1831,132.1909,778.098,133.533" style="stroke: #A80036; stroke-width: 1.0;"/><!--MD5=[a6fb96677e8f708ac9e610c842063bed]
link tictactoe.controllers.Logic to java.util.Map--><path d="M790.3437,105.5484 C790.3437,105.5484 1034.33,137.552 1141,202.5 C1154.48,210.709 1166.15,223.439 1175.23,235.607 " fill="none" id="tictactoe.controllers.Logic-java.util.Map" style="stroke: #A80036; stroke-width: 1.0;"/><polygon fill="#A80036" points="1182.81,246.478,1180.9388,236.8085,1179.9482,242.378,1174.3788,241.3874,1182.81,246.478" style="stroke: #A80036; stroke-width: 1.0;"/><line style="stroke: #A80036; stroke-width: 1.0;" x1="1179.9482" x2="1175.37" y1="242.378" y2="235.8165"/><polygon fill="#A80036" points="778.38,104.616,784.0511,109.0701,790.3437,105.5484,784.6726,101.0943,778.38,104.616" style="stroke: #A80036; stroke-width: 1.0;"/><!--MD5=[5700b97431232c099330215bddfcc855]
reverse link tictactoe.controllers.Controller to tictactoe.controllers.PlayController--><path d="M559.742,315.435 C522.676,333.173 482.213,355.713 449,382 C395.25,424.54 344.699,479.864 302.945,531.664 " fill="none" id="tictactoe.controllers.Controller&lt;-tictactoe.controllers.PlayController" style="stroke: #A80036; stroke-width: 1.0;"/><polygon fill="none" points="556.815,309.077,577.902,306.99,562.718,321.771,556.815,309.077" style="stroke: #A80036; stroke-width: 1.0;"/><!--MD5=[70aedda6b24476e26c690784403df0dd]
link tictactoe.controllers.PlayController to tictactoe.models.Coordinate--><path d="M333.614,843.184 C345.658,852.063 358.163,860.147 371,867 C478.571,924.4231 624.254,938.1587 700.9,941.2639 " fill="none" id="tictactoe.controllers.PlayController-&gt;tictactoe.models.Coordinate" style="stroke: #A80036; stroke-width: 1.0; stroke-dasharray: 7.0,7.0;"/><polygon fill="#A80036" points="706.298,941.4695,697.4577,937.1279,701.3017,941.2781,697.1515,945.122,706.298,941.4695" style="stroke: #A80036; stroke-width: 1.0;"/><!--MD5=[549c2b0fc6f493adecd03b65ab276634]
reverse link tictactoe.controllers.Controller to tictactoe.controllers.ResumeController--><path d="M559.703,312.723 C529.993,329.543 501.244,352.218 484,382 C436.642,463.793 452.493,579.82 466.372,642.396 " fill="none" id="tictactoe.controllers.Controller&lt;-tictactoe.controllers.ResumeController" style="stroke: #A80036; stroke-width: 1.0;"/><polygon fill="none" points="556.767,306.358,577.726,303.242,563.285,318.748,556.767,306.358" style="stroke: #A80036; stroke-width: 1.0;"/><!--MD5=[5deb1e5c7bf9906a35de112138d88f9c]
reverse link tictactoe.controllers.Controller to tictactoe.controllers.StartController--><path d="M678.812,342.342 C680.48,355.498 681.983,369.145 683,382 C690.048,471.086 690.841,575.254 690.566,635.766 " fill="none" id="tictactoe.controllers.Controller&lt;-tictactoe.controllers.StartController" style="stroke: #A80036; stroke-width: 1.0;"/><polygon fill="none" points="671.839,343.014,676.102,322.258,685.714,341.142,671.839,343.014" style="stroke: #A80036; stroke-width: 1.0;"/><!--MD5=[11b153fd1abf03cc899a6ba330162a7c]
@startuml

class  tictactoe.controllers.Controller{
# game: Game
# state: State
~ Controller(Game, State)
+ {abstract} accept(ControllersVisitor): void
}
tictactoe.controllers.Controller -down-> tictactoe.models.Game
tictactoe.controllers.Controller -down-> tictactoe.models.State
tictactoe.controllers.Controller ..> tictactoe.controllers.ControllersVisitor

class  tictactoe.controllers.ControllersVisitor{
~ visit(StartController): void
~ visit(PlayController): void
~ visit(ResumeController): void
}
tictactoe.controllers.ControllersVisitor ..> tictactoe.controllers.ResumeController
tictactoe.controllers.ControllersVisitor ..> tictactoe.controllers.StartController
tictactoe.controllers.ControllersVisitor ..> tictactoe.controllers.PlayController

class  tictactoe.controllers.Logic{
- state: State
- game: Game
- controllers: Map<StateValue, Controller>
+ Logic()
+ getController(): Controller
}
tictactoe.controllers.Logic *-down-> tictactoe.models.Game
tictactoe.controllers.Logic *-down-> tictactoe.models.State
tictactoe.controllers.Logic - -> tictactoe.controllers.Controller
tictactoe.controllers.Logic *-down-> tictactoe.models.StateValue
tictactoe.controllers.Logic *-down-> java.util.Map

class  tictactoe.controllers.PlayController{
+ PlayController(Game, State)
+ getTokenPlayerFromTurn(): Player
+ getTypeOfTokenPlayerFromTurn(): PlayerType
+ getPutCoordinateError(Coordinate): Error
+ getMoveOriginCoordinateError(Coordinate): Error
+ getMoveTargetCoordinateError(Coordinate, Coordinate): Error
+ isCoordinateValid(Coordinate): boolean
+ generateRandomCoordinate(): Coordinate
+ isBoardComplete(): boolean
+ putTokenPlayerFromTurn(Coordinate): void
+ moveTokenPlayerFromTurn(Coordinate, Coordinate): void
+ changeTurn(): void
+ getTokenChar(Coordinate): char
+ isEmptyToken(Coordinate): boolean
+ getCoordinateDimension(): int
+ getValueFromTurn(): int
+ isTicTacToe(): boolean
+ continueState(): void
+ accept(ControllersVisitor): void
}
tictactoe.controllers.Controller <|-down- tictactoe.controllers.PlayController
tictactoe.controllers.PlayController ..> tictactoe.models.Coordinate

class  tictactoe.controllers.ResumeController{
+ ResumeController(Game, State)
+ resume(boolean): void
+ accept(ControllersVisitor): void
}
tictactoe.controllers.Controller <|-down- tictactoe.controllers.ResumeController

class  tictactoe.controllers.StartController{
+ StartController(Game, State)
+ start(): void
+ createPlayers(int): void
+ accept(ControllersVisitor): void
}
tictactoe.controllers.Controller <|-down- tictactoe.controllers.StartController

@enduml

PlantUML version 1.2020.15(Sun Jun 28 13:39:45 CEST 2020)
(GPL source distribution)
Java Runtime: Java(TM) SE Runtime Environment
JVM: Java HotSpot(TM) 64-Bit Server VM
Default Encoding: windows-1252
Language: es
Country: ES
--></g></svg>