<?xml version="1.0" encoding="UTF-8" standalone="no"?><svg xmlns="http://www.w3.org/2000/svg" xmlns:xlink="http://www.w3.org/1999/xlink" contentScriptType="application/ecmascript" contentStyleType="text/css" height="1009px" preserveAspectRatio="none" style="width:2148px;height:1009px;" version="1.1" viewBox="0 0 2148 1009" width="2148px" zoomAndPan="magnify"><defs><filter height="300%" id="fnrssn40tq8iy" width="300%" x="-1" y="-1"><feGaussianBlur result="blurOut" stdDeviation="2.0"/><feColorMatrix in="blurOut" result="blurOut2" type="matrix" values="0 0 0 0 0 0 0 0 0 0 0 0 0 0 0 0 0 0 .4 0"/><feOffset dx="4.0" dy="4.0" in="blurOut2" result="blurOut3"/><feBlend in="SourceGraphic" in2="blurOut3" mode="normal"/></filter></defs><g><!--MD5=[c6efd01a6f310cf3950d2522b9f474d7]
cluster tictactoe.views.graphics--><polygon fill="#FFFFFF" filter="url(#fnrssn40tq8iy)" points="477.0979,130,654.0979,130,661.0979,153.6094,1427.0949,153.6094,1427.0949,997,477.0979,997,477.0979,130" style="stroke: #000000; stroke-width: 1.5;"/><line style="stroke: #000000; stroke-width: 1.5;" x1="477.0979" x2="661.0979" y1="153.6094" y2="153.6094"/><text fill="#000000" font-family="sans-serif" font-size="14" font-weight="bold" lengthAdjust="spacingAndGlyphs" textLength="171" x="481.0979" y="146.5332">tictactoe.views.graphics</text><!--MD5=[535aab4de90d4dfa371a9b40d5438fc3]
cluster javax.swing--><polygon fill="#FFFFFF" filter="url(#fnrssn40tq8iy)" points="1451.0949,821,1539.0949,821,1546.0949,844.6094,2126.0949,844.6094,2126.0949,921,1451.0949,921,1451.0949,821" style="stroke: #000000; stroke-width: 1.5;"/><line style="stroke: #000000; stroke-width: 1.5;" x1="1451.0949" x2="1546.0949" y1="844.6094" y2="844.6094"/><text fill="#000000" font-family="sans-serif" font-size="14" font-weight="bold" lengthAdjust="spacingAndGlyphs" textLength="82" x="1455.0949" y="837.5332">javax.swing</text><!--MD5=[d63c23c2d4b14118d71bd46d55a646bd]
cluster java.awt.event--><polygon fill="#FFFFFF" filter="url(#fnrssn40tq8iy)" points="48.0979,355.5,156.0979,355.5,163.0979,379.1094,453.0979,379.1094,453.0979,455.5,48.0979,455.5,48.0979,355.5" style="stroke: #000000; stroke-width: 1.5;"/><line style="stroke: #000000; stroke-width: 1.5;" x1="48.0979" x2="163.0979" y1="379.1094" y2="379.1094"/><text fill="#000000" font-family="sans-serif" font-size="14" font-weight="bold" lengthAdjust="spacingAndGlyphs" textLength="102" x="52.0979" y="372.0332">java.awt.event</text><!--MD5=[759bc1a2d1cdb88d67db1361d51b76e0]
cluster java.awt--><polygon fill="#FFFFFF" filter="url(#fnrssn40tq8iy)" points="279.0979,574.5,342.0979,574.5,349.0979,598.1094,453.0979,598.1094,453.0979,674.5,279.0979,674.5,279.0979,574.5" style="stroke: #000000; stroke-width: 1.5;"/><line style="stroke: #000000; stroke-width: 1.5;" x1="279.0979" x2="349.0979" y1="598.1094" y2="598.1094"/><text fill="#000000" font-family="sans-serif" font-size="14" font-weight="bold" lengthAdjust="spacingAndGlyphs" textLength="57" x="283.0979" y="591.0332">java.awt</text><!--MD5=[f4e83a21a957c5b9ba9691e6361db36b]
cluster tictactoe.views--><polygon fill="#FFFFFF" filter="url(#fnrssn40tq8iy)" points="801.0979,6,913.0979,6,920.0979,29.6094,1018.0949,29.6094,1018.0949,106,801.0979,106,801.0979,6" style="stroke: #000000; stroke-width: 1.5;"/><line style="stroke: #000000; stroke-width: 1.5;" x1="801.0979" x2="920.0979" y1="29.6094" y2="29.6094"/><text fill="#000000" font-family="sans-serif" font-size="14" font-weight="bold" lengthAdjust="spacingAndGlyphs" textLength="106" x="805.0979" y="22.5332">tictactoe.views</text><!--MD5=[1488acd067cf8477d3fdfc79c98f1c5a]
class tictactoe.views.graphics.BoardView--><rect fill="#FEFECE" filter="url(#fnrssn40tq8iy)" height="89.5078" id="tictactoe.views.graphics.BoardView" style="stroke: #A80036; stroke-width: 1.5;" width="231" x="1179.5949" y="836"/><ellipse cx="1261.3449" cy="852" fill="#ADD1B2" rx="11" ry="11" style="stroke: #A80036; stroke-width: 1.0;"/><path d="M1264.1105,847.875 Q1264.2668,847.6563 1264.4543,847.5469 Q1264.6418,847.4375 1264.8605,847.4375 Q1265.2355,847.4375 1265.4699,847.7031 Q1265.7043,847.9531 1265.7043,848.5625 L1265.7043,850.0156 Q1265.7043,850.625 1265.4699,850.8906 Q1265.2355,851.1563 1264.8605,851.1563 Q1264.5168,851.1563 1264.3137,850.9531 Q1264.1105,850.7656 1264.0012,850.25 Q1263.9543,849.8906 1263.7668,849.7031 Q1263.4387,849.3281 1262.8293,849.1094 Q1262.2199,848.8906 1261.5949,848.8906 Q1260.8293,848.8906 1260.1887,849.2188 Q1259.5637,849.5469 1259.0637,850.2969 Q1258.5793,851.0469 1258.5793,852.0781 L1258.5793,853.1719 Q1258.5793,854.4063 1259.4699,855.2344 Q1260.3605,856.0469 1261.9543,856.0469 Q1262.8918,856.0469 1263.548,855.7969 Q1263.9387,855.6406 1264.3605,855.2031 Q1264.6262,854.9375 1264.7668,854.8594 Q1264.923,854.7813 1265.1262,854.7813 Q1265.4543,854.7813 1265.7043,855.0469 Q1265.9699,855.2969 1265.9699,855.6406 Q1265.9699,855.9844 1265.6262,856.3906 Q1265.1262,856.9688 1264.3293,857.2969 Q1263.2512,857.75 1261.9543,857.75 Q1260.4387,857.75 1259.2355,857.125 Q1258.2512,856.625 1257.5637,855.5625 Q1256.8762,854.4844 1256.8762,853.2031 L1256.8762,852.0469 Q1256.8762,850.7188 1257.4855,849.5781 Q1258.1105,848.4219 1259.2043,847.8125 Q1260.298,847.1875 1261.5324,847.1875 Q1262.2668,847.1875 1262.9074,847.3594 Q1263.5637,847.5156 1264.1105,847.875 Z "/><text fill="#000000" font-family="sans-serif" font-size="12" lengthAdjust="spacingAndGlyphs" textLength="59" x="1281.8449" y="856.9102">BoardView</text><line style="stroke: #A80036; stroke-width: 1.5;" x1="1180.5949" x2="1409.5949" y1="868" y2="868"/><line style="stroke: #A80036; stroke-width: 1.5;" x1="1180.5949" x2="1409.5949" y1="876" y2="876"/><polygon fill="#4177AF" points="1190.5949,883,1186.5949,889,1194.5949,889" style="stroke: #1963A0; stroke-width: 1.0;"/><text fill="#000000" font-family="sans-serif" font-size="11" lengthAdjust="spacingAndGlyphs" textLength="92" x="1199.5949" y="891.4189">BoardView(Board)</text><rect fill="#F24D5C" height="6" style="stroke: #C82930; stroke-width: 1.0;" width="6" x="1187.5949" y="897.8359"/><text fill="#000000" font-family="sans-serif" font-size="11" lengthAdjust="spacingAndGlyphs" textLength="153" x="1199.5949" y="905.2549">printRowBoard(Board, int): void</text><rect fill="#F24D5C" height="6" style="stroke: #C82930; stroke-width: 1.0;" width="6" x="1187.5949" y="911.6719"/><text fill="#000000" font-family="sans-serif" font-size="11" lengthAdjust="spacingAndGlyphs" textLength="205" x="1199.5949" y="919.0908">getSquareBoardText(Board, int, int): String</text><!--MD5=[bf187ea903bc4b15dc6e3ab88f11d3ae]
class tictactoe.views.graphics.ChoosePlayersView--><rect fill="#FEFECE" filter="url(#fnrssn40tq8iy)" height="172.5234" id="tictactoe.views.graphics.ChoosePlayersView" style="stroke: #A80036; stroke-width: 1.5;" width="197" x="1204.5949" y="548"/><ellipse cx="1243.8949" cy="564" fill="#ADD1B2" rx="11" ry="11" style="stroke: #A80036; stroke-width: 1.0;"/><path d="M1246.6605,559.875 Q1246.8168,559.6563 1247.0043,559.5469 Q1247.1918,559.4375 1247.4105,559.4375 Q1247.7855,559.4375 1248.0199,559.7031 Q1248.2543,559.9531 1248.2543,560.5625 L1248.2543,562.0156 Q1248.2543,562.625 1248.0199,562.8906 Q1247.7855,563.1563 1247.4105,563.1563 Q1247.0668,563.1563 1246.8637,562.9531 Q1246.6605,562.7656 1246.5512,562.25 Q1246.5043,561.8906 1246.3168,561.7031 Q1245.9887,561.3281 1245.3793,561.1094 Q1244.7699,560.8906 1244.1449,560.8906 Q1243.3793,560.8906 1242.7387,561.2188 Q1242.1137,561.5469 1241.6137,562.2969 Q1241.1293,563.0469 1241.1293,564.0781 L1241.1293,565.1719 Q1241.1293,566.4063 1242.0199,567.2344 Q1242.9105,568.0469 1244.5043,568.0469 Q1245.4418,568.0469 1246.098,567.7969 Q1246.4887,567.6406 1246.9105,567.2031 Q1247.1762,566.9375 1247.3168,566.8594 Q1247.473,566.7813 1247.6762,566.7813 Q1248.0043,566.7813 1248.2543,567.0469 Q1248.5199,567.2969 1248.5199,567.6406 Q1248.5199,567.9844 1248.1762,568.3906 Q1247.6762,568.9688 1246.8793,569.2969 Q1245.8012,569.75 1244.5043,569.75 Q1242.9887,569.75 1241.7855,569.125 Q1240.8012,568.625 1240.1137,567.5625 Q1239.4262,566.4844 1239.4262,565.2031 L1239.4262,564.0469 Q1239.4262,562.7188 1240.0355,561.5781 Q1240.6605,560.4219 1241.7543,559.8125 Q1242.848,559.1875 1244.0824,559.1875 Q1244.8168,559.1875 1245.4574,559.3594 Q1246.1137,559.5156 1246.6605,559.875 Z "/><text fill="#000000" font-family="sans-serif" font-size="12" lengthAdjust="spacingAndGlyphs" textLength="111" x="1263.2949" y="568.9102">ChoosePlayersView</text><line style="stroke: #A80036; stroke-width: 1.5;" x1="1205.5949" x2="1400.5949" y1="580" y2="580"/><rect fill="none" height="6" style="stroke: #C82930; stroke-width: 1.0;" width="6" x="1212.5949" y="588"/><text fill="#000000" font-family="sans-serif" font-size="11" lengthAdjust="spacingAndGlyphs" text-decoration="underline" textLength="74" x="1224.5949" y="595.4189">ACCEPT: String</text><rect fill="none" height="6" style="stroke: #C82930; stroke-width: 1.0;" width="6" x="1212.5949" y="601.8359"/><text fill="#000000" font-family="sans-serif" font-size="11" lengthAdjust="spacingAndGlyphs" textLength="59" x="1224.5949" y="609.2549">label: JLabel</text><rect fill="none" height="6" style="stroke: #C82930; stroke-width: 1.0;" width="6" x="1212.5949" y="615.6719"/><text fill="#000000" font-family="sans-serif" font-size="11" lengthAdjust="spacingAndGlyphs" textLength="94" x="1224.5949" y="623.0908">textField: JTextField</text><rect fill="none" height="6" style="stroke: #C82930; stroke-width: 1.0;" width="6" x="1212.5949" y="629.5078"/><text fill="#000000" font-family="sans-serif" font-size="11" lengthAdjust="spacingAndGlyphs" textLength="72" x="1224.5949" y="636.9268">button: JButton</text><rect fill="none" height="6" style="stroke: #C82930; stroke-width: 1.0;" width="6" x="1212.5949" y="643.3438"/><text fill="#000000" font-family="sans-serif" font-size="11" lengthAdjust="spacingAndGlyphs" textLength="107" x="1224.5949" y="650.7627">playersNumber: String</text><line style="stroke: #A80036; stroke-width: 1.5;" x1="1205.5949" x2="1400.5949" y1="657.1797" y2="657.1797"/><polygon fill="#4177AF" points="1215.5949,664.1797,1211.5949,670.1797,1219.5949,670.1797" style="stroke: #1963A0; stroke-width: 1.0;"/><text fill="#000000" font-family="sans-serif" font-size="11" lengthAdjust="spacingAndGlyphs" textLength="158" x="1224.5949" y="672.5986">ChoosePlayersView(JRootPane)</text><polygon fill="#4177AF" points="1215.5949,678.0156,1211.5949,684.0156,1219.5949,684.0156" style="stroke: #1963A0; stroke-width: 1.0;"/><text fill="#000000" font-family="sans-serif" font-size="11" lengthAdjust="spacingAndGlyphs" textLength="132" x="1224.5949" y="686.4346">resetPlayersNumber(): void</text><polygon fill="#4177AF" points="1215.5949,691.8516,1211.5949,697.8516,1219.5949,697.8516" style="stroke: #1963A0; stroke-width: 1.0;"/><text fill="#000000" font-family="sans-serif" font-size="11" lengthAdjust="spacingAndGlyphs" textLength="130" x="1224.5949" y="700.2705">getPlayersNumber(): String</text><ellipse cx="1215.5949" cy="709.6875" fill="#84BE84" rx="3" ry="3" style="stroke: #038048; stroke-width: 1.0;"/><text fill="#000000" font-family="sans-serif" font-size="11" lengthAdjust="spacingAndGlyphs" textLength="171" x="1224.5949" y="714.1064">actionPerformed(ActionEvent): void</text><!--MD5=[a27bdde19497c0eda453638e91b4b00c]
class tictactoe.views.graphics.Constraints--><rect fill="#FEFECE" filter="url(#fnrssn40tq8iy)" height="61.8359" id="tictactoe.views.graphics.Constraints" style="stroke: #A80036; stroke-width: 1.5;" width="151" x="993.5979" y="850"/><ellipse cx="1033.3479" cy="866" fill="#ADD1B2" rx="11" ry="11" style="stroke: #A80036; stroke-width: 1.0;"/><path d="M1036.1135,861.875 Q1036.2698,861.6563 1036.4573,861.5469 Q1036.6448,861.4375 1036.8635,861.4375 Q1037.2385,861.4375 1037.4729,861.7031 Q1037.7073,861.9531 1037.7073,862.5625 L1037.7073,864.0156 Q1037.7073,864.625 1037.4729,864.8906 Q1037.2385,865.1563 1036.8635,865.1563 Q1036.5198,865.1563 1036.3167,864.9531 Q1036.1135,864.7656 1036.0042,864.25 Q1035.9573,863.8906 1035.7698,863.7031 Q1035.4417,863.3281 1034.8323,863.1094 Q1034.2229,862.8906 1033.5979,862.8906 Q1032.8323,862.8906 1032.1917,863.2188 Q1031.5667,863.5469 1031.0667,864.2969 Q1030.5823,865.0469 1030.5823,866.0781 L1030.5823,867.1719 Q1030.5823,868.4063 1031.4729,869.2344 Q1032.3635,870.0469 1033.9573,870.0469 Q1034.8948,870.0469 1035.551,869.7969 Q1035.9417,869.6406 1036.3635,869.2031 Q1036.6292,868.9375 1036.7698,868.8594 Q1036.926,868.7813 1037.1292,868.7813 Q1037.4573,868.7813 1037.7073,869.0469 Q1037.9729,869.2969 1037.9729,869.6406 Q1037.9729,869.9844 1037.6292,870.3906 Q1037.1292,870.9688 1036.3323,871.2969 Q1035.2542,871.75 1033.9573,871.75 Q1032.4417,871.75 1031.2385,871.125 Q1030.2542,870.625 1029.5667,869.5625 Q1028.8792,868.4844 1028.8792,867.2031 L1028.8792,866.0469 Q1028.8792,864.7188 1029.4885,863.5781 Q1030.1135,862.4219 1031.2073,861.8125 Q1032.301,861.1875 1033.5354,861.1875 Q1034.2698,861.1875 1034.9104,861.3594 Q1035.5667,861.5156 1036.1135,861.875 Z "/><text fill="#000000" font-family="sans-serif" font-size="12" lengthAdjust="spacingAndGlyphs" textLength="64" x="1052.8479" y="870.9102">Constraints</text><line style="stroke: #A80036; stroke-width: 1.5;" x1="994.5979" x2="1143.5979" y1="882" y2="882"/><line style="stroke: #A80036; stroke-width: 1.5;" x1="994.5979" x2="1143.5979" y1="890" y2="890"/><polygon fill="#4177AF" points="1004.5979,897,1000.5979,903,1008.5979,903" style="stroke: #1963A0; stroke-width: 1.0;"/><text fill="#000000" font-family="sans-serif" font-size="11" lengthAdjust="spacingAndGlyphs" textLength="125" x="1013.5979" y="905.4189">Constraints(int, int, int, int)</text><!--MD5=[2f24f05233341c14cf3ecc7d9f75747f]
class tictactoe.views.graphics.CoordinateMoveView--><rect fill="#FEFECE" filter="url(#fnrssn40tq8iy)" height="200.1953" id="tictactoe.views.graphics.CoordinateMoveView" style="stroke: #A80036; stroke-width: 1.5;" width="233" x="725.5979" y="781"/><ellipse cx="780.3479" cy="797" fill="#ADD1B2" rx="11" ry="11" style="stroke: #A80036; stroke-width: 1.0;"/><path d="M783.1135,792.875 Q783.2698,792.6563 783.4573,792.5469 Q783.6448,792.4375 783.8635,792.4375 Q784.2385,792.4375 784.4729,792.7031 Q784.7073,792.9531 784.7073,793.5625 L784.7073,795.0156 Q784.7073,795.625 784.4729,795.8906 Q784.2385,796.1563 783.8635,796.1563 Q783.5198,796.1563 783.3167,795.9531 Q783.1135,795.7656 783.0042,795.25 Q782.9573,794.8906 782.7698,794.7031 Q782.4417,794.3281 781.8323,794.1094 Q781.2229,793.8906 780.5979,793.8906 Q779.8323,793.8906 779.1917,794.2188 Q778.5667,794.5469 778.0667,795.2969 Q777.5823,796.0469 777.5823,797.0781 L777.5823,798.1719 Q777.5823,799.4063 778.4729,800.2344 Q779.3635,801.0469 780.9573,801.0469 Q781.8948,801.0469 782.551,800.7969 Q782.9417,800.6406 783.3635,800.2031 Q783.6292,799.9375 783.7698,799.8594 Q783.926,799.7813 784.1292,799.7813 Q784.4573,799.7813 784.7073,800.0469 Q784.9729,800.2969 784.9729,800.6406 Q784.9729,800.9844 784.6292,801.3906 Q784.1292,801.9688 783.3323,802.2969 Q782.2542,802.75 780.9573,802.75 Q779.4417,802.75 778.2385,802.125 Q777.2542,801.625 776.5667,800.5625 Q775.8792,799.4844 775.8792,798.2031 L775.8792,797.0469 Q775.8792,795.7188 776.4885,794.5781 Q777.1135,793.4219 778.2073,792.8125 Q779.301,792.1875 780.5354,792.1875 Q781.2698,792.1875 781.9104,792.3594 Q782.5667,792.5156 783.1135,792.875 Z "/><text fill="#000000" font-family="sans-serif" font-size="12" lengthAdjust="spacingAndGlyphs" textLength="115" x="800.8479" y="801.9102">CoordinateMoveView</text><line style="stroke: #A80036; stroke-width: 1.5;" x1="726.5979" x2="957.5979" y1="813" y2="813"/><rect fill="none" height="6" style="stroke: #C82930; stroke-width: 1.0;" width="6" x="733.5979" y="821"/><text fill="#000000" font-family="sans-serif" font-size="11" lengthAdjust="spacingAndGlyphs" text-decoration="underline" textLength="207" x="745.5979" y="828.4189">ENTER_COORDINATE_TO_REMOVE: String</text><rect fill="none" height="6" style="stroke: #C82930; stroke-width: 1.0;" width="6" x="733.5979" y="834.8359"/><text fill="#000000" font-family="sans-serif" font-size="11" lengthAdjust="spacingAndGlyphs" textLength="120" x="745.5979" y="842.2549">labelRowToMove: JLabel</text><rect fill="none" height="6" style="stroke: #C82930; stroke-width: 1.0;" width="6" x="733.5979" y="848.6719"/><text fill="#000000" font-family="sans-serif" font-size="11" lengthAdjust="spacingAndGlyphs" textLength="132" x="745.5979" y="856.0908">labelColumnToMove: JLabel</text><rect fill="none" height="6" style="stroke: #C82930; stroke-width: 1.0;" width="6" x="733.5979" y="862.5078"/><text fill="#000000" font-family="sans-serif" font-size="11" lengthAdjust="spacingAndGlyphs" textLength="117" x="745.5979" y="869.9268">titleLabelToMove: JLabel</text><rect fill="none" height="6" style="stroke: #C82930; stroke-width: 1.0;" width="6" x="733.5979" y="876.3438"/><text fill="#000000" font-family="sans-serif" font-size="11" lengthAdjust="spacingAndGlyphs" textLength="155" x="745.5979" y="883.7627">textFieldRowToMove: JTextField</text><rect fill="none" height="6" style="stroke: #C82930; stroke-width: 1.0;" width="6" x="733.5979" y="890.1797"/><text fill="#000000" font-family="sans-serif" font-size="11" lengthAdjust="spacingAndGlyphs" textLength="167" x="745.5979" y="897.5986">textFieldColumnToMove: JTextField</text><rect fill="none" height="6" style="stroke: #C82930; stroke-width: 1.0;" width="6" x="733.5979" y="904.0156"/><text fill="#000000" font-family="sans-serif" font-size="11" lengthAdjust="spacingAndGlyphs" textLength="121" x="745.5979" y="911.4346">coordinates: Coordinate[]</text><line style="stroke: #A80036; stroke-width: 1.5;" x1="726.5979" x2="957.5979" y1="917.8516" y2="917.8516"/><polygon fill="#4177AF" points="736.5979,924.8516,732.5979,930.8516,740.5979,930.8516" style="stroke: #1963A0; stroke-width: 1.0;"/><text fill="#000000" font-family="sans-serif" font-size="11" lengthAdjust="spacingAndGlyphs" textLength="112" x="745.5979" y="933.2705">CoordinateMoveView()</text><polygon fill="#4177AF" points="736.5979,938.6875,732.5979,944.6875,740.5979,944.6875" style="stroke: #1963A0; stroke-width: 1.0;"/><text fill="#000000" font-family="sans-serif" font-size="11" lengthAdjust="spacingAndGlyphs" textLength="117" x="745.5979" y="947.1064">resetCoordinates(): void</text><polygon fill="#4177AF" points="736.5979,952.5234,732.5979,958.5234,740.5979,958.5234" style="stroke: #1963A0; stroke-width: 1.0;"/><text fill="#000000" font-family="sans-serif" font-size="11" lengthAdjust="spacingAndGlyphs" textLength="145" x="745.5979" y="960.9424">getCoordinates(): Coordinate[]</text><ellipse cx="736.5979" cy="970.3594" fill="#84BE84" rx="3" ry="3" style="stroke: #038048; stroke-width: 1.0;"/><text fill="#000000" font-family="sans-serif" font-size="11" lengthAdjust="spacingAndGlyphs" textLength="171" x="745.5979" y="974.7783">actionPerformed(ActionEvent): void</text><!--MD5=[3eb81655dffb9cd825c31d070d9c4ca7]
class tictactoe.views.graphics.CoordinateView--><rect fill="#FEFECE" filter="url(#fnrssn40tq8iy)" height="172.5234" id="tictactoe.views.graphics.CoordinateView" style="stroke: #A80036; stroke-width: 1.5;" width="209" x="844.5979" y="548"/><ellipse cx="901.3479" cy="564" fill="#ADD1B2" rx="11" ry="11" style="stroke: #A80036; stroke-width: 1.0;"/><path d="M904.1135,559.875 Q904.2698,559.6563 904.4573,559.5469 Q904.6448,559.4375 904.8635,559.4375 Q905.2385,559.4375 905.4729,559.7031 Q905.7073,559.9531 905.7073,560.5625 L905.7073,562.0156 Q905.7073,562.625 905.4729,562.8906 Q905.2385,563.1563 904.8635,563.1563 Q904.5198,563.1563 904.3167,562.9531 Q904.1135,562.7656 904.0042,562.25 Q903.9573,561.8906 903.7698,561.7031 Q903.4417,561.3281 902.8323,561.1094 Q902.2229,560.8906 901.5979,560.8906 Q900.8323,560.8906 900.1917,561.2188 Q899.5667,561.5469 899.0667,562.2969 Q898.5823,563.0469 898.5823,564.0781 L898.5823,565.1719 Q898.5823,566.4063 899.4729,567.2344 Q900.3635,568.0469 901.9573,568.0469 Q902.8948,568.0469 903.551,567.7969 Q903.9417,567.6406 904.3635,567.2031 Q904.6292,566.9375 904.7698,566.8594 Q904.926,566.7813 905.1292,566.7813 Q905.4573,566.7813 905.7073,567.0469 Q905.9729,567.2969 905.9729,567.6406 Q905.9729,567.9844 905.6292,568.3906 Q905.1292,568.9688 904.3323,569.2969 Q903.2542,569.75 901.9573,569.75 Q900.4417,569.75 899.2385,569.125 Q898.2542,568.625 897.5667,567.5625 Q896.8792,566.4844 896.8792,565.2031 L896.8792,564.0469 Q896.8792,562.7188 897.4885,561.5781 Q898.1135,560.4219 899.2073,559.8125 Q900.301,559.1875 901.5354,559.1875 Q902.2698,559.1875 902.9104,559.3594 Q903.5667,559.5156 904.1135,559.875 Z "/><text fill="#000000" font-family="sans-serif" font-size="12" lengthAdjust="spacingAndGlyphs" textLength="87" x="921.8479" y="568.9102">CoordinateView</text><line style="stroke: #A80036; stroke-width: 1.5;" x1="845.5979" x2="1052.5979" y1="580" y2="580"/><polygon fill="none" points="855.5979,586,859.5979,590,855.5979,594,851.5979,590" style="stroke: #B38D22; stroke-width: 1.0;"/><text fill="#000000" font-family="sans-serif" font-size="11" lengthAdjust="spacingAndGlyphs" text-decoration="underline" textLength="183" x="864.5979" y="595.4189">ENTER_COORDINATE_TO_PUT: String</text><polygon fill="none" points="855.5979,599.8359,859.5979,603.8359,855.5979,607.8359,851.5979,603.8359" style="stroke: #B38D22; stroke-width: 1.0;"/><text fill="#000000" font-family="sans-serif" font-size="11" lengthAdjust="spacingAndGlyphs" text-decoration="underline" textLength="74" x="864.5979" y="609.2549">ACCEPT: String</text><polygon fill="none" points="855.5979,613.6719,859.5979,617.6719,855.5979,621.6719,851.5979,617.6719" style="stroke: #B38D22; stroke-width: 1.0;"/><text fill="#000000" font-family="sans-serif" font-size="11" lengthAdjust="spacingAndGlyphs" textLength="82" x="864.5979" y="623.0908">labelRow: JLabel</text><polygon fill="none" points="855.5979,627.5078,859.5979,631.5078,855.5979,635.5078,851.5979,631.5078" style="stroke: #B38D22; stroke-width: 1.0;"/><text fill="#000000" font-family="sans-serif" font-size="11" lengthAdjust="spacingAndGlyphs" textLength="94" x="864.5979" y="636.9268">labelColumn: JLabel</text><polygon fill="none" points="855.5979,641.3438,859.5979,645.3438,855.5979,649.3438,851.5979,645.3438" style="stroke: #B38D22; stroke-width: 1.0;"/><text fill="#000000" font-family="sans-serif" font-size="11" lengthAdjust="spacingAndGlyphs" textLength="79" x="864.5979" y="650.7627">titleLabel: JLabel</text><polygon fill="none" points="855.5979,655.1797,859.5979,659.1797,855.5979,663.1797,851.5979,659.1797" style="stroke: #B38D22; stroke-width: 1.0;"/><text fill="#000000" font-family="sans-serif" font-size="11" lengthAdjust="spacingAndGlyphs" textLength="117" x="864.5979" y="664.5986">textFieldRow: JTextField</text><polygon fill="none" points="855.5979,669.0156,859.5979,673.0156,855.5979,677.0156,851.5979,673.0156" style="stroke: #B38D22; stroke-width: 1.0;"/><text fill="#000000" font-family="sans-serif" font-size="11" lengthAdjust="spacingAndGlyphs" textLength="129" x="864.5979" y="678.4346">textFieldColumn: JTextField</text><polygon fill="none" points="855.5979,682.8516,859.5979,686.8516,855.5979,690.8516,851.5979,686.8516" style="stroke: #B38D22; stroke-width: 1.0;"/><text fill="#000000" font-family="sans-serif" font-size="11" lengthAdjust="spacingAndGlyphs" textLength="72" x="864.5979" y="692.2705">button: JButton</text><line style="stroke: #A80036; stroke-width: 1.5;" x1="845.5979" x2="1052.5979" y1="698.6875" y2="698.6875"/><polygon fill="#4177AF" points="855.5979,705.6875,851.5979,711.6875,859.5979,711.6875" style="stroke: #1963A0; stroke-width: 1.0;"/><text fill="#000000" font-family="sans-serif" font-size="11" lengthAdjust="spacingAndGlyphs" textLength="86" x="864.5979" y="714.1064">CoordinateView()</text><!--MD5=[98634edf8044393de7f32bab4509065b]
class tictactoe.views.graphics.CoordinatePutView--><rect fill="#FEFECE" filter="url(#fnrssn40tq8iy)" height="117.1797" id="tictactoe.views.graphics.CoordinatePutView" style="stroke: #A80036; stroke-width: 1.5;" width="197" x="493.5979" y="822.5"/><ellipse cx="535.5979" cy="838.5" fill="#ADD1B2" rx="11" ry="11" style="stroke: #A80036; stroke-width: 1.0;"/><path d="M538.3635,834.375 Q538.5198,834.1563 538.7073,834.0469 Q538.8948,833.9375 539.1135,833.9375 Q539.4885,833.9375 539.7229,834.2031 Q539.9573,834.4531 539.9573,835.0625 L539.9573,836.5156 Q539.9573,837.125 539.7229,837.3906 Q539.4885,837.6563 539.1135,837.6563 Q538.7698,837.6563 538.5667,837.4531 Q538.3635,837.2656 538.2542,836.75 Q538.2073,836.3906 538.0198,836.2031 Q537.6917,835.8281 537.0823,835.6094 Q536.4729,835.3906 535.8479,835.3906 Q535.0823,835.3906 534.4417,835.7188 Q533.8167,836.0469 533.3167,836.7969 Q532.8323,837.5469 532.8323,838.5781 L532.8323,839.6719 Q532.8323,840.9063 533.7229,841.7344 Q534.6135,842.5469 536.2073,842.5469 Q537.1448,842.5469 537.801,842.2969 Q538.1917,842.1406 538.6135,841.7031 Q538.8792,841.4375 539.0198,841.3594 Q539.176,841.2813 539.3792,841.2813 Q539.7073,841.2813 539.9573,841.5469 Q540.2229,841.7969 540.2229,842.1406 Q540.2229,842.4844 539.8792,842.8906 Q539.3792,843.4688 538.5823,843.7969 Q537.5042,844.25 536.2073,844.25 Q534.6917,844.25 533.4885,843.625 Q532.5042,843.125 531.8167,842.0625 Q531.1292,840.9844 531.1292,839.7031 L531.1292,838.5469 Q531.1292,837.2188 531.7385,836.0781 Q532.3635,834.9219 533.4573,834.3125 Q534.551,833.6875 535.7854,833.6875 Q536.5198,833.6875 537.1604,833.8594 Q537.8167,834.0156 538.3635,834.375 Z "/><text fill="#000000" font-family="sans-serif" font-size="12" lengthAdjust="spacingAndGlyphs" textLength="105" x="555.5979" y="843.4102">CoordinatePutView</text><line style="stroke: #A80036; stroke-width: 1.5;" x1="494.5979" x2="689.5979" y1="854.5" y2="854.5"/><rect fill="none" height="6" style="stroke: #C82930; stroke-width: 1.0;" width="6" x="501.5979" y="862.5"/><text fill="#000000" font-family="sans-serif" font-size="11" lengthAdjust="spacingAndGlyphs" textLength="121" x="513.5979" y="869.9189">coordinates: Coordinate[]</text><line style="stroke: #A80036; stroke-width: 1.5;" x1="494.5979" x2="689.5979" y1="876.3359" y2="876.3359"/><polygon fill="#4177AF" points="504.5979,883.3359,500.5979,889.3359,508.5979,889.3359" style="stroke: #1963A0; stroke-width: 1.0;"/><text fill="#000000" font-family="sans-serif" font-size="11" lengthAdjust="spacingAndGlyphs" textLength="101" x="513.5979" y="891.7549">CoordinatePutView()</text><polygon fill="#4177AF" points="504.5979,897.1719,500.5979,903.1719,508.5979,903.1719" style="stroke: #1963A0; stroke-width: 1.0;"/><text fill="#000000" font-family="sans-serif" font-size="11" lengthAdjust="spacingAndGlyphs" textLength="111" x="513.5979" y="905.5908">resetCoordinate(): void</text><polygon fill="#4177AF" points="504.5979,911.0078,500.5979,917.0078,508.5979,917.0078" style="stroke: #1963A0; stroke-width: 1.0;"/><text fill="#000000" font-family="sans-serif" font-size="11" lengthAdjust="spacingAndGlyphs" textLength="133" x="513.5979" y="919.4268">getCoordinate(): Coordinate</text><ellipse cx="504.5979" cy="928.8438" fill="#84BE84" rx="3" ry="3" style="stroke: #038048; stroke-width: 1.0;"/><text fill="#000000" font-family="sans-serif" font-size="11" lengthAdjust="spacingAndGlyphs" textLength="171" x="513.5979" y="933.2627">actionPerformed(ActionEvent): void</text><!--MD5=[d9ac63eb7bc90e7088d49ac170de6ce7]
class tictactoe.views.graphics.GameView--><rect fill="#FEFECE" filter="url(#fnrssn40tq8iy)" height="144.8516" id="tictactoe.views.graphics.GameView" style="stroke: #A80036; stroke-width: 1.5;" width="229" x="1053.5949" y="343"/><ellipse cx="1133.8449" cy="359" fill="#ADD1B2" rx="11" ry="11" style="stroke: #A80036; stroke-width: 1.0;"/><path d="M1136.6105,354.875 Q1136.7668,354.6563 1136.9543,354.5469 Q1137.1418,354.4375 1137.3605,354.4375 Q1137.7355,354.4375 1137.9699,354.7031 Q1138.2043,354.9531 1138.2043,355.5625 L1138.2043,357.0156 Q1138.2043,357.625 1137.9699,357.8906 Q1137.7355,358.1563 1137.3605,358.1563 Q1137.0168,358.1563 1136.8137,357.9531 Q1136.6105,357.7656 1136.5012,357.25 Q1136.4543,356.8906 1136.2668,356.7031 Q1135.9387,356.3281 1135.3293,356.1094 Q1134.7199,355.8906 1134.0949,355.8906 Q1133.3293,355.8906 1132.6887,356.2188 Q1132.0637,356.5469 1131.5637,357.2969 Q1131.0793,358.0469 1131.0793,359.0781 L1131.0793,360.1719 Q1131.0793,361.4063 1131.9699,362.2344 Q1132.8605,363.0469 1134.4543,363.0469 Q1135.3918,363.0469 1136.048,362.7969 Q1136.4387,362.6406 1136.8605,362.2031 Q1137.1262,361.9375 1137.2668,361.8594 Q1137.423,361.7813 1137.6262,361.7813 Q1137.9543,361.7813 1138.2043,362.0469 Q1138.4699,362.2969 1138.4699,362.6406 Q1138.4699,362.9844 1138.1262,363.3906 Q1137.6262,363.9688 1136.8293,364.2969 Q1135.7512,364.75 1134.4543,364.75 Q1132.9387,364.75 1131.7355,364.125 Q1130.7512,363.625 1130.0637,362.5625 Q1129.3762,361.4844 1129.3762,360.2031 L1129.3762,359.0469 Q1129.3762,357.7188 1129.9855,356.5781 Q1130.6105,355.4219 1131.7043,354.8125 Q1132.798,354.1875 1134.0324,354.1875 Q1134.7668,354.1875 1135.4074,354.3594 Q1136.0637,354.5156 1136.6105,354.875 Z "/><text fill="#000000" font-family="sans-serif" font-size="12" lengthAdjust="spacingAndGlyphs" textLength="60" x="1154.3449" y="363.9102">GameView</text><line style="stroke: #A80036; stroke-width: 1.5;" x1="1054.5949" x2="1281.5949" y1="375" y2="375"/><rect fill="none" height="6" style="stroke: #C82930; stroke-width: 1.0;" width="6" x="1061.5949" y="383"/><text fill="#000000" font-family="sans-serif" font-size="11" lengthAdjust="spacingAndGlyphs" text-decoration="underline" textLength="99" x="1073.5949" y="390.4189">GAME_OVER: String</text><rect fill="none" height="6" style="stroke: #C82930; stroke-width: 1.0;" width="6" x="1061.5949" y="396.8359"/><text fill="#000000" font-family="sans-serif" font-size="11" lengthAdjust="spacingAndGlyphs" textLength="60" x="1073.5949" y="404.2549">game: Game</text><rect fill="none" height="6" style="stroke: #C82930; stroke-width: 1.0;" width="6" x="1061.5949" y="410.6719"/><text fill="#000000" font-family="sans-serif" font-size="11" lengthAdjust="spacingAndGlyphs" textLength="203" x="1073.5949" y="418.0908">choosePlayersView: ChoosePlayersView</text><line style="stroke: #A80036; stroke-width: 1.5;" x1="1054.5949" x2="1281.5949" y1="424.5078" y2="424.5078"/><polygon fill="#4177AF" points="1064.5949,431.5078,1060.5949,437.5078,1068.5949,437.5078" style="stroke: #1963A0; stroke-width: 1.0;"/><text fill="#000000" font-family="sans-serif" font-size="11" lengthAdjust="spacingAndGlyphs" textLength="90" x="1073.5949" y="439.9268">GameView(Game)</text><polygon fill="#4177AF" points="1064.5949,445.3438,1060.5949,451.3438,1068.5949,451.3438" style="stroke: #1963A0; stroke-width: 1.0;"/><text fill="#000000" font-family="sans-serif" font-size="11" lengthAdjust="spacingAndGlyphs" textLength="56" x="1073.5949" y="453.7627">start(): void</text><polygon fill="#4177AF" points="1064.5949,459.1797,1060.5949,465.1797,1068.5949,465.1797" style="stroke: #1963A0; stroke-width: 1.0;"/><text fill="#000000" font-family="sans-serif" font-size="11" lengthAdjust="spacingAndGlyphs" textLength="72" x="1073.5949" y="467.5986">play(): boolean</text><rect fill="#F24D5C" height="6" style="stroke: #C82930; stroke-width: 1.0;" width="6" x="1061.5949" y="474.0156"/><text fill="#000000" font-family="sans-serif" font-size="11" lengthAdjust="spacingAndGlyphs" textLength="61" x="1073.5949" y="481.4346">result(): void</text><!--MD5=[772dd3201fd937c98b35c61c5b2a37e1]
class tictactoe.views.graphics.GraphicsView--><rect fill="#FEFECE" filter="url(#fnrssn40tq8iy)" height="117.1797" id="tictactoe.views.graphics.GraphicsView" style="stroke: #A80036; stroke-width: 1.5;" width="138" x="726.0979" y="166"/><ellipse cx="754.5979" cy="182" fill="#ADD1B2" rx="11" ry="11" style="stroke: #A80036; stroke-width: 1.0;"/><path d="M757.3635,177.875 Q757.5198,177.6563 757.7073,177.5469 Q757.8948,177.4375 758.1135,177.4375 Q758.4885,177.4375 758.7229,177.7031 Q758.9573,177.9531 758.9573,178.5625 L758.9573,180.0156 Q758.9573,180.625 758.7229,180.8906 Q758.4885,181.1563 758.1135,181.1563 Q757.7698,181.1563 757.5667,180.9531 Q757.3635,180.7656 757.2542,180.25 Q757.2073,179.8906 757.0198,179.7031 Q756.6917,179.3281 756.0823,179.1094 Q755.4729,178.8906 754.8479,178.8906 Q754.0823,178.8906 753.4417,179.2188 Q752.8167,179.5469 752.3167,180.2969 Q751.8323,181.0469 751.8323,182.0781 L751.8323,183.1719 Q751.8323,184.4063 752.7229,185.2344 Q753.6135,186.0469 755.2073,186.0469 Q756.1448,186.0469 756.801,185.7969 Q757.1917,185.6406 757.6135,185.2031 Q757.8792,184.9375 758.0198,184.8594 Q758.176,184.7813 758.3792,184.7813 Q758.7073,184.7813 758.9573,185.0469 Q759.2229,185.2969 759.2229,185.6406 Q759.2229,185.9844 758.8792,186.3906 Q758.3792,186.9688 757.5823,187.2969 Q756.5042,187.75 755.2073,187.75 Q753.6917,187.75 752.4885,187.125 Q751.5042,186.625 750.8167,185.5625 Q750.1292,184.4844 750.1292,183.2031 L750.1292,182.0469 Q750.1292,180.7188 750.7385,179.5781 Q751.3635,178.4219 752.4573,177.8125 Q753.551,177.1875 754.7854,177.1875 Q755.5198,177.1875 756.1604,177.3594 Q756.8167,177.5156 757.3635,177.875 Z "/><text fill="#000000" font-family="sans-serif" font-size="12" lengthAdjust="spacingAndGlyphs" textLength="76" x="771.5979" y="186.9102">GraphicsView</text><line style="stroke: #A80036; stroke-width: 1.5;" x1="727.0979" x2="863.0979" y1="198" y2="198"/><rect fill="none" height="6" style="stroke: #C82930; stroke-width: 1.0;" width="6" x="734.0979" y="206"/><text fill="#000000" font-family="sans-serif" font-size="11" lengthAdjust="spacingAndGlyphs" textLength="112" x="746.0979" y="213.4189">gameView: GameView</text><line style="stroke: #A80036; stroke-width: 1.5;" x1="727.0979" x2="863.0979" y1="219.8359" y2="219.8359"/><ellipse cx="737.0979" cy="230.8359" fill="#84BE84" rx="3" ry="3" style="stroke: #038048; stroke-width: 1.0;"/><text fill="#000000" font-family="sans-serif" font-size="11" lengthAdjust="spacingAndGlyphs" textLength="106" x="746.0979" y="235.2549">GraphicsView(Game)</text><polygon fill="#FFFF44" points="737.0979,239.6719,741.0979,243.6719,737.0979,247.6719,733.0979,243.6719" style="stroke: #B38D22; stroke-width: 1.0;"/><text fill="#000000" font-family="sans-serif" font-size="11" lengthAdjust="spacingAndGlyphs" textLength="56" x="746.0979" y="249.0908">start(): void</text><polygon fill="#FFFF44" points="737.0979,253.5078,741.0979,257.5078,737.0979,261.5078,733.0979,257.5078" style="stroke: #B38D22; stroke-width: 1.0;"/><text fill="#000000" font-family="sans-serif" font-size="11" lengthAdjust="spacingAndGlyphs" textLength="72" x="746.0979" y="262.9268">play(): boolean</text><polygon fill="#FFFF44" points="737.0979,267.3438,741.0979,271.3438,737.0979,275.3438,733.0979,271.3438" style="stroke: #B38D22; stroke-width: 1.0;"/><text fill="#000000" font-family="sans-serif" font-size="11" lengthAdjust="spacingAndGlyphs" textLength="111" x="746.0979" y="276.7627">isNewGame(): boolean</text><!--MD5=[88a81a05e5146ac94522dbbd97b76933]
class tictactoe.views.graphics.ResumeDialog--><rect fill="#FEFECE" filter="url(#fnrssn40tq8iy)" height="89.5078" id="tictactoe.views.graphics.ResumeDialog" style="stroke: #A80036; stroke-width: 1.5;" width="131" x="729.5979" y="370.5"/><ellipse cx="751.3479" cy="386.5" fill="#ADD1B2" rx="11" ry="11" style="stroke: #A80036; stroke-width: 1.0;"/><path d="M754.1135,382.375 Q754.2698,382.1563 754.4573,382.0469 Q754.6448,381.9375 754.8635,381.9375 Q755.2385,381.9375 755.4729,382.2031 Q755.7073,382.4531 755.7073,383.0625 L755.7073,384.5156 Q755.7073,385.125 755.4729,385.3906 Q755.2385,385.6563 754.8635,385.6563 Q754.5198,385.6563 754.3167,385.4531 Q754.1135,385.2656 754.0042,384.75 Q753.9573,384.3906 753.7698,384.2031 Q753.4417,383.8281 752.8323,383.6094 Q752.2229,383.3906 751.5979,383.3906 Q750.8323,383.3906 750.1917,383.7188 Q749.5667,384.0469 749.0667,384.7969 Q748.5823,385.5469 748.5823,386.5781 L748.5823,387.6719 Q748.5823,388.9063 749.4729,389.7344 Q750.3635,390.5469 751.9573,390.5469 Q752.8948,390.5469 753.551,390.2969 Q753.9417,390.1406 754.3635,389.7031 Q754.6292,389.4375 754.7698,389.3594 Q754.926,389.2813 755.1292,389.2813 Q755.4573,389.2813 755.7073,389.5469 Q755.9729,389.7969 755.9729,390.1406 Q755.9729,390.4844 755.6292,390.8906 Q755.1292,391.4688 754.3323,391.7969 Q753.2542,392.25 751.9573,392.25 Q750.4417,392.25 749.2385,391.625 Q748.2542,391.125 747.5667,390.0625 Q746.8792,388.9844 746.8792,387.7031 L746.8792,386.5469 Q746.8792,385.2188 747.4885,384.0781 Q748.1135,382.9219 749.2073,382.3125 Q750.301,381.6875 751.5354,381.6875 Q752.2698,381.6875 752.9104,381.8594 Q753.5667,382.0156 754.1135,382.375 Z "/><text fill="#000000" font-family="sans-serif" font-size="12" lengthAdjust="spacingAndGlyphs" textLength="84" x="766.8479" y="391.4102">ResumeDialog</text><line style="stroke: #A80036; stroke-width: 1.5;" x1="730.5979" x2="859.5979" y1="402.5" y2="402.5"/><rect fill="none" height="6" style="stroke: #C82930; stroke-width: 1.0;" width="6" x="737.5979" y="410.5"/><text fill="#000000" font-family="sans-serif" font-size="11" lengthAdjust="spacingAndGlyphs" textLength="80" x="749.5979" y="417.9189">resume: boolean</text><line style="stroke: #A80036; stroke-width: 1.5;" x1="730.5979" x2="859.5979" y1="424.3359" y2="424.3359"/><polygon fill="#4177AF" points="740.5979,431.3359,736.5979,437.3359,744.5979,437.3359" style="stroke: #1963A0; stroke-width: 1.0;"/><text fill="#000000" font-family="sans-serif" font-size="11" lengthAdjust="spacingAndGlyphs" textLength="76" x="749.5979" y="439.7549">ResumeDialog()</text><polygon fill="#4177AF" points="740.5979,445.1719,736.5979,451.1719,744.5979,451.1719" style="stroke: #1963A0; stroke-width: 1.0;"/><text fill="#000000" font-family="sans-serif" font-size="11" lengthAdjust="spacingAndGlyphs" textLength="105" x="749.5979" y="453.5908">isResumed(): boolean</text><!--MD5=[830df04f7779d5ce39b6953cfbe3729d]
class tictactoe.views.graphics.MachinePlayerView--><rect fill="#FEFECE" filter="url(#fnrssn40tq8iy)" height="89.5078" id="tictactoe.views.graphics.MachinePlayerView" style="stroke: #A80036; stroke-width: 1.5;" width="216" x="899.0979" y="179.5"/><ellipse cx="949.8479" cy="195.5" fill="#ADD1B2" rx="11" ry="11" style="stroke: #A80036; stroke-width: 1.0;"/><path d="M952.6135,191.375 Q952.7698,191.1563 952.9573,191.0469 Q953.1448,190.9375 953.3635,190.9375 Q953.7385,190.9375 953.9729,191.2031 Q954.2073,191.4531 954.2073,192.0625 L954.2073,193.5156 Q954.2073,194.125 953.9729,194.3906 Q953.7385,194.6563 953.3635,194.6563 Q953.0198,194.6563 952.8167,194.4531 Q952.6135,194.2656 952.5042,193.75 Q952.4573,193.3906 952.2698,193.2031 Q951.9417,192.8281 951.3323,192.6094 Q950.7229,192.3906 950.0979,192.3906 Q949.3323,192.3906 948.6917,192.7188 Q948.0667,193.0469 947.5667,193.7969 Q947.0823,194.5469 947.0823,195.5781 L947.0823,196.6719 Q947.0823,197.9063 947.9729,198.7344 Q948.8635,199.5469 950.4573,199.5469 Q951.3948,199.5469 952.051,199.2969 Q952.4417,199.1406 952.8635,198.7031 Q953.1292,198.4375 953.2698,198.3594 Q953.426,198.2813 953.6292,198.2813 Q953.9573,198.2813 954.2073,198.5469 Q954.4729,198.7969 954.4729,199.1406 Q954.4729,199.4844 954.1292,199.8906 Q953.6292,200.4688 952.8323,200.7969 Q951.7542,201.25 950.4573,201.25 Q948.9417,201.25 947.7385,200.625 Q946.7542,200.125 946.0667,199.0625 Q945.3792,197.9844 945.3792,196.7031 L945.3792,195.5469 Q945.3792,194.2188 945.9885,193.0781 Q946.6135,191.9219 947.7073,191.3125 Q948.801,190.6875 950.0354,190.6875 Q950.7698,190.6875 951.4104,190.8594 Q952.0667,191.0156 952.6135,191.375 Z "/><text fill="#000000" font-family="sans-serif" font-size="12" lengthAdjust="spacingAndGlyphs" textLength="106" x="970.3479" y="200.4102">MachinePlayerView</text><line style="stroke: #A80036; stroke-width: 1.5;" x1="900.0979" x2="1114.0979" y1="211.5" y2="211.5"/><line style="stroke: #A80036; stroke-width: 1.5;" x1="900.0979" x2="1114.0979" y1="219.5" y2="219.5"/><polygon fill="#4177AF" points="910.0979,226.5,906.0979,232.5,914.0979,232.5" style="stroke: #1963A0; stroke-width: 1.0;"/><text fill="#000000" font-family="sans-serif" font-size="11" lengthAdjust="spacingAndGlyphs" textLength="134" x="919.0979" y="234.9189">MachinePlayerView(Player)</text><ellipse cx="910.0979" cy="244.3359" fill="#84BE84" rx="3" ry="3" style="stroke: #038048; stroke-width: 1.0;"/><text fill="#000000" font-family="sans-serif" font-size="11" lengthAdjust="spacingAndGlyphs" textLength="167" x="919.0979" y="248.7549">readCoordinateToPut(): Coordinate</text><ellipse cx="910.0979" cy="258.1719" fill="#84BE84" rx="3" ry="3" style="stroke: #038048; stroke-width: 1.0;"/><text fill="#000000" font-family="sans-serif" font-size="11" lengthAdjust="spacingAndGlyphs" textLength="190" x="919.0979" y="262.5908">readCoordinatesToMove(): Coordinate[]</text><!--MD5=[dc2150d6f822712ae93fd291d66241a9]
class tictactoe.views.graphics.UserPlayerView--><rect fill="#FEFECE" filter="url(#fnrssn40tq8iy)" height="144.8516" id="tictactoe.views.graphics.UserPlayerView" style="stroke: #A80036; stroke-width: 1.5;" width="239" x="515.5979" y="562"/><ellipse cx="587.3479" cy="578" fill="#ADD1B2" rx="11" ry="11" style="stroke: #A80036; stroke-width: 1.0;"/><path d="M590.1135,573.875 Q590.2698,573.6563 590.4573,573.5469 Q590.6448,573.4375 590.8635,573.4375 Q591.2385,573.4375 591.4729,573.7031 Q591.7073,573.9531 591.7073,574.5625 L591.7073,576.0156 Q591.7073,576.625 591.4729,576.8906 Q591.2385,577.1563 590.8635,577.1563 Q590.5198,577.1563 590.3167,576.9531 Q590.1135,576.7656 590.0042,576.25 Q589.9573,575.8906 589.7698,575.7031 Q589.4417,575.3281 588.8323,575.1094 Q588.2229,574.8906 587.5979,574.8906 Q586.8323,574.8906 586.1917,575.2188 Q585.5667,575.5469 585.0667,576.2969 Q584.5823,577.0469 584.5823,578.0781 L584.5823,579.1719 Q584.5823,580.4063 585.4729,581.2344 Q586.3635,582.0469 587.9573,582.0469 Q588.8948,582.0469 589.551,581.7969 Q589.9417,581.6406 590.3635,581.2031 Q590.6292,580.9375 590.7698,580.8594 Q590.926,580.7813 591.1292,580.7813 Q591.4573,580.7813 591.7073,581.0469 Q591.9729,581.2969 591.9729,581.6406 Q591.9729,581.9844 591.6292,582.3906 Q591.1292,582.9688 590.3323,583.2969 Q589.2542,583.75 587.9573,583.75 Q586.4417,583.75 585.2385,583.125 Q584.2542,582.625 583.5667,581.5625 Q582.8792,580.4844 582.8792,579.2031 L582.8792,578.0469 Q582.8792,576.7188 583.4885,575.5781 Q584.1135,574.4219 585.2073,573.8125 Q586.301,573.1875 587.5354,573.1875 Q588.2698,573.1875 588.9104,573.3594 Q589.5667,573.5156 590.1135,573.875 Z "/><text fill="#000000" font-family="sans-serif" font-size="12" lengthAdjust="spacingAndGlyphs" textLength="87" x="607.8479" y="582.9102">UserPlayerView</text><line style="stroke: #A80036; stroke-width: 1.5;" x1="516.5979" x2="753.5979" y1="594" y2="594"/><polygon fill="none" points="526.5979,601,522.5979,607,530.5979,607" style="stroke: #1963A0; stroke-width: 1.0;"/><text fill="#000000" font-family="sans-serif" font-size="11" lengthAdjust="spacingAndGlyphs" text-decoration="underline" textLength="183" x="535.5979" y="609.4189">ENTER_COORDINATE_TO_PUT: String</text><polygon fill="none" points="526.5979,614.8359,522.5979,620.8359,530.5979,620.8359" style="stroke: #1963A0; stroke-width: 1.0;"/><text fill="#000000" font-family="sans-serif" font-size="11" lengthAdjust="spacingAndGlyphs" text-decoration="underline" textLength="207" x="535.5979" y="623.2549">ENTER_COORDINATE_TO_REMOVE: String</text><polygon fill="none" points="526.5979,628.6719,522.5979,634.6719,530.5979,634.6719" style="stroke: #1963A0; stroke-width: 1.0;"/><text fill="#000000" font-family="sans-serif" font-size="11" lengthAdjust="spacingAndGlyphs" textLength="191" x="535.5979" y="637.0908">coordinatePutView: CoordinatePutView</text><polygon fill="none" points="526.5979,642.5078,522.5979,648.5078,530.5979,648.5078" style="stroke: #1963A0; stroke-width: 1.0;"/><text fill="#000000" font-family="sans-serif" font-size="11" lengthAdjust="spacingAndGlyphs" textLength="213" x="535.5979" y="650.9268">coordinateMoveView: CoordinateMoveView</text><line style="stroke: #A80036; stroke-width: 1.5;" x1="516.5979" x2="753.5979" y1="657.3438" y2="657.3438"/><polygon fill="#4177AF" points="526.5979,664.3438,522.5979,670.3438,530.5979,670.3438" style="stroke: #1963A0; stroke-width: 1.0;"/><text fill="#000000" font-family="sans-serif" font-size="11" lengthAdjust="spacingAndGlyphs" textLength="117" x="535.5979" y="672.7627">UserPlayerView(Player)</text><ellipse cx="526.5979" cy="682.1797" fill="#84BE84" rx="3" ry="3" style="stroke: #038048; stroke-width: 1.0;"/><text fill="#000000" font-family="sans-serif" font-size="11" lengthAdjust="spacingAndGlyphs" textLength="167" x="535.5979" y="686.5986">readCoordinateToPut(): Coordinate</text><ellipse cx="526.5979" cy="696.0156" fill="#84BE84" rx="3" ry="3" style="stroke: #038048; stroke-width: 1.0;"/><text fill="#000000" font-family="sans-serif" font-size="11" lengthAdjust="spacingAndGlyphs" textLength="190" x="535.5979" y="700.4346">readCoordinatesToMove(): Coordinate[]</text><!--MD5=[56a185cb33bdc7c23303e5865f20a19b]
class javax.swing.JPanel--><rect fill="#FEFECE" filter="url(#fnrssn40tq8iy)" height="48" id="javax.swing.JPanel" style="stroke: #A80036; stroke-width: 1.5;" width="70" x="1694.0949" y="857"/><ellipse cx="1709.0949" cy="873" fill="#ADD1B2" rx="11" ry="11" style="stroke: #A80036; stroke-width: 1.0;"/><path d="M1711.8605,868.875 Q1712.0168,868.6563 1712.2043,868.5469 Q1712.3918,868.4375 1712.6105,868.4375 Q1712.9855,868.4375 1713.2199,868.7031 Q1713.4543,868.9531 1713.4543,869.5625 L1713.4543,871.0156 Q1713.4543,871.625 1713.2199,871.8906 Q1712.9855,872.1563 1712.6105,872.1563 Q1712.2668,872.1563 1712.0637,871.9531 Q1711.8605,871.7656 1711.7512,871.25 Q1711.7043,870.8906 1711.5168,870.7031 Q1711.1887,870.3281 1710.5793,870.1094 Q1709.9699,869.8906 1709.3449,869.8906 Q1708.5793,869.8906 1707.9387,870.2188 Q1707.3137,870.5469 1706.8137,871.2969 Q1706.3293,872.0469 1706.3293,873.0781 L1706.3293,874.1719 Q1706.3293,875.4063 1707.2199,876.2344 Q1708.1105,877.0469 1709.7043,877.0469 Q1710.6418,877.0469 1711.298,876.7969 Q1711.6887,876.6406 1712.1105,876.2031 Q1712.3762,875.9375 1712.5168,875.8594 Q1712.673,875.7813 1712.8762,875.7813 Q1713.2043,875.7813 1713.4543,876.0469 Q1713.7199,876.2969 1713.7199,876.6406 Q1713.7199,876.9844 1713.3762,877.3906 Q1712.8762,877.9688 1712.0793,878.2969 Q1711.0012,878.75 1709.7043,878.75 Q1708.1887,878.75 1706.9855,878.125 Q1706.0012,877.625 1705.3137,876.5625 Q1704.6262,875.4844 1704.6262,874.2031 L1704.6262,873.0469 Q1704.6262,871.7188 1705.2355,870.5781 Q1705.8605,869.4219 1706.9543,868.8125 Q1708.048,868.1875 1709.2824,868.1875 Q1710.0168,868.1875 1710.6574,868.3594 Q1711.3137,868.5156 1711.8605,868.875 Z "/><text fill="#000000" font-family="sans-serif" font-size="12" lengthAdjust="spacingAndGlyphs" textLength="38" x="1723.0949" y="877.9102">JPanel</text><line style="stroke: #A80036; stroke-width: 1.5;" x1="1695.0949" x2="1763.0949" y1="889" y2="889"/><line style="stroke: #A80036; stroke-width: 1.5;" x1="1695.0949" x2="1763.0949" y1="897" y2="897"/><!--MD5=[9251eed55ebbbd8b0b3a23318ed1a9ff]
class javax.swing.JLabel--><rect fill="#FEFECE" filter="url(#fnrssn40tq8iy)" height="48" id="javax.swing.JLabel" style="stroke: #A80036; stroke-width: 1.5;" width="69" x="1589.5949" y="857"/><ellipse cx="1604.5949" cy="873" fill="#ADD1B2" rx="11" ry="11" style="stroke: #A80036; stroke-width: 1.0;"/><path d="M1607.3605,868.875 Q1607.5168,868.6563 1607.7043,868.5469 Q1607.8918,868.4375 1608.1105,868.4375 Q1608.4855,868.4375 1608.7199,868.7031 Q1608.9543,868.9531 1608.9543,869.5625 L1608.9543,871.0156 Q1608.9543,871.625 1608.7199,871.8906 Q1608.4855,872.1563 1608.1105,872.1563 Q1607.7668,872.1563 1607.5637,871.9531 Q1607.3605,871.7656 1607.2512,871.25 Q1607.2043,870.8906 1607.0168,870.7031 Q1606.6887,870.3281 1606.0793,870.1094 Q1605.4699,869.8906 1604.8449,869.8906 Q1604.0793,869.8906 1603.4387,870.2188 Q1602.8137,870.5469 1602.3137,871.2969 Q1601.8293,872.0469 1601.8293,873.0781 L1601.8293,874.1719 Q1601.8293,875.4063 1602.7199,876.2344 Q1603.6105,877.0469 1605.2043,877.0469 Q1606.1418,877.0469 1606.798,876.7969 Q1607.1887,876.6406 1607.6105,876.2031 Q1607.8762,875.9375 1608.0168,875.8594 Q1608.173,875.7813 1608.3762,875.7813 Q1608.7043,875.7813 1608.9543,876.0469 Q1609.2199,876.2969 1609.2199,876.6406 Q1609.2199,876.9844 1608.8762,877.3906 Q1608.3762,877.9688 1607.5793,878.2969 Q1606.5012,878.75 1605.2043,878.75 Q1603.6887,878.75 1602.4855,878.125 Q1601.5012,877.625 1600.8137,876.5625 Q1600.1262,875.4844 1600.1262,874.2031 L1600.1262,873.0469 Q1600.1262,871.7188 1600.7355,870.5781 Q1601.3605,869.4219 1602.4543,868.8125 Q1603.548,868.1875 1604.7824,868.1875 Q1605.5168,868.1875 1606.1574,868.3594 Q1606.8137,868.5156 1607.3605,868.875 Z "/><text fill="#000000" font-family="sans-serif" font-size="12" lengthAdjust="spacingAndGlyphs" textLength="37" x="1618.5949" y="877.9102">JLabel</text><line style="stroke: #A80036; stroke-width: 1.5;" x1="1590.5949" x2="1657.5949" y1="889" y2="889"/><line style="stroke: #A80036; stroke-width: 1.5;" x1="1590.5949" x2="1657.5949" y1="897" y2="897"/><!--MD5=[12253c888ffad55633ab8291887bf405]
class javax.swing.JTextField--><rect fill="#FEFECE" filter="url(#fnrssn40tq8iy)" height="48" id="javax.swing.JTextField" style="stroke: #A80036; stroke-width: 1.5;" width="87" x="1467.5949" y="857"/><ellipse cx="1482.5949" cy="873" fill="#ADD1B2" rx="11" ry="11" style="stroke: #A80036; stroke-width: 1.0;"/><path d="M1485.3605,868.875 Q1485.5168,868.6563 1485.7043,868.5469 Q1485.8918,868.4375 1486.1105,868.4375 Q1486.4855,868.4375 1486.7199,868.7031 Q1486.9543,868.9531 1486.9543,869.5625 L1486.9543,871.0156 Q1486.9543,871.625 1486.7199,871.8906 Q1486.4855,872.1563 1486.1105,872.1563 Q1485.7668,872.1563 1485.5637,871.9531 Q1485.3605,871.7656 1485.2512,871.25 Q1485.2043,870.8906 1485.0168,870.7031 Q1484.6887,870.3281 1484.0793,870.1094 Q1483.4699,869.8906 1482.8449,869.8906 Q1482.0793,869.8906 1481.4387,870.2188 Q1480.8137,870.5469 1480.3137,871.2969 Q1479.8293,872.0469 1479.8293,873.0781 L1479.8293,874.1719 Q1479.8293,875.4063 1480.7199,876.2344 Q1481.6105,877.0469 1483.2043,877.0469 Q1484.1418,877.0469 1484.798,876.7969 Q1485.1887,876.6406 1485.6105,876.2031 Q1485.8762,875.9375 1486.0168,875.8594 Q1486.173,875.7813 1486.3762,875.7813 Q1486.7043,875.7813 1486.9543,876.0469 Q1487.2199,876.2969 1487.2199,876.6406 Q1487.2199,876.9844 1486.8762,877.3906 Q1486.3762,877.9688 1485.5793,878.2969 Q1484.5012,878.75 1483.2043,878.75 Q1481.6887,878.75 1480.4855,878.125 Q1479.5012,877.625 1478.8137,876.5625 Q1478.1262,875.4844 1478.1262,874.2031 L1478.1262,873.0469 Q1478.1262,871.7188 1478.7355,870.5781 Q1479.3605,869.4219 1480.4543,868.8125 Q1481.548,868.1875 1482.7824,868.1875 Q1483.5168,868.1875 1484.1574,868.3594 Q1484.8137,868.5156 1485.3605,868.875 Z "/><text fill="#000000" font-family="sans-serif" font-size="12" lengthAdjust="spacingAndGlyphs" textLength="55" x="1496.5949" y="877.9102">JTextField</text><line style="stroke: #A80036; stroke-width: 1.5;" x1="1468.5949" x2="1553.5949" y1="889" y2="889"/><line style="stroke: #A80036; stroke-width: 1.5;" x1="1468.5949" x2="1553.5949" y1="897" y2="897"/><!--MD5=[7d319166b5dc6b8762d043b6fe35067f]
class javax.swing.JButton--><rect fill="#FEFECE" filter="url(#fnrssn40tq8iy)" height="48" id="javax.swing.JButton" style="stroke: #A80036; stroke-width: 1.5;" width="73" x="1799.5949" y="857"/><ellipse cx="1814.5949" cy="873" fill="#ADD1B2" rx="11" ry="11" style="stroke: #A80036; stroke-width: 1.0;"/><path d="M1817.3605,868.875 Q1817.5168,868.6563 1817.7043,868.5469 Q1817.8918,868.4375 1818.1105,868.4375 Q1818.4855,868.4375 1818.7199,868.7031 Q1818.9543,868.9531 1818.9543,869.5625 L1818.9543,871.0156 Q1818.9543,871.625 1818.7199,871.8906 Q1818.4855,872.1563 1818.1105,872.1563 Q1817.7668,872.1563 1817.5637,871.9531 Q1817.3605,871.7656 1817.2512,871.25 Q1817.2043,870.8906 1817.0168,870.7031 Q1816.6887,870.3281 1816.0793,870.1094 Q1815.4699,869.8906 1814.8449,869.8906 Q1814.0793,869.8906 1813.4387,870.2188 Q1812.8137,870.5469 1812.3137,871.2969 Q1811.8293,872.0469 1811.8293,873.0781 L1811.8293,874.1719 Q1811.8293,875.4063 1812.7199,876.2344 Q1813.6105,877.0469 1815.2043,877.0469 Q1816.1418,877.0469 1816.798,876.7969 Q1817.1887,876.6406 1817.6105,876.2031 Q1817.8762,875.9375 1818.0168,875.8594 Q1818.173,875.7813 1818.3762,875.7813 Q1818.7043,875.7813 1818.9543,876.0469 Q1819.2199,876.2969 1819.2199,876.6406 Q1819.2199,876.9844 1818.8762,877.3906 Q1818.3762,877.9688 1817.5793,878.2969 Q1816.5012,878.75 1815.2043,878.75 Q1813.6887,878.75 1812.4855,878.125 Q1811.5012,877.625 1810.8137,876.5625 Q1810.1262,875.4844 1810.1262,874.2031 L1810.1262,873.0469 Q1810.1262,871.7188 1810.7355,870.5781 Q1811.3605,869.4219 1812.4543,868.8125 Q1813.548,868.1875 1814.7824,868.1875 Q1815.5168,868.1875 1816.1574,868.3594 Q1816.8137,868.5156 1817.3605,868.875 Z "/><text fill="#000000" font-family="sans-serif" font-size="12" lengthAdjust="spacingAndGlyphs" textLength="41" x="1828.5949" y="877.9102">JButton</text><line style="stroke: #A80036; stroke-width: 1.5;" x1="1800.5949" x2="1871.5949" y1="889" y2="889"/><line style="stroke: #A80036; stroke-width: 1.5;" x1="1800.5949" x2="1871.5949" y1="897" y2="897"/><!--MD5=[1c2fa5f6ace53151c9bc1c52bddcba98]
class javax.swing.JRootPane--><rect fill="#FEFECE" filter="url(#fnrssn40tq8iy)" height="48" id="javax.swing.JRootPane" style="stroke: #A80036; stroke-width: 1.5;" width="93" x="1907.5949" y="857"/><ellipse cx="1922.5949" cy="873" fill="#ADD1B2" rx="11" ry="11" style="stroke: #A80036; stroke-width: 1.0;"/><path d="M1925.3605,868.875 Q1925.5168,868.6563 1925.7043,868.5469 Q1925.8918,868.4375 1926.1105,868.4375 Q1926.4855,868.4375 1926.7199,868.7031 Q1926.9543,868.9531 1926.9543,869.5625 L1926.9543,871.0156 Q1926.9543,871.625 1926.7199,871.8906 Q1926.4855,872.1563 1926.1105,872.1563 Q1925.7668,872.1563 1925.5637,871.9531 Q1925.3605,871.7656 1925.2512,871.25 Q1925.2043,870.8906 1925.0168,870.7031 Q1924.6887,870.3281 1924.0793,870.1094 Q1923.4699,869.8906 1922.8449,869.8906 Q1922.0793,869.8906 1921.4387,870.2188 Q1920.8137,870.5469 1920.3137,871.2969 Q1919.8293,872.0469 1919.8293,873.0781 L1919.8293,874.1719 Q1919.8293,875.4063 1920.7199,876.2344 Q1921.6105,877.0469 1923.2043,877.0469 Q1924.1418,877.0469 1924.798,876.7969 Q1925.1887,876.6406 1925.6105,876.2031 Q1925.8762,875.9375 1926.0168,875.8594 Q1926.173,875.7813 1926.3762,875.7813 Q1926.7043,875.7813 1926.9543,876.0469 Q1927.2199,876.2969 1927.2199,876.6406 Q1927.2199,876.9844 1926.8762,877.3906 Q1926.3762,877.9688 1925.5793,878.2969 Q1924.5012,878.75 1923.2043,878.75 Q1921.6887,878.75 1920.4855,878.125 Q1919.5012,877.625 1918.8137,876.5625 Q1918.1262,875.4844 1918.1262,874.2031 L1918.1262,873.0469 Q1918.1262,871.7188 1918.7355,870.5781 Q1919.3605,869.4219 1920.4543,868.8125 Q1921.548,868.1875 1922.7824,868.1875 Q1923.5168,868.1875 1924.1574,868.3594 Q1924.8137,868.5156 1925.3605,868.875 Z "/><text fill="#000000" font-family="sans-serif" font-size="12" lengthAdjust="spacingAndGlyphs" textLength="61" x="1936.5949" y="877.9102">JRootPane</text><line style="stroke: #A80036; stroke-width: 1.5;" x1="1908.5949" x2="1999.5949" y1="889" y2="889"/><line style="stroke: #A80036; stroke-width: 1.5;" x1="1908.5949" x2="1999.5949" y1="897" y2="897"/><!--MD5=[18a7562403221f513ca44e0f82c4c17a]
class javax.swing.JFrame--><rect fill="#FEFECE" filter="url(#fnrssn40tq8iy)" height="48" id="javax.swing.JFrame" style="stroke: #A80036; stroke-width: 1.5;" width="74" x="2036.0949" y="857"/><ellipse cx="2051.0949" cy="873" fill="#ADD1B2" rx="11" ry="11" style="stroke: #A80036; stroke-width: 1.0;"/><path d="M2053.8605,868.875 Q2054.0168,868.6563 2054.2043,868.5469 Q2054.3918,868.4375 2054.6105,868.4375 Q2054.9855,868.4375 2055.2199,868.7031 Q2055.4543,868.9531 2055.4543,869.5625 L2055.4543,871.0156 Q2055.4543,871.625 2055.2199,871.8906 Q2054.9855,872.1563 2054.6105,872.1563 Q2054.2668,872.1563 2054.0637,871.9531 Q2053.8605,871.7656 2053.7512,871.25 Q2053.7043,870.8906 2053.5168,870.7031 Q2053.1887,870.3281 2052.5793,870.1094 Q2051.9699,869.8906 2051.3449,869.8906 Q2050.5793,869.8906 2049.9387,870.2188 Q2049.3137,870.5469 2048.8137,871.2969 Q2048.3293,872.0469 2048.3293,873.0781 L2048.3293,874.1719 Q2048.3293,875.4063 2049.2199,876.2344 Q2050.1105,877.0469 2051.7043,877.0469 Q2052.6418,877.0469 2053.298,876.7969 Q2053.6887,876.6406 2054.1105,876.2031 Q2054.3762,875.9375 2054.5168,875.8594 Q2054.673,875.7813 2054.8762,875.7813 Q2055.2043,875.7813 2055.4543,876.0469 Q2055.7199,876.2969 2055.7199,876.6406 Q2055.7199,876.9844 2055.3762,877.3906 Q2054.8762,877.9688 2054.0793,878.2969 Q2053.0012,878.75 2051.7043,878.75 Q2050.1887,878.75 2048.9855,878.125 Q2048.0012,877.625 2047.3137,876.5625 Q2046.6262,875.4844 2046.6262,874.2031 L2046.6262,873.0469 Q2046.6262,871.7188 2047.2355,870.5781 Q2047.8605,869.4219 2048.9543,868.8125 Q2050.048,868.1875 2051.2824,868.1875 Q2052.0168,868.1875 2052.6574,868.3594 Q2053.3137,868.5156 2053.8605,868.875 Z "/><text fill="#000000" font-family="sans-serif" font-size="12" lengthAdjust="spacingAndGlyphs" textLength="42" x="2065.0949" y="877.9102">JFrame</text><line style="stroke: #A80036; stroke-width: 1.5;" x1="2037.0949" x2="2109.0949" y1="889" y2="889"/><line style="stroke: #A80036; stroke-width: 1.5;" x1="2037.0949" x2="2109.0949" y1="897" y2="897"/><!--MD5=[6631281fcee7fc541b441b6c950a0fa0]
class java.awt.event.ActionListener--><rect fill="#FEFECE" filter="url(#fnrssn40tq8iy)" height="48" id="java.awt.event.ActionListener" style="stroke: #A80036; stroke-width: 1.5;" width="110" x="64.0979" y="391.5"/><ellipse cx="79.0979" cy="407.5" fill="#ADD1B2" rx="11" ry="11" style="stroke: #A80036; stroke-width: 1.0;"/><path d="M81.8635,403.375 Q82.0198,403.1563 82.2073,403.0469 Q82.3948,402.9375 82.6135,402.9375 Q82.9885,402.9375 83.2229,403.2031 Q83.4573,403.4531 83.4573,404.0625 L83.4573,405.5156 Q83.4573,406.125 83.2229,406.3906 Q82.9885,406.6563 82.6135,406.6563 Q82.2698,406.6563 82.0667,406.4531 Q81.8635,406.2656 81.7542,405.75 Q81.7073,405.3906 81.5198,405.2031 Q81.1917,404.8281 80.5823,404.6094 Q79.9729,404.3906 79.3479,404.3906 Q78.5823,404.3906 77.9417,404.7188 Q77.3167,405.0469 76.8167,405.7969 Q76.3323,406.5469 76.3323,407.5781 L76.3323,408.6719 Q76.3323,409.9063 77.2229,410.7344 Q78.1135,411.5469 79.7073,411.5469 Q80.6448,411.5469 81.301,411.2969 Q81.6917,411.1406 82.1135,410.7031 Q82.3792,410.4375 82.5198,410.3594 Q82.676,410.2813 82.8792,410.2813 Q83.2073,410.2813 83.4573,410.5469 Q83.7229,410.7969 83.7229,411.1406 Q83.7229,411.4844 83.3792,411.8906 Q82.8792,412.4688 82.0823,412.7969 Q81.0042,413.25 79.7073,413.25 Q78.1917,413.25 76.9885,412.625 Q76.0042,412.125 75.3167,411.0625 Q74.6292,409.9844 74.6292,408.7031 L74.6292,407.5469 Q74.6292,406.2188 75.2385,405.0781 Q75.8635,403.9219 76.9573,403.3125 Q78.051,402.6875 79.2854,402.6875 Q80.0198,402.6875 80.6604,402.8594 Q81.3167,403.0156 81.8635,403.375 Z "/><text fill="#000000" font-family="sans-serif" font-size="12" lengthAdjust="spacingAndGlyphs" textLength="78" x="93.0979" y="412.4102">ActionListener</text><line style="stroke: #A80036; stroke-width: 1.5;" x1="65.0979" x2="173.0979" y1="423.5" y2="423.5"/><line style="stroke: #A80036; stroke-width: 1.5;" x1="65.0979" x2="173.0979" y1="431.5" y2="431.5"/><!--MD5=[3eb55d915ce4c988cc6fe2a782a0fcdf]
class java.awt.event.KeyListener--><rect fill="#FEFECE" filter="url(#fnrssn40tq8iy)" height="48" id="java.awt.event.KeyListener" style="stroke: #A80036; stroke-width: 1.5;" width="97" x="339.5979" y="391.5"/><ellipse cx="354.5979" cy="407.5" fill="#ADD1B2" rx="11" ry="11" style="stroke: #A80036; stroke-width: 1.0;"/><path d="M357.3635,403.375 Q357.5198,403.1563 357.7073,403.0469 Q357.8948,402.9375 358.1135,402.9375 Q358.4885,402.9375 358.7229,403.2031 Q358.9573,403.4531 358.9573,404.0625 L358.9573,405.5156 Q358.9573,406.125 358.7229,406.3906 Q358.4885,406.6563 358.1135,406.6563 Q357.7698,406.6563 357.5667,406.4531 Q357.3635,406.2656 357.2542,405.75 Q357.2073,405.3906 357.0198,405.2031 Q356.6917,404.8281 356.0823,404.6094 Q355.4729,404.3906 354.8479,404.3906 Q354.0823,404.3906 353.4417,404.7188 Q352.8167,405.0469 352.3167,405.7969 Q351.8323,406.5469 351.8323,407.5781 L351.8323,408.6719 Q351.8323,409.9063 352.7229,410.7344 Q353.6135,411.5469 355.2073,411.5469 Q356.1448,411.5469 356.801,411.2969 Q357.1917,411.1406 357.6135,410.7031 Q357.8792,410.4375 358.0198,410.3594 Q358.176,410.2813 358.3792,410.2813 Q358.7073,410.2813 358.9573,410.5469 Q359.2229,410.7969 359.2229,411.1406 Q359.2229,411.4844 358.8792,411.8906 Q358.3792,412.4688 357.5823,412.7969 Q356.5042,413.25 355.2073,413.25 Q353.6917,413.25 352.4885,412.625 Q351.5042,412.125 350.8167,411.0625 Q350.1292,409.9844 350.1292,408.7031 L350.1292,407.5469 Q350.1292,406.2188 350.7385,405.0781 Q351.3635,403.9219 352.4573,403.3125 Q353.551,402.6875 354.7854,402.6875 Q355.5198,402.6875 356.1604,402.8594 Q356.8167,403.0156 357.3635,403.375 Z "/><text fill="#000000" font-family="sans-serif" font-size="12" lengthAdjust="spacingAndGlyphs" textLength="65" x="368.5979" y="412.4102">KeyListener</text><line style="stroke: #A80036; stroke-width: 1.5;" x1="340.5979" x2="435.5979" y1="423.5" y2="423.5"/><line style="stroke: #A80036; stroke-width: 1.5;" x1="340.5979" x2="435.5979" y1="431.5" y2="431.5"/><!--MD5=[fdbf4e06ff7e602aeb39791d8dea2518]
class java.awt.event.ActionEvent--><rect fill="#FEFECE" filter="url(#fnrssn40tq8iy)" height="48" id="java.awt.event.ActionEvent" style="stroke: #A80036; stroke-width: 1.5;" width="95" x="209.5979" y="391.5"/><ellipse cx="224.5979" cy="407.5" fill="#ADD1B2" rx="11" ry="11" style="stroke: #A80036; stroke-width: 1.0;"/><path d="M227.3635,403.375 Q227.5198,403.1563 227.7073,403.0469 Q227.8948,402.9375 228.1135,402.9375 Q228.4885,402.9375 228.7229,403.2031 Q228.9573,403.4531 228.9573,404.0625 L228.9573,405.5156 Q228.9573,406.125 228.7229,406.3906 Q228.4885,406.6563 228.1135,406.6563 Q227.7698,406.6563 227.5667,406.4531 Q227.3635,406.2656 227.2542,405.75 Q227.2073,405.3906 227.0198,405.2031 Q226.6917,404.8281 226.0823,404.6094 Q225.4729,404.3906 224.8479,404.3906 Q224.0823,404.3906 223.4417,404.7188 Q222.8167,405.0469 222.3167,405.7969 Q221.8323,406.5469 221.8323,407.5781 L221.8323,408.6719 Q221.8323,409.9063 222.7229,410.7344 Q223.6135,411.5469 225.2073,411.5469 Q226.1448,411.5469 226.801,411.2969 Q227.1917,411.1406 227.6135,410.7031 Q227.8792,410.4375 228.0198,410.3594 Q228.176,410.2813 228.3792,410.2813 Q228.7073,410.2813 228.9573,410.5469 Q229.2229,410.7969 229.2229,411.1406 Q229.2229,411.4844 228.8792,411.8906 Q228.3792,412.4688 227.5823,412.7969 Q226.5042,413.25 225.2073,413.25 Q223.6917,413.25 222.4885,412.625 Q221.5042,412.125 220.8167,411.0625 Q220.1292,409.9844 220.1292,408.7031 L220.1292,407.5469 Q220.1292,406.2188 220.7385,405.0781 Q221.3635,403.9219 222.4573,403.3125 Q223.551,402.6875 224.7854,402.6875 Q225.5198,402.6875 226.1604,402.8594 Q226.8167,403.0156 227.3635,403.375 Z "/><text fill="#000000" font-family="sans-serif" font-size="12" lengthAdjust="spacingAndGlyphs" textLength="63" x="238.5979" y="412.4102">ActionEvent</text><line style="stroke: #A80036; stroke-width: 1.5;" x1="210.5979" x2="303.5979" y1="423.5" y2="423.5"/><line style="stroke: #A80036; stroke-width: 1.5;" x1="210.5979" x2="303.5979" y1="431.5" y2="431.5"/><!--MD5=[f31f6503e4cc561363ee52d0041ef195]
class java.awt.GridBagConstraints--><rect fill="#FEFECE" filter="url(#fnrssn40tq8iy)" height="48" id="java.awt.GridBagConstraints" style="stroke: #A80036; stroke-width: 1.5;" width="141" x="295.5979" y="610.5"/><ellipse cx="310.5979" cy="626.5" fill="#ADD1B2" rx="11" ry="11" style="stroke: #A80036; stroke-width: 1.0;"/><path d="M313.3635,622.375 Q313.5198,622.1563 313.7073,622.0469 Q313.8948,621.9375 314.1135,621.9375 Q314.4885,621.9375 314.7229,622.2031 Q314.9573,622.4531 314.9573,623.0625 L314.9573,624.5156 Q314.9573,625.125 314.7229,625.3906 Q314.4885,625.6563 314.1135,625.6563 Q313.7698,625.6563 313.5667,625.4531 Q313.3635,625.2656 313.2542,624.75 Q313.2073,624.3906 313.0198,624.2031 Q312.6917,623.8281 312.0823,623.6094 Q311.4729,623.3906 310.8479,623.3906 Q310.0823,623.3906 309.4417,623.7188 Q308.8167,624.0469 308.3167,624.7969 Q307.8323,625.5469 307.8323,626.5781 L307.8323,627.6719 Q307.8323,628.9063 308.7229,629.7344 Q309.6135,630.5469 311.2073,630.5469 Q312.1448,630.5469 312.801,630.2969 Q313.1917,630.1406 313.6135,629.7031 Q313.8792,629.4375 314.0198,629.3594 Q314.176,629.2813 314.3792,629.2813 Q314.7073,629.2813 314.9573,629.5469 Q315.2229,629.7969 315.2229,630.1406 Q315.2229,630.4844 314.8792,630.8906 Q314.3792,631.4688 313.5823,631.7969 Q312.5042,632.25 311.2073,632.25 Q309.6917,632.25 308.4885,631.625 Q307.5042,631.125 306.8167,630.0625 Q306.1292,628.9844 306.1292,627.7031 L306.1292,626.5469 Q306.1292,625.2188 306.7385,624.0781 Q307.3635,622.9219 308.4573,622.3125 Q309.551,621.6875 310.7854,621.6875 Q311.5198,621.6875 312.1604,621.8594 Q312.8167,622.0156 313.3635,622.375 Z "/><text fill="#000000" font-family="sans-serif" font-size="12" lengthAdjust="spacingAndGlyphs" textLength="109" x="324.5979" y="631.4102">GridBagConstraints</text><line style="stroke: #A80036; stroke-width: 1.5;" x1="296.5979" x2="435.5979" y1="642.5" y2="642.5"/><line style="stroke: #A80036; stroke-width: 1.5;" x1="296.5979" x2="435.5979" y1="650.5" y2="650.5"/><!--MD5=[2ae15d20e7f22fd333327d3852982126]
class tictactoe.views.PlayerView--><rect fill="#FEFECE" filter="url(#fnrssn40tq8iy)" height="48" id="tictactoe.views.PlayerView" style="stroke: #A80036; stroke-width: 1.5;" width="92" x="910.0979" y="42"/><ellipse cx="925.0979" cy="58" fill="#ADD1B2" rx="11" ry="11" style="stroke: #A80036; stroke-width: 1.0;"/><path d="M927.8635,53.875 Q928.0198,53.6563 928.2073,53.5469 Q928.3948,53.4375 928.6135,53.4375 Q928.9885,53.4375 929.2229,53.7031 Q929.4573,53.9531 929.4573,54.5625 L929.4573,56.0156 Q929.4573,56.625 929.2229,56.8906 Q928.9885,57.1563 928.6135,57.1563 Q928.2698,57.1563 928.0667,56.9531 Q927.8635,56.7656 927.7542,56.25 Q927.7073,55.8906 927.5198,55.7031 Q927.1917,55.3281 926.5823,55.1094 Q925.9729,54.8906 925.3479,54.8906 Q924.5823,54.8906 923.9417,55.2188 Q923.3167,55.5469 922.8167,56.2969 Q922.3323,57.0469 922.3323,58.0781 L922.3323,59.1719 Q922.3323,60.4063 923.2229,61.2344 Q924.1135,62.0469 925.7073,62.0469 Q926.6448,62.0469 927.301,61.7969 Q927.6917,61.6406 928.1135,61.2031 Q928.3792,60.9375 928.5198,60.8594 Q928.676,60.7813 928.8792,60.7813 Q929.2073,60.7813 929.4573,61.0469 Q929.7229,61.2969 929.7229,61.6406 Q929.7229,61.9844 929.3792,62.3906 Q928.8792,62.9688 928.0823,63.2969 Q927.0042,63.75 925.7073,63.75 Q924.1917,63.75 922.9885,63.125 Q922.0042,62.625 921.3167,61.5625 Q920.6292,60.4844 920.6292,59.2031 L920.6292,58.0469 Q920.6292,56.7188 921.2385,55.5781 Q921.8635,54.4219 922.9573,53.8125 Q924.051,53.1875 925.2854,53.1875 Q926.0198,53.1875 926.6604,53.3594 Q927.3167,53.5156 927.8635,53.875 Z "/><text fill="#000000" font-family="sans-serif" font-size="12" lengthAdjust="spacingAndGlyphs" textLength="60" x="939.0979" y="62.9102">PlayerView</text><line style="stroke: #A80036; stroke-width: 1.5;" x1="911.0979" x2="1001.0979" y1="74" y2="74"/><line style="stroke: #A80036; stroke-width: 1.5;" x1="911.0979" x2="1001.0979" y1="82" y2="82"/><!--MD5=[015754420c4cdd9bacda884b3fa8c6ca]
class tictactoe.views.View--><rect fill="#FEFECE" filter="url(#fnrssn40tq8iy)" height="48" id="tictactoe.views.View" style="stroke: #A80036; stroke-width: 1.5;" width="58" x="817.0979" y="42"/><ellipse cx="832.0979" cy="58" fill="#ADD1B2" rx="11" ry="11" style="stroke: #A80036; stroke-width: 1.0;"/><path d="M834.8635,53.875 Q835.0198,53.6563 835.2073,53.5469 Q835.3948,53.4375 835.6135,53.4375 Q835.9885,53.4375 836.2229,53.7031 Q836.4573,53.9531 836.4573,54.5625 L836.4573,56.0156 Q836.4573,56.625 836.2229,56.8906 Q835.9885,57.1563 835.6135,57.1563 Q835.2698,57.1563 835.0667,56.9531 Q834.8635,56.7656 834.7542,56.25 Q834.7073,55.8906 834.5198,55.7031 Q834.1917,55.3281 833.5823,55.1094 Q832.9729,54.8906 832.3479,54.8906 Q831.5823,54.8906 830.9417,55.2188 Q830.3167,55.5469 829.8167,56.2969 Q829.3323,57.0469 829.3323,58.0781 L829.3323,59.1719 Q829.3323,60.4063 830.2229,61.2344 Q831.1135,62.0469 832.7073,62.0469 Q833.6448,62.0469 834.301,61.7969 Q834.6917,61.6406 835.1135,61.2031 Q835.3792,60.9375 835.5198,60.8594 Q835.676,60.7813 835.8792,60.7813 Q836.2073,60.7813 836.4573,61.0469 Q836.7229,61.2969 836.7229,61.6406 Q836.7229,61.9844 836.3792,62.3906 Q835.8792,62.9688 835.0823,63.2969 Q834.0042,63.75 832.7073,63.75 Q831.1917,63.75 829.9885,63.125 Q829.0042,62.625 828.3167,61.5625 Q827.6292,60.4844 827.6292,59.2031 L827.6292,58.0469 Q827.6292,56.7188 828.2385,55.5781 Q828.8635,54.4219 829.9573,53.8125 Q831.051,53.1875 832.2854,53.1875 Q833.0198,53.1875 833.6604,53.3594 Q834.3167,53.5156 834.8635,53.875 Z "/><text fill="#000000" font-family="sans-serif" font-size="12" lengthAdjust="spacingAndGlyphs" textLength="26" x="846.0979" y="62.9102">View</text><line style="stroke: #A80036; stroke-width: 1.5;" x1="818.0979" x2="874.0979" y1="74" y2="74"/><line style="stroke: #A80036; stroke-width: 1.5;" x1="818.0979" x2="874.0979" y1="82" y2="82"/><!--MD5=[cabe4b87987aefd6bf4718fce0f585b5]
reverse link javax.swing.JPanel to tictactoe.views.graphics.BoardView--><path d="M1718.4549,837.544 C1708.4949,807.271 1690.2549,769.182 1658.5949,751 C1585.3749,708.942 1548.7149,724.315 1468.5949,751 C1418.4249,767.711 1371.0649,805.237 1338.5449,835.696 " fill="none" id="javax.swing.JPanel&lt;-tictactoe.views.graphics.BoardView" style="stroke: #A80036; stroke-width: 1.0;"/><polygon fill="none" points="1725.2249,835.753,1724.0949,856.913,1711.7849,839.666,1725.2249,835.753" style="stroke: #A80036; stroke-width: 1.0;"/><!--MD5=[a60d4dd9da35e5e9d03c3586c16254c3]
link tictactoe.views.graphics.BoardView to javax.swing.JLabel--><path d="M1347.3925,827.5892 C1347.3925,827.5892 1423.3249,766.079 1468.5949,751 C1504.8649,738.921 1521.4549,731.963 1554.5949,751 C1588.4249,770.431 1606.6149,812.817 1615.7849,843.93 " fill="none" id="tictactoe.views.graphics.BoardView-javax.swing.JLabel" style="stroke: #A80036; stroke-width: 1.0;"/><polygon fill="#A80036" points="1619.2949,856.891,1620.8089,847.1592,1617.9907,852.0641,1613.0858,849.2459,1619.2949,856.891" style="stroke: #A80036; stroke-width: 1.0;"/><line style="stroke: #A80036; stroke-width: 1.0;" x1="1617.9907" x2="1615.8999" y1="852.0641" y2="844.3415"/><polygon fill="#A80036" points="1338.5449,835.696,1345.671,834.5918,1347.3925,827.5892,1340.2664,828.6934,1338.5449,835.696" style="stroke: #A80036; stroke-width: 1.0;"/><!--MD5=[6472c94a80d8a0139752c3d3b04c0276]
link tictactoe.views.graphics.ChoosePlayersView to tictactoe.views.graphics.BoardView--><path d="M1300.2949,721.014 C1299.1049,757.594 1297.7449,799.012 1296.7249,830.401 " fill="none" id="tictactoe.views.graphics.ChoosePlayersView-&gt;tictactoe.views.graphics.BoardView" style="stroke: #A80036; stroke-width: 1.0; stroke-dasharray: 7.0,7.0;"/><polygon fill="#A80036" points="1296.5449,835.745,1300.8391,826.8816,1296.7096,830.7477,1292.8435,826.6181,1296.5449,835.745" style="stroke: #A80036; stroke-width: 1.0;"/><!--MD5=[727818a4ba2572f21a371543409f0646]
reverse link javax.swing.JPanel to tictactoe.views.graphics.ChoosePlayersView--><path d="M1714.6349,838.331 C1706.0449,818.729 1693.3949,796.347 1676.0949,781 C1598.0949,711.812 1483.4449,673.75 1401.8749,654.093 " fill="none" id="javax.swing.JPanel&lt;-tictactoe.views.graphics.ChoosePlayersView" style="stroke: #A80036; stroke-width: 1.0;"/><polygon fill="none" points="1721.1749,835.818,1722.0249,856.99,1708.1549,840.971,1721.1749,835.818" style="stroke: #A80036; stroke-width: 1.0;"/><!--MD5=[3d7860d49b8d03eff20ee19c13a8b8ff]
reverse link java.awt.event.ActionListener to tictactoe.views.graphics.ChoosePlayersView--><path d="M148.5099,454.813 C160.5349,467.646 175.5269,480.568 192.0979,488 C370.7429,568.118 879.6369,507.067 1071.0949,548 C1116.0149,557.603 1163.9149,574.115 1204.4549,590.083 " fill="none" id="java.awt.event.ActionListener&lt;-tictactoe.views.graphics.ChoosePlayersView" style="stroke: #A80036; stroke-width: 1.0;"/><polygon fill="none" points="143.1409,459.306,135.4049,439.579,153.7549,450.177,143.1409,459.306" style="stroke: #A80036; stroke-width: 1.0;"/><!--MD5=[4558857917398b49749deef901c1a40f]
reverse link java.awt.event.KeyListener to tictactoe.views.graphics.ChoosePlayersView--><path d="M424.3549,453.543 C439.4009,466.663 457.8369,480.111 477.0979,488 C722.6439,588.569 812.5549,488.314 1071.0949,548 C1115.9549,558.356 1163.9449,575.041 1204.5749,590.935 " fill="none" id="java.awt.event.KeyListener&lt;-tictactoe.views.graphics.ChoosePlayersView" style="stroke: #A80036; stroke-width: 1.0;"/><polygon fill="none" points="419.3629,458.46,409.4809,439.716,428.8949,448.206,419.3629,458.46" style="stroke: #A80036; stroke-width: 1.0;"/><!--MD5=[10ea6f03fb925665c06b1dad1506bcde]
link tictactoe.views.graphics.ChoosePlayersView to javax.swing.JLabel--><path d="M1412.726,676.8954 C1412.726,676.8954 1527.7849,736.146 1572.0949,781 C1589.7549,798.872 1602.8449,823.972 1611.4749,844.425 " fill="none" id="tictactoe.views.graphics.ChoosePlayersView-javax.swing.JLabel" style="stroke: #A80036; stroke-width: 1.0;"/><polygon fill="#A80036" points="1616.3949,856.763,1616.7783,846.9216,1614.5436,852.1183,1609.3469,849.8836,1616.3949,856.763" style="stroke: #A80036; stroke-width: 1.0;"/><line style="stroke: #A80036; stroke-width: 1.0;" x1="1614.5436" x2="1611.5799" y1="852.1183" y2="844.686"/><polygon fill="#A80036" points="1401.7749,671.989,1405.615,678.0926,1412.726,676.8954,1408.8859,670.7918,1401.7749,671.989" style="stroke: #A80036; stroke-width: 1.0;"/><!--MD5=[89f1fb9a756a4b907f2aa36e42120567]
link tictactoe.views.graphics.ChoosePlayersView to javax.swing.JTextField--><path d="M1384.0155,730.3938 C1384.0155,730.3938 1413.4749,764.982 1427.0949,781 C1445.7049,802.878 1466.5949,827.5 1482.8849,846.716 " fill="none" id="tictactoe.views.graphics.ChoosePlayersView-javax.swing.JTextField" style="stroke: #A80036; stroke-width: 1.0;"/><polygon fill="#A80036" points="1491.4249,856.784,1488.6549,847.3327,1488.1911,852.9705,1482.5533,852.5067,1491.4249,856.784" style="stroke: #A80036; stroke-width: 1.0;"/><line style="stroke: #A80036; stroke-width: 1.0;" x1="1488.1911" x2="1483.0149" y1="852.9705" y2="846.8685"/><polygon fill="#A80036" points="1376.2349,721.258,1377.0799,728.4194,1384.0155,730.3938,1383.1705,723.2324,1376.2349,721.258" style="stroke: #A80036; stroke-width: 1.0;"/><!--MD5=[4c5260bde3ce8e49162549ea989dbafe]
link tictactoe.views.graphics.ChoosePlayersView to javax.swing.JButton--><path d="M1413.7719,645.1352 C1413.7719,645.1352 1676.2449,694.845 1782.0949,781 C1802.0949,797.273 1815.8049,822.997 1824.4049,844.144 " fill="none" id="tictactoe.views.graphics.ChoosePlayersView-javax.swing.JButton" style="stroke: #A80036; stroke-width: 1.0;"/><polygon fill="#A80036" points="1829.1149,856.595,1829.673,846.762,1827.3464,851.9182,1822.1902,849.5916,1829.1149,856.595" style="stroke: #A80036; stroke-width: 1.0;"/><line style="stroke: #A80036; stroke-width: 1.0;" x1="1827.3464" x2="1824.5199" y1="851.9182" y2="844.434"/><polygon fill="#A80036" points="1401.8749,643.566,1407.3003,648.3163,1413.7719,645.1352,1408.3464,640.385,1401.8749,643.566" style="stroke: #A80036; stroke-width: 1.0;"/><!--MD5=[0eb2ca1c2563986081c25bcdc723fdfe]
link tictactoe.views.graphics.ChoosePlayersView to javax.swing.JRootPane--><path d="M1401.7949,650.929 C1547.7249,675.23 1812.2249,725.414 1890.0949,781 C1914.9849,798.762 1932.6149,829.502 1942.9849,852.028 " fill="none" id="tictactoe.views.graphics.ChoosePlayersView-&gt;javax.swing.JRootPane" style="stroke: #A80036; stroke-width: 1.0; stroke-dasharray: 7.0,7.0;"/><polygon fill="#A80036" points="1945.0949,856.702,1945.048,846.8533,1943.0425,852.1427,1937.7531,850.1371,1945.0949,856.702" style="stroke: #A80036; stroke-width: 1.0;"/><!--MD5=[07c515c75c2fc272e37f9aea32d8b360]
link tictactoe.views.graphics.ChoosePlayersView to java.awt.event.ActionEvent--><path d="M1204.3949,590.352 C1163.8449,574.423 1115.9549,557.867 1071.0949,548 C908.0189,512.129 471.9799,561.599 322.0979,488 C302.4149,478.335 285.8859,459.899 274.4219,444.169 " fill="none" id="tictactoe.views.graphics.ChoosePlayersView-&gt;java.awt.event.ActionEvent" style="stroke: #A80036; stroke-width: 1.0; stroke-dasharray: 7.0,7.0;"/><polygon fill="#A80036" points="271.3239,439.814,273.2802,449.4666,274.2217,443.8886,279.7997,444.8301,271.3239,439.814" style="stroke: #A80036; stroke-width: 1.0;"/><!--MD5=[036ac694f9ef560a6efe6f0807c8a669]
link tictactoe.views.graphics.ChoosePlayersView to tictactoe.views.graphics.Constraints--><path d="M1219.7449,721.071 C1200.7349,740.705 1180.6749,761.531 1162.0949,781 C1141.4949,802.594 1118.5349,827.033 1100.5849,846.227 " fill="none" id="tictactoe.views.graphics.ChoosePlayersView-&gt;tictactoe.views.graphics.Constraints" style="stroke: #A80036; stroke-width: 1.0; stroke-dasharray: 7.0,7.0;"/><polygon fill="#A80036" points="1097.0549,849.994,1106.1213,846.1469,1100.4678,846.3399,1100.2748,840.6863,1097.0549,849.994" style="stroke: #A80036; stroke-width: 1.0;"/><!--MD5=[bdb045c9d431250a5f9395ddd4bd6b7e]
reverse link java.awt.GridBagConstraints to tictactoe.views.graphics.Constraints--><path d="M403.1589,672.237 C423.3409,689.986 449.7369,709.817 477.0979,721 C683.8689,805.513 776.7569,680.205 976.0979,781 C1007.0329,796.642 1033.1049,826.963 1049.7049,849.948 " fill="none" id="java.awt.GridBagConstraints&lt;-tictactoe.views.graphics.Constraints" style="stroke: #A80036; stroke-width: 1.0;"/><polygon fill="none" points="398.3779,677.35,388.4059,658.654,407.8609,667.051,398.3779,677.35" style="stroke: #A80036; stroke-width: 1.0;"/><!--MD5=[10381ae29511add63f6bf8123459af4e]
reverse link tictactoe.views.graphics.CoordinateView to tictactoe.views.graphics.CoordinateMoveView--><path d="M903.6219,739.416 C897.6319,753.101 891.5059,767.101 885.5509,780.707 " fill="none" id="tictactoe.views.graphics.CoordinateView&lt;-tictactoe.views.graphics.CoordinateMoveView" style="stroke: #A80036; stroke-width: 1.0;"/><polygon fill="none" points="897.2429,736.53,911.6749,721.014,910.0689,742.143,897.2429,736.53" style="stroke: #A80036; stroke-width: 1.0;"/><!--MD5=[5cd154c91e18ab8fe96bcf131be95657]
reverse link tictactoe.views.graphics.CoordinateView to tictactoe.views.graphics.CoordinatePutView--><path d="M827.1209,703.887 C788.2189,727.075 745.5659,753.978 708.0979,781 C690.5969,793.622 672.4819,808.242 655.9179,822.307 " fill="none" id="tictactoe.views.graphics.CoordinateView&lt;-tictactoe.views.graphics.CoordinatePutView" style="stroke: #A80036; stroke-width: 1.0;"/><polygon fill="none" points="823.6269,697.821,844.4069,693.678,830.7459,709.876,823.6269,697.821" style="stroke: #A80036; stroke-width: 1.0;"/><!--MD5=[8d59a044b1f407b3a8b407e7a1ed01d6]
reverse link javax.swing.JPanel to tictactoe.views.graphics.CoordinateView--><path d="M1716.7649,837.819 C1708.5649,817.368 1695.6349,794.388 1676.0949,781 C1585.7849,719.121 1293.6049,746.331 1187.0949,721 C1142.4649,710.385 1094.6049,694.189 1053.6049,678.737 " fill="none" id="javax.swing.JPanel&lt;-tictactoe.views.graphics.CoordinateView" style="stroke: #A80036; stroke-width: 1.0;"/><polygon fill="none" points="1723.4649,835.789,1723.4449,856.979,1710.2449,840.401,1723.4649,835.789" style="stroke: #A80036; stroke-width: 1.0;"/><!--MD5=[f06739bdc2562ef708a9105bc1eced38]
reverse link java.awt.event.ActionListener to tictactoe.views.graphics.CoordinateView--><path d="M149.2999,455.187 C161.2289,467.762 175.9529,480.418 192.0979,488 C426.6719,598.161 522.7909,477.244 772.0979,548 C796.2279,554.848 821.0919,564.812 844.2809,575.538 " fill="none" id="java.awt.event.ActionListener&lt;-tictactoe.views.graphics.CoordinateView" style="stroke: #A80036; stroke-width: 1.0;"/><polygon fill="none" points="143.6569,459.366,135.7889,439.691,154.2089,450.166,143.6569,459.366" style="stroke: #A80036; stroke-width: 1.0;"/><!--MD5=[8b96044bfe9f186552fa707236bac3d7]
reverse link java.awt.event.KeyListener to tictactoe.views.graphics.CoordinateView--><path d="M425.4279,453.095 C440.4079,465.919 458.5189,479.282 477.0979,488 C598.2219,544.834 645.3199,505.237 772.0979,548 C796.0269,556.071 820.9119,566.621 844.1999,577.541 " fill="none" id="java.awt.event.KeyListener&lt;-tictactoe.views.graphics.CoordinateView" style="stroke: #A80036; stroke-width: 1.0;"/><polygon fill="none" points="420.6759,458.236,410.5259,439.636,430.0599,447.846,420.6759,458.236" style="stroke: #A80036; stroke-width: 1.0;"/><!--MD5=[64ec8305c6b701a77e453d9781af2e4f]
link tictactoe.views.graphics.CoordinateView to javax.swing.JLabel--><path d="M1065.0482,682.1429 C1065.0482,682.1429 1146.9849,710.768 1187.0949,721 C1354.9049,763.801 1431.2449,680.255 1572.0949,781 C1593.2549,796.129 1606.5049,822.533 1614.3349,844.268 " fill="none" id="tictactoe.views.graphics.CoordinateView-javax.swing.JLabel" style="stroke: #A80036; stroke-width: 1.0;"/><polygon fill="#A80036" points="1618.4349,856.731,1619.4248,846.932,1616.8737,851.981,1611.8247,849.4299,1618.4349,856.731" style="stroke: #A80036; stroke-width: 1.0;"/><line style="stroke: #A80036; stroke-width: 1.0;" x1="1616.8737" x2="1614.3699" y1="851.981" y2="844.3815"/><polygon fill="#A80036" points="1053.7949,677.976,1058.0326,683.8106,1065.0482,682.1429,1060.8105,676.3084,1053.7949,677.976" style="stroke: #A80036; stroke-width: 1.0;"/><!--MD5=[20428267ec9a0593e4e83535749df2f2]
link tictactoe.views.graphics.CoordinateView to javax.swing.JTextField--><path d="M1065.0573,679.7769 C1065.0573,679.7769 1147.2949,708.908 1187.0949,721 C1292.3049,752.96 1333.7149,722.962 1427.0949,781 C1453.0649,797.137 1475.0949,823.962 1490.0649,845.622 " fill="none" id="tictactoe.views.graphics.CoordinateView-javax.swing.JTextField" style="stroke: #A80036; stroke-width: 1.0;"/><polygon fill="#A80036" points="1497.4449,856.707,1495.7926,846.9977,1494.6765,852.5434,1489.1308,851.4272,1497.4449,856.707" style="stroke: #A80036; stroke-width: 1.0;"/><line style="stroke: #A80036; stroke-width: 1.0;" x1="1494.6765" x2="1490.2449" y1="852.5434" y2="845.883"/><polygon fill="#A80036" points="1053.7849,675.662,1058.0495,681.4769,1065.0573,679.7769,1060.7927,673.962,1053.7849,675.662" style="stroke: #A80036; stroke-width: 1.0;"/><!--MD5=[9b670b36bc06045cf072d235a6e64b39]
link tictactoe.views.graphics.CoordinateView to javax.swing.JButton--><path d="M1065.024,683.5611 C1065.024,683.5611 1146.9949,711.918 1187.0949,721 C1316.7049,750.35 1671.3749,707.509 1782.0949,781 C1804.0849,795.593 1817.8849,822.265 1826.0349,844.249 " fill="none" id="tictactoe.views.graphics.CoordinateView-javax.swing.JButton" style="stroke: #A80036; stroke-width: 1.0;"/><polygon fill="#A80036" points="1830.2949,856.853,1831.202,847.046,1828.6937,852.1163,1823.6233,849.608,1830.2949,856.853" style="stroke: #A80036; stroke-width: 1.0;"/><line style="stroke: #A80036; stroke-width: 1.0;" x1="1828.6937" x2="1826.1249" y1="852.1163" y2="844.538"/><polygon fill="#A80036" points="1053.7849,679.356,1058.0027,685.2049,1065.024,683.5611,1060.8061,677.7122,1053.7849,679.356" style="stroke: #A80036; stroke-width: 1.0;"/><!--MD5=[c3f8f11eedec776d5e94d2264b4a4fe6]
link tictactoe.views.graphics.CoordinateView to tictactoe.views.graphics.Constraints--><path d="M991.0679,721.014 C1012.0039,763.672 1036.1649,812.907 1051.9949,845.148 " fill="none" id="tictactoe.views.graphics.CoordinateView-&gt;tictactoe.views.graphics.Constraints" style="stroke: #A80036; stroke-width: 1.0; stroke-dasharray: 7.0,7.0;"/><polygon fill="#A80036" points="1054.2649,849.778,1053.8881,839.9364,1052.0609,845.29,1046.7073,843.4627,1054.2649,849.778" style="stroke: #A80036; stroke-width: 1.0;"/><!--MD5=[6e5bb3a92f06b6521fbaefcba998fa4f]
link tictactoe.views.graphics.CoordinateView to java.awt.event.ActionEvent--><path d="M844.5959,576.299 C821.2829,565.456 796.2879,555.252 772.0979,548 C578.8269,490.057 500.8079,581.668 322.0979,488 C302.8119,477.892 286.3729,459.653 274.8519,444.127 " fill="none" id="tictactoe.views.graphics.CoordinateView-&gt;java.awt.event.ActionEvent" style="stroke: #A80036; stroke-width: 1.0; stroke-dasharray: 7.0,7.0;"/><polygon fill="#A80036" points="271.7349,439.829,273.7816,449.4629,274.6707,443.8763,280.2573,444.7655,271.7349,439.829" style="stroke: #A80036; stroke-width: 1.0;"/><!--MD5=[47b0f7ebd6a1ec57eb5e415e44df3625]
reverse link javax.swing.JFrame to tictactoe.views.graphics.GameView--><path d="M2057.3649,838.207 C2048.3249,818.752 2035.3049,796.532 2018.0949,781 C1800.0049,584.089 1459.3649,482.439 1282.8249,440.478 " fill="none" id="javax.swing.JFrame&lt;-tictactoe.views.graphics.GameView" style="stroke: #A80036; stroke-width: 1.0;"/><polygon fill="none" points="2063.8649,835.591,2065.2249,856.736,2050.9749,841.057,2063.8649,835.591" style="stroke: #A80036; stroke-width: 1.0;"/><!--MD5=[b5996867af380ca02459b04aa80f56b8]
link tictactoe.views.graphics.GameView to tictactoe.views.graphics.ChoosePlayersView--><path d="M1212.6749,488.155 C1223.6549,505.795 1235.5449,524.91 1246.9849,543.302 " fill="none" id="tictactoe.views.graphics.GameView-&gt;tictactoe.views.graphics.ChoosePlayersView" style="stroke: #A80036; stroke-width: 1.0; stroke-dasharray: 7.0,7.0;"/><polygon fill="#A80036" points="1249.8849,547.961,1248.524,538.2066,1247.2424,543.7164,1241.7326,542.4347,1249.8849,547.961" style="stroke: #A80036; stroke-width: 1.0;"/><!--MD5=[c79a14885adf94ff16841042cb6332be]
link tictactoe.views.graphics.GameView to tictactoe.views.PlayerView--><path d="M1179.3749,342.905 C1185.3949,277.892 1183.0549,183.097 1132.0949,122 C1101.7749,85.65 1047.7649,72.942 1007.5499,68.692 " fill="none" id="tictactoe.views.graphics.GameView-&gt;tictactoe.views.PlayerView" style="stroke: #A80036; stroke-width: 1.0; stroke-dasharray: 7.0,7.0;"/><polygon fill="#A80036" points="1002.2199,68.17,1010.7859,73.0303,1007.196,68.6586,1011.5677,65.0686,1002.2199,68.17" style="stroke: #A80036; stroke-width: 1.0;"/><!--MD5=[cde31fc4b42824274c0456a9d3e41790]
link tictactoe.views.graphics.GameView to tictactoe.views.graphics.BoardView--><path d="M1162.0849,488.092 C1159.2249,551.143 1160.9649,644.57 1187.0949,721 C1201.0949,761.946 1228.6249,802.208 1252.3849,831.972 " fill="none" id="tictactoe.views.graphics.GameView-&gt;tictactoe.views.graphics.BoardView" style="stroke: #A80036; stroke-width: 1.0; stroke-dasharray: 7.0,7.0;"/><polygon fill="#A80036" points="1255.5649,835.917,1253.0428,826.3966,1252.4319,832.0203,1246.8081,831.4094,1255.5649,835.917" style="stroke: #A80036; stroke-width: 1.0;"/><!--MD5=[a43462772411fda6d5e604aa4dc9a36f]
link tictactoe.views.graphics.GameView to tictactoe.views.graphics.Constraints--><path d="M1152.7949,488.16 C1131.2749,588.909 1092.8949,768.596 1076.6749,844.548 " fill="none" id="tictactoe.views.graphics.GameView-&gt;tictactoe.views.graphics.Constraints" style="stroke: #A80036; stroke-width: 1.0; stroke-dasharray: 7.0,7.0;"/><polygon fill="#A80036" points="1075.5449,849.835,1081.3377,841.8699,1076.59,844.9454,1073.5144,840.1977,1075.5449,849.835" style="stroke: #A80036; stroke-width: 1.0;"/><!--MD5=[7be369977caa022d054f8c60cd641674]
reverse link tictactoe.views.View to tictactoe.views.graphics.GraphicsView--><path d="M832.3549,109.172 C826.6799,126.585 820.0109,147.05 813.8959,165.816 " fill="none" id="tictactoe.views.View&lt;-tictactoe.views.graphics.GraphicsView" style="stroke: #A80036; stroke-width: 1.0;"/><polygon fill="none" points="825.7199,106.939,838.5729,90.092,839.0309,111.277,825.7199,106.939" style="stroke: #A80036; stroke-width: 1.0;"/><!--MD5=[56170282cb16756a44e05ee3fcd945e0]
link tictactoe.views.graphics.GraphicsView to tictactoe.views.graphics.GameView--><path d="M874.7506,279.3643 C874.7506,279.3643 879.2969,281.994 881.0979,283 C932.2589,311.583 990.7519,339.231 1041.5249,361.737 " fill="none" id="tictactoe.views.graphics.GraphicsView-tictactoe.views.graphics.GameView" style="stroke: #A80036; stroke-width: 1.0;"/><polygon fill="#A80036" points="1053.5849,367.049,1046.9622,359.7593,1049.0095,365.0327,1043.7361,367.08,1053.5849,367.049" style="stroke: #A80036; stroke-width: 1.0;"/><line style="stroke: #A80036; stroke-width: 1.0;" x1="1049.0095" x2="1041.6899" y1="365.0327" y2="361.807"/><polygon fill="#A80036" points="864.4459,273.215,867.5485,279.7245,874.7506,279.3643,871.648,272.8548,864.4459,273.215" style="stroke: #A80036; stroke-width: 1.0;"/><!--MD5=[3df1f22a1e21db08c9718327ee095028]
link tictactoe.views.graphics.GraphicsView to tictactoe.views.graphics.ResumeDialog--><path d="M795.0979,283.233 C795.0979,309.381 795.0979,339.978 795.0979,365.052 " fill="none" id="tictactoe.views.graphics.GraphicsView-&gt;tictactoe.views.graphics.ResumeDialog" style="stroke: #A80036; stroke-width: 1.0; stroke-dasharray: 7.0,7.0;"/><polygon fill="#A80036" points="795.0979,370.315,799.0979,361.315,795.0979,365.315,791.0979,361.315,795.0979,370.315" style="stroke: #A80036; stroke-width: 1.0;"/><!--MD5=[b8439edf54a3c3807b534686210f66ce]
reverse link tictactoe.views.PlayerView to tictactoe.views.graphics.MachinePlayerView--><path d="M969.8279,109.133 C976.8959,130.822 985.5089,157.252 992.6739,179.238 " fill="none" id="tictactoe.views.PlayerView&lt;-tictactoe.views.graphics.MachinePlayerView" style="stroke: #A80036; stroke-width: 1.0;"/><polygon fill="none" points="963.1649,111.277,963.6229,90.092,976.4759,106.939,963.1649,111.277" style="stroke: #A80036; stroke-width: 1.0;"/><!--MD5=[5a23dad18e5d6887e4100af0bfeec4a7]
reverse link tictactoe.views.PlayerView to tictactoe.views.graphics.UserPlayerView--><path d="M915.7869,101.945 C908.3259,106.806 900.2899,111.117 892.0979,114 C853.4919,127.589 748.3399,114.541 708.0979,122 C403.9379,178.38 228.8019,91.926 48.0979,343 C10.4522,395.306 6,439.206 48.0979,488 C107.5314,556.887 365.9969,521.711 453.0979,548 C473.6519,554.204 494.8339,562.361 515.1559,571.176 " fill="none" id="tictactoe.views.PlayerView&lt;-tictactoe.views.graphics.UserPlayerView" style="stroke: #A80036; stroke-width: 1.0;"/><polygon fill="none" points="911.7039,96.258,931.9529,90.017,920.0159,107.524,911.7039,96.258" style="stroke: #A80036; stroke-width: 1.0;"/><!--MD5=[019086a575f29d92d2eda5b55be6f110]
link tictactoe.views.graphics.UserPlayerView to tictactoe.views.graphics.CoordinatePutView--><path d="M620.4073,719.0244 C620.4073,719.0244 609.4049,781.593 604.5139,809.4 " fill="none" id="tictactoe.views.graphics.UserPlayerView-tictactoe.views.graphics.CoordinatePutView" style="stroke: #A80036; stroke-width: 1.0;"/><polygon fill="#A80036" points="602.2539,822.253,607.7529,814.0823,603.1203,817.3286,599.874,812.696,602.2539,822.253" style="stroke: #A80036; stroke-width: 1.0;"/><line style="stroke: #A80036; stroke-width: 1.0;" x1="603.1203" x2="604.5054" y1="817.3286" y2="809.4495"/><polygon fill="#A80036" points="622.4869,707.206,617.5076,712.422,620.4073,719.0244,625.3866,713.8084,622.4869,707.206" style="stroke: #A80036; stroke-width: 1.0;"/><!--MD5=[e04f6c8fd17d2a2d4f4737c18e94d2a3]
link tictactoe.views.graphics.UserPlayerView to tictactoe.views.graphics.CoordinateMoveView--><path d="M703.5599,716.3644 C703.5599,716.3644 734.0869,752.422 749.1359,770.197 " fill="none" id="tictactoe.views.graphics.UserPlayerView-tictactoe.views.graphics.CoordinateMoveView" style="stroke: #A80036; stroke-width: 1.0;"/><polygon fill="#A80036" points="757.9519,780.61,755.1892,771.1566,754.7211,776.794,749.0836,776.3259,757.9519,780.61" style="stroke: #A80036; stroke-width: 1.0;"/><line style="stroke: #A80036; stroke-width: 1.0;" x1="754.7211" x2="749.5514" y1="776.794" y2="770.688"/><polygon fill="#A80036" points="695.8059,707.206,696.6301,714.3698,703.5599,716.3644,702.7357,709.2005,695.8059,707.206" style="stroke: #A80036; stroke-width: 1.0;"/><!--MD5=[b0ef6767024c98d104200c01c4e4d87d]
link tictactoe.views.graphics.UserPlayerView to tictactoe.views.graphics.Constraints--><path d="M754.6379,689.533 C778.5689,700.123 803.5809,711.033 827.0979,721 C892.8279,748.859 917.1669,740.706 976.0979,781 C1002.0129,798.719 1026.1249,824.781 1043.2949,845.718 " fill="none" id="tictactoe.views.graphics.UserPlayerView-&gt;tictactoe.views.graphics.Constraints" style="stroke: #A80036; stroke-width: 1.0; stroke-dasharray: 7.0,7.0;"/><polygon fill="#A80036" points="1046.6449,849.833,1044.0653,840.328,1043.4884,845.9553,1037.861,845.3784,1046.6449,849.833" style="stroke: #A80036; stroke-width: 1.0;"/><!--MD5=[31ed187fa01d4105a5d6663e54f37c3c]
@startuml

class  tictactoe.views.graphics.BoardView{
~ BoardView(Board)
- printRowBoard(Board, int): void
- getSquareBoardText(Board, int, int): String
}
javax.swing.JPanel <|-down- tictactoe.views.graphics.BoardView
tictactoe.views.graphics.BoardView *-down-> javax.swing.JLabel
tictactoe.views.graphics.ChoosePlayersView ..> tictactoe.views.graphics.BoardView

class  tictactoe.views.graphics.ChoosePlayersView{
- {static} ACCEPT: String
- label: JLabel
- textField: JTextField
- button: JButton
- playersNumber: String
~ ChoosePlayersView(JRootPane)
~ resetPlayersNumber(): void
~ getPlayersNumber(): String
+ actionPerformed(ActionEvent): void
}
javax.swing.JPanel <|-down- tictactoe.views.graphics.ChoosePlayersView
java.awt.event.ActionListener <|-down- tictactoe.views.graphics.ChoosePlayersView
java.awt.event.KeyListener <|-down- tictactoe.views.graphics.ChoosePlayersView
tictactoe.views.graphics.ChoosePlayersView *-down-> javax.swing.JLabel
tictactoe.views.graphics.ChoosePlayersView *-down-> javax.swing.JTextField
tictactoe.views.graphics.ChoosePlayersView *-down-> javax.swing.JButton
tictactoe.views.graphics.ChoosePlayersView ..> javax.swing.JRootPane
tictactoe.views.graphics.ChoosePlayersView ..> java.awt.event.ActionEvent
tictactoe.views.graphics.ChoosePlayersView ..> tictactoe.views.graphics.Constraints

class  tictactoe.views.graphics.Constraints{
~ Constraints(int, int, int, int)
}
java.awt.GridBagConstraints <|-down- tictactoe.views.graphics.Constraints

class  tictactoe.views.graphics.CoordinateMoveView{
- {static} ENTER_COORDINATE_TO_REMOVE: String
- labelRowToMove: JLabel
- labelColumnToMove: JLabel
- titleLabelToMove: JLabel
- textFieldRowToMove: JTextField
- textFieldColumnToMove: JTextField
- coordinates: Coordinate[]
~ CoordinateMoveView()
~ resetCoordinates(): void
~ getCoordinates(): Coordinate[]
+ actionPerformed(ActionEvent): void
}
tictactoe.views.graphics.CoordinateView <|-down- tictactoe.views.graphics.CoordinateMoveView

class  tictactoe.views.graphics.CoordinatePutView{
- coordinates: Coordinate[]
~ CoordinatePutView()
~ resetCoordinate(): void
~ getCoordinate(): Coordinate
+ actionPerformed(ActionEvent): void
}
tictactoe.views.graphics.CoordinateView <|-down- tictactoe.views.graphics.CoordinatePutView

class  tictactoe.views.graphics.CoordinateView{
# {static} ENTER_COORDINATE_TO_PUT: String
# {static} ACCEPT: String
# labelRow: JLabel
# labelColumn: JLabel
# titleLabel: JLabel
# textFieldRow: JTextField
# textFieldColumn: JTextField
# button: JButton
~ CoordinateView()
}
javax.swing.JPanel <|-down- tictactoe.views.graphics.CoordinateView
java.awt.event.ActionListener <|-down- tictactoe.views.graphics.CoordinateView
java.awt.event.KeyListener <|-down- tictactoe.views.graphics.CoordinateView
tictactoe.views.graphics.CoordinateView *-down-> javax.swing.JLabel
tictactoe.views.graphics.CoordinateView *-down-> javax.swing.JTextField
tictactoe.views.graphics.CoordinateView *-down-> javax.swing.JButton
tictactoe.views.graphics.CoordinateView ..> tictactoe.views.graphics.Constraints
tictactoe.views.graphics.CoordinateView ..> java.awt.event.ActionEvent

class  tictactoe.views.graphics.GameView{
- {static} GAME_OVER: String
- game: Game
- choosePlayersView: ChoosePlayersView
~ GameView(Game)
~ start(): void
~ play(): boolean
- result(): void
}
javax.swing.JFrame <|-down- tictactoe.views.graphics.GameView
tictactoe.views.graphics.GameView ..> tictactoe.views.graphics.ChoosePlayersView
tictactoe.views.graphics.GameView ..> tictactoe.views.PlayerView
tictactoe.views.graphics.GameView ..> tictactoe.views.graphics.BoardView
tictactoe.views.graphics.GameView ..> tictactoe.views.graphics.Constraints

class  tictactoe.views.graphics.GraphicsView{
- gameView: GameView
+ GraphicsView(Game)
# start(): void
# play(): boolean
# isNewGame(): boolean
}
tictactoe.views.View <|-down- tictactoe.views.graphics.GraphicsView
tictactoe.views.graphics.GraphicsView *-down-> tictactoe.views.graphics.GameView
tictactoe.views.graphics.GraphicsView ..> tictactoe.views.graphics.ResumeDialog

class  tictactoe.views.graphics.MachinePlayerView{
~ MachinePlayerView(Player)
+ readCoordinateToPut(): Coordinate
+ readCoordinatesToMove(): Coordinate[]
}
tictactoe.views.PlayerView <|-down- tictactoe.views.graphics.MachinePlayerView

class  tictactoe.views.graphics.ResumeDialog{
- resume: boolean
~ ResumeDialog()
~ isResumed(): boolean
}

class  tictactoe.views.graphics.UserPlayerView{
~ {static} ENTER_COORDINATE_TO_PUT: String
~ {static} ENTER_COORDINATE_TO_REMOVE: String
~ coordinatePutView: CoordinatePutView
~ coordinateMoveView: CoordinateMoveView
~ UserPlayerView(Player)
+ readCoordinateToPut(): Coordinate
+ readCoordinatesToMove(): Coordinate[]
}
tictactoe.views.PlayerView <|-down- tictactoe.views.graphics.UserPlayerView
tictactoe.views.graphics.UserPlayerView *-down-> tictactoe.views.graphics.CoordinatePutView
tictactoe.views.graphics.UserPlayerView *-down-> tictactoe.views.graphics.CoordinateMoveView
tictactoe.views.graphics.UserPlayerView ..> tictactoe.views.graphics.Constraints

@enduml

PlantUML version 1.2020.15(Sun Jun 28 13:39:45 CEST 2020)
(GPL source distribution)
Java Runtime: Java(TM) SE Runtime Environment
JVM: Java HotSpot(TM) 64-Bit Server VM
Default Encoding: windows-1252
Language: es
Country: ES
--></g></svg>