<?xml version="1.0" encoding="UTF-8" standalone="no"?><svg xmlns="http://www.w3.org/2000/svg" xmlns:xlink="http://www.w3.org/1999/xlink" contentScriptType="application/ecmascript" contentStyleType="text/css" height="790px" preserveAspectRatio="none" style="width:1341px;height:790px;" version="1.1" viewBox="0 0 1341 790" width="1341px" zoomAndPan="magnify"><defs><filter height="300%" id="f18sjeccj2c8tz" width="300%" x="-1" y="-1"><feGaussianBlur result="blurOut" stdDeviation="2.0"/><feColorMatrix in="blurOut" result="blurOut2" type="matrix" values="0 0 0 0 0 0 0 0 0 0 0 0 0 0 0 0 0 0 .4 0"/><feOffset dx="4.0" dy="4.0" in="blurOut2" result="blurOut3"/><feBlend in="SourceGraphic" in2="blurOut3" mode="normal"/></filter></defs><g><!--MD5=[64182ab34c08ac367bbf699869515711]
cluster tictactoe.views.console--><polygon fill="#FFFFFF" filter="url(#f18sjeccj2c8tz)" points="346,130,518,130,525,153.6094,1319,153.6094,1319,654,346,654,346,130" style="stroke: #000000; stroke-width: 1.5;"/><line style="stroke: #000000; stroke-width: 1.5;" x1="346" x2="525" y1="153.6094" y2="153.6094"/><text fill="#000000" font-family="sans-serif" font-size="14" font-weight="bold" lengthAdjust="spacingAndGlyphs" textLength="166" x="350" y="146.5332">tictactoe.views.console</text><!--MD5=[c52f45833d539af9e29a9d34b8b7302b]
cluster utils--><polygon fill="#FFFFFF" filter="url(#f18sjeccj2c8tz)" points="16,356,52,356,59,379.6094,322,379.6094,322,456,16,456,16,356" style="stroke: #000000; stroke-width: 1.5;"/><line style="stroke: #000000; stroke-width: 1.5;" x1="16" x2="59" y1="379.6094" y2="379.6094"/><text fill="#000000" font-family="sans-serif" font-size="14" font-weight="bold" lengthAdjust="spacingAndGlyphs" textLength="30" x="20" y="372.5332">utils</text><!--MD5=[ee7e9a007a7c4d40c0679a27f272732d]
cluster tictactoe.controllers--><polygon fill="#FFFFFF" filter="url(#f18sjeccj2c8tz)" points="490,678,638,678,645,701.6094,936,701.6094,936,778,490,778,490,678" style="stroke: #000000; stroke-width: 1.5;"/><line style="stroke: #000000; stroke-width: 1.5;" x1="490" x2="645" y1="701.6094" y2="701.6094"/><text fill="#000000" font-family="sans-serif" font-size="14" font-weight="bold" lengthAdjust="spacingAndGlyphs" textLength="142" x="494" y="694.5332">tictactoe.controllers</text><!--MD5=[f4e83a21a957c5b9ba9691e6361db36b]
cluster tictactoe.views--><polygon fill="#FFFFFF" filter="url(#f18sjeccj2c8tz)" points="602,6,714,6,721,29.6094,940,29.6094,940,106,602,106,602,6" style="stroke: #000000; stroke-width: 1.5;"/><line style="stroke: #000000; stroke-width: 1.5;" x1="602" x2="721" y1="29.6094" y2="29.6094"/><text fill="#000000" font-family="sans-serif" font-size="14" font-weight="bold" lengthAdjust="spacingAndGlyphs" textLength="106" x="606" y="22.5332">tictactoe.views</text><!--MD5=[270aad5bca7cd81b5a24665b2403b70b]
class tictactoe.views.console.BoardView--><rect fill="#FEFECE" filter="url(#f18sjeccj2c8tz)" height="117.1797" id="tictactoe.views.console.BoardView" style="stroke: #A80036; stroke-width: 1.5;" width="225" x="362.5" y="521"/><ellipse cx="441.25" cy="537" fill="#ADD1B2" rx="11" ry="11" style="stroke: #A80036; stroke-width: 1.0;"/><path d="M444.0156,532.875 Q444.1719,532.6563 444.3594,532.5469 Q444.5469,532.4375 444.7656,532.4375 Q445.1406,532.4375 445.375,532.7031 Q445.6094,532.9531 445.6094,533.5625 L445.6094,535.0156 Q445.6094,535.625 445.375,535.8906 Q445.1406,536.1563 444.7656,536.1563 Q444.4219,536.1563 444.2188,535.9531 Q444.0156,535.7656 443.9063,535.25 Q443.8594,534.8906 443.6719,534.7031 Q443.3438,534.3281 442.7344,534.1094 Q442.125,533.8906 441.5,533.8906 Q440.7344,533.8906 440.0938,534.2188 Q439.4688,534.5469 438.9688,535.2969 Q438.4844,536.0469 438.4844,537.0781 L438.4844,538.1719 Q438.4844,539.4063 439.375,540.2344 Q440.2656,541.0469 441.8594,541.0469 Q442.7969,541.0469 443.4531,540.7969 Q443.8438,540.6406 444.2656,540.2031 Q444.5313,539.9375 444.6719,539.8594 Q444.8281,539.7813 445.0313,539.7813 Q445.3594,539.7813 445.6094,540.0469 Q445.875,540.2969 445.875,540.6406 Q445.875,540.9844 445.5313,541.3906 Q445.0313,541.9688 444.2344,542.2969 Q443.1563,542.75 441.8594,542.75 Q440.3438,542.75 439.1406,542.125 Q438.1563,541.625 437.4688,540.5625 Q436.7813,539.4844 436.7813,538.2031 L436.7813,537.0469 Q436.7813,535.7188 437.3906,534.5781 Q438.0156,533.4219 439.1094,532.8125 Q440.2031,532.1875 441.4375,532.1875 Q442.1719,532.1875 442.8125,532.3594 Q443.4688,532.5156 444.0156,532.875 Z "/><text fill="#000000" font-family="sans-serif" font-size="12" lengthAdjust="spacingAndGlyphs" textLength="59" x="461.75" y="541.9102">BoardView</text><line style="stroke: #A80036; stroke-width: 1.5;" x1="363.5" x2="586.5" y1="553" y2="553"/><rect fill="none" height="6" style="stroke: #C82930; stroke-width: 1.0;" width="6" x="370.5" y="561"/><text fill="#000000" font-family="sans-serif" font-size="11" lengthAdjust="spacingAndGlyphs" textLength="138" x="382.5" y="568.4189">playController: PlayController</text><line style="stroke: #A80036; stroke-width: 1.5;" x1="363.5" x2="586.5" y1="574.8359" y2="574.8359"/><polygon fill="#4177AF" points="373.5,581.8359,369.5,587.8359,377.5,587.8359" style="stroke: #1963A0; stroke-width: 1.0;"/><text fill="#000000" font-family="sans-serif" font-size="11" lengthAdjust="spacingAndGlyphs" textLength="129" x="382.5" y="590.2549">BoardView(PlayController)</text><polygon fill="#4177AF" points="373.5,595.6719,369.5,601.6719,377.5,601.6719" style="stroke: #1963A0; stroke-width: 1.0;"/><text fill="#000000" font-family="sans-serif" font-size="11" lengthAdjust="spacingAndGlyphs" textLength="59" x="382.5" y="604.0908">write(): void</text><rect fill="#F24D5C" height="6" style="stroke: #C82930; stroke-width: 1.0;" width="6" x="370.5" y="610.5078"/><text fill="#000000" font-family="sans-serif" font-size="11" lengthAdjust="spacingAndGlyphs" textLength="118" x="382.5" y="617.9268">printRowBoard(int): void</text><rect fill="#F24D5C" height="6" style="stroke: #C82930; stroke-width: 1.0;" width="6" x="370.5" y="624.3438"/><text fill="#000000" font-family="sans-serif" font-size="11" lengthAdjust="spacingAndGlyphs" textLength="199" x="382.5" y="631.7627">printSquareValueBoard(Coordinate): void</text><!--MD5=[bde0c8ed193d8d2dbac1dee471354ab0]
class tictactoe.views.console.ConsoleView--><rect fill="#FEFECE" filter="url(#f18sjeccj2c8tz)" height="144.8516" id="tictactoe.views.console.ConsoleView" style="stroke: #A80036; stroke-width: 1.5;" width="322" x="613" y="166"/><ellipse cx="733.25" cy="182" fill="#ADD1B2" rx="11" ry="11" style="stroke: #A80036; stroke-width: 1.0;"/><path d="M736.0156,177.875 Q736.1719,177.6563 736.3594,177.5469 Q736.5469,177.4375 736.7656,177.4375 Q737.1406,177.4375 737.375,177.7031 Q737.6094,177.9531 737.6094,178.5625 L737.6094,180.0156 Q737.6094,180.625 737.375,180.8906 Q737.1406,181.1563 736.7656,181.1563 Q736.4219,181.1563 736.2188,180.9531 Q736.0156,180.7656 735.9063,180.25 Q735.8594,179.8906 735.6719,179.7031 Q735.3438,179.3281 734.7344,179.1094 Q734.125,178.8906 733.5,178.8906 Q732.7344,178.8906 732.0938,179.2188 Q731.4688,179.5469 730.9688,180.2969 Q730.4844,181.0469 730.4844,182.0781 L730.4844,183.1719 Q730.4844,184.4063 731.375,185.2344 Q732.2656,186.0469 733.8594,186.0469 Q734.7969,186.0469 735.4531,185.7969 Q735.8438,185.6406 736.2656,185.2031 Q736.5313,184.9375 736.6719,184.8594 Q736.8281,184.7813 737.0313,184.7813 Q737.3594,184.7813 737.6094,185.0469 Q737.875,185.2969 737.875,185.6406 Q737.875,185.9844 737.5313,186.3906 Q737.0313,186.9688 736.2344,187.2969 Q735.1563,187.75 733.8594,187.75 Q732.3438,187.75 731.1406,187.125 Q730.1563,186.625 729.4688,185.5625 Q728.7813,184.4844 728.7813,183.2031 L728.7813,182.0469 Q728.7813,180.7188 729.3906,179.5781 Q730.0156,178.4219 731.1094,177.8125 Q732.2031,177.1875 733.4375,177.1875 Q734.1719,177.1875 734.8125,177.3594 Q735.4688,177.5156 736.0156,177.875 Z "/><text fill="#000000" font-family="sans-serif" font-size="12" lengthAdjust="spacingAndGlyphs" textLength="73" x="753.75" y="186.9102">ConsoleView</text><line style="stroke: #A80036; stroke-width: 1.5;" x1="614" x2="934" y1="198" y2="198"/><rect fill="none" height="6" style="stroke: #C82930; stroke-width: 1.0;" width="6" x="621" y="206"/><text fill="#000000" font-family="sans-serif" font-size="11" lengthAdjust="spacingAndGlyphs" textLength="103" x="633" y="213.4189">startView: StartView</text><rect fill="none" height="6" style="stroke: #C82930; stroke-width: 1.0;" width="6" x="621" y="219.8359"/><text fill="#000000" font-family="sans-serif" font-size="11" lengthAdjust="spacingAndGlyphs" textLength="98" x="633" y="227.2549">playView: PlayView</text><rect fill="none" height="6" style="stroke: #C82930; stroke-width: 1.0;" width="6" x="621" y="233.6719"/><text fill="#000000" font-family="sans-serif" font-size="11" lengthAdjust="spacingAndGlyphs" textLength="115" x="633" y="241.0908">resultView: ResultView</text><line style="stroke: #A80036; stroke-width: 1.5;" x1="614" x2="934" y1="247.5078" y2="247.5078"/><ellipse cx="624" cy="258.5078" fill="#84BE84" rx="3" ry="3" style="stroke: #038048; stroke-width: 1.0;"/><text fill="#000000" font-family="sans-serif" font-size="11" lengthAdjust="spacingAndGlyphs" textLength="296" x="633" y="262.9268">ConsoleView(StartController, PlayController, ResultController)</text><polygon fill="#FFFF44" points="624,267.3438,628,271.3438,624,275.3438,620,271.3438" style="stroke: #B38D22; stroke-width: 1.0;"/><text fill="#000000" font-family="sans-serif" font-size="11" lengthAdjust="spacingAndGlyphs" textLength="56" x="633" y="276.7627">start(): void</text><polygon fill="#FFFF44" points="624,281.1797,628,285.1797,624,289.1797,620,285.1797" style="stroke: #B38D22; stroke-width: 1.0;"/><text fill="#000000" font-family="sans-serif" font-size="11" lengthAdjust="spacingAndGlyphs" textLength="72" x="633" y="290.5986">play(): boolean</text><polygon fill="#FFFF44" points="624,295.0156,628,299.0156,624,303.0156,620,299.0156" style="stroke: #B38D22; stroke-width: 1.0;"/><text fill="#000000" font-family="sans-serif" font-size="11" lengthAdjust="spacingAndGlyphs" textLength="61" x="633" y="304.4346">result(): void</text><!--MD5=[54aa299435631381f3c0c028f26a058f]
class tictactoe.views.console.StartView--><rect fill="#FEFECE" filter="url(#f18sjeccj2c8tz)" height="89.5078" id="tictactoe.views.console.StartView" style="stroke: #A80036; stroke-width: 1.5;" width="169" x="777.5" y="371"/><ellipse cx="832.25" cy="387" fill="#ADD1B2" rx="11" ry="11" style="stroke: #A80036; stroke-width: 1.0;"/><path d="M835.0156,382.875 Q835.1719,382.6563 835.3594,382.5469 Q835.5469,382.4375 835.7656,382.4375 Q836.1406,382.4375 836.375,382.7031 Q836.6094,382.9531 836.6094,383.5625 L836.6094,385.0156 Q836.6094,385.625 836.375,385.8906 Q836.1406,386.1563 835.7656,386.1563 Q835.4219,386.1563 835.2188,385.9531 Q835.0156,385.7656 834.9063,385.25 Q834.8594,384.8906 834.6719,384.7031 Q834.3438,384.3281 833.7344,384.1094 Q833.125,383.8906 832.5,383.8906 Q831.7344,383.8906 831.0938,384.2188 Q830.4688,384.5469 829.9688,385.2969 Q829.4844,386.0469 829.4844,387.0781 L829.4844,388.1719 Q829.4844,389.4063 830.375,390.2344 Q831.2656,391.0469 832.8594,391.0469 Q833.7969,391.0469 834.4531,390.7969 Q834.8438,390.6406 835.2656,390.2031 Q835.5313,389.9375 835.6719,389.8594 Q835.8281,389.7813 836.0313,389.7813 Q836.3594,389.7813 836.6094,390.0469 Q836.875,390.2969 836.875,390.6406 Q836.875,390.9844 836.5313,391.3906 Q836.0313,391.9688 835.2344,392.2969 Q834.1563,392.75 832.8594,392.75 Q831.3438,392.75 830.1406,392.125 Q829.1563,391.625 828.4688,390.5625 Q827.7813,389.4844 827.7813,388.2031 L827.7813,387.0469 Q827.7813,385.7188 828.3906,384.5781 Q829.0156,383.4219 830.1094,382.8125 Q831.2031,382.1875 832.4375,382.1875 Q833.1719,382.1875 833.8125,382.3594 Q834.4688,382.5156 835.0156,382.875 Z "/><text fill="#000000" font-family="sans-serif" font-size="12" lengthAdjust="spacingAndGlyphs" textLength="51" x="852.75" y="391.9102">StartView</text><line style="stroke: #A80036; stroke-width: 1.5;" x1="778.5" x2="945.5" y1="403" y2="403"/><polygon fill="none" points="788.5,410,784.5,416,792.5,416" style="stroke: #1963A0; stroke-width: 1.0;"/><text fill="#000000" font-family="sans-serif" font-size="11" lengthAdjust="spacingAndGlyphs" textLength="143" x="797.5" y="418.4189">startController: StartController</text><line style="stroke: #A80036; stroke-width: 1.5;" x1="778.5" x2="945.5" y1="424.8359" y2="424.8359"/><polygon fill="#4177AF" points="788.5,431.8359,784.5,437.8359,792.5,437.8359" style="stroke: #1963A0; stroke-width: 1.0;"/><text fill="#000000" font-family="sans-serif" font-size="11" lengthAdjust="spacingAndGlyphs" textLength="126" x="797.5" y="440.2549">StartView(StartController)</text><polygon fill="#4177AF" points="788.5,445.6719,784.5,451.6719,792.5,451.6719" style="stroke: #1963A0; stroke-width: 1.0;"/><text fill="#000000" font-family="sans-serif" font-size="11" lengthAdjust="spacingAndGlyphs" textLength="70" x="797.5" y="454.0908">interact(): void</text><!--MD5=[0158df0baddf48f83142f472e341eacc]
class tictactoe.views.console.PlayView--><rect fill="#FEFECE" filter="url(#f18sjeccj2c8tz)" height="89.5078" id="tictactoe.views.console.PlayView" style="stroke: #A80036; stroke-width: 1.5;" width="164" x="362" y="371"/><ellipse cx="415.25" cy="387" fill="#ADD1B2" rx="11" ry="11" style="stroke: #A80036; stroke-width: 1.0;"/><path d="M418.0156,382.875 Q418.1719,382.6563 418.3594,382.5469 Q418.5469,382.4375 418.7656,382.4375 Q419.1406,382.4375 419.375,382.7031 Q419.6094,382.9531 419.6094,383.5625 L419.6094,385.0156 Q419.6094,385.625 419.375,385.8906 Q419.1406,386.1563 418.7656,386.1563 Q418.4219,386.1563 418.2188,385.9531 Q418.0156,385.7656 417.9063,385.25 Q417.8594,384.8906 417.6719,384.7031 Q417.3438,384.3281 416.7344,384.1094 Q416.125,383.8906 415.5,383.8906 Q414.7344,383.8906 414.0938,384.2188 Q413.4688,384.5469 412.9688,385.2969 Q412.4844,386.0469 412.4844,387.0781 L412.4844,388.1719 Q412.4844,389.4063 413.375,390.2344 Q414.2656,391.0469 415.8594,391.0469 Q416.7969,391.0469 417.4531,390.7969 Q417.8438,390.6406 418.2656,390.2031 Q418.5313,389.9375 418.6719,389.8594 Q418.8281,389.7813 419.0313,389.7813 Q419.3594,389.7813 419.6094,390.0469 Q419.875,390.2969 419.875,390.6406 Q419.875,390.9844 419.5313,391.3906 Q419.0313,391.9688 418.2344,392.2969 Q417.1563,392.75 415.8594,392.75 Q414.3438,392.75 413.1406,392.125 Q412.1563,391.625 411.4688,390.5625 Q410.7813,389.4844 410.7813,388.2031 L410.7813,387.0469 Q410.7813,385.7188 411.3906,384.5781 Q412.0156,383.4219 413.1094,382.8125 Q414.2031,382.1875 415.4375,382.1875 Q416.1719,382.1875 416.8125,382.3594 Q417.4688,382.5156 418.0156,382.875 Z "/><text fill="#000000" font-family="sans-serif" font-size="12" lengthAdjust="spacingAndGlyphs" textLength="49" x="435.75" y="391.9102">PlayView</text><line style="stroke: #A80036; stroke-width: 1.5;" x1="363" x2="525" y1="403" y2="403"/><polygon fill="none" points="373,410,369,416,377,416" style="stroke: #1963A0; stroke-width: 1.0;"/><text fill="#000000" font-family="sans-serif" font-size="11" lengthAdjust="spacingAndGlyphs" textLength="138" x="382" y="418.4189">playController: PlayController</text><line style="stroke: #A80036; stroke-width: 1.5;" x1="363" x2="525" y1="424.8359" y2="424.8359"/><polygon fill="#4177AF" points="373,431.8359,369,437.8359,377,437.8359" style="stroke: #1963A0; stroke-width: 1.0;"/><text fill="#000000" font-family="sans-serif" font-size="11" lengthAdjust="spacingAndGlyphs" textLength="120" x="382" y="440.2549">PlayView(PlayController)</text><polygon fill="#4177AF" points="373,445.6719,369,451.6719,377,451.6719" style="stroke: #1963A0; stroke-width: 1.0;"/><text fill="#000000" font-family="sans-serif" font-size="11" lengthAdjust="spacingAndGlyphs" textLength="88" x="382" y="454.0908">interact(): boolean</text><!--MD5=[4ad8229f56e3458317cb6855b3145039]
class tictactoe.views.console.ResultView--><rect fill="#FEFECE" filter="url(#f18sjeccj2c8tz)" height="89.5078" id="tictactoe.views.console.ResultView" style="stroke: #A80036; stroke-width: 1.5;" width="181" x="561.5" y="371"/><ellipse cx="616.75" cy="387" fill="#ADD1B2" rx="11" ry="11" style="stroke: #A80036; stroke-width: 1.0;"/><path d="M619.5156,382.875 Q619.6719,382.6563 619.8594,382.5469 Q620.0469,382.4375 620.2656,382.4375 Q620.6406,382.4375 620.875,382.7031 Q621.1094,382.9531 621.1094,383.5625 L621.1094,385.0156 Q621.1094,385.625 620.875,385.8906 Q620.6406,386.1563 620.2656,386.1563 Q619.9219,386.1563 619.7188,385.9531 Q619.5156,385.7656 619.4063,385.25 Q619.3594,384.8906 619.1719,384.7031 Q618.8438,384.3281 618.2344,384.1094 Q617.625,383.8906 617,383.8906 Q616.2344,383.8906 615.5938,384.2188 Q614.9688,384.5469 614.4688,385.2969 Q613.9844,386.0469 613.9844,387.0781 L613.9844,388.1719 Q613.9844,389.4063 614.875,390.2344 Q615.7656,391.0469 617.3594,391.0469 Q618.2969,391.0469 618.9531,390.7969 Q619.3438,390.6406 619.7656,390.2031 Q620.0313,389.9375 620.1719,389.8594 Q620.3281,389.7813 620.5313,389.7813 Q620.8594,389.7813 621.1094,390.0469 Q621.375,390.2969 621.375,390.6406 Q621.375,390.9844 621.0313,391.3906 Q620.5313,391.9688 619.7344,392.2969 Q618.6563,392.75 617.3594,392.75 Q615.8438,392.75 614.6406,392.125 Q613.6563,391.625 612.9688,390.5625 Q612.2813,389.4844 612.2813,388.2031 L612.2813,387.0469 Q612.2813,385.7188 612.8906,384.5781 Q613.5156,383.4219 614.6094,382.8125 Q615.7031,382.1875 616.9375,382.1875 Q617.6719,382.1875 618.3125,382.3594 Q618.9688,382.5156 619.5156,382.875 Z "/><text fill="#000000" font-family="sans-serif" font-size="12" lengthAdjust="spacingAndGlyphs" textLength="62" x="637.25" y="391.9102">ResultView</text><line style="stroke: #A80036; stroke-width: 1.5;" x1="562.5" x2="741.5" y1="403" y2="403"/><polygon fill="none" points="572.5,410,568.5,416,576.5,416" style="stroke: #1963A0; stroke-width: 1.0;"/><text fill="#000000" font-family="sans-serif" font-size="11" lengthAdjust="spacingAndGlyphs" textLength="155" x="581.5" y="418.4189">resultController: ResultController</text><line style="stroke: #A80036; stroke-width: 1.5;" x1="562.5" x2="741.5" y1="424.8359" y2="424.8359"/><polygon fill="#4177AF" points="572.5,431.8359,568.5,437.8359,576.5,437.8359" style="stroke: #1963A0; stroke-width: 1.0;"/><text fill="#000000" font-family="sans-serif" font-size="11" lengthAdjust="spacingAndGlyphs" textLength="140" x="581.5" y="440.2549">ResultView(ResultController)</text><polygon fill="#4177AF" points="572.5,445.6719,568.5,451.6719,576.5,451.6719" style="stroke: #1963A0; stroke-width: 1.0;"/><text fill="#000000" font-family="sans-serif" font-size="11" lengthAdjust="spacingAndGlyphs" textLength="70" x="581.5" y="454.0908">interact(): void</text><!--MD5=[8830b246a550294711e6eb5af1606829]
class tictactoe.views.console.CoordinateView--><rect fill="#FEFECE" filter="url(#f18sjeccj2c8tz)" height="89.5078" id="tictactoe.views.console.CoordinateView" style="stroke: #A80036; stroke-width: 1.5;" width="178" x="982" y="371"/><ellipse cx="1023.55" cy="387" fill="#ADD1B2" rx="11" ry="11" style="stroke: #A80036; stroke-width: 1.0;"/><path d="M1026.3156,382.875 Q1026.4719,382.6563 1026.6594,382.5469 Q1026.8469,382.4375 1027.0656,382.4375 Q1027.4406,382.4375 1027.675,382.7031 Q1027.9094,382.9531 1027.9094,383.5625 L1027.9094,385.0156 Q1027.9094,385.625 1027.675,385.8906 Q1027.4406,386.1563 1027.0656,386.1563 Q1026.7219,386.1563 1026.5188,385.9531 Q1026.3156,385.7656 1026.2063,385.25 Q1026.1594,384.8906 1025.9719,384.7031 Q1025.6438,384.3281 1025.0344,384.1094 Q1024.425,383.8906 1023.8,383.8906 Q1023.0344,383.8906 1022.3938,384.2188 Q1021.7688,384.5469 1021.2688,385.2969 Q1020.7844,386.0469 1020.7844,387.0781 L1020.7844,388.1719 Q1020.7844,389.4063 1021.675,390.2344 Q1022.5656,391.0469 1024.1594,391.0469 Q1025.0969,391.0469 1025.7531,390.7969 Q1026.1438,390.6406 1026.5656,390.2031 Q1026.8313,389.9375 1026.9719,389.8594 Q1027.1281,389.7813 1027.3313,389.7813 Q1027.6594,389.7813 1027.9094,390.0469 Q1028.175,390.2969 1028.175,390.6406 Q1028.175,390.9844 1027.8313,391.3906 Q1027.3313,391.9688 1026.5344,392.2969 Q1025.4563,392.75 1024.1594,392.75 Q1022.6438,392.75 1021.4406,392.125 Q1020.4563,391.625 1019.7688,390.5625 Q1019.0813,389.4844 1019.0813,388.2031 L1019.0813,387.0469 Q1019.0813,385.7188 1019.6906,384.5781 Q1020.3156,383.4219 1021.4094,382.8125 Q1022.5031,382.1875 1023.7375,382.1875 Q1024.4719,382.1875 1025.1125,382.3594 Q1025.7688,382.5156 1026.3156,382.875 Z "/><text fill="#000000" font-family="sans-serif" font-size="12" lengthAdjust="spacingAndGlyphs" textLength="87" x="1043.45" y="391.9102">CoordinateView</text><line style="stroke: #A80036; stroke-width: 1.5;" x1="983" x2="1159" y1="403" y2="403"/><polygon fill="none" points="993,410,989,416,997,416" style="stroke: #1963A0; stroke-width: 1.0;"/><text fill="#000000" font-family="sans-serif" font-size="11" lengthAdjust="spacingAndGlyphs" textLength="138" x="1002" y="418.4189">playController: PlayController</text><line style="stroke: #A80036; stroke-width: 1.5;" x1="983" x2="1159" y1="424.8359" y2="424.8359"/><polygon fill="#4177AF" points="993,431.8359,989,437.8359,997,437.8359" style="stroke: #1963A0; stroke-width: 1.0;"/><text fill="#000000" font-family="sans-serif" font-size="11" lengthAdjust="spacingAndGlyphs" textLength="152" x="1002" y="440.2549">CoordinateView(PlayController)</text><polygon fill="#4177AF" points="993,445.6719,989,451.6719,997,451.6719" style="stroke: #1963A0; stroke-width: 1.0;"/><text fill="#000000" font-family="sans-serif" font-size="11" lengthAdjust="spacingAndGlyphs" textLength="116" x="1002" y="454.0908">read(String): Coordinate</text><!--MD5=[1ca4e66fd27a79cb5d7093d90b3139a4]
class tictactoe.views.console.ErrorView--><rect fill="#FEFECE" filter="url(#f18sjeccj2c8tz)" height="75.6719" id="tictactoe.views.console.ErrorView" style="stroke: #A80036; stroke-width: 1.5;" width="108" x="1195" y="378"/><ellipse cx="1220.35" cy="394" fill="#ADD1B2" rx="11" ry="11" style="stroke: #A80036; stroke-width: 1.0;"/><path d="M1223.1156,389.875 Q1223.2719,389.6563 1223.4594,389.5469 Q1223.6469,389.4375 1223.8656,389.4375 Q1224.2406,389.4375 1224.475,389.7031 Q1224.7094,389.9531 1224.7094,390.5625 L1224.7094,392.0156 Q1224.7094,392.625 1224.475,392.8906 Q1224.2406,393.1563 1223.8656,393.1563 Q1223.5219,393.1563 1223.3188,392.9531 Q1223.1156,392.7656 1223.0063,392.25 Q1222.9594,391.8906 1222.7719,391.7031 Q1222.4438,391.3281 1221.8344,391.1094 Q1221.225,390.8906 1220.6,390.8906 Q1219.8344,390.8906 1219.1938,391.2188 Q1218.5688,391.5469 1218.0688,392.2969 Q1217.5844,393.0469 1217.5844,394.0781 L1217.5844,395.1719 Q1217.5844,396.4063 1218.475,397.2344 Q1219.3656,398.0469 1220.9594,398.0469 Q1221.8969,398.0469 1222.5531,397.7969 Q1222.9438,397.6406 1223.3656,397.2031 Q1223.6313,396.9375 1223.7719,396.8594 Q1223.9281,396.7813 1224.1313,396.7813 Q1224.4594,396.7813 1224.7094,397.0469 Q1224.975,397.2969 1224.975,397.6406 Q1224.975,397.9844 1224.6313,398.3906 Q1224.1313,398.9688 1223.3344,399.2969 Q1222.2563,399.75 1220.9594,399.75 Q1219.4438,399.75 1218.2406,399.125 Q1217.2563,398.625 1216.5688,397.5625 Q1215.8813,396.4844 1215.8813,395.2031 L1215.8813,394.0469 Q1215.8813,392.7188 1216.4906,391.5781 Q1217.1156,390.4219 1218.2094,389.8125 Q1219.3031,389.1875 1220.5375,389.1875 Q1221.2719,389.1875 1221.9125,389.3594 Q1222.5688,389.5156 1223.1156,389.875 Z "/><text fill="#000000" font-family="sans-serif" font-size="12" lengthAdjust="spacingAndGlyphs" textLength="53" x="1236.65" y="398.9102">ErrorView</text><line style="stroke: #A80036; stroke-width: 1.5;" x1="1196" x2="1302" y1="410" y2="410"/><line style="stroke: #A80036; stroke-width: 1.5;" x1="1196" x2="1302" y1="418" y2="418"/><polygon fill="#4177AF" points="1206,425,1202,431,1210,431" style="stroke: #1963A0; stroke-width: 1.0;"/><text fill="#000000" font-family="sans-serif" font-size="11" lengthAdjust="spacingAndGlyphs" textLength="82" x="1215" y="433.4189">ErrorView(Error)</text><polygon fill="#4177AF" points="1206,438.8359,1202,444.8359,1210,444.8359" style="stroke: #1963A0; stroke-width: 1.0;"/><text fill="#000000" font-family="sans-serif" font-size="11" lengthAdjust="spacingAndGlyphs" textLength="67" x="1215" y="447.2549">writeln(): void</text><!--MD5=[4afe6aabb27d783e4a9a9dcc50c35fae]
class tictactoe.views.console.MachinePlayerView--><rect fill="#FEFECE" filter="url(#f18sjeccj2c8tz)" height="89.5078" id="tictactoe.views.console.MachinePlayerView" style="stroke: #A80036; stroke-width: 1.5;" width="216" x="362" y="193.5"/><ellipse cx="412.75" cy="209.5" fill="#ADD1B2" rx="11" ry="11" style="stroke: #A80036; stroke-width: 1.0;"/><path d="M415.5156,205.375 Q415.6719,205.1563 415.8594,205.0469 Q416.0469,204.9375 416.2656,204.9375 Q416.6406,204.9375 416.875,205.2031 Q417.1094,205.4531 417.1094,206.0625 L417.1094,207.5156 Q417.1094,208.125 416.875,208.3906 Q416.6406,208.6563 416.2656,208.6563 Q415.9219,208.6563 415.7188,208.4531 Q415.5156,208.2656 415.4063,207.75 Q415.3594,207.3906 415.1719,207.2031 Q414.8438,206.8281 414.2344,206.6094 Q413.625,206.3906 413,206.3906 Q412.2344,206.3906 411.5938,206.7188 Q410.9688,207.0469 410.4688,207.7969 Q409.9844,208.5469 409.9844,209.5781 L409.9844,210.6719 Q409.9844,211.9063 410.875,212.7344 Q411.7656,213.5469 413.3594,213.5469 Q414.2969,213.5469 414.9531,213.2969 Q415.3438,213.1406 415.7656,212.7031 Q416.0313,212.4375 416.1719,212.3594 Q416.3281,212.2813 416.5313,212.2813 Q416.8594,212.2813 417.1094,212.5469 Q417.375,212.7969 417.375,213.1406 Q417.375,213.4844 417.0313,213.8906 Q416.5313,214.4688 415.7344,214.7969 Q414.6563,215.25 413.3594,215.25 Q411.8438,215.25 410.6406,214.625 Q409.6563,214.125 408.9688,213.0625 Q408.2813,211.9844 408.2813,210.7031 L408.2813,209.5469 Q408.2813,208.2188 408.8906,207.0781 Q409.5156,205.9219 410.6094,205.3125 Q411.7031,204.6875 412.9375,204.6875 Q413.6719,204.6875 414.3125,204.8594 Q414.9688,205.0156 415.5156,205.375 Z "/><text fill="#000000" font-family="sans-serif" font-size="12" lengthAdjust="spacingAndGlyphs" textLength="106" x="433.25" y="214.4102">MachinePlayerView</text><line style="stroke: #A80036; stroke-width: 1.5;" x1="363" x2="577" y1="225.5" y2="225.5"/><line style="stroke: #A80036; stroke-width: 1.5;" x1="363" x2="577" y1="233.5" y2="233.5"/><polygon fill="#4177AF" points="373,240.5,369,246.5,377,246.5" style="stroke: #1963A0; stroke-width: 1.0;"/><text fill="#000000" font-family="sans-serif" font-size="11" lengthAdjust="spacingAndGlyphs" textLength="170" x="382" y="248.9189">MachinePlayerView(PlayController)</text><polygon fill="#4177AF" points="373,254.3359,369,260.3359,377,260.3359" style="stroke: #1963A0; stroke-width: 1.0;"/><text fill="#000000" font-family="sans-serif" font-size="11" lengthAdjust="spacingAndGlyphs" textLength="167" x="382" y="262.7549">readCoordinateToPut(): Coordinate</text><polygon fill="#4177AF" points="373,268.1719,369,274.1719,377,274.1719" style="stroke: #1963A0; stroke-width: 1.0;"/><text fill="#000000" font-family="sans-serif" font-size="11" lengthAdjust="spacingAndGlyphs" textLength="190" x="382" y="276.5908">readCoordinatesToMove(): Coordinate[]</text><!--MD5=[d4f4ae14a368e3fcfff527b6459d05f0]
class tictactoe.views.console.UserPlayerView--><rect fill="#FEFECE" filter="url(#f18sjeccj2c8tz)" height="117.1797" id="tictactoe.views.console.UserPlayerView" style="stroke: #A80036; stroke-width: 1.5;" width="233" x="970.5" y="180"/><ellipse cx="1039.25" cy="196" fill="#ADD1B2" rx="11" ry="11" style="stroke: #A80036; stroke-width: 1.0;"/><path d="M1042.0156,191.875 Q1042.1719,191.6563 1042.3594,191.5469 Q1042.5469,191.4375 1042.7656,191.4375 Q1043.1406,191.4375 1043.375,191.7031 Q1043.6094,191.9531 1043.6094,192.5625 L1043.6094,194.0156 Q1043.6094,194.625 1043.375,194.8906 Q1043.1406,195.1563 1042.7656,195.1563 Q1042.4219,195.1563 1042.2188,194.9531 Q1042.0156,194.7656 1041.9063,194.25 Q1041.8594,193.8906 1041.6719,193.7031 Q1041.3438,193.3281 1040.7344,193.1094 Q1040.125,192.8906 1039.5,192.8906 Q1038.7344,192.8906 1038.0938,193.2188 Q1037.4688,193.5469 1036.9688,194.2969 Q1036.4844,195.0469 1036.4844,196.0781 L1036.4844,197.1719 Q1036.4844,198.4063 1037.375,199.2344 Q1038.2656,200.0469 1039.8594,200.0469 Q1040.7969,200.0469 1041.4531,199.7969 Q1041.8438,199.6406 1042.2656,199.2031 Q1042.5313,198.9375 1042.6719,198.8594 Q1042.8281,198.7813 1043.0313,198.7813 Q1043.3594,198.7813 1043.6094,199.0469 Q1043.875,199.2969 1043.875,199.6406 Q1043.875,199.9844 1043.5313,200.3906 Q1043.0313,200.9688 1042.2344,201.2969 Q1041.1563,201.75 1039.8594,201.75 Q1038.3438,201.75 1037.1406,201.125 Q1036.1563,200.625 1035.4688,199.5625 Q1034.7813,198.4844 1034.7813,197.2031 L1034.7813,196.0469 Q1034.7813,194.7188 1035.3906,193.5781 Q1036.0156,192.4219 1037.1094,191.8125 Q1038.2031,191.1875 1039.4375,191.1875 Q1040.1719,191.1875 1040.8125,191.3594 Q1041.4688,191.5156 1042.0156,191.875 Z "/><text fill="#000000" font-family="sans-serif" font-size="12" lengthAdjust="spacingAndGlyphs" textLength="87" x="1059.75" y="200.9102">UserPlayerView</text><line style="stroke: #A80036; stroke-width: 1.5;" x1="971.5" x2="1202.5" y1="212" y2="212"/><polygon fill="none" points="981.5,219,977.5,225,985.5,225" style="stroke: #1963A0; stroke-width: 1.0;"/><text fill="#000000" font-family="sans-serif" font-size="11" lengthAdjust="spacingAndGlyphs" text-decoration="underline" textLength="183" x="990.5" y="227.4189">ENTER_COORDINATE_TO_PUT: String</text><polygon fill="none" points="981.5,232.8359,977.5,238.8359,985.5,238.8359" style="stroke: #1963A0; stroke-width: 1.0;"/><text fill="#000000" font-family="sans-serif" font-size="11" lengthAdjust="spacingAndGlyphs" text-decoration="underline" textLength="207" x="990.5" y="241.2549">ENTER_COORDINATE_TO_REMOVE: String</text><line style="stroke: #A80036; stroke-width: 1.5;" x1="971.5" x2="1202.5" y1="247.6719" y2="247.6719"/><polygon fill="#4177AF" points="981.5,254.6719,977.5,260.6719,985.5,260.6719" style="stroke: #1963A0; stroke-width: 1.0;"/><text fill="#000000" font-family="sans-serif" font-size="11" lengthAdjust="spacingAndGlyphs" textLength="153" x="990.5" y="263.0908">UserPlayerView(PlayController)</text><polygon fill="#4177AF" points="981.5,268.5078,977.5,274.5078,985.5,274.5078" style="stroke: #1963A0; stroke-width: 1.0;"/><text fill="#000000" font-family="sans-serif" font-size="11" lengthAdjust="spacingAndGlyphs" textLength="167" x="990.5" y="276.9268">readCoordinateToPut(): Coordinate</text><polygon fill="#4177AF" points="981.5,282.3438,977.5,288.3438,985.5,288.3438" style="stroke: #1963A0; stroke-width: 1.0;"/><text fill="#000000" font-family="sans-serif" font-size="11" lengthAdjust="spacingAndGlyphs" textLength="190" x="990.5" y="290.7627">readCoordinatesToMove(): Coordinate[]</text><!--MD5=[2dcb8e10b6e8b78f41f52f48677e1ea3]
class utils.WithConsoleView--><rect fill="#FEFECE" filter="url(#f18sjeccj2c8tz)" height="48" id="utils.WithConsoleView" style="stroke: #A80036; stroke-width: 1.5;" width="129" x="32.5" y="392"/><ellipse cx="47.5" cy="408" fill="#ADD1B2" rx="11" ry="11" style="stroke: #A80036; stroke-width: 1.0;"/><path d="M50.2656,403.875 Q50.4219,403.6563 50.6094,403.5469 Q50.7969,403.4375 51.0156,403.4375 Q51.3906,403.4375 51.625,403.7031 Q51.8594,403.9531 51.8594,404.5625 L51.8594,406.0156 Q51.8594,406.625 51.625,406.8906 Q51.3906,407.1563 51.0156,407.1563 Q50.6719,407.1563 50.4688,406.9531 Q50.2656,406.7656 50.1563,406.25 Q50.1094,405.8906 49.9219,405.7031 Q49.5938,405.3281 48.9844,405.1094 Q48.375,404.8906 47.75,404.8906 Q46.9844,404.8906 46.3438,405.2188 Q45.7188,405.5469 45.2188,406.2969 Q44.7344,407.0469 44.7344,408.0781 L44.7344,409.1719 Q44.7344,410.4063 45.625,411.2344 Q46.5156,412.0469 48.1094,412.0469 Q49.0469,412.0469 49.7031,411.7969 Q50.0938,411.6406 50.5156,411.2031 Q50.7813,410.9375 50.9219,410.8594 Q51.0781,410.7813 51.2813,410.7813 Q51.6094,410.7813 51.8594,411.0469 Q52.125,411.2969 52.125,411.6406 Q52.125,411.9844 51.7813,412.3906 Q51.2813,412.9688 50.4844,413.2969 Q49.4063,413.75 48.1094,413.75 Q46.5938,413.75 45.3906,413.125 Q44.4063,412.625 43.7188,411.5625 Q43.0313,410.4844 43.0313,409.2031 L43.0313,408.0469 Q43.0313,406.7188 43.6406,405.5781 Q44.2656,404.4219 45.3594,403.8125 Q46.4531,403.1875 47.6875,403.1875 Q48.4219,403.1875 49.0625,403.3594 Q49.7188,403.5156 50.2656,403.875 Z "/><text fill="#000000" font-family="sans-serif" font-size="12" lengthAdjust="spacingAndGlyphs" textLength="97" x="61.5" y="412.9102">WithConsoleView</text><line style="stroke: #A80036; stroke-width: 1.5;" x1="33.5" x2="160.5" y1="424" y2="424"/><line style="stroke: #A80036; stroke-width: 1.5;" x1="33.5" x2="160.5" y1="432" y2="432"/><!--MD5=[55e41f1e5a8b39b15e1066bc4af42afb]
class utils.PlayersDialog--><rect fill="#FEFECE" filter="url(#f18sjeccj2c8tz)" height="48" id="utils.PlayersDialog" style="stroke: #A80036; stroke-width: 1.5;" width="109" x="196.5" y="392"/><ellipse cx="211.5" cy="408" fill="#ADD1B2" rx="11" ry="11" style="stroke: #A80036; stroke-width: 1.0;"/><path d="M214.2656,403.875 Q214.4219,403.6563 214.6094,403.5469 Q214.7969,403.4375 215.0156,403.4375 Q215.3906,403.4375 215.625,403.7031 Q215.8594,403.9531 215.8594,404.5625 L215.8594,406.0156 Q215.8594,406.625 215.625,406.8906 Q215.3906,407.1563 215.0156,407.1563 Q214.6719,407.1563 214.4688,406.9531 Q214.2656,406.7656 214.1563,406.25 Q214.1094,405.8906 213.9219,405.7031 Q213.5938,405.3281 212.9844,405.1094 Q212.375,404.8906 211.75,404.8906 Q210.9844,404.8906 210.3438,405.2188 Q209.7188,405.5469 209.2188,406.2969 Q208.7344,407.0469 208.7344,408.0781 L208.7344,409.1719 Q208.7344,410.4063 209.625,411.2344 Q210.5156,412.0469 212.1094,412.0469 Q213.0469,412.0469 213.7031,411.7969 Q214.0938,411.6406 214.5156,411.2031 Q214.7813,410.9375 214.9219,410.8594 Q215.0781,410.7813 215.2813,410.7813 Q215.6094,410.7813 215.8594,411.0469 Q216.125,411.2969 216.125,411.6406 Q216.125,411.9844 215.7813,412.3906 Q215.2813,412.9688 214.4844,413.2969 Q213.4063,413.75 212.1094,413.75 Q210.5938,413.75 209.3906,413.125 Q208.4063,412.625 207.7188,411.5625 Q207.0313,410.4844 207.0313,409.2031 L207.0313,408.0469 Q207.0313,406.7188 207.6406,405.5781 Q208.2656,404.4219 209.3594,403.8125 Q210.4531,403.1875 211.6875,403.1875 Q212.4219,403.1875 213.0625,403.3594 Q213.7188,403.5156 214.2656,403.875 Z "/><text fill="#000000" font-family="sans-serif" font-size="12" lengthAdjust="spacingAndGlyphs" textLength="77" x="225.5" y="412.9102">PlayersDialog</text><line style="stroke: #A80036; stroke-width: 1.5;" x1="197.5" x2="304.5" y1="424" y2="424"/><line style="stroke: #A80036; stroke-width: 1.5;" x1="197.5" x2="304.5" y1="432" y2="432"/><!--MD5=[b574e60c06c50037ff1b014277a67d62]
class tictactoe.controllers.PlayController--><rect fill="#FEFECE" filter="url(#f18sjeccj2c8tz)" height="48" id="tictactoe.controllers.PlayController" style="stroke: #A80036; stroke-width: 1.5;" width="109" x="506.5" y="714"/><ellipse cx="521.5" cy="730" fill="#ADD1B2" rx="11" ry="11" style="stroke: #A80036; stroke-width: 1.0;"/><path d="M524.2656,725.875 Q524.4219,725.6563 524.6094,725.5469 Q524.7969,725.4375 525.0156,725.4375 Q525.3906,725.4375 525.625,725.7031 Q525.8594,725.9531 525.8594,726.5625 L525.8594,728.0156 Q525.8594,728.625 525.625,728.8906 Q525.3906,729.1563 525.0156,729.1563 Q524.6719,729.1563 524.4688,728.9531 Q524.2656,728.7656 524.1563,728.25 Q524.1094,727.8906 523.9219,727.7031 Q523.5938,727.3281 522.9844,727.1094 Q522.375,726.8906 521.75,726.8906 Q520.9844,726.8906 520.3438,727.2188 Q519.7188,727.5469 519.2188,728.2969 Q518.7344,729.0469 518.7344,730.0781 L518.7344,731.1719 Q518.7344,732.4063 519.625,733.2344 Q520.5156,734.0469 522.1094,734.0469 Q523.0469,734.0469 523.7031,733.7969 Q524.0938,733.6406 524.5156,733.2031 Q524.7813,732.9375 524.9219,732.8594 Q525.0781,732.7813 525.2813,732.7813 Q525.6094,732.7813 525.8594,733.0469 Q526.125,733.2969 526.125,733.6406 Q526.125,733.9844 525.7813,734.3906 Q525.2813,734.9688 524.4844,735.2969 Q523.4063,735.75 522.1094,735.75 Q520.5938,735.75 519.3906,735.125 Q518.4063,734.625 517.7188,733.5625 Q517.0313,732.4844 517.0313,731.2031 L517.0313,730.0469 Q517.0313,728.7188 517.6406,727.5781 Q518.2656,726.4219 519.3594,725.8125 Q520.4531,725.1875 521.6875,725.1875 Q522.4219,725.1875 523.0625,725.3594 Q523.7188,725.5156 524.2656,725.875 Z "/><text fill="#000000" font-family="sans-serif" font-size="12" lengthAdjust="spacingAndGlyphs" textLength="77" x="535.5" y="734.9102">PlayController</text><line style="stroke: #A80036; stroke-width: 1.5;" x1="507.5" x2="614.5" y1="746" y2="746"/><line style="stroke: #A80036; stroke-width: 1.5;" x1="507.5" x2="614.5" y1="754" y2="754"/><!--MD5=[2c3ef77d19c2424f55dfd6db4f13e20e]
class tictactoe.controllers.ResultController--><rect fill="#FEFECE" filter="url(#f18sjeccj2c8tz)" height="48" id="tictactoe.controllers.ResultController" style="stroke: #A80036; stroke-width: 1.5;" width="122" x="651" y="714"/><ellipse cx="666" cy="730" fill="#ADD1B2" rx="11" ry="11" style="stroke: #A80036; stroke-width: 1.0;"/><path d="M668.7656,725.875 Q668.9219,725.6563 669.1094,725.5469 Q669.2969,725.4375 669.5156,725.4375 Q669.8906,725.4375 670.125,725.7031 Q670.3594,725.9531 670.3594,726.5625 L670.3594,728.0156 Q670.3594,728.625 670.125,728.8906 Q669.8906,729.1563 669.5156,729.1563 Q669.1719,729.1563 668.9688,728.9531 Q668.7656,728.7656 668.6563,728.25 Q668.6094,727.8906 668.4219,727.7031 Q668.0938,727.3281 667.4844,727.1094 Q666.875,726.8906 666.25,726.8906 Q665.4844,726.8906 664.8438,727.2188 Q664.2188,727.5469 663.7188,728.2969 Q663.2344,729.0469 663.2344,730.0781 L663.2344,731.1719 Q663.2344,732.4063 664.125,733.2344 Q665.0156,734.0469 666.6094,734.0469 Q667.5469,734.0469 668.2031,733.7969 Q668.5938,733.6406 669.0156,733.2031 Q669.2813,732.9375 669.4219,732.8594 Q669.5781,732.7813 669.7813,732.7813 Q670.1094,732.7813 670.3594,733.0469 Q670.625,733.2969 670.625,733.6406 Q670.625,733.9844 670.2813,734.3906 Q669.7813,734.9688 668.9844,735.2969 Q667.9063,735.75 666.6094,735.75 Q665.0938,735.75 663.8906,735.125 Q662.9063,734.625 662.2188,733.5625 Q661.5313,732.4844 661.5313,731.2031 L661.5313,730.0469 Q661.5313,728.7188 662.1406,727.5781 Q662.7656,726.4219 663.8594,725.8125 Q664.9531,725.1875 666.1875,725.1875 Q666.9219,725.1875 667.5625,725.3594 Q668.2188,725.5156 668.7656,725.875 Z "/><text fill="#000000" font-family="sans-serif" font-size="12" lengthAdjust="spacingAndGlyphs" textLength="90" x="680" y="734.9102">ResultController</text><line style="stroke: #A80036; stroke-width: 1.5;" x1="652" x2="772" y1="746" y2="746"/><line style="stroke: #A80036; stroke-width: 1.5;" x1="652" x2="772" y1="754" y2="754"/><!--MD5=[8ede4dbfb3b498095887802b64b699f0]
class tictactoe.controllers.StartController--><rect fill="#FEFECE" filter="url(#f18sjeccj2c8tz)" height="48" id="tictactoe.controllers.StartController" style="stroke: #A80036; stroke-width: 1.5;" width="111" x="808.5" y="714"/><ellipse cx="823.5" cy="730" fill="#ADD1B2" rx="11" ry="11" style="stroke: #A80036; stroke-width: 1.0;"/><path d="M826.2656,725.875 Q826.4219,725.6563 826.6094,725.5469 Q826.7969,725.4375 827.0156,725.4375 Q827.3906,725.4375 827.625,725.7031 Q827.8594,725.9531 827.8594,726.5625 L827.8594,728.0156 Q827.8594,728.625 827.625,728.8906 Q827.3906,729.1563 827.0156,729.1563 Q826.6719,729.1563 826.4688,728.9531 Q826.2656,728.7656 826.1563,728.25 Q826.1094,727.8906 825.9219,727.7031 Q825.5938,727.3281 824.9844,727.1094 Q824.375,726.8906 823.75,726.8906 Q822.9844,726.8906 822.3438,727.2188 Q821.7188,727.5469 821.2188,728.2969 Q820.7344,729.0469 820.7344,730.0781 L820.7344,731.1719 Q820.7344,732.4063 821.625,733.2344 Q822.5156,734.0469 824.1094,734.0469 Q825.0469,734.0469 825.7031,733.7969 Q826.0938,733.6406 826.5156,733.2031 Q826.7813,732.9375 826.9219,732.8594 Q827.0781,732.7813 827.2813,732.7813 Q827.6094,732.7813 827.8594,733.0469 Q828.125,733.2969 828.125,733.6406 Q828.125,733.9844 827.7813,734.3906 Q827.2813,734.9688 826.4844,735.2969 Q825.4063,735.75 824.1094,735.75 Q822.5938,735.75 821.3906,735.125 Q820.4063,734.625 819.7188,733.5625 Q819.0313,732.4844 819.0313,731.2031 L819.0313,730.0469 Q819.0313,728.7188 819.6406,727.5781 Q820.2656,726.4219 821.3594,725.8125 Q822.4531,725.1875 823.6875,725.1875 Q824.4219,725.1875 825.0625,725.3594 Q825.7188,725.5156 826.2656,725.875 Z "/><text fill="#000000" font-family="sans-serif" font-size="12" lengthAdjust="spacingAndGlyphs" textLength="79" x="837.5" y="734.9102">StartController</text><line style="stroke: #A80036; stroke-width: 1.5;" x1="809.5" x2="918.5" y1="746" y2="746"/><line style="stroke: #A80036; stroke-width: 1.5;" x1="809.5" x2="918.5" y1="754" y2="754"/><!--MD5=[015754420c4cdd9bacda884b3fa8c6ca]
class tictactoe.views.View--><rect fill="#FEFECE" filter="url(#f18sjeccj2c8tz)" height="48" id="tictactoe.views.View" style="stroke: #A80036; stroke-width: 1.5;" width="58" x="745" y="42"/><ellipse cx="760" cy="58" fill="#ADD1B2" rx="11" ry="11" style="stroke: #A80036; stroke-width: 1.0;"/><path d="M762.7656,53.875 Q762.9219,53.6563 763.1094,53.5469 Q763.2969,53.4375 763.5156,53.4375 Q763.8906,53.4375 764.125,53.7031 Q764.3594,53.9531 764.3594,54.5625 L764.3594,56.0156 Q764.3594,56.625 764.125,56.8906 Q763.8906,57.1563 763.5156,57.1563 Q763.1719,57.1563 762.9688,56.9531 Q762.7656,56.7656 762.6563,56.25 Q762.6094,55.8906 762.4219,55.7031 Q762.0938,55.3281 761.4844,55.1094 Q760.875,54.8906 760.25,54.8906 Q759.4844,54.8906 758.8438,55.2188 Q758.2188,55.5469 757.7188,56.2969 Q757.2344,57.0469 757.2344,58.0781 L757.2344,59.1719 Q757.2344,60.4063 758.125,61.2344 Q759.0156,62.0469 760.6094,62.0469 Q761.5469,62.0469 762.2031,61.7969 Q762.5938,61.6406 763.0156,61.2031 Q763.2813,60.9375 763.4219,60.8594 Q763.5781,60.7813 763.7813,60.7813 Q764.1094,60.7813 764.3594,61.0469 Q764.625,61.2969 764.625,61.6406 Q764.625,61.9844 764.2813,62.3906 Q763.7813,62.9688 762.9844,63.2969 Q761.9063,63.75 760.6094,63.75 Q759.0938,63.75 757.8906,63.125 Q756.9063,62.625 756.2188,61.5625 Q755.5313,60.4844 755.5313,59.2031 L755.5313,58.0469 Q755.5313,56.7188 756.1406,55.5781 Q756.7656,54.4219 757.8594,53.8125 Q758.9531,53.1875 760.1875,53.1875 Q760.9219,53.1875 761.5625,53.3594 Q762.2188,53.5156 762.7656,53.875 Z "/><text fill="#000000" font-family="sans-serif" font-size="12" lengthAdjust="spacingAndGlyphs" textLength="26" x="774" y="62.9102">View</text><line style="stroke: #A80036; stroke-width: 1.5;" x1="746" x2="802" y1="74" y2="74"/><line style="stroke: #A80036; stroke-width: 1.5;" x1="746" x2="802" y1="82" y2="82"/><!--MD5=[17799e03bfee0ccb3aa03b93da9c26d6]
class tictactoe.views.ErrorView--><rect fill="#FEFECE" filter="url(#f18sjeccj2c8tz)" height="48" id="tictactoe.views.ErrorView" style="stroke: #A80036; stroke-width: 1.5;" width="85" x="838.5" y="42"/><ellipse cx="853.5" cy="58" fill="#ADD1B2" rx="11" ry="11" style="stroke: #A80036; stroke-width: 1.0;"/><path d="M856.2656,53.875 Q856.4219,53.6563 856.6094,53.5469 Q856.7969,53.4375 857.0156,53.4375 Q857.3906,53.4375 857.625,53.7031 Q857.8594,53.9531 857.8594,54.5625 L857.8594,56.0156 Q857.8594,56.625 857.625,56.8906 Q857.3906,57.1563 857.0156,57.1563 Q856.6719,57.1563 856.4688,56.9531 Q856.2656,56.7656 856.1563,56.25 Q856.1094,55.8906 855.9219,55.7031 Q855.5938,55.3281 854.9844,55.1094 Q854.375,54.8906 853.75,54.8906 Q852.9844,54.8906 852.3438,55.2188 Q851.7188,55.5469 851.2188,56.2969 Q850.7344,57.0469 850.7344,58.0781 L850.7344,59.1719 Q850.7344,60.4063 851.625,61.2344 Q852.5156,62.0469 854.1094,62.0469 Q855.0469,62.0469 855.7031,61.7969 Q856.0938,61.6406 856.5156,61.2031 Q856.7813,60.9375 856.9219,60.8594 Q857.0781,60.7813 857.2813,60.7813 Q857.6094,60.7813 857.8594,61.0469 Q858.125,61.2969 858.125,61.6406 Q858.125,61.9844 857.7813,62.3906 Q857.2813,62.9688 856.4844,63.2969 Q855.4063,63.75 854.1094,63.75 Q852.5938,63.75 851.3906,63.125 Q850.4063,62.625 849.7188,61.5625 Q849.0313,60.4844 849.0313,59.2031 L849.0313,58.0469 Q849.0313,56.7188 849.6406,55.5781 Q850.2656,54.4219 851.3594,53.8125 Q852.4531,53.1875 853.6875,53.1875 Q854.4219,53.1875 855.0625,53.3594 Q855.7188,53.5156 856.2656,53.875 Z "/><text fill="#000000" font-family="sans-serif" font-size="12" lengthAdjust="spacingAndGlyphs" textLength="53" x="867.5" y="62.9102">ErrorView</text><line style="stroke: #A80036; stroke-width: 1.5;" x1="839.5" x2="922.5" y1="74" y2="74"/><line style="stroke: #A80036; stroke-width: 1.5;" x1="839.5" x2="922.5" y1="82" y2="82"/><!--MD5=[2ae15d20e7f22fd333327d3852982126]
class tictactoe.views.PlayerView--><rect fill="#FEFECE" filter="url(#f18sjeccj2c8tz)" height="48" id="tictactoe.views.PlayerView" style="stroke: #A80036; stroke-width: 1.5;" width="92" x="618" y="42"/><ellipse cx="633" cy="58" fill="#ADD1B2" rx="11" ry="11" style="stroke: #A80036; stroke-width: 1.0;"/><path d="M635.7656,53.875 Q635.9219,53.6563 636.1094,53.5469 Q636.2969,53.4375 636.5156,53.4375 Q636.8906,53.4375 637.125,53.7031 Q637.3594,53.9531 637.3594,54.5625 L637.3594,56.0156 Q637.3594,56.625 637.125,56.8906 Q636.8906,57.1563 636.5156,57.1563 Q636.1719,57.1563 635.9688,56.9531 Q635.7656,56.7656 635.6563,56.25 Q635.6094,55.8906 635.4219,55.7031 Q635.0938,55.3281 634.4844,55.1094 Q633.875,54.8906 633.25,54.8906 Q632.4844,54.8906 631.8438,55.2188 Q631.2188,55.5469 630.7188,56.2969 Q630.2344,57.0469 630.2344,58.0781 L630.2344,59.1719 Q630.2344,60.4063 631.125,61.2344 Q632.0156,62.0469 633.6094,62.0469 Q634.5469,62.0469 635.2031,61.7969 Q635.5938,61.6406 636.0156,61.2031 Q636.2813,60.9375 636.4219,60.8594 Q636.5781,60.7813 636.7813,60.7813 Q637.1094,60.7813 637.3594,61.0469 Q637.625,61.2969 637.625,61.6406 Q637.625,61.9844 637.2813,62.3906 Q636.7813,62.9688 635.9844,63.2969 Q634.9063,63.75 633.6094,63.75 Q632.0938,63.75 630.8906,63.125 Q629.9063,62.625 629.2188,61.5625 Q628.5313,60.4844 628.5313,59.2031 L628.5313,58.0469 Q628.5313,56.7188 629.1406,55.5781 Q629.7656,54.4219 630.8594,53.8125 Q631.9531,53.1875 633.1875,53.1875 Q633.9219,53.1875 634.5625,53.3594 Q635.2188,53.5156 635.7656,53.875 Z "/><text fill="#000000" font-family="sans-serif" font-size="12" lengthAdjust="spacingAndGlyphs" textLength="60" x="647" y="62.9102">PlayerView</text><line style="stroke: #A80036; stroke-width: 1.5;" x1="619" x2="709" y1="74" y2="74"/><line style="stroke: #A80036; stroke-width: 1.5;" x1="619" x2="709" y1="82" y2="82"/><!--MD5=[4fe29ebdeb3371b5754843c99b0088e8]
reverse link utils.WithConsoleView to tictactoe.views.console.BoardView--><path d="M152.248,450.169 C161.079,455.032 170.205,459.808 179,464 C238.189,492.211 306.311,518.936 362.27,539.46 " fill="none" id="utils.WithConsoleView&lt;-tictactoe.views.console.BoardView" style="stroke: #A80036; stroke-width: 1.0;"/><polygon fill="none" points="148.671,456.188,134.737,440.223,155.585,444.014,148.671,456.188" style="stroke: #A80036; stroke-width: 1.0;"/><!--MD5=[14af8e5c407c7d67ca0af798dc6967c5]
link tictactoe.views.console.BoardView to tictactoe.controllers.PlayController--><path d="M506.779,638.33 C520.012,662.411 534.769,689.266 545.543,708.8722 " fill="none" id="tictactoe.views.console.BoardView-&gt;tictactoe.controllers.PlayController" style="stroke: #A80036; stroke-width: 1.0; stroke-dasharray: 7.0,7.0;"/><polygon fill="#A80036" points="548.193,713.6945,547.365,703.8805,545.7854,709.3123,540.3536,707.7327,548.193,713.6945" style="stroke: #A80036; stroke-width: 1.0;"/><!--MD5=[d1f1f21fa3eb12d639631512d925e9a6]
reverse link tictactoe.views.View to tictactoe.views.console.ConsoleView--><path d="M774,110.487 C774,127.31 774,147.015 774,165.816 " fill="none" id="tictactoe.views.View&lt;-tictactoe.views.console.ConsoleView" style="stroke: #A80036; stroke-width: 1.0;"/><polygon fill="none" points="767,110.35,774,90.35,781,110.35,767,110.35" style="stroke: #A80036; stroke-width: 1.0;"/><!--MD5=[9113815f8bbc012213d6467f94b3dc5b]
link tictactoe.views.console.ConsoleView to tictactoe.views.console.StartView--><path d="M815.2992,321.8628 C815.2992,321.8628 828.221,347.635 833.985,359.129 " fill="none" id="tictactoe.views.console.ConsoleView-tictactoe.views.console.StartView" style="stroke: #A80036; stroke-width: 1.0;"/><polygon fill="#A80036" points="839.818,370.761,839.3597,360.9228,837.5769,366.2914,832.2083,364.5086,839.818,370.761" style="stroke: #A80036; stroke-width: 1.0;"/><line style="stroke: #A80036; stroke-width: 1.0;" x1="837.5769" x2="833.9905" y1="366.2914" y2="359.1405"/><polygon fill="#A80036" points="809.92,311.136,809.034,318.2925,815.2992,321.8628,816.1852,314.7063,809.92,311.136" style="stroke: #A80036; stroke-width: 1.0;"/><!--MD5=[1735144fa38f1aa47117a26d071db586]
link tictactoe.views.console.ConsoleView to tictactoe.views.console.PlayView--><path d="M603.6164,316.3567 C603.6164,316.3567 562.704,337.401 544,348 C535.371,352.89 526.504,358.269 517.785,363.789 " fill="none" id="tictactoe.views.console.ConsoleView-tictactoe.views.console.PlayView" style="stroke: #A80036; stroke-width: 1.0;"/><polygon fill="#A80036" points="506.848,370.829,516.5807,369.3207,511.0522,368.1225,512.2504,362.594,506.848,370.829" style="stroke: #A80036; stroke-width: 1.0;"/><line style="stroke: #A80036; stroke-width: 1.0;" x1="511.0522" x2="517.779" y1="368.1225" y2="363.793"/><polygon fill="#A80036" points="614.358,311.007,607.204,310.1013,603.6164,316.3567,610.7704,317.2624,614.358,311.007" style="stroke: #A80036; stroke-width: 1.0;"/><!--MD5=[44d2792f564883fbc9918566bab83309]
link tictactoe.views.console.ConsoleView to tictactoe.views.console.ResultView--><path d="M717.3527,320.9893 C717.3527,320.9893 698.601,347.963 690.23,360.005 " fill="none" id="tictactoe.views.console.ConsoleView-tictactoe.views.console.ResultView" style="stroke: #A80036; stroke-width: 1.0;"/><polygon fill="#A80036" points="682.753,370.761,691.1744,365.6541,685.6069,366.6555,684.6055,361.0879,682.753,370.761" style="stroke: #A80036; stroke-width: 1.0;"/><line style="stroke: #A80036; stroke-width: 1.0;" x1="685.6069" x2="690.173" y1="366.6555" y2="360.087"/><polygon fill="#A80036" points="724.202,311.136,717.4929,313.7795,717.3527,320.9893,724.0618,318.3457,724.202,311.136" style="stroke: #A80036; stroke-width: 1.0;"/><!--MD5=[d983ff7a7ecf259bcdad60485d19cf95]
reverse link utils.WithConsoleView to tictactoe.views.console.CoordinateView--><path d="M129.753,376.714 C147.415,358.633 170.834,339.096 196.5,329.5 C235.528,314.907 906.739,317.043 946.5,329.5 C973.499,337.959 999.777,354.566 1021.18,370.988 " fill="none" id="utils.WithConsoleView&lt;-tictactoe.views.console.CoordinateView" style="stroke: #A80036; stroke-width: 1.0;"/><polygon fill="none" points="134.753,381.619,116.076,391.626,124.436,372.155,134.753,381.619" style="stroke: #A80036; stroke-width: 1.0;"/><!--MD5=[e1dd5bcb520317c417af9a829227fa67]
link tictactoe.views.console.CoordinateView to tictactoe.controllers.PlayController--><path d="M981.783,460.94 C890.617,507.552 746.687,585.95 633,670 C616.685,682.062 600.003,697.3618 586.81,710.2949 " fill="none" id="tictactoe.views.console.CoordinateView-&gt;tictactoe.controllers.PlayController" style="stroke: #A80036; stroke-width: 1.0; stroke-dasharray: 7.0,7.0;"/><polygon fill="#A80036" points="583.185,713.8752,592.3989,710.396,586.7421,710.3614,586.7767,704.7046,583.185,713.8752" style="stroke: #A80036; stroke-width: 1.0;"/><!--MD5=[521be967e4e828bbb4868581b766b1da]
reverse link tictactoe.views.ErrorView to tictactoe.views.console.ErrorView--><path d="M943.56,68.287 C1031.28,71.507 1184.23,82.756 1221,122 C1286.33,191.732 1271.16,315.93 1258.23,377.815 " fill="none" id="tictactoe.views.ErrorView&lt;-tictactoe.views.console.ErrorView" style="stroke: #A80036; stroke-width: 1.0;"/><polygon fill="none" points="943.322,75.283,923.555,67.65,943.768,61.29,943.322,75.283" style="stroke: #A80036; stroke-width: 1.0;"/><!--MD5=[f807ad8458e0e3d6ca100de41032e69a]
reverse link tictactoe.views.PlayerView to tictactoe.views.console.MachinePlayerView--><path d="M618.38,102.592 C610.502,108.957 602.453,115.601 595,122 C568.322,144.904 539.437,171.472 516.16,193.348 " fill="none" id="tictactoe.views.PlayerView&lt;-tictactoe.views.console.MachinePlayerView" style="stroke: #A80036; stroke-width: 1.0;"/><polygon fill="none" points="614.064,97.08,634.066,90.087,622.791,108.027,614.064,97.08" style="stroke: #A80036; stroke-width: 1.0;"/><!--MD5=[9623adb787708e117decab727ca41eb7]
link tictactoe.views.console.PlayView to tictactoe.views.console.BoardView--><path d="M452.471,461.131 C455.699,477.948 459.443,497.454 462.941,515.677 " fill="none" id="tictactoe.views.console.PlayView-&gt;tictactoe.views.console.BoardView" style="stroke: #A80036; stroke-width: 1.0; stroke-dasharray: 7.0,7.0;"/><polygon fill="#A80036" points="463.92,520.779,466.151,511.1862,462.9771,515.8687,458.2945,512.6948,463.92,520.779" style="stroke: #A80036; stroke-width: 1.0;"/><!--MD5=[c652744ae97b12ae96764b7849bbed7e]
link tictactoe.views.console.PlayView to tictactoe.views.PlayerView--><path d="M386.96,370.817 C369.804,354.137 353.124,333.653 344,311 C312.617,233.083 289.867,186.231 344,122 C377.725,81.984 530.862,71.082 612.455,68.112 " fill="none" id="tictactoe.views.console.PlayView-&gt;tictactoe.views.PlayerView" style="stroke: #A80036; stroke-width: 1.0; stroke-dasharray: 7.0,7.0;"/><polygon fill="#A80036" points="617.724,67.928,608.59,64.2442,612.727,68.1023,608.8689,72.2394,617.724,67.928" style="stroke: #A80036; stroke-width: 1.0;"/><!--MD5=[58e59420f385c3dc7e125fbf21a51657]
link tictactoe.views.console.PlayView to tictactoe.controllers.PlayController--><path d="M526.174,460.308 C560.967,480.513 595.651,503.831 605,521 C634.969,576.036 621.43,601.525 605,662 C600.413,678.884 590.961,695.8527 581.989,709.3686 " fill="none" id="tictactoe.views.console.PlayView-&gt;tictactoe.controllers.PlayController" style="stroke: #A80036; stroke-width: 1.0; stroke-dasharray: 7.0,7.0;"/><polygon fill="#A80036" points="578.973,713.8147,587.3362,708.6131,581.7804,709.6772,580.7163,704.1214,578.973,713.8147" style="stroke: #A80036; stroke-width: 1.0;"/><!--MD5=[9744e604919ab000255dde255237b11a]
link tictactoe.views.console.ResultView to tictactoe.controllers.ResultController--><path d="M660.28,461.159 C672.799,527.929 696.196,652.712 706.68,708.6265 " fill="none" id="tictactoe.views.console.ResultView-&gt;tictactoe.controllers.ResultController" style="stroke: #A80036; stroke-width: 1.0; stroke-dasharray: 7.0,7.0;"/><polygon fill="#A80036" points="707.653,713.8184,709.9259,704.2354,706.7316,708.904,702.0629,705.7097,707.653,713.8184" style="stroke: #A80036; stroke-width: 1.0;"/><!--MD5=[43f857ab0050bb78ce27120a0af9afa2]
link tictactoe.views.console.StartView to utils.PlayersDialog--><path d="M814.173,370.785 C793.724,354.442 768.57,337.945 742.5,329.5 C702.438,316.522 403.37,315.944 363.5,329.5 C329.463,341.072 297.678,367.556 276.635,388.192 " fill="none" id="tictactoe.views.console.StartView-&gt;utils.PlayersDialog" style="stroke: #A80036; stroke-width: 1.0; stroke-dasharray: 7.0,7.0;"/><polygon fill="#A80036" points="272.833,391.972,282.0354,388.4625,276.3785,388.4465,276.3945,382.7896,272.833,391.972" style="stroke: #A80036; stroke-width: 1.0;"/><!--MD5=[d3767328306413c38638214ca1b9afec]
link tictactoe.views.console.StartView to tictactoe.controllers.StartController--><path d="M862.276,461.159 C862.693,527.929 863.473,652.712 863.823,708.6265 " fill="none" id="tictactoe.views.console.StartView-&gt;tictactoe.controllers.StartController" style="stroke: #A80036; stroke-width: 1.0; stroke-dasharray: 7.0,7.0;"/><polygon fill="#A80036" points="863.855,713.8184,867.7986,704.7935,863.8237,708.8185,859.7988,704.8436,863.855,713.8184" style="stroke: #A80036; stroke-width: 1.0;"/><!--MD5=[e665259f0705ebc0d9068c66ae844f61]
reverse link tictactoe.views.PlayerView to tictactoe.views.console.UserPlayerView--><path d="M703.91,102.199 C711.177,106.971 719.003,111.187 727,114 C774.197,130.602 905.384,103.832 952,122 C983.757,134.377 1013.25,157.588 1036.52,179.975 " fill="none" id="tictactoe.views.PlayerView&lt;-tictactoe.views.console.UserPlayerView" style="stroke: #A80036; stroke-width: 1.0;"/><polygon fill="none" points="699.514,107.653,687.69,90.069,707.899,96.441,699.514,107.653" style="stroke: #A80036; stroke-width: 1.0;"/><!--MD5=[d08a44d06940417b04e1f442f789385d]
link tictactoe.views.console.UserPlayerView to tictactoe.views.console.ErrorView--><path d="M1140.49,297.452 C1163.58,322.463 1190.05,351.139 1211.07,373.907 " fill="none" id="tictactoe.views.console.UserPlayerView-&gt;tictactoe.views.console.ErrorView" style="stroke: #A80036; stroke-width: 1.0; stroke-dasharray: 7.0,7.0;"/><polygon fill="#A80036" points="1214.66,377.797,1211.4914,368.4718,1211.2673,374.1242,1205.6149,373.9001,1214.66,377.797" style="stroke: #A80036; stroke-width: 1.0;"/><!--MD5=[93525d2da9d792717dcb2150911bbe9e]
link tictactoe.views.console.UserPlayerView to tictactoe.views.console.CoordinateView--><path d="M1081.72,297.452 C1079.7,319.543 1077.43,344.493 1075.49,365.706 " fill="none" id="tictactoe.views.console.UserPlayerView-&gt;tictactoe.views.console.CoordinateView" style="stroke: #A80036; stroke-width: 1.0; stroke-dasharray: 7.0,7.0;"/><polygon fill="#A80036" points="1075.04,370.733,1079.8424,362.1343,1075.495,365.7537,1071.8756,361.4063,1075.04,370.733" style="stroke: #A80036; stroke-width: 1.0;"/><!--MD5=[ff5ae4148c386a672077e395b0bf1ffb]
@startuml

class  tictactoe.views.console.BoardView{
- playController: PlayController
~ BoardView(PlayController)
~ write(): void
- printRowBoard(int): void
- printSquareValueBoard(Coordinate): void
}
utils.WithConsoleView <|-down- tictactoe.views.console.BoardView
tictactoe.views.console.BoardView ..> tictactoe.controllers.PlayController

class  tictactoe.views.console.ConsoleView{
- startView: StartView
- playView: PlayView
- resultView: ResultView
+ ConsoleView(StartController, PlayController, ResultController)
# start(): void
# play(): boolean
# result(): void
}
tictactoe.views.View <|-down- tictactoe.views.console.ConsoleView
tictactoe.views.console.ConsoleView *-down-> tictactoe.views.console.StartView
tictactoe.views.console.ConsoleView *-down-> tictactoe.views.console.PlayView
tictactoe.views.console.ConsoleView *-down-> tictactoe.views.console.ResultView

class  tictactoe.views.console.CoordinateView{
~ playController: PlayController
~ CoordinateView(PlayController)
~ read(String): Coordinate
}
utils.WithConsoleView <|-down- tictactoe.views.console.CoordinateView
tictactoe.views.console.CoordinateView ..> tictactoe.controllers.PlayController

class  tictactoe.views.console.ErrorView{
~ ErrorView(Error)
~ writeln(): void
}
tictactoe.views.ErrorView <|-down- tictactoe.views.console.ErrorView

class  tictactoe.views.console.MachinePlayerView{
~ MachinePlayerView(PlayController)
~ readCoordinateToPut(): Coordinate
~ readCoordinatesToMove(): Coordinate[]
}
tictactoe.views.PlayerView <|-down- tictactoe.views.console.MachinePlayerView

class  tictactoe.views.console.PlayView{
~ playController: PlayController
~ PlayView(PlayController)
~ interact(): boolean
}
tictactoe.views.console.PlayView ..> tictactoe.views.console.BoardView
tictactoe.views.console.PlayView ..> tictactoe.views.PlayerView
tictactoe.views.console.PlayView ..> tictactoe.controllers.PlayController

class tictactoe.views.console.ResultView{
~ resultController: ResultController
~ ResultView(ResultController)
~ interact(): void
}
tictactoe.views.console.ResultView..> tictactoe.controllers.ResultController

class tictactoe.views.console.StartView{
~ startController: StartController
~ StartView(StartController)
~ interact(): void
}
tictactoe.views.console.StartView ..> utils.PlayersDialog
tictactoe.views.console.StartView ..> tictactoe.controllers.StartController

class  tictactoe.views.console.UserPlayerView{
~ {static} ENTER_COORDINATE_TO_PUT: String
~ {static} ENTER_COORDINATE_TO_REMOVE: String
~ UserPlayerView(PlayController)
~ readCoordinateToPut(): Coordinate
~ readCoordinatesToMove(): Coordinate[]
}
tictactoe.views.PlayerView <|-down- tictactoe.views.console.UserPlayerView
tictactoe.views.console.UserPlayerView ..> tictactoe.views.console.ErrorView
tictactoe.views.console.UserPlayerView ..> tictactoe.views.console.CoordinateView

@enduml

PlantUML version 1.2020.15(Sun Jun 28 13:39:45 CEST 2020)
(GPL source distribution)
Java Runtime: Java(TM) SE Runtime Environment
JVM: Java HotSpot(TM) 64-Bit Server VM
Default Encoding: windows-1252
Language: es
Country: ES
--></g></svg>