<?xml version="1.0" encoding="UTF-8" standalone="no"?><svg xmlns="http://www.w3.org/2000/svg" xmlns:xlink="http://www.w3.org/1999/xlink" contentScriptType="application/ecmascript" contentStyleType="text/css" height="733px" preserveAspectRatio="none" style="width:1086px;height:733px;" version="1.1" viewBox="0 0 1086 733" width="1086px" zoomAndPan="magnify"><defs><filter height="300%" id="f18ksdrgaq1cv0" width="300%" x="-1" y="-1"><feGaussianBlur result="blurOut" stdDeviation="2.0"/><feColorMatrix in="blurOut" result="blurOut2" type="matrix" values="0 0 0 0 0 0 0 0 0 0 0 0 0 0 0 0 0 0 .4 0"/><feOffset dx="4.0" dy="4.0" in="blurOut2" result="blurOut3"/><feBlend in="SourceGraphic" in2="blurOut3" mode="normal"/></filter></defs><g><!--MD5=[ee7e9a007a7c4d40c0679a27f272732d]
cluster tictactoe.controllers--><polygon fill="#FFFFFF" filter="url(#f18ksdrgaq1cv0)" points="16,6,164,6,171,29.6094,720,29.6094,720,721,16,721,16,6" style="stroke: #000000; stroke-width: 1.5;"/><line style="stroke: #000000; stroke-width: 1.5;" x1="16" x2="171" y1="29.6094" y2="29.6094"/><text fill="#000000" font-family="sans-serif" font-size="14" font-weight="bold" lengthAdjust="spacingAndGlyphs" textLength="142" x="20" y="22.5332">tictactoe.controllers</text><!--MD5=[51cd642fcc96b47682a93d9084d46dec]
cluster tictactoe.models--><polygon fill="#FFFFFF" filter="url(#f18ksdrgaq1cv0)" points="744,415.5,866,415.5,873,439.1094,1064,439.1094,1064,515.5,744,515.5,744,415.5" style="stroke: #000000; stroke-width: 1.5;"/><line style="stroke: #000000; stroke-width: 1.5;" x1="744" x2="873" y1="439.1094" y2="439.1094"/><text fill="#000000" font-family="sans-serif" font-size="14" font-weight="bold" lengthAdjust="spacingAndGlyphs" textLength="116" x="748" y="432.0332">tictactoe.models</text><!--MD5=[957eef6538bab7382edbc29d98579a60]
class tictactoe.controllers.Controller--><rect fill="#FEFECE" filter="url(#f18ksdrgaq1cv0)" height="117.1797" id="tictactoe.controllers.Controller" style="stroke: #A80036; stroke-width: 1.5;" width="180" x="514" y="219"/><ellipse cx="572.75" cy="235" fill="#ADD1B2" rx="11" ry="11" style="stroke: #A80036; stroke-width: 1.0;"/><path d="M575.5156,230.875 Q575.6719,230.6563 575.8594,230.5469 Q576.0469,230.4375 576.2656,230.4375 Q576.6406,230.4375 576.875,230.7031 Q577.1094,230.9531 577.1094,231.5625 L577.1094,233.0156 Q577.1094,233.625 576.875,233.8906 Q576.6406,234.1563 576.2656,234.1563 Q575.9219,234.1563 575.7188,233.9531 Q575.5156,233.7656 575.4063,233.25 Q575.3594,232.8906 575.1719,232.7031 Q574.8438,232.3281 574.2344,232.1094 Q573.625,231.8906 573,231.8906 Q572.2344,231.8906 571.5938,232.2188 Q570.9688,232.5469 570.4688,233.2969 Q569.9844,234.0469 569.9844,235.0781 L569.9844,236.1719 Q569.9844,237.4063 570.875,238.2344 Q571.7656,239.0469 573.3594,239.0469 Q574.2969,239.0469 574.9531,238.7969 Q575.3438,238.6406 575.7656,238.2031 Q576.0313,237.9375 576.1719,237.8594 Q576.3281,237.7813 576.5313,237.7813 Q576.8594,237.7813 577.1094,238.0469 Q577.375,238.2969 577.375,238.6406 Q577.375,238.9844 577.0313,239.3906 Q576.5313,239.9688 575.7344,240.2969 Q574.6563,240.75 573.3594,240.75 Q571.8438,240.75 570.6406,240.125 Q569.6563,239.625 568.9688,238.5625 Q568.2813,237.4844 568.2813,236.2031 L568.2813,235.0469 Q568.2813,233.7188 568.8906,232.5781 Q569.5156,231.4219 570.6094,230.8125 Q571.7031,230.1875 572.9375,230.1875 Q573.6719,230.1875 574.3125,230.3594 Q574.9688,230.5156 575.5156,230.875 Z "/><text fill="#000000" font-family="sans-serif" font-size="12" lengthAdjust="spacingAndGlyphs" textLength="54" x="593.25" y="239.9102">Controller</text><line style="stroke: #A80036; stroke-width: 1.5;" x1="515" x2="693" y1="251" y2="251"/><polygon fill="none" points="525,257,529,261,525,265,521,261" style="stroke: #B38D22; stroke-width: 1.0;"/><text fill="#000000" font-family="sans-serif" font-size="11" lengthAdjust="spacingAndGlyphs" textLength="60" x="534" y="266.4189">game: Game</text><polygon fill="none" points="525,270.8359,529,274.8359,525,278.8359,521,274.8359" style="stroke: #B38D22; stroke-width: 1.0;"/><text fill="#000000" font-family="sans-serif" font-size="11" lengthAdjust="spacingAndGlyphs" textLength="55" x="534" y="280.2549">state: State</text><line style="stroke: #A80036; stroke-width: 1.5;" x1="515" x2="693" y1="286.6719" y2="286.6719"/><polygon fill="#4177AF" points="525,293.6719,521,299.6719,529,299.6719" style="stroke: #1963A0; stroke-width: 1.0;"/><text fill="#000000" font-family="sans-serif" font-size="11" lengthAdjust="spacingAndGlyphs" textLength="113" x="534" y="302.0908">Controller(Game, State)</text><ellipse cx="525" cy="311.5078" fill="#84BE84" rx="3" ry="3" style="stroke: #038048; stroke-width: 1.0;"/><text fill="#000000" font-family="sans-serif" font-size="11" lengthAdjust="spacingAndGlyphs" textLength="87" x="534" y="315.9268">getBoard(): Board</text><ellipse cx="525" cy="325.3438" fill="#84BE84" rx="3" ry="3" style="stroke: #038048; stroke-width: 1.0;"/><text fill="#000000" font-family="sans-serif" font-size="11" font-style="italic" lengthAdjust="spacingAndGlyphs" textLength="154" x="534" y="329.7627">accept(ControllersVisitor): void</text><!--MD5=[cd4f094777041ea0b287ad7c5b510f06]
class tictactoe.controllers.ControllersVisitor--><rect fill="#FEFECE" filter="url(#f18ksdrgaq1cv0)" height="89.5078" id="tictactoe.controllers.ControllersVisitor" style="stroke: #A80036; stroke-width: 1.5;" width="155" x="327.5" y="615"/><ellipse cx="355.1" cy="631" fill="#ADD1B2" rx="11" ry="11" style="stroke: #A80036; stroke-width: 1.0;"/><path d="M357.8656,626.875 Q358.0219,626.6563 358.2094,626.5469 Q358.3969,626.4375 358.6156,626.4375 Q358.9906,626.4375 359.225,626.7031 Q359.4594,626.9531 359.4594,627.5625 L359.4594,629.0156 Q359.4594,629.625 359.225,629.8906 Q358.9906,630.1563 358.6156,630.1563 Q358.2719,630.1563 358.0688,629.9531 Q357.8656,629.7656 357.7563,629.25 Q357.7094,628.8906 357.5219,628.7031 Q357.1938,628.3281 356.5844,628.1094 Q355.975,627.8906 355.35,627.8906 Q354.5844,627.8906 353.9438,628.2188 Q353.3188,628.5469 352.8188,629.2969 Q352.3344,630.0469 352.3344,631.0781 L352.3344,632.1719 Q352.3344,633.4063 353.225,634.2344 Q354.1156,635.0469 355.7094,635.0469 Q356.6469,635.0469 357.3031,634.7969 Q357.6938,634.6406 358.1156,634.2031 Q358.3813,633.9375 358.5219,633.8594 Q358.6781,633.7813 358.8813,633.7813 Q359.2094,633.7813 359.4594,634.0469 Q359.725,634.2969 359.725,634.6406 Q359.725,634.9844 359.3813,635.3906 Q358.8813,635.9688 358.0844,636.2969 Q357.0063,636.75 355.7094,636.75 Q354.1938,636.75 352.9906,636.125 Q352.0063,635.625 351.3188,634.5625 Q350.6313,633.4844 350.6313,632.2031 L350.6313,631.0469 Q350.6313,629.7188 351.2406,628.5781 Q351.8656,627.4219 352.9594,626.8125 Q354.0531,626.1875 355.2875,626.1875 Q356.0219,626.1875 356.6625,626.3594 Q357.3188,626.5156 357.8656,626.875 Z "/><text fill="#000000" font-family="sans-serif" font-size="12" lengthAdjust="spacingAndGlyphs" textLength="95" x="371.9" y="635.9102">ControllersVisitor</text><line style="stroke: #A80036; stroke-width: 1.5;" x1="328.5" x2="481.5" y1="647" y2="647"/><line style="stroke: #A80036; stroke-width: 1.5;" x1="328.5" x2="481.5" y1="655" y2="655"/><polygon fill="#4177AF" points="338.5,662,334.5,668,342.5,668" style="stroke: #1963A0; stroke-width: 1.0;"/><text fill="#000000" font-family="sans-serif" font-size="11" lengthAdjust="spacingAndGlyphs" textLength="122" x="347.5" y="670.4189">visit(StartController): void</text><polygon fill="#4177AF" points="338.5,675.8359,334.5,681.8359,342.5,681.8359" style="stroke: #1963A0; stroke-width: 1.0;"/><text fill="#000000" font-family="sans-serif" font-size="11" lengthAdjust="spacingAndGlyphs" textLength="119" x="347.5" y="684.2549">visit(PlayController): void</text><polygon fill="#4177AF" points="338.5,689.6719,334.5,695.6719,342.5,695.6719" style="stroke: #1963A0; stroke-width: 1.0;"/><text fill="#000000" font-family="sans-serif" font-size="11" lengthAdjust="spacingAndGlyphs" textLength="129" x="347.5" y="698.0908">visit(ResultController): void</text><!--MD5=[3b8962fd5847b9038b2e29740dae8054]
class tictactoe.controllers.Logic--><rect fill="#FEFECE" filter="url(#f18ksdrgaq1cv0)" height="117.1797" id="tictactoe.controllers.Logic" style="stroke: #A80036; stroke-width: 1.5;" width="220" x="484" y="42"/><ellipse cx="574.75" cy="58" fill="#ADD1B2" rx="11" ry="11" style="stroke: #A80036; stroke-width: 1.0;"/><path d="M577.5156,53.875 Q577.6719,53.6563 577.8594,53.5469 Q578.0469,53.4375 578.2656,53.4375 Q578.6406,53.4375 578.875,53.7031 Q579.1094,53.9531 579.1094,54.5625 L579.1094,56.0156 Q579.1094,56.625 578.875,56.8906 Q578.6406,57.1563 578.2656,57.1563 Q577.9219,57.1563 577.7188,56.9531 Q577.5156,56.7656 577.4063,56.25 Q577.3594,55.8906 577.1719,55.7031 Q576.8438,55.3281 576.2344,55.1094 Q575.625,54.8906 575,54.8906 Q574.2344,54.8906 573.5938,55.2188 Q572.9688,55.5469 572.4688,56.2969 Q571.9844,57.0469 571.9844,58.0781 L571.9844,59.1719 Q571.9844,60.4063 572.875,61.2344 Q573.7656,62.0469 575.3594,62.0469 Q576.2969,62.0469 576.9531,61.7969 Q577.3438,61.6406 577.7656,61.2031 Q578.0313,60.9375 578.1719,60.8594 Q578.3281,60.7813 578.5313,60.7813 Q578.8594,60.7813 579.1094,61.0469 Q579.375,61.2969 579.375,61.6406 Q579.375,61.9844 579.0313,62.3906 Q578.5313,62.9688 577.7344,63.2969 Q576.6563,63.75 575.3594,63.75 Q573.8438,63.75 572.6406,63.125 Q571.6563,62.625 570.9688,61.5625 Q570.2813,60.4844 570.2813,59.2031 L570.2813,58.0469 Q570.2813,56.7188 570.8906,55.5781 Q571.5156,54.4219 572.6094,53.8125 Q573.7031,53.1875 574.9375,53.1875 Q575.6719,53.1875 576.3125,53.3594 Q576.9688,53.5156 577.5156,53.875 Z "/><text fill="#000000" font-family="sans-serif" font-size="12" lengthAdjust="spacingAndGlyphs" textLength="30" x="595.25" y="62.9102">Logic</text><line style="stroke: #A80036; stroke-width: 1.5;" x1="485" x2="703" y1="74" y2="74"/><rect fill="none" height="6" style="stroke: #C82930; stroke-width: 1.0;" width="6" x="492" y="82"/><text fill="#000000" font-family="sans-serif" font-size="11" lengthAdjust="spacingAndGlyphs" textLength="55" x="504" y="89.4189">state: State</text><rect fill="none" height="6" style="stroke: #C82930; stroke-width: 1.0;" width="6" x="492" y="95.8359"/><text fill="#000000" font-family="sans-serif" font-size="11" lengthAdjust="spacingAndGlyphs" textLength="60" x="504" y="103.2549">game: Game</text><rect fill="none" height="6" style="stroke: #C82930; stroke-width: 1.0;" width="6" x="492" y="109.6719"/><text fill="#000000" font-family="sans-serif" font-size="11" lengthAdjust="spacingAndGlyphs" textLength="194" x="504" y="117.0908">controllers: Map&lt;StateValue, Controller&gt;</text><line style="stroke: #A80036; stroke-width: 1.5;" x1="485" x2="703" y1="123.5078" y2="123.5078"/><ellipse cx="495" cy="134.5078" fill="#84BE84" rx="3" ry="3" style="stroke: #038048; stroke-width: 1.0;"/><text fill="#000000" font-family="sans-serif" font-size="11" lengthAdjust="spacingAndGlyphs" textLength="34" x="504" y="138.9268">Logic()</text><ellipse cx="495" cy="148.3438" fill="#84BE84" rx="3" ry="3" style="stroke: #038048; stroke-width: 1.0;"/><text fill="#000000" font-family="sans-serif" font-size="11" lengthAdjust="spacingAndGlyphs" textLength="121" x="504" y="152.7627">getController(): Controller</text><!--MD5=[b574e60c06c50037ff1b014277a67d62]
class tictactoe.controllers.PlayController--><rect fill="#FEFECE" filter="url(#f18ksdrgaq1cv0)" height="158.6875" id="tictactoe.controllers.PlayController" style="stroke: #A80036; stroke-width: 1.5;" width="249" x="32.5" y="396"/><ellipse cx="114.25" cy="412" fill="#ADD1B2" rx="11" ry="11" style="stroke: #A80036; stroke-width: 1.0;"/><path d="M117.0156,407.875 Q117.1719,407.6563 117.3594,407.5469 Q117.5469,407.4375 117.7656,407.4375 Q118.1406,407.4375 118.375,407.7031 Q118.6094,407.9531 118.6094,408.5625 L118.6094,410.0156 Q118.6094,410.625 118.375,410.8906 Q118.1406,411.1563 117.7656,411.1563 Q117.4219,411.1563 117.2188,410.9531 Q117.0156,410.7656 116.9063,410.25 Q116.8594,409.8906 116.6719,409.7031 Q116.3438,409.3281 115.7344,409.1094 Q115.125,408.8906 114.5,408.8906 Q113.7344,408.8906 113.0938,409.2188 Q112.4688,409.5469 111.9688,410.2969 Q111.4844,411.0469 111.4844,412.0781 L111.4844,413.1719 Q111.4844,414.4063 112.375,415.2344 Q113.2656,416.0469 114.8594,416.0469 Q115.7969,416.0469 116.4531,415.7969 Q116.8438,415.6406 117.2656,415.2031 Q117.5313,414.9375 117.6719,414.8594 Q117.8281,414.7813 118.0313,414.7813 Q118.3594,414.7813 118.6094,415.0469 Q118.875,415.2969 118.875,415.6406 Q118.875,415.9844 118.5313,416.3906 Q118.0313,416.9688 117.2344,417.2969 Q116.1563,417.75 114.8594,417.75 Q113.3438,417.75 112.1406,417.125 Q111.1563,416.625 110.4688,415.5625 Q109.7813,414.4844 109.7813,413.2031 L109.7813,412.0469 Q109.7813,410.7188 110.3906,409.5781 Q111.0156,408.4219 112.1094,407.8125 Q113.2031,407.1875 114.4375,407.1875 Q115.1719,407.1875 115.8125,407.3594 Q116.4688,407.5156 117.0156,407.875 Z "/><text fill="#000000" font-family="sans-serif" font-size="12" lengthAdjust="spacingAndGlyphs" textLength="77" x="134.75" y="416.9102">PlayController</text><line style="stroke: #A80036; stroke-width: 1.5;" x1="33.5" x2="280.5" y1="428" y2="428"/><line style="stroke: #A80036; stroke-width: 1.5;" x1="33.5" x2="280.5" y1="436" y2="436"/><ellipse cx="43.5" cy="447" fill="#84BE84" rx="3" ry="3" style="stroke: #038048; stroke-width: 1.0;"/><text fill="#000000" font-family="sans-serif" font-size="11" lengthAdjust="spacingAndGlyphs" textLength="133" x="52.5" y="451.4189">PlayController(Game, State)</text><ellipse cx="43.5" cy="460.8359" fill="#84BE84" rx="3" ry="3" style="stroke: #038048; stroke-width: 1.0;"/><text fill="#000000" font-family="sans-serif" font-size="11" lengthAdjust="spacingAndGlyphs" textLength="164" x="52.5" y="465.2549">getTokenPlayerFromTurn(): Player</text><ellipse cx="43.5" cy="474.6719" fill="#84BE84" rx="3" ry="3" style="stroke: #038048; stroke-width: 1.0;"/><text fill="#000000" font-family="sans-serif" font-size="11" lengthAdjust="spacingAndGlyphs" textLength="133" x="52.5" y="479.0908">isBoardComplete(): boolean</text><ellipse cx="43.5" cy="488.5078" fill="#84BE84" rx="3" ry="3" style="stroke: #038048; stroke-width: 1.0;"/><text fill="#000000" font-family="sans-serif" font-size="11" lengthAdjust="spacingAndGlyphs" textLength="206" x="52.5" y="492.9268">putTokenPlayerFromTurn(Coordinate): void</text><ellipse cx="43.5" cy="502.3438" fill="#84BE84" rx="3" ry="3" style="stroke: #038048; stroke-width: 1.0;"/><text fill="#000000" font-family="sans-serif" font-size="11" lengthAdjust="spacingAndGlyphs" textLength="223" x="52.5" y="506.7627">moveTokenPlayerFromTurn(Coordinate[]): void</text><ellipse cx="43.5" cy="516.1797" fill="#84BE84" rx="3" ry="3" style="stroke: #038048; stroke-width: 1.0;"/><text fill="#000000" font-family="sans-serif" font-size="11" lengthAdjust="spacingAndGlyphs" textLength="92" x="52.5" y="520.5986">changeTurn(): void</text><ellipse cx="43.5" cy="530.0156" fill="#84BE84" rx="3" ry="3" style="stroke: #038048; stroke-width: 1.0;"/><text fill="#000000" font-family="sans-serif" font-size="11" lengthAdjust="spacingAndGlyphs" textLength="92" x="52.5" y="534.4346">isTicTacToe(): void</text><ellipse cx="43.5" cy="543.8516" fill="#84BE84" rx="3" ry="3" style="stroke: #038048; stroke-width: 1.0;"/><text fill="#000000" font-family="sans-serif" font-size="11" lengthAdjust="spacingAndGlyphs" textLength="150" x="52.5" y="548.2705">accept(ControllersVisitor): void</text><!--MD5=[2c3ef77d19c2424f55dfd6db4f13e20e]
class tictactoe.controllers.ResultController--><rect fill="#FEFECE" filter="url(#f18ksdrgaq1cv0)" height="103.3438" id="tictactoe.controllers.ResultController" style="stroke: #A80036; stroke-width: 1.5;" width="176" x="317" y="424"/><ellipse cx="356.3" cy="440" fill="#ADD1B2" rx="11" ry="11" style="stroke: #A80036; stroke-width: 1.0;"/><path d="M359.0656,435.875 Q359.2219,435.6563 359.4094,435.5469 Q359.5969,435.4375 359.8156,435.4375 Q360.1906,435.4375 360.425,435.7031 Q360.6594,435.9531 360.6594,436.5625 L360.6594,438.0156 Q360.6594,438.625 360.425,438.8906 Q360.1906,439.1563 359.8156,439.1563 Q359.4719,439.1563 359.2688,438.9531 Q359.0656,438.7656 358.9563,438.25 Q358.9094,437.8906 358.7219,437.7031 Q358.3938,437.3281 357.7844,437.1094 Q357.175,436.8906 356.55,436.8906 Q355.7844,436.8906 355.1438,437.2188 Q354.5188,437.5469 354.0188,438.2969 Q353.5344,439.0469 353.5344,440.0781 L353.5344,441.1719 Q353.5344,442.4063 354.425,443.2344 Q355.3156,444.0469 356.9094,444.0469 Q357.8469,444.0469 358.5031,443.7969 Q358.8938,443.6406 359.3156,443.2031 Q359.5813,442.9375 359.7219,442.8594 Q359.8781,442.7813 360.0813,442.7813 Q360.4094,442.7813 360.6594,443.0469 Q360.925,443.2969 360.925,443.6406 Q360.925,443.9844 360.5813,444.3906 Q360.0813,444.9688 359.2844,445.2969 Q358.2063,445.75 356.9094,445.75 Q355.3938,445.75 354.1906,445.125 Q353.2063,444.625 352.5188,443.5625 Q351.8313,442.4844 351.8313,441.2031 L351.8313,440.0469 Q351.8313,438.7188 352.4406,437.5781 Q353.0656,436.4219 354.1594,435.8125 Q355.2531,435.1875 356.4875,435.1875 Q357.2219,435.1875 357.8625,435.3594 Q358.5188,435.5156 359.0656,435.875 Z "/><text fill="#000000" font-family="sans-serif" font-size="12" lengthAdjust="spacingAndGlyphs" textLength="90" x="375.7" y="444.9102">ResultController</text><line style="stroke: #A80036; stroke-width: 1.5;" x1="318" x2="492" y1="456" y2="456"/><line style="stroke: #A80036; stroke-width: 1.5;" x1="318" x2="492" y1="464" y2="464"/><ellipse cx="328" cy="475" fill="#84BE84" rx="3" ry="3" style="stroke: #038048; stroke-width: 1.0;"/><text fill="#000000" font-family="sans-serif" font-size="11" lengthAdjust="spacingAndGlyphs" textLength="143" x="337" y="479.4189">ResultController(Game, State)</text><ellipse cx="328" cy="488.8359" fill="#84BE84" rx="3" ry="3" style="stroke: #038048; stroke-width: 1.0;"/><text fill="#000000" font-family="sans-serif" font-size="11" lengthAdjust="spacingAndGlyphs" textLength="60" x="337" y="493.2549">finish(): void</text><ellipse cx="328" cy="502.6719" fill="#84BE84" rx="3" ry="3" style="stroke: #038048; stroke-width: 1.0;"/><text fill="#000000" font-family="sans-serif" font-size="11" lengthAdjust="spacingAndGlyphs" textLength="141" x="337" y="507.0908">getOtherValueFromTurn(): int</text><ellipse cx="328" cy="516.5078" fill="#84BE84" rx="3" ry="3" style="stroke: #038048; stroke-width: 1.0;"/><text fill="#000000" font-family="sans-serif" font-size="11" lengthAdjust="spacingAndGlyphs" textLength="150" x="337" y="520.9268">accept(ControllersVisitor): void</text><!--MD5=[8ede4dbfb3b498095887802b64b699f0]
class tictactoe.controllers.StartController--><rect fill="#FEFECE" filter="url(#f18ksdrgaq1cv0)" height="103.3438" id="tictactoe.controllers.StartController" style="stroke: #A80036; stroke-width: 1.5;" width="176" x="528" y="424"/><ellipse cx="572.25" cy="440" fill="#ADD1B2" rx="11" ry="11" style="stroke: #A80036; stroke-width: 1.0;"/><path d="M575.0156,435.875 Q575.1719,435.6563 575.3594,435.5469 Q575.5469,435.4375 575.7656,435.4375 Q576.1406,435.4375 576.375,435.7031 Q576.6094,435.9531 576.6094,436.5625 L576.6094,438.0156 Q576.6094,438.625 576.375,438.8906 Q576.1406,439.1563 575.7656,439.1563 Q575.4219,439.1563 575.2188,438.9531 Q575.0156,438.7656 574.9063,438.25 Q574.8594,437.8906 574.6719,437.7031 Q574.3438,437.3281 573.7344,437.1094 Q573.125,436.8906 572.5,436.8906 Q571.7344,436.8906 571.0938,437.2188 Q570.4688,437.5469 569.9688,438.2969 Q569.4844,439.0469 569.4844,440.0781 L569.4844,441.1719 Q569.4844,442.4063 570.375,443.2344 Q571.2656,444.0469 572.8594,444.0469 Q573.7969,444.0469 574.4531,443.7969 Q574.8438,443.6406 575.2656,443.2031 Q575.5313,442.9375 575.6719,442.8594 Q575.8281,442.7813 576.0313,442.7813 Q576.3594,442.7813 576.6094,443.0469 Q576.875,443.2969 576.875,443.6406 Q576.875,443.9844 576.5313,444.3906 Q576.0313,444.9688 575.2344,445.2969 Q574.1563,445.75 572.8594,445.75 Q571.3438,445.75 570.1406,445.125 Q569.1563,444.625 568.4688,443.5625 Q567.7813,442.4844 567.7813,441.2031 L567.7813,440.0469 Q567.7813,438.7188 568.3906,437.5781 Q569.0156,436.4219 570.1094,435.8125 Q571.2031,435.1875 572.4375,435.1875 Q573.1719,435.1875 573.8125,435.3594 Q574.4688,435.5156 575.0156,435.875 Z "/><text fill="#000000" font-family="sans-serif" font-size="12" lengthAdjust="spacingAndGlyphs" textLength="79" x="592.75" y="444.9102">StartController</text><line style="stroke: #A80036; stroke-width: 1.5;" x1="529" x2="703" y1="456" y2="456"/><line style="stroke: #A80036; stroke-width: 1.5;" x1="529" x2="703" y1="464" y2="464"/><ellipse cx="539" cy="475" fill="#84BE84" rx="3" ry="3" style="stroke: #038048; stroke-width: 1.0;"/><text fill="#000000" font-family="sans-serif" font-size="11" lengthAdjust="spacingAndGlyphs" textLength="136" x="548" y="479.4189">StartController(Game, State)</text><ellipse cx="539" cy="488.8359" fill="#84BE84" rx="3" ry="3" style="stroke: #038048; stroke-width: 1.0;"/><text fill="#000000" font-family="sans-serif" font-size="11" lengthAdjust="spacingAndGlyphs" textLength="56" x="548" y="493.2549">start(): void</text><ellipse cx="539" cy="502.6719" fill="#84BE84" rx="3" ry="3" style="stroke: #038048; stroke-width: 1.0;"/><text fill="#000000" font-family="sans-serif" font-size="11" lengthAdjust="spacingAndGlyphs" textLength="112" x="548" y="507.0908">createPlayers(int): void</text><ellipse cx="539" cy="516.5078" fill="#84BE84" rx="3" ry="3" style="stroke: #038048; stroke-width: 1.0;"/><text fill="#000000" font-family="sans-serif" font-size="11" lengthAdjust="spacingAndGlyphs" textLength="150" x="548" y="520.9268">accept(ControllersVisitor): void</text><!--MD5=[8d3188f3c370ea7d5d91d12bca83b67a]
class tictactoe.models.Game--><rect fill="#FEFECE" filter="url(#f18ksdrgaq1cv0)" height="48" id="tictactoe.models.Game" style="stroke: #A80036; stroke-width: 1.5;" width="66" x="760" y="451.5"/><ellipse cx="775" cy="467.5" fill="#ADD1B2" rx="11" ry="11" style="stroke: #A80036; stroke-width: 1.0;"/><path d="M777.7656,463.375 Q777.9219,463.1563 778.1094,463.0469 Q778.2969,462.9375 778.5156,462.9375 Q778.8906,462.9375 779.125,463.2031 Q779.3594,463.4531 779.3594,464.0625 L779.3594,465.5156 Q779.3594,466.125 779.125,466.3906 Q778.8906,466.6563 778.5156,466.6563 Q778.1719,466.6563 777.9688,466.4531 Q777.7656,466.2656 777.6563,465.75 Q777.6094,465.3906 777.4219,465.2031 Q777.0938,464.8281 776.4844,464.6094 Q775.875,464.3906 775.25,464.3906 Q774.4844,464.3906 773.8438,464.7188 Q773.2188,465.0469 772.7188,465.7969 Q772.2344,466.5469 772.2344,467.5781 L772.2344,468.6719 Q772.2344,469.9063 773.125,470.7344 Q774.0156,471.5469 775.6094,471.5469 Q776.5469,471.5469 777.2031,471.2969 Q777.5938,471.1406 778.0156,470.7031 Q778.2813,470.4375 778.4219,470.3594 Q778.5781,470.2813 778.7813,470.2813 Q779.1094,470.2813 779.3594,470.5469 Q779.625,470.7969 779.625,471.1406 Q779.625,471.4844 779.2813,471.8906 Q778.7813,472.4688 777.9844,472.7969 Q776.9063,473.25 775.6094,473.25 Q774.0938,473.25 772.8906,472.625 Q771.9063,472.125 771.2188,471.0625 Q770.5313,469.9844 770.5313,468.7031 L770.5313,467.5469 Q770.5313,466.2188 771.1406,465.0781 Q771.7656,463.9219 772.8594,463.3125 Q773.9531,462.6875 775.1875,462.6875 Q775.9219,462.6875 776.5625,462.8594 Q777.2188,463.0156 777.7656,463.375 Z "/><text fill="#000000" font-family="sans-serif" font-size="12" lengthAdjust="spacingAndGlyphs" textLength="34" x="789" y="472.4102">Game</text><line style="stroke: #A80036; stroke-width: 1.5;" x1="761" x2="825" y1="483.5" y2="483.5"/><line style="stroke: #A80036; stroke-width: 1.5;" x1="761" x2="825" y1="491.5" y2="491.5"/><!--MD5=[895b6132a90c2908aef15a128e2ee1f5]
class tictactoe.models.State--><rect fill="#FEFECE" filter="url(#f18ksdrgaq1cv0)" height="48" id="tictactoe.models.State" style="stroke: #A80036; stroke-width: 1.5;" width="60" x="861" y="451.5"/><ellipse cx="876" cy="467.5" fill="#ADD1B2" rx="11" ry="11" style="stroke: #A80036; stroke-width: 1.0;"/><path d="M878.7656,463.375 Q878.9219,463.1563 879.1094,463.0469 Q879.2969,462.9375 879.5156,462.9375 Q879.8906,462.9375 880.125,463.2031 Q880.3594,463.4531 880.3594,464.0625 L880.3594,465.5156 Q880.3594,466.125 880.125,466.3906 Q879.8906,466.6563 879.5156,466.6563 Q879.1719,466.6563 878.9688,466.4531 Q878.7656,466.2656 878.6563,465.75 Q878.6094,465.3906 878.4219,465.2031 Q878.0938,464.8281 877.4844,464.6094 Q876.875,464.3906 876.25,464.3906 Q875.4844,464.3906 874.8438,464.7188 Q874.2188,465.0469 873.7188,465.7969 Q873.2344,466.5469 873.2344,467.5781 L873.2344,468.6719 Q873.2344,469.9063 874.125,470.7344 Q875.0156,471.5469 876.6094,471.5469 Q877.5469,471.5469 878.2031,471.2969 Q878.5938,471.1406 879.0156,470.7031 Q879.2813,470.4375 879.4219,470.3594 Q879.5781,470.2813 879.7813,470.2813 Q880.1094,470.2813 880.3594,470.5469 Q880.625,470.7969 880.625,471.1406 Q880.625,471.4844 880.2813,471.8906 Q879.7813,472.4688 878.9844,472.7969 Q877.9063,473.25 876.6094,473.25 Q875.0938,473.25 873.8906,472.625 Q872.9063,472.125 872.2188,471.0625 Q871.5313,469.9844 871.5313,468.7031 L871.5313,467.5469 Q871.5313,466.2188 872.1406,465.0781 Q872.7656,463.9219 873.8594,463.3125 Q874.9531,462.6875 876.1875,462.6875 Q876.9219,462.6875 877.5625,462.8594 Q878.2188,463.0156 878.7656,463.375 Z "/><text fill="#000000" font-family="sans-serif" font-size="12" lengthAdjust="spacingAndGlyphs" textLength="28" x="890" y="472.4102">State</text><line style="stroke: #A80036; stroke-width: 1.5;" x1="862" x2="920" y1="483.5" y2="483.5"/><line style="stroke: #A80036; stroke-width: 1.5;" x1="862" x2="920" y1="491.5" y2="491.5"/><!--MD5=[c8f7ee38df84fc6c47e5792f2767cf35]
class tictactoe.models.StateValue--><rect fill="#FEFECE" filter="url(#f18ksdrgaq1cv0)" height="48" id="tictactoe.models.StateValue" style="stroke: #A80036; stroke-width: 1.5;" width="91" x="956.5" y="451.5"/><ellipse cx="971.5" cy="467.5" fill="#ADD1B2" rx="11" ry="11" style="stroke: #A80036; stroke-width: 1.0;"/><path d="M974.2656,463.375 Q974.4219,463.1563 974.6094,463.0469 Q974.7969,462.9375 975.0156,462.9375 Q975.3906,462.9375 975.625,463.2031 Q975.8594,463.4531 975.8594,464.0625 L975.8594,465.5156 Q975.8594,466.125 975.625,466.3906 Q975.3906,466.6563 975.0156,466.6563 Q974.6719,466.6563 974.4688,466.4531 Q974.2656,466.2656 974.1563,465.75 Q974.1094,465.3906 973.9219,465.2031 Q973.5938,464.8281 972.9844,464.6094 Q972.375,464.3906 971.75,464.3906 Q970.9844,464.3906 970.3438,464.7188 Q969.7188,465.0469 969.2188,465.7969 Q968.7344,466.5469 968.7344,467.5781 L968.7344,468.6719 Q968.7344,469.9063 969.625,470.7344 Q970.5156,471.5469 972.1094,471.5469 Q973.0469,471.5469 973.7031,471.2969 Q974.0938,471.1406 974.5156,470.7031 Q974.7813,470.4375 974.9219,470.3594 Q975.0781,470.2813 975.2813,470.2813 Q975.6094,470.2813 975.8594,470.5469 Q976.125,470.7969 976.125,471.1406 Q976.125,471.4844 975.7813,471.8906 Q975.2813,472.4688 974.4844,472.7969 Q973.4063,473.25 972.1094,473.25 Q970.5938,473.25 969.3906,472.625 Q968.4063,472.125 967.7188,471.0625 Q967.0313,469.9844 967.0313,468.7031 L967.0313,467.5469 Q967.0313,466.2188 967.6406,465.0781 Q968.2656,463.9219 969.3594,463.3125 Q970.4531,462.6875 971.6875,462.6875 Q972.4219,462.6875 973.0625,462.8594 Q973.7188,463.0156 974.2656,463.375 Z "/><text fill="#000000" font-family="sans-serif" font-size="12" lengthAdjust="spacingAndGlyphs" textLength="59" x="985.5" y="472.4102">StateValue</text><line style="stroke: #A80036; stroke-width: 1.5;" x1="957.5" x2="1046.5" y1="483.5" y2="483.5"/><line style="stroke: #A80036; stroke-width: 1.5;" x1="957.5" x2="1046.5" y1="491.5" y2="491.5"/><!--MD5=[67f54059f517de4e17e4f415259fadfa]
link tictactoe.controllers.Controller to tictactoe.models.Game--><path d="M661.577,336.135 C680.328,355.087 701.16,376.337 720,396 C736.262,412.971 754.246,432.303 768.294,447.536 " fill="none" id="tictactoe.controllers.Controller-&gt;tictactoe.models.Game" style="stroke: #A80036; stroke-width: 1.0; stroke-dasharray: 7.0,7.0;"/><polygon fill="#A80036" points="771.778,451.317,768.6205,441.988,768.3897,447.6401,762.7375,447.4093,771.778,451.317" style="stroke: #A80036; stroke-width: 1.0;"/><!--MD5=[958c68ec9081d3cd0ffa7948938073c3]
link tictactoe.controllers.Controller to tictactoe.models.State--><path d="M694.098,308.255 C742.618,327.592 801.134,356.6 844,396 C859.393,410.149 871.382,430.5 879.398,446.936 " fill="none" id="tictactoe.controllers.Controller-&gt;tictactoe.models.State" style="stroke: #A80036; stroke-width: 1.0; stroke-dasharray: 7.0,7.0;"/><polygon fill="#A80036" points="881.553,451.459,881.2944,441.6135,879.4031,446.9448,874.0718,445.0534,881.553,451.459" style="stroke: #A80036; stroke-width: 1.0;"/><!--MD5=[bf6ea4e22b99b81dd48bbf2eb1cf70e8]
link tictactoe.controllers.Logic to tictactoe.models.Game--><path d="M671.3741,167.6819 C671.3741,167.6819 701.099,201.111 712,219 C755.362,290.162 777.695,386.792 787.201,438.436 " fill="none" id="tictactoe.controllers.Logic-tictactoe.models.Game" style="stroke: #A80036; stroke-width: 1.0;"/><polygon fill="#A80036" points="789.498,451.452,791.8734,441.8939,788.6293,446.528,783.9951,443.2839,789.498,451.452" style="stroke: #A80036; stroke-width: 1.0;"/><line style="stroke: #A80036; stroke-width: 1.0;" x1="788.6293" x2="787.2385" y1="446.528" y2="438.6495"/><polygon fill="#A80036" points="662.959,159.127,664.3149,166.2095,671.3741,167.6819,670.0182,160.5994,662.959,159.127" style="stroke: #A80036; stroke-width: 1.0;"/><!--MD5=[758f687dc2a943dbf7811856af1b401c]
link tictactoe.controllers.Logic to tictactoe.models.State--><path d="M703.2543,166.0889 C703.2543,166.0889 745.35,199.786 762,219 C820.823,286.883 860.893,386.291 879.365,438.857 " fill="none" id="tictactoe.controllers.Logic-tictactoe.models.State" style="stroke: #A80036; stroke-width: 1.0;"/><polygon fill="#A80036" points="883.696,451.468,884.5557,441.6567,882.0719,446.7391,876.9895,444.2553,883.696,451.468" style="stroke: #A80036; stroke-width: 1.0;"/><line style="stroke: #A80036; stroke-width: 1.0;" x1="882.0719" x2="879.4735" y1="446.7391" y2="439.173"/><polygon fill="#A80036" points="693.529,159.059,696.0483,165.8157,703.2543,166.0889,700.7349,159.3322,693.529,159.059" style="stroke: #A80036; stroke-width: 1.0;"/><!--MD5=[12d6b2ee7a1b6faf9fe809f483963ab7]
link tictactoe.controllers.Logic to tictactoe.controllers.Controller--><path d="M597.9864,171.2675 C597.9864,171.2675 599.329,194.763 599.953,205.682 " fill="none" id="tictactoe.controllers.Logic-tictactoe.controllers.Controller" style="stroke: #A80036; stroke-width: 1.0;"/><polygon fill="#A80036" points="600.701,218.774,604.1812,209.5605,600.4158,213.7821,596.1942,210.0168,600.701,218.774" style="stroke: #A80036; stroke-width: 1.0;"/><line style="stroke: #A80036; stroke-width: 1.0;" x1="600.4158" x2="599.9595" y1="213.7821" y2="205.7955"/><polygon fill="#A80036" points="597.302,159.287,593.6507,165.5054,597.9864,171.2675,601.6377,165.0491,597.302,159.287" style="stroke: #A80036; stroke-width: 1.0;"/><!--MD5=[096abf58a0a258fd61b5f735b2bb7393]
link tictactoe.controllers.Logic to tictactoe.models.StateValue--><path d="M714.9455,149.9338 C714.9455,149.9338 791.615,191.647 823,219 C897.464,283.9 956.679,386.004 984.578,439.364 " fill="none" id="tictactoe.controllers.Logic-tictactoe.models.StateValue" style="stroke: #A80036; stroke-width: 1.0;"/><polygon fill="#A80036" points="990.676,451.213,990.1142,441.3802,988.388,446.7672,983.001,445.041,990.676,451.213" style="stroke: #A80036; stroke-width: 1.0;"/><line style="stroke: #A80036; stroke-width: 1.0;" x1="988.388" x2="984.7275" y1="446.7672" y2="439.654"/><polygon fill="#A80036" points="704.147,144.7,707.8017,150.9164,714.9455,149.9338,711.2908,143.7174,704.147,144.7" style="stroke: #A80036; stroke-width: 1.0;"/><!--MD5=[5700b97431232c099330215bddfcc855]
reverse link tictactoe.controllers.Controller to tictactoe.controllers.PlayController--><path d="M494.938,316.385 C436.089,337.854 362.669,366.308 299,396 C293.256,398.679 287.425,401.493 281.566,404.398 " fill="none" id="tictactoe.controllers.Controller&lt;-tictactoe.controllers.PlayController" style="stroke: #A80036; stroke-width: 1.0;"/><polygon fill="none" points="492.712,309.746,513.901,309.524,497.476,322.911,492.712,309.746" style="stroke: #A80036; stroke-width: 1.0;"/><!--MD5=[23cbcec275552d5168a12b754cf1cb3c]
link tictactoe.controllers.PlayController to tictactoe.controllers.ControllersVisitor--><path d="M263.974,555.221 C290.246,574.554 317.558,594.653 341.07,611.955 " fill="none" id="tictactoe.controllers.PlayController-&gt;tictactoe.controllers.ControllersVisitor" style="stroke: #A80036; stroke-width: 1.0; stroke-dasharray: 7.0,7.0;"/><polygon fill="#A80036" points="345.112,614.929,340.2331,606.3735,341.0846,611.9659,335.4922,612.8174,345.112,614.929" style="stroke: #A80036; stroke-width: 1.0;"/><!--MD5=[8f435ed2c59169c4603cda7b7477fe61]
reverse link tictactoe.controllers.Controller to tictactoe.controllers.ResultController--><path d="M531.111,350.29 C506.342,374.686 479.197,401.421 456.458,423.818 " fill="none" id="tictactoe.controllers.Controller&lt;-tictactoe.controllers.ResultController" style="stroke: #A80036; stroke-width: 1.0;"/><polygon fill="none" points="526.209,345.294,545.37,336.246,536.033,355.268,526.209,345.294" style="stroke: #A80036; stroke-width: 1.0;"/><!--MD5=[edc9d4bac27d4d7291c8837b0c553710]
link tictactoe.controllers.ResultController to tictactoe.controllers.ControllersVisitor--><path d="M405,527.336 C405,553.143 405,584.355 405,609.911 " fill="none" id="tictactoe.controllers.ResultController-&gt;tictactoe.controllers.ControllersVisitor" style="stroke: #A80036; stroke-width: 1.0; stroke-dasharray: 7.0,7.0;"/><polygon fill="#A80036" points="405,614.944,409,605.944,405,609.944,401,605.944,405,614.944" style="stroke: #A80036; stroke-width: 1.0;"/><!--MD5=[5deb1e5c7bf9906a35de112138d88f9c]
reverse link tictactoe.controllers.Controller to tictactoe.controllers.StartController--><path d="M608.775,356.492 C610.162,379.153 611.641,403.305 612.897,423.818 " fill="none" id="tictactoe.controllers.Controller&lt;-tictactoe.controllers.StartController" style="stroke: #A80036; stroke-width: 1.0;"/><polygon fill="none" points="601.771,356.637,607.535,336.246,615.745,355.781,601.771,356.637" style="stroke: #A80036; stroke-width: 1.0;"/><!--MD5=[3982cc41c3ae9900c4a9f558e21fa5e9]
link tictactoe.controllers.StartController to tictactoe.controllers.ControllersVisitor--><path d="M557.505,527.094 C527.041,553.443 490.004,585.478 460.058,611.379 " fill="none" id="tictactoe.controllers.StartController-&gt;tictactoe.controllers.ControllersVisitor" style="stroke: #A80036; stroke-width: 1.0; stroke-dasharray: 7.0,7.0;"/><polygon fill="#A80036" points="456.068,614.83,465.4914,611.9667,459.8493,611.5587,460.2573,605.9165,456.068,614.83" style="stroke: #A80036; stroke-width: 1.0;"/><!--MD5=[c19a9a6fd2476fe06d14399b4e888ea6]
@startuml

class  tictactoe.controllers.Controller{
# game: Game
# state: State
~ Controller(Game, State)
+ getBoard(): Board
+ {abstract} accept(ControllersVisitor): void
}
tictactoe.controllers.Controller ..> tictactoe.models.Game
tictactoe.controllers.Controller ..> tictactoe.models.State

class  tictactoe.controllers.ControllersVisitor{
~ visit(StartController): void
~ visit(PlayController): void
~ visit(ResultController): void
}

class  tictactoe.controllers.Logic{
- state: State
- game: Game
- controllers: Map<StateValue, Controller>
+ Logic()
+ getController(): Controller
}
tictactoe.controllers.Logic *-down-> tictactoe.models.Game
tictactoe.controllers.Logic *-down-> tictactoe.models.State
tictactoe.controllers.Logic *-down-> tictactoe.controllers.Controller
tictactoe.controllers.Logic *-down-> tictactoe.models.StateValue

class  tictactoe.controllers.PlayController{
+ PlayController(Game, State)
+ getTokenPlayerFromTurn(): Player
+ isBoardComplete(): boolean
+ putTokenPlayerFromTurn(Coordinate): void
+ moveTokenPlayerFromTurn(Coordinate[]): void
+ changeTurn(): void
+ isTicTacToe(): void
+ accept(ControllersVisitor): void
}
tictactoe.controllers.Controller <|-down- tictactoe.controllers.PlayController
tictactoe.controllers.PlayController ..> tictactoe.controllers.ControllersVisitor

class  tictactoe.controllers.ResultController{
+ ResultController(Game, State)
+ finish(): void
+ getOtherValueFromTurn(): int
+ accept(ControllersVisitor): void
}
tictactoe.controllers.Controller <|-down- tictactoe.controllers.ResultController
tictactoe.controllers.ResultController ..> tictactoe.controllers.ControllersVisitor

class  tictactoe.controllers.StartController{
+ StartController(Game, State)
+ start(): void
+ createPlayers(int): void
+ accept(ControllersVisitor): void
}
tictactoe.controllers.Controller <|-down- tictactoe.controllers.StartController
tictactoe.controllers.StartController ..> tictactoe.controllers.ControllersVisitor

@enduml

PlantUML version 1.2020.15(Sun Jun 28 13:39:45 CEST 2020)
(GPL source distribution)
Java Runtime: Java(TM) SE Runtime Environment
JVM: Java HotSpot(TM) 64-Bit Server VM
Default Encoding: windows-1252
Language: es
Country: ES
--></g></svg>