<?xml version="1.0" encoding="UTF-8" standalone="no"?><svg xmlns="http://www.w3.org/2000/svg" xmlns:xlink="http://www.w3.org/1999/xlink" contentScriptType="application/ecmascript" contentStyleType="text/css" height="422px" preserveAspectRatio="none" style="width:934px;height:422px;" version="1.1" viewBox="0 0 934 422" width="934px" zoomAndPan="magnify"><defs><filter height="300%" id="f15y2zfhat4wri" width="300%" x="-1" y="-1"><feGaussianBlur result="blurOut" stdDeviation="2.0"/><feColorMatrix in="blurOut" result="blurOut2" type="matrix" values="0 0 0 0 0 0 0 0 0 0 0 0 0 0 0 0 0 0 .4 0"/><feOffset dx="4.0" dy="4.0" in="blurOut2" result="blurOut3"/><feBlend in="SourceGraphic" in2="blurOut3" mode="normal"/></filter></defs><g><!--MD5=[f4e83a21a957c5b9ba9691e6361db36b]
cluster tictactoe.views--><polygon fill="#FFFFFF" filter="url(#f15y2zfhat4wri)" points="16,6,128,6,135,29.6094,912,29.6094,912,286,16,286,16,6" style="stroke: #000000; stroke-width: 1.5;"/><line style="stroke: #000000; stroke-width: 1.5;" x1="16" x2="135" y1="29.6094" y2="29.6094"/><text fill="#000000" font-family="sans-serif" font-size="14" font-weight="bold" lengthAdjust="spacingAndGlyphs" textLength="106" x="20" y="22.5332">tictactoe.views</text><!--MD5=[ee7e9a007a7c4d40c0679a27f272732d]
cluster tictactoe.controllers--><polygon fill="#FFFFFF" filter="url(#f15y2zfhat4wri)" points="143,310,291,310,298,333.6094,301,333.6094,301,410,143,410,143,310" style="stroke: #000000; stroke-width: 1.5;"/><line style="stroke: #000000; stroke-width: 1.5;" x1="143" x2="298" y1="333.6094" y2="333.6094"/><text fill="#000000" font-family="sans-serif" font-size="14" font-weight="bold" lengthAdjust="spacingAndGlyphs" textLength="142" x="147" y="326.5332">tictactoe.controllers</text><!--MD5=[17799e03bfee0ccb3aa03b93da9c26d6]
class tictactoe.views.ErrorView--><rect fill="#FEFECE" filter="url(#f15y2zfhat4wri)" height="89.5078" id="tictactoe.views.ErrorView" style="stroke: #A80036; stroke-width: 1.5;" width="123" x="772.5" y="111"/><ellipse cx="804.6" cy="127" fill="#ADD1B2" rx="11" ry="11" style="stroke: #A80036; stroke-width: 1.0;"/><path d="M807.3656,122.875 Q807.5219,122.6563 807.7094,122.5469 Q807.8969,122.4375 808.1156,122.4375 Q808.4906,122.4375 808.725,122.7031 Q808.9594,122.9531 808.9594,123.5625 L808.9594,125.0156 Q808.9594,125.625 808.725,125.8906 Q808.4906,126.1563 808.1156,126.1563 Q807.7719,126.1563 807.5688,125.9531 Q807.3656,125.7656 807.2563,125.25 Q807.2094,124.8906 807.0219,124.7031 Q806.6938,124.3281 806.0844,124.1094 Q805.475,123.8906 804.85,123.8906 Q804.0844,123.8906 803.4438,124.2188 Q802.8188,124.5469 802.3188,125.2969 Q801.8344,126.0469 801.8344,127.0781 L801.8344,128.1719 Q801.8344,129.4063 802.725,130.2344 Q803.6156,131.0469 805.2094,131.0469 Q806.1469,131.0469 806.8031,130.7969 Q807.1938,130.6406 807.6156,130.2031 Q807.8813,129.9375 808.0219,129.8594 Q808.1781,129.7813 808.3813,129.7813 Q808.7094,129.7813 808.9594,130.0469 Q809.225,130.2969 809.225,130.6406 Q809.225,130.9844 808.8813,131.3906 Q808.3813,131.9688 807.5844,132.2969 Q806.5063,132.75 805.2094,132.75 Q803.6938,132.75 802.4906,132.125 Q801.5063,131.625 800.8188,130.5625 Q800.1313,129.4844 800.1313,128.2031 L800.1313,127.0469 Q800.1313,125.7188 800.7406,124.5781 Q801.3656,123.4219 802.4594,122.8125 Q803.5531,122.1875 804.7875,122.1875 Q805.5219,122.1875 806.1625,122.3594 Q806.8188,122.5156 807.3656,122.875 Z "/><text fill="#000000" font-family="sans-serif" font-size="12" lengthAdjust="spacingAndGlyphs" textLength="53" x="822.4" y="131.9102">ErrorView</text><line style="stroke: #A80036; stroke-width: 1.5;" x1="773.5" x2="894.5" y1="143" y2="143"/><ellipse cx="783.5" cy="154" fill="none" rx="3" ry="3" style="stroke: #038048; stroke-width: 1.0;"/><text fill="#000000" font-family="sans-serif" font-size="11" lengthAdjust="spacingAndGlyphs" text-decoration="underline" textLength="97" x="792.5" y="158.4189">MESSAGES: String[]</text><polygon fill="none" points="783.5,162.8359,787.5,166.8359,783.5,170.8359,779.5,166.8359" style="stroke: #B38D22; stroke-width: 1.0;"/><text fill="#000000" font-family="sans-serif" font-size="11" lengthAdjust="spacingAndGlyphs" textLength="54" x="792.5" y="172.2549">error: Error</text><line style="stroke: #A80036; stroke-width: 1.5;" x1="773.5" x2="894.5" y1="178.6719" y2="178.6719"/><ellipse cx="783.5" cy="189.6719" fill="#84BE84" rx="3" ry="3" style="stroke: #038048; stroke-width: 1.0;"/><text fill="#000000" font-family="sans-serif" font-size="11" lengthAdjust="spacingAndGlyphs" textLength="82" x="792.5" y="194.0908">ErrorView(Error)</text><!--MD5=[ac4b0e0875a820e87662d988d53b2072]
class tictactoe.views.MessageView--><rect fill="#FEFECE" filter="url(#f15y2zfhat4wri)" height="227.8672" id="tictactoe.views.MessageView" style="stroke: #A80036; stroke-width: 1.5;" width="237" x="500.5" y="42"/><ellipse cx="576.25" cy="58" fill="#EB937F" rx="11" ry="11" style="stroke: #A80036; stroke-width: 1.0;"/><path d="M575.1094,58.7969 L575.1094,61.2969 L579.4375,61.2969 L579.4375,60.375 Q579.4375,59.7656 579.6719,59.5 Q579.9219,59.2344 580.2969,59.2344 Q580.6719,59.2344 580.9063,59.5 Q581.1406,59.7656 581.1406,60.375 L581.1406,63 L573.1406,63 Q572.5156,63 572.25,62.7656 Q572,62.5313 572,62.1406 Q572,61.7656 572.2656,61.5313 Q572.5313,61.2969 573.1406,61.2969 L573.4063,61.2969 L573.4063,54.6406 L573.1406,54.6406 Q572.5156,54.6406 572.25,54.4063 Q572,54.1719 572,53.7813 Q572,53.4063 572.25,53.1719 Q572.5156,52.9375 573.1406,52.9375 L580.7656,52.9375 L580.7656,55.5313 Q580.7656,56.1406 580.5313,56.4063 Q580.3125,56.6563 579.9219,56.6563 Q579.5469,56.6563 579.3125,56.4063 Q579.0781,56.1406 579.0781,55.5313 L579.0781,54.6406 L575.1094,54.6406 L575.1094,57.0938 L576.5938,57.0938 Q576.5938,56.4375 576.7188,56.25 Q576.9844,55.8438 577.4531,55.8438 Q577.8281,55.8438 578.0625,56.1094 Q578.2969,56.3594 578.2969,56.9688 L578.2969,58.9375 Q578.2969,59.4844 578.1719,59.6719 Q577.9063,60.0625 577.4531,60.0625 Q576.9844,60.0625 576.7188,59.6563 Q576.5938,59.4688 576.5938,58.7969 L575.1094,58.7969 Z "/><text fill="#000000" font-family="sans-serif" font-size="12" lengthAdjust="spacingAndGlyphs" textLength="77" x="596.75" y="62.9102">MessageView</text><line style="stroke: #A80036; stroke-width: 1.5;" x1="501.5" x2="736.5" y1="74" y2="74"/><ellipse cx="511.5" cy="85" fill="none" rx="3" ry="3" style="stroke: #038048; stroke-width: 1.0;"/><text fill="#000000" font-family="sans-serif" font-size="11" lengthAdjust="spacingAndGlyphs" textLength="110" x="520.5" y="89.4189">EMPTY: MessageView</text><ellipse cx="511.5" cy="98.8359" fill="none" rx="3" ry="3" style="stroke: #038048; stroke-width: 1.0;"/><text fill="#000000" font-family="sans-serif" font-size="11" lengthAdjust="spacingAndGlyphs" textLength="139" x="520.5" y="103.2549">SEPARATOR: MessageView</text><ellipse cx="511.5" cy="112.6719" fill="none" rx="3" ry="3" style="stroke: #038048; stroke-width: 1.0;"/><text fill="#000000" font-family="sans-serif" font-size="11" lengthAdjust="spacingAndGlyphs" textLength="211" x="520.5" y="117.0908">VERTICAL_LINE_CENTERED: MessageView</text><ellipse cx="511.5" cy="126.5078" fill="none" rx="3" ry="3" style="stroke: #038048; stroke-width: 1.0;"/><text fill="#000000" font-family="sans-serif" font-size="11" lengthAdjust="spacingAndGlyphs" textLength="183" x="520.5" y="130.9268">VERTICAL_LINE_LEFT: MessageView</text><ellipse cx="511.5" cy="140.3438" fill="none" rx="3" ry="3" style="stroke: #038048; stroke-width: 1.0;"/><text fill="#000000" font-family="sans-serif" font-size="11" lengthAdjust="spacingAndGlyphs" textLength="142" x="520.5" y="144.7627">PLAYER_WIN: MessageView</text><ellipse cx="511.5" cy="154.1797" fill="none" rx="3" ry="3" style="stroke: #038048; stroke-width: 1.0;"/><text fill="#000000" font-family="sans-serif" font-size="11" lengthAdjust="spacingAndGlyphs" textLength="146" x="520.5" y="158.5986">START_GAME: MessageView</text><ellipse cx="511.5" cy="168.0156" fill="none" rx="3" ry="3" style="stroke: #038048; stroke-width: 1.0;"/><text fill="#000000" font-family="sans-serif" font-size="11" lengthAdjust="spacingAndGlyphs" textLength="166" x="520.5" y="172.4346">CHOOSE_PLAYER: MessageView</text><ellipse cx="511.5" cy="181.8516" fill="none" rx="3" ry="3" style="stroke: #038048; stroke-width: 1.0;"/><text fill="#000000" font-family="sans-serif" font-size="11" lengthAdjust="spacingAndGlyphs" textLength="135" x="520.5" y="186.2705">READ_ROW: MessageView</text><ellipse cx="511.5" cy="195.6875" fill="none" rx="3" ry="3" style="stroke: #038048; stroke-width: 1.0;"/><text fill="#000000" font-family="sans-serif" font-size="11" lengthAdjust="spacingAndGlyphs" textLength="153" x="520.5" y="200.1064">READ_COLUMN: MessageView</text><ellipse cx="511.5" cy="209.5234" fill="none" rx="3" ry="3" style="stroke: #038048; stroke-width: 1.0;"/><text fill="#000000" font-family="sans-serif" font-size="11" lengthAdjust="spacingAndGlyphs" textLength="111" x="520.5" y="213.9424">ERROR: MessageView</text><rect fill="none" height="6" style="stroke: #C82930; stroke-width: 1.0;" width="6" x="508.5" y="220.3594"/><text fill="#000000" font-family="sans-serif" font-size="11" lengthAdjust="spacingAndGlyphs" textLength="78" x="520.5" y="227.7783">message: String</text><line style="stroke: #A80036; stroke-width: 1.5;" x1="501.5" x2="736.5" y1="234.1953" y2="234.1953"/><rect fill="#F24D5C" height="6" style="stroke: #C82930; stroke-width: 1.0;" width="6" x="508.5" y="242.1953"/><text fill="#000000" font-family="sans-serif" font-size="11" lengthAdjust="spacingAndGlyphs" textLength="106" x="520.5" y="249.6143">MessageView(String)</text><ellipse cx="511.5" cy="259.0313" fill="#84BE84" rx="3" ry="3" style="stroke: #038048; stroke-width: 1.0;"/><text fill="#000000" font-family="sans-serif" font-size="11" lengthAdjust="spacingAndGlyphs" textLength="101" x="520.5" y="263.4502">getMessage(): String</text><!--MD5=[2ae15d20e7f22fd333327d3852982126]
class tictactoe.views.PlayerView--><rect fill="#FEFECE" filter="url(#f15y2zfhat4wri)" height="144.8516" id="tictactoe.views.PlayerView" style="stroke: #A80036; stroke-width: 1.5;" width="298" x="167" y="83.5"/><ellipse cx="281.75" cy="99.5" fill="#ADD1B2" rx="11" ry="11" style="stroke: #A80036; stroke-width: 1.0;"/><path d="M284.5156,95.375 Q284.6719,95.1563 284.8594,95.0469 Q285.0469,94.9375 285.2656,94.9375 Q285.6406,94.9375 285.875,95.2031 Q286.1094,95.4531 286.1094,96.0625 L286.1094,97.5156 Q286.1094,98.125 285.875,98.3906 Q285.6406,98.6563 285.2656,98.6563 Q284.9219,98.6563 284.7188,98.4531 Q284.5156,98.2656 284.4063,97.75 Q284.3594,97.3906 284.1719,97.2031 Q283.8438,96.8281 283.2344,96.6094 Q282.625,96.3906 282,96.3906 Q281.2344,96.3906 280.5938,96.7188 Q279.9688,97.0469 279.4688,97.7969 Q278.9844,98.5469 278.9844,99.5781 L278.9844,100.6719 Q278.9844,101.9063 279.875,102.7344 Q280.7656,103.5469 282.3594,103.5469 Q283.2969,103.5469 283.9531,103.2969 Q284.3438,103.1406 284.7656,102.7031 Q285.0313,102.4375 285.1719,102.3594 Q285.3281,102.2813 285.5313,102.2813 Q285.8594,102.2813 286.1094,102.5469 Q286.375,102.7969 286.375,103.1406 Q286.375,103.4844 286.0313,103.8906 Q285.5313,104.4688 284.7344,104.7969 Q283.6563,105.25 282.3594,105.25 Q280.8438,105.25 279.6406,104.625 Q278.6563,104.125 277.9688,103.0625 Q277.2813,101.9844 277.2813,100.7031 L277.2813,99.5469 Q277.2813,98.2188 277.8906,97.0781 Q278.5156,95.9219 279.6094,95.3125 Q280.7031,94.6875 281.9375,94.6875 Q282.6719,94.6875 283.3125,94.8594 Q283.9688,95.0156 284.5156,95.375 Z "/><text fill="#000000" font-family="sans-serif" font-size="12" lengthAdjust="spacingAndGlyphs" textLength="60" x="302.25" y="104.4102">PlayerView</text><line style="stroke: #A80036; stroke-width: 1.5;" x1="168" x2="464" y1="115.5" y2="115.5"/><polygon fill="none" points="178,121.5,182,125.5,178,129.5,174,125.5" style="stroke: #B38D22; stroke-width: 1.0;"/><text fill="#000000" font-family="sans-serif" font-size="11" lengthAdjust="spacingAndGlyphs" textLength="54" x="187" y="130.9189">logic: Logic</text><line style="stroke: #A80036; stroke-width: 1.5;" x1="168" x2="464" y1="137.3359" y2="137.3359"/><ellipse cx="178" cy="148.3359" fill="#84BE84" rx="3" ry="3" style="stroke: #038048; stroke-width: 1.0;"/><text fill="#000000" font-family="sans-serif" font-size="11" lengthAdjust="spacingAndGlyphs" textLength="90" x="187" y="152.7549">PlayerView(Logic)</text><ellipse cx="178" cy="162.1719" fill="#84BE84" rx="3" ry="3" style="stroke: #038048; stroke-width: 1.0;"/><text fill="#000000" font-family="sans-serif" font-size="11" font-style="italic" lengthAdjust="spacingAndGlyphs" textLength="137" x="187" y="166.5908">readCoordinateToPut(): int[]</text><ellipse cx="178" cy="176.0078" fill="#84BE84" rx="3" ry="3" style="stroke: #038048; stroke-width: 1.0;"/><text fill="#000000" font-family="sans-serif" font-size="11" font-style="italic" lengthAdjust="spacingAndGlyphs" textLength="159" x="187" y="180.4268">readCoordinatesToMove(): int[][]</text><ellipse cx="178" cy="189.8438" fill="#84BE84" rx="3" ry="3" style="stroke: #038048; stroke-width: 1.0;"/><text fill="#000000" font-family="sans-serif" font-size="11" lengthAdjust="spacingAndGlyphs" textLength="196" x="187" y="194.2627">controlErrorsPutCoordinate(int, int): Error</text><ellipse cx="178" cy="203.6797" fill="#84BE84" rx="3" ry="3" style="stroke: #038048; stroke-width: 1.0;"/><text fill="#000000" font-family="sans-serif" font-size="11" lengthAdjust="spacingAndGlyphs" textLength="235" x="187" y="208.0986">controlErrorsMoveOriginCoordinate(int, int): Error</text><ellipse cx="178" cy="217.5156" fill="#84BE84" rx="3" ry="3" style="stroke: #038048; stroke-width: 1.0;"/><text fill="#000000" font-family="sans-serif" font-size="11" lengthAdjust="spacingAndGlyphs" textLength="272" x="187" y="221.9346">controlErrorsMoveTargetCoordinate(int, int, int, int): Error</text><!--MD5=[015754420c4cdd9bacda884b3fa8c6ca]
class tictactoe.views.View--><rect fill="#FEFECE" filter="url(#f15y2zfhat4wri)" height="131.0156" id="tictactoe.views.View" style="stroke: #A80036; stroke-width: 1.5;" width="100" x="32" y="90.5"/><ellipse cx="65.9" cy="106.5" fill="#ADD1B2" rx="11" ry="11" style="stroke: #A80036; stroke-width: 1.0;"/><path d="M68.6656,102.375 Q68.8219,102.1563 69.0094,102.0469 Q69.1969,101.9375 69.4156,101.9375 Q69.7906,101.9375 70.025,102.2031 Q70.2594,102.4531 70.2594,103.0625 L70.2594,104.5156 Q70.2594,105.125 70.025,105.3906 Q69.7906,105.6563 69.4156,105.6563 Q69.0719,105.6563 68.8688,105.4531 Q68.6656,105.2656 68.5563,104.75 Q68.5094,104.3906 68.3219,104.2031 Q67.9938,103.8281 67.3844,103.6094 Q66.775,103.3906 66.15,103.3906 Q65.3844,103.3906 64.7438,103.7188 Q64.1188,104.0469 63.6188,104.7969 Q63.1344,105.5469 63.1344,106.5781 L63.1344,107.6719 Q63.1344,108.9063 64.025,109.7344 Q64.9156,110.5469 66.5094,110.5469 Q67.4469,110.5469 68.1031,110.2969 Q68.4938,110.1406 68.9156,109.7031 Q69.1813,109.4375 69.3219,109.3594 Q69.4781,109.2813 69.6813,109.2813 Q70.0094,109.2813 70.2594,109.5469 Q70.525,109.7969 70.525,110.1406 Q70.525,110.4844 70.1813,110.8906 Q69.6813,111.4688 68.8844,111.7969 Q67.8063,112.25 66.5094,112.25 Q64.9938,112.25 63.7906,111.625 Q62.8063,111.125 62.1188,110.0625 Q61.4313,108.9844 61.4313,107.7031 L61.4313,106.5469 Q61.4313,105.2188 62.0406,104.0781 Q62.6656,102.9219 63.7594,102.3125 Q64.8531,101.6875 66.0875,101.6875 Q66.8219,101.6875 67.4625,101.8594 Q68.1188,102.0156 68.6656,102.375 Z "/><text fill="#000000" font-family="sans-serif" font-size="12" lengthAdjust="spacingAndGlyphs" textLength="26" x="84.1" y="111.4102">View</text><line style="stroke: #A80036; stroke-width: 1.5;" x1="33" x2="131" y1="122.5" y2="122.5"/><polygon fill="none" points="43,128.5,47,132.5,43,136.5,39,132.5" style="stroke: #B38D22; stroke-width: 1.0;"/><text fill="#000000" font-family="sans-serif" font-size="11" lengthAdjust="spacingAndGlyphs" textLength="54" x="52" y="137.9189">logic: Logic</text><line style="stroke: #A80036; stroke-width: 1.5;" x1="33" x2="131" y1="144.3359" y2="144.3359"/><ellipse cx="43" cy="155.3359" fill="#84BE84" rx="3" ry="3" style="stroke: #038048; stroke-width: 1.0;"/><text fill="#000000" font-family="sans-serif" font-size="11" lengthAdjust="spacingAndGlyphs" textLength="60" x="52" y="159.7549">View(Logic)</text><ellipse cx="43" cy="169.1719" fill="#84BE84" rx="3" ry="3" style="stroke: #038048; stroke-width: 1.0;"/><text fill="#000000" font-family="sans-serif" font-size="11" lengthAdjust="spacingAndGlyphs" textLength="70" x="52" y="173.5908">interact(): void</text><polygon fill="#FFFF44" points="43,178.0078,47,182.0078,43,186.0078,39,182.0078" style="stroke: #B38D22; stroke-width: 1.0;"/><text fill="#000000" font-family="sans-serif" font-size="11" font-style="italic" lengthAdjust="spacingAndGlyphs" textLength="56" x="52" y="187.4268">start(): void</text><polygon fill="#FFFF44" points="43,191.8438,47,195.8438,43,199.8438,39,195.8438" style="stroke: #B38D22; stroke-width: 1.0;"/><text fill="#000000" font-family="sans-serif" font-size="11" font-style="italic" lengthAdjust="spacingAndGlyphs" textLength="74" x="52" y="201.2627">play(): boolean</text><polygon fill="#FFFF44" points="43,205.6797,47,209.6797,43,213.6797,39,209.6797" style="stroke: #B38D22; stroke-width: 1.0;"/><text fill="#000000" font-family="sans-serif" font-size="11" font-style="italic" lengthAdjust="spacingAndGlyphs" textLength="62" x="52" y="215.0986">result(): void</text><!--MD5=[3b8962fd5847b9038b2e29740dae8054]
class tictactoe.controllers.Logic--><rect fill="#FEFECE" filter="url(#f15y2zfhat4wri)" height="48" id="tictactoe.controllers.Logic" style="stroke: #A80036; stroke-width: 1.5;" width="62" x="168" y="346"/><ellipse cx="183" cy="362" fill="#ADD1B2" rx="11" ry="11" style="stroke: #A80036; stroke-width: 1.0;"/><path d="M185.7656,357.875 Q185.9219,357.6563 186.1094,357.5469 Q186.2969,357.4375 186.5156,357.4375 Q186.8906,357.4375 187.125,357.7031 Q187.3594,357.9531 187.3594,358.5625 L187.3594,360.0156 Q187.3594,360.625 187.125,360.8906 Q186.8906,361.1563 186.5156,361.1563 Q186.1719,361.1563 185.9688,360.9531 Q185.7656,360.7656 185.6563,360.25 Q185.6094,359.8906 185.4219,359.7031 Q185.0938,359.3281 184.4844,359.1094 Q183.875,358.8906 183.25,358.8906 Q182.4844,358.8906 181.8438,359.2188 Q181.2188,359.5469 180.7188,360.2969 Q180.2344,361.0469 180.2344,362.0781 L180.2344,363.1719 Q180.2344,364.4063 181.125,365.2344 Q182.0156,366.0469 183.6094,366.0469 Q184.5469,366.0469 185.2031,365.7969 Q185.5938,365.6406 186.0156,365.2031 Q186.2813,364.9375 186.4219,364.8594 Q186.5781,364.7813 186.7813,364.7813 Q187.1094,364.7813 187.3594,365.0469 Q187.625,365.2969 187.625,365.6406 Q187.625,365.9844 187.2813,366.3906 Q186.7813,366.9688 185.9844,367.2969 Q184.9063,367.75 183.6094,367.75 Q182.0938,367.75 180.8906,367.125 Q179.9063,366.625 179.2188,365.5625 Q178.5313,364.4844 178.5313,363.2031 L178.5313,362.0469 Q178.5313,360.7188 179.1406,359.5781 Q179.7656,358.4219 180.8594,357.8125 Q181.9531,357.1875 183.1875,357.1875 Q183.9219,357.1875 184.5625,357.3594 Q185.2188,357.5156 185.7656,357.875 Z "/><text fill="#000000" font-family="sans-serif" font-size="12" lengthAdjust="spacingAndGlyphs" textLength="30" x="197" y="366.9102">Logic</text><line style="stroke: #A80036; stroke-width: 1.5;" x1="169" x2="229" y1="378" y2="378"/><line style="stroke: #A80036; stroke-width: 1.5;" x1="169" x2="229" y1="386" y2="386"/><!--MD5=[0826ce6a55dffbd02177a8489a5e7113]
link tictactoe.views.PlayerView to tictactoe.controllers.Logic--><path d="M276.389,228.774 C254.994,267.541 229.822,313.151 214.136,341.5742 " fill="none" id="tictactoe.views.PlayerView-&gt;tictactoe.controllers.Logic" style="stroke: #A80036; stroke-width: 1.0; stroke-dasharray: 7.0,7.0;"/><polygon fill="#A80036" points="211.702,345.9846,219.5531,340.0381,214.1182,341.6071,212.5491,336.1722,211.702,345.9846" style="stroke: #A80036; stroke-width: 1.0;"/><!--MD5=[478401b1d344cb1f18d791b0f2dd26fc]
link tictactoe.views.View to tictactoe.controllers.Logic--><path d="M117.4227,232.3613 C117.4227,232.3613 138.973,274.728 150,294 C157.806,307.643 167.086,322.203 175.459,334.8294 " fill="none" id="tictactoe.views.View-tictactoe.controllers.Logic" style="stroke: #A80036; stroke-width: 1.0;"/><polygon fill="#A80036" points="182.825,345.7998,181.1288,336.0981,180.0378,341.6487,174.4871,340.5577,182.825,345.7998" style="stroke: #A80036; stroke-width: 1.0;"/><line style="stroke: #A80036; stroke-width: 1.0;" x1="180.0378" x2="175.5775" y1="341.6487" y2="335.007"/><polygon fill="#A80036" points="112.119,221.597,111.1827,228.7471,117.4227,232.3613,118.359,225.2113,112.119,221.597" style="stroke: #A80036; stroke-width: 1.0;"/><!--MD5=[a7f034b038bf84f99ddd859ba00470d1]
@startuml

class  tictactoe.views.ErrorView{
+ {static} MESSAGES: String[]
# error: Error
+ ErrorView(Error)
}

enum  tictactoe.views.MessageView{
+ EMPTY: MessageView
+ SEPARATOR: MessageView
+ VERTICAL_LINE_CENTERED: MessageView
+ VERTICAL_LINE_LEFT: MessageView
+	PLAYER_WIN: MessageView
+	START_GAME: MessageView
+	CHOOSE_PLAYER: MessageView
+	READ_ROW: MessageView
+	READ_COLUMN: MessageView
+	ERROR: MessageView
- message: String
- MessageView(String)
+ getMessage(): String
}

class  tictactoe.views.PlayerView{
# logic: Logic
+ PlayerView(Logic)
+ {abstract} readCoordinateToPut(): int[]
+ {abstract} readCoordinatesToMove(): int[][]
+ controlErrorsPutCoordinate(int, int): Error
+ controlErrorsMoveOriginCoordinate(int, int): Error
+ controlErrorsMoveTargetCoordinate(int, int, int, int): Error
}
tictactoe.views.PlayerView ..> tictactoe.controllers.Logic

class  tictactoe.views.View{
# logic: Logic
+ View(Logic)
+ interact(): void
# {abstract} start(): void
# {abstract} play(): boolean
# {abstract} result(): void
}
tictactoe.views.View *-down-> tictactoe.controllers.Logic

@enduml

PlantUML version 1.2020.15(Sun Jun 28 13:39:45 CEST 2020)
(GPL source distribution)
Java Runtime: Java(TM) SE Runtime Environment
JVM: Java HotSpot(TM) 64-Bit Server VM
Default Encoding: windows-1252
Language: es
Country: ES
--></g></svg>