<?xml version="1.0" encoding="UTF-8" standalone="no"?><svg xmlns="http://www.w3.org/2000/svg" xmlns:xlink="http://www.w3.org/1999/xlink" contentScriptType="application/ecmascript" contentStyleType="text/css" height="1505px" preserveAspectRatio="none" style="width:1352px;height:1505px;" version="1.1" viewBox="0 0 1352 1505" width="1352px" zoomAndPan="magnify"><defs><filter height="300%" id="faquzcdcmtgkr" width="300%" x="-1" y="-1"><feGaussianBlur result="blurOut" stdDeviation="2.0"/><feColorMatrix in="blurOut" result="blurOut2" type="matrix" values="0 0 0 0 0 0 0 0 0 0 0 0 0 0 0 0 0 0 .4 0"/><feOffset dx="4.0" dy="4.0" in="blurOut2" result="blurOut3"/><feBlend in="SourceGraphic" in2="blurOut3" mode="normal"/></filter></defs><g><!--MD5=[51cd642fcc96b47682a93d9084d46dec]
cluster tictactoe.models--><polygon fill="#FFFFFF" filter="url(#faquzcdcmtgkr)" points="282,6,404,6,411,29.6094,857,29.6094,857,1369,282,1369,282,6" style="stroke: #000000; stroke-width: 1.5;"/><line style="stroke: #000000; stroke-width: 1.5;" x1="282" x2="411" y1="29.6094" y2="29.6094"/><text fill="#000000" font-family="sans-serif" font-size="14" font-weight="bold" lengthAdjust="spacingAndGlyphs" textLength="116" x="286" y="22.5332">tictactoe.models</text><!--MD5=[2d083dca3cab6023baf6a9cac5f9557f]
cluster tictactoe.types--><polygon fill="#FFFFFF" filter="url(#faquzcdcmtgkr)" points="881,1213.5,990,1213.5,997,1237.1094,1328,1237.1094,1328,1313.5,881,1313.5,881,1213.5" style="stroke: #000000; stroke-width: 1.5;"/><line style="stroke: #000000; stroke-width: 1.5;" x1="881" x2="997" y1="1237.1094" y2="1237.1094"/><text fill="#000000" font-family="sans-serif" font-size="14" font-weight="bold" lengthAdjust="spacingAndGlyphs" textLength="103" x="885" y="1230.0332">tictactoe.types</text><!--MD5=[c52f45833d539af9e29a9d34b8b7302b]
cluster utils--><polygon fill="#FFFFFF" filter="url(#faquzcdcmtgkr)" points="16,974,52,974,59,997.6094,258,997.6094,258,1074,16,1074,16,974" style="stroke: #000000; stroke-width: 1.5;"/><line style="stroke: #000000; stroke-width: 1.5;" x1="16" x2="59" y1="997.6094" y2="997.6094"/><text fill="#000000" font-family="sans-serif" font-size="14" font-weight="bold" lengthAdjust="spacingAndGlyphs" textLength="30" x="20" y="990.5332">utils</text><!--MD5=[7db3c59d38ae5b37b484eb2df9368145]
cluster java.util--><polygon fill="#FFFFFF" filter="url(#faquzcdcmtgkr)" points="343,1393,404,1393,411,1416.6094,455,1416.6094,455,1493,343,1493,343,1393" style="stroke: #000000; stroke-width: 1.5;"/><line style="stroke: #000000; stroke-width: 1.5;" x1="343" x2="411" y1="1416.6094" y2="1416.6094"/><text fill="#000000" font-family="sans-serif" font-size="14" font-weight="bold" lengthAdjust="spacingAndGlyphs" textLength="55" x="347" y="1409.5332">java.util</text><!--MD5=[f2254b5fdbf93effa50eb20dc057829b]
class tictactoe.models.Board--><rect fill="#FEFECE" filter="url(#faquzcdcmtgkr)" height="255.5391" id="tictactoe.models.Board" style="stroke: #A80036; stroke-width: 1.5;" width="298" x="298" y="399"/><ellipse cx="426.25" cy="415" fill="#ADD1B2" rx="11" ry="11" style="stroke: #A80036; stroke-width: 1.0;"/><path d="M429.0156,410.875 Q429.1719,410.6563 429.3594,410.5469 Q429.5469,410.4375 429.7656,410.4375 Q430.1406,410.4375 430.375,410.7031 Q430.6094,410.9531 430.6094,411.5625 L430.6094,413.0156 Q430.6094,413.625 430.375,413.8906 Q430.1406,414.1563 429.7656,414.1563 Q429.4219,414.1563 429.2188,413.9531 Q429.0156,413.7656 428.9063,413.25 Q428.8594,412.8906 428.6719,412.7031 Q428.3438,412.3281 427.7344,412.1094 Q427.125,411.8906 426.5,411.8906 Q425.7344,411.8906 425.0938,412.2188 Q424.4688,412.5469 423.9688,413.2969 Q423.4844,414.0469 423.4844,415.0781 L423.4844,416.1719 Q423.4844,417.4063 424.375,418.2344 Q425.2656,419.0469 426.8594,419.0469 Q427.7969,419.0469 428.4531,418.7969 Q428.8438,418.6406 429.2656,418.2031 Q429.5313,417.9375 429.6719,417.8594 Q429.8281,417.7813 430.0313,417.7813 Q430.3594,417.7813 430.6094,418.0469 Q430.875,418.2969 430.875,418.6406 Q430.875,418.9844 430.5313,419.3906 Q430.0313,419.9688 429.2344,420.2969 Q428.1563,420.75 426.8594,420.75 Q425.3438,420.75 424.1406,420.125 Q423.1563,419.625 422.4688,418.5625 Q421.7813,417.4844 421.7813,416.2031 L421.7813,415.0469 Q421.7813,413.7188 422.3906,412.5781 Q423.0156,411.4219 424.1094,410.8125 Q425.2031,410.1875 426.4375,410.1875 Q427.1719,410.1875 427.8125,410.3594 Q428.4688,410.5156 429.0156,410.875 Z "/><text fill="#000000" font-family="sans-serif" font-size="12" lengthAdjust="spacingAndGlyphs" textLength="33" x="446.75" y="419.9102">Board</text><line style="stroke: #A80036; stroke-width: 1.5;" x1="299" x2="595" y1="431" y2="431"/><ellipse cx="309" cy="442" fill="none" rx="3" ry="3" style="stroke: #038048; stroke-width: 1.0;"/><text fill="#000000" font-family="sans-serif" font-size="11" lengthAdjust="spacingAndGlyphs" text-decoration="underline" textLength="62" x="318" y="446.4189">EMPTY: char</text><rect fill="none" height="6" style="stroke: #C82930; stroke-width: 1.0;" width="6" x="306" y="452.8359"/><text fill="#000000" font-family="sans-serif" font-size="11" lengthAdjust="spacingAndGlyphs" textLength="127" x="318" y="460.2549">coordinates: Coordinate[][]</text><line style="stroke: #A80036; stroke-width: 1.5;" x1="299" x2="595" y1="466.6719" y2="466.6719"/><ellipse cx="309" cy="477.6719" fill="#84BE84" rx="3" ry="3" style="stroke: #038048; stroke-width: 1.0;"/><text fill="#000000" font-family="sans-serif" font-size="11" lengthAdjust="spacingAndGlyphs" textLength="37" x="318" y="482.0908">Board()</text><ellipse cx="309" cy="491.5078" fill="#84BE84" rx="3" ry="3" style="stroke: #038048; stroke-width: 1.0;"/><text fill="#000000" font-family="sans-serif" font-size="11" lengthAdjust="spacingAndGlyphs" textLength="139" x="318" y="495.9268">getToken(Coordinate): Token</text><polygon fill="#4177AF" points="309,501.3438,305,507.3438,313,507.3438" style="stroke: #1963A0; stroke-width: 1.0;"/><text fill="#000000" font-family="sans-serif" font-size="11" lengthAdjust="spacingAndGlyphs" textLength="170" x="318" y="509.7627">move(Coordinate, Coordinate): void</text><polygon fill="#4177AF" points="309,515.1797,305,521.1797,313,521.1797" style="stroke: #1963A0; stroke-width: 1.0;"/><text fill="#000000" font-family="sans-serif" font-size="11" lengthAdjust="spacingAndGlyphs" textLength="136" x="318" y="523.5986">put(Coordinate, Token): void</text><rect fill="#F24D5C" height="6" style="stroke: #C82930; stroke-width: 1.0;" width="6" x="306" y="530.0156"/><text fill="#000000" font-family="sans-serif" font-size="11" lengthAdjust="spacingAndGlyphs" textLength="122" x="318" y="537.4346">remove(Coordinate): void</text><polygon fill="#4177AF" points="309,542.8516,305,548.8516,313,548.8516" style="stroke: #1963A0; stroke-width: 1.0;"/><text fill="#000000" font-family="sans-serif" font-size="11" lengthAdjust="spacingAndGlyphs" textLength="139" x="318" y="551.2705">isTicTacToe(Token): boolean</text><rect fill="#F24D5C" height="6" style="stroke: #C82930; stroke-width: 1.0;" width="6" x="306" y="557.6875"/><text fill="#000000" font-family="sans-serif" font-size="11" lengthAdjust="spacingAndGlyphs" textLength="189" x="318" y="565.1064">numberOfCoordinates(Coordinate[]): int</text><polygon fill="#4177AF" points="309,570.5234,305,576.5234,313,576.5234" style="stroke: #1963A0; stroke-width: 1.0;"/><text fill="#000000" font-family="sans-serif" font-size="11" lengthAdjust="spacingAndGlyphs" textLength="110" x="318" y="578.9424">isCompleted(): boolean</text><ellipse cx="309" cy="588.3594" fill="#84BE84" rx="3" ry="3" style="stroke: #038048; stroke-width: 1.0;"/><text fill="#000000" font-family="sans-serif" font-size="11" lengthAdjust="spacingAndGlyphs" textLength="141" x="318" y="592.7783">isEmpty(Coordinate): boolean</text><polygon fill="#4177AF" points="309,598.1953,305,604.1953,313,604.1953" style="stroke: #1963A0; stroke-width: 1.0;"/><text fill="#000000" font-family="sans-serif" font-size="11" lengthAdjust="spacingAndGlyphs" textLength="193" x="318" y="606.6143">isOccupied(Coordinate, Token): boolean</text><rect fill="#F24D5C" height="6" style="stroke: #C82930; stroke-width: 1.0;" width="6" x="306" y="613.0313"/><text fill="#000000" font-family="sans-serif" font-size="11" lengthAdjust="spacingAndGlyphs" textLength="246" x="318" y="620.4502">checkNumberOfCoordinates(Coordinate[]): boolean</text><rect fill="#F24D5C" height="6" style="stroke: #C82930; stroke-width: 1.0;" width="6" x="306" y="626.8672"/><text fill="#000000" font-family="sans-serif" font-size="11" lengthAdjust="spacingAndGlyphs" textLength="272" x="318" y="634.2861">checkDirectionOfFirstCoordinates(Coordinate[]): boolean</text><rect fill="#F24D5C" height="6" style="stroke: #C82930; stroke-width: 1.0;" width="6" x="306" y="640.7031"/><text fill="#000000" font-family="sans-serif" font-size="11" lengthAdjust="spacingAndGlyphs" textLength="263" x="318" y="648.1221">checkDirectionOfAllCoordinates(Coordinate[]): boolean</text><!--MD5=[55d70ecb9e3ba4786ec1f15d0b7dce13]
class tictactoe.models.Coordinate--><rect fill="#FEFECE" filter="url(#faquzcdcmtgkr)" height="158.6875" id="tictactoe.models.Coordinate" style="stroke: #A80036; stroke-width: 1.5;" width="191" x="303.5" y="1194"/><ellipse cx="364.25" cy="1210" fill="#ADD1B2" rx="11" ry="11" style="stroke: #A80036; stroke-width: 1.0;"/><path d="M367.0156,1205.875 Q367.1719,1205.6563 367.3594,1205.5469 Q367.5469,1205.4375 367.7656,1205.4375 Q368.1406,1205.4375 368.375,1205.7031 Q368.6094,1205.9531 368.6094,1206.5625 L368.6094,1208.0156 Q368.6094,1208.625 368.375,1208.8906 Q368.1406,1209.1563 367.7656,1209.1563 Q367.4219,1209.1563 367.2188,1208.9531 Q367.0156,1208.7656 366.9063,1208.25 Q366.8594,1207.8906 366.6719,1207.7031 Q366.3438,1207.3281 365.7344,1207.1094 Q365.125,1206.8906 364.5,1206.8906 Q363.7344,1206.8906 363.0938,1207.2188 Q362.4688,1207.5469 361.9688,1208.2969 Q361.4844,1209.0469 361.4844,1210.0781 L361.4844,1211.1719 Q361.4844,1212.4063 362.375,1213.2344 Q363.2656,1214.0469 364.8594,1214.0469 Q365.7969,1214.0469 366.4531,1213.7969 Q366.8438,1213.6406 367.2656,1213.2031 Q367.5313,1212.9375 367.6719,1212.8594 Q367.8281,1212.7813 368.0313,1212.7813 Q368.3594,1212.7813 368.6094,1213.0469 Q368.875,1213.2969 368.875,1213.6406 Q368.875,1213.9844 368.5313,1214.3906 Q368.0313,1214.9688 367.2344,1215.2969 Q366.1563,1215.75 364.8594,1215.75 Q363.3438,1215.75 362.1406,1215.125 Q361.1563,1214.625 360.4688,1213.5625 Q359.7813,1212.4844 359.7813,1211.2031 L359.7813,1210.0469 Q359.7813,1208.7188 360.3906,1207.5781 Q361.0156,1206.4219 362.1094,1205.8125 Q363.2031,1205.1875 364.4375,1205.1875 Q365.1719,1205.1875 365.8125,1205.3594 Q366.4688,1205.5156 367.0156,1205.875 Z "/><text fill="#000000" font-family="sans-serif" font-size="12" lengthAdjust="spacingAndGlyphs" textLength="61" x="384.75" y="1214.9102">Coordinate</text><line style="stroke: #A80036; stroke-width: 1.5;" x1="304.5" x2="493.5" y1="1226" y2="1226"/><ellipse cx="314.5" cy="1237" fill="none" rx="3" ry="3" style="stroke: #038048; stroke-width: 1.0;"/><text fill="#000000" font-family="sans-serif" font-size="11" lengthAdjust="spacingAndGlyphs" text-decoration="underline" textLength="82" x="323.5" y="1241.4189">DIMENSION: char</text><line style="stroke: #A80036; stroke-width: 1.5;" x1="304.5" x2="493.5" y1="1247.8359" y2="1247.8359"/><ellipse cx="314.5" cy="1258.8359" fill="#84BE84" rx="3" ry="3" style="stroke: #038048; stroke-width: 1.0;"/><text fill="#000000" font-family="sans-serif" font-size="11" lengthAdjust="spacingAndGlyphs" textLength="60" x="323.5" y="1263.2549">Coordinate()</text><ellipse cx="314.5" cy="1272.6719" fill="#84BE84" rx="3" ry="3" style="stroke: #038048; stroke-width: 1.0;"/><text fill="#000000" font-family="sans-serif" font-size="11" lengthAdjust="spacingAndGlyphs" textLength="88" x="323.5" y="1277.0908">Coordinate(int, int)</text><polygon fill="#4177AF" points="314.5,1282.5078,310.5,1288.5078,318.5,1288.5078" style="stroke: #1963A0; stroke-width: 1.0;"/><text fill="#000000" font-family="sans-serif" font-size="11" lengthAdjust="spacingAndGlyphs" textLength="154" x="323.5" y="1290.9268">inDirection(Coordinate): boolean</text><polygon fill="#4177AF" points="314.5,1296.3438,310.5,1302.3438,318.5,1302.3438" style="stroke: #1963A0; stroke-width: 1.0;"/><text fill="#000000" font-family="sans-serif" font-size="11" lengthAdjust="spacingAndGlyphs" textLength="165" x="323.5" y="1304.7627">getDirection(Coordinate): Direction</text><rect fill="#F24D5C" height="6" style="stroke: #C82930; stroke-width: 1.0;" width="6" x="311.5" y="1311.1797"/><text fill="#000000" font-family="sans-serif" font-size="11" lengthAdjust="spacingAndGlyphs" textLength="137" x="323.5" y="1318.5986">inInverseDiagonal(): boolean</text><ellipse cx="314.5" cy="1328.0156" fill="#84BE84" rx="3" ry="3" style="stroke: #038048; stroke-width: 1.0;"/><text fill="#000000" font-family="sans-serif" font-size="11" lengthAdjust="spacingAndGlyphs" textLength="84" x="323.5" y="1332.4346">isValid(): boolean</text><ellipse cx="314.5" cy="1341.8516" fill="#84BE84" rx="3" ry="3" style="stroke: #038048; stroke-width: 1.0;"/><text fill="#000000" font-family="sans-serif" font-size="11" lengthAdjust="spacingAndGlyphs" textLength="70" x="323.5" y="1346.2705">random(): void</text><!--MD5=[b42b9147ed7462532394f7fe6f96703d]
class tictactoe.models.Turn--><rect fill="#FEFECE" filter="url(#faquzcdcmtgkr)" height="158.6875" id="tictactoe.models.Turn" style="stroke: #A80036; stroke-width: 1.5;" width="142" x="491" y="715"/><ellipse cx="545.25" cy="731" fill="#ADD1B2" rx="11" ry="11" style="stroke: #A80036; stroke-width: 1.0;"/><path d="M548.0156,726.875 Q548.1719,726.6563 548.3594,726.5469 Q548.5469,726.4375 548.7656,726.4375 Q549.1406,726.4375 549.375,726.7031 Q549.6094,726.9531 549.6094,727.5625 L549.6094,729.0156 Q549.6094,729.625 549.375,729.8906 Q549.1406,730.1563 548.7656,730.1563 Q548.4219,730.1563 548.2188,729.9531 Q548.0156,729.7656 547.9063,729.25 Q547.8594,728.8906 547.6719,728.7031 Q547.3438,728.3281 546.7344,728.1094 Q546.125,727.8906 545.5,727.8906 Q544.7344,727.8906 544.0938,728.2188 Q543.4688,728.5469 542.9688,729.2969 Q542.4844,730.0469 542.4844,731.0781 L542.4844,732.1719 Q542.4844,733.4063 543.375,734.2344 Q544.2656,735.0469 545.8594,735.0469 Q546.7969,735.0469 547.4531,734.7969 Q547.8438,734.6406 548.2656,734.2031 Q548.5313,733.9375 548.6719,733.8594 Q548.8281,733.7813 549.0313,733.7813 Q549.3594,733.7813 549.6094,734.0469 Q549.875,734.2969 549.875,734.6406 Q549.875,734.9844 549.5313,735.3906 Q549.0313,735.9688 548.2344,736.2969 Q547.1563,736.75 545.8594,736.75 Q544.3438,736.75 543.1406,736.125 Q542.1563,735.625 541.4688,734.5625 Q540.7813,733.4844 540.7813,732.2031 L540.7813,731.0469 Q540.7813,729.7188 541.3906,728.5781 Q542.0156,727.4219 543.1094,726.8125 Q544.2031,726.1875 545.4375,726.1875 Q546.1719,726.1875 546.8125,726.3594 Q547.4688,726.5156 548.0156,726.875 Z "/><text fill="#000000" font-family="sans-serif" font-size="12" lengthAdjust="spacingAndGlyphs" textLength="25" x="565.75" y="735.9102">Turn</text><line style="stroke: #A80036; stroke-width: 1.5;" x1="492" x2="632" y1="747" y2="747"/><ellipse cx="502" cy="758" fill="none" rx="3" ry="3" style="stroke: #038048; stroke-width: 1.0;"/><text fill="#000000" font-family="sans-serif" font-size="11" lengthAdjust="spacingAndGlyphs" text-decoration="underline" textLength="65" x="511" y="762.4189">PLAYERS: int</text><rect fill="none" height="6" style="stroke: #C82930; stroke-width: 1.0;" width="6" x="499" y="768.8359"/><text fill="#000000" font-family="sans-serif" font-size="11" lengthAdjust="spacingAndGlyphs" textLength="43" x="511" y="776.2549">value: int</text><rect fill="none" height="6" style="stroke: #C82930; stroke-width: 1.0;" width="6" x="499" y="782.6719"/><text fill="#000000" font-family="sans-serif" font-size="11" lengthAdjust="spacingAndGlyphs" textLength="78" x="511" y="790.0908">players: Player[]</text><line style="stroke: #A80036; stroke-width: 1.5;" x1="492" x2="632" y1="796.5078" y2="796.5078"/><ellipse cx="502" cy="807.5078" fill="#84BE84" rx="3" ry="3" style="stroke: #038048; stroke-width: 1.0;"/><text fill="#000000" font-family="sans-serif" font-size="11" lengthAdjust="spacingAndGlyphs" textLength="66" x="511" y="811.9268">Turn(Player[])</text><polygon fill="#4177AF" points="502,817.3438,498,823.3438,506,823.3438" style="stroke: #1963A0; stroke-width: 1.0;"/><text fill="#000000" font-family="sans-serif" font-size="11" lengthAdjust="spacingAndGlyphs" textLength="70" x="511" y="825.7627">change(): void</text><polygon fill="#4177AF" points="502,831.1797,498,837.1797,506,837.1797" style="stroke: #1963A0; stroke-width: 1.0;"/><text fill="#000000" font-family="sans-serif" font-size="11" lengthAdjust="spacingAndGlyphs" textLength="89" x="511" y="839.5986">getPlayer(): Player</text><polygon fill="#4177AF" points="502,845.0156,498,851.0156,506,851.0156" style="stroke: #1963A0; stroke-width: 1.0;"/><text fill="#000000" font-family="sans-serif" font-size="11" lengthAdjust="spacingAndGlyphs" textLength="95" x="511" y="853.4346">getOtherValue(): int</text><polygon fill="#4177AF" points="502,858.8516,498,864.8516,506,864.8516" style="stroke: #1963A0; stroke-width: 1.0;"/><text fill="#000000" font-family="sans-serif" font-size="11" lengthAdjust="spacingAndGlyphs" textLength="116" x="511" y="867.2705">getOtherPlayer(): Player</text><!--MD5=[8d3188f3c370ea7d5d91d12bca83b67a]
class tictactoe.models.Game--><rect fill="#FEFECE" filter="url(#faquzcdcmtgkr)" height="297.0469" id="tictactoe.models.Game" style="stroke: #A80036; stroke-width: 1.5;" width="346" x="298" y="42"/><ellipse cx="449.75" cy="58" fill="#ADD1B2" rx="11" ry="11" style="stroke: #A80036; stroke-width: 1.0;"/><path d="M452.5156,53.875 Q452.6719,53.6563 452.8594,53.5469 Q453.0469,53.4375 453.2656,53.4375 Q453.6406,53.4375 453.875,53.7031 Q454.1094,53.9531 454.1094,54.5625 L454.1094,56.0156 Q454.1094,56.625 453.875,56.8906 Q453.6406,57.1563 453.2656,57.1563 Q452.9219,57.1563 452.7188,56.9531 Q452.5156,56.7656 452.4063,56.25 Q452.3594,55.8906 452.1719,55.7031 Q451.8438,55.3281 451.2344,55.1094 Q450.625,54.8906 450,54.8906 Q449.2344,54.8906 448.5938,55.2188 Q447.9688,55.5469 447.4688,56.2969 Q446.9844,57.0469 446.9844,58.0781 L446.9844,59.1719 Q446.9844,60.4063 447.875,61.2344 Q448.7656,62.0469 450.3594,62.0469 Q451.2969,62.0469 451.9531,61.7969 Q452.3438,61.6406 452.7656,61.2031 Q453.0313,60.9375 453.1719,60.8594 Q453.3281,60.7813 453.5313,60.7813 Q453.8594,60.7813 454.1094,61.0469 Q454.375,61.2969 454.375,61.6406 Q454.375,61.9844 454.0313,62.3906 Q453.5313,62.9688 452.7344,63.2969 Q451.6563,63.75 450.3594,63.75 Q448.8438,63.75 447.6406,63.125 Q446.6563,62.625 445.9688,61.5625 Q445.2813,60.4844 445.2813,59.2031 L445.2813,58.0469 Q445.2813,56.7188 445.8906,55.5781 Q446.5156,54.4219 447.6094,53.8125 Q448.7031,53.1875 449.9375,53.1875 Q450.6719,53.1875 451.3125,53.3594 Q451.9688,53.5156 452.5156,53.875 Z "/><text fill="#000000" font-family="sans-serif" font-size="12" lengthAdjust="spacingAndGlyphs" textLength="34" x="470.25" y="62.9102">Game</text><line style="stroke: #A80036; stroke-width: 1.5;" x1="299" x2="643" y1="74" y2="74"/><rect fill="none" height="6" style="stroke: #C82930; stroke-width: 1.0;" width="6" x="306" y="82"/><text fill="#000000" font-family="sans-serif" font-size="11" lengthAdjust="spacingAndGlyphs" textLength="63" x="318" y="89.4189">board: Board</text><rect fill="none" height="6" style="stroke: #C82930; stroke-width: 1.0;" width="6" x="306" y="95.8359"/><text fill="#000000" font-family="sans-serif" font-size="11" lengthAdjust="spacingAndGlyphs" textLength="84" x="318" y="103.2549">players: Player[][]</text><rect fill="none" height="6" style="stroke: #C82930; stroke-width: 1.0;" width="6" x="306" y="109.6719"/><text fill="#000000" font-family="sans-serif" font-size="11" lengthAdjust="spacingAndGlyphs" textLength="47" x="318" y="117.0908">turn: Turn</text><line style="stroke: #A80036; stroke-width: 1.5;" x1="299" x2="643" y1="123.5078" y2="123.5078"/><ellipse cx="309" cy="134.5078" fill="#84BE84" rx="3" ry="3" style="stroke: #038048; stroke-width: 1.0;"/><text fill="#000000" font-family="sans-serif" font-size="11" lengthAdjust="spacingAndGlyphs" textLength="36" x="318" y="138.9268">Game()</text><ellipse cx="309" cy="148.3438" fill="#84BE84" rx="3" ry="3" style="stroke: #038048; stroke-width: 1.0;"/><text fill="#000000" font-family="sans-serif" font-size="11" lengthAdjust="spacingAndGlyphs" textLength="112" x="318" y="152.7627">createPlayers(int): void</text><ellipse cx="309" cy="162.1797" fill="#84BE84" rx="3" ry="3" style="stroke: #038048; stroke-width: 1.0;"/><text fill="#000000" font-family="sans-serif" font-size="11" lengthAdjust="spacingAndGlyphs" textLength="87" x="318" y="166.5986">getBoard(): Board</text><ellipse cx="309" cy="176.0156" fill="#84BE84" rx="3" ry="3" style="stroke: #038048; stroke-width: 1.0;"/><text fill="#000000" font-family="sans-serif" font-size="11" lengthAdjust="spacingAndGlyphs" textLength="133" x="318" y="180.4346">isBoardComplete(): boolean</text><ellipse cx="309" cy="189.8516" fill="#84BE84" rx="3" ry="3" style="stroke: #038048; stroke-width: 1.0;"/><text fill="#000000" font-family="sans-serif" font-size="11" lengthAdjust="spacingAndGlyphs" textLength="206" x="318" y="194.2705">putTokenPlayerFromTurn(Coordinate): void</text><ellipse cx="309" cy="203.6875" fill="#84BE84" rx="3" ry="3" style="stroke: #038048; stroke-width: 1.0;"/><text fill="#000000" font-family="sans-serif" font-size="11" lengthAdjust="spacingAndGlyphs" textLength="223" x="318" y="208.1064">moveTokenPlayerFromTurn(Coordinate[]): void</text><ellipse cx="309" cy="217.5234" fill="#84BE84" rx="3" ry="3" style="stroke: #038048; stroke-width: 1.0;"/><text fill="#000000" font-family="sans-serif" font-size="11" lengthAdjust="spacingAndGlyphs" textLength="175" x="318" y="221.9424">getTokenPlayerFromTurn(int): Player</text><ellipse cx="309" cy="231.3594" fill="#84BE84" rx="3" ry="3" style="stroke: #038048; stroke-width: 1.0;"/><text fill="#000000" font-family="sans-serif" font-size="11" lengthAdjust="spacingAndGlyphs" textLength="224" x="318" y="235.7783">getTypeOfTokenPlayerFromTurn(): PlayerType</text><ellipse cx="309" cy="245.1953" fill="#84BE84" rx="3" ry="3" style="stroke: #038048; stroke-width: 1.0;"/><text fill="#000000" font-family="sans-serif" font-size="11" lengthAdjust="spacingAndGlyphs" textLength="220" x="318" y="249.6143">controlErrorsPutCoordinate(Coordinate): Error</text><ellipse cx="309" cy="259.0313" fill="#84BE84" rx="3" ry="3" style="stroke: #038048; stroke-width: 1.0;"/><text fill="#000000" font-family="sans-serif" font-size="11" lengthAdjust="spacingAndGlyphs" textLength="259" x="318" y="263.4502">controlErrorsMoveOriginCoordinate(Coordinate): Error</text><ellipse cx="309" cy="272.8672" fill="#84BE84" rx="3" ry="3" style="stroke: #038048; stroke-width: 1.0;"/><text fill="#000000" font-family="sans-serif" font-size="11" lengthAdjust="spacingAndGlyphs" textLength="320" x="318" y="277.2861">controlErrorsMoveTargetCoordinate(Coordinate, Coordinate): Error</text><ellipse cx="309" cy="286.7031" fill="#84BE84" rx="3" ry="3" style="stroke: #038048; stroke-width: 1.0;"/><text fill="#000000" font-family="sans-serif" font-size="11" lengthAdjust="spacingAndGlyphs" textLength="115" x="318" y="291.1221">getToken(int, int): Token</text><ellipse cx="309" cy="300.5391" fill="#84BE84" rx="3" ry="3" style="stroke: #038048; stroke-width: 1.0;"/><text fill="#000000" font-family="sans-serif" font-size="11" lengthAdjust="spacingAndGlyphs" textLength="92" x="318" y="304.958">changeTurn(): void</text><ellipse cx="309" cy="314.375" fill="#84BE84" rx="3" ry="3" style="stroke: #038048; stroke-width: 1.0;"/><text fill="#000000" font-family="sans-serif" font-size="11" lengthAdjust="spacingAndGlyphs" textLength="110" x="318" y="318.7939">isTicTacToe(): boolean</text><ellipse cx="309" cy="328.2109" fill="#84BE84" rx="3" ry="3" style="stroke: #038048; stroke-width: 1.0;"/><text fill="#000000" font-family="sans-serif" font-size="11" lengthAdjust="spacingAndGlyphs" textLength="141" x="318" y="332.6299">getOtherValueFromTurn(): int</text><!--MD5=[3b54484399e9c5d8797124604fd4af65]
class tictactoe.models.Player--><rect fill="#FEFECE" filter="url(#faquzcdcmtgkr)" height="200.1953" id="tictactoe.models.Player" style="stroke: #A80036; stroke-width: 1.5;" width="346" x="495" y="934"/><ellipse cx="646.75" cy="950" fill="#ADD1B2" rx="11" ry="11" style="stroke: #A80036; stroke-width: 1.0;"/><path d="M649.5156,945.875 Q649.6719,945.6563 649.8594,945.5469 Q650.0469,945.4375 650.2656,945.4375 Q650.6406,945.4375 650.875,945.7031 Q651.1094,945.9531 651.1094,946.5625 L651.1094,948.0156 Q651.1094,948.625 650.875,948.8906 Q650.6406,949.1563 650.2656,949.1563 Q649.9219,949.1563 649.7188,948.9531 Q649.5156,948.7656 649.4063,948.25 Q649.3594,947.8906 649.1719,947.7031 Q648.8438,947.3281 648.2344,947.1094 Q647.625,946.8906 647,946.8906 Q646.2344,946.8906 645.5938,947.2188 Q644.9688,947.5469 644.4688,948.2969 Q643.9844,949.0469 643.9844,950.0781 L643.9844,951.1719 Q643.9844,952.4063 644.875,953.2344 Q645.7656,954.0469 647.3594,954.0469 Q648.2969,954.0469 648.9531,953.7969 Q649.3438,953.6406 649.7656,953.2031 Q650.0313,952.9375 650.1719,952.8594 Q650.3281,952.7813 650.5313,952.7813 Q650.8594,952.7813 651.1094,953.0469 Q651.375,953.2969 651.375,953.6406 Q651.375,953.9844 651.0313,954.3906 Q650.5313,954.9688 649.7344,955.2969 Q648.6563,955.75 647.3594,955.75 Q645.8438,955.75 644.6406,955.125 Q643.6563,954.625 642.9688,953.5625 Q642.2813,952.4844 642.2813,951.2031 L642.2813,950.0469 Q642.2813,948.7188 642.8906,947.5781 Q643.5156,946.4219 644.6094,945.8125 Q645.7031,945.1875 646.9375,945.1875 Q647.6719,945.1875 648.3125,945.3594 Q648.9688,945.5156 649.5156,945.875 Z "/><text fill="#000000" font-family="sans-serif" font-size="12" lengthAdjust="spacingAndGlyphs" textLength="34" x="667.25" y="954.9102">Player</text><line style="stroke: #A80036; stroke-width: 1.5;" x1="496" x2="840" y1="966" y2="966"/><rect fill="none" height="6" style="stroke: #C82930; stroke-width: 1.0;" width="6" x="503" y="974"/><text fill="#000000" font-family="sans-serif" font-size="11" lengthAdjust="spacingAndGlyphs" textLength="61" x="515" y="981.4189">token: Token</text><rect fill="none" height="6" style="stroke: #C82930; stroke-width: 1.0;" width="6" x="503" y="987.8359"/><text fill="#000000" font-family="sans-serif" font-size="11" lengthAdjust="spacingAndGlyphs" textLength="63" x="515" y="995.2549">board: Board</text><rect fill="none" height="6" style="stroke: #C82930; stroke-width: 1.0;" width="6" x="503" y="1001.6719"/><text fill="#000000" font-family="sans-serif" font-size="11" lengthAdjust="spacingAndGlyphs" textLength="81" x="515" y="1009.0908">type: PlayerType</text><line style="stroke: #A80036; stroke-width: 1.5;" x1="496" x2="840" y1="1015.5078" y2="1015.5078"/><ellipse cx="506" cy="1026.5078" fill="#84BE84" rx="3" ry="3" style="stroke: #038048; stroke-width: 1.0;"/><text fill="#000000" font-family="sans-serif" font-size="11" lengthAdjust="spacingAndGlyphs" textLength="162" x="515" y="1030.9268">Player(Token, Board, PlayerType)</text><ellipse cx="506" cy="1040.3438" fill="#84BE84" rx="3" ry="3" style="stroke: #038048; stroke-width: 1.0;"/><text fill="#000000" font-family="sans-serif" font-size="11" lengthAdjust="spacingAndGlyphs" textLength="107" x="515" y="1044.7627">getType(): PlayerType</text><polygon fill="#4177AF" points="506,1050.1797,502,1056.1797,510,1056.1797" style="stroke: #1963A0; stroke-width: 1.0;"/><text fill="#000000" font-family="sans-serif" font-size="11" lengthAdjust="spacingAndGlyphs" textLength="87" x="515" y="1058.5986">getToken(): Token</text><polygon fill="#4177AF" points="506,1064.0156,502,1070.0156,510,1070.0156" style="stroke: #1963A0; stroke-width: 1.0;"/><text fill="#000000" font-family="sans-serif" font-size="11" lengthAdjust="spacingAndGlyphs" textLength="101" x="515" y="1072.4346">put(Coordinate): void</text><polygon fill="#4177AF" points="506,1077.8516,502,1083.8516,510,1083.8516" style="stroke: #1963A0; stroke-width: 1.0;"/><text fill="#000000" font-family="sans-serif" font-size="11" lengthAdjust="spacingAndGlyphs" textLength="118" x="515" y="1086.2705">move(Coordinate[]): void</text><ellipse cx="506" cy="1095.6875" fill="#84BE84" rx="3" ry="3" style="stroke: #038048; stroke-width: 1.0;"/><text fill="#000000" font-family="sans-serif" font-size="11" lengthAdjust="spacingAndGlyphs" textLength="220" x="515" y="1100.1064">controlErrorsPutCoordinate(Coordinate): Error</text><ellipse cx="506" cy="1109.5234" fill="#84BE84" rx="3" ry="3" style="stroke: #038048; stroke-width: 1.0;"/><text fill="#000000" font-family="sans-serif" font-size="11" lengthAdjust="spacingAndGlyphs" textLength="259" x="515" y="1113.9424">controlErrorsMoveOriginCoordinate(Coordinate): Error</text><ellipse cx="506" cy="1123.3594" fill="#84BE84" rx="3" ry="3" style="stroke: #038048; stroke-width: 1.0;"/><text fill="#000000" font-family="sans-serif" font-size="11" lengthAdjust="spacingAndGlyphs" textLength="320" x="515" y="1127.7783">controlErrorsMoveTargetCoordinate(Coordinate, Coordinate): Error</text><!--MD5=[895b6132a90c2908aef15a128e2ee1f5]
class tictactoe.models.State--><rect fill="#FEFECE" filter="url(#faquzcdcmtgkr)" height="103.3438" id="tictactoe.models.State" style="stroke: #A80036; stroke-width: 1.5;" width="161" x="679.5" y="139"/><ellipse cx="741.75" cy="155" fill="#ADD1B2" rx="11" ry="11" style="stroke: #A80036; stroke-width: 1.0;"/><path d="M744.5156,150.875 Q744.6719,150.6563 744.8594,150.5469 Q745.0469,150.4375 745.2656,150.4375 Q745.6406,150.4375 745.875,150.7031 Q746.1094,150.9531 746.1094,151.5625 L746.1094,153.0156 Q746.1094,153.625 745.875,153.8906 Q745.6406,154.1563 745.2656,154.1563 Q744.9219,154.1563 744.7188,153.9531 Q744.5156,153.7656 744.4063,153.25 Q744.3594,152.8906 744.1719,152.7031 Q743.8438,152.3281 743.2344,152.1094 Q742.625,151.8906 742,151.8906 Q741.2344,151.8906 740.5938,152.2188 Q739.9688,152.5469 739.4688,153.2969 Q738.9844,154.0469 738.9844,155.0781 L738.9844,156.1719 Q738.9844,157.4063 739.875,158.2344 Q740.7656,159.0469 742.3594,159.0469 Q743.2969,159.0469 743.9531,158.7969 Q744.3438,158.6406 744.7656,158.2031 Q745.0313,157.9375 745.1719,157.8594 Q745.3281,157.7813 745.5313,157.7813 Q745.8594,157.7813 746.1094,158.0469 Q746.375,158.2969 746.375,158.6406 Q746.375,158.9844 746.0313,159.3906 Q745.5313,159.9688 744.7344,160.2969 Q743.6563,160.75 742.3594,160.75 Q740.8438,160.75 739.6406,160.125 Q738.6563,159.625 737.9688,158.5625 Q737.2813,157.4844 737.2813,156.2031 L737.2813,155.0469 Q737.2813,153.7188 737.8906,152.5781 Q738.5156,151.4219 739.6094,150.8125 Q740.7031,150.1875 741.9375,150.1875 Q742.6719,150.1875 743.3125,150.3594 Q743.9688,150.5156 744.5156,150.875 Z "/><text fill="#000000" font-family="sans-serif" font-size="12" lengthAdjust="spacingAndGlyphs" textLength="28" x="762.25" y="159.9102">State</text><line style="stroke: #A80036; stroke-width: 1.5;" x1="680.5" x2="839.5" y1="171" y2="171"/><rect fill="none" height="6" style="stroke: #C82930; stroke-width: 1.0;" width="6" x="687.5" y="179"/><text fill="#000000" font-family="sans-serif" font-size="11" lengthAdjust="spacingAndGlyphs" textLength="111" x="699.5" y="186.4189">stateValue: StateValue</text><line style="stroke: #A80036; stroke-width: 1.5;" x1="680.5" x2="839.5" y1="192.8359" y2="192.8359"/><ellipse cx="690.5" cy="203.8359" fill="#84BE84" rx="3" ry="3" style="stroke: #038048; stroke-width: 1.0;"/><text fill="#000000" font-family="sans-serif" font-size="11" lengthAdjust="spacingAndGlyphs" textLength="33" x="699.5" y="208.2549">State()</text><ellipse cx="690.5" cy="217.6719" fill="#84BE84" rx="3" ry="3" style="stroke: #038048; stroke-width: 1.0;"/><text fill="#000000" font-family="sans-serif" font-size="11" lengthAdjust="spacingAndGlyphs" textLength="55" x="699.5" y="222.0908">next(): void</text><ellipse cx="690.5" cy="231.5078" fill="#84BE84" rx="3" ry="3" style="stroke: #038048; stroke-width: 1.0;"/><text fill="#000000" font-family="sans-serif" font-size="11" lengthAdjust="spacingAndGlyphs" textLength="135" x="699.5" y="235.9268">getValueState(): StateValue</text><!--MD5=[3b37da8b6e7a1800631cf51c5954ec17]
class tictactoe.types.Token--><rect fill="#FEFECE" filter="url(#faquzcdcmtgkr)" height="48" id="tictactoe.types.Token" style="stroke: #A80036; stroke-width: 1.5;" width="66" x="992" y="1249.5"/><ellipse cx="1007" cy="1265.5" fill="#ADD1B2" rx="11" ry="11" style="stroke: #A80036; stroke-width: 1.0;"/><path d="M1009.7656,1261.375 Q1009.9219,1261.1563 1010.1094,1261.0469 Q1010.2969,1260.9375 1010.5156,1260.9375 Q1010.8906,1260.9375 1011.125,1261.2031 Q1011.3594,1261.4531 1011.3594,1262.0625 L1011.3594,1263.5156 Q1011.3594,1264.125 1011.125,1264.3906 Q1010.8906,1264.6563 1010.5156,1264.6563 Q1010.1719,1264.6563 1009.9688,1264.4531 Q1009.7656,1264.2656 1009.6563,1263.75 Q1009.6094,1263.3906 1009.4219,1263.2031 Q1009.0938,1262.8281 1008.4844,1262.6094 Q1007.875,1262.3906 1007.25,1262.3906 Q1006.4844,1262.3906 1005.8438,1262.7188 Q1005.2188,1263.0469 1004.7188,1263.7969 Q1004.2344,1264.5469 1004.2344,1265.5781 L1004.2344,1266.6719 Q1004.2344,1267.9063 1005.125,1268.7344 Q1006.0156,1269.5469 1007.6094,1269.5469 Q1008.5469,1269.5469 1009.2031,1269.2969 Q1009.5938,1269.1406 1010.0156,1268.7031 Q1010.2813,1268.4375 1010.4219,1268.3594 Q1010.5781,1268.2813 1010.7813,1268.2813 Q1011.1094,1268.2813 1011.3594,1268.5469 Q1011.625,1268.7969 1011.625,1269.1406 Q1011.625,1269.4844 1011.2813,1269.8906 Q1010.7813,1270.4688 1009.9844,1270.7969 Q1008.9063,1271.25 1007.6094,1271.25 Q1006.0938,1271.25 1004.8906,1270.625 Q1003.9063,1270.125 1003.2188,1269.0625 Q1002.5313,1267.9844 1002.5313,1266.7031 L1002.5313,1265.5469 Q1002.5313,1264.2188 1003.1406,1263.0781 Q1003.7656,1261.9219 1004.8594,1261.3125 Q1005.9531,1260.6875 1007.1875,1260.6875 Q1007.9219,1260.6875 1008.5625,1260.8594 Q1009.2188,1261.0156 1009.7656,1261.375 Z "/><text fill="#000000" font-family="sans-serif" font-size="12" lengthAdjust="spacingAndGlyphs" textLength="34" x="1021" y="1270.4102">Token</text><line style="stroke: #A80036; stroke-width: 1.5;" x1="993" x2="1057" y1="1281.5" y2="1281.5"/><line style="stroke: #A80036; stroke-width: 1.5;" x1="993" x2="1057" y1="1289.5" y2="1289.5"/><!--MD5=[8016c4b7c5b6e1d0c1906a688d612470]
class tictactoe.types.PlayerType--><rect fill="#FEFECE" filter="url(#faquzcdcmtgkr)" height="48" id="tictactoe.types.PlayerType" style="stroke: #A80036; stroke-width: 1.5;" width="92" x="1093" y="1249.5"/><ellipse cx="1108" cy="1265.5" fill="#ADD1B2" rx="11" ry="11" style="stroke: #A80036; stroke-width: 1.0;"/><path d="M1110.7656,1261.375 Q1110.9219,1261.1563 1111.1094,1261.0469 Q1111.2969,1260.9375 1111.5156,1260.9375 Q1111.8906,1260.9375 1112.125,1261.2031 Q1112.3594,1261.4531 1112.3594,1262.0625 L1112.3594,1263.5156 Q1112.3594,1264.125 1112.125,1264.3906 Q1111.8906,1264.6563 1111.5156,1264.6563 Q1111.1719,1264.6563 1110.9688,1264.4531 Q1110.7656,1264.2656 1110.6563,1263.75 Q1110.6094,1263.3906 1110.4219,1263.2031 Q1110.0938,1262.8281 1109.4844,1262.6094 Q1108.875,1262.3906 1108.25,1262.3906 Q1107.4844,1262.3906 1106.8438,1262.7188 Q1106.2188,1263.0469 1105.7188,1263.7969 Q1105.2344,1264.5469 1105.2344,1265.5781 L1105.2344,1266.6719 Q1105.2344,1267.9063 1106.125,1268.7344 Q1107.0156,1269.5469 1108.6094,1269.5469 Q1109.5469,1269.5469 1110.2031,1269.2969 Q1110.5938,1269.1406 1111.0156,1268.7031 Q1111.2813,1268.4375 1111.4219,1268.3594 Q1111.5781,1268.2813 1111.7813,1268.2813 Q1112.1094,1268.2813 1112.3594,1268.5469 Q1112.625,1268.7969 1112.625,1269.1406 Q1112.625,1269.4844 1112.2813,1269.8906 Q1111.7813,1270.4688 1110.9844,1270.7969 Q1109.9063,1271.25 1108.6094,1271.25 Q1107.0938,1271.25 1105.8906,1270.625 Q1104.9063,1270.125 1104.2188,1269.0625 Q1103.5313,1267.9844 1103.5313,1266.7031 L1103.5313,1265.5469 Q1103.5313,1264.2188 1104.1406,1263.0781 Q1104.7656,1261.9219 1105.8594,1261.3125 Q1106.9531,1260.6875 1108.1875,1260.6875 Q1108.9219,1260.6875 1109.5625,1260.8594 Q1110.2188,1261.0156 1110.7656,1261.375 Z "/><text fill="#000000" font-family="sans-serif" font-size="12" lengthAdjust="spacingAndGlyphs" textLength="60" x="1122" y="1270.4102">PlayerType</text><line style="stroke: #A80036; stroke-width: 1.5;" x1="1094" x2="1184" y1="1281.5" y2="1281.5"/><line style="stroke: #A80036; stroke-width: 1.5;" x1="1094" x2="1184" y1="1289.5" y2="1289.5"/><!--MD5=[1aab8645402f9730c5a520f7fa330421]
class tictactoe.types.Error--><rect fill="#FEFECE" filter="url(#faquzcdcmtgkr)" height="48" id="tictactoe.types.Error" style="stroke: #A80036; stroke-width: 1.5;" width="59" x="897.5" y="1249.5"/><ellipse cx="912.5" cy="1265.5" fill="#ADD1B2" rx="11" ry="11" style="stroke: #A80036; stroke-width: 1.0;"/><path d="M915.2656,1261.375 Q915.4219,1261.1563 915.6094,1261.0469 Q915.7969,1260.9375 916.0156,1260.9375 Q916.3906,1260.9375 916.625,1261.2031 Q916.8594,1261.4531 916.8594,1262.0625 L916.8594,1263.5156 Q916.8594,1264.125 916.625,1264.3906 Q916.3906,1264.6563 916.0156,1264.6563 Q915.6719,1264.6563 915.4688,1264.4531 Q915.2656,1264.2656 915.1563,1263.75 Q915.1094,1263.3906 914.9219,1263.2031 Q914.5938,1262.8281 913.9844,1262.6094 Q913.375,1262.3906 912.75,1262.3906 Q911.9844,1262.3906 911.3438,1262.7188 Q910.7188,1263.0469 910.2188,1263.7969 Q909.7344,1264.5469 909.7344,1265.5781 L909.7344,1266.6719 Q909.7344,1267.9063 910.625,1268.7344 Q911.5156,1269.5469 913.1094,1269.5469 Q914.0469,1269.5469 914.7031,1269.2969 Q915.0938,1269.1406 915.5156,1268.7031 Q915.7813,1268.4375 915.9219,1268.3594 Q916.0781,1268.2813 916.2813,1268.2813 Q916.6094,1268.2813 916.8594,1268.5469 Q917.125,1268.7969 917.125,1269.1406 Q917.125,1269.4844 916.7813,1269.8906 Q916.2813,1270.4688 915.4844,1270.7969 Q914.4063,1271.25 913.1094,1271.25 Q911.5938,1271.25 910.3906,1270.625 Q909.4063,1270.125 908.7188,1269.0625 Q908.0313,1267.9844 908.0313,1266.7031 L908.0313,1265.5469 Q908.0313,1264.2188 908.6406,1263.0781 Q909.2656,1261.9219 910.3594,1261.3125 Q911.4531,1260.6875 912.6875,1260.6875 Q913.4219,1260.6875 914.0625,1260.8594 Q914.7188,1261.0156 915.2656,1261.375 Z "/><text fill="#000000" font-family="sans-serif" font-size="12" lengthAdjust="spacingAndGlyphs" textLength="27" x="926.5" y="1270.4102">Error</text><line style="stroke: #A80036; stroke-width: 1.5;" x1="898.5" x2="955.5" y1="1281.5" y2="1281.5"/><line style="stroke: #A80036; stroke-width: 1.5;" x1="898.5" x2="955.5" y1="1289.5" y2="1289.5"/><!--MD5=[068fe37cd9d2e226408ce790264f2fa7]
class tictactoe.types.StateValue--><rect fill="#FEFECE" filter="url(#faquzcdcmtgkr)" height="48" id="tictactoe.types.StateValue" style="stroke: #A80036; stroke-width: 1.5;" width="91" x="1220.5" y="1249.5"/><ellipse cx="1235.5" cy="1265.5" fill="#ADD1B2" rx="11" ry="11" style="stroke: #A80036; stroke-width: 1.0;"/><path d="M1238.2656,1261.375 Q1238.4219,1261.1563 1238.6094,1261.0469 Q1238.7969,1260.9375 1239.0156,1260.9375 Q1239.3906,1260.9375 1239.625,1261.2031 Q1239.8594,1261.4531 1239.8594,1262.0625 L1239.8594,1263.5156 Q1239.8594,1264.125 1239.625,1264.3906 Q1239.3906,1264.6563 1239.0156,1264.6563 Q1238.6719,1264.6563 1238.4688,1264.4531 Q1238.2656,1264.2656 1238.1563,1263.75 Q1238.1094,1263.3906 1237.9219,1263.2031 Q1237.5938,1262.8281 1236.9844,1262.6094 Q1236.375,1262.3906 1235.75,1262.3906 Q1234.9844,1262.3906 1234.3438,1262.7188 Q1233.7188,1263.0469 1233.2188,1263.7969 Q1232.7344,1264.5469 1232.7344,1265.5781 L1232.7344,1266.6719 Q1232.7344,1267.9063 1233.625,1268.7344 Q1234.5156,1269.5469 1236.1094,1269.5469 Q1237.0469,1269.5469 1237.7031,1269.2969 Q1238.0938,1269.1406 1238.5156,1268.7031 Q1238.7813,1268.4375 1238.9219,1268.3594 Q1239.0781,1268.2813 1239.2813,1268.2813 Q1239.6094,1268.2813 1239.8594,1268.5469 Q1240.125,1268.7969 1240.125,1269.1406 Q1240.125,1269.4844 1239.7813,1269.8906 Q1239.2813,1270.4688 1238.4844,1270.7969 Q1237.4063,1271.25 1236.1094,1271.25 Q1234.5938,1271.25 1233.3906,1270.625 Q1232.4063,1270.125 1231.7188,1269.0625 Q1231.0313,1267.9844 1231.0313,1266.7031 L1231.0313,1265.5469 Q1231.0313,1264.2188 1231.6406,1263.0781 Q1232.2656,1261.9219 1233.3594,1261.3125 Q1234.4531,1260.6875 1235.6875,1260.6875 Q1236.4219,1260.6875 1237.0625,1260.8594 Q1237.7188,1261.0156 1238.2656,1261.375 Z "/><text fill="#000000" font-family="sans-serif" font-size="12" lengthAdjust="spacingAndGlyphs" textLength="59" x="1249.5" y="1270.4102">StateValue</text><line style="stroke: #A80036; stroke-width: 1.5;" x1="1221.5" x2="1310.5" y1="1281.5" y2="1281.5"/><line style="stroke: #A80036; stroke-width: 1.5;" x1="1221.5" x2="1310.5" y1="1289.5" y2="1289.5"/><!--MD5=[63e92a92e730259d201bb8566c78f275]
class utils.Direction--><rect fill="#FEFECE" filter="url(#faquzcdcmtgkr)" height="48" id="utils.Direction" style="stroke: #A80036; stroke-width: 1.5;" width="81" x="160.5" y="1010"/><ellipse cx="175.5" cy="1026" fill="#ADD1B2" rx="11" ry="11" style="stroke: #A80036; stroke-width: 1.0;"/><path d="M178.2656,1021.875 Q178.4219,1021.6563 178.6094,1021.5469 Q178.7969,1021.4375 179.0156,1021.4375 Q179.3906,1021.4375 179.625,1021.7031 Q179.8594,1021.9531 179.8594,1022.5625 L179.8594,1024.0156 Q179.8594,1024.625 179.625,1024.8906 Q179.3906,1025.1563 179.0156,1025.1563 Q178.6719,1025.1563 178.4688,1024.9531 Q178.2656,1024.7656 178.1563,1024.25 Q178.1094,1023.8906 177.9219,1023.7031 Q177.5938,1023.3281 176.9844,1023.1094 Q176.375,1022.8906 175.75,1022.8906 Q174.9844,1022.8906 174.3438,1023.2188 Q173.7188,1023.5469 173.2188,1024.2969 Q172.7344,1025.0469 172.7344,1026.0781 L172.7344,1027.1719 Q172.7344,1028.4063 173.625,1029.2344 Q174.5156,1030.0469 176.1094,1030.0469 Q177.0469,1030.0469 177.7031,1029.7969 Q178.0938,1029.6406 178.5156,1029.2031 Q178.7813,1028.9375 178.9219,1028.8594 Q179.0781,1028.7813 179.2813,1028.7813 Q179.6094,1028.7813 179.8594,1029.0469 Q180.125,1029.2969 180.125,1029.6406 Q180.125,1029.9844 179.7813,1030.3906 Q179.2813,1030.9688 178.4844,1031.2969 Q177.4063,1031.75 176.1094,1031.75 Q174.5938,1031.75 173.3906,1031.125 Q172.4063,1030.625 171.7188,1029.5625 Q171.0313,1028.4844 171.0313,1027.2031 L171.0313,1026.0469 Q171.0313,1024.7188 171.6406,1023.5781 Q172.2656,1022.4219 173.3594,1021.8125 Q174.4531,1021.1875 175.6875,1021.1875 Q176.4219,1021.1875 177.0625,1021.3594 Q177.7188,1021.5156 178.2656,1021.875 Z "/><text fill="#000000" font-family="sans-serif" font-size="12" lengthAdjust="spacingAndGlyphs" textLength="49" x="189.5" y="1030.9102">Direction</text><line style="stroke: #A80036; stroke-width: 1.5;" x1="161.5" x2="240.5" y1="1042" y2="1042"/><line style="stroke: #A80036; stroke-width: 1.5;" x1="161.5" x2="240.5" y1="1050" y2="1050"/><!--MD5=[4517a9099db328c27576a0137eb33da6]
class utils.Coordinate--><rect fill="#FEFECE" filter="url(#faquzcdcmtgkr)" height="48" id="utils.Coordinate" style="stroke: #A80036; stroke-width: 1.5;" width="93" x="32.5" y="1010"/><ellipse cx="47.5" cy="1026" fill="#ADD1B2" rx="11" ry="11" style="stroke: #A80036; stroke-width: 1.0;"/><path d="M50.2656,1021.875 Q50.4219,1021.6563 50.6094,1021.5469 Q50.7969,1021.4375 51.0156,1021.4375 Q51.3906,1021.4375 51.625,1021.7031 Q51.8594,1021.9531 51.8594,1022.5625 L51.8594,1024.0156 Q51.8594,1024.625 51.625,1024.8906 Q51.3906,1025.1563 51.0156,1025.1563 Q50.6719,1025.1563 50.4688,1024.9531 Q50.2656,1024.7656 50.1563,1024.25 Q50.1094,1023.8906 49.9219,1023.7031 Q49.5938,1023.3281 48.9844,1023.1094 Q48.375,1022.8906 47.75,1022.8906 Q46.9844,1022.8906 46.3438,1023.2188 Q45.7188,1023.5469 45.2188,1024.2969 Q44.7344,1025.0469 44.7344,1026.0781 L44.7344,1027.1719 Q44.7344,1028.4063 45.625,1029.2344 Q46.5156,1030.0469 48.1094,1030.0469 Q49.0469,1030.0469 49.7031,1029.7969 Q50.0938,1029.6406 50.5156,1029.2031 Q50.7813,1028.9375 50.9219,1028.8594 Q51.0781,1028.7813 51.2813,1028.7813 Q51.6094,1028.7813 51.8594,1029.0469 Q52.125,1029.2969 52.125,1029.6406 Q52.125,1029.9844 51.7813,1030.3906 Q51.2813,1030.9688 50.4844,1031.2969 Q49.4063,1031.75 48.1094,1031.75 Q46.5938,1031.75 45.3906,1031.125 Q44.4063,1030.625 43.7188,1029.5625 Q43.0313,1028.4844 43.0313,1027.2031 L43.0313,1026.0469 Q43.0313,1024.7188 43.6406,1023.5781 Q44.2656,1022.4219 45.3594,1021.8125 Q46.4531,1021.1875 47.6875,1021.1875 Q48.4219,1021.1875 49.0625,1021.3594 Q49.7188,1021.5156 50.2656,1021.875 Z "/><text fill="#000000" font-family="sans-serif" font-size="12" lengthAdjust="spacingAndGlyphs" textLength="61" x="61.5" y="1030.9102">Coordinate</text><line style="stroke: #A80036; stroke-width: 1.5;" x1="33.5" x2="124.5" y1="1042" y2="1042"/><line style="stroke: #A80036; stroke-width: 1.5;" x1="33.5" x2="124.5" y1="1050" y2="1050"/><!--MD5=[6c70c0f5d22b0d421fe766e144384ba2]
class java.util.Random--><rect fill="#FEFECE" filter="url(#faquzcdcmtgkr)" height="48" id="java.util.Random" style="stroke: #A80036; stroke-width: 1.5;" width="80" x="359" y="1429"/><ellipse cx="374" cy="1445" fill="#ADD1B2" rx="11" ry="11" style="stroke: #A80036; stroke-width: 1.0;"/><path d="M376.7656,1440.875 Q376.9219,1440.6563 377.1094,1440.5469 Q377.2969,1440.4375 377.5156,1440.4375 Q377.8906,1440.4375 378.125,1440.7031 Q378.3594,1440.9531 378.3594,1441.5625 L378.3594,1443.0156 Q378.3594,1443.625 378.125,1443.8906 Q377.8906,1444.1563 377.5156,1444.1563 Q377.1719,1444.1563 376.9688,1443.9531 Q376.7656,1443.7656 376.6563,1443.25 Q376.6094,1442.8906 376.4219,1442.7031 Q376.0938,1442.3281 375.4844,1442.1094 Q374.875,1441.8906 374.25,1441.8906 Q373.4844,1441.8906 372.8438,1442.2188 Q372.2188,1442.5469 371.7188,1443.2969 Q371.2344,1444.0469 371.2344,1445.0781 L371.2344,1446.1719 Q371.2344,1447.4063 372.125,1448.2344 Q373.0156,1449.0469 374.6094,1449.0469 Q375.5469,1449.0469 376.2031,1448.7969 Q376.5938,1448.6406 377.0156,1448.2031 Q377.2813,1447.9375 377.4219,1447.8594 Q377.5781,1447.7813 377.7813,1447.7813 Q378.1094,1447.7813 378.3594,1448.0469 Q378.625,1448.2969 378.625,1448.6406 Q378.625,1448.9844 378.2813,1449.3906 Q377.7813,1449.9688 376.9844,1450.2969 Q375.9063,1450.75 374.6094,1450.75 Q373.0938,1450.75 371.8906,1450.125 Q370.9063,1449.625 370.2188,1448.5625 Q369.5313,1447.4844 369.5313,1446.2031 L369.5313,1445.0469 Q369.5313,1443.7188 370.1406,1442.5781 Q370.7656,1441.4219 371.8594,1440.8125 Q372.9531,1440.1875 374.1875,1440.1875 Q374.9219,1440.1875 375.5625,1440.3594 Q376.2188,1440.5156 376.7656,1440.875 Z "/><text fill="#000000" font-family="sans-serif" font-size="12" lengthAdjust="spacingAndGlyphs" textLength="48" x="388" y="1449.9102">Random</text><line style="stroke: #A80036; stroke-width: 1.5;" x1="360" x2="438" y1="1461" y2="1461"/><line style="stroke: #A80036; stroke-width: 1.5;" x1="360" x2="438" y1="1469" y2="1469"/><!--MD5=[9415c0c61774263745e2cedb44e639c6]
link tictactoe.models.Board to tictactoe.models.Coordinate--><path d="M431.2481,667.1 C431.2481,667.1 428.188,699.869 427,715 C414.133,878.861 406.025,1070.305 402.018,1180.859 " fill="none" id="tictactoe.models.Board-tictactoe.models.Coordinate" style="stroke: #A80036; stroke-width: 1.0;"/><polygon fill="#A80036" points="401.55,1193.933,405.8689,1185.0816,401.7286,1188.9362,397.874,1184.7959,401.55,1193.933" style="stroke: #A80036; stroke-width: 1.0;"/><line style="stroke: #A80036; stroke-width: 1.0;" x1="401.7286" x2="402.015" y1="1188.9362" y2="1180.9415"/><polygon fill="#A80036" points="432.427,655.158,427.8569,660.736,431.2481,667.1,435.8182,661.5219,432.427,655.158" style="stroke: #A80036; stroke-width: 1.0;"/><!--MD5=[aaca2839b049c91838372e0d045bc145]
link tictactoe.models.Board to tictactoe.types.Token--><path d="M587.382,655.046 C608.583,674.885 630.028,695.33 650,715 C745.641,809.194 781.212,823.894 858,934 C932.197,1040.39 991.493,1184.622 1014.57,1244.577 " fill="none" id="tictactoe.models.Board-&gt;tictactoe.types.Token" style="stroke: #A80036; stroke-width: 1.0; stroke-dasharray: 7.0,7.0;"/><polygon fill="#A80036" points="1016.43,1249.431,1016.9475,1239.5957,1014.6422,1244.7616,1009.4764,1242.4562,1016.43,1249.431" style="stroke: #A80036; stroke-width: 1.0;"/><!--MD5=[f07f4b28b1c2eb27f6b3ca96953c68ab]
link tictactoe.models.Board to tictactoe.models.Turn--><path d="M502.142,655.307 C510.204,673.919 518.327,692.673 525.878,710.105 " fill="none" id="tictactoe.models.Board-&gt;tictactoe.models.Turn" style="stroke: #A80036; stroke-width: 1.0; stroke-dasharray: 7.0,7.0;"/><polygon fill="#A80036" points="527.991,714.985,528.085,705.1366,526.004,710.3968,520.7438,708.3158,527.991,714.985" style="stroke: #A80036; stroke-width: 1.0;"/><!--MD5=[1183b1fe88256d6abfae59cdbc015bea]
link tictactoe.models.Board to utils.Direction--><path d="M385.083,655.107 C327.678,772.949 246.485,939.627 214.602,1005.077 " fill="none" id="tictactoe.models.Board-&gt;utils.Direction" style="stroke: #A80036; stroke-width: 1.0; stroke-dasharray: 7.0,7.0;"/><polygon fill="#A80036" points="212.393,1009.613,219.9304,1003.2737,214.5827,1005.118,212.7384,999.7702,212.393,1009.613" style="stroke: #A80036; stroke-width: 1.0;"/><!--MD5=[d279b4500bca5abba91dd5faa9f398fd]
reverse link utils.Coordinate to tictactoe.models.Coordinate--><path d="M99.1851,1075.815 C110.196,1095.149 125.216,1117.551 143,1134 C189.464,1176.975 251.742,1211.052 303.237,1234.65 " fill="none" id="utils.Coordinate&lt;-tictactoe.models.Coordinate" style="stroke: #A80036; stroke-width: 1.0;"/><polygon fill="none" points="93.0093,1079.111,89.7278,1058.177,105.348,1072.495,93.0093,1079.111" style="stroke: #A80036; stroke-width: 1.0;"/><!--MD5=[997516208723a80710191e814da7328e]
link tictactoe.models.Coordinate to utils.Direction--><path d="M332.271,1193.943 C315.779,1174.41 298.199,1153.484 282,1134 C261.902,1109.826 239.263,1082.115 223.039,1062.17 " fill="none" id="tictactoe.models.Coordinate-&gt;utils.Direction" style="stroke: #A80036; stroke-width: 1.0; stroke-dasharray: 7.0,7.0;"/><polygon fill="#A80036" points="219.882,1058.288,222.4555,1067.7947,223.036,1062.1677,228.663,1062.7482,219.882,1058.288" style="stroke: #A80036; stroke-width: 1.0;"/><!--MD5=[02a5e0cbda321227fb745cf81ac775a1]
link tictactoe.models.Coordinate to java.util.Random--><path d="M399,1353.129 C399,1378.219 399,1404.401 399,1423.5154 " fill="none" id="tictactoe.models.Coordinate-&gt;java.util.Random" style="stroke: #A80036; stroke-width: 1.0; stroke-dasharray: 7.0,7.0;"/><polygon fill="#A80036" points="399,1428.7123,403,1419.7123,399,1423.7123,395,1419.7123,399,1428.7123" style="stroke: #A80036; stroke-width: 1.0;"/><!--MD5=[b634369fa6e65a8dead148f8efc150f7]
link tictactoe.models.Game to tictactoe.models.Board--><path d="M459.5458,351.1593 C459.5458,351.1593 457.87,374.49 457.083,385.47 " fill="none" id="tictactoe.models.Game-tictactoe.models.Board" style="stroke: #A80036; stroke-width: 1.0;"/><polygon fill="#A80036" points="456.129,398.76,460.7616,390.0687,456.4861,393.7728,452.7821,389.4973,456.129,398.76" style="stroke: #A80036; stroke-width: 1.0;"/><line style="stroke: #A80036; stroke-width: 1.0;" x1="456.4861" x2="457.0595" y1="393.7728" y2="385.795"/><polygon fill="#A80036" points="460.403,339.19,455.9846,344.8889,459.5458,351.1593,463.9642,345.4604,460.403,339.19" style="stroke: #A80036; stroke-width: 1.0;"/><!--MD5=[1dc2bc8b0c5aa09eb02df64674797f09]
link tictactoe.models.Game to tictactoe.models.Player--><path d="M608.9853,349.4441 C608.9853,349.4441 626.798,382.47 633,399 C698.015,572.246 692.817,790.883 681.531,920.898 " fill="none" id="tictactoe.models.Game-tictactoe.models.Player" style="stroke: #A80036; stroke-width: 1.0;"/><polygon fill="#A80036" points="680.349,933.974,685.1428,925.3705,680.799,928.9943,677.1752,924.6505,680.349,933.974" style="stroke: #A80036; stroke-width: 1.0;"/><line style="stroke: #A80036; stroke-width: 1.0;" x1="680.799" x2="681.5195" y1="928.9943" y2="921.0265"/><polygon fill="#A80036" points="602.785,339.17,602.4605,346.3738,608.9853,349.4441,609.3098,342.2403,602.785,339.17" style="stroke: #A80036; stroke-width: 1.0;"/><!--MD5=[aa5c2eaa34da3707c874f29e1edc60f9]
link tictactoe.models.Game to tictactoe.models.Turn--><path d="M592.5747,349.6376 C592.5747,349.6376 607.962,382.72 613,399 C646.631,507.69 632.968,542.988 613,655 C610.215,670.625 605.791,686.797 600.686,702.337 " fill="none" id="tictactoe.models.Game-tictactoe.models.Turn" style="stroke: #A80036; stroke-width: 1.0;"/><polygon fill="#A80036" points="596.463,714.642,603.1677,707.4277,598.0859,709.9127,595.6009,704.8309,596.463,714.642" style="stroke: #A80036; stroke-width: 1.0;"/><line style="stroke: #A80036; stroke-width: 1.0;" x1="598.0859" x2="600.683" y1="709.9127" y2="702.346"/><polygon fill="#A80036" points="586.983,339.02,586.2396,346.1927,592.5747,349.6376,593.318,342.4649,586.983,339.02" style="stroke: #A80036; stroke-width: 1.0;"/><!--MD5=[2d593b7d40fdf862a21f21908246be98]
link tictactoe.models.Game to tictactoe.types.Token--><path d="M620.84,339.21 C637.613,358.62 653.759,378.8 668,399 C821.601,616.835 845.395,684.434 939,934 C980.856,1045.596 1009.14,1185.389 1020.01,1244.282 " fill="none" id="tictactoe.models.Game-&gt;tictactoe.types.Token" style="stroke: #A80036; stroke-width: 1.0; stroke-dasharray: 7.0,7.0;"/><polygon fill="#A80036" points="1020.95,1249.391,1023.2579,1239.8164,1020.0465,1244.4733,1015.3896,1241.2619,1020.95,1249.391" style="stroke: #A80036; stroke-width: 1.0;"/><!--MD5=[b2478b45add4fa02c6eb045c3639ccdd]
link tictactoe.models.Game to tictactoe.types.PlayerType--><path d="M644.239,327.16 C650.186,331.22 656.117,335.17 662,339 C709.013,369.57 735.042,357.72 773,399 C1019.74,667.336 1113.61,1126.031 1134.34,1244.117 " fill="none" id="tictactoe.models.Game-&gt;tictactoe.types.PlayerType" style="stroke: #A80036; stroke-width: 1.0; stroke-dasharray: 7.0,7.0;"/><polygon fill="#A80036" points="1135.21,1249.156,1137.6115,1239.6044,1134.3547,1244.2297,1129.7294,1240.9729,1135.21,1249.156" style="stroke: #A80036; stroke-width: 1.0;"/><!--MD5=[6788aa5eae5478765374437bd4c2e87f]
link tictactoe.models.Player to tictactoe.types.Token--><path d="M851.7998,1110.9933 C851.7998,1110.9933 938.566,1161.845 974,1194 C987.58,1206.324 999.097,1223.034 1007.73,1237.87 " fill="none" id="tictactoe.models.Player-tictactoe.types.Token" style="stroke: #A80036; stroke-width: 1.0;"/><polygon fill="#A80036" points="1014.02,1249.247,1013.163,1239.4355,1011.5994,1244.872,1006.163,1243.3084,1014.02,1249.247" style="stroke: #A80036; stroke-width: 1.0;"/><line style="stroke: #A80036; stroke-width: 1.0;" x1="1011.5994" x2="1007.73" y1="1244.872" y2="1237.87"/><polygon fill="#A80036" points="841.171,1105.423,844.6287,1111.7511,851.7998,1110.9933,848.3422,1104.6652,841.171,1105.423" style="stroke: #A80036; stroke-width: 1.0;"/><!--MD5=[4d61797189bd4e3921b05d5b1c2f3641]
link tictactoe.models.Player to tictactoe.models.Board--><path d="M509.7949,925.0212 C509.7949,925.0212 482.454,892.12 473,874 C440.413,811.539 432.174,733.934 432.837,668.059 " fill="none" id="tictactoe.models.Player-tictactoe.models.Board" style="stroke: #A80036; stroke-width: 1.0;"/><polygon fill="#A80036" points="433.084,655.049,428.9136,663.9713,432.989,660.0481,436.9122,664.1234,433.084,655.049" style="stroke: #A80036; stroke-width: 1.0;"/><line style="stroke: #A80036; stroke-width: 1.0;" x1="432.989" x2="432.8375" y1="660.0481" y2="668.0465"/><polygon fill="#A80036" points="518.101,933.682,516.8349,926.5829,509.7949,925.0212,511.061,932.1203,518.101,933.682" style="stroke: #A80036; stroke-width: 1.0;"/><!--MD5=[598ddb29be518176f0bd2caafd2edab8]
link tictactoe.models.Player to tictactoe.types.PlayerType--><path d="M852.4648,1084.0837 C852.4648,1084.0837 1010.02,1145.585 1076,1194 C1092.28,1205.945 1106.7,1223.1 1117.62,1238.327 " fill="none" id="tictactoe.models.Player-tictactoe.types.PlayerType" style="stroke: #A80036; stroke-width: 1.0;"/><polygon fill="#A80036" points="1125.26,1249.478,1123.4682,1239.7935,1122.4319,1245.3546,1116.8708,1244.3184,1125.26,1249.478" style="stroke: #A80036; stroke-width: 1.0;"/><line style="stroke: #A80036; stroke-width: 1.0;" x1="1122.4319" x2="1117.91" y1="1245.3546" y2="1238.755"/><polygon fill="#A80036" points="841.094,1080.249,845.5012,1085.9566,852.4648,1084.0837,848.0576,1078.3761,841.094,1080.249" style="stroke: #A80036; stroke-width: 1.0;"/><!--MD5=[8c8274b143d2ce23d56b10c65f754674]
link tictactoe.models.Player to tictactoe.models.Coordinate--><path d="M555.868,1134.002 C534.561,1152.814 512.483,1172.306 491.855,1190.518 " fill="none" id="tictactoe.models.Player-&gt;tictactoe.models.Coordinate" style="stroke: #A80036; stroke-width: 1.0; stroke-dasharray: 7.0,7.0;"/><polygon fill="#A80036" points="488.021,1193.904,497.4156,1190.9473,491.7697,1190.5953,492.1217,1184.9494,488.021,1193.904" style="stroke: #A80036; stroke-width: 1.0;"/><!--MD5=[11b8581993dcdd535fc279569dea0342]
link tictactoe.models.Player to tictactoe.types.Error--><path d="M790.995,1134.076 C813.459,1153.396 836.318,1173.905 857,1194 C873.782,1210.305 891.302,1229.955 904.616,1245.517 " fill="none" id="tictactoe.models.Player-&gt;tictactoe.types.Error" style="stroke: #A80036; stroke-width: 1.0; stroke-dasharray: 7.0,7.0;"/><polygon fill="#A80036" points="907.908,1249.38,905.1172,1239.9348,904.6658,1245.5737,899.027,1245.1223,907.908,1249.38" style="stroke: #A80036; stroke-width: 1.0;"/><!--MD5=[1144122d6943599b2215721923ef0ecc]
link tictactoe.models.State to tictactoe.types.StateValue--><path d="M852.0744,213.7721 C852.0744,213.7721 1081.43,297.36 1152,399 C1340.94,671.145 1291.75,1108.192 1272.15,1236.185 " fill="none" id="tictactoe.models.State-tictactoe.types.StateValue" style="stroke: #A80036; stroke-width: 1.0;"/><polygon fill="#A80036" points="1270.08,1249.251,1275.4361,1240.9859,1270.8606,1244.3123,1267.5342,1239.7369,1270.08,1249.251" style="stroke: #A80036; stroke-width: 1.0;"/><line style="stroke: #A80036; stroke-width: 1.0;" x1="1270.8606" x2="1272.115" y1="1244.3123" y2="1236.4105"/><polygon fill="#A80036" points="840.555,210.41,845.194,215.9309,852.0744,213.7721,847.4354,208.2513,840.555,210.41" style="stroke: #A80036; stroke-width: 1.0;"/><!--MD5=[445ca9be6ac7acaf2fbd96fa00e05ee8]
link tictactoe.models.Turn to tictactoe.models.Player--><path d="M602.0399,885.2121 C602.0399,885.2121 613.015,909.801 618.256,921.546 " fill="none" id="tictactoe.models.Turn-tictactoe.models.Player" style="stroke: #A80036; stroke-width: 1.0;"/><polygon fill="#A80036" points="623.694,933.731,623.6785,923.8822,621.6561,929.1651,616.3731,927.1428,623.694,933.731" style="stroke: #A80036; stroke-width: 1.0;"/><line style="stroke: #A80036; stroke-width: 1.0;" x1="621.6561" x2="618.396" y1="929.1651" y2="921.8595"/><polygon fill="#A80036" points="597.149,874.254,595.9418,881.3633,602.0399,885.2121,603.2471,878.1027,597.149,874.254" style="stroke: #A80036; stroke-width: 1.0;"/><!--MD5=[8cd304bb4368d3466c8469ab82acb8fd]
@startuml

class  tictactoe.models.Board{
+ {static} EMPTY: char
- coordinates: Coordinate[][]
+ Board()
+ getToken(Coordinate): Token
~ move(Coordinate, Coordinate): void
~ put(Coordinate, Token): void
- remove(Coordinate): void
~ isTicTacToe(Token): boolean
- numberOfCoordinates(Coordinate[]): int
~ isCompleted(): boolean
+ isEmpty(Coordinate): boolean
~ isOccupied(Coordinate, Token): boolean
- checkNumberOfCoordinates(Coordinate[]): boolean
- checkDirectionOfFirstCoordinates(Coordinate[]): boolean
- checkDirectionOfAllCoordinates(Coordinate[]): boolean
}
tictactoe.models.Board *-down-> tictactoe.models.Coordinate
tictactoe.models.Board ..> tictactoe.types.Token
tictactoe.models.Board ..> tictactoe.models.Turn
tictactoe.models.Board ..> utils.Direction

class  tictactoe.models.Coordinate{
+ {static} DIMENSION: char
+ Coordinate()
+ Coordinate(int, int)
~ inDirection(Coordinate): boolean
~ getDirection(Coordinate): Direction
- inInverseDiagonal(): boolean
+ isValid(): boolean
+ random(): void
}
utils.Coordinate <|-down- tictactoe.models.Coordinate
tictactoe.models.Coordinate ..> utils.Direction
tictactoe.models.Coordinate ..> java.util.Random

class  tictactoe.models.Game{
- board: Board
- players: Player[][]
- turn: Turn
+ Game()
+ createPlayers(int): void
+ getBoard(): Board
+ isBoardComplete(): boolean
+ putTokenPlayerFromTurn(Coordinate): void
+ moveTokenPlayerFromTurn(Coordinate[]): void
+ getTokenPlayerFromTurn(int): Player
+ getTypeOfTokenPlayerFromTurn(): PlayerType
+ controlErrorsPutCoordinate(Coordinate): Error
+ controlErrorsMoveOriginCoordinate(Coordinate): Error
+ controlErrorsMoveTargetCoordinate(Coordinate, Coordinate): Error
+ getToken(int, int): Token
+ changeTurn(): void
+ isTicTacToe(): boolean
+ getOtherValueFromTurn(): int
}
tictactoe.models.Game *-down-> tictactoe.models.Board
tictactoe.models.Game *-down-> tictactoe.models.Player
tictactoe.models.Game *-down-> tictactoe.models.Turn
tictactoe.models.Game ..> tictactoe.types.Token
tictactoe.models.Game ..> tictactoe.types.PlayerType

class  tictactoe.models.Player{
- token: Token
- board: Board
- type: PlayerType
+ Player(Token, Board, PlayerType)
+ getType(): PlayerType
~ getToken(): Token
~ put(Coordinate): void
~ move(Coordinate[]): void
+ controlErrorsPutCoordinate(Coordinate): Error
+ controlErrorsMoveOriginCoordinate(Coordinate): Error
+ controlErrorsMoveTargetCoordinate(Coordinate, Coordinate): Error
}
tictactoe.models.Player *-down-> tictactoe.types.Token
tictactoe.models.Player *-down-> tictactoe.models.Board
tictactoe.models.Player *-down-> tictactoe.types.PlayerType
tictactoe.models.Player ..> tictactoe.models.Coordinate
tictactoe.models.Player ..> tictactoe.types.Error

class  tictactoe.models.State{
- stateValue: StateValue
+ State()
+ next(): void
+ getValueState(): StateValue
}
tictactoe.models.State *-down-> tictactoe.types.StateValue

class  tictactoe.models.Turn{
+ {static} PLAYERS: int
- value: int
- players: Player[]
+ Turn(Player[])
~ change(): void
~ getPlayer(): Player
~ getOtherValue(): int
~ getOtherPlayer(): Player
}
tictactoe.models.Turn *-down-> tictactoe.models.Player

@enduml

PlantUML version 1.2020.15(Sun Jun 28 13:39:45 CEST 2020)
(GPL source distribution)
Java Runtime: Java(TM) SE Runtime Environment
JVM: Java HotSpot(TM) 64-Bit Server VM
Default Encoding: windows-1252
Language: es
Country: ES
--></g></svg>