<?xml version="1.0" encoding="UTF-8" standalone="no"?><svg xmlns="http://www.w3.org/2000/svg" xmlns:xlink="http://www.w3.org/1999/xlink" contentScriptType="application/ecmascript" contentStyleType="text/css" height="617px" preserveAspectRatio="none" style="width:2031px;height:617px;" version="1.1" viewBox="0 0 2031 617" width="2031px" zoomAndPan="magnify"><defs><filter height="300%" id="fwqb2rb093l5e" width="300%" x="-1" y="-1"><feGaussianBlur result="blurOut" stdDeviation="2.0"/><feColorMatrix in="blurOut" result="blurOut2" type="matrix" values="0 0 0 0 0 0 0 0 0 0 0 0 0 0 0 0 0 0 .4 0"/><feOffset dx="4.0" dy="4.0" in="blurOut2" result="blurOut3"/><feBlend in="SourceGraphic" in2="blurOut3" mode="normal"/></filter></defs><g><!--MD5=[64182ab34c08ac367bbf699869515711]
cluster tictactoe.views.console--><polygon fill="#FFFFFF" filter="url(#fwqb2rb093l5e)" points="172,81.797,344,81.797,351,105.4064,1061,105.4064,1061,605.797,172,605.797,172,81.797" style="stroke: #000000; stroke-width: 1.5;"/><line style="stroke: #000000; stroke-width: 1.5;" x1="172" x2="351" y1="105.4064" y2="105.4064"/><text fill="#000000" font-family="sans-serif" font-size="14" font-weight="bold" lengthAdjust="spacingAndGlyphs" textLength="166" x="176" y="98.3302">tictactoe.views.console</text><!--MD5=[c52f45833d539af9e29a9d34b8b7302b]
cluster utils--><polygon fill="#FFFFFF" filter="url(#fwqb2rb093l5e)" points="1703,130.297,1739,130.297,1746,153.9064,2009,153.9064,2009,230.297,1703,230.297,1703,130.297" style="stroke: #000000; stroke-width: 1.5;"/><line style="stroke: #000000; stroke-width: 1.5;" x1="1703" x2="1746" y1="153.9064" y2="153.9064"/><text fill="#000000" font-family="sans-serif" font-size="14" font-weight="bold" lengthAdjust="spacingAndGlyphs" textLength="30" x="1707" y="146.8302">utils</text><!--MD5=[f4e83a21a957c5b9ba9691e6361db36b]
cluster tictactoe.views--><polygon fill="#FFFFFF" filter="url(#fwqb2rb093l5e)" points="1085,130.297,1197,130.297,1204,153.9064,1679,153.9064,1679,230.297,1085,230.297,1085,130.297" style="stroke: #000000; stroke-width: 1.5;"/><line style="stroke: #000000; stroke-width: 1.5;" x1="1085" x2="1204" y1="153.9064" y2="153.9064"/><text fill="#000000" font-family="sans-serif" font-size="14" font-weight="bold" lengthAdjust="spacingAndGlyphs" textLength="106" x="1089" y="146.8302">tictactoe.views</text><!--MD5=[51cd642fcc96b47682a93d9084d46dec]
cluster tictactoe.models--><polygon fill="#FFFFFF" filter="url(#fwqb2rb093l5e)" points="16,307.797,138,307.797,145,331.4064,148,331.4064,148,407.797,16,407.797,16,307.797" style="stroke: #000000; stroke-width: 1.5;"/><line style="stroke: #000000; stroke-width: 1.5;" x1="16" x2="145" y1="331.4064" y2="331.4064"/><text fill="#000000" font-family="sans-serif" font-size="14" font-weight="bold" lengthAdjust="spacingAndGlyphs" textLength="116" x="20" y="324.3302">tictactoe.models</text><!--MD5=[270aad5bca7cd81b5a24665b2403b70b]
class tictactoe.views.console.BoardView--><rect fill="#FEFECE" filter="url(#fwqb2rb093l5e)" height="117.1797" id="tictactoe.views.console.BoardView" style="stroke: #A80036; stroke-width: 1.5;" width="201" x="722.5" y="472.797"/><ellipse cx="789.25" cy="488.797" fill="#ADD1B2" rx="11" ry="11" style="stroke: #A80036; stroke-width: 1.0;"/><path d="M792.0156,484.672 Q792.1719,484.4533 792.3594,484.3439 Q792.5469,484.2345 792.7656,484.2345 Q793.1406,484.2345 793.375,484.5001 Q793.6094,484.7501 793.6094,485.3595 L793.6094,486.8126 Q793.6094,487.422 793.375,487.6876 Q793.1406,487.9533 792.7656,487.9533 Q792.4219,487.9533 792.2188,487.7501 Q792.0156,487.5626 791.9063,487.047 Q791.8594,486.6876 791.6719,486.5001 Q791.3438,486.1251 790.7344,485.9064 Q790.125,485.6876 789.5,485.6876 Q788.7344,485.6876 788.0938,486.0158 Q787.4688,486.3439 786.9688,487.0939 Q786.4844,487.8439 786.4844,488.8751 L786.4844,489.9689 Q786.4844,491.2033 787.375,492.0314 Q788.2656,492.8439 789.8594,492.8439 Q790.7969,492.8439 791.4531,492.5939 Q791.8438,492.4376 792.2656,492.0001 Q792.5313,491.7345 792.6719,491.6564 Q792.8281,491.5783 793.0313,491.5783 Q793.3594,491.5783 793.6094,491.8439 Q793.875,492.0939 793.875,492.4376 Q793.875,492.7814 793.5313,493.1876 Q793.0313,493.7658 792.2344,494.0939 Q791.1563,494.547 789.8594,494.547 Q788.3438,494.547 787.1406,493.922 Q786.1563,493.422 785.4688,492.3595 Q784.7813,491.2814 784.7813,490.0001 L784.7813,488.8439 Q784.7813,487.5158 785.3906,486.3751 Q786.0156,485.2189 787.1094,484.6095 Q788.2031,483.9845 789.4375,483.9845 Q790.1719,483.9845 790.8125,484.1564 Q791.4688,484.3126 792.0156,484.672 Z "/><text fill="#000000" font-family="sans-serif" font-size="12" lengthAdjust="spacingAndGlyphs" textLength="59" x="809.75" y="493.7072">BoardView</text><line style="stroke: #A80036; stroke-width: 1.5;" x1="723.5" x2="922.5" y1="504.797" y2="504.797"/><polygon fill="none" points="733.5,511.797,729.5,517.797,737.5,517.797" style="stroke: #1963A0; stroke-width: 1.0;"/><text fill="#000000" font-family="sans-serif" font-size="11" lengthAdjust="spacingAndGlyphs" textLength="63" x="742.5" y="520.2159">board: Board</text><line style="stroke: #A80036; stroke-width: 1.5;" x1="723.5" x2="922.5" y1="526.6329" y2="526.6329"/><polygon fill="#4177AF" points="733.5,533.6329,729.5,539.6329,737.5,539.6329" style="stroke: #1963A0; stroke-width: 1.0;"/><text fill="#000000" font-family="sans-serif" font-size="11" lengthAdjust="spacingAndGlyphs" textLength="92" x="742.5" y="542.0519">BoardView(Board)</text><polygon fill="#4177AF" points="733.5,547.4689,729.5,553.4689,737.5,553.4689" style="stroke: #1963A0; stroke-width: 1.0;"/><text fill="#000000" font-family="sans-serif" font-size="11" lengthAdjust="spacingAndGlyphs" textLength="59" x="742.5" y="555.8878">write(): void</text><rect fill="#F24D5C" height="6" style="stroke: #C82930; stroke-width: 1.0;" width="6" x="730.5" y="562.3048"/><text fill="#000000" font-family="sans-serif" font-size="11" lengthAdjust="spacingAndGlyphs" textLength="118" x="742.5" y="569.7238">printRowBoard(int): void</text><rect fill="#F24D5C" height="6" style="stroke: #C82930; stroke-width: 1.0;" width="6" x="730.5" y="576.1408"/><text fill="#000000" font-family="sans-serif" font-size="11" lengthAdjust="spacingAndGlyphs" textLength="175" x="742.5" y="583.5597">printSquareValueBoard(int, int): void</text><!--MD5=[bde0c8ed193d8d2dbac1dee471354ab0]
class tictactoe.views.console.ConsoleView--><rect fill="#FEFECE" filter="url(#fwqb2rb093l5e)" height="144.8516" id="tictactoe.views.console.ConsoleView" style="stroke: #A80036; stroke-width: 1.5;" width="159" x="885.5" y="117.797"/><ellipse cx="924.8" cy="133.797" fill="#ADD1B2" rx="11" ry="11" style="stroke: #A80036; stroke-width: 1.0;"/><path d="M927.5656,129.672 Q927.7219,129.4533 927.9094,129.3439 Q928.0969,129.2345 928.3156,129.2345 Q928.6906,129.2345 928.925,129.5001 Q929.1594,129.7501 929.1594,130.3595 L929.1594,131.8126 Q929.1594,132.422 928.925,132.6876 Q928.6906,132.9533 928.3156,132.9533 Q927.9719,132.9533 927.7688,132.7501 Q927.5656,132.5626 927.4563,132.047 Q927.4094,131.6876 927.2219,131.5001 Q926.8938,131.1251 926.2844,130.9064 Q925.675,130.6876 925.05,130.6876 Q924.2844,130.6876 923.6438,131.0158 Q923.0188,131.3439 922.5188,132.0939 Q922.0344,132.8439 922.0344,133.8751 L922.0344,134.9689 Q922.0344,136.2033 922.925,137.0314 Q923.8156,137.8439 925.4094,137.8439 Q926.3469,137.8439 927.0031,137.5939 Q927.3938,137.4376 927.8156,137.0001 Q928.0813,136.7345 928.2219,136.6564 Q928.3781,136.5783 928.5813,136.5783 Q928.9094,136.5783 929.1594,136.8439 Q929.425,137.0939 929.425,137.4376 Q929.425,137.7814 929.0813,138.1876 Q928.5813,138.7658 927.7844,139.0939 Q926.7063,139.547 925.4094,139.547 Q923.8938,139.547 922.6906,138.922 Q921.7063,138.422 921.0188,137.3595 Q920.3313,136.2814 920.3313,135.0001 L920.3313,133.8439 Q920.3313,132.5158 920.9406,131.3751 Q921.5656,130.2189 922.6594,129.6095 Q923.7531,128.9845 924.9875,128.9845 Q925.7219,128.9845 926.3625,129.1564 Q927.0188,129.3126 927.5656,129.672 Z "/><text fill="#000000" font-family="sans-serif" font-size="12" lengthAdjust="spacingAndGlyphs" textLength="73" x="944.2" y="138.7072">ConsoleView</text><line style="stroke: #A80036; stroke-width: 1.5;" x1="886.5" x2="1043.5" y1="149.797" y2="149.797"/><rect fill="none" height="6" style="stroke: #C82930; stroke-width: 1.0;" width="6" x="893.5" y="157.797"/><text fill="#000000" font-family="sans-serif" font-size="11" lengthAdjust="spacingAndGlyphs" textLength="103" x="905.5" y="165.2159">startView: StartView</text><rect fill="none" height="6" style="stroke: #C82930; stroke-width: 1.0;" width="6" x="893.5" y="171.6329"/><text fill="#000000" font-family="sans-serif" font-size="11" lengthAdjust="spacingAndGlyphs" textLength="98" x="905.5" y="179.0519">playView: PlayView</text><rect fill="none" height="6" style="stroke: #C82930; stroke-width: 1.0;" width="6" x="893.5" y="185.4689"/><text fill="#000000" font-family="sans-serif" font-size="11" lengthAdjust="spacingAndGlyphs" textLength="133" x="905.5" y="192.8878">resumeView: ResumeView</text><line style="stroke: #A80036; stroke-width: 1.5;" x1="886.5" x2="1043.5" y1="199.3048" y2="199.3048"/><ellipse cx="896.5" cy="210.3048" fill="#84BE84" rx="3" ry="3" style="stroke: #038048; stroke-width: 1.0;"/><text fill="#000000" font-family="sans-serif" font-size="11" lengthAdjust="spacingAndGlyphs" textLength="101" x="905.5" y="214.7238">ConsoleView(Game)</text><polygon fill="#FFFF44" points="896.5,219.1408,900.5,223.1408,896.5,227.1408,892.5,223.1408" style="stroke: #B38D22; stroke-width: 1.0;"/><text fill="#000000" font-family="sans-serif" font-size="11" lengthAdjust="spacingAndGlyphs" textLength="56" x="905.5" y="228.5597">start(): void</text><polygon fill="#FFFF44" points="896.5,232.9767,900.5,236.9767,896.5,240.9767,892.5,236.9767" style="stroke: #B38D22; stroke-width: 1.0;"/><text fill="#000000" font-family="sans-serif" font-size="11" lengthAdjust="spacingAndGlyphs" textLength="72" x="905.5" y="242.3956">play(): boolean</text><polygon fill="#FFFF44" points="896.5,246.8126,900.5,250.8126,896.5,254.8126,892.5,250.8126" style="stroke: #B38D22; stroke-width: 1.0;"/><text fill="#000000" font-family="sans-serif" font-size="11" lengthAdjust="spacingAndGlyphs" textLength="111" x="905.5" y="256.2316">isNewGame(): boolean</text><!--MD5=[54aa299435631381f3c0c028f26a058f]
class tictactoe.views.console.StartView--><rect fill="#FEFECE" filter="url(#fwqb2rb093l5e)" height="89.5078" id="tictactoe.views.console.StartView" style="stroke: #A80036; stroke-width: 1.5;" width="111" x="933.5" y="322.797"/><ellipse cx="961.1" cy="338.797" fill="#ADD1B2" rx="11" ry="11" style="stroke: #A80036; stroke-width: 1.0;"/><path d="M963.8656,334.672 Q964.0219,334.4533 964.2094,334.3439 Q964.3969,334.2345 964.6156,334.2345 Q964.9906,334.2345 965.225,334.5001 Q965.4594,334.7501 965.4594,335.3595 L965.4594,336.8126 Q965.4594,337.422 965.225,337.6876 Q964.9906,337.9533 964.6156,337.9533 Q964.2719,337.9533 964.0688,337.7501 Q963.8656,337.5626 963.7563,337.047 Q963.7094,336.6876 963.5219,336.5001 Q963.1938,336.1251 962.5844,335.9064 Q961.975,335.6876 961.35,335.6876 Q960.5844,335.6876 959.9438,336.0158 Q959.3188,336.3439 958.8188,337.0939 Q958.3344,337.8439 958.3344,338.8751 L958.3344,339.9689 Q958.3344,341.2033 959.225,342.0314 Q960.1156,342.8439 961.7094,342.8439 Q962.6469,342.8439 963.3031,342.5939 Q963.6938,342.4376 964.1156,342.0001 Q964.3813,341.7345 964.5219,341.6564 Q964.6781,341.5783 964.8813,341.5783 Q965.2094,341.5783 965.4594,341.8439 Q965.725,342.0939 965.725,342.4376 Q965.725,342.7814 965.3813,343.1876 Q964.8813,343.7658 964.0844,344.0939 Q963.0063,344.547 961.7094,344.547 Q960.1938,344.547 958.9906,343.922 Q958.0063,343.422 957.3188,342.3595 Q956.6313,341.2814 956.6313,340.0001 L956.6313,338.8439 Q956.6313,337.5158 957.2406,336.3751 Q957.8656,335.2189 958.9594,334.6095 Q960.0531,333.9845 961.2875,333.9845 Q962.0219,333.9845 962.6625,334.1564 Q963.3188,334.3126 963.8656,334.672 Z "/><text fill="#000000" font-family="sans-serif" font-size="12" lengthAdjust="spacingAndGlyphs" textLength="51" x="977.9" y="343.7072">StartView</text><line style="stroke: #A80036; stroke-width: 1.5;" x1="934.5" x2="1043.5" y1="354.797" y2="354.797"/><polygon fill="none" points="944.5,361.797,940.5,367.797,948.5,367.797" style="stroke: #1963A0; stroke-width: 1.0;"/><text fill="#000000" font-family="sans-serif" font-size="11" lengthAdjust="spacingAndGlyphs" textLength="60" x="953.5" y="370.2159">game: Game</text><line style="stroke: #A80036; stroke-width: 1.5;" x1="934.5" x2="1043.5" y1="376.6329" y2="376.6329"/><polygon fill="#4177AF" points="944.5,383.6329,940.5,389.6329,948.5,389.6329" style="stroke: #1963A0; stroke-width: 1.0;"/><text fill="#000000" font-family="sans-serif" font-size="11" lengthAdjust="spacingAndGlyphs" textLength="85" x="953.5" y="392.0519">StartView(Game)</text><polygon fill="#4177AF" points="944.5,397.4689,940.5,403.4689,948.5,403.4689" style="stroke: #1963A0; stroke-width: 1.0;"/><text fill="#000000" font-family="sans-serif" font-size="11" lengthAdjust="spacingAndGlyphs" textLength="70" x="953.5" y="405.8878">interact(): void</text><!--MD5=[0158df0baddf48f83142f472e341eacc]
class tictactoe.views.console.PlayView--><rect fill="#FEFECE" filter="url(#fwqb2rb093l5e)" height="89.5078" id="tictactoe.views.console.PlayView" style="stroke: #A80036; stroke-width: 1.5;" width="114" x="645" y="322.797"/><ellipse cx="674.85" cy="338.797" fill="#ADD1B2" rx="11" ry="11" style="stroke: #A80036; stroke-width: 1.0;"/><path d="M677.6156,334.672 Q677.7719,334.4533 677.9594,334.3439 Q678.1469,334.2345 678.3656,334.2345 Q678.7406,334.2345 678.975,334.5001 Q679.2094,334.7501 679.2094,335.3595 L679.2094,336.8126 Q679.2094,337.422 678.975,337.6876 Q678.7406,337.9533 678.3656,337.9533 Q678.0219,337.9533 677.8188,337.7501 Q677.6156,337.5626 677.5063,337.047 Q677.4594,336.6876 677.2719,336.5001 Q676.9438,336.1251 676.3344,335.9064 Q675.725,335.6876 675.1,335.6876 Q674.3344,335.6876 673.6938,336.0158 Q673.0688,336.3439 672.5688,337.0939 Q672.0844,337.8439 672.0844,338.8751 L672.0844,339.9689 Q672.0844,341.2033 672.975,342.0314 Q673.8656,342.8439 675.4594,342.8439 Q676.3969,342.8439 677.0531,342.5939 Q677.4438,342.4376 677.8656,342.0001 Q678.1313,341.7345 678.2719,341.6564 Q678.4281,341.5783 678.6313,341.5783 Q678.9594,341.5783 679.2094,341.8439 Q679.475,342.0939 679.475,342.4376 Q679.475,342.7814 679.1313,343.1876 Q678.6313,343.7658 677.8344,344.0939 Q676.7563,344.547 675.4594,344.547 Q673.9438,344.547 672.7406,343.922 Q671.7563,343.422 671.0688,342.3595 Q670.3813,341.2814 670.3813,340.0001 L670.3813,338.8439 Q670.3813,337.5158 670.9906,336.3751 Q671.6156,335.2189 672.7094,334.6095 Q673.8031,333.9845 675.0375,333.9845 Q675.7719,333.9845 676.4125,334.1564 Q677.0688,334.3126 677.6156,334.672 Z "/><text fill="#000000" font-family="sans-serif" font-size="12" lengthAdjust="spacingAndGlyphs" textLength="49" x="692.15" y="343.7072">PlayView</text><line style="stroke: #A80036; stroke-width: 1.5;" x1="646" x2="758" y1="354.797" y2="354.797"/><polygon fill="none" points="656,361.797,652,367.797,660,367.797" style="stroke: #1963A0; stroke-width: 1.0;"/><text fill="#000000" font-family="sans-serif" font-size="11" lengthAdjust="spacingAndGlyphs" textLength="60" x="665" y="370.2159">game: Game</text><line style="stroke: #A80036; stroke-width: 1.5;" x1="646" x2="758" y1="376.6329" y2="376.6329"/><polygon fill="#4177AF" points="656,383.6329,652,389.6329,660,389.6329" style="stroke: #1963A0; stroke-width: 1.0;"/><text fill="#000000" font-family="sans-serif" font-size="11" lengthAdjust="spacingAndGlyphs" textLength="82" x="665" y="392.0519">PlayView(Game)</text><polygon fill="#4177AF" points="656,397.4689,652,403.4689,660,403.4689" style="stroke: #1963A0; stroke-width: 1.0;"/><text fill="#000000" font-family="sans-serif" font-size="11" lengthAdjust="spacingAndGlyphs" textLength="88" x="665" y="405.8878">interact(): boolean</text><!--MD5=[4ad8229f56e3458317cb6855b3145039]
class tictactoe.views.console.ResultView--><rect fill="#FEFECE" filter="url(#fwqb2rb093l5e)" height="61.8359" id="tictactoe.views.console.ResultView" style="stroke: #A80036; stroke-width: 1.5;" width="104" x="794" y="336.797"/><ellipse cx="813.5" cy="352.797" fill="#ADD1B2" rx="11" ry="11" style="stroke: #A80036; stroke-width: 1.0;"/><path d="M816.2656,348.672 Q816.4219,348.4533 816.6094,348.3439 Q816.7969,348.2345 817.0156,348.2345 Q817.3906,348.2345 817.625,348.5001 Q817.8594,348.7501 817.8594,349.3595 L817.8594,350.8126 Q817.8594,351.422 817.625,351.6876 Q817.3906,351.9533 817.0156,351.9533 Q816.6719,351.9533 816.4688,351.7501 Q816.2656,351.5626 816.1563,351.047 Q816.1094,350.6876 815.9219,350.5001 Q815.5938,350.1251 814.9844,349.9064 Q814.375,349.6876 813.75,349.6876 Q812.9844,349.6876 812.3438,350.0158 Q811.7188,350.3439 811.2188,351.0939 Q810.7344,351.8439 810.7344,352.8751 L810.7344,353.9689 Q810.7344,355.2033 811.625,356.0314 Q812.5156,356.8439 814.1094,356.8439 Q815.0469,356.8439 815.7031,356.5939 Q816.0938,356.4376 816.5156,356.0001 Q816.7813,355.7345 816.9219,355.6564 Q817.0781,355.5783 817.2813,355.5783 Q817.6094,355.5783 817.8594,355.8439 Q818.125,356.0939 818.125,356.4376 Q818.125,356.7814 817.7813,357.1876 Q817.2813,357.7658 816.4844,358.0939 Q815.4063,358.547 814.1094,358.547 Q812.5938,358.547 811.3906,357.922 Q810.4063,357.422 809.7188,356.3595 Q809.0313,355.2814 809.0313,354.0001 L809.0313,352.8439 Q809.0313,351.5158 809.6406,350.3751 Q810.2656,349.2189 811.3594,348.6095 Q812.4531,347.9845 813.6875,347.9845 Q814.4219,347.9845 815.0625,348.1564 Q815.7188,348.3126 816.2656,348.672 Z "/><text fill="#000000" font-family="sans-serif" font-size="12" lengthAdjust="spacingAndGlyphs" textLength="62" x="828.5" y="357.7072">ResultView</text><line style="stroke: #A80036; stroke-width: 1.5;" x1="795" x2="897" y1="368.797" y2="368.797"/><line style="stroke: #A80036; stroke-width: 1.5;" x1="795" x2="897" y1="376.797" y2="376.797"/><polygon fill="#4177AF" points="805,383.797,801,389.797,809,389.797" style="stroke: #1963A0; stroke-width: 1.0;"/><text fill="#000000" font-family="sans-serif" font-size="11" lengthAdjust="spacingAndGlyphs" textLength="78" x="814" y="392.2159">writeln(int): void</text><!--MD5=[8830b246a550294711e6eb5af1606829]
class tictactoe.views.console.CoordinateView--><rect fill="#FEFECE" filter="url(#fwqb2rb093l5e)" height="61.8359" id="tictactoe.views.console.CoordinateView" style="stroke: #A80036; stroke-width: 1.5;" width="142" x="468" y="336.797"/><ellipse cx="493.35" cy="352.797" fill="#ADD1B2" rx="11" ry="11" style="stroke: #A80036; stroke-width: 1.0;"/><path d="M496.1156,348.672 Q496.2719,348.4533 496.4594,348.3439 Q496.6469,348.2345 496.8656,348.2345 Q497.2406,348.2345 497.475,348.5001 Q497.7094,348.7501 497.7094,349.3595 L497.7094,350.8126 Q497.7094,351.422 497.475,351.6876 Q497.2406,351.9533 496.8656,351.9533 Q496.5219,351.9533 496.3188,351.7501 Q496.1156,351.5626 496.0063,351.047 Q495.9594,350.6876 495.7719,350.5001 Q495.4438,350.1251 494.8344,349.9064 Q494.225,349.6876 493.6,349.6876 Q492.8344,349.6876 492.1938,350.0158 Q491.5688,350.3439 491.0688,351.0939 Q490.5844,351.8439 490.5844,352.8751 L490.5844,353.9689 Q490.5844,355.2033 491.475,356.0314 Q492.3656,356.8439 493.9594,356.8439 Q494.8969,356.8439 495.5531,356.5939 Q495.9438,356.4376 496.3656,356.0001 Q496.6313,355.7345 496.7719,355.6564 Q496.9281,355.5783 497.1313,355.5783 Q497.4594,355.5783 497.7094,355.8439 Q497.975,356.0939 497.975,356.4376 Q497.975,356.7814 497.6313,357.1876 Q497.1313,357.7658 496.3344,358.0939 Q495.2563,358.547 493.9594,358.547 Q492.4438,358.547 491.2406,357.922 Q490.2563,357.422 489.5688,356.3595 Q488.8813,355.2814 488.8813,354.0001 L488.8813,352.8439 Q488.8813,351.5158 489.4906,350.3751 Q490.1156,349.2189 491.2094,348.6095 Q492.3031,347.9845 493.5375,347.9845 Q494.2719,347.9845 494.9125,348.1564 Q495.5688,348.3126 496.1156,348.672 Z "/><text fill="#000000" font-family="sans-serif" font-size="12" lengthAdjust="spacingAndGlyphs" textLength="87" x="509.65" y="357.7072">CoordinateView</text><line style="stroke: #A80036; stroke-width: 1.5;" x1="469" x2="609" y1="368.797" y2="368.797"/><line style="stroke: #A80036; stroke-width: 1.5;" x1="469" x2="609" y1="376.797" y2="376.797"/><polygon fill="#4177AF" points="479,383.797,475,389.797,483,389.797" style="stroke: #1963A0; stroke-width: 1.0;"/><text fill="#000000" font-family="sans-serif" font-size="11" lengthAdjust="spacingAndGlyphs" textLength="116" x="488" y="392.2159">read(String): Coordinate</text><!--MD5=[1ca4e66fd27a79cb5d7093d90b3139a4]
class tictactoe.views.console.ErrorView--><rect fill="#FEFECE" filter="url(#fwqb2rb093l5e)" height="75.6719" id="tictactoe.views.console.ErrorView" style="stroke: #A80036; stroke-width: 1.5;" width="108" x="325" y="329.797"/><ellipse cx="350.35" cy="345.797" fill="#ADD1B2" rx="11" ry="11" style="stroke: #A80036; stroke-width: 1.0;"/><path d="M353.1156,341.672 Q353.2719,341.4533 353.4594,341.3439 Q353.6469,341.2345 353.8656,341.2345 Q354.2406,341.2345 354.475,341.5001 Q354.7094,341.7501 354.7094,342.3595 L354.7094,343.8126 Q354.7094,344.422 354.475,344.6876 Q354.2406,344.9533 353.8656,344.9533 Q353.5219,344.9533 353.3188,344.7501 Q353.1156,344.5626 353.0063,344.047 Q352.9594,343.6876 352.7719,343.5001 Q352.4438,343.1251 351.8344,342.9064 Q351.225,342.6876 350.6,342.6876 Q349.8344,342.6876 349.1938,343.0158 Q348.5688,343.3439 348.0688,344.0939 Q347.5844,344.8439 347.5844,345.8751 L347.5844,346.9689 Q347.5844,348.2033 348.475,349.0314 Q349.3656,349.8439 350.9594,349.8439 Q351.8969,349.8439 352.5531,349.5939 Q352.9438,349.4376 353.3656,349.0001 Q353.6313,348.7345 353.7719,348.6564 Q353.9281,348.5783 354.1313,348.5783 Q354.4594,348.5783 354.7094,348.8439 Q354.975,349.0939 354.975,349.4376 Q354.975,349.7814 354.6313,350.1876 Q354.1313,350.7658 353.3344,351.0939 Q352.2563,351.547 350.9594,351.547 Q349.4438,351.547 348.2406,350.922 Q347.2563,350.422 346.5688,349.3595 Q345.8813,348.2814 345.8813,347.0001 L345.8813,345.8439 Q345.8813,344.5158 346.4906,343.3751 Q347.1156,342.2189 348.2094,341.6095 Q349.3031,340.9845 350.5375,340.9845 Q351.2719,340.9845 351.9125,341.1564 Q352.5688,341.3126 353.1156,341.672 Z "/><text fill="#000000" font-family="sans-serif" font-size="12" lengthAdjust="spacingAndGlyphs" textLength="53" x="366.65" y="350.7072">ErrorView</text><line style="stroke: #A80036; stroke-width: 1.5;" x1="326" x2="432" y1="361.797" y2="361.797"/><line style="stroke: #A80036; stroke-width: 1.5;" x1="326" x2="432" y1="369.797" y2="369.797"/><polygon fill="#4177AF" points="336,376.797,332,382.797,340,382.797" style="stroke: #1963A0; stroke-width: 1.0;"/><text fill="#000000" font-family="sans-serif" font-size="11" lengthAdjust="spacingAndGlyphs" textLength="82" x="345" y="385.2159">ErrorView(Error)</text><polygon fill="#4177AF" points="336,390.6329,332,396.6329,340,396.6329" style="stroke: #1963A0; stroke-width: 1.0;"/><text fill="#000000" font-family="sans-serif" font-size="11" lengthAdjust="spacingAndGlyphs" textLength="67" x="345" y="399.0519">writeln(): void</text><!--MD5=[4afe6aabb27d783e4a9a9dcc50c35fae]
class tictactoe.views.console.MachinePlayerView--><rect fill="#FEFECE" filter="url(#fwqb2rb093l5e)" height="89.5078" id="tictactoe.views.console.MachinePlayerView" style="stroke: #A80036; stroke-width: 1.5;" width="216" x="634" y="145.297"/><ellipse cx="684.75" cy="161.297" fill="#ADD1B2" rx="11" ry="11" style="stroke: #A80036; stroke-width: 1.0;"/><path d="M687.5156,157.172 Q687.6719,156.9533 687.8594,156.8439 Q688.0469,156.7345 688.2656,156.7345 Q688.6406,156.7345 688.875,157.0001 Q689.1094,157.2501 689.1094,157.8595 L689.1094,159.3126 Q689.1094,159.922 688.875,160.1876 Q688.6406,160.4533 688.2656,160.4533 Q687.9219,160.4533 687.7188,160.2501 Q687.5156,160.0626 687.4063,159.547 Q687.3594,159.1876 687.1719,159.0001 Q686.8438,158.6251 686.2344,158.4064 Q685.625,158.1876 685,158.1876 Q684.2344,158.1876 683.5938,158.5158 Q682.9688,158.8439 682.4688,159.5939 Q681.9844,160.3439 681.9844,161.3751 L681.9844,162.4689 Q681.9844,163.7033 682.875,164.5314 Q683.7656,165.3439 685.3594,165.3439 Q686.2969,165.3439 686.9531,165.0939 Q687.3438,164.9376 687.7656,164.5001 Q688.0313,164.2345 688.1719,164.1564 Q688.3281,164.0783 688.5313,164.0783 Q688.8594,164.0783 689.1094,164.3439 Q689.375,164.5939 689.375,164.9376 Q689.375,165.2814 689.0313,165.6876 Q688.5313,166.2658 687.7344,166.5939 Q686.6563,167.047 685.3594,167.047 Q683.8438,167.047 682.6406,166.422 Q681.6563,165.922 680.9688,164.8595 Q680.2813,163.7814 680.2813,162.5001 L680.2813,161.3439 Q680.2813,160.0158 680.8906,158.8751 Q681.5156,157.7189 682.6094,157.1095 Q683.7031,156.4845 684.9375,156.4845 Q685.6719,156.4845 686.3125,156.6564 Q686.9688,156.8126 687.5156,157.172 Z "/><text fill="#000000" font-family="sans-serif" font-size="12" lengthAdjust="spacingAndGlyphs" textLength="106" x="705.25" y="166.2072">MachinePlayerView</text><line style="stroke: #A80036; stroke-width: 1.5;" x1="635" x2="849" y1="177.297" y2="177.297"/><line style="stroke: #A80036; stroke-width: 1.5;" x1="635" x2="849" y1="185.297" y2="185.297"/><polygon fill="#4177AF" points="645,192.297,641,198.297,649,198.297" style="stroke: #1963A0; stroke-width: 1.0;"/><text fill="#000000" font-family="sans-serif" font-size="11" lengthAdjust="spacingAndGlyphs" textLength="134" x="654" y="200.7159">MachinePlayerView(Player)</text><polygon fill="#4177AF" points="645,206.1329,641,212.1329,649,212.1329" style="stroke: #1963A0; stroke-width: 1.0;"/><text fill="#000000" font-family="sans-serif" font-size="11" lengthAdjust="spacingAndGlyphs" textLength="167" x="654" y="214.5519">readCoordinateToPut(): Coordinate</text><polygon fill="#4177AF" points="645,219.9689,641,225.9689,649,225.9689" style="stroke: #1963A0; stroke-width: 1.0;"/><text fill="#000000" font-family="sans-serif" font-size="11" lengthAdjust="spacingAndGlyphs" textLength="190" x="654" y="228.3878">readCoordinatesToMove(): Coordinate[]</text><!--MD5=[863eeac66a77264bd74e28cbddefcd23]
class tictactoe.views.console.ResumeView--><rect fill="#FEFECE" filter="url(#fwqb2rb093l5e)" height="75.6719" id="tictactoe.views.console.ResumeView" style="stroke: #A80036; stroke-width: 1.5;" width="142" x="188" y="152.297"/><ellipse cx="219.2" cy="168.297" fill="#ADD1B2" rx="11" ry="11" style="stroke: #A80036; stroke-width: 1.0;"/><path d="M221.9656,164.172 Q222.1219,163.9533 222.3094,163.8439 Q222.4969,163.7345 222.7156,163.7345 Q223.0906,163.7345 223.325,164.0001 Q223.5594,164.2501 223.5594,164.8595 L223.5594,166.3126 Q223.5594,166.922 223.325,167.1876 Q223.0906,167.4533 222.7156,167.4533 Q222.3719,167.4533 222.1688,167.2501 Q221.9656,167.0626 221.8563,166.547 Q221.8094,166.1876 221.6219,166.0001 Q221.2938,165.6251 220.6844,165.4064 Q220.075,165.1876 219.45,165.1876 Q218.6844,165.1876 218.0438,165.5158 Q217.4188,165.8439 216.9188,166.5939 Q216.4344,167.3439 216.4344,168.3751 L216.4344,169.4689 Q216.4344,170.7033 217.325,171.5314 Q218.2156,172.3439 219.8094,172.3439 Q220.7469,172.3439 221.4031,172.0939 Q221.7938,171.9376 222.2156,171.5001 Q222.4813,171.2345 222.6219,171.1564 Q222.7781,171.0783 222.9813,171.0783 Q223.3094,171.0783 223.5594,171.3439 Q223.825,171.5939 223.825,171.9376 Q223.825,172.2814 223.4813,172.6876 Q222.9813,173.2658 222.1844,173.5939 Q221.1063,174.047 219.8094,174.047 Q218.2938,174.047 217.0906,173.422 Q216.1063,172.922 215.4188,171.8595 Q214.7313,170.7814 214.7313,169.5001 L214.7313,168.3439 Q214.7313,167.0158 215.3406,165.8751 Q215.9656,164.7189 217.0594,164.1095 Q218.1531,163.4845 219.3875,163.4845 Q220.1219,163.4845 220.7625,163.6564 Q221.4188,163.8126 221.9656,164.172 Z "/><text fill="#000000" font-family="sans-serif" font-size="12" lengthAdjust="spacingAndGlyphs" textLength="74" x="236.8" y="173.2072">ResumeView</text><line style="stroke: #A80036; stroke-width: 1.5;" x1="189" x2="329" y1="184.297" y2="184.297"/><line style="stroke: #A80036; stroke-width: 1.5;" x1="189" x2="329" y1="192.297" y2="192.297"/><polygon fill="#4177AF" points="199,199.297,195,205.297,203,205.297" style="stroke: #1963A0; stroke-width: 1.0;"/><text fill="#000000" font-family="sans-serif" font-size="11" lengthAdjust="spacingAndGlyphs" textLength="73" x="208" y="207.7159">ResumeView()</text><polygon fill="#4177AF" points="199,213.1329,195,219.1329,203,219.1329" style="stroke: #1963A0; stroke-width: 1.0;"/><text fill="#000000" font-family="sans-serif" font-size="11" lengthAdjust="spacingAndGlyphs" textLength="116" x="208" y="221.5519">interact(Game): boolean</text><!--MD5=[d4f4ae14a368e3fcfff527b6459d05f0]
class tictactoe.views.console.UserPlayerView--><rect fill="#FEFECE" filter="url(#fwqb2rb093l5e)" height="117.1797" id="tictactoe.views.console.UserPlayerView" style="stroke: #A80036; stroke-width: 1.5;" width="233" x="365.5" y="131.797"/><ellipse cx="434.25" cy="147.797" fill="#ADD1B2" rx="11" ry="11" style="stroke: #A80036; stroke-width: 1.0;"/><path d="M437.0156,143.672 Q437.1719,143.4533 437.3594,143.3439 Q437.5469,143.2345 437.7656,143.2345 Q438.1406,143.2345 438.375,143.5001 Q438.6094,143.7501 438.6094,144.3595 L438.6094,145.8126 Q438.6094,146.422 438.375,146.6876 Q438.1406,146.9533 437.7656,146.9533 Q437.4219,146.9533 437.2188,146.7501 Q437.0156,146.5626 436.9063,146.047 Q436.8594,145.6876 436.6719,145.5001 Q436.3438,145.1251 435.7344,144.9064 Q435.125,144.6876 434.5,144.6876 Q433.7344,144.6876 433.0938,145.0158 Q432.4688,145.3439 431.9688,146.0939 Q431.4844,146.8439 431.4844,147.8751 L431.4844,148.9689 Q431.4844,150.2033 432.375,151.0314 Q433.2656,151.8439 434.8594,151.8439 Q435.7969,151.8439 436.4531,151.5939 Q436.8438,151.4376 437.2656,151.0001 Q437.5313,150.7345 437.6719,150.6564 Q437.8281,150.5783 438.0313,150.5783 Q438.3594,150.5783 438.6094,150.8439 Q438.875,151.0939 438.875,151.4376 Q438.875,151.7814 438.5313,152.1876 Q438.0313,152.7658 437.2344,153.0939 Q436.1563,153.547 434.8594,153.547 Q433.3438,153.547 432.1406,152.922 Q431.1563,152.422 430.4688,151.3595 Q429.7813,150.2814 429.7813,149.0001 L429.7813,147.8439 Q429.7813,146.5158 430.3906,145.3751 Q431.0156,144.2189 432.1094,143.6095 Q433.2031,142.9845 434.4375,142.9845 Q435.1719,142.9845 435.8125,143.1564 Q436.4688,143.3126 437.0156,143.672 Z "/><text fill="#000000" font-family="sans-serif" font-size="12" lengthAdjust="spacingAndGlyphs" textLength="87" x="454.75" y="152.7072">UserPlayerView</text><line style="stroke: #A80036; stroke-width: 1.5;" x1="366.5" x2="597.5" y1="163.797" y2="163.797"/><polygon fill="none" points="376.5,170.797,372.5,176.797,380.5,176.797" style="stroke: #1963A0; stroke-width: 1.0;"/><text fill="#000000" font-family="sans-serif" font-size="11" lengthAdjust="spacingAndGlyphs" text-decoration="underline" textLength="183" x="385.5" y="179.2159">ENTER_COORDINATE_TO_PUT: String</text><polygon fill="none" points="376.5,184.6329,372.5,190.6329,380.5,190.6329" style="stroke: #1963A0; stroke-width: 1.0;"/><text fill="#000000" font-family="sans-serif" font-size="11" lengthAdjust="spacingAndGlyphs" text-decoration="underline" textLength="207" x="385.5" y="193.0519">ENTER_COORDINATE_TO_REMOVE: String</text><line style="stroke: #A80036; stroke-width: 1.5;" x1="366.5" x2="597.5" y1="199.4689" y2="199.4689"/><polygon fill="#4177AF" points="376.5,206.4689,372.5,212.4689,380.5,212.4689" style="stroke: #1963A0; stroke-width: 1.0;"/><text fill="#000000" font-family="sans-serif" font-size="11" lengthAdjust="spacingAndGlyphs" textLength="117" x="385.5" y="214.8878">UserPlayerView(Player)</text><polygon fill="#4177AF" points="376.5,220.3048,372.5,226.3048,380.5,226.3048" style="stroke: #1963A0; stroke-width: 1.0;"/><text fill="#000000" font-family="sans-serif" font-size="11" lengthAdjust="spacingAndGlyphs" textLength="167" x="385.5" y="228.7238">readCoordinateToPut(): Coordinate</text><polygon fill="#4177AF" points="376.5,234.1408,372.5,240.1408,380.5,240.1408" style="stroke: #1963A0; stroke-width: 1.0;"/><text fill="#000000" font-family="sans-serif" font-size="11" lengthAdjust="spacingAndGlyphs" textLength="190" x="385.5" y="242.5597">readCoordinatesToMove(): Coordinate[]</text><!--MD5=[2dcb8e10b6e8b78f41f52f48677e1ea3]
class utils.WithConsoleView--><rect fill="#FEFECE" filter="url(#fwqb2rb093l5e)" height="48" id="utils.WithConsoleView" style="stroke: #A80036; stroke-width: 1.5;" width="129" x="1719.5" y="166.297"/><ellipse cx="1734.5" cy="182.297" fill="#ADD1B2" rx="11" ry="11" style="stroke: #A80036; stroke-width: 1.0;"/><path d="M1737.2656,178.172 Q1737.4219,177.9533 1737.6094,177.8439 Q1737.7969,177.7345 1738.0156,177.7345 Q1738.3906,177.7345 1738.625,178.0001 Q1738.8594,178.2501 1738.8594,178.8595 L1738.8594,180.3126 Q1738.8594,180.922 1738.625,181.1876 Q1738.3906,181.4533 1738.0156,181.4533 Q1737.6719,181.4533 1737.4688,181.2501 Q1737.2656,181.0626 1737.1563,180.547 Q1737.1094,180.1876 1736.9219,180.0001 Q1736.5938,179.6251 1735.9844,179.4064 Q1735.375,179.1876 1734.75,179.1876 Q1733.9844,179.1876 1733.3438,179.5158 Q1732.7188,179.8439 1732.2188,180.5939 Q1731.7344,181.3439 1731.7344,182.3751 L1731.7344,183.4689 Q1731.7344,184.7033 1732.625,185.5314 Q1733.5156,186.3439 1735.1094,186.3439 Q1736.0469,186.3439 1736.7031,186.0939 Q1737.0938,185.9376 1737.5156,185.5001 Q1737.7813,185.2345 1737.9219,185.1564 Q1738.0781,185.0783 1738.2813,185.0783 Q1738.6094,185.0783 1738.8594,185.3439 Q1739.125,185.5939 1739.125,185.9376 Q1739.125,186.2814 1738.7813,186.6876 Q1738.2813,187.2658 1737.4844,187.5939 Q1736.4063,188.047 1735.1094,188.047 Q1733.5938,188.047 1732.3906,187.422 Q1731.4063,186.922 1730.7188,185.8595 Q1730.0313,184.7814 1730.0313,183.5001 L1730.0313,182.3439 Q1730.0313,181.0158 1730.6406,179.8751 Q1731.2656,178.7189 1732.3594,178.1095 Q1733.4531,177.4845 1734.6875,177.4845 Q1735.4219,177.4845 1736.0625,177.6564 Q1736.7188,177.8126 1737.2656,178.172 Z "/><text fill="#000000" font-family="sans-serif" font-size="12" lengthAdjust="spacingAndGlyphs" textLength="97" x="1748.5" y="187.2072">WithConsoleView</text><line style="stroke: #A80036; stroke-width: 1.5;" x1="1720.5" x2="1847.5" y1="198.297" y2="198.297"/><line style="stroke: #A80036; stroke-width: 1.5;" x1="1720.5" x2="1847.5" y1="206.297" y2="206.297"/><!--MD5=[55e41f1e5a8b39b15e1066bc4af42afb]
class utils.PlayersDialog--><rect fill="#FEFECE" filter="url(#fwqb2rb093l5e)" height="48" id="utils.PlayersDialog" style="stroke: #A80036; stroke-width: 1.5;" width="109" x="1883.5" y="166.297"/><ellipse cx="1898.5" cy="182.297" fill="#ADD1B2" rx="11" ry="11" style="stroke: #A80036; stroke-width: 1.0;"/><path d="M1901.2656,178.172 Q1901.4219,177.9533 1901.6094,177.8439 Q1901.7969,177.7345 1902.0156,177.7345 Q1902.3906,177.7345 1902.625,178.0001 Q1902.8594,178.2501 1902.8594,178.8595 L1902.8594,180.3126 Q1902.8594,180.922 1902.625,181.1876 Q1902.3906,181.4533 1902.0156,181.4533 Q1901.6719,181.4533 1901.4688,181.2501 Q1901.2656,181.0626 1901.1563,180.547 Q1901.1094,180.1876 1900.9219,180.0001 Q1900.5938,179.6251 1899.9844,179.4064 Q1899.375,179.1876 1898.75,179.1876 Q1897.9844,179.1876 1897.3438,179.5158 Q1896.7188,179.8439 1896.2188,180.5939 Q1895.7344,181.3439 1895.7344,182.3751 L1895.7344,183.4689 Q1895.7344,184.7033 1896.625,185.5314 Q1897.5156,186.3439 1899.1094,186.3439 Q1900.0469,186.3439 1900.7031,186.0939 Q1901.0938,185.9376 1901.5156,185.5001 Q1901.7813,185.2345 1901.9219,185.1564 Q1902.0781,185.0783 1902.2813,185.0783 Q1902.6094,185.0783 1902.8594,185.3439 Q1903.125,185.5939 1903.125,185.9376 Q1903.125,186.2814 1902.7813,186.6876 Q1902.2813,187.2658 1901.4844,187.5939 Q1900.4063,188.047 1899.1094,188.047 Q1897.5938,188.047 1896.3906,187.422 Q1895.4063,186.922 1894.7188,185.8595 Q1894.0313,184.7814 1894.0313,183.5001 L1894.0313,182.3439 Q1894.0313,181.0158 1894.6406,179.8751 Q1895.2656,178.7189 1896.3594,178.1095 Q1897.4531,177.4845 1898.6875,177.4845 Q1899.4219,177.4845 1900.0625,177.6564 Q1900.7188,177.8126 1901.2656,178.172 Z "/><text fill="#000000" font-family="sans-serif" font-size="12" lengthAdjust="spacingAndGlyphs" textLength="77" x="1912.5" y="187.2072">PlayersDialog</text><line style="stroke: #A80036; stroke-width: 1.5;" x1="1884.5" x2="1991.5" y1="198.297" y2="198.297"/><line style="stroke: #A80036; stroke-width: 1.5;" x1="1884.5" x2="1991.5" y1="206.297" y2="206.297"/><!--MD5=[015754420c4cdd9bacda884b3fa8c6ca]
class tictactoe.views.View--><rect fill="#FEFECE" filter="url(#fwqb2rb093l5e)" height="48" id="tictactoe.views.View" style="stroke: #A80036; stroke-width: 1.5;" width="58" x="1605" y="166.297"/><ellipse cx="1620" cy="182.297" fill="#ADD1B2" rx="11" ry="11" style="stroke: #A80036; stroke-width: 1.0;"/><path d="M1622.7656,178.172 Q1622.9219,177.9533 1623.1094,177.8439 Q1623.2969,177.7345 1623.5156,177.7345 Q1623.8906,177.7345 1624.125,178.0001 Q1624.3594,178.2501 1624.3594,178.8595 L1624.3594,180.3126 Q1624.3594,180.922 1624.125,181.1876 Q1623.8906,181.4533 1623.5156,181.4533 Q1623.1719,181.4533 1622.9688,181.2501 Q1622.7656,181.0626 1622.6563,180.547 Q1622.6094,180.1876 1622.4219,180.0001 Q1622.0938,179.6251 1621.4844,179.4064 Q1620.875,179.1876 1620.25,179.1876 Q1619.4844,179.1876 1618.8438,179.5158 Q1618.2188,179.8439 1617.7188,180.5939 Q1617.2344,181.3439 1617.2344,182.3751 L1617.2344,183.4689 Q1617.2344,184.7033 1618.125,185.5314 Q1619.0156,186.3439 1620.6094,186.3439 Q1621.5469,186.3439 1622.2031,186.0939 Q1622.5938,185.9376 1623.0156,185.5001 Q1623.2813,185.2345 1623.4219,185.1564 Q1623.5781,185.0783 1623.7813,185.0783 Q1624.1094,185.0783 1624.3594,185.3439 Q1624.625,185.5939 1624.625,185.9376 Q1624.625,186.2814 1624.2813,186.6876 Q1623.7813,187.2658 1622.9844,187.5939 Q1621.9063,188.047 1620.6094,188.047 Q1619.0938,188.047 1617.8906,187.422 Q1616.9063,186.922 1616.2188,185.8595 Q1615.5313,184.7814 1615.5313,183.5001 L1615.5313,182.3439 Q1615.5313,181.0158 1616.1406,179.8751 Q1616.7656,178.7189 1617.8594,178.1095 Q1618.9531,177.4845 1620.1875,177.4845 Q1620.9219,177.4845 1621.5625,177.6564 Q1622.2188,177.8126 1622.7656,178.172 Z "/><text fill="#000000" font-family="sans-serif" font-size="12" lengthAdjust="spacingAndGlyphs" textLength="26" x="1634" y="187.2072">View</text><line style="stroke: #A80036; stroke-width: 1.5;" x1="1606" x2="1662" y1="198.297" y2="198.297"/><line style="stroke: #A80036; stroke-width: 1.5;" x1="1606" x2="1662" y1="206.297" y2="206.297"/><!--MD5=[17799e03bfee0ccb3aa03b93da9c26d6]
class tictactoe.views.ErrorView--><rect fill="#FEFECE" filter="url(#fwqb2rb093l5e)" height="48" id="tictactoe.views.ErrorView" style="stroke: #A80036; stroke-width: 1.5;" width="85" x="1101.5" y="166.297"/><ellipse cx="1116.5" cy="182.297" fill="#ADD1B2" rx="11" ry="11" style="stroke: #A80036; stroke-width: 1.0;"/><path d="M1119.2656,178.172 Q1119.4219,177.9533 1119.6094,177.8439 Q1119.7969,177.7345 1120.0156,177.7345 Q1120.3906,177.7345 1120.625,178.0001 Q1120.8594,178.2501 1120.8594,178.8595 L1120.8594,180.3126 Q1120.8594,180.922 1120.625,181.1876 Q1120.3906,181.4533 1120.0156,181.4533 Q1119.6719,181.4533 1119.4688,181.2501 Q1119.2656,181.0626 1119.1563,180.547 Q1119.1094,180.1876 1118.9219,180.0001 Q1118.5938,179.6251 1117.9844,179.4064 Q1117.375,179.1876 1116.75,179.1876 Q1115.9844,179.1876 1115.3438,179.5158 Q1114.7188,179.8439 1114.2188,180.5939 Q1113.7344,181.3439 1113.7344,182.3751 L1113.7344,183.4689 Q1113.7344,184.7033 1114.625,185.5314 Q1115.5156,186.3439 1117.1094,186.3439 Q1118.0469,186.3439 1118.7031,186.0939 Q1119.0938,185.9376 1119.5156,185.5001 Q1119.7813,185.2345 1119.9219,185.1564 Q1120.0781,185.0783 1120.2813,185.0783 Q1120.6094,185.0783 1120.8594,185.3439 Q1121.125,185.5939 1121.125,185.9376 Q1121.125,186.2814 1120.7813,186.6876 Q1120.2813,187.2658 1119.4844,187.5939 Q1118.4063,188.047 1117.1094,188.047 Q1115.5938,188.047 1114.3906,187.422 Q1113.4063,186.922 1112.7188,185.8595 Q1112.0313,184.7814 1112.0313,183.5001 L1112.0313,182.3439 Q1112.0313,181.0158 1112.6406,179.8751 Q1113.2656,178.7189 1114.3594,178.1095 Q1115.4531,177.4845 1116.6875,177.4845 Q1117.4219,177.4845 1118.0625,177.6564 Q1118.7188,177.8126 1119.2656,178.172 Z "/><text fill="#000000" font-family="sans-serif" font-size="12" lengthAdjust="spacingAndGlyphs" textLength="53" x="1130.5" y="187.2072">ErrorView</text><line style="stroke: #A80036; stroke-width: 1.5;" x1="1102.5" x2="1185.5" y1="198.297" y2="198.297"/><line style="stroke: #A80036; stroke-width: 1.5;" x1="1102.5" x2="1185.5" y1="206.297" y2="206.297"/><!--MD5=[2ae15d20e7f22fd333327d3852982126]
class tictactoe.views.PlayerView--><rect fill="#FEFECE" filter="url(#fwqb2rb093l5e)" height="48" id="tictactoe.views.PlayerView" style="stroke: #A80036; stroke-width: 1.5;" width="92" x="1351" y="166.297"/><ellipse cx="1366" cy="182.297" fill="#ADD1B2" rx="11" ry="11" style="stroke: #A80036; stroke-width: 1.0;"/><path d="M1368.7656,178.172 Q1368.9219,177.9533 1369.1094,177.8439 Q1369.2969,177.7345 1369.5156,177.7345 Q1369.8906,177.7345 1370.125,178.0001 Q1370.3594,178.2501 1370.3594,178.8595 L1370.3594,180.3126 Q1370.3594,180.922 1370.125,181.1876 Q1369.8906,181.4533 1369.5156,181.4533 Q1369.1719,181.4533 1368.9688,181.2501 Q1368.7656,181.0626 1368.6563,180.547 Q1368.6094,180.1876 1368.4219,180.0001 Q1368.0938,179.6251 1367.4844,179.4064 Q1366.875,179.1876 1366.25,179.1876 Q1365.4844,179.1876 1364.8438,179.5158 Q1364.2188,179.8439 1363.7188,180.5939 Q1363.2344,181.3439 1363.2344,182.3751 L1363.2344,183.4689 Q1363.2344,184.7033 1364.125,185.5314 Q1365.0156,186.3439 1366.6094,186.3439 Q1367.5469,186.3439 1368.2031,186.0939 Q1368.5938,185.9376 1369.0156,185.5001 Q1369.2813,185.2345 1369.4219,185.1564 Q1369.5781,185.0783 1369.7813,185.0783 Q1370.1094,185.0783 1370.3594,185.3439 Q1370.625,185.5939 1370.625,185.9376 Q1370.625,186.2814 1370.2813,186.6876 Q1369.7813,187.2658 1368.9844,187.5939 Q1367.9063,188.047 1366.6094,188.047 Q1365.0938,188.047 1363.8906,187.422 Q1362.9063,186.922 1362.2188,185.8595 Q1361.5313,184.7814 1361.5313,183.5001 L1361.5313,182.3439 Q1361.5313,181.0158 1362.1406,179.8751 Q1362.7656,178.7189 1363.8594,178.1095 Q1364.9531,177.4845 1366.1875,177.4845 Q1366.9219,177.4845 1367.5625,177.6564 Q1368.2188,177.8126 1368.7656,178.172 Z "/><text fill="#000000" font-family="sans-serif" font-size="12" lengthAdjust="spacingAndGlyphs" textLength="60" x="1380" y="187.2072">PlayerView</text><line style="stroke: #A80036; stroke-width: 1.5;" x1="1352" x2="1442" y1="198.297" y2="198.297"/><line style="stroke: #A80036; stroke-width: 1.5;" x1="1352" x2="1442" y1="206.297" y2="206.297"/><!--MD5=[973b15c09f519f065f4b28972f0c8773]
class tictactoe.views.ResultView--><rect fill="#FEFECE" filter="url(#fwqb2rb093l5e)" height="48" id="tictactoe.views.ResultView" style="stroke: #A80036; stroke-width: 1.5;" width="94" x="1222" y="166.297"/><ellipse cx="1237" cy="182.297" fill="#ADD1B2" rx="11" ry="11" style="stroke: #A80036; stroke-width: 1.0;"/><path d="M1239.7656,178.172 Q1239.9219,177.9533 1240.1094,177.8439 Q1240.2969,177.7345 1240.5156,177.7345 Q1240.8906,177.7345 1241.125,178.0001 Q1241.3594,178.2501 1241.3594,178.8595 L1241.3594,180.3126 Q1241.3594,180.922 1241.125,181.1876 Q1240.8906,181.4533 1240.5156,181.4533 Q1240.1719,181.4533 1239.9688,181.2501 Q1239.7656,181.0626 1239.6563,180.547 Q1239.6094,180.1876 1239.4219,180.0001 Q1239.0938,179.6251 1238.4844,179.4064 Q1237.875,179.1876 1237.25,179.1876 Q1236.4844,179.1876 1235.8438,179.5158 Q1235.2188,179.8439 1234.7188,180.5939 Q1234.2344,181.3439 1234.2344,182.3751 L1234.2344,183.4689 Q1234.2344,184.7033 1235.125,185.5314 Q1236.0156,186.3439 1237.6094,186.3439 Q1238.5469,186.3439 1239.2031,186.0939 Q1239.5938,185.9376 1240.0156,185.5001 Q1240.2813,185.2345 1240.4219,185.1564 Q1240.5781,185.0783 1240.7813,185.0783 Q1241.1094,185.0783 1241.3594,185.3439 Q1241.625,185.5939 1241.625,185.9376 Q1241.625,186.2814 1241.2813,186.6876 Q1240.7813,187.2658 1239.9844,187.5939 Q1238.9063,188.047 1237.6094,188.047 Q1236.0938,188.047 1234.8906,187.422 Q1233.9063,186.922 1233.2188,185.8595 Q1232.5313,184.7814 1232.5313,183.5001 L1232.5313,182.3439 Q1232.5313,181.0158 1233.1406,179.8751 Q1233.7656,178.7189 1234.8594,178.1095 Q1235.9531,177.4845 1237.1875,177.4845 Q1237.9219,177.4845 1238.5625,177.6564 Q1239.2188,177.8126 1239.7656,178.172 Z "/><text fill="#000000" font-family="sans-serif" font-size="12" lengthAdjust="spacingAndGlyphs" textLength="62" x="1251" y="187.2072">ResultView</text><line style="stroke: #A80036; stroke-width: 1.5;" x1="1223" x2="1315" y1="198.297" y2="198.297"/><line style="stroke: #A80036; stroke-width: 1.5;" x1="1223" x2="1315" y1="206.297" y2="206.297"/><!--MD5=[edeafd8e862636cda68e6fb1f68b81b5]
class tictactoe.views.BoardView--><rect fill="#FEFECE" filter="url(#fwqb2rb093l5e)" height="48" id="tictactoe.views.BoardView" style="stroke: #A80036; stroke-width: 1.5;" width="91" x="1478.5" y="166.297"/><ellipse cx="1493.5" cy="182.297" fill="#ADD1B2" rx="11" ry="11" style="stroke: #A80036; stroke-width: 1.0;"/><path d="M1496.2656,178.172 Q1496.4219,177.9533 1496.6094,177.8439 Q1496.7969,177.7345 1497.0156,177.7345 Q1497.3906,177.7345 1497.625,178.0001 Q1497.8594,178.2501 1497.8594,178.8595 L1497.8594,180.3126 Q1497.8594,180.922 1497.625,181.1876 Q1497.3906,181.4533 1497.0156,181.4533 Q1496.6719,181.4533 1496.4688,181.2501 Q1496.2656,181.0626 1496.1563,180.547 Q1496.1094,180.1876 1495.9219,180.0001 Q1495.5938,179.6251 1494.9844,179.4064 Q1494.375,179.1876 1493.75,179.1876 Q1492.9844,179.1876 1492.3438,179.5158 Q1491.7188,179.8439 1491.2188,180.5939 Q1490.7344,181.3439 1490.7344,182.3751 L1490.7344,183.4689 Q1490.7344,184.7033 1491.625,185.5314 Q1492.5156,186.3439 1494.1094,186.3439 Q1495.0469,186.3439 1495.7031,186.0939 Q1496.0938,185.9376 1496.5156,185.5001 Q1496.7813,185.2345 1496.9219,185.1564 Q1497.0781,185.0783 1497.2813,185.0783 Q1497.6094,185.0783 1497.8594,185.3439 Q1498.125,185.5939 1498.125,185.9376 Q1498.125,186.2814 1497.7813,186.6876 Q1497.2813,187.2658 1496.4844,187.5939 Q1495.4063,188.047 1494.1094,188.047 Q1492.5938,188.047 1491.3906,187.422 Q1490.4063,186.922 1489.7188,185.8595 Q1489.0313,184.7814 1489.0313,183.5001 L1489.0313,182.3439 Q1489.0313,181.0158 1489.6406,179.8751 Q1490.2656,178.7189 1491.3594,178.1095 Q1492.4531,177.4845 1493.6875,177.4845 Q1494.4219,177.4845 1495.0625,177.6564 Q1495.7188,177.8126 1496.2656,178.172 Z "/><text fill="#000000" font-family="sans-serif" font-size="12" lengthAdjust="spacingAndGlyphs" textLength="59" x="1507.5" y="187.2072">BoardView</text><line style="stroke: #A80036; stroke-width: 1.5;" x1="1479.5" x2="1568.5" y1="198.297" y2="198.297"/><line style="stroke: #A80036; stroke-width: 1.5;" x1="1479.5" x2="1568.5" y1="206.297" y2="206.297"/><!--MD5=[8d3188f3c370ea7d5d91d12bca83b67a]
class tictactoe.models.Game--><rect fill="#FEFECE" filter="url(#fwqb2rb093l5e)" height="48" id="tictactoe.models.Game" style="stroke: #A80036; stroke-width: 1.5;" width="66" x="66" y="343.797"/><ellipse cx="81" cy="359.797" fill="#ADD1B2" rx="11" ry="11" style="stroke: #A80036; stroke-width: 1.0;"/><path d="M83.7656,355.672 Q83.9219,355.4533 84.1094,355.3439 Q84.2969,355.2345 84.5156,355.2345 Q84.8906,355.2345 85.125,355.5001 Q85.3594,355.7501 85.3594,356.3595 L85.3594,357.8126 Q85.3594,358.422 85.125,358.6876 Q84.8906,358.9533 84.5156,358.9533 Q84.1719,358.9533 83.9688,358.7501 Q83.7656,358.5626 83.6563,358.047 Q83.6094,357.6876 83.4219,357.5001 Q83.0938,357.1251 82.4844,356.9064 Q81.875,356.6876 81.25,356.6876 Q80.4844,356.6876 79.8438,357.0158 Q79.2188,357.3439 78.7188,358.0939 Q78.2344,358.8439 78.2344,359.8751 L78.2344,360.9689 Q78.2344,362.2033 79.125,363.0314 Q80.0156,363.8439 81.6094,363.8439 Q82.5469,363.8439 83.2031,363.5939 Q83.5938,363.4376 84.0156,363.0001 Q84.2813,362.7345 84.4219,362.6564 Q84.5781,362.5783 84.7813,362.5783 Q85.1094,362.5783 85.3594,362.8439 Q85.625,363.0939 85.625,363.4376 Q85.625,363.7814 85.2813,364.1876 Q84.7813,364.7658 83.9844,365.0939 Q82.9063,365.547 81.6094,365.547 Q80.0938,365.547 78.8906,364.922 Q77.9063,364.422 77.2188,363.3595 Q76.5313,362.2814 76.5313,361.0001 L76.5313,359.8439 Q76.5313,358.5158 77.1406,357.3751 Q77.7656,356.2189 78.8594,355.6095 Q79.9531,354.9845 81.1875,354.9845 Q81.9219,354.9845 82.5625,355.1564 Q83.2188,355.3126 83.7656,355.672 Z "/><text fill="#000000" font-family="sans-serif" font-size="12" lengthAdjust="spacingAndGlyphs" textLength="34" x="95" y="364.7072">Game</text><line style="stroke: #A80036; stroke-width: 1.5;" x1="67" x2="131" y1="375.797" y2="375.797"/><line style="stroke: #A80036; stroke-width: 1.5;" x1="67" x2="131" y1="383.797" y2="383.797"/><!--MD5=[4fe29ebdeb3371b5754843c99b0088e8]
reverse link utils.WithConsoleView to tictactoe.views.console.BoardView--><path d="M1738.77,226.41 C1720.87,239.131 1699.66,252.809 1679,262.797 C1419.33,388.347 1087.23,472.268 923.502,509.064 " fill="none" id="utils.WithConsoleView&lt;-tictactoe.views.console.BoardView" style="stroke: #A80036; stroke-width: 1.0;"/><polygon fill="none" points="1734.84,220.61,1755.1,214.422,1743.12,231.898,1734.84,220.61" style="stroke: #A80036; stroke-width: 1.0;"/><!--MD5=[d1f1f21fa3eb12d639631512d925e9a6]
reverse link tictactoe.views.View to tictactoe.views.console.ConsoleView--><path d="M1628.5,146.056 C1621.47,110.961 1605.52,64.486 1569.5,43.797 C1524.5,17.953 1150.12,23.183 1102.5,43.797 C1066.81,59.248 1036.12,89.031 1012.85,117.73 " fill="none" id="tictactoe.views.View&lt;-tictactoe.views.console.ConsoleView" style="stroke: #A80036; stroke-width: 1.0;"/><polygon fill="none" points="1635.46,145.229,1631.83,166.105,1621.65,147.521,1635.46,145.229" style="stroke: #A80036; stroke-width: 1.0;"/><!--MD5=[9113815f8bbc012213d6467f94b3dc5b]
link tictactoe.views.console.ConsoleView to tictactoe.views.console.StartView--><path d="M976.4219,274.8223 C976.4219,274.8223 979.678,298.628 981.147,309.374 " fill="none" id="tictactoe.views.console.ConsoleView-tictactoe.views.console.StartView" style="stroke: #A80036; stroke-width: 1.0;"/><polygon fill="#A80036" points="982.95,322.558,985.6937,313.099,982.2725,317.6041,977.7674,314.183,982.95,322.558" style="stroke: #A80036; stroke-width: 1.0;"/><line style="stroke: #A80036; stroke-width: 1.0;" x1="982.2725" x2="981.189" y1="317.6041" y2="309.6785"/><polygon fill="#A80036" points="974.796,262.933,971.6459,269.4197,976.4219,274.8223,979.5721,268.3357,974.796,262.933" style="stroke: #A80036; stroke-width: 1.0;"/><!--MD5=[1735144fa38f1aa47117a26d071db586]
link tictactoe.views.console.ConsoleView to tictactoe.views.console.PlayView--><path d="M875.0651,258.1259 C875.0651,258.1259 869.372,261.476 867,262.797 C828.859,284.044 812.968,276.569 776,299.797 C769.163,304.093 762.363,309.045 755.813,314.271 " fill="none" id="tictactoe.views.console.ConsoleView-tictactoe.views.console.PlayView" style="stroke: #A80036; stroke-width: 1.0;"/><polygon fill="#A80036" points="745.758,322.655,755.2321,319.964,749.5983,319.4532,750.1091,313.8194,745.758,322.655" style="stroke: #A80036; stroke-width: 1.0;"/><line style="stroke: #A80036; stroke-width: 1.0;" x1="749.5983" x2="755.7425" y1="319.4532" y2="314.3305"/><polygon fill="#A80036" points="885.287,251.84,878.0807,251.5756,875.0651,258.1259,882.2713,258.3902,885.287,251.84" style="stroke: #A80036; stroke-width: 1.0;"/><!--MD5=[44d2792f564883fbc9918566bab83309]
link tictactoe.views.console.ConsoleView to tictactoe.views.console.ResultView--><path d="M909.6926,272.8652 C909.6926,272.8652 884.283,310.338 873.72,325.915 " fill="none" id="tictactoe.views.console.ConsoleView-tictactoe.views.console.ResultView" style="stroke: #A80036; stroke-width: 1.0;"/><polygon fill="#A80036" points="866.393,336.721,874.7545,331.5167,869.199,332.5826,868.1331,327.0271,866.393,336.721" style="stroke: #A80036; stroke-width: 1.0;"/><line style="stroke: #A80036; stroke-width: 1.0;" x1="869.199" x2="873.689" y1="332.5826" y2="325.9615"/><polygon fill="#A80036" points="916.427,262.933,909.7491,265.6543,909.6926,272.8652,916.3705,270.1439,916.427,262.933" style="stroke: #A80036; stroke-width: 1.0;"/><!--MD5=[d983ff7a7ecf259bcdad60485d19cf95]
reverse link utils.WithConsoleView to tictactoe.views.console.CoordinateView--><path d="M1743.22,227.002 C1724.87,240.867 1702.15,255.216 1679,262.797 C1456.7,335.602 847.301,221.138 627,299.797 C605.3,307.545 584.607,322.751 568.746,336.721 " fill="none" id="utils.WithConsoleView&lt;-tictactoe.views.console.CoordinateView" style="stroke: #A80036; stroke-width: 1.0;"/><polygon fill="none" points="1739.05,221.376,1759.04,214.353,1747.79,232.31,1739.05,221.376" style="stroke: #A80036; stroke-width: 1.0;"/><!--MD5=[521be967e4e828bbb4868581b766b1da]
reverse link tictactoe.views.ErrorView to tictactoe.views.console.ErrorView--><path d="M1110.6,228.877 C1096.67,241.999 1079.44,255.309 1061,262.797 C808.943,365.169 699.673,191.741 450,299.797 C434.602,306.461 420.495,317.991 408.983,329.627 " fill="none" id="tictactoe.views.ErrorView&lt;-tictactoe.views.console.ErrorView" style="stroke: #A80036; stroke-width: 1.0;"/><polygon fill="none" points="1105.78,223.787,1124.81,214.461,1115.75,233.617,1105.78,223.787" style="stroke: #A80036; stroke-width: 1.0;"/><!--MD5=[f807ad8458e0e3d6ca100de41032e69a]
reverse link tictactoe.views.PlayerView to tictactoe.views.console.MachinePlayerView--><path d="M1386.39,146.734 C1375.33,111.903 1354.19,65.444 1316.5,43.797 C1274.97,19.945 929.648,25.242 885.5,43.797 C836.924,64.213 796.552,109.987 771.134,144.976 " fill="none" id="tictactoe.views.PlayerView&lt;-tictactoe.views.console.MachinePlayerView" style="stroke: #A80036; stroke-width: 1.0;"/><polygon fill="none" points="1393.16,144.955,1391.9,166.107,1379.7,148.789,1393.16,144.955" style="stroke: #A80036; stroke-width: 1.0;"/><!--MD5=[9623adb787708e117decab727ca41eb7]
link tictactoe.views.console.PlayView to tictactoe.views.console.BoardView--><path d="M735.064,412.928 C747.879,430.032 762.778,449.918 776.63,468.407 " fill="none" id="tictactoe.views.console.PlayView-&gt;tictactoe.views.console.BoardView" style="stroke: #A80036; stroke-width: 1.0; stroke-dasharray: 7.0,7.0;"/><polygon fill="#A80036" points="779.754,472.576,777.5578,462.9751,776.7556,468.5748,771.1559,467.7726,779.754,472.576" style="stroke: #A80036; stroke-width: 1.0;"/><!--MD5=[c652744ae97b12ae96764b7849bbed7e]
link tictactoe.views.console.PlayView to tictactoe.views.PlayerView--><path d="M741.131,322.665 C751.522,313.568 763.395,305.141 776,299.797 C890.414,251.288 1222.5,317.673 1334,262.797 C1353.54,253.181 1369.64,234.551 1380.67,218.719 " fill="none" id="tictactoe.views.console.PlayView-&gt;tictactoe.views.PlayerView" style="stroke: #A80036; stroke-width: 1.0; stroke-dasharray: 7.0,7.0;"/><polygon fill="#A80036" points="1383.65,214.338,1375.2889,219.5429,1380.8443,218.4766,1381.9106,224.0321,1383.65,214.338" style="stroke: #A80036; stroke-width: 1.0;"/><!--MD5=[cd51744c03376eaa835a66ab466da4fc]
link tictactoe.views.console.PlayView to tictactoe.views.ResultView--><path d="M741.604,322.5 C751.897,313.528 763.608,305.198 776,299.797 C951.03,223.512 1032.88,347.494 1204,262.797 C1223.65,253.07 1240.18,234.636 1251.65,218.922 " fill="none" id="tictactoe.views.console.PlayView-&gt;tictactoe.views.ResultView" style="stroke: #A80036; stroke-width: 1.0; stroke-dasharray: 7.0,7.0;"/><polygon fill="#A80036" points="1254.75,214.571,1246.2694,219.5789,1251.8483,218.6429,1252.7844,224.2217,1254.75,214.571" style="stroke: #A80036; stroke-width: 1.0;"/><!--MD5=[7ee08f762d1735de494f8972ac770531]
link tictactoe.views.console.PlayView to tictactoe.views.BoardView--><path d="M741.084,322.554 C751.478,313.461 763.362,305.064 776,299.797 C916.713,241.152 1323.81,329.275 1461,262.797 C1480.6,253.301 1496.7,234.668 1507.71,218.804 " fill="none" id="tictactoe.views.console.PlayView-&gt;tictactoe.views.BoardView" style="stroke: #A80036; stroke-width: 1.0; stroke-dasharray: 7.0,7.0;"/><polygon fill="#A80036" points="1510.69,214.413,1502.3338,219.6258,1507.8882,218.5543,1508.9598,224.1087,1510.69,214.413" style="stroke: #A80036; stroke-width: 1.0;"/><!--MD5=[a9b8c641a44b436e524ffa093e2e24f9]
reverse link utils.WithConsoleView to tictactoe.views.console.ResultView--><path d="M1742.79,227.139 C1724.5,240.89 1701.94,255.115 1679,262.797 C1518.03,316.702 1071.96,232.758 916,299.797 C897.609,307.703 881.19,322.736 868.884,336.562 " fill="none" id="utils.WithConsoleView&lt;-tictactoe.views.console.ResultView" style="stroke: #A80036; stroke-width: 1.0;"/><polygon fill="none" points="1738.57,221.55,1758.58,214.588,1747.28,232.511,1738.57,221.55" style="stroke: #A80036; stroke-width: 1.0;"/><!--MD5=[2af4d1cb11eb01ab6d44a76c2ef71c90]
link tictactoe.views.console.ResumeView to tictactoe.models.Game--><path d="M225.068,228.516 C194.693,261.834 150.876,309.895 123.71,339.694 " fill="none" id="tictactoe.views.console.ResumeView-&gt;tictactoe.models.Game" style="stroke: #A80036; stroke-width: 1.0; stroke-dasharray: 7.0,7.0;"/><polygon fill="#A80036" points="120.154,343.594,129.173,339.637,123.5222,339.8987,123.2605,334.2479,120.154,343.594" style="stroke: #A80036; stroke-width: 1.0;"/><!--MD5=[43f857ab0050bb78ce27120a0af9afa2]
link tictactoe.views.console.StartView to utils.PlayersDialog--><path d="M1044.55,364.912 C1213.66,358.448 1719.57,333.527 1866,262.797 C1886.91,252.696 1905.38,234.038 1918.37,218.314 " fill="none" id="tictactoe.views.console.StartView-&gt;utils.PlayersDialog" style="stroke: #A80036; stroke-width: 1.0; stroke-dasharray: 7.0,7.0;"/><polygon fill="#A80036" points="1921.56,214.387,1912.7862,218.8613,1918.4122,218.2718,1919.0018,223.8978,1921.56,214.387" style="stroke: #A80036; stroke-width: 1.0;"/><!--MD5=[e665259f0705ebc0d9068c66ae844f61]
reverse link tictactoe.views.PlayerView to tictactoe.views.console.UserPlayerView--><path d="M1386.39,146.734 C1375.33,111.903 1354.19,65.444 1316.5,43.797 C1250.69,6 703.853,15.345 633.5,43.797 C589.405,61.63 551.026,99.13 523.929,131.724 " fill="none" id="tictactoe.views.PlayerView&lt;-tictactoe.views.console.UserPlayerView" style="stroke: #A80036; stroke-width: 1.0;"/><polygon fill="none" points="1393.16,144.955,1391.9,166.107,1379.7,148.789,1393.16,144.955" style="stroke: #A80036; stroke-width: 1.0;"/><!--MD5=[d08a44d06940417b04e1f442f789385d]
link tictactoe.views.console.UserPlayerView to tictactoe.views.console.ErrorView--><path d="M447.988,249.249 C433.431,274.053 416.758,302.462 403.449,325.138 " fill="none" id="tictactoe.views.console.UserPlayerView-&gt;tictactoe.views.console.ErrorView" style="stroke: #A80036; stroke-width: 1.0; stroke-dasharray: 7.0,7.0;"/><polygon fill="#A80036" points="400.834,329.594,408.8389,323.8562,403.3645,325.2816,401.9391,319.8073,400.834,329.594" style="stroke: #A80036; stroke-width: 1.0;"/><!--MD5=[93525d2da9d792717dcb2150911bbe9e]
link tictactoe.views.console.UserPlayerView to tictactoe.views.console.CoordinateView--><path d="M500.822,249.249 C509.662,276.467 519.912,308.025 527.564,331.585 " fill="none" id="tictactoe.views.console.UserPlayerView-&gt;tictactoe.views.console.CoordinateView" style="stroke: #A80036; stroke-width: 1.0; stroke-dasharray: 7.0,7.0;"/><polygon fill="#A80036" points="529.156,336.487,530.1808,326.6916,527.6118,331.7314,522.5719,329.1624,529.156,336.487" style="stroke: #A80036; stroke-width: 1.0;"/><!--MD5=[051aa563f8f4ed16b801d4740a6dfe03]
@startuml

class  tictactoe.views.console.BoardView{
~ board: Board
~ BoardView(Board)
~ write(): void
- printRowBoard(int): void
- printSquareValueBoard(int, int): void
}
utils.WithConsoleView <|-down- tictactoe.views.console.BoardView

class  tictactoe.views.console.ConsoleView{
- startView: StartView
- playView: PlayView
- resumeView: ResumeView
+ ConsoleView(Game)
# start(): void
# play(): boolean
# isNewGame(): boolean
}
tictactoe.views.View <|-down- tictactoe.views.console.ConsoleView
tictactoe.views.console.ConsoleView *-down-> tictactoe.views.console.StartView
tictactoe.views.console.ConsoleView *-down-> tictactoe.views.console.PlayView
tictactoe.views.console.ConsoleView *-down-> tictactoe.views.console.ResultView

class  tictactoe.views.console.CoordinateView{
~ read(String): Coordinate
}
utils.WithConsoleView <|-down- tictactoe.views.console.CoordinateView

class  tictactoe.views.console.ErrorView{
~ ErrorView(Error)
~ writeln(): void
}
tictactoe.views.ErrorView <|-down- tictactoe.views.console.ErrorView

class  tictactoe.views.console.MachinePlayerView{
~ MachinePlayerView(Player)
~ readCoordinateToPut(): Coordinate
~ readCoordinatesToMove(): Coordinate[]
}
tictactoe.views.PlayerView <|-down- tictactoe.views.console.MachinePlayerView

class  tictactoe.views.console.PlayView{
~ game: Game
~ PlayView(Game)
~ interact(): boolean
}
tictactoe.views.console.PlayView ..> tictactoe.views.console.BoardView
tictactoe.views.console.PlayView ..> tictactoe.views.PlayerView
tictactoe.views.console.PlayView ..> tictactoe.views.ResultView
tictactoe.views.console.PlayView ..> tictactoe.views.BoardView

class tictactoe.views.console.ResultView{
~ writeln(int): void
}
utils.WithConsoleView <|-down- tictactoe.views.console.ResultView

class  tictactoe.views.console.ResumeView{
~ ResumeView()
~ interact(Game): boolean
}
tictactoe.views.console.ResumeView ..> tictactoe.models.Game

class tictactoe.views.console.StartView{
~ game: Game
~ StartView(Game)
~ interact(): void
}
tictactoe.views.console.StartView ..> utils.PlayersDialog

class  tictactoe.views.console.UserPlayerView{
~ {static} ENTER_COORDINATE_TO_PUT: String
~ {static} ENTER_COORDINATE_TO_REMOVE: String
~ UserPlayerView(Player)
~ readCoordinateToPut(): Coordinate
~ readCoordinatesToMove(): Coordinate[]
}
tictactoe.views.PlayerView <|-down- tictactoe.views.console.UserPlayerView
tictactoe.views.console.UserPlayerView ..> tictactoe.views.console.ErrorView
tictactoe.views.console.UserPlayerView ..> tictactoe.views.console.CoordinateView

@enduml

PlantUML version 1.2020.15(Sun Jun 28 13:39:45 CEST 2020)
(GPL source distribution)
Java Runtime: Java(TM) SE Runtime Environment
JVM: Java HotSpot(TM) 64-Bit Server VM
Default Encoding: windows-1252
Language: es
Country: ES
--></g></svg>