<?xml version="1.0" encoding="UTF-8" standalone="no"?><svg xmlns="http://www.w3.org/2000/svg" xmlns:xlink="http://www.w3.org/1999/xlink" contentScriptType="application/ecmascript" contentStyleType="text/css" height="748px" preserveAspectRatio="none" style="width:1807px;height:748px;" version="1.1" viewBox="0 0 1807 748" width="1807px" zoomAndPan="magnify"><defs><filter height="300%" id="f131mfk1gdg8w5" width="300%" x="-1" y="-1"><feGaussianBlur result="blurOut" stdDeviation="2.0"/><feColorMatrix in="blurOut" result="blurOut2" type="matrix" values="0 0 0 0 0 0 0 0 0 0 0 0 0 0 0 0 0 0 .4 0"/><feOffset dx="4.0" dy="4.0" in="blurOut2" result="blurOut3"/><feBlend in="SourceGraphic" in2="blurOut3" mode="normal"/></filter></defs><g><!--MD5=[64182ab34c08ac367bbf699869515711]
cluster tictactoe.views.console--><polygon fill="#FFFFFF" filter="url(#f131mfk1gdg8w5)" points="104.5339,130,276.5339,130,283.5339,153.6094,1029.5353,153.6094,1029.5353,612,104.5339,612,104.5339,130" style="stroke: #000000; stroke-width: 1.5;"/><line style="stroke: #000000; stroke-width: 1.5;" x1="104.5339" x2="283.5339" y1="153.6094" y2="153.6094"/><text fill="#000000" font-family="sans-serif" font-size="14" font-weight="bold" lengthAdjust="spacingAndGlyphs" textLength="166" x="108.5339" y="146.5332">tictactoe.views.console</text><!--MD5=[c52f45833d539af9e29a9d34b8b7302b]
cluster utils--><polygon fill="#FFFFFF" filter="url(#f131mfk1gdg8w5)" points="1053.5353,321,1089.5353,321,1096.5353,344.6094,1499.5353,344.6094,1499.5353,421,1053.5353,421,1053.5353,321" style="stroke: #000000; stroke-width: 1.5;"/><line style="stroke: #000000; stroke-width: 1.5;" x1="1053.5353" x2="1096.5353" y1="344.6094" y2="344.6094"/><text fill="#000000" font-family="sans-serif" font-size="14" font-weight="bold" lengthAdjust="spacingAndGlyphs" textLength="30" x="1057.5353" y="337.5332">utils</text><!--MD5=[ee7e9a007a7c4d40c0679a27f272732d]
cluster tictactoe.controllers--><polygon fill="#FFFFFF" filter="url(#f131mfk1gdg8w5)" points="777.5343,636,925.5343,636,932.5343,659.6094,1235.5353,659.6094,1235.5353,736,777.5343,736,777.5343,636" style="stroke: #000000; stroke-width: 1.5;"/><line style="stroke: #000000; stroke-width: 1.5;" x1="777.5343" x2="932.5343" y1="659.6094" y2="659.6094"/><text fill="#000000" font-family="sans-serif" font-size="14" font-weight="bold" lengthAdjust="spacingAndGlyphs" textLength="142" x="781.5343" y="652.5332">tictactoe.controllers</text><!--MD5=[f4e83a21a957c5b9ba9691e6361db36b]
cluster tictactoe.views--><polygon fill="#FFFFFF" filter="url(#f131mfk1gdg8w5)" points="54.5339,6,166.5339,6,173.5339,29.6094,392.5343,29.6094,392.5343,106,54.5339,106,54.5339,6" style="stroke: #000000; stroke-width: 1.5;"/><line style="stroke: #000000; stroke-width: 1.5;" x1="54.5339" x2="173.5339" y1="29.6094" y2="29.6094"/><text fill="#000000" font-family="sans-serif" font-size="14" font-weight="bold" lengthAdjust="spacingAndGlyphs" textLength="106" x="58.5339" y="22.5332">tictactoe.views</text><!--MD5=[270aad5bca7cd81b5a24665b2403b70b]
class tictactoe.views.console.BoardView--><rect fill="#FEFECE" filter="url(#f131mfk1gdg8w5)" height="117.1797" id="tictactoe.views.console.BoardView" style="stroke: #A80036; stroke-width: 1.5;" width="225" x="788.0343" y="479"/><ellipse cx="866.7843" cy="495" fill="#ADD1B2" rx="11" ry="11" style="stroke: #A80036; stroke-width: 1.0;"/><path d="M869.5499,490.875 Q869.7062,490.6563 869.8937,490.5469 Q870.0812,490.4375 870.2999,490.4375 Q870.6749,490.4375 870.9093,490.7031 Q871.1437,490.9531 871.1437,491.5625 L871.1437,493.0156 Q871.1437,493.625 870.9093,493.8906 Q870.6749,494.1563 870.2999,494.1563 Q869.9562,494.1563 869.7531,493.9531 Q869.5499,493.7656 869.4406,493.25 Q869.3937,492.8906 869.2062,492.7031 Q868.8781,492.3281 868.2687,492.1094 Q867.6593,491.8906 867.0343,491.8906 Q866.2687,491.8906 865.6281,492.2188 Q865.0031,492.5469 864.5031,493.2969 Q864.0187,494.0469 864.0187,495.0781 L864.0187,496.1719 Q864.0187,497.4063 864.9093,498.2344 Q865.7999,499.0469 867.3937,499.0469 Q868.3312,499.0469 868.9874,498.7969 Q869.3781,498.6406 869.7999,498.2031 Q870.0656,497.9375 870.2062,497.8594 Q870.3624,497.7813 870.5656,497.7813 Q870.8937,497.7813 871.1437,498.0469 Q871.4093,498.2969 871.4093,498.6406 Q871.4093,498.9844 871.0656,499.3906 Q870.5656,499.9688 869.7687,500.2969 Q868.6906,500.75 867.3937,500.75 Q865.8781,500.75 864.6749,500.125 Q863.6906,499.625 863.0031,498.5625 Q862.3156,497.4844 862.3156,496.2031 L862.3156,495.0469 Q862.3156,493.7188 862.9249,492.5781 Q863.5499,491.4219 864.6437,490.8125 Q865.7374,490.1875 866.9718,490.1875 Q867.7062,490.1875 868.3468,490.3594 Q869.0031,490.5156 869.5499,490.875 Z "/><text fill="#000000" font-family="sans-serif" font-size="12" lengthAdjust="spacingAndGlyphs" textLength="59" x="887.2843" y="499.9102">BoardView</text><line style="stroke: #A80036; stroke-width: 1.5;" x1="789.0343" x2="1012.0343" y1="511" y2="511"/><rect fill="none" height="6" style="stroke: #C82930; stroke-width: 1.0;" width="6" x="796.0343" y="519"/><text fill="#000000" font-family="sans-serif" font-size="11" lengthAdjust="spacingAndGlyphs" textLength="138" x="808.0343" y="526.4189">playController: PlayController</text><line style="stroke: #A80036; stroke-width: 1.5;" x1="789.0343" x2="1012.0343" y1="532.8359" y2="532.8359"/><polygon fill="#4177AF" points="799.0343,539.8359,795.0343,545.8359,803.0343,545.8359" style="stroke: #1963A0; stroke-width: 1.0;"/><text fill="#000000" font-family="sans-serif" font-size="11" lengthAdjust="spacingAndGlyphs" textLength="129" x="808.0343" y="548.2549">BoardView(PlayController)</text><polygon fill="#4177AF" points="799.0343,553.6719,795.0343,559.6719,803.0343,559.6719" style="stroke: #1963A0; stroke-width: 1.0;"/><text fill="#000000" font-family="sans-serif" font-size="11" lengthAdjust="spacingAndGlyphs" textLength="59" x="808.0343" y="562.0908">write(): void</text><rect fill="#F24D5C" height="6" style="stroke: #C82930; stroke-width: 1.0;" width="6" x="796.0343" y="568.5078"/><text fill="#000000" font-family="sans-serif" font-size="11" lengthAdjust="spacingAndGlyphs" textLength="118" x="808.0343" y="575.9268">printRowBoard(int): void</text><rect fill="#F24D5C" height="6" style="stroke: #C82930; stroke-width: 1.0;" width="6" x="796.0343" y="582.3438"/><text fill="#000000" font-family="sans-serif" font-size="11" lengthAdjust="spacingAndGlyphs" textLength="199" x="808.0343" y="589.7627">printSquareValueBoard(Coordinate): void</text><!--MD5=[bde0c8ed193d8d2dbac1dee471354ab0]
class tictactoe.views.console.ConsoleView--><rect fill="#FEFECE" filter="url(#f131mfk1gdg8w5)" height="117.1797" id="tictactoe.views.console.ConsoleView" style="stroke: #A80036; stroke-width: 1.5;" width="159" x="641.0343" y="166"/><ellipse cx="680.3343" cy="182" fill="#ADD1B2" rx="11" ry="11" style="stroke: #A80036; stroke-width: 1.0;"/><path d="M683.0999,177.875 Q683.2562,177.6563 683.4437,177.5469 Q683.6312,177.4375 683.8499,177.4375 Q684.2249,177.4375 684.4593,177.7031 Q684.6937,177.9531 684.6937,178.5625 L684.6937,180.0156 Q684.6937,180.625 684.4593,180.8906 Q684.2249,181.1563 683.8499,181.1563 Q683.5062,181.1563 683.3031,180.9531 Q683.0999,180.7656 682.9906,180.25 Q682.9437,179.8906 682.7562,179.7031 Q682.4281,179.3281 681.8187,179.1094 Q681.2093,178.8906 680.5843,178.8906 Q679.8187,178.8906 679.1781,179.2188 Q678.5531,179.5469 678.0531,180.2969 Q677.5687,181.0469 677.5687,182.0781 L677.5687,183.1719 Q677.5687,184.4063 678.4593,185.2344 Q679.3499,186.0469 680.9437,186.0469 Q681.8812,186.0469 682.5374,185.7969 Q682.9281,185.6406 683.3499,185.2031 Q683.6156,184.9375 683.7562,184.8594 Q683.9124,184.7813 684.1156,184.7813 Q684.4437,184.7813 684.6937,185.0469 Q684.9593,185.2969 684.9593,185.6406 Q684.9593,185.9844 684.6156,186.3906 Q684.1156,186.9688 683.3187,187.2969 Q682.2406,187.75 680.9437,187.75 Q679.4281,187.75 678.2249,187.125 Q677.2406,186.625 676.5531,185.5625 Q675.8656,184.4844 675.8656,183.2031 L675.8656,182.0469 Q675.8656,180.7188 676.4749,179.5781 Q677.0999,178.4219 678.1937,177.8125 Q679.2874,177.1875 680.5218,177.1875 Q681.2562,177.1875 681.8968,177.3594 Q682.5531,177.5156 683.0999,177.875 Z "/><text fill="#000000" font-family="sans-serif" font-size="12" lengthAdjust="spacingAndGlyphs" textLength="73" x="699.7343" y="186.9102">ConsoleView</text><line style="stroke: #A80036; stroke-width: 1.5;" x1="642.0343" x2="799.0343" y1="198" y2="198"/><rect fill="none" height="6" style="stroke: #C82930; stroke-width: 1.0;" width="6" x="649.0343" y="206"/><text fill="#000000" font-family="sans-serif" font-size="11" lengthAdjust="spacingAndGlyphs" textLength="103" x="661.0343" y="213.4189">startView: StartView</text><rect fill="none" height="6" style="stroke: #C82930; stroke-width: 1.0;" width="6" x="649.0343" y="219.8359"/><text fill="#000000" font-family="sans-serif" font-size="11" lengthAdjust="spacingAndGlyphs" textLength="98" x="661.0343" y="227.2549">playView: PlayView</text><rect fill="none" height="6" style="stroke: #C82930; stroke-width: 1.0;" width="6" x="649.0343" y="233.6719"/><text fill="#000000" font-family="sans-serif" font-size="11" lengthAdjust="spacingAndGlyphs" textLength="133" x="661.0343" y="241.0908">resumeView: ResumeView</text><line style="stroke: #A80036; stroke-width: 1.5;" x1="642.0343" x2="799.0343" y1="247.5078" y2="247.5078"/><ellipse cx="652.0343" cy="258.5078" fill="#84BE84" rx="3" ry="3" style="stroke: #038048; stroke-width: 1.0;"/><text fill="#000000" font-family="sans-serif" font-size="11" lengthAdjust="spacingAndGlyphs" textLength="73" x="661.0343" y="262.9268">ConsoleView()</text><ellipse cx="652.0343" cy="272.3438" fill="#84BE84" rx="3" ry="3" style="stroke: #038048; stroke-width: 1.0;"/><text fill="#000000" font-family="sans-serif" font-size="11" lengthAdjust="spacingAndGlyphs" textLength="116" x="661.0343" y="276.7627">interact(Controller): void</text><!--MD5=[54aa299435631381f3c0c028f26a058f]
class tictactoe.views.console.StartView--><rect fill="#FEFECE" filter="url(#f131mfk1gdg8w5)" height="61.8359" id="tictactoe.views.console.StartView" style="stroke: #A80036; stroke-width: 1.5;" width="165" x="371.0343" y="350"/><ellipse cx="423.7843" cy="366" fill="#ADD1B2" rx="11" ry="11" style="stroke: #A80036; stroke-width: 1.0;"/><path d="M426.5499,361.875 Q426.7062,361.6563 426.8937,361.5469 Q427.0812,361.4375 427.2999,361.4375 Q427.6749,361.4375 427.9093,361.7031 Q428.1437,361.9531 428.1437,362.5625 L428.1437,364.0156 Q428.1437,364.625 427.9093,364.8906 Q427.6749,365.1563 427.2999,365.1563 Q426.9562,365.1563 426.7531,364.9531 Q426.5499,364.7656 426.4406,364.25 Q426.3937,363.8906 426.2062,363.7031 Q425.8781,363.3281 425.2687,363.1094 Q424.6593,362.8906 424.0343,362.8906 Q423.2687,362.8906 422.6281,363.2188 Q422.0031,363.5469 421.5031,364.2969 Q421.0187,365.0469 421.0187,366.0781 L421.0187,367.1719 Q421.0187,368.4063 421.9093,369.2344 Q422.7999,370.0469 424.3937,370.0469 Q425.3312,370.0469 425.9874,369.7969 Q426.3781,369.6406 426.7999,369.2031 Q427.0656,368.9375 427.2062,368.8594 Q427.3624,368.7813 427.5656,368.7813 Q427.8937,368.7813 428.1437,369.0469 Q428.4093,369.2969 428.4093,369.6406 Q428.4093,369.9844 428.0656,370.3906 Q427.5656,370.9688 426.7687,371.2969 Q425.6906,371.75 424.3937,371.75 Q422.8781,371.75 421.6749,371.125 Q420.6906,370.625 420.0031,369.5625 Q419.3156,368.4844 419.3156,367.2031 L419.3156,366.0469 Q419.3156,364.7188 419.9249,363.5781 Q420.5499,362.4219 421.6437,361.8125 Q422.7374,361.1875 423.9718,361.1875 Q424.7062,361.1875 425.3468,361.3594 Q426.0031,361.5156 426.5499,361.875 Z "/><text fill="#000000" font-family="sans-serif" font-size="12" lengthAdjust="spacingAndGlyphs" textLength="51" x="444.2843" y="370.9102">StartView</text><line style="stroke: #A80036; stroke-width: 1.5;" x1="372.0343" x2="535.0343" y1="382" y2="382"/><line style="stroke: #A80036; stroke-width: 1.5;" x1="372.0343" x2="535.0343" y1="390" y2="390"/><polygon fill="#4177AF" points="382.0343,397,378.0343,403,386.0343,403" style="stroke: #1963A0; stroke-width: 1.0;"/><text fill="#000000" font-family="sans-serif" font-size="11" lengthAdjust="spacingAndGlyphs" textLength="139" x="391.0343" y="405.4189">interact(StartController): void</text><!--MD5=[0158df0baddf48f83142f472e341eacc]
class tictactoe.views.console.PlayView--><rect fill="#FEFECE" filter="url(#f131mfk1gdg8w5)" height="61.8359" id="tictactoe.views.console.PlayView" style="stroke: #A80036; stroke-width: 1.5;" width="162" x="787.5343" y="350"/><ellipse cx="839.7843" cy="366" fill="#ADD1B2" rx="11" ry="11" style="stroke: #A80036; stroke-width: 1.0;"/><path d="M842.5499,361.875 Q842.7062,361.6563 842.8937,361.5469 Q843.0812,361.4375 843.2999,361.4375 Q843.6749,361.4375 843.9093,361.7031 Q844.1437,361.9531 844.1437,362.5625 L844.1437,364.0156 Q844.1437,364.625 843.9093,364.8906 Q843.6749,365.1563 843.2999,365.1563 Q842.9562,365.1563 842.7531,364.9531 Q842.5499,364.7656 842.4406,364.25 Q842.3937,363.8906 842.2062,363.7031 Q841.8781,363.3281 841.2687,363.1094 Q840.6593,362.8906 840.0343,362.8906 Q839.2687,362.8906 838.6281,363.2188 Q838.0031,363.5469 837.5031,364.2969 Q837.0187,365.0469 837.0187,366.0781 L837.0187,367.1719 Q837.0187,368.4063 837.9093,369.2344 Q838.7999,370.0469 840.3937,370.0469 Q841.3312,370.0469 841.9874,369.7969 Q842.3781,369.6406 842.7999,369.2031 Q843.0656,368.9375 843.2062,368.8594 Q843.3624,368.7813 843.5656,368.7813 Q843.8937,368.7813 844.1437,369.0469 Q844.4093,369.2969 844.4093,369.6406 Q844.4093,369.9844 844.0656,370.3906 Q843.5656,370.9688 842.7687,371.2969 Q841.6906,371.75 840.3937,371.75 Q838.8781,371.75 837.6749,371.125 Q836.6906,370.625 836.0031,369.5625 Q835.3156,368.4844 835.3156,367.2031 L835.3156,366.0469 Q835.3156,364.7188 835.9249,363.5781 Q836.5499,362.4219 837.6437,361.8125 Q838.7374,361.1875 839.9718,361.1875 Q840.7062,361.1875 841.3468,361.3594 Q842.0031,361.5156 842.5499,361.875 Z "/><text fill="#000000" font-family="sans-serif" font-size="12" lengthAdjust="spacingAndGlyphs" textLength="49" x="860.2843" y="370.9102">PlayView</text><line style="stroke: #A80036; stroke-width: 1.5;" x1="788.5343" x2="948.5343" y1="382" y2="382"/><line style="stroke: #A80036; stroke-width: 1.5;" x1="788.5343" x2="948.5343" y1="390" y2="390"/><polygon fill="#4177AF" points="798.5343,397,794.5343,403,802.5343,403" style="stroke: #1963A0; stroke-width: 1.0;"/><text fill="#000000" font-family="sans-serif" font-size="11" lengthAdjust="spacingAndGlyphs" textLength="136" x="807.5343" y="405.4189">interact(PlayController): void</text><!--MD5=[863eeac66a77264bd74e28cbddefcd23]
class tictactoe.views.console.ResumeView--><rect fill="#FEFECE" filter="url(#f131mfk1gdg8w5)" height="61.8359" id="tictactoe.views.console.ResumeView" style="stroke: #A80036; stroke-width: 1.5;" width="181" x="571.0343" y="350"/><ellipse cx="620.2843" cy="366" fill="#ADD1B2" rx="11" ry="11" style="stroke: #A80036; stroke-width: 1.0;"/><path d="M623.0499,361.875 Q623.2062,361.6563 623.3937,361.5469 Q623.5812,361.4375 623.7999,361.4375 Q624.1749,361.4375 624.4093,361.7031 Q624.6437,361.9531 624.6437,362.5625 L624.6437,364.0156 Q624.6437,364.625 624.4093,364.8906 Q624.1749,365.1563 623.7999,365.1563 Q623.4562,365.1563 623.2531,364.9531 Q623.0499,364.7656 622.9406,364.25 Q622.8937,363.8906 622.7062,363.7031 Q622.3781,363.3281 621.7687,363.1094 Q621.1593,362.8906 620.5343,362.8906 Q619.7687,362.8906 619.1281,363.2188 Q618.5031,363.5469 618.0031,364.2969 Q617.5187,365.0469 617.5187,366.0781 L617.5187,367.1719 Q617.5187,368.4063 618.4093,369.2344 Q619.2999,370.0469 620.8937,370.0469 Q621.8312,370.0469 622.4874,369.7969 Q622.8781,369.6406 623.2999,369.2031 Q623.5656,368.9375 623.7062,368.8594 Q623.8624,368.7813 624.0656,368.7813 Q624.3937,368.7813 624.6437,369.0469 Q624.9093,369.2969 624.9093,369.6406 Q624.9093,369.9844 624.5656,370.3906 Q624.0656,370.9688 623.2687,371.2969 Q622.1906,371.75 620.8937,371.75 Q619.3781,371.75 618.1749,371.125 Q617.1906,370.625 616.5031,369.5625 Q615.8156,368.4844 615.8156,367.2031 L615.8156,366.0469 Q615.8156,364.7188 616.4249,363.5781 Q617.0499,362.4219 618.1437,361.8125 Q619.2374,361.1875 620.4718,361.1875 Q621.2062,361.1875 621.8468,361.3594 Q622.5031,361.5156 623.0499,361.875 Z "/><text fill="#000000" font-family="sans-serif" font-size="12" lengthAdjust="spacingAndGlyphs" textLength="74" x="640.7843" y="370.9102">ResumeView</text><line style="stroke: #A80036; stroke-width: 1.5;" x1="572.0343" x2="751.0343" y1="382" y2="382"/><line style="stroke: #A80036; stroke-width: 1.5;" x1="572.0343" x2="751.0343" y1="390" y2="390"/><polygon fill="#4177AF" points="582.0343,397,578.0343,403,586.0343,403" style="stroke: #1963A0; stroke-width: 1.0;"/><text fill="#000000" font-family="sans-serif" font-size="11" lengthAdjust="spacingAndGlyphs" textLength="155" x="591.0343" y="405.4189">interact(ResumeController): void</text><!--MD5=[8830b246a550294711e6eb5af1606829]
class tictactoe.views.console.CoordinateView--><rect fill="#FEFECE" filter="url(#f131mfk1gdg8w5)" height="89.5078" id="tictactoe.views.console.CoordinateView" style="stroke: #A80036; stroke-width: 1.5;" width="178" x="835.5343" y="179.5"/><ellipse cx="877.0843" cy="195.5" fill="#ADD1B2" rx="11" ry="11" style="stroke: #A80036; stroke-width: 1.0;"/><path d="M879.8499,191.375 Q880.0062,191.1563 880.1937,191.0469 Q880.3812,190.9375 880.5999,190.9375 Q880.9749,190.9375 881.2093,191.2031 Q881.4437,191.4531 881.4437,192.0625 L881.4437,193.5156 Q881.4437,194.125 881.2093,194.3906 Q880.9749,194.6563 880.5999,194.6563 Q880.2562,194.6563 880.0531,194.4531 Q879.8499,194.2656 879.7406,193.75 Q879.6937,193.3906 879.5062,193.2031 Q879.1781,192.8281 878.5687,192.6094 Q877.9593,192.3906 877.3343,192.3906 Q876.5687,192.3906 875.9281,192.7188 Q875.3031,193.0469 874.8031,193.7969 Q874.3187,194.5469 874.3187,195.5781 L874.3187,196.6719 Q874.3187,197.9063 875.2093,198.7344 Q876.0999,199.5469 877.6937,199.5469 Q878.6312,199.5469 879.2874,199.2969 Q879.6781,199.1406 880.0999,198.7031 Q880.3656,198.4375 880.5062,198.3594 Q880.6624,198.2813 880.8656,198.2813 Q881.1937,198.2813 881.4437,198.5469 Q881.7093,198.7969 881.7093,199.1406 Q881.7093,199.4844 881.3656,199.8906 Q880.8656,200.4688 880.0687,200.7969 Q878.9906,201.25 877.6937,201.25 Q876.1781,201.25 874.9749,200.625 Q873.9906,200.125 873.3031,199.0625 Q872.6156,197.9844 872.6156,196.7031 L872.6156,195.5469 Q872.6156,194.2188 873.2249,193.0781 Q873.8499,191.9219 874.9437,191.3125 Q876.0374,190.6875 877.2718,190.6875 Q878.0062,190.6875 878.6468,190.8594 Q879.3031,191.0156 879.8499,191.375 Z "/><text fill="#000000" font-family="sans-serif" font-size="12" lengthAdjust="spacingAndGlyphs" textLength="87" x="896.9843" y="200.4102">CoordinateView</text><line style="stroke: #A80036; stroke-width: 1.5;" x1="836.5343" x2="1012.5343" y1="211.5" y2="211.5"/><polygon fill="none" points="846.5343,218.5,842.5343,224.5,850.5343,224.5" style="stroke: #1963A0; stroke-width: 1.0;"/><text fill="#000000" font-family="sans-serif" font-size="11" lengthAdjust="spacingAndGlyphs" textLength="138" x="855.5343" y="226.9189">playController: PlayController</text><line style="stroke: #A80036; stroke-width: 1.5;" x1="836.5343" x2="1012.5343" y1="233.3359" y2="233.3359"/><polygon fill="#4177AF" points="846.5343,240.3359,842.5343,246.3359,850.5343,246.3359" style="stroke: #1963A0; stroke-width: 1.0;"/><text fill="#000000" font-family="sans-serif" font-size="11" lengthAdjust="spacingAndGlyphs" textLength="152" x="855.5343" y="248.7549">CoordinateView(PlayController)</text><polygon fill="#4177AF" points="846.5343,254.1719,842.5343,260.1719,850.5343,260.1719" style="stroke: #1963A0; stroke-width: 1.0;"/><text fill="#000000" font-family="sans-serif" font-size="11" lengthAdjust="spacingAndGlyphs" textLength="116" x="855.5343" y="262.5908">read(String): Coordinate</text><!--MD5=[1ca4e66fd27a79cb5d7093d90b3139a4]
class tictactoe.views.console.ErrorView--><rect fill="#FEFECE" filter="url(#f131mfk1gdg8w5)" height="75.6719" id="tictactoe.views.console.ErrorView" style="stroke: #A80036; stroke-width: 1.5;" width="108" x="152.5343" y="343"/><ellipse cx="177.8843" cy="359" fill="#ADD1B2" rx="11" ry="11" style="stroke: #A80036; stroke-width: 1.0;"/><path d="M180.6499,354.875 Q180.8062,354.6563 180.9937,354.5469 Q181.1812,354.4375 181.3999,354.4375 Q181.7749,354.4375 182.0093,354.7031 Q182.2437,354.9531 182.2437,355.5625 L182.2437,357.0156 Q182.2437,357.625 182.0093,357.8906 Q181.7749,358.1563 181.3999,358.1563 Q181.0562,358.1563 180.8531,357.9531 Q180.6499,357.7656 180.5406,357.25 Q180.4937,356.8906 180.3062,356.7031 Q179.9781,356.3281 179.3687,356.1094 Q178.7593,355.8906 178.1343,355.8906 Q177.3687,355.8906 176.7281,356.2188 Q176.1031,356.5469 175.6031,357.2969 Q175.1187,358.0469 175.1187,359.0781 L175.1187,360.1719 Q175.1187,361.4063 176.0093,362.2344 Q176.8999,363.0469 178.4937,363.0469 Q179.4312,363.0469 180.0874,362.7969 Q180.4781,362.6406 180.8999,362.2031 Q181.1656,361.9375 181.3062,361.8594 Q181.4624,361.7813 181.6656,361.7813 Q181.9937,361.7813 182.2437,362.0469 Q182.5093,362.2969 182.5093,362.6406 Q182.5093,362.9844 182.1656,363.3906 Q181.6656,363.9688 180.8687,364.2969 Q179.7906,364.75 178.4937,364.75 Q176.9781,364.75 175.7749,364.125 Q174.7906,363.625 174.1031,362.5625 Q173.4156,361.4844 173.4156,360.2031 L173.4156,359.0469 Q173.4156,357.7188 174.0249,356.5781 Q174.6499,355.4219 175.7437,354.8125 Q176.8374,354.1875 178.0718,354.1875 Q178.8062,354.1875 179.4468,354.3594 Q180.1031,354.5156 180.6499,354.875 Z "/><text fill="#000000" font-family="sans-serif" font-size="12" lengthAdjust="spacingAndGlyphs" textLength="53" x="194.1843" y="363.9102">ErrorView</text><line style="stroke: #A80036; stroke-width: 1.5;" x1="153.5343" x2="259.5343" y1="375" y2="375"/><line style="stroke: #A80036; stroke-width: 1.5;" x1="153.5343" x2="259.5343" y1="383" y2="383"/><polygon fill="#4177AF" points="163.5343,390,159.5343,396,167.5343,396" style="stroke: #1963A0; stroke-width: 1.0;"/><text fill="#000000" font-family="sans-serif" font-size="11" lengthAdjust="spacingAndGlyphs" textLength="82" x="172.5343" y="398.4189">ErrorView(Error)</text><polygon fill="#4177AF" points="163.5343,403.8359,159.5343,409.8359,167.5343,409.8359" style="stroke: #1963A0; stroke-width: 1.0;"/><text fill="#000000" font-family="sans-serif" font-size="11" lengthAdjust="spacingAndGlyphs" textLength="67" x="172.5343" y="412.2549">writeln(): void</text><!--MD5=[4afe6aabb27d783e4a9a9dcc50c35fae]
class tictactoe.views.console.MachinePlayerView--><rect fill="#FEFECE" filter="url(#f131mfk1gdg8w5)" height="89.5078" id="tictactoe.views.console.MachinePlayerView" style="stroke: #A80036; stroke-width: 1.5;" width="216" x="389.5343" y="179.5"/><ellipse cx="440.2843" cy="195.5" fill="#ADD1B2" rx="11" ry="11" style="stroke: #A80036; stroke-width: 1.0;"/><path d="M443.0499,191.375 Q443.2062,191.1563 443.3937,191.0469 Q443.5812,190.9375 443.7999,190.9375 Q444.1749,190.9375 444.4093,191.2031 Q444.6437,191.4531 444.6437,192.0625 L444.6437,193.5156 Q444.6437,194.125 444.4093,194.3906 Q444.1749,194.6563 443.7999,194.6563 Q443.4562,194.6563 443.2531,194.4531 Q443.0499,194.2656 442.9406,193.75 Q442.8937,193.3906 442.7062,193.2031 Q442.3781,192.8281 441.7687,192.6094 Q441.1593,192.3906 440.5343,192.3906 Q439.7687,192.3906 439.1281,192.7188 Q438.5031,193.0469 438.0031,193.7969 Q437.5187,194.5469 437.5187,195.5781 L437.5187,196.6719 Q437.5187,197.9063 438.4093,198.7344 Q439.2999,199.5469 440.8937,199.5469 Q441.8312,199.5469 442.4874,199.2969 Q442.8781,199.1406 443.2999,198.7031 Q443.5656,198.4375 443.7062,198.3594 Q443.8624,198.2813 444.0656,198.2813 Q444.3937,198.2813 444.6437,198.5469 Q444.9093,198.7969 444.9093,199.1406 Q444.9093,199.4844 444.5656,199.8906 Q444.0656,200.4688 443.2687,200.7969 Q442.1906,201.25 440.8937,201.25 Q439.3781,201.25 438.1749,200.625 Q437.1906,200.125 436.5031,199.0625 Q435.8156,197.9844 435.8156,196.7031 L435.8156,195.5469 Q435.8156,194.2188 436.4249,193.0781 Q437.0499,191.9219 438.1437,191.3125 Q439.2374,190.6875 440.4718,190.6875 Q441.2062,190.6875 441.8468,190.8594 Q442.5031,191.0156 443.0499,191.375 Z "/><text fill="#000000" font-family="sans-serif" font-size="12" lengthAdjust="spacingAndGlyphs" textLength="106" x="460.7843" y="200.4102">MachinePlayerView</text><line style="stroke: #A80036; stroke-width: 1.5;" x1="390.5343" x2="604.5343" y1="211.5" y2="211.5"/><line style="stroke: #A80036; stroke-width: 1.5;" x1="390.5343" x2="604.5343" y1="219.5" y2="219.5"/><polygon fill="#4177AF" points="400.5343,226.5,396.5343,232.5,404.5343,232.5" style="stroke: #1963A0; stroke-width: 1.0;"/><text fill="#000000" font-family="sans-serif" font-size="11" lengthAdjust="spacingAndGlyphs" textLength="170" x="409.5343" y="234.9189">MachinePlayerView(PlayController)</text><ellipse cx="400.5343" cy="244.3359" fill="#84BE84" rx="3" ry="3" style="stroke: #038048; stroke-width: 1.0;"/><text fill="#000000" font-family="sans-serif" font-size="11" lengthAdjust="spacingAndGlyphs" textLength="167" x="409.5343" y="248.7549">readCoordinateToPut(): Coordinate</text><ellipse cx="400.5343" cy="258.1719" fill="#84BE84" rx="3" ry="3" style="stroke: #038048; stroke-width: 1.0;"/><text fill="#000000" font-family="sans-serif" font-size="11" lengthAdjust="spacingAndGlyphs" textLength="190" x="409.5343" y="262.5908">readCoordinatesToMove(): Coordinate[]</text><!--MD5=[4ad8229f56e3458317cb6855b3145039]
class tictactoe.views.console.ResultView--><rect fill="#FEFECE" filter="url(#f131mfk1gdg8w5)" height="61.8359" id="tictactoe.views.console.ResultView" style="stroke: #A80036; stroke-width: 1.5;" width="104" x="648.5343" y="506.5"/><ellipse cx="668.0343" cy="522.5" fill="#ADD1B2" rx="11" ry="11" style="stroke: #A80036; stroke-width: 1.0;"/><path d="M670.7999,518.375 Q670.9562,518.1563 671.1437,518.0469 Q671.3312,517.9375 671.5499,517.9375 Q671.9249,517.9375 672.1593,518.2031 Q672.3937,518.4531 672.3937,519.0625 L672.3937,520.5156 Q672.3937,521.125 672.1593,521.3906 Q671.9249,521.6563 671.5499,521.6563 Q671.2062,521.6563 671.0031,521.4531 Q670.7999,521.2656 670.6906,520.75 Q670.6437,520.3906 670.4562,520.2031 Q670.1281,519.8281 669.5187,519.6094 Q668.9093,519.3906 668.2843,519.3906 Q667.5187,519.3906 666.8781,519.7188 Q666.2531,520.0469 665.7531,520.7969 Q665.2687,521.5469 665.2687,522.5781 L665.2687,523.6719 Q665.2687,524.9063 666.1593,525.7344 Q667.0499,526.5469 668.6437,526.5469 Q669.5812,526.5469 670.2374,526.2969 Q670.6281,526.1406 671.0499,525.7031 Q671.3156,525.4375 671.4562,525.3594 Q671.6124,525.2813 671.8156,525.2813 Q672.1437,525.2813 672.3937,525.5469 Q672.6593,525.7969 672.6593,526.1406 Q672.6593,526.4844 672.3156,526.8906 Q671.8156,527.4688 671.0187,527.7969 Q669.9406,528.25 668.6437,528.25 Q667.1281,528.25 665.9249,527.625 Q664.9406,527.125 664.2531,526.0625 Q663.5656,524.9844 663.5656,523.7031 L663.5656,522.5469 Q663.5656,521.2188 664.1749,520.0781 Q664.7999,518.9219 665.8937,518.3125 Q666.9874,517.6875 668.2218,517.6875 Q668.9562,517.6875 669.5968,517.8594 Q670.2531,518.0156 670.7999,518.375 Z "/><text fill="#000000" font-family="sans-serif" font-size="12" lengthAdjust="spacingAndGlyphs" textLength="62" x="683.0343" y="527.4102">ResultView</text><line style="stroke: #A80036; stroke-width: 1.5;" x1="649.5343" x2="751.5343" y1="538.5" y2="538.5"/><line style="stroke: #A80036; stroke-width: 1.5;" x1="649.5343" x2="751.5343" y1="546.5" y2="546.5"/><polygon fill="#4177AF" points="659.5343,553.5,655.5343,559.5,663.5343,559.5" style="stroke: #1963A0; stroke-width: 1.0;"/><text fill="#000000" font-family="sans-serif" font-size="11" lengthAdjust="spacingAndGlyphs" textLength="78" x="668.5343" y="561.9189">writeln(int): void</text><!--MD5=[d4f4ae14a368e3fcfff527b6459d05f0]
class tictactoe.views.console.UserPlayerView--><rect fill="#FEFECE" filter="url(#f131mfk1gdg8w5)" height="117.1797" id="tictactoe.views.console.UserPlayerView" style="stroke: #A80036; stroke-width: 1.5;" width="233" x="121.0343" y="166"/><ellipse cx="189.7843" cy="182" fill="#ADD1B2" rx="11" ry="11" style="stroke: #A80036; stroke-width: 1.0;"/><path d="M192.5499,177.875 Q192.7062,177.6563 192.8937,177.5469 Q193.0812,177.4375 193.2999,177.4375 Q193.6749,177.4375 193.9093,177.7031 Q194.1437,177.9531 194.1437,178.5625 L194.1437,180.0156 Q194.1437,180.625 193.9093,180.8906 Q193.6749,181.1563 193.2999,181.1563 Q192.9562,181.1563 192.7531,180.9531 Q192.5499,180.7656 192.4406,180.25 Q192.3937,179.8906 192.2062,179.7031 Q191.8781,179.3281 191.2687,179.1094 Q190.6593,178.8906 190.0343,178.8906 Q189.2687,178.8906 188.6281,179.2188 Q188.0031,179.5469 187.5031,180.2969 Q187.0187,181.0469 187.0187,182.0781 L187.0187,183.1719 Q187.0187,184.4063 187.9093,185.2344 Q188.7999,186.0469 190.3937,186.0469 Q191.3312,186.0469 191.9874,185.7969 Q192.3781,185.6406 192.7999,185.2031 Q193.0656,184.9375 193.2062,184.8594 Q193.3624,184.7813 193.5656,184.7813 Q193.8937,184.7813 194.1437,185.0469 Q194.4093,185.2969 194.4093,185.6406 Q194.4093,185.9844 194.0656,186.3906 Q193.5656,186.9688 192.7687,187.2969 Q191.6906,187.75 190.3937,187.75 Q188.8781,187.75 187.6749,187.125 Q186.6906,186.625 186.0031,185.5625 Q185.3156,184.4844 185.3156,183.2031 L185.3156,182.0469 Q185.3156,180.7188 185.9249,179.5781 Q186.5499,178.4219 187.6437,177.8125 Q188.7374,177.1875 189.9718,177.1875 Q190.7062,177.1875 191.3468,177.3594 Q192.0031,177.5156 192.5499,177.875 Z "/><text fill="#000000" font-family="sans-serif" font-size="12" lengthAdjust="spacingAndGlyphs" textLength="87" x="210.2843" y="186.9102">UserPlayerView</text><line style="stroke: #A80036; stroke-width: 1.5;" x1="122.0343" x2="353.0343" y1="198" y2="198"/><polygon fill="none" points="132.0343,205,128.0343,211,136.0343,211" style="stroke: #1963A0; stroke-width: 1.0;"/><text fill="#000000" font-family="sans-serif" font-size="11" lengthAdjust="spacingAndGlyphs" text-decoration="underline" textLength="183" x="141.0343" y="213.4189">ENTER_COORDINATE_TO_PUT: String</text><polygon fill="none" points="132.0343,218.8359,128.0343,224.8359,136.0343,224.8359" style="stroke: #1963A0; stroke-width: 1.0;"/><text fill="#000000" font-family="sans-serif" font-size="11" lengthAdjust="spacingAndGlyphs" text-decoration="underline" textLength="207" x="141.0343" y="227.2549">ENTER_COORDINATE_TO_REMOVE: String</text><line style="stroke: #A80036; stroke-width: 1.5;" x1="122.0343" x2="353.0343" y1="233.6719" y2="233.6719"/><polygon fill="#4177AF" points="132.0343,240.6719,128.0343,246.6719,136.0343,246.6719" style="stroke: #1963A0; stroke-width: 1.0;"/><text fill="#000000" font-family="sans-serif" font-size="11" lengthAdjust="spacingAndGlyphs" textLength="153" x="141.0343" y="249.0908">UserPlayerView(PlayController)</text><ellipse cx="132.0343" cy="258.5078" fill="#84BE84" rx="3" ry="3" style="stroke: #038048; stroke-width: 1.0;"/><text fill="#000000" font-family="sans-serif" font-size="11" lengthAdjust="spacingAndGlyphs" textLength="132" x="141.0343" y="262.9268">readCoordinateToPut(): int[]</text><ellipse cx="132.0343" cy="272.3438" fill="#84BE84" rx="3" ry="3" style="stroke: #038048; stroke-width: 1.0;"/><text fill="#000000" font-family="sans-serif" font-size="11" lengthAdjust="spacingAndGlyphs" textLength="155" x="141.0343" y="276.7627">readCoordinatesToMove(): int[][]</text><!--MD5=[2dcb8e10b6e8b78f41f52f48677e1ea3]
class utils.WithConsoleView--><rect fill="#FEFECE" filter="url(#f131mfk1gdg8w5)" height="48" id="utils.WithConsoleView" style="stroke: #A80036; stroke-width: 1.5;" width="129" x="1354.0353" y="357"/><ellipse cx="1369.0353" cy="373" fill="#ADD1B2" rx="11" ry="11" style="stroke: #A80036; stroke-width: 1.0;"/><path d="M1371.8009,368.875 Q1371.9572,368.6563 1372.1447,368.5469 Q1372.3322,368.4375 1372.5509,368.4375 Q1372.9259,368.4375 1373.1603,368.7031 Q1373.3947,368.9531 1373.3947,369.5625 L1373.3947,371.0156 Q1373.3947,371.625 1373.1603,371.8906 Q1372.9259,372.1563 1372.5509,372.1563 Q1372.2072,372.1563 1372.0041,371.9531 Q1371.8009,371.7656 1371.6916,371.25 Q1371.6447,370.8906 1371.4572,370.7031 Q1371.1291,370.3281 1370.5197,370.1094 Q1369.9103,369.8906 1369.2853,369.8906 Q1368.5197,369.8906 1367.8791,370.2188 Q1367.2541,370.5469 1366.7541,371.2969 Q1366.2697,372.0469 1366.2697,373.0781 L1366.2697,374.1719 Q1366.2697,375.4063 1367.1603,376.2344 Q1368.0509,377.0469 1369.6447,377.0469 Q1370.5822,377.0469 1371.2384,376.7969 Q1371.6291,376.6406 1372.0509,376.2031 Q1372.3166,375.9375 1372.4572,375.8594 Q1372.6134,375.7813 1372.8166,375.7813 Q1373.1447,375.7813 1373.3947,376.0469 Q1373.6603,376.2969 1373.6603,376.6406 Q1373.6603,376.9844 1373.3166,377.3906 Q1372.8166,377.9688 1372.0197,378.2969 Q1370.9416,378.75 1369.6447,378.75 Q1368.1291,378.75 1366.9259,378.125 Q1365.9416,377.625 1365.2541,376.5625 Q1364.5666,375.4844 1364.5666,374.2031 L1364.5666,373.0469 Q1364.5666,371.7188 1365.1759,370.5781 Q1365.8009,369.4219 1366.8947,368.8125 Q1367.9884,368.1875 1369.2228,368.1875 Q1369.9572,368.1875 1370.5978,368.3594 Q1371.2541,368.5156 1371.8009,368.875 Z "/><text fill="#000000" font-family="sans-serif" font-size="12" lengthAdjust="spacingAndGlyphs" textLength="97" x="1383.0353" y="377.9102">WithConsoleView</text><line style="stroke: #A80036; stroke-width: 1.5;" x1="1355.0353" x2="1482.0353" y1="389" y2="389"/><line style="stroke: #A80036; stroke-width: 1.5;" x1="1355.0353" x2="1482.0353" y1="397" y2="397"/><!--MD5=[ae8b7cdc49d99fbec8c7e641a97b4a7f]
class utils.YesNoDialog--><rect fill="#FEFECE" filter="url(#f131mfk1gdg8w5)" height="48" id="utils.YesNoDialog" style="stroke: #A80036; stroke-width: 1.5;" width="105" x="1214.0353" y="357"/><ellipse cx="1229.0353" cy="373" fill="#ADD1B2" rx="11" ry="11" style="stroke: #A80036; stroke-width: 1.0;"/><path d="M1231.8009,368.875 Q1231.9572,368.6563 1232.1447,368.5469 Q1232.3322,368.4375 1232.5509,368.4375 Q1232.9259,368.4375 1233.1603,368.7031 Q1233.3947,368.9531 1233.3947,369.5625 L1233.3947,371.0156 Q1233.3947,371.625 1233.1603,371.8906 Q1232.9259,372.1563 1232.5509,372.1563 Q1232.2072,372.1563 1232.0041,371.9531 Q1231.8009,371.7656 1231.6916,371.25 Q1231.6447,370.8906 1231.4572,370.7031 Q1231.1291,370.3281 1230.5197,370.1094 Q1229.9103,369.8906 1229.2853,369.8906 Q1228.5197,369.8906 1227.8791,370.2188 Q1227.2541,370.5469 1226.7541,371.2969 Q1226.2697,372.0469 1226.2697,373.0781 L1226.2697,374.1719 Q1226.2697,375.4063 1227.1603,376.2344 Q1228.0509,377.0469 1229.6447,377.0469 Q1230.5822,377.0469 1231.2384,376.7969 Q1231.6291,376.6406 1232.0509,376.2031 Q1232.3166,375.9375 1232.4572,375.8594 Q1232.6134,375.7813 1232.8166,375.7813 Q1233.1447,375.7813 1233.3947,376.0469 Q1233.6603,376.2969 1233.6603,376.6406 Q1233.6603,376.9844 1233.3166,377.3906 Q1232.8166,377.9688 1232.0197,378.2969 Q1230.9416,378.75 1229.6447,378.75 Q1228.1291,378.75 1226.9259,378.125 Q1225.9416,377.625 1225.2541,376.5625 Q1224.5666,375.4844 1224.5666,374.2031 L1224.5666,373.0469 Q1224.5666,371.7188 1225.1759,370.5781 Q1225.8009,369.4219 1226.8947,368.8125 Q1227.9884,368.1875 1229.2228,368.1875 Q1229.9572,368.1875 1230.5978,368.3594 Q1231.2541,368.5156 1231.8009,368.875 Z "/><text fill="#000000" font-family="sans-serif" font-size="12" lengthAdjust="spacingAndGlyphs" textLength="73" x="1243.0353" y="377.9102">YesNoDialog</text><line style="stroke: #A80036; stroke-width: 1.5;" x1="1215.0353" x2="1318.0353" y1="389" y2="389"/><line style="stroke: #A80036; stroke-width: 1.5;" x1="1215.0353" x2="1318.0353" y1="397" y2="397"/><!--MD5=[55e41f1e5a8b39b15e1066bc4af42afb]
class utils.PlayersDialog--><rect fill="#FEFECE" filter="url(#f131mfk1gdg8w5)" height="48" id="utils.PlayersDialog" style="stroke: #A80036; stroke-width: 1.5;" width="109" x="1070.0353" y="357"/><ellipse cx="1085.0353" cy="373" fill="#ADD1B2" rx="11" ry="11" style="stroke: #A80036; stroke-width: 1.0;"/><path d="M1087.8009,368.875 Q1087.9572,368.6563 1088.1447,368.5469 Q1088.3322,368.4375 1088.5509,368.4375 Q1088.9259,368.4375 1089.1603,368.7031 Q1089.3947,368.9531 1089.3947,369.5625 L1089.3947,371.0156 Q1089.3947,371.625 1089.1603,371.8906 Q1088.9259,372.1563 1088.5509,372.1563 Q1088.2072,372.1563 1088.0041,371.9531 Q1087.8009,371.7656 1087.6916,371.25 Q1087.6447,370.8906 1087.4572,370.7031 Q1087.1291,370.3281 1086.5197,370.1094 Q1085.9103,369.8906 1085.2853,369.8906 Q1084.5197,369.8906 1083.8791,370.2188 Q1083.2541,370.5469 1082.7541,371.2969 Q1082.2697,372.0469 1082.2697,373.0781 L1082.2697,374.1719 Q1082.2697,375.4063 1083.1603,376.2344 Q1084.0509,377.0469 1085.6447,377.0469 Q1086.5822,377.0469 1087.2384,376.7969 Q1087.6291,376.6406 1088.0509,376.2031 Q1088.3166,375.9375 1088.4572,375.8594 Q1088.6134,375.7813 1088.8166,375.7813 Q1089.1447,375.7813 1089.3947,376.0469 Q1089.6603,376.2969 1089.6603,376.6406 Q1089.6603,376.9844 1089.3166,377.3906 Q1088.8166,377.9688 1088.0197,378.2969 Q1086.9416,378.75 1085.6447,378.75 Q1084.1291,378.75 1082.9259,378.125 Q1081.9416,377.625 1081.2541,376.5625 Q1080.5666,375.4844 1080.5666,374.2031 L1080.5666,373.0469 Q1080.5666,371.7188 1081.1759,370.5781 Q1081.8009,369.4219 1082.8947,368.8125 Q1083.9884,368.1875 1085.2228,368.1875 Q1085.9572,368.1875 1086.5978,368.3594 Q1087.2541,368.5156 1087.8009,368.875 Z "/><text fill="#000000" font-family="sans-serif" font-size="12" lengthAdjust="spacingAndGlyphs" textLength="77" x="1099.0353" y="377.9102">PlayersDialog</text><line style="stroke: #A80036; stroke-width: 1.5;" x1="1071.0353" x2="1178.0353" y1="389" y2="389"/><line style="stroke: #A80036; stroke-width: 1.5;" x1="1071.0353" x2="1178.0353" y1="397" y2="397"/><!--MD5=[b574e60c06c50037ff1b014277a67d62]
class tictactoe.controllers.PlayController--><rect fill="#FEFECE" filter="url(#f131mfk1gdg8w5)" height="48" id="tictactoe.controllers.PlayController" style="stroke: #A80036; stroke-width: 1.5;" width="109" x="1110.0353" y="672"/><ellipse cx="1125.0353" cy="688" fill="#ADD1B2" rx="11" ry="11" style="stroke: #A80036; stroke-width: 1.0;"/><path d="M1127.8009,683.875 Q1127.9572,683.6563 1128.1447,683.5469 Q1128.3322,683.4375 1128.5509,683.4375 Q1128.9259,683.4375 1129.1603,683.7031 Q1129.3947,683.9531 1129.3947,684.5625 L1129.3947,686.0156 Q1129.3947,686.625 1129.1603,686.8906 Q1128.9259,687.1563 1128.5509,687.1563 Q1128.2072,687.1563 1128.0041,686.9531 Q1127.8009,686.7656 1127.6916,686.25 Q1127.6447,685.8906 1127.4572,685.7031 Q1127.1291,685.3281 1126.5197,685.1094 Q1125.9103,684.8906 1125.2853,684.8906 Q1124.5197,684.8906 1123.8791,685.2188 Q1123.2541,685.5469 1122.7541,686.2969 Q1122.2697,687.0469 1122.2697,688.0781 L1122.2697,689.1719 Q1122.2697,690.4063 1123.1603,691.2344 Q1124.0509,692.0469 1125.6447,692.0469 Q1126.5822,692.0469 1127.2384,691.7969 Q1127.6291,691.6406 1128.0509,691.2031 Q1128.3166,690.9375 1128.4572,690.8594 Q1128.6134,690.7813 1128.8166,690.7813 Q1129.1447,690.7813 1129.3947,691.0469 Q1129.6603,691.2969 1129.6603,691.6406 Q1129.6603,691.9844 1129.3166,692.3906 Q1128.8166,692.9688 1128.0197,693.2969 Q1126.9416,693.75 1125.6447,693.75 Q1124.1291,693.75 1122.9259,693.125 Q1121.9416,692.625 1121.2541,691.5625 Q1120.5666,690.4844 1120.5666,689.2031 L1120.5666,688.0469 Q1120.5666,686.7188 1121.1759,685.5781 Q1121.8009,684.4219 1122.8947,683.8125 Q1123.9884,683.1875 1125.2228,683.1875 Q1125.9572,683.1875 1126.5978,683.3594 Q1127.2541,683.5156 1127.8009,683.875 Z "/><text fill="#000000" font-family="sans-serif" font-size="12" lengthAdjust="spacingAndGlyphs" textLength="77" x="1139.0353" y="692.9102">PlayController</text><line style="stroke: #A80036; stroke-width: 1.5;" x1="1111.0353" x2="1218.0353" y1="704" y2="704"/><line style="stroke: #A80036; stroke-width: 1.5;" x1="1111.0353" x2="1218.0353" y1="712" y2="712"/><!--MD5=[d75e1ad11e6a17be2ba08b218e20e3d7]
class tictactoe.controllers.ResumeController--><rect fill="#FEFECE" filter="url(#f131mfk1gdg8w5)" height="48" id="tictactoe.controllers.ResumeController" style="stroke: #A80036; stroke-width: 1.5;" width="134" x="940.5343" y="672"/><ellipse cx="955.5343" cy="688" fill="#ADD1B2" rx="11" ry="11" style="stroke: #A80036; stroke-width: 1.0;"/><path d="M958.2999,683.875 Q958.4562,683.6563 958.6437,683.5469 Q958.8312,683.4375 959.0499,683.4375 Q959.4249,683.4375 959.6593,683.7031 Q959.8937,683.9531 959.8937,684.5625 L959.8937,686.0156 Q959.8937,686.625 959.6593,686.8906 Q959.4249,687.1563 959.0499,687.1563 Q958.7062,687.1563 958.5031,686.9531 Q958.2999,686.7656 958.1906,686.25 Q958.1437,685.8906 957.9562,685.7031 Q957.6281,685.3281 957.0187,685.1094 Q956.4093,684.8906 955.7843,684.8906 Q955.0187,684.8906 954.3781,685.2188 Q953.7531,685.5469 953.2531,686.2969 Q952.7687,687.0469 952.7687,688.0781 L952.7687,689.1719 Q952.7687,690.4063 953.6593,691.2344 Q954.5499,692.0469 956.1437,692.0469 Q957.0812,692.0469 957.7374,691.7969 Q958.1281,691.6406 958.5499,691.2031 Q958.8156,690.9375 958.9562,690.8594 Q959.1124,690.7813 959.3156,690.7813 Q959.6437,690.7813 959.8937,691.0469 Q960.1593,691.2969 960.1593,691.6406 Q960.1593,691.9844 959.8156,692.3906 Q959.3156,692.9688 958.5187,693.2969 Q957.4406,693.75 956.1437,693.75 Q954.6281,693.75 953.4249,693.125 Q952.4406,692.625 951.7531,691.5625 Q951.0656,690.4844 951.0656,689.2031 L951.0656,688.0469 Q951.0656,686.7188 951.6749,685.5781 Q952.2999,684.4219 953.3937,683.8125 Q954.4874,683.1875 955.7218,683.1875 Q956.4562,683.1875 957.0968,683.3594 Q957.7531,683.5156 958.2999,683.875 Z "/><text fill="#000000" font-family="sans-serif" font-size="12" lengthAdjust="spacingAndGlyphs" textLength="102" x="969.5343" y="692.9102">ResumeController</text><line style="stroke: #A80036; stroke-width: 1.5;" x1="941.5343" x2="1073.5343" y1="704" y2="704"/><line style="stroke: #A80036; stroke-width: 1.5;" x1="941.5343" x2="1073.5343" y1="712" y2="712"/><!--MD5=[8ede4dbfb3b498095887802b64b699f0]
class tictactoe.controllers.StartController--><rect fill="#FEFECE" filter="url(#f131mfk1gdg8w5)" height="48" id="tictactoe.controllers.StartController" style="stroke: #A80036; stroke-width: 1.5;" width="111" x="794.0343" y="672"/><ellipse cx="809.0343" cy="688" fill="#ADD1B2" rx="11" ry="11" style="stroke: #A80036; stroke-width: 1.0;"/><path d="M811.7999,683.875 Q811.9562,683.6563 812.1437,683.5469 Q812.3312,683.4375 812.5499,683.4375 Q812.9249,683.4375 813.1593,683.7031 Q813.3937,683.9531 813.3937,684.5625 L813.3937,686.0156 Q813.3937,686.625 813.1593,686.8906 Q812.9249,687.1563 812.5499,687.1563 Q812.2062,687.1563 812.0031,686.9531 Q811.7999,686.7656 811.6906,686.25 Q811.6437,685.8906 811.4562,685.7031 Q811.1281,685.3281 810.5187,685.1094 Q809.9093,684.8906 809.2843,684.8906 Q808.5187,684.8906 807.8781,685.2188 Q807.2531,685.5469 806.7531,686.2969 Q806.2687,687.0469 806.2687,688.0781 L806.2687,689.1719 Q806.2687,690.4063 807.1593,691.2344 Q808.0499,692.0469 809.6437,692.0469 Q810.5812,692.0469 811.2374,691.7969 Q811.6281,691.6406 812.0499,691.2031 Q812.3156,690.9375 812.4562,690.8594 Q812.6124,690.7813 812.8156,690.7813 Q813.1437,690.7813 813.3937,691.0469 Q813.6593,691.2969 813.6593,691.6406 Q813.6593,691.9844 813.3156,692.3906 Q812.8156,692.9688 812.0187,693.2969 Q810.9406,693.75 809.6437,693.75 Q808.1281,693.75 806.9249,693.125 Q805.9406,692.625 805.2531,691.5625 Q804.5656,690.4844 804.5656,689.2031 L804.5656,688.0469 Q804.5656,686.7188 805.1749,685.5781 Q805.7999,684.4219 806.8937,683.8125 Q807.9874,683.1875 809.2218,683.1875 Q809.9562,683.1875 810.5968,683.3594 Q811.2531,683.5156 811.7999,683.875 Z "/><text fill="#000000" font-family="sans-serif" font-size="12" lengthAdjust="spacingAndGlyphs" textLength="79" x="823.0343" y="692.9102">StartController</text><line style="stroke: #A80036; stroke-width: 1.5;" x1="795.0343" x2="904.0343" y1="704" y2="704"/><line style="stroke: #A80036; stroke-width: 1.5;" x1="795.0343" x2="904.0343" y1="712" y2="712"/><!--MD5=[015754420c4cdd9bacda884b3fa8c6ca]
class tictactoe.views.View--><rect fill="#FEFECE" filter="url(#f131mfk1gdg8w5)" height="48" id="tictactoe.views.View" style="stroke: #A80036; stroke-width: 1.5;" width="58" x="318.5343" y="42"/><ellipse cx="333.5343" cy="58" fill="#ADD1B2" rx="11" ry="11" style="stroke: #A80036; stroke-width: 1.0;"/><path d="M336.2999,53.875 Q336.4562,53.6563 336.6437,53.5469 Q336.8312,53.4375 337.0499,53.4375 Q337.4249,53.4375 337.6593,53.7031 Q337.8937,53.9531 337.8937,54.5625 L337.8937,56.0156 Q337.8937,56.625 337.6593,56.8906 Q337.4249,57.1563 337.0499,57.1563 Q336.7062,57.1563 336.5031,56.9531 Q336.2999,56.7656 336.1906,56.25 Q336.1437,55.8906 335.9562,55.7031 Q335.6281,55.3281 335.0187,55.1094 Q334.4093,54.8906 333.7843,54.8906 Q333.0187,54.8906 332.3781,55.2188 Q331.7531,55.5469 331.2531,56.2969 Q330.7687,57.0469 330.7687,58.0781 L330.7687,59.1719 Q330.7687,60.4063 331.6593,61.2344 Q332.5499,62.0469 334.1437,62.0469 Q335.0812,62.0469 335.7374,61.7969 Q336.1281,61.6406 336.5499,61.2031 Q336.8156,60.9375 336.9562,60.8594 Q337.1124,60.7813 337.3156,60.7813 Q337.6437,60.7813 337.8937,61.0469 Q338.1593,61.2969 338.1593,61.6406 Q338.1593,61.9844 337.8156,62.3906 Q337.3156,62.9688 336.5187,63.2969 Q335.4406,63.75 334.1437,63.75 Q332.6281,63.75 331.4249,63.125 Q330.4406,62.625 329.7531,61.5625 Q329.0656,60.4844 329.0656,59.2031 L329.0656,58.0469 Q329.0656,56.7188 329.6749,55.5781 Q330.2999,54.4219 331.3937,53.8125 Q332.4874,53.1875 333.7218,53.1875 Q334.4562,53.1875 335.0968,53.3594 Q335.7531,53.5156 336.2999,53.875 Z "/><text fill="#000000" font-family="sans-serif" font-size="12" lengthAdjust="spacingAndGlyphs" textLength="26" x="347.5343" y="62.9102">View</text><line style="stroke: #A80036; stroke-width: 1.5;" x1="319.5343" x2="375.5343" y1="74" y2="74"/><line style="stroke: #A80036; stroke-width: 1.5;" x1="319.5343" x2="375.5343" y1="82" y2="82"/><!--MD5=[17799e03bfee0ccb3aa03b93da9c26d6]
class tictactoe.views.ErrorView--><rect fill="#FEFECE" filter="url(#f131mfk1gdg8w5)" height="48" id="tictactoe.views.ErrorView" style="stroke: #A80036; stroke-width: 1.5;" width="85" x="71.0339" y="42"/><ellipse cx="86.0339" cy="58" fill="#ADD1B2" rx="11" ry="11" style="stroke: #A80036; stroke-width: 1.0;"/><path d="M88.7995,53.875 Q88.9558,53.6563 89.1433,53.5469 Q89.3308,53.4375 89.5495,53.4375 Q89.9245,53.4375 90.1589,53.7031 Q90.3933,53.9531 90.3933,54.5625 L90.3933,56.0156 Q90.3933,56.625 90.1589,56.8906 Q89.9245,57.1563 89.5495,57.1563 Q89.2058,57.1563 89.0027,56.9531 Q88.7995,56.7656 88.6902,56.25 Q88.6433,55.8906 88.4558,55.7031 Q88.1277,55.3281 87.5183,55.1094 Q86.9089,54.8906 86.2839,54.8906 Q85.5183,54.8906 84.8777,55.2188 Q84.2527,55.5469 83.7527,56.2969 Q83.2683,57.0469 83.2683,58.0781 L83.2683,59.1719 Q83.2683,60.4063 84.1589,61.2344 Q85.0495,62.0469 86.6433,62.0469 Q87.5808,62.0469 88.237,61.7969 Q88.6277,61.6406 89.0495,61.2031 Q89.3152,60.9375 89.4558,60.8594 Q89.612,60.7813 89.8152,60.7813 Q90.1433,60.7813 90.3933,61.0469 Q90.6589,61.2969 90.6589,61.6406 Q90.6589,61.9844 90.3152,62.3906 Q89.8152,62.9688 89.0183,63.2969 Q87.9402,63.75 86.6433,63.75 Q85.1277,63.75 83.9245,63.125 Q82.9402,62.625 82.2527,61.5625 Q81.5652,60.4844 81.5652,59.2031 L81.5652,58.0469 Q81.5652,56.7188 82.1745,55.5781 Q82.7995,54.4219 83.8933,53.8125 Q84.987,53.1875 86.2214,53.1875 Q86.9558,53.1875 87.5964,53.3594 Q88.2527,53.5156 88.7995,53.875 Z "/><text fill="#000000" font-family="sans-serif" font-size="12" lengthAdjust="spacingAndGlyphs" textLength="53" x="100.0339" y="62.9102">ErrorView</text><line style="stroke: #A80036; stroke-width: 1.5;" x1="72.0339" x2="155.0339" y1="74" y2="74"/><line style="stroke: #A80036; stroke-width: 1.5;" x1="72.0339" x2="155.0339" y1="82" y2="82"/><!--MD5=[2ae15d20e7f22fd333327d3852982126]
class tictactoe.views.PlayerView--><rect fill="#FEFECE" filter="url(#f131mfk1gdg8w5)" height="48" id="tictactoe.views.PlayerView" style="stroke: #A80036; stroke-width: 1.5;" width="92" x="191.5343" y="42"/><ellipse cx="206.5343" cy="58" fill="#ADD1B2" rx="11" ry="11" style="stroke: #A80036; stroke-width: 1.0;"/><path d="M209.2999,53.875 Q209.4562,53.6563 209.6437,53.5469 Q209.8312,53.4375 210.0499,53.4375 Q210.4249,53.4375 210.6593,53.7031 Q210.8937,53.9531 210.8937,54.5625 L210.8937,56.0156 Q210.8937,56.625 210.6593,56.8906 Q210.4249,57.1563 210.0499,57.1563 Q209.7062,57.1563 209.5031,56.9531 Q209.2999,56.7656 209.1906,56.25 Q209.1437,55.8906 208.9562,55.7031 Q208.6281,55.3281 208.0187,55.1094 Q207.4093,54.8906 206.7843,54.8906 Q206.0187,54.8906 205.3781,55.2188 Q204.7531,55.5469 204.2531,56.2969 Q203.7687,57.0469 203.7687,58.0781 L203.7687,59.1719 Q203.7687,60.4063 204.6593,61.2344 Q205.5499,62.0469 207.1437,62.0469 Q208.0812,62.0469 208.7374,61.7969 Q209.1281,61.6406 209.5499,61.2031 Q209.8156,60.9375 209.9562,60.8594 Q210.1124,60.7813 210.3156,60.7813 Q210.6437,60.7813 210.8937,61.0469 Q211.1593,61.2969 211.1593,61.6406 Q211.1593,61.9844 210.8156,62.3906 Q210.3156,62.9688 209.5187,63.2969 Q208.4406,63.75 207.1437,63.75 Q205.6281,63.75 204.4249,63.125 Q203.4406,62.625 202.7531,61.5625 Q202.0656,60.4844 202.0656,59.2031 L202.0656,58.0469 Q202.0656,56.7188 202.6749,55.5781 Q203.2999,54.4219 204.3937,53.8125 Q205.4874,53.1875 206.7218,53.1875 Q207.4562,53.1875 208.0968,53.3594 Q208.7531,53.5156 209.2999,53.875 Z "/><text fill="#000000" font-family="sans-serif" font-size="12" lengthAdjust="spacingAndGlyphs" textLength="60" x="220.5343" y="62.9102">PlayerView</text><line style="stroke: #A80036; stroke-width: 1.5;" x1="192.5343" x2="282.5343" y1="74" y2="74"/><line style="stroke: #A80036; stroke-width: 1.5;" x1="192.5343" x2="282.5343" y1="82" y2="82"/><!--MD5=[4fe29ebdeb3371b5754843c99b0088e8]
reverse link utils.WithConsoleView to tictactoe.views.console.BoardView--><path d="M1365.7853,415.069 C1356.2753,420.206 1346.2753,425.095 1336.5353,429 C1230.5153,471.481 1103.0553,500.546 1013.4103,517.638 " fill="none" id="utils.WithConsoleView&lt;-tictactoe.views.console.BoardView" style="stroke: #A80036; stroke-width: 1.0;"/><polygon fill="none" points="1362.4553,408.912,1383.2953,405.077,1369.3953,421.071,1362.4553,408.912" style="stroke: #A80036; stroke-width: 1.0;"/><!--MD5=[14af8e5c407c7d67ca0af798dc6967c5]
link tictactoe.views.console.BoardView to tictactoe.controllers.PlayController--><path d="M1013.1513,583.814 C1040.0553,596.564 1068.0553,611.511 1092.5353,628 C1109.6253,639.51 1126.5953,655.0539 1139.7653,668.2719 " fill="none" id="tictactoe.views.console.BoardView-&gt;tictactoe.controllers.PlayController" style="stroke: #A80036; stroke-width: 1.0; stroke-dasharray: 7.0,7.0;"/><polygon fill="#A80036" points="1143.3753,671.9331,1139.8997,662.7179,1139.8628,668.3746,1134.2061,668.3378,1143.3753,671.9331" style="stroke: #A80036; stroke-width: 1.0;"/><!--MD5=[d1f1f21fa3eb12d639631512d925e9a6]
reverse link tictactoe.views.View to tictactoe.views.console.ConsoleView--><path d="M396.7463,68.096 C454.2103,71.28 550.5533,82.661 622.5343,122 C642.5233,132.925 660.9223,149.307 676.2493,165.74 " fill="none" id="tictactoe.views.View&lt;-tictactoe.views.console.ConsoleView" style="stroke: #A80036; stroke-width: 1.0;"/><polygon fill="none" points="396.4383,75.089,376.7583,67.236,397.0403,61.102,396.4383,75.089" style="stroke: #A80036; stroke-width: 1.0;"/><!--MD5=[9113815f8bbc012213d6467f94b3dc5b]
link tictactoe.views.console.ConsoleView to tictactoe.views.console.StartView--><path d="M630.4433,278.8929 C630.4433,278.8929 624.8093,281.843 622.5343,283 C592.7253,298.155 582.8763,296.962 553.5343,313 C537.6063,321.706 520.9753,332.217 505.9513,342.306 " fill="none" id="tictactoe.views.console.ConsoleView-tictactoe.views.console.StartView" style="stroke: #A80036; stroke-width: 1.0;"/><polygon fill="#A80036" points="494.8133,349.902,504.5024,348.135,498.9439,347.0845,499.9944,341.5261,494.8133,349.902" style="stroke: #A80036; stroke-width: 1.0;"/><line style="stroke: #A80036; stroke-width: 1.0;" x1="498.9439" x2="505.5533" y1="347.0845" y2="342.577"/><polygon fill="#A80036" points="641.0183,273.221,633.8402,272.532,630.4433,278.8929,637.6215,279.5819,641.0183,273.221" style="stroke: #A80036; stroke-width: 1.0;"/><!--MD5=[1735144fa38f1aa47117a26d071db586]
link tictactoe.views.console.ConsoleView to tictactoe.views.console.PlayView--><path d="M783.944,291.6959 C783.944,291.6959 816.3593,325.533 830.2853,340.071 " fill="none" id="tictactoe.views.console.ConsoleView-tictactoe.views.console.PlayView" style="stroke: #A80036; stroke-width: 1.0;"/><polygon fill="#A80036" points="839.5363,349.729,836.1987,340.4629,836.0774,346.1185,830.4219,345.9971,839.5363,349.729" style="stroke: #A80036; stroke-width: 1.0;"/><line style="stroke: #A80036; stroke-width: 1.0;" x1="836.0774" x2="830.5438" y1="346.1185" y2="340.3415"/><polygon fill="#A80036" points="775.6433,283.03,776.905,290.1299,783.944,291.6959,782.6823,284.5961,775.6433,283.03" style="stroke: #A80036; stroke-width: 1.0;"/><!--MD5=[a983e760d9bef84c565434062749d875]
link tictactoe.views.console.ConsoleView to tictactoe.views.console.ResumeView--><path d="M694.2825,294.2401 C694.2825,294.2401 682.7793,324.366 677.8173,337.359 " fill="none" id="tictactoe.views.console.ConsoleView-tictactoe.views.console.ResumeView" style="stroke: #A80036; stroke-width: 1.0;"/><polygon fill="#A80036" points="673.0933,349.729,680.0413,342.7487,674.8774,345.0581,672.5679,339.8942,673.0933,349.729" style="stroke: #A80036; stroke-width: 1.0;"/><line style="stroke: #A80036; stroke-width: 1.0;" x1="674.8774" x2="677.7318" y1="345.0581" y2="337.5845"/><polygon fill="#A80036" points="698.5643,283.03,692.6867,287.2078,694.2825,294.2401,700.1601,290.0623,698.5643,283.03" style="stroke: #A80036; stroke-width: 1.0;"/><!--MD5=[54bebf859c5bdf693419656b6450baf3]
link tictactoe.views.console.ConsoleView to tictactoe.controllers.ResumeController--><path d="M800.1283,276.675 C805.8843,279.123 811.7153,281.274 817.5343,283 C894.2973,305.771 1482.1053,255.216 1537.5353,313 C1717.6353,500.763 1380.0553,581.624 1268.5353,620 C1231.5153,632.74 1129.2253,614.337 1092.5353,628 C1069.8053,636.463 1048.3953,653.4219 1032.7453,668.1594 " fill="none" id="tictactoe.views.console.ConsoleView-&gt;tictactoe.controllers.ResumeController" style="stroke: #A80036; stroke-width: 1.0; stroke-dasharray: 7.0,7.0;"/><polygon fill="#A80036" points="1028.8853,671.8518,1038.1449,668.4962,1032.4891,668.3859,1032.5995,662.7301,1028.8853,671.8518" style="stroke: #A80036; stroke-width: 1.0;"/><!--MD5=[fe1abdfb2f590d873c748581df67ff7e]
link tictactoe.views.console.ConsoleView to tictactoe.controllers.StartController--><path d="M800.1323,276.659 C805.8873,279.111 811.7173,281.267 817.5343,283 C890.2283,304.655 1447.0953,258.199 1499.5353,313 C1535.1753,350.248 1528.3053,386.219 1499.5353,429 C1373.9353,615.763 1249.6553,568.615 1030.5353,620 C1007.1033,625.494 944.6223,618.446 922.5343,628 C902.4733,636.677 884.3443,653.2447 871.1703,667.7332 " fill="none" id="tictactoe.views.console.ConsoleView-&gt;tictactoe.controllers.StartController" style="stroke: #A80036; stroke-width: 1.0; stroke-dasharray: 7.0,7.0;"/><polygon fill="#A80036" points="867.5883,671.7563,876.5605,667.6944,870.9132,668.022,870.5856,662.3746,867.5883,671.7563" style="stroke: #A80036; stroke-width: 1.0;"/><!--MD5=[0cbb094f30f6b1f0b6797076ab674a46]
link tictactoe.views.console.ConsoleView to tictactoe.controllers.PlayController--><path d="M800.1223,276.694 C805.8803,279.137 811.7133,281.282 817.5343,283 C858.6463,295.134 1558.8153,282.106 1588.5353,313 C1701.9353,430.896 1447.8353,615.129 1440.5353,620 C1374.5853,664.0108 1283.5253,682.2979 1224.3353,689.8286 " fill="none" id="tictactoe.views.console.ConsoleView-&gt;tictactoe.controllers.PlayController" style="stroke: #A80036; stroke-width: 1.0; stroke-dasharray: 7.0,7.0;"/><polygon fill="#A80036" points="1219.0653,690.4815,1228.4885,693.3455,1224.0274,689.8672,1227.5057,685.4061,1219.0653,690.4815" style="stroke: #A80036; stroke-width: 1.0;"/><!--MD5=[d983ff7a7ecf259bcdad60485d19cf95]
reverse link utils.WithConsoleView to tictactoe.views.console.CoordinateView--><path d="M1380.9753,343.011 C1367.8353,331.873 1352.3853,320.602 1336.5353,313 C1232.3553,263.041 1099.8353,241.42 1013.6393,232.187 " fill="none" id="utils.WithConsoleView&lt;-tictactoe.views.console.CoordinateView" style="stroke: #A80036; stroke-width: 1.0;"/><polygon fill="none" points="1386.0653,338.174,1396.2353,356.763,1376.6853,348.574,1386.0653,338.174" style="stroke: #A80036; stroke-width: 1.0;"/><!--MD5=[e1dd5bcb520317c417af9a829227fa67]
link tictactoe.views.console.CoordinateView to tictactoe.controllers.PlayController--><path d="M1013.6583,228.938 C1208.5953,237.373 1659.1253,262.208 1704.5353,313 C1795.4753,414.717 1794.1353,517.097 1704.5353,620 C1673.3153,655.855 1358.4853,681.6267 1224.4453,691.0573 " fill="none" id="tictactoe.views.console.CoordinateView-&gt;tictactoe.controllers.PlayController" style="stroke: #A80036; stroke-width: 1.0; stroke-dasharray: 7.0,7.0;"/><polygon fill="#A80036" points="1219.3653,691.4129,1228.628,694.7599,1224.3525,691.0558,1228.0566,686.7803,1219.3653,691.4129" style="stroke: #A80036; stroke-width: 1.0;"/><!--MD5=[521be967e4e828bbb4868581b766b1da]
reverse link tictactoe.views.ErrorView to tictactoe.views.console.ErrorView--><path d="M55.7614,102.536 C50.059,108.336 45.0801,114.829 41.5339,122 C9.8162,186.142 6,220.891 41.5339,283 C65.1309,324.245 113.8501,349.678 152.2623,364.095 " fill="none" id="tictactoe.views.ErrorView&lt;-tictactoe.views.console.ErrorView" style="stroke: #A80036; stroke-width: 1.0;"/><polygon fill="none" points="51.2544,97.179,71.0228,89.55,60.327,107.842,51.2544,97.179" style="stroke: #A80036; stroke-width: 1.0;"/><!--MD5=[f807ad8458e0e3d6ca100de41032e69a]
reverse link tictactoe.views.PlayerView to tictactoe.views.console.MachinePlayerView--><path d="M278.3303,102.134 C285.3753,106.786 292.9003,110.981 300.5343,114 C330.0643,125.678 342.2263,109.776 371.5343,122 C402.7733,135.03 432.5203,158.282 455.2593,179.246 " fill="none" id="tictactoe.views.PlayerView&lt;-tictactoe.views.console.MachinePlayerView" style="stroke: #A80036; stroke-width: 1.0;"/><polygon fill="none" points="273.9123,107.572,262.0143,90.038,282.2493,96.326,273.9123,107.572" style="stroke: #A80036; stroke-width: 1.0;"/><!--MD5=[9623adb787708e117decab727ca41eb7]
link tictactoe.views.console.PlayView to tictactoe.views.console.BoardView--><path d="M874.7803,412.156 C878.4173,429.717 883.1413,452.528 887.5493,473.809 " fill="none" id="tictactoe.views.console.PlayView-&gt;tictactoe.views.console.BoardView" style="stroke: #A80036; stroke-width: 1.0; stroke-dasharray: 7.0,7.0;"/><polygon fill="#A80036" points="888.6023,478.894,890.6933,469.2697,887.5879,473.998,882.8596,470.8926,888.6023,478.894" style="stroke: #A80036; stroke-width: 1.0;"/><!--MD5=[c652744ae97b12ae96764b7849bbed7e]
link tictactoe.views.console.PlayView to tictactoe.views.PlayerView--><path d="M834.4153,349.996 C816.4043,336.045 793.1743,320.834 769.5343,313 C699.2193,289.699 154.7213,336.545 103.5339,283 C54.0881,231.277 55.8956,175.393 103.5339,122 C113.9575,110.317 158.9573,119.714 173.5343,114 C185.9973,109.114 198.2143,101.172 208.5783,93.195 " fill="none" id="tictactoe.views.console.PlayView-&gt;tictactoe.views.PlayerView" style="stroke: #A80036; stroke-width: 1.0; stroke-dasharray: 7.0,7.0;"/><polygon fill="#A80036" points="212.6043,90.024,203.059,92.4505,208.6764,93.1178,208.0091,98.7351,212.6043,90.024" style="stroke: #A80036; stroke-width: 1.0;"/><!--MD5=[0e974deee76fc2d8b2e265801257ba8e]
link tictactoe.views.console.PlayView to tictactoe.views.console.ResultView--><path d="M835.7433,412.156 C807.4133,438.209 766.5163,475.82 737.1283,502.846 " fill="none" id="tictactoe.views.console.PlayView-&gt;tictactoe.views.console.ResultView" style="stroke: #A80036; stroke-width: 1.0; stroke-dasharray: 7.0,7.0;"/><polygon fill="#A80036" points="733.2423,506.42,742.5751,503.2738,736.9233,503.0361,737.1609,497.3843,733.2423,506.42" style="stroke: #A80036; stroke-width: 1.0;"/><!--MD5=[58e59420f385c3dc7e125fbf21a51657]
link tictactoe.views.console.PlayView to tictactoe.controllers.PlayController--><path d="M807.6953,412.03 C795.1753,417.885 782.0063,423.811 769.5343,429 C708.9183,454.22 668.2923,425.291 630.5343,479 C594.4933,530.266 586.6073,575.306 630.5343,620 C639.5313,629.154 1080.6353,623.199 1092.5353,628 C1112.7953,636.173 1130.7953,652.9171 1143.7253,667.6207 " fill="none" id="tictactoe.views.console.PlayView-&gt;tictactoe.controllers.PlayController" style="stroke: #A80036; stroke-width: 1.0; stroke-dasharray: 7.0,7.0;"/><polygon fill="#A80036" points="1147.2353,671.705,1144.3944,662.2748,1143.973,667.9159,1138.3318,667.4945,1147.2353,671.705" style="stroke: #A80036; stroke-width: 1.0;"/><!--MD5=[a9b8c641a44b436e524ffa093e2e24f9]
reverse link utils.WithConsoleView to tictactoe.views.console.ResultView--><path d="M1368.3753,415.227 C1358.1953,420.666 1347.2953,425.62 1336.5353,429 C1095.5953,504.662 1004.3083,383.482 770.5343,479 C755.3933,485.187 741.0013,495.836 729.2493,506.302 " fill="none" id="utils.WithConsoleView&lt;-tictactoe.views.console.ResultView" style="stroke: #A80036; stroke-width: 1.0;"/><polygon fill="none" points="1364.9353,409.13,1385.7453,405.148,1371.9553,421.239,1364.9353,409.13" style="stroke: #A80036; stroke-width: 1.0;"/><!--MD5=[a2b9f9ee5e07f3ae9d4e901f4fc759d0]
link tictactoe.views.console.ResumeView to tictactoe.controllers.ResumeController--><path d="M632.7123,412.023 C617.5633,429.93 600.5193,453.998 592.5343,479 C573.4673,538.696 548.7623,575.154 592.5343,620 C605.3433,633.124 905.2813,621.783 922.5343,628 C945.3483,636.222 966.7633,653.1827 982.3913,667.9815 " fill="none" id="tictactoe.views.console.ResumeView-&gt;tictactoe.controllers.ResumeController" style="stroke: #A80036; stroke-width: 1.0; stroke-dasharray: 7.0,7.0;"/><polygon fill="#A80036" points="986.2373,671.6906,982.5367,662.5634,982.6386,668.2194,976.9827,668.3213,986.2373,671.6906" style="stroke: #A80036; stroke-width: 1.0;"/><!--MD5=[8975a5de983f65bab684002204e102b0]
link tictactoe.views.console.ResumeView to utils.YesNoDialog--><path d="M696.2453,349.919 C719.9653,330.85 753.1383,308.195 787.0343,298 C828.7443,285.455 1138.1853,282.889 1179.0353,298 C1206.9653,308.333 1230.8753,332.808 1246.6053,352.519 " fill="none" id="tictactoe.views.console.ResumeView-&gt;utils.YesNoDialog" style="stroke: #A80036; stroke-width: 1.0; stroke-dasharray: 7.0,7.0;"/><polygon fill="#A80036" points="1250.0253,356.901,1247.6203,347.3503,1246.9404,352.9661,1241.3245,352.2862,1250.0253,356.901" style="stroke: #A80036; stroke-width: 1.0;"/><!--MD5=[43f857ab0050bb78ce27120a0af9afa2]
link tictactoe.views.console.StartView to utils.PlayersDialog--><path d="M485.9323,349.741 C507.9803,330.729 538.8983,308.205 571.0343,298 C617.7353,283.169 965.4883,282.688 1012.0343,298 C1045.0253,308.853 1076.2853,333.506 1097.4353,353.14 " fill="none" id="tictactoe.views.console.StartView-&gt;utils.PlayersDialog" style="stroke: #A80036; stroke-width: 1.0; stroke-dasharray: 7.0,7.0;"/><polygon fill="#A80036" points="1101.2753,356.743,1097.4647,347.6612,1097.635,353.3155,1091.9807,353.4857,1101.2753,356.743" style="stroke: #A80036; stroke-width: 1.0;"/><!--MD5=[d3767328306413c38638214ca1b9afec]
link tictactoe.views.console.StartView to tictactoe.controllers.StartController--><path d="M458.4753,412.232 C468.3983,463.004 495.6263,565.206 560.5343,620 C625.1613,674.5571 724.8063,690.0363 788.5773,694.0883 " fill="none" id="tictactoe.views.console.StartView-&gt;tictactoe.controllers.StartController" style="stroke: #A80036; stroke-width: 1.0; stroke-dasharray: 7.0,7.0;"/><polygon fill="#A80036" points="793.8693,694.4036,785.1229,689.8758,788.8781,694.1065,784.6475,697.8617,793.8693,694.4036" style="stroke: #A80036; stroke-width: 1.0;"/><!--MD5=[e665259f0705ebc0d9068c66ae844f61]
reverse link tictactoe.views.PlayerView to tictactoe.views.console.UserPlayerView--><path d="M237.5343,110.318 C237.5343,127.479 237.5343,147.46 237.5343,165.816 " fill="none" id="tictactoe.views.PlayerView&lt;-tictactoe.views.console.UserPlayerView" style="stroke: #A80036; stroke-width: 1.0;"/><polygon fill="none" points="230.5343,110.092,237.5343,90.092,244.5343,110.092,230.5343,110.092" style="stroke: #A80036; stroke-width: 1.0;"/><!--MD5=[d08a44d06940417b04e1f442f789385d]
link tictactoe.views.console.UserPlayerView to tictactoe.views.console.ErrorView--><path d="M225.9903,283.03 C222.3713,301.068 218.4433,320.644 215.0713,337.452 " fill="none" id="tictactoe.views.console.UserPlayerView-&gt;tictactoe.views.console.ErrorView" style="stroke: #A80036; stroke-width: 1.0; stroke-dasharray: 7.0,7.0;"/><polygon fill="#A80036" points="214.0433,342.575,219.7347,334.5371,215.0264,337.6726,211.8909,332.9642,214.0433,342.575" style="stroke: #A80036; stroke-width: 1.0;"/><!--MD5=[0aed7af6d5234eb306c2f96840a5605f]
@startuml

class  tictactoe.views.console.BoardView{
- playController: PlayController
~ BoardView(PlayController)
~ write(): void
- printRowBoard(int): void
- printSquareValueBoard(Coordinate): void
}
utils.WithConsoleView <|-down- tictactoe.views.console.BoardView
tictactoe.views.console.BoardView ..> tictactoe.controllers.PlayController

class  tictactoe.views.console.ConsoleView{
- startView: StartView
- playView: PlayView
- resumeView: ResumeView
+ ConsoleView()
+ interact(Controller): void
}
tictactoe.views.View <|-down- tictactoe.views.console.ConsoleView
tictactoe.views.console.ConsoleView *-down-> tictactoe.views.console.StartView
tictactoe.views.console.ConsoleView *-down-> tictactoe.views.console.PlayView
tictactoe.views.console.ConsoleView *-down-> tictactoe.views.console.ResumeView
tictactoe.views.console.ConsoleView ..> tictactoe.controllers.ResumeController
tictactoe.views.console.ConsoleView ..> tictactoe.controllers.StartController
tictactoe.views.console.ConsoleView ..> tictactoe.controllers.PlayController

class  tictactoe.views.console.CoordinateView{
~ playController: PlayController
~ CoordinateView(PlayController)
~ read(String): Coordinate
}
utils.WithConsoleView <|-down- tictactoe.views.console.CoordinateView
tictactoe.views.console.CoordinateView ..> tictactoe.controllers.PlayController

class  tictactoe.views.console.ErrorView{
~ ErrorView(Error)
~ writeln(): void
}
tictactoe.views.ErrorView <|-down- tictactoe.views.console.ErrorView

class  tictactoe.views.console.MachinePlayerView{
~ MachinePlayerView(PlayController)
+ readCoordinateToPut(): Coordinate
+ readCoordinatesToMove(): Coordinate[]
}
tictactoe.views.PlayerView <|-down- tictactoe.views.console.MachinePlayerView

class  tictactoe.views.console.PlayView{
~ interact(PlayController): void
}
tictactoe.views.console.PlayView ..> tictactoe.views.console.BoardView
tictactoe.views.console.PlayView ..> tictactoe.views.PlayerView
tictactoe.views.console.PlayView ..> tictactoe.views.console.ResultView
tictactoe.views.console.PlayView ..> tictactoe.controllers.PlayController

class tictactoe.views.console.ResultView{
~ writeln(int): void
}
utils.WithConsoleView <|-down- tictactoe.views.console.ResultView

class tictactoe.views.console.ResumeView{
~ interact(ResumeController): void
}
tictactoe.views.console.ResumeView ..> tictactoe.controllers.ResumeController
tictactoe.views.console.ResumeView ..> utils.YesNoDialog

class tictactoe.views.console.StartView{
~ interact(StartController): void
}
tictactoe.views.console.StartView ..> utils.PlayersDialog
tictactoe.views.console.StartView ..> tictactoe.controllers.StartController

class  tictactoe.views.console.UserPlayerView{
~ {static} ENTER_COORDINATE_TO_PUT: String
~ {static} ENTER_COORDINATE_TO_REMOVE: String
~ UserPlayerView(PlayController)
+ readCoordinateToPut(): int[]
+ readCoordinatesToMove(): int[][]
}
tictactoe.views.PlayerView <|-down- tictactoe.views.console.UserPlayerView
tictactoe.views.console.UserPlayerView ..> tictactoe.views.console.ErrorView

@enduml

PlantUML version 1.2020.15(Sun Jun 28 13:39:45 CEST 2020)
(GPL source distribution)
Java Runtime: Java(TM) SE Runtime Environment
JVM: Java HotSpot(TM) 64-Bit Server VM
Default Encoding: windows-1252
Language: es
Country: ES
--></g></svg>