<?xml version="1.0" encoding="UTF-8" standalone="no"?><svg xmlns="http://www.w3.org/2000/svg" xmlns:xlink="http://www.w3.org/1999/xlink" contentScriptType="application/ecmascript" contentStyleType="text/css" height="790px" preserveAspectRatio="none" style="width:1023px;height:790px;" version="1.1" viewBox="0 0 1023 790" width="1023px" zoomAndPan="magnify"><defs><filter height="300%" id="fb7tdjjy5yjh" width="300%" x="-1" y="-1"><feGaussianBlur result="blurOut" stdDeviation="2.0"/><feColorMatrix in="blurOut" result="blurOut2" type="matrix" values="0 0 0 0 0 0 0 0 0 0 0 0 0 0 0 0 0 0 .4 0"/><feOffset dx="4.0" dy="4.0" in="blurOut2" result="blurOut3"/><feBlend in="SourceGraphic" in2="blurOut3" mode="normal"/></filter></defs><g><!--MD5=[64182ab34c08ac367bbf699869515711]
cluster tictactoe.views.console--><polygon fill="#FFFFFF" filter="url(#fb7tdjjy5yjh)" points="52.8492,130,224.8492,130,231.8492,153.6094,814.8492,153.6094,814.8492,654,52.8492,654,52.8492,130" style="stroke: #000000; stroke-width: 1.5;"/><line style="stroke: #000000; stroke-width: 1.5;" x1="52.8492" x2="231.8492" y1="153.6094" y2="153.6094"/><text fill="#000000" font-family="sans-serif" font-size="14" font-weight="bold" lengthAdjust="spacingAndGlyphs" textLength="166" x="56.8492" y="146.5332">tictactoe.views.console</text><!--MD5=[c52f45833d539af9e29a9d34b8b7302b]
cluster utils--><polygon fill="#FFFFFF" filter="url(#fb7tdjjy5yjh)" points="839.8492,178.5,875.8492,178.5,882.8492,202.1094,1001.8492,202.1094,1001.8492,278.5,839.8492,278.5,839.8492,178.5" style="stroke: #000000; stroke-width: 1.5;"/><line style="stroke: #000000; stroke-width: 1.5;" x1="839.8492" x2="882.8492" y1="202.1094" y2="202.1094"/><text fill="#000000" font-family="sans-serif" font-size="14" font-weight="bold" lengthAdjust="spacingAndGlyphs" textLength="30" x="843.8492" y="195.0332">utils</text><!--MD5=[ee7e9a007a7c4d40c0679a27f272732d]
cluster tictactoe.controllers--><polygon fill="#FFFFFF" filter="url(#fb7tdjjy5yjh)" points="231.8492,678,379.8492,678,386.8492,701.6094,389.8492,701.6094,389.8492,778,231.8492,778,231.8492,678" style="stroke: #000000; stroke-width: 1.5;"/><line style="stroke: #000000; stroke-width: 1.5;" x1="231.8492" x2="386.8492" y1="701.6094" y2="701.6094"/><text fill="#000000" font-family="sans-serif" font-size="14" font-weight="bold" lengthAdjust="spacingAndGlyphs" textLength="142" x="235.8492" y="694.5332">tictactoe.controllers</text><!--MD5=[f4e83a21a957c5b9ba9691e6361db36b]
cluster tictactoe.views--><polygon fill="#FFFFFF" filter="url(#fb7tdjjy5yjh)" points="217.8492,6,329.8492,6,336.8492,29.6094,555.8492,29.6094,555.8492,106,217.8492,106,217.8492,6" style="stroke: #000000; stroke-width: 1.5;"/><line style="stroke: #000000; stroke-width: 1.5;" x1="217.8492" x2="336.8492" y1="29.6094" y2="29.6094"/><text fill="#000000" font-family="sans-serif" font-size="14" font-weight="bold" lengthAdjust="spacingAndGlyphs" textLength="106" x="221.8492" y="22.5332">tictactoe.views</text><!--MD5=[270aad5bca7cd81b5a24665b2403b70b]
class tictactoe.views.console.BoardView--><rect fill="#FEFECE" filter="url(#fb7tdjjy5yjh)" height="117.1797" id="tictactoe.views.console.BoardView" style="stroke: #A80036; stroke-width: 1.5;" width="201" x="400.3492" y="521"/><ellipse cx="467.0992" cy="537" fill="#ADD1B2" rx="11" ry="11" style="stroke: #A80036; stroke-width: 1.0;"/><path d="M469.8648,532.875 Q470.0211,532.6563 470.2086,532.5469 Q470.3961,532.4375 470.6148,532.4375 Q470.9898,532.4375 471.2242,532.7031 Q471.4586,532.9531 471.4586,533.5625 L471.4586,535.0156 Q471.4586,535.625 471.2242,535.8906 Q470.9898,536.1563 470.6148,536.1563 Q470.2711,536.1563 470.068,535.9531 Q469.8648,535.7656 469.7555,535.25 Q469.7086,534.8906 469.5211,534.7031 Q469.193,534.3281 468.5836,534.1094 Q467.9742,533.8906 467.3492,533.8906 Q466.5836,533.8906 465.943,534.2188 Q465.318,534.5469 464.818,535.2969 Q464.3336,536.0469 464.3336,537.0781 L464.3336,538.1719 Q464.3336,539.4063 465.2242,540.2344 Q466.1148,541.0469 467.7086,541.0469 Q468.6461,541.0469 469.3023,540.7969 Q469.693,540.6406 470.1148,540.2031 Q470.3805,539.9375 470.5211,539.8594 Q470.6773,539.7813 470.8805,539.7813 Q471.2086,539.7813 471.4586,540.0469 Q471.7242,540.2969 471.7242,540.6406 Q471.7242,540.9844 471.3805,541.3906 Q470.8805,541.9688 470.0836,542.2969 Q469.0055,542.75 467.7086,542.75 Q466.193,542.75 464.9898,542.125 Q464.0055,541.625 463.318,540.5625 Q462.6305,539.4844 462.6305,538.2031 L462.6305,537.0469 Q462.6305,535.7188 463.2398,534.5781 Q463.8648,533.4219 464.9586,532.8125 Q466.0523,532.1875 467.2867,532.1875 Q468.0211,532.1875 468.6617,532.3594 Q469.318,532.5156 469.8648,532.875 Z "/><text fill="#000000" font-family="sans-serif" font-size="12" lengthAdjust="spacingAndGlyphs" textLength="59" x="487.5992" y="541.9102">BoardView</text><line style="stroke: #A80036; stroke-width: 1.5;" x1="401.3492" x2="600.3492" y1="553" y2="553"/><rect fill="none" height="6" style="stroke: #C82930; stroke-width: 1.0;" width="6" x="408.3492" y="561"/><text fill="#000000" font-family="sans-serif" font-size="11" lengthAdjust="spacingAndGlyphs" textLength="54" x="420.3492" y="568.4189">logic: Logic</text><line style="stroke: #A80036; stroke-width: 1.5;" x1="401.3492" x2="600.3492" y1="574.8359" y2="574.8359"/><polygon fill="#4177AF" points="411.3492,581.8359,407.3492,587.8359,415.3492,587.8359" style="stroke: #1963A0; stroke-width: 1.0;"/><text fill="#000000" font-family="sans-serif" font-size="11" lengthAdjust="spacingAndGlyphs" textLength="89" x="420.3492" y="590.2549">BoardView(Logic)</text><polygon fill="#4177AF" points="411.3492,595.6719,407.3492,601.6719,415.3492,601.6719" style="stroke: #1963A0; stroke-width: 1.0;"/><text fill="#000000" font-family="sans-serif" font-size="11" lengthAdjust="spacingAndGlyphs" textLength="59" x="420.3492" y="604.0908">write(): void</text><rect fill="#F24D5C" height="6" style="stroke: #C82930; stroke-width: 1.0;" width="6" x="408.3492" y="610.5078"/><text fill="#000000" font-family="sans-serif" font-size="11" lengthAdjust="spacingAndGlyphs" textLength="118" x="420.3492" y="617.9268">printRowBoard(int): void</text><rect fill="#F24D5C" height="6" style="stroke: #C82930; stroke-width: 1.0;" width="6" x="408.3492" y="624.3438"/><text fill="#000000" font-family="sans-serif" font-size="11" lengthAdjust="spacingAndGlyphs" textLength="175" x="420.3492" y="631.7627">printSquareValueBoard(int, int): void</text><!--MD5=[0e5b47c419ba94b2bd3b06fa97d12493]
class tictactoe.views.console.ChoosePlayerView--><rect fill="#FEFECE" filter="url(#fb7tdjjy5yjh)" height="75.6719" id="tictactoe.views.console.ChoosePlayerView" style="stroke: #A80036; stroke-width: 1.5;" width="139" x="647.3492" y="541.5"/><ellipse cx="663.6992" cy="557.5" fill="#ADD1B2" rx="11" ry="11" style="stroke: #A80036; stroke-width: 1.0;"/><path d="M666.4648,553.375 Q666.6211,553.1563 666.8086,553.0469 Q666.9961,552.9375 667.2148,552.9375 Q667.5898,552.9375 667.8242,553.2031 Q668.0586,553.4531 668.0586,554.0625 L668.0586,555.5156 Q668.0586,556.125 667.8242,556.3906 Q667.5898,556.6563 667.2148,556.6563 Q666.8711,556.6563 666.668,556.4531 Q666.4648,556.2656 666.3555,555.75 Q666.3086,555.3906 666.1211,555.2031 Q665.793,554.8281 665.1836,554.6094 Q664.5742,554.3906 663.9492,554.3906 Q663.1836,554.3906 662.543,554.7188 Q661.918,555.0469 661.418,555.7969 Q660.9336,556.5469 660.9336,557.5781 L660.9336,558.6719 Q660.9336,559.9063 661.8242,560.7344 Q662.7148,561.5469 664.3086,561.5469 Q665.2461,561.5469 665.9023,561.2969 Q666.293,561.1406 666.7148,560.7031 Q666.9805,560.4375 667.1211,560.3594 Q667.2773,560.2813 667.4805,560.2813 Q667.8086,560.2813 668.0586,560.5469 Q668.3242,560.7969 668.3242,561.1406 Q668.3242,561.4844 667.9805,561.8906 Q667.4805,562.4688 666.6836,562.7969 Q665.6055,563.25 664.3086,563.25 Q662.793,563.25 661.5898,562.625 Q660.6055,562.125 659.918,561.0625 Q659.2305,559.9844 659.2305,558.7031 L659.2305,557.5469 Q659.2305,556.2188 659.8398,555.0781 Q660.4648,553.9219 661.5586,553.3125 Q662.6523,552.6875 663.8867,552.6875 Q664.6211,552.6875 665.2617,552.8594 Q665.918,553.0156 666.4648,553.375 Z "/><text fill="#000000" font-family="sans-serif" font-size="12" lengthAdjust="spacingAndGlyphs" textLength="104" x="677.9992" y="562.4102">ChoosePlayerView</text><line style="stroke: #A80036; stroke-width: 1.5;" x1="648.3492" x2="785.3492" y1="573.5" y2="573.5"/><line style="stroke: #A80036; stroke-width: 1.5;" x1="648.3492" x2="785.3492" y1="581.5" y2="581.5"/><polygon fill="#4177AF" points="658.3492,588.5,654.3492,594.5,662.3492,594.5" style="stroke: #1963A0; stroke-width: 1.0;"/><text fill="#000000" font-family="sans-serif" font-size="11" lengthAdjust="spacingAndGlyphs" textLength="92" x="667.3492" y="596.9189">readPlayers(): void</text><rect fill="#F24D5C" height="6" style="stroke: #C82930; stroke-width: 1.0;" width="6" x="655.3492" y="603.3359"/><text fill="#000000" font-family="sans-serif" font-size="11" lengthAdjust="spacingAndGlyphs" textLength="113" x="667.3492" y="610.7549">readUsersNumber(): int</text><!--MD5=[bde0c8ed193d8d2dbac1dee471354ab0]
class tictactoe.views.console.ConsoleView--><rect fill="#FEFECE" filter="url(#fb7tdjjy5yjh)" height="144.8516" id="tictactoe.views.console.ConsoleView" style="stroke: #A80036; stroke-width: 1.5;" width="141" x="88.3492" y="166"/><ellipse cx="119.5492" cy="182" fill="#ADD1B2" rx="11" ry="11" style="stroke: #A80036; stroke-width: 1.0;"/><path d="M122.3148,177.875 Q122.4711,177.6563 122.6586,177.5469 Q122.8461,177.4375 123.0648,177.4375 Q123.4398,177.4375 123.6742,177.7031 Q123.9086,177.9531 123.9086,178.5625 L123.9086,180.0156 Q123.9086,180.625 123.6742,180.8906 Q123.4398,181.1563 123.0648,181.1563 Q122.7211,181.1563 122.518,180.9531 Q122.3148,180.7656 122.2055,180.25 Q122.1586,179.8906 121.9711,179.7031 Q121.643,179.3281 121.0336,179.1094 Q120.4242,178.8906 119.7992,178.8906 Q119.0336,178.8906 118.393,179.2188 Q117.768,179.5469 117.268,180.2969 Q116.7836,181.0469 116.7836,182.0781 L116.7836,183.1719 Q116.7836,184.4063 117.6742,185.2344 Q118.5648,186.0469 120.1586,186.0469 Q121.0961,186.0469 121.7523,185.7969 Q122.143,185.6406 122.5648,185.2031 Q122.8305,184.9375 122.9711,184.8594 Q123.1273,184.7813 123.3305,184.7813 Q123.6586,184.7813 123.9086,185.0469 Q124.1742,185.2969 124.1742,185.6406 Q124.1742,185.9844 123.8305,186.3906 Q123.3305,186.9688 122.5336,187.2969 Q121.4555,187.75 120.1586,187.75 Q118.643,187.75 117.4398,187.125 Q116.4555,186.625 115.768,185.5625 Q115.0805,184.4844 115.0805,183.2031 L115.0805,182.0469 Q115.0805,180.7188 115.6898,179.5781 Q116.3148,178.4219 117.4086,177.8125 Q118.5023,177.1875 119.7367,177.1875 Q120.4711,177.1875 121.1117,177.3594 Q121.768,177.5156 122.3148,177.875 Z "/><text fill="#000000" font-family="sans-serif" font-size="12" lengthAdjust="spacingAndGlyphs" textLength="73" x="137.1492" y="186.9102">ConsoleView</text><line style="stroke: #A80036; stroke-width: 1.5;" x1="89.3492" x2="228.3492" y1="198" y2="198"/><rect fill="none" height="6" style="stroke: #C82930; stroke-width: 1.0;" width="6" x="96.3492" y="206"/><text fill="#000000" font-family="sans-serif" font-size="11" lengthAdjust="spacingAndGlyphs" textLength="103" x="108.3492" y="213.4189">startView: StartView</text><rect fill="none" height="6" style="stroke: #C82930; stroke-width: 1.0;" width="6" x="96.3492" y="219.8359"/><text fill="#000000" font-family="sans-serif" font-size="11" lengthAdjust="spacingAndGlyphs" textLength="98" x="108.3492" y="227.2549">playView: PlayView</text><rect fill="none" height="6" style="stroke: #C82930; stroke-width: 1.0;" width="6" x="96.3492" y="233.6719"/><text fill="#000000" font-family="sans-serif" font-size="11" lengthAdjust="spacingAndGlyphs" textLength="115" x="108.3492" y="241.0908">resultView: ResultView</text><line style="stroke: #A80036; stroke-width: 1.5;" x1="89.3492" x2="228.3492" y1="247.5078" y2="247.5078"/><ellipse cx="99.3492" cy="258.5078" fill="#84BE84" rx="3" ry="3" style="stroke: #038048; stroke-width: 1.0;"/><text fill="#000000" font-family="sans-serif" font-size="11" lengthAdjust="spacingAndGlyphs" textLength="99" x="108.3492" y="262.9268">ConsoleView(Logic)</text><polygon fill="#FFFF44" points="99.3492,267.3438,103.3492,271.3438,99.3492,275.3438,95.3492,271.3438" style="stroke: #B38D22; stroke-width: 1.0;"/><text fill="#000000" font-family="sans-serif" font-size="11" lengthAdjust="spacingAndGlyphs" textLength="56" x="108.3492" y="276.7627">start(): void</text><polygon fill="#FFFF44" points="99.3492,281.1797,103.3492,285.1797,99.3492,289.1797,95.3492,285.1797" style="stroke: #B38D22; stroke-width: 1.0;"/><text fill="#000000" font-family="sans-serif" font-size="11" lengthAdjust="spacingAndGlyphs" textLength="72" x="108.3492" y="290.5986">play(): boolean</text><polygon fill="#FFFF44" points="99.3492,295.0156,103.3492,299.0156,99.3492,303.0156,95.3492,299.0156" style="stroke: #B38D22; stroke-width: 1.0;"/><text fill="#000000" font-family="sans-serif" font-size="11" lengthAdjust="spacingAndGlyphs" textLength="61" x="108.3492" y="304.4346">result(): void</text><!--MD5=[54aa299435631381f3c0c028f26a058f]
class tictactoe.views.console.StartView--><rect fill="#FEFECE" filter="url(#fb7tdjjy5yjh)" height="89.5078" id="tictactoe.views.console.StartView" style="stroke: #A80036; stroke-width: 1.5;" width="109" x="369.3492" y="371"/><ellipse cx="396.0492" cy="387" fill="#ADD1B2" rx="11" ry="11" style="stroke: #A80036; stroke-width: 1.0;"/><path d="M398.8148,382.875 Q398.9711,382.6563 399.1586,382.5469 Q399.3461,382.4375 399.5648,382.4375 Q399.9398,382.4375 400.1742,382.7031 Q400.4086,382.9531 400.4086,383.5625 L400.4086,385.0156 Q400.4086,385.625 400.1742,385.8906 Q399.9398,386.1563 399.5648,386.1563 Q399.2211,386.1563 399.018,385.9531 Q398.8148,385.7656 398.7055,385.25 Q398.6586,384.8906 398.4711,384.7031 Q398.143,384.3281 397.5336,384.1094 Q396.9242,383.8906 396.2992,383.8906 Q395.5336,383.8906 394.893,384.2188 Q394.268,384.5469 393.768,385.2969 Q393.2836,386.0469 393.2836,387.0781 L393.2836,388.1719 Q393.2836,389.4063 394.1742,390.2344 Q395.0648,391.0469 396.6586,391.0469 Q397.5961,391.0469 398.2523,390.7969 Q398.643,390.6406 399.0648,390.2031 Q399.3305,389.9375 399.4711,389.8594 Q399.6273,389.7813 399.8305,389.7813 Q400.1586,389.7813 400.4086,390.0469 Q400.6742,390.2969 400.6742,390.6406 Q400.6742,390.9844 400.3305,391.3906 Q399.8305,391.9688 399.0336,392.2969 Q397.9555,392.75 396.6586,392.75 Q395.143,392.75 393.9398,392.125 Q392.9555,391.625 392.268,390.5625 Q391.5805,389.4844 391.5805,388.2031 L391.5805,387.0469 Q391.5805,385.7188 392.1898,384.5781 Q392.8148,383.4219 393.9086,382.8125 Q395.0023,382.1875 396.2367,382.1875 Q396.9711,382.1875 397.6117,382.3594 Q398.268,382.5156 398.8148,382.875 Z "/><text fill="#000000" font-family="sans-serif" font-size="12" lengthAdjust="spacingAndGlyphs" textLength="51" x="412.6492" y="391.9102">StartView</text><line style="stroke: #A80036; stroke-width: 1.5;" x1="370.3492" x2="477.3492" y1="403" y2="403"/><polygon fill="none" points="380.3492,410,376.3492,416,384.3492,416" style="stroke: #1963A0; stroke-width: 1.0;"/><text fill="#000000" font-family="sans-serif" font-size="11" lengthAdjust="spacingAndGlyphs" textLength="54" x="389.3492" y="418.4189">logic: Logic</text><line style="stroke: #A80036; stroke-width: 1.5;" x1="370.3492" x2="477.3492" y1="424.8359" y2="424.8359"/><polygon fill="#4177AF" points="380.3492,431.8359,376.3492,437.8359,384.3492,437.8359" style="stroke: #1963A0; stroke-width: 1.0;"/><text fill="#000000" font-family="sans-serif" font-size="11" lengthAdjust="spacingAndGlyphs" textLength="83" x="389.3492" y="440.2549">StartView(Logic)</text><polygon fill="#4177AF" points="380.3492,445.6719,376.3492,451.6719,384.3492,451.6719" style="stroke: #1963A0; stroke-width: 1.0;"/><text fill="#000000" font-family="sans-serif" font-size="11" lengthAdjust="spacingAndGlyphs" textLength="70" x="389.3492" y="454.0908">interact(): void</text><!--MD5=[0158df0baddf48f83142f472e341eacc]
class tictactoe.views.console.PlayView--><rect fill="#FEFECE" filter="url(#fb7tdjjy5yjh)" height="89.5078" id="tictactoe.views.console.PlayView" style="stroke: #A80036; stroke-width: 1.5;" width="114" x="68.8492" y="371"/><ellipse cx="98.6992" cy="387" fill="#ADD1B2" rx="11" ry="11" style="stroke: #A80036; stroke-width: 1.0;"/><path d="M101.4648,382.875 Q101.6211,382.6563 101.8086,382.5469 Q101.9961,382.4375 102.2148,382.4375 Q102.5898,382.4375 102.8242,382.7031 Q103.0586,382.9531 103.0586,383.5625 L103.0586,385.0156 Q103.0586,385.625 102.8242,385.8906 Q102.5898,386.1563 102.2148,386.1563 Q101.8711,386.1563 101.6679,385.9531 Q101.4648,385.7656 101.3554,385.25 Q101.3086,384.8906 101.1211,384.7031 Q100.7929,384.3281 100.1836,384.1094 Q99.5742,383.8906 98.9492,383.8906 Q98.1836,383.8906 97.5429,384.2188 Q96.9179,384.5469 96.4179,385.2969 Q95.9336,386.0469 95.9336,387.0781 L95.9336,388.1719 Q95.9336,389.4063 96.8242,390.2344 Q97.7148,391.0469 99.3086,391.0469 Q100.2461,391.0469 100.9023,390.7969 Q101.2929,390.6406 101.7148,390.2031 Q101.9804,389.9375 102.1211,389.8594 Q102.2773,389.7813 102.4804,389.7813 Q102.8086,389.7813 103.0586,390.0469 Q103.3242,390.2969 103.3242,390.6406 Q103.3242,390.9844 102.9804,391.3906 Q102.4804,391.9688 101.6836,392.2969 Q100.6054,392.75 99.3086,392.75 Q97.7929,392.75 96.5898,392.125 Q95.6054,391.625 94.9179,390.5625 Q94.2304,389.4844 94.2304,388.2031 L94.2304,387.0469 Q94.2304,385.7188 94.8398,384.5781 Q95.4648,383.4219 96.5586,382.8125 Q97.6523,382.1875 98.8867,382.1875 Q99.6211,382.1875 100.2617,382.3594 Q100.9179,382.5156 101.4648,382.875 Z "/><text fill="#000000" font-family="sans-serif" font-size="12" lengthAdjust="spacingAndGlyphs" textLength="49" x="115.9992" y="391.9102">PlayView</text><line style="stroke: #A80036; stroke-width: 1.5;" x1="69.8492" x2="181.8492" y1="403" y2="403"/><polygon fill="none" points="79.8492,410,75.8492,416,83.8492,416" style="stroke: #1963A0; stroke-width: 1.0;"/><text fill="#000000" font-family="sans-serif" font-size="11" lengthAdjust="spacingAndGlyphs" textLength="54" x="88.8492" y="418.4189">logic: Logic</text><line style="stroke: #A80036; stroke-width: 1.5;" x1="69.8492" x2="181.8492" y1="424.8359" y2="424.8359"/><polygon fill="#4177AF" points="79.8492,431.8359,75.8492,437.8359,83.8492,437.8359" style="stroke: #1963A0; stroke-width: 1.0;"/><text fill="#000000" font-family="sans-serif" font-size="11" lengthAdjust="spacingAndGlyphs" textLength="80" x="88.8492" y="440.2549">PlayView(Logic)</text><polygon fill="#4177AF" points="79.8492,445.6719,75.8492,451.6719,83.8492,451.6719" style="stroke: #1963A0; stroke-width: 1.0;"/><text fill="#000000" font-family="sans-serif" font-size="11" lengthAdjust="spacingAndGlyphs" textLength="88" x="88.8492" y="454.0908">interact(): boolean</text><!--MD5=[4ad8229f56e3458317cb6855b3145039]
class tictactoe.views.console.ResultView--><rect fill="#FEFECE" filter="url(#fb7tdjjy5yjh)" height="89.5078" id="tictactoe.views.console.ResultView" style="stroke: #A80036; stroke-width: 1.5;" width="116" x="217.8492" y="371"/><ellipse cx="242.7492" cy="387" fill="#ADD1B2" rx="11" ry="11" style="stroke: #A80036; stroke-width: 1.0;"/><path d="M245.5148,382.875 Q245.6711,382.6563 245.8586,382.5469 Q246.0461,382.4375 246.2648,382.4375 Q246.6398,382.4375 246.8742,382.7031 Q247.1086,382.9531 247.1086,383.5625 L247.1086,385.0156 Q247.1086,385.625 246.8742,385.8906 Q246.6398,386.1563 246.2648,386.1563 Q245.9211,386.1563 245.718,385.9531 Q245.5148,385.7656 245.4055,385.25 Q245.3586,384.8906 245.1711,384.7031 Q244.843,384.3281 244.2336,384.1094 Q243.6242,383.8906 242.9992,383.8906 Q242.2336,383.8906 241.593,384.2188 Q240.968,384.5469 240.468,385.2969 Q239.9836,386.0469 239.9836,387.0781 L239.9836,388.1719 Q239.9836,389.4063 240.8742,390.2344 Q241.7648,391.0469 243.3586,391.0469 Q244.2961,391.0469 244.9523,390.7969 Q245.343,390.6406 245.7648,390.2031 Q246.0305,389.9375 246.1711,389.8594 Q246.3273,389.7813 246.5305,389.7813 Q246.8586,389.7813 247.1086,390.0469 Q247.3742,390.2969 247.3742,390.6406 Q247.3742,390.9844 247.0305,391.3906 Q246.5305,391.9688 245.7336,392.2969 Q244.6555,392.75 243.3586,392.75 Q241.843,392.75 240.6398,392.125 Q239.6555,391.625 238.968,390.5625 Q238.2805,389.4844 238.2805,388.2031 L238.2805,387.0469 Q238.2805,385.7188 238.8898,384.5781 Q239.5148,383.4219 240.6086,382.8125 Q241.7023,382.1875 242.9367,382.1875 Q243.6711,382.1875 244.3117,382.3594 Q244.968,382.5156 245.5148,382.875 Z "/><text fill="#000000" font-family="sans-serif" font-size="12" lengthAdjust="spacingAndGlyphs" textLength="62" x="258.9492" y="391.9102">ResultView</text><line style="stroke: #A80036; stroke-width: 1.5;" x1="218.8492" x2="332.8492" y1="403" y2="403"/><polygon fill="none" points="228.8492,410,224.8492,416,232.8492,416" style="stroke: #1963A0; stroke-width: 1.0;"/><text fill="#000000" font-family="sans-serif" font-size="11" lengthAdjust="spacingAndGlyphs" textLength="54" x="237.8492" y="418.4189">logic: Logic</text><line style="stroke: #A80036; stroke-width: 1.5;" x1="218.8492" x2="332.8492" y1="424.8359" y2="424.8359"/><polygon fill="#4177AF" points="228.8492,431.8359,224.8492,437.8359,232.8492,437.8359" style="stroke: #1963A0; stroke-width: 1.0;"/><text fill="#000000" font-family="sans-serif" font-size="11" lengthAdjust="spacingAndGlyphs" textLength="90" x="237.8492" y="440.2549">ResultView(Logic)</text><polygon fill="#4177AF" points="228.8492,445.6719,224.8492,451.6719,232.8492,451.6719" style="stroke: #1963A0; stroke-width: 1.0;"/><text fill="#000000" font-family="sans-serif" font-size="11" lengthAdjust="spacingAndGlyphs" textLength="70" x="237.8492" y="454.0908">interact(): void</text><!--MD5=[8830b246a550294711e6eb5af1606829]
class tictactoe.views.console.CoordinateView--><rect fill="#FEFECE" filter="url(#fb7tdjjy5yjh)" height="61.8359" id="tictactoe.views.console.CoordinateView" style="stroke: #A80036; stroke-width: 1.5;" width="142" x="656.8492" y="385"/><ellipse cx="682.1992" cy="401" fill="#ADD1B2" rx="11" ry="11" style="stroke: #A80036; stroke-width: 1.0;"/><path d="M684.9648,396.875 Q685.1211,396.6563 685.3086,396.5469 Q685.4961,396.4375 685.7148,396.4375 Q686.0898,396.4375 686.3242,396.7031 Q686.5586,396.9531 686.5586,397.5625 L686.5586,399.0156 Q686.5586,399.625 686.3242,399.8906 Q686.0898,400.1563 685.7148,400.1563 Q685.3711,400.1563 685.168,399.9531 Q684.9648,399.7656 684.8555,399.25 Q684.8086,398.8906 684.6211,398.7031 Q684.293,398.3281 683.6836,398.1094 Q683.0742,397.8906 682.4492,397.8906 Q681.6836,397.8906 681.043,398.2188 Q680.418,398.5469 679.918,399.2969 Q679.4336,400.0469 679.4336,401.0781 L679.4336,402.1719 Q679.4336,403.4063 680.3242,404.2344 Q681.2148,405.0469 682.8086,405.0469 Q683.7461,405.0469 684.4023,404.7969 Q684.793,404.6406 685.2148,404.2031 Q685.4805,403.9375 685.6211,403.8594 Q685.7773,403.7813 685.9805,403.7813 Q686.3086,403.7813 686.5586,404.0469 Q686.8242,404.2969 686.8242,404.6406 Q686.8242,404.9844 686.4805,405.3906 Q685.9805,405.9688 685.1836,406.2969 Q684.1055,406.75 682.8086,406.75 Q681.293,406.75 680.0898,406.125 Q679.1055,405.625 678.418,404.5625 Q677.7305,403.4844 677.7305,402.2031 L677.7305,401.0469 Q677.7305,399.7188 678.3398,398.5781 Q678.9648,397.4219 680.0586,396.8125 Q681.1523,396.1875 682.3867,396.1875 Q683.1211,396.1875 683.7617,396.3594 Q684.418,396.5156 684.9648,396.875 Z "/><text fill="#000000" font-family="sans-serif" font-size="12" lengthAdjust="spacingAndGlyphs" textLength="87" x="698.4992" y="405.9102">CoordinateView</text><line style="stroke: #A80036; stroke-width: 1.5;" x1="657.8492" x2="797.8492" y1="417" y2="417"/><line style="stroke: #A80036; stroke-width: 1.5;" x1="657.8492" x2="797.8492" y1="425" y2="425"/><polygon fill="#4177AF" points="667.8492,432,663.8492,438,671.8492,438" style="stroke: #1963A0; stroke-width: 1.0;"/><text fill="#000000" font-family="sans-serif" font-size="11" lengthAdjust="spacingAndGlyphs" textLength="116" x="676.8492" y="440.4189">read(String): Coordinate</text><!--MD5=[1ca4e66fd27a79cb5d7093d90b3139a4]
class tictactoe.views.console.ErrorView--><rect fill="#FEFECE" filter="url(#fb7tdjjy5yjh)" height="75.6719" id="tictactoe.views.console.ErrorView" style="stroke: #A80036; stroke-width: 1.5;" width="108" x="513.8492" y="378"/><ellipse cx="539.1992" cy="394" fill="#ADD1B2" rx="11" ry="11" style="stroke: #A80036; stroke-width: 1.0;"/><path d="M541.9648,389.875 Q542.1211,389.6563 542.3086,389.5469 Q542.4961,389.4375 542.7148,389.4375 Q543.0898,389.4375 543.3242,389.7031 Q543.5586,389.9531 543.5586,390.5625 L543.5586,392.0156 Q543.5586,392.625 543.3242,392.8906 Q543.0898,393.1563 542.7148,393.1563 Q542.3711,393.1563 542.168,392.9531 Q541.9648,392.7656 541.8555,392.25 Q541.8086,391.8906 541.6211,391.7031 Q541.293,391.3281 540.6836,391.1094 Q540.0742,390.8906 539.4492,390.8906 Q538.6836,390.8906 538.043,391.2188 Q537.418,391.5469 536.918,392.2969 Q536.4336,393.0469 536.4336,394.0781 L536.4336,395.1719 Q536.4336,396.4063 537.3242,397.2344 Q538.2148,398.0469 539.8086,398.0469 Q540.7461,398.0469 541.4023,397.7969 Q541.793,397.6406 542.2148,397.2031 Q542.4805,396.9375 542.6211,396.8594 Q542.7773,396.7813 542.9805,396.7813 Q543.3086,396.7813 543.5586,397.0469 Q543.8242,397.2969 543.8242,397.6406 Q543.8242,397.9844 543.4805,398.3906 Q542.9805,398.9688 542.1836,399.2969 Q541.1055,399.75 539.8086,399.75 Q538.293,399.75 537.0898,399.125 Q536.1055,398.625 535.418,397.5625 Q534.7305,396.4844 534.7305,395.2031 L534.7305,394.0469 Q534.7305,392.7188 535.3398,391.5781 Q535.9648,390.4219 537.0586,389.8125 Q538.1523,389.1875 539.3867,389.1875 Q540.1211,389.1875 540.7617,389.3594 Q541.418,389.5156 541.9648,389.875 Z "/><text fill="#000000" font-family="sans-serif" font-size="12" lengthAdjust="spacingAndGlyphs" textLength="53" x="555.4992" y="398.9102">ErrorView</text><line style="stroke: #A80036; stroke-width: 1.5;" x1="514.8492" x2="620.8492" y1="410" y2="410"/><line style="stroke: #A80036; stroke-width: 1.5;" x1="514.8492" x2="620.8492" y1="418" y2="418"/><polygon fill="#4177AF" points="524.8492,425,520.8492,431,528.8492,431" style="stroke: #1963A0; stroke-width: 1.0;"/><text fill="#000000" font-family="sans-serif" font-size="11" lengthAdjust="spacingAndGlyphs" textLength="82" x="533.8492" y="433.4189">ErrorView(Error)</text><polygon fill="#4177AF" points="524.8492,438.8359,520.8492,444.8359,528.8492,444.8359" style="stroke: #1963A0; stroke-width: 1.0;"/><text fill="#000000" font-family="sans-serif" font-size="11" lengthAdjust="spacingAndGlyphs" textLength="67" x="533.8492" y="447.2549">writeln(): void</text><!--MD5=[4afe6aabb27d783e4a9a9dcc50c35fae]
class tictactoe.views.console.MachinePlayerView--><rect fill="#FEFECE" filter="url(#fb7tdjjy5yjh)" height="89.5078" id="tictactoe.views.console.MachinePlayerView" style="stroke: #A80036; stroke-width: 1.5;" width="216" x="264.8492" y="193.5"/><ellipse cx="315.5992" cy="209.5" fill="#ADD1B2" rx="11" ry="11" style="stroke: #A80036; stroke-width: 1.0;"/><path d="M318.3648,205.375 Q318.5211,205.1563 318.7086,205.0469 Q318.8961,204.9375 319.1148,204.9375 Q319.4898,204.9375 319.7242,205.2031 Q319.9586,205.4531 319.9586,206.0625 L319.9586,207.5156 Q319.9586,208.125 319.7242,208.3906 Q319.4898,208.6563 319.1148,208.6563 Q318.7711,208.6563 318.568,208.4531 Q318.3648,208.2656 318.2555,207.75 Q318.2086,207.3906 318.0211,207.2031 Q317.693,206.8281 317.0836,206.6094 Q316.4742,206.3906 315.8492,206.3906 Q315.0836,206.3906 314.443,206.7188 Q313.818,207.0469 313.318,207.7969 Q312.8336,208.5469 312.8336,209.5781 L312.8336,210.6719 Q312.8336,211.9063 313.7242,212.7344 Q314.6148,213.5469 316.2086,213.5469 Q317.1461,213.5469 317.8023,213.2969 Q318.193,213.1406 318.6148,212.7031 Q318.8805,212.4375 319.0211,212.3594 Q319.1773,212.2813 319.3805,212.2813 Q319.7086,212.2813 319.9586,212.5469 Q320.2242,212.7969 320.2242,213.1406 Q320.2242,213.4844 319.8805,213.8906 Q319.3805,214.4688 318.5836,214.7969 Q317.5055,215.25 316.2086,215.25 Q314.693,215.25 313.4898,214.625 Q312.5055,214.125 311.818,213.0625 Q311.1305,211.9844 311.1305,210.7031 L311.1305,209.5469 Q311.1305,208.2188 311.7398,207.0781 Q312.3648,205.9219 313.4586,205.3125 Q314.5523,204.6875 315.7867,204.6875 Q316.5211,204.6875 317.1617,204.8594 Q317.818,205.0156 318.3648,205.375 Z "/><text fill="#000000" font-family="sans-serif" font-size="12" lengthAdjust="spacingAndGlyphs" textLength="106" x="336.0992" y="214.4102">MachinePlayerView</text><line style="stroke: #A80036; stroke-width: 1.5;" x1="265.8492" x2="479.8492" y1="225.5" y2="225.5"/><line style="stroke: #A80036; stroke-width: 1.5;" x1="265.8492" x2="479.8492" y1="233.5" y2="233.5"/><polygon fill="#4177AF" points="275.8492,240.5,271.8492,246.5,279.8492,246.5" style="stroke: #1963A0; stroke-width: 1.0;"/><text fill="#000000" font-family="sans-serif" font-size="11" lengthAdjust="spacingAndGlyphs" textLength="134" x="284.8492" y="248.9189">MachinePlayerView(Player)</text><polygon fill="#4177AF" points="275.8492,254.3359,271.8492,260.3359,279.8492,260.3359" style="stroke: #1963A0; stroke-width: 1.0;"/><text fill="#000000" font-family="sans-serif" font-size="11" lengthAdjust="spacingAndGlyphs" textLength="167" x="284.8492" y="262.7549">readCoordinateToPut(): Coordinate</text><polygon fill="#4177AF" points="275.8492,268.1719,271.8492,274.1719,279.8492,274.1719" style="stroke: #1963A0; stroke-width: 1.0;"/><text fill="#000000" font-family="sans-serif" font-size="11" lengthAdjust="spacingAndGlyphs" textLength="190" x="284.8492" y="276.5908">readCoordinatesToMove(): Coordinate[]</text><!--MD5=[d4f4ae14a368e3fcfff527b6459d05f0]
class tictactoe.views.console.UserPlayerView--><rect fill="#FEFECE" filter="url(#fb7tdjjy5yjh)" height="117.1797" id="tictactoe.views.console.UserPlayerView" style="stroke: #A80036; stroke-width: 1.5;" width="233" x="516.3492" y="180"/><ellipse cx="585.0992" cy="196" fill="#ADD1B2" rx="11" ry="11" style="stroke: #A80036; stroke-width: 1.0;"/><path d="M587.8648,191.875 Q588.0211,191.6563 588.2086,191.5469 Q588.3961,191.4375 588.6148,191.4375 Q588.9898,191.4375 589.2242,191.7031 Q589.4586,191.9531 589.4586,192.5625 L589.4586,194.0156 Q589.4586,194.625 589.2242,194.8906 Q588.9898,195.1563 588.6148,195.1563 Q588.2711,195.1563 588.068,194.9531 Q587.8648,194.7656 587.7555,194.25 Q587.7086,193.8906 587.5211,193.7031 Q587.193,193.3281 586.5836,193.1094 Q585.9742,192.8906 585.3492,192.8906 Q584.5836,192.8906 583.943,193.2188 Q583.318,193.5469 582.818,194.2969 Q582.3336,195.0469 582.3336,196.0781 L582.3336,197.1719 Q582.3336,198.4063 583.2242,199.2344 Q584.1148,200.0469 585.7086,200.0469 Q586.6461,200.0469 587.3023,199.7969 Q587.693,199.6406 588.1148,199.2031 Q588.3805,198.9375 588.5211,198.8594 Q588.6773,198.7813 588.8805,198.7813 Q589.2086,198.7813 589.4586,199.0469 Q589.7242,199.2969 589.7242,199.6406 Q589.7242,199.9844 589.3805,200.3906 Q588.8805,200.9688 588.0836,201.2969 Q587.0055,201.75 585.7086,201.75 Q584.193,201.75 582.9898,201.125 Q582.0055,200.625 581.318,199.5625 Q580.6305,198.4844 580.6305,197.2031 L580.6305,196.0469 Q580.6305,194.7188 581.2398,193.5781 Q581.8648,192.4219 582.9586,191.8125 Q584.0523,191.1875 585.2867,191.1875 Q586.0211,191.1875 586.6617,191.3594 Q587.318,191.5156 587.8648,191.875 Z "/><text fill="#000000" font-family="sans-serif" font-size="12" lengthAdjust="spacingAndGlyphs" textLength="87" x="605.5992" y="200.9102">UserPlayerView</text><line style="stroke: #A80036; stroke-width: 1.5;" x1="517.3492" x2="748.3492" y1="212" y2="212"/><polygon fill="none" points="527.3492,219,523.3492,225,531.3492,225" style="stroke: #1963A0; stroke-width: 1.0;"/><text fill="#000000" font-family="sans-serif" font-size="11" lengthAdjust="spacingAndGlyphs" text-decoration="underline" textLength="183" x="536.3492" y="227.4189">ENTER_COORDINATE_TO_PUT: String</text><polygon fill="none" points="527.3492,232.8359,523.3492,238.8359,531.3492,238.8359" style="stroke: #1963A0; stroke-width: 1.0;"/><text fill="#000000" font-family="sans-serif" font-size="11" lengthAdjust="spacingAndGlyphs" text-decoration="underline" textLength="207" x="536.3492" y="241.2549">ENTER_COORDINATE_TO_REMOVE: String</text><line style="stroke: #A80036; stroke-width: 1.5;" x1="517.3492" x2="748.3492" y1="247.6719" y2="247.6719"/><polygon fill="#4177AF" points="527.3492,254.6719,523.3492,260.6719,531.3492,260.6719" style="stroke: #1963A0; stroke-width: 1.0;"/><text fill="#000000" font-family="sans-serif" font-size="11" lengthAdjust="spacingAndGlyphs" textLength="117" x="536.3492" y="263.0908">UserPlayerView(Player)</text><polygon fill="#4177AF" points="527.3492,268.5078,523.3492,274.5078,531.3492,274.5078" style="stroke: #1963A0; stroke-width: 1.0;"/><text fill="#000000" font-family="sans-serif" font-size="11" lengthAdjust="spacingAndGlyphs" textLength="167" x="536.3492" y="276.9268">readCoordinateToPut(): Coordinate</text><polygon fill="#4177AF" points="527.3492,282.3438,523.3492,288.3438,531.3492,288.3438" style="stroke: #1963A0; stroke-width: 1.0;"/><text fill="#000000" font-family="sans-serif" font-size="11" lengthAdjust="spacingAndGlyphs" textLength="190" x="536.3492" y="290.7627">readCoordinatesToMove(): Coordinate[]</text><!--MD5=[2dcb8e10b6e8b78f41f52f48677e1ea3]
class utils.WithConsoleView--><rect fill="#FEFECE" filter="url(#fb7tdjjy5yjh)" height="48" id="utils.WithConsoleView" style="stroke: #A80036; stroke-width: 1.5;" width="129" x="856.3492" y="214.5"/><ellipse cx="871.3492" cy="230.5" fill="#ADD1B2" rx="11" ry="11" style="stroke: #A80036; stroke-width: 1.0;"/><path d="M874.1148,226.375 Q874.2711,226.1563 874.4586,226.0469 Q874.6461,225.9375 874.8648,225.9375 Q875.2398,225.9375 875.4742,226.2031 Q875.7086,226.4531 875.7086,227.0625 L875.7086,228.5156 Q875.7086,229.125 875.4742,229.3906 Q875.2398,229.6563 874.8648,229.6563 Q874.5211,229.6563 874.318,229.4531 Q874.1148,229.2656 874.0055,228.75 Q873.9586,228.3906 873.7711,228.2031 Q873.443,227.8281 872.8336,227.6094 Q872.2242,227.3906 871.5992,227.3906 Q870.8336,227.3906 870.193,227.7188 Q869.568,228.0469 869.068,228.7969 Q868.5836,229.5469 868.5836,230.5781 L868.5836,231.6719 Q868.5836,232.9063 869.4742,233.7344 Q870.3648,234.5469 871.9586,234.5469 Q872.8961,234.5469 873.5523,234.2969 Q873.943,234.1406 874.3648,233.7031 Q874.6305,233.4375 874.7711,233.3594 Q874.9273,233.2813 875.1305,233.2813 Q875.4586,233.2813 875.7086,233.5469 Q875.9742,233.7969 875.9742,234.1406 Q875.9742,234.4844 875.6305,234.8906 Q875.1305,235.4688 874.3336,235.7969 Q873.2555,236.25 871.9586,236.25 Q870.443,236.25 869.2398,235.625 Q868.2555,235.125 867.568,234.0625 Q866.8805,232.9844 866.8805,231.7031 L866.8805,230.5469 Q866.8805,229.2188 867.4898,228.0781 Q868.1148,226.9219 869.2086,226.3125 Q870.3023,225.6875 871.5367,225.6875 Q872.2711,225.6875 872.9117,225.8594 Q873.568,226.0156 874.1148,226.375 Z "/><text fill="#000000" font-family="sans-serif" font-size="12" lengthAdjust="spacingAndGlyphs" textLength="97" x="885.3492" y="235.4102">WithConsoleView</text><line style="stroke: #A80036; stroke-width: 1.5;" x1="857.3492" x2="984.3492" y1="246.5" y2="246.5"/><line style="stroke: #A80036; stroke-width: 1.5;" x1="857.3492" x2="984.3492" y1="254.5" y2="254.5"/><!--MD5=[3b8962fd5847b9038b2e29740dae8054]
class tictactoe.controllers.Logic--><rect fill="#FEFECE" filter="url(#fb7tdjjy5yjh)" height="48" id="tictactoe.controllers.Logic" style="stroke: #A80036; stroke-width: 1.5;" width="62" x="279.8492" y="714"/><ellipse cx="294.8492" cy="730" fill="#ADD1B2" rx="11" ry="11" style="stroke: #A80036; stroke-width: 1.0;"/><path d="M297.6148,725.875 Q297.7711,725.6563 297.9586,725.5469 Q298.1461,725.4375 298.3648,725.4375 Q298.7398,725.4375 298.9742,725.7031 Q299.2086,725.9531 299.2086,726.5625 L299.2086,728.0156 Q299.2086,728.625 298.9742,728.8906 Q298.7398,729.1563 298.3648,729.1563 Q298.0211,729.1563 297.818,728.9531 Q297.6148,728.7656 297.5055,728.25 Q297.4586,727.8906 297.2711,727.7031 Q296.943,727.3281 296.3336,727.1094 Q295.7242,726.8906 295.0992,726.8906 Q294.3336,726.8906 293.693,727.2188 Q293.068,727.5469 292.568,728.2969 Q292.0836,729.0469 292.0836,730.0781 L292.0836,731.1719 Q292.0836,732.4063 292.9742,733.2344 Q293.8648,734.0469 295.4586,734.0469 Q296.3961,734.0469 297.0523,733.7969 Q297.443,733.6406 297.8648,733.2031 Q298.1305,732.9375 298.2711,732.8594 Q298.4273,732.7813 298.6305,732.7813 Q298.9586,732.7813 299.2086,733.0469 Q299.4742,733.2969 299.4742,733.6406 Q299.4742,733.9844 299.1305,734.3906 Q298.6305,734.9688 297.8336,735.2969 Q296.7555,735.75 295.4586,735.75 Q293.943,735.75 292.7398,735.125 Q291.7555,734.625 291.068,733.5625 Q290.3805,732.4844 290.3805,731.2031 L290.3805,730.0469 Q290.3805,728.7188 290.9898,727.5781 Q291.6148,726.4219 292.7086,725.8125 Q293.8023,725.1875 295.0367,725.1875 Q295.7711,725.1875 296.4117,725.3594 Q297.068,725.5156 297.6148,725.875 Z "/><text fill="#000000" font-family="sans-serif" font-size="12" lengthAdjust="spacingAndGlyphs" textLength="30" x="308.8492" y="734.9102">Logic</text><line style="stroke: #A80036; stroke-width: 1.5;" x1="280.8492" x2="340.8492" y1="746" y2="746"/><line style="stroke: #A80036; stroke-width: 1.5;" x1="280.8492" x2="340.8492" y1="754" y2="754"/><!--MD5=[015754420c4cdd9bacda884b3fa8c6ca]
class tictactoe.views.View--><rect fill="#FEFECE" filter="url(#fb7tdjjy5yjh)" height="48" id="tictactoe.views.View" style="stroke: #A80036; stroke-width: 1.5;" width="58" x="233.8492" y="42"/><ellipse cx="248.8492" cy="58" fill="#ADD1B2" rx="11" ry="11" style="stroke: #A80036; stroke-width: 1.0;"/><path d="M251.6148,53.875 Q251.7711,53.6563 251.9586,53.5469 Q252.1461,53.4375 252.3648,53.4375 Q252.7398,53.4375 252.9742,53.7031 Q253.2086,53.9531 253.2086,54.5625 L253.2086,56.0156 Q253.2086,56.625 252.9742,56.8906 Q252.7398,57.1563 252.3648,57.1563 Q252.0211,57.1563 251.818,56.9531 Q251.6148,56.7656 251.5055,56.25 Q251.4586,55.8906 251.2711,55.7031 Q250.943,55.3281 250.3336,55.1094 Q249.7242,54.8906 249.0992,54.8906 Q248.3336,54.8906 247.693,55.2188 Q247.068,55.5469 246.568,56.2969 Q246.0836,57.0469 246.0836,58.0781 L246.0836,59.1719 Q246.0836,60.4063 246.9742,61.2344 Q247.8648,62.0469 249.4586,62.0469 Q250.3961,62.0469 251.0523,61.7969 Q251.443,61.6406 251.8648,61.2031 Q252.1305,60.9375 252.2711,60.8594 Q252.4273,60.7813 252.6305,60.7813 Q252.9586,60.7813 253.2086,61.0469 Q253.4742,61.2969 253.4742,61.6406 Q253.4742,61.9844 253.1305,62.3906 Q252.6305,62.9688 251.8336,63.2969 Q250.7555,63.75 249.4586,63.75 Q247.943,63.75 246.7398,63.125 Q245.7555,62.625 245.068,61.5625 Q244.3805,60.4844 244.3805,59.2031 L244.3805,58.0469 Q244.3805,56.7188 244.9898,55.5781 Q245.6148,54.4219 246.7086,53.8125 Q247.8023,53.1875 249.0367,53.1875 Q249.7711,53.1875 250.4117,53.3594 Q251.068,53.5156 251.6148,53.875 Z "/><text fill="#000000" font-family="sans-serif" font-size="12" lengthAdjust="spacingAndGlyphs" textLength="26" x="262.8492" y="62.9102">View</text><line style="stroke: #A80036; stroke-width: 1.5;" x1="234.8492" x2="290.8492" y1="74" y2="74"/><line style="stroke: #A80036; stroke-width: 1.5;" x1="234.8492" x2="290.8492" y1="82" y2="82"/><!--MD5=[17799e03bfee0ccb3aa03b93da9c26d6]
class tictactoe.views.ErrorView--><rect fill="#FEFECE" filter="url(#fb7tdjjy5yjh)" height="48" id="tictactoe.views.ErrorView" style="stroke: #A80036; stroke-width: 1.5;" width="85" x="454.3492" y="42"/><ellipse cx="469.3492" cy="58" fill="#ADD1B2" rx="11" ry="11" style="stroke: #A80036; stroke-width: 1.0;"/><path d="M472.1148,53.875 Q472.2711,53.6563 472.4586,53.5469 Q472.6461,53.4375 472.8648,53.4375 Q473.2398,53.4375 473.4742,53.7031 Q473.7086,53.9531 473.7086,54.5625 L473.7086,56.0156 Q473.7086,56.625 473.4742,56.8906 Q473.2398,57.1563 472.8648,57.1563 Q472.5211,57.1563 472.318,56.9531 Q472.1148,56.7656 472.0055,56.25 Q471.9586,55.8906 471.7711,55.7031 Q471.443,55.3281 470.8336,55.1094 Q470.2242,54.8906 469.5992,54.8906 Q468.8336,54.8906 468.193,55.2188 Q467.568,55.5469 467.068,56.2969 Q466.5836,57.0469 466.5836,58.0781 L466.5836,59.1719 Q466.5836,60.4063 467.4742,61.2344 Q468.3648,62.0469 469.9586,62.0469 Q470.8961,62.0469 471.5523,61.7969 Q471.943,61.6406 472.3648,61.2031 Q472.6305,60.9375 472.7711,60.8594 Q472.9273,60.7813 473.1305,60.7813 Q473.4586,60.7813 473.7086,61.0469 Q473.9742,61.2969 473.9742,61.6406 Q473.9742,61.9844 473.6305,62.3906 Q473.1305,62.9688 472.3336,63.2969 Q471.2555,63.75 469.9586,63.75 Q468.443,63.75 467.2398,63.125 Q466.2555,62.625 465.568,61.5625 Q464.8805,60.4844 464.8805,59.2031 L464.8805,58.0469 Q464.8805,56.7188 465.4898,55.5781 Q466.1148,54.4219 467.2086,53.8125 Q468.3023,53.1875 469.5367,53.1875 Q470.2711,53.1875 470.9117,53.3594 Q471.568,53.5156 472.1148,53.875 Z "/><text fill="#000000" font-family="sans-serif" font-size="12" lengthAdjust="spacingAndGlyphs" textLength="53" x="483.3492" y="62.9102">ErrorView</text><line style="stroke: #A80036; stroke-width: 1.5;" x1="455.3492" x2="538.3492" y1="74" y2="74"/><line style="stroke: #A80036; stroke-width: 1.5;" x1="455.3492" x2="538.3492" y1="82" y2="82"/><!--MD5=[2ae15d20e7f22fd333327d3852982126]
class tictactoe.views.PlayerView--><rect fill="#FEFECE" filter="url(#fb7tdjjy5yjh)" height="48" id="tictactoe.views.PlayerView" style="stroke: #A80036; stroke-width: 1.5;" width="92" x="326.8492" y="42"/><ellipse cx="341.8492" cy="58" fill="#ADD1B2" rx="11" ry="11" style="stroke: #A80036; stroke-width: 1.0;"/><path d="M344.6148,53.875 Q344.7711,53.6563 344.9586,53.5469 Q345.1461,53.4375 345.3648,53.4375 Q345.7398,53.4375 345.9742,53.7031 Q346.2086,53.9531 346.2086,54.5625 L346.2086,56.0156 Q346.2086,56.625 345.9742,56.8906 Q345.7398,57.1563 345.3648,57.1563 Q345.0211,57.1563 344.818,56.9531 Q344.6148,56.7656 344.5055,56.25 Q344.4586,55.8906 344.2711,55.7031 Q343.943,55.3281 343.3336,55.1094 Q342.7242,54.8906 342.0992,54.8906 Q341.3336,54.8906 340.693,55.2188 Q340.068,55.5469 339.568,56.2969 Q339.0836,57.0469 339.0836,58.0781 L339.0836,59.1719 Q339.0836,60.4063 339.9742,61.2344 Q340.8648,62.0469 342.4586,62.0469 Q343.3961,62.0469 344.0523,61.7969 Q344.443,61.6406 344.8648,61.2031 Q345.1305,60.9375 345.2711,60.8594 Q345.4273,60.7813 345.6305,60.7813 Q345.9586,60.7813 346.2086,61.0469 Q346.4742,61.2969 346.4742,61.6406 Q346.4742,61.9844 346.1305,62.3906 Q345.6305,62.9688 344.8336,63.2969 Q343.7555,63.75 342.4586,63.75 Q340.943,63.75 339.7398,63.125 Q338.7555,62.625 338.068,61.5625 Q337.3805,60.4844 337.3805,59.2031 L337.3805,58.0469 Q337.3805,56.7188 337.9898,55.5781 Q338.6148,54.4219 339.7086,53.8125 Q340.8023,53.1875 342.0367,53.1875 Q342.7711,53.1875 343.4117,53.3594 Q344.068,53.5156 344.6148,53.875 Z "/><text fill="#000000" font-family="sans-serif" font-size="12" lengthAdjust="spacingAndGlyphs" textLength="60" x="355.8492" y="62.9102">PlayerView</text><line style="stroke: #A80036; stroke-width: 1.5;" x1="327.8492" x2="417.8492" y1="74" y2="74"/><line style="stroke: #A80036; stroke-width: 1.5;" x1="327.8492" x2="417.8492" y1="82" y2="82"/><!--MD5=[4fe29ebdeb3371b5754843c99b0088e8]
reverse link utils.WithConsoleView to tictactoe.views.console.BoardView--><path d="M905.5212,281.582 C884.0192,338.557 844.3422,436.005 815.8492,461 C750.5512,518.281 710.9672,489.94 629.8492,521 C620.5752,524.551 611.0072,528.417 601.4692,532.411 " fill="none" id="utils.WithConsoleView&lt;-tictactoe.views.console.BoardView" style="stroke: #A80036; stroke-width: 1.0;"/><polygon fill="none" points="899.0362,278.939,912.5672,262.632,912.1582,283.817,899.0362,278.939" style="stroke: #A80036; stroke-width: 1.0;"/><!--MD5=[46216399e4f9f858dff5e5cad7260cf9]
link tictactoe.views.console.BoardView to tictactoe.controllers.Logic--><path d="M430.9092,638.108 C400.9022,662.825 367.3022,690.5 343.2962,710.2742 " fill="none" id="tictactoe.views.console.BoardView-&gt;tictactoe.controllers.Logic" style="stroke: #A80036; stroke-width: 1.0; stroke-dasharray: 7.0,7.0;"/><polygon fill="#A80036" points="339.2282,713.6245,348.7183,710.9905,343.0877,710.4458,343.6324,704.8153,339.2282,713.6245" style="stroke: #A80036; stroke-width: 1.0;"/><!--MD5=[1b1ec1db639c24163e1745874c80bdf8]
reverse link utils.WithConsoleView to tictactoe.views.console.ChoosePlayerView--><path d="M921.5592,282.613 C920.3862,329.906 912.5792,406.341 877.8492,461 C855.6722,495.902 819.1182,523.823 786.4412,543.675 " fill="none" id="utils.WithConsoleView&lt;-tictactoe.views.console.ChoosePlayerView" style="stroke: #A80036; stroke-width: 1.0;"/><polygon fill="none" points="914.5592,282.491,921.6972,262.539,928.5592,282.587,914.5592,282.491" style="stroke: #A80036; stroke-width: 1.0;"/><!--MD5=[d1f1f21fa3eb12d639631512d925e9a6]
reverse link tictactoe.views.View to tictactoe.views.console.ConsoleView--><path d="M238.0362,107.68 C227.4142,125.093 214.6872,145.959 202.5742,165.816 " fill="none" id="tictactoe.views.View&lt;-tictactoe.views.console.ConsoleView" style="stroke: #A80036; stroke-width: 1.0;"/><polygon fill="none" points="232.2152,103.779,248.6062,90.35,244.1672,111.069,232.2152,103.779" style="stroke: #A80036; stroke-width: 1.0;"/><!--MD5=[9113815f8bbc012213d6467f94b3dc5b]
link tictactoe.views.console.ConsoleView to tictactoe.views.console.StartView--><path d="M239.3544,305.7162 C239.3544,305.7162 244.6322,309.474 246.8492,311 C290.8072,341.254 304.8842,343.892 350.8492,371 C353.1892,372.38 355.5692,373.789 357.9712,375.214 " fill="none" id="tictactoe.views.console.ConsoleView-tictactoe.views.console.StartView" style="stroke: #A80036; stroke-width: 1.0;"/><polygon fill="#A80036" points="369.3062,381.969,363.6231,373.9252,365.0112,379.4091,359.5273,380.7973,369.3062,381.969" style="stroke: #A80036; stroke-width: 1.0;"/><line style="stroke: #A80036; stroke-width: 1.0;" x1="365.0112" x2="358.1387" y1="379.4091" y2="375.3145"/><polygon fill="#A80036" points="229.6752,298.623,232.1504,305.396,239.3544,305.7162,236.8792,298.9432,229.6752,298.623" style="stroke: #A80036; stroke-width: 1.0;"/><!--MD5=[1735144fa38f1aa47117a26d071db586]
link tictactoe.views.console.ConsoleView to tictactoe.views.console.PlayView--><path d="M143.1611,322.9292 C143.1611,322.9292 138.6192,347.085 136.5794,357.935 " fill="none" id="tictactoe.views.console.ConsoleView-tictactoe.views.console.PlayView" style="stroke: #A80036; stroke-width: 1.0;"/><polygon fill="#A80036" points="134.1676,370.761,139.7623,362.6555,135.0918,365.8472,131.9001,361.1767,134.1676,370.761" style="stroke: #A80036; stroke-width: 1.0;"/><line style="stroke: #A80036; stroke-width: 1.0;" x1="135.0918" x2="136.5698" y1="365.8472" y2="357.985"/><polygon fill="#A80036" points="145.3792,311.136,140.3391,316.2933,143.1611,322.9292,148.2012,317.772,145.3792,311.136" style="stroke: #A80036; stroke-width: 1.0;"/><!--MD5=[44d2792f564883fbc9918566bab83309]
link tictactoe.views.console.ConsoleView to tictactoe.views.console.ResultView--><path d="M213.2626,321.1206 C213.2626,321.1206 230.9812,347.698 238.9402,359.636 " fill="none" id="tictactoe.views.console.ConsoleView-tictactoe.views.console.ResultView" style="stroke: #A80036; stroke-width: 1.0;"/><polygon fill="#A80036" points="246.3572,370.761,244.6925,361.0538,243.5834,366.6009,238.0364,365.4919,246.3572,370.761" style="stroke: #A80036; stroke-width: 1.0;"/><line style="stroke: #A80036; stroke-width: 1.0;" x1="243.5834" x2="239.1457" y1="366.6009" y2="359.945"/><polygon fill="#A80036" points="206.6062,311.136,206.6062,318.3471,213.2626,321.1206,213.2626,313.9095,206.6062,311.136" style="stroke: #A80036; stroke-width: 1.0;"/><!--MD5=[d983ff7a7ecf259bcdad60485d19cf95]
reverse link utils.WithConsoleView to tictactoe.views.console.CoordinateView--><path d="M880.1402,276.517 C844.7232,308.723 794.0332,354.817 761.0312,384.827 " fill="none" id="utils.WithConsoleView&lt;-tictactoe.views.console.CoordinateView" style="stroke: #A80036; stroke-width: 1.0;"/><polygon fill="none" points="875.7142,271.081,895.2202,262.805,885.1322,281.439,875.7142,271.081" style="stroke: #A80036; stroke-width: 1.0;"/><!--MD5=[521be967e4e828bbb4868581b766b1da]
reverse link tictactoe.views.ErrorView to tictactoe.views.console.ErrorView--><path d="M559.8632,70.853 C631.3082,76.69 741.2202,90.623 766.8492,122 C819.9882,187.055 811.9112,240.11 766.8492,311 C733.1442,364.023 694.0902,341.068 638.8492,371 C633.3662,373.971 627.7232,377.185 622.1262,380.477 " fill="none" id="tictactoe.views.ErrorView&lt;-tictactoe.views.console.ErrorView" style="stroke: #A80036; stroke-width: 1.0;"/><polygon fill="none" points="558.9232,77.802,539.5042,69.321,559.9732,63.841,558.9232,77.802" style="stroke: #A80036; stroke-width: 1.0;"/><!--MD5=[f807ad8458e0e3d6ca100de41032e69a]
reverse link tictactoe.views.PlayerView to tictactoe.views.console.MachinePlayerView--><path d="M372.8492,110.657 C372.8492,136.045 372.8492,167.952 372.8492,193.414 " fill="none" id="tictactoe.views.PlayerView&lt;-tictactoe.views.console.MachinePlayerView" style="stroke: #A80036; stroke-width: 1.0;"/><polygon fill="none" points="365.8492,110.35,372.8492,90.35,379.8492,110.35,365.8492,110.35" style="stroke: #A80036; stroke-width: 1.0;"/><!--MD5=[9623adb787708e117decab727ca41eb7]
link tictactoe.views.console.PlayView to tictactoe.views.console.BoardView--><path d="M183.1112,452.285 C188.7022,455.354 194.3422,458.311 199.8492,461 C263.0962,491.888 336.6532,520.725 395.2192,542.1 " fill="none" id="tictactoe.views.console.PlayView-&gt;tictactoe.views.console.BoardView" style="stroke: #A80036; stroke-width: 1.0; stroke-dasharray: 7.0,7.0;"/><polygon fill="#A80036" points="400.1232,543.885,393.0339,537.0482,395.4247,542.175,390.2979,544.5658,400.1232,543.885" style="stroke: #A80036; stroke-width: 1.0;"/><!--MD5=[c652744ae97b12ae96764b7849bbed7e]
link tictactoe.views.console.PlayView to tictactoe.views.PlayerView--><path d="M97.2185,370.836 C59.7384,306.947 6,189.066 70.8492,122 C80.0455,112.489 296.3482,118.331 308.8492,114 C321.7282,109.538 334.2062,101.511 344.6712,93.34 " fill="none" id="tictactoe.views.console.PlayView-&gt;tictactoe.views.PlayerView" style="stroke: #A80036; stroke-width: 1.0; stroke-dasharray: 7.0,7.0;"/><polygon fill="#A80036" points="348.7282,90.086,339.205,92.5975,344.828,93.2147,344.2109,98.8378,348.7282,90.086" style="stroke: #A80036; stroke-width: 1.0;"/><!--MD5=[c8a90a2b65a3861994a50ca43a93eb42]
link tictactoe.views.console.PlayView to tictactoe.controllers.Logic--><path d="M151.3782,461.159 C190.1362,528.198 262.7022,653.719 294.8352,709.2995 " fill="none" id="tictactoe.views.console.PlayView-&gt;tictactoe.controllers.Logic" style="stroke: #A80036; stroke-width: 1.0; stroke-dasharray: 7.0,7.0;"/><polygon fill="#A80036" points="297.4472,713.8184,296.4054,704.0248,294.9446,709.4898,289.4796,708.029,297.4472,713.8184" style="stroke: #A80036; stroke-width: 1.0;"/><!--MD5=[21c61c4413df6bb2bed2f6b18eeadacf]
link tictactoe.views.console.ResultView to tictactoe.controllers.Logic--><path d="M280.6792,461.159 C287.9822,527.929 301.6302,652.712 307.7462,708.6265 " fill="none" id="tictactoe.views.console.ResultView-&gt;tictactoe.controllers.Logic" style="stroke: #A80036; stroke-width: 1.0; stroke-dasharray: 7.0,7.0;"/><polygon fill="#A80036" points="308.3142,713.8184,311.3117,704.4368,307.7704,708.8481,303.3592,705.3068,308.3142,713.8184" style="stroke: #A80036; stroke-width: 1.0;"/><!--MD5=[dfa315847ca75b86a537546c793c8626]
link tictactoe.views.console.StartView to tictactoe.views.console.ChoosePlayerView--><path d="M478.5692,451.176 C484.3592,454.571 490.1962,457.903 495.8492,461 C549.1922,490.224 565.2462,492.255 618.8492,521 C629.2692,526.588 640.1812,532.711 650.7852,538.812 " fill="none" id="tictactoe.views.console.StartView-&gt;tictactoe.views.console.ChoosePlayerView" style="stroke: #A80036; stroke-width: 1.0; stroke-dasharray: 7.0,7.0;"/><polygon fill="#A80036" points="655.3082,541.424,649.5141,533.4598,650.9781,538.9239,645.514,540.388,655.3082,541.424" style="stroke: #A80036; stroke-width: 1.0;"/><!--MD5=[ff58a14b78596881a931b802b8db76be]
link tictactoe.views.console.StartView to tictactoe.controllers.Logic--><path d="M405.8652,461.081 C398.5032,479.513 390.0432,501.209 382.8492,521 C358.5192,587.936 332.7712,667.647 319.6532,708.994 " fill="none" id="tictactoe.views.console.StartView-&gt;tictactoe.controllers.Logic" style="stroke: #A80036; stroke-width: 1.0; stroke-dasharray: 7.0,7.0;"/><polygon fill="#A80036" points="318.1172,713.8427,324.6492,706.4716,319.6277,709.0763,317.023,704.0548,318.1172,713.8427" style="stroke: #A80036; stroke-width: 1.0;"/><!--MD5=[e665259f0705ebc0d9068c66ae844f61]
reverse link tictactoe.views.PlayerView to tictactoe.views.console.UserPlayerView--><path d="M414.5922,102.135 C421.6792,106.753 429.2242,110.937 436.8492,114 C462.2222,124.191 472.8722,110.874 497.8492,122 C528.2792,135.555 557.0612,158.229 580.1692,179.916 " fill="none" id="tictactoe.views.PlayerView&lt;-tictactoe.views.console.UserPlayerView" style="stroke: #A80036; stroke-width: 1.0;"/><polygon fill="none" points="410.1822,107.582,398.1292,90.154,418.4192,96.263,410.1822,107.582" style="stroke: #A80036; stroke-width: 1.0;"/><!--MD5=[d08a44d06940417b04e1f442f789385d]
link tictactoe.views.console.UserPlayerView to tictactoe.views.console.ErrorView--><path d="M611.3852,297.452 C602.2372,322.153 591.7642,350.429 583.3832,373.057 " fill="none" id="tictactoe.views.console.UserPlayerView-&gt;tictactoe.views.console.ErrorView" style="stroke: #A80036; stroke-width: 1.0; stroke-dasharray: 7.0,7.0;"/><polygon fill="#A80036" points="581.6282,377.797,588.5059,370.7473,583.3653,373.1085,581.0042,367.9679,581.6282,377.797" style="stroke: #A80036; stroke-width: 1.0;"/><!--MD5=[93525d2da9d792717dcb2150911bbe9e]
link tictactoe.views.console.UserPlayerView to tictactoe.views.console.CoordinateView--><path d="M664.2192,297.452 C679.0142,324.783 696.1782,356.492 708.9482,380.084 " fill="none" id="tictactoe.views.console.UserPlayerView-&gt;tictactoe.views.console.CoordinateView" style="stroke: #A80036; stroke-width: 1.0; stroke-dasharray: 7.0,7.0;"/><polygon fill="#A80036" points="711.4422,384.69,710.6759,374.871,709.0622,380.2928,703.6404,378.6791,711.4422,384.69" style="stroke: #A80036; stroke-width: 1.0;"/><!--MD5=[40959e654b1262b98490d0a85ad8a768]
@startuml

class  tictactoe.views.console.BoardView{
- logic: Logic
~ BoardView(Logic)
~ write(): void
- printRowBoard(int): void
- printSquareValueBoard(int, int): void
}
utils.WithConsoleView <|-down- tictactoe.views.console.BoardView
tictactoe.views.console.BoardView ..> tictactoe.controllers.Logic

class  tictactoe.views.console.ChoosePlayerView{
~ readPlayers(): void
- readUsersNumber(): int
}
utils.WithConsoleView <|-down- tictactoe.views.console.ChoosePlayerView

class  tictactoe.views.console.ConsoleView{
- startView: StartView
- playView: PlayView
- resultView: ResultView
+ ConsoleView(Logic)
# start(): void
# play(): boolean
# result(): void
}
tictactoe.views.View <|-down- tictactoe.views.console.ConsoleView
tictactoe.views.console.ConsoleView *-down-> tictactoe.views.console.StartView
tictactoe.views.console.ConsoleView *-down-> tictactoe.views.console.PlayView
tictactoe.views.console.ConsoleView *-down-> tictactoe.views.console.ResultView

class  tictactoe.views.console.CoordinateView{
~ read(String): Coordinate
}
utils.WithConsoleView <|-down- tictactoe.views.console.CoordinateView

class  tictactoe.views.console.ErrorView{
~ ErrorView(Error)
~ writeln(): void
}
tictactoe.views.ErrorView <|-down- tictactoe.views.console.ErrorView

class  tictactoe.views.console.MachinePlayerView{
~ MachinePlayerView(Player)
~ readCoordinateToPut(): Coordinate
~ readCoordinatesToMove(): Coordinate[]
}
tictactoe.views.PlayerView <|-down- tictactoe.views.console.MachinePlayerView

class  tictactoe.views.console.PlayView{
~ logic: Logic
~ PlayView(Logic)
~ interact(): boolean
}
tictactoe.views.console.PlayView ..> tictactoe.views.console.BoardView
tictactoe.views.console.PlayView ..> tictactoe.views.PlayerView
tictactoe.views.console.PlayView ..> tictactoe.controllers.Logic

class tictactoe.views.console.ResultView{
~ logic: Logic
~ ResultView(Logic)
~ interact(): void
}
tictactoe.views.console.ResultView..> tictactoe.controllers.Logic

class tictactoe.views.console.StartView{
~ logic: Logic
~ StartView(Logic)
~ interact(): void
}
tictactoe.views.console.StartView ..> tictactoe.views.console.ChoosePlayerView
tictactoe.views.console.StartView ..> tictactoe.controllers.Logic

class  tictactoe.views.console.UserPlayerView{
~ {static} ENTER_COORDINATE_TO_PUT: String
~ {static} ENTER_COORDINATE_TO_REMOVE: String
~ UserPlayerView(Player)
~ readCoordinateToPut(): Coordinate
~ readCoordinatesToMove(): Coordinate[]
}
tictactoe.views.PlayerView <|-down- tictactoe.views.console.UserPlayerView
tictactoe.views.console.UserPlayerView ..> tictactoe.views.console.ErrorView
tictactoe.views.console.UserPlayerView ..> tictactoe.views.console.CoordinateView

@enduml

PlantUML version 1.2020.15(Sun Jun 28 13:39:45 CEST 2020)
(GPL source distribution)
Java Runtime: Java(TM) SE Runtime Environment
JVM: Java HotSpot(TM) 64-Bit Server VM
Default Encoding: windows-1252
Language: es
Country: ES
--></g></svg>