<?xml version="1.0" encoding="UTF-8" standalone="no"?><svg xmlns="http://www.w3.org/2000/svg" xmlns:xlink="http://www.w3.org/1999/xlink" contentScriptType="application/ecmascript" contentStyleType="text/css" height="1436px" preserveAspectRatio="none" style="width:1063px;height:1436px;" version="1.1" viewBox="0 0 1063 1436" width="1063px" zoomAndPan="magnify"><defs><filter height="300%" id="f1xuvrl8tt5xbf" width="300%" x="-1" y="-1"><feGaussianBlur result="blurOut" stdDeviation="2.0"/><feColorMatrix in="blurOut" result="blurOut2" type="matrix" values="0 0 0 0 0 0 0 0 0 0 0 0 0 0 0 0 0 0 .4 0"/><feOffset dx="4.0" dy="4.0" in="blurOut2" result="blurOut3"/><feBlend in="SourceGraphic" in2="blurOut3" mode="normal"/></filter></defs><g><!--MD5=[51cd642fcc96b47682a93d9084d46dec]
cluster tictactoe.models--><polygon fill="#FFFFFF" filter="url(#f1xuvrl8tt5xbf)" points="282,6,404,6,411,29.6094,697,29.6094,697,1300,282,1300,282,6" style="stroke: #000000; stroke-width: 1.5;"/><line style="stroke: #000000; stroke-width: 1.5;" x1="282" x2="411" y1="29.6094" y2="29.6094"/><text fill="#000000" font-family="sans-serif" font-size="14" font-weight="bold" lengthAdjust="spacingAndGlyphs" textLength="116" x="286" y="22.5332">tictactoe.models</text><!--MD5=[2d083dca3cab6023baf6a9cac5f9557f]
cluster tictactoe.types--><polygon fill="#FFFFFF" filter="url(#f1xuvrl8tt5xbf)" points="721,1144.5,830,1144.5,837,1168.1094,1041,1168.1094,1041,1244.5,721,1244.5,721,1144.5" style="stroke: #000000; stroke-width: 1.5;"/><line style="stroke: #000000; stroke-width: 1.5;" x1="721" x2="837" y1="1168.1094" y2="1168.1094"/><text fill="#000000" font-family="sans-serif" font-size="14" font-weight="bold" lengthAdjust="spacingAndGlyphs" textLength="103" x="725" y="1161.0332">tictactoe.types</text><!--MD5=[c52f45833d539af9e29a9d34b8b7302b]
cluster utils--><polygon fill="#FFFFFF" filter="url(#f1xuvrl8tt5xbf)" points="16,905,52,905,59,928.6094,258,928.6094,258,1005,16,1005,16,905" style="stroke: #000000; stroke-width: 1.5;"/><line style="stroke: #000000; stroke-width: 1.5;" x1="16" x2="59" y1="928.6094" y2="928.6094"/><text fill="#000000" font-family="sans-serif" font-size="14" font-weight="bold" lengthAdjust="spacingAndGlyphs" textLength="30" x="20" y="921.5332">utils</text><!--MD5=[7db3c59d38ae5b37b484eb2df9368145]
cluster java.util--><polygon fill="#FFFFFF" filter="url(#f1xuvrl8tt5xbf)" points="338,1324,399,1324,406,1347.6094,450,1347.6094,450,1424,338,1424,338,1324" style="stroke: #000000; stroke-width: 1.5;"/><line style="stroke: #000000; stroke-width: 1.5;" x1="338" x2="406" y1="1347.6094" y2="1347.6094"/><text fill="#000000" font-family="sans-serif" font-size="14" font-weight="bold" lengthAdjust="spacingAndGlyphs" textLength="55" x="342" y="1340.5332">java.util</text><!--MD5=[f2254b5fdbf93effa50eb20dc057829b]
class tictactoe.models.Board--><rect fill="#FEFECE" filter="url(#f1xuvrl8tt5xbf)" height="255.5391" id="tictactoe.models.Board" style="stroke: #A80036; stroke-width: 1.5;" width="298" x="298" y="330"/><ellipse cx="426.25" cy="346" fill="#ADD1B2" rx="11" ry="11" style="stroke: #A80036; stroke-width: 1.0;"/><path d="M429.0156,341.875 Q429.1719,341.6563 429.3594,341.5469 Q429.5469,341.4375 429.7656,341.4375 Q430.1406,341.4375 430.375,341.7031 Q430.6094,341.9531 430.6094,342.5625 L430.6094,344.0156 Q430.6094,344.625 430.375,344.8906 Q430.1406,345.1563 429.7656,345.1563 Q429.4219,345.1563 429.2188,344.9531 Q429.0156,344.7656 428.9063,344.25 Q428.8594,343.8906 428.6719,343.7031 Q428.3438,343.3281 427.7344,343.1094 Q427.125,342.8906 426.5,342.8906 Q425.7344,342.8906 425.0938,343.2188 Q424.4688,343.5469 423.9688,344.2969 Q423.4844,345.0469 423.4844,346.0781 L423.4844,347.1719 Q423.4844,348.4063 424.375,349.2344 Q425.2656,350.0469 426.8594,350.0469 Q427.7969,350.0469 428.4531,349.7969 Q428.8438,349.6406 429.2656,349.2031 Q429.5313,348.9375 429.6719,348.8594 Q429.8281,348.7813 430.0313,348.7813 Q430.3594,348.7813 430.6094,349.0469 Q430.875,349.2969 430.875,349.6406 Q430.875,349.9844 430.5313,350.3906 Q430.0313,350.9688 429.2344,351.2969 Q428.1563,351.75 426.8594,351.75 Q425.3438,351.75 424.1406,351.125 Q423.1563,350.625 422.4688,349.5625 Q421.7813,348.4844 421.7813,347.2031 L421.7813,346.0469 Q421.7813,344.7188 422.3906,343.5781 Q423.0156,342.4219 424.1094,341.8125 Q425.2031,341.1875 426.4375,341.1875 Q427.1719,341.1875 427.8125,341.3594 Q428.4688,341.5156 429.0156,341.875 Z "/><text fill="#000000" font-family="sans-serif" font-size="12" lengthAdjust="spacingAndGlyphs" textLength="33" x="446.75" y="350.9102">Board</text><line style="stroke: #A80036; stroke-width: 1.5;" x1="299" x2="595" y1="362" y2="362"/><ellipse cx="309" cy="373" fill="none" rx="3" ry="3" style="stroke: #038048; stroke-width: 1.0;"/><text fill="#000000" font-family="sans-serif" font-size="11" lengthAdjust="spacingAndGlyphs" text-decoration="underline" textLength="62" x="318" y="377.4189">EMPTY: char</text><rect fill="none" height="6" style="stroke: #C82930; stroke-width: 1.0;" width="6" x="306" y="383.8359"/><text fill="#000000" font-family="sans-serif" font-size="11" lengthAdjust="spacingAndGlyphs" textLength="127" x="318" y="391.2549">coordinates: Coordinate[][]</text><line style="stroke: #A80036; stroke-width: 1.5;" x1="299" x2="595" y1="397.6719" y2="397.6719"/><ellipse cx="309" cy="408.6719" fill="#84BE84" rx="3" ry="3" style="stroke: #038048; stroke-width: 1.0;"/><text fill="#000000" font-family="sans-serif" font-size="11" lengthAdjust="spacingAndGlyphs" textLength="37" x="318" y="413.0908">Board()</text><ellipse cx="309" cy="422.5078" fill="#84BE84" rx="3" ry="3" style="stroke: #038048; stroke-width: 1.0;"/><text fill="#000000" font-family="sans-serif" font-size="11" lengthAdjust="spacingAndGlyphs" textLength="139" x="318" y="426.9268">getToken(Coordinate): Token</text><polygon fill="#4177AF" points="309,432.3438,305,438.3438,313,438.3438" style="stroke: #1963A0; stroke-width: 1.0;"/><text fill="#000000" font-family="sans-serif" font-size="11" lengthAdjust="spacingAndGlyphs" textLength="170" x="318" y="440.7627">move(Coordinate, Coordinate): void</text><polygon fill="#4177AF" points="309,446.1797,305,452.1797,313,452.1797" style="stroke: #1963A0; stroke-width: 1.0;"/><text fill="#000000" font-family="sans-serif" font-size="11" lengthAdjust="spacingAndGlyphs" textLength="136" x="318" y="454.5986">put(Coordinate, Token): void</text><rect fill="#F24D5C" height="6" style="stroke: #C82930; stroke-width: 1.0;" width="6" x="306" y="461.0156"/><text fill="#000000" font-family="sans-serif" font-size="11" lengthAdjust="spacingAndGlyphs" textLength="122" x="318" y="468.4346">remove(Coordinate): void</text><polygon fill="#4177AF" points="309,473.8516,305,479.8516,313,479.8516" style="stroke: #1963A0; stroke-width: 1.0;"/><text fill="#000000" font-family="sans-serif" font-size="11" lengthAdjust="spacingAndGlyphs" textLength="139" x="318" y="482.2705">isTicTacToe(Token): boolean</text><rect fill="#F24D5C" height="6" style="stroke: #C82930; stroke-width: 1.0;" width="6" x="306" y="488.6875"/><text fill="#000000" font-family="sans-serif" font-size="11" lengthAdjust="spacingAndGlyphs" textLength="189" x="318" y="496.1064">numberOfCoordinates(Coordinate[]): int</text><polygon fill="#4177AF" points="309,501.5234,305,507.5234,313,507.5234" style="stroke: #1963A0; stroke-width: 1.0;"/><text fill="#000000" font-family="sans-serif" font-size="11" lengthAdjust="spacingAndGlyphs" textLength="110" x="318" y="509.9424">isCompleted(): boolean</text><ellipse cx="309" cy="519.3594" fill="#84BE84" rx="3" ry="3" style="stroke: #038048; stroke-width: 1.0;"/><text fill="#000000" font-family="sans-serif" font-size="11" lengthAdjust="spacingAndGlyphs" textLength="141" x="318" y="523.7783">isEmpty(Coordinate): boolean</text><polygon fill="#4177AF" points="309,529.1953,305,535.1953,313,535.1953" style="stroke: #1963A0; stroke-width: 1.0;"/><text fill="#000000" font-family="sans-serif" font-size="11" lengthAdjust="spacingAndGlyphs" textLength="193" x="318" y="537.6143">isOccupied(Coordinate, Token): boolean</text><rect fill="#F24D5C" height="6" style="stroke: #C82930; stroke-width: 1.0;" width="6" x="306" y="544.0313"/><text fill="#000000" font-family="sans-serif" font-size="11" lengthAdjust="spacingAndGlyphs" textLength="246" x="318" y="551.4502">checkNumberOfCoordinates(Coordinate[]): boolean</text><rect fill="#F24D5C" height="6" style="stroke: #C82930; stroke-width: 1.0;" width="6" x="306" y="557.8672"/><text fill="#000000" font-family="sans-serif" font-size="11" lengthAdjust="spacingAndGlyphs" textLength="272" x="318" y="565.2861">checkDirectionOfFirstCoordinates(Coordinate[]): boolean</text><rect fill="#F24D5C" height="6" style="stroke: #C82930; stroke-width: 1.0;" width="6" x="306" y="571.7031"/><text fill="#000000" font-family="sans-serif" font-size="11" lengthAdjust="spacingAndGlyphs" textLength="263" x="318" y="579.1221">checkDirectionOfAllCoordinates(Coordinate[]): boolean</text><!--MD5=[55d70ecb9e3ba4786ec1f15d0b7dce13]
class tictactoe.models.Coordinate--><rect fill="#FEFECE" filter="url(#f1xuvrl8tt5xbf)" height="158.6875" id="tictactoe.models.Coordinate" style="stroke: #A80036; stroke-width: 1.5;" width="191" x="298.5" y="1125"/><ellipse cx="359.25" cy="1141" fill="#ADD1B2" rx="11" ry="11" style="stroke: #A80036; stroke-width: 1.0;"/><path d="M362.0156,1136.875 Q362.1719,1136.6563 362.3594,1136.5469 Q362.5469,1136.4375 362.7656,1136.4375 Q363.1406,1136.4375 363.375,1136.7031 Q363.6094,1136.9531 363.6094,1137.5625 L363.6094,1139.0156 Q363.6094,1139.625 363.375,1139.8906 Q363.1406,1140.1563 362.7656,1140.1563 Q362.4219,1140.1563 362.2188,1139.9531 Q362.0156,1139.7656 361.9063,1139.25 Q361.8594,1138.8906 361.6719,1138.7031 Q361.3438,1138.3281 360.7344,1138.1094 Q360.125,1137.8906 359.5,1137.8906 Q358.7344,1137.8906 358.0938,1138.2188 Q357.4688,1138.5469 356.9688,1139.2969 Q356.4844,1140.0469 356.4844,1141.0781 L356.4844,1142.1719 Q356.4844,1143.4063 357.375,1144.2344 Q358.2656,1145.0469 359.8594,1145.0469 Q360.7969,1145.0469 361.4531,1144.7969 Q361.8438,1144.6406 362.2656,1144.2031 Q362.5313,1143.9375 362.6719,1143.8594 Q362.8281,1143.7813 363.0313,1143.7813 Q363.3594,1143.7813 363.6094,1144.0469 Q363.875,1144.2969 363.875,1144.6406 Q363.875,1144.9844 363.5313,1145.3906 Q363.0313,1145.9688 362.2344,1146.2969 Q361.1563,1146.75 359.8594,1146.75 Q358.3438,1146.75 357.1406,1146.125 Q356.1563,1145.625 355.4688,1144.5625 Q354.7813,1143.4844 354.7813,1142.2031 L354.7813,1141.0469 Q354.7813,1139.7188 355.3906,1138.5781 Q356.0156,1137.4219 357.1094,1136.8125 Q358.2031,1136.1875 359.4375,1136.1875 Q360.1719,1136.1875 360.8125,1136.3594 Q361.4688,1136.5156 362.0156,1136.875 Z "/><text fill="#000000" font-family="sans-serif" font-size="12" lengthAdjust="spacingAndGlyphs" textLength="61" x="379.75" y="1145.9102">Coordinate</text><line style="stroke: #A80036; stroke-width: 1.5;" x1="299.5" x2="488.5" y1="1157" y2="1157"/><ellipse cx="309.5" cy="1168" fill="none" rx="3" ry="3" style="stroke: #038048; stroke-width: 1.0;"/><text fill="#000000" font-family="sans-serif" font-size="11" lengthAdjust="spacingAndGlyphs" text-decoration="underline" textLength="82" x="318.5" y="1172.4189">DIMENSION: char</text><line style="stroke: #A80036; stroke-width: 1.5;" x1="299.5" x2="488.5" y1="1178.8359" y2="1178.8359"/><ellipse cx="309.5" cy="1189.8359" fill="#84BE84" rx="3" ry="3" style="stroke: #038048; stroke-width: 1.0;"/><text fill="#000000" font-family="sans-serif" font-size="11" lengthAdjust="spacingAndGlyphs" textLength="60" x="318.5" y="1194.2549">Coordinate()</text><ellipse cx="309.5" cy="1203.6719" fill="#84BE84" rx="3" ry="3" style="stroke: #038048; stroke-width: 1.0;"/><text fill="#000000" font-family="sans-serif" font-size="11" lengthAdjust="spacingAndGlyphs" textLength="88" x="318.5" y="1208.0908">Coordinate(int, int)</text><polygon fill="#4177AF" points="309.5,1213.5078,305.5,1219.5078,313.5,1219.5078" style="stroke: #1963A0; stroke-width: 1.0;"/><text fill="#000000" font-family="sans-serif" font-size="11" lengthAdjust="spacingAndGlyphs" textLength="154" x="318.5" y="1221.9268">inDirection(Coordinate): boolean</text><polygon fill="#4177AF" points="309.5,1227.3438,305.5,1233.3438,313.5,1233.3438" style="stroke: #1963A0; stroke-width: 1.0;"/><text fill="#000000" font-family="sans-serif" font-size="11" lengthAdjust="spacingAndGlyphs" textLength="165" x="318.5" y="1235.7627">getDirection(Coordinate): Direction</text><rect fill="#F24D5C" height="6" style="stroke: #C82930; stroke-width: 1.0;" width="6" x="306.5" y="1242.1797"/><text fill="#000000" font-family="sans-serif" font-size="11" lengthAdjust="spacingAndGlyphs" textLength="137" x="318.5" y="1249.5986">inInverseDiagonal(): boolean</text><ellipse cx="309.5" cy="1259.0156" fill="#84BE84" rx="3" ry="3" style="stroke: #038048; stroke-width: 1.0;"/><text fill="#000000" font-family="sans-serif" font-size="11" lengthAdjust="spacingAndGlyphs" textLength="84" x="318.5" y="1263.4346">isValid(): boolean</text><ellipse cx="309.5" cy="1272.8516" fill="#84BE84" rx="3" ry="3" style="stroke: #038048; stroke-width: 1.0;"/><text fill="#000000" font-family="sans-serif" font-size="11" lengthAdjust="spacingAndGlyphs" textLength="70" x="318.5" y="1277.2705">random(): void</text><!--MD5=[b42b9147ed7462532394f7fe6f96703d]
class tictactoe.models.Turn--><rect fill="#FEFECE" filter="url(#f1xuvrl8tt5xbf)" height="158.6875" id="tictactoe.models.Turn" style="stroke: #A80036; stroke-width: 1.5;" width="142" x="483" y="646"/><ellipse cx="537.25" cy="662" fill="#ADD1B2" rx="11" ry="11" style="stroke: #A80036; stroke-width: 1.0;"/><path d="M540.0156,657.875 Q540.1719,657.6563 540.3594,657.5469 Q540.5469,657.4375 540.7656,657.4375 Q541.1406,657.4375 541.375,657.7031 Q541.6094,657.9531 541.6094,658.5625 L541.6094,660.0156 Q541.6094,660.625 541.375,660.8906 Q541.1406,661.1563 540.7656,661.1563 Q540.4219,661.1563 540.2188,660.9531 Q540.0156,660.7656 539.9063,660.25 Q539.8594,659.8906 539.6719,659.7031 Q539.3438,659.3281 538.7344,659.1094 Q538.125,658.8906 537.5,658.8906 Q536.7344,658.8906 536.0938,659.2188 Q535.4688,659.5469 534.9688,660.2969 Q534.4844,661.0469 534.4844,662.0781 L534.4844,663.1719 Q534.4844,664.4063 535.375,665.2344 Q536.2656,666.0469 537.8594,666.0469 Q538.7969,666.0469 539.4531,665.7969 Q539.8438,665.6406 540.2656,665.2031 Q540.5313,664.9375 540.6719,664.8594 Q540.8281,664.7813 541.0313,664.7813 Q541.3594,664.7813 541.6094,665.0469 Q541.875,665.2969 541.875,665.6406 Q541.875,665.9844 541.5313,666.3906 Q541.0313,666.9688 540.2344,667.2969 Q539.1563,667.75 537.8594,667.75 Q536.3438,667.75 535.1406,667.125 Q534.1563,666.625 533.4688,665.5625 Q532.7813,664.4844 532.7813,663.2031 L532.7813,662.0469 Q532.7813,660.7188 533.3906,659.5781 Q534.0156,658.4219 535.1094,657.8125 Q536.2031,657.1875 537.4375,657.1875 Q538.1719,657.1875 538.8125,657.3594 Q539.4688,657.5156 540.0156,657.875 Z "/><text fill="#000000" font-family="sans-serif" font-size="12" lengthAdjust="spacingAndGlyphs" textLength="25" x="557.75" y="666.9102">Turn</text><line style="stroke: #A80036; stroke-width: 1.5;" x1="484" x2="624" y1="678" y2="678"/><ellipse cx="494" cy="689" fill="none" rx="3" ry="3" style="stroke: #038048; stroke-width: 1.0;"/><text fill="#000000" font-family="sans-serif" font-size="11" lengthAdjust="spacingAndGlyphs" text-decoration="underline" textLength="65" x="503" y="693.4189">PLAYERS: int</text><rect fill="none" height="6" style="stroke: #C82930; stroke-width: 1.0;" width="6" x="491" y="699.8359"/><text fill="#000000" font-family="sans-serif" font-size="11" lengthAdjust="spacingAndGlyphs" textLength="43" x="503" y="707.2549">value: int</text><rect fill="none" height="6" style="stroke: #C82930; stroke-width: 1.0;" width="6" x="491" y="713.6719"/><text fill="#000000" font-family="sans-serif" font-size="11" lengthAdjust="spacingAndGlyphs" textLength="78" x="503" y="721.0908">players: Player[]</text><line style="stroke: #A80036; stroke-width: 1.5;" x1="484" x2="624" y1="727.5078" y2="727.5078"/><ellipse cx="494" cy="738.5078" fill="#84BE84" rx="3" ry="3" style="stroke: #038048; stroke-width: 1.0;"/><text fill="#000000" font-family="sans-serif" font-size="11" lengthAdjust="spacingAndGlyphs" textLength="66" x="503" y="742.9268">Turn(Player[])</text><polygon fill="#4177AF" points="494,748.3438,490,754.3438,498,754.3438" style="stroke: #1963A0; stroke-width: 1.0;"/><text fill="#000000" font-family="sans-serif" font-size="11" lengthAdjust="spacingAndGlyphs" textLength="70" x="503" y="756.7627">change(): void</text><polygon fill="#4177AF" points="494,762.1797,490,768.1797,498,768.1797" style="stroke: #1963A0; stroke-width: 1.0;"/><text fill="#000000" font-family="sans-serif" font-size="11" lengthAdjust="spacingAndGlyphs" textLength="89" x="503" y="770.5986">getPlayer(): Player</text><polygon fill="#4177AF" points="494,776.0156,490,782.0156,498,782.0156" style="stroke: #1963A0; stroke-width: 1.0;"/><text fill="#000000" font-family="sans-serif" font-size="11" lengthAdjust="spacingAndGlyphs" textLength="95" x="503" y="784.4346">getOtherValue(): int</text><polygon fill="#4177AF" points="494,789.8516,490,795.8516,498,795.8516" style="stroke: #1963A0; stroke-width: 1.0;"/><text fill="#000000" font-family="sans-serif" font-size="11" lengthAdjust="spacingAndGlyphs" textLength="116" x="503" y="798.2705">getOtherPlayer(): Player</text><!--MD5=[8d3188f3c370ea7d5d91d12bca83b67a]
class tictactoe.models.Game--><rect fill="#FEFECE" filter="url(#f1xuvrl8tt5xbf)" height="227.8672" id="tictactoe.models.Game" style="stroke: #A80036; stroke-width: 1.5;" width="249" x="431.5" y="42"/><ellipse cx="534.75" cy="58" fill="#ADD1B2" rx="11" ry="11" style="stroke: #A80036; stroke-width: 1.0;"/><path d="M537.5156,53.875 Q537.6719,53.6563 537.8594,53.5469 Q538.0469,53.4375 538.2656,53.4375 Q538.6406,53.4375 538.875,53.7031 Q539.1094,53.9531 539.1094,54.5625 L539.1094,56.0156 Q539.1094,56.625 538.875,56.8906 Q538.6406,57.1563 538.2656,57.1563 Q537.9219,57.1563 537.7188,56.9531 Q537.5156,56.7656 537.4063,56.25 Q537.3594,55.8906 537.1719,55.7031 Q536.8438,55.3281 536.2344,55.1094 Q535.625,54.8906 535,54.8906 Q534.2344,54.8906 533.5938,55.2188 Q532.9688,55.5469 532.4688,56.2969 Q531.9844,57.0469 531.9844,58.0781 L531.9844,59.1719 Q531.9844,60.4063 532.875,61.2344 Q533.7656,62.0469 535.3594,62.0469 Q536.2969,62.0469 536.9531,61.7969 Q537.3438,61.6406 537.7656,61.2031 Q538.0313,60.9375 538.1719,60.8594 Q538.3281,60.7813 538.5313,60.7813 Q538.8594,60.7813 539.1094,61.0469 Q539.375,61.2969 539.375,61.6406 Q539.375,61.9844 539.0313,62.3906 Q538.5313,62.9688 537.7344,63.2969 Q536.6563,63.75 535.3594,63.75 Q533.8438,63.75 532.6406,63.125 Q531.6563,62.625 530.9688,61.5625 Q530.2813,60.4844 530.2813,59.2031 L530.2813,58.0469 Q530.2813,56.7188 530.8906,55.5781 Q531.5156,54.4219 532.6094,53.8125 Q533.7031,53.1875 534.9375,53.1875 Q535.6719,53.1875 536.3125,53.3594 Q536.9688,53.5156 537.5156,53.875 Z "/><text fill="#000000" font-family="sans-serif" font-size="12" lengthAdjust="spacingAndGlyphs" textLength="34" x="555.25" y="62.9102">Game</text><line style="stroke: #A80036; stroke-width: 1.5;" x1="432.5" x2="679.5" y1="74" y2="74"/><rect fill="none" height="6" style="stroke: #C82930; stroke-width: 1.0;" width="6" x="439.5" y="82"/><text fill="#000000" font-family="sans-serif" font-size="11" lengthAdjust="spacingAndGlyphs" textLength="63" x="451.5" y="89.4189">board: Board</text><rect fill="none" height="6" style="stroke: #C82930; stroke-width: 1.0;" width="6" x="439.5" y="95.8359"/><text fill="#000000" font-family="sans-serif" font-size="11" lengthAdjust="spacingAndGlyphs" textLength="84" x="451.5" y="103.2549">players: Player[][]</text><rect fill="none" height="6" style="stroke: #C82930; stroke-width: 1.0;" width="6" x="439.5" y="109.6719"/><text fill="#000000" font-family="sans-serif" font-size="11" lengthAdjust="spacingAndGlyphs" textLength="47" x="451.5" y="117.0908">turn: Turn</text><line style="stroke: #A80036; stroke-width: 1.5;" x1="432.5" x2="679.5" y1="123.5078" y2="123.5078"/><ellipse cx="442.5" cy="134.5078" fill="#84BE84" rx="3" ry="3" style="stroke: #038048; stroke-width: 1.0;"/><text fill="#000000" font-family="sans-serif" font-size="11" lengthAdjust="spacingAndGlyphs" textLength="36" x="451.5" y="138.9268">Game()</text><ellipse cx="442.5" cy="148.3438" fill="#84BE84" rx="3" ry="3" style="stroke: #038048; stroke-width: 1.0;"/><text fill="#000000" font-family="sans-serif" font-size="11" lengthAdjust="spacingAndGlyphs" textLength="112" x="451.5" y="152.7627">createPlayers(int): void</text><ellipse cx="442.5" cy="162.1797" fill="#84BE84" rx="3" ry="3" style="stroke: #038048; stroke-width: 1.0;"/><text fill="#000000" font-family="sans-serif" font-size="11" lengthAdjust="spacingAndGlyphs" textLength="87" x="451.5" y="166.5986">getBoard(): Board</text><ellipse cx="442.5" cy="176.0156" fill="#84BE84" rx="3" ry="3" style="stroke: #038048; stroke-width: 1.0;"/><text fill="#000000" font-family="sans-serif" font-size="11" lengthAdjust="spacingAndGlyphs" textLength="133" x="451.5" y="180.4346">isBoardComplete(): boolean</text><ellipse cx="442.5" cy="189.8516" fill="#84BE84" rx="3" ry="3" style="stroke: #038048; stroke-width: 1.0;"/><text fill="#000000" font-family="sans-serif" font-size="11" lengthAdjust="spacingAndGlyphs" textLength="206" x="451.5" y="194.2705">putTokenPlayerFromTurn(Coordinate): void</text><ellipse cx="442.5" cy="203.6875" fill="#84BE84" rx="3" ry="3" style="stroke: #038048; stroke-width: 1.0;"/><text fill="#000000" font-family="sans-serif" font-size="11" lengthAdjust="spacingAndGlyphs" textLength="223" x="451.5" y="208.1064">moveTokenPlayerFromTurn(Coordinate[]): void</text><ellipse cx="442.5" cy="217.5234" fill="#84BE84" rx="3" ry="3" style="stroke: #038048; stroke-width: 1.0;"/><text fill="#000000" font-family="sans-serif" font-size="11" lengthAdjust="spacingAndGlyphs" textLength="175" x="451.5" y="221.9424">getTokenPlayerFromTurn(int): Player</text><ellipse cx="442.5" cy="231.3594" fill="#84BE84" rx="3" ry="3" style="stroke: #038048; stroke-width: 1.0;"/><text fill="#000000" font-family="sans-serif" font-size="11" lengthAdjust="spacingAndGlyphs" textLength="92" x="451.5" y="235.7783">changeTurn(): void</text><ellipse cx="442.5" cy="245.1953" fill="#84BE84" rx="3" ry="3" style="stroke: #038048; stroke-width: 1.0;"/><text fill="#000000" font-family="sans-serif" font-size="11" lengthAdjust="spacingAndGlyphs" textLength="110" x="451.5" y="249.6143">isTicTacToe(): boolean</text><ellipse cx="442.5" cy="259.0313" fill="#84BE84" rx="3" ry="3" style="stroke: #038048; stroke-width: 1.0;"/><text fill="#000000" font-family="sans-serif" font-size="11" lengthAdjust="spacingAndGlyphs" textLength="141" x="451.5" y="263.4502">getOtherValueFromTurn(): int</text><!--MD5=[3b54484399e9c5d8797124604fd4af65]
class tictactoe.models.Player--><rect fill="#FEFECE" filter="url(#f1xuvrl8tt5xbf)" height="200.1953" id="tictactoe.models.Player" style="stroke: #A80036; stroke-width: 1.5;" width="346" x="335" y="865"/><ellipse cx="486.75" cy="881" fill="#ADD1B2" rx="11" ry="11" style="stroke: #A80036; stroke-width: 1.0;"/><path d="M489.5156,876.875 Q489.6719,876.6563 489.8594,876.5469 Q490.0469,876.4375 490.2656,876.4375 Q490.6406,876.4375 490.875,876.7031 Q491.1094,876.9531 491.1094,877.5625 L491.1094,879.0156 Q491.1094,879.625 490.875,879.8906 Q490.6406,880.1563 490.2656,880.1563 Q489.9219,880.1563 489.7188,879.9531 Q489.5156,879.7656 489.4063,879.25 Q489.3594,878.8906 489.1719,878.7031 Q488.8438,878.3281 488.2344,878.1094 Q487.625,877.8906 487,877.8906 Q486.2344,877.8906 485.5938,878.2188 Q484.9688,878.5469 484.4688,879.2969 Q483.9844,880.0469 483.9844,881.0781 L483.9844,882.1719 Q483.9844,883.4063 484.875,884.2344 Q485.7656,885.0469 487.3594,885.0469 Q488.2969,885.0469 488.9531,884.7969 Q489.3438,884.6406 489.7656,884.2031 Q490.0313,883.9375 490.1719,883.8594 Q490.3281,883.7813 490.5313,883.7813 Q490.8594,883.7813 491.1094,884.0469 Q491.375,884.2969 491.375,884.6406 Q491.375,884.9844 491.0313,885.3906 Q490.5313,885.9688 489.7344,886.2969 Q488.6563,886.75 487.3594,886.75 Q485.8438,886.75 484.6406,886.125 Q483.6563,885.625 482.9688,884.5625 Q482.2813,883.4844 482.2813,882.2031 L482.2813,881.0469 Q482.2813,879.7188 482.8906,878.5781 Q483.5156,877.4219 484.6094,876.8125 Q485.7031,876.1875 486.9375,876.1875 Q487.6719,876.1875 488.3125,876.3594 Q488.9688,876.5156 489.5156,876.875 Z "/><text fill="#000000" font-family="sans-serif" font-size="12" lengthAdjust="spacingAndGlyphs" textLength="34" x="507.25" y="885.9102">Player</text><line style="stroke: #A80036; stroke-width: 1.5;" x1="336" x2="680" y1="897" y2="897"/><rect fill="none" height="6" style="stroke: #C82930; stroke-width: 1.0;" width="6" x="343" y="905"/><text fill="#000000" font-family="sans-serif" font-size="11" lengthAdjust="spacingAndGlyphs" textLength="61" x="355" y="912.4189">token: Token</text><rect fill="none" height="6" style="stroke: #C82930; stroke-width: 1.0;" width="6" x="343" y="918.8359"/><text fill="#000000" font-family="sans-serif" font-size="11" lengthAdjust="spacingAndGlyphs" textLength="63" x="355" y="926.2549">board: Board</text><rect fill="none" height="6" style="stroke: #C82930; stroke-width: 1.0;" width="6" x="343" y="932.6719"/><text fill="#000000" font-family="sans-serif" font-size="11" lengthAdjust="spacingAndGlyphs" textLength="81" x="355" y="940.0908">type: PlayerType</text><line style="stroke: #A80036; stroke-width: 1.5;" x1="336" x2="680" y1="946.5078" y2="946.5078"/><ellipse cx="346" cy="957.5078" fill="#84BE84" rx="3" ry="3" style="stroke: #038048; stroke-width: 1.0;"/><text fill="#000000" font-family="sans-serif" font-size="11" lengthAdjust="spacingAndGlyphs" textLength="162" x="355" y="961.9268">Player(Token, Board, PlayerType)</text><ellipse cx="346" cy="971.3438" fill="#84BE84" rx="3" ry="3" style="stroke: #038048; stroke-width: 1.0;"/><text fill="#000000" font-family="sans-serif" font-size="11" lengthAdjust="spacingAndGlyphs" textLength="107" x="355" y="975.7627">getType(): PlayerType</text><polygon fill="#4177AF" points="346,981.1797,342,987.1797,350,987.1797" style="stroke: #1963A0; stroke-width: 1.0;"/><text fill="#000000" font-family="sans-serif" font-size="11" lengthAdjust="spacingAndGlyphs" textLength="87" x="355" y="989.5986">getToken(): Token</text><polygon fill="#4177AF" points="346,995.0156,342,1001.0156,350,1001.0156" style="stroke: #1963A0; stroke-width: 1.0;"/><text fill="#000000" font-family="sans-serif" font-size="11" lengthAdjust="spacingAndGlyphs" textLength="101" x="355" y="1003.4346">put(Coordinate): void</text><polygon fill="#4177AF" points="346,1008.8516,342,1014.8516,350,1014.8516" style="stroke: #1963A0; stroke-width: 1.0;"/><text fill="#000000" font-family="sans-serif" font-size="11" lengthAdjust="spacingAndGlyphs" textLength="118" x="355" y="1017.2705">move(Coordinate[]): void</text><ellipse cx="346" cy="1026.6875" fill="#84BE84" rx="3" ry="3" style="stroke: #038048; stroke-width: 1.0;"/><text fill="#000000" font-family="sans-serif" font-size="11" lengthAdjust="spacingAndGlyphs" textLength="220" x="355" y="1031.1064">controlErrorsPutCoordinate(Coordinate): Error</text><ellipse cx="346" cy="1040.5234" fill="#84BE84" rx="3" ry="3" style="stroke: #038048; stroke-width: 1.0;"/><text fill="#000000" font-family="sans-serif" font-size="11" lengthAdjust="spacingAndGlyphs" textLength="259" x="355" y="1044.9424">controlErrorsMoveOriginCoordinate(Coordinate): Error</text><ellipse cx="346" cy="1054.3594" fill="#84BE84" rx="3" ry="3" style="stroke: #038048; stroke-width: 1.0;"/><text fill="#000000" font-family="sans-serif" font-size="11" lengthAdjust="spacingAndGlyphs" textLength="320" x="355" y="1058.7783">controlErrorsMoveTargetCoordinate(Coordinate, Coordinate): Error</text><!--MD5=[3b37da8b6e7a1800631cf51c5954ec17]
class tictactoe.types.Token--><rect fill="#FEFECE" filter="url(#f1xuvrl8tt5xbf)" height="48" id="tictactoe.types.Token" style="stroke: #A80036; stroke-width: 1.5;" width="66" x="832" y="1180.5"/><ellipse cx="847" cy="1196.5" fill="#ADD1B2" rx="11" ry="11" style="stroke: #A80036; stroke-width: 1.0;"/><path d="M849.7656,1192.375 Q849.9219,1192.1563 850.1094,1192.0469 Q850.2969,1191.9375 850.5156,1191.9375 Q850.8906,1191.9375 851.125,1192.2031 Q851.3594,1192.4531 851.3594,1193.0625 L851.3594,1194.5156 Q851.3594,1195.125 851.125,1195.3906 Q850.8906,1195.6563 850.5156,1195.6563 Q850.1719,1195.6563 849.9688,1195.4531 Q849.7656,1195.2656 849.6563,1194.75 Q849.6094,1194.3906 849.4219,1194.2031 Q849.0938,1193.8281 848.4844,1193.6094 Q847.875,1193.3906 847.25,1193.3906 Q846.4844,1193.3906 845.8438,1193.7188 Q845.2188,1194.0469 844.7188,1194.7969 Q844.2344,1195.5469 844.2344,1196.5781 L844.2344,1197.6719 Q844.2344,1198.9063 845.125,1199.7344 Q846.0156,1200.5469 847.6094,1200.5469 Q848.5469,1200.5469 849.2031,1200.2969 Q849.5938,1200.1406 850.0156,1199.7031 Q850.2813,1199.4375 850.4219,1199.3594 Q850.5781,1199.2813 850.7813,1199.2813 Q851.1094,1199.2813 851.3594,1199.5469 Q851.625,1199.7969 851.625,1200.1406 Q851.625,1200.4844 851.2813,1200.8906 Q850.7813,1201.4688 849.9844,1201.7969 Q848.9063,1202.25 847.6094,1202.25 Q846.0938,1202.25 844.8906,1201.625 Q843.9063,1201.125 843.2188,1200.0625 Q842.5313,1198.9844 842.5313,1197.7031 L842.5313,1196.5469 Q842.5313,1195.2188 843.1406,1194.0781 Q843.7656,1192.9219 844.8594,1192.3125 Q845.9531,1191.6875 847.1875,1191.6875 Q847.9219,1191.6875 848.5625,1191.8594 Q849.2188,1192.0156 849.7656,1192.375 Z "/><text fill="#000000" font-family="sans-serif" font-size="12" lengthAdjust="spacingAndGlyphs" textLength="34" x="861" y="1201.4102">Token</text><line style="stroke: #A80036; stroke-width: 1.5;" x1="833" x2="897" y1="1212.5" y2="1212.5"/><line style="stroke: #A80036; stroke-width: 1.5;" x1="833" x2="897" y1="1220.5" y2="1220.5"/><!--MD5=[8016c4b7c5b6e1d0c1906a688d612470]
class tictactoe.types.PlayerType--><rect fill="#FEFECE" filter="url(#f1xuvrl8tt5xbf)" height="48" id="tictactoe.types.PlayerType" style="stroke: #A80036; stroke-width: 1.5;" width="92" x="933" y="1180.5"/><ellipse cx="948" cy="1196.5" fill="#ADD1B2" rx="11" ry="11" style="stroke: #A80036; stroke-width: 1.0;"/><path d="M950.7656,1192.375 Q950.9219,1192.1563 951.1094,1192.0469 Q951.2969,1191.9375 951.5156,1191.9375 Q951.8906,1191.9375 952.125,1192.2031 Q952.3594,1192.4531 952.3594,1193.0625 L952.3594,1194.5156 Q952.3594,1195.125 952.125,1195.3906 Q951.8906,1195.6563 951.5156,1195.6563 Q951.1719,1195.6563 950.9688,1195.4531 Q950.7656,1195.2656 950.6563,1194.75 Q950.6094,1194.3906 950.4219,1194.2031 Q950.0938,1193.8281 949.4844,1193.6094 Q948.875,1193.3906 948.25,1193.3906 Q947.4844,1193.3906 946.8438,1193.7188 Q946.2188,1194.0469 945.7188,1194.7969 Q945.2344,1195.5469 945.2344,1196.5781 L945.2344,1197.6719 Q945.2344,1198.9063 946.125,1199.7344 Q947.0156,1200.5469 948.6094,1200.5469 Q949.5469,1200.5469 950.2031,1200.2969 Q950.5938,1200.1406 951.0156,1199.7031 Q951.2813,1199.4375 951.4219,1199.3594 Q951.5781,1199.2813 951.7813,1199.2813 Q952.1094,1199.2813 952.3594,1199.5469 Q952.625,1199.7969 952.625,1200.1406 Q952.625,1200.4844 952.2813,1200.8906 Q951.7813,1201.4688 950.9844,1201.7969 Q949.9063,1202.25 948.6094,1202.25 Q947.0938,1202.25 945.8906,1201.625 Q944.9063,1201.125 944.2188,1200.0625 Q943.5313,1198.9844 943.5313,1197.7031 L943.5313,1196.5469 Q943.5313,1195.2188 944.1406,1194.0781 Q944.7656,1192.9219 945.8594,1192.3125 Q946.9531,1191.6875 948.1875,1191.6875 Q948.9219,1191.6875 949.5625,1191.8594 Q950.2188,1192.0156 950.7656,1192.375 Z "/><text fill="#000000" font-family="sans-serif" font-size="12" lengthAdjust="spacingAndGlyphs" textLength="60" x="962" y="1201.4102">PlayerType</text><line style="stroke: #A80036; stroke-width: 1.5;" x1="934" x2="1024" y1="1212.5" y2="1212.5"/><line style="stroke: #A80036; stroke-width: 1.5;" x1="934" x2="1024" y1="1220.5" y2="1220.5"/><!--MD5=[1aab8645402f9730c5a520f7fa330421]
class tictactoe.types.Error--><rect fill="#FEFECE" filter="url(#f1xuvrl8tt5xbf)" height="48" id="tictactoe.types.Error" style="stroke: #A80036; stroke-width: 1.5;" width="59" x="737.5" y="1180.5"/><ellipse cx="752.5" cy="1196.5" fill="#ADD1B2" rx="11" ry="11" style="stroke: #A80036; stroke-width: 1.0;"/><path d="M755.2656,1192.375 Q755.4219,1192.1563 755.6094,1192.0469 Q755.7969,1191.9375 756.0156,1191.9375 Q756.3906,1191.9375 756.625,1192.2031 Q756.8594,1192.4531 756.8594,1193.0625 L756.8594,1194.5156 Q756.8594,1195.125 756.625,1195.3906 Q756.3906,1195.6563 756.0156,1195.6563 Q755.6719,1195.6563 755.4688,1195.4531 Q755.2656,1195.2656 755.1563,1194.75 Q755.1094,1194.3906 754.9219,1194.2031 Q754.5938,1193.8281 753.9844,1193.6094 Q753.375,1193.3906 752.75,1193.3906 Q751.9844,1193.3906 751.3438,1193.7188 Q750.7188,1194.0469 750.2188,1194.7969 Q749.7344,1195.5469 749.7344,1196.5781 L749.7344,1197.6719 Q749.7344,1198.9063 750.625,1199.7344 Q751.5156,1200.5469 753.1094,1200.5469 Q754.0469,1200.5469 754.7031,1200.2969 Q755.0938,1200.1406 755.5156,1199.7031 Q755.7813,1199.4375 755.9219,1199.3594 Q756.0781,1199.2813 756.2813,1199.2813 Q756.6094,1199.2813 756.8594,1199.5469 Q757.125,1199.7969 757.125,1200.1406 Q757.125,1200.4844 756.7813,1200.8906 Q756.2813,1201.4688 755.4844,1201.7969 Q754.4063,1202.25 753.1094,1202.25 Q751.5938,1202.25 750.3906,1201.625 Q749.4063,1201.125 748.7188,1200.0625 Q748.0313,1198.9844 748.0313,1197.7031 L748.0313,1196.5469 Q748.0313,1195.2188 748.6406,1194.0781 Q749.2656,1192.9219 750.3594,1192.3125 Q751.4531,1191.6875 752.6875,1191.6875 Q753.4219,1191.6875 754.0625,1191.8594 Q754.7188,1192.0156 755.2656,1192.375 Z "/><text fill="#000000" font-family="sans-serif" font-size="12" lengthAdjust="spacingAndGlyphs" textLength="27" x="766.5" y="1201.4102">Error</text><line style="stroke: #A80036; stroke-width: 1.5;" x1="738.5" x2="795.5" y1="1212.5" y2="1212.5"/><line style="stroke: #A80036; stroke-width: 1.5;" x1="738.5" x2="795.5" y1="1220.5" y2="1220.5"/><!--MD5=[63e92a92e730259d201bb8566c78f275]
class utils.Direction--><rect fill="#FEFECE" filter="url(#f1xuvrl8tt5xbf)" height="48" id="utils.Direction" style="stroke: #A80036; stroke-width: 1.5;" width="81" x="160.5" y="941"/><ellipse cx="175.5" cy="957" fill="#ADD1B2" rx="11" ry="11" style="stroke: #A80036; stroke-width: 1.0;"/><path d="M178.2656,952.875 Q178.4219,952.6563 178.6094,952.5469 Q178.7969,952.4375 179.0156,952.4375 Q179.3906,952.4375 179.625,952.7031 Q179.8594,952.9531 179.8594,953.5625 L179.8594,955.0156 Q179.8594,955.625 179.625,955.8906 Q179.3906,956.1563 179.0156,956.1563 Q178.6719,956.1563 178.4688,955.9531 Q178.2656,955.7656 178.1563,955.25 Q178.1094,954.8906 177.9219,954.7031 Q177.5938,954.3281 176.9844,954.1094 Q176.375,953.8906 175.75,953.8906 Q174.9844,953.8906 174.3438,954.2188 Q173.7188,954.5469 173.2188,955.2969 Q172.7344,956.0469 172.7344,957.0781 L172.7344,958.1719 Q172.7344,959.4063 173.625,960.2344 Q174.5156,961.0469 176.1094,961.0469 Q177.0469,961.0469 177.7031,960.7969 Q178.0938,960.6406 178.5156,960.2031 Q178.7813,959.9375 178.9219,959.8594 Q179.0781,959.7813 179.2813,959.7813 Q179.6094,959.7813 179.8594,960.0469 Q180.125,960.2969 180.125,960.6406 Q180.125,960.9844 179.7813,961.3906 Q179.2813,961.9688 178.4844,962.2969 Q177.4063,962.75 176.1094,962.75 Q174.5938,962.75 173.3906,962.125 Q172.4063,961.625 171.7188,960.5625 Q171.0313,959.4844 171.0313,958.2031 L171.0313,957.0469 Q171.0313,955.7188 171.6406,954.5781 Q172.2656,953.4219 173.3594,952.8125 Q174.4531,952.1875 175.6875,952.1875 Q176.4219,952.1875 177.0625,952.3594 Q177.7188,952.5156 178.2656,952.875 Z "/><text fill="#000000" font-family="sans-serif" font-size="12" lengthAdjust="spacingAndGlyphs" textLength="49" x="189.5" y="961.9102">Direction</text><line style="stroke: #A80036; stroke-width: 1.5;" x1="161.5" x2="240.5" y1="973" y2="973"/><line style="stroke: #A80036; stroke-width: 1.5;" x1="161.5" x2="240.5" y1="981" y2="981"/><!--MD5=[4517a9099db328c27576a0137eb33da6]
class utils.Coordinate--><rect fill="#FEFECE" filter="url(#f1xuvrl8tt5xbf)" height="48" id="utils.Coordinate" style="stroke: #A80036; stroke-width: 1.5;" width="93" x="32.5" y="941"/><ellipse cx="47.5" cy="957" fill="#ADD1B2" rx="11" ry="11" style="stroke: #A80036; stroke-width: 1.0;"/><path d="M50.2656,952.875 Q50.4219,952.6563 50.6094,952.5469 Q50.7969,952.4375 51.0156,952.4375 Q51.3906,952.4375 51.625,952.7031 Q51.8594,952.9531 51.8594,953.5625 L51.8594,955.0156 Q51.8594,955.625 51.625,955.8906 Q51.3906,956.1563 51.0156,956.1563 Q50.6719,956.1563 50.4688,955.9531 Q50.2656,955.7656 50.1563,955.25 Q50.1094,954.8906 49.9219,954.7031 Q49.5938,954.3281 48.9844,954.1094 Q48.375,953.8906 47.75,953.8906 Q46.9844,953.8906 46.3438,954.2188 Q45.7188,954.5469 45.2188,955.2969 Q44.7344,956.0469 44.7344,957.0781 L44.7344,958.1719 Q44.7344,959.4063 45.625,960.2344 Q46.5156,961.0469 48.1094,961.0469 Q49.0469,961.0469 49.7031,960.7969 Q50.0938,960.6406 50.5156,960.2031 Q50.7813,959.9375 50.9219,959.8594 Q51.0781,959.7813 51.2813,959.7813 Q51.6094,959.7813 51.8594,960.0469 Q52.125,960.2969 52.125,960.6406 Q52.125,960.9844 51.7813,961.3906 Q51.2813,961.9688 50.4844,962.2969 Q49.4063,962.75 48.1094,962.75 Q46.5938,962.75 45.3906,962.125 Q44.4063,961.625 43.7188,960.5625 Q43.0313,959.4844 43.0313,958.2031 L43.0313,957.0469 Q43.0313,955.7188 43.6406,954.5781 Q44.2656,953.4219 45.3594,952.8125 Q46.4531,952.1875 47.6875,952.1875 Q48.4219,952.1875 49.0625,952.3594 Q49.7188,952.5156 50.2656,952.875 Z "/><text fill="#000000" font-family="sans-serif" font-size="12" lengthAdjust="spacingAndGlyphs" textLength="61" x="61.5" y="961.9102">Coordinate</text><line style="stroke: #A80036; stroke-width: 1.5;" x1="33.5" x2="124.5" y1="973" y2="973"/><line style="stroke: #A80036; stroke-width: 1.5;" x1="33.5" x2="124.5" y1="981" y2="981"/><!--MD5=[6c70c0f5d22b0d421fe766e144384ba2]
class java.util.Random--><rect fill="#FEFECE" filter="url(#f1xuvrl8tt5xbf)" height="48" id="java.util.Random" style="stroke: #A80036; stroke-width: 1.5;" width="80" x="354" y="1360"/><ellipse cx="369" cy="1376" fill="#ADD1B2" rx="11" ry="11" style="stroke: #A80036; stroke-width: 1.0;"/><path d="M371.7656,1371.875 Q371.9219,1371.6563 372.1094,1371.5469 Q372.2969,1371.4375 372.5156,1371.4375 Q372.8906,1371.4375 373.125,1371.7031 Q373.3594,1371.9531 373.3594,1372.5625 L373.3594,1374.0156 Q373.3594,1374.625 373.125,1374.8906 Q372.8906,1375.1563 372.5156,1375.1563 Q372.1719,1375.1563 371.9688,1374.9531 Q371.7656,1374.7656 371.6563,1374.25 Q371.6094,1373.8906 371.4219,1373.7031 Q371.0938,1373.3281 370.4844,1373.1094 Q369.875,1372.8906 369.25,1372.8906 Q368.4844,1372.8906 367.8438,1373.2188 Q367.2188,1373.5469 366.7188,1374.2969 Q366.2344,1375.0469 366.2344,1376.0781 L366.2344,1377.1719 Q366.2344,1378.4063 367.125,1379.2344 Q368.0156,1380.0469 369.6094,1380.0469 Q370.5469,1380.0469 371.2031,1379.7969 Q371.5938,1379.6406 372.0156,1379.2031 Q372.2813,1378.9375 372.4219,1378.8594 Q372.5781,1378.7813 372.7813,1378.7813 Q373.1094,1378.7813 373.3594,1379.0469 Q373.625,1379.2969 373.625,1379.6406 Q373.625,1379.9844 373.2813,1380.3906 Q372.7813,1380.9688 371.9844,1381.2969 Q370.9063,1381.75 369.6094,1381.75 Q368.0938,1381.75 366.8906,1381.125 Q365.9063,1380.625 365.2188,1379.5625 Q364.5313,1378.4844 364.5313,1377.2031 L364.5313,1376.0469 Q364.5313,1374.7188 365.1406,1373.5781 Q365.7656,1372.4219 366.8594,1371.8125 Q367.9531,1371.1875 369.1875,1371.1875 Q369.9219,1371.1875 370.5625,1371.3594 Q371.2188,1371.5156 371.7656,1371.875 Z "/><text fill="#000000" font-family="sans-serif" font-size="12" lengthAdjust="spacingAndGlyphs" textLength="48" x="383" y="1380.9102">Random</text><line style="stroke: #A80036; stroke-width: 1.5;" x1="355" x2="433" y1="1392" y2="1392"/><line style="stroke: #A80036; stroke-width: 1.5;" x1="355" x2="433" y1="1400" y2="1400"/><!--MD5=[9415c0c61774263745e2cedb44e639c6]
link tictactoe.models.Board to tictactoe.models.Coordinate--><path d="M380.5885,597.3334 C380.5885,597.3334 275.835,906.239 317,1065 C321.209,1081.234 327.78,1097.591 335.349,1113.09 " fill="none" id="tictactoe.models.Board-tictactoe.models.Coordinate" style="stroke: #A80036; stroke-width: 1.0;"/><polygon fill="#A80036" points="341.31,1124.76,340.7787,1114.9255,339.0358,1120.3071,333.6541,1118.5643,341.31,1124.76" style="stroke: #A80036; stroke-width: 1.0;"/><line style="stroke: #A80036; stroke-width: 1.0;" x1="339.0358" x2="335.396" y1="1120.3071" y2="1113.1825"/><polygon fill="#A80036" points="385.181,586.247,379.1893,590.2594,380.5885,597.3334,386.5802,593.3211,385.181,586.247" style="stroke: #A80036; stroke-width: 1.0;"/><!--MD5=[aaca2839b049c91838372e0d045bc145]
link tictactoe.models.Board to tictactoe.types.Token--><path d="M593.916,586.128 C611.439,605.11 628.033,625.293 642,646 C705.345,739.911 821.856,1076.169 855.609,1175.611 " fill="none" id="tictactoe.models.Board-&gt;tictactoe.types.Token" style="stroke: #A80036; stroke-width: 1.0; stroke-dasharray: 7.0,7.0;"/><polygon fill="#A80036" points="857.247,1180.442,858.1452,1170.6342,855.6415,1175.7068,850.5689,1173.2031,857.247,1180.442" style="stroke: #A80036; stroke-width: 1.0;"/><!--MD5=[f07f4b28b1c2eb27f6b3ca96953c68ab]
link tictactoe.models.Board to tictactoe.models.Turn--><path d="M498.306,586.307 C505.807,604.919 513.366,623.673 520.391,641.105 " fill="none" id="tictactoe.models.Board-&gt;tictactoe.models.Turn" style="stroke: #A80036; stroke-width: 1.0; stroke-dasharray: 7.0,7.0;"/><polygon fill="#A80036" points="522.357,645.985,522.7033,636.1422,520.4882,641.3474,515.2831,639.1323,522.357,645.985" style="stroke: #A80036; stroke-width: 1.0;"/><!--MD5=[1183b1fe88256d6abfae59cdbc015bea]
link tictactoe.models.Board to utils.Direction--><path d="M328.36,586.209 C314.092,605.361 300.784,625.569 290,646 C237.657,745.169 213.344,878.437 204.784,935.806 " fill="none" id="tictactoe.models.Board-&gt;utils.Direction" style="stroke: #A80036; stroke-width: 1.0; stroke-dasharray: 7.0,7.0;"/><polygon fill="#A80036" points="204.052,940.79,209.3183,932.4673,204.7791,935.8431,201.4033,931.304,204.052,940.79" style="stroke: #A80036; stroke-width: 1.0;"/><!--MD5=[d279b4500bca5abba91dd5faa9f398fd]
reverse link utils.Coordinate to tictactoe.models.Coordinate--><path d="M99.2444,1006.752 C110.269,1026.07 125.285,1048.478 143,1065 C188.041,1107.008 248.189,1140.767 298.313,1164.435 " fill="none" id="utils.Coordinate&lt;-tictactoe.models.Coordinate" style="stroke: #A80036; stroke-width: 1.0;"/><polygon fill="none" points="93.0771,1010.063,89.7685,989.133,105.407,1003.431,93.0771,1010.063" style="stroke: #A80036; stroke-width: 1.0;"/><!--MD5=[997516208723a80710191e814da7328e]
link tictactoe.models.Coordinate to utils.Direction--><path d="M330.15,1124.928 C293.28,1079.557 249.202,1025.316 223.242,993.37 " fill="none" id="tictactoe.models.Coordinate-&gt;utils.Direction" style="stroke: #A80036; stroke-width: 1.0; stroke-dasharray: 7.0,7.0;"/><polygon fill="#A80036" points="219.857,989.205,222.4284,998.7123,223.0102,993.0854,228.637,993.6672,219.857,989.205" style="stroke: #A80036; stroke-width: 1.0;"/><!--MD5=[02a5e0cbda321227fb745cf81ac775a1]
link tictactoe.models.Coordinate to java.util.Random--><path d="M394,1284.129 C394,1309.219 394,1335.401 394,1354.5154 " fill="none" id="tictactoe.models.Coordinate-&gt;java.util.Random" style="stroke: #A80036; stroke-width: 1.0; stroke-dasharray: 7.0,7.0;"/><polygon fill="#A80036" points="394,1359.7123,398,1350.7123,394,1354.7123,390,1350.7123,394,1359.7123" style="stroke: #A80036; stroke-width: 1.0;"/><!--MD5=[b634369fa6e65a8dead148f8efc150f7]
link tictactoe.models.Game to tictactoe.models.Board--><path d="M510.6913,281.6976 C510.6913,281.6976 501.918,305.85 497.727,317.39 " fill="none" id="tictactoe.models.Game-tictactoe.models.Board" style="stroke: #A80036; stroke-width: 1.0;"/><polygon fill="#A80036" points="493.195,329.86,500.0224,322.7616,494.8988,325.1592,492.5012,320.0356,493.195,329.86" style="stroke: #A80036; stroke-width: 1.0;"/><line style="stroke: #A80036; stroke-width: 1.0;" x1="494.8988" x2="497.6345" y1="325.1592" y2="317.64"/><polygon fill="#A80036" points="514.792,270.42,508.9824,274.6919,510.6913,281.6976,516.5008,277.4257,514.792,270.42" style="stroke: #A80036; stroke-width: 1.0;"/><!--MD5=[1dc2bc8b0c5aa09eb02df64674797f09]
link tictactoe.models.Game to tictactoe.models.Player--><path d="M615.6102,281.6784 C615.6102,281.6784 626.496,314.41 630,330 C676.307,536.039 714.44,606.635 642,805 C635.822,821.918 626.962,838.28 616.701,853.661 " fill="none" id="tictactoe.models.Game-tictactoe.models.Player" style="stroke: #A80036; stroke-width: 1.0;"/><polygon fill="#A80036" points="609,864.682,617.434,859.5959,611.864,860.5835,610.8764,855.0135,609,864.682" style="stroke: #A80036; stroke-width: 1.0;"/><line style="stroke: #A80036; stroke-width: 1.0;" x1="611.864" x2="616.447" y1="860.5835" y2="854.0255"/><polygon fill="#A80036" points="611.43,270.43,609.7707,277.4476,615.6102,281.6784,617.2696,274.6608,611.43,270.43" style="stroke: #A80036; stroke-width: 1.0;"/><!--MD5=[aa5c2eaa34da3707c874f29e1edc60f9]
link tictactoe.models.Game to tictactoe.models.Turn--><path d="M602.2441,281.7219 C602.2441,281.7219 610.509,314.48 613,330 C631.03,442.34 635.755,474.521 613,586 C609.783,601.761 604.702,617.949 598.841,633.447 " fill="none" id="tictactoe.models.Game-tictactoe.models.Turn" style="stroke: #A80036; stroke-width: 1.0;"/><polygon fill="#A80036" points="593.993,645.708,601.0229,638.8101,595.832,641.0585,593.5837,635.8677,593.993,645.708" style="stroke: #A80036; stroke-width: 1.0;"/><line style="stroke: #A80036; stroke-width: 1.0;" x1="595.832" x2="598.773" y1="641.0585" y2="633.6185"/><polygon fill="#A80036" points="598.96,270.18,596.7548,277.0456,602.2441,281.7219,604.4493,274.8562,598.96,270.18" style="stroke: #A80036; stroke-width: 1.0;"/><!--MD5=[2d593b7d40fdf862a21f21908246be98]
link tictactoe.models.Game to tictactoe.types.Token--><path d="M634.082,270.17 C645.487,289.59 656.298,309.98 665,330 C801.421,643.912 851.076,1063.416 862.341,1175.171 " fill="none" id="tictactoe.models.Game-&gt;tictactoe.types.Token" style="stroke: #A80036; stroke-width: 1.0; stroke-dasharray: 7.0,7.0;"/><polygon fill="#A80036" points="862.849,1180.259,865.9371,1170.9068,862.3533,1175.2836,857.9765,1171.6999,862.849,1180.259" style="stroke: #A80036; stroke-width: 1.0;"/><!--MD5=[b2478b45add4fa02c6eb045c3639ccdd]
link tictactoe.models.Game to tictactoe.types.PlayerType--><path d="M680.581,261.04 C700.588,282.22 719.461,305.55 734,330 C911.525,628.489 964.998,1060.822 976.414,1174.986 " fill="none" id="tictactoe.models.Game-&gt;tictactoe.types.PlayerType" style="stroke: #A80036; stroke-width: 1.0; stroke-dasharray: 7.0,7.0;"/><polygon fill="#A80036" points="976.926,1180.181,980.0247,1170.8323,976.436,1175.2051,972.0632,1171.6163,976.926,1180.181" style="stroke: #A80036; stroke-width: 1.0;"/><!--MD5=[6788aa5eae5478765374437bd4c2e87f]
link tictactoe.models.Player to tictactoe.types.Token--><path d="M691.7998,1041.9933 C691.7998,1041.9933 778.566,1092.845 814,1125 C827.58,1137.324 839.097,1154.034 847.731,1168.87 " fill="none" id="tictactoe.models.Player-tictactoe.types.Token" style="stroke: #A80036; stroke-width: 1.0;"/><polygon fill="#A80036" points="854.022,1180.247,853.1671,1170.4353,851.6024,1175.8715,846.1662,1174.3067,854.022,1180.247" style="stroke: #A80036; stroke-width: 1.0;"/><line style="stroke: #A80036; stroke-width: 1.0;" x1="851.6024" x2="847.731" y1="1175.8715" y2="1168.87"/><polygon fill="#A80036" points="681.171,1036.423,684.6287,1042.7511,691.7998,1041.9933,688.3422,1035.6652,681.171,1036.423" style="stroke: #A80036; stroke-width: 1.0;"/><!--MD5=[4d61797189bd4e3921b05d5b1c2f3641]
link tictactoe.models.Player to tictactoe.models.Board--><path d="M474.7805,852.9673 C474.7805,852.9673 467.426,820.223 465,805 C454.305,737.898 449.544,662.643 447.562,599.497 " fill="none" id="tictactoe.models.Player-tictactoe.models.Board" style="stroke: #A80036; stroke-width: 1.0;"/><polygon fill="#A80036" points="447.181,586.214,443.4408,595.325,447.3244,591.2119,451.4375,595.0956,447.181,586.214" style="stroke: #A80036; stroke-width: 1.0;"/><line style="stroke: #A80036; stroke-width: 1.0;" x1="447.3244" x2="447.554" y1="591.2119" y2="599.2085"/><polygon fill="#A80036" points="477.659,864.617,480.103,857.8327,474.7805,852.9673,472.3366,859.7517,477.659,864.617" style="stroke: #A80036; stroke-width: 1.0;"/><!--MD5=[598ddb29be518176f0bd2caafd2edab8]
link tictactoe.models.Player to tictactoe.types.PlayerType--><path d="M692.4648,1015.0837 C692.4648,1015.0837 850.022,1076.585 916,1125 C932.279,1136.945 946.697,1154.1 957.618,1169.327 " fill="none" id="tictactoe.models.Player-tictactoe.types.PlayerType" style="stroke: #A80036; stroke-width: 1.0;"/><polygon fill="#A80036" points="965.26,1180.478,963.4718,1170.7928,962.4335,1176.3536,956.8727,1175.3153,965.26,1180.478" style="stroke: #A80036; stroke-width: 1.0;"/><line style="stroke: #A80036; stroke-width: 1.0;" x1="962.4335" x2="957.911" y1="1176.3536" y2="1169.755"/><polygon fill="#A80036" points="681.094,1011.249,685.5012,1016.9566,692.4648,1015.0837,688.0576,1009.3761,681.094,1011.249" style="stroke: #A80036; stroke-width: 1.0;"/><!--MD5=[8c8274b143d2ce23d56b10c65f754674]
link tictactoe.models.Player to tictactoe.models.Coordinate--><path d="M460.479,1065.002 C451.637,1083.423 442.481,1102.498 433.896,1120.383 " fill="none" id="tictactoe.models.Player-&gt;tictactoe.models.Coordinate" style="stroke: #A80036; stroke-width: 1.0; stroke-dasharray: 7.0,7.0;"/><polygon fill="#A80036" points="431.726,1124.904,439.2252,1118.5195,433.8886,1120.3959,432.0123,1115.0593,431.726,1124.904" style="stroke: #A80036; stroke-width: 1.0;"/><!--MD5=[11b8581993dcdd535fc279569dea0342]
link tictactoe.models.Player to tictactoe.types.Error--><path d="M630.995,1065.076 C653.459,1084.396 676.318,1104.905 697,1125 C713.782,1141.305 731.302,1160.955 744.616,1176.517 " fill="none" id="tictactoe.models.Player-&gt;tictactoe.types.Error" style="stroke: #A80036; stroke-width: 1.0; stroke-dasharray: 7.0,7.0;"/><polygon fill="#A80036" points="747.908,1180.38,745.1172,1170.9348,744.6658,1176.5737,739.027,1176.1223,747.908,1180.38" style="stroke: #A80036; stroke-width: 1.0;"/><!--MD5=[445ca9be6ac7acaf2fbd96fa00e05ee8]
link tictactoe.models.Turn to tictactoe.models.Player--><path d="M536.4657,817.0352 C536.4657,817.0352 531.911,840.545 529.751,851.697 " fill="none" id="tictactoe.models.Turn-tictactoe.models.Player" style="stroke: #A80036; stroke-width: 1.0;"/><polygon fill="#A80036" points="527.227,864.731,532.865,856.6556,528.1776,859.8222,525.0109,855.1347,527.227,864.731" style="stroke: #A80036; stroke-width: 1.0;"/><line style="stroke: #A80036; stroke-width: 1.0;" x1="528.1776" x2="529.699" y1="859.8222" y2="851.968"/><polygon fill="#A80036" points="538.747,805.254,533.6793,810.3841,536.4657,817.0352,541.5334,811.905,538.747,805.254" style="stroke: #A80036; stroke-width: 1.0;"/><!--MD5=[f082645e429d016de4428bf724ba3622]
@startuml

class  tictactoe.models.Board{
+ {static} EMPTY: char
- coordinates: Coordinate[][]
+ Board()
+ getToken(Coordinate): Token
~ move(Coordinate, Coordinate): void
~ put(Coordinate, Token): void
- remove(Coordinate): void
~ isTicTacToe(Token): boolean
- numberOfCoordinates(Coordinate[]): int
~ isCompleted(): boolean
+ isEmpty(Coordinate): boolean
~ isOccupied(Coordinate, Token): boolean
- checkNumberOfCoordinates(Coordinate[]): boolean
- checkDirectionOfFirstCoordinates(Coordinate[]): boolean
- checkDirectionOfAllCoordinates(Coordinate[]): boolean
}
tictactoe.models.Board *-down-> tictactoe.models.Coordinate
tictactoe.models.Board ..> tictactoe.types.Token
tictactoe.models.Board ..> tictactoe.models.Turn
tictactoe.models.Board ..> utils.Direction

class  tictactoe.models.Coordinate{
+ {static} DIMENSION: char
+ Coordinate()
+ Coordinate(int, int)
~ inDirection(Coordinate): boolean
~ getDirection(Coordinate): Direction
- inInverseDiagonal(): boolean
+ isValid(): boolean
+ random(): void
}
utils.Coordinate <|-down- tictactoe.models.Coordinate
tictactoe.models.Coordinate ..> utils.Direction
tictactoe.models.Coordinate ..> java.util.Random

class  tictactoe.models.Game{
- board: Board
- players: Player[][]
- turn: Turn
+ Game()
+ createPlayers(int): void
+ getBoard(): Board
+ isBoardComplete(): boolean
+ putTokenPlayerFromTurn(Coordinate): void
+ moveTokenPlayerFromTurn(Coordinate[]): void
+ getTokenPlayerFromTurn(int): Player
+ changeTurn(): void
+ isTicTacToe(): boolean
+ getOtherValueFromTurn(): int
}
tictactoe.models.Game *-down-> tictactoe.models.Board
tictactoe.models.Game *-down-> tictactoe.models.Player
tictactoe.models.Game *-down-> tictactoe.models.Turn
tictactoe.models.Game ..> tictactoe.types.Token
tictactoe.models.Game ..> tictactoe.types.PlayerType

class  tictactoe.models.Player{
- token: Token
- board: Board
- type: PlayerType
+ Player(Token, Board, PlayerType)
+ getType(): PlayerType
~ getToken(): Token
~ put(Coordinate): void
~ move(Coordinate[]): void
+ controlErrorsPutCoordinate(Coordinate): Error
+ controlErrorsMoveOriginCoordinate(Coordinate): Error
+ controlErrorsMoveTargetCoordinate(Coordinate, Coordinate): Error
}
tictactoe.models.Player *-down-> tictactoe.types.Token
tictactoe.models.Player *-down-> tictactoe.models.Board
tictactoe.models.Player *-down-> tictactoe.types.PlayerType
tictactoe.models.Player ..> tictactoe.models.Coordinate
tictactoe.models.Player ..> tictactoe.types.Error

class  tictactoe.models.Turn{
+ {static} PLAYERS: int
- value: int
- players: Player[]
+ Turn(Player[])
~ change(): void
~ getPlayer(): Player
~ getOtherValue(): int
~ getOtherPlayer(): Player
}
tictactoe.models.Turn *-down-> tictactoe.models.Player

@enduml

PlantUML version 1.2020.15(Sun Jun 28 13:39:45 CEST 2020)
(GPL source distribution)
Java Runtime: Java(TM) SE Runtime Environment
JVM: Java HotSpot(TM) 64-Bit Server VM
Default Encoding: windows-1252
Language: es
Country: ES
--></g></svg>