<?xml version="1.0" encoding="UTF-8" standalone="no"?><svg xmlns="http://www.w3.org/2000/svg" xmlns:xlink="http://www.w3.org/1999/xlink" contentScriptType="application/ecmascript" contentStyleType="text/css" height="639px" preserveAspectRatio="none" style="width:1637px;height:639px;" version="1.1" viewBox="0 0 1637 639" width="1637px" zoomAndPan="magnify"><defs><filter height="300%" id="f1utmku73l35kr" width="300%" x="-1" y="-1"><feGaussianBlur result="blurOut" stdDeviation="2.0"/><feColorMatrix in="blurOut" result="blurOut2" type="matrix" values="0 0 0 0 0 0 0 0 0 0 0 0 0 0 0 0 0 0 .4 0"/><feOffset dx="4.0" dy="4.0" in="blurOut2" result="blurOut3"/><feBlend in="SourceGraphic" in2="blurOut3" mode="normal"/></filter></defs><g><!--MD5=[64182ab34c08ac367bbf699869515711]
cluster tictactoe.views.console--><polygon fill="#FFFFFF" filter="url(#f1utmku73l35kr)" points="486,130,658,130,665,153.6094,1423,153.6094,1423,627,486,627,486,130" style="stroke: #000000; stroke-width: 1.5;"/><line style="stroke: #000000; stroke-width: 1.5;" x1="486" x2="665" y1="153.6094" y2="153.6094"/><text fill="#000000" font-family="sans-serif" font-size="14" font-weight="bold" lengthAdjust="spacingAndGlyphs" textLength="166" x="490" y="146.5332">tictactoe.views.console</text><!--MD5=[c52f45833d539af9e29a9d34b8b7302b]
cluster utils--><polygon fill="#FFFFFF" filter="url(#f1utmku73l35kr)" points="1447,178.5,1483,178.5,1490,202.1094,1615,202.1094,1615,278.5,1447,278.5,1447,178.5" style="stroke: #000000; stroke-width: 1.5;"/><line style="stroke: #000000; stroke-width: 1.5;" x1="1447" x2="1490" y1="202.1094" y2="202.1094"/><text fill="#000000" font-family="sans-serif" font-size="14" font-weight="bold" lengthAdjust="spacingAndGlyphs" textLength="30" x="1451" y="195.0332">utils</text><!--MD5=[f4e83a21a957c5b9ba9691e6361db36b]
cluster tictactoe.views--><polygon fill="#FFFFFF" filter="url(#f1utmku73l35kr)" points="825,6,937,6,944,29.6094,1163,29.6094,1163,106,825,106,825,6" style="stroke: #000000; stroke-width: 1.5;"/><line style="stroke: #000000; stroke-width: 1.5;" x1="825" x2="944" y1="29.6094" y2="29.6094"/><text fill="#000000" font-family="sans-serif" font-size="14" font-weight="bold" lengthAdjust="spacingAndGlyphs" textLength="106" x="829" y="22.5332">tictactoe.views</text><!--MD5=[ee7e9a007a7c4d40c0679a27f272732d]
cluster tictactoe.controllers--><polygon fill="#FFFFFF" filter="url(#f1utmku73l35kr)" points="16,506,164,506,171,529.6094,462,529.6094,462,606,16,606,16,506" style="stroke: #000000; stroke-width: 1.5;"/><line style="stroke: #000000; stroke-width: 1.5;" x1="16" x2="171" y1="529.6094" y2="529.6094"/><text fill="#000000" font-family="sans-serif" font-size="14" font-weight="bold" lengthAdjust="spacingAndGlyphs" textLength="142" x="20" y="522.5332">tictactoe.controllers</text><!--MD5=[270aad5bca7cd81b5a24665b2403b70b]
class tictactoe.views.console.BoardView--><rect fill="#FEFECE" filter="url(#f1utmku73l35kr)" height="89.5078" id="tictactoe.views.console.BoardView" style="stroke: #A80036; stroke-width: 1.5;" width="118" x="737" y="521"/><ellipse cx="764.15" cy="537" fill="#ADD1B2" rx="11" ry="11" style="stroke: #A80036; stroke-width: 1.0;"/><path d="M766.9156,532.875 Q767.0719,532.6563 767.2594,532.5469 Q767.4469,532.4375 767.6656,532.4375 Q768.0406,532.4375 768.275,532.7031 Q768.5094,532.9531 768.5094,533.5625 L768.5094,535.0156 Q768.5094,535.625 768.275,535.8906 Q768.0406,536.1563 767.6656,536.1563 Q767.3219,536.1563 767.1188,535.9531 Q766.9156,535.7656 766.8063,535.25 Q766.7594,534.8906 766.5719,534.7031 Q766.2438,534.3281 765.6344,534.1094 Q765.025,533.8906 764.4,533.8906 Q763.6344,533.8906 762.9938,534.2188 Q762.3688,534.5469 761.8688,535.2969 Q761.3844,536.0469 761.3844,537.0781 L761.3844,538.1719 Q761.3844,539.4063 762.275,540.2344 Q763.1656,541.0469 764.7594,541.0469 Q765.6969,541.0469 766.3531,540.7969 Q766.7438,540.6406 767.1656,540.2031 Q767.4313,539.9375 767.5719,539.8594 Q767.7281,539.7813 767.9313,539.7813 Q768.2594,539.7813 768.5094,540.0469 Q768.775,540.2969 768.775,540.6406 Q768.775,540.9844 768.4313,541.3906 Q767.9313,541.9688 767.1344,542.2969 Q766.0563,542.75 764.7594,542.75 Q763.2438,542.75 762.0406,542.125 Q761.0563,541.625 760.3688,540.5625 Q759.6813,539.4844 759.6813,538.2031 L759.6813,537.0469 Q759.6813,535.7188 760.2906,534.5781 Q760.9156,533.4219 762.0094,532.8125 Q763.1031,532.1875 764.3375,532.1875 Q765.0719,532.1875 765.7125,532.3594 Q766.3688,532.5156 766.9156,532.875 Z "/><text fill="#000000" font-family="sans-serif" font-size="12" lengthAdjust="spacingAndGlyphs" textLength="59" x="780.85" y="541.9102">BoardView</text><line style="stroke: #A80036; stroke-width: 1.5;" x1="738" x2="854" y1="553" y2="553"/><polygon fill="none" points="748,560,744,566,752,566" style="stroke: #1963A0; stroke-width: 1.0;"/><text fill="#000000" font-family="sans-serif" font-size="11" lengthAdjust="spacingAndGlyphs" textLength="63" x="757" y="568.4189">board: Board</text><line style="stroke: #A80036; stroke-width: 1.5;" x1="738" x2="854" y1="574.8359" y2="574.8359"/><polygon fill="#4177AF" points="748,581.8359,744,587.8359,752,587.8359" style="stroke: #1963A0; stroke-width: 1.0;"/><text fill="#000000" font-family="sans-serif" font-size="11" lengthAdjust="spacingAndGlyphs" textLength="92" x="757" y="590.2549">BoardView(Board)</text><polygon fill="#4177AF" points="748,595.6719,744,601.6719,752,601.6719" style="stroke: #1963A0; stroke-width: 1.0;"/><text fill="#000000" font-family="sans-serif" font-size="11" lengthAdjust="spacingAndGlyphs" textLength="59" x="757" y="604.0908">write(): void</text><!--MD5=[0e5b47c419ba94b2bd3b06fa97d12493]
class tictactoe.views.console.ChoosePlayerView--><rect fill="#FEFECE" filter="url(#f1utmku73l35kr)" height="61.8359" id="tictactoe.views.console.ChoosePlayerView" style="stroke: #A80036; stroke-width: 1.5;" width="136" x="1102" y="535"/><ellipse cx="1117" cy="551" fill="#ADD1B2" rx="11" ry="11" style="stroke: #A80036; stroke-width: 1.0;"/><path d="M1119.7656,546.875 Q1119.9219,546.6563 1120.1094,546.5469 Q1120.2969,546.4375 1120.5156,546.4375 Q1120.8906,546.4375 1121.125,546.7031 Q1121.3594,546.9531 1121.3594,547.5625 L1121.3594,549.0156 Q1121.3594,549.625 1121.125,549.8906 Q1120.8906,550.1563 1120.5156,550.1563 Q1120.1719,550.1563 1119.9688,549.9531 Q1119.7656,549.7656 1119.6563,549.25 Q1119.6094,548.8906 1119.4219,548.7031 Q1119.0938,548.3281 1118.4844,548.1094 Q1117.875,547.8906 1117.25,547.8906 Q1116.4844,547.8906 1115.8438,548.2188 Q1115.2188,548.5469 1114.7188,549.2969 Q1114.2344,550.0469 1114.2344,551.0781 L1114.2344,552.1719 Q1114.2344,553.4063 1115.125,554.2344 Q1116.0156,555.0469 1117.6094,555.0469 Q1118.5469,555.0469 1119.2031,554.7969 Q1119.5938,554.6406 1120.0156,554.2031 Q1120.2813,553.9375 1120.4219,553.8594 Q1120.5781,553.7813 1120.7813,553.7813 Q1121.1094,553.7813 1121.3594,554.0469 Q1121.625,554.2969 1121.625,554.6406 Q1121.625,554.9844 1121.2813,555.3906 Q1120.7813,555.9688 1119.9844,556.2969 Q1118.9063,556.75 1117.6094,556.75 Q1116.0938,556.75 1114.8906,556.125 Q1113.9063,555.625 1113.2188,554.5625 Q1112.5313,553.4844 1112.5313,552.2031 L1112.5313,551.0469 Q1112.5313,549.7188 1113.1406,548.5781 Q1113.7656,547.4219 1114.8594,546.8125 Q1115.9531,546.1875 1117.1875,546.1875 Q1117.9219,546.1875 1118.5625,546.3594 Q1119.2188,546.5156 1119.7656,546.875 Z "/><text fill="#000000" font-family="sans-serif" font-size="12" lengthAdjust="spacingAndGlyphs" textLength="104" x="1131" y="555.9102">ChoosePlayerView</text><line style="stroke: #A80036; stroke-width: 1.5;" x1="1103" x2="1237" y1="567" y2="567"/><line style="stroke: #A80036; stroke-width: 1.5;" x1="1103" x2="1237" y1="575" y2="575"/><polygon fill="#4177AF" points="1113,582,1109,588,1117,588" style="stroke: #1963A0; stroke-width: 1.0;"/><text fill="#000000" font-family="sans-serif" font-size="11" lengthAdjust="spacingAndGlyphs" textLength="92" x="1122" y="590.4189">readPlayers(): void</text><!--MD5=[bde0c8ed193d8d2dbac1dee471354ab0]
class tictactoe.views.console.ConsoleView--><rect fill="#FEFECE" filter="url(#f1utmku73l35kr)" height="144.8516" id="tictactoe.views.console.ConsoleView" style="stroke: #A80036; stroke-width: 1.5;" width="322" x="515" y="166"/><ellipse cx="635.25" cy="182" fill="#ADD1B2" rx="11" ry="11" style="stroke: #A80036; stroke-width: 1.0;"/><path d="M638.0156,177.875 Q638.1719,177.6563 638.3594,177.5469 Q638.5469,177.4375 638.7656,177.4375 Q639.1406,177.4375 639.375,177.7031 Q639.6094,177.9531 639.6094,178.5625 L639.6094,180.0156 Q639.6094,180.625 639.375,180.8906 Q639.1406,181.1563 638.7656,181.1563 Q638.4219,181.1563 638.2188,180.9531 Q638.0156,180.7656 637.9063,180.25 Q637.8594,179.8906 637.6719,179.7031 Q637.3438,179.3281 636.7344,179.1094 Q636.125,178.8906 635.5,178.8906 Q634.7344,178.8906 634.0938,179.2188 Q633.4688,179.5469 632.9688,180.2969 Q632.4844,181.0469 632.4844,182.0781 L632.4844,183.1719 Q632.4844,184.4063 633.375,185.2344 Q634.2656,186.0469 635.8594,186.0469 Q636.7969,186.0469 637.4531,185.7969 Q637.8438,185.6406 638.2656,185.2031 Q638.5313,184.9375 638.6719,184.8594 Q638.8281,184.7813 639.0313,184.7813 Q639.3594,184.7813 639.6094,185.0469 Q639.875,185.2969 639.875,185.6406 Q639.875,185.9844 639.5313,186.3906 Q639.0313,186.9688 638.2344,187.2969 Q637.1563,187.75 635.8594,187.75 Q634.3438,187.75 633.1406,187.125 Q632.1563,186.625 631.4688,185.5625 Q630.7813,184.4844 630.7813,183.2031 L630.7813,182.0469 Q630.7813,180.7188 631.3906,179.5781 Q632.0156,178.4219 633.1094,177.8125 Q634.2031,177.1875 635.4375,177.1875 Q636.1719,177.1875 636.8125,177.3594 Q637.4688,177.5156 638.0156,177.875 Z "/><text fill="#000000" font-family="sans-serif" font-size="12" lengthAdjust="spacingAndGlyphs" textLength="73" x="655.75" y="186.9102">ConsoleView</text><line style="stroke: #A80036; stroke-width: 1.5;" x1="516" x2="836" y1="198" y2="198"/><rect fill="none" height="6" style="stroke: #C82930; stroke-width: 1.0;" width="6" x="523" y="206"/><text fill="#000000" font-family="sans-serif" font-size="11" lengthAdjust="spacingAndGlyphs" textLength="103" x="535" y="213.4189">startView: StartView</text><rect fill="none" height="6" style="stroke: #C82930; stroke-width: 1.0;" width="6" x="523" y="219.8359"/><text fill="#000000" font-family="sans-serif" font-size="11" lengthAdjust="spacingAndGlyphs" textLength="98" x="535" y="227.2549">playView: PlayView</text><rect fill="none" height="6" style="stroke: #C82930; stroke-width: 1.0;" width="6" x="523" y="233.6719"/><text fill="#000000" font-family="sans-serif" font-size="11" lengthAdjust="spacingAndGlyphs" textLength="115" x="535" y="241.0908">resultView: ResultView</text><line style="stroke: #A80036; stroke-width: 1.5;" x1="516" x2="836" y1="247.5078" y2="247.5078"/><ellipse cx="526" cy="258.5078" fill="#84BE84" rx="3" ry="3" style="stroke: #038048; stroke-width: 1.0;"/><text fill="#000000" font-family="sans-serif" font-size="11" lengthAdjust="spacingAndGlyphs" textLength="296" x="535" y="262.9268">ConsoleView(StartController, PlayController, ResultController)</text><polygon fill="#FFFF44" points="526,267.3438,530,271.3438,526,275.3438,522,271.3438" style="stroke: #B38D22; stroke-width: 1.0;"/><text fill="#000000" font-family="sans-serif" font-size="11" lengthAdjust="spacingAndGlyphs" textLength="56" x="535" y="276.7627">start(): void</text><polygon fill="#FFFF44" points="526,281.1797,530,285.1797,526,289.1797,522,285.1797" style="stroke: #B38D22; stroke-width: 1.0;"/><text fill="#000000" font-family="sans-serif" font-size="11" lengthAdjust="spacingAndGlyphs" textLength="72" x="535" y="290.5986">play(): boolean</text><polygon fill="#FFFF44" points="526,295.0156,530,299.0156,526,303.0156,522,299.0156" style="stroke: #B38D22; stroke-width: 1.0;"/><text fill="#000000" font-family="sans-serif" font-size="11" lengthAdjust="spacingAndGlyphs" textLength="61" x="535" y="304.4346">result(): void</text><!--MD5=[54aa299435631381f3c0c028f26a058f]
class tictactoe.views.console.StartView--><rect fill="#FEFECE" filter="url(#f1utmku73l35kr)" height="89.5078" id="tictactoe.views.console.StartView" style="stroke: #A80036; stroke-width: 1.5;" width="169" x="917.5" y="371"/><ellipse cx="972.25" cy="387" fill="#ADD1B2" rx="11" ry="11" style="stroke: #A80036; stroke-width: 1.0;"/><path d="M975.0156,382.875 Q975.1719,382.6563 975.3594,382.5469 Q975.5469,382.4375 975.7656,382.4375 Q976.1406,382.4375 976.375,382.7031 Q976.6094,382.9531 976.6094,383.5625 L976.6094,385.0156 Q976.6094,385.625 976.375,385.8906 Q976.1406,386.1563 975.7656,386.1563 Q975.4219,386.1563 975.2188,385.9531 Q975.0156,385.7656 974.9063,385.25 Q974.8594,384.8906 974.6719,384.7031 Q974.3438,384.3281 973.7344,384.1094 Q973.125,383.8906 972.5,383.8906 Q971.7344,383.8906 971.0938,384.2188 Q970.4688,384.5469 969.9688,385.2969 Q969.4844,386.0469 969.4844,387.0781 L969.4844,388.1719 Q969.4844,389.4063 970.375,390.2344 Q971.2656,391.0469 972.8594,391.0469 Q973.7969,391.0469 974.4531,390.7969 Q974.8438,390.6406 975.2656,390.2031 Q975.5313,389.9375 975.6719,389.8594 Q975.8281,389.7813 976.0313,389.7813 Q976.3594,389.7813 976.6094,390.0469 Q976.875,390.2969 976.875,390.6406 Q976.875,390.9844 976.5313,391.3906 Q976.0313,391.9688 975.2344,392.2969 Q974.1563,392.75 972.8594,392.75 Q971.3438,392.75 970.1406,392.125 Q969.1563,391.625 968.4688,390.5625 Q967.7813,389.4844 967.7813,388.2031 L967.7813,387.0469 Q967.7813,385.7188 968.3906,384.5781 Q969.0156,383.4219 970.1094,382.8125 Q971.2031,382.1875 972.4375,382.1875 Q973.1719,382.1875 973.8125,382.3594 Q974.4688,382.5156 975.0156,382.875 Z "/><text fill="#000000" font-family="sans-serif" font-size="12" lengthAdjust="spacingAndGlyphs" textLength="51" x="992.75" y="391.9102">StartView</text><line style="stroke: #A80036; stroke-width: 1.5;" x1="918.5" x2="1085.5" y1="403" y2="403"/><polygon fill="none" points="928.5,410,924.5,416,932.5,416" style="stroke: #1963A0; stroke-width: 1.0;"/><text fill="#000000" font-family="sans-serif" font-size="11" lengthAdjust="spacingAndGlyphs" textLength="143" x="937.5" y="418.4189">startController: StartController</text><line style="stroke: #A80036; stroke-width: 1.5;" x1="918.5" x2="1085.5" y1="424.8359" y2="424.8359"/><polygon fill="#4177AF" points="928.5,431.8359,924.5,437.8359,932.5,437.8359" style="stroke: #1963A0; stroke-width: 1.0;"/><text fill="#000000" font-family="sans-serif" font-size="11" lengthAdjust="spacingAndGlyphs" textLength="126" x="937.5" y="440.2549">StartView(StartController)</text><polygon fill="#4177AF" points="928.5,445.6719,924.5,451.6719,932.5,451.6719" style="stroke: #1963A0; stroke-width: 1.0;"/><text fill="#000000" font-family="sans-serif" font-size="11" lengthAdjust="spacingAndGlyphs" textLength="70" x="937.5" y="454.0908">interact(): void</text><!--MD5=[0158df0baddf48f83142f472e341eacc]
class tictactoe.views.console.PlayView--><rect fill="#FEFECE" filter="url(#f1utmku73l35kr)" height="89.5078" id="tictactoe.views.console.PlayView" style="stroke: #A80036; stroke-width: 1.5;" width="164" x="502" y="371"/><ellipse cx="555.25" cy="387" fill="#ADD1B2" rx="11" ry="11" style="stroke: #A80036; stroke-width: 1.0;"/><path d="M558.0156,382.875 Q558.1719,382.6563 558.3594,382.5469 Q558.5469,382.4375 558.7656,382.4375 Q559.1406,382.4375 559.375,382.7031 Q559.6094,382.9531 559.6094,383.5625 L559.6094,385.0156 Q559.6094,385.625 559.375,385.8906 Q559.1406,386.1563 558.7656,386.1563 Q558.4219,386.1563 558.2188,385.9531 Q558.0156,385.7656 557.9063,385.25 Q557.8594,384.8906 557.6719,384.7031 Q557.3438,384.3281 556.7344,384.1094 Q556.125,383.8906 555.5,383.8906 Q554.7344,383.8906 554.0938,384.2188 Q553.4688,384.5469 552.9688,385.2969 Q552.4844,386.0469 552.4844,387.0781 L552.4844,388.1719 Q552.4844,389.4063 553.375,390.2344 Q554.2656,391.0469 555.8594,391.0469 Q556.7969,391.0469 557.4531,390.7969 Q557.8438,390.6406 558.2656,390.2031 Q558.5313,389.9375 558.6719,389.8594 Q558.8281,389.7813 559.0313,389.7813 Q559.3594,389.7813 559.6094,390.0469 Q559.875,390.2969 559.875,390.6406 Q559.875,390.9844 559.5313,391.3906 Q559.0313,391.9688 558.2344,392.2969 Q557.1563,392.75 555.8594,392.75 Q554.3438,392.75 553.1406,392.125 Q552.1563,391.625 551.4688,390.5625 Q550.7813,389.4844 550.7813,388.2031 L550.7813,387.0469 Q550.7813,385.7188 551.3906,384.5781 Q552.0156,383.4219 553.1094,382.8125 Q554.2031,382.1875 555.4375,382.1875 Q556.1719,382.1875 556.8125,382.3594 Q557.4688,382.5156 558.0156,382.875 Z "/><text fill="#000000" font-family="sans-serif" font-size="12" lengthAdjust="spacingAndGlyphs" textLength="49" x="575.75" y="391.9102">PlayView</text><line style="stroke: #A80036; stroke-width: 1.5;" x1="503" x2="665" y1="403" y2="403"/><polygon fill="none" points="513,410,509,416,517,416" style="stroke: #1963A0; stroke-width: 1.0;"/><text fill="#000000" font-family="sans-serif" font-size="11" lengthAdjust="spacingAndGlyphs" textLength="138" x="522" y="418.4189">playController: PlayController</text><line style="stroke: #A80036; stroke-width: 1.5;" x1="503" x2="665" y1="424.8359" y2="424.8359"/><polygon fill="#4177AF" points="513,431.8359,509,437.8359,517,437.8359" style="stroke: #1963A0; stroke-width: 1.0;"/><text fill="#000000" font-family="sans-serif" font-size="11" lengthAdjust="spacingAndGlyphs" textLength="120" x="522" y="440.2549">PlayView(PlayController)</text><polygon fill="#4177AF" points="513,445.6719,509,451.6719,517,451.6719" style="stroke: #1963A0; stroke-width: 1.0;"/><text fill="#000000" font-family="sans-serif" font-size="11" lengthAdjust="spacingAndGlyphs" textLength="88" x="522" y="454.0908">interact(): boolean</text><!--MD5=[4ad8229f56e3458317cb6855b3145039]
class tictactoe.views.console.ResultView--><rect fill="#FEFECE" filter="url(#f1utmku73l35kr)" height="89.5078" id="tictactoe.views.console.ResultView" style="stroke: #A80036; stroke-width: 1.5;" width="181" x="701.5" y="371"/><ellipse cx="756.75" cy="387" fill="#ADD1B2" rx="11" ry="11" style="stroke: #A80036; stroke-width: 1.0;"/><path d="M759.5156,382.875 Q759.6719,382.6563 759.8594,382.5469 Q760.0469,382.4375 760.2656,382.4375 Q760.6406,382.4375 760.875,382.7031 Q761.1094,382.9531 761.1094,383.5625 L761.1094,385.0156 Q761.1094,385.625 760.875,385.8906 Q760.6406,386.1563 760.2656,386.1563 Q759.9219,386.1563 759.7188,385.9531 Q759.5156,385.7656 759.4063,385.25 Q759.3594,384.8906 759.1719,384.7031 Q758.8438,384.3281 758.2344,384.1094 Q757.625,383.8906 757,383.8906 Q756.2344,383.8906 755.5938,384.2188 Q754.9688,384.5469 754.4688,385.2969 Q753.9844,386.0469 753.9844,387.0781 L753.9844,388.1719 Q753.9844,389.4063 754.875,390.2344 Q755.7656,391.0469 757.3594,391.0469 Q758.2969,391.0469 758.9531,390.7969 Q759.3438,390.6406 759.7656,390.2031 Q760.0313,389.9375 760.1719,389.8594 Q760.3281,389.7813 760.5313,389.7813 Q760.8594,389.7813 761.1094,390.0469 Q761.375,390.2969 761.375,390.6406 Q761.375,390.9844 761.0313,391.3906 Q760.5313,391.9688 759.7344,392.2969 Q758.6563,392.75 757.3594,392.75 Q755.8438,392.75 754.6406,392.125 Q753.6563,391.625 752.9688,390.5625 Q752.2813,389.4844 752.2813,388.2031 L752.2813,387.0469 Q752.2813,385.7188 752.8906,384.5781 Q753.5156,383.4219 754.6094,382.8125 Q755.7031,382.1875 756.9375,382.1875 Q757.6719,382.1875 758.3125,382.3594 Q758.9688,382.5156 759.5156,382.875 Z "/><text fill="#000000" font-family="sans-serif" font-size="12" lengthAdjust="spacingAndGlyphs" textLength="62" x="777.25" y="391.9102">ResultView</text><line style="stroke: #A80036; stroke-width: 1.5;" x1="702.5" x2="881.5" y1="403" y2="403"/><polygon fill="none" points="712.5,410,708.5,416,716.5,416" style="stroke: #1963A0; stroke-width: 1.0;"/><text fill="#000000" font-family="sans-serif" font-size="11" lengthAdjust="spacingAndGlyphs" textLength="155" x="721.5" y="418.4189">resultController: ResultController</text><line style="stroke: #A80036; stroke-width: 1.5;" x1="702.5" x2="881.5" y1="424.8359" y2="424.8359"/><polygon fill="#4177AF" points="712.5,431.8359,708.5,437.8359,716.5,437.8359" style="stroke: #1963A0; stroke-width: 1.0;"/><text fill="#000000" font-family="sans-serif" font-size="11" lengthAdjust="spacingAndGlyphs" textLength="140" x="721.5" y="440.2549">ResultView(ResultController)</text><polygon fill="#4177AF" points="712.5,445.6719,708.5,451.6719,716.5,451.6719" style="stroke: #1963A0; stroke-width: 1.0;"/><text fill="#000000" font-family="sans-serif" font-size="11" lengthAdjust="spacingAndGlyphs" textLength="70" x="721.5" y="454.0908">interact(): void</text><!--MD5=[8830b246a550294711e6eb5af1606829]
class tictactoe.views.console.CoordinateView--><rect fill="#FEFECE" filter="url(#f1utmku73l35kr)" height="61.8359" id="tictactoe.views.console.CoordinateView" style="stroke: #A80036; stroke-width: 1.5;" width="142" x="1265" y="385"/><ellipse cx="1290.35" cy="401" fill="#ADD1B2" rx="11" ry="11" style="stroke: #A80036; stroke-width: 1.0;"/><path d="M1293.1156,396.875 Q1293.2719,396.6563 1293.4594,396.5469 Q1293.6469,396.4375 1293.8656,396.4375 Q1294.2406,396.4375 1294.475,396.7031 Q1294.7094,396.9531 1294.7094,397.5625 L1294.7094,399.0156 Q1294.7094,399.625 1294.475,399.8906 Q1294.2406,400.1563 1293.8656,400.1563 Q1293.5219,400.1563 1293.3188,399.9531 Q1293.1156,399.7656 1293.0063,399.25 Q1292.9594,398.8906 1292.7719,398.7031 Q1292.4438,398.3281 1291.8344,398.1094 Q1291.225,397.8906 1290.6,397.8906 Q1289.8344,397.8906 1289.1938,398.2188 Q1288.5688,398.5469 1288.0688,399.2969 Q1287.5844,400.0469 1287.5844,401.0781 L1287.5844,402.1719 Q1287.5844,403.4063 1288.475,404.2344 Q1289.3656,405.0469 1290.9594,405.0469 Q1291.8969,405.0469 1292.5531,404.7969 Q1292.9438,404.6406 1293.3656,404.2031 Q1293.6313,403.9375 1293.7719,403.8594 Q1293.9281,403.7813 1294.1313,403.7813 Q1294.4594,403.7813 1294.7094,404.0469 Q1294.975,404.2969 1294.975,404.6406 Q1294.975,404.9844 1294.6313,405.3906 Q1294.1313,405.9688 1293.3344,406.2969 Q1292.2563,406.75 1290.9594,406.75 Q1289.4438,406.75 1288.2406,406.125 Q1287.2563,405.625 1286.5688,404.5625 Q1285.8813,403.4844 1285.8813,402.2031 L1285.8813,401.0469 Q1285.8813,399.7188 1286.4906,398.5781 Q1287.1156,397.4219 1288.2094,396.8125 Q1289.3031,396.1875 1290.5375,396.1875 Q1291.2719,396.1875 1291.9125,396.3594 Q1292.5688,396.5156 1293.1156,396.875 Z "/><text fill="#000000" font-family="sans-serif" font-size="12" lengthAdjust="spacingAndGlyphs" textLength="87" x="1306.65" y="405.9102">CoordinateView</text><line style="stroke: #A80036; stroke-width: 1.5;" x1="1266" x2="1406" y1="417" y2="417"/><line style="stroke: #A80036; stroke-width: 1.5;" x1="1266" x2="1406" y1="425" y2="425"/><polygon fill="#4177AF" points="1276,432,1272,438,1280,438" style="stroke: #1963A0; stroke-width: 1.0;"/><text fill="#000000" font-family="sans-serif" font-size="11" lengthAdjust="spacingAndGlyphs" textLength="116" x="1285" y="440.4189">read(String): Coordinate</text><!--MD5=[1ca4e66fd27a79cb5d7093d90b3139a4]
class tictactoe.views.console.ErrorView--><rect fill="#FEFECE" filter="url(#f1utmku73l35kr)" height="75.6719" id="tictactoe.views.console.ErrorView" style="stroke: #A80036; stroke-width: 1.5;" width="108" x="1122" y="378"/><ellipse cx="1147.35" cy="394" fill="#ADD1B2" rx="11" ry="11" style="stroke: #A80036; stroke-width: 1.0;"/><path d="M1150.1156,389.875 Q1150.2719,389.6563 1150.4594,389.5469 Q1150.6469,389.4375 1150.8656,389.4375 Q1151.2406,389.4375 1151.475,389.7031 Q1151.7094,389.9531 1151.7094,390.5625 L1151.7094,392.0156 Q1151.7094,392.625 1151.475,392.8906 Q1151.2406,393.1563 1150.8656,393.1563 Q1150.5219,393.1563 1150.3188,392.9531 Q1150.1156,392.7656 1150.0063,392.25 Q1149.9594,391.8906 1149.7719,391.7031 Q1149.4438,391.3281 1148.8344,391.1094 Q1148.225,390.8906 1147.6,390.8906 Q1146.8344,390.8906 1146.1938,391.2188 Q1145.5688,391.5469 1145.0688,392.2969 Q1144.5844,393.0469 1144.5844,394.0781 L1144.5844,395.1719 Q1144.5844,396.4063 1145.475,397.2344 Q1146.3656,398.0469 1147.9594,398.0469 Q1148.8969,398.0469 1149.5531,397.7969 Q1149.9438,397.6406 1150.3656,397.2031 Q1150.6313,396.9375 1150.7719,396.8594 Q1150.9281,396.7813 1151.1313,396.7813 Q1151.4594,396.7813 1151.7094,397.0469 Q1151.975,397.2969 1151.975,397.6406 Q1151.975,397.9844 1151.6313,398.3906 Q1151.1313,398.9688 1150.3344,399.2969 Q1149.2563,399.75 1147.9594,399.75 Q1146.4438,399.75 1145.2406,399.125 Q1144.2563,398.625 1143.5688,397.5625 Q1142.8813,396.4844 1142.8813,395.2031 L1142.8813,394.0469 Q1142.8813,392.7188 1143.4906,391.5781 Q1144.1156,390.4219 1145.2094,389.8125 Q1146.3031,389.1875 1147.5375,389.1875 Q1148.2719,389.1875 1148.9125,389.3594 Q1149.5688,389.5156 1150.1156,389.875 Z "/><text fill="#000000" font-family="sans-serif" font-size="12" lengthAdjust="spacingAndGlyphs" textLength="53" x="1163.65" y="398.9102">ErrorView</text><line style="stroke: #A80036; stroke-width: 1.5;" x1="1123" x2="1229" y1="410" y2="410"/><line style="stroke: #A80036; stroke-width: 1.5;" x1="1123" x2="1229" y1="418" y2="418"/><polygon fill="#4177AF" points="1133,425,1129,431,1137,431" style="stroke: #1963A0; stroke-width: 1.0;"/><text fill="#000000" font-family="sans-serif" font-size="11" lengthAdjust="spacingAndGlyphs" textLength="82" x="1142" y="433.4189">ErrorView(Error)</text><polygon fill="#4177AF" points="1133,438.8359,1129,444.8359,1137,444.8359" style="stroke: #1963A0; stroke-width: 1.0;"/><text fill="#000000" font-family="sans-serif" font-size="11" lengthAdjust="spacingAndGlyphs" textLength="67" x="1142" y="447.2549">writeln(): void</text><!--MD5=[4afe6aabb27d783e4a9a9dcc50c35fae]
class tictactoe.views.console.MachinePlayerView--><rect fill="#FEFECE" filter="url(#f1utmku73l35kr)" height="89.5078" id="tictactoe.views.console.MachinePlayerView" style="stroke: #A80036; stroke-width: 1.5;" width="216" x="872" y="193.5"/><ellipse cx="922.75" cy="209.5" fill="#ADD1B2" rx="11" ry="11" style="stroke: #A80036; stroke-width: 1.0;"/><path d="M925.5156,205.375 Q925.6719,205.1563 925.8594,205.0469 Q926.0469,204.9375 926.2656,204.9375 Q926.6406,204.9375 926.875,205.2031 Q927.1094,205.4531 927.1094,206.0625 L927.1094,207.5156 Q927.1094,208.125 926.875,208.3906 Q926.6406,208.6563 926.2656,208.6563 Q925.9219,208.6563 925.7188,208.4531 Q925.5156,208.2656 925.4063,207.75 Q925.3594,207.3906 925.1719,207.2031 Q924.8438,206.8281 924.2344,206.6094 Q923.625,206.3906 923,206.3906 Q922.2344,206.3906 921.5938,206.7188 Q920.9688,207.0469 920.4688,207.7969 Q919.9844,208.5469 919.9844,209.5781 L919.9844,210.6719 Q919.9844,211.9063 920.875,212.7344 Q921.7656,213.5469 923.3594,213.5469 Q924.2969,213.5469 924.9531,213.2969 Q925.3438,213.1406 925.7656,212.7031 Q926.0313,212.4375 926.1719,212.3594 Q926.3281,212.2813 926.5313,212.2813 Q926.8594,212.2813 927.1094,212.5469 Q927.375,212.7969 927.375,213.1406 Q927.375,213.4844 927.0313,213.8906 Q926.5313,214.4688 925.7344,214.7969 Q924.6563,215.25 923.3594,215.25 Q921.8438,215.25 920.6406,214.625 Q919.6563,214.125 918.9688,213.0625 Q918.2813,211.9844 918.2813,210.7031 L918.2813,209.5469 Q918.2813,208.2188 918.8906,207.0781 Q919.5156,205.9219 920.6094,205.3125 Q921.7031,204.6875 922.9375,204.6875 Q923.6719,204.6875 924.3125,204.8594 Q924.9688,205.0156 925.5156,205.375 Z "/><text fill="#000000" font-family="sans-serif" font-size="12" lengthAdjust="spacingAndGlyphs" textLength="106" x="943.25" y="214.4102">MachinePlayerView</text><line style="stroke: #A80036; stroke-width: 1.5;" x1="873" x2="1087" y1="225.5" y2="225.5"/><line style="stroke: #A80036; stroke-width: 1.5;" x1="873" x2="1087" y1="233.5" y2="233.5"/><polygon fill="#4177AF" points="883,240.5,879,246.5,887,246.5" style="stroke: #1963A0; stroke-width: 1.0;"/><text fill="#000000" font-family="sans-serif" font-size="11" lengthAdjust="spacingAndGlyphs" textLength="134" x="892" y="248.9189">MachinePlayerView(Player)</text><polygon fill="#4177AF" points="883,254.3359,879,260.3359,887,260.3359" style="stroke: #1963A0; stroke-width: 1.0;"/><text fill="#000000" font-family="sans-serif" font-size="11" lengthAdjust="spacingAndGlyphs" textLength="167" x="892" y="262.7549">readCoordinateToPut(): Coordinate</text><polygon fill="#4177AF" points="883,268.1719,879,274.1719,887,274.1719" style="stroke: #1963A0; stroke-width: 1.0;"/><text fill="#000000" font-family="sans-serif" font-size="11" lengthAdjust="spacingAndGlyphs" textLength="190" x="892" y="276.5908">readCoordinatesToMove(): Coordinate[]</text><!--MD5=[d4f4ae14a368e3fcfff527b6459d05f0]
class tictactoe.views.console.UserPlayerView--><rect fill="#FEFECE" filter="url(#f1utmku73l35kr)" height="117.1797" id="tictactoe.views.console.UserPlayerView" style="stroke: #A80036; stroke-width: 1.5;" width="233" x="1123.5" y="180"/><ellipse cx="1192.25" cy="196" fill="#ADD1B2" rx="11" ry="11" style="stroke: #A80036; stroke-width: 1.0;"/><path d="M1195.0156,191.875 Q1195.1719,191.6563 1195.3594,191.5469 Q1195.5469,191.4375 1195.7656,191.4375 Q1196.1406,191.4375 1196.375,191.7031 Q1196.6094,191.9531 1196.6094,192.5625 L1196.6094,194.0156 Q1196.6094,194.625 1196.375,194.8906 Q1196.1406,195.1563 1195.7656,195.1563 Q1195.4219,195.1563 1195.2188,194.9531 Q1195.0156,194.7656 1194.9063,194.25 Q1194.8594,193.8906 1194.6719,193.7031 Q1194.3438,193.3281 1193.7344,193.1094 Q1193.125,192.8906 1192.5,192.8906 Q1191.7344,192.8906 1191.0938,193.2188 Q1190.4688,193.5469 1189.9688,194.2969 Q1189.4844,195.0469 1189.4844,196.0781 L1189.4844,197.1719 Q1189.4844,198.4063 1190.375,199.2344 Q1191.2656,200.0469 1192.8594,200.0469 Q1193.7969,200.0469 1194.4531,199.7969 Q1194.8438,199.6406 1195.2656,199.2031 Q1195.5313,198.9375 1195.6719,198.8594 Q1195.8281,198.7813 1196.0313,198.7813 Q1196.3594,198.7813 1196.6094,199.0469 Q1196.875,199.2969 1196.875,199.6406 Q1196.875,199.9844 1196.5313,200.3906 Q1196.0313,200.9688 1195.2344,201.2969 Q1194.1563,201.75 1192.8594,201.75 Q1191.3438,201.75 1190.1406,201.125 Q1189.1563,200.625 1188.4688,199.5625 Q1187.7813,198.4844 1187.7813,197.2031 L1187.7813,196.0469 Q1187.7813,194.7188 1188.3906,193.5781 Q1189.0156,192.4219 1190.1094,191.8125 Q1191.2031,191.1875 1192.4375,191.1875 Q1193.1719,191.1875 1193.8125,191.3594 Q1194.4688,191.5156 1195.0156,191.875 Z "/><text fill="#000000" font-family="sans-serif" font-size="12" lengthAdjust="spacingAndGlyphs" textLength="87" x="1212.75" y="200.9102">UserPlayerView</text><line style="stroke: #A80036; stroke-width: 1.5;" x1="1124.5" x2="1355.5" y1="212" y2="212"/><polygon fill="none" points="1134.5,219,1130.5,225,1138.5,225" style="stroke: #1963A0; stroke-width: 1.0;"/><text fill="#000000" font-family="sans-serif" font-size="11" lengthAdjust="spacingAndGlyphs" text-decoration="underline" textLength="183" x="1143.5" y="227.4189">ENTER_COORDINATE_TO_PUT: String</text><polygon fill="none" points="1134.5,232.8359,1130.5,238.8359,1138.5,238.8359" style="stroke: #1963A0; stroke-width: 1.0;"/><text fill="#000000" font-family="sans-serif" font-size="11" lengthAdjust="spacingAndGlyphs" text-decoration="underline" textLength="207" x="1143.5" y="241.2549">ENTER_COORDINATE_TO_REMOVE: String</text><line style="stroke: #A80036; stroke-width: 1.5;" x1="1124.5" x2="1355.5" y1="247.6719" y2="247.6719"/><polygon fill="#4177AF" points="1134.5,254.6719,1130.5,260.6719,1138.5,260.6719" style="stroke: #1963A0; stroke-width: 1.0;"/><text fill="#000000" font-family="sans-serif" font-size="11" lengthAdjust="spacingAndGlyphs" textLength="117" x="1143.5" y="263.0908">UserPlayerView(Player)</text><polygon fill="#4177AF" points="1134.5,268.5078,1130.5,274.5078,1138.5,274.5078" style="stroke: #1963A0; stroke-width: 1.0;"/><text fill="#000000" font-family="sans-serif" font-size="11" lengthAdjust="spacingAndGlyphs" textLength="167" x="1143.5" y="276.9268">readCoordinateToPut(): Coordinate</text><polygon fill="#4177AF" points="1134.5,282.3438,1130.5,288.3438,1138.5,288.3438" style="stroke: #1963A0; stroke-width: 1.0;"/><text fill="#000000" font-family="sans-serif" font-size="11" lengthAdjust="spacingAndGlyphs" textLength="190" x="1143.5" y="290.7627">readCoordinatesToMove(): Coordinate[]</text><!--MD5=[959c5b36bcbb0655df73030dc49c5e5e]
class utils.WithConsoleModel--><rect fill="#FEFECE" filter="url(#f1utmku73l35kr)" height="48" id="utils.WithConsoleModel" style="stroke: #A80036; stroke-width: 1.5;" width="136" x="1463" y="214.5"/><ellipse cx="1478" cy="230.5" fill="#ADD1B2" rx="11" ry="11" style="stroke: #A80036; stroke-width: 1.0;"/><path d="M1480.7656,226.375 Q1480.9219,226.1563 1481.1094,226.0469 Q1481.2969,225.9375 1481.5156,225.9375 Q1481.8906,225.9375 1482.125,226.2031 Q1482.3594,226.4531 1482.3594,227.0625 L1482.3594,228.5156 Q1482.3594,229.125 1482.125,229.3906 Q1481.8906,229.6563 1481.5156,229.6563 Q1481.1719,229.6563 1480.9688,229.4531 Q1480.7656,229.2656 1480.6563,228.75 Q1480.6094,228.3906 1480.4219,228.2031 Q1480.0938,227.8281 1479.4844,227.6094 Q1478.875,227.3906 1478.25,227.3906 Q1477.4844,227.3906 1476.8438,227.7188 Q1476.2188,228.0469 1475.7188,228.7969 Q1475.2344,229.5469 1475.2344,230.5781 L1475.2344,231.6719 Q1475.2344,232.9063 1476.125,233.7344 Q1477.0156,234.5469 1478.6094,234.5469 Q1479.5469,234.5469 1480.2031,234.2969 Q1480.5938,234.1406 1481.0156,233.7031 Q1481.2813,233.4375 1481.4219,233.3594 Q1481.5781,233.2813 1481.7813,233.2813 Q1482.1094,233.2813 1482.3594,233.5469 Q1482.625,233.7969 1482.625,234.1406 Q1482.625,234.4844 1482.2813,234.8906 Q1481.7813,235.4688 1480.9844,235.7969 Q1479.9063,236.25 1478.6094,236.25 Q1477.0938,236.25 1475.8906,235.625 Q1474.9063,235.125 1474.2188,234.0625 Q1473.5313,232.9844 1473.5313,231.7031 L1473.5313,230.5469 Q1473.5313,229.2188 1474.1406,228.0781 Q1474.7656,226.9219 1475.8594,226.3125 Q1476.9531,225.6875 1478.1875,225.6875 Q1478.9219,225.6875 1479.5625,225.8594 Q1480.2188,226.0156 1480.7656,226.375 Z "/><text fill="#000000" font-family="sans-serif" font-size="12" lengthAdjust="spacingAndGlyphs" textLength="104" x="1492" y="235.4102">WithConsoleModel</text><line style="stroke: #A80036; stroke-width: 1.5;" x1="1464" x2="1598" y1="246.5" y2="246.5"/><line style="stroke: #A80036; stroke-width: 1.5;" x1="1464" x2="1598" y1="254.5" y2="254.5"/><!--MD5=[015754420c4cdd9bacda884b3fa8c6ca]
class tictactoe.views.View--><rect fill="#FEFECE" filter="url(#f1utmku73l35kr)" height="48" id="tictactoe.views.View" style="stroke: #A80036; stroke-width: 1.5;" width="58" x="841" y="42"/><ellipse cx="856" cy="58" fill="#ADD1B2" rx="11" ry="11" style="stroke: #A80036; stroke-width: 1.0;"/><path d="M858.7656,53.875 Q858.9219,53.6563 859.1094,53.5469 Q859.2969,53.4375 859.5156,53.4375 Q859.8906,53.4375 860.125,53.7031 Q860.3594,53.9531 860.3594,54.5625 L860.3594,56.0156 Q860.3594,56.625 860.125,56.8906 Q859.8906,57.1563 859.5156,57.1563 Q859.1719,57.1563 858.9688,56.9531 Q858.7656,56.7656 858.6563,56.25 Q858.6094,55.8906 858.4219,55.7031 Q858.0938,55.3281 857.4844,55.1094 Q856.875,54.8906 856.25,54.8906 Q855.4844,54.8906 854.8438,55.2188 Q854.2188,55.5469 853.7188,56.2969 Q853.2344,57.0469 853.2344,58.0781 L853.2344,59.1719 Q853.2344,60.4063 854.125,61.2344 Q855.0156,62.0469 856.6094,62.0469 Q857.5469,62.0469 858.2031,61.7969 Q858.5938,61.6406 859.0156,61.2031 Q859.2813,60.9375 859.4219,60.8594 Q859.5781,60.7813 859.7813,60.7813 Q860.1094,60.7813 860.3594,61.0469 Q860.625,61.2969 860.625,61.6406 Q860.625,61.9844 860.2813,62.3906 Q859.7813,62.9688 858.9844,63.2969 Q857.9063,63.75 856.6094,63.75 Q855.0938,63.75 853.8906,63.125 Q852.9063,62.625 852.2188,61.5625 Q851.5313,60.4844 851.5313,59.2031 L851.5313,58.0469 Q851.5313,56.7188 852.1406,55.5781 Q852.7656,54.4219 853.8594,53.8125 Q854.9531,53.1875 856.1875,53.1875 Q856.9219,53.1875 857.5625,53.3594 Q858.2188,53.5156 858.7656,53.875 Z "/><text fill="#000000" font-family="sans-serif" font-size="12" lengthAdjust="spacingAndGlyphs" textLength="26" x="870" y="62.9102">View</text><line style="stroke: #A80036; stroke-width: 1.5;" x1="842" x2="898" y1="74" y2="74"/><line style="stroke: #A80036; stroke-width: 1.5;" x1="842" x2="898" y1="82" y2="82"/><!--MD5=[17799e03bfee0ccb3aa03b93da9c26d6]
class tictactoe.views.ErrorView--><rect fill="#FEFECE" filter="url(#f1utmku73l35kr)" height="48" id="tictactoe.views.ErrorView" style="stroke: #A80036; stroke-width: 1.5;" width="85" x="1061.5" y="42"/><ellipse cx="1076.5" cy="58" fill="#ADD1B2" rx="11" ry="11" style="stroke: #A80036; stroke-width: 1.0;"/><path d="M1079.2656,53.875 Q1079.4219,53.6563 1079.6094,53.5469 Q1079.7969,53.4375 1080.0156,53.4375 Q1080.3906,53.4375 1080.625,53.7031 Q1080.8594,53.9531 1080.8594,54.5625 L1080.8594,56.0156 Q1080.8594,56.625 1080.625,56.8906 Q1080.3906,57.1563 1080.0156,57.1563 Q1079.6719,57.1563 1079.4688,56.9531 Q1079.2656,56.7656 1079.1563,56.25 Q1079.1094,55.8906 1078.9219,55.7031 Q1078.5938,55.3281 1077.9844,55.1094 Q1077.375,54.8906 1076.75,54.8906 Q1075.9844,54.8906 1075.3438,55.2188 Q1074.7188,55.5469 1074.2188,56.2969 Q1073.7344,57.0469 1073.7344,58.0781 L1073.7344,59.1719 Q1073.7344,60.4063 1074.625,61.2344 Q1075.5156,62.0469 1077.1094,62.0469 Q1078.0469,62.0469 1078.7031,61.7969 Q1079.0938,61.6406 1079.5156,61.2031 Q1079.7813,60.9375 1079.9219,60.8594 Q1080.0781,60.7813 1080.2813,60.7813 Q1080.6094,60.7813 1080.8594,61.0469 Q1081.125,61.2969 1081.125,61.6406 Q1081.125,61.9844 1080.7813,62.3906 Q1080.2813,62.9688 1079.4844,63.2969 Q1078.4063,63.75 1077.1094,63.75 Q1075.5938,63.75 1074.3906,63.125 Q1073.4063,62.625 1072.7188,61.5625 Q1072.0313,60.4844 1072.0313,59.2031 L1072.0313,58.0469 Q1072.0313,56.7188 1072.6406,55.5781 Q1073.2656,54.4219 1074.3594,53.8125 Q1075.4531,53.1875 1076.6875,53.1875 Q1077.4219,53.1875 1078.0625,53.3594 Q1078.7188,53.5156 1079.2656,53.875 Z "/><text fill="#000000" font-family="sans-serif" font-size="12" lengthAdjust="spacingAndGlyphs" textLength="53" x="1090.5" y="62.9102">ErrorView</text><line style="stroke: #A80036; stroke-width: 1.5;" x1="1062.5" x2="1145.5" y1="74" y2="74"/><line style="stroke: #A80036; stroke-width: 1.5;" x1="1062.5" x2="1145.5" y1="82" y2="82"/><!--MD5=[2ae15d20e7f22fd333327d3852982126]
class tictactoe.views.PlayerView--><rect fill="#FEFECE" filter="url(#f1utmku73l35kr)" height="48" id="tictactoe.views.PlayerView" style="stroke: #A80036; stroke-width: 1.5;" width="92" x="934" y="42"/><ellipse cx="949" cy="58" fill="#ADD1B2" rx="11" ry="11" style="stroke: #A80036; stroke-width: 1.0;"/><path d="M951.7656,53.875 Q951.9219,53.6563 952.1094,53.5469 Q952.2969,53.4375 952.5156,53.4375 Q952.8906,53.4375 953.125,53.7031 Q953.3594,53.9531 953.3594,54.5625 L953.3594,56.0156 Q953.3594,56.625 953.125,56.8906 Q952.8906,57.1563 952.5156,57.1563 Q952.1719,57.1563 951.9688,56.9531 Q951.7656,56.7656 951.6563,56.25 Q951.6094,55.8906 951.4219,55.7031 Q951.0938,55.3281 950.4844,55.1094 Q949.875,54.8906 949.25,54.8906 Q948.4844,54.8906 947.8438,55.2188 Q947.2188,55.5469 946.7188,56.2969 Q946.2344,57.0469 946.2344,58.0781 L946.2344,59.1719 Q946.2344,60.4063 947.125,61.2344 Q948.0156,62.0469 949.6094,62.0469 Q950.5469,62.0469 951.2031,61.7969 Q951.5938,61.6406 952.0156,61.2031 Q952.2813,60.9375 952.4219,60.8594 Q952.5781,60.7813 952.7813,60.7813 Q953.1094,60.7813 953.3594,61.0469 Q953.625,61.2969 953.625,61.6406 Q953.625,61.9844 953.2813,62.3906 Q952.7813,62.9688 951.9844,63.2969 Q950.9063,63.75 949.6094,63.75 Q948.0938,63.75 946.8906,63.125 Q945.9063,62.625 945.2188,61.5625 Q944.5313,60.4844 944.5313,59.2031 L944.5313,58.0469 Q944.5313,56.7188 945.1406,55.5781 Q945.7656,54.4219 946.8594,53.8125 Q947.9531,53.1875 949.1875,53.1875 Q949.9219,53.1875 950.5625,53.3594 Q951.2188,53.5156 951.7656,53.875 Z "/><text fill="#000000" font-family="sans-serif" font-size="12" lengthAdjust="spacingAndGlyphs" textLength="60" x="963" y="62.9102">PlayerView</text><line style="stroke: #A80036; stroke-width: 1.5;" x1="935" x2="1025" y1="74" y2="74"/><line style="stroke: #A80036; stroke-width: 1.5;" x1="935" x2="1025" y1="82" y2="82"/><!--MD5=[b574e60c06c50037ff1b014277a67d62]
class tictactoe.controllers.PlayController--><rect fill="#FEFECE" filter="url(#f1utmku73l35kr)" height="48" id="tictactoe.controllers.PlayController" style="stroke: #A80036; stroke-width: 1.5;" width="109" x="32.5" y="542"/><ellipse cx="47.5" cy="558" fill="#ADD1B2" rx="11" ry="11" style="stroke: #A80036; stroke-width: 1.0;"/><path d="M50.2656,553.875 Q50.4219,553.6563 50.6094,553.5469 Q50.7969,553.4375 51.0156,553.4375 Q51.3906,553.4375 51.625,553.7031 Q51.8594,553.9531 51.8594,554.5625 L51.8594,556.0156 Q51.8594,556.625 51.625,556.8906 Q51.3906,557.1563 51.0156,557.1563 Q50.6719,557.1563 50.4688,556.9531 Q50.2656,556.7656 50.1563,556.25 Q50.1094,555.8906 49.9219,555.7031 Q49.5938,555.3281 48.9844,555.1094 Q48.375,554.8906 47.75,554.8906 Q46.9844,554.8906 46.3438,555.2188 Q45.7188,555.5469 45.2188,556.2969 Q44.7344,557.0469 44.7344,558.0781 L44.7344,559.1719 Q44.7344,560.4063 45.625,561.2344 Q46.5156,562.0469 48.1094,562.0469 Q49.0469,562.0469 49.7031,561.7969 Q50.0938,561.6406 50.5156,561.2031 Q50.7813,560.9375 50.9219,560.8594 Q51.0781,560.7813 51.2813,560.7813 Q51.6094,560.7813 51.8594,561.0469 Q52.125,561.2969 52.125,561.6406 Q52.125,561.9844 51.7813,562.3906 Q51.2813,562.9688 50.4844,563.2969 Q49.4063,563.75 48.1094,563.75 Q46.5938,563.75 45.3906,563.125 Q44.4063,562.625 43.7188,561.5625 Q43.0313,560.4844 43.0313,559.2031 L43.0313,558.0469 Q43.0313,556.7188 43.6406,555.5781 Q44.2656,554.4219 45.3594,553.8125 Q46.4531,553.1875 47.6875,553.1875 Q48.4219,553.1875 49.0625,553.3594 Q49.7188,553.5156 50.2656,553.875 Z "/><text fill="#000000" font-family="sans-serif" font-size="12" lengthAdjust="spacingAndGlyphs" textLength="77" x="61.5" y="562.9102">PlayController</text><line style="stroke: #A80036; stroke-width: 1.5;" x1="33.5" x2="140.5" y1="574" y2="574"/><line style="stroke: #A80036; stroke-width: 1.5;" x1="33.5" x2="140.5" y1="582" y2="582"/><!--MD5=[2c3ef77d19c2424f55dfd6db4f13e20e]
class tictactoe.controllers.ResultController--><rect fill="#FEFECE" filter="url(#f1utmku73l35kr)" height="48" id="tictactoe.controllers.ResultController" style="stroke: #A80036; stroke-width: 1.5;" width="122" x="177" y="542"/><ellipse cx="192" cy="558" fill="#ADD1B2" rx="11" ry="11" style="stroke: #A80036; stroke-width: 1.0;"/><path d="M194.7656,553.875 Q194.9219,553.6563 195.1094,553.5469 Q195.2969,553.4375 195.5156,553.4375 Q195.8906,553.4375 196.125,553.7031 Q196.3594,553.9531 196.3594,554.5625 L196.3594,556.0156 Q196.3594,556.625 196.125,556.8906 Q195.8906,557.1563 195.5156,557.1563 Q195.1719,557.1563 194.9688,556.9531 Q194.7656,556.7656 194.6563,556.25 Q194.6094,555.8906 194.4219,555.7031 Q194.0938,555.3281 193.4844,555.1094 Q192.875,554.8906 192.25,554.8906 Q191.4844,554.8906 190.8438,555.2188 Q190.2188,555.5469 189.7188,556.2969 Q189.2344,557.0469 189.2344,558.0781 L189.2344,559.1719 Q189.2344,560.4063 190.125,561.2344 Q191.0156,562.0469 192.6094,562.0469 Q193.5469,562.0469 194.2031,561.7969 Q194.5938,561.6406 195.0156,561.2031 Q195.2813,560.9375 195.4219,560.8594 Q195.5781,560.7813 195.7813,560.7813 Q196.1094,560.7813 196.3594,561.0469 Q196.625,561.2969 196.625,561.6406 Q196.625,561.9844 196.2813,562.3906 Q195.7813,562.9688 194.9844,563.2969 Q193.9063,563.75 192.6094,563.75 Q191.0938,563.75 189.8906,563.125 Q188.9063,562.625 188.2188,561.5625 Q187.5313,560.4844 187.5313,559.2031 L187.5313,558.0469 Q187.5313,556.7188 188.1406,555.5781 Q188.7656,554.4219 189.8594,553.8125 Q190.9531,553.1875 192.1875,553.1875 Q192.9219,553.1875 193.5625,553.3594 Q194.2188,553.5156 194.7656,553.875 Z "/><text fill="#000000" font-family="sans-serif" font-size="12" lengthAdjust="spacingAndGlyphs" textLength="90" x="206" y="562.9102">ResultController</text><line style="stroke: #A80036; stroke-width: 1.5;" x1="178" x2="298" y1="574" y2="574"/><line style="stroke: #A80036; stroke-width: 1.5;" x1="178" x2="298" y1="582" y2="582"/><!--MD5=[8ede4dbfb3b498095887802b64b699f0]
class tictactoe.controllers.StartController--><rect fill="#FEFECE" filter="url(#f1utmku73l35kr)" height="48" id="tictactoe.controllers.StartController" style="stroke: #A80036; stroke-width: 1.5;" width="111" x="334.5" y="542"/><ellipse cx="349.5" cy="558" fill="#ADD1B2" rx="11" ry="11" style="stroke: #A80036; stroke-width: 1.0;"/><path d="M352.2656,553.875 Q352.4219,553.6563 352.6094,553.5469 Q352.7969,553.4375 353.0156,553.4375 Q353.3906,553.4375 353.625,553.7031 Q353.8594,553.9531 353.8594,554.5625 L353.8594,556.0156 Q353.8594,556.625 353.625,556.8906 Q353.3906,557.1563 353.0156,557.1563 Q352.6719,557.1563 352.4688,556.9531 Q352.2656,556.7656 352.1563,556.25 Q352.1094,555.8906 351.9219,555.7031 Q351.5938,555.3281 350.9844,555.1094 Q350.375,554.8906 349.75,554.8906 Q348.9844,554.8906 348.3438,555.2188 Q347.7188,555.5469 347.2188,556.2969 Q346.7344,557.0469 346.7344,558.0781 L346.7344,559.1719 Q346.7344,560.4063 347.625,561.2344 Q348.5156,562.0469 350.1094,562.0469 Q351.0469,562.0469 351.7031,561.7969 Q352.0938,561.6406 352.5156,561.2031 Q352.7813,560.9375 352.9219,560.8594 Q353.0781,560.7813 353.2813,560.7813 Q353.6094,560.7813 353.8594,561.0469 Q354.125,561.2969 354.125,561.6406 Q354.125,561.9844 353.7813,562.3906 Q353.2813,562.9688 352.4844,563.2969 Q351.4063,563.75 350.1094,563.75 Q348.5938,563.75 347.3906,563.125 Q346.4063,562.625 345.7188,561.5625 Q345.0313,560.4844 345.0313,559.2031 L345.0313,558.0469 Q345.0313,556.7188 345.6406,555.5781 Q346.2656,554.4219 347.3594,553.8125 Q348.4531,553.1875 349.6875,553.1875 Q350.4219,553.1875 351.0625,553.3594 Q351.7188,553.5156 352.2656,553.875 Z "/><text fill="#000000" font-family="sans-serif" font-size="12" lengthAdjust="spacingAndGlyphs" textLength="79" x="363.5" y="562.9102">StartController</text><line style="stroke: #A80036; stroke-width: 1.5;" x1="335.5" x2="444.5" y1="574" y2="574"/><line style="stroke: #A80036; stroke-width: 1.5;" x1="335.5" x2="444.5" y1="582" y2="582"/><!--MD5=[a6fae52730c8fcb5831e430ac9256e7b]
reverse link utils.WithConsoleModel to tictactoe.views.console.BoardView--><path d="M1516.24,281.617 C1495.08,339.491 1455.22,438.965 1424,461 C1361.91,504.824 1158.93,485.255 1084,498 C1004.04,511.601 913.075,533.935 855.148,549.0413 " fill="none" id="utils.WithConsoleModel&lt;-tictactoe.views.console.BoardView" style="stroke: #A80036; stroke-width: 1.0;"/><polygon fill="none" points="1509.68,279.194,1523.03,262.737,1522.85,283.926,1509.68,279.194" style="stroke: #A80036; stroke-width: 1.0;"/><!--MD5=[3759dcab84bd93192393b69d4c36cc32]
reverse link utils.WithConsoleModel to tictactoe.views.console.ChoosePlayerView--><path d="M1534.23,282.734 C1535.48,331.923 1529.75,411.786 1486,461 C1422.88,532.01 1310.4,554.7036 1238.06,561.8541 " fill="none" id="utils.WithConsoleModel&lt;-tictactoe.views.console.ChoosePlayerView" style="stroke: #A80036; stroke-width: 1.0;"/><polygon fill="none" points="1527.23,282.82,1533.28,262.513,1541.21,282.162,1527.23,282.82" style="stroke: #A80036; stroke-width: 1.0;"/><!--MD5=[d1f1f21fa3eb12d639631512d925e9a6]
reverse link tictactoe.views.View to tictactoe.views.console.ConsoleView--><path d="M828.379,103.58 C807.696,121.757 781.961,144.374 757.564,165.816 " fill="none" id="tictactoe.views.View&lt;-tictactoe.views.console.ConsoleView" style="stroke: #A80036; stroke-width: 1.0;"/><polygon fill="none" points="823.788,98.295,843.432,90.35,833.03,108.811,823.788,98.295" style="stroke: #A80036; stroke-width: 1.0;"/><!--MD5=[9113815f8bbc012213d6467f94b3dc5b]
link tictactoe.views.console.ConsoleView to tictactoe.views.console.StartView--><path d="M819.6333,316.824 C819.6333,316.824 880.908,349.811 908.295,364.555 " fill="none" id="tictactoe.views.console.ConsoleView-tictactoe.views.console.StartView" style="stroke: #A80036; stroke-width: 1.0;"/><polygon fill="#A80036" points="919.824,370.761,913.796,362.9723,915.4216,368.3906,910.0033,370.0161,919.824,370.761" style="stroke: #A80036; stroke-width: 1.0;"/><line style="stroke: #A80036; stroke-width: 1.0;" x1="915.4216" x2="908.378" y1="368.3906" y2="364.599"/><polygon fill="#A80036" points="809.067,311.136,812.4541,317.5021,819.6333,316.824,816.2462,310.4579,809.067,311.136" style="stroke: #A80036; stroke-width: 1.0;"/><!--MD5=[1735144fa38f1aa47117a26d071db586]
link tictactoe.views.console.ConsoleView to tictactoe.views.console.PlayView--><path d="M632.8752,321.764 C632.8752,321.764 619.314,347.635 613.289,359.129 " fill="none" id="tictactoe.views.console.ConsoleView-tictactoe.views.console.PlayView" style="stroke: #A80036; stroke-width: 1.0;"/><polygon fill="#A80036" points="607.191,370.761,614.9125,364.6473,609.5126,366.3327,607.8272,360.9327,607.191,370.761" style="stroke: #A80036; stroke-width: 1.0;"/><line style="stroke: #A80036; stroke-width: 1.0;" x1="609.5126" x2="613.2265" y1="366.3327" y2="359.2475"/><polygon fill="#A80036" points="638.447,311.136,632.1184,314.5927,632.8752,321.764,639.2038,318.3073,638.447,311.136" style="stroke: #A80036; stroke-width: 1.0;"/><!--MD5=[44d2792f564883fbc9918566bab83309]
link tictactoe.views.console.ConsoleView to tictactoe.views.console.ResultView--><path d="M729.9658,321.1469 C729.9658,321.1469 747.515,347.698 755.406,359.636 " fill="none" id="tictactoe.views.console.ConsoleView-tictactoe.views.console.ResultView" style="stroke: #A80036; stroke-width: 1.0;"/><polygon fill="#A80036" points="762.76,370.761,761.1338,361.0473,760.0028,366.59,754.4601,365.4589,762.76,370.761" style="stroke: #A80036; stroke-width: 1.0;"/><line style="stroke: #A80036; stroke-width: 1.0;" x1="760.0028" x2="755.5915" y1="366.59" y2="359.916"/><polygon fill="#A80036" points="723.349,311.136,723.3204,318.347,729.9658,321.1469,729.9944,313.9359,723.349,311.136" style="stroke: #A80036; stroke-width: 1.0;"/><!--MD5=[82de2d653d4865d631f6344f72cac18b]
reverse link utils.WithConsoleModel to tictactoe.views.console.CoordinateView--><path d="M1489.87,276.517 C1454.09,308.723 1402.87,354.817 1369.53,384.827 " fill="none" id="utils.WithConsoleModel&lt;-tictactoe.views.console.CoordinateView" style="stroke: #A80036; stroke-width: 1.0;"/><polygon fill="none" points="1485.56,270.981,1505.11,262.805,1494.92,281.387,1485.56,270.981" style="stroke: #A80036; stroke-width: 1.0;"/><!--MD5=[521be967e4e828bbb4868581b766b1da]
reverse link tictactoe.views.ErrorView to tictactoe.views.console.ErrorView--><path d="M1167.01,70.853 C1238.46,76.69 1348.37,90.623 1374,122 C1427.14,187.055 1418.95,240.042 1374,311 C1340.59,363.734 1301.84,341.177 1247,371 C1241.52,373.979 1235.88,377.199 1230.29,380.494 " fill="none" id="tictactoe.views.ErrorView&lt;-tictactoe.views.console.ErrorView" style="stroke: #A80036; stroke-width: 1.0;"/><polygon fill="none" points="1166.07,77.802,1146.66,69.321,1167.12,63.841,1166.07,77.802" style="stroke: #A80036; stroke-width: 1.0;"/><!--MD5=[f807ad8458e0e3d6ca100de41032e69a]
reverse link tictactoe.views.PlayerView to tictactoe.views.console.MachinePlayerView--><path d="M980,110.657 C980,136.045 980,167.952 980,193.414 " fill="none" id="tictactoe.views.PlayerView&lt;-tictactoe.views.console.MachinePlayerView" style="stroke: #A80036; stroke-width: 1.0;"/><polygon fill="none" points="973,110.35,980,90.35,987,110.35,973,110.35" style="stroke: #A80036; stroke-width: 1.0;"/><!--MD5=[9623adb787708e117decab727ca41eb7]
link tictactoe.views.console.PlayView to tictactoe.views.console.BoardView--><path d="M647.033,461.004 C674.028,479.849 705.497,501.819 732.539,520.697 " fill="none" id="tictactoe.views.console.PlayView-&gt;tictactoe.views.console.BoardView" style="stroke: #A80036; stroke-width: 1.0; stroke-dasharray: 7.0,7.0;"/><polygon fill="#A80036" points="736.839,523.699,731.7479,515.2681,732.7388,520.8374,727.1694,521.8283,736.839,523.699" style="stroke: #A80036; stroke-width: 1.0;"/><!--MD5=[c652744ae97b12ae96764b7849bbed7e]
link tictactoe.views.console.PlayView to tictactoe.views.PlayerView--><path d="M535.405,370.859 C520.067,353.836 505.035,333.127 497,311 C468.33,232.044 438.173,181.961 497,122 C513.305,105.381 893.946,121.462 916,114 C928.911,109.631 941.396,101.626 951.858,93.445 " fill="none" id="tictactoe.views.console.PlayView-&gt;tictactoe.views.PlayerView" style="stroke: #A80036; stroke-width: 1.0; stroke-dasharray: 7.0,7.0;"/><polygon fill="#A80036" points="955.914,90.186,946.3933,92.7073,952.0171,93.3187,951.4057,98.9424,955.914,90.186" style="stroke: #A80036; stroke-width: 1.0;"/><!--MD5=[58e59420f385c3dc7e125fbf21a51657]
link tictactoe.views.console.PlayView to tictactoe.controllers.PlayController--><path d="M501.768,419.272 C412.841,424.694 269.057,442.249 159,498 C139.925,507.663 122.284,523.904 109.237,537.976 " fill="none" id="tictactoe.views.console.PlayView-&gt;tictactoe.controllers.PlayController" style="stroke: #A80036; stroke-width: 1.0; stroke-dasharray: 7.0,7.0;"/><polygon fill="#A80036" points="105.682,541.88,114.6993,537.9192,109.0486,538.1833,108.7846,532.5326,105.682,541.88" style="stroke: #A80036; stroke-width: 1.0;"/><!--MD5=[9744e604919ab000255dde255237b11a]
link tictactoe.views.console.ResultView to tictactoe.controllers.ResultController--><path d="M701.338,455.8 C695.192,457.745 689.043,459.507 683,461 C524.277,500.214 467.457,434.02 317,498 C295.793,507.018 276.023,523.795 261.565,538.304 " fill="none" id="tictactoe.views.console.ResultView-&gt;tictactoe.controllers.ResultController" style="stroke: #A80036; stroke-width: 1.0; stroke-dasharray: 7.0,7.0;"/><polygon fill="#A80036" points="258.006,541.937,267.1607,538.3051,261.5042,538.3645,261.4448,532.708,258.006,541.937" style="stroke: #A80036; stroke-width: 1.0;"/><!--MD5=[dfa315847ca75b86a537546c793c8626]
link tictactoe.views.console.StartView to tictactoe.views.console.ChoosePlayerView--><path d="M1051.95,461.004 C1077.55,483.558 1108.23,510.586 1131.9,531.434 " fill="none" id="tictactoe.views.console.StartView-&gt;tictactoe.views.console.ChoosePlayerView" style="stroke: #A80036; stroke-width: 1.0; stroke-dasharray: 7.0,7.0;"/><polygon fill="#A80036" points="1135.93,534.989,1131.8319,526.0332,1132.1823,531.6792,1126.5363,532.0296,1135.93,534.989" style="stroke: #A80036; stroke-width: 1.0;"/><!--MD5=[d3767328306413c38638214ca1b9afec]
link tictactoe.views.console.StartView to tictactoe.controllers.StartController--><path d="M917.271,455.912 C911.493,457.83 905.702,459.555 900,461 C720.927,506.381 659.582,434.789 486,498 C461.321,506.987 437.095,523.973 419.154,538.593 " fill="none" id="tictactoe.views.console.StartView-&gt;tictactoe.controllers.StartController" style="stroke: #A80036; stroke-width: 1.0; stroke-dasharray: 7.0,7.0;"/><polygon fill="#A80036" points="415.193,541.865,424.679,539.2161,419.0475,538.6803,419.5834,533.0488,415.193,541.865" style="stroke: #A80036; stroke-width: 1.0;"/><!--MD5=[e665259f0705ebc0d9068c66ae844f61]
reverse link tictactoe.views.PlayerView to tictactoe.views.console.UserPlayerView--><path d="M1021.74,102.135 C1028.83,106.753 1036.37,110.937 1044,114 C1069.37,124.191 1080.02,110.874 1105,122 C1135.43,135.555 1164.21,158.229 1187.32,179.916 " fill="none" id="tictactoe.views.PlayerView&lt;-tictactoe.views.console.UserPlayerView" style="stroke: #A80036; stroke-width: 1.0;"/><polygon fill="none" points="1017.33,107.582,1005.28,90.154,1025.57,96.263,1017.33,107.582" style="stroke: #A80036; stroke-width: 1.0;"/><!--MD5=[d08a44d06940417b04e1f442f789385d]
link tictactoe.views.console.UserPlayerView to tictactoe.views.console.ErrorView--><path d="M1218.87,297.452 C1209.86,322.153 1199.55,350.429 1191.3,373.057 " fill="none" id="tictactoe.views.console.UserPlayerView-&gt;tictactoe.views.console.ErrorView" style="stroke: #A80036; stroke-width: 1.0; stroke-dasharray: 7.0,7.0;"/><polygon fill="#A80036" points="1189.57,377.797,1196.4168,370.7174,1191.2866,373.1009,1188.9031,367.9707,1189.57,377.797" style="stroke: #A80036; stroke-width: 1.0;"/><!--MD5=[93525d2da9d792717dcb2150911bbe9e]
link tictactoe.views.console.UserPlayerView to tictactoe.views.console.CoordinateView--><path d="M1271.7,297.452 C1286.65,324.783 1304,356.492 1316.9,380.084 " fill="none" id="tictactoe.views.console.UserPlayerView-&gt;tictactoe.views.console.CoordinateView" style="stroke: #A80036; stroke-width: 1.0; stroke-dasharray: 7.0,7.0;"/><polygon fill="#A80036" points="1319.42,384.69,1318.6109,374.8744,1317.0208,380.3032,1311.5921,378.7131,1319.42,384.69" style="stroke: #A80036; stroke-width: 1.0;"/><!--MD5=[d0c5bdd3f95e202b6202ef364c0fc51e]
@startuml

class  tictactoe.views.console.BoardView{
~ board: Board
~ BoardView(Board)
~ write(): void
}
utils.WithConsoleModel <|-down- tictactoe.views.console.BoardView

class  tictactoe.views.console.ChoosePlayerView{
~ readPlayers(): void
}
utils.WithConsoleModel <|-down- tictactoe.views.console.ChoosePlayerView

class  tictactoe.views.console.ConsoleView{
- startView: StartView
- playView: PlayView
- resultView: ResultView
+ ConsoleView(StartController, PlayController, ResultController)
# start(): void
# play(): boolean
# result(): void
}
tictactoe.views.View <|-down- tictactoe.views.console.ConsoleView
tictactoe.views.console.ConsoleView *-down-> tictactoe.views.console.StartView
tictactoe.views.console.ConsoleView *-down-> tictactoe.views.console.PlayView
tictactoe.views.console.ConsoleView *-down-> tictactoe.views.console.ResultView

class  tictactoe.views.console.CoordinateView{
~ read(String): Coordinate
}
utils.WithConsoleModel <|-down- tictactoe.views.console.CoordinateView

class  tictactoe.views.console.ErrorView{
~ ErrorView(Error)
~ writeln(): void
}
tictactoe.views.ErrorView <|-down- tictactoe.views.console.ErrorView

class  tictactoe.views.console.MachinePlayerView{
~ MachinePlayerView(Player)
~ readCoordinateToPut(): Coordinate
~ readCoordinatesToMove(): Coordinate[]
}
tictactoe.views.PlayerView <|-down- tictactoe.views.console.MachinePlayerView

class  tictactoe.views.console.PlayView{
~ playController: PlayController
~ PlayView(PlayController)
~ interact(): boolean
}
tictactoe.views.console.PlayView ..> tictactoe.views.console.BoardView
tictactoe.views.console.PlayView ..> tictactoe.views.PlayerView
tictactoe.views.console.PlayView ..> tictactoe.controllers.PlayController

class tictactoe.views.console.ResultView{
~ resultController: ResultController
~ ResultView(ResultController)
~ interact(): void
}
tictactoe.views.console.ResultView..> tictactoe.controllers.ResultController

class tictactoe.views.console.StartView{
~ startController: StartController
~ StartView(StartController)
~ interact(): void
}
tictactoe.views.console.StartView ..> tictactoe.views.console.ChoosePlayerView
tictactoe.views.console.StartView ..> tictactoe.controllers.StartController

class  tictactoe.views.console.UserPlayerView{
~ {static} ENTER_COORDINATE_TO_PUT: String
~ {static} ENTER_COORDINATE_TO_REMOVE: String
~ UserPlayerView(Player)
~ readCoordinateToPut(): Coordinate
~ readCoordinatesToMove(): Coordinate[]
}
tictactoe.views.PlayerView <|-down- tictactoe.views.console.UserPlayerView
tictactoe.views.console.UserPlayerView ..> tictactoe.views.console.ErrorView
tictactoe.views.console.UserPlayerView ..> tictactoe.views.console.CoordinateView

@enduml

PlantUML version 1.2020.15(Sun Jun 28 13:39:45 CEST 2020)
(GPL source distribution)
Java Runtime: Java(TM) SE Runtime Environment
JVM: Java HotSpot(TM) 64-Bit Server VM
Default Encoding: windows-1252
Language: es
Country: ES
--></g></svg>