<?xml version="1.0" encoding="UTF-8" standalone="no"?><svg xmlns="http://www.w3.org/2000/svg" xmlns:xlink="http://www.w3.org/1999/xlink" contentScriptType="application/ecmascript" contentStyleType="text/css" height="666px" preserveAspectRatio="none" style="width:1023px;height:666px;" version="1.1" viewBox="0 0 1023 666" width="1023px" zoomAndPan="magnify"><defs><filter height="300%" id="f1aadxlrg56h4j" width="300%" x="-1" y="-1"><feGaussianBlur result="blurOut" stdDeviation="2.0"/><feColorMatrix in="blurOut" result="blurOut2" type="matrix" values="0 0 0 0 0 0 0 0 0 0 0 0 0 0 0 0 0 0 .4 0"/><feOffset dx="4.0" dy="4.0" in="blurOut2" result="blurOut3"/><feBlend in="SourceGraphic" in2="blurOut3" mode="normal"/></filter></defs><g><!--MD5=[64182ab34c08ac367bbf699869515711]
cluster tictactoe.views.console--><polygon fill="#FFFFFF" filter="url(#f1aadxlrg56h4j)" points="48.6944,130,220.6944,130,227.6944,153.6094,814.6944,153.6094,814.6944,654,48.6944,654,48.6944,130" style="stroke: #000000; stroke-width: 1.5;"/><line style="stroke: #000000; stroke-width: 1.5;" x1="48.6944" x2="227.6944" y1="153.6094" y2="153.6094"/><text fill="#000000" font-family="sans-serif" font-size="14" font-weight="bold" lengthAdjust="spacingAndGlyphs" textLength="166" x="52.6944" y="146.5332">tictactoe.views.console</text><!--MD5=[c52f45833d539af9e29a9d34b8b7302b]
cluster utils--><polygon fill="#FFFFFF" filter="url(#f1aadxlrg56h4j)" points="839.6944,178.5,875.6944,178.5,882.6944,202.1094,1001.6944,202.1094,1001.6944,278.5,839.6944,278.5,839.6944,178.5" style="stroke: #000000; stroke-width: 1.5;"/><line style="stroke: #000000; stroke-width: 1.5;" x1="839.6944" x2="882.6944" y1="202.1094" y2="202.1094"/><text fill="#000000" font-family="sans-serif" font-size="14" font-weight="bold" lengthAdjust="spacingAndGlyphs" textLength="30" x="843.6944" y="195.0332">utils</text><!--MD5=[f4e83a21a957c5b9ba9691e6361db36b]
cluster tictactoe.views--><polygon fill="#FFFFFF" filter="url(#f1aadxlrg56h4j)" points="217.6944,6,329.6944,6,336.6944,29.6094,555.6944,29.6094,555.6944,106,217.6944,106,217.6944,6" style="stroke: #000000; stroke-width: 1.5;"/><line style="stroke: #000000; stroke-width: 1.5;" x1="217.6944" x2="336.6944" y1="29.6094" y2="29.6094"/><text fill="#000000" font-family="sans-serif" font-size="14" font-weight="bold" lengthAdjust="spacingAndGlyphs" textLength="106" x="221.6944" y="22.5332">tictactoe.views</text><!--MD5=[270aad5bca7cd81b5a24665b2403b70b]
class tictactoe.views.console.BoardView--><rect fill="#FEFECE" filter="url(#f1aadxlrg56h4j)" height="117.1797" id="tictactoe.views.console.BoardView" style="stroke: #A80036; stroke-width: 1.5;" width="201" x="244.1944" y="521"/><ellipse cx="310.9444" cy="537" fill="#ADD1B2" rx="11" ry="11" style="stroke: #A80036; stroke-width: 1.0;"/><path d="M313.71,532.875 Q313.8663,532.6563 314.0538,532.5469 Q314.2413,532.4375 314.46,532.4375 Q314.835,532.4375 315.0694,532.7031 Q315.3038,532.9531 315.3038,533.5625 L315.3038,535.0156 Q315.3038,535.625 315.0694,535.8906 Q314.835,536.1563 314.46,536.1563 Q314.1163,536.1563 313.9132,535.9531 Q313.71,535.7656 313.6007,535.25 Q313.5538,534.8906 313.3663,534.7031 Q313.0382,534.3281 312.4288,534.1094 Q311.8194,533.8906 311.1944,533.8906 Q310.4288,533.8906 309.7882,534.2188 Q309.1632,534.5469 308.6632,535.2969 Q308.1788,536.0469 308.1788,537.0781 L308.1788,538.1719 Q308.1788,539.4063 309.0694,540.2344 Q309.96,541.0469 311.5538,541.0469 Q312.4913,541.0469 313.1475,540.7969 Q313.5382,540.6406 313.96,540.2031 Q314.2257,539.9375 314.3663,539.8594 Q314.5225,539.7813 314.7257,539.7813 Q315.0538,539.7813 315.3038,540.0469 Q315.5694,540.2969 315.5694,540.6406 Q315.5694,540.9844 315.2257,541.3906 Q314.7257,541.9688 313.9288,542.2969 Q312.8507,542.75 311.5538,542.75 Q310.0382,542.75 308.835,542.125 Q307.8507,541.625 307.1632,540.5625 Q306.4757,539.4844 306.4757,538.2031 L306.4757,537.0469 Q306.4757,535.7188 307.085,534.5781 Q307.71,533.4219 308.8038,532.8125 Q309.8975,532.1875 311.1319,532.1875 Q311.8663,532.1875 312.5069,532.3594 Q313.1632,532.5156 313.71,532.875 Z "/><text fill="#000000" font-family="sans-serif" font-size="12" lengthAdjust="spacingAndGlyphs" textLength="59" x="331.4444" y="541.9102">BoardView</text><line style="stroke: #A80036; stroke-width: 1.5;" x1="245.1944" x2="444.1944" y1="553" y2="553"/><polygon fill="none" points="255.1944,560,251.1944,566,259.1944,566" style="stroke: #1963A0; stroke-width: 1.0;"/><text fill="#000000" font-family="sans-serif" font-size="11" lengthAdjust="spacingAndGlyphs" textLength="63" x="264.1944" y="568.4189">board: Board</text><line style="stroke: #A80036; stroke-width: 1.5;" x1="245.1944" x2="444.1944" y1="574.8359" y2="574.8359"/><polygon fill="#4177AF" points="255.1944,581.8359,251.1944,587.8359,259.1944,587.8359" style="stroke: #1963A0; stroke-width: 1.0;"/><text fill="#000000" font-family="sans-serif" font-size="11" lengthAdjust="spacingAndGlyphs" textLength="92" x="264.1944" y="590.2549">BoardView(Board)</text><polygon fill="#4177AF" points="255.1944,595.6719,251.1944,601.6719,259.1944,601.6719" style="stroke: #1963A0; stroke-width: 1.0;"/><text fill="#000000" font-family="sans-serif" font-size="11" lengthAdjust="spacingAndGlyphs" textLength="59" x="264.1944" y="604.0908">write(): void</text><rect fill="#F24D5C" height="6" style="stroke: #C82930; stroke-width: 1.0;" width="6" x="252.1944" y="610.5078"/><text fill="#000000" font-family="sans-serif" font-size="11" lengthAdjust="spacingAndGlyphs" textLength="118" x="264.1944" y="617.9268">printRowBoard(int): void</text><rect fill="#F24D5C" height="6" style="stroke: #C82930; stroke-width: 1.0;" width="6" x="252.1944" y="624.3438"/><text fill="#000000" font-family="sans-serif" font-size="11" lengthAdjust="spacingAndGlyphs" textLength="175" x="264.1944" y="631.7627">printSquareValueBoard(int, int): void</text><!--MD5=[0e5b47c419ba94b2bd3b06fa97d12493]
class tictactoe.views.console.ChoosePlayerView--><rect fill="#FEFECE" filter="url(#f1aadxlrg56h4j)" height="75.6719" id="tictactoe.views.console.ChoosePlayerView" style="stroke: #A80036; stroke-width: 1.5;" width="139" x="506.1944" y="541.5"/><ellipse cx="522.5444" cy="557.5" fill="#ADD1B2" rx="11" ry="11" style="stroke: #A80036; stroke-width: 1.0;"/><path d="M525.31,553.375 Q525.4663,553.1563 525.6538,553.0469 Q525.8413,552.9375 526.06,552.9375 Q526.435,552.9375 526.6694,553.2031 Q526.9038,553.4531 526.9038,554.0625 L526.9038,555.5156 Q526.9038,556.125 526.6694,556.3906 Q526.435,556.6563 526.06,556.6563 Q525.7163,556.6563 525.5132,556.4531 Q525.31,556.2656 525.2007,555.75 Q525.1538,555.3906 524.9663,555.2031 Q524.6382,554.8281 524.0288,554.6094 Q523.4194,554.3906 522.7944,554.3906 Q522.0288,554.3906 521.3882,554.7188 Q520.7632,555.0469 520.2632,555.7969 Q519.7788,556.5469 519.7788,557.5781 L519.7788,558.6719 Q519.7788,559.9063 520.6694,560.7344 Q521.56,561.5469 523.1538,561.5469 Q524.0913,561.5469 524.7475,561.2969 Q525.1382,561.1406 525.56,560.7031 Q525.8257,560.4375 525.9663,560.3594 Q526.1225,560.2813 526.3257,560.2813 Q526.6538,560.2813 526.9038,560.5469 Q527.1694,560.7969 527.1694,561.1406 Q527.1694,561.4844 526.8257,561.8906 Q526.3257,562.4688 525.5288,562.7969 Q524.4507,563.25 523.1538,563.25 Q521.6382,563.25 520.435,562.625 Q519.4507,562.125 518.7632,561.0625 Q518.0757,559.9844 518.0757,558.7031 L518.0757,557.5469 Q518.0757,556.2188 518.685,555.0781 Q519.31,553.9219 520.4038,553.3125 Q521.4975,552.6875 522.7319,552.6875 Q523.4663,552.6875 524.1069,552.8594 Q524.7632,553.0156 525.31,553.375 Z "/><text fill="#000000" font-family="sans-serif" font-size="12" lengthAdjust="spacingAndGlyphs" textLength="104" x="536.8444" y="562.4102">ChoosePlayerView</text><line style="stroke: #A80036; stroke-width: 1.5;" x1="507.1944" x2="644.1944" y1="573.5" y2="573.5"/><line style="stroke: #A80036; stroke-width: 1.5;" x1="507.1944" x2="644.1944" y1="581.5" y2="581.5"/><polygon fill="#4177AF" points="517.1944,588.5,513.1944,594.5,521.1944,594.5" style="stroke: #1963A0; stroke-width: 1.0;"/><text fill="#000000" font-family="sans-serif" font-size="11" lengthAdjust="spacingAndGlyphs" textLength="92" x="526.1944" y="596.9189">readPlayers(): void</text><rect fill="#F24D5C" height="6" style="stroke: #C82930; stroke-width: 1.0;" width="6" x="514.1944" y="603.3359"/><text fill="#000000" font-family="sans-serif" font-size="11" lengthAdjust="spacingAndGlyphs" textLength="113" x="526.1944" y="610.7549">readUsersNumber(): int</text><!--MD5=[bde0c8ed193d8d2dbac1dee471354ab0]
class tictactoe.views.console.ConsoleView--><rect fill="#FEFECE" filter="url(#f1aadxlrg56h4j)" height="144.8516" id="tictactoe.views.console.ConsoleView" style="stroke: #A80036; stroke-width: 1.5;" width="141" x="88.1944" y="166"/><ellipse cx="119.3944" cy="182" fill="#ADD1B2" rx="11" ry="11" style="stroke: #A80036; stroke-width: 1.0;"/><path d="M122.16,177.875 Q122.3163,177.6563 122.5038,177.5469 Q122.6913,177.4375 122.91,177.4375 Q123.285,177.4375 123.5194,177.7031 Q123.7538,177.9531 123.7538,178.5625 L123.7538,180.0156 Q123.7538,180.625 123.5194,180.8906 Q123.285,181.1563 122.91,181.1563 Q122.5663,181.1563 122.3632,180.9531 Q122.16,180.7656 122.0507,180.25 Q122.0038,179.8906 121.8163,179.7031 Q121.4882,179.3281 120.8788,179.1094 Q120.2694,178.8906 119.6444,178.8906 Q118.8788,178.8906 118.2382,179.2188 Q117.6132,179.5469 117.1132,180.2969 Q116.6288,181.0469 116.6288,182.0781 L116.6288,183.1719 Q116.6288,184.4063 117.5194,185.2344 Q118.41,186.0469 120.0038,186.0469 Q120.9413,186.0469 121.5975,185.7969 Q121.9882,185.6406 122.41,185.2031 Q122.6757,184.9375 122.8163,184.8594 Q122.9725,184.7813 123.1757,184.7813 Q123.5038,184.7813 123.7538,185.0469 Q124.0194,185.2969 124.0194,185.6406 Q124.0194,185.9844 123.6757,186.3906 Q123.1757,186.9688 122.3788,187.2969 Q121.3007,187.75 120.0038,187.75 Q118.4882,187.75 117.285,187.125 Q116.3007,186.625 115.6132,185.5625 Q114.9257,184.4844 114.9257,183.2031 L114.9257,182.0469 Q114.9257,180.7188 115.535,179.5781 Q116.16,178.4219 117.2538,177.8125 Q118.3475,177.1875 119.5819,177.1875 Q120.3163,177.1875 120.9569,177.3594 Q121.6132,177.5156 122.16,177.875 Z "/><text fill="#000000" font-family="sans-serif" font-size="12" lengthAdjust="spacingAndGlyphs" textLength="73" x="136.9944" y="186.9102">ConsoleView</text><line style="stroke: #A80036; stroke-width: 1.5;" x1="89.1944" x2="228.1944" y1="198" y2="198"/><rect fill="none" height="6" style="stroke: #C82930; stroke-width: 1.0;" width="6" x="96.1944" y="206"/><text fill="#000000" font-family="sans-serif" font-size="11" lengthAdjust="spacingAndGlyphs" textLength="103" x="108.1944" y="213.4189">startView: StartView</text><rect fill="none" height="6" style="stroke: #C82930; stroke-width: 1.0;" width="6" x="96.1944" y="219.8359"/><text fill="#000000" font-family="sans-serif" font-size="11" lengthAdjust="spacingAndGlyphs" textLength="98" x="108.1944" y="227.2549">playView: PlayView</text><rect fill="none" height="6" style="stroke: #C82930; stroke-width: 1.0;" width="6" x="96.1944" y="233.6719"/><text fill="#000000" font-family="sans-serif" font-size="11" lengthAdjust="spacingAndGlyphs" textLength="115" x="108.1944" y="241.0908">resultView: ResultView</text><line style="stroke: #A80036; stroke-width: 1.5;" x1="89.1944" x2="228.1944" y1="247.5078" y2="247.5078"/><ellipse cx="99.1944" cy="258.5078" fill="#84BE84" rx="3" ry="3" style="stroke: #038048; stroke-width: 1.0;"/><text fill="#000000" font-family="sans-serif" font-size="11" lengthAdjust="spacingAndGlyphs" textLength="101" x="108.1944" y="262.9268">ConsoleView(Game)</text><polygon fill="#FFFF44" points="99.1944,267.3438,103.1944,271.3438,99.1944,275.3438,95.1944,271.3438" style="stroke: #B38D22; stroke-width: 1.0;"/><text fill="#000000" font-family="sans-serif" font-size="11" lengthAdjust="spacingAndGlyphs" textLength="56" x="108.1944" y="276.7627">start(): void</text><polygon fill="#FFFF44" points="99.1944,281.1797,103.1944,285.1797,99.1944,289.1797,95.1944,285.1797" style="stroke: #B38D22; stroke-width: 1.0;"/><text fill="#000000" font-family="sans-serif" font-size="11" lengthAdjust="spacingAndGlyphs" textLength="72" x="108.1944" y="290.5986">play(): boolean</text><polygon fill="#FFFF44" points="99.1944,295.0156,103.1944,299.0156,99.1944,303.0156,95.1944,299.0156" style="stroke: #B38D22; stroke-width: 1.0;"/><text fill="#000000" font-family="sans-serif" font-size="11" lengthAdjust="spacingAndGlyphs" textLength="61" x="108.1944" y="304.4346">result(): void</text><!--MD5=[54aa299435631381f3c0c028f26a058f]
class tictactoe.views.console.StartView--><rect fill="#FEFECE" filter="url(#f1aadxlrg56h4j)" height="89.5078" id="tictactoe.views.console.StartView" style="stroke: #A80036; stroke-width: 1.5;" width="111" x="367.1944" y="371"/><ellipse cx="394.7944" cy="387" fill="#ADD1B2" rx="11" ry="11" style="stroke: #A80036; stroke-width: 1.0;"/><path d="M397.56,382.875 Q397.7163,382.6563 397.9038,382.5469 Q398.0913,382.4375 398.31,382.4375 Q398.685,382.4375 398.9194,382.7031 Q399.1538,382.9531 399.1538,383.5625 L399.1538,385.0156 Q399.1538,385.625 398.9194,385.8906 Q398.685,386.1563 398.31,386.1563 Q397.9663,386.1563 397.7632,385.9531 Q397.56,385.7656 397.4507,385.25 Q397.4038,384.8906 397.2163,384.7031 Q396.8882,384.3281 396.2788,384.1094 Q395.6694,383.8906 395.0444,383.8906 Q394.2788,383.8906 393.6382,384.2188 Q393.0132,384.5469 392.5132,385.2969 Q392.0288,386.0469 392.0288,387.0781 L392.0288,388.1719 Q392.0288,389.4063 392.9194,390.2344 Q393.81,391.0469 395.4038,391.0469 Q396.3413,391.0469 396.9975,390.7969 Q397.3882,390.6406 397.81,390.2031 Q398.0757,389.9375 398.2163,389.8594 Q398.3725,389.7813 398.5757,389.7813 Q398.9038,389.7813 399.1538,390.0469 Q399.4194,390.2969 399.4194,390.6406 Q399.4194,390.9844 399.0757,391.3906 Q398.5757,391.9688 397.7788,392.2969 Q396.7007,392.75 395.4038,392.75 Q393.8882,392.75 392.685,392.125 Q391.7007,391.625 391.0132,390.5625 Q390.3257,389.4844 390.3257,388.2031 L390.3257,387.0469 Q390.3257,385.7188 390.935,384.5781 Q391.56,383.4219 392.6538,382.8125 Q393.7475,382.1875 394.9819,382.1875 Q395.7163,382.1875 396.3569,382.3594 Q397.0132,382.5156 397.56,382.875 Z "/><text fill="#000000" font-family="sans-serif" font-size="12" lengthAdjust="spacingAndGlyphs" textLength="51" x="411.5944" y="391.9102">StartView</text><line style="stroke: #A80036; stroke-width: 1.5;" x1="368.1944" x2="477.1944" y1="403" y2="403"/><polygon fill="none" points="378.1944,410,374.1944,416,382.1944,416" style="stroke: #1963A0; stroke-width: 1.0;"/><text fill="#000000" font-family="sans-serif" font-size="11" lengthAdjust="spacingAndGlyphs" textLength="60" x="387.1944" y="418.4189">game: Game</text><line style="stroke: #A80036; stroke-width: 1.5;" x1="368.1944" x2="477.1944" y1="424.8359" y2="424.8359"/><polygon fill="#4177AF" points="378.1944,431.8359,374.1944,437.8359,382.1944,437.8359" style="stroke: #1963A0; stroke-width: 1.0;"/><text fill="#000000" font-family="sans-serif" font-size="11" lengthAdjust="spacingAndGlyphs" textLength="85" x="387.1944" y="440.2549">StartView(Game)</text><polygon fill="#4177AF" points="378.1944,445.6719,374.1944,451.6719,382.1944,451.6719" style="stroke: #1963A0; stroke-width: 1.0;"/><text fill="#000000" font-family="sans-serif" font-size="11" lengthAdjust="spacingAndGlyphs" textLength="70" x="387.1944" y="454.0908">interact(): void</text><!--MD5=[0158df0baddf48f83142f472e341eacc]
class tictactoe.views.console.PlayView--><rect fill="#FEFECE" filter="url(#f1aadxlrg56h4j)" height="89.5078" id="tictactoe.views.console.PlayView" style="stroke: #A80036; stroke-width: 1.5;" width="114" x="64.6944" y="371"/><ellipse cx="94.5444" cy="387" fill="#ADD1B2" rx="11" ry="11" style="stroke: #A80036; stroke-width: 1.0;"/><path d="M97.31,382.875 Q97.4663,382.6563 97.6538,382.5469 Q97.8413,382.4375 98.06,382.4375 Q98.435,382.4375 98.6694,382.7031 Q98.9038,382.9531 98.9038,383.5625 L98.9038,385.0156 Q98.9038,385.625 98.6694,385.8906 Q98.435,386.1563 98.06,386.1563 Q97.7163,386.1563 97.5132,385.9531 Q97.31,385.7656 97.2007,385.25 Q97.1538,384.8906 96.9663,384.7031 Q96.6382,384.3281 96.0288,384.1094 Q95.4194,383.8906 94.7944,383.8906 Q94.0288,383.8906 93.3882,384.2188 Q92.7632,384.5469 92.2632,385.2969 Q91.7788,386.0469 91.7788,387.0781 L91.7788,388.1719 Q91.7788,389.4063 92.6694,390.2344 Q93.56,391.0469 95.1538,391.0469 Q96.0913,391.0469 96.7475,390.7969 Q97.1382,390.6406 97.56,390.2031 Q97.8257,389.9375 97.9663,389.8594 Q98.1225,389.7813 98.3257,389.7813 Q98.6538,389.7813 98.9038,390.0469 Q99.1694,390.2969 99.1694,390.6406 Q99.1694,390.9844 98.8257,391.3906 Q98.3257,391.9688 97.5288,392.2969 Q96.4507,392.75 95.1538,392.75 Q93.6382,392.75 92.435,392.125 Q91.4507,391.625 90.7632,390.5625 Q90.0757,389.4844 90.0757,388.2031 L90.0757,387.0469 Q90.0757,385.7188 90.685,384.5781 Q91.31,383.4219 92.4038,382.8125 Q93.4975,382.1875 94.7319,382.1875 Q95.4663,382.1875 96.1069,382.3594 Q96.7632,382.5156 97.31,382.875 Z "/><text fill="#000000" font-family="sans-serif" font-size="12" lengthAdjust="spacingAndGlyphs" textLength="49" x="111.8444" y="391.9102">PlayView</text><line style="stroke: #A80036; stroke-width: 1.5;" x1="65.6944" x2="177.6944" y1="403" y2="403"/><polygon fill="none" points="75.6944,410,71.6944,416,79.6944,416" style="stroke: #1963A0; stroke-width: 1.0;"/><text fill="#000000" font-family="sans-serif" font-size="11" lengthAdjust="spacingAndGlyphs" textLength="60" x="84.6944" y="418.4189">game: Game</text><line style="stroke: #A80036; stroke-width: 1.5;" x1="65.6944" x2="177.6944" y1="424.8359" y2="424.8359"/><polygon fill="#4177AF" points="75.6944,431.8359,71.6944,437.8359,79.6944,437.8359" style="stroke: #1963A0; stroke-width: 1.0;"/><text fill="#000000" font-family="sans-serif" font-size="11" lengthAdjust="spacingAndGlyphs" textLength="82" x="84.6944" y="440.2549">PlayView(Game)</text><polygon fill="#4177AF" points="75.6944,445.6719,71.6944,451.6719,79.6944,451.6719" style="stroke: #1963A0; stroke-width: 1.0;"/><text fill="#000000" font-family="sans-serif" font-size="11" lengthAdjust="spacingAndGlyphs" textLength="88" x="84.6944" y="454.0908">interact(): boolean</text><!--MD5=[4ad8229f56e3458317cb6855b3145039]
class tictactoe.views.console.ResultView--><rect fill="#FEFECE" filter="url(#f1aadxlrg56h4j)" height="89.5078" id="tictactoe.views.console.ResultView" style="stroke: #A80036; stroke-width: 1.5;" width="118" x="213.6944" y="371"/><ellipse cx="239.4944" cy="387" fill="#ADD1B2" rx="11" ry="11" style="stroke: #A80036; stroke-width: 1.0;"/><path d="M242.26,382.875 Q242.4163,382.6563 242.6038,382.5469 Q242.7913,382.4375 243.01,382.4375 Q243.385,382.4375 243.6194,382.7031 Q243.8538,382.9531 243.8538,383.5625 L243.8538,385.0156 Q243.8538,385.625 243.6194,385.8906 Q243.385,386.1563 243.01,386.1563 Q242.6663,386.1563 242.4632,385.9531 Q242.26,385.7656 242.1507,385.25 Q242.1038,384.8906 241.9163,384.7031 Q241.5882,384.3281 240.9788,384.1094 Q240.3694,383.8906 239.7444,383.8906 Q238.9788,383.8906 238.3382,384.2188 Q237.7132,384.5469 237.2132,385.2969 Q236.7288,386.0469 236.7288,387.0781 L236.7288,388.1719 Q236.7288,389.4063 237.6194,390.2344 Q238.51,391.0469 240.1038,391.0469 Q241.0413,391.0469 241.6975,390.7969 Q242.0882,390.6406 242.51,390.2031 Q242.7757,389.9375 242.9163,389.8594 Q243.0725,389.7813 243.2757,389.7813 Q243.6038,389.7813 243.8538,390.0469 Q244.1194,390.2969 244.1194,390.6406 Q244.1194,390.9844 243.7757,391.3906 Q243.2757,391.9688 242.4788,392.2969 Q241.4007,392.75 240.1038,392.75 Q238.5882,392.75 237.385,392.125 Q236.4007,391.625 235.7132,390.5625 Q235.0257,389.4844 235.0257,388.2031 L235.0257,387.0469 Q235.0257,385.7188 235.635,384.5781 Q236.26,383.4219 237.3538,382.8125 Q238.4475,382.1875 239.6819,382.1875 Q240.4163,382.1875 241.0569,382.3594 Q241.7132,382.5156 242.26,382.875 Z "/><text fill="#000000" font-family="sans-serif" font-size="12" lengthAdjust="spacingAndGlyphs" textLength="62" x="255.8944" y="391.9102">ResultView</text><line style="stroke: #A80036; stroke-width: 1.5;" x1="214.6944" x2="330.6944" y1="403" y2="403"/><polygon fill="none" points="224.6944,410,220.6944,416,228.6944,416" style="stroke: #1963A0; stroke-width: 1.0;"/><text fill="#000000" font-family="sans-serif" font-size="11" lengthAdjust="spacingAndGlyphs" textLength="60" x="233.6944" y="418.4189">game: Game</text><line style="stroke: #A80036; stroke-width: 1.5;" x1="214.6944" x2="330.6944" y1="424.8359" y2="424.8359"/><polygon fill="#4177AF" points="224.6944,431.8359,220.6944,437.8359,228.6944,437.8359" style="stroke: #1963A0; stroke-width: 1.0;"/><text fill="#000000" font-family="sans-serif" font-size="11" lengthAdjust="spacingAndGlyphs" textLength="92" x="233.6944" y="440.2549">ResultView(Game)</text><polygon fill="#4177AF" points="224.6944,445.6719,220.6944,451.6719,228.6944,451.6719" style="stroke: #1963A0; stroke-width: 1.0;"/><text fill="#000000" font-family="sans-serif" font-size="11" lengthAdjust="spacingAndGlyphs" textLength="70" x="233.6944" y="454.0908">interact(): void</text><!--MD5=[8830b246a550294711e6eb5af1606829]
class tictactoe.views.console.CoordinateView--><rect fill="#FEFECE" filter="url(#f1aadxlrg56h4j)" height="61.8359" id="tictactoe.views.console.CoordinateView" style="stroke: #A80036; stroke-width: 1.5;" width="142" x="656.6944" y="385"/><ellipse cx="682.0444" cy="401" fill="#ADD1B2" rx="11" ry="11" style="stroke: #A80036; stroke-width: 1.0;"/><path d="M684.81,396.875 Q684.9663,396.6563 685.1538,396.5469 Q685.3413,396.4375 685.56,396.4375 Q685.935,396.4375 686.1694,396.7031 Q686.4038,396.9531 686.4038,397.5625 L686.4038,399.0156 Q686.4038,399.625 686.1694,399.8906 Q685.935,400.1563 685.56,400.1563 Q685.2163,400.1563 685.0132,399.9531 Q684.81,399.7656 684.7007,399.25 Q684.6538,398.8906 684.4663,398.7031 Q684.1382,398.3281 683.5288,398.1094 Q682.9194,397.8906 682.2944,397.8906 Q681.5288,397.8906 680.8882,398.2188 Q680.2632,398.5469 679.7632,399.2969 Q679.2788,400.0469 679.2788,401.0781 L679.2788,402.1719 Q679.2788,403.4063 680.1694,404.2344 Q681.06,405.0469 682.6538,405.0469 Q683.5913,405.0469 684.2475,404.7969 Q684.6382,404.6406 685.06,404.2031 Q685.3257,403.9375 685.4663,403.8594 Q685.6225,403.7813 685.8257,403.7813 Q686.1538,403.7813 686.4038,404.0469 Q686.6694,404.2969 686.6694,404.6406 Q686.6694,404.9844 686.3257,405.3906 Q685.8257,405.9688 685.0288,406.2969 Q683.9507,406.75 682.6538,406.75 Q681.1382,406.75 679.935,406.125 Q678.9507,405.625 678.2632,404.5625 Q677.5757,403.4844 677.5757,402.2031 L677.5757,401.0469 Q677.5757,399.7188 678.185,398.5781 Q678.81,397.4219 679.9038,396.8125 Q680.9975,396.1875 682.2319,396.1875 Q682.9663,396.1875 683.6069,396.3594 Q684.2632,396.5156 684.81,396.875 Z "/><text fill="#000000" font-family="sans-serif" font-size="12" lengthAdjust="spacingAndGlyphs" textLength="87" x="698.3444" y="405.9102">CoordinateView</text><line style="stroke: #A80036; stroke-width: 1.5;" x1="657.6944" x2="797.6944" y1="417" y2="417"/><line style="stroke: #A80036; stroke-width: 1.5;" x1="657.6944" x2="797.6944" y1="425" y2="425"/><polygon fill="#4177AF" points="667.6944,432,663.6944,438,671.6944,438" style="stroke: #1963A0; stroke-width: 1.0;"/><text fill="#000000" font-family="sans-serif" font-size="11" lengthAdjust="spacingAndGlyphs" textLength="116" x="676.6944" y="440.4189">read(String): Coordinate</text><!--MD5=[1ca4e66fd27a79cb5d7093d90b3139a4]
class tictactoe.views.console.ErrorView--><rect fill="#FEFECE" filter="url(#f1aadxlrg56h4j)" height="75.6719" id="tictactoe.views.console.ErrorView" style="stroke: #A80036; stroke-width: 1.5;" width="108" x="513.6944" y="378"/><ellipse cx="539.0444" cy="394" fill="#ADD1B2" rx="11" ry="11" style="stroke: #A80036; stroke-width: 1.0;"/><path d="M541.81,389.875 Q541.9663,389.6563 542.1538,389.5469 Q542.3413,389.4375 542.56,389.4375 Q542.935,389.4375 543.1694,389.7031 Q543.4038,389.9531 543.4038,390.5625 L543.4038,392.0156 Q543.4038,392.625 543.1694,392.8906 Q542.935,393.1563 542.56,393.1563 Q542.2163,393.1563 542.0132,392.9531 Q541.81,392.7656 541.7007,392.25 Q541.6538,391.8906 541.4663,391.7031 Q541.1382,391.3281 540.5288,391.1094 Q539.9194,390.8906 539.2944,390.8906 Q538.5288,390.8906 537.8882,391.2188 Q537.2632,391.5469 536.7632,392.2969 Q536.2788,393.0469 536.2788,394.0781 L536.2788,395.1719 Q536.2788,396.4063 537.1694,397.2344 Q538.06,398.0469 539.6538,398.0469 Q540.5913,398.0469 541.2475,397.7969 Q541.6382,397.6406 542.06,397.2031 Q542.3257,396.9375 542.4663,396.8594 Q542.6225,396.7813 542.8257,396.7813 Q543.1538,396.7813 543.4038,397.0469 Q543.6694,397.2969 543.6694,397.6406 Q543.6694,397.9844 543.3257,398.3906 Q542.8257,398.9688 542.0288,399.2969 Q540.9507,399.75 539.6538,399.75 Q538.1382,399.75 536.935,399.125 Q535.9507,398.625 535.2632,397.5625 Q534.5757,396.4844 534.5757,395.2031 L534.5757,394.0469 Q534.5757,392.7188 535.185,391.5781 Q535.81,390.4219 536.9038,389.8125 Q537.9975,389.1875 539.2319,389.1875 Q539.9663,389.1875 540.6069,389.3594 Q541.2632,389.5156 541.81,389.875 Z "/><text fill="#000000" font-family="sans-serif" font-size="12" lengthAdjust="spacingAndGlyphs" textLength="53" x="555.3444" y="398.9102">ErrorView</text><line style="stroke: #A80036; stroke-width: 1.5;" x1="514.6944" x2="620.6944" y1="410" y2="410"/><line style="stroke: #A80036; stroke-width: 1.5;" x1="514.6944" x2="620.6944" y1="418" y2="418"/><polygon fill="#4177AF" points="524.6944,425,520.6944,431,528.6944,431" style="stroke: #1963A0; stroke-width: 1.0;"/><text fill="#000000" font-family="sans-serif" font-size="11" lengthAdjust="spacingAndGlyphs" textLength="82" x="533.6944" y="433.4189">ErrorView(Error)</text><polygon fill="#4177AF" points="524.6944,438.8359,520.6944,444.8359,528.6944,444.8359" style="stroke: #1963A0; stroke-width: 1.0;"/><text fill="#000000" font-family="sans-serif" font-size="11" lengthAdjust="spacingAndGlyphs" textLength="67" x="533.6944" y="447.2549">writeln(): void</text><!--MD5=[4afe6aabb27d783e4a9a9dcc50c35fae]
class tictactoe.views.console.MachinePlayerView--><rect fill="#FEFECE" filter="url(#f1aadxlrg56h4j)" height="89.5078" id="tictactoe.views.console.MachinePlayerView" style="stroke: #A80036; stroke-width: 1.5;" width="216" x="264.6944" y="193.5"/><ellipse cx="315.4444" cy="209.5" fill="#ADD1B2" rx="11" ry="11" style="stroke: #A80036; stroke-width: 1.0;"/><path d="M318.21,205.375 Q318.3663,205.1563 318.5538,205.0469 Q318.7413,204.9375 318.96,204.9375 Q319.335,204.9375 319.5694,205.2031 Q319.8038,205.4531 319.8038,206.0625 L319.8038,207.5156 Q319.8038,208.125 319.5694,208.3906 Q319.335,208.6563 318.96,208.6563 Q318.6163,208.6563 318.4132,208.4531 Q318.21,208.2656 318.1007,207.75 Q318.0538,207.3906 317.8663,207.2031 Q317.5382,206.8281 316.9288,206.6094 Q316.3194,206.3906 315.6944,206.3906 Q314.9288,206.3906 314.2882,206.7188 Q313.6632,207.0469 313.1632,207.7969 Q312.6788,208.5469 312.6788,209.5781 L312.6788,210.6719 Q312.6788,211.9063 313.5694,212.7344 Q314.46,213.5469 316.0538,213.5469 Q316.9913,213.5469 317.6475,213.2969 Q318.0382,213.1406 318.46,212.7031 Q318.7257,212.4375 318.8663,212.3594 Q319.0225,212.2813 319.2257,212.2813 Q319.5538,212.2813 319.8038,212.5469 Q320.0694,212.7969 320.0694,213.1406 Q320.0694,213.4844 319.7257,213.8906 Q319.2257,214.4688 318.4288,214.7969 Q317.3507,215.25 316.0538,215.25 Q314.5382,215.25 313.335,214.625 Q312.3507,214.125 311.6632,213.0625 Q310.9757,211.9844 310.9757,210.7031 L310.9757,209.5469 Q310.9757,208.2188 311.585,207.0781 Q312.21,205.9219 313.3038,205.3125 Q314.3975,204.6875 315.6319,204.6875 Q316.3663,204.6875 317.0069,204.8594 Q317.6632,205.0156 318.21,205.375 Z "/><text fill="#000000" font-family="sans-serif" font-size="12" lengthAdjust="spacingAndGlyphs" textLength="106" x="335.9444" y="214.4102">MachinePlayerView</text><line style="stroke: #A80036; stroke-width: 1.5;" x1="265.6944" x2="479.6944" y1="225.5" y2="225.5"/><line style="stroke: #A80036; stroke-width: 1.5;" x1="265.6944" x2="479.6944" y1="233.5" y2="233.5"/><polygon fill="#4177AF" points="275.6944,240.5,271.6944,246.5,279.6944,246.5" style="stroke: #1963A0; stroke-width: 1.0;"/><text fill="#000000" font-family="sans-serif" font-size="11" lengthAdjust="spacingAndGlyphs" textLength="134" x="284.6944" y="248.9189">MachinePlayerView(Player)</text><polygon fill="#4177AF" points="275.6944,254.3359,271.6944,260.3359,279.6944,260.3359" style="stroke: #1963A0; stroke-width: 1.0;"/><text fill="#000000" font-family="sans-serif" font-size="11" lengthAdjust="spacingAndGlyphs" textLength="167" x="284.6944" y="262.7549">readCoordinateToPut(): Coordinate</text><polygon fill="#4177AF" points="275.6944,268.1719,271.6944,274.1719,279.6944,274.1719" style="stroke: #1963A0; stroke-width: 1.0;"/><text fill="#000000" font-family="sans-serif" font-size="11" lengthAdjust="spacingAndGlyphs" textLength="190" x="284.6944" y="276.5908">readCoordinatesToMove(): Coordinate[]</text><!--MD5=[d4f4ae14a368e3fcfff527b6459d05f0]
class tictactoe.views.console.UserPlayerView--><rect fill="#FEFECE" filter="url(#f1aadxlrg56h4j)" height="117.1797" id="tictactoe.views.console.UserPlayerView" style="stroke: #A80036; stroke-width: 1.5;" width="233" x="516.1944" y="180"/><ellipse cx="584.9444" cy="196" fill="#ADD1B2" rx="11" ry="11" style="stroke: #A80036; stroke-width: 1.0;"/><path d="M587.71,191.875 Q587.8663,191.6563 588.0538,191.5469 Q588.2413,191.4375 588.46,191.4375 Q588.835,191.4375 589.0694,191.7031 Q589.3038,191.9531 589.3038,192.5625 L589.3038,194.0156 Q589.3038,194.625 589.0694,194.8906 Q588.835,195.1563 588.46,195.1563 Q588.1163,195.1563 587.9132,194.9531 Q587.71,194.7656 587.6007,194.25 Q587.5538,193.8906 587.3663,193.7031 Q587.0382,193.3281 586.4288,193.1094 Q585.8194,192.8906 585.1944,192.8906 Q584.4288,192.8906 583.7882,193.2188 Q583.1632,193.5469 582.6632,194.2969 Q582.1788,195.0469 582.1788,196.0781 L582.1788,197.1719 Q582.1788,198.4063 583.0694,199.2344 Q583.96,200.0469 585.5538,200.0469 Q586.4913,200.0469 587.1475,199.7969 Q587.5382,199.6406 587.96,199.2031 Q588.2257,198.9375 588.3663,198.8594 Q588.5225,198.7813 588.7257,198.7813 Q589.0538,198.7813 589.3038,199.0469 Q589.5694,199.2969 589.5694,199.6406 Q589.5694,199.9844 589.2257,200.3906 Q588.7257,200.9688 587.9288,201.2969 Q586.8507,201.75 585.5538,201.75 Q584.0382,201.75 582.835,201.125 Q581.8507,200.625 581.1632,199.5625 Q580.4757,198.4844 580.4757,197.2031 L580.4757,196.0469 Q580.4757,194.7188 581.085,193.5781 Q581.71,192.4219 582.8038,191.8125 Q583.8975,191.1875 585.1319,191.1875 Q585.8663,191.1875 586.5069,191.3594 Q587.1632,191.5156 587.71,191.875 Z "/><text fill="#000000" font-family="sans-serif" font-size="12" lengthAdjust="spacingAndGlyphs" textLength="87" x="605.4444" y="200.9102">UserPlayerView</text><line style="stroke: #A80036; stroke-width: 1.5;" x1="517.1944" x2="748.1944" y1="212" y2="212"/><polygon fill="none" points="527.1944,219,523.1944,225,531.1944,225" style="stroke: #1963A0; stroke-width: 1.0;"/><text fill="#000000" font-family="sans-serif" font-size="11" lengthAdjust="spacingAndGlyphs" text-decoration="underline" textLength="183" x="536.1944" y="227.4189">ENTER_COORDINATE_TO_PUT: String</text><polygon fill="none" points="527.1944,232.8359,523.1944,238.8359,531.1944,238.8359" style="stroke: #1963A0; stroke-width: 1.0;"/><text fill="#000000" font-family="sans-serif" font-size="11" lengthAdjust="spacingAndGlyphs" text-decoration="underline" textLength="207" x="536.1944" y="241.2549">ENTER_COORDINATE_TO_REMOVE: String</text><line style="stroke: #A80036; stroke-width: 1.5;" x1="517.1944" x2="748.1944" y1="247.6719" y2="247.6719"/><polygon fill="#4177AF" points="527.1944,254.6719,523.1944,260.6719,531.1944,260.6719" style="stroke: #1963A0; stroke-width: 1.0;"/><text fill="#000000" font-family="sans-serif" font-size="11" lengthAdjust="spacingAndGlyphs" textLength="117" x="536.1944" y="263.0908">UserPlayerView(Player)</text><polygon fill="#4177AF" points="527.1944,268.5078,523.1944,274.5078,531.1944,274.5078" style="stroke: #1963A0; stroke-width: 1.0;"/><text fill="#000000" font-family="sans-serif" font-size="11" lengthAdjust="spacingAndGlyphs" textLength="167" x="536.1944" y="276.9268">readCoordinateToPut(): Coordinate</text><polygon fill="#4177AF" points="527.1944,282.3438,523.1944,288.3438,531.1944,288.3438" style="stroke: #1963A0; stroke-width: 1.0;"/><text fill="#000000" font-family="sans-serif" font-size="11" lengthAdjust="spacingAndGlyphs" textLength="190" x="536.1944" y="290.7627">readCoordinatesToMove(): Coordinate[]</text><!--MD5=[2dcb8e10b6e8b78f41f52f48677e1ea3]
class utils.WithConsoleView--><rect fill="#FEFECE" filter="url(#f1aadxlrg56h4j)" height="48" id="utils.WithConsoleView" style="stroke: #A80036; stroke-width: 1.5;" width="129" x="856.1944" y="214.5"/><ellipse cx="871.1944" cy="230.5" fill="#ADD1B2" rx="11" ry="11" style="stroke: #A80036; stroke-width: 1.0;"/><path d="M873.96,226.375 Q874.1163,226.1563 874.3038,226.0469 Q874.4913,225.9375 874.71,225.9375 Q875.085,225.9375 875.3194,226.2031 Q875.5538,226.4531 875.5538,227.0625 L875.5538,228.5156 Q875.5538,229.125 875.3194,229.3906 Q875.085,229.6563 874.71,229.6563 Q874.3663,229.6563 874.1632,229.4531 Q873.96,229.2656 873.8507,228.75 Q873.8038,228.3906 873.6163,228.2031 Q873.2882,227.8281 872.6788,227.6094 Q872.0694,227.3906 871.4444,227.3906 Q870.6788,227.3906 870.0382,227.7188 Q869.4132,228.0469 868.9132,228.7969 Q868.4288,229.5469 868.4288,230.5781 L868.4288,231.6719 Q868.4288,232.9063 869.3194,233.7344 Q870.21,234.5469 871.8038,234.5469 Q872.7413,234.5469 873.3975,234.2969 Q873.7882,234.1406 874.21,233.7031 Q874.4757,233.4375 874.6163,233.3594 Q874.7725,233.2813 874.9757,233.2813 Q875.3038,233.2813 875.5538,233.5469 Q875.8194,233.7969 875.8194,234.1406 Q875.8194,234.4844 875.4757,234.8906 Q874.9757,235.4688 874.1788,235.7969 Q873.1007,236.25 871.8038,236.25 Q870.2882,236.25 869.085,235.625 Q868.1007,235.125 867.4132,234.0625 Q866.7257,232.9844 866.7257,231.7031 L866.7257,230.5469 Q866.7257,229.2188 867.335,228.0781 Q867.96,226.9219 869.0538,226.3125 Q870.1475,225.6875 871.3819,225.6875 Q872.1163,225.6875 872.7569,225.8594 Q873.4132,226.0156 873.96,226.375 Z "/><text fill="#000000" font-family="sans-serif" font-size="12" lengthAdjust="spacingAndGlyphs" textLength="97" x="885.1944" y="235.4102">WithConsoleView</text><line style="stroke: #A80036; stroke-width: 1.5;" x1="857.1944" x2="984.1944" y1="246.5" y2="246.5"/><line style="stroke: #A80036; stroke-width: 1.5;" x1="857.1944" x2="984.1944" y1="254.5" y2="254.5"/><!--MD5=[015754420c4cdd9bacda884b3fa8c6ca]
class tictactoe.views.View--><rect fill="#FEFECE" filter="url(#f1aadxlrg56h4j)" height="48" id="tictactoe.views.View" style="stroke: #A80036; stroke-width: 1.5;" width="58" x="233.6944" y="42"/><ellipse cx="248.6944" cy="58" fill="#ADD1B2" rx="11" ry="11" style="stroke: #A80036; stroke-width: 1.0;"/><path d="M251.46,53.875 Q251.6163,53.6563 251.8038,53.5469 Q251.9913,53.4375 252.21,53.4375 Q252.585,53.4375 252.8194,53.7031 Q253.0538,53.9531 253.0538,54.5625 L253.0538,56.0156 Q253.0538,56.625 252.8194,56.8906 Q252.585,57.1563 252.21,57.1563 Q251.8663,57.1563 251.6632,56.9531 Q251.46,56.7656 251.3507,56.25 Q251.3038,55.8906 251.1163,55.7031 Q250.7882,55.3281 250.1788,55.1094 Q249.5694,54.8906 248.9444,54.8906 Q248.1788,54.8906 247.5382,55.2188 Q246.9132,55.5469 246.4132,56.2969 Q245.9288,57.0469 245.9288,58.0781 L245.9288,59.1719 Q245.9288,60.4063 246.8194,61.2344 Q247.71,62.0469 249.3038,62.0469 Q250.2413,62.0469 250.8975,61.7969 Q251.2882,61.6406 251.71,61.2031 Q251.9757,60.9375 252.1163,60.8594 Q252.2725,60.7813 252.4757,60.7813 Q252.8038,60.7813 253.0538,61.0469 Q253.3194,61.2969 253.3194,61.6406 Q253.3194,61.9844 252.9757,62.3906 Q252.4757,62.9688 251.6788,63.2969 Q250.6007,63.75 249.3038,63.75 Q247.7882,63.75 246.585,63.125 Q245.6007,62.625 244.9132,61.5625 Q244.2257,60.4844 244.2257,59.2031 L244.2257,58.0469 Q244.2257,56.7188 244.835,55.5781 Q245.46,54.4219 246.5538,53.8125 Q247.6475,53.1875 248.8819,53.1875 Q249.6163,53.1875 250.2569,53.3594 Q250.9132,53.5156 251.46,53.875 Z "/><text fill="#000000" font-family="sans-serif" font-size="12" lengthAdjust="spacingAndGlyphs" textLength="26" x="262.6944" y="62.9102">View</text><line style="stroke: #A80036; stroke-width: 1.5;" x1="234.6944" x2="290.6944" y1="74" y2="74"/><line style="stroke: #A80036; stroke-width: 1.5;" x1="234.6944" x2="290.6944" y1="82" y2="82"/><!--MD5=[17799e03bfee0ccb3aa03b93da9c26d6]
class tictactoe.views.ErrorView--><rect fill="#FEFECE" filter="url(#f1aadxlrg56h4j)" height="48" id="tictactoe.views.ErrorView" style="stroke: #A80036; stroke-width: 1.5;" width="85" x="454.1944" y="42"/><ellipse cx="469.1944" cy="58" fill="#ADD1B2" rx="11" ry="11" style="stroke: #A80036; stroke-width: 1.0;"/><path d="M471.96,53.875 Q472.1163,53.6563 472.3038,53.5469 Q472.4913,53.4375 472.71,53.4375 Q473.085,53.4375 473.3194,53.7031 Q473.5538,53.9531 473.5538,54.5625 L473.5538,56.0156 Q473.5538,56.625 473.3194,56.8906 Q473.085,57.1563 472.71,57.1563 Q472.3663,57.1563 472.1632,56.9531 Q471.96,56.7656 471.8507,56.25 Q471.8038,55.8906 471.6163,55.7031 Q471.2882,55.3281 470.6788,55.1094 Q470.0694,54.8906 469.4444,54.8906 Q468.6788,54.8906 468.0382,55.2188 Q467.4132,55.5469 466.9132,56.2969 Q466.4288,57.0469 466.4288,58.0781 L466.4288,59.1719 Q466.4288,60.4063 467.3194,61.2344 Q468.21,62.0469 469.8038,62.0469 Q470.7413,62.0469 471.3975,61.7969 Q471.7882,61.6406 472.21,61.2031 Q472.4757,60.9375 472.6163,60.8594 Q472.7725,60.7813 472.9757,60.7813 Q473.3038,60.7813 473.5538,61.0469 Q473.8194,61.2969 473.8194,61.6406 Q473.8194,61.9844 473.4757,62.3906 Q472.9757,62.9688 472.1788,63.2969 Q471.1007,63.75 469.8038,63.75 Q468.2882,63.75 467.085,63.125 Q466.1007,62.625 465.4132,61.5625 Q464.7257,60.4844 464.7257,59.2031 L464.7257,58.0469 Q464.7257,56.7188 465.335,55.5781 Q465.96,54.4219 467.0538,53.8125 Q468.1475,53.1875 469.3819,53.1875 Q470.1163,53.1875 470.7569,53.3594 Q471.4132,53.5156 471.96,53.875 Z "/><text fill="#000000" font-family="sans-serif" font-size="12" lengthAdjust="spacingAndGlyphs" textLength="53" x="483.1944" y="62.9102">ErrorView</text><line style="stroke: #A80036; stroke-width: 1.5;" x1="455.1944" x2="538.1944" y1="74" y2="74"/><line style="stroke: #A80036; stroke-width: 1.5;" x1="455.1944" x2="538.1944" y1="82" y2="82"/><!--MD5=[2ae15d20e7f22fd333327d3852982126]
class tictactoe.views.PlayerView--><rect fill="#FEFECE" filter="url(#f1aadxlrg56h4j)" height="48" id="tictactoe.views.PlayerView" style="stroke: #A80036; stroke-width: 1.5;" width="92" x="326.6944" y="42"/><ellipse cx="341.6944" cy="58" fill="#ADD1B2" rx="11" ry="11" style="stroke: #A80036; stroke-width: 1.0;"/><path d="M344.46,53.875 Q344.6163,53.6563 344.8038,53.5469 Q344.9913,53.4375 345.21,53.4375 Q345.585,53.4375 345.8194,53.7031 Q346.0538,53.9531 346.0538,54.5625 L346.0538,56.0156 Q346.0538,56.625 345.8194,56.8906 Q345.585,57.1563 345.21,57.1563 Q344.8663,57.1563 344.6632,56.9531 Q344.46,56.7656 344.3507,56.25 Q344.3038,55.8906 344.1163,55.7031 Q343.7882,55.3281 343.1788,55.1094 Q342.5694,54.8906 341.9444,54.8906 Q341.1788,54.8906 340.5382,55.2188 Q339.9132,55.5469 339.4132,56.2969 Q338.9288,57.0469 338.9288,58.0781 L338.9288,59.1719 Q338.9288,60.4063 339.8194,61.2344 Q340.71,62.0469 342.3038,62.0469 Q343.2413,62.0469 343.8975,61.7969 Q344.2882,61.6406 344.71,61.2031 Q344.9757,60.9375 345.1163,60.8594 Q345.2725,60.7813 345.4757,60.7813 Q345.8038,60.7813 346.0538,61.0469 Q346.3194,61.2969 346.3194,61.6406 Q346.3194,61.9844 345.9757,62.3906 Q345.4757,62.9688 344.6788,63.2969 Q343.6007,63.75 342.3038,63.75 Q340.7882,63.75 339.585,63.125 Q338.6007,62.625 337.9132,61.5625 Q337.2257,60.4844 337.2257,59.2031 L337.2257,58.0469 Q337.2257,56.7188 337.835,55.5781 Q338.46,54.4219 339.5538,53.8125 Q340.6475,53.1875 341.8819,53.1875 Q342.6163,53.1875 343.2569,53.3594 Q343.9132,53.5156 344.46,53.875 Z "/><text fill="#000000" font-family="sans-serif" font-size="12" lengthAdjust="spacingAndGlyphs" textLength="60" x="355.6944" y="62.9102">PlayerView</text><line style="stroke: #A80036; stroke-width: 1.5;" x1="327.6944" x2="417.6944" y1="74" y2="74"/><line style="stroke: #A80036; stroke-width: 1.5;" x1="327.6944" x2="417.6944" y1="82" y2="82"/><!--MD5=[4fe29ebdeb3371b5754843c99b0088e8]
reverse link utils.WithConsoleView to tictactoe.views.console.BoardView--><path d="M905.9594,281.681 C885.0144,339.229 845.8324,437.86 815.6944,461 C698.4964,550.986 630.6714,480.068 488.6944,521 C474.4684,525.101 459.7084,530.095 445.3004,535.407 " fill="none" id="utils.WithConsoleView&lt;-tictactoe.views.console.BoardView" style="stroke: #A80036; stroke-width: 1.0;"/><polygon fill="none" points="899.4734,279.029,912.8004,262.555,912.6564,283.744,899.4734,279.029" style="stroke: #A80036; stroke-width: 1.0;"/><!--MD5=[1b1ec1db639c24163e1745874c80bdf8]
reverse link utils.WithConsoleView to tictactoe.views.console.ChoosePlayerView--><path d="M923.9124,282.671 C925.1724,331.479 919.7174,410.676 877.6944,461 C819.5484,530.633 714.8334,559.163 645.2854,570.7433 " fill="none" id="utils.WithConsoleView&lt;-tictactoe.views.console.ChoosePlayerView" style="stroke: #A80036; stroke-width: 1.0;"/><polygon fill="none" points="916.9154,282.904,922.9684,262.598,930.9004,282.247,916.9154,282.904" style="stroke: #A80036; stroke-width: 1.0;"/><!--MD5=[d1f1f21fa3eb12d639631512d925e9a6]
reverse link tictactoe.views.View to tictactoe.views.console.ConsoleView--><path d="M237.8814,107.68 C227.2594,125.093 214.5324,145.959 202.4194,165.816 " fill="none" id="tictactoe.views.View&lt;-tictactoe.views.console.ConsoleView" style="stroke: #A80036; stroke-width: 1.0;"/><polygon fill="none" points="232.0604,103.779,248.4514,90.35,244.0124,111.069,232.0604,103.779" style="stroke: #A80036; stroke-width: 1.0;"/><!--MD5=[9113815f8bbc012213d6467f94b3dc5b]
link tictactoe.views.console.ConsoleView to tictactoe.views.console.StartView--><path d="M239.2181,305.6873 C239.2181,305.6873 244.4834,309.465 246.6944,311 C289.8934,341.001 303.4244,344.227 348.6944,371 C351.0064,372.367 353.3574,373.759 355.7324,375.166 " fill="none" id="tictactoe.views.console.ConsoleView-tictactoe.views.console.StartView" style="stroke: #A80036; stroke-width: 1.0;"/><polygon fill="#A80036" points="366.9504,381.817,361.2486,373.7864,362.6495,379.2671,357.1688,380.6679,366.9504,381.817" style="stroke: #A80036; stroke-width: 1.0;"/><line style="stroke: #A80036; stroke-width: 1.0;" x1="362.6495" x2="355.7679" y1="379.2671" y2="375.187"/><polygon fill="#A80036" points="229.5574,298.569,232.015,305.3484,239.2181,305.6873,236.7605,298.9079,229.5574,298.569" style="stroke: #A80036; stroke-width: 1.0;"/><!--MD5=[1735144fa38f1aa47117a26d071db586]
link tictactoe.views.console.ConsoleView to tictactoe.views.console.PlayView--><path d="M141.1152,322.8777 C141.1152,322.8777 136.0124,347.085 133.7254,357.935 " fill="none" id="tictactoe.views.console.ConsoleView-tictactoe.views.console.PlayView" style="stroke: #A80036; stroke-width: 1.0;"/><polygon fill="#A80036" points="131.0211,370.761,136.7923,362.7802,132.0529,365.8686,128.9645,361.1293,131.0211,370.761" style="stroke: #A80036; stroke-width: 1.0;"/><line style="stroke: #A80036; stroke-width: 1.0;" x1="132.0529" x2="133.7031" y1="365.8686" y2="358.041"/><polygon fill="#A80036" points="143.5914,311.136,138.4394,316.1814,141.1152,322.8777,146.2672,317.8323,143.5914,311.136" style="stroke: #A80036; stroke-width: 1.0;"/><!--MD5=[44d2792f564883fbc9918566bab83309]
link tictactoe.views.console.ConsoleView to tictactoe.views.console.ResultView--><path d="M211.7643,321.1992 C211.7643,321.1992 228.9764,347.698 236.7314,359.636 " fill="none" id="tictactoe.views.console.ConsoleView-tictactoe.views.console.ResultView" style="stroke: #A80036; stroke-width: 1.0;"/><polygon fill="#A80036" points="243.9584,370.761,242.4107,361.0345,241.2349,366.5678,235.7016,365.3921,243.9584,370.761" style="stroke: #A80036; stroke-width: 1.0;"/><line style="stroke: #A80036; stroke-width: 1.0;" x1="241.2349" x2="236.8764" y1="366.5678" y2="359.8595"/><polygon fill="#A80036" points="205.2274,311.136,205.1415,318.3466,211.7643,321.1992,211.8503,313.9886,205.2274,311.136" style="stroke: #A80036; stroke-width: 1.0;"/><!--MD5=[d983ff7a7ecf259bcdad60485d19cf95]
reverse link utils.WithConsoleView to tictactoe.views.console.CoordinateView--><path d="M879.9854,276.517 C844.5684,308.723 793.8784,354.817 760.8764,384.827 " fill="none" id="utils.WithConsoleView&lt;-tictactoe.views.console.CoordinateView" style="stroke: #A80036; stroke-width: 1.0;"/><polygon fill="none" points="875.5594,271.081,895.0654,262.805,884.9774,281.439,875.5594,271.081" style="stroke: #A80036; stroke-width: 1.0;"/><!--MD5=[521be967e4e828bbb4868581b766b1da]
reverse link tictactoe.views.ErrorView to tictactoe.views.console.ErrorView--><path d="M559.7084,70.853 C631.1534,76.69 741.0654,90.623 766.6944,122 C819.8334,187.055 811.7564,240.11 766.6944,311 C732.9894,364.023 693.9354,341.068 638.6944,371 C633.2114,373.971 627.5684,377.185 621.9714,380.477 " fill="none" id="tictactoe.views.ErrorView&lt;-tictactoe.views.console.ErrorView" style="stroke: #A80036; stroke-width: 1.0;"/><polygon fill="none" points="558.7684,77.802,539.3494,69.321,559.8184,63.841,558.7684,77.802" style="stroke: #A80036; stroke-width: 1.0;"/><!--MD5=[f807ad8458e0e3d6ca100de41032e69a]
reverse link tictactoe.views.PlayerView to tictactoe.views.console.MachinePlayerView--><path d="M372.6944,110.657 C372.6944,136.045 372.6944,167.952 372.6944,193.414 " fill="none" id="tictactoe.views.PlayerView&lt;-tictactoe.views.console.MachinePlayerView" style="stroke: #A80036; stroke-width: 1.0;"/><polygon fill="none" points="365.6944,110.35,372.6944,90.35,379.6944,110.35,365.6944,110.35" style="stroke: #A80036; stroke-width: 1.0;"/><!--MD5=[9623adb787708e117decab727ca41eb7]
link tictactoe.views.console.PlayView to tictactoe.views.console.BoardView--><path d="M178.8324,458.381 C203.6994,476.389 233.3414,497.856 260.6414,517.628 " fill="none" id="tictactoe.views.console.PlayView-&gt;tictactoe.views.console.BoardView" style="stroke: #A80036; stroke-width: 1.0; stroke-dasharray: 7.0,7.0;"/><polygon fill="#A80036" points="265.0024,520.786,260.0605,512.2667,260.9532,517.8527,255.3673,518.7454,265.0024,520.786" style="stroke: #A80036; stroke-width: 1.0;"/><!--MD5=[c652744ae97b12ae96764b7849bbed7e]
link tictactoe.views.console.PlayView to tictactoe.views.PlayerView--><path d="M93.9478,370.794 C57.6922,306.852 6,188.905 70.6944,122 C79.8907,112.489 296.1934,118.331 308.6944,114 C321.5734,109.538 334.0514,101.511 344.5164,93.34 " fill="none" id="tictactoe.views.console.PlayView-&gt;tictactoe.views.PlayerView" style="stroke: #A80036; stroke-width: 1.0; stroke-dasharray: 7.0,7.0;"/><polygon fill="#A80036" points="348.5734,90.086,339.0502,92.5975,344.6732,93.2147,344.0561,98.8378,348.5734,90.086" style="stroke: #A80036; stroke-width: 1.0;"/><!--MD5=[dfa315847ca75b86a537546c793c8626]
link tictactoe.views.console.StartView to tictactoe.views.console.ChoosePlayerView--><path d="M464.5024,461.131 C487.0944,484.978 514.8074,514.23 536.9144,537.566 " fill="none" id="tictactoe.views.console.StartView-&gt;tictactoe.views.console.ChoosePlayerView" style="stroke: #A80036; stroke-width: 1.0; stroke-dasharray: 7.0,7.0;"/><polygon fill="#A80036" points="540.4134,541.259,537.128,531.9743,536.9749,537.629,531.3201,537.4759,540.4134,541.259" style="stroke: #A80036; stroke-width: 1.0;"/><!--MD5=[e665259f0705ebc0d9068c66ae844f61]
reverse link tictactoe.views.PlayerView to tictactoe.views.console.UserPlayerView--><path d="M414.4374,102.135 C421.5244,106.753 429.0694,110.937 436.6944,114 C462.0674,124.191 472.7174,110.874 497.6944,122 C528.1244,135.555 556.9064,158.229 580.0144,179.916 " fill="none" id="tictactoe.views.PlayerView&lt;-tictactoe.views.console.UserPlayerView" style="stroke: #A80036; stroke-width: 1.0;"/><polygon fill="none" points="410.0274,107.582,397.9744,90.154,418.2644,96.263,410.0274,107.582" style="stroke: #A80036; stroke-width: 1.0;"/><!--MD5=[d08a44d06940417b04e1f442f789385d]
link tictactoe.views.console.UserPlayerView to tictactoe.views.console.ErrorView--><path d="M611.2304,297.452 C602.0824,322.153 591.6094,350.429 583.2284,373.057 " fill="none" id="tictactoe.views.console.UserPlayerView-&gt;tictactoe.views.console.ErrorView" style="stroke: #A80036; stroke-width: 1.0; stroke-dasharray: 7.0,7.0;"/><polygon fill="#A80036" points="581.4734,377.797,588.3511,370.7473,583.2105,373.1085,580.8494,367.9679,581.4734,377.797" style="stroke: #A80036; stroke-width: 1.0;"/><!--MD5=[93525d2da9d792717dcb2150911bbe9e]
link tictactoe.views.console.UserPlayerView to tictactoe.views.console.CoordinateView--><path d="M664.0644,297.452 C678.8594,324.783 696.0234,356.492 708.7934,380.084 " fill="none" id="tictactoe.views.console.UserPlayerView-&gt;tictactoe.views.console.CoordinateView" style="stroke: #A80036; stroke-width: 1.0; stroke-dasharray: 7.0,7.0;"/><polygon fill="#A80036" points="711.2874,384.69,710.5211,374.871,708.9074,380.2928,703.4856,378.6791,711.2874,384.69" style="stroke: #A80036; stroke-width: 1.0;"/><!--MD5=[549d873d2aa7dd12b7c966c3a2c9df01]
@startuml

class  tictactoe.views.console.BoardView{
~ board: Board
~ BoardView(Board)
~ write(): void
- printRowBoard(int): void
- printSquareValueBoard(int, int): void
}
utils.WithConsoleView <|-down- tictactoe.views.console.BoardView

class  tictactoe.views.console.ChoosePlayerView{
~ readPlayers(): void
- readUsersNumber(): int
}
utils.WithConsoleView <|-down- tictactoe.views.console.ChoosePlayerView

class  tictactoe.views.console.ConsoleView{
- startView: StartView
- playView: PlayView
- resultView: ResultView
+ ConsoleView(Game)
# start(): void
# play(): boolean
# result(): void
}
tictactoe.views.View <|-down- tictactoe.views.console.ConsoleView
tictactoe.views.console.ConsoleView *-down-> tictactoe.views.console.StartView
tictactoe.views.console.ConsoleView *-down-> tictactoe.views.console.PlayView
tictactoe.views.console.ConsoleView *-down-> tictactoe.views.console.ResultView

class  tictactoe.views.console.CoordinateView{
~ read(String): Coordinate
}
utils.WithConsoleView <|-down- tictactoe.views.console.CoordinateView

class  tictactoe.views.console.ErrorView{
~ ErrorView(Error)
~ writeln(): void
}
tictactoe.views.ErrorView <|-down- tictactoe.views.console.ErrorView

class  tictactoe.views.console.MachinePlayerView{
~ MachinePlayerView(Player)
~ readCoordinateToPut(): Coordinate
~ readCoordinatesToMove(): Coordinate[]
}
tictactoe.views.PlayerView <|-down- tictactoe.views.console.MachinePlayerView

class  tictactoe.views.console.PlayView{
~ game: Game
~ PlayView(Game)
~ interact(): boolean
}
tictactoe.views.console.PlayView ..> tictactoe.views.console.BoardView
tictactoe.views.console.PlayView ..> tictactoe.views.PlayerView

class tictactoe.views.console.ResultView{
~ game: Game
~ ResultView(Game)
~ interact(): void
}

class tictactoe.views.console.StartView{
~ game: Game
~ StartView(Game)
~ interact(): void
}
tictactoe.views.console.StartView ..> tictactoe.views.console.ChoosePlayerView

class  tictactoe.views.console.UserPlayerView{
~ {static} ENTER_COORDINATE_TO_PUT: String
~ {static} ENTER_COORDINATE_TO_REMOVE: String
~ UserPlayerView(Player)
~ readCoordinateToPut(): Coordinate
~ readCoordinatesToMove(): Coordinate[]
}
tictactoe.views.PlayerView <|-down- tictactoe.views.console.UserPlayerView
tictactoe.views.console.UserPlayerView ..> tictactoe.views.console.ErrorView
tictactoe.views.console.UserPlayerView ..> tictactoe.views.console.CoordinateView

@enduml

PlantUML version 1.2020.15(Sun Jun 28 13:39:45 CEST 2020)
(GPL source distribution)
Java Runtime: Java(TM) SE Runtime Environment
JVM: Java HotSpot(TM) 64-Bit Server VM
Default Encoding: windows-1252
Language: es
Country: ES
--></g></svg>