<?xml version="1.0" encoding="UTF-8" standalone="no"?><svg xmlns="http://www.w3.org/2000/svg" xmlns:xlink="http://www.w3.org/1999/xlink" contentScriptType="application/ecmascript" contentStyleType="text/css" height="323px" preserveAspectRatio="none" style="width:766px;height:323px;" version="1.1" viewBox="0 0 766 323" width="766px" zoomAndPan="magnify"><defs><filter height="300%" id="fgio5yt5650nr" width="300%" x="-1" y="-1"><feGaussianBlur result="blurOut" stdDeviation="2.0"/><feColorMatrix in="blurOut" result="blurOut2" type="matrix" values="0 0 0 0 0 0 0 0 0 0 0 0 0 0 0 0 0 0 .4 0"/><feOffset dx="4.0" dy="4.0" in="blurOut2" result="blurOut3"/><feBlend in="SourceGraphic" in2="blurOut3" mode="normal"/></filter></defs><g><!--MD5=[807bc46d8103c809ff053af9e140e1f5]
cluster tictactoe--><polygon fill="#FFFFFF" filter="url(#fgio5yt5650nr)" points="16,6,83,6,90,29.6094,359,29.6094,359,311,16,311,16,6" style="stroke: #000000; stroke-width: 1.5;"/><line style="stroke: #000000; stroke-width: 1.5;" x1="16" x2="90" y1="29.6094" y2="29.6094"/><text fill="#000000" font-family="sans-serif" font-size="14" font-weight="bold" lengthAdjust="spacingAndGlyphs" textLength="61" x="20" y="22.5332">tictactoe</text><!--MD5=[f4e83a21a957c5b9ba9691e6361db36b]
cluster tictactoe.views--><polygon fill="#FFFFFF" filter="url(#fgio5yt5650nr)" points="383,197,495,197,502,220.6094,505,220.6094,505,297,383,297,383,197" style="stroke: #000000; stroke-width: 1.5;"/><line style="stroke: #000000; stroke-width: 1.5;" x1="383" x2="502" y1="220.6094" y2="220.6094"/><text fill="#000000" font-family="sans-serif" font-size="14" font-weight="bold" lengthAdjust="spacingAndGlyphs" textLength="106" x="387" y="213.5332">tictactoe.views</text><!--MD5=[ee7e9a007a7c4d40c0679a27f272732d]
cluster tictactoe.controllers--><polygon fill="#FFFFFF" filter="url(#fgio5yt5650nr)" points="529,197,677,197,684,220.6094,744,220.6094,744,297,529,297,529,197" style="stroke: #000000; stroke-width: 1.5;"/><line style="stroke: #000000; stroke-width: 1.5;" x1="529" x2="684" y1="220.6094" y2="220.6094"/><text fill="#000000" font-family="sans-serif" font-size="14" font-weight="bold" lengthAdjust="spacingAndGlyphs" textLength="142" x="533" y="213.5332">tictactoe.controllers</text><!--MD5=[d26da01265d646b7f841c2729736529c]
class tictactoe.ConsoleTicTacToe--><rect fill="#FEFECE" filter="url(#fgio5yt5650nr)" height="75.6719" id="tictactoe.ConsoleTicTacToe" style="stroke: #A80036; stroke-width: 1.5;" width="136" x="32" y="219"/><ellipse cx="47" cy="235" fill="#ADD1B2" rx="11" ry="11" style="stroke: #A80036; stroke-width: 1.0;"/><path d="M49.7656,230.875 Q49.9219,230.6563 50.1094,230.5469 Q50.2969,230.4375 50.5156,230.4375 Q50.8906,230.4375 51.125,230.7031 Q51.3594,230.9531 51.3594,231.5625 L51.3594,233.0156 Q51.3594,233.625 51.125,233.8906 Q50.8906,234.1563 50.5156,234.1563 Q50.1719,234.1563 49.9688,233.9531 Q49.7656,233.7656 49.6563,233.25 Q49.6094,232.8906 49.4219,232.7031 Q49.0938,232.3281 48.4844,232.1094 Q47.875,231.8906 47.25,231.8906 Q46.4844,231.8906 45.8438,232.2188 Q45.2188,232.5469 44.7188,233.2969 Q44.2344,234.0469 44.2344,235.0781 L44.2344,236.1719 Q44.2344,237.4063 45.125,238.2344 Q46.0156,239.0469 47.6094,239.0469 Q48.5469,239.0469 49.2031,238.7969 Q49.5938,238.6406 50.0156,238.2031 Q50.2813,237.9375 50.4219,237.8594 Q50.5781,237.7813 50.7813,237.7813 Q51.1094,237.7813 51.3594,238.0469 Q51.625,238.2969 51.625,238.6406 Q51.625,238.9844 51.2813,239.3906 Q50.7813,239.9688 49.9844,240.2969 Q48.9063,240.75 47.6094,240.75 Q46.0938,240.75 44.8906,240.125 Q43.9063,239.625 43.2188,238.5625 Q42.5313,237.4844 42.5313,236.2031 L42.5313,235.0469 Q42.5313,233.7188 43.1406,232.5781 Q43.7656,231.4219 44.8594,230.8125 Q45.9531,230.1875 47.1875,230.1875 Q47.9219,230.1875 48.5625,230.3594 Q49.2188,230.5156 49.7656,230.875 Z "/><text fill="#000000" font-family="sans-serif" font-size="12" lengthAdjust="spacingAndGlyphs" textLength="104" x="61" y="239.9102">ConsoleTicTacToe</text><line style="stroke: #A80036; stroke-width: 1.5;" x1="33" x2="167" y1="251" y2="251"/><line style="stroke: #A80036; stroke-width: 1.5;" x1="33" x2="167" y1="259" y2="259"/><ellipse cx="43" cy="270" fill="#84BE84" rx="3" ry="3" style="stroke: #038048; stroke-width: 1.0;"/><text fill="#000000" font-family="sans-serif" font-size="11" lengthAdjust="spacingAndGlyphs" text-decoration="underline" textLength="90" x="52" y="274.4189">main(String[]): void</text><polygon fill="#FFFF44" points="43,278.8359,47,282.8359,43,286.8359,39,282.8359" style="stroke: #B38D22; stroke-width: 1.0;"/><text fill="#000000" font-family="sans-serif" font-size="11" lengthAdjust="spacingAndGlyphs" textLength="97" x="52" y="288.2549">createView(): View</text><!--MD5=[dcfee6ff2a733e6a859ce2b7bcbe021e]
class tictactoe.TicTacToe--><rect fill="#FEFECE" filter="url(#fgio5yt5650nr)" height="117.1797" id="tictactoe.TicTacToe" style="stroke: #A80036; stroke-width: 1.5;" width="117" x="225.5" y="42"/><ellipse cx="253.1" cy="58" fill="#ADD1B2" rx="11" ry="11" style="stroke: #A80036; stroke-width: 1.0;"/><path d="M255.8656,53.875 Q256.0219,53.6563 256.2094,53.5469 Q256.3969,53.4375 256.6156,53.4375 Q256.9906,53.4375 257.225,53.7031 Q257.4594,53.9531 257.4594,54.5625 L257.4594,56.0156 Q257.4594,56.625 257.225,56.8906 Q256.9906,57.1563 256.6156,57.1563 Q256.2719,57.1563 256.0688,56.9531 Q255.8656,56.7656 255.7563,56.25 Q255.7094,55.8906 255.5219,55.7031 Q255.1938,55.3281 254.5844,55.1094 Q253.975,54.8906 253.35,54.8906 Q252.5844,54.8906 251.9438,55.2188 Q251.3188,55.5469 250.8188,56.2969 Q250.3344,57.0469 250.3344,58.0781 L250.3344,59.1719 Q250.3344,60.4063 251.225,61.2344 Q252.1156,62.0469 253.7094,62.0469 Q254.6469,62.0469 255.3031,61.7969 Q255.6938,61.6406 256.1156,61.2031 Q256.3813,60.9375 256.5219,60.8594 Q256.6781,60.7813 256.8813,60.7813 Q257.2094,60.7813 257.4594,61.0469 Q257.725,61.2969 257.725,61.6406 Q257.725,61.9844 257.3813,62.3906 Q256.8813,62.9688 256.0844,63.2969 Q255.0063,63.75 253.7094,63.75 Q252.1938,63.75 250.9906,63.125 Q250.0063,62.625 249.3188,61.5625 Q248.6313,60.4844 248.6313,59.2031 L248.6313,58.0469 Q248.6313,56.7188 249.2406,55.5781 Q249.8656,54.4219 250.9594,53.8125 Q252.0531,53.1875 253.2875,53.1875 Q254.0219,53.1875 254.6625,53.3594 Q255.3188,53.5156 255.8656,53.875 Z "/><text fill="#000000" font-family="sans-serif" font-size="12" lengthAdjust="spacingAndGlyphs" textLength="57" x="269.9" y="62.9102">TicTacToe</text><line style="stroke: #A80036; stroke-width: 1.5;" x1="226.5" x2="341.5" y1="74" y2="74"/><rect fill="none" height="6" style="stroke: #C82930; stroke-width: 1.0;" width="6" x="233.5" y="82"/><text fill="#000000" font-family="sans-serif" font-size="11" lengthAdjust="spacingAndGlyphs" textLength="54" x="245.5" y="89.4189">logic: Logic</text><rect fill="none" height="6" style="stroke: #C82930; stroke-width: 1.0;" width="6" x="233.5" y="95.8359"/><text fill="#000000" font-family="sans-serif" font-size="11" lengthAdjust="spacingAndGlyphs" textLength="56" x="245.5" y="103.2549">view: View</text><line style="stroke: #A80036; stroke-width: 1.5;" x1="226.5" x2="341.5" y1="109.6719" y2="109.6719"/><polygon fill="#FFFF44" points="236.5,115.6719,240.5,119.6719,236.5,123.6719,232.5,119.6719" style="stroke: #B38D22; stroke-width: 1.0;"/><text fill="#000000" font-family="sans-serif" font-size="11" lengthAdjust="spacingAndGlyphs" textLength="58" x="245.5" y="125.0908">TicTacToe()</text><polygon fill="#FFFF44" points="236.5,129.5078,240.5,133.5078,236.5,137.5078,232.5,133.5078" style="stroke: #B38D22; stroke-width: 1.0;"/><text fill="#000000" font-family="sans-serif" font-size="11" font-style="italic" lengthAdjust="spacingAndGlyphs" textLength="91" x="245.5" y="138.9268">createView(): View</text><polygon fill="#FFFF44" points="236.5,143.3438,240.5,147.3438,236.5,151.3438,232.5,147.3438" style="stroke: #B38D22; stroke-width: 1.0;"/><text fill="#000000" font-family="sans-serif" font-size="11" lengthAdjust="spacingAndGlyphs" textLength="54" x="245.5" y="152.7627">play(): void</text><!--MD5=[288019f38859c158505575d95d6bbed7]
class tictactoe.GraphicsTicTacToe--><rect fill="#FEFECE" filter="url(#fgio5yt5650nr)" height="75.6719" id="tictactoe.GraphicsTicTacToe" style="stroke: #A80036; stroke-width: 1.5;" width="139" x="203.5" y="219"/><ellipse cx="218.5" cy="235" fill="#ADD1B2" rx="11" ry="11" style="stroke: #A80036; stroke-width: 1.0;"/><path d="M221.2656,230.875 Q221.4219,230.6563 221.6094,230.5469 Q221.7969,230.4375 222.0156,230.4375 Q222.3906,230.4375 222.625,230.7031 Q222.8594,230.9531 222.8594,231.5625 L222.8594,233.0156 Q222.8594,233.625 222.625,233.8906 Q222.3906,234.1563 222.0156,234.1563 Q221.6719,234.1563 221.4688,233.9531 Q221.2656,233.7656 221.1563,233.25 Q221.1094,232.8906 220.9219,232.7031 Q220.5938,232.3281 219.9844,232.1094 Q219.375,231.8906 218.75,231.8906 Q217.9844,231.8906 217.3438,232.2188 Q216.7188,232.5469 216.2188,233.2969 Q215.7344,234.0469 215.7344,235.0781 L215.7344,236.1719 Q215.7344,237.4063 216.625,238.2344 Q217.5156,239.0469 219.1094,239.0469 Q220.0469,239.0469 220.7031,238.7969 Q221.0938,238.6406 221.5156,238.2031 Q221.7813,237.9375 221.9219,237.8594 Q222.0781,237.7813 222.2813,237.7813 Q222.6094,237.7813 222.8594,238.0469 Q223.125,238.2969 223.125,238.6406 Q223.125,238.9844 222.7813,239.3906 Q222.2813,239.9688 221.4844,240.2969 Q220.4063,240.75 219.1094,240.75 Q217.5938,240.75 216.3906,240.125 Q215.4063,239.625 214.7188,238.5625 Q214.0313,237.4844 214.0313,236.2031 L214.0313,235.0469 Q214.0313,233.7188 214.6406,232.5781 Q215.2656,231.4219 216.3594,230.8125 Q217.4531,230.1875 218.6875,230.1875 Q219.4219,230.1875 220.0625,230.3594 Q220.7188,230.5156 221.2656,230.875 Z "/><text fill="#000000" font-family="sans-serif" font-size="12" lengthAdjust="spacingAndGlyphs" textLength="107" x="232.5" y="239.9102">GraphicsTicTacToe</text><line style="stroke: #A80036; stroke-width: 1.5;" x1="204.5" x2="341.5" y1="251" y2="251"/><line style="stroke: #A80036; stroke-width: 1.5;" x1="204.5" x2="341.5" y1="259" y2="259"/><ellipse cx="214.5" cy="270" fill="#84BE84" rx="3" ry="3" style="stroke: #038048; stroke-width: 1.0;"/><text fill="#000000" font-family="sans-serif" font-size="11" lengthAdjust="spacingAndGlyphs" text-decoration="underline" textLength="90" x="223.5" y="274.4189">main(String[]): void</text><polygon fill="#FFFF44" points="214.5,278.8359,218.5,282.8359,214.5,286.8359,210.5,282.8359" style="stroke: #B38D22; stroke-width: 1.0;"/><text fill="#000000" font-family="sans-serif" font-size="11" lengthAdjust="spacingAndGlyphs" textLength="97" x="223.5" y="288.2549">createView(): View</text><!--MD5=[015754420c4cdd9bacda884b3fa8c6ca]
class tictactoe.views.View--><rect fill="#FEFECE" filter="url(#fgio5yt5650nr)" height="48" id="tictactoe.views.View" style="stroke: #A80036; stroke-width: 1.5;" width="58" x="399" y="233"/><ellipse cx="414" cy="249" fill="#ADD1B2" rx="11" ry="11" style="stroke: #A80036; stroke-width: 1.0;"/><path d="M416.7656,244.875 Q416.9219,244.6563 417.1094,244.5469 Q417.2969,244.4375 417.5156,244.4375 Q417.8906,244.4375 418.125,244.7031 Q418.3594,244.9531 418.3594,245.5625 L418.3594,247.0156 Q418.3594,247.625 418.125,247.8906 Q417.8906,248.1563 417.5156,248.1563 Q417.1719,248.1563 416.9688,247.9531 Q416.7656,247.7656 416.6563,247.25 Q416.6094,246.8906 416.4219,246.7031 Q416.0938,246.3281 415.4844,246.1094 Q414.875,245.8906 414.25,245.8906 Q413.4844,245.8906 412.8438,246.2188 Q412.2188,246.5469 411.7188,247.2969 Q411.2344,248.0469 411.2344,249.0781 L411.2344,250.1719 Q411.2344,251.4063 412.125,252.2344 Q413.0156,253.0469 414.6094,253.0469 Q415.5469,253.0469 416.2031,252.7969 Q416.5938,252.6406 417.0156,252.2031 Q417.2813,251.9375 417.4219,251.8594 Q417.5781,251.7813 417.7813,251.7813 Q418.1094,251.7813 418.3594,252.0469 Q418.625,252.2969 418.625,252.6406 Q418.625,252.9844 418.2813,253.3906 Q417.7813,253.9688 416.9844,254.2969 Q415.9063,254.75 414.6094,254.75 Q413.0938,254.75 411.8906,254.125 Q410.9063,253.625 410.2188,252.5625 Q409.5313,251.4844 409.5313,250.2031 L409.5313,249.0469 Q409.5313,247.7188 410.1406,246.5781 Q410.7656,245.4219 411.8594,244.8125 Q412.9531,244.1875 414.1875,244.1875 Q414.9219,244.1875 415.5625,244.3594 Q416.2188,244.5156 416.7656,244.875 Z "/><text fill="#000000" font-family="sans-serif" font-size="12" lengthAdjust="spacingAndGlyphs" textLength="26" x="428" y="253.9102">View</text><line style="stroke: #A80036; stroke-width: 1.5;" x1="400" x2="456" y1="265" y2="265"/><line style="stroke: #A80036; stroke-width: 1.5;" x1="400" x2="456" y1="273" y2="273"/><!--MD5=[3b8962fd5847b9038b2e29740dae8054]
class tictactoe.controllers.Logic--><rect fill="#FEFECE" filter="url(#fgio5yt5650nr)" height="48" id="tictactoe.controllers.Logic" style="stroke: #A80036; stroke-width: 1.5;" width="62" x="666" y="233"/><ellipse cx="681" cy="249" fill="#ADD1B2" rx="11" ry="11" style="stroke: #A80036; stroke-width: 1.0;"/><path d="M683.7656,244.875 Q683.9219,244.6563 684.1094,244.5469 Q684.2969,244.4375 684.5156,244.4375 Q684.8906,244.4375 685.125,244.7031 Q685.3594,244.9531 685.3594,245.5625 L685.3594,247.0156 Q685.3594,247.625 685.125,247.8906 Q684.8906,248.1563 684.5156,248.1563 Q684.1719,248.1563 683.9688,247.9531 Q683.7656,247.7656 683.6563,247.25 Q683.6094,246.8906 683.4219,246.7031 Q683.0938,246.3281 682.4844,246.1094 Q681.875,245.8906 681.25,245.8906 Q680.4844,245.8906 679.8438,246.2188 Q679.2188,246.5469 678.7188,247.2969 Q678.2344,248.0469 678.2344,249.0781 L678.2344,250.1719 Q678.2344,251.4063 679.125,252.2344 Q680.0156,253.0469 681.6094,253.0469 Q682.5469,253.0469 683.2031,252.7969 Q683.5938,252.6406 684.0156,252.2031 Q684.2813,251.9375 684.4219,251.8594 Q684.5781,251.7813 684.7813,251.7813 Q685.1094,251.7813 685.3594,252.0469 Q685.625,252.2969 685.625,252.6406 Q685.625,252.9844 685.2813,253.3906 Q684.7813,253.9688 683.9844,254.2969 Q682.9063,254.75 681.6094,254.75 Q680.0938,254.75 678.8906,254.125 Q677.9063,253.625 677.2188,252.5625 Q676.5313,251.4844 676.5313,250.2031 L676.5313,249.0469 Q676.5313,247.7188 677.1406,246.5781 Q677.7656,245.4219 678.8594,244.8125 Q679.9531,244.1875 681.1875,244.1875 Q681.9219,244.1875 682.5625,244.3594 Q683.2188,244.5156 683.7656,244.875 Z "/><text fill="#000000" font-family="sans-serif" font-size="12" lengthAdjust="spacingAndGlyphs" textLength="30" x="695" y="253.9102">Logic</text><line style="stroke: #A80036; stroke-width: 1.5;" x1="667" x2="727" y1="265" y2="265"/><line style="stroke: #A80036; stroke-width: 1.5;" x1="667" x2="727" y1="273" y2="273"/><!--MD5=[957eef6538bab7382edbc29d98579a60]
class tictactoe.controllers.Controller--><rect fill="#FEFECE" filter="url(#fgio5yt5650nr)" height="48" id="tictactoe.controllers.Controller" style="stroke: #A80036; stroke-width: 1.5;" width="86" x="545" y="233"/><ellipse cx="560" cy="249" fill="#ADD1B2" rx="11" ry="11" style="stroke: #A80036; stroke-width: 1.0;"/><path d="M562.7656,244.875 Q562.9219,244.6563 563.1094,244.5469 Q563.2969,244.4375 563.5156,244.4375 Q563.8906,244.4375 564.125,244.7031 Q564.3594,244.9531 564.3594,245.5625 L564.3594,247.0156 Q564.3594,247.625 564.125,247.8906 Q563.8906,248.1563 563.5156,248.1563 Q563.1719,248.1563 562.9688,247.9531 Q562.7656,247.7656 562.6563,247.25 Q562.6094,246.8906 562.4219,246.7031 Q562.0938,246.3281 561.4844,246.1094 Q560.875,245.8906 560.25,245.8906 Q559.4844,245.8906 558.8438,246.2188 Q558.2188,246.5469 557.7188,247.2969 Q557.2344,248.0469 557.2344,249.0781 L557.2344,250.1719 Q557.2344,251.4063 558.125,252.2344 Q559.0156,253.0469 560.6094,253.0469 Q561.5469,253.0469 562.2031,252.7969 Q562.5938,252.6406 563.0156,252.2031 Q563.2813,251.9375 563.4219,251.8594 Q563.5781,251.7813 563.7813,251.7813 Q564.1094,251.7813 564.3594,252.0469 Q564.625,252.2969 564.625,252.6406 Q564.625,252.9844 564.2813,253.3906 Q563.7813,253.9688 562.9844,254.2969 Q561.9063,254.75 560.6094,254.75 Q559.0938,254.75 557.8906,254.125 Q556.9063,253.625 556.2188,252.5625 Q555.5313,251.4844 555.5313,250.2031 L555.5313,249.0469 Q555.5313,247.7188 556.1406,246.5781 Q556.7656,245.4219 557.8594,244.8125 Q558.9531,244.1875 560.1875,244.1875 Q560.9219,244.1875 561.5625,244.3594 Q562.2188,244.5156 562.7656,244.875 Z "/><text fill="#000000" font-family="sans-serif" font-size="12" lengthAdjust="spacingAndGlyphs" textLength="54" x="574" y="253.9102">Controller</text><line style="stroke: #A80036; stroke-width: 1.5;" x1="546" x2="630" y1="265" y2="265"/><line style="stroke: #A80036; stroke-width: 1.5;" x1="546" x2="630" y1="273" y2="273"/><!--MD5=[4e0ca678de8db9099731dcdc2b6658ba]
reverse link tictactoe.TicTacToe to tictactoe.ConsoleTicTacToe--><path d="M209.789,163.813 C187.538,182.496 163.844,202.392 144.184,218.9 " fill="none" id="tictactoe.TicTacToe&lt;-tictactoe.ConsoleTicTacToe" style="stroke: #A80036; stroke-width: 1.0;"/><polygon fill="none" points="205.457,158.31,225.275,150.81,214.46,169.031,205.457,158.31" style="stroke: #A80036; stroke-width: 1.0;"/><!--MD5=[39aff454823c6178e2615bf7f449e13a]
reverse link tictactoe.TicTacToe to tictactoe.GraphicsTicTacToe--><path d="M278.481,179.024 C277.499,192.804 276.519,206.572 275.665,218.575 " fill="none" id="tictactoe.TicTacToe&lt;-tictactoe.GraphicsTicTacToe" style="stroke: #A80036; stroke-width: 1.0;"/><polygon fill="none" points="271.501,178.482,279.904,159.03,285.466,179.477,271.501,178.482" style="stroke: #A80036; stroke-width: 1.0;"/><!--MD5=[2e9845d2d438f1c6c29fdc19d0711783]
link tictactoe.TicTacToe to tictactoe.views.View--><path d="M337.62,159.03 C359.96,182.999 384.83,209.682 402.817,228.9808 " fill="none" id="tictactoe.TicTacToe-&gt;tictactoe.views.View" style="stroke: #A80036; stroke-width: 1.0;"/><polygon fill="#A80036" points="406.32,232.7391,403.1091,223.4284,402.9106,229.0817,397.2573,228.8833,406.32,232.7391" style="stroke: #A80036; stroke-width: 1.0;"/><!--MD5=[e63e3ab671b1ac769a6a0410c90c40ce]
link tictactoe.TicTacToe to tictactoe.controllers.Logic--><path d="M342.74,103.159 C419.337,107.93 554.654,125.527 649,189 C663.506,198.759 675.1,214.466 683.257,228.2191 " fill="none" id="tictactoe.TicTacToe-&gt;tictactoe.controllers.Logic" style="stroke: #A80036; stroke-width: 1.0;"/><polygon fill="#A80036" points="685.89,232.797,684.8693,223.0012,683.3967,228.463,677.9349,226.9904,685.89,232.797" style="stroke: #A80036; stroke-width: 1.0;"/><!--MD5=[cff28241c5a8a88f9a0cfbae37cebc51]
link tictactoe.TicTacToe to tictactoe.controllers.Controller--><path d="M342.587,126.915 C380.266,143.678 430.036,166.602 473,189 C497.581,201.814 524.378,217.332 545.916,230.2054 " fill="none" id="tictactoe.TicTacToe-&gt;tictactoe.controllers.Controller" style="stroke: #A80036; stroke-width: 1.0; stroke-dasharray: 7.0,7.0;"/><polygon fill="#A80036" points="550.43,232.9104,544.7661,224.8531,546.1411,230.3403,540.6539,231.7153,550.43,232.9104" style="stroke: #A80036; stroke-width: 1.0;"/><!--MD5=[6b09e6a5441bb40d052a0932746c4503]
@startuml

class  tictactoe.ConsoleTicTacToe{
+ {static} main(String[]): void
# createView(): View
}
tictactoe.TicTacToe <|-down- tictactoe.ConsoleTicTacToe

class  tictactoe.GraphicsTicTacToe{
+ {static} main(String[]): void
# createView(): View
}
tictactoe.TicTacToe <|-down- tictactoe.GraphicsTicTacToe

class  tictactoe.TicTacToe{
- logic: Logic
- view: View
# TicTacToe()
# {abstract} createView(): View
# play(): void
}
tictactoe.TicTacToe - -> tictactoe.views.View
tictactoe.TicTacToe - -> tictactoe.controllers.Logic
tictactoe.TicTacToe ..> tictactoe.controllers.Controller

@enduml

PlantUML version 1.2020.15(Sun Jun 28 13:39:45 CEST 2020)
(GPL source distribution)
Java Runtime: Java(TM) SE Runtime Environment
JVM: Java HotSpot(TM) 64-Bit Server VM
Default Encoding: windows-1252
Language: es
Country: ES
--></g></svg>