<?xml version="1.0" encoding="UTF-8" standalone="no"?><svg xmlns="http://www.w3.org/2000/svg" xmlns:xlink="http://www.w3.org/1999/xlink" contentScriptType="application/ecmascript" contentStyleType="text/css" height="2190px" preserveAspectRatio="none" style="width:1660px;height:2190px;" version="1.1" viewBox="0 0 1660 2190" width="1660px" zoomAndPan="magnify"><defs><filter height="300%" id="f1x7n2dae2av7m" width="300%" x="-1" y="-1"><feGaussianBlur result="blurOut" stdDeviation="2.0"/><feColorMatrix in="blurOut" result="blurOut2" type="matrix" values="0 0 0 0 0 0 0 0 0 0 0 0 0 0 0 0 0 0 .4 0"/><feOffset dx="4.0" dy="4.0" in="blurOut2" result="blurOut3"/><feBlend in="SourceGraphic" in2="blurOut3" mode="normal"/></filter></defs><g><!--MD5=[51cd642fcc96b47682a93d9084d46dec]
cluster tictactoe.models--><polygon fill="#FFFFFF" filter="url(#f1x7n2dae2av7m)" points="282,6,404,6,411,29.6094,1066,29.6094,1066,2054,282,2054,282,6" style="stroke: #000000; stroke-width: 1.5;"/><line style="stroke: #000000; stroke-width: 1.5;" x1="282" x2="411" y1="29.6094" y2="29.6094"/><text fill="#000000" font-family="sans-serif" font-size="14" font-weight="bold" lengthAdjust="spacingAndGlyphs" textLength="116" x="286" y="22.5332">tictactoe.models</text><!--MD5=[2d083dca3cab6023baf6a9cac5f9557f]
cluster tictactoe.types--><polygon fill="#FFFFFF" filter="url(#f1x7n2dae2av7m)" points="1090,1898.5,1199,1898.5,1206,1922.1094,1638,1922.1094,1638,1998.5,1090,1998.5,1090,1898.5" style="stroke: #000000; stroke-width: 1.5;"/><line style="stroke: #000000; stroke-width: 1.5;" x1="1090" x2="1206" y1="1922.1094" y2="1922.1094"/><text fill="#000000" font-family="sans-serif" font-size="14" font-weight="bold" lengthAdjust="spacingAndGlyphs" textLength="103" x="1094" y="1915.0332">tictactoe.types</text><!--MD5=[c52f45833d539af9e29a9d34b8b7302b]
cluster utils--><polygon fill="#FFFFFF" filter="url(#f1x7n2dae2av7m)" points="16,1659,52,1659,59,1682.6094,258,1682.6094,258,1759,16,1759,16,1659" style="stroke: #000000; stroke-width: 1.5;"/><line style="stroke: #000000; stroke-width: 1.5;" x1="16" x2="59" y1="1682.6094" y2="1682.6094"/><text fill="#000000" font-family="sans-serif" font-size="14" font-weight="bold" lengthAdjust="spacingAndGlyphs" textLength="30" x="20" y="1675.5332">utils</text><!--MD5=[7db3c59d38ae5b37b484eb2df9368145]
cluster java.util--><polygon fill="#FFFFFF" filter="url(#f1x7n2dae2av7m)" points="357,2078,418,2078,425,2101.6094,469,2101.6094,469,2178,357,2178,357,2078" style="stroke: #000000; stroke-width: 1.5;"/><line style="stroke: #000000; stroke-width: 1.5;" x1="357" x2="425" y1="2101.6094" y2="2101.6094"/><text fill="#000000" font-family="sans-serif" font-size="14" font-weight="bold" lengthAdjust="spacingAndGlyphs" textLength="55" x="361" y="2094.5332">java.util</text><!--MD5=[f2254b5fdbf93effa50eb20dc057829b]
class tictactoe.models.Board--><rect fill="#FEFECE" filter="url(#f1x7n2dae2av7m)" height="283.2109" id="tictactoe.models.Board" style="stroke: #A80036; stroke-width: 1.5;" width="298" x="335" y="1030"/><ellipse cx="463.25" cy="1046" fill="#ADD1B2" rx="11" ry="11" style="stroke: #A80036; stroke-width: 1.0;"/><path d="M466.0156,1041.875 Q466.1719,1041.6563 466.3594,1041.5469 Q466.5469,1041.4375 466.7656,1041.4375 Q467.1406,1041.4375 467.375,1041.7031 Q467.6094,1041.9531 467.6094,1042.5625 L467.6094,1044.0156 Q467.6094,1044.625 467.375,1044.8906 Q467.1406,1045.1563 466.7656,1045.1563 Q466.4219,1045.1563 466.2188,1044.9531 Q466.0156,1044.7656 465.9063,1044.25 Q465.8594,1043.8906 465.6719,1043.7031 Q465.3438,1043.3281 464.7344,1043.1094 Q464.125,1042.8906 463.5,1042.8906 Q462.7344,1042.8906 462.0938,1043.2188 Q461.4688,1043.5469 460.9688,1044.2969 Q460.4844,1045.0469 460.4844,1046.0781 L460.4844,1047.1719 Q460.4844,1048.4063 461.375,1049.2344 Q462.2656,1050.0469 463.8594,1050.0469 Q464.7969,1050.0469 465.4531,1049.7969 Q465.8438,1049.6406 466.2656,1049.2031 Q466.5313,1048.9375 466.6719,1048.8594 Q466.8281,1048.7813 467.0313,1048.7813 Q467.3594,1048.7813 467.6094,1049.0469 Q467.875,1049.2969 467.875,1049.6406 Q467.875,1049.9844 467.5313,1050.3906 Q467.0313,1050.9688 466.2344,1051.2969 Q465.1563,1051.75 463.8594,1051.75 Q462.3438,1051.75 461.1406,1051.125 Q460.1563,1050.625 459.4688,1049.5625 Q458.7813,1048.4844 458.7813,1047.2031 L458.7813,1046.0469 Q458.7813,1044.7188 459.3906,1043.5781 Q460.0156,1042.4219 461.1094,1041.8125 Q462.2031,1041.1875 463.4375,1041.1875 Q464.1719,1041.1875 464.8125,1041.3594 Q465.4688,1041.5156 466.0156,1041.875 Z "/><text fill="#000000" font-family="sans-serif" font-size="12" lengthAdjust="spacingAndGlyphs" textLength="33" x="483.75" y="1050.9102">Board</text><line style="stroke: #A80036; stroke-width: 1.5;" x1="336" x2="632" y1="1062" y2="1062"/><ellipse cx="346" cy="1073" fill="none" rx="3" ry="3" style="stroke: #038048; stroke-width: 1.0;"/><text fill="#000000" font-family="sans-serif" font-size="11" lengthAdjust="spacingAndGlyphs" text-decoration="underline" textLength="62" x="355" y="1077.4189">EMPTY: char</text><rect fill="none" height="6" style="stroke: #C82930; stroke-width: 1.0;" width="6" x="343" y="1083.8359"/><text fill="#000000" font-family="sans-serif" font-size="11" lengthAdjust="spacingAndGlyphs" textLength="127" x="355" y="1091.2549">coordinates: Coordinate[][]</text><line style="stroke: #A80036; stroke-width: 1.5;" x1="336" x2="632" y1="1097.6719" y2="1097.6719"/><ellipse cx="346" cy="1108.6719" fill="#84BE84" rx="3" ry="3" style="stroke: #038048; stroke-width: 1.0;"/><text fill="#000000" font-family="sans-serif" font-size="11" lengthAdjust="spacingAndGlyphs" textLength="37" x="355" y="1113.0908">Board()</text><ellipse cx="346" cy="1122.5078" fill="#84BE84" rx="3" ry="3" style="stroke: #038048; stroke-width: 1.0;"/><text fill="#000000" font-family="sans-serif" font-size="11" lengthAdjust="spacingAndGlyphs" textLength="101" x="355" y="1126.9268">Board(Coordinate[][])</text><ellipse cx="346" cy="1136.3438" fill="#84BE84" rx="3" ry="3" style="stroke: #038048; stroke-width: 1.0;"/><text fill="#000000" font-family="sans-serif" font-size="11" lengthAdjust="spacingAndGlyphs" textLength="139" x="355" y="1140.7627">getToken(Coordinate): Token</text><polygon fill="#4177AF" points="346,1146.1797,342,1152.1797,350,1152.1797" style="stroke: #1963A0; stroke-width: 1.0;"/><text fill="#000000" font-family="sans-serif" font-size="11" lengthAdjust="spacingAndGlyphs" textLength="170" x="355" y="1154.5986">move(Coordinate, Coordinate): void</text><polygon fill="#4177AF" points="346,1160.0156,342,1166.0156,350,1166.0156" style="stroke: #1963A0; stroke-width: 1.0;"/><text fill="#000000" font-family="sans-serif" font-size="11" lengthAdjust="spacingAndGlyphs" textLength="136" x="355" y="1168.4346">put(Coordinate, Token): void</text><rect fill="#F24D5C" height="6" style="stroke: #C82930; stroke-width: 1.0;" width="6" x="343" y="1174.8516"/><text fill="#000000" font-family="sans-serif" font-size="11" lengthAdjust="spacingAndGlyphs" textLength="122" x="355" y="1182.2705">remove(Coordinate): void</text><polygon fill="#4177AF" points="346,1187.6875,342,1193.6875,350,1193.6875" style="stroke: #1963A0; stroke-width: 1.0;"/><text fill="#000000" font-family="sans-serif" font-size="11" lengthAdjust="spacingAndGlyphs" textLength="139" x="355" y="1196.1064">isTicTacToe(Token): boolean</text><rect fill="#F24D5C" height="6" style="stroke: #C82930; stroke-width: 1.0;" width="6" x="343" y="1202.5234"/><text fill="#000000" font-family="sans-serif" font-size="11" lengthAdjust="spacingAndGlyphs" textLength="189" x="355" y="1209.9424">numberOfCoordinates(Coordinate[]): int</text><polygon fill="#4177AF" points="346,1215.3594,342,1221.3594,350,1221.3594" style="stroke: #1963A0; stroke-width: 1.0;"/><text fill="#000000" font-family="sans-serif" font-size="11" lengthAdjust="spacingAndGlyphs" textLength="110" x="355" y="1223.7783">isCompleted(): boolean</text><ellipse cx="346" cy="1233.1953" fill="#84BE84" rx="3" ry="3" style="stroke: #038048; stroke-width: 1.0;"/><text fill="#000000" font-family="sans-serif" font-size="11" lengthAdjust="spacingAndGlyphs" textLength="141" x="355" y="1237.6143">isEmpty(Coordinate): boolean</text><polygon fill="#4177AF" points="346,1243.0313,342,1249.0313,350,1249.0313" style="stroke: #1963A0; stroke-width: 1.0;"/><text fill="#000000" font-family="sans-serif" font-size="11" lengthAdjust="spacingAndGlyphs" textLength="193" x="355" y="1251.4502">isOccupied(Coordinate, Token): boolean</text><rect fill="#F24D5C" height="6" style="stroke: #C82930; stroke-width: 1.0;" width="6" x="343" y="1257.8672"/><text fill="#000000" font-family="sans-serif" font-size="11" lengthAdjust="spacingAndGlyphs" textLength="246" x="355" y="1265.2861">checkNumberOfCoordinates(Coordinate[]): boolean</text><rect fill="#F24D5C" height="6" style="stroke: #C82930; stroke-width: 1.0;" width="6" x="343" y="1271.7031"/><text fill="#000000" font-family="sans-serif" font-size="11" lengthAdjust="spacingAndGlyphs" textLength="272" x="355" y="1279.1221">checkDirectionOfFirstCoordinates(Coordinate[]): boolean</text><rect fill="#F24D5C" height="6" style="stroke: #C82930; stroke-width: 1.0;" width="6" x="343" y="1285.5391"/><text fill="#000000" font-family="sans-serif" font-size="11" lengthAdjust="spacingAndGlyphs" textLength="263" x="355" y="1292.958">checkDirectionOfAllCoordinates(Coordinate[]): boolean</text><polygon fill="#4177AF" points="346,1298.375,342,1304.375,350,1304.375" style="stroke: #1963A0; stroke-width: 1.0;"/><text fill="#000000" font-family="sans-serif" font-size="11" lengthAdjust="spacingAndGlyphs" textLength="67" x="355" y="1306.7939">copy(): Board</text><!--MD5=[55d70ecb9e3ba4786ec1f15d0b7dce13]
class tictactoe.models.Coordinate--><rect fill="#FEFECE" filter="url(#f1x7n2dae2av7m)" height="158.6875" id="tictactoe.models.Coordinate" style="stroke: #A80036; stroke-width: 1.5;" width="191" x="317.5" y="1879"/><ellipse cx="378.25" cy="1895" fill="#ADD1B2" rx="11" ry="11" style="stroke: #A80036; stroke-width: 1.0;"/><path d="M381.0156,1890.875 Q381.1719,1890.6563 381.3594,1890.5469 Q381.5469,1890.4375 381.7656,1890.4375 Q382.1406,1890.4375 382.375,1890.7031 Q382.6094,1890.9531 382.6094,1891.5625 L382.6094,1893.0156 Q382.6094,1893.625 382.375,1893.8906 Q382.1406,1894.1563 381.7656,1894.1563 Q381.4219,1894.1563 381.2188,1893.9531 Q381.0156,1893.7656 380.9063,1893.25 Q380.8594,1892.8906 380.6719,1892.7031 Q380.3438,1892.3281 379.7344,1892.1094 Q379.125,1891.8906 378.5,1891.8906 Q377.7344,1891.8906 377.0938,1892.2188 Q376.4688,1892.5469 375.9688,1893.2969 Q375.4844,1894.0469 375.4844,1895.0781 L375.4844,1896.1719 Q375.4844,1897.4063 376.375,1898.2344 Q377.2656,1899.0469 378.8594,1899.0469 Q379.7969,1899.0469 380.4531,1898.7969 Q380.8438,1898.6406 381.2656,1898.2031 Q381.5313,1897.9375 381.6719,1897.8594 Q381.8281,1897.7813 382.0313,1897.7813 Q382.3594,1897.7813 382.6094,1898.0469 Q382.875,1898.2969 382.875,1898.6406 Q382.875,1898.9844 382.5313,1899.3906 Q382.0313,1899.9688 381.2344,1900.2969 Q380.1563,1900.75 378.8594,1900.75 Q377.3438,1900.75 376.1406,1900.125 Q375.1563,1899.625 374.4688,1898.5625 Q373.7813,1897.4844 373.7813,1896.2031 L373.7813,1895.0469 Q373.7813,1893.7188 374.3906,1892.5781 Q375.0156,1891.4219 376.1094,1890.8125 Q377.2031,1890.1875 378.4375,1890.1875 Q379.1719,1890.1875 379.8125,1890.3594 Q380.4688,1890.5156 381.0156,1890.875 Z "/><text fill="#000000" font-family="sans-serif" font-size="12" lengthAdjust="spacingAndGlyphs" textLength="61" x="398.75" y="1899.9102">Coordinate</text><line style="stroke: #A80036; stroke-width: 1.5;" x1="318.5" x2="507.5" y1="1911" y2="1911"/><ellipse cx="328.5" cy="1922" fill="none" rx="3" ry="3" style="stroke: #038048; stroke-width: 1.0;"/><text fill="#000000" font-family="sans-serif" font-size="11" lengthAdjust="spacingAndGlyphs" text-decoration="underline" textLength="82" x="337.5" y="1926.4189">DIMENSION: char</text><line style="stroke: #A80036; stroke-width: 1.5;" x1="318.5" x2="507.5" y1="1932.8359" y2="1932.8359"/><ellipse cx="328.5" cy="1943.8359" fill="#84BE84" rx="3" ry="3" style="stroke: #038048; stroke-width: 1.0;"/><text fill="#000000" font-family="sans-serif" font-size="11" lengthAdjust="spacingAndGlyphs" textLength="60" x="337.5" y="1948.2549">Coordinate()</text><ellipse cx="328.5" cy="1957.6719" fill="#84BE84" rx="3" ry="3" style="stroke: #038048; stroke-width: 1.0;"/><text fill="#000000" font-family="sans-serif" font-size="11" lengthAdjust="spacingAndGlyphs" textLength="88" x="337.5" y="1962.0908">Coordinate(int, int)</text><polygon fill="#4177AF" points="328.5,1967.5078,324.5,1973.5078,332.5,1973.5078" style="stroke: #1963A0; stroke-width: 1.0;"/><text fill="#000000" font-family="sans-serif" font-size="11" lengthAdjust="spacingAndGlyphs" textLength="154" x="337.5" y="1975.9268">inDirection(Coordinate): boolean</text><polygon fill="#4177AF" points="328.5,1981.3438,324.5,1987.3438,332.5,1987.3438" style="stroke: #1963A0; stroke-width: 1.0;"/><text fill="#000000" font-family="sans-serif" font-size="11" lengthAdjust="spacingAndGlyphs" textLength="165" x="337.5" y="1989.7627">getDirection(Coordinate): Direction</text><rect fill="#F24D5C" height="6" style="stroke: #C82930; stroke-width: 1.0;" width="6" x="325.5" y="1996.1797"/><text fill="#000000" font-family="sans-serif" font-size="11" lengthAdjust="spacingAndGlyphs" textLength="137" x="337.5" y="2003.5986">inInverseDiagonal(): boolean</text><ellipse cx="328.5" cy="2013.0156" fill="#84BE84" rx="3" ry="3" style="stroke: #038048; stroke-width: 1.0;"/><text fill="#000000" font-family="sans-serif" font-size="11" lengthAdjust="spacingAndGlyphs" textLength="84" x="337.5" y="2017.4346">isValid(): boolean</text><ellipse cx="328.5" cy="2026.8516" fill="#84BE84" rx="3" ry="3" style="stroke: #038048; stroke-width: 1.0;"/><text fill="#000000" font-family="sans-serif" font-size="11" lengthAdjust="spacingAndGlyphs" textLength="70" x="337.5" y="2031.2705">random(): void</text><!--MD5=[b42b9147ed7462532394f7fe6f96703d]
class tictactoe.models.Turn--><rect fill="#FEFECE" filter="url(#f1x7n2dae2av7m)" height="186.3594" id="tictactoe.models.Turn" style="stroke: #A80036; stroke-width: 1.5;" width="142" x="589" y="1373"/><ellipse cx="643.25" cy="1389" fill="#ADD1B2" rx="11" ry="11" style="stroke: #A80036; stroke-width: 1.0;"/><path d="M646.0156,1384.875 Q646.1719,1384.6563 646.3594,1384.5469 Q646.5469,1384.4375 646.7656,1384.4375 Q647.1406,1384.4375 647.375,1384.7031 Q647.6094,1384.9531 647.6094,1385.5625 L647.6094,1387.0156 Q647.6094,1387.625 647.375,1387.8906 Q647.1406,1388.1563 646.7656,1388.1563 Q646.4219,1388.1563 646.2188,1387.9531 Q646.0156,1387.7656 645.9063,1387.25 Q645.8594,1386.8906 645.6719,1386.7031 Q645.3438,1386.3281 644.7344,1386.1094 Q644.125,1385.8906 643.5,1385.8906 Q642.7344,1385.8906 642.0938,1386.2188 Q641.4688,1386.5469 640.9688,1387.2969 Q640.4844,1388.0469 640.4844,1389.0781 L640.4844,1390.1719 Q640.4844,1391.4063 641.375,1392.2344 Q642.2656,1393.0469 643.8594,1393.0469 Q644.7969,1393.0469 645.4531,1392.7969 Q645.8438,1392.6406 646.2656,1392.2031 Q646.5313,1391.9375 646.6719,1391.8594 Q646.8281,1391.7813 647.0313,1391.7813 Q647.3594,1391.7813 647.6094,1392.0469 Q647.875,1392.2969 647.875,1392.6406 Q647.875,1392.9844 647.5313,1393.3906 Q647.0313,1393.9688 646.2344,1394.2969 Q645.1563,1394.75 643.8594,1394.75 Q642.3438,1394.75 641.1406,1394.125 Q640.1563,1393.625 639.4688,1392.5625 Q638.7813,1391.4844 638.7813,1390.2031 L638.7813,1389.0469 Q638.7813,1387.7188 639.3906,1386.5781 Q640.0156,1385.4219 641.1094,1384.8125 Q642.2031,1384.1875 643.4375,1384.1875 Q644.1719,1384.1875 644.8125,1384.3594 Q645.4688,1384.5156 646.0156,1384.875 Z "/><text fill="#000000" font-family="sans-serif" font-size="12" lengthAdjust="spacingAndGlyphs" textLength="25" x="663.75" y="1393.9102">Turn</text><line style="stroke: #A80036; stroke-width: 1.5;" x1="590" x2="730" y1="1405" y2="1405"/><ellipse cx="600" cy="1416" fill="none" rx="3" ry="3" style="stroke: #038048; stroke-width: 1.0;"/><text fill="#000000" font-family="sans-serif" font-size="11" lengthAdjust="spacingAndGlyphs" text-decoration="underline" textLength="65" x="609" y="1420.4189">PLAYERS: int</text><rect fill="none" height="6" style="stroke: #C82930; stroke-width: 1.0;" width="6" x="597" y="1426.8359"/><text fill="#000000" font-family="sans-serif" font-size="11" lengthAdjust="spacingAndGlyphs" textLength="43" x="609" y="1434.2549">value: int</text><rect fill="none" height="6" style="stroke: #C82930; stroke-width: 1.0;" width="6" x="597" y="1440.6719"/><text fill="#000000" font-family="sans-serif" font-size="11" lengthAdjust="spacingAndGlyphs" textLength="78" x="609" y="1448.0908">players: Player[]</text><line style="stroke: #A80036; stroke-width: 1.5;" x1="590" x2="730" y1="1454.5078" y2="1454.5078"/><ellipse cx="600" cy="1465.5078" fill="#84BE84" rx="3" ry="3" style="stroke: #038048; stroke-width: 1.0;"/><text fill="#000000" font-family="sans-serif" font-size="11" lengthAdjust="spacingAndGlyphs" textLength="66" x="609" y="1469.9268">Turn(Player[])</text><ellipse cx="600" cy="1479.3438" fill="#84BE84" rx="3" ry="3" style="stroke: #038048; stroke-width: 1.0;"/><text fill="#000000" font-family="sans-serif" font-size="11" lengthAdjust="spacingAndGlyphs" textLength="83" x="609" y="1483.7627">Turn(Player[], int)</text><polygon fill="#4177AF" points="600,1489.1797,596,1495.1797,604,1495.1797" style="stroke: #1963A0; stroke-width: 1.0;"/><text fill="#000000" font-family="sans-serif" font-size="11" lengthAdjust="spacingAndGlyphs" textLength="70" x="609" y="1497.5986">change(): void</text><polygon fill="#4177AF" points="600,1503.0156,596,1509.0156,604,1509.0156" style="stroke: #1963A0; stroke-width: 1.0;"/><text fill="#000000" font-family="sans-serif" font-size="11" lengthAdjust="spacingAndGlyphs" textLength="89" x="609" y="1511.4346">getPlayer(): Player</text><polygon fill="#4177AF" points="600,1516.8516,596,1522.8516,604,1522.8516" style="stroke: #1963A0; stroke-width: 1.0;"/><text fill="#000000" font-family="sans-serif" font-size="11" lengthAdjust="spacingAndGlyphs" textLength="95" x="609" y="1525.2705">getOtherValue(): int</text><polygon fill="#4177AF" points="600,1530.6875,596,1536.6875,604,1536.6875" style="stroke: #1963A0; stroke-width: 1.0;"/><text fill="#000000" font-family="sans-serif" font-size="11" lengthAdjust="spacingAndGlyphs" textLength="116" x="609" y="1539.1064">getOtherPlayer(): Player</text><polygon fill="#4177AF" points="600,1544.5234,596,1550.5234,604,1550.5234" style="stroke: #1963A0; stroke-width: 1.0;"/><text fill="#000000" font-family="sans-serif" font-size="11" lengthAdjust="spacingAndGlyphs" textLength="96" x="609" y="1552.9424">copy(Player[]): Turn</text><!--MD5=[8d3188f3c370ea7d5d91d12bca83b67a]
class tictactoe.models.Game--><rect fill="#FEFECE" filter="url(#f1x7n2dae2av7m)" height="310.8828" id="tictactoe.models.Game" style="stroke: #A80036; stroke-width: 1.5;" width="328" x="298" y="454"/><ellipse cx="440.75" cy="470" fill="#ADD1B2" rx="11" ry="11" style="stroke: #A80036; stroke-width: 1.0;"/><path d="M443.5156,465.875 Q443.6719,465.6563 443.8594,465.5469 Q444.0469,465.4375 444.2656,465.4375 Q444.6406,465.4375 444.875,465.7031 Q445.1094,465.9531 445.1094,466.5625 L445.1094,468.0156 Q445.1094,468.625 444.875,468.8906 Q444.6406,469.1563 444.2656,469.1563 Q443.9219,469.1563 443.7188,468.9531 Q443.5156,468.7656 443.4063,468.25 Q443.3594,467.8906 443.1719,467.7031 Q442.8438,467.3281 442.2344,467.1094 Q441.625,466.8906 441,466.8906 Q440.2344,466.8906 439.5938,467.2188 Q438.9688,467.5469 438.4688,468.2969 Q437.9844,469.0469 437.9844,470.0781 L437.9844,471.1719 Q437.9844,472.4063 438.875,473.2344 Q439.7656,474.0469 441.3594,474.0469 Q442.2969,474.0469 442.9531,473.7969 Q443.3438,473.6406 443.7656,473.2031 Q444.0313,472.9375 444.1719,472.8594 Q444.3281,472.7813 444.5313,472.7813 Q444.8594,472.7813 445.1094,473.0469 Q445.375,473.2969 445.375,473.6406 Q445.375,473.9844 445.0313,474.3906 Q444.5313,474.9688 443.7344,475.2969 Q442.6563,475.75 441.3594,475.75 Q439.8438,475.75 438.6406,475.125 Q437.6563,474.625 436.9688,473.5625 Q436.2813,472.4844 436.2813,471.2031 L436.2813,470.0469 Q436.2813,468.7188 436.8906,467.5781 Q437.5156,466.4219 438.6094,465.8125 Q439.7031,465.1875 440.9375,465.1875 Q441.6719,465.1875 442.3125,465.3594 Q442.9688,465.5156 443.5156,465.875 Z "/><text fill="#000000" font-family="sans-serif" font-size="12" lengthAdjust="spacingAndGlyphs" textLength="34" x="461.25" y="474.9102">Game</text><line style="stroke: #A80036; stroke-width: 1.5;" x1="299" x2="625" y1="486" y2="486"/><rect fill="none" height="6" style="stroke: #C82930; stroke-width: 1.0;" width="6" x="306" y="494"/><text fill="#000000" font-family="sans-serif" font-size="11" lengthAdjust="spacingAndGlyphs" textLength="63" x="318" y="501.4189">board: Board</text><rect fill="none" height="6" style="stroke: #C82930; stroke-width: 1.0;" width="6" x="306" y="507.8359"/><text fill="#000000" font-family="sans-serif" font-size="11" lengthAdjust="spacingAndGlyphs" textLength="84" x="318" y="515.2549">players: Player[][]</text><rect fill="none" height="6" style="stroke: #C82930; stroke-width: 1.0;" width="6" x="306" y="521.6719"/><text fill="#000000" font-family="sans-serif" font-size="11" lengthAdjust="spacingAndGlyphs" textLength="47" x="318" y="529.0908">turn: Turn</text><line style="stroke: #A80036; stroke-width: 1.5;" x1="299" x2="625" y1="535.5078" y2="535.5078"/><ellipse cx="309" cy="546.5078" fill="#84BE84" rx="3" ry="3" style="stroke: #038048; stroke-width: 1.0;"/><text fill="#000000" font-family="sans-serif" font-size="11" lengthAdjust="spacingAndGlyphs" textLength="36" x="318" y="550.9268">Game()</text><ellipse cx="309" cy="560.3438" fill="#84BE84" rx="3" ry="3" style="stroke: #038048; stroke-width: 1.0;"/><text fill="#000000" font-family="sans-serif" font-size="11" lengthAdjust="spacingAndGlyphs" textLength="112" x="318" y="564.7627">createPlayers(int): void</text><polygon fill="#4177AF" points="309,570.1797,305,576.1797,313,576.1797" style="stroke: #1963A0; stroke-width: 1.0;"/><text fill="#000000" font-family="sans-serif" font-size="11" lengthAdjust="spacingAndGlyphs" textLength="131" x="318" y="578.5986">createMemento(): Memento</text><polygon fill="#4177AF" points="309,584.0156,305,590.0156,313,590.0156" style="stroke: #1963A0; stroke-width: 1.0;"/><text fill="#000000" font-family="sans-serif" font-size="11" lengthAdjust="spacingAndGlyphs" textLength="92" x="318" y="592.4346">set(Memento): void</text><rect fill="#F24D5C" height="6" style="stroke: #C82930; stroke-width: 1.0;" width="6" x="306" y="598.8516"/><text fill="#000000" font-family="sans-serif" font-size="11" lengthAdjust="spacingAndGlyphs" textLength="225" x="318" y="606.2705">createCopyOfPlayers(Player[], Board): Player[]</text><ellipse cx="309" cy="615.6875" fill="#84BE84" rx="3" ry="3" style="stroke: #038048; stroke-width: 1.0;"/><text fill="#000000" font-family="sans-serif" font-size="11" lengthAdjust="spacingAndGlyphs" textLength="133" x="318" y="620.1064">isBoardComplete(): boolean</text><ellipse cx="309" cy="629.5234" fill="#84BE84" rx="3" ry="3" style="stroke: #038048; stroke-width: 1.0;"/><text fill="#000000" font-family="sans-serif" font-size="11" lengthAdjust="spacingAndGlyphs" textLength="206" x="318" y="633.9424">putTokenPlayerFromTurn(Coordinate): void</text><ellipse cx="309" cy="643.3594" fill="#84BE84" rx="3" ry="3" style="stroke: #038048; stroke-width: 1.0;"/><text fill="#000000" font-family="sans-serif" font-size="11" lengthAdjust="spacingAndGlyphs" textLength="223" x="318" y="647.7783">moveTokenPlayerFromTurn(Coordinate[]): void</text><ellipse cx="309" cy="657.1953" fill="#84BE84" rx="3" ry="3" style="stroke: #038048; stroke-width: 1.0;"/><text fill="#000000" font-family="sans-serif" font-size="11" lengthAdjust="spacingAndGlyphs" textLength="224" x="318" y="661.6143">getTypeOfTokenPlayerFromTurn(): PlayerType</text><ellipse cx="309" cy="671.0313" fill="#84BE84" rx="3" ry="3" style="stroke: #038048; stroke-width: 1.0;"/><text fill="#000000" font-family="sans-serif" font-size="11" lengthAdjust="spacingAndGlyphs" textLength="202" x="318" y="675.4502">getErrorsPutCoordinate(Coordinate): Error</text><ellipse cx="309" cy="684.8672" fill="#84BE84" rx="3" ry="3" style="stroke: #038048; stroke-width: 1.0;"/><text fill="#000000" font-family="sans-serif" font-size="11" lengthAdjust="spacingAndGlyphs" textLength="241" x="318" y="689.2861">getErrorsMoveOriginCoordinate(Coordinate): Error</text><ellipse cx="309" cy="698.7031" fill="#84BE84" rx="3" ry="3" style="stroke: #038048; stroke-width: 1.0;"/><text fill="#000000" font-family="sans-serif" font-size="11" lengthAdjust="spacingAndGlyphs" textLength="302" x="318" y="703.1221">getErrorsMoveTargetCoordinate(Coordinate, Coordinate): Error</text><ellipse cx="309" cy="712.5391" fill="#84BE84" rx="3" ry="3" style="stroke: #038048; stroke-width: 1.0;"/><text fill="#000000" font-family="sans-serif" font-size="11" lengthAdjust="spacingAndGlyphs" textLength="115" x="318" y="716.958">getToken(int, int): Token</text><ellipse cx="309" cy="726.375" fill="#84BE84" rx="3" ry="3" style="stroke: #038048; stroke-width: 1.0;"/><text fill="#000000" font-family="sans-serif" font-size="11" lengthAdjust="spacingAndGlyphs" textLength="92" x="318" y="730.7939">changeTurn(): void</text><ellipse cx="309" cy="740.2109" fill="#84BE84" rx="3" ry="3" style="stroke: #038048; stroke-width: 1.0;"/><text fill="#000000" font-family="sans-serif" font-size="11" lengthAdjust="spacingAndGlyphs" textLength="110" x="318" y="744.6299">isTicTacToe(): boolean</text><ellipse cx="309" cy="754.0469" fill="#84BE84" rx="3" ry="3" style="stroke: #038048; stroke-width: 1.0;"/><text fill="#000000" font-family="sans-serif" font-size="11" lengthAdjust="spacingAndGlyphs" textLength="141" x="318" y="758.4658">getOtherValueFromTurn(): int</text><!--MD5=[3b54484399e9c5d8797124604fd4af65]
class tictactoe.models.Player--><rect fill="#FEFECE" filter="url(#f1x7n2dae2av7m)" height="200.1953" id="tictactoe.models.Player" style="stroke: #A80036; stroke-width: 1.5;" width="328" x="508" y="1619"/><ellipse cx="650.75" cy="1635" fill="#ADD1B2" rx="11" ry="11" style="stroke: #A80036; stroke-width: 1.0;"/><path d="M653.5156,1630.875 Q653.6719,1630.6563 653.8594,1630.5469 Q654.0469,1630.4375 654.2656,1630.4375 Q654.6406,1630.4375 654.875,1630.7031 Q655.1094,1630.9531 655.1094,1631.5625 L655.1094,1633.0156 Q655.1094,1633.625 654.875,1633.8906 Q654.6406,1634.1563 654.2656,1634.1563 Q653.9219,1634.1563 653.7188,1633.9531 Q653.5156,1633.7656 653.4063,1633.25 Q653.3594,1632.8906 653.1719,1632.7031 Q652.8438,1632.3281 652.2344,1632.1094 Q651.625,1631.8906 651,1631.8906 Q650.2344,1631.8906 649.5938,1632.2188 Q648.9688,1632.5469 648.4688,1633.2969 Q647.9844,1634.0469 647.9844,1635.0781 L647.9844,1636.1719 Q647.9844,1637.4063 648.875,1638.2344 Q649.7656,1639.0469 651.3594,1639.0469 Q652.2969,1639.0469 652.9531,1638.7969 Q653.3438,1638.6406 653.7656,1638.2031 Q654.0313,1637.9375 654.1719,1637.8594 Q654.3281,1637.7813 654.5313,1637.7813 Q654.8594,1637.7813 655.1094,1638.0469 Q655.375,1638.2969 655.375,1638.6406 Q655.375,1638.9844 655.0313,1639.3906 Q654.5313,1639.9688 653.7344,1640.2969 Q652.6563,1640.75 651.3594,1640.75 Q649.8438,1640.75 648.6406,1640.125 Q647.6563,1639.625 646.9688,1638.5625 Q646.2813,1637.4844 646.2813,1636.2031 L646.2813,1635.0469 Q646.2813,1633.7188 646.8906,1632.5781 Q647.5156,1631.4219 648.6094,1630.8125 Q649.7031,1630.1875 650.9375,1630.1875 Q651.6719,1630.1875 652.3125,1630.3594 Q652.9688,1630.5156 653.5156,1630.875 Z "/><text fill="#000000" font-family="sans-serif" font-size="12" lengthAdjust="spacingAndGlyphs" textLength="34" x="671.25" y="1639.9102">Player</text><line style="stroke: #A80036; stroke-width: 1.5;" x1="509" x2="835" y1="1651" y2="1651"/><rect fill="none" height="6" style="stroke: #C82930; stroke-width: 1.0;" width="6" x="516" y="1659"/><text fill="#000000" font-family="sans-serif" font-size="11" lengthAdjust="spacingAndGlyphs" textLength="61" x="528" y="1666.4189">token: Token</text><rect fill="none" height="6" style="stroke: #C82930; stroke-width: 1.0;" width="6" x="516" y="1672.8359"/><text fill="#000000" font-family="sans-serif" font-size="11" lengthAdjust="spacingAndGlyphs" textLength="63" x="528" y="1680.2549">board: Board</text><rect fill="none" height="6" style="stroke: #C82930; stroke-width: 1.0;" width="6" x="516" y="1686.6719"/><text fill="#000000" font-family="sans-serif" font-size="11" lengthAdjust="spacingAndGlyphs" textLength="81" x="528" y="1694.0908">type: PlayerType</text><line style="stroke: #A80036; stroke-width: 1.5;" x1="509" x2="835" y1="1700.5078" y2="1700.5078"/><ellipse cx="519" cy="1711.5078" fill="#84BE84" rx="3" ry="3" style="stroke: #038048; stroke-width: 1.0;"/><text fill="#000000" font-family="sans-serif" font-size="11" lengthAdjust="spacingAndGlyphs" textLength="162" x="528" y="1715.9268">Player(Token, Board, PlayerType)</text><ellipse cx="519" cy="1725.3438" fill="#84BE84" rx="3" ry="3" style="stroke: #038048; stroke-width: 1.0;"/><text fill="#000000" font-family="sans-serif" font-size="11" lengthAdjust="spacingAndGlyphs" textLength="107" x="528" y="1729.7627">getType(): PlayerType</text><polygon fill="#4177AF" points="519,1735.1797,515,1741.1797,523,1741.1797" style="stroke: #1963A0; stroke-width: 1.0;"/><text fill="#000000" font-family="sans-serif" font-size="11" lengthAdjust="spacingAndGlyphs" textLength="87" x="528" y="1743.5986">getToken(): Token</text><polygon fill="#4177AF" points="519,1749.0156,515,1755.0156,523,1755.0156" style="stroke: #1963A0; stroke-width: 1.0;"/><text fill="#000000" font-family="sans-serif" font-size="11" lengthAdjust="spacingAndGlyphs" textLength="101" x="528" y="1757.4346">put(Coordinate): void</text><polygon fill="#4177AF" points="519,1762.8516,515,1768.8516,523,1768.8516" style="stroke: #1963A0; stroke-width: 1.0;"/><text fill="#000000" font-family="sans-serif" font-size="11" lengthAdjust="spacingAndGlyphs" textLength="118" x="528" y="1771.2705">move(Coordinate[]): void</text><ellipse cx="519" cy="1780.6875" fill="#84BE84" rx="3" ry="3" style="stroke: #038048; stroke-width: 1.0;"/><text fill="#000000" font-family="sans-serif" font-size="11" lengthAdjust="spacingAndGlyphs" textLength="202" x="528" y="1785.1064">getErrorsPutCoordinate(Coordinate): Error</text><ellipse cx="519" cy="1794.5234" fill="#84BE84" rx="3" ry="3" style="stroke: #038048; stroke-width: 1.0;"/><text fill="#000000" font-family="sans-serif" font-size="11" lengthAdjust="spacingAndGlyphs" textLength="241" x="528" y="1798.9424">getErrorsMoveOriginCoordinate(Coordinate): Error</text><ellipse cx="519" cy="1808.3594" fill="#84BE84" rx="3" ry="3" style="stroke: #038048; stroke-width: 1.0;"/><text fill="#000000" font-family="sans-serif" font-size="11" lengthAdjust="spacingAndGlyphs" textLength="302" x="528" y="1812.7783">getErrorsMoveTargetCoordinate(Coordinate, Coordinate): Error</text><!--MD5=[e3e7462999bb53e8f1f807d9bd18d9da]
class tictactoe.models.Memento--><rect fill="#FEFECE" filter="url(#f1x7n2dae2av7m)" height="144.8516" id="tictactoe.models.Memento" style="stroke: #A80036; stroke-width: 1.5;" width="176" x="670" y="825"/><ellipse cx="728.25" cy="841" fill="#ADD1B2" rx="11" ry="11" style="stroke: #A80036; stroke-width: 1.0;"/><path d="M731.0156,836.875 Q731.1719,836.6563 731.3594,836.5469 Q731.5469,836.4375 731.7656,836.4375 Q732.1406,836.4375 732.375,836.7031 Q732.6094,836.9531 732.6094,837.5625 L732.6094,839.0156 Q732.6094,839.625 732.375,839.8906 Q732.1406,840.1563 731.7656,840.1563 Q731.4219,840.1563 731.2188,839.9531 Q731.0156,839.7656 730.9063,839.25 Q730.8594,838.8906 730.6719,838.7031 Q730.3438,838.3281 729.7344,838.1094 Q729.125,837.8906 728.5,837.8906 Q727.7344,837.8906 727.0938,838.2188 Q726.4688,838.5469 725.9688,839.2969 Q725.4844,840.0469 725.4844,841.0781 L725.4844,842.1719 Q725.4844,843.4063 726.375,844.2344 Q727.2656,845.0469 728.8594,845.0469 Q729.7969,845.0469 730.4531,844.7969 Q730.8438,844.6406 731.2656,844.2031 Q731.5313,843.9375 731.6719,843.8594 Q731.8281,843.7813 732.0313,843.7813 Q732.3594,843.7813 732.6094,844.0469 Q732.875,844.2969 732.875,844.6406 Q732.875,844.9844 732.5313,845.3906 Q732.0313,845.9688 731.2344,846.2969 Q730.1563,846.75 728.8594,846.75 Q727.3438,846.75 726.1406,846.125 Q725.1563,845.625 724.4688,844.5625 Q723.7813,843.4844 723.7813,842.2031 L723.7813,841.0469 Q723.7813,839.7188 724.3906,838.5781 Q725.0156,837.4219 726.1094,836.8125 Q727.2031,836.1875 728.4375,836.1875 Q729.1719,836.1875 729.8125,836.3594 Q730.4688,836.5156 731.0156,836.875 Z "/><text fill="#000000" font-family="sans-serif" font-size="12" lengthAdjust="spacingAndGlyphs" textLength="51" x="748.75" y="845.9102">Memento</text><line style="stroke: #A80036; stroke-width: 1.5;" x1="671" x2="845" y1="857" y2="857"/><rect fill="none" height="6" style="stroke: #C82930; stroke-width: 1.0;" width="6" x="678" y="865"/><text fill="#000000" font-family="sans-serif" font-size="11" lengthAdjust="spacingAndGlyphs" textLength="63" x="690" y="872.4189">board: Board</text><rect fill="none" height="6" style="stroke: #C82930; stroke-width: 1.0;" width="6" x="678" y="878.8359"/><text fill="#000000" font-family="sans-serif" font-size="11" lengthAdjust="spacingAndGlyphs" textLength="84" x="690" y="886.2549">players: Player[][]</text><rect fill="none" height="6" style="stroke: #C82930; stroke-width: 1.0;" width="6" x="678" y="892.6719"/><text fill="#000000" font-family="sans-serif" font-size="11" lengthAdjust="spacingAndGlyphs" textLength="47" x="690" y="900.0908">turn: Turn</text><line style="stroke: #A80036; stroke-width: 1.5;" x1="671" x2="845" y1="906.5078" y2="906.5078"/><ellipse cx="681" cy="917.5078" fill="#84BE84" rx="3" ry="3" style="stroke: #038048; stroke-width: 1.0;"/><text fill="#000000" font-family="sans-serif" font-size="11" lengthAdjust="spacingAndGlyphs" textLength="150" x="690" y="921.9268">Memento(Board, Player[], Turn)</text><ellipse cx="681" cy="931.3438" fill="#84BE84" rx="3" ry="3" style="stroke: #038048; stroke-width: 1.0;"/><text fill="#000000" font-family="sans-serif" font-size="11" lengthAdjust="spacingAndGlyphs" textLength="87" x="690" y="935.7627">getBoard(): Board</text><polygon fill="#4177AF" points="681,941.1797,677,947.1797,685,947.1797" style="stroke: #1963A0; stroke-width: 1.0;"/><text fill="#000000" font-family="sans-serif" font-size="11" lengthAdjust="spacingAndGlyphs" textLength="101" x="690" y="949.5986">getPlayers(): Player[]</text><polygon fill="#4177AF" points="681,955.0156,677,961.0156,685,961.0156" style="stroke: #1963A0; stroke-width: 1.0;"/><text fill="#000000" font-family="sans-serif" font-size="11" lengthAdjust="spacingAndGlyphs" textLength="73" x="690" y="963.4346">getTurn(): Turn</text><!--MD5=[2b14e0e96db7f5316a979ffb128b98ab]
class tictactoe.models.Registry--><rect fill="#FEFECE" filter="url(#f1x7n2dae2av7m)" height="172.5234" id="tictactoe.models.Registry" style="stroke: #A80036; stroke-width: 1.5;" width="192" x="661" y="523"/><ellipse cx="730.25" cy="539" fill="#ADD1B2" rx="11" ry="11" style="stroke: #A80036; stroke-width: 1.0;"/><path d="M733.0156,534.875 Q733.1719,534.6563 733.3594,534.5469 Q733.5469,534.4375 733.7656,534.4375 Q734.1406,534.4375 734.375,534.7031 Q734.6094,534.9531 734.6094,535.5625 L734.6094,537.0156 Q734.6094,537.625 734.375,537.8906 Q734.1406,538.1563 733.7656,538.1563 Q733.4219,538.1563 733.2188,537.9531 Q733.0156,537.7656 732.9063,537.25 Q732.8594,536.8906 732.6719,536.7031 Q732.3438,536.3281 731.7344,536.1094 Q731.125,535.8906 730.5,535.8906 Q729.7344,535.8906 729.0938,536.2188 Q728.4688,536.5469 727.9688,537.2969 Q727.4844,538.0469 727.4844,539.0781 L727.4844,540.1719 Q727.4844,541.4063 728.375,542.2344 Q729.2656,543.0469 730.8594,543.0469 Q731.7969,543.0469 732.4531,542.7969 Q732.8438,542.6406 733.2656,542.2031 Q733.5313,541.9375 733.6719,541.8594 Q733.8281,541.7813 734.0313,541.7813 Q734.3594,541.7813 734.6094,542.0469 Q734.875,542.2969 734.875,542.6406 Q734.875,542.9844 734.5313,543.3906 Q734.0313,543.9688 733.2344,544.2969 Q732.1563,544.75 730.8594,544.75 Q729.3438,544.75 728.1406,544.125 Q727.1563,543.625 726.4688,542.5625 Q725.7813,541.4844 725.7813,540.2031 L725.7813,539.0469 Q725.7813,537.7188 726.3906,536.5781 Q727.0156,535.4219 728.1094,534.8125 Q729.2031,534.1875 730.4375,534.1875 Q731.1719,534.1875 731.8125,534.3594 Q732.4688,534.5156 733.0156,534.875 Z "/><text fill="#000000" font-family="sans-serif" font-size="12" lengthAdjust="spacingAndGlyphs" textLength="45" x="750.75" y="543.9102">Registry</text><line style="stroke: #A80036; stroke-width: 1.5;" x1="662" x2="852" y1="555" y2="555"/><rect fill="none" height="6" style="stroke: #C82930; stroke-width: 1.0;" width="6" x="669" y="563"/><text fill="#000000" font-family="sans-serif" font-size="11" lengthAdjust="spacingAndGlyphs" textLength="166" x="681" y="570.4189">mementoList: ArrayList&lt;Memento&gt;</text><rect fill="none" height="6" style="stroke: #C82930; stroke-width: 1.0;" width="6" x="669" y="576.8359"/><text fill="#000000" font-family="sans-serif" font-size="11" lengthAdjust="spacingAndGlyphs" textLength="60" x="681" y="584.2549">game: Game</text><rect fill="none" height="6" style="stroke: #C82930; stroke-width: 1.0;" width="6" x="669" y="590.6719"/><text fill="#000000" font-family="sans-serif" font-size="11" lengthAdjust="spacingAndGlyphs" textLength="78" x="681" y="598.0908">firstPrevious: int</text><line style="stroke: #A80036; stroke-width: 1.5;" x1="662" x2="852" y1="604.5078" y2="604.5078"/><polygon fill="#4177AF" points="672,611.5078,668,617.5078,676,617.5078" style="stroke: #1963A0; stroke-width: 1.0;"/><text fill="#000000" font-family="sans-serif" font-size="11" lengthAdjust="spacingAndGlyphs" textLength="76" x="681" y="619.9268">Registry(Game)</text><polygon fill="#4177AF" points="672,625.3438,668,631.3438,676,631.3438" style="stroke: #1963A0; stroke-width: 1.0;"/><text fill="#000000" font-family="sans-serif" font-size="11" lengthAdjust="spacingAndGlyphs" textLength="71" x="681" y="633.7627">registry(): void</text><polygon fill="#4177AF" points="672,639.1797,668,645.1797,676,645.1797" style="stroke: #1963A0; stroke-width: 1.0;"/><text fill="#000000" font-family="sans-serif" font-size="11" lengthAdjust="spacingAndGlyphs" textLength="84" x="681" y="647.5986">redo(Game): void</text><polygon fill="#4177AF" points="672,653.0156,668,659.0156,676,659.0156" style="stroke: #1963A0; stroke-width: 1.0;"/><text fill="#000000" font-family="sans-serif" font-size="11" lengthAdjust="spacingAndGlyphs" textLength="96" x="681" y="661.4346">undoable(): boolean</text><polygon fill="#4177AF" points="672,666.8516,668,672.8516,676,672.8516" style="stroke: #1963A0; stroke-width: 1.0;"/><text fill="#000000" font-family="sans-serif" font-size="11" lengthAdjust="spacingAndGlyphs" textLength="94" x="681" y="675.2705">redoable(): boolean</text><polygon fill="#4177AF" points="672,680.6875,668,686.6875,676,686.6875" style="stroke: #1963A0; stroke-width: 1.0;"/><text fill="#000000" font-family="sans-serif" font-size="11" lengthAdjust="spacingAndGlyphs" textLength="59" x="681" y="689.1064">reset(): void</text><!--MD5=[fa99c436b17806d9277b14ee7a9cac8e]
class tictactoe.models.Session--><rect fill="#FEFECE" filter="url(#f1x7n2dae2av7m)" height="352.3906" id="tictactoe.models.Session" style="stroke: #A80036; stroke-width: 1.5;" width="328" x="593" y="42"/><ellipse cx="729.75" cy="58" fill="#ADD1B2" rx="11" ry="11" style="stroke: #A80036; stroke-width: 1.0;"/><path d="M732.5156,53.875 Q732.6719,53.6563 732.8594,53.5469 Q733.0469,53.4375 733.2656,53.4375 Q733.6406,53.4375 733.875,53.7031 Q734.1094,53.9531 734.1094,54.5625 L734.1094,56.0156 Q734.1094,56.625 733.875,56.8906 Q733.6406,57.1563 733.2656,57.1563 Q732.9219,57.1563 732.7188,56.9531 Q732.5156,56.7656 732.4063,56.25 Q732.3594,55.8906 732.1719,55.7031 Q731.8438,55.3281 731.2344,55.1094 Q730.625,54.8906 730,54.8906 Q729.2344,54.8906 728.5938,55.2188 Q727.9688,55.5469 727.4688,56.2969 Q726.9844,57.0469 726.9844,58.0781 L726.9844,59.1719 Q726.9844,60.4063 727.875,61.2344 Q728.7656,62.0469 730.3594,62.0469 Q731.2969,62.0469 731.9531,61.7969 Q732.3438,61.6406 732.7656,61.2031 Q733.0313,60.9375 733.1719,60.8594 Q733.3281,60.7813 733.5313,60.7813 Q733.8594,60.7813 734.1094,61.0469 Q734.375,61.2969 734.375,61.6406 Q734.375,61.9844 734.0313,62.3906 Q733.5313,62.9688 732.7344,63.2969 Q731.6563,63.75 730.3594,63.75 Q728.8438,63.75 727.6406,63.125 Q726.6563,62.625 725.9688,61.5625 Q725.2813,60.4844 725.2813,59.2031 L725.2813,58.0469 Q725.2813,56.7188 725.8906,55.5781 Q726.5156,54.4219 727.6094,53.8125 Q728.7031,53.1875 729.9375,53.1875 Q730.6719,53.1875 731.3125,53.3594 Q731.9688,53.5156 732.5156,53.875 Z "/><text fill="#000000" font-family="sans-serif" font-size="12" lengthAdjust="spacingAndGlyphs" textLength="46" x="750.25" y="62.9102">Session</text><line style="stroke: #A80036; stroke-width: 1.5;" x1="594" x2="920" y1="74" y2="74"/><rect fill="none" height="6" style="stroke: #C82930; stroke-width: 1.0;" width="6" x="601" y="82"/><text fill="#000000" font-family="sans-serif" font-size="11" lengthAdjust="spacingAndGlyphs" textLength="55" x="613" y="89.4189">state: State</text><rect fill="none" height="6" style="stroke: #C82930; stroke-width: 1.0;" width="6" x="601" y="95.8359"/><text fill="#000000" font-family="sans-serif" font-size="11" lengthAdjust="spacingAndGlyphs" textLength="60" x="613" y="103.2549">game: Game</text><rect fill="none" height="6" style="stroke: #C82930; stroke-width: 1.0;" width="6" x="601" y="109.6719"/><text fill="#000000" font-family="sans-serif" font-size="11" lengthAdjust="spacingAndGlyphs" textLength="83" x="613" y="117.0908">registry: Registry</text><line style="stroke: #A80036; stroke-width: 1.5;" x1="594" x2="920" y1="123.5078" y2="123.5078"/><ellipse cx="604" cy="134.5078" fill="#84BE84" rx="3" ry="3" style="stroke: #038048; stroke-width: 1.0;"/><text fill="#000000" font-family="sans-serif" font-size="11" lengthAdjust="spacingAndGlyphs" textLength="47" x="613" y="138.9268">Session()</text><ellipse cx="604" cy="148.3438" fill="#84BE84" rx="3" ry="3" style="stroke: #038048; stroke-width: 1.0;"/><text fill="#000000" font-family="sans-serif" font-size="11" lengthAdjust="spacingAndGlyphs" textLength="55" x="613" y="152.7627">next(): void</text><ellipse cx="604" cy="162.1797" fill="#84BE84" rx="3" ry="3" style="stroke: #038048; stroke-width: 1.0;"/><text fill="#000000" font-family="sans-serif" font-size="11" lengthAdjust="spacingAndGlyphs" textLength="96" x="613" y="166.5986">undoable(): boolean</text><ellipse cx="604" cy="176.0156" fill="#84BE84" rx="3" ry="3" style="stroke: #038048; stroke-width: 1.0;"/><text fill="#000000" font-family="sans-serif" font-size="11" lengthAdjust="spacingAndGlyphs" textLength="94" x="613" y="180.4346">redoable(): boolean</text><ellipse cx="604" cy="189.8516" fill="#84BE84" rx="3" ry="3" style="stroke: #038048; stroke-width: 1.0;"/><text fill="#000000" font-family="sans-serif" font-size="11" lengthAdjust="spacingAndGlyphs" textLength="58" x="613" y="194.2705">undo(): void</text><ellipse cx="604" cy="203.6875" fill="#84BE84" rx="3" ry="3" style="stroke: #038048; stroke-width: 1.0;"/><text fill="#000000" font-family="sans-serif" font-size="11" lengthAdjust="spacingAndGlyphs" textLength="56" x="613" y="208.1064">redo(): void</text><ellipse cx="604" cy="217.5234" fill="#84BE84" rx="3" ry="3" style="stroke: #038048; stroke-width: 1.0;"/><text fill="#000000" font-family="sans-serif" font-size="11" lengthAdjust="spacingAndGlyphs" textLength="112" x="613" y="221.9424">createPlayers(int): void</text><ellipse cx="604" cy="231.3594" fill="#84BE84" rx="3" ry="3" style="stroke: #038048; stroke-width: 1.0;"/><text fill="#000000" font-family="sans-serif" font-size="11" lengthAdjust="spacingAndGlyphs" textLength="224" x="613" y="235.7783">getTypeOfTokenPlayerFromTurn(): PlayerType</text><ellipse cx="604" cy="245.1953" fill="#84BE84" rx="3" ry="3" style="stroke: #038048; stroke-width: 1.0;"/><text fill="#000000" font-family="sans-serif" font-size="11" lengthAdjust="spacingAndGlyphs" textLength="202" x="613" y="249.6143">getErrorsPutCoordinate(Coordinate): Error</text><ellipse cx="604" cy="259.0313" fill="#84BE84" rx="3" ry="3" style="stroke: #038048; stroke-width: 1.0;"/><text fill="#000000" font-family="sans-serif" font-size="11" lengthAdjust="spacingAndGlyphs" textLength="241" x="613" y="263.4502">getErrorsMoveOriginCoordinate(Coordinate): Error</text><ellipse cx="604" cy="272.8672" fill="#84BE84" rx="3" ry="3" style="stroke: #038048; stroke-width: 1.0;"/><text fill="#000000" font-family="sans-serif" font-size="11" lengthAdjust="spacingAndGlyphs" textLength="302" x="613" y="277.2861">getErrorsMoveTargetCoordinate(Coordinate, Coordinate): Error</text><ellipse cx="604" cy="286.7031" fill="#84BE84" rx="3" ry="3" style="stroke: #038048; stroke-width: 1.0;"/><text fill="#000000" font-family="sans-serif" font-size="11" lengthAdjust="spacingAndGlyphs" textLength="133" x="613" y="291.1221">isBoardComplete(): boolean</text><ellipse cx="604" cy="300.5391" fill="#84BE84" rx="3" ry="3" style="stroke: #038048; stroke-width: 1.0;"/><text fill="#000000" font-family="sans-serif" font-size="11" lengthAdjust="spacingAndGlyphs" textLength="206" x="613" y="304.958">putTokenPlayerFromTurn(Coordinate): void</text><ellipse cx="604" cy="314.375" fill="#84BE84" rx="3" ry="3" style="stroke: #038048; stroke-width: 1.0;"/><text fill="#000000" font-family="sans-serif" font-size="11" lengthAdjust="spacingAndGlyphs" textLength="223" x="613" y="318.7939">moveTokenPlayerFromTurn(Coordinate[]): void</text><ellipse cx="604" cy="328.2109" fill="#84BE84" rx="3" ry="3" style="stroke: #038048; stroke-width: 1.0;"/><text fill="#000000" font-family="sans-serif" font-size="11" lengthAdjust="spacingAndGlyphs" textLength="92" x="613" y="332.6299">changeTurn(): void</text><ellipse cx="604" cy="342.0469" fill="#84BE84" rx="3" ry="3" style="stroke: #038048; stroke-width: 1.0;"/><text fill="#000000" font-family="sans-serif" font-size="11" lengthAdjust="spacingAndGlyphs" textLength="115" x="613" y="346.4658">getToken(int, int): Token</text><ellipse cx="604" cy="355.8828" fill="#84BE84" rx="3" ry="3" style="stroke: #038048; stroke-width: 1.0;"/><text fill="#000000" font-family="sans-serif" font-size="11" lengthAdjust="spacingAndGlyphs" textLength="110" x="613" y="360.3018">isTicTacToe(): boolean</text><ellipse cx="604" cy="369.7188" fill="#84BE84" rx="3" ry="3" style="stroke: #038048; stroke-width: 1.0;"/><text fill="#000000" font-family="sans-serif" font-size="11" lengthAdjust="spacingAndGlyphs" textLength="141" x="613" y="374.1377">getOtherValueFromTurn(): int</text><ellipse cx="604" cy="383.5547" fill="#84BE84" rx="3" ry="3" style="stroke: #038048; stroke-width: 1.0;"/><text fill="#000000" font-family="sans-serif" font-size="11" lengthAdjust="spacingAndGlyphs" textLength="135" x="613" y="387.9736">getValueState(): StateValue</text><!--MD5=[895b6132a90c2908aef15a128e2ee1f5]
class tictactoe.models.State--><rect fill="#FEFECE" filter="url(#f1x7n2dae2av7m)" height="103.3438" id="tictactoe.models.State" style="stroke: #A80036; stroke-width: 1.5;" width="161" x="888.5" y="558"/><ellipse cx="950.75" cy="574" fill="#ADD1B2" rx="11" ry="11" style="stroke: #A80036; stroke-width: 1.0;"/><path d="M953.5156,569.875 Q953.6719,569.6563 953.8594,569.5469 Q954.0469,569.4375 954.2656,569.4375 Q954.6406,569.4375 954.875,569.7031 Q955.1094,569.9531 955.1094,570.5625 L955.1094,572.0156 Q955.1094,572.625 954.875,572.8906 Q954.6406,573.1563 954.2656,573.1563 Q953.9219,573.1563 953.7188,572.9531 Q953.5156,572.7656 953.4063,572.25 Q953.3594,571.8906 953.1719,571.7031 Q952.8438,571.3281 952.2344,571.1094 Q951.625,570.8906 951,570.8906 Q950.2344,570.8906 949.5938,571.2188 Q948.9688,571.5469 948.4688,572.2969 Q947.9844,573.0469 947.9844,574.0781 L947.9844,575.1719 Q947.9844,576.4063 948.875,577.2344 Q949.7656,578.0469 951.3594,578.0469 Q952.2969,578.0469 952.9531,577.7969 Q953.3438,577.6406 953.7656,577.2031 Q954.0313,576.9375 954.1719,576.8594 Q954.3281,576.7813 954.5313,576.7813 Q954.8594,576.7813 955.1094,577.0469 Q955.375,577.2969 955.375,577.6406 Q955.375,577.9844 955.0313,578.3906 Q954.5313,578.9688 953.7344,579.2969 Q952.6563,579.75 951.3594,579.75 Q949.8438,579.75 948.6406,579.125 Q947.6563,578.625 946.9688,577.5625 Q946.2813,576.4844 946.2813,575.2031 L946.2813,574.0469 Q946.2813,572.7188 946.8906,571.5781 Q947.5156,570.4219 948.6094,569.8125 Q949.7031,569.1875 950.9375,569.1875 Q951.6719,569.1875 952.3125,569.3594 Q952.9688,569.5156 953.5156,569.875 Z "/><text fill="#000000" font-family="sans-serif" font-size="12" lengthAdjust="spacingAndGlyphs" textLength="28" x="971.25" y="578.9102">State</text><line style="stroke: #A80036; stroke-width: 1.5;" x1="889.5" x2="1048.5" y1="590" y2="590"/><rect fill="none" height="6" style="stroke: #C82930; stroke-width: 1.0;" width="6" x="896.5" y="598"/><text fill="#000000" font-family="sans-serif" font-size="11" lengthAdjust="spacingAndGlyphs" textLength="111" x="908.5" y="605.4189">stateValue: StateValue</text><line style="stroke: #A80036; stroke-width: 1.5;" x1="889.5" x2="1048.5" y1="611.8359" y2="611.8359"/><ellipse cx="899.5" cy="622.8359" fill="#84BE84" rx="3" ry="3" style="stroke: #038048; stroke-width: 1.0;"/><text fill="#000000" font-family="sans-serif" font-size="11" lengthAdjust="spacingAndGlyphs" textLength="33" x="908.5" y="627.2549">State()</text><ellipse cx="899.5" cy="636.6719" fill="#84BE84" rx="3" ry="3" style="stroke: #038048; stroke-width: 1.0;"/><text fill="#000000" font-family="sans-serif" font-size="11" lengthAdjust="spacingAndGlyphs" textLength="55" x="908.5" y="641.0908">next(): void</text><ellipse cx="899.5" cy="650.5078" fill="#84BE84" rx="3" ry="3" style="stroke: #038048; stroke-width: 1.0;"/><text fill="#000000" font-family="sans-serif" font-size="11" lengthAdjust="spacingAndGlyphs" textLength="135" x="908.5" y="654.9268">getValueState(): StateValue</text><!--MD5=[3b37da8b6e7a1800631cf51c5954ec17]
class tictactoe.types.Token--><rect fill="#FEFECE" filter="url(#f1x7n2dae2av7m)" height="48" id="tictactoe.types.Token" style="stroke: #A80036; stroke-width: 1.5;" width="66" x="1328" y="1934.5"/><ellipse cx="1343" cy="1950.5" fill="#ADD1B2" rx="11" ry="11" style="stroke: #A80036; stroke-width: 1.0;"/><path d="M1345.7656,1946.375 Q1345.9219,1946.1563 1346.1094,1946.0469 Q1346.2969,1945.9375 1346.5156,1945.9375 Q1346.8906,1945.9375 1347.125,1946.2031 Q1347.3594,1946.4531 1347.3594,1947.0625 L1347.3594,1948.5156 Q1347.3594,1949.125 1347.125,1949.3906 Q1346.8906,1949.6563 1346.5156,1949.6563 Q1346.1719,1949.6563 1345.9688,1949.4531 Q1345.7656,1949.2656 1345.6563,1948.75 Q1345.6094,1948.3906 1345.4219,1948.2031 Q1345.0938,1947.8281 1344.4844,1947.6094 Q1343.875,1947.3906 1343.25,1947.3906 Q1342.4844,1947.3906 1341.8438,1947.7188 Q1341.2188,1948.0469 1340.7188,1948.7969 Q1340.2344,1949.5469 1340.2344,1950.5781 L1340.2344,1951.6719 Q1340.2344,1952.9063 1341.125,1953.7344 Q1342.0156,1954.5469 1343.6094,1954.5469 Q1344.5469,1954.5469 1345.2031,1954.2969 Q1345.5938,1954.1406 1346.0156,1953.7031 Q1346.2813,1953.4375 1346.4219,1953.3594 Q1346.5781,1953.2813 1346.7813,1953.2813 Q1347.1094,1953.2813 1347.3594,1953.5469 Q1347.625,1953.7969 1347.625,1954.1406 Q1347.625,1954.4844 1347.2813,1954.8906 Q1346.7813,1955.4688 1345.9844,1955.7969 Q1344.9063,1956.25 1343.6094,1956.25 Q1342.0938,1956.25 1340.8906,1955.625 Q1339.9063,1955.125 1339.2188,1954.0625 Q1338.5313,1952.9844 1338.5313,1951.7031 L1338.5313,1950.5469 Q1338.5313,1949.2188 1339.1406,1948.0781 Q1339.7656,1946.9219 1340.8594,1946.3125 Q1341.9531,1945.6875 1343.1875,1945.6875 Q1343.9219,1945.6875 1344.5625,1945.8594 Q1345.2188,1946.0156 1345.7656,1946.375 Z "/><text fill="#000000" font-family="sans-serif" font-size="12" lengthAdjust="spacingAndGlyphs" textLength="34" x="1357" y="1955.4102">Token</text><line style="stroke: #A80036; stroke-width: 1.5;" x1="1329" x2="1393" y1="1966.5" y2="1966.5"/><line style="stroke: #A80036; stroke-width: 1.5;" x1="1329" x2="1393" y1="1974.5" y2="1974.5"/><!--MD5=[8016c4b7c5b6e1d0c1906a688d612470]
class tictactoe.types.PlayerType--><rect fill="#FEFECE" filter="url(#f1x7n2dae2av7m)" height="48" id="tictactoe.types.PlayerType" style="stroke: #A80036; stroke-width: 1.5;" width="92" x="1201" y="1934.5"/><ellipse cx="1216" cy="1950.5" fill="#ADD1B2" rx="11" ry="11" style="stroke: #A80036; stroke-width: 1.0;"/><path d="M1218.7656,1946.375 Q1218.9219,1946.1563 1219.1094,1946.0469 Q1219.2969,1945.9375 1219.5156,1945.9375 Q1219.8906,1945.9375 1220.125,1946.2031 Q1220.3594,1946.4531 1220.3594,1947.0625 L1220.3594,1948.5156 Q1220.3594,1949.125 1220.125,1949.3906 Q1219.8906,1949.6563 1219.5156,1949.6563 Q1219.1719,1949.6563 1218.9688,1949.4531 Q1218.7656,1949.2656 1218.6563,1948.75 Q1218.6094,1948.3906 1218.4219,1948.2031 Q1218.0938,1947.8281 1217.4844,1947.6094 Q1216.875,1947.3906 1216.25,1947.3906 Q1215.4844,1947.3906 1214.8438,1947.7188 Q1214.2188,1948.0469 1213.7188,1948.7969 Q1213.2344,1949.5469 1213.2344,1950.5781 L1213.2344,1951.6719 Q1213.2344,1952.9063 1214.125,1953.7344 Q1215.0156,1954.5469 1216.6094,1954.5469 Q1217.5469,1954.5469 1218.2031,1954.2969 Q1218.5938,1954.1406 1219.0156,1953.7031 Q1219.2813,1953.4375 1219.4219,1953.3594 Q1219.5781,1953.2813 1219.7813,1953.2813 Q1220.1094,1953.2813 1220.3594,1953.5469 Q1220.625,1953.7969 1220.625,1954.1406 Q1220.625,1954.4844 1220.2813,1954.8906 Q1219.7813,1955.4688 1218.9844,1955.7969 Q1217.9063,1956.25 1216.6094,1956.25 Q1215.0938,1956.25 1213.8906,1955.625 Q1212.9063,1955.125 1212.2188,1954.0625 Q1211.5313,1952.9844 1211.5313,1951.7031 L1211.5313,1950.5469 Q1211.5313,1949.2188 1212.1406,1948.0781 Q1212.7656,1946.9219 1213.8594,1946.3125 Q1214.9531,1945.6875 1216.1875,1945.6875 Q1216.9219,1945.6875 1217.5625,1945.8594 Q1218.2188,1946.0156 1218.7656,1946.375 Z "/><text fill="#000000" font-family="sans-serif" font-size="12" lengthAdjust="spacingAndGlyphs" textLength="60" x="1230" y="1955.4102">PlayerType</text><line style="stroke: #A80036; stroke-width: 1.5;" x1="1202" x2="1292" y1="1966.5" y2="1966.5"/><line style="stroke: #A80036; stroke-width: 1.5;" x1="1202" x2="1292" y1="1974.5" y2="1974.5"/><!--MD5=[1aab8645402f9730c5a520f7fa330421]
class tictactoe.types.Error--><rect fill="#FEFECE" filter="url(#f1x7n2dae2av7m)" height="48" id="tictactoe.types.Error" style="stroke: #A80036; stroke-width: 1.5;" width="59" x="1106.5" y="1934.5"/><ellipse cx="1121.5" cy="1950.5" fill="#ADD1B2" rx="11" ry="11" style="stroke: #A80036; stroke-width: 1.0;"/><path d="M1124.2656,1946.375 Q1124.4219,1946.1563 1124.6094,1946.0469 Q1124.7969,1945.9375 1125.0156,1945.9375 Q1125.3906,1945.9375 1125.625,1946.2031 Q1125.8594,1946.4531 1125.8594,1947.0625 L1125.8594,1948.5156 Q1125.8594,1949.125 1125.625,1949.3906 Q1125.3906,1949.6563 1125.0156,1949.6563 Q1124.6719,1949.6563 1124.4688,1949.4531 Q1124.2656,1949.2656 1124.1563,1948.75 Q1124.1094,1948.3906 1123.9219,1948.2031 Q1123.5938,1947.8281 1122.9844,1947.6094 Q1122.375,1947.3906 1121.75,1947.3906 Q1120.9844,1947.3906 1120.3438,1947.7188 Q1119.7188,1948.0469 1119.2188,1948.7969 Q1118.7344,1949.5469 1118.7344,1950.5781 L1118.7344,1951.6719 Q1118.7344,1952.9063 1119.625,1953.7344 Q1120.5156,1954.5469 1122.1094,1954.5469 Q1123.0469,1954.5469 1123.7031,1954.2969 Q1124.0938,1954.1406 1124.5156,1953.7031 Q1124.7813,1953.4375 1124.9219,1953.3594 Q1125.0781,1953.2813 1125.2813,1953.2813 Q1125.6094,1953.2813 1125.8594,1953.5469 Q1126.125,1953.7969 1126.125,1954.1406 Q1126.125,1954.4844 1125.7813,1954.8906 Q1125.2813,1955.4688 1124.4844,1955.7969 Q1123.4063,1956.25 1122.1094,1956.25 Q1120.5938,1956.25 1119.3906,1955.625 Q1118.4063,1955.125 1117.7188,1954.0625 Q1117.0313,1952.9844 1117.0313,1951.7031 L1117.0313,1950.5469 Q1117.0313,1949.2188 1117.6406,1948.0781 Q1118.2656,1946.9219 1119.3594,1946.3125 Q1120.4531,1945.6875 1121.6875,1945.6875 Q1122.4219,1945.6875 1123.0625,1945.8594 Q1123.7188,1946.0156 1124.2656,1946.375 Z "/><text fill="#000000" font-family="sans-serif" font-size="12" lengthAdjust="spacingAndGlyphs" textLength="27" x="1135.5" y="1955.4102">Error</text><line style="stroke: #A80036; stroke-width: 1.5;" x1="1107.5" x2="1164.5" y1="1966.5" y2="1966.5"/><line style="stroke: #A80036; stroke-width: 1.5;" x1="1107.5" x2="1164.5" y1="1974.5" y2="1974.5"/><!--MD5=[ea30d292714730c8ff8cd5bac06a3493]
class tictactoe.types.Game--><rect fill="#FEFECE" filter="url(#f1x7n2dae2av7m)" height="48" id="tictactoe.types.Game" style="stroke: #A80036; stroke-width: 1.5;" width="66" x="1429" y="1934.5"/><ellipse cx="1444" cy="1950.5" fill="#ADD1B2" rx="11" ry="11" style="stroke: #A80036; stroke-width: 1.0;"/><path d="M1446.7656,1946.375 Q1446.9219,1946.1563 1447.1094,1946.0469 Q1447.2969,1945.9375 1447.5156,1945.9375 Q1447.8906,1945.9375 1448.125,1946.2031 Q1448.3594,1946.4531 1448.3594,1947.0625 L1448.3594,1948.5156 Q1448.3594,1949.125 1448.125,1949.3906 Q1447.8906,1949.6563 1447.5156,1949.6563 Q1447.1719,1949.6563 1446.9688,1949.4531 Q1446.7656,1949.2656 1446.6563,1948.75 Q1446.6094,1948.3906 1446.4219,1948.2031 Q1446.0938,1947.8281 1445.4844,1947.6094 Q1444.875,1947.3906 1444.25,1947.3906 Q1443.4844,1947.3906 1442.8438,1947.7188 Q1442.2188,1948.0469 1441.7188,1948.7969 Q1441.2344,1949.5469 1441.2344,1950.5781 L1441.2344,1951.6719 Q1441.2344,1952.9063 1442.125,1953.7344 Q1443.0156,1954.5469 1444.6094,1954.5469 Q1445.5469,1954.5469 1446.2031,1954.2969 Q1446.5938,1954.1406 1447.0156,1953.7031 Q1447.2813,1953.4375 1447.4219,1953.3594 Q1447.5781,1953.2813 1447.7813,1953.2813 Q1448.1094,1953.2813 1448.3594,1953.5469 Q1448.625,1953.7969 1448.625,1954.1406 Q1448.625,1954.4844 1448.2813,1954.8906 Q1447.7813,1955.4688 1446.9844,1955.7969 Q1445.9063,1956.25 1444.6094,1956.25 Q1443.0938,1956.25 1441.8906,1955.625 Q1440.9063,1955.125 1440.2188,1954.0625 Q1439.5313,1952.9844 1439.5313,1951.7031 L1439.5313,1950.5469 Q1439.5313,1949.2188 1440.1406,1948.0781 Q1440.7656,1946.9219 1441.8594,1946.3125 Q1442.9531,1945.6875 1444.1875,1945.6875 Q1444.9219,1945.6875 1445.5625,1945.8594 Q1446.2188,1946.0156 1446.7656,1946.375 Z "/><text fill="#000000" font-family="sans-serif" font-size="12" lengthAdjust="spacingAndGlyphs" textLength="34" x="1458" y="1955.4102">Game</text><line style="stroke: #A80036; stroke-width: 1.5;" x1="1430" x2="1494" y1="1966.5" y2="1966.5"/><line style="stroke: #A80036; stroke-width: 1.5;" x1="1430" x2="1494" y1="1974.5" y2="1974.5"/><!--MD5=[068fe37cd9d2e226408ce790264f2fa7]
class tictactoe.types.StateValue--><rect fill="#FEFECE" filter="url(#f1x7n2dae2av7m)" height="48" id="tictactoe.types.StateValue" style="stroke: #A80036; stroke-width: 1.5;" width="91" x="1530.5" y="1934.5"/><ellipse cx="1545.5" cy="1950.5" fill="#ADD1B2" rx="11" ry="11" style="stroke: #A80036; stroke-width: 1.0;"/><path d="M1548.2656,1946.375 Q1548.4219,1946.1563 1548.6094,1946.0469 Q1548.7969,1945.9375 1549.0156,1945.9375 Q1549.3906,1945.9375 1549.625,1946.2031 Q1549.8594,1946.4531 1549.8594,1947.0625 L1549.8594,1948.5156 Q1549.8594,1949.125 1549.625,1949.3906 Q1549.3906,1949.6563 1549.0156,1949.6563 Q1548.6719,1949.6563 1548.4688,1949.4531 Q1548.2656,1949.2656 1548.1563,1948.75 Q1548.1094,1948.3906 1547.9219,1948.2031 Q1547.5938,1947.8281 1546.9844,1947.6094 Q1546.375,1947.3906 1545.75,1947.3906 Q1544.9844,1947.3906 1544.3438,1947.7188 Q1543.7188,1948.0469 1543.2188,1948.7969 Q1542.7344,1949.5469 1542.7344,1950.5781 L1542.7344,1951.6719 Q1542.7344,1952.9063 1543.625,1953.7344 Q1544.5156,1954.5469 1546.1094,1954.5469 Q1547.0469,1954.5469 1547.7031,1954.2969 Q1548.0938,1954.1406 1548.5156,1953.7031 Q1548.7813,1953.4375 1548.9219,1953.3594 Q1549.0781,1953.2813 1549.2813,1953.2813 Q1549.6094,1953.2813 1549.8594,1953.5469 Q1550.125,1953.7969 1550.125,1954.1406 Q1550.125,1954.4844 1549.7813,1954.8906 Q1549.2813,1955.4688 1548.4844,1955.7969 Q1547.4063,1956.25 1546.1094,1956.25 Q1544.5938,1956.25 1543.3906,1955.625 Q1542.4063,1955.125 1541.7188,1954.0625 Q1541.0313,1952.9844 1541.0313,1951.7031 L1541.0313,1950.5469 Q1541.0313,1949.2188 1541.6406,1948.0781 Q1542.2656,1946.9219 1543.3594,1946.3125 Q1544.4531,1945.6875 1545.6875,1945.6875 Q1546.4219,1945.6875 1547.0625,1945.8594 Q1547.7188,1946.0156 1548.2656,1946.375 Z "/><text fill="#000000" font-family="sans-serif" font-size="12" lengthAdjust="spacingAndGlyphs" textLength="59" x="1559.5" y="1955.4102">StateValue</text><line style="stroke: #A80036; stroke-width: 1.5;" x1="1531.5" x2="1620.5" y1="1966.5" y2="1966.5"/><line style="stroke: #A80036; stroke-width: 1.5;" x1="1531.5" x2="1620.5" y1="1974.5" y2="1974.5"/><!--MD5=[63e92a92e730259d201bb8566c78f275]
class utils.Direction--><rect fill="#FEFECE" filter="url(#f1x7n2dae2av7m)" height="48" id="utils.Direction" style="stroke: #A80036; stroke-width: 1.5;" width="81" x="32.5" y="1695"/><ellipse cx="47.5" cy="1711" fill="#ADD1B2" rx="11" ry="11" style="stroke: #A80036; stroke-width: 1.0;"/><path d="M50.2656,1706.875 Q50.4219,1706.6563 50.6094,1706.5469 Q50.7969,1706.4375 51.0156,1706.4375 Q51.3906,1706.4375 51.625,1706.7031 Q51.8594,1706.9531 51.8594,1707.5625 L51.8594,1709.0156 Q51.8594,1709.625 51.625,1709.8906 Q51.3906,1710.1563 51.0156,1710.1563 Q50.6719,1710.1563 50.4688,1709.9531 Q50.2656,1709.7656 50.1563,1709.25 Q50.1094,1708.8906 49.9219,1708.7031 Q49.5938,1708.3281 48.9844,1708.1094 Q48.375,1707.8906 47.75,1707.8906 Q46.9844,1707.8906 46.3438,1708.2188 Q45.7188,1708.5469 45.2188,1709.2969 Q44.7344,1710.0469 44.7344,1711.0781 L44.7344,1712.1719 Q44.7344,1713.4063 45.625,1714.2344 Q46.5156,1715.0469 48.1094,1715.0469 Q49.0469,1715.0469 49.7031,1714.7969 Q50.0938,1714.6406 50.5156,1714.2031 Q50.7813,1713.9375 50.9219,1713.8594 Q51.0781,1713.7813 51.2813,1713.7813 Q51.6094,1713.7813 51.8594,1714.0469 Q52.125,1714.2969 52.125,1714.6406 Q52.125,1714.9844 51.7813,1715.3906 Q51.2813,1715.9688 50.4844,1716.2969 Q49.4063,1716.75 48.1094,1716.75 Q46.5938,1716.75 45.3906,1716.125 Q44.4063,1715.625 43.7188,1714.5625 Q43.0313,1713.4844 43.0313,1712.2031 L43.0313,1711.0469 Q43.0313,1709.7188 43.6406,1708.5781 Q44.2656,1707.4219 45.3594,1706.8125 Q46.4531,1706.1875 47.6875,1706.1875 Q48.4219,1706.1875 49.0625,1706.3594 Q49.7188,1706.5156 50.2656,1706.875 Z "/><text fill="#000000" font-family="sans-serif" font-size="12" lengthAdjust="spacingAndGlyphs" textLength="49" x="61.5" y="1715.9102">Direction</text><line style="stroke: #A80036; stroke-width: 1.5;" x1="33.5" x2="112.5" y1="1727" y2="1727"/><line style="stroke: #A80036; stroke-width: 1.5;" x1="33.5" x2="112.5" y1="1735" y2="1735"/><!--MD5=[4517a9099db328c27576a0137eb33da6]
class utils.Coordinate--><rect fill="#FEFECE" filter="url(#f1x7n2dae2av7m)" height="48" id="utils.Coordinate" style="stroke: #A80036; stroke-width: 1.5;" width="93" x="148.5" y="1695"/><ellipse cx="163.5" cy="1711" fill="#ADD1B2" rx="11" ry="11" style="stroke: #A80036; stroke-width: 1.0;"/><path d="M166.2656,1706.875 Q166.4219,1706.6563 166.6094,1706.5469 Q166.7969,1706.4375 167.0156,1706.4375 Q167.3906,1706.4375 167.625,1706.7031 Q167.8594,1706.9531 167.8594,1707.5625 L167.8594,1709.0156 Q167.8594,1709.625 167.625,1709.8906 Q167.3906,1710.1563 167.0156,1710.1563 Q166.6719,1710.1563 166.4688,1709.9531 Q166.2656,1709.7656 166.1563,1709.25 Q166.1094,1708.8906 165.9219,1708.7031 Q165.5938,1708.3281 164.9844,1708.1094 Q164.375,1707.8906 163.75,1707.8906 Q162.9844,1707.8906 162.3438,1708.2188 Q161.7188,1708.5469 161.2188,1709.2969 Q160.7344,1710.0469 160.7344,1711.0781 L160.7344,1712.1719 Q160.7344,1713.4063 161.625,1714.2344 Q162.5156,1715.0469 164.1094,1715.0469 Q165.0469,1715.0469 165.7031,1714.7969 Q166.0938,1714.6406 166.5156,1714.2031 Q166.7813,1713.9375 166.9219,1713.8594 Q167.0781,1713.7813 167.2813,1713.7813 Q167.6094,1713.7813 167.8594,1714.0469 Q168.125,1714.2969 168.125,1714.6406 Q168.125,1714.9844 167.7813,1715.3906 Q167.2813,1715.9688 166.4844,1716.2969 Q165.4063,1716.75 164.1094,1716.75 Q162.5938,1716.75 161.3906,1716.125 Q160.4063,1715.625 159.7188,1714.5625 Q159.0313,1713.4844 159.0313,1712.2031 L159.0313,1711.0469 Q159.0313,1709.7188 159.6406,1708.5781 Q160.2656,1707.4219 161.3594,1706.8125 Q162.4531,1706.1875 163.6875,1706.1875 Q164.4219,1706.1875 165.0625,1706.3594 Q165.7188,1706.5156 166.2656,1706.875 Z "/><text fill="#000000" font-family="sans-serif" font-size="12" lengthAdjust="spacingAndGlyphs" textLength="61" x="177.5" y="1715.9102">Coordinate</text><line style="stroke: #A80036; stroke-width: 1.5;" x1="149.5" x2="240.5" y1="1727" y2="1727"/><line style="stroke: #A80036; stroke-width: 1.5;" x1="149.5" x2="240.5" y1="1735" y2="1735"/><!--MD5=[6c70c0f5d22b0d421fe766e144384ba2]
class java.util.Random--><rect fill="#FEFECE" filter="url(#f1x7n2dae2av7m)" height="48" id="java.util.Random" style="stroke: #A80036; stroke-width: 1.5;" width="80" x="373" y="2114"/><ellipse cx="388" cy="2130" fill="#ADD1B2" rx="11" ry="11" style="stroke: #A80036; stroke-width: 1.0;"/><path d="M390.7656,2125.875 Q390.9219,2125.6563 391.1094,2125.5469 Q391.2969,2125.4375 391.5156,2125.4375 Q391.8906,2125.4375 392.125,2125.7031 Q392.3594,2125.9531 392.3594,2126.5625 L392.3594,2128.0156 Q392.3594,2128.625 392.125,2128.8906 Q391.8906,2129.1563 391.5156,2129.1563 Q391.1719,2129.1563 390.9688,2128.9531 Q390.7656,2128.7656 390.6563,2128.25 Q390.6094,2127.8906 390.4219,2127.7031 Q390.0938,2127.3281 389.4844,2127.1094 Q388.875,2126.8906 388.25,2126.8906 Q387.4844,2126.8906 386.8438,2127.2188 Q386.2188,2127.5469 385.7188,2128.2969 Q385.2344,2129.0469 385.2344,2130.0781 L385.2344,2131.1719 Q385.2344,2132.4063 386.125,2133.2344 Q387.0156,2134.0469 388.6094,2134.0469 Q389.5469,2134.0469 390.2031,2133.7969 Q390.5938,2133.6406 391.0156,2133.2031 Q391.2813,2132.9375 391.4219,2132.8594 Q391.5781,2132.7813 391.7813,2132.7813 Q392.1094,2132.7813 392.3594,2133.0469 Q392.625,2133.2969 392.625,2133.6406 Q392.625,2133.9844 392.2813,2134.3906 Q391.7813,2134.9688 390.9844,2135.2969 Q389.9063,2135.75 388.6094,2135.75 Q387.0938,2135.75 385.8906,2135.125 Q384.9063,2134.625 384.2188,2133.5625 Q383.5313,2132.4844 383.5313,2131.2031 L383.5313,2130.0469 Q383.5313,2128.7188 384.1406,2127.5781 Q384.7656,2126.4219 385.8594,2125.8125 Q386.9531,2125.1875 388.1875,2125.1875 Q388.9219,2125.1875 389.5625,2125.3594 Q390.2188,2125.5156 390.7656,2125.875 Z "/><text fill="#000000" font-family="sans-serif" font-size="12" lengthAdjust="spacingAndGlyphs" textLength="48" x="402" y="2134.9102">Random</text><line style="stroke: #A80036; stroke-width: 1.5;" x1="374" x2="452" y1="2146" y2="2146"/><line style="stroke: #A80036; stroke-width: 1.5;" x1="374" x2="452" y1="2154" y2="2154"/><!--MD5=[9415c0c61774263745e2cedb44e639c6]
link tictactoe.models.Board to tictactoe.models.Coordinate--><path d="M470.186,1325.2463 C470.186,1325.2463 433.289,1733.179 421.313,1865.59 " fill="none" id="tictactoe.models.Board-tictactoe.models.Coordinate" style="stroke: #A80036; stroke-width: 1.0;"/><polygon fill="#A80036" points="420.116,1878.822,424.9107,1870.2191,420.5665,1873.8423,416.9433,1869.4982,420.116,1878.822" style="stroke: #A80036; stroke-width: 1.0;"/><line style="stroke: #A80036; stroke-width: 1.0;" x1="420.5665" x2="421.2875" y1="1873.8423" y2="1865.875"/><polygon fill="#A80036" points="471.266,1313.295,466.7422,1318.9106,470.186,1325.2463,474.7098,1319.6307,471.266,1313.295" style="stroke: #A80036; stroke-width: 1.0;"/><!--MD5=[aaca2839b049c91838372e0d045bc145]
link tictactoe.models.Board to tictactoe.types.Token--><path d="M633.074,1273.294 C672.465,1303.161 713.559,1337.452 748,1373 C917.222,1547.659 863.746,1682.477 1065,1819 C1158.13,1882.177 1219.5,1813.479 1311,1879 C1328.65,1891.641 1341.55,1912.638 1349.82,1929.737 " fill="none" id="tictactoe.models.Board-&gt;tictactoe.types.Token" style="stroke: #A80036; stroke-width: 1.0; stroke-dasharray: 7.0,7.0;"/><polygon fill="#A80036" points="1352.03,1934.446,1351.8292,1924.5992,1349.9066,1929.9193,1344.5865,1927.9967,1352.03,1934.446" style="stroke: #A80036; stroke-width: 1.0;"/><!--MD5=[f07f4b28b1c2eb27f6b3ca96953c68ab]
link tictactoe.models.Board to tictactoe.models.Turn--><path d="M568.649,1313.181 C579.852,1331.8 591.128,1350.54 601.749,1368.19 " fill="none" id="tictactoe.models.Board-&gt;tictactoe.models.Turn" style="stroke: #A80036; stroke-width: 1.0; stroke-dasharray: 7.0,7.0;"/><polygon fill="#A80036" points="604.434,1372.654,603.2201,1362.8802,601.8556,1368.3701,596.3658,1367.0056,604.434,1372.654" style="stroke: #A80036; stroke-width: 1.0;"/><!--MD5=[1183b1fe88256d6abfae59cdbc015bea]
link tictactoe.models.Board to utils.Direction--><path d="M364.31,1313.437 C293.375,1399.454 203.479,1512.937 131,1619 C115.118,1642.241 99.0969,1669.99 87.9295,1690.188 " fill="none" id="tictactoe.models.Board-&gt;utils.Direction" style="stroke: #A80036; stroke-width: 1.0; stroke-dasharray: 7.0,7.0;"/><polygon fill="#A80036" points="85.4812,1694.636,93.3257,1688.6809,87.8925,1690.2559,86.3175,1684.8227,85.4812,1694.636" style="stroke: #A80036; stroke-width: 1.0;"/><!--MD5=[d279b4500bca5abba91dd5faa9f398fd]
reverse link utils.Coordinate to tictactoe.models.Coordinate--><path d="M228.154,1758.383 C244.251,1776.85 263.968,1799.223 282,1819 C299.839,1838.566 319.322,1859.428 337.679,1878.867 " fill="none" id="utils.Coordinate&lt;-tictactoe.models.Coordinate" style="stroke: #A80036; stroke-width: 1.0;"/><polygon fill="none" points="222.637,1762.706,214.807,1743.017,233.207,1753.526,222.637,1762.706" style="stroke: #A80036; stroke-width: 1.0;"/><!--MD5=[997516208723a80710191e814da7328e]
link tictactoe.models.Coordinate to utils.Direction--><path d="M317.395,1926.631 C258.462,1903.966 184.245,1868.472 131,1819 C109.7,1799.209 93.8339,1769.803 84.1298,1748.18 " fill="none" id="tictactoe.models.Coordinate-&gt;utils.Direction" style="stroke: #A80036; stroke-width: 1.0; stroke-dasharray: 7.0,7.0;"/><polygon fill="#A80036" points="82.034,1743.415,81.9955,1753.2638,84.0468,1747.992,89.3187,1750.0432,82.034,1743.415" style="stroke: #A80036; stroke-width: 1.0;"/><!--MD5=[02a5e0cbda321227fb745cf81ac775a1]
link tictactoe.models.Coordinate to java.util.Random--><path d="M413,2038.129 C413,2063.219 413,2089.401 413,2108.5154 " fill="none" id="tictactoe.models.Coordinate-&gt;java.util.Random" style="stroke: #A80036; stroke-width: 1.0; stroke-dasharray: 7.0,7.0;"/><polygon fill="#A80036" points="413,2113.7123,417,2104.7123,413,2108.7123,409,2104.7123,413,2113.7123" style="stroke: #A80036; stroke-width: 1.0;"/><!--MD5=[b634369fa6e65a8dead148f8efc150f7]
link tictactoe.models.Game to tictactoe.models.Board--><path d="M468.5316,776.9911 C468.5316,776.9911 475.055,942.8 477.96,1016.76 " fill="none" id="tictactoe.models.Game-tictactoe.models.Board" style="stroke: #A80036; stroke-width: 1.0;"/><polygon fill="#A80036" points="478.477,1029.91,482.1178,1020.7588,478.2792,1024.9139,474.1241,1021.0753,478.477,1029.91" style="stroke: #A80036; stroke-width: 1.0;"/><line style="stroke: #A80036; stroke-width: 1.0;" x1="478.2792" x2="477.9665" y1="1024.9139" y2="1016.92"/><polygon fill="#A80036" points="468.07,765,464.3037,771.1494,468.5316,776.9911,472.2978,770.8417,468.07,765" style="stroke: #A80036; stroke-width: 1.0;"/><!--MD5=[1dc2bc8b0c5aa09eb02df64674797f09]
link tictactoe.models.Game to tictactoe.models.Player--><path d="M378.7111,776.3575 C378.7111,776.3575 255.448,1134.83 317,1313 C357.853,1431.256 452.989,1536.539 534.499,1610.102 " fill="none" id="tictactoe.models.Game-tictactoe.models.Player" style="stroke: #A80036; stroke-width: 1.0;"/><polygon fill="#A80036" points="544.367,1618.914,540.3186,1609.9357,540.6377,1615.5835,534.9898,1615.9026,544.367,1618.914" style="stroke: #A80036; stroke-width: 1.0;"/><line style="stroke: #A80036; stroke-width: 1.0;" x1="540.6377" x2="534.671" y1="1615.5835" y2="1610.255"/><polygon fill="#A80036" points="383.42,765.32,377.3864,769.2691,378.7111,776.3575,384.7447,772.4084,383.42,765.32" style="stroke: #A80036; stroke-width: 1.0;"/><!--MD5=[aa5c2eaa34da3707c874f29e1edc60f9]
link tictactoe.models.Game to tictactoe.models.Turn--><path d="M554.5038,775.93 C554.5038,775.93 630.346,942.99 650,1030 C674.96,1140.5 674.108,1270.812 669.121,1359.806 " fill="none" id="tictactoe.models.Game-tictactoe.models.Turn" style="stroke: #A80036; stroke-width: 1.0;"/><polygon fill="#A80036" points="668.34,1372.902,672.868,1364.1557,668.6372,1367.9108,664.8821,1363.6801,668.34,1372.902" style="stroke: #A80036; stroke-width: 1.0;"/><line style="stroke: #A80036; stroke-width: 1.0;" x1="668.6372" x2="669.114" y1="1367.9108" y2="1359.9255"/><polygon fill="#A80036" points="549.151,765.19,548.2474,772.3443,554.5038,775.93,555.4074,768.7757,549.151,765.19" style="stroke: #A80036; stroke-width: 1.0;"/><!--MD5=[2d593b7d40fdf862a21f21908246be98]
link tictactoe.models.Game to tictactoe.types.Token--><path d="M626.176,755.99 C631.743,759.18 637.356,762.2 643,765 C755.055,820.61 819.227,748.23 918,825 C1053.59,930.38 1091,998.77 1091,1170.5 C1091,1170.5 1091,1170.5 1091,1467 C1091,1519.628 1284.22,1834.23 1343.75,1929.911 " fill="none" id="tictactoe.models.Game-&gt;tictactoe.types.Token" style="stroke: #A80036; stroke-width: 1.0; stroke-dasharray: 7.0,7.0;"/><polygon fill="#A80036" points="1346.48,1934.3,1345.1168,1924.5459,1343.8364,1930.056,1338.3264,1928.7757,1346.48,1934.3" style="stroke: #A80036; stroke-width: 1.0;"/><!--MD5=[b2478b45add4fa02c6eb045c3639ccdd]
link tictactoe.models.Game to tictactoe.types.PlayerType--><path d="M626.101,755.44 C631.7,758.81 637.339,762.01 643,765 C732.594,812.38 797.275,747.85 863,825 C963.15,942.56 900,1016.07 900,1170.5 C900,1170.5 900,1170.5 900,1467 C900,1639.779 944.801,1694.884 1065,1819 C1105.93,1861.264 1137.2,1842.069 1183,1879 C1200.89,1893.427 1217.2,1913.587 1228.87,1929.864 " fill="none" id="tictactoe.models.Game-&gt;tictactoe.types.PlayerType" style="stroke: #A80036; stroke-width: 1.0; stroke-dasharray: 7.0,7.0;"/><polygon fill="#A80036" points="1232.04,1934.344,1230.0991,1924.6883,1229.1487,1930.2647,1223.5723,1929.3143,1232.04,1934.344" style="stroke: #A80036; stroke-width: 1.0;"/><!--MD5=[5fdd22b8e1e201e10f6f9767c3e91641]
link tictactoe.models.Game to tictactoe.models.Memento--><path d="M622.129,765.22 C642.138,784.55 661.849,803.6 679.787,820.93 " fill="none" id="tictactoe.models.Game-&gt;tictactoe.models.Memento" style="stroke: #A80036; stroke-width: 1.0; stroke-dasharray: 7.0,7.0;"/><polygon fill="#A80036" points="683.826,824.83,680.1277,815.7019,680.2282,821.3578,674.5722,821.4584,683.826,824.83" style="stroke: #A80036; stroke-width: 1.0;"/><!--MD5=[0add7ab1c0e4f2d2e8b94d51df67b541]
link tictactoe.models.Memento to tictactoe.models.Board--><path d="M677.1335,978.7729 C677.1335,978.7729 649.252,1006.45 635.084,1020.52 " fill="none" id="tictactoe.models.Memento-tictactoe.models.Board" style="stroke: #A80036; stroke-width: 1.0;"/><polygon fill="#A80036" points="625.75,1029.78,634.9531,1026.2724,629.2962,1026.2552,629.3134,1020.5984,625.75,1029.78" style="stroke: #A80036; stroke-width: 1.0;"/><line style="stroke: #A80036; stroke-width: 1.0;" x1="629.2962" x2="634.9765" y1="1026.2552" y2="1020.625"/><polygon fill="#A80036" points="685.651,970.32,678.5746,971.7073,677.1335,978.7729,684.2099,977.3856,685.651,970.32" style="stroke: #A80036; stroke-width: 1.0;"/><!--MD5=[0965f470714fab33faa0fe72ca0accda]
link tictactoe.models.Memento to tictactoe.models.Player--><path d="M768.0012,982.0385 C768.0012,982.0385 795.45,1356.812 748,1559 C744.304,1574.747 738.894,1590.771 732.635,1606.286 " fill="none" id="tictactoe.models.Memento-tictactoe.models.Player" style="stroke: #A80036; stroke-width: 1.0;"/><polygon fill="#A80036" points="727.449,1618.605,734.6275,1611.8619,729.3889,1613.9967,727.2542,1608.7581,727.449,1618.605" style="stroke: #A80036; stroke-width: 1.0;"/><line style="stroke: #A80036; stroke-width: 1.0;" x1="729.3889" x2="732.493" y1="1613.9967" y2="1606.6235"/><polygon fill="#A80036" points="766.788,970.1,763.4151,976.4737,768.0012,982.0385,771.3741,975.6648,766.788,970.1" style="stroke: #A80036; stroke-width: 1.0;"/><!--MD5=[e11dc50ca1268988a8df702a7479da15]
link tictactoe.models.Memento to tictactoe.models.Turn--><path d="M743.544,982.0746 C743.544,982.0746 696.996,1251.143 678.2,1359.793 " fill="none" id="tictactoe.models.Memento-tictactoe.models.Turn" style="stroke: #A80036; stroke-width: 1.0;"/><polygon fill="#A80036" points="675.96,1372.743,681.4354,1364.5564,676.8122,1367.8162,673.5525,1363.1929,675.96,1372.743" style="stroke: #A80036; stroke-width: 1.0;"/><line style="stroke: #A80036; stroke-width: 1.0;" x1="676.8122" x2="678.1755" y1="1367.8162" y2="1359.9335"/><polygon fill="#A80036" points="745.588,970.25,740.6245,975.481,743.544,982.0746,748.5076,976.8436,745.588,970.25" style="stroke: #A80036; stroke-width: 1.0;"/><!--MD5=[6788aa5eae5478765374437bd4c2e87f]
link tictactoe.models.Player to tictactoe.types.Token--><path d="M847.4394,1789.0177 C847.4394,1789.0177 913.454,1810.77 945,1819 C1104.5,1860.61 1173.4,1788.242 1311,1879 C1326.75,1889.39 1338.54,1906.636 1346.7,1922.321 " fill="none" id="tictactoe.models.Player-tictactoe.types.Token" style="stroke: #A80036; stroke-width: 1.0;"/><polygon fill="#A80036" points="1352.47,1934.405,1352.1989,1924.5599,1350.3143,1929.8936,1344.9806,1928.009,1352.47,1934.405" style="stroke: #A80036; stroke-width: 1.0;"/><line style="stroke: #A80036; stroke-width: 1.0;" x1="1350.3143" x2="1346.865" y1="1929.8936" y2="1922.6745"/><polygon fill="#A80036" points="836.107,1785.071,840.4576,1790.8218,847.4394,1789.0177,843.0888,1783.2669,836.107,1785.071" style="stroke: #A80036; stroke-width: 1.0;"/><!--MD5=[4d61797189bd4e3921b05d5b1c2f3641]
link tictactoe.models.Player to tictactoe.models.Board--><path d="M595.5711,1608.2623 C595.5711,1608.2623 577.712,1575.161 571,1559 C540.326,1485.147 519.569,1398.653 506.048,1326.235 " fill="none" id="tictactoe.models.Player-tictactoe.models.Board" style="stroke: #A80036; stroke-width: 1.0;"/><polygon fill="#A80036" points="503.69,1313.348,501.3754,1322.921,504.59,1318.2663,509.2447,1321.481,503.69,1313.348" style="stroke: #A80036; stroke-width: 1.0;"/><line style="stroke: #A80036; stroke-width: 1.0;" x1="504.59" x2="506.0295" y1="1318.2663" y2="1326.136"/><polygon fill="#A80036" points="601.617,1618.628,602.0493,1611.4299,595.5711,1608.2623,595.1388,1615.4605,601.617,1618.628" style="stroke: #A80036; stroke-width: 1.0;"/><!--MD5=[598ddb29be518176f0bd2caafd2edab8]
link tictactoe.models.Player to tictactoe.types.PlayerType--><path d="M847.2805,1809.2631 C847.2805,1809.2631 865.506,1816.15 874,1819 C1006.63,1863.504 1062.96,1807.158 1183,1879 C1200.85,1889.681 1215.87,1907.252 1226.86,1923.065 " fill="none" id="tictactoe.models.Player-tictactoe.types.PlayerType" style="stroke: #A80036; stroke-width: 1.0;"/><polygon fill="#A80036" points="1234.14,1934.144,1232.5387,1924.4262,1231.3935,1929.9659,1225.8537,1928.8207,1234.14,1934.144" style="stroke: #A80036; stroke-width: 1.0;"/><line style="stroke: #A80036; stroke-width: 1.0;" x1="1231.3935" x2="1227" y1="1929.9659" y2="1923.278"/><polygon fill="#A80036" points="836.137,1804.811,840.2247,1810.7516,847.2805,1809.2631,843.1928,1803.3226,836.137,1804.811" style="stroke: #A80036; stroke-width: 1.0;"/><!--MD5=[8c8274b143d2ce23d56b10c65f754674]
link tictactoe.models.Player to tictactoe.models.Coordinate--><path d="M564.036,1819.002 C543.606,1837.736 522.441,1857.144 502.651,1875.292 " fill="none" id="tictactoe.models.Player-&gt;tictactoe.models.Coordinate" style="stroke: #A80036; stroke-width: 1.0; stroke-dasharray: 7.0,7.0;"/><polygon fill="#A80036" points="498.711,1878.904,508.0483,1875.7711,502.3968,1875.5254,502.6425,1869.8739,498.711,1878.904" style="stroke: #A80036; stroke-width: 1.0;"/><!--MD5=[11b8581993dcdd535fc279569dea0342]
link tictactoe.models.Player to tictactoe.types.Error--><path d="M836.151,1803.01 C848.858,1808.648 861.574,1814.047 874,1819 C957.049,1852.102 990.864,1830.55 1066,1879 C1086.65,1892.319 1104.94,1913.332 1117.64,1930.267 " fill="none" id="tictactoe.models.Player-&gt;tictactoe.types.Error" style="stroke: #A80036; stroke-width: 1.0; stroke-dasharray: 7.0,7.0;"/><polygon fill="#A80036" points="1120.74,1934.477,1118.6071,1924.8619,1117.768,1930.4561,1112.1737,1929.6171,1120.74,1934.477" style="stroke: #A80036; stroke-width: 1.0;"/><!--MD5=[3bd1c2dd1cec6358ea8bd931f95f26e4]
link tictactoe.models.Registry to tictactoe.types.Game--><path d="M811.3252,705.8484 C811.3252,705.8484 848.344,749.92 871,765 C964.69,827.35 1031.57,751.75 1117,825 C1243.16,933.18 1260,1004.31 1260,1170.5 C1260,1170.5 1260,1170.5 1260,1467 C1260,1562.947 1393.82,1827.655 1443.62,1922.84 " fill="none" id="tictactoe.models.Registry-tictactoe.types.Game" style="stroke: #A80036; stroke-width: 1.0;"/><polygon fill="#A80036" points="1449.67,1934.351,1449.0276,1924.5231,1447.3456,1929.9241,1441.9446,1928.2421,1449.67,1934.351" style="stroke: #A80036; stroke-width: 1.0;"/><line style="stroke: #A80036; stroke-width: 1.0;" x1="1447.3456" x2="1443.62" y1="1929.9241" y2="1922.842"/><polygon fill="#A80036" points="804.272,696.14,804.5625,703.3452,811.3252,705.8484,811.0347,698.6431,804.272,696.14" style="stroke: #A80036; stroke-width: 1.0;"/><!--MD5=[a44038fa09e405fa1bcfa610e808471f]
link tictactoe.models.Registry to tictactoe.models.Memento--><path d="M757.3527,708.3099 C757.3527,708.3099 757.59,779.32 757.702,811.32 " fill="none" id="tictactoe.models.Registry-tictactoe.models.Memento" style="stroke: #A80036; stroke-width: 1.0;"/><polygon fill="#A80036" points="757.749,824.73,761.7193,815.7169,757.7325,819.73,753.7193,815.7432,757.749,824.73" style="stroke: #A80036; stroke-width: 1.0;"/><line style="stroke: #A80036; stroke-width: 1.0;" x1="757.7325" x2="757.7035" y1="819.73" y2="811.735"/><polygon fill="#A80036" points="757.3,696.31,753.3264,702.3275,757.3527,708.3099,761.3263,702.2924,757.3,696.31" style="stroke: #A80036; stroke-width: 1.0;"/><!--MD5=[81c635d2699774312e0786044bb2c7df]
link tictactoe.models.Session to tictactoe.models.State--><path d="M858.0382,404.6402 C858.0382,404.6402 914.217,507.85 935.117,546.25 " fill="none" id="tictactoe.models.Session-tictactoe.models.State" style="stroke: #A80036; stroke-width: 1.0;"/><polygon fill="#A80036" points="941.367,557.73,940.5777,547.9128,938.9767,553.3384,933.5511,551.7374,941.367,557.73" style="stroke: #A80036; stroke-width: 1.0;"/><line style="stroke: #A80036; stroke-width: 1.0;" x1="938.9767" x2="935.152" y1="553.3384" y2="546.315"/><polygon fill="#A80036" points="852.302,394.1,851.6567,401.2822,858.0382,404.6402,858.6835,397.458,852.302,394.1" style="stroke: #A80036; stroke-width: 1.0;"/><!--MD5=[16f80b9c05a1fd649d4fdff2813ca191]
link tictactoe.models.Session to tictactoe.models.Game--><path d="M617.1359,403.6622 C617.1359,403.6622 596.811,430.5 587.204,443.19 " fill="none" id="tictactoe.models.Session-tictactoe.models.Game" style="stroke: #A80036; stroke-width: 1.0;"/><polygon fill="#A80036" points="579.169,453.8,587.7898,449.0375,582.1864,449.8131,581.4108,444.2097,579.169,453.8" style="stroke: #A80036; stroke-width: 1.0;"/><line style="stroke: #A80036; stroke-width: 1.0;" x1="582.1864" x2="587.018" y1="449.8131" y2="443.435"/><polygon fill="#A80036" points="624.386,394.1,617.5735,396.4644,617.1359,403.6622,623.9484,401.2978,624.386,394.1" style="stroke: #A80036; stroke-width: 1.0;"/><!--MD5=[8b9a7111cababfb559df54387fd36e41]
link tictactoe.models.Session to tictactoe.models.Registry--><path d="M757,406.1 C757,406.1 757,478.5 757,509.84 " fill="none" id="tictactoe.models.Session-tictactoe.models.Registry" style="stroke: #A80036; stroke-width: 1.0;"/><polygon fill="#A80036" points="757,522.99,761,513.99,757,517.99,753,513.99,757,522.99" style="stroke: #A80036; stroke-width: 1.0;"/><line style="stroke: #A80036; stroke-width: 1.0;" x1="757" x2="757" y1="517.99" y2="509.99"/><polygon fill="#A80036" points="757,394.1,753,400.1,757,406.1,761,400.1,757,394.1" style="stroke: #A80036; stroke-width: 1.0;"/><!--MD5=[1144122d6943599b2215721923ef0ecc]
link tictactoe.models.State to tictactoe.types.StateValue--><path d="M1060.369,650.6005 C1060.369,650.6005 1527,910 1527,1170.5 C1527,1170.5 1527,1170.5 1527,1467 C1527,1637.523 1556.68,1839.747 1569.84,1921.019 " fill="none" id="tictactoe.models.State-tictactoe.types.StateValue" style="stroke: #A80036; stroke-width: 1.0;"/><polygon fill="#A80036" points="1571.99,1934.099,1574.4804,1924.5702,1571.1807,1929.1649,1566.5859,1925.8652,1571.99,1934.099" style="stroke: #A80036; stroke-width: 1.0;"/><line style="stroke: #A80036; stroke-width: 1.0;" x1="1571.1807" x2="1569.89" y1="1929.1649" y2="1921.2705"/><polygon fill="#A80036" points="1049.54,645.43,1053.231,651.6249,1060.369,650.6005,1056.678,644.4056,1049.54,645.43" style="stroke: #A80036; stroke-width: 1.0;"/><!--MD5=[445ca9be6ac7acaf2fbd96fa00e05ee8]
link tictactoe.models.Turn to tictactoe.models.Player--><path d="M664.9723,1571.0243 C664.9723,1571.0243 666.094,1594.466 666.62,1605.464 " fill="none" id="tictactoe.models.Turn-tictactoe.models.Player" style="stroke: #A80036; stroke-width: 1.0;"/><polygon fill="#A80036" points="667.257,1618.79,670.8222,1609.6091,667.018,1613.7957,662.8314,1609.9915,667.257,1618.79" style="stroke: #A80036; stroke-width: 1.0;"/><line style="stroke: #A80036; stroke-width: 1.0;" x1="667.018" x2="666.636" y1="1613.7957" y2="1605.8045"/><polygon fill="#A80036" points="664.4,1559.038,660.6907,1565.2219,664.9723,1571.0243,668.6816,1564.8404,664.4,1559.038" style="stroke: #A80036; stroke-width: 1.0;"/><!--MD5=[12330469da2f496adbeb5a4a367178c4]
@startuml

class  tictactoe.models.Board{
+ {static} EMPTY: char
- coordinates: Coordinate[][]
+ Board()
+ Board(Coordinate[][])
+ getToken(Coordinate): Token
~ move(Coordinate, Coordinate): void
~ put(Coordinate, Token): void
- remove(Coordinate): void
~ isTicTacToe(Token): boolean
- numberOfCoordinates(Coordinate[]): int
~ isCompleted(): boolean
+ isEmpty(Coordinate): boolean
~ isOccupied(Coordinate, Token): boolean
- checkNumberOfCoordinates(Coordinate[]): boolean
- checkDirectionOfFirstCoordinates(Coordinate[]): boolean
- checkDirectionOfAllCoordinates(Coordinate[]): boolean
~ copy(): Board
}
tictactoe.models.Board *-down-> tictactoe.models.Coordinate
tictactoe.models.Board ..> tictactoe.types.Token
tictactoe.models.Board ..> tictactoe.models.Turn
tictactoe.models.Board ..> utils.Direction

class  tictactoe.models.Coordinate{
+ {static} DIMENSION: char
+ Coordinate()
+ Coordinate(int, int)
~ inDirection(Coordinate): boolean
~ getDirection(Coordinate): Direction
- inInverseDiagonal(): boolean
+ isValid(): boolean
+ random(): void
}
utils.Coordinate <|-down- tictactoe.models.Coordinate
tictactoe.models.Coordinate ..> utils.Direction
tictactoe.models.Coordinate ..> java.util.Random

class  tictactoe.models.Game{
- board: Board
- players: Player[][]
- turn: Turn
+ Game()
+ createPlayers(int): void
~ createMemento(): Memento
~ set(Memento): void
- createCopyOfPlayers(Player[], Board): Player[]
+ isBoardComplete(): boolean
+ putTokenPlayerFromTurn(Coordinate): void
+ moveTokenPlayerFromTurn(Coordinate[]): void
+ getTypeOfTokenPlayerFromTurn(): PlayerType
+ getErrorsPutCoordinate(Coordinate): Error
+ getErrorsMoveOriginCoordinate(Coordinate): Error
+ getErrorsMoveTargetCoordinate(Coordinate, Coordinate): Error
+ getToken(int, int): Token
+ changeTurn(): void
+ isTicTacToe(): boolean
+ getOtherValueFromTurn(): int
}
tictactoe.models.Game *-down-> tictactoe.models.Board
tictactoe.models.Game *-down-> tictactoe.models.Player
tictactoe.models.Game *-down-> tictactoe.models.Turn
tictactoe.models.Game ..> tictactoe.types.Token
tictactoe.models.Game ..> tictactoe.types.PlayerType
tictactoe.models.Game ..> tictactoe.models.Memento

class  tictactoe.models.Memento{
- board: Board
- players: Player[][]
- turn: Turn
+ Memento(Board, Player[], Turn)
+ getBoard(): Board
~ getPlayers(): Player[]
~ getTurn(): Turn
}
tictactoe.models.Memento *-down-> tictactoe.models.Board
tictactoe.models.Memento *-down-> tictactoe.models.Player
tictactoe.models.Memento *-down-> tictactoe.models.Turn

class  tictactoe.models.Player{
- token: Token
- board: Board
- type: PlayerType
+ Player(Token, Board, PlayerType)
+ getType(): PlayerType
~ getToken(): Token
~ put(Coordinate): void
~ move(Coordinate[]): void
+ getErrorsPutCoordinate(Coordinate): Error
+ getErrorsMoveOriginCoordinate(Coordinate): Error
+ getErrorsMoveTargetCoordinate(Coordinate, Coordinate): Error
}
tictactoe.models.Player *-down-> tictactoe.types.Token
tictactoe.models.Player *-down-> tictactoe.models.Board
tictactoe.models.Player *-down-> tictactoe.types.PlayerType
tictactoe.models.Player ..> tictactoe.models.Coordinate
tictactoe.models.Player ..> tictactoe.types.Error

class  tictactoe.models.Registry{
- mementoList: ArrayList<Memento>
- game: Game
- firstPrevious: int
~ Registry(Game)
~ registry(): void
~ redo(Game): void
~ undoable(): boolean
~ redoable(): boolean
~ reset(): void
}
tictactoe.models.Registry *-down-> tictactoe.types.Game
tictactoe.models.Registry *-down-> tictactoe.models.Memento

class  tictactoe.models.Session{
- state: State
- game: Game
- registry: Registry
+ Session()
+ next(): void
+ undoable(): boolean
+ redoable(): boolean
+ undo(): void
+ redo(): void
+ createPlayers(int): void
+ getTypeOfTokenPlayerFromTurn(): PlayerType
+ getErrorsPutCoordinate(Coordinate): Error
+ getErrorsMoveOriginCoordinate(Coordinate): Error
+ getErrorsMoveTargetCoordinate(Coordinate, Coordinate): Error
+ isBoardComplete(): boolean
+ putTokenPlayerFromTurn(Coordinate): void
+ moveTokenPlayerFromTurn(Coordinate[]): void
+ changeTurn(): void
+ getToken(int, int): Token
+ isTicTacToe(): boolean
+ getOtherValueFromTurn(): int
+ getValueState(): StateValue
}
tictactoe.models.Session *-down-> tictactoe.models.State
tictactoe.models.Session *-down-> tictactoe.models.Game
tictactoe.models.Session *-down-> tictactoe.models.Registry

class  tictactoe.models.State{
- stateValue: StateValue
+ State()
+ next(): void
+ getValueState(): StateValue
}
tictactoe.models.State *-down-> tictactoe.types.StateValue

class  tictactoe.models.Turn{
+ {static} PLAYERS: int
- value: int
- players: Player[]
+ Turn(Player[])
+ Turn(Player[], int)
~ change(): void
~ getPlayer(): Player
~ getOtherValue(): int
~ getOtherPlayer(): Player
~ copy(Player[]): Turn
}
tictactoe.models.Turn *-down-> tictactoe.models.Player

@enduml

PlantUML version 1.2020.15(Sun Jun 28 13:39:45 CEST 2020)
(GPL source distribution)
Java Runtime: Java(TM) SE Runtime Environment
JVM: Java HotSpot(TM) 64-Bit Server VM
Default Encoding: windows-1252
Language: es
Country: ES
--></g></svg>