<?xml version="1.0" encoding="UTF-8" standalone="no"?><svg xmlns="http://www.w3.org/2000/svg" xmlns:xlink="http://www.w3.org/1999/xlink" contentScriptType="application/ecmascript" contentStyleType="text/css" height="448px" preserveAspectRatio="none" style="width:982px;height:448px;" version="1.1" viewBox="0 0 982 448" width="982px" zoomAndPan="magnify"><defs><filter height="300%" id="fdf1ah577niri" width="300%" x="-1" y="-1"><feGaussianBlur result="blurOut" stdDeviation="2.0"/><feColorMatrix in="blurOut" result="blurOut2" type="matrix" values="0 0 0 0 0 0 0 0 0 0 0 0 0 0 0 0 0 0 .4 0"/><feOffset dx="4.0" dy="4.0" in="blurOut2" result="blurOut3"/><feBlend in="SourceGraphic" in2="blurOut3" mode="normal"/></filter></defs><g><!--MD5=[f4e83a21a957c5b9ba9691e6361db36b]
cluster tictactoe.views--><polygon fill="#FFFFFF" filter="url(#fdf1ah577niri)" points="16,6,128,6,135,29.6094,778,29.6094,778,436,16,436,16,6" style="stroke: #000000; stroke-width: 1.5;"/><line style="stroke: #000000; stroke-width: 1.5;" x1="16" x2="135" y1="29.6094" y2="29.6094"/><text fill="#000000" font-family="sans-serif" font-size="14" font-weight="bold" lengthAdjust="spacingAndGlyphs" textLength="106" x="20" y="22.5332">tictactoe.views</text><!--MD5=[ee7e9a007a7c4d40c0679a27f272732d]
cluster tictactoe.controllers--><polygon fill="#FFFFFF" filter="url(#fdf1ah577niri)" points="802,315,950,315,957,338.6094,960,338.6094,960,415,802,415,802,315" style="stroke: #000000; stroke-width: 1.5;"/><line style="stroke: #000000; stroke-width: 1.5;" x1="802" x2="957" y1="338.6094" y2="338.6094"/><text fill="#000000" font-family="sans-serif" font-size="14" font-weight="bold" lengthAdjust="spacingAndGlyphs" textLength="142" x="806" y="331.5332">tictactoe.controllers</text><!--MD5=[17799e03bfee0ccb3aa03b93da9c26d6]
class tictactoe.views.ErrorView--><rect fill="#FEFECE" filter="url(#fdf1ah577niri)" height="89.5078" id="tictactoe.views.ErrorView" style="stroke: #A80036; stroke-width: 1.5;" width="123" x="32.5" y="111"/><ellipse cx="64.6" cy="127" fill="#ADD1B2" rx="11" ry="11" style="stroke: #A80036; stroke-width: 1.0;"/><path d="M67.3656,122.875 Q67.5219,122.6563 67.7094,122.5469 Q67.8969,122.4375 68.1156,122.4375 Q68.4906,122.4375 68.725,122.7031 Q68.9594,122.9531 68.9594,123.5625 L68.9594,125.0156 Q68.9594,125.625 68.725,125.8906 Q68.4906,126.1563 68.1156,126.1563 Q67.7719,126.1563 67.5688,125.9531 Q67.3656,125.7656 67.2563,125.25 Q67.2094,124.8906 67.0219,124.7031 Q66.6938,124.3281 66.0844,124.1094 Q65.475,123.8906 64.85,123.8906 Q64.0844,123.8906 63.4437,124.2188 Q62.8187,124.5469 62.3187,125.2969 Q61.8344,126.0469 61.8344,127.0781 L61.8344,128.1719 Q61.8344,129.4063 62.725,130.2344 Q63.6156,131.0469 65.2094,131.0469 Q66.1469,131.0469 66.8031,130.7969 Q67.1938,130.6406 67.6156,130.2031 Q67.8813,129.9375 68.0219,129.8594 Q68.1781,129.7813 68.3813,129.7813 Q68.7094,129.7813 68.9594,130.0469 Q69.225,130.2969 69.225,130.6406 Q69.225,130.9844 68.8813,131.3906 Q68.3813,131.9688 67.5844,132.2969 Q66.5063,132.75 65.2094,132.75 Q63.6937,132.75 62.4906,132.125 Q61.5062,131.625 60.8187,130.5625 Q60.1312,129.4844 60.1312,128.2031 L60.1312,127.0469 Q60.1312,125.7188 60.7406,124.5781 Q61.3656,123.4219 62.4594,122.8125 Q63.5531,122.1875 64.7875,122.1875 Q65.5219,122.1875 66.1625,122.3594 Q66.8188,122.5156 67.3656,122.875 Z "/><text fill="#000000" font-family="sans-serif" font-size="12" lengthAdjust="spacingAndGlyphs" textLength="53" x="82.4" y="131.9102">ErrorView</text><line style="stroke: #A80036; stroke-width: 1.5;" x1="33.5" x2="154.5" y1="143" y2="143"/><ellipse cx="43.5" cy="154" fill="none" rx="3" ry="3" style="stroke: #038048; stroke-width: 1.0;"/><text fill="#000000" font-family="sans-serif" font-size="11" lengthAdjust="spacingAndGlyphs" text-decoration="underline" textLength="97" x="52.5" y="158.4189">MESSAGES: String[]</text><polygon fill="none" points="43.5,162.8359,47.5,166.8359,43.5,170.8359,39.5,166.8359" style="stroke: #B38D22; stroke-width: 1.0;"/><text fill="#000000" font-family="sans-serif" font-size="11" lengthAdjust="spacingAndGlyphs" textLength="54" x="52.5" y="172.2549">error: Error</text><line style="stroke: #A80036; stroke-width: 1.5;" x1="33.5" x2="154.5" y1="178.6719" y2="178.6719"/><ellipse cx="43.5" cy="189.6719" fill="#84BE84" rx="3" ry="3" style="stroke: #038048; stroke-width: 1.0;"/><text fill="#000000" font-family="sans-serif" font-size="11" lengthAdjust="spacingAndGlyphs" textLength="82" x="52.5" y="194.0908">ErrorView(Error)</text><!--MD5=[ac4b0e0875a820e87662d988d53b2072]
class tictactoe.views.MessageView--><rect fill="#FEFECE" filter="url(#fdf1ah577niri)" height="227.8672" id="tictactoe.views.MessageView" style="stroke: #A80036; stroke-width: 1.5;" width="237" x="524.5" y="42"/><ellipse cx="600.25" cy="58" fill="#EB937F" rx="11" ry="11" style="stroke: #A80036; stroke-width: 1.0;"/><path d="M599.1094,58.7969 L599.1094,61.2969 L603.4375,61.2969 L603.4375,60.375 Q603.4375,59.7656 603.6719,59.5 Q603.9219,59.2344 604.2969,59.2344 Q604.6719,59.2344 604.9063,59.5 Q605.1406,59.7656 605.1406,60.375 L605.1406,63 L597.1406,63 Q596.5156,63 596.25,62.7656 Q596,62.5313 596,62.1406 Q596,61.7656 596.2656,61.5313 Q596.5313,61.2969 597.1406,61.2969 L597.4063,61.2969 L597.4063,54.6406 L597.1406,54.6406 Q596.5156,54.6406 596.25,54.4063 Q596,54.1719 596,53.7813 Q596,53.4063 596.25,53.1719 Q596.5156,52.9375 597.1406,52.9375 L604.7656,52.9375 L604.7656,55.5313 Q604.7656,56.1406 604.5313,56.4063 Q604.3125,56.6563 603.9219,56.6563 Q603.5469,56.6563 603.3125,56.4063 Q603.0781,56.1406 603.0781,55.5313 L603.0781,54.6406 L599.1094,54.6406 L599.1094,57.0938 L600.5938,57.0938 Q600.5938,56.4375 600.7188,56.25 Q600.9844,55.8438 601.4531,55.8438 Q601.8281,55.8438 602.0625,56.1094 Q602.2969,56.3594 602.2969,56.9688 L602.2969,58.9375 Q602.2969,59.4844 602.1719,59.6719 Q601.9063,60.0625 601.4531,60.0625 Q600.9844,60.0625 600.7188,59.6563 Q600.5938,59.4688 600.5938,58.7969 L599.1094,58.7969 Z "/><text fill="#000000" font-family="sans-serif" font-size="12" lengthAdjust="spacingAndGlyphs" textLength="77" x="620.75" y="62.9102">MessageView</text><line style="stroke: #A80036; stroke-width: 1.5;" x1="525.5" x2="760.5" y1="74" y2="74"/><ellipse cx="535.5" cy="85" fill="none" rx="3" ry="3" style="stroke: #038048; stroke-width: 1.0;"/><text fill="#000000" font-family="sans-serif" font-size="11" lengthAdjust="spacingAndGlyphs" textLength="110" x="544.5" y="89.4189">EMPTY: MessageView</text><ellipse cx="535.5" cy="98.8359" fill="none" rx="3" ry="3" style="stroke: #038048; stroke-width: 1.0;"/><text fill="#000000" font-family="sans-serif" font-size="11" lengthAdjust="spacingAndGlyphs" textLength="139" x="544.5" y="103.2549">SEPARATOR: MessageView</text><ellipse cx="535.5" cy="112.6719" fill="none" rx="3" ry="3" style="stroke: #038048; stroke-width: 1.0;"/><text fill="#000000" font-family="sans-serif" font-size="11" lengthAdjust="spacingAndGlyphs" textLength="211" x="544.5" y="117.0908">VERTICAL_LINE_CENTERED: MessageView</text><ellipse cx="535.5" cy="126.5078" fill="none" rx="3" ry="3" style="stroke: #038048; stroke-width: 1.0;"/><text fill="#000000" font-family="sans-serif" font-size="11" lengthAdjust="spacingAndGlyphs" textLength="183" x="544.5" y="130.9268">VERTICAL_LINE_LEFT: MessageView</text><ellipse cx="535.5" cy="140.3438" fill="none" rx="3" ry="3" style="stroke: #038048; stroke-width: 1.0;"/><text fill="#000000" font-family="sans-serif" font-size="11" lengthAdjust="spacingAndGlyphs" textLength="142" x="544.5" y="144.7627">PLAYER_WIN: MessageView</text><ellipse cx="535.5" cy="154.1797" fill="none" rx="3" ry="3" style="stroke: #038048; stroke-width: 1.0;"/><text fill="#000000" font-family="sans-serif" font-size="11" lengthAdjust="spacingAndGlyphs" textLength="146" x="544.5" y="158.5986">START_GAME: MessageView</text><ellipse cx="535.5" cy="168.0156" fill="none" rx="3" ry="3" style="stroke: #038048; stroke-width: 1.0;"/><text fill="#000000" font-family="sans-serif" font-size="11" lengthAdjust="spacingAndGlyphs" textLength="166" x="544.5" y="172.4346">CHOOSE_PLAYER: MessageView</text><ellipse cx="535.5" cy="181.8516" fill="none" rx="3" ry="3" style="stroke: #038048; stroke-width: 1.0;"/><text fill="#000000" font-family="sans-serif" font-size="11" lengthAdjust="spacingAndGlyphs" textLength="135" x="544.5" y="186.2705">READ_ROW: MessageView</text><ellipse cx="535.5" cy="195.6875" fill="none" rx="3" ry="3" style="stroke: #038048; stroke-width: 1.0;"/><text fill="#000000" font-family="sans-serif" font-size="11" lengthAdjust="spacingAndGlyphs" textLength="153" x="544.5" y="200.1064">READ_COLUMN: MessageView</text><ellipse cx="535.5" cy="209.5234" fill="none" rx="3" ry="3" style="stroke: #038048; stroke-width: 1.0;"/><text fill="#000000" font-family="sans-serif" font-size="11" lengthAdjust="spacingAndGlyphs" textLength="111" x="544.5" y="213.9424">ERROR: MessageView</text><rect fill="none" height="6" style="stroke: #C82930; stroke-width: 1.0;" width="6" x="532.5" y="220.3594"/><text fill="#000000" font-family="sans-serif" font-size="11" lengthAdjust="spacingAndGlyphs" textLength="78" x="544.5" y="227.7783">message: String</text><line style="stroke: #A80036; stroke-width: 1.5;" x1="525.5" x2="760.5" y1="234.1953" y2="234.1953"/><rect fill="#F24D5C" height="6" style="stroke: #C82930; stroke-width: 1.0;" width="6" x="532.5" y="242.1953"/><text fill="#000000" font-family="sans-serif" font-size="11" lengthAdjust="spacingAndGlyphs" textLength="106" x="544.5" y="249.6143">MessageView(String)</text><ellipse cx="535.5" cy="259.0313" fill="#84BE84" rx="3" ry="3" style="stroke: #038048; stroke-width: 1.0;"/><text fill="#000000" font-family="sans-serif" font-size="11" lengthAdjust="spacingAndGlyphs" textLength="101" x="544.5" y="263.4502">getMessage(): String</text><!--MD5=[2ae15d20e7f22fd333327d3852982126]
class tictactoe.views.PlayerView--><rect fill="#FEFECE" filter="url(#fdf1ah577niri)" height="144.8516" id="tictactoe.views.PlayerView" style="stroke: #A80036; stroke-width: 1.5;" width="298" x="191" y="83.5"/><ellipse cx="305.75" cy="99.5" fill="#ADD1B2" rx="11" ry="11" style="stroke: #A80036; stroke-width: 1.0;"/><path d="M308.5156,95.375 Q308.6719,95.1563 308.8594,95.0469 Q309.0469,94.9375 309.2656,94.9375 Q309.6406,94.9375 309.875,95.2031 Q310.1094,95.4531 310.1094,96.0625 L310.1094,97.5156 Q310.1094,98.125 309.875,98.3906 Q309.6406,98.6563 309.2656,98.6563 Q308.9219,98.6563 308.7188,98.4531 Q308.5156,98.2656 308.4063,97.75 Q308.3594,97.3906 308.1719,97.2031 Q307.8438,96.8281 307.2344,96.6094 Q306.625,96.3906 306,96.3906 Q305.2344,96.3906 304.5938,96.7188 Q303.9688,97.0469 303.4688,97.7969 Q302.9844,98.5469 302.9844,99.5781 L302.9844,100.6719 Q302.9844,101.9063 303.875,102.7344 Q304.7656,103.5469 306.3594,103.5469 Q307.2969,103.5469 307.9531,103.2969 Q308.3438,103.1406 308.7656,102.7031 Q309.0313,102.4375 309.1719,102.3594 Q309.3281,102.2813 309.5313,102.2813 Q309.8594,102.2813 310.1094,102.5469 Q310.375,102.7969 310.375,103.1406 Q310.375,103.4844 310.0313,103.8906 Q309.5313,104.4688 308.7344,104.7969 Q307.6563,105.25 306.3594,105.25 Q304.8438,105.25 303.6406,104.625 Q302.6563,104.125 301.9688,103.0625 Q301.2813,101.9844 301.2813,100.7031 L301.2813,99.5469 Q301.2813,98.2188 301.8906,97.0781 Q302.5156,95.9219 303.6094,95.3125 Q304.7031,94.6875 305.9375,94.6875 Q306.6719,94.6875 307.3125,94.8594 Q307.9688,95.0156 308.5156,95.375 Z "/><text fill="#000000" font-family="sans-serif" font-size="12" lengthAdjust="spacingAndGlyphs" textLength="60" x="326.25" y="104.4102">PlayerView</text><line style="stroke: #A80036; stroke-width: 1.5;" x1="192" x2="488" y1="115.5" y2="115.5"/><polygon fill="none" points="202,121.5,206,125.5,202,129.5,198,125.5" style="stroke: #B38D22; stroke-width: 1.0;"/><text fill="#000000" font-family="sans-serif" font-size="11" lengthAdjust="spacingAndGlyphs" textLength="138" x="211" y="130.9189">playController: PlayController</text><line style="stroke: #A80036; stroke-width: 1.5;" x1="192" x2="488" y1="137.3359" y2="137.3359"/><ellipse cx="202" cy="148.3359" fill="#84BE84" rx="3" ry="3" style="stroke: #038048; stroke-width: 1.0;"/><text fill="#000000" font-family="sans-serif" font-size="11" lengthAdjust="spacingAndGlyphs" textLength="130" x="211" y="152.7549">PlayerView(PlayController)</text><ellipse cx="202" cy="162.1719" fill="#84BE84" rx="3" ry="3" style="stroke: #038048; stroke-width: 1.0;"/><text fill="#000000" font-family="sans-serif" font-size="11" font-style="italic" lengthAdjust="spacingAndGlyphs" textLength="137" x="211" y="166.5908">readCoordinateToPut(): int[]</text><ellipse cx="202" cy="176.0078" fill="#84BE84" rx="3" ry="3" style="stroke: #038048; stroke-width: 1.0;"/><text fill="#000000" font-family="sans-serif" font-size="11" font-style="italic" lengthAdjust="spacingAndGlyphs" textLength="159" x="211" y="180.4268">readCoordinatesToMove(): int[][]</text><ellipse cx="202" cy="189.8438" fill="#84BE84" rx="3" ry="3" style="stroke: #038048; stroke-width: 1.0;"/><text fill="#000000" font-family="sans-serif" font-size="11" lengthAdjust="spacingAndGlyphs" textLength="196" x="211" y="194.2627">controlErrorsPutCoordinate(int, int): Error</text><ellipse cx="202" cy="203.6797" fill="#84BE84" rx="3" ry="3" style="stroke: #038048; stroke-width: 1.0;"/><text fill="#000000" font-family="sans-serif" font-size="11" lengthAdjust="spacingAndGlyphs" textLength="235" x="211" y="208.0986">controlErrorsMoveOriginCoordinate(int, int): Error</text><ellipse cx="202" cy="217.5156" fill="#84BE84" rx="3" ry="3" style="stroke: #038048; stroke-width: 1.0;"/><text fill="#000000" font-family="sans-serif" font-size="11" lengthAdjust="spacingAndGlyphs" textLength="272" x="211" y="221.9346">controlErrorsMoveTargetCoordinate(int, int, int, int): Error</text><!--MD5=[24b5a9b67986ee811680be72c33ee9c1]
class tictactoe.views.TokenView--><rect fill="#FEFECE" filter="url(#fdf1ah577niri)" height="89.5078" id="tictactoe.views.TokenView" style="stroke: #A80036; stroke-width: 1.5;" width="118" x="35" y="330"/><ellipse cx="61.7" cy="346" fill="#ADD1B2" rx="11" ry="11" style="stroke: #A80036; stroke-width: 1.0;"/><path d="M64.4656,341.875 Q64.6219,341.6563 64.8094,341.5469 Q64.9969,341.4375 65.2156,341.4375 Q65.5906,341.4375 65.825,341.7031 Q66.0594,341.9531 66.0594,342.5625 L66.0594,344.0156 Q66.0594,344.625 65.825,344.8906 Q65.5906,345.1563 65.2156,345.1563 Q64.8719,345.1563 64.6688,344.9531 Q64.4656,344.7656 64.3563,344.25 Q64.3094,343.8906 64.1219,343.7031 Q63.7938,343.3281 63.1844,343.1094 Q62.575,342.8906 61.95,342.8906 Q61.1844,342.8906 60.5438,343.2188 Q59.9188,343.5469 59.4188,344.2969 Q58.9344,345.0469 58.9344,346.0781 L58.9344,347.1719 Q58.9344,348.4063 59.825,349.2344 Q60.7156,350.0469 62.3094,350.0469 Q63.2469,350.0469 63.9031,349.7969 Q64.2938,349.6406 64.7156,349.2031 Q64.9813,348.9375 65.1219,348.8594 Q65.2781,348.7813 65.4813,348.7813 Q65.8094,348.7813 66.0594,349.0469 Q66.325,349.2969 66.325,349.6406 Q66.325,349.9844 65.9813,350.3906 Q65.4813,350.9688 64.6844,351.2969 Q63.6063,351.75 62.3094,351.75 Q60.7938,351.75 59.5906,351.125 Q58.6063,350.625 57.9188,349.5625 Q57.2313,348.4844 57.2313,347.2031 L57.2313,346.0469 Q57.2313,344.7188 57.8406,343.5781 Q58.4656,342.4219 59.5594,341.8125 Q60.6531,341.1875 61.8875,341.1875 Q62.6219,341.1875 63.2625,341.3594 Q63.9188,341.5156 64.4656,341.875 Z "/><text fill="#000000" font-family="sans-serif" font-size="12" lengthAdjust="spacingAndGlyphs" textLength="60" x="78.3" y="350.9102">TokenView</text><line style="stroke: #A80036; stroke-width: 1.5;" x1="36" x2="152" y1="362" y2="362"/><rect fill="none" height="6" style="stroke: #C82930; stroke-width: 1.0;" width="6" x="43" y="370"/><text fill="#000000" font-family="sans-serif" font-size="11" lengthAdjust="spacingAndGlyphs" textLength="61" x="55" y="377.4189">token: Token</text><line style="stroke: #A80036; stroke-width: 1.5;" x1="36" x2="152" y1="383.8359" y2="383.8359"/><ellipse cx="46" cy="394.8359" fill="#84BE84" rx="3" ry="3" style="stroke: #038048; stroke-width: 1.0;"/><text fill="#000000" font-family="sans-serif" font-size="11" lengthAdjust="spacingAndGlyphs" textLength="92" x="55" y="399.2549">TokenView(Token)</text><ellipse cx="46" cy="408.6719" fill="#84BE84" rx="3" ry="3" style="stroke: #038048; stroke-width: 1.0;"/><text fill="#000000" font-family="sans-serif" font-size="11" lengthAdjust="spacingAndGlyphs" textLength="80" x="55" y="413.0908">getToken(): char</text><!--MD5=[015754420c4cdd9bacda884b3fa8c6ca]
class tictactoe.views.View--><rect fill="#FEFECE" filter="url(#fdf1ah577niri)" height="61.8359" id="tictactoe.views.View" style="stroke: #A80036; stroke-width: 1.5;" width="146" x="188" y="344"/><ellipse cx="243.75" cy="360" fill="#ADD1B2" rx="11" ry="11" style="stroke: #A80036; stroke-width: 1.0;"/><path d="M246.5156,355.875 Q246.6719,355.6563 246.8594,355.5469 Q247.0469,355.4375 247.2656,355.4375 Q247.6406,355.4375 247.875,355.7031 Q248.1094,355.9531 248.1094,356.5625 L248.1094,358.0156 Q248.1094,358.625 247.875,358.8906 Q247.6406,359.1563 247.2656,359.1563 Q246.9219,359.1563 246.7188,358.9531 Q246.5156,358.7656 246.4063,358.25 Q246.3594,357.8906 246.1719,357.7031 Q245.8438,357.3281 245.2344,357.1094 Q244.625,356.8906 244,356.8906 Q243.2344,356.8906 242.5938,357.2188 Q241.9688,357.5469 241.4688,358.2969 Q240.9844,359.0469 240.9844,360.0781 L240.9844,361.1719 Q240.9844,362.4063 241.875,363.2344 Q242.7656,364.0469 244.3594,364.0469 Q245.2969,364.0469 245.9531,363.7969 Q246.3438,363.6406 246.7656,363.2031 Q247.0313,362.9375 247.1719,362.8594 Q247.3281,362.7813 247.5313,362.7813 Q247.8594,362.7813 248.1094,363.0469 Q248.375,363.2969 248.375,363.6406 Q248.375,363.9844 248.0313,364.3906 Q247.5313,364.9688 246.7344,365.2969 Q245.6563,365.75 244.3594,365.75 Q242.8438,365.75 241.6406,365.125 Q240.6563,364.625 239.9688,363.5625 Q239.2813,362.4844 239.2813,361.2031 L239.2813,360.0469 Q239.2813,358.7188 239.8906,357.5781 Q240.5156,356.4219 241.6094,355.8125 Q242.7031,355.1875 243.9375,355.1875 Q244.6719,355.1875 245.3125,355.3594 Q245.9688,355.5156 246.5156,355.875 Z "/><text fill="#000000" font-family="sans-serif" font-size="12" lengthAdjust="spacingAndGlyphs" textLength="26" x="264.25" y="364.9102">View</text><line style="stroke: #A80036; stroke-width: 1.5;" x1="189" x2="333" y1="376" y2="376"/><line style="stroke: #A80036; stroke-width: 1.5;" x1="189" x2="333" y1="384" y2="384"/><ellipse cx="199" cy="395" fill="#84BE84" rx="3" ry="3" style="stroke: #038048; stroke-width: 1.0;"/><text fill="#000000" font-family="sans-serif" font-size="11" font-style="italic" lengthAdjust="spacingAndGlyphs" textLength="120" x="208" y="399.4189">interact(Controller): void</text><!--MD5=[b574e60c06c50037ff1b014277a67d62]
class tictactoe.controllers.PlayController--><rect fill="#FEFECE" filter="url(#fdf1ah577niri)" height="48" id="tictactoe.controllers.PlayController" style="stroke: #A80036; stroke-width: 1.5;" width="109" x="818.5" y="351"/><ellipse cx="833.5" cy="367" fill="#ADD1B2" rx="11" ry="11" style="stroke: #A80036; stroke-width: 1.0;"/><path d="M836.2656,362.875 Q836.4219,362.6563 836.6094,362.5469 Q836.7969,362.4375 837.0156,362.4375 Q837.3906,362.4375 837.625,362.7031 Q837.8594,362.9531 837.8594,363.5625 L837.8594,365.0156 Q837.8594,365.625 837.625,365.8906 Q837.3906,366.1563 837.0156,366.1563 Q836.6719,366.1563 836.4688,365.9531 Q836.2656,365.7656 836.1563,365.25 Q836.1094,364.8906 835.9219,364.7031 Q835.5938,364.3281 834.9844,364.1094 Q834.375,363.8906 833.75,363.8906 Q832.9844,363.8906 832.3438,364.2188 Q831.7188,364.5469 831.2188,365.2969 Q830.7344,366.0469 830.7344,367.0781 L830.7344,368.1719 Q830.7344,369.4063 831.625,370.2344 Q832.5156,371.0469 834.1094,371.0469 Q835.0469,371.0469 835.7031,370.7969 Q836.0938,370.6406 836.5156,370.2031 Q836.7813,369.9375 836.9219,369.8594 Q837.0781,369.7813 837.2813,369.7813 Q837.6094,369.7813 837.8594,370.0469 Q838.125,370.2969 838.125,370.6406 Q838.125,370.9844 837.7813,371.3906 Q837.2813,371.9688 836.4844,372.2969 Q835.4063,372.75 834.1094,372.75 Q832.5938,372.75 831.3906,372.125 Q830.4063,371.625 829.7188,370.5625 Q829.0313,369.4844 829.0313,368.2031 L829.0313,367.0469 Q829.0313,365.7188 829.6406,364.5781 Q830.2656,363.4219 831.3594,362.8125 Q832.4531,362.1875 833.6875,362.1875 Q834.4219,362.1875 835.0625,362.3594 Q835.7188,362.5156 836.2656,362.875 Z "/><text fill="#000000" font-family="sans-serif" font-size="12" lengthAdjust="spacingAndGlyphs" textLength="77" x="847.5" y="371.9102">PlayController</text><line style="stroke: #A80036; stroke-width: 1.5;" x1="819.5" x2="926.5" y1="383" y2="383"/><line style="stroke: #A80036; stroke-width: 1.5;" x1="819.5" x2="926.5" y1="391" y2="391"/><!--MD5=[cc7593614f05ee4a6cb72794fd99c0f8]
link tictactoe.views.PlayerView to tictactoe.controllers.PlayController--><path d="M429.855,228.728 C453.745,244.653 480.352,259.808 507,270 C620.541,313.424 664.884,262.479 778,307 C802.094,316.483 825.898,333.289 843.652,347.696 " fill="none" id="tictactoe.views.PlayerView-&gt;tictactoe.controllers.PlayController" style="stroke: #A80036; stroke-width: 1.0; stroke-dasharray: 7.0,7.0;"/><polygon fill="#A80036" points="847.574,350.919,843.1601,342.1146,843.711,347.7446,838.081,348.2955,847.574,350.919" style="stroke: #A80036; stroke-width: 1.0;"/><!--MD5=[850cef324a7f3601308ed4cd9ba4a58a]
link tictactoe.views.ErrorView to tictactoe.views.MessageView--><!--MD5=[75b33d7c5289721838c9ed88386c3b56]
link tictactoe.views.ErrorView to tictactoe.views.TokenView--><!--MD5=[c75b88dab72d47de6ac57e53cf597419]
link tictactoe.views.TokenView to tictactoe.views.View--><!--MD5=[0e9c3c1c022b61ad9c026b6ac4cc26cd]
@startuml

class  tictactoe.views.ErrorView{
+ {static} MESSAGES: String[]
# error: Error
+ ErrorView(Error)
}

enum  tictactoe.views.MessageView{
+ EMPTY: MessageView
+ SEPARATOR: MessageView
+ VERTICAL_LINE_CENTERED: MessageView
+ VERTICAL_LINE_LEFT: MessageView
+	PLAYER_WIN: MessageView
+	START_GAME: MessageView
+	CHOOSE_PLAYER: MessageView
+	READ_ROW: MessageView
+	READ_COLUMN: MessageView
+	ERROR: MessageView
- message: String
- MessageView(String)
+ getMessage(): String
}

class  tictactoe.views.PlayerView{
# playController: PlayController
+ PlayerView(PlayController)
+ {abstract} readCoordinateToPut(): int[]
+ {abstract} readCoordinatesToMove(): int[][]
+ controlErrorsPutCoordinate(int, int): Error
+ controlErrorsMoveOriginCoordinate(int, int): Error
+ controlErrorsMoveTargetCoordinate(int, int, int, int): Error
}
tictactoe.views.PlayerView ..> tictactoe.controllers.PlayController

class tictactoe.views.TokenView{
- token: Token
+ TokenView(Token)
+ getToken(): char
}

class  tictactoe.views.View{
+ {abstract} interact(Controller): void
}

@enduml

PlantUML version 1.2020.15(Sun Jun 28 13:39:45 CEST 2020)
(GPL source distribution)
Java Runtime: Java(TM) SE Runtime Environment
JVM: Java HotSpot(TM) 64-Bit Server VM
Default Encoding: windows-1252
Language: es
Country: ES
--></g></svg>