<?xml version="1.0" encoding="UTF-8" standalone="no"?><svg xmlns="http://www.w3.org/2000/svg" xmlns:xlink="http://www.w3.org/1999/xlink" contentScriptType="application/ecmascript" contentStyleType="text/css" height="323px" preserveAspectRatio="none" style="width:789px;height:323px;" version="1.1" viewBox="0 0 789 323" width="789px" zoomAndPan="magnify"><defs><filter height="300%" id="fhe38moljo3h5" width="300%" x="-1" y="-1"><feGaussianBlur result="blurOut" stdDeviation="2.0"/><feColorMatrix in="blurOut" result="blurOut2" type="matrix" values="0 0 0 0 0 0 0 0 0 0 0 0 0 0 0 0 0 0 .4 0"/><feOffset dx="4.0" dy="4.0" in="blurOut2" result="blurOut3"/><feBlend in="SourceGraphic" in2="blurOut3" mode="normal"/></filter></defs><g><!--MD5=[807bc46d8103c809ff053af9e140e1f5]
cluster tictactoe--><polygon fill="#FFFFFF" filter="url(#fhe38moljo3h5)" points="16,6,83,6,90,29.6094,382,29.6094,382,311,16,311,16,6" style="stroke: #000000; stroke-width: 1.5;"/><line style="stroke: #000000; stroke-width: 1.5;" x1="16" x2="90" y1="29.6094" y2="29.6094"/><text fill="#000000" font-family="sans-serif" font-size="14" font-weight="bold" lengthAdjust="spacingAndGlyphs" textLength="61" x="20" y="22.5332">tictactoe</text><!--MD5=[f4e83a21a957c5b9ba9691e6361db36b]
cluster tictactoe.views--><polygon fill="#FFFFFF" filter="url(#fhe38moljo3h5)" points="406,197,518,197,525,220.6094,528,220.6094,528,297,406,297,406,197" style="stroke: #000000; stroke-width: 1.5;"/><line style="stroke: #000000; stroke-width: 1.5;" x1="406" x2="525" y1="220.6094" y2="220.6094"/><text fill="#000000" font-family="sans-serif" font-size="14" font-weight="bold" lengthAdjust="spacingAndGlyphs" textLength="106" x="410" y="213.5332">tictactoe.views</text><!--MD5=[ee7e9a007a7c4d40c0679a27f272732d]
cluster tictactoe.controllers--><polygon fill="#FFFFFF" filter="url(#fhe38moljo3h5)" points="552,197,700,197,707,220.6094,767,220.6094,767,297,552,297,552,197" style="stroke: #000000; stroke-width: 1.5;"/><line style="stroke: #000000; stroke-width: 1.5;" x1="552" x2="707" y1="220.6094" y2="220.6094"/><text fill="#000000" font-family="sans-serif" font-size="14" font-weight="bold" lengthAdjust="spacingAndGlyphs" textLength="142" x="556" y="213.5332">tictactoe.controllers</text><!--MD5=[d26da01265d646b7f841c2729736529c]
class tictactoe.ConsoleTicTacToe--><rect fill="#FEFECE" filter="url(#fhe38moljo3h5)" height="75.6719" id="tictactoe.ConsoleTicTacToe" style="stroke: #A80036; stroke-width: 1.5;" width="149" x="32.5" y="219"/><ellipse cx="53.35" cy="235" fill="#ADD1B2" rx="11" ry="11" style="stroke: #A80036; stroke-width: 1.0;"/><path d="M56.1156,230.875 Q56.2719,230.6563 56.4594,230.5469 Q56.6469,230.4375 56.8656,230.4375 Q57.2406,230.4375 57.475,230.7031 Q57.7094,230.9531 57.7094,231.5625 L57.7094,233.0156 Q57.7094,233.625 57.475,233.8906 Q57.2406,234.1563 56.8656,234.1563 Q56.5219,234.1563 56.3188,233.9531 Q56.1156,233.7656 56.0063,233.25 Q55.9594,232.8906 55.7719,232.7031 Q55.4438,232.3281 54.8344,232.1094 Q54.225,231.8906 53.6,231.8906 Q52.8344,231.8906 52.1938,232.2188 Q51.5688,232.5469 51.0688,233.2969 Q50.5844,234.0469 50.5844,235.0781 L50.5844,236.1719 Q50.5844,237.4063 51.475,238.2344 Q52.3656,239.0469 53.9594,239.0469 Q54.8969,239.0469 55.5531,238.7969 Q55.9438,238.6406 56.3656,238.2031 Q56.6313,237.9375 56.7719,237.8594 Q56.9281,237.7813 57.1313,237.7813 Q57.4594,237.7813 57.7094,238.0469 Q57.975,238.2969 57.975,238.6406 Q57.975,238.9844 57.6313,239.3906 Q57.1313,239.9688 56.3344,240.2969 Q55.2563,240.75 53.9594,240.75 Q52.4438,240.75 51.2406,240.125 Q50.2563,239.625 49.5688,238.5625 Q48.8813,237.4844 48.8813,236.2031 L48.8813,235.0469 Q48.8813,233.7188 49.4906,232.5781 Q50.1156,231.4219 51.2094,230.8125 Q52.3031,230.1875 53.5375,230.1875 Q54.2719,230.1875 54.9125,230.3594 Q55.5688,230.5156 56.1156,230.875 Z "/><text fill="#000000" font-family="sans-serif" font-size="12" lengthAdjust="spacingAndGlyphs" textLength="104" x="68.65" y="239.9102">ConsoleTicTacToe</text><line style="stroke: #A80036; stroke-width: 1.5;" x1="33.5" x2="180.5" y1="251" y2="251"/><line style="stroke: #A80036; stroke-width: 1.5;" x1="33.5" x2="180.5" y1="259" y2="259"/><ellipse cx="43.5" cy="270" fill="#84BE84" rx="3" ry="3" style="stroke: #038048; stroke-width: 1.0;"/><text fill="#000000" font-family="sans-serif" font-size="11" lengthAdjust="spacingAndGlyphs" text-decoration="underline" textLength="90" x="52.5" y="274.4189">main(String[]): void</text><polygon fill="#FFFF44" points="43.5,278.8359,47.5,282.8359,43.5,286.8359,39.5,282.8359" style="stroke: #B38D22; stroke-width: 1.0;"/><text fill="#000000" font-family="sans-serif" font-size="11" lengthAdjust="spacingAndGlyphs" textLength="123" x="52.5" y="288.2549">createView(Logic): View</text><!--MD5=[dcfee6ff2a733e6a859ce2b7bcbe021e]
class tictactoe.TicTacToe--><rect fill="#FEFECE" filter="url(#fhe38moljo3h5)" height="117.1797" id="tictactoe.TicTacToe" style="stroke: #A80036; stroke-width: 1.5;" width="144" x="222" y="42"/><ellipse cx="261.75" cy="58" fill="#ADD1B2" rx="11" ry="11" style="stroke: #A80036; stroke-width: 1.0;"/><path d="M264.5156,53.875 Q264.6719,53.6563 264.8594,53.5469 Q265.0469,53.4375 265.2656,53.4375 Q265.6406,53.4375 265.875,53.7031 Q266.1094,53.9531 266.1094,54.5625 L266.1094,56.0156 Q266.1094,56.625 265.875,56.8906 Q265.6406,57.1563 265.2656,57.1563 Q264.9219,57.1563 264.7188,56.9531 Q264.5156,56.7656 264.4063,56.25 Q264.3594,55.8906 264.1719,55.7031 Q263.8438,55.3281 263.2344,55.1094 Q262.625,54.8906 262,54.8906 Q261.2344,54.8906 260.5938,55.2188 Q259.9688,55.5469 259.4688,56.2969 Q258.9844,57.0469 258.9844,58.0781 L258.9844,59.1719 Q258.9844,60.4063 259.875,61.2344 Q260.7656,62.0469 262.3594,62.0469 Q263.2969,62.0469 263.9531,61.7969 Q264.3438,61.6406 264.7656,61.2031 Q265.0313,60.9375 265.1719,60.8594 Q265.3281,60.7813 265.5313,60.7813 Q265.8594,60.7813 266.1094,61.0469 Q266.375,61.2969 266.375,61.6406 Q266.375,61.9844 266.0313,62.3906 Q265.5313,62.9688 264.7344,63.2969 Q263.6563,63.75 262.3594,63.75 Q260.8438,63.75 259.6406,63.125 Q258.6563,62.625 257.9688,61.5625 Q257.2813,60.4844 257.2813,59.2031 L257.2813,58.0469 Q257.2813,56.7188 257.8906,55.5781 Q258.5156,54.4219 259.6094,53.8125 Q260.7031,53.1875 261.9375,53.1875 Q262.6719,53.1875 263.3125,53.3594 Q263.9688,53.5156 264.5156,53.875 Z "/><text fill="#000000" font-family="sans-serif" font-size="12" lengthAdjust="spacingAndGlyphs" textLength="57" x="281.25" y="62.9102">TicTacToe</text><line style="stroke: #A80036; stroke-width: 1.5;" x1="223" x2="365" y1="74" y2="74"/><rect fill="none" height="6" style="stroke: #C82930; stroke-width: 1.0;" width="6" x="230" y="82"/><text fill="#000000" font-family="sans-serif" font-size="11" lengthAdjust="spacingAndGlyphs" textLength="54" x="242" y="89.4189">logic: Logic</text><rect fill="none" height="6" style="stroke: #C82930; stroke-width: 1.0;" width="6" x="230" y="95.8359"/><text fill="#000000" font-family="sans-serif" font-size="11" lengthAdjust="spacingAndGlyphs" textLength="56" x="242" y="103.2549">view: View</text><line style="stroke: #A80036; stroke-width: 1.5;" x1="223" x2="365" y1="109.6719" y2="109.6719"/><polygon fill="#FFFF44" points="233,115.6719,237,119.6719,233,123.6719,229,119.6719" style="stroke: #B38D22; stroke-width: 1.0;"/><text fill="#000000" font-family="sans-serif" font-size="11" lengthAdjust="spacingAndGlyphs" textLength="58" x="242" y="125.0908">TicTacToe()</text><polygon fill="#FFFF44" points="233,129.5078,237,133.5078,233,137.5078,229,133.5078" style="stroke: #B38D22; stroke-width: 1.0;"/><text fill="#000000" font-family="sans-serif" font-size="11" font-style="italic" lengthAdjust="spacingAndGlyphs" textLength="118" x="242" y="138.9268">createView(Logic): View</text><polygon fill="#FFFF44" points="233,143.3438,237,147.3438,233,151.3438,229,147.3438" style="stroke: #B38D22; stroke-width: 1.0;"/><text fill="#000000" font-family="sans-serif" font-size="11" lengthAdjust="spacingAndGlyphs" textLength="54" x="242" y="152.7627">play(): void</text><!--MD5=[288019f38859c158505575d95d6bbed7]
class tictactoe.GraphicsTicTacToe--><rect fill="#FEFECE" filter="url(#fhe38moljo3h5)" height="75.6719" id="tictactoe.GraphicsTicTacToe" style="stroke: #A80036; stroke-width: 1.5;" width="149" x="216.5" y="219"/><ellipse cx="236" cy="235" fill="#ADD1B2" rx="11" ry="11" style="stroke: #A80036; stroke-width: 1.0;"/><path d="M238.7656,230.875 Q238.9219,230.6563 239.1094,230.5469 Q239.2969,230.4375 239.5156,230.4375 Q239.8906,230.4375 240.125,230.7031 Q240.3594,230.9531 240.3594,231.5625 L240.3594,233.0156 Q240.3594,233.625 240.125,233.8906 Q239.8906,234.1563 239.5156,234.1563 Q239.1719,234.1563 238.9688,233.9531 Q238.7656,233.7656 238.6563,233.25 Q238.6094,232.8906 238.4219,232.7031 Q238.0938,232.3281 237.4844,232.1094 Q236.875,231.8906 236.25,231.8906 Q235.4844,231.8906 234.8438,232.2188 Q234.2188,232.5469 233.7188,233.2969 Q233.2344,234.0469 233.2344,235.0781 L233.2344,236.1719 Q233.2344,237.4063 234.125,238.2344 Q235.0156,239.0469 236.6094,239.0469 Q237.5469,239.0469 238.2031,238.7969 Q238.5938,238.6406 239.0156,238.2031 Q239.2813,237.9375 239.4219,237.8594 Q239.5781,237.7813 239.7813,237.7813 Q240.1094,237.7813 240.3594,238.0469 Q240.625,238.2969 240.625,238.6406 Q240.625,238.9844 240.2813,239.3906 Q239.7813,239.9688 238.9844,240.2969 Q237.9063,240.75 236.6094,240.75 Q235.0938,240.75 233.8906,240.125 Q232.9063,239.625 232.2188,238.5625 Q231.5313,237.4844 231.5313,236.2031 L231.5313,235.0469 Q231.5313,233.7188 232.1406,232.5781 Q232.7656,231.4219 233.8594,230.8125 Q234.9531,230.1875 236.1875,230.1875 Q236.9219,230.1875 237.5625,230.3594 Q238.2188,230.5156 238.7656,230.875 Z "/><text fill="#000000" font-family="sans-serif" font-size="12" lengthAdjust="spacingAndGlyphs" textLength="107" x="251" y="239.9102">GraphicsTicTacToe</text><line style="stroke: #A80036; stroke-width: 1.5;" x1="217.5" x2="364.5" y1="251" y2="251"/><line style="stroke: #A80036; stroke-width: 1.5;" x1="217.5" x2="364.5" y1="259" y2="259"/><ellipse cx="227.5" cy="270" fill="#84BE84" rx="3" ry="3" style="stroke: #038048; stroke-width: 1.0;"/><text fill="#000000" font-family="sans-serif" font-size="11" lengthAdjust="spacingAndGlyphs" text-decoration="underline" textLength="90" x="236.5" y="274.4189">main(String[]): void</text><polygon fill="#FFFF44" points="227.5,278.8359,231.5,282.8359,227.5,286.8359,223.5,282.8359" style="stroke: #B38D22; stroke-width: 1.0;"/><text fill="#000000" font-family="sans-serif" font-size="11" lengthAdjust="spacingAndGlyphs" textLength="123" x="236.5" y="288.2549">createView(Logic): View</text><!--MD5=[015754420c4cdd9bacda884b3fa8c6ca]
class tictactoe.views.View--><rect fill="#FEFECE" filter="url(#fhe38moljo3h5)" height="48" id="tictactoe.views.View" style="stroke: #A80036; stroke-width: 1.5;" width="58" x="422" y="233"/><ellipse cx="437" cy="249" fill="#ADD1B2" rx="11" ry="11" style="stroke: #A80036; stroke-width: 1.0;"/><path d="M439.7656,244.875 Q439.9219,244.6563 440.1094,244.5469 Q440.2969,244.4375 440.5156,244.4375 Q440.8906,244.4375 441.125,244.7031 Q441.3594,244.9531 441.3594,245.5625 L441.3594,247.0156 Q441.3594,247.625 441.125,247.8906 Q440.8906,248.1563 440.5156,248.1563 Q440.1719,248.1563 439.9688,247.9531 Q439.7656,247.7656 439.6563,247.25 Q439.6094,246.8906 439.4219,246.7031 Q439.0938,246.3281 438.4844,246.1094 Q437.875,245.8906 437.25,245.8906 Q436.4844,245.8906 435.8438,246.2188 Q435.2188,246.5469 434.7188,247.2969 Q434.2344,248.0469 434.2344,249.0781 L434.2344,250.1719 Q434.2344,251.4063 435.125,252.2344 Q436.0156,253.0469 437.6094,253.0469 Q438.5469,253.0469 439.2031,252.7969 Q439.5938,252.6406 440.0156,252.2031 Q440.2813,251.9375 440.4219,251.8594 Q440.5781,251.7813 440.7813,251.7813 Q441.1094,251.7813 441.3594,252.0469 Q441.625,252.2969 441.625,252.6406 Q441.625,252.9844 441.2813,253.3906 Q440.7813,253.9688 439.9844,254.2969 Q438.9063,254.75 437.6094,254.75 Q436.0938,254.75 434.8906,254.125 Q433.9063,253.625 433.2188,252.5625 Q432.5313,251.4844 432.5313,250.2031 L432.5313,249.0469 Q432.5313,247.7188 433.1406,246.5781 Q433.7656,245.4219 434.8594,244.8125 Q435.9531,244.1875 437.1875,244.1875 Q437.9219,244.1875 438.5625,244.3594 Q439.2188,244.5156 439.7656,244.875 Z "/><text fill="#000000" font-family="sans-serif" font-size="12" lengthAdjust="spacingAndGlyphs" textLength="26" x="451" y="253.9102">View</text><line style="stroke: #A80036; stroke-width: 1.5;" x1="423" x2="479" y1="265" y2="265"/><line style="stroke: #A80036; stroke-width: 1.5;" x1="423" x2="479" y1="273" y2="273"/><!--MD5=[3b8962fd5847b9038b2e29740dae8054]
class tictactoe.controllers.Logic--><rect fill="#FEFECE" filter="url(#fhe38moljo3h5)" height="48" id="tictactoe.controllers.Logic" style="stroke: #A80036; stroke-width: 1.5;" width="62" x="689" y="233"/><ellipse cx="704" cy="249" fill="#ADD1B2" rx="11" ry="11" style="stroke: #A80036; stroke-width: 1.0;"/><path d="M706.7656,244.875 Q706.9219,244.6563 707.1094,244.5469 Q707.2969,244.4375 707.5156,244.4375 Q707.8906,244.4375 708.125,244.7031 Q708.3594,244.9531 708.3594,245.5625 L708.3594,247.0156 Q708.3594,247.625 708.125,247.8906 Q707.8906,248.1563 707.5156,248.1563 Q707.1719,248.1563 706.9688,247.9531 Q706.7656,247.7656 706.6563,247.25 Q706.6094,246.8906 706.4219,246.7031 Q706.0938,246.3281 705.4844,246.1094 Q704.875,245.8906 704.25,245.8906 Q703.4844,245.8906 702.8438,246.2188 Q702.2188,246.5469 701.7188,247.2969 Q701.2344,248.0469 701.2344,249.0781 L701.2344,250.1719 Q701.2344,251.4063 702.125,252.2344 Q703.0156,253.0469 704.6094,253.0469 Q705.5469,253.0469 706.2031,252.7969 Q706.5938,252.6406 707.0156,252.2031 Q707.2813,251.9375 707.4219,251.8594 Q707.5781,251.7813 707.7813,251.7813 Q708.1094,251.7813 708.3594,252.0469 Q708.625,252.2969 708.625,252.6406 Q708.625,252.9844 708.2813,253.3906 Q707.7813,253.9688 706.9844,254.2969 Q705.9063,254.75 704.6094,254.75 Q703.0938,254.75 701.8906,254.125 Q700.9063,253.625 700.2188,252.5625 Q699.5313,251.4844 699.5313,250.2031 L699.5313,249.0469 Q699.5313,247.7188 700.1406,246.5781 Q700.7656,245.4219 701.8594,244.8125 Q702.9531,244.1875 704.1875,244.1875 Q704.9219,244.1875 705.5625,244.3594 Q706.2188,244.5156 706.7656,244.875 Z "/><text fill="#000000" font-family="sans-serif" font-size="12" lengthAdjust="spacingAndGlyphs" textLength="30" x="718" y="253.9102">Logic</text><line style="stroke: #A80036; stroke-width: 1.5;" x1="690" x2="750" y1="265" y2="265"/><line style="stroke: #A80036; stroke-width: 1.5;" x1="690" x2="750" y1="273" y2="273"/><!--MD5=[957eef6538bab7382edbc29d98579a60]
class tictactoe.controllers.Controller--><rect fill="#FEFECE" filter="url(#fhe38moljo3h5)" height="48" id="tictactoe.controllers.Controller" style="stroke: #A80036; stroke-width: 1.5;" width="86" x="568" y="233"/><ellipse cx="583" cy="249" fill="#ADD1B2" rx="11" ry="11" style="stroke: #A80036; stroke-width: 1.0;"/><path d="M585.7656,244.875 Q585.9219,244.6563 586.1094,244.5469 Q586.2969,244.4375 586.5156,244.4375 Q586.8906,244.4375 587.125,244.7031 Q587.3594,244.9531 587.3594,245.5625 L587.3594,247.0156 Q587.3594,247.625 587.125,247.8906 Q586.8906,248.1563 586.5156,248.1563 Q586.1719,248.1563 585.9688,247.9531 Q585.7656,247.7656 585.6563,247.25 Q585.6094,246.8906 585.4219,246.7031 Q585.0938,246.3281 584.4844,246.1094 Q583.875,245.8906 583.25,245.8906 Q582.4844,245.8906 581.8438,246.2188 Q581.2188,246.5469 580.7188,247.2969 Q580.2344,248.0469 580.2344,249.0781 L580.2344,250.1719 Q580.2344,251.4063 581.125,252.2344 Q582.0156,253.0469 583.6094,253.0469 Q584.5469,253.0469 585.2031,252.7969 Q585.5938,252.6406 586.0156,252.2031 Q586.2813,251.9375 586.4219,251.8594 Q586.5781,251.7813 586.7813,251.7813 Q587.1094,251.7813 587.3594,252.0469 Q587.625,252.2969 587.625,252.6406 Q587.625,252.9844 587.2813,253.3906 Q586.7813,253.9688 585.9844,254.2969 Q584.9063,254.75 583.6094,254.75 Q582.0938,254.75 580.8906,254.125 Q579.9063,253.625 579.2188,252.5625 Q578.5313,251.4844 578.5313,250.2031 L578.5313,249.0469 Q578.5313,247.7188 579.1406,246.5781 Q579.7656,245.4219 580.8594,244.8125 Q581.9531,244.1875 583.1875,244.1875 Q583.9219,244.1875 584.5625,244.3594 Q585.2188,244.5156 585.7656,244.875 Z "/><text fill="#000000" font-family="sans-serif" font-size="12" lengthAdjust="spacingAndGlyphs" textLength="54" x="597" y="253.9102">Controller</text><line style="stroke: #A80036; stroke-width: 1.5;" x1="569" x2="653" y1="265" y2="265"/><line style="stroke: #A80036; stroke-width: 1.5;" x1="569" x2="653" y1="273" y2="273"/><!--MD5=[4e0ca678de8db9099731dcdc2b6658ba]
reverse link tictactoe.TicTacToe to tictactoe.ConsoleTicTacToe--><path d="M208.819,171.877 C189.216,188.073 169.121,204.676 152.018,218.806 " fill="none" id="tictactoe.TicTacToe&lt;-tictactoe.ConsoleTicTacToe" style="stroke: #A80036; stroke-width: 1.0;"/><polygon fill="none" points="204.491,166.372,224.368,159.03,213.408,177.165,204.491,166.372" style="stroke: #A80036; stroke-width: 1.0;"/><!--MD5=[39aff454823c6178e2615bf7f449e13a]
reverse link tictactoe.TicTacToe to tictactoe.GraphicsTicTacToe--><path d="M292.485,179.504 C292.221,193.124 291.957,206.712 291.727,218.575 " fill="none" id="tictactoe.TicTacToe&lt;-tictactoe.GraphicsTicTacToe" style="stroke: #A80036; stroke-width: 1.0;"/><polygon fill="none" points="285.496,178.89,292.883,159.03,299.493,179.162,285.496,178.89" style="stroke: #A80036; stroke-width: 1.0;"/><!--MD5=[2e9845d2d438f1c6c29fdc19d0711783]
link tictactoe.TicTacToe to tictactoe.views.View--><path d="M352.461,159.03 C376.818,182.999 403.932,209.682 423.544,228.9808 " fill="none" id="tictactoe.TicTacToe-&gt;tictactoe.views.View" style="stroke: #A80036; stroke-width: 1.0;"/><polygon fill="#A80036" points="427.363,232.7391,423.7539,223.5754,423.7992,229.232,418.1426,229.2774,427.363,232.7391" style="stroke: #A80036; stroke-width: 1.0;"/><!--MD5=[e63e3ab671b1ac769a6a0410c90c40ce]
link tictactoe.TicTacToe to tictactoe.controllers.Logic--><path d="M366.089,103.284 C446.866,108.467 578.7,126.759 672,189 C686.544,198.703 698.14,214.407 706.288,228.1726 " fill="none" id="tictactoe.TicTacToe-&gt;tictactoe.controllers.Logic" style="stroke: #A80036; stroke-width: 1.0;"/><polygon fill="#A80036" points="708.918,232.7553,707.9074,222.9584,706.4292,228.4187,700.9689,226.9405,708.918,232.7553" style="stroke: #A80036; stroke-width: 1.0;"/><!--MD5=[cff28241c5a8a88f9a0cfbae37cebc51]
link tictactoe.TicTacToe to tictactoe.controllers.Controller--><path d="M366.001,130.244 C404.994,146.418 453.708,167.616 496,189 C520.93,201.606 547.962,217.248 569.55,230.2479 " fill="none" id="tictactoe.TicTacToe-&gt;tictactoe.controllers.Controller" style="stroke: #A80036; stroke-width: 1.0; stroke-dasharray: 7.0,7.0;"/><polygon fill="#A80036" points="574.072,232.9797,568.4374,224.9019,569.7925,230.394,564.3003,231.7491,574.072,232.9797" style="stroke: #A80036; stroke-width: 1.0;"/><!--MD5=[6e61d92e3f426877d4a2966565341788]
@startuml

class  tictactoe.ConsoleTicTacToe{
+ {static} main(String[]): void
# createView(Logic): View
}
tictactoe.TicTacToe <|-down- tictactoe.ConsoleTicTacToe

class  tictactoe.GraphicsTicTacToe{
+ {static} main(String[]): void
# createView(Logic): View
}
tictactoe.TicTacToe <|-down- tictactoe.GraphicsTicTacToe

class  tictactoe.TicTacToe{
- logic: Logic
- view: View
# TicTacToe()
# {abstract} createView(Logic): View
# play(): void
}
tictactoe.TicTacToe - -> tictactoe.views.View
tictactoe.TicTacToe - -> tictactoe.controllers.Logic
tictactoe.TicTacToe ..> tictactoe.controllers.Controller

@enduml

PlantUML version 1.2020.15(Sun Jun 28 13:39:45 CEST 2020)
(GPL source distribution)
Java Runtime: Java(TM) SE Runtime Environment
JVM: Java HotSpot(TM) 64-Bit Server VM
Default Encoding: windows-1252
Language: es
Country: ES
--></g></svg>