<?xml version="1.0" encoding="UTF-8" standalone="no"?><svg xmlns="http://www.w3.org/2000/svg" xmlns:xlink="http://www.w3.org/1999/xlink" contentScriptType="application/ecmascript" contentStyleType="text/css" height="1021px" preserveAspectRatio="none" style="width:1302px;height:1021px;" version="1.1" viewBox="0 0 1302 1021" width="1302px" zoomAndPan="magnify"><defs><filter height="300%" id="fgfyv0lmi8l45" width="300%" x="-1" y="-1"><feGaussianBlur result="blurOut" stdDeviation="2.0"/><feColorMatrix in="blurOut" result="blurOut2" type="matrix" values="0 0 0 0 0 0 0 0 0 0 0 0 0 0 0 0 0 0 .4 0"/><feOffset dx="4.0" dy="4.0" in="blurOut2" result="blurOut3"/><feBlend in="SourceGraphic" in2="blurOut3" mode="normal"/></filter></defs><g><!--MD5=[f4e83a21a957c5b9ba9691e6361db36b]
cluster tictactoe.views--><polygon fill="#FFFFFF" filter="url(#fgfyv0lmi8l45)" points="323,6,435,6,442,29.6094,1280,29.6094,1280,1009,323,1009,323,6" style="stroke: #000000; stroke-width: 1.5;"/><line style="stroke: #000000; stroke-width: 1.5;" x1="323" x2="442" y1="29.6094" y2="29.6094"/><text fill="#000000" font-family="sans-serif" font-size="14" font-weight="bold" lengthAdjust="spacingAndGlyphs" textLength="106" x="327" y="22.5332">tictactoe.views</text><!--MD5=[c52f45833d539af9e29a9d34b8b7302b]
cluster utils--><polygon fill="#FFFFFF" filter="url(#fgfyv0lmi8l45)" points="16,218,52,218,59,241.6094,299,241.6094,299,318,16,318,16,218" style="stroke: #000000; stroke-width: 1.5;"/><line style="stroke: #000000; stroke-width: 1.5;" x1="16" x2="59" y1="241.6094" y2="241.6094"/><text fill="#000000" font-family="sans-serif" font-size="14" font-weight="bold" lengthAdjust="spacingAndGlyphs" textLength="30" x="20" y="234.5332">utils</text><!--MD5=[edeafd8e862636cda68e6fb1f68b81b5]
class tictactoe.views.BoardView--><rect fill="#FEFECE" filter="url(#fgfyv0lmi8l45)" height="89.5078" id="tictactoe.views.BoardView" style="stroke: #A80036; stroke-width: 1.5;" width="118" x="765" y="410.5"/><ellipse cx="792.15" cy="426.5" fill="#ADD1B2" rx="11" ry="11" style="stroke: #A80036; stroke-width: 1.0;"/><path d="M794.9156,422.375 Q795.0719,422.1563 795.2594,422.0469 Q795.4469,421.9375 795.6656,421.9375 Q796.0406,421.9375 796.275,422.2031 Q796.5094,422.4531 796.5094,423.0625 L796.5094,424.5156 Q796.5094,425.125 796.275,425.3906 Q796.0406,425.6563 795.6656,425.6563 Q795.3219,425.6563 795.1188,425.4531 Q794.9156,425.2656 794.8063,424.75 Q794.7594,424.3906 794.5719,424.2031 Q794.2438,423.8281 793.6344,423.6094 Q793.025,423.3906 792.4,423.3906 Q791.6344,423.3906 790.9938,423.7188 Q790.3688,424.0469 789.8688,424.7969 Q789.3844,425.5469 789.3844,426.5781 L789.3844,427.6719 Q789.3844,428.9063 790.275,429.7344 Q791.1656,430.5469 792.7594,430.5469 Q793.6969,430.5469 794.3531,430.2969 Q794.7438,430.1406 795.1656,429.7031 Q795.4313,429.4375 795.5719,429.3594 Q795.7281,429.2813 795.9313,429.2813 Q796.2594,429.2813 796.5094,429.5469 Q796.775,429.7969 796.775,430.1406 Q796.775,430.4844 796.4313,430.8906 Q795.9313,431.4688 795.1344,431.7969 Q794.0563,432.25 792.7594,432.25 Q791.2438,432.25 790.0406,431.625 Q789.0563,431.125 788.3688,430.0625 Q787.6813,428.9844 787.6813,427.7031 L787.6813,426.5469 Q787.6813,425.2188 788.2906,424.0781 Q788.9156,422.9219 790.0094,422.3125 Q791.1031,421.6875 792.3375,421.6875 Q793.0719,421.6875 793.7125,421.8594 Q794.3688,422.0156 794.9156,422.375 Z "/><text fill="#000000" font-family="sans-serif" font-size="12" lengthAdjust="spacingAndGlyphs" textLength="59" x="808.85" y="431.4102">BoardView</text><line style="stroke: #A80036; stroke-width: 1.5;" x1="766" x2="882" y1="442.5" y2="442.5"/><polygon fill="none" points="776,449.5,772,455.5,780,455.5" style="stroke: #1963A0; stroke-width: 1.0;"/><text fill="#000000" font-family="sans-serif" font-size="11" lengthAdjust="spacingAndGlyphs" textLength="63" x="785" y="457.9189">board: Board</text><line style="stroke: #A80036; stroke-width: 1.5;" x1="766" x2="882" y1="464.3359" y2="464.3359"/><polygon fill="#4177AF" points="776,471.3359,772,477.3359,780,477.3359" style="stroke: #1963A0; stroke-width: 1.0;"/><text fill="#000000" font-family="sans-serif" font-size="11" lengthAdjust="spacingAndGlyphs" textLength="92" x="785" y="479.7549">BoardView(Board)</text><polygon fill="#4177AF" points="776,485.1719,772,491.1719,780,491.1719" style="stroke: #1963A0; stroke-width: 1.0;"/><text fill="#000000" font-family="sans-serif" font-size="11" lengthAdjust="spacingAndGlyphs" textLength="59" x="785" y="493.5908">write(): void</text><!--MD5=[5dff601402b9962ae61c7ab4dc9cae89]
class tictactoe.views.CoordinateView--><rect fill="#FEFECE" filter="url(#fgfyv0lmi8l45)" height="61.8359" id="tictactoe.views.CoordinateView" style="stroke: #A80036; stroke-width: 1.5;" width="142" x="464" y="910.5"/><ellipse cx="489.35" cy="926.5" fill="#ADD1B2" rx="11" ry="11" style="stroke: #A80036; stroke-width: 1.0;"/><path d="M492.1156,922.375 Q492.2719,922.1563 492.4594,922.0469 Q492.6469,921.9375 492.8656,921.9375 Q493.2406,921.9375 493.475,922.2031 Q493.7094,922.4531 493.7094,923.0625 L493.7094,924.5156 Q493.7094,925.125 493.475,925.3906 Q493.2406,925.6563 492.8656,925.6563 Q492.5219,925.6563 492.3188,925.4531 Q492.1156,925.2656 492.0063,924.75 Q491.9594,924.3906 491.7719,924.2031 Q491.4438,923.8281 490.8344,923.6094 Q490.225,923.3906 489.6,923.3906 Q488.8344,923.3906 488.1938,923.7188 Q487.5688,924.0469 487.0688,924.7969 Q486.5844,925.5469 486.5844,926.5781 L486.5844,927.6719 Q486.5844,928.9063 487.475,929.7344 Q488.3656,930.5469 489.9594,930.5469 Q490.8969,930.5469 491.5531,930.2969 Q491.9438,930.1406 492.3656,929.7031 Q492.6313,929.4375 492.7719,929.3594 Q492.9281,929.2813 493.1313,929.2813 Q493.4594,929.2813 493.7094,929.5469 Q493.975,929.7969 493.975,930.1406 Q493.975,930.4844 493.6313,930.8906 Q493.1313,931.4688 492.3344,931.7969 Q491.2563,932.25 489.9594,932.25 Q488.4438,932.25 487.2406,931.625 Q486.2563,931.125 485.5688,930.0625 Q484.8813,928.9844 484.8813,927.7031 L484.8813,926.5469 Q484.8813,925.2188 485.4906,924.0781 Q486.1156,922.9219 487.2094,922.3125 Q488.3031,921.6875 489.5375,921.6875 Q490.2719,921.6875 490.9125,921.8594 Q491.5688,922.0156 492.1156,922.375 Z "/><text fill="#000000" font-family="sans-serif" font-size="12" lengthAdjust="spacingAndGlyphs" textLength="87" x="505.65" y="931.4102">CoordinateView</text><line style="stroke: #A80036; stroke-width: 1.5;" x1="465" x2="605" y1="942.5" y2="942.5"/><line style="stroke: #A80036; stroke-width: 1.5;" x1="465" x2="605" y1="950.5" y2="950.5"/><polygon fill="#4177AF" points="475,957.5,471,963.5,479,963.5" style="stroke: #1963A0; stroke-width: 1.0;"/><text fill="#000000" font-family="sans-serif" font-size="11" lengthAdjust="spacingAndGlyphs" textLength="116" x="484" y="965.9189">read(String): Coordinate</text><!--MD5=[17799e03bfee0ccb3aa03b93da9c26d6]
class tictactoe.views.ErrorView--><rect fill="#FEFECE" filter="url(#fgfyv0lmi8l45)" height="103.3438" id="tictactoe.views.ErrorView" style="stroke: #A80036; stroke-width: 1.5;" width="142" x="766" y="890"/><ellipse cx="806.65" cy="906" fill="#ADD1B2" rx="11" ry="11" style="stroke: #A80036; stroke-width: 1.0;"/><path d="M809.4156,901.875 Q809.5719,901.6563 809.7594,901.5469 Q809.9469,901.4375 810.1656,901.4375 Q810.5406,901.4375 810.775,901.7031 Q811.0094,901.9531 811.0094,902.5625 L811.0094,904.0156 Q811.0094,904.625 810.775,904.8906 Q810.5406,905.1563 810.1656,905.1563 Q809.8219,905.1563 809.6188,904.9531 Q809.4156,904.7656 809.3063,904.25 Q809.2594,903.8906 809.0719,903.7031 Q808.7438,903.3281 808.1344,903.1094 Q807.525,902.8906 806.9,902.8906 Q806.1344,902.8906 805.4938,903.2188 Q804.8688,903.5469 804.3688,904.2969 Q803.8844,905.0469 803.8844,906.0781 L803.8844,907.1719 Q803.8844,908.4063 804.775,909.2344 Q805.6656,910.0469 807.2594,910.0469 Q808.1969,910.0469 808.8531,909.7969 Q809.2438,909.6406 809.6656,909.2031 Q809.9313,908.9375 810.0719,908.8594 Q810.2281,908.7813 810.4313,908.7813 Q810.7594,908.7813 811.0094,909.0469 Q811.275,909.2969 811.275,909.6406 Q811.275,909.9844 810.9313,910.3906 Q810.4313,910.9688 809.6344,911.2969 Q808.5563,911.75 807.2594,911.75 Q805.7438,911.75 804.5406,911.125 Q803.5563,910.625 802.8688,909.5625 Q802.1813,908.4844 802.1813,907.2031 L802.1813,906.0469 Q802.1813,904.7188 802.7906,903.5781 Q803.4156,902.4219 804.5094,901.8125 Q805.6031,901.1875 806.8375,901.1875 Q807.5719,901.1875 808.2125,901.3594 Q808.8688,901.5156 809.4156,901.875 Z "/><text fill="#000000" font-family="sans-serif" font-size="12" lengthAdjust="spacingAndGlyphs" textLength="53" x="826.35" y="910.9102">ErrorView</text><line style="stroke: #A80036; stroke-width: 1.5;" x1="767" x2="907" y1="922" y2="922"/><rect fill="none" height="6" style="stroke: #C82930; stroke-width: 1.0;" width="6" x="774" y="930"/><text fill="#000000" font-family="sans-serif" font-size="11" lengthAdjust="spacingAndGlyphs" text-decoration="underline" textLength="97" x="786" y="937.4189">MESSAGES: String[]</text><rect fill="none" height="6" style="stroke: #C82930; stroke-width: 1.0;" width="6" x="774" y="943.8359"/><text fill="#000000" font-family="sans-serif" font-size="11" lengthAdjust="spacingAndGlyphs" textLength="54" x="786" y="951.2549">error: Error</text><line style="stroke: #A80036; stroke-width: 1.5;" x1="767" x2="907" y1="957.6719" y2="957.6719"/><polygon fill="#4177AF" points="777,964.6719,773,970.6719,781,970.6719" style="stroke: #1963A0; stroke-width: 1.0;"/><text fill="#000000" font-family="sans-serif" font-size="11" lengthAdjust="spacingAndGlyphs" textLength="82" x="786" y="973.0908">ErrorView(Error)</text><polygon fill="#4177AF" points="777,978.5078,773,984.5078,781,984.5078" style="stroke: #1963A0; stroke-width: 1.0;"/><text fill="#000000" font-family="sans-serif" font-size="11" lengthAdjust="spacingAndGlyphs" textLength="116" x="786" y="986.9268">read(String): Coordinate</text><!--MD5=[f8a52b817e7e9bd4ce0280deb4d5cdc9]
class tictactoe.views.ChoosePlayerView--><rect fill="#FEFECE" filter="url(#fgfyv0lmi8l45)" height="89.5078" id="tictactoe.views.ChoosePlayerView" style="stroke: #A80036; stroke-width: 1.5;" width="163" x="492.5" y="410.5"/><ellipse cx="519.65" cy="426.5" fill="#ADD1B2" rx="11" ry="11" style="stroke: #A80036; stroke-width: 1.0;"/><path d="M522.4156,422.375 Q522.5719,422.1563 522.7594,422.0469 Q522.9469,421.9375 523.1656,421.9375 Q523.5406,421.9375 523.775,422.2031 Q524.0094,422.4531 524.0094,423.0625 L524.0094,424.5156 Q524.0094,425.125 523.775,425.3906 Q523.5406,425.6563 523.1656,425.6563 Q522.8219,425.6563 522.6188,425.4531 Q522.4156,425.2656 522.3063,424.75 Q522.2594,424.3906 522.0719,424.2031 Q521.7438,423.8281 521.1344,423.6094 Q520.525,423.3906 519.9,423.3906 Q519.1344,423.3906 518.4938,423.7188 Q517.8688,424.0469 517.3688,424.7969 Q516.8844,425.5469 516.8844,426.5781 L516.8844,427.6719 Q516.8844,428.9063 517.775,429.7344 Q518.6656,430.5469 520.2594,430.5469 Q521.1969,430.5469 521.8531,430.2969 Q522.2438,430.1406 522.6656,429.7031 Q522.9313,429.4375 523.0719,429.3594 Q523.2281,429.2813 523.4313,429.2813 Q523.7594,429.2813 524.0094,429.5469 Q524.275,429.7969 524.275,430.1406 Q524.275,430.4844 523.9313,430.8906 Q523.4313,431.4688 522.6344,431.7969 Q521.5563,432.25 520.2594,432.25 Q518.7438,432.25 517.5406,431.625 Q516.5563,431.125 515.8688,430.0625 Q515.1813,428.9844 515.1813,427.7031 L515.1813,426.5469 Q515.1813,425.2188 515.7906,424.0781 Q516.4156,422.9219 517.5094,422.3125 Q518.6031,421.6875 519.8375,421.6875 Q520.5719,421.6875 521.2125,421.8594 Q521.8688,422.0156 522.4156,422.375 Z "/><text fill="#000000" font-family="sans-serif" font-size="12" lengthAdjust="spacingAndGlyphs" textLength="104" x="536.35" y="431.4102">ChoosePlayerView</text><line style="stroke: #A80036; stroke-width: 1.5;" x1="493.5" x2="654.5" y1="442.5" y2="442.5"/><rect fill="none" height="6" style="stroke: #C82930; stroke-width: 1.0;" width="6" x="500.5" y="450.5"/><text fill="#000000" font-family="sans-serif" font-size="11" lengthAdjust="spacingAndGlyphs" textLength="60" x="512.5" y="457.9189">game: Game</text><line style="stroke: #A80036; stroke-width: 1.5;" x1="493.5" x2="654.5" y1="464.3359" y2="464.3359"/><polygon fill="#4177AF" points="503.5,471.3359,499.5,477.3359,507.5,477.3359" style="stroke: #1963A0; stroke-width: 1.0;"/><text fill="#000000" font-family="sans-serif" font-size="11" lengthAdjust="spacingAndGlyphs" textLength="129" x="512.5" y="479.7549">ChoosePlayerView(Game)</text><polygon fill="#4177AF" points="503.5,485.1719,499.5,491.1719,507.5,491.1719" style="stroke: #1963A0; stroke-width: 1.0;"/><text fill="#000000" font-family="sans-serif" font-size="11" lengthAdjust="spacingAndGlyphs" textLength="137" x="512.5" y="493.5908">readAndCreateUsers(): void</text><!--MD5=[ac4b0e0875a820e87662d988d53b2072]
class tictactoe.views.MessageView--><rect fill="#FEFECE" filter="url(#fgfyv0lmi8l45)" height="241.7031" id="tictactoe.views.MessageView" style="stroke: #A80036; stroke-width: 1.5;" width="237" x="448.5" y="588"/><ellipse cx="524.25" cy="604" fill="#ADD1B2" rx="11" ry="11" style="stroke: #A80036; stroke-width: 1.0;"/><path d="M527.0156,599.875 Q527.1719,599.6563 527.3594,599.5469 Q527.5469,599.4375 527.7656,599.4375 Q528.1406,599.4375 528.375,599.7031 Q528.6094,599.9531 528.6094,600.5625 L528.6094,602.0156 Q528.6094,602.625 528.375,602.8906 Q528.1406,603.1563 527.7656,603.1563 Q527.4219,603.1563 527.2188,602.9531 Q527.0156,602.7656 526.9063,602.25 Q526.8594,601.8906 526.6719,601.7031 Q526.3438,601.3281 525.7344,601.1094 Q525.125,600.8906 524.5,600.8906 Q523.7344,600.8906 523.0938,601.2188 Q522.4688,601.5469 521.9688,602.2969 Q521.4844,603.0469 521.4844,604.0781 L521.4844,605.1719 Q521.4844,606.4063 522.375,607.2344 Q523.2656,608.0469 524.8594,608.0469 Q525.7969,608.0469 526.4531,607.7969 Q526.8438,607.6406 527.2656,607.2031 Q527.5313,606.9375 527.6719,606.8594 Q527.8281,606.7813 528.0313,606.7813 Q528.3594,606.7813 528.6094,607.0469 Q528.875,607.2969 528.875,607.6406 Q528.875,607.9844 528.5313,608.3906 Q528.0313,608.9688 527.2344,609.2969 Q526.1563,609.75 524.8594,609.75 Q523.3438,609.75 522.1406,609.125 Q521.1563,608.625 520.4688,607.5625 Q519.7813,606.4844 519.7813,605.2031 L519.7813,604.0469 Q519.7813,602.7188 520.3906,601.5781 Q521.0156,600.4219 522.1094,599.8125 Q523.2031,599.1875 524.4375,599.1875 Q525.1719,599.1875 525.8125,599.3594 Q526.4688,599.5156 527.0156,599.875 Z "/><text fill="#000000" font-family="sans-serif" font-size="12" lengthAdjust="spacingAndGlyphs" textLength="77" x="544.75" y="608.9102">MessageView</text><line style="stroke: #A80036; stroke-width: 1.5;" x1="449.5" x2="684.5" y1="620" y2="620"/><ellipse cx="459.5" cy="631" fill="none" rx="3" ry="3" style="stroke: #038048; stroke-width: 1.0;"/><text fill="#000000" font-family="sans-serif" font-size="11" lengthAdjust="spacingAndGlyphs" textLength="138" x="468.5" y="635.4189">LINE_BREAK: MessageView</text><ellipse cx="459.5" cy="644.8359" fill="none" rx="3" ry="3" style="stroke: #038048; stroke-width: 1.0;"/><text fill="#000000" font-family="sans-serif" font-size="11" lengthAdjust="spacingAndGlyphs" textLength="110" x="468.5" y="649.2549">EMPTY: MessageView</text><ellipse cx="459.5" cy="658.6719" fill="none" rx="3" ry="3" style="stroke: #038048; stroke-width: 1.0;"/><text fill="#000000" font-family="sans-serif" font-size="11" lengthAdjust="spacingAndGlyphs" textLength="139" x="468.5" y="663.0908">SEPARATOR: MessageView</text><ellipse cx="459.5" cy="672.5078" fill="none" rx="3" ry="3" style="stroke: #038048; stroke-width: 1.0;"/><text fill="#000000" font-family="sans-serif" font-size="11" lengthAdjust="spacingAndGlyphs" textLength="211" x="468.5" y="676.9268">VERTICAL_LINE_CENTERED: MessageView</text><ellipse cx="459.5" cy="686.3438" fill="none" rx="3" ry="3" style="stroke: #038048; stroke-width: 1.0;"/><text fill="#000000" font-family="sans-serif" font-size="11" lengthAdjust="spacingAndGlyphs" textLength="183" x="468.5" y="690.7627">VERTICAL_LINE_LEFT: MessageView</text><ellipse cx="459.5" cy="700.1797" fill="none" rx="3" ry="3" style="stroke: #038048; stroke-width: 1.0;"/><text fill="#000000" font-family="sans-serif" font-size="11" lengthAdjust="spacingAndGlyphs" textLength="142" x="468.5" y="704.5986">PLAYER_WIN: MessageView</text><ellipse cx="459.5" cy="714.0156" fill="none" rx="3" ry="3" style="stroke: #038048; stroke-width: 1.0;"/><text fill="#000000" font-family="sans-serif" font-size="11" lengthAdjust="spacingAndGlyphs" textLength="146" x="468.5" y="718.4346">START_GAME: MessageView</text><ellipse cx="459.5" cy="727.8516" fill="none" rx="3" ry="3" style="stroke: #038048; stroke-width: 1.0;"/><text fill="#000000" font-family="sans-serif" font-size="11" lengthAdjust="spacingAndGlyphs" textLength="166" x="468.5" y="732.2705">CHOOSE_PLAYER: MessageView</text><rect fill="none" height="6" style="stroke: #C82930; stroke-width: 1.0;" width="6" x="456.5" y="738.6875"/><text fill="#000000" font-family="sans-serif" font-size="11" lengthAdjust="spacingAndGlyphs" textLength="78" x="468.5" y="746.1064">message: String</text><rect fill="none" height="6" style="stroke: #C82930; stroke-width: 1.0;" width="6" x="456.5" y="752.5234"/><text fill="#000000" font-family="sans-serif" font-size="11" lengthAdjust="spacingAndGlyphs" textLength="83" x="468.5" y="759.9424">console: Console</text><line style="stroke: #A80036; stroke-width: 1.5;" x1="449.5" x2="684.5" y1="766.3594" y2="766.3594"/><rect fill="#F24D5C" height="6" style="stroke: #C82930; stroke-width: 1.0;" width="6" x="456.5" y="774.3594"/><text fill="#000000" font-family="sans-serif" font-size="11" lengthAdjust="spacingAndGlyphs" textLength="106" x="468.5" y="781.7783">MessageView(String)</text><polygon fill="#4177AF" points="459.5,787.1953,455.5,793.1953,463.5,793.1953" style="stroke: #1963A0; stroke-width: 1.0;"/><text fill="#000000" font-family="sans-serif" font-size="11" lengthAdjust="spacingAndGlyphs" textLength="101" x="468.5" y="795.6143">getMessage(): String</text><polygon fill="#4177AF" points="459.5,801.0313,455.5,807.0313,463.5,807.0313" style="stroke: #1963A0; stroke-width: 1.0;"/><text fill="#000000" font-family="sans-serif" font-size="11" lengthAdjust="spacingAndGlyphs" textLength="59" x="468.5" y="809.4502">write(): void</text><polygon fill="#4177AF" points="459.5,814.8672,455.5,820.8672,463.5,820.8672" style="stroke: #1963A0; stroke-width: 1.0;"/><text fill="#000000" font-family="sans-serif" font-size="11" lengthAdjust="spacingAndGlyphs" textLength="67" x="468.5" y="823.2861">writeln(): void</text><!--MD5=[a099f42e85b2b91eaa31b246ba25a0b3]
class tictactoe.views.MachinePlayerView--><rect fill="#FEFECE" filter="url(#fgfyv0lmi8l45)" height="89.5078" id="tictactoe.views.MachinePlayerView" style="stroke: #A80036; stroke-width: 1.5;" width="216" x="989" y="664"/><ellipse cx="1039.75" cy="680" fill="#ADD1B2" rx="11" ry="11" style="stroke: #A80036; stroke-width: 1.0;"/><path d="M1042.5156,675.875 Q1042.6719,675.6563 1042.8594,675.5469 Q1043.0469,675.4375 1043.2656,675.4375 Q1043.6406,675.4375 1043.875,675.7031 Q1044.1094,675.9531 1044.1094,676.5625 L1044.1094,678.0156 Q1044.1094,678.625 1043.875,678.8906 Q1043.6406,679.1563 1043.2656,679.1563 Q1042.9219,679.1563 1042.7188,678.9531 Q1042.5156,678.7656 1042.4063,678.25 Q1042.3594,677.8906 1042.1719,677.7031 Q1041.8438,677.3281 1041.2344,677.1094 Q1040.625,676.8906 1040,676.8906 Q1039.2344,676.8906 1038.5938,677.2188 Q1037.9688,677.5469 1037.4688,678.2969 Q1036.9844,679.0469 1036.9844,680.0781 L1036.9844,681.1719 Q1036.9844,682.4063 1037.875,683.2344 Q1038.7656,684.0469 1040.3594,684.0469 Q1041.2969,684.0469 1041.9531,683.7969 Q1042.3438,683.6406 1042.7656,683.2031 Q1043.0313,682.9375 1043.1719,682.8594 Q1043.3281,682.7813 1043.5313,682.7813 Q1043.8594,682.7813 1044.1094,683.0469 Q1044.375,683.2969 1044.375,683.6406 Q1044.375,683.9844 1044.0313,684.3906 Q1043.5313,684.9688 1042.7344,685.2969 Q1041.6563,685.75 1040.3594,685.75 Q1038.8438,685.75 1037.6406,685.125 Q1036.6563,684.625 1035.9688,683.5625 Q1035.2813,682.4844 1035.2813,681.2031 L1035.2813,680.0469 Q1035.2813,678.7188 1035.8906,677.5781 Q1036.5156,676.4219 1037.6094,675.8125 Q1038.7031,675.1875 1039.9375,675.1875 Q1040.6719,675.1875 1041.3125,675.3594 Q1041.9688,675.5156 1042.5156,675.875 Z "/><text fill="#000000" font-family="sans-serif" font-size="12" lengthAdjust="spacingAndGlyphs" textLength="106" x="1060.25" y="684.9102">MachinePlayerView</text><line style="stroke: #A80036; stroke-width: 1.5;" x1="990" x2="1204" y1="696" y2="696"/><line style="stroke: #A80036; stroke-width: 1.5;" x1="990" x2="1204" y1="704" y2="704"/><polygon fill="#4177AF" points="1000,711,996,717,1004,717" style="stroke: #1963A0; stroke-width: 1.0;"/><text fill="#000000" font-family="sans-serif" font-size="11" lengthAdjust="spacingAndGlyphs" textLength="134" x="1009" y="719.4189">MachinePlayerView(Player)</text><polygon fill="#4177AF" points="1000,724.8359,996,730.8359,1004,730.8359" style="stroke: #1963A0; stroke-width: 1.0;"/><text fill="#000000" font-family="sans-serif" font-size="11" lengthAdjust="spacingAndGlyphs" textLength="167" x="1009" y="733.2549">readCoordinateToPut(): Coordinate</text><polygon fill="#4177AF" points="1000,738.6719,996,744.6719,1004,744.6719" style="stroke: #1963A0; stroke-width: 1.0;"/><text fill="#000000" font-family="sans-serif" font-size="11" lengthAdjust="spacingAndGlyphs" textLength="190" x="1009" y="747.0908">readCoordinatesToMove(): Coordinate[]</text><!--MD5=[2ae15d20e7f22fd333327d3852982126]
class tictactoe.views.PlayerView--><rect fill="#FEFECE" filter="url(#fgfyv0lmi8l45)" height="144.8516" id="tictactoe.views.PlayerView" style="stroke: #A80036; stroke-width: 1.5;" width="346" x="918" y="383"/><ellipse cx="1056.75" cy="399" fill="#ADD1B2" rx="11" ry="11" style="stroke: #A80036; stroke-width: 1.0;"/><path d="M1059.5156,394.875 Q1059.6719,394.6563 1059.8594,394.5469 Q1060.0469,394.4375 1060.2656,394.4375 Q1060.6406,394.4375 1060.875,394.7031 Q1061.1094,394.9531 1061.1094,395.5625 L1061.1094,397.0156 Q1061.1094,397.625 1060.875,397.8906 Q1060.6406,398.1563 1060.2656,398.1563 Q1059.9219,398.1563 1059.7188,397.9531 Q1059.5156,397.7656 1059.4063,397.25 Q1059.3594,396.8906 1059.1719,396.7031 Q1058.8438,396.3281 1058.2344,396.1094 Q1057.625,395.8906 1057,395.8906 Q1056.2344,395.8906 1055.5938,396.2188 Q1054.9688,396.5469 1054.4688,397.2969 Q1053.9844,398.0469 1053.9844,399.0781 L1053.9844,400.1719 Q1053.9844,401.4063 1054.875,402.2344 Q1055.7656,403.0469 1057.3594,403.0469 Q1058.2969,403.0469 1058.9531,402.7969 Q1059.3438,402.6406 1059.7656,402.2031 Q1060.0313,401.9375 1060.1719,401.8594 Q1060.3281,401.7813 1060.5313,401.7813 Q1060.8594,401.7813 1061.1094,402.0469 Q1061.375,402.2969 1061.375,402.6406 Q1061.375,402.9844 1061.0313,403.3906 Q1060.5313,403.9688 1059.7344,404.2969 Q1058.6563,404.75 1057.3594,404.75 Q1055.8438,404.75 1054.6406,404.125 Q1053.6563,403.625 1052.9688,402.5625 Q1052.2813,401.4844 1052.2813,400.2031 L1052.2813,399.0469 Q1052.2813,397.7188 1052.8906,396.5781 Q1053.5156,395.4219 1054.6094,394.8125 Q1055.7031,394.1875 1056.9375,394.1875 Q1057.6719,394.1875 1058.3125,394.3594 Q1058.9688,394.5156 1059.5156,394.875 Z "/><text fill="#000000" font-family="sans-serif" font-size="12" lengthAdjust="spacingAndGlyphs" textLength="60" x="1077.25" y="403.9102">PlayerView</text><line style="stroke: #A80036; stroke-width: 1.5;" x1="919" x2="1263" y1="415" y2="415"/><polygon fill="none" points="929,421,933,425,929,429,925,425" style="stroke: #B38D22; stroke-width: 1.0;"/><text fill="#000000" font-family="sans-serif" font-size="11" lengthAdjust="spacingAndGlyphs" textLength="66" x="938" y="430.4189">player: Player</text><line style="stroke: #A80036; stroke-width: 1.5;" x1="919" x2="1263" y1="436.8359" y2="436.8359"/><polygon fill="#4177AF" points="929,443.8359,925,449.8359,933,449.8359" style="stroke: #1963A0; stroke-width: 1.0;"/><text fill="#000000" font-family="sans-serif" font-size="11" lengthAdjust="spacingAndGlyphs" textLength="94" x="938" y="452.2549">PlayerView(Player)</text><polygon fill="#4177AF" points="929,457.6719,925,463.6719,933,463.6719" style="stroke: #1963A0; stroke-width: 1.0;"/><text fill="#000000" font-family="sans-serif" font-size="11" font-style="italic" lengthAdjust="spacingAndGlyphs" textLength="173" x="938" y="466.0908">readCoordinateToPut(): Coordinate</text><polygon fill="#4177AF" points="929,471.5078,925,477.5078,933,477.5078" style="stroke: #1963A0; stroke-width: 1.0;"/><text fill="#000000" font-family="sans-serif" font-size="11" font-style="italic" lengthAdjust="spacingAndGlyphs" textLength="195" x="938" y="479.9268">readCoordinatesToMove(): Coordinate[]</text><polygon fill="#4177AF" points="929,485.3438,925,491.3438,933,491.3438" style="stroke: #1963A0; stroke-width: 1.0;"/><text fill="#000000" font-family="sans-serif" font-size="11" lengthAdjust="spacingAndGlyphs" textLength="220" x="938" y="493.7627">controlErrorsPutCoordinate(Coordinate): Error</text><polygon fill="#4177AF" points="929,499.1797,925,505.1797,933,505.1797" style="stroke: #1963A0; stroke-width: 1.0;"/><text fill="#000000" font-family="sans-serif" font-size="11" lengthAdjust="spacingAndGlyphs" textLength="259" x="938" y="507.5986">controlErrorsMoveOriginCoordinate(Coordinate): Error</text><polygon fill="#4177AF" points="929,513.0156,925,519.0156,933,519.0156" style="stroke: #1963A0; stroke-width: 1.0;"/><text fill="#000000" font-family="sans-serif" font-size="11" lengthAdjust="spacingAndGlyphs" textLength="320" x="938" y="521.4346">controlErrorsMoveTargetCoordinate(Coordinate, Coordinate): Error</text><!--MD5=[d0ec73423b3bfd3954fbf7197d3af4d8]
class tictactoe.views.PlayView--><rect fill="#FEFECE" filter="url(#fgfyv0lmi8l45)" height="89.5078" id="tictactoe.views.PlayView" style="stroke: #A80036; stroke-width: 1.5;" width="114" x="974" y="233"/><ellipse cx="1003.85" cy="249" fill="#ADD1B2" rx="11" ry="11" style="stroke: #A80036; stroke-width: 1.0;"/><path d="M1006.6156,244.875 Q1006.7719,244.6563 1006.9594,244.5469 Q1007.1469,244.4375 1007.3656,244.4375 Q1007.7406,244.4375 1007.975,244.7031 Q1008.2094,244.9531 1008.2094,245.5625 L1008.2094,247.0156 Q1008.2094,247.625 1007.975,247.8906 Q1007.7406,248.1563 1007.3656,248.1563 Q1007.0219,248.1563 1006.8188,247.9531 Q1006.6156,247.7656 1006.5063,247.25 Q1006.4594,246.8906 1006.2719,246.7031 Q1005.9438,246.3281 1005.3344,246.1094 Q1004.725,245.8906 1004.1,245.8906 Q1003.3344,245.8906 1002.6938,246.2188 Q1002.0688,246.5469 1001.5688,247.2969 Q1001.0844,248.0469 1001.0844,249.0781 L1001.0844,250.1719 Q1001.0844,251.4063 1001.975,252.2344 Q1002.8656,253.0469 1004.4594,253.0469 Q1005.3969,253.0469 1006.0531,252.7969 Q1006.4438,252.6406 1006.8656,252.2031 Q1007.1313,251.9375 1007.2719,251.8594 Q1007.4281,251.7813 1007.6313,251.7813 Q1007.9594,251.7813 1008.2094,252.0469 Q1008.475,252.2969 1008.475,252.6406 Q1008.475,252.9844 1008.1313,253.3906 Q1007.6313,253.9688 1006.8344,254.2969 Q1005.7563,254.75 1004.4594,254.75 Q1002.9438,254.75 1001.7406,254.125 Q1000.7563,253.625 1000.0688,252.5625 Q999.3813,251.4844 999.3813,250.2031 L999.3813,249.0469 Q999.3813,247.7188 999.9906,246.5781 Q1000.6156,245.4219 1001.7094,244.8125 Q1002.8031,244.1875 1004.0375,244.1875 Q1004.7719,244.1875 1005.4125,244.3594 Q1006.0688,244.5156 1006.6156,244.875 Z "/><text fill="#000000" font-family="sans-serif" font-size="12" lengthAdjust="spacingAndGlyphs" textLength="49" x="1021.15" y="253.9102">PlayView</text><line style="stroke: #A80036; stroke-width: 1.5;" x1="975" x2="1087" y1="265" y2="265"/><polygon fill="none" points="985,272,981,278,989,278" style="stroke: #1963A0; stroke-width: 1.0;"/><text fill="#000000" font-family="sans-serif" font-size="11" lengthAdjust="spacingAndGlyphs" textLength="60" x="994" y="280.4189">game: Game</text><line style="stroke: #A80036; stroke-width: 1.5;" x1="975" x2="1087" y1="286.8359" y2="286.8359"/><polygon fill="#4177AF" points="985,293.8359,981,299.8359,989,299.8359" style="stroke: #1963A0; stroke-width: 1.0;"/><text fill="#000000" font-family="sans-serif" font-size="11" lengthAdjust="spacingAndGlyphs" textLength="82" x="994" y="302.2549">PlayView(Game)</text><polygon fill="#4177AF" points="985,307.6719,981,313.6719,989,313.6719" style="stroke: #1963A0; stroke-width: 1.0;"/><text fill="#000000" font-family="sans-serif" font-size="11" lengthAdjust="spacingAndGlyphs" textLength="88" x="994" y="316.0908">interact(): boolean</text><!--MD5=[973b15c09f519f065f4b28972f0c8773]
class tictactoe.views.ResultView--><rect fill="#FEFECE" filter="url(#fgfyv0lmi8l45)" height="89.5078" id="tictactoe.views.ResultView" style="stroke: #A80036; stroke-width: 1.5;" width="118" x="567" y="233"/><ellipse cx="592.8" cy="249" fill="#ADD1B2" rx="11" ry="11" style="stroke: #A80036; stroke-width: 1.0;"/><path d="M595.5656,244.875 Q595.7219,244.6563 595.9094,244.5469 Q596.0969,244.4375 596.3156,244.4375 Q596.6906,244.4375 596.925,244.7031 Q597.1594,244.9531 597.1594,245.5625 L597.1594,247.0156 Q597.1594,247.625 596.925,247.8906 Q596.6906,248.1563 596.3156,248.1563 Q595.9719,248.1563 595.7688,247.9531 Q595.5656,247.7656 595.4563,247.25 Q595.4094,246.8906 595.2219,246.7031 Q594.8938,246.3281 594.2844,246.1094 Q593.675,245.8906 593.05,245.8906 Q592.2844,245.8906 591.6438,246.2188 Q591.0188,246.5469 590.5188,247.2969 Q590.0344,248.0469 590.0344,249.0781 L590.0344,250.1719 Q590.0344,251.4063 590.925,252.2344 Q591.8156,253.0469 593.4094,253.0469 Q594.3469,253.0469 595.0031,252.7969 Q595.3938,252.6406 595.8156,252.2031 Q596.0813,251.9375 596.2219,251.8594 Q596.3781,251.7813 596.5813,251.7813 Q596.9094,251.7813 597.1594,252.0469 Q597.425,252.2969 597.425,252.6406 Q597.425,252.9844 597.0813,253.3906 Q596.5813,253.9688 595.7844,254.2969 Q594.7063,254.75 593.4094,254.75 Q591.8938,254.75 590.6906,254.125 Q589.7063,253.625 589.0188,252.5625 Q588.3313,251.4844 588.3313,250.2031 L588.3313,249.0469 Q588.3313,247.7188 588.9406,246.5781 Q589.5656,245.4219 590.6594,244.8125 Q591.7531,244.1875 592.9875,244.1875 Q593.7219,244.1875 594.3625,244.3594 Q595.0188,244.5156 595.5656,244.875 Z "/><text fill="#000000" font-family="sans-serif" font-size="12" lengthAdjust="spacingAndGlyphs" textLength="62" x="609.2" y="253.9102">ResultView</text><line style="stroke: #A80036; stroke-width: 1.5;" x1="568" x2="684" y1="265" y2="265"/><polygon fill="none" points="578,272,574,278,582,278" style="stroke: #1963A0; stroke-width: 1.0;"/><text fill="#000000" font-family="sans-serif" font-size="11" lengthAdjust="spacingAndGlyphs" textLength="60" x="587" y="280.4189">game: Game</text><line style="stroke: #A80036; stroke-width: 1.5;" x1="568" x2="684" y1="286.8359" y2="286.8359"/><polygon fill="#4177AF" points="578,293.8359,574,299.8359,582,299.8359" style="stroke: #1963A0; stroke-width: 1.0;"/><text fill="#000000" font-family="sans-serif" font-size="11" lengthAdjust="spacingAndGlyphs" textLength="92" x="587" y="302.2549">ResultView(Game)</text><polygon fill="#4177AF" points="578,307.6719,574,313.6719,582,313.6719" style="stroke: #1963A0; stroke-width: 1.0;"/><text fill="#000000" font-family="sans-serif" font-size="11" lengthAdjust="spacingAndGlyphs" textLength="70" x="587" y="316.0908">interact(): void</text><!--MD5=[24b5a9b67986ee811680be72c33ee9c1]
class tictactoe.views.TokenView--><rect fill="#FEFECE" filter="url(#fgfyv0lmi8l45)" height="89.5078" id="tictactoe.views.TokenView" style="stroke: #A80036; stroke-width: 1.5;" width="118" x="339" y="410.5"/><ellipse cx="365.7" cy="426.5" fill="#ADD1B2" rx="11" ry="11" style="stroke: #A80036; stroke-width: 1.0;"/><path d="M368.4656,422.375 Q368.6219,422.1563 368.8094,422.0469 Q368.9969,421.9375 369.2156,421.9375 Q369.5906,421.9375 369.825,422.2031 Q370.0594,422.4531 370.0594,423.0625 L370.0594,424.5156 Q370.0594,425.125 369.825,425.3906 Q369.5906,425.6563 369.2156,425.6563 Q368.8719,425.6563 368.6688,425.4531 Q368.4656,425.2656 368.3563,424.75 Q368.3094,424.3906 368.1219,424.2031 Q367.7938,423.8281 367.1844,423.6094 Q366.575,423.3906 365.95,423.3906 Q365.1844,423.3906 364.5438,423.7188 Q363.9188,424.0469 363.4188,424.7969 Q362.9344,425.5469 362.9344,426.5781 L362.9344,427.6719 Q362.9344,428.9063 363.825,429.7344 Q364.7156,430.5469 366.3094,430.5469 Q367.2469,430.5469 367.9031,430.2969 Q368.2938,430.1406 368.7156,429.7031 Q368.9813,429.4375 369.1219,429.3594 Q369.2781,429.2813 369.4813,429.2813 Q369.8094,429.2813 370.0594,429.5469 Q370.325,429.7969 370.325,430.1406 Q370.325,430.4844 369.9813,430.8906 Q369.4813,431.4688 368.6844,431.7969 Q367.6063,432.25 366.3094,432.25 Q364.7938,432.25 363.5906,431.625 Q362.6063,431.125 361.9188,430.0625 Q361.2313,428.9844 361.2313,427.7031 L361.2313,426.5469 Q361.2313,425.2188 361.8406,424.0781 Q362.4656,422.9219 363.5594,422.3125 Q364.6531,421.6875 365.8875,421.6875 Q366.6219,421.6875 367.2625,421.8594 Q367.9188,422.0156 368.4656,422.375 Z "/><text fill="#000000" font-family="sans-serif" font-size="12" lengthAdjust="spacingAndGlyphs" textLength="60" x="382.3" y="431.4102">TokenView</text><line style="stroke: #A80036; stroke-width: 1.5;" x1="340" x2="456" y1="442.5" y2="442.5"/><polygon fill="none" points="350,449.5,346,455.5,354,455.5" style="stroke: #1963A0; stroke-width: 1.0;"/><text fill="#000000" font-family="sans-serif" font-size="11" lengthAdjust="spacingAndGlyphs" textLength="61" x="359" y="457.9189">token: Token</text><line style="stroke: #A80036; stroke-width: 1.5;" x1="340" x2="456" y1="464.3359" y2="464.3359"/><polygon fill="#4177AF" points="350,471.3359,346,477.3359,354,477.3359" style="stroke: #1963A0; stroke-width: 1.0;"/><text fill="#000000" font-family="sans-serif" font-size="11" lengthAdjust="spacingAndGlyphs" textLength="92" x="359" y="479.7549">TokenView(Token)</text><polygon fill="#4177AF" points="350,485.1719,346,491.1719,354,491.1719" style="stroke: #1963A0; stroke-width: 1.0;"/><text fill="#000000" font-family="sans-serif" font-size="11" lengthAdjust="spacingAndGlyphs" textLength="59" x="359" y="493.5908">write(): void</text><!--MD5=[50a4c98617440bec164bf073e81d587d]
class tictactoe.views.StartView--><rect fill="#FEFECE" filter="url(#fgfyv0lmi8l45)" height="89.5078" id="tictactoe.views.StartView" style="stroke: #A80036; stroke-width: 1.5;" width="111" x="720.5" y="233"/><ellipse cx="748.1" cy="249" fill="#ADD1B2" rx="11" ry="11" style="stroke: #A80036; stroke-width: 1.0;"/><path d="M750.8656,244.875 Q751.0219,244.6563 751.2094,244.5469 Q751.3969,244.4375 751.6156,244.4375 Q751.9906,244.4375 752.225,244.7031 Q752.4594,244.9531 752.4594,245.5625 L752.4594,247.0156 Q752.4594,247.625 752.225,247.8906 Q751.9906,248.1563 751.6156,248.1563 Q751.2719,248.1563 751.0688,247.9531 Q750.8656,247.7656 750.7563,247.25 Q750.7094,246.8906 750.5219,246.7031 Q750.1938,246.3281 749.5844,246.1094 Q748.975,245.8906 748.35,245.8906 Q747.5844,245.8906 746.9438,246.2188 Q746.3188,246.5469 745.8188,247.2969 Q745.3344,248.0469 745.3344,249.0781 L745.3344,250.1719 Q745.3344,251.4063 746.225,252.2344 Q747.1156,253.0469 748.7094,253.0469 Q749.6469,253.0469 750.3031,252.7969 Q750.6938,252.6406 751.1156,252.2031 Q751.3813,251.9375 751.5219,251.8594 Q751.6781,251.7813 751.8813,251.7813 Q752.2094,251.7813 752.4594,252.0469 Q752.725,252.2969 752.725,252.6406 Q752.725,252.9844 752.3813,253.3906 Q751.8813,253.9688 751.0844,254.2969 Q750.0063,254.75 748.7094,254.75 Q747.1938,254.75 745.9906,254.125 Q745.0063,253.625 744.3188,252.5625 Q743.6313,251.4844 743.6313,250.2031 L743.6313,249.0469 Q743.6313,247.7188 744.2406,246.5781 Q744.8656,245.4219 745.9594,244.8125 Q747.0531,244.1875 748.2875,244.1875 Q749.0219,244.1875 749.6625,244.3594 Q750.3188,244.5156 750.8656,244.875 Z "/><text fill="#000000" font-family="sans-serif" font-size="12" lengthAdjust="spacingAndGlyphs" textLength="51" x="764.9" y="253.9102">StartView</text><line style="stroke: #A80036; stroke-width: 1.5;" x1="721.5" x2="830.5" y1="265" y2="265"/><polygon fill="none" points="731.5,272,727.5,278,735.5,278" style="stroke: #1963A0; stroke-width: 1.0;"/><text fill="#000000" font-family="sans-serif" font-size="11" lengthAdjust="spacingAndGlyphs" textLength="60" x="740.5" y="280.4189">game: Game</text><line style="stroke: #A80036; stroke-width: 1.5;" x1="721.5" x2="830.5" y1="286.8359" y2="286.8359"/><polygon fill="#4177AF" points="731.5,293.8359,727.5,299.8359,735.5,299.8359" style="stroke: #1963A0; stroke-width: 1.0;"/><text fill="#000000" font-family="sans-serif" font-size="11" lengthAdjust="spacingAndGlyphs" textLength="85" x="740.5" y="302.2549">StartView(Game)</text><polygon fill="#4177AF" points="731.5,307.6719,727.5,313.6719,735.5,313.6719" style="stroke: #1963A0; stroke-width: 1.0;"/><text fill="#000000" font-family="sans-serif" font-size="11" lengthAdjust="spacingAndGlyphs" textLength="70" x="740.5" y="316.0908">interact(): void</text><!--MD5=[4e5fca12f01c5426c188915da515377f]
class tictactoe.views.UserPlayerView--><rect fill="#FEFECE" filter="url(#fgfyv0lmi8l45)" height="117.1797" id="tictactoe.views.UserPlayerView" style="stroke: #A80036; stroke-width: 1.5;" width="233" x="720.5" y="650.5"/><ellipse cx="789.25" cy="666.5" fill="#ADD1B2" rx="11" ry="11" style="stroke: #A80036; stroke-width: 1.0;"/><path d="M792.0156,662.375 Q792.1719,662.1563 792.3594,662.0469 Q792.5469,661.9375 792.7656,661.9375 Q793.1406,661.9375 793.375,662.2031 Q793.6094,662.4531 793.6094,663.0625 L793.6094,664.5156 Q793.6094,665.125 793.375,665.3906 Q793.1406,665.6563 792.7656,665.6563 Q792.4219,665.6563 792.2188,665.4531 Q792.0156,665.2656 791.9063,664.75 Q791.8594,664.3906 791.6719,664.2031 Q791.3438,663.8281 790.7344,663.6094 Q790.125,663.3906 789.5,663.3906 Q788.7344,663.3906 788.0938,663.7188 Q787.4688,664.0469 786.9688,664.7969 Q786.4844,665.5469 786.4844,666.5781 L786.4844,667.6719 Q786.4844,668.9063 787.375,669.7344 Q788.2656,670.5469 789.8594,670.5469 Q790.7969,670.5469 791.4531,670.2969 Q791.8438,670.1406 792.2656,669.7031 Q792.5313,669.4375 792.6719,669.3594 Q792.8281,669.2813 793.0313,669.2813 Q793.3594,669.2813 793.6094,669.5469 Q793.875,669.7969 793.875,670.1406 Q793.875,670.4844 793.5313,670.8906 Q793.0313,671.4688 792.2344,671.7969 Q791.1563,672.25 789.8594,672.25 Q788.3438,672.25 787.1406,671.625 Q786.1563,671.125 785.4688,670.0625 Q784.7813,668.9844 784.7813,667.7031 L784.7813,666.5469 Q784.7813,665.2188 785.3906,664.0781 Q786.0156,662.9219 787.1094,662.3125 Q788.2031,661.6875 789.4375,661.6875 Q790.1719,661.6875 790.8125,661.8594 Q791.4688,662.0156 792.0156,662.375 Z "/><text fill="#000000" font-family="sans-serif" font-size="12" lengthAdjust="spacingAndGlyphs" textLength="87" x="809.75" y="671.4102">UserPlayerView</text><line style="stroke: #A80036; stroke-width: 1.5;" x1="721.5" x2="952.5" y1="682.5" y2="682.5"/><polygon fill="none" points="731.5,689.5,727.5,695.5,735.5,695.5" style="stroke: #1963A0; stroke-width: 1.0;"/><text fill="#000000" font-family="sans-serif" font-size="11" lengthAdjust="spacingAndGlyphs" text-decoration="underline" textLength="183" x="740.5" y="697.9189">ENTER_COORDINATE_TO_PUT: String</text><polygon fill="none" points="731.5,703.3359,727.5,709.3359,735.5,709.3359" style="stroke: #1963A0; stroke-width: 1.0;"/><text fill="#000000" font-family="sans-serif" font-size="11" lengthAdjust="spacingAndGlyphs" text-decoration="underline" textLength="207" x="740.5" y="711.7549">ENTER_COORDINATE_TO_REMOVE: String</text><line style="stroke: #A80036; stroke-width: 1.5;" x1="721.5" x2="952.5" y1="718.1719" y2="718.1719"/><polygon fill="#4177AF" points="731.5,725.1719,727.5,731.1719,735.5,731.1719" style="stroke: #1963A0; stroke-width: 1.0;"/><text fill="#000000" font-family="sans-serif" font-size="11" lengthAdjust="spacingAndGlyphs" textLength="117" x="740.5" y="733.5908">UserPlayerView(Player)</text><polygon fill="#4177AF" points="731.5,739.0078,727.5,745.0078,735.5,745.0078" style="stroke: #1963A0; stroke-width: 1.0;"/><text fill="#000000" font-family="sans-serif" font-size="11" lengthAdjust="spacingAndGlyphs" textLength="167" x="740.5" y="747.4268">readCoordinateToPut(): Coordinate</text><polygon fill="#4177AF" points="731.5,752.8438,727.5,758.8438,735.5,758.8438" style="stroke: #1963A0; stroke-width: 1.0;"/><text fill="#000000" font-family="sans-serif" font-size="11" lengthAdjust="spacingAndGlyphs" textLength="190" x="740.5" y="761.2627">readCoordinatesToMove(): Coordinate[]</text><!--MD5=[015754420c4cdd9bacda884b3fa8c6ca]
class tictactoe.views.View--><rect fill="#FEFECE" filter="url(#fgfyv0lmi8l45)" height="131.0156" id="tictactoe.views.View" style="stroke: #A80036; stroke-width: 1.5;" width="144" x="704" y="42"/><ellipse cx="758.75" cy="58" fill="#ADD1B2" rx="11" ry="11" style="stroke: #A80036; stroke-width: 1.0;"/><path d="M761.5156,53.875 Q761.6719,53.6563 761.8594,53.5469 Q762.0469,53.4375 762.2656,53.4375 Q762.6406,53.4375 762.875,53.7031 Q763.1094,53.9531 763.1094,54.5625 L763.1094,56.0156 Q763.1094,56.625 762.875,56.8906 Q762.6406,57.1563 762.2656,57.1563 Q761.9219,57.1563 761.7188,56.9531 Q761.5156,56.7656 761.4063,56.25 Q761.3594,55.8906 761.1719,55.7031 Q760.8438,55.3281 760.2344,55.1094 Q759.625,54.8906 759,54.8906 Q758.2344,54.8906 757.5938,55.2188 Q756.9688,55.5469 756.4688,56.2969 Q755.9844,57.0469 755.9844,58.0781 L755.9844,59.1719 Q755.9844,60.4063 756.875,61.2344 Q757.7656,62.0469 759.3594,62.0469 Q760.2969,62.0469 760.9531,61.7969 Q761.3438,61.6406 761.7656,61.2031 Q762.0313,60.9375 762.1719,60.8594 Q762.3281,60.7813 762.5313,60.7813 Q762.8594,60.7813 763.1094,61.0469 Q763.375,61.2969 763.375,61.6406 Q763.375,61.9844 763.0313,62.3906 Q762.5313,62.9688 761.7344,63.2969 Q760.6563,63.75 759.3594,63.75 Q757.8438,63.75 756.6406,63.125 Q755.6563,62.625 754.9688,61.5625 Q754.2813,60.4844 754.2813,59.2031 L754.2813,58.0469 Q754.2813,56.7188 754.8906,55.5781 Q755.5156,54.4219 756.6094,53.8125 Q757.7031,53.1875 758.9375,53.1875 Q759.6719,53.1875 760.3125,53.3594 Q760.9688,53.5156 761.5156,53.875 Z "/><text fill="#000000" font-family="sans-serif" font-size="12" lengthAdjust="spacingAndGlyphs" textLength="26" x="779.25" y="62.9102">View</text><line style="stroke: #A80036; stroke-width: 1.5;" x1="705" x2="847" y1="74" y2="74"/><polygon fill="none" points="715,80,719,84,715,88,711,84" style="stroke: #B38D22; stroke-width: 1.0;"/><text fill="#000000" font-family="sans-serif" font-size="11" lengthAdjust="spacingAndGlyphs" textLength="60" x="724" y="89.4189">game: Game</text><rect fill="none" height="6" style="stroke: #C82930; stroke-width: 1.0;" width="6" x="712" y="95.8359"/><text fill="#000000" font-family="sans-serif" font-size="11" lengthAdjust="spacingAndGlyphs" textLength="103" x="724" y="103.2549">startView: StartView</text><rect fill="none" height="6" style="stroke: #C82930; stroke-width: 1.0;" width="6" x="712" y="109.6719"/><text fill="#000000" font-family="sans-serif" font-size="11" lengthAdjust="spacingAndGlyphs" textLength="98" x="724" y="117.0908">playView: PlayView</text><rect fill="none" height="6" style="stroke: #C82930; stroke-width: 1.0;" width="6" x="712" y="123.5078"/><text fill="#000000" font-family="sans-serif" font-size="11" lengthAdjust="spacingAndGlyphs" textLength="118" x="724" y="130.9268">ResultView: ResultView</text><line style="stroke: #A80036; stroke-width: 1.5;" x1="705" x2="847" y1="137.3438" y2="137.3438"/><ellipse cx="715" cy="148.3438" fill="#84BE84" rx="3" ry="3" style="stroke: #038048; stroke-width: 1.0;"/><text fill="#000000" font-family="sans-serif" font-size="11" lengthAdjust="spacingAndGlyphs" textLength="62" x="724" y="152.7627">View(Game)</text><ellipse cx="715" cy="162.1797" fill="#84BE84" rx="3" ry="3" style="stroke: #038048; stroke-width: 1.0;"/><text fill="#000000" font-family="sans-serif" font-size="11" lengthAdjust="spacingAndGlyphs" textLength="70" x="724" y="166.5986">interact(): void</text><!--MD5=[959c5b36bcbb0655df73030dc49c5e5e]
class utils.WithConsoleModel--><rect fill="#FEFECE" filter="url(#fgfyv0lmi8l45)" height="48" id="utils.WithConsoleModel" style="stroke: #A80036; stroke-width: 1.5;" width="136" x="147" y="254"/><ellipse cx="162" cy="270" fill="#ADD1B2" rx="11" ry="11" style="stroke: #A80036; stroke-width: 1.0;"/><path d="M164.7656,265.875 Q164.9219,265.6563 165.1094,265.5469 Q165.2969,265.4375 165.5156,265.4375 Q165.8906,265.4375 166.125,265.7031 Q166.3594,265.9531 166.3594,266.5625 L166.3594,268.0156 Q166.3594,268.625 166.125,268.8906 Q165.8906,269.1563 165.5156,269.1563 Q165.1719,269.1563 164.9688,268.9531 Q164.7656,268.7656 164.6563,268.25 Q164.6094,267.8906 164.4219,267.7031 Q164.0938,267.3281 163.4844,267.1094 Q162.875,266.8906 162.25,266.8906 Q161.4844,266.8906 160.8438,267.2188 Q160.2188,267.5469 159.7188,268.2969 Q159.2344,269.0469 159.2344,270.0781 L159.2344,271.1719 Q159.2344,272.4063 160.125,273.2344 Q161.0156,274.0469 162.6094,274.0469 Q163.5469,274.0469 164.2031,273.7969 Q164.5938,273.6406 165.0156,273.2031 Q165.2813,272.9375 165.4219,272.8594 Q165.5781,272.7813 165.7813,272.7813 Q166.1094,272.7813 166.3594,273.0469 Q166.625,273.2969 166.625,273.6406 Q166.625,273.9844 166.2813,274.3906 Q165.7813,274.9688 164.9844,275.2969 Q163.9063,275.75 162.6094,275.75 Q161.0938,275.75 159.8906,275.125 Q158.9063,274.625 158.2188,273.5625 Q157.5313,272.4844 157.5313,271.2031 L157.5313,270.0469 Q157.5313,268.7188 158.1406,267.5781 Q158.7656,266.4219 159.8594,265.8125 Q160.9531,265.1875 162.1875,265.1875 Q162.9219,265.1875 163.5625,265.3594 Q164.2188,265.5156 164.7656,265.875 Z "/><text fill="#000000" font-family="sans-serif" font-size="12" lengthAdjust="spacingAndGlyphs" textLength="104" x="176" y="274.9102">WithConsoleModel</text><line style="stroke: #A80036; stroke-width: 1.5;" x1="148" x2="282" y1="286" y2="286"/><line style="stroke: #A80036; stroke-width: 1.5;" x1="148" x2="282" y1="294" y2="294"/><!--MD5=[8af4fdb787b135b7271f9ce04b92f747]
class utils.Console--><rect fill="#FEFECE" filter="url(#fgfyv0lmi8l45)" height="48" id="utils.Console" style="stroke: #A80036; stroke-width: 1.5;" width="79" x="32.5" y="254"/><ellipse cx="47.5" cy="270" fill="#ADD1B2" rx="11" ry="11" style="stroke: #A80036; stroke-width: 1.0;"/><path d="M50.2656,265.875 Q50.4219,265.6563 50.6094,265.5469 Q50.7969,265.4375 51.0156,265.4375 Q51.3906,265.4375 51.625,265.7031 Q51.8594,265.9531 51.8594,266.5625 L51.8594,268.0156 Q51.8594,268.625 51.625,268.8906 Q51.3906,269.1563 51.0156,269.1563 Q50.6719,269.1563 50.4688,268.9531 Q50.2656,268.7656 50.1563,268.25 Q50.1094,267.8906 49.9219,267.7031 Q49.5938,267.3281 48.9844,267.1094 Q48.375,266.8906 47.75,266.8906 Q46.9844,266.8906 46.3438,267.2188 Q45.7188,267.5469 45.2188,268.2969 Q44.7344,269.0469 44.7344,270.0781 L44.7344,271.1719 Q44.7344,272.4063 45.625,273.2344 Q46.5156,274.0469 48.1094,274.0469 Q49.0469,274.0469 49.7031,273.7969 Q50.0938,273.6406 50.5156,273.2031 Q50.7813,272.9375 50.9219,272.8594 Q51.0781,272.7813 51.2813,272.7813 Q51.6094,272.7813 51.8594,273.0469 Q52.125,273.2969 52.125,273.6406 Q52.125,273.9844 51.7813,274.3906 Q51.2813,274.9688 50.4844,275.2969 Q49.4063,275.75 48.1094,275.75 Q46.5938,275.75 45.3906,275.125 Q44.4063,274.625 43.7188,273.5625 Q43.0313,272.4844 43.0313,271.2031 L43.0313,270.0469 Q43.0313,268.7188 43.6406,267.5781 Q44.2656,266.4219 45.3594,265.8125 Q46.4531,265.1875 47.6875,265.1875 Q48.4219,265.1875 49.0625,265.3594 Q49.7188,265.5156 50.2656,265.875 Z "/><text fill="#000000" font-family="sans-serif" font-size="12" lengthAdjust="spacingAndGlyphs" textLength="47" x="61.5" y="274.9102">Console</text><line style="stroke: #A80036; stroke-width: 1.5;" x1="33.5" x2="110.5" y1="286" y2="286"/><line style="stroke: #A80036; stroke-width: 1.5;" x1="33.5" x2="110.5" y1="294" y2="294"/><!--MD5=[803524df15bfb341b4c6af689d68111c]
reverse link utils.WithConsoleModel to tictactoe.views.CoordinateView--><path d="M196.997,320.828 C157.343,420.141 74.6995,673.509 189,830 C221.683,874.748 372.566,910.135 463.95,927.9238 " fill="none" id="utils.WithConsoleModel&lt;-tictactoe.views.CoordinateView" style="stroke: #A80036; stroke-width: 1.0;"/><polygon fill="none" points="190.634,317.895,204.72,302.065,203.581,323.224,190.634,317.895" style="stroke: #A80036; stroke-width: 1.0;"/><!--MD5=[9d9eefca5b096b0841160e599e841e2e]
reverse link utils.WithConsoleModel to tictactoe.views.ErrorView--><path d="M219.005,322.365 C230.967,426.197 275.88,690.772 431,830 C443.657,841.36 652.798,894.679 765.824,922.891 " fill="none" id="utils.WithConsoleModel&lt;-tictactoe.views.ErrorView" style="stroke: #A80036; stroke-width: 1.0;"/><polygon fill="none" points="212.017,322.843,216.874,302.218,225.939,321.37,212.017,322.843" style="stroke: #A80036; stroke-width: 1.0;"/><!--MD5=[84c27f8b1e1dd541e0015606fcfe94ee]
reverse link utils.WithConsoleModel to tictactoe.views.ChoosePlayerView--><path d="M285.23,310.161 C297.763,315.551 310.733,321.019 323,326 C389.463,352.987 410.735,349.188 474,383 C488.776,390.897 503.893,400.674 517.752,410.435 " fill="none" id="utils.WithConsoleModel&lt;-tictactoe.views.ChoosePlayerView" style="stroke: #A80036; stroke-width: 1.0;"/><polygon fill="none" points="282.251,316.499,266.692,302.115,287.825,303.657,282.251,316.499" style="stroke: #A80036; stroke-width: 1.0;"/><!--MD5=[6d91909534c6522dcd03bcfbef4764f6]
link tictactoe.views.ChoosePlayerView to tictactoe.views.MessageView--><path d="M572.773,500.596 C572.13,523.701 571.306,553.286 570.484,582.829 " fill="none" id="tictactoe.views.ChoosePlayerView-&gt;tictactoe.views.MessageView" style="stroke: #A80036; stroke-width: 1.0; stroke-dasharray: 7.0,7.0;"/><polygon fill="#A80036" points="570.341,587.955,574.5889,579.0693,570.4796,582.9569,566.5919,578.8476,570.341,587.955" style="stroke: #A80036; stroke-width: 1.0;"/><!--MD5=[20e81308c0403a45c4e97f8c1df924ce]
reverse link tictactoe.views.PlayerView to tictactoe.views.MachinePlayerView--><path d="M1093.19,548.314 C1094.13,587.725 1095.19,631.943 1095.95,663.838 " fill="none" id="tictactoe.views.PlayerView&lt;-tictactoe.views.MachinePlayerView" style="stroke: #A80036; stroke-width: 1.0;"/><polygon fill="none" points="1086.19,548.395,1092.71,528.233,1100.19,548.061,1086.19,548.395" style="stroke: #A80036; stroke-width: 1.0;"/><!--MD5=[f9c315c096834f768787d21fa9159728]
link tictactoe.views.MachinePlayerView to tictactoe.views.ErrorView--><path d="M1052.24,754.121 C1028.49,777.153 998.578,805.553 971,830 C949.652,848.925 925.781,868.954 904.167,886.686 " fill="none" id="tictactoe.views.MachinePlayerView-&gt;tictactoe.views.ErrorView" style="stroke: #A80036; stroke-width: 1.0; stroke-dasharray: 7.0,7.0;"/><polygon fill="#A80036" points="900.159,889.97,909.6557,887.36,904.0266,886.8011,904.5855,881.1719,900.159,889.97" style="stroke: #A80036; stroke-width: 1.0;"/><!--MD5=[0ad3c58d95a8180d95833dfe832d13d7]
link tictactoe.views.MessageView to utils.Console--><path d="M448.425,626.854 C407.046,597.086 360.982,562.265 321,528 C233.406,452.932 139.659,353.246 96.4198,306.017 " fill="none" id="tictactoe.views.MessageView-&gt;utils.Console" style="stroke: #A80036; stroke-width: 1.0; stroke-dasharray: 7.0,7.0;"/><polygon fill="#A80036" points="92.8942,302.16,96.0133,311.5019,96.2674,305.8508,101.9185,306.1048,92.8942,302.16" style="stroke: #A80036; stroke-width: 1.0;"/><!--MD5=[ed2f2162f6705e4efea2048dc683c831]
link tictactoe.views.PlayView to tictactoe.views.PlayerView--><path d="M1046.14,323.286 C1051.84,339.949 1058.49,359.409 1064.9,378.162 " fill="none" id="tictactoe.views.PlayView-&gt;tictactoe.views.PlayerView" style="stroke: #A80036; stroke-width: 1.0; stroke-dasharray: 7.0,7.0;"/><polygon fill="#A80036" points="1066.53,382.912,1067.3998,373.1016,1064.9108,378.1815,1059.8309,375.6924,1066.53,382.912" style="stroke: #A80036; stroke-width: 1.0;"/><!--MD5=[c036dee113f5971567d9d64c949bd867]
link tictactoe.views.ResultView to tictactoe.views.TokenView--><path d="M566.856,316.842 C538.387,335.777 504.182,359.606 475,383 C465.784,390.388 456.304,398.613 447.283,406.779 " fill="none" id="tictactoe.views.ResultView-&gt;tictactoe.views.TokenView" style="stroke: #A80036; stroke-width: 1.0; stroke-dasharray: 7.0,7.0;"/><polygon fill="#A80036" points="443.447,410.272,452.7944,407.1693,447.1437,406.9053,447.4076,401.2546,443.447,410.272" style="stroke: #A80036; stroke-width: 1.0;"/><!--MD5=[f07945de84a5d4a2de4970820f01fc75]
link tictactoe.views.ResultView to tictactoe.views.MessageView--><path d="M650.942,323.128 C659.758,341.109 668.576,362.469 673,383 C686.574,445.999 689.947,465.824 673,528 C667.901,546.708 660.307,565.454 651.484,583.405 " fill="none" id="tictactoe.views.ResultView-&gt;tictactoe.views.MessageView" style="stroke: #A80036; stroke-width: 1.0; stroke-dasharray: 7.0,7.0;"/><polygon fill="#A80036" points="649.215,587.952,656.8128,581.6852,651.4476,583.4782,649.6547,578.113,649.215,587.952" style="stroke: #A80036; stroke-width: 1.0;"/><!--MD5=[ade498cb7559201fee6859bf082ba533]
link tictactoe.views.StartView to tictactoe.views.ChoosePlayerView--><path d="M725.288,323.06 C695.872,348.616 658.816,380.811 628.741,406.941 " fill="none" id="tictactoe.views.StartView-&gt;tictactoe.views.ChoosePlayerView" style="stroke: #A80036; stroke-width: 1.0; stroke-dasharray: 7.0,7.0;"/><polygon fill="#A80036" points="624.733,410.422,634.1507,407.5397,628.5077,407.1431,628.9043,401.5001,624.733,410.422" style="stroke: #A80036; stroke-width: 1.0;"/><!--MD5=[b594307ff552a83d04fdaea87608a81f]
link tictactoe.views.StartView to tictactoe.views.BoardView--><path d="M788.112,323.286 C794.934,348.228 803.47,379.437 810.505,405.16 " fill="none" id="tictactoe.views.StartView-&gt;tictactoe.views.BoardView" style="stroke: #A80036; stroke-width: 1.0; stroke-dasharray: 7.0,7.0;"/><polygon fill="#A80036" points="811.891,410.228,813.3759,400.4917,810.5724,405.405,805.6591,402.6015,811.891,410.228" style="stroke: #A80036; stroke-width: 1.0;"/><!--MD5=[acc41e7aa9beecc5caef020a4c923094]
link tictactoe.views.StartView to tictactoe.views.MessageView--><path d="M764.087,323.098 C749.521,373.96 722.491,459.383 688,528 C678.802,546.299 668.05,564.947 656.821,582.971 " fill="none" id="tictactoe.views.StartView-&gt;tictactoe.views.MessageView" style="stroke: #A80036; stroke-width: 1.0; stroke-dasharray: 7.0,7.0;"/><polygon fill="#A80036" points="653.956,587.539,662.1272,582.0406,656.6131,583.3034,655.3502,577.7893,653.956,587.539" style="stroke: #A80036; stroke-width: 1.0;"/><!--MD5=[0a4ea30556102bb4afe6aa2298d83e2a]
reverse link utils.WithConsoleModel to tictactoe.views.TokenView--><path d="M254.061,316.46 C282.775,343.998 321.891,381.51 352.099,410.48 " fill="none" id="utils.WithConsoleModel&lt;-tictactoe.views.TokenView" style="stroke: #A80036; stroke-width: 1.0;"/><polygon fill="none" points="248.891,321.201,239.301,302.305,258.581,311.096,248.891,321.201" style="stroke: #A80036; stroke-width: 1.0;"/><!--MD5=[1e5f7c56ba0966e4189ee9d4368bbc75]
reverse link tictactoe.views.PlayerView to tictactoe.views.UserPlayerView--><path d="M1004.05,542.598 C968.21,578.082 927.635,618.257 895.448,650.127 " fill="none" id="tictactoe.views.PlayerView&lt;-tictactoe.views.UserPlayerView" style="stroke: #A80036; stroke-width: 1.0;"/><polygon fill="none" points="999.417,537.331,1018.55,528.233,1009.27,547.279,999.417,537.331" style="stroke: #A80036; stroke-width: 1.0;"/><!--MD5=[4574fdac031bfd32a1af6a2f4dae5e0a]
link tictactoe.views.UserPlayerView to tictactoe.views.CoordinateView--><path d="M776.602,767.543 C754.123,788.023 727.993,810.76 703,830 C666.466,858.125 622.914,886.64 589.309,907.658 " fill="none" id="tictactoe.views.UserPlayerView-&gt;tictactoe.views.CoordinateView" style="stroke: #A80036; stroke-width: 1.0; stroke-dasharray: 7.0,7.0;"/><polygon fill="#A80036" points="584.844,910.443,594.5969,909.0712,589.0857,907.7957,590.3612,902.2845,584.844,910.443" style="stroke: #A80036; stroke-width: 1.0;"/><!--MD5=[658a608cadae7f50017d4f067fcbd3fc]
link tictactoe.views.UserPlayerView to tictactoe.views.ErrorView--><path d="M837,767.57 C837,803.411 837,849.279 837,884.768 " fill="none" id="tictactoe.views.UserPlayerView-&gt;tictactoe.views.ErrorView" style="stroke: #A80036; stroke-width: 1.0; stroke-dasharray: 7.0,7.0;"/><polygon fill="#A80036" points="837,889.927,841,880.927,837,884.927,833,880.927,837,889.927" style="stroke: #A80036; stroke-width: 1.0;"/><!--MD5=[162e61ccfe0c70dae4a3356c790f8713]
link tictactoe.views.View to tictactoe.views.StartView--><path d="M776,185.165 C776,185.165 776,208.996 776,219.704 " fill="none" id="tictactoe.views.View-tictactoe.views.StartView" style="stroke: #A80036; stroke-width: 1.0;"/><polygon fill="#A80036" points="776,232.859,780,223.859,776,227.859,772,223.859,776,232.859" style="stroke: #A80036; stroke-width: 1.0;"/><line style="stroke: #A80036; stroke-width: 1.0;" x1="776" x2="776" y1="227.859" y2="219.859"/><polygon fill="#A80036" points="776,173.165,772,179.165,776,185.165,780,179.165,776,173.165" style="stroke: #A80036; stroke-width: 1.0;"/><!--MD5=[b154bf5c27e08267002d89cc620f84e6]
link tictactoe.views.View to tictactoe.views.PlayView--><path d="M858.0615,162.7259 C858.0615,162.7259 930.77,210.77 962.672,231.85 " fill="none" id="tictactoe.views.View-tictactoe.views.PlayView" style="stroke: #A80036; stroke-width: 1.0;"/><polygon fill="#A80036" points="973.672,239.119,968.3687,230.8199,969.5005,236.3624,963.9581,237.4943,973.672,239.119" style="stroke: #A80036; stroke-width: 1.0;"/><line style="stroke: #A80036; stroke-width: 1.0;" x1="969.5005" x2="962.8265" y1="236.3624" y2="231.952"/><polygon fill="#A80036" points="848.05,156.11,850.8505,162.7551,858.0615,162.7259,855.261,156.0808,848.05,156.11" style="stroke: #A80036; stroke-width: 1.0;"/><!--MD5=[c0ff314f7f4c61c51e1b0f6f69c0c7b0]
link tictactoe.views.View to tictactoe.views.ResultView--><path d="M710.4558,182.1279 C710.4558,182.1279 685.426,210.244 674.13,222.934 " fill="none" id="tictactoe.views.View-tictactoe.views.ResultView" style="stroke: #A80036; stroke-width: 1.0;"/><polygon fill="#A80036" points="665.294,232.859,674.266,228.7966,668.6186,229.1245,668.2907,223.4771,665.294,232.859" style="stroke: #A80036; stroke-width: 1.0;"/><line style="stroke: #A80036; stroke-width: 1.0;" x1="668.6186" x2="673.9385" y1="229.1245" y2="223.1495"/><polygon fill="#A80036" points="718.435,173.165,711.4578,174.9867,710.4558,182.1279,717.433,180.3062,718.435,173.165" style="stroke: #A80036; stroke-width: 1.0;"/><!--MD5=[f2d6522ee283ec658fdf721c8add2301]
@startuml

class  tictactoe.views.BoardView{
~ board: Board
~ BoardView(Board)
~ write(): void
}

class  tictactoe.views.CoordinateView{
~ read(String): Coordinate
}
utils.WithConsoleModel <|-down- tictactoe.views.CoordinateView

class  tictactoe.views.ErrorView{
- {static} MESSAGES: String[]
- error: Error
~ ErrorView(Error)
~ read(String): Coordinate
}
utils.WithConsoleModel <|-down- tictactoe.views.ErrorView

class  tictactoe.views.ChoosePlayerView{
- game: Game
~ ChoosePlayerView(Game)
~ readAndCreateUsers(): void
}
utils.WithConsoleModel <|-down- tictactoe.views.ChoosePlayerView
tictactoe.views.ChoosePlayerView ..> tictactoe.views.MessageView

class  tictactoe.views.MachinePlayerView{
~ MachinePlayerView(Player)
~ readCoordinateToPut(): Coordinate
~ readCoordinatesToMove(): Coordinate[]
}
tictactoe.views.PlayerView <|-down- tictactoe.views.MachinePlayerView
tictactoe.views.MachinePlayerView ..> tictactoe.views.ErrorView

class  tictactoe.views.MessageView{
+ LINE_BREAK: MessageView
+ EMPTY: MessageView
+ SEPARATOR: MessageView
+ VERTICAL_LINE_CENTERED: MessageView
+ VERTICAL_LINE_LEFT: MessageView
+	PLAYER_WIN: MessageView
+	START_GAME: MessageView
+	CHOOSE_PLAYER: MessageView
- message: String
- console: Console
- MessageView(String)
~ getMessage(): String
~ write(): void
~ writeln(): void
}
tictactoe.views.MessageView ..> utils.Console

class  tictactoe.views.PlayerView{
# player: Player
~ PlayerView(Player)
~ {abstract} readCoordinateToPut(): Coordinate
~ {abstract} readCoordinatesToMove(): Coordinate[]
~ controlErrorsPutCoordinate(Coordinate): Error
~ controlErrorsMoveOriginCoordinate(Coordinate): Error
~ controlErrorsMoveTargetCoordinate(Coordinate, Coordinate): Error
}

class  tictactoe.views.PlayView{
~ game: Game
~ PlayView(Game)
~ interact(): boolean
}
tictactoe.views.PlayView ..> tictactoe.views.PlayerView

class tictactoe.views.ResultView{
~ game: Game
~ ResultView(Game)
~ interact(): void
}
tictactoe.views.ResultView ..> tictactoe.views.TokenView
tictactoe.views.ResultView ..> tictactoe.views.MessageView

class tictactoe.views.StartView{
~ game: Game
~ StartView(Game)
~ interact(): void
}
tictactoe.views.StartView..> tictactoe.views.ChoosePlayerView
tictactoe.views.StartView..> tictactoe.views.BoardView
tictactoe.views.StartView..> tictactoe.views.MessageView

class tictactoe.views.TokenView{
~ token: Token
~ TokenView(Token)
~ write(): void
}
utils.WithConsoleModel<|-down- tictactoe.views.TokenView

class  tictactoe.views.UserPlayerView{
~ {static} ENTER_COORDINATE_TO_PUT: String
~ {static} ENTER_COORDINATE_TO_REMOVE: String
~ UserPlayerView(Player)
~ readCoordinateToPut(): Coordinate
~ readCoordinatesToMove(): Coordinate[]
}
tictactoe.views.PlayerView <|-down- tictactoe.views.UserPlayerView
tictactoe.views.UserPlayerView ..> tictactoe.views.CoordinateView
tictactoe.views.UserPlayerView ..> tictactoe.views.ErrorView

class  tictactoe.views.View{
# game: Game
- startView: StartView
- playView: PlayView
- ResultView: ResultView
+ View(Game)
+ interact(): void
}
tictactoe.views.View *-down-> tictactoe.views.StartView
tictactoe.views.View *-down-> tictactoe.views.PlayView
tictactoe.views.View *-down-> tictactoe.views.ResultView

@enduml

PlantUML version 1.2020.15(Sun Jun 28 13:39:45 CEST 2020)
(GPL source distribution)
Java Runtime: Java(TM) SE Runtime Environment
JVM: Java HotSpot(TM) 64-Bit Server VM
Default Encoding: windows-1252
Language: es
Country: ES
--></g></svg>