<?xml version="1.0" encoding="UTF-8" standalone="no"?><svg xmlns="http://www.w3.org/2000/svg" xmlns:xlink="http://www.w3.org/1999/xlink" contentScriptType="application/ecmascript" contentStyleType="text/css" height="517px" preserveAspectRatio="none" style="width:798px;height:517px;" version="1.1" viewBox="0 0 798 517" width="798px" zoomAndPan="magnify"><defs><filter height="300%" id="f1vynq5vuglo4s" width="300%" x="-1" y="-1"><feGaussianBlur result="blurOut" stdDeviation="2.0"/><feColorMatrix in="blurOut" result="blurOut2" type="matrix" values="0 0 0 0 0 0 0 0 0 0 0 0 0 0 0 0 0 0 .4 0"/><feOffset dx="4.0" dy="4.0" in="blurOut2" result="blurOut3"/><feBlend in="SourceGraphic" in2="blurOut3" mode="normal"/></filter></defs><g><!--MD5=[f4e83a21a957c5b9ba9691e6361db36b]
cluster tictactoe.views--><polygon fill="#FFFFFF" filter="url(#f1vynq5vuglo4s)" points="16,6,128,6,135,29.6094,620,29.6094,620,505,16,505,16,6" style="stroke: #000000; stroke-width: 1.5;"/><line style="stroke: #000000; stroke-width: 1.5;" x1="16" x2="135" y1="29.6094" y2="29.6094"/><text fill="#000000" font-family="sans-serif" font-size="14" font-weight="bold" lengthAdjust="spacingAndGlyphs" textLength="106" x="20" y="22.5332">tictactoe.views</text><!--MD5=[51cd642fcc96b47682a93d9084d46dec]
cluster tictactoe.models--><polygon fill="#FFFFFF" filter="url(#f1vynq5vuglo4s)" points="644,356.5,766,356.5,773,380.1094,776,380.1094,776,456.5,644,456.5,644,356.5" style="stroke: #000000; stroke-width: 1.5;"/><line style="stroke: #000000; stroke-width: 1.5;" x1="644" x2="773" y1="380.1094" y2="380.1094"/><text fill="#000000" font-family="sans-serif" font-size="14" font-weight="bold" lengthAdjust="spacingAndGlyphs" textLength="116" x="648" y="373.0332">tictactoe.models</text><!--MD5=[17799e03bfee0ccb3aa03b93da9c26d6]
class tictactoe.views.ErrorView--><rect fill="#FEFECE" filter="url(#f1vynq5vuglo4s)" height="89.5078" id="tictactoe.views.ErrorView" style="stroke: #A80036; stroke-width: 1.5;" width="123" x="32.5" y="118"/><ellipse cx="64.6" cy="134" fill="#ADD1B2" rx="11" ry="11" style="stroke: #A80036; stroke-width: 1.0;"/><path d="M67.3656,129.875 Q67.5219,129.6563 67.7094,129.5469 Q67.8969,129.4375 68.1156,129.4375 Q68.4906,129.4375 68.725,129.7031 Q68.9594,129.9531 68.9594,130.5625 L68.9594,132.0156 Q68.9594,132.625 68.725,132.8906 Q68.4906,133.1563 68.1156,133.1563 Q67.7719,133.1563 67.5688,132.9531 Q67.3656,132.7656 67.2563,132.25 Q67.2094,131.8906 67.0219,131.7031 Q66.6938,131.3281 66.0844,131.1094 Q65.475,130.8906 64.85,130.8906 Q64.0844,130.8906 63.4437,131.2188 Q62.8187,131.5469 62.3187,132.2969 Q61.8344,133.0469 61.8344,134.0781 L61.8344,135.1719 Q61.8344,136.4063 62.725,137.2344 Q63.6156,138.0469 65.2094,138.0469 Q66.1469,138.0469 66.8031,137.7969 Q67.1938,137.6406 67.6156,137.2031 Q67.8813,136.9375 68.0219,136.8594 Q68.1781,136.7813 68.3813,136.7813 Q68.7094,136.7813 68.9594,137.0469 Q69.225,137.2969 69.225,137.6406 Q69.225,137.9844 68.8813,138.3906 Q68.3813,138.9688 67.5844,139.2969 Q66.5063,139.75 65.2094,139.75 Q63.6937,139.75 62.4906,139.125 Q61.5062,138.625 60.8187,137.5625 Q60.1312,136.4844 60.1312,135.2031 L60.1312,134.0469 Q60.1312,132.7188 60.7406,131.5781 Q61.3656,130.4219 62.4594,129.8125 Q63.5531,129.1875 64.7875,129.1875 Q65.5219,129.1875 66.1625,129.3594 Q66.8188,129.5156 67.3656,129.875 Z "/><text fill="#000000" font-family="sans-serif" font-size="12" lengthAdjust="spacingAndGlyphs" textLength="53" x="82.4" y="138.9102">ErrorView</text><line style="stroke: #A80036; stroke-width: 1.5;" x1="33.5" x2="154.5" y1="150" y2="150"/><ellipse cx="43.5" cy="161" fill="none" rx="3" ry="3" style="stroke: #038048; stroke-width: 1.0;"/><text fill="#000000" font-family="sans-serif" font-size="11" lengthAdjust="spacingAndGlyphs" text-decoration="underline" textLength="97" x="52.5" y="165.4189">MESSAGES: String[]</text><polygon fill="none" points="43.5,169.8359,47.5,173.8359,43.5,177.8359,39.5,173.8359" style="stroke: #B38D22; stroke-width: 1.0;"/><text fill="#000000" font-family="sans-serif" font-size="11" lengthAdjust="spacingAndGlyphs" textLength="54" x="52.5" y="179.2549">error: Error</text><line style="stroke: #A80036; stroke-width: 1.5;" x1="33.5" x2="154.5" y1="185.6719" y2="185.6719"/><ellipse cx="43.5" cy="196.6719" fill="#84BE84" rx="3" ry="3" style="stroke: #038048; stroke-width: 1.0;"/><text fill="#000000" font-family="sans-serif" font-size="11" lengthAdjust="spacingAndGlyphs" textLength="82" x="52.5" y="201.0908">ErrorView(Error)</text><!--MD5=[ac4b0e0875a820e87662d988d53b2072]
class tictactoe.views.MessageView--><rect fill="#FEFECE" filter="url(#f1vynq5vuglo4s)" height="241.7031" id="tictactoe.views.MessageView" style="stroke: #A80036; stroke-width: 1.5;" width="237" x="366.5" y="42"/><ellipse cx="442.25" cy="58" fill="#EB937F" rx="11" ry="11" style="stroke: #A80036; stroke-width: 1.0;"/><path d="M441.1094,58.7969 L441.1094,61.2969 L445.4375,61.2969 L445.4375,60.375 Q445.4375,59.7656 445.6719,59.5 Q445.9219,59.2344 446.2969,59.2344 Q446.6719,59.2344 446.9063,59.5 Q447.1406,59.7656 447.1406,60.375 L447.1406,63 L439.1406,63 Q438.5156,63 438.25,62.7656 Q438,62.5313 438,62.1406 Q438,61.7656 438.2656,61.5313 Q438.5313,61.2969 439.1406,61.2969 L439.4063,61.2969 L439.4063,54.6406 L439.1406,54.6406 Q438.5156,54.6406 438.25,54.4063 Q438,54.1719 438,53.7813 Q438,53.4063 438.25,53.1719 Q438.5156,52.9375 439.1406,52.9375 L446.7656,52.9375 L446.7656,55.5313 Q446.7656,56.1406 446.5313,56.4063 Q446.3125,56.6563 445.9219,56.6563 Q445.5469,56.6563 445.3125,56.4063 Q445.0781,56.1406 445.0781,55.5313 L445.0781,54.6406 L441.1094,54.6406 L441.1094,57.0938 L442.5938,57.0938 Q442.5938,56.4375 442.7188,56.25 Q442.9844,55.8438 443.4531,55.8438 Q443.8281,55.8438 444.0625,56.1094 Q444.2969,56.3594 444.2969,56.9688 L444.2969,58.9375 Q444.2969,59.4844 444.1719,59.6719 Q443.9063,60.0625 443.4531,60.0625 Q442.9844,60.0625 442.7188,59.6563 Q442.5938,59.4688 442.5938,58.7969 L441.1094,58.7969 Z "/><text fill="#000000" font-family="sans-serif" font-size="12" lengthAdjust="spacingAndGlyphs" textLength="77" x="462.75" y="62.9102">MessageView</text><line style="stroke: #A80036; stroke-width: 1.5;" x1="367.5" x2="602.5" y1="74" y2="74"/><ellipse cx="377.5" cy="85" fill="none" rx="3" ry="3" style="stroke: #038048; stroke-width: 1.0;"/><text fill="#000000" font-family="sans-serif" font-size="11" lengthAdjust="spacingAndGlyphs" textLength="110" x="386.5" y="89.4189">EMPTY: MessageView</text><ellipse cx="377.5" cy="98.8359" fill="none" rx="3" ry="3" style="stroke: #038048; stroke-width: 1.0;"/><text fill="#000000" font-family="sans-serif" font-size="11" lengthAdjust="spacingAndGlyphs" textLength="139" x="386.5" y="103.2549">SEPARATOR: MessageView</text><ellipse cx="377.5" cy="112.6719" fill="none" rx="3" ry="3" style="stroke: #038048; stroke-width: 1.0;"/><text fill="#000000" font-family="sans-serif" font-size="11" lengthAdjust="spacingAndGlyphs" textLength="211" x="386.5" y="117.0908">VERTICAL_LINE_CENTERED: MessageView</text><ellipse cx="377.5" cy="126.5078" fill="none" rx="3" ry="3" style="stroke: #038048; stroke-width: 1.0;"/><text fill="#000000" font-family="sans-serif" font-size="11" lengthAdjust="spacingAndGlyphs" textLength="183" x="386.5" y="130.9268">VERTICAL_LINE_LEFT: MessageView</text><ellipse cx="377.5" cy="140.3438" fill="none" rx="3" ry="3" style="stroke: #038048; stroke-width: 1.0;"/><text fill="#000000" font-family="sans-serif" font-size="11" lengthAdjust="spacingAndGlyphs" textLength="142" x="386.5" y="144.7627">PLAYER_WIN: MessageView</text><ellipse cx="377.5" cy="154.1797" fill="none" rx="3" ry="3" style="stroke: #038048; stroke-width: 1.0;"/><text fill="#000000" font-family="sans-serif" font-size="11" lengthAdjust="spacingAndGlyphs" textLength="146" x="386.5" y="158.5986">START_GAME: MessageView</text><ellipse cx="377.5" cy="168.0156" fill="none" rx="3" ry="3" style="stroke: #038048; stroke-width: 1.0;"/><text fill="#000000" font-family="sans-serif" font-size="11" lengthAdjust="spacingAndGlyphs" textLength="166" x="386.5" y="172.4346">CHOOSE_PLAYER: MessageView</text><ellipse cx="377.5" cy="181.8516" fill="none" rx="3" ry="3" style="stroke: #038048; stroke-width: 1.0;"/><text fill="#000000" font-family="sans-serif" font-size="11" lengthAdjust="spacingAndGlyphs" textLength="135" x="386.5" y="186.2705">READ_ROW: MessageView</text><ellipse cx="377.5" cy="195.6875" fill="none" rx="3" ry="3" style="stroke: #038048; stroke-width: 1.0;"/><text fill="#000000" font-family="sans-serif" font-size="11" lengthAdjust="spacingAndGlyphs" textLength="153" x="386.5" y="200.1064">READ_COLUMN: MessageView</text><ellipse cx="377.5" cy="209.5234" fill="none" rx="3" ry="3" style="stroke: #038048; stroke-width: 1.0;"/><text fill="#000000" font-family="sans-serif" font-size="11" lengthAdjust="spacingAndGlyphs" textLength="111" x="386.5" y="213.9424">ERROR: MessageView</text><ellipse cx="377.5" cy="223.3594" fill="none" rx="3" ry="3" style="stroke: #038048; stroke-width: 1.0;"/><text fill="#000000" font-family="sans-serif" font-size="11" lengthAdjust="spacingAndGlyphs" textLength="117" x="386.5" y="227.7783">RESUME: MessageView</text><rect fill="none" height="6" style="stroke: #C82930; stroke-width: 1.0;" width="6" x="374.5" y="234.1953"/><text fill="#000000" font-family="sans-serif" font-size="11" lengthAdjust="spacingAndGlyphs" textLength="78" x="386.5" y="241.6143">message: String</text><line style="stroke: #A80036; stroke-width: 1.5;" x1="367.5" x2="602.5" y1="248.0313" y2="248.0313"/><rect fill="#F24D5C" height="6" style="stroke: #C82930; stroke-width: 1.0;" width="6" x="374.5" y="256.0313"/><text fill="#000000" font-family="sans-serif" font-size="11" lengthAdjust="spacingAndGlyphs" textLength="106" x="386.5" y="263.4502">MessageView(String)</text><ellipse cx="377.5" cy="272.8672" fill="#84BE84" rx="3" ry="3" style="stroke: #038048; stroke-width: 1.0;"/><text fill="#000000" font-family="sans-serif" font-size="11" lengthAdjust="spacingAndGlyphs" textLength="101" x="386.5" y="277.2861">getMessage(): String</text><!--MD5=[2ae15d20e7f22fd333327d3852982126]
class tictactoe.views.PlayerView--><rect fill="#FEFECE" filter="url(#f1vynq5vuglo4s)" height="144.8516" id="tictactoe.views.PlayerView" style="stroke: #A80036; stroke-width: 1.5;" width="322" x="32" y="344"/><ellipse cx="158.75" cy="360" fill="#ADD1B2" rx="11" ry="11" style="stroke: #A80036; stroke-width: 1.0;"/><path d="M161.5156,355.875 Q161.6719,355.6563 161.8594,355.5469 Q162.0469,355.4375 162.2656,355.4375 Q162.6406,355.4375 162.875,355.7031 Q163.1094,355.9531 163.1094,356.5625 L163.1094,358.0156 Q163.1094,358.625 162.875,358.8906 Q162.6406,359.1563 162.2656,359.1563 Q161.9219,359.1563 161.7188,358.9531 Q161.5156,358.7656 161.4063,358.25 Q161.3594,357.8906 161.1719,357.7031 Q160.8438,357.3281 160.2344,357.1094 Q159.625,356.8906 159,356.8906 Q158.2344,356.8906 157.5938,357.2188 Q156.9688,357.5469 156.4688,358.2969 Q155.9844,359.0469 155.9844,360.0781 L155.9844,361.1719 Q155.9844,362.4063 156.875,363.2344 Q157.7656,364.0469 159.3594,364.0469 Q160.2969,364.0469 160.9531,363.7969 Q161.3438,363.6406 161.7656,363.2031 Q162.0313,362.9375 162.1719,362.8594 Q162.3281,362.7813 162.5313,362.7813 Q162.8594,362.7813 163.1094,363.0469 Q163.375,363.2969 163.375,363.6406 Q163.375,363.9844 163.0313,364.3906 Q162.5313,364.9688 161.7344,365.2969 Q160.6563,365.75 159.3594,365.75 Q157.8438,365.75 156.6406,365.125 Q155.6563,364.625 154.9688,363.5625 Q154.2813,362.4844 154.2813,361.2031 L154.2813,360.0469 Q154.2813,358.7188 154.8906,357.5781 Q155.5156,356.4219 156.6094,355.8125 Q157.7031,355.1875 158.9375,355.1875 Q159.6719,355.1875 160.3125,355.3594 Q160.9688,355.5156 161.5156,355.875 Z "/><text fill="#000000" font-family="sans-serif" font-size="12" lengthAdjust="spacingAndGlyphs" textLength="60" x="179.25" y="364.9102">PlayerView</text><line style="stroke: #A80036; stroke-width: 1.5;" x1="33" x2="353" y1="376" y2="376"/><polygon fill="none" points="43,382,47,386,43,390,39,386" style="stroke: #B38D22; stroke-width: 1.0;"/><text fill="#000000" font-family="sans-serif" font-size="11" lengthAdjust="spacingAndGlyphs" textLength="66" x="52" y="391.4189">player: Player</text><line style="stroke: #A80036; stroke-width: 1.5;" x1="33" x2="353" y1="397.8359" y2="397.8359"/><ellipse cx="43" cy="408.8359" fill="#84BE84" rx="3" ry="3" style="stroke: #038048; stroke-width: 1.0;"/><text fill="#000000" font-family="sans-serif" font-size="11" lengthAdjust="spacingAndGlyphs" textLength="94" x="52" y="413.2549">PlayerView(Player)</text><ellipse cx="43" cy="422.6719" fill="#84BE84" rx="3" ry="3" style="stroke: #038048; stroke-width: 1.0;"/><text fill="#000000" font-family="sans-serif" font-size="11" font-style="italic" lengthAdjust="spacingAndGlyphs" textLength="173" x="52" y="427.0908">readCoordinateToPut(): Coordinate</text><ellipse cx="43" cy="436.5078" fill="#84BE84" rx="3" ry="3" style="stroke: #038048; stroke-width: 1.0;"/><text fill="#000000" font-family="sans-serif" font-size="11" font-style="italic" lengthAdjust="spacingAndGlyphs" textLength="195" x="52" y="440.9268">readCoordinatesToMove(): Coordinate[]</text><ellipse cx="43" cy="450.3438" fill="#84BE84" rx="3" ry="3" style="stroke: #038048; stroke-width: 1.0;"/><text fill="#000000" font-family="sans-serif" font-size="11" lengthAdjust="spacingAndGlyphs" textLength="196" x="52" y="454.7627">getPutCoordinateError(Coordinate): Error</text><ellipse cx="43" cy="464.1797" fill="#84BE84" rx="3" ry="3" style="stroke: #038048; stroke-width: 1.0;"/><text fill="#000000" font-family="sans-serif" font-size="11" lengthAdjust="spacingAndGlyphs" textLength="235" x="52" y="468.5986">getMoveOriginCoordinateError(Coordinate): Error</text><ellipse cx="43" cy="478.0156" fill="#84BE84" rx="3" ry="3" style="stroke: #038048; stroke-width: 1.0;"/><text fill="#000000" font-family="sans-serif" font-size="11" lengthAdjust="spacingAndGlyphs" textLength="296" x="52" y="482.4346">getMoveTargetCoordinateError(Coordinate, Coordinate): Error</text><!--MD5=[015754420c4cdd9bacda884b3fa8c6ca]
class tictactoe.views.View--><rect fill="#FEFECE" filter="url(#f1vynq5vuglo4s)" height="131.0156" id="tictactoe.views.View" style="stroke: #A80036; stroke-width: 1.5;" width="140" x="191" y="97.5"/><ellipse cx="243.75" cy="113.5" fill="#ADD1B2" rx="11" ry="11" style="stroke: #A80036; stroke-width: 1.0;"/><path d="M246.5156,109.375 Q246.6719,109.1563 246.8594,109.0469 Q247.0469,108.9375 247.2656,108.9375 Q247.6406,108.9375 247.875,109.2031 Q248.1094,109.4531 248.1094,110.0625 L248.1094,111.5156 Q248.1094,112.125 247.875,112.3906 Q247.6406,112.6563 247.2656,112.6563 Q246.9219,112.6563 246.7188,112.4531 Q246.5156,112.2656 246.4063,111.75 Q246.3594,111.3906 246.1719,111.2031 Q245.8438,110.8281 245.2344,110.6094 Q244.625,110.3906 244,110.3906 Q243.2344,110.3906 242.5938,110.7188 Q241.9688,111.0469 241.4688,111.7969 Q240.9844,112.5469 240.9844,113.5781 L240.9844,114.6719 Q240.9844,115.9063 241.875,116.7344 Q242.7656,117.5469 244.3594,117.5469 Q245.2969,117.5469 245.9531,117.2969 Q246.3438,117.1406 246.7656,116.7031 Q247.0313,116.4375 247.1719,116.3594 Q247.3281,116.2813 247.5313,116.2813 Q247.8594,116.2813 248.1094,116.5469 Q248.375,116.7969 248.375,117.1406 Q248.375,117.4844 248.0313,117.8906 Q247.5313,118.4688 246.7344,118.7969 Q245.6563,119.25 244.3594,119.25 Q242.8438,119.25 241.6406,118.625 Q240.6563,118.125 239.9688,117.0625 Q239.2813,115.9844 239.2813,114.7031 L239.2813,113.5469 Q239.2813,112.2188 239.8906,111.0781 Q240.5156,109.9219 241.6094,109.3125 Q242.7031,108.6875 243.9375,108.6875 Q244.6719,108.6875 245.3125,108.8594 Q245.9688,109.0156 246.5156,109.375 Z "/><text fill="#000000" font-family="sans-serif" font-size="12" lengthAdjust="spacingAndGlyphs" textLength="26" x="264.25" y="118.4102">View</text><line style="stroke: #A80036; stroke-width: 1.5;" x1="192" x2="330" y1="129.5" y2="129.5"/><polygon fill="none" points="202,135.5,206,139.5,202,143.5,198,139.5" style="stroke: #B38D22; stroke-width: 1.0;"/><text fill="#000000" font-family="sans-serif" font-size="11" lengthAdjust="spacingAndGlyphs" textLength="60" x="211" y="144.9189">game: Game</text><line style="stroke: #A80036; stroke-width: 1.5;" x1="192" x2="330" y1="151.3359" y2="151.3359"/><ellipse cx="202" cy="162.3359" fill="#84BE84" rx="3" ry="3" style="stroke: #038048; stroke-width: 1.0;"/><text fill="#000000" font-family="sans-serif" font-size="11" lengthAdjust="spacingAndGlyphs" textLength="62" x="211" y="166.7549">View(Game)</text><ellipse cx="202" cy="176.1719" fill="#84BE84" rx="3" ry="3" style="stroke: #038048; stroke-width: 1.0;"/><text fill="#000000" font-family="sans-serif" font-size="11" lengthAdjust="spacingAndGlyphs" textLength="70" x="211" y="180.5908">interact(): void</text><polygon fill="#FFFF44" points="202,185.0078,206,189.0078,202,193.0078,198,189.0078" style="stroke: #B38D22; stroke-width: 1.0;"/><text fill="#000000" font-family="sans-serif" font-size="11" font-style="italic" lengthAdjust="spacingAndGlyphs" textLength="56" x="211" y="194.4268">start(): void</text><polygon fill="#FFFF44" points="202,198.8438,206,202.8438,202,206.8438,198,202.8438" style="stroke: #B38D22; stroke-width: 1.0;"/><text fill="#000000" font-family="sans-serif" font-size="11" font-style="italic" lengthAdjust="spacingAndGlyphs" textLength="74" x="211" y="208.2627">play(): boolean</text><polygon fill="#FFFF44" points="202,212.6797,206,216.6797,202,220.6797,198,216.6797" style="stroke: #B38D22; stroke-width: 1.0;"/><text fill="#000000" font-family="sans-serif" font-size="11" font-style="italic" lengthAdjust="spacingAndGlyphs" textLength="114" x="211" y="222.0986">isNewGame(): boolean</text><!--MD5=[8d3188f3c370ea7d5d91d12bca83b67a]
class tictactoe.models.Game--><rect fill="#FEFECE" filter="url(#f1vynq5vuglo4s)" height="48" id="tictactoe.models.Game" style="stroke: #A80036; stroke-width: 1.5;" width="66" x="660" y="392.5"/><ellipse cx="675" cy="408.5" fill="#ADD1B2" rx="11" ry="11" style="stroke: #A80036; stroke-width: 1.0;"/><path d="M677.7656,404.375 Q677.9219,404.1563 678.1094,404.0469 Q678.2969,403.9375 678.5156,403.9375 Q678.8906,403.9375 679.125,404.2031 Q679.3594,404.4531 679.3594,405.0625 L679.3594,406.5156 Q679.3594,407.125 679.125,407.3906 Q678.8906,407.6563 678.5156,407.6563 Q678.1719,407.6563 677.9688,407.4531 Q677.7656,407.2656 677.6563,406.75 Q677.6094,406.3906 677.4219,406.2031 Q677.0938,405.8281 676.4844,405.6094 Q675.875,405.3906 675.25,405.3906 Q674.4844,405.3906 673.8438,405.7188 Q673.2188,406.0469 672.7188,406.7969 Q672.2344,407.5469 672.2344,408.5781 L672.2344,409.6719 Q672.2344,410.9063 673.125,411.7344 Q674.0156,412.5469 675.6094,412.5469 Q676.5469,412.5469 677.2031,412.2969 Q677.5938,412.1406 678.0156,411.7031 Q678.2813,411.4375 678.4219,411.3594 Q678.5781,411.2813 678.7813,411.2813 Q679.1094,411.2813 679.3594,411.5469 Q679.625,411.7969 679.625,412.1406 Q679.625,412.4844 679.2813,412.8906 Q678.7813,413.4688 677.9844,413.7969 Q676.9063,414.25 675.6094,414.25 Q674.0938,414.25 672.8906,413.625 Q671.9063,413.125 671.2188,412.0625 Q670.5313,410.9844 670.5313,409.7031 L670.5313,408.5469 Q670.5313,407.2188 671.1406,406.0781 Q671.7656,404.9219 672.8594,404.3125 Q673.9531,403.6875 675.1875,403.6875 Q675.9219,403.6875 676.5625,403.8594 Q677.2188,404.0156 677.7656,404.375 Z "/><text fill="#000000" font-family="sans-serif" font-size="12" lengthAdjust="spacingAndGlyphs" textLength="34" x="689" y="413.4102">Game</text><line style="stroke: #A80036; stroke-width: 1.5;" x1="661" x2="725" y1="424.5" y2="424.5"/><line style="stroke: #A80036; stroke-width: 1.5;" x1="661" x2="725" y1="432.5" y2="432.5"/><!--MD5=[0696a78a81f063c18f1c08fd8fb67371]
link tictactoe.views.View to tictactoe.models.Game--><path d="M302.716,238.3513 C302.716,238.3513 331.349,272.487 349,284 C452.324,351.395 511.531,285.242 620,344 C637.698,353.587 654.048,368.721 666.768,382.602 " fill="none" id="tictactoe.views.View-tictactoe.models.Game" style="stroke: #A80036; stroke-width: 1.0;"/><polygon fill="#A80036" points="675.356,392.39,672.4272,382.9867,672.0585,388.6315,666.4136,388.2627,675.356,392.39" style="stroke: #A80036; stroke-width: 1.0;"/><line style="stroke: #A80036; stroke-width: 1.0;" x1="672.0585" x2="666.7825" y1="388.6315" y2="382.618"/><polygon fill="#A80036" points="295.739,228.588,295.9731,235.7953,302.716,238.3513,302.4819,231.144,295.739,228.588" style="stroke: #A80036; stroke-width: 1.0;"/><!--MD5=[850cef324a7f3601308ed4cd9ba4a58a]
link tictactoe.views.ErrorView to tictactoe.views.MessageView--><!--MD5=[6c7ccf3e6b6e4bb20767c07f6c25060f]
link tictactoe.views.ErrorView to tictactoe.views.PlayerView--><!--MD5=[cdf830e7cea270d1982863755856b85b]
@startuml

class  tictactoe.views.ErrorView{
+ {static} MESSAGES: String[]
# error: Error
+ ErrorView(Error)
}

enum  tictactoe.views.MessageView{
+ EMPTY: MessageView
+ SEPARATOR: MessageView
+ VERTICAL_LINE_CENTERED: MessageView
+ VERTICAL_LINE_LEFT: MessageView
+	PLAYER_WIN: MessageView
+	START_GAME: MessageView
+	CHOOSE_PLAYER: MessageView
+	READ_ROW: MessageView
+	READ_COLUMN: MessageView
+	ERROR: MessageView
+ RESUME: MessageView
- message: String
- MessageView(String)
+ getMessage(): String
}

class  tictactoe.views.PlayerView{
# player: Player
+ PlayerView(Player)
+ {abstract} readCoordinateToPut(): Coordinate
+ {abstract} readCoordinatesToMove(): Coordinate[]
+ getPutCoordinateError(Coordinate): Error
+ getMoveOriginCoordinateError(Coordinate): Error
+ getMoveTargetCoordinateError(Coordinate, Coordinate): Error
}

class  tictactoe.views.View{
# game: Game
+ View(Game)
+ interact(): void
# {abstract} start(): void
# {abstract} play(): boolean
# {abstract} isNewGame(): boolean
}
tictactoe.views.View *-down-> tictactoe.models.Game

@enduml

PlantUML version 1.2020.15(Sun Jun 28 13:39:45 CEST 2020)
(GPL source distribution)
Java Runtime: Java(TM) SE Runtime Environment
JVM: Java HotSpot(TM) 64-Bit Server VM
Default Encoding: windows-1252
Language: es
Country: ES
--></g></svg>