<?xml version="1.0" encoding="UTF-8" standalone="no"?><svg xmlns="http://www.w3.org/2000/svg" xmlns:xlink="http://www.w3.org/1999/xlink" contentScriptType="application/ecmascript" contentStyleType="text/css" height="761px" preserveAspectRatio="none" style="width:1790px;height:761px;" version="1.1" viewBox="0 0 1790 761" width="1790px" zoomAndPan="magnify"><defs><filter height="300%" id="fi9517s82qtju" width="300%" x="-1" y="-1"><feGaussianBlur result="blurOut" stdDeviation="2.0"/><feColorMatrix in="blurOut" result="blurOut2" type="matrix" values="0 0 0 0 0 0 0 0 0 0 0 0 0 0 0 0 0 0 .4 0"/><feOffset dx="4.0" dy="4.0" in="blurOut2" result="blurOut3"/><feBlend in="SourceGraphic" in2="blurOut3" mode="normal"/></filter></defs><g><!--MD5=[f4e83a21a957c5b9ba9691e6361db36b]
cluster tictactoe.views--><polygon fill="#FFFFFF" filter="url(#fi9517s82qtju)" points="16,73.662,128,73.662,135,97.2714,1316,97.2714,1316,749.662,16,749.662,16,73.662" style="stroke: #000000; stroke-width: 1.5;"/><line style="stroke: #000000; stroke-width: 1.5;" x1="16" x2="135" y1="97.2714" y2="97.2714"/><text fill="#000000" font-family="sans-serif" font-size="14" font-weight="bold" lengthAdjust="spacingAndGlyphs" textLength="106" x="20" y="90.1952">tictactoe.views</text><!--MD5=[c52f45833d539af9e29a9d34b8b7302b]
cluster utils--><polygon fill="#FFFFFF" filter="url(#fi9517s82qtju)" points="1340,122.162,1376,122.162,1383,145.7714,1768,145.7714,1768,222.162,1340,222.162,1340,122.162" style="stroke: #000000; stroke-width: 1.5;"/><line style="stroke: #000000; stroke-width: 1.5;" x1="1340" x2="1383" y1="145.7714" y2="145.7714"/><text fill="#000000" font-family="sans-serif" font-size="14" font-weight="bold" lengthAdjust="spacingAndGlyphs" textLength="30" x="1344" y="138.6952">utils</text><!--MD5=[51cd642fcc96b47682a93d9084d46dec]
cluster tictactoe.models--><polygon fill="#FFFFFF" filter="url(#fi9517s82qtju)" points="1340,532.162,1462,532.162,1469,555.7714,1472,555.7714,1472,632.162,1340,632.162,1340,532.162" style="stroke: #000000; stroke-width: 1.5;"/><line style="stroke: #000000; stroke-width: 1.5;" x1="1340" x2="1469" y1="555.7714" y2="555.7714"/><text fill="#000000" font-family="sans-serif" font-size="14" font-weight="bold" lengthAdjust="spacingAndGlyphs" textLength="116" x="1344" y="548.6952">tictactoe.models</text><!--MD5=[edeafd8e862636cda68e6fb1f68b81b5]
class tictactoe.views.BoardView--><rect fill="#FEFECE" filter="url(#fi9517s82qtju)" height="75.6719" id="tictactoe.views.BoardView" style="stroke: #A80036; stroke-width: 1.5;" width="93" x="246.5" y="314.662"/><ellipse cx="262.4" cy="330.662" fill="#ADD1B2" rx="11" ry="11" style="stroke: #A80036; stroke-width: 1.0;"/><path d="M265.1656,326.537 Q265.3219,326.3183 265.5094,326.2089 Q265.6969,326.0995 265.9156,326.0995 Q266.2906,326.0995 266.525,326.3651 Q266.7594,326.6151 266.7594,327.2245 L266.7594,328.6776 Q266.7594,329.287 266.525,329.5526 Q266.2906,329.8183 265.9156,329.8183 Q265.5719,329.8183 265.3688,329.6151 Q265.1656,329.4276 265.0563,328.912 Q265.0094,328.5526 264.8219,328.3651 Q264.4938,327.9901 263.8844,327.7714 Q263.275,327.5526 262.65,327.5526 Q261.8844,327.5526 261.2438,327.8808 Q260.6188,328.2089 260.1188,328.9589 Q259.6344,329.7089 259.6344,330.7401 L259.6344,331.8339 Q259.6344,333.0683 260.525,333.8964 Q261.4156,334.7089 263.0094,334.7089 Q263.9469,334.7089 264.6031,334.4589 Q264.9938,334.3026 265.4156,333.8651 Q265.6813,333.5995 265.8219,333.5214 Q265.9781,333.4433 266.1813,333.4433 Q266.5094,333.4433 266.7594,333.7089 Q267.025,333.9589 267.025,334.3026 Q267.025,334.6464 266.6813,335.0526 Q266.1813,335.6308 265.3844,335.9589 Q264.3063,336.412 263.0094,336.412 Q261.4938,336.412 260.2906,335.787 Q259.3063,335.287 258.6188,334.2245 Q257.9313,333.1464 257.9313,331.8651 L257.9313,330.7089 Q257.9313,329.3808 258.5406,328.2401 Q259.1656,327.0839 260.2594,326.4745 Q261.3531,325.8495 262.5875,325.8495 Q263.3219,325.8495 263.9625,326.0214 Q264.6188,326.1776 265.1656,326.537 Z "/><text fill="#000000" font-family="sans-serif" font-size="12" lengthAdjust="spacingAndGlyphs" textLength="59" x="276.6" y="335.5722">BoardView</text><line style="stroke: #A80036; stroke-width: 1.5;" x1="247.5" x2="338.5" y1="346.662" y2="346.662"/><line style="stroke: #A80036; stroke-width: 1.5;" x1="247.5" x2="338.5" y1="354.662" y2="354.662"/><polygon fill="#4177AF" points="257.5,361.662,253.5,367.662,261.5,367.662" style="stroke: #1963A0; stroke-width: 1.0;"/><text fill="#000000" font-family="sans-serif" font-size="11" lengthAdjust="spacingAndGlyphs" textLength="59" x="266.5" y="370.0809">write(): void</text><polygon fill="#4177AF" points="257.5,375.4979,253.5,381.4979,261.5,381.4979" style="stroke: #1963A0; stroke-width: 1.0;"/><text fill="#000000" font-family="sans-serif" font-size="11" lengthAdjust="spacingAndGlyphs" textLength="67" x="266.5" y="383.9169">writeln(): void</text><!--MD5=[51472c2df310eda0175206e4eb03bedf]
class tictactoe.views.Command--><rect fill="#FEFECE" filter="url(#fi9517s82qtju)" height="89.5078" id="tictactoe.views.Command" style="stroke: #A80036; stroke-width: 1.5;" width="154" x="895" y="137.162"/><ellipse cx="938.35" cy="153.162" fill="#ADD1B2" rx="11" ry="11" style="stroke: #A80036; stroke-width: 1.0;"/><path d="M941.1156,149.037 Q941.2719,148.8183 941.4594,148.7089 Q941.6469,148.5995 941.8656,148.5995 Q942.2406,148.5995 942.475,148.8651 Q942.7094,149.1151 942.7094,149.7245 L942.7094,151.1776 Q942.7094,151.787 942.475,152.0526 Q942.2406,152.3183 941.8656,152.3183 Q941.5219,152.3183 941.3188,152.1151 Q941.1156,151.9276 941.0063,151.412 Q940.9594,151.0526 940.7719,150.8651 Q940.4438,150.4901 939.8344,150.2714 Q939.225,150.0526 938.6,150.0526 Q937.8344,150.0526 937.1938,150.3808 Q936.5688,150.7089 936.0688,151.4589 Q935.5844,152.2089 935.5844,153.2401 L935.5844,154.3339 Q935.5844,155.5683 936.475,156.3964 Q937.3656,157.2089 938.9594,157.2089 Q939.8969,157.2089 940.5531,156.9589 Q940.9438,156.8026 941.3656,156.3651 Q941.6313,156.0995 941.7719,156.0214 Q941.9281,155.9433 942.1313,155.9433 Q942.4594,155.9433 942.7094,156.2089 Q942.975,156.4589 942.975,156.8026 Q942.975,157.1464 942.6313,157.5526 Q942.1313,158.1308 941.3344,158.4589 Q940.2563,158.912 938.9594,158.912 Q937.4438,158.912 936.2406,158.287 Q935.2563,157.787 934.5688,156.7245 Q933.8813,155.6464 933.8813,154.3651 L933.8813,153.2089 Q933.8813,151.8808 934.4906,150.7401 Q935.1156,149.5839 936.2094,148.9745 Q937.3031,148.3495 938.5375,148.3495 Q939.2719,148.3495 939.9125,148.5214 Q940.5688,148.6776 941.1156,149.037 Z "/><text fill="#000000" font-family="sans-serif" font-size="12" lengthAdjust="spacingAndGlyphs" textLength="59" x="958.65" y="158.0722">Command</text><line style="stroke: #A80036; stroke-width: 1.5;" x1="896" x2="1048" y1="169.162" y2="169.162"/><polygon fill="none" points="906,175.162,910,179.162,906,183.162,902,179.162" style="stroke: #B38D22; stroke-width: 1.0;"/><text fill="#000000" font-family="sans-serif" font-size="11" lengthAdjust="spacingAndGlyphs" textLength="83" x="915" y="184.5809">session: Session</text><line style="stroke: #A80036; stroke-width: 1.5;" x1="896" x2="1048" y1="190.9979" y2="190.9979"/><polygon fill="#FFFF44" points="906,196.9979,910,200.9979,906,204.9979,902,200.9979" style="stroke: #B38D22; stroke-width: 1.0;"/><text fill="#000000" font-family="sans-serif" font-size="11" lengthAdjust="spacingAndGlyphs" textLength="128" x="915" y="206.4169">Command(String, Session)</text><polygon fill="#4177AF" points="906,211.8339,902,217.8339,910,217.8339" style="stroke: #1963A0; stroke-width: 1.0;"/><text fill="#000000" font-family="sans-serif" font-size="11" font-style="italic" lengthAdjust="spacingAndGlyphs" textLength="106" x="915" y="220.2528">updateIsActive(): void</text><!--MD5=[5dff601402b9962ae61c7ab4dc9cae89]
class tictactoe.views.CoordinateView--><rect fill="#FEFECE" filter="url(#fi9517s82qtju)" height="61.8359" id="tictactoe.views.CoordinateView" style="stroke: #A80036; stroke-width: 1.5;" width="142" x="69" y="321.662"/><ellipse cx="94.35" cy="337.662" fill="#ADD1B2" rx="11" ry="11" style="stroke: #A80036; stroke-width: 1.0;"/><path d="M97.1156,333.537 Q97.2719,333.3183 97.4594,333.2089 Q97.6469,333.0995 97.8656,333.0995 Q98.2406,333.0995 98.475,333.3651 Q98.7094,333.6151 98.7094,334.2245 L98.7094,335.6776 Q98.7094,336.287 98.475,336.5526 Q98.2406,336.8183 97.8656,336.8183 Q97.5219,336.8183 97.3188,336.6151 Q97.1156,336.4276 97.0063,335.912 Q96.9594,335.5526 96.7719,335.3651 Q96.4438,334.9901 95.8344,334.7714 Q95.225,334.5526 94.6,334.5526 Q93.8344,334.5526 93.1938,334.8808 Q92.5688,335.2089 92.0688,335.9589 Q91.5844,336.7089 91.5844,337.7401 L91.5844,338.8339 Q91.5844,340.0683 92.475,340.8964 Q93.3656,341.7089 94.9594,341.7089 Q95.8969,341.7089 96.5531,341.4589 Q96.9438,341.3026 97.3656,340.8651 Q97.6313,340.5995 97.7719,340.5214 Q97.9281,340.4433 98.1313,340.4433 Q98.4594,340.4433 98.7094,340.7089 Q98.975,340.9589 98.975,341.3026 Q98.975,341.6464 98.6313,342.0526 Q98.1313,342.6308 97.3344,342.9589 Q96.2563,343.412 94.9594,343.412 Q93.4438,343.412 92.2406,342.787 Q91.2563,342.287 90.5688,341.2245 Q89.8813,340.1464 89.8813,338.8651 L89.8813,337.7089 Q89.8813,336.3808 90.4906,335.2401 Q91.1156,334.0839 92.2094,333.4745 Q93.3031,332.8495 94.5375,332.8495 Q95.2719,332.8495 95.9125,333.0214 Q96.5688,333.1776 97.1156,333.537 Z "/><text fill="#000000" font-family="sans-serif" font-size="12" lengthAdjust="spacingAndGlyphs" textLength="87" x="110.65" y="342.5722">CoordinateView</text><line style="stroke: #A80036; stroke-width: 1.5;" x1="70" x2="210" y1="353.662" y2="353.662"/><line style="stroke: #A80036; stroke-width: 1.5;" x1="70" x2="210" y1="361.662" y2="361.662"/><polygon fill="#4177AF" points="80,368.662,76,374.662,84,374.662" style="stroke: #1963A0; stroke-width: 1.0;"/><text fill="#000000" font-family="sans-serif" font-size="11" lengthAdjust="spacingAndGlyphs" textLength="116" x="89" y="377.0809">read(String): Coordinate</text><!--MD5=[17799e03bfee0ccb3aa03b93da9c26d6]
class tictactoe.views.ErrorView--><rect fill="#FEFECE" filter="url(#fi9517s82qtju)" height="103.3438" id="tictactoe.views.ErrorView" style="stroke: #A80036; stroke-width: 1.5;" width="123" x="612.5" y="130.662"/><ellipse cx="644.6" cy="146.662" fill="#ADD1B2" rx="11" ry="11" style="stroke: #A80036; stroke-width: 1.0;"/><path d="M647.3656,142.537 Q647.5219,142.3183 647.7094,142.2089 Q647.8969,142.0995 648.1156,142.0995 Q648.4906,142.0995 648.725,142.3651 Q648.9594,142.6151 648.9594,143.2245 L648.9594,144.6776 Q648.9594,145.287 648.725,145.5526 Q648.4906,145.8183 648.1156,145.8183 Q647.7719,145.8183 647.5688,145.6151 Q647.3656,145.4276 647.2563,144.912 Q647.2094,144.5526 647.0219,144.3651 Q646.6938,143.9901 646.0844,143.7714 Q645.475,143.5526 644.85,143.5526 Q644.0844,143.5526 643.4438,143.8808 Q642.8188,144.2089 642.3188,144.9589 Q641.8344,145.7089 641.8344,146.7401 L641.8344,147.8339 Q641.8344,149.0683 642.725,149.8964 Q643.6156,150.7089 645.2094,150.7089 Q646.1469,150.7089 646.8031,150.4589 Q647.1938,150.3026 647.6156,149.8651 Q647.8813,149.5995 648.0219,149.5214 Q648.1781,149.4433 648.3813,149.4433 Q648.7094,149.4433 648.9594,149.7089 Q649.225,149.9589 649.225,150.3026 Q649.225,150.6464 648.8813,151.0526 Q648.3813,151.6308 647.5844,151.9589 Q646.5063,152.412 645.2094,152.412 Q643.6938,152.412 642.4906,151.787 Q641.5063,151.287 640.8188,150.2245 Q640.1313,149.1464 640.1313,147.8651 L640.1313,146.7089 Q640.1313,145.3808 640.7406,144.2401 Q641.3656,143.0839 642.4594,142.4745 Q643.5531,141.8495 644.7875,141.8495 Q645.5219,141.8495 646.1625,142.0214 Q646.8188,142.1776 647.3656,142.537 Z "/><text fill="#000000" font-family="sans-serif" font-size="12" lengthAdjust="spacingAndGlyphs" textLength="53" x="662.4" y="151.5722">ErrorView</text><line style="stroke: #A80036; stroke-width: 1.5;" x1="613.5" x2="734.5" y1="162.662" y2="162.662"/><ellipse cx="623.5" cy="173.662" fill="none" rx="3" ry="3" style="stroke: #038048; stroke-width: 1.0;"/><text fill="#000000" font-family="sans-serif" font-size="11" lengthAdjust="spacingAndGlyphs" text-decoration="underline" textLength="97" x="632.5" y="178.0809">MESSAGES: String[]</text><polygon fill="none" points="623.5,182.4979,627.5,186.4979,623.5,190.4979,619.5,186.4979" style="stroke: #B38D22; stroke-width: 1.0;"/><text fill="#000000" font-family="sans-serif" font-size="11" lengthAdjust="spacingAndGlyphs" textLength="54" x="632.5" y="191.9169">error: Error</text><line style="stroke: #A80036; stroke-width: 1.5;" x1="613.5" x2="734.5" y1="198.3339" y2="198.3339"/><ellipse cx="623.5" cy="209.3339" fill="#84BE84" rx="3" ry="3" style="stroke: #038048; stroke-width: 1.0;"/><text fill="#000000" font-family="sans-serif" font-size="11" lengthAdjust="spacingAndGlyphs" textLength="82" x="632.5" y="213.7528">ErrorView(Error)</text><polygon fill="#4177AF" points="623.5,219.1698,619.5,225.1698,627.5,225.1698" style="stroke: #1963A0; stroke-width: 1.0;"/><text fill="#000000" font-family="sans-serif" font-size="11" lengthAdjust="spacingAndGlyphs" textLength="67" x="632.5" y="227.5888">writeln(): void</text><!--MD5=[1daa0cf4ddb9741fae105c8ad335ce98]
class tictactoe.views.GameView--><rect fill="#FEFECE" filter="url(#fi9517s82qtju)" height="144.8516" id="tictactoe.views.GameView" style="stroke: #A80036; stroke-width: 1.5;" width="186" x="267" y="109.662"/><ellipse cx="325.75" cy="125.662" fill="#ADD1B2" rx="11" ry="11" style="stroke: #A80036; stroke-width: 1.0;"/><path d="M328.5156,121.537 Q328.6719,121.3183 328.8594,121.2089 Q329.0469,121.0995 329.2656,121.0995 Q329.6406,121.0995 329.875,121.3651 Q330.1094,121.6151 330.1094,122.2245 L330.1094,123.6776 Q330.1094,124.287 329.875,124.5526 Q329.6406,124.8183 329.2656,124.8183 Q328.9219,124.8183 328.7188,124.6151 Q328.5156,124.4276 328.4063,123.912 Q328.3594,123.5526 328.1719,123.3651 Q327.8438,122.9901 327.2344,122.7714 Q326.625,122.5526 326,122.5526 Q325.2344,122.5526 324.5938,122.8808 Q323.9688,123.2089 323.4688,123.9589 Q322.9844,124.7089 322.9844,125.7401 L322.9844,126.8339 Q322.9844,128.0683 323.875,128.8964 Q324.7656,129.7089 326.3594,129.7089 Q327.2969,129.7089 327.9531,129.4589 Q328.3438,129.3026 328.7656,128.8651 Q329.0313,128.5995 329.1719,128.5214 Q329.3281,128.4433 329.5313,128.4433 Q329.8594,128.4433 330.1094,128.7089 Q330.375,128.9589 330.375,129.3026 Q330.375,129.6464 330.0313,130.0526 Q329.5313,130.6308 328.7344,130.9589 Q327.6563,131.412 326.3594,131.412 Q324.8438,131.412 323.6406,130.787 Q322.6563,130.287 321.9688,129.2245 Q321.2813,128.1464 321.2813,126.8651 L321.2813,125.7089 Q321.2813,124.3808 321.8906,123.2401 Q322.5156,122.0839 323.6094,121.4745 Q324.7031,120.8495 325.9375,120.8495 Q326.6719,120.8495 327.3125,121.0214 Q327.9688,121.1776 328.5156,121.537 Z "/><text fill="#000000" font-family="sans-serif" font-size="12" lengthAdjust="spacingAndGlyphs" textLength="60" x="346.25" y="130.5722">GameView</text><line style="stroke: #A80036; stroke-width: 1.5;" x1="268" x2="452" y1="141.662" y2="141.662"/><line style="stroke: #A80036; stroke-width: 1.5;" x1="268" x2="452" y1="149.662" y2="149.662"/><ellipse cx="278" cy="160.662" fill="#84BE84" rx="3" ry="3" style="stroke: #038048; stroke-width: 1.0;"/><text fill="#000000" font-family="sans-serif" font-size="11" lengthAdjust="spacingAndGlyphs" textLength="107" x="287" y="165.0809">writeSeparator(): void</text><ellipse cx="278" cy="174.4979" fill="#84BE84" rx="3" ry="3" style="stroke: #038048; stroke-width: 1.0;"/><text fill="#000000" font-family="sans-serif" font-size="11" lengthAdjust="spacingAndGlyphs" textLength="135" x="287" y="178.9169">writeVerticalLineLeft(): void</text><ellipse cx="278" cy="188.3339" fill="#84BE84" rx="3" ry="3" style="stroke: #038048; stroke-width: 1.0;"/><text fill="#000000" font-family="sans-serif" font-size="11" lengthAdjust="spacingAndGlyphs" textLength="160" x="287" y="192.7528">writeVerticalLineCentered(): void</text><ellipse cx="278" cy="202.1698" fill="#84BE84" rx="3" ry="3" style="stroke: #038048; stroke-width: 1.0;"/><text fill="#000000" font-family="sans-serif" font-size="11" lengthAdjust="spacingAndGlyphs" textLength="88" x="287" y="206.5888">writeEmpty(): void</text><ellipse cx="278" cy="216.0058" fill="#84BE84" rx="3" ry="3" style="stroke: #038048; stroke-width: 1.0;"/><text fill="#000000" font-family="sans-serif" font-size="11" lengthAdjust="spacingAndGlyphs" textLength="107" x="287" y="220.4247">writeLineBreak(): void</text><ellipse cx="278" cy="229.8417" fill="#84BE84" rx="3" ry="3" style="stroke: #038048; stroke-width: 1.0;"/><text fill="#000000" font-family="sans-serif" font-size="11" lengthAdjust="spacingAndGlyphs" textLength="110" x="287" y="234.2606">writeToken(char): void</text><ellipse cx="278" cy="243.6776" fill="#84BE84" rx="3" ry="3" style="stroke: #038048; stroke-width: 1.0;"/><text fill="#000000" font-family="sans-serif" font-size="11" lengthAdjust="spacingAndGlyphs" textLength="115" x="287" y="248.0966">writeWinner(char): void</text><!--MD5=[ac4b0e0875a820e87662d988d53b2072]
class tictactoe.views.MessageView--><rect fill="#FEFECE" filter="url(#fi9517s82qtju)" height="283.2109" id="tictactoe.views.MessageView" style="stroke: #A80036; stroke-width: 1.5;" width="237" x="666.5" y="450.662"/><ellipse cx="742.25" cy="466.662" fill="#EB937F" rx="11" ry="11" style="stroke: #A80036; stroke-width: 1.0;"/><path d="M741.1094,467.4589 L741.1094,469.9589 L745.4375,469.9589 L745.4375,469.037 Q745.4375,468.4276 745.6719,468.162 Q745.9219,467.8964 746.2969,467.8964 Q746.6719,467.8964 746.9063,468.162 Q747.1406,468.4276 747.1406,469.037 L747.1406,471.662 L739.1406,471.662 Q738.5156,471.662 738.25,471.4276 Q738,471.1933 738,470.8026 Q738,470.4276 738.2656,470.1933 Q738.5313,469.9589 739.1406,469.9589 L739.4063,469.9589 L739.4063,463.3026 L739.1406,463.3026 Q738.5156,463.3026 738.25,463.0683 Q738,462.8339 738,462.4433 Q738,462.0683 738.25,461.8339 Q738.5156,461.5995 739.1406,461.5995 L746.7656,461.5995 L746.7656,464.1933 Q746.7656,464.8026 746.5313,465.0683 Q746.3125,465.3183 745.9219,465.3183 Q745.5469,465.3183 745.3125,465.0683 Q745.0781,464.8026 745.0781,464.1933 L745.0781,463.3026 L741.1094,463.3026 L741.1094,465.7558 L742.5938,465.7558 Q742.5938,465.0995 742.7188,464.912 Q742.9844,464.5058 743.4531,464.5058 Q743.8281,464.5058 744.0625,464.7714 Q744.2969,465.0214 744.2969,465.6308 L744.2969,467.5995 Q744.2969,468.1464 744.1719,468.3339 Q743.9063,468.7245 743.4531,468.7245 Q742.9844,468.7245 742.7188,468.3183 Q742.5938,468.1308 742.5938,467.4589 L741.1094,467.4589 Z "/><text fill="#000000" font-family="sans-serif" font-size="12" lengthAdjust="spacingAndGlyphs" textLength="77" x="762.75" y="471.5722">MessageView</text><line style="stroke: #A80036; stroke-width: 1.5;" x1="667.5" x2="902.5" y1="482.662" y2="482.662"/><ellipse cx="677.5" cy="493.662" fill="none" rx="3" ry="3" style="stroke: #038048; stroke-width: 1.0;"/><text fill="#000000" font-family="sans-serif" font-size="11" lengthAdjust="spacingAndGlyphs" textLength="110" x="686.5" y="498.0809">EMPTY: MessageView</text><ellipse cx="677.5" cy="507.4979" fill="none" rx="3" ry="3" style="stroke: #038048; stroke-width: 1.0;"/><text fill="#000000" font-family="sans-serif" font-size="11" lengthAdjust="spacingAndGlyphs" textLength="139" x="686.5" y="511.9169">SEPARATOR: MessageView</text><ellipse cx="677.5" cy="521.3339" fill="none" rx="3" ry="3" style="stroke: #038048; stroke-width: 1.0;"/><text fill="#000000" font-family="sans-serif" font-size="11" lengthAdjust="spacingAndGlyphs" textLength="211" x="686.5" y="525.7528">VERTICAL_LINE_CENTERED: MessageView</text><ellipse cx="677.5" cy="535.1698" fill="none" rx="3" ry="3" style="stroke: #038048; stroke-width: 1.0;"/><text fill="#000000" font-family="sans-serif" font-size="11" lengthAdjust="spacingAndGlyphs" textLength="183" x="686.5" y="539.5888">VERTICAL_LINE_LEFT: MessageView</text><ellipse cx="677.5" cy="549.0058" fill="none" rx="3" ry="3" style="stroke: #038048; stroke-width: 1.0;"/><text fill="#000000" font-family="sans-serif" font-size="11" lengthAdjust="spacingAndGlyphs" textLength="142" x="686.5" y="553.4247">PLAYER_WIN: MessageView</text><ellipse cx="677.5" cy="562.8417" fill="none" rx="3" ry="3" style="stroke: #038048; stroke-width: 1.0;"/><text fill="#000000" font-family="sans-serif" font-size="11" lengthAdjust="spacingAndGlyphs" textLength="146" x="686.5" y="567.2606">START_GAME: MessageView</text><ellipse cx="677.5" cy="576.6776" fill="none" rx="3" ry="3" style="stroke: #038048; stroke-width: 1.0;"/><text fill="#000000" font-family="sans-serif" font-size="11" lengthAdjust="spacingAndGlyphs" textLength="166" x="686.5" y="581.0966">CHOOSE_PLAYER: MessageView</text><ellipse cx="677.5" cy="590.5136" fill="none" rx="3" ry="3" style="stroke: #038048; stroke-width: 1.0;"/><text fill="#000000" font-family="sans-serif" font-size="11" lengthAdjust="spacingAndGlyphs" textLength="135" x="686.5" y="594.9325">READ_ROW: MessageView</text><ellipse cx="677.5" cy="604.3495" fill="none" rx="3" ry="3" style="stroke: #038048; stroke-width: 1.0;"/><text fill="#000000" font-family="sans-serif" font-size="11" lengthAdjust="spacingAndGlyphs" textLength="153" x="686.5" y="608.7684">READ_COLUMN: MessageView</text><ellipse cx="677.5" cy="618.1854" fill="none" rx="3" ry="3" style="stroke: #038048; stroke-width: 1.0;"/><text fill="#000000" font-family="sans-serif" font-size="11" lengthAdjust="spacingAndGlyphs" textLength="111" x="686.5" y="622.6044">ERROR: MessageView</text><ellipse cx="677.5" cy="632.0214" fill="none" rx="3" ry="3" style="stroke: #038048; stroke-width: 1.0;"/><text fill="#000000" font-family="sans-serif" font-size="11" lengthAdjust="spacingAndGlyphs" textLength="183" x="686.5" y="636.4403">PROPOSE_COMMAND: MessageView</text><ellipse cx="677.5" cy="645.8573" fill="none" rx="3" ry="3" style="stroke: #038048; stroke-width: 1.0;"/><text fill="#000000" font-family="sans-serif" font-size="11" lengthAdjust="spacingAndGlyphs" textLength="164" x="686.5" y="650.2763">UNDO_COMMAND: MessageView</text><ellipse cx="677.5" cy="659.6933" fill="none" rx="3" ry="3" style="stroke: #038048; stroke-width: 1.0;"/><text fill="#000000" font-family="sans-serif" font-size="11" lengthAdjust="spacingAndGlyphs" textLength="163" x="686.5" y="664.1122">REDO_COMMAND: MessageView</text><ellipse cx="677.5" cy="673.5292" fill="none" rx="3" ry="3" style="stroke: #038048; stroke-width: 1.0;"/><text fill="#000000" font-family="sans-serif" font-size="11" lengthAdjust="spacingAndGlyphs" textLength="117" x="686.5" y="677.9481">RESUME: MessageView</text><rect fill="none" height="6" style="stroke: #C82930; stroke-width: 1.0;" width="6" x="674.5" y="684.3651"/><text fill="#000000" font-family="sans-serif" font-size="11" lengthAdjust="spacingAndGlyphs" textLength="78" x="686.5" y="691.7841">message: String</text><line style="stroke: #A80036; stroke-width: 1.5;" x1="667.5" x2="902.5" y1="698.2011" y2="698.2011"/><rect fill="#F24D5C" height="6" style="stroke: #C82930; stroke-width: 1.0;" width="6" x="674.5" y="706.2011"/><text fill="#000000" font-family="sans-serif" font-size="11" lengthAdjust="spacingAndGlyphs" textLength="106" x="686.5" y="713.62">MessageView(String)</text><ellipse cx="677.5" cy="723.037" fill="#84BE84" rx="3" ry="3" style="stroke: #038048; stroke-width: 1.0;"/><text fill="#000000" font-family="sans-serif" font-size="11" lengthAdjust="spacingAndGlyphs" textLength="101" x="686.5" y="727.4559">getMessage(): String</text><!--MD5=[973b15c09f519f065f4b28972f0c8773]
class tictactoe.views.ResultView--><rect fill="#FEFECE" filter="url(#fi9517s82qtju)" height="61.8359" id="tictactoe.views.ResultView" style="stroke: #A80036; stroke-width: 1.5;" width="107" x="374.5" y="321.662"/><ellipse cx="395.35" cy="337.662" fill="#ADD1B2" rx="11" ry="11" style="stroke: #A80036; stroke-width: 1.0;"/><path d="M398.1156,333.537 Q398.2719,333.3183 398.4594,333.2089 Q398.6469,333.0995 398.8656,333.0995 Q399.2406,333.0995 399.475,333.3651 Q399.7094,333.6151 399.7094,334.2245 L399.7094,335.6776 Q399.7094,336.287 399.475,336.5526 Q399.2406,336.8183 398.8656,336.8183 Q398.5219,336.8183 398.3188,336.6151 Q398.1156,336.4276 398.0063,335.912 Q397.9594,335.5526 397.7719,335.3651 Q397.4438,334.9901 396.8344,334.7714 Q396.225,334.5526 395.6,334.5526 Q394.8344,334.5526 394.1938,334.8808 Q393.5688,335.2089 393.0688,335.9589 Q392.5844,336.7089 392.5844,337.7401 L392.5844,338.8339 Q392.5844,340.0683 393.475,340.8964 Q394.3656,341.7089 395.9594,341.7089 Q396.8969,341.7089 397.5531,341.4589 Q397.9438,341.3026 398.3656,340.8651 Q398.6313,340.5995 398.7719,340.5214 Q398.9281,340.4433 399.1313,340.4433 Q399.4594,340.4433 399.7094,340.7089 Q399.975,340.9589 399.975,341.3026 Q399.975,341.6464 399.6313,342.0526 Q399.1313,342.6308 398.3344,342.9589 Q397.2563,343.412 395.9594,343.412 Q394.4438,343.412 393.2406,342.787 Q392.2563,342.287 391.5688,341.2245 Q390.8813,340.1464 390.8813,338.8651 L390.8813,337.7089 Q390.8813,336.3808 391.4906,335.2401 Q392.1156,334.0839 393.2094,333.4745 Q394.3031,332.8495 395.5375,332.8495 Q396.2719,332.8495 396.9125,333.0214 Q397.5688,333.1776 398.1156,333.537 Z "/><text fill="#000000" font-family="sans-serif" font-size="12" lengthAdjust="spacingAndGlyphs" textLength="62" x="410.65" y="342.5722">ResultView</text><line style="stroke: #A80036; stroke-width: 1.5;" x1="375.5" x2="480.5" y1="353.662" y2="353.662"/><line style="stroke: #A80036; stroke-width: 1.5;" x1="375.5" x2="480.5" y1="361.662" y2="361.662"/><polygon fill="#4177AF" points="385.5,368.662,381.5,374.662,389.5,374.662" style="stroke: #1963A0; stroke-width: 1.0;"/><text fill="#000000" font-family="sans-serif" font-size="11" lengthAdjust="spacingAndGlyphs" textLength="81" x="394.5" y="377.0809">write(char): void</text><!--MD5=[62ac81c48b8877f958a2d8bb66d6ec3f]
class tictactoe.views.MovementCommand--><rect fill="#FEFECE" filter="url(#fi9517s82qtju)" height="75.6719" id="tictactoe.views.MovementCommand" style="stroke: #A80036; stroke-width: 1.5;" width="147" x="516.5" y="314.662"/><ellipse cx="531.5" cy="330.662" fill="#ADD1B2" rx="11" ry="11" style="stroke: #A80036; stroke-width: 1.0;"/><path d="M534.2656,326.537 Q534.4219,326.3183 534.6094,326.2089 Q534.7969,326.0995 535.0156,326.0995 Q535.3906,326.0995 535.625,326.3651 Q535.8594,326.6151 535.8594,327.2245 L535.8594,328.6776 Q535.8594,329.287 535.625,329.5526 Q535.3906,329.8183 535.0156,329.8183 Q534.6719,329.8183 534.4688,329.6151 Q534.2656,329.4276 534.1563,328.912 Q534.1094,328.5526 533.9219,328.3651 Q533.5938,327.9901 532.9844,327.7714 Q532.375,327.5526 531.75,327.5526 Q530.9844,327.5526 530.3438,327.8808 Q529.7188,328.2089 529.2188,328.9589 Q528.7344,329.7089 528.7344,330.7401 L528.7344,331.8339 Q528.7344,333.0683 529.625,333.8964 Q530.5156,334.7089 532.1094,334.7089 Q533.0469,334.7089 533.7031,334.4589 Q534.0938,334.3026 534.5156,333.8651 Q534.7813,333.5995 534.9219,333.5214 Q535.0781,333.4433 535.2813,333.4433 Q535.6094,333.4433 535.8594,333.7089 Q536.125,333.9589 536.125,334.3026 Q536.125,334.6464 535.7813,335.0526 Q535.2813,335.6308 534.4844,335.9589 Q533.4063,336.412 532.1094,336.412 Q530.5938,336.412 529.3906,335.787 Q528.4063,335.287 527.7188,334.2245 Q527.0313,333.1464 527.0313,331.8651 L527.0313,330.7089 Q527.0313,329.3808 527.6406,328.2401 Q528.2656,327.0839 529.3594,326.4745 Q530.4531,325.8495 531.6875,325.8495 Q532.4219,325.8495 533.0625,326.0214 Q533.7188,326.1776 534.2656,326.537 Z "/><text fill="#000000" font-family="sans-serif" font-size="12" lengthAdjust="spacingAndGlyphs" textLength="115" x="545.5" y="335.5722">MovementCommand</text><line style="stroke: #A80036; stroke-width: 1.5;" x1="517.5" x2="662.5" y1="346.662" y2="346.662"/><line style="stroke: #A80036; stroke-width: 1.5;" x1="517.5" x2="662.5" y1="354.662" y2="354.662"/><ellipse cx="527.5" cy="365.662" fill="#84BE84" rx="3" ry="3" style="stroke: #038048; stroke-width: 1.0;"/><text fill="#000000" font-family="sans-serif" font-size="11" lengthAdjust="spacingAndGlyphs" textLength="104" x="536.5" y="370.0809">MovementCommand()</text><ellipse cx="527.5" cy="379.4979" fill="#84BE84" rx="3" ry="3" style="stroke: #038048; stroke-width: 1.0;"/><text fill="#000000" font-family="sans-serif" font-size="11" lengthAdjust="spacingAndGlyphs" textLength="106" x="536.5" y="383.9169">updateIsActive(): void</text><!--MD5=[4265a7851052f9bf435afb5ed8354922]
class tictactoe.views.RedoCommand--><rect fill="#FEFECE" filter="url(#fi9517s82qtju)" height="75.6719" id="tictactoe.views.RedoCommand" style="stroke: #A80036; stroke-width: 1.5;" width="132" x="906" y="314.662"/><ellipse cx="925.95" cy="330.662" fill="#ADD1B2" rx="11" ry="11" style="stroke: #A80036; stroke-width: 1.0;"/><path d="M928.7156,326.537 Q928.8719,326.3183 929.0594,326.2089 Q929.2469,326.0995 929.4656,326.0995 Q929.8406,326.0995 930.075,326.3651 Q930.3094,326.6151 930.3094,327.2245 L930.3094,328.6776 Q930.3094,329.287 930.075,329.5526 Q929.8406,329.8183 929.4656,329.8183 Q929.1219,329.8183 928.9188,329.6151 Q928.7156,329.4276 928.6063,328.912 Q928.5594,328.5526 928.3719,328.3651 Q928.0438,327.9901 927.4344,327.7714 Q926.825,327.5526 926.2,327.5526 Q925.4344,327.5526 924.7938,327.8808 Q924.1688,328.2089 923.6688,328.9589 Q923.1844,329.7089 923.1844,330.7401 L923.1844,331.8339 Q923.1844,333.0683 924.075,333.8964 Q924.9656,334.7089 926.5594,334.7089 Q927.4969,334.7089 928.1531,334.4589 Q928.5438,334.3026 928.9656,333.8651 Q929.2313,333.5995 929.3719,333.5214 Q929.5281,333.4433 929.7313,333.4433 Q930.0594,333.4433 930.3094,333.7089 Q930.575,333.9589 930.575,334.3026 Q930.575,334.6464 930.2313,335.0526 Q929.7313,335.6308 928.9344,335.9589 Q927.8563,336.412 926.5594,336.412 Q925.0438,336.412 923.8406,335.787 Q922.8563,335.287 922.1688,334.2245 Q921.4813,333.1464 921.4813,331.8651 L921.4813,330.7089 Q921.4813,329.3808 922.0906,328.2401 Q922.7156,327.0839 923.8094,326.4745 Q924.9031,325.8495 926.1375,325.8495 Q926.8719,325.8495 927.5125,326.0214 Q928.1688,326.1776 928.7156,326.537 Z "/><text fill="#000000" font-family="sans-serif" font-size="12" lengthAdjust="spacingAndGlyphs" textLength="89" x="941.05" y="335.5722">RedoCommand</text><line style="stroke: #A80036; stroke-width: 1.5;" x1="907" x2="1037" y1="346.662" y2="346.662"/><line style="stroke: #A80036; stroke-width: 1.5;" x1="907" x2="1037" y1="354.662" y2="354.662"/><polygon fill="#4177AF" points="917,361.662,913,367.662,921,367.662" style="stroke: #1963A0; stroke-width: 1.0;"/><text fill="#000000" font-family="sans-serif" font-size="11" lengthAdjust="spacingAndGlyphs" textLength="80" x="926" y="370.0809">RedoCommand()</text><ellipse cx="917" cy="379.4979" fill="#84BE84" rx="3" ry="3" style="stroke: #038048; stroke-width: 1.0;"/><text fill="#000000" font-family="sans-serif" font-size="11" lengthAdjust="spacingAndGlyphs" textLength="106" x="926" y="383.9169">updateIsActive(): void</text><!--MD5=[137f690b5283483823808e0278817ad3]
class tictactoe.views.ResumeView--><rect fill="#FEFECE" filter="url(#fi9517s82qtju)" height="61.8359" id="tictactoe.views.ResumeView" style="stroke: #A80036; stroke-width: 1.5;" width="106" x="1194" y="321.662"/><ellipse cx="1209" cy="337.662" fill="#ADD1B2" rx="11" ry="11" style="stroke: #A80036; stroke-width: 1.0;"/><path d="M1211.7656,333.537 Q1211.9219,333.3183 1212.1094,333.2089 Q1212.2969,333.0995 1212.5156,333.0995 Q1212.8906,333.0995 1213.125,333.3651 Q1213.3594,333.6151 1213.3594,334.2245 L1213.3594,335.6776 Q1213.3594,336.287 1213.125,336.5526 Q1212.8906,336.8183 1212.5156,336.8183 Q1212.1719,336.8183 1211.9688,336.6151 Q1211.7656,336.4276 1211.6563,335.912 Q1211.6094,335.5526 1211.4219,335.3651 Q1211.0938,334.9901 1210.4844,334.7714 Q1209.875,334.5526 1209.25,334.5526 Q1208.4844,334.5526 1207.8438,334.8808 Q1207.2188,335.2089 1206.7188,335.9589 Q1206.2344,336.7089 1206.2344,337.7401 L1206.2344,338.8339 Q1206.2344,340.0683 1207.125,340.8964 Q1208.0156,341.7089 1209.6094,341.7089 Q1210.5469,341.7089 1211.2031,341.4589 Q1211.5938,341.3026 1212.0156,340.8651 Q1212.2813,340.5995 1212.4219,340.5214 Q1212.5781,340.4433 1212.7813,340.4433 Q1213.1094,340.4433 1213.3594,340.7089 Q1213.625,340.9589 1213.625,341.3026 Q1213.625,341.6464 1213.2813,342.0526 Q1212.7813,342.6308 1211.9844,342.9589 Q1210.9063,343.412 1209.6094,343.412 Q1208.0938,343.412 1206.8906,342.787 Q1205.9063,342.287 1205.2188,341.2245 Q1204.5313,340.1464 1204.5313,338.8651 L1204.5313,337.7089 Q1204.5313,336.3808 1205.1406,335.2401 Q1205.7656,334.0839 1206.8594,333.4745 Q1207.9531,332.8495 1209.1875,332.8495 Q1209.9219,332.8495 1210.5625,333.0214 Q1211.2188,333.1776 1211.7656,333.537 Z "/><text fill="#000000" font-family="sans-serif" font-size="12" lengthAdjust="spacingAndGlyphs" textLength="74" x="1223" y="342.5722">ResumeView</text><line style="stroke: #A80036; stroke-width: 1.5;" x1="1195" x2="1299" y1="353.662" y2="353.662"/><line style="stroke: #A80036; stroke-width: 1.5;" x1="1195" x2="1299" y1="361.662" y2="361.662"/><polygon fill="#4177AF" points="1205,368.662,1201,374.662,1209,374.662" style="stroke: #1963A0; stroke-width: 1.0;"/><text fill="#000000" font-family="sans-serif" font-size="11" lengthAdjust="spacingAndGlyphs" textLength="74" x="1214" y="377.0809">read(): boolean</text><!--MD5=[50a4c98617440bec164bf073e81d587d]
class tictactoe.views.StartView--><rect fill="#FEFECE" filter="url(#fi9517s82qtju)" height="61.8359" id="tictactoe.views.StartView" style="stroke: #A80036; stroke-width: 1.5;" width="85" x="1073.5" y="321.662"/><ellipse cx="1089.4" cy="337.662" fill="#ADD1B2" rx="11" ry="11" style="stroke: #A80036; stroke-width: 1.0;"/><path d="M1092.1656,333.537 Q1092.3219,333.3183 1092.5094,333.2089 Q1092.6969,333.0995 1092.9156,333.0995 Q1093.2906,333.0995 1093.525,333.3651 Q1093.7594,333.6151 1093.7594,334.2245 L1093.7594,335.6776 Q1093.7594,336.287 1093.525,336.5526 Q1093.2906,336.8183 1092.9156,336.8183 Q1092.5719,336.8183 1092.3688,336.6151 Q1092.1656,336.4276 1092.0563,335.912 Q1092.0094,335.5526 1091.8219,335.3651 Q1091.4938,334.9901 1090.8844,334.7714 Q1090.275,334.5526 1089.65,334.5526 Q1088.8844,334.5526 1088.2438,334.8808 Q1087.6188,335.2089 1087.1188,335.9589 Q1086.6344,336.7089 1086.6344,337.7401 L1086.6344,338.8339 Q1086.6344,340.0683 1087.525,340.8964 Q1088.4156,341.7089 1090.0094,341.7089 Q1090.9469,341.7089 1091.6031,341.4589 Q1091.9938,341.3026 1092.4156,340.8651 Q1092.6813,340.5995 1092.8219,340.5214 Q1092.9781,340.4433 1093.1813,340.4433 Q1093.5094,340.4433 1093.7594,340.7089 Q1094.025,340.9589 1094.025,341.3026 Q1094.025,341.6464 1093.6813,342.0526 Q1093.1813,342.6308 1092.3844,342.9589 Q1091.3063,343.412 1090.0094,343.412 Q1088.4938,343.412 1087.2906,342.787 Q1086.3063,342.287 1085.6188,341.2245 Q1084.9313,340.1464 1084.9313,338.8651 L1084.9313,337.7089 Q1084.9313,336.3808 1085.5406,335.2401 Q1086.1656,334.0839 1087.2594,333.4745 Q1088.3531,332.8495 1089.5875,332.8495 Q1090.3219,332.8495 1090.9625,333.0214 Q1091.6188,333.1776 1092.1656,333.537 Z "/><text fill="#000000" font-family="sans-serif" font-size="12" lengthAdjust="spacingAndGlyphs" textLength="51" x="1103.6" y="342.5722">StartView</text><line style="stroke: #A80036; stroke-width: 1.5;" x1="1074.5" x2="1157.5" y1="353.662" y2="353.662"/><line style="stroke: #A80036; stroke-width: 1.5;" x1="1074.5" x2="1157.5" y1="361.662" y2="361.662"/><polygon fill="#4177AF" points="1084.5,368.662,1080.5,374.662,1088.5,374.662" style="stroke: #1963A0; stroke-width: 1.0;"/><text fill="#000000" font-family="sans-serif" font-size="11" lengthAdjust="spacingAndGlyphs" textLength="59" x="1093.5" y="377.0809">write(): void</text><!--MD5=[47e330312226366ae68ba08aad8e559b]
class tictactoe.views.UndoCommand--><rect fill="#FEFECE" filter="url(#fi9517s82qtju)" height="75.6719" id="tictactoe.views.UndoCommand" style="stroke: #A80036; stroke-width: 1.5;" width="172" x="699" y="314.662"/><ellipse cx="736.95" cy="330.662" fill="#ADD1B2" rx="11" ry="11" style="stroke: #A80036; stroke-width: 1.0;"/><path d="M739.7156,326.537 Q739.8719,326.3183 740.0594,326.2089 Q740.2469,326.0995 740.4656,326.0995 Q740.8406,326.0995 741.075,326.3651 Q741.3094,326.6151 741.3094,327.2245 L741.3094,328.6776 Q741.3094,329.287 741.075,329.5526 Q740.8406,329.8183 740.4656,329.8183 Q740.1219,329.8183 739.9188,329.6151 Q739.7156,329.4276 739.6063,328.912 Q739.5594,328.5526 739.3719,328.3651 Q739.0438,327.9901 738.4344,327.7714 Q737.825,327.5526 737.2,327.5526 Q736.4344,327.5526 735.7938,327.8808 Q735.1688,328.2089 734.6688,328.9589 Q734.1844,329.7089 734.1844,330.7401 L734.1844,331.8339 Q734.1844,333.0683 735.075,333.8964 Q735.9656,334.7089 737.5594,334.7089 Q738.4969,334.7089 739.1531,334.4589 Q739.5438,334.3026 739.9656,333.8651 Q740.2313,333.5995 740.3719,333.5214 Q740.5281,333.4433 740.7313,333.4433 Q741.0594,333.4433 741.3094,333.7089 Q741.575,333.9589 741.575,334.3026 Q741.575,334.6464 741.2313,335.0526 Q740.7313,335.6308 739.9344,335.9589 Q738.8563,336.412 737.5594,336.412 Q736.0438,336.412 734.8406,335.787 Q733.8563,335.287 733.1688,334.2245 Q732.4813,333.1464 732.4813,331.8651 L732.4813,330.7089 Q732.4813,329.3808 733.0906,328.2401 Q733.7156,327.0839 734.8094,326.4745 Q735.9031,325.8495 737.1375,325.8495 Q737.8719,325.8495 738.5125,326.0214 Q739.1688,326.1776 739.7156,326.537 Z "/><text fill="#000000" font-family="sans-serif" font-size="12" lengthAdjust="spacingAndGlyphs" textLength="89" x="756.05" y="335.5722">UndoCommand</text><line style="stroke: #A80036; stroke-width: 1.5;" x1="700" x2="870" y1="346.662" y2="346.662"/><line style="stroke: #A80036; stroke-width: 1.5;" x1="700" x2="870" y1="354.662" y2="354.662"/><ellipse cx="710" cy="365.662" fill="#84BE84" rx="3" ry="3" style="stroke: #038048; stroke-width: 1.0;"/><text fill="#000000" font-family="sans-serif" font-size="11" lengthAdjust="spacingAndGlyphs" textLength="146" x="719" y="370.0809">UndoCommand(PlayController)</text><ellipse cx="710" cy="379.4979" fill="#84BE84" rx="3" ry="3" style="stroke: #038048; stroke-width: 1.0;"/><text fill="#000000" font-family="sans-serif" font-size="11" lengthAdjust="spacingAndGlyphs" textLength="106" x="719" y="383.9169">updateIsActive(): void</text><!--MD5=[4e5fca12f01c5426c188915da515377f]
class tictactoe.views.UserPlayerView--><rect fill="#FEFECE" filter="url(#fi9517s82qtju)" height="61.8359" id="tictactoe.views.UserPlayerView" style="stroke: #A80036; stroke-width: 1.5;" width="194" x="38" y="151.162"/><ellipse cx="87.25" cy="167.162" fill="#ADD1B2" rx="11" ry="11" style="stroke: #A80036; stroke-width: 1.0;"/><path d="M90.0156,163.037 Q90.1719,162.8183 90.3594,162.7089 Q90.5469,162.5995 90.7656,162.5995 Q91.1406,162.5995 91.375,162.8651 Q91.6094,163.1151 91.6094,163.7245 L91.6094,165.1776 Q91.6094,165.787 91.375,166.0526 Q91.1406,166.3183 90.7656,166.3183 Q90.4219,166.3183 90.2188,166.1151 Q90.0156,165.9276 89.9063,165.412 Q89.8594,165.0526 89.6719,164.8651 Q89.3438,164.4901 88.7344,164.2714 Q88.125,164.0526 87.5,164.0526 Q86.7344,164.0526 86.0938,164.3808 Q85.4688,164.7089 84.9688,165.4589 Q84.4844,166.2089 84.4844,167.2401 L84.4844,168.3339 Q84.4844,169.5683 85.375,170.3964 Q86.2656,171.2089 87.8594,171.2089 Q88.7969,171.2089 89.4531,170.9589 Q89.8438,170.8026 90.2656,170.3651 Q90.5313,170.0995 90.6719,170.0214 Q90.8281,169.9433 91.0313,169.9433 Q91.3594,169.9433 91.6094,170.2089 Q91.875,170.4589 91.875,170.8026 Q91.875,171.1464 91.5313,171.5526 Q91.0313,172.1308 90.2344,172.4589 Q89.1563,172.912 87.8594,172.912 Q86.3438,172.912 85.1406,172.287 Q84.1563,171.787 83.4688,170.7245 Q82.7813,169.6464 82.7813,168.3651 L82.7813,167.2089 Q82.7813,165.8808 83.3906,164.7401 Q84.0156,163.5839 85.1094,162.9745 Q86.2031,162.3495 87.4375,162.3495 Q88.1719,162.3495 88.8125,162.5214 Q89.4688,162.6776 90.0156,163.037 Z "/><text fill="#000000" font-family="sans-serif" font-size="12" lengthAdjust="spacingAndGlyphs" textLength="87" x="107.75" y="172.0722">UserPlayerView</text><line style="stroke: #A80036; stroke-width: 1.5;" x1="39" x2="231" y1="183.162" y2="183.162"/><line style="stroke: #A80036; stroke-width: 1.5;" x1="39" x2="231" y1="191.162" y2="191.162"/><ellipse cx="49" cy="202.162" fill="#84BE84" rx="3" ry="3" style="stroke: #038048; stroke-width: 1.0;"/><text fill="#000000" font-family="sans-serif" font-size="11" lengthAdjust="spacingAndGlyphs" textLength="168" x="58" y="206.5809">readCoordinate(String): Coordinate</text><!--MD5=[2dcb8e10b6e8b78f41f52f48677e1ea3]
class utils.WithConsoleView--><rect fill="#FEFECE" filter="url(#fi9517s82qtju)" height="48" id="utils.WithConsoleView" style="stroke: #A80036; stroke-width: 1.5;" width="129" x="1356.5" y="158.162"/><ellipse cx="1371.5" cy="174.162" fill="#ADD1B2" rx="11" ry="11" style="stroke: #A80036; stroke-width: 1.0;"/><path d="M1374.2656,170.037 Q1374.4219,169.8183 1374.6094,169.7089 Q1374.7969,169.5995 1375.0156,169.5995 Q1375.3906,169.5995 1375.625,169.8651 Q1375.8594,170.1151 1375.8594,170.7245 L1375.8594,172.1776 Q1375.8594,172.787 1375.625,173.0526 Q1375.3906,173.3183 1375.0156,173.3183 Q1374.6719,173.3183 1374.4688,173.1151 Q1374.2656,172.9276 1374.1563,172.412 Q1374.1094,172.0526 1373.9219,171.8651 Q1373.5938,171.4901 1372.9844,171.2714 Q1372.375,171.0526 1371.75,171.0526 Q1370.9844,171.0526 1370.3438,171.3808 Q1369.7188,171.7089 1369.2188,172.4589 Q1368.7344,173.2089 1368.7344,174.2401 L1368.7344,175.3339 Q1368.7344,176.5683 1369.625,177.3964 Q1370.5156,178.2089 1372.1094,178.2089 Q1373.0469,178.2089 1373.7031,177.9589 Q1374.0938,177.8026 1374.5156,177.3651 Q1374.7813,177.0995 1374.9219,177.0214 Q1375.0781,176.9433 1375.2813,176.9433 Q1375.6094,176.9433 1375.8594,177.2089 Q1376.125,177.4589 1376.125,177.8026 Q1376.125,178.1464 1375.7813,178.5526 Q1375.2813,179.1308 1374.4844,179.4589 Q1373.4063,179.912 1372.1094,179.912 Q1370.5938,179.912 1369.3906,179.287 Q1368.4063,178.787 1367.7188,177.7245 Q1367.0313,176.6464 1367.0313,175.3651 L1367.0313,174.2089 Q1367.0313,172.8808 1367.6406,171.7401 Q1368.2656,170.5839 1369.3594,169.9745 Q1370.4531,169.3495 1371.6875,169.3495 Q1372.4219,169.3495 1373.0625,169.5214 Q1373.7188,169.6776 1374.2656,170.037 Z "/><text fill="#000000" font-family="sans-serif" font-size="12" lengthAdjust="spacingAndGlyphs" textLength="97" x="1385.5" y="179.0722">WithConsoleView</text><line style="stroke: #A80036; stroke-width: 1.5;" x1="1357.5" x2="1484.5" y1="190.162" y2="190.162"/><line style="stroke: #A80036; stroke-width: 1.5;" x1="1357.5" x2="1484.5" y1="198.162" y2="198.162"/><!--MD5=[8356458262f68e05fc628f2b3e46c9c1]
class utils.Command--><rect fill="#FEFECE" filter="url(#fi9517s82qtju)" height="48" id="utils.Command" style="stroke: #A80036; stroke-width: 1.5;" width="91" x="1660.5" y="158.162"/><ellipse cx="1675.5" cy="174.162" fill="#ADD1B2" rx="11" ry="11" style="stroke: #A80036; stroke-width: 1.0;"/><path d="M1678.2656,170.037 Q1678.4219,169.8183 1678.6094,169.7089 Q1678.7969,169.5995 1679.0156,169.5995 Q1679.3906,169.5995 1679.625,169.8651 Q1679.8594,170.1151 1679.8594,170.7245 L1679.8594,172.1776 Q1679.8594,172.787 1679.625,173.0526 Q1679.3906,173.3183 1679.0156,173.3183 Q1678.6719,173.3183 1678.4688,173.1151 Q1678.2656,172.9276 1678.1563,172.412 Q1678.1094,172.0526 1677.9219,171.8651 Q1677.5938,171.4901 1676.9844,171.2714 Q1676.375,171.0526 1675.75,171.0526 Q1674.9844,171.0526 1674.3438,171.3808 Q1673.7188,171.7089 1673.2188,172.4589 Q1672.7344,173.2089 1672.7344,174.2401 L1672.7344,175.3339 Q1672.7344,176.5683 1673.625,177.3964 Q1674.5156,178.2089 1676.1094,178.2089 Q1677.0469,178.2089 1677.7031,177.9589 Q1678.0938,177.8026 1678.5156,177.3651 Q1678.7813,177.0995 1678.9219,177.0214 Q1679.0781,176.9433 1679.2813,176.9433 Q1679.6094,176.9433 1679.8594,177.2089 Q1680.125,177.4589 1680.125,177.8026 Q1680.125,178.1464 1679.7813,178.5526 Q1679.2813,179.1308 1678.4844,179.4589 Q1677.4063,179.912 1676.1094,179.912 Q1674.5938,179.912 1673.3906,179.287 Q1672.4063,178.787 1671.7188,177.7245 Q1671.0313,176.6464 1671.0313,175.3651 L1671.0313,174.2089 Q1671.0313,172.8808 1671.6406,171.7401 Q1672.2656,170.5839 1673.3594,169.9745 Q1674.4531,169.3495 1675.6875,169.3495 Q1676.4219,169.3495 1677.0625,169.5214 Q1677.7188,169.6776 1678.2656,170.037 Z "/><text fill="#000000" font-family="sans-serif" font-size="12" lengthAdjust="spacingAndGlyphs" textLength="59" x="1689.5" y="179.0722">Command</text><line style="stroke: #A80036; stroke-width: 1.5;" x1="1661.5" x2="1750.5" y1="190.162" y2="190.162"/><line style="stroke: #A80036; stroke-width: 1.5;" x1="1661.5" x2="1750.5" y1="198.162" y2="198.162"/><!--MD5=[ae8b7cdc49d99fbec8c7e641a97b4a7f]
class utils.YesNoDialog--><rect fill="#FEFECE" filter="url(#fi9517s82qtju)" height="48" id="utils.YesNoDialog" style="stroke: #A80036; stroke-width: 1.5;" width="105" x="1520.5" y="158.162"/><ellipse cx="1535.5" cy="174.162" fill="#ADD1B2" rx="11" ry="11" style="stroke: #A80036; stroke-width: 1.0;"/><path d="M1538.2656,170.037 Q1538.4219,169.8183 1538.6094,169.7089 Q1538.7969,169.5995 1539.0156,169.5995 Q1539.3906,169.5995 1539.625,169.8651 Q1539.8594,170.1151 1539.8594,170.7245 L1539.8594,172.1776 Q1539.8594,172.787 1539.625,173.0526 Q1539.3906,173.3183 1539.0156,173.3183 Q1538.6719,173.3183 1538.4688,173.1151 Q1538.2656,172.9276 1538.1563,172.412 Q1538.1094,172.0526 1537.9219,171.8651 Q1537.5938,171.4901 1536.9844,171.2714 Q1536.375,171.0526 1535.75,171.0526 Q1534.9844,171.0526 1534.3438,171.3808 Q1533.7188,171.7089 1533.2188,172.4589 Q1532.7344,173.2089 1532.7344,174.2401 L1532.7344,175.3339 Q1532.7344,176.5683 1533.625,177.3964 Q1534.5156,178.2089 1536.1094,178.2089 Q1537.0469,178.2089 1537.7031,177.9589 Q1538.0938,177.8026 1538.5156,177.3651 Q1538.7813,177.0995 1538.9219,177.0214 Q1539.0781,176.9433 1539.2813,176.9433 Q1539.6094,176.9433 1539.8594,177.2089 Q1540.125,177.4589 1540.125,177.8026 Q1540.125,178.1464 1539.7813,178.5526 Q1539.2813,179.1308 1538.4844,179.4589 Q1537.4063,179.912 1536.1094,179.912 Q1534.5938,179.912 1533.3906,179.287 Q1532.4063,178.787 1531.7188,177.7245 Q1531.0313,176.6464 1531.0313,175.3651 L1531.0313,174.2089 Q1531.0313,172.8808 1531.6406,171.7401 Q1532.2656,170.5839 1533.3594,169.9745 Q1534.4531,169.3495 1535.6875,169.3495 Q1536.4219,169.3495 1537.0625,169.5214 Q1537.7188,169.6776 1538.2656,170.037 Z "/><text fill="#000000" font-family="sans-serif" font-size="12" lengthAdjust="spacingAndGlyphs" textLength="73" x="1549.5" y="179.0722">YesNoDialog</text><line style="stroke: #A80036; stroke-width: 1.5;" x1="1521.5" x2="1624.5" y1="190.162" y2="190.162"/><line style="stroke: #A80036; stroke-width: 1.5;" x1="1521.5" x2="1624.5" y1="198.162" y2="198.162"/><!--MD5=[fa99c436b17806d9277b14ee7a9cac8e]
class tictactoe.models.Session--><rect fill="#FEFECE" filter="url(#fi9517s82qtju)" height="48" id="tictactoe.models.Session" style="stroke: #A80036; stroke-width: 1.5;" width="78" x="1356" y="568.162"/><ellipse cx="1371" cy="584.162" fill="#ADD1B2" rx="11" ry="11" style="stroke: #A80036; stroke-width: 1.0;"/><path d="M1373.7656,580.037 Q1373.9219,579.8183 1374.1094,579.7089 Q1374.2969,579.5995 1374.5156,579.5995 Q1374.8906,579.5995 1375.125,579.8651 Q1375.3594,580.1151 1375.3594,580.7245 L1375.3594,582.1776 Q1375.3594,582.787 1375.125,583.0526 Q1374.8906,583.3183 1374.5156,583.3183 Q1374.1719,583.3183 1373.9688,583.1151 Q1373.7656,582.9276 1373.6563,582.412 Q1373.6094,582.0526 1373.4219,581.8651 Q1373.0938,581.4901 1372.4844,581.2714 Q1371.875,581.0526 1371.25,581.0526 Q1370.4844,581.0526 1369.8438,581.3808 Q1369.2188,581.7089 1368.7188,582.4589 Q1368.2344,583.2089 1368.2344,584.2401 L1368.2344,585.3339 Q1368.2344,586.5683 1369.125,587.3964 Q1370.0156,588.2089 1371.6094,588.2089 Q1372.5469,588.2089 1373.2031,587.9589 Q1373.5938,587.8026 1374.0156,587.3651 Q1374.2813,587.0995 1374.4219,587.0214 Q1374.5781,586.9433 1374.7813,586.9433 Q1375.1094,586.9433 1375.3594,587.2089 Q1375.625,587.4589 1375.625,587.8026 Q1375.625,588.1464 1375.2813,588.5526 Q1374.7813,589.1308 1373.9844,589.4589 Q1372.9063,589.912 1371.6094,589.912 Q1370.0938,589.912 1368.8906,589.287 Q1367.9063,588.787 1367.2188,587.7245 Q1366.5313,586.6464 1366.5313,585.3651 L1366.5313,584.2089 Q1366.5313,582.8808 1367.1406,581.7401 Q1367.7656,580.5839 1368.8594,579.9745 Q1369.9531,579.3495 1371.1875,579.3495 Q1371.9219,579.3495 1372.5625,579.5214 Q1373.2188,579.6776 1373.7656,580.037 Z "/><text fill="#000000" font-family="sans-serif" font-size="12" lengthAdjust="spacingAndGlyphs" textLength="46" x="1385" y="589.0722">Session</text><line style="stroke: #A80036; stroke-width: 1.5;" x1="1357" x2="1433" y1="600.162" y2="600.162"/><line style="stroke: #A80036; stroke-width: 1.5;" x1="1357" x2="1433" y1="608.162" y2="608.162"/><!--MD5=[5e155263c86bb2c1552f9517752e5c41]
reverse link utils.WithConsoleView to tictactoe.views.BoardView--><path d="M1379.74,218.846 C1361.43,232.571 1338.88,246.82 1316,254.662 C912.009,393.109 765.814,191.182 357,314.662 C351.226,316.406 345.414,318.757 339.774,321.433 " fill="none" id="utils.WithConsoleView&lt;-tictactoe.views.BoardView" style="stroke: #A80036; stroke-width: 1.0;"/><polygon fill="none" points="1375.52,213.258,1395.54,206.332,1384.21,224.234,1375.52,213.258" style="stroke: #A80036; stroke-width: 1.0;"/><!--MD5=[373e0a3a259aedfe70e02799076fca46]
reverse link utils.Command to tictactoe.views.Command--><path d="M1695.39,138.599 C1684.33,103.768 1663.19,57.309 1625.5,35.662 C1573.86,6 1416.08,24.907 1357.5,35.662 C1246.24,56.091 1125.47,107.108 1049.31,143.174 " fill="none" id="utils.Command&lt;-tictactoe.views.Command" style="stroke: #A80036; stroke-width: 1.0;"/><polygon fill="none" points="1702.16,136.82,1700.9,157.972,1688.7,140.654,1702.16,136.82" style="stroke: #A80036; stroke-width: 1.0;"/><!--MD5=[0078aa0d9a37798fa4eeae0c6b944122]
reverse link utils.WithConsoleView to tictactoe.views.CoordinateView--><path d="M1379.76,218.929 C1361.47,232.667 1338.91,246.904 1316,254.662 C1086.86,332.251 464.849,260.789 229,314.662 C221.17,316.451 213.147,318.869 205.279,321.619 " fill="none" id="utils.WithConsoleView&lt;-tictactoe.views.CoordinateView" style="stroke: #A80036; stroke-width: 1.0;"/><polygon fill="none" points="1375.55,213.34,1395.57,206.395,1384.25,224.308,1375.55,213.34" style="stroke: #A80036; stroke-width: 1.0;"/><!--MD5=[2a91e61d842c8eb63ab77453c2972c25]
link tictactoe.views.GameView to tictactoe.views.MessageView--><path d="M266.869,245.703 C260.914,248.901 254.929,251.919 249,254.662 C165.544,293.265 105.786,240.814 51,314.662 C30.8747,341.79 30.5025,363.814 51,390.662 C124.796,487.32 472.112,548.654 661.341,575.478 " fill="none" id="tictactoe.views.GameView-&gt;tictactoe.views.MessageView" style="stroke: #A80036; stroke-width: 1.0; stroke-dasharray: 7.0,7.0;"/><polygon fill="#A80036" points="666.337,576.183,657.9855,570.9626,661.3862,575.4831,656.8657,578.8838,666.337,576.183" style="stroke: #A80036; stroke-width: 1.0;"/><!--MD5=[d6bc30edf5faae9d191a6ec68b4f10fa]
link tictactoe.views.GameView to tictactoe.views.BoardView--><path d="M331.392,255.11 C324.043,273.592 316.373,292.882 309.837,309.317 " fill="none" id="tictactoe.views.GameView-&gt;tictactoe.views.BoardView" style="stroke: #A80036; stroke-width: 1.0; stroke-dasharray: 7.0,7.0;"/><polygon fill="#A80036" points="307.847,314.322,314.8892,307.4367,309.6943,309.6758,307.4552,304.4809,307.847,314.322" style="stroke: #A80036; stroke-width: 1.0;"/><!--MD5=[b38a0be70c296bacd454491abefdc154]
link tictactoe.views.GameView to tictactoe.views.ResultView--><path d="M389.035,255.11 C397.614,276.368 406.624,298.694 413.817,316.516 " fill="none" id="tictactoe.views.GameView-&gt;tictactoe.views.ResultView" style="stroke: #A80036; stroke-width: 1.0; stroke-dasharray: 7.0,7.0;"/><polygon fill="#A80036" points="415.795,321.419,416.1361,311.5761,413.9238,316.7824,408.7175,314.57,415.795,321.419" style="stroke: #A80036; stroke-width: 1.0;"/><!--MD5=[2823be92c9c26277b2a6b4b596b9fca2]
link tictactoe.views.MovementCommand to tictactoe.views.MessageView--><path d="M620.469,390.771 C633.373,406.488 649.313,425.903 666.147,446.405 " fill="none" id="tictactoe.views.MovementCommand-&gt;tictactoe.views.MessageView" style="stroke: #A80036; stroke-width: 1.0; stroke-dasharray: 7.0,7.0;"/><polygon fill="#A80036" points="669.525,450.519,666.907,441.0245,666.3528,446.6541,660.7232,446.1,669.525,450.519" style="stroke: #A80036; stroke-width: 1.0;"/><!--MD5=[065ea3640a14c8d0db79eb6faebd5481]
reverse link tictactoe.views.Command to tictactoe.views.RedoCommand--><path d="M972,247.474 C972,270.143 972,294.855 972,314.521 " fill="none" id="tictactoe.views.Command&lt;-tictactoe.views.RedoCommand" style="stroke: #A80036; stroke-width: 1.0;"/><polygon fill="none" points="965,247.433,972,227.433,979,247.433,965,247.433" style="stroke: #A80036; stroke-width: 1.0;"/><!--MD5=[d9e364994d7db4d5d10a60c04584eb6f]
link tictactoe.views.RedoCommand to tictactoe.views.MessageView--><path d="M942.781,390.771 C930.406,406.488 915.12,425.903 898.977,446.405 " fill="none" id="tictactoe.views.RedoCommand-&gt;tictactoe.views.MessageView" style="stroke: #A80036; stroke-width: 1.0; stroke-dasharray: 7.0,7.0;"/><polygon fill="#A80036" points="895.738,450.519,904.4481,445.9218,898.8309,446.5904,898.1623,440.9732,895.738,450.519" style="stroke: #A80036; stroke-width: 1.0;"/><!--MD5=[851465bce86f66a0081f53308d9ce67e]
link tictactoe.views.RedoCommand to tictactoe.models.Session--><path d="M1038.03,384.123 C1044.05,386.48 1050.1,388.702 1056,390.662 C1168.54,428.063 1221.07,379.584 1316,450.662 C1353.74,478.921 1376.02,530.842 1386.85,563.038 " fill="none" id="tictactoe.views.RedoCommand-&gt;tictactoe.models.Session" style="stroke: #A80036; stroke-width: 1.0; stroke-dasharray: 7.0,7.0;"/><polygon fill="#A80036" points="1388.49,568.029,1389.4838,558.2304,1386.9307,563.2784,1381.8828,560.7253,1388.49,568.029" style="stroke: #A80036; stroke-width: 1.0;"/><!--MD5=[79cc783a6671cb9f7e96314dfa63bbc5]
reverse link utils.WithConsoleView to tictactoe.views.ResultView--><path d="M1379.69,218.725 C1361.39,232.43 1338.84,246.696 1316,254.662 C972.219,374.558 849.224,215.144 499,314.662 C492.716,316.448 486.346,318.825 480.134,321.516 " fill="none" id="utils.WithConsoleView&lt;-tictactoe.views.ResultView" style="stroke: #A80036; stroke-width: 1.0;"/><polygon fill="none" points="1375.48,213.137,1395.51,206.239,1384.15,224.125,1375.48,213.137" style="stroke: #A80036; stroke-width: 1.0;"/><!--MD5=[f07945de84a5d4a2de4970820f01fc75]
link tictactoe.views.ResultView to tictactoe.views.MessageView--><path d="M473.214,383.742 C520.49,415.192 596.745,465.922 662.006,509.339 " fill="none" id="tictactoe.views.ResultView-&gt;tictactoe.views.MessageView" style="stroke: #A80036; stroke-width: 1.0; stroke-dasharray: 7.0,7.0;"/><polygon fill="#A80036" points="666.289,512.188,661.0101,503.8733,662.1257,509.4191,656.5799,510.5347,666.289,512.188" style="stroke: #A80036; stroke-width: 1.0;"/><!--MD5=[9e12bfae07c80dc3a2c78b5434e538a7]
link tictactoe.views.ResumeView to utils.YesNoDialog--><path d="M1300.14,338.803 C1354.21,324.108 1438.96,296.539 1503,254.662 C1521.34,242.67 1538.6,225.136 1551.4,210.434 " fill="none" id="tictactoe.views.ResumeView-&gt;utils.YesNoDialog" style="stroke: #A80036; stroke-width: 1.0; stroke-dasharray: 7.0,7.0;"/><polygon fill="#A80036" points="1554.88,206.369,1545.9789,210.5845,1551.6198,210.1599,1552.0444,215.8008,1554.88,206.369" style="stroke: #A80036; stroke-width: 1.0;"/><!--MD5=[3edc3fd203ce254fdf9725bbd19e890c]
link tictactoe.views.ResumeView to tictactoe.views.MessageView--><path d="M1193.9,381.38 C1187.87,384.516 1181.8,387.662 1176,390.662 C1086.47,436.946 985.207,488.859 908.17,528.264 " fill="none" id="tictactoe.views.ResumeView-&gt;tictactoe.views.MessageView" style="stroke: #A80036; stroke-width: 1.0; stroke-dasharray: 7.0,7.0;"/><polygon fill="#A80036" points="903.596,530.603,913.4302,530.0666,908.0477,528.3265,909.7878,522.9439,903.596,530.603" style="stroke: #A80036; stroke-width: 1.0;"/><!--MD5=[966179d8fef886a25ae727661f9b2e48]
reverse link utils.WithConsoleView to tictactoe.views.StartView--><path d="M1373.75,218.191 C1356.1,230.502 1335.58,243.93 1316,254.662 C1256.64,287.198 1236.09,283.477 1176,314.662 C1170.35,317.594 1164.52,320.861 1158.82,324.206 " fill="none" id="utils.WithConsoleView&lt;-tictactoe.views.StartView" style="stroke: #A80036; stroke-width: 1.0;"/><polygon fill="none" points="1369.95,212.301,1390.3,206.392,1378.08,223.701,1369.95,212.301" style="stroke: #A80036; stroke-width: 1.0;"/><!--MD5=[acc41e7aa9beecc5caef020a4c923094]
link tictactoe.views.StartView to tictactoe.views.MessageView--><path d="M1074.08,383.742 C1032.37,413.667 966.34,461.046 907.909,502.972 " fill="none" id="tictactoe.views.StartView-&gt;tictactoe.views.MessageView" style="stroke: #A80036; stroke-width: 1.0; stroke-dasharray: 7.0,7.0;"/><polygon fill="#A80036" points="903.715,505.981,913.3591,503.9833,907.7772,503.0658,908.6948,497.4838,903.715,505.981" style="stroke: #A80036; stroke-width: 1.0;"/><!--MD5=[cd903ed9d6cf77efbf35849cc39c9794]
reverse link tictactoe.views.Command to tictactoe.views.UndoCommand--><path d="M907.872,240.946 C880.839,265.305 850.159,292.949 826.219,314.521 " fill="none" id="tictactoe.views.Command&lt;-tictactoe.views.UndoCommand" style="stroke: #A80036; stroke-width: 1.0;"/><polygon fill="none" points="903.324,235.621,922.868,227.433,912.696,246.022,903.324,235.621" style="stroke: #A80036; stroke-width: 1.0;"/><!--MD5=[61bdd5223030fd9acb41e37c52425928]
link tictactoe.views.UndoCommand to tictactoe.views.MessageView--><path d="M785,390.771 C785,406.226 785,425.257 785,445.381 " fill="none" id="tictactoe.views.UndoCommand-&gt;tictactoe.views.MessageView" style="stroke: #A80036; stroke-width: 1.0; stroke-dasharray: 7.0,7.0;"/><polygon fill="#A80036" points="785,450.519,789,441.519,785,445.519,781,441.519,785,450.519" style="stroke: #A80036; stroke-width: 1.0;"/><!--MD5=[94385a8794d360aaaddcc1e051e5f9e7]
link tictactoe.views.UndoCommand to tictactoe.models.Session--><path d="M871.149,386.062 C876.815,387.741 882.466,389.296 888,390.662 C1074.48,436.707 1157.35,342.374 1316,450.662 C1355.16,477.392 1377.09,530.286 1387.44,563.001 " fill="none" id="tictactoe.views.UndoCommand-&gt;tictactoe.models.Session" style="stroke: #A80036; stroke-width: 1.0; stroke-dasharray: 7.0,7.0;"/><polygon fill="#A80036" points="1389.01,568.071,1390.1857,558.2926,1387.5393,563.2922,1382.5396,560.6457,1389.01,568.071" style="stroke: #A80036; stroke-width: 1.0;"/><!--MD5=[4574fdac031bfd32a1af6a2f4dae5e0a]
link tictactoe.views.UserPlayerView to tictactoe.views.CoordinateView--><path d="M135.894,213.286 C136.752,242.19 138.047,285.832 138.952,316.355 " fill="none" id="tictactoe.views.UserPlayerView-&gt;tictactoe.views.CoordinateView" style="stroke: #A80036; stroke-width: 1.0; stroke-dasharray: 7.0,7.0;"/><polygon fill="#A80036" points="139.105,321.515,142.8358,312.4001,138.9564,316.5172,134.8393,312.6378,139.105,321.515" style="stroke: #A80036; stroke-width: 1.0;"/><!--MD5=[2d54cfaacc4c26bfe3b998f9ed5ae9d2]
@startuml

class  tictactoe.views.BoardView{
~ write(): void
~ writeln(): void
}
utils.WithConsoleView <|-down- tictactoe.views.BoardView

class  tictactoe.views.Command{
# session: Session
# Command(String, Session)
~ {abstract} updateIsActive(): void
}
utils.Command <|-down- tictactoe.views.Command

class  tictactoe.views.CoordinateView{
~ read(String): Coordinate
}
utils.WithConsoleView <|-down- tictactoe.views.CoordinateView

class  tictactoe.views.ErrorView{
+ {static} MESSAGES: String[]
# error: Error
+ ErrorView(Error)
~ writeln(): void
}

class  tictactoe.views.GameView{
+ writeSeparator(): void
+ writeVerticalLineLeft(): void
+ writeVerticalLineCentered(): void
+ writeEmpty(): void
+ writeLineBreak(): void
+ writeToken(char): void
+ writeWinner(char): void
}
tictactoe.views.GameView ..> tictactoe.views.MessageView
tictactoe.views.GameView ..> tictactoe.views.BoardView
tictactoe.views.GameView ..> tictactoe.views.ResultView

enum  tictactoe.views.MessageView{
+ EMPTY: MessageView
+ SEPARATOR: MessageView
+ VERTICAL_LINE_CENTERED: MessageView
+ VERTICAL_LINE_LEFT: MessageView
+	PLAYER_WIN: MessageView
+	START_GAME: MessageView
+	CHOOSE_PLAYER: MessageView
+	READ_ROW: MessageView
+	READ_COLUMN: MessageView
+	ERROR: MessageView
+ PROPOSE_COMMAND: MessageView
+ UNDO_COMMAND: MessageView
+ REDO_COMMAND: MessageView
+ RESUME: MessageView
- message: String
- MessageView(String)
+ getMessage(): String
}

class  tictactoe.views.MovementCommand{
+ MovementCommand()
+ updateIsActive(): void
}
tictactoe.views.MovementCommand ..> tictactoe.views.MessageView

class tictactoe.views.RedoCommand{
~ RedoCommand()
+ updateIsActive(): void
}
tictactoe.views.Command <|-down- tictactoe.views.RedoCommand
tictactoe.views.RedoCommand ..> tictactoe.views.MessageView
tictactoe.views.RedoCommand ..> tictactoe.models.Session

class tictactoe.views.ResultView{
~ write(char): void
}
utils.WithConsoleView <|-down- tictactoe.views.ResultView
tictactoe.views.ResultView ..> tictactoe.views.MessageView

class tictactoe.views.ResumeView{
~ read(): boolean
}
tictactoe.views.ResumeView ..> utils.YesNoDialog
tictactoe.views.ResumeView ..> tictactoe.views.MessageView

class tictactoe.views.StartView{
~ write(): void
}
utils.WithConsoleView <|-down- tictactoe.views.StartView
tictactoe.views.StartView ..> tictactoe.views.MessageView

class tictactoe.views.UndoCommand{
+ UndoCommand(PlayController)
+ updateIsActive(): void
}
tictactoe.views.Command <|-down- tictactoe.views.UndoCommand
tictactoe.views.UndoCommand ..> tictactoe.views.MessageView
tictactoe.views.UndoCommand ..> tictactoe.models.Session

class  tictactoe.views.UserPlayerView{
+ readCoordinate(String): Coordinate
}
tictactoe.views.UserPlayerView ..> tictactoe.views.CoordinateView

@enduml

PlantUML version 1.2020.15(Sun Jun 28 13:39:45 CEST 2020)
(GPL source distribution)
Java Runtime: Java(TM) SE Runtime Environment
JVM: Java HotSpot(TM) 64-Bit Server VM
Default Encoding: windows-1252
Language: es
Country: ES
--></g></svg>