<?xml version="1.0" encoding="UTF-8" standalone="no"?><svg xmlns="http://www.w3.org/2000/svg" xmlns:xlink="http://www.w3.org/1999/xlink" contentScriptType="application/ecmascript" contentStyleType="text/css" height="889px" preserveAspectRatio="none" style="width:823px;height:889px;" version="1.1" viewBox="0 0 823 889" width="823px" zoomAndPan="magnify"><defs><filter height="300%" id="fqphlslryiwz3" width="300%" x="-1" y="-1"><feGaussianBlur result="blurOut" stdDeviation="2.0"/><feColorMatrix in="blurOut" result="blurOut2" type="matrix" values="0 0 0 0 0 0 0 0 0 0 0 0 0 0 0 0 0 0 .4 0"/><feOffset dx="4.0" dy="4.0" in="blurOut2" result="blurOut3"/><feBlend in="SourceGraphic" in2="blurOut3" mode="normal"/></filter></defs><g><!--MD5=[ee7e9a007a7c4d40c0679a27f272732d]
cluster tictactoe.controllers--><polygon fill="#FFFFFF" filter="url(#fqphlslryiwz3)" points="16,6,164,6,171,29.6094,715,29.6094,715,753,16,753,16,6" style="stroke: #000000; stroke-width: 1.5;"/><line style="stroke: #000000; stroke-width: 1.5;" x1="16" x2="171" y1="29.6094" y2="29.6094"/><text fill="#000000" font-family="sans-serif" font-size="14" font-weight="bold" lengthAdjust="spacingAndGlyphs" textLength="142" x="20" y="22.5332">tictactoe.controllers</text><!--MD5=[51cd642fcc96b47682a93d9084d46dec]
cluster tictactoe.models--><polygon fill="#FFFFFF" filter="url(#fqphlslryiwz3)" points="574,777,696,777,703,800.6094,801,800.6094,801,877,574,877,574,777" style="stroke: #000000; stroke-width: 1.5;"/><line style="stroke: #000000; stroke-width: 1.5;" x1="574" x2="703" y1="800.6094" y2="800.6094"/><text fill="#000000" font-family="sans-serif" font-size="14" font-weight="bold" lengthAdjust="spacingAndGlyphs" textLength="116" x="578" y="793.5332">tictactoe.models</text><!--MD5=[957eef6538bab7382edbc29d98579a60]
class tictactoe.controllers.Controller--><rect fill="#FEFECE" filter="url(#fqphlslryiwz3)" height="89.5078" id="tictactoe.controllers.Controller" style="stroke: #A80036; stroke-width: 1.5;" width="113" x="580.5" y="180"/><ellipse cx="607.65" cy="196" fill="#ADD1B2" rx="11" ry="11" style="stroke: #A80036; stroke-width: 1.0;"/><path d="M610.4156,191.875 Q610.5719,191.6563 610.7594,191.5469 Q610.9469,191.4375 611.1656,191.4375 Q611.5406,191.4375 611.775,191.7031 Q612.0094,191.9531 612.0094,192.5625 L612.0094,194.0156 Q612.0094,194.625 611.775,194.8906 Q611.5406,195.1563 611.1656,195.1563 Q610.8219,195.1563 610.6188,194.9531 Q610.4156,194.7656 610.3063,194.25 Q610.2594,193.8906 610.0719,193.7031 Q609.7438,193.3281 609.1344,193.1094 Q608.525,192.8906 607.9,192.8906 Q607.1344,192.8906 606.4938,193.2188 Q605.8688,193.5469 605.3688,194.2969 Q604.8844,195.0469 604.8844,196.0781 L604.8844,197.1719 Q604.8844,198.4063 605.775,199.2344 Q606.6656,200.0469 608.2594,200.0469 Q609.1969,200.0469 609.8531,199.7969 Q610.2438,199.6406 610.6656,199.2031 Q610.9313,198.9375 611.0719,198.8594 Q611.2281,198.7813 611.4313,198.7813 Q611.7594,198.7813 612.0094,199.0469 Q612.275,199.2969 612.275,199.6406 Q612.275,199.9844 611.9313,200.3906 Q611.4313,200.9688 610.6344,201.2969 Q609.5563,201.75 608.2594,201.75 Q606.7438,201.75 605.5406,201.125 Q604.5563,200.625 603.8688,199.5625 Q603.1813,198.4844 603.1813,197.2031 L603.1813,196.0469 Q603.1813,194.7188 603.7906,193.5781 Q604.4156,192.4219 605.5094,191.8125 Q606.6031,191.1875 607.8375,191.1875 Q608.5719,191.1875 609.2125,191.3594 Q609.8688,191.5156 610.4156,191.875 Z "/><text fill="#000000" font-family="sans-serif" font-size="12" lengthAdjust="spacingAndGlyphs" textLength="54" x="624.35" y="200.9102">Controller</text><line style="stroke: #A80036; stroke-width: 1.5;" x1="581.5" x2="692.5" y1="212" y2="212"/><polygon fill="none" points="591.5,218,595.5,222,591.5,226,587.5,222" style="stroke: #B38D22; stroke-width: 1.0;"/><text fill="#000000" font-family="sans-serif" font-size="11" lengthAdjust="spacingAndGlyphs" textLength="60" x="600.5" y="227.4189">game: Game</text><line style="stroke: #A80036; stroke-width: 1.5;" x1="581.5" x2="692.5" y1="233.8359" y2="233.8359"/><polygon fill="#4177AF" points="591.5,240.8359,587.5,246.8359,595.5,246.8359" style="stroke: #1963A0; stroke-width: 1.0;"/><text fill="#000000" font-family="sans-serif" font-size="11" lengthAdjust="spacingAndGlyphs" textLength="82" x="600.5" y="249.2549">Controller(Game)</text><ellipse cx="591.5" cy="258.6719" fill="#84BE84" rx="3" ry="3" style="stroke: #038048; stroke-width: 1.0;"/><text fill="#000000" font-family="sans-serif" font-size="11" lengthAdjust="spacingAndGlyphs" textLength="87" x="600.5" y="263.0908">getBoard(): Board</text><!--MD5=[3b8962fd5847b9038b2e29740dae8054]
class tictactoe.controllers.Logic--><rect fill="#FEFECE" filter="url(#fqphlslryiwz3)" height="366.2266" id="tictactoe.controllers.Logic" style="stroke: #A80036; stroke-width: 1.5;" width="298" x="247" y="42"/><ellipse cx="376.75" cy="58" fill="#ADD1B2" rx="11" ry="11" style="stroke: #A80036; stroke-width: 1.0;"/><path d="M379.5156,53.875 Q379.6719,53.6563 379.8594,53.5469 Q380.0469,53.4375 380.2656,53.4375 Q380.6406,53.4375 380.875,53.7031 Q381.1094,53.9531 381.1094,54.5625 L381.1094,56.0156 Q381.1094,56.625 380.875,56.8906 Q380.6406,57.1563 380.2656,57.1563 Q379.9219,57.1563 379.7188,56.9531 Q379.5156,56.7656 379.4063,56.25 Q379.3594,55.8906 379.1719,55.7031 Q378.8438,55.3281 378.2344,55.1094 Q377.625,54.8906 377,54.8906 Q376.2344,54.8906 375.5938,55.2188 Q374.9688,55.5469 374.4688,56.2969 Q373.9844,57.0469 373.9844,58.0781 L373.9844,59.1719 Q373.9844,60.4063 374.875,61.2344 Q375.7656,62.0469 377.3594,62.0469 Q378.2969,62.0469 378.9531,61.7969 Q379.3438,61.6406 379.7656,61.2031 Q380.0313,60.9375 380.1719,60.8594 Q380.3281,60.7813 380.5313,60.7813 Q380.8594,60.7813 381.1094,61.0469 Q381.375,61.2969 381.375,61.6406 Q381.375,61.9844 381.0313,62.3906 Q380.5313,62.9688 379.7344,63.2969 Q378.6563,63.75 377.3594,63.75 Q375.8438,63.75 374.6406,63.125 Q373.6563,62.625 372.9688,61.5625 Q372.2813,60.4844 372.2813,59.2031 L372.2813,58.0469 Q372.2813,56.7188 372.8906,55.5781 Q373.5156,54.4219 374.6094,53.8125 Q375.7031,53.1875 376.9375,53.1875 Q377.6719,53.1875 378.3125,53.3594 Q378.9688,53.5156 379.5156,53.875 Z "/><text fill="#000000" font-family="sans-serif" font-size="12" lengthAdjust="spacingAndGlyphs" textLength="30" x="397.25" y="62.9102">Logic</text><line style="stroke: #A80036; stroke-width: 1.5;" x1="248" x2="544" y1="74" y2="74"/><rect fill="none" height="6" style="stroke: #C82930; stroke-width: 1.0;" width="6" x="255" y="82"/><text fill="#000000" font-family="sans-serif" font-size="11" lengthAdjust="spacingAndGlyphs" textLength="60" x="267" y="89.4189">game: Game</text><rect fill="none" height="6" style="stroke: #C82930; stroke-width: 1.0;" width="6" x="255" y="95.8359"/><text fill="#000000" font-family="sans-serif" font-size="11" lengthAdjust="spacingAndGlyphs" textLength="143" x="267" y="103.2549">startController: StartController</text><rect fill="none" height="6" style="stroke: #C82930; stroke-width: 1.0;" width="6" x="255" y="109.6719"/><text fill="#000000" font-family="sans-serif" font-size="11" lengthAdjust="spacingAndGlyphs" textLength="138" x="267" y="117.0908">playController: PlayController</text><rect fill="none" height="6" style="stroke: #C82930; stroke-width: 1.0;" width="6" x="255" y="123.5078"/><text fill="#000000" font-family="sans-serif" font-size="11" lengthAdjust="spacingAndGlyphs" textLength="155" x="267" y="130.9268">resultController: ResultController</text><line style="stroke: #A80036; stroke-width: 1.5;" x1="248" x2="544" y1="137.3438" y2="137.3438"/><ellipse cx="258" cy="148.3438" fill="#84BE84" rx="3" ry="3" style="stroke: #038048; stroke-width: 1.0;"/><text fill="#000000" font-family="sans-serif" font-size="11" lengthAdjust="spacingAndGlyphs" textLength="34" x="267" y="152.7627">Logic()</text><ellipse cx="258" cy="162.1797" fill="#84BE84" rx="3" ry="3" style="stroke: #038048; stroke-width: 1.0;"/><text fill="#000000" font-family="sans-serif" font-size="11" lengthAdjust="spacingAndGlyphs" textLength="101" x="267" y="166.5986">createPlayers(): void</text><ellipse cx="258" cy="176.0156" fill="#84BE84" rx="3" ry="3" style="stroke: #038048; stroke-width: 1.0;"/><text fill="#000000" font-family="sans-serif" font-size="11" lengthAdjust="spacingAndGlyphs" textLength="164" x="267" y="180.4346">getTokenPlayerFromTurn(): Player</text><ellipse cx="258" cy="189.8516" fill="#84BE84" rx="3" ry="3" style="stroke: #038048; stroke-width: 1.0;"/><text fill="#000000" font-family="sans-serif" font-size="11" lengthAdjust="spacingAndGlyphs" textLength="224" x="267" y="194.2705">getTypeOfTokenPlayerFromTurn(): PlayerType</text><ellipse cx="258" cy="203.6875" fill="#84BE84" rx="3" ry="3" style="stroke: #038048; stroke-width: 1.0;"/><text fill="#000000" font-family="sans-serif" font-size="11" lengthAdjust="spacingAndGlyphs" textLength="196" x="267" y="208.1064">controlErrorsPutCoordinate(int, int): Error</text><ellipse cx="258" cy="217.5234" fill="#84BE84" rx="3" ry="3" style="stroke: #038048; stroke-width: 1.0;"/><text fill="#000000" font-family="sans-serif" font-size="11" lengthAdjust="spacingAndGlyphs" textLength="235" x="267" y="221.9424">controlErrorsMoveOriginCoordinate(int, int): Error</text><ellipse cx="258" cy="231.3594" fill="#84BE84" rx="3" ry="3" style="stroke: #038048; stroke-width: 1.0;"/><text fill="#000000" font-family="sans-serif" font-size="11" lengthAdjust="spacingAndGlyphs" textLength="272" x="267" y="235.7783">controlErrorsMoveTargetCoordinate(int, int, int, int): Error</text><ellipse cx="258" cy="245.1953" fill="#84BE84" rx="3" ry="3" style="stroke: #038048; stroke-width: 1.0;"/><text fill="#000000" font-family="sans-serif" font-size="11" lengthAdjust="spacingAndGlyphs" textLength="164" x="267" y="249.6143">isCoordinateValid(int, int): boolean</text><ellipse cx="258" cy="259.0313" fill="#84BE84" rx="3" ry="3" style="stroke: #038048; stroke-width: 1.0;"/><text fill="#000000" font-family="sans-serif" font-size="11" lengthAdjust="spacingAndGlyphs" textLength="165" x="267" y="263.4502">generateRandomCoordinate(): int[]</text><ellipse cx="258" cy="272.8672" fill="#84BE84" rx="3" ry="3" style="stroke: #038048; stroke-width: 1.0;"/><text fill="#000000" font-family="sans-serif" font-size="11" lengthAdjust="spacingAndGlyphs" textLength="133" x="267" y="277.2861">isBoardComplete(): boolean</text><ellipse cx="258" cy="286.7031" fill="#84BE84" rx="3" ry="3" style="stroke: #038048; stroke-width: 1.0;"/><text fill="#000000" font-family="sans-serif" font-size="11" lengthAdjust="spacingAndGlyphs" textLength="182" x="267" y="291.1221">putTokenPlayerFromTurn(int, int): void</text><ellipse cx="258" cy="300.5391" fill="#84BE84" rx="3" ry="3" style="stroke: #038048; stroke-width: 1.0;"/><text fill="#000000" font-family="sans-serif" font-size="11" lengthAdjust="spacingAndGlyphs" textLength="227" x="267" y="304.958">moveTokenPlayerFromTurn(int, int, int, int): void</text><ellipse cx="258" cy="314.375" fill="#84BE84" rx="3" ry="3" style="stroke: #038048; stroke-width: 1.0;"/><text fill="#000000" font-family="sans-serif" font-size="11" lengthAdjust="spacingAndGlyphs" textLength="92" x="267" y="318.7939">changeTurn(): void</text><ellipse cx="258" cy="328.2109" fill="#84BE84" rx="3" ry="3" style="stroke: #038048; stroke-width: 1.0;"/><text fill="#000000" font-family="sans-serif" font-size="11" lengthAdjust="spacingAndGlyphs" textLength="131" x="267" y="332.6299">getTokenChar(int, int): char</text><ellipse cx="258" cy="342.0469" fill="#84BE84" rx="3" ry="3" style="stroke: #038048; stroke-width: 1.0;"/><text fill="#000000" font-family="sans-serif" font-size="11" lengthAdjust="spacingAndGlyphs" textLength="146" x="267" y="346.4658">isEmptyToken(int, int): boolean</text><ellipse cx="258" cy="355.8828" fill="#84BE84" rx="3" ry="3" style="stroke: #038048; stroke-width: 1.0;"/><text fill="#000000" font-family="sans-serif" font-size="11" lengthAdjust="spacingAndGlyphs" textLength="141" x="267" y="360.3018">getCoordinateDimension(): int</text><ellipse cx="258" cy="369.7188" fill="#84BE84" rx="3" ry="3" style="stroke: #038048; stroke-width: 1.0;"/><text fill="#000000" font-family="sans-serif" font-size="11" lengthAdjust="spacingAndGlyphs" textLength="110" x="267" y="374.1377">isTicTacToe(): boolean</text><ellipse cx="258" cy="383.5547" fill="#84BE84" rx="3" ry="3" style="stroke: #038048; stroke-width: 1.0;"/><text fill="#000000" font-family="sans-serif" font-size="11" lengthAdjust="spacingAndGlyphs" textLength="141" x="267" y="387.9736">getOtherValueFromTurn(): int</text><ellipse cx="258" cy="397.3906" fill="#84BE84" rx="3" ry="3" style="stroke: #038048; stroke-width: 1.0;"/><text fill="#000000" font-family="sans-serif" font-size="11" lengthAdjust="spacingAndGlyphs" textLength="87" x="267" y="401.8096">getBoard(): Board</text><!--MD5=[8ede4dbfb3b498095887802b64b699f0]
class tictactoe.controllers.StartController--><rect fill="#FEFECE" filter="url(#fqphlslryiwz3)" height="75.6719" id="tictactoe.controllers.StartController" style="stroke: #A80036; stroke-width: 1.5;" width="131" x="567.5" y="564.5"/><ellipse cx="591.5" cy="580.5" fill="#ADD1B2" rx="11" ry="11" style="stroke: #A80036; stroke-width: 1.0;"/><path d="M594.2656,576.375 Q594.4219,576.1563 594.6094,576.0469 Q594.7969,575.9375 595.0156,575.9375 Q595.3906,575.9375 595.625,576.2031 Q595.8594,576.4531 595.8594,577.0625 L595.8594,578.5156 Q595.8594,579.125 595.625,579.3906 Q595.3906,579.6563 595.0156,579.6563 Q594.6719,579.6563 594.4688,579.4531 Q594.2656,579.2656 594.1563,578.75 Q594.1094,578.3906 593.9219,578.2031 Q593.5938,577.8281 592.9844,577.6094 Q592.375,577.3906 591.75,577.3906 Q590.9844,577.3906 590.3438,577.7188 Q589.7188,578.0469 589.2188,578.7969 Q588.7344,579.5469 588.7344,580.5781 L588.7344,581.6719 Q588.7344,582.9063 589.625,583.7344 Q590.5156,584.5469 592.1094,584.5469 Q593.0469,584.5469 593.7031,584.2969 Q594.0938,584.1406 594.5156,583.7031 Q594.7813,583.4375 594.9219,583.3594 Q595.0781,583.2813 595.2813,583.2813 Q595.6094,583.2813 595.8594,583.5469 Q596.125,583.7969 596.125,584.1406 Q596.125,584.4844 595.7813,584.8906 Q595.2813,585.4688 594.4844,585.7969 Q593.4063,586.25 592.1094,586.25 Q590.5938,586.25 589.3906,585.625 Q588.4063,585.125 587.7188,584.0625 Q587.0313,582.9844 587.0313,581.7031 L587.0313,580.5469 Q587.0313,579.2188 587.6406,578.0781 Q588.2656,576.9219 589.3594,576.3125 Q590.4531,575.6875 591.6875,575.6875 Q592.4219,575.6875 593.0625,575.8594 Q593.7188,576.0156 594.2656,576.375 Z "/><text fill="#000000" font-family="sans-serif" font-size="12" lengthAdjust="spacingAndGlyphs" textLength="79" x="607.5" y="585.4102">StartController</text><line style="stroke: #A80036; stroke-width: 1.5;" x1="568.5" x2="697.5" y1="596.5" y2="596.5"/><line style="stroke: #A80036; stroke-width: 1.5;" x1="568.5" x2="697.5" y1="604.5" y2="604.5"/><polygon fill="#4177AF" points="578.5,611.5,574.5,617.5,582.5,617.5" style="stroke: #1963A0; stroke-width: 1.0;"/><text fill="#000000" font-family="sans-serif" font-size="11" lengthAdjust="spacingAndGlyphs" textLength="105" x="587.5" y="619.9189">StartController(Game)</text><polygon fill="#4177AF" points="578.5,625.3359,574.5,631.3359,582.5,631.3359" style="stroke: #1963A0; stroke-width: 1.0;"/><text fill="#000000" font-family="sans-serif" font-size="11" lengthAdjust="spacingAndGlyphs" textLength="101" x="587.5" y="633.7549">createPlayers(): void</text><!--MD5=[b574e60c06c50037ff1b014277a67d62]
class tictactoe.controllers.PlayController--><rect fill="#FEFECE" filter="url(#fqphlslryiwz3)" height="269.375" id="tictactoe.controllers.PlayController" style="stroke: #A80036; stroke-width: 1.5;" width="298" x="32" y="468"/><ellipse cx="138.25" cy="484" fill="#ADD1B2" rx="11" ry="11" style="stroke: #A80036; stroke-width: 1.0;"/><path d="M141.0156,479.875 Q141.1719,479.6563 141.3594,479.5469 Q141.5469,479.4375 141.7656,479.4375 Q142.1406,479.4375 142.375,479.7031 Q142.6094,479.9531 142.6094,480.5625 L142.6094,482.0156 Q142.6094,482.625 142.375,482.8906 Q142.1406,483.1563 141.7656,483.1563 Q141.4219,483.1563 141.2188,482.9531 Q141.0156,482.7656 140.9063,482.25 Q140.8594,481.8906 140.6719,481.7031 Q140.3438,481.3281 139.7344,481.1094 Q139.125,480.8906 138.5,480.8906 Q137.7344,480.8906 137.0938,481.2188 Q136.4688,481.5469 135.9688,482.2969 Q135.4844,483.0469 135.4844,484.0781 L135.4844,485.1719 Q135.4844,486.4063 136.375,487.2344 Q137.2656,488.0469 138.8594,488.0469 Q139.7969,488.0469 140.4531,487.7969 Q140.8438,487.6406 141.2656,487.2031 Q141.5313,486.9375 141.6719,486.8594 Q141.8281,486.7813 142.0313,486.7813 Q142.3594,486.7813 142.6094,487.0469 Q142.875,487.2969 142.875,487.6406 Q142.875,487.9844 142.5313,488.3906 Q142.0313,488.9688 141.2344,489.2969 Q140.1563,489.75 138.8594,489.75 Q137.3438,489.75 136.1406,489.125 Q135.1563,488.625 134.4688,487.5625 Q133.7813,486.4844 133.7813,485.2031 L133.7813,484.0469 Q133.7813,482.7188 134.3906,481.5781 Q135.0156,480.4219 136.1094,479.8125 Q137.2031,479.1875 138.4375,479.1875 Q139.1719,479.1875 139.8125,479.3594 Q140.4688,479.5156 141.0156,479.875 Z "/><text fill="#000000" font-family="sans-serif" font-size="12" lengthAdjust="spacingAndGlyphs" textLength="77" x="158.75" y="488.9102">PlayController</text><line style="stroke: #A80036; stroke-width: 1.5;" x1="33" x2="329" y1="500" y2="500"/><line style="stroke: #A80036; stroke-width: 1.5;" x1="33" x2="329" y1="508" y2="508"/><polygon fill="#4177AF" points="43,515,39,521,47,521" style="stroke: #1963A0; stroke-width: 1.0;"/><text fill="#000000" font-family="sans-serif" font-size="11" lengthAdjust="spacingAndGlyphs" textLength="102" x="52" y="523.4189">PlayController(Game)</text><polygon fill="#4177AF" points="43,528.8359,39,534.8359,47,534.8359" style="stroke: #1963A0; stroke-width: 1.0;"/><text fill="#000000" font-family="sans-serif" font-size="11" lengthAdjust="spacingAndGlyphs" textLength="164" x="52" y="537.2549">getTokenPlayerFromTurn(): Player</text><polygon fill="#4177AF" points="43,542.6719,39,548.6719,47,548.6719" style="stroke: #1963A0; stroke-width: 1.0;"/><text fill="#000000" font-family="sans-serif" font-size="11" lengthAdjust="spacingAndGlyphs" textLength="224" x="52" y="551.0908">getTypeOfTokenPlayerFromTurn(): PlayerType</text><polygon fill="#4177AF" points="43,556.5078,39,562.5078,47,562.5078" style="stroke: #1963A0; stroke-width: 1.0;"/><text fill="#000000" font-family="sans-serif" font-size="11" lengthAdjust="spacingAndGlyphs" textLength="196" x="52" y="564.9268">controlErrorsPutCoordinate(int, int): Error</text><polygon fill="#4177AF" points="43,570.3438,39,576.3438,47,576.3438" style="stroke: #1963A0; stroke-width: 1.0;"/><text fill="#000000" font-family="sans-serif" font-size="11" lengthAdjust="spacingAndGlyphs" textLength="235" x="52" y="578.7627">controlErrorsMoveOriginCoordinate(int, int): Error</text><polygon fill="#4177AF" points="43,584.1797,39,590.1797,47,590.1797" style="stroke: #1963A0; stroke-width: 1.0;"/><text fill="#000000" font-family="sans-serif" font-size="11" lengthAdjust="spacingAndGlyphs" textLength="272" x="52" y="592.5986">controlErrorsMoveTargetCoordinate(int, int, int, int): Error</text><polygon fill="#4177AF" points="43,598.0156,39,604.0156,47,604.0156" style="stroke: #1963A0; stroke-width: 1.0;"/><text fill="#000000" font-family="sans-serif" font-size="11" lengthAdjust="spacingAndGlyphs" textLength="164" x="52" y="606.4346">isCoordinateValid(int, int): boolean</text><polygon fill="#4177AF" points="43,611.8516,39,617.8516,47,617.8516" style="stroke: #1963A0; stroke-width: 1.0;"/><text fill="#000000" font-family="sans-serif" font-size="11" lengthAdjust="spacingAndGlyphs" textLength="165" x="52" y="620.2705">generateRandomCoordinate(): int[]</text><polygon fill="#4177AF" points="43,625.6875,39,631.6875,47,631.6875" style="stroke: #1963A0; stroke-width: 1.0;"/><text fill="#000000" font-family="sans-serif" font-size="11" lengthAdjust="spacingAndGlyphs" textLength="133" x="52" y="634.1064">isBoardComplete(): boolean</text><polygon fill="#4177AF" points="43,639.5234,39,645.5234,47,645.5234" style="stroke: #1963A0; stroke-width: 1.0;"/><text fill="#000000" font-family="sans-serif" font-size="11" lengthAdjust="spacingAndGlyphs" textLength="182" x="52" y="647.9424">putTokenPlayerFromTurn(int, int): void</text><polygon fill="#4177AF" points="43,653.3594,39,659.3594,47,659.3594" style="stroke: #1963A0; stroke-width: 1.0;"/><text fill="#000000" font-family="sans-serif" font-size="11" lengthAdjust="spacingAndGlyphs" textLength="227" x="52" y="661.7783">moveTokenPlayerFromTurn(int, int, int, int): void</text><polygon fill="#4177AF" points="43,667.1953,39,673.1953,47,673.1953" style="stroke: #1963A0; stroke-width: 1.0;"/><text fill="#000000" font-family="sans-serif" font-size="11" lengthAdjust="spacingAndGlyphs" textLength="92" x="52" y="675.6143">changeTurn(): void</text><polygon fill="#4177AF" points="43,681.0313,39,687.0313,47,687.0313" style="stroke: #1963A0; stroke-width: 1.0;"/><text fill="#000000" font-family="sans-serif" font-size="11" lengthAdjust="spacingAndGlyphs" textLength="131" x="52" y="689.4502">getTokenChar(int, int): char</text><polygon fill="#4177AF" points="43,694.8672,39,700.8672,47,700.8672" style="stroke: #1963A0; stroke-width: 1.0;"/><text fill="#000000" font-family="sans-serif" font-size="11" lengthAdjust="spacingAndGlyphs" textLength="146" x="52" y="703.2861">isEmptyToken(int, int): boolean</text><polygon fill="#4177AF" points="43,708.7031,39,714.7031,47,714.7031" style="stroke: #1963A0; stroke-width: 1.0;"/><text fill="#000000" font-family="sans-serif" font-size="11" lengthAdjust="spacingAndGlyphs" textLength="141" x="52" y="717.1221">getCoordinateDimension(): int</text><polygon fill="#4177AF" points="43,722.5391,39,728.5391,47,728.5391" style="stroke: #1963A0; stroke-width: 1.0;"/><text fill="#000000" font-family="sans-serif" font-size="11" lengthAdjust="spacingAndGlyphs" textLength="110" x="52" y="730.958">isTicTacToe(): boolean</text><!--MD5=[2c3ef77d19c2424f55dfd6db4f13e20e]
class tictactoe.controllers.ResultController--><rect fill="#FEFECE" filter="url(#fqphlslryiwz3)" height="75.6719" id="tictactoe.controllers.ResultController" style="stroke: #A80036; stroke-width: 1.5;" width="167" x="365.5" y="564.5"/><ellipse cx="400.75" cy="580.5" fill="#ADD1B2" rx="11" ry="11" style="stroke: #A80036; stroke-width: 1.0;"/><path d="M403.5156,576.375 Q403.6719,576.1563 403.8594,576.0469 Q404.0469,575.9375 404.2656,575.9375 Q404.6406,575.9375 404.875,576.2031 Q405.1094,576.4531 405.1094,577.0625 L405.1094,578.5156 Q405.1094,579.125 404.875,579.3906 Q404.6406,579.6563 404.2656,579.6563 Q403.9219,579.6563 403.7188,579.4531 Q403.5156,579.2656 403.4063,578.75 Q403.3594,578.3906 403.1719,578.2031 Q402.8438,577.8281 402.2344,577.6094 Q401.625,577.3906 401,577.3906 Q400.2344,577.3906 399.5938,577.7188 Q398.9688,578.0469 398.4688,578.7969 Q397.9844,579.5469 397.9844,580.5781 L397.9844,581.6719 Q397.9844,582.9063 398.875,583.7344 Q399.7656,584.5469 401.3594,584.5469 Q402.2969,584.5469 402.9531,584.2969 Q403.3438,584.1406 403.7656,583.7031 Q404.0313,583.4375 404.1719,583.3594 Q404.3281,583.2813 404.5313,583.2813 Q404.8594,583.2813 405.1094,583.5469 Q405.375,583.7969 405.375,584.1406 Q405.375,584.4844 405.0313,584.8906 Q404.5313,585.4688 403.7344,585.7969 Q402.6563,586.25 401.3594,586.25 Q399.8438,586.25 398.6406,585.625 Q397.6563,585.125 396.9688,584.0625 Q396.2813,582.9844 396.2813,581.7031 L396.2813,580.5469 Q396.2813,579.2188 396.8906,578.0781 Q397.5156,576.9219 398.6094,576.3125 Q399.7031,575.6875 400.9375,575.6875 Q401.6719,575.6875 402.3125,575.8594 Q402.9688,576.0156 403.5156,576.375 Z "/><text fill="#000000" font-family="sans-serif" font-size="12" lengthAdjust="spacingAndGlyphs" textLength="90" x="419.25" y="585.4102">ResultController</text><line style="stroke: #A80036; stroke-width: 1.5;" x1="366.5" x2="531.5" y1="596.5" y2="596.5"/><line style="stroke: #A80036; stroke-width: 1.5;" x1="366.5" x2="531.5" y1="604.5" y2="604.5"/><polygon fill="#4177AF" points="376.5,611.5,372.5,617.5,380.5,617.5" style="stroke: #1963A0; stroke-width: 1.0;"/><text fill="#000000" font-family="sans-serif" font-size="11" lengthAdjust="spacingAndGlyphs" textLength="112" x="385.5" y="619.9189">ResultController(Game)</text><polygon fill="#4177AF" points="376.5,625.3359,372.5,631.3359,380.5,631.3359" style="stroke: #1963A0; stroke-width: 1.0;"/><text fill="#000000" font-family="sans-serif" font-size="11" lengthAdjust="spacingAndGlyphs" textLength="141" x="385.5" y="633.7549">getOtherValueFromTurn(): int</text><!--MD5=[8d3188f3c370ea7d5d91d12bca83b67a]
class tictactoe.models.Game--><rect fill="#FEFECE" filter="url(#fqphlslryiwz3)" height="48" id="tictactoe.models.Game" style="stroke: #A80036; stroke-width: 1.5;" width="66" x="719" y="813"/><ellipse cx="734" cy="829" fill="#ADD1B2" rx="11" ry="11" style="stroke: #A80036; stroke-width: 1.0;"/><path d="M736.7656,824.875 Q736.9219,824.6563 737.1094,824.5469 Q737.2969,824.4375 737.5156,824.4375 Q737.8906,824.4375 738.125,824.7031 Q738.3594,824.9531 738.3594,825.5625 L738.3594,827.0156 Q738.3594,827.625 738.125,827.8906 Q737.8906,828.1563 737.5156,828.1563 Q737.1719,828.1563 736.9688,827.9531 Q736.7656,827.7656 736.6563,827.25 Q736.6094,826.8906 736.4219,826.7031 Q736.0938,826.3281 735.4844,826.1094 Q734.875,825.8906 734.25,825.8906 Q733.4844,825.8906 732.8438,826.2188 Q732.2188,826.5469 731.7188,827.2969 Q731.2344,828.0469 731.2344,829.0781 L731.2344,830.1719 Q731.2344,831.4063 732.125,832.2344 Q733.0156,833.0469 734.6094,833.0469 Q735.5469,833.0469 736.2031,832.7969 Q736.5938,832.6406 737.0156,832.2031 Q737.2813,831.9375 737.4219,831.8594 Q737.5781,831.7813 737.7813,831.7813 Q738.1094,831.7813 738.3594,832.0469 Q738.625,832.2969 738.625,832.6406 Q738.625,832.9844 738.2813,833.3906 Q737.7813,833.9688 736.9844,834.2969 Q735.9063,834.75 734.6094,834.75 Q733.0938,834.75 731.8906,834.125 Q730.9063,833.625 730.2188,832.5625 Q729.5313,831.4844 729.5313,830.2031 L729.5313,829.0469 Q729.5313,827.7188 730.1406,826.5781 Q730.7656,825.4219 731.8594,824.8125 Q732.9531,824.1875 734.1875,824.1875 Q734.9219,824.1875 735.5625,824.3594 Q736.2188,824.5156 736.7656,824.875 Z "/><text fill="#000000" font-family="sans-serif" font-size="12" lengthAdjust="spacingAndGlyphs" textLength="34" x="748" y="833.9102">Game</text><line style="stroke: #A80036; stroke-width: 1.5;" x1="720" x2="784" y1="845" y2="845"/><line style="stroke: #A80036; stroke-width: 1.5;" x1="720" x2="784" y1="853" y2="853"/><!--MD5=[55d70ecb9e3ba4786ec1f15d0b7dce13]
class tictactoe.models.Coordinate--><rect fill="#FEFECE" filter="url(#fqphlslryiwz3)" height="48" id="tictactoe.models.Coordinate" style="stroke: #A80036; stroke-width: 1.5;" width="93" x="590.5" y="813"/><ellipse cx="605.5" cy="829" fill="#ADD1B2" rx="11" ry="11" style="stroke: #A80036; stroke-width: 1.0;"/><path d="M608.2656,824.875 Q608.4219,824.6563 608.6094,824.5469 Q608.7969,824.4375 609.0156,824.4375 Q609.3906,824.4375 609.625,824.7031 Q609.8594,824.9531 609.8594,825.5625 L609.8594,827.0156 Q609.8594,827.625 609.625,827.8906 Q609.3906,828.1563 609.0156,828.1563 Q608.6719,828.1563 608.4688,827.9531 Q608.2656,827.7656 608.1563,827.25 Q608.1094,826.8906 607.9219,826.7031 Q607.5938,826.3281 606.9844,826.1094 Q606.375,825.8906 605.75,825.8906 Q604.9844,825.8906 604.3438,826.2188 Q603.7188,826.5469 603.2188,827.2969 Q602.7344,828.0469 602.7344,829.0781 L602.7344,830.1719 Q602.7344,831.4063 603.625,832.2344 Q604.5156,833.0469 606.1094,833.0469 Q607.0469,833.0469 607.7031,832.7969 Q608.0938,832.6406 608.5156,832.2031 Q608.7813,831.9375 608.9219,831.8594 Q609.0781,831.7813 609.2813,831.7813 Q609.6094,831.7813 609.8594,832.0469 Q610.125,832.2969 610.125,832.6406 Q610.125,832.9844 609.7813,833.3906 Q609.2813,833.9688 608.4844,834.2969 Q607.4063,834.75 606.1094,834.75 Q604.5938,834.75 603.3906,834.125 Q602.4063,833.625 601.7188,832.5625 Q601.0313,831.4844 601.0313,830.2031 L601.0313,829.0469 Q601.0313,827.7188 601.6406,826.5781 Q602.2656,825.4219 603.3594,824.8125 Q604.4531,824.1875 605.6875,824.1875 Q606.4219,824.1875 607.0625,824.3594 Q607.7188,824.5156 608.2656,824.875 Z "/><text fill="#000000" font-family="sans-serif" font-size="12" lengthAdjust="spacingAndGlyphs" textLength="61" x="619.5" y="833.9102">Coordinate</text><line style="stroke: #A80036; stroke-width: 1.5;" x1="591.5" x2="682.5" y1="845" y2="845"/><line style="stroke: #A80036; stroke-width: 1.5;" x1="591.5" x2="682.5" y1="853" y2="853"/><!--MD5=[67f54059f517de4e17e4f415259fadfa]
link tictactoe.controllers.Controller to tictactoe.models.Game--><path d="M672.408,270.02 C707.082,316.19 757.588,392.421 778,468 C811.953,593.718 799.627,632.586 778,761 C775.309,776.976 769.607,794.0959 764.226,807.9394 " fill="none" id="tictactoe.controllers.Controller-&gt;tictactoe.models.Game" style="stroke: #A80036; stroke-width: 1.0; stroke-dasharray: 7.0,7.0;"/><polygon fill="#A80036" points="762.264,812.8833,769.3016,805.9933,764.1083,808.2359,761.8657,803.0425,762.264,812.8833" style="stroke: #A80036; stroke-width: 1.0;"/><!--MD5=[bf6ea4e22b99b81dd48bbf2eb1cf70e8]
link tictactoe.controllers.Logic to tictactoe.models.Game--><path d="M554.7535,402.1369 C554.7535,402.1369 560.557,406.325 563,408 C623.241,449.305 671.954,409.733 716,468 C791.305,567.617 772.951,728.332 759.795,799.7687 " fill="none" id="tictactoe.controllers.Logic-tictactoe.models.Game" style="stroke: #A80036; stroke-width: 1.0;"/><polygon fill="#A80036" points="757.262,812.821,762.9031,804.7477,758.2144,807.9125,755.0496,803.2239,757.262,812.821" style="stroke: #A80036; stroke-width: 1.0;"/><line style="stroke: #A80036; stroke-width: 1.0;" x1="758.2144" x2="759.7385" y1="807.9125" y2="800.0591"/><polygon fill="#A80036" points="545.167,394.919,547.5543,401.7235,554.7535,402.1369,552.3662,395.3325,545.167,394.919" style="stroke: #A80036; stroke-width: 1.0;"/><!--MD5=[19457e990bfffed372bd4754e4caf1bd]
link tictactoe.controllers.Logic to tictactoe.controllers.StartController--><path d="M518.6676,418.3609 C518.6676,418.3609 540.09,452.245 550,468 C567.705,496.146 587.358,527.741 603.094,553.126 " fill="none" id="tictactoe.controllers.Logic-tictactoe.controllers.StartController" style="stroke: #A80036; stroke-width: 1.0;"/><polygon fill="#A80036" points="610.027,564.317,608.6881,554.5596,607.394,560.0664,601.8872,558.7723,610.027,564.317" style="stroke: #A80036; stroke-width: 1.0;"/><line style="stroke: #A80036; stroke-width: 1.0;" x1="607.394" x2="603.181" y1="560.0664" y2="553.266"/><polygon fill="#A80036" points="512.247,408.223,512.078,415.4321,518.6676,418.3609,518.8366,411.1517,512.247,408.223" style="stroke: #A80036; stroke-width: 1.0;"/><!--MD5=[600c1fe4dddc39bb8e79c6dad4949c4a]
link tictactoe.controllers.Logic to tictactoe.controllers.PlayController--><path d="M285.686,418.6636 C285.686,418.6636 271.034,444.254 264.114,456.34 " fill="none" id="tictactoe.controllers.Logic-tictactoe.controllers.PlayController" style="stroke: #A80036; stroke-width: 1.0;"/><polygon fill="#A80036" points="257.528,467.844,265.4715,462.0215,260.0126,463.505,258.5291,458.0462,257.528,467.844" style="stroke: #A80036; stroke-width: 1.0;"/><line style="stroke: #A80036; stroke-width: 1.0;" x1="260.0126" x2="263.9875" y1="463.505" y2="456.562"/><polygon fill="#A80036" points="291.649,408.25,285.1963,411.4691,285.686,418.6636,292.1387,415.4445,291.649,408.25" style="stroke: #A80036; stroke-width: 1.0;"/><!--MD5=[f0d647b4d597eb7a904e84056b3f7bd5]
link tictactoe.controllers.Logic to tictactoe.controllers.ResultController--><path d="M423.4013,420.1322 C423.4013,420.1322 437.043,516.788 441.855,550.88 " fill="none" id="tictactoe.controllers.Logic-tictactoe.controllers.ResultController" style="stroke: #A80036; stroke-width: 1.0;"/><polygon fill="#A80036" points="443.733,564.182,446.4358,554.7113,443.0341,559.2311,438.5143,555.8295,443.733,564.182" style="stroke: #A80036; stroke-width: 1.0;"/><line style="stroke: #A80036; stroke-width: 1.0;" x1="443.0341" x2="441.9155" y1="559.2311" y2="551.31"/><polygon fill="#A80036" points="421.724,408.25,418.6019,414.7502,423.4013,420.1322,426.5234,413.632,421.724,408.25" style="stroke: #A80036; stroke-width: 1.0;"/><!--MD5=[5700b97431232c099330215bddfcc855]
reverse link tictactoe.controllers.Controller to tictactoe.controllers.PlayController--><path d="M625.866,289.77 C615.818,329.048 597.139,377.548 563,408 C488.967,474.038 436.303,422.782 348,468 C342.053,471.045 336.117,474.322 330.219,477.783 " fill="none" id="tictactoe.controllers.Controller&lt;-tictactoe.controllers.PlayController" style="stroke: #A80036; stroke-width: 1.0;"/><polygon fill="none" points="619.06,288.134,630.37,270.215,632.702,291.276,619.06,288.134" style="stroke: #A80036; stroke-width: 1.0;"/><!--MD5=[70aedda6b24476e26c690784403df0dd]
link tictactoe.controllers.PlayController to tictactoe.models.Coordinate--><path d="M311.202,737.153 C323.117,745.955 335.444,754.058 348,761 C424.335,803.2011 525.181,822.3279 585.336,830.4812 " fill="none" id="tictactoe.controllers.PlayController-&gt;tictactoe.models.Coordinate" style="stroke: #A80036; stroke-width: 1.0; stroke-dasharray: 7.0,7.0;"/><polygon fill="#A80036" points="590.311,831.1431,581.9163,825.9925,585.3546,830.4845,580.8626,833.9228,590.311,831.1431" style="stroke: #A80036; stroke-width: 1.0;"/><!--MD5=[8f435ed2c59169c4603cda7b7477fe61]
reverse link tictactoe.controllers.Controller to tictactoe.controllers.ResultController--><path d="M613.865,289.35 C600.27,324.802 582.049,369.483 563,408 C535.258,464.094 497.492,525.911 473.175,564.225 " fill="none" id="tictactoe.controllers.Controller&lt;-tictactoe.controllers.ResultController" style="stroke: #A80036; stroke-width: 1.0;"/><polygon fill="none" points="607.491,286.414,621.111,270.182,620.586,291.365,607.491,286.414" style="stroke: #A80036; stroke-width: 1.0;"/><!--MD5=[5deb1e5c7bf9906a35de112138d88f9c]
reverse link tictactoe.controllers.Controller to tictactoe.controllers.StartController--><path d="M636.316,290.229 C635.475,369.124 634.078,500.332 633.397,564.234 " fill="none" id="tictactoe.controllers.Controller&lt;-tictactoe.controllers.StartController" style="stroke: #A80036; stroke-width: 1.0;"/><polygon fill="none" points="629.317,290.103,636.529,270.179,643.316,290.252,629.317,290.103" style="stroke: #A80036; stroke-width: 1.0;"/><!--MD5=[035a1d039d8f4ad5dc8aa60870ab14ef]
@startuml

class  tictactoe.controllers.Controller{
# game: Game
~ Controller(Game)
+ getBoard(): Board
}
tictactoe.controllers.Controller ..> tictactoe.models.Game

class  tictactoe.controllers.Logic{
- game: Game
- startController: StartController
- playController: PlayController
- resultController: ResultController
+ Logic()
+ createPlayers(): void
+ getTokenPlayerFromTurn(): Player
+ getTypeOfTokenPlayerFromTurn(): PlayerType
+ controlErrorsPutCoordinate(int, int): Error
+ controlErrorsMoveOriginCoordinate(int, int): Error
+ controlErrorsMoveTargetCoordinate(int, int, int, int): Error
+ isCoordinateValid(int, int): boolean
+ generateRandomCoordinate(): int[]
+ isBoardComplete(): boolean
+ putTokenPlayerFromTurn(int, int): void
+ moveTokenPlayerFromTurn(int, int, int, int): void
+ changeTurn(): void
+ getTokenChar(int, int): char
+ isEmptyToken(int, int): boolean
+ getCoordinateDimension(): int
+ isTicTacToe(): boolean
+ getOtherValueFromTurn(): int
+ getBoard(): Board
}
tictactoe.controllers.Logic *-down-> tictactoe.models.Game
tictactoe.controllers.Logic *-down-> tictactoe.controllers.StartController
tictactoe.controllers.Logic *-down-> tictactoe.controllers.PlayController
tictactoe.controllers.Logic *-down-> tictactoe.controllers.ResultController

class  tictactoe.controllers.PlayController{
~ PlayController(Game)
~ getTokenPlayerFromTurn(): Player
~ getTypeOfTokenPlayerFromTurn(): PlayerType
~ controlErrorsPutCoordinate(int, int): Error
~ controlErrorsMoveOriginCoordinate(int, int): Error
~ controlErrorsMoveTargetCoordinate(int, int, int, int): Error
~ isCoordinateValid(int, int): boolean
~ generateRandomCoordinate(): int[]
~ isBoardComplete(): boolean
~ putTokenPlayerFromTurn(int, int): void
~ moveTokenPlayerFromTurn(int, int, int, int): void
~ changeTurn(): void
~ getTokenChar(int, int): char
~ isEmptyToken(int, int): boolean
~ getCoordinateDimension(): int
~ isTicTacToe(): boolean
}
tictactoe.controllers.Controller <|-down- tictactoe.controllers.PlayController
tictactoe.controllers.PlayController ..> tictactoe.models.Coordinate

class  tictactoe.controllers.ResultController{
~ ResultController(Game)
~ getOtherValueFromTurn(): int
}
tictactoe.controllers.Controller <|-down- tictactoe.controllers.ResultController

class  tictactoe.controllers.StartController{
~ StartController(Game)
~ createPlayers(): void
}
tictactoe.controllers.Controller <|-down- tictactoe.controllers.StartController

@enduml

PlantUML version 1.2020.15(Sun Jun 28 13:39:45 CEST 2020)
(GPL source distribution)
Java Runtime: Java(TM) SE Runtime Environment
JVM: Java HotSpot(TM) 64-Bit Server VM
Default Encoding: windows-1252
Language: es
Country: ES
--></g></svg>