<?xml version="1.0" encoding="UTF-8" standalone="no"?><svg xmlns="http://www.w3.org/2000/svg" xmlns:xlink="http://www.w3.org/1999/xlink" contentScriptType="application/ecmascript" contentStyleType="text/css" height="843px" preserveAspectRatio="none" style="width:1263px;height:843px;" version="1.1" viewBox="0 0 1263 843" width="1263px" zoomAndPan="magnify"><defs><filter height="300%" id="f1cp8gj2nynpi8" width="300%" x="-1" y="-1"><feGaussianBlur result="blurOut" stdDeviation="2.0"/><feColorMatrix in="blurOut" result="blurOut2" type="matrix" values="0 0 0 0 0 0 0 0 0 0 0 0 0 0 0 0 0 0 .4 0"/><feOffset dx="4.0" dy="4.0" in="blurOut2" result="blurOut3"/><feBlend in="SourceGraphic" in2="blurOut3" mode="normal"/></filter></defs><g><!--MD5=[ee7e9a007a7c4d40c0679a27f272732d]
cluster tictactoe.controllers--><polygon fill="#FFFFFF" filter="url(#f1cp8gj2nynpi8)" points="16,6,164,6,171,29.6094,768,29.6094,768,831,16,831,16,6" style="stroke: #000000; stroke-width: 1.5;"/><line style="stroke: #000000; stroke-width: 1.5;" x1="16" x2="171" y1="29.6094" y2="29.6094"/><text fill="#000000" font-family="sans-serif" font-size="14" font-weight="bold" lengthAdjust="spacingAndGlyphs" textLength="142" x="20" y="22.5332">tictactoe.controllers</text><!--MD5=[51cd642fcc96b47682a93d9084d46dec]
cluster tictactoe.models--><polygon fill="#FFFFFF" filter="url(#f1cp8gj2nynpi8)" points="792,710,914,710,921,733.6094,1241,733.6094,1241,810,792,810,792,710" style="stroke: #000000; stroke-width: 1.5;"/><line style="stroke: #000000; stroke-width: 1.5;" x1="792" x2="921" y1="733.6094" y2="733.6094"/><text fill="#000000" font-family="sans-serif" font-size="14" font-weight="bold" lengthAdjust="spacingAndGlyphs" textLength="116" x="796" y="726.5332">tictactoe.models</text><!--MD5=[957eef6538bab7382edbc29d98579a60]
class tictactoe.controllers.Controller--><rect fill="#FEFECE" filter="url(#f1cp8gj2nynpi8)" height="103.3438" id="tictactoe.controllers.Controller" style="stroke: #A80036; stroke-width: 1.5;" width="180" x="533" y="219"/><ellipse cx="591.75" cy="235" fill="#ADD1B2" rx="11" ry="11" style="stroke: #A80036; stroke-width: 1.0;"/><path d="M594.5156,230.875 Q594.6719,230.6563 594.8594,230.5469 Q595.0469,230.4375 595.2656,230.4375 Q595.6406,230.4375 595.875,230.7031 Q596.1094,230.9531 596.1094,231.5625 L596.1094,233.0156 Q596.1094,233.625 595.875,233.8906 Q595.6406,234.1563 595.2656,234.1563 Q594.9219,234.1563 594.7188,233.9531 Q594.5156,233.7656 594.4063,233.25 Q594.3594,232.8906 594.1719,232.7031 Q593.8438,232.3281 593.2344,232.1094 Q592.625,231.8906 592,231.8906 Q591.2344,231.8906 590.5938,232.2188 Q589.9688,232.5469 589.4688,233.2969 Q588.9844,234.0469 588.9844,235.0781 L588.9844,236.1719 Q588.9844,237.4063 589.875,238.2344 Q590.7656,239.0469 592.3594,239.0469 Q593.2969,239.0469 593.9531,238.7969 Q594.3438,238.6406 594.7656,238.2031 Q595.0313,237.9375 595.1719,237.8594 Q595.3281,237.7813 595.5313,237.7813 Q595.8594,237.7813 596.1094,238.0469 Q596.375,238.2969 596.375,238.6406 Q596.375,238.9844 596.0313,239.3906 Q595.5313,239.9688 594.7344,240.2969 Q593.6563,240.75 592.3594,240.75 Q590.8438,240.75 589.6406,240.125 Q588.6563,239.625 587.9688,238.5625 Q587.2813,237.4844 587.2813,236.2031 L587.2813,235.0469 Q587.2813,233.7188 587.8906,232.5781 Q588.5156,231.4219 589.6094,230.8125 Q590.7031,230.1875 591.9375,230.1875 Q592.6719,230.1875 593.3125,230.3594 Q593.9688,230.5156 594.5156,230.875 Z "/><text fill="#000000" font-family="sans-serif" font-size="12" lengthAdjust="spacingAndGlyphs" textLength="54" x="612.25" y="239.9102">Controller</text><line style="stroke: #A80036; stroke-width: 1.5;" x1="534" x2="712" y1="251" y2="251"/><polygon fill="none" points="544,257,548,261,544,265,540,261" style="stroke: #B38D22; stroke-width: 1.0;"/><text fill="#000000" font-family="sans-serif" font-size="11" lengthAdjust="spacingAndGlyphs" textLength="60" x="553" y="266.4189">game: Game</text><polygon fill="none" points="544,270.8359,548,274.8359,544,278.8359,540,274.8359" style="stroke: #B38D22; stroke-width: 1.0;"/><text fill="#000000" font-family="sans-serif" font-size="11" lengthAdjust="spacingAndGlyphs" textLength="55" x="553" y="280.2549">state: State</text><line style="stroke: #A80036; stroke-width: 1.5;" x1="534" x2="712" y1="286.6719" y2="286.6719"/><polygon fill="#4177AF" points="544,293.6719,540,299.6719,548,299.6719" style="stroke: #1963A0; stroke-width: 1.0;"/><text fill="#000000" font-family="sans-serif" font-size="11" lengthAdjust="spacingAndGlyphs" textLength="113" x="553" y="302.0908">Controller(Game, State)</text><ellipse cx="544" cy="311.5078" fill="#84BE84" rx="3" ry="3" style="stroke: #038048; stroke-width: 1.0;"/><text fill="#000000" font-family="sans-serif" font-size="11" font-style="italic" lengthAdjust="spacingAndGlyphs" textLength="154" x="553" y="315.9268">accept(ControllersVisitor): void</text><!--MD5=[cd4f094777041ea0b287ad7c5b510f06]
class tictactoe.controllers.ControllersVisitor--><rect fill="#FEFECE" filter="url(#f1cp8gj2nynpi8)" height="89.5078" id="tictactoe.controllers.ControllersVisitor" style="stroke: #A80036; stroke-width: 1.5;" width="155" x="253.5" y="725"/><ellipse cx="281.1" cy="741" fill="#ADD1B2" rx="11" ry="11" style="stroke: #A80036; stroke-width: 1.0;"/><path d="M283.8656,736.875 Q284.0219,736.6563 284.2094,736.5469 Q284.3969,736.4375 284.6156,736.4375 Q284.9906,736.4375 285.225,736.7031 Q285.4594,736.9531 285.4594,737.5625 L285.4594,739.0156 Q285.4594,739.625 285.225,739.8906 Q284.9906,740.1563 284.6156,740.1563 Q284.2719,740.1563 284.0688,739.9531 Q283.8656,739.7656 283.7563,739.25 Q283.7094,738.8906 283.5219,738.7031 Q283.1938,738.3281 282.5844,738.1094 Q281.975,737.8906 281.35,737.8906 Q280.5844,737.8906 279.9438,738.2188 Q279.3188,738.5469 278.8188,739.2969 Q278.3344,740.0469 278.3344,741.0781 L278.3344,742.1719 Q278.3344,743.4063 279.225,744.2344 Q280.1156,745.0469 281.7094,745.0469 Q282.6469,745.0469 283.3031,744.7969 Q283.6938,744.6406 284.1156,744.2031 Q284.3813,743.9375 284.5219,743.8594 Q284.6781,743.7813 284.8813,743.7813 Q285.2094,743.7813 285.4594,744.0469 Q285.725,744.2969 285.725,744.6406 Q285.725,744.9844 285.3813,745.3906 Q284.8813,745.9688 284.0844,746.2969 Q283.0063,746.75 281.7094,746.75 Q280.1938,746.75 278.9906,746.125 Q278.0063,745.625 277.3188,744.5625 Q276.6313,743.4844 276.6313,742.2031 L276.6313,741.0469 Q276.6313,739.7188 277.2406,738.5781 Q277.8656,737.4219 278.9594,736.8125 Q280.0531,736.1875 281.2875,736.1875 Q282.0219,736.1875 282.6625,736.3594 Q283.3188,736.5156 283.8656,736.875 Z "/><text fill="#000000" font-family="sans-serif" font-size="12" lengthAdjust="spacingAndGlyphs" textLength="95" x="297.9" y="745.9102">ControllersVisitor</text><line style="stroke: #A80036; stroke-width: 1.5;" x1="254.5" x2="407.5" y1="757" y2="757"/><line style="stroke: #A80036; stroke-width: 1.5;" x1="254.5" x2="407.5" y1="765" y2="765"/><polygon fill="#4177AF" points="264.5,772,260.5,778,268.5,778" style="stroke: #1963A0; stroke-width: 1.0;"/><text fill="#000000" font-family="sans-serif" font-size="11" lengthAdjust="spacingAndGlyphs" textLength="122" x="273.5" y="780.4189">visit(StartController): void</text><polygon fill="#4177AF" points="264.5,785.8359,260.5,791.8359,268.5,791.8359" style="stroke: #1963A0; stroke-width: 1.0;"/><text fill="#000000" font-family="sans-serif" font-size="11" lengthAdjust="spacingAndGlyphs" textLength="119" x="273.5" y="794.2549">visit(PlayController): void</text><polygon fill="#4177AF" points="264.5,799.6719,260.5,805.6719,268.5,805.6719" style="stroke: #1963A0; stroke-width: 1.0;"/><text fill="#000000" font-family="sans-serif" font-size="11" lengthAdjust="spacingAndGlyphs" textLength="129" x="273.5" y="808.0908">visit(ResultController): void</text><!--MD5=[3b8962fd5847b9038b2e29740dae8054]
class tictactoe.controllers.Logic--><rect fill="#FEFECE" filter="url(#f1cp8gj2nynpi8)" height="117.1797" id="tictactoe.controllers.Logic" style="stroke: #A80036; stroke-width: 1.5;" width="220" x="532" y="42"/><ellipse cx="622.75" cy="58" fill="#ADD1B2" rx="11" ry="11" style="stroke: #A80036; stroke-width: 1.0;"/><path d="M625.5156,53.875 Q625.6719,53.6563 625.8594,53.5469 Q626.0469,53.4375 626.2656,53.4375 Q626.6406,53.4375 626.875,53.7031 Q627.1094,53.9531 627.1094,54.5625 L627.1094,56.0156 Q627.1094,56.625 626.875,56.8906 Q626.6406,57.1563 626.2656,57.1563 Q625.9219,57.1563 625.7188,56.9531 Q625.5156,56.7656 625.4063,56.25 Q625.3594,55.8906 625.1719,55.7031 Q624.8438,55.3281 624.2344,55.1094 Q623.625,54.8906 623,54.8906 Q622.2344,54.8906 621.5938,55.2188 Q620.9688,55.5469 620.4688,56.2969 Q619.9844,57.0469 619.9844,58.0781 L619.9844,59.1719 Q619.9844,60.4063 620.875,61.2344 Q621.7656,62.0469 623.3594,62.0469 Q624.2969,62.0469 624.9531,61.7969 Q625.3438,61.6406 625.7656,61.2031 Q626.0313,60.9375 626.1719,60.8594 Q626.3281,60.7813 626.5313,60.7813 Q626.8594,60.7813 627.1094,61.0469 Q627.375,61.2969 627.375,61.6406 Q627.375,61.9844 627.0313,62.3906 Q626.5313,62.9688 625.7344,63.2969 Q624.6563,63.75 623.3594,63.75 Q621.8438,63.75 620.6406,63.125 Q619.6563,62.625 618.9688,61.5625 Q618.2813,60.4844 618.2813,59.2031 L618.2813,58.0469 Q618.2813,56.7188 618.8906,55.5781 Q619.5156,54.4219 620.6094,53.8125 Q621.7031,53.1875 622.9375,53.1875 Q623.6719,53.1875 624.3125,53.3594 Q624.9688,53.5156 625.5156,53.875 Z "/><text fill="#000000" font-family="sans-serif" font-size="12" lengthAdjust="spacingAndGlyphs" textLength="30" x="643.25" y="62.9102">Logic</text><line style="stroke: #A80036; stroke-width: 1.5;" x1="533" x2="751" y1="74" y2="74"/><rect fill="none" height="6" style="stroke: #C82930; stroke-width: 1.0;" width="6" x="540" y="82"/><text fill="#000000" font-family="sans-serif" font-size="11" lengthAdjust="spacingAndGlyphs" textLength="55" x="552" y="89.4189">state: State</text><rect fill="none" height="6" style="stroke: #C82930; stroke-width: 1.0;" width="6" x="540" y="95.8359"/><text fill="#000000" font-family="sans-serif" font-size="11" lengthAdjust="spacingAndGlyphs" textLength="60" x="552" y="103.2549">game: Game</text><rect fill="none" height="6" style="stroke: #C82930; stroke-width: 1.0;" width="6" x="540" y="109.6719"/><text fill="#000000" font-family="sans-serif" font-size="11" lengthAdjust="spacingAndGlyphs" textLength="194" x="552" y="117.0908">controllers: Map&lt;StateValue, Controller&gt;</text><line style="stroke: #A80036; stroke-width: 1.5;" x1="533" x2="751" y1="123.5078" y2="123.5078"/><ellipse cx="543" cy="134.5078" fill="#84BE84" rx="3" ry="3" style="stroke: #038048; stroke-width: 1.0;"/><text fill="#000000" font-family="sans-serif" font-size="11" lengthAdjust="spacingAndGlyphs" textLength="34" x="552" y="138.9268">Logic()</text><ellipse cx="543" cy="148.3438" fill="#84BE84" rx="3" ry="3" style="stroke: #038048; stroke-width: 1.0;"/><text fill="#000000" font-family="sans-serif" font-size="11" lengthAdjust="spacingAndGlyphs" textLength="121" x="552" y="152.7627">getController(): Controller</text><!--MD5=[b574e60c06c50037ff1b014277a67d62]
class tictactoe.controllers.PlayController--><rect fill="#FEFECE" filter="url(#f1cp8gj2nynpi8)" height="283.2109" id="tictactoe.controllers.PlayController" style="stroke: #A80036; stroke-width: 1.5;" width="298" x="454" y="382"/><ellipse cx="560.25" cy="398" fill="#ADD1B2" rx="11" ry="11" style="stroke: #A80036; stroke-width: 1.0;"/><path d="M563.0156,393.875 Q563.1719,393.6563 563.3594,393.5469 Q563.5469,393.4375 563.7656,393.4375 Q564.1406,393.4375 564.375,393.7031 Q564.6094,393.9531 564.6094,394.5625 L564.6094,396.0156 Q564.6094,396.625 564.375,396.8906 Q564.1406,397.1563 563.7656,397.1563 Q563.4219,397.1563 563.2188,396.9531 Q563.0156,396.7656 562.9063,396.25 Q562.8594,395.8906 562.6719,395.7031 Q562.3438,395.3281 561.7344,395.1094 Q561.125,394.8906 560.5,394.8906 Q559.7344,394.8906 559.0938,395.2188 Q558.4688,395.5469 557.9688,396.2969 Q557.4844,397.0469 557.4844,398.0781 L557.4844,399.1719 Q557.4844,400.4063 558.375,401.2344 Q559.2656,402.0469 560.8594,402.0469 Q561.7969,402.0469 562.4531,401.7969 Q562.8438,401.6406 563.2656,401.2031 Q563.5313,400.9375 563.6719,400.8594 Q563.8281,400.7813 564.0313,400.7813 Q564.3594,400.7813 564.6094,401.0469 Q564.875,401.2969 564.875,401.6406 Q564.875,401.9844 564.5313,402.3906 Q564.0313,402.9688 563.2344,403.2969 Q562.1563,403.75 560.8594,403.75 Q559.3438,403.75 558.1406,403.125 Q557.1563,402.625 556.4688,401.5625 Q555.7813,400.4844 555.7813,399.2031 L555.7813,398.0469 Q555.7813,396.7188 556.3906,395.5781 Q557.0156,394.4219 558.1094,393.8125 Q559.2031,393.1875 560.4375,393.1875 Q561.1719,393.1875 561.8125,393.3594 Q562.4688,393.5156 563.0156,393.875 Z "/><text fill="#000000" font-family="sans-serif" font-size="12" lengthAdjust="spacingAndGlyphs" textLength="77" x="580.75" y="402.9102">PlayController</text><line style="stroke: #A80036; stroke-width: 1.5;" x1="455" x2="751" y1="414" y2="414"/><line style="stroke: #A80036; stroke-width: 1.5;" x1="455" x2="751" y1="422" y2="422"/><ellipse cx="465" cy="433" fill="#84BE84" rx="3" ry="3" style="stroke: #038048; stroke-width: 1.0;"/><text fill="#000000" font-family="sans-serif" font-size="11" lengthAdjust="spacingAndGlyphs" textLength="133" x="474" y="437.4189">PlayController(Game, State)</text><ellipse cx="465" cy="446.8359" fill="#84BE84" rx="3" ry="3" style="stroke: #038048; stroke-width: 1.0;"/><text fill="#000000" font-family="sans-serif" font-size="11" lengthAdjust="spacingAndGlyphs" textLength="164" x="474" y="451.2549">getTokenPlayerFromTurn(): Player</text><ellipse cx="465" cy="460.6719" fill="#84BE84" rx="3" ry="3" style="stroke: #038048; stroke-width: 1.0;"/><text fill="#000000" font-family="sans-serif" font-size="11" lengthAdjust="spacingAndGlyphs" textLength="224" x="474" y="465.0908">getTypeOfTokenPlayerFromTurn(): PlayerType</text><ellipse cx="465" cy="474.5078" fill="#84BE84" rx="3" ry="3" style="stroke: #038048; stroke-width: 1.0;"/><text fill="#000000" font-family="sans-serif" font-size="11" lengthAdjust="spacingAndGlyphs" textLength="196" x="474" y="478.9268">controlErrorsPutCoordinate(int, int): Error</text><ellipse cx="465" cy="488.3438" fill="#84BE84" rx="3" ry="3" style="stroke: #038048; stroke-width: 1.0;"/><text fill="#000000" font-family="sans-serif" font-size="11" lengthAdjust="spacingAndGlyphs" textLength="235" x="474" y="492.7627">controlErrorsMoveOriginCoordinate(int, int): Error</text><ellipse cx="465" cy="502.1797" fill="#84BE84" rx="3" ry="3" style="stroke: #038048; stroke-width: 1.0;"/><text fill="#000000" font-family="sans-serif" font-size="11" lengthAdjust="spacingAndGlyphs" textLength="272" x="474" y="506.5986">controlErrorsMoveTargetCoordinate(int, int, int, int): Error</text><ellipse cx="465" cy="516.0156" fill="#84BE84" rx="3" ry="3" style="stroke: #038048; stroke-width: 1.0;"/><text fill="#000000" font-family="sans-serif" font-size="11" lengthAdjust="spacingAndGlyphs" textLength="164" x="474" y="520.4346">isCoordinateValid(int, int): boolean</text><ellipse cx="465" cy="529.8516" fill="#84BE84" rx="3" ry="3" style="stroke: #038048; stroke-width: 1.0;"/><text fill="#000000" font-family="sans-serif" font-size="11" lengthAdjust="spacingAndGlyphs" textLength="165" x="474" y="534.2705">generateRandomCoordinate(): int[]</text><ellipse cx="465" cy="543.6875" fill="#84BE84" rx="3" ry="3" style="stroke: #038048; stroke-width: 1.0;"/><text fill="#000000" font-family="sans-serif" font-size="11" lengthAdjust="spacingAndGlyphs" textLength="133" x="474" y="548.1064">isBoardComplete(): boolean</text><ellipse cx="465" cy="557.5234" fill="#84BE84" rx="3" ry="3" style="stroke: #038048; stroke-width: 1.0;"/><text fill="#000000" font-family="sans-serif" font-size="11" lengthAdjust="spacingAndGlyphs" textLength="182" x="474" y="561.9424">putTokenPlayerFromTurn(int, int): void</text><ellipse cx="465" cy="571.3594" fill="#84BE84" rx="3" ry="3" style="stroke: #038048; stroke-width: 1.0;"/><text fill="#000000" font-family="sans-serif" font-size="11" lengthAdjust="spacingAndGlyphs" textLength="227" x="474" y="575.7783">moveTokenPlayerFromTurn(int, int, int, int): void</text><ellipse cx="465" cy="585.1953" fill="#84BE84" rx="3" ry="3" style="stroke: #038048; stroke-width: 1.0;"/><text fill="#000000" font-family="sans-serif" font-size="11" lengthAdjust="spacingAndGlyphs" textLength="92" x="474" y="589.6143">changeTurn(): void</text><ellipse cx="465" cy="599.0313" fill="#84BE84" rx="3" ry="3" style="stroke: #038048; stroke-width: 1.0;"/><text fill="#000000" font-family="sans-serif" font-size="11" lengthAdjust="spacingAndGlyphs" textLength="131" x="474" y="603.4502">getTokenChar(int, int): char</text><ellipse cx="465" cy="612.8672" fill="#84BE84" rx="3" ry="3" style="stroke: #038048; stroke-width: 1.0;"/><text fill="#000000" font-family="sans-serif" font-size="11" lengthAdjust="spacingAndGlyphs" textLength="146" x="474" y="617.2861">isEmptyToken(int, int): boolean</text><ellipse cx="465" cy="626.7031" fill="#84BE84" rx="3" ry="3" style="stroke: #038048; stroke-width: 1.0;"/><text fill="#000000" font-family="sans-serif" font-size="11" lengthAdjust="spacingAndGlyphs" textLength="141" x="474" y="631.1221">getCoordinateDimension(): int</text><ellipse cx="465" cy="640.5391" fill="#84BE84" rx="3" ry="3" style="stroke: #038048; stroke-width: 1.0;"/><text fill="#000000" font-family="sans-serif" font-size="11" lengthAdjust="spacingAndGlyphs" textLength="110" x="474" y="644.958">isTicTacToe(): boolean</text><ellipse cx="465" cy="654.375" fill="#84BE84" rx="3" ry="3" style="stroke: #038048; stroke-width: 1.0;"/><text fill="#000000" font-family="sans-serif" font-size="11" lengthAdjust="spacingAndGlyphs" textLength="150" x="474" y="658.7939">accept(ControllersVisitor): void</text><!--MD5=[2c3ef77d19c2424f55dfd6db4f13e20e]
class tictactoe.controllers.ResultController--><rect fill="#FEFECE" filter="url(#f1cp8gj2nynpi8)" height="103.3438" id="tictactoe.controllers.ResultController" style="stroke: #A80036; stroke-width: 1.5;" width="176" x="32" y="472"/><ellipse cx="71.3" cy="488" fill="#ADD1B2" rx="11" ry="11" style="stroke: #A80036; stroke-width: 1.0;"/><path d="M74.0656,483.875 Q74.2219,483.6563 74.4094,483.5469 Q74.5969,483.4375 74.8156,483.4375 Q75.1906,483.4375 75.425,483.7031 Q75.6594,483.9531 75.6594,484.5625 L75.6594,486.0156 Q75.6594,486.625 75.425,486.8906 Q75.1906,487.1563 74.8156,487.1563 Q74.4719,487.1563 74.2688,486.9531 Q74.0656,486.7656 73.9563,486.25 Q73.9094,485.8906 73.7219,485.7031 Q73.3938,485.3281 72.7844,485.1094 Q72.175,484.8906 71.55,484.8906 Q70.7844,484.8906 70.1438,485.2188 Q69.5188,485.5469 69.0188,486.2969 Q68.5344,487.0469 68.5344,488.0781 L68.5344,489.1719 Q68.5344,490.4063 69.425,491.2344 Q70.3156,492.0469 71.9094,492.0469 Q72.8469,492.0469 73.5031,491.7969 Q73.8938,491.6406 74.3156,491.2031 Q74.5813,490.9375 74.7219,490.8594 Q74.8781,490.7813 75.0813,490.7813 Q75.4094,490.7813 75.6594,491.0469 Q75.925,491.2969 75.925,491.6406 Q75.925,491.9844 75.5813,492.3906 Q75.0813,492.9688 74.2844,493.2969 Q73.2063,493.75 71.9094,493.75 Q70.3938,493.75 69.1906,493.125 Q68.2063,492.625 67.5188,491.5625 Q66.8313,490.4844 66.8313,489.2031 L66.8313,488.0469 Q66.8313,486.7188 67.4406,485.5781 Q68.0656,484.4219 69.1594,483.8125 Q70.2531,483.1875 71.4875,483.1875 Q72.2219,483.1875 72.8625,483.3594 Q73.5188,483.5156 74.0656,483.875 Z "/><text fill="#000000" font-family="sans-serif" font-size="12" lengthAdjust="spacingAndGlyphs" textLength="90" x="90.7" y="492.9102">ResultController</text><line style="stroke: #A80036; stroke-width: 1.5;" x1="33" x2="207" y1="504" y2="504"/><line style="stroke: #A80036; stroke-width: 1.5;" x1="33" x2="207" y1="512" y2="512"/><ellipse cx="43" cy="523" fill="#84BE84" rx="3" ry="3" style="stroke: #038048; stroke-width: 1.0;"/><text fill="#000000" font-family="sans-serif" font-size="11" lengthAdjust="spacingAndGlyphs" textLength="143" x="52" y="527.4189">ResultController(Game, State)</text><ellipse cx="43" cy="536.8359" fill="#84BE84" rx="3" ry="3" style="stroke: #038048; stroke-width: 1.0;"/><text fill="#000000" font-family="sans-serif" font-size="11" lengthAdjust="spacingAndGlyphs" textLength="60" x="52" y="541.2549">finish(): void</text><ellipse cx="43" cy="550.6719" fill="#84BE84" rx="3" ry="3" style="stroke: #038048; stroke-width: 1.0;"/><text fill="#000000" font-family="sans-serif" font-size="11" lengthAdjust="spacingAndGlyphs" textLength="141" x="52" y="555.0908">getOtherValueFromTurn(): int</text><ellipse cx="43" cy="564.5078" fill="#84BE84" rx="3" ry="3" style="stroke: #038048; stroke-width: 1.0;"/><text fill="#000000" font-family="sans-serif" font-size="11" lengthAdjust="spacingAndGlyphs" textLength="150" x="52" y="568.9268">accept(ControllersVisitor): void</text><!--MD5=[8ede4dbfb3b498095887802b64b699f0]
class tictactoe.controllers.StartController--><rect fill="#FEFECE" filter="url(#f1cp8gj2nynpi8)" height="103.3438" id="tictactoe.controllers.StartController" style="stroke: #A80036; stroke-width: 1.5;" width="176" x="243" y="472"/><ellipse cx="287.25" cy="488" fill="#ADD1B2" rx="11" ry="11" style="stroke: #A80036; stroke-width: 1.0;"/><path d="M290.0156,483.875 Q290.1719,483.6563 290.3594,483.5469 Q290.5469,483.4375 290.7656,483.4375 Q291.1406,483.4375 291.375,483.7031 Q291.6094,483.9531 291.6094,484.5625 L291.6094,486.0156 Q291.6094,486.625 291.375,486.8906 Q291.1406,487.1563 290.7656,487.1563 Q290.4219,487.1563 290.2188,486.9531 Q290.0156,486.7656 289.9063,486.25 Q289.8594,485.8906 289.6719,485.7031 Q289.3438,485.3281 288.7344,485.1094 Q288.125,484.8906 287.5,484.8906 Q286.7344,484.8906 286.0938,485.2188 Q285.4688,485.5469 284.9688,486.2969 Q284.4844,487.0469 284.4844,488.0781 L284.4844,489.1719 Q284.4844,490.4063 285.375,491.2344 Q286.2656,492.0469 287.8594,492.0469 Q288.7969,492.0469 289.4531,491.7969 Q289.8438,491.6406 290.2656,491.2031 Q290.5313,490.9375 290.6719,490.8594 Q290.8281,490.7813 291.0313,490.7813 Q291.3594,490.7813 291.6094,491.0469 Q291.875,491.2969 291.875,491.6406 Q291.875,491.9844 291.5313,492.3906 Q291.0313,492.9688 290.2344,493.2969 Q289.1563,493.75 287.8594,493.75 Q286.3438,493.75 285.1406,493.125 Q284.1563,492.625 283.4688,491.5625 Q282.7813,490.4844 282.7813,489.2031 L282.7813,488.0469 Q282.7813,486.7188 283.3906,485.5781 Q284.0156,484.4219 285.1094,483.8125 Q286.2031,483.1875 287.4375,483.1875 Q288.1719,483.1875 288.8125,483.3594 Q289.4688,483.5156 290.0156,483.875 Z "/><text fill="#000000" font-family="sans-serif" font-size="12" lengthAdjust="spacingAndGlyphs" textLength="79" x="307.75" y="492.9102">StartController</text><line style="stroke: #A80036; stroke-width: 1.5;" x1="244" x2="418" y1="504" y2="504"/><line style="stroke: #A80036; stroke-width: 1.5;" x1="244" x2="418" y1="512" y2="512"/><ellipse cx="254" cy="523" fill="#84BE84" rx="3" ry="3" style="stroke: #038048; stroke-width: 1.0;"/><text fill="#000000" font-family="sans-serif" font-size="11" lengthAdjust="spacingAndGlyphs" textLength="136" x="263" y="527.4189">StartController(Game, State)</text><ellipse cx="254" cy="536.8359" fill="#84BE84" rx="3" ry="3" style="stroke: #038048; stroke-width: 1.0;"/><text fill="#000000" font-family="sans-serif" font-size="11" lengthAdjust="spacingAndGlyphs" textLength="56" x="263" y="541.2549">start(): void</text><ellipse cx="254" cy="550.6719" fill="#84BE84" rx="3" ry="3" style="stroke: #038048; stroke-width: 1.0;"/><text fill="#000000" font-family="sans-serif" font-size="11" lengthAdjust="spacingAndGlyphs" textLength="112" x="263" y="555.0908">createPlayers(int): void</text><ellipse cx="254" cy="564.5078" fill="#84BE84" rx="3" ry="3" style="stroke: #038048; stroke-width: 1.0;"/><text fill="#000000" font-family="sans-serif" font-size="11" lengthAdjust="spacingAndGlyphs" textLength="150" x="263" y="568.9268">accept(ControllersVisitor): void</text><!--MD5=[8d3188f3c370ea7d5d91d12bca83b67a]
class tictactoe.models.Game--><rect fill="#FEFECE" filter="url(#f1cp8gj2nynpi8)" height="48" id="tictactoe.models.Game" style="stroke: #A80036; stroke-width: 1.5;" width="66" x="937" y="746"/><ellipse cx="952" cy="762" fill="#ADD1B2" rx="11" ry="11" style="stroke: #A80036; stroke-width: 1.0;"/><path d="M954.7656,757.875 Q954.9219,757.6563 955.1094,757.5469 Q955.2969,757.4375 955.5156,757.4375 Q955.8906,757.4375 956.125,757.7031 Q956.3594,757.9531 956.3594,758.5625 L956.3594,760.0156 Q956.3594,760.625 956.125,760.8906 Q955.8906,761.1563 955.5156,761.1563 Q955.1719,761.1563 954.9688,760.9531 Q954.7656,760.7656 954.6563,760.25 Q954.6094,759.8906 954.4219,759.7031 Q954.0938,759.3281 953.4844,759.1094 Q952.875,758.8906 952.25,758.8906 Q951.4844,758.8906 950.8438,759.2188 Q950.2188,759.5469 949.7188,760.2969 Q949.2344,761.0469 949.2344,762.0781 L949.2344,763.1719 Q949.2344,764.4063 950.125,765.2344 Q951.0156,766.0469 952.6094,766.0469 Q953.5469,766.0469 954.2031,765.7969 Q954.5938,765.6406 955.0156,765.2031 Q955.2813,764.9375 955.4219,764.8594 Q955.5781,764.7813 955.7813,764.7813 Q956.1094,764.7813 956.3594,765.0469 Q956.625,765.2969 956.625,765.6406 Q956.625,765.9844 956.2813,766.3906 Q955.7813,766.9688 954.9844,767.2969 Q953.9063,767.75 952.6094,767.75 Q951.0938,767.75 949.8906,767.125 Q948.9063,766.625 948.2188,765.5625 Q947.5313,764.4844 947.5313,763.2031 L947.5313,762.0469 Q947.5313,760.7188 948.1406,759.5781 Q948.7656,758.4219 949.8594,757.8125 Q950.9531,757.1875 952.1875,757.1875 Q952.9219,757.1875 953.5625,757.3594 Q954.2188,757.5156 954.7656,757.875 Z "/><text fill="#000000" font-family="sans-serif" font-size="12" lengthAdjust="spacingAndGlyphs" textLength="34" x="966" y="766.9102">Game</text><line style="stroke: #A80036; stroke-width: 1.5;" x1="938" x2="1002" y1="778" y2="778"/><line style="stroke: #A80036; stroke-width: 1.5;" x1="938" x2="1002" y1="786" y2="786"/><!--MD5=[895b6132a90c2908aef15a128e2ee1f5]
class tictactoe.models.State--><rect fill="#FEFECE" filter="url(#f1cp8gj2nynpi8)" height="48" id="tictactoe.models.State" style="stroke: #A80036; stroke-width: 1.5;" width="60" x="1038" y="746"/><ellipse cx="1053" cy="762" fill="#ADD1B2" rx="11" ry="11" style="stroke: #A80036; stroke-width: 1.0;"/><path d="M1055.7656,757.875 Q1055.9219,757.6563 1056.1094,757.5469 Q1056.2969,757.4375 1056.5156,757.4375 Q1056.8906,757.4375 1057.125,757.7031 Q1057.3594,757.9531 1057.3594,758.5625 L1057.3594,760.0156 Q1057.3594,760.625 1057.125,760.8906 Q1056.8906,761.1563 1056.5156,761.1563 Q1056.1719,761.1563 1055.9688,760.9531 Q1055.7656,760.7656 1055.6563,760.25 Q1055.6094,759.8906 1055.4219,759.7031 Q1055.0938,759.3281 1054.4844,759.1094 Q1053.875,758.8906 1053.25,758.8906 Q1052.4844,758.8906 1051.8438,759.2188 Q1051.2188,759.5469 1050.7188,760.2969 Q1050.2344,761.0469 1050.2344,762.0781 L1050.2344,763.1719 Q1050.2344,764.4063 1051.125,765.2344 Q1052.0156,766.0469 1053.6094,766.0469 Q1054.5469,766.0469 1055.2031,765.7969 Q1055.5938,765.6406 1056.0156,765.2031 Q1056.2813,764.9375 1056.4219,764.8594 Q1056.5781,764.7813 1056.7813,764.7813 Q1057.1094,764.7813 1057.3594,765.0469 Q1057.625,765.2969 1057.625,765.6406 Q1057.625,765.9844 1057.2813,766.3906 Q1056.7813,766.9688 1055.9844,767.2969 Q1054.9063,767.75 1053.6094,767.75 Q1052.0938,767.75 1050.8906,767.125 Q1049.9063,766.625 1049.2188,765.5625 Q1048.5313,764.4844 1048.5313,763.2031 L1048.5313,762.0469 Q1048.5313,760.7188 1049.1406,759.5781 Q1049.7656,758.4219 1050.8594,757.8125 Q1051.9531,757.1875 1053.1875,757.1875 Q1053.9219,757.1875 1054.5625,757.3594 Q1055.2188,757.5156 1055.7656,757.875 Z "/><text fill="#000000" font-family="sans-serif" font-size="12" lengthAdjust="spacingAndGlyphs" textLength="28" x="1067" y="766.9102">State</text><line style="stroke: #A80036; stroke-width: 1.5;" x1="1039" x2="1097" y1="778" y2="778"/><line style="stroke: #A80036; stroke-width: 1.5;" x1="1039" x2="1097" y1="786" y2="786"/><!--MD5=[c8f7ee38df84fc6c47e5792f2767cf35]
class tictactoe.models.StateValue--><rect fill="#FEFECE" filter="url(#f1cp8gj2nynpi8)" height="48" id="tictactoe.models.StateValue" style="stroke: #A80036; stroke-width: 1.5;" width="91" x="1133.5" y="746"/><ellipse cx="1148.5" cy="762" fill="#ADD1B2" rx="11" ry="11" style="stroke: #A80036; stroke-width: 1.0;"/><path d="M1151.2656,757.875 Q1151.4219,757.6563 1151.6094,757.5469 Q1151.7969,757.4375 1152.0156,757.4375 Q1152.3906,757.4375 1152.625,757.7031 Q1152.8594,757.9531 1152.8594,758.5625 L1152.8594,760.0156 Q1152.8594,760.625 1152.625,760.8906 Q1152.3906,761.1563 1152.0156,761.1563 Q1151.6719,761.1563 1151.4688,760.9531 Q1151.2656,760.7656 1151.1563,760.25 Q1151.1094,759.8906 1150.9219,759.7031 Q1150.5938,759.3281 1149.9844,759.1094 Q1149.375,758.8906 1148.75,758.8906 Q1147.9844,758.8906 1147.3438,759.2188 Q1146.7188,759.5469 1146.2188,760.2969 Q1145.7344,761.0469 1145.7344,762.0781 L1145.7344,763.1719 Q1145.7344,764.4063 1146.625,765.2344 Q1147.5156,766.0469 1149.1094,766.0469 Q1150.0469,766.0469 1150.7031,765.7969 Q1151.0938,765.6406 1151.5156,765.2031 Q1151.7813,764.9375 1151.9219,764.8594 Q1152.0781,764.7813 1152.2813,764.7813 Q1152.6094,764.7813 1152.8594,765.0469 Q1153.125,765.2969 1153.125,765.6406 Q1153.125,765.9844 1152.7813,766.3906 Q1152.2813,766.9688 1151.4844,767.2969 Q1150.4063,767.75 1149.1094,767.75 Q1147.5938,767.75 1146.3906,767.125 Q1145.4063,766.625 1144.7188,765.5625 Q1144.0313,764.4844 1144.0313,763.2031 L1144.0313,762.0469 Q1144.0313,760.7188 1144.6406,759.5781 Q1145.2656,758.4219 1146.3594,757.8125 Q1147.4531,757.1875 1148.6875,757.1875 Q1149.4219,757.1875 1150.0625,757.3594 Q1150.7188,757.5156 1151.2656,757.875 Z "/><text fill="#000000" font-family="sans-serif" font-size="12" lengthAdjust="spacingAndGlyphs" textLength="59" x="1162.5" y="766.9102">StateValue</text><line style="stroke: #A80036; stroke-width: 1.5;" x1="1134.5" x2="1223.5" y1="778" y2="778"/><line style="stroke: #A80036; stroke-width: 1.5;" x1="1134.5" x2="1223.5" y1="786" y2="786"/><!--MD5=[55d70ecb9e3ba4786ec1f15d0b7dce13]
class tictactoe.models.Coordinate--><rect fill="#FEFECE" filter="url(#f1cp8gj2nynpi8)" height="48" id="tictactoe.models.Coordinate" style="stroke: #A80036; stroke-width: 1.5;" width="93" x="808.5" y="746"/><ellipse cx="823.5" cy="762" fill="#ADD1B2" rx="11" ry="11" style="stroke: #A80036; stroke-width: 1.0;"/><path d="M826.2656,757.875 Q826.4219,757.6563 826.6094,757.5469 Q826.7969,757.4375 827.0156,757.4375 Q827.3906,757.4375 827.625,757.7031 Q827.8594,757.9531 827.8594,758.5625 L827.8594,760.0156 Q827.8594,760.625 827.625,760.8906 Q827.3906,761.1563 827.0156,761.1563 Q826.6719,761.1563 826.4688,760.9531 Q826.2656,760.7656 826.1563,760.25 Q826.1094,759.8906 825.9219,759.7031 Q825.5938,759.3281 824.9844,759.1094 Q824.375,758.8906 823.75,758.8906 Q822.9844,758.8906 822.3438,759.2188 Q821.7188,759.5469 821.2188,760.2969 Q820.7344,761.0469 820.7344,762.0781 L820.7344,763.1719 Q820.7344,764.4063 821.625,765.2344 Q822.5156,766.0469 824.1094,766.0469 Q825.0469,766.0469 825.7031,765.7969 Q826.0938,765.6406 826.5156,765.2031 Q826.7813,764.9375 826.9219,764.8594 Q827.0781,764.7813 827.2813,764.7813 Q827.6094,764.7813 827.8594,765.0469 Q828.125,765.2969 828.125,765.6406 Q828.125,765.9844 827.7813,766.3906 Q827.2813,766.9688 826.4844,767.2969 Q825.4063,767.75 824.1094,767.75 Q822.5938,767.75 821.3906,767.125 Q820.4063,766.625 819.7188,765.5625 Q819.0313,764.4844 819.0313,763.2031 L819.0313,762.0469 Q819.0313,760.7188 819.6406,759.5781 Q820.2656,758.4219 821.3594,757.8125 Q822.4531,757.1875 823.6875,757.1875 Q824.4219,757.1875 825.0625,757.3594 Q825.7188,757.5156 826.2656,757.875 Z "/><text fill="#000000" font-family="sans-serif" font-size="12" lengthAdjust="spacingAndGlyphs" textLength="61" x="837.5" y="766.9102">Coordinate</text><line style="stroke: #A80036; stroke-width: 1.5;" x1="809.5" x2="900.5" y1="778" y2="778"/><line style="stroke: #A80036; stroke-width: 1.5;" x1="809.5" x2="900.5" y1="786" y2="786"/><!--MD5=[67f54059f517de4e17e4f415259fadfa]
link tictactoe.controllers.Controller to tictactoe.models.Game--><path d="M707.486,322.278 C729.918,339.007 752.468,359.237 769,382 C847.219,489.698 787.204,558.465 867,665 C884.004,687.702 898.623,682.269 919,702 C931.266,713.877 942.955,728.863 952.041,741.649 " fill="none" id="tictactoe.controllers.Controller-&gt;tictactoe.models.Game" style="stroke: #A80036; stroke-width: 1.0; stroke-dasharray: 7.0,7.0;"/><polygon fill="#A80036" points="955.019,745.892,953.1223,736.2275,952.1464,741.7995,946.5744,740.8236,955.019,745.892" style="stroke: #A80036; stroke-width: 1.0;"/><!--MD5=[958c68ec9081d3cd0ffa7948938073c3]
link tictactoe.controllers.Controller to tictactoe.models.State--><path d="M713.19,302.516 C756.452,320.686 806.819,347.023 844,382 C903.319,437.804 1015.88,662.105 1054.55,741.212 " fill="none" id="tictactoe.controllers.Controller-&gt;tictactoe.models.State" style="stroke: #A80036; stroke-width: 1.0; stroke-dasharray: 7.0,7.0;"/><polygon fill="#A80036" points="1056.78,745.764,1056.4184,735.9218,1054.5829,741.2726,1049.2321,739.4371,1056.78,745.764" style="stroke: #A80036; stroke-width: 1.0;"/><!--MD5=[bf6ea4e22b99b81dd48bbf2eb1cf70e8]
link tictactoe.controllers.Logic to tictactoe.models.Game--><path d="M692.9877,168.799 C692.9877,168.799 718.354,202.911 730,219 C781.837,290.611 804.552,302.885 844,382 C905.039,504.418 945.816,663.001 962.069,733.043 " fill="none" id="tictactoe.controllers.Logic-tictactoe.models.Game" style="stroke: #A80036; stroke-width: 1.0;"/><polygon fill="#A80036" points="964.992,745.834,966.8867,736.1691,963.8782,740.9596,959.0877,737.9512,964.992,745.834" style="stroke: #A80036; stroke-width: 1.0;"/><line style="stroke: #A80036; stroke-width: 1.0;" x1="963.8782" x2="962.0965" y1="740.9596" y2="733.1605"/><polygon fill="#A80036" points="685.793,159.195,686.189,166.3952,692.9877,168.799,692.5917,161.5987,685.793,159.195" style="stroke: #A80036; stroke-width: 1.0;"/><!--MD5=[758f687dc2a943dbf7811856af1b401c]
link tictactoe.controllers.Logic to tictactoe.models.State--><path d="M735.5681,166.592 C735.5681,166.592 777.873,200.917 796,219 C860.634,283.476 876.543,302.262 921,382 C988.755,503.526 1038.1,662.566 1058.13,732.884 " fill="none" id="tictactoe.controllers.Logic-tictactoe.models.State" style="stroke: #A80036; stroke-width: 1.0;"/><polygon fill="#A80036" points="1061.74,745.728,1063.1536,735.9811,1060.3861,740.9148,1055.4525,738.1473,1061.74,745.728" style="stroke: #A80036; stroke-width: 1.0;"/><line style="stroke: #A80036; stroke-width: 1.0;" x1="1060.3861" x2="1058.22" y1="740.9148" y2="733.213"/><polygon fill="#A80036" points="726.05,159.284,728.373,166.1107,735.5681,166.592,733.245,159.7653,726.05,159.284" style="stroke: #A80036; stroke-width: 1.0;"/><!--MD5=[12d6b2ee7a1b6faf9fe809f483963ab7]
link tictactoe.controllers.Logic to tictactoe.controllers.Controller--><path d="M634.1119,171.2399 C634.1119,171.2399 631.443,194.848 630.204,205.805 " fill="none" id="tictactoe.controllers.Logic-tictactoe.controllers.Controller" style="stroke: #A80036; stroke-width: 1.0;"/><polygon fill="#A80036" points="628.726,218.874,633.7114,210.3801,629.2875,213.9056,625.762,209.4817,628.726,218.874" style="stroke: #A80036; stroke-width: 1.0;"/><line style="stroke: #A80036; stroke-width: 1.0;" x1="629.2875" x2="630.1865" y1="213.9056" y2="205.956"/><polygon fill="#A80036" points="635.461,159.316,630.8118,164.8283,634.1119,171.2399,638.7611,165.7276,635.461,159.316" style="stroke: #A80036; stroke-width: 1.0;"/><!--MD5=[096abf58a0a258fd61b5f735b2bb7393]
link tictactoe.controllers.Logic to tictactoe.models.StateValue--><path d="M762.9178,153.814 C762.9178,153.814 836.007,194.204 867,219 C1045.27,361.627 1139.8,635.496 1169,733.243 " fill="none" id="tictactoe.controllers.Logic-tictactoe.models.StateValue" style="stroke: #A80036; stroke-width: 1.0;"/><polygon fill="#A80036" points="1172.69,745.835,1173.9979,736.0734,1171.284,741.0367,1166.3207,738.3229,1172.69,745.835" style="stroke: #A80036; stroke-width: 1.0;"/><line style="stroke: #A80036; stroke-width: 1.0;" x1="1171.284" x2="1169.035" y1="741.0367" y2="733.359"/><polygon fill="#A80036" points="752.204,148.409,755.7592,154.6828,762.9178,153.814,759.3626,147.5402,752.204,148.409" style="stroke: #A80036; stroke-width: 1.0;"/><!--MD5=[5700b97431232c099330215bddfcc855]
reverse link tictactoe.controllers.Controller to tictactoe.controllers.PlayController--><path d="M617.353,342.37 C616.357,354.873 615.289,368.275 614.202,381.918 " fill="none" id="tictactoe.controllers.Controller&lt;-tictactoe.controllers.PlayController" style="stroke: #A80036; stroke-width: 1.0;"/><polygon fill="none" points="610.386,341.674,618.953,322.294,624.342,342.786,610.386,341.674" style="stroke: #A80036; stroke-width: 1.0;"/><!--MD5=[23cbcec275552d5168a12b754cf1cb3c]
link tictactoe.controllers.PlayController to tictactoe.controllers.ControllersVisitor--><path d="M453.87,658.553 C428.825,681.065 404.38,703.039 383.975,721.381 " fill="none" id="tictactoe.controllers.PlayController-&gt;tictactoe.controllers.ControllersVisitor" style="stroke: #A80036; stroke-width: 1.0; stroke-dasharray: 7.0,7.0;"/><polygon fill="#A80036" points="380.212,724.763,389.5793,721.7209,383.9304,721.4203,384.2309,715.7714,380.212,724.763" style="stroke: #A80036; stroke-width: 1.0;"/><!--MD5=[70aedda6b24476e26c690784403df0dd]
link tictactoe.controllers.PlayController to tictactoe.models.Coordinate--><path d="M748.129,665.31 C778.49,694.768 807.334,722.753 827.387,742.209 " fill="none" id="tictactoe.controllers.PlayController-&gt;tictactoe.models.Coordinate" style="stroke: #A80036; stroke-width: 1.0; stroke-dasharray: 7.0,7.0;"/><polygon fill="#A80036" points="831.278,745.984,827.6036,736.8462,827.6893,742.5024,822.0331,742.5882,831.278,745.984" style="stroke: #A80036; stroke-width: 1.0;"/><!--MD5=[8f435ed2c59169c4603cda7b7477fe61]
reverse link tictactoe.controllers.Controller to tictactoe.controllers.ResultController--><path d="M512.966,282.523 C428.165,295.392 311.213,323.03 225,382 C191.697,404.779 164.74,441.617 146.481,471.857 " fill="none" id="tictactoe.controllers.Controller&lt;-tictactoe.controllers.ResultController" style="stroke: #A80036; stroke-width: 1.0;"/><polygon fill="none" points="512.192,275.563,532.98,279.668,514.169,289.422,512.192,275.563" style="stroke: #A80036; stroke-width: 1.0;"/><!--MD5=[edc9d4bac27d4d7291c8837b0c553710]
link tictactoe.controllers.ResultController to tictactoe.controllers.ControllersVisitor--><path d="M154.902,575.036 C174.532,602.446 200.048,636.456 225,665 C241.721,684.128 261.276,703.941 279.006,721.077 " fill="none" id="tictactoe.controllers.ResultController-&gt;tictactoe.controllers.ControllersVisitor" style="stroke: #A80036; stroke-width: 1.0; stroke-dasharray: 7.0,7.0;"/><polygon fill="#A80036" points="282.995,724.917,279.2855,715.7934,279.3929,721.4493,273.7371,721.5567,282.995,724.917" style="stroke: #A80036; stroke-width: 1.0;"/><!--MD5=[5deb1e5c7bf9906a35de112138d88f9c]
reverse link tictactoe.controllers.Controller to tictactoe.controllers.StartController--><path d="M515.585,325.187 C488.138,341.455 459.711,360.723 436,382 C406.99,408.033 380.74,443.158 361.743,471.774 " fill="none" id="tictactoe.controllers.Controller&lt;-tictactoe.controllers.StartController" style="stroke: #A80036; stroke-width: 1.0;"/><polygon fill="none" points="512.131,319.099,532.958,315.198,519.109,331.236,512.131,319.099" style="stroke: #A80036; stroke-width: 1.0;"/><!--MD5=[3982cc41c3ae9900c4a9f558e21fa5e9]
link tictactoe.controllers.StartController to tictactoe.controllers.ControllersVisitor--><path d="M331,575.161 C331,617.634 331,677.909 331,719.93 " fill="none" id="tictactoe.controllers.StartController-&gt;tictactoe.controllers.ControllersVisitor" style="stroke: #A80036; stroke-width: 1.0; stroke-dasharray: 7.0,7.0;"/><polygon fill="#A80036" points="331,724.962,335,715.962,331,719.962,327,715.962,331,724.962" style="stroke: #A80036; stroke-width: 1.0;"/><!--MD5=[a62e70bd4cb9ec5c7ef68c54eeb6779f]
@startuml

class  tictactoe.controllers.Controller{
# game: Game
# state: State
~ Controller(Game, State)
+ {abstract} accept(ControllersVisitor): void
}
tictactoe.controllers.Controller ..> tictactoe.models.Game
tictactoe.controllers.Controller ..> tictactoe.models.State

class  tictactoe.controllers.ControllersVisitor{
~ visit(StartController): void
~ visit(PlayController): void
~ visit(ResultController): void
}

class  tictactoe.controllers.Logic{
- state: State
- game: Game
- controllers: Map<StateValue, Controller>
+ Logic()
+ getController(): Controller
}
tictactoe.controllers.Logic *-down-> tictactoe.models.Game
tictactoe.controllers.Logic *-down-> tictactoe.models.State
tictactoe.controllers.Logic *-down-> tictactoe.controllers.Controller
tictactoe.controllers.Logic *-down-> tictactoe.models.StateValue

class  tictactoe.controllers.PlayController{
+ PlayController(Game, State)
+ getTokenPlayerFromTurn(): Player
+ getTypeOfTokenPlayerFromTurn(): PlayerType
+ controlErrorsPutCoordinate(int, int): Error
+ controlErrorsMoveOriginCoordinate(int, int): Error
+ controlErrorsMoveTargetCoordinate(int, int, int, int): Error
+ isCoordinateValid(int, int): boolean
+ generateRandomCoordinate(): int[]
+ isBoardComplete(): boolean
+ putTokenPlayerFromTurn(int, int): void
+ moveTokenPlayerFromTurn(int, int, int, int): void
+ changeTurn(): void
+ getTokenChar(int, int): char
+ isEmptyToken(int, int): boolean
+ getCoordinateDimension(): int
+ isTicTacToe(): boolean
+ accept(ControllersVisitor): void
}
tictactoe.controllers.Controller <|-down- tictactoe.controllers.PlayController
tictactoe.controllers.PlayController ..> tictactoe.controllers.ControllersVisitor
tictactoe.controllers.PlayController ..> tictactoe.models.Coordinate

class  tictactoe.controllers.ResultController{
+ ResultController(Game, State)
+ finish(): void
+ getOtherValueFromTurn(): int
+ accept(ControllersVisitor): void
}
tictactoe.controllers.Controller <|-down- tictactoe.controllers.ResultController
tictactoe.controllers.ResultController ..> tictactoe.controllers.ControllersVisitor

class  tictactoe.controllers.StartController{
+ StartController(Game, State)
+ start(): void
+ createPlayers(int): void
+ accept(ControllersVisitor): void
}
tictactoe.controllers.Controller <|-down- tictactoe.controllers.StartController
tictactoe.controllers.StartController ..> tictactoe.controllers.ControllersVisitor

@enduml

PlantUML version 1.2020.15(Sun Jun 28 13:39:45 CEST 2020)
(GPL source distribution)
Java Runtime: Java(TM) SE Runtime Environment
JVM: Java HotSpot(TM) 64-Bit Server VM
Default Encoding: windows-1252
Language: es
Country: ES
--></g></svg>