<?xml version="1.0" encoding="UTF-8" standalone="no"?><svg xmlns="http://www.w3.org/2000/svg" xmlns:xlink="http://www.w3.org/1999/xlink" contentScriptType="application/ecmascript" contentStyleType="text/css" height="2437px" preserveAspectRatio="none" style="width:1155px;height:2437px;" version="1.1" viewBox="0 0 1155 2437" width="1155px" zoomAndPan="magnify"><defs><filter height="300%" id="f1khkrsb1t4pum" width="300%" x="-1" y="-1"><feGaussianBlur result="blurOut" stdDeviation="2.0"/><feColorMatrix in="blurOut" result="blurOut2" type="matrix" values="0 0 0 0 0 0 0 0 0 0 0 0 0 0 0 0 0 0 .4 0"/><feOffset dx="4.0" dy="4.0" in="blurOut2" result="blurOut3"/><feBlend in="SourceGraphic" in2="blurOut3" mode="normal"/></filter></defs><g><!--MD5=[51cd642fcc96b47682a93d9084d46dec]
cluster tictactoe.models--><polygon fill="#FFFFFF" filter="url(#f1khkrsb1t4pum)" points="287.1484,6,409.1484,6,416.1484,29.6094,765.1484,29.6094,765.1484,2301,287.1484,2301,287.1484,6" style="stroke: #000000; stroke-width: 1.5;"/><line style="stroke: #000000; stroke-width: 1.5;" x1="287.1484" x2="416.1484" y1="29.6094" y2="29.6094"/><text fill="#000000" font-family="sans-serif" font-size="14" font-weight="bold" lengthAdjust="spacingAndGlyphs" textLength="116" x="291.1484" y="22.5332">tictactoe.models</text><!--MD5=[c52f45833d539af9e29a9d34b8b7302b]
cluster utils--><polygon fill="#FFFFFF" filter="url(#f1khkrsb1t4pum)" points="789.1484,1906,825.1484,1906,832.1484,1929.6094,1133.1514,1929.6094,1133.1514,2006,789.1484,2006,789.1484,1906" style="stroke: #000000; stroke-width: 1.5;"/><line style="stroke: #000000; stroke-width: 1.5;" x1="789.1484" x2="832.1484" y1="1929.6094" y2="1929.6094"/><text fill="#000000" font-family="sans-serif" font-size="14" font-weight="bold" lengthAdjust="spacingAndGlyphs" textLength="30" x="793.1484" y="1922.5332">utils</text><!--MD5=[7db3c59d38ae5b37b484eb2df9368145]
cluster java.util--><polygon fill="#FFFFFF" filter="url(#f1khkrsb1t4pum)" points="287.1484,2325,348.1484,2325,355.1484,2348.6094,514.1484,2348.6094,514.1484,2425,287.1484,2425,287.1484,2325" style="stroke: #000000; stroke-width: 1.5;"/><line style="stroke: #000000; stroke-width: 1.5;" x1="287.1484" x2="355.1484" y1="2348.6094" y2="2348.6094"/><text fill="#000000" font-family="sans-serif" font-size="14" font-weight="bold" lengthAdjust="spacingAndGlyphs" textLength="55" x="291.1484" y="2341.5332">java.util</text><!--MD5=[2d083dca3cab6023baf6a9cac5f9557f]
cluster tictactoe.types--><polygon fill="#FFFFFF" filter="url(#f1khkrsb1t4pum)" points="139.1487,796.5,248.1487,796.5,255.1487,820.1094,263.1484,820.1094,263.1484,896.5,139.1487,896.5,139.1487,796.5" style="stroke: #000000; stroke-width: 1.5;"/><line style="stroke: #000000; stroke-width: 1.5;" x1="139.1487" x2="255.1487" y1="820.1094" y2="820.1094"/><text fill="#000000" font-family="sans-serif" font-size="14" font-weight="bold" lengthAdjust="spacingAndGlyphs" textLength="103" x="143.1487" y="813.0332">tictactoe.types</text><!--MD5=[f2254b5fdbf93effa50eb20dc057829b]
class tictactoe.models.Board--><rect fill="#FEFECE" filter="url(#f1khkrsb1t4pum)" height="283.2109" id="tictactoe.models.Board" style="stroke: #A80036; stroke-width: 1.5;" width="298" x="414.1484" y="1277"/><ellipse cx="542.3984" cy="1293" fill="#ADD1B2" rx="11" ry="11" style="stroke: #A80036; stroke-width: 1.0;"/><path d="M545.164,1288.875 Q545.3203,1288.6563 545.5078,1288.5469 Q545.6953,1288.4375 545.914,1288.4375 Q546.289,1288.4375 546.5234,1288.7031 Q546.7578,1288.9531 546.7578,1289.5625 L546.7578,1291.0156 Q546.7578,1291.625 546.5234,1291.8906 Q546.289,1292.1563 545.914,1292.1563 Q545.5703,1292.1563 545.3672,1291.9531 Q545.164,1291.7656 545.0547,1291.25 Q545.0078,1290.8906 544.8203,1290.7031 Q544.4922,1290.3281 543.8828,1290.1094 Q543.2734,1289.8906 542.6484,1289.8906 Q541.8828,1289.8906 541.2422,1290.2188 Q540.6172,1290.5469 540.1172,1291.2969 Q539.6328,1292.0469 539.6328,1293.0781 L539.6328,1294.1719 Q539.6328,1295.4063 540.5234,1296.2344 Q541.414,1297.0469 543.0078,1297.0469 Q543.9453,1297.0469 544.6015,1296.7969 Q544.9922,1296.6406 545.414,1296.2031 Q545.6797,1295.9375 545.8203,1295.8594 Q545.9765,1295.7813 546.1797,1295.7813 Q546.5078,1295.7813 546.7578,1296.0469 Q547.0234,1296.2969 547.0234,1296.6406 Q547.0234,1296.9844 546.6797,1297.3906 Q546.1797,1297.9688 545.3828,1298.2969 Q544.3047,1298.75 543.0078,1298.75 Q541.4922,1298.75 540.289,1298.125 Q539.3047,1297.625 538.6172,1296.5625 Q537.9297,1295.4844 537.9297,1294.2031 L537.9297,1293.0469 Q537.9297,1291.7188 538.539,1290.5781 Q539.164,1289.4219 540.2578,1288.8125 Q541.3515,1288.1875 542.5859,1288.1875 Q543.3203,1288.1875 543.9609,1288.3594 Q544.6172,1288.5156 545.164,1288.875 Z "/><text fill="#000000" font-family="sans-serif" font-size="12" lengthAdjust="spacingAndGlyphs" textLength="33" x="562.8984" y="1297.9102">Board</text><line style="stroke: #A80036; stroke-width: 1.5;" x1="415.1484" x2="711.1484" y1="1309" y2="1309"/><ellipse cx="425.1484" cy="1320" fill="none" rx="3" ry="3" style="stroke: #038048; stroke-width: 1.0;"/><text fill="#000000" font-family="sans-serif" font-size="11" lengthAdjust="spacingAndGlyphs" text-decoration="underline" textLength="62" x="434.1484" y="1324.4189">EMPTY: char</text><rect fill="none" height="6" style="stroke: #C82930; stroke-width: 1.0;" width="6" x="422.1484" y="1330.8359"/><text fill="#000000" font-family="sans-serif" font-size="11" lengthAdjust="spacingAndGlyphs" textLength="127" x="434.1484" y="1338.2549">coordinates: Coordinate[][]</text><line style="stroke: #A80036; stroke-width: 1.5;" x1="415.1484" x2="711.1484" y1="1344.6719" y2="1344.6719"/><ellipse cx="425.1484" cy="1355.6719" fill="#84BE84" rx="3" ry="3" style="stroke: #038048; stroke-width: 1.0;"/><text fill="#000000" font-family="sans-serif" font-size="11" lengthAdjust="spacingAndGlyphs" textLength="37" x="434.1484" y="1360.0908">Board()</text><ellipse cx="425.1484" cy="1369.5078" fill="#84BE84" rx="3" ry="3" style="stroke: #038048; stroke-width: 1.0;"/><text fill="#000000" font-family="sans-serif" font-size="11" lengthAdjust="spacingAndGlyphs" textLength="101" x="434.1484" y="1373.9268">Board(Coordinate[][])</text><ellipse cx="425.1484" cy="1383.3438" fill="#84BE84" rx="3" ry="3" style="stroke: #038048; stroke-width: 1.0;"/><text fill="#000000" font-family="sans-serif" font-size="11" lengthAdjust="spacingAndGlyphs" textLength="139" x="434.1484" y="1387.7627">getToken(Coordinate): Token</text><polygon fill="#4177AF" points="425.1484,1393.1797,421.1484,1399.1797,429.1484,1399.1797" style="stroke: #1963A0; stroke-width: 1.0;"/><text fill="#000000" font-family="sans-serif" font-size="11" lengthAdjust="spacingAndGlyphs" textLength="170" x="434.1484" y="1401.5986">move(Coordinate, Coordinate): void</text><polygon fill="#4177AF" points="425.1484,1407.0156,421.1484,1413.0156,429.1484,1413.0156" style="stroke: #1963A0; stroke-width: 1.0;"/><text fill="#000000" font-family="sans-serif" font-size="11" lengthAdjust="spacingAndGlyphs" textLength="136" x="434.1484" y="1415.4346">put(Coordinate, Token): void</text><rect fill="#F24D5C" height="6" style="stroke: #C82930; stroke-width: 1.0;" width="6" x="422.1484" y="1421.8516"/><text fill="#000000" font-family="sans-serif" font-size="11" lengthAdjust="spacingAndGlyphs" textLength="122" x="434.1484" y="1429.2705">remove(Coordinate): void</text><polygon fill="#4177AF" points="425.1484,1434.6875,421.1484,1440.6875,429.1484,1440.6875" style="stroke: #1963A0; stroke-width: 1.0;"/><text fill="#000000" font-family="sans-serif" font-size="11" lengthAdjust="spacingAndGlyphs" textLength="139" x="434.1484" y="1443.1064">isTicTacToe(Token): boolean</text><rect fill="#F24D5C" height="6" style="stroke: #C82930; stroke-width: 1.0;" width="6" x="422.1484" y="1449.5234"/><text fill="#000000" font-family="sans-serif" font-size="11" lengthAdjust="spacingAndGlyphs" textLength="189" x="434.1484" y="1456.9424">numberOfCoordinates(Coordinate[]): int</text><polygon fill="#4177AF" points="425.1484,1462.3594,421.1484,1468.3594,429.1484,1468.3594" style="stroke: #1963A0; stroke-width: 1.0;"/><text fill="#000000" font-family="sans-serif" font-size="11" lengthAdjust="spacingAndGlyphs" textLength="110" x="434.1484" y="1470.7783">isCompleted(): boolean</text><ellipse cx="425.1484" cy="1480.1953" fill="#84BE84" rx="3" ry="3" style="stroke: #038048; stroke-width: 1.0;"/><text fill="#000000" font-family="sans-serif" font-size="11" lengthAdjust="spacingAndGlyphs" textLength="141" x="434.1484" y="1484.6143">isEmpty(Coordinate): boolean</text><polygon fill="#4177AF" points="425.1484,1490.0313,421.1484,1496.0313,429.1484,1496.0313" style="stroke: #1963A0; stroke-width: 1.0;"/><text fill="#000000" font-family="sans-serif" font-size="11" lengthAdjust="spacingAndGlyphs" textLength="193" x="434.1484" y="1498.4502">isOccupied(Coordinate, Token): boolean</text><rect fill="#F24D5C" height="6" style="stroke: #C82930; stroke-width: 1.0;" width="6" x="422.1484" y="1504.8672"/><text fill="#000000" font-family="sans-serif" font-size="11" lengthAdjust="spacingAndGlyphs" textLength="246" x="434.1484" y="1512.2861">checkNumberOfCoordinates(Coordinate[]): boolean</text><rect fill="#F24D5C" height="6" style="stroke: #C82930; stroke-width: 1.0;" width="6" x="422.1484" y="1518.7031"/><text fill="#000000" font-family="sans-serif" font-size="11" lengthAdjust="spacingAndGlyphs" textLength="272" x="434.1484" y="1526.1221">checkDirectionOfFirstCoordinates(Coordinate[]): boolean</text><rect fill="#F24D5C" height="6" style="stroke: #C82930; stroke-width: 1.0;" width="6" x="422.1484" y="1532.5391"/><text fill="#000000" font-family="sans-serif" font-size="11" lengthAdjust="spacingAndGlyphs" textLength="263" x="434.1484" y="1539.958">checkDirectionOfAllCoordinates(Coordinate[]): boolean</text><polygon fill="#4177AF" points="425.1484,1545.375,421.1484,1551.375,429.1484,1551.375" style="stroke: #1963A0; stroke-width: 1.0;"/><text fill="#000000" font-family="sans-serif" font-size="11" lengthAdjust="spacingAndGlyphs" textLength="67" x="434.1484" y="1553.7939">copy(): Board</text><!--MD5=[55d70ecb9e3ba4786ec1f15d0b7dce13]
class tictactoe.models.Coordinate--><rect fill="#FEFECE" filter="url(#f1khkrsb1t4pum)" height="158.6875" id="tictactoe.models.Coordinate" style="stroke: #A80036; stroke-width: 1.5;" width="191" x="557.6484" y="2126"/><ellipse cx="618.3984" cy="2142" fill="#ADD1B2" rx="11" ry="11" style="stroke: #A80036; stroke-width: 1.0;"/><path d="M621.164,2137.875 Q621.3203,2137.6563 621.5078,2137.5469 Q621.6953,2137.4375 621.914,2137.4375 Q622.289,2137.4375 622.5234,2137.7031 Q622.7578,2137.9531 622.7578,2138.5625 L622.7578,2140.0156 Q622.7578,2140.625 622.5234,2140.8906 Q622.289,2141.1563 621.914,2141.1563 Q621.5703,2141.1563 621.3672,2140.9531 Q621.164,2140.7656 621.0547,2140.25 Q621.0078,2139.8906 620.8203,2139.7031 Q620.4922,2139.3281 619.8828,2139.1094 Q619.2734,2138.8906 618.6484,2138.8906 Q617.8828,2138.8906 617.2422,2139.2188 Q616.6172,2139.5469 616.1172,2140.2969 Q615.6328,2141.0469 615.6328,2142.0781 L615.6328,2143.1719 Q615.6328,2144.4063 616.5234,2145.2344 Q617.414,2146.0469 619.0078,2146.0469 Q619.9453,2146.0469 620.6015,2145.7969 Q620.9922,2145.6406 621.414,2145.2031 Q621.6797,2144.9375 621.8203,2144.8594 Q621.9765,2144.7813 622.1797,2144.7813 Q622.5078,2144.7813 622.7578,2145.0469 Q623.0234,2145.2969 623.0234,2145.6406 Q623.0234,2145.9844 622.6797,2146.3906 Q622.1797,2146.9688 621.3828,2147.2969 Q620.3047,2147.75 619.0078,2147.75 Q617.4922,2147.75 616.289,2147.125 Q615.3047,2146.625 614.6172,2145.5625 Q613.9297,2144.4844 613.9297,2143.2031 L613.9297,2142.0469 Q613.9297,2140.7188 614.539,2139.5781 Q615.164,2138.4219 616.2578,2137.8125 Q617.3515,2137.1875 618.5859,2137.1875 Q619.3203,2137.1875 619.9609,2137.3594 Q620.6172,2137.5156 621.164,2137.875 Z "/><text fill="#000000" font-family="sans-serif" font-size="12" lengthAdjust="spacingAndGlyphs" textLength="61" x="638.8984" y="2146.9102">Coordinate</text><line style="stroke: #A80036; stroke-width: 1.5;" x1="558.6484" x2="747.6484" y1="2158" y2="2158"/><ellipse cx="568.6484" cy="2169" fill="none" rx="3" ry="3" style="stroke: #038048; stroke-width: 1.0;"/><text fill="#000000" font-family="sans-serif" font-size="11" lengthAdjust="spacingAndGlyphs" text-decoration="underline" textLength="82" x="577.6484" y="2173.4189">DIMENSION: char</text><line style="stroke: #A80036; stroke-width: 1.5;" x1="558.6484" x2="747.6484" y1="2179.8359" y2="2179.8359"/><ellipse cx="568.6484" cy="2190.8359" fill="#84BE84" rx="3" ry="3" style="stroke: #038048; stroke-width: 1.0;"/><text fill="#000000" font-family="sans-serif" font-size="11" lengthAdjust="spacingAndGlyphs" textLength="60" x="577.6484" y="2195.2549">Coordinate()</text><ellipse cx="568.6484" cy="2204.6719" fill="#84BE84" rx="3" ry="3" style="stroke: #038048; stroke-width: 1.0;"/><text fill="#000000" font-family="sans-serif" font-size="11" lengthAdjust="spacingAndGlyphs" textLength="88" x="577.6484" y="2209.0908">Coordinate(int, int)</text><polygon fill="#4177AF" points="568.6484,2214.5078,564.6484,2220.5078,572.6484,2220.5078" style="stroke: #1963A0; stroke-width: 1.0;"/><text fill="#000000" font-family="sans-serif" font-size="11" lengthAdjust="spacingAndGlyphs" textLength="154" x="577.6484" y="2222.9268">inDirection(Coordinate): boolean</text><polygon fill="#4177AF" points="568.6484,2228.3438,564.6484,2234.3438,572.6484,2234.3438" style="stroke: #1963A0; stroke-width: 1.0;"/><text fill="#000000" font-family="sans-serif" font-size="11" lengthAdjust="spacingAndGlyphs" textLength="165" x="577.6484" y="2236.7627">getDirection(Coordinate): Direction</text><rect fill="#F24D5C" height="6" style="stroke: #C82930; stroke-width: 1.0;" width="6" x="565.6484" y="2243.1797"/><text fill="#000000" font-family="sans-serif" font-size="11" lengthAdjust="spacingAndGlyphs" textLength="137" x="577.6484" y="2250.5986">inInverseDiagonal(): boolean</text><ellipse cx="568.6484" cy="2260.0156" fill="#84BE84" rx="3" ry="3" style="stroke: #038048; stroke-width: 1.0;"/><text fill="#000000" font-family="sans-serif" font-size="11" lengthAdjust="spacingAndGlyphs" textLength="84" x="577.6484" y="2264.4346">isValid(): boolean</text><ellipse cx="568.6484" cy="2273.8516" fill="#84BE84" rx="3" ry="3" style="stroke: #038048; stroke-width: 1.0;"/><text fill="#000000" font-family="sans-serif" font-size="11" lengthAdjust="spacingAndGlyphs" textLength="70" x="577.6484" y="2278.2705">random(): void</text><!--MD5=[b42b9147ed7462532394f7fe6f96703d]
class tictactoe.models.Turn--><rect fill="#FEFECE" filter="url(#f1khkrsb1t4pum)" height="186.3594" id="tictactoe.models.Turn" style="stroke: #A80036; stroke-width: 1.5;" width="142" x="352.1484" y="1620"/><ellipse cx="406.3984" cy="1636" fill="#ADD1B2" rx="11" ry="11" style="stroke: #A80036; stroke-width: 1.0;"/><path d="M409.164,1631.875 Q409.3203,1631.6563 409.5078,1631.5469 Q409.6953,1631.4375 409.914,1631.4375 Q410.289,1631.4375 410.5234,1631.7031 Q410.7578,1631.9531 410.7578,1632.5625 L410.7578,1634.0156 Q410.7578,1634.625 410.5234,1634.8906 Q410.289,1635.1563 409.914,1635.1563 Q409.5703,1635.1563 409.3672,1634.9531 Q409.164,1634.7656 409.0547,1634.25 Q409.0078,1633.8906 408.8203,1633.7031 Q408.4922,1633.3281 407.8828,1633.1094 Q407.2734,1632.8906 406.6484,1632.8906 Q405.8828,1632.8906 405.2422,1633.2188 Q404.6172,1633.5469 404.1172,1634.2969 Q403.6328,1635.0469 403.6328,1636.0781 L403.6328,1637.1719 Q403.6328,1638.4063 404.5234,1639.2344 Q405.414,1640.0469 407.0078,1640.0469 Q407.9453,1640.0469 408.6015,1639.7969 Q408.9922,1639.6406 409.414,1639.2031 Q409.6797,1638.9375 409.8203,1638.8594 Q409.9765,1638.7813 410.1797,1638.7813 Q410.5078,1638.7813 410.7578,1639.0469 Q411.0234,1639.2969 411.0234,1639.6406 Q411.0234,1639.9844 410.6797,1640.3906 Q410.1797,1640.9688 409.3828,1641.2969 Q408.3047,1641.75 407.0078,1641.75 Q405.4922,1641.75 404.289,1641.125 Q403.3047,1640.625 402.6172,1639.5625 Q401.9297,1638.4844 401.9297,1637.2031 L401.9297,1636.0469 Q401.9297,1634.7188 402.539,1633.5781 Q403.164,1632.4219 404.2578,1631.8125 Q405.3515,1631.1875 406.5859,1631.1875 Q407.3203,1631.1875 407.9609,1631.3594 Q408.6172,1631.5156 409.164,1631.875 Z "/><text fill="#000000" font-family="sans-serif" font-size="12" lengthAdjust="spacingAndGlyphs" textLength="25" x="426.8984" y="1640.9102">Turn</text><line style="stroke: #A80036; stroke-width: 1.5;" x1="353.1484" x2="493.1484" y1="1652" y2="1652"/><ellipse cx="363.1484" cy="1663" fill="none" rx="3" ry="3" style="stroke: #038048; stroke-width: 1.0;"/><text fill="#000000" font-family="sans-serif" font-size="11" lengthAdjust="spacingAndGlyphs" text-decoration="underline" textLength="65" x="372.1484" y="1667.4189">PLAYERS: int</text><rect fill="none" height="6" style="stroke: #C82930; stroke-width: 1.0;" width="6" x="360.1484" y="1673.8359"/><text fill="#000000" font-family="sans-serif" font-size="11" lengthAdjust="spacingAndGlyphs" textLength="43" x="372.1484" y="1681.2549">value: int</text><rect fill="none" height="6" style="stroke: #C82930; stroke-width: 1.0;" width="6" x="360.1484" y="1687.6719"/><text fill="#000000" font-family="sans-serif" font-size="11" lengthAdjust="spacingAndGlyphs" textLength="78" x="372.1484" y="1695.0908">players: Player[]</text><line style="stroke: #A80036; stroke-width: 1.5;" x1="353.1484" x2="493.1484" y1="1701.5078" y2="1701.5078"/><ellipse cx="363.1484" cy="1712.5078" fill="#84BE84" rx="3" ry="3" style="stroke: #038048; stroke-width: 1.0;"/><text fill="#000000" font-family="sans-serif" font-size="11" lengthAdjust="spacingAndGlyphs" textLength="66" x="372.1484" y="1716.9268">Turn(Player[])</text><ellipse cx="363.1484" cy="1726.3438" fill="#84BE84" rx="3" ry="3" style="stroke: #038048; stroke-width: 1.0;"/><text fill="#000000" font-family="sans-serif" font-size="11" lengthAdjust="spacingAndGlyphs" textLength="83" x="372.1484" y="1730.7627">Turn(Player[], int)</text><polygon fill="#4177AF" points="363.1484,1736.1797,359.1484,1742.1797,367.1484,1742.1797" style="stroke: #1963A0; stroke-width: 1.0;"/><text fill="#000000" font-family="sans-serif" font-size="11" lengthAdjust="spacingAndGlyphs" textLength="70" x="372.1484" y="1744.5986">change(): void</text><polygon fill="#4177AF" points="363.1484,1750.0156,359.1484,1756.0156,367.1484,1756.0156" style="stroke: #1963A0; stroke-width: 1.0;"/><text fill="#000000" font-family="sans-serif" font-size="11" lengthAdjust="spacingAndGlyphs" textLength="89" x="372.1484" y="1758.4346">getPlayer(): Player</text><polygon fill="#4177AF" points="363.1484,1763.8516,359.1484,1769.8516,367.1484,1769.8516" style="stroke: #1963A0; stroke-width: 1.0;"/><text fill="#000000" font-family="sans-serif" font-size="11" lengthAdjust="spacingAndGlyphs" textLength="95" x="372.1484" y="1772.2705">getOtherValue(): int</text><polygon fill="#4177AF" points="363.1484,1777.6875,359.1484,1783.6875,367.1484,1783.6875" style="stroke: #1963A0; stroke-width: 1.0;"/><text fill="#000000" font-family="sans-serif" font-size="11" lengthAdjust="spacingAndGlyphs" textLength="116" x="372.1484" y="1786.1064">getOtherPlayer(): Player</text><polygon fill="#4177AF" points="363.1484,1791.5234,359.1484,1797.5234,367.1484,1797.5234" style="stroke: #1963A0; stroke-width: 1.0;"/><text fill="#000000" font-family="sans-serif" font-size="11" lengthAdjust="spacingAndGlyphs" textLength="96" x="372.1484" y="1799.9424">copy(Player[]): Turn</text><!--MD5=[8d3188f3c370ea7d5d91d12bca83b67a]
class tictactoe.models.Game--><rect fill="#FEFECE" filter="url(#f1khkrsb1t4pum)" height="310.8828" id="tictactoe.models.Game" style="stroke: #A80036; stroke-width: 1.5;" width="328" x="421.1484" y="701"/><ellipse cx="563.8984" cy="717" fill="#ADD1B2" rx="11" ry="11" style="stroke: #A80036; stroke-width: 1.0;"/><path d="M566.664,712.875 Q566.8203,712.6563 567.0078,712.5469 Q567.1953,712.4375 567.414,712.4375 Q567.789,712.4375 568.0234,712.7031 Q568.2578,712.9531 568.2578,713.5625 L568.2578,715.0156 Q568.2578,715.625 568.0234,715.8906 Q567.789,716.1563 567.414,716.1563 Q567.0703,716.1563 566.8672,715.9531 Q566.664,715.7656 566.5547,715.25 Q566.5078,714.8906 566.3203,714.7031 Q565.9922,714.3281 565.3828,714.1094 Q564.7734,713.8906 564.1484,713.8906 Q563.3828,713.8906 562.7422,714.2188 Q562.1172,714.5469 561.6172,715.2969 Q561.1328,716.0469 561.1328,717.0781 L561.1328,718.1719 Q561.1328,719.4063 562.0234,720.2344 Q562.914,721.0469 564.5078,721.0469 Q565.4453,721.0469 566.1015,720.7969 Q566.4922,720.6406 566.914,720.2031 Q567.1797,719.9375 567.3203,719.8594 Q567.4765,719.7813 567.6797,719.7813 Q568.0078,719.7813 568.2578,720.0469 Q568.5234,720.2969 568.5234,720.6406 Q568.5234,720.9844 568.1797,721.3906 Q567.6797,721.9688 566.8828,722.2969 Q565.8047,722.75 564.5078,722.75 Q562.9922,722.75 561.789,722.125 Q560.8047,721.625 560.1172,720.5625 Q559.4297,719.4844 559.4297,718.2031 L559.4297,717.0469 Q559.4297,715.7188 560.039,714.5781 Q560.664,713.4219 561.7578,712.8125 Q562.8515,712.1875 564.0859,712.1875 Q564.8203,712.1875 565.4609,712.3594 Q566.1172,712.5156 566.664,712.875 Z "/><text fill="#000000" font-family="sans-serif" font-size="12" lengthAdjust="spacingAndGlyphs" textLength="34" x="584.3984" y="721.9102">Game</text><line style="stroke: #A80036; stroke-width: 1.5;" x1="422.1484" x2="748.1484" y1="733" y2="733"/><rect fill="none" height="6" style="stroke: #C82930; stroke-width: 1.0;" width="6" x="429.1484" y="741"/><text fill="#000000" font-family="sans-serif" font-size="11" lengthAdjust="spacingAndGlyphs" textLength="63" x="441.1484" y="748.4189">board: Board</text><rect fill="none" height="6" style="stroke: #C82930; stroke-width: 1.0;" width="6" x="429.1484" y="754.8359"/><text fill="#000000" font-family="sans-serif" font-size="11" lengthAdjust="spacingAndGlyphs" textLength="84" x="441.1484" y="762.2549">players: Player[][]</text><rect fill="none" height="6" style="stroke: #C82930; stroke-width: 1.0;" width="6" x="429.1484" y="768.6719"/><text fill="#000000" font-family="sans-serif" font-size="11" lengthAdjust="spacingAndGlyphs" textLength="47" x="441.1484" y="776.0908">turn: Turn</text><line style="stroke: #A80036; stroke-width: 1.5;" x1="422.1484" x2="748.1484" y1="782.5078" y2="782.5078"/><ellipse cx="432.1484" cy="793.5078" fill="#84BE84" rx="3" ry="3" style="stroke: #038048; stroke-width: 1.0;"/><text fill="#000000" font-family="sans-serif" font-size="11" lengthAdjust="spacingAndGlyphs" textLength="36" x="441.1484" y="797.9268">Game()</text><ellipse cx="432.1484" cy="807.3438" fill="#84BE84" rx="3" ry="3" style="stroke: #038048; stroke-width: 1.0;"/><text fill="#000000" font-family="sans-serif" font-size="11" lengthAdjust="spacingAndGlyphs" textLength="112" x="441.1484" y="811.7627">createPlayers(int): void</text><polygon fill="#4177AF" points="432.1484,817.1797,428.1484,823.1797,436.1484,823.1797" style="stroke: #1963A0; stroke-width: 1.0;"/><text fill="#000000" font-family="sans-serif" font-size="11" lengthAdjust="spacingAndGlyphs" textLength="131" x="441.1484" y="825.5986">createMemento(): Memento</text><polygon fill="#4177AF" points="432.1484,831.0156,428.1484,837.0156,436.1484,837.0156" style="stroke: #1963A0; stroke-width: 1.0;"/><text fill="#000000" font-family="sans-serif" font-size="11" lengthAdjust="spacingAndGlyphs" textLength="92" x="441.1484" y="839.4346">set(Memento): void</text><rect fill="#F24D5C" height="6" style="stroke: #C82930; stroke-width: 1.0;" width="6" x="429.1484" y="845.8516"/><text fill="#000000" font-family="sans-serif" font-size="11" lengthAdjust="spacingAndGlyphs" textLength="225" x="441.1484" y="853.2705">createCopyOfPlayers(Player[], Board): Player[]</text><ellipse cx="432.1484" cy="862.6875" fill="#84BE84" rx="3" ry="3" style="stroke: #038048; stroke-width: 1.0;"/><text fill="#000000" font-family="sans-serif" font-size="11" lengthAdjust="spacingAndGlyphs" textLength="133" x="441.1484" y="867.1064">isBoardComplete(): boolean</text><ellipse cx="432.1484" cy="876.5234" fill="#84BE84" rx="3" ry="3" style="stroke: #038048; stroke-width: 1.0;"/><text fill="#000000" font-family="sans-serif" font-size="11" lengthAdjust="spacingAndGlyphs" textLength="206" x="441.1484" y="880.9424">putTokenPlayerFromTurn(Coordinate): void</text><ellipse cx="432.1484" cy="890.3594" fill="#84BE84" rx="3" ry="3" style="stroke: #038048; stroke-width: 1.0;"/><text fill="#000000" font-family="sans-serif" font-size="11" lengthAdjust="spacingAndGlyphs" textLength="223" x="441.1484" y="894.7783">moveTokenPlayerFromTurn(Coordinate[]): void</text><ellipse cx="432.1484" cy="904.1953" fill="#84BE84" rx="3" ry="3" style="stroke: #038048; stroke-width: 1.0;"/><text fill="#000000" font-family="sans-serif" font-size="11" lengthAdjust="spacingAndGlyphs" textLength="224" x="441.1484" y="908.6143">getTypeOfTokenPlayerFromTurn(): PlayerType</text><ellipse cx="432.1484" cy="918.0313" fill="#84BE84" rx="3" ry="3" style="stroke: #038048; stroke-width: 1.0;"/><text fill="#000000" font-family="sans-serif" font-size="11" lengthAdjust="spacingAndGlyphs" textLength="202" x="441.1484" y="922.4502">getErrorsPutCoordinate(Coordinate): Error</text><ellipse cx="432.1484" cy="931.8672" fill="#84BE84" rx="3" ry="3" style="stroke: #038048; stroke-width: 1.0;"/><text fill="#000000" font-family="sans-serif" font-size="11" lengthAdjust="spacingAndGlyphs" textLength="241" x="441.1484" y="936.2861">getErrorsMoveOriginCoordinate(Coordinate): Error</text><ellipse cx="432.1484" cy="945.7031" fill="#84BE84" rx="3" ry="3" style="stroke: #038048; stroke-width: 1.0;"/><text fill="#000000" font-family="sans-serif" font-size="11" lengthAdjust="spacingAndGlyphs" textLength="302" x="441.1484" y="950.1221">getErrorsMoveTargetCoordinate(Coordinate, Coordinate): Error</text><ellipse cx="432.1484" cy="959.5391" fill="#84BE84" rx="3" ry="3" style="stroke: #038048; stroke-width: 1.0;"/><text fill="#000000" font-family="sans-serif" font-size="11" lengthAdjust="spacingAndGlyphs" textLength="115" x="441.1484" y="963.958">getToken(int, int): Token</text><ellipse cx="432.1484" cy="973.375" fill="#84BE84" rx="3" ry="3" style="stroke: #038048; stroke-width: 1.0;"/><text fill="#000000" font-family="sans-serif" font-size="11" lengthAdjust="spacingAndGlyphs" textLength="92" x="441.1484" y="977.7939">changeTurn(): void</text><ellipse cx="432.1484" cy="987.2109" fill="#84BE84" rx="3" ry="3" style="stroke: #038048; stroke-width: 1.0;"/><text fill="#000000" font-family="sans-serif" font-size="11" lengthAdjust="spacingAndGlyphs" textLength="110" x="441.1484" y="991.6299">isTicTacToe(): boolean</text><ellipse cx="432.1484" cy="1001.0469" fill="#84BE84" rx="3" ry="3" style="stroke: #038048; stroke-width: 1.0;"/><text fill="#000000" font-family="sans-serif" font-size="11" lengthAdjust="spacingAndGlyphs" textLength="141" x="441.1484" y="1005.4658">getOtherValueFromTurn(): int</text><!--MD5=[3b54484399e9c5d8797124604fd4af65]
class tictactoe.models.Player--><rect fill="#FEFECE" filter="url(#f1khkrsb1t4pum)" height="200.1953" id="tictactoe.models.Player" style="stroke: #A80036; stroke-width: 1.5;" width="328" x="303.1484" y="1866"/><ellipse cx="445.8984" cy="1882" fill="#ADD1B2" rx="11" ry="11" style="stroke: #A80036; stroke-width: 1.0;"/><path d="M448.664,1877.875 Q448.8203,1877.6563 449.0078,1877.5469 Q449.1953,1877.4375 449.414,1877.4375 Q449.789,1877.4375 450.0234,1877.7031 Q450.2578,1877.9531 450.2578,1878.5625 L450.2578,1880.0156 Q450.2578,1880.625 450.0234,1880.8906 Q449.789,1881.1563 449.414,1881.1563 Q449.0703,1881.1563 448.8672,1880.9531 Q448.664,1880.7656 448.5547,1880.25 Q448.5078,1879.8906 448.3203,1879.7031 Q447.9922,1879.3281 447.3828,1879.1094 Q446.7734,1878.8906 446.1484,1878.8906 Q445.3828,1878.8906 444.7422,1879.2188 Q444.1172,1879.5469 443.6172,1880.2969 Q443.1328,1881.0469 443.1328,1882.0781 L443.1328,1883.1719 Q443.1328,1884.4063 444.0234,1885.2344 Q444.914,1886.0469 446.5078,1886.0469 Q447.4453,1886.0469 448.1015,1885.7969 Q448.4922,1885.6406 448.914,1885.2031 Q449.1797,1884.9375 449.3203,1884.8594 Q449.4765,1884.7813 449.6797,1884.7813 Q450.0078,1884.7813 450.2578,1885.0469 Q450.5234,1885.2969 450.5234,1885.6406 Q450.5234,1885.9844 450.1797,1886.3906 Q449.6797,1886.9688 448.8828,1887.2969 Q447.8047,1887.75 446.5078,1887.75 Q444.9922,1887.75 443.789,1887.125 Q442.8047,1886.625 442.1172,1885.5625 Q441.4297,1884.4844 441.4297,1883.2031 L441.4297,1882.0469 Q441.4297,1880.7188 442.039,1879.5781 Q442.664,1878.4219 443.7578,1877.8125 Q444.8515,1877.1875 446.0859,1877.1875 Q446.8203,1877.1875 447.4609,1877.3594 Q448.1172,1877.5156 448.664,1877.875 Z "/><text fill="#000000" font-family="sans-serif" font-size="12" lengthAdjust="spacingAndGlyphs" textLength="34" x="466.3984" y="1886.9102">Player</text><line style="stroke: #A80036; stroke-width: 1.5;" x1="304.1484" x2="630.1484" y1="1898" y2="1898"/><rect fill="none" height="6" style="stroke: #C82930; stroke-width: 1.0;" width="6" x="311.1484" y="1906"/><text fill="#000000" font-family="sans-serif" font-size="11" lengthAdjust="spacingAndGlyphs" textLength="61" x="323.1484" y="1913.4189">token: Token</text><rect fill="none" height="6" style="stroke: #C82930; stroke-width: 1.0;" width="6" x="311.1484" y="1919.8359"/><text fill="#000000" font-family="sans-serif" font-size="11" lengthAdjust="spacingAndGlyphs" textLength="63" x="323.1484" y="1927.2549">board: Board</text><rect fill="none" height="6" style="stroke: #C82930; stroke-width: 1.0;" width="6" x="311.1484" y="1933.6719"/><text fill="#000000" font-family="sans-serif" font-size="11" lengthAdjust="spacingAndGlyphs" textLength="81" x="323.1484" y="1941.0908">type: PlayerType</text><line style="stroke: #A80036; stroke-width: 1.5;" x1="304.1484" x2="630.1484" y1="1947.5078" y2="1947.5078"/><ellipse cx="314.1484" cy="1958.5078" fill="#84BE84" rx="3" ry="3" style="stroke: #038048; stroke-width: 1.0;"/><text fill="#000000" font-family="sans-serif" font-size="11" lengthAdjust="spacingAndGlyphs" textLength="162" x="323.1484" y="1962.9268">Player(Token, Board, PlayerType)</text><ellipse cx="314.1484" cy="1972.3438" fill="#84BE84" rx="3" ry="3" style="stroke: #038048; stroke-width: 1.0;"/><text fill="#000000" font-family="sans-serif" font-size="11" lengthAdjust="spacingAndGlyphs" textLength="107" x="323.1484" y="1976.7627">getType(): PlayerType</text><polygon fill="#4177AF" points="314.1484,1982.1797,310.1484,1988.1797,318.1484,1988.1797" style="stroke: #1963A0; stroke-width: 1.0;"/><text fill="#000000" font-family="sans-serif" font-size="11" lengthAdjust="spacingAndGlyphs" textLength="87" x="323.1484" y="1990.5986">getToken(): Token</text><polygon fill="#4177AF" points="314.1484,1996.0156,310.1484,2002.0156,318.1484,2002.0156" style="stroke: #1963A0; stroke-width: 1.0;"/><text fill="#000000" font-family="sans-serif" font-size="11" lengthAdjust="spacingAndGlyphs" textLength="101" x="323.1484" y="2004.4346">put(Coordinate): void</text><polygon fill="#4177AF" points="314.1484,2009.8516,310.1484,2015.8516,318.1484,2015.8516" style="stroke: #1963A0; stroke-width: 1.0;"/><text fill="#000000" font-family="sans-serif" font-size="11" lengthAdjust="spacingAndGlyphs" textLength="118" x="323.1484" y="2018.2705">move(Coordinate[]): void</text><ellipse cx="314.1484" cy="2027.6875" fill="#84BE84" rx="3" ry="3" style="stroke: #038048; stroke-width: 1.0;"/><text fill="#000000" font-family="sans-serif" font-size="11" lengthAdjust="spacingAndGlyphs" textLength="202" x="323.1484" y="2032.1064">getErrorsPutCoordinate(Coordinate): Error</text><ellipse cx="314.1484" cy="2041.5234" fill="#84BE84" rx="3" ry="3" style="stroke: #038048; stroke-width: 1.0;"/><text fill="#000000" font-family="sans-serif" font-size="11" lengthAdjust="spacingAndGlyphs" textLength="241" x="323.1484" y="2045.9424">getErrorsMoveOriginCoordinate(Coordinate): Error</text><ellipse cx="314.1484" cy="2055.3594" fill="#84BE84" rx="3" ry="3" style="stroke: #038048; stroke-width: 1.0;"/><text fill="#000000" font-family="sans-serif" font-size="11" lengthAdjust="spacingAndGlyphs" textLength="302" x="323.1484" y="2059.7783">getErrorsMoveTargetCoordinate(Coordinate, Coordinate): Error</text><!--MD5=[e3e7462999bb53e8f1f807d9bd18d9da]
class tictactoe.models.Memento--><rect fill="#FEFECE" filter="url(#f1khkrsb1t4pum)" height="144.8516" id="tictactoe.models.Memento" style="stroke: #A80036; stroke-width: 1.5;" width="176" x="303.1484" y="1072"/><ellipse cx="361.3984" cy="1088" fill="#ADD1B2" rx="11" ry="11" style="stroke: #A80036; stroke-width: 1.0;"/><path d="M364.164,1083.875 Q364.3203,1083.6563 364.5078,1083.5469 Q364.6953,1083.4375 364.914,1083.4375 Q365.289,1083.4375 365.5234,1083.7031 Q365.7578,1083.9531 365.7578,1084.5625 L365.7578,1086.0156 Q365.7578,1086.625 365.5234,1086.8906 Q365.289,1087.1563 364.914,1087.1563 Q364.5703,1087.1563 364.3672,1086.9531 Q364.164,1086.7656 364.0547,1086.25 Q364.0078,1085.8906 363.8203,1085.7031 Q363.4922,1085.3281 362.8828,1085.1094 Q362.2734,1084.8906 361.6484,1084.8906 Q360.8828,1084.8906 360.2422,1085.2188 Q359.6172,1085.5469 359.1172,1086.2969 Q358.6328,1087.0469 358.6328,1088.0781 L358.6328,1089.1719 Q358.6328,1090.4063 359.5234,1091.2344 Q360.414,1092.0469 362.0078,1092.0469 Q362.9453,1092.0469 363.6015,1091.7969 Q363.9922,1091.6406 364.414,1091.2031 Q364.6797,1090.9375 364.8203,1090.8594 Q364.9765,1090.7813 365.1797,1090.7813 Q365.5078,1090.7813 365.7578,1091.0469 Q366.0234,1091.2969 366.0234,1091.6406 Q366.0234,1091.9844 365.6797,1092.3906 Q365.1797,1092.9688 364.3828,1093.2969 Q363.3047,1093.75 362.0078,1093.75 Q360.4922,1093.75 359.289,1093.125 Q358.3047,1092.625 357.6172,1091.5625 Q356.9297,1090.4844 356.9297,1089.2031 L356.9297,1088.0469 Q356.9297,1086.7188 357.539,1085.5781 Q358.164,1084.4219 359.2578,1083.8125 Q360.3515,1083.1875 361.5859,1083.1875 Q362.3203,1083.1875 362.9609,1083.3594 Q363.6172,1083.5156 364.164,1083.875 Z "/><text fill="#000000" font-family="sans-serif" font-size="12" lengthAdjust="spacingAndGlyphs" textLength="51" x="381.8984" y="1092.9102">Memento</text><line style="stroke: #A80036; stroke-width: 1.5;" x1="304.1484" x2="478.1484" y1="1104" y2="1104"/><rect fill="none" height="6" style="stroke: #C82930; stroke-width: 1.0;" width="6" x="311.1484" y="1112"/><text fill="#000000" font-family="sans-serif" font-size="11" lengthAdjust="spacingAndGlyphs" textLength="63" x="323.1484" y="1119.4189">board: Board</text><rect fill="none" height="6" style="stroke: #C82930; stroke-width: 1.0;" width="6" x="311.1484" y="1125.8359"/><text fill="#000000" font-family="sans-serif" font-size="11" lengthAdjust="spacingAndGlyphs" textLength="84" x="323.1484" y="1133.2549">players: Player[][]</text><rect fill="none" height="6" style="stroke: #C82930; stroke-width: 1.0;" width="6" x="311.1484" y="1139.6719"/><text fill="#000000" font-family="sans-serif" font-size="11" lengthAdjust="spacingAndGlyphs" textLength="47" x="323.1484" y="1147.0908">turn: Turn</text><line style="stroke: #A80036; stroke-width: 1.5;" x1="304.1484" x2="478.1484" y1="1153.5078" y2="1153.5078"/><ellipse cx="314.1484" cy="1164.5078" fill="#84BE84" rx="3" ry="3" style="stroke: #038048; stroke-width: 1.0;"/><text fill="#000000" font-family="sans-serif" font-size="11" lengthAdjust="spacingAndGlyphs" textLength="150" x="323.1484" y="1168.9268">Memento(Board, Player[], Turn)</text><ellipse cx="314.1484" cy="1178.3438" fill="#84BE84" rx="3" ry="3" style="stroke: #038048; stroke-width: 1.0;"/><text fill="#000000" font-family="sans-serif" font-size="11" lengthAdjust="spacingAndGlyphs" textLength="87" x="323.1484" y="1182.7627">getBoard(): Board</text><polygon fill="#4177AF" points="314.1484,1188.1797,310.1484,1194.1797,318.1484,1194.1797" style="stroke: #1963A0; stroke-width: 1.0;"/><text fill="#000000" font-family="sans-serif" font-size="11" lengthAdjust="spacingAndGlyphs" textLength="101" x="323.1484" y="1196.5986">getPlayers(): Player[]</text><polygon fill="#4177AF" points="314.1484,1202.0156,310.1484,1208.0156,318.1484,1208.0156" style="stroke: #1963A0; stroke-width: 1.0;"/><text fill="#000000" font-family="sans-serif" font-size="11" lengthAdjust="spacingAndGlyphs" textLength="73" x="323.1484" y="1210.4346">getTurn(): Turn</text><!--MD5=[2b14e0e96db7f5316a979ffb128b98ab]
class tictactoe.models.Registry--><rect fill="#FEFECE" filter="url(#f1khkrsb1t4pum)" height="172.5234" id="tictactoe.models.Registry" style="stroke: #A80036; stroke-width: 1.5;" width="192" x="500.1484" y="468"/><ellipse cx="569.3984" cy="484" fill="#ADD1B2" rx="11" ry="11" style="stroke: #A80036; stroke-width: 1.0;"/><path d="M572.164,479.875 Q572.3203,479.6563 572.5078,479.5469 Q572.6953,479.4375 572.914,479.4375 Q573.289,479.4375 573.5234,479.7031 Q573.7578,479.9531 573.7578,480.5625 L573.7578,482.0156 Q573.7578,482.625 573.5234,482.8906 Q573.289,483.1563 572.914,483.1563 Q572.5703,483.1563 572.3672,482.9531 Q572.164,482.7656 572.0547,482.25 Q572.0078,481.8906 571.8203,481.7031 Q571.4922,481.3281 570.8828,481.1094 Q570.2734,480.8906 569.6484,480.8906 Q568.8828,480.8906 568.2422,481.2188 Q567.6172,481.5469 567.1172,482.2969 Q566.6328,483.0469 566.6328,484.0781 L566.6328,485.1719 Q566.6328,486.4063 567.5234,487.2344 Q568.414,488.0469 570.0078,488.0469 Q570.9453,488.0469 571.6015,487.7969 Q571.9922,487.6406 572.414,487.2031 Q572.6797,486.9375 572.8203,486.8594 Q572.9765,486.7813 573.1797,486.7813 Q573.5078,486.7813 573.7578,487.0469 Q574.0234,487.2969 574.0234,487.6406 Q574.0234,487.9844 573.6797,488.3906 Q573.1797,488.9688 572.3828,489.2969 Q571.3047,489.75 570.0078,489.75 Q568.4922,489.75 567.289,489.125 Q566.3047,488.625 565.6172,487.5625 Q564.9297,486.4844 564.9297,485.2031 L564.9297,484.0469 Q564.9297,482.7188 565.539,481.5781 Q566.164,480.4219 567.2578,479.8125 Q568.3515,479.1875 569.5859,479.1875 Q570.3203,479.1875 570.9609,479.3594 Q571.6172,479.5156 572.164,479.875 Z "/><text fill="#000000" font-family="sans-serif" font-size="12" lengthAdjust="spacingAndGlyphs" textLength="45" x="589.8984" y="488.9102">Registry</text><line style="stroke: #A80036; stroke-width: 1.5;" x1="501.1484" x2="691.1484" y1="500" y2="500"/><rect fill="none" height="6" style="stroke: #C82930; stroke-width: 1.0;" width="6" x="508.1484" y="508"/><text fill="#000000" font-family="sans-serif" font-size="11" lengthAdjust="spacingAndGlyphs" textLength="166" x="520.1484" y="515.4189">mementoList: ArrayList&lt;Memento&gt;</text><rect fill="none" height="6" style="stroke: #C82930; stroke-width: 1.0;" width="6" x="508.1484" y="521.8359"/><text fill="#000000" font-family="sans-serif" font-size="11" lengthAdjust="spacingAndGlyphs" textLength="60" x="520.1484" y="529.2549">game: Game</text><rect fill="none" height="6" style="stroke: #C82930; stroke-width: 1.0;" width="6" x="508.1484" y="535.6719"/><text fill="#000000" font-family="sans-serif" font-size="11" lengthAdjust="spacingAndGlyphs" textLength="78" x="520.1484" y="543.0908">firstPrevious: int</text><line style="stroke: #A80036; stroke-width: 1.5;" x1="501.1484" x2="691.1484" y1="549.5078" y2="549.5078"/><polygon fill="#4177AF" points="511.1484,556.5078,507.1484,562.5078,515.1484,562.5078" style="stroke: #1963A0; stroke-width: 1.0;"/><text fill="#000000" font-family="sans-serif" font-size="11" lengthAdjust="spacingAndGlyphs" textLength="76" x="520.1484" y="564.9268">Registry(Game)</text><polygon fill="#4177AF" points="511.1484,570.3438,507.1484,576.3438,515.1484,576.3438" style="stroke: #1963A0; stroke-width: 1.0;"/><text fill="#000000" font-family="sans-serif" font-size="11" lengthAdjust="spacingAndGlyphs" textLength="71" x="520.1484" y="578.7627">registry(): void</text><polygon fill="#4177AF" points="511.1484,584.1797,507.1484,590.1797,515.1484,590.1797" style="stroke: #1963A0; stroke-width: 1.0;"/><text fill="#000000" font-family="sans-serif" font-size="11" lengthAdjust="spacingAndGlyphs" textLength="84" x="520.1484" y="592.5986">redo(Game): void</text><polygon fill="#4177AF" points="511.1484,598.0156,507.1484,604.0156,515.1484,604.0156" style="stroke: #1963A0; stroke-width: 1.0;"/><text fill="#000000" font-family="sans-serif" font-size="11" lengthAdjust="spacingAndGlyphs" textLength="96" x="520.1484" y="606.4346">undoable(): boolean</text><polygon fill="#4177AF" points="511.1484,611.8516,507.1484,617.8516,515.1484,617.8516" style="stroke: #1963A0; stroke-width: 1.0;"/><text fill="#000000" font-family="sans-serif" font-size="11" lengthAdjust="spacingAndGlyphs" textLength="94" x="520.1484" y="620.2705">redoable(): boolean</text><polygon fill="#4177AF" points="511.1484,625.6875,507.1484,631.6875,515.1484,631.6875" style="stroke: #1963A0; stroke-width: 1.0;"/><text fill="#000000" font-family="sans-serif" font-size="11" lengthAdjust="spacingAndGlyphs" textLength="59" x="520.1484" y="634.1064">reset(): void</text><!--MD5=[fa99c436b17806d9277b14ee7a9cac8e]
class tictactoe.models.Session--><rect fill="#FEFECE" filter="url(#f1khkrsb1t4pum)" height="366.2266" id="tictactoe.models.Session" style="stroke: #A80036; stroke-width: 1.5;" width="328" x="421.1484" y="42"/><ellipse cx="557.8984" cy="58" fill="#ADD1B2" rx="11" ry="11" style="stroke: #A80036; stroke-width: 1.0;"/><path d="M560.664,53.875 Q560.8203,53.6563 561.0078,53.5469 Q561.1953,53.4375 561.414,53.4375 Q561.789,53.4375 562.0234,53.7031 Q562.2578,53.9531 562.2578,54.5625 L562.2578,56.0156 Q562.2578,56.625 562.0234,56.8906 Q561.789,57.1563 561.414,57.1563 Q561.0703,57.1563 560.8672,56.9531 Q560.664,56.7656 560.5547,56.25 Q560.5078,55.8906 560.3203,55.7031 Q559.9922,55.3281 559.3828,55.1094 Q558.7734,54.8906 558.1484,54.8906 Q557.3828,54.8906 556.7422,55.2188 Q556.1172,55.5469 555.6172,56.2969 Q555.1328,57.0469 555.1328,58.0781 L555.1328,59.1719 Q555.1328,60.4063 556.0234,61.2344 Q556.914,62.0469 558.5078,62.0469 Q559.4453,62.0469 560.1015,61.7969 Q560.4922,61.6406 560.914,61.2031 Q561.1797,60.9375 561.3203,60.8594 Q561.4765,60.7813 561.6797,60.7813 Q562.0078,60.7813 562.2578,61.0469 Q562.5234,61.2969 562.5234,61.6406 Q562.5234,61.9844 562.1797,62.3906 Q561.6797,62.9688 560.8828,63.2969 Q559.8047,63.75 558.5078,63.75 Q556.9922,63.75 555.789,63.125 Q554.8047,62.625 554.1172,61.5625 Q553.4297,60.4844 553.4297,59.2031 L553.4297,58.0469 Q553.4297,56.7188 554.039,55.5781 Q554.664,54.4219 555.7578,53.8125 Q556.8515,53.1875 558.0859,53.1875 Q558.8203,53.1875 559.4609,53.3594 Q560.1172,53.5156 560.664,53.875 Z "/><text fill="#000000" font-family="sans-serif" font-size="12" lengthAdjust="spacingAndGlyphs" textLength="46" x="578.3984" y="62.9102">Session</text><line style="stroke: #A80036; stroke-width: 1.5;" x1="422.1484" x2="748.1484" y1="74" y2="74"/><rect fill="none" height="6" style="stroke: #C82930; stroke-width: 1.0;" width="6" x="429.1484" y="82"/><text fill="#000000" font-family="sans-serif" font-size="11" lengthAdjust="spacingAndGlyphs" textLength="55" x="441.1484" y="89.4189">state: State</text><rect fill="none" height="6" style="stroke: #C82930; stroke-width: 1.0;" width="6" x="429.1484" y="95.8359"/><text fill="#000000" font-family="sans-serif" font-size="11" lengthAdjust="spacingAndGlyphs" textLength="60" x="441.1484" y="103.2549">game: Game</text><rect fill="none" height="6" style="stroke: #C82930; stroke-width: 1.0;" width="6" x="429.1484" y="109.6719"/><text fill="#000000" font-family="sans-serif" font-size="11" lengthAdjust="spacingAndGlyphs" textLength="83" x="441.1484" y="117.0908">registry: Registry</text><rect fill="none" height="6" style="stroke: #C82930; stroke-width: 1.0;" width="6" x="429.1484" y="123.5078"/><text fill="#000000" font-family="sans-serif" font-size="11" lengthAdjust="spacingAndGlyphs" textLength="56" x="441.1484" y="130.9268">tcpip: TCPIP</text><line style="stroke: #A80036; stroke-width: 1.5;" x1="422.1484" x2="748.1484" y1="137.3438" y2="137.3438"/><ellipse cx="432.1484" cy="148.3438" fill="#84BE84" rx="3" ry="3" style="stroke: #038048; stroke-width: 1.0;"/><text fill="#000000" font-family="sans-serif" font-size="11" lengthAdjust="spacingAndGlyphs" textLength="74" x="441.1484" y="152.7627">Session(TCPIP)</text><ellipse cx="432.1484" cy="162.1797" fill="#84BE84" rx="3" ry="3" style="stroke: #038048; stroke-width: 1.0;"/><text fill="#000000" font-family="sans-serif" font-size="11" lengthAdjust="spacingAndGlyphs" textLength="55" x="441.1484" y="166.5986">next(): void</text><ellipse cx="432.1484" cy="176.0156" fill="#84BE84" rx="3" ry="3" style="stroke: #038048; stroke-width: 1.0;"/><text fill="#000000" font-family="sans-serif" font-size="11" lengthAdjust="spacingAndGlyphs" textLength="96" x="441.1484" y="180.4346">undoable(): boolean</text><ellipse cx="432.1484" cy="189.8516" fill="#84BE84" rx="3" ry="3" style="stroke: #038048; stroke-width: 1.0;"/><text fill="#000000" font-family="sans-serif" font-size="11" lengthAdjust="spacingAndGlyphs" textLength="94" x="441.1484" y="194.2705">redoable(): boolean</text><ellipse cx="432.1484" cy="203.6875" fill="#84BE84" rx="3" ry="3" style="stroke: #038048; stroke-width: 1.0;"/><text fill="#000000" font-family="sans-serif" font-size="11" lengthAdjust="spacingAndGlyphs" textLength="58" x="441.1484" y="208.1064">undo(): void</text><ellipse cx="432.1484" cy="217.5234" fill="#84BE84" rx="3" ry="3" style="stroke: #038048; stroke-width: 1.0;"/><text fill="#000000" font-family="sans-serif" font-size="11" lengthAdjust="spacingAndGlyphs" textLength="56" x="441.1484" y="221.9424">redo(): void</text><ellipse cx="432.1484" cy="231.3594" fill="#84BE84" rx="3" ry="3" style="stroke: #038048; stroke-width: 1.0;"/><text fill="#000000" font-family="sans-serif" font-size="11" lengthAdjust="spacingAndGlyphs" textLength="112" x="441.1484" y="235.7783">createPlayers(int): void</text><ellipse cx="432.1484" cy="245.1953" fill="#84BE84" rx="3" ry="3" style="stroke: #038048; stroke-width: 1.0;"/><text fill="#000000" font-family="sans-serif" font-size="11" lengthAdjust="spacingAndGlyphs" textLength="224" x="441.1484" y="249.6143">getTypeOfTokenPlayerFromTurn(): PlayerType</text><ellipse cx="432.1484" cy="259.0313" fill="#84BE84" rx="3" ry="3" style="stroke: #038048; stroke-width: 1.0;"/><text fill="#000000" font-family="sans-serif" font-size="11" lengthAdjust="spacingAndGlyphs" textLength="202" x="441.1484" y="263.4502">getErrorsPutCoordinate(Coordinate): Error</text><ellipse cx="432.1484" cy="272.8672" fill="#84BE84" rx="3" ry="3" style="stroke: #038048; stroke-width: 1.0;"/><text fill="#000000" font-family="sans-serif" font-size="11" lengthAdjust="spacingAndGlyphs" textLength="241" x="441.1484" y="277.2861">getErrorsMoveOriginCoordinate(Coordinate): Error</text><ellipse cx="432.1484" cy="286.7031" fill="#84BE84" rx="3" ry="3" style="stroke: #038048; stroke-width: 1.0;"/><text fill="#000000" font-family="sans-serif" font-size="11" lengthAdjust="spacingAndGlyphs" textLength="302" x="441.1484" y="291.1221">getErrorsMoveTargetCoordinate(Coordinate, Coordinate): Error</text><ellipse cx="432.1484" cy="300.5391" fill="#84BE84" rx="3" ry="3" style="stroke: #038048; stroke-width: 1.0;"/><text fill="#000000" font-family="sans-serif" font-size="11" lengthAdjust="spacingAndGlyphs" textLength="133" x="441.1484" y="304.958">isBoardComplete(): boolean</text><ellipse cx="432.1484" cy="314.375" fill="#84BE84" rx="3" ry="3" style="stroke: #038048; stroke-width: 1.0;"/><text fill="#000000" font-family="sans-serif" font-size="11" lengthAdjust="spacingAndGlyphs" textLength="206" x="441.1484" y="318.7939">putTokenPlayerFromTurn(Coordinate): void</text><ellipse cx="432.1484" cy="328.2109" fill="#84BE84" rx="3" ry="3" style="stroke: #038048; stroke-width: 1.0;"/><text fill="#000000" font-family="sans-serif" font-size="11" lengthAdjust="spacingAndGlyphs" textLength="223" x="441.1484" y="332.6299">moveTokenPlayerFromTurn(Coordinate[]): void</text><ellipse cx="432.1484" cy="342.0469" fill="#84BE84" rx="3" ry="3" style="stroke: #038048; stroke-width: 1.0;"/><text fill="#000000" font-family="sans-serif" font-size="11" lengthAdjust="spacingAndGlyphs" textLength="92" x="441.1484" y="346.4658">changeTurn(): void</text><ellipse cx="432.1484" cy="355.8828" fill="#84BE84" rx="3" ry="3" style="stroke: #038048; stroke-width: 1.0;"/><text fill="#000000" font-family="sans-serif" font-size="11" lengthAdjust="spacingAndGlyphs" textLength="115" x="441.1484" y="360.3018">getToken(int, int): Token</text><ellipse cx="432.1484" cy="369.7188" fill="#84BE84" rx="3" ry="3" style="stroke: #038048; stroke-width: 1.0;"/><text fill="#000000" font-family="sans-serif" font-size="11" lengthAdjust="spacingAndGlyphs" textLength="110" x="441.1484" y="374.1377">isTicTacToe(): boolean</text><ellipse cx="432.1484" cy="383.5547" fill="#84BE84" rx="3" ry="3" style="stroke: #038048; stroke-width: 1.0;"/><text fill="#000000" font-family="sans-serif" font-size="11" lengthAdjust="spacingAndGlyphs" textLength="141" x="441.1484" y="387.9736">getOtherValueFromTurn(): int</text><ellipse cx="432.1484" cy="397.3906" fill="#84BE84" rx="3" ry="3" style="stroke: #038048; stroke-width: 1.0;"/><text fill="#000000" font-family="sans-serif" font-size="11" lengthAdjust="spacingAndGlyphs" textLength="135" x="441.1484" y="401.8096">getValueState(): StateValue</text><!--MD5=[895b6132a90c2908aef15a128e2ee1f5]
class tictactoe.models.State--><rect fill="#FEFECE" filter="url(#f1khkrsb1t4pum)" height="103.3438" id="tictactoe.models.State" style="stroke: #A80036; stroke-width: 1.5;" width="161" x="303.6484" y="503"/><ellipse cx="365.8984" cy="519" fill="#ADD1B2" rx="11" ry="11" style="stroke: #A80036; stroke-width: 1.0;"/><path d="M368.664,514.875 Q368.8203,514.6563 369.0078,514.5469 Q369.1953,514.4375 369.414,514.4375 Q369.789,514.4375 370.0234,514.7031 Q370.2578,514.9531 370.2578,515.5625 L370.2578,517.0156 Q370.2578,517.625 370.0234,517.8906 Q369.789,518.1563 369.414,518.1563 Q369.0703,518.1563 368.8672,517.9531 Q368.664,517.7656 368.5547,517.25 Q368.5078,516.8906 368.3203,516.7031 Q367.9922,516.3281 367.3828,516.1094 Q366.7734,515.8906 366.1484,515.8906 Q365.3828,515.8906 364.7422,516.2188 Q364.1172,516.5469 363.6172,517.2969 Q363.1328,518.0469 363.1328,519.0781 L363.1328,520.1719 Q363.1328,521.4063 364.0234,522.2344 Q364.914,523.0469 366.5078,523.0469 Q367.4453,523.0469 368.1015,522.7969 Q368.4922,522.6406 368.914,522.2031 Q369.1797,521.9375 369.3203,521.8594 Q369.4765,521.7813 369.6797,521.7813 Q370.0078,521.7813 370.2578,522.0469 Q370.5234,522.2969 370.5234,522.6406 Q370.5234,522.9844 370.1797,523.3906 Q369.6797,523.9688 368.8828,524.2969 Q367.8047,524.75 366.5078,524.75 Q364.9922,524.75 363.789,524.125 Q362.8047,523.625 362.1172,522.5625 Q361.4297,521.4844 361.4297,520.2031 L361.4297,519.0469 Q361.4297,517.7188 362.039,516.5781 Q362.664,515.4219 363.7578,514.8125 Q364.8515,514.1875 366.0859,514.1875 Q366.8203,514.1875 367.4609,514.3594 Q368.1172,514.5156 368.664,514.875 Z "/><text fill="#000000" font-family="sans-serif" font-size="12" lengthAdjust="spacingAndGlyphs" textLength="28" x="386.3984" y="523.9102">State</text><line style="stroke: #A80036; stroke-width: 1.5;" x1="304.6484" x2="463.6484" y1="535" y2="535"/><rect fill="none" height="6" style="stroke: #C82930; stroke-width: 1.0;" width="6" x="311.6484" y="543"/><text fill="#000000" font-family="sans-serif" font-size="11" lengthAdjust="spacingAndGlyphs" textLength="111" x="323.6484" y="550.4189">stateValue: StateValue</text><line style="stroke: #A80036; stroke-width: 1.5;" x1="304.6484" x2="463.6484" y1="556.8359" y2="556.8359"/><ellipse cx="314.6484" cy="567.8359" fill="#84BE84" rx="3" ry="3" style="stroke: #038048; stroke-width: 1.0;"/><text fill="#000000" font-family="sans-serif" font-size="11" lengthAdjust="spacingAndGlyphs" textLength="33" x="323.6484" y="572.2549">State()</text><ellipse cx="314.6484" cy="581.6719" fill="#84BE84" rx="3" ry="3" style="stroke: #038048; stroke-width: 1.0;"/><text fill="#000000" font-family="sans-serif" font-size="11" lengthAdjust="spacingAndGlyphs" textLength="55" x="323.6484" y="586.0908">next(): void</text><ellipse cx="314.6484" cy="595.5078" fill="#84BE84" rx="3" ry="3" style="stroke: #038048; stroke-width: 1.0;"/><text fill="#000000" font-family="sans-serif" font-size="11" lengthAdjust="spacingAndGlyphs" textLength="135" x="323.6484" y="599.9268">getValueState(): StateValue</text><!--MD5=[63e92a92e730259d201bb8566c78f275]
class utils.Direction--><rect fill="#FEFECE" filter="url(#f1khkrsb1t4pum)" height="48" id="utils.Direction" style="stroke: #A80036; stroke-width: 1.5;" width="81" x="805.6484" y="1942"/><ellipse cx="820.6484" cy="1958" fill="#ADD1B2" rx="11" ry="11" style="stroke: #A80036; stroke-width: 1.0;"/><path d="M823.414,1953.875 Q823.5703,1953.6563 823.7578,1953.5469 Q823.9453,1953.4375 824.164,1953.4375 Q824.539,1953.4375 824.7734,1953.7031 Q825.0078,1953.9531 825.0078,1954.5625 L825.0078,1956.0156 Q825.0078,1956.625 824.7734,1956.8906 Q824.539,1957.1563 824.164,1957.1563 Q823.8203,1957.1563 823.6172,1956.9531 Q823.414,1956.7656 823.3047,1956.25 Q823.2578,1955.8906 823.0703,1955.7031 Q822.7422,1955.3281 822.1328,1955.1094 Q821.5234,1954.8906 820.8984,1954.8906 Q820.1328,1954.8906 819.4922,1955.2188 Q818.8672,1955.5469 818.3672,1956.2969 Q817.8828,1957.0469 817.8828,1958.0781 L817.8828,1959.1719 Q817.8828,1960.4063 818.7734,1961.2344 Q819.664,1962.0469 821.2578,1962.0469 Q822.1953,1962.0469 822.8515,1961.7969 Q823.2422,1961.6406 823.664,1961.2031 Q823.9297,1960.9375 824.0703,1960.8594 Q824.2265,1960.7813 824.4297,1960.7813 Q824.7578,1960.7813 825.0078,1961.0469 Q825.2734,1961.2969 825.2734,1961.6406 Q825.2734,1961.9844 824.9297,1962.3906 Q824.4297,1962.9688 823.6328,1963.2969 Q822.5547,1963.75 821.2578,1963.75 Q819.7422,1963.75 818.539,1963.125 Q817.5547,1962.625 816.8672,1961.5625 Q816.1797,1960.4844 816.1797,1959.2031 L816.1797,1958.0469 Q816.1797,1956.7188 816.789,1955.5781 Q817.414,1954.4219 818.5078,1953.8125 Q819.6015,1953.1875 820.8359,1953.1875 Q821.5703,1953.1875 822.2109,1953.3594 Q822.8672,1953.5156 823.414,1953.875 Z "/><text fill="#000000" font-family="sans-serif" font-size="12" lengthAdjust="spacingAndGlyphs" textLength="49" x="834.6484" y="1962.9102">Direction</text><line style="stroke: #A80036; stroke-width: 1.5;" x1="806.6484" x2="885.6484" y1="1974" y2="1974"/><line style="stroke: #A80036; stroke-width: 1.5;" x1="806.6484" x2="885.6484" y1="1982" y2="1982"/><!--MD5=[4517a9099db328c27576a0137eb33da6]
class utils.Coordinate--><rect fill="#FEFECE" filter="url(#f1khkrsb1t4pum)" height="48" id="utils.Coordinate" style="stroke: #A80036; stroke-width: 1.5;" width="93" x="921.6484" y="1942"/><ellipse cx="936.6484" cy="1958" fill="#ADD1B2" rx="11" ry="11" style="stroke: #A80036; stroke-width: 1.0;"/><path d="M939.414,1953.875 Q939.5703,1953.6563 939.7578,1953.5469 Q939.9453,1953.4375 940.164,1953.4375 Q940.539,1953.4375 940.7734,1953.7031 Q941.0078,1953.9531 941.0078,1954.5625 L941.0078,1956.0156 Q941.0078,1956.625 940.7734,1956.8906 Q940.539,1957.1563 940.164,1957.1563 Q939.8203,1957.1563 939.6172,1956.9531 Q939.414,1956.7656 939.3047,1956.25 Q939.2578,1955.8906 939.0703,1955.7031 Q938.7422,1955.3281 938.1328,1955.1094 Q937.5234,1954.8906 936.8984,1954.8906 Q936.1328,1954.8906 935.4922,1955.2188 Q934.8672,1955.5469 934.3672,1956.2969 Q933.8828,1957.0469 933.8828,1958.0781 L933.8828,1959.1719 Q933.8828,1960.4063 934.7734,1961.2344 Q935.664,1962.0469 937.2578,1962.0469 Q938.1953,1962.0469 938.8515,1961.7969 Q939.2422,1961.6406 939.664,1961.2031 Q939.9297,1960.9375 940.0703,1960.8594 Q940.2265,1960.7813 940.4297,1960.7813 Q940.7578,1960.7813 941.0078,1961.0469 Q941.2734,1961.2969 941.2734,1961.6406 Q941.2734,1961.9844 940.9297,1962.3906 Q940.4297,1962.9688 939.6328,1963.2969 Q938.5547,1963.75 937.2578,1963.75 Q935.7422,1963.75 934.539,1963.125 Q933.5547,1962.625 932.8672,1961.5625 Q932.1797,1960.4844 932.1797,1959.2031 L932.1797,1958.0469 Q932.1797,1956.7188 932.789,1955.5781 Q933.414,1954.4219 934.5078,1953.8125 Q935.6015,1953.1875 936.8359,1953.1875 Q937.5703,1953.1875 938.2109,1953.3594 Q938.8672,1953.5156 939.414,1953.875 Z "/><text fill="#000000" font-family="sans-serif" font-size="12" lengthAdjust="spacingAndGlyphs" textLength="61" x="950.6484" y="1962.9102">Coordinate</text><line style="stroke: #A80036; stroke-width: 1.5;" x1="922.6484" x2="1013.6484" y1="1974" y2="1974"/><line style="stroke: #A80036; stroke-width: 1.5;" x1="922.6484" x2="1013.6484" y1="1982" y2="1982"/><!--MD5=[2c721b8e75ee69878c5473c2e2c68362]
class utils.TCPIP--><rect fill="#FEFECE" filter="url(#f1khkrsb1t4pum)" height="48" id="utils.TCPIP" style="stroke: #A80036; stroke-width: 1.5;" width="67" x="1049.6484" y="1942"/><ellipse cx="1064.6484" cy="1958" fill="#ADD1B2" rx="11" ry="11" style="stroke: #A80036; stroke-width: 1.0;"/><path d="M1067.414,1953.875 Q1067.5703,1953.6563 1067.7578,1953.5469 Q1067.9453,1953.4375 1068.164,1953.4375 Q1068.539,1953.4375 1068.7734,1953.7031 Q1069.0078,1953.9531 1069.0078,1954.5625 L1069.0078,1956.0156 Q1069.0078,1956.625 1068.7734,1956.8906 Q1068.539,1957.1563 1068.164,1957.1563 Q1067.8203,1957.1563 1067.6172,1956.9531 Q1067.414,1956.7656 1067.3047,1956.25 Q1067.2578,1955.8906 1067.0703,1955.7031 Q1066.7422,1955.3281 1066.1328,1955.1094 Q1065.5234,1954.8906 1064.8984,1954.8906 Q1064.1328,1954.8906 1063.4922,1955.2188 Q1062.8672,1955.5469 1062.3672,1956.2969 Q1061.8828,1957.0469 1061.8828,1958.0781 L1061.8828,1959.1719 Q1061.8828,1960.4063 1062.7734,1961.2344 Q1063.664,1962.0469 1065.2578,1962.0469 Q1066.1953,1962.0469 1066.8515,1961.7969 Q1067.2422,1961.6406 1067.664,1961.2031 Q1067.9297,1960.9375 1068.0703,1960.8594 Q1068.2265,1960.7813 1068.4297,1960.7813 Q1068.7578,1960.7813 1069.0078,1961.0469 Q1069.2734,1961.2969 1069.2734,1961.6406 Q1069.2734,1961.9844 1068.9297,1962.3906 Q1068.4297,1962.9688 1067.6328,1963.2969 Q1066.5547,1963.75 1065.2578,1963.75 Q1063.7422,1963.75 1062.539,1963.125 Q1061.5547,1962.625 1060.8672,1961.5625 Q1060.1797,1960.4844 1060.1797,1959.2031 L1060.1797,1958.0469 Q1060.1797,1956.7188 1060.789,1955.5781 Q1061.414,1954.4219 1062.5078,1953.8125 Q1063.6015,1953.1875 1064.8359,1953.1875 Q1065.5703,1953.1875 1066.2109,1953.3594 Q1066.8672,1953.5156 1067.414,1953.875 Z "/><text fill="#000000" font-family="sans-serif" font-size="12" lengthAdjust="spacingAndGlyphs" textLength="35" x="1078.6484" y="1962.9102">TCPIP</text><line style="stroke: #A80036; stroke-width: 1.5;" x1="1050.6484" x2="1115.6484" y1="1974" y2="1974"/><line style="stroke: #A80036; stroke-width: 1.5;" x1="1050.6484" x2="1115.6484" y1="1982" y2="1982"/><!--MD5=[6c70c0f5d22b0d421fe766e144384ba2]
class java.util.Random--><rect fill="#FEFECE" filter="url(#f1khkrsb1t4pum)" height="48" id="java.util.Random" style="stroke: #A80036; stroke-width: 1.5;" width="80" x="418.1484" y="2361"/><ellipse cx="433.1484" cy="2377" fill="#ADD1B2" rx="11" ry="11" style="stroke: #A80036; stroke-width: 1.0;"/><path d="M435.914,2372.875 Q436.0703,2372.6563 436.2578,2372.5469 Q436.4453,2372.4375 436.664,2372.4375 Q437.039,2372.4375 437.2734,2372.7031 Q437.5078,2372.9531 437.5078,2373.5625 L437.5078,2375.0156 Q437.5078,2375.625 437.2734,2375.8906 Q437.039,2376.1563 436.664,2376.1563 Q436.3203,2376.1563 436.1172,2375.9531 Q435.914,2375.7656 435.8047,2375.25 Q435.7578,2374.8906 435.5703,2374.7031 Q435.2422,2374.3281 434.6328,2374.1094 Q434.0234,2373.8906 433.3984,2373.8906 Q432.6328,2373.8906 431.9922,2374.2188 Q431.3672,2374.5469 430.8672,2375.2969 Q430.3828,2376.0469 430.3828,2377.0781 L430.3828,2378.1719 Q430.3828,2379.4063 431.2734,2380.2344 Q432.164,2381.0469 433.7578,2381.0469 Q434.6953,2381.0469 435.3515,2380.7969 Q435.7422,2380.6406 436.164,2380.2031 Q436.4297,2379.9375 436.5703,2379.8594 Q436.7265,2379.7813 436.9297,2379.7813 Q437.2578,2379.7813 437.5078,2380.0469 Q437.7734,2380.2969 437.7734,2380.6406 Q437.7734,2380.9844 437.4297,2381.3906 Q436.9297,2381.9688 436.1328,2382.2969 Q435.0547,2382.75 433.7578,2382.75 Q432.2422,2382.75 431.039,2382.125 Q430.0547,2381.625 429.3672,2380.5625 Q428.6797,2379.4844 428.6797,2378.2031 L428.6797,2377.0469 Q428.6797,2375.7188 429.289,2374.5781 Q429.914,2373.4219 431.0078,2372.8125 Q432.1015,2372.1875 433.3359,2372.1875 Q434.0703,2372.1875 434.7109,2372.3594 Q435.3672,2372.5156 435.914,2372.875 Z "/><text fill="#000000" font-family="sans-serif" font-size="12" lengthAdjust="spacingAndGlyphs" textLength="48" x="447.1484" y="2381.9102">Random</text><line style="stroke: #A80036; stroke-width: 1.5;" x1="419.1484" x2="497.1484" y1="2393" y2="2393"/><line style="stroke: #A80036; stroke-width: 1.5;" x1="419.1484" x2="497.1484" y1="2401" y2="2401"/><!--MD5=[8479184e23c2bec09445fccfd361f5d2]
class java.util.ArrayList--><rect fill="#FEFECE" filter="url(#f1khkrsb1t4pum)" height="48" id="java.util.ArrayList" style="stroke: #A80036; stroke-width: 1.5;" width="79" x="303.6484" y="2361"/><ellipse cx="318.6484" cy="2377" fill="#ADD1B2" rx="11" ry="11" style="stroke: #A80036; stroke-width: 1.0;"/><path d="M321.414,2372.875 Q321.5703,2372.6563 321.7578,2372.5469 Q321.9453,2372.4375 322.164,2372.4375 Q322.539,2372.4375 322.7734,2372.7031 Q323.0078,2372.9531 323.0078,2373.5625 L323.0078,2375.0156 Q323.0078,2375.625 322.7734,2375.8906 Q322.539,2376.1563 322.164,2376.1563 Q321.8203,2376.1563 321.6172,2375.9531 Q321.414,2375.7656 321.3047,2375.25 Q321.2578,2374.8906 321.0703,2374.7031 Q320.7422,2374.3281 320.1328,2374.1094 Q319.5234,2373.8906 318.8984,2373.8906 Q318.1328,2373.8906 317.4922,2374.2188 Q316.8672,2374.5469 316.3672,2375.2969 Q315.8828,2376.0469 315.8828,2377.0781 L315.8828,2378.1719 Q315.8828,2379.4063 316.7734,2380.2344 Q317.664,2381.0469 319.2578,2381.0469 Q320.1953,2381.0469 320.8515,2380.7969 Q321.2422,2380.6406 321.664,2380.2031 Q321.9297,2379.9375 322.0703,2379.8594 Q322.2265,2379.7813 322.4297,2379.7813 Q322.7578,2379.7813 323.0078,2380.0469 Q323.2734,2380.2969 323.2734,2380.6406 Q323.2734,2380.9844 322.9297,2381.3906 Q322.4297,2381.9688 321.6328,2382.2969 Q320.5547,2382.75 319.2578,2382.75 Q317.7422,2382.75 316.539,2382.125 Q315.5547,2381.625 314.8672,2380.5625 Q314.1797,2379.4844 314.1797,2378.2031 L314.1797,2377.0469 Q314.1797,2375.7188 314.789,2374.5781 Q315.414,2373.4219 316.5078,2372.8125 Q317.6015,2372.1875 318.8359,2372.1875 Q319.5703,2372.1875 320.2109,2372.3594 Q320.8672,2372.5156 321.414,2372.875 Z "/><text fill="#000000" font-family="sans-serif" font-size="12" lengthAdjust="spacingAndGlyphs" textLength="47" x="332.6484" y="2381.9102">ArrayList</text><line style="stroke: #A80036; stroke-width: 1.5;" x1="304.6484" x2="381.6484" y1="2393" y2="2393"/><line style="stroke: #A80036; stroke-width: 1.5;" x1="304.6484" x2="381.6484" y1="2401" y2="2401"/><!--MD5=[068fe37cd9d2e226408ce790264f2fa7]
class tictactoe.types.StateValue--><rect fill="#FEFECE" filter="url(#f1khkrsb1t4pum)" height="48" id="tictactoe.types.StateValue" style="stroke: #A80036; stroke-width: 1.5;" width="91" x="155.6487" y="832.5"/><ellipse cx="170.6487" cy="848.5" fill="#ADD1B2" rx="11" ry="11" style="stroke: #A80036; stroke-width: 1.0;"/><path d="M173.4143,844.375 Q173.5706,844.1563 173.7581,844.0469 Q173.9456,843.9375 174.1643,843.9375 Q174.5393,843.9375 174.7737,844.2031 Q175.0081,844.4531 175.0081,845.0625 L175.0081,846.5156 Q175.0081,847.125 174.7737,847.3906 Q174.5393,847.6563 174.1643,847.6563 Q173.8206,847.6563 173.6175,847.4531 Q173.4143,847.2656 173.305,846.75 Q173.2581,846.3906 173.0706,846.2031 Q172.7425,845.8281 172.1331,845.6094 Q171.5237,845.3906 170.8987,845.3906 Q170.1331,845.3906 169.4925,845.7188 Q168.8675,846.0469 168.3675,846.7969 Q167.8831,847.5469 167.8831,848.5781 L167.8831,849.6719 Q167.8831,850.9063 168.7737,851.7344 Q169.6643,852.5469 171.2581,852.5469 Q172.1956,852.5469 172.8518,852.2969 Q173.2425,852.1406 173.6643,851.7031 Q173.93,851.4375 174.0706,851.3594 Q174.2268,851.2813 174.43,851.2813 Q174.7581,851.2813 175.0081,851.5469 Q175.2737,851.7969 175.2737,852.1406 Q175.2737,852.4844 174.93,852.8906 Q174.43,853.4688 173.6331,853.7969 Q172.555,854.25 171.2581,854.25 Q169.7425,854.25 168.5393,853.625 Q167.555,853.125 166.8675,852.0625 Q166.18,850.9844 166.18,849.7031 L166.18,848.5469 Q166.18,847.2188 166.7893,846.0781 Q167.4143,844.9219 168.5081,844.3125 Q169.6018,843.6875 170.8362,843.6875 Q171.5706,843.6875 172.2112,843.8594 Q172.8675,844.0156 173.4143,844.375 Z "/><text fill="#000000" font-family="sans-serif" font-size="12" lengthAdjust="spacingAndGlyphs" textLength="59" x="184.6487" y="853.4102">StateValue</text><line style="stroke: #A80036; stroke-width: 1.5;" x1="156.6487" x2="245.6487" y1="864.5" y2="864.5"/><line style="stroke: #A80036; stroke-width: 1.5;" x1="156.6487" x2="245.6487" y1="872.5" y2="872.5"/><!--MD5=[9415c0c61774263745e2cedb44e639c6]
link tictactoe.models.Board to tictactoe.models.Coordinate--><path d="M598.9851,1572.076 C598.9851,1572.076 638.1434,1767.707 648.1484,1866 C656.6164,1949.185 657.2164,2044.453 656.0794,2112.684 " fill="none" id="tictactoe.models.Board-tictactoe.models.Coordinate" style="stroke: #A80036; stroke-width: 1.0;"/><polygon fill="#A80036" points="655.8304,2125.959,659.9978,2117.0353,655.9238,2120.9599,651.9992,2116.8858,655.8304,2125.959" style="stroke: #A80036; stroke-width: 1.0;"/><line style="stroke: #A80036; stroke-width: 1.0;" x1="655.9238" x2="656.0739" y1="2120.9599" y2="2112.961"/><polygon fill="#A80036" points="596.4494,1560.347,593.8076,1567.0567,598.9851,1572.076,601.6269,1565.3663,596.4494,1560.347" style="stroke: #A80036; stroke-width: 1.0;"/><!--MD5=[f07f4b28b1c2eb27f6b3ca96953c68ab]
link tictactoe.models.Board to tictactoe.models.Turn--><path d="M495.8144,1560.181 C486.9784,1578.642 478.0854,1597.222 469.7004,1614.741 " fill="none" id="tictactoe.models.Board-&gt;tictactoe.models.Turn" style="stroke: #A80036; stroke-width: 1.0; stroke-dasharray: 7.0,7.0;"/><polygon fill="#A80036" points="467.3484,1619.654,474.8419,1613.2628,469.507,1615.144,467.6258,1609.8091,467.3484,1619.654" style="stroke: #A80036; stroke-width: 1.0;"/><!--MD5=[1183b1fe88256d6abfae59cdbc015bea]
link tictactoe.models.Board to utils.Direction--><path d="M643.7754,1560.267 C654.8284,1580.224 665.8934,1600.564 676.1484,1620 C737.5244,1736.318 805.0894,1877.874 832.9884,1936.977 " fill="none" id="tictactoe.models.Board-&gt;utils.Direction" style="stroke: #A80036; stroke-width: 1.0; stroke-dasharray: 7.0,7.0;"/><polygon fill="#A80036" points="835.2454,1941.764,835.0246,1931.9176,833.1128,1937.2416,827.7888,1935.3298,835.2454,1941.764" style="stroke: #A80036; stroke-width: 1.0;"/><!--MD5=[d279b4500bca5abba91dd5faa9f398fd]
reverse link utils.Coordinate to tictactoe.models.Coordinate--><path d="M947.9044,2007.752 C936.8794,2027.07 921.8644,2049.478 904.1484,2066 C859.1074,2108.008 798.9594,2141.767 748.8354,2165.435 " fill="none" id="utils.Coordinate&lt;-tictactoe.models.Coordinate" style="stroke: #A80036; stroke-width: 1.0;"/><polygon fill="none" points="941.7414,2004.431,957.3804,1990.133,954.0714,2011.063,941.7414,2004.431" style="stroke: #A80036; stroke-width: 1.0;"/><!--MD5=[997516208723a80710191e814da7328e]
link tictactoe.models.Coordinate to utils.Direction--><path d="M716.9984,2125.928 C753.8684,2080.557 797.9464,2026.316 823.9064,1994.37 " fill="none" id="tictactoe.models.Coordinate-&gt;utils.Direction" style="stroke: #A80036; stroke-width: 1.0; stroke-dasharray: 7.0,7.0;"/><polygon fill="#A80036" points="827.2914,1990.205,818.5114,1994.6672,824.1382,1994.0854,824.72,1999.7123,827.2914,1990.205" style="stroke: #A80036; stroke-width: 1.0;"/><!--MD5=[02a5e0cbda321227fb745cf81ac775a1]
link tictactoe.models.Coordinate to java.util.Random--><path d="M566.7674,2285.129 C538.3794,2310.969 508.7184,2337.969 487.5784,2357.2116 " fill="none" id="tictactoe.models.Coordinate-&gt;java.util.Random" style="stroke: #A80036; stroke-width: 1.0; stroke-dasharray: 7.0,7.0;"/><polygon fill="#A80036" points="483.7324,2360.7123,493.0806,2357.6121,487.43,2357.3466,487.6955,2351.696,483.7324,2360.7123" style="stroke: #A80036; stroke-width: 1.0;"/><!--MD5=[b634369fa6e65a8dead148f8efc150f7]
link tictactoe.models.Game to tictactoe.models.Board--><path d="M578.6178,1023.9911 C578.6178,1023.9911 572.0944,1189.8 569.1884,1263.76 " fill="none" id="tictactoe.models.Game-tictactoe.models.Board" style="stroke: #A80036; stroke-width: 1.0;"/><polygon fill="#A80036" points="568.6714,1276.91,573.0243,1268.0753,568.8692,1271.9139,565.0306,1267.7588,568.6714,1276.91" style="stroke: #A80036; stroke-width: 1.0;"/><line style="stroke: #A80036; stroke-width: 1.0;" x1="568.8692" x2="569.1819" y1="1271.9139" y2="1263.92"/><polygon fill="#A80036" points="579.0794,1012,574.8516,1017.8417,578.6178,1023.9911,582.8457,1018.1494,579.0794,1012" style="stroke: #A80036; stroke-width: 1.0;"/><!--MD5=[1dc2bc8b0c5aa09eb02df64674797f09]
link tictactoe.models.Game to tictactoe.models.Player--><path d="M664.9219,1023.2392 C664.9219,1023.2392 783.5024,1379.87 730.1484,1560 C697.4494,1670.396 624.1444,1778.901 563.2124,1855.772 " fill="none" id="tictactoe.models.Game-tictactoe.models.Player" style="stroke: #A80036; stroke-width: 1.0;"/><polygon fill="#A80036" points="555.0844,1865.933,563.8298,1861.4034,558.2076,1862.0284,557.5825,1856.4062,555.0844,1865.933" style="stroke: #A80036; stroke-width: 1.0;"/><line style="stroke: #A80036; stroke-width: 1.0;" x1="558.2076" x2="563.2054" y1="1862.0284" y2="1855.781"/><polygon fill="#A80036" points="660.3604,1012.14,658.9414,1019.2101,664.9219,1023.2392,666.3409,1016.1691,660.3604,1012.14" style="stroke: #A80036; stroke-width: 1.0;"/><!--MD5=[aa5c2eaa34da3707c874f29e1edc60f9]
link tictactoe.models.Game to tictactoe.models.Turn--><path d="M571.4969,1024.0354 C571.4969,1024.0354 536.9954,1161.74 496.1484,1217 C465.3404,1258.68 421.6854,1231.9 396.1484,1277 C365.1634,1331.73 390.6284,1497.354 396.1484,1560 C397.4904,1575.226 399.5744,1591.213 402.0034,1606.864 " fill="none" id="tictactoe.models.Game-tictactoe.models.Turn" style="stroke: #A80036; stroke-width: 1.0;"/><polygon fill="#A80036" points="404.1164,1619.908,406.6259,1610.3842,403.317,1614.9723,398.7289,1611.6633,404.1164,1619.908" style="stroke: #A80036; stroke-width: 1.0;"/><line style="stroke: #A80036; stroke-width: 1.0;" x1="403.317" x2="402.0379" y1="1614.9723" y2="1607.0755"/><polygon fill="#A80036" points="573.5934,1012.22,568.6067,1017.4289,571.4969,1024.0354,576.4836,1018.8265,573.5934,1012.22" style="stroke: #A80036; stroke-width: 1.0;"/><!--MD5=[5fdd22b8e1e201e10f6f9767c3e91641]
link tictactoe.models.Game to tictactoe.models.Memento--><path d="M480.1994,1012.22 C467.1954,1031.39 454.3834,1050.28 442.7064,1067.49 " fill="none" id="tictactoe.models.Game-&gt;tictactoe.models.Memento" style="stroke: #A80036; stroke-width: 1.0; stroke-dasharray: 7.0,7.0;"/><polygon fill="#A80036" points="439.7624,1071.83,448.1309,1066.637,442.574,1067.6954,441.5156,1062.1384,439.7624,1071.83" style="stroke: #A80036; stroke-width: 1.0;"/><!--MD5=[0add7ab1c0e4f2d2e8b94d51df67b541]
link tictactoe.models.Memento to tictactoe.models.Board--><path d="M442.9747,1227.4644 C442.9747,1227.4644 458.9994,1252.8 467.0594,1265.55 " fill="none" id="tictactoe.models.Memento-tictactoe.models.Board" style="stroke: #A80036; stroke-width: 1.0;"/><polygon fill="#A80036" points="474.1664,1276.78,472.7311,1267.0363,471.4915,1272.5557,465.9721,1271.3161,474.1664,1276.78" style="stroke: #A80036; stroke-width: 1.0;"/><line style="stroke: #A80036; stroke-width: 1.0;" x1="471.4915" x2="467.2189" y1="1272.5557" y2="1265.795"/><polygon fill="#A80036" points="436.5644,1217.32,436.3881,1224.5289,442.9747,1227.4644,443.151,1220.2554,436.5644,1217.32" style="stroke: #A80036; stroke-width: 1.0;"/><!--MD5=[0965f470714fab33faa0fe72ca0accda]
link tictactoe.models.Memento to tictactoe.models.Player--><path d="M362.1212,1228.439 C362.1212,1228.439 262.5834,1608.904 334.1484,1806 C340.2764,1822.877 349.0674,1839.214 359.2504,1854.582 " fill="none" id="tictactoe.models.Memento-tictactoe.models.Player" style="stroke: #A80036; stroke-width: 1.0;"/><polygon fill="#A80036" points="366.8934,1865.594,365.0485,1855.9195,364.0428,1861.4862,358.476,1860.4805,366.8934,1865.594" style="stroke: #A80036; stroke-width: 1.0;"/><line style="stroke: #A80036; stroke-width: 1.0;" x1="364.0428" x2="359.4814" y1="1861.4862" y2="1854.914"/><polygon fill="#A80036" points="365.7474,1217,360.1213,1221.5108,362.1212,1228.439,367.7473,1223.9282,365.7474,1217" style="stroke: #A80036; stroke-width: 1.0;"/><!--MD5=[e11dc50ca1268988a8df702a7479da15]
link tictactoe.models.Memento to tictactoe.models.Turn--><path d="M375.0384,1229.0788 C375.0384,1229.0788 370.4134,1261.77 369.1484,1277 C358.7354,1402.35 347.7854,1436.05 369.1484,1560 C371.8324,1575.57 375.9554,1591.66 380.7544,1607.284 " fill="none" id="tictactoe.models.Memento-tictactoe.models.Turn" style="stroke: #A80036; stroke-width: 1.0;"/><polygon fill="#A80036" points="384.7324,1619.696,385.7941,1609.9045,383.2061,1614.9347,378.176,1612.3466,384.7324,1619.696" style="stroke: #A80036; stroke-width: 1.0;"/><line style="stroke: #A80036; stroke-width: 1.0;" x1="383.2061" x2="380.7644" y1="1614.9347" y2="1607.316"/><polygon fill="#A80036" points="376.9374,1217.23,372.0383,1222.5214,375.0384,1229.0788,379.9375,1223.7874,376.9374,1217.23" style="stroke: #A80036; stroke-width: 1.0;"/><!--MD5=[4d61797189bd4e3921b05d5b1c2f3641]
link tictactoe.models.Player to tictactoe.models.Board--><path d="M499.8685,1854.237 C499.8685,1854.237 507.9994,1821.388 511.1484,1806 C526.7064,1729.974 538.7574,1644.55 547.3224,1573.383 " fill="none" id="tictactoe.models.Player-tictactoe.models.Board" style="stroke: #A80036; stroke-width: 1.0;"/><polygon fill="#A80036" points="548.8804,1560.265,543.8461,1568.73,548.2903,1565.2301,551.7902,1569.6742,548.8804,1560.265" style="stroke: #A80036; stroke-width: 1.0;"/><line style="stroke: #A80036; stroke-width: 1.0;" x1="548.2903" x2="547.3464" y1="1565.2301" y2="1573.175"/><polygon fill="#A80036" points="496.8264,1865.845,502.2168,1861.055,499.8685,1854.237,494.4781,1859.027,496.8264,1865.845" style="stroke: #A80036; stroke-width: 1.0;"/><!--MD5=[8c8274b143d2ce23d56b10c65f754674]
link tictactoe.models.Player to tictactoe.models.Coordinate--><path d="M544.6824,2066.002 C559.2324,2084.579 574.3014,2103.821 588.4114,2121.838 " fill="none" id="tictactoe.models.Player-&gt;tictactoe.models.Coordinate" style="stroke: #A80036; stroke-width: 1.0; stroke-dasharray: 7.0,7.0;"/><polygon fill="#A80036" points="591.5954,2125.904,589.1962,2116.3518,588.5129,2121.9673,582.8974,2121.2839,591.5954,2125.904" style="stroke: #A80036; stroke-width: 1.0;"/><!--MD5=[3152a19d553c2d3514b3b32b9814f169]
link tictactoe.models.Registry to tictactoe.models.Game--><path d="M592.5762,653.0621 C592.5762,653.0621 591.7164,676.37 591.2954,687.86 " fill="none" id="tictactoe.models.Registry-tictactoe.models.Game" style="stroke: #A80036; stroke-width: 1.0;"/><polygon fill="#A80036" points="590.8184,700.89,595.1421,692.041,590.9997,695.8933,587.1474,691.7509,590.8184,700.89" style="stroke: #A80036; stroke-width: 1.0;"/><line style="stroke: #A80036; stroke-width: 1.0;" x1="590.9997" x2="591.2944" y1="695.8933" y2="687.895"/><polygon fill="#A80036" points="593.0114,641.07,588.7964,646.921,592.5762,653.0621,596.7912,647.2111,593.0114,641.07" style="stroke: #A80036; stroke-width: 1.0;"/><!--MD5=[a44038fa09e405fa1bcfa610e808471f]
link tictactoe.models.Registry to tictactoe.models.Memento--><path d="M490.3425,634.8967 C490.3425,634.8967 403.5054,700.31 403.1484,701 C344.9424,813.91 356.9004,965.5 372.6804,1058.74 " fill="none" id="tictactoe.models.Registry-tictactoe.models.Memento" style="stroke: #A80036; stroke-width: 1.0;"/><polygon fill="#A80036" points="374.9764,1071.78,377.353,1062.2222,374.1083,1066.8559,369.4745,1063.6112,374.9764,1071.78" style="stroke: #A80036; stroke-width: 1.0;"/><line style="stroke: #A80036; stroke-width: 1.0;" x1="374.1083" x2="372.7224" y1="1066.8559" y2="1058.98"/><polygon fill="#A80036" points="499.9374,627.69,492.7377,628.0951,490.3425,634.8967,497.5422,634.4917,499.9374,627.69" style="stroke: #A80036; stroke-width: 1.0;"/><!--MD5=[fb5ba91e0149d488c8e3c668184c7961]
link tictactoe.models.Registry to java.util.ArrayList--><path d="M489.394,637.6444 C489.394,637.6444 484.2174,640.11 482.1484,641 C340.1134,702.45 243.5604,586.77 139.1487,701 C6,846.67 102.1487,946.15 102.1487,1143.5 C102.1487,1143.5 102.1487,1143.5 102.1487,1967 C102.1487,2129.647 241.2854,2285.875 308.1204,2351.5376 " fill="none" id="tictactoe.models.Registry-java.util.ArrayList" style="stroke: #A80036; stroke-width: 1.0;"/><polygon fill="#A80036" points="317.8134,2360.9226,314.13,2351.7884,314.2213,2357.4446,308.5652,2357.5358,317.8134,2360.9226" style="stroke: #A80036; stroke-width: 1.0;"/><line style="stroke: #A80036; stroke-width: 1.0;" x1="314.2213" x2="308.4734" y1="2357.4446" y2="2351.8796"/><polygon fill="#A80036" points="500.0674,632.16,492.9026,631.3444,489.394,637.6444,496.5589,638.46,500.0674,632.16" style="stroke: #A80036; stroke-width: 1.0;"/><!--MD5=[81c635d2699774312e0786044bb2c7df]
link tictactoe.models.Session to tictactoe.models.State--><path d="M466.911,418.6471 C466.911,418.6471 435.1944,470.33 422.2664,491.39 " fill="none" id="tictactoe.models.Session-tictactoe.models.State" style="stroke: #A80036; stroke-width: 1.0;"/><polygon fill="#A80036" points="415.3294,502.7,423.4462,497.1216,417.9447,498.4385,416.6278,492.9371,415.3294,502.7" style="stroke: #A80036; stroke-width: 1.0;"/><line style="stroke: #A80036; stroke-width: 1.0;" x1="417.9447" x2="422.1294" y1="498.4385" y2="491.62"/><polygon fill="#A80036" points="473.1884,408.42,466.6407,411.4411,466.911,418.6471,473.4587,415.626,473.1884,408.42" style="stroke: #A80036; stroke-width: 1.0;"/><!--MD5=[16f80b9c05a1fd649d4fdff2813ca191]
link tictactoe.models.Session to tictactoe.models.Game--><path d="M693.9819,419.3479 C693.9819,419.3479 705.3484,452.25 709.1484,468 C727.1834,542.74 729.0694,566.74 709.1484,641 C704.8414,657.06 699.0084,673.15 692.2094,688.91 " fill="none" id="tictactoe.models.Session-tictactoe.models.Game" style="stroke: #A80036; stroke-width: 1.0;"/><polygon fill="#A80036" points="686.8304,700.89,694.1678,694.3202,688.8797,696.3293,686.8706,691.0412,686.8304,700.89" style="stroke: #A80036; stroke-width: 1.0;"/><line style="stroke: #A80036; stroke-width: 1.0;" x1="688.8797" x2="692.1549" y1="696.3293" y2="689.035"/><polygon fill="#A80036" points="689.6684,408.15,688.0925,415.1868,693.9819,419.3479,695.5578,412.3111,689.6684,408.15" style="stroke: #A80036; stroke-width: 1.0;"/><!--MD5=[8b9a7111cababfb559df54387fd36e41]
link tictactoe.models.Session to tictactoe.models.Registry--><path d="M591.6852,420.413 C591.6852,420.413 592.4704,443.97 592.8294,454.68 " fill="none" id="tictactoe.models.Session-tictactoe.models.Registry" style="stroke: #A80036; stroke-width: 1.0;"/><polygon fill="#A80036" points="593.2764,467.99,596.9775,458.863,593.1116,462.9927,588.9819,459.1268,593.2764,467.99" style="stroke: #A80036; stroke-width: 1.0;"/><line style="stroke: #A80036; stroke-width: 1.0;" x1="593.1116" x2="592.8399" y1="462.9927" y2="455"/><polygon fill="#A80036" points="591.2764,408.42,587.4831,414.5528,591.6852,420.413,595.4785,414.2802,591.2764,408.42" style="stroke: #A80036; stroke-width: 1.0;"/><!--MD5=[98854079f8b47032907ceb9dcc9f21f2]
link tictactoe.models.Session to utils.TCPIP--><path d="M757.3948,383.1068 C757.3948,383.1068 989.1484,673.46 989.1484,855.5 C989.1484,855.5 989.1484,855.5 989.1484,1419.5 C989.1484,1614.256 1048.0574,1842.517 1072.6014,1929.185 " fill="none" id="tictactoe.models.Session-utils.TCPIP" style="stroke: #A80036; stroke-width: 1.0;"/><polygon fill="#A80036" points="1076.2414,1941.853,1077.6068,1932.0992,1074.8637,1937.0465,1069.9164,1934.3035,1076.2414,1941.853" style="stroke: #A80036; stroke-width: 1.0;"/><line style="stroke: #A80036; stroke-width: 1.0;" x1="1074.8637" x2="1072.6564" y1="1937.0465" y2="1929.356"/><polygon fill="#A80036" points="749.1794,374.36,750.3715,381.4719,757.3948,383.1068,756.2027,375.9949,749.1794,374.36" style="stroke: #A80036; stroke-width: 1.0;"/><!--MD5=[1144122d6943599b2215721923ef0ecc]
link tictactoe.models.State to tictactoe.types.StateValue--><path d="M342.2788,615.9587 C342.2788,615.9587 304.2324,673.01 287.1484,701 C262.5124,741.37 236.3844,789.1 219.4814,820.71 " fill="none" id="tictactoe.models.State-tictactoe.types.StateValue" style="stroke: #A80036; stroke-width: 1.0;"/><polygon fill="#A80036" points="213.2624,832.4,221.0246,826.338,215.6135,827.9873,213.9642,822.5762,213.2624,832.4" style="stroke: #A80036; stroke-width: 1.0;"/><line style="stroke: #A80036; stroke-width: 1.0;" x1="215.6135" x2="219.3709" y1="827.9873" y2="820.92"/><polygon fill="#A80036" points="349.0184,606.03,342.3391,608.7478,342.2788,615.9587,348.9582,613.2409,349.0184,606.03" style="stroke: #A80036; stroke-width: 1.0;"/><!--MD5=[445ca9be6ac7acaf2fbd96fa00e05ee8]
link tictactoe.models.Turn to tictactoe.models.Player--><path d="M441.3541,1817.8578 C441.3541,1817.8578 445.4934,1841.466 447.4614,1852.695 " fill="none" id="tictactoe.models.Turn-tictactoe.models.Player" style="stroke: #A80036; stroke-width: 1.0;"/><polygon fill="#A80036" points="449.7574,1865.79,452.1427,1856.2344,448.8937,1860.8652,444.2629,1857.6162,449.7574,1865.79" style="stroke: #A80036; stroke-width: 1.0;"/><line style="stroke: #A80036; stroke-width: 1.0;" x1="448.8937" x2="447.5124" y1="1860.8652" y2="1852.985"/><polygon fill="#A80036" points="439.2824,1806.038,436.3783,1812.6385,441.3541,1817.8578,444.2582,1811.2573,439.2824,1806.038" style="stroke: #A80036; stroke-width: 1.0;"/><!--MD5=[efe05aa322a3ec8d60131154fafd83c7]
@startuml

class  tictactoe.models.Board{
+ {static} EMPTY: char
- coordinates: Coordinate[][]
+ Board()
+ Board(Coordinate[][])
+ getToken(Coordinate): Token
~ move(Coordinate, Coordinate): void
~ put(Coordinate, Token): void
- remove(Coordinate): void
~ isTicTacToe(Token): boolean
- numberOfCoordinates(Coordinate[]): int
~ isCompleted(): boolean
+ isEmpty(Coordinate): boolean
~ isOccupied(Coordinate, Token): boolean
- checkNumberOfCoordinates(Coordinate[]): boolean
- checkDirectionOfFirstCoordinates(Coordinate[]): boolean
- checkDirectionOfAllCoordinates(Coordinate[]): boolean
~ copy(): Board
}
tictactoe.models.Board *-down-> tictactoe.models.Coordinate
tictactoe.models.Board ..> tictactoe.models.Turn
tictactoe.models.Board ..> utils.Direction

class  tictactoe.models.Coordinate{
+ {static} DIMENSION: char
+ Coordinate()
+ Coordinate(int, int)
~ inDirection(Coordinate): boolean
~ getDirection(Coordinate): Direction
- inInverseDiagonal(): boolean
+ isValid(): boolean
+ random(): void
}
utils.Coordinate <|-down- tictactoe.models.Coordinate
tictactoe.models.Coordinate ..> utils.Direction
tictactoe.models.Coordinate ..> java.util.Random

class  tictactoe.models.Game{
- board: Board
- players: Player[][]
- turn: Turn
+ Game()
+ createPlayers(int): void
~ createMemento(): Memento
~ set(Memento): void
- createCopyOfPlayers(Player[], Board): Player[]
+ isBoardComplete(): boolean
+ putTokenPlayerFromTurn(Coordinate): void
+ moveTokenPlayerFromTurn(Coordinate[]): void
+ getTypeOfTokenPlayerFromTurn(): PlayerType
+ getErrorsPutCoordinate(Coordinate): Error
+ getErrorsMoveOriginCoordinate(Coordinate): Error
+ getErrorsMoveTargetCoordinate(Coordinate, Coordinate): Error
+ getToken(int, int): Token
+ changeTurn(): void
+ isTicTacToe(): boolean
+ getOtherValueFromTurn(): int
}
tictactoe.models.Game *-down-> tictactoe.models.Board
tictactoe.models.Game *-down-> tictactoe.models.Player
tictactoe.models.Game *-down-> tictactoe.models.Turn
tictactoe.models.Game ..> tictactoe.models.Memento

class  tictactoe.models.Memento{
- board: Board
- players: Player[][]
- turn: Turn
+ Memento(Board, Player[], Turn)
+ getBoard(): Board
~ getPlayers(): Player[]
~ getTurn(): Turn
}
tictactoe.models.Memento *-down-> tictactoe.models.Board
tictactoe.models.Memento *-down-> tictactoe.models.Player
tictactoe.models.Memento *-down-> tictactoe.models.Turn

class  tictactoe.models.Player{
- token: Token
- board: Board
- type: PlayerType
+ Player(Token, Board, PlayerType)
+ getType(): PlayerType
~ getToken(): Token
~ put(Coordinate): void
~ move(Coordinate[]): void
+ getErrorsPutCoordinate(Coordinate): Error
+ getErrorsMoveOriginCoordinate(Coordinate): Error
+ getErrorsMoveTargetCoordinate(Coordinate, Coordinate): Error
}
tictactoe.models.Player *-down-> tictactoe.models.Board
tictactoe.models.Player ..> tictactoe.models.Coordinate

class  tictactoe.models.Registry{
- mementoList: ArrayList<Memento>
- game: Game
- firstPrevious: int
~ Registry(Game)
~ registry(): void
~ redo(Game): void
~ undoable(): boolean
~ redoable(): boolean
~ reset(): void
}
tictactoe.models.Registry *-down-> tictactoe.models.Game
tictactoe.models.Registry *-down-> tictactoe.models.Memento
tictactoe.models.Registry *-down-> java.util.ArrayList

class  tictactoe.models.Session{
- state: State
- game: Game
- registry: Registry
- tcpip: TCPIP
+ Session(TCPIP)
+ next(): void
+ undoable(): boolean
+ redoable(): boolean
+ undo(): void
+ redo(): void
+ createPlayers(int): void
+ getTypeOfTokenPlayerFromTurn(): PlayerType
+ getErrorsPutCoordinate(Coordinate): Error
+ getErrorsMoveOriginCoordinate(Coordinate): Error
+ getErrorsMoveTargetCoordinate(Coordinate, Coordinate): Error
+ isBoardComplete(): boolean
+ putTokenPlayerFromTurn(Coordinate): void
+ moveTokenPlayerFromTurn(Coordinate[]): void
+ changeTurn(): void
+ getToken(int, int): Token
+ isTicTacToe(): boolean
+ getOtherValueFromTurn(): int
+ getValueState(): StateValue
}
tictactoe.models.Session *-down-> tictactoe.models.State
tictactoe.models.Session *-down-> tictactoe.models.Game
tictactoe.models.Session *-down-> tictactoe.models.Registry
tictactoe.models.Session *-down-> utils.TCPIP

class  tictactoe.models.State{
- stateValue: StateValue
+ State()
+ next(): void
+ getValueState(): StateValue
}
tictactoe.models.State *-down-> tictactoe.types.StateValue

class  tictactoe.models.Turn{
+ {static} PLAYERS: int
- value: int
- players: Player[]
+ Turn(Player[])
+ Turn(Player[], int)
~ change(): void
~ getPlayer(): Player
~ getOtherValue(): int
~ getOtherPlayer(): Player
~ copy(Player[]): Turn
}
tictactoe.models.Turn *-down-> tictactoe.models.Player

@enduml

PlantUML version 1.2020.15(Sun Jun 28 13:39:45 CEST 2020)
(GPL source distribution)
Java Runtime: Java(TM) SE Runtime Environment
JVM: Java HotSpot(TM) 64-Bit Server VM
Default Encoding: windows-1252
Language: es
Country: ES
--></g></svg>