<?xml version="1.0" encoding="UTF-8" standalone="no"?><svg xmlns="http://www.w3.org/2000/svg" xmlns:xlink="http://www.w3.org/1999/xlink" contentScriptType="application/ecmascript" contentStyleType="text/css" height="365px" preserveAspectRatio="none" style="width:844px;height:365px;" version="1.1" viewBox="0 0 844 365" width="844px" zoomAndPan="magnify"><defs><filter height="300%" id="f1k6c505e2zie6" width="300%" x="-1" y="-1"><feGaussianBlur result="blurOut" stdDeviation="2.0"/><feColorMatrix in="blurOut" result="blurOut2" type="matrix" values="0 0 0 0 0 0 0 0 0 0 0 0 0 0 0 0 0 0 .4 0"/><feOffset dx="4.0" dy="4.0" in="blurOut2" result="blurOut3"/><feBlend in="SourceGraphic" in2="blurOut3" mode="normal"/></filter></defs><g><!--MD5=[ee7e9a007a7c4d40c0679a27f272732d]
cluster tictactoe.controllers--><polygon fill="#FFFFFF" filter="url(#f1k6c505e2zie6)" points="16,6,164,6,171,29.6094,666,29.6094,666,353,16,353,16,6" style="stroke: #000000; stroke-width: 1.5;"/><line style="stroke: #000000; stroke-width: 1.5;" x1="16" x2="171" y1="29.6094" y2="29.6094"/><text fill="#000000" font-family="sans-serif" font-size="14" font-weight="bold" lengthAdjust="spacingAndGlyphs" textLength="142" x="20" y="22.5332">tictactoe.controllers</text><!--MD5=[51cd642fcc96b47682a93d9084d46dec]
cluster tictactoe.models--><polygon fill="#FFFFFF" filter="url(#f1k6c505e2zie6)" points="690,204.5,812,204.5,819,228.1094,822,228.1094,822,304.5,690,304.5,690,204.5" style="stroke: #000000; stroke-width: 1.5;"/><line style="stroke: #000000; stroke-width: 1.5;" x1="690" x2="819" y1="228.1094" y2="228.1094"/><text fill="#000000" font-family="sans-serif" font-size="14" font-weight="bold" lengthAdjust="spacingAndGlyphs" textLength="116" x="694" y="221.0332">tictactoe.models</text><!--MD5=[957eef6538bab7382edbc29d98579a60]
class tictactoe.controllers.Controller--><rect fill="#FEFECE" filter="url(#f1k6c505e2zie6)" height="89.5078" id="tictactoe.controllers.Controller" style="stroke: #A80036; stroke-width: 1.5;" width="113" x="435.5" y="42"/><ellipse cx="462.65" cy="58" fill="#ADD1B2" rx="11" ry="11" style="stroke: #A80036; stroke-width: 1.0;"/><path d="M465.4156,53.875 Q465.5719,53.6563 465.7594,53.5469 Q465.9469,53.4375 466.1656,53.4375 Q466.5406,53.4375 466.775,53.7031 Q467.0094,53.9531 467.0094,54.5625 L467.0094,56.0156 Q467.0094,56.625 466.775,56.8906 Q466.5406,57.1563 466.1656,57.1563 Q465.8219,57.1563 465.6188,56.9531 Q465.4156,56.7656 465.3063,56.25 Q465.2594,55.8906 465.0719,55.7031 Q464.7438,55.3281 464.1344,55.1094 Q463.525,54.8906 462.9,54.8906 Q462.1344,54.8906 461.4938,55.2188 Q460.8688,55.5469 460.3688,56.2969 Q459.8844,57.0469 459.8844,58.0781 L459.8844,59.1719 Q459.8844,60.4063 460.775,61.2344 Q461.6656,62.0469 463.2594,62.0469 Q464.1969,62.0469 464.8531,61.7969 Q465.2438,61.6406 465.6656,61.2031 Q465.9313,60.9375 466.0719,60.8594 Q466.2281,60.7813 466.4313,60.7813 Q466.7594,60.7813 467.0094,61.0469 Q467.275,61.2969 467.275,61.6406 Q467.275,61.9844 466.9313,62.3906 Q466.4313,62.9688 465.6344,63.2969 Q464.5563,63.75 463.2594,63.75 Q461.7438,63.75 460.5406,63.125 Q459.5563,62.625 458.8688,61.5625 Q458.1813,60.4844 458.1813,59.2031 L458.1813,58.0469 Q458.1813,56.7188 458.7906,55.5781 Q459.4156,54.4219 460.5094,53.8125 Q461.6031,53.1875 462.8375,53.1875 Q463.5719,53.1875 464.2125,53.3594 Q464.8688,53.5156 465.4156,53.875 Z "/><text fill="#000000" font-family="sans-serif" font-size="12" lengthAdjust="spacingAndGlyphs" textLength="54" x="479.35" y="62.9102">Controller</text><line style="stroke: #A80036; stroke-width: 1.5;" x1="436.5" x2="547.5" y1="74" y2="74"/><polygon fill="none" points="446.5,80,450.5,84,446.5,88,442.5,84" style="stroke: #B38D22; stroke-width: 1.0;"/><text fill="#000000" font-family="sans-serif" font-size="11" lengthAdjust="spacingAndGlyphs" textLength="60" x="455.5" y="89.4189">game: Game</text><line style="stroke: #A80036; stroke-width: 1.5;" x1="436.5" x2="547.5" y1="95.8359" y2="95.8359"/><polygon fill="#4177AF" points="446.5,102.8359,442.5,108.8359,450.5,108.8359" style="stroke: #1963A0; stroke-width: 1.0;"/><text fill="#000000" font-family="sans-serif" font-size="11" lengthAdjust="spacingAndGlyphs" textLength="82" x="455.5" y="111.2549">Controller(Game)</text><ellipse cx="446.5" cy="120.6719" fill="#84BE84" rx="3" ry="3" style="stroke: #038048; stroke-width: 1.0;"/><text fill="#000000" font-family="sans-serif" font-size="11" lengthAdjust="spacingAndGlyphs" textLength="87" x="455.5" y="125.0908">getBoard(): Board</text><!--MD5=[b574e60c06c50037ff1b014277a67d62]
class tictactoe.controllers.PlayController--><rect fill="#FEFECE" filter="url(#f1k6c505e2zie6)" height="144.8516" id="tictactoe.controllers.PlayController" style="stroke: #A80036; stroke-width: 1.5;" width="249" x="32.5" y="192"/><ellipse cx="114.25" cy="208" fill="#ADD1B2" rx="11" ry="11" style="stroke: #A80036; stroke-width: 1.0;"/><path d="M117.0156,203.875 Q117.1719,203.6563 117.3594,203.5469 Q117.5469,203.4375 117.7656,203.4375 Q118.1406,203.4375 118.375,203.7031 Q118.6094,203.9531 118.6094,204.5625 L118.6094,206.0156 Q118.6094,206.625 118.375,206.8906 Q118.1406,207.1563 117.7656,207.1563 Q117.4219,207.1563 117.2188,206.9531 Q117.0156,206.7656 116.9063,206.25 Q116.8594,205.8906 116.6719,205.7031 Q116.3438,205.3281 115.7344,205.1094 Q115.125,204.8906 114.5,204.8906 Q113.7344,204.8906 113.0938,205.2188 Q112.4688,205.5469 111.9688,206.2969 Q111.4844,207.0469 111.4844,208.0781 L111.4844,209.1719 Q111.4844,210.4063 112.375,211.2344 Q113.2656,212.0469 114.8594,212.0469 Q115.7969,212.0469 116.4531,211.7969 Q116.8438,211.6406 117.2656,211.2031 Q117.5313,210.9375 117.6719,210.8594 Q117.8281,210.7813 118.0313,210.7813 Q118.3594,210.7813 118.6094,211.0469 Q118.875,211.2969 118.875,211.6406 Q118.875,211.9844 118.5313,212.3906 Q118.0313,212.9688 117.2344,213.2969 Q116.1563,213.75 114.8594,213.75 Q113.3438,213.75 112.1406,213.125 Q111.1563,212.625 110.4688,211.5625 Q109.7813,210.4844 109.7813,209.2031 L109.7813,208.0469 Q109.7813,206.7188 110.3906,205.5781 Q111.0156,204.4219 112.1094,203.8125 Q113.2031,203.1875 114.4375,203.1875 Q115.1719,203.1875 115.8125,203.3594 Q116.4688,203.5156 117.0156,203.875 Z "/><text fill="#000000" font-family="sans-serif" font-size="12" lengthAdjust="spacingAndGlyphs" textLength="77" x="134.75" y="212.9102">PlayController</text><line style="stroke: #A80036; stroke-width: 1.5;" x1="33.5" x2="280.5" y1="224" y2="224"/><line style="stroke: #A80036; stroke-width: 1.5;" x1="33.5" x2="280.5" y1="232" y2="232"/><ellipse cx="43.5" cy="243" fill="#84BE84" rx="3" ry="3" style="stroke: #038048; stroke-width: 1.0;"/><text fill="#000000" font-family="sans-serif" font-size="11" lengthAdjust="spacingAndGlyphs" textLength="102" x="52.5" y="247.4189">PlayController(Game)</text><ellipse cx="43.5" cy="256.8359" fill="#84BE84" rx="3" ry="3" style="stroke: #038048; stroke-width: 1.0;"/><text fill="#000000" font-family="sans-serif" font-size="11" lengthAdjust="spacingAndGlyphs" textLength="164" x="52.5" y="261.2549">getTokenPlayerFromTurn(): Player</text><ellipse cx="43.5" cy="270.6719" fill="#84BE84" rx="3" ry="3" style="stroke: #038048; stroke-width: 1.0;"/><text fill="#000000" font-family="sans-serif" font-size="11" lengthAdjust="spacingAndGlyphs" textLength="133" x="52.5" y="275.0908">isBoardComplete(): boolean</text><ellipse cx="43.5" cy="284.5078" fill="#84BE84" rx="3" ry="3" style="stroke: #038048; stroke-width: 1.0;"/><text fill="#000000" font-family="sans-serif" font-size="11" lengthAdjust="spacingAndGlyphs" textLength="206" x="52.5" y="288.9268">putTokenPlayerFromTurn(Coordinate): void</text><ellipse cx="43.5" cy="298.3438" fill="#84BE84" rx="3" ry="3" style="stroke: #038048; stroke-width: 1.0;"/><text fill="#000000" font-family="sans-serif" font-size="11" lengthAdjust="spacingAndGlyphs" textLength="223" x="52.5" y="302.7627">moveTokenPlayerFromTurn(Coordinate[]): void</text><ellipse cx="43.5" cy="312.1797" fill="#84BE84" rx="3" ry="3" style="stroke: #038048; stroke-width: 1.0;"/><text fill="#000000" font-family="sans-serif" font-size="11" lengthAdjust="spacingAndGlyphs" textLength="92" x="52.5" y="316.5986">changeTurn(): void</text><ellipse cx="43.5" cy="326.0156" fill="#84BE84" rx="3" ry="3" style="stroke: #038048; stroke-width: 1.0;"/><text fill="#000000" font-family="sans-serif" font-size="11" lengthAdjust="spacingAndGlyphs" textLength="110" x="52.5" y="330.4346">isTicTacToe(): boolean</text><!--MD5=[2c3ef77d19c2424f55dfd6db4f13e20e]
class tictactoe.controllers.ResultController--><rect fill="#FEFECE" filter="url(#f1k6c505e2zie6)" height="75.6719" id="tictactoe.controllers.ResultController" style="stroke: #A80036; stroke-width: 1.5;" width="167" x="316.5" y="226.5"/><ellipse cx="351.75" cy="242.5" fill="#ADD1B2" rx="11" ry="11" style="stroke: #A80036; stroke-width: 1.0;"/><path d="M354.5156,238.375 Q354.6719,238.1563 354.8594,238.0469 Q355.0469,237.9375 355.2656,237.9375 Q355.6406,237.9375 355.875,238.2031 Q356.1094,238.4531 356.1094,239.0625 L356.1094,240.5156 Q356.1094,241.125 355.875,241.3906 Q355.6406,241.6563 355.2656,241.6563 Q354.9219,241.6563 354.7188,241.4531 Q354.5156,241.2656 354.4063,240.75 Q354.3594,240.3906 354.1719,240.2031 Q353.8438,239.8281 353.2344,239.6094 Q352.625,239.3906 352,239.3906 Q351.2344,239.3906 350.5938,239.7188 Q349.9688,240.0469 349.4688,240.7969 Q348.9844,241.5469 348.9844,242.5781 L348.9844,243.6719 Q348.9844,244.9063 349.875,245.7344 Q350.7656,246.5469 352.3594,246.5469 Q353.2969,246.5469 353.9531,246.2969 Q354.3438,246.1406 354.7656,245.7031 Q355.0313,245.4375 355.1719,245.3594 Q355.3281,245.2813 355.5313,245.2813 Q355.8594,245.2813 356.1094,245.5469 Q356.375,245.7969 356.375,246.1406 Q356.375,246.4844 356.0313,246.8906 Q355.5313,247.4688 354.7344,247.7969 Q353.6563,248.25 352.3594,248.25 Q350.8438,248.25 349.6406,247.625 Q348.6563,247.125 347.9688,246.0625 Q347.2813,244.9844 347.2813,243.7031 L347.2813,242.5469 Q347.2813,241.2188 347.8906,240.0781 Q348.5156,238.9219 349.6094,238.3125 Q350.7031,237.6875 351.9375,237.6875 Q352.6719,237.6875 353.3125,237.8594 Q353.9688,238.0156 354.5156,238.375 Z "/><text fill="#000000" font-family="sans-serif" font-size="12" lengthAdjust="spacingAndGlyphs" textLength="90" x="370.25" y="247.4102">ResultController</text><line style="stroke: #A80036; stroke-width: 1.5;" x1="317.5" x2="482.5" y1="258.5" y2="258.5"/><line style="stroke: #A80036; stroke-width: 1.5;" x1="317.5" x2="482.5" y1="266.5" y2="266.5"/><ellipse cx="327.5" cy="277.5" fill="#84BE84" rx="3" ry="3" style="stroke: #038048; stroke-width: 1.0;"/><text fill="#000000" font-family="sans-serif" font-size="11" lengthAdjust="spacingAndGlyphs" textLength="112" x="336.5" y="281.9189">ResultController(Game)</text><ellipse cx="327.5" cy="291.3359" fill="#84BE84" rx="3" ry="3" style="stroke: #038048; stroke-width: 1.0;"/><text fill="#000000" font-family="sans-serif" font-size="11" lengthAdjust="spacingAndGlyphs" textLength="141" x="336.5" y="295.7549">getOtherValueFromTurn(): int</text><!--MD5=[8ede4dbfb3b498095887802b64b699f0]
class tictactoe.controllers.StartController--><rect fill="#FEFECE" filter="url(#f1k6c505e2zie6)" height="75.6719" id="tictactoe.controllers.StartController" style="stroke: #A80036; stroke-width: 1.5;" width="131" x="518.5" y="226.5"/><ellipse cx="542.5" cy="242.5" fill="#ADD1B2" rx="11" ry="11" style="stroke: #A80036; stroke-width: 1.0;"/><path d="M545.2656,238.375 Q545.4219,238.1563 545.6094,238.0469 Q545.7969,237.9375 546.0156,237.9375 Q546.3906,237.9375 546.625,238.2031 Q546.8594,238.4531 546.8594,239.0625 L546.8594,240.5156 Q546.8594,241.125 546.625,241.3906 Q546.3906,241.6563 546.0156,241.6563 Q545.6719,241.6563 545.4688,241.4531 Q545.2656,241.2656 545.1563,240.75 Q545.1094,240.3906 544.9219,240.2031 Q544.5938,239.8281 543.9844,239.6094 Q543.375,239.3906 542.75,239.3906 Q541.9844,239.3906 541.3438,239.7188 Q540.7188,240.0469 540.2188,240.7969 Q539.7344,241.5469 539.7344,242.5781 L539.7344,243.6719 Q539.7344,244.9063 540.625,245.7344 Q541.5156,246.5469 543.1094,246.5469 Q544.0469,246.5469 544.7031,246.2969 Q545.0938,246.1406 545.5156,245.7031 Q545.7813,245.4375 545.9219,245.3594 Q546.0781,245.2813 546.2813,245.2813 Q546.6094,245.2813 546.8594,245.5469 Q547.125,245.7969 547.125,246.1406 Q547.125,246.4844 546.7813,246.8906 Q546.2813,247.4688 545.4844,247.7969 Q544.4063,248.25 543.1094,248.25 Q541.5938,248.25 540.3906,247.625 Q539.4063,247.125 538.7188,246.0625 Q538.0313,244.9844 538.0313,243.7031 L538.0313,242.5469 Q538.0313,241.2188 538.6406,240.0781 Q539.2656,238.9219 540.3594,238.3125 Q541.4531,237.6875 542.6875,237.6875 Q543.4219,237.6875 544.0625,237.8594 Q544.7188,238.0156 545.2656,238.375 Z "/><text fill="#000000" font-family="sans-serif" font-size="12" lengthAdjust="spacingAndGlyphs" textLength="79" x="558.5" y="247.4102">StartController</text><line style="stroke: #A80036; stroke-width: 1.5;" x1="519.5" x2="648.5" y1="258.5" y2="258.5"/><line style="stroke: #A80036; stroke-width: 1.5;" x1="519.5" x2="648.5" y1="266.5" y2="266.5"/><ellipse cx="529.5" cy="277.5" fill="#84BE84" rx="3" ry="3" style="stroke: #038048; stroke-width: 1.0;"/><text fill="#000000" font-family="sans-serif" font-size="11" lengthAdjust="spacingAndGlyphs" textLength="105" x="538.5" y="281.9189">StartController(Game)</text><ellipse cx="529.5" cy="291.3359" fill="#84BE84" rx="3" ry="3" style="stroke: #038048; stroke-width: 1.0;"/><text fill="#000000" font-family="sans-serif" font-size="11" lengthAdjust="spacingAndGlyphs" textLength="101" x="538.5" y="295.7549">createPlayers(): void</text><!--MD5=[8d3188f3c370ea7d5d91d12bca83b67a]
class tictactoe.models.Game--><rect fill="#FEFECE" filter="url(#f1k6c505e2zie6)" height="48" id="tictactoe.models.Game" style="stroke: #A80036; stroke-width: 1.5;" width="66" x="706" y="240.5"/><ellipse cx="721" cy="256.5" fill="#ADD1B2" rx="11" ry="11" style="stroke: #A80036; stroke-width: 1.0;"/><path d="M723.7656,252.375 Q723.9219,252.1563 724.1094,252.0469 Q724.2969,251.9375 724.5156,251.9375 Q724.8906,251.9375 725.125,252.2031 Q725.3594,252.4531 725.3594,253.0625 L725.3594,254.5156 Q725.3594,255.125 725.125,255.3906 Q724.8906,255.6563 724.5156,255.6563 Q724.1719,255.6563 723.9688,255.4531 Q723.7656,255.2656 723.6563,254.75 Q723.6094,254.3906 723.4219,254.2031 Q723.0938,253.8281 722.4844,253.6094 Q721.875,253.3906 721.25,253.3906 Q720.4844,253.3906 719.8438,253.7188 Q719.2188,254.0469 718.7188,254.7969 Q718.2344,255.5469 718.2344,256.5781 L718.2344,257.6719 Q718.2344,258.9063 719.125,259.7344 Q720.0156,260.5469 721.6094,260.5469 Q722.5469,260.5469 723.2031,260.2969 Q723.5938,260.1406 724.0156,259.7031 Q724.2813,259.4375 724.4219,259.3594 Q724.5781,259.2813 724.7813,259.2813 Q725.1094,259.2813 725.3594,259.5469 Q725.625,259.7969 725.625,260.1406 Q725.625,260.4844 725.2813,260.8906 Q724.7813,261.4688 723.9844,261.7969 Q722.9063,262.25 721.6094,262.25 Q720.0938,262.25 718.8906,261.625 Q717.9063,261.125 717.2188,260.0625 Q716.5313,258.9844 716.5313,257.7031 L716.5313,256.5469 Q716.5313,255.2188 717.1406,254.0781 Q717.7656,252.9219 718.8594,252.3125 Q719.9531,251.6875 721.1875,251.6875 Q721.9219,251.6875 722.5625,251.8594 Q723.2188,252.0156 723.7656,252.375 Z "/><text fill="#000000" font-family="sans-serif" font-size="12" lengthAdjust="spacingAndGlyphs" textLength="34" x="735" y="261.4102">Game</text><line style="stroke: #A80036; stroke-width: 1.5;" x1="707" x2="771" y1="272.5" y2="272.5"/><line style="stroke: #A80036; stroke-width: 1.5;" x1="707" x2="771" y1="280.5" y2="280.5"/><!--MD5=[67f54059f517de4e17e4f415259fadfa]
link tictactoe.controllers.Controller to tictactoe.models.Game--><path d="M548.632,117.378 C583.759,136.666 629.073,163.525 666,192 C683.336,205.368 700.92,222.461 714.486,236.582 " fill="none" id="tictactoe.controllers.Controller-&gt;tictactoe.models.Game" style="stroke: #A80036; stroke-width: 1.0; stroke-dasharray: 7.0,7.0;"/><polygon fill="#A80036" points="718.202,240.481,714.8885,231.2063,714.7525,236.8615,709.0973,236.7255,718.202,240.481" style="stroke: #A80036; stroke-width: 1.0;"/><!--MD5=[5700b97431232c099330215bddfcc855]
reverse link tictactoe.controllers.Controller to tictactoe.controllers.PlayController--><path d="M417.331,127.118 C377.43,148.021 327.258,174.305 281.634,198.207 " fill="none" id="tictactoe.controllers.Controller&lt;-tictactoe.controllers.PlayController" style="stroke: #A80036; stroke-width: 1.0;"/><polygon fill="none" points="414.207,120.852,435.172,117.771,420.704,133.253,414.207,120.852" style="stroke: #A80036; stroke-width: 1.0;"/><!--MD5=[8f435ed2c59169c4603cda7b7477fe61]
reverse link tictactoe.controllers.Controller to tictactoe.controllers.ResultController--><path d="M459.427,150.137 C446.075,175.608 431.068,204.234 419.476,226.348 " fill="none" id="tictactoe.controllers.Controller&lt;-tictactoe.controllers.ResultController" style="stroke: #A80036; stroke-width: 1.0;"/><polygon fill="none" points="453.299,146.75,468.785,132.286,465.698,153.25,453.299,146.75" style="stroke: #A80036; stroke-width: 1.0;"/><!--MD5=[5deb1e5c7bf9906a35de112138d88f9c]
reverse link tictactoe.controllers.Controller to tictactoe.controllers.StartController--><path d="M524.573,150.137 C537.925,175.608 552.932,204.234 564.524,226.348 " fill="none" id="tictactoe.controllers.Controller&lt;-tictactoe.controllers.StartController" style="stroke: #A80036; stroke-width: 1.0;"/><polygon fill="none" points="518.302,153.25,515.215,132.286,530.701,146.75,518.302,153.25" style="stroke: #A80036; stroke-width: 1.0;"/><!--MD5=[3f31e19085ca7a3b64d2df7998d4679a]
@startuml

class  tictactoe.controllers.Controller{
# game: Game
~ Controller(Game)
+ getBoard(): Board
}
tictactoe.controllers.Controller ..> tictactoe.models.Game

class  tictactoe.controllers.PlayController{
+ PlayController(Game)
+ getTokenPlayerFromTurn(): Player
+ isBoardComplete(): boolean
+ putTokenPlayerFromTurn(Coordinate): void
+ moveTokenPlayerFromTurn(Coordinate[]): void
+ changeTurn(): void
+ isTicTacToe(): boolean
}
tictactoe.controllers.Controller <|-down- tictactoe.controllers.PlayController

class  tictactoe.controllers.ResultController{
+ ResultController(Game)
+ getOtherValueFromTurn(): int
}
tictactoe.controllers.Controller <|-down- tictactoe.controllers.ResultController

class  tictactoe.controllers.StartController{
+ StartController(Game)
+ createPlayers(): void
}
tictactoe.controllers.Controller <|-down- tictactoe.controllers.StartController

@enduml

PlantUML version 1.2020.15(Sun Jun 28 13:39:45 CEST 2020)
(GPL source distribution)
Java Runtime: Java(TM) SE Runtime Environment
JVM: Java HotSpot(TM) 64-Bit Server VM
Default Encoding: windows-1252
Language: es
Country: ES
--></g></svg>