<?xml version="1.0" encoding="UTF-8" standalone="no"?><svg xmlns="http://www.w3.org/2000/svg" xmlns:xlink="http://www.w3.org/1999/xlink" contentScriptType="application/ecmascript" contentStyleType="text/css" height="666px" preserveAspectRatio="none" style="width:1454px;height:666px;" version="1.1" viewBox="0 0 1454 666" width="1454px" zoomAndPan="magnify"><defs><filter height="300%" id="f1swfgc2pzs3hu" width="300%" x="-1" y="-1"><feGaussianBlur result="blurOut" stdDeviation="2.0"/><feColorMatrix in="blurOut" result="blurOut2" type="matrix" values="0 0 0 0 0 0 0 0 0 0 0 0 0 0 0 0 0 0 .4 0"/><feOffset dx="4.0" dy="4.0" in="blurOut2" result="blurOut3"/><feBlend in="SourceGraphic" in2="blurOut3" mode="normal"/></filter></defs><g><!--MD5=[64182ab34c08ac367bbf699869515711]
cluster tictactoe.views.console--><polygon fill="#FFFFFF" filter="url(#f1swfgc2pzs3hu)" points="172,130,344,130,351,153.6094,962,153.6094,962,654,172,654,172,130" style="stroke: #000000; stroke-width: 1.5;"/><line style="stroke: #000000; stroke-width: 1.5;" x1="172" x2="351" y1="153.6094" y2="153.6094"/><text fill="#000000" font-family="sans-serif" font-size="14" font-weight="bold" lengthAdjust="spacingAndGlyphs" textLength="166" x="176" y="146.5332">tictactoe.views.console</text><!--MD5=[c52f45833d539af9e29a9d34b8b7302b]
cluster utils--><polygon fill="#FFFFFF" filter="url(#f1swfgc2pzs3hu)" points="986,356,1022,356,1029,379.6094,1432,379.6094,1432,456,986,456,986,356" style="stroke: #000000; stroke-width: 1.5;"/><line style="stroke: #000000; stroke-width: 1.5;" x1="986" x2="1029" y1="379.6094" y2="379.6094"/><text fill="#000000" font-family="sans-serif" font-size="14" font-weight="bold" lengthAdjust="spacingAndGlyphs" textLength="30" x="990" y="372.5332">utils</text><!--MD5=[f4e83a21a957c5b9ba9691e6361db36b]
cluster tictactoe.views--><polygon fill="#FFFFFF" filter="url(#f1swfgc2pzs3hu)" points="152,6,264,6,271,29.6094,490,29.6094,490,106,152,106,152,6" style="stroke: #000000; stroke-width: 1.5;"/><line style="stroke: #000000; stroke-width: 1.5;" x1="152" x2="271" y1="29.6094" y2="29.6094"/><text fill="#000000" font-family="sans-serif" font-size="14" font-weight="bold" lengthAdjust="spacingAndGlyphs" textLength="106" x="156" y="22.5332">tictactoe.views</text><!--MD5=[51cd642fcc96b47682a93d9084d46dec]
cluster tictactoe.models--><polygon fill="#FFFFFF" filter="url(#f1swfgc2pzs3hu)" points="16,519.5,138,519.5,145,543.1094,148,543.1094,148,619.5,16,619.5,16,519.5" style="stroke: #000000; stroke-width: 1.5;"/><line style="stroke: #000000; stroke-width: 1.5;" x1="16" x2="145" y1="543.1094" y2="543.1094"/><text fill="#000000" font-family="sans-serif" font-size="14" font-weight="bold" lengthAdjust="spacingAndGlyphs" textLength="116" x="20" y="536.0332">tictactoe.models</text><!--MD5=[270aad5bca7cd81b5a24665b2403b70b]
class tictactoe.views.console.BoardView--><rect fill="#FEFECE" filter="url(#f1swfgc2pzs3hu)" height="117.1797" id="tictactoe.views.console.BoardView" style="stroke: #A80036; stroke-width: 1.5;" width="201" x="676.5" y="521"/><ellipse cx="743.25" cy="537" fill="#ADD1B2" rx="11" ry="11" style="stroke: #A80036; stroke-width: 1.0;"/><path d="M746.0156,532.875 Q746.1719,532.6563 746.3594,532.5469 Q746.5469,532.4375 746.7656,532.4375 Q747.1406,532.4375 747.375,532.7031 Q747.6094,532.9531 747.6094,533.5625 L747.6094,535.0156 Q747.6094,535.625 747.375,535.8906 Q747.1406,536.1563 746.7656,536.1563 Q746.4219,536.1563 746.2188,535.9531 Q746.0156,535.7656 745.9063,535.25 Q745.8594,534.8906 745.6719,534.7031 Q745.3438,534.3281 744.7344,534.1094 Q744.125,533.8906 743.5,533.8906 Q742.7344,533.8906 742.0938,534.2188 Q741.4688,534.5469 740.9688,535.2969 Q740.4844,536.0469 740.4844,537.0781 L740.4844,538.1719 Q740.4844,539.4063 741.375,540.2344 Q742.2656,541.0469 743.8594,541.0469 Q744.7969,541.0469 745.4531,540.7969 Q745.8438,540.6406 746.2656,540.2031 Q746.5313,539.9375 746.6719,539.8594 Q746.8281,539.7813 747.0313,539.7813 Q747.3594,539.7813 747.6094,540.0469 Q747.875,540.2969 747.875,540.6406 Q747.875,540.9844 747.5313,541.3906 Q747.0313,541.9688 746.2344,542.2969 Q745.1563,542.75 743.8594,542.75 Q742.3438,542.75 741.1406,542.125 Q740.1563,541.625 739.4688,540.5625 Q738.7813,539.4844 738.7813,538.2031 L738.7813,537.0469 Q738.7813,535.7188 739.3906,534.5781 Q740.0156,533.4219 741.1094,532.8125 Q742.2031,532.1875 743.4375,532.1875 Q744.1719,532.1875 744.8125,532.3594 Q745.4688,532.5156 746.0156,532.875 Z "/><text fill="#000000" font-family="sans-serif" font-size="12" lengthAdjust="spacingAndGlyphs" textLength="59" x="763.75" y="541.9102">BoardView</text><line style="stroke: #A80036; stroke-width: 1.5;" x1="677.5" x2="876.5" y1="553" y2="553"/><polygon fill="none" points="687.5,560,683.5,566,691.5,566" style="stroke: #1963A0; stroke-width: 1.0;"/><text fill="#000000" font-family="sans-serif" font-size="11" lengthAdjust="spacingAndGlyphs" textLength="63" x="696.5" y="568.4189">board: Board</text><line style="stroke: #A80036; stroke-width: 1.5;" x1="677.5" x2="876.5" y1="574.8359" y2="574.8359"/><polygon fill="#4177AF" points="687.5,581.8359,683.5,587.8359,691.5,587.8359" style="stroke: #1963A0; stroke-width: 1.0;"/><text fill="#000000" font-family="sans-serif" font-size="11" lengthAdjust="spacingAndGlyphs" textLength="92" x="696.5" y="590.2549">BoardView(Board)</text><polygon fill="#4177AF" points="687.5,595.6719,683.5,601.6719,691.5,601.6719" style="stroke: #1963A0; stroke-width: 1.0;"/><text fill="#000000" font-family="sans-serif" font-size="11" lengthAdjust="spacingAndGlyphs" textLength="59" x="696.5" y="604.0908">write(): void</text><rect fill="#F24D5C" height="6" style="stroke: #C82930; stroke-width: 1.0;" width="6" x="684.5" y="610.5078"/><text fill="#000000" font-family="sans-serif" font-size="11" lengthAdjust="spacingAndGlyphs" textLength="118" x="696.5" y="617.9268">printRowBoard(int): void</text><rect fill="#F24D5C" height="6" style="stroke: #C82930; stroke-width: 1.0;" width="6" x="684.5" y="624.3438"/><text fill="#000000" font-family="sans-serif" font-size="11" lengthAdjust="spacingAndGlyphs" textLength="175" x="696.5" y="631.7627">printSquareValueBoard(int, int): void</text><!--MD5=[bde0c8ed193d8d2dbac1dee471354ab0]
class tictactoe.views.console.ConsoleView--><rect fill="#FEFECE" filter="url(#f1swfgc2pzs3hu)" height="144.8516" id="tictactoe.views.console.ConsoleView" style="stroke: #A80036; stroke-width: 1.5;" width="159" x="746.5" y="166"/><ellipse cx="785.8" cy="182" fill="#ADD1B2" rx="11" ry="11" style="stroke: #A80036; stroke-width: 1.0;"/><path d="M788.5656,177.875 Q788.7219,177.6563 788.9094,177.5469 Q789.0969,177.4375 789.3156,177.4375 Q789.6906,177.4375 789.925,177.7031 Q790.1594,177.9531 790.1594,178.5625 L790.1594,180.0156 Q790.1594,180.625 789.925,180.8906 Q789.6906,181.1563 789.3156,181.1563 Q788.9719,181.1563 788.7688,180.9531 Q788.5656,180.7656 788.4563,180.25 Q788.4094,179.8906 788.2219,179.7031 Q787.8938,179.3281 787.2844,179.1094 Q786.675,178.8906 786.05,178.8906 Q785.2844,178.8906 784.6438,179.2188 Q784.0188,179.5469 783.5188,180.2969 Q783.0344,181.0469 783.0344,182.0781 L783.0344,183.1719 Q783.0344,184.4063 783.925,185.2344 Q784.8156,186.0469 786.4094,186.0469 Q787.3469,186.0469 788.0031,185.7969 Q788.3938,185.6406 788.8156,185.2031 Q789.0813,184.9375 789.2219,184.8594 Q789.3781,184.7813 789.5813,184.7813 Q789.9094,184.7813 790.1594,185.0469 Q790.425,185.2969 790.425,185.6406 Q790.425,185.9844 790.0813,186.3906 Q789.5813,186.9688 788.7844,187.2969 Q787.7063,187.75 786.4094,187.75 Q784.8938,187.75 783.6906,187.125 Q782.7063,186.625 782.0188,185.5625 Q781.3313,184.4844 781.3313,183.2031 L781.3313,182.0469 Q781.3313,180.7188 781.9406,179.5781 Q782.5656,178.4219 783.6594,177.8125 Q784.7531,177.1875 785.9875,177.1875 Q786.7219,177.1875 787.3625,177.3594 Q788.0188,177.5156 788.5656,177.875 Z "/><text fill="#000000" font-family="sans-serif" font-size="12" lengthAdjust="spacingAndGlyphs" textLength="73" x="805.2" y="186.9102">ConsoleView</text><line style="stroke: #A80036; stroke-width: 1.5;" x1="747.5" x2="904.5" y1="198" y2="198"/><rect fill="none" height="6" style="stroke: #C82930; stroke-width: 1.0;" width="6" x="754.5" y="206"/><text fill="#000000" font-family="sans-serif" font-size="11" lengthAdjust="spacingAndGlyphs" textLength="103" x="766.5" y="213.4189">startView: StartView</text><rect fill="none" height="6" style="stroke: #C82930; stroke-width: 1.0;" width="6" x="754.5" y="219.8359"/><text fill="#000000" font-family="sans-serif" font-size="11" lengthAdjust="spacingAndGlyphs" textLength="98" x="766.5" y="227.2549">playView: PlayView</text><rect fill="none" height="6" style="stroke: #C82930; stroke-width: 1.0;" width="6" x="754.5" y="233.6719"/><text fill="#000000" font-family="sans-serif" font-size="11" lengthAdjust="spacingAndGlyphs" textLength="133" x="766.5" y="241.0908">resumeView: ResumeView</text><line style="stroke: #A80036; stroke-width: 1.5;" x1="747.5" x2="904.5" y1="247.5078" y2="247.5078"/><ellipse cx="757.5" cy="258.5078" fill="#84BE84" rx="3" ry="3" style="stroke: #038048; stroke-width: 1.0;"/><text fill="#000000" font-family="sans-serif" font-size="11" lengthAdjust="spacingAndGlyphs" textLength="101" x="766.5" y="262.9268">ConsoleView(Game)</text><polygon fill="#FFFF44" points="757.5,267.3438,761.5,271.3438,757.5,275.3438,753.5,271.3438" style="stroke: #B38D22; stroke-width: 1.0;"/><text fill="#000000" font-family="sans-serif" font-size="11" lengthAdjust="spacingAndGlyphs" textLength="56" x="766.5" y="276.7627">start(): void</text><polygon fill="#FFFF44" points="757.5,281.1797,761.5,285.1797,757.5,289.1797,753.5,285.1797" style="stroke: #B38D22; stroke-width: 1.0;"/><text fill="#000000" font-family="sans-serif" font-size="11" lengthAdjust="spacingAndGlyphs" textLength="72" x="766.5" y="290.5986">play(): boolean</text><polygon fill="#FFFF44" points="757.5,295.0156,761.5,299.0156,757.5,303.0156,753.5,299.0156" style="stroke: #B38D22; stroke-width: 1.0;"/><text fill="#000000" font-family="sans-serif" font-size="11" lengthAdjust="spacingAndGlyphs" textLength="111" x="766.5" y="304.4346">isNewGame(): boolean</text><!--MD5=[54aa299435631381f3c0c028f26a058f]
class tictactoe.views.console.StartView--><rect fill="#FEFECE" filter="url(#f1swfgc2pzs3hu)" height="89.5078" id="tictactoe.views.console.StartView" style="stroke: #A80036; stroke-width: 1.5;" width="111" x="657.5" y="371"/><ellipse cx="685.1" cy="387" fill="#ADD1B2" rx="11" ry="11" style="stroke: #A80036; stroke-width: 1.0;"/><path d="M687.8656,382.875 Q688.0219,382.6563 688.2094,382.5469 Q688.3969,382.4375 688.6156,382.4375 Q688.9906,382.4375 689.225,382.7031 Q689.4594,382.9531 689.4594,383.5625 L689.4594,385.0156 Q689.4594,385.625 689.225,385.8906 Q688.9906,386.1563 688.6156,386.1563 Q688.2719,386.1563 688.0688,385.9531 Q687.8656,385.7656 687.7563,385.25 Q687.7094,384.8906 687.5219,384.7031 Q687.1938,384.3281 686.5844,384.1094 Q685.975,383.8906 685.35,383.8906 Q684.5844,383.8906 683.9438,384.2188 Q683.3188,384.5469 682.8188,385.2969 Q682.3344,386.0469 682.3344,387.0781 L682.3344,388.1719 Q682.3344,389.4063 683.225,390.2344 Q684.1156,391.0469 685.7094,391.0469 Q686.6469,391.0469 687.3031,390.7969 Q687.6938,390.6406 688.1156,390.2031 Q688.3813,389.9375 688.5219,389.8594 Q688.6781,389.7813 688.8813,389.7813 Q689.2094,389.7813 689.4594,390.0469 Q689.725,390.2969 689.725,390.6406 Q689.725,390.9844 689.3813,391.3906 Q688.8813,391.9688 688.0844,392.2969 Q687.0063,392.75 685.7094,392.75 Q684.1938,392.75 682.9906,392.125 Q682.0063,391.625 681.3188,390.5625 Q680.6313,389.4844 680.6313,388.2031 L680.6313,387.0469 Q680.6313,385.7188 681.2406,384.5781 Q681.8656,383.4219 682.9594,382.8125 Q684.0531,382.1875 685.2875,382.1875 Q686.0219,382.1875 686.6625,382.3594 Q687.3188,382.5156 687.8656,382.875 Z "/><text fill="#000000" font-family="sans-serif" font-size="12" lengthAdjust="spacingAndGlyphs" textLength="51" x="701.9" y="391.9102">StartView</text><line style="stroke: #A80036; stroke-width: 1.5;" x1="658.5" x2="767.5" y1="403" y2="403"/><polygon fill="none" points="668.5,410,664.5,416,672.5,416" style="stroke: #1963A0; stroke-width: 1.0;"/><text fill="#000000" font-family="sans-serif" font-size="11" lengthAdjust="spacingAndGlyphs" textLength="60" x="677.5" y="418.4189">game: Game</text><line style="stroke: #A80036; stroke-width: 1.5;" x1="658.5" x2="767.5" y1="424.8359" y2="424.8359"/><polygon fill="#4177AF" points="668.5,431.8359,664.5,437.8359,672.5,437.8359" style="stroke: #1963A0; stroke-width: 1.0;"/><text fill="#000000" font-family="sans-serif" font-size="11" lengthAdjust="spacingAndGlyphs" textLength="85" x="677.5" y="440.2549">StartView(Game)</text><polygon fill="#4177AF" points="668.5,445.6719,664.5,451.6719,672.5,451.6719" style="stroke: #1963A0; stroke-width: 1.0;"/><text fill="#000000" font-family="sans-serif" font-size="11" lengthAdjust="spacingAndGlyphs" textLength="70" x="677.5" y="454.0908">interact(): void</text><!--MD5=[0158df0baddf48f83142f472e341eacc]
class tictactoe.views.console.PlayView--><rect fill="#FEFECE" filter="url(#f1swfgc2pzs3hu)" height="89.5078" id="tictactoe.views.console.PlayView" style="stroke: #A80036; stroke-width: 1.5;" width="114" x="331" y="371"/><ellipse cx="360.85" cy="387" fill="#ADD1B2" rx="11" ry="11" style="stroke: #A80036; stroke-width: 1.0;"/><path d="M363.6156,382.875 Q363.7719,382.6563 363.9594,382.5469 Q364.1469,382.4375 364.3656,382.4375 Q364.7406,382.4375 364.975,382.7031 Q365.2094,382.9531 365.2094,383.5625 L365.2094,385.0156 Q365.2094,385.625 364.975,385.8906 Q364.7406,386.1563 364.3656,386.1563 Q364.0219,386.1563 363.8188,385.9531 Q363.6156,385.7656 363.5063,385.25 Q363.4594,384.8906 363.2719,384.7031 Q362.9438,384.3281 362.3344,384.1094 Q361.725,383.8906 361.1,383.8906 Q360.3344,383.8906 359.6938,384.2188 Q359.0688,384.5469 358.5688,385.2969 Q358.0844,386.0469 358.0844,387.0781 L358.0844,388.1719 Q358.0844,389.4063 358.975,390.2344 Q359.8656,391.0469 361.4594,391.0469 Q362.3969,391.0469 363.0531,390.7969 Q363.4438,390.6406 363.8656,390.2031 Q364.1313,389.9375 364.2719,389.8594 Q364.4281,389.7813 364.6313,389.7813 Q364.9594,389.7813 365.2094,390.0469 Q365.475,390.2969 365.475,390.6406 Q365.475,390.9844 365.1313,391.3906 Q364.6313,391.9688 363.8344,392.2969 Q362.7563,392.75 361.4594,392.75 Q359.9438,392.75 358.7406,392.125 Q357.7563,391.625 357.0688,390.5625 Q356.3813,389.4844 356.3813,388.2031 L356.3813,387.0469 Q356.3813,385.7188 356.9906,384.5781 Q357.6156,383.4219 358.7094,382.8125 Q359.8031,382.1875 361.0375,382.1875 Q361.7719,382.1875 362.4125,382.3594 Q363.0688,382.5156 363.6156,382.875 Z "/><text fill="#000000" font-family="sans-serif" font-size="12" lengthAdjust="spacingAndGlyphs" textLength="49" x="378.15" y="391.9102">PlayView</text><line style="stroke: #A80036; stroke-width: 1.5;" x1="332" x2="444" y1="403" y2="403"/><polygon fill="none" points="342,410,338,416,346,416" style="stroke: #1963A0; stroke-width: 1.0;"/><text fill="#000000" font-family="sans-serif" font-size="11" lengthAdjust="spacingAndGlyphs" textLength="60" x="351" y="418.4189">game: Game</text><line style="stroke: #A80036; stroke-width: 1.5;" x1="332" x2="444" y1="424.8359" y2="424.8359"/><polygon fill="#4177AF" points="342,431.8359,338,437.8359,346,437.8359" style="stroke: #1963A0; stroke-width: 1.0;"/><text fill="#000000" font-family="sans-serif" font-size="11" lengthAdjust="spacingAndGlyphs" textLength="82" x="351" y="440.2549">PlayView(Game)</text><polygon fill="#4177AF" points="342,445.6719,338,451.6719,346,451.6719" style="stroke: #1963A0; stroke-width: 1.0;"/><text fill="#000000" font-family="sans-serif" font-size="11" lengthAdjust="spacingAndGlyphs" textLength="88" x="351" y="454.0908">interact(): boolean</text><!--MD5=[863eeac66a77264bd74e28cbddefcd23]
class tictactoe.views.console.ResumeView--><rect fill="#FEFECE" filter="url(#f1swfgc2pzs3hu)" height="75.6719" id="tictactoe.views.console.ResumeView" style="stroke: #A80036; stroke-width: 1.5;" width="142" x="804" y="378"/><ellipse cx="835.2" cy="394" fill="#ADD1B2" rx="11" ry="11" style="stroke: #A80036; stroke-width: 1.0;"/><path d="M837.9656,389.875 Q838.1219,389.6563 838.3094,389.5469 Q838.4969,389.4375 838.7156,389.4375 Q839.0906,389.4375 839.325,389.7031 Q839.5594,389.9531 839.5594,390.5625 L839.5594,392.0156 Q839.5594,392.625 839.325,392.8906 Q839.0906,393.1563 838.7156,393.1563 Q838.3719,393.1563 838.1688,392.9531 Q837.9656,392.7656 837.8563,392.25 Q837.8094,391.8906 837.6219,391.7031 Q837.2938,391.3281 836.6844,391.1094 Q836.075,390.8906 835.45,390.8906 Q834.6844,390.8906 834.0438,391.2188 Q833.4188,391.5469 832.9188,392.2969 Q832.4344,393.0469 832.4344,394.0781 L832.4344,395.1719 Q832.4344,396.4063 833.325,397.2344 Q834.2156,398.0469 835.8094,398.0469 Q836.7469,398.0469 837.4031,397.7969 Q837.7938,397.6406 838.2156,397.2031 Q838.4813,396.9375 838.6219,396.8594 Q838.7781,396.7813 838.9813,396.7813 Q839.3094,396.7813 839.5594,397.0469 Q839.825,397.2969 839.825,397.6406 Q839.825,397.9844 839.4813,398.3906 Q838.9813,398.9688 838.1844,399.2969 Q837.1063,399.75 835.8094,399.75 Q834.2938,399.75 833.0906,399.125 Q832.1063,398.625 831.4188,397.5625 Q830.7313,396.4844 830.7313,395.2031 L830.7313,394.0469 Q830.7313,392.7188 831.3406,391.5781 Q831.9656,390.4219 833.0594,389.8125 Q834.1531,389.1875 835.3875,389.1875 Q836.1219,389.1875 836.7625,389.3594 Q837.4188,389.5156 837.9656,389.875 Z "/><text fill="#000000" font-family="sans-serif" font-size="12" lengthAdjust="spacingAndGlyphs" textLength="74" x="852.8" y="398.9102">ResumeView</text><line style="stroke: #A80036; stroke-width: 1.5;" x1="805" x2="945" y1="410" y2="410"/><line style="stroke: #A80036; stroke-width: 1.5;" x1="805" x2="945" y1="418" y2="418"/><polygon fill="#4177AF" points="815,425,811,431,819,431" style="stroke: #1963A0; stroke-width: 1.0;"/><text fill="#000000" font-family="sans-serif" font-size="11" lengthAdjust="spacingAndGlyphs" textLength="73" x="824" y="433.4189">ResumeView()</text><polygon fill="#4177AF" points="815,438.8359,811,444.8359,819,444.8359" style="stroke: #1963A0; stroke-width: 1.0;"/><text fill="#000000" font-family="sans-serif" font-size="11" lengthAdjust="spacingAndGlyphs" textLength="116" x="824" y="447.2549">interact(Game): boolean</text><!--MD5=[8830b246a550294711e6eb5af1606829]
class tictactoe.views.console.CoordinateView--><rect fill="#FEFECE" filter="url(#f1swfgc2pzs3hu)" height="61.8359" id="tictactoe.views.console.CoordinateView" style="stroke: #A80036; stroke-width: 1.5;" width="142" x="480" y="385"/><ellipse cx="505.35" cy="401" fill="#ADD1B2" rx="11" ry="11" style="stroke: #A80036; stroke-width: 1.0;"/><path d="M508.1156,396.875 Q508.2719,396.6563 508.4594,396.5469 Q508.6469,396.4375 508.8656,396.4375 Q509.2406,396.4375 509.475,396.7031 Q509.7094,396.9531 509.7094,397.5625 L509.7094,399.0156 Q509.7094,399.625 509.475,399.8906 Q509.2406,400.1563 508.8656,400.1563 Q508.5219,400.1563 508.3188,399.9531 Q508.1156,399.7656 508.0063,399.25 Q507.9594,398.8906 507.7719,398.7031 Q507.4438,398.3281 506.8344,398.1094 Q506.225,397.8906 505.6,397.8906 Q504.8344,397.8906 504.1938,398.2188 Q503.5688,398.5469 503.0688,399.2969 Q502.5844,400.0469 502.5844,401.0781 L502.5844,402.1719 Q502.5844,403.4063 503.475,404.2344 Q504.3656,405.0469 505.9594,405.0469 Q506.8969,405.0469 507.5531,404.7969 Q507.9438,404.6406 508.3656,404.2031 Q508.6313,403.9375 508.7719,403.8594 Q508.9281,403.7813 509.1313,403.7813 Q509.4594,403.7813 509.7094,404.0469 Q509.975,404.2969 509.975,404.6406 Q509.975,404.9844 509.6313,405.3906 Q509.1313,405.9688 508.3344,406.2969 Q507.2563,406.75 505.9594,406.75 Q504.4438,406.75 503.2406,406.125 Q502.2563,405.625 501.5688,404.5625 Q500.8813,403.4844 500.8813,402.2031 L500.8813,401.0469 Q500.8813,399.7188 501.4906,398.5781 Q502.1156,397.4219 503.2094,396.8125 Q504.3031,396.1875 505.5375,396.1875 Q506.2719,396.1875 506.9125,396.3594 Q507.5688,396.5156 508.1156,396.875 Z "/><text fill="#000000" font-family="sans-serif" font-size="12" lengthAdjust="spacingAndGlyphs" textLength="87" x="521.65" y="405.9102">CoordinateView</text><line style="stroke: #A80036; stroke-width: 1.5;" x1="481" x2="621" y1="417" y2="417"/><line style="stroke: #A80036; stroke-width: 1.5;" x1="481" x2="621" y1="425" y2="425"/><polygon fill="#4177AF" points="491,432,487,438,495,438" style="stroke: #1963A0; stroke-width: 1.0;"/><text fill="#000000" font-family="sans-serif" font-size="11" lengthAdjust="spacingAndGlyphs" textLength="116" x="500" y="440.4189">read(String): Coordinate</text><!--MD5=[1ca4e66fd27a79cb5d7093d90b3139a4]
class tictactoe.views.console.ErrorView--><rect fill="#FEFECE" filter="url(#f1swfgc2pzs3hu)" height="75.6719" id="tictactoe.views.console.ErrorView" style="stroke: #A80036; stroke-width: 1.5;" width="108" x="188" y="378"/><ellipse cx="213.35" cy="394" fill="#ADD1B2" rx="11" ry="11" style="stroke: #A80036; stroke-width: 1.0;"/><path d="M216.1156,389.875 Q216.2719,389.6563 216.4594,389.5469 Q216.6469,389.4375 216.8656,389.4375 Q217.2406,389.4375 217.475,389.7031 Q217.7094,389.9531 217.7094,390.5625 L217.7094,392.0156 Q217.7094,392.625 217.475,392.8906 Q217.2406,393.1563 216.8656,393.1563 Q216.5219,393.1563 216.3188,392.9531 Q216.1156,392.7656 216.0063,392.25 Q215.9594,391.8906 215.7719,391.7031 Q215.4438,391.3281 214.8344,391.1094 Q214.225,390.8906 213.6,390.8906 Q212.8344,390.8906 212.1938,391.2188 Q211.5688,391.5469 211.0688,392.2969 Q210.5844,393.0469 210.5844,394.0781 L210.5844,395.1719 Q210.5844,396.4063 211.475,397.2344 Q212.3656,398.0469 213.9594,398.0469 Q214.8969,398.0469 215.5531,397.7969 Q215.9438,397.6406 216.3656,397.2031 Q216.6313,396.9375 216.7719,396.8594 Q216.9281,396.7813 217.1313,396.7813 Q217.4594,396.7813 217.7094,397.0469 Q217.975,397.2969 217.975,397.6406 Q217.975,397.9844 217.6313,398.3906 Q217.1313,398.9688 216.3344,399.2969 Q215.2563,399.75 213.9594,399.75 Q212.4438,399.75 211.2406,399.125 Q210.2563,398.625 209.5688,397.5625 Q208.8813,396.4844 208.8813,395.2031 L208.8813,394.0469 Q208.8813,392.7188 209.4906,391.5781 Q210.1156,390.4219 211.2094,389.8125 Q212.3031,389.1875 213.5375,389.1875 Q214.2719,389.1875 214.9125,389.3594 Q215.5688,389.5156 216.1156,389.875 Z "/><text fill="#000000" font-family="sans-serif" font-size="12" lengthAdjust="spacingAndGlyphs" textLength="53" x="229.65" y="398.9102">ErrorView</text><line style="stroke: #A80036; stroke-width: 1.5;" x1="189" x2="295" y1="410" y2="410"/><line style="stroke: #A80036; stroke-width: 1.5;" x1="189" x2="295" y1="418" y2="418"/><polygon fill="#4177AF" points="199,425,195,431,203,431" style="stroke: #1963A0; stroke-width: 1.0;"/><text fill="#000000" font-family="sans-serif" font-size="11" lengthAdjust="spacingAndGlyphs" textLength="82" x="208" y="433.4189">ErrorView(Error)</text><polygon fill="#4177AF" points="199,438.8359,195,444.8359,203,444.8359" style="stroke: #1963A0; stroke-width: 1.0;"/><text fill="#000000" font-family="sans-serif" font-size="11" lengthAdjust="spacingAndGlyphs" textLength="67" x="208" y="447.2549">writeln(): void</text><!--MD5=[4afe6aabb27d783e4a9a9dcc50c35fae]
class tictactoe.views.console.MachinePlayerView--><rect fill="#FEFECE" filter="url(#f1swfgc2pzs3hu)" height="89.5078" id="tictactoe.views.console.MachinePlayerView" style="stroke: #A80036; stroke-width: 1.5;" width="216" x="227" y="193.5"/><ellipse cx="277.75" cy="209.5" fill="#ADD1B2" rx="11" ry="11" style="stroke: #A80036; stroke-width: 1.0;"/><path d="M280.5156,205.375 Q280.6719,205.1563 280.8594,205.0469 Q281.0469,204.9375 281.2656,204.9375 Q281.6406,204.9375 281.875,205.2031 Q282.1094,205.4531 282.1094,206.0625 L282.1094,207.5156 Q282.1094,208.125 281.875,208.3906 Q281.6406,208.6563 281.2656,208.6563 Q280.9219,208.6563 280.7188,208.4531 Q280.5156,208.2656 280.4063,207.75 Q280.3594,207.3906 280.1719,207.2031 Q279.8438,206.8281 279.2344,206.6094 Q278.625,206.3906 278,206.3906 Q277.2344,206.3906 276.5938,206.7188 Q275.9688,207.0469 275.4688,207.7969 Q274.9844,208.5469 274.9844,209.5781 L274.9844,210.6719 Q274.9844,211.9063 275.875,212.7344 Q276.7656,213.5469 278.3594,213.5469 Q279.2969,213.5469 279.9531,213.2969 Q280.3438,213.1406 280.7656,212.7031 Q281.0313,212.4375 281.1719,212.3594 Q281.3281,212.2813 281.5313,212.2813 Q281.8594,212.2813 282.1094,212.5469 Q282.375,212.7969 282.375,213.1406 Q282.375,213.4844 282.0313,213.8906 Q281.5313,214.4688 280.7344,214.7969 Q279.6563,215.25 278.3594,215.25 Q276.8438,215.25 275.6406,214.625 Q274.6563,214.125 273.9688,213.0625 Q273.2813,211.9844 273.2813,210.7031 L273.2813,209.5469 Q273.2813,208.2188 273.8906,207.0781 Q274.5156,205.9219 275.6094,205.3125 Q276.7031,204.6875 277.9375,204.6875 Q278.6719,204.6875 279.3125,204.8594 Q279.9688,205.0156 280.5156,205.375 Z "/><text fill="#000000" font-family="sans-serif" font-size="12" lengthAdjust="spacingAndGlyphs" textLength="106" x="298.25" y="214.4102">MachinePlayerView</text><line style="stroke: #A80036; stroke-width: 1.5;" x1="228" x2="442" y1="225.5" y2="225.5"/><line style="stroke: #A80036; stroke-width: 1.5;" x1="228" x2="442" y1="233.5" y2="233.5"/><polygon fill="#4177AF" points="238,240.5,234,246.5,242,246.5" style="stroke: #1963A0; stroke-width: 1.0;"/><text fill="#000000" font-family="sans-serif" font-size="11" lengthAdjust="spacingAndGlyphs" textLength="134" x="247" y="248.9189">MachinePlayerView(Player)</text><polygon fill="#4177AF" points="238,254.3359,234,260.3359,242,260.3359" style="stroke: #1963A0; stroke-width: 1.0;"/><text fill="#000000" font-family="sans-serif" font-size="11" lengthAdjust="spacingAndGlyphs" textLength="167" x="247" y="262.7549">readCoordinateToPut(): Coordinate</text><polygon fill="#4177AF" points="238,268.1719,234,274.1719,242,274.1719" style="stroke: #1963A0; stroke-width: 1.0;"/><text fill="#000000" font-family="sans-serif" font-size="11" lengthAdjust="spacingAndGlyphs" textLength="190" x="247" y="276.5908">readCoordinatesToMove(): Coordinate[]</text><!--MD5=[4ad8229f56e3458317cb6855b3145039]
class tictactoe.views.console.ResultView--><rect fill="#FEFECE" filter="url(#f1swfgc2pzs3hu)" height="61.8359" id="tictactoe.views.console.ResultView" style="stroke: #A80036; stroke-width: 1.5;" width="104" x="403" y="548.5"/><ellipse cx="422.5" cy="564.5" fill="#ADD1B2" rx="11" ry="11" style="stroke: #A80036; stroke-width: 1.0;"/><path d="M425.2656,560.375 Q425.4219,560.1563 425.6094,560.0469 Q425.7969,559.9375 426.0156,559.9375 Q426.3906,559.9375 426.625,560.2031 Q426.8594,560.4531 426.8594,561.0625 L426.8594,562.5156 Q426.8594,563.125 426.625,563.3906 Q426.3906,563.6563 426.0156,563.6563 Q425.6719,563.6563 425.4688,563.4531 Q425.2656,563.2656 425.1563,562.75 Q425.1094,562.3906 424.9219,562.2031 Q424.5938,561.8281 423.9844,561.6094 Q423.375,561.3906 422.75,561.3906 Q421.9844,561.3906 421.3438,561.7188 Q420.7188,562.0469 420.2188,562.7969 Q419.7344,563.5469 419.7344,564.5781 L419.7344,565.6719 Q419.7344,566.9063 420.625,567.7344 Q421.5156,568.5469 423.1094,568.5469 Q424.0469,568.5469 424.7031,568.2969 Q425.0938,568.1406 425.5156,567.7031 Q425.7813,567.4375 425.9219,567.3594 Q426.0781,567.2813 426.2813,567.2813 Q426.6094,567.2813 426.8594,567.5469 Q427.125,567.7969 427.125,568.1406 Q427.125,568.4844 426.7813,568.8906 Q426.2813,569.4688 425.4844,569.7969 Q424.4063,570.25 423.1094,570.25 Q421.5938,570.25 420.3906,569.625 Q419.4063,569.125 418.7188,568.0625 Q418.0313,566.9844 418.0313,565.7031 L418.0313,564.5469 Q418.0313,563.2188 418.6406,562.0781 Q419.2656,560.9219 420.3594,560.3125 Q421.4531,559.6875 422.6875,559.6875 Q423.4219,559.6875 424.0625,559.8594 Q424.7188,560.0156 425.2656,560.375 Z "/><text fill="#000000" font-family="sans-serif" font-size="12" lengthAdjust="spacingAndGlyphs" textLength="62" x="437.5" y="569.4102">ResultView</text><line style="stroke: #A80036; stroke-width: 1.5;" x1="404" x2="506" y1="580.5" y2="580.5"/><line style="stroke: #A80036; stroke-width: 1.5;" x1="404" x2="506" y1="588.5" y2="588.5"/><polygon fill="#4177AF" points="414,595.5,410,601.5,418,601.5" style="stroke: #1963A0; stroke-width: 1.0;"/><text fill="#000000" font-family="sans-serif" font-size="11" lengthAdjust="spacingAndGlyphs" textLength="78" x="423" y="603.9189">writeln(int): void</text><!--MD5=[d4f4ae14a368e3fcfff527b6459d05f0]
class tictactoe.views.console.UserPlayerView--><rect fill="#FEFECE" filter="url(#f1swfgc2pzs3hu)" height="117.1797" id="tictactoe.views.console.UserPlayerView" style="stroke: #A80036; stroke-width: 1.5;" width="233" x="478.5" y="180"/><ellipse cx="547.25" cy="196" fill="#ADD1B2" rx="11" ry="11" style="stroke: #A80036; stroke-width: 1.0;"/><path d="M550.0156,191.875 Q550.1719,191.6563 550.3594,191.5469 Q550.5469,191.4375 550.7656,191.4375 Q551.1406,191.4375 551.375,191.7031 Q551.6094,191.9531 551.6094,192.5625 L551.6094,194.0156 Q551.6094,194.625 551.375,194.8906 Q551.1406,195.1563 550.7656,195.1563 Q550.4219,195.1563 550.2188,194.9531 Q550.0156,194.7656 549.9063,194.25 Q549.8594,193.8906 549.6719,193.7031 Q549.3438,193.3281 548.7344,193.1094 Q548.125,192.8906 547.5,192.8906 Q546.7344,192.8906 546.0938,193.2188 Q545.4688,193.5469 544.9688,194.2969 Q544.4844,195.0469 544.4844,196.0781 L544.4844,197.1719 Q544.4844,198.4063 545.375,199.2344 Q546.2656,200.0469 547.8594,200.0469 Q548.7969,200.0469 549.4531,199.7969 Q549.8438,199.6406 550.2656,199.2031 Q550.5313,198.9375 550.6719,198.8594 Q550.8281,198.7813 551.0313,198.7813 Q551.3594,198.7813 551.6094,199.0469 Q551.875,199.2969 551.875,199.6406 Q551.875,199.9844 551.5313,200.3906 Q551.0313,200.9688 550.2344,201.2969 Q549.1563,201.75 547.8594,201.75 Q546.3438,201.75 545.1406,201.125 Q544.1563,200.625 543.4688,199.5625 Q542.7813,198.4844 542.7813,197.2031 L542.7813,196.0469 Q542.7813,194.7188 543.3906,193.5781 Q544.0156,192.4219 545.1094,191.8125 Q546.2031,191.1875 547.4375,191.1875 Q548.1719,191.1875 548.8125,191.3594 Q549.4688,191.5156 550.0156,191.875 Z "/><text fill="#000000" font-family="sans-serif" font-size="12" lengthAdjust="spacingAndGlyphs" textLength="87" x="567.75" y="200.9102">UserPlayerView</text><line style="stroke: #A80036; stroke-width: 1.5;" x1="479.5" x2="710.5" y1="212" y2="212"/><polygon fill="none" points="489.5,219,485.5,225,493.5,225" style="stroke: #1963A0; stroke-width: 1.0;"/><text fill="#000000" font-family="sans-serif" font-size="11" lengthAdjust="spacingAndGlyphs" text-decoration="underline" textLength="183" x="498.5" y="227.4189">ENTER_COORDINATE_TO_PUT: String</text><polygon fill="none" points="489.5,232.8359,485.5,238.8359,493.5,238.8359" style="stroke: #1963A0; stroke-width: 1.0;"/><text fill="#000000" font-family="sans-serif" font-size="11" lengthAdjust="spacingAndGlyphs" text-decoration="underline" textLength="207" x="498.5" y="241.2549">ENTER_COORDINATE_TO_REMOVE: String</text><line style="stroke: #A80036; stroke-width: 1.5;" x1="479.5" x2="710.5" y1="247.6719" y2="247.6719"/><polygon fill="#4177AF" points="489.5,254.6719,485.5,260.6719,493.5,260.6719" style="stroke: #1963A0; stroke-width: 1.0;"/><text fill="#000000" font-family="sans-serif" font-size="11" lengthAdjust="spacingAndGlyphs" textLength="117" x="498.5" y="263.0908">UserPlayerView(Player)</text><polygon fill="#4177AF" points="489.5,268.5078,485.5,274.5078,493.5,274.5078" style="stroke: #1963A0; stroke-width: 1.0;"/><text fill="#000000" font-family="sans-serif" font-size="11" lengthAdjust="spacingAndGlyphs" textLength="167" x="498.5" y="276.9268">readCoordinateToPut(): Coordinate</text><polygon fill="#4177AF" points="489.5,282.3438,485.5,288.3438,493.5,288.3438" style="stroke: #1963A0; stroke-width: 1.0;"/><text fill="#000000" font-family="sans-serif" font-size="11" lengthAdjust="spacingAndGlyphs" textLength="190" x="498.5" y="290.7627">readCoordinatesToMove(): Coordinate[]</text><!--MD5=[2dcb8e10b6e8b78f41f52f48677e1ea3]
class utils.WithConsoleView--><rect fill="#FEFECE" filter="url(#f1swfgc2pzs3hu)" height="48" id="utils.WithConsoleView" style="stroke: #A80036; stroke-width: 1.5;" width="129" x="1142.5" y="392"/><ellipse cx="1157.5" cy="408" fill="#ADD1B2" rx="11" ry="11" style="stroke: #A80036; stroke-width: 1.0;"/><path d="M1160.2656,403.875 Q1160.4219,403.6563 1160.6094,403.5469 Q1160.7969,403.4375 1161.0156,403.4375 Q1161.3906,403.4375 1161.625,403.7031 Q1161.8594,403.9531 1161.8594,404.5625 L1161.8594,406.0156 Q1161.8594,406.625 1161.625,406.8906 Q1161.3906,407.1563 1161.0156,407.1563 Q1160.6719,407.1563 1160.4688,406.9531 Q1160.2656,406.7656 1160.1563,406.25 Q1160.1094,405.8906 1159.9219,405.7031 Q1159.5938,405.3281 1158.9844,405.1094 Q1158.375,404.8906 1157.75,404.8906 Q1156.9844,404.8906 1156.3438,405.2188 Q1155.7188,405.5469 1155.2188,406.2969 Q1154.7344,407.0469 1154.7344,408.0781 L1154.7344,409.1719 Q1154.7344,410.4063 1155.625,411.2344 Q1156.5156,412.0469 1158.1094,412.0469 Q1159.0469,412.0469 1159.7031,411.7969 Q1160.0938,411.6406 1160.5156,411.2031 Q1160.7813,410.9375 1160.9219,410.8594 Q1161.0781,410.7813 1161.2813,410.7813 Q1161.6094,410.7813 1161.8594,411.0469 Q1162.125,411.2969 1162.125,411.6406 Q1162.125,411.9844 1161.7813,412.3906 Q1161.2813,412.9688 1160.4844,413.2969 Q1159.4063,413.75 1158.1094,413.75 Q1156.5938,413.75 1155.3906,413.125 Q1154.4063,412.625 1153.7188,411.5625 Q1153.0313,410.4844 1153.0313,409.2031 L1153.0313,408.0469 Q1153.0313,406.7188 1153.6406,405.5781 Q1154.2656,404.4219 1155.3594,403.8125 Q1156.4531,403.1875 1157.6875,403.1875 Q1158.4219,403.1875 1159.0625,403.3594 Q1159.7188,403.5156 1160.2656,403.875 Z "/><text fill="#000000" font-family="sans-serif" font-size="12" lengthAdjust="spacingAndGlyphs" textLength="97" x="1171.5" y="412.9102">WithConsoleView</text><line style="stroke: #A80036; stroke-width: 1.5;" x1="1143.5" x2="1270.5" y1="424" y2="424"/><line style="stroke: #A80036; stroke-width: 1.5;" x1="1143.5" x2="1270.5" y1="432" y2="432"/><!--MD5=[ae8b7cdc49d99fbec8c7e641a97b4a7f]
class utils.YesNoDialog--><rect fill="#FEFECE" filter="url(#f1swfgc2pzs3hu)" height="48" id="utils.YesNoDialog" style="stroke: #A80036; stroke-width: 1.5;" width="105" x="1002.5" y="392"/><ellipse cx="1017.5" cy="408" fill="#ADD1B2" rx="11" ry="11" style="stroke: #A80036; stroke-width: 1.0;"/><path d="M1020.2656,403.875 Q1020.4219,403.6563 1020.6094,403.5469 Q1020.7969,403.4375 1021.0156,403.4375 Q1021.3906,403.4375 1021.625,403.7031 Q1021.8594,403.9531 1021.8594,404.5625 L1021.8594,406.0156 Q1021.8594,406.625 1021.625,406.8906 Q1021.3906,407.1563 1021.0156,407.1563 Q1020.6719,407.1563 1020.4688,406.9531 Q1020.2656,406.7656 1020.1563,406.25 Q1020.1094,405.8906 1019.9219,405.7031 Q1019.5938,405.3281 1018.9844,405.1094 Q1018.375,404.8906 1017.75,404.8906 Q1016.9844,404.8906 1016.3438,405.2188 Q1015.7188,405.5469 1015.2188,406.2969 Q1014.7344,407.0469 1014.7344,408.0781 L1014.7344,409.1719 Q1014.7344,410.4063 1015.625,411.2344 Q1016.5156,412.0469 1018.1094,412.0469 Q1019.0469,412.0469 1019.7031,411.7969 Q1020.0938,411.6406 1020.5156,411.2031 Q1020.7813,410.9375 1020.9219,410.8594 Q1021.0781,410.7813 1021.2813,410.7813 Q1021.6094,410.7813 1021.8594,411.0469 Q1022.125,411.2969 1022.125,411.6406 Q1022.125,411.9844 1021.7813,412.3906 Q1021.2813,412.9688 1020.4844,413.2969 Q1019.4063,413.75 1018.1094,413.75 Q1016.5938,413.75 1015.3906,413.125 Q1014.4063,412.625 1013.7188,411.5625 Q1013.0313,410.4844 1013.0313,409.2031 L1013.0313,408.0469 Q1013.0313,406.7188 1013.6406,405.5781 Q1014.2656,404.4219 1015.3594,403.8125 Q1016.4531,403.1875 1017.6875,403.1875 Q1018.4219,403.1875 1019.0625,403.3594 Q1019.7188,403.5156 1020.2656,403.875 Z "/><text fill="#000000" font-family="sans-serif" font-size="12" lengthAdjust="spacingAndGlyphs" textLength="73" x="1031.5" y="412.9102">YesNoDialog</text><line style="stroke: #A80036; stroke-width: 1.5;" x1="1003.5" x2="1106.5" y1="424" y2="424"/><line style="stroke: #A80036; stroke-width: 1.5;" x1="1003.5" x2="1106.5" y1="432" y2="432"/><!--MD5=[55e41f1e5a8b39b15e1066bc4af42afb]
class utils.PlayersDialog--><rect fill="#FEFECE" filter="url(#f1swfgc2pzs3hu)" height="48" id="utils.PlayersDialog" style="stroke: #A80036; stroke-width: 1.5;" width="109" x="1306.5" y="392"/><ellipse cx="1321.5" cy="408" fill="#ADD1B2" rx="11" ry="11" style="stroke: #A80036; stroke-width: 1.0;"/><path d="M1324.2656,403.875 Q1324.4219,403.6563 1324.6094,403.5469 Q1324.7969,403.4375 1325.0156,403.4375 Q1325.3906,403.4375 1325.625,403.7031 Q1325.8594,403.9531 1325.8594,404.5625 L1325.8594,406.0156 Q1325.8594,406.625 1325.625,406.8906 Q1325.3906,407.1563 1325.0156,407.1563 Q1324.6719,407.1563 1324.4688,406.9531 Q1324.2656,406.7656 1324.1563,406.25 Q1324.1094,405.8906 1323.9219,405.7031 Q1323.5938,405.3281 1322.9844,405.1094 Q1322.375,404.8906 1321.75,404.8906 Q1320.9844,404.8906 1320.3438,405.2188 Q1319.7188,405.5469 1319.2188,406.2969 Q1318.7344,407.0469 1318.7344,408.0781 L1318.7344,409.1719 Q1318.7344,410.4063 1319.625,411.2344 Q1320.5156,412.0469 1322.1094,412.0469 Q1323.0469,412.0469 1323.7031,411.7969 Q1324.0938,411.6406 1324.5156,411.2031 Q1324.7813,410.9375 1324.9219,410.8594 Q1325.0781,410.7813 1325.2813,410.7813 Q1325.6094,410.7813 1325.8594,411.0469 Q1326.125,411.2969 1326.125,411.6406 Q1326.125,411.9844 1325.7813,412.3906 Q1325.2813,412.9688 1324.4844,413.2969 Q1323.4063,413.75 1322.1094,413.75 Q1320.5938,413.75 1319.3906,413.125 Q1318.4063,412.625 1317.7188,411.5625 Q1317.0313,410.4844 1317.0313,409.2031 L1317.0313,408.0469 Q1317.0313,406.7188 1317.6406,405.5781 Q1318.2656,404.4219 1319.3594,403.8125 Q1320.4531,403.1875 1321.6875,403.1875 Q1322.4219,403.1875 1323.0625,403.3594 Q1323.7188,403.5156 1324.2656,403.875 Z "/><text fill="#000000" font-family="sans-serif" font-size="12" lengthAdjust="spacingAndGlyphs" textLength="77" x="1335.5" y="412.9102">PlayersDialog</text><line style="stroke: #A80036; stroke-width: 1.5;" x1="1307.5" x2="1414.5" y1="424" y2="424"/><line style="stroke: #A80036; stroke-width: 1.5;" x1="1307.5" x2="1414.5" y1="432" y2="432"/><!--MD5=[015754420c4cdd9bacda884b3fa8c6ca]
class tictactoe.views.View--><rect fill="#FEFECE" filter="url(#f1swfgc2pzs3hu)" height="48" id="tictactoe.views.View" style="stroke: #A80036; stroke-width: 1.5;" width="58" x="416" y="42"/><ellipse cx="431" cy="58" fill="#ADD1B2" rx="11" ry="11" style="stroke: #A80036; stroke-width: 1.0;"/><path d="M433.7656,53.875 Q433.9219,53.6563 434.1094,53.5469 Q434.2969,53.4375 434.5156,53.4375 Q434.8906,53.4375 435.125,53.7031 Q435.3594,53.9531 435.3594,54.5625 L435.3594,56.0156 Q435.3594,56.625 435.125,56.8906 Q434.8906,57.1563 434.5156,57.1563 Q434.1719,57.1563 433.9688,56.9531 Q433.7656,56.7656 433.6563,56.25 Q433.6094,55.8906 433.4219,55.7031 Q433.0938,55.3281 432.4844,55.1094 Q431.875,54.8906 431.25,54.8906 Q430.4844,54.8906 429.8438,55.2188 Q429.2188,55.5469 428.7188,56.2969 Q428.2344,57.0469 428.2344,58.0781 L428.2344,59.1719 Q428.2344,60.4063 429.125,61.2344 Q430.0156,62.0469 431.6094,62.0469 Q432.5469,62.0469 433.2031,61.7969 Q433.5938,61.6406 434.0156,61.2031 Q434.2813,60.9375 434.4219,60.8594 Q434.5781,60.7813 434.7813,60.7813 Q435.1094,60.7813 435.3594,61.0469 Q435.625,61.2969 435.625,61.6406 Q435.625,61.9844 435.2813,62.3906 Q434.7813,62.9688 433.9844,63.2969 Q432.9063,63.75 431.6094,63.75 Q430.0938,63.75 428.8906,63.125 Q427.9063,62.625 427.2188,61.5625 Q426.5313,60.4844 426.5313,59.2031 L426.5313,58.0469 Q426.5313,56.7188 427.1406,55.5781 Q427.7656,54.4219 428.8594,53.8125 Q429.9531,53.1875 431.1875,53.1875 Q431.9219,53.1875 432.5625,53.3594 Q433.2188,53.5156 433.7656,53.875 Z "/><text fill="#000000" font-family="sans-serif" font-size="12" lengthAdjust="spacingAndGlyphs" textLength="26" x="445" y="62.9102">View</text><line style="stroke: #A80036; stroke-width: 1.5;" x1="417" x2="473" y1="74" y2="74"/><line style="stroke: #A80036; stroke-width: 1.5;" x1="417" x2="473" y1="82" y2="82"/><!--MD5=[17799e03bfee0ccb3aa03b93da9c26d6]
class tictactoe.views.ErrorView--><rect fill="#FEFECE" filter="url(#f1swfgc2pzs3hu)" height="48" id="tictactoe.views.ErrorView" style="stroke: #A80036; stroke-width: 1.5;" width="85" x="168.5" y="42"/><ellipse cx="183.5" cy="58" fill="#ADD1B2" rx="11" ry="11" style="stroke: #A80036; stroke-width: 1.0;"/><path d="M186.2656,53.875 Q186.4219,53.6563 186.6094,53.5469 Q186.7969,53.4375 187.0156,53.4375 Q187.3906,53.4375 187.625,53.7031 Q187.8594,53.9531 187.8594,54.5625 L187.8594,56.0156 Q187.8594,56.625 187.625,56.8906 Q187.3906,57.1563 187.0156,57.1563 Q186.6719,57.1563 186.4688,56.9531 Q186.2656,56.7656 186.1563,56.25 Q186.1094,55.8906 185.9219,55.7031 Q185.5938,55.3281 184.9844,55.1094 Q184.375,54.8906 183.75,54.8906 Q182.9844,54.8906 182.3438,55.2188 Q181.7188,55.5469 181.2188,56.2969 Q180.7344,57.0469 180.7344,58.0781 L180.7344,59.1719 Q180.7344,60.4063 181.625,61.2344 Q182.5156,62.0469 184.1094,62.0469 Q185.0469,62.0469 185.7031,61.7969 Q186.0938,61.6406 186.5156,61.2031 Q186.7813,60.9375 186.9219,60.8594 Q187.0781,60.7813 187.2813,60.7813 Q187.6094,60.7813 187.8594,61.0469 Q188.125,61.2969 188.125,61.6406 Q188.125,61.9844 187.7813,62.3906 Q187.2813,62.9688 186.4844,63.2969 Q185.4063,63.75 184.1094,63.75 Q182.5938,63.75 181.3906,63.125 Q180.4063,62.625 179.7188,61.5625 Q179.0313,60.4844 179.0313,59.2031 L179.0313,58.0469 Q179.0313,56.7188 179.6406,55.5781 Q180.2656,54.4219 181.3594,53.8125 Q182.4531,53.1875 183.6875,53.1875 Q184.4219,53.1875 185.0625,53.3594 Q185.7188,53.5156 186.2656,53.875 Z "/><text fill="#000000" font-family="sans-serif" font-size="12" lengthAdjust="spacingAndGlyphs" textLength="53" x="197.5" y="62.9102">ErrorView</text><line style="stroke: #A80036; stroke-width: 1.5;" x1="169.5" x2="252.5" y1="74" y2="74"/><line style="stroke: #A80036; stroke-width: 1.5;" x1="169.5" x2="252.5" y1="82" y2="82"/><!--MD5=[2ae15d20e7f22fd333327d3852982126]
class tictactoe.views.PlayerView--><rect fill="#FEFECE" filter="url(#f1swfgc2pzs3hu)" height="48" id="tictactoe.views.PlayerView" style="stroke: #A80036; stroke-width: 1.5;" width="92" x="289" y="42"/><ellipse cx="304" cy="58" fill="#ADD1B2" rx="11" ry="11" style="stroke: #A80036; stroke-width: 1.0;"/><path d="M306.7656,53.875 Q306.9219,53.6563 307.1094,53.5469 Q307.2969,53.4375 307.5156,53.4375 Q307.8906,53.4375 308.125,53.7031 Q308.3594,53.9531 308.3594,54.5625 L308.3594,56.0156 Q308.3594,56.625 308.125,56.8906 Q307.8906,57.1563 307.5156,57.1563 Q307.1719,57.1563 306.9688,56.9531 Q306.7656,56.7656 306.6563,56.25 Q306.6094,55.8906 306.4219,55.7031 Q306.0938,55.3281 305.4844,55.1094 Q304.875,54.8906 304.25,54.8906 Q303.4844,54.8906 302.8438,55.2188 Q302.2188,55.5469 301.7188,56.2969 Q301.2344,57.0469 301.2344,58.0781 L301.2344,59.1719 Q301.2344,60.4063 302.125,61.2344 Q303.0156,62.0469 304.6094,62.0469 Q305.5469,62.0469 306.2031,61.7969 Q306.5938,61.6406 307.0156,61.2031 Q307.2813,60.9375 307.4219,60.8594 Q307.5781,60.7813 307.7813,60.7813 Q308.1094,60.7813 308.3594,61.0469 Q308.625,61.2969 308.625,61.6406 Q308.625,61.9844 308.2813,62.3906 Q307.7813,62.9688 306.9844,63.2969 Q305.9063,63.75 304.6094,63.75 Q303.0938,63.75 301.8906,63.125 Q300.9063,62.625 300.2188,61.5625 Q299.5313,60.4844 299.5313,59.2031 L299.5313,58.0469 Q299.5313,56.7188 300.1406,55.5781 Q300.7656,54.4219 301.8594,53.8125 Q302.9531,53.1875 304.1875,53.1875 Q304.9219,53.1875 305.5625,53.3594 Q306.2188,53.5156 306.7656,53.875 Z "/><text fill="#000000" font-family="sans-serif" font-size="12" lengthAdjust="spacingAndGlyphs" textLength="60" x="318" y="62.9102">PlayerView</text><line style="stroke: #A80036; stroke-width: 1.5;" x1="290" x2="380" y1="74" y2="74"/><line style="stroke: #A80036; stroke-width: 1.5;" x1="290" x2="380" y1="82" y2="82"/><!--MD5=[8d3188f3c370ea7d5d91d12bca83b67a]
class tictactoe.models.Game--><rect fill="#FEFECE" filter="url(#f1swfgc2pzs3hu)" height="48" id="tictactoe.models.Game" style="stroke: #A80036; stroke-width: 1.5;" width="66" x="66" y="555.5"/><ellipse cx="81" cy="571.5" fill="#ADD1B2" rx="11" ry="11" style="stroke: #A80036; stroke-width: 1.0;"/><path d="M83.7656,567.375 Q83.9219,567.1563 84.1094,567.0469 Q84.2969,566.9375 84.5156,566.9375 Q84.8906,566.9375 85.125,567.2031 Q85.3594,567.4531 85.3594,568.0625 L85.3594,569.5156 Q85.3594,570.125 85.125,570.3906 Q84.8906,570.6563 84.5156,570.6563 Q84.1719,570.6563 83.9688,570.4531 Q83.7656,570.2656 83.6563,569.75 Q83.6094,569.3906 83.4219,569.2031 Q83.0938,568.8281 82.4844,568.6094 Q81.875,568.3906 81.25,568.3906 Q80.4844,568.3906 79.8438,568.7188 Q79.2188,569.0469 78.7188,569.7969 Q78.2344,570.5469 78.2344,571.5781 L78.2344,572.6719 Q78.2344,573.9063 79.125,574.7344 Q80.0156,575.5469 81.6094,575.5469 Q82.5469,575.5469 83.2031,575.2969 Q83.5938,575.1406 84.0156,574.7031 Q84.2813,574.4375 84.4219,574.3594 Q84.5781,574.2813 84.7813,574.2813 Q85.1094,574.2813 85.3594,574.5469 Q85.625,574.7969 85.625,575.1406 Q85.625,575.4844 85.2813,575.8906 Q84.7813,576.4688 83.9844,576.7969 Q82.9063,577.25 81.6094,577.25 Q80.0938,577.25 78.8906,576.625 Q77.9063,576.125 77.2188,575.0625 Q76.5313,573.9844 76.5313,572.7031 L76.5313,571.5469 Q76.5313,570.2188 77.1406,569.0781 Q77.7656,567.9219 78.8594,567.3125 Q79.9531,566.6875 81.1875,566.6875 Q81.9219,566.6875 82.5625,566.8594 Q83.2188,567.0156 83.7656,567.375 Z "/><text fill="#000000" font-family="sans-serif" font-size="12" lengthAdjust="spacingAndGlyphs" textLength="34" x="95" y="576.4102">Game</text><line style="stroke: #A80036; stroke-width: 1.5;" x1="67" x2="131" y1="587.5" y2="587.5"/><line style="stroke: #A80036; stroke-width: 1.5;" x1="67" x2="131" y1="595.5" y2="595.5"/><!--MD5=[4fe29ebdeb3371b5754843c99b0088e8]
reverse link utils.WithConsoleView to tictactoe.views.console.BoardView--><path d="M1152.82,450.088 C1143.7,455.069 1134.2,459.902 1125,464 C1044.1,500.046 948.246,530.756 877.642,551.27 " fill="none" id="utils.WithConsoleView&lt;-tictactoe.views.console.BoardView" style="stroke: #A80036; stroke-width: 1.0;"/><polygon fill="none" points="1149.43,443.965,1170.28,440.167,1156.35,456.136,1149.43,443.965" style="stroke: #A80036; stroke-width: 1.0;"/><!--MD5=[d1f1f21fa3eb12d639631512d925e9a6]
reverse link tictactoe.views.View to tictactoe.views.console.ConsoleView--><path d="M494.514,66.788 C554.106,68.639 655.334,78.663 729,122 C747.846,133.087 764.717,149.229 778.897,165.949 " fill="none" id="tictactoe.views.View&lt;-tictactoe.views.console.ConsoleView" style="stroke: #A80036; stroke-width: 1.0;"/><polygon fill="none" points="494.087,73.782,474.214,66.428,494.335,59.784,494.087,73.782" style="stroke: #A80036; stroke-width: 1.0;"/><!--MD5=[9113815f8bbc012213d6467f94b3dc5b]
link tictactoe.views.console.ConsoleView to tictactoe.views.console.StartView--><path d="M773.3799,321.2256 C773.3799,321.2256 756.334,347.698 748.648,359.636 " fill="none" id="tictactoe.views.console.ConsoleView-tictactoe.views.console.StartView" style="stroke: #A80036; stroke-width: 1.0;"/><polygon fill="#A80036" points="741.484,370.761,749.719,365.3586,744.1905,366.5568,742.9923,361.0283,741.484,370.761" style="stroke: #A80036; stroke-width: 1.0;"/><line style="stroke: #A80036; stroke-width: 1.0;" x1="744.1905" x2="748.522" y1="366.5568" y2="359.831"/><polygon fill="#A80036" points="779.876,311.136,773.2647,314.0155,773.3799,321.2256,779.9912,318.3462,779.876,311.136" style="stroke: #A80036; stroke-width: 1.0;"/><!--MD5=[1735144fa38f1aa47117a26d071db586]
link tictactoe.views.console.ConsoleView to tictactoe.views.console.PlayView--><path d="M735.5384,308.1116 C735.5384,308.1116 730.817,310.261 729,311 C618.034,356.153 570.555,297.325 462,348 C453.781,351.837 445.83,356.905 438.381,362.541 " fill="none" id="tictactoe.views.console.ConsoleView-tictactoe.views.console.PlayView" style="stroke: #A80036; stroke-width: 1.0;"/><polygon fill="#A80036" points="428.207,370.817,437.7127,368.24,432.0855,367.6615,432.664,362.0343,428.207,370.817" style="stroke: #A80036; stroke-width: 1.0;"/><line style="stroke: #A80036; stroke-width: 1.0;" x1="432.0855" x2="438.2915" y1="367.6615" y2="362.6125"/><polygon fill="#A80036" points="746.276,302.754,739.1213,301.8536,735.5384,308.1116,742.6931,309.012,746.276,302.754" style="stroke: #A80036; stroke-width: 1.0;"/><!--MD5=[a983e760d9bef84c565434062749d875]
link tictactoe.views.console.ConsoleView to tictactoe.views.console.ResumeView--><path d="M849.2278,322.694 C849.2278,322.694 857.467,352.203 861.062,365.078 " fill="none" id="tictactoe.views.console.ConsoleView-tictactoe.views.console.ResumeView" style="stroke: #A80036; stroke-width: 1.0;"/><polygon fill="#A80036" points="864.655,377.948,866.0873,368.2039,863.3104,373.1322,858.382,370.3552,864.655,377.948" style="stroke: #A80036; stroke-width: 1.0;"/><line style="stroke: #A80036; stroke-width: 1.0;" x1="863.3104" x2="861.159" y1="373.1322" y2="365.4265"/><polygon fill="#A80036" points="846.001,311.136,843.7617,317.9906,849.2278,322.694,851.4671,315.8394,846.001,311.136" style="stroke: #A80036; stroke-width: 1.0;"/><!--MD5=[8d442af70850c0cf7f503121eef781cd]
link tictactoe.views.console.ConsoleView to utils.YesNoDialog--><path d="M905.772,300.635 C945.179,330.836 990.648,365.682 1020.94,388.897 " fill="none" id="tictactoe.views.console.ConsoleView-&gt;utils.YesNoDialog" style="stroke: #A80036; stroke-width: 1.0; stroke-dasharray: 7.0,7.0;"/><polygon fill="#A80036" points="1024.93,391.952,1020.2217,383.3015,1020.9621,388.9097,1015.3539,389.6501,1024.93,391.952" style="stroke: #A80036; stroke-width: 1.0;"/><!--MD5=[d983ff7a7ecf259bcdad60485d19cf95]
reverse link utils.WithConsoleView to tictactoe.views.console.CoordinateView--><path d="M1174.25,376.714 C1156.59,358.633 1133.17,339.096 1107.5,329.5 C1060.67,311.989 704.62,312.775 657.5,329.5 C626.522,340.495 597.995,364.772 578.277,384.816 " fill="none" id="utils.WithConsoleView&lt;-tictactoe.views.console.CoordinateView" style="stroke: #A80036; stroke-width: 1.0;"/><polygon fill="none" points="1179.56,372.155,1187.92,391.626,1169.25,381.619,1179.56,372.155" style="stroke: #A80036; stroke-width: 1.0;"/><!--MD5=[521be967e4e828bbb4868581b766b1da]
reverse link tictactoe.views.ErrorView to tictactoe.views.console.ErrorView--><path d="M159.66,104.201 C154.979,109.641 150.912,115.593 148,122 C113.247,198.474 117.823,232.608 148,311 C157.88,336.666 177.353,359.937 196.025,377.926 " fill="none" id="tictactoe.views.ErrorView&lt;-tictactoe.views.console.ErrorView" style="stroke: #A80036; stroke-width: 1.0;"/><polygon fill="none" points="154.796,99.167,174.028,90.272,164.54,109.219,154.796,99.167" style="stroke: #A80036; stroke-width: 1.0;"/><!--MD5=[f807ad8458e0e3d6ca100de41032e69a]
reverse link tictactoe.views.PlayerView to tictactoe.views.console.MachinePlayerView--><path d="M335,110.657 C335,136.045 335,167.952 335,193.414 " fill="none" id="tictactoe.views.PlayerView&lt;-tictactoe.views.console.MachinePlayerView" style="stroke: #A80036; stroke-width: 1.0;"/><polygon fill="none" points="328,110.35,335,90.35,342,110.35,328,110.35" style="stroke: #A80036; stroke-width: 1.0;"/><!--MD5=[9623adb787708e117decab727ca41eb7]
link tictactoe.views.console.PlayView to tictactoe.views.console.BoardView--><path d="M445.066,454.94 C450.697,458.167 456.401,461.245 462,464 C529.55,497.236 609.278,526.123 671.622,546.568 " fill="none" id="tictactoe.views.console.PlayView-&gt;tictactoe.views.console.BoardView" style="stroke: #A80036; stroke-width: 1.0; stroke-dasharray: 7.0,7.0;"/><polygon fill="#A80036" points="676.459,548.149,669.1463,541.5517,671.7062,546.5962,666.6618,549.1561,676.459,548.149" style="stroke: #A80036; stroke-width: 1.0;"/><!--MD5=[c652744ae97b12ae96764b7849bbed7e]
link tictactoe.views.console.PlayView to tictactoe.views.PlayerView--><path d="M344.216,370.859 C334.474,362.52 323.812,354.414 313,348 C270.807,322.968 237.286,351.085 209,311 C160.57,242.367 153.534,185.083 209,122 C218.173,111.567 258.104,119.164 271,114 C283.315,109.069 295.414,101.204 305.72,93.308 " fill="none" id="tictactoe.views.console.PlayView-&gt;tictactoe.views.PlayerView" style="stroke: #A80036; stroke-width: 1.0; stroke-dasharray: 7.0,7.0;"/><polygon fill="#A80036" points="309.726,90.169,300.1752,92.5737,305.791,93.2538,305.1109,98.8696,309.726,90.169" style="stroke: #A80036; stroke-width: 1.0;"/><!--MD5=[0e974deee76fc2d8b2e265801257ba8e]
link tictactoe.views.console.PlayView to tictactoe.views.console.ResultView--><path d="M406.308,461.131 C417.06,487.047 430.46,519.348 440.48,543.5 " fill="none" id="tictactoe.views.console.PlayView-&gt;tictactoe.views.console.ResultView" style="stroke: #A80036; stroke-width: 1.0; stroke-dasharray: 7.0,7.0;"/><polygon fill="#A80036" points="442.437,548.218,442.6836,538.3722,440.5213,543.5995,435.294,541.4373,442.437,548.218" style="stroke: #A80036; stroke-width: 1.0;"/><!--MD5=[a9b8c641a44b436e524ffa093e2e24f9]
reverse link utils.WithConsoleView to tictactoe.views.console.ResultView--><path d="M1156.8,450.11 C1146.63,455.56 1135.74,460.548 1125,464 C926.804,527.71 862.634,468.213 659,511.5 C606.311,522.7 548.107,542.603 507.401,557.816 " fill="none" id="utils.WithConsoleView&lt;-tictactoe.views.console.ResultView" style="stroke: #A80036; stroke-width: 1.0;"/><polygon fill="none" points="1153.36,444.013,1174.18,440.034,1160.39,456.124,1153.36,444.013" style="stroke: #A80036; stroke-width: 1.0;"/><!--MD5=[2af4d1cb11eb01ab6d44a76c2ef71c90]
link tictactoe.views.console.ResumeView to tictactoe.models.Game--><path d="M812.153,454.161 C803.583,458.037 794.729,461.476 786,464 C523.072,540.044 423.032,402.427 172,511.5 C151.954,520.21 133.825,536.778 120.647,551.258 " fill="none" id="tictactoe.views.console.ResumeView-&gt;tictactoe.models.Game" style="stroke: #A80036; stroke-width: 1.0; stroke-dasharray: 7.0,7.0;"/><polygon fill="#A80036" points="117.064,555.279,126.0375,551.22,120.3901,551.5457,120.0643,545.8983,117.064,555.279" style="stroke: #A80036; stroke-width: 1.0;"/><!--MD5=[43f857ab0050bb78ce27120a0af9afa2]
link tictactoe.views.console.StartView to utils.PlayersDialog--><path d="M747.82,370.99 C763.216,354.677 782.767,338.147 804.5,329.5 C852.713,310.318 1223.39,310.052 1271.5,329.5 C1300.42,341.193 1325.19,367.209 1341.29,387.674 " fill="none" id="tictactoe.views.console.StartView-&gt;utils.PlayersDialog" style="stroke: #A80036; stroke-width: 1.0; stroke-dasharray: 7.0,7.0;"/><polygon fill="#A80036" points="1344.39,391.687,1342.0531,382.1194,1341.3332,387.7303,1335.7223,387.0103,1344.39,391.687" style="stroke: #A80036; stroke-width: 1.0;"/><!--MD5=[e665259f0705ebc0d9068c66ae844f61]
reverse link tictactoe.views.PlayerView to tictactoe.views.console.UserPlayerView--><path d="M376.031,102.153 C383.016,106.769 390.46,110.948 398,114 C423.754,124.425 434.608,110.721 460,122 C490.444,135.523 519.228,158.193 542.334,179.884 " fill="none" id="tictactoe.views.PlayerView&lt;-tictactoe.views.console.UserPlayerView" style="stroke: #A80036; stroke-width: 1.0;"/><polygon fill="none" points="371.746,107.691,359.824,90.173,380.068,96.432,371.746,107.691" style="stroke: #A80036; stroke-width: 1.0;"/><!--MD5=[d08a44d06940417b04e1f442f789385d]
link tictactoe.views.console.UserPlayerView to tictactoe.views.console.ErrorView--><path d="M492.256,297.131 C481.524,302.176 470.646,306.91 460,311 C397.111,335.163 372.075,315.612 313,348 C300.558,354.821 288.661,364.346 278.283,374.077 " fill="none" id="tictactoe.views.console.UserPlayerView-&gt;tictactoe.views.console.ErrorView" style="stroke: #A80036; stroke-width: 1.0; stroke-dasharray: 7.0,7.0;"/><polygon fill="#A80036" points="274.529,377.667,283.7977,374.3366,278.1422,374.2109,278.268,368.5555,274.529,377.667" style="stroke: #A80036; stroke-width: 1.0;"/><!--MD5=[93525d2da9d792717dcb2150911bbe9e]
link tictactoe.views.console.UserPlayerView to tictactoe.views.console.CoordinateView--><path d="M580.471,297.452 C573.647,324.67 565.735,356.228 559.828,379.788 " fill="none" id="tictactoe.views.console.UserPlayerView-&gt;tictactoe.views.console.CoordinateView" style="stroke: #A80036; stroke-width: 1.0; stroke-dasharray: 7.0,7.0;"/><polygon fill="#A80036" points="558.599,384.69,564.6694,376.9343,559.816,379.8404,556.91,374.987,558.599,384.69" style="stroke: #A80036; stroke-width: 1.0;"/><!--MD5=[07d67f7f681dcbdaaa0973f5113b89d6]
@startuml

class  tictactoe.views.console.BoardView{
~ board: Board
~ BoardView(Board)
~ write(): void
- printRowBoard(int): void
- printSquareValueBoard(int, int): void
}
utils.WithConsoleView <|-down- tictactoe.views.console.BoardView

class  tictactoe.views.console.ConsoleView{
- startView: StartView
- playView: PlayView
- resumeView: ResumeView
+ ConsoleView(Game)
# start(): void
# play(): boolean
# isNewGame(): boolean
}
tictactoe.views.View <|-down- tictactoe.views.console.ConsoleView
tictactoe.views.console.ConsoleView *-down-> tictactoe.views.console.StartView
tictactoe.views.console.ConsoleView *-down-> tictactoe.views.console.PlayView
tictactoe.views.console.ConsoleView *-down-> tictactoe.views.console.ResumeView
tictactoe.views.console.ConsoleView ..> utils.YesNoDialog

class  tictactoe.views.console.CoordinateView{
~ read(String): Coordinate
}
utils.WithConsoleView <|-down- tictactoe.views.console.CoordinateView

class  tictactoe.views.console.ErrorView{
~ ErrorView(Error)
~ writeln(): void
}
tictactoe.views.ErrorView <|-down- tictactoe.views.console.ErrorView

class  tictactoe.views.console.MachinePlayerView{
~ MachinePlayerView(Player)
~ readCoordinateToPut(): Coordinate
~ readCoordinatesToMove(): Coordinate[]
}
tictactoe.views.PlayerView <|-down- tictactoe.views.console.MachinePlayerView

class  tictactoe.views.console.PlayView{
~ game: Game
~ PlayView(Game)
~ interact(): boolean
}
tictactoe.views.console.PlayView ..> tictactoe.views.console.BoardView
tictactoe.views.console.PlayView ..> tictactoe.views.PlayerView
tictactoe.views.console.PlayView ..> tictactoe.views.console.ResultView

class tictactoe.views.console.ResultView{
~ writeln(int): void
}
utils.WithConsoleView <|-down- tictactoe.views.console.ResultView

class  tictactoe.views.console.ResumeView{
~ ResumeView()
~ interact(Game): boolean
}
tictactoe.views.console.ResumeView ..> tictactoe.models.Game

class tictactoe.views.console.StartView{
~ game: Game
~ StartView(Game)
~ interact(): void
}
tictactoe.views.console.StartView ..> utils.PlayersDialog

class  tictactoe.views.console.UserPlayerView{
~ {static} ENTER_COORDINATE_TO_PUT: String
~ {static} ENTER_COORDINATE_TO_REMOVE: String
~ UserPlayerView(Player)
~ readCoordinateToPut(): Coordinate
~ readCoordinatesToMove(): Coordinate[]
}
tictactoe.views.PlayerView <|-down- tictactoe.views.console.UserPlayerView
tictactoe.views.console.UserPlayerView ..> tictactoe.views.console.ErrorView
tictactoe.views.console.UserPlayerView ..> tictactoe.views.console.CoordinateView

@enduml

PlantUML version 1.2020.15(Sun Jun 28 13:39:45 CEST 2020)
(GPL source distribution)
Java Runtime: Java(TM) SE Runtime Environment
JVM: Java HotSpot(TM) 64-Bit Server VM
Default Encoding: windows-1252
Language: es
Country: ES
--></g></svg>