<?xml version="1.0" encoding="UTF-8" standalone="no"?><svg xmlns="http://www.w3.org/2000/svg" xmlns:xlink="http://www.w3.org/1999/xlink" contentScriptType="application/ecmascript" contentStyleType="text/css" height="696px" preserveAspectRatio="none" style="width:774px;height:696px;" version="1.1" viewBox="0 0 774 696" width="774px" zoomAndPan="magnify"><defs><filter height="300%" id="f1kbhgjxnezfrc" width="300%" x="-1" y="-1"><feGaussianBlur result="blurOut" stdDeviation="2.0"/><feColorMatrix in="blurOut" result="blurOut2" type="matrix" values="0 0 0 0 0 0 0 0 0 0 0 0 0 0 0 0 0 0 .4 0"/><feOffset dx="4.0" dy="4.0" in="blurOut2" result="blurOut3"/><feBlend in="SourceGraphic" in2="blurOut3" mode="normal"/></filter></defs><g><!--MD5=[ee7e9a007a7c4d40c0679a27f272732d]
cluster tictactoe.controllers--><polygon fill="#FFFFFF" filter="url(#f1kbhgjxnezfrc)" points="16,6,164,6,171,29.6094,666,29.6094,666,560,16,560,16,6" style="stroke: #000000; stroke-width: 1.5;"/><line style="stroke: #000000; stroke-width: 1.5;" x1="16" x2="171" y1="29.6094" y2="29.6094"/><text fill="#000000" font-family="sans-serif" font-size="14" font-weight="bold" lengthAdjust="spacingAndGlyphs" textLength="142" x="20" y="22.5332">tictactoe.controllers</text><!--MD5=[51cd642fcc96b47682a93d9084d46dec]
cluster tictactoe.models--><polygon fill="#FFFFFF" filter="url(#f1kbhgjxnezfrc)" points="525,584,647,584,654,607.6094,752,607.6094,752,684,525,684,525,584" style="stroke: #000000; stroke-width: 1.5;"/><line style="stroke: #000000; stroke-width: 1.5;" x1="525" x2="654" y1="607.6094" y2="607.6094"/><text fill="#000000" font-family="sans-serif" font-size="14" font-weight="bold" lengthAdjust="spacingAndGlyphs" textLength="116" x="529" y="600.5332">tictactoe.models</text><!--MD5=[957eef6538bab7382edbc29d98579a60]
class tictactoe.controllers.Controller--><rect fill="#FEFECE" filter="url(#f1kbhgjxnezfrc)" height="89.5078" id="tictactoe.controllers.Controller" style="stroke: #A80036; stroke-width: 1.5;" width="113" x="528.5" y="131.5"/><ellipse cx="555.65" cy="147.5" fill="#ADD1B2" rx="11" ry="11" style="stroke: #A80036; stroke-width: 1.0;"/><path d="M558.4156,143.375 Q558.5719,143.1563 558.7594,143.0469 Q558.9469,142.9375 559.1656,142.9375 Q559.5406,142.9375 559.775,143.2031 Q560.0094,143.4531 560.0094,144.0625 L560.0094,145.5156 Q560.0094,146.125 559.775,146.3906 Q559.5406,146.6563 559.1656,146.6563 Q558.8219,146.6563 558.6188,146.4531 Q558.4156,146.2656 558.3063,145.75 Q558.2594,145.3906 558.0719,145.2031 Q557.7438,144.8281 557.1344,144.6094 Q556.525,144.3906 555.9,144.3906 Q555.1344,144.3906 554.4938,144.7188 Q553.8688,145.0469 553.3688,145.7969 Q552.8844,146.5469 552.8844,147.5781 L552.8844,148.6719 Q552.8844,149.9063 553.775,150.7344 Q554.6656,151.5469 556.2594,151.5469 Q557.1969,151.5469 557.8531,151.2969 Q558.2438,151.1406 558.6656,150.7031 Q558.9313,150.4375 559.0719,150.3594 Q559.2281,150.2813 559.4313,150.2813 Q559.7594,150.2813 560.0094,150.5469 Q560.275,150.7969 560.275,151.1406 Q560.275,151.4844 559.9313,151.8906 Q559.4313,152.4688 558.6344,152.7969 Q557.5563,153.25 556.2594,153.25 Q554.7438,153.25 553.5406,152.625 Q552.5563,152.125 551.8688,151.0625 Q551.1813,149.9844 551.1813,148.7031 L551.1813,147.5469 Q551.1813,146.2188 551.7906,145.0781 Q552.4156,143.9219 553.5094,143.3125 Q554.6031,142.6875 555.8375,142.6875 Q556.5719,142.6875 557.2125,142.8594 Q557.8688,143.0156 558.4156,143.375 Z "/><text fill="#000000" font-family="sans-serif" font-size="12" lengthAdjust="spacingAndGlyphs" textLength="54" x="572.35" y="152.4102">Controller</text><line style="stroke: #A80036; stroke-width: 1.5;" x1="529.5" x2="640.5" y1="163.5" y2="163.5"/><polygon fill="none" points="539.5,169.5,543.5,173.5,539.5,177.5,535.5,173.5" style="stroke: #B38D22; stroke-width: 1.0;"/><text fill="#000000" font-family="sans-serif" font-size="11" lengthAdjust="spacingAndGlyphs" textLength="60" x="548.5" y="178.9189">game: Game</text><line style="stroke: #A80036; stroke-width: 1.5;" x1="529.5" x2="640.5" y1="185.3359" y2="185.3359"/><polygon fill="#4177AF" points="539.5,192.3359,535.5,198.3359,543.5,198.3359" style="stroke: #1963A0; stroke-width: 1.0;"/><text fill="#000000" font-family="sans-serif" font-size="11" lengthAdjust="spacingAndGlyphs" textLength="82" x="548.5" y="200.7549">Controller(Game)</text><ellipse cx="539.5" cy="210.1719" fill="#84BE84" rx="3" ry="3" style="stroke: #038048; stroke-width: 1.0;"/><text fill="#000000" font-family="sans-serif" font-size="11" lengthAdjust="spacingAndGlyphs" textLength="87" x="548.5" y="214.5908">getBoard(): Board</text><!--MD5=[3b8962fd5847b9038b2e29740dae8054]
class tictactoe.controllers.Logic--><rect fill="#FEFECE" filter="url(#f1kbhgjxnezfrc)" height="269.375" id="tictactoe.controllers.Logic" style="stroke: #A80036; stroke-width: 1.5;" width="191" x="302.5" y="42"/><ellipse cx="378.75" cy="58" fill="#ADD1B2" rx="11" ry="11" style="stroke: #A80036; stroke-width: 1.0;"/><path d="M381.5156,53.875 Q381.6719,53.6563 381.8594,53.5469 Q382.0469,53.4375 382.2656,53.4375 Q382.6406,53.4375 382.875,53.7031 Q383.1094,53.9531 383.1094,54.5625 L383.1094,56.0156 Q383.1094,56.625 382.875,56.8906 Q382.6406,57.1563 382.2656,57.1563 Q381.9219,57.1563 381.7188,56.9531 Q381.5156,56.7656 381.4063,56.25 Q381.3594,55.8906 381.1719,55.7031 Q380.8438,55.3281 380.2344,55.1094 Q379.625,54.8906 379,54.8906 Q378.2344,54.8906 377.5938,55.2188 Q376.9688,55.5469 376.4688,56.2969 Q375.9844,57.0469 375.9844,58.0781 L375.9844,59.1719 Q375.9844,60.4063 376.875,61.2344 Q377.7656,62.0469 379.3594,62.0469 Q380.2969,62.0469 380.9531,61.7969 Q381.3438,61.6406 381.7656,61.2031 Q382.0313,60.9375 382.1719,60.8594 Q382.3281,60.7813 382.5313,60.7813 Q382.8594,60.7813 383.1094,61.0469 Q383.375,61.2969 383.375,61.6406 Q383.375,61.9844 383.0313,62.3906 Q382.5313,62.9688 381.7344,63.2969 Q380.6563,63.75 379.3594,63.75 Q377.8438,63.75 376.6406,63.125 Q375.6563,62.625 374.9688,61.5625 Q374.2813,60.4844 374.2813,59.2031 L374.2813,58.0469 Q374.2813,56.7188 374.8906,55.5781 Q375.5156,54.4219 376.6094,53.8125 Q377.7031,53.1875 378.9375,53.1875 Q379.6719,53.1875 380.3125,53.3594 Q380.9688,53.5156 381.5156,53.875 Z "/><text fill="#000000" font-family="sans-serif" font-size="12" lengthAdjust="spacingAndGlyphs" textLength="30" x="399.25" y="62.9102">Logic</text><line style="stroke: #A80036; stroke-width: 1.5;" x1="303.5" x2="492.5" y1="74" y2="74"/><rect fill="none" height="6" style="stroke: #C82930; stroke-width: 1.0;" width="6" x="310.5" y="82"/><text fill="#000000" font-family="sans-serif" font-size="11" lengthAdjust="spacingAndGlyphs" textLength="60" x="322.5" y="89.4189">game: Game</text><rect fill="none" height="6" style="stroke: #C82930; stroke-width: 1.0;" width="6" x="310.5" y="95.8359"/><text fill="#000000" font-family="sans-serif" font-size="11" lengthAdjust="spacingAndGlyphs" textLength="143" x="322.5" y="103.2549">startController: StartController</text><rect fill="none" height="6" style="stroke: #C82930; stroke-width: 1.0;" width="6" x="310.5" y="109.6719"/><text fill="#000000" font-family="sans-serif" font-size="11" lengthAdjust="spacingAndGlyphs" textLength="138" x="322.5" y="117.0908">playController: PlayController</text><rect fill="none" height="6" style="stroke: #C82930; stroke-width: 1.0;" width="6" x="310.5" y="123.5078"/><text fill="#000000" font-family="sans-serif" font-size="11" lengthAdjust="spacingAndGlyphs" textLength="155" x="322.5" y="130.9268">resultController: ResultController</text><line style="stroke: #A80036; stroke-width: 1.5;" x1="303.5" x2="492.5" y1="137.3438" y2="137.3438"/><ellipse cx="313.5" cy="148.3438" fill="#84BE84" rx="3" ry="3" style="stroke: #038048; stroke-width: 1.0;"/><text fill="#000000" font-family="sans-serif" font-size="11" lengthAdjust="spacingAndGlyphs" textLength="34" x="322.5" y="152.7627">Logic()</text><ellipse cx="313.5" cy="162.1797" fill="#84BE84" rx="3" ry="3" style="stroke: #038048; stroke-width: 1.0;"/><text fill="#000000" font-family="sans-serif" font-size="11" lengthAdjust="spacingAndGlyphs" textLength="101" x="322.5" y="166.5986">createPlayers(): void</text><ellipse cx="313.5" cy="176.0156" fill="#84BE84" rx="3" ry="3" style="stroke: #038048; stroke-width: 1.0;"/><text fill="#000000" font-family="sans-serif" font-size="11" lengthAdjust="spacingAndGlyphs" textLength="164" x="322.5" y="180.4346">getTokenPlayerFromTurn(): Player</text><ellipse cx="313.5" cy="189.8516" fill="#84BE84" rx="3" ry="3" style="stroke: #038048; stroke-width: 1.0;"/><text fill="#000000" font-family="sans-serif" font-size="11" lengthAdjust="spacingAndGlyphs" textLength="133" x="322.5" y="194.2705">isBoardComplete(): boolean</text><ellipse cx="313.5" cy="203.6875" fill="#84BE84" rx="3" ry="3" style="stroke: #038048; stroke-width: 1.0;"/><text fill="#000000" font-family="sans-serif" font-size="11" lengthAdjust="spacingAndGlyphs" textLength="154" x="322.5" y="208.1064">putTokenPlayerFromTurn(): void</text><ellipse cx="313.5" cy="217.5234" fill="#84BE84" rx="3" ry="3" style="stroke: #038048; stroke-width: 1.0;"/><text fill="#000000" font-family="sans-serif" font-size="11" lengthAdjust="spacingAndGlyphs" textLength="165" x="322.5" y="221.9424">moveTokenPlayerFromTurn(): void</text><ellipse cx="313.5" cy="231.3594" fill="#84BE84" rx="3" ry="3" style="stroke: #038048; stroke-width: 1.0;"/><text fill="#000000" font-family="sans-serif" font-size="11" lengthAdjust="spacingAndGlyphs" textLength="92" x="322.5" y="235.7783">changeTurn(): void</text><ellipse cx="313.5" cy="245.1953" fill="#84BE84" rx="3" ry="3" style="stroke: #038048; stroke-width: 1.0;"/><text fill="#000000" font-family="sans-serif" font-size="11" lengthAdjust="spacingAndGlyphs" textLength="115" x="322.5" y="249.6143">getToken(int, int): Token</text><ellipse cx="313.5" cy="259.0313" fill="#84BE84" rx="3" ry="3" style="stroke: #038048; stroke-width: 1.0;"/><text fill="#000000" font-family="sans-serif" font-size="11" lengthAdjust="spacingAndGlyphs" textLength="141" x="322.5" y="263.4502">getCoordinateDimension(): int</text><ellipse cx="313.5" cy="272.8672" fill="#84BE84" rx="3" ry="3" style="stroke: #038048; stroke-width: 1.0;"/><text fill="#000000" font-family="sans-serif" font-size="11" lengthAdjust="spacingAndGlyphs" textLength="110" x="322.5" y="277.2861">isTicTacToe(): boolean</text><ellipse cx="313.5" cy="286.7031" fill="#84BE84" rx="3" ry="3" style="stroke: #038048; stroke-width: 1.0;"/><text fill="#000000" font-family="sans-serif" font-size="11" lengthAdjust="spacingAndGlyphs" textLength="141" x="322.5" y="291.1221">getOtherValueFromTurn(): int</text><ellipse cx="313.5" cy="300.5391" fill="#84BE84" rx="3" ry="3" style="stroke: #038048; stroke-width: 1.0;"/><text fill="#000000" font-family="sans-serif" font-size="11" lengthAdjust="spacingAndGlyphs" textLength="87" x="322.5" y="304.958">getBoard(): Board</text><!--MD5=[8ede4dbfb3b498095887802b64b699f0]
class tictactoe.controllers.StartController--><rect fill="#FEFECE" filter="url(#f1kbhgjxnezfrc)" height="75.6719" id="tictactoe.controllers.StartController" style="stroke: #A80036; stroke-width: 1.5;" width="131" x="518.5" y="419.5"/><ellipse cx="542.5" cy="435.5" fill="#ADD1B2" rx="11" ry="11" style="stroke: #A80036; stroke-width: 1.0;"/><path d="M545.2656,431.375 Q545.4219,431.1563 545.6094,431.0469 Q545.7969,430.9375 546.0156,430.9375 Q546.3906,430.9375 546.625,431.2031 Q546.8594,431.4531 546.8594,432.0625 L546.8594,433.5156 Q546.8594,434.125 546.625,434.3906 Q546.3906,434.6563 546.0156,434.6563 Q545.6719,434.6563 545.4688,434.4531 Q545.2656,434.2656 545.1563,433.75 Q545.1094,433.3906 544.9219,433.2031 Q544.5938,432.8281 543.9844,432.6094 Q543.375,432.3906 542.75,432.3906 Q541.9844,432.3906 541.3438,432.7188 Q540.7188,433.0469 540.2188,433.7969 Q539.7344,434.5469 539.7344,435.5781 L539.7344,436.6719 Q539.7344,437.9063 540.625,438.7344 Q541.5156,439.5469 543.1094,439.5469 Q544.0469,439.5469 544.7031,439.2969 Q545.0938,439.1406 545.5156,438.7031 Q545.7813,438.4375 545.9219,438.3594 Q546.0781,438.2813 546.2813,438.2813 Q546.6094,438.2813 546.8594,438.5469 Q547.125,438.7969 547.125,439.1406 Q547.125,439.4844 546.7813,439.8906 Q546.2813,440.4688 545.4844,440.7969 Q544.4063,441.25 543.1094,441.25 Q541.5938,441.25 540.3906,440.625 Q539.4063,440.125 538.7188,439.0625 Q538.0313,437.9844 538.0313,436.7031 L538.0313,435.5469 Q538.0313,434.2188 538.6406,433.0781 Q539.2656,431.9219 540.3594,431.3125 Q541.4531,430.6875 542.6875,430.6875 Q543.4219,430.6875 544.0625,430.8594 Q544.7188,431.0156 545.2656,431.375 Z "/><text fill="#000000" font-family="sans-serif" font-size="12" lengthAdjust="spacingAndGlyphs" textLength="79" x="558.5" y="440.4102">StartController</text><line style="stroke: #A80036; stroke-width: 1.5;" x1="519.5" x2="648.5" y1="451.5" y2="451.5"/><line style="stroke: #A80036; stroke-width: 1.5;" x1="519.5" x2="648.5" y1="459.5" y2="459.5"/><polygon fill="#4177AF" points="529.5,466.5,525.5,472.5,533.5,472.5" style="stroke: #1963A0; stroke-width: 1.0;"/><text fill="#000000" font-family="sans-serif" font-size="11" lengthAdjust="spacingAndGlyphs" textLength="105" x="538.5" y="474.9189">StartController(Game)</text><polygon fill="#4177AF" points="529.5,480.3359,525.5,486.3359,533.5,486.3359" style="stroke: #1963A0; stroke-width: 1.0;"/><text fill="#000000" font-family="sans-serif" font-size="11" lengthAdjust="spacingAndGlyphs" textLength="101" x="538.5" y="488.7549">createPlayers(): void</text><!--MD5=[b574e60c06c50037ff1b014277a67d62]
class tictactoe.controllers.PlayController--><rect fill="#FEFECE" filter="url(#f1kbhgjxnezfrc)" height="172.5234" id="tictactoe.controllers.PlayController" style="stroke: #A80036; stroke-width: 1.5;" width="249" x="32.5" y="371"/><ellipse cx="114.25" cy="387" fill="#ADD1B2" rx="11" ry="11" style="stroke: #A80036; stroke-width: 1.0;"/><path d="M117.0156,382.875 Q117.1719,382.6563 117.3594,382.5469 Q117.5469,382.4375 117.7656,382.4375 Q118.1406,382.4375 118.375,382.7031 Q118.6094,382.9531 118.6094,383.5625 L118.6094,385.0156 Q118.6094,385.625 118.375,385.8906 Q118.1406,386.1563 117.7656,386.1563 Q117.4219,386.1563 117.2188,385.9531 Q117.0156,385.7656 116.9063,385.25 Q116.8594,384.8906 116.6719,384.7031 Q116.3438,384.3281 115.7344,384.1094 Q115.125,383.8906 114.5,383.8906 Q113.7344,383.8906 113.0938,384.2188 Q112.4688,384.5469 111.9688,385.2969 Q111.4844,386.0469 111.4844,387.0781 L111.4844,388.1719 Q111.4844,389.4063 112.375,390.2344 Q113.2656,391.0469 114.8594,391.0469 Q115.7969,391.0469 116.4531,390.7969 Q116.8438,390.6406 117.2656,390.2031 Q117.5313,389.9375 117.6719,389.8594 Q117.8281,389.7813 118.0313,389.7813 Q118.3594,389.7813 118.6094,390.0469 Q118.875,390.2969 118.875,390.6406 Q118.875,390.9844 118.5313,391.3906 Q118.0313,391.9688 117.2344,392.2969 Q116.1563,392.75 114.8594,392.75 Q113.3438,392.75 112.1406,392.125 Q111.1563,391.625 110.4688,390.5625 Q109.7813,389.4844 109.7813,388.2031 L109.7813,387.0469 Q109.7813,385.7188 110.3906,384.5781 Q111.0156,383.4219 112.1094,382.8125 Q113.2031,382.1875 114.4375,382.1875 Q115.1719,382.1875 115.8125,382.3594 Q116.4688,382.5156 117.0156,382.875 Z "/><text fill="#000000" font-family="sans-serif" font-size="12" lengthAdjust="spacingAndGlyphs" textLength="77" x="134.75" y="391.9102">PlayController</text><line style="stroke: #A80036; stroke-width: 1.5;" x1="33.5" x2="280.5" y1="403" y2="403"/><line style="stroke: #A80036; stroke-width: 1.5;" x1="33.5" x2="280.5" y1="411" y2="411"/><polygon fill="#4177AF" points="43.5,418,39.5,424,47.5,424" style="stroke: #1963A0; stroke-width: 1.0;"/><text fill="#000000" font-family="sans-serif" font-size="11" lengthAdjust="spacingAndGlyphs" textLength="102" x="52.5" y="426.4189">PlayController(Game)</text><polygon fill="#4177AF" points="43.5,431.8359,39.5,437.8359,47.5,437.8359" style="stroke: #1963A0; stroke-width: 1.0;"/><text fill="#000000" font-family="sans-serif" font-size="11" lengthAdjust="spacingAndGlyphs" textLength="164" x="52.5" y="440.2549">getTokenPlayerFromTurn(): Player</text><polygon fill="#4177AF" points="43.5,445.6719,39.5,451.6719,47.5,451.6719" style="stroke: #1963A0; stroke-width: 1.0;"/><text fill="#000000" font-family="sans-serif" font-size="11" lengthAdjust="spacingAndGlyphs" textLength="133" x="52.5" y="454.0908">isBoardComplete(): boolean</text><polygon fill="#4177AF" points="43.5,459.5078,39.5,465.5078,47.5,465.5078" style="stroke: #1963A0; stroke-width: 1.0;"/><text fill="#000000" font-family="sans-serif" font-size="11" lengthAdjust="spacingAndGlyphs" textLength="206" x="52.5" y="467.9268">putTokenPlayerFromTurn(Coordinate): void</text><polygon fill="#4177AF" points="43.5,473.3438,39.5,479.3438,47.5,479.3438" style="stroke: #1963A0; stroke-width: 1.0;"/><text fill="#000000" font-family="sans-serif" font-size="11" lengthAdjust="spacingAndGlyphs" textLength="223" x="52.5" y="481.7627">moveTokenPlayerFromTurn(Coordinate[]): void</text><polygon fill="#4177AF" points="43.5,487.1797,39.5,493.1797,47.5,493.1797" style="stroke: #1963A0; stroke-width: 1.0;"/><text fill="#000000" font-family="sans-serif" font-size="11" lengthAdjust="spacingAndGlyphs" textLength="92" x="52.5" y="495.5986">changeTurn(): void</text><polygon fill="#4177AF" points="43.5,501.0156,39.5,507.0156,47.5,507.0156" style="stroke: #1963A0; stroke-width: 1.0;"/><text fill="#000000" font-family="sans-serif" font-size="11" lengthAdjust="spacingAndGlyphs" textLength="115" x="52.5" y="509.4346">getToken(int, int): Token</text><polygon fill="#4177AF" points="43.5,514.8516,39.5,520.8516,47.5,520.8516" style="stroke: #1963A0; stroke-width: 1.0;"/><text fill="#000000" font-family="sans-serif" font-size="11" lengthAdjust="spacingAndGlyphs" textLength="141" x="52.5" y="523.2705">getCoordinateDimension(): int</text><polygon fill="#4177AF" points="43.5,528.6875,39.5,534.6875,47.5,534.6875" style="stroke: #1963A0; stroke-width: 1.0;"/><text fill="#000000" font-family="sans-serif" font-size="11" lengthAdjust="spacingAndGlyphs" textLength="110" x="52.5" y="537.1064">isTicTacToe(): boolean</text><!--MD5=[2c3ef77d19c2424f55dfd6db4f13e20e]
class tictactoe.controllers.ResultController--><rect fill="#FEFECE" filter="url(#f1kbhgjxnezfrc)" height="75.6719" id="tictactoe.controllers.ResultController" style="stroke: #A80036; stroke-width: 1.5;" width="167" x="316.5" y="419.5"/><ellipse cx="351.75" cy="435.5" fill="#ADD1B2" rx="11" ry="11" style="stroke: #A80036; stroke-width: 1.0;"/><path d="M354.5156,431.375 Q354.6719,431.1563 354.8594,431.0469 Q355.0469,430.9375 355.2656,430.9375 Q355.6406,430.9375 355.875,431.2031 Q356.1094,431.4531 356.1094,432.0625 L356.1094,433.5156 Q356.1094,434.125 355.875,434.3906 Q355.6406,434.6563 355.2656,434.6563 Q354.9219,434.6563 354.7188,434.4531 Q354.5156,434.2656 354.4063,433.75 Q354.3594,433.3906 354.1719,433.2031 Q353.8438,432.8281 353.2344,432.6094 Q352.625,432.3906 352,432.3906 Q351.2344,432.3906 350.5938,432.7188 Q349.9688,433.0469 349.4688,433.7969 Q348.9844,434.5469 348.9844,435.5781 L348.9844,436.6719 Q348.9844,437.9063 349.875,438.7344 Q350.7656,439.5469 352.3594,439.5469 Q353.2969,439.5469 353.9531,439.2969 Q354.3438,439.1406 354.7656,438.7031 Q355.0313,438.4375 355.1719,438.3594 Q355.3281,438.2813 355.5313,438.2813 Q355.8594,438.2813 356.1094,438.5469 Q356.375,438.7969 356.375,439.1406 Q356.375,439.4844 356.0313,439.8906 Q355.5313,440.4688 354.7344,440.7969 Q353.6563,441.25 352.3594,441.25 Q350.8438,441.25 349.6406,440.625 Q348.6563,440.125 347.9688,439.0625 Q347.2813,437.9844 347.2813,436.7031 L347.2813,435.5469 Q347.2813,434.2188 347.8906,433.0781 Q348.5156,431.9219 349.6094,431.3125 Q350.7031,430.6875 351.9375,430.6875 Q352.6719,430.6875 353.3125,430.8594 Q353.9688,431.0156 354.5156,431.375 Z "/><text fill="#000000" font-family="sans-serif" font-size="12" lengthAdjust="spacingAndGlyphs" textLength="90" x="370.25" y="440.4102">ResultController</text><line style="stroke: #A80036; stroke-width: 1.5;" x1="317.5" x2="482.5" y1="451.5" y2="451.5"/><line style="stroke: #A80036; stroke-width: 1.5;" x1="317.5" x2="482.5" y1="459.5" y2="459.5"/><polygon fill="#4177AF" points="327.5,466.5,323.5,472.5,331.5,472.5" style="stroke: #1963A0; stroke-width: 1.0;"/><text fill="#000000" font-family="sans-serif" font-size="11" lengthAdjust="spacingAndGlyphs" textLength="112" x="336.5" y="474.9189">ResultController(Game)</text><polygon fill="#4177AF" points="327.5,480.3359,323.5,486.3359,331.5,486.3359" style="stroke: #1963A0; stroke-width: 1.0;"/><text fill="#000000" font-family="sans-serif" font-size="11" lengthAdjust="spacingAndGlyphs" textLength="141" x="336.5" y="488.7549">getOtherValueFromTurn(): int</text><!--MD5=[8d3188f3c370ea7d5d91d12bca83b67a]
class tictactoe.models.Game--><rect fill="#FEFECE" filter="url(#f1kbhgjxnezfrc)" height="48" id="tictactoe.models.Game" style="stroke: #A80036; stroke-width: 1.5;" width="66" x="670" y="620"/><ellipse cx="685" cy="636" fill="#ADD1B2" rx="11" ry="11" style="stroke: #A80036; stroke-width: 1.0;"/><path d="M687.7656,631.875 Q687.9219,631.6563 688.1094,631.5469 Q688.2969,631.4375 688.5156,631.4375 Q688.8906,631.4375 689.125,631.7031 Q689.3594,631.9531 689.3594,632.5625 L689.3594,634.0156 Q689.3594,634.625 689.125,634.8906 Q688.8906,635.1563 688.5156,635.1563 Q688.1719,635.1563 687.9688,634.9531 Q687.7656,634.7656 687.6563,634.25 Q687.6094,633.8906 687.4219,633.7031 Q687.0938,633.3281 686.4844,633.1094 Q685.875,632.8906 685.25,632.8906 Q684.4844,632.8906 683.8438,633.2188 Q683.2188,633.5469 682.7188,634.2969 Q682.2344,635.0469 682.2344,636.0781 L682.2344,637.1719 Q682.2344,638.4063 683.125,639.2344 Q684.0156,640.0469 685.6094,640.0469 Q686.5469,640.0469 687.2031,639.7969 Q687.5938,639.6406 688.0156,639.2031 Q688.2813,638.9375 688.4219,638.8594 Q688.5781,638.7813 688.7813,638.7813 Q689.1094,638.7813 689.3594,639.0469 Q689.625,639.2969 689.625,639.6406 Q689.625,639.9844 689.2813,640.3906 Q688.7813,640.9688 687.9844,641.2969 Q686.9063,641.75 685.6094,641.75 Q684.0938,641.75 682.8906,641.125 Q681.9063,640.625 681.2188,639.5625 Q680.5313,638.4844 680.5313,637.2031 L680.5313,636.0469 Q680.5313,634.7188 681.1406,633.5781 Q681.7656,632.4219 682.8594,631.8125 Q683.9531,631.1875 685.1875,631.1875 Q685.9219,631.1875 686.5625,631.3594 Q687.2188,631.5156 687.7656,631.875 Z "/><text fill="#000000" font-family="sans-serif" font-size="12" lengthAdjust="spacingAndGlyphs" textLength="34" x="699" y="640.9102">Game</text><line style="stroke: #A80036; stroke-width: 1.5;" x1="671" x2="735" y1="652" y2="652"/><line style="stroke: #A80036; stroke-width: 1.5;" x1="671" x2="735" y1="660" y2="660"/><!--MD5=[55d70ecb9e3ba4786ec1f15d0b7dce13]
class tictactoe.models.Coordinate--><rect fill="#FEFECE" filter="url(#f1kbhgjxnezfrc)" height="48" id="tictactoe.models.Coordinate" style="stroke: #A80036; stroke-width: 1.5;" width="93" x="541.5" y="620"/><ellipse cx="556.5" cy="636" fill="#ADD1B2" rx="11" ry="11" style="stroke: #A80036; stroke-width: 1.0;"/><path d="M559.2656,631.875 Q559.4219,631.6563 559.6094,631.5469 Q559.7969,631.4375 560.0156,631.4375 Q560.3906,631.4375 560.625,631.7031 Q560.8594,631.9531 560.8594,632.5625 L560.8594,634.0156 Q560.8594,634.625 560.625,634.8906 Q560.3906,635.1563 560.0156,635.1563 Q559.6719,635.1563 559.4688,634.9531 Q559.2656,634.7656 559.1563,634.25 Q559.1094,633.8906 558.9219,633.7031 Q558.5938,633.3281 557.9844,633.1094 Q557.375,632.8906 556.75,632.8906 Q555.9844,632.8906 555.3438,633.2188 Q554.7188,633.5469 554.2188,634.2969 Q553.7344,635.0469 553.7344,636.0781 L553.7344,637.1719 Q553.7344,638.4063 554.625,639.2344 Q555.5156,640.0469 557.1094,640.0469 Q558.0469,640.0469 558.7031,639.7969 Q559.0938,639.6406 559.5156,639.2031 Q559.7813,638.9375 559.9219,638.8594 Q560.0781,638.7813 560.2813,638.7813 Q560.6094,638.7813 560.8594,639.0469 Q561.125,639.2969 561.125,639.6406 Q561.125,639.9844 560.7813,640.3906 Q560.2813,640.9688 559.4844,641.2969 Q558.4063,641.75 557.1094,641.75 Q555.5938,641.75 554.3906,641.125 Q553.4063,640.625 552.7188,639.5625 Q552.0313,638.4844 552.0313,637.2031 L552.0313,636.0469 Q552.0313,634.7188 552.6406,633.5781 Q553.2656,632.4219 554.3594,631.8125 Q555.4531,631.1875 556.6875,631.1875 Q557.4219,631.1875 558.0625,631.3594 Q558.7188,631.5156 559.2656,631.875 Z "/><text fill="#000000" font-family="sans-serif" font-size="12" lengthAdjust="spacingAndGlyphs" textLength="61" x="570.5" y="640.9102">Coordinate</text><line style="stroke: #A80036; stroke-width: 1.5;" x1="542.5" x2="633.5" y1="652" y2="652"/><line style="stroke: #A80036; stroke-width: 1.5;" x1="542.5" x2="633.5" y1="660" y2="660"/><!--MD5=[67f54059f517de4e17e4f415259fadfa]
link tictactoe.controllers.Controller to tictactoe.models.Game--><path d="M631.264,221.83 C665.641,258.188 709.775,312.964 729,371 C756.532,454.114 743.541,481.66 729,568 C726.309,583.976 720.607,601.0959 715.226,614.9394 " fill="none" id="tictactoe.controllers.Controller-&gt;tictactoe.models.Game" style="stroke: #A80036; stroke-width: 1.0; stroke-dasharray: 7.0,7.0;"/><polygon fill="#A80036" points="713.264,619.8833,720.3016,612.9933,715.1083,615.2359,712.8657,610.0425,713.264,619.8833" style="stroke: #A80036; stroke-width: 1.0;"/><!--MD5=[bf6ea4e22b99b81dd48bbf2eb1cf70e8]
link tictactoe.controllers.Logic to tictactoe.models.Game--><path d="M502.8631,304.892 C502.8631,304.892 508.587,309.285 511,311 C571.555,354.027 621.01,312.664 667,371 C721.216,439.77 716.129,550.042 708.954,606.743 " fill="none" id="tictactoe.controllers.Logic-tictactoe.models.Game" style="stroke: #A80036; stroke-width: 1.0;"/><polygon fill="#A80036" points="707.169,619.6224,712.3669,611.2569,707.8556,614.6698,704.4427,610.1584,707.169,619.6224" style="stroke: #A80036; stroke-width: 1.0;"/><line style="stroke: #A80036; stroke-width: 1.0;" x1="707.8556" x2="708.954" y1="614.6698" y2="606.7455"/><polygon fill="#A80036" points="493.57,297.3,495.6859,304.1937,502.8631,304.892,500.7472,297.9983,493.57,297.3" style="stroke: #A80036; stroke-width: 1.0;"/><!--MD5=[19457e990bfffed372bd4754e4caf1bd]
link tictactoe.controllers.Logic to tictactoe.controllers.StartController--><path d="M493.8421,321.2648 C493.8421,321.2648 535.83,384.245 551.944,408.416 " fill="none" id="tictactoe.controllers.Logic-tictactoe.controllers.StartController" style="stroke: #A80036; stroke-width: 1.0;"/><polygon fill="#A80036" points="559.256,419.383,557.5913,409.6758,556.4822,415.2229,550.9352,414.1139,559.256,419.383" style="stroke: #A80036; stroke-width: 1.0;"/><line style="stroke: #A80036; stroke-width: 1.0;" x1="556.4822" x2="552.0445" y1="415.2229" y2="408.567"/><polygon fill="#A80036" points="487.186,311.28,487.1858,318.4911,493.8421,321.2648,493.8423,314.0537,487.186,311.28" style="stroke: #A80036; stroke-width: 1.0;"/><!--MD5=[600c1fe4dddc39bb8e79c6dad4949c4a]
link tictactoe.controllers.Logic to tictactoe.controllers.PlayController--><path d="M294.5605,297.2508 C294.5605,297.2508 257.039,340.688 239.629,360.843 " fill="none" id="tictactoe.controllers.Logic-tictactoe.controllers.PlayController" style="stroke: #A80036; stroke-width: 1.0;"/><polygon fill="#A80036" points="230.913,370.933,239.8236,366.7376,234.1817,367.1494,233.7699,361.5076,230.913,370.933" style="stroke: #A80036; stroke-width: 1.0;"/><line style="stroke: #A80036; stroke-width: 1.0;" x1="234.1817" x2="239.411" y1="367.1494" y2="361.0945"/><polygon fill="#A80036" points="302.404,288.169,295.455,290.0954,294.5605,297.2508,301.5095,295.3244,302.404,288.169" style="stroke: #A80036; stroke-width: 1.0;"/><!--MD5=[f0d647b4d597eb7a904e84056b3f7bd5]
link tictactoe.controllers.Logic to tictactoe.controllers.ResultController--><path d="M399.0447,323.2797 C399.0447,323.2797 399.473,382.99 399.64,406.341 " fill="none" id="tictactoe.controllers.Logic-tictactoe.controllers.ResultController" style="stroke: #A80036; stroke-width: 1.0;"/><polygon fill="#A80036" points="399.734,419.383,403.6696,410.3547,399.6983,414.3831,395.6698,410.4118,399.734,419.383" style="stroke: #A80036; stroke-width: 1.0;"/><line style="stroke: #A80036; stroke-width: 1.0;" x1="399.6983" x2="399.641" y1="414.3831" y2="406.3835"/><polygon fill="#A80036" points="398.959,311.28,395.002,317.3084,399.0447,323.2797,403.0018,317.2513,398.959,311.28" style="stroke: #A80036; stroke-width: 1.0;"/><!--MD5=[5700b97431232c099330215bddfcc855]
reverse link tictactoe.controllers.Controller to tictactoe.controllers.PlayController--><path d="M562.655,240.318 C550.832,265.517 533.92,292.833 511,311 C434.26,371.826 388.851,332.067 299,371 C293.323,373.46 287.598,376.11 281.873,378.9 " fill="none" id="tictactoe.controllers.Controller&lt;-tictactoe.controllers.PlayController" style="stroke: #A80036; stroke-width: 1.0;"/><polygon fill="none" points="556.363,237.231,570.72,221.647,569.216,242.783,556.363,237.231" style="stroke: #A80036; stroke-width: 1.0;"/><!--MD5=[70aedda6b24476e26c690784403df0dd]
link tictactoe.controllers.PlayController to tictactoe.models.Coordinate--><path d="M258.111,544.071 C271.364,552.972 285.161,561.222 299,568 C376.951,606.1751 476.571,626.4978 536.164,635.9896 " fill="none" id="tictactoe.controllers.PlayController-&gt;tictactoe.models.Coordinate" style="stroke: #A80036; stroke-width: 1.0; stroke-dasharray: 7.0,7.0;"/><polygon fill="#A80036" points="541.449,636.8197,533.1785,631.4718,536.5095,636.044,531.9374,639.375,541.449,636.8197" style="stroke: #A80036; stroke-width: 1.0;"/><!--MD5=[8f435ed2c59169c4603cda7b7477fe61]
reverse link tictactoe.controllers.Controller to tictactoe.controllers.ResultController--><path d="M552.962,239.698 C540.56,262.55 525.799,288.359 511,311 C485.968,349.296 453.976,390.547 430.774,419.31 " fill="none" id="tictactoe.controllers.Controller&lt;-tictactoe.controllers.ResultController" style="stroke: #A80036; stroke-width: 1.0;"/><polygon fill="none" points="546.965,236.069,562.565,221.729,559.312,242.668,546.965,236.069" style="stroke: #A80036; stroke-width: 1.0;"/><!--MD5=[5deb1e5c7bf9906a35de112138d88f9c]
reverse link tictactoe.controllers.Controller to tictactoe.controllers.StartController--><path d="M584.769,241.93 C584.572,296.869 584.296,373.932 584.134,419.195 " fill="none" id="tictactoe.controllers.Controller&lt;-tictactoe.controllers.StartController" style="stroke: #A80036; stroke-width: 1.0;"/><polygon fill="none" points="577.77,241.683,584.842,221.708,591.77,241.733,577.77,241.683" style="stroke: #A80036; stroke-width: 1.0;"/><!--MD5=[92d521fcd71e555e740c993e92a06337]
@startuml

class  tictactoe.controllers.Controller{
# game: Game
~ Controller(Game)
+ getBoard(): Board
}
tictactoe.controllers.Controller ..> tictactoe.models.Game

class  tictactoe.controllers.Logic{
- game: Game
- startController: StartController
- playController: PlayController
- resultController: ResultController
+ Logic()
+ createPlayers(): void
+ getTokenPlayerFromTurn(): Player
+ isBoardComplete(): boolean
+ putTokenPlayerFromTurn(): void
+ moveTokenPlayerFromTurn(): void
+ changeTurn(): void
+ getToken(int, int): Token
+ getCoordinateDimension(): int
+ isTicTacToe(): boolean
+ getOtherValueFromTurn(): int
+ getBoard(): Board
}
tictactoe.controllers.Logic *-down-> tictactoe.models.Game
tictactoe.controllers.Logic *-down-> tictactoe.controllers.StartController
tictactoe.controllers.Logic *-down-> tictactoe.controllers.PlayController
tictactoe.controllers.Logic *-down-> tictactoe.controllers.ResultController

class  tictactoe.controllers.PlayController{
~ PlayController(Game)
~ getTokenPlayerFromTurn(): Player
~ isBoardComplete(): boolean
~ putTokenPlayerFromTurn(Coordinate): void
~ moveTokenPlayerFromTurn(Coordinate[]): void
~ changeTurn(): void
~ getToken(int, int): Token
~ getCoordinateDimension(): int
~ isTicTacToe(): boolean
}
tictactoe.controllers.Controller <|-down- tictactoe.controllers.PlayController
tictactoe.controllers.PlayController ..> tictactoe.models.Coordinate

class  tictactoe.controllers.ResultController{
~ ResultController(Game)
~ getOtherValueFromTurn(): int
}
tictactoe.controllers.Controller <|-down- tictactoe.controllers.ResultController

class  tictactoe.controllers.StartController{
~ StartController(Game)
~ createPlayers(): void
}
tictactoe.controllers.Controller <|-down- tictactoe.controllers.StartController

@enduml

PlantUML version 1.2020.15(Sun Jun 28 13:39:45 CEST 2020)
(GPL source distribution)
Java Runtime: Java(TM) SE Runtime Environment
JVM: Java HotSpot(TM) 64-Bit Server VM
Default Encoding: windows-1252
Language: es
Country: ES
--></g></svg>