<?xml version="1.0" encoding="UTF-8" standalone="no"?><svg xmlns="http://www.w3.org/2000/svg" xmlns:xlink="http://www.w3.org/1999/xlink" contentScriptType="application/ecmascript" contentStyleType="text/css" height="748px" preserveAspectRatio="none" style="width:1147px;height:748px;" version="1.1" viewBox="0 0 1147 748" width="1147px" zoomAndPan="magnify"><defs><filter height="300%" id="fi9ymhmrklb9x" width="300%" x="-1" y="-1"><feGaussianBlur result="blurOut" stdDeviation="2.0"/><feColorMatrix in="blurOut" result="blurOut2" type="matrix" values="0 0 0 0 0 0 0 0 0 0 0 0 0 0 0 0 0 0 .4 0"/><feOffset dx="4.0" dy="4.0" in="blurOut2" result="blurOut3"/><feBlend in="SourceGraphic" in2="blurOut3" mode="normal"/></filter></defs><g><!--MD5=[64182ab34c08ac367bbf699869515711]
cluster tictactoe.views.console--><polygon fill="#FFFFFF" filter="url(#fi9ymhmrklb9x)" points="16,130,188,130,195,153.6094,938,153.6094,938,612,16,612,16,130" style="stroke: #000000; stroke-width: 1.5;"/><line style="stroke: #000000; stroke-width: 1.5;" x1="16" x2="195" y1="153.6094" y2="153.6094"/><text fill="#000000" font-family="sans-serif" font-size="14" font-weight="bold" lengthAdjust="spacingAndGlyphs" textLength="166" x="20" y="146.5332">tictactoe.views.console</text><!--MD5=[c52f45833d539af9e29a9d34b8b7302b]
cluster utils--><polygon fill="#FFFFFF" filter="url(#fi9ymhmrklb9x)" points="963,164.5,999,164.5,1006,188.1094,1125,188.1094,1125,264.5,963,264.5,963,164.5" style="stroke: #000000; stroke-width: 1.5;"/><line style="stroke: #000000; stroke-width: 1.5;" x1="963" x2="1006" y1="188.1094" y2="188.1094"/><text fill="#000000" font-family="sans-serif" font-size="14" font-weight="bold" lengthAdjust="spacingAndGlyphs" textLength="30" x="967" y="181.0332">utils</text><!--MD5=[ee7e9a007a7c4d40c0679a27f272732d]
cluster tictactoe.controllers--><polygon fill="#FFFFFF" filter="url(#fi9ymhmrklb9x)" points="93,636,241,636,248,659.6094,538,659.6094,538,736,93,736,93,636" style="stroke: #000000; stroke-width: 1.5;"/><line style="stroke: #000000; stroke-width: 1.5;" x1="93" x2="248" y1="659.6094" y2="659.6094"/><text fill="#000000" font-family="sans-serif" font-size="14" font-weight="bold" lengthAdjust="spacingAndGlyphs" textLength="142" x="97" y="652.5332">tictactoe.controllers</text><!--MD5=[f4e83a21a957c5b9ba9691e6361db36b]
cluster tictactoe.views--><polygon fill="#FFFFFF" filter="url(#fi9ymhmrklb9x)" points="341,6,453,6,460,29.6094,679,29.6094,679,106,341,106,341,6" style="stroke: #000000; stroke-width: 1.5;"/><line style="stroke: #000000; stroke-width: 1.5;" x1="341" x2="460" y1="29.6094" y2="29.6094"/><text fill="#000000" font-family="sans-serif" font-size="14" font-weight="bold" lengthAdjust="spacingAndGlyphs" textLength="106" x="345" y="22.5332">tictactoe.views</text><!--MD5=[270aad5bca7cd81b5a24665b2403b70b]
class tictactoe.views.console.BoardView--><rect fill="#FEFECE" filter="url(#fi9ymhmrklb9x)" height="117.1797" id="tictactoe.views.console.BoardView" style="stroke: #A80036; stroke-width: 1.5;" width="201" x="694.5" y="479"/><ellipse cx="761.25" cy="495" fill="#ADD1B2" rx="11" ry="11" style="stroke: #A80036; stroke-width: 1.0;"/><path d="M764.0156,490.875 Q764.1719,490.6563 764.3594,490.5469 Q764.5469,490.4375 764.7656,490.4375 Q765.1406,490.4375 765.375,490.7031 Q765.6094,490.9531 765.6094,491.5625 L765.6094,493.0156 Q765.6094,493.625 765.375,493.8906 Q765.1406,494.1563 764.7656,494.1563 Q764.4219,494.1563 764.2188,493.9531 Q764.0156,493.7656 763.9063,493.25 Q763.8594,492.8906 763.6719,492.7031 Q763.3438,492.3281 762.7344,492.1094 Q762.125,491.8906 761.5,491.8906 Q760.7344,491.8906 760.0938,492.2188 Q759.4688,492.5469 758.9688,493.2969 Q758.4844,494.0469 758.4844,495.0781 L758.4844,496.1719 Q758.4844,497.4063 759.375,498.2344 Q760.2656,499.0469 761.8594,499.0469 Q762.7969,499.0469 763.4531,498.7969 Q763.8438,498.6406 764.2656,498.2031 Q764.5313,497.9375 764.6719,497.8594 Q764.8281,497.7813 765.0313,497.7813 Q765.3594,497.7813 765.6094,498.0469 Q765.875,498.2969 765.875,498.6406 Q765.875,498.9844 765.5313,499.3906 Q765.0313,499.9688 764.2344,500.2969 Q763.1563,500.75 761.8594,500.75 Q760.3438,500.75 759.1406,500.125 Q758.1563,499.625 757.4688,498.5625 Q756.7813,497.4844 756.7813,496.2031 L756.7813,495.0469 Q756.7813,493.7188 757.3906,492.5781 Q758.0156,491.4219 759.1094,490.8125 Q760.2031,490.1875 761.4375,490.1875 Q762.1719,490.1875 762.8125,490.3594 Q763.4688,490.5156 764.0156,490.875 Z "/><text fill="#000000" font-family="sans-serif" font-size="12" lengthAdjust="spacingAndGlyphs" textLength="59" x="781.75" y="499.9102">BoardView</text><line style="stroke: #A80036; stroke-width: 1.5;" x1="695.5" x2="894.5" y1="511" y2="511"/><rect fill="none" height="6" style="stroke: #C82930; stroke-width: 1.0;" width="6" x="702.5" y="519"/><text fill="#000000" font-family="sans-serif" font-size="11" lengthAdjust="spacingAndGlyphs" textLength="138" x="714.5" y="526.4189">playController: PlayController</text><line style="stroke: #A80036; stroke-width: 1.5;" x1="695.5" x2="894.5" y1="532.8359" y2="532.8359"/><polygon fill="#4177AF" points="705.5,539.8359,701.5,545.8359,709.5,545.8359" style="stroke: #1963A0; stroke-width: 1.0;"/><text fill="#000000" font-family="sans-serif" font-size="11" lengthAdjust="spacingAndGlyphs" textLength="129" x="714.5" y="548.2549">BoardView(PlayController)</text><polygon fill="#4177AF" points="705.5,553.6719,701.5,559.6719,709.5,559.6719" style="stroke: #1963A0; stroke-width: 1.0;"/><text fill="#000000" font-family="sans-serif" font-size="11" lengthAdjust="spacingAndGlyphs" textLength="59" x="714.5" y="562.0908">write(): void</text><rect fill="#F24D5C" height="6" style="stroke: #C82930; stroke-width: 1.0;" width="6" x="702.5" y="568.5078"/><text fill="#000000" font-family="sans-serif" font-size="11" lengthAdjust="spacingAndGlyphs" textLength="118" x="714.5" y="575.9268">printRowBoard(int): void</text><rect fill="#F24D5C" height="6" style="stroke: #C82930; stroke-width: 1.0;" width="6" x="702.5" y="582.3438"/><text fill="#000000" font-family="sans-serif" font-size="11" lengthAdjust="spacingAndGlyphs" textLength="175" x="714.5" y="589.7627">printSquareValueBoard(int, int): void</text><!--MD5=[0e5b47c419ba94b2bd3b06fa97d12493]
class tictactoe.views.console.ChoosePlayerView--><rect fill="#FEFECE" filter="url(#fi9ymhmrklb9x)" height="75.6719" id="tictactoe.views.console.ChoosePlayerView" style="stroke: #A80036; stroke-width: 1.5;" width="139" x="520.5" y="499.5"/><ellipse cx="536.85" cy="515.5" fill="#ADD1B2" rx="11" ry="11" style="stroke: #A80036; stroke-width: 1.0;"/><path d="M539.6156,511.375 Q539.7719,511.1563 539.9594,511.0469 Q540.1469,510.9375 540.3656,510.9375 Q540.7406,510.9375 540.975,511.2031 Q541.2094,511.4531 541.2094,512.0625 L541.2094,513.5156 Q541.2094,514.125 540.975,514.3906 Q540.7406,514.6563 540.3656,514.6563 Q540.0219,514.6563 539.8188,514.4531 Q539.6156,514.2656 539.5063,513.75 Q539.4594,513.3906 539.2719,513.2031 Q538.9438,512.8281 538.3344,512.6094 Q537.725,512.3906 537.1,512.3906 Q536.3344,512.3906 535.6938,512.7188 Q535.0688,513.0469 534.5688,513.7969 Q534.0844,514.5469 534.0844,515.5781 L534.0844,516.6719 Q534.0844,517.9063 534.975,518.7344 Q535.8656,519.5469 537.4594,519.5469 Q538.3969,519.5469 539.0531,519.2969 Q539.4438,519.1406 539.8656,518.7031 Q540.1313,518.4375 540.2719,518.3594 Q540.4281,518.2813 540.6313,518.2813 Q540.9594,518.2813 541.2094,518.5469 Q541.475,518.7969 541.475,519.1406 Q541.475,519.4844 541.1313,519.8906 Q540.6313,520.4688 539.8344,520.7969 Q538.7563,521.25 537.4594,521.25 Q535.9438,521.25 534.7406,520.625 Q533.7563,520.125 533.0688,519.0625 Q532.3813,517.9844 532.3813,516.7031 L532.3813,515.5469 Q532.3813,514.2188 532.9906,513.0781 Q533.6156,511.9219 534.7094,511.3125 Q535.8031,510.6875 537.0375,510.6875 Q537.7719,510.6875 538.4125,510.8594 Q539.0688,511.0156 539.6156,511.375 Z "/><text fill="#000000" font-family="sans-serif" font-size="12" lengthAdjust="spacingAndGlyphs" textLength="104" x="551.15" y="520.4102">ChoosePlayerView</text><line style="stroke: #A80036; stroke-width: 1.5;" x1="521.5" x2="658.5" y1="531.5" y2="531.5"/><line style="stroke: #A80036; stroke-width: 1.5;" x1="521.5" x2="658.5" y1="539.5" y2="539.5"/><polygon fill="#4177AF" points="531.5,546.5,527.5,552.5,535.5,552.5" style="stroke: #1963A0; stroke-width: 1.0;"/><text fill="#000000" font-family="sans-serif" font-size="11" lengthAdjust="spacingAndGlyphs" textLength="92" x="540.5" y="554.9189">readPlayers(): void</text><rect fill="#F24D5C" height="6" style="stroke: #C82930; stroke-width: 1.0;" width="6" x="528.5" y="561.3359"/><text fill="#000000" font-family="sans-serif" font-size="11" lengthAdjust="spacingAndGlyphs" textLength="113" x="540.5" y="568.7549">readUsersNumber(): int</text><!--MD5=[bde0c8ed193d8d2dbac1dee471354ab0]
class tictactoe.views.console.ConsoleView--><rect fill="#FEFECE" filter="url(#fi9ymhmrklb9x)" height="117.1797" id="tictactoe.views.console.ConsoleView" style="stroke: #A80036; stroke-width: 1.5;" width="142" x="211" y="166"/><ellipse cx="242.65" cy="182" fill="#ADD1B2" rx="11" ry="11" style="stroke: #A80036; stroke-width: 1.0;"/><path d="M245.4156,177.875 Q245.5719,177.6563 245.7594,177.5469 Q245.9469,177.4375 246.1656,177.4375 Q246.5406,177.4375 246.775,177.7031 Q247.0094,177.9531 247.0094,178.5625 L247.0094,180.0156 Q247.0094,180.625 246.775,180.8906 Q246.5406,181.1563 246.1656,181.1563 Q245.8219,181.1563 245.6188,180.9531 Q245.4156,180.7656 245.3063,180.25 Q245.2594,179.8906 245.0719,179.7031 Q244.7438,179.3281 244.1344,179.1094 Q243.525,178.8906 242.9,178.8906 Q242.1344,178.8906 241.4938,179.2188 Q240.8688,179.5469 240.3688,180.2969 Q239.8844,181.0469 239.8844,182.0781 L239.8844,183.1719 Q239.8844,184.4063 240.775,185.2344 Q241.6656,186.0469 243.2594,186.0469 Q244.1969,186.0469 244.8531,185.7969 Q245.2438,185.6406 245.6656,185.2031 Q245.9313,184.9375 246.0719,184.8594 Q246.2281,184.7813 246.4313,184.7813 Q246.7594,184.7813 247.0094,185.0469 Q247.275,185.2969 247.275,185.6406 Q247.275,185.9844 246.9313,186.3906 Q246.4313,186.9688 245.6344,187.2969 Q244.5563,187.75 243.2594,187.75 Q241.7438,187.75 240.5406,187.125 Q239.5563,186.625 238.8688,185.5625 Q238.1813,184.4844 238.1813,183.2031 L238.1813,182.0469 Q238.1813,180.7188 238.7906,179.5781 Q239.4156,178.4219 240.5094,177.8125 Q241.6031,177.1875 242.8375,177.1875 Q243.5719,177.1875 244.2125,177.3594 Q244.8688,177.5156 245.4156,177.875 Z "/><text fill="#000000" font-family="sans-serif" font-size="12" lengthAdjust="spacingAndGlyphs" textLength="73" x="260.35" y="186.9102">ConsoleView</text><line style="stroke: #A80036; stroke-width: 1.5;" x1="212" x2="352" y1="198" y2="198"/><rect fill="none" height="6" style="stroke: #C82930; stroke-width: 1.0;" width="6" x="219" y="206"/><text fill="#000000" font-family="sans-serif" font-size="11" lengthAdjust="spacingAndGlyphs" textLength="103" x="231" y="213.4189">startView: StartView</text><rect fill="none" height="6" style="stroke: #C82930; stroke-width: 1.0;" width="6" x="219" y="219.8359"/><text fill="#000000" font-family="sans-serif" font-size="11" lengthAdjust="spacingAndGlyphs" textLength="98" x="231" y="227.2549">playView: PlayView</text><rect fill="none" height="6" style="stroke: #C82930; stroke-width: 1.0;" width="6" x="219" y="233.6719"/><text fill="#000000" font-family="sans-serif" font-size="11" lengthAdjust="spacingAndGlyphs" textLength="115" x="231" y="241.0908">resultView: ResultView</text><line style="stroke: #A80036; stroke-width: 1.5;" x1="212" x2="352" y1="247.5078" y2="247.5078"/><ellipse cx="222" cy="258.5078" fill="#84BE84" rx="3" ry="3" style="stroke: #038048; stroke-width: 1.0;"/><text fill="#000000" font-family="sans-serif" font-size="11" lengthAdjust="spacingAndGlyphs" textLength="73" x="231" y="262.9268">ConsoleView()</text><polygon fill="#FFFF44" points="222,267.3438,226,271.3438,222,275.3438,218,271.3438" style="stroke: #B38D22; stroke-width: 1.0;"/><text fill="#000000" font-family="sans-serif" font-size="11" lengthAdjust="spacingAndGlyphs" textLength="116" x="231" y="276.7627">interact(Controller): void</text><!--MD5=[54aa299435631381f3c0c028f26a058f]
class tictactoe.views.console.StartView--><rect fill="#FEFECE" filter="url(#fi9ymhmrklb9x)" height="61.8359" id="tictactoe.views.console.StartView" style="stroke: #A80036; stroke-width: 1.5;" width="165" x="239.5" y="350"/><ellipse cx="292.25" cy="366" fill="#ADD1B2" rx="11" ry="11" style="stroke: #A80036; stroke-width: 1.0;"/><path d="M295.0156,361.875 Q295.1719,361.6563 295.3594,361.5469 Q295.5469,361.4375 295.7656,361.4375 Q296.1406,361.4375 296.375,361.7031 Q296.6094,361.9531 296.6094,362.5625 L296.6094,364.0156 Q296.6094,364.625 296.375,364.8906 Q296.1406,365.1563 295.7656,365.1563 Q295.4219,365.1563 295.2188,364.9531 Q295.0156,364.7656 294.9063,364.25 Q294.8594,363.8906 294.6719,363.7031 Q294.3438,363.3281 293.7344,363.1094 Q293.125,362.8906 292.5,362.8906 Q291.7344,362.8906 291.0938,363.2188 Q290.4688,363.5469 289.9688,364.2969 Q289.4844,365.0469 289.4844,366.0781 L289.4844,367.1719 Q289.4844,368.4063 290.375,369.2344 Q291.2656,370.0469 292.8594,370.0469 Q293.7969,370.0469 294.4531,369.7969 Q294.8438,369.6406 295.2656,369.2031 Q295.5313,368.9375 295.6719,368.8594 Q295.8281,368.7813 296.0313,368.7813 Q296.3594,368.7813 296.6094,369.0469 Q296.875,369.2969 296.875,369.6406 Q296.875,369.9844 296.5313,370.3906 Q296.0313,370.9688 295.2344,371.2969 Q294.1563,371.75 292.8594,371.75 Q291.3438,371.75 290.1406,371.125 Q289.1563,370.625 288.4688,369.5625 Q287.7813,368.4844 287.7813,367.2031 L287.7813,366.0469 Q287.7813,364.7188 288.3906,363.5781 Q289.0156,362.4219 290.1094,361.8125 Q291.2031,361.1875 292.4375,361.1875 Q293.1719,361.1875 293.8125,361.3594 Q294.4688,361.5156 295.0156,361.875 Z "/><text fill="#000000" font-family="sans-serif" font-size="12" lengthAdjust="spacingAndGlyphs" textLength="51" x="312.75" y="370.9102">StartView</text><line style="stroke: #A80036; stroke-width: 1.5;" x1="240.5" x2="403.5" y1="382" y2="382"/><line style="stroke: #A80036; stroke-width: 1.5;" x1="240.5" x2="403.5" y1="390" y2="390"/><polygon fill="#4177AF" points="250.5,397,246.5,403,254.5,403" style="stroke: #1963A0; stroke-width: 1.0;"/><text fill="#000000" font-family="sans-serif" font-size="11" lengthAdjust="spacingAndGlyphs" textLength="139" x="259.5" y="405.4189">interact(StartController): void</text><!--MD5=[0158df0baddf48f83142f472e341eacc]
class tictactoe.views.console.PlayView--><rect fill="#FEFECE" filter="url(#fi9ymhmrklb9x)" height="61.8359" id="tictactoe.views.console.PlayView" style="stroke: #A80036; stroke-width: 1.5;" width="162" x="440" y="350"/><ellipse cx="492.25" cy="366" fill="#ADD1B2" rx="11" ry="11" style="stroke: #A80036; stroke-width: 1.0;"/><path d="M495.0156,361.875 Q495.1719,361.6563 495.3594,361.5469 Q495.5469,361.4375 495.7656,361.4375 Q496.1406,361.4375 496.375,361.7031 Q496.6094,361.9531 496.6094,362.5625 L496.6094,364.0156 Q496.6094,364.625 496.375,364.8906 Q496.1406,365.1563 495.7656,365.1563 Q495.4219,365.1563 495.2188,364.9531 Q495.0156,364.7656 494.9063,364.25 Q494.8594,363.8906 494.6719,363.7031 Q494.3438,363.3281 493.7344,363.1094 Q493.125,362.8906 492.5,362.8906 Q491.7344,362.8906 491.0938,363.2188 Q490.4688,363.5469 489.9688,364.2969 Q489.4844,365.0469 489.4844,366.0781 L489.4844,367.1719 Q489.4844,368.4063 490.375,369.2344 Q491.2656,370.0469 492.8594,370.0469 Q493.7969,370.0469 494.4531,369.7969 Q494.8438,369.6406 495.2656,369.2031 Q495.5313,368.9375 495.6719,368.8594 Q495.8281,368.7813 496.0313,368.7813 Q496.3594,368.7813 496.6094,369.0469 Q496.875,369.2969 496.875,369.6406 Q496.875,369.9844 496.5313,370.3906 Q496.0313,370.9688 495.2344,371.2969 Q494.1563,371.75 492.8594,371.75 Q491.3438,371.75 490.1406,371.125 Q489.1563,370.625 488.4688,369.5625 Q487.7813,368.4844 487.7813,367.2031 L487.7813,366.0469 Q487.7813,364.7188 488.3906,363.5781 Q489.0156,362.4219 490.1094,361.8125 Q491.2031,361.1875 492.4375,361.1875 Q493.1719,361.1875 493.8125,361.3594 Q494.4688,361.5156 495.0156,361.875 Z "/><text fill="#000000" font-family="sans-serif" font-size="12" lengthAdjust="spacingAndGlyphs" textLength="49" x="512.75" y="370.9102">PlayView</text><line style="stroke: #A80036; stroke-width: 1.5;" x1="441" x2="601" y1="382" y2="382"/><line style="stroke: #A80036; stroke-width: 1.5;" x1="441" x2="601" y1="390" y2="390"/><polygon fill="#4177AF" points="451,397,447,403,455,403" style="stroke: #1963A0; stroke-width: 1.0;"/><text fill="#000000" font-family="sans-serif" font-size="11" lengthAdjust="spacingAndGlyphs" textLength="136" x="460" y="405.4189">interact(PlayController): void</text><!--MD5=[4ad8229f56e3458317cb6855b3145039]
class tictactoe.views.console.ResultView--><rect fill="#FEFECE" filter="url(#fi9ymhmrklb9x)" height="61.8359" id="tictactoe.views.console.ResultView" style="stroke: #A80036; stroke-width: 1.5;" width="172" x="32" y="350"/><ellipse cx="82.75" cy="366" fill="#ADD1B2" rx="11" ry="11" style="stroke: #A80036; stroke-width: 1.0;"/><path d="M85.5156,361.875 Q85.6719,361.6563 85.8594,361.5469 Q86.0469,361.4375 86.2656,361.4375 Q86.6406,361.4375 86.875,361.7031 Q87.1094,361.9531 87.1094,362.5625 L87.1094,364.0156 Q87.1094,364.625 86.875,364.8906 Q86.6406,365.1563 86.2656,365.1563 Q85.9219,365.1563 85.7188,364.9531 Q85.5156,364.7656 85.4063,364.25 Q85.3594,363.8906 85.1719,363.7031 Q84.8438,363.3281 84.2344,363.1094 Q83.625,362.8906 83,362.8906 Q82.2344,362.8906 81.5938,363.2188 Q80.9688,363.5469 80.4688,364.2969 Q79.9844,365.0469 79.9844,366.0781 L79.9844,367.1719 Q79.9844,368.4063 80.875,369.2344 Q81.7656,370.0469 83.3594,370.0469 Q84.2969,370.0469 84.9531,369.7969 Q85.3438,369.6406 85.7656,369.2031 Q86.0313,368.9375 86.1719,368.8594 Q86.3281,368.7813 86.5313,368.7813 Q86.8594,368.7813 87.1094,369.0469 Q87.375,369.2969 87.375,369.6406 Q87.375,369.9844 87.0313,370.3906 Q86.5313,370.9688 85.7344,371.2969 Q84.6563,371.75 83.3594,371.75 Q81.8438,371.75 80.6406,371.125 Q79.6563,370.625 78.9688,369.5625 Q78.2813,368.4844 78.2813,367.2031 L78.2813,366.0469 Q78.2813,364.7188 78.8906,363.5781 Q79.5156,362.4219 80.6094,361.8125 Q81.7031,361.1875 82.9375,361.1875 Q83.6719,361.1875 84.3125,361.3594 Q84.9688,361.5156 85.5156,361.875 Z "/><text fill="#000000" font-family="sans-serif" font-size="12" lengthAdjust="spacingAndGlyphs" textLength="62" x="103.25" y="370.9102">ResultView</text><line style="stroke: #A80036; stroke-width: 1.5;" x1="33" x2="203" y1="382" y2="382"/><line style="stroke: #A80036; stroke-width: 1.5;" x1="33" x2="203" y1="390" y2="390"/><polygon fill="#4177AF" points="43,397,39,403,47,403" style="stroke: #1963A0; stroke-width: 1.0;"/><text fill="#000000" font-family="sans-serif" font-size="11" lengthAdjust="spacingAndGlyphs" textLength="146" x="52" y="405.4189">interact(ResultController): void</text><!--MD5=[8830b246a550294711e6eb5af1606829]
class tictactoe.views.console.CoordinateView--><rect fill="#FEFECE" filter="url(#fi9ymhmrklb9x)" height="61.8359" id="tictactoe.views.console.CoordinateView" style="stroke: #A80036; stroke-width: 1.5;" width="142" x="780" y="350"/><ellipse cx="805.35" cy="366" fill="#ADD1B2" rx="11" ry="11" style="stroke: #A80036; stroke-width: 1.0;"/><path d="M808.1156,361.875 Q808.2719,361.6563 808.4594,361.5469 Q808.6469,361.4375 808.8656,361.4375 Q809.2406,361.4375 809.475,361.7031 Q809.7094,361.9531 809.7094,362.5625 L809.7094,364.0156 Q809.7094,364.625 809.475,364.8906 Q809.2406,365.1563 808.8656,365.1563 Q808.5219,365.1563 808.3188,364.9531 Q808.1156,364.7656 808.0063,364.25 Q807.9594,363.8906 807.7719,363.7031 Q807.4438,363.3281 806.8344,363.1094 Q806.225,362.8906 805.6,362.8906 Q804.8344,362.8906 804.1938,363.2188 Q803.5688,363.5469 803.0688,364.2969 Q802.5844,365.0469 802.5844,366.0781 L802.5844,367.1719 Q802.5844,368.4063 803.475,369.2344 Q804.3656,370.0469 805.9594,370.0469 Q806.8969,370.0469 807.5531,369.7969 Q807.9438,369.6406 808.3656,369.2031 Q808.6313,368.9375 808.7719,368.8594 Q808.9281,368.7813 809.1313,368.7813 Q809.4594,368.7813 809.7094,369.0469 Q809.975,369.2969 809.975,369.6406 Q809.975,369.9844 809.6313,370.3906 Q809.1313,370.9688 808.3344,371.2969 Q807.2563,371.75 805.9594,371.75 Q804.4438,371.75 803.2406,371.125 Q802.2563,370.625 801.5688,369.5625 Q800.8813,368.4844 800.8813,367.2031 L800.8813,366.0469 Q800.8813,364.7188 801.4906,363.5781 Q802.1156,362.4219 803.2094,361.8125 Q804.3031,361.1875 805.5375,361.1875 Q806.2719,361.1875 806.9125,361.3594 Q807.5688,361.5156 808.1156,361.875 Z "/><text fill="#000000" font-family="sans-serif" font-size="12" lengthAdjust="spacingAndGlyphs" textLength="87" x="821.65" y="370.9102">CoordinateView</text><line style="stroke: #A80036; stroke-width: 1.5;" x1="781" x2="921" y1="382" y2="382"/><line style="stroke: #A80036; stroke-width: 1.5;" x1="781" x2="921" y1="390" y2="390"/><polygon fill="#4177AF" points="791,397,787,403,795,403" style="stroke: #1963A0; stroke-width: 1.0;"/><text fill="#000000" font-family="sans-serif" font-size="11" lengthAdjust="spacingAndGlyphs" textLength="116" x="800" y="405.4189">read(String): Coordinate</text><!--MD5=[1ca4e66fd27a79cb5d7093d90b3139a4]
class tictactoe.views.console.ErrorView--><rect fill="#FEFECE" filter="url(#fi9ymhmrklb9x)" height="75.6719" id="tictactoe.views.console.ErrorView" style="stroke: #A80036; stroke-width: 1.5;" width="108" x="637" y="343"/><ellipse cx="662.35" cy="359" fill="#ADD1B2" rx="11" ry="11" style="stroke: #A80036; stroke-width: 1.0;"/><path d="M665.1156,354.875 Q665.2719,354.6563 665.4594,354.5469 Q665.6469,354.4375 665.8656,354.4375 Q666.2406,354.4375 666.475,354.7031 Q666.7094,354.9531 666.7094,355.5625 L666.7094,357.0156 Q666.7094,357.625 666.475,357.8906 Q666.2406,358.1563 665.8656,358.1563 Q665.5219,358.1563 665.3188,357.9531 Q665.1156,357.7656 665.0063,357.25 Q664.9594,356.8906 664.7719,356.7031 Q664.4438,356.3281 663.8344,356.1094 Q663.225,355.8906 662.6,355.8906 Q661.8344,355.8906 661.1938,356.2188 Q660.5688,356.5469 660.0688,357.2969 Q659.5844,358.0469 659.5844,359.0781 L659.5844,360.1719 Q659.5844,361.4063 660.475,362.2344 Q661.3656,363.0469 662.9594,363.0469 Q663.8969,363.0469 664.5531,362.7969 Q664.9438,362.6406 665.3656,362.2031 Q665.6313,361.9375 665.7719,361.8594 Q665.9281,361.7813 666.1313,361.7813 Q666.4594,361.7813 666.7094,362.0469 Q666.975,362.2969 666.975,362.6406 Q666.975,362.9844 666.6313,363.3906 Q666.1313,363.9688 665.3344,364.2969 Q664.2563,364.75 662.9594,364.75 Q661.4438,364.75 660.2406,364.125 Q659.2563,363.625 658.5688,362.5625 Q657.8813,361.4844 657.8813,360.2031 L657.8813,359.0469 Q657.8813,357.7188 658.4906,356.5781 Q659.1156,355.4219 660.2094,354.8125 Q661.3031,354.1875 662.5375,354.1875 Q663.2719,354.1875 663.9125,354.3594 Q664.5688,354.5156 665.1156,354.875 Z "/><text fill="#000000" font-family="sans-serif" font-size="12" lengthAdjust="spacingAndGlyphs" textLength="53" x="678.65" y="363.9102">ErrorView</text><line style="stroke: #A80036; stroke-width: 1.5;" x1="638" x2="744" y1="375" y2="375"/><line style="stroke: #A80036; stroke-width: 1.5;" x1="638" x2="744" y1="383" y2="383"/><polygon fill="#4177AF" points="648,390,644,396,652,396" style="stroke: #1963A0; stroke-width: 1.0;"/><text fill="#000000" font-family="sans-serif" font-size="11" lengthAdjust="spacingAndGlyphs" textLength="82" x="657" y="398.4189">ErrorView(Error)</text><polygon fill="#4177AF" points="648,403.8359,644,409.8359,652,409.8359" style="stroke: #1963A0; stroke-width: 1.0;"/><text fill="#000000" font-family="sans-serif" font-size="11" lengthAdjust="spacingAndGlyphs" textLength="67" x="657" y="412.2549">writeln(): void</text><!--MD5=[4afe6aabb27d783e4a9a9dcc50c35fae]
class tictactoe.views.console.MachinePlayerView--><rect fill="#FEFECE" filter="url(#fi9ymhmrklb9x)" height="89.5078" id="tictactoe.views.console.MachinePlayerView" style="stroke: #A80036; stroke-width: 1.5;" width="216" x="388" y="179.5"/><ellipse cx="438.75" cy="195.5" fill="#ADD1B2" rx="11" ry="11" style="stroke: #A80036; stroke-width: 1.0;"/><path d="M441.5156,191.375 Q441.6719,191.1563 441.8594,191.0469 Q442.0469,190.9375 442.2656,190.9375 Q442.6406,190.9375 442.875,191.2031 Q443.1094,191.4531 443.1094,192.0625 L443.1094,193.5156 Q443.1094,194.125 442.875,194.3906 Q442.6406,194.6563 442.2656,194.6563 Q441.9219,194.6563 441.7188,194.4531 Q441.5156,194.2656 441.4063,193.75 Q441.3594,193.3906 441.1719,193.2031 Q440.8438,192.8281 440.2344,192.6094 Q439.625,192.3906 439,192.3906 Q438.2344,192.3906 437.5938,192.7188 Q436.9688,193.0469 436.4688,193.7969 Q435.9844,194.5469 435.9844,195.5781 L435.9844,196.6719 Q435.9844,197.9063 436.875,198.7344 Q437.7656,199.5469 439.3594,199.5469 Q440.2969,199.5469 440.9531,199.2969 Q441.3438,199.1406 441.7656,198.7031 Q442.0313,198.4375 442.1719,198.3594 Q442.3281,198.2813 442.5313,198.2813 Q442.8594,198.2813 443.1094,198.5469 Q443.375,198.7969 443.375,199.1406 Q443.375,199.4844 443.0313,199.8906 Q442.5313,200.4688 441.7344,200.7969 Q440.6563,201.25 439.3594,201.25 Q437.8438,201.25 436.6406,200.625 Q435.6563,200.125 434.9688,199.0625 Q434.2813,197.9844 434.2813,196.7031 L434.2813,195.5469 Q434.2813,194.2188 434.8906,193.0781 Q435.5156,191.9219 436.6094,191.3125 Q437.7031,190.6875 438.9375,190.6875 Q439.6719,190.6875 440.3125,190.8594 Q440.9688,191.0156 441.5156,191.375 Z "/><text fill="#000000" font-family="sans-serif" font-size="12" lengthAdjust="spacingAndGlyphs" textLength="106" x="459.25" y="200.4102">MachinePlayerView</text><line style="stroke: #A80036; stroke-width: 1.5;" x1="389" x2="603" y1="211.5" y2="211.5"/><line style="stroke: #A80036; stroke-width: 1.5;" x1="389" x2="603" y1="219.5" y2="219.5"/><polygon fill="#4177AF" points="399,226.5,395,232.5,403,232.5" style="stroke: #1963A0; stroke-width: 1.0;"/><text fill="#000000" font-family="sans-serif" font-size="11" lengthAdjust="spacingAndGlyphs" textLength="134" x="408" y="234.9189">MachinePlayerView(Player)</text><polygon fill="#4177AF" points="399,240.3359,395,246.3359,403,246.3359" style="stroke: #1963A0; stroke-width: 1.0;"/><text fill="#000000" font-family="sans-serif" font-size="11" lengthAdjust="spacingAndGlyphs" textLength="167" x="408" y="248.7549">readCoordinateToPut(): Coordinate</text><polygon fill="#4177AF" points="399,254.1719,395,260.1719,403,260.1719" style="stroke: #1963A0; stroke-width: 1.0;"/><text fill="#000000" font-family="sans-serif" font-size="11" lengthAdjust="spacingAndGlyphs" textLength="190" x="408" y="262.5908">readCoordinatesToMove(): Coordinate[]</text><!--MD5=[d4f4ae14a368e3fcfff527b6459d05f0]
class tictactoe.views.console.UserPlayerView--><rect fill="#FEFECE" filter="url(#fi9ymhmrklb9x)" height="117.1797" id="tictactoe.views.console.UserPlayerView" style="stroke: #A80036; stroke-width: 1.5;" width="233" x="639.5" y="166"/><ellipse cx="708.25" cy="182" fill="#ADD1B2" rx="11" ry="11" style="stroke: #A80036; stroke-width: 1.0;"/><path d="M711.0156,177.875 Q711.1719,177.6563 711.3594,177.5469 Q711.5469,177.4375 711.7656,177.4375 Q712.1406,177.4375 712.375,177.7031 Q712.6094,177.9531 712.6094,178.5625 L712.6094,180.0156 Q712.6094,180.625 712.375,180.8906 Q712.1406,181.1563 711.7656,181.1563 Q711.4219,181.1563 711.2188,180.9531 Q711.0156,180.7656 710.9063,180.25 Q710.8594,179.8906 710.6719,179.7031 Q710.3438,179.3281 709.7344,179.1094 Q709.125,178.8906 708.5,178.8906 Q707.7344,178.8906 707.0938,179.2188 Q706.4688,179.5469 705.9688,180.2969 Q705.4844,181.0469 705.4844,182.0781 L705.4844,183.1719 Q705.4844,184.4063 706.375,185.2344 Q707.2656,186.0469 708.8594,186.0469 Q709.7969,186.0469 710.4531,185.7969 Q710.8438,185.6406 711.2656,185.2031 Q711.5313,184.9375 711.6719,184.8594 Q711.8281,184.7813 712.0313,184.7813 Q712.3594,184.7813 712.6094,185.0469 Q712.875,185.2969 712.875,185.6406 Q712.875,185.9844 712.5313,186.3906 Q712.0313,186.9688 711.2344,187.2969 Q710.1563,187.75 708.8594,187.75 Q707.3438,187.75 706.1406,187.125 Q705.1563,186.625 704.4688,185.5625 Q703.7813,184.4844 703.7813,183.2031 L703.7813,182.0469 Q703.7813,180.7188 704.3906,179.5781 Q705.0156,178.4219 706.1094,177.8125 Q707.2031,177.1875 708.4375,177.1875 Q709.1719,177.1875 709.8125,177.3594 Q710.4688,177.5156 711.0156,177.875 Z "/><text fill="#000000" font-family="sans-serif" font-size="12" lengthAdjust="spacingAndGlyphs" textLength="87" x="728.75" y="186.9102">UserPlayerView</text><line style="stroke: #A80036; stroke-width: 1.5;" x1="640.5" x2="871.5" y1="198" y2="198"/><polygon fill="none" points="650.5,205,646.5,211,654.5,211" style="stroke: #1963A0; stroke-width: 1.0;"/><text fill="#000000" font-family="sans-serif" font-size="11" lengthAdjust="spacingAndGlyphs" text-decoration="underline" textLength="183" x="659.5" y="213.4189">ENTER_COORDINATE_TO_PUT: String</text><polygon fill="none" points="650.5,218.8359,646.5,224.8359,654.5,224.8359" style="stroke: #1963A0; stroke-width: 1.0;"/><text fill="#000000" font-family="sans-serif" font-size="11" lengthAdjust="spacingAndGlyphs" text-decoration="underline" textLength="207" x="659.5" y="227.2549">ENTER_COORDINATE_TO_REMOVE: String</text><line style="stroke: #A80036; stroke-width: 1.5;" x1="640.5" x2="871.5" y1="233.6719" y2="233.6719"/><polygon fill="#4177AF" points="650.5,240.6719,646.5,246.6719,654.5,246.6719" style="stroke: #1963A0; stroke-width: 1.0;"/><text fill="#000000" font-family="sans-serif" font-size="11" lengthAdjust="spacingAndGlyphs" textLength="117" x="659.5" y="249.0908">UserPlayerView(Player)</text><polygon fill="#4177AF" points="650.5,254.5078,646.5,260.5078,654.5,260.5078" style="stroke: #1963A0; stroke-width: 1.0;"/><text fill="#000000" font-family="sans-serif" font-size="11" lengthAdjust="spacingAndGlyphs" textLength="167" x="659.5" y="262.9268">readCoordinateToPut(): Coordinate</text><polygon fill="#4177AF" points="650.5,268.3438,646.5,274.3438,654.5,274.3438" style="stroke: #1963A0; stroke-width: 1.0;"/><text fill="#000000" font-family="sans-serif" font-size="11" lengthAdjust="spacingAndGlyphs" textLength="190" x="659.5" y="276.7627">readCoordinatesToMove(): Coordinate[]</text><!--MD5=[2dcb8e10b6e8b78f41f52f48677e1ea3]
class utils.WithConsoleView--><rect fill="#FEFECE" filter="url(#fi9ymhmrklb9x)" height="48" id="utils.WithConsoleView" style="stroke: #A80036; stroke-width: 1.5;" width="129" x="979.5" y="200.5"/><ellipse cx="994.5" cy="216.5" fill="#ADD1B2" rx="11" ry="11" style="stroke: #A80036; stroke-width: 1.0;"/><path d="M997.2656,212.375 Q997.4219,212.1563 997.6094,212.0469 Q997.7969,211.9375 998.0156,211.9375 Q998.3906,211.9375 998.625,212.2031 Q998.8594,212.4531 998.8594,213.0625 L998.8594,214.5156 Q998.8594,215.125 998.625,215.3906 Q998.3906,215.6563 998.0156,215.6563 Q997.6719,215.6563 997.4688,215.4531 Q997.2656,215.2656 997.1563,214.75 Q997.1094,214.3906 996.9219,214.2031 Q996.5938,213.8281 995.9844,213.6094 Q995.375,213.3906 994.75,213.3906 Q993.9844,213.3906 993.3438,213.7188 Q992.7188,214.0469 992.2188,214.7969 Q991.7344,215.5469 991.7344,216.5781 L991.7344,217.6719 Q991.7344,218.9063 992.625,219.7344 Q993.5156,220.5469 995.1094,220.5469 Q996.0469,220.5469 996.7031,220.2969 Q997.0938,220.1406 997.5156,219.7031 Q997.7813,219.4375 997.9219,219.3594 Q998.0781,219.2813 998.2813,219.2813 Q998.6094,219.2813 998.8594,219.5469 Q999.125,219.7969 999.125,220.1406 Q999.125,220.4844 998.7813,220.8906 Q998.2813,221.4688 997.4844,221.7969 Q996.4063,222.25 995.1094,222.25 Q993.5938,222.25 992.3906,221.625 Q991.4063,221.125 990.7188,220.0625 Q990.0313,218.9844 990.0313,217.7031 L990.0313,216.5469 Q990.0313,215.2188 990.6406,214.0781 Q991.2656,212.9219 992.3594,212.3125 Q993.4531,211.6875 994.6875,211.6875 Q995.4219,211.6875 996.0625,211.8594 Q996.7188,212.0156 997.2656,212.375 Z "/><text fill="#000000" font-family="sans-serif" font-size="12" lengthAdjust="spacingAndGlyphs" textLength="97" x="1008.5" y="221.4102">WithConsoleView</text><line style="stroke: #A80036; stroke-width: 1.5;" x1="980.5" x2="1107.5" y1="232.5" y2="232.5"/><line style="stroke: #A80036; stroke-width: 1.5;" x1="980.5" x2="1107.5" y1="240.5" y2="240.5"/><!--MD5=[b574e60c06c50037ff1b014277a67d62]
class tictactoe.controllers.PlayController--><rect fill="#FEFECE" filter="url(#fi9ymhmrklb9x)" height="48" id="tictactoe.controllers.PlayController" style="stroke: #A80036; stroke-width: 1.5;" width="109" x="412.5" y="672"/><ellipse cx="427.5" cy="688" fill="#ADD1B2" rx="11" ry="11" style="stroke: #A80036; stroke-width: 1.0;"/><path d="M430.2656,683.875 Q430.4219,683.6563 430.6094,683.5469 Q430.7969,683.4375 431.0156,683.4375 Q431.3906,683.4375 431.625,683.7031 Q431.8594,683.9531 431.8594,684.5625 L431.8594,686.0156 Q431.8594,686.625 431.625,686.8906 Q431.3906,687.1563 431.0156,687.1563 Q430.6719,687.1563 430.4688,686.9531 Q430.2656,686.7656 430.1563,686.25 Q430.1094,685.8906 429.9219,685.7031 Q429.5938,685.3281 428.9844,685.1094 Q428.375,684.8906 427.75,684.8906 Q426.9844,684.8906 426.3438,685.2188 Q425.7188,685.5469 425.2188,686.2969 Q424.7344,687.0469 424.7344,688.0781 L424.7344,689.1719 Q424.7344,690.4063 425.625,691.2344 Q426.5156,692.0469 428.1094,692.0469 Q429.0469,692.0469 429.7031,691.7969 Q430.0938,691.6406 430.5156,691.2031 Q430.7813,690.9375 430.9219,690.8594 Q431.0781,690.7813 431.2813,690.7813 Q431.6094,690.7813 431.8594,691.0469 Q432.125,691.2969 432.125,691.6406 Q432.125,691.9844 431.7813,692.3906 Q431.2813,692.9688 430.4844,693.2969 Q429.4063,693.75 428.1094,693.75 Q426.5938,693.75 425.3906,693.125 Q424.4063,692.625 423.7188,691.5625 Q423.0313,690.4844 423.0313,689.2031 L423.0313,688.0469 Q423.0313,686.7188 423.6406,685.5781 Q424.2656,684.4219 425.3594,683.8125 Q426.4531,683.1875 427.6875,683.1875 Q428.4219,683.1875 429.0625,683.3594 Q429.7188,683.5156 430.2656,683.875 Z "/><text fill="#000000" font-family="sans-serif" font-size="12" lengthAdjust="spacingAndGlyphs" textLength="77" x="441.5" y="692.9102">PlayController</text><line style="stroke: #A80036; stroke-width: 1.5;" x1="413.5" x2="520.5" y1="704" y2="704"/><line style="stroke: #A80036; stroke-width: 1.5;" x1="413.5" x2="520.5" y1="712" y2="712"/><!--MD5=[2c3ef77d19c2424f55dfd6db4f13e20e]
class tictactoe.controllers.ResultController--><rect fill="#FEFECE" filter="url(#fi9ymhmrklb9x)" height="48" id="tictactoe.controllers.ResultController" style="stroke: #A80036; stroke-width: 1.5;" width="122" x="109" y="672"/><ellipse cx="124" cy="688" fill="#ADD1B2" rx="11" ry="11" style="stroke: #A80036; stroke-width: 1.0;"/><path d="M126.7656,683.875 Q126.9219,683.6563 127.1094,683.5469 Q127.2969,683.4375 127.5156,683.4375 Q127.8906,683.4375 128.125,683.7031 Q128.3594,683.9531 128.3594,684.5625 L128.3594,686.0156 Q128.3594,686.625 128.125,686.8906 Q127.8906,687.1563 127.5156,687.1563 Q127.1719,687.1563 126.9688,686.9531 Q126.7656,686.7656 126.6563,686.25 Q126.6094,685.8906 126.4219,685.7031 Q126.0938,685.3281 125.4844,685.1094 Q124.875,684.8906 124.25,684.8906 Q123.4844,684.8906 122.8438,685.2188 Q122.2188,685.5469 121.7188,686.2969 Q121.2344,687.0469 121.2344,688.0781 L121.2344,689.1719 Q121.2344,690.4063 122.125,691.2344 Q123.0156,692.0469 124.6094,692.0469 Q125.5469,692.0469 126.2031,691.7969 Q126.5938,691.6406 127.0156,691.2031 Q127.2813,690.9375 127.4219,690.8594 Q127.5781,690.7813 127.7813,690.7813 Q128.1094,690.7813 128.3594,691.0469 Q128.625,691.2969 128.625,691.6406 Q128.625,691.9844 128.2813,692.3906 Q127.7813,692.9688 126.9844,693.2969 Q125.9063,693.75 124.6094,693.75 Q123.0938,693.75 121.8906,693.125 Q120.9063,692.625 120.2188,691.5625 Q119.5313,690.4844 119.5313,689.2031 L119.5313,688.0469 Q119.5313,686.7188 120.1406,685.5781 Q120.7656,684.4219 121.8594,683.8125 Q122.9531,683.1875 124.1875,683.1875 Q124.9219,683.1875 125.5625,683.3594 Q126.2188,683.5156 126.7656,683.875 Z "/><text fill="#000000" font-family="sans-serif" font-size="12" lengthAdjust="spacingAndGlyphs" textLength="90" x="138" y="692.9102">ResultController</text><line style="stroke: #A80036; stroke-width: 1.5;" x1="110" x2="230" y1="704" y2="704"/><line style="stroke: #A80036; stroke-width: 1.5;" x1="110" x2="230" y1="712" y2="712"/><!--MD5=[8ede4dbfb3b498095887802b64b699f0]
class tictactoe.controllers.StartController--><rect fill="#FEFECE" filter="url(#fi9ymhmrklb9x)" height="48" id="tictactoe.controllers.StartController" style="stroke: #A80036; stroke-width: 1.5;" width="111" x="266.5" y="672"/><ellipse cx="281.5" cy="688" fill="#ADD1B2" rx="11" ry="11" style="stroke: #A80036; stroke-width: 1.0;"/><path d="M284.2656,683.875 Q284.4219,683.6563 284.6094,683.5469 Q284.7969,683.4375 285.0156,683.4375 Q285.3906,683.4375 285.625,683.7031 Q285.8594,683.9531 285.8594,684.5625 L285.8594,686.0156 Q285.8594,686.625 285.625,686.8906 Q285.3906,687.1563 285.0156,687.1563 Q284.6719,687.1563 284.4688,686.9531 Q284.2656,686.7656 284.1563,686.25 Q284.1094,685.8906 283.9219,685.7031 Q283.5938,685.3281 282.9844,685.1094 Q282.375,684.8906 281.75,684.8906 Q280.9844,684.8906 280.3438,685.2188 Q279.7188,685.5469 279.2188,686.2969 Q278.7344,687.0469 278.7344,688.0781 L278.7344,689.1719 Q278.7344,690.4063 279.625,691.2344 Q280.5156,692.0469 282.1094,692.0469 Q283.0469,692.0469 283.7031,691.7969 Q284.0938,691.6406 284.5156,691.2031 Q284.7813,690.9375 284.9219,690.8594 Q285.0781,690.7813 285.2813,690.7813 Q285.6094,690.7813 285.8594,691.0469 Q286.125,691.2969 286.125,691.6406 Q286.125,691.9844 285.7813,692.3906 Q285.2813,692.9688 284.4844,693.2969 Q283.4063,693.75 282.1094,693.75 Q280.5938,693.75 279.3906,693.125 Q278.4063,692.625 277.7188,691.5625 Q277.0313,690.4844 277.0313,689.2031 L277.0313,688.0469 Q277.0313,686.7188 277.6406,685.5781 Q278.2656,684.4219 279.3594,683.8125 Q280.4531,683.1875 281.6875,683.1875 Q282.4219,683.1875 283.0625,683.3594 Q283.7188,683.5156 284.2656,683.875 Z "/><text fill="#000000" font-family="sans-serif" font-size="12" lengthAdjust="spacingAndGlyphs" textLength="79" x="295.5" y="692.9102">StartController</text><line style="stroke: #A80036; stroke-width: 1.5;" x1="267.5" x2="376.5" y1="704" y2="704"/><line style="stroke: #A80036; stroke-width: 1.5;" x1="267.5" x2="376.5" y1="712" y2="712"/><!--MD5=[015754420c4cdd9bacda884b3fa8c6ca]
class tictactoe.views.View--><rect fill="#FEFECE" filter="url(#fi9ymhmrklb9x)" height="48" id="tictactoe.views.View" style="stroke: #A80036; stroke-width: 1.5;" width="58" x="357" y="42"/><ellipse cx="372" cy="58" fill="#ADD1B2" rx="11" ry="11" style="stroke: #A80036; stroke-width: 1.0;"/><path d="M374.7656,53.875 Q374.9219,53.6563 375.1094,53.5469 Q375.2969,53.4375 375.5156,53.4375 Q375.8906,53.4375 376.125,53.7031 Q376.3594,53.9531 376.3594,54.5625 L376.3594,56.0156 Q376.3594,56.625 376.125,56.8906 Q375.8906,57.1563 375.5156,57.1563 Q375.1719,57.1563 374.9688,56.9531 Q374.7656,56.7656 374.6563,56.25 Q374.6094,55.8906 374.4219,55.7031 Q374.0938,55.3281 373.4844,55.1094 Q372.875,54.8906 372.25,54.8906 Q371.4844,54.8906 370.8438,55.2188 Q370.2188,55.5469 369.7188,56.2969 Q369.2344,57.0469 369.2344,58.0781 L369.2344,59.1719 Q369.2344,60.4063 370.125,61.2344 Q371.0156,62.0469 372.6094,62.0469 Q373.5469,62.0469 374.2031,61.7969 Q374.5938,61.6406 375.0156,61.2031 Q375.2813,60.9375 375.4219,60.8594 Q375.5781,60.7813 375.7813,60.7813 Q376.1094,60.7813 376.3594,61.0469 Q376.625,61.2969 376.625,61.6406 Q376.625,61.9844 376.2813,62.3906 Q375.7813,62.9688 374.9844,63.2969 Q373.9063,63.75 372.6094,63.75 Q371.0938,63.75 369.8906,63.125 Q368.9063,62.625 368.2188,61.5625 Q367.5313,60.4844 367.5313,59.2031 L367.5313,58.0469 Q367.5313,56.7188 368.1406,55.5781 Q368.7656,54.4219 369.8594,53.8125 Q370.9531,53.1875 372.1875,53.1875 Q372.9219,53.1875 373.5625,53.3594 Q374.2188,53.5156 374.7656,53.875 Z "/><text fill="#000000" font-family="sans-serif" font-size="12" lengthAdjust="spacingAndGlyphs" textLength="26" x="386" y="62.9102">View</text><line style="stroke: #A80036; stroke-width: 1.5;" x1="358" x2="414" y1="74" y2="74"/><line style="stroke: #A80036; stroke-width: 1.5;" x1="358" x2="414" y1="82" y2="82"/><!--MD5=[17799e03bfee0ccb3aa03b93da9c26d6]
class tictactoe.views.ErrorView--><rect fill="#FEFECE" filter="url(#fi9ymhmrklb9x)" height="48" id="tictactoe.views.ErrorView" style="stroke: #A80036; stroke-width: 1.5;" width="85" x="577.5" y="42"/><ellipse cx="592.5" cy="58" fill="#ADD1B2" rx="11" ry="11" style="stroke: #A80036; stroke-width: 1.0;"/><path d="M595.2656,53.875 Q595.4219,53.6563 595.6094,53.5469 Q595.7969,53.4375 596.0156,53.4375 Q596.3906,53.4375 596.625,53.7031 Q596.8594,53.9531 596.8594,54.5625 L596.8594,56.0156 Q596.8594,56.625 596.625,56.8906 Q596.3906,57.1563 596.0156,57.1563 Q595.6719,57.1563 595.4688,56.9531 Q595.2656,56.7656 595.1563,56.25 Q595.1094,55.8906 594.9219,55.7031 Q594.5938,55.3281 593.9844,55.1094 Q593.375,54.8906 592.75,54.8906 Q591.9844,54.8906 591.3438,55.2188 Q590.7188,55.5469 590.2188,56.2969 Q589.7344,57.0469 589.7344,58.0781 L589.7344,59.1719 Q589.7344,60.4063 590.625,61.2344 Q591.5156,62.0469 593.1094,62.0469 Q594.0469,62.0469 594.7031,61.7969 Q595.0938,61.6406 595.5156,61.2031 Q595.7813,60.9375 595.9219,60.8594 Q596.0781,60.7813 596.2813,60.7813 Q596.6094,60.7813 596.8594,61.0469 Q597.125,61.2969 597.125,61.6406 Q597.125,61.9844 596.7813,62.3906 Q596.2813,62.9688 595.4844,63.2969 Q594.4063,63.75 593.1094,63.75 Q591.5938,63.75 590.3906,63.125 Q589.4063,62.625 588.7188,61.5625 Q588.0313,60.4844 588.0313,59.2031 L588.0313,58.0469 Q588.0313,56.7188 588.6406,55.5781 Q589.2656,54.4219 590.3594,53.8125 Q591.4531,53.1875 592.6875,53.1875 Q593.4219,53.1875 594.0625,53.3594 Q594.7188,53.5156 595.2656,53.875 Z "/><text fill="#000000" font-family="sans-serif" font-size="12" lengthAdjust="spacingAndGlyphs" textLength="53" x="606.5" y="62.9102">ErrorView</text><line style="stroke: #A80036; stroke-width: 1.5;" x1="578.5" x2="661.5" y1="74" y2="74"/><line style="stroke: #A80036; stroke-width: 1.5;" x1="578.5" x2="661.5" y1="82" y2="82"/><!--MD5=[2ae15d20e7f22fd333327d3852982126]
class tictactoe.views.PlayerView--><rect fill="#FEFECE" filter="url(#fi9ymhmrklb9x)" height="48" id="tictactoe.views.PlayerView" style="stroke: #A80036; stroke-width: 1.5;" width="92" x="450" y="42"/><ellipse cx="465" cy="58" fill="#ADD1B2" rx="11" ry="11" style="stroke: #A80036; stroke-width: 1.0;"/><path d="M467.7656,53.875 Q467.9219,53.6563 468.1094,53.5469 Q468.2969,53.4375 468.5156,53.4375 Q468.8906,53.4375 469.125,53.7031 Q469.3594,53.9531 469.3594,54.5625 L469.3594,56.0156 Q469.3594,56.625 469.125,56.8906 Q468.8906,57.1563 468.5156,57.1563 Q468.1719,57.1563 467.9688,56.9531 Q467.7656,56.7656 467.6563,56.25 Q467.6094,55.8906 467.4219,55.7031 Q467.0938,55.3281 466.4844,55.1094 Q465.875,54.8906 465.25,54.8906 Q464.4844,54.8906 463.8438,55.2188 Q463.2188,55.5469 462.7188,56.2969 Q462.2344,57.0469 462.2344,58.0781 L462.2344,59.1719 Q462.2344,60.4063 463.125,61.2344 Q464.0156,62.0469 465.6094,62.0469 Q466.5469,62.0469 467.2031,61.7969 Q467.5938,61.6406 468.0156,61.2031 Q468.2813,60.9375 468.4219,60.8594 Q468.5781,60.7813 468.7813,60.7813 Q469.1094,60.7813 469.3594,61.0469 Q469.625,61.2969 469.625,61.6406 Q469.625,61.9844 469.2813,62.3906 Q468.7813,62.9688 467.9844,63.2969 Q466.9063,63.75 465.6094,63.75 Q464.0938,63.75 462.8906,63.125 Q461.9063,62.625 461.2188,61.5625 Q460.5313,60.4844 460.5313,59.2031 L460.5313,58.0469 Q460.5313,56.7188 461.1406,55.5781 Q461.7656,54.4219 462.8594,53.8125 Q463.9531,53.1875 465.1875,53.1875 Q465.9219,53.1875 466.5625,53.3594 Q467.2188,53.5156 467.7656,53.875 Z "/><text fill="#000000" font-family="sans-serif" font-size="12" lengthAdjust="spacingAndGlyphs" textLength="60" x="479" y="62.9102">PlayerView</text><line style="stroke: #A80036; stroke-width: 1.5;" x1="451" x2="541" y1="74" y2="74"/><line style="stroke: #A80036; stroke-width: 1.5;" x1="451" x2="541" y1="82" y2="82"/><!--MD5=[4fe29ebdeb3371b5754843c99b0088e8]
reverse link utils.WithConsoleView to tictactoe.views.console.BoardView--><path d="M1044.14,268.922 C1042.19,311.086 1033.46,375.001 1001,419 C974.665,454.701 934.005,481.165 895.743,499.843 " fill="none" id="utils.WithConsoleView&lt;-tictactoe.views.console.BoardView" style="stroke: #A80036; stroke-width: 1.0;"/><polygon fill="none" points="1037.15,268.629,1044.64,248.807,1051.14,268.973,1037.15,268.629" style="stroke: #A80036; stroke-width: 1.0;"/><!--MD5=[14af8e5c407c7d67ca0af798dc6967c5]
link tictactoe.views.console.BoardView to tictactoe.controllers.PlayController--><path d="M717.754,596.052 C704.515,604.682 690.626,613.015 677,620 C628.403,644.914 569.6,665.1439 526.594,678.287 " fill="none" id="tictactoe.views.console.BoardView-&gt;tictactoe.controllers.PlayController" style="stroke: #A80036; stroke-width: 1.0; stroke-dasharray: 7.0,7.0;"/><polygon fill="#A80036" points="521.694,679.7749,531.468,680.9872,526.4783,678.322,529.1434,673.3324,521.694,679.7749" style="stroke: #A80036; stroke-width: 1.0;"/><!--MD5=[1b1ec1db639c24163e1745874c80bdf8]
reverse link utils.WithConsoleView to tictactoe.views.console.ChoosePlayerView--><path d="M1026.21,267.336 C1003.87,317.999 965.278,399.049 939,419 C843.856,491.235 786.815,431.978 677,479 C664.351,484.416 651.545,491.684 639.789,499.227 " fill="none" id="utils.WithConsoleView&lt;-tictactoe.views.console.ChoosePlayerView" style="stroke: #A80036; stroke-width: 1.0;"/><polygon fill="none" points="1019.93,264.23,1034.32,248.673,1032.77,269.806,1019.93,264.23" style="stroke: #A80036; stroke-width: 1.0;"/><!--MD5=[d1f1f21fa3eb12d639631512d925e9a6]
reverse link tictactoe.views.View to tictactoe.views.console.ConsoleView--><path d="M359.481,106.907 C347.595,124.793 333.349,146.229 320.333,165.816 " fill="none" id="tictactoe.views.View&lt;-tictactoe.views.console.ConsoleView" style="stroke: #A80036; stroke-width: 1.0;"/><polygon fill="none" points="353.755,102.875,370.654,90.092,365.415,110.624,353.755,102.875" style="stroke: #A80036; stroke-width: 1.0;"/><!--MD5=[9113815f8bbc012213d6467f94b3dc5b]
link tictactoe.views.console.ConsoleView to tictactoe.views.console.StartView--><path d="M299.9027,294.6469 C299.9027,294.6469 307.551,324.191 310.871,337.016 " fill="none" id="tictactoe.views.console.ConsoleView-tictactoe.views.console.StartView" style="stroke: #A80036; stroke-width: 1.0;"/><polygon fill="#A80036" points="314.163,349.729,315.7792,340.0137,312.9096,344.8886,308.0347,342.019,314.163,349.729" style="stroke: #A80036; stroke-width: 1.0;"/><line style="stroke: #A80036; stroke-width: 1.0;" x1="312.9096" x2="310.9045" y1="344.8886" y2="337.1445"/><polygon fill="#A80036" points="296.895,283.03,294.5266,289.8411,299.9027,294.6469,302.2712,287.8359,296.895,283.03" style="stroke: #A80036; stroke-width: 1.0;"/><!--MD5=[1735144fa38f1aa47117a26d071db586]
link tictactoe.views.console.ConsoleView to tictactoe.views.console.PlayView--><path d="M363.1136,278.5334 C363.1136,278.5334 368.018,281.716 370,283 C400.568,302.804 434.703,324.747 462.775,342.746 " fill="none" id="tictactoe.views.console.ConsoleView-tictactoe.views.console.PlayView" style="stroke: #A80036; stroke-width: 1.0;"/><polygon fill="#A80036" points="474.008,349.945,468.5891,341.7209,469.7984,347.247,464.2723,348.4563,474.008,349.945" style="stroke: #A80036; stroke-width: 1.0;"/><line style="stroke: #A80036; stroke-width: 1.0;" x1="469.7984" x2="463.063" y1="347.247" y2="342.9305"/><polygon fill="#A80036" points="353.052,271.994,355.903,278.6176,363.1136,278.5334,360.2626,271.9098,353.052,271.994" style="stroke: #A80036; stroke-width: 1.0;"/><!--MD5=[44d2792f564883fbc9918566bab83309]
link tictactoe.views.console.ConsoleView to tictactoe.views.console.ResultView--><path d="M212.1979,291.259 C212.1979,291.259 175.593,325.743 159.986,340.447 " fill="none" id="tictactoe.views.console.ConsoleView-tictactoe.views.console.ResultView" style="stroke: #A80036; stroke-width: 1.0;"/><polygon fill="#A80036" points="150.132,349.729,159.4258,346.4693,153.7715,346.3005,153.9402,340.6462,150.132,349.729" style="stroke: #A80036; stroke-width: 1.0;"/><line style="stroke: #A80036; stroke-width: 1.0;" x1="153.7715" x2="159.595" y1="346.3005" y2="340.815"/><polygon fill="#A80036" points="220.932,283.03,213.822,284.2331,212.1979,291.259,219.308,290.0558,220.932,283.03" style="stroke: #A80036; stroke-width: 1.0;"/><!--MD5=[d983ff7a7ecf259bcdad60485d19cf95]
reverse link utils.WithConsoleView to tictactoe.views.console.CoordinateView--><path d="M999.257,261.318 C965.747,288.143 920.411,324.435 888.728,349.798 " fill="none" id="utils.WithConsoleView&lt;-tictactoe.views.console.CoordinateView" style="stroke: #A80036; stroke-width: 1.0;"/><polygon fill="none" points="995.118,255.664,1015.11,248.63,1003.87,266.594,995.118,255.664" style="stroke: #A80036; stroke-width: 1.0;"/><!--MD5=[521be967e4e828bbb4868581b766b1da]
reverse link tictactoe.views.ErrorView to tictactoe.views.console.ErrorView--><path d="M683.014,70.853 C754.459,76.69 864.371,90.623 890,122 C935.267,177.418 928.386,222.612 890,283 C856.295,336.023 818.315,315.143 762,343 C756.518,345.712 750.823,348.584 745.151,351.482 " fill="none" id="tictactoe.views.ErrorView&lt;-tictactoe.views.console.ErrorView" style="stroke: #A80036; stroke-width: 1.0;"/><polygon fill="none" points="682.074,77.802,662.655,69.321,683.124,63.841,682.074,77.802" style="stroke: #A80036; stroke-width: 1.0;"/><!--MD5=[f807ad8458e0e3d6ca100de41032e69a]
reverse link tictactoe.views.PlayerView to tictactoe.views.console.MachinePlayerView--><path d="M496,110.143 C496,131.638 496,157.592 496,179.238 " fill="none" id="tictactoe.views.PlayerView&lt;-tictactoe.views.console.MachinePlayerView" style="stroke: #A80036; stroke-width: 1.0;"/><polygon fill="none" points="489,110.092,496,90.092,503,110.092,489,110.092" style="stroke: #A80036; stroke-width: 1.0;"/><!--MD5=[9623adb787708e117decab727ca41eb7]
link tictactoe.views.console.PlayView to tictactoe.views.console.BoardView--><path d="M574.48,412.156 C607.18,430.594 650.146,454.821 689.458,476.988 " fill="none" id="tictactoe.views.console.PlayView-&gt;tictactoe.views.console.BoardView" style="stroke: #A80036; stroke-width: 1.0; stroke-dasharray: 7.0,7.0;"/><polygon fill="#A80036" points="694.233,479.681,688.3587,471.7758,689.8779,477.2248,684.4288,478.744,694.233,479.681" style="stroke: #A80036; stroke-width: 1.0;"/><!--MD5=[c652744ae97b12ae96764b7849bbed7e]
link tictactoe.views.console.PlayView to tictactoe.views.PlayerView--><path d="M442.897,349.975 C435.862,347.524 428.821,345.162 422,343 C321.705,311.209 257.281,366.293 193,283 C149.282,226.352 143.256,173.437 193,122 C202.236,112.45 419.447,118.348 432,114 C444.88,109.539 457.357,101.513 467.822,93.341 " fill="none" id="tictactoe.views.console.PlayView-&gt;tictactoe.views.PlayerView" style="stroke: #A80036; stroke-width: 1.0; stroke-dasharray: 7.0,7.0;"/><polygon fill="#A80036" points="471.88,90.087,462.3568,92.5985,467.9798,93.2157,467.3627,98.8388,471.88,90.087" style="stroke: #A80036; stroke-width: 1.0;"/><!--MD5=[58e59420f385c3dc7e125fbf21a51657]
link tictactoe.views.console.PlayView to tictactoe.controllers.PlayController--><path d="M515.263,412.122 C511.655,431.26 506.951,456.565 503,479 C491.144,546.323 478.183,625.634 471.518,666.8803 " fill="none" id="tictactoe.views.console.PlayView-&gt;tictactoe.controllers.PlayController" style="stroke: #A80036; stroke-width: 1.0; stroke-dasharray: 7.0,7.0;"/><polygon fill="#A80036" points="470.698,671.9598,476.0815,663.7125,471.4951,667.0237,468.1839,662.4372,470.698,671.9598" style="stroke: #A80036; stroke-width: 1.0;"/><!--MD5=[9744e604919ab000255dde255237b11a]
link tictactoe.views.console.ResultView to tictactoe.controllers.ResultController--><path d="M122.986,412.012 C133.004,472.314 155.455,607.452 165.263,666.4888 " fill="none" id="tictactoe.views.console.ResultView-&gt;tictactoe.controllers.ResultController" style="stroke: #A80036; stroke-width: 1.0; stroke-dasharray: 7.0,7.0;"/><polygon fill="#A80036" points="166.116,671.6221,168.5871,662.0883,165.2966,666.6897,160.6952,663.3992,166.116,671.6221" style="stroke: #A80036; stroke-width: 1.0;"/><!--MD5=[dfa315847ca75b86a537546c793c8626]
link tictactoe.views.console.StartView to tictactoe.views.console.ChoosePlayerView--><path d="M374.309,412.156 C416.219,436.317 475.369,470.416 521.129,496.796 " fill="none" id="tictactoe.views.console.StartView-&gt;tictactoe.views.console.ChoosePlayerView" style="stroke: #A80036; stroke-width: 1.0; stroke-dasharray: 7.0,7.0;"/><polygon fill="#A80036" points="525.514,499.324,519.7168,491.3621,521.1829,496.8256,515.7194,498.2918,525.514,499.324" style="stroke: #A80036; stroke-width: 1.0;"/><!--MD5=[d3767328306413c38638214ca1b9afec]
link tictactoe.views.console.StartView to tictactoe.controllers.StartController--><path d="M322,412.012 C322,472.314 322,607.452 322,666.4888 " fill="none" id="tictactoe.views.console.StartView-&gt;tictactoe.controllers.StartController" style="stroke: #A80036; stroke-width: 1.0; stroke-dasharray: 7.0,7.0;"/><polygon fill="#A80036" points="322,671.6221,326,662.6221,322,666.6221,318,662.6221,322,671.6221" style="stroke: #A80036; stroke-width: 1.0;"/><!--MD5=[e665259f0705ebc0d9068c66ae844f61]
reverse link tictactoe.views.PlayerView to tictactoe.views.console.UserPlayerView--><path d="M537.743,102.135 C544.83,106.753 552.375,110.937 560,114 C585.373,124.191 595.685,111.667 621,122 C646.655,132.472 671.765,149.044 693.237,165.785 " fill="none" id="tictactoe.views.PlayerView&lt;-tictactoe.views.console.UserPlayerView" style="stroke: #A80036; stroke-width: 1.0;"/><polygon fill="none" points="533.333,107.582,521.28,90.154,541.57,96.263,533.333,107.582" style="stroke: #A80036; stroke-width: 1.0;"/><!--MD5=[d08a44d06940417b04e1f442f789385d]
link tictactoe.views.console.UserPlayerView to tictactoe.views.console.ErrorView--><path d="M731.796,283.03 C724.142,301.224 715.83,320.981 708.718,337.886 " fill="none" id="tictactoe.views.console.UserPlayerView-&gt;tictactoe.views.console.ErrorView" style="stroke: #A80036; stroke-width: 1.0; stroke-dasharray: 7.0,7.0;"/><polygon fill="#A80036" points="706.745,342.575,713.9217,335.83,708.6837,337.9662,706.5476,332.7281,706.745,342.575" style="stroke: #A80036; stroke-width: 1.0;"/><!--MD5=[93525d2da9d792717dcb2150911bbe9e]
link tictactoe.views.console.UserPlayerView to tictactoe.views.console.CoordinateView--><path d="M791.374,283.03 C804.213,303.91 818.319,326.85 829.586,345.174 " fill="none" id="tictactoe.views.console.UserPlayerView-&gt;tictactoe.views.console.CoordinateView" style="stroke: #A80036; stroke-width: 1.0; stroke-dasharray: 7.0,7.0;"/><polygon fill="#A80036" points="832.387,349.729,831.0793,339.9673,829.7676,345.47,824.2649,344.1583,832.387,349.729" style="stroke: #A80036; stroke-width: 1.0;"/><!--MD5=[6453060c5a3f590ea5383fef4adecaa4]
@startuml

class  tictactoe.views.console.BoardView{
- playController: PlayController
~ BoardView(PlayController)
~ write(): void
- printRowBoard(int): void
- printSquareValueBoard(int, int): void
}
utils.WithConsoleView <|-down- tictactoe.views.console.BoardView
tictactoe.views.console.BoardView ..> tictactoe.controllers.PlayController

class  tictactoe.views.console.ChoosePlayerView{
~ readPlayers(): void
- readUsersNumber(): int
}
utils.WithConsoleView <|-down- tictactoe.views.console.ChoosePlayerView

class  tictactoe.views.console.ConsoleView{
- startView: StartView
- playView: PlayView
- resultView: ResultView
+ ConsoleView()
# interact(Controller): void
}
tictactoe.views.View <|-down- tictactoe.views.console.ConsoleView
tictactoe.views.console.ConsoleView *-down-> tictactoe.views.console.StartView
tictactoe.views.console.ConsoleView *-down-> tictactoe.views.console.PlayView
tictactoe.views.console.ConsoleView *-down-> tictactoe.views.console.ResultView

class  tictactoe.views.console.CoordinateView{
~ read(String): Coordinate
}
utils.WithConsoleView <|-down- tictactoe.views.console.CoordinateView

class  tictactoe.views.console.ErrorView{
~ ErrorView(Error)
~ writeln(): void
}
tictactoe.views.ErrorView <|-down- tictactoe.views.console.ErrorView

class  tictactoe.views.console.MachinePlayerView{
~ MachinePlayerView(Player)
~ readCoordinateToPut(): Coordinate
~ readCoordinatesToMove(): Coordinate[]
}
tictactoe.views.PlayerView <|-down- tictactoe.views.console.MachinePlayerView

class  tictactoe.views.console.PlayView{
~ interact(PlayController): void
}
tictactoe.views.console.PlayView ..> tictactoe.views.console.BoardView
tictactoe.views.console.PlayView ..> tictactoe.views.PlayerView
tictactoe.views.console.PlayView ..> tictactoe.controllers.PlayController

class tictactoe.views.console.ResultView{
~ interact(ResultController): void
}
tictactoe.views.console.ResultView ..> tictactoe.controllers.ResultController

class tictactoe.views.console.StartView{
~ interact(StartController): void
}
tictactoe.views.console.StartView ..> tictactoe.views.console.ChoosePlayerView
tictactoe.views.console.StartView ..> tictactoe.controllers.StartController

class  tictactoe.views.console.UserPlayerView{
~ {static} ENTER_COORDINATE_TO_PUT: String
~ {static} ENTER_COORDINATE_TO_REMOVE: String
~ UserPlayerView(Player)
~ readCoordinateToPut(): Coordinate
~ readCoordinatesToMove(): Coordinate[]
}
tictactoe.views.PlayerView <|-down- tictactoe.views.console.UserPlayerView
tictactoe.views.console.UserPlayerView ..> tictactoe.views.console.ErrorView
tictactoe.views.console.UserPlayerView ..> tictactoe.views.console.CoordinateView

@enduml

PlantUML version 1.2020.15(Sun Jun 28 13:39:45 CEST 2020)
(GPL source distribution)
Java Runtime: Java(TM) SE Runtime Environment
JVM: Java HotSpot(TM) 64-Bit Server VM
Default Encoding: windows-1252
Language: es
Country: ES
--></g></svg>