<?xml version="1.0" encoding="UTF-8" standalone="no"?><svg xmlns="http://www.w3.org/2000/svg" xmlns:xlink="http://www.w3.org/1999/xlink" contentScriptType="application/ecmascript" contentStyleType="text/css" height="997px" preserveAspectRatio="none" style="width:2255px;height:997px;" version="1.1" viewBox="0 0 2255 997" width="2255px" zoomAndPan="magnify"><defs><filter height="300%" id="f6eligqloucdz" width="300%" x="-1" y="-1"><feGaussianBlur result="blurOut" stdDeviation="2.0"/><feColorMatrix in="blurOut" result="blurOut2" type="matrix" values="0 0 0 0 0 0 0 0 0 0 0 0 0 0 0 0 0 0 .4 0"/><feOffset dx="4.0" dy="4.0" in="blurOut2" result="blurOut3"/><feBlend in="SourceGraphic" in2="blurOut3" mode="normal"/></filter></defs><g><!--MD5=[bcf2d0b3d12304fef0d13c0c68faae06]
cluster tictactoe.distributed--><polygon fill="#FFFFFF" filter="url(#f6eligqloucdz)" points="311.477,130,459.477,130,466.477,153.6094,1361.476,153.6094,1361.476,861,311.477,861,311.477,130" style="stroke: #000000; stroke-width: 1.5;"/><line style="stroke: #000000; stroke-width: 1.5;" x1="311.477" x2="466.477" y1="153.6094" y2="153.6094"/><text fill="#000000" font-family="sans-serif" font-size="14" font-weight="bold" lengthAdjust="spacingAndGlyphs" textLength="142" x="315.477" y="146.5332">tictactoe.distributed</text><!--MD5=[e6fee0bfb21fcf33ee1c5981f69ba248]
cluster tictactoe.controllers.implementation--><polygon fill="#FFFFFF" filter="url(#f6eligqloucdz)" points="1385.476,164.5,1645.476,164.5,1652.476,188.1094,1655.476,188.1094,1655.476,264.5,1385.476,264.5,1385.476,164.5" style="stroke: #000000; stroke-width: 1.5;"/><line style="stroke: #000000; stroke-width: 1.5;" x1="1385.476" x2="1652.476" y1="188.1094" y2="188.1094"/><text fill="#000000" font-family="sans-serif" font-size="14" font-weight="bold" lengthAdjust="spacingAndGlyphs" textLength="254" x="1389.476" y="181.0332">tictactoe.controllers.implementation</text><!--MD5=[224c42d171c8f8732ace39597cf483b4]
cluster tictactoe.distributed.dispatchers--><polygon fill="#FFFFFF" filter="url(#f6eligqloucdz)" points="166.477,885,401.477,885,408.477,908.6094,471.477,908.6094,471.477,985,166.477,985,166.477,885" style="stroke: #000000; stroke-width: 1.5;"/><line style="stroke: #000000; stroke-width: 1.5;" x1="166.477" x2="408.477" y1="908.6094" y2="908.6094"/><text fill="#000000" font-family="sans-serif" font-size="14" font-weight="bold" lengthAdjust="spacingAndGlyphs" textLength="229" x="170.477" y="901.5332">tictactoe.distributed.dispatchers</text><!--MD5=[ee7e9a007a7c4d40c0679a27f272732d]
cluster tictactoe.controllers--><polygon fill="#FFFFFF" filter="url(#f6eligqloucdz)" points="1679.476,164.5,1827.476,164.5,1834.476,188.1094,2233.476,188.1094,2233.476,264.5,1679.476,264.5,1679.476,164.5" style="stroke: #000000; stroke-width: 1.5;"/><line style="stroke: #000000; stroke-width: 1.5;" x1="1679.476" x2="1834.476" y1="188.1094" y2="188.1094"/><text fill="#000000" font-family="sans-serif" font-size="14" font-weight="bold" lengthAdjust="spacingAndGlyphs" textLength="142" x="1683.476" y="181.0332">tictactoe.controllers</text><!--MD5=[c52f45833d539af9e29a9d34b8b7302b]
cluster utils--><polygon fill="#FFFFFF" filter="url(#f6eligqloucdz)" points="575.477,885,611.477,885,618.477,908.6094,675.477,908.6094,675.477,985,575.477,985,575.477,885" style="stroke: #000000; stroke-width: 1.5;"/><line style="stroke: #000000; stroke-width: 1.5;" x1="575.477" x2="618.477" y1="908.6094" y2="908.6094"/><text fill="#000000" font-family="sans-serif" font-size="14" font-weight="bold" lengthAdjust="spacingAndGlyphs" textLength="30" x="579.477" y="901.5332">utils</text><!--MD5=[51cd642fcc96b47682a93d9084d46dec]
cluster tictactoe.models--><polygon fill="#FFFFFF" filter="url(#f6eligqloucdz)" points="1385.476,328,1507.476,328,1514.476,351.6094,1517.476,351.6094,1517.476,428,1385.476,428,1385.476,328" style="stroke: #000000; stroke-width: 1.5;"/><line style="stroke: #000000; stroke-width: 1.5;" x1="1385.476" x2="1514.476" y1="351.6094" y2="351.6094"/><text fill="#000000" font-family="sans-serif" font-size="14" font-weight="bold" lengthAdjust="spacingAndGlyphs" textLength="116" x="1389.476" y="344.5332">tictactoe.models</text><!--MD5=[807bc46d8103c809ff053af9e140e1f5]
cluster tictactoe--><polygon fill="#FFFFFF" filter="url(#f6eligqloucdz)" points="733.477,6,800.477,6,807.477,29.6094,855.477,29.6094,855.477,106,733.477,106,733.477,6" style="stroke: #000000; stroke-width: 1.5;"/><line style="stroke: #000000; stroke-width: 1.5;" x1="733.477" x2="807.477" y1="29.6094" y2="29.6094"/><text fill="#000000" font-family="sans-serif" font-size="14" font-weight="bold" lengthAdjust="spacingAndGlyphs" textLength="61" x="737.477" y="22.5332">tictactoe</text><!--MD5=[ee64cad9e60c97c58e2507b5e8951613]
class tictactoe.distributed.LogicImplementationServer--><rect fill="#FEFECE" filter="url(#f6eligqloucdz)" height="75.6719" id="tictactoe.distributed.LogicImplementationServer" style="stroke: #A80036; stroke-width: 1.5;" width="247" x="327.977" y="350"/><ellipse cx="371.777" cy="366" fill="#ADD1B2" rx="11" ry="11" style="stroke: #A80036; stroke-width: 1.0;"/><path d="M374.5426,361.875 Q374.6989,361.6563 374.8864,361.5469 Q375.0739,361.4375 375.2926,361.4375 Q375.6676,361.4375 375.902,361.7031 Q376.1364,361.9531 376.1364,362.5625 L376.1364,364.0156 Q376.1364,364.625 375.902,364.8906 Q375.6676,365.1563 375.2926,365.1563 Q374.9489,365.1563 374.7458,364.9531 Q374.5426,364.7656 374.4333,364.25 Q374.3864,363.8906 374.1989,363.7031 Q373.8708,363.3281 373.2614,363.1094 Q372.652,362.8906 372.027,362.8906 Q371.2614,362.8906 370.6208,363.2188 Q369.9958,363.5469 369.4958,364.2969 Q369.0114,365.0469 369.0114,366.0781 L369.0114,367.1719 Q369.0114,368.4063 369.902,369.2344 Q370.7926,370.0469 372.3864,370.0469 Q373.3239,370.0469 373.9801,369.7969 Q374.3708,369.6406 374.7926,369.2031 Q375.0583,368.9375 375.1989,368.8594 Q375.3551,368.7813 375.5583,368.7813 Q375.8864,368.7813 376.1364,369.0469 Q376.402,369.2969 376.402,369.6406 Q376.402,369.9844 376.0583,370.3906 Q375.5583,370.9688 374.7614,371.2969 Q373.6833,371.75 372.3864,371.75 Q370.8708,371.75 369.6676,371.125 Q368.6833,370.625 367.9958,369.5625 Q367.3083,368.4844 367.3083,367.2031 L367.3083,366.0469 Q367.3083,364.7188 367.9176,363.5781 Q368.5426,362.4219 369.6364,361.8125 Q370.7301,361.1875 371.9645,361.1875 Q372.6989,361.1875 373.3395,361.3594 Q373.9958,361.5156 374.5426,361.875 Z "/><text fill="#000000" font-family="sans-serif" font-size="12" lengthAdjust="spacingAndGlyphs" textLength="151" x="392.177" y="370.9102">LogicImplementationServer</text><line style="stroke: #A80036; stroke-width: 1.5;" x1="328.977" x2="573.977" y1="382" y2="382"/><line style="stroke: #A80036; stroke-width: 1.5;" x1="328.977" x2="573.977" y1="390" y2="390"/><ellipse cx="338.977" cy="401" fill="#84BE84" rx="3" ry="3" style="stroke: #038048; stroke-width: 1.0;"/><text fill="#000000" font-family="sans-serif" font-size="11" lengthAdjust="spacingAndGlyphs" textLength="137" x="347.977" y="405.4189">LogicImplementationServer()</text><ellipse cx="338.977" cy="414.8359" fill="#84BE84" rx="3" ry="3" style="stroke: #038048; stroke-width: 1.0;"/><text fill="#000000" font-family="sans-serif" font-size="11" lengthAdjust="spacingAndGlyphs" textLength="221" x="347.977" y="419.2549">createDispatchers(DispatcherPrototype): void</text><!--MD5=[46db589fb040b8777b13689068a144db]
class tictactoe.distributed.LogicProxy--><rect fill="#FEFECE" filter="url(#f6eligqloucdz)" height="89.5078" id="tictactoe.distributed.LogicProxy" style="stroke: #A80036; stroke-width: 1.5;" width="91" x="748.977" y="343"/><ellipse cx="763.977" cy="359" fill="#ADD1B2" rx="11" ry="11" style="stroke: #A80036; stroke-width: 1.0;"/><path d="M766.7426,354.875 Q766.8989,354.6563 767.0864,354.5469 Q767.2739,354.4375 767.4926,354.4375 Q767.8676,354.4375 768.102,354.7031 Q768.3364,354.9531 768.3364,355.5625 L768.3364,357.0156 Q768.3364,357.625 768.102,357.8906 Q767.8676,358.1563 767.4926,358.1563 Q767.1489,358.1563 766.9458,357.9531 Q766.7426,357.7656 766.6333,357.25 Q766.5864,356.8906 766.3989,356.7031 Q766.0708,356.3281 765.4614,356.1094 Q764.852,355.8906 764.227,355.8906 Q763.4614,355.8906 762.8208,356.2188 Q762.1958,356.5469 761.6958,357.2969 Q761.2114,358.0469 761.2114,359.0781 L761.2114,360.1719 Q761.2114,361.4063 762.102,362.2344 Q762.9926,363.0469 764.5864,363.0469 Q765.5239,363.0469 766.1801,362.7969 Q766.5708,362.6406 766.9926,362.2031 Q767.2583,361.9375 767.3989,361.8594 Q767.5551,361.7813 767.7583,361.7813 Q768.0864,361.7813 768.3364,362.0469 Q768.602,362.2969 768.602,362.6406 Q768.602,362.9844 768.2583,363.3906 Q767.7583,363.9688 766.9614,364.2969 Q765.8833,364.75 764.5864,364.75 Q763.0708,364.75 761.8676,364.125 Q760.8833,363.625 760.1958,362.5625 Q759.5083,361.4844 759.5083,360.2031 L759.5083,359.0469 Q759.5083,357.7188 760.1176,356.5781 Q760.7426,355.4219 761.8364,354.8125 Q762.9301,354.1875 764.1645,354.1875 Q764.8989,354.1875 765.5395,354.3594 Q766.1958,354.5156 766.7426,354.875 Z "/><text fill="#000000" font-family="sans-serif" font-size="12" lengthAdjust="spacingAndGlyphs" textLength="59" x="777.977" y="363.9102">LogicProxy</text><line style="stroke: #A80036; stroke-width: 1.5;" x1="749.977" x2="838.977" y1="375" y2="375"/><rect fill="none" height="6" style="stroke: #C82930; stroke-width: 1.0;" width="6" x="756.977" y="383"/><text fill="#000000" font-family="sans-serif" font-size="11" lengthAdjust="spacingAndGlyphs" textLength="56" x="768.977" y="390.4189">tcpip: TCPIP</text><line style="stroke: #A80036; stroke-width: 1.5;" x1="749.977" x2="838.977" y1="396.8359" y2="396.8359"/><ellipse cx="759.977" cy="407.8359" fill="#84BE84" rx="3" ry="3" style="stroke: #038048; stroke-width: 1.0;"/><text fill="#000000" font-family="sans-serif" font-size="11" lengthAdjust="spacingAndGlyphs" textLength="62" x="768.977" y="412.2549">LogicProxy()</text><ellipse cx="759.977" cy="421.6719" fill="#84BE84" rx="3" ry="3" style="stroke: #038048; stroke-width: 1.0;"/><text fill="#000000" font-family="sans-serif" font-size="11" lengthAdjust="spacingAndGlyphs" textLength="60" x="768.977" y="426.0908">close(): void</text><!--MD5=[8ae3796e67c022c150040b77b6f1c8fc]
class tictactoe.distributed.SessionProxy--><rect fill="#FEFECE" filter="url(#f6eligqloucdz)" height="103.3438" id="tictactoe.distributed.SessionProxy" style="stroke: #A80036; stroke-width: 1.5;" width="161" x="327.977" y="617.5"/><ellipse cx="367.277" cy="633.5" fill="#ADD1B2" rx="11" ry="11" style="stroke: #A80036; stroke-width: 1.0;"/><path d="M370.0426,629.375 Q370.1989,629.1563 370.3864,629.0469 Q370.5739,628.9375 370.7926,628.9375 Q371.1676,628.9375 371.402,629.2031 Q371.6364,629.4531 371.6364,630.0625 L371.6364,631.5156 Q371.6364,632.125 371.402,632.3906 Q371.1676,632.6563 370.7926,632.6563 Q370.4489,632.6563 370.2458,632.4531 Q370.0426,632.2656 369.9333,631.75 Q369.8864,631.3906 369.6989,631.2031 Q369.3708,630.8281 368.7614,630.6094 Q368.152,630.3906 367.527,630.3906 Q366.7614,630.3906 366.1208,630.7188 Q365.4958,631.0469 364.9958,631.7969 Q364.5114,632.5469 364.5114,633.5781 L364.5114,634.6719 Q364.5114,635.9063 365.402,636.7344 Q366.2926,637.5469 367.8864,637.5469 Q368.8239,637.5469 369.4801,637.2969 Q369.8708,637.1406 370.2926,636.7031 Q370.5583,636.4375 370.6989,636.3594 Q370.8551,636.2813 371.0583,636.2813 Q371.3864,636.2813 371.6364,636.5469 Q371.902,636.7969 371.902,637.1406 Q371.902,637.4844 371.5583,637.8906 Q371.0583,638.4688 370.2614,638.7969 Q369.1833,639.25 367.8864,639.25 Q366.3708,639.25 365.1676,638.625 Q364.1833,638.125 363.4958,637.0625 Q362.8083,635.9844 362.8083,634.7031 L362.8083,633.5469 Q362.8083,632.2188 363.4176,631.0781 Q364.0426,629.9219 365.1364,629.3125 Q366.2301,628.6875 367.4645,628.6875 Q368.1989,628.6875 368.8395,628.8594 Q369.4958,629.0156 370.0426,629.375 Z "/><text fill="#000000" font-family="sans-serif" font-size="12" lengthAdjust="spacingAndGlyphs" textLength="75" x="386.677" y="638.4102">SessionProxy</text><line style="stroke: #A80036; stroke-width: 1.5;" x1="328.977" x2="487.977" y1="649.5" y2="649.5"/><rect fill="none" height="6" style="stroke: #C82930; stroke-width: 1.0;" width="6" x="335.977" y="657.5"/><text fill="#000000" font-family="sans-serif" font-size="11" lengthAdjust="spacingAndGlyphs" textLength="56" x="347.977" y="664.9189">tcpip: TCPIP</text><line style="stroke: #A80036; stroke-width: 1.5;" x1="328.977" x2="487.977" y1="671.3359" y2="671.3359"/><ellipse cx="338.977" cy="682.3359" fill="#84BE84" rx="3" ry="3" style="stroke: #038048; stroke-width: 1.0;"/><text fill="#000000" font-family="sans-serif" font-size="11" lengthAdjust="spacingAndGlyphs" textLength="102" x="347.977" y="686.7549">SessionProxy(TCPIP)</text><ellipse cx="338.977" cy="696.1719" fill="#84BE84" rx="3" ry="3" style="stroke: #038048; stroke-width: 1.0;"/><text fill="#000000" font-family="sans-serif" font-size="11" lengthAdjust="spacingAndGlyphs" textLength="135" x="347.977" y="700.5908">getValueState(): StateValue</text><ellipse cx="338.977" cy="710.0078" fill="#84BE84" rx="3" ry="3" style="stroke: #038048; stroke-width: 1.0;"/><text fill="#000000" font-family="sans-serif" font-size="11" lengthAdjust="spacingAndGlyphs" textLength="67" x="347.977" y="714.4268">getWidth(): int</text><!--MD5=[d29205834c3a61e3282a3f89120c7384]
class tictactoe.distributed.ResumeControllerProxy--><rect fill="#FEFECE" filter="url(#f6eligqloucdz)" height="103.3438" id="tictactoe.distributed.ResumeControllerProxy" style="stroke: #A80036; stroke-width: 1.5;" width="219" x="1125.976" y="617.5"/><ellipse cx="1166.176" cy="633.5" fill="#ADD1B2" rx="11" ry="11" style="stroke: #A80036; stroke-width: 1.0;"/><path d="M1168.9416,629.375 Q1169.0979,629.1563 1169.2854,629.0469 Q1169.4729,628.9375 1169.6916,628.9375 Q1170.0666,628.9375 1170.301,629.2031 Q1170.5354,629.4531 1170.5354,630.0625 L1170.5354,631.5156 Q1170.5354,632.125 1170.301,632.3906 Q1170.0666,632.6563 1169.6916,632.6563 Q1169.3479,632.6563 1169.1448,632.4531 Q1168.9416,632.2656 1168.8323,631.75 Q1168.7854,631.3906 1168.5979,631.2031 Q1168.2698,630.8281 1167.6604,630.6094 Q1167.051,630.3906 1166.426,630.3906 Q1165.6604,630.3906 1165.0198,630.7188 Q1164.3948,631.0469 1163.8948,631.7969 Q1163.4104,632.5469 1163.4104,633.5781 L1163.4104,634.6719 Q1163.4104,635.9063 1164.301,636.7344 Q1165.1916,637.5469 1166.7854,637.5469 Q1167.7229,637.5469 1168.3791,637.2969 Q1168.7698,637.1406 1169.1916,636.7031 Q1169.4573,636.4375 1169.5979,636.3594 Q1169.7541,636.2813 1169.9573,636.2813 Q1170.2854,636.2813 1170.5354,636.5469 Q1170.801,636.7969 1170.801,637.1406 Q1170.801,637.4844 1170.4573,637.8906 Q1169.9573,638.4688 1169.1604,638.7969 Q1168.0823,639.25 1166.7854,639.25 Q1165.2698,639.25 1164.0666,638.625 Q1163.0823,638.125 1162.3948,637.0625 Q1161.7073,635.9844 1161.7073,634.7031 L1161.7073,633.5469 Q1161.7073,632.2188 1162.3166,631.0781 Q1162.9416,629.9219 1164.0354,629.3125 Q1165.1291,628.6875 1166.3635,628.6875 Q1167.0979,628.6875 1167.7385,628.8594 Q1168.3948,629.0156 1168.9416,629.375 Z "/><text fill="#000000" font-family="sans-serif" font-size="12" lengthAdjust="spacingAndGlyphs" textLength="131" x="1185.776" y="638.4102">ResumeControllerProxy</text><line style="stroke: #A80036; stroke-width: 1.5;" x1="1126.976" x2="1343.976" y1="649.5" y2="649.5"/><rect fill="none" height="6" style="stroke: #C82930; stroke-width: 1.0;" width="6" x="1133.976" y="657.5"/><text fill="#000000" font-family="sans-serif" font-size="11" lengthAdjust="spacingAndGlyphs" textLength="56" x="1145.976" y="664.9189">tcpip: TCPIP</text><line style="stroke: #A80036; stroke-width: 1.5;" x1="1126.976" x2="1343.976" y1="671.3359" y2="671.3359"/><ellipse cx="1136.976" cy="682.3359" fill="#84BE84" rx="3" ry="3" style="stroke: #038048; stroke-width: 1.0;"/><text fill="#000000" font-family="sans-serif" font-size="11" lengthAdjust="spacingAndGlyphs" textLength="193" x="1145.976" y="686.7549">ResumeControllerProxy(TCPIP, Session)</text><ellipse cx="1136.976" cy="696.1719" fill="#84BE84" rx="3" ry="3" style="stroke: #038048; stroke-width: 1.0;"/><text fill="#000000" font-family="sans-serif" font-size="11" lengthAdjust="spacingAndGlyphs" textLength="60" x="1145.976" y="700.5908">finish(): void</text><ellipse cx="1136.976" cy="710.0078" fill="#84BE84" rx="3" ry="3" style="stroke: #038048; stroke-width: 1.0;"/><text fill="#000000" font-family="sans-serif" font-size="11" lengthAdjust="spacingAndGlyphs" textLength="141" x="1145.976" y="714.4268">getOtherValueFromTurn(): int</text><!--MD5=[32643bbab8d0e578b12bbe8803f18baf]
class tictactoe.distributed.StartControllerProxy--><rect fill="#FEFECE" filter="url(#f6eligqloucdz)" height="103.3438" id="tictactoe.distributed.StartControllerProxy" style="stroke: #A80036; stroke-width: 1.5;" width="203" x="523.977" y="617.5"/><ellipse cx="567.327" cy="633.5" fill="#ADD1B2" rx="11" ry="11" style="stroke: #A80036; stroke-width: 1.0;"/><path d="M570.0926,629.375 Q570.2489,629.1563 570.4364,629.0469 Q570.6239,628.9375 570.8426,628.9375 Q571.2176,628.9375 571.452,629.2031 Q571.6864,629.4531 571.6864,630.0625 L571.6864,631.5156 Q571.6864,632.125 571.452,632.3906 Q571.2176,632.6563 570.8426,632.6563 Q570.4989,632.6563 570.2958,632.4531 Q570.0926,632.2656 569.9833,631.75 Q569.9364,631.3906 569.7489,631.2031 Q569.4208,630.8281 568.8114,630.6094 Q568.202,630.3906 567.577,630.3906 Q566.8114,630.3906 566.1708,630.7188 Q565.5458,631.0469 565.0458,631.7969 Q564.5614,632.5469 564.5614,633.5781 L564.5614,634.6719 Q564.5614,635.9063 565.452,636.7344 Q566.3426,637.5469 567.9364,637.5469 Q568.8739,637.5469 569.5301,637.2969 Q569.9208,637.1406 570.3426,636.7031 Q570.6083,636.4375 570.7489,636.3594 Q570.9051,636.2813 571.1083,636.2813 Q571.4364,636.2813 571.6864,636.5469 Q571.952,636.7969 571.952,637.1406 Q571.952,637.4844 571.6083,637.8906 Q571.1083,638.4688 570.3114,638.7969 Q569.2333,639.25 567.9364,639.25 Q566.4208,639.25 565.2176,638.625 Q564.2333,638.125 563.5458,637.0625 Q562.8583,635.9844 562.8583,634.7031 L562.8583,633.5469 Q562.8583,632.2188 563.4676,631.0781 Q564.0926,629.9219 565.1864,629.3125 Q566.2801,628.6875 567.5145,628.6875 Q568.2489,628.6875 568.8895,628.8594 Q569.5458,629.0156 570.0926,629.375 Z "/><text fill="#000000" font-family="sans-serif" font-size="12" lengthAdjust="spacingAndGlyphs" textLength="108" x="587.627" y="638.4102">StartControllerProxy</text><line style="stroke: #A80036; stroke-width: 1.5;" x1="524.977" x2="725.977" y1="649.5" y2="649.5"/><rect fill="none" height="6" style="stroke: #C82930; stroke-width: 1.0;" width="6" x="531.977" y="657.5"/><text fill="#000000" font-family="sans-serif" font-size="11" lengthAdjust="spacingAndGlyphs" textLength="56" x="543.977" y="664.9189">tcpip: TCPIP</text><line style="stroke: #A80036; stroke-width: 1.5;" x1="524.977" x2="725.977" y1="671.3359" y2="671.3359"/><ellipse cx="534.977" cy="682.3359" fill="#84BE84" rx="3" ry="3" style="stroke: #038048; stroke-width: 1.0;"/><text fill="#000000" font-family="sans-serif" font-size="11" lengthAdjust="spacingAndGlyphs" textLength="177" x="543.977" y="686.7549">StartControllerProxy(TCPIP, Session)</text><ellipse cx="534.977" cy="696.1719" fill="#84BE84" rx="3" ry="3" style="stroke: #038048; stroke-width: 1.0;"/><text fill="#000000" font-family="sans-serif" font-size="11" lengthAdjust="spacingAndGlyphs" textLength="56" x="543.977" y="700.5908">start(): void</text><ellipse cx="534.977" cy="710.0078" fill="#84BE84" rx="3" ry="3" style="stroke: #038048; stroke-width: 1.0;"/><text fill="#000000" font-family="sans-serif" font-size="11" lengthAdjust="spacingAndGlyphs" textLength="112" x="543.977" y="714.4268">createPlayers(int): void</text><!--MD5=[82b27bbcf8d0b0a3978f76c672d30087]
class tictactoe.distributed.PlayControllerProxy--><rect fill="#FEFECE" filter="url(#f6eligqloucdz)" height="352.3906" id="tictactoe.distributed.PlayControllerProxy" style="stroke: #A80036; stroke-width: 1.5;" width="328" x="762.477" y="493"/><ellipse cx="869.227" cy="509" fill="#ADD1B2" rx="11" ry="11" style="stroke: #A80036; stroke-width: 1.0;"/><path d="M871.9926,504.875 Q872.1489,504.6563 872.3364,504.5469 Q872.5239,504.4375 872.7426,504.4375 Q873.1176,504.4375 873.352,504.7031 Q873.5864,504.9531 873.5864,505.5625 L873.5864,507.0156 Q873.5864,507.625 873.352,507.8906 Q873.1176,508.1563 872.7426,508.1563 Q872.3989,508.1563 872.1958,507.9531 Q871.9926,507.7656 871.8833,507.25 Q871.8364,506.8906 871.6489,506.7031 Q871.3208,506.3281 870.7114,506.1094 Q870.102,505.8906 869.477,505.8906 Q868.7114,505.8906 868.0708,506.2188 Q867.4458,506.5469 866.9458,507.2969 Q866.4614,508.0469 866.4614,509.0781 L866.4614,510.1719 Q866.4614,511.4063 867.352,512.2344 Q868.2426,513.0469 869.8364,513.0469 Q870.7739,513.0469 871.4301,512.7969 Q871.8208,512.6406 872.2426,512.2031 Q872.5083,511.9375 872.6489,511.8594 Q872.8051,511.7813 873.0083,511.7813 Q873.3364,511.7813 873.5864,512.0469 Q873.852,512.2969 873.852,512.6406 Q873.852,512.9844 873.5083,513.3906 Q873.0083,513.9688 872.2114,514.2969 Q871.1333,514.75 869.8364,514.75 Q868.3208,514.75 867.1176,514.125 Q866.1333,513.625 865.4458,512.5625 Q864.7583,511.4844 864.7583,510.2031 L864.7583,509.0469 Q864.7583,507.7188 865.3676,506.5781 Q865.9926,505.4219 867.0864,504.8125 Q868.1801,504.1875 869.4145,504.1875 Q870.1489,504.1875 870.7895,504.3594 Q871.4458,504.5156 871.9926,504.875 Z "/><text fill="#000000" font-family="sans-serif" font-size="12" lengthAdjust="spacingAndGlyphs" textLength="106" x="889.727" y="513.9102">PlayControllerProxy</text><line style="stroke: #A80036; stroke-width: 1.5;" x1="763.477" x2="1089.477" y1="525" y2="525"/><rect fill="none" height="6" style="stroke: #C82930; stroke-width: 1.0;" width="6" x="770.477" y="533"/><text fill="#000000" font-family="sans-serif" font-size="11" lengthAdjust="spacingAndGlyphs" textLength="56" x="782.477" y="540.4189">tcpip: TCPIP</text><line style="stroke: #A80036; stroke-width: 1.5;" x1="763.477" x2="1089.477" y1="546.8359" y2="546.8359"/><ellipse cx="773.477" cy="557.8359" fill="#84BE84" rx="3" ry="3" style="stroke: #038048; stroke-width: 1.0;"/><text fill="#000000" font-family="sans-serif" font-size="11" lengthAdjust="spacingAndGlyphs" textLength="174" x="782.477" y="562.2549">PlayControllerProxy(TCPIP, Session)</text><ellipse cx="773.477" cy="571.6719" fill="#84BE84" rx="3" ry="3" style="stroke: #038048; stroke-width: 1.0;"/><text fill="#000000" font-family="sans-serif" font-size="11" lengthAdjust="spacingAndGlyphs" textLength="58" x="782.477" y="576.0908">undo(): void</text><ellipse cx="773.477" cy="585.5078" fill="#84BE84" rx="3" ry="3" style="stroke: #038048; stroke-width: 1.0;"/><text fill="#000000" font-family="sans-serif" font-size="11" lengthAdjust="spacingAndGlyphs" textLength="56" x="782.477" y="589.9268">redo(): void</text><ellipse cx="773.477" cy="599.3438" fill="#84BE84" rx="3" ry="3" style="stroke: #038048; stroke-width: 1.0;"/><text fill="#000000" font-family="sans-serif" font-size="11" lengthAdjust="spacingAndGlyphs" textLength="96" x="782.477" y="603.7627">undoable(): boolean</text><ellipse cx="773.477" cy="613.1797" fill="#84BE84" rx="3" ry="3" style="stroke: #038048; stroke-width: 1.0;"/><text fill="#000000" font-family="sans-serif" font-size="11" lengthAdjust="spacingAndGlyphs" textLength="94" x="782.477" y="617.5986">redoable(): boolean</text><ellipse cx="773.477" cy="627.0156" fill="#84BE84" rx="3" ry="3" style="stroke: #038048; stroke-width: 1.0;"/><text fill="#000000" font-family="sans-serif" font-size="11" lengthAdjust="spacingAndGlyphs" textLength="224" x="782.477" y="631.4346">getTypeOfTokenPlayerFromTurn(): PlayerType</text><ellipse cx="773.477" cy="640.8516" fill="#84BE84" rx="3" ry="3" style="stroke: #038048; stroke-width: 1.0;"/><text fill="#000000" font-family="sans-serif" font-size="11" lengthAdjust="spacingAndGlyphs" textLength="202" x="782.477" y="645.2705">getErrorsPutCoordinate(Coordinate): Error</text><ellipse cx="773.477" cy="654.6875" fill="#84BE84" rx="3" ry="3" style="stroke: #038048; stroke-width: 1.0;"/><text fill="#000000" font-family="sans-serif" font-size="11" lengthAdjust="spacingAndGlyphs" textLength="241" x="782.477" y="659.1064">getErrorsMoveOriginCoordinate(Coordinate): Error</text><ellipse cx="773.477" cy="668.5234" fill="#84BE84" rx="3" ry="3" style="stroke: #038048; stroke-width: 1.0;"/><text fill="#000000" font-family="sans-serif" font-size="11" lengthAdjust="spacingAndGlyphs" textLength="302" x="782.477" y="672.9424">getErrorsMoveTargetCoordinate(Coordinate, Coordinate): Error</text><ellipse cx="773.477" cy="682.3594" fill="#84BE84" rx="3" ry="3" style="stroke: #038048; stroke-width: 1.0;"/><text fill="#000000" font-family="sans-serif" font-size="11" lengthAdjust="spacingAndGlyphs" textLength="188" x="782.477" y="686.7783">isCoordinateValid(Coordinate): boolean</text><ellipse cx="773.477" cy="696.1953" fill="#84BE84" rx="3" ry="3" style="stroke: #038048; stroke-width: 1.0;"/><text fill="#000000" font-family="sans-serif" font-size="11" lengthAdjust="spacingAndGlyphs" textLength="200" x="782.477" y="700.6143">generateRandomCoordinate(): Coordinate</text><ellipse cx="773.477" cy="710.0313" fill="#84BE84" rx="3" ry="3" style="stroke: #038048; stroke-width: 1.0;"/><text fill="#000000" font-family="sans-serif" font-size="11" lengthAdjust="spacingAndGlyphs" textLength="133" x="782.477" y="714.4502">isBoardComplete(): boolean</text><ellipse cx="773.477" cy="723.8672" fill="#84BE84" rx="3" ry="3" style="stroke: #038048; stroke-width: 1.0;"/><text fill="#000000" font-family="sans-serif" font-size="11" lengthAdjust="spacingAndGlyphs" textLength="206" x="782.477" y="728.2861">putTokenPlayerFromTurn(Coordinate): void</text><ellipse cx="773.477" cy="737.7031" fill="#84BE84" rx="3" ry="3" style="stroke: #038048; stroke-width: 1.0;"/><text fill="#000000" font-family="sans-serif" font-size="11" lengthAdjust="spacingAndGlyphs" textLength="275" x="782.477" y="742.1221">moveTokenPlayerFromTurn(Coordinate, Coordinate): void</text><ellipse cx="773.477" cy="751.5391" fill="#84BE84" rx="3" ry="3" style="stroke: #038048; stroke-width: 1.0;"/><text fill="#000000" font-family="sans-serif" font-size="11" lengthAdjust="spacingAndGlyphs" textLength="92" x="782.477" y="755.958">changeTurn(): void</text><ellipse cx="773.477" cy="765.375" fill="#84BE84" rx="3" ry="3" style="stroke: #038048; stroke-width: 1.0;"/><text fill="#000000" font-family="sans-serif" font-size="11" lengthAdjust="spacingAndGlyphs" textLength="155" x="782.477" y="769.7939">getTokenChar(Coordinate): char</text><ellipse cx="773.477" cy="779.2109" fill="#84BE84" rx="3" ry="3" style="stroke: #038048; stroke-width: 1.0;"/><text fill="#000000" font-family="sans-serif" font-size="11" lengthAdjust="spacingAndGlyphs" textLength="170" x="782.477" y="783.6299">isEmptyToken(Coordinate): boolean</text><ellipse cx="773.477" cy="793.0469" fill="#84BE84" rx="3" ry="3" style="stroke: #038048; stroke-width: 1.0;"/><text fill="#000000" font-family="sans-serif" font-size="11" lengthAdjust="spacingAndGlyphs" textLength="114" x="782.477" y="797.4658">getValueFromTurn(): int</text><ellipse cx="773.477" cy="806.8828" fill="#84BE84" rx="3" ry="3" style="stroke: #038048; stroke-width: 1.0;"/><text fill="#000000" font-family="sans-serif" font-size="11" lengthAdjust="spacingAndGlyphs" textLength="100" x="782.477" y="811.3018">continueState(): void</text><ellipse cx="773.477" cy="820.7188" fill="#84BE84" rx="3" ry="3" style="stroke: #038048; stroke-width: 1.0;"/><text fill="#000000" font-family="sans-serif" font-size="11" lengthAdjust="spacingAndGlyphs" textLength="141" x="782.477" y="825.1377">getCoordinateDimension(): int</text><ellipse cx="773.477" cy="834.5547" fill="#84BE84" rx="3" ry="3" style="stroke: #038048; stroke-width: 1.0;"/><text fill="#000000" font-family="sans-serif" font-size="11" lengthAdjust="spacingAndGlyphs" textLength="110" x="782.477" y="838.9736">isTicTacToe(): boolean</text><!--MD5=[21ce6f728e254c893f5541ef309b6f4c]
class tictactoe.distributed.TicTacToeClient--><rect fill="#FEFECE" filter="url(#f6eligqloucdz)" height="117.1797" id="tictactoe.distributed.TicTacToeClient" style="stroke: #A80036; stroke-width: 1.5;" width="136" x="726.477" y="166"/><ellipse cx="748.227" cy="182" fill="#ADD1B2" rx="11" ry="11" style="stroke: #A80036; stroke-width: 1.0;"/><path d="M750.9926,177.875 Q751.1489,177.6563 751.3364,177.5469 Q751.5239,177.4375 751.7426,177.4375 Q752.1176,177.4375 752.352,177.7031 Q752.5864,177.9531 752.5864,178.5625 L752.5864,180.0156 Q752.5864,180.625 752.352,180.8906 Q752.1176,181.1563 751.7426,181.1563 Q751.3989,181.1563 751.1958,180.9531 Q750.9926,180.7656 750.8833,180.25 Q750.8364,179.8906 750.6489,179.7031 Q750.3208,179.3281 749.7114,179.1094 Q749.102,178.8906 748.477,178.8906 Q747.7114,178.8906 747.0708,179.2188 Q746.4458,179.5469 745.9458,180.2969 Q745.4614,181.0469 745.4614,182.0781 L745.4614,183.1719 Q745.4614,184.4063 746.352,185.2344 Q747.2426,186.0469 748.8364,186.0469 Q749.7739,186.0469 750.4301,185.7969 Q750.8208,185.6406 751.2426,185.2031 Q751.5083,184.9375 751.6489,184.8594 Q751.8051,184.7813 752.0083,184.7813 Q752.3364,184.7813 752.5864,185.0469 Q752.852,185.2969 752.852,185.6406 Q752.852,185.9844 752.5083,186.3906 Q752.0083,186.9688 751.2114,187.2969 Q750.1333,187.75 748.8364,187.75 Q747.3208,187.75 746.1176,187.125 Q745.1333,186.625 744.4458,185.5625 Q743.7583,184.4844 743.7583,183.2031 L743.7583,182.0469 Q743.7583,180.7188 744.3676,179.5781 Q744.9926,178.4219 746.0864,177.8125 Q747.1801,177.1875 748.4145,177.1875 Q749.1489,177.1875 749.7895,177.3594 Q750.4458,177.5156 750.9926,177.875 Z "/><text fill="#000000" font-family="sans-serif" font-size="12" lengthAdjust="spacingAndGlyphs" textLength="89" x="763.727" y="186.9102">TicTacToeClient</text><line style="stroke: #A80036; stroke-width: 1.5;" x1="727.477" x2="861.477" y1="198" y2="198"/><rect fill="none" height="6" style="stroke: #C82930; stroke-width: 1.0;" width="6" x="734.477" y="206"/><text fill="#000000" font-family="sans-serif" font-size="11" lengthAdjust="spacingAndGlyphs" textLength="110" x="746.477" y="213.4189">logicProxy: LogicProxy</text><line style="stroke: #A80036; stroke-width: 1.5;" x1="727.477" x2="861.477" y1="219.8359" y2="219.8359"/><ellipse cx="737.477" cy="230.8359" fill="#84BE84" rx="3" ry="3" style="stroke: #038048; stroke-width: 1.0;"/><text fill="#000000" font-family="sans-serif" font-size="11" lengthAdjust="spacingAndGlyphs" textLength="84" x="746.477" y="235.2549">TicTacToeClient()</text><ellipse cx="737.477" cy="244.6719" fill="#84BE84" rx="3" ry="3" style="stroke: #038048; stroke-width: 1.0;"/><text fill="#000000" font-family="sans-serif" font-size="11" lengthAdjust="spacingAndGlyphs" text-decoration="underline" textLength="90" x="746.477" y="249.0908">main(String[]): void</text><polygon fill="#FFFF44" points="737.477,253.5078,741.477,257.5078,737.477,261.5078,733.477,257.5078" style="stroke: #B38D22; stroke-width: 1.0;"/><text fill="#000000" font-family="sans-serif" font-size="11" lengthAdjust="spacingAndGlyphs" textLength="97" x="746.477" y="262.9268">createLogic(): Logic</text><polygon fill="#FFFF44" points="737.477,267.3438,741.477,271.3438,737.477,275.3438,733.477,271.3438" style="stroke: #B38D22; stroke-width: 1.0;"/><text fill="#000000" font-family="sans-serif" font-size="11" lengthAdjust="spacingAndGlyphs" textLength="54" x="746.477" y="276.7627">play(): void</text><!--MD5=[73a32bc9a7664473c71614b3b73eef7b]
class tictactoe.distributed.TicTacToeServer--><rect fill="#FEFECE" filter="url(#f6eligqloucdz)" height="117.1797" id="tictactoe.distributed.TicTacToeServer" style="stroke: #A80036; stroke-width: 1.5;" width="227" x="332.977" y="166"/><ellipse cx="396.227" cy="182" fill="#ADD1B2" rx="11" ry="11" style="stroke: #A80036; stroke-width: 1.0;"/><path d="M398.9926,177.875 Q399.1489,177.6563 399.3364,177.5469 Q399.5239,177.4375 399.7426,177.4375 Q400.1176,177.4375 400.352,177.7031 Q400.5864,177.9531 400.5864,178.5625 L400.5864,180.0156 Q400.5864,180.625 400.352,180.8906 Q400.1176,181.1563 399.7426,181.1563 Q399.3989,181.1563 399.1958,180.9531 Q398.9926,180.7656 398.8833,180.25 Q398.8364,179.8906 398.6489,179.7031 Q398.3208,179.3281 397.7114,179.1094 Q397.102,178.8906 396.477,178.8906 Q395.7114,178.8906 395.0708,179.2188 Q394.4458,179.5469 393.9458,180.2969 Q393.4614,181.0469 393.4614,182.0781 L393.4614,183.1719 Q393.4614,184.4063 394.352,185.2344 Q395.2426,186.0469 396.8364,186.0469 Q397.7739,186.0469 398.4301,185.7969 Q398.8208,185.6406 399.2426,185.2031 Q399.5083,184.9375 399.6489,184.8594 Q399.8051,184.7813 400.0083,184.7813 Q400.3364,184.7813 400.5864,185.0469 Q400.852,185.2969 400.852,185.6406 Q400.852,185.9844 400.5083,186.3906 Q400.0083,186.9688 399.2114,187.2969 Q398.1333,187.75 396.8364,187.75 Q395.3208,187.75 394.1176,187.125 Q393.1333,186.625 392.4458,185.5625 Q391.7583,184.4844 391.7583,183.2031 L391.7583,182.0469 Q391.7583,180.7188 392.3676,179.5781 Q392.9926,178.4219 394.0864,177.8125 Q395.1801,177.1875 396.4145,177.1875 Q397.1489,177.1875 397.7895,177.3594 Q398.4458,177.5156 398.9926,177.875 Z "/><text fill="#000000" font-family="sans-serif" font-size="12" lengthAdjust="spacingAndGlyphs" textLength="92" x="416.727" y="186.9102">TicTacToeServer</text><line style="stroke: #A80036; stroke-width: 1.5;" x1="333.977" x2="558.977" y1="198" y2="198"/><rect fill="none" height="6" style="stroke: #C82930; stroke-width: 1.0;" width="6" x="340.977" y="206"/><text fill="#000000" font-family="sans-serif" font-size="11" lengthAdjust="spacingAndGlyphs" textLength="201" x="352.977" y="213.4189">dispatcherPrototype: DispatcherPrototype</text><rect fill="none" height="6" style="stroke: #C82930; stroke-width: 1.0;" width="6" x="340.977" y="219.8359"/><text fill="#000000" font-family="sans-serif" font-size="11" lengthAdjust="spacingAndGlyphs" textLength="87" x="352.977" y="227.2549">logic: LogicServer</text><line style="stroke: #A80036; stroke-width: 1.5;" x1="333.977" x2="558.977" y1="233.6719" y2="233.6719"/><rect fill="#F24D5C" height="6" style="stroke: #C82930; stroke-width: 1.0;" width="6" x="340.977" y="241.6719"/><text fill="#000000" font-family="sans-serif" font-size="11" lengthAdjust="spacingAndGlyphs" textLength="91" x="352.977" y="249.0908">TicTacToeServer()</text><ellipse cx="343.977" cy="258.5078" fill="#84BE84" rx="3" ry="3" style="stroke: #038048; stroke-width: 1.0;"/><text fill="#000000" font-family="sans-serif" font-size="11" lengthAdjust="spacingAndGlyphs" text-decoration="underline" textLength="90" x="352.977" y="262.9268">main(String[]): void</text><rect fill="#F24D5C" height="6" style="stroke: #C82930; stroke-width: 1.0;" width="6" x="340.977" y="269.3438"/><text fill="#000000" font-family="sans-serif" font-size="11" lengthAdjust="spacingAndGlyphs" textLength="62" x="352.977" y="276.7627">serve(): void</text><!--MD5=[c333c1dfe43cc7b36e6e5cd610b33d4f]
class tictactoe.controllers.implementation.LogicImplementation--><rect fill="#FEFECE" filter="url(#f6eligqloucdz)" height="48" id="tictactoe.controllers.implementation.LogicImplementation" style="stroke: #A80036; stroke-width: 1.5;" width="148" x="1401.476" y="200.5"/><ellipse cx="1416.476" cy="216.5" fill="#ADD1B2" rx="11" ry="11" style="stroke: #A80036; stroke-width: 1.0;"/><path d="M1419.2416,212.375 Q1419.3979,212.1563 1419.5854,212.0469 Q1419.7729,211.9375 1419.9916,211.9375 Q1420.3666,211.9375 1420.601,212.2031 Q1420.8354,212.4531 1420.8354,213.0625 L1420.8354,214.5156 Q1420.8354,215.125 1420.601,215.3906 Q1420.3666,215.6563 1419.9916,215.6563 Q1419.6479,215.6563 1419.4448,215.4531 Q1419.2416,215.2656 1419.1323,214.75 Q1419.0854,214.3906 1418.8979,214.2031 Q1418.5698,213.8281 1417.9604,213.6094 Q1417.351,213.3906 1416.726,213.3906 Q1415.9604,213.3906 1415.3198,213.7188 Q1414.6948,214.0469 1414.1948,214.7969 Q1413.7104,215.5469 1413.7104,216.5781 L1413.7104,217.6719 Q1413.7104,218.9063 1414.601,219.7344 Q1415.4916,220.5469 1417.0854,220.5469 Q1418.0229,220.5469 1418.6791,220.2969 Q1419.0698,220.1406 1419.4916,219.7031 Q1419.7573,219.4375 1419.8979,219.3594 Q1420.0541,219.2813 1420.2573,219.2813 Q1420.5854,219.2813 1420.8354,219.5469 Q1421.101,219.7969 1421.101,220.1406 Q1421.101,220.4844 1420.7573,220.8906 Q1420.2573,221.4688 1419.4604,221.7969 Q1418.3823,222.25 1417.0854,222.25 Q1415.5698,222.25 1414.3666,221.625 Q1413.3823,221.125 1412.6948,220.0625 Q1412.0073,218.9844 1412.0073,217.7031 L1412.0073,216.5469 Q1412.0073,215.2188 1412.6166,214.0781 Q1413.2416,212.9219 1414.3354,212.3125 Q1415.4291,211.6875 1416.6635,211.6875 Q1417.3979,211.6875 1418.0385,211.8594 Q1418.6948,212.0156 1419.2416,212.375 Z "/><text fill="#000000" font-family="sans-serif" font-size="12" lengthAdjust="spacingAndGlyphs" textLength="116" x="1430.476" y="221.4102">LogicImplementation</text><line style="stroke: #A80036; stroke-width: 1.5;" x1="1402.476" x2="1548.476" y1="232.5" y2="232.5"/><line style="stroke: #A80036; stroke-width: 1.5;" x1="1402.476" x2="1548.476" y1="240.5" y2="240.5"/><!--MD5=[da64f50044ac304822a65f3f619b3bb4]
class tictactoe.distributed.dispatchers.DispatcherPrototype--><rect fill="#FEFECE" filter="url(#f6eligqloucdz)" height="48" id="tictactoe.distributed.dispatchers.DispatcherPrototype" style="stroke: #A80036; stroke-width: 1.5;" width="143" x="182.977" y="921"/><ellipse cx="197.977" cy="937" fill="#ADD1B2" rx="11" ry="11" style="stroke: #A80036; stroke-width: 1.0;"/><path d="M200.7426,932.875 Q200.8989,932.6563 201.0864,932.5469 Q201.2739,932.4375 201.4926,932.4375 Q201.8676,932.4375 202.102,932.7031 Q202.3364,932.9531 202.3364,933.5625 L202.3364,935.0156 Q202.3364,935.625 202.102,935.8906 Q201.8676,936.1563 201.4926,936.1563 Q201.1489,936.1563 200.9458,935.9531 Q200.7426,935.7656 200.6333,935.25 Q200.5864,934.8906 200.3989,934.7031 Q200.0708,934.3281 199.4614,934.1094 Q198.852,933.8906 198.227,933.8906 Q197.4614,933.8906 196.8208,934.2188 Q196.1958,934.5469 195.6958,935.2969 Q195.2114,936.0469 195.2114,937.0781 L195.2114,938.1719 Q195.2114,939.4063 196.102,940.2344 Q196.9926,941.0469 198.5864,941.0469 Q199.5239,941.0469 200.1801,940.7969 Q200.5708,940.6406 200.9926,940.2031 Q201.2583,939.9375 201.3989,939.8594 Q201.5551,939.7813 201.7583,939.7813 Q202.0864,939.7813 202.3364,940.0469 Q202.602,940.2969 202.602,940.6406 Q202.602,940.9844 202.2583,941.3906 Q201.7583,941.9688 200.9614,942.2969 Q199.8833,942.75 198.5864,942.75 Q197.0708,942.75 195.8676,942.125 Q194.8833,941.625 194.1958,940.5625 Q193.5083,939.4844 193.5083,938.2031 L193.5083,937.0469 Q193.5083,935.7188 194.1176,934.5781 Q194.7426,933.4219 195.8364,932.8125 Q196.9301,932.1875 198.1645,932.1875 Q198.8989,932.1875 199.5395,932.3594 Q200.1958,932.5156 200.7426,932.875 Z "/><text fill="#000000" font-family="sans-serif" font-size="12" lengthAdjust="spacingAndGlyphs" textLength="111" x="211.977" y="941.9102">DispatcherPrototype</text><line style="stroke: #A80036; stroke-width: 1.5;" x1="183.977" x2="324.977" y1="953" y2="953"/><line style="stroke: #A80036; stroke-width: 1.5;" x1="183.977" x2="324.977" y1="961" y2="961"/><!--MD5=[fdac821697955e2463ccbcbfa9634439]
class tictactoe.distributed.dispatchers.FrameType--><rect fill="#FEFECE" filter="url(#f6eligqloucdz)" height="48" id="tictactoe.distributed.dispatchers.FrameType" style="stroke: #A80036; stroke-width: 1.5;" width="94" x="361.477" y="921"/><ellipse cx="376.477" cy="937" fill="#ADD1B2" rx="11" ry="11" style="stroke: #A80036; stroke-width: 1.0;"/><path d="M379.2426,932.875 Q379.3989,932.6563 379.5864,932.5469 Q379.7739,932.4375 379.9926,932.4375 Q380.3676,932.4375 380.602,932.7031 Q380.8364,932.9531 380.8364,933.5625 L380.8364,935.0156 Q380.8364,935.625 380.602,935.8906 Q380.3676,936.1563 379.9926,936.1563 Q379.6489,936.1563 379.4458,935.9531 Q379.2426,935.7656 379.1333,935.25 Q379.0864,934.8906 378.8989,934.7031 Q378.5708,934.3281 377.9614,934.1094 Q377.352,933.8906 376.727,933.8906 Q375.9614,933.8906 375.3208,934.2188 Q374.6958,934.5469 374.1958,935.2969 Q373.7114,936.0469 373.7114,937.0781 L373.7114,938.1719 Q373.7114,939.4063 374.602,940.2344 Q375.4926,941.0469 377.0864,941.0469 Q378.0239,941.0469 378.6801,940.7969 Q379.0708,940.6406 379.4926,940.2031 Q379.7583,939.9375 379.8989,939.8594 Q380.0551,939.7813 380.2583,939.7813 Q380.5864,939.7813 380.8364,940.0469 Q381.102,940.2969 381.102,940.6406 Q381.102,940.9844 380.7583,941.3906 Q380.2583,941.9688 379.4614,942.2969 Q378.3833,942.75 377.0864,942.75 Q375.5708,942.75 374.3676,942.125 Q373.3833,941.625 372.6958,940.5625 Q372.0083,939.4844 372.0083,938.2031 L372.0083,937.0469 Q372.0083,935.7188 372.6176,934.5781 Q373.2426,933.4219 374.3364,932.8125 Q375.4301,932.1875 376.6645,932.1875 Q377.3989,932.1875 378.0395,932.3594 Q378.6958,932.5156 379.2426,932.875 Z "/><text fill="#000000" font-family="sans-serif" font-size="12" lengthAdjust="spacingAndGlyphs" textLength="62" x="390.477" y="941.9102">FrameType</text><line style="stroke: #A80036; stroke-width: 1.5;" x1="362.477" x2="454.477" y1="953" y2="953"/><line style="stroke: #A80036; stroke-width: 1.5;" x1="362.477" x2="454.477" y1="961" y2="961"/><!--MD5=[3b8962fd5847b9038b2e29740dae8054]
class tictactoe.controllers.Logic--><rect fill="#FEFECE" filter="url(#f6eligqloucdz)" height="48" id="tictactoe.controllers.Logic" style="stroke: #A80036; stroke-width: 1.5;" width="62" x="1695.476" y="200.5"/><ellipse cx="1710.476" cy="216.5" fill="#ADD1B2" rx="11" ry="11" style="stroke: #A80036; stroke-width: 1.0;"/><path d="M1713.2416,212.375 Q1713.3979,212.1563 1713.5854,212.0469 Q1713.7729,211.9375 1713.9916,211.9375 Q1714.3666,211.9375 1714.601,212.2031 Q1714.8354,212.4531 1714.8354,213.0625 L1714.8354,214.5156 Q1714.8354,215.125 1714.601,215.3906 Q1714.3666,215.6563 1713.9916,215.6563 Q1713.6479,215.6563 1713.4448,215.4531 Q1713.2416,215.2656 1713.1323,214.75 Q1713.0854,214.3906 1712.8979,214.2031 Q1712.5698,213.8281 1711.9604,213.6094 Q1711.351,213.3906 1710.726,213.3906 Q1709.9604,213.3906 1709.3198,213.7188 Q1708.6948,214.0469 1708.1948,214.7969 Q1707.7104,215.5469 1707.7104,216.5781 L1707.7104,217.6719 Q1707.7104,218.9063 1708.601,219.7344 Q1709.4916,220.5469 1711.0854,220.5469 Q1712.0229,220.5469 1712.6791,220.2969 Q1713.0698,220.1406 1713.4916,219.7031 Q1713.7573,219.4375 1713.8979,219.3594 Q1714.0541,219.2813 1714.2573,219.2813 Q1714.5854,219.2813 1714.8354,219.5469 Q1715.101,219.7969 1715.101,220.1406 Q1715.101,220.4844 1714.7573,220.8906 Q1714.2573,221.4688 1713.4604,221.7969 Q1712.3823,222.25 1711.0854,222.25 Q1709.5698,222.25 1708.3666,221.625 Q1707.3823,221.125 1706.6948,220.0625 Q1706.0073,218.9844 1706.0073,217.7031 L1706.0073,216.5469 Q1706.0073,215.2188 1706.6166,214.0781 Q1707.2416,212.9219 1708.3354,212.3125 Q1709.4291,211.6875 1710.6635,211.6875 Q1711.3979,211.6875 1712.0385,211.8594 Q1712.6948,212.0156 1713.2416,212.375 Z "/><text fill="#000000" font-family="sans-serif" font-size="12" lengthAdjust="spacingAndGlyphs" textLength="30" x="1724.476" y="221.4102">Logic</text><line style="stroke: #A80036; stroke-width: 1.5;" x1="1696.476" x2="1756.476" y1="232.5" y2="232.5"/><line style="stroke: #A80036; stroke-width: 1.5;" x1="1696.476" x2="1756.476" y1="240.5" y2="240.5"/><!--MD5=[b574e60c06c50037ff1b014277a67d62]
class tictactoe.controllers.PlayController--><rect fill="#FEFECE" filter="url(#f6eligqloucdz)" height="48" id="tictactoe.controllers.PlayController" style="stroke: #A80036; stroke-width: 1.5;" width="109" x="1938.976" y="200.5"/><ellipse cx="1953.976" cy="216.5" fill="#ADD1B2" rx="11" ry="11" style="stroke: #A80036; stroke-width: 1.0;"/><path d="M1956.7416,212.375 Q1956.8979,212.1563 1957.0854,212.0469 Q1957.2729,211.9375 1957.4916,211.9375 Q1957.8666,211.9375 1958.101,212.2031 Q1958.3354,212.4531 1958.3354,213.0625 L1958.3354,214.5156 Q1958.3354,215.125 1958.101,215.3906 Q1957.8666,215.6563 1957.4916,215.6563 Q1957.1479,215.6563 1956.9448,215.4531 Q1956.7416,215.2656 1956.6323,214.75 Q1956.5854,214.3906 1956.3979,214.2031 Q1956.0698,213.8281 1955.4604,213.6094 Q1954.851,213.3906 1954.226,213.3906 Q1953.4604,213.3906 1952.8198,213.7188 Q1952.1948,214.0469 1951.6948,214.7969 Q1951.2104,215.5469 1951.2104,216.5781 L1951.2104,217.6719 Q1951.2104,218.9063 1952.101,219.7344 Q1952.9916,220.5469 1954.5854,220.5469 Q1955.5229,220.5469 1956.1791,220.2969 Q1956.5698,220.1406 1956.9916,219.7031 Q1957.2573,219.4375 1957.3979,219.3594 Q1957.5541,219.2813 1957.7573,219.2813 Q1958.0854,219.2813 1958.3354,219.5469 Q1958.601,219.7969 1958.601,220.1406 Q1958.601,220.4844 1958.2573,220.8906 Q1957.7573,221.4688 1956.9604,221.7969 Q1955.8823,222.25 1954.5854,222.25 Q1953.0698,222.25 1951.8666,221.625 Q1950.8823,221.125 1950.1948,220.0625 Q1949.5073,218.9844 1949.5073,217.7031 L1949.5073,216.5469 Q1949.5073,215.2188 1950.1166,214.0781 Q1950.7416,212.9219 1951.8354,212.3125 Q1952.9291,211.6875 1954.1635,211.6875 Q1954.8979,211.6875 1955.5385,211.8594 Q1956.1948,212.0156 1956.7416,212.375 Z "/><text fill="#000000" font-family="sans-serif" font-size="12" lengthAdjust="spacingAndGlyphs" textLength="77" x="1967.976" y="221.4102">PlayController</text><line style="stroke: #A80036; stroke-width: 1.5;" x1="1939.976" x2="2046.976" y1="232.5" y2="232.5"/><line style="stroke: #A80036; stroke-width: 1.5;" x1="1939.976" x2="2046.976" y1="240.5" y2="240.5"/><!--MD5=[d75e1ad11e6a17be2ba08b218e20e3d7]
class tictactoe.controllers.ResumeController--><rect fill="#FEFECE" filter="url(#f6eligqloucdz)" height="48" id="tictactoe.controllers.ResumeController" style="stroke: #A80036; stroke-width: 1.5;" width="134" x="2083.476" y="200.5"/><ellipse cx="2098.476" cy="216.5" fill="#ADD1B2" rx="11" ry="11" style="stroke: #A80036; stroke-width: 1.0;"/><path d="M2101.2416,212.375 Q2101.3979,212.1563 2101.5854,212.0469 Q2101.7729,211.9375 2101.9916,211.9375 Q2102.3666,211.9375 2102.601,212.2031 Q2102.8354,212.4531 2102.8354,213.0625 L2102.8354,214.5156 Q2102.8354,215.125 2102.601,215.3906 Q2102.3666,215.6563 2101.9916,215.6563 Q2101.6479,215.6563 2101.4447,215.4531 Q2101.2416,215.2656 2101.1322,214.75 Q2101.0854,214.3906 2100.8979,214.2031 Q2100.5697,213.8281 2099.9604,213.6094 Q2099.351,213.3906 2098.726,213.3906 Q2097.9604,213.3906 2097.3197,213.7188 Q2096.6947,214.0469 2096.1947,214.7969 Q2095.7104,215.5469 2095.7104,216.5781 L2095.7104,217.6719 Q2095.7104,218.9063 2096.601,219.7344 Q2097.4916,220.5469 2099.0854,220.5469 Q2100.0229,220.5469 2100.6791,220.2969 Q2101.0697,220.1406 2101.4916,219.7031 Q2101.7572,219.4375 2101.8979,219.3594 Q2102.0541,219.2813 2102.2572,219.2813 Q2102.5854,219.2813 2102.8354,219.5469 Q2103.101,219.7969 2103.101,220.1406 Q2103.101,220.4844 2102.7572,220.8906 Q2102.2572,221.4688 2101.4604,221.7969 Q2100.3822,222.25 2099.0854,222.25 Q2097.5697,222.25 2096.3666,221.625 Q2095.3822,221.125 2094.6947,220.0625 Q2094.0072,218.9844 2094.0072,217.7031 L2094.0072,216.5469 Q2094.0072,215.2188 2094.6166,214.0781 Q2095.2416,212.9219 2096.3354,212.3125 Q2097.4291,211.6875 2098.6635,211.6875 Q2099.3979,211.6875 2100.0385,211.8594 Q2100.6947,212.0156 2101.2416,212.375 Z "/><text fill="#000000" font-family="sans-serif" font-size="12" lengthAdjust="spacingAndGlyphs" textLength="102" x="2112.476" y="221.4102">ResumeController</text><line style="stroke: #A80036; stroke-width: 1.5;" x1="2084.476" x2="2216.476" y1="232.5" y2="232.5"/><line style="stroke: #A80036; stroke-width: 1.5;" x1="2084.476" x2="2216.476" y1="240.5" y2="240.5"/><!--MD5=[8ede4dbfb3b498095887802b64b699f0]
class tictactoe.controllers.StartController--><rect fill="#FEFECE" filter="url(#f6eligqloucdz)" height="48" id="tictactoe.controllers.StartController" style="stroke: #A80036; stroke-width: 1.5;" width="111" x="1792.976" y="200.5"/><ellipse cx="1807.976" cy="216.5" fill="#ADD1B2" rx="11" ry="11" style="stroke: #A80036; stroke-width: 1.0;"/><path d="M1810.7416,212.375 Q1810.8979,212.1563 1811.0854,212.0469 Q1811.2729,211.9375 1811.4916,211.9375 Q1811.8666,211.9375 1812.101,212.2031 Q1812.3354,212.4531 1812.3354,213.0625 L1812.3354,214.5156 Q1812.3354,215.125 1812.101,215.3906 Q1811.8666,215.6563 1811.4916,215.6563 Q1811.1479,215.6563 1810.9448,215.4531 Q1810.7416,215.2656 1810.6323,214.75 Q1810.5854,214.3906 1810.3979,214.2031 Q1810.0698,213.8281 1809.4604,213.6094 Q1808.851,213.3906 1808.226,213.3906 Q1807.4604,213.3906 1806.8198,213.7188 Q1806.1948,214.0469 1805.6948,214.7969 Q1805.2104,215.5469 1805.2104,216.5781 L1805.2104,217.6719 Q1805.2104,218.9063 1806.101,219.7344 Q1806.9916,220.5469 1808.5854,220.5469 Q1809.5229,220.5469 1810.1791,220.2969 Q1810.5698,220.1406 1810.9916,219.7031 Q1811.2573,219.4375 1811.3979,219.3594 Q1811.5541,219.2813 1811.7573,219.2813 Q1812.0854,219.2813 1812.3354,219.5469 Q1812.601,219.7969 1812.601,220.1406 Q1812.601,220.4844 1812.2573,220.8906 Q1811.7573,221.4688 1810.9604,221.7969 Q1809.8823,222.25 1808.5854,222.25 Q1807.0698,222.25 1805.8666,221.625 Q1804.8823,221.125 1804.1948,220.0625 Q1803.5073,218.9844 1803.5073,217.7031 L1803.5073,216.5469 Q1803.5073,215.2188 1804.1166,214.0781 Q1804.7416,212.9219 1805.8354,212.3125 Q1806.9291,211.6875 1808.1635,211.6875 Q1808.8979,211.6875 1809.5385,211.8594 Q1810.1948,212.0156 1810.7416,212.375 Z "/><text fill="#000000" font-family="sans-serif" font-size="12" lengthAdjust="spacingAndGlyphs" textLength="79" x="1821.976" y="221.4102">StartController</text><line style="stroke: #A80036; stroke-width: 1.5;" x1="1793.976" x2="1902.976" y1="232.5" y2="232.5"/><line style="stroke: #A80036; stroke-width: 1.5;" x1="1793.976" x2="1902.976" y1="240.5" y2="240.5"/><!--MD5=[2c721b8e75ee69878c5473c2e2c68362]
class utils.TCPIP--><rect fill="#FEFECE" filter="url(#f6eligqloucdz)" height="48" id="utils.TCPIP" style="stroke: #A80036; stroke-width: 1.5;" width="67" x="591.977" y="921"/><ellipse cx="606.977" cy="937" fill="#ADD1B2" rx="11" ry="11" style="stroke: #A80036; stroke-width: 1.0;"/><path d="M609.7426,932.875 Q609.8989,932.6563 610.0864,932.5469 Q610.2739,932.4375 610.4926,932.4375 Q610.8676,932.4375 611.102,932.7031 Q611.3364,932.9531 611.3364,933.5625 L611.3364,935.0156 Q611.3364,935.625 611.102,935.8906 Q610.8676,936.1563 610.4926,936.1563 Q610.1489,936.1563 609.9458,935.9531 Q609.7426,935.7656 609.6333,935.25 Q609.5864,934.8906 609.3989,934.7031 Q609.0708,934.3281 608.4614,934.1094 Q607.852,933.8906 607.227,933.8906 Q606.4614,933.8906 605.8208,934.2188 Q605.1958,934.5469 604.6958,935.2969 Q604.2114,936.0469 604.2114,937.0781 L604.2114,938.1719 Q604.2114,939.4063 605.102,940.2344 Q605.9926,941.0469 607.5864,941.0469 Q608.5239,941.0469 609.1801,940.7969 Q609.5708,940.6406 609.9926,940.2031 Q610.2583,939.9375 610.3989,939.8594 Q610.5551,939.7813 610.7583,939.7813 Q611.0864,939.7813 611.3364,940.0469 Q611.602,940.2969 611.602,940.6406 Q611.602,940.9844 611.2583,941.3906 Q610.7583,941.9688 609.9614,942.2969 Q608.8833,942.75 607.5864,942.75 Q606.0708,942.75 604.8676,942.125 Q603.8833,941.625 603.1958,940.5625 Q602.5083,939.4844 602.5083,938.2031 L602.5083,937.0469 Q602.5083,935.7188 603.1176,934.5781 Q603.7426,933.4219 604.8364,932.8125 Q605.9301,932.1875 607.1645,932.1875 Q607.8989,932.1875 608.5395,932.3594 Q609.1958,932.5156 609.7426,932.875 Z "/><text fill="#000000" font-family="sans-serif" font-size="12" lengthAdjust="spacingAndGlyphs" textLength="35" x="620.977" y="941.9102">TCPIP</text><line style="stroke: #A80036; stroke-width: 1.5;" x1="592.977" x2="657.977" y1="953" y2="953"/><line style="stroke: #A80036; stroke-width: 1.5;" x1="592.977" x2="657.977" y1="961" y2="961"/><!--MD5=[fa99c436b17806d9277b14ee7a9cac8e]
class tictactoe.models.Session--><rect fill="#FEFECE" filter="url(#f6eligqloucdz)" height="48" id="tictactoe.models.Session" style="stroke: #A80036; stroke-width: 1.5;" width="78" x="1401.476" y="364"/><ellipse cx="1416.476" cy="380" fill="#ADD1B2" rx="11" ry="11" style="stroke: #A80036; stroke-width: 1.0;"/><path d="M1419.2416,375.875 Q1419.3979,375.6563 1419.5854,375.5469 Q1419.7729,375.4375 1419.9916,375.4375 Q1420.3666,375.4375 1420.601,375.7031 Q1420.8354,375.9531 1420.8354,376.5625 L1420.8354,378.0156 Q1420.8354,378.625 1420.601,378.8906 Q1420.3666,379.1563 1419.9916,379.1563 Q1419.6479,379.1563 1419.4448,378.9531 Q1419.2416,378.7656 1419.1323,378.25 Q1419.0854,377.8906 1418.8979,377.7031 Q1418.5698,377.3281 1417.9604,377.1094 Q1417.351,376.8906 1416.726,376.8906 Q1415.9604,376.8906 1415.3198,377.2188 Q1414.6948,377.5469 1414.1948,378.2969 Q1413.7104,379.0469 1413.7104,380.0781 L1413.7104,381.1719 Q1413.7104,382.4063 1414.601,383.2344 Q1415.4916,384.0469 1417.0854,384.0469 Q1418.0229,384.0469 1418.6791,383.7969 Q1419.0698,383.6406 1419.4916,383.2031 Q1419.7573,382.9375 1419.8979,382.8594 Q1420.0541,382.7813 1420.2573,382.7813 Q1420.5854,382.7813 1420.8354,383.0469 Q1421.101,383.2969 1421.101,383.6406 Q1421.101,383.9844 1420.7573,384.3906 Q1420.2573,384.9688 1419.4604,385.2969 Q1418.3823,385.75 1417.0854,385.75 Q1415.5698,385.75 1414.3666,385.125 Q1413.3823,384.625 1412.6948,383.5625 Q1412.0073,382.4844 1412.0073,381.2031 L1412.0073,380.0469 Q1412.0073,378.7188 1412.6166,377.5781 Q1413.2416,376.4219 1414.3354,375.8125 Q1415.4291,375.1875 1416.6635,375.1875 Q1417.3979,375.1875 1418.0385,375.3594 Q1418.6948,375.5156 1419.2416,375.875 Z "/><text fill="#000000" font-family="sans-serif" font-size="12" lengthAdjust="spacingAndGlyphs" textLength="46" x="1430.476" y="384.9102">Session</text><line style="stroke: #A80036; stroke-width: 1.5;" x1="1402.476" x2="1478.476" y1="396" y2="396"/><line style="stroke: #A80036; stroke-width: 1.5;" x1="1402.476" x2="1478.476" y1="404" y2="404"/><!--MD5=[dcfee6ff2a733e6a859ce2b7bcbe021e]
class tictactoe.TicTacToe--><rect fill="#FEFECE" filter="url(#f6eligqloucdz)" height="48" id="tictactoe.TicTacToe" style="stroke: #A80036; stroke-width: 1.5;" width="89" x="749.977" y="42"/><ellipse cx="764.977" cy="58" fill="#ADD1B2" rx="11" ry="11" style="stroke: #A80036; stroke-width: 1.0;"/><path d="M767.7426,53.875 Q767.8989,53.6563 768.0864,53.5469 Q768.2739,53.4375 768.4926,53.4375 Q768.8676,53.4375 769.102,53.7031 Q769.3364,53.9531 769.3364,54.5625 L769.3364,56.0156 Q769.3364,56.625 769.102,56.8906 Q768.8676,57.1563 768.4926,57.1563 Q768.1489,57.1563 767.9458,56.9531 Q767.7426,56.7656 767.6333,56.25 Q767.5864,55.8906 767.3989,55.7031 Q767.0708,55.3281 766.4614,55.1094 Q765.852,54.8906 765.227,54.8906 Q764.4614,54.8906 763.8208,55.2188 Q763.1958,55.5469 762.6958,56.2969 Q762.2114,57.0469 762.2114,58.0781 L762.2114,59.1719 Q762.2114,60.4063 763.102,61.2344 Q763.9926,62.0469 765.5864,62.0469 Q766.5239,62.0469 767.1801,61.7969 Q767.5708,61.6406 767.9926,61.2031 Q768.2583,60.9375 768.3989,60.8594 Q768.5551,60.7813 768.7583,60.7813 Q769.0864,60.7813 769.3364,61.0469 Q769.602,61.2969 769.602,61.6406 Q769.602,61.9844 769.2583,62.3906 Q768.7583,62.9688 767.9614,63.2969 Q766.8833,63.75 765.5864,63.75 Q764.0708,63.75 762.8676,63.125 Q761.8833,62.625 761.1958,61.5625 Q760.5083,60.4844 760.5083,59.2031 L760.5083,58.0469 Q760.5083,56.7188 761.1176,55.5781 Q761.7426,54.4219 762.8364,53.8125 Q763.9301,53.1875 765.1645,53.1875 Q765.8989,53.1875 766.5395,53.3594 Q767.1958,53.5156 767.7426,53.875 Z "/><text fill="#000000" font-family="sans-serif" font-size="12" lengthAdjust="spacingAndGlyphs" textLength="57" x="778.977" y="62.9102">TicTacToe</text><line style="stroke: #A80036; stroke-width: 1.5;" x1="750.977" x2="837.977" y1="74" y2="74"/><line style="stroke: #A80036; stroke-width: 1.5;" x1="750.977" x2="837.977" y1="82" y2="82"/><!--MD5=[8492d26fad2d87e062c7eb36d468d866]
reverse link tictactoe.controllers.implementation.LogicImplementation to tictactoe.distributed.LogicImplementationServer--><path d="M1421.556,258.364 C1403.136,268.026 1381.996,277.477 1361.476,283 C1090.636,355.894 1008.944,278.982 731.477,320 C679.806,327.638 623.663,340.205 575.309,352.404 " fill="none" id="tictactoe.controllers.implementation.LogicImplementation&lt;-tictactoe.distributed.LogicImplementationServer" style="stroke: #A80036; stroke-width: 1.0;"/><polygon fill="none" points="1418.386,252.116,1439.276,248.573,1425.156,264.371,1418.386,252.116" style="stroke: #A80036; stroke-width: 1.0;"/><!--MD5=[ddca5d656e8b1b0b25972b3816a53517]
link tictactoe.distributed.LogicImplementationServer to tictactoe.distributed.dispatchers.DispatcherPrototype--><path d="M327.723,401.497 C268.325,414.433 202.229,440.53 165.477,493 C69.6059,629.875 95.0125,717.472 165.477,869 C174.745,888.931 192.207,905.4656 209.226,917.8917 " fill="none" id="tictactoe.distributed.LogicImplementationServer-&gt;tictactoe.distributed.dispatchers.DispatcherPrototype" style="stroke: #A80036; stroke-width: 1.0; stroke-dasharray: 7.0,7.0;"/><polygon fill="#A80036" points="213.537,920.9619,208.5255,912.4834,209.4639,918.0619,203.8855,919.0003,213.537,920.9619" style="stroke: #A80036; stroke-width: 1.0;"/><!--MD5=[e1559b16d919bb0c8ef4b061281424cd]
link tictactoe.distributed.LogicImplementationServer to tictactoe.distributed.dispatchers.FrameType--><path d="M327.96,425.904 C296.656,441.443 266.755,463.099 248.477,493 C161.319,635.582 135.378,745.977 248.477,869 C262.815,884.597 324.33,867.932 343.477,877 C362.087,885.813 378.235,902.3816 389.781,916.8366 " fill="none" id="tictactoe.distributed.LogicImplementationServer-&gt;tictactoe.distributed.dispatchers.FrameType" style="stroke: #A80036; stroke-width: 1.0; stroke-dasharray: 7.0,7.0;"/><polygon fill="#A80036" points="392.914,920.8494,390.5287,911.2938,389.8372,916.9082,384.2227,916.2167,392.914,920.8494" style="stroke: #A80036; stroke-width: 1.0;"/><!--MD5=[ac57849eaf70bf89df4d9fe514483d08]
reverse link tictactoe.controllers.Logic to tictactoe.distributed.LogicProxy--><path d="M1676.746,246.306 C1645.346,258.679 1603.626,273.722 1565.476,283 C1425.536,317.03 983.742,366.531 840.091,382.115 " fill="none" id="tictactoe.controllers.Logic&lt;-tictactoe.distributed.LogicProxy" style="stroke: #A80036; stroke-width: 1.0;"/><polygon fill="none" points="1674.136,239.812,1695.306,238.836,1679.366,252.799,1674.136,239.812" style="stroke: #A80036; stroke-width: 1.0;"/><!--MD5=[5eb53b82bd19646fe2abe1bedb3d05a4]
link tictactoe.distributed.LogicProxy to utils.TCPIP--><path d="M737.1614,402.804 C737.1614,402.804 640.947,425.465 592.477,436 C467.527,463.158 391.443,394.031 310.477,493 C257.57,557.671 252.879,808.469 310.477,869 C322.824,881.975 454.038,872.917 471.477,877 C509.653,885.939 550.214,903.9736 580.122,919.0821 " fill="none" id="tictactoe.distributed.LogicProxy-utils.TCPIP" style="stroke: #A80036; stroke-width: 1.0;"/><polygon fill="#A80036" points="591.843,925.1288,585.6792,917.4472,587.3997,922.8361,582.0108,924.5565,591.843,925.1288" style="stroke: #A80036; stroke-width: 1.0;"/><line style="stroke: #A80036; stroke-width: 1.0;" x1="587.3997" x2="580.2895" y1="922.8361" y2="919.1686"/><polygon fill="#A80036" points="748.834,400.02,742.0697,397.5211,737.1614,402.804,743.9257,405.3028,748.834,400.02" style="stroke: #A80036; stroke-width: 1.0;"/><!--MD5=[f1b1a99fb31e756c5f6ceec412cc7464]
link tictactoe.distributed.LogicProxy to tictactoe.distributed.SessionProxy--><path d="M737.0384,397.4862 C737.0384,397.4862 573.187,436.42 506.477,493 C471.524,522.646 446.607,568.068 430.646,605.206 " fill="none" id="tictactoe.distributed.LogicProxy-tictactoe.distributed.SessionProxy" style="stroke: #A80036; stroke-width: 1.0;"/><polygon fill="#A80036" points="425.574,617.449,432.7142,610.6653,427.4877,612.8297,425.3233,607.6033,425.574,617.449" style="stroke: #A80036; stroke-width: 1.0;"/><line style="stroke: #A80036; stroke-width: 1.0;" x1="427.4877" x2="430.5495" y1="612.8297" y2="605.4385"/><polygon fill="#A80036" points="748.846,395.346,742.2288,392.4803,737.0384,397.4862,743.6556,400.352,748.846,395.346" style="stroke: #A80036; stroke-width: 1.0;"/><!--MD5=[4ad5bdf18b75ba68c13ac6d7148cb90b]
link tictactoe.distributed.LogicProxy to tictactoe.distributed.ResumeControllerProxy--><path d="M852.013,397.2571 C852.013,397.2571 1030.104,436.582 1107.476,493 C1147.856,522.444 1180.776,568.416 1203.126,605.854 " fill="none" id="tictactoe.distributed.LogicProxy-tictactoe.distributed.ResumeControllerProxy" style="stroke: #A80036; stroke-width: 1.0;"/><polygon fill="#A80036" points="1209.716,617.17,1208.6473,607.3793,1207.2015,612.8483,1201.7325,611.4025,1209.716,617.17" style="stroke: #A80036; stroke-width: 1.0;"/><line style="stroke: #A80036; stroke-width: 1.0;" x1="1207.2015" x2="1203.171" y1="612.8483" y2="605.9365"/><polygon fill="#A80036" points="840.187,395.221,845.4213,400.181,852.013,397.2571,846.7787,392.297,840.187,395.221" style="stroke: #A80036; stroke-width: 1.0;"/><!--MD5=[18a38945b26e937d75a9d166c77cf73f]
link tictactoe.distributed.LogicProxy to tictactoe.distributed.StartControllerProxy--><path d="M761.4813,443.4715 C761.4813,443.4715 692.239,557.784 662.953,606.131 " fill="none" id="tictactoe.distributed.LogicProxy-tictactoe.distributed.StartControllerProxy" style="stroke: #A80036; stroke-width: 1.0;"/><polygon fill="#A80036" points="656.135,617.387,664.2195,611.7619,658.7257,613.1105,657.3771,607.6168,656.135,617.387" style="stroke: #A80036; stroke-width: 1.0;"/><line style="stroke: #A80036; stroke-width: 1.0;" x1="658.7257" x2="662.8705" y1="613.1105" y2="606.2675"/><polygon fill="#A80036" points="767.699,433.208,761.169,436.2672,761.4813,443.4715,768.0113,440.4123,767.699,433.208" style="stroke: #A80036; stroke-width: 1.0;"/><!--MD5=[cf78edf6712ed0281ae7c0552a577c3a]
link tictactoe.distributed.LogicProxy to tictactoe.distributed.PlayControllerProxy--><path d="M820.5241,444.0557 C820.5241,444.0557 832.057,468.429 838.058,481.114 " fill="none" id="tictactoe.distributed.LogicProxy-tictactoe.distributed.PlayControllerProxy" style="stroke: #A80036; stroke-width: 1.0;"/><polygon fill="#A80036" points="843.641,492.916,843.4086,483.0699,841.503,488.3961,836.1768,486.4906,843.641,492.916" style="stroke: #A80036; stroke-width: 1.0;"/><line style="stroke: #A80036; stroke-width: 1.0;" x1="841.503" x2="838.082" y1="488.3961" y2="481.1645"/><polygon fill="#A80036" points="815.393,433.208,814.3427,440.3422,820.5241,444.0557,821.5744,436.9215,815.393,433.208" style="stroke: #A80036; stroke-width: 1.0;"/><!--MD5=[8eb5902b0eaf0704b38e1325364a8a68]
reverse link tictactoe.controllers.PlayController to tictactoe.distributed.PlayControllerProxy--><path d="M1959.276,263.496 C1912.136,312.997 1822.006,397.73 1725.476,436 C1469.476,537.499 1358.916,378.459 1108.476,493 C1102.396,495.78 1096.396,498.85 1090.486,502.166 " fill="none" id="tictactoe.controllers.PlayController&lt;-tictactoe.distributed.PlayControllerProxy" style="stroke: #A80036; stroke-width: 1.0;"/><polygon fill="none" points="1954.266,258.61,1973.026,248.765,1964.496,268.163,1954.266,258.61" style="stroke: #A80036; stroke-width: 1.0;"/><!--MD5=[50587b03ea94c4488a76ea0ca6669284]
link tictactoe.distributed.PlayControllerProxy to utils.TCPIP--><path d="M762.6836,853.1834 C762.6836,853.1834 750.288,864.143 744.477,869 C721.739,888.004 693.819,905.8432 670.739,919.3521 " fill="none" id="tictactoe.distributed.PlayControllerProxy-utils.TCPIP" style="stroke: #A80036; stroke-width: 1.0;"/><polygon fill="#A80036" points="659.164,926.0049,668.9603,924.9887,663.4991,923.5136,664.9742,918.0525,659.164,926.0049" style="stroke: #A80036; stroke-width: 1.0;"/><line style="stroke: #A80036; stroke-width: 1.0;" x1="663.4991" x2="670.435" y1="923.5136" y2="919.5269"/><polygon fill="#A80036" points="771.549,845.096,764.4205,846.1846,762.6836,853.1834,769.8121,852.0948,771.549,845.096" style="stroke: #A80036; stroke-width: 1.0;"/><!--MD5=[6403431be7de952446031b42f62f4378]
link tictactoe.distributed.PlayControllerProxy to tictactoe.distributed.dispatchers.FrameType--><path d="M784.322,845.205 C771.667,854.385 758.359,862.488 744.477,869 C710.439,884.968 612.214,869 575.477,877 C534.747,885.87 491.104,903.6963 458.652,918.7325 " fill="none" id="tictactoe.distributed.PlayControllerProxy-&gt;tictactoe.distributed.dispatchers.FrameType" style="stroke: #A80036; stroke-width: 1.0; stroke-dasharray: 7.0,7.0;"/><polygon fill="#A80036" points="453.947,920.9293,463.7941,920.7455,458.4774,918.8137,460.4092,913.4969,453.947,920.9293" style="stroke: #A80036; stroke-width: 1.0;"/><!--MD5=[967456c02912e355b60fbd7a4a66b84e]
reverse link tictactoe.controllers.ResumeController to tictactoe.distributed.ResumeControllerProxy--><path d="M2115.766,263.388 C2071.446,309.796 1990.486,388.127 1907.476,436 C1723.316,542.214 1482.746,610.529 1345.056,643.859 " fill="none" id="tictactoe.controllers.ResumeController&lt;-tictactoe.distributed.ResumeControllerProxy" style="stroke: #A80036; stroke-width: 1.0;"/><polygon fill="none" points="2110.806,258.452,2129.606,248.685,2120.996,268.047,2110.806,258.452" style="stroke: #A80036; stroke-width: 1.0;"/><!--MD5=[d468a06e58c368ceade7fa6d3b007658]
link tictactoe.distributed.ResumeControllerProxy to utils.TCPIP--><path d="M1212.0959,731.9184 C1212.0959,731.9184 1156.836,836.886 1107.476,869 C1035.986,915.5109 778.608,935.2614 672.113,941.5688 " fill="none" id="tictactoe.distributed.ResumeControllerProxy-utils.TCPIP" style="stroke: #A80036; stroke-width: 1.0;"/><polygon fill="#A80036" points="659.007,942.3219,668.2216,945.799,663.9988,942.0351,667.7627,937.8122,659.007,942.3219" style="stroke: #A80036; stroke-width: 1.0;"/><line style="stroke: #A80036; stroke-width: 1.0;" x1="663.9988" x2="671.985" y1="942.0351" y2="941.576"/><polygon fill="#A80036" points="1216.916,720.929,1210.8428,724.817,1212.0959,731.9184,1218.1691,728.0304,1216.916,720.929" style="stroke: #A80036; stroke-width: 1.0;"/><!--MD5=[c732b874a07f213dc97cb4448785efbb]
link tictactoe.distributed.ResumeControllerProxy to tictactoe.distributed.dispatchers.FrameType--><path d="M1218.686,720.849 C1199.896,768.63 1164.396,837.379 1107.476,869 C1081.636,883.356 604.457,871.177 575.477,877 C534.317,885.27 490.349,903.3216 457.864,918.6055 " fill="none" id="tictactoe.distributed.ResumeControllerProxy-&gt;tictactoe.distributed.dispatchers.FrameType" style="stroke: #A80036; stroke-width: 1.0; stroke-dasharray: 7.0,7.0;"/><polygon fill="#A80036" points="453.157,920.8389,463.0029,920.5957,457.6745,918.696,459.5742,913.3677,453.157,920.8389" style="stroke: #A80036; stroke-width: 1.0;"/><!--MD5=[1bfb9702a01de0e891c3730a2233ec07]
reverse link tictactoe.models.Session to tictactoe.distributed.SessionProxy--><path d="M1392.216,422.477 C1382.426,427.877 1371.916,432.752 1361.476,436 C1179.656,492.57 667.464,391.297 506.477,493 C462.319,520.897 436.263,576.184 422.256,617.185 " fill="none" id="tictactoe.models.Session&lt;-tictactoe.distributed.SessionProxy" style="stroke: #A80036; stroke-width: 1.0;"/><polygon fill="none" points="1388.696,416.43,1409.436,412.089,1395.926,428.416,1388.696,416.43" style="stroke: #A80036; stroke-width: 1.0;"/><!--MD5=[9f0101232deb54f0d14ed3adf2ef648c]
link tictactoe.distributed.SessionProxy to utils.TCPIP--><path d="M428.8174,731.974 C428.8174,731.974 471.022,829.621 506.477,869 C526.956,891.745 555.903,910.1947 580.12,923.1038 " fill="none" id="tictactoe.distributed.SessionProxy-utils.TCPIP" style="stroke: #A80036; stroke-width: 1.0;"/><polygon fill="#A80036" points="591.926,929.1663,585.7472,921.4968,587.4782,926.8823,582.0927,928.6133,591.926,929.1663" style="stroke: #A80036; stroke-width: 1.0;"/><line style="stroke: #A80036; stroke-width: 1.0;" x1="587.4782" x2="580.3615" y1="926.8823" y2="923.2277"/><polygon fill="#A80036" points="424.62,720.732,422.9714,727.7521,428.8174,731.974,430.466,724.9538,424.62,720.732" style="stroke: #A80036; stroke-width: 1.0;"/><!--MD5=[61b1700a719da9edb70e4242fee337e7]
link tictactoe.distributed.SessionProxy to tictactoe.distributed.dispatchers.FrameType--><path d="M408.477,720.575 C408.477,778.047 408.477,869.817 408.477,915.8027 " fill="none" id="tictactoe.distributed.SessionProxy-&gt;tictactoe.distributed.dispatchers.FrameType" style="stroke: #A80036; stroke-width: 1.0; stroke-dasharray: 7.0,7.0;"/><polygon fill="#A80036" points="408.477,920.9109,412.477,911.9109,408.477,915.9109,404.477,911.9109,408.477,920.9109" style="stroke: #A80036; stroke-width: 1.0;"/><!--MD5=[779dca9be042fa644f6a71966827c8a6]
reverse link tictactoe.controllers.StartController to tictactoe.distributed.StartControllerProxy--><path d="M1805.366,261.377 C1795.756,268.833 1785.446,276.418 1775.476,283 C1657.136,361.147 1631.446,395.731 1495.476,436 C1334.996,483.527 889.332,409.158 744.477,493 C696.62,520.7 663.904,576.313 645.067,617.447 " fill="none" id="tictactoe.controllers.StartController&lt;-tictactoe.distributed.StartControllerProxy" style="stroke: #A80036; stroke-width: 1.0;"/><polygon fill="none" points="1801.216,255.74,1821.216,248.747,1809.936,266.687,1801.216,255.74" style="stroke: #A80036; stroke-width: 1.0;"/><!--MD5=[37d6c00cb215c456ab4b34dfd0ecfc39]
link tictactoe.distributed.StartControllerProxy to utils.TCPIP--><path d="M625.477,732.575 C625.477,732.575 625.477,863.404 625.477,907.6987 " fill="none" id="tictactoe.distributed.StartControllerProxy-utils.TCPIP" style="stroke: #A80036; stroke-width: 1.0;"/><polygon fill="#A80036" points="625.477,920.9109,629.477,911.9109,625.477,915.9109,621.477,911.9109,625.477,920.9109" style="stroke: #A80036; stroke-width: 1.0;"/><line style="stroke: #A80036; stroke-width: 1.0;" x1="625.477" x2="625.477" y1="915.9109" y2="907.911"/><polygon fill="#A80036" points="625.477,720.575,621.477,726.575,625.477,732.575,629.477,726.575,625.477,720.575" style="stroke: #A80036; stroke-width: 1.0;"/><!--MD5=[b5b86e59c2a07fc2d0ab6bac9119ccbf]
link tictactoe.distributed.StartControllerProxy to tictactoe.distributed.dispatchers.FrameType--><path d="M601.836,720.921 C580.613,763.359 546.665,823.935 506.477,869 C489.906,887.582 468.185,904.7488 449.404,917.9559 " fill="none" id="tictactoe.distributed.StartControllerProxy-&gt;tictactoe.distributed.dispatchers.FrameType" style="stroke: #A80036; stroke-width: 1.0; stroke-dasharray: 7.0,7.0;"/><polygon fill="#A80036" points="445.197,920.8834,454.8692,919.0264,449.3012,918.0276,450.3,912.4596,445.197,920.8834" style="stroke: #A80036; stroke-width: 1.0;"/><!--MD5=[2174d0cc54ae1814438ab3c9cb4f3765]
reverse link tictactoe.TicTacToe to tictactoe.distributed.TicTacToeClient--><path d="M794.477,110.318 C794.477,127.479 794.477,147.46 794.477,165.816 " fill="none" id="tictactoe.TicTacToe&lt;-tictactoe.distributed.TicTacToeClient" style="stroke: #A80036; stroke-width: 1.0;"/><polygon fill="none" points="787.477,110.092,794.477,90.092,801.477,110.092,787.477,110.092" style="stroke: #A80036; stroke-width: 1.0;"/><!--MD5=[8f2c08e9d570d0a8e0d41648a750fb0b]
link tictactoe.distributed.TicTacToeClient to tictactoe.distributed.LogicProxy--><path d="M794.477,295.349 C794.477,295.349 794.477,318.97 794.477,329.737 " fill="none" id="tictactoe.distributed.TicTacToeClient-tictactoe.distributed.LogicProxy" style="stroke: #A80036; stroke-width: 1.0;"/><polygon fill="#A80036" points="794.477,342.984,798.477,333.984,794.477,337.984,790.477,333.984,794.477,342.984" style="stroke: #A80036; stroke-width: 1.0;"/><line style="stroke: #A80036; stroke-width: 1.0;" x1="794.477" x2="794.477" y1="337.984" y2="329.984"/><polygon fill="#A80036" points="794.477,283.349,790.477,289.349,794.477,295.349,798.477,289.349,794.477,283.349" style="stroke: #A80036; stroke-width: 1.0;"/><!--MD5=[164623042d3c8b7d1e2f43292402fefb]
link tictactoe.distributed.TicTacToeServer to tictactoe.distributed.dispatchers.DispatcherPrototype--><path d="M322.2352,281.9453 C322.2352,281.9453 141.211,397.499 95.4771,493 C23.2996,643.72 6,727.862 95.4771,869 C112.4217,895.728 141.724,913.1082 170.594,924.3285 " fill="none" id="tictactoe.distributed.TicTacToeServer-tictactoe.distributed.dispatchers.DispatcherPrototype" style="stroke: #A80036; stroke-width: 1.0;"/><polygon fill="#A80036" points="182.903,928.7693,175.7944,921.9525,178.1997,927.0726,173.0797,929.4778,182.903,928.7693" style="stroke: #A80036; stroke-width: 1.0;"/><line style="stroke: #A80036; stroke-width: 1.0;" x1="178.1997" x2="170.674" y1="927.0726" y2="924.3575"/><polygon fill="#A80036" points="332.797,276.249,325.6173,275.5765,322.2352,281.9453,329.4148,282.6178,332.797,276.249" style="stroke: #A80036; stroke-width: 1.0;"/><!--MD5=[13a60f28c4503026d1169de297b7811a]
link tictactoe.distributed.TicTacToeServer to tictactoe.distributed.LogicImplementationServer--><path d="M448.6399,295.3432 C448.6399,295.3432 449.521,323.803 449.913,336.469 " fill="none" id="tictactoe.distributed.TicTacToeServer-tictactoe.distributed.LogicImplementationServer" style="stroke: #A80036; stroke-width: 1.0;"/><polygon fill="#A80036" points="450.322,349.686,454.0412,340.5664,450.167,344.6884,446.045,340.8143,450.322,349.686" style="stroke: #A80036; stroke-width: 1.0;"/><line style="stroke: #A80036; stroke-width: 1.0;" x1="450.167" x2="449.9195" y1="344.6884" y2="336.692"/><polygon fill="#A80036" points="448.268,283.349,444.4559,289.4701,448.6399,295.3432,452.452,289.2222,448.268,283.349" style="stroke: #A80036; stroke-width: 1.0;"/><!--MD5=[98bc7772f864f8bc2788f236745aa002]
@startuml

class  tictactoe.distributed.LogicImplementationServer{
+ LogicImplementationServer()
+ createDispatchers(DispatcherPrototype): void
}
tictactoe.controllers.implementation.LogicImplementation <|-down- tictactoe.distributed.LogicImplementationServer
tictactoe.distributed.LogicImplementationServer ..> tictactoe.distributed.dispatchers.DispatcherPrototype
tictactoe.distributed.LogicImplementationServer ..> tictactoe.distributed.dispatchers.FrameType

class  tictactoe.distributed.LogicProxy{
- tcpip: TCPIP
+ LogicProxy()
+ close(): void
}
tictactoe.controllers.Logic <|-down- tictactoe.distributed.LogicProxy
tictactoe.distributed.LogicProxy *-down-> utils.TCPIP
tictactoe.distributed.LogicProxy *-down-> tictactoe.distributed.SessionProxy
tictactoe.distributed.LogicProxy *-down-> tictactoe.distributed.ResumeControllerProxy
tictactoe.distributed.LogicProxy *-down-> tictactoe.distributed.StartControllerProxy
tictactoe.distributed.LogicProxy *-down-> tictactoe.distributed.PlayControllerProxy

class  tictactoe.distributed.PlayControllerProxy{
- tcpip: TCPIP
+ PlayControllerProxy(TCPIP, Session)
+ undo(): void
+ redo(): void
+ undoable(): boolean
+ redoable(): boolean
+ getTypeOfTokenPlayerFromTurn(): PlayerType
+ getErrorsPutCoordinate(Coordinate): Error
+ getErrorsMoveOriginCoordinate(Coordinate): Error
+ getErrorsMoveTargetCoordinate(Coordinate, Coordinate): Error
+ isCoordinateValid(Coordinate): boolean
+ generateRandomCoordinate(): Coordinate
+ isBoardComplete(): boolean
+ putTokenPlayerFromTurn(Coordinate): void
+ moveTokenPlayerFromTurn(Coordinate, Coordinate): void
+ changeTurn(): void
+ getTokenChar(Coordinate): char
+ isEmptyToken(Coordinate): boolean
+ getValueFromTurn(): int
+ continueState(): void
+ getCoordinateDimension(): int
+ isTicTacToe(): boolean
}
tictactoe.controllers.PlayController <|-down- tictactoe.distributed.PlayControllerProxy
tictactoe.distributed.PlayControllerProxy *-down-> utils.TCPIP
tictactoe.distributed.PlayControllerProxy ..> tictactoe.distributed.dispatchers.FrameType

class  tictactoe.distributed.ResumeControllerProxy{
- tcpip: TCPIP
+ ResumeControllerProxy(TCPIP, Session)
+ finish(): void
+ getOtherValueFromTurn(): int
}
tictactoe.controllers.ResumeController <|-down- tictactoe.distributed.ResumeControllerProxy
tictactoe.distributed.ResumeControllerProxy *-down-> utils.TCPIP
tictactoe.distributed.ResumeControllerProxy ..> tictactoe.distributed.dispatchers.FrameType

class  tictactoe.distributed.SessionProxy{
- tcpip: TCPIP
+ SessionProxy(TCPIP)
+ getValueState(): StateValue
+ getWidth(): int
}
tictactoe.models.Session <|-down- tictactoe.distributed.SessionProxy
tictactoe.distributed.SessionProxy *-down-> utils.TCPIP
tictactoe.distributed.SessionProxy..> tictactoe.distributed.dispatchers.FrameType

class  tictactoe.distributed.StartControllerProxy{
- tcpip: TCPIP
+ StartControllerProxy(TCPIP, Session)
+ start(): void
+ createPlayers(int): void
}
tictactoe.controllers.StartController <|-down- tictactoe.distributed.StartControllerProxy
tictactoe.distributed.StartControllerProxy *-down-> utils.TCPIP
tictactoe.distributed.StartControllerProxy ..> tictactoe.distributed.dispatchers.FrameType

class  tictactoe.distributed.TicTacToeClient{
- logicProxy: LogicProxy
+ TicTacToeClient()
+ {static} main(String[]): void
# createLogic(): Logic
# play(): void
}
tictactoe.TicTacToe <|-down- tictactoe.distributed.TicTacToeClient
tictactoe.distributed.TicTacToeClient *-down-> tictactoe.distributed.LogicProxy

class  tictactoe.distributed.TicTacToeServer{
- dispatcherPrototype: DispatcherPrototype
- logic: LogicServer
- TicTacToeServer()
+ {static} main(String[]): void
- serve(): void
}
tictactoe.distributed.TicTacToeServer *-down-> tictactoe.distributed.dispatchers.DispatcherPrototype
tictactoe.distributed.TicTacToeServer *-down-> tictactoe.distributed.LogicImplementationServer

@enduml

PlantUML version 1.2020.15(Sun Jun 28 13:39:45 CEST 2020)
(GPL source distribution)
Java Runtime: Java(TM) SE Runtime Environment
JVM: Java HotSpot(TM) 64-Bit Server VM
Default Encoding: windows-1252
Language: es
Country: ES
--></g></svg>