<?xml version="1.0" encoding="UTF-8" standalone="no"?><svg xmlns="http://www.w3.org/2000/svg" xmlns:xlink="http://www.w3.org/1999/xlink" contentScriptType="application/ecmascript" contentStyleType="text/css" height="1011px" preserveAspectRatio="none" style="width:2657px;height:1011px;" version="1.1" viewBox="0 0 2657 1011" width="2657px" zoomAndPan="magnify"><defs><filter height="300%" id="f7c4pevg2v919" width="300%" x="-1" y="-1"><feGaussianBlur result="blurOut" stdDeviation="2.0"/><feColorMatrix in="blurOut" result="blurOut2" type="matrix" values="0 0 0 0 0 0 0 0 0 0 0 0 0 0 0 0 0 0 .4 0"/><feOffset dx="4.0" dy="4.0" in="blurOut2" result="blurOut3"/><feBlend in="SourceGraphic" in2="blurOut3" mode="normal"/></filter></defs><g><!--MD5=[bcf2d0b3d12304fef0d13c0c68faae06]
cluster tictactoe.distributed--><polygon fill="#FFFFFF" filter="url(#f7c4pevg2v919)" points="331.7571,130,479.7571,130,486.7571,153.6094,1615.7591,153.6094,1615.7591,875,331.7571,875,331.7571,130" style="stroke: #000000; stroke-width: 1.5;"/><line style="stroke: #000000; stroke-width: 1.5;" x1="331.7571" x2="486.7571" y1="153.6094" y2="153.6094"/><text fill="#000000" font-family="sans-serif" font-size="14" font-weight="bold" lengthAdjust="spacingAndGlyphs" textLength="142" x="335.7571" y="146.5332">tictactoe.distributed</text><!--MD5=[e6fee0bfb21fcf33ee1c5981f69ba248]
cluster tictactoe.controllers.implementation--><polygon fill="#FFFFFF" filter="url(#f7c4pevg2v919)" points="1639.7591,164.5,1899.7591,164.5,1906.7591,188.1094,1909.7591,188.1094,1909.7591,264.5,1639.7591,264.5,1639.7591,164.5" style="stroke: #000000; stroke-width: 1.5;"/><line style="stroke: #000000; stroke-width: 1.5;" x1="1639.7591" x2="1906.7591" y1="188.1094" y2="188.1094"/><text fill="#000000" font-family="sans-serif" font-size="14" font-weight="bold" lengthAdjust="spacingAndGlyphs" textLength="254" x="1643.7591" y="181.0332">tictactoe.controllers.implementation</text><!--MD5=[224c42d171c8f8732ace39597cf483b4]
cluster tictactoe.distributed.dispatchers--><polygon fill="#FFFFFF" filter="url(#f7c4pevg2v919)" points="207.7571,899,442.7571,899,449.7571,922.6094,512.7571,922.6094,512.7571,999,207.7571,999,207.7571,899" style="stroke: #000000; stroke-width: 1.5;"/><line style="stroke: #000000; stroke-width: 1.5;" x1="207.7571" x2="449.7571" y1="922.6094" y2="922.6094"/><text fill="#000000" font-family="sans-serif" font-size="14" font-weight="bold" lengthAdjust="spacingAndGlyphs" textLength="229" x="211.7571" y="915.5332">tictactoe.distributed.dispatchers</text><!--MD5=[ee7e9a007a7c4d40c0679a27f272732d]
cluster tictactoe.controllers--><polygon fill="#FFFFFF" filter="url(#f7c4pevg2v919)" points="1933.7591,164.5,2081.7591,164.5,2088.7591,188.1094,2635.7591,188.1094,2635.7591,264.5,1933.7591,264.5,1933.7591,164.5" style="stroke: #000000; stroke-width: 1.5;"/><line style="stroke: #000000; stroke-width: 1.5;" x1="1933.7591" x2="2088.7591" y1="188.1094" y2="188.1094"/><text fill="#000000" font-family="sans-serif" font-size="14" font-weight="bold" lengthAdjust="spacingAndGlyphs" textLength="142" x="1937.7591" y="181.0332">tictactoe.controllers</text><!--MD5=[c52f45833d539af9e29a9d34b8b7302b]
cluster utils--><polygon fill="#FFFFFF" filter="url(#f7c4pevg2v919)" points="754.7571,899,790.7571,899,797.7571,922.6094,854.7571,922.6094,854.7571,999,754.7571,999,754.7571,899" style="stroke: #000000; stroke-width: 1.5;"/><line style="stroke: #000000; stroke-width: 1.5;" x1="754.7571" x2="797.7571" y1="922.6094" y2="922.6094"/><text fill="#000000" font-family="sans-serif" font-size="14" font-weight="bold" lengthAdjust="spacingAndGlyphs" textLength="30" x="758.7571" y="915.5332">utils</text><!--MD5=[51cd642fcc96b47682a93d9084d46dec]
cluster tictactoe.models--><polygon fill="#FFFFFF" filter="url(#f7c4pevg2v919)" points="1639.7591,328,1761.7591,328,1768.7591,351.6094,1771.7591,351.6094,1771.7591,428,1639.7591,428,1639.7591,328" style="stroke: #000000; stroke-width: 1.5;"/><line style="stroke: #000000; stroke-width: 1.5;" x1="1639.7591" x2="1768.7591" y1="351.6094" y2="351.6094"/><text fill="#000000" font-family="sans-serif" font-size="14" font-weight="bold" lengthAdjust="spacingAndGlyphs" textLength="116" x="1643.7591" y="344.5332">tictactoe.models</text><!--MD5=[807bc46d8103c809ff053af9e140e1f5]
cluster tictactoe--><polygon fill="#FFFFFF" filter="url(#f7c4pevg2v919)" points="1184.7591,6,1251.7591,6,1258.7591,29.6094,1306.7591,29.6094,1306.7591,106,1184.7591,106,1184.7591,6" style="stroke: #000000; stroke-width: 1.5;"/><line style="stroke: #000000; stroke-width: 1.5;" x1="1184.7591" x2="1258.7591" y1="29.6094" y2="29.6094"/><text fill="#000000" font-family="sans-serif" font-size="14" font-weight="bold" lengthAdjust="spacingAndGlyphs" textLength="61" x="1188.7591" y="22.5332">tictactoe</text><!--MD5=[ee64cad9e60c97c58e2507b5e8951613]
class tictactoe.distributed.LogicImplementationServer--><rect fill="#FEFECE" filter="url(#f7c4pevg2v919)" height="75.6719" id="tictactoe.distributed.LogicImplementationServer" style="stroke: #A80036; stroke-width: 1.5;" width="295" x="870.2571" y="350"/><ellipse cx="938.0071" cy="366" fill="#ADD1B2" rx="11" ry="11" style="stroke: #A80036; stroke-width: 1.0;"/><path d="M940.7727,361.875 Q940.929,361.6563 941.1165,361.5469 Q941.304,361.4375 941.5227,361.4375 Q941.8977,361.4375 942.1321,361.7031 Q942.3665,361.9531 942.3665,362.5625 L942.3665,364.0156 Q942.3665,364.625 942.1321,364.8906 Q941.8977,365.1563 941.5227,365.1563 Q941.179,365.1563 940.9758,364.9531 Q940.7727,364.7656 940.6633,364.25 Q940.6165,363.8906 940.429,363.7031 Q940.1008,363.3281 939.4915,363.1094 Q938.8821,362.8906 938.2571,362.8906 Q937.4915,362.8906 936.8508,363.2188 Q936.2258,363.5469 935.7258,364.2969 Q935.2415,365.0469 935.2415,366.0781 L935.2415,367.1719 Q935.2415,368.4063 936.1321,369.2344 Q937.0227,370.0469 938.6165,370.0469 Q939.554,370.0469 940.2102,369.7969 Q940.6008,369.6406 941.0227,369.2031 Q941.2883,368.9375 941.429,368.8594 Q941.5852,368.7813 941.7883,368.7813 Q942.1165,368.7813 942.3665,369.0469 Q942.6321,369.2969 942.6321,369.6406 Q942.6321,369.9844 942.2883,370.3906 Q941.7883,370.9688 940.9915,371.2969 Q939.9133,371.75 938.6165,371.75 Q937.1008,371.75 935.8977,371.125 Q934.9133,370.625 934.2258,369.5625 Q933.5383,368.4844 933.5383,367.2031 L933.5383,366.0469 Q933.5383,364.7188 934.1477,363.5781 Q934.7727,362.4219 935.8665,361.8125 Q936.9602,361.1875 938.1946,361.1875 Q938.929,361.1875 939.5696,361.3594 Q940.2258,361.5156 940.7727,361.875 Z "/><text fill="#000000" font-family="sans-serif" font-size="12" lengthAdjust="spacingAndGlyphs" textLength="151" x="958.5071" y="370.9102">LogicImplementationServer</text><line style="stroke: #A80036; stroke-width: 1.5;" x1="871.2571" x2="1164.2571" y1="382" y2="382"/><line style="stroke: #A80036; stroke-width: 1.5;" x1="871.2571" x2="1164.2571" y1="390" y2="390"/><ellipse cx="881.2571" cy="401" fill="#84BE84" rx="3" ry="3" style="stroke: #038048; stroke-width: 1.0;"/><text fill="#000000" font-family="sans-serif" font-size="11" lengthAdjust="spacingAndGlyphs" textLength="269" x="890.2571" y="405.4189">LogicImplementationServer(SessionImplementationDAO)</text><ellipse cx="881.2571" cy="414.8359" fill="#84BE84" rx="3" ry="3" style="stroke: #038048; stroke-width: 1.0;"/><text fill="#000000" font-family="sans-serif" font-size="11" lengthAdjust="spacingAndGlyphs" textLength="221" x="890.2571" y="419.2549">createDispatchers(DispatcherPrototype): void</text><!--MD5=[46db589fb040b8777b13689068a144db]
class tictactoe.distributed.LogicProxy--><rect fill="#FEFECE" filter="url(#f7c4pevg2v919)" height="89.5078" id="tictactoe.distributed.LogicProxy" style="stroke: #A80036; stroke-width: 1.5;" width="91" x="1200.2591" y="343"/><ellipse cx="1215.2591" cy="359" fill="#ADD1B2" rx="11" ry="11" style="stroke: #A80036; stroke-width: 1.0;"/><path d="M1218.0247,354.875 Q1218.181,354.6563 1218.3685,354.5469 Q1218.556,354.4375 1218.7747,354.4375 Q1219.1497,354.4375 1219.3841,354.7031 Q1219.6185,354.9531 1219.6185,355.5625 L1219.6185,357.0156 Q1219.6185,357.625 1219.3841,357.8906 Q1219.1497,358.1563 1218.7747,358.1563 Q1218.431,358.1563 1218.2279,357.9531 Q1218.0247,357.7656 1217.9154,357.25 Q1217.8685,356.8906 1217.681,356.7031 Q1217.3529,356.3281 1216.7435,356.1094 Q1216.1341,355.8906 1215.5091,355.8906 Q1214.7435,355.8906 1214.1029,356.2188 Q1213.4779,356.5469 1212.9779,357.2969 Q1212.4935,358.0469 1212.4935,359.0781 L1212.4935,360.1719 Q1212.4935,361.4063 1213.3841,362.2344 Q1214.2747,363.0469 1215.8685,363.0469 Q1216.806,363.0469 1217.4622,362.7969 Q1217.8529,362.6406 1218.2747,362.2031 Q1218.5404,361.9375 1218.681,361.8594 Q1218.8372,361.7813 1219.0404,361.7813 Q1219.3685,361.7813 1219.6185,362.0469 Q1219.8841,362.2969 1219.8841,362.6406 Q1219.8841,362.9844 1219.5404,363.3906 Q1219.0404,363.9688 1218.2435,364.2969 Q1217.1654,364.75 1215.8685,364.75 Q1214.3529,364.75 1213.1497,364.125 Q1212.1654,363.625 1211.4779,362.5625 Q1210.7904,361.4844 1210.7904,360.2031 L1210.7904,359.0469 Q1210.7904,357.7188 1211.3997,356.5781 Q1212.0247,355.4219 1213.1185,354.8125 Q1214.2122,354.1875 1215.4466,354.1875 Q1216.181,354.1875 1216.8216,354.3594 Q1217.4779,354.5156 1218.0247,354.875 Z "/><text fill="#000000" font-family="sans-serif" font-size="12" lengthAdjust="spacingAndGlyphs" textLength="59" x="1229.2591" y="363.9102">LogicProxy</text><line style="stroke: #A80036; stroke-width: 1.5;" x1="1201.2591" x2="1290.2591" y1="375" y2="375"/><rect fill="none" height="6" style="stroke: #C82930; stroke-width: 1.0;" width="6" x="1208.2591" y="383"/><text fill="#000000" font-family="sans-serif" font-size="11" lengthAdjust="spacingAndGlyphs" textLength="56" x="1220.2591" y="390.4189">tcpip: TCPIP</text><line style="stroke: #A80036; stroke-width: 1.5;" x1="1201.2591" x2="1290.2591" y1="396.8359" y2="396.8359"/><ellipse cx="1211.2591" cy="407.8359" fill="#84BE84" rx="3" ry="3" style="stroke: #038048; stroke-width: 1.0;"/><text fill="#000000" font-family="sans-serif" font-size="11" lengthAdjust="spacingAndGlyphs" textLength="62" x="1220.2591" y="412.2549">LogicProxy()</text><ellipse cx="1211.2591" cy="421.6719" fill="#84BE84" rx="3" ry="3" style="stroke: #038048; stroke-width: 1.0;"/><text fill="#000000" font-family="sans-serif" font-size="11" lengthAdjust="spacingAndGlyphs" textLength="60" x="1220.2591" y="426.0908">close(): void</text><!--MD5=[8ae3796e67c022c150040b77b6f1c8fc]
class tictactoe.distributed.SessionProxy--><rect fill="#FEFECE" filter="url(#f7c4pevg2v919)" height="103.3438" id="tictactoe.distributed.SessionProxy" style="stroke: #A80036; stroke-width: 1.5;" width="161" x="586.2571" y="624.5"/><ellipse cx="625.5571" cy="640.5" fill="#ADD1B2" rx="11" ry="11" style="stroke: #A80036; stroke-width: 1.0;"/><path d="M628.3227,636.375 Q628.479,636.1563 628.6665,636.0469 Q628.854,635.9375 629.0727,635.9375 Q629.4477,635.9375 629.6821,636.2031 Q629.9165,636.4531 629.9165,637.0625 L629.9165,638.5156 Q629.9165,639.125 629.6821,639.3906 Q629.4477,639.6563 629.0727,639.6563 Q628.729,639.6563 628.5258,639.4531 Q628.3227,639.2656 628.2133,638.75 Q628.1665,638.3906 627.979,638.2031 Q627.6508,637.8281 627.0415,637.6094 Q626.4321,637.3906 625.8071,637.3906 Q625.0415,637.3906 624.4008,637.7188 Q623.7758,638.0469 623.2758,638.7969 Q622.7915,639.5469 622.7915,640.5781 L622.7915,641.6719 Q622.7915,642.9063 623.6821,643.7344 Q624.5727,644.5469 626.1665,644.5469 Q627.104,644.5469 627.7602,644.2969 Q628.1508,644.1406 628.5727,643.7031 Q628.8383,643.4375 628.979,643.3594 Q629.1352,643.2813 629.3383,643.2813 Q629.6665,643.2813 629.9165,643.5469 Q630.1821,643.7969 630.1821,644.1406 Q630.1821,644.4844 629.8383,644.8906 Q629.3383,645.4688 628.5415,645.7969 Q627.4633,646.25 626.1665,646.25 Q624.6508,646.25 623.4477,645.625 Q622.4633,645.125 621.7758,644.0625 Q621.0883,642.9844 621.0883,641.7031 L621.0883,640.5469 Q621.0883,639.2188 621.6977,638.0781 Q622.3227,636.9219 623.4165,636.3125 Q624.5102,635.6875 625.7446,635.6875 Q626.479,635.6875 627.1196,635.8594 Q627.7758,636.0156 628.3227,636.375 Z "/><text fill="#000000" font-family="sans-serif" font-size="12" lengthAdjust="spacingAndGlyphs" textLength="75" x="644.9571" y="645.4102">SessionProxy</text><line style="stroke: #A80036; stroke-width: 1.5;" x1="587.2571" x2="746.2571" y1="656.5" y2="656.5"/><rect fill="none" height="6" style="stroke: #C82930; stroke-width: 1.0;" width="6" x="594.2571" y="664.5"/><text fill="#000000" font-family="sans-serif" font-size="11" lengthAdjust="spacingAndGlyphs" textLength="56" x="606.2571" y="671.9189">tcpip: TCPIP</text><line style="stroke: #A80036; stroke-width: 1.5;" x1="587.2571" x2="746.2571" y1="678.3359" y2="678.3359"/><ellipse cx="597.2571" cy="689.3359" fill="#84BE84" rx="3" ry="3" style="stroke: #038048; stroke-width: 1.0;"/><text fill="#000000" font-family="sans-serif" font-size="11" lengthAdjust="spacingAndGlyphs" textLength="102" x="606.2571" y="693.7549">SessionProxy(TCPIP)</text><ellipse cx="597.2571" cy="703.1719" fill="#84BE84" rx="3" ry="3" style="stroke: #038048; stroke-width: 1.0;"/><text fill="#000000" font-family="sans-serif" font-size="11" lengthAdjust="spacingAndGlyphs" textLength="135" x="606.2571" y="707.5908">getValueState(): StateValue</text><ellipse cx="597.2571" cy="717.0078" fill="#84BE84" rx="3" ry="3" style="stroke: #038048; stroke-width: 1.0;"/><text fill="#000000" font-family="sans-serif" font-size="11" lengthAdjust="spacingAndGlyphs" textLength="67" x="606.2571" y="721.4268">getWidth(): int</text><!--MD5=[d29205834c3a61e3282a3f89120c7384]
class tictactoe.distributed.ResumeControllerProxy--><rect fill="#FEFECE" filter="url(#f7c4pevg2v919)" height="89.5078" id="tictactoe.distributed.ResumeControllerProxy" style="stroke: #A80036; stroke-width: 1.5;" width="219" x="1140.2591" y="631"/><ellipse cx="1180.4591" cy="647" fill="#ADD1B2" rx="11" ry="11" style="stroke: #A80036; stroke-width: 1.0;"/><path d="M1183.2247,642.875 Q1183.381,642.6563 1183.5685,642.5469 Q1183.756,642.4375 1183.9747,642.4375 Q1184.3497,642.4375 1184.5841,642.7031 Q1184.8185,642.9531 1184.8185,643.5625 L1184.8185,645.0156 Q1184.8185,645.625 1184.5841,645.8906 Q1184.3497,646.1563 1183.9747,646.1563 Q1183.631,646.1563 1183.4279,645.9531 Q1183.2247,645.7656 1183.1154,645.25 Q1183.0685,644.8906 1182.881,644.7031 Q1182.5529,644.3281 1181.9435,644.1094 Q1181.3341,643.8906 1180.7091,643.8906 Q1179.9435,643.8906 1179.3029,644.2188 Q1178.6779,644.5469 1178.1779,645.2969 Q1177.6935,646.0469 1177.6935,647.0781 L1177.6935,648.1719 Q1177.6935,649.4063 1178.5841,650.2344 Q1179.4747,651.0469 1181.0685,651.0469 Q1182.006,651.0469 1182.6622,650.7969 Q1183.0529,650.6406 1183.4747,650.2031 Q1183.7404,649.9375 1183.881,649.8594 Q1184.0372,649.7813 1184.2404,649.7813 Q1184.5685,649.7813 1184.8185,650.0469 Q1185.0841,650.2969 1185.0841,650.6406 Q1185.0841,650.9844 1184.7404,651.3906 Q1184.2404,651.9688 1183.4435,652.2969 Q1182.3654,652.75 1181.0685,652.75 Q1179.5529,652.75 1178.3497,652.125 Q1177.3654,651.625 1176.6779,650.5625 Q1175.9904,649.4844 1175.9904,648.2031 L1175.9904,647.0469 Q1175.9904,645.7188 1176.5997,644.5781 Q1177.2247,643.4219 1178.3185,642.8125 Q1179.4122,642.1875 1180.6466,642.1875 Q1181.381,642.1875 1182.0216,642.3594 Q1182.6779,642.5156 1183.2247,642.875 Z "/><text fill="#000000" font-family="sans-serif" font-size="12" lengthAdjust="spacingAndGlyphs" textLength="131" x="1200.0591" y="651.9102">ResumeControllerProxy</text><line style="stroke: #A80036; stroke-width: 1.5;" x1="1141.2591" x2="1358.2591" y1="663" y2="663"/><rect fill="none" height="6" style="stroke: #C82930; stroke-width: 1.0;" width="6" x="1148.2591" y="671"/><text fill="#000000" font-family="sans-serif" font-size="11" lengthAdjust="spacingAndGlyphs" textLength="56" x="1160.2591" y="678.4189">tcpip: TCPIP</text><line style="stroke: #A80036; stroke-width: 1.5;" x1="1141.2591" x2="1358.2591" y1="684.8359" y2="684.8359"/><ellipse cx="1151.2591" cy="695.8359" fill="#84BE84" rx="3" ry="3" style="stroke: #038048; stroke-width: 1.0;"/><text fill="#000000" font-family="sans-serif" font-size="11" lengthAdjust="spacingAndGlyphs" textLength="193" x="1160.2591" y="700.2549">ResumeControllerProxy(Session, TCPIP)</text><ellipse cx="1151.2591" cy="709.6719" fill="#84BE84" rx="3" ry="3" style="stroke: #038048; stroke-width: 1.0;"/><text fill="#000000" font-family="sans-serif" font-size="11" lengthAdjust="spacingAndGlyphs" textLength="70" x="1160.2591" y="714.0908">resume(): void</text><!--MD5=[32643bbab8d0e578b12bbe8803f18baf]
class tictactoe.distributed.StartControllerProxy--><rect fill="#FEFECE" filter="url(#f7c4pevg2v919)" height="131.0156" id="tictactoe.distributed.StartControllerProxy" style="stroke: #A80036; stroke-width: 1.5;" width="203" x="348.2571" y="610.5"/><ellipse cx="391.6071" cy="626.5" fill="#ADD1B2" rx="11" ry="11" style="stroke: #A80036; stroke-width: 1.0;"/><path d="M394.3727,622.375 Q394.529,622.1563 394.7165,622.0469 Q394.904,621.9375 395.1227,621.9375 Q395.4977,621.9375 395.7321,622.2031 Q395.9665,622.4531 395.9665,623.0625 L395.9665,624.5156 Q395.9665,625.125 395.7321,625.3906 Q395.4977,625.6563 395.1227,625.6563 Q394.779,625.6563 394.5759,625.4531 Q394.3727,625.2656 394.2634,624.75 Q394.2165,624.3906 394.029,624.2031 Q393.7009,623.8281 393.0915,623.6094 Q392.4821,623.3906 391.8571,623.3906 Q391.0915,623.3906 390.4509,623.7188 Q389.8259,624.0469 389.3259,624.7969 Q388.8415,625.5469 388.8415,626.5781 L388.8415,627.6719 Q388.8415,628.9063 389.7321,629.7344 Q390.6227,630.5469 392.2165,630.5469 Q393.154,630.5469 393.8102,630.2969 Q394.2009,630.1406 394.6227,629.7031 Q394.8884,629.4375 395.029,629.3594 Q395.1852,629.2813 395.3884,629.2813 Q395.7165,629.2813 395.9665,629.5469 Q396.2321,629.7969 396.2321,630.1406 Q396.2321,630.4844 395.8884,630.8906 Q395.3884,631.4688 394.5915,631.7969 Q393.5134,632.25 392.2165,632.25 Q390.7009,632.25 389.4977,631.625 Q388.5134,631.125 387.8259,630.0625 Q387.1384,628.9844 387.1384,627.7031 L387.1384,626.5469 Q387.1384,625.2188 387.7477,624.0781 Q388.3727,622.9219 389.4665,622.3125 Q390.5602,621.6875 391.7946,621.6875 Q392.529,621.6875 393.1696,621.8594 Q393.8259,622.0156 394.3727,622.375 Z "/><text fill="#000000" font-family="sans-serif" font-size="12" lengthAdjust="spacingAndGlyphs" textLength="108" x="411.9071" y="631.4102">StartControllerProxy</text><line style="stroke: #A80036; stroke-width: 1.5;" x1="349.2571" x2="550.2571" y1="642.5" y2="642.5"/><rect fill="none" height="6" style="stroke: #C82930; stroke-width: 1.0;" width="6" x="356.2571" y="650.5"/><text fill="#000000" font-family="sans-serif" font-size="11" lengthAdjust="spacingAndGlyphs" textLength="56" x="368.2571" y="657.9189">tcpip: TCPIP</text><line style="stroke: #A80036; stroke-width: 1.5;" x1="349.2571" x2="550.2571" y1="664.3359" y2="664.3359"/><ellipse cx="359.2571" cy="675.3359" fill="#84BE84" rx="3" ry="3" style="stroke: #038048; stroke-width: 1.0;"/><text fill="#000000" font-family="sans-serif" font-size="11" lengthAdjust="spacingAndGlyphs" textLength="177" x="368.2571" y="679.7549">StartControllerProxy(TCPIP, Session)</text><ellipse cx="359.2571" cy="689.1719" fill="#84BE84" rx="3" ry="3" style="stroke: #038048; stroke-width: 1.0;"/><text fill="#000000" font-family="sans-serif" font-size="11" lengthAdjust="spacingAndGlyphs" textLength="56" x="368.2571" y="693.5908">start(): void</text><ellipse cx="359.2571" cy="703.0078" fill="#84BE84" rx="3" ry="3" style="stroke: #038048; stroke-width: 1.0;"/><text fill="#000000" font-family="sans-serif" font-size="11" lengthAdjust="spacingAndGlyphs" textLength="84" x="368.2571" y="707.4268">start(String): void</text><ellipse cx="359.2571" cy="716.8438" fill="#84BE84" rx="3" ry="3" style="stroke: #038048; stroke-width: 1.0;"/><text fill="#000000" font-family="sans-serif" font-size="11" lengthAdjust="spacingAndGlyphs" textLength="112" x="368.2571" y="721.2627">createPlayers(int): void</text><ellipse cx="359.2571" cy="730.6797" fill="#84BE84" rx="3" ry="3" style="stroke: #038048; stroke-width: 1.0;"/><text fill="#000000" font-family="sans-serif" font-size="11" lengthAdjust="spacingAndGlyphs" textLength="130" x="368.2571" y="735.0986">getGamesNames(): String[]</text><!--MD5=[82b27bbcf8d0b0a3978f76c672d30087]
class tictactoe.distributed.PlayControllerProxy--><rect fill="#FEFECE" filter="url(#f7c4pevg2v919)" height="366.2266" id="tictactoe.distributed.PlayControllerProxy" style="stroke: #A80036; stroke-width: 1.5;" width="322" x="782.7571" y="493"/><ellipse cx="886.5071" cy="509" fill="#ADD1B2" rx="11" ry="11" style="stroke: #A80036; stroke-width: 1.0;"/><path d="M889.2727,504.875 Q889.429,504.6563 889.6165,504.5469 Q889.804,504.4375 890.0227,504.4375 Q890.3977,504.4375 890.6321,504.7031 Q890.8665,504.9531 890.8665,505.5625 L890.8665,507.0156 Q890.8665,507.625 890.6321,507.8906 Q890.3977,508.1563 890.0227,508.1563 Q889.679,508.1563 889.4758,507.9531 Q889.2727,507.7656 889.1633,507.25 Q889.1165,506.8906 888.929,506.7031 Q888.6008,506.3281 887.9915,506.1094 Q887.3821,505.8906 886.7571,505.8906 Q885.9915,505.8906 885.3508,506.2188 Q884.7258,506.5469 884.2258,507.2969 Q883.7415,508.0469 883.7415,509.0781 L883.7415,510.1719 Q883.7415,511.4063 884.6321,512.2344 Q885.5227,513.0469 887.1165,513.0469 Q888.054,513.0469 888.7102,512.7969 Q889.1008,512.6406 889.5227,512.2031 Q889.7883,511.9375 889.929,511.8594 Q890.0852,511.7813 890.2883,511.7813 Q890.6165,511.7813 890.8665,512.0469 Q891.1321,512.2969 891.1321,512.6406 Q891.1321,512.9844 890.7883,513.3906 Q890.2883,513.9688 889.4915,514.2969 Q888.4133,514.75 887.1165,514.75 Q885.6008,514.75 884.3977,514.125 Q883.4133,513.625 882.7258,512.5625 Q882.0383,511.4844 882.0383,510.2031 L882.0383,509.0469 Q882.0383,507.7188 882.6477,506.5781 Q883.2727,505.4219 884.3665,504.8125 Q885.4602,504.1875 886.6946,504.1875 Q887.429,504.1875 888.0696,504.3594 Q888.7258,504.5156 889.2727,504.875 Z "/><text fill="#000000" font-family="sans-serif" font-size="12" lengthAdjust="spacingAndGlyphs" textLength="106" x="907.0071" y="513.9102">PlayControllerProxy</text><line style="stroke: #A80036; stroke-width: 1.5;" x1="783.7571" x2="1103.7571" y1="525" y2="525"/><rect fill="none" height="6" style="stroke: #C82930; stroke-width: 1.0;" width="6" x="790.7571" y="533"/><text fill="#000000" font-family="sans-serif" font-size="11" lengthAdjust="spacingAndGlyphs" textLength="56" x="802.7571" y="540.4189">tcpip: TCPIP</text><line style="stroke: #A80036; stroke-width: 1.5;" x1="783.7571" x2="1103.7571" y1="546.8359" y2="546.8359"/><ellipse cx="793.7571" cy="557.8359" fill="#84BE84" rx="3" ry="3" style="stroke: #038048; stroke-width: 1.0;"/><text fill="#000000" font-family="sans-serif" font-size="11" lengthAdjust="spacingAndGlyphs" textLength="174" x="802.7571" y="562.2549">PlayControllerProxy(TCPIP, Session)</text><ellipse cx="793.7571" cy="571.6719" fill="#84BE84" rx="3" ry="3" style="stroke: #038048; stroke-width: 1.0;"/><text fill="#000000" font-family="sans-serif" font-size="11" lengthAdjust="spacingAndGlyphs" textLength="58" x="802.7571" y="576.0908">undo(): void</text><ellipse cx="793.7571" cy="585.5078" fill="#84BE84" rx="3" ry="3" style="stroke: #038048; stroke-width: 1.0;"/><text fill="#000000" font-family="sans-serif" font-size="11" lengthAdjust="spacingAndGlyphs" textLength="56" x="802.7571" y="589.9268">redo(): void</text><ellipse cx="793.7571" cy="599.3438" fill="#84BE84" rx="3" ry="3" style="stroke: #038048; stroke-width: 1.0;"/><text fill="#000000" font-family="sans-serif" font-size="11" lengthAdjust="spacingAndGlyphs" textLength="55" x="802.7571" y="603.7627">next(): void</text><ellipse cx="793.7571" cy="613.1797" fill="#84BE84" rx="3" ry="3" style="stroke: #038048; stroke-width: 1.0;"/><text fill="#000000" font-family="sans-serif" font-size="11" lengthAdjust="spacingAndGlyphs" textLength="96" x="802.7571" y="617.5986">undoable(): boolean</text><ellipse cx="793.7571" cy="627.0156" fill="#84BE84" rx="3" ry="3" style="stroke: #038048; stroke-width: 1.0;"/><text fill="#000000" font-family="sans-serif" font-size="11" lengthAdjust="spacingAndGlyphs" textLength="94" x="802.7571" y="631.4346">redoable(): boolean</text><ellipse cx="793.7571" cy="640.8516" fill="#84BE84" rx="3" ry="3" style="stroke: #038048; stroke-width: 1.0;"/><text fill="#000000" font-family="sans-serif" font-size="11" lengthAdjust="spacingAndGlyphs" textLength="224" x="802.7571" y="645.2705">getTypeOfTokenPlayerFromTurn(): PlayerType</text><ellipse cx="793.7571" cy="654.6875" fill="#84BE84" rx="3" ry="3" style="stroke: #038048; stroke-width: 1.0;"/><text fill="#000000" font-family="sans-serif" font-size="11" lengthAdjust="spacingAndGlyphs" textLength="196" x="802.7571" y="659.1064">getPutCoordinateError(Coordinate): Error</text><ellipse cx="793.7571" cy="668.5234" fill="#84BE84" rx="3" ry="3" style="stroke: #038048; stroke-width: 1.0;"/><text fill="#000000" font-family="sans-serif" font-size="11" lengthAdjust="spacingAndGlyphs" textLength="235" x="802.7571" y="672.9424">getMoveOriginCoordinateError(Coordinate): Error</text><ellipse cx="793.7571" cy="682.3594" fill="#84BE84" rx="3" ry="3" style="stroke: #038048; stroke-width: 1.0;"/><text fill="#000000" font-family="sans-serif" font-size="11" lengthAdjust="spacingAndGlyphs" textLength="296" x="802.7571" y="686.7783">getMoveTargetCoordinateError(Coordinate, Coordinate): Error</text><ellipse cx="793.7571" cy="696.1953" fill="#84BE84" rx="3" ry="3" style="stroke: #038048; stroke-width: 1.0;"/><text fill="#000000" font-family="sans-serif" font-size="11" lengthAdjust="spacingAndGlyphs" textLength="188" x="802.7571" y="700.6143">isCoordinateValid(Coordinate): boolean</text><ellipse cx="793.7571" cy="710.0313" fill="#84BE84" rx="3" ry="3" style="stroke: #038048; stroke-width: 1.0;"/><text fill="#000000" font-family="sans-serif" font-size="11" lengthAdjust="spacingAndGlyphs" textLength="200" x="802.7571" y="714.4502">generateRandomCoordinate(): Coordinate</text><ellipse cx="793.7571" cy="723.8672" fill="#84BE84" rx="3" ry="3" style="stroke: #038048; stroke-width: 1.0;"/><text fill="#000000" font-family="sans-serif" font-size="11" lengthAdjust="spacingAndGlyphs" textLength="133" x="802.7571" y="728.2861">isBoardComplete(): boolean</text><ellipse cx="793.7571" cy="737.7031" fill="#84BE84" rx="3" ry="3" style="stroke: #038048; stroke-width: 1.0;"/><text fill="#000000" font-family="sans-serif" font-size="11" lengthAdjust="spacingAndGlyphs" textLength="206" x="802.7571" y="742.1221">putTokenPlayerFromTurn(Coordinate): void</text><ellipse cx="793.7571" cy="751.5391" fill="#84BE84" rx="3" ry="3" style="stroke: #038048; stroke-width: 1.0;"/><text fill="#000000" font-family="sans-serif" font-size="11" lengthAdjust="spacingAndGlyphs" textLength="223" x="802.7571" y="755.958">moveTokenPlayerFromTurn(Coordinate[]): void</text><ellipse cx="793.7571" cy="765.375" fill="#84BE84" rx="3" ry="3" style="stroke: #038048; stroke-width: 1.0;"/><text fill="#000000" font-family="sans-serif" font-size="11" lengthAdjust="spacingAndGlyphs" textLength="92" x="802.7571" y="769.7939">changeTurn(): void</text><ellipse cx="793.7571" cy="779.2109" fill="#84BE84" rx="3" ry="3" style="stroke: #038048; stroke-width: 1.0;"/><text fill="#000000" font-family="sans-serif" font-size="11" lengthAdjust="spacingAndGlyphs" textLength="155" x="802.7571" y="783.6299">getTokenChar(Coordinate): char</text><ellipse cx="793.7571" cy="793.0469" fill="#84BE84" rx="3" ry="3" style="stroke: #038048; stroke-width: 1.0;"/><text fill="#000000" font-family="sans-serif" font-size="11" lengthAdjust="spacingAndGlyphs" textLength="170" x="802.7571" y="797.4658">isEmptyToken(Coordinate): boolean</text><ellipse cx="793.7571" cy="806.8828" fill="#84BE84" rx="3" ry="3" style="stroke: #038048; stroke-width: 1.0;"/><text fill="#000000" font-family="sans-serif" font-size="11" lengthAdjust="spacingAndGlyphs" textLength="114" x="802.7571" y="811.3018">getValueFromTurn(): int</text><ellipse cx="793.7571" cy="820.7188" fill="#84BE84" rx="3" ry="3" style="stroke: #038048; stroke-width: 1.0;"/><text fill="#000000" font-family="sans-serif" font-size="11" lengthAdjust="spacingAndGlyphs" textLength="100" x="802.7571" y="825.1377">continueState(): void</text><ellipse cx="793.7571" cy="834.5547" fill="#84BE84" rx="3" ry="3" style="stroke: #038048; stroke-width: 1.0;"/><text fill="#000000" font-family="sans-serif" font-size="11" lengthAdjust="spacingAndGlyphs" textLength="141" x="802.7571" y="838.9736">getCoordinateDimension(): int</text><ellipse cx="793.7571" cy="848.3906" fill="#84BE84" rx="3" ry="3" style="stroke: #038048; stroke-width: 1.0;"/><text fill="#000000" font-family="sans-serif" font-size="11" lengthAdjust="spacingAndGlyphs" textLength="110" x="802.7571" y="852.8096">isTicTacToe(): boolean</text><!--MD5=[2f7970fa10c54139aaf9198a5f8ecb7b]
class tictactoe.distributed.SaveControllerProxy--><rect fill="#FEFECE" filter="url(#f7c4pevg2v919)" height="144.8516" id="tictactoe.distributed.SaveControllerProxy" style="stroke: #A80036; stroke-width: 1.5;" width="205" x="1394.2591" y="603.5"/><ellipse cx="1437.6091" cy="619.5" fill="#ADD1B2" rx="11" ry="11" style="stroke: #A80036; stroke-width: 1.0;"/><path d="M1440.3747,615.375 Q1440.531,615.1563 1440.7185,615.0469 Q1440.906,614.9375 1441.1247,614.9375 Q1441.4997,614.9375 1441.7341,615.2031 Q1441.9685,615.4531 1441.9685,616.0625 L1441.9685,617.5156 Q1441.9685,618.125 1441.7341,618.3906 Q1441.4997,618.6563 1441.1247,618.6563 Q1440.781,618.6563 1440.5779,618.4531 Q1440.3747,618.2656 1440.2654,617.75 Q1440.2185,617.3906 1440.031,617.2031 Q1439.7029,616.8281 1439.0935,616.6094 Q1438.4841,616.3906 1437.8591,616.3906 Q1437.0935,616.3906 1436.4529,616.7188 Q1435.8279,617.0469 1435.3279,617.7969 Q1434.8435,618.5469 1434.8435,619.5781 L1434.8435,620.6719 Q1434.8435,621.9063 1435.7341,622.7344 Q1436.6247,623.5469 1438.2185,623.5469 Q1439.156,623.5469 1439.8122,623.2969 Q1440.2029,623.1406 1440.6247,622.7031 Q1440.8904,622.4375 1441.031,622.3594 Q1441.1872,622.2813 1441.3904,622.2813 Q1441.7185,622.2813 1441.9685,622.5469 Q1442.2341,622.7969 1442.2341,623.1406 Q1442.2341,623.4844 1441.8904,623.8906 Q1441.3904,624.4688 1440.5935,624.7969 Q1439.5154,625.25 1438.2185,625.25 Q1436.7029,625.25 1435.4997,624.625 Q1434.5154,624.125 1433.8279,623.0625 Q1433.1404,621.9844 1433.1404,620.7031 L1433.1404,619.5469 Q1433.1404,618.2188 1433.7497,617.0781 Q1434.3747,615.9219 1435.4685,615.3125 Q1436.5622,614.6875 1437.7966,614.6875 Q1438.531,614.6875 1439.1716,614.8594 Q1439.8279,615.0156 1440.3747,615.375 Z "/><text fill="#000000" font-family="sans-serif" font-size="12" lengthAdjust="spacingAndGlyphs" textLength="110" x="1457.9091" y="624.4102">SaveControllerProxy</text><line style="stroke: #A80036; stroke-width: 1.5;" x1="1395.2591" x2="1598.2591" y1="635.5" y2="635.5"/><rect fill="none" height="6" style="stroke: #C82930; stroke-width: 1.0;" width="6" x="1402.2591" y="643.5"/><text fill="#000000" font-family="sans-serif" font-size="11" lengthAdjust="spacingAndGlyphs" textLength="56" x="1414.2591" y="650.9189">tcpip: TCPIP</text><line style="stroke: #A80036; stroke-width: 1.5;" x1="1395.2591" x2="1598.2591" y1="657.3359" y2="657.3359"/><polygon fill="#4177AF" points="1405.2591,664.3359,1401.2591,670.3359,1409.2591,670.3359" style="stroke: #1963A0; stroke-width: 1.0;"/><text fill="#000000" font-family="sans-serif" font-size="11" lengthAdjust="spacingAndGlyphs" textLength="179" x="1414.2591" y="672.7549">SaveControllerProxy(TCPIP, Session)</text><ellipse cx="1405.2591" cy="682.1719" fill="#84BE84" rx="3" ry="3" style="stroke: #038048; stroke-width: 1.0;"/><text fill="#000000" font-family="sans-serif" font-size="11" lengthAdjust="spacingAndGlyphs" textLength="55" x="1414.2591" y="686.5908">next(): void</text><ellipse cx="1405.2591" cy="696.0078" fill="#84BE84" rx="3" ry="3" style="stroke: #038048; stroke-width: 1.0;"/><text fill="#000000" font-family="sans-serif" font-size="11" lengthAdjust="spacingAndGlyphs" textLength="58" x="1414.2591" y="700.4268">save(): void</text><ellipse cx="1405.2591" cy="709.8438" fill="#84BE84" rx="3" ry="3" style="stroke: #038048; stroke-width: 1.0;"/><text fill="#000000" font-family="sans-serif" font-size="11" lengthAdjust="spacingAndGlyphs" textLength="86" x="1414.2591" y="714.2627">save(String): void</text><ellipse cx="1405.2591" cy="723.6797" fill="#84BE84" rx="3" ry="3" style="stroke: #038048; stroke-width: 1.0;"/><text fill="#000000" font-family="sans-serif" font-size="11" lengthAdjust="spacingAndGlyphs" textLength="109" x="1414.2591" y="728.0986">exists(String): boolean</text><ellipse cx="1405.2591" cy="737.5156" fill="#84BE84" rx="3" ry="3" style="stroke: #038048; stroke-width: 1.0;"/><text fill="#000000" font-family="sans-serif" font-size="11" lengthAdjust="spacingAndGlyphs" textLength="97" x="1414.2591" y="741.9346">hasName(): boolean</text><!--MD5=[21ce6f728e254c893f5541ef309b6f4c]
class tictactoe.distributed.TicTacToeClient--><rect fill="#FEFECE" filter="url(#f7c4pevg2v919)" height="117.1797" id="tictactoe.distributed.TicTacToeClient" style="stroke: #A80036; stroke-width: 1.5;" width="136" x="1177.7591" y="166"/><ellipse cx="1199.5091" cy="182" fill="#ADD1B2" rx="11" ry="11" style="stroke: #A80036; stroke-width: 1.0;"/><path d="M1202.2747,177.875 Q1202.431,177.6563 1202.6185,177.5469 Q1202.806,177.4375 1203.0247,177.4375 Q1203.3997,177.4375 1203.6341,177.7031 Q1203.8685,177.9531 1203.8685,178.5625 L1203.8685,180.0156 Q1203.8685,180.625 1203.6341,180.8906 Q1203.3997,181.1563 1203.0247,181.1563 Q1202.681,181.1563 1202.4779,180.9531 Q1202.2747,180.7656 1202.1654,180.25 Q1202.1185,179.8906 1201.931,179.7031 Q1201.6029,179.3281 1200.9935,179.1094 Q1200.3841,178.8906 1199.7591,178.8906 Q1198.9935,178.8906 1198.3529,179.2188 Q1197.7279,179.5469 1197.2279,180.2969 Q1196.7435,181.0469 1196.7435,182.0781 L1196.7435,183.1719 Q1196.7435,184.4063 1197.6341,185.2344 Q1198.5247,186.0469 1200.1185,186.0469 Q1201.056,186.0469 1201.7122,185.7969 Q1202.1029,185.6406 1202.5247,185.2031 Q1202.7904,184.9375 1202.931,184.8594 Q1203.0872,184.7813 1203.2904,184.7813 Q1203.6185,184.7813 1203.8685,185.0469 Q1204.1341,185.2969 1204.1341,185.6406 Q1204.1341,185.9844 1203.7904,186.3906 Q1203.2904,186.9688 1202.4935,187.2969 Q1201.4154,187.75 1200.1185,187.75 Q1198.6029,187.75 1197.3997,187.125 Q1196.4154,186.625 1195.7279,185.5625 Q1195.0404,184.4844 1195.0404,183.2031 L1195.0404,182.0469 Q1195.0404,180.7188 1195.6497,179.5781 Q1196.2747,178.4219 1197.3685,177.8125 Q1198.4622,177.1875 1199.6966,177.1875 Q1200.431,177.1875 1201.0716,177.3594 Q1201.7279,177.5156 1202.2747,177.875 Z "/><text fill="#000000" font-family="sans-serif" font-size="12" lengthAdjust="spacingAndGlyphs" textLength="89" x="1215.0091" y="186.9102">TicTacToeClient</text><line style="stroke: #A80036; stroke-width: 1.5;" x1="1178.7591" x2="1312.7591" y1="198" y2="198"/><rect fill="none" height="6" style="stroke: #C82930; stroke-width: 1.0;" width="6" x="1185.7591" y="206"/><text fill="#000000" font-family="sans-serif" font-size="11" lengthAdjust="spacingAndGlyphs" textLength="110" x="1197.7591" y="213.4189">logicProxy: LogicProxy</text><line style="stroke: #A80036; stroke-width: 1.5;" x1="1178.7591" x2="1312.7591" y1="219.8359" y2="219.8359"/><ellipse cx="1188.7591" cy="230.8359" fill="#84BE84" rx="3" ry="3" style="stroke: #038048; stroke-width: 1.0;"/><text fill="#000000" font-family="sans-serif" font-size="11" lengthAdjust="spacingAndGlyphs" textLength="84" x="1197.7591" y="235.2549">TicTacToeClient()</text><ellipse cx="1188.7591" cy="244.6719" fill="#84BE84" rx="3" ry="3" style="stroke: #038048; stroke-width: 1.0;"/><text fill="#000000" font-family="sans-serif" font-size="11" lengthAdjust="spacingAndGlyphs" text-decoration="underline" textLength="90" x="1197.7591" y="249.0908">main(String[]): void</text><polygon fill="#FFFF44" points="1188.7591,253.5078,1192.7591,257.5078,1188.7591,261.5078,1184.7591,257.5078" style="stroke: #B38D22; stroke-width: 1.0;"/><text fill="#000000" font-family="sans-serif" font-size="11" lengthAdjust="spacingAndGlyphs" textLength="97" x="1197.7591" y="262.9268">createLogic(): Logic</text><polygon fill="#FFFF44" points="1188.7591,267.3438,1192.7591,271.3438,1188.7591,275.3438,1184.7591,271.3438" style="stroke: #B38D22; stroke-width: 1.0;"/><text fill="#000000" font-family="sans-serif" font-size="11" lengthAdjust="spacingAndGlyphs" textLength="54" x="1197.7591" y="276.7627">play(): void</text><!--MD5=[73a32bc9a7664473c71614b3b73eef7b]
class tictactoe.distributed.TicTacToeServer--><rect fill="#FEFECE" filter="url(#f7c4pevg2v919)" height="117.1797" id="tictactoe.distributed.TicTacToeServer" style="stroke: #A80036; stroke-width: 1.5;" width="234" x="476.7571" y="166"/><ellipse cx="543.5071" cy="182" fill="#ADD1B2" rx="11" ry="11" style="stroke: #A80036; stroke-width: 1.0;"/><path d="M546.2727,177.875 Q546.429,177.6563 546.6165,177.5469 Q546.804,177.4375 547.0227,177.4375 Q547.3977,177.4375 547.6321,177.7031 Q547.8665,177.9531 547.8665,178.5625 L547.8665,180.0156 Q547.8665,180.625 547.6321,180.8906 Q547.3977,181.1563 547.0227,181.1563 Q546.679,181.1563 546.4759,180.9531 Q546.2727,180.7656 546.1634,180.25 Q546.1165,179.8906 545.929,179.7031 Q545.6009,179.3281 544.9915,179.1094 Q544.3821,178.8906 543.7571,178.8906 Q542.9915,178.8906 542.3509,179.2188 Q541.7259,179.5469 541.2259,180.2969 Q540.7415,181.0469 540.7415,182.0781 L540.7415,183.1719 Q540.7415,184.4063 541.6321,185.2344 Q542.5227,186.0469 544.1165,186.0469 Q545.054,186.0469 545.7102,185.7969 Q546.1009,185.6406 546.5227,185.2031 Q546.7884,184.9375 546.929,184.8594 Q547.0852,184.7813 547.2884,184.7813 Q547.6165,184.7813 547.8665,185.0469 Q548.1321,185.2969 548.1321,185.6406 Q548.1321,185.9844 547.7884,186.3906 Q547.2884,186.9688 546.4915,187.2969 Q545.4134,187.75 544.1165,187.75 Q542.6009,187.75 541.3977,187.125 Q540.4134,186.625 539.7259,185.5625 Q539.0384,184.4844 539.0384,183.2031 L539.0384,182.0469 Q539.0384,180.7188 539.6477,179.5781 Q540.2727,178.4219 541.3665,177.8125 Q542.4602,177.1875 543.6946,177.1875 Q544.429,177.1875 545.0696,177.3594 Q545.7259,177.5156 546.2727,177.875 Z "/><text fill="#000000" font-family="sans-serif" font-size="12" lengthAdjust="spacingAndGlyphs" textLength="92" x="564.0071" y="186.9102">TicTacToeServer</text><line style="stroke: #A80036; stroke-width: 1.5;" x1="477.7571" x2="709.7571" y1="198" y2="198"/><rect fill="none" height="6" style="stroke: #C82930; stroke-width: 1.0;" width="6" x="484.7571" y="206"/><text fill="#000000" font-family="sans-serif" font-size="11" lengthAdjust="spacingAndGlyphs" textLength="201" x="496.7571" y="213.4189">dispatcherPrototype: DispatcherPrototype</text><rect fill="none" height="6" style="stroke: #C82930; stroke-width: 1.0;" width="6" x="484.7571" y="219.8359"/><text fill="#000000" font-family="sans-serif" font-size="11" lengthAdjust="spacingAndGlyphs" textLength="157" x="496.7571" y="227.2549">logic: LogicImplementationServer</text><line style="stroke: #A80036; stroke-width: 1.5;" x1="477.7571" x2="709.7571" y1="233.6719" y2="233.6719"/><polygon fill="#FFFF44" points="487.7571,239.6719,491.7571,243.6719,487.7571,247.6719,483.7571,243.6719" style="stroke: #B38D22; stroke-width: 1.0;"/><text fill="#000000" font-family="sans-serif" font-size="11" lengthAdjust="spacingAndGlyphs" textLength="91" x="496.7571" y="249.0908">TicTacToeServer()</text><polygon fill="#FFFF44" points="487.7571,253.5078,491.7571,257.5078,487.7571,261.5078,483.7571,257.5078" style="stroke: #B38D22; stroke-width: 1.0;"/><text fill="#000000" font-family="sans-serif" font-size="11" lengthAdjust="spacingAndGlyphs" textLength="62" x="496.7571" y="262.9268">serve(): void</text><polygon fill="#FFFF44" points="487.7571,267.3438,491.7571,271.3438,487.7571,275.3438,483.7571,271.3438" style="stroke: #B38D22; stroke-width: 1.0;"/><text fill="#000000" font-family="sans-serif" font-size="11" font-style="italic" lengthAdjust="spacingAndGlyphs" textLength="208" x="496.7571" y="276.7627">createDAO(): SessionImplementationDAO</text><!--MD5=[e30380f37c66bb00beabd340c3d2105c]
class tictactoe.distributed.TicTacToeServerDB--><rect fill="#FEFECE" filter="url(#f7c4pevg2v919)" height="75.6719" id="tictactoe.distributed.TicTacToeServerDB" style="stroke: #A80036; stroke-width: 1.5;" width="226" x="608.7571" y="350"/><ellipse cx="663.0071" cy="366" fill="#ADD1B2" rx="11" ry="11" style="stroke: #A80036; stroke-width: 1.0;"/><path d="M665.7727,361.875 Q665.929,361.6563 666.1165,361.5469 Q666.304,361.4375 666.5227,361.4375 Q666.8977,361.4375 667.1321,361.7031 Q667.3665,361.9531 667.3665,362.5625 L667.3665,364.0156 Q667.3665,364.625 667.1321,364.8906 Q666.8977,365.1563 666.5227,365.1563 Q666.179,365.1563 665.9758,364.9531 Q665.7727,364.7656 665.6633,364.25 Q665.6165,363.8906 665.429,363.7031 Q665.1008,363.3281 664.4915,363.1094 Q663.8821,362.8906 663.2571,362.8906 Q662.4915,362.8906 661.8508,363.2188 Q661.2258,363.5469 660.7258,364.2969 Q660.2415,365.0469 660.2415,366.0781 L660.2415,367.1719 Q660.2415,368.4063 661.1321,369.2344 Q662.0227,370.0469 663.6165,370.0469 Q664.554,370.0469 665.2102,369.7969 Q665.6008,369.6406 666.0227,369.2031 Q666.2883,368.9375 666.429,368.8594 Q666.5852,368.7813 666.7883,368.7813 Q667.1165,368.7813 667.3665,369.0469 Q667.6321,369.2969 667.6321,369.6406 Q667.6321,369.9844 667.2883,370.3906 Q666.7883,370.9688 665.9915,371.2969 Q664.9133,371.75 663.6165,371.75 Q662.1008,371.75 660.8977,371.125 Q659.9133,370.625 659.2258,369.5625 Q658.5383,368.4844 658.5383,367.2031 L658.5383,366.0469 Q658.5383,364.7188 659.1477,363.5781 Q659.7727,362.4219 660.8665,361.8125 Q661.9602,361.1875 663.1946,361.1875 Q663.929,361.1875 664.5696,361.3594 Q665.2258,361.5156 665.7727,361.875 Z "/><text fill="#000000" font-family="sans-serif" font-size="12" lengthAdjust="spacingAndGlyphs" textLength="109" x="683.5071" y="370.9102">TicTacToeServerDB</text><line style="stroke: #A80036; stroke-width: 1.5;" x1="609.7571" x2="833.7571" y1="382" y2="382"/><line style="stroke: #A80036; stroke-width: 1.5;" x1="609.7571" x2="833.7571" y1="390" y2="390"/><ellipse cx="619.7571" cy="401" fill="#84BE84" rx="3" ry="3" style="stroke: #038048; stroke-width: 1.0;"/><text fill="#000000" font-family="sans-serif" font-size="11" lengthAdjust="spacingAndGlyphs" textLength="200" x="628.7571" y="405.4189">createDAO(): SessionImplementationDAO</text><ellipse cx="619.7571" cy="414.8359" fill="#84BE84" rx="3" ry="3" style="stroke: #038048; stroke-width: 1.0;"/><text fill="#000000" font-family="sans-serif" font-size="11" lengthAdjust="spacingAndGlyphs" text-decoration="underline" textLength="90" x="628.7571" y="419.2549">main(String[]): void</text><!--MD5=[c56b96d55d7e4cc478a561d29fc84978]
class tictactoe.distributed.TicTacToeServerFile--><rect fill="#FEFECE" filter="url(#f7c4pevg2v919)" height="75.6719" id="tictactoe.distributed.TicTacToeServerFile" style="stroke: #A80036; stroke-width: 1.5;" width="226" x="347.7571" y="350"/><ellipse cx="400.5071" cy="366" fill="#ADD1B2" rx="11" ry="11" style="stroke: #A80036; stroke-width: 1.0;"/><path d="M403.2727,361.875 Q403.429,361.6563 403.6165,361.5469 Q403.804,361.4375 404.0227,361.4375 Q404.3977,361.4375 404.6321,361.7031 Q404.8665,361.9531 404.8665,362.5625 L404.8665,364.0156 Q404.8665,364.625 404.6321,364.8906 Q404.3977,365.1563 404.0227,365.1563 Q403.679,365.1563 403.4759,364.9531 Q403.2727,364.7656 403.1634,364.25 Q403.1165,363.8906 402.929,363.7031 Q402.6009,363.3281 401.9915,363.1094 Q401.3821,362.8906 400.7571,362.8906 Q399.9915,362.8906 399.3509,363.2188 Q398.7259,363.5469 398.2259,364.2969 Q397.7415,365.0469 397.7415,366.0781 L397.7415,367.1719 Q397.7415,368.4063 398.6321,369.2344 Q399.5227,370.0469 401.1165,370.0469 Q402.054,370.0469 402.7102,369.7969 Q403.1009,369.6406 403.5227,369.2031 Q403.7884,368.9375 403.929,368.8594 Q404.0852,368.7813 404.2884,368.7813 Q404.6165,368.7813 404.8665,369.0469 Q405.1321,369.2969 405.1321,369.6406 Q405.1321,369.9844 404.7884,370.3906 Q404.2884,370.9688 403.4915,371.2969 Q402.4134,371.75 401.1165,371.75 Q399.6009,371.75 398.3977,371.125 Q397.4134,370.625 396.7259,369.5625 Q396.0384,368.4844 396.0384,367.2031 L396.0384,366.0469 Q396.0384,364.7188 396.6477,363.5781 Q397.2727,362.4219 398.3665,361.8125 Q399.4602,361.1875 400.6946,361.1875 Q401.429,361.1875 402.0696,361.3594 Q402.7259,361.5156 403.2727,361.875 Z "/><text fill="#000000" font-family="sans-serif" font-size="12" lengthAdjust="spacingAndGlyphs" textLength="112" x="421.0071" y="370.9102">TicTacToeServerFile</text><line style="stroke: #A80036; stroke-width: 1.5;" x1="348.7571" x2="572.7571" y1="382" y2="382"/><line style="stroke: #A80036; stroke-width: 1.5;" x1="348.7571" x2="572.7571" y1="390" y2="390"/><ellipse cx="358.7571" cy="401" fill="#84BE84" rx="3" ry="3" style="stroke: #038048; stroke-width: 1.0;"/><text fill="#000000" font-family="sans-serif" font-size="11" lengthAdjust="spacingAndGlyphs" textLength="200" x="367.7571" y="405.4189">createDAO(): SessionImplementationDAO</text><ellipse cx="358.7571" cy="414.8359" fill="#84BE84" rx="3" ry="3" style="stroke: #038048; stroke-width: 1.0;"/><text fill="#000000" font-family="sans-serif" font-size="11" lengthAdjust="spacingAndGlyphs" text-decoration="underline" textLength="90" x="367.7571" y="419.2549">main(String[]): void</text><!--MD5=[c333c1dfe43cc7b36e6e5cd610b33d4f]
class tictactoe.controllers.implementation.LogicImplementation--><rect fill="#FEFECE" filter="url(#f7c4pevg2v919)" height="48" id="tictactoe.controllers.implementation.LogicImplementation" style="stroke: #A80036; stroke-width: 1.5;" width="148" x="1655.7591" y="200.5"/><ellipse cx="1670.7591" cy="216.5" fill="#ADD1B2" rx="11" ry="11" style="stroke: #A80036; stroke-width: 1.0;"/><path d="M1673.5247,212.375 Q1673.681,212.1563 1673.8685,212.0469 Q1674.056,211.9375 1674.2747,211.9375 Q1674.6497,211.9375 1674.8841,212.2031 Q1675.1185,212.4531 1675.1185,213.0625 L1675.1185,214.5156 Q1675.1185,215.125 1674.8841,215.3906 Q1674.6497,215.6563 1674.2747,215.6563 Q1673.931,215.6563 1673.7279,215.4531 Q1673.5247,215.2656 1673.4154,214.75 Q1673.3685,214.3906 1673.181,214.2031 Q1672.8529,213.8281 1672.2435,213.6094 Q1671.6341,213.3906 1671.0091,213.3906 Q1670.2435,213.3906 1669.6029,213.7188 Q1668.9779,214.0469 1668.4779,214.7969 Q1667.9935,215.5469 1667.9935,216.5781 L1667.9935,217.6719 Q1667.9935,218.9063 1668.8841,219.7344 Q1669.7747,220.5469 1671.3685,220.5469 Q1672.306,220.5469 1672.9622,220.2969 Q1673.3529,220.1406 1673.7747,219.7031 Q1674.0404,219.4375 1674.181,219.3594 Q1674.3372,219.2813 1674.5404,219.2813 Q1674.8685,219.2813 1675.1185,219.5469 Q1675.3841,219.7969 1675.3841,220.1406 Q1675.3841,220.4844 1675.0404,220.8906 Q1674.5404,221.4688 1673.7435,221.7969 Q1672.6654,222.25 1671.3685,222.25 Q1669.8529,222.25 1668.6497,221.625 Q1667.6654,221.125 1666.9779,220.0625 Q1666.2904,218.9844 1666.2904,217.7031 L1666.2904,216.5469 Q1666.2904,215.2188 1666.8997,214.0781 Q1667.5247,212.9219 1668.6185,212.3125 Q1669.7122,211.6875 1670.9466,211.6875 Q1671.681,211.6875 1672.3216,211.8594 Q1672.9779,212.0156 1673.5247,212.375 Z "/><text fill="#000000" font-family="sans-serif" font-size="12" lengthAdjust="spacingAndGlyphs" textLength="116" x="1684.7591" y="221.4102">LogicImplementation</text><line style="stroke: #A80036; stroke-width: 1.5;" x1="1656.7591" x2="1802.7591" y1="232.5" y2="232.5"/><line style="stroke: #A80036; stroke-width: 1.5;" x1="1656.7591" x2="1802.7591" y1="240.5" y2="240.5"/><!--MD5=[da64f50044ac304822a65f3f619b3bb4]
class tictactoe.distributed.dispatchers.DispatcherPrototype--><rect fill="#FEFECE" filter="url(#f7c4pevg2v919)" height="48" id="tictactoe.distributed.dispatchers.DispatcherPrototype" style="stroke: #A80036; stroke-width: 1.5;" width="143" x="224.2571" y="935"/><ellipse cx="239.2571" cy="951" fill="#ADD1B2" rx="11" ry="11" style="stroke: #A80036; stroke-width: 1.0;"/><path d="M242.0227,946.875 Q242.179,946.6563 242.3665,946.5469 Q242.554,946.4375 242.7727,946.4375 Q243.1477,946.4375 243.3821,946.7031 Q243.6165,946.9531 243.6165,947.5625 L243.6165,949.0156 Q243.6165,949.625 243.3821,949.8906 Q243.1477,950.1563 242.7727,950.1563 Q242.429,950.1563 242.2259,949.9531 Q242.0227,949.7656 241.9134,949.25 Q241.8665,948.8906 241.679,948.7031 Q241.3509,948.3281 240.7415,948.1094 Q240.1321,947.8906 239.5071,947.8906 Q238.7415,947.8906 238.1009,948.2188 Q237.4759,948.5469 236.9759,949.2969 Q236.4915,950.0469 236.4915,951.0781 L236.4915,952.1719 Q236.4915,953.4063 237.3821,954.2344 Q238.2727,955.0469 239.8665,955.0469 Q240.804,955.0469 241.4602,954.7969 Q241.8509,954.6406 242.2727,954.2031 Q242.5384,953.9375 242.679,953.8594 Q242.8352,953.7813 243.0384,953.7813 Q243.3665,953.7813 243.6165,954.0469 Q243.8821,954.2969 243.8821,954.6406 Q243.8821,954.9844 243.5384,955.3906 Q243.0384,955.9688 242.2415,956.2969 Q241.1634,956.75 239.8665,956.75 Q238.3509,956.75 237.1477,956.125 Q236.1634,955.625 235.4759,954.5625 Q234.7884,953.4844 234.7884,952.2031 L234.7884,951.0469 Q234.7884,949.7188 235.3977,948.5781 Q236.0227,947.4219 237.1165,946.8125 Q238.2102,946.1875 239.4446,946.1875 Q240.179,946.1875 240.8196,946.3594 Q241.4759,946.5156 242.0227,946.875 Z "/><text fill="#000000" font-family="sans-serif" font-size="12" lengthAdjust="spacingAndGlyphs" textLength="111" x="253.2571" y="955.9102">DispatcherPrototype</text><line style="stroke: #A80036; stroke-width: 1.5;" x1="225.2571" x2="366.2571" y1="967" y2="967"/><line style="stroke: #A80036; stroke-width: 1.5;" x1="225.2571" x2="366.2571" y1="975" y2="975"/><!--MD5=[fdac821697955e2463ccbcbfa9634439]
class tictactoe.distributed.dispatchers.FrameType--><rect fill="#FEFECE" filter="url(#f7c4pevg2v919)" height="48" id="tictactoe.distributed.dispatchers.FrameType" style="stroke: #A80036; stroke-width: 1.5;" width="94" x="402.7571" y="935"/><ellipse cx="417.7571" cy="951" fill="#ADD1B2" rx="11" ry="11" style="stroke: #A80036; stroke-width: 1.0;"/><path d="M420.5227,946.875 Q420.679,946.6563 420.8665,946.5469 Q421.054,946.4375 421.2727,946.4375 Q421.6477,946.4375 421.8821,946.7031 Q422.1165,946.9531 422.1165,947.5625 L422.1165,949.0156 Q422.1165,949.625 421.8821,949.8906 Q421.6477,950.1563 421.2727,950.1563 Q420.929,950.1563 420.7259,949.9531 Q420.5227,949.7656 420.4134,949.25 Q420.3665,948.8906 420.179,948.7031 Q419.8509,948.3281 419.2415,948.1094 Q418.6321,947.8906 418.0071,947.8906 Q417.2415,947.8906 416.6009,948.2188 Q415.9759,948.5469 415.4759,949.2969 Q414.9915,950.0469 414.9915,951.0781 L414.9915,952.1719 Q414.9915,953.4063 415.8821,954.2344 Q416.7727,955.0469 418.3665,955.0469 Q419.304,955.0469 419.9602,954.7969 Q420.3509,954.6406 420.7727,954.2031 Q421.0384,953.9375 421.179,953.8594 Q421.3352,953.7813 421.5384,953.7813 Q421.8665,953.7813 422.1165,954.0469 Q422.3821,954.2969 422.3821,954.6406 Q422.3821,954.9844 422.0384,955.3906 Q421.5384,955.9688 420.7415,956.2969 Q419.6634,956.75 418.3665,956.75 Q416.8509,956.75 415.6477,956.125 Q414.6634,955.625 413.9759,954.5625 Q413.2884,953.4844 413.2884,952.2031 L413.2884,951.0469 Q413.2884,949.7188 413.8977,948.5781 Q414.5227,947.4219 415.6165,946.8125 Q416.7102,946.1875 417.9446,946.1875 Q418.679,946.1875 419.3196,946.3594 Q419.9759,946.5156 420.5227,946.875 Z "/><text fill="#000000" font-family="sans-serif" font-size="12" lengthAdjust="spacingAndGlyphs" textLength="62" x="431.7571" y="955.9102">FrameType</text><line style="stroke: #A80036; stroke-width: 1.5;" x1="403.7571" x2="495.7571" y1="967" y2="967"/><line style="stroke: #A80036; stroke-width: 1.5;" x1="403.7571" x2="495.7571" y1="975" y2="975"/><!--MD5=[3b8962fd5847b9038b2e29740dae8054]
class tictactoe.controllers.Logic--><rect fill="#FEFECE" filter="url(#f7c4pevg2v919)" height="48" id="tictactoe.controllers.Logic" style="stroke: #A80036; stroke-width: 1.5;" width="62" x="1949.7591" y="200.5"/><ellipse cx="1964.7591" cy="216.5" fill="#ADD1B2" rx="11" ry="11" style="stroke: #A80036; stroke-width: 1.0;"/><path d="M1967.5247,212.375 Q1967.681,212.1563 1967.8685,212.0469 Q1968.056,211.9375 1968.2747,211.9375 Q1968.6497,211.9375 1968.8841,212.2031 Q1969.1185,212.4531 1969.1185,213.0625 L1969.1185,214.5156 Q1969.1185,215.125 1968.8841,215.3906 Q1968.6497,215.6563 1968.2747,215.6563 Q1967.931,215.6563 1967.7279,215.4531 Q1967.5247,215.2656 1967.4154,214.75 Q1967.3685,214.3906 1967.181,214.2031 Q1966.8529,213.8281 1966.2435,213.6094 Q1965.6341,213.3906 1965.0091,213.3906 Q1964.2435,213.3906 1963.6029,213.7188 Q1962.9779,214.0469 1962.4779,214.7969 Q1961.9935,215.5469 1961.9935,216.5781 L1961.9935,217.6719 Q1961.9935,218.9063 1962.8841,219.7344 Q1963.7747,220.5469 1965.3685,220.5469 Q1966.306,220.5469 1966.9622,220.2969 Q1967.3529,220.1406 1967.7747,219.7031 Q1968.0404,219.4375 1968.181,219.3594 Q1968.3372,219.2813 1968.5404,219.2813 Q1968.8685,219.2813 1969.1185,219.5469 Q1969.3841,219.7969 1969.3841,220.1406 Q1969.3841,220.4844 1969.0404,220.8906 Q1968.5404,221.4688 1967.7435,221.7969 Q1966.6654,222.25 1965.3685,222.25 Q1963.8529,222.25 1962.6497,221.625 Q1961.6654,221.125 1960.9779,220.0625 Q1960.2904,218.9844 1960.2904,217.7031 L1960.2904,216.5469 Q1960.2904,215.2188 1960.8997,214.0781 Q1961.5247,212.9219 1962.6185,212.3125 Q1963.7122,211.6875 1964.9466,211.6875 Q1965.681,211.6875 1966.3216,211.8594 Q1966.9779,212.0156 1967.5247,212.375 Z "/><text fill="#000000" font-family="sans-serif" font-size="12" lengthAdjust="spacingAndGlyphs" textLength="30" x="1978.7591" y="221.4102">Logic</text><line style="stroke: #A80036; stroke-width: 1.5;" x1="1950.7591" x2="2010.7591" y1="232.5" y2="232.5"/><line style="stroke: #A80036; stroke-width: 1.5;" x1="1950.7591" x2="2010.7591" y1="240.5" y2="240.5"/><!--MD5=[b574e60c06c50037ff1b014277a67d62]
class tictactoe.controllers.PlayController--><rect fill="#FEFECE" filter="url(#f7c4pevg2v919)" height="48" id="tictactoe.controllers.PlayController" style="stroke: #A80036; stroke-width: 1.5;" width="109" x="2341.2591" y="200.5"/><ellipse cx="2356.2591" cy="216.5" fill="#ADD1B2" rx="11" ry="11" style="stroke: #A80036; stroke-width: 1.0;"/><path d="M2359.0247,212.375 Q2359.181,212.1563 2359.3685,212.0469 Q2359.556,211.9375 2359.7747,211.9375 Q2360.1497,211.9375 2360.3841,212.2031 Q2360.6185,212.4531 2360.6185,213.0625 L2360.6185,214.5156 Q2360.6185,215.125 2360.3841,215.3906 Q2360.1497,215.6563 2359.7747,215.6563 Q2359.431,215.6563 2359.2278,215.4531 Q2359.0247,215.2656 2358.9153,214.75 Q2358.8685,214.3906 2358.681,214.2031 Q2358.3528,213.8281 2357.7435,213.6094 Q2357.1341,213.3906 2356.5091,213.3906 Q2355.7435,213.3906 2355.1028,213.7188 Q2354.4778,214.0469 2353.9778,214.7969 Q2353.4935,215.5469 2353.4935,216.5781 L2353.4935,217.6719 Q2353.4935,218.9063 2354.3841,219.7344 Q2355.2747,220.5469 2356.8685,220.5469 Q2357.806,220.5469 2358.4622,220.2969 Q2358.8528,220.1406 2359.2747,219.7031 Q2359.5403,219.4375 2359.681,219.3594 Q2359.8372,219.2813 2360.0403,219.2813 Q2360.3685,219.2813 2360.6185,219.5469 Q2360.8841,219.7969 2360.8841,220.1406 Q2360.8841,220.4844 2360.5403,220.8906 Q2360.0403,221.4688 2359.2435,221.7969 Q2358.1653,222.25 2356.8685,222.25 Q2355.3528,222.25 2354.1497,221.625 Q2353.1653,221.125 2352.4778,220.0625 Q2351.7903,218.9844 2351.7903,217.7031 L2351.7903,216.5469 Q2351.7903,215.2188 2352.3997,214.0781 Q2353.0247,212.9219 2354.1185,212.3125 Q2355.2122,211.6875 2356.4466,211.6875 Q2357.181,211.6875 2357.8216,211.8594 Q2358.4778,212.0156 2359.0247,212.375 Z "/><text fill="#000000" font-family="sans-serif" font-size="12" lengthAdjust="spacingAndGlyphs" textLength="77" x="2370.2591" y="221.4102">PlayController</text><line style="stroke: #A80036; stroke-width: 1.5;" x1="2342.2591" x2="2449.2591" y1="232.5" y2="232.5"/><line style="stroke: #A80036; stroke-width: 1.5;" x1="2342.2591" x2="2449.2591" y1="240.5" y2="240.5"/><!--MD5=[d75e1ad11e6a17be2ba08b218e20e3d7]
class tictactoe.controllers.ResumeController--><rect fill="#FEFECE" filter="url(#f7c4pevg2v919)" height="48" id="tictactoe.controllers.ResumeController" style="stroke: #A80036; stroke-width: 1.5;" width="134" x="2485.7591" y="200.5"/><ellipse cx="2500.7591" cy="216.5" fill="#ADD1B2" rx="11" ry="11" style="stroke: #A80036; stroke-width: 1.0;"/><path d="M2503.5247,212.375 Q2503.681,212.1563 2503.8685,212.0469 Q2504.056,211.9375 2504.2747,211.9375 Q2504.6497,211.9375 2504.8841,212.2031 Q2505.1185,212.4531 2505.1185,213.0625 L2505.1185,214.5156 Q2505.1185,215.125 2504.8841,215.3906 Q2504.6497,215.6563 2504.2747,215.6563 Q2503.931,215.6563 2503.7278,215.4531 Q2503.5247,215.2656 2503.4153,214.75 Q2503.3685,214.3906 2503.181,214.2031 Q2502.8528,213.8281 2502.2435,213.6094 Q2501.6341,213.3906 2501.0091,213.3906 Q2500.2435,213.3906 2499.6028,213.7188 Q2498.9778,214.0469 2498.4778,214.7969 Q2497.9935,215.5469 2497.9935,216.5781 L2497.9935,217.6719 Q2497.9935,218.9063 2498.8841,219.7344 Q2499.7747,220.5469 2501.3685,220.5469 Q2502.306,220.5469 2502.9622,220.2969 Q2503.3528,220.1406 2503.7747,219.7031 Q2504.0403,219.4375 2504.181,219.3594 Q2504.3372,219.2813 2504.5403,219.2813 Q2504.8685,219.2813 2505.1185,219.5469 Q2505.3841,219.7969 2505.3841,220.1406 Q2505.3841,220.4844 2505.0403,220.8906 Q2504.5403,221.4688 2503.7435,221.7969 Q2502.6653,222.25 2501.3685,222.25 Q2499.8528,222.25 2498.6497,221.625 Q2497.6653,221.125 2496.9778,220.0625 Q2496.2903,218.9844 2496.2903,217.7031 L2496.2903,216.5469 Q2496.2903,215.2188 2496.8997,214.0781 Q2497.5247,212.9219 2498.6185,212.3125 Q2499.7122,211.6875 2500.9466,211.6875 Q2501.681,211.6875 2502.3216,211.8594 Q2502.9778,212.0156 2503.5247,212.375 Z "/><text fill="#000000" font-family="sans-serif" font-size="12" lengthAdjust="spacingAndGlyphs" textLength="102" x="2514.7591" y="221.4102">ResumeController</text><line style="stroke: #A80036; stroke-width: 1.5;" x1="2486.7591" x2="2618.7591" y1="232.5" y2="232.5"/><line style="stroke: #A80036; stroke-width: 1.5;" x1="2486.7591" x2="2618.7591" y1="240.5" y2="240.5"/><!--MD5=[ceb32bf16d0eacc5ebeb8fec652e21b2]
class tictactoe.controllers.SaveController--><rect fill="#FEFECE" filter="url(#f7c4pevg2v919)" height="48" id="tictactoe.controllers.SaveController" style="stroke: #A80036; stroke-width: 1.5;" width="113" x="2193.2591" y="200.5"/><ellipse cx="2208.2591" cy="216.5" fill="#ADD1B2" rx="11" ry="11" style="stroke: #A80036; stroke-width: 1.0;"/><path d="M2211.0247,212.375 Q2211.181,212.1563 2211.3685,212.0469 Q2211.556,211.9375 2211.7747,211.9375 Q2212.1497,211.9375 2212.3841,212.2031 Q2212.6185,212.4531 2212.6185,213.0625 L2212.6185,214.5156 Q2212.6185,215.125 2212.3841,215.3906 Q2212.1497,215.6563 2211.7747,215.6563 Q2211.431,215.6563 2211.2278,215.4531 Q2211.0247,215.2656 2210.9153,214.75 Q2210.8685,214.3906 2210.681,214.2031 Q2210.3528,213.8281 2209.7435,213.6094 Q2209.1341,213.3906 2208.5091,213.3906 Q2207.7435,213.3906 2207.1028,213.7188 Q2206.4778,214.0469 2205.9778,214.7969 Q2205.4935,215.5469 2205.4935,216.5781 L2205.4935,217.6719 Q2205.4935,218.9063 2206.3841,219.7344 Q2207.2747,220.5469 2208.8685,220.5469 Q2209.806,220.5469 2210.4622,220.2969 Q2210.8528,220.1406 2211.2747,219.7031 Q2211.5403,219.4375 2211.681,219.3594 Q2211.8372,219.2813 2212.0403,219.2813 Q2212.3685,219.2813 2212.6185,219.5469 Q2212.8841,219.7969 2212.8841,220.1406 Q2212.8841,220.4844 2212.5403,220.8906 Q2212.0403,221.4688 2211.2435,221.7969 Q2210.1653,222.25 2208.8685,222.25 Q2207.3528,222.25 2206.1497,221.625 Q2205.1653,221.125 2204.4778,220.0625 Q2203.7903,218.9844 2203.7903,217.7031 L2203.7903,216.5469 Q2203.7903,215.2188 2204.3997,214.0781 Q2205.0247,212.9219 2206.1185,212.3125 Q2207.2122,211.6875 2208.4466,211.6875 Q2209.181,211.6875 2209.8216,211.8594 Q2210.4778,212.0156 2211.0247,212.375 Z "/><text fill="#000000" font-family="sans-serif" font-size="12" lengthAdjust="spacingAndGlyphs" textLength="81" x="2222.2591" y="221.4102">SaveController</text><line style="stroke: #A80036; stroke-width: 1.5;" x1="2194.2591" x2="2305.2591" y1="232.5" y2="232.5"/><line style="stroke: #A80036; stroke-width: 1.5;" x1="2194.2591" x2="2305.2591" y1="240.5" y2="240.5"/><!--MD5=[8ede4dbfb3b498095887802b64b699f0]
class tictactoe.controllers.StartController--><rect fill="#FEFECE" filter="url(#f7c4pevg2v919)" height="48" id="tictactoe.controllers.StartController" style="stroke: #A80036; stroke-width: 1.5;" width="111" x="2047.2591" y="200.5"/><ellipse cx="2062.2591" cy="216.5" fill="#ADD1B2" rx="11" ry="11" style="stroke: #A80036; stroke-width: 1.0;"/><path d="M2065.0247,212.375 Q2065.181,212.1563 2065.3685,212.0469 Q2065.556,211.9375 2065.7747,211.9375 Q2066.1497,211.9375 2066.3841,212.2031 Q2066.6185,212.4531 2066.6185,213.0625 L2066.6185,214.5156 Q2066.6185,215.125 2066.3841,215.3906 Q2066.1497,215.6563 2065.7747,215.6563 Q2065.431,215.6563 2065.2279,215.4531 Q2065.0247,215.2656 2064.9154,214.75 Q2064.8685,214.3906 2064.681,214.2031 Q2064.3529,213.8281 2063.7435,213.6094 Q2063.1341,213.3906 2062.5091,213.3906 Q2061.7435,213.3906 2061.1029,213.7188 Q2060.4779,214.0469 2059.9779,214.7969 Q2059.4935,215.5469 2059.4935,216.5781 L2059.4935,217.6719 Q2059.4935,218.9063 2060.3841,219.7344 Q2061.2747,220.5469 2062.8685,220.5469 Q2063.806,220.5469 2064.4622,220.2969 Q2064.8529,220.1406 2065.2747,219.7031 Q2065.5404,219.4375 2065.681,219.3594 Q2065.8372,219.2813 2066.0404,219.2813 Q2066.3685,219.2813 2066.6185,219.5469 Q2066.8841,219.7969 2066.8841,220.1406 Q2066.8841,220.4844 2066.5404,220.8906 Q2066.0404,221.4688 2065.2435,221.7969 Q2064.1654,222.25 2062.8685,222.25 Q2061.3529,222.25 2060.1497,221.625 Q2059.1654,221.125 2058.4779,220.0625 Q2057.7904,218.9844 2057.7904,217.7031 L2057.7904,216.5469 Q2057.7904,215.2188 2058.3997,214.0781 Q2059.0247,212.9219 2060.1185,212.3125 Q2061.2122,211.6875 2062.4466,211.6875 Q2063.181,211.6875 2063.8216,211.8594 Q2064.4779,212.0156 2065.0247,212.375 Z "/><text fill="#000000" font-family="sans-serif" font-size="12" lengthAdjust="spacingAndGlyphs" textLength="79" x="2076.2591" y="221.4102">StartController</text><line style="stroke: #A80036; stroke-width: 1.5;" x1="2048.2591" x2="2157.2591" y1="232.5" y2="232.5"/><line style="stroke: #A80036; stroke-width: 1.5;" x1="2048.2591" x2="2157.2591" y1="240.5" y2="240.5"/><!--MD5=[2c721b8e75ee69878c5473c2e2c68362]
class utils.TCPIP--><rect fill="#FEFECE" filter="url(#f7c4pevg2v919)" height="48" id="utils.TCPIP" style="stroke: #A80036; stroke-width: 1.5;" width="67" x="771.2571" y="935"/><ellipse cx="786.2571" cy="951" fill="#ADD1B2" rx="11" ry="11" style="stroke: #A80036; stroke-width: 1.0;"/><path d="M789.0227,946.875 Q789.179,946.6563 789.3665,946.5469 Q789.554,946.4375 789.7727,946.4375 Q790.1477,946.4375 790.3821,946.7031 Q790.6165,946.9531 790.6165,947.5625 L790.6165,949.0156 Q790.6165,949.625 790.3821,949.8906 Q790.1477,950.1563 789.7727,950.1563 Q789.429,950.1563 789.2258,949.9531 Q789.0227,949.7656 788.9133,949.25 Q788.8665,948.8906 788.679,948.7031 Q788.3508,948.3281 787.7415,948.1094 Q787.1321,947.8906 786.5071,947.8906 Q785.7415,947.8906 785.1008,948.2188 Q784.4758,948.5469 783.9758,949.2969 Q783.4915,950.0469 783.4915,951.0781 L783.4915,952.1719 Q783.4915,953.4063 784.3821,954.2344 Q785.2727,955.0469 786.8665,955.0469 Q787.804,955.0469 788.4602,954.7969 Q788.8508,954.6406 789.2727,954.2031 Q789.5383,953.9375 789.679,953.8594 Q789.8352,953.7813 790.0383,953.7813 Q790.3665,953.7813 790.6165,954.0469 Q790.8821,954.2969 790.8821,954.6406 Q790.8821,954.9844 790.5383,955.3906 Q790.0383,955.9688 789.2415,956.2969 Q788.1633,956.75 786.8665,956.75 Q785.3508,956.75 784.1477,956.125 Q783.1633,955.625 782.4758,954.5625 Q781.7883,953.4844 781.7883,952.2031 L781.7883,951.0469 Q781.7883,949.7188 782.3977,948.5781 Q783.0227,947.4219 784.1165,946.8125 Q785.2102,946.1875 786.4446,946.1875 Q787.179,946.1875 787.8196,946.3594 Q788.4758,946.5156 789.0227,946.875 Z "/><text fill="#000000" font-family="sans-serif" font-size="12" lengthAdjust="spacingAndGlyphs" textLength="35" x="800.2571" y="955.9102">TCPIP</text><line style="stroke: #A80036; stroke-width: 1.5;" x1="772.2571" x2="837.2571" y1="967" y2="967"/><line style="stroke: #A80036; stroke-width: 1.5;" x1="772.2571" x2="837.2571" y1="975" y2="975"/><!--MD5=[fa99c436b17806d9277b14ee7a9cac8e]
class tictactoe.models.Session--><rect fill="#FEFECE" filter="url(#f7c4pevg2v919)" height="48" id="tictactoe.models.Session" style="stroke: #A80036; stroke-width: 1.5;" width="78" x="1655.7591" y="364"/><ellipse cx="1670.7591" cy="380" fill="#ADD1B2" rx="11" ry="11" style="stroke: #A80036; stroke-width: 1.0;"/><path d="M1673.5247,375.875 Q1673.681,375.6563 1673.8685,375.5469 Q1674.056,375.4375 1674.2747,375.4375 Q1674.6497,375.4375 1674.8841,375.7031 Q1675.1185,375.9531 1675.1185,376.5625 L1675.1185,378.0156 Q1675.1185,378.625 1674.8841,378.8906 Q1674.6497,379.1563 1674.2747,379.1563 Q1673.931,379.1563 1673.7279,378.9531 Q1673.5247,378.7656 1673.4154,378.25 Q1673.3685,377.8906 1673.181,377.7031 Q1672.8529,377.3281 1672.2435,377.1094 Q1671.6341,376.8906 1671.0091,376.8906 Q1670.2435,376.8906 1669.6029,377.2188 Q1668.9779,377.5469 1668.4779,378.2969 Q1667.9935,379.0469 1667.9935,380.0781 L1667.9935,381.1719 Q1667.9935,382.4063 1668.8841,383.2344 Q1669.7747,384.0469 1671.3685,384.0469 Q1672.306,384.0469 1672.9622,383.7969 Q1673.3529,383.6406 1673.7747,383.2031 Q1674.0404,382.9375 1674.181,382.8594 Q1674.3372,382.7813 1674.5404,382.7813 Q1674.8685,382.7813 1675.1185,383.0469 Q1675.3841,383.2969 1675.3841,383.6406 Q1675.3841,383.9844 1675.0404,384.3906 Q1674.5404,384.9688 1673.7435,385.2969 Q1672.6654,385.75 1671.3685,385.75 Q1669.8529,385.75 1668.6497,385.125 Q1667.6654,384.625 1666.9779,383.5625 Q1666.2904,382.4844 1666.2904,381.2031 L1666.2904,380.0469 Q1666.2904,378.7188 1666.8997,377.5781 Q1667.5247,376.4219 1668.6185,375.8125 Q1669.7122,375.1875 1670.9466,375.1875 Q1671.681,375.1875 1672.3216,375.3594 Q1672.9779,375.5156 1673.5247,375.875 Z "/><text fill="#000000" font-family="sans-serif" font-size="12" lengthAdjust="spacingAndGlyphs" textLength="46" x="1684.7591" y="384.9102">Session</text><line style="stroke: #A80036; stroke-width: 1.5;" x1="1656.7591" x2="1732.7591" y1="396" y2="396"/><line style="stroke: #A80036; stroke-width: 1.5;" x1="1656.7591" x2="1732.7591" y1="404" y2="404"/><!--MD5=[dcfee6ff2a733e6a859ce2b7bcbe021e]
class tictactoe.TicTacToe--><rect fill="#FEFECE" filter="url(#f7c4pevg2v919)" height="48" id="tictactoe.TicTacToe" style="stroke: #A80036; stroke-width: 1.5;" width="89" x="1201.2591" y="42"/><ellipse cx="1216.2591" cy="58" fill="#ADD1B2" rx="11" ry="11" style="stroke: #A80036; stroke-width: 1.0;"/><path d="M1219.0247,53.875 Q1219.181,53.6563 1219.3685,53.5469 Q1219.556,53.4375 1219.7747,53.4375 Q1220.1497,53.4375 1220.3841,53.7031 Q1220.6185,53.9531 1220.6185,54.5625 L1220.6185,56.0156 Q1220.6185,56.625 1220.3841,56.8906 Q1220.1497,57.1563 1219.7747,57.1563 Q1219.431,57.1563 1219.2279,56.9531 Q1219.0247,56.7656 1218.9154,56.25 Q1218.8685,55.8906 1218.681,55.7031 Q1218.3529,55.3281 1217.7435,55.1094 Q1217.1341,54.8906 1216.5091,54.8906 Q1215.7435,54.8906 1215.1029,55.2188 Q1214.4779,55.5469 1213.9779,56.2969 Q1213.4935,57.0469 1213.4935,58.0781 L1213.4935,59.1719 Q1213.4935,60.4063 1214.3841,61.2344 Q1215.2747,62.0469 1216.8685,62.0469 Q1217.806,62.0469 1218.4622,61.7969 Q1218.8529,61.6406 1219.2747,61.2031 Q1219.5404,60.9375 1219.681,60.8594 Q1219.8372,60.7813 1220.0404,60.7813 Q1220.3685,60.7813 1220.6185,61.0469 Q1220.8841,61.2969 1220.8841,61.6406 Q1220.8841,61.9844 1220.5404,62.3906 Q1220.0404,62.9688 1219.2435,63.2969 Q1218.1654,63.75 1216.8685,63.75 Q1215.3529,63.75 1214.1497,63.125 Q1213.1654,62.625 1212.4779,61.5625 Q1211.7904,60.4844 1211.7904,59.2031 L1211.7904,58.0469 Q1211.7904,56.7188 1212.3997,55.5781 Q1213.0247,54.4219 1214.1185,53.8125 Q1215.2122,53.1875 1216.4466,53.1875 Q1217.181,53.1875 1217.8216,53.3594 Q1218.4779,53.5156 1219.0247,53.875 Z "/><text fill="#000000" font-family="sans-serif" font-size="12" lengthAdjust="spacingAndGlyphs" textLength="57" x="1230.2591" y="62.9102">TicTacToe</text><line style="stroke: #A80036; stroke-width: 1.5;" x1="1202.2591" x2="1289.2591" y1="74" y2="74"/><line style="stroke: #A80036; stroke-width: 1.5;" x1="1202.2591" x2="1289.2591" y1="82" y2="82"/><!--MD5=[8492d26fad2d87e062c7eb36d468d866]
reverse link tictactoe.controllers.implementation.LogicImplementation to tictactoe.distributed.LogicImplementationServer--><path d="M1675.3191,258.27 C1656.9991,267.833 1636.0491,277.25 1615.7591,283 C1429.9291,335.671 1370.5691,274.937 1182.7591,320 C1153.4491,327.033 1122.5291,338.428 1095.4791,349.841 " fill="none" id="tictactoe.controllers.implementation.LogicImplementation&lt;-tictactoe.distributed.LogicImplementationServer" style="stroke: #A80036; stroke-width: 1.0;"/><polygon fill="none" points="1672.0691,252.065,1692.9791,248.593,1678.7991,264.342,1672.0691,252.065" style="stroke: #A80036; stroke-width: 1.0;"/><!--MD5=[ddca5d656e8b1b0b25972b3816a53517]
link tictactoe.distributed.LogicImplementationServer to tictactoe.distributed.dispatchers.DispatcherPrototype--><path d="M896.9001,426.098 C881.8001,429.88 866.4891,433.311 851.7571,436 C778.4751,449.374 234.1421,438.133 183.7571,493 C66.5176,620.669 102.1253,730.092 183.7571,883 C195.0791,904.207 215.3501,920.4718 235.5641,932.3451 " fill="none" id="tictactoe.distributed.LogicImplementationServer-&gt;tictactoe.distributed.dispatchers.DispatcherPrototype" style="stroke: #A80036; stroke-width: 1.0; stroke-dasharray: 7.0,7.0;"/><polygon fill="#A80036" points="240.1461,934.964,234.3178,927.0248,235.8053,932.4826,230.3475,933.9701,240.1461,934.964" style="stroke: #A80036; stroke-width: 1.0;"/><!--MD5=[e1559b16d919bb0c8ef4b061281424cd]
link tictactoe.distributed.LogicImplementationServer to tictactoe.distributed.dispatchers.FrameType--><path d="M896.4101,426.012 C881.4631,429.783 866.3231,433.236 851.7571,436 C726.0381,459.856 364.6441,398.145 278.7571,493 C162.4161,621.488 160.8941,755.906 278.7571,883 C294.8201,900.321 363.3631,880.982 384.7571,891 C403.4041,899.732 419.5531,916.3001 431.0901,930.7751 " fill="none" id="tictactoe.distributed.LogicImplementationServer-&gt;tictactoe.distributed.dispatchers.FrameType" style="stroke: #A80036; stroke-width: 1.0; stroke-dasharray: 7.0,7.0;"/><polygon fill="#A80036" points="434.2201,934.794,431.8455,925.2357,431.1477,930.8494,425.534,930.1516,434.2201,934.794" style="stroke: #A80036; stroke-width: 1.0;"/><!--MD5=[ac57849eaf70bf89df4d9fe514483d08]
reverse link tictactoe.controllers.Logic to tictactoe.distributed.LogicProxy--><path d="M1931.1591,246.888 C1899.8091,259.481 1858.0991,274.553 1819.7591,283 C1642.3791,322.078 1589.3491,277.513 1412.7591,320 C1370.2391,330.23 1324.2791,349.309 1291.3591,364.499 " fill="none" id="tictactoe.controllers.Logic&lt;-tictactoe.distributed.LogicProxy" style="stroke: #A80036; stroke-width: 1.0;"/><polygon fill="none" points="1928.5191,240.406,1949.6791,239.257,1933.8591,253.35,1928.5191,240.406" style="stroke: #A80036; stroke-width: 1.0;"/><!--MD5=[5eb53b82bd19646fe2abe1bedb3d05a4]
link tictactoe.distributed.LogicProxy to utils.TCPIP--><path d="M1189.3815,433.1556 C1189.3815,433.1556 1184.5991,435.32 1182.7591,436 C1093.7591,468.879 395.5681,423.708 330.7571,493 C271.5551,556.295 270.8351,820.386 330.7571,883 C337.7541,890.312 502.7281,889.64 512.7571,891 C600.7381,902.927 701.2191,928.7382 758.4101,944.6145 " fill="none" id="tictactoe.distributed.LogicProxy-utils.TCPIP" style="stroke: #A80036; stroke-width: 1.0;"/><polygon fill="#A80036" points="770.9611,948.1324,763.3746,941.8518,766.1466,946.7829,761.2155,949.555,770.9611,948.1324" style="stroke: #A80036; stroke-width: 1.0;"/><line style="stroke: #A80036; stroke-width: 1.0;" x1="766.1466" x2="758.4431" y1="946.7829" y2="944.6237"/><polygon fill="#A80036" points="1200.0191,427.602,1192.8491,426.8329,1189.3815,433.1556,1196.5515,433.9246,1200.0191,427.602" style="stroke: #A80036; stroke-width: 1.0;"/><!--MD5=[f1b1a99fb31e756c5f6ceec412cc7464]
link tictactoe.distributed.LogicProxy to tictactoe.distributed.SessionProxy--><path d="M1189.7087,432.7647 C1189.7087,432.7647 1184.7091,435.203 1182.7591,436 C1009.2141,506.979 918.8461,386.175 764.7571,493 C724.3521,521.011 699.1261,571.166 684.4051,611.741 " fill="none" id="tictactoe.distributed.LogicProxy-tictactoe.distributed.SessionProxy" style="stroke: #A80036; stroke-width: 1.0;"/><polygon fill="#A80036" points="680.0781,624.264,686.7981,617.0639,681.7111,619.5382,679.2368,614.4511,680.0781,624.264" style="stroke: #A80036; stroke-width: 1.0;"/><line style="stroke: #A80036; stroke-width: 1.0;" x1="681.7111" x2="684.3236" y1="619.5382" y2="611.976"/><polygon fill="#A80036" points="1200.2191,426.974,1193.0337,426.3659,1189.7087,432.7647,1196.8942,433.3728,1200.2191,426.974" style="stroke: #A80036; stroke-width: 1.0;"/><!--MD5=[4ad5bdf18b75ba68c13ac6d7148cb90b]
link tictactoe.distributed.LogicProxy to tictactoe.distributed.ResumeControllerProxy--><path d="M1246.5366,445.0598 C1246.5366,445.0598 1248.2591,567.964 1248.9591,617.777 " fill="none" id="tictactoe.distributed.LogicProxy-tictactoe.distributed.ResumeControllerProxy" style="stroke: #A80036; stroke-width: 1.0;"/><polygon fill="#A80036" points="1249.1391,630.889,1253.0131,621.8341,1249.0693,625.8895,1245.0139,621.9457,1249.1391,630.889" style="stroke: #A80036; stroke-width: 1.0;"/><line style="stroke: #A80036; stroke-width: 1.0;" x1="1249.0693" x2="1248.9591" y1="625.8895" y2="617.8905"/><polygon fill="#A80036" points="1246.3691,433.061,1242.4532,439.1162,1246.5366,445.0598,1250.4524,439.0046,1246.3691,433.061" style="stroke: #A80036; stroke-width: 1.0;"/><!--MD5=[18a38945b26e937d75a9d166c77cf73f]
link tictactoe.distributed.LogicProxy to tictactoe.distributed.StartControllerProxy--><path d="M1189.3685,433.0917 C1189.3685,433.0917 1184.5891,435.297 1182.7591,436 C926.9211,534.277 803.5191,351.591 568.7571,493 C528.7531,517.096 499.6241,560.402 480.2011,598.725 " fill="none" id="tictactoe.distributed.LogicProxy-tictactoe.distributed.StartControllerProxy" style="stroke: #A80036; stroke-width: 1.0;"/><polygon fill="#A80036" points="474.4831,610.432,482.0273,604.1007,476.6775,605.9393,474.8389,600.5896,474.4831,610.432" style="stroke: #A80036; stroke-width: 1.0;"/><line style="stroke: #A80036; stroke-width: 1.0;" x1="476.6775" x2="480.1886" y1="605.9393" y2="598.751"/><polygon fill="#A80036" points="1199.9591,427.449,1192.7829,426.7401,1189.3685,433.0917,1196.5447,433.8005,1199.9591,427.449" style="stroke: #A80036; stroke-width: 1.0;"/><!--MD5=[cf78edf6712ed0281ae7c0552a577c3a]
link tictactoe.distributed.LogicProxy to tictactoe.distributed.PlayControllerProxy--><path d="M1190.9748,433.4874 C1190.9748,433.4874 1144.1691,473.144 1122.7591,493 C1120.1091,495.458 1117.4391,497.944 1114.7691,500.454 " fill="none" id="tictactoe.distributed.LogicProxy-tictactoe.distributed.PlayControllerProxy" style="stroke: #A80036; stroke-width: 1.0;"/><polygon fill="#A80036" points="1105.0591,509.639,1114.3473,506.3635,1108.6927,506.2043,1108.8519,500.5497,1105.0591,509.639" style="stroke: #A80036; stroke-width: 1.0;"/><line style="stroke: #A80036; stroke-width: 1.0;" x1="1108.6927" x2="1114.5041" y1="506.2043" y2="500.706"/><polygon fill="#A80036" points="1200.2091,425.824,1193.0375,426.5776,1190.9748,433.4874,1198.1464,432.7338,1200.2091,425.824" style="stroke: #A80036; stroke-width: 1.0;"/><!--MD5=[85afb110ac59e91bf65d7f5c106f59da]
link tictactoe.distributed.LogicProxy to tictactoe.distributed.SaveControllerProxy--><path d="M1301.1772,426.8637 C1301.1772,426.8637 1354.6391,468.839 1376.7591,493 C1404.0791,522.84 1429.5091,559.493 1449.8591,592.067 " fill="none" id="tictactoe.distributed.LogicProxy-tictactoe.distributed.SaveControllerProxy" style="stroke: #A80036; stroke-width: 1.0;"/><polygon fill="#A80036" points="1456.8391,603.4,1455.5198,593.6399,1454.2147,599.1441,1448.7104,597.839,1456.8391,603.4" style="stroke: #A80036; stroke-width: 1.0;"/><line style="stroke: #A80036; stroke-width: 1.0;" x1="1454.2147" x2="1450.0191" y1="599.1441" y2="592.3315"/><polygon fill="#A80036" points="1291.4991,419.769,1293.9732,426.5424,1301.1772,426.8637,1298.703,420.0903,1291.4991,419.769" style="stroke: #A80036; stroke-width: 1.0;"/><!--MD5=[8eb5902b0eaf0704b38e1325364a8a68]
reverse link tictactoe.controllers.PlayController to tictactoe.distributed.PlayControllerProxy--><path d="M2357.3691,261.818 C2347.0991,269.881 2335.5491,277.619 2323.7591,283 C2241.1191,320.698 2210.9491,298.252 2122.7591,320 C1954.1991,361.567 1920.0391,402.175 1749.7591,436 C1475.2991,490.517 1375.6591,373.263 1122.7591,493 C1116.7491,495.845 1110.8291,498.981 1105.0091,502.365 " fill="none" id="tictactoe.controllers.PlayController&lt;-tictactoe.distributed.PlayControllerProxy" style="stroke: #A80036; stroke-width: 1.0;"/><polygon fill="none" points="2352.9991,256.341,2372.7791,248.741,2362.0591,267.017,2352.9991,256.341" style="stroke: #A80036; stroke-width: 1.0;"/><!--MD5=[50587b03ea94c4488a76ea0ca6669284]
link tictactoe.distributed.PlayControllerProxy to utils.TCPIP--><path d="M848.2465,870.081 C848.2465,870.081 829.1411,908.705 821.9991,923.1428 " fill="none" id="tictactoe.distributed.PlayControllerProxy-utils.TCPIP" style="stroke: #A80036; stroke-width: 1.0;"/><polygon fill="#A80036" points="816.1951,934.8768,823.7711,928.5837,818.4122,930.3952,816.6006,925.0363,816.1951,934.8768" style="stroke: #A80036; stroke-width: 1.0;"/><line style="stroke: #A80036; stroke-width: 1.0;" x1="818.4122" x2="821.9591" y1="930.3952" y2="923.2244"/><polygon fill="#A80036" points="853.5671,859.325,847.3215,862.9294,848.2465,870.081,854.4921,866.4765,853.5671,859.325" style="stroke: #A80036; stroke-width: 1.0;"/><!--MD5=[6403431be7de952446031b42f62f4378]
link tictactoe.distributed.PlayControllerProxy to tictactoe.distributed.dispatchers.FrameType--><path d="M798.5661,859.107 C787.7001,867.873 776.4081,875.943 764.7571,883 C681.8081,933.2393 567.6161,949.8266 501.9521,955.3024 " fill="none" id="tictactoe.distributed.PlayControllerProxy-&gt;tictactoe.distributed.dispatchers.FrameType" style="stroke: #A80036; stroke-width: 1.0; stroke-dasharray: 7.0,7.0;"/><polygon fill="#A80036" points="496.9201,955.7081,506.2131,958.97,501.9038,955.3053,505.5686,950.996,496.9201,955.7081" style="stroke: #A80036; stroke-width: 1.0;"/><!--MD5=[967456c02912e355b60fbd7a4a66b84e]
reverse link tictactoe.controllers.ResumeController to tictactoe.distributed.ResumeControllerProxy--><path d="M2504.8091,260.045 C2492.9491,267.995 2480.0991,276.126 2467.7591,283 C2322.6391,363.839 2287.7491,395.096 2126.7591,436 C1964.7591,477.159 1521.9191,410.136 1376.7591,493 C1323.0491,523.657 1286.7691,587.412 1267.1691,630.713 " fill="none" id="tictactoe.controllers.ResumeController&lt;-tictactoe.distributed.ResumeControllerProxy" style="stroke: #A80036; stroke-width: 1.0;"/><polygon fill="none" points="2500.8491,254.266,2521.2991,248.693,2508.7891,265.799,2500.8491,254.266" style="stroke: #A80036; stroke-width: 1.0;"/><!--MD5=[d468a06e58c368ceade7fa6d3b007658]
link tictactoe.distributed.ResumeControllerProxy to utils.TCPIP--><path d="M1229.5005,732.2847 C1229.5005,732.2847 1173.5291,845.759 1121.7591,883 C1039.8891,941.8873 918.2701,955.1273 851.9961,957.7403 " fill="none" id="tictactoe.distributed.ResumeControllerProxy-utils.TCPIP" style="stroke: #A80036; stroke-width: 1.0;"/><polygon fill="#A80036" points="838.7291,958.1492,847.8483,961.8694,843.7267,957.9948,847.6013,953.8732,838.7291,958.1492" style="stroke: #A80036; stroke-width: 1.0;"/><line style="stroke: #A80036; stroke-width: 1.0;" x1="843.7267" x2="851.7226" y1="957.9948" y2="957.7487"/><polygon fill="#A80036" points="1234.1091,721.205,1228.1115,725.2087,1229.5005,732.2847,1235.498,728.2811,1234.1091,721.205" style="stroke: #A80036; stroke-width: 1.0;"/><!--MD5=[c732b874a07f213dc97cb4448785efbb]
link tictactoe.distributed.ResumeControllerProxy to tictactoe.distributed.dispatchers.FrameType--><path d="M1236.4091,721.309 C1218.9091,770.653 1183.0191,848.06 1121.7591,883 C1104.0391,893.103 775.0061,888.579 754.7571,891 C664.7001,901.769 562.0931,927.0764 501.7991,943.3212 " fill="none" id="tictactoe.distributed.ResumeControllerProxy-&gt;tictactoe.distributed.dispatchers.FrameType" style="stroke: #A80036; stroke-width: 1.0; stroke-dasharray: 7.0,7.0;"/><polygon fill="#A80036" points="496.8151,944.6693,506.5474,946.1803,501.6416,943.3636,504.4583,938.4578,496.8151,944.6693" style="stroke: #A80036; stroke-width: 1.0;"/><!--MD5=[9c4059538b8a602a801f371c1bc64d7a]
reverse link tictactoe.controllers.SaveController to tictactoe.distributed.SaveControllerProxy--><path d="M2211.7191,261.888 C2200.8791,270.258 2188.5291,278.125 2175.7591,283 C2064.2191,325.59 1736.3391,249.815 1639.7591,320 C1548.6491,386.205 1515.4991,520.368 1503.4991,603.474 " fill="none" id="tictactoe.controllers.SaveController&lt;-tictactoe.distributed.SaveControllerProxy" style="stroke: #A80036; stroke-width: 1.0;"/><polygon fill="none" points="2207.5591,256.244,2227.3491,248.679,2216.5891,266.936,2207.5591,256.244" style="stroke: #A80036; stroke-width: 1.0;"/><!--MD5=[655cd7be49e5bac3d1f07859580b185a]
link tictactoe.distributed.SaveControllerProxy to utils.TCPIP--><path d="M1469.1276,759.6108 C1469.1276,759.6108 1419.9991,854.247 1376.7591,883 C1290.7291,940.2071 971.8951,953.9181 851.3371,957.0857 " fill="none" id="tictactoe.distributed.SaveControllerProxy-utils.TCPIP" style="stroke: #A80036; stroke-width: 1.0;"/><polygon fill="#A80036" points="838.3061,957.4068,847.4022,961.1831,843.3046,957.2832,847.2044,953.1855,838.3061,957.4068" style="stroke: #A80036; stroke-width: 1.0;"/><line style="stroke: #A80036; stroke-width: 1.0;" x1="843.3046" x2="851.3026" y1="957.2832" y2="957.0865"/><polygon fill="#A80036" points="1473.7791,748.549,1467.7661,752.5294,1469.1276,759.6108,1475.1406,755.6304,1473.7791,748.549" style="stroke: #A80036; stroke-width: 1.0;"/><!--MD5=[1bfb9702a01de0e891c3730a2233ec07]
reverse link tictactoe.models.Session to tictactoe.distributed.SessionProxy--><path d="M1646.4991,422.475 C1636.7091,427.874 1626.1991,432.75 1615.7591,436 C1434.7891,492.334 924.1351,390.423 764.7571,493 C718.7371,522.619 692.7691,581.534 679.2941,624.332 " fill="none" id="tictactoe.models.Session&lt;-tictactoe.distributed.SessionProxy" style="stroke: #A80036; stroke-width: 1.0;"/><polygon fill="none" points="1642.9691,416.427,1663.7091,412.087,1650.2091,428.414,1642.9691,416.427" style="stroke: #A80036; stroke-width: 1.0;"/><!--MD5=[9f0101232deb54f0d14ed3adf2ef648c]
link tictactoe.distributed.SessionProxy to utils.TCPIP--><path d="M695.1445,738.5655 C695.1445,738.5655 740.7091,835.305 764.7571,883 C771.4531,896.281 779.0771,910.729 785.8601,923.3679 " fill="none" id="tictactoe.distributed.SessionProxy-utils.TCPIP" style="stroke: #A80036; stroke-width: 1.0;"/><polygon fill="#A80036" points="792.0471,934.8332,791.2925,925.0133,789.6723,930.4332,784.2524,928.813,792.0471,934.8332" style="stroke: #A80036; stroke-width: 1.0;"/><line style="stroke: #A80036; stroke-width: 1.0;" x1="789.6723" x2="785.8731" y1="930.4332" y2="923.3931"/><polygon fill="#A80036" points="690.0791,727.687,688.9856,734.8147,695.1445,738.5655,696.238,731.4378,690.0791,727.687" style="stroke: #A80036; stroke-width: 1.0;"/><!--MD5=[61b1700a719da9edb70e4242fee337e7]
link tictactoe.distributed.SessionProxy to tictactoe.distributed.dispatchers.FrameType--><path d="M651.6211,727.767 C636.3191,772.538 609.1271,837.546 568.7571,883 C550.1331,903.969 524.2701,921.2181 501.4111,933.8647 " fill="none" id="tictactoe.distributed.SessionProxy-&gt;tictactoe.distributed.dispatchers.FrameType" style="stroke: #A80036; stroke-width: 1.0; stroke-dasharray: 7.0,7.0;"/><polygon fill="#A80036" points="496.8821,936.3324,506.6988,935.5378,501.2724,933.9397,502.8705,928.5133,496.8821,936.3324" style="stroke: #A80036; stroke-width: 1.0;"/><!--MD5=[779dca9be042fa644f6a71966827c8a6]
reverse link tictactoe.controllers.StartController to tictactoe.distributed.StartControllerProxy--><path d="M2065.2791,261.825 C2054.5791,270.196 2042.3791,278.079 2029.7591,283 C1828.3391,361.509 1753.3091,263.069 1544.7591,320 C1432.0091,350.779 1421.4991,405.18 1308.7591,436 C1149.6591,479.493 710.7011,409.011 568.7571,493 C524.4071,519.242 493.5201,569.243 474.3481,610.205 " fill="none" id="tictactoe.controllers.StartController&lt;-tictactoe.distributed.StartControllerProxy" style="stroke: #A80036; stroke-width: 1.0;"/><polygon fill="none" points="2060.9391,256.32,2080.6891,248.625,2070.0491,266.953,2060.9391,256.32" style="stroke: #A80036; stroke-width: 1.0;"/><!--MD5=[37d6c00cb215c456ab4b34dfd0ecfc39]
link tictactoe.distributed.StartControllerProxy to utils.TCPIP--><path d="M477.318,752.7948 C477.318,752.7948 527.1291,849.521 568.7571,883 C624.2661,927.6434 706.7841,945.9158 758.0951,953.2519 " fill="none" id="tictactoe.distributed.StartControllerProxy-utils.TCPIP" style="stroke: #A80036; stroke-width: 1.0;"/><polygon fill="#A80036" points="771.0621,954.9676,762.6647,949.8213,766.1053,954.3116,761.6151,957.7521,771.0621,954.9676" style="stroke: #A80036; stroke-width: 1.0;"/><line style="stroke: #A80036; stroke-width: 1.0;" x1="766.1053" x2="758.1741" y1="954.3116" y2="953.2623"/><polygon fill="#A80036" points="472.5471,741.784,471.2623,748.8797,477.318,752.7948,478.6028,745.6991,472.5471,741.784" style="stroke: #A80036; stroke-width: 1.0;"/><!--MD5=[b5b86e59c2a07fc2d0ab6bac9119ccbf]
link tictactoe.distributed.StartControllerProxy to tictactoe.distributed.dispatchers.FrameType--><path d="M449.7571,741.82 C449.7571,801.161 449.7571,886.175 449.7571,929.8028 " fill="none" id="tictactoe.distributed.StartControllerProxy-&gt;tictactoe.distributed.dispatchers.FrameType" style="stroke: #A80036; stroke-width: 1.0; stroke-dasharray: 7.0,7.0;"/><polygon fill="#A80036" points="449.7571,934.9137,453.7571,925.9137,449.7571,929.9137,445.7571,925.9137,449.7571,934.9137" style="stroke: #A80036; stroke-width: 1.0;"/><!--MD5=[2174d0cc54ae1814438ab3c9cb4f3765]
reverse link tictactoe.TicTacToe to tictactoe.distributed.TicTacToeClient--><path d="M1245.7591,110.318 C1245.7591,127.479 1245.7591,147.46 1245.7591,165.816 " fill="none" id="tictactoe.TicTacToe&lt;-tictactoe.distributed.TicTacToeClient" style="stroke: #A80036; stroke-width: 1.0;"/><polygon fill="none" points="1238.7591,110.092,1245.7591,90.092,1252.7591,110.092,1238.7591,110.092" style="stroke: #A80036; stroke-width: 1.0;"/><!--MD5=[8f2c08e9d570d0a8e0d41648a750fb0b]
link tictactoe.distributed.TicTacToeClient to tictactoe.distributed.LogicProxy--><path d="M1245.7591,295.349 C1245.7591,295.349 1245.7591,318.97 1245.7591,329.737 " fill="none" id="tictactoe.distributed.TicTacToeClient-tictactoe.distributed.LogicProxy" style="stroke: #A80036; stroke-width: 1.0;"/><polygon fill="#A80036" points="1245.7591,342.984,1249.7591,333.984,1245.7591,337.984,1241.7591,333.984,1245.7591,342.984" style="stroke: #A80036; stroke-width: 1.0;"/><line style="stroke: #A80036; stroke-width: 1.0;" x1="1245.7591" x2="1245.7591" y1="337.984" y2="329.984"/><polygon fill="#A80036" points="1245.7591,283.349,1241.7591,289.349,1245.7591,295.349,1249.7591,289.349,1245.7591,283.349" style="stroke: #A80036; stroke-width: 1.0;"/><!--MD5=[164623042d3c8b7d1e2f43292402fefb]
link tictactoe.distributed.TicTacToeServer to tictactoe.distributed.dispatchers.DispatcherPrototype--><path d="M465.0695,252.1979 C465.0695,252.1979 171.7351,355.354 103.7568,493 C27.0033,648.413 6,739.863 103.7568,883 C127.9784,918.4656 171.6861,937.1617 211.2861,947.0169 " fill="none" id="tictactoe.distributed.TicTacToeServer-tictactoe.distributed.dispatchers.DispatcherPrototype" style="stroke: #A80036; stroke-width: 1.0;"/><polygon fill="#A80036" points="223.9691,949.9161,216.0869,944.011,219.0948,948.8018,214.304,951.8098,223.9691,949.9161" style="stroke: #A80036; stroke-width: 1.0;"/><line style="stroke: #A80036; stroke-width: 1.0;" x1="219.0948" x2="211.2961" y1="948.8018" y2="947.0191"/><polygon fill="#A80036" points="476.6611,249.094,469.8306,246.7821,465.0695,252.1979,471.8999,254.5098,476.6611,249.094" style="stroke: #A80036; stroke-width: 1.0;"/><!--MD5=[13a60f28c4503026d1169de297b7811a]
link tictactoe.distributed.TicTacToeServer to tictactoe.distributed.LogicImplementationServer--><path d="M722.2065,271.6164 C722.2065,271.6164 810.1111,303.974 851.7571,320 C872.3661,327.931 894.3231,336.621 915.2921,345.038 " fill="none" id="tictactoe.distributed.TicTacToeServer-tictactoe.distributed.LogicImplementationServer" style="stroke: #A80036; stroke-width: 1.0;"/><polygon fill="#A80036" points="927.5061,349.954,920.6499,342.8834,922.8676,348.0875,917.6635,350.3051,927.5061,349.954" style="stroke: #A80036; stroke-width: 1.0;"/><line style="stroke: #A80036; stroke-width: 1.0;" x1="922.8676" x2="915.4466" y1="348.0875" y2="345.1"/><polygon fill="#A80036" points="710.9321,267.507,715.1995,273.3198,722.2065,271.6164,717.9391,265.8035,710.9321,267.507" style="stroke: #A80036; stroke-width: 1.0;"/><!--MD5=[742a44e3ffc660d065f0d91616eda8b0]
reverse link tictactoe.distributed.TicTacToeServer to tictactoe.distributed.TicTacToeServerDB--><path d="M652.1631,299.192 C666.0261,316.684 680.2421,334.621 692.1821,349.686 " fill="none" id="tictactoe.distributed.TicTacToeServer&lt;-tictactoe.distributed.TicTacToeServerDB" style="stroke: #A80036; stroke-width: 1.0;"/><polygon fill="none" points="646.5431,303.371,639.6061,283.349,657.5151,294.675,646.5431,303.371" style="stroke: #A80036; stroke-width: 1.0;"/><!--MD5=[27fe64cd55b96f9c7bd0ea52f27aa328]
reverse link tictactoe.distributed.TicTacToeServer to tictactoe.distributed.TicTacToeServerFile--><path d="M533.2891,298.925 C518.8151,316.501 503.9561,334.544 491.4861,349.686 " fill="none" id="tictactoe.distributed.TicTacToeServer&lt;-tictactoe.distributed.TicTacToeServerFile" style="stroke: #A80036; stroke-width: 1.0;"/><polygon fill="none" points="527.9991,294.338,546.1161,283.349,538.8061,303.238,527.9991,294.338" style="stroke: #A80036; stroke-width: 1.0;"/><!--MD5=[0eabbf271905bbc4f1188683c9fce3c8]
@startuml

class  tictactoe.distributed.LogicImplementationServer{
+ LogicImplementationServer(SessionImplementationDAO)
+ createDispatchers(DispatcherPrototype): void
}
tictactoe.controllers.implementation.LogicImplementation <|-down- tictactoe.distributed.LogicImplementationServer
tictactoe.distributed.LogicImplementationServer ..> tictactoe.distributed.dispatchers.DispatcherPrototype
tictactoe.distributed.LogicImplementationServer ..> tictactoe.distributed.dispatchers.FrameType

class  tictactoe.distributed.LogicProxy{
- tcpip: TCPIP
+ LogicProxy()
+ close(): void
}
tictactoe.controllers.Logic <|-down- tictactoe.distributed.LogicProxy
tictactoe.distributed.LogicProxy *-down-> utils.TCPIP
tictactoe.distributed.LogicProxy *-down-> tictactoe.distributed.SessionProxy
tictactoe.distributed.LogicProxy *-down-> tictactoe.distributed.ResumeControllerProxy
tictactoe.distributed.LogicProxy *-down-> tictactoe.distributed.StartControllerProxy
tictactoe.distributed.LogicProxy *-down-> tictactoe.distributed.PlayControllerProxy
tictactoe.distributed.LogicProxy *-down-> tictactoe.distributed.SaveControllerProxy

class  tictactoe.distributed.PlayControllerProxy{
- tcpip: TCPIP
+ PlayControllerProxy(TCPIP, Session)
+ undo(): void
+ redo(): void
+ next(): void
+ undoable(): boolean
+ redoable(): boolean
+ getTypeOfTokenPlayerFromTurn(): PlayerType
+ getPutCoordinateError(Coordinate): Error
+ getMoveOriginCoordinateError(Coordinate): Error
+ getMoveTargetCoordinateError(Coordinate, Coordinate): Error
+ isCoordinateValid(Coordinate): boolean
+ generateRandomCoordinate(): Coordinate
+ isBoardComplete(): boolean
+ putTokenPlayerFromTurn(Coordinate): void
+ moveTokenPlayerFromTurn(Coordinate[]): void
+ changeTurn(): void
+ getTokenChar(Coordinate): char
+ isEmptyToken(Coordinate): boolean
+ getValueFromTurn(): int
+ continueState(): void
+ getCoordinateDimension(): int
+ isTicTacToe(): boolean
}
tictactoe.controllers.PlayController <|-down- tictactoe.distributed.PlayControllerProxy
tictactoe.distributed.PlayControllerProxy *-down-> utils.TCPIP
tictactoe.distributed.PlayControllerProxy ..> tictactoe.distributed.dispatchers.FrameType

class  tictactoe.distributed.ResumeControllerProxy{
- tcpip: TCPIP
+ ResumeControllerProxy(Session, TCPIP)
+ resume(): void
}
tictactoe.controllers.ResumeController <|-down- tictactoe.distributed.ResumeControllerProxy
tictactoe.distributed.ResumeControllerProxy *-down-> utils.TCPIP
tictactoe.distributed.ResumeControllerProxy ..> tictactoe.distributed.dispatchers.FrameType

class  tictactoe.distributed.SaveControllerProxy{
- tcpip: TCPIP
~ SaveControllerProxy(TCPIP, Session)
+ next(): void
+ save(): void
+ save(String): void
+ exists(String): boolean
+ hasName(): boolean
}
tictactoe.controllers.SaveController <|-down- tictactoe.distributed.SaveControllerProxy
tictactoe.distributed.SaveControllerProxy *-down-> utils.TCPIP

class  tictactoe.distributed.SessionProxy{
- tcpip: TCPIP
+ SessionProxy(TCPIP)
+ getValueState(): StateValue
+ getWidth(): int
}
tictactoe.models.Session <|-down- tictactoe.distributed.SessionProxy
tictactoe.distributed.SessionProxy *-down-> utils.TCPIP
tictactoe.distributed.SessionProxy..> tictactoe.distributed.dispatchers.FrameType

class  tictactoe.distributed.StartControllerProxy{
- tcpip: TCPIP
+ StartControllerProxy(TCPIP, Session)
+ start(): void
+ start(String): void
+ createPlayers(int): void
+ getGamesNames(): String[]
}
tictactoe.controllers.StartController <|-down- tictactoe.distributed.StartControllerProxy
tictactoe.distributed.StartControllerProxy *-down-> utils.TCPIP
tictactoe.distributed.StartControllerProxy ..> tictactoe.distributed.dispatchers.FrameType

class  tictactoe.distributed.TicTacToeClient{
- logicProxy: LogicProxy
+ TicTacToeClient()
+ {static} main(String[]): void
# createLogic(): Logic
# play(): void
}
tictactoe.TicTacToe <|-down- tictactoe.distributed.TicTacToeClient
tictactoe.distributed.TicTacToeClient *-down-> tictactoe.distributed.LogicProxy

class  tictactoe.distributed.TicTacToeServer{
- dispatcherPrototype: DispatcherPrototype
- logic: LogicImplementationServer
# TicTacToeServer()
# serve(): void
# {abstract} createDAO(): SessionImplementationDAO
}
tictactoe.distributed.TicTacToeServer *-down-> tictactoe.distributed.dispatchers.DispatcherPrototype
tictactoe.distributed.TicTacToeServer *-down-> tictactoe.distributed.LogicImplementationServer

class  tictactoe.distributed.TicTacToeServerDB{
+ createDAO(): SessionImplementationDAO
+ {static} main(String[]): void
}
tictactoe.distributed.TicTacToeServer <|-down- tictactoe.distributed.TicTacToeServerDB

class  tictactoe.distributed.TicTacToeServerFile{
+ createDAO(): SessionImplementationDAO
+ {static} main(String[]): void
}
tictactoe.distributed.TicTacToeServer <|-down- tictactoe.distributed.TicTacToeServerFile

@enduml

PlantUML version 1.2020.15(Sun Jun 28 13:39:45 CEST 2020)
(GPL source distribution)
Java Runtime: Java(TM) SE Runtime Environment
JVM: Java HotSpot(TM) 64-Bit Server VM
Default Encoding: windows-1252
Language: es
Country: ES
--></g></svg>