<?xml version="1.0" encoding="UTF-8" standalone="no"?><svg xmlns="http://www.w3.org/2000/svg" xmlns:xlink="http://www.w3.org/1999/xlink" contentScriptType="application/ecmascript" contentStyleType="text/css" height="790px" preserveAspectRatio="none" style="width:1445px;height:790px;" version="1.1" viewBox="0 0 1445 790" width="1445px" zoomAndPan="magnify"><defs><filter height="300%" id="fs8ataouwwdz6" width="300%" x="-1" y="-1"><feGaussianBlur result="blurOut" stdDeviation="2.0"/><feColorMatrix in="blurOut" result="blurOut2" type="matrix" values="0 0 0 0 0 0 0 0 0 0 0 0 0 0 0 0 0 0 .4 0"/><feOffset dx="4.0" dy="4.0" in="blurOut2" result="blurOut3"/><feBlend in="SourceGraphic" in2="blurOut3" mode="normal"/></filter></defs><g><!--MD5=[64182ab34c08ac367bbf699869515711]
cluster tictactoe.views.console--><polygon fill="#FFFFFF" filter="url(#fs8ataouwwdz6)" points="346,130,518,130,525,153.6094,1104,153.6094,1104,654,346,654,346,130" style="stroke: #000000; stroke-width: 1.5;"/><line style="stroke: #000000; stroke-width: 1.5;" x1="346" x2="525" y1="153.6094" y2="153.6094"/><text fill="#000000" font-family="sans-serif" font-size="14" font-weight="bold" lengthAdjust="spacingAndGlyphs" textLength="166" x="350" y="146.5332">tictactoe.views.console</text><!--MD5=[c52f45833d539af9e29a9d34b8b7302b]
cluster utils--><polygon fill="#FFFFFF" filter="url(#fs8ataouwwdz6)" points="16,356,52,356,59,379.6094,322,379.6094,322,456,16,456,16,356" style="stroke: #000000; stroke-width: 1.5;"/><line style="stroke: #000000; stroke-width: 1.5;" x1="16" x2="59" y1="379.6094" y2="379.6094"/><text fill="#000000" font-family="sans-serif" font-size="14" font-weight="bold" lengthAdjust="spacingAndGlyphs" textLength="30" x="20" y="372.5332">utils</text><!--MD5=[ee7e9a007a7c4d40c0679a27f272732d]
cluster tictactoe.controllers--><polygon fill="#FFFFFF" filter="url(#fs8ataouwwdz6)" points="609,678,757,678,764,701.6094,767,701.6094,767,778,609,778,609,678" style="stroke: #000000; stroke-width: 1.5;"/><line style="stroke: #000000; stroke-width: 1.5;" x1="609" x2="764" y1="701.6094" y2="701.6094"/><text fill="#000000" font-family="sans-serif" font-size="14" font-weight="bold" lengthAdjust="spacingAndGlyphs" textLength="142" x="613" y="694.5332">tictactoe.controllers</text><!--MD5=[f4e83a21a957c5b9ba9691e6361db36b]
cluster tictactoe.views--><polygon fill="#FFFFFF" filter="url(#fs8ataouwwdz6)" points="600,6,712,6,719,29.6094,938,29.6094,938,106,600,106,600,6" style="stroke: #000000; stroke-width: 1.5;"/><line style="stroke: #000000; stroke-width: 1.5;" x1="600" x2="719" y1="29.6094" y2="29.6094"/><text fill="#000000" font-family="sans-serif" font-size="14" font-weight="bold" lengthAdjust="spacingAndGlyphs" textLength="106" x="604" y="22.5332">tictactoe.views</text><!--MD5=[2d083dca3cab6023baf6a9cac5f9557f]
cluster tictactoe.types--><polygon fill="#FFFFFF" filter="url(#fs8ataouwwdz6)" points="1128,519.5,1237,519.5,1244,543.1094,1347,543.1094,1347,619.5,1128,619.5,1128,519.5" style="stroke: #000000; stroke-width: 1.5;"/><line style="stroke: #000000; stroke-width: 1.5;" x1="1128" x2="1244" y1="543.1094" y2="543.1094"/><text fill="#000000" font-family="sans-serif" font-size="14" font-weight="bold" lengthAdjust="spacingAndGlyphs" textLength="103" x="1132" y="536.0332">tictactoe.types</text><!--MD5=[270aad5bca7cd81b5a24665b2403b70b]
class tictactoe.views.console.BoardView--><rect fill="#FEFECE" filter="url(#fs8ataouwwdz6)" height="117.1797" id="tictactoe.views.console.BoardView" style="stroke: #A80036; stroke-width: 1.5;" width="201" x="362.5" y="521"/><ellipse cx="429.25" cy="537" fill="#ADD1B2" rx="11" ry="11" style="stroke: #A80036; stroke-width: 1.0;"/><path d="M432.0156,532.875 Q432.1719,532.6563 432.3594,532.5469 Q432.5469,532.4375 432.7656,532.4375 Q433.1406,532.4375 433.375,532.7031 Q433.6094,532.9531 433.6094,533.5625 L433.6094,535.0156 Q433.6094,535.625 433.375,535.8906 Q433.1406,536.1563 432.7656,536.1563 Q432.4219,536.1563 432.2188,535.9531 Q432.0156,535.7656 431.9063,535.25 Q431.8594,534.8906 431.6719,534.7031 Q431.3438,534.3281 430.7344,534.1094 Q430.125,533.8906 429.5,533.8906 Q428.7344,533.8906 428.0938,534.2188 Q427.4688,534.5469 426.9688,535.2969 Q426.4844,536.0469 426.4844,537.0781 L426.4844,538.1719 Q426.4844,539.4063 427.375,540.2344 Q428.2656,541.0469 429.8594,541.0469 Q430.7969,541.0469 431.4531,540.7969 Q431.8438,540.6406 432.2656,540.2031 Q432.5313,539.9375 432.6719,539.8594 Q432.8281,539.7813 433.0313,539.7813 Q433.3594,539.7813 433.6094,540.0469 Q433.875,540.2969 433.875,540.6406 Q433.875,540.9844 433.5313,541.3906 Q433.0313,541.9688 432.2344,542.2969 Q431.1563,542.75 429.8594,542.75 Q428.3438,542.75 427.1406,542.125 Q426.1563,541.625 425.4688,540.5625 Q424.7813,539.4844 424.7813,538.2031 L424.7813,537.0469 Q424.7813,535.7188 425.3906,534.5781 Q426.0156,533.4219 427.1094,532.8125 Q428.2031,532.1875 429.4375,532.1875 Q430.1719,532.1875 430.8125,532.3594 Q431.4688,532.5156 432.0156,532.875 Z "/><text fill="#000000" font-family="sans-serif" font-size="12" lengthAdjust="spacingAndGlyphs" textLength="59" x="449.75" y="541.9102">BoardView</text><line style="stroke: #A80036; stroke-width: 1.5;" x1="363.5" x2="562.5" y1="553" y2="553"/><rect fill="none" height="6" style="stroke: #C82930; stroke-width: 1.0;" width="6" x="370.5" y="561"/><text fill="#000000" font-family="sans-serif" font-size="11" lengthAdjust="spacingAndGlyphs" textLength="54" x="382.5" y="568.4189">logic: Logic</text><line style="stroke: #A80036; stroke-width: 1.5;" x1="363.5" x2="562.5" y1="574.8359" y2="574.8359"/><polygon fill="#4177AF" points="373.5,581.8359,369.5,587.8359,377.5,587.8359" style="stroke: #1963A0; stroke-width: 1.0;"/><text fill="#000000" font-family="sans-serif" font-size="11" lengthAdjust="spacingAndGlyphs" textLength="89" x="382.5" y="590.2549">BoardView(Logic)</text><polygon fill="#4177AF" points="373.5,595.6719,369.5,601.6719,377.5,601.6719" style="stroke: #1963A0; stroke-width: 1.0;"/><text fill="#000000" font-family="sans-serif" font-size="11" lengthAdjust="spacingAndGlyphs" textLength="59" x="382.5" y="604.0908">write(): void</text><rect fill="#F24D5C" height="6" style="stroke: #C82930; stroke-width: 1.0;" width="6" x="370.5" y="610.5078"/><text fill="#000000" font-family="sans-serif" font-size="11" lengthAdjust="spacingAndGlyphs" textLength="118" x="382.5" y="617.9268">printRowBoard(int): void</text><rect fill="#F24D5C" height="6" style="stroke: #C82930; stroke-width: 1.0;" width="6" x="370.5" y="624.3438"/><text fill="#000000" font-family="sans-serif" font-size="11" lengthAdjust="spacingAndGlyphs" textLength="175" x="382.5" y="631.7627">printSquareValueBoard(int, int): void</text><!--MD5=[bde0c8ed193d8d2dbac1dee471354ab0]
class tictactoe.views.console.ConsoleView--><rect fill="#FEFECE" filter="url(#fs8ataouwwdz6)" height="144.8516" id="tictactoe.views.console.ConsoleView" style="stroke: #A80036; stroke-width: 1.5;" width="141" x="462.5" y="166"/><ellipse cx="493.7" cy="182" fill="#ADD1B2" rx="11" ry="11" style="stroke: #A80036; stroke-width: 1.0;"/><path d="M496.4656,177.875 Q496.6219,177.6563 496.8094,177.5469 Q496.9969,177.4375 497.2156,177.4375 Q497.5906,177.4375 497.825,177.7031 Q498.0594,177.9531 498.0594,178.5625 L498.0594,180.0156 Q498.0594,180.625 497.825,180.8906 Q497.5906,181.1563 497.2156,181.1563 Q496.8719,181.1563 496.6688,180.9531 Q496.4656,180.7656 496.3563,180.25 Q496.3094,179.8906 496.1219,179.7031 Q495.7938,179.3281 495.1844,179.1094 Q494.575,178.8906 493.95,178.8906 Q493.1844,178.8906 492.5438,179.2188 Q491.9188,179.5469 491.4188,180.2969 Q490.9344,181.0469 490.9344,182.0781 L490.9344,183.1719 Q490.9344,184.4063 491.825,185.2344 Q492.7156,186.0469 494.3094,186.0469 Q495.2469,186.0469 495.9031,185.7969 Q496.2938,185.6406 496.7156,185.2031 Q496.9813,184.9375 497.1219,184.8594 Q497.2781,184.7813 497.4813,184.7813 Q497.8094,184.7813 498.0594,185.0469 Q498.325,185.2969 498.325,185.6406 Q498.325,185.9844 497.9813,186.3906 Q497.4813,186.9688 496.6844,187.2969 Q495.6063,187.75 494.3094,187.75 Q492.7938,187.75 491.5906,187.125 Q490.6063,186.625 489.9188,185.5625 Q489.2313,184.4844 489.2313,183.2031 L489.2313,182.0469 Q489.2313,180.7188 489.8406,179.5781 Q490.4656,178.4219 491.5594,177.8125 Q492.6531,177.1875 493.8875,177.1875 Q494.6219,177.1875 495.2625,177.3594 Q495.9188,177.5156 496.4656,177.875 Z "/><text fill="#000000" font-family="sans-serif" font-size="12" lengthAdjust="spacingAndGlyphs" textLength="73" x="511.3" y="186.9102">ConsoleView</text><line style="stroke: #A80036; stroke-width: 1.5;" x1="463.5" x2="602.5" y1="198" y2="198"/><rect fill="none" height="6" style="stroke: #C82930; stroke-width: 1.0;" width="6" x="470.5" y="206"/><text fill="#000000" font-family="sans-serif" font-size="11" lengthAdjust="spacingAndGlyphs" textLength="103" x="482.5" y="213.4189">startView: StartView</text><rect fill="none" height="6" style="stroke: #C82930; stroke-width: 1.0;" width="6" x="470.5" y="219.8359"/><text fill="#000000" font-family="sans-serif" font-size="11" lengthAdjust="spacingAndGlyphs" textLength="98" x="482.5" y="227.2549">playView: PlayView</text><rect fill="none" height="6" style="stroke: #C82930; stroke-width: 1.0;" width="6" x="470.5" y="233.6719"/><text fill="#000000" font-family="sans-serif" font-size="11" lengthAdjust="spacingAndGlyphs" textLength="115" x="482.5" y="241.0908">resultView: ResultView</text><line style="stroke: #A80036; stroke-width: 1.5;" x1="463.5" x2="602.5" y1="247.5078" y2="247.5078"/><ellipse cx="473.5" cy="258.5078" fill="#84BE84" rx="3" ry="3" style="stroke: #038048; stroke-width: 1.0;"/><text fill="#000000" font-family="sans-serif" font-size="11" lengthAdjust="spacingAndGlyphs" textLength="99" x="482.5" y="262.9268">ConsoleView(Logic)</text><polygon fill="#FFFF44" points="473.5,267.3438,477.5,271.3438,473.5,275.3438,469.5,271.3438" style="stroke: #B38D22; stroke-width: 1.0;"/><text fill="#000000" font-family="sans-serif" font-size="11" lengthAdjust="spacingAndGlyphs" textLength="56" x="482.5" y="276.7627">start(): void</text><polygon fill="#FFFF44" points="473.5,281.1797,477.5,285.1797,473.5,289.1797,469.5,285.1797" style="stroke: #B38D22; stroke-width: 1.0;"/><text fill="#000000" font-family="sans-serif" font-size="11" lengthAdjust="spacingAndGlyphs" textLength="72" x="482.5" y="290.5986">play(): boolean</text><polygon fill="#FFFF44" points="473.5,295.0156,477.5,299.0156,473.5,303.0156,469.5,299.0156" style="stroke: #B38D22; stroke-width: 1.0;"/><text fill="#000000" font-family="sans-serif" font-size="11" lengthAdjust="spacingAndGlyphs" textLength="61" x="482.5" y="304.4346">result(): void</text><!--MD5=[54aa299435631381f3c0c028f26a058f]
class tictactoe.views.console.StartView--><rect fill="#FEFECE" filter="url(#fs8ataouwwdz6)" height="89.5078" id="tictactoe.views.console.StartView" style="stroke: #A80036; stroke-width: 1.5;" width="109" x="511.5" y="371"/><ellipse cx="538.2" cy="387" fill="#ADD1B2" rx="11" ry="11" style="stroke: #A80036; stroke-width: 1.0;"/><path d="M540.9656,382.875 Q541.1219,382.6563 541.3094,382.5469 Q541.4969,382.4375 541.7156,382.4375 Q542.0906,382.4375 542.325,382.7031 Q542.5594,382.9531 542.5594,383.5625 L542.5594,385.0156 Q542.5594,385.625 542.325,385.8906 Q542.0906,386.1563 541.7156,386.1563 Q541.3719,386.1563 541.1688,385.9531 Q540.9656,385.7656 540.8563,385.25 Q540.8094,384.8906 540.6219,384.7031 Q540.2938,384.3281 539.6844,384.1094 Q539.075,383.8906 538.45,383.8906 Q537.6844,383.8906 537.0438,384.2188 Q536.4188,384.5469 535.9188,385.2969 Q535.4344,386.0469 535.4344,387.0781 L535.4344,388.1719 Q535.4344,389.4063 536.325,390.2344 Q537.2156,391.0469 538.8094,391.0469 Q539.7469,391.0469 540.4031,390.7969 Q540.7938,390.6406 541.2156,390.2031 Q541.4813,389.9375 541.6219,389.8594 Q541.7781,389.7813 541.9813,389.7813 Q542.3094,389.7813 542.5594,390.0469 Q542.825,390.2969 542.825,390.6406 Q542.825,390.9844 542.4813,391.3906 Q541.9813,391.9688 541.1844,392.2969 Q540.1063,392.75 538.8094,392.75 Q537.2938,392.75 536.0906,392.125 Q535.1063,391.625 534.4188,390.5625 Q533.7313,389.4844 533.7313,388.2031 L533.7313,387.0469 Q533.7313,385.7188 534.3406,384.5781 Q534.9656,383.4219 536.0594,382.8125 Q537.1531,382.1875 538.3875,382.1875 Q539.1219,382.1875 539.7625,382.3594 Q540.4188,382.5156 540.9656,382.875 Z "/><text fill="#000000" font-family="sans-serif" font-size="12" lengthAdjust="spacingAndGlyphs" textLength="51" x="554.8" y="391.9102">StartView</text><line style="stroke: #A80036; stroke-width: 1.5;" x1="512.5" x2="619.5" y1="403" y2="403"/><polygon fill="none" points="522.5,410,518.5,416,526.5,416" style="stroke: #1963A0; stroke-width: 1.0;"/><text fill="#000000" font-family="sans-serif" font-size="11" lengthAdjust="spacingAndGlyphs" textLength="54" x="531.5" y="418.4189">logic: Logic</text><line style="stroke: #A80036; stroke-width: 1.5;" x1="512.5" x2="619.5" y1="424.8359" y2="424.8359"/><polygon fill="#4177AF" points="522.5,431.8359,518.5,437.8359,526.5,437.8359" style="stroke: #1963A0; stroke-width: 1.0;"/><text fill="#000000" font-family="sans-serif" font-size="11" lengthAdjust="spacingAndGlyphs" textLength="83" x="531.5" y="440.2549">StartView(Logic)</text><polygon fill="#4177AF" points="522.5,445.6719,518.5,451.6719,526.5,451.6719" style="stroke: #1963A0; stroke-width: 1.0;"/><text fill="#000000" font-family="sans-serif" font-size="11" lengthAdjust="spacingAndGlyphs" textLength="70" x="531.5" y="454.0908">interact(): void</text><!--MD5=[0158df0baddf48f83142f472e341eacc]
class tictactoe.views.console.PlayView--><rect fill="#FEFECE" filter="url(#fs8ataouwwdz6)" height="89.5078" id="tictactoe.views.console.PlayView" style="stroke: #A80036; stroke-width: 1.5;" width="114" x="362" y="371"/><ellipse cx="391.85" cy="387" fill="#ADD1B2" rx="11" ry="11" style="stroke: #A80036; stroke-width: 1.0;"/><path d="M394.6156,382.875 Q394.7719,382.6563 394.9594,382.5469 Q395.1469,382.4375 395.3656,382.4375 Q395.7406,382.4375 395.975,382.7031 Q396.2094,382.9531 396.2094,383.5625 L396.2094,385.0156 Q396.2094,385.625 395.975,385.8906 Q395.7406,386.1563 395.3656,386.1563 Q395.0219,386.1563 394.8188,385.9531 Q394.6156,385.7656 394.5063,385.25 Q394.4594,384.8906 394.2719,384.7031 Q393.9438,384.3281 393.3344,384.1094 Q392.725,383.8906 392.1,383.8906 Q391.3344,383.8906 390.6938,384.2188 Q390.0688,384.5469 389.5688,385.2969 Q389.0844,386.0469 389.0844,387.0781 L389.0844,388.1719 Q389.0844,389.4063 389.975,390.2344 Q390.8656,391.0469 392.4594,391.0469 Q393.3969,391.0469 394.0531,390.7969 Q394.4438,390.6406 394.8656,390.2031 Q395.1313,389.9375 395.2719,389.8594 Q395.4281,389.7813 395.6313,389.7813 Q395.9594,389.7813 396.2094,390.0469 Q396.475,390.2969 396.475,390.6406 Q396.475,390.9844 396.1313,391.3906 Q395.6313,391.9688 394.8344,392.2969 Q393.7563,392.75 392.4594,392.75 Q390.9438,392.75 389.7406,392.125 Q388.7563,391.625 388.0688,390.5625 Q387.3813,389.4844 387.3813,388.2031 L387.3813,387.0469 Q387.3813,385.7188 387.9906,384.5781 Q388.6156,383.4219 389.7094,382.8125 Q390.8031,382.1875 392.0375,382.1875 Q392.7719,382.1875 393.4125,382.3594 Q394.0688,382.5156 394.6156,382.875 Z "/><text fill="#000000" font-family="sans-serif" font-size="12" lengthAdjust="spacingAndGlyphs" textLength="49" x="409.15" y="391.9102">PlayView</text><line style="stroke: #A80036; stroke-width: 1.5;" x1="363" x2="475" y1="403" y2="403"/><polygon fill="none" points="373,410,369,416,377,416" style="stroke: #1963A0; stroke-width: 1.0;"/><text fill="#000000" font-family="sans-serif" font-size="11" lengthAdjust="spacingAndGlyphs" textLength="54" x="382" y="418.4189">logic: Logic</text><line style="stroke: #A80036; stroke-width: 1.5;" x1="363" x2="475" y1="424.8359" y2="424.8359"/><polygon fill="#4177AF" points="373,431.8359,369,437.8359,377,437.8359" style="stroke: #1963A0; stroke-width: 1.0;"/><text fill="#000000" font-family="sans-serif" font-size="11" lengthAdjust="spacingAndGlyphs" textLength="80" x="382" y="440.2549">PlayView(Logic)</text><polygon fill="#4177AF" points="373,445.6719,369,451.6719,377,451.6719" style="stroke: #1963A0; stroke-width: 1.0;"/><text fill="#000000" font-family="sans-serif" font-size="11" lengthAdjust="spacingAndGlyphs" textLength="88" x="382" y="454.0908">interact(): boolean</text><!--MD5=[4ad8229f56e3458317cb6855b3145039]
class tictactoe.views.console.ResultView--><rect fill="#FEFECE" filter="url(#fs8ataouwwdz6)" height="89.5078" id="tictactoe.views.console.ResultView" style="stroke: #A80036; stroke-width: 1.5;" width="116" x="656" y="371"/><ellipse cx="680.9" cy="387" fill="#ADD1B2" rx="11" ry="11" style="stroke: #A80036; stroke-width: 1.0;"/><path d="M683.6656,382.875 Q683.8219,382.6563 684.0094,382.5469 Q684.1969,382.4375 684.4156,382.4375 Q684.7906,382.4375 685.025,382.7031 Q685.2594,382.9531 685.2594,383.5625 L685.2594,385.0156 Q685.2594,385.625 685.025,385.8906 Q684.7906,386.1563 684.4156,386.1563 Q684.0719,386.1563 683.8688,385.9531 Q683.6656,385.7656 683.5563,385.25 Q683.5094,384.8906 683.3219,384.7031 Q682.9938,384.3281 682.3844,384.1094 Q681.775,383.8906 681.15,383.8906 Q680.3844,383.8906 679.7438,384.2188 Q679.1188,384.5469 678.6188,385.2969 Q678.1344,386.0469 678.1344,387.0781 L678.1344,388.1719 Q678.1344,389.4063 679.025,390.2344 Q679.9156,391.0469 681.5094,391.0469 Q682.4469,391.0469 683.1031,390.7969 Q683.4938,390.6406 683.9156,390.2031 Q684.1813,389.9375 684.3219,389.8594 Q684.4781,389.7813 684.6813,389.7813 Q685.0094,389.7813 685.2594,390.0469 Q685.525,390.2969 685.525,390.6406 Q685.525,390.9844 685.1813,391.3906 Q684.6813,391.9688 683.8844,392.2969 Q682.8063,392.75 681.5094,392.75 Q679.9938,392.75 678.7906,392.125 Q677.8063,391.625 677.1188,390.5625 Q676.4313,389.4844 676.4313,388.2031 L676.4313,387.0469 Q676.4313,385.7188 677.0406,384.5781 Q677.6656,383.4219 678.7594,382.8125 Q679.8531,382.1875 681.0875,382.1875 Q681.8219,382.1875 682.4625,382.3594 Q683.1188,382.5156 683.6656,382.875 Z "/><text fill="#000000" font-family="sans-serif" font-size="12" lengthAdjust="spacingAndGlyphs" textLength="62" x="697.1" y="391.9102">ResultView</text><line style="stroke: #A80036; stroke-width: 1.5;" x1="657" x2="771" y1="403" y2="403"/><polygon fill="none" points="667,410,663,416,671,416" style="stroke: #1963A0; stroke-width: 1.0;"/><text fill="#000000" font-family="sans-serif" font-size="11" lengthAdjust="spacingAndGlyphs" textLength="54" x="676" y="418.4189">logic: Logic</text><line style="stroke: #A80036; stroke-width: 1.5;" x1="657" x2="771" y1="424.8359" y2="424.8359"/><polygon fill="#4177AF" points="667,431.8359,663,437.8359,671,437.8359" style="stroke: #1963A0; stroke-width: 1.0;"/><text fill="#000000" font-family="sans-serif" font-size="11" lengthAdjust="spacingAndGlyphs" textLength="90" x="676" y="440.2549">ResultView(Logic)</text><polygon fill="#4177AF" points="667,445.6719,663,451.6719,671,451.6719" style="stroke: #1963A0; stroke-width: 1.0;"/><text fill="#000000" font-family="sans-serif" font-size="11" lengthAdjust="spacingAndGlyphs" textLength="70" x="676" y="454.0908">interact(): void</text><!--MD5=[8830b246a550294711e6eb5af1606829]
class tictactoe.views.console.CoordinateView--><rect fill="#FEFECE" filter="url(#fs8ataouwwdz6)" height="89.5078" id="tictactoe.views.console.CoordinateView" style="stroke: #A80036; stroke-width: 1.5;" width="138" x="807" y="371"/><ellipse cx="830.55" cy="387" fill="#ADD1B2" rx="11" ry="11" style="stroke: #A80036; stroke-width: 1.0;"/><path d="M833.3156,382.875 Q833.4719,382.6563 833.6594,382.5469 Q833.8469,382.4375 834.0656,382.4375 Q834.4406,382.4375 834.675,382.7031 Q834.9094,382.9531 834.9094,383.5625 L834.9094,385.0156 Q834.9094,385.625 834.675,385.8906 Q834.4406,386.1563 834.0656,386.1563 Q833.7219,386.1563 833.5188,385.9531 Q833.3156,385.7656 833.2063,385.25 Q833.1594,384.8906 832.9719,384.7031 Q832.6438,384.3281 832.0344,384.1094 Q831.425,383.8906 830.8,383.8906 Q830.0344,383.8906 829.3938,384.2188 Q828.7688,384.5469 828.2688,385.2969 Q827.7844,386.0469 827.7844,387.0781 L827.7844,388.1719 Q827.7844,389.4063 828.675,390.2344 Q829.5656,391.0469 831.1594,391.0469 Q832.0969,391.0469 832.7531,390.7969 Q833.1438,390.6406 833.5656,390.2031 Q833.8313,389.9375 833.9719,389.8594 Q834.1281,389.7813 834.3313,389.7813 Q834.6594,389.7813 834.9094,390.0469 Q835.175,390.2969 835.175,390.6406 Q835.175,390.9844 834.8313,391.3906 Q834.3313,391.9688 833.5344,392.2969 Q832.4563,392.75 831.1594,392.75 Q829.6438,392.75 828.4406,392.125 Q827.4563,391.625 826.7688,390.5625 Q826.0813,389.4844 826.0813,388.2031 L826.0813,387.0469 Q826.0813,385.7188 826.6906,384.5781 Q827.3156,383.4219 828.4094,382.8125 Q829.5031,382.1875 830.7375,382.1875 Q831.4719,382.1875 832.1125,382.3594 Q832.7688,382.5156 833.3156,382.875 Z "/><text fill="#000000" font-family="sans-serif" font-size="12" lengthAdjust="spacingAndGlyphs" textLength="87" x="846.45" y="391.9102">CoordinateView</text><line style="stroke: #A80036; stroke-width: 1.5;" x1="808" x2="944" y1="403" y2="403"/><polygon fill="none" points="818,410,814,416,822,416" style="stroke: #1963A0; stroke-width: 1.0;"/><text fill="#000000" font-family="sans-serif" font-size="11" lengthAdjust="spacingAndGlyphs" textLength="54" x="827" y="418.4189">logic: Logic</text><line style="stroke: #A80036; stroke-width: 1.5;" x1="808" x2="944" y1="424.8359" y2="424.8359"/><polygon fill="#4177AF" points="818,431.8359,814,437.8359,822,437.8359" style="stroke: #1963A0; stroke-width: 1.0;"/><text fill="#000000" font-family="sans-serif" font-size="11" lengthAdjust="spacingAndGlyphs" textLength="112" x="827" y="440.2549">CoordinateView(Logic)</text><polygon fill="#4177AF" points="818,445.6719,814,451.6719,822,451.6719" style="stroke: #1963A0; stroke-width: 1.0;"/><text fill="#000000" font-family="sans-serif" font-size="11" lengthAdjust="spacingAndGlyphs" textLength="81" x="827" y="454.0908">read(String): int[]</text><!--MD5=[1ca4e66fd27a79cb5d7093d90b3139a4]
class tictactoe.views.console.ErrorView--><rect fill="#FEFECE" filter="url(#fs8ataouwwdz6)" height="75.6719" id="tictactoe.views.console.ErrorView" style="stroke: #A80036; stroke-width: 1.5;" width="108" x="980" y="378"/><ellipse cx="1005.35" cy="394" fill="#ADD1B2" rx="11" ry="11" style="stroke: #A80036; stroke-width: 1.0;"/><path d="M1008.1156,389.875 Q1008.2719,389.6563 1008.4594,389.5469 Q1008.6469,389.4375 1008.8656,389.4375 Q1009.2406,389.4375 1009.475,389.7031 Q1009.7094,389.9531 1009.7094,390.5625 L1009.7094,392.0156 Q1009.7094,392.625 1009.475,392.8906 Q1009.2406,393.1563 1008.8656,393.1563 Q1008.5219,393.1563 1008.3188,392.9531 Q1008.1156,392.7656 1008.0063,392.25 Q1007.9594,391.8906 1007.7719,391.7031 Q1007.4438,391.3281 1006.8344,391.1094 Q1006.225,390.8906 1005.6,390.8906 Q1004.8344,390.8906 1004.1938,391.2188 Q1003.5688,391.5469 1003.0688,392.2969 Q1002.5844,393.0469 1002.5844,394.0781 L1002.5844,395.1719 Q1002.5844,396.4063 1003.475,397.2344 Q1004.3656,398.0469 1005.9594,398.0469 Q1006.8969,398.0469 1007.5531,397.7969 Q1007.9438,397.6406 1008.3656,397.2031 Q1008.6313,396.9375 1008.7719,396.8594 Q1008.9281,396.7813 1009.1313,396.7813 Q1009.4594,396.7813 1009.7094,397.0469 Q1009.975,397.2969 1009.975,397.6406 Q1009.975,397.9844 1009.6313,398.3906 Q1009.1313,398.9688 1008.3344,399.2969 Q1007.2563,399.75 1005.9594,399.75 Q1004.4438,399.75 1003.2406,399.125 Q1002.2563,398.625 1001.5688,397.5625 Q1000.8813,396.4844 1000.8813,395.2031 L1000.8813,394.0469 Q1000.8813,392.7188 1001.4906,391.5781 Q1002.1156,390.4219 1003.2094,389.8125 Q1004.3031,389.1875 1005.5375,389.1875 Q1006.2719,389.1875 1006.9125,389.3594 Q1007.5688,389.5156 1008.1156,389.875 Z "/><text fill="#000000" font-family="sans-serif" font-size="12" lengthAdjust="spacingAndGlyphs" textLength="53" x="1021.65" y="398.9102">ErrorView</text><line style="stroke: #A80036; stroke-width: 1.5;" x1="981" x2="1087" y1="410" y2="410"/><line style="stroke: #A80036; stroke-width: 1.5;" x1="981" x2="1087" y1="418" y2="418"/><polygon fill="#4177AF" points="991,425,987,431,995,431" style="stroke: #1963A0; stroke-width: 1.0;"/><text fill="#000000" font-family="sans-serif" font-size="11" lengthAdjust="spacingAndGlyphs" textLength="82" x="1000" y="433.4189">ErrorView(Error)</text><polygon fill="#4177AF" points="991,438.8359,987,444.8359,995,444.8359" style="stroke: #1963A0; stroke-width: 1.0;"/><text fill="#000000" font-family="sans-serif" font-size="11" lengthAdjust="spacingAndGlyphs" textLength="67" x="1000" y="447.2549">writeln(): void</text><!--MD5=[4afe6aabb27d783e4a9a9dcc50c35fae]
class tictactoe.views.console.MachinePlayerView--><rect fill="#FEFECE" filter="url(#fs8ataouwwdz6)" height="89.5078" id="tictactoe.views.console.MachinePlayerView" style="stroke: #A80036; stroke-width: 1.5;" width="181" x="906.5" y="193.5"/><ellipse cx="940.85" cy="209.5" fill="#ADD1B2" rx="11" ry="11" style="stroke: #A80036; stroke-width: 1.0;"/><path d="M943.6156,205.375 Q943.7719,205.1563 943.9594,205.0469 Q944.1469,204.9375 944.3656,204.9375 Q944.7406,204.9375 944.975,205.2031 Q945.2094,205.4531 945.2094,206.0625 L945.2094,207.5156 Q945.2094,208.125 944.975,208.3906 Q944.7406,208.6563 944.3656,208.6563 Q944.0219,208.6563 943.8188,208.4531 Q943.6156,208.2656 943.5063,207.75 Q943.4594,207.3906 943.2719,207.2031 Q942.9438,206.8281 942.3344,206.6094 Q941.725,206.3906 941.1,206.3906 Q940.3344,206.3906 939.6938,206.7188 Q939.0688,207.0469 938.5688,207.7969 Q938.0844,208.5469 938.0844,209.5781 L938.0844,210.6719 Q938.0844,211.9063 938.975,212.7344 Q939.8656,213.5469 941.4594,213.5469 Q942.3969,213.5469 943.0531,213.2969 Q943.4438,213.1406 943.8656,212.7031 Q944.1313,212.4375 944.2719,212.3594 Q944.4281,212.2813 944.6313,212.2813 Q944.9594,212.2813 945.2094,212.5469 Q945.475,212.7969 945.475,213.1406 Q945.475,213.4844 945.1313,213.8906 Q944.6313,214.4688 943.8344,214.7969 Q942.7563,215.25 941.4594,215.25 Q939.9438,215.25 938.7406,214.625 Q937.7563,214.125 937.0688,213.0625 Q936.3813,211.9844 936.3813,210.7031 L936.3813,209.5469 Q936.3813,208.2188 936.9906,207.0781 Q937.6156,205.9219 938.7094,205.3125 Q939.8031,204.6875 941.0375,204.6875 Q941.7719,204.6875 942.4125,204.8594 Q943.0688,205.0156 943.6156,205.375 Z "/><text fill="#000000" font-family="sans-serif" font-size="12" lengthAdjust="spacingAndGlyphs" textLength="106" x="959.15" y="214.4102">MachinePlayerView</text><line style="stroke: #A80036; stroke-width: 1.5;" x1="907.5" x2="1086.5" y1="225.5" y2="225.5"/><line style="stroke: #A80036; stroke-width: 1.5;" x1="907.5" x2="1086.5" y1="233.5" y2="233.5"/><polygon fill="#4177AF" points="917.5,240.5,913.5,246.5,921.5,246.5" style="stroke: #1963A0; stroke-width: 1.0;"/><text fill="#000000" font-family="sans-serif" font-size="11" lengthAdjust="spacingAndGlyphs" textLength="130" x="926.5" y="248.9189">MachinePlayerView(Logic)</text><polygon fill="#4177AF" points="917.5,254.3359,913.5,260.3359,921.5,260.3359" style="stroke: #1963A0; stroke-width: 1.0;"/><text fill="#000000" font-family="sans-serif" font-size="11" lengthAdjust="spacingAndGlyphs" textLength="132" x="926.5" y="262.7549">readCoordinateToPut(): int[]</text><polygon fill="#4177AF" points="917.5,268.1719,913.5,274.1719,921.5,274.1719" style="stroke: #1963A0; stroke-width: 1.0;"/><text fill="#000000" font-family="sans-serif" font-size="11" lengthAdjust="spacingAndGlyphs" textLength="155" x="926.5" y="276.5908">readCoordinatesToMove(): int[][]</text><!--MD5=[d4f4ae14a368e3fcfff527b6459d05f0]
class tictactoe.views.console.UserPlayerView--><rect fill="#FEFECE" filter="url(#fs8ataouwwdz6)" height="117.1797" id="tictactoe.views.console.UserPlayerView" style="stroke: #A80036; stroke-width: 1.5;" width="233" x="638.5" y="180"/><ellipse cx="707.25" cy="196" fill="#ADD1B2" rx="11" ry="11" style="stroke: #A80036; stroke-width: 1.0;"/><path d="M710.0156,191.875 Q710.1719,191.6563 710.3594,191.5469 Q710.5469,191.4375 710.7656,191.4375 Q711.1406,191.4375 711.375,191.7031 Q711.6094,191.9531 711.6094,192.5625 L711.6094,194.0156 Q711.6094,194.625 711.375,194.8906 Q711.1406,195.1563 710.7656,195.1563 Q710.4219,195.1563 710.2188,194.9531 Q710.0156,194.7656 709.9063,194.25 Q709.8594,193.8906 709.6719,193.7031 Q709.3438,193.3281 708.7344,193.1094 Q708.125,192.8906 707.5,192.8906 Q706.7344,192.8906 706.0938,193.2188 Q705.4688,193.5469 704.9688,194.2969 Q704.4844,195.0469 704.4844,196.0781 L704.4844,197.1719 Q704.4844,198.4063 705.375,199.2344 Q706.2656,200.0469 707.8594,200.0469 Q708.7969,200.0469 709.4531,199.7969 Q709.8438,199.6406 710.2656,199.2031 Q710.5313,198.9375 710.6719,198.8594 Q710.8281,198.7813 711.0313,198.7813 Q711.3594,198.7813 711.6094,199.0469 Q711.875,199.2969 711.875,199.6406 Q711.875,199.9844 711.5313,200.3906 Q711.0313,200.9688 710.2344,201.2969 Q709.1563,201.75 707.8594,201.75 Q706.3438,201.75 705.1406,201.125 Q704.1563,200.625 703.4688,199.5625 Q702.7813,198.4844 702.7813,197.2031 L702.7813,196.0469 Q702.7813,194.7188 703.3906,193.5781 Q704.0156,192.4219 705.1094,191.8125 Q706.2031,191.1875 707.4375,191.1875 Q708.1719,191.1875 708.8125,191.3594 Q709.4688,191.5156 710.0156,191.875 Z "/><text fill="#000000" font-family="sans-serif" font-size="12" lengthAdjust="spacingAndGlyphs" textLength="87" x="727.75" y="200.9102">UserPlayerView</text><line style="stroke: #A80036; stroke-width: 1.5;" x1="639.5" x2="870.5" y1="212" y2="212"/><polygon fill="none" points="649.5,219,645.5,225,653.5,225" style="stroke: #1963A0; stroke-width: 1.0;"/><text fill="#000000" font-family="sans-serif" font-size="11" lengthAdjust="spacingAndGlyphs" text-decoration="underline" textLength="183" x="658.5" y="227.4189">ENTER_COORDINATE_TO_PUT: String</text><polygon fill="none" points="649.5,232.8359,645.5,238.8359,653.5,238.8359" style="stroke: #1963A0; stroke-width: 1.0;"/><text fill="#000000" font-family="sans-serif" font-size="11" lengthAdjust="spacingAndGlyphs" text-decoration="underline" textLength="207" x="658.5" y="241.2549">ENTER_COORDINATE_TO_REMOVE: String</text><line style="stroke: #A80036; stroke-width: 1.5;" x1="639.5" x2="870.5" y1="247.6719" y2="247.6719"/><polygon fill="#4177AF" points="649.5,254.6719,645.5,260.6719,653.5,260.6719" style="stroke: #1963A0; stroke-width: 1.0;"/><text fill="#000000" font-family="sans-serif" font-size="11" lengthAdjust="spacingAndGlyphs" textLength="113" x="658.5" y="263.0908">UserPlayerView(Logic)</text><polygon fill="#4177AF" points="649.5,268.5078,645.5,274.5078,653.5,274.5078" style="stroke: #1963A0; stroke-width: 1.0;"/><text fill="#000000" font-family="sans-serif" font-size="11" lengthAdjust="spacingAndGlyphs" textLength="132" x="658.5" y="276.9268">readCoordinateToPut(): int[]</text><polygon fill="#4177AF" points="649.5,282.3438,645.5,288.3438,653.5,288.3438" style="stroke: #1963A0; stroke-width: 1.0;"/><text fill="#000000" font-family="sans-serif" font-size="11" lengthAdjust="spacingAndGlyphs" textLength="155" x="658.5" y="290.7627">readCoordinatesToMove(): int[][]</text><!--MD5=[2dcb8e10b6e8b78f41f52f48677e1ea3]
class utils.WithConsoleView--><rect fill="#FEFECE" filter="url(#fs8ataouwwdz6)" height="48" id="utils.WithConsoleView" style="stroke: #A80036; stroke-width: 1.5;" width="129" x="32.5" y="392"/><ellipse cx="47.5" cy="408" fill="#ADD1B2" rx="11" ry="11" style="stroke: #A80036; stroke-width: 1.0;"/><path d="M50.2656,403.875 Q50.4219,403.6563 50.6094,403.5469 Q50.7969,403.4375 51.0156,403.4375 Q51.3906,403.4375 51.625,403.7031 Q51.8594,403.9531 51.8594,404.5625 L51.8594,406.0156 Q51.8594,406.625 51.625,406.8906 Q51.3906,407.1563 51.0156,407.1563 Q50.6719,407.1563 50.4688,406.9531 Q50.2656,406.7656 50.1563,406.25 Q50.1094,405.8906 49.9219,405.7031 Q49.5938,405.3281 48.9844,405.1094 Q48.375,404.8906 47.75,404.8906 Q46.9844,404.8906 46.3438,405.2188 Q45.7188,405.5469 45.2188,406.2969 Q44.7344,407.0469 44.7344,408.0781 L44.7344,409.1719 Q44.7344,410.4063 45.625,411.2344 Q46.5156,412.0469 48.1094,412.0469 Q49.0469,412.0469 49.7031,411.7969 Q50.0938,411.6406 50.5156,411.2031 Q50.7813,410.9375 50.9219,410.8594 Q51.0781,410.7813 51.2813,410.7813 Q51.6094,410.7813 51.8594,411.0469 Q52.125,411.2969 52.125,411.6406 Q52.125,411.9844 51.7813,412.3906 Q51.2813,412.9688 50.4844,413.2969 Q49.4063,413.75 48.1094,413.75 Q46.5938,413.75 45.3906,413.125 Q44.4063,412.625 43.7188,411.5625 Q43.0313,410.4844 43.0313,409.2031 L43.0313,408.0469 Q43.0313,406.7188 43.6406,405.5781 Q44.2656,404.4219 45.3594,403.8125 Q46.4531,403.1875 47.6875,403.1875 Q48.4219,403.1875 49.0625,403.3594 Q49.7188,403.5156 50.2656,403.875 Z "/><text fill="#000000" font-family="sans-serif" font-size="12" lengthAdjust="spacingAndGlyphs" textLength="97" x="61.5" y="412.9102">WithConsoleView</text><line style="stroke: #A80036; stroke-width: 1.5;" x1="33.5" x2="160.5" y1="424" y2="424"/><line style="stroke: #A80036; stroke-width: 1.5;" x1="33.5" x2="160.5" y1="432" y2="432"/><!--MD5=[55e41f1e5a8b39b15e1066bc4af42afb]
class utils.PlayersDialog--><rect fill="#FEFECE" filter="url(#fs8ataouwwdz6)" height="48" id="utils.PlayersDialog" style="stroke: #A80036; stroke-width: 1.5;" width="109" x="196.5" y="392"/><ellipse cx="211.5" cy="408" fill="#ADD1B2" rx="11" ry="11" style="stroke: #A80036; stroke-width: 1.0;"/><path d="M214.2656,403.875 Q214.4219,403.6563 214.6094,403.5469 Q214.7969,403.4375 215.0156,403.4375 Q215.3906,403.4375 215.625,403.7031 Q215.8594,403.9531 215.8594,404.5625 L215.8594,406.0156 Q215.8594,406.625 215.625,406.8906 Q215.3906,407.1563 215.0156,407.1563 Q214.6719,407.1563 214.4688,406.9531 Q214.2656,406.7656 214.1563,406.25 Q214.1094,405.8906 213.9219,405.7031 Q213.5938,405.3281 212.9844,405.1094 Q212.375,404.8906 211.75,404.8906 Q210.9844,404.8906 210.3438,405.2188 Q209.7188,405.5469 209.2188,406.2969 Q208.7344,407.0469 208.7344,408.0781 L208.7344,409.1719 Q208.7344,410.4063 209.625,411.2344 Q210.5156,412.0469 212.1094,412.0469 Q213.0469,412.0469 213.7031,411.7969 Q214.0938,411.6406 214.5156,411.2031 Q214.7813,410.9375 214.9219,410.8594 Q215.0781,410.7813 215.2813,410.7813 Q215.6094,410.7813 215.8594,411.0469 Q216.125,411.2969 216.125,411.6406 Q216.125,411.9844 215.7813,412.3906 Q215.2813,412.9688 214.4844,413.2969 Q213.4063,413.75 212.1094,413.75 Q210.5938,413.75 209.3906,413.125 Q208.4063,412.625 207.7188,411.5625 Q207.0313,410.4844 207.0313,409.2031 L207.0313,408.0469 Q207.0313,406.7188 207.6406,405.5781 Q208.2656,404.4219 209.3594,403.8125 Q210.4531,403.1875 211.6875,403.1875 Q212.4219,403.1875 213.0625,403.3594 Q213.7188,403.5156 214.2656,403.875 Z "/><text fill="#000000" font-family="sans-serif" font-size="12" lengthAdjust="spacingAndGlyphs" textLength="77" x="225.5" y="412.9102">PlayersDialog</text><line style="stroke: #A80036; stroke-width: 1.5;" x1="197.5" x2="304.5" y1="424" y2="424"/><line style="stroke: #A80036; stroke-width: 1.5;" x1="197.5" x2="304.5" y1="432" y2="432"/><!--MD5=[3b8962fd5847b9038b2e29740dae8054]
class tictactoe.controllers.Logic--><rect fill="#FEFECE" filter="url(#fs8ataouwwdz6)" height="48" id="tictactoe.controllers.Logic" style="stroke: #A80036; stroke-width: 1.5;" width="62" x="657" y="714"/><ellipse cx="672" cy="730" fill="#ADD1B2" rx="11" ry="11" style="stroke: #A80036; stroke-width: 1.0;"/><path d="M674.7656,725.875 Q674.9219,725.6563 675.1094,725.5469 Q675.2969,725.4375 675.5156,725.4375 Q675.8906,725.4375 676.125,725.7031 Q676.3594,725.9531 676.3594,726.5625 L676.3594,728.0156 Q676.3594,728.625 676.125,728.8906 Q675.8906,729.1563 675.5156,729.1563 Q675.1719,729.1563 674.9688,728.9531 Q674.7656,728.7656 674.6563,728.25 Q674.6094,727.8906 674.4219,727.7031 Q674.0938,727.3281 673.4844,727.1094 Q672.875,726.8906 672.25,726.8906 Q671.4844,726.8906 670.8438,727.2188 Q670.2188,727.5469 669.7188,728.2969 Q669.2344,729.0469 669.2344,730.0781 L669.2344,731.1719 Q669.2344,732.4063 670.125,733.2344 Q671.0156,734.0469 672.6094,734.0469 Q673.5469,734.0469 674.2031,733.7969 Q674.5938,733.6406 675.0156,733.2031 Q675.2813,732.9375 675.4219,732.8594 Q675.5781,732.7813 675.7813,732.7813 Q676.1094,732.7813 676.3594,733.0469 Q676.625,733.2969 676.625,733.6406 Q676.625,733.9844 676.2813,734.3906 Q675.7813,734.9688 674.9844,735.2969 Q673.9063,735.75 672.6094,735.75 Q671.0938,735.75 669.8906,735.125 Q668.9063,734.625 668.2188,733.5625 Q667.5313,732.4844 667.5313,731.2031 L667.5313,730.0469 Q667.5313,728.7188 668.1406,727.5781 Q668.7656,726.4219 669.8594,725.8125 Q670.9531,725.1875 672.1875,725.1875 Q672.9219,725.1875 673.5625,725.3594 Q674.2188,725.5156 674.7656,725.875 Z "/><text fill="#000000" font-family="sans-serif" font-size="12" lengthAdjust="spacingAndGlyphs" textLength="30" x="686" y="734.9102">Logic</text><line style="stroke: #A80036; stroke-width: 1.5;" x1="658" x2="718" y1="746" y2="746"/><line style="stroke: #A80036; stroke-width: 1.5;" x1="658" x2="718" y1="754" y2="754"/><!--MD5=[015754420c4cdd9bacda884b3fa8c6ca]
class tictactoe.views.View--><rect fill="#FEFECE" filter="url(#fs8ataouwwdz6)" height="48" id="tictactoe.views.View" style="stroke: #A80036; stroke-width: 1.5;" width="58" x="616" y="42"/><ellipse cx="631" cy="58" fill="#ADD1B2" rx="11" ry="11" style="stroke: #A80036; stroke-width: 1.0;"/><path d="M633.7656,53.875 Q633.9219,53.6563 634.1094,53.5469 Q634.2969,53.4375 634.5156,53.4375 Q634.8906,53.4375 635.125,53.7031 Q635.3594,53.9531 635.3594,54.5625 L635.3594,56.0156 Q635.3594,56.625 635.125,56.8906 Q634.8906,57.1563 634.5156,57.1563 Q634.1719,57.1563 633.9688,56.9531 Q633.7656,56.7656 633.6563,56.25 Q633.6094,55.8906 633.4219,55.7031 Q633.0938,55.3281 632.4844,55.1094 Q631.875,54.8906 631.25,54.8906 Q630.4844,54.8906 629.8438,55.2188 Q629.2188,55.5469 628.7188,56.2969 Q628.2344,57.0469 628.2344,58.0781 L628.2344,59.1719 Q628.2344,60.4063 629.125,61.2344 Q630.0156,62.0469 631.6094,62.0469 Q632.5469,62.0469 633.2031,61.7969 Q633.5938,61.6406 634.0156,61.2031 Q634.2813,60.9375 634.4219,60.8594 Q634.5781,60.7813 634.7813,60.7813 Q635.1094,60.7813 635.3594,61.0469 Q635.625,61.2969 635.625,61.6406 Q635.625,61.9844 635.2813,62.3906 Q634.7813,62.9688 633.9844,63.2969 Q632.9063,63.75 631.6094,63.75 Q630.0938,63.75 628.8906,63.125 Q627.9063,62.625 627.2188,61.5625 Q626.5313,60.4844 626.5313,59.2031 L626.5313,58.0469 Q626.5313,56.7188 627.1406,55.5781 Q627.7656,54.4219 628.8594,53.8125 Q629.9531,53.1875 631.1875,53.1875 Q631.9219,53.1875 632.5625,53.3594 Q633.2188,53.5156 633.7656,53.875 Z "/><text fill="#000000" font-family="sans-serif" font-size="12" lengthAdjust="spacingAndGlyphs" textLength="26" x="645" y="62.9102">View</text><line style="stroke: #A80036; stroke-width: 1.5;" x1="617" x2="673" y1="74" y2="74"/><line style="stroke: #A80036; stroke-width: 1.5;" x1="617" x2="673" y1="82" y2="82"/><!--MD5=[17799e03bfee0ccb3aa03b93da9c26d6]
class tictactoe.views.ErrorView--><rect fill="#FEFECE" filter="url(#fs8ataouwwdz6)" height="48" id="tictactoe.views.ErrorView" style="stroke: #A80036; stroke-width: 1.5;" width="85" x="836.5" y="42"/><ellipse cx="851.5" cy="58" fill="#ADD1B2" rx="11" ry="11" style="stroke: #A80036; stroke-width: 1.0;"/><path d="M854.2656,53.875 Q854.4219,53.6563 854.6094,53.5469 Q854.7969,53.4375 855.0156,53.4375 Q855.3906,53.4375 855.625,53.7031 Q855.8594,53.9531 855.8594,54.5625 L855.8594,56.0156 Q855.8594,56.625 855.625,56.8906 Q855.3906,57.1563 855.0156,57.1563 Q854.6719,57.1563 854.4688,56.9531 Q854.2656,56.7656 854.1563,56.25 Q854.1094,55.8906 853.9219,55.7031 Q853.5938,55.3281 852.9844,55.1094 Q852.375,54.8906 851.75,54.8906 Q850.9844,54.8906 850.3438,55.2188 Q849.7188,55.5469 849.2188,56.2969 Q848.7344,57.0469 848.7344,58.0781 L848.7344,59.1719 Q848.7344,60.4063 849.625,61.2344 Q850.5156,62.0469 852.1094,62.0469 Q853.0469,62.0469 853.7031,61.7969 Q854.0938,61.6406 854.5156,61.2031 Q854.7813,60.9375 854.9219,60.8594 Q855.0781,60.7813 855.2813,60.7813 Q855.6094,60.7813 855.8594,61.0469 Q856.125,61.2969 856.125,61.6406 Q856.125,61.9844 855.7813,62.3906 Q855.2813,62.9688 854.4844,63.2969 Q853.4063,63.75 852.1094,63.75 Q850.5938,63.75 849.3906,63.125 Q848.4063,62.625 847.7188,61.5625 Q847.0313,60.4844 847.0313,59.2031 L847.0313,58.0469 Q847.0313,56.7188 847.6406,55.5781 Q848.2656,54.4219 849.3594,53.8125 Q850.4531,53.1875 851.6875,53.1875 Q852.4219,53.1875 853.0625,53.3594 Q853.7188,53.5156 854.2656,53.875 Z "/><text fill="#000000" font-family="sans-serif" font-size="12" lengthAdjust="spacingAndGlyphs" textLength="53" x="865.5" y="62.9102">ErrorView</text><line style="stroke: #A80036; stroke-width: 1.5;" x1="837.5" x2="920.5" y1="74" y2="74"/><line style="stroke: #A80036; stroke-width: 1.5;" x1="837.5" x2="920.5" y1="82" y2="82"/><!--MD5=[2ae15d20e7f22fd333327d3852982126]
class tictactoe.views.PlayerView--><rect fill="#FEFECE" filter="url(#fs8ataouwwdz6)" height="48" id="tictactoe.views.PlayerView" style="stroke: #A80036; stroke-width: 1.5;" width="92" x="709" y="42"/><ellipse cx="724" cy="58" fill="#ADD1B2" rx="11" ry="11" style="stroke: #A80036; stroke-width: 1.0;"/><path d="M726.7656,53.875 Q726.9219,53.6563 727.1094,53.5469 Q727.2969,53.4375 727.5156,53.4375 Q727.8906,53.4375 728.125,53.7031 Q728.3594,53.9531 728.3594,54.5625 L728.3594,56.0156 Q728.3594,56.625 728.125,56.8906 Q727.8906,57.1563 727.5156,57.1563 Q727.1719,57.1563 726.9688,56.9531 Q726.7656,56.7656 726.6563,56.25 Q726.6094,55.8906 726.4219,55.7031 Q726.0938,55.3281 725.4844,55.1094 Q724.875,54.8906 724.25,54.8906 Q723.4844,54.8906 722.8438,55.2188 Q722.2188,55.5469 721.7188,56.2969 Q721.2344,57.0469 721.2344,58.0781 L721.2344,59.1719 Q721.2344,60.4063 722.125,61.2344 Q723.0156,62.0469 724.6094,62.0469 Q725.5469,62.0469 726.2031,61.7969 Q726.5938,61.6406 727.0156,61.2031 Q727.2813,60.9375 727.4219,60.8594 Q727.5781,60.7813 727.7813,60.7813 Q728.1094,60.7813 728.3594,61.0469 Q728.625,61.2969 728.625,61.6406 Q728.625,61.9844 728.2813,62.3906 Q727.7813,62.9688 726.9844,63.2969 Q725.9063,63.75 724.6094,63.75 Q723.0938,63.75 721.8906,63.125 Q720.9063,62.625 720.2188,61.5625 Q719.5313,60.4844 719.5313,59.2031 L719.5313,58.0469 Q719.5313,56.7188 720.1406,55.5781 Q720.7656,54.4219 721.8594,53.8125 Q722.9531,53.1875 724.1875,53.1875 Q724.9219,53.1875 725.5625,53.3594 Q726.2188,53.5156 726.7656,53.875 Z "/><text fill="#000000" font-family="sans-serif" font-size="12" lengthAdjust="spacingAndGlyphs" textLength="60" x="738" y="62.9102">PlayerView</text><line style="stroke: #A80036; stroke-width: 1.5;" x1="710" x2="800" y1="74" y2="74"/><line style="stroke: #A80036; stroke-width: 1.5;" x1="710" x2="800" y1="82" y2="82"/><!--MD5=[1aab8645402f9730c5a520f7fa330421]
class tictactoe.types.Error--><rect fill="#FEFECE" filter="url(#fs8ataouwwdz6)" height="48" id="tictactoe.types.Error" style="stroke: #A80036; stroke-width: 1.5;" width="59" x="1271.5" y="555.5"/><ellipse cx="1286.5" cy="571.5" fill="#ADD1B2" rx="11" ry="11" style="stroke: #A80036; stroke-width: 1.0;"/><path d="M1289.2656,567.375 Q1289.4219,567.1563 1289.6094,567.0469 Q1289.7969,566.9375 1290.0156,566.9375 Q1290.3906,566.9375 1290.625,567.2031 Q1290.8594,567.4531 1290.8594,568.0625 L1290.8594,569.5156 Q1290.8594,570.125 1290.625,570.3906 Q1290.3906,570.6563 1290.0156,570.6563 Q1289.6719,570.6563 1289.4688,570.4531 Q1289.2656,570.2656 1289.1563,569.75 Q1289.1094,569.3906 1288.9219,569.2031 Q1288.5938,568.8281 1287.9844,568.6094 Q1287.375,568.3906 1286.75,568.3906 Q1285.9844,568.3906 1285.3438,568.7188 Q1284.7188,569.0469 1284.2188,569.7969 Q1283.7344,570.5469 1283.7344,571.5781 L1283.7344,572.6719 Q1283.7344,573.9063 1284.625,574.7344 Q1285.5156,575.5469 1287.1094,575.5469 Q1288.0469,575.5469 1288.7031,575.2969 Q1289.0938,575.1406 1289.5156,574.7031 Q1289.7813,574.4375 1289.9219,574.3594 Q1290.0781,574.2813 1290.2813,574.2813 Q1290.6094,574.2813 1290.8594,574.5469 Q1291.125,574.7969 1291.125,575.1406 Q1291.125,575.4844 1290.7813,575.8906 Q1290.2813,576.4688 1289.4844,576.7969 Q1288.4063,577.25 1287.1094,577.25 Q1285.5938,577.25 1284.3906,576.625 Q1283.4063,576.125 1282.7188,575.0625 Q1282.0313,573.9844 1282.0313,572.7031 L1282.0313,571.5469 Q1282.0313,570.2188 1282.6406,569.0781 Q1283.2656,567.9219 1284.3594,567.3125 Q1285.4531,566.6875 1286.6875,566.6875 Q1287.4219,566.6875 1288.0625,566.8594 Q1288.7188,567.0156 1289.2656,567.375 Z "/><text fill="#000000" font-family="sans-serif" font-size="12" lengthAdjust="spacingAndGlyphs" textLength="27" x="1300.5" y="576.4102">Error</text><line style="stroke: #A80036; stroke-width: 1.5;" x1="1272.5" x2="1329.5" y1="587.5" y2="587.5"/><line style="stroke: #A80036; stroke-width: 1.5;" x1="1272.5" x2="1329.5" y1="595.5" y2="595.5"/><!--MD5=[8016c4b7c5b6e1d0c1906a688d612470]
class tictactoe.types.PlayerType--><rect fill="#FEFECE" filter="url(#fs8ataouwwdz6)" height="48" id="tictactoe.types.PlayerType" style="stroke: #A80036; stroke-width: 1.5;" width="92" x="1144" y="555.5"/><ellipse cx="1159" cy="571.5" fill="#ADD1B2" rx="11" ry="11" style="stroke: #A80036; stroke-width: 1.0;"/><path d="M1161.7656,567.375 Q1161.9219,567.1563 1162.1094,567.0469 Q1162.2969,566.9375 1162.5156,566.9375 Q1162.8906,566.9375 1163.125,567.2031 Q1163.3594,567.4531 1163.3594,568.0625 L1163.3594,569.5156 Q1163.3594,570.125 1163.125,570.3906 Q1162.8906,570.6563 1162.5156,570.6563 Q1162.1719,570.6563 1161.9688,570.4531 Q1161.7656,570.2656 1161.6563,569.75 Q1161.6094,569.3906 1161.4219,569.2031 Q1161.0938,568.8281 1160.4844,568.6094 Q1159.875,568.3906 1159.25,568.3906 Q1158.4844,568.3906 1157.8438,568.7188 Q1157.2188,569.0469 1156.7188,569.7969 Q1156.2344,570.5469 1156.2344,571.5781 L1156.2344,572.6719 Q1156.2344,573.9063 1157.125,574.7344 Q1158.0156,575.5469 1159.6094,575.5469 Q1160.5469,575.5469 1161.2031,575.2969 Q1161.5938,575.1406 1162.0156,574.7031 Q1162.2813,574.4375 1162.4219,574.3594 Q1162.5781,574.2813 1162.7813,574.2813 Q1163.1094,574.2813 1163.3594,574.5469 Q1163.625,574.7969 1163.625,575.1406 Q1163.625,575.4844 1163.2813,575.8906 Q1162.7813,576.4688 1161.9844,576.7969 Q1160.9063,577.25 1159.6094,577.25 Q1158.0938,577.25 1156.8906,576.625 Q1155.9063,576.125 1155.2188,575.0625 Q1154.5313,573.9844 1154.5313,572.7031 L1154.5313,571.5469 Q1154.5313,570.2188 1155.1406,569.0781 Q1155.7656,567.9219 1156.8594,567.3125 Q1157.9531,566.6875 1159.1875,566.6875 Q1159.9219,566.6875 1160.5625,566.8594 Q1161.2188,567.0156 1161.7656,567.375 Z "/><text fill="#000000" font-family="sans-serif" font-size="12" lengthAdjust="spacingAndGlyphs" textLength="60" x="1173" y="576.4102">PlayerType</text><line style="stroke: #A80036; stroke-width: 1.5;" x1="1145" x2="1235" y1="587.5" y2="587.5"/><line style="stroke: #A80036; stroke-width: 1.5;" x1="1145" x2="1235" y1="595.5" y2="595.5"/><!--MD5=[4fe29ebdeb3371b5754843c99b0088e8]
reverse link utils.WithConsoleView to tictactoe.views.console.BoardView--><path d="M152.301,450.059 C161.125,454.937 170.235,459.746 179,464 C238.544,492.899 307.343,520.77 362.311,541.778 " fill="none" id="utils.WithConsoleView&lt;-tictactoe.views.console.BoardView" style="stroke: #A80036; stroke-width: 1.0;"/><polygon fill="none" points="148.721,456.076,134.793,440.107,155.64,443.905,148.721,456.076" style="stroke: #A80036; stroke-width: 1.0;"/><!--MD5=[46216399e4f9f858dff5e5cad7260cf9]
link tictactoe.views.console.BoardView to tictactoe.controllers.Logic--><path d="M545.823,638.108 C582.727,663.777 624.219,692.637 652.809,712.523 " fill="none" id="tictactoe.views.console.BoardView-&gt;tictactoe.controllers.Logic" style="stroke: #A80036; stroke-width: 1.0; stroke-dasharray: 7.0,7.0;"/><polygon fill="#A80036" points="656.932,715.3905,651.8285,706.9671,652.8276,712.535,647.2597,713.5341,656.932,715.3905" style="stroke: #A80036; stroke-width: 1.0;"/><!--MD5=[d1f1f21fa3eb12d639631512d925e9a6]
reverse link tictactoe.views.View to tictactoe.views.console.ConsoleView--><path d="M618.642,107.125 C607.131,124.649 593.272,145.747 580.089,165.816 " fill="none" id="tictactoe.views.View&lt;-tictactoe.views.console.ConsoleView" style="stroke: #A80036; stroke-width: 1.0;"/><polygon fill="none" points="612.83,103.223,629.662,90.35,624.532,110.909,612.83,103.223" style="stroke: #A80036; stroke-width: 1.0;"/><!--MD5=[9113815f8bbc012213d6467f94b3dc5b]
link tictactoe.views.console.ConsoleView to tictactoe.views.console.StartView--><path d="M548.6881,322.9292 C548.6881,322.9292 553.23,347.085 555.27,357.935 " fill="none" id="tictactoe.views.console.ConsoleView-tictactoe.views.console.StartView" style="stroke: #A80036; stroke-width: 1.0;"/><polygon fill="#A80036" points="557.682,370.761,559.9495,361.1767,556.7578,365.8472,552.0874,362.6554,557.682,370.761" style="stroke: #A80036; stroke-width: 1.0;"/><line style="stroke: #A80036; stroke-width: 1.0;" x1="556.7578" x2="555.2795" y1="365.8472" y2="357.985"/><polygon fill="#A80036" points="546.47,311.136,543.648,317.772,548.6881,322.9292,551.5101,316.2933,546.47,311.136" style="stroke: #A80036; stroke-width: 1.0;"/><!--MD5=[1735144fa38f1aa47117a26d071db586]
link tictactoe.views.console.ConsoleView to tictactoe.views.console.PlayView--><path d="M479.9301,321.1992 C479.9301,321.1992 462.718,347.698 454.963,359.636 " fill="none" id="tictactoe.views.console.ConsoleView-tictactoe.views.console.PlayView" style="stroke: #A80036; stroke-width: 1.0;"/><polygon fill="#A80036" points="447.736,370.761,455.9928,365.3921,450.4595,366.5678,449.2837,361.0345,447.736,370.761" style="stroke: #A80036; stroke-width: 1.0;"/><line style="stroke: #A80036; stroke-width: 1.0;" x1="450.4595" x2="454.818" y1="366.5678" y2="359.8595"/><polygon fill="#A80036" points="486.467,311.136,479.8441,313.9886,479.9301,321.1992,486.5529,318.3466,486.467,311.136" style="stroke: #A80036; stroke-width: 1.0;"/><!--MD5=[44d2792f564883fbc9918566bab83309]
link tictactoe.views.console.ConsoleView to tictactoe.views.console.ResultView--><path d="M612.3725,316.46 C612.3725,316.46 644.512,347.623 658.9,361.574 " fill="none" id="tictactoe.views.console.ConsoleView-tictactoe.views.console.ResultView" style="stroke: #A80036; stroke-width: 1.0;"/><polygon fill="#A80036" points="668.613,370.992,664.9365,361.8551,665.0235,367.5113,659.3673,367.5983,668.613,370.992" style="stroke: #A80036; stroke-width: 1.0;"/><line style="stroke: #A80036; stroke-width: 1.0;" x1="665.0235" x2="659.2795" y1="367.5113" y2="361.9425"/><polygon fill="#A80036" points="603.757,308.107,605.2804,315.1554,612.3725,316.46,610.8491,309.4117,603.757,308.107" style="stroke: #A80036; stroke-width: 1.0;"/><!--MD5=[d983ff7a7ecf259bcdad60485d19cf95]
reverse link utils.WithConsoleView to tictactoe.views.console.CoordinateView--><path d="M129.753,376.714 C147.415,358.633 170.834,339.096 196.5,329.5 C256.343,307.125 711.391,307.85 771.5,329.5 C795.209,338.04 817.355,354.552 835.102,370.881 " fill="none" id="utils.WithConsoleView&lt;-tictactoe.views.console.CoordinateView" style="stroke: #A80036; stroke-width: 1.0;"/><polygon fill="none" points="134.753,381.619,116.076,391.626,124.436,372.155,134.753,381.619" style="stroke: #A80036; stroke-width: 1.0;"/><!--MD5=[67c850538af862baf636b8ffc29fd4c9]
link tictactoe.views.console.CoordinateView to tictactoe.types.Error--><path d="M945.024,457.281 C950.668,459.783 956.368,462.066 962,464 C1086.36,506.695 1142.61,441.639 1254,511.5 C1268.82,520.792 1280.25,536.638 1288.13,550.586 " fill="none" id="tictactoe.views.console.CoordinateView-&gt;tictactoe.types.Error" style="stroke: #A80036; stroke-width: 1.0; stroke-dasharray: 7.0,7.0;"/><polygon fill="#A80036" points="1290.66,555.232,1289.8717,545.4147,1288.2701,550.8401,1282.8447,549.2385,1290.66,555.232" style="stroke: #A80036; stroke-width: 1.0;"/><!--MD5=[6e6223bf95d09a9fb964d7b408d1bf50]
link tictactoe.views.console.CoordinateView to tictactoe.controllers.Logic--><path d="M945.405,457.808 C950.914,460.153 956.483,462.26 962,464 C1053.05,492.713 1325.33,440.355 1389,511.5 C1433.61,561.344 1433.71,612.25 1389,662 C1344.17,711.8826 862.243,731.3265 724.547,735.8876 " fill="none" id="tictactoe.views.console.CoordinateView-&gt;tictactoe.controllers.Logic" style="stroke: #A80036; stroke-width: 1.0; stroke-dasharray: 7.0,7.0;"/><polygon fill="#A80036" points="719.408,736.0562,728.5346,739.7583,724.4053,735.8919,728.2717,731.7626,719.408,736.0562" style="stroke: #A80036; stroke-width: 1.0;"/><!--MD5=[521be967e4e828bbb4868581b766b1da]
reverse link tictactoe.views.ErrorView to tictactoe.views.console.ErrorView--><path d="M941.952,73.669 C1001.62,81.442 1085.02,96.58 1105,122 C1156.9,188.047 1129.78,230.74 1105,311 C1097.45,335.44 1081.97,359.263 1067.39,377.929 " fill="none" id="tictactoe.views.ErrorView&lt;-tictactoe.views.console.ErrorView" style="stroke: #A80036; stroke-width: 1.0;"/><polygon fill="none" points="940.978,80.602,921.978,71.222,942.681,66.706,940.978,80.602" style="stroke: #A80036; stroke-width: 1.0;"/><!--MD5=[f807ad8458e0e3d6ca100de41032e69a]
reverse link tictactoe.views.PlayerView to tictactoe.views.console.MachinePlayerView--><path d="M796.197,101.92 C803.435,106.654 811.169,110.93 819,114 C848.153,125.429 861.03,107.92 889,122 C921.122,138.171 948.65,168.036 967.874,193.346 " fill="none" id="tictactoe.views.PlayerView&lt;-tictactoe.views.console.MachinePlayerView" style="stroke: #A80036; stroke-width: 1.0;"/><polygon fill="none" points="791.942,107.48,779.93,90.024,800.206,96.179,791.942,107.48" style="stroke: #A80036; stroke-width: 1.0;"/><!--MD5=[9623adb787708e117decab727ca41eb7]
link tictactoe.views.console.PlayView to tictactoe.views.console.BoardView--><path d="M431.023,461.131 C435.605,477.948 440.919,497.454 445.884,515.677 " fill="none" id="tictactoe.views.console.PlayView-&gt;tictactoe.views.console.BoardView" style="stroke: #A80036; stroke-width: 1.0; stroke-dasharray: 7.0,7.0;"/><polygon fill="#A80036" points="447.274,520.779,448.7677,511.0441,445.9597,515.9548,441.049,513.1469,447.274,520.779" style="stroke: #A80036; stroke-width: 1.0;"/><!--MD5=[c652744ae97b12ae96764b7849bbed7e]
link tictactoe.views.console.PlayView to tictactoe.views.PlayerView--><path d="M407.153,370.911 C392.69,306.011 377.743,185.592 445,122 C454.936,112.606 678.077,118.469 691,114 C703.882,109.545 716.36,101.52 726.825,93.347 " fill="none" id="tictactoe.views.console.PlayView-&gt;tictactoe.views.PlayerView" style="stroke: #A80036; stroke-width: 1.0; stroke-dasharray: 7.0,7.0;"/><polygon fill="#A80036" points="730.882,90.093,721.3588,92.6045,726.9818,93.2217,726.3647,98.8448,730.882,90.093" style="stroke: #A80036; stroke-width: 1.0;"/><!--MD5=[c8a90a2b65a3861994a50ca43a93eb42]
link tictactoe.views.console.PlayView to tictactoe.controllers.Logic--><path d="M476.111,453.283 C482.121,456.953 488.166,460.583 494,464 C532.015,486.262 551.97,478.364 581,511.5 C628.237,565.419 606.326,598.195 639,662 C647.416,678.435 658.565,695.7564 668.101,709.6072 " fill="none" id="tictactoe.views.console.PlayView-&gt;tictactoe.controllers.Logic" style="stroke: #A80036; stroke-width: 1.0; stroke-dasharray: 7.0,7.0;"/><polygon fill="#A80036" points="671.004,713.7896,669.1578,704.1153,668.1528,709.6822,662.586,708.6772,671.004,713.7896" style="stroke: #A80036; stroke-width: 1.0;"/><!--MD5=[f4e7a1ad991c63f6358299a416cb7db3]
link tictactoe.views.console.PlayView to tictactoe.types.PlayerType--><path d="M476.185,456.592 C482.027,459.478 488.017,462.026 494,464 C752.234,549.219 850.449,413.221 1104,511.5 C1126.61,520.265 1148.14,537.042 1163.99,551.615 " fill="none" id="tictactoe.views.console.PlayView-&gt;tictactoe.types.PlayerType" style="stroke: #A80036; stroke-width: 1.0; stroke-dasharray: 7.0,7.0;"/><polygon fill="#A80036" points="1167.9,555.266,1164.0563,546.1981,1164.2472,551.8518,1158.5936,552.0426,1167.9,555.266" style="stroke: #A80036; stroke-width: 1.0;"/><!--MD5=[21c61c4413df6bb2bed2f6b18eeadacf]
link tictactoe.views.console.ResultView to tictactoe.controllers.Logic--><path d="M772.056,456.967 C777.623,459.691 783.316,462.101 789,464 C907.038,503.426 1262.82,419.846 1347,511.5 C1392.25,560.763 1391.54,612.1 1347,662 C1305.21,708.8122 856.802,730.2814 724.527,735.6261 " fill="none" id="tictactoe.views.console.ResultView-&gt;tictactoe.controllers.Logic" style="stroke: #A80036; stroke-width: 1.0; stroke-dasharray: 7.0,7.0;"/><polygon fill="#A80036" points="719.21,735.8391,728.3628,739.4759,724.206,735.6391,728.0428,731.4823,719.21,735.8391" style="stroke: #A80036; stroke-width: 1.0;"/><!--MD5=[43f857ab0050bb78ce27120a0af9afa2]
link tictactoe.views.console.StartView to utils.PlayersDialog--><path d="M531.65,370.999 C516.436,354.688 497.085,338.156 475.5,329.5 C429.299,310.972 410.628,313.476 363.5,329.5 C329.463,341.072 297.678,367.556 276.635,388.192 " fill="none" id="tictactoe.views.console.StartView-&gt;utils.PlayersDialog" style="stroke: #A80036; stroke-width: 1.0; stroke-dasharray: 7.0,7.0;"/><polygon fill="#A80036" points="272.833,391.972,282.0354,388.4625,276.3785,388.4465,276.3945,382.7896,272.833,391.972" style="stroke: #A80036; stroke-width: 1.0;"/><!--MD5=[ff58a14b78596881a931b802b8db76be]
link tictactoe.views.console.StartView to tictactoe.controllers.Logic--><path d="M609.292,461.014 C621.887,475.983 634.521,493.505 643,511.5 C674.15,577.608 683.761,664.477 686.709,708.6122 " fill="none" id="tictactoe.views.console.StartView-&gt;tictactoe.controllers.Logic" style="stroke: #A80036; stroke-width: 1.0; stroke-dasharray: 7.0,7.0;"/><polygon fill="#A80036" points="687.036,713.7785,690.4584,704.5434,686.7196,708.7885,682.4744,705.0497,687.036,713.7785" style="stroke: #A80036; stroke-width: 1.0;"/><!--MD5=[e665259f0705ebc0d9068c66ae844f61]
reverse link tictactoe.views.PlayerView to tictactoe.views.console.UserPlayerView--><path d="M755,110.407 C755,131.542 755,157.239 755,179.981 " fill="none" id="tictactoe.views.PlayerView&lt;-tictactoe.views.console.UserPlayerView" style="stroke: #A80036; stroke-width: 1.0;"/><polygon fill="none" points="748,110.35,755,90.35,762,110.35,748,110.35" style="stroke: #A80036; stroke-width: 1.0;"/><!--MD5=[d08a44d06940417b04e1f442f789385d]
link tictactoe.views.console.UserPlayerView to tictactoe.views.console.ErrorView--><path d="M862.409,297.067 C871.392,301.804 880.345,306.498 889,311 C921.27,327.785 932.171,327.184 962,348 C973.002,355.678 984.033,364.954 994.038,374.124 " fill="none" id="tictactoe.views.console.UserPlayerView-&gt;tictactoe.views.console.ErrorView" style="stroke: #A80036; stroke-width: 1.0; stroke-dasharray: 7.0,7.0;"/><polygon fill="#A80036" points="997.966,377.766,994.0875,368.713,994.3001,374.3658,988.6472,374.5784,997.966,377.766" style="stroke: #A80036; stroke-width: 1.0;"/><!--MD5=[93525d2da9d792717dcb2150911bbe9e]
link tictactoe.views.console.UserPlayerView to tictactoe.views.console.CoordinateView--><path d="M794.955,297.452 C810.379,319.823 827.824,345.126 842.568,366.51 " fill="none" id="tictactoe.views.console.UserPlayerView-&gt;tictactoe.views.console.CoordinateView" style="stroke: #A80036; stroke-width: 1.0; stroke-dasharray: 7.0,7.0;"/><polygon fill="#A80036" points="845.479,370.733,843.6659,361.0525,842.6419,366.6159,837.0785,365.5919,845.479,370.733" style="stroke: #A80036; stroke-width: 1.0;"/><!--MD5=[94ecdf5a3ff771e365fb0752d9e9f6fc]
@startuml

class  tictactoe.views.console.BoardView{
- logic: Logic
~ BoardView(Logic)
~ write(): void
- printRowBoard(int): void
- printSquareValueBoard(int, int): void
}
utils.WithConsoleView <|-down- tictactoe.views.console.BoardView
tictactoe.views.console.BoardView ..> tictactoe.controllers.Logic

class  tictactoe.views.console.ConsoleView{
- startView: StartView
- playView: PlayView
- resultView: ResultView
+ ConsoleView(Logic)
# start(): void
# play(): boolean
# result(): void
}
tictactoe.views.View <|-down- tictactoe.views.console.ConsoleView
tictactoe.views.console.ConsoleView *-down-> tictactoe.views.console.StartView
tictactoe.views.console.ConsoleView *-down-> tictactoe.views.console.PlayView
tictactoe.views.console.ConsoleView *-down-> tictactoe.views.console.ResultView

class  tictactoe.views.console.CoordinateView{
~ logic: Logic
~ CoordinateView(Logic)
~ read(String): int[]
}
utils.WithConsoleView <|-down- tictactoe.views.console.CoordinateView
tictactoe.views.console.CoordinateView ..> tictactoe.types.Error
tictactoe.views.console.CoordinateView ..> tictactoe.controllers.Logic

class  tictactoe.views.console.ErrorView{
~ ErrorView(Error)
~ writeln(): void
}
tictactoe.views.ErrorView <|-down- tictactoe.views.console.ErrorView

class  tictactoe.views.console.MachinePlayerView{
~ MachinePlayerView(Logic)
~ readCoordinateToPut(): int[]
~ readCoordinatesToMove(): int[][]
}
tictactoe.views.PlayerView <|-down- tictactoe.views.console.MachinePlayerView

class  tictactoe.views.console.PlayView{
~ logic: Logic
~ PlayView(Logic)
~ interact(): boolean
}
tictactoe.views.console.PlayView ..> tictactoe.views.console.BoardView
tictactoe.views.console.PlayView ..> tictactoe.views.PlayerView
tictactoe.views.console.PlayView ..> tictactoe.controllers.Logic
tictactoe.views.console.PlayView ..> tictactoe.types.PlayerType

class tictactoe.views.console.ResultView{
~ logic: Logic
~ ResultView(Logic)
~ interact(): void
}
tictactoe.views.console.ResultView..> tictactoe.controllers.Logic

class tictactoe.views.console.StartView{
~ logic: Logic
~ StartView(Logic)
~ interact(): void
}
tictactoe.views.console.StartView ..> utils.PlayersDialog
tictactoe.views.console.StartView ..> tictactoe.controllers.Logic

class  tictactoe.views.console.UserPlayerView{
~ {static} ENTER_COORDINATE_TO_PUT: String
~ {static} ENTER_COORDINATE_TO_REMOVE: String
~ UserPlayerView(Logic)
~ readCoordinateToPut(): int[]
~ readCoordinatesToMove(): int[][]
}
tictactoe.views.PlayerView <|-down- tictactoe.views.console.UserPlayerView
tictactoe.views.console.UserPlayerView ..> tictactoe.views.console.ErrorView
tictactoe.views.console.UserPlayerView ..> tictactoe.views.console.CoordinateView

@enduml

PlantUML version 1.2020.15(Sun Jun 28 13:39:45 CEST 2020)
(GPL source distribution)
Java Runtime: Java(TM) SE Runtime Environment
JVM: Java HotSpot(TM) 64-Bit Server VM
Default Encoding: windows-1252
Language: es
Country: ES
--></g></svg>