<?xml version="1.0" encoding="UTF-8" standalone="no"?><svg xmlns="http://www.w3.org/2000/svg" xmlns:xlink="http://www.w3.org/1999/xlink" contentScriptType="application/ecmascript" contentStyleType="text/css" height="2465px" preserveAspectRatio="none" style="width:934px;height:2465px;" version="1.1" viewBox="0 0 934 2465" width="934px" zoomAndPan="magnify"><defs><filter height="300%" id="f196jt6z6vps0l" width="300%" x="-1" y="-1"><feGaussianBlur result="blurOut" stdDeviation="2.0"/><feColorMatrix in="blurOut" result="blurOut2" type="matrix" values="0 0 0 0 0 0 0 0 0 0 0 0 0 0 0 0 0 0 .4 0"/><feOffset dx="4.0" dy="4.0" in="blurOut2" result="blurOut3"/><feBlend in="SourceGraphic" in2="blurOut3" mode="normal"/></filter></defs><g><!--MD5=[51cd642fcc96b47682a93d9084d46dec]
cluster tictactoe.models--><polygon fill="#FFFFFF" filter="url(#f196jt6z6vps0l)" points="31.1813,6,153.1813,6,160.1813,29.6094,509.1813,29.6094,509.1813,2329,31.1813,2329,31.1813,6" style="stroke: #000000; stroke-width: 1.5;"/><line style="stroke: #000000; stroke-width: 1.5;" x1="31.1813" x2="160.1813" y1="29.6094" y2="29.6094"/><text fill="#000000" font-family="sans-serif" font-size="14" font-weight="bold" lengthAdjust="spacingAndGlyphs" textLength="116" x="35.1813" y="22.5332">tictactoe.models</text><!--MD5=[c52f45833d539af9e29a9d34b8b7302b]
cluster utils--><polygon fill="#FFFFFF" filter="url(#f196jt6z6vps0l)" points="533.1813,1934,569.1813,1934,576.1813,1957.6094,775.1813,1957.6094,775.1813,2034,533.1813,2034,533.1813,1934" style="stroke: #000000; stroke-width: 1.5;"/><line style="stroke: #000000; stroke-width: 1.5;" x1="533.1813" x2="576.1813" y1="1957.6094" y2="1957.6094"/><text fill="#000000" font-family="sans-serif" font-size="14" font-weight="bold" lengthAdjust="spacingAndGlyphs" textLength="30" x="537.1813" y="1950.5332">utils</text><!--MD5=[7db3c59d38ae5b37b484eb2df9368145]
cluster java.util--><polygon fill="#FFFFFF" filter="url(#f196jt6z6vps0l)" points="499.1813,2353,560.1813,2353,567.1813,2376.6094,726.1813,2376.6094,726.1813,2453,499.1813,2453,499.1813,2353" style="stroke: #000000; stroke-width: 1.5;"/><line style="stroke: #000000; stroke-width: 1.5;" x1="499.1813" x2="567.1813" y1="2376.6094" y2="2376.6094"/><text fill="#000000" font-family="sans-serif" font-size="14" font-weight="bold" lengthAdjust="spacingAndGlyphs" textLength="55" x="503.1813" y="2369.5332">java.util</text><!--MD5=[2d083dca3cab6023baf6a9cac5f9557f]
cluster tictactoe.types--><polygon fill="#FFFFFF" filter="url(#f196jt6z6vps0l)" points="533.1813,1098.5,642.1813,1098.5,649.1813,1122.1094,885.1813,1122.1094,885.1813,1198.5,533.1813,1198.5,533.1813,1098.5" style="stroke: #000000; stroke-width: 1.5;"/><line style="stroke: #000000; stroke-width: 1.5;" x1="533.1813" x2="649.1813" y1="1122.1094" y2="1122.1094"/><text fill="#000000" font-family="sans-serif" font-size="14" font-weight="bold" lengthAdjust="spacingAndGlyphs" textLength="103" x="537.1813" y="1115.0332">tictactoe.types</text><!--MD5=[f2254b5fdbf93effa50eb20dc057829b]
class tictactoe.models.Board--><rect fill="#FEFECE" filter="url(#f196jt6z6vps0l)" height="283.2109" id="tictactoe.models.Board" style="stroke: #A80036; stroke-width: 1.5;" width="298" x="158.1813" y="1291"/><ellipse cx="286.4313" cy="1307" fill="#ADD1B2" rx="11" ry="11" style="stroke: #A80036; stroke-width: 1.0;"/><path d="M289.1969,1302.875 Q289.3532,1302.6563 289.5407,1302.5469 Q289.7282,1302.4375 289.9469,1302.4375 Q290.3219,1302.4375 290.5563,1302.7031 Q290.7907,1302.9531 290.7907,1303.5625 L290.7907,1305.0156 Q290.7907,1305.625 290.5563,1305.8906 Q290.3219,1306.1563 289.9469,1306.1563 Q289.6032,1306.1563 289.4,1305.9531 Q289.1969,1305.7656 289.0875,1305.25 Q289.0407,1304.8906 288.8532,1304.7031 Q288.525,1304.3281 287.9157,1304.1094 Q287.3063,1303.8906 286.6813,1303.8906 Q285.9157,1303.8906 285.275,1304.2188 Q284.65,1304.5469 284.15,1305.2969 Q283.6657,1306.0469 283.6657,1307.0781 L283.6657,1308.1719 Q283.6657,1309.4063 284.5563,1310.2344 Q285.4469,1311.0469 287.0407,1311.0469 Q287.9782,1311.0469 288.6344,1310.7969 Q289.025,1310.6406 289.4469,1310.2031 Q289.7125,1309.9375 289.8532,1309.8594 Q290.0094,1309.7813 290.2125,1309.7813 Q290.5407,1309.7813 290.7907,1310.0469 Q291.0563,1310.2969 291.0563,1310.6406 Q291.0563,1310.9844 290.7125,1311.3906 Q290.2125,1311.9688 289.4157,1312.2969 Q288.3375,1312.75 287.0407,1312.75 Q285.525,1312.75 284.3219,1312.125 Q283.3375,1311.625 282.65,1310.5625 Q281.9625,1309.4844 281.9625,1308.2031 L281.9625,1307.0469 Q281.9625,1305.7188 282.5719,1304.5781 Q283.1969,1303.4219 284.2907,1302.8125 Q285.3844,1302.1875 286.6188,1302.1875 Q287.3532,1302.1875 287.9938,1302.3594 Q288.65,1302.5156 289.1969,1302.875 Z "/><text fill="#000000" font-family="sans-serif" font-size="12" lengthAdjust="spacingAndGlyphs" textLength="33" x="306.9313" y="1311.9102">Board</text><line style="stroke: #A80036; stroke-width: 1.5;" x1="159.1813" x2="455.1813" y1="1323" y2="1323"/><ellipse cx="169.1813" cy="1334" fill="none" rx="3" ry="3" style="stroke: #038048; stroke-width: 1.0;"/><text fill="#000000" font-family="sans-serif" font-size="11" lengthAdjust="spacingAndGlyphs" text-decoration="underline" textLength="62" x="178.1813" y="1338.4189">EMPTY: char</text><rect fill="none" height="6" style="stroke: #C82930; stroke-width: 1.0;" width="6" x="166.1813" y="1344.8359"/><text fill="#000000" font-family="sans-serif" font-size="11" lengthAdjust="spacingAndGlyphs" textLength="127" x="178.1813" y="1352.2549">coordinates: Coordinate[][]</text><line style="stroke: #A80036; stroke-width: 1.5;" x1="159.1813" x2="455.1813" y1="1358.6719" y2="1358.6719"/><ellipse cx="169.1813" cy="1369.6719" fill="#84BE84" rx="3" ry="3" style="stroke: #038048; stroke-width: 1.0;"/><text fill="#000000" font-family="sans-serif" font-size="11" lengthAdjust="spacingAndGlyphs" textLength="37" x="178.1813" y="1374.0908">Board()</text><ellipse cx="169.1813" cy="1383.5078" fill="#84BE84" rx="3" ry="3" style="stroke: #038048; stroke-width: 1.0;"/><text fill="#000000" font-family="sans-serif" font-size="11" lengthAdjust="spacingAndGlyphs" textLength="101" x="178.1813" y="1387.9268">Board(Coordinate[][])</text><ellipse cx="169.1813" cy="1397.3438" fill="#84BE84" rx="3" ry="3" style="stroke: #038048; stroke-width: 1.0;"/><text fill="#000000" font-family="sans-serif" font-size="11" lengthAdjust="spacingAndGlyphs" textLength="139" x="178.1813" y="1401.7627">getToken(Coordinate): Token</text><polygon fill="#4177AF" points="169.1813,1407.1797,165.1813,1413.1797,173.1813,1413.1797" style="stroke: #1963A0; stroke-width: 1.0;"/><text fill="#000000" font-family="sans-serif" font-size="11" lengthAdjust="spacingAndGlyphs" textLength="170" x="178.1813" y="1415.5986">move(Coordinate, Coordinate): void</text><polygon fill="#4177AF" points="169.1813,1421.0156,165.1813,1427.0156,173.1813,1427.0156" style="stroke: #1963A0; stroke-width: 1.0;"/><text fill="#000000" font-family="sans-serif" font-size="11" lengthAdjust="spacingAndGlyphs" textLength="136" x="178.1813" y="1429.4346">put(Coordinate, Token): void</text><rect fill="#F24D5C" height="6" style="stroke: #C82930; stroke-width: 1.0;" width="6" x="166.1813" y="1435.8516"/><text fill="#000000" font-family="sans-serif" font-size="11" lengthAdjust="spacingAndGlyphs" textLength="122" x="178.1813" y="1443.2705">remove(Coordinate): void</text><polygon fill="#4177AF" points="169.1813,1448.6875,165.1813,1454.6875,173.1813,1454.6875" style="stroke: #1963A0; stroke-width: 1.0;"/><text fill="#000000" font-family="sans-serif" font-size="11" lengthAdjust="spacingAndGlyphs" textLength="139" x="178.1813" y="1457.1064">isTicTacToe(Token): boolean</text><rect fill="#F24D5C" height="6" style="stroke: #C82930; stroke-width: 1.0;" width="6" x="166.1813" y="1463.5234"/><text fill="#000000" font-family="sans-serif" font-size="11" lengthAdjust="spacingAndGlyphs" textLength="189" x="178.1813" y="1470.9424">numberOfCoordinates(Coordinate[]): int</text><polygon fill="#4177AF" points="169.1813,1476.3594,165.1813,1482.3594,173.1813,1482.3594" style="stroke: #1963A0; stroke-width: 1.0;"/><text fill="#000000" font-family="sans-serif" font-size="11" lengthAdjust="spacingAndGlyphs" textLength="110" x="178.1813" y="1484.7783">isCompleted(): boolean</text><ellipse cx="169.1813" cy="1494.1953" fill="#84BE84" rx="3" ry="3" style="stroke: #038048; stroke-width: 1.0;"/><text fill="#000000" font-family="sans-serif" font-size="11" lengthAdjust="spacingAndGlyphs" textLength="141" x="178.1813" y="1498.6143">isEmpty(Coordinate): boolean</text><polygon fill="#4177AF" points="169.1813,1504.0313,165.1813,1510.0313,173.1813,1510.0313" style="stroke: #1963A0; stroke-width: 1.0;"/><text fill="#000000" font-family="sans-serif" font-size="11" lengthAdjust="spacingAndGlyphs" textLength="193" x="178.1813" y="1512.4502">isOccupied(Coordinate, Token): boolean</text><rect fill="#F24D5C" height="6" style="stroke: #C82930; stroke-width: 1.0;" width="6" x="166.1813" y="1518.8672"/><text fill="#000000" font-family="sans-serif" font-size="11" lengthAdjust="spacingAndGlyphs" textLength="246" x="178.1813" y="1526.2861">checkNumberOfCoordinates(Coordinate[]): boolean</text><rect fill="#F24D5C" height="6" style="stroke: #C82930; stroke-width: 1.0;" width="6" x="166.1813" y="1532.7031"/><text fill="#000000" font-family="sans-serif" font-size="11" lengthAdjust="spacingAndGlyphs" textLength="272" x="178.1813" y="1540.1221">checkDirectionOfFirstCoordinates(Coordinate[]): boolean</text><rect fill="#F24D5C" height="6" style="stroke: #C82930; stroke-width: 1.0;" width="6" x="166.1813" y="1546.5391"/><text fill="#000000" font-family="sans-serif" font-size="11" lengthAdjust="spacingAndGlyphs" textLength="263" x="178.1813" y="1553.958">checkDirectionOfAllCoordinates(Coordinate[]): boolean</text><polygon fill="#4177AF" points="169.1813,1559.375,165.1813,1565.375,173.1813,1565.375" style="stroke: #1963A0; stroke-width: 1.0;"/><text fill="#000000" font-family="sans-serif" font-size="11" lengthAdjust="spacingAndGlyphs" textLength="67" x="178.1813" y="1567.7939">copy(): Board</text><!--MD5=[55d70ecb9e3ba4786ec1f15d0b7dce13]
class tictactoe.models.Coordinate--><rect fill="#FEFECE" filter="url(#f196jt6z6vps0l)" height="158.6875" id="tictactoe.models.Coordinate" style="stroke: #A80036; stroke-width: 1.5;" width="191" x="301.6813" y="2154"/><ellipse cx="362.4313" cy="2170" fill="#ADD1B2" rx="11" ry="11" style="stroke: #A80036; stroke-width: 1.0;"/><path d="M365.1969,2165.875 Q365.3532,2165.6563 365.5407,2165.5469 Q365.7282,2165.4375 365.9469,2165.4375 Q366.3219,2165.4375 366.5563,2165.7031 Q366.7907,2165.9531 366.7907,2166.5625 L366.7907,2168.0156 Q366.7907,2168.625 366.5563,2168.8906 Q366.3219,2169.1563 365.9469,2169.1563 Q365.6032,2169.1563 365.4,2168.9531 Q365.1969,2168.7656 365.0875,2168.25 Q365.0407,2167.8906 364.8532,2167.7031 Q364.525,2167.3281 363.9157,2167.1094 Q363.3063,2166.8906 362.6813,2166.8906 Q361.9157,2166.8906 361.275,2167.2188 Q360.65,2167.5469 360.15,2168.2969 Q359.6657,2169.0469 359.6657,2170.0781 L359.6657,2171.1719 Q359.6657,2172.4063 360.5563,2173.2344 Q361.4469,2174.0469 363.0407,2174.0469 Q363.9782,2174.0469 364.6344,2173.7969 Q365.025,2173.6406 365.4469,2173.2031 Q365.7125,2172.9375 365.8532,2172.8594 Q366.0094,2172.7813 366.2125,2172.7813 Q366.5407,2172.7813 366.7907,2173.0469 Q367.0563,2173.2969 367.0563,2173.6406 Q367.0563,2173.9844 366.7125,2174.3906 Q366.2125,2174.9688 365.4157,2175.2969 Q364.3375,2175.75 363.0407,2175.75 Q361.525,2175.75 360.3219,2175.125 Q359.3375,2174.625 358.65,2173.5625 Q357.9625,2172.4844 357.9625,2171.2031 L357.9625,2170.0469 Q357.9625,2168.7188 358.5719,2167.5781 Q359.1969,2166.4219 360.2907,2165.8125 Q361.3844,2165.1875 362.6188,2165.1875 Q363.3532,2165.1875 363.9938,2165.3594 Q364.65,2165.5156 365.1969,2165.875 Z "/><text fill="#000000" font-family="sans-serif" font-size="12" lengthAdjust="spacingAndGlyphs" textLength="61" x="382.9313" y="2174.9102">Coordinate</text><line style="stroke: #A80036; stroke-width: 1.5;" x1="302.6813" x2="491.6813" y1="2186" y2="2186"/><ellipse cx="312.6813" cy="2197" fill="none" rx="3" ry="3" style="stroke: #038048; stroke-width: 1.0;"/><text fill="#000000" font-family="sans-serif" font-size="11" lengthAdjust="spacingAndGlyphs" text-decoration="underline" textLength="82" x="321.6813" y="2201.4189">DIMENSION: char</text><line style="stroke: #A80036; stroke-width: 1.5;" x1="302.6813" x2="491.6813" y1="2207.8359" y2="2207.8359"/><ellipse cx="312.6813" cy="2218.8359" fill="#84BE84" rx="3" ry="3" style="stroke: #038048; stroke-width: 1.0;"/><text fill="#000000" font-family="sans-serif" font-size="11" lengthAdjust="spacingAndGlyphs" textLength="60" x="321.6813" y="2223.2549">Coordinate()</text><ellipse cx="312.6813" cy="2232.6719" fill="#84BE84" rx="3" ry="3" style="stroke: #038048; stroke-width: 1.0;"/><text fill="#000000" font-family="sans-serif" font-size="11" lengthAdjust="spacingAndGlyphs" textLength="88" x="321.6813" y="2237.0908">Coordinate(int, int)</text><polygon fill="#4177AF" points="312.6813,2242.5078,308.6813,2248.5078,316.6813,2248.5078" style="stroke: #1963A0; stroke-width: 1.0;"/><text fill="#000000" font-family="sans-serif" font-size="11" lengthAdjust="spacingAndGlyphs" textLength="154" x="321.6813" y="2250.9268">inDirection(Coordinate): boolean</text><polygon fill="#4177AF" points="312.6813,2256.3438,308.6813,2262.3438,316.6813,2262.3438" style="stroke: #1963A0; stroke-width: 1.0;"/><text fill="#000000" font-family="sans-serif" font-size="11" lengthAdjust="spacingAndGlyphs" textLength="165" x="321.6813" y="2264.7627">getDirection(Coordinate): Direction</text><rect fill="#F24D5C" height="6" style="stroke: #C82930; stroke-width: 1.0;" width="6" x="309.6813" y="2271.1797"/><text fill="#000000" font-family="sans-serif" font-size="11" lengthAdjust="spacingAndGlyphs" textLength="137" x="321.6813" y="2278.5986">inInverseDiagonal(): boolean</text><ellipse cx="312.6813" cy="2288.0156" fill="#84BE84" rx="3" ry="3" style="stroke: #038048; stroke-width: 1.0;"/><text fill="#000000" font-family="sans-serif" font-size="11" lengthAdjust="spacingAndGlyphs" textLength="84" x="321.6813" y="2292.4346">isValid(): boolean</text><ellipse cx="312.6813" cy="2301.8516" fill="#84BE84" rx="3" ry="3" style="stroke: #038048; stroke-width: 1.0;"/><text fill="#000000" font-family="sans-serif" font-size="11" lengthAdjust="spacingAndGlyphs" textLength="70" x="321.6813" y="2306.2705">random(): void</text><!--MD5=[b42b9147ed7462532394f7fe6f96703d]
class tictactoe.models.Turn--><rect fill="#FEFECE" filter="url(#f196jt6z6vps0l)" height="200.1953" id="tictactoe.models.Turn" style="stroke: #A80036; stroke-width: 1.5;" width="142" x="96.1813" y="1634"/><ellipse cx="150.4313" cy="1650" fill="#ADD1B2" rx="11" ry="11" style="stroke: #A80036; stroke-width: 1.0;"/><path d="M153.1969,1645.875 Q153.3532,1645.6563 153.5407,1645.5469 Q153.7282,1645.4375 153.9469,1645.4375 Q154.3219,1645.4375 154.5563,1645.7031 Q154.7907,1645.9531 154.7907,1646.5625 L154.7907,1648.0156 Q154.7907,1648.625 154.5563,1648.8906 Q154.3219,1649.1563 153.9469,1649.1563 Q153.6032,1649.1563 153.4,1648.9531 Q153.1969,1648.7656 153.0875,1648.25 Q153.0407,1647.8906 152.8532,1647.7031 Q152.525,1647.3281 151.9157,1647.1094 Q151.3063,1646.8906 150.6813,1646.8906 Q149.9157,1646.8906 149.275,1647.2188 Q148.65,1647.5469 148.15,1648.2969 Q147.6657,1649.0469 147.6657,1650.0781 L147.6657,1651.1719 Q147.6657,1652.4063 148.5563,1653.2344 Q149.4469,1654.0469 151.0407,1654.0469 Q151.9782,1654.0469 152.6344,1653.7969 Q153.025,1653.6406 153.4469,1653.2031 Q153.7125,1652.9375 153.8532,1652.8594 Q154.0094,1652.7813 154.2125,1652.7813 Q154.5407,1652.7813 154.7907,1653.0469 Q155.0563,1653.2969 155.0563,1653.6406 Q155.0563,1653.9844 154.7125,1654.3906 Q154.2125,1654.9688 153.4157,1655.2969 Q152.3375,1655.75 151.0407,1655.75 Q149.525,1655.75 148.3219,1655.125 Q147.3375,1654.625 146.65,1653.5625 Q145.9625,1652.4844 145.9625,1651.2031 L145.9625,1650.0469 Q145.9625,1648.7188 146.5719,1647.5781 Q147.1969,1646.4219 148.2907,1645.8125 Q149.3844,1645.1875 150.6188,1645.1875 Q151.3532,1645.1875 151.9938,1645.3594 Q152.65,1645.5156 153.1969,1645.875 Z "/><text fill="#000000" font-family="sans-serif" font-size="12" lengthAdjust="spacingAndGlyphs" textLength="25" x="170.9313" y="1654.9102">Turn</text><line style="stroke: #A80036; stroke-width: 1.5;" x1="97.1813" x2="237.1813" y1="1666" y2="1666"/><ellipse cx="107.1813" cy="1677" fill="none" rx="3" ry="3" style="stroke: #038048; stroke-width: 1.0;"/><text fill="#000000" font-family="sans-serif" font-size="11" lengthAdjust="spacingAndGlyphs" text-decoration="underline" textLength="93" x="116.1813" y="1681.4189">NUM_PLAYERS: int</text><rect fill="none" height="6" style="stroke: #C82930; stroke-width: 1.0;" width="6" x="104.1813" y="1687.8359"/><text fill="#000000" font-family="sans-serif" font-size="11" lengthAdjust="spacingAndGlyphs" textLength="43" x="116.1813" y="1695.2549">value: int</text><rect fill="none" height="6" style="stroke: #C82930; stroke-width: 1.0;" width="6" x="104.1813" y="1701.6719"/><text fill="#000000" font-family="sans-serif" font-size="11" lengthAdjust="spacingAndGlyphs" textLength="78" x="116.1813" y="1709.0908">players: Player[]</text><line style="stroke: #A80036; stroke-width: 1.5;" x1="97.1813" x2="237.1813" y1="1715.5078" y2="1715.5078"/><ellipse cx="107.1813" cy="1726.5078" fill="#84BE84" rx="3" ry="3" style="stroke: #038048; stroke-width: 1.0;"/><text fill="#000000" font-family="sans-serif" font-size="11" lengthAdjust="spacingAndGlyphs" textLength="66" x="116.1813" y="1730.9268">Turn(Player[])</text><ellipse cx="107.1813" cy="1740.3438" fill="#84BE84" rx="3" ry="3" style="stroke: #038048; stroke-width: 1.0;"/><text fill="#000000" font-family="sans-serif" font-size="11" lengthAdjust="spacingAndGlyphs" textLength="83" x="116.1813" y="1744.7627">Turn(Player[], int)</text><polygon fill="#4177AF" points="107.1813,1750.1797,103.1813,1756.1797,111.1813,1756.1797" style="stroke: #1963A0; stroke-width: 1.0;"/><text fill="#000000" font-family="sans-serif" font-size="11" lengthAdjust="spacingAndGlyphs" textLength="70" x="116.1813" y="1758.5986">change(): void</text><polygon fill="#4177AF" points="107.1813,1764.0156,103.1813,1770.0156,111.1813,1770.0156" style="stroke: #1963A0; stroke-width: 1.0;"/><text fill="#000000" font-family="sans-serif" font-size="11" lengthAdjust="spacingAndGlyphs" textLength="89" x="116.1813" y="1772.4346">getPlayer(): Player</text><polygon fill="#4177AF" points="107.1813,1777.8516,103.1813,1783.8516,111.1813,1783.8516" style="stroke: #1963A0; stroke-width: 1.0;"/><text fill="#000000" font-family="sans-serif" font-size="11" lengthAdjust="spacingAndGlyphs" textLength="68" x="116.1813" y="1786.2705">getValue(): int</text><rect fill="#F24D5C" height="6" style="stroke: #C82930; stroke-width: 1.0;" width="6" x="104.1813" y="1792.6875"/><text fill="#000000" font-family="sans-serif" font-size="11" lengthAdjust="spacingAndGlyphs" textLength="95" x="116.1813" y="1800.1064">getOtherValue(): int</text><polygon fill="#4177AF" points="107.1813,1805.5234,103.1813,1811.5234,111.1813,1811.5234" style="stroke: #1963A0; stroke-width: 1.0;"/><text fill="#000000" font-family="sans-serif" font-size="11" lengthAdjust="spacingAndGlyphs" textLength="116" x="116.1813" y="1813.9424">getOtherPlayer(): Player</text><polygon fill="#4177AF" points="107.1813,1819.3594,103.1813,1825.3594,111.1813,1825.3594" style="stroke: #1963A0; stroke-width: 1.0;"/><text fill="#000000" font-family="sans-serif" font-size="11" lengthAdjust="spacingAndGlyphs" textLength="96" x="116.1813" y="1827.7783">copy(Player[]): Turn</text><!--MD5=[8d3188f3c370ea7d5d91d12bca83b67a]
class tictactoe.models.Game--><rect fill="#FEFECE" filter="url(#f196jt6z6vps0l)" height="324.7188" id="tictactoe.models.Game" style="stroke: #A80036; stroke-width: 1.5;" width="322" x="165.1813" y="701"/><ellipse cx="304.9313" cy="717" fill="#ADD1B2" rx="11" ry="11" style="stroke: #A80036; stroke-width: 1.0;"/><path d="M307.6969,712.875 Q307.8532,712.6563 308.0407,712.5469 Q308.2282,712.4375 308.4469,712.4375 Q308.8219,712.4375 309.0563,712.7031 Q309.2907,712.9531 309.2907,713.5625 L309.2907,715.0156 Q309.2907,715.625 309.0563,715.8906 Q308.8219,716.1563 308.4469,716.1563 Q308.1032,716.1563 307.9,715.9531 Q307.6969,715.7656 307.5875,715.25 Q307.5407,714.8906 307.3532,714.7031 Q307.025,714.3281 306.4157,714.1094 Q305.8063,713.8906 305.1813,713.8906 Q304.4157,713.8906 303.775,714.2188 Q303.15,714.5469 302.65,715.2969 Q302.1657,716.0469 302.1657,717.0781 L302.1657,718.1719 Q302.1657,719.4063 303.0563,720.2344 Q303.9469,721.0469 305.5407,721.0469 Q306.4782,721.0469 307.1344,720.7969 Q307.525,720.6406 307.9469,720.2031 Q308.2125,719.9375 308.3532,719.8594 Q308.5094,719.7813 308.7125,719.7813 Q309.0407,719.7813 309.2907,720.0469 Q309.5563,720.2969 309.5563,720.6406 Q309.5563,720.9844 309.2125,721.3906 Q308.7125,721.9688 307.9157,722.2969 Q306.8375,722.75 305.5407,722.75 Q304.025,722.75 302.8219,722.125 Q301.8375,721.625 301.15,720.5625 Q300.4625,719.4844 300.4625,718.2031 L300.4625,717.0469 Q300.4625,715.7188 301.0719,714.5781 Q301.6969,713.4219 302.7907,712.8125 Q303.8844,712.1875 305.1188,712.1875 Q305.8532,712.1875 306.4938,712.3594 Q307.15,712.5156 307.6969,712.875 Z "/><text fill="#000000" font-family="sans-serif" font-size="12" lengthAdjust="spacingAndGlyphs" textLength="34" x="325.4313" y="721.9102">Game</text><line style="stroke: #A80036; stroke-width: 1.5;" x1="166.1813" x2="486.1813" y1="733" y2="733"/><rect fill="none" height="6" style="stroke: #C82930; stroke-width: 1.0;" width="6" x="173.1813" y="741"/><text fill="#000000" font-family="sans-serif" font-size="11" lengthAdjust="spacingAndGlyphs" textLength="63" x="185.1813" y="748.4189">board: Board</text><rect fill="none" height="6" style="stroke: #C82930; stroke-width: 1.0;" width="6" x="173.1813" y="754.8359"/><text fill="#000000" font-family="sans-serif" font-size="11" lengthAdjust="spacingAndGlyphs" textLength="84" x="185.1813" y="762.2549">players: Player[][]</text><rect fill="none" height="6" style="stroke: #C82930; stroke-width: 1.0;" width="6" x="173.1813" y="768.6719"/><text fill="#000000" font-family="sans-serif" font-size="11" lengthAdjust="spacingAndGlyphs" textLength="47" x="185.1813" y="776.0908">turn: Turn</text><line style="stroke: #A80036; stroke-width: 1.5;" x1="166.1813" x2="486.1813" y1="782.5078" y2="782.5078"/><ellipse cx="176.1813" cy="793.5078" fill="#84BE84" rx="3" ry="3" style="stroke: #038048; stroke-width: 1.0;"/><text fill="#000000" font-family="sans-serif" font-size="11" lengthAdjust="spacingAndGlyphs" textLength="36" x="185.1813" y="797.9268">Game()</text><ellipse cx="176.1813" cy="807.3438" fill="#84BE84" rx="3" ry="3" style="stroke: #038048; stroke-width: 1.0;"/><text fill="#000000" font-family="sans-serif" font-size="11" lengthAdjust="spacingAndGlyphs" textLength="112" x="185.1813" y="811.7627">createPlayers(int): void</text><polygon fill="#4177AF" points="176.1813,817.1797,172.1813,823.1797,180.1813,823.1797" style="stroke: #1963A0; stroke-width: 1.0;"/><text fill="#000000" font-family="sans-serif" font-size="11" lengthAdjust="spacingAndGlyphs" textLength="131" x="185.1813" y="825.5986">createMemento(): Memento</text><polygon fill="#4177AF" points="176.1813,831.0156,172.1813,837.0156,180.1813,837.0156" style="stroke: #1963A0; stroke-width: 1.0;"/><text fill="#000000" font-family="sans-serif" font-size="11" lengthAdjust="spacingAndGlyphs" textLength="92" x="185.1813" y="839.4346">set(Memento): void</text><rect fill="#F24D5C" height="6" style="stroke: #C82930; stroke-width: 1.0;" width="6" x="173.1813" y="845.8516"/><text fill="#000000" font-family="sans-serif" font-size="11" lengthAdjust="spacingAndGlyphs" textLength="225" x="185.1813" y="853.2705">createCopyOfPlayers(Player[], Board): Player[]</text><ellipse cx="176.1813" cy="862.6875" fill="#84BE84" rx="3" ry="3" style="stroke: #038048; stroke-width: 1.0;"/><text fill="#000000" font-family="sans-serif" font-size="11" lengthAdjust="spacingAndGlyphs" textLength="133" x="185.1813" y="867.1064">isBoardComplete(): boolean</text><ellipse cx="176.1813" cy="876.5234" fill="#84BE84" rx="3" ry="3" style="stroke: #038048; stroke-width: 1.0;"/><text fill="#000000" font-family="sans-serif" font-size="11" lengthAdjust="spacingAndGlyphs" textLength="206" x="185.1813" y="880.9424">putTokenPlayerFromTurn(Coordinate): void</text><ellipse cx="176.1813" cy="890.3594" fill="#84BE84" rx="3" ry="3" style="stroke: #038048; stroke-width: 1.0;"/><text fill="#000000" font-family="sans-serif" font-size="11" lengthAdjust="spacingAndGlyphs" textLength="223" x="185.1813" y="894.7783">moveTokenPlayerFromTurn(Coordinate[]): void</text><ellipse cx="176.1813" cy="904.1953" fill="#84BE84" rx="3" ry="3" style="stroke: #038048; stroke-width: 1.0;"/><text fill="#000000" font-family="sans-serif" font-size="11" lengthAdjust="spacingAndGlyphs" textLength="224" x="185.1813" y="908.6143">getTypeOfTokenPlayerFromTurn(): PlayerType</text><ellipse cx="176.1813" cy="918.0313" fill="#84BE84" rx="3" ry="3" style="stroke: #038048; stroke-width: 1.0;"/><text fill="#000000" font-family="sans-serif" font-size="11" lengthAdjust="spacingAndGlyphs" textLength="196" x="185.1813" y="922.4502">getPutCoordinateError(Coordinate): Error</text><ellipse cx="176.1813" cy="931.8672" fill="#84BE84" rx="3" ry="3" style="stroke: #038048; stroke-width: 1.0;"/><text fill="#000000" font-family="sans-serif" font-size="11" lengthAdjust="spacingAndGlyphs" textLength="235" x="185.1813" y="936.2861">getMoveOriginCoordinateError(Coordinate): Error</text><ellipse cx="176.1813" cy="945.7031" fill="#84BE84" rx="3" ry="3" style="stroke: #038048; stroke-width: 1.0;"/><text fill="#000000" font-family="sans-serif" font-size="11" lengthAdjust="spacingAndGlyphs" textLength="296" x="185.1813" y="950.1221">getMoveTargetCoordinateError(Coordinate, Coordinate): Error</text><ellipse cx="176.1813" cy="959.5391" fill="#84BE84" rx="3" ry="3" style="stroke: #038048; stroke-width: 1.0;"/><text fill="#000000" font-family="sans-serif" font-size="11" lengthAdjust="spacingAndGlyphs" textLength="139" x="185.1813" y="963.958">getToken(Coordinate): Token</text><ellipse cx="176.1813" cy="973.375" fill="#84BE84" rx="3" ry="3" style="stroke: #038048; stroke-width: 1.0;"/><text fill="#000000" font-family="sans-serif" font-size="11" lengthAdjust="spacingAndGlyphs" textLength="92" x="185.1813" y="977.7939">changeTurn(): void</text><ellipse cx="176.1813" cy="987.2109" fill="#84BE84" rx="3" ry="3" style="stroke: #038048; stroke-width: 1.0;"/><text fill="#000000" font-family="sans-serif" font-size="11" lengthAdjust="spacingAndGlyphs" textLength="110" x="185.1813" y="991.6299">isTicTacToe(): boolean</text><ellipse cx="176.1813" cy="1001.0469" fill="#84BE84" rx="3" ry="3" style="stroke: #038048; stroke-width: 1.0;"/><text fill="#000000" font-family="sans-serif" font-size="11" lengthAdjust="spacingAndGlyphs" textLength="114" x="185.1813" y="1005.4658">getValueFromTurn(): int</text><ellipse cx="176.1813" cy="1014.8828" fill="#84BE84" rx="3" ry="3" style="stroke: #038048; stroke-width: 1.0;"/><text fill="#000000" font-family="sans-serif" font-size="11" lengthAdjust="spacingAndGlyphs" textLength="84" x="185.1813" y="1019.3018">newGame(): void</text><!--MD5=[3b54484399e9c5d8797124604fd4af65]
class tictactoe.models.Player--><rect fill="#FEFECE" filter="url(#f196jt6z6vps0l)" height="200.1953" id="tictactoe.models.Player" style="stroke: #A80036; stroke-width: 1.5;" width="322" x="47.1813" y="1894"/><ellipse cx="186.9313" cy="1910" fill="#ADD1B2" rx="11" ry="11" style="stroke: #A80036; stroke-width: 1.0;"/><path d="M189.6969,1905.875 Q189.8532,1905.6563 190.0407,1905.5469 Q190.2282,1905.4375 190.4469,1905.4375 Q190.8219,1905.4375 191.0563,1905.7031 Q191.2907,1905.9531 191.2907,1906.5625 L191.2907,1908.0156 Q191.2907,1908.625 191.0563,1908.8906 Q190.8219,1909.1563 190.4469,1909.1563 Q190.1032,1909.1563 189.9,1908.9531 Q189.6969,1908.7656 189.5875,1908.25 Q189.5407,1907.8906 189.3532,1907.7031 Q189.025,1907.3281 188.4157,1907.1094 Q187.8063,1906.8906 187.1813,1906.8906 Q186.4157,1906.8906 185.775,1907.2188 Q185.15,1907.5469 184.65,1908.2969 Q184.1657,1909.0469 184.1657,1910.0781 L184.1657,1911.1719 Q184.1657,1912.4063 185.0563,1913.2344 Q185.9469,1914.0469 187.5407,1914.0469 Q188.4782,1914.0469 189.1344,1913.7969 Q189.525,1913.6406 189.9469,1913.2031 Q190.2125,1912.9375 190.3532,1912.8594 Q190.5094,1912.7813 190.7125,1912.7813 Q191.0407,1912.7813 191.2907,1913.0469 Q191.5563,1913.2969 191.5563,1913.6406 Q191.5563,1913.9844 191.2125,1914.3906 Q190.7125,1914.9688 189.9157,1915.2969 Q188.8375,1915.75 187.5407,1915.75 Q186.025,1915.75 184.8219,1915.125 Q183.8375,1914.625 183.15,1913.5625 Q182.4625,1912.4844 182.4625,1911.2031 L182.4625,1910.0469 Q182.4625,1908.7188 183.0719,1907.5781 Q183.6969,1906.4219 184.7907,1905.8125 Q185.8844,1905.1875 187.1188,1905.1875 Q187.8532,1905.1875 188.4938,1905.3594 Q189.15,1905.5156 189.6969,1905.875 Z "/><text fill="#000000" font-family="sans-serif" font-size="12" lengthAdjust="spacingAndGlyphs" textLength="34" x="207.4313" y="1914.9102">Player</text><line style="stroke: #A80036; stroke-width: 1.5;" x1="48.1813" x2="368.1813" y1="1926" y2="1926"/><rect fill="none" height="6" style="stroke: #C82930; stroke-width: 1.0;" width="6" x="55.1813" y="1934"/><text fill="#000000" font-family="sans-serif" font-size="11" lengthAdjust="spacingAndGlyphs" textLength="61" x="67.1813" y="1941.4189">token: Token</text><rect fill="none" height="6" style="stroke: #C82930; stroke-width: 1.0;" width="6" x="55.1813" y="1947.8359"/><text fill="#000000" font-family="sans-serif" font-size="11" lengthAdjust="spacingAndGlyphs" textLength="63" x="67.1813" y="1955.2549">board: Board</text><rect fill="none" height="6" style="stroke: #C82930; stroke-width: 1.0;" width="6" x="55.1813" y="1961.6719"/><text fill="#000000" font-family="sans-serif" font-size="11" lengthAdjust="spacingAndGlyphs" textLength="81" x="67.1813" y="1969.0908">type: PlayerType</text><line style="stroke: #A80036; stroke-width: 1.5;" x1="48.1813" x2="368.1813" y1="1975.5078" y2="1975.5078"/><ellipse cx="58.1813" cy="1986.5078" fill="#84BE84" rx="3" ry="3" style="stroke: #038048; stroke-width: 1.0;"/><text fill="#000000" font-family="sans-serif" font-size="11" lengthAdjust="spacingAndGlyphs" textLength="162" x="67.1813" y="1990.9268">Player(Token, Board, PlayerType)</text><ellipse cx="58.1813" cy="2000.3438" fill="#84BE84" rx="3" ry="3" style="stroke: #038048; stroke-width: 1.0;"/><text fill="#000000" font-family="sans-serif" font-size="11" lengthAdjust="spacingAndGlyphs" textLength="107" x="67.1813" y="2004.7627">getType(): PlayerType</text><polygon fill="#4177AF" points="58.1813,2010.1797,54.1813,2016.1797,62.1813,2016.1797" style="stroke: #1963A0; stroke-width: 1.0;"/><text fill="#000000" font-family="sans-serif" font-size="11" lengthAdjust="spacingAndGlyphs" textLength="87" x="67.1813" y="2018.5986">getToken(): Token</text><polygon fill="#4177AF" points="58.1813,2024.0156,54.1813,2030.0156,62.1813,2030.0156" style="stroke: #1963A0; stroke-width: 1.0;"/><text fill="#000000" font-family="sans-serif" font-size="11" lengthAdjust="spacingAndGlyphs" textLength="101" x="67.1813" y="2032.4346">put(Coordinate): void</text><polygon fill="#4177AF" points="58.1813,2037.8516,54.1813,2043.8516,62.1813,2043.8516" style="stroke: #1963A0; stroke-width: 1.0;"/><text fill="#000000" font-family="sans-serif" font-size="11" lengthAdjust="spacingAndGlyphs" textLength="118" x="67.1813" y="2046.2705">move(Coordinate[]): void</text><ellipse cx="58.1813" cy="2055.6875" fill="#84BE84" rx="3" ry="3" style="stroke: #038048; stroke-width: 1.0;"/><text fill="#000000" font-family="sans-serif" font-size="11" lengthAdjust="spacingAndGlyphs" textLength="196" x="67.1813" y="2060.1064">getPutCoordinateError(Coordinate): Error</text><ellipse cx="58.1813" cy="2069.5234" fill="#84BE84" rx="3" ry="3" style="stroke: #038048; stroke-width: 1.0;"/><text fill="#000000" font-family="sans-serif" font-size="11" lengthAdjust="spacingAndGlyphs" textLength="235" x="67.1813" y="2073.9424">getMoveOriginCoordinateError(Coordinate): Error</text><ellipse cx="58.1813" cy="2083.3594" fill="#84BE84" rx="3" ry="3" style="stroke: #038048; stroke-width: 1.0;"/><text fill="#000000" font-family="sans-serif" font-size="11" lengthAdjust="spacingAndGlyphs" textLength="296" x="67.1813" y="2087.7783">getMoveTargetCoordinateError(Coordinate, Coordinate): Error</text><!--MD5=[e3e7462999bb53e8f1f807d9bd18d9da]
class tictactoe.models.Memento--><rect fill="#FEFECE" filter="url(#f196jt6z6vps0l)" height="144.8516" id="tictactoe.models.Memento" style="stroke: #A80036; stroke-width: 1.5;" width="176" x="47.1813" y="1086"/><ellipse cx="105.4313" cy="1102" fill="#ADD1B2" rx="11" ry="11" style="stroke: #A80036; stroke-width: 1.0;"/><path d="M108.1969,1097.875 Q108.3532,1097.6563 108.5407,1097.5469 Q108.7282,1097.4375 108.9469,1097.4375 Q109.3219,1097.4375 109.5563,1097.7031 Q109.7907,1097.9531 109.7907,1098.5625 L109.7907,1100.0156 Q109.7907,1100.625 109.5563,1100.8906 Q109.3219,1101.1563 108.9469,1101.1563 Q108.6032,1101.1563 108.4,1100.9531 Q108.1969,1100.7656 108.0875,1100.25 Q108.0407,1099.8906 107.8532,1099.7031 Q107.525,1099.3281 106.9157,1099.1094 Q106.3063,1098.8906 105.6813,1098.8906 Q104.9157,1098.8906 104.275,1099.2188 Q103.65,1099.5469 103.15,1100.2969 Q102.6657,1101.0469 102.6657,1102.0781 L102.6657,1103.1719 Q102.6657,1104.4063 103.5563,1105.2344 Q104.4469,1106.0469 106.0407,1106.0469 Q106.9782,1106.0469 107.6344,1105.7969 Q108.025,1105.6406 108.4469,1105.2031 Q108.7125,1104.9375 108.8532,1104.8594 Q109.0094,1104.7813 109.2125,1104.7813 Q109.5407,1104.7813 109.7907,1105.0469 Q110.0563,1105.2969 110.0563,1105.6406 Q110.0563,1105.9844 109.7125,1106.3906 Q109.2125,1106.9688 108.4157,1107.2969 Q107.3375,1107.75 106.0407,1107.75 Q104.525,1107.75 103.3219,1107.125 Q102.3375,1106.625 101.65,1105.5625 Q100.9625,1104.4844 100.9625,1103.2031 L100.9625,1102.0469 Q100.9625,1100.7188 101.5719,1099.5781 Q102.1969,1098.4219 103.2907,1097.8125 Q104.3844,1097.1875 105.6188,1097.1875 Q106.3532,1097.1875 106.9938,1097.3594 Q107.65,1097.5156 108.1969,1097.875 Z "/><text fill="#000000" font-family="sans-serif" font-size="12" lengthAdjust="spacingAndGlyphs" textLength="51" x="125.9313" y="1106.9102">Memento</text><line style="stroke: #A80036; stroke-width: 1.5;" x1="48.1813" x2="222.1813" y1="1118" y2="1118"/><rect fill="none" height="6" style="stroke: #C82930; stroke-width: 1.0;" width="6" x="55.1813" y="1126"/><text fill="#000000" font-family="sans-serif" font-size="11" lengthAdjust="spacingAndGlyphs" textLength="63" x="67.1813" y="1133.4189">board: Board</text><rect fill="none" height="6" style="stroke: #C82930; stroke-width: 1.0;" width="6" x="55.1813" y="1139.8359"/><text fill="#000000" font-family="sans-serif" font-size="11" lengthAdjust="spacingAndGlyphs" textLength="84" x="67.1813" y="1147.2549">players: Player[][]</text><rect fill="none" height="6" style="stroke: #C82930; stroke-width: 1.0;" width="6" x="55.1813" y="1153.6719"/><text fill="#000000" font-family="sans-serif" font-size="11" lengthAdjust="spacingAndGlyphs" textLength="47" x="67.1813" y="1161.0908">turn: Turn</text><line style="stroke: #A80036; stroke-width: 1.5;" x1="48.1813" x2="222.1813" y1="1167.5078" y2="1167.5078"/><ellipse cx="58.1813" cy="1178.5078" fill="#84BE84" rx="3" ry="3" style="stroke: #038048; stroke-width: 1.0;"/><text fill="#000000" font-family="sans-serif" font-size="11" lengthAdjust="spacingAndGlyphs" textLength="150" x="67.1813" y="1182.9268">Memento(Board, Player[], Turn)</text><ellipse cx="58.1813" cy="1192.3438" fill="#84BE84" rx="3" ry="3" style="stroke: #038048; stroke-width: 1.0;"/><text fill="#000000" font-family="sans-serif" font-size="11" lengthAdjust="spacingAndGlyphs" textLength="87" x="67.1813" y="1196.7627">getBoard(): Board</text><polygon fill="#4177AF" points="58.1813,1202.1797,54.1813,1208.1797,62.1813,1208.1797" style="stroke: #1963A0; stroke-width: 1.0;"/><text fill="#000000" font-family="sans-serif" font-size="11" lengthAdjust="spacingAndGlyphs" textLength="101" x="67.1813" y="1210.5986">getPlayers(): Player[]</text><polygon fill="#4177AF" points="58.1813,1216.0156,54.1813,1222.0156,62.1813,1222.0156" style="stroke: #1963A0; stroke-width: 1.0;"/><text fill="#000000" font-family="sans-serif" font-size="11" lengthAdjust="spacingAndGlyphs" textLength="73" x="67.1813" y="1224.4346">getTurn(): Turn</text><!--MD5=[2b14e0e96db7f5316a979ffb128b98ab]
class tictactoe.models.Registry--><rect fill="#FEFECE" filter="url(#f196jt6z6vps0l)" height="172.5234" id="tictactoe.models.Registry" style="stroke: #A80036; stroke-width: 1.5;" width="192" x="67.1813" y="468"/><ellipse cx="136.4313" cy="484" fill="#ADD1B2" rx="11" ry="11" style="stroke: #A80036; stroke-width: 1.0;"/><path d="M139.1969,479.875 Q139.3532,479.6563 139.5407,479.5469 Q139.7282,479.4375 139.9469,479.4375 Q140.3219,479.4375 140.5563,479.7031 Q140.7907,479.9531 140.7907,480.5625 L140.7907,482.0156 Q140.7907,482.625 140.5563,482.8906 Q140.3219,483.1563 139.9469,483.1563 Q139.6032,483.1563 139.4,482.9531 Q139.1969,482.7656 139.0875,482.25 Q139.0407,481.8906 138.8532,481.7031 Q138.525,481.3281 137.9157,481.1094 Q137.3063,480.8906 136.6813,480.8906 Q135.9157,480.8906 135.275,481.2188 Q134.65,481.5469 134.15,482.2969 Q133.6657,483.0469 133.6657,484.0781 L133.6657,485.1719 Q133.6657,486.4063 134.5563,487.2344 Q135.4469,488.0469 137.0407,488.0469 Q137.9782,488.0469 138.6344,487.7969 Q139.025,487.6406 139.4469,487.2031 Q139.7125,486.9375 139.8532,486.8594 Q140.0094,486.7813 140.2125,486.7813 Q140.5407,486.7813 140.7907,487.0469 Q141.0563,487.2969 141.0563,487.6406 Q141.0563,487.9844 140.7125,488.3906 Q140.2125,488.9688 139.4157,489.2969 Q138.3375,489.75 137.0407,489.75 Q135.525,489.75 134.3219,489.125 Q133.3375,488.625 132.65,487.5625 Q131.9625,486.4844 131.9625,485.2031 L131.9625,484.0469 Q131.9625,482.7188 132.5719,481.5781 Q133.1969,480.4219 134.2907,479.8125 Q135.3844,479.1875 136.6188,479.1875 Q137.3532,479.1875 137.9938,479.3594 Q138.65,479.5156 139.1969,479.875 Z "/><text fill="#000000" font-family="sans-serif" font-size="12" lengthAdjust="spacingAndGlyphs" textLength="45" x="156.9313" y="488.9102">Registry</text><line style="stroke: #A80036; stroke-width: 1.5;" x1="68.1813" x2="258.1813" y1="500" y2="500"/><rect fill="none" height="6" style="stroke: #C82930; stroke-width: 1.0;" width="6" x="75.1813" y="508"/><text fill="#000000" font-family="sans-serif" font-size="11" lengthAdjust="spacingAndGlyphs" textLength="166" x="87.1813" y="515.4189">mementoList: ArrayList&lt;Memento&gt;</text><rect fill="none" height="6" style="stroke: #C82930; stroke-width: 1.0;" width="6" x="75.1813" y="521.8359"/><text fill="#000000" font-family="sans-serif" font-size="11" lengthAdjust="spacingAndGlyphs" textLength="60" x="87.1813" y="529.2549">game: Game</text><rect fill="none" height="6" style="stroke: #C82930; stroke-width: 1.0;" width="6" x="75.1813" y="535.6719"/><text fill="#000000" font-family="sans-serif" font-size="11" lengthAdjust="spacingAndGlyphs" textLength="78" x="87.1813" y="543.0908">firstPrevious: int</text><line style="stroke: #A80036; stroke-width: 1.5;" x1="68.1813" x2="258.1813" y1="549.5078" y2="549.5078"/><polygon fill="#4177AF" points="78.1813,556.5078,74.1813,562.5078,82.1813,562.5078" style="stroke: #1963A0; stroke-width: 1.0;"/><text fill="#000000" font-family="sans-serif" font-size="11" lengthAdjust="spacingAndGlyphs" textLength="76" x="87.1813" y="564.9268">Registry(Game)</text><polygon fill="#4177AF" points="78.1813,570.3438,74.1813,576.3438,82.1813,576.3438" style="stroke: #1963A0; stroke-width: 1.0;"/><text fill="#000000" font-family="sans-serif" font-size="11" lengthAdjust="spacingAndGlyphs" textLength="71" x="87.1813" y="578.7627">registry(): void</text><polygon fill="#4177AF" points="78.1813,584.1797,74.1813,590.1797,82.1813,590.1797" style="stroke: #1963A0; stroke-width: 1.0;"/><text fill="#000000" font-family="sans-serif" font-size="11" lengthAdjust="spacingAndGlyphs" textLength="84" x="87.1813" y="592.5986">redo(Game): void</text><polygon fill="#4177AF" points="78.1813,598.0156,74.1813,604.0156,82.1813,604.0156" style="stroke: #1963A0; stroke-width: 1.0;"/><text fill="#000000" font-family="sans-serif" font-size="11" lengthAdjust="spacingAndGlyphs" textLength="96" x="87.1813" y="606.4346">undoable(): boolean</text><polygon fill="#4177AF" points="78.1813,611.8516,74.1813,617.8516,82.1813,617.8516" style="stroke: #1963A0; stroke-width: 1.0;"/><text fill="#000000" font-family="sans-serif" font-size="11" lengthAdjust="spacingAndGlyphs" textLength="94" x="87.1813" y="620.2705">redoable(): boolean</text><polygon fill="#4177AF" points="78.1813,625.6875,74.1813,631.6875,82.1813,631.6875" style="stroke: #1963A0; stroke-width: 1.0;"/><text fill="#000000" font-family="sans-serif" font-size="11" lengthAdjust="spacingAndGlyphs" textLength="59" x="87.1813" y="634.1064">reset(): void</text><!--MD5=[fa99c436b17806d9277b14ee7a9cac8e]
class tictactoe.models.Session--><rect fill="#FEFECE" filter="url(#f196jt6z6vps0l)" height="366.2266" id="tictactoe.models.Session" style="stroke: #A80036; stroke-width: 1.5;" width="346" x="122.1813" y="42"/><ellipse cx="267.9313" cy="58" fill="#ADD1B2" rx="11" ry="11" style="stroke: #A80036; stroke-width: 1.0;"/><path d="M270.6969,53.875 Q270.8532,53.6563 271.0407,53.5469 Q271.2282,53.4375 271.4469,53.4375 Q271.8219,53.4375 272.0563,53.7031 Q272.2907,53.9531 272.2907,54.5625 L272.2907,56.0156 Q272.2907,56.625 272.0563,56.8906 Q271.8219,57.1563 271.4469,57.1563 Q271.1032,57.1563 270.9,56.9531 Q270.6969,56.7656 270.5875,56.25 Q270.5407,55.8906 270.3532,55.7031 Q270.025,55.3281 269.4157,55.1094 Q268.8063,54.8906 268.1813,54.8906 Q267.4157,54.8906 266.775,55.2188 Q266.15,55.5469 265.65,56.2969 Q265.1657,57.0469 265.1657,58.0781 L265.1657,59.1719 Q265.1657,60.4063 266.0563,61.2344 Q266.9469,62.0469 268.5407,62.0469 Q269.4782,62.0469 270.1344,61.7969 Q270.525,61.6406 270.9469,61.2031 Q271.2125,60.9375 271.3532,60.8594 Q271.5094,60.7813 271.7125,60.7813 Q272.0407,60.7813 272.2907,61.0469 Q272.5563,61.2969 272.5563,61.6406 Q272.5563,61.9844 272.2125,62.3906 Q271.7125,62.9688 270.9157,63.2969 Q269.8375,63.75 268.5407,63.75 Q267.025,63.75 265.8219,63.125 Q264.8375,62.625 264.15,61.5625 Q263.4625,60.4844 263.4625,59.2031 L263.4625,58.0469 Q263.4625,56.7188 264.0719,55.5781 Q264.6969,54.4219 265.7907,53.8125 Q266.8844,53.1875 268.1188,53.1875 Q268.8532,53.1875 269.4938,53.3594 Q270.15,53.5156 270.6969,53.875 Z "/><text fill="#000000" font-family="sans-serif" font-size="12" lengthAdjust="spacingAndGlyphs" textLength="46" x="288.4313" y="62.9102">Session</text><line style="stroke: #A80036; stroke-width: 1.5;" x1="123.1813" x2="467.1813" y1="74" y2="74"/><rect fill="none" height="6" style="stroke: #C82930; stroke-width: 1.0;" width="6" x="130.1813" y="82"/><text fill="#000000" font-family="sans-serif" font-size="11" lengthAdjust="spacingAndGlyphs" textLength="55" x="142.1813" y="89.4189">state: State</text><rect fill="none" height="6" style="stroke: #C82930; stroke-width: 1.0;" width="6" x="130.1813" y="95.8359"/><text fill="#000000" font-family="sans-serif" font-size="11" lengthAdjust="spacingAndGlyphs" textLength="60" x="142.1813" y="103.2549">game: Game</text><rect fill="none" height="6" style="stroke: #C82930; stroke-width: 1.0;" width="6" x="130.1813" y="109.6719"/><text fill="#000000" font-family="sans-serif" font-size="11" lengthAdjust="spacingAndGlyphs" textLength="83" x="142.1813" y="117.0908">registry: Registry</text><line style="stroke: #A80036; stroke-width: 1.5;" x1="123.1813" x2="467.1813" y1="123.5078" y2="123.5078"/><ellipse cx="133.1813" cy="134.5078" fill="#84BE84" rx="3" ry="3" style="stroke: #038048; stroke-width: 1.0;"/><text fill="#000000" font-family="sans-serif" font-size="11" lengthAdjust="spacingAndGlyphs" textLength="47" x="142.1813" y="138.9268">Session()</text><ellipse cx="133.1813" cy="148.3438" fill="#84BE84" rx="3" ry="3" style="stroke: #038048; stroke-width: 1.0;"/><text fill="#000000" font-family="sans-serif" font-size="11" lengthAdjust="spacingAndGlyphs" textLength="55" x="142.1813" y="152.7627">next(): void</text><ellipse cx="133.1813" cy="162.1797" fill="#84BE84" rx="3" ry="3" style="stroke: #038048; stroke-width: 1.0;"/><text fill="#000000" font-family="sans-serif" font-size="11" lengthAdjust="spacingAndGlyphs" textLength="96" x="142.1813" y="166.5986">undoable(): boolean</text><ellipse cx="133.1813" cy="176.0156" fill="#84BE84" rx="3" ry="3" style="stroke: #038048; stroke-width: 1.0;"/><text fill="#000000" font-family="sans-serif" font-size="11" lengthAdjust="spacingAndGlyphs" textLength="94" x="142.1813" y="180.4346">redoable(): boolean</text><ellipse cx="133.1813" cy="189.8516" fill="#84BE84" rx="3" ry="3" style="stroke: #038048; stroke-width: 1.0;"/><text fill="#000000" font-family="sans-serif" font-size="11" lengthAdjust="spacingAndGlyphs" textLength="58" x="142.1813" y="194.2705">undo(): void</text><ellipse cx="133.1813" cy="203.6875" fill="#84BE84" rx="3" ry="3" style="stroke: #038048; stroke-width: 1.0;"/><text fill="#000000" font-family="sans-serif" font-size="11" lengthAdjust="spacingAndGlyphs" textLength="56" x="142.1813" y="208.1064">redo(): void</text><ellipse cx="133.1813" cy="217.5234" fill="#84BE84" rx="3" ry="3" style="stroke: #038048; stroke-width: 1.0;"/><text fill="#000000" font-family="sans-serif" font-size="11" lengthAdjust="spacingAndGlyphs" textLength="112" x="142.1813" y="221.9424">createPlayers(int): void</text><ellipse cx="133.1813" cy="231.3594" fill="#84BE84" rx="3" ry="3" style="stroke: #038048; stroke-width: 1.0;"/><text fill="#000000" font-family="sans-serif" font-size="11" lengthAdjust="spacingAndGlyphs" textLength="224" x="142.1813" y="235.7783">getTypeOfTokenPlayerFromTurn(): PlayerType</text><ellipse cx="133.1813" cy="245.1953" fill="#84BE84" rx="3" ry="3" style="stroke: #038048; stroke-width: 1.0;"/><text fill="#000000" font-family="sans-serif" font-size="11" lengthAdjust="spacingAndGlyphs" textLength="220" x="142.1813" y="249.6143">controlErrorsPutCoordinate(Coordinate): Error</text><ellipse cx="133.1813" cy="259.0313" fill="#84BE84" rx="3" ry="3" style="stroke: #038048; stroke-width: 1.0;"/><text fill="#000000" font-family="sans-serif" font-size="11" lengthAdjust="spacingAndGlyphs" textLength="259" x="142.1813" y="263.4502">controlErrorsMoveOriginCoordinate(Coordinate): Error</text><ellipse cx="133.1813" cy="272.8672" fill="#84BE84" rx="3" ry="3" style="stroke: #038048; stroke-width: 1.0;"/><text fill="#000000" font-family="sans-serif" font-size="11" lengthAdjust="spacingAndGlyphs" textLength="320" x="142.1813" y="277.2861">controlErrorsMoveTargetCoordinate(Coordinate, Coordinate): Error</text><ellipse cx="133.1813" cy="286.7031" fill="#84BE84" rx="3" ry="3" style="stroke: #038048; stroke-width: 1.0;"/><text fill="#000000" font-family="sans-serif" font-size="11" lengthAdjust="spacingAndGlyphs" textLength="133" x="142.1813" y="291.1221">isBoardComplete(): boolean</text><ellipse cx="133.1813" cy="300.5391" fill="#84BE84" rx="3" ry="3" style="stroke: #038048; stroke-width: 1.0;"/><text fill="#000000" font-family="sans-serif" font-size="11" lengthAdjust="spacingAndGlyphs" textLength="206" x="142.1813" y="304.958">putTokenPlayerFromTurn(Coordinate): void</text><ellipse cx="133.1813" cy="314.375" fill="#84BE84" rx="3" ry="3" style="stroke: #038048; stroke-width: 1.0;"/><text fill="#000000" font-family="sans-serif" font-size="11" lengthAdjust="spacingAndGlyphs" textLength="223" x="142.1813" y="318.7939">moveTokenPlayerFromTurn(Coordinate[]): void</text><ellipse cx="133.1813" cy="328.2109" fill="#84BE84" rx="3" ry="3" style="stroke: #038048; stroke-width: 1.0;"/><text fill="#000000" font-family="sans-serif" font-size="11" lengthAdjust="spacingAndGlyphs" textLength="92" x="142.1813" y="332.6299">changeTurn(): void</text><ellipse cx="133.1813" cy="342.0469" fill="#84BE84" rx="3" ry="3" style="stroke: #038048; stroke-width: 1.0;"/><text fill="#000000" font-family="sans-serif" font-size="11" lengthAdjust="spacingAndGlyphs" textLength="139" x="142.1813" y="346.4658">getToken(Coordinate): Token</text><ellipse cx="133.1813" cy="355.8828" fill="#84BE84" rx="3" ry="3" style="stroke: #038048; stroke-width: 1.0;"/><text fill="#000000" font-family="sans-serif" font-size="11" lengthAdjust="spacingAndGlyphs" textLength="110" x="142.1813" y="360.3018">isTicTacToe(): boolean</text><ellipse cx="133.1813" cy="369.7188" fill="#84BE84" rx="3" ry="3" style="stroke: #038048; stroke-width: 1.0;"/><text fill="#000000" font-family="sans-serif" font-size="11" lengthAdjust="spacingAndGlyphs" textLength="114" x="142.1813" y="374.1377">getValueFromTurn(): int</text><ellipse cx="133.1813" cy="383.5547" fill="#84BE84" rx="3" ry="3" style="stroke: #038048; stroke-width: 1.0;"/><text fill="#000000" font-family="sans-serif" font-size="11" lengthAdjust="spacingAndGlyphs" textLength="135" x="142.1813" y="387.9736">getValueState(): StateValue</text><ellipse cx="133.1813" cy="397.3906" fill="#84BE84" rx="3" ry="3" style="stroke: #038048; stroke-width: 1.0;"/><text fill="#000000" font-family="sans-serif" font-size="11" lengthAdjust="spacingAndGlyphs" textLength="84" x="142.1813" y="401.8096">newGame(): void</text><!--MD5=[895b6132a90c2908aef15a128e2ee1f5]
class tictactoe.models.State--><rect fill="#FEFECE" filter="url(#f196jt6z6vps0l)" height="117.1797" id="tictactoe.models.State" style="stroke: #A80036; stroke-width: 1.5;" width="161" x="331.6813" y="496"/><ellipse cx="393.9313" cy="512" fill="#ADD1B2" rx="11" ry="11" style="stroke: #A80036; stroke-width: 1.0;"/><path d="M396.6969,507.875 Q396.8532,507.6563 397.0407,507.5469 Q397.2282,507.4375 397.4469,507.4375 Q397.8219,507.4375 398.0563,507.7031 Q398.2907,507.9531 398.2907,508.5625 L398.2907,510.0156 Q398.2907,510.625 398.0563,510.8906 Q397.8219,511.1563 397.4469,511.1563 Q397.1032,511.1563 396.9,510.9531 Q396.6969,510.7656 396.5875,510.25 Q396.5407,509.8906 396.3532,509.7031 Q396.025,509.3281 395.4157,509.1094 Q394.8063,508.8906 394.1813,508.8906 Q393.4157,508.8906 392.775,509.2188 Q392.15,509.5469 391.65,510.2969 Q391.1657,511.0469 391.1657,512.0781 L391.1657,513.1719 Q391.1657,514.4063 392.0563,515.2344 Q392.9469,516.0469 394.5407,516.0469 Q395.4782,516.0469 396.1344,515.7969 Q396.525,515.6406 396.9469,515.2031 Q397.2125,514.9375 397.3532,514.8594 Q397.5094,514.7813 397.7125,514.7813 Q398.0407,514.7813 398.2907,515.0469 Q398.5563,515.2969 398.5563,515.6406 Q398.5563,515.9844 398.2125,516.3906 Q397.7125,516.9688 396.9157,517.2969 Q395.8375,517.75 394.5407,517.75 Q393.025,517.75 391.8219,517.125 Q390.8375,516.625 390.15,515.5625 Q389.4625,514.4844 389.4625,513.2031 L389.4625,512.0469 Q389.4625,510.7188 390.0719,509.5781 Q390.6969,508.4219 391.7907,507.8125 Q392.8844,507.1875 394.1188,507.1875 Q394.8532,507.1875 395.4938,507.3594 Q396.15,507.5156 396.6969,507.875 Z "/><text fill="#000000" font-family="sans-serif" font-size="12" lengthAdjust="spacingAndGlyphs" textLength="28" x="414.4313" y="516.9102">State</text><line style="stroke: #A80036; stroke-width: 1.5;" x1="332.6813" x2="491.6813" y1="528" y2="528"/><rect fill="none" height="6" style="stroke: #C82930; stroke-width: 1.0;" width="6" x="339.6813" y="536"/><text fill="#000000" font-family="sans-serif" font-size="11" lengthAdjust="spacingAndGlyphs" textLength="111" x="351.6813" y="543.4189">stateValue: StateValue</text><line style="stroke: #A80036; stroke-width: 1.5;" x1="332.6813" x2="491.6813" y1="549.8359" y2="549.8359"/><ellipse cx="342.6813" cy="560.8359" fill="#84BE84" rx="3" ry="3" style="stroke: #038048; stroke-width: 1.0;"/><text fill="#000000" font-family="sans-serif" font-size="11" lengthAdjust="spacingAndGlyphs" textLength="33" x="351.6813" y="565.2549">State()</text><ellipse cx="342.6813" cy="574.6719" fill="#84BE84" rx="3" ry="3" style="stroke: #038048; stroke-width: 1.0;"/><text fill="#000000" font-family="sans-serif" font-size="11" lengthAdjust="spacingAndGlyphs" textLength="55" x="351.6813" y="579.0908">next(): void</text><ellipse cx="342.6813" cy="588.5078" fill="#84BE84" rx="3" ry="3" style="stroke: #038048; stroke-width: 1.0;"/><text fill="#000000" font-family="sans-serif" font-size="11" lengthAdjust="spacingAndGlyphs" textLength="59" x="351.6813" y="592.9268">reset(): void</text><ellipse cx="342.6813" cy="602.3438" fill="#84BE84" rx="3" ry="3" style="stroke: #038048; stroke-width: 1.0;"/><text fill="#000000" font-family="sans-serif" font-size="11" lengthAdjust="spacingAndGlyphs" textLength="135" x="351.6813" y="606.7627">getValueState(): StateValue</text><!--MD5=[63e92a92e730259d201bb8566c78f275]
class utils.Direction--><rect fill="#FEFECE" filter="url(#f196jt6z6vps0l)" height="48" id="utils.Direction" style="stroke: #A80036; stroke-width: 1.5;" width="81" x="549.6813" y="1970"/><ellipse cx="564.6813" cy="1986" fill="#ADD1B2" rx="11" ry="11" style="stroke: #A80036; stroke-width: 1.0;"/><path d="M567.4469,1981.875 Q567.6032,1981.6563 567.7907,1981.5469 Q567.9782,1981.4375 568.1969,1981.4375 Q568.5719,1981.4375 568.8063,1981.7031 Q569.0407,1981.9531 569.0407,1982.5625 L569.0407,1984.0156 Q569.0407,1984.625 568.8063,1984.8906 Q568.5719,1985.1563 568.1969,1985.1563 Q567.8532,1985.1563 567.65,1984.9531 Q567.4469,1984.7656 567.3375,1984.25 Q567.2907,1983.8906 567.1032,1983.7031 Q566.775,1983.3281 566.1657,1983.1094 Q565.5563,1982.8906 564.9313,1982.8906 Q564.1657,1982.8906 563.525,1983.2188 Q562.9,1983.5469 562.4,1984.2969 Q561.9157,1985.0469 561.9157,1986.0781 L561.9157,1987.1719 Q561.9157,1988.4063 562.8063,1989.2344 Q563.6969,1990.0469 565.2907,1990.0469 Q566.2282,1990.0469 566.8844,1989.7969 Q567.275,1989.6406 567.6969,1989.2031 Q567.9625,1988.9375 568.1032,1988.8594 Q568.2594,1988.7813 568.4625,1988.7813 Q568.7907,1988.7813 569.0407,1989.0469 Q569.3063,1989.2969 569.3063,1989.6406 Q569.3063,1989.9844 568.9625,1990.3906 Q568.4625,1990.9688 567.6657,1991.2969 Q566.5875,1991.75 565.2907,1991.75 Q563.775,1991.75 562.5719,1991.125 Q561.5875,1990.625 560.9,1989.5625 Q560.2125,1988.4844 560.2125,1987.2031 L560.2125,1986.0469 Q560.2125,1984.7188 560.8219,1983.5781 Q561.4469,1982.4219 562.5407,1981.8125 Q563.6344,1981.1875 564.8688,1981.1875 Q565.6032,1981.1875 566.2438,1981.3594 Q566.9,1981.5156 567.4469,1981.875 Z "/><text fill="#000000" font-family="sans-serif" font-size="12" lengthAdjust="spacingAndGlyphs" textLength="49" x="578.6813" y="1990.9102">Direction</text><line style="stroke: #A80036; stroke-width: 1.5;" x1="550.6813" x2="629.6813" y1="2002" y2="2002"/><line style="stroke: #A80036; stroke-width: 1.5;" x1="550.6813" x2="629.6813" y1="2010" y2="2010"/><!--MD5=[4517a9099db328c27576a0137eb33da6]
class utils.Coordinate--><rect fill="#FEFECE" filter="url(#f196jt6z6vps0l)" height="48" id="utils.Coordinate" style="stroke: #A80036; stroke-width: 1.5;" width="93" x="665.6813" y="1970"/><ellipse cx="680.6813" cy="1986" fill="#ADD1B2" rx="11" ry="11" style="stroke: #A80036; stroke-width: 1.0;"/><path d="M683.4469,1981.875 Q683.6032,1981.6563 683.7907,1981.5469 Q683.9782,1981.4375 684.1969,1981.4375 Q684.5719,1981.4375 684.8063,1981.7031 Q685.0407,1981.9531 685.0407,1982.5625 L685.0407,1984.0156 Q685.0407,1984.625 684.8063,1984.8906 Q684.5719,1985.1563 684.1969,1985.1563 Q683.8532,1985.1563 683.65,1984.9531 Q683.4469,1984.7656 683.3375,1984.25 Q683.2907,1983.8906 683.1032,1983.7031 Q682.775,1983.3281 682.1657,1983.1094 Q681.5563,1982.8906 680.9313,1982.8906 Q680.1657,1982.8906 679.525,1983.2188 Q678.9,1983.5469 678.4,1984.2969 Q677.9157,1985.0469 677.9157,1986.0781 L677.9157,1987.1719 Q677.9157,1988.4063 678.8063,1989.2344 Q679.6969,1990.0469 681.2907,1990.0469 Q682.2282,1990.0469 682.8844,1989.7969 Q683.275,1989.6406 683.6969,1989.2031 Q683.9625,1988.9375 684.1032,1988.8594 Q684.2594,1988.7813 684.4625,1988.7813 Q684.7907,1988.7813 685.0407,1989.0469 Q685.3063,1989.2969 685.3063,1989.6406 Q685.3063,1989.9844 684.9625,1990.3906 Q684.4625,1990.9688 683.6657,1991.2969 Q682.5875,1991.75 681.2907,1991.75 Q679.775,1991.75 678.5719,1991.125 Q677.5875,1990.625 676.9,1989.5625 Q676.2125,1988.4844 676.2125,1987.2031 L676.2125,1986.0469 Q676.2125,1984.7188 676.8219,1983.5781 Q677.4469,1982.4219 678.5407,1981.8125 Q679.6344,1981.1875 680.8688,1981.1875 Q681.6032,1981.1875 682.2438,1981.3594 Q682.9,1981.5156 683.4469,1981.875 Z "/><text fill="#000000" font-family="sans-serif" font-size="12" lengthAdjust="spacingAndGlyphs" textLength="61" x="694.6813" y="1990.9102">Coordinate</text><line style="stroke: #A80036; stroke-width: 1.5;" x1="666.6813" x2="757.6813" y1="2002" y2="2002"/><line style="stroke: #A80036; stroke-width: 1.5;" x1="666.6813" x2="757.6813" y1="2010" y2="2010"/><!--MD5=[6c70c0f5d22b0d421fe766e144384ba2]
class java.util.Random--><rect fill="#FEFECE" filter="url(#f196jt6z6vps0l)" height="48" id="java.util.Random" style="stroke: #A80036; stroke-width: 1.5;" width="80" x="515.1813" y="2389"/><ellipse cx="530.1813" cy="2405" fill="#ADD1B2" rx="11" ry="11" style="stroke: #A80036; stroke-width: 1.0;"/><path d="M532.9469,2400.875 Q533.1032,2400.6563 533.2907,2400.5469 Q533.4782,2400.4375 533.6969,2400.4375 Q534.0719,2400.4375 534.3063,2400.7031 Q534.5407,2400.9531 534.5407,2401.5625 L534.5407,2403.0156 Q534.5407,2403.625 534.3063,2403.8906 Q534.0719,2404.1563 533.6969,2404.1563 Q533.3532,2404.1563 533.15,2403.9531 Q532.9469,2403.7656 532.8375,2403.25 Q532.7907,2402.8906 532.6032,2402.7031 Q532.275,2402.3281 531.6657,2402.1094 Q531.0563,2401.8906 530.4313,2401.8906 Q529.6657,2401.8906 529.025,2402.2188 Q528.4,2402.5469 527.9,2403.2969 Q527.4157,2404.0469 527.4157,2405.0781 L527.4157,2406.1719 Q527.4157,2407.4063 528.3063,2408.2344 Q529.1969,2409.0469 530.7907,2409.0469 Q531.7282,2409.0469 532.3844,2408.7969 Q532.775,2408.6406 533.1969,2408.2031 Q533.4625,2407.9375 533.6032,2407.8594 Q533.7594,2407.7813 533.9625,2407.7813 Q534.2907,2407.7813 534.5407,2408.0469 Q534.8063,2408.2969 534.8063,2408.6406 Q534.8063,2408.9844 534.4625,2409.3906 Q533.9625,2409.9688 533.1657,2410.2969 Q532.0875,2410.75 530.7907,2410.75 Q529.275,2410.75 528.0719,2410.125 Q527.0875,2409.625 526.4,2408.5625 Q525.7125,2407.4844 525.7125,2406.2031 L525.7125,2405.0469 Q525.7125,2403.7188 526.3219,2402.5781 Q526.9469,2401.4219 528.0407,2400.8125 Q529.1344,2400.1875 530.3688,2400.1875 Q531.1032,2400.1875 531.7438,2400.3594 Q532.4,2400.5156 532.9469,2400.875 Z "/><text fill="#000000" font-family="sans-serif" font-size="12" lengthAdjust="spacingAndGlyphs" textLength="48" x="544.1813" y="2409.9102">Random</text><line style="stroke: #A80036; stroke-width: 1.5;" x1="516.1813" x2="594.1813" y1="2421" y2="2421"/><line style="stroke: #A80036; stroke-width: 1.5;" x1="516.1813" x2="594.1813" y1="2429" y2="2429"/><!--MD5=[8479184e23c2bec09445fccfd361f5d2]
class java.util.ArrayList--><rect fill="#FEFECE" filter="url(#f196jt6z6vps0l)" height="48" id="java.util.ArrayList" style="stroke: #A80036; stroke-width: 1.5;" width="79" x="630.6813" y="2389"/><ellipse cx="645.6813" cy="2405" fill="#ADD1B2" rx="11" ry="11" style="stroke: #A80036; stroke-width: 1.0;"/><path d="M648.4469,2400.875 Q648.6032,2400.6563 648.7907,2400.5469 Q648.9782,2400.4375 649.1969,2400.4375 Q649.5719,2400.4375 649.8063,2400.7031 Q650.0407,2400.9531 650.0407,2401.5625 L650.0407,2403.0156 Q650.0407,2403.625 649.8063,2403.8906 Q649.5719,2404.1563 649.1969,2404.1563 Q648.8532,2404.1563 648.65,2403.9531 Q648.4469,2403.7656 648.3375,2403.25 Q648.2907,2402.8906 648.1032,2402.7031 Q647.775,2402.3281 647.1657,2402.1094 Q646.5563,2401.8906 645.9313,2401.8906 Q645.1657,2401.8906 644.525,2402.2188 Q643.9,2402.5469 643.4,2403.2969 Q642.9157,2404.0469 642.9157,2405.0781 L642.9157,2406.1719 Q642.9157,2407.4063 643.8063,2408.2344 Q644.6969,2409.0469 646.2907,2409.0469 Q647.2282,2409.0469 647.8844,2408.7969 Q648.275,2408.6406 648.6969,2408.2031 Q648.9625,2407.9375 649.1032,2407.8594 Q649.2594,2407.7813 649.4625,2407.7813 Q649.7907,2407.7813 650.0407,2408.0469 Q650.3063,2408.2969 650.3063,2408.6406 Q650.3063,2408.9844 649.9625,2409.3906 Q649.4625,2409.9688 648.6657,2410.2969 Q647.5875,2410.75 646.2907,2410.75 Q644.775,2410.75 643.5719,2410.125 Q642.5875,2409.625 641.9,2408.5625 Q641.2125,2407.4844 641.2125,2406.2031 L641.2125,2405.0469 Q641.2125,2403.7188 641.8219,2402.5781 Q642.4469,2401.4219 643.5407,2400.8125 Q644.6344,2400.1875 645.8688,2400.1875 Q646.6032,2400.1875 647.2438,2400.3594 Q647.9,2400.5156 648.4469,2400.875 Z "/><text fill="#000000" font-family="sans-serif" font-size="12" lengthAdjust="spacingAndGlyphs" textLength="47" x="659.6813" y="2409.9102">ArrayList</text><line style="stroke: #A80036; stroke-width: 1.5;" x1="631.6813" x2="708.6813" y1="2421" y2="2421"/><line style="stroke: #A80036; stroke-width: 1.5;" x1="631.6813" x2="708.6813" y1="2429" y2="2429"/><!--MD5=[3b37da8b6e7a1800631cf51c5954ec17]
class tictactoe.types.Token--><rect fill="#FEFECE" filter="url(#f196jt6z6vps0l)" height="48" id="tictactoe.types.Token" style="stroke: #A80036; stroke-width: 1.5;" width="66" x="676.1813" y="1134.5"/><ellipse cx="691.1813" cy="1150.5" fill="#ADD1B2" rx="11" ry="11" style="stroke: #A80036; stroke-width: 1.0;"/><path d="M693.9469,1146.375 Q694.1032,1146.1563 694.2907,1146.0469 Q694.4782,1145.9375 694.6969,1145.9375 Q695.0719,1145.9375 695.3063,1146.2031 Q695.5407,1146.4531 695.5407,1147.0625 L695.5407,1148.5156 Q695.5407,1149.125 695.3063,1149.3906 Q695.0719,1149.6563 694.6969,1149.6563 Q694.3532,1149.6563 694.15,1149.4531 Q693.9469,1149.2656 693.8375,1148.75 Q693.7907,1148.3906 693.6032,1148.2031 Q693.275,1147.8281 692.6657,1147.6094 Q692.0563,1147.3906 691.4313,1147.3906 Q690.6657,1147.3906 690.025,1147.7188 Q689.4,1148.0469 688.9,1148.7969 Q688.4157,1149.5469 688.4157,1150.5781 L688.4157,1151.6719 Q688.4157,1152.9063 689.3063,1153.7344 Q690.1969,1154.5469 691.7907,1154.5469 Q692.7282,1154.5469 693.3844,1154.2969 Q693.775,1154.1406 694.1969,1153.7031 Q694.4625,1153.4375 694.6032,1153.3594 Q694.7594,1153.2813 694.9625,1153.2813 Q695.2907,1153.2813 695.5407,1153.5469 Q695.8063,1153.7969 695.8063,1154.1406 Q695.8063,1154.4844 695.4625,1154.8906 Q694.9625,1155.4688 694.1657,1155.7969 Q693.0875,1156.25 691.7907,1156.25 Q690.275,1156.25 689.0719,1155.625 Q688.0875,1155.125 687.4,1154.0625 Q686.7125,1152.9844 686.7125,1151.7031 L686.7125,1150.5469 Q686.7125,1149.2188 687.3219,1148.0781 Q687.9469,1146.9219 689.0407,1146.3125 Q690.1344,1145.6875 691.3688,1145.6875 Q692.1032,1145.6875 692.7438,1145.8594 Q693.4,1146.0156 693.9469,1146.375 Z "/><text fill="#000000" font-family="sans-serif" font-size="12" lengthAdjust="spacingAndGlyphs" textLength="34" x="705.1813" y="1155.4102">Token</text><line style="stroke: #A80036; stroke-width: 1.5;" x1="677.1813" x2="741.1813" y1="1166.5" y2="1166.5"/><line style="stroke: #A80036; stroke-width: 1.5;" x1="677.1813" x2="741.1813" y1="1174.5" y2="1174.5"/><!--MD5=[8016c4b7c5b6e1d0c1906a688d612470]
class tictactoe.types.PlayerType--><rect fill="#FEFECE" filter="url(#f196jt6z6vps0l)" height="48" id="tictactoe.types.PlayerType" style="stroke: #A80036; stroke-width: 1.5;" width="92" x="549.1813" y="1134.5"/><ellipse cx="564.1813" cy="1150.5" fill="#ADD1B2" rx="11" ry="11" style="stroke: #A80036; stroke-width: 1.0;"/><path d="M566.9469,1146.375 Q567.1032,1146.1563 567.2907,1146.0469 Q567.4782,1145.9375 567.6969,1145.9375 Q568.0719,1145.9375 568.3063,1146.2031 Q568.5407,1146.4531 568.5407,1147.0625 L568.5407,1148.5156 Q568.5407,1149.125 568.3063,1149.3906 Q568.0719,1149.6563 567.6969,1149.6563 Q567.3532,1149.6563 567.15,1149.4531 Q566.9469,1149.2656 566.8375,1148.75 Q566.7907,1148.3906 566.6032,1148.2031 Q566.275,1147.8281 565.6657,1147.6094 Q565.0563,1147.3906 564.4313,1147.3906 Q563.6657,1147.3906 563.025,1147.7188 Q562.4,1148.0469 561.9,1148.7969 Q561.4157,1149.5469 561.4157,1150.5781 L561.4157,1151.6719 Q561.4157,1152.9063 562.3063,1153.7344 Q563.1969,1154.5469 564.7907,1154.5469 Q565.7282,1154.5469 566.3844,1154.2969 Q566.775,1154.1406 567.1969,1153.7031 Q567.4625,1153.4375 567.6032,1153.3594 Q567.7594,1153.2813 567.9625,1153.2813 Q568.2907,1153.2813 568.5407,1153.5469 Q568.8063,1153.7969 568.8063,1154.1406 Q568.8063,1154.4844 568.4625,1154.8906 Q567.9625,1155.4688 567.1657,1155.7969 Q566.0875,1156.25 564.7907,1156.25 Q563.275,1156.25 562.0719,1155.625 Q561.0875,1155.125 560.4,1154.0625 Q559.7125,1152.9844 559.7125,1151.7031 L559.7125,1150.5469 Q559.7125,1149.2188 560.3219,1148.0781 Q560.9469,1146.9219 562.0407,1146.3125 Q563.1344,1145.6875 564.3688,1145.6875 Q565.1032,1145.6875 565.7438,1145.8594 Q566.4,1146.0156 566.9469,1146.375 Z "/><text fill="#000000" font-family="sans-serif" font-size="12" lengthAdjust="spacingAndGlyphs" textLength="60" x="578.1813" y="1155.4102">PlayerType</text><line style="stroke: #A80036; stroke-width: 1.5;" x1="550.1813" x2="640.1813" y1="1166.5" y2="1166.5"/><line style="stroke: #A80036; stroke-width: 1.5;" x1="550.1813" x2="640.1813" y1="1174.5" y2="1174.5"/><!--MD5=[068fe37cd9d2e226408ce790264f2fa7]
class tictactoe.types.StateValue--><rect fill="#FEFECE" filter="url(#f196jt6z6vps0l)" height="48" id="tictactoe.types.StateValue" style="stroke: #A80036; stroke-width: 1.5;" width="91" x="777.6813" y="1134.5"/><ellipse cx="792.6813" cy="1150.5" fill="#ADD1B2" rx="11" ry="11" style="stroke: #A80036; stroke-width: 1.0;"/><path d="M795.4469,1146.375 Q795.6032,1146.1563 795.7907,1146.0469 Q795.9782,1145.9375 796.1969,1145.9375 Q796.5719,1145.9375 796.8063,1146.2031 Q797.0407,1146.4531 797.0407,1147.0625 L797.0407,1148.5156 Q797.0407,1149.125 796.8063,1149.3906 Q796.5719,1149.6563 796.1969,1149.6563 Q795.8532,1149.6563 795.65,1149.4531 Q795.4469,1149.2656 795.3375,1148.75 Q795.2907,1148.3906 795.1032,1148.2031 Q794.775,1147.8281 794.1657,1147.6094 Q793.5563,1147.3906 792.9313,1147.3906 Q792.1657,1147.3906 791.525,1147.7188 Q790.9,1148.0469 790.4,1148.7969 Q789.9157,1149.5469 789.9157,1150.5781 L789.9157,1151.6719 Q789.9157,1152.9063 790.8063,1153.7344 Q791.6969,1154.5469 793.2907,1154.5469 Q794.2282,1154.5469 794.8844,1154.2969 Q795.275,1154.1406 795.6969,1153.7031 Q795.9625,1153.4375 796.1032,1153.3594 Q796.2594,1153.2813 796.4625,1153.2813 Q796.7907,1153.2813 797.0407,1153.5469 Q797.3063,1153.7969 797.3063,1154.1406 Q797.3063,1154.4844 796.9625,1154.8906 Q796.4625,1155.4688 795.6657,1155.7969 Q794.5875,1156.25 793.2907,1156.25 Q791.775,1156.25 790.5719,1155.625 Q789.5875,1155.125 788.9,1154.0625 Q788.2125,1152.9844 788.2125,1151.7031 L788.2125,1150.5469 Q788.2125,1149.2188 788.8219,1148.0781 Q789.4469,1146.9219 790.5407,1146.3125 Q791.6344,1145.6875 792.8688,1145.6875 Q793.6032,1145.6875 794.2438,1145.8594 Q794.9,1146.0156 795.4469,1146.375 Z "/><text fill="#000000" font-family="sans-serif" font-size="12" lengthAdjust="spacingAndGlyphs" textLength="59" x="806.6813" y="1155.4102">StateValue</text><line style="stroke: #A80036; stroke-width: 1.5;" x1="778.6813" x2="867.6813" y1="1166.5" y2="1166.5"/><line style="stroke: #A80036; stroke-width: 1.5;" x1="778.6813" x2="867.6813" y1="1174.5" y2="1174.5"/><!--MD5=[9415c0c61774263745e2cedb44e639c6]
link tictactoe.models.Board to tictactoe.models.Coordinate--><path d="M338.7462,1585.931 C338.7462,1585.931 375.7253,1791.026 386.1813,1894 C394.6313,1977.222 397.0873,2072.486 397.6003,2140.706 " fill="none" id="tictactoe.models.Board-tictactoe.models.Coordinate" style="stroke: #A80036; stroke-width: 1.0;"/><polygon fill="#A80036" points="397.6783,2153.978,401.6258,2144.9549,397.6492,2148.9781,393.6259,2145.0014,397.6783,2153.978" style="stroke: #A80036; stroke-width: 1.0;"/><line style="stroke: #A80036; stroke-width: 1.0;" x1="397.6492" x2="397.6023" y1="2148.9781" y2="2140.9785"/><polygon fill="#A80036" points="336.4743,1574.148,333.6826,1580.7968,338.7462,1585.931,341.5379,1579.2822,336.4743,1574.148" style="stroke: #A80036; stroke-width: 1.0;"/><!--MD5=[f07f4b28b1c2eb27f6b3ca96953c68ab]
link tictactoe.models.Board to tictactoe.models.Turn--><path d="M241.4853,1574.042 C232.8483,1592.519 224.1243,1611.183 215.8403,1628.904 " fill="none" id="tictactoe.models.Board-&gt;tictactoe.models.Turn" style="stroke: #A80036; stroke-width: 1.0; stroke-dasharray: 7.0,7.0;"/><polygon fill="#A80036" points="213.5163,1633.876,220.9523,1627.4181,215.6345,1629.3468,213.7057,1624.029,213.5163,1633.876" style="stroke: #A80036; stroke-width: 1.0;"/><!--MD5=[1183b1fe88256d6abfae59cdbc015bea]
link tictactoe.models.Board to utils.Direction--><path d="M383.0593,1574.214 C393.6213,1594.226 404.2503,1614.594 414.1813,1634 C476.9003,1756.553 548.0763,1904.692 576.9603,1965.213 " fill="none" id="tictactoe.models.Board-&gt;utils.Direction" style="stroke: #A80036; stroke-width: 1.0; stroke-dasharray: 7.0,7.0;"/><polygon fill="#A80036" points="579.1303,1969.763,578.8654,1959.9177,576.9775,1965.2502,571.645,1963.3622,579.1303,1969.763" style="stroke: #A80036; stroke-width: 1.0;"/><!--MD5=[d279b4500bca5abba91dd5faa9f398fd]
reverse link utils.Coordinate to tictactoe.models.Coordinate--><path d="M691.9373,2035.752 C680.9123,2055.07 665.8963,2077.478 648.1813,2094 C603.1403,2136.008 542.9923,2169.767 492.8683,2193.435 " fill="none" id="utils.Coordinate&lt;-tictactoe.models.Coordinate" style="stroke: #A80036; stroke-width: 1.0;"/><polygon fill="none" points="685.7743,2032.431,701.4133,2018.133,698.1043,2039.063,685.7743,2032.431" style="stroke: #A80036; stroke-width: 1.0;"/><!--MD5=[997516208723a80710191e814da7328e]
link tictactoe.models.Coordinate to utils.Direction--><path d="M461.0313,2153.928 C497.9013,2108.557 541.9793,2054.316 567.9393,2022.37 " fill="none" id="tictactoe.models.Coordinate-&gt;utils.Direction" style="stroke: #A80036; stroke-width: 1.0; stroke-dasharray: 7.0,7.0;"/><polygon fill="#A80036" points="571.3243,2018.205,562.5443,2022.6672,568.1711,2022.0854,568.7529,2027.7123,571.3243,2018.205" style="stroke: #A80036; stroke-width: 1.0;"/><!--MD5=[02a5e0cbda321227fb745cf81ac775a1]
link tictactoe.models.Coordinate to java.util.Random--><path d="M467.1723,2313.129 C490.0783,2338.862 514.0073,2365.745 531.1223,2384.9716 " fill="none" id="tictactoe.models.Coordinate-&gt;java.util.Random" style="stroke: #A80036; stroke-width: 1.0; stroke-dasharray: 7.0,7.0;"/><polygon fill="#A80036" points="534.4523,2388.7123,531.4556,2379.3304,531.1276,2384.9778,525.4803,2384.6499,534.4523,2388.7123" style="stroke: #A80036; stroke-width: 1.0;"/><!--MD5=[b634369fa6e65a8dead148f8efc150f7]
link tictactoe.models.Game to tictactoe.models.Board--><path d="M320.3535,1038.213 C320.3535,1038.213 314.8013,1204.11 312.3353,1277.68 " fill="none" id="tictactoe.models.Game-tictactoe.models.Board" style="stroke: #A80036; stroke-width: 1.0;"/><polygon fill="#A80036" points="311.8973,1290.76,316.1918,1281.8968,312.0621,1285.7627,308.1962,1281.633,311.8973,1290.76" style="stroke: #A80036; stroke-width: 1.0;"/><line style="stroke: #A80036; stroke-width: 1.0;" x1="312.0621" x2="312.3328" y1="1285.7627" y2="1277.77"/><polygon fill="#A80036" points="320.7623,1026.22,316.5602,1032.0803,320.3535,1038.213,324.5556,1032.3528,320.7623,1026.22" style="stroke: #A80036; stroke-width: 1.0;"/><!--MD5=[1dc2bc8b0c5aa09eb02df64674797f09]
link tictactoe.models.Game to tictactoe.models.Player--><path d="M408.6363,1037.2751 C408.6363,1037.2751 525.3553,1393.9 473.1813,1574 C439.7753,1689.317 364.0983,1803.363 302.1333,1883.287 " fill="none" id="tictactoe.models.Game-tictactoe.models.Player" style="stroke: #A80036; stroke-width: 1.0;"/><polygon fill="#A80036" points="293.8743,1893.843,302.5707,1889.22,296.9555,1889.9052,296.2703,1884.29,293.8743,1893.843" style="stroke: #A80036; stroke-width: 1.0;"/><line style="stroke: #A80036; stroke-width: 1.0;" x1="296.9555" x2="301.8848" y1="1889.9052" y2="1883.604"/><polygon fill="#A80036" points="404.1383,1026.15,402.679,1033.2119,408.6363,1037.2751,410.0957,1030.2132,404.1383,1026.15" style="stroke: #A80036; stroke-width: 1.0;"/><!--MD5=[aa5c2eaa34da3707c874f29e1edc60f9]
link tictactoe.models.Game to tictactoe.models.Turn--><path d="M314.0421,1038.0914 C314.0421,1038.0914 280.5443,1175.69 240.1813,1231 C209.6273,1272.87 165.7183,1245.9 140.1813,1291 C109.4387,1345.3 128.5373,1508.444 146.6313,1620.572 " fill="none" id="tictactoe.models.Game-tictactoe.models.Turn" style="stroke: #A80036; stroke-width: 1.0;"/><polygon fill="#A80036" points="148.7733,1633.641,151.2648,1624.1125,147.9645,1628.7069,143.3701,1625.4066,148.7733,1633.641" style="stroke: #A80036; stroke-width: 1.0;"/><line style="stroke: #A80036; stroke-width: 1.0;" x1="147.9645" x2="146.6713" y1="1628.7069" y2="1620.812"/><polygon fill="#A80036" points="316.0463,1026.26,311.1004,1031.5077,314.0421,1038.0914,318.988,1032.8438,316.0463,1026.26" style="stroke: #A80036; stroke-width: 1.0;"/><!--MD5=[2d593b7d40fdf862a21f21908246be98]
link tictactoe.models.Game to tictactoe.types.Token--><path d="M487.2933,954.53 C545.0583,991.07 608.3983,1036.39 659.1813,1086 C672.4373,1098.95 684.4423,1115.85 693.3653,1129.97 " fill="none" id="tictactoe.models.Game-&gt;tictactoe.types.Token" style="stroke: #A80036; stroke-width: 1.0; stroke-dasharray: 7.0,7.0;"/><polygon fill="#A80036" points="696.0333,1134.26,694.673,1124.5055,693.391,1130.0152,687.8813,1128.7332,696.0333,1134.26" style="stroke: #A80036; stroke-width: 1.0;"/><!--MD5=[b2478b45add4fa02c6eb045c3639ccdd]
link tictactoe.models.Game to tictactoe.types.PlayerType--><path d="M474.8433,1026.43 C511.9823,1066.88 547.6653,1105.74 570.3943,1130.5 " fill="none" id="tictactoe.models.Game-&gt;tictactoe.types.PlayerType" style="stroke: #A80036; stroke-width: 1.0; stroke-dasharray: 7.0,7.0;"/><polygon fill="#A80036" points="573.9293,1134.35,570.8044,1125.01,570.5538,1130.6613,564.9025,1130.4107,573.9293,1134.35" style="stroke: #A80036; stroke-width: 1.0;"/><!--MD5=[5fdd22b8e1e201e10f6f9767c3e91641]
link tictactoe.models.Game to tictactoe.models.Memento--><path d="M220.6253,1026.43 C208.1383,1045.58 195.8833,1064.38 184.7273,1081.5 " fill="none" id="tictactoe.models.Game-&gt;tictactoe.models.Memento" style="stroke: #A80036; stroke-width: 1.0; stroke-dasharray: 7.0,7.0;"/><polygon fill="#A80036" points="181.9143,1085.81,190.1784,1080.4523,184.6434,1081.6205,183.4752,1076.0856,181.9143,1085.81" style="stroke: #A80036; stroke-width: 1.0;"/><!--MD5=[0add7ab1c0e4f2d2e8b94d51df67b541]
link tictactoe.models.Memento to tictactoe.models.Board--><path d="M187.007,1241.4647 C187.007,1241.4647 203.0313,1266.8 211.0923,1279.55 " fill="none" id="tictactoe.models.Memento-tictactoe.models.Board" style="stroke: #A80036; stroke-width: 1.0;"/><polygon fill="#A80036" points="218.1993,1290.78,216.7645,1281.0362,215.5247,1286.5555,210.0054,1285.3156,218.1993,1290.78" style="stroke: #A80036; stroke-width: 1.0;"/><line style="stroke: #A80036; stroke-width: 1.0;" x1="215.5247" x2="211.2513" y1="1286.5555" y2="1279.795"/><polygon fill="#A80036" points="180.5973,1231.32,180.4206,1238.5289,187.007,1241.4647,187.1837,1234.2558,180.5973,1231.32" style="stroke: #A80036; stroke-width: 1.0;"/><!--MD5=[0965f470714fab33faa0fe72ca0accda]
link tictactoe.models.Memento to tictactoe.models.Player--><path d="M106.5098,1242.6316 C106.5098,1242.6316 6,1631.681 78.1813,1834 C84.2071,1850.89 92.8827,1867.28 102.9343,1882.715 " fill="none" id="tictactoe.models.Memento-tictactoe.models.Player" style="stroke: #A80036; stroke-width: 1.0;"/><polygon fill="#A80036" points="110.4785,1893.779,108.7127,1884.0897,107.6615,1889.6481,102.1032,1888.5969,110.4785,1893.779" style="stroke: #A80036; stroke-width: 1.0;"/><line style="stroke: #A80036; stroke-width: 1.0;" x1="107.6615" x2="103.1546" y1="1889.6481" y2="1883.0385"/><polygon fill="#A80036" points="110.096,1231.18,104.4857,1235.7104,106.5098,1242.6316,112.1201,1238.1012,110.096,1231.18" style="stroke: #A80036; stroke-width: 1.0;"/><!--MD5=[e11dc50ca1268988a8df702a7479da15]
link tictactoe.models.Memento to tictactoe.models.Turn--><path d="M119.0715,1243.0788 C119.0715,1243.0788 114.4464,1275.77 113.1813,1291 C102.7684,1416.35 92.6833,1449.9 113.1813,1574 C115.7493,1589.547 119.6403,1605.616 124.1803,1621.295 " fill="none" id="tictactoe.models.Memento-tictactoe.models.Turn" style="stroke: #A80036; stroke-width: 1.0;"/><polygon fill="#A80036" points="127.9483,1633.768,129.1753,1623.9959,126.5026,1628.9816,121.5169,1626.3089,127.9483,1633.768" style="stroke: #A80036; stroke-width: 1.0;"/><line style="stroke: #A80036; stroke-width: 1.0;" x1="126.5026" x2="124.1888" y1="1628.9816" y2="1621.3235"/><polygon fill="#A80036" points="120.9703,1231.23,116.0713,1236.5215,119.0715,1243.0788,123.9705,1237.7873,120.9703,1231.23" style="stroke: #A80036; stroke-width: 1.0;"/><!--MD5=[4d61797189bd4e3921b05d5b1c2f3641]
link tictactoe.models.Player to tictactoe.models.Board--><path d="M243.3042,1882.3981 C243.3042,1882.3981 251.9173,1849.444 255.1813,1834 C272.2083,1753.431 284.5563,1662.491 292.9353,1587.655 " fill="none" id="tictactoe.models.Player-tictactoe.models.Board" style="stroke: #A80036; stroke-width: 1.0;"/><polygon fill="#A80036" points="294.4023,1574.355,289.4395,1582.8621,293.854,1579.3248,297.3912,1583.7394,294.4023,1574.355" style="stroke: #A80036; stroke-width: 1.0;"/><line style="stroke: #A80036; stroke-width: 1.0;" x1="293.854" x2="292.9773" y1="1579.3248" y2="1587.277"/><polygon fill="#A80036" points="240.0843,1893.958,245.5476,1889.2514,243.3042,1882.3981,237.841,1887.1047,240.0843,1893.958" style="stroke: #A80036; stroke-width: 1.0;"/><!--MD5=[8c8274b143d2ce23d56b10c65f754674]
link tictactoe.models.Player to tictactoe.models.Coordinate--><path d="M286.9653,2094.002 C301.7503,2112.579 317.0623,2131.821 331.3993,2149.838 " fill="none" id="tictactoe.models.Player-&gt;tictactoe.models.Coordinate" style="stroke: #A80036; stroke-width: 1.0; stroke-dasharray: 7.0,7.0;"/><polygon fill="#A80036" points="334.6353,2153.904,332.1603,2144.3712,331.5216,2149.9919,325.9009,2149.3531,334.6353,2153.904" style="stroke: #A80036; stroke-width: 1.0;"/><!--MD5=[3152a19d553c2d3514b3b32b9814f169]
link tictactoe.models.Registry to tictactoe.models.Game--><path d="M214.216,651.6175 C214.216,651.6175 227.5523,676.74 234.1863,689.23 " fill="none" id="tictactoe.models.Registry-tictactoe.models.Game" style="stroke: #A80036; stroke-width: 1.0;"/><polygon fill="#A80036" points="240.3003,700.75,239.6105,690.9253,237.9546,696.3344,232.5455,694.6784,240.3003,700.75" style="stroke: #A80036; stroke-width: 1.0;"/><line style="stroke: #A80036; stroke-width: 1.0;" x1="237.9546" x2="234.2043" y1="696.3344" y2="689.265"/><polygon fill="#A80036" points="208.5863,641.02,207.8686,648.1953,214.216,651.6175,214.9336,644.4422,208.5863,641.02" style="stroke: #A80036; stroke-width: 1.0;"/><!--MD5=[a44038fa09e405fa1bcfa610e808471f]
link tictactoe.models.Registry to tictactoe.models.Memento--><path d="M151.3198,653.1158 C151.3198,653.1158 148.2123,685.85 147.1813,701 C138.3753,830.48 135.9243,981.03 135.3023,1072.76 " fill="none" id="tictactoe.models.Registry-tictactoe.models.Memento" style="stroke: #A80036; stroke-width: 1.0;"/><polygon fill="#A80036" points="135.2233,1085.86,139.2727,1076.8821,135.2508,1080.8601,131.2728,1076.8382,135.2233,1085.86" style="stroke: #A80036; stroke-width: 1.0;"/><line style="stroke: #A80036; stroke-width: 1.0;" x1="135.2508" x2="135.3013" y1="1080.8601" y2="1072.855"/><polygon fill="#A80036" points="152.5593,641.18,147.961,646.7348,151.3198,653.1158,155.9182,647.5611,152.5593,641.18" style="stroke: #A80036; stroke-width: 1.0;"/><!--MD5=[fb5ba91e0149d488c8e3c668184c7961]
link tictactoe.models.Registry to java.util.ArrayList--><path d="M270.1147,619.6405 C270.1147,619.6405 300.0463,634.85 314.1813,641 C395.3773,676.34 428.6053,654.85 504.1813,701 C738.9583,844.38 922.1813,882.4 922.1813,1157.5 C922.1813,1157.5 922.1813,1157.5 922.1813,1995 C922.1813,2159.472 776.8093,2314.66 706.8913,2379.7873 " fill="none" id="tictactoe.models.Registry-java.util.ArrayList" style="stroke: #A80036; stroke-width: 1.0;"/><polygon fill="#A80036" points="697.1493,2388.7331,706.4838,2385.592,700.8321,2385.3512,701.0728,2379.6995,697.1493,2388.7331" style="stroke: #A80036; stroke-width: 1.0;"/><line style="stroke: #A80036; stroke-width: 1.0;" x1="700.8321" x2="706.7248" y1="2385.3512" y2="2379.9403"/><polygon fill="#A80036" points="259.5283,613.99,262.938,620.344,270.1147,619.6405,266.705,613.2864,259.5283,613.99" style="stroke: #A80036; stroke-width: 1.0;"/><!--MD5=[81c635d2699774312e0786044bb2c7df]
link tictactoe.models.Session to tictactoe.models.State--><path d="M364.3992,419.717 C364.3992,419.717 380.4393,464.65 387.1933,483.56 " fill="none" id="tictactoe.models.Session-tictactoe.models.State" style="stroke: #A80036; stroke-width: 1.0;"/><polygon fill="#A80036" points="391.6073,495.91,392.348,486.089,389.926,491.2012,384.8138,488.7792,391.6073,495.91" style="stroke: #A80036; stroke-width: 1.0;"/><line style="stroke: #A80036; stroke-width: 1.0;" x1="389.926" x2="387.2333" y1="491.2012" y2="483.67"/><polygon fill="#A80036" points="360.3523,408.42,358.6101,415.4175,364.3992,419.717,366.1414,412.7195,360.3523,408.42" style="stroke: #A80036; stroke-width: 1.0;"/><!--MD5=[16f80b9c05a1fd649d4fdff2813ca191]
link tictactoe.models.Session to tictactoe.models.Game--><path d="M303.728,420.0678 C303.728,420.0678 310.6003,569.35 314.1813,641 C314.9363,656.1 315.7413,671.78 316.5643,687.5 " fill="none" id="tictactoe.models.Session-tictactoe.models.Game" style="stroke: #A80036; stroke-width: 1.0;"/><polygon fill="#A80036" points="317.2583,700.71,320.7881,691.5154,317,695.7167,312.7988,691.9286,317.2583,700.71" style="stroke: #A80036; stroke-width: 1.0;"/><line style="stroke: #A80036; stroke-width: 1.0;" x1="317" x2="316.5758" y1="695.7167" y2="687.725"/><polygon fill="#A80036" points="303.1873,408.08,299.4617,414.2541,303.728,420.0678,307.4536,413.8937,303.1873,408.08" style="stroke: #A80036; stroke-width: 1.0;"/><!--MD5=[8b9a7111cababfb559df54387fd36e41]
link tictactoe.models.Session to tictactoe.models.Registry--><path d="M217.1713,419.5508 C217.1713,419.5508 207.1153,444.5 202.5323,455.87 " fill="none" id="tictactoe.models.Session-tictactoe.models.Registry" style="stroke: #A80036; stroke-width: 1.0;"/><polygon fill="#A80036" points="197.6453,467.99,204.7255,461.1438,199.5183,463.3541,197.308,458.1469,197.6453,467.99" style="stroke: #A80036; stroke-width: 1.0;"/><line style="stroke: #A80036; stroke-width: 1.0;" x1="199.5183" x2="202.5053" y1="463.3541" y2="455.935"/><polygon fill="#A80036" points="221.6553,408.42,215.7031,412.4907,217.1713,419.5508,223.1236,415.48,221.6553,408.42" style="stroke: #A80036; stroke-width: 1.0;"/><!--MD5=[1144122d6943599b2215721923ef0ecc]
link tictactoe.models.State to tictactoe.types.StateValue--><path d="M458.3549,623.131 C458.3549,623.131 734.6973,1027.9 800.0963,1123.69 " fill="none" id="tictactoe.models.State-tictactoe.types.StateValue" style="stroke: #A80036; stroke-width: 1.0;"/><polygon fill="#A80036" points="807.4513,1134.46,805.6814,1124.7715,804.6326,1130.3303,799.0738,1129.2814,807.4513,1134.46" style="stroke: #A80036; stroke-width: 1.0;"/><line style="stroke: #A80036; stroke-width: 1.0;" x1="804.6326" x2="800.1213" y1="1130.3303" y2="1123.725"/><polygon fill="#A80036" points="451.5893,613.22,451.6684,620.4307,458.3549,623.131,458.2757,615.9203,451.5893,613.22" style="stroke: #A80036; stroke-width: 1.0;"/><!--MD5=[445ca9be6ac7acaf2fbd96fa00e05ee8]
link tictactoe.models.Turn to tictactoe.models.Player--><path d="M184.7997,1845.8631 C184.7997,1845.8631 188.5673,1869.574 190.3473,1880.776 " fill="none" id="tictactoe.models.Turn-tictactoe.models.Player" style="stroke: #A80036; stroke-width: 1.0;"/><polygon fill="#A80036" points="192.4213,1893.827,194.9594,1884.3108,191.6367,1888.8889,187.0585,1885.5662,192.4213,1893.827" style="stroke: #A80036; stroke-width: 1.0;"/><line style="stroke: #A80036; stroke-width: 1.0;" x1="191.6367" x2="190.3808" y1="1888.8889" y2="1880.988"/><polygon fill="#A80036" points="182.9153,1834.012,179.9071,1840.5657,184.7997,1845.8631,187.8079,1839.3094,182.9153,1834.012" style="stroke: #A80036; stroke-width: 1.0;"/><!--MD5=[44b841ff8a828ae12869c3c51c1455f6]
@startuml

class  tictactoe.models.Board{
+ {static} EMPTY: char
- coordinates: Coordinate[][]
+ Board()
+ Board(Coordinate[][])
+ getToken(Coordinate): Token
~ move(Coordinate, Coordinate): void
~ put(Coordinate, Token): void
- remove(Coordinate): void
~ isTicTacToe(Token): boolean
- numberOfCoordinates(Coordinate[]): int
~ isCompleted(): boolean
+ isEmpty(Coordinate): boolean
~ isOccupied(Coordinate, Token): boolean
- checkNumberOfCoordinates(Coordinate[]): boolean
- checkDirectionOfFirstCoordinates(Coordinate[]): boolean
- checkDirectionOfAllCoordinates(Coordinate[]): boolean
~ copy(): Board
}
tictactoe.models.Board *-down-> tictactoe.models.Coordinate
tictactoe.models.Board ..> tictactoe.models.Turn
tictactoe.models.Board ..> utils.Direction

class  tictactoe.models.Coordinate{
+ {static} DIMENSION: char
+ Coordinate()
+ Coordinate(int, int)
~ inDirection(Coordinate): boolean
~ getDirection(Coordinate): Direction
- inInverseDiagonal(): boolean
+ isValid(): boolean
+ random(): void
}
utils.Coordinate <|-down- tictactoe.models.Coordinate
tictactoe.models.Coordinate ..> utils.Direction
tictactoe.models.Coordinate ..> java.util.Random

class  tictactoe.models.Game{
- board: Board
- players: Player[][]
- turn: Turn
+ Game()
+ createPlayers(int): void
~ createMemento(): Memento
~ set(Memento): void
- createCopyOfPlayers(Player[], Board): Player[]
+ isBoardComplete(): boolean
+ putTokenPlayerFromTurn(Coordinate): void
+ moveTokenPlayerFromTurn(Coordinate[]): void
+ getTypeOfTokenPlayerFromTurn(): PlayerType
+ getPutCoordinateError(Coordinate): Error
+ getMoveOriginCoordinateError(Coordinate): Error
+ getMoveTargetCoordinateError(Coordinate, Coordinate): Error
+ getToken(Coordinate): Token
+ changeTurn(): void
+ isTicTacToe(): boolean
+ getValueFromTurn(): int
+ newGame(): void
}
tictactoe.models.Game *-down-> tictactoe.models.Board
tictactoe.models.Game *-down-> tictactoe.models.Player
tictactoe.models.Game *-down-> tictactoe.models.Turn
tictactoe.models.Game ..> tictactoe.types.Token
tictactoe.models.Game ..> tictactoe.types.PlayerType
tictactoe.models.Game ..> tictactoe.models.Memento

class  tictactoe.models.Memento{
- board: Board
- players: Player[][]
- turn: Turn
+ Memento(Board, Player[], Turn)
+ getBoard(): Board
~ getPlayers(): Player[]
~ getTurn(): Turn
}
tictactoe.models.Memento *-down-> tictactoe.models.Board
tictactoe.models.Memento *-down-> tictactoe.models.Player
tictactoe.models.Memento *-down-> tictactoe.models.Turn

class  tictactoe.models.Player{
- token: Token
- board: Board
- type: PlayerType
+ Player(Token, Board, PlayerType)
+ getType(): PlayerType
~ getToken(): Token
~ put(Coordinate): void
~ move(Coordinate[]): void
+ getPutCoordinateError(Coordinate): Error
+ getMoveOriginCoordinateError(Coordinate): Error
+ getMoveTargetCoordinateError(Coordinate, Coordinate): Error
}
tictactoe.models.Player *-down-> tictactoe.models.Board
tictactoe.models.Player ..> tictactoe.models.Coordinate

class  tictactoe.models.Registry{
- mementoList: ArrayList<Memento>
- game: Game
- firstPrevious: int
~ Registry(Game)
~ registry(): void
~ redo(Game): void
~ undoable(): boolean
~ redoable(): boolean
~ reset(): void
}
tictactoe.models.Registry *-down-> tictactoe.models.Game
tictactoe.models.Registry *-down-> tictactoe.models.Memento
tictactoe.models.Registry *-down-> java.util.ArrayList

class  tictactoe.models.Session{
- state: State
- game: Game
- registry: Registry
+ Session()
+ next(): void
+ undoable(): boolean
+ redoable(): boolean
+ undo(): void
+ redo(): void
+ createPlayers(int): void
+ getTypeOfTokenPlayerFromTurn(): PlayerType
+ controlErrorsPutCoordinate(Coordinate): Error
+ controlErrorsMoveOriginCoordinate(Coordinate): Error
+ controlErrorsMoveTargetCoordinate(Coordinate, Coordinate): Error
+ isBoardComplete(): boolean
+ putTokenPlayerFromTurn(Coordinate): void
+ moveTokenPlayerFromTurn(Coordinate[]): void
+ changeTurn(): void
+ getToken(Coordinate): Token
+ isTicTacToe(): boolean
+ getValueFromTurn(): int
+ getValueState(): StateValue
+ newGame(): void
}
tictactoe.models.Session *-down-> tictactoe.models.State
tictactoe.models.Session *-down-> tictactoe.models.Game
tictactoe.models.Session *-down-> tictactoe.models.Registry

class  tictactoe.models.State{
- stateValue: StateValue
+ State()
+ next(): void
+ reset(): void
+ getValueState(): StateValue
}
tictactoe.models.State *-down-> tictactoe.types.StateValue

class  tictactoe.models.Turn{
+ {static} NUM_PLAYERS: int
- value: int
- players: Player[]
+ Turn(Player[])
+ Turn(Player[], int)
~ change(): void
~ getPlayer(): Player
~ getValue(): int
- getOtherValue(): int
~ getOtherPlayer(): Player
~ copy(Player[]): Turn
}
tictactoe.models.Turn *-down-> tictactoe.models.Player

@enduml

PlantUML version 1.2020.15(Sun Jun 28 13:39:45 CEST 2020)
(GPL source distribution)
Java Runtime: Java(TM) SE Runtime Environment
JVM: Java HotSpot(TM) 64-Bit Server VM
Default Encoding: windows-1252
Language: es
Country: ES
--></g></svg>