<?xml version="1.0" encoding="UTF-8" standalone="no"?><svg xmlns="http://www.w3.org/2000/svg" xmlns:xlink="http://www.w3.org/1999/xlink" contentScriptType="application/ecmascript" contentStyleType="text/css" height="323px" preserveAspectRatio="none" style="width:550px;height:323px;" version="1.1" viewBox="0 0 550 323" width="550px" zoomAndPan="magnify"><defs><filter height="300%" id="f1tcg75b0vpll9" width="300%" x="-1" y="-1"><feGaussianBlur result="blurOut" stdDeviation="2.0"/><feColorMatrix in="blurOut" result="blurOut2" type="matrix" values="0 0 0 0 0 0 0 0 0 0 0 0 0 0 0 0 0 0 .4 0"/><feOffset dx="4.0" dy="4.0" in="blurOut2" result="blurOut3"/><feBlend in="SourceGraphic" in2="blurOut3" mode="normal"/></filter></defs><g><!--MD5=[807bc46d8103c809ff053af9e140e1f5]
cluster tictactoe--><polygon fill="#FFFFFF" filter="url(#f1tcg75b0vpll9)" points="16,6,83,6,90,29.6094,200,29.6094,200,311,16,311,16,6" style="stroke: #000000; stroke-width: 1.5;"/><line style="stroke: #000000; stroke-width: 1.5;" x1="16" x2="90" y1="29.6094" y2="29.6094"/><text fill="#000000" font-family="sans-serif" font-size="14" font-weight="bold" lengthAdjust="spacingAndGlyphs" textLength="61" x="20" y="22.5332">tictactoe</text><!--MD5=[f4e83a21a957c5b9ba9691e6361db36b]
cluster tictactoe.views--><polygon fill="#FFFFFF" filter="url(#f1tcg75b0vpll9)" points="224,197,336,197,343,220.6094,346,220.6094,346,297,224,297,224,197" style="stroke: #000000; stroke-width: 1.5;"/><line style="stroke: #000000; stroke-width: 1.5;" x1="224" x2="343" y1="220.6094" y2="220.6094"/><text fill="#000000" font-family="sans-serif" font-size="14" font-weight="bold" lengthAdjust="spacingAndGlyphs" textLength="106" x="228" y="213.5332">tictactoe.views</text><!--MD5=[ee7e9a007a7c4d40c0679a27f272732d]
cluster tictactoe.controllers--><polygon fill="#FFFFFF" filter="url(#f1tcg75b0vpll9)" points="370,197,518,197,525,220.6094,528,220.6094,528,297,370,297,370,197" style="stroke: #000000; stroke-width: 1.5;"/><line style="stroke: #000000; stroke-width: 1.5;" x1="370" x2="525" y1="220.6094" y2="220.6094"/><text fill="#000000" font-family="sans-serif" font-size="14" font-weight="bold" lengthAdjust="spacingAndGlyphs" textLength="142" x="374" y="213.5332">tictactoe.controllers</text><!--MD5=[dcfee6ff2a733e6a859ce2b7bcbe021e]
class tictactoe.TicTacToe--><rect fill="#FEFECE" filter="url(#f1tcg75b0vpll9)" height="117.1797" id="tictactoe.TicTacToe" style="stroke: #A80036; stroke-width: 1.5;" width="144" x="40" y="42"/><ellipse cx="79.75" cy="58" fill="#ADD1B2" rx="11" ry="11" style="stroke: #A80036; stroke-width: 1.0;"/><path d="M82.5156,53.875 Q82.6719,53.6563 82.8594,53.5469 Q83.0469,53.4375 83.2656,53.4375 Q83.6406,53.4375 83.875,53.7031 Q84.1094,53.9531 84.1094,54.5625 L84.1094,56.0156 Q84.1094,56.625 83.875,56.8906 Q83.6406,57.1563 83.2656,57.1563 Q82.9219,57.1563 82.7188,56.9531 Q82.5156,56.7656 82.4063,56.25 Q82.3594,55.8906 82.1719,55.7031 Q81.8438,55.3281 81.2344,55.1094 Q80.625,54.8906 80,54.8906 Q79.2344,54.8906 78.5938,55.2188 Q77.9688,55.5469 77.4688,56.2969 Q76.9844,57.0469 76.9844,58.0781 L76.9844,59.1719 Q76.9844,60.4063 77.875,61.2344 Q78.7656,62.0469 80.3594,62.0469 Q81.2969,62.0469 81.9531,61.7969 Q82.3438,61.6406 82.7656,61.2031 Q83.0313,60.9375 83.1719,60.8594 Q83.3281,60.7813 83.5313,60.7813 Q83.8594,60.7813 84.1094,61.0469 Q84.375,61.2969 84.375,61.6406 Q84.375,61.9844 84.0313,62.3906 Q83.5313,62.9688 82.7344,63.2969 Q81.6563,63.75 80.3594,63.75 Q78.8438,63.75 77.6406,63.125 Q76.6563,62.625 75.9688,61.5625 Q75.2813,60.4844 75.2813,59.2031 L75.2813,58.0469 Q75.2813,56.7188 75.8906,55.5781 Q76.5156,54.4219 77.6094,53.8125 Q78.7031,53.1875 79.9375,53.1875 Q80.6719,53.1875 81.3125,53.3594 Q81.9688,53.5156 82.5156,53.875 Z "/><text fill="#000000" font-family="sans-serif" font-size="12" lengthAdjust="spacingAndGlyphs" textLength="57" x="99.25" y="62.9102">TicTacToe</text><line style="stroke: #A80036; stroke-width: 1.5;" x1="41" x2="183" y1="74" y2="74"/><rect fill="none" height="6" style="stroke: #C82930; stroke-width: 1.0;" width="6" x="48" y="82"/><text fill="#000000" font-family="sans-serif" font-size="11" lengthAdjust="spacingAndGlyphs" textLength="54" x="60" y="89.4189">logic: Logic</text><rect fill="none" height="6" style="stroke: #C82930; stroke-width: 1.0;" width="6" x="48" y="95.8359"/><text fill="#000000" font-family="sans-serif" font-size="11" lengthAdjust="spacingAndGlyphs" textLength="56" x="60" y="103.2549">view: View</text><line style="stroke: #A80036; stroke-width: 1.5;" x1="41" x2="183" y1="109.6719" y2="109.6719"/><polygon fill="#FFFF44" points="51,115.6719,55,119.6719,51,123.6719,47,119.6719" style="stroke: #B38D22; stroke-width: 1.0;"/><text fill="#000000" font-family="sans-serif" font-size="11" lengthAdjust="spacingAndGlyphs" textLength="58" x="60" y="125.0908">TicTacToe()</text><polygon fill="#FFFF44" points="51,129.5078,55,133.5078,51,137.5078,47,133.5078" style="stroke: #B38D22; stroke-width: 1.0;"/><text fill="#000000" font-family="sans-serif" font-size="11" font-style="italic" lengthAdjust="spacingAndGlyphs" textLength="118" x="60" y="138.9268">isStandalone(): boolean</text><polygon fill="#FFFF44" points="51,143.3438,55,147.3438,51,151.3438,47,147.3438" style="stroke: #B38D22; stroke-width: 1.0;"/><text fill="#000000" font-family="sans-serif" font-size="11" lengthAdjust="spacingAndGlyphs" textLength="54" x="60" y="152.7627">play(): void</text><!--MD5=[f5fc1e561e2eea38abd2740b8407f9bb]
class tictactoe.TicTacToeStandalone--><rect fill="#FEFECE" filter="url(#f1tcg75b0vpll9)" height="75.6719" id="tictactoe.TicTacToeStandalone" style="stroke: #A80036; stroke-width: 1.5;" width="152" x="32" y="219"/><ellipse cx="47" cy="235" fill="#ADD1B2" rx="11" ry="11" style="stroke: #A80036; stroke-width: 1.0;"/><path d="M49.7656,230.875 Q49.9219,230.6563 50.1094,230.5469 Q50.2969,230.4375 50.5156,230.4375 Q50.8906,230.4375 51.125,230.7031 Q51.3594,230.9531 51.3594,231.5625 L51.3594,233.0156 Q51.3594,233.625 51.125,233.8906 Q50.8906,234.1563 50.5156,234.1563 Q50.1719,234.1563 49.9688,233.9531 Q49.7656,233.7656 49.6563,233.25 Q49.6094,232.8906 49.4219,232.7031 Q49.0938,232.3281 48.4844,232.1094 Q47.875,231.8906 47.25,231.8906 Q46.4844,231.8906 45.8438,232.2188 Q45.2188,232.5469 44.7188,233.2969 Q44.2344,234.0469 44.2344,235.0781 L44.2344,236.1719 Q44.2344,237.4063 45.125,238.2344 Q46.0156,239.0469 47.6094,239.0469 Q48.5469,239.0469 49.2031,238.7969 Q49.5938,238.6406 50.0156,238.2031 Q50.2813,237.9375 50.4219,237.8594 Q50.5781,237.7813 50.7813,237.7813 Q51.1094,237.7813 51.3594,238.0469 Q51.625,238.2969 51.625,238.6406 Q51.625,238.9844 51.2813,239.3906 Q50.7813,239.9688 49.9844,240.2969 Q48.9063,240.75 47.6094,240.75 Q46.0938,240.75 44.8906,240.125 Q43.9063,239.625 43.2188,238.5625 Q42.5313,237.4844 42.5313,236.2031 L42.5313,235.0469 Q42.5313,233.7188 43.1406,232.5781 Q43.7656,231.4219 44.8594,230.8125 Q45.9531,230.1875 47.1875,230.1875 Q47.9219,230.1875 48.5625,230.3594 Q49.2188,230.5156 49.7656,230.875 Z "/><text fill="#000000" font-family="sans-serif" font-size="12" lengthAdjust="spacingAndGlyphs" textLength="120" x="61" y="239.9102">TicTacToeStandalone</text><line style="stroke: #A80036; stroke-width: 1.5;" x1="33" x2="183" y1="251" y2="251"/><line style="stroke: #A80036; stroke-width: 1.5;" x1="33" x2="183" y1="259" y2="259"/><ellipse cx="43" cy="270" fill="#84BE84" rx="3" ry="3" style="stroke: #038048; stroke-width: 1.0;"/><text fill="#000000" font-family="sans-serif" font-size="11" lengthAdjust="spacingAndGlyphs" text-decoration="underline" textLength="90" x="52" y="274.4189">main(String[]): void</text><polygon fill="#FFFF44" points="43,278.8359,47,282.8359,43,286.8359,39,282.8359" style="stroke: #B38D22; stroke-width: 1.0;"/><text fill="#000000" font-family="sans-serif" font-size="11" lengthAdjust="spacingAndGlyphs" textLength="114" x="52" y="288.2549">isStandalone(): boolean</text><!--MD5=[015754420c4cdd9bacda884b3fa8c6ca]
class tictactoe.views.View--><rect fill="#FEFECE" filter="url(#f1tcg75b0vpll9)" height="48" id="tictactoe.views.View" style="stroke: #A80036; stroke-width: 1.5;" width="58" x="240" y="233"/><ellipse cx="255" cy="249" fill="#ADD1B2" rx="11" ry="11" style="stroke: #A80036; stroke-width: 1.0;"/><path d="M257.7656,244.875 Q257.9219,244.6563 258.1094,244.5469 Q258.2969,244.4375 258.5156,244.4375 Q258.8906,244.4375 259.125,244.7031 Q259.3594,244.9531 259.3594,245.5625 L259.3594,247.0156 Q259.3594,247.625 259.125,247.8906 Q258.8906,248.1563 258.5156,248.1563 Q258.1719,248.1563 257.9688,247.9531 Q257.7656,247.7656 257.6563,247.25 Q257.6094,246.8906 257.4219,246.7031 Q257.0938,246.3281 256.4844,246.1094 Q255.875,245.8906 255.25,245.8906 Q254.4844,245.8906 253.8438,246.2188 Q253.2188,246.5469 252.7188,247.2969 Q252.2344,248.0469 252.2344,249.0781 L252.2344,250.1719 Q252.2344,251.4063 253.125,252.2344 Q254.0156,253.0469 255.6094,253.0469 Q256.5469,253.0469 257.2031,252.7969 Q257.5938,252.6406 258.0156,252.2031 Q258.2813,251.9375 258.4219,251.8594 Q258.5781,251.7813 258.7813,251.7813 Q259.1094,251.7813 259.3594,252.0469 Q259.625,252.2969 259.625,252.6406 Q259.625,252.9844 259.2813,253.3906 Q258.7813,253.9688 257.9844,254.2969 Q256.9063,254.75 255.6094,254.75 Q254.0938,254.75 252.8906,254.125 Q251.9063,253.625 251.2188,252.5625 Q250.5313,251.4844 250.5313,250.2031 L250.5313,249.0469 Q250.5313,247.7188 251.1406,246.5781 Q251.7656,245.4219 252.8594,244.8125 Q253.9531,244.1875 255.1875,244.1875 Q255.9219,244.1875 256.5625,244.3594 Q257.2188,244.5156 257.7656,244.875 Z "/><text fill="#000000" font-family="sans-serif" font-size="12" lengthAdjust="spacingAndGlyphs" textLength="26" x="269" y="253.9102">View</text><line style="stroke: #A80036; stroke-width: 1.5;" x1="241" x2="297" y1="265" y2="265"/><line style="stroke: #A80036; stroke-width: 1.5;" x1="241" x2="297" y1="273" y2="273"/><!--MD5=[3b8962fd5847b9038b2e29740dae8054]
class tictactoe.controllers.Logic--><rect fill="#FEFECE" filter="url(#f1tcg75b0vpll9)" height="48" id="tictactoe.controllers.Logic" style="stroke: #A80036; stroke-width: 1.5;" width="62" x="386" y="233"/><ellipse cx="401" cy="249" fill="#ADD1B2" rx="11" ry="11" style="stroke: #A80036; stroke-width: 1.0;"/><path d="M403.7656,244.875 Q403.9219,244.6563 404.1094,244.5469 Q404.2969,244.4375 404.5156,244.4375 Q404.8906,244.4375 405.125,244.7031 Q405.3594,244.9531 405.3594,245.5625 L405.3594,247.0156 Q405.3594,247.625 405.125,247.8906 Q404.8906,248.1563 404.5156,248.1563 Q404.1719,248.1563 403.9688,247.9531 Q403.7656,247.7656 403.6563,247.25 Q403.6094,246.8906 403.4219,246.7031 Q403.0938,246.3281 402.4844,246.1094 Q401.875,245.8906 401.25,245.8906 Q400.4844,245.8906 399.8438,246.2188 Q399.2188,246.5469 398.7188,247.2969 Q398.2344,248.0469 398.2344,249.0781 L398.2344,250.1719 Q398.2344,251.4063 399.125,252.2344 Q400.0156,253.0469 401.6094,253.0469 Q402.5469,253.0469 403.2031,252.7969 Q403.5938,252.6406 404.0156,252.2031 Q404.2813,251.9375 404.4219,251.8594 Q404.5781,251.7813 404.7813,251.7813 Q405.1094,251.7813 405.3594,252.0469 Q405.625,252.2969 405.625,252.6406 Q405.625,252.9844 405.2813,253.3906 Q404.7813,253.9688 403.9844,254.2969 Q402.9063,254.75 401.6094,254.75 Q400.0938,254.75 398.8906,254.125 Q397.9063,253.625 397.2188,252.5625 Q396.5313,251.4844 396.5313,250.2031 L396.5313,249.0469 Q396.5313,247.7188 397.1406,246.5781 Q397.7656,245.4219 398.8594,244.8125 Q399.9531,244.1875 401.1875,244.1875 Q401.9219,244.1875 402.5625,244.3594 Q403.2188,244.5156 403.7656,244.875 Z "/><text fill="#000000" font-family="sans-serif" font-size="12" lengthAdjust="spacingAndGlyphs" textLength="30" x="415" y="253.9102">Logic</text><line style="stroke: #A80036; stroke-width: 1.5;" x1="387" x2="447" y1="265" y2="265"/><line style="stroke: #A80036; stroke-width: 1.5;" x1="387" x2="447" y1="273" y2="273"/><!--MD5=[2e9845d2d438f1c6c29fdc19d0711783]
link tictactoe.TicTacToe to tictactoe.views.View--><path d="M179.0146,167.4464 C179.0146,167.4464 219.539,207.326 235.794,223.322 " fill="none" id="tictactoe.TicTacToe-tictactoe.views.View" style="stroke: #A80036; stroke-width: 1.0;"/><polygon fill="#A80036" points="245.363,232.7391,241.754,223.5753,241.7993,229.232,236.1426,229.2773,245.363,232.7391" style="stroke: #A80036; stroke-width: 1.0;"/><line style="stroke: #A80036; stroke-width: 1.0;" x1="241.7993" x2="236.0965" y1="229.232" y2="223.621"/><polygon fill="#A80036" points="170.461,159.03,171.9323,166.0894,179.0146,167.4464,177.5433,160.387,170.461,159.03" style="stroke: #A80036; stroke-width: 1.0;"/><!--MD5=[e63e3ab671b1ac769a6a0410c90c40ce]
link tictactoe.TicTacToe to tictactoe.controllers.Logic--><path d="M195.5286,133.9819 C195.5286,133.9819 276.488,168.859 314,189 C334.7,200.114 356.654,214.067 374.951,226.359 " fill="none" id="tictactoe.TicTacToe-tictactoe.controllers.Logic" style="stroke: #A80036; stroke-width: 1.0;"/><polygon fill="#A80036" points="385.828,233.7567,380.6361,225.3874,381.6938,230.9445,376.1367,232.0022,385.828,233.7567" style="stroke: #A80036; stroke-width: 1.0;"/><line style="stroke: #A80036; stroke-width: 1.0;" x1="381.6938" x2="375.079" y1="230.9445" y2="226.445"/><polygon fill="#A80036" points="184.43,129.419,188.4584,135.4,195.5286,133.9819,191.5003,128.0009,184.43,129.419" style="stroke: #A80036; stroke-width: 1.0;"/><!--MD5=[d785083cbd8aa23c37234e39a8c1118f]
reverse link tictactoe.TicTacToe to tictactoe.TicTacToeStandalone--><path d="M109.993,179.024 C109.636,192.804 109.28,206.572 108.969,218.575 " fill="none" id="tictactoe.TicTacToe&lt;-tictactoe.TicTacToeStandalone" style="stroke: #A80036; stroke-width: 1.0;"/><polygon fill="none" points="102.995,178.842,110.511,159.03,116.99,179.205,102.995,178.842" style="stroke: #A80036; stroke-width: 1.0;"/><!--MD5=[9219cbdc35cb18c5ddb35e1be153dbd6]
@startuml

class  tictactoe.TicTacToe{
- logic: Logic
- view: View
# TicTacToe()
# {abstract} isStandalone(): boolean
# play(): void
}
tictactoe.TicTacToe *-down-> tictactoe.views.View
tictactoe.TicTacToe *-down-> tictactoe.controllers.Logic

class  tictactoe.TicTacToeStandalone{
+ {static} main(String[]): void
# isStandalone(): boolean
}
tictactoe.TicTacToe <|-down- tictactoe.TicTacToeStandalone

@enduml

PlantUML version 1.2020.15(Sun Jun 28 13:39:45 CEST 2020)
(GPL source distribution)
Java Runtime: Java(TM) SE Runtime Environment
JVM: Java HotSpot(TM) 64-Bit Server VM
Default Encoding: windows-1252
Language: es
Country: ES
--></g></svg>