<?xml version="1.0" encoding="UTF-8" standalone="no"?><svg xmlns="http://www.w3.org/2000/svg" xmlns:xlink="http://www.w3.org/1999/xlink" contentScriptType="application/ecmascript" contentStyleType="text/css" height="917px" preserveAspectRatio="none" style="width:804px;height:917px;" version="1.1" viewBox="0 0 804 917" width="804px" zoomAndPan="magnify"><defs><filter height="300%" id="fqbrlgzczpx6n" width="300%" x="-1" y="-1"><feGaussianBlur result="blurOut" stdDeviation="2.0"/><feColorMatrix in="blurOut" result="blurOut2" type="matrix" values="0 0 0 0 0 0 0 0 0 0 0 0 0 0 0 0 0 0 .4 0"/><feOffset dx="4.0" dy="4.0" in="blurOut2" result="blurOut3"/><feBlend in="SourceGraphic" in2="blurOut3" mode="normal"/></filter></defs><g><!--MD5=[ee7e9a007a7c4d40c0679a27f272732d]
cluster tictactoe.controllers--><polygon fill="#FFFFFF" filter="url(#fqbrlgzczpx6n)" points="16,6,164,6,171,29.6094,695,29.6094,695,781,16,781,16,6" style="stroke: #000000; stroke-width: 1.5;"/><line style="stroke: #000000; stroke-width: 1.5;" x1="16" x2="171" y1="29.6094" y2="29.6094"/><text fill="#000000" font-family="sans-serif" font-size="14" font-weight="bold" lengthAdjust="spacingAndGlyphs" textLength="142" x="20" y="22.5332">tictactoe.controllers</text><!--MD5=[51cd642fcc96b47682a93d9084d46dec]
cluster tictactoe.models--><polygon fill="#FFFFFF" filter="url(#fqbrlgzczpx6n)" points="554,805,676,805,683,828.6094,781,828.6094,781,905,554,905,554,805" style="stroke: #000000; stroke-width: 1.5;"/><line style="stroke: #000000; stroke-width: 1.5;" x1="554" x2="683" y1="828.6094" y2="828.6094"/><text fill="#000000" font-family="sans-serif" font-size="14" font-weight="bold" lengthAdjust="spacingAndGlyphs" textLength="116" x="558" y="821.5332">tictactoe.models</text><!--MD5=[957eef6538bab7382edbc29d98579a60]
class tictactoe.controllers.Controller--><rect fill="#FEFECE" filter="url(#fqbrlgzczpx6n)" height="75.6719" id="tictactoe.controllers.Controller" style="stroke: #A80036; stroke-width: 1.5;" width="108" x="565" y="194"/><ellipse cx="589.9" cy="210" fill="#ADD1B2" rx="11" ry="11" style="stroke: #A80036; stroke-width: 1.0;"/><path d="M592.6656,205.875 Q592.8219,205.6563 593.0094,205.5469 Q593.1969,205.4375 593.4156,205.4375 Q593.7906,205.4375 594.025,205.7031 Q594.2594,205.9531 594.2594,206.5625 L594.2594,208.0156 Q594.2594,208.625 594.025,208.8906 Q593.7906,209.1563 593.4156,209.1563 Q593.0719,209.1563 592.8688,208.9531 Q592.6656,208.7656 592.5563,208.25 Q592.5094,207.8906 592.3219,207.7031 Q591.9938,207.3281 591.3844,207.1094 Q590.775,206.8906 590.15,206.8906 Q589.3844,206.8906 588.7438,207.2188 Q588.1188,207.5469 587.6188,208.2969 Q587.1344,209.0469 587.1344,210.0781 L587.1344,211.1719 Q587.1344,212.4063 588.025,213.2344 Q588.9156,214.0469 590.5094,214.0469 Q591.4469,214.0469 592.1031,213.7969 Q592.4938,213.6406 592.9156,213.2031 Q593.1813,212.9375 593.3219,212.8594 Q593.4781,212.7813 593.6813,212.7813 Q594.0094,212.7813 594.2594,213.0469 Q594.525,213.2969 594.525,213.6406 Q594.525,213.9844 594.1813,214.3906 Q593.6813,214.9688 592.8844,215.2969 Q591.8063,215.75 590.5094,215.75 Q588.9938,215.75 587.7906,215.125 Q586.8063,214.625 586.1188,213.5625 Q585.4313,212.4844 585.4313,211.2031 L585.4313,210.0469 Q585.4313,208.7188 586.0406,207.5781 Q586.6656,206.4219 587.7594,205.8125 Q588.8531,205.1875 590.0875,205.1875 Q590.8219,205.1875 591.4625,205.3594 Q592.1188,205.5156 592.6656,205.875 Z "/><text fill="#000000" font-family="sans-serif" font-size="12" lengthAdjust="spacingAndGlyphs" textLength="54" x="606.1" y="214.9102">Controller</text><line style="stroke: #A80036; stroke-width: 1.5;" x1="566" x2="672" y1="226" y2="226"/><polygon fill="none" points="576,232,580,236,576,240,572,236" style="stroke: #B38D22; stroke-width: 1.0;"/><text fill="#000000" font-family="sans-serif" font-size="11" lengthAdjust="spacingAndGlyphs" textLength="60" x="585" y="241.4189">game: Game</text><line style="stroke: #A80036; stroke-width: 1.5;" x1="566" x2="672" y1="247.8359" y2="247.8359"/><polygon fill="#4177AF" points="576,254.8359,572,260.8359,580,260.8359" style="stroke: #1963A0; stroke-width: 1.0;"/><text fill="#000000" font-family="sans-serif" font-size="11" lengthAdjust="spacingAndGlyphs" textLength="82" x="585" y="263.2549">Controller(Game)</text><!--MD5=[3b8962fd5847b9038b2e29740dae8054]
class tictactoe.controllers.Logic--><rect fill="#FEFECE" filter="url(#fqbrlgzczpx6n)" height="380.0625" id="tictactoe.controllers.Logic" style="stroke: #A80036; stroke-width: 1.5;" width="346" x="184" y="42"/><ellipse cx="337.75" cy="58" fill="#ADD1B2" rx="11" ry="11" style="stroke: #A80036; stroke-width: 1.0;"/><path d="M340.5156,53.875 Q340.6719,53.6563 340.8594,53.5469 Q341.0469,53.4375 341.2656,53.4375 Q341.6406,53.4375 341.875,53.7031 Q342.1094,53.9531 342.1094,54.5625 L342.1094,56.0156 Q342.1094,56.625 341.875,56.8906 Q341.6406,57.1563 341.2656,57.1563 Q340.9219,57.1563 340.7188,56.9531 Q340.5156,56.7656 340.4063,56.25 Q340.3594,55.8906 340.1719,55.7031 Q339.8438,55.3281 339.2344,55.1094 Q338.625,54.8906 338,54.8906 Q337.2344,54.8906 336.5938,55.2188 Q335.9688,55.5469 335.4688,56.2969 Q334.9844,57.0469 334.9844,58.0781 L334.9844,59.1719 Q334.9844,60.4063 335.875,61.2344 Q336.7656,62.0469 338.3594,62.0469 Q339.2969,62.0469 339.9531,61.7969 Q340.3438,61.6406 340.7656,61.2031 Q341.0313,60.9375 341.1719,60.8594 Q341.3281,60.7813 341.5313,60.7813 Q341.8594,60.7813 342.1094,61.0469 Q342.375,61.2969 342.375,61.6406 Q342.375,61.9844 342.0313,62.3906 Q341.5313,62.9688 340.7344,63.2969 Q339.6563,63.75 338.3594,63.75 Q336.8438,63.75 335.6406,63.125 Q334.6563,62.625 333.9688,61.5625 Q333.2813,60.4844 333.2813,59.2031 L333.2813,58.0469 Q333.2813,56.7188 333.8906,55.5781 Q334.5156,54.4219 335.6094,53.8125 Q336.7031,53.1875 337.9375,53.1875 Q338.6719,53.1875 339.3125,53.3594 Q339.9688,53.5156 340.5156,53.875 Z "/><text fill="#000000" font-family="sans-serif" font-size="12" lengthAdjust="spacingAndGlyphs" textLength="30" x="358.25" y="62.9102">Logic</text><line style="stroke: #A80036; stroke-width: 1.5;" x1="185" x2="529" y1="74" y2="74"/><rect fill="none" height="6" style="stroke: #C82930; stroke-width: 1.0;" width="6" x="192" y="82"/><text fill="#000000" font-family="sans-serif" font-size="11" lengthAdjust="spacingAndGlyphs" textLength="60" x="204" y="89.4189">game: Game</text><rect fill="none" height="6" style="stroke: #C82930; stroke-width: 1.0;" width="6" x="192" y="95.8359"/><text fill="#000000" font-family="sans-serif" font-size="11" lengthAdjust="spacingAndGlyphs" textLength="143" x="204" y="103.2549">startController: StartController</text><rect fill="none" height="6" style="stroke: #C82930; stroke-width: 1.0;" width="6" x="192" y="109.6719"/><text fill="#000000" font-family="sans-serif" font-size="11" lengthAdjust="spacingAndGlyphs" textLength="138" x="204" y="117.0908">playController: PlayController</text><rect fill="none" height="6" style="stroke: #C82930; stroke-width: 1.0;" width="6" x="192" y="123.5078"/><text fill="#000000" font-family="sans-serif" font-size="11" lengthAdjust="spacingAndGlyphs" textLength="173" x="204" y="130.9268">resumeController: ResumeController</text><line style="stroke: #A80036; stroke-width: 1.5;" x1="185" x2="529" y1="137.3438" y2="137.3438"/><ellipse cx="195" cy="148.3438" fill="#84BE84" rx="3" ry="3" style="stroke: #038048; stroke-width: 1.0;"/><text fill="#000000" font-family="sans-serif" font-size="11" lengthAdjust="spacingAndGlyphs" textLength="34" x="204" y="152.7627">Logic()</text><ellipse cx="195" cy="162.1797" fill="#84BE84" rx="3" ry="3" style="stroke: #038048; stroke-width: 1.0;"/><text fill="#000000" font-family="sans-serif" font-size="11" lengthAdjust="spacingAndGlyphs" textLength="101" x="204" y="166.5986">createPlayers(): void</text><ellipse cx="195" cy="176.0156" fill="#84BE84" rx="3" ry="3" style="stroke: #038048; stroke-width: 1.0;"/><text fill="#000000" font-family="sans-serif" font-size="11" lengthAdjust="spacingAndGlyphs" textLength="164" x="204" y="180.4346">getTokenPlayerFromTurn(): Player</text><ellipse cx="195" cy="189.8516" fill="#84BE84" rx="3" ry="3" style="stroke: #038048; stroke-width: 1.0;"/><text fill="#000000" font-family="sans-serif" font-size="11" lengthAdjust="spacingAndGlyphs" textLength="224" x="204" y="194.2705">getTypeOfTokenPlayerFromTurn(): PlayerType</text><ellipse cx="195" cy="203.6875" fill="#84BE84" rx="3" ry="3" style="stroke: #038048; stroke-width: 1.0;"/><text fill="#000000" font-family="sans-serif" font-size="11" lengthAdjust="spacingAndGlyphs" textLength="220" x="204" y="208.1064">controlErrorsPutCoordinate(Coordinate): Error</text><ellipse cx="195" cy="217.5234" fill="#84BE84" rx="3" ry="3" style="stroke: #038048; stroke-width: 1.0;"/><text fill="#000000" font-family="sans-serif" font-size="11" lengthAdjust="spacingAndGlyphs" textLength="259" x="204" y="221.9424">controlErrorsMoveOriginCoordinate(Coordinate): Error</text><ellipse cx="195" cy="231.3594" fill="#84BE84" rx="3" ry="3" style="stroke: #038048; stroke-width: 1.0;"/><text fill="#000000" font-family="sans-serif" font-size="11" lengthAdjust="spacingAndGlyphs" textLength="320" x="204" y="235.7783">controlErrorsMoveTargetCoordinate(Coordinate, Coordinate): Error</text><ellipse cx="195" cy="245.1953" fill="#84BE84" rx="3" ry="3" style="stroke: #038048; stroke-width: 1.0;"/><text fill="#000000" font-family="sans-serif" font-size="11" lengthAdjust="spacingAndGlyphs" textLength="188" x="204" y="249.6143">isCoordinateValid(Coordinate): boolean</text><ellipse cx="195" cy="259.0313" fill="#84BE84" rx="3" ry="3" style="stroke: #038048; stroke-width: 1.0;"/><text fill="#000000" font-family="sans-serif" font-size="11" lengthAdjust="spacingAndGlyphs" textLength="200" x="204" y="263.4502">generateRandomCoordinate(): Coordinate</text><ellipse cx="195" cy="272.8672" fill="#84BE84" rx="3" ry="3" style="stroke: #038048; stroke-width: 1.0;"/><text fill="#000000" font-family="sans-serif" font-size="11" lengthAdjust="spacingAndGlyphs" textLength="133" x="204" y="277.2861">isBoardComplete(): boolean</text><ellipse cx="195" cy="286.7031" fill="#84BE84" rx="3" ry="3" style="stroke: #038048; stroke-width: 1.0;"/><text fill="#000000" font-family="sans-serif" font-size="11" lengthAdjust="spacingAndGlyphs" textLength="206" x="204" y="291.1221">putTokenPlayerFromTurn(Coordinate): void</text><ellipse cx="195" cy="300.5391" fill="#84BE84" rx="3" ry="3" style="stroke: #038048; stroke-width: 1.0;"/><text fill="#000000" font-family="sans-serif" font-size="11" lengthAdjust="spacingAndGlyphs" textLength="275" x="204" y="304.958">moveTokenPlayerFromTurn(Coordinate, Coordinate): void</text><ellipse cx="195" cy="314.375" fill="#84BE84" rx="3" ry="3" style="stroke: #038048; stroke-width: 1.0;"/><text fill="#000000" font-family="sans-serif" font-size="11" lengthAdjust="spacingAndGlyphs" textLength="92" x="204" y="318.7939">changeTurn(): void</text><ellipse cx="195" cy="328.2109" fill="#84BE84" rx="3" ry="3" style="stroke: #038048; stroke-width: 1.0;"/><text fill="#000000" font-family="sans-serif" font-size="11" lengthAdjust="spacingAndGlyphs" textLength="155" x="204" y="332.6299">getTokenChar(Coordinate): char</text><ellipse cx="195" cy="342.0469" fill="#84BE84" rx="3" ry="3" style="stroke: #038048; stroke-width: 1.0;"/><text fill="#000000" font-family="sans-serif" font-size="11" lengthAdjust="spacingAndGlyphs" textLength="170" x="204" y="346.4658">isEmptyToken(Coordinate): boolean</text><ellipse cx="195" cy="355.8828" fill="#84BE84" rx="3" ry="3" style="stroke: #038048; stroke-width: 1.0;"/><text fill="#000000" font-family="sans-serif" font-size="11" lengthAdjust="spacingAndGlyphs" textLength="141" x="204" y="360.3018">getCoordinateDimension(): int</text><ellipse cx="195" cy="369.7188" fill="#84BE84" rx="3" ry="3" style="stroke: #038048; stroke-width: 1.0;"/><text fill="#000000" font-family="sans-serif" font-size="11" lengthAdjust="spacingAndGlyphs" textLength="114" x="204" y="374.1377">getValueFromTurn(): int</text><ellipse cx="195" cy="383.5547" fill="#84BE84" rx="3" ry="3" style="stroke: #038048; stroke-width: 1.0;"/><text fill="#000000" font-family="sans-serif" font-size="11" lengthAdjust="spacingAndGlyphs" textLength="110" x="204" y="387.9736">isTicTacToe(): boolean</text><ellipse cx="195" cy="397.3906" fill="#84BE84" rx="3" ry="3" style="stroke: #038048; stroke-width: 1.0;"/><text fill="#000000" font-family="sans-serif" font-size="11" lengthAdjust="spacingAndGlyphs" textLength="114" x="204" y="401.8096">getValueFromTurn(): int</text><ellipse cx="195" cy="411.2266" fill="#84BE84" rx="3" ry="3" style="stroke: #038048; stroke-width: 1.0;"/><text fill="#000000" font-family="sans-serif" font-size="11" lengthAdjust="spacingAndGlyphs" textLength="84" x="204" y="415.6455">newGame(): void</text><!--MD5=[8ede4dbfb3b498095887802b64b699f0]
class tictactoe.controllers.StartController--><rect fill="#FEFECE" filter="url(#fqbrlgzczpx6n)" height="75.6719" id="tictactoe.controllers.StartController" style="stroke: #A80036; stroke-width: 1.5;" width="131" x="547.5" y="585.5"/><ellipse cx="571.5" cy="601.5" fill="#ADD1B2" rx="11" ry="11" style="stroke: #A80036; stroke-width: 1.0;"/><path d="M574.2656,597.375 Q574.4219,597.1563 574.6094,597.0469 Q574.7969,596.9375 575.0156,596.9375 Q575.3906,596.9375 575.625,597.2031 Q575.8594,597.4531 575.8594,598.0625 L575.8594,599.5156 Q575.8594,600.125 575.625,600.3906 Q575.3906,600.6563 575.0156,600.6563 Q574.6719,600.6563 574.4688,600.4531 Q574.2656,600.2656 574.1563,599.75 Q574.1094,599.3906 573.9219,599.2031 Q573.5938,598.8281 572.9844,598.6094 Q572.375,598.3906 571.75,598.3906 Q570.9844,598.3906 570.3438,598.7188 Q569.7188,599.0469 569.2188,599.7969 Q568.7344,600.5469 568.7344,601.5781 L568.7344,602.6719 Q568.7344,603.9063 569.625,604.7344 Q570.5156,605.5469 572.1094,605.5469 Q573.0469,605.5469 573.7031,605.2969 Q574.0938,605.1406 574.5156,604.7031 Q574.7813,604.4375 574.9219,604.3594 Q575.0781,604.2813 575.2813,604.2813 Q575.6094,604.2813 575.8594,604.5469 Q576.125,604.7969 576.125,605.1406 Q576.125,605.4844 575.7813,605.8906 Q575.2813,606.4688 574.4844,606.7969 Q573.4063,607.25 572.1094,607.25 Q570.5938,607.25 569.3906,606.625 Q568.4063,606.125 567.7188,605.0625 Q567.0313,603.9844 567.0313,602.7031 L567.0313,601.5469 Q567.0313,600.2188 567.6406,599.0781 Q568.2656,597.9219 569.3594,597.3125 Q570.4531,596.6875 571.6875,596.6875 Q572.4219,596.6875 573.0625,596.8594 Q573.7188,597.0156 574.2656,597.375 Z "/><text fill="#000000" font-family="sans-serif" font-size="12" lengthAdjust="spacingAndGlyphs" textLength="79" x="587.5" y="606.4102">StartController</text><line style="stroke: #A80036; stroke-width: 1.5;" x1="548.5" x2="677.5" y1="617.5" y2="617.5"/><line style="stroke: #A80036; stroke-width: 1.5;" x1="548.5" x2="677.5" y1="625.5" y2="625.5"/><polygon fill="#4177AF" points="558.5,632.5,554.5,638.5,562.5,638.5" style="stroke: #1963A0; stroke-width: 1.0;"/><text fill="#000000" font-family="sans-serif" font-size="11" lengthAdjust="spacingAndGlyphs" textLength="105" x="567.5" y="640.9189">StartController(Game)</text><polygon fill="#4177AF" points="558.5,646.3359,554.5,652.3359,562.5,652.3359" style="stroke: #1963A0; stroke-width: 1.0;"/><text fill="#000000" font-family="sans-serif" font-size="11" lengthAdjust="spacingAndGlyphs" textLength="101" x="567.5" y="654.7549">createPlayers(): void</text><!--MD5=[b574e60c06c50037ff1b014277a67d62]
class tictactoe.controllers.PlayController--><rect fill="#FEFECE" filter="url(#fqbrlgzczpx6n)" height="283.2109" id="tictactoe.controllers.PlayController" style="stroke: #A80036; stroke-width: 1.5;" width="298" x="32" y="482"/><ellipse cx="138.25" cy="498" fill="#ADD1B2" rx="11" ry="11" style="stroke: #A80036; stroke-width: 1.0;"/><path d="M141.0156,493.875 Q141.1719,493.6563 141.3594,493.5469 Q141.5469,493.4375 141.7656,493.4375 Q142.1406,493.4375 142.375,493.7031 Q142.6094,493.9531 142.6094,494.5625 L142.6094,496.0156 Q142.6094,496.625 142.375,496.8906 Q142.1406,497.1563 141.7656,497.1563 Q141.4219,497.1563 141.2188,496.9531 Q141.0156,496.7656 140.9063,496.25 Q140.8594,495.8906 140.6719,495.7031 Q140.3438,495.3281 139.7344,495.1094 Q139.125,494.8906 138.5,494.8906 Q137.7344,494.8906 137.0938,495.2188 Q136.4688,495.5469 135.9688,496.2969 Q135.4844,497.0469 135.4844,498.0781 L135.4844,499.1719 Q135.4844,500.4063 136.375,501.2344 Q137.2656,502.0469 138.8594,502.0469 Q139.7969,502.0469 140.4531,501.7969 Q140.8438,501.6406 141.2656,501.2031 Q141.5313,500.9375 141.6719,500.8594 Q141.8281,500.7813 142.0313,500.7813 Q142.3594,500.7813 142.6094,501.0469 Q142.875,501.2969 142.875,501.6406 Q142.875,501.9844 142.5313,502.3906 Q142.0313,502.9688 141.2344,503.2969 Q140.1563,503.75 138.8594,503.75 Q137.3438,503.75 136.1406,503.125 Q135.1563,502.625 134.4688,501.5625 Q133.7813,500.4844 133.7813,499.2031 L133.7813,498.0469 Q133.7813,496.7188 134.3906,495.5781 Q135.0156,494.4219 136.1094,493.8125 Q137.2031,493.1875 138.4375,493.1875 Q139.1719,493.1875 139.8125,493.3594 Q140.4688,493.5156 141.0156,493.875 Z "/><text fill="#000000" font-family="sans-serif" font-size="12" lengthAdjust="spacingAndGlyphs" textLength="77" x="158.75" y="502.9102">PlayController</text><line style="stroke: #A80036; stroke-width: 1.5;" x1="33" x2="329" y1="514" y2="514"/><line style="stroke: #A80036; stroke-width: 1.5;" x1="33" x2="329" y1="522" y2="522"/><polygon fill="#4177AF" points="43,529,39,535,47,535" style="stroke: #1963A0; stroke-width: 1.0;"/><text fill="#000000" font-family="sans-serif" font-size="11" lengthAdjust="spacingAndGlyphs" textLength="102" x="52" y="537.4189">PlayController(Game)</text><polygon fill="#4177AF" points="43,542.8359,39,548.8359,47,548.8359" style="stroke: #1963A0; stroke-width: 1.0;"/><text fill="#000000" font-family="sans-serif" font-size="11" lengthAdjust="spacingAndGlyphs" textLength="164" x="52" y="551.2549">getTokenPlayerFromTurn(): Player</text><polygon fill="#4177AF" points="43,556.6719,39,562.6719,47,562.6719" style="stroke: #1963A0; stroke-width: 1.0;"/><text fill="#000000" font-family="sans-serif" font-size="11" lengthAdjust="spacingAndGlyphs" textLength="224" x="52" y="565.0908">getTypeOfTokenPlayerFromTurn(): PlayerType</text><polygon fill="#4177AF" points="43,570.5078,39,576.5078,47,576.5078" style="stroke: #1963A0; stroke-width: 1.0;"/><text fill="#000000" font-family="sans-serif" font-size="11" lengthAdjust="spacingAndGlyphs" textLength="196" x="52" y="578.9268">controlErrorsPutCoordinate(int, int): Error</text><polygon fill="#4177AF" points="43,584.3438,39,590.3438,47,590.3438" style="stroke: #1963A0; stroke-width: 1.0;"/><text fill="#000000" font-family="sans-serif" font-size="11" lengthAdjust="spacingAndGlyphs" textLength="235" x="52" y="592.7627">controlErrorsMoveOriginCoordinate(int, int): Error</text><polygon fill="#4177AF" points="43,598.1797,39,604.1797,47,604.1797" style="stroke: #1963A0; stroke-width: 1.0;"/><text fill="#000000" font-family="sans-serif" font-size="11" lengthAdjust="spacingAndGlyphs" textLength="272" x="52" y="606.5986">controlErrorsMoveTargetCoordinate(int, int, int, int): Error</text><polygon fill="#4177AF" points="43,612.0156,39,618.0156,47,618.0156" style="stroke: #1963A0; stroke-width: 1.0;"/><text fill="#000000" font-family="sans-serif" font-size="11" lengthAdjust="spacingAndGlyphs" textLength="164" x="52" y="620.4346">isCoordinateValid(int, int): boolean</text><polygon fill="#4177AF" points="43,625.8516,39,631.8516,47,631.8516" style="stroke: #1963A0; stroke-width: 1.0;"/><text fill="#000000" font-family="sans-serif" font-size="11" lengthAdjust="spacingAndGlyphs" textLength="165" x="52" y="634.2705">generateRandomCoordinate(): int[]</text><polygon fill="#4177AF" points="43,639.6875,39,645.6875,47,645.6875" style="stroke: #1963A0; stroke-width: 1.0;"/><text fill="#000000" font-family="sans-serif" font-size="11" lengthAdjust="spacingAndGlyphs" textLength="133" x="52" y="648.1064">isBoardComplete(): boolean</text><polygon fill="#4177AF" points="43,653.5234,39,659.5234,47,659.5234" style="stroke: #1963A0; stroke-width: 1.0;"/><text fill="#000000" font-family="sans-serif" font-size="11" lengthAdjust="spacingAndGlyphs" textLength="182" x="52" y="661.9424">putTokenPlayerFromTurn(int, int): void</text><polygon fill="#4177AF" points="43,667.3594,39,673.3594,47,673.3594" style="stroke: #1963A0; stroke-width: 1.0;"/><text fill="#000000" font-family="sans-serif" font-size="11" lengthAdjust="spacingAndGlyphs" textLength="227" x="52" y="675.7783">moveTokenPlayerFromTurn(int, int, int, int): void</text><polygon fill="#4177AF" points="43,681.1953,39,687.1953,47,687.1953" style="stroke: #1963A0; stroke-width: 1.0;"/><text fill="#000000" font-family="sans-serif" font-size="11" lengthAdjust="spacingAndGlyphs" textLength="92" x="52" y="689.6143">changeTurn(): void</text><polygon fill="#4177AF" points="43,695.0313,39,701.0313,47,701.0313" style="stroke: #1963A0; stroke-width: 1.0;"/><text fill="#000000" font-family="sans-serif" font-size="11" lengthAdjust="spacingAndGlyphs" textLength="131" x="52" y="703.4502">getTokenChar(int, int): char</text><polygon fill="#4177AF" points="43,708.8672,39,714.8672,47,714.8672" style="stroke: #1963A0; stroke-width: 1.0;"/><text fill="#000000" font-family="sans-serif" font-size="11" lengthAdjust="spacingAndGlyphs" textLength="146" x="52" y="717.2861">isEmptyToken(int, int): boolean</text><polygon fill="#4177AF" points="43,722.7031,39,728.7031,47,728.7031" style="stroke: #1963A0; stroke-width: 1.0;"/><text fill="#000000" font-family="sans-serif" font-size="11" lengthAdjust="spacingAndGlyphs" textLength="141" x="52" y="731.1221">getCoordinateDimension(): int</text><polygon fill="#4177AF" points="43,736.5391,39,742.5391,47,742.5391" style="stroke: #1963A0; stroke-width: 1.0;"/><text fill="#000000" font-family="sans-serif" font-size="11" lengthAdjust="spacingAndGlyphs" textLength="114" x="52" y="744.958">getValueFromTurn(): int</text><polygon fill="#4177AF" points="43,750.375,39,756.375,47,756.375" style="stroke: #1963A0; stroke-width: 1.0;"/><text fill="#000000" font-family="sans-serif" font-size="11" lengthAdjust="spacingAndGlyphs" textLength="110" x="52" y="758.7939">isTicTacToe(): boolean</text><!--MD5=[d75e1ad11e6a17be2ba08b218e20e3d7]
class tictactoe.controllers.ResumeController--><rect fill="#FEFECE" filter="url(#fqbrlgzczpx6n)" height="75.6719" id="tictactoe.controllers.ResumeController" style="stroke: #A80036; stroke-width: 1.5;" width="147" x="365.5" y="585.5"/><ellipse cx="386.35" cy="601.5" fill="#ADD1B2" rx="11" ry="11" style="stroke: #A80036; stroke-width: 1.0;"/><path d="M389.1156,597.375 Q389.2719,597.1563 389.4594,597.0469 Q389.6469,596.9375 389.8656,596.9375 Q390.2406,596.9375 390.475,597.2031 Q390.7094,597.4531 390.7094,598.0625 L390.7094,599.5156 Q390.7094,600.125 390.475,600.3906 Q390.2406,600.6563 389.8656,600.6563 Q389.5219,600.6563 389.3188,600.4531 Q389.1156,600.2656 389.0063,599.75 Q388.9594,599.3906 388.7719,599.2031 Q388.4438,598.8281 387.8344,598.6094 Q387.225,598.3906 386.6,598.3906 Q385.8344,598.3906 385.1938,598.7188 Q384.5688,599.0469 384.0688,599.7969 Q383.5844,600.5469 383.5844,601.5781 L383.5844,602.6719 Q383.5844,603.9063 384.475,604.7344 Q385.3656,605.5469 386.9594,605.5469 Q387.8969,605.5469 388.5531,605.2969 Q388.9438,605.1406 389.3656,604.7031 Q389.6313,604.4375 389.7719,604.3594 Q389.9281,604.2813 390.1313,604.2813 Q390.4594,604.2813 390.7094,604.5469 Q390.975,604.7969 390.975,605.1406 Q390.975,605.4844 390.6313,605.8906 Q390.1313,606.4688 389.3344,606.7969 Q388.2563,607.25 386.9594,607.25 Q385.4438,607.25 384.2406,606.625 Q383.2563,606.125 382.5688,605.0625 Q381.8813,603.9844 381.8813,602.7031 L381.8813,601.5469 Q381.8813,600.2188 382.4906,599.0781 Q383.1156,597.9219 384.2094,597.3125 Q385.3031,596.6875 386.5375,596.6875 Q387.2719,596.6875 387.9125,596.8594 Q388.5688,597.0156 389.1156,597.375 Z "/><text fill="#000000" font-family="sans-serif" font-size="12" lengthAdjust="spacingAndGlyphs" textLength="102" x="401.65" y="606.4102">ResumeController</text><line style="stroke: #A80036; stroke-width: 1.5;" x1="366.5" x2="511.5" y1="617.5" y2="617.5"/><line style="stroke: #A80036; stroke-width: 1.5;" x1="366.5" x2="511.5" y1="625.5" y2="625.5"/><ellipse cx="376.5" cy="636.5" fill="#84BE84" rx="3" ry="3" style="stroke: #038048; stroke-width: 1.0;"/><text fill="#000000" font-family="sans-serif" font-size="11" lengthAdjust="spacingAndGlyphs" textLength="121" x="385.5" y="640.9189">ResumeController(Game)</text><ellipse cx="376.5" cy="650.3359" fill="#84BE84" rx="3" ry="3" style="stroke: #038048; stroke-width: 1.0;"/><text fill="#000000" font-family="sans-serif" font-size="11" lengthAdjust="spacingAndGlyphs" textLength="84" x="385.5" y="654.7549">newGame(): void</text><!--MD5=[8d3188f3c370ea7d5d91d12bca83b67a]
class tictactoe.models.Game--><rect fill="#FEFECE" filter="url(#fqbrlgzczpx6n)" height="48" id="tictactoe.models.Game" style="stroke: #A80036; stroke-width: 1.5;" width="66" x="699" y="841"/><ellipse cx="714" cy="857" fill="#ADD1B2" rx="11" ry="11" style="stroke: #A80036; stroke-width: 1.0;"/><path d="M716.7656,852.875 Q716.9219,852.6563 717.1094,852.5469 Q717.2969,852.4375 717.5156,852.4375 Q717.8906,852.4375 718.125,852.7031 Q718.3594,852.9531 718.3594,853.5625 L718.3594,855.0156 Q718.3594,855.625 718.125,855.8906 Q717.8906,856.1563 717.5156,856.1563 Q717.1719,856.1563 716.9688,855.9531 Q716.7656,855.7656 716.6563,855.25 Q716.6094,854.8906 716.4219,854.7031 Q716.0938,854.3281 715.4844,854.1094 Q714.875,853.8906 714.25,853.8906 Q713.4844,853.8906 712.8438,854.2188 Q712.2188,854.5469 711.7188,855.2969 Q711.2344,856.0469 711.2344,857.0781 L711.2344,858.1719 Q711.2344,859.4063 712.125,860.2344 Q713.0156,861.0469 714.6094,861.0469 Q715.5469,861.0469 716.2031,860.7969 Q716.5938,860.6406 717.0156,860.2031 Q717.2813,859.9375 717.4219,859.8594 Q717.5781,859.7813 717.7813,859.7813 Q718.1094,859.7813 718.3594,860.0469 Q718.625,860.2969 718.625,860.6406 Q718.625,860.9844 718.2813,861.3906 Q717.7813,861.9688 716.9844,862.2969 Q715.9063,862.75 714.6094,862.75 Q713.0938,862.75 711.8906,862.125 Q710.9063,861.625 710.2188,860.5625 Q709.5313,859.4844 709.5313,858.2031 L709.5313,857.0469 Q709.5313,855.7188 710.1406,854.5781 Q710.7656,853.4219 711.8594,852.8125 Q712.9531,852.1875 714.1875,852.1875 Q714.9219,852.1875 715.5625,852.3594 Q716.2188,852.5156 716.7656,852.875 Z "/><text fill="#000000" font-family="sans-serif" font-size="12" lengthAdjust="spacingAndGlyphs" textLength="34" x="728" y="861.9102">Game</text><line style="stroke: #A80036; stroke-width: 1.5;" x1="700" x2="764" y1="873" y2="873"/><line style="stroke: #A80036; stroke-width: 1.5;" x1="700" x2="764" y1="881" y2="881"/><!--MD5=[55d70ecb9e3ba4786ec1f15d0b7dce13]
class tictactoe.models.Coordinate--><rect fill="#FEFECE" filter="url(#fqbrlgzczpx6n)" height="48" id="tictactoe.models.Coordinate" style="stroke: #A80036; stroke-width: 1.5;" width="93" x="570.5" y="841"/><ellipse cx="585.5" cy="857" fill="#ADD1B2" rx="11" ry="11" style="stroke: #A80036; stroke-width: 1.0;"/><path d="M588.2656,852.875 Q588.4219,852.6563 588.6094,852.5469 Q588.7969,852.4375 589.0156,852.4375 Q589.3906,852.4375 589.625,852.7031 Q589.8594,852.9531 589.8594,853.5625 L589.8594,855.0156 Q589.8594,855.625 589.625,855.8906 Q589.3906,856.1563 589.0156,856.1563 Q588.6719,856.1563 588.4688,855.9531 Q588.2656,855.7656 588.1563,855.25 Q588.1094,854.8906 587.9219,854.7031 Q587.5938,854.3281 586.9844,854.1094 Q586.375,853.8906 585.75,853.8906 Q584.9844,853.8906 584.3438,854.2188 Q583.7188,854.5469 583.2188,855.2969 Q582.7344,856.0469 582.7344,857.0781 L582.7344,858.1719 Q582.7344,859.4063 583.625,860.2344 Q584.5156,861.0469 586.1094,861.0469 Q587.0469,861.0469 587.7031,860.7969 Q588.0938,860.6406 588.5156,860.2031 Q588.7813,859.9375 588.9219,859.8594 Q589.0781,859.7813 589.2813,859.7813 Q589.6094,859.7813 589.8594,860.0469 Q590.125,860.2969 590.125,860.6406 Q590.125,860.9844 589.7813,861.3906 Q589.2813,861.9688 588.4844,862.2969 Q587.4063,862.75 586.1094,862.75 Q584.5938,862.75 583.3906,862.125 Q582.4063,861.625 581.7188,860.5625 Q581.0313,859.4844 581.0313,858.2031 L581.0313,857.0469 Q581.0313,855.7188 581.6406,854.5781 Q582.2656,853.4219 583.3594,852.8125 Q584.4531,852.1875 585.6875,852.1875 Q586.4219,852.1875 587.0625,852.3594 Q587.7188,852.5156 588.2656,852.875 Z "/><text fill="#000000" font-family="sans-serif" font-size="12" lengthAdjust="spacingAndGlyphs" textLength="61" x="599.5" y="861.9102">Coordinate</text><line style="stroke: #A80036; stroke-width: 1.5;" x1="571.5" x2="662.5" y1="873" y2="873"/><line style="stroke: #A80036; stroke-width: 1.5;" x1="571.5" x2="662.5" y1="881" y2="881"/><!--MD5=[67f54059f517de4e17e4f415259fadfa]
link tictactoe.controllers.Controller to tictactoe.models.Game--><path d="M647.745,270.026 C681.823,316.493 736.68,400.069 758,482 C792.361,614.047 780.66,654.45 758,789 C755.309,804.976 749.607,822.0959 744.226,835.9394 " fill="none" id="tictactoe.controllers.Controller-&gt;tictactoe.models.Game" style="stroke: #A80036; stroke-width: 1.0; stroke-dasharray: 7.0,7.0;"/><polygon fill="#A80036" points="742.264,840.8833,749.3016,833.9933,744.1083,836.2359,741.8657,831.0425,742.264,840.8833" style="stroke: #A80036; stroke-width: 1.0;"/><!--MD5=[bf6ea4e22b99b81dd48bbf2eb1cf70e8]
link tictactoe.controllers.Logic to tictactoe.models.Game--><path d="M540.0005,417.2645 C540.0005,417.2645 544.976,420.666 547,422 C606.605,461.29 653.311,424.78 696,482 C774.023,586.581 753.725,754.762 739.887,827.9909 " fill="none" id="tictactoe.controllers.Logic-tictactoe.models.Game" style="stroke: #A80036; stroke-width: 1.0;"/><polygon fill="#A80036" points="737.32,840.9239,742.9957,832.8749,738.2934,836.0196,735.1487,831.3174,737.32,840.9239" style="stroke: #A80036; stroke-width: 1.0;"/><line style="stroke: #A80036; stroke-width: 1.0;" x1="738.2934" x2="739.851" y1="836.0196" y2="828.1727"/><polygon fill="#A80036" points="530.202,410.337,532.7921,417.0669,540.0005,417.2645,537.4104,410.5346,530.202,410.337" style="stroke: #A80036; stroke-width: 1.0;"/><!--MD5=[19457e990bfffed372bd4754e4caf1bd]
link tictactoe.controllers.Logic to tictactoe.controllers.StartController--><path d="M497.1561,431.9744 C497.1561,431.9744 519.683,465.918 530,482 C549.256,512.015 569.642,546.481 585.391,573.765 " fill="none" id="tictactoe.controllers.Logic-tictactoe.controllers.StartController" style="stroke: #A80036; stroke-width: 1.0;"/><polygon fill="#A80036" points="592.06,585.368,591.043,575.5718,589.5684,581.0331,584.1071,579.5584,592.06,585.368" style="stroke: #A80036; stroke-width: 1.0;"/><line style="stroke: #A80036; stroke-width: 1.0;" x1="589.5684" x2="585.582" y1="581.0331" y2="574.0965"/><polygon fill="#A80036" points="490.465,422.013,490.4901,429.2241,497.1561,431.9744,497.131,424.7634,490.465,422.013" style="stroke: #A80036; stroke-width: 1.0;"/><!--MD5=[600c1fe4dddc39bb8e79c6dad4949c4a]
link tictactoe.controllers.Logic to tictactoe.controllers.PlayController--><path d="M266.637,432.9806 C266.637,432.9806 255.268,458.14 249.992,469.816 " fill="none" id="tictactoe.controllers.Logic-tictactoe.controllers.PlayController" style="stroke: #A80036; stroke-width: 1.0;"/><polygon fill="#A80036" points="244.532,481.899,251.8836,475.3451,246.5912,477.3427,244.5935,472.0503,244.532,481.899" style="stroke: #A80036; stroke-width: 1.0;"/><line style="stroke: #A80036; stroke-width: 1.0;" x1="246.5912" x2="249.8855" y1="477.3427" y2="470.052"/><polygon fill="#A80036" points="271.578,422.045,265.4623,425.8658,266.637,432.9806,272.7527,429.1598,271.578,422.045" style="stroke: #A80036; stroke-width: 1.0;"/><!--MD5=[920ecdfcfa8e9a979fd863e951ddfb99]
link tictactoe.controllers.Logic to tictactoe.controllers.ResumeController--><path d="M399.2715,433.7875 C399.2715,433.7875 420.911,536.576 428.433,572.305 " fill="none" id="tictactoe.controllers.Logic-tictactoe.controllers.ResumeController" style="stroke: #A80036; stroke-width: 1.0;"/><polygon fill="#A80036" points="431.156,585.241,433.2158,575.61,430.1258,580.3483,425.3875,577.2583,431.156,585.241" style="stroke: #A80036; stroke-width: 1.0;"/><line style="stroke: #A80036; stroke-width: 1.0;" x1="430.1258" x2="428.4775" y1="580.3483" y2="572.5205"/><polygon fill="#A80036" points="396.799,422.045,394.1211,428.7404,399.2715,433.7875,401.9494,427.0921,396.799,422.045" style="stroke: #A80036; stroke-width: 1.0;"/><!--MD5=[5700b97431232c099330215bddfcc855]
reverse link tictactoe.controllers.Controller to tictactoe.controllers.PlayController--><path d="M610.989,289.959 C602.195,331.935 584.04,387.506 547,422 C479.398,484.956 429.239,438.026 348,482 C342.002,485.247 336.022,488.731 330.087,492.404 " fill="none" id="tictactoe.controllers.Controller&lt;-tictactoe.controllers.PlayController" style="stroke: #A80036; stroke-width: 1.0;"/><polygon fill="none" points="604.158,288.401,614.69,270.014,617.923,290.956,604.158,288.401" style="stroke: #A80036; stroke-width: 1.0;"/><!--MD5=[70aedda6b24476e26c690784403df0dd]
link tictactoe.controllers.PlayController to tictactoe.models.Coordinate--><path d="M312.43,765.041 C323.941,773.837 335.85,781.964 348,789 C417.236,829.0917 508.986,848.6605 565.456,857.506 " fill="none" id="tictactoe.controllers.PlayController-&gt;tictactoe.models.Coordinate" style="stroke: #A80036; stroke-width: 1.0; stroke-dasharray: 7.0,7.0;"/><polygon fill="#A80036" points="570.471,858.2778,562.1851,852.9539,565.5293,857.5164,560.9668,860.8606,570.471,858.2778" style="stroke: #A80036; stroke-width: 1.0;"/><!--MD5=[549c2b0fc6f493adecd03b65ab276634]
reverse link tictactoe.controllers.Controller to tictactoe.controllers.ResumeController--><path d="M599.732,289.279 C586.195,327.28 566.996,378.288 547,422 C520.273,480.426 483.961,545.465 461.001,585.181 " fill="none" id="tictactoe.controllers.Controller&lt;-tictactoe.controllers.ResumeController" style="stroke: #A80036; stroke-width: 1.0;"/><polygon fill="none" points="593.214,286.712,606.454,270.168,606.421,291.357,593.214,286.712" style="stroke: #A80036; stroke-width: 1.0;"/><!--MD5=[5deb1e5c7bf9906a35de112138d88f9c]
reverse link tictactoe.controllers.Controller to tictactoe.controllers.StartController--><path d="M618.116,290.418 C616.868,371.432 614.625,517.009 613.574,585.266 " fill="none" id="tictactoe.controllers.Controller&lt;-tictactoe.controllers.StartController" style="stroke: #A80036; stroke-width: 1.0;"/><polygon fill="none" points="611.117,290.237,618.425,270.347,625.116,290.452,611.117,290.237" style="stroke: #A80036; stroke-width: 1.0;"/><!--MD5=[a147b5137b2a08cb9e40eea2868392e4]
@startuml

class  tictactoe.controllers.Controller{
# game: Game
~ Controller(Game)
}
tictactoe.controllers.Controller ..> tictactoe.models.Game

class  tictactoe.controllers.Logic{
- game: Game
- startController: StartController
- playController: PlayController
- resumeController: ResumeController
+ Logic()
+ createPlayers(): void
+ getTokenPlayerFromTurn(): Player
+ getTypeOfTokenPlayerFromTurn(): PlayerType
+ controlErrorsPutCoordinate(Coordinate): Error
+ controlErrorsMoveOriginCoordinate(Coordinate): Error
+ controlErrorsMoveTargetCoordinate(Coordinate, Coordinate): Error
+ isCoordinateValid(Coordinate): boolean
+ generateRandomCoordinate(): Coordinate
+ isBoardComplete(): boolean
+ putTokenPlayerFromTurn(Coordinate): void
+ moveTokenPlayerFromTurn(Coordinate, Coordinate): void
+ changeTurn(): void
+ getTokenChar(Coordinate): char
+ isEmptyToken(Coordinate): boolean
+ getCoordinateDimension(): int
+ getValueFromTurn(): int
+ isTicTacToe(): boolean
+ getValueFromTurn(): int
+ newGame(): void
}
tictactoe.controllers.Logic *-down-> tictactoe.models.Game
tictactoe.controllers.Logic *-down-> tictactoe.controllers.StartController
tictactoe.controllers.Logic *-down-> tictactoe.controllers.PlayController
tictactoe.controllers.Logic *-down-> tictactoe.controllers.ResumeController

class  tictactoe.controllers.PlayController{
~ PlayController(Game)
~ getTokenPlayerFromTurn(): Player
~ getTypeOfTokenPlayerFromTurn(): PlayerType
~ controlErrorsPutCoordinate(int, int): Error
~ controlErrorsMoveOriginCoordinate(int, int): Error
~ controlErrorsMoveTargetCoordinate(int, int, int, int): Error
~ isCoordinateValid(int, int): boolean
~ generateRandomCoordinate(): int[]
~ isBoardComplete(): boolean
~ putTokenPlayerFromTurn(int, int): void
~ moveTokenPlayerFromTurn(int, int, int, int): void
~ changeTurn(): void
~ getTokenChar(int, int): char
~ isEmptyToken(int, int): boolean
~ getCoordinateDimension(): int
~ getValueFromTurn(): int
~ isTicTacToe(): boolean
}
tictactoe.controllers.Controller <|-down- tictactoe.controllers.PlayController
tictactoe.controllers.PlayController ..> tictactoe.models.Coordinate

class  tictactoe.controllers.ResumeController{
+ ResumeController(Game)
+ newGame(): void
}
tictactoe.controllers.Controller <|-down- tictactoe.controllers.ResumeController

class  tictactoe.controllers.StartController{
~ StartController(Game)
~ createPlayers(): void
}
tictactoe.controllers.Controller <|-down- tictactoe.controllers.StartController

@enduml

PlantUML version 1.2020.15(Sun Jun 28 13:39:45 CEST 2020)
(GPL source distribution)
Java Runtime: Java(TM) SE Runtime Environment
JVM: Java HotSpot(TM) 64-Bit Server VM
Default Encoding: windows-1252
Language: es
Country: ES
--></g></svg>