<?xml version="1.0" encoding="UTF-8" standalone="no"?><svg xmlns="http://www.w3.org/2000/svg" xmlns:xlink="http://www.w3.org/1999/xlink" contentScriptType="application/ecmascript" contentStyleType="text/css" height="600px" preserveAspectRatio="none" style="width:801px;height:600px;" version="1.1" viewBox="0 0 801 600" width="801px" zoomAndPan="magnify"><defs><filter height="300%" id="fxo1939ynq649" width="300%" x="-1" y="-1"><feGaussianBlur result="blurOut" stdDeviation="2.0"/><feColorMatrix in="blurOut" result="blurOut2" type="matrix" values="0 0 0 0 0 0 0 0 0 0 0 0 0 0 0 0 0 0 .4 0"/><feOffset dx="4.0" dy="4.0" in="blurOut2" result="blurOut3"/><feBlend in="SourceGraphic" in2="blurOut3" mode="normal"/></filter></defs><g><!--MD5=[ee7e9a007a7c4d40c0679a27f272732d]
cluster tictactoe.controllers--><polygon fill="#FFFFFF" filter="url(#fxo1939ynq649)" points="16,6,164,6,171,29.6094,715,29.6094,715,464,16,464,16,6" style="stroke: #000000; stroke-width: 1.5;"/><line style="stroke: #000000; stroke-width: 1.5;" x1="16" x2="171" y1="29.6094" y2="29.6094"/><text fill="#000000" font-family="sans-serif" font-size="14" font-weight="bold" lengthAdjust="spacingAndGlyphs" textLength="142" x="20" y="22.5332">tictactoe.controllers</text><!--MD5=[51cd642fcc96b47682a93d9084d46dec]
cluster tictactoe.models--><polygon fill="#FFFFFF" filter="url(#fxo1939ynq649)" points="303,488,425,488,432,511.6094,530,511.6094,530,588,303,588,303,488" style="stroke: #000000; stroke-width: 1.5;"/><line style="stroke: #000000; stroke-width: 1.5;" x1="303" x2="432" y1="511.6094" y2="511.6094"/><text fill="#000000" font-family="sans-serif" font-size="14" font-weight="bold" lengthAdjust="spacingAndGlyphs" textLength="116" x="307" y="504.5332">tictactoe.models</text><!--MD5=[957eef6538bab7382edbc29d98579a60]
class tictactoe.controllers.Controller--><rect fill="#FEFECE" filter="url(#fxo1939ynq649)" height="89.5078" id="tictactoe.controllers.Controller" style="stroke: #A80036; stroke-width: 1.5;" width="113" x="484.5" y="42"/><ellipse cx="511.65" cy="58" fill="#ADD1B2" rx="11" ry="11" style="stroke: #A80036; stroke-width: 1.0;"/><path d="M514.4156,53.875 Q514.5719,53.6563 514.7594,53.5469 Q514.9469,53.4375 515.1656,53.4375 Q515.5406,53.4375 515.775,53.7031 Q516.0094,53.9531 516.0094,54.5625 L516.0094,56.0156 Q516.0094,56.625 515.775,56.8906 Q515.5406,57.1563 515.1656,57.1563 Q514.8219,57.1563 514.6188,56.9531 Q514.4156,56.7656 514.3063,56.25 Q514.2594,55.8906 514.0719,55.7031 Q513.7438,55.3281 513.1344,55.1094 Q512.525,54.8906 511.9,54.8906 Q511.1344,54.8906 510.4938,55.2188 Q509.8688,55.5469 509.3688,56.2969 Q508.8844,57.0469 508.8844,58.0781 L508.8844,59.1719 Q508.8844,60.4063 509.775,61.2344 Q510.6656,62.0469 512.2594,62.0469 Q513.1969,62.0469 513.8531,61.7969 Q514.2438,61.6406 514.6656,61.2031 Q514.9313,60.9375 515.0719,60.8594 Q515.2281,60.7813 515.4313,60.7813 Q515.7594,60.7813 516.0094,61.0469 Q516.275,61.2969 516.275,61.6406 Q516.275,61.9844 515.9313,62.3906 Q515.4313,62.9688 514.6344,63.2969 Q513.5563,63.75 512.2594,63.75 Q510.7438,63.75 509.5406,63.125 Q508.5563,62.625 507.8688,61.5625 Q507.1813,60.4844 507.1813,59.2031 L507.1813,58.0469 Q507.1813,56.7188 507.7906,55.5781 Q508.4156,54.4219 509.5094,53.8125 Q510.6031,53.1875 511.8375,53.1875 Q512.5719,53.1875 513.2125,53.3594 Q513.8688,53.5156 514.4156,53.875 Z "/><text fill="#000000" font-family="sans-serif" font-size="12" lengthAdjust="spacingAndGlyphs" textLength="54" x="528.35" y="62.9102">Controller</text><line style="stroke: #A80036; stroke-width: 1.5;" x1="485.5" x2="596.5" y1="74" y2="74"/><polygon fill="none" points="495.5,80,499.5,84,495.5,88,491.5,84" style="stroke: #B38D22; stroke-width: 1.0;"/><text fill="#000000" font-family="sans-serif" font-size="11" lengthAdjust="spacingAndGlyphs" textLength="60" x="504.5" y="89.4189">game: Game</text><line style="stroke: #A80036; stroke-width: 1.5;" x1="485.5" x2="596.5" y1="95.8359" y2="95.8359"/><polygon fill="#4177AF" points="495.5,102.8359,491.5,108.8359,499.5,108.8359" style="stroke: #1963A0; stroke-width: 1.0;"/><text fill="#000000" font-family="sans-serif" font-size="11" lengthAdjust="spacingAndGlyphs" textLength="82" x="504.5" y="111.2549">Controller(Game)</text><ellipse cx="495.5" cy="120.6719" fill="#84BE84" rx="3" ry="3" style="stroke: #038048; stroke-width: 1.0;"/><text fill="#000000" font-family="sans-serif" font-size="11" lengthAdjust="spacingAndGlyphs" textLength="87" x="504.5" y="125.0908">getBoard(): Board</text><!--MD5=[b574e60c06c50037ff1b014277a67d62]
class tictactoe.controllers.PlayController--><rect fill="#FEFECE" filter="url(#fxo1939ynq649)" height="255.5391" id="tictactoe.controllers.PlayController" style="stroke: #A80036; stroke-width: 1.5;" width="298" x="32" y="192"/><ellipse cx="138.25" cy="208" fill="#ADD1B2" rx="11" ry="11" style="stroke: #A80036; stroke-width: 1.0;"/><path d="M141.0156,203.875 Q141.1719,203.6563 141.3594,203.5469 Q141.5469,203.4375 141.7656,203.4375 Q142.1406,203.4375 142.375,203.7031 Q142.6094,203.9531 142.6094,204.5625 L142.6094,206.0156 Q142.6094,206.625 142.375,206.8906 Q142.1406,207.1563 141.7656,207.1563 Q141.4219,207.1563 141.2188,206.9531 Q141.0156,206.7656 140.9063,206.25 Q140.8594,205.8906 140.6719,205.7031 Q140.3438,205.3281 139.7344,205.1094 Q139.125,204.8906 138.5,204.8906 Q137.7344,204.8906 137.0938,205.2188 Q136.4688,205.5469 135.9688,206.2969 Q135.4844,207.0469 135.4844,208.0781 L135.4844,209.1719 Q135.4844,210.4063 136.375,211.2344 Q137.2656,212.0469 138.8594,212.0469 Q139.7969,212.0469 140.4531,211.7969 Q140.8438,211.6406 141.2656,211.2031 Q141.5313,210.9375 141.6719,210.8594 Q141.8281,210.7813 142.0313,210.7813 Q142.3594,210.7813 142.6094,211.0469 Q142.875,211.2969 142.875,211.6406 Q142.875,211.9844 142.5313,212.3906 Q142.0313,212.9688 141.2344,213.2969 Q140.1563,213.75 138.8594,213.75 Q137.3438,213.75 136.1406,213.125 Q135.1563,212.625 134.4688,211.5625 Q133.7813,210.4844 133.7813,209.2031 L133.7813,208.0469 Q133.7813,206.7188 134.3906,205.5781 Q135.0156,204.4219 136.1094,203.8125 Q137.2031,203.1875 138.4375,203.1875 Q139.1719,203.1875 139.8125,203.3594 Q140.4688,203.5156 141.0156,203.875 Z "/><text fill="#000000" font-family="sans-serif" font-size="12" lengthAdjust="spacingAndGlyphs" textLength="77" x="158.75" y="212.9102">PlayController</text><line style="stroke: #A80036; stroke-width: 1.5;" x1="33" x2="329" y1="224" y2="224"/><line style="stroke: #A80036; stroke-width: 1.5;" x1="33" x2="329" y1="232" y2="232"/><ellipse cx="43" cy="243" fill="#84BE84" rx="3" ry="3" style="stroke: #038048; stroke-width: 1.0;"/><text fill="#000000" font-family="sans-serif" font-size="11" lengthAdjust="spacingAndGlyphs" textLength="102" x="52" y="247.4189">PlayController(Game)</text><ellipse cx="43" cy="256.8359" fill="#84BE84" rx="3" ry="3" style="stroke: #038048; stroke-width: 1.0;"/><text fill="#000000" font-family="sans-serif" font-size="11" lengthAdjust="spacingAndGlyphs" textLength="164" x="52" y="261.2549">getTokenPlayerFromTurn(): Player</text><ellipse cx="43" cy="270.6719" fill="#84BE84" rx="3" ry="3" style="stroke: #038048; stroke-width: 1.0;"/><text fill="#000000" font-family="sans-serif" font-size="11" lengthAdjust="spacingAndGlyphs" textLength="224" x="52" y="275.0908">getTypeOfTokenPlayerFromTurn(): PlayerType</text><ellipse cx="43" cy="284.5078" fill="#84BE84" rx="3" ry="3" style="stroke: #038048; stroke-width: 1.0;"/><text fill="#000000" font-family="sans-serif" font-size="11" lengthAdjust="spacingAndGlyphs" textLength="196" x="52" y="288.9268">controlErrorsPutCoordinate(int, int): Error</text><ellipse cx="43" cy="298.3438" fill="#84BE84" rx="3" ry="3" style="stroke: #038048; stroke-width: 1.0;"/><text fill="#000000" font-family="sans-serif" font-size="11" lengthAdjust="spacingAndGlyphs" textLength="235" x="52" y="302.7627">controlErrorsMoveOriginCoordinate(int, int): Error</text><ellipse cx="43" cy="312.1797" fill="#84BE84" rx="3" ry="3" style="stroke: #038048; stroke-width: 1.0;"/><text fill="#000000" font-family="sans-serif" font-size="11" lengthAdjust="spacingAndGlyphs" textLength="272" x="52" y="316.5986">controlErrorsMoveTargetCoordinate(int, int, int, int): Error</text><ellipse cx="43" cy="326.0156" fill="#84BE84" rx="3" ry="3" style="stroke: #038048; stroke-width: 1.0;"/><text fill="#000000" font-family="sans-serif" font-size="11" lengthAdjust="spacingAndGlyphs" textLength="164" x="52" y="330.4346">isCoordinateValid(int, int): boolean</text><ellipse cx="43" cy="339.8516" fill="#84BE84" rx="3" ry="3" style="stroke: #038048; stroke-width: 1.0;"/><text fill="#000000" font-family="sans-serif" font-size="11" lengthAdjust="spacingAndGlyphs" textLength="165" x="52" y="344.2705">generateRandomCoordinate(): int[]</text><ellipse cx="43" cy="353.6875" fill="#84BE84" rx="3" ry="3" style="stroke: #038048; stroke-width: 1.0;"/><text fill="#000000" font-family="sans-serif" font-size="11" lengthAdjust="spacingAndGlyphs" textLength="133" x="52" y="358.1064">isBoardComplete(): boolean</text><ellipse cx="43" cy="367.5234" fill="#84BE84" rx="3" ry="3" style="stroke: #038048; stroke-width: 1.0;"/><text fill="#000000" font-family="sans-serif" font-size="11" lengthAdjust="spacingAndGlyphs" textLength="182" x="52" y="371.9424">putTokenPlayerFromTurn(int, int): void</text><ellipse cx="43" cy="381.3594" fill="#84BE84" rx="3" ry="3" style="stroke: #038048; stroke-width: 1.0;"/><text fill="#000000" font-family="sans-serif" font-size="11" lengthAdjust="spacingAndGlyphs" textLength="227" x="52" y="385.7783">moveTokenPlayerFromTurn(int, int, int, int): void</text><ellipse cx="43" cy="395.1953" fill="#84BE84" rx="3" ry="3" style="stroke: #038048; stroke-width: 1.0;"/><text fill="#000000" font-family="sans-serif" font-size="11" lengthAdjust="spacingAndGlyphs" textLength="92" x="52" y="399.6143">changeTurn(): void</text><ellipse cx="43" cy="409.0313" fill="#84BE84" rx="3" ry="3" style="stroke: #038048; stroke-width: 1.0;"/><text fill="#000000" font-family="sans-serif" font-size="11" lengthAdjust="spacingAndGlyphs" textLength="115" x="52" y="413.4502">getToken(int, int): Token</text><ellipse cx="43" cy="422.8672" fill="#84BE84" rx="3" ry="3" style="stroke: #038048; stroke-width: 1.0;"/><text fill="#000000" font-family="sans-serif" font-size="11" lengthAdjust="spacingAndGlyphs" textLength="141" x="52" y="427.2861">getCoordinateDimension(): int</text><ellipse cx="43" cy="436.7031" fill="#84BE84" rx="3" ry="3" style="stroke: #038048; stroke-width: 1.0;"/><text fill="#000000" font-family="sans-serif" font-size="11" lengthAdjust="spacingAndGlyphs" textLength="110" x="52" y="441.1221">isTicTacToe(): boolean</text><!--MD5=[2c3ef77d19c2424f55dfd6db4f13e20e]
class tictactoe.controllers.ResultController--><rect fill="#FEFECE" filter="url(#fxo1939ynq649)" height="75.6719" id="tictactoe.controllers.ResultController" style="stroke: #A80036; stroke-width: 1.5;" width="167" x="365.5" y="282"/><ellipse cx="400.75" cy="298" fill="#ADD1B2" rx="11" ry="11" style="stroke: #A80036; stroke-width: 1.0;"/><path d="M403.5156,293.875 Q403.6719,293.6563 403.8594,293.5469 Q404.0469,293.4375 404.2656,293.4375 Q404.6406,293.4375 404.875,293.7031 Q405.1094,293.9531 405.1094,294.5625 L405.1094,296.0156 Q405.1094,296.625 404.875,296.8906 Q404.6406,297.1563 404.2656,297.1563 Q403.9219,297.1563 403.7188,296.9531 Q403.5156,296.7656 403.4063,296.25 Q403.3594,295.8906 403.1719,295.7031 Q402.8438,295.3281 402.2344,295.1094 Q401.625,294.8906 401,294.8906 Q400.2344,294.8906 399.5938,295.2188 Q398.9688,295.5469 398.4688,296.2969 Q397.9844,297.0469 397.9844,298.0781 L397.9844,299.1719 Q397.9844,300.4063 398.875,301.2344 Q399.7656,302.0469 401.3594,302.0469 Q402.2969,302.0469 402.9531,301.7969 Q403.3438,301.6406 403.7656,301.2031 Q404.0313,300.9375 404.1719,300.8594 Q404.3281,300.7813 404.5313,300.7813 Q404.8594,300.7813 405.1094,301.0469 Q405.375,301.2969 405.375,301.6406 Q405.375,301.9844 405.0313,302.3906 Q404.5313,302.9688 403.7344,303.2969 Q402.6563,303.75 401.3594,303.75 Q399.8438,303.75 398.6406,303.125 Q397.6563,302.625 396.9688,301.5625 Q396.2813,300.4844 396.2813,299.2031 L396.2813,298.0469 Q396.2813,296.7188 396.8906,295.5781 Q397.5156,294.4219 398.6094,293.8125 Q399.7031,293.1875 400.9375,293.1875 Q401.6719,293.1875 402.3125,293.3594 Q402.9688,293.5156 403.5156,293.875 Z "/><text fill="#000000" font-family="sans-serif" font-size="12" lengthAdjust="spacingAndGlyphs" textLength="90" x="419.25" y="302.9102">ResultController</text><line style="stroke: #A80036; stroke-width: 1.5;" x1="366.5" x2="531.5" y1="314" y2="314"/><line style="stroke: #A80036; stroke-width: 1.5;" x1="366.5" x2="531.5" y1="322" y2="322"/><ellipse cx="376.5" cy="333" fill="#84BE84" rx="3" ry="3" style="stroke: #038048; stroke-width: 1.0;"/><text fill="#000000" font-family="sans-serif" font-size="11" lengthAdjust="spacingAndGlyphs" textLength="112" x="385.5" y="337.4189">ResultController(Game)</text><ellipse cx="376.5" cy="346.8359" fill="#84BE84" rx="3" ry="3" style="stroke: #038048; stroke-width: 1.0;"/><text fill="#000000" font-family="sans-serif" font-size="11" lengthAdjust="spacingAndGlyphs" textLength="141" x="385.5" y="351.2549">getOtherValueFromTurn(): int</text><!--MD5=[8ede4dbfb3b498095887802b64b699f0]
class tictactoe.controllers.StartController--><rect fill="#FEFECE" filter="url(#fxo1939ynq649)" height="75.6719" id="tictactoe.controllers.StartController" style="stroke: #A80036; stroke-width: 1.5;" width="131" x="567.5" y="282"/><ellipse cx="591.5" cy="298" fill="#ADD1B2" rx="11" ry="11" style="stroke: #A80036; stroke-width: 1.0;"/><path d="M594.2656,293.875 Q594.4219,293.6563 594.6094,293.5469 Q594.7969,293.4375 595.0156,293.4375 Q595.3906,293.4375 595.625,293.7031 Q595.8594,293.9531 595.8594,294.5625 L595.8594,296.0156 Q595.8594,296.625 595.625,296.8906 Q595.3906,297.1563 595.0156,297.1563 Q594.6719,297.1563 594.4688,296.9531 Q594.2656,296.7656 594.1563,296.25 Q594.1094,295.8906 593.9219,295.7031 Q593.5938,295.3281 592.9844,295.1094 Q592.375,294.8906 591.75,294.8906 Q590.9844,294.8906 590.3438,295.2188 Q589.7188,295.5469 589.2188,296.2969 Q588.7344,297.0469 588.7344,298.0781 L588.7344,299.1719 Q588.7344,300.4063 589.625,301.2344 Q590.5156,302.0469 592.1094,302.0469 Q593.0469,302.0469 593.7031,301.7969 Q594.0938,301.6406 594.5156,301.2031 Q594.7813,300.9375 594.9219,300.8594 Q595.0781,300.7813 595.2813,300.7813 Q595.6094,300.7813 595.8594,301.0469 Q596.125,301.2969 596.125,301.6406 Q596.125,301.9844 595.7813,302.3906 Q595.2813,302.9688 594.4844,303.2969 Q593.4063,303.75 592.1094,303.75 Q590.5938,303.75 589.3906,303.125 Q588.4063,302.625 587.7188,301.5625 Q587.0313,300.4844 587.0313,299.2031 L587.0313,298.0469 Q587.0313,296.7188 587.6406,295.5781 Q588.2656,294.4219 589.3594,293.8125 Q590.4531,293.1875 591.6875,293.1875 Q592.4219,293.1875 593.0625,293.3594 Q593.7188,293.5156 594.2656,293.875 Z "/><text fill="#000000" font-family="sans-serif" font-size="12" lengthAdjust="spacingAndGlyphs" textLength="79" x="607.5" y="302.9102">StartController</text><line style="stroke: #A80036; stroke-width: 1.5;" x1="568.5" x2="697.5" y1="314" y2="314"/><line style="stroke: #A80036; stroke-width: 1.5;" x1="568.5" x2="697.5" y1="322" y2="322"/><ellipse cx="578.5" cy="333" fill="#84BE84" rx="3" ry="3" style="stroke: #038048; stroke-width: 1.0;"/><text fill="#000000" font-family="sans-serif" font-size="11" lengthAdjust="spacingAndGlyphs" textLength="105" x="587.5" y="337.4189">StartController(Game)</text><ellipse cx="578.5" cy="346.8359" fill="#84BE84" rx="3" ry="3" style="stroke: #038048; stroke-width: 1.0;"/><text fill="#000000" font-family="sans-serif" font-size="11" lengthAdjust="spacingAndGlyphs" textLength="101" x="587.5" y="351.2549">createPlayers(): void</text><!--MD5=[8d3188f3c370ea7d5d91d12bca83b67a]
class tictactoe.models.Game--><rect fill="#FEFECE" filter="url(#fxo1939ynq649)" height="48" id="tictactoe.models.Game" style="stroke: #A80036; stroke-width: 1.5;" width="66" x="448" y="524"/><ellipse cx="463" cy="540" fill="#ADD1B2" rx="11" ry="11" style="stroke: #A80036; stroke-width: 1.0;"/><path d="M465.7656,535.875 Q465.9219,535.6563 466.1094,535.5469 Q466.2969,535.4375 466.5156,535.4375 Q466.8906,535.4375 467.125,535.7031 Q467.3594,535.9531 467.3594,536.5625 L467.3594,538.0156 Q467.3594,538.625 467.125,538.8906 Q466.8906,539.1563 466.5156,539.1563 Q466.1719,539.1563 465.9688,538.9531 Q465.7656,538.7656 465.6563,538.25 Q465.6094,537.8906 465.4219,537.7031 Q465.0938,537.3281 464.4844,537.1094 Q463.875,536.8906 463.25,536.8906 Q462.4844,536.8906 461.8438,537.2188 Q461.2188,537.5469 460.7188,538.2969 Q460.2344,539.0469 460.2344,540.0781 L460.2344,541.1719 Q460.2344,542.4063 461.125,543.2344 Q462.0156,544.0469 463.6094,544.0469 Q464.5469,544.0469 465.2031,543.7969 Q465.5938,543.6406 466.0156,543.2031 Q466.2813,542.9375 466.4219,542.8594 Q466.5781,542.7813 466.7813,542.7813 Q467.1094,542.7813 467.3594,543.0469 Q467.625,543.2969 467.625,543.6406 Q467.625,543.9844 467.2813,544.3906 Q466.7813,544.9688 465.9844,545.2969 Q464.9063,545.75 463.6094,545.75 Q462.0938,545.75 460.8906,545.125 Q459.9063,544.625 459.2188,543.5625 Q458.5313,542.4844 458.5313,541.2031 L458.5313,540.0469 Q458.5313,538.7188 459.1406,537.5781 Q459.7656,536.4219 460.8594,535.8125 Q461.9531,535.1875 463.1875,535.1875 Q463.9219,535.1875 464.5625,535.3594 Q465.2188,535.5156 465.7656,535.875 Z "/><text fill="#000000" font-family="sans-serif" font-size="12" lengthAdjust="spacingAndGlyphs" textLength="34" x="477" y="544.9102">Game</text><line style="stroke: #A80036; stroke-width: 1.5;" x1="449" x2="513" y1="556" y2="556"/><line style="stroke: #A80036; stroke-width: 1.5;" x1="449" x2="513" y1="564" y2="564"/><!--MD5=[55d70ecb9e3ba4786ec1f15d0b7dce13]
class tictactoe.models.Coordinate--><rect fill="#FEFECE" filter="url(#fxo1939ynq649)" height="48" id="tictactoe.models.Coordinate" style="stroke: #A80036; stroke-width: 1.5;" width="93" x="319.5" y="524"/><ellipse cx="334.5" cy="540" fill="#ADD1B2" rx="11" ry="11" style="stroke: #A80036; stroke-width: 1.0;"/><path d="M337.2656,535.875 Q337.4219,535.6563 337.6094,535.5469 Q337.7969,535.4375 338.0156,535.4375 Q338.3906,535.4375 338.625,535.7031 Q338.8594,535.9531 338.8594,536.5625 L338.8594,538.0156 Q338.8594,538.625 338.625,538.8906 Q338.3906,539.1563 338.0156,539.1563 Q337.6719,539.1563 337.4688,538.9531 Q337.2656,538.7656 337.1563,538.25 Q337.1094,537.8906 336.9219,537.7031 Q336.5938,537.3281 335.9844,537.1094 Q335.375,536.8906 334.75,536.8906 Q333.9844,536.8906 333.3438,537.2188 Q332.7188,537.5469 332.2188,538.2969 Q331.7344,539.0469 331.7344,540.0781 L331.7344,541.1719 Q331.7344,542.4063 332.625,543.2344 Q333.5156,544.0469 335.1094,544.0469 Q336.0469,544.0469 336.7031,543.7969 Q337.0938,543.6406 337.5156,543.2031 Q337.7813,542.9375 337.9219,542.8594 Q338.0781,542.7813 338.2813,542.7813 Q338.6094,542.7813 338.8594,543.0469 Q339.125,543.2969 339.125,543.6406 Q339.125,543.9844 338.7813,544.3906 Q338.2813,544.9688 337.4844,545.2969 Q336.4063,545.75 335.1094,545.75 Q333.5938,545.75 332.3906,545.125 Q331.4063,544.625 330.7188,543.5625 Q330.0313,542.4844 330.0313,541.2031 L330.0313,540.0469 Q330.0313,538.7188 330.6406,537.5781 Q331.2656,536.4219 332.3594,535.8125 Q333.4531,535.1875 334.6875,535.1875 Q335.4219,535.1875 336.0625,535.3594 Q336.7188,535.5156 337.2656,535.875 Z "/><text fill="#000000" font-family="sans-serif" font-size="12" lengthAdjust="spacingAndGlyphs" textLength="61" x="348.5" y="544.9102">Coordinate</text><line style="stroke: #A80036; stroke-width: 1.5;" x1="320.5" x2="411.5" y1="556" y2="556"/><line style="stroke: #A80036; stroke-width: 1.5;" x1="320.5" x2="411.5" y1="564" y2="564"/><!--MD5=[67f54059f517de4e17e4f415259fadfa]
link tictactoe.controllers.Controller to tictactoe.models.Game--><path d="M597.727,104.901 C638.607,120.389 690.832,147.766 716,192 C777.542,300.162 789.41,371.514 716,472 C670.724,533.9757 573.667,545.9341 519.52,547.5322 " fill="none" id="tictactoe.controllers.Controller-&gt;tictactoe.models.Game" style="stroke: #A80036; stroke-width: 1.0; stroke-dasharray: 7.0,7.0;"/><polygon fill="#A80036" points="514.417,547.6559,523.5115,551.4362,519.4155,547.5345,523.3172,543.4385,514.417,547.6559" style="stroke: #A80036; stroke-width: 1.0;"/><!--MD5=[5700b97431232c099330215bddfcc855]
reverse link tictactoe.controllers.Controller to tictactoe.controllers.PlayController--><path d="M466.327,124.779 C429.872,143.597 385.827,167.636 348,192 C342.182,195.747 336.307,199.638 330.417,203.63 " fill="none" id="tictactoe.controllers.Controller&lt;-tictactoe.controllers.PlayController" style="stroke: #A80036; stroke-width: 1.0;"/><polygon fill="none" points="463.361,118.434,484.357,115.575,469.726,130.903,463.361,118.434" style="stroke: #A80036; stroke-width: 1.0;"/><!--MD5=[70aedda6b24476e26c690784403df0dd]
link tictactoe.controllers.PlayController to tictactoe.models.Coordinate--><path d="M285.125,448.202 C307.277,475.263 328.525,501.22 343.678,519.7316 " fill="none" id="tictactoe.controllers.PlayController-&gt;tictactoe.models.Coordinate" style="stroke: #A80036; stroke-width: 1.0; stroke-dasharray: 7.0,7.0;"/><polygon fill="#A80036" points="347.01,523.8012,344.4038,514.3034,343.8426,519.9324,338.2137,519.3712,347.01,523.8012" style="stroke: #A80036; stroke-width: 1.0;"/><!--MD5=[8f435ed2c59169c4603cda7b7477fe61]
reverse link tictactoe.controllers.Controller to tictactoe.controllers.ResultController--><path d="M515.957,150.881 C499.264,192.794 477.889,246.464 463.837,281.747 " fill="none" id="tictactoe.controllers.Controller&lt;-tictactoe.controllers.ResultController" style="stroke: #A80036; stroke-width: 1.0;"/><polygon fill="none" points="509.467,148.256,523.37,132.266,522.473,153.436,509.467,148.256" style="stroke: #A80036; stroke-width: 1.0;"/><!--MD5=[5deb1e5c7bf9906a35de112138d88f9c]
reverse link tictactoe.controllers.Controller to tictactoe.controllers.StartController--><path d="M566.043,150.881 C582.736,192.794 604.111,246.464 618.163,281.747 " fill="none" id="tictactoe.controllers.Controller&lt;-tictactoe.controllers.StartController" style="stroke: #A80036; stroke-width: 1.0;"/><polygon fill="none" points="559.527,153.436,558.63,132.266,572.533,148.256,559.527,153.436" style="stroke: #A80036; stroke-width: 1.0;"/><!--MD5=[179646f7cf153f7b24d93a53ba889c2d]
@startuml

class  tictactoe.controllers.Controller{
# game: Game
~ Controller(Game)
+ getBoard(): Board
}
tictactoe.controllers.Controller ..> tictactoe.models.Game

class  tictactoe.controllers.PlayController{
+ PlayController(Game)
+ getTokenPlayerFromTurn(): Player
+ getTypeOfTokenPlayerFromTurn(): PlayerType
+ controlErrorsPutCoordinate(int, int): Error
+ controlErrorsMoveOriginCoordinate(int, int): Error
+ controlErrorsMoveTargetCoordinate(int, int, int, int): Error
+ isCoordinateValid(int, int): boolean
+ generateRandomCoordinate(): int[]
+ isBoardComplete(): boolean
+ putTokenPlayerFromTurn(int, int): void
+ moveTokenPlayerFromTurn(int, int, int, int): void
+ changeTurn(): void
+ getToken(int, int): Token
+ getCoordinateDimension(): int
+ isTicTacToe(): boolean
}
tictactoe.controllers.Controller <|-down- tictactoe.controllers.PlayController
tictactoe.controllers.PlayController ..> tictactoe.models.Coordinate

class  tictactoe.controllers.ResultController{
+ ResultController(Game)
+ getOtherValueFromTurn(): int
}
tictactoe.controllers.Controller <|-down- tictactoe.controllers.ResultController

class  tictactoe.controllers.StartController{
+ StartController(Game)
+ createPlayers(): void
}
tictactoe.controllers.Controller <|-down- tictactoe.controllers.StartController

@enduml

PlantUML version 1.2020.15(Sun Jun 28 13:39:45 CEST 2020)
(GPL source distribution)
Java Runtime: Java(TM) SE Runtime Environment
JVM: Java HotSpot(TM) 64-Bit Server VM
Default Encoding: windows-1252
Language: es
Country: ES
--></g></svg>