<?xml version="1.0" encoding="UTF-8" standalone="no"?><svg xmlns="http://www.w3.org/2000/svg" xmlns:xlink="http://www.w3.org/1999/xlink" contentScriptType="application/ecmascript" contentStyleType="text/css" height="766px" preserveAspectRatio="none" style="width:1802px;height:766px;" version="1.1" viewBox="0 0 1802 766" width="1802px" zoomAndPan="magnify"><defs><filter height="300%" id="f1t7o6tfff7zxg" width="300%" x="-1" y="-1"><feGaussianBlur result="blurOut" stdDeviation="2.0"/><feColorMatrix in="blurOut" result="blurOut2" type="matrix" values="0 0 0 0 0 0 0 0 0 0 0 0 0 0 0 0 0 0 .4 0"/><feOffset dx="4.0" dy="4.0" in="blurOut2" result="blurOut3"/><feBlend in="SourceGraphic" in2="blurOut3" mode="normal"/></filter></defs><g><!--MD5=[f4e83a21a957c5b9ba9691e6361db36b]
cluster tictactoe.views--><polygon fill="#FFFFFF" filter="url(#f1t7o6tfff7zxg)" points="16,64.312,128,64.312,135,87.9214,1328,87.9214,1328,754.312,16,754.312,16,64.312" style="stroke: #000000; stroke-width: 1.5;"/><line style="stroke: #000000; stroke-width: 1.5;" x1="16" x2="135" y1="87.9214" y2="87.9214"/><text fill="#000000" font-family="sans-serif" font-size="14" font-weight="bold" lengthAdjust="spacingAndGlyphs" textLength="106" x="20" y="80.8452">tictactoe.views</text><!--MD5=[c52f45833d539af9e29a9d34b8b7302b]
cluster utils--><polygon fill="#FFFFFF" filter="url(#f1t7o6tfff7zxg)" points="1352,112.812,1388,112.812,1395,136.4214,1780,136.4214,1780,212.812,1352,212.812,1352,112.812" style="stroke: #000000; stroke-width: 1.5;"/><line style="stroke: #000000; stroke-width: 1.5;" x1="1352" x2="1395" y1="136.4214" y2="136.4214"/><text fill="#000000" font-family="sans-serif" font-size="14" font-weight="bold" lengthAdjust="spacingAndGlyphs" textLength="30" x="1356" y="129.3452">utils</text><!--MD5=[edeafd8e862636cda68e6fb1f68b81b5]
class tictactoe.views.BoardView--><rect fill="#FEFECE" filter="url(#f1t7o6tfff7zxg)" height="75.6719" id="tictactoe.views.BoardView" style="stroke: #A80036; stroke-width: 1.5;" width="93" x="815.5" y="312.312"/><ellipse cx="831.4" cy="328.312" fill="#ADD1B2" rx="11" ry="11" style="stroke: #A80036; stroke-width: 1.0;"/><path d="M834.1656,324.187 Q834.3219,323.9683 834.5094,323.8589 Q834.6969,323.7495 834.9156,323.7495 Q835.2906,323.7495 835.525,324.0151 Q835.7594,324.2651 835.7594,324.8745 L835.7594,326.3276 Q835.7594,326.937 835.525,327.2026 Q835.2906,327.4683 834.9156,327.4683 Q834.5719,327.4683 834.3688,327.2651 Q834.1656,327.0776 834.0563,326.562 Q834.0094,326.2026 833.8219,326.0151 Q833.4938,325.6401 832.8844,325.4214 Q832.275,325.2026 831.65,325.2026 Q830.8844,325.2026 830.2438,325.5308 Q829.6188,325.8589 829.1188,326.6089 Q828.6344,327.3589 828.6344,328.3901 L828.6344,329.4839 Q828.6344,330.7183 829.525,331.5464 Q830.4156,332.3589 832.0094,332.3589 Q832.9469,332.3589 833.6031,332.1089 Q833.9938,331.9526 834.4156,331.5151 Q834.6813,331.2495 834.8219,331.1714 Q834.9781,331.0933 835.1813,331.0933 Q835.5094,331.0933 835.7594,331.3589 Q836.025,331.6089 836.025,331.9526 Q836.025,332.2964 835.6813,332.7026 Q835.1813,333.2808 834.3844,333.6089 Q833.3063,334.062 832.0094,334.062 Q830.4938,334.062 829.2906,333.437 Q828.3063,332.937 827.6188,331.8745 Q826.9313,330.7964 826.9313,329.5151 L826.9313,328.3589 Q826.9313,327.0308 827.5406,325.8901 Q828.1656,324.7339 829.2594,324.1245 Q830.3531,323.4995 831.5875,323.4995 Q832.3219,323.4995 832.9625,323.6714 Q833.6188,323.8276 834.1656,324.187 Z "/><text fill="#000000" font-family="sans-serif" font-size="12" lengthAdjust="spacingAndGlyphs" textLength="59" x="845.6" y="333.2222">BoardView</text><line style="stroke: #A80036; stroke-width: 1.5;" x1="816.5" x2="907.5" y1="344.312" y2="344.312"/><line style="stroke: #A80036; stroke-width: 1.5;" x1="816.5" x2="907.5" y1="352.312" y2="352.312"/><polygon fill="#4177AF" points="826.5,359.312,822.5,365.312,830.5,365.312" style="stroke: #1963A0; stroke-width: 1.0;"/><text fill="#000000" font-family="sans-serif" font-size="11" lengthAdjust="spacingAndGlyphs" textLength="59" x="835.5" y="367.7309">write(): void</text><polygon fill="#4177AF" points="826.5,373.1479,822.5,379.1479,830.5,379.1479" style="stroke: #1963A0; stroke-width: 1.0;"/><text fill="#000000" font-family="sans-serif" font-size="11" lengthAdjust="spacingAndGlyphs" textLength="67" x="835.5" y="381.5669">writeln(): void</text><!--MD5=[51472c2df310eda0175206e4eb03bedf]
class tictactoe.views.Command--><rect fill="#FEFECE" filter="url(#f1t7o6tfff7zxg)" height="61.8359" id="tictactoe.views.Command" style="stroke: #A80036; stroke-width: 1.5;" width="142" x="339" y="141.812"/><ellipse cx="376.95" cy="157.812" fill="#ADD1B2" rx="11" ry="11" style="stroke: #A80036; stroke-width: 1.0;"/><path d="M379.7156,153.687 Q379.8719,153.4683 380.0594,153.3589 Q380.2469,153.2495 380.4656,153.2495 Q380.8406,153.2495 381.075,153.5151 Q381.3094,153.7651 381.3094,154.3745 L381.3094,155.8276 Q381.3094,156.437 381.075,156.7026 Q380.8406,156.9683 380.4656,156.9683 Q380.1219,156.9683 379.9188,156.7651 Q379.7156,156.5776 379.6063,156.062 Q379.5594,155.7026 379.3719,155.5151 Q379.0438,155.1401 378.4344,154.9214 Q377.825,154.7026 377.2,154.7026 Q376.4344,154.7026 375.7938,155.0308 Q375.1688,155.3589 374.6688,156.1089 Q374.1844,156.8589 374.1844,157.8901 L374.1844,158.9839 Q374.1844,160.2183 375.075,161.0464 Q375.9656,161.8589 377.5594,161.8589 Q378.4969,161.8589 379.1531,161.6089 Q379.5438,161.4526 379.9656,161.0151 Q380.2313,160.7495 380.3719,160.6714 Q380.5281,160.5933 380.7313,160.5933 Q381.0594,160.5933 381.3094,160.8589 Q381.575,161.1089 381.575,161.4526 Q381.575,161.7964 381.2313,162.2026 Q380.7313,162.7808 379.9344,163.1089 Q378.8563,163.562 377.5594,163.562 Q376.0438,163.562 374.8406,162.937 Q373.8563,162.437 373.1688,161.3745 Q372.4813,160.2964 372.4813,159.0151 L372.4813,157.8589 Q372.4813,156.5308 373.0906,155.3901 Q373.7156,154.2339 374.8094,153.6245 Q375.9031,152.9995 377.1375,152.9995 Q377.8719,152.9995 378.5125,153.1714 Q379.1688,153.3276 379.7156,153.687 Z "/><text fill="#000000" font-family="sans-serif" font-size="12" lengthAdjust="spacingAndGlyphs" textLength="59" x="396.05" y="162.7222">Command</text><line style="stroke: #A80036; stroke-width: 1.5;" x1="340" x2="480" y1="173.812" y2="173.812"/><line style="stroke: #A80036; stroke-width: 1.5;" x1="340" x2="480" y1="181.812" y2="181.812"/><polygon fill="#4177AF" points="350,188.812,346,194.812,354,194.812" style="stroke: #1963A0; stroke-width: 1.0;"/><text fill="#000000" font-family="sans-serif" font-size="11" lengthAdjust="spacingAndGlyphs" textLength="116" x="359" y="197.2309">read(String): Coordinate</text><!--MD5=[5dff601402b9962ae61c7ab4dc9cae89]
class tictactoe.views.CoordinateView--><rect fill="#FEFECE" filter="url(#f1t7o6tfff7zxg)" height="61.8359" id="tictactoe.views.CoordinateView" style="stroke: #A80036; stroke-width: 1.5;" width="142" x="601" y="319.312"/><ellipse cx="626.35" cy="335.312" fill="#ADD1B2" rx="11" ry="11" style="stroke: #A80036; stroke-width: 1.0;"/><path d="M629.1156,331.187 Q629.2719,330.9683 629.4594,330.8589 Q629.6469,330.7495 629.8656,330.7495 Q630.2406,330.7495 630.475,331.0151 Q630.7094,331.2651 630.7094,331.8745 L630.7094,333.3276 Q630.7094,333.937 630.475,334.2026 Q630.2406,334.4683 629.8656,334.4683 Q629.5219,334.4683 629.3188,334.2651 Q629.1156,334.0776 629.0063,333.562 Q628.9594,333.2026 628.7719,333.0151 Q628.4438,332.6401 627.8344,332.4214 Q627.225,332.2026 626.6,332.2026 Q625.8344,332.2026 625.1938,332.5308 Q624.5688,332.8589 624.0688,333.6089 Q623.5844,334.3589 623.5844,335.3901 L623.5844,336.4839 Q623.5844,337.7183 624.475,338.5464 Q625.3656,339.3589 626.9594,339.3589 Q627.8969,339.3589 628.5531,339.1089 Q628.9438,338.9526 629.3656,338.5151 Q629.6313,338.2495 629.7719,338.1714 Q629.9281,338.0933 630.1313,338.0933 Q630.4594,338.0933 630.7094,338.3589 Q630.975,338.6089 630.975,338.9526 Q630.975,339.2964 630.6313,339.7026 Q630.1313,340.2808 629.3344,340.6089 Q628.2563,341.062 626.9594,341.062 Q625.4438,341.062 624.2406,340.437 Q623.2563,339.937 622.5688,338.8745 Q621.8813,337.7964 621.8813,336.5151 L621.8813,335.3589 Q621.8813,334.0308 622.4906,332.8901 Q623.1156,331.7339 624.2094,331.1245 Q625.3031,330.4995 626.5375,330.4995 Q627.2719,330.4995 627.9125,330.6714 Q628.5688,330.8276 629.1156,331.187 Z "/><text fill="#000000" font-family="sans-serif" font-size="12" lengthAdjust="spacingAndGlyphs" textLength="87" x="642.65" y="340.2222">CoordinateView</text><line style="stroke: #A80036; stroke-width: 1.5;" x1="602" x2="742" y1="351.312" y2="351.312"/><line style="stroke: #A80036; stroke-width: 1.5;" x1="602" x2="742" y1="359.312" y2="359.312"/><polygon fill="#4177AF" points="612,366.312,608,372.312,616,372.312" style="stroke: #1963A0; stroke-width: 1.0;"/><text fill="#000000" font-family="sans-serif" font-size="11" lengthAdjust="spacingAndGlyphs" textLength="116" x="621" y="374.7309">read(String): Coordinate</text><!--MD5=[17799e03bfee0ccb3aa03b93da9c26d6]
class tictactoe.views.ErrorView--><rect fill="#FEFECE" filter="url(#f1t7o6tfff7zxg)" height="103.3438" id="tictactoe.views.ErrorView" style="stroke: #A80036; stroke-width: 1.5;" width="123" x="745.5" y="121.312"/><ellipse cx="777.6" cy="137.312" fill="#ADD1B2" rx="11" ry="11" style="stroke: #A80036; stroke-width: 1.0;"/><path d="M780.3656,133.187 Q780.5219,132.9683 780.7094,132.8589 Q780.8969,132.7495 781.1156,132.7495 Q781.4906,132.7495 781.725,133.0151 Q781.9594,133.2651 781.9594,133.8745 L781.9594,135.3276 Q781.9594,135.937 781.725,136.2026 Q781.4906,136.4683 781.1156,136.4683 Q780.7719,136.4683 780.5688,136.2651 Q780.3656,136.0776 780.2563,135.562 Q780.2094,135.2026 780.0219,135.0151 Q779.6938,134.6401 779.0844,134.4214 Q778.475,134.2026 777.85,134.2026 Q777.0844,134.2026 776.4438,134.5308 Q775.8188,134.8589 775.3188,135.6089 Q774.8344,136.3589 774.8344,137.3901 L774.8344,138.4839 Q774.8344,139.7183 775.725,140.5464 Q776.6156,141.3589 778.2094,141.3589 Q779.1469,141.3589 779.8031,141.1089 Q780.1938,140.9526 780.6156,140.5151 Q780.8813,140.2495 781.0219,140.1714 Q781.1781,140.0933 781.3813,140.0933 Q781.7094,140.0933 781.9594,140.3589 Q782.225,140.6089 782.225,140.9526 Q782.225,141.2964 781.8813,141.7026 Q781.3813,142.2808 780.5844,142.6089 Q779.5063,143.062 778.2094,143.062 Q776.6938,143.062 775.4906,142.437 Q774.5063,141.937 773.8188,140.8745 Q773.1313,139.7964 773.1313,138.5151 L773.1313,137.3589 Q773.1313,136.0308 773.7406,134.8901 Q774.3656,133.7339 775.4594,133.1245 Q776.5531,132.4995 777.7875,132.4995 Q778.5219,132.4995 779.1625,132.6714 Q779.8188,132.8276 780.3656,133.187 Z "/><text fill="#000000" font-family="sans-serif" font-size="12" lengthAdjust="spacingAndGlyphs" textLength="53" x="795.4" y="142.2222">ErrorView</text><line style="stroke: #A80036; stroke-width: 1.5;" x1="746.5" x2="867.5" y1="153.312" y2="153.312"/><ellipse cx="756.5" cy="164.312" fill="none" rx="3" ry="3" style="stroke: #038048; stroke-width: 1.0;"/><text fill="#000000" font-family="sans-serif" font-size="11" lengthAdjust="spacingAndGlyphs" text-decoration="underline" textLength="97" x="765.5" y="168.7309">MESSAGES: String[]</text><polygon fill="none" points="756.5,173.1479,760.5,177.1479,756.5,181.1479,752.5,177.1479" style="stroke: #B38D22; stroke-width: 1.0;"/><text fill="#000000" font-family="sans-serif" font-size="11" lengthAdjust="spacingAndGlyphs" textLength="54" x="765.5" y="182.5669">error: Error</text><line style="stroke: #A80036; stroke-width: 1.5;" x1="746.5" x2="867.5" y1="188.9839" y2="188.9839"/><ellipse cx="756.5" cy="199.9839" fill="#84BE84" rx="3" ry="3" style="stroke: #038048; stroke-width: 1.0;"/><text fill="#000000" font-family="sans-serif" font-size="11" lengthAdjust="spacingAndGlyphs" textLength="82" x="765.5" y="204.4028">ErrorView(Error)</text><polygon fill="#4177AF" points="756.5,209.8198,752.5,215.8198,760.5,215.8198" style="stroke: #1963A0; stroke-width: 1.0;"/><text fill="#000000" font-family="sans-serif" font-size="11" lengthAdjust="spacingAndGlyphs" textLength="67" x="765.5" y="218.2388">writeln(): void</text><!--MD5=[1daa0cf4ddb9741fae105c8ad335ce98]
class tictactoe.views.GameView--><rect fill="#FEFECE" filter="url(#f1t7o6tfff7zxg)" height="144.8516" id="tictactoe.views.GameView" style="stroke: #A80036; stroke-width: 1.5;" width="186" x="904" y="100.312"/><ellipse cx="962.75" cy="116.312" fill="#ADD1B2" rx="11" ry="11" style="stroke: #A80036; stroke-width: 1.0;"/><path d="M965.5156,112.187 Q965.6719,111.9683 965.8594,111.8589 Q966.0469,111.7495 966.2656,111.7495 Q966.6406,111.7495 966.875,112.0151 Q967.1094,112.2651 967.1094,112.8745 L967.1094,114.3276 Q967.1094,114.937 966.875,115.2026 Q966.6406,115.4683 966.2656,115.4683 Q965.9219,115.4683 965.7188,115.2651 Q965.5156,115.0776 965.4063,114.562 Q965.3594,114.2026 965.1719,114.0151 Q964.8438,113.6401 964.2344,113.4214 Q963.625,113.2026 963,113.2026 Q962.2344,113.2026 961.5938,113.5308 Q960.9688,113.8589 960.4688,114.6089 Q959.9844,115.3589 959.9844,116.3901 L959.9844,117.4839 Q959.9844,118.7183 960.875,119.5464 Q961.7656,120.3589 963.3594,120.3589 Q964.2969,120.3589 964.9531,120.1089 Q965.3438,119.9526 965.7656,119.5151 Q966.0313,119.2495 966.1719,119.1714 Q966.3281,119.0933 966.5313,119.0933 Q966.8594,119.0933 967.1094,119.3589 Q967.375,119.6089 967.375,119.9526 Q967.375,120.2964 967.0313,120.7026 Q966.5313,121.2808 965.7344,121.6089 Q964.6563,122.062 963.3594,122.062 Q961.8438,122.062 960.6406,121.437 Q959.6563,120.937 958.9688,119.8745 Q958.2813,118.7964 958.2813,117.5151 L958.2813,116.3589 Q958.2813,115.0308 958.8906,113.8901 Q959.5156,112.7339 960.6094,112.1245 Q961.7031,111.4995 962.9375,111.4995 Q963.6719,111.4995 964.3125,111.6714 Q964.9688,111.8276 965.5156,112.187 Z "/><text fill="#000000" font-family="sans-serif" font-size="12" lengthAdjust="spacingAndGlyphs" textLength="60" x="983.25" y="121.2222">GameView</text><line style="stroke: #A80036; stroke-width: 1.5;" x1="905" x2="1089" y1="132.312" y2="132.312"/><line style="stroke: #A80036; stroke-width: 1.5;" x1="905" x2="1089" y1="140.312" y2="140.312"/><ellipse cx="915" cy="151.312" fill="#84BE84" rx="3" ry="3" style="stroke: #038048; stroke-width: 1.0;"/><text fill="#000000" font-family="sans-serif" font-size="11" lengthAdjust="spacingAndGlyphs" textLength="107" x="924" y="155.7309">writeSeparator(): void</text><ellipse cx="915" cy="165.1479" fill="#84BE84" rx="3" ry="3" style="stroke: #038048; stroke-width: 1.0;"/><text fill="#000000" font-family="sans-serif" font-size="11" lengthAdjust="spacingAndGlyphs" textLength="135" x="924" y="169.5669">writeVerticalLineLeft(): void</text><ellipse cx="915" cy="178.9839" fill="#84BE84" rx="3" ry="3" style="stroke: #038048; stroke-width: 1.0;"/><text fill="#000000" font-family="sans-serif" font-size="11" lengthAdjust="spacingAndGlyphs" textLength="160" x="924" y="183.4028">writeVerticalLineCentered(): void</text><ellipse cx="915" cy="192.8198" fill="#84BE84" rx="3" ry="3" style="stroke: #038048; stroke-width: 1.0;"/><text fill="#000000" font-family="sans-serif" font-size="11" lengthAdjust="spacingAndGlyphs" textLength="88" x="924" y="197.2388">writeEmpty(): void</text><ellipse cx="915" cy="206.6558" fill="#84BE84" rx="3" ry="3" style="stroke: #038048; stroke-width: 1.0;"/><text fill="#000000" font-family="sans-serif" font-size="11" lengthAdjust="spacingAndGlyphs" textLength="107" x="924" y="211.0747">writeLineBreak(): void</text><ellipse cx="915" cy="220.4917" fill="#84BE84" rx="3" ry="3" style="stroke: #038048; stroke-width: 1.0;"/><text fill="#000000" font-family="sans-serif" font-size="11" lengthAdjust="spacingAndGlyphs" textLength="110" x="924" y="224.9106">writeToken(char): void</text><ellipse cx="915" cy="234.3276" fill="#84BE84" rx="3" ry="3" style="stroke: #038048; stroke-width: 1.0;"/><text fill="#000000" font-family="sans-serif" font-size="11" lengthAdjust="spacingAndGlyphs" textLength="115" x="924" y="238.7466">writeWinner(char): void</text><!--MD5=[ac4b0e0875a820e87662d988d53b2072]
class tictactoe.views.MessageView--><rect fill="#FEFECE" filter="url(#f1t7o6tfff7zxg)" height="283.2109" id="tictactoe.views.MessageView" style="stroke: #A80036; stroke-width: 1.5;" width="237" x="769.5" y="455.312"/><ellipse cx="845.25" cy="471.312" fill="#EB937F" rx="11" ry="11" style="stroke: #A80036; stroke-width: 1.0;"/><path d="M844.1094,472.1089 L844.1094,474.6089 L848.4375,474.6089 L848.4375,473.687 Q848.4375,473.0776 848.6719,472.812 Q848.9219,472.5464 849.2969,472.5464 Q849.6719,472.5464 849.9063,472.812 Q850.1406,473.0776 850.1406,473.687 L850.1406,476.312 L842.1406,476.312 Q841.5156,476.312 841.25,476.0776 Q841,475.8433 841,475.4526 Q841,475.0776 841.2656,474.8433 Q841.5313,474.6089 842.1406,474.6089 L842.4063,474.6089 L842.4063,467.9526 L842.1406,467.9526 Q841.5156,467.9526 841.25,467.7183 Q841,467.4839 841,467.0933 Q841,466.7183 841.25,466.4839 Q841.5156,466.2495 842.1406,466.2495 L849.7656,466.2495 L849.7656,468.8433 Q849.7656,469.4526 849.5313,469.7183 Q849.3125,469.9683 848.9219,469.9683 Q848.5469,469.9683 848.3125,469.7183 Q848.0781,469.4526 848.0781,468.8433 L848.0781,467.9526 L844.1094,467.9526 L844.1094,470.4058 L845.5938,470.4058 Q845.5938,469.7495 845.7188,469.562 Q845.9844,469.1558 846.4531,469.1558 Q846.8281,469.1558 847.0625,469.4214 Q847.2969,469.6714 847.2969,470.2808 L847.2969,472.2495 Q847.2969,472.7964 847.1719,472.9839 Q846.9063,473.3745 846.4531,473.3745 Q845.9844,473.3745 845.7188,472.9683 Q845.5938,472.7808 845.5938,472.1089 L844.1094,472.1089 Z "/><text fill="#000000" font-family="sans-serif" font-size="12" lengthAdjust="spacingAndGlyphs" textLength="77" x="865.75" y="476.2222">MessageView</text><line style="stroke: #A80036; stroke-width: 1.5;" x1="770.5" x2="1005.5" y1="487.312" y2="487.312"/><ellipse cx="780.5" cy="498.312" fill="none" rx="3" ry="3" style="stroke: #038048; stroke-width: 1.0;"/><text fill="#000000" font-family="sans-serif" font-size="11" lengthAdjust="spacingAndGlyphs" textLength="110" x="789.5" y="502.7309">EMPTY: MessageView</text><ellipse cx="780.5" cy="512.1479" fill="none" rx="3" ry="3" style="stroke: #038048; stroke-width: 1.0;"/><text fill="#000000" font-family="sans-serif" font-size="11" lengthAdjust="spacingAndGlyphs" textLength="139" x="789.5" y="516.5669">SEPARATOR: MessageView</text><ellipse cx="780.5" cy="525.9839" fill="none" rx="3" ry="3" style="stroke: #038048; stroke-width: 1.0;"/><text fill="#000000" font-family="sans-serif" font-size="11" lengthAdjust="spacingAndGlyphs" textLength="211" x="789.5" y="530.4028">VERTICAL_LINE_CENTERED: MessageView</text><ellipse cx="780.5" cy="539.8198" fill="none" rx="3" ry="3" style="stroke: #038048; stroke-width: 1.0;"/><text fill="#000000" font-family="sans-serif" font-size="11" lengthAdjust="spacingAndGlyphs" textLength="183" x="789.5" y="544.2388">VERTICAL_LINE_LEFT: MessageView</text><ellipse cx="780.5" cy="553.6558" fill="none" rx="3" ry="3" style="stroke: #038048; stroke-width: 1.0;"/><text fill="#000000" font-family="sans-serif" font-size="11" lengthAdjust="spacingAndGlyphs" textLength="142" x="789.5" y="558.0747">PLAYER_WIN: MessageView</text><ellipse cx="780.5" cy="567.4917" fill="none" rx="3" ry="3" style="stroke: #038048; stroke-width: 1.0;"/><text fill="#000000" font-family="sans-serif" font-size="11" lengthAdjust="spacingAndGlyphs" textLength="146" x="789.5" y="571.9106">START_GAME: MessageView</text><ellipse cx="780.5" cy="581.3276" fill="none" rx="3" ry="3" style="stroke: #038048; stroke-width: 1.0;"/><text fill="#000000" font-family="sans-serif" font-size="11" lengthAdjust="spacingAndGlyphs" textLength="166" x="789.5" y="585.7466">CHOOSE_PLAYER: MessageView</text><ellipse cx="780.5" cy="595.1636" fill="none" rx="3" ry="3" style="stroke: #038048; stroke-width: 1.0;"/><text fill="#000000" font-family="sans-serif" font-size="11" lengthAdjust="spacingAndGlyphs" textLength="135" x="789.5" y="599.5825">READ_ROW: MessageView</text><ellipse cx="780.5" cy="608.9995" fill="none" rx="3" ry="3" style="stroke: #038048; stroke-width: 1.0;"/><text fill="#000000" font-family="sans-serif" font-size="11" lengthAdjust="spacingAndGlyphs" textLength="153" x="789.5" y="613.4184">READ_COLUMN: MessageView</text><ellipse cx="780.5" cy="622.8354" fill="none" rx="3" ry="3" style="stroke: #038048; stroke-width: 1.0;"/><text fill="#000000" font-family="sans-serif" font-size="11" lengthAdjust="spacingAndGlyphs" textLength="111" x="789.5" y="627.2544">ERROR: MessageView</text><ellipse cx="780.5" cy="636.6714" fill="none" rx="3" ry="3" style="stroke: #038048; stroke-width: 1.0;"/><text fill="#000000" font-family="sans-serif" font-size="11" lengthAdjust="spacingAndGlyphs" textLength="183" x="789.5" y="641.0903">PROPOSE_COMMAND: MessageView</text><ellipse cx="780.5" cy="650.5073" fill="none" rx="3" ry="3" style="stroke: #038048; stroke-width: 1.0;"/><text fill="#000000" font-family="sans-serif" font-size="11" lengthAdjust="spacingAndGlyphs" textLength="164" x="789.5" y="654.9263">UNDO_COMMAND: MessageView</text><ellipse cx="780.5" cy="664.3433" fill="none" rx="3" ry="3" style="stroke: #038048; stroke-width: 1.0;"/><text fill="#000000" font-family="sans-serif" font-size="11" lengthAdjust="spacingAndGlyphs" textLength="163" x="789.5" y="668.7622">REDO_COMMAND: MessageView</text><ellipse cx="780.5" cy="678.1792" fill="none" rx="3" ry="3" style="stroke: #038048; stroke-width: 1.0;"/><text fill="#000000" font-family="sans-serif" font-size="11" lengthAdjust="spacingAndGlyphs" textLength="117" x="789.5" y="682.5981">RESUME: MessageView</text><rect fill="none" height="6" style="stroke: #C82930; stroke-width: 1.0;" width="6" x="777.5" y="689.0151"/><text fill="#000000" font-family="sans-serif" font-size="11" lengthAdjust="spacingAndGlyphs" textLength="78" x="789.5" y="696.4341">message: String</text><line style="stroke: #A80036; stroke-width: 1.5;" x1="770.5" x2="1005.5" y1="702.8511" y2="702.8511"/><rect fill="#F24D5C" height="6" style="stroke: #C82930; stroke-width: 1.0;" width="6" x="777.5" y="710.8511"/><text fill="#000000" font-family="sans-serif" font-size="11" lengthAdjust="spacingAndGlyphs" textLength="106" x="789.5" y="718.27">MessageView(String)</text><ellipse cx="780.5" cy="727.687" fill="#84BE84" rx="3" ry="3" style="stroke: #038048; stroke-width: 1.0;"/><text fill="#000000" font-family="sans-serif" font-size="11" lengthAdjust="spacingAndGlyphs" textLength="101" x="789.5" y="732.1059">getMessage(): String</text><!--MD5=[973b15c09f519f065f4b28972f0c8773]
class tictactoe.views.ResultView--><rect fill="#FEFECE" filter="url(#f1t7o6tfff7zxg)" height="61.8359" id="tictactoe.views.ResultView" style="stroke: #A80036; stroke-width: 1.5;" width="107" x="943.5" y="319.312"/><ellipse cx="964.35" cy="335.312" fill="#ADD1B2" rx="11" ry="11" style="stroke: #A80036; stroke-width: 1.0;"/><path d="M967.1156,331.187 Q967.2719,330.9683 967.4594,330.8589 Q967.6469,330.7495 967.8656,330.7495 Q968.2406,330.7495 968.475,331.0151 Q968.7094,331.2651 968.7094,331.8745 L968.7094,333.3276 Q968.7094,333.937 968.475,334.2026 Q968.2406,334.4683 967.8656,334.4683 Q967.5219,334.4683 967.3188,334.2651 Q967.1156,334.0776 967.0063,333.562 Q966.9594,333.2026 966.7719,333.0151 Q966.4438,332.6401 965.8344,332.4214 Q965.225,332.2026 964.6,332.2026 Q963.8344,332.2026 963.1938,332.5308 Q962.5688,332.8589 962.0688,333.6089 Q961.5844,334.3589 961.5844,335.3901 L961.5844,336.4839 Q961.5844,337.7183 962.475,338.5464 Q963.3656,339.3589 964.9594,339.3589 Q965.8969,339.3589 966.5531,339.1089 Q966.9438,338.9526 967.3656,338.5151 Q967.6313,338.2495 967.7719,338.1714 Q967.9281,338.0933 968.1313,338.0933 Q968.4594,338.0933 968.7094,338.3589 Q968.975,338.6089 968.975,338.9526 Q968.975,339.2964 968.6313,339.7026 Q968.1313,340.2808 967.3344,340.6089 Q966.2563,341.062 964.9594,341.062 Q963.4438,341.062 962.2406,340.437 Q961.2563,339.937 960.5688,338.8745 Q959.8813,337.7964 959.8813,336.5151 L959.8813,335.3589 Q959.8813,334.0308 960.4906,332.8901 Q961.1156,331.7339 962.2094,331.1245 Q963.3031,330.4995 964.5375,330.4995 Q965.2719,330.4995 965.9125,330.6714 Q966.5688,330.8276 967.1156,331.187 Z "/><text fill="#000000" font-family="sans-serif" font-size="12" lengthAdjust="spacingAndGlyphs" textLength="62" x="979.65" y="340.2222">ResultView</text><line style="stroke: #A80036; stroke-width: 1.5;" x1="944.5" x2="1049.5" y1="351.312" y2="351.312"/><line style="stroke: #A80036; stroke-width: 1.5;" x1="944.5" x2="1049.5" y1="359.312" y2="359.312"/><polygon fill="#4177AF" points="954.5,366.312,950.5,372.312,958.5,372.312" style="stroke: #1963A0; stroke-width: 1.0;"/><text fill="#000000" font-family="sans-serif" font-size="11" lengthAdjust="spacingAndGlyphs" textLength="81" x="963.5" y="374.7309">write(char): void</text><!--MD5=[62ac81c48b8877f958a2d8bb66d6ec3f]
class tictactoe.views.MovementCommand--><rect fill="#FEFECE" filter="url(#f1t7o6tfff7zxg)" height="75.6719" id="tictactoe.views.MovementCommand" style="stroke: #A80036; stroke-width: 1.5;" width="147" x="32.5" y="312.312"/><ellipse cx="47.5" cy="328.312" fill="#ADD1B2" rx="11" ry="11" style="stroke: #A80036; stroke-width: 1.0;"/><path d="M50.2656,324.187 Q50.4219,323.9683 50.6094,323.8589 Q50.7969,323.7495 51.0156,323.7495 Q51.3906,323.7495 51.625,324.0151 Q51.8594,324.2651 51.8594,324.8745 L51.8594,326.3276 Q51.8594,326.937 51.625,327.2026 Q51.3906,327.4683 51.0156,327.4683 Q50.6719,327.4683 50.4688,327.2651 Q50.2656,327.0776 50.1563,326.562 Q50.1094,326.2026 49.9219,326.0151 Q49.5938,325.6401 48.9844,325.4214 Q48.375,325.2026 47.75,325.2026 Q46.9844,325.2026 46.3438,325.5308 Q45.7188,325.8589 45.2188,326.6089 Q44.7344,327.3589 44.7344,328.3901 L44.7344,329.4839 Q44.7344,330.7183 45.625,331.5464 Q46.5156,332.3589 48.1094,332.3589 Q49.0469,332.3589 49.7031,332.1089 Q50.0938,331.9526 50.5156,331.5151 Q50.7813,331.2495 50.9219,331.1714 Q51.0781,331.0933 51.2813,331.0933 Q51.6094,331.0933 51.8594,331.3589 Q52.125,331.6089 52.125,331.9526 Q52.125,332.2964 51.7813,332.7026 Q51.2813,333.2808 50.4844,333.6089 Q49.4063,334.062 48.1094,334.062 Q46.5938,334.062 45.3906,333.437 Q44.4063,332.937 43.7188,331.8745 Q43.0313,330.7964 43.0313,329.5151 L43.0313,328.3589 Q43.0313,327.0308 43.6406,325.8901 Q44.2656,324.7339 45.3594,324.1245 Q46.4531,323.4995 47.6875,323.4995 Q48.4219,323.4995 49.0625,323.6714 Q49.7188,323.8276 50.2656,324.187 Z "/><text fill="#000000" font-family="sans-serif" font-size="12" lengthAdjust="spacingAndGlyphs" textLength="115" x="61.5" y="333.2222">MovementCommand</text><line style="stroke: #A80036; stroke-width: 1.5;" x1="33.5" x2="178.5" y1="344.312" y2="344.312"/><line style="stroke: #A80036; stroke-width: 1.5;" x1="33.5" x2="178.5" y1="352.312" y2="352.312"/><ellipse cx="43.5" cy="363.312" fill="#84BE84" rx="3" ry="3" style="stroke: #038048; stroke-width: 1.0;"/><text fill="#000000" font-family="sans-serif" font-size="11" lengthAdjust="spacingAndGlyphs" textLength="104" x="52.5" y="367.7309">MovementCommand()</text><ellipse cx="43.5" cy="377.1479" fill="#84BE84" rx="3" ry="3" style="stroke: #038048; stroke-width: 1.0;"/><text fill="#000000" font-family="sans-serif" font-size="11" lengthAdjust="spacingAndGlyphs" textLength="118" x="52.5" y="381.5669">setActive(boolean): void</text><!--MD5=[4265a7851052f9bf435afb5ed8354922]
class tictactoe.views.RedoCommand--><rect fill="#FEFECE" filter="url(#f1t7o6tfff7zxg)" height="75.6719" id="tictactoe.views.RedoCommand" style="stroke: #A80036; stroke-width: 1.5;" width="144" x="215" y="312.312"/><ellipse cx="240.35" cy="328.312" fill="#ADD1B2" rx="11" ry="11" style="stroke: #A80036; stroke-width: 1.0;"/><path d="M243.1156,324.187 Q243.2719,323.9683 243.4594,323.8589 Q243.6469,323.7495 243.8656,323.7495 Q244.2406,323.7495 244.475,324.0151 Q244.7094,324.2651 244.7094,324.8745 L244.7094,326.3276 Q244.7094,326.937 244.475,327.2026 Q244.2406,327.4683 243.8656,327.4683 Q243.5219,327.4683 243.3188,327.2651 Q243.1156,327.0776 243.0063,326.562 Q242.9594,326.2026 242.7719,326.0151 Q242.4438,325.6401 241.8344,325.4214 Q241.225,325.2026 240.6,325.2026 Q239.8344,325.2026 239.1938,325.5308 Q238.5688,325.8589 238.0688,326.6089 Q237.5844,327.3589 237.5844,328.3901 L237.5844,329.4839 Q237.5844,330.7183 238.475,331.5464 Q239.3656,332.3589 240.9594,332.3589 Q241.8969,332.3589 242.5531,332.1089 Q242.9438,331.9526 243.3656,331.5151 Q243.6313,331.2495 243.7719,331.1714 Q243.9281,331.0933 244.1313,331.0933 Q244.4594,331.0933 244.7094,331.3589 Q244.975,331.6089 244.975,331.9526 Q244.975,332.2964 244.6313,332.7026 Q244.1313,333.2808 243.3344,333.6089 Q242.2563,334.062 240.9594,334.062 Q239.4438,334.062 238.2406,333.437 Q237.2563,332.937 236.5688,331.8745 Q235.8813,330.7964 235.8813,329.5151 L235.8813,328.3589 Q235.8813,327.0308 236.4906,325.8901 Q237.1156,324.7339 238.2094,324.1245 Q239.3031,323.4995 240.5375,323.4995 Q241.2719,323.4995 241.9125,323.6714 Q242.5688,323.8276 243.1156,324.187 Z "/><text fill="#000000" font-family="sans-serif" font-size="12" lengthAdjust="spacingAndGlyphs" textLength="89" x="256.65" y="333.2222">RedoCommand</text><line style="stroke: #A80036; stroke-width: 1.5;" x1="216" x2="358" y1="344.312" y2="344.312"/><line style="stroke: #A80036; stroke-width: 1.5;" x1="216" x2="358" y1="352.312" y2="352.312"/><polygon fill="#4177AF" points="226,359.312,222,365.312,230,365.312" style="stroke: #1963A0; stroke-width: 1.0;"/><text fill="#000000" font-family="sans-serif" font-size="11" lengthAdjust="spacingAndGlyphs" textLength="80" x="235" y="367.7309">RedoCommand()</text><ellipse cx="226" cy="377.1479" fill="#84BE84" rx="3" ry="3" style="stroke: #038048; stroke-width: 1.0;"/><text fill="#000000" font-family="sans-serif" font-size="11" lengthAdjust="spacingAndGlyphs" textLength="118" x="235" y="381.5669">setActive(boolean): void</text><!--MD5=[137f690b5283483823808e0278817ad3]
class tictactoe.views.ResumeView--><rect fill="#FEFECE" filter="url(#f1t7o6tfff7zxg)" height="61.8359" id="tictactoe.views.ResumeView" style="stroke: #A80036; stroke-width: 1.5;" width="106" x="1206" y="319.312"/><ellipse cx="1221" cy="335.312" fill="#ADD1B2" rx="11" ry="11" style="stroke: #A80036; stroke-width: 1.0;"/><path d="M1223.7656,331.187 Q1223.9219,330.9683 1224.1094,330.8589 Q1224.2969,330.7495 1224.5156,330.7495 Q1224.8906,330.7495 1225.125,331.0151 Q1225.3594,331.2651 1225.3594,331.8745 L1225.3594,333.3276 Q1225.3594,333.937 1225.125,334.2026 Q1224.8906,334.4683 1224.5156,334.4683 Q1224.1719,334.4683 1223.9688,334.2651 Q1223.7656,334.0776 1223.6563,333.562 Q1223.6094,333.2026 1223.4219,333.0151 Q1223.0938,332.6401 1222.4844,332.4214 Q1221.875,332.2026 1221.25,332.2026 Q1220.4844,332.2026 1219.8438,332.5308 Q1219.2188,332.8589 1218.7188,333.6089 Q1218.2344,334.3589 1218.2344,335.3901 L1218.2344,336.4839 Q1218.2344,337.7183 1219.125,338.5464 Q1220.0156,339.3589 1221.6094,339.3589 Q1222.5469,339.3589 1223.2031,339.1089 Q1223.5938,338.9526 1224.0156,338.5151 Q1224.2813,338.2495 1224.4219,338.1714 Q1224.5781,338.0933 1224.7813,338.0933 Q1225.1094,338.0933 1225.3594,338.3589 Q1225.625,338.6089 1225.625,338.9526 Q1225.625,339.2964 1225.2813,339.7026 Q1224.7813,340.2808 1223.9844,340.6089 Q1222.9063,341.062 1221.6094,341.062 Q1220.0938,341.062 1218.8906,340.437 Q1217.9063,339.937 1217.2188,338.8745 Q1216.5313,337.7964 1216.5313,336.5151 L1216.5313,335.3589 Q1216.5313,334.0308 1217.1406,332.8901 Q1217.7656,331.7339 1218.8594,331.1245 Q1219.9531,330.4995 1221.1875,330.4995 Q1221.9219,330.4995 1222.5625,330.6714 Q1223.2188,330.8276 1223.7656,331.187 Z "/><text fill="#000000" font-family="sans-serif" font-size="12" lengthAdjust="spacingAndGlyphs" textLength="74" x="1235" y="340.2222">ResumeView</text><line style="stroke: #A80036; stroke-width: 1.5;" x1="1207" x2="1311" y1="351.312" y2="351.312"/><line style="stroke: #A80036; stroke-width: 1.5;" x1="1207" x2="1311" y1="359.312" y2="359.312"/><polygon fill="#4177AF" points="1217,366.312,1213,372.312,1221,372.312" style="stroke: #1963A0; stroke-width: 1.0;"/><text fill="#000000" font-family="sans-serif" font-size="11" lengthAdjust="spacingAndGlyphs" textLength="74" x="1226" y="374.7309">read(): boolean</text><!--MD5=[50a4c98617440bec164bf073e81d587d]
class tictactoe.views.StartView--><rect fill="#FEFECE" filter="url(#f1t7o6tfff7zxg)" height="61.8359" id="tictactoe.views.StartView" style="stroke: #A80036; stroke-width: 1.5;" width="85" x="1085.5" y="319.312"/><ellipse cx="1101.4" cy="335.312" fill="#ADD1B2" rx="11" ry="11" style="stroke: #A80036; stroke-width: 1.0;"/><path d="M1104.1656,331.187 Q1104.3219,330.9683 1104.5094,330.8589 Q1104.6969,330.7495 1104.9156,330.7495 Q1105.2906,330.7495 1105.525,331.0151 Q1105.7594,331.2651 1105.7594,331.8745 L1105.7594,333.3276 Q1105.7594,333.937 1105.525,334.2026 Q1105.2906,334.4683 1104.9156,334.4683 Q1104.5719,334.4683 1104.3688,334.2651 Q1104.1656,334.0776 1104.0563,333.562 Q1104.0094,333.2026 1103.8219,333.0151 Q1103.4938,332.6401 1102.8844,332.4214 Q1102.275,332.2026 1101.65,332.2026 Q1100.8844,332.2026 1100.2438,332.5308 Q1099.6188,332.8589 1099.1188,333.6089 Q1098.6344,334.3589 1098.6344,335.3901 L1098.6344,336.4839 Q1098.6344,337.7183 1099.525,338.5464 Q1100.4156,339.3589 1102.0094,339.3589 Q1102.9469,339.3589 1103.6031,339.1089 Q1103.9938,338.9526 1104.4156,338.5151 Q1104.6813,338.2495 1104.8219,338.1714 Q1104.9781,338.0933 1105.1813,338.0933 Q1105.5094,338.0933 1105.7594,338.3589 Q1106.025,338.6089 1106.025,338.9526 Q1106.025,339.2964 1105.6813,339.7026 Q1105.1813,340.2808 1104.3844,340.6089 Q1103.3063,341.062 1102.0094,341.062 Q1100.4938,341.062 1099.2906,340.437 Q1098.3063,339.937 1097.6188,338.8745 Q1096.9313,337.7964 1096.9313,336.5151 L1096.9313,335.3589 Q1096.9313,334.0308 1097.5406,332.8901 Q1098.1656,331.7339 1099.2594,331.1245 Q1100.3531,330.4995 1101.5875,330.4995 Q1102.3219,330.4995 1102.9625,330.6714 Q1103.6188,330.8276 1104.1656,331.187 Z "/><text fill="#000000" font-family="sans-serif" font-size="12" lengthAdjust="spacingAndGlyphs" textLength="51" x="1115.6" y="340.2222">StartView</text><line style="stroke: #A80036; stroke-width: 1.5;" x1="1086.5" x2="1169.5" y1="351.312" y2="351.312"/><line style="stroke: #A80036; stroke-width: 1.5;" x1="1086.5" x2="1169.5" y1="359.312" y2="359.312"/><polygon fill="#4177AF" points="1096.5,366.312,1092.5,372.312,1100.5,372.312" style="stroke: #1963A0; stroke-width: 1.0;"/><text fill="#000000" font-family="sans-serif" font-size="11" lengthAdjust="spacingAndGlyphs" textLength="59" x="1105.5" y="374.7309">write(): void</text><!--MD5=[47e330312226366ae68ba08aad8e559b]
class tictactoe.views.UndoCommand--><rect fill="#FEFECE" filter="url(#f1t7o6tfff7zxg)" height="89.5078" id="tictactoe.views.UndoCommand" style="stroke: #A80036; stroke-width: 1.5;" width="172" x="394" y="305.312"/><ellipse cx="431.95" cy="321.312" fill="#ADD1B2" rx="11" ry="11" style="stroke: #A80036; stroke-width: 1.0;"/><path d="M434.7156,317.187 Q434.8719,316.9683 435.0594,316.8589 Q435.2469,316.7495 435.4656,316.7495 Q435.8406,316.7495 436.075,317.0151 Q436.3094,317.2651 436.3094,317.8745 L436.3094,319.3276 Q436.3094,319.937 436.075,320.2026 Q435.8406,320.4683 435.4656,320.4683 Q435.1219,320.4683 434.9188,320.2651 Q434.7156,320.0776 434.6063,319.562 Q434.5594,319.2026 434.3719,319.0151 Q434.0438,318.6401 433.4344,318.4214 Q432.825,318.2026 432.2,318.2026 Q431.4344,318.2026 430.7938,318.5308 Q430.1688,318.8589 429.6688,319.6089 Q429.1844,320.3589 429.1844,321.3901 L429.1844,322.4839 Q429.1844,323.7183 430.075,324.5464 Q430.9656,325.3589 432.5594,325.3589 Q433.4969,325.3589 434.1531,325.1089 Q434.5438,324.9526 434.9656,324.5151 Q435.2313,324.2495 435.3719,324.1714 Q435.5281,324.0933 435.7313,324.0933 Q436.0594,324.0933 436.3094,324.3589 Q436.575,324.6089 436.575,324.9526 Q436.575,325.2964 436.2313,325.7026 Q435.7313,326.2808 434.9344,326.6089 Q433.8563,327.062 432.5594,327.062 Q431.0438,327.062 429.8406,326.437 Q428.8563,325.937 428.1688,324.8745 Q427.4813,323.7964 427.4813,322.5151 L427.4813,321.3589 Q427.4813,320.0308 428.0906,318.8901 Q428.7156,317.7339 429.8094,317.1245 Q430.9031,316.4995 432.1375,316.4995 Q432.8719,316.4995 433.5125,316.6714 Q434.1688,316.8276 434.7156,317.187 Z "/><text fill="#000000" font-family="sans-serif" font-size="12" lengthAdjust="spacingAndGlyphs" textLength="89" x="451.05" y="326.2222">UndoCommand</text><line style="stroke: #A80036; stroke-width: 1.5;" x1="395" x2="565" y1="337.312" y2="337.312"/><line style="stroke: #A80036; stroke-width: 1.5;" x1="395" x2="565" y1="345.312" y2="345.312"/><ellipse cx="405" cy="356.312" fill="#84BE84" rx="3" ry="3" style="stroke: #038048; stroke-width: 1.0;"/><text fill="#000000" font-family="sans-serif" font-size="11" lengthAdjust="spacingAndGlyphs" textLength="146" x="414" y="360.7309">UndoCommand(PlayController)</text><polygon fill="#FFFF44" points="405,365.1479,409,369.1479,405,373.1479,401,369.1479" style="stroke: #B38D22; stroke-width: 1.0;"/><text fill="#000000" font-family="sans-serif" font-size="11" lengthAdjust="spacingAndGlyphs" textLength="73" x="414" y="374.5669">execute(): void</text><ellipse cx="405" cy="383.9839" fill="#84BE84" rx="3" ry="3" style="stroke: #038048; stroke-width: 1.0;"/><text fill="#000000" font-family="sans-serif" font-size="11" lengthAdjust="spacingAndGlyphs" textLength="118" x="414" y="388.4028">setActive(boolean): void</text><!--MD5=[4e5fca12f01c5426c188915da515377f]
class tictactoe.views.UserPlayerView--><rect fill="#FEFECE" filter="url(#f1t7o6tfff7zxg)" height="61.8359" id="tictactoe.views.UserPlayerView" style="stroke: #A80036; stroke-width: 1.5;" width="194" x="516" y="141.812"/><ellipse cx="565.25" cy="157.812" fill="#ADD1B2" rx="11" ry="11" style="stroke: #A80036; stroke-width: 1.0;"/><path d="M568.0156,153.687 Q568.1719,153.4683 568.3594,153.3589 Q568.5469,153.2495 568.7656,153.2495 Q569.1406,153.2495 569.375,153.5151 Q569.6094,153.7651 569.6094,154.3745 L569.6094,155.8276 Q569.6094,156.437 569.375,156.7026 Q569.1406,156.9683 568.7656,156.9683 Q568.4219,156.9683 568.2188,156.7651 Q568.0156,156.5776 567.9063,156.062 Q567.8594,155.7026 567.6719,155.5151 Q567.3438,155.1401 566.7344,154.9214 Q566.125,154.7026 565.5,154.7026 Q564.7344,154.7026 564.0938,155.0308 Q563.4688,155.3589 562.9688,156.1089 Q562.4844,156.8589 562.4844,157.8901 L562.4844,158.9839 Q562.4844,160.2183 563.375,161.0464 Q564.2656,161.8589 565.8594,161.8589 Q566.7969,161.8589 567.4531,161.6089 Q567.8438,161.4526 568.2656,161.0151 Q568.5313,160.7495 568.6719,160.6714 Q568.8281,160.5933 569.0313,160.5933 Q569.3594,160.5933 569.6094,160.8589 Q569.875,161.1089 569.875,161.4526 Q569.875,161.7964 569.5313,162.2026 Q569.0313,162.7808 568.2344,163.1089 Q567.1563,163.562 565.8594,163.562 Q564.3438,163.562 563.1406,162.937 Q562.1563,162.437 561.4688,161.3745 Q560.7813,160.2964 560.7813,159.0151 L560.7813,157.8589 Q560.7813,156.5308 561.3906,155.3901 Q562.0156,154.2339 563.1094,153.6245 Q564.2031,152.9995 565.4375,152.9995 Q566.1719,152.9995 566.8125,153.1714 Q567.4688,153.3276 568.0156,153.687 Z "/><text fill="#000000" font-family="sans-serif" font-size="12" lengthAdjust="spacingAndGlyphs" textLength="87" x="585.75" y="162.7222">UserPlayerView</text><line style="stroke: #A80036; stroke-width: 1.5;" x1="517" x2="709" y1="173.812" y2="173.812"/><line style="stroke: #A80036; stroke-width: 1.5;" x1="517" x2="709" y1="181.812" y2="181.812"/><ellipse cx="527" cy="192.812" fill="#84BE84" rx="3" ry="3" style="stroke: #038048; stroke-width: 1.0;"/><text fill="#000000" font-family="sans-serif" font-size="11" lengthAdjust="spacingAndGlyphs" textLength="168" x="536" y="197.2309">readCoordinate(String): Coordinate</text><!--MD5=[2dcb8e10b6e8b78f41f52f48677e1ea3]
class utils.WithConsoleView--><rect fill="#FEFECE" filter="url(#f1t7o6tfff7zxg)" height="48" id="utils.WithConsoleView" style="stroke: #A80036; stroke-width: 1.5;" width="129" x="1494.5" y="148.812"/><ellipse cx="1509.5" cy="164.812" fill="#ADD1B2" rx="11" ry="11" style="stroke: #A80036; stroke-width: 1.0;"/><path d="M1512.2656,160.687 Q1512.4219,160.4683 1512.6094,160.3589 Q1512.7969,160.2495 1513.0156,160.2495 Q1513.3906,160.2495 1513.625,160.5151 Q1513.8594,160.7651 1513.8594,161.3745 L1513.8594,162.8276 Q1513.8594,163.437 1513.625,163.7026 Q1513.3906,163.9683 1513.0156,163.9683 Q1512.6719,163.9683 1512.4688,163.7651 Q1512.2656,163.5776 1512.1563,163.062 Q1512.1094,162.7026 1511.9219,162.5151 Q1511.5938,162.1401 1510.9844,161.9214 Q1510.375,161.7026 1509.75,161.7026 Q1508.9844,161.7026 1508.3438,162.0308 Q1507.7188,162.3589 1507.2188,163.1089 Q1506.7344,163.8589 1506.7344,164.8901 L1506.7344,165.9839 Q1506.7344,167.2183 1507.625,168.0464 Q1508.5156,168.8589 1510.1094,168.8589 Q1511.0469,168.8589 1511.7031,168.6089 Q1512.0938,168.4526 1512.5156,168.0151 Q1512.7813,167.7495 1512.9219,167.6714 Q1513.0781,167.5933 1513.2813,167.5933 Q1513.6094,167.5933 1513.8594,167.8589 Q1514.125,168.1089 1514.125,168.4526 Q1514.125,168.7964 1513.7813,169.2026 Q1513.2813,169.7808 1512.4844,170.1089 Q1511.4063,170.562 1510.1094,170.562 Q1508.5938,170.562 1507.3906,169.937 Q1506.4063,169.437 1505.7188,168.3745 Q1505.0313,167.2964 1505.0313,166.0151 L1505.0313,164.8589 Q1505.0313,163.5308 1505.6406,162.3901 Q1506.2656,161.2339 1507.3594,160.6245 Q1508.4531,159.9995 1509.6875,159.9995 Q1510.4219,159.9995 1511.0625,160.1714 Q1511.7188,160.3276 1512.2656,160.687 Z "/><text fill="#000000" font-family="sans-serif" font-size="12" lengthAdjust="spacingAndGlyphs" textLength="97" x="1523.5" y="169.7222">WithConsoleView</text><line style="stroke: #A80036; stroke-width: 1.5;" x1="1495.5" x2="1622.5" y1="180.812" y2="180.812"/><line style="stroke: #A80036; stroke-width: 1.5;" x1="1495.5" x2="1622.5" y1="188.812" y2="188.812"/><!--MD5=[8356458262f68e05fc628f2b3e46c9c1]
class utils.Command--><rect fill="#FEFECE" filter="url(#f1t7o6tfff7zxg)" height="48" id="utils.Command" style="stroke: #A80036; stroke-width: 1.5;" width="91" x="1368.5" y="148.812"/><ellipse cx="1383.5" cy="164.812" fill="#ADD1B2" rx="11" ry="11" style="stroke: #A80036; stroke-width: 1.0;"/><path d="M1386.2656,160.687 Q1386.4219,160.4683 1386.6094,160.3589 Q1386.7969,160.2495 1387.0156,160.2495 Q1387.3906,160.2495 1387.625,160.5151 Q1387.8594,160.7651 1387.8594,161.3745 L1387.8594,162.8276 Q1387.8594,163.437 1387.625,163.7026 Q1387.3906,163.9683 1387.0156,163.9683 Q1386.6719,163.9683 1386.4688,163.7651 Q1386.2656,163.5776 1386.1563,163.062 Q1386.1094,162.7026 1385.9219,162.5151 Q1385.5938,162.1401 1384.9844,161.9214 Q1384.375,161.7026 1383.75,161.7026 Q1382.9844,161.7026 1382.3438,162.0308 Q1381.7188,162.3589 1381.2188,163.1089 Q1380.7344,163.8589 1380.7344,164.8901 L1380.7344,165.9839 Q1380.7344,167.2183 1381.625,168.0464 Q1382.5156,168.8589 1384.1094,168.8589 Q1385.0469,168.8589 1385.7031,168.6089 Q1386.0938,168.4526 1386.5156,168.0151 Q1386.7813,167.7495 1386.9219,167.6714 Q1387.0781,167.5933 1387.2813,167.5933 Q1387.6094,167.5933 1387.8594,167.8589 Q1388.125,168.1089 1388.125,168.4526 Q1388.125,168.7964 1387.7813,169.2026 Q1387.2813,169.7808 1386.4844,170.1089 Q1385.4063,170.562 1384.1094,170.562 Q1382.5938,170.562 1381.3906,169.937 Q1380.4063,169.437 1379.7188,168.3745 Q1379.0313,167.2964 1379.0313,166.0151 L1379.0313,164.8589 Q1379.0313,163.5308 1379.6406,162.3901 Q1380.2656,161.2339 1381.3594,160.6245 Q1382.4531,159.9995 1383.6875,159.9995 Q1384.4219,159.9995 1385.0625,160.1714 Q1385.7188,160.3276 1386.2656,160.687 Z "/><text fill="#000000" font-family="sans-serif" font-size="12" lengthAdjust="spacingAndGlyphs" textLength="59" x="1397.5" y="169.7222">Command</text><line style="stroke: #A80036; stroke-width: 1.5;" x1="1369.5" x2="1458.5" y1="180.812" y2="180.812"/><line style="stroke: #A80036; stroke-width: 1.5;" x1="1369.5" x2="1458.5" y1="188.812" y2="188.812"/><!--MD5=[ae8b7cdc49d99fbec8c7e641a97b4a7f]
class utils.YesNoDialog--><rect fill="#FEFECE" filter="url(#f1t7o6tfff7zxg)" height="48" id="utils.YesNoDialog" style="stroke: #A80036; stroke-width: 1.5;" width="105" x="1658.5" y="148.812"/><ellipse cx="1673.5" cy="164.812" fill="#ADD1B2" rx="11" ry="11" style="stroke: #A80036; stroke-width: 1.0;"/><path d="M1676.2656,160.687 Q1676.4219,160.4683 1676.6094,160.3589 Q1676.7969,160.2495 1677.0156,160.2495 Q1677.3906,160.2495 1677.625,160.5151 Q1677.8594,160.7651 1677.8594,161.3745 L1677.8594,162.8276 Q1677.8594,163.437 1677.625,163.7026 Q1677.3906,163.9683 1677.0156,163.9683 Q1676.6719,163.9683 1676.4688,163.7651 Q1676.2656,163.5776 1676.1563,163.062 Q1676.1094,162.7026 1675.9219,162.5151 Q1675.5938,162.1401 1674.9844,161.9214 Q1674.375,161.7026 1673.75,161.7026 Q1672.9844,161.7026 1672.3438,162.0308 Q1671.7188,162.3589 1671.2188,163.1089 Q1670.7344,163.8589 1670.7344,164.8901 L1670.7344,165.9839 Q1670.7344,167.2183 1671.625,168.0464 Q1672.5156,168.8589 1674.1094,168.8589 Q1675.0469,168.8589 1675.7031,168.6089 Q1676.0938,168.4526 1676.5156,168.0151 Q1676.7813,167.7495 1676.9219,167.6714 Q1677.0781,167.5933 1677.2813,167.5933 Q1677.6094,167.5933 1677.8594,167.8589 Q1678.125,168.1089 1678.125,168.4526 Q1678.125,168.7964 1677.7813,169.2026 Q1677.2813,169.7808 1676.4844,170.1089 Q1675.4063,170.562 1674.1094,170.562 Q1672.5938,170.562 1671.3906,169.937 Q1670.4063,169.437 1669.7188,168.3745 Q1669.0313,167.2964 1669.0313,166.0151 L1669.0313,164.8589 Q1669.0313,163.5308 1669.6406,162.3901 Q1670.2656,161.2339 1671.3594,160.6245 Q1672.4531,159.9995 1673.6875,159.9995 Q1674.4219,159.9995 1675.0625,160.1714 Q1675.7188,160.3276 1676.2656,160.687 Z "/><text fill="#000000" font-family="sans-serif" font-size="12" lengthAdjust="spacingAndGlyphs" textLength="73" x="1687.5" y="169.7222">YesNoDialog</text><line style="stroke: #A80036; stroke-width: 1.5;" x1="1659.5" x2="1762.5" y1="180.812" y2="180.812"/><line style="stroke: #A80036; stroke-width: 1.5;" x1="1659.5" x2="1762.5" y1="188.812" y2="188.812"/><!--MD5=[5e155263c86bb2c1552f9517752e5c41]
reverse link utils.WithConsoleView to tictactoe.views.BoardView--><path d="M1525.15,211.621 C1511.5,224.464 1494.78,237.524 1477,245.312 C1251.35,344.132 1156.94,219.601 926,305.312 C920.185,307.47 914.393,310.273 908.805,313.42 " fill="none" id="utils.WithConsoleView&lt;-tictactoe.views.BoardView" style="stroke: #A80036; stroke-width: 1.0;"/><polygon fill="none" points="1520.6,206.272,1539.64,196.973,1530.55,216.116,1520.6,206.272" style="stroke: #A80036; stroke-width: 1.0;"/><!--MD5=[373e0a3a259aedfe70e02799076fca46]
reverse link utils.Command to tictactoe.views.Command--><path d="M1397.18,130.126 C1380.83,95.128 1352.3,47.962 1310.5,26.312 C1271.28,6 554.811,6.178 515.5,26.312 C468.494,50.387 437.661,106.238 422.075,141.605 " fill="none" id="utils.Command&lt;-tictactoe.views.Command" style="stroke: #A80036; stroke-width: 1.0;"/><polygon fill="none" points="1403.64,127.428,1405.21,148.559,1390.8,133.021,1403.64,127.428" style="stroke: #A80036; stroke-width: 1.0;"/><!--MD5=[0078aa0d9a37798fa4eeae0c6b944122]
reverse link utils.WithConsoleView to tictactoe.views.CoordinateView--><path d="M1525.68,211.397 C1511.96,224.398 1495.06,237.623 1477,245.312 C1198.27,364.018 1094.17,241.55 798,305.312 C779.879,309.213 760.779,314.973 743.081,321.049 " fill="none" id="utils.WithConsoleView&lt;-tictactoe.views.CoordinateView" style="stroke: #A80036; stroke-width: 1.0;"/><polygon fill="none" points="1520.69,206.484,1539.7,197.121,1530.68,216.294,1520.69,206.484" style="stroke: #A80036; stroke-width: 1.0;"/><!--MD5=[2a91e61d842c8eb63ab77453c2972c25]
link tictactoe.views.GameView to tictactoe.views.MessageView--><path d="M903.879,233.987 C852.877,267.171 799.624,302.292 798,305.312 C773.883,350.156 780.708,402.439 798.585,450.192 " fill="none" id="tictactoe.views.GameView-&gt;tictactoe.views.MessageView" style="stroke: #A80036; stroke-width: 1.0; stroke-dasharray: 7.0,7.0;"/><polygon fill="#A80036" points="800.465,455.096,800.9779,445.2605,798.675,450.4274,793.5081,448.1245,800.465,455.096" style="stroke: #A80036; stroke-width: 1.0;"/><!--MD5=[d6bc30edf5faae9d191a6ec68b4f10fa]
link tictactoe.views.GameView to tictactoe.views.BoardView--><path d="M941.896,245.448 C925.492,266.772 908.078,289.411 893.708,308.091 " fill="none" id="tictactoe.views.GameView-&gt;tictactoe.views.BoardView" style="stroke: #A80036; stroke-width: 1.0; stroke-dasharray: 7.0,7.0;"/><polygon fill="#A80036" points="890.502,312.26,899.1601,307.5655,893.5507,308.297,892.8192,302.6876,890.502,312.26" style="stroke: #A80036; stroke-width: 1.0;"/><!--MD5=[b38a0be70c296bacd454491abefdc154]
link tictactoe.views.GameView to tictactoe.views.ResultView--><path d="M997,245.448 C997,269.113 997,294.398 997,314.095 " fill="none" id="tictactoe.views.GameView-&gt;tictactoe.views.ResultView" style="stroke: #A80036; stroke-width: 1.0; stroke-dasharray: 7.0,7.0;"/><polygon fill="#A80036" points="997,319.236,1001,310.236,997,314.236,993,310.236,997,319.236" style="stroke: #A80036; stroke-width: 1.0;"/><!--MD5=[2823be92c9c26277b2a6b4b596b9fca2]
link tictactoe.views.MovementCommand to tictactoe.views.MessageView--><path d="M179.542,388.15 C185.398,390.691 191.266,393.112 197,395.312 C390.918,469.721 624.448,532.057 764.321,566.611 " fill="none" id="tictactoe.views.MovementCommand-&gt;tictactoe.views.MessageView" style="stroke: #A80036; stroke-width: 1.0; stroke-dasharray: 7.0,7.0;"/><polygon fill="#A80036" points="769.257,567.828,761.4766,561.7894,764.4024,566.6308,759.561,569.5567,769.257,567.828" style="stroke: #A80036; stroke-width: 1.0;"/><!--MD5=[065ea3640a14c8d0db79eb6faebd5481]
reverse link tictactoe.views.Command to tictactoe.views.RedoCommand--><path d="M377.127,220.717 C357.029,249.393 331.681,285.56 312.99,312.229 " fill="none" id="tictactoe.views.Command&lt;-tictactoe.views.RedoCommand" style="stroke: #A80036; stroke-width: 1.0;"/><polygon fill="none" points="371.645,216.342,388.856,203.982,383.109,224.377,371.645,216.342" style="stroke: #A80036; stroke-width: 1.0;"/><!--MD5=[79cc783a6671cb9f7e96314dfa63bbc5]
reverse link utils.WithConsoleView to tictactoe.views.ResultView--><path d="M1524.7,211.536 C1511.09,224.254 1494.51,237.252 1477,245.312 C1310.11,322.131 1240.57,242.275 1068,305.312 C1058.33,308.845 1048.56,313.802 1039.49,319.123 " fill="none" id="utils.WithConsoleView&lt;-tictactoe.views.ResultView" style="stroke: #A80036; stroke-width: 1.0;"/><polygon fill="none" points="1520.1,206.239,1539.19,197.049,1530,216.14,1520.1,206.239" style="stroke: #A80036; stroke-width: 1.0;"/><!--MD5=[f07945de84a5d4a2de4970820f01fc75]
link tictactoe.views.ResultView to tictactoe.views.MessageView--><path d="M983.415,381.784 C975.33,399.921 964.413,424.409 952.85,450.345 " fill="none" id="tictactoe.views.ResultView-&gt;tictactoe.views.MessageView" style="stroke: #A80036; stroke-width: 1.0; stroke-dasharray: 7.0,7.0;"/><polygon fill="#A80036" points="950.684,455.203,958.0016,448.6111,952.7196,450.6361,950.6946,445.3541,950.684,455.203" style="stroke: #A80036; stroke-width: 1.0;"/><!--MD5=[9e12bfae07c80dc3a2c78b5434e538a7]
link tictactoe.views.ResumeView to utils.YesNoDialog--><path d="M1312.12,343.777 C1389.2,333.849 1534.46,307.866 1641,245.312 C1660.17,234.056 1677.67,216.187 1690.37,201.129 " fill="none" id="tictactoe.views.ResumeView-&gt;utils.YesNoDialog" style="stroke: #A80036; stroke-width: 1.0; stroke-dasharray: 7.0,7.0;"/><polygon fill="#A80036" points="1693.83,196.965,1685.0028,201.3331,1690.6356,200.8115,1691.1572,206.4442,1693.83,196.965" style="stroke: #A80036; stroke-width: 1.0;"/><!--MD5=[3edc3fd203ce254fdf9725bbd19e890c]
link tictactoe.views.ResumeView to tictactoe.views.MessageView--><path d="M1213.14,381.538 C1162.96,414.606 1080.43,468.996 1011.08,514.702 " fill="none" id="tictactoe.views.ResumeView-&gt;tictactoe.views.MessageView" style="stroke: #A80036; stroke-width: 1.0; stroke-dasharray: 7.0,7.0;"/><polygon fill="#A80036" points="1006.53,517.699,1016.2481,516.0996,1010.7086,514.9533,1011.855,509.4138,1006.53,517.699" style="stroke: #A80036; stroke-width: 1.0;"/><!--MD5=[966179d8fef886a25ae727661f9b2e48]
reverse link utils.WithConsoleView to tictactoe.views.StartView--><path d="M1524.15,211.247 C1510.57,223.82 1494.14,236.799 1477,245.312 C1359.51,303.657 1307.85,251.973 1188,305.312 C1179.74,308.989 1171.51,313.944 1163.91,319.205 " fill="none" id="utils.WithConsoleView&lt;-tictactoe.views.StartView" style="stroke: #A80036; stroke-width: 1.0;"/><polygon fill="none" points="1519.5,206.001,1538.67,196.964,1529.32,215.981,1519.5,206.001" style="stroke: #A80036; stroke-width: 1.0;"/><!--MD5=[acc41e7aa9beecc5caef020a4c923094]
link tictactoe.views.StartView to tictactoe.views.MessageView--><path d="M1098.09,381.784 C1075.54,404.757 1042.99,437.92 1010.21,471.308 " fill="none" id="tictactoe.views.StartView-&gt;tictactoe.views.MessageView" style="stroke: #A80036; stroke-width: 1.0; stroke-dasharray: 7.0,7.0;"/><polygon fill="#A80036" points="1006.63,474.958,1015.7877,471.3335,1010.1311,471.3884,1010.0763,465.7318,1006.63,474.958" style="stroke: #A80036; stroke-width: 1.0;"/><!--MD5=[cd903ed9d6cf77efbf35849cc39c9794]
reverse link tictactoe.views.Command to tictactoe.views.UndoCommand--><path d="M429.554,222.836 C439.845,248.637 452.365,280.026 462.357,305.079 " fill="none" id="tictactoe.views.Command&lt;-tictactoe.views.UndoCommand" style="stroke: #A80036; stroke-width: 1.0;"/><polygon fill="none" points="422.941,225.152,422.033,203.982,435.945,219.965,422.941,225.152" style="stroke: #A80036; stroke-width: 1.0;"/><!--MD5=[61bdd5223030fd9acb41e37c52425928]
link tictactoe.views.UndoCommand to tictactoe.views.MessageView--><path d="M553.886,395.589 C612.646,430.802 696.124,480.828 764.938,522.065 " fill="none" id="tictactoe.views.UndoCommand-&gt;tictactoe.views.MessageView" style="stroke: #A80036; stroke-width: 1.0; stroke-dasharray: 7.0,7.0;"/><polygon fill="#A80036" points="769.449,524.769,763.7872,516.7102,765.1608,522.1978,759.6732,523.5714,769.449,524.769" style="stroke: #A80036; stroke-width: 1.0;"/><!--MD5=[4574fdac031bfd32a1af6a2f4dae5e0a]
link tictactoe.views.UserPlayerView to tictactoe.views.CoordinateView--><path d="M623.142,203.982 C633.432,234.587 649.346,281.926 660.195,314.198 " fill="none" id="tictactoe.views.UserPlayerView-&gt;tictactoe.views.CoordinateView" style="stroke: #A80036; stroke-width: 1.0; stroke-dasharray: 7.0,7.0;"/><polygon fill="#A80036" points="661.891,319.243,662.8158,309.4377,660.2983,314.5035,655.2325,311.986,661.891,319.243" style="stroke: #A80036; stroke-width: 1.0;"/><!--MD5=[916a0c95a0c9e373b6ddbd8beb7f635a]
@startuml

class  tictactoe.views.BoardView{
~ write(): void
~ writeln(): void
}
utils.WithConsoleView <|-down- tictactoe.views.BoardView

class  tictactoe.views.Command{
~ read(String): Coordinate
}
utils.Command <|-down- tictactoe.views.Command

class  tictactoe.views.CoordinateView{
~ read(String): Coordinate
}
utils.WithConsoleView <|-down- tictactoe.views.CoordinateView

class  tictactoe.views.ErrorView{
+ {static} MESSAGES: String[]
# error: Error
+ ErrorView(Error)
~ writeln(): void
}

class  tictactoe.views.GameView{
+ writeSeparator(): void
+ writeVerticalLineLeft(): void
+ writeVerticalLineCentered(): void
+ writeEmpty(): void
+ writeLineBreak(): void
+ writeToken(char): void
+ writeWinner(char): void
}
tictactoe.views.GameView ..> tictactoe.views.MessageView
tictactoe.views.GameView ..> tictactoe.views.BoardView
tictactoe.views.GameView ..> tictactoe.views.ResultView

enum  tictactoe.views.MessageView{
+ EMPTY: MessageView
+ SEPARATOR: MessageView
+ VERTICAL_LINE_CENTERED: MessageView
+ VERTICAL_LINE_LEFT: MessageView
+	PLAYER_WIN: MessageView
+	START_GAME: MessageView
+	CHOOSE_PLAYER: MessageView
+	READ_ROW: MessageView
+	READ_COLUMN: MessageView
+	ERROR: MessageView
+ PROPOSE_COMMAND: MessageView
+ UNDO_COMMAND: MessageView
+ REDO_COMMAND: MessageView
+ RESUME: MessageView
- message: String
- MessageView(String)
+ getMessage(): String
}

class  tictactoe.views.MovementCommand{
+ MovementCommand()
+ setActive(boolean): void
}
tictactoe.views.MovementCommand ..> tictactoe.views.MessageView

class tictactoe.views.RedoCommand{
~ RedoCommand()
+ setActive(boolean): void
}
tictactoe.views.Command <|-down- tictactoe.views.RedoCommand

class tictactoe.views.ResultView{
~ write(char): void
}
utils.WithConsoleView <|-down- tictactoe.views.ResultView
tictactoe.views.ResultView ..> tictactoe.views.MessageView

class tictactoe.views.ResumeView{
~ read(): boolean
}
tictactoe.views.ResumeView ..> utils.YesNoDialog
tictactoe.views.ResumeView ..> tictactoe.views.MessageView

class tictactoe.views.StartView{
~ write(): void
}
utils.WithConsoleView <|-down- tictactoe.views.StartView
tictactoe.views.StartView ..> tictactoe.views.MessageView

class tictactoe.views.UndoCommand{
+ UndoCommand(PlayController)
# execute(): void
+ setActive(boolean): void
}
tictactoe.views.Command <|-down- tictactoe.views.UndoCommand
tictactoe.views.UndoCommand ..> tictactoe.views.MessageView

class  tictactoe.views.UserPlayerView{
+ readCoordinate(String): Coordinate
}
tictactoe.views.UserPlayerView ..> tictactoe.views.CoordinateView

@enduml

PlantUML version 1.2020.15(Sun Jun 28 13:39:45 CEST 2020)
(GPL source distribution)
Java Runtime: Java(TM) SE Runtime Environment
JVM: Java HotSpot(TM) 64-Bit Server VM
Default Encoding: windows-1252
Language: es
Country: ES
--></g></svg>