<?xml version="1.0" encoding="UTF-8" standalone="no"?><svg xmlns="http://www.w3.org/2000/svg" xmlns:xlink="http://www.w3.org/1999/xlink" contentScriptType="application/ecmascript" contentStyleType="text/css" height="1009px" preserveAspectRatio="none" style="width:2161px;height:1009px;" version="1.1" viewBox="0 0 2161 1009" width="2161px" zoomAndPan="magnify"><defs><filter height="300%" id="f1uziblrf07fdr" width="300%" x="-1" y="-1"><feGaussianBlur result="blurOut" stdDeviation="2.0"/><feColorMatrix in="blurOut" result="blurOut2" type="matrix" values="0 0 0 0 0 0 0 0 0 0 0 0 0 0 0 0 0 0 .4 0"/><feOffset dx="4.0" dy="4.0" in="blurOut2" result="blurOut3"/><feBlend in="SourceGraphic" in2="blurOut3" mode="normal"/></filter></defs><g><!--MD5=[c6efd01a6f310cf3950d2522b9f474d7]
cluster tictactoe.views.graphics--><polygon fill="#FFFFFF" filter="url(#f1uziblrf07fdr)" points="477.0975,130,654.0975,130,661.0975,153.6094,1440.0945,153.6094,1440.0945,997,477.0975,997,477.0975,130" style="stroke: #000000; stroke-width: 1.5;"/><line style="stroke: #000000; stroke-width: 1.5;" x1="477.0975" x2="661.0975" y1="153.6094" y2="153.6094"/><text fill="#000000" font-family="sans-serif" font-size="14" font-weight="bold" lengthAdjust="spacingAndGlyphs" textLength="171" x="481.0975" y="146.5332">tictactoe.views.graphics</text><!--MD5=[535aab4de90d4dfa371a9b40d5438fc3]
cluster javax.swing--><polygon fill="#FFFFFF" filter="url(#f1uziblrf07fdr)" points="1464.0945,821,1552.0945,821,1559.0945,844.6094,2139.0945,844.6094,2139.0945,921,1464.0945,921,1464.0945,821" style="stroke: #000000; stroke-width: 1.5;"/><line style="stroke: #000000; stroke-width: 1.5;" x1="1464.0945" x2="1559.0945" y1="844.6094" y2="844.6094"/><text fill="#000000" font-family="sans-serif" font-size="14" font-weight="bold" lengthAdjust="spacingAndGlyphs" textLength="82" x="1468.0945" y="837.5332">javax.swing</text><!--MD5=[d63c23c2d4b14118d71bd46d55a646bd]
cluster java.awt.event--><polygon fill="#FFFFFF" filter="url(#f1uziblrf07fdr)" points="48.0979,355.5,156.0979,355.5,163.0979,379.1094,453.0975,379.1094,453.0975,455.5,48.0979,455.5,48.0979,355.5" style="stroke: #000000; stroke-width: 1.5;"/><line style="stroke: #000000; stroke-width: 1.5;" x1="48.0979" x2="163.0979" y1="379.1094" y2="379.1094"/><text fill="#000000" font-family="sans-serif" font-size="14" font-weight="bold" lengthAdjust="spacingAndGlyphs" textLength="102" x="52.0979" y="372.0332">java.awt.event</text><!--MD5=[759bc1a2d1cdb88d67db1361d51b76e0]
cluster java.awt--><polygon fill="#FFFFFF" filter="url(#f1uziblrf07fdr)" points="279.0975,574.5,342.0975,574.5,349.0975,598.1094,453.0975,598.1094,453.0975,674.5,279.0975,674.5,279.0975,574.5" style="stroke: #000000; stroke-width: 1.5;"/><line style="stroke: #000000; stroke-width: 1.5;" x1="279.0975" x2="349.0975" y1="598.1094" y2="598.1094"/><text fill="#000000" font-family="sans-serif" font-size="14" font-weight="bold" lengthAdjust="spacingAndGlyphs" textLength="57" x="283.0975" y="591.0332">java.awt</text><!--MD5=[f4e83a21a957c5b9ba9691e6361db36b]
cluster tictactoe.views--><polygon fill="#FFFFFF" filter="url(#f1uziblrf07fdr)" points="811.0975,6,923.0975,6,930.0975,29.6094,1028.0945,29.6094,1028.0945,106,811.0975,106,811.0975,6" style="stroke: #000000; stroke-width: 1.5;"/><line style="stroke: #000000; stroke-width: 1.5;" x1="811.0975" x2="930.0975" y1="29.6094" y2="29.6094"/><text fill="#000000" font-family="sans-serif" font-size="14" font-weight="bold" lengthAdjust="spacingAndGlyphs" textLength="106" x="815.0975" y="22.5332">tictactoe.views</text><!--MD5=[1488acd067cf8477d3fdfc79c98f1c5a]
class tictactoe.views.graphics.BoardView--><rect fill="#FEFECE" filter="url(#f1uziblrf07fdr)" height="89.5078" id="tictactoe.views.graphics.BoardView" style="stroke: #A80036; stroke-width: 1.5;" width="244" x="1180.0945" y="836"/><ellipse cx="1268.3445" cy="852" fill="#ADD1B2" rx="11" ry="11" style="stroke: #A80036; stroke-width: 1.0;"/><path d="M1271.1101,847.875 Q1271.2664,847.6563 1271.4539,847.5469 Q1271.6414,847.4375 1271.8601,847.4375 Q1272.2351,847.4375 1272.4695,847.7031 Q1272.7039,847.9531 1272.7039,848.5625 L1272.7039,850.0156 Q1272.7039,850.625 1272.4695,850.8906 Q1272.2351,851.1563 1271.8601,851.1563 Q1271.5164,851.1563 1271.3133,850.9531 Q1271.1101,850.7656 1271.0008,850.25 Q1270.9539,849.8906 1270.7664,849.7031 Q1270.4383,849.3281 1269.8289,849.1094 Q1269.2195,848.8906 1268.5945,848.8906 Q1267.8289,848.8906 1267.1883,849.2188 Q1266.5633,849.5469 1266.0633,850.2969 Q1265.5789,851.0469 1265.5789,852.0781 L1265.5789,853.1719 Q1265.5789,854.4063 1266.4695,855.2344 Q1267.3601,856.0469 1268.9539,856.0469 Q1269.8914,856.0469 1270.5476,855.7969 Q1270.9383,855.6406 1271.3601,855.2031 Q1271.6258,854.9375 1271.7664,854.8594 Q1271.9226,854.7813 1272.1258,854.7813 Q1272.4539,854.7813 1272.7039,855.0469 Q1272.9695,855.2969 1272.9695,855.6406 Q1272.9695,855.9844 1272.6258,856.3906 Q1272.1258,856.9688 1271.3289,857.2969 Q1270.2508,857.75 1268.9539,857.75 Q1267.4383,857.75 1266.2351,857.125 Q1265.2508,856.625 1264.5633,855.5625 Q1263.8758,854.4844 1263.8758,853.2031 L1263.8758,852.0469 Q1263.8758,850.7188 1264.4851,849.5781 Q1265.1101,848.4219 1266.2039,847.8125 Q1267.2976,847.1875 1268.532,847.1875 Q1269.2664,847.1875 1269.907,847.3594 Q1270.5633,847.5156 1271.1101,847.875 Z "/><text fill="#000000" font-family="sans-serif" font-size="12" lengthAdjust="spacingAndGlyphs" textLength="59" x="1288.8445" y="856.9102">BoardView</text><line style="stroke: #A80036; stroke-width: 1.5;" x1="1181.0945" x2="1423.0945" y1="868" y2="868"/><line style="stroke: #A80036; stroke-width: 1.5;" x1="1181.0945" x2="1423.0945" y1="876" y2="876"/><polygon fill="#4177AF" points="1191.0945,883,1187.0945,889,1195.0945,889" style="stroke: #1963A0; stroke-width: 1.0;"/><text fill="#000000" font-family="sans-serif" font-size="11" lengthAdjust="spacingAndGlyphs" textLength="92" x="1200.0945" y="891.4189">BoardView(Board)</text><rect fill="#F24D5C" height="6" style="stroke: #C82930; stroke-width: 1.0;" width="6" x="1188.0945" y="897.8359"/><text fill="#000000" font-family="sans-serif" font-size="11" lengthAdjust="spacingAndGlyphs" textLength="153" x="1200.0945" y="905.2549">printRowBoard(Board, int): void</text><rect fill="#F24D5C" height="6" style="stroke: #C82930; stroke-width: 1.0;" width="6" x="1188.0945" y="911.6719"/><text fill="#000000" font-family="sans-serif" font-size="11" lengthAdjust="spacingAndGlyphs" textLength="218" x="1200.0945" y="919.0908">printSquareValueBoard(Board, int, int): String</text><!--MD5=[bf187ea903bc4b15dc6e3ab88f11d3ae]
class tictactoe.views.graphics.ChoosePlayersView--><rect fill="#FEFECE" filter="url(#f1uziblrf07fdr)" height="172.5234" id="tictactoe.views.graphics.ChoosePlayersView" style="stroke: #A80036; stroke-width: 1.5;" width="197" x="1214.5945" y="548"/><ellipse cx="1253.8945" cy="564" fill="#ADD1B2" rx="11" ry="11" style="stroke: #A80036; stroke-width: 1.0;"/><path d="M1256.6601,559.875 Q1256.8164,559.6563 1257.0039,559.5469 Q1257.1914,559.4375 1257.4101,559.4375 Q1257.7851,559.4375 1258.0195,559.7031 Q1258.2539,559.9531 1258.2539,560.5625 L1258.2539,562.0156 Q1258.2539,562.625 1258.0195,562.8906 Q1257.7851,563.1563 1257.4101,563.1563 Q1257.0664,563.1563 1256.8632,562.9531 Q1256.6601,562.7656 1256.5507,562.25 Q1256.5039,561.8906 1256.3164,561.7031 Q1255.9882,561.3281 1255.3789,561.1094 Q1254.7695,560.8906 1254.1445,560.8906 Q1253.3789,560.8906 1252.7382,561.2188 Q1252.1132,561.5469 1251.6132,562.2969 Q1251.1289,563.0469 1251.1289,564.0781 L1251.1289,565.1719 Q1251.1289,566.4063 1252.0195,567.2344 Q1252.9101,568.0469 1254.5039,568.0469 Q1255.4414,568.0469 1256.0976,567.7969 Q1256.4882,567.6406 1256.9101,567.2031 Q1257.1757,566.9375 1257.3164,566.8594 Q1257.4726,566.7813 1257.6757,566.7813 Q1258.0039,566.7813 1258.2539,567.0469 Q1258.5195,567.2969 1258.5195,567.6406 Q1258.5195,567.9844 1258.1757,568.3906 Q1257.6757,568.9688 1256.8789,569.2969 Q1255.8007,569.75 1254.5039,569.75 Q1252.9882,569.75 1251.7851,569.125 Q1250.8007,568.625 1250.1132,567.5625 Q1249.4257,566.4844 1249.4257,565.2031 L1249.4257,564.0469 Q1249.4257,562.7188 1250.0351,561.5781 Q1250.6601,560.4219 1251.7539,559.8125 Q1252.8476,559.1875 1254.082,559.1875 Q1254.8164,559.1875 1255.457,559.3594 Q1256.1132,559.5156 1256.6601,559.875 Z "/><text fill="#000000" font-family="sans-serif" font-size="12" lengthAdjust="spacingAndGlyphs" textLength="111" x="1273.2945" y="568.9102">ChoosePlayersView</text><line style="stroke: #A80036; stroke-width: 1.5;" x1="1215.5945" x2="1410.5945" y1="580" y2="580"/><rect fill="none" height="6" style="stroke: #C82930; stroke-width: 1.0;" width="6" x="1222.5945" y="588"/><text fill="#000000" font-family="sans-serif" font-size="11" lengthAdjust="spacingAndGlyphs" text-decoration="underline" textLength="74" x="1234.5945" y="595.4189">ACCEPT: String</text><rect fill="none" height="6" style="stroke: #C82930; stroke-width: 1.0;" width="6" x="1222.5945" y="601.8359"/><text fill="#000000" font-family="sans-serif" font-size="11" lengthAdjust="spacingAndGlyphs" textLength="59" x="1234.5945" y="609.2549">label: JLabel</text><rect fill="none" height="6" style="stroke: #C82930; stroke-width: 1.0;" width="6" x="1222.5945" y="615.6719"/><text fill="#000000" font-family="sans-serif" font-size="11" lengthAdjust="spacingAndGlyphs" textLength="94" x="1234.5945" y="623.0908">textField: JTextField</text><rect fill="none" height="6" style="stroke: #C82930; stroke-width: 1.0;" width="6" x="1222.5945" y="629.5078"/><text fill="#000000" font-family="sans-serif" font-size="11" lengthAdjust="spacingAndGlyphs" textLength="72" x="1234.5945" y="636.9268">button: JButton</text><rect fill="none" height="6" style="stroke: #C82930; stroke-width: 1.0;" width="6" x="1222.5945" y="643.3438"/><text fill="#000000" font-family="sans-serif" font-size="11" lengthAdjust="spacingAndGlyphs" textLength="107" x="1234.5945" y="650.7627">playersNumber: String</text><line style="stroke: #A80036; stroke-width: 1.5;" x1="1215.5945" x2="1410.5945" y1="657.1797" y2="657.1797"/><polygon fill="#4177AF" points="1225.5945,664.1797,1221.5945,670.1797,1229.5945,670.1797" style="stroke: #1963A0; stroke-width: 1.0;"/><text fill="#000000" font-family="sans-serif" font-size="11" lengthAdjust="spacingAndGlyphs" textLength="158" x="1234.5945" y="672.5986">ChoosePlayersView(JRootPane)</text><polygon fill="#4177AF" points="1225.5945,678.0156,1221.5945,684.0156,1229.5945,684.0156" style="stroke: #1963A0; stroke-width: 1.0;"/><text fill="#000000" font-family="sans-serif" font-size="11" lengthAdjust="spacingAndGlyphs" textLength="132" x="1234.5945" y="686.4346">resetPlayersNumber(): void</text><polygon fill="#4177AF" points="1225.5945,691.8516,1221.5945,697.8516,1229.5945,697.8516" style="stroke: #1963A0; stroke-width: 1.0;"/><text fill="#000000" font-family="sans-serif" font-size="11" lengthAdjust="spacingAndGlyphs" textLength="130" x="1234.5945" y="700.2705">getPlayersNumber(): String</text><ellipse cx="1225.5945" cy="709.6875" fill="#84BE84" rx="3" ry="3" style="stroke: #038048; stroke-width: 1.0;"/><text fill="#000000" font-family="sans-serif" font-size="11" lengthAdjust="spacingAndGlyphs" textLength="171" x="1234.5945" y="714.1064">actionPerformed(ActionEvent): void</text><!--MD5=[a27bdde19497c0eda453638e91b4b00c]
class tictactoe.views.graphics.Constraints--><rect fill="#FEFECE" filter="url(#f1uziblrf07fdr)" height="61.8359" id="tictactoe.views.graphics.Constraints" style="stroke: #A80036; stroke-width: 1.5;" width="151" x="993.5975" y="850"/><ellipse cx="1033.3475" cy="866" fill="#ADD1B2" rx="11" ry="11" style="stroke: #A80036; stroke-width: 1.0;"/><path d="M1036.1131,861.875 Q1036.2694,861.6563 1036.4569,861.5469 Q1036.6444,861.4375 1036.8631,861.4375 Q1037.2381,861.4375 1037.4725,861.7031 Q1037.7069,861.9531 1037.7069,862.5625 L1037.7069,864.0156 Q1037.7069,864.625 1037.4725,864.8906 Q1037.2381,865.1563 1036.8631,865.1563 Q1036.5194,865.1563 1036.3162,864.9531 Q1036.1131,864.7656 1036.0037,864.25 Q1035.9569,863.8906 1035.7694,863.7031 Q1035.4412,863.3281 1034.8319,863.1094 Q1034.2225,862.8906 1033.5975,862.8906 Q1032.8319,862.8906 1032.1912,863.2188 Q1031.5662,863.5469 1031.0662,864.2969 Q1030.5819,865.0469 1030.5819,866.0781 L1030.5819,867.1719 Q1030.5819,868.4063 1031.4725,869.2344 Q1032.3631,870.0469 1033.9569,870.0469 Q1034.8944,870.0469 1035.5506,869.7969 Q1035.9412,869.6406 1036.3631,869.2031 Q1036.6287,868.9375 1036.7694,868.8594 Q1036.9256,868.7813 1037.1287,868.7813 Q1037.4569,868.7813 1037.7069,869.0469 Q1037.9725,869.2969 1037.9725,869.6406 Q1037.9725,869.9844 1037.6287,870.3906 Q1037.1287,870.9688 1036.3319,871.2969 Q1035.2537,871.75 1033.9569,871.75 Q1032.4412,871.75 1031.2381,871.125 Q1030.2537,870.625 1029.5662,869.5625 Q1028.8787,868.4844 1028.8787,867.2031 L1028.8787,866.0469 Q1028.8787,864.7188 1029.4881,863.5781 Q1030.1131,862.4219 1031.2069,861.8125 Q1032.3006,861.1875 1033.535,861.1875 Q1034.2694,861.1875 1034.91,861.3594 Q1035.5662,861.5156 1036.1131,861.875 Z "/><text fill="#000000" font-family="sans-serif" font-size="12" lengthAdjust="spacingAndGlyphs" textLength="64" x="1052.8475" y="870.9102">Constraints</text><line style="stroke: #A80036; stroke-width: 1.5;" x1="994.5975" x2="1143.5975" y1="882" y2="882"/><line style="stroke: #A80036; stroke-width: 1.5;" x1="994.5975" x2="1143.5975" y1="890" y2="890"/><polygon fill="#4177AF" points="1004.5975,897,1000.5975,903,1008.5975,903" style="stroke: #1963A0; stroke-width: 1.0;"/><text fill="#000000" font-family="sans-serif" font-size="11" lengthAdjust="spacingAndGlyphs" textLength="125" x="1013.5975" y="905.4189">Constraints(int, int, int, int)</text><!--MD5=[2f24f05233341c14cf3ecc7d9f75747f]
class tictactoe.views.graphics.CoordinateMoveView--><rect fill="#FEFECE" filter="url(#f1uziblrf07fdr)" height="200.1953" id="tictactoe.views.graphics.CoordinateMoveView" style="stroke: #A80036; stroke-width: 1.5;" width="233" x="725.5975" y="781"/><ellipse cx="780.3475" cy="797" fill="#ADD1B2" rx="11" ry="11" style="stroke: #A80036; stroke-width: 1.0;"/><path d="M783.1131,792.875 Q783.2694,792.6563 783.4569,792.5469 Q783.6444,792.4375 783.8631,792.4375 Q784.2381,792.4375 784.4725,792.7031 Q784.7069,792.9531 784.7069,793.5625 L784.7069,795.0156 Q784.7069,795.625 784.4725,795.8906 Q784.2381,796.1563 783.8631,796.1563 Q783.5194,796.1563 783.3163,795.9531 Q783.1131,795.7656 783.0038,795.25 Q782.9569,794.8906 782.7694,794.7031 Q782.4413,794.3281 781.8319,794.1094 Q781.2225,793.8906 780.5975,793.8906 Q779.8319,793.8906 779.1913,794.2188 Q778.5663,794.5469 778.0663,795.2969 Q777.5819,796.0469 777.5819,797.0781 L777.5819,798.1719 Q777.5819,799.4063 778.4725,800.2344 Q779.3631,801.0469 780.9569,801.0469 Q781.8944,801.0469 782.5506,800.7969 Q782.9413,800.6406 783.3631,800.2031 Q783.6288,799.9375 783.7694,799.8594 Q783.9256,799.7813 784.1288,799.7813 Q784.4569,799.7813 784.7069,800.0469 Q784.9725,800.2969 784.9725,800.6406 Q784.9725,800.9844 784.6288,801.3906 Q784.1288,801.9688 783.3319,802.2969 Q782.2538,802.75 780.9569,802.75 Q779.4413,802.75 778.2381,802.125 Q777.2538,801.625 776.5663,800.5625 Q775.8788,799.4844 775.8788,798.2031 L775.8788,797.0469 Q775.8788,795.7188 776.4881,794.5781 Q777.1131,793.4219 778.2069,792.8125 Q779.3006,792.1875 780.535,792.1875 Q781.2694,792.1875 781.91,792.3594 Q782.5663,792.5156 783.1131,792.875 Z "/><text fill="#000000" font-family="sans-serif" font-size="12" lengthAdjust="spacingAndGlyphs" textLength="115" x="800.8475" y="801.9102">CoordinateMoveView</text><line style="stroke: #A80036; stroke-width: 1.5;" x1="726.5975" x2="957.5975" y1="813" y2="813"/><rect fill="none" height="6" style="stroke: #C82930; stroke-width: 1.0;" width="6" x="733.5975" y="821"/><text fill="#000000" font-family="sans-serif" font-size="11" lengthAdjust="spacingAndGlyphs" text-decoration="underline" textLength="207" x="745.5975" y="828.4189">ENTER_COORDINATE_TO_REMOVE: String</text><rect fill="none" height="6" style="stroke: #C82930; stroke-width: 1.0;" width="6" x="733.5975" y="834.8359"/><text fill="#000000" font-family="sans-serif" font-size="11" lengthAdjust="spacingAndGlyphs" textLength="120" x="745.5975" y="842.2549">labelRowToMove: JLabel</text><rect fill="none" height="6" style="stroke: #C82930; stroke-width: 1.0;" width="6" x="733.5975" y="848.6719"/><text fill="#000000" font-family="sans-serif" font-size="11" lengthAdjust="spacingAndGlyphs" textLength="132" x="745.5975" y="856.0908">labelColumnToMove: JLabel</text><rect fill="none" height="6" style="stroke: #C82930; stroke-width: 1.0;" width="6" x="733.5975" y="862.5078"/><text fill="#000000" font-family="sans-serif" font-size="11" lengthAdjust="spacingAndGlyphs" textLength="117" x="745.5975" y="869.9268">titleLabelToMove: JLabel</text><rect fill="none" height="6" style="stroke: #C82930; stroke-width: 1.0;" width="6" x="733.5975" y="876.3438"/><text fill="#000000" font-family="sans-serif" font-size="11" lengthAdjust="spacingAndGlyphs" textLength="155" x="745.5975" y="883.7627">textFieldRowToMove: JTextField</text><rect fill="none" height="6" style="stroke: #C82930; stroke-width: 1.0;" width="6" x="733.5975" y="890.1797"/><text fill="#000000" font-family="sans-serif" font-size="11" lengthAdjust="spacingAndGlyphs" textLength="167" x="745.5975" y="897.5986">textFieldColumnToMove: JTextField</text><rect fill="none" height="6" style="stroke: #C82930; stroke-width: 1.0;" width="6" x="733.5975" y="904.0156"/><text fill="#000000" font-family="sans-serif" font-size="11" lengthAdjust="spacingAndGlyphs" textLength="121" x="745.5975" y="911.4346">coordinates: Coordinate[]</text><line style="stroke: #A80036; stroke-width: 1.5;" x1="726.5975" x2="957.5975" y1="917.8516" y2="917.8516"/><polygon fill="#4177AF" points="736.5975,924.8516,732.5975,930.8516,740.5975,930.8516" style="stroke: #1963A0; stroke-width: 1.0;"/><text fill="#000000" font-family="sans-serif" font-size="11" lengthAdjust="spacingAndGlyphs" textLength="112" x="745.5975" y="933.2705">CoordinateMoveView()</text><polygon fill="#4177AF" points="736.5975,938.6875,732.5975,944.6875,740.5975,944.6875" style="stroke: #1963A0; stroke-width: 1.0;"/><text fill="#000000" font-family="sans-serif" font-size="11" lengthAdjust="spacingAndGlyphs" textLength="117" x="745.5975" y="947.1064">resetCoordinates(): void</text><polygon fill="#4177AF" points="736.5975,952.5234,732.5975,958.5234,740.5975,958.5234" style="stroke: #1963A0; stroke-width: 1.0;"/><text fill="#000000" font-family="sans-serif" font-size="11" lengthAdjust="spacingAndGlyphs" textLength="145" x="745.5975" y="960.9424">getCoordinates(): Coordinate[]</text><ellipse cx="736.5975" cy="970.3594" fill="#84BE84" rx="3" ry="3" style="stroke: #038048; stroke-width: 1.0;"/><text fill="#000000" font-family="sans-serif" font-size="11" lengthAdjust="spacingAndGlyphs" textLength="171" x="745.5975" y="974.7783">actionPerformed(ActionEvent): void</text><!--MD5=[3eb81655dffb9cd825c31d070d9c4ca7]
class tictactoe.views.graphics.CoordinateView--><rect fill="#FEFECE" filter="url(#f1uziblrf07fdr)" height="172.5234" id="tictactoe.views.graphics.CoordinateView" style="stroke: #A80036; stroke-width: 1.5;" width="209" x="851.5975" y="548"/><ellipse cx="908.3475" cy="564" fill="#ADD1B2" rx="11" ry="11" style="stroke: #A80036; stroke-width: 1.0;"/><path d="M911.1131,559.875 Q911.2694,559.6563 911.4569,559.5469 Q911.6444,559.4375 911.8631,559.4375 Q912.2381,559.4375 912.4725,559.7031 Q912.7069,559.9531 912.7069,560.5625 L912.7069,562.0156 Q912.7069,562.625 912.4725,562.8906 Q912.2381,563.1563 911.8631,563.1563 Q911.5194,563.1563 911.3163,562.9531 Q911.1131,562.7656 911.0038,562.25 Q910.9569,561.8906 910.7694,561.7031 Q910.4413,561.3281 909.8319,561.1094 Q909.2225,560.8906 908.5975,560.8906 Q907.8319,560.8906 907.1913,561.2188 Q906.5663,561.5469 906.0663,562.2969 Q905.5819,563.0469 905.5819,564.0781 L905.5819,565.1719 Q905.5819,566.4063 906.4725,567.2344 Q907.3631,568.0469 908.9569,568.0469 Q909.8944,568.0469 910.5506,567.7969 Q910.9413,567.6406 911.3631,567.2031 Q911.6288,566.9375 911.7694,566.8594 Q911.9256,566.7813 912.1288,566.7813 Q912.4569,566.7813 912.7069,567.0469 Q912.9725,567.2969 912.9725,567.6406 Q912.9725,567.9844 912.6288,568.3906 Q912.1288,568.9688 911.3319,569.2969 Q910.2538,569.75 908.9569,569.75 Q907.4413,569.75 906.2381,569.125 Q905.2538,568.625 904.5663,567.5625 Q903.8788,566.4844 903.8788,565.2031 L903.8788,564.0469 Q903.8788,562.7188 904.4881,561.5781 Q905.1131,560.4219 906.2069,559.8125 Q907.3006,559.1875 908.535,559.1875 Q909.2694,559.1875 909.91,559.3594 Q910.5663,559.5156 911.1131,559.875 Z "/><text fill="#000000" font-family="sans-serif" font-size="12" lengthAdjust="spacingAndGlyphs" textLength="87" x="928.8475" y="568.9102">CoordinateView</text><line style="stroke: #A80036; stroke-width: 1.5;" x1="852.5975" x2="1059.5975" y1="580" y2="580"/><polygon fill="none" points="862.5975,586,866.5975,590,862.5975,594,858.5975,590" style="stroke: #B38D22; stroke-width: 1.0;"/><text fill="#000000" font-family="sans-serif" font-size="11" lengthAdjust="spacingAndGlyphs" text-decoration="underline" textLength="183" x="871.5975" y="595.4189">ENTER_COORDINATE_TO_PUT: String</text><polygon fill="none" points="862.5975,599.8359,866.5975,603.8359,862.5975,607.8359,858.5975,603.8359" style="stroke: #B38D22; stroke-width: 1.0;"/><text fill="#000000" font-family="sans-serif" font-size="11" lengthAdjust="spacingAndGlyphs" text-decoration="underline" textLength="74" x="871.5975" y="609.2549">ACCEPT: String</text><polygon fill="none" points="862.5975,613.6719,866.5975,617.6719,862.5975,621.6719,858.5975,617.6719" style="stroke: #B38D22; stroke-width: 1.0;"/><text fill="#000000" font-family="sans-serif" font-size="11" lengthAdjust="spacingAndGlyphs" textLength="82" x="871.5975" y="623.0908">labelRow: JLabel</text><polygon fill="none" points="862.5975,627.5078,866.5975,631.5078,862.5975,635.5078,858.5975,631.5078" style="stroke: #B38D22; stroke-width: 1.0;"/><text fill="#000000" font-family="sans-serif" font-size="11" lengthAdjust="spacingAndGlyphs" textLength="94" x="871.5975" y="636.9268">labelColumn: JLabel</text><polygon fill="none" points="862.5975,641.3438,866.5975,645.3438,862.5975,649.3438,858.5975,645.3438" style="stroke: #B38D22; stroke-width: 1.0;"/><text fill="#000000" font-family="sans-serif" font-size="11" lengthAdjust="spacingAndGlyphs" textLength="79" x="871.5975" y="650.7627">titleLabel: JLabel</text><polygon fill="none" points="862.5975,655.1797,866.5975,659.1797,862.5975,663.1797,858.5975,659.1797" style="stroke: #B38D22; stroke-width: 1.0;"/><text fill="#000000" font-family="sans-serif" font-size="11" lengthAdjust="spacingAndGlyphs" textLength="117" x="871.5975" y="664.5986">textFieldRow: JTextField</text><polygon fill="none" points="862.5975,669.0156,866.5975,673.0156,862.5975,677.0156,858.5975,673.0156" style="stroke: #B38D22; stroke-width: 1.0;"/><text fill="#000000" font-family="sans-serif" font-size="11" lengthAdjust="spacingAndGlyphs" textLength="129" x="871.5975" y="678.4346">textFieldColumn: JTextField</text><polygon fill="none" points="862.5975,682.8516,866.5975,686.8516,862.5975,690.8516,858.5975,686.8516" style="stroke: #B38D22; stroke-width: 1.0;"/><text fill="#000000" font-family="sans-serif" font-size="11" lengthAdjust="spacingAndGlyphs" textLength="72" x="871.5975" y="692.2705">button: JButton</text><line style="stroke: #A80036; stroke-width: 1.5;" x1="852.5975" x2="1059.5975" y1="698.6875" y2="698.6875"/><polygon fill="#4177AF" points="862.5975,705.6875,858.5975,711.6875,866.5975,711.6875" style="stroke: #1963A0; stroke-width: 1.0;"/><text fill="#000000" font-family="sans-serif" font-size="11" lengthAdjust="spacingAndGlyphs" textLength="86" x="871.5975" y="714.1064">CoordinateView()</text><!--MD5=[98634edf8044393de7f32bab4509065b]
class tictactoe.views.graphics.CoordinatePutView--><rect fill="#FEFECE" filter="url(#f1uziblrf07fdr)" height="117.1797" id="tictactoe.views.graphics.CoordinatePutView" style="stroke: #A80036; stroke-width: 1.5;" width="197" x="493.5975" y="822.5"/><ellipse cx="535.5975" cy="838.5" fill="#ADD1B2" rx="11" ry="11" style="stroke: #A80036; stroke-width: 1.0;"/><path d="M538.3631,834.375 Q538.5194,834.1563 538.7069,834.0469 Q538.8944,833.9375 539.1131,833.9375 Q539.4881,833.9375 539.7225,834.2031 Q539.9569,834.4531 539.9569,835.0625 L539.9569,836.5156 Q539.9569,837.125 539.7225,837.3906 Q539.4881,837.6563 539.1131,837.6563 Q538.7694,837.6563 538.5663,837.4531 Q538.3631,837.2656 538.2538,836.75 Q538.2069,836.3906 538.0194,836.2031 Q537.6913,835.8281 537.0819,835.6094 Q536.4725,835.3906 535.8475,835.3906 Q535.0819,835.3906 534.4413,835.7188 Q533.8163,836.0469 533.3163,836.7969 Q532.8319,837.5469 532.8319,838.5781 L532.8319,839.6719 Q532.8319,840.9063 533.7225,841.7344 Q534.6131,842.5469 536.2069,842.5469 Q537.1444,842.5469 537.8006,842.2969 Q538.1913,842.1406 538.6131,841.7031 Q538.8788,841.4375 539.0194,841.3594 Q539.1756,841.2813 539.3788,841.2813 Q539.7069,841.2813 539.9569,841.5469 Q540.2225,841.7969 540.2225,842.1406 Q540.2225,842.4844 539.8788,842.8906 Q539.3788,843.4688 538.5819,843.7969 Q537.5038,844.25 536.2069,844.25 Q534.6913,844.25 533.4881,843.625 Q532.5038,843.125 531.8163,842.0625 Q531.1288,840.9844 531.1288,839.7031 L531.1288,838.5469 Q531.1288,837.2188 531.7381,836.0781 Q532.3631,834.9219 533.4569,834.3125 Q534.5506,833.6875 535.785,833.6875 Q536.5194,833.6875 537.16,833.8594 Q537.8163,834.0156 538.3631,834.375 Z "/><text fill="#000000" font-family="sans-serif" font-size="12" lengthAdjust="spacingAndGlyphs" textLength="105" x="555.5975" y="843.4102">CoordinatePutView</text><line style="stroke: #A80036; stroke-width: 1.5;" x1="494.5975" x2="689.5975" y1="854.5" y2="854.5"/><rect fill="none" height="6" style="stroke: #C82930; stroke-width: 1.0;" width="6" x="501.5975" y="862.5"/><text fill="#000000" font-family="sans-serif" font-size="11" lengthAdjust="spacingAndGlyphs" textLength="121" x="513.5975" y="869.9189">coordinates: Coordinate[]</text><line style="stroke: #A80036; stroke-width: 1.5;" x1="494.5975" x2="689.5975" y1="876.3359" y2="876.3359"/><polygon fill="#4177AF" points="504.5975,883.3359,500.5975,889.3359,508.5975,889.3359" style="stroke: #1963A0; stroke-width: 1.0;"/><text fill="#000000" font-family="sans-serif" font-size="11" lengthAdjust="spacingAndGlyphs" textLength="101" x="513.5975" y="891.7549">CoordinatePutView()</text><polygon fill="#4177AF" points="504.5975,897.1719,500.5975,903.1719,508.5975,903.1719" style="stroke: #1963A0; stroke-width: 1.0;"/><text fill="#000000" font-family="sans-serif" font-size="11" lengthAdjust="spacingAndGlyphs" textLength="111" x="513.5975" y="905.5908">resetCoordinate(): void</text><polygon fill="#4177AF" points="504.5975,911.0078,500.5975,917.0078,508.5975,917.0078" style="stroke: #1963A0; stroke-width: 1.0;"/><text fill="#000000" font-family="sans-serif" font-size="11" lengthAdjust="spacingAndGlyphs" textLength="133" x="513.5975" y="919.4268">getCoordinate(): Coordinate</text><ellipse cx="504.5975" cy="928.8438" fill="#84BE84" rx="3" ry="3" style="stroke: #038048; stroke-width: 1.0;"/><text fill="#000000" font-family="sans-serif" font-size="11" lengthAdjust="spacingAndGlyphs" textLength="171" x="513.5975" y="933.2627">actionPerformed(ActionEvent): void</text><!--MD5=[d9ac63eb7bc90e7088d49ac170de6ce7]
class tictactoe.views.graphics.GameView--><rect fill="#FEFECE" filter="url(#f1uziblrf07fdr)" height="144.8516" id="tictactoe.views.graphics.GameView" style="stroke: #A80036; stroke-width: 1.5;" width="229" x="1063.5945" y="343"/><ellipse cx="1143.8445" cy="359" fill="#ADD1B2" rx="11" ry="11" style="stroke: #A80036; stroke-width: 1.0;"/><path d="M1146.6101,354.875 Q1146.7664,354.6563 1146.9539,354.5469 Q1147.1414,354.4375 1147.3601,354.4375 Q1147.7351,354.4375 1147.9695,354.7031 Q1148.2039,354.9531 1148.2039,355.5625 L1148.2039,357.0156 Q1148.2039,357.625 1147.9695,357.8906 Q1147.7351,358.1563 1147.3601,358.1563 Q1147.0164,358.1563 1146.8133,357.9531 Q1146.6101,357.7656 1146.5008,357.25 Q1146.4539,356.8906 1146.2664,356.7031 Q1145.9383,356.3281 1145.3289,356.1094 Q1144.7195,355.8906 1144.0945,355.8906 Q1143.3289,355.8906 1142.6883,356.2188 Q1142.0633,356.5469 1141.5633,357.2969 Q1141.0789,358.0469 1141.0789,359.0781 L1141.0789,360.1719 Q1141.0789,361.4063 1141.9695,362.2344 Q1142.8601,363.0469 1144.4539,363.0469 Q1145.3914,363.0469 1146.0476,362.7969 Q1146.4383,362.6406 1146.8601,362.2031 Q1147.1258,361.9375 1147.2664,361.8594 Q1147.4226,361.7813 1147.6258,361.7813 Q1147.9539,361.7813 1148.2039,362.0469 Q1148.4695,362.2969 1148.4695,362.6406 Q1148.4695,362.9844 1148.1258,363.3906 Q1147.6258,363.9688 1146.8289,364.2969 Q1145.7508,364.75 1144.4539,364.75 Q1142.9383,364.75 1141.7351,364.125 Q1140.7508,363.625 1140.0633,362.5625 Q1139.3758,361.4844 1139.3758,360.2031 L1139.3758,359.0469 Q1139.3758,357.7188 1139.9851,356.5781 Q1140.6101,355.4219 1141.7039,354.8125 Q1142.7976,354.1875 1144.032,354.1875 Q1144.7664,354.1875 1145.407,354.3594 Q1146.0633,354.5156 1146.6101,354.875 Z "/><text fill="#000000" font-family="sans-serif" font-size="12" lengthAdjust="spacingAndGlyphs" textLength="60" x="1164.3445" y="363.9102">GameView</text><line style="stroke: #A80036; stroke-width: 1.5;" x1="1064.5945" x2="1291.5945" y1="375" y2="375"/><rect fill="none" height="6" style="stroke: #C82930; stroke-width: 1.0;" width="6" x="1071.5945" y="383"/><text fill="#000000" font-family="sans-serif" font-size="11" lengthAdjust="spacingAndGlyphs" text-decoration="underline" textLength="99" x="1083.5945" y="390.4189">GAME_OVER: String</text><rect fill="none" height="6" style="stroke: #C82930; stroke-width: 1.0;" width="6" x="1071.5945" y="396.8359"/><text fill="#000000" font-family="sans-serif" font-size="11" lengthAdjust="spacingAndGlyphs" textLength="60" x="1083.5945" y="404.2549">game: Game</text><rect fill="none" height="6" style="stroke: #C82930; stroke-width: 1.0;" width="6" x="1071.5945" y="410.6719"/><text fill="#000000" font-family="sans-serif" font-size="11" lengthAdjust="spacingAndGlyphs" textLength="203" x="1083.5945" y="418.0908">choosePlayersView: ChoosePlayersView</text><line style="stroke: #A80036; stroke-width: 1.5;" x1="1064.5945" x2="1291.5945" y1="424.5078" y2="424.5078"/><polygon fill="#4177AF" points="1074.5945,431.5078,1070.5945,437.5078,1078.5945,437.5078" style="stroke: #1963A0; stroke-width: 1.0;"/><text fill="#000000" font-family="sans-serif" font-size="11" lengthAdjust="spacingAndGlyphs" textLength="90" x="1083.5945" y="439.9268">GameView(Game)</text><polygon fill="#4177AF" points="1074.5945,445.3438,1070.5945,451.3438,1078.5945,451.3438" style="stroke: #1963A0; stroke-width: 1.0;"/><text fill="#000000" font-family="sans-serif" font-size="11" lengthAdjust="spacingAndGlyphs" textLength="56" x="1083.5945" y="453.7627">start(): void</text><polygon fill="#4177AF" points="1074.5945,459.1797,1070.5945,465.1797,1078.5945,465.1797" style="stroke: #1963A0; stroke-width: 1.0;"/><text fill="#000000" font-family="sans-serif" font-size="11" lengthAdjust="spacingAndGlyphs" textLength="72" x="1083.5945" y="467.5986">play(): boolean</text><polygon fill="#4177AF" points="1074.5945,473.0156,1070.5945,479.0156,1078.5945,479.0156" style="stroke: #1963A0; stroke-width: 1.0;"/><text fill="#000000" font-family="sans-serif" font-size="11" lengthAdjust="spacingAndGlyphs" textLength="61" x="1083.5945" y="481.4346">result(): void</text><!--MD5=[772dd3201fd937c98b35c61c5b2a37e1]
class tictactoe.views.graphics.GraphicsView--><rect fill="#FEFECE" filter="url(#f1uziblrf07fdr)" height="117.1797" id="tictactoe.views.graphics.GraphicsView" style="stroke: #A80036; stroke-width: 1.5;" width="138" x="736.0975" y="166"/><ellipse cx="764.5975" cy="182" fill="#ADD1B2" rx="11" ry="11" style="stroke: #A80036; stroke-width: 1.0;"/><path d="M767.3631,177.875 Q767.5194,177.6563 767.7069,177.5469 Q767.8944,177.4375 768.1131,177.4375 Q768.4881,177.4375 768.7225,177.7031 Q768.9569,177.9531 768.9569,178.5625 L768.9569,180.0156 Q768.9569,180.625 768.7225,180.8906 Q768.4881,181.1563 768.1131,181.1563 Q767.7694,181.1563 767.5663,180.9531 Q767.3631,180.7656 767.2538,180.25 Q767.2069,179.8906 767.0194,179.7031 Q766.6913,179.3281 766.0819,179.1094 Q765.4725,178.8906 764.8475,178.8906 Q764.0819,178.8906 763.4413,179.2188 Q762.8163,179.5469 762.3163,180.2969 Q761.8319,181.0469 761.8319,182.0781 L761.8319,183.1719 Q761.8319,184.4063 762.7225,185.2344 Q763.6131,186.0469 765.2069,186.0469 Q766.1444,186.0469 766.8006,185.7969 Q767.1913,185.6406 767.6131,185.2031 Q767.8788,184.9375 768.0194,184.8594 Q768.1756,184.7813 768.3788,184.7813 Q768.7069,184.7813 768.9569,185.0469 Q769.2225,185.2969 769.2225,185.6406 Q769.2225,185.9844 768.8788,186.3906 Q768.3788,186.9688 767.5819,187.2969 Q766.5038,187.75 765.2069,187.75 Q763.6913,187.75 762.4881,187.125 Q761.5038,186.625 760.8163,185.5625 Q760.1288,184.4844 760.1288,183.2031 L760.1288,182.0469 Q760.1288,180.7188 760.7381,179.5781 Q761.3631,178.4219 762.4569,177.8125 Q763.5506,177.1875 764.785,177.1875 Q765.5194,177.1875 766.16,177.3594 Q766.8163,177.5156 767.3631,177.875 Z "/><text fill="#000000" font-family="sans-serif" font-size="12" lengthAdjust="spacingAndGlyphs" textLength="76" x="781.5975" y="186.9102">GraphicsView</text><line style="stroke: #A80036; stroke-width: 1.5;" x1="737.0975" x2="873.0975" y1="198" y2="198"/><rect fill="none" height="6" style="stroke: #C82930; stroke-width: 1.0;" width="6" x="744.0975" y="206"/><text fill="#000000" font-family="sans-serif" font-size="11" lengthAdjust="spacingAndGlyphs" textLength="112" x="756.0975" y="213.4189">gameView: GameView</text><line style="stroke: #A80036; stroke-width: 1.5;" x1="737.0975" x2="873.0975" y1="219.8359" y2="219.8359"/><ellipse cx="747.0975" cy="230.8359" fill="#84BE84" rx="3" ry="3" style="stroke: #038048; stroke-width: 1.0;"/><text fill="#000000" font-family="sans-serif" font-size="11" lengthAdjust="spacingAndGlyphs" textLength="106" x="756.0975" y="235.2549">GraphicsView(Game)</text><polygon fill="#FFFF44" points="747.0975,239.6719,751.0975,243.6719,747.0975,247.6719,743.0975,243.6719" style="stroke: #B38D22; stroke-width: 1.0;"/><text fill="#000000" font-family="sans-serif" font-size="11" lengthAdjust="spacingAndGlyphs" textLength="56" x="756.0975" y="249.0908">start(): void</text><polygon fill="#FFFF44" points="747.0975,253.5078,751.0975,257.5078,747.0975,261.5078,743.0975,257.5078" style="stroke: #B38D22; stroke-width: 1.0;"/><text fill="#000000" font-family="sans-serif" font-size="11" lengthAdjust="spacingAndGlyphs" textLength="72" x="756.0975" y="262.9268">play(): boolean</text><polygon fill="#FFFF44" points="747.0975,267.3438,751.0975,271.3438,747.0975,275.3438,743.0975,271.3438" style="stroke: #B38D22; stroke-width: 1.0;"/><text fill="#000000" font-family="sans-serif" font-size="11" lengthAdjust="spacingAndGlyphs" textLength="61" x="756.0975" y="276.7627">result(): void</text><!--MD5=[830df04f7779d5ce39b6953cfbe3729d]
class tictactoe.views.graphics.MachinePlayerView--><rect fill="#FEFECE" filter="url(#f1uziblrf07fdr)" height="89.5078" id="tictactoe.views.graphics.MachinePlayerView" style="stroke: #A80036; stroke-width: 1.5;" width="216" x="909.0975" y="179.5"/><ellipse cx="959.8475" cy="195.5" fill="#ADD1B2" rx="11" ry="11" style="stroke: #A80036; stroke-width: 1.0;"/><path d="M962.6131,191.375 Q962.7694,191.1563 962.9569,191.0469 Q963.1444,190.9375 963.3631,190.9375 Q963.7381,190.9375 963.9725,191.2031 Q964.2069,191.4531 964.2069,192.0625 L964.2069,193.5156 Q964.2069,194.125 963.9725,194.3906 Q963.7381,194.6563 963.3631,194.6563 Q963.0194,194.6563 962.8163,194.4531 Q962.6131,194.2656 962.5038,193.75 Q962.4569,193.3906 962.2694,193.2031 Q961.9413,192.8281 961.3319,192.6094 Q960.7225,192.3906 960.0975,192.3906 Q959.3319,192.3906 958.6913,192.7188 Q958.0663,193.0469 957.5663,193.7969 Q957.0819,194.5469 957.0819,195.5781 L957.0819,196.6719 Q957.0819,197.9063 957.9725,198.7344 Q958.8631,199.5469 960.4569,199.5469 Q961.3944,199.5469 962.0506,199.2969 Q962.4413,199.1406 962.8631,198.7031 Q963.1288,198.4375 963.2694,198.3594 Q963.4256,198.2813 963.6288,198.2813 Q963.9569,198.2813 964.2069,198.5469 Q964.4725,198.7969 964.4725,199.1406 Q964.4725,199.4844 964.1288,199.8906 Q963.6288,200.4688 962.8319,200.7969 Q961.7538,201.25 960.4569,201.25 Q958.9413,201.25 957.7381,200.625 Q956.7538,200.125 956.0663,199.0625 Q955.3788,197.9844 955.3788,196.7031 L955.3788,195.5469 Q955.3788,194.2188 955.9881,193.0781 Q956.6131,191.9219 957.7069,191.3125 Q958.8006,190.6875 960.035,190.6875 Q960.7694,190.6875 961.41,190.8594 Q962.0663,191.0156 962.6131,191.375 Z "/><text fill="#000000" font-family="sans-serif" font-size="12" lengthAdjust="spacingAndGlyphs" textLength="106" x="980.3475" y="200.4102">MachinePlayerView</text><line style="stroke: #A80036; stroke-width: 1.5;" x1="910.0975" x2="1124.0975" y1="211.5" y2="211.5"/><line style="stroke: #A80036; stroke-width: 1.5;" x1="910.0975" x2="1124.0975" y1="219.5" y2="219.5"/><polygon fill="#4177AF" points="920.0975,226.5,916.0975,232.5,924.0975,232.5" style="stroke: #1963A0; stroke-width: 1.0;"/><text fill="#000000" font-family="sans-serif" font-size="11" lengthAdjust="spacingAndGlyphs" textLength="134" x="929.0975" y="234.9189">MachinePlayerView(Player)</text><ellipse cx="920.0975" cy="244.3359" fill="#84BE84" rx="3" ry="3" style="stroke: #038048; stroke-width: 1.0;"/><text fill="#000000" font-family="sans-serif" font-size="11" lengthAdjust="spacingAndGlyphs" textLength="167" x="929.0975" y="248.7549">readCoordinateToPut(): Coordinate</text><ellipse cx="920.0975" cy="258.1719" fill="#84BE84" rx="3" ry="3" style="stroke: #038048; stroke-width: 1.0;"/><text fill="#000000" font-family="sans-serif" font-size="11" lengthAdjust="spacingAndGlyphs" textLength="190" x="929.0975" y="262.5908">readCoordinatesToMove(): Coordinate[]</text><!--MD5=[dc2150d6f822712ae93fd291d66241a9]
class tictactoe.views.graphics.UserPlayerView--><rect fill="#FEFECE" filter="url(#f1uziblrf07fdr)" height="144.8516" id="tictactoe.views.graphics.UserPlayerView" style="stroke: #A80036; stroke-width: 1.5;" width="239" x="519.5975" y="562"/><ellipse cx="591.3475" cy="578" fill="#ADD1B2" rx="11" ry="11" style="stroke: #A80036; stroke-width: 1.0;"/><path d="M594.1131,573.875 Q594.2694,573.6563 594.4569,573.5469 Q594.6444,573.4375 594.8631,573.4375 Q595.2381,573.4375 595.4725,573.7031 Q595.7069,573.9531 595.7069,574.5625 L595.7069,576.0156 Q595.7069,576.625 595.4725,576.8906 Q595.2381,577.1563 594.8631,577.1563 Q594.5194,577.1563 594.3163,576.9531 Q594.1131,576.7656 594.0038,576.25 Q593.9569,575.8906 593.7694,575.7031 Q593.4413,575.3281 592.8319,575.1094 Q592.2225,574.8906 591.5975,574.8906 Q590.8319,574.8906 590.1913,575.2188 Q589.5663,575.5469 589.0663,576.2969 Q588.5819,577.0469 588.5819,578.0781 L588.5819,579.1719 Q588.5819,580.4063 589.4725,581.2344 Q590.3631,582.0469 591.9569,582.0469 Q592.8944,582.0469 593.5506,581.7969 Q593.9413,581.6406 594.3631,581.2031 Q594.6288,580.9375 594.7694,580.8594 Q594.9256,580.7813 595.1288,580.7813 Q595.4569,580.7813 595.7069,581.0469 Q595.9725,581.2969 595.9725,581.6406 Q595.9725,581.9844 595.6288,582.3906 Q595.1288,582.9688 594.3319,583.2969 Q593.2538,583.75 591.9569,583.75 Q590.4413,583.75 589.2381,583.125 Q588.2538,582.625 587.5663,581.5625 Q586.8788,580.4844 586.8788,579.2031 L586.8788,578.0469 Q586.8788,576.7188 587.4881,575.5781 Q588.1131,574.4219 589.2069,573.8125 Q590.3006,573.1875 591.535,573.1875 Q592.2694,573.1875 592.91,573.3594 Q593.5663,573.5156 594.1131,573.875 Z "/><text fill="#000000" font-family="sans-serif" font-size="12" lengthAdjust="spacingAndGlyphs" textLength="87" x="611.8475" y="582.9102">UserPlayerView</text><line style="stroke: #A80036; stroke-width: 1.5;" x1="520.5975" x2="757.5975" y1="594" y2="594"/><polygon fill="none" points="530.5975,601,526.5975,607,534.5975,607" style="stroke: #1963A0; stroke-width: 1.0;"/><text fill="#000000" font-family="sans-serif" font-size="11" lengthAdjust="spacingAndGlyphs" text-decoration="underline" textLength="183" x="539.5975" y="609.4189">ENTER_COORDINATE_TO_PUT: String</text><polygon fill="none" points="530.5975,614.8359,526.5975,620.8359,534.5975,620.8359" style="stroke: #1963A0; stroke-width: 1.0;"/><text fill="#000000" font-family="sans-serif" font-size="11" lengthAdjust="spacingAndGlyphs" text-decoration="underline" textLength="207" x="539.5975" y="623.2549">ENTER_COORDINATE_TO_REMOVE: String</text><polygon fill="none" points="530.5975,628.6719,526.5975,634.6719,534.5975,634.6719" style="stroke: #1963A0; stroke-width: 1.0;"/><text fill="#000000" font-family="sans-serif" font-size="11" lengthAdjust="spacingAndGlyphs" textLength="191" x="539.5975" y="637.0908">coordinatePutView: CoordinatePutView</text><polygon fill="none" points="530.5975,642.5078,526.5975,648.5078,534.5975,648.5078" style="stroke: #1963A0; stroke-width: 1.0;"/><text fill="#000000" font-family="sans-serif" font-size="11" lengthAdjust="spacingAndGlyphs" textLength="213" x="539.5975" y="650.9268">coordinateMoveView: CoordinateMoveView</text><line style="stroke: #A80036; stroke-width: 1.5;" x1="520.5975" x2="757.5975" y1="657.3438" y2="657.3438"/><polygon fill="#4177AF" points="530.5975,664.3438,526.5975,670.3438,534.5975,670.3438" style="stroke: #1963A0; stroke-width: 1.0;"/><text fill="#000000" font-family="sans-serif" font-size="11" lengthAdjust="spacingAndGlyphs" textLength="117" x="539.5975" y="672.7627">UserPlayerView(Player)</text><ellipse cx="530.5975" cy="682.1797" fill="#84BE84" rx="3" ry="3" style="stroke: #038048; stroke-width: 1.0;"/><text fill="#000000" font-family="sans-serif" font-size="11" lengthAdjust="spacingAndGlyphs" textLength="167" x="539.5975" y="686.5986">readCoordinateToPut(): Coordinate</text><ellipse cx="530.5975" cy="696.0156" fill="#84BE84" rx="3" ry="3" style="stroke: #038048; stroke-width: 1.0;"/><text fill="#000000" font-family="sans-serif" font-size="11" lengthAdjust="spacingAndGlyphs" textLength="190" x="539.5975" y="700.4346">readCoordinatesToMove(): Coordinate[]</text><!--MD5=[56a185cb33bdc7c23303e5865f20a19b]
class javax.swing.JPanel--><rect fill="#FEFECE" filter="url(#f1uziblrf07fdr)" height="48" id="javax.swing.JPanel" style="stroke: #A80036; stroke-width: 1.5;" width="70" x="1707.0945" y="857"/><ellipse cx="1722.0945" cy="873" fill="#ADD1B2" rx="11" ry="11" style="stroke: #A80036; stroke-width: 1.0;"/><path d="M1724.8601,868.875 Q1725.0164,868.6563 1725.2039,868.5469 Q1725.3914,868.4375 1725.6101,868.4375 Q1725.9851,868.4375 1726.2195,868.7031 Q1726.4539,868.9531 1726.4539,869.5625 L1726.4539,871.0156 Q1726.4539,871.625 1726.2195,871.8906 Q1725.9851,872.1563 1725.6101,872.1563 Q1725.2664,872.1563 1725.0633,871.9531 Q1724.8601,871.7656 1724.7508,871.25 Q1724.7039,870.8906 1724.5164,870.7031 Q1724.1883,870.3281 1723.5789,870.1094 Q1722.9695,869.8906 1722.3445,869.8906 Q1721.5789,869.8906 1720.9383,870.2188 Q1720.3133,870.5469 1719.8133,871.2969 Q1719.3289,872.0469 1719.3289,873.0781 L1719.3289,874.1719 Q1719.3289,875.4063 1720.2195,876.2344 Q1721.1101,877.0469 1722.7039,877.0469 Q1723.6414,877.0469 1724.2976,876.7969 Q1724.6883,876.6406 1725.1101,876.2031 Q1725.3758,875.9375 1725.5164,875.8594 Q1725.6726,875.7813 1725.8758,875.7813 Q1726.2039,875.7813 1726.4539,876.0469 Q1726.7195,876.2969 1726.7195,876.6406 Q1726.7195,876.9844 1726.3758,877.3906 Q1725.8758,877.9688 1725.0789,878.2969 Q1724.0008,878.75 1722.7039,878.75 Q1721.1883,878.75 1719.9851,878.125 Q1719.0008,877.625 1718.3133,876.5625 Q1717.6258,875.4844 1717.6258,874.2031 L1717.6258,873.0469 Q1717.6258,871.7188 1718.2351,870.5781 Q1718.8601,869.4219 1719.9539,868.8125 Q1721.0476,868.1875 1722.282,868.1875 Q1723.0164,868.1875 1723.657,868.3594 Q1724.3133,868.5156 1724.8601,868.875 Z "/><text fill="#000000" font-family="sans-serif" font-size="12" lengthAdjust="spacingAndGlyphs" textLength="38" x="1736.0945" y="877.9102">JPanel</text><line style="stroke: #A80036; stroke-width: 1.5;" x1="1708.0945" x2="1776.0945" y1="889" y2="889"/><line style="stroke: #A80036; stroke-width: 1.5;" x1="1708.0945" x2="1776.0945" y1="897" y2="897"/><!--MD5=[9251eed55ebbbd8b0b3a23318ed1a9ff]
class javax.swing.JLabel--><rect fill="#FEFECE" filter="url(#f1uziblrf07fdr)" height="48" id="javax.swing.JLabel" style="stroke: #A80036; stroke-width: 1.5;" width="69" x="1602.5945" y="857"/><ellipse cx="1617.5945" cy="873" fill="#ADD1B2" rx="11" ry="11" style="stroke: #A80036; stroke-width: 1.0;"/><path d="M1620.3601,868.875 Q1620.5164,868.6563 1620.7039,868.5469 Q1620.8914,868.4375 1621.1101,868.4375 Q1621.4851,868.4375 1621.7195,868.7031 Q1621.9539,868.9531 1621.9539,869.5625 L1621.9539,871.0156 Q1621.9539,871.625 1621.7195,871.8906 Q1621.4851,872.1563 1621.1101,872.1563 Q1620.7664,872.1563 1620.5633,871.9531 Q1620.3601,871.7656 1620.2508,871.25 Q1620.2039,870.8906 1620.0164,870.7031 Q1619.6883,870.3281 1619.0789,870.1094 Q1618.4695,869.8906 1617.8445,869.8906 Q1617.0789,869.8906 1616.4383,870.2188 Q1615.8133,870.5469 1615.3133,871.2969 Q1614.8289,872.0469 1614.8289,873.0781 L1614.8289,874.1719 Q1614.8289,875.4063 1615.7195,876.2344 Q1616.6101,877.0469 1618.2039,877.0469 Q1619.1414,877.0469 1619.7976,876.7969 Q1620.1883,876.6406 1620.6101,876.2031 Q1620.8758,875.9375 1621.0164,875.8594 Q1621.1726,875.7813 1621.3758,875.7813 Q1621.7039,875.7813 1621.9539,876.0469 Q1622.2195,876.2969 1622.2195,876.6406 Q1622.2195,876.9844 1621.8758,877.3906 Q1621.3758,877.9688 1620.5789,878.2969 Q1619.5008,878.75 1618.2039,878.75 Q1616.6883,878.75 1615.4851,878.125 Q1614.5008,877.625 1613.8133,876.5625 Q1613.1258,875.4844 1613.1258,874.2031 L1613.1258,873.0469 Q1613.1258,871.7188 1613.7351,870.5781 Q1614.3601,869.4219 1615.4539,868.8125 Q1616.5476,868.1875 1617.782,868.1875 Q1618.5164,868.1875 1619.157,868.3594 Q1619.8133,868.5156 1620.3601,868.875 Z "/><text fill="#000000" font-family="sans-serif" font-size="12" lengthAdjust="spacingAndGlyphs" textLength="37" x="1631.5945" y="877.9102">JLabel</text><line style="stroke: #A80036; stroke-width: 1.5;" x1="1603.5945" x2="1670.5945" y1="889" y2="889"/><line style="stroke: #A80036; stroke-width: 1.5;" x1="1603.5945" x2="1670.5945" y1="897" y2="897"/><!--MD5=[12253c888ffad55633ab8291887bf405]
class javax.swing.JTextField--><rect fill="#FEFECE" filter="url(#f1uziblrf07fdr)" height="48" id="javax.swing.JTextField" style="stroke: #A80036; stroke-width: 1.5;" width="87" x="1480.5945" y="857"/><ellipse cx="1495.5945" cy="873" fill="#ADD1B2" rx="11" ry="11" style="stroke: #A80036; stroke-width: 1.0;"/><path d="M1498.3601,868.875 Q1498.5164,868.6563 1498.7039,868.5469 Q1498.8914,868.4375 1499.1101,868.4375 Q1499.4851,868.4375 1499.7195,868.7031 Q1499.9539,868.9531 1499.9539,869.5625 L1499.9539,871.0156 Q1499.9539,871.625 1499.7195,871.8906 Q1499.4851,872.1563 1499.1101,872.1563 Q1498.7664,872.1563 1498.5633,871.9531 Q1498.3601,871.7656 1498.2508,871.25 Q1498.2039,870.8906 1498.0164,870.7031 Q1497.6883,870.3281 1497.0789,870.1094 Q1496.4695,869.8906 1495.8445,869.8906 Q1495.0789,869.8906 1494.4383,870.2188 Q1493.8133,870.5469 1493.3133,871.2969 Q1492.8289,872.0469 1492.8289,873.0781 L1492.8289,874.1719 Q1492.8289,875.4063 1493.7195,876.2344 Q1494.6101,877.0469 1496.2039,877.0469 Q1497.1414,877.0469 1497.7976,876.7969 Q1498.1883,876.6406 1498.6101,876.2031 Q1498.8758,875.9375 1499.0164,875.8594 Q1499.1726,875.7813 1499.3758,875.7813 Q1499.7039,875.7813 1499.9539,876.0469 Q1500.2195,876.2969 1500.2195,876.6406 Q1500.2195,876.9844 1499.8758,877.3906 Q1499.3758,877.9688 1498.5789,878.2969 Q1497.5008,878.75 1496.2039,878.75 Q1494.6883,878.75 1493.4851,878.125 Q1492.5008,877.625 1491.8133,876.5625 Q1491.1258,875.4844 1491.1258,874.2031 L1491.1258,873.0469 Q1491.1258,871.7188 1491.7351,870.5781 Q1492.3601,869.4219 1493.4539,868.8125 Q1494.5476,868.1875 1495.782,868.1875 Q1496.5164,868.1875 1497.157,868.3594 Q1497.8133,868.5156 1498.3601,868.875 Z "/><text fill="#000000" font-family="sans-serif" font-size="12" lengthAdjust="spacingAndGlyphs" textLength="55" x="1509.5945" y="877.9102">JTextField</text><line style="stroke: #A80036; stroke-width: 1.5;" x1="1481.5945" x2="1566.5945" y1="889" y2="889"/><line style="stroke: #A80036; stroke-width: 1.5;" x1="1481.5945" x2="1566.5945" y1="897" y2="897"/><!--MD5=[7d319166b5dc6b8762d043b6fe35067f]
class javax.swing.JButton--><rect fill="#FEFECE" filter="url(#f1uziblrf07fdr)" height="48" id="javax.swing.JButton" style="stroke: #A80036; stroke-width: 1.5;" width="73" x="1812.5945" y="857"/><ellipse cx="1827.5945" cy="873" fill="#ADD1B2" rx="11" ry="11" style="stroke: #A80036; stroke-width: 1.0;"/><path d="M1830.3601,868.875 Q1830.5164,868.6563 1830.7039,868.5469 Q1830.8914,868.4375 1831.1101,868.4375 Q1831.4851,868.4375 1831.7195,868.7031 Q1831.9539,868.9531 1831.9539,869.5625 L1831.9539,871.0156 Q1831.9539,871.625 1831.7195,871.8906 Q1831.4851,872.1563 1831.1101,872.1563 Q1830.7664,872.1563 1830.5633,871.9531 Q1830.3601,871.7656 1830.2508,871.25 Q1830.2039,870.8906 1830.0164,870.7031 Q1829.6883,870.3281 1829.0789,870.1094 Q1828.4695,869.8906 1827.8445,869.8906 Q1827.0789,869.8906 1826.4383,870.2188 Q1825.8133,870.5469 1825.3133,871.2969 Q1824.8289,872.0469 1824.8289,873.0781 L1824.8289,874.1719 Q1824.8289,875.4063 1825.7195,876.2344 Q1826.6101,877.0469 1828.2039,877.0469 Q1829.1414,877.0469 1829.7976,876.7969 Q1830.1883,876.6406 1830.6101,876.2031 Q1830.8758,875.9375 1831.0164,875.8594 Q1831.1726,875.7813 1831.3758,875.7813 Q1831.7039,875.7813 1831.9539,876.0469 Q1832.2195,876.2969 1832.2195,876.6406 Q1832.2195,876.9844 1831.8758,877.3906 Q1831.3758,877.9688 1830.5789,878.2969 Q1829.5008,878.75 1828.2039,878.75 Q1826.6883,878.75 1825.4851,878.125 Q1824.5008,877.625 1823.8133,876.5625 Q1823.1258,875.4844 1823.1258,874.2031 L1823.1258,873.0469 Q1823.1258,871.7188 1823.7351,870.5781 Q1824.3601,869.4219 1825.4539,868.8125 Q1826.5476,868.1875 1827.782,868.1875 Q1828.5164,868.1875 1829.157,868.3594 Q1829.8133,868.5156 1830.3601,868.875 Z "/><text fill="#000000" font-family="sans-serif" font-size="12" lengthAdjust="spacingAndGlyphs" textLength="41" x="1841.5945" y="877.9102">JButton</text><line style="stroke: #A80036; stroke-width: 1.5;" x1="1813.5945" x2="1884.5945" y1="889" y2="889"/><line style="stroke: #A80036; stroke-width: 1.5;" x1="1813.5945" x2="1884.5945" y1="897" y2="897"/><!--MD5=[1c2fa5f6ace53151c9bc1c52bddcba98]
class javax.swing.JRootPane--><rect fill="#FEFECE" filter="url(#f1uziblrf07fdr)" height="48" id="javax.swing.JRootPane" style="stroke: #A80036; stroke-width: 1.5;" width="93" x="1920.5945" y="857"/><ellipse cx="1935.5945" cy="873" fill="#ADD1B2" rx="11" ry="11" style="stroke: #A80036; stroke-width: 1.0;"/><path d="M1938.3601,868.875 Q1938.5164,868.6563 1938.7039,868.5469 Q1938.8914,868.4375 1939.1101,868.4375 Q1939.4851,868.4375 1939.7195,868.7031 Q1939.9539,868.9531 1939.9539,869.5625 L1939.9539,871.0156 Q1939.9539,871.625 1939.7195,871.8906 Q1939.4851,872.1563 1939.1101,872.1563 Q1938.7664,872.1563 1938.5633,871.9531 Q1938.3601,871.7656 1938.2508,871.25 Q1938.2039,870.8906 1938.0164,870.7031 Q1937.6883,870.3281 1937.0789,870.1094 Q1936.4695,869.8906 1935.8445,869.8906 Q1935.0789,869.8906 1934.4383,870.2188 Q1933.8133,870.5469 1933.3133,871.2969 Q1932.8289,872.0469 1932.8289,873.0781 L1932.8289,874.1719 Q1932.8289,875.4063 1933.7195,876.2344 Q1934.6101,877.0469 1936.2039,877.0469 Q1937.1414,877.0469 1937.7976,876.7969 Q1938.1883,876.6406 1938.6101,876.2031 Q1938.8758,875.9375 1939.0164,875.8594 Q1939.1726,875.7813 1939.3758,875.7813 Q1939.7039,875.7813 1939.9539,876.0469 Q1940.2195,876.2969 1940.2195,876.6406 Q1940.2195,876.9844 1939.8758,877.3906 Q1939.3758,877.9688 1938.5789,878.2969 Q1937.5008,878.75 1936.2039,878.75 Q1934.6883,878.75 1933.4851,878.125 Q1932.5008,877.625 1931.8133,876.5625 Q1931.1258,875.4844 1931.1258,874.2031 L1931.1258,873.0469 Q1931.1258,871.7188 1931.7351,870.5781 Q1932.3601,869.4219 1933.4539,868.8125 Q1934.5476,868.1875 1935.782,868.1875 Q1936.5164,868.1875 1937.157,868.3594 Q1937.8133,868.5156 1938.3601,868.875 Z "/><text fill="#000000" font-family="sans-serif" font-size="12" lengthAdjust="spacingAndGlyphs" textLength="61" x="1949.5945" y="877.9102">JRootPane</text><line style="stroke: #A80036; stroke-width: 1.5;" x1="1921.5945" x2="2012.5945" y1="889" y2="889"/><line style="stroke: #A80036; stroke-width: 1.5;" x1="1921.5945" x2="2012.5945" y1="897" y2="897"/><!--MD5=[18a7562403221f513ca44e0f82c4c17a]
class javax.swing.JFrame--><rect fill="#FEFECE" filter="url(#f1uziblrf07fdr)" height="48" id="javax.swing.JFrame" style="stroke: #A80036; stroke-width: 1.5;" width="74" x="2049.0945" y="857"/><ellipse cx="2064.0945" cy="873" fill="#ADD1B2" rx="11" ry="11" style="stroke: #A80036; stroke-width: 1.0;"/><path d="M2066.8601,868.875 Q2067.0164,868.6563 2067.2039,868.5469 Q2067.3914,868.4375 2067.6101,868.4375 Q2067.9851,868.4375 2068.2195,868.7031 Q2068.4539,868.9531 2068.4539,869.5625 L2068.4539,871.0156 Q2068.4539,871.625 2068.2195,871.8906 Q2067.9851,872.1563 2067.6101,872.1563 Q2067.2664,872.1563 2067.0633,871.9531 Q2066.8601,871.7656 2066.7508,871.25 Q2066.7039,870.8906 2066.5164,870.7031 Q2066.1883,870.3281 2065.5789,870.1094 Q2064.9695,869.8906 2064.3445,869.8906 Q2063.5789,869.8906 2062.9383,870.2188 Q2062.3133,870.5469 2061.8133,871.2969 Q2061.3289,872.0469 2061.3289,873.0781 L2061.3289,874.1719 Q2061.3289,875.4063 2062.2195,876.2344 Q2063.1101,877.0469 2064.7039,877.0469 Q2065.6414,877.0469 2066.2976,876.7969 Q2066.6883,876.6406 2067.1101,876.2031 Q2067.3758,875.9375 2067.5164,875.8594 Q2067.6726,875.7813 2067.8758,875.7813 Q2068.2039,875.7813 2068.4539,876.0469 Q2068.7195,876.2969 2068.7195,876.6406 Q2068.7195,876.9844 2068.3758,877.3906 Q2067.8758,877.9688 2067.0789,878.2969 Q2066.0008,878.75 2064.7039,878.75 Q2063.1883,878.75 2061.9851,878.125 Q2061.0008,877.625 2060.3133,876.5625 Q2059.6258,875.4844 2059.6258,874.2031 L2059.6258,873.0469 Q2059.6258,871.7188 2060.2351,870.5781 Q2060.8601,869.4219 2061.9539,868.8125 Q2063.0476,868.1875 2064.282,868.1875 Q2065.0164,868.1875 2065.657,868.3594 Q2066.3133,868.5156 2066.8601,868.875 Z "/><text fill="#000000" font-family="sans-serif" font-size="12" lengthAdjust="spacingAndGlyphs" textLength="42" x="2078.0945" y="877.9102">JFrame</text><line style="stroke: #A80036; stroke-width: 1.5;" x1="2050.0945" x2="2122.0945" y1="889" y2="889"/><line style="stroke: #A80036; stroke-width: 1.5;" x1="2050.0945" x2="2122.0945" y1="897" y2="897"/><!--MD5=[6631281fcee7fc541b441b6c950a0fa0]
class java.awt.event.ActionListener--><rect fill="#FEFECE" filter="url(#f1uziblrf07fdr)" height="48" id="java.awt.event.ActionListener" style="stroke: #A80036; stroke-width: 1.5;" width="110" x="327.0975" y="391.5"/><ellipse cx="342.0975" cy="407.5" fill="#ADD1B2" rx="11" ry="11" style="stroke: #A80036; stroke-width: 1.0;"/><path d="M344.8631,403.375 Q345.0194,403.1563 345.2069,403.0469 Q345.3944,402.9375 345.6131,402.9375 Q345.9881,402.9375 346.2225,403.2031 Q346.4569,403.4531 346.4569,404.0625 L346.4569,405.5156 Q346.4569,406.125 346.2225,406.3906 Q345.9881,406.6563 345.6131,406.6563 Q345.2694,406.6563 345.0663,406.4531 Q344.8631,406.2656 344.7538,405.75 Q344.7069,405.3906 344.5194,405.2031 Q344.1913,404.8281 343.5819,404.6094 Q342.9725,404.3906 342.3475,404.3906 Q341.5819,404.3906 340.9413,404.7188 Q340.3163,405.0469 339.8163,405.7969 Q339.3319,406.5469 339.3319,407.5781 L339.3319,408.6719 Q339.3319,409.9063 340.2225,410.7344 Q341.1131,411.5469 342.7069,411.5469 Q343.6444,411.5469 344.3006,411.2969 Q344.6913,411.1406 345.1131,410.7031 Q345.3788,410.4375 345.5194,410.3594 Q345.6756,410.2813 345.8788,410.2813 Q346.2069,410.2813 346.4569,410.5469 Q346.7225,410.7969 346.7225,411.1406 Q346.7225,411.4844 346.3788,411.8906 Q345.8788,412.4688 345.0819,412.7969 Q344.0038,413.25 342.7069,413.25 Q341.1913,413.25 339.9881,412.625 Q339.0038,412.125 338.3163,411.0625 Q337.6288,409.9844 337.6288,408.7031 L337.6288,407.5469 Q337.6288,406.2188 338.2381,405.0781 Q338.8631,403.9219 339.9569,403.3125 Q341.0506,402.6875 342.285,402.6875 Q343.0194,402.6875 343.66,402.8594 Q344.3163,403.0156 344.8631,403.375 Z "/><text fill="#000000" font-family="sans-serif" font-size="12" lengthAdjust="spacingAndGlyphs" textLength="78" x="356.0975" y="412.4102">ActionListener</text><line style="stroke: #A80036; stroke-width: 1.5;" x1="328.0975" x2="436.0975" y1="423.5" y2="423.5"/><line style="stroke: #A80036; stroke-width: 1.5;" x1="328.0975" x2="436.0975" y1="431.5" y2="431.5"/><!--MD5=[3eb55d915ce4c988cc6fe2a782a0fcdf]
class java.awt.event.KeyListener--><rect fill="#FEFECE" filter="url(#f1uziblrf07fdr)" height="48" id="java.awt.event.KeyListener" style="stroke: #A80036; stroke-width: 1.5;" width="97" x="194.5975" y="391.5"/><ellipse cx="209.5975" cy="407.5" fill="#ADD1B2" rx="11" ry="11" style="stroke: #A80036; stroke-width: 1.0;"/><path d="M212.3631,403.375 Q212.5194,403.1563 212.7069,403.0469 Q212.8944,402.9375 213.1131,402.9375 Q213.4881,402.9375 213.7225,403.2031 Q213.9569,403.4531 213.9569,404.0625 L213.9569,405.5156 Q213.9569,406.125 213.7225,406.3906 Q213.4881,406.6563 213.1131,406.6563 Q212.7694,406.6563 212.5663,406.4531 Q212.3631,406.2656 212.2538,405.75 Q212.2069,405.3906 212.0194,405.2031 Q211.6913,404.8281 211.0819,404.6094 Q210.4725,404.3906 209.8475,404.3906 Q209.0819,404.3906 208.4413,404.7188 Q207.8163,405.0469 207.3163,405.7969 Q206.8319,406.5469 206.8319,407.5781 L206.8319,408.6719 Q206.8319,409.9063 207.7225,410.7344 Q208.6131,411.5469 210.2069,411.5469 Q211.1444,411.5469 211.8006,411.2969 Q212.1913,411.1406 212.6131,410.7031 Q212.8788,410.4375 213.0194,410.3594 Q213.1756,410.2813 213.3788,410.2813 Q213.7069,410.2813 213.9569,410.5469 Q214.2225,410.7969 214.2225,411.1406 Q214.2225,411.4844 213.8788,411.8906 Q213.3788,412.4688 212.5819,412.7969 Q211.5038,413.25 210.2069,413.25 Q208.6913,413.25 207.4881,412.625 Q206.5038,412.125 205.8163,411.0625 Q205.1288,409.9844 205.1288,408.7031 L205.1288,407.5469 Q205.1288,406.2188 205.7381,405.0781 Q206.3631,403.9219 207.4569,403.3125 Q208.5506,402.6875 209.785,402.6875 Q210.5194,402.6875 211.16,402.8594 Q211.8163,403.0156 212.3631,403.375 Z "/><text fill="#000000" font-family="sans-serif" font-size="12" lengthAdjust="spacingAndGlyphs" textLength="65" x="223.5975" y="412.4102">KeyListener</text><line style="stroke: #A80036; stroke-width: 1.5;" x1="195.5975" x2="290.5975" y1="423.5" y2="423.5"/><line style="stroke: #A80036; stroke-width: 1.5;" x1="195.5975" x2="290.5975" y1="431.5" y2="431.5"/><!--MD5=[fdbf4e06ff7e602aeb39791d8dea2518]
class java.awt.event.ActionEvent--><rect fill="#FEFECE" filter="url(#f1uziblrf07fdr)" height="48" id="java.awt.event.ActionEvent" style="stroke: #A80036; stroke-width: 1.5;" width="95" x="64.5979" y="391.5"/><ellipse cx="79.5979" cy="407.5" fill="#ADD1B2" rx="11" ry="11" style="stroke: #A80036; stroke-width: 1.0;"/><path d="M82.3635,403.375 Q82.5198,403.1563 82.7073,403.0469 Q82.8948,402.9375 83.1135,402.9375 Q83.4885,402.9375 83.7229,403.2031 Q83.9573,403.4531 83.9573,404.0625 L83.9573,405.5156 Q83.9573,406.125 83.7229,406.3906 Q83.4885,406.6563 83.1135,406.6563 Q82.7698,406.6563 82.5667,406.4531 Q82.3635,406.2656 82.2542,405.75 Q82.2073,405.3906 82.0198,405.2031 Q81.6917,404.8281 81.0823,404.6094 Q80.4729,404.3906 79.8479,404.3906 Q79.0823,404.3906 78.4417,404.7188 Q77.8167,405.0469 77.3167,405.7969 Q76.8323,406.5469 76.8323,407.5781 L76.8323,408.6719 Q76.8323,409.9063 77.7229,410.7344 Q78.6135,411.5469 80.2073,411.5469 Q81.1448,411.5469 81.801,411.2969 Q82.1917,411.1406 82.6135,410.7031 Q82.8792,410.4375 83.0198,410.3594 Q83.176,410.2813 83.3792,410.2813 Q83.7073,410.2813 83.9573,410.5469 Q84.2229,410.7969 84.2229,411.1406 Q84.2229,411.4844 83.8792,411.8906 Q83.3792,412.4688 82.5823,412.7969 Q81.5042,413.25 80.2073,413.25 Q78.6917,413.25 77.4885,412.625 Q76.5042,412.125 75.8167,411.0625 Q75.1292,409.9844 75.1292,408.7031 L75.1292,407.5469 Q75.1292,406.2188 75.7385,405.0781 Q76.3635,403.9219 77.4573,403.3125 Q78.551,402.6875 79.7854,402.6875 Q80.5198,402.6875 81.1604,402.8594 Q81.8167,403.0156 82.3635,403.375 Z "/><text fill="#000000" font-family="sans-serif" font-size="12" lengthAdjust="spacingAndGlyphs" textLength="63" x="93.5979" y="412.4102">ActionEvent</text><line style="stroke: #A80036; stroke-width: 1.5;" x1="65.5979" x2="158.5979" y1="423.5" y2="423.5"/><line style="stroke: #A80036; stroke-width: 1.5;" x1="65.5979" x2="158.5979" y1="431.5" y2="431.5"/><!--MD5=[f31f6503e4cc561363ee52d0041ef195]
class java.awt.GridBagConstraints--><rect fill="#FEFECE" filter="url(#f1uziblrf07fdr)" height="48" id="java.awt.GridBagConstraints" style="stroke: #A80036; stroke-width: 1.5;" width="141" x="295.5975" y="610.5"/><ellipse cx="310.5975" cy="626.5" fill="#ADD1B2" rx="11" ry="11" style="stroke: #A80036; stroke-width: 1.0;"/><path d="M313.3631,622.375 Q313.5194,622.1563 313.7069,622.0469 Q313.8944,621.9375 314.1131,621.9375 Q314.4881,621.9375 314.7225,622.2031 Q314.9569,622.4531 314.9569,623.0625 L314.9569,624.5156 Q314.9569,625.125 314.7225,625.3906 Q314.4881,625.6563 314.1131,625.6563 Q313.7694,625.6563 313.5663,625.4531 Q313.3631,625.2656 313.2538,624.75 Q313.2069,624.3906 313.0194,624.2031 Q312.6913,623.8281 312.0819,623.6094 Q311.4725,623.3906 310.8475,623.3906 Q310.0819,623.3906 309.4413,623.7188 Q308.8163,624.0469 308.3163,624.7969 Q307.8319,625.5469 307.8319,626.5781 L307.8319,627.6719 Q307.8319,628.9063 308.7225,629.7344 Q309.6131,630.5469 311.2069,630.5469 Q312.1444,630.5469 312.8006,630.2969 Q313.1913,630.1406 313.6131,629.7031 Q313.8788,629.4375 314.0194,629.3594 Q314.1756,629.2813 314.3788,629.2813 Q314.7069,629.2813 314.9569,629.5469 Q315.2225,629.7969 315.2225,630.1406 Q315.2225,630.4844 314.8788,630.8906 Q314.3788,631.4688 313.5819,631.7969 Q312.5038,632.25 311.2069,632.25 Q309.6913,632.25 308.4881,631.625 Q307.5038,631.125 306.8163,630.0625 Q306.1288,628.9844 306.1288,627.7031 L306.1288,626.5469 Q306.1288,625.2188 306.7381,624.0781 Q307.3631,622.9219 308.4569,622.3125 Q309.5506,621.6875 310.785,621.6875 Q311.5194,621.6875 312.16,621.8594 Q312.8163,622.0156 313.3631,622.375 Z "/><text fill="#000000" font-family="sans-serif" font-size="12" lengthAdjust="spacingAndGlyphs" textLength="109" x="324.5975" y="631.4102">GridBagConstraints</text><line style="stroke: #A80036; stroke-width: 1.5;" x1="296.5975" x2="435.5975" y1="642.5" y2="642.5"/><line style="stroke: #A80036; stroke-width: 1.5;" x1="296.5975" x2="435.5975" y1="650.5" y2="650.5"/><!--MD5=[2ae15d20e7f22fd333327d3852982126]
class tictactoe.views.PlayerView--><rect fill="#FEFECE" filter="url(#f1uziblrf07fdr)" height="48" id="tictactoe.views.PlayerView" style="stroke: #A80036; stroke-width: 1.5;" width="92" x="920.0975" y="42"/><ellipse cx="935.0975" cy="58" fill="#ADD1B2" rx="11" ry="11" style="stroke: #A80036; stroke-width: 1.0;"/><path d="M937.8631,53.875 Q938.0194,53.6563 938.2069,53.5469 Q938.3944,53.4375 938.6131,53.4375 Q938.9881,53.4375 939.2225,53.7031 Q939.4569,53.9531 939.4569,54.5625 L939.4569,56.0156 Q939.4569,56.625 939.2225,56.8906 Q938.9881,57.1563 938.6131,57.1563 Q938.2694,57.1563 938.0663,56.9531 Q937.8631,56.7656 937.7538,56.25 Q937.7069,55.8906 937.5194,55.7031 Q937.1913,55.3281 936.5819,55.1094 Q935.9725,54.8906 935.3475,54.8906 Q934.5819,54.8906 933.9413,55.2188 Q933.3163,55.5469 932.8163,56.2969 Q932.3319,57.0469 932.3319,58.0781 L932.3319,59.1719 Q932.3319,60.4063 933.2225,61.2344 Q934.1131,62.0469 935.7069,62.0469 Q936.6444,62.0469 937.3006,61.7969 Q937.6913,61.6406 938.1131,61.2031 Q938.3788,60.9375 938.5194,60.8594 Q938.6756,60.7813 938.8788,60.7813 Q939.2069,60.7813 939.4569,61.0469 Q939.7225,61.2969 939.7225,61.6406 Q939.7225,61.9844 939.3788,62.3906 Q938.8788,62.9688 938.0819,63.2969 Q937.0038,63.75 935.7069,63.75 Q934.1913,63.75 932.9881,63.125 Q932.0038,62.625 931.3163,61.5625 Q930.6288,60.4844 930.6288,59.2031 L930.6288,58.0469 Q930.6288,56.7188 931.2381,55.5781 Q931.8631,54.4219 932.9569,53.8125 Q934.0506,53.1875 935.285,53.1875 Q936.0194,53.1875 936.66,53.3594 Q937.3163,53.5156 937.8631,53.875 Z "/><text fill="#000000" font-family="sans-serif" font-size="12" lengthAdjust="spacingAndGlyphs" textLength="60" x="949.0975" y="62.9102">PlayerView</text><line style="stroke: #A80036; stroke-width: 1.5;" x1="921.0975" x2="1011.0975" y1="74" y2="74"/><line style="stroke: #A80036; stroke-width: 1.5;" x1="921.0975" x2="1011.0975" y1="82" y2="82"/><!--MD5=[015754420c4cdd9bacda884b3fa8c6ca]
class tictactoe.views.View--><rect fill="#FEFECE" filter="url(#f1uziblrf07fdr)" height="48" id="tictactoe.views.View" style="stroke: #A80036; stroke-width: 1.5;" width="58" x="827.0975" y="42"/><ellipse cx="842.0975" cy="58" fill="#ADD1B2" rx="11" ry="11" style="stroke: #A80036; stroke-width: 1.0;"/><path d="M844.8631,53.875 Q845.0194,53.6563 845.2069,53.5469 Q845.3944,53.4375 845.6131,53.4375 Q845.9881,53.4375 846.2225,53.7031 Q846.4569,53.9531 846.4569,54.5625 L846.4569,56.0156 Q846.4569,56.625 846.2225,56.8906 Q845.9881,57.1563 845.6131,57.1563 Q845.2694,57.1563 845.0663,56.9531 Q844.8631,56.7656 844.7538,56.25 Q844.7069,55.8906 844.5194,55.7031 Q844.1913,55.3281 843.5819,55.1094 Q842.9725,54.8906 842.3475,54.8906 Q841.5819,54.8906 840.9413,55.2188 Q840.3163,55.5469 839.8163,56.2969 Q839.3319,57.0469 839.3319,58.0781 L839.3319,59.1719 Q839.3319,60.4063 840.2225,61.2344 Q841.1131,62.0469 842.7069,62.0469 Q843.6444,62.0469 844.3006,61.7969 Q844.6913,61.6406 845.1131,61.2031 Q845.3788,60.9375 845.5194,60.8594 Q845.6756,60.7813 845.8788,60.7813 Q846.2069,60.7813 846.4569,61.0469 Q846.7225,61.2969 846.7225,61.6406 Q846.7225,61.9844 846.3788,62.3906 Q845.8788,62.9688 845.0819,63.2969 Q844.0038,63.75 842.7069,63.75 Q841.1913,63.75 839.9881,63.125 Q839.0038,62.625 838.3163,61.5625 Q837.6288,60.4844 837.6288,59.2031 L837.6288,58.0469 Q837.6288,56.7188 838.2381,55.5781 Q838.8631,54.4219 839.9569,53.8125 Q841.0506,53.1875 842.285,53.1875 Q843.0194,53.1875 843.66,53.3594 Q844.3163,53.5156 844.8631,53.875 Z "/><text fill="#000000" font-family="sans-serif" font-size="12" lengthAdjust="spacingAndGlyphs" textLength="26" x="856.0975" y="62.9102">View</text><line style="stroke: #A80036; stroke-width: 1.5;" x1="828.0975" x2="884.0975" y1="74" y2="74"/><line style="stroke: #A80036; stroke-width: 1.5;" x1="828.0975" x2="884.0975" y1="82" y2="82"/><!--MD5=[cabe4b87987aefd6bf4718fce0f585b5]
reverse link javax.swing.JPanel to tictactoe.views.graphics.BoardView--><path d="M1731.4545,837.544 C1721.4945,807.271 1703.2545,769.182 1671.5945,751 C1598.3745,708.942 1561.9245,724.966 1481.5945,751 C1429.9845,767.726 1380.7745,805.464 1346.9745,835.994 " fill="none" id="javax.swing.JPanel&lt;-tictactoe.views.graphics.BoardView" style="stroke: #A80036; stroke-width: 1.0;"/><polygon fill="none" points="1738.2245,835.753,1737.0945,856.913,1724.7845,839.666,1738.2245,835.753" style="stroke: #A80036; stroke-width: 1.0;"/><!--MD5=[a60d4dd9da35e5e9d03c3586c16254c3]
link tictactoe.views.graphics.BoardView to javax.swing.JLabel--><path d="M1355.9633,828.0441 C1355.9633,828.0441 1434.8245,766.158 1481.5945,751 C1517.9545,739.216 1534.4545,731.963 1567.5945,751 C1601.4245,770.431 1619.6145,812.817 1628.7845,843.93 " fill="none" id="tictactoe.views.graphics.BoardView-javax.swing.JLabel" style="stroke: #A80036; stroke-width: 1.0;"/><polygon fill="#A80036" points="1632.2945,856.891,1633.8085,847.1592,1630.9903,852.0641,1626.0854,849.2459,1632.2945,856.891" style="stroke: #A80036; stroke-width: 1.0;"/><line style="stroke: #A80036; stroke-width: 1.0;" x1="1630.9903" x2="1628.8995" y1="852.0641" y2="844.3415"/><polygon fill="#A80036" points="1346.9745,835.994,1354.1189,835.0153,1355.9633,828.0441,1348.8189,829.0228,1346.9745,835.994" style="stroke: #A80036; stroke-width: 1.0;"/><!--MD5=[6472c94a80d8a0139752c3d3b04c0276]
link tictactoe.views.graphics.ChoosePlayersView to tictactoe.views.graphics.BoardView--><path d="M1309.2545,721.014 C1307.6045,757.594 1305.7445,799.012 1304.3245,830.401 " fill="none" id="tictactoe.views.graphics.ChoosePlayersView-&gt;tictactoe.views.graphics.BoardView" style="stroke: #A80036; stroke-width: 1.0; stroke-dasharray: 7.0,7.0;"/><polygon fill="#A80036" points="1304.0845,835.745,1308.4863,826.9345,1304.31,830.7501,1300.4944,826.5738,1304.0845,835.745" style="stroke: #A80036; stroke-width: 1.0;"/><!--MD5=[727818a4ba2572f21a371543409f0646]
reverse link javax.swing.JPanel to tictactoe.views.graphics.ChoosePlayersView--><path d="M1727.6545,838.311 C1719.0645,818.704 1706.4245,796.323 1689.0945,781 C1610.1945,711.203 1494.1145,673.185 1411.8345,653.704 " fill="none" id="javax.swing.JPanel&lt;-tictactoe.views.graphics.ChoosePlayersView" style="stroke: #A80036; stroke-width: 1.0;"/><polygon fill="none" points="1734.1945,835.804,1735.0345,856.977,1721.1745,840.951,1734.1945,835.804" style="stroke: #A80036; stroke-width: 1.0;"/><!--MD5=[3d7860d49b8d03eff20ee19c13a8b8ff]
reverse link java.awt.event.ActionListener to tictactoe.views.graphics.ChoosePlayersView--><path d="M420.4145,452.918 C436.6675,466.235 456.5835,479.988 477.0975,488 C727.1425,585.658 816.3785,488.313 1078.0945,548 C1123.9145,558.45 1173.0045,575.35 1214.4045,591.377 " fill="none" id="java.awt.event.ActionListener&lt;-tictactoe.views.graphics.ChoosePlayersView" style="stroke: #A80036; stroke-width: 1.0;"/><polygon fill="none" points="415.7245,458.117,405.2145,439.718,424.9045,447.547,415.7245,458.117" style="stroke: #A80036; stroke-width: 1.0;"/><!--MD5=[4558857917398b49749deef901c1a40f]
reverse link java.awt.event.KeyListener to tictactoe.views.graphics.ChoosePlayersView--><path d="M270.0035,455.794 C280.6555,468.247 293.9855,480.669 309.0975,488 C463.3205,562.807 910.5775,511.698 1078.0945,548 C1124.0245,557.953 1173.1345,574.777 1214.5145,590.881 " fill="none" id="java.awt.event.KeyListener&lt;-tictactoe.views.graphics.ChoosePlayersView" style="stroke: #A80036; stroke-width: 1.0;"/><polygon fill="none" points="264.3485,459.925,257.6185,439.832,275.4095,451.343,264.3485,459.925" style="stroke: #A80036; stroke-width: 1.0;"/><!--MD5=[10ea6f03fb925665c06b1dad1506bcde]
link tictactoe.views.graphics.ChoosePlayersView to javax.swing.JLabel--><path d="M1422.8855,676.1741 C1422.8855,676.1741 1539.9445,735.502 1585.0945,781 C1602.7945,798.831 1615.8845,823.931 1624.5045,844.395 " fill="none" id="tictactoe.views.graphics.ChoosePlayersView-javax.swing.JLabel" style="stroke: #A80036; stroke-width: 1.0;"/><polygon fill="#A80036" points="1629.4145,856.741,1629.808,846.9,1627.568,852.0945,1622.3735,849.8545,1629.4145,856.741" style="stroke: #A80036; stroke-width: 1.0;"/><line style="stroke: #A80036; stroke-width: 1.0;" x1="1627.568" x2="1624.6145" y1="852.0945" y2="844.66"/><polygon fill="#A80036" points="1411.9045,671.335,1415.782,677.4149,1422.8855,676.1741,1419.0081,670.0942,1411.9045,671.335" style="stroke: #A80036; stroke-width: 1.0;"/><!--MD5=[89f1fb9a756a4b907f2aa36e42120567]
link tictactoe.views.graphics.ChoosePlayersView to javax.swing.JTextField--><path d="M1396.0582,730.1579 C1396.0582,730.1579 1426.2445,764.9 1440.0945,781 C1458.8345,802.767 1479.7245,827.389 1495.9845,846.633 " fill="none" id="tictactoe.views.graphics.ChoosePlayersView-javax.swing.JTextField" style="stroke: #A80036; stroke-width: 1.0;"/><polygon fill="#A80036" points="1504.5045,856.718,1501.759,847.2595,1501.2806,852.8961,1495.644,852.4177,1504.5045,856.718" style="stroke: #A80036; stroke-width: 1.0;"/><line style="stroke: #A80036; stroke-width: 1.0;" x1="1501.2806" x2="1496.1145" y1="852.8961" y2="846.7855"/><polygon fill="#A80036" points="1388.1745,721.111,1389.1007,728.2624,1396.0582,730.1579,1395.132,723.0065,1388.1745,721.111" style="stroke: #A80036; stroke-width: 1.0;"/><!--MD5=[4c5260bde3ce8e49162549ea989dbafe]
link tictactoe.views.graphics.ChoosePlayersView to javax.swing.JButton--><path d="M1423.9066,644.8736 C1423.9066,644.8736 1688.2945,694.223 1795.0945,781 C1815.1045,797.256 1828.8145,822.98 1837.4145,844.132 " fill="none" id="tictactoe.views.graphics.ChoosePlayersView-javax.swing.JButton" style="stroke: #A80036; stroke-width: 1.0;"/><polygon fill="#A80036" points="1842.1245,856.586,1842.6847,846.7531,1840.357,851.9088,1835.2012,849.5811,1842.1245,856.586" style="stroke: #A80036; stroke-width: 1.0;"/><line style="stroke: #A80036; stroke-width: 1.0;" x1="1840.357" x2="1837.5295" y1="851.9088" y2="844.424"/><polygon fill="#A80036" points="1412.0045,643.344,1417.4457,648.0762,1423.9066,644.8736,1418.4654,640.1414,1412.0045,643.344" style="stroke: #A80036; stroke-width: 1.0;"/><!--MD5=[0eb2ca1c2563986081c25bcdc723fdfe]
link tictactoe.views.graphics.ChoosePlayersView to javax.swing.JRootPane--><path d="M1411.6945,650.775 C1558.2445,674.965 1824.7145,725.116 1903.0945,781 C1927.9945,798.747 1945.6245,829.49 1955.9945,852.02 " fill="none" id="tictactoe.views.graphics.ChoosePlayersView-&gt;javax.swing.JRootPane" style="stroke: #A80036; stroke-width: 1.0; stroke-dasharray: 7.0,7.0;"/><polygon fill="#A80036" points="1958.0945,856.695,1958.0476,846.8463,1956.0421,852.1357,1950.7527,850.1301,1958.0945,856.695" style="stroke: #A80036; stroke-width: 1.0;"/><!--MD5=[07c515c75c2fc272e37f9aea32d8b360]
link tictactoe.views.graphics.ChoosePlayersView to java.awt.event.ActionEvent--><path d="M1214.5745,590.619 C1173.1945,574.475 1124.0845,557.692 1078.0945,548 C881.7455,506.617 357.8095,575.235 177.0975,488 C157.2125,478.401 140.5925,459.771 129.1365,443.934 " fill="none" id="tictactoe.views.graphics.ChoosePlayersView-&gt;java.awt.event.ActionEvent" style="stroke: #A80036; stroke-width: 1.0; stroke-dasharray: 7.0,7.0;"/><polygon fill="#A80036" points="126.0435,439.551,127.9639,449.2108,128.9261,443.6364,134.5006,444.5986,126.0435,439.551" style="stroke: #A80036; stroke-width: 1.0;"/><!--MD5=[036ac694f9ef560a6efe6f0807c8a669]
link tictactoe.views.graphics.ChoosePlayersView to tictactoe.views.graphics.Constraints--><path d="M1222.5545,721.329 C1202.4645,740.764 1181.4145,761.442 1162.0945,781 C1141.1245,802.238 1118.1645,826.673 1100.2945,845.954 " fill="none" id="tictactoe.views.graphics.ChoosePlayersView-&gt;tictactoe.views.graphics.Constraints" style="stroke: #A80036; stroke-width: 1.0; stroke-dasharray: 7.0,7.0;"/><polygon fill="#A80036" points="1096.7945,849.739,1105.8421,845.8478,1100.1895,846.0683,1099.969,840.4158,1096.7945,849.739" style="stroke: #A80036; stroke-width: 1.0;"/><!--MD5=[bdb045c9d431250a5f9395ddd4bd6b7e]
reverse link java.awt.GridBagConstraints to tictactoe.views.graphics.Constraints--><path d="M403.1585,672.237 C423.3405,689.986 449.7365,709.817 477.0975,721 C683.8685,805.513 776.7575,680.205 976.0975,781 C1007.0335,796.642 1033.1045,826.963 1049.7045,849.948 " fill="none" id="java.awt.GridBagConstraints&lt;-tictactoe.views.graphics.Constraints" style="stroke: #A80036; stroke-width: 1.0;"/><polygon fill="none" points="398.3775,677.35,388.4055,658.654,407.8605,667.051,398.3775,677.35" style="stroke: #A80036; stroke-width: 1.0;"/><!--MD5=[10381ae29511add63f6bf8123459af4e]
reverse link tictactoe.views.graphics.CoordinateView to tictactoe.views.graphics.CoordinateMoveView--><path d="M907.6465,739.416 C901.2655,753.101 894.7375,767.101 888.3945,780.707 " fill="none" id="tictactoe.views.graphics.CoordinateView&lt;-tictactoe.views.graphics.CoordinateMoveView" style="stroke: #A80036; stroke-width: 1.0;"/><polygon fill="none" points="901.4305,736.183,916.2265,721.014,914.1185,742.099,901.4305,736.183" style="stroke: #A80036; stroke-width: 1.0;"/><!--MD5=[5cd154c91e18ab8fe96bcf131be95657]
reverse link tictactoe.views.graphics.CoordinateView to tictactoe.views.graphics.CoordinatePutView--><path d="M833.7465,701.578 C792.8255,725.162 747.5995,752.887 708.0975,781 C690.4095,793.589 672.1515,808.27 655.5035,822.412 " fill="none" id="tictactoe.views.graphics.CoordinateView&lt;-tictactoe.views.graphics.CoordinatePutView" style="stroke: #A80036; stroke-width: 1.0;"/><polygon fill="none" points="830.4535,695.397,851.2935,691.563,837.3925,707.556,830.4535,695.397" style="stroke: #A80036; stroke-width: 1.0;"/><!--MD5=[8d59a044b1f407b3a8b407e7a1ed01d6]
reverse link javax.swing.JPanel to tictactoe.views.graphics.CoordinateView--><path d="M1729.7645,837.813 C1721.5745,817.36 1708.6445,794.381 1689.0945,781 C1598.2145,718.78 1304.3145,746.232 1197.0945,721 C1151.5045,710.27 1102.5645,693.864 1060.7745,678.281 " fill="none" id="javax.swing.JPanel&lt;-tictactoe.views.graphics.CoordinateView" style="stroke: #A80036; stroke-width: 1.0;"/><polygon fill="none" points="1736.4745,835.786,1736.4445,856.975,1723.2545,840.396,1736.4745,835.786" style="stroke: #A80036; stroke-width: 1.0;"/><!--MD5=[f06739bdc2562ef708a9105bc1eced38]
reverse link java.awt.event.ActionListener to tictactoe.views.graphics.CoordinateView--><path d="M421.7835,452.655 C437.9165,465.599 457.3875,479.16 477.0975,488 C600.7675,543.466 647.4725,505.269 776.0975,548 C801.0505,556.289 827.0515,567.193 851.2795,578.427 " fill="none" id="java.awt.event.ActionListener&lt;-tictactoe.views.graphics.CoordinateView" style="stroke: #A80036; stroke-width: 1.0;"/><polygon fill="none" points="417.0905,457.854,406.3095,439.612,426.1125,447.149,417.0905,457.854" style="stroke: #A80036; stroke-width: 1.0;"/><!--MD5=[8b96044bfe9f186552fa707236bac3d7]
reverse link java.awt.event.KeyListener to tictactoe.views.graphics.CoordinateView--><path d="M270.2145,455.374 C280.8855,467.789 294.1725,480.295 309.0975,488 C495.0415,583.997 575.3135,489.041 776.0975,548 C801.1595,555.359 827.0955,565.814 851.2095,576.899 " fill="none" id="java.awt.event.KeyListener&lt;-tictactoe.views.graphics.CoordinateView" style="stroke: #A80036; stroke-width: 1.0;"/><polygon fill="none" points="264.6125,459.574,257.7765,439.517,275.6275,450.933,264.6125,459.574" style="stroke: #A80036; stroke-width: 1.0;"/><!--MD5=[64ec8305c6b701a77e453d9781af2e4f]
link tictactoe.views.graphics.CoordinateView to javax.swing.JLabel--><path d="M1071.9179,681.5534 C1071.9179,681.5534 1155.9345,710.613 1197.0945,721 C1366.2845,763.692 1443.1145,679.572 1585.0945,781 C1606.2645,796.117 1619.5145,822.521 1627.3445,844.26 " fill="none" id="tictactoe.views.graphics.CoordinateView-javax.swing.JLabel" style="stroke: #A80036; stroke-width: 1.0;"/><polygon fill="#A80036" points="1631.4345,856.725,1632.4264,846.9262,1629.8743,851.9747,1624.8259,849.4225,1631.4345,856.725" style="stroke: #A80036; stroke-width: 1.0;"/><line style="stroke: #A80036; stroke-width: 1.0;" x1="1629.8743" x2="1627.3795" y1="851.9747" y2="844.3745"/><polygon fill="#A80036" points="1060.6545,677.414,1064.9064,683.2382,1071.9179,681.5534,1067.666,675.7292,1060.6545,677.414" style="stroke: #A80036; stroke-width: 1.0;"/><!--MD5=[20428267ec9a0593e4e83535749df2f2]
link tictactoe.views.graphics.CoordinateView to javax.swing.JTextField--><path d="M1071.9215,679.2009 C1071.9215,679.2009 1156.2445,708.741 1197.0945,721 C1303.6445,752.97 1345.5345,722.416 1440.0945,781 C1466.0845,797.099 1488.1145,823.927 1503.0845,845.597 " fill="none" id="tictactoe.views.graphics.CoordinateView-javax.swing.JTextField" style="stroke: #A80036; stroke-width: 1.0;"/><polygon fill="#A80036" points="1510.4545,856.688,1508.7999,846.9791,1507.6851,852.525,1502.1391,851.4102,1510.4545,856.688" style="stroke: #A80036; stroke-width: 1.0;"/><line style="stroke: #A80036; stroke-width: 1.0;" x1="1507.6851" x2="1503.2595" y1="852.525" y2="845.86"/><polygon fill="#A80036" points="1060.6345,675.126,1064.9197,680.9258,1071.9215,679.2009,1067.6363,673.4011,1060.6345,675.126" style="stroke: #A80036; stroke-width: 1.0;"/><!--MD5=[9b670b36bc06045cf072d235a6e64b39]
link tictactoe.views.graphics.CoordinateView to javax.swing.JButton--><path d="M1071.9124,682.9405 C1071.9124,682.9405 1155.8545,711.758 1197.0945,721 C1327.4245,750.206 1683.8045,707.17 1795.0945,781 C1817.0845,795.588 1830.8945,822.259 1839.0345,844.246 " fill="none" id="tictactoe.views.graphics.CoordinateView-javax.swing.JButton" style="stroke: #A80036; stroke-width: 1.0;"/><polygon fill="#A80036" points="1843.2945,856.851,1844.2026,847.0441,1841.6938,852.1142,1836.6237,849.6053,1843.2945,856.851" style="stroke: #A80036; stroke-width: 1.0;"/><line style="stroke: #A80036; stroke-width: 1.0;" x1="1841.6938" x2="1839.1345" y1="852.1142" y2="844.5345"/><polygon fill="#A80036" points="1060.6545,678.786,1064.8986,684.6159,1071.9124,682.9405,1067.6683,677.1106,1060.6545,678.786" style="stroke: #A80036; stroke-width: 1.0;"/><!--MD5=[c3f8f11eedec776d5e94d2264b4a4fe6]
link tictactoe.views.graphics.CoordinateView to tictactoe.views.graphics.Constraints--><path d="M995.6195,721.014 C1015.3345,763.672 1038.0945,812.907 1052.9945,845.148 " fill="none" id="tictactoe.views.graphics.CoordinateView-&gt;tictactoe.views.graphics.Constraints" style="stroke: #A80036; stroke-width: 1.0; stroke-dasharray: 7.0,7.0;"/><polygon fill="#A80036" points="1055.1345,849.778,1054.9915,839.9302,1053.0377,845.2389,1047.7289,843.2851,1055.1345,849.778" style="stroke: #A80036; stroke-width: 1.0;"/><!--MD5=[6e5bb3a92f06b6521fbaefcba998fa4f]
link tictactoe.views.graphics.CoordinateView to java.awt.event.ActionEvent--><path d="M851.3595,576.376 C827.2365,565.32 801.2605,555.008 776.0975,548 C518.3545,476.212 416.0745,608.314 177.0975,488 C157.5125,478.139 140.9815,459.708 129.4915,444.029 " fill="none" id="tictactoe.views.graphics.CoordinateView-&gt;java.awt.event.ActionEvent" style="stroke: #A80036; stroke-width: 1.0; stroke-dasharray: 7.0,7.0;"/><polygon fill="#A80036" points="126.3865,439.689,128.3704,449.336,129.2959,443.7553,134.8766,444.6809,126.3865,439.689" style="stroke: #A80036; stroke-width: 1.0;"/><!--MD5=[47b0f7ebd6a1ec57eb5e415e44df3625]
reverse link javax.swing.JFrame to tictactoe.views.graphics.GameView--><path d="M2070.3745,838.198 C2061.3345,818.74 2048.3145,796.522 2031.0945,781 C1812.0745,583.506 1469.9245,482.045 1292.8645,440.284 " fill="none" id="javax.swing.JFrame&lt;-tictactoe.views.graphics.GameView" style="stroke: #A80036; stroke-width: 1.0;"/><polygon fill="none" points="2076.8745,835.584,2078.2345,856.73,2063.9845,841.048,2076.8745,835.584" style="stroke: #A80036; stroke-width: 1.0;"/><!--MD5=[b5996867af380ca02459b04aa80f56b8]
link tictactoe.views.graphics.GameView to tictactoe.views.graphics.ChoosePlayersView--><path d="M1222.6745,488.155 C1233.6545,505.795 1245.5445,524.91 1256.9845,543.302 " fill="none" id="tictactoe.views.graphics.GameView-&gt;tictactoe.views.graphics.ChoosePlayersView" style="stroke: #A80036; stroke-width: 1.0; stroke-dasharray: 7.0,7.0;"/><polygon fill="#A80036" points="1259.8845,547.961,1258.5236,538.2066,1257.242,543.7164,1251.7322,542.4347,1259.8845,547.961" style="stroke: #A80036; stroke-width: 1.0;"/><!--MD5=[c79a14885adf94ff16841042cb6332be]
link tictactoe.views.graphics.GameView to tictactoe.views.PlayerView--><path d="M1189.3745,342.905 C1195.3945,277.892 1193.0545,183.097 1142.0945,122 C1111.7745,85.65 1057.7645,72.942 1017.5505,68.692 " fill="none" id="tictactoe.views.graphics.GameView-&gt;tictactoe.views.PlayerView" style="stroke: #A80036; stroke-width: 1.0; stroke-dasharray: 7.0,7.0;"/><polygon fill="#A80036" points="1012.2195,68.17,1020.7869,73.0279,1017.1957,68.6572,1021.5664,65.066,1012.2195,68.17" style="stroke: #A80036; stroke-width: 1.0;"/><!--MD5=[cde31fc4b42824274c0456a9d3e41790]
link tictactoe.views.graphics.GameView to tictactoe.views.graphics.BoardView--><path d="M1172.3345,488.01 C1169.6245,551.007 1171.4645,644.401 1197.0945,721 C1210.7145,761.679 1237.4745,801.945 1260.5745,831.778 " fill="none" id="tictactoe.views.graphics.GameView-&gt;tictactoe.views.graphics.BoardView" style="stroke: #A80036; stroke-width: 1.0; stroke-dasharray: 7.0,7.0;"/><polygon fill="#A80036" points="1263.6645,835.732,1261.2806,826.176,1260.5883,831.7903,1254.974,831.098,1263.6645,835.732" style="stroke: #A80036; stroke-width: 1.0;"/><!--MD5=[a43462772411fda6d5e604aa4dc9a36f]
link tictactoe.views.graphics.GameView to tictactoe.views.graphics.Constraints--><path d="M1161.2445,488.16 C1137.5545,588.909 1095.2945,768.596 1077.4345,844.548 " fill="none" id="tictactoe.views.graphics.GameView-&gt;tictactoe.views.graphics.Constraints" style="stroke: #A80036; stroke-width: 1.0; stroke-dasharray: 7.0,7.0;"/><polygon fill="#A80036" points="1076.1945,849.835,1082.1466,841.9882,1077.3379,844.9675,1074.3585,840.1588,1076.1945,849.835" style="stroke: #A80036; stroke-width: 1.0;"/><!--MD5=[7be369977caa022d054f8c60cd641674]
reverse link tictactoe.views.View to tictactoe.views.graphics.GraphicsView--><path d="M842.3545,109.172 C836.6805,126.585 830.0115,147.05 823.8965,165.816 " fill="none" id="tictactoe.views.View&lt;-tictactoe.views.graphics.GraphicsView" style="stroke: #A80036; stroke-width: 1.0;"/><polygon fill="none" points="835.7205,106.939,848.5725,90.092,849.0315,111.277,835.7205,106.939" style="stroke: #A80036; stroke-width: 1.0;"/><!--MD5=[56170282cb16756a44e05ee3fcd945e0]
link tictactoe.views.graphics.GraphicsView to tictactoe.views.graphics.GameView--><path d="M884.7502,279.3643 C884.7502,279.3643 889.2975,281.994 891.0975,283 C942.2595,311.583 1000.7525,339.231 1051.5245,361.737 " fill="none" id="tictactoe.views.graphics.GraphicsView-tictactoe.views.graphics.GameView" style="stroke: #A80036; stroke-width: 1.0;"/><polygon fill="#A80036" points="1063.5845,367.049,1056.9618,359.7593,1059.0091,365.0327,1053.7357,367.08,1063.5845,367.049" style="stroke: #A80036; stroke-width: 1.0;"/><line style="stroke: #A80036; stroke-width: 1.0;" x1="1059.0091" x2="1051.6895" y1="365.0327" y2="361.807"/><polygon fill="#A80036" points="874.4455,273.215,877.5481,279.7245,884.7502,279.3643,881.6476,272.8548,874.4455,273.215" style="stroke: #A80036; stroke-width: 1.0;"/><!--MD5=[b8439edf54a3c3807b534686210f66ce]
reverse link tictactoe.views.PlayerView to tictactoe.views.graphics.MachinePlayerView--><path d="M979.8285,109.133 C986.8955,130.822 995.5095,157.252 1002.6745,179.238 " fill="none" id="tictactoe.views.PlayerView&lt;-tictactoe.views.graphics.MachinePlayerView" style="stroke: #A80036; stroke-width: 1.0;"/><polygon fill="none" points="973.1645,111.277,973.6235,90.092,986.4755,106.939,973.1645,111.277" style="stroke: #A80036; stroke-width: 1.0;"/><!--MD5=[5a23dad18e5d6887e4100af0bfeec4a7]
reverse link tictactoe.views.PlayerView to tictactoe.views.graphics.UserPlayerView--><path d="M925.7865,101.945 C918.3265,106.806 910.2905,111.117 902.0975,114 C863.4925,127.589 758.3565,114.631 718.0975,122 C409.6625,178.455 231.8375,88.916 48.0979,343 C10.3346,395.221 6,439.206 48.0979,488 C107.5314,556.887 365.8885,522.073 453.0975,548 C475.0705,554.532 497.7785,563.201 519.4565,572.514 " fill="none" id="tictactoe.views.PlayerView&lt;-tictactoe.views.graphics.UserPlayerView" style="stroke: #A80036; stroke-width: 1.0;"/><polygon fill="none" points="921.7035,96.258,941.9535,90.017,930.0155,107.524,921.7035,96.258" style="stroke: #A80036; stroke-width: 1.0;"/><!--MD5=[019086a575f29d92d2eda5b55be6f110]
link tictactoe.views.graphics.UserPlayerView to tictactoe.views.graphics.CoordinatePutView--><path d="M623.0479,718.9902 C623.0479,718.9902 611.0145,781.593 605.6695,809.4 " fill="none" id="tictactoe.views.graphics.UserPlayerView-tictactoe.views.graphics.CoordinatePutView" style="stroke: #A80036; stroke-width: 1.0;"/><polygon fill="#A80036" points="603.1985,822.253,608.8257,814.1701,604.1425,817.3429,600.9696,812.6597,603.1985,822.253" style="stroke: #A80036; stroke-width: 1.0;"/><line style="stroke: #A80036; stroke-width: 1.0;" x1="604.1425" x2="605.6525" y1="817.3429" y2="809.487"/><polygon fill="#A80036" points="625.3135,707.206,620.2526,712.3429,623.0479,718.9902,628.1088,713.8533,625.3135,707.206" style="stroke: #A80036; stroke-width: 1.0;"/><!--MD5=[e04f6c8fd17d2a2d4f4737c18e94d2a3]
link tictactoe.views.graphics.UserPlayerView to tictactoe.views.graphics.CoordinateMoveView--><path d="M706.299,716.4377 C706.299,716.4377 736.1745,752.422 750.9325,770.197 " fill="none" id="tictactoe.views.graphics.UserPlayerView-tictactoe.views.graphics.CoordinateMoveView" style="stroke: #A80036; stroke-width: 1.0;"/><polygon fill="#A80036" points="759.5775,780.61,756.9057,771.1305,756.3834,776.7632,750.7507,776.241,759.5775,780.61" style="stroke: #A80036; stroke-width: 1.0;"/><line style="stroke: #A80036; stroke-width: 1.0;" x1="756.3834" x2="751.273" y1="776.7632" y2="770.6075"/><polygon fill="#A80036" points="698.6325,707.206,699.3885,714.3774,706.299,716.4377,705.543,709.2664,698.6325,707.206" style="stroke: #A80036; stroke-width: 1.0;"/><!--MD5=[b0ef6767024c98d104200c01c4e4d87d]
link tictactoe.views.graphics.UserPlayerView to tictactoe.views.graphics.Constraints--><path d="M758.6135,688.205 C783.5315,699.109 809.6515,710.476 834.0975,721 C897.0285,748.09 919.8705,741.851 976.0975,781 C1001.8615,798.938 1025.9745,824.991 1043.1945,845.869 " fill="none" id="tictactoe.views.graphics.UserPlayerView-&gt;tictactoe.views.graphics.Constraints" style="stroke: #A80036; stroke-width: 1.0; stroke-dasharray: 7.0,7.0;"/><polygon fill="#A80036" points="1046.5445,849.972,1043.9502,840.471,1043.382,846.0992,1037.7537,845.531,1046.5445,849.972" style="stroke: #A80036; stroke-width: 1.0;"/><!--MD5=[d6368820aa540710f51d9ae897465467]
@startuml

class  tictactoe.views.graphics.BoardView{
~ BoardView(Board)
- printRowBoard(Board, int): void
- printSquareValueBoard(Board, int, int): String
}
javax.swing.JPanel <|-down- tictactoe.views.graphics.BoardView
tictactoe.views.graphics.BoardView *-down-> javax.swing.JLabel
tictactoe.views.graphics.ChoosePlayersView ..> tictactoe.views.graphics.BoardView

class  tictactoe.views.graphics.ChoosePlayersView{
- {static} ACCEPT: String
- label: JLabel
- textField: JTextField
- button: JButton
- playersNumber: String
~ ChoosePlayersView(JRootPane)
~ resetPlayersNumber(): void
~ getPlayersNumber(): String
+ actionPerformed(ActionEvent): void
}
javax.swing.JPanel <|-down- tictactoe.views.graphics.ChoosePlayersView
java.awt.event.ActionListener <|-down- tictactoe.views.graphics.ChoosePlayersView
java.awt.event.KeyListener <|-down- tictactoe.views.graphics.ChoosePlayersView
tictactoe.views.graphics.ChoosePlayersView *-down-> javax.swing.JLabel
tictactoe.views.graphics.ChoosePlayersView *-down-> javax.swing.JTextField
tictactoe.views.graphics.ChoosePlayersView *-down-> javax.swing.JButton
tictactoe.views.graphics.ChoosePlayersView ..> javax.swing.JRootPane
tictactoe.views.graphics.ChoosePlayersView ..> java.awt.event.ActionEvent
tictactoe.views.graphics.ChoosePlayersView ..> tictactoe.views.graphics.Constraints

class  tictactoe.views.graphics.Constraints{
~ Constraints(int, int, int, int)
}
java.awt.GridBagConstraints <|-down- tictactoe.views.graphics.Constraints

class  tictactoe.views.graphics.CoordinateMoveView{
- {static} ENTER_COORDINATE_TO_REMOVE: String
- labelRowToMove: JLabel
- labelColumnToMove: JLabel
- titleLabelToMove: JLabel
- textFieldRowToMove: JTextField
- textFieldColumnToMove: JTextField
- coordinates: Coordinate[]
~ CoordinateMoveView()
~ resetCoordinates(): void
~ getCoordinates(): Coordinate[]
+ actionPerformed(ActionEvent): void
}
tictactoe.views.graphics.CoordinateView <|-down- tictactoe.views.graphics.CoordinateMoveView

class  tictactoe.views.graphics.CoordinatePutView{
- coordinates: Coordinate[]
~ CoordinatePutView()
~ resetCoordinate(): void
~ getCoordinate(): Coordinate
+ actionPerformed(ActionEvent): void
}
tictactoe.views.graphics.CoordinateView <|-down- tictactoe.views.graphics.CoordinatePutView

class  tictactoe.views.graphics.CoordinateView{
# {static} ENTER_COORDINATE_TO_PUT: String
# {static} ACCEPT: String
# labelRow: JLabel
# labelColumn: JLabel
# titleLabel: JLabel
# textFieldRow: JTextField
# textFieldColumn: JTextField
# button: JButton
~ CoordinateView()
}
javax.swing.JPanel <|-down- tictactoe.views.graphics.CoordinateView
java.awt.event.ActionListener <|-down- tictactoe.views.graphics.CoordinateView
java.awt.event.KeyListener <|-down- tictactoe.views.graphics.CoordinateView
tictactoe.views.graphics.CoordinateView *-down-> javax.swing.JLabel
tictactoe.views.graphics.CoordinateView *-down-> javax.swing.JTextField
tictactoe.views.graphics.CoordinateView *-down-> javax.swing.JButton
tictactoe.views.graphics.CoordinateView ..> tictactoe.views.graphics.Constraints
tictactoe.views.graphics.CoordinateView ..> java.awt.event.ActionEvent

class  tictactoe.views.graphics.GameView{
- {static} GAME_OVER: String
- game: Game
- choosePlayersView: ChoosePlayersView
~ GameView(Game)
~ start(): void
~ play(): boolean
~ result(): void
}
javax.swing.JFrame <|-down- tictactoe.views.graphics.GameView
tictactoe.views.graphics.GameView ..> tictactoe.views.graphics.ChoosePlayersView
tictactoe.views.graphics.GameView ..> tictactoe.views.PlayerView
tictactoe.views.graphics.GameView ..> tictactoe.views.graphics.BoardView
tictactoe.views.graphics.GameView ..> tictactoe.views.graphics.Constraints

class  tictactoe.views.graphics.GraphicsView{
- gameView: GameView
+ GraphicsView(Game)
# start(): void
# play(): boolean
# result(): void
}
tictactoe.views.View <|-down- tictactoe.views.graphics.GraphicsView
tictactoe.views.graphics.GraphicsView *-down-> tictactoe.views.graphics.GameView

class  tictactoe.views.graphics.MachinePlayerView{
~ MachinePlayerView(Player)
+ readCoordinateToPut(): Coordinate
+ readCoordinatesToMove(): Coordinate[]
}
tictactoe.views.PlayerView <|-down- tictactoe.views.graphics.MachinePlayerView

class  tictactoe.views.graphics.UserPlayerView{
~ {static} ENTER_COORDINATE_TO_PUT: String
~ {static} ENTER_COORDINATE_TO_REMOVE: String
~ coordinatePutView: CoordinatePutView
~ coordinateMoveView: CoordinateMoveView
~ UserPlayerView(Player)
+ readCoordinateToPut(): Coordinate
+ readCoordinatesToMove(): Coordinate[]
}
tictactoe.views.PlayerView <|-down- tictactoe.views.graphics.UserPlayerView
tictactoe.views.graphics.UserPlayerView *-down-> tictactoe.views.graphics.CoordinatePutView
tictactoe.views.graphics.UserPlayerView *-down-> tictactoe.views.graphics.CoordinateMoveView
tictactoe.views.graphics.UserPlayerView ..> tictactoe.views.graphics.Constraints

@enduml

PlantUML version 1.2020.15(Sun Jun 28 13:39:45 CEST 2020)
(GPL source distribution)
Java Runtime: Java(TM) SE Runtime Environment
JVM: Java HotSpot(TM) 64-Bit Server VM
Default Encoding: windows-1252
Language: es
Country: ES
--></g></svg>