<?xml version="1.0" encoding="UTF-8" standalone="no"?><svg xmlns="http://www.w3.org/2000/svg" xmlns:xlink="http://www.w3.org/1999/xlink" contentScriptType="application/ecmascript" contentStyleType="text/css" height="517px" preserveAspectRatio="none" style="width:730px;height:517px;" version="1.1" viewBox="0 0 730 517" width="730px" zoomAndPan="magnify"><defs><filter height="300%" id="f1r59spkat5eut" width="300%" x="-1" y="-1"><feGaussianBlur result="blurOut" stdDeviation="2.0"/><feColorMatrix in="blurOut" result="blurOut2" type="matrix" values="0 0 0 0 0 0 0 0 0 0 0 0 0 0 0 0 0 0 .4 0"/><feOffset dx="4.0" dy="4.0" in="blurOut2" result="blurOut3"/><feBlend in="SourceGraphic" in2="blurOut3" mode="normal"/></filter></defs><g><!--MD5=[ee7e9a007a7c4d40c0679a27f272732d]
cluster tictactoe.controllers--><polygon fill="#FFFFFF" filter="url(#f1r59spkat5eut)" points="16,6,164,6,171,29.6094,666,29.6094,666,381,16,381,16,6" style="stroke: #000000; stroke-width: 1.5;"/><line style="stroke: #000000; stroke-width: 1.5;" x1="16" x2="171" y1="29.6094" y2="29.6094"/><text fill="#000000" font-family="sans-serif" font-size="14" font-weight="bold" lengthAdjust="spacingAndGlyphs" textLength="142" x="20" y="22.5332">tictactoe.controllers</text><!--MD5=[51cd642fcc96b47682a93d9084d46dec]
cluster tictactoe.models--><polygon fill="#FFFFFF" filter="url(#f1r59spkat5eut)" points="266,405,388,405,395,428.6094,493,428.6094,493,505,266,505,266,405" style="stroke: #000000; stroke-width: 1.5;"/><line style="stroke: #000000; stroke-width: 1.5;" x1="266" x2="395" y1="428.6094" y2="428.6094"/><text fill="#000000" font-family="sans-serif" font-size="14" font-weight="bold" lengthAdjust="spacingAndGlyphs" textLength="116" x="270" y="421.5332">tictactoe.models</text><!--MD5=[957eef6538bab7382edbc29d98579a60]
class tictactoe.controllers.Controller--><rect fill="#FEFECE" filter="url(#f1r59spkat5eut)" height="89.5078" id="tictactoe.controllers.Controller" style="stroke: #A80036; stroke-width: 1.5;" width="113" x="435.5" y="42"/><ellipse cx="462.65" cy="58" fill="#ADD1B2" rx="11" ry="11" style="stroke: #A80036; stroke-width: 1.0;"/><path d="M465.4156,53.875 Q465.5719,53.6563 465.7594,53.5469 Q465.9469,53.4375 466.1656,53.4375 Q466.5406,53.4375 466.775,53.7031 Q467.0094,53.9531 467.0094,54.5625 L467.0094,56.0156 Q467.0094,56.625 466.775,56.8906 Q466.5406,57.1563 466.1656,57.1563 Q465.8219,57.1563 465.6188,56.9531 Q465.4156,56.7656 465.3063,56.25 Q465.2594,55.8906 465.0719,55.7031 Q464.7438,55.3281 464.1344,55.1094 Q463.525,54.8906 462.9,54.8906 Q462.1344,54.8906 461.4938,55.2188 Q460.8688,55.5469 460.3688,56.2969 Q459.8844,57.0469 459.8844,58.0781 L459.8844,59.1719 Q459.8844,60.4063 460.775,61.2344 Q461.6656,62.0469 463.2594,62.0469 Q464.1969,62.0469 464.8531,61.7969 Q465.2438,61.6406 465.6656,61.2031 Q465.9313,60.9375 466.0719,60.8594 Q466.2281,60.7813 466.4313,60.7813 Q466.7594,60.7813 467.0094,61.0469 Q467.275,61.2969 467.275,61.6406 Q467.275,61.9844 466.9313,62.3906 Q466.4313,62.9688 465.6344,63.2969 Q464.5563,63.75 463.2594,63.75 Q461.7438,63.75 460.5406,63.125 Q459.5563,62.625 458.8688,61.5625 Q458.1813,60.4844 458.1813,59.2031 L458.1813,58.0469 Q458.1813,56.7188 458.7906,55.5781 Q459.4156,54.4219 460.5094,53.8125 Q461.6031,53.1875 462.8375,53.1875 Q463.5719,53.1875 464.2125,53.3594 Q464.8688,53.5156 465.4156,53.875 Z "/><text fill="#000000" font-family="sans-serif" font-size="12" lengthAdjust="spacingAndGlyphs" textLength="54" x="479.35" y="62.9102">Controller</text><line style="stroke: #A80036; stroke-width: 1.5;" x1="436.5" x2="547.5" y1="74" y2="74"/><polygon fill="none" points="446.5,80,450.5,84,446.5,88,442.5,84" style="stroke: #B38D22; stroke-width: 1.0;"/><text fill="#000000" font-family="sans-serif" font-size="11" lengthAdjust="spacingAndGlyphs" textLength="60" x="455.5" y="89.4189">game: Game</text><line style="stroke: #A80036; stroke-width: 1.5;" x1="436.5" x2="547.5" y1="95.8359" y2="95.8359"/><polygon fill="#4177AF" points="446.5,102.8359,442.5,108.8359,450.5,108.8359" style="stroke: #1963A0; stroke-width: 1.0;"/><text fill="#000000" font-family="sans-serif" font-size="11" lengthAdjust="spacingAndGlyphs" textLength="82" x="455.5" y="111.2549">Controller(Game)</text><ellipse cx="446.5" cy="120.6719" fill="#84BE84" rx="3" ry="3" style="stroke: #038048; stroke-width: 1.0;"/><text fill="#000000" font-family="sans-serif" font-size="11" lengthAdjust="spacingAndGlyphs" textLength="87" x="455.5" y="125.0908">getBoard(): Board</text><!--MD5=[b574e60c06c50037ff1b014277a67d62]
class tictactoe.controllers.PlayController--><rect fill="#FEFECE" filter="url(#f1r59spkat5eut)" height="172.5234" id="tictactoe.controllers.PlayController" style="stroke: #A80036; stroke-width: 1.5;" width="249" x="32.5" y="192"/><ellipse cx="114.25" cy="208" fill="#ADD1B2" rx="11" ry="11" style="stroke: #A80036; stroke-width: 1.0;"/><path d="M117.0156,203.875 Q117.1719,203.6563 117.3594,203.5469 Q117.5469,203.4375 117.7656,203.4375 Q118.1406,203.4375 118.375,203.7031 Q118.6094,203.9531 118.6094,204.5625 L118.6094,206.0156 Q118.6094,206.625 118.375,206.8906 Q118.1406,207.1563 117.7656,207.1563 Q117.4219,207.1563 117.2188,206.9531 Q117.0156,206.7656 116.9063,206.25 Q116.8594,205.8906 116.6719,205.7031 Q116.3438,205.3281 115.7344,205.1094 Q115.125,204.8906 114.5,204.8906 Q113.7344,204.8906 113.0938,205.2188 Q112.4688,205.5469 111.9688,206.2969 Q111.4844,207.0469 111.4844,208.0781 L111.4844,209.1719 Q111.4844,210.4063 112.375,211.2344 Q113.2656,212.0469 114.8594,212.0469 Q115.7969,212.0469 116.4531,211.7969 Q116.8438,211.6406 117.2656,211.2031 Q117.5313,210.9375 117.6719,210.8594 Q117.8281,210.7813 118.0313,210.7813 Q118.3594,210.7813 118.6094,211.0469 Q118.875,211.2969 118.875,211.6406 Q118.875,211.9844 118.5313,212.3906 Q118.0313,212.9688 117.2344,213.2969 Q116.1563,213.75 114.8594,213.75 Q113.3438,213.75 112.1406,213.125 Q111.1563,212.625 110.4688,211.5625 Q109.7813,210.4844 109.7813,209.2031 L109.7813,208.0469 Q109.7813,206.7188 110.3906,205.5781 Q111.0156,204.4219 112.1094,203.8125 Q113.2031,203.1875 114.4375,203.1875 Q115.1719,203.1875 115.8125,203.3594 Q116.4688,203.5156 117.0156,203.875 Z "/><text fill="#000000" font-family="sans-serif" font-size="12" lengthAdjust="spacingAndGlyphs" textLength="77" x="134.75" y="212.9102">PlayController</text><line style="stroke: #A80036; stroke-width: 1.5;" x1="33.5" x2="280.5" y1="224" y2="224"/><line style="stroke: #A80036; stroke-width: 1.5;" x1="33.5" x2="280.5" y1="232" y2="232"/><ellipse cx="43.5" cy="243" fill="#84BE84" rx="3" ry="3" style="stroke: #038048; stroke-width: 1.0;"/><text fill="#000000" font-family="sans-serif" font-size="11" lengthAdjust="spacingAndGlyphs" textLength="102" x="52.5" y="247.4189">PlayController(Game)</text><ellipse cx="43.5" cy="256.8359" fill="#84BE84" rx="3" ry="3" style="stroke: #038048; stroke-width: 1.0;"/><text fill="#000000" font-family="sans-serif" font-size="11" lengthAdjust="spacingAndGlyphs" textLength="164" x="52.5" y="261.2549">getTokenPlayerFromTurn(): Player</text><ellipse cx="43.5" cy="270.6719" fill="#84BE84" rx="3" ry="3" style="stroke: #038048; stroke-width: 1.0;"/><text fill="#000000" font-family="sans-serif" font-size="11" lengthAdjust="spacingAndGlyphs" textLength="133" x="52.5" y="275.0908">isBoardComplete(): boolean</text><ellipse cx="43.5" cy="284.5078" fill="#84BE84" rx="3" ry="3" style="stroke: #038048; stroke-width: 1.0;"/><text fill="#000000" font-family="sans-serif" font-size="11" lengthAdjust="spacingAndGlyphs" textLength="206" x="52.5" y="288.9268">putTokenPlayerFromTurn(Coordinate): void</text><ellipse cx="43.5" cy="298.3438" fill="#84BE84" rx="3" ry="3" style="stroke: #038048; stroke-width: 1.0;"/><text fill="#000000" font-family="sans-serif" font-size="11" lengthAdjust="spacingAndGlyphs" textLength="223" x="52.5" y="302.7627">moveTokenPlayerFromTurn(Coordinate[]): void</text><ellipse cx="43.5" cy="312.1797" fill="#84BE84" rx="3" ry="3" style="stroke: #038048; stroke-width: 1.0;"/><text fill="#000000" font-family="sans-serif" font-size="11" lengthAdjust="spacingAndGlyphs" textLength="92" x="52.5" y="316.5986">changeTurn(): void</text><ellipse cx="43.5" cy="326.0156" fill="#84BE84" rx="3" ry="3" style="stroke: #038048; stroke-width: 1.0;"/><text fill="#000000" font-family="sans-serif" font-size="11" lengthAdjust="spacingAndGlyphs" textLength="115" x="52.5" y="330.4346">getToken(int, int): Token</text><ellipse cx="43.5" cy="339.8516" fill="#84BE84" rx="3" ry="3" style="stroke: #038048; stroke-width: 1.0;"/><text fill="#000000" font-family="sans-serif" font-size="11" lengthAdjust="spacingAndGlyphs" textLength="141" x="52.5" y="344.2705">getCoordinateDimension(): int</text><ellipse cx="43.5" cy="353.6875" fill="#84BE84" rx="3" ry="3" style="stroke: #038048; stroke-width: 1.0;"/><text fill="#000000" font-family="sans-serif" font-size="11" lengthAdjust="spacingAndGlyphs" textLength="110" x="52.5" y="358.1064">isTicTacToe(): boolean</text><!--MD5=[2c3ef77d19c2424f55dfd6db4f13e20e]
class tictactoe.controllers.ResultController--><rect fill="#FEFECE" filter="url(#f1r59spkat5eut)" height="75.6719" id="tictactoe.controllers.ResultController" style="stroke: #A80036; stroke-width: 1.5;" width="167" x="316.5" y="240.5"/><ellipse cx="351.75" cy="256.5" fill="#ADD1B2" rx="11" ry="11" style="stroke: #A80036; stroke-width: 1.0;"/><path d="M354.5156,252.375 Q354.6719,252.1563 354.8594,252.0469 Q355.0469,251.9375 355.2656,251.9375 Q355.6406,251.9375 355.875,252.2031 Q356.1094,252.4531 356.1094,253.0625 L356.1094,254.5156 Q356.1094,255.125 355.875,255.3906 Q355.6406,255.6563 355.2656,255.6563 Q354.9219,255.6563 354.7188,255.4531 Q354.5156,255.2656 354.4063,254.75 Q354.3594,254.3906 354.1719,254.2031 Q353.8438,253.8281 353.2344,253.6094 Q352.625,253.3906 352,253.3906 Q351.2344,253.3906 350.5938,253.7188 Q349.9688,254.0469 349.4688,254.7969 Q348.9844,255.5469 348.9844,256.5781 L348.9844,257.6719 Q348.9844,258.9063 349.875,259.7344 Q350.7656,260.5469 352.3594,260.5469 Q353.2969,260.5469 353.9531,260.2969 Q354.3438,260.1406 354.7656,259.7031 Q355.0313,259.4375 355.1719,259.3594 Q355.3281,259.2813 355.5313,259.2813 Q355.8594,259.2813 356.1094,259.5469 Q356.375,259.7969 356.375,260.1406 Q356.375,260.4844 356.0313,260.8906 Q355.5313,261.4688 354.7344,261.7969 Q353.6563,262.25 352.3594,262.25 Q350.8438,262.25 349.6406,261.625 Q348.6563,261.125 347.9688,260.0625 Q347.2813,258.9844 347.2813,257.7031 L347.2813,256.5469 Q347.2813,255.2188 347.8906,254.0781 Q348.5156,252.9219 349.6094,252.3125 Q350.7031,251.6875 351.9375,251.6875 Q352.6719,251.6875 353.3125,251.8594 Q353.9688,252.0156 354.5156,252.375 Z "/><text fill="#000000" font-family="sans-serif" font-size="12" lengthAdjust="spacingAndGlyphs" textLength="90" x="370.25" y="261.4102">ResultController</text><line style="stroke: #A80036; stroke-width: 1.5;" x1="317.5" x2="482.5" y1="272.5" y2="272.5"/><line style="stroke: #A80036; stroke-width: 1.5;" x1="317.5" x2="482.5" y1="280.5" y2="280.5"/><ellipse cx="327.5" cy="291.5" fill="#84BE84" rx="3" ry="3" style="stroke: #038048; stroke-width: 1.0;"/><text fill="#000000" font-family="sans-serif" font-size="11" lengthAdjust="spacingAndGlyphs" textLength="112" x="336.5" y="295.9189">ResultController(Game)</text><ellipse cx="327.5" cy="305.3359" fill="#84BE84" rx="3" ry="3" style="stroke: #038048; stroke-width: 1.0;"/><text fill="#000000" font-family="sans-serif" font-size="11" lengthAdjust="spacingAndGlyphs" textLength="141" x="336.5" y="309.7549">getOtherValueFromTurn(): int</text><!--MD5=[8ede4dbfb3b498095887802b64b699f0]
class tictactoe.controllers.StartController--><rect fill="#FEFECE" filter="url(#f1r59spkat5eut)" height="75.6719" id="tictactoe.controllers.StartController" style="stroke: #A80036; stroke-width: 1.5;" width="131" x="518.5" y="240.5"/><ellipse cx="542.5" cy="256.5" fill="#ADD1B2" rx="11" ry="11" style="stroke: #A80036; stroke-width: 1.0;"/><path d="M545.2656,252.375 Q545.4219,252.1563 545.6094,252.0469 Q545.7969,251.9375 546.0156,251.9375 Q546.3906,251.9375 546.625,252.2031 Q546.8594,252.4531 546.8594,253.0625 L546.8594,254.5156 Q546.8594,255.125 546.625,255.3906 Q546.3906,255.6563 546.0156,255.6563 Q545.6719,255.6563 545.4688,255.4531 Q545.2656,255.2656 545.1563,254.75 Q545.1094,254.3906 544.9219,254.2031 Q544.5938,253.8281 543.9844,253.6094 Q543.375,253.3906 542.75,253.3906 Q541.9844,253.3906 541.3438,253.7188 Q540.7188,254.0469 540.2188,254.7969 Q539.7344,255.5469 539.7344,256.5781 L539.7344,257.6719 Q539.7344,258.9063 540.625,259.7344 Q541.5156,260.5469 543.1094,260.5469 Q544.0469,260.5469 544.7031,260.2969 Q545.0938,260.1406 545.5156,259.7031 Q545.7813,259.4375 545.9219,259.3594 Q546.0781,259.2813 546.2813,259.2813 Q546.6094,259.2813 546.8594,259.5469 Q547.125,259.7969 547.125,260.1406 Q547.125,260.4844 546.7813,260.8906 Q546.2813,261.4688 545.4844,261.7969 Q544.4063,262.25 543.1094,262.25 Q541.5938,262.25 540.3906,261.625 Q539.4063,261.125 538.7188,260.0625 Q538.0313,258.9844 538.0313,257.7031 L538.0313,256.5469 Q538.0313,255.2188 538.6406,254.0781 Q539.2656,252.9219 540.3594,252.3125 Q541.4531,251.6875 542.6875,251.6875 Q543.4219,251.6875 544.0625,251.8594 Q544.7188,252.0156 545.2656,252.375 Z "/><text fill="#000000" font-family="sans-serif" font-size="12" lengthAdjust="spacingAndGlyphs" textLength="79" x="558.5" y="261.4102">StartController</text><line style="stroke: #A80036; stroke-width: 1.5;" x1="519.5" x2="648.5" y1="272.5" y2="272.5"/><line style="stroke: #A80036; stroke-width: 1.5;" x1="519.5" x2="648.5" y1="280.5" y2="280.5"/><ellipse cx="529.5" cy="291.5" fill="#84BE84" rx="3" ry="3" style="stroke: #038048; stroke-width: 1.0;"/><text fill="#000000" font-family="sans-serif" font-size="11" lengthAdjust="spacingAndGlyphs" textLength="105" x="538.5" y="295.9189">StartController(Game)</text><ellipse cx="529.5" cy="305.3359" fill="#84BE84" rx="3" ry="3" style="stroke: #038048; stroke-width: 1.0;"/><text fill="#000000" font-family="sans-serif" font-size="11" lengthAdjust="spacingAndGlyphs" textLength="101" x="538.5" y="309.7549">createPlayers(): void</text><!--MD5=[8d3188f3c370ea7d5d91d12bca83b67a]
class tictactoe.models.Game--><rect fill="#FEFECE" filter="url(#f1r59spkat5eut)" height="48" id="tictactoe.models.Game" style="stroke: #A80036; stroke-width: 1.5;" width="66" x="411" y="441"/><ellipse cx="426" cy="457" fill="#ADD1B2" rx="11" ry="11" style="stroke: #A80036; stroke-width: 1.0;"/><path d="M428.7656,452.875 Q428.9219,452.6563 429.1094,452.5469 Q429.2969,452.4375 429.5156,452.4375 Q429.8906,452.4375 430.125,452.7031 Q430.3594,452.9531 430.3594,453.5625 L430.3594,455.0156 Q430.3594,455.625 430.125,455.8906 Q429.8906,456.1563 429.5156,456.1563 Q429.1719,456.1563 428.9688,455.9531 Q428.7656,455.7656 428.6563,455.25 Q428.6094,454.8906 428.4219,454.7031 Q428.0938,454.3281 427.4844,454.1094 Q426.875,453.8906 426.25,453.8906 Q425.4844,453.8906 424.8438,454.2188 Q424.2188,454.5469 423.7188,455.2969 Q423.2344,456.0469 423.2344,457.0781 L423.2344,458.1719 Q423.2344,459.4063 424.125,460.2344 Q425.0156,461.0469 426.6094,461.0469 Q427.5469,461.0469 428.2031,460.7969 Q428.5938,460.6406 429.0156,460.2031 Q429.2813,459.9375 429.4219,459.8594 Q429.5781,459.7813 429.7813,459.7813 Q430.1094,459.7813 430.3594,460.0469 Q430.625,460.2969 430.625,460.6406 Q430.625,460.9844 430.2813,461.3906 Q429.7813,461.9688 428.9844,462.2969 Q427.9063,462.75 426.6094,462.75 Q425.0938,462.75 423.8906,462.125 Q422.9063,461.625 422.2188,460.5625 Q421.5313,459.4844 421.5313,458.2031 L421.5313,457.0469 Q421.5313,455.7188 422.1406,454.5781 Q422.7656,453.4219 423.8594,452.8125 Q424.9531,452.1875 426.1875,452.1875 Q426.9219,452.1875 427.5625,452.3594 Q428.2188,452.5156 428.7656,452.875 Z "/><text fill="#000000" font-family="sans-serif" font-size="12" lengthAdjust="spacingAndGlyphs" textLength="34" x="440" y="461.9102">Game</text><line style="stroke: #A80036; stroke-width: 1.5;" x1="412" x2="476" y1="473" y2="473"/><line style="stroke: #A80036; stroke-width: 1.5;" x1="412" x2="476" y1="481" y2="481"/><!--MD5=[55d70ecb9e3ba4786ec1f15d0b7dce13]
class tictactoe.models.Coordinate--><rect fill="#FEFECE" filter="url(#f1r59spkat5eut)" height="48" id="tictactoe.models.Coordinate" style="stroke: #A80036; stroke-width: 1.5;" width="93" x="282.5" y="441"/><ellipse cx="297.5" cy="457" fill="#ADD1B2" rx="11" ry="11" style="stroke: #A80036; stroke-width: 1.0;"/><path d="M300.2656,452.875 Q300.4219,452.6563 300.6094,452.5469 Q300.7969,452.4375 301.0156,452.4375 Q301.3906,452.4375 301.625,452.7031 Q301.8594,452.9531 301.8594,453.5625 L301.8594,455.0156 Q301.8594,455.625 301.625,455.8906 Q301.3906,456.1563 301.0156,456.1563 Q300.6719,456.1563 300.4688,455.9531 Q300.2656,455.7656 300.1563,455.25 Q300.1094,454.8906 299.9219,454.7031 Q299.5938,454.3281 298.9844,454.1094 Q298.375,453.8906 297.75,453.8906 Q296.9844,453.8906 296.3438,454.2188 Q295.7188,454.5469 295.2188,455.2969 Q294.7344,456.0469 294.7344,457.0781 L294.7344,458.1719 Q294.7344,459.4063 295.625,460.2344 Q296.5156,461.0469 298.1094,461.0469 Q299.0469,461.0469 299.7031,460.7969 Q300.0938,460.6406 300.5156,460.2031 Q300.7813,459.9375 300.9219,459.8594 Q301.0781,459.7813 301.2813,459.7813 Q301.6094,459.7813 301.8594,460.0469 Q302.125,460.2969 302.125,460.6406 Q302.125,460.9844 301.7813,461.3906 Q301.2813,461.9688 300.4844,462.2969 Q299.4063,462.75 298.1094,462.75 Q296.5938,462.75 295.3906,462.125 Q294.4063,461.625 293.7188,460.5625 Q293.0313,459.4844 293.0313,458.2031 L293.0313,457.0469 Q293.0313,455.7188 293.6406,454.5781 Q294.2656,453.4219 295.3594,452.8125 Q296.4531,452.1875 297.6875,452.1875 Q298.4219,452.1875 299.0625,452.3594 Q299.7188,452.5156 300.2656,452.875 Z "/><text fill="#000000" font-family="sans-serif" font-size="12" lengthAdjust="spacingAndGlyphs" textLength="61" x="311.5" y="461.9102">Coordinate</text><line style="stroke: #A80036; stroke-width: 1.5;" x1="283.5" x2="374.5" y1="473" y2="473"/><line style="stroke: #A80036; stroke-width: 1.5;" x1="283.5" x2="374.5" y1="481" y2="481"/><!--MD5=[67f54059f517de4e17e4f415259fadfa]
link tictactoe.controllers.Controller to tictactoe.models.Game--><path d="M548.727,104.901 C589.607,120.389 641.832,147.766 667,192 C710.299,268.1 718.099,317.902 667,389 C624.709,447.8429 533.938,461.1483 482.191,463.7718 " fill="none" id="tictactoe.controllers.Controller-&gt;tictactoe.models.Game" style="stroke: #A80036; stroke-width: 1.0; stroke-dasharray: 7.0,7.0;"/><polygon fill="#A80036" points="477.001,464.0058,486.1714,467.5981,481.996,463.7815,485.8125,459.6061,477.001,464.0058" style="stroke: #A80036; stroke-width: 1.0;"/><!--MD5=[5700b97431232c099330215bddfcc855]
reverse link tictactoe.controllers.Controller to tictactoe.controllers.PlayController--><path d="M417.391,127.137 C381.393,146.291 337.718,169.929 299,192 C293.375,195.207 287.642,198.51 281.863,201.868 " fill="none" id="tictactoe.controllers.Controller&lt;-tictactoe.controllers.PlayController" style="stroke: #A80036; stroke-width: 1.0;"/><polygon fill="none" points="414.501,120.746,435.45,117.561,421.059,133.115,414.501,120.746" style="stroke: #A80036; stroke-width: 1.0;"/><!--MD5=[70aedda6b24476e26c690784403df0dd]
link tictactoe.controllers.PlayController to tictactoe.models.Coordinate--><path d="M236.958,365.268 C261.302,391.382 286.295,418.192 304.083,437.2722 " fill="none" id="tictactoe.controllers.PlayController-&gt;tictactoe.models.Coordinate" style="stroke: #A80036; stroke-width: 1.0; stroke-dasharray: 7.0,7.0;"/><polygon fill="#A80036" points="307.542,440.9827,304.3305,431.6722,304.1324,437.3255,298.479,437.1275,307.542,440.9827" style="stroke: #A80036; stroke-width: 1.0;"/><!--MD5=[8f435ed2c59169c4603cda7b7477fe61]
reverse link tictactoe.controllers.Controller to tictactoe.controllers.ResultController--><path d="M461.582,150.654 C447.157,180.366 430.414,214.853 418.031,240.361 " fill="none" id="tictactoe.controllers.Controller&lt;-tictactoe.controllers.ResultController" style="stroke: #A80036; stroke-width: 1.0;"/><polygon fill="none" points="455.398,147.364,470.43,132.429,467.992,153.478,455.398,147.364" style="stroke: #A80036; stroke-width: 1.0;"/><!--MD5=[5deb1e5c7bf9906a35de112138d88f9c]
reverse link tictactoe.controllers.Controller to tictactoe.controllers.StartController--><path d="M522.418,150.654 C536.843,180.366 553.586,214.853 565.969,240.361 " fill="none" id="tictactoe.controllers.Controller&lt;-tictactoe.controllers.StartController" style="stroke: #A80036; stroke-width: 1.0;"/><polygon fill="none" points="516.008,153.478,513.57,132.429,528.602,147.364,516.008,153.478" style="stroke: #A80036; stroke-width: 1.0;"/><!--MD5=[69cab7f4ddcd8f0b46133f7415325f62]
@startuml

class  tictactoe.controllers.Controller{
# game: Game
~ Controller(Game)
+ getBoard(): Board
}
tictactoe.controllers.Controller ..> tictactoe.models.Game

class  tictactoe.controllers.PlayController{
+ PlayController(Game)
+ getTokenPlayerFromTurn(): Player
+ isBoardComplete(): boolean
+ putTokenPlayerFromTurn(Coordinate): void
+ moveTokenPlayerFromTurn(Coordinate[]): void
+ changeTurn(): void
+ getToken(int, int): Token
+ getCoordinateDimension(): int
+ isTicTacToe(): boolean
}
tictactoe.controllers.Controller <|-down- tictactoe.controllers.PlayController
tictactoe.controllers.PlayController ..> tictactoe.models.Coordinate

class  tictactoe.controllers.ResultController{
+ ResultController(Game)
+ getOtherValueFromTurn(): int
}
tictactoe.controllers.Controller <|-down- tictactoe.controllers.ResultController

class  tictactoe.controllers.StartController{
+ StartController(Game)
+ createPlayers(): void
}
tictactoe.controllers.Controller <|-down- tictactoe.controllers.StartController

@enduml

PlantUML version 1.2020.15(Sun Jun 28 13:39:45 CEST 2020)
(GPL source distribution)
Java Runtime: Java(TM) SE Runtime Environment
JVM: Java HotSpot(TM) 64-Bit Server VM
Default Encoding: windows-1252
Language: es
Country: ES
--></g></svg>