<?xml version="1.0" encoding="UTF-8" standalone="no"?><svg xmlns="http://www.w3.org/2000/svg" xmlns:xlink="http://www.w3.org/1999/xlink" contentScriptType="application/ecmascript" contentStyleType="text/css" height="722px" preserveAspectRatio="none" style="width:2415px;height:722px;" version="1.1" viewBox="0 0 2415 722" width="2415px" zoomAndPan="magnify"><defs><filter height="300%" id="fvfir5490fmz2" width="300%" x="-1" y="-1"><feGaussianBlur result="blurOut" stdDeviation="2.0"/><feColorMatrix in="blurOut" result="blurOut2" type="matrix" values="0 0 0 0 0 0 0 0 0 0 0 0 0 0 0 0 0 0 .4 0"/><feOffset dx="4.0" dy="4.0" in="blurOut2" result="blurOut3"/><feBlend in="SourceGraphic" in2="blurOut3" mode="normal"/></filter></defs><g><!--MD5=[e6fee0bfb21fcf33ee1c5981f69ba248]
cluster tictactoe.controllers.implementation--><polygon fill="#FFFFFF" filter="url(#fvfir5490fmz2)" points="16,73.441,276,73.441,283,97.0504,1195,97.0504,1195,710.441,16,710.441,16,73.441" style="stroke: #000000; stroke-width: 1.5;"/><line style="stroke: #000000; stroke-width: 1.5;" x1="16" x2="283" y1="97.0504" y2="97.0504"/><text fill="#000000" font-family="sans-serif" font-size="14" font-weight="bold" lengthAdjust="spacingAndGlyphs" textLength="254" x="20" y="89.9742">tictactoe.controllers.implementation</text><!--MD5=[ee7e9a007a7c4d40c0679a27f272732d]
cluster tictactoe.controllers--><polygon fill="#FFFFFF" filter="url(#fvfir5490fmz2)" points="1219,107.941,1367,107.941,1374,131.5504,2393,131.5504,2393,207.941,1219,207.941,1219,107.941" style="stroke: #000000; stroke-width: 1.5;"/><line style="stroke: #000000; stroke-width: 1.5;" x1="1219" x2="1374" y1="131.5504" y2="131.5504"/><text fill="#000000" font-family="sans-serif" font-size="14" font-weight="bold" lengthAdjust="spacingAndGlyphs" textLength="142" x="1223" y="124.4742">tictactoe.controllers</text><!--MD5=[c333c1dfe43cc7b36e6e5cd610b33d4f]
class tictactoe.controllers.implementation.LogicImplementation--><rect fill="#FEFECE" filter="url(#fvfir5490fmz2)" height="117.1797" id="tictactoe.controllers.implementation.LogicImplementation" style="stroke: #A80036; stroke-width: 1.5;" width="339" x="521.5" y="109.441"/><ellipse cx="628.75" cy="125.441" fill="#ADD1B2" rx="11" ry="11" style="stroke: #A80036; stroke-width: 1.0;"/><path d="M631.5156,121.316 Q631.6719,121.0973 631.8594,120.9879 Q632.0469,120.8785 632.2656,120.8785 Q632.6406,120.8785 632.875,121.1441 Q633.1094,121.3941 633.1094,122.0035 L633.1094,123.4566 Q633.1094,124.066 632.875,124.3316 Q632.6406,124.5973 632.2656,124.5973 Q631.9219,124.5973 631.7188,124.3941 Q631.5156,124.2066 631.4063,123.691 Q631.3594,123.3316 631.1719,123.1441 Q630.8438,122.7691 630.2344,122.5504 Q629.625,122.3316 629,122.3316 Q628.2344,122.3316 627.5938,122.6598 Q626.9688,122.9879 626.4688,123.7379 Q625.9844,124.4879 625.9844,125.5191 L625.9844,126.6129 Q625.9844,127.8473 626.875,128.6754 Q627.7656,129.4879 629.3594,129.4879 Q630.2969,129.4879 630.9531,129.2379 Q631.3438,129.0816 631.7656,128.6441 Q632.0313,128.3785 632.1719,128.3004 Q632.3281,128.2223 632.5313,128.2223 Q632.8594,128.2223 633.1094,128.4879 Q633.375,128.7379 633.375,129.0816 Q633.375,129.4254 633.0313,129.8316 Q632.5313,130.4098 631.7344,130.7379 Q630.6563,131.191 629.3594,131.191 Q627.8438,131.191 626.6406,130.566 Q625.6563,130.066 624.9688,129.0035 Q624.2813,127.9254 624.2813,126.6441 L624.2813,125.4879 Q624.2813,124.1598 624.8906,123.0191 Q625.5156,121.8629 626.6094,121.2535 Q627.7031,120.6285 628.9375,120.6285 Q629.6719,120.6285 630.3125,120.8004 Q630.9688,120.9566 631.5156,121.316 Z "/><text fill="#000000" font-family="sans-serif" font-size="12" lengthAdjust="spacingAndGlyphs" textLength="116" x="649.25" y="130.3512">LogicImplementation</text><line style="stroke: #A80036; stroke-width: 1.5;" x1="522.5" x2="859.5" y1="141.441" y2="141.441"/><polygon fill="none" points="532.5,147.441,536.5,151.441,532.5,155.441,528.5,151.441" style="stroke: #B38D22; stroke-width: 1.0;"/><text fill="#000000" font-family="sans-serif" font-size="11" lengthAdjust="spacingAndGlyphs" textLength="283" x="541.5" y="156.8599">startControllerImplementation: StartControllerImplementation</text><polygon fill="none" points="532.5,161.2769,536.5,165.2769,532.5,169.2769,528.5,165.2769" style="stroke: #B38D22; stroke-width: 1.0;"/><text fill="#000000" font-family="sans-serif" font-size="11" lengthAdjust="spacingAndGlyphs" textLength="278" x="541.5" y="170.6959">playControllerImplementation: PlayControllerImplementation</text><polygon fill="none" points="532.5,175.1129,536.5,179.1129,532.5,183.1129,528.5,179.1129" style="stroke: #B38D22; stroke-width: 1.0;"/><text fill="#000000" font-family="sans-serif" font-size="11" lengthAdjust="spacingAndGlyphs" textLength="287" x="541.5" y="184.5318">saveControllerImplementation: SaveControllerImplementation</text><polygon fill="none" points="532.5,188.9488,536.5,192.9488,532.5,196.9488,528.5,192.9488" style="stroke: #B38D22; stroke-width: 1.0;"/><text fill="#000000" font-family="sans-serif" font-size="11" lengthAdjust="spacingAndGlyphs" textLength="313" x="541.5" y="198.3678">resumeControllerImplementation: ResumeControllerImplementation</text><line style="stroke: #A80036; stroke-width: 1.5;" x1="522.5" x2="859.5" y1="204.7848" y2="204.7848"/><ellipse cx="532.5" cy="215.7848" fill="#84BE84" rx="3" ry="3" style="stroke: #038048; stroke-width: 1.0;"/><text fill="#000000" font-family="sans-serif" font-size="11" lengthAdjust="spacingAndGlyphs" textLength="104" x="541.5" y="220.2037">LogicImplementation()</text><!--MD5=[b5960a36d531caecc790a6aa4a9cbf0e]
class tictactoe.controllers.implementation.StartControllerImplementation--><rect fill="#FEFECE" filter="url(#fvfir5490fmz2)" height="131.0156" id="tictactoe.controllers.implementation.StartControllerImplementation" style="stroke: #A80036; stroke-width: 1.5;" width="249" x="566.5" y="424.941"/><ellipse cx="604.9" cy="440.941" fill="#ADD1B2" rx="11" ry="11" style="stroke: #A80036; stroke-width: 1.0;"/><path d="M607.6656,436.816 Q607.8219,436.5973 608.0094,436.4879 Q608.1969,436.3785 608.4156,436.3785 Q608.7906,436.3785 609.025,436.6441 Q609.2594,436.8941 609.2594,437.5035 L609.2594,438.9566 Q609.2594,439.566 609.025,439.8316 Q608.7906,440.0973 608.4156,440.0973 Q608.0719,440.0973 607.8688,439.8941 Q607.6656,439.7066 607.5563,439.191 Q607.5094,438.8316 607.3219,438.6441 Q606.9938,438.2691 606.3844,438.0504 Q605.775,437.8316 605.15,437.8316 Q604.3844,437.8316 603.7438,438.1598 Q603.1188,438.4879 602.6188,439.2379 Q602.1344,439.9879 602.1344,441.0191 L602.1344,442.1129 Q602.1344,443.3473 603.025,444.1754 Q603.9156,444.9879 605.5094,444.9879 Q606.4469,444.9879 607.1031,444.7379 Q607.4938,444.5816 607.9156,444.1441 Q608.1813,443.8785 608.3219,443.8004 Q608.4781,443.7223 608.6813,443.7223 Q609.0094,443.7223 609.2594,443.9879 Q609.525,444.2379 609.525,444.5816 Q609.525,444.9254 609.1813,445.3316 Q608.6813,445.9098 607.8844,446.2379 Q606.8063,446.691 605.5094,446.691 Q603.9938,446.691 602.7906,446.066 Q601.8063,445.566 601.1188,444.5035 Q600.4313,443.4254 600.4313,442.1441 L600.4313,440.9879 Q600.4313,439.6598 601.0406,438.5191 Q601.6656,437.3629 602.7594,436.7535 Q603.8531,436.1285 605.0875,436.1285 Q605.8219,436.1285 606.4625,436.3004 Q607.1188,436.4566 607.6656,436.816 Z "/><text fill="#000000" font-family="sans-serif" font-size="12" lengthAdjust="spacingAndGlyphs" textLength="165" x="624.1" y="445.8512">StartControllerImplementation</text><line style="stroke: #A80036; stroke-width: 1.5;" x1="567.5" x2="814.5" y1="456.941" y2="456.941"/><rect fill="none" height="6" style="stroke: #C82930; stroke-width: 1.0;" width="6" x="574.5" y="464.941"/><text fill="#000000" font-family="sans-serif" font-size="11" lengthAdjust="spacingAndGlyphs" textLength="223" x="586.5" y="472.3599">sessionImplementation: SessionImplementation</text><line style="stroke: #A80036; stroke-width: 1.5;" x1="567.5" x2="814.5" y1="478.7769" y2="478.7769"/><ellipse cx="577.5" cy="489.7769" fill="#84BE84" rx="3" ry="3" style="stroke: #038048; stroke-width: 1.0;"/><text fill="#000000" font-family="sans-serif" font-size="11" lengthAdjust="spacingAndGlyphs" textLength="186" x="586.5" y="494.1959">StartControllerImplementation(Session)</text><ellipse cx="577.5" cy="503.6129" fill="#84BE84" rx="3" ry="3" style="stroke: #038048; stroke-width: 1.0;"/><text fill="#000000" font-family="sans-serif" font-size="11" lengthAdjust="spacingAndGlyphs" textLength="56" x="586.5" y="508.0318">start(): void</text><ellipse cx="577.5" cy="517.4488" fill="#84BE84" rx="3" ry="3" style="stroke: #038048; stroke-width: 1.0;"/><text fill="#000000" font-family="sans-serif" font-size="11" lengthAdjust="spacingAndGlyphs" textLength="112" x="586.5" y="521.8678">createPlayers(int): void</text><ellipse cx="577.5" cy="531.2848" fill="#84BE84" rx="3" ry="3" style="stroke: #038048; stroke-width: 1.0;"/><text fill="#000000" font-family="sans-serif" font-size="11" lengthAdjust="spacingAndGlyphs" textLength="84" x="586.5" y="535.7037">start(String): void</text><ellipse cx="577.5" cy="545.1207" fill="#84BE84" rx="3" ry="3" style="stroke: #038048; stroke-width: 1.0;"/><text fill="#000000" font-family="sans-serif" font-size="11" lengthAdjust="spacingAndGlyphs" textLength="130" x="586.5" y="549.5396">getGamesNames(): String[]</text><!--MD5=[47ae85d2cbf41814dfe37bcb515c294d]
class tictactoe.controllers.implementation.ResumeControllerImplementation--><rect fill="#FEFECE" filter="url(#fvfir5490fmz2)" height="89.5078" id="tictactoe.controllers.implementation.ResumeControllerImplementation" style="stroke: #A80036; stroke-width: 1.5;" width="249" x="32.5" y="445.441"/><ellipse cx="60.55" cy="461.441" fill="#ADD1B2" rx="11" ry="11" style="stroke: #A80036; stroke-width: 1.0;"/><path d="M63.3156,457.316 Q63.4719,457.0973 63.6594,456.9879 Q63.8469,456.8785 64.0656,456.8785 Q64.4406,456.8785 64.675,457.1441 Q64.9094,457.3941 64.9094,458.0035 L64.9094,459.4566 Q64.9094,460.066 64.675,460.3316 Q64.4406,460.5973 64.0656,460.5973 Q63.7219,460.5973 63.5188,460.3941 Q63.3156,460.2066 63.2063,459.691 Q63.1594,459.3316 62.9719,459.1441 Q62.6438,458.7691 62.0344,458.5504 Q61.425,458.3316 60.8,458.3316 Q60.0344,458.3316 59.3938,458.6598 Q58.7688,458.9879 58.2688,459.7379 Q57.7844,460.4879 57.7844,461.5191 L57.7844,462.6129 Q57.7844,463.8473 58.675,464.6754 Q59.5656,465.4879 61.1594,465.4879 Q62.0969,465.4879 62.7531,465.2379 Q63.1438,465.0816 63.5656,464.6441 Q63.8313,464.3785 63.9719,464.3004 Q64.1281,464.2223 64.3313,464.2223 Q64.6594,464.2223 64.9094,464.4879 Q65.175,464.7379 65.175,465.0816 Q65.175,465.4254 64.8313,465.8316 Q64.3313,466.4098 63.5344,466.7379 Q62.4563,467.191 61.1594,467.191 Q59.6438,467.191 58.4406,466.566 Q57.4563,466.066 56.7688,465.0035 Q56.0813,463.9254 56.0813,462.6441 L56.0813,461.4879 Q56.0813,460.1598 56.6906,459.0191 Q57.3156,457.8629 58.4094,457.2535 Q59.5031,456.6285 60.7375,456.6285 Q61.4719,456.6285 62.1125,456.8004 Q62.7688,456.9566 63.3156,457.316 Z "/><text fill="#000000" font-family="sans-serif" font-size="12" lengthAdjust="spacingAndGlyphs" textLength="188" x="77.45" y="466.3512">ResumeControllerImplementation</text><line style="stroke: #A80036; stroke-width: 1.5;" x1="33.5" x2="280.5" y1="477.441" y2="477.441"/><rect fill="none" height="6" style="stroke: #C82930; stroke-width: 1.0;" width="6" x="40.5" y="485.441"/><text fill="#000000" font-family="sans-serif" font-size="11" lengthAdjust="spacingAndGlyphs" textLength="223" x="52.5" y="492.8599">sessionImplementation: SessionImplementation</text><line style="stroke: #A80036; stroke-width: 1.5;" x1="33.5" x2="280.5" y1="499.2769" y2="499.2769"/><ellipse cx="43.5" cy="510.2769" fill="#84BE84" rx="3" ry="3" style="stroke: #038048; stroke-width: 1.0;"/><text fill="#000000" font-family="sans-serif" font-size="11" lengthAdjust="spacingAndGlyphs" textLength="202" x="52.5" y="514.6959">ResumeControllerImplementation(Session)</text><ellipse cx="43.5" cy="524.1129" fill="#84BE84" rx="3" ry="3" style="stroke: #038048; stroke-width: 1.0;"/><text fill="#000000" font-family="sans-serif" font-size="11" lengthAdjust="spacingAndGlyphs" textLength="108" x="52.5" y="528.5318">resume(boolean): void</text><!--MD5=[d3e7a610b4fe98669ce32319d2e69889]
class tictactoe.controllers.implementation.PlayControllerImplementation--><rect fill="#FEFECE" filter="url(#fvfir5490fmz2)" height="407.7344" id="tictactoe.controllers.implementation.PlayControllerImplementation" style="stroke: #A80036; stroke-width: 1.5;" width="328" x="851" y="286.441"/><ellipse cx="929.25" cy="302.441" fill="#ADD1B2" rx="11" ry="11" style="stroke: #A80036; stroke-width: 1.0;"/><path d="M932.0156,298.316 Q932.1719,298.0973 932.3594,297.9879 Q932.5469,297.8785 932.7656,297.8785 Q933.1406,297.8785 933.375,298.1441 Q933.6094,298.3941 933.6094,299.0035 L933.6094,300.4566 Q933.6094,301.066 933.375,301.3316 Q933.1406,301.5973 932.7656,301.5973 Q932.4219,301.5973 932.2188,301.3941 Q932.0156,301.2066 931.9063,300.691 Q931.8594,300.3316 931.6719,300.1441 Q931.3438,299.7691 930.7344,299.5504 Q930.125,299.3316 929.5,299.3316 Q928.7344,299.3316 928.0938,299.6598 Q927.4688,299.9879 926.9688,300.7379 Q926.4844,301.4879 926.4844,302.5191 L926.4844,303.6129 Q926.4844,304.8473 927.375,305.6754 Q928.2656,306.4879 929.8594,306.4879 Q930.7969,306.4879 931.4531,306.2379 Q931.8438,306.0816 932.2656,305.6441 Q932.5313,305.3785 932.6719,305.3004 Q932.8281,305.2223 933.0313,305.2223 Q933.3594,305.2223 933.6094,305.4879 Q933.875,305.7379 933.875,306.0816 Q933.875,306.4254 933.5313,306.8316 Q933.0313,307.4098 932.2344,307.7379 Q931.1563,308.191 929.8594,308.191 Q928.3438,308.191 927.1406,307.566 Q926.1563,307.066 925.4688,306.0035 Q924.7813,304.9254 924.7813,303.6441 L924.7813,302.4879 Q924.7813,301.1598 925.3906,300.0191 Q926.0156,298.8629 927.1094,298.2535 Q928.2031,297.6285 929.4375,297.6285 Q930.1719,297.6285 930.8125,297.8004 Q931.4688,297.9566 932.0156,298.316 Z "/><text fill="#000000" font-family="sans-serif" font-size="12" lengthAdjust="spacingAndGlyphs" textLength="163" x="949.75" y="307.3512">PlayControllerImplementation</text><line style="stroke: #A80036; stroke-width: 1.5;" x1="852" x2="1178" y1="318.441" y2="318.441"/><rect fill="none" height="6" style="stroke: #C82930; stroke-width: 1.0;" width="6" x="859" y="326.441"/><text fill="#000000" font-family="sans-serif" font-size="11" lengthAdjust="spacingAndGlyphs" textLength="196" x="871" y="333.8599">movementController: MovementController</text><rect fill="none" height="6" style="stroke: #C82930; stroke-width: 1.0;" width="6" x="859" y="340.2769"/><text fill="#000000" font-family="sans-serif" font-size="11" lengthAdjust="spacingAndGlyphs" textLength="147" x="871" y="347.6959">undoController: UndoController</text><rect fill="none" height="6" style="stroke: #C82930; stroke-width: 1.0;" width="6" x="859" y="354.1129"/><text fill="#000000" font-family="sans-serif" font-size="11" lengthAdjust="spacingAndGlyphs" textLength="145" x="871" y="361.5318">redoController: RedoController</text><rect fill="none" height="6" style="stroke: #C82930; stroke-width: 1.0;" width="6" x="859" y="367.9488"/><text fill="#000000" font-family="sans-serif" font-size="11" lengthAdjust="spacingAndGlyphs" textLength="132" x="871" y="375.3678">exitController: ExitController</text><line style="stroke: #A80036; stroke-width: 1.5;" x1="852" x2="1178" y1="381.7848" y2="381.7848"/><ellipse cx="862" cy="392.7848" fill="#84BE84" rx="3" ry="3" style="stroke: #038048; stroke-width: 1.0;"/><text fill="#000000" font-family="sans-serif" font-size="11" lengthAdjust="spacingAndGlyphs" textLength="183" x="871" y="397.2037">PlayControllerImplementation(Session)</text><ellipse cx="862" cy="406.6207" fill="#84BE84" rx="3" ry="3" style="stroke: #038048; stroke-width: 1.0;"/><text fill="#000000" font-family="sans-serif" font-size="11" lengthAdjust="spacingAndGlyphs" textLength="58" x="871" y="411.0396">undo(): void</text><ellipse cx="862" cy="420.4566" fill="#84BE84" rx="3" ry="3" style="stroke: #038048; stroke-width: 1.0;"/><text fill="#000000" font-family="sans-serif" font-size="11" lengthAdjust="spacingAndGlyphs" textLength="56" x="871" y="424.8756">redo(): void</text><ellipse cx="862" cy="434.2926" fill="#84BE84" rx="3" ry="3" style="stroke: #038048; stroke-width: 1.0;"/><text fill="#000000" font-family="sans-serif" font-size="11" lengthAdjust="spacingAndGlyphs" textLength="55" x="871" y="438.7115">next(): void</text><ellipse cx="862" cy="448.1285" fill="#84BE84" rx="3" ry="3" style="stroke: #038048; stroke-width: 1.0;"/><text fill="#000000" font-family="sans-serif" font-size="11" lengthAdjust="spacingAndGlyphs" textLength="96" x="871" y="452.5474">undoable(): boolean</text><ellipse cx="862" cy="461.9644" fill="#84BE84" rx="3" ry="3" style="stroke: #038048; stroke-width: 1.0;"/><text fill="#000000" font-family="sans-serif" font-size="11" lengthAdjust="spacingAndGlyphs" textLength="94" x="871" y="466.3834">redoable(): boolean</text><ellipse cx="862" cy="475.8004" fill="#84BE84" rx="3" ry="3" style="stroke: #038048; stroke-width: 1.0;"/><text fill="#000000" font-family="sans-serif" font-size="11" lengthAdjust="spacingAndGlyphs" textLength="224" x="871" y="480.2193">getTypeOfTokenPlayerFromTurn(): PlayerType</text><ellipse cx="862" cy="489.6363" fill="#84BE84" rx="3" ry="3" style="stroke: #038048; stroke-width: 1.0;"/><text fill="#000000" font-family="sans-serif" font-size="11" lengthAdjust="spacingAndGlyphs" textLength="196" x="871" y="494.0553">getPutCoordinateError(Coordinate): Error</text><ellipse cx="862" cy="503.4723" fill="#84BE84" rx="3" ry="3" style="stroke: #038048; stroke-width: 1.0;"/><text fill="#000000" font-family="sans-serif" font-size="11" lengthAdjust="spacingAndGlyphs" textLength="238" x="871" y="507.8912">getMoveTargetCoordinateError(Coordinate): Error</text><ellipse cx="862" cy="517.3082" fill="#84BE84" rx="3" ry="3" style="stroke: #038048; stroke-width: 1.0;"/><text fill="#000000" font-family="sans-serif" font-size="11" lengthAdjust="spacingAndGlyphs" textLength="302" x="871" y="521.7271">getErrorsMoveTargetCoordinate(Coordinate, Coordinate): Error</text><ellipse cx="862" cy="531.1441" fill="#84BE84" rx="3" ry="3" style="stroke: #038048; stroke-width: 1.0;"/><text fill="#000000" font-family="sans-serif" font-size="11" lengthAdjust="spacingAndGlyphs" textLength="188" x="871" y="535.5631">isCoordinateValid(Coordinate): boolean</text><ellipse cx="862" cy="544.9801" fill="#84BE84" rx="3" ry="3" style="stroke: #038048; stroke-width: 1.0;"/><text fill="#000000" font-family="sans-serif" font-size="11" lengthAdjust="spacingAndGlyphs" textLength="200" x="871" y="549.399">generateRandomCoordinate(): Coordinate</text><ellipse cx="862" cy="558.816" fill="#84BE84" rx="3" ry="3" style="stroke: #038048; stroke-width: 1.0;"/><text fill="#000000" font-family="sans-serif" font-size="11" lengthAdjust="spacingAndGlyphs" textLength="133" x="871" y="563.2349">isBoardComplete(): boolean</text><ellipse cx="862" cy="572.6519" fill="#84BE84" rx="3" ry="3" style="stroke: #038048; stroke-width: 1.0;"/><text fill="#000000" font-family="sans-serif" font-size="11" lengthAdjust="spacingAndGlyphs" textLength="206" x="871" y="577.0709">putTokenPlayerFromTurn(Coordinate): void</text><ellipse cx="862" cy="586.4879" fill="#84BE84" rx="3" ry="3" style="stroke: #038048; stroke-width: 1.0;"/><text fill="#000000" font-family="sans-serif" font-size="11" lengthAdjust="spacingAndGlyphs" textLength="223" x="871" y="590.9068">moveTokenPlayerFromTurn(Coordinate[]): void</text><ellipse cx="862" cy="600.3238" fill="#84BE84" rx="3" ry="3" style="stroke: #038048; stroke-width: 1.0;"/><text fill="#000000" font-family="sans-serif" font-size="11" lengthAdjust="spacingAndGlyphs" textLength="92" x="871" y="604.7428">changeTurn(): void</text><ellipse cx="862" cy="614.1598" fill="#84BE84" rx="3" ry="3" style="stroke: #038048; stroke-width: 1.0;"/><text fill="#000000" font-family="sans-serif" font-size="11" lengthAdjust="spacingAndGlyphs" textLength="155" x="871" y="618.5787">getTokenChar(Coordinate): char</text><ellipse cx="862" cy="627.9957" fill="#84BE84" rx="3" ry="3" style="stroke: #038048; stroke-width: 1.0;"/><text fill="#000000" font-family="sans-serif" font-size="11" lengthAdjust="spacingAndGlyphs" textLength="170" x="871" y="632.4146">isEmptyToken(Coordinate): boolean</text><ellipse cx="862" cy="641.8316" fill="#84BE84" rx="3" ry="3" style="stroke: #038048; stroke-width: 1.0;"/><text fill="#000000" font-family="sans-serif" font-size="11" lengthAdjust="spacingAndGlyphs" textLength="114" x="871" y="646.2506">getValueFromTurn(): int</text><ellipse cx="862" cy="655.6676" fill="#84BE84" rx="3" ry="3" style="stroke: #038048; stroke-width: 1.0;"/><text fill="#000000" font-family="sans-serif" font-size="11" lengthAdjust="spacingAndGlyphs" textLength="141" x="871" y="660.0865">getCoordinateDimension(): int</text><ellipse cx="862" cy="669.5035" fill="#84BE84" rx="3" ry="3" style="stroke: #038048; stroke-width: 1.0;"/><text fill="#000000" font-family="sans-serif" font-size="11" lengthAdjust="spacingAndGlyphs" textLength="100" x="871" y="673.9224">continueState(): void</text><ellipse cx="862" cy="683.3394" fill="#84BE84" rx="3" ry="3" style="stroke: #038048; stroke-width: 1.0;"/><text fill="#000000" font-family="sans-serif" font-size="11" lengthAdjust="spacingAndGlyphs" textLength="110" x="871" y="687.7584">isTicTacToe(): boolean</text><!--MD5=[61c7df52862bc5edcb37352332e7adec]
class tictactoe.controllers.implementation.SaveControllerImplementation--><rect fill="#FEFECE" filter="url(#fvfir5490fmz2)" height="131.0156" id="tictactoe.controllers.implementation.SaveControllerImplementation" style="stroke: #A80036; stroke-width: 1.5;" width="214" x="317" y="424.941"/><ellipse cx="338.75" cy="440.941" fill="#ADD1B2" rx="11" ry="11" style="stroke: #A80036; stroke-width: 1.0;"/><path d="M341.5156,436.816 Q341.6719,436.5973 341.8594,436.4879 Q342.0469,436.3785 342.2656,436.3785 Q342.6406,436.3785 342.875,436.6441 Q343.1094,436.8941 343.1094,437.5035 L343.1094,438.9566 Q343.1094,439.566 342.875,439.8316 Q342.6406,440.0973 342.2656,440.0973 Q341.9219,440.0973 341.7188,439.8941 Q341.5156,439.7066 341.4063,439.191 Q341.3594,438.8316 341.1719,438.6441 Q340.8438,438.2691 340.2344,438.0504 Q339.625,437.8316 339,437.8316 Q338.2344,437.8316 337.5938,438.1598 Q336.9688,438.4879 336.4688,439.2379 Q335.9844,439.9879 335.9844,441.0191 L335.9844,442.1129 Q335.9844,443.3473 336.875,444.1754 Q337.7656,444.9879 339.3594,444.9879 Q340.2969,444.9879 340.9531,444.7379 Q341.3438,444.5816 341.7656,444.1441 Q342.0313,443.8785 342.1719,443.8004 Q342.3281,443.7223 342.5313,443.7223 Q342.8594,443.7223 343.1094,443.9879 Q343.375,444.2379 343.375,444.5816 Q343.375,444.9254 343.0313,445.3316 Q342.5313,445.9098 341.7344,446.2379 Q340.6563,446.691 339.3594,446.691 Q337.8438,446.691 336.6406,446.066 Q335.6563,445.566 334.9688,444.5035 Q334.2813,443.4254 334.2813,442.1441 L334.2813,440.9879 Q334.2813,439.6598 334.8906,438.5191 Q335.5156,437.3629 336.6094,436.7535 Q337.7031,436.1285 338.9375,436.1285 Q339.6719,436.1285 340.3125,436.3004 Q340.9688,436.4566 341.5156,436.816 Z "/><text fill="#000000" font-family="sans-serif" font-size="12" lengthAdjust="spacingAndGlyphs" textLength="167" x="354.25" y="445.8512">SaveControllerImplementation</text><line style="stroke: #A80036; stroke-width: 1.5;" x1="318" x2="530" y1="456.941" y2="456.941"/><line style="stroke: #A80036; stroke-width: 1.5;" x1="318" x2="530" y1="464.941" y2="464.941"/><ellipse cx="328" cy="475.941" fill="#84BE84" rx="3" ry="3" style="stroke: #038048; stroke-width: 1.0;"/><text fill="#000000" font-family="sans-serif" font-size="11" lengthAdjust="spacingAndGlyphs" textLength="188" x="337" y="480.3599">SaveControllerImplementation(Session)</text><ellipse cx="328" cy="489.7769" fill="#84BE84" rx="3" ry="3" style="stroke: #038048; stroke-width: 1.0;"/><text fill="#000000" font-family="sans-serif" font-size="11" lengthAdjust="spacingAndGlyphs" textLength="86" x="337" y="494.1959">save(String): void</text><ellipse cx="328" cy="503.6129" fill="#84BE84" rx="3" ry="3" style="stroke: #038048; stroke-width: 1.0;"/><text fill="#000000" font-family="sans-serif" font-size="11" lengthAdjust="spacingAndGlyphs" textLength="58" x="337" y="508.0318">save(): void</text><ellipse cx="328" cy="517.4488" fill="#84BE84" rx="3" ry="3" style="stroke: #038048; stroke-width: 1.0;"/><text fill="#000000" font-family="sans-serif" font-size="11" lengthAdjust="spacingAndGlyphs" textLength="55" x="337" y="521.8678">next(): void</text><ellipse cx="328" cy="531.2848" fill="#84BE84" rx="3" ry="3" style="stroke: #038048; stroke-width: 1.0;"/><text fill="#000000" font-family="sans-serif" font-size="11" lengthAdjust="spacingAndGlyphs" textLength="97" x="337" y="535.7037">hasName(): boolean</text><ellipse cx="328" cy="545.1207" fill="#84BE84" rx="3" ry="3" style="stroke: #038048; stroke-width: 1.0;"/><text fill="#000000" font-family="sans-serif" font-size="11" lengthAdjust="spacingAndGlyphs" textLength="109" x="337" y="549.5396">exists(String): boolean</text><!--MD5=[3b8962fd5847b9038b2e29740dae8054]
class tictactoe.controllers.Logic--><rect fill="#FEFECE" filter="url(#fvfir5490fmz2)" height="48" id="tictactoe.controllers.Logic" style="stroke: #A80036; stroke-width: 1.5;" width="62" x="1404" y="143.941"/><ellipse cx="1419" cy="159.941" fill="#ADD1B2" rx="11" ry="11" style="stroke: #A80036; stroke-width: 1.0;"/><path d="M1421.7656,155.816 Q1421.9219,155.5973 1422.1094,155.4879 Q1422.2969,155.3785 1422.5156,155.3785 Q1422.8906,155.3785 1423.125,155.6441 Q1423.3594,155.8941 1423.3594,156.5035 L1423.3594,157.9566 Q1423.3594,158.566 1423.125,158.8316 Q1422.8906,159.0973 1422.5156,159.0973 Q1422.1719,159.0973 1421.9688,158.8941 Q1421.7656,158.7066 1421.6563,158.191 Q1421.6094,157.8316 1421.4219,157.6441 Q1421.0938,157.2691 1420.4844,157.0504 Q1419.875,156.8316 1419.25,156.8316 Q1418.4844,156.8316 1417.8438,157.1598 Q1417.2188,157.4879 1416.7188,158.2379 Q1416.2344,158.9879 1416.2344,160.0191 L1416.2344,161.1129 Q1416.2344,162.3473 1417.125,163.1754 Q1418.0156,163.9879 1419.6094,163.9879 Q1420.5469,163.9879 1421.2031,163.7379 Q1421.5938,163.5816 1422.0156,163.1441 Q1422.2813,162.8785 1422.4219,162.8004 Q1422.5781,162.7223 1422.7813,162.7223 Q1423.1094,162.7223 1423.3594,162.9879 Q1423.625,163.2379 1423.625,163.5816 Q1423.625,163.9254 1423.2813,164.3316 Q1422.7813,164.9098 1421.9844,165.2379 Q1420.9063,165.691 1419.6094,165.691 Q1418.0938,165.691 1416.8906,165.066 Q1415.9063,164.566 1415.2188,163.5035 Q1414.5313,162.4254 1414.5313,161.1441 L1414.5313,159.9879 Q1414.5313,158.6598 1415.1406,157.5191 Q1415.7656,156.3629 1416.8594,155.7535 Q1417.9531,155.1285 1419.1875,155.1285 Q1419.9219,155.1285 1420.5625,155.3004 Q1421.2188,155.4566 1421.7656,155.816 Z "/><text fill="#000000" font-family="sans-serif" font-size="12" lengthAdjust="spacingAndGlyphs" textLength="30" x="1433" y="164.8512">Logic</text><line style="stroke: #A80036; stroke-width: 1.5;" x1="1405" x2="1465" y1="175.941" y2="175.941"/><line style="stroke: #A80036; stroke-width: 1.5;" x1="1405" x2="1465" y1="183.941" y2="183.941"/><!--MD5=[b574e60c06c50037ff1b014277a67d62]
class tictactoe.controllers.PlayController--><rect fill="#FEFECE" filter="url(#fvfir5490fmz2)" height="48" id="tictactoe.controllers.PlayController" style="stroke: #A80036; stroke-width: 1.5;" width="109" x="1976.5" y="143.941"/><ellipse cx="1991.5" cy="159.941" fill="#ADD1B2" rx="11" ry="11" style="stroke: #A80036; stroke-width: 1.0;"/><path d="M1994.2656,155.816 Q1994.4219,155.5973 1994.6094,155.4879 Q1994.7969,155.3785 1995.0156,155.3785 Q1995.3906,155.3785 1995.625,155.6441 Q1995.8594,155.8941 1995.8594,156.5035 L1995.8594,157.9566 Q1995.8594,158.566 1995.625,158.8316 Q1995.3906,159.0973 1995.0156,159.0973 Q1994.6719,159.0973 1994.4688,158.8941 Q1994.2656,158.7066 1994.1563,158.191 Q1994.1094,157.8316 1993.9219,157.6441 Q1993.5938,157.2691 1992.9844,157.0504 Q1992.375,156.8316 1991.75,156.8316 Q1990.9844,156.8316 1990.3438,157.1598 Q1989.7188,157.4879 1989.2188,158.2379 Q1988.7344,158.9879 1988.7344,160.0191 L1988.7344,161.1129 Q1988.7344,162.3473 1989.625,163.1754 Q1990.5156,163.9879 1992.1094,163.9879 Q1993.0469,163.9879 1993.7031,163.7379 Q1994.0938,163.5816 1994.5156,163.1441 Q1994.7813,162.8785 1994.9219,162.8004 Q1995.0781,162.7223 1995.2813,162.7223 Q1995.6094,162.7223 1995.8594,162.9879 Q1996.125,163.2379 1996.125,163.5816 Q1996.125,163.9254 1995.7813,164.3316 Q1995.2813,164.9098 1994.4844,165.2379 Q1993.4063,165.691 1992.1094,165.691 Q1990.5938,165.691 1989.3906,165.066 Q1988.4063,164.566 1987.7188,163.5035 Q1987.0313,162.4254 1987.0313,161.1441 L1987.0313,159.9879 Q1987.0313,158.6598 1987.6406,157.5191 Q1988.2656,156.3629 1989.3594,155.7535 Q1990.4531,155.1285 1991.6875,155.1285 Q1992.4219,155.1285 1993.0625,155.3004 Q1993.7188,155.4566 1994.2656,155.816 Z "/><text fill="#000000" font-family="sans-serif" font-size="12" lengthAdjust="spacingAndGlyphs" textLength="77" x="2005.5" y="164.8512">PlayController</text><line style="stroke: #A80036; stroke-width: 1.5;" x1="1977.5" x2="2084.5" y1="175.941" y2="175.941"/><line style="stroke: #A80036; stroke-width: 1.5;" x1="1977.5" x2="2084.5" y1="183.941" y2="183.941"/><!--MD5=[24677159852abec703b2234099a98eae]
class tictactoe.controllers.MovementController--><rect fill="#FEFECE" filter="url(#fvfir5490fmz2)" height="48" id="tictactoe.controllers.MovementController" style="stroke: #A80036; stroke-width: 1.5;" width="142" x="1799" y="143.941"/><ellipse cx="1814" cy="159.941" fill="#ADD1B2" rx="11" ry="11" style="stroke: #A80036; stroke-width: 1.0;"/><path d="M1816.7656,155.816 Q1816.9219,155.5973 1817.1094,155.4879 Q1817.2969,155.3785 1817.5156,155.3785 Q1817.8906,155.3785 1818.125,155.6441 Q1818.3594,155.8941 1818.3594,156.5035 L1818.3594,157.9566 Q1818.3594,158.566 1818.125,158.8316 Q1817.8906,159.0973 1817.5156,159.0973 Q1817.1719,159.0973 1816.9688,158.8941 Q1816.7656,158.7066 1816.6563,158.191 Q1816.6094,157.8316 1816.4219,157.6441 Q1816.0938,157.2691 1815.4844,157.0504 Q1814.875,156.8316 1814.25,156.8316 Q1813.4844,156.8316 1812.8438,157.1598 Q1812.2188,157.4879 1811.7188,158.2379 Q1811.2344,158.9879 1811.2344,160.0191 L1811.2344,161.1129 Q1811.2344,162.3473 1812.125,163.1754 Q1813.0156,163.9879 1814.6094,163.9879 Q1815.5469,163.9879 1816.2031,163.7379 Q1816.5938,163.5816 1817.0156,163.1441 Q1817.2813,162.8785 1817.4219,162.8004 Q1817.5781,162.7223 1817.7813,162.7223 Q1818.1094,162.7223 1818.3594,162.9879 Q1818.625,163.2379 1818.625,163.5816 Q1818.625,163.9254 1818.2813,164.3316 Q1817.7813,164.9098 1816.9844,165.2379 Q1815.9063,165.691 1814.6094,165.691 Q1813.0938,165.691 1811.8906,165.066 Q1810.9063,164.566 1810.2188,163.5035 Q1809.5313,162.4254 1809.5313,161.1441 L1809.5313,159.9879 Q1809.5313,158.6598 1810.1406,157.5191 Q1810.7656,156.3629 1811.8594,155.7535 Q1812.9531,155.1285 1814.1875,155.1285 Q1814.9219,155.1285 1815.5625,155.3004 Q1816.2188,155.4566 1816.7656,155.816 Z "/><text fill="#000000" font-family="sans-serif" font-size="12" lengthAdjust="spacingAndGlyphs" textLength="110" x="1828" y="164.8512">MovementController</text><line style="stroke: #A80036; stroke-width: 1.5;" x1="1800" x2="1940" y1="175.941" y2="175.941"/><line style="stroke: #A80036; stroke-width: 1.5;" x1="1800" x2="1940" y1="183.941" y2="183.941"/><!--MD5=[1f5f35d7f9326073e91e7944d692e6ef]
class tictactoe.controllers.UndoController--><rect fill="#FEFECE" filter="url(#fvfir5490fmz2)" height="48" id="tictactoe.controllers.UndoController" style="stroke: #A80036; stroke-width: 1.5;" width="116" x="1648" y="143.941"/><ellipse cx="1663" cy="159.941" fill="#ADD1B2" rx="11" ry="11" style="stroke: #A80036; stroke-width: 1.0;"/><path d="M1665.7656,155.816 Q1665.9219,155.5973 1666.1094,155.4879 Q1666.2969,155.3785 1666.5156,155.3785 Q1666.8906,155.3785 1667.125,155.6441 Q1667.3594,155.8941 1667.3594,156.5035 L1667.3594,157.9566 Q1667.3594,158.566 1667.125,158.8316 Q1666.8906,159.0973 1666.5156,159.0973 Q1666.1719,159.0973 1665.9688,158.8941 Q1665.7656,158.7066 1665.6563,158.191 Q1665.6094,157.8316 1665.4219,157.6441 Q1665.0938,157.2691 1664.4844,157.0504 Q1663.875,156.8316 1663.25,156.8316 Q1662.4844,156.8316 1661.8438,157.1598 Q1661.2188,157.4879 1660.7188,158.2379 Q1660.2344,158.9879 1660.2344,160.0191 L1660.2344,161.1129 Q1660.2344,162.3473 1661.125,163.1754 Q1662.0156,163.9879 1663.6094,163.9879 Q1664.5469,163.9879 1665.2031,163.7379 Q1665.5938,163.5816 1666.0156,163.1441 Q1666.2813,162.8785 1666.4219,162.8004 Q1666.5781,162.7223 1666.7813,162.7223 Q1667.1094,162.7223 1667.3594,162.9879 Q1667.625,163.2379 1667.625,163.5816 Q1667.625,163.9254 1667.2813,164.3316 Q1666.7813,164.9098 1665.9844,165.2379 Q1664.9063,165.691 1663.6094,165.691 Q1662.0938,165.691 1660.8906,165.066 Q1659.9063,164.566 1659.2188,163.5035 Q1658.5313,162.4254 1658.5313,161.1441 L1658.5313,159.9879 Q1658.5313,158.6598 1659.1406,157.5191 Q1659.7656,156.3629 1660.8594,155.7535 Q1661.9531,155.1285 1663.1875,155.1285 Q1663.9219,155.1285 1664.5625,155.3004 Q1665.2188,155.4566 1665.7656,155.816 Z "/><text fill="#000000" font-family="sans-serif" font-size="12" lengthAdjust="spacingAndGlyphs" textLength="84" x="1677" y="164.8512">UndoController</text><line style="stroke: #A80036; stroke-width: 1.5;" x1="1649" x2="1763" y1="175.941" y2="175.941"/><line style="stroke: #A80036; stroke-width: 1.5;" x1="1649" x2="1763" y1="183.941" y2="183.941"/><!--MD5=[1bd008d284a521cfc942b8fbe0753cf3]
class tictactoe.controllers.RedoController--><rect fill="#FEFECE" filter="url(#fvfir5490fmz2)" height="48" id="tictactoe.controllers.RedoController" style="stroke: #A80036; stroke-width: 1.5;" width="116" x="2261" y="143.941"/><ellipse cx="2276" cy="159.941" fill="#ADD1B2" rx="11" ry="11" style="stroke: #A80036; stroke-width: 1.0;"/><path d="M2278.7656,155.816 Q2278.9219,155.5973 2279.1094,155.4879 Q2279.2969,155.3785 2279.5156,155.3785 Q2279.8906,155.3785 2280.125,155.6441 Q2280.3594,155.8941 2280.3594,156.5035 L2280.3594,157.9566 Q2280.3594,158.566 2280.125,158.8316 Q2279.8906,159.0973 2279.5156,159.0973 Q2279.1719,159.0973 2278.9688,158.8941 Q2278.7656,158.7066 2278.6563,158.191 Q2278.6094,157.8316 2278.4219,157.6441 Q2278.0938,157.2691 2277.4844,157.0504 Q2276.875,156.8316 2276.25,156.8316 Q2275.4844,156.8316 2274.8438,157.1598 Q2274.2188,157.4879 2273.7188,158.2379 Q2273.2344,158.9879 2273.2344,160.0191 L2273.2344,161.1129 Q2273.2344,162.3473 2274.125,163.1754 Q2275.0156,163.9879 2276.6094,163.9879 Q2277.5469,163.9879 2278.2031,163.7379 Q2278.5938,163.5816 2279.0156,163.1441 Q2279.2813,162.8785 2279.4219,162.8004 Q2279.5781,162.7223 2279.7813,162.7223 Q2280.1094,162.7223 2280.3594,162.9879 Q2280.625,163.2379 2280.625,163.5816 Q2280.625,163.9254 2280.2813,164.3316 Q2279.7813,164.9098 2278.9844,165.2379 Q2277.9063,165.691 2276.6094,165.691 Q2275.0938,165.691 2273.8906,165.066 Q2272.9063,164.566 2272.2188,163.5035 Q2271.5313,162.4254 2271.5313,161.1441 L2271.5313,159.9879 Q2271.5313,158.6598 2272.1406,157.5191 Q2272.7656,156.3629 2273.8594,155.7535 Q2274.9531,155.1285 2276.1875,155.1285 Q2276.9219,155.1285 2277.5625,155.3004 Q2278.2188,155.4566 2278.7656,155.816 Z "/><text fill="#000000" font-family="sans-serif" font-size="12" lengthAdjust="spacingAndGlyphs" textLength="84" x="2290" y="164.8512">RedoController</text><line style="stroke: #A80036; stroke-width: 1.5;" x1="2262" x2="2376" y1="175.941" y2="175.941"/><line style="stroke: #A80036; stroke-width: 1.5;" x1="2262" x2="2376" y1="183.941" y2="183.941"/><!--MD5=[43f1ed83780f4b27e6f2d136d387dc38]
class tictactoe.controllers.ExitController--><rect fill="#FEFECE" filter="url(#fvfir5490fmz2)" height="48" id="tictactoe.controllers.ExitController" style="stroke: #A80036; stroke-width: 1.5;" width="105" x="2120.5" y="143.941"/><ellipse cx="2135.5" cy="159.941" fill="#ADD1B2" rx="11" ry="11" style="stroke: #A80036; stroke-width: 1.0;"/><path d="M2138.2656,155.816 Q2138.4219,155.5973 2138.6094,155.4879 Q2138.7969,155.3785 2139.0156,155.3785 Q2139.3906,155.3785 2139.625,155.6441 Q2139.8594,155.8941 2139.8594,156.5035 L2139.8594,157.9566 Q2139.8594,158.566 2139.625,158.8316 Q2139.3906,159.0973 2139.0156,159.0973 Q2138.6719,159.0973 2138.4688,158.8941 Q2138.2656,158.7066 2138.1563,158.191 Q2138.1094,157.8316 2137.9219,157.6441 Q2137.5938,157.2691 2136.9844,157.0504 Q2136.375,156.8316 2135.75,156.8316 Q2134.9844,156.8316 2134.3438,157.1598 Q2133.7188,157.4879 2133.2188,158.2379 Q2132.7344,158.9879 2132.7344,160.0191 L2132.7344,161.1129 Q2132.7344,162.3473 2133.625,163.1754 Q2134.5156,163.9879 2136.1094,163.9879 Q2137.0469,163.9879 2137.7031,163.7379 Q2138.0938,163.5816 2138.5156,163.1441 Q2138.7813,162.8785 2138.9219,162.8004 Q2139.0781,162.7223 2139.2813,162.7223 Q2139.6094,162.7223 2139.8594,162.9879 Q2140.125,163.2379 2140.125,163.5816 Q2140.125,163.9254 2139.7813,164.3316 Q2139.2813,164.9098 2138.4844,165.2379 Q2137.4063,165.691 2136.1094,165.691 Q2134.5938,165.691 2133.3906,165.066 Q2132.4063,164.566 2131.7188,163.5035 Q2131.0313,162.4254 2131.0313,161.1441 L2131.0313,159.9879 Q2131.0313,158.6598 2131.6406,157.5191 Q2132.2656,156.3629 2133.3594,155.7535 Q2134.4531,155.1285 2135.6875,155.1285 Q2136.4219,155.1285 2137.0625,155.3004 Q2137.7188,155.4566 2138.2656,155.816 Z "/><text fill="#000000" font-family="sans-serif" font-size="12" lengthAdjust="spacingAndGlyphs" textLength="73" x="2149.5" y="164.8512">ExitController</text><line style="stroke: #A80036; stroke-width: 1.5;" x1="2121.5" x2="2224.5" y1="175.941" y2="175.941"/><line style="stroke: #A80036; stroke-width: 1.5;" x1="2121.5" x2="2224.5" y1="183.941" y2="183.941"/><!--MD5=[d75e1ad11e6a17be2ba08b218e20e3d7]
class tictactoe.controllers.ResumeController--><rect fill="#FEFECE" filter="url(#fvfir5490fmz2)" height="48" id="tictactoe.controllers.ResumeController" style="stroke: #A80036; stroke-width: 1.5;" width="134" x="1235" y="143.941"/><ellipse cx="1250" cy="159.941" fill="#ADD1B2" rx="11" ry="11" style="stroke: #A80036; stroke-width: 1.0;"/><path d="M1252.7656,155.816 Q1252.9219,155.5973 1253.1094,155.4879 Q1253.2969,155.3785 1253.5156,155.3785 Q1253.8906,155.3785 1254.125,155.6441 Q1254.3594,155.8941 1254.3594,156.5035 L1254.3594,157.9566 Q1254.3594,158.566 1254.125,158.8316 Q1253.8906,159.0973 1253.5156,159.0973 Q1253.1719,159.0973 1252.9688,158.8941 Q1252.7656,158.7066 1252.6563,158.191 Q1252.6094,157.8316 1252.4219,157.6441 Q1252.0938,157.2691 1251.4844,157.0504 Q1250.875,156.8316 1250.25,156.8316 Q1249.4844,156.8316 1248.8438,157.1598 Q1248.2188,157.4879 1247.7188,158.2379 Q1247.2344,158.9879 1247.2344,160.0191 L1247.2344,161.1129 Q1247.2344,162.3473 1248.125,163.1754 Q1249.0156,163.9879 1250.6094,163.9879 Q1251.5469,163.9879 1252.2031,163.7379 Q1252.5938,163.5816 1253.0156,163.1441 Q1253.2813,162.8785 1253.4219,162.8004 Q1253.5781,162.7223 1253.7813,162.7223 Q1254.1094,162.7223 1254.3594,162.9879 Q1254.625,163.2379 1254.625,163.5816 Q1254.625,163.9254 1254.2813,164.3316 Q1253.7813,164.9098 1252.9844,165.2379 Q1251.9063,165.691 1250.6094,165.691 Q1249.0938,165.691 1247.8906,165.066 Q1246.9063,164.566 1246.2188,163.5035 Q1245.5313,162.4254 1245.5313,161.1441 L1245.5313,159.9879 Q1245.5313,158.6598 1246.1406,157.5191 Q1246.7656,156.3629 1247.8594,155.7535 Q1248.9531,155.1285 1250.1875,155.1285 Q1250.9219,155.1285 1251.5625,155.3004 Q1252.2188,155.4566 1252.7656,155.816 Z "/><text fill="#000000" font-family="sans-serif" font-size="12" lengthAdjust="spacingAndGlyphs" textLength="102" x="1264" y="164.8512">ResumeController</text><line style="stroke: #A80036; stroke-width: 1.5;" x1="1236" x2="1368" y1="175.941" y2="175.941"/><line style="stroke: #A80036; stroke-width: 1.5;" x1="1236" x2="1368" y1="183.941" y2="183.941"/><!--MD5=[8ede4dbfb3b498095887802b64b699f0]
class tictactoe.controllers.StartController--><rect fill="#FEFECE" filter="url(#fvfir5490fmz2)" height="48" id="tictactoe.controllers.StartController" style="stroke: #A80036; stroke-width: 1.5;" width="111" x="1501.5" y="143.941"/><ellipse cx="1516.5" cy="159.941" fill="#ADD1B2" rx="11" ry="11" style="stroke: #A80036; stroke-width: 1.0;"/><path d="M1519.2656,155.816 Q1519.4219,155.5973 1519.6094,155.4879 Q1519.7969,155.3785 1520.0156,155.3785 Q1520.3906,155.3785 1520.625,155.6441 Q1520.8594,155.8941 1520.8594,156.5035 L1520.8594,157.9566 Q1520.8594,158.566 1520.625,158.8316 Q1520.3906,159.0973 1520.0156,159.0973 Q1519.6719,159.0973 1519.4688,158.8941 Q1519.2656,158.7066 1519.1563,158.191 Q1519.1094,157.8316 1518.9219,157.6441 Q1518.5938,157.2691 1517.9844,157.0504 Q1517.375,156.8316 1516.75,156.8316 Q1515.9844,156.8316 1515.3438,157.1598 Q1514.7188,157.4879 1514.2188,158.2379 Q1513.7344,158.9879 1513.7344,160.0191 L1513.7344,161.1129 Q1513.7344,162.3473 1514.625,163.1754 Q1515.5156,163.9879 1517.1094,163.9879 Q1518.0469,163.9879 1518.7031,163.7379 Q1519.0938,163.5816 1519.5156,163.1441 Q1519.7813,162.8785 1519.9219,162.8004 Q1520.0781,162.7223 1520.2813,162.7223 Q1520.6094,162.7223 1520.8594,162.9879 Q1521.125,163.2379 1521.125,163.5816 Q1521.125,163.9254 1520.7813,164.3316 Q1520.2813,164.9098 1519.4844,165.2379 Q1518.4063,165.691 1517.1094,165.691 Q1515.5938,165.691 1514.3906,165.066 Q1513.4063,164.566 1512.7188,163.5035 Q1512.0313,162.4254 1512.0313,161.1441 L1512.0313,159.9879 Q1512.0313,158.6598 1512.6406,157.5191 Q1513.2656,156.3629 1514.3594,155.7535 Q1515.4531,155.1285 1516.6875,155.1285 Q1517.4219,155.1285 1518.0625,155.3004 Q1518.7188,155.4566 1519.2656,155.816 Z "/><text fill="#000000" font-family="sans-serif" font-size="12" lengthAdjust="spacingAndGlyphs" textLength="79" x="1530.5" y="164.8512">StartController</text><line style="stroke: #A80036; stroke-width: 1.5;" x1="1502.5" x2="1611.5" y1="175.941" y2="175.941"/><line style="stroke: #A80036; stroke-width: 1.5;" x1="1502.5" x2="1611.5" y1="183.941" y2="183.941"/><!--MD5=[84529a1477187d2e134693bd654cc92f]
reverse link tictactoe.controllers.Logic to tictactoe.controllers.implementation.LogicImplementation--><path d="M1426.58,123.966 C1418.03,92.919 1401.32,53.717 1369.5,35.441 C1318.24,6 1295.19,28.415 1236.5,35.441 C1108.65,50.746 967.46,85.547 860.76,115.643 " fill="none" id="tictactoe.controllers.Logic&lt;-tictactoe.controllers.implementation.LogicImplementation" style="stroke: #A80036; stroke-width: 1.0;"/><polygon fill="none" points="1433.48,122.724,1431.28,143.8,1419.86,125.954,1433.48,122.724" style="stroke: #A80036; stroke-width: 1.0;"/><!--MD5=[1a589552240386b338b4a0589382d188]
link tictactoe.controllers.implementation.LogicImplementation to tictactoe.controllers.implementation.StartControllerImplementation--><path d="M691,238.61 C691,238.61 691,359.139 691,411.509 " fill="none" id="tictactoe.controllers.implementation.LogicImplementation-tictactoe.controllers.implementation.StartControllerImplementation" style="stroke: #A80036; stroke-width: 1.0;"/><polygon fill="#A80036" points="691,424.797,695,415.797,691,419.797,687,415.797,691,424.797" style="stroke: #A80036; stroke-width: 1.0;"/><line style="stroke: #A80036; stroke-width: 1.0;" x1="691" x2="691" y1="419.797" y2="411.797"/><polygon fill="#A80036" points="691,226.61,687,232.61,691,238.61,695,232.61,691,226.61" style="stroke: #A80036; stroke-width: 1.0;"/><!--MD5=[90c8ad45d698897f4d588efe8fc8f8c2]
link tictactoe.controllers.implementation.LogicImplementation to tictactoe.controllers.implementation.ResumeControllerImplementation--><path d="M509.4568,196.862 C509.4568,196.862 360.12,242.268 299,286.441 C246.681,324.253 206.9,387.504 182.939,433.369 " fill="none" id="tictactoe.controllers.implementation.LogicImplementation-tictactoe.controllers.implementation.ResumeControllerImplementation" style="stroke: #A80036; stroke-width: 1.0;"/><polygon fill="#A80036" points="176.897,445.217,184.5492,439.0167,179.1686,440.7628,177.4225,435.3822,176.897,445.217" style="stroke: #A80036; stroke-width: 1.0;"/><line style="stroke: #A80036; stroke-width: 1.0;" x1="179.1686" x2="182.803" y1="440.7628" y2="433.636"/><polygon fill="#A80036" points="521.126,194.064,514.3587,191.5732,509.4568,196.862,516.224,199.3527,521.126,194.064" style="stroke: #A80036; stroke-width: 1.0;"/><!--MD5=[f2ab626cbeac3ab8a7cc738a1d00f3c3]
link tictactoe.controllers.implementation.LogicImplementation to tictactoe.controllers.implementation.PlayControllerImplementation--><path d="M774.2763,234.3583 C774.2763,234.3583 814.926,269.07 833,286.441 C835.893,289.221 838.793,292.04 841.699,294.892 " fill="none" id="tictactoe.controllers.implementation.LogicImplementation-tictactoe.controllers.implementation.PlayControllerImplementation" style="stroke: #A80036; stroke-width: 1.0;"/><polygon fill="#A80036" points="850.986,304.103,847.4126,294.9253,847.4359,300.5821,841.7791,300.6054,850.986,304.103" style="stroke: #A80036; stroke-width: 1.0;"/><line style="stroke: #A80036; stroke-width: 1.0;" x1="847.4359" x2="841.756" y1="300.5821" y2="294.9485"/><polygon fill="#A80036" points="765.032,226.707,767.1037,233.6141,774.2763,234.3583,772.2046,227.4512,765.032,226.707" style="stroke: #A80036; stroke-width: 1.0;"/><!--MD5=[b977976f8ac4c26efffb6d5c9f70a8a6]
link tictactoe.controllers.implementation.LogicImplementation to tictactoe.controllers.implementation.SaveControllerImplementation--><path d="M602.8346,234.2715 C602.8346,234.2715 564.751,268.327 549,286.441 C515.631,324.817 485.498,373.119 463.182,412.978 " fill="none" id="tictactoe.controllers.implementation.LogicImplementation-tictactoe.controllers.implementation.SaveControllerImplementation" style="stroke: #A80036; stroke-width: 1.0;"/><polygon fill="#A80036" points="456.806,424.518,464.6594,418.5746,459.2239,420.1415,457.657,414.706,456.806,424.518" style="stroke: #A80036; stroke-width: 1.0;"/><line style="stroke: #A80036; stroke-width: 1.0;" x1="459.2239" x2="463.093" y1="420.1415" y2="413.1385"/><polygon fill="#A80036" points="612.043,226.577,604.874,227.3548,602.8346,234.2715,610.0037,233.4937,612.043,226.577" style="stroke: #A80036; stroke-width: 1.0;"/><!--MD5=[d5f36abcbbee75d6ba99a6d2e005ace5]
reverse link tictactoe.controllers.PlayController to tictactoe.controllers.implementation.PlayControllerImplementation--><path d="M1991.4,205.201 C1981.36,213.047 1970.22,220.701 1959,226.441 C1703.02,357.373 1373.61,430.051 1179.28,464.327 " fill="none" id="tictactoe.controllers.PlayController&lt;-tictactoe.controllers.implementation.PlayControllerImplementation" style="stroke: #A80036; stroke-width: 1.0;"/><polygon fill="none" points="1987.23,199.556,2007.08,192.119,1996.2,210.306,1987.23,199.556" style="stroke: #A80036; stroke-width: 1.0;"/><!--MD5=[bfdd2e07fce2f0e06ea290db20a0eb2b]
link tictactoe.controllers.implementation.PlayControllerImplementation to tictactoe.controllers.MovementController--><path d="M1190.5821,442.7606 C1190.5821,442.7606 1587.74,321.37 1782,226.441 C1797.66,218.791 1813.87,208.849 1828.06,199.389 " fill="none" id="tictactoe.controllers.implementation.PlayControllerImplementation-tictactoe.controllers.MovementController" style="stroke: #A80036; stroke-width: 1.0;"/><polygon fill="#A80036" points="1838.95,191.958,1829.2614,193.7273,1834.8201,194.7765,1833.7709,200.3352,1838.95,191.958" style="stroke: #A80036; stroke-width: 1.0;"/><line style="stroke: #A80036; stroke-width: 1.0;" x1="1834.8201" x2="1828.205" y1="194.7765" y2="199.2855"/><polygon fill="#A80036" points="1179.04,446.044,1185.9055,448.2496,1190.5821,442.7606,1183.7166,440.5549,1179.04,446.044" style="stroke: #A80036; stroke-width: 1.0;"/><!--MD5=[bf4f3a27df0a995f1a88a64451b5db0a]
link tictactoe.controllers.implementation.PlayControllerImplementation to tictactoe.controllers.UndoController--><path d="M1190.3691,427.5493 C1190.3691,427.5493 1488.94,308.313 1630,226.441 C1643.15,218.81 1656.65,209.251 1668.55,200.129 " fill="none" id="tictactoe.controllers.implementation.PlayControllerImplementation-tictactoe.controllers.UndoController" style="stroke: #A80036; stroke-width: 1.0;"/><polygon fill="#A80036" points="1678.98,191.944,1669.4287,194.3468,1675.0444,195.028,1674.3632,200.6437,1678.98,191.944" style="stroke: #A80036; stroke-width: 1.0;"/><line style="stroke: #A80036; stroke-width: 1.0;" x1="1675.0444" x2="1668.755" y1="195.028" y2="199.9705"/><polygon fill="#A80036" points="1179.14,431.781,1186.1651,433.4082,1190.3691,427.5493,1183.344,425.9221,1179.14,431.781" style="stroke: #A80036; stroke-width: 1.0;"/><!--MD5=[b2076e75e31416059cc9356af2d99480]
link tictactoe.controllers.implementation.PlayControllerImplementation to tictactoe.controllers.RedoController--><path d="M1191.0038,475.8935 C1191.0038,475.8935 1891.47,387.382 2243,226.441 C2257.43,219.836 2271.71,210.109 2283.94,200.528 " fill="none" id="tictactoe.controllers.implementation.PlayControllerImplementation-tictactoe.controllers.RedoController" style="stroke: #A80036; stroke-width: 1.0;"/><polygon fill="#A80036" points="2294.1,192.226,2284.6,194.824,2290.2285,195.39,2289.6624,201.0185,2294.1,192.226" style="stroke: #A80036; stroke-width: 1.0;"/><line style="stroke: #A80036; stroke-width: 1.0;" x1="2290.2285" x2="2284.03" y1="195.39" y2="200.45"/><polygon fill="#A80036" points="1179.06,477.054,1185.4187,480.455,1191.0038,475.8935,1184.645,472.4925,1179.06,477.054" style="stroke: #A80036; stroke-width: 1.0;"/><!--MD5=[de2fd949704f4f6dfec5e287de179bbc]
link tictactoe.controllers.implementation.PlayControllerImplementation to tictactoe.controllers.ExitController--><path d="M1190.9771,471.481 C1190.9771,471.481 1803.52,375.724 2103,226.441 C2116.23,219.848 2129.17,210.348 2140.27,200.963 " fill="none" id="tictactoe.controllers.implementation.PlayControllerImplementation-tictactoe.controllers.ExitController" style="stroke: #A80036; stroke-width: 1.0;"/><polygon fill="#A80036" points="2150.28,192.099,2140.8893,195.0679,2146.5356,195.4126,2146.191,201.0589,2150.28,192.099" style="stroke: #A80036; stroke-width: 1.0;"/><line style="stroke: #A80036; stroke-width: 1.0;" x1="2146.5356" x2="2140.545" y1="195.4126" y2="200.715"/><polygon fill="#A80036" points="1179.07,472.971,1185.5202,476.195,1190.9771,471.481,1184.5269,468.2569,1179.07,472.971" style="stroke: #A80036; stroke-width: 1.0;"/><!--MD5=[49580e5e556de0beb68455637d82a677]
reverse link tictactoe.controllers.ResumeController to tictactoe.controllers.implementation.ResumeControllerImplementation--><path d="M1250.57,202.296 C1233.54,211.755 1214.05,220.963 1195,226.441 C1003.21,281.587 472.807,188.39 299,286.441 C236.629,321.627 195.322,396.914 174.063,445.256 " fill="none" id="tictactoe.controllers.ResumeController&lt;-tictactoe.controllers.implementation.ResumeControllerImplementation" style="stroke: #A80036; stroke-width: 1.0;"/><polygon fill="none" points="1247.16,196.179,1267.96,192.096,1254.25,208.255,1247.16,196.179" style="stroke: #A80036; stroke-width: 1.0;"/><!--MD5=[3fa444226445f113917bbf79b079d4cf]
reverse link tictactoe.controllers.StartController to tictactoe.controllers.implementation.SaveControllerImplementation--><path d="M1519.56,205.37 C1508.87,213.739 1496.66,221.596 1484,226.441 C1289.56,300.882 727.421,179.132 549,286.441 C497.926,317.159 464.76,377.549 445.515,424.512 " fill="none" id="tictactoe.controllers.StartController&lt;-tictactoe.controllers.implementation.SaveControllerImplementation" style="stroke: #A80036; stroke-width: 1.0;"/><polygon fill="none" points="1515.23,199.864,1534.96,192.154,1524.34,210.489,1515.23,199.864" style="stroke: #A80036; stroke-width: 1.0;"/><!--MD5=[cfdc17c3df4067afc79a742990cee438]
reverse link tictactoe.controllers.StartController to tictactoe.controllers.implementation.StartControllerImplementation--><path d="M1519.47,205.132 C1508.77,213.503 1496.59,221.42 1484,226.441 C1214.12,334.092 1084.26,140.519 833,286.441 C779.443,317.545 741.208,377.887 718.003,424.734 " fill="none" id="tictactoe.controllers.StartController&lt;-tictactoe.controllers.implementation.StartControllerImplementation" style="stroke: #A80036; stroke-width: 1.0;"/><polygon fill="none" points="1515.13,199.627,1534.89,191.953,1524.23,210.269,1515.13,199.627" style="stroke: #A80036; stroke-width: 1.0;"/><!--MD5=[ab74bf508c2f4cda73cbb1c59cfdce4f]
@startuml

class  tictactoe.controllers.implementation.LogicImplementation{
# startControllerImplementation: StartControllerImplementation
# playControllerImplementation: PlayControllerImplementation
# saveControllerImplementation: SaveControllerImplementation
# resumeControllerImplementation: ResumeControllerImplementation
+ LogicImplementation()
}
tictactoe.controllers.Logic <|-down- tictactoe.controllers.implementation.LogicImplementation
tictactoe.controllers.implementation.LogicImplementation *-down-> tictactoe.controllers.implementation.StartControllerImplementation
tictactoe.controllers.implementation.LogicImplementation *-down-> tictactoe.controllers.implementation.ResumeControllerImplementation
tictactoe.controllers.implementation.LogicImplementation *-down-> tictactoe.controllers.implementation.PlayControllerImplementation
tictactoe.controllers.implementation.LogicImplementation *-down-> tictactoe.controllers.implementation.SaveControllerImplementation

class  tictactoe.controllers.implementation.PlayControllerImplementation{
- movementController: MovementController
- undoController: UndoController
- redoController: RedoController
- exitController: ExitController
+ PlayControllerImplementation(Session)
+ undo(): void
+ redo(): void
+ next(): void
+ undoable(): boolean
+ redoable(): boolean
+ getTypeOfTokenPlayerFromTurn(): PlayerType
+ getPutCoordinateError(Coordinate): Error
+ getMoveTargetCoordinateError(Coordinate): Error
+ getErrorsMoveTargetCoordinate(Coordinate, Coordinate): Error
+ isCoordinateValid(Coordinate): boolean
+ generateRandomCoordinate(): Coordinate
+ isBoardComplete(): boolean
+ putTokenPlayerFromTurn(Coordinate): void
+ moveTokenPlayerFromTurn(Coordinate[]): void
+ changeTurn(): void
+ getTokenChar(Coordinate): char
+ isEmptyToken(Coordinate): boolean
+ getValueFromTurn(): int
+ getCoordinateDimension(): int
+ continueState(): void
+ isTicTacToe(): boolean
}
tictactoe.controllers.PlayController <|-down- tictactoe.controllers.implementation.PlayControllerImplementation
tictactoe.controllers.implementation.PlayControllerImplementation *-down-> tictactoe.controllers.MovementController
tictactoe.controllers.implementation.PlayControllerImplementation *-down-> tictactoe.controllers.UndoController
tictactoe.controllers.implementation.PlayControllerImplementation *-down-> tictactoe.controllers.RedoController
tictactoe.controllers.implementation.PlayControllerImplementation *-down-> tictactoe.controllers.ExitController

class  tictactoe.controllers.implementation.ResumeControllerImplementation{
- sessionImplementation: SessionImplementation
+ ResumeControllerImplementation(Session)
+ resume(boolean): void
}
tictactoe.controllers.ResumeController <|-down- tictactoe.controllers.implementation.ResumeControllerImplementation

class  tictactoe.controllers.implementation.SaveControllerImplementation{
+ SaveControllerImplementation(Session)
+ save(String): void
+ save(): void
+ next(): void
+ hasName(): boolean
+ exists(String): boolean
}
tictactoe.controllers.StartController <|-down- tictactoe.controllers.implementation.SaveControllerImplementation

class  tictactoe.controllers.implementation.StartControllerImplementation{
- sessionImplementation: SessionImplementation
+ StartControllerImplementation(Session)
+ start(): void
+ createPlayers(int): void
+ start(String): void
+ getGamesNames(): String[]
}
tictactoe.controllers.StartController <|-down- tictactoe.controllers.implementation.StartControllerImplementation

@enduml

PlantUML version 1.2020.15(Sun Jun 28 13:39:45 CEST 2020)
(GPL source distribution)
Java Runtime: Java(TM) SE Runtime Environment
JVM: Java HotSpot(TM) 64-Bit Server VM
Default Encoding: windows-1252
Language: es
Country: ES
--></g></svg>