<?xml version="1.0" encoding="UTF-8" standalone="no"?><svg xmlns="http://www.w3.org/2000/svg" xmlns:xlink="http://www.w3.org/1999/xlink" contentScriptType="application/ecmascript" contentStyleType="text/css" height="666px" preserveAspectRatio="none" style="width:1032px;height:666px;" version="1.1" viewBox="0 0 1032 666" width="1032px" zoomAndPan="magnify"><defs><filter height="300%" id="fhdhxkibg5d8g" width="300%" x="-1" y="-1"><feGaussianBlur result="blurOut" stdDeviation="2.0"/><feColorMatrix in="blurOut" result="blurOut2" type="matrix" values="0 0 0 0 0 0 0 0 0 0 0 0 0 0 0 0 0 0 .4 0"/><feOffset dx="4.0" dy="4.0" in="blurOut2" result="blurOut3"/><feBlend in="SourceGraphic" in2="blurOut3" mode="normal"/></filter></defs><g><!--MD5=[ee7e9a007a7c4d40c0679a27f272732d]
cluster tictactoe.controllers--><polygon fill="#FFFFFF" filter="url(#fhdhxkibg5d8g)" points="16,6,164,6,171,29.6094,666,29.6094,666,654,16,654,16,6" style="stroke: #000000; stroke-width: 1.5;"/><line style="stroke: #000000; stroke-width: 1.5;" x1="16" x2="171" y1="29.6094" y2="29.6094"/><text fill="#000000" font-family="sans-serif" font-size="14" font-weight="bold" lengthAdjust="spacingAndGlyphs" textLength="142" x="20" y="22.5332">tictactoe.controllers</text><!--MD5=[51cd642fcc96b47682a93d9084d46dec]
cluster tictactoe.models--><polygon fill="#FFFFFF" filter="url(#fhdhxkibg5d8g)" points="690,505.5,812,505.5,819,529.1094,1010,529.1094,1010,605.5,690,605.5,690,505.5" style="stroke: #000000; stroke-width: 1.5;"/><line style="stroke: #000000; stroke-width: 1.5;" x1="690" x2="819" y1="529.1094" y2="529.1094"/><text fill="#000000" font-family="sans-serif" font-size="14" font-weight="bold" lengthAdjust="spacingAndGlyphs" textLength="116" x="694" y="522.0332">tictactoe.models</text><!--MD5=[957eef6538bab7382edbc29d98579a60]
class tictactoe.controllers.Controller--><rect fill="#FEFECE" filter="url(#fhdhxkibg5d8g)" height="103.3438" id="tictactoe.controllers.Controller" style="stroke: #A80036; stroke-width: 1.5;" width="139" x="486.5" y="330"/><ellipse cx="525.35" cy="346" fill="#ADD1B2" rx="11" ry="11" style="stroke: #A80036; stroke-width: 1.0;"/><path d="M528.1156,341.875 Q528.2719,341.6563 528.4594,341.5469 Q528.6469,341.4375 528.8656,341.4375 Q529.2406,341.4375 529.475,341.7031 Q529.7094,341.9531 529.7094,342.5625 L529.7094,344.0156 Q529.7094,344.625 529.475,344.8906 Q529.2406,345.1563 528.8656,345.1563 Q528.5219,345.1563 528.3188,344.9531 Q528.1156,344.7656 528.0063,344.25 Q527.9594,343.8906 527.7719,343.7031 Q527.4438,343.3281 526.8344,343.1094 Q526.225,342.8906 525.6,342.8906 Q524.8344,342.8906 524.1938,343.2188 Q523.5688,343.5469 523.0688,344.2969 Q522.5844,345.0469 522.5844,346.0781 L522.5844,347.1719 Q522.5844,348.4063 523.475,349.2344 Q524.3656,350.0469 525.9594,350.0469 Q526.8969,350.0469 527.5531,349.7969 Q527.9438,349.6406 528.3656,349.2031 Q528.6313,348.9375 528.7719,348.8594 Q528.9281,348.7813 529.1313,348.7813 Q529.4594,348.7813 529.7094,349.0469 Q529.975,349.2969 529.975,349.6406 Q529.975,349.9844 529.6313,350.3906 Q529.1313,350.9688 528.3344,351.2969 Q527.2563,351.75 525.9594,351.75 Q524.4438,351.75 523.2406,351.125 Q522.2563,350.625 521.5688,349.5625 Q520.8813,348.4844 520.8813,347.2031 L520.8813,346.0469 Q520.8813,344.7188 521.4906,343.5781 Q522.1156,342.4219 523.2094,341.8125 Q524.3031,341.1875 525.5375,341.1875 Q526.2719,341.1875 526.9125,341.3594 Q527.5688,341.5156 528.1156,341.875 Z "/><text fill="#000000" font-family="sans-serif" font-size="12" lengthAdjust="spacingAndGlyphs" textLength="54" x="544.65" y="350.9102">Controller</text><line style="stroke: #A80036; stroke-width: 1.5;" x1="487.5" x2="624.5" y1="362" y2="362"/><polygon fill="none" points="497.5,368,501.5,372,497.5,376,493.5,372" style="stroke: #B38D22; stroke-width: 1.0;"/><text fill="#000000" font-family="sans-serif" font-size="11" lengthAdjust="spacingAndGlyphs" textLength="60" x="506.5" y="377.4189">game: Game</text><polygon fill="none" points="497.5,381.8359,501.5,385.8359,497.5,389.8359,493.5,385.8359" style="stroke: #B38D22; stroke-width: 1.0;"/><text fill="#000000" font-family="sans-serif" font-size="11" lengthAdjust="spacingAndGlyphs" textLength="55" x="506.5" y="391.2549">state: State</text><line style="stroke: #A80036; stroke-width: 1.5;" x1="487.5" x2="624.5" y1="397.6719" y2="397.6719"/><polygon fill="#4177AF" points="497.5,404.6719,493.5,410.6719,501.5,410.6719" style="stroke: #1963A0; stroke-width: 1.0;"/><text fill="#000000" font-family="sans-serif" font-size="11" lengthAdjust="spacingAndGlyphs" textLength="113" x="506.5" y="413.0908">Controller(Game, State)</text><ellipse cx="497.5" cy="422.5078" fill="#84BE84" rx="3" ry="3" style="stroke: #038048; stroke-width: 1.0;"/><text fill="#000000" font-family="sans-serif" font-size="11" lengthAdjust="spacingAndGlyphs" textLength="87" x="506.5" y="426.9268">getBoard(): Board</text><!--MD5=[3b8962fd5847b9038b2e29740dae8054]
class tictactoe.controllers.Logic--><rect fill="#FEFECE" filter="url(#fhdhxkibg5d8g)" height="227.8672" id="tictactoe.controllers.Logic" style="stroke: #A80036; stroke-width: 1.5;" width="220" x="430" y="42"/><ellipse cx="520.75" cy="58" fill="#ADD1B2" rx="11" ry="11" style="stroke: #A80036; stroke-width: 1.0;"/><path d="M523.5156,53.875 Q523.6719,53.6563 523.8594,53.5469 Q524.0469,53.4375 524.2656,53.4375 Q524.6406,53.4375 524.875,53.7031 Q525.1094,53.9531 525.1094,54.5625 L525.1094,56.0156 Q525.1094,56.625 524.875,56.8906 Q524.6406,57.1563 524.2656,57.1563 Q523.9219,57.1563 523.7188,56.9531 Q523.5156,56.7656 523.4063,56.25 Q523.3594,55.8906 523.1719,55.7031 Q522.8438,55.3281 522.2344,55.1094 Q521.625,54.8906 521,54.8906 Q520.2344,54.8906 519.5938,55.2188 Q518.9688,55.5469 518.4688,56.2969 Q517.9844,57.0469 517.9844,58.0781 L517.9844,59.1719 Q517.9844,60.4063 518.875,61.2344 Q519.7656,62.0469 521.3594,62.0469 Q522.2969,62.0469 522.9531,61.7969 Q523.3438,61.6406 523.7656,61.2031 Q524.0313,60.9375 524.1719,60.8594 Q524.3281,60.7813 524.5313,60.7813 Q524.8594,60.7813 525.1094,61.0469 Q525.375,61.2969 525.375,61.6406 Q525.375,61.9844 525.0313,62.3906 Q524.5313,62.9688 523.7344,63.2969 Q522.6563,63.75 521.3594,63.75 Q519.8438,63.75 518.6406,63.125 Q517.6563,62.625 516.9688,61.5625 Q516.2813,60.4844 516.2813,59.2031 L516.2813,58.0469 Q516.2813,56.7188 516.8906,55.5781 Q517.5156,54.4219 518.6094,53.8125 Q519.7031,53.1875 520.9375,53.1875 Q521.6719,53.1875 522.3125,53.3594 Q522.9688,53.5156 523.5156,53.875 Z "/><text fill="#000000" font-family="sans-serif" font-size="12" lengthAdjust="spacingAndGlyphs" textLength="30" x="541.25" y="62.9102">Logic</text><line style="stroke: #A80036; stroke-width: 1.5;" x1="431" x2="649" y1="74" y2="74"/><rect fill="none" height="6" style="stroke: #C82930; stroke-width: 1.0;" width="6" x="438" y="82"/><text fill="#000000" font-family="sans-serif" font-size="11" lengthAdjust="spacingAndGlyphs" textLength="55" x="450" y="89.4189">state: State</text><rect fill="none" height="6" style="stroke: #C82930; stroke-width: 1.0;" width="6" x="438" y="95.8359"/><text fill="#000000" font-family="sans-serif" font-size="11" lengthAdjust="spacingAndGlyphs" textLength="60" x="450" y="103.2549">game: Game</text><rect fill="none" height="6" style="stroke: #C82930; stroke-width: 1.0;" width="6" x="438" y="109.6719"/><text fill="#000000" font-family="sans-serif" font-size="11" lengthAdjust="spacingAndGlyphs" textLength="194" x="450" y="117.0908">controllers: Map&lt;StateValue, Controller&gt;</text><line style="stroke: #A80036; stroke-width: 1.5;" x1="431" x2="649" y1="123.5078" y2="123.5078"/><ellipse cx="441" cy="134.5078" fill="#84BE84" rx="3" ry="3" style="stroke: #038048; stroke-width: 1.0;"/><text fill="#000000" font-family="sans-serif" font-size="11" lengthAdjust="spacingAndGlyphs" textLength="34" x="450" y="138.9268">Logic()</text><ellipse cx="441" cy="148.3438" fill="#84BE84" rx="3" ry="3" style="stroke: #038048; stroke-width: 1.0;"/><text fill="#000000" font-family="sans-serif" font-size="11" lengthAdjust="spacingAndGlyphs" textLength="101" x="450" y="152.7627">createPlayers(): void</text><ellipse cx="441" cy="162.1797" fill="#84BE84" rx="3" ry="3" style="stroke: #038048; stroke-width: 1.0;"/><text fill="#000000" font-family="sans-serif" font-size="11" lengthAdjust="spacingAndGlyphs" textLength="164" x="450" y="166.5986">getTokenPlayerFromTurn(): Player</text><ellipse cx="441" cy="176.0156" fill="#84BE84" rx="3" ry="3" style="stroke: #038048; stroke-width: 1.0;"/><text fill="#000000" font-family="sans-serif" font-size="11" lengthAdjust="spacingAndGlyphs" textLength="133" x="450" y="180.4346">isBoardComplete(): boolean</text><ellipse cx="441" cy="189.8516" fill="#84BE84" rx="3" ry="3" style="stroke: #038048; stroke-width: 1.0;"/><text fill="#000000" font-family="sans-serif" font-size="11" lengthAdjust="spacingAndGlyphs" textLength="154" x="450" y="194.2705">putTokenPlayerFromTurn(): void</text><ellipse cx="441" cy="203.6875" fill="#84BE84" rx="3" ry="3" style="stroke: #038048; stroke-width: 1.0;"/><text fill="#000000" font-family="sans-serif" font-size="11" lengthAdjust="spacingAndGlyphs" textLength="165" x="450" y="208.1064">moveTokenPlayerFromTurn(): void</text><ellipse cx="441" cy="217.5234" fill="#84BE84" rx="3" ry="3" style="stroke: #038048; stroke-width: 1.0;"/><text fill="#000000" font-family="sans-serif" font-size="11" lengthAdjust="spacingAndGlyphs" textLength="92" x="450" y="221.9424">changeTurn(): void</text><ellipse cx="441" cy="231.3594" fill="#84BE84" rx="3" ry="3" style="stroke: #038048; stroke-width: 1.0;"/><text fill="#000000" font-family="sans-serif" font-size="11" lengthAdjust="spacingAndGlyphs" textLength="110" x="450" y="235.7783">isTicTacToe(): boolean</text><ellipse cx="441" cy="245.1953" fill="#84BE84" rx="3" ry="3" style="stroke: #038048; stroke-width: 1.0;"/><text fill="#000000" font-family="sans-serif" font-size="11" lengthAdjust="spacingAndGlyphs" textLength="141" x="450" y="249.6143">getOtherValueFromTurn(): int</text><ellipse cx="441" cy="259.0313" fill="#84BE84" rx="3" ry="3" style="stroke: #038048; stroke-width: 1.0;"/><text fill="#000000" font-family="sans-serif" font-size="11" lengthAdjust="spacingAndGlyphs" textLength="87" x="450" y="263.4502">getBoard(): Board</text><!--MD5=[b574e60c06c50037ff1b014277a67d62]
class tictactoe.controllers.PlayController--><rect fill="#FEFECE" filter="url(#fhdhxkibg5d8g)" height="144.8516" id="tictactoe.controllers.PlayController" style="stroke: #A80036; stroke-width: 1.5;" width="249" x="32.5" y="493"/><ellipse cx="114.25" cy="509" fill="#ADD1B2" rx="11" ry="11" style="stroke: #A80036; stroke-width: 1.0;"/><path d="M117.0156,504.875 Q117.1719,504.6563 117.3594,504.5469 Q117.5469,504.4375 117.7656,504.4375 Q118.1406,504.4375 118.375,504.7031 Q118.6094,504.9531 118.6094,505.5625 L118.6094,507.0156 Q118.6094,507.625 118.375,507.8906 Q118.1406,508.1563 117.7656,508.1563 Q117.4219,508.1563 117.2188,507.9531 Q117.0156,507.7656 116.9063,507.25 Q116.8594,506.8906 116.6719,506.7031 Q116.3438,506.3281 115.7344,506.1094 Q115.125,505.8906 114.5,505.8906 Q113.7344,505.8906 113.0938,506.2188 Q112.4688,506.5469 111.9688,507.2969 Q111.4844,508.0469 111.4844,509.0781 L111.4844,510.1719 Q111.4844,511.4063 112.375,512.2344 Q113.2656,513.0469 114.8594,513.0469 Q115.7969,513.0469 116.4531,512.7969 Q116.8438,512.6406 117.2656,512.2031 Q117.5313,511.9375 117.6719,511.8594 Q117.8281,511.7813 118.0313,511.7813 Q118.3594,511.7813 118.6094,512.0469 Q118.875,512.2969 118.875,512.6406 Q118.875,512.9844 118.5313,513.3906 Q118.0313,513.9688 117.2344,514.2969 Q116.1563,514.75 114.8594,514.75 Q113.3438,514.75 112.1406,514.125 Q111.1563,513.625 110.4688,512.5625 Q109.7813,511.4844 109.7813,510.2031 L109.7813,509.0469 Q109.7813,507.7188 110.3906,506.5781 Q111.0156,505.4219 112.1094,504.8125 Q113.2031,504.1875 114.4375,504.1875 Q115.1719,504.1875 115.8125,504.3594 Q116.4688,504.5156 117.0156,504.875 Z "/><text fill="#000000" font-family="sans-serif" font-size="12" lengthAdjust="spacingAndGlyphs" textLength="77" x="134.75" y="513.9102">PlayController</text><line style="stroke: #A80036; stroke-width: 1.5;" x1="33.5" x2="280.5" y1="525" y2="525"/><line style="stroke: #A80036; stroke-width: 1.5;" x1="33.5" x2="280.5" y1="533" y2="533"/><ellipse cx="43.5" cy="544" fill="#84BE84" rx="3" ry="3" style="stroke: #038048; stroke-width: 1.0;"/><text fill="#000000" font-family="sans-serif" font-size="11" lengthAdjust="spacingAndGlyphs" textLength="102" x="52.5" y="548.4189">PlayController(Game)</text><ellipse cx="43.5" cy="557.8359" fill="#84BE84" rx="3" ry="3" style="stroke: #038048; stroke-width: 1.0;"/><text fill="#000000" font-family="sans-serif" font-size="11" lengthAdjust="spacingAndGlyphs" textLength="164" x="52.5" y="562.2549">getTokenPlayerFromTurn(): Player</text><ellipse cx="43.5" cy="571.6719" fill="#84BE84" rx="3" ry="3" style="stroke: #038048; stroke-width: 1.0;"/><text fill="#000000" font-family="sans-serif" font-size="11" lengthAdjust="spacingAndGlyphs" textLength="133" x="52.5" y="576.0908">isBoardComplete(): boolean</text><ellipse cx="43.5" cy="585.5078" fill="#84BE84" rx="3" ry="3" style="stroke: #038048; stroke-width: 1.0;"/><text fill="#000000" font-family="sans-serif" font-size="11" lengthAdjust="spacingAndGlyphs" textLength="206" x="52.5" y="589.9268">putTokenPlayerFromTurn(Coordinate): void</text><ellipse cx="43.5" cy="599.3438" fill="#84BE84" rx="3" ry="3" style="stroke: #038048; stroke-width: 1.0;"/><text fill="#000000" font-family="sans-serif" font-size="11" lengthAdjust="spacingAndGlyphs" textLength="223" x="52.5" y="603.7627">moveTokenPlayerFromTurn(Coordinate[]): void</text><ellipse cx="43.5" cy="613.1797" fill="#84BE84" rx="3" ry="3" style="stroke: #038048; stroke-width: 1.0;"/><text fill="#000000" font-family="sans-serif" font-size="11" lengthAdjust="spacingAndGlyphs" textLength="92" x="52.5" y="617.5986">changeTurn(): void</text><ellipse cx="43.5" cy="627.0156" fill="#84BE84" rx="3" ry="3" style="stroke: #038048; stroke-width: 1.0;"/><text fill="#000000" font-family="sans-serif" font-size="11" lengthAdjust="spacingAndGlyphs" textLength="110" x="52.5" y="631.4346">isTicTacToe(): boolean</text><!--MD5=[2c3ef77d19c2424f55dfd6db4f13e20e]
class tictactoe.controllers.ResultController--><rect fill="#FEFECE" filter="url(#fhdhxkibg5d8g)" height="75.6719" id="tictactoe.controllers.ResultController" style="stroke: #A80036; stroke-width: 1.5;" width="167" x="316.5" y="527.5"/><ellipse cx="351.75" cy="543.5" fill="#ADD1B2" rx="11" ry="11" style="stroke: #A80036; stroke-width: 1.0;"/><path d="M354.5156,539.375 Q354.6719,539.1563 354.8594,539.0469 Q355.0469,538.9375 355.2656,538.9375 Q355.6406,538.9375 355.875,539.2031 Q356.1094,539.4531 356.1094,540.0625 L356.1094,541.5156 Q356.1094,542.125 355.875,542.3906 Q355.6406,542.6563 355.2656,542.6563 Q354.9219,542.6563 354.7188,542.4531 Q354.5156,542.2656 354.4063,541.75 Q354.3594,541.3906 354.1719,541.2031 Q353.8438,540.8281 353.2344,540.6094 Q352.625,540.3906 352,540.3906 Q351.2344,540.3906 350.5938,540.7188 Q349.9688,541.0469 349.4688,541.7969 Q348.9844,542.5469 348.9844,543.5781 L348.9844,544.6719 Q348.9844,545.9063 349.875,546.7344 Q350.7656,547.5469 352.3594,547.5469 Q353.2969,547.5469 353.9531,547.2969 Q354.3438,547.1406 354.7656,546.7031 Q355.0313,546.4375 355.1719,546.3594 Q355.3281,546.2813 355.5313,546.2813 Q355.8594,546.2813 356.1094,546.5469 Q356.375,546.7969 356.375,547.1406 Q356.375,547.4844 356.0313,547.8906 Q355.5313,548.4688 354.7344,548.7969 Q353.6563,549.25 352.3594,549.25 Q350.8438,549.25 349.6406,548.625 Q348.6563,548.125 347.9688,547.0625 Q347.2813,545.9844 347.2813,544.7031 L347.2813,543.5469 Q347.2813,542.2188 347.8906,541.0781 Q348.5156,539.9219 349.6094,539.3125 Q350.7031,538.6875 351.9375,538.6875 Q352.6719,538.6875 353.3125,538.8594 Q353.9688,539.0156 354.5156,539.375 Z "/><text fill="#000000" font-family="sans-serif" font-size="12" lengthAdjust="spacingAndGlyphs" textLength="90" x="370.25" y="548.4102">ResultController</text><line style="stroke: #A80036; stroke-width: 1.5;" x1="317.5" x2="482.5" y1="559.5" y2="559.5"/><line style="stroke: #A80036; stroke-width: 1.5;" x1="317.5" x2="482.5" y1="567.5" y2="567.5"/><ellipse cx="327.5" cy="578.5" fill="#84BE84" rx="3" ry="3" style="stroke: #038048; stroke-width: 1.0;"/><text fill="#000000" font-family="sans-serif" font-size="11" lengthAdjust="spacingAndGlyphs" textLength="112" x="336.5" y="582.9189">ResultController(Game)</text><ellipse cx="327.5" cy="592.3359" fill="#84BE84" rx="3" ry="3" style="stroke: #038048; stroke-width: 1.0;"/><text fill="#000000" font-family="sans-serif" font-size="11" lengthAdjust="spacingAndGlyphs" textLength="141" x="336.5" y="596.7549">getOtherValueFromTurn(): int</text><!--MD5=[8ede4dbfb3b498095887802b64b699f0]
class tictactoe.controllers.StartController--><rect fill="#FEFECE" filter="url(#fhdhxkibg5d8g)" height="75.6719" id="tictactoe.controllers.StartController" style="stroke: #A80036; stroke-width: 1.5;" width="131" x="518.5" y="527.5"/><ellipse cx="542.5" cy="543.5" fill="#ADD1B2" rx="11" ry="11" style="stroke: #A80036; stroke-width: 1.0;"/><path d="M545.2656,539.375 Q545.4219,539.1563 545.6094,539.0469 Q545.7969,538.9375 546.0156,538.9375 Q546.3906,538.9375 546.625,539.2031 Q546.8594,539.4531 546.8594,540.0625 L546.8594,541.5156 Q546.8594,542.125 546.625,542.3906 Q546.3906,542.6563 546.0156,542.6563 Q545.6719,542.6563 545.4688,542.4531 Q545.2656,542.2656 545.1563,541.75 Q545.1094,541.3906 544.9219,541.2031 Q544.5938,540.8281 543.9844,540.6094 Q543.375,540.3906 542.75,540.3906 Q541.9844,540.3906 541.3438,540.7188 Q540.7188,541.0469 540.2188,541.7969 Q539.7344,542.5469 539.7344,543.5781 L539.7344,544.6719 Q539.7344,545.9063 540.625,546.7344 Q541.5156,547.5469 543.1094,547.5469 Q544.0469,547.5469 544.7031,547.2969 Q545.0938,547.1406 545.5156,546.7031 Q545.7813,546.4375 545.9219,546.3594 Q546.0781,546.2813 546.2813,546.2813 Q546.6094,546.2813 546.8594,546.5469 Q547.125,546.7969 547.125,547.1406 Q547.125,547.4844 546.7813,547.8906 Q546.2813,548.4688 545.4844,548.7969 Q544.4063,549.25 543.1094,549.25 Q541.5938,549.25 540.3906,548.625 Q539.4063,548.125 538.7188,547.0625 Q538.0313,545.9844 538.0313,544.7031 L538.0313,543.5469 Q538.0313,542.2188 538.6406,541.0781 Q539.2656,539.9219 540.3594,539.3125 Q541.4531,538.6875 542.6875,538.6875 Q543.4219,538.6875 544.0625,538.8594 Q544.7188,539.0156 545.2656,539.375 Z "/><text fill="#000000" font-family="sans-serif" font-size="12" lengthAdjust="spacingAndGlyphs" textLength="79" x="558.5" y="548.4102">StartController</text><line style="stroke: #A80036; stroke-width: 1.5;" x1="519.5" x2="648.5" y1="559.5" y2="559.5"/><line style="stroke: #A80036; stroke-width: 1.5;" x1="519.5" x2="648.5" y1="567.5" y2="567.5"/><ellipse cx="529.5" cy="578.5" fill="#84BE84" rx="3" ry="3" style="stroke: #038048; stroke-width: 1.0;"/><text fill="#000000" font-family="sans-serif" font-size="11" lengthAdjust="spacingAndGlyphs" textLength="105" x="538.5" y="582.9189">StartController(Game)</text><ellipse cx="529.5" cy="592.3359" fill="#84BE84" rx="3" ry="3" style="stroke: #038048; stroke-width: 1.0;"/><text fill="#000000" font-family="sans-serif" font-size="11" lengthAdjust="spacingAndGlyphs" textLength="101" x="538.5" y="596.7549">createPlayers(): void</text><!--MD5=[8d3188f3c370ea7d5d91d12bca83b67a]
class tictactoe.models.Game--><rect fill="#FEFECE" filter="url(#fhdhxkibg5d8g)" height="48" id="tictactoe.models.Game" style="stroke: #A80036; stroke-width: 1.5;" width="66" x="706" y="541.5"/><ellipse cx="721" cy="557.5" fill="#ADD1B2" rx="11" ry="11" style="stroke: #A80036; stroke-width: 1.0;"/><path d="M723.7656,553.375 Q723.9219,553.1563 724.1094,553.0469 Q724.2969,552.9375 724.5156,552.9375 Q724.8906,552.9375 725.125,553.2031 Q725.3594,553.4531 725.3594,554.0625 L725.3594,555.5156 Q725.3594,556.125 725.125,556.3906 Q724.8906,556.6563 724.5156,556.6563 Q724.1719,556.6563 723.9688,556.4531 Q723.7656,556.2656 723.6563,555.75 Q723.6094,555.3906 723.4219,555.2031 Q723.0938,554.8281 722.4844,554.6094 Q721.875,554.3906 721.25,554.3906 Q720.4844,554.3906 719.8438,554.7188 Q719.2188,555.0469 718.7188,555.7969 Q718.2344,556.5469 718.2344,557.5781 L718.2344,558.6719 Q718.2344,559.9063 719.125,560.7344 Q720.0156,561.5469 721.6094,561.5469 Q722.5469,561.5469 723.2031,561.2969 Q723.5938,561.1406 724.0156,560.7031 Q724.2813,560.4375 724.4219,560.3594 Q724.5781,560.2813 724.7813,560.2813 Q725.1094,560.2813 725.3594,560.5469 Q725.625,560.7969 725.625,561.1406 Q725.625,561.4844 725.2813,561.8906 Q724.7813,562.4688 723.9844,562.7969 Q722.9063,563.25 721.6094,563.25 Q720.0938,563.25 718.8906,562.625 Q717.9063,562.125 717.2188,561.0625 Q716.5313,559.9844 716.5313,558.7031 L716.5313,557.5469 Q716.5313,556.2188 717.1406,555.0781 Q717.7656,553.9219 718.8594,553.3125 Q719.9531,552.6875 721.1875,552.6875 Q721.9219,552.6875 722.5625,552.8594 Q723.2188,553.0156 723.7656,553.375 Z "/><text fill="#000000" font-family="sans-serif" font-size="12" lengthAdjust="spacingAndGlyphs" textLength="34" x="735" y="562.4102">Game</text><line style="stroke: #A80036; stroke-width: 1.5;" x1="707" x2="771" y1="573.5" y2="573.5"/><line style="stroke: #A80036; stroke-width: 1.5;" x1="707" x2="771" y1="581.5" y2="581.5"/><!--MD5=[895b6132a90c2908aef15a128e2ee1f5]
class tictactoe.models.State--><rect fill="#FEFECE" filter="url(#fhdhxkibg5d8g)" height="48" id="tictactoe.models.State" style="stroke: #A80036; stroke-width: 1.5;" width="60" x="807" y="541.5"/><ellipse cx="822" cy="557.5" fill="#ADD1B2" rx="11" ry="11" style="stroke: #A80036; stroke-width: 1.0;"/><path d="M824.7656,553.375 Q824.9219,553.1563 825.1094,553.0469 Q825.2969,552.9375 825.5156,552.9375 Q825.8906,552.9375 826.125,553.2031 Q826.3594,553.4531 826.3594,554.0625 L826.3594,555.5156 Q826.3594,556.125 826.125,556.3906 Q825.8906,556.6563 825.5156,556.6563 Q825.1719,556.6563 824.9688,556.4531 Q824.7656,556.2656 824.6563,555.75 Q824.6094,555.3906 824.4219,555.2031 Q824.0938,554.8281 823.4844,554.6094 Q822.875,554.3906 822.25,554.3906 Q821.4844,554.3906 820.8438,554.7188 Q820.2188,555.0469 819.7188,555.7969 Q819.2344,556.5469 819.2344,557.5781 L819.2344,558.6719 Q819.2344,559.9063 820.125,560.7344 Q821.0156,561.5469 822.6094,561.5469 Q823.5469,561.5469 824.2031,561.2969 Q824.5938,561.1406 825.0156,560.7031 Q825.2813,560.4375 825.4219,560.3594 Q825.5781,560.2813 825.7813,560.2813 Q826.1094,560.2813 826.3594,560.5469 Q826.625,560.7969 826.625,561.1406 Q826.625,561.4844 826.2813,561.8906 Q825.7813,562.4688 824.9844,562.7969 Q823.9063,563.25 822.6094,563.25 Q821.0938,563.25 819.8906,562.625 Q818.9063,562.125 818.2188,561.0625 Q817.5313,559.9844 817.5313,558.7031 L817.5313,557.5469 Q817.5313,556.2188 818.1406,555.0781 Q818.7656,553.9219 819.8594,553.3125 Q820.9531,552.6875 822.1875,552.6875 Q822.9219,552.6875 823.5625,552.8594 Q824.2188,553.0156 824.7656,553.375 Z "/><text fill="#000000" font-family="sans-serif" font-size="12" lengthAdjust="spacingAndGlyphs" textLength="28" x="836" y="562.4102">State</text><line style="stroke: #A80036; stroke-width: 1.5;" x1="808" x2="866" y1="573.5" y2="573.5"/><line style="stroke: #A80036; stroke-width: 1.5;" x1="808" x2="866" y1="581.5" y2="581.5"/><!--MD5=[c8f7ee38df84fc6c47e5792f2767cf35]
class tictactoe.models.StateValue--><rect fill="#FEFECE" filter="url(#fhdhxkibg5d8g)" height="48" id="tictactoe.models.StateValue" style="stroke: #A80036; stroke-width: 1.5;" width="91" x="902.5" y="541.5"/><ellipse cx="917.5" cy="557.5" fill="#ADD1B2" rx="11" ry="11" style="stroke: #A80036; stroke-width: 1.0;"/><path d="M920.2656,553.375 Q920.4219,553.1563 920.6094,553.0469 Q920.7969,552.9375 921.0156,552.9375 Q921.3906,552.9375 921.625,553.2031 Q921.8594,553.4531 921.8594,554.0625 L921.8594,555.5156 Q921.8594,556.125 921.625,556.3906 Q921.3906,556.6563 921.0156,556.6563 Q920.6719,556.6563 920.4688,556.4531 Q920.2656,556.2656 920.1563,555.75 Q920.1094,555.3906 919.9219,555.2031 Q919.5938,554.8281 918.9844,554.6094 Q918.375,554.3906 917.75,554.3906 Q916.9844,554.3906 916.3438,554.7188 Q915.7188,555.0469 915.2188,555.7969 Q914.7344,556.5469 914.7344,557.5781 L914.7344,558.6719 Q914.7344,559.9063 915.625,560.7344 Q916.5156,561.5469 918.1094,561.5469 Q919.0469,561.5469 919.7031,561.2969 Q920.0938,561.1406 920.5156,560.7031 Q920.7813,560.4375 920.9219,560.3594 Q921.0781,560.2813 921.2813,560.2813 Q921.6094,560.2813 921.8594,560.5469 Q922.125,560.7969 922.125,561.1406 Q922.125,561.4844 921.7813,561.8906 Q921.2813,562.4688 920.4844,562.7969 Q919.4063,563.25 918.1094,563.25 Q916.5938,563.25 915.3906,562.625 Q914.4063,562.125 913.7188,561.0625 Q913.0313,559.9844 913.0313,558.7031 L913.0313,557.5469 Q913.0313,556.2188 913.6406,555.0781 Q914.2656,553.9219 915.3594,553.3125 Q916.4531,552.6875 917.6875,552.6875 Q918.4219,552.6875 919.0625,552.8594 Q919.7188,553.0156 920.2656,553.375 Z "/><text fill="#000000" font-family="sans-serif" font-size="12" lengthAdjust="spacingAndGlyphs" textLength="59" x="931.5" y="562.4102">StateValue</text><line style="stroke: #A80036; stroke-width: 1.5;" x1="903.5" x2="992.5" y1="573.5" y2="573.5"/><line style="stroke: #A80036; stroke-width: 1.5;" x1="903.5" x2="992.5" y1="581.5" y2="581.5"/><!--MD5=[67f54059f517de4e17e4f415259fadfa]
link tictactoe.controllers.Controller to tictactoe.models.Game--><path d="M606.976,433.197 C640.984,467.019 684.351,510.15 711.907,537.555 " fill="none" id="tictactoe.controllers.Controller-&gt;tictactoe.models.Game" style="stroke: #A80036; stroke-width: 1.0; stroke-dasharray: 7.0,7.0;"/><polygon fill="#A80036" points="715.521,541.149,711.9595,531.9666,711.9755,537.6235,706.3186,537.6395,715.521,541.149" style="stroke: #A80036; stroke-width: 1.0;"/><!--MD5=[958c68ec9081d3cd0ffa7948938073c3]
link tictactoe.controllers.Controller to tictactoe.models.State--><path d="M625.756,404.022 C675.578,421.948 742.007,451.311 790,493 C804.025,505.183 815.564,522.527 823.698,537.081 " fill="none" id="tictactoe.controllers.Controller-&gt;tictactoe.models.State" style="stroke: #A80036; stroke-width: 1.0; stroke-dasharray: 7.0,7.0;"/><polygon fill="#A80036" points="826.113,541.5,825.3077,531.6841,823.7155,537.1123,818.2874,535.5201,826.113,541.5" style="stroke: #A80036; stroke-width: 1.0;"/><!--MD5=[bf6ea4e22b99b81dd48bbf2eb1cf70e8]
link tictactoe.controllers.Logic to tictactoe.models.Game--><path d="M616.5391,280.5482 C616.5391,280.5482 635.089,314.143 643,330 C677.215,398.577 709.32,482.416 726.342,528.987 " fill="none" id="tictactoe.controllers.Logic-tictactoe.models.Game" style="stroke: #A80036; stroke-width: 1.0;"/><polygon fill="#A80036" points="730.831,541.365,731.5225,531.5404,729.1261,536.6646,724.0019,534.2683,730.831,541.365" style="stroke: #A80036; stroke-width: 1.0;"/><line style="stroke: #A80036; stroke-width: 1.0;" x1="729.1261" x2="726.3985" y1="536.6646" y2="529.1435"/><polygon fill="#A80036" points="610.593,270.125,610.0917,277.3187,616.5391,280.5482,617.0405,273.3546,610.593,270.125" style="stroke: #A80036; stroke-width: 1.0;"/><!--MD5=[758f687dc2a943dbf7811856af1b401c]
link tictactoe.controllers.Logic to tictactoe.models.State--><path d="M651.0883,279.4464 C651.0883,279.4464 678.821,313.548 691,330 C741.16,397.76 791.276,483.035 817.756,529.82 " fill="none" id="tictactoe.controllers.Logic-tictactoe.models.State" style="stroke: #A80036; stroke-width: 1.0;"/><polygon fill="#A80036" points="824.272,541.4,823.3437,531.595,821.8197,537.0427,816.372,535.5187,824.272,541.4" style="stroke: #A80036; stroke-width: 1.0;"/><line style="stroke: #A80036; stroke-width: 1.0;" x1="821.8197" x2="817.897" y1="537.0427" y2="530.0705"/><polygon fill="#A80036" points="643.383,270.247,644.1692,277.4151,651.0883,279.4464,650.3021,272.2783,643.383,270.247" style="stroke: #A80036; stroke-width: 1.0;"/><!--MD5=[12d6b2ee7a1b6faf9fe809f483963ab7]
link tictactoe.controllers.Logic to tictactoe.controllers.Controller--><path d="M548.9512,282.0293 C548.9512,282.0293 550.684,306.235 551.445,316.871 " fill="none" id="tictactoe.controllers.Logic-tictactoe.controllers.Controller" style="stroke: #A80036; stroke-width: 1.0;"/><polygon fill="#A80036" points="552.379,329.92,555.7259,320.6573,552.0219,324.9328,547.7464,321.2287,552.379,329.92" style="stroke: #A80036; stroke-width: 1.0;"/><line style="stroke: #A80036; stroke-width: 1.0;" x1="552.0219" x2="551.4505" y1="324.9328" y2="316.953"/><polygon fill="#A80036" points="548.094,270.06,544.5328,276.3304,548.9512,282.0293,552.5124,275.7589,548.094,270.06" style="stroke: #A80036; stroke-width: 1.0;"/><!--MD5=[096abf58a0a258fd61b5f735b2bb7393]
link tictactoe.controllers.Logic to tictactoe.models.StateValue--><path d="M659.3393,249.0434 C659.3393,249.0434 722.225,302.559 750,330 C817.375,396.564 886.645,483.745 922.696,530.823 " fill="none" id="tictactoe.controllers.Logic-tictactoe.models.StateValue" style="stroke: #A80036; stroke-width: 1.0;"/><polygon fill="#A80036" points="930.708,541.341,928.4365,531.7577,927.6783,537.3635,922.0725,536.6052,930.708,541.341" style="stroke: #A80036; stroke-width: 1.0;"/><line style="stroke: #A80036; stroke-width: 1.0;" x1="927.6783" x2="922.8305" y1="537.3635" y2="530.999"/><polygon fill="#A80036" points="650.067,241.426,652.164,248.3255,659.3393,249.0434,657.2423,242.144,650.067,241.426" style="stroke: #A80036; stroke-width: 1.0;"/><!--MD5=[5700b97431232c099330215bddfcc855]
reverse link tictactoe.controllers.Controller to tictactoe.controllers.PlayController--><path d="M467.49,419.001 C417.667,439.935 354.498,467.125 299,493 C293.371,495.624 287.635,498.339 281.854,501.109 " fill="none" id="tictactoe.controllers.Controller&lt;-tictactoe.controllers.PlayController" style="stroke: #A80036; stroke-width: 1.0;"/><polygon fill="none" points="465.08,412.421,486.231,411.156,470.485,425.336,465.08,412.421" style="stroke: #A80036; stroke-width: 1.0;"/><!--MD5=[8f435ed2c59169c4603cda7b7477fe61]
reverse link tictactoe.controllers.Controller to tictactoe.controllers.ResultController--><path d="M499.506,448.41 C476.728,474.983 451.297,504.654 431.845,527.347 " fill="none" id="tictactoe.controllers.Controller&lt;-tictactoe.controllers.ResultController" style="stroke: #A80036; stroke-width: 1.0;"/><polygon fill="none" points="494.215,443.827,512.545,433.197,504.844,452.938,494.215,443.827" style="stroke: #A80036; stroke-width: 1.0;"/><!--MD5=[5deb1e5c7bf9906a35de112138d88f9c]
reverse link tictactoe.controllers.Controller to tictactoe.controllers.StartController--><path d="M566.89,453.284 C570.779,478.563 575.005,506.033 578.284,527.347 " fill="none" id="tictactoe.controllers.Controller&lt;-tictactoe.controllers.StartController" style="stroke: #A80036; stroke-width: 1.0;"/><polygon fill="none" points="559.922,454.029,563.8,433.197,573.759,451.9,559.922,454.029" style="stroke: #A80036; stroke-width: 1.0;"/><!--MD5=[530567ca3f9b3b26755568f405e071a1]
@startuml

class  tictactoe.controllers.Controller{
# game: Game
# state: State
~ Controller(Game, State)
+ getBoard(): Board
}
tictactoe.controllers.Controller ..> tictactoe.models.Game
tictactoe.controllers.Controller ..> tictactoe.models.State

class  tictactoe.controllers.Logic{
- state: State
- game: Game
- controllers: Map<StateValue, Controller>
+ Logic()
+ createPlayers(): void
+ getTokenPlayerFromTurn(): Player
+ isBoardComplete(): boolean
+ putTokenPlayerFromTurn(): void
+ moveTokenPlayerFromTurn(): void
+ changeTurn(): void
+ isTicTacToe(): boolean
+ getOtherValueFromTurn(): int
+ getBoard(): Board
}
tictactoe.controllers.Logic *-down-> tictactoe.models.Game
tictactoe.controllers.Logic *-down-> tictactoe.models.State
tictactoe.controllers.Logic *-down-> tictactoe.controllers.Controller
tictactoe.controllers.Logic *-down-> tictactoe.models.StateValue

class  tictactoe.controllers.PlayController{
+ PlayController(Game)
+ getTokenPlayerFromTurn(): Player
+ isBoardComplete(): boolean
+ putTokenPlayerFromTurn(Coordinate): void
+ moveTokenPlayerFromTurn(Coordinate[]): void
+ changeTurn(): void
+ isTicTacToe(): boolean
}
tictactoe.controllers.Controller <|-down- tictactoe.controllers.PlayController

class  tictactoe.controllers.ResultController{
+ ResultController(Game)
+ getOtherValueFromTurn(): int
}
tictactoe.controllers.Controller <|-down- tictactoe.controllers.ResultController

class  tictactoe.controllers.StartController{
+ StartController(Game)
+ createPlayers(): void
}
tictactoe.controllers.Controller <|-down- tictactoe.controllers.StartController

@enduml

PlantUML version 1.2020.15(Sun Jun 28 13:39:45 CEST 2020)
(GPL source distribution)
Java Runtime: Java(TM) SE Runtime Environment
JVM: Java HotSpot(TM) 64-Bit Server VM
Default Encoding: windows-1252
Language: es
Country: ES
--></g></svg>