<?xml version="1.0" encoding="UTF-8" standalone="no"?><svg xmlns="http://www.w3.org/2000/svg" xmlns:xlink="http://www.w3.org/1999/xlink" contentScriptType="application/ecmascript" contentStyleType="text/css" height="967px" preserveAspectRatio="none" style="width:1281px;height:967px;" version="1.1" viewBox="0 0 1281 967" width="1281px" zoomAndPan="magnify"><defs><filter height="300%" id="f1xu6eaitvzphk" width="300%" x="-1" y="-1"><feGaussianBlur result="blurOut" stdDeviation="2.0"/><feColorMatrix in="blurOut" result="blurOut2" type="matrix" values="0 0 0 0 0 0 0 0 0 0 0 0 0 0 0 0 0 0 .4 0"/><feOffset dx="4.0" dy="4.0" in="blurOut2" result="blurOut3"/><feBlend in="SourceGraphic" in2="blurOut3" mode="normal"/></filter></defs><g><!--MD5=[ee7e9a007a7c4d40c0679a27f272732d]
cluster tictactoe.controllers--><polygon fill="#FFFFFF" filter="url(#f1xu6eaitvzphk)" points="16,6,164,6,171,29.6094,768,29.6094,768,831,16,831,16,6" style="stroke: #000000; stroke-width: 1.5;"/><line style="stroke: #000000; stroke-width: 1.5;" x1="16" x2="171" y1="29.6094" y2="29.6094"/><text fill="#000000" font-family="sans-serif" font-size="14" font-weight="bold" lengthAdjust="spacingAndGlyphs" textLength="142" x="20" y="22.5332">tictactoe.controllers</text><!--MD5=[51cd642fcc96b47682a93d9084d46dec]
cluster tictactoe.models--><polygon fill="#FFFFFF" filter="url(#f1xu6eaitvzphk)" points="664,855,786,855,793,878.6094,1113,878.6094,1113,955,664,955,664,855" style="stroke: #000000; stroke-width: 1.5;"/><line style="stroke: #000000; stroke-width: 1.5;" x1="664" x2="793" y1="878.6094" y2="878.6094"/><text fill="#000000" font-family="sans-serif" font-size="14" font-weight="bold" lengthAdjust="spacingAndGlyphs" textLength="116" x="668" y="871.5332">tictactoe.models</text><!--MD5=[f4a8416df5d5f7c80a7d3a30f9e0f7a6]
cluster mastermind.controllers--><polygon fill="#FFFFFF" filter="url(#f1xu6eaitvzphk)" points="1080,40.5,1249,40.5,1256,64.1094,1259,64.1094,1259,140.5,1080,140.5,1080,40.5" style="stroke: #000000; stroke-width: 1.5;"/><line style="stroke: #000000; stroke-width: 1.5;" x1="1080" x2="1256" y1="64.1094" y2="64.1094"/><text fill="#000000" font-family="sans-serif" font-size="14" font-weight="bold" lengthAdjust="spacingAndGlyphs" textLength="163" x="1084" y="57.0332">mastermind.controllers</text><!--MD5=[7db3c59d38ae5b37b484eb2df9368145]
cluster java.util--><polygon fill="#FFFFFF" filter="url(#f1xu6eaitvzphk)" points="1126,210.5,1187,210.5,1194,234.1094,1214,234.1094,1214,310.5,1126,310.5,1126,210.5" style="stroke: #000000; stroke-width: 1.5;"/><line style="stroke: #000000; stroke-width: 1.5;" x1="1126" x2="1194" y1="234.1094" y2="234.1094"/><text fill="#000000" font-family="sans-serif" font-size="14" font-weight="bold" lengthAdjust="spacingAndGlyphs" textLength="55" x="1130" y="227.0332">java.util</text><!--MD5=[957eef6538bab7382edbc29d98579a60]
class tictactoe.controllers.Controller--><rect fill="#FEFECE" filter="url(#f1xu6eaitvzphk)" height="103.3438" id="tictactoe.controllers.Controller" style="stroke: #A80036; stroke-width: 1.5;" width="180" x="552" y="219"/><ellipse cx="610.75" cy="235" fill="#ADD1B2" rx="11" ry="11" style="stroke: #A80036; stroke-width: 1.0;"/><path d="M613.5156,230.875 Q613.6719,230.6563 613.8594,230.5469 Q614.0469,230.4375 614.2656,230.4375 Q614.6406,230.4375 614.875,230.7031 Q615.1094,230.9531 615.1094,231.5625 L615.1094,233.0156 Q615.1094,233.625 614.875,233.8906 Q614.6406,234.1563 614.2656,234.1563 Q613.9219,234.1563 613.7188,233.9531 Q613.5156,233.7656 613.4063,233.25 Q613.3594,232.8906 613.1719,232.7031 Q612.8438,232.3281 612.2344,232.1094 Q611.625,231.8906 611,231.8906 Q610.2344,231.8906 609.5938,232.2188 Q608.9688,232.5469 608.4688,233.2969 Q607.9844,234.0469 607.9844,235.0781 L607.9844,236.1719 Q607.9844,237.4063 608.875,238.2344 Q609.7656,239.0469 611.3594,239.0469 Q612.2969,239.0469 612.9531,238.7969 Q613.3438,238.6406 613.7656,238.2031 Q614.0313,237.9375 614.1719,237.8594 Q614.3281,237.7813 614.5313,237.7813 Q614.8594,237.7813 615.1094,238.0469 Q615.375,238.2969 615.375,238.6406 Q615.375,238.9844 615.0313,239.3906 Q614.5313,239.9688 613.7344,240.2969 Q612.6563,240.75 611.3594,240.75 Q609.8438,240.75 608.6406,240.125 Q607.6563,239.625 606.9688,238.5625 Q606.2813,237.4844 606.2813,236.2031 L606.2813,235.0469 Q606.2813,233.7188 606.8906,232.5781 Q607.5156,231.4219 608.6094,230.8125 Q609.7031,230.1875 610.9375,230.1875 Q611.6719,230.1875 612.3125,230.3594 Q612.9688,230.5156 613.5156,230.875 Z "/><text fill="#000000" font-family="sans-serif" font-size="12" lengthAdjust="spacingAndGlyphs" textLength="54" x="631.25" y="239.9102">Controller</text><line style="stroke: #A80036; stroke-width: 1.5;" x1="553" x2="731" y1="251" y2="251"/><polygon fill="none" points="563,257,567,261,563,265,559,261" style="stroke: #B38D22; stroke-width: 1.0;"/><text fill="#000000" font-family="sans-serif" font-size="11" lengthAdjust="spacingAndGlyphs" textLength="60" x="572" y="266.4189">game: Game</text><polygon fill="none" points="563,270.8359,567,274.8359,563,278.8359,559,274.8359" style="stroke: #B38D22; stroke-width: 1.0;"/><text fill="#000000" font-family="sans-serif" font-size="11" lengthAdjust="spacingAndGlyphs" textLength="55" x="572" y="280.2549">state: State</text><line style="stroke: #A80036; stroke-width: 1.5;" x1="553" x2="731" y1="286.6719" y2="286.6719"/><polygon fill="#4177AF" points="563,293.6719,559,299.6719,567,299.6719" style="stroke: #1963A0; stroke-width: 1.0;"/><text fill="#000000" font-family="sans-serif" font-size="11" lengthAdjust="spacingAndGlyphs" textLength="113" x="572" y="302.0908">Controller(Game, State)</text><ellipse cx="563" cy="311.5078" fill="#84BE84" rx="3" ry="3" style="stroke: #038048; stroke-width: 1.0;"/><text fill="#000000" font-family="sans-serif" font-size="11" font-style="italic" lengthAdjust="spacingAndGlyphs" textLength="154" x="572" y="315.9268">accept(ControllersVisitor): void</text><!--MD5=[cd4f094777041ea0b287ad7c5b510f06]
class tictactoe.controllers.ControllersVisitor--><rect fill="#FEFECE" filter="url(#f1xu6eaitvzphk)" height="89.5078" id="tictactoe.controllers.ControllersVisitor" style="stroke: #A80036; stroke-width: 1.5;" width="155" x="481.5" y="382"/><ellipse cx="509.1" cy="398" fill="#ADD1B2" rx="11" ry="11" style="stroke: #A80036; stroke-width: 1.0;"/><path d="M511.8656,393.875 Q512.0219,393.6563 512.2094,393.5469 Q512.3969,393.4375 512.6156,393.4375 Q512.9906,393.4375 513.225,393.7031 Q513.4594,393.9531 513.4594,394.5625 L513.4594,396.0156 Q513.4594,396.625 513.225,396.8906 Q512.9906,397.1563 512.6156,397.1563 Q512.2719,397.1563 512.0688,396.9531 Q511.8656,396.7656 511.7563,396.25 Q511.7094,395.8906 511.5219,395.7031 Q511.1938,395.3281 510.5844,395.1094 Q509.975,394.8906 509.35,394.8906 Q508.5844,394.8906 507.9438,395.2188 Q507.3188,395.5469 506.8188,396.2969 Q506.3344,397.0469 506.3344,398.0781 L506.3344,399.1719 Q506.3344,400.4063 507.225,401.2344 Q508.1156,402.0469 509.7094,402.0469 Q510.6469,402.0469 511.3031,401.7969 Q511.6938,401.6406 512.1156,401.2031 Q512.3813,400.9375 512.5219,400.8594 Q512.6781,400.7813 512.8813,400.7813 Q513.2094,400.7813 513.4594,401.0469 Q513.725,401.2969 513.725,401.6406 Q513.725,401.9844 513.3813,402.3906 Q512.8813,402.9688 512.0844,403.2969 Q511.0063,403.75 509.7094,403.75 Q508.1938,403.75 506.9906,403.125 Q506.0063,402.625 505.3188,401.5625 Q504.6313,400.4844 504.6313,399.2031 L504.6313,398.0469 Q504.6313,396.7188 505.2406,395.5781 Q505.8656,394.4219 506.9594,393.8125 Q508.0531,393.1875 509.2875,393.1875 Q510.0219,393.1875 510.6625,393.3594 Q511.3188,393.5156 511.8656,393.875 Z "/><text fill="#000000" font-family="sans-serif" font-size="12" lengthAdjust="spacingAndGlyphs" textLength="95" x="525.9" y="402.9102">ControllersVisitor</text><line style="stroke: #A80036; stroke-width: 1.5;" x1="482.5" x2="635.5" y1="414" y2="414"/><line style="stroke: #A80036; stroke-width: 1.5;" x1="482.5" x2="635.5" y1="422" y2="422"/><polygon fill="#4177AF" points="492.5,429,488.5,435,496.5,435" style="stroke: #1963A0; stroke-width: 1.0;"/><text fill="#000000" font-family="sans-serif" font-size="11" lengthAdjust="spacingAndGlyphs" textLength="122" x="501.5" y="437.4189">visit(StartController): void</text><polygon fill="#4177AF" points="492.5,442.8359,488.5,448.8359,496.5,448.8359" style="stroke: #1963A0; stroke-width: 1.0;"/><text fill="#000000" font-family="sans-serif" font-size="11" lengthAdjust="spacingAndGlyphs" textLength="119" x="501.5" y="451.2549">visit(PlayController): void</text><polygon fill="#4177AF" points="492.5,456.6719,488.5,462.6719,496.5,462.6719" style="stroke: #1963A0; stroke-width: 1.0;"/><text fill="#000000" font-family="sans-serif" font-size="11" lengthAdjust="spacingAndGlyphs" textLength="129" x="501.5" y="465.0908">visit(ResultController): void</text><!--MD5=[2c3ef77d19c2424f55dfd6db4f13e20e]
class tictactoe.controllers.ResultController--><rect fill="#FEFECE" filter="url(#f1xu6eaitvzphk)" height="103.3438" id="tictactoe.controllers.ResultController" style="stroke: #A80036; stroke-width: 1.5;" width="176" x="365" y="622"/><ellipse cx="404.3" cy="638" fill="#ADD1B2" rx="11" ry="11" style="stroke: #A80036; stroke-width: 1.0;"/><path d="M407.0656,633.875 Q407.2219,633.6563 407.4094,633.5469 Q407.5969,633.4375 407.8156,633.4375 Q408.1906,633.4375 408.425,633.7031 Q408.6594,633.9531 408.6594,634.5625 L408.6594,636.0156 Q408.6594,636.625 408.425,636.8906 Q408.1906,637.1563 407.8156,637.1563 Q407.4719,637.1563 407.2688,636.9531 Q407.0656,636.7656 406.9563,636.25 Q406.9094,635.8906 406.7219,635.7031 Q406.3938,635.3281 405.7844,635.1094 Q405.175,634.8906 404.55,634.8906 Q403.7844,634.8906 403.1438,635.2188 Q402.5188,635.5469 402.0188,636.2969 Q401.5344,637.0469 401.5344,638.0781 L401.5344,639.1719 Q401.5344,640.4063 402.425,641.2344 Q403.3156,642.0469 404.9094,642.0469 Q405.8469,642.0469 406.5031,641.7969 Q406.8938,641.6406 407.3156,641.2031 Q407.5813,640.9375 407.7219,640.8594 Q407.8781,640.7813 408.0813,640.7813 Q408.4094,640.7813 408.6594,641.0469 Q408.925,641.2969 408.925,641.6406 Q408.925,641.9844 408.5813,642.3906 Q408.0813,642.9688 407.2844,643.2969 Q406.2063,643.75 404.9094,643.75 Q403.3938,643.75 402.1906,643.125 Q401.2063,642.625 400.5188,641.5625 Q399.8313,640.4844 399.8313,639.2031 L399.8313,638.0469 Q399.8313,636.7188 400.4406,635.5781 Q401.0656,634.4219 402.1594,633.8125 Q403.2531,633.1875 404.4875,633.1875 Q405.2219,633.1875 405.8625,633.3594 Q406.5188,633.5156 407.0656,633.875 Z "/><text fill="#000000" font-family="sans-serif" font-size="12" lengthAdjust="spacingAndGlyphs" textLength="90" x="423.7" y="642.9102">ResultController</text><line style="stroke: #A80036; stroke-width: 1.5;" x1="366" x2="540" y1="654" y2="654"/><line style="stroke: #A80036; stroke-width: 1.5;" x1="366" x2="540" y1="662" y2="662"/><ellipse cx="376" cy="673" fill="#84BE84" rx="3" ry="3" style="stroke: #038048; stroke-width: 1.0;"/><text fill="#000000" font-family="sans-serif" font-size="11" lengthAdjust="spacingAndGlyphs" textLength="143" x="385" y="677.4189">ResultController(Game, State)</text><ellipse cx="376" cy="686.8359" fill="#84BE84" rx="3" ry="3" style="stroke: #038048; stroke-width: 1.0;"/><text fill="#000000" font-family="sans-serif" font-size="11" lengthAdjust="spacingAndGlyphs" textLength="60" x="385" y="691.2549">finish(): void</text><ellipse cx="376" cy="700.6719" fill="#84BE84" rx="3" ry="3" style="stroke: #038048; stroke-width: 1.0;"/><text fill="#000000" font-family="sans-serif" font-size="11" lengthAdjust="spacingAndGlyphs" textLength="141" x="385" y="705.0908">getOtherValueFromTurn(): int</text><ellipse cx="376" cy="714.5078" fill="#84BE84" rx="3" ry="3" style="stroke: #038048; stroke-width: 1.0;"/><text fill="#000000" font-family="sans-serif" font-size="11" lengthAdjust="spacingAndGlyphs" textLength="150" x="385" y="718.9268">accept(ControllersVisitor): void</text><!--MD5=[8ede4dbfb3b498095887802b64b699f0]
class tictactoe.controllers.StartController--><rect fill="#FEFECE" filter="url(#f1xu6eaitvzphk)" height="103.3438" id="tictactoe.controllers.StartController" style="stroke: #A80036; stroke-width: 1.5;" width="176" x="576" y="622"/><ellipse cx="620.25" cy="638" fill="#ADD1B2" rx="11" ry="11" style="stroke: #A80036; stroke-width: 1.0;"/><path d="M623.0156,633.875 Q623.1719,633.6563 623.3594,633.5469 Q623.5469,633.4375 623.7656,633.4375 Q624.1406,633.4375 624.375,633.7031 Q624.6094,633.9531 624.6094,634.5625 L624.6094,636.0156 Q624.6094,636.625 624.375,636.8906 Q624.1406,637.1563 623.7656,637.1563 Q623.4219,637.1563 623.2188,636.9531 Q623.0156,636.7656 622.9063,636.25 Q622.8594,635.8906 622.6719,635.7031 Q622.3438,635.3281 621.7344,635.1094 Q621.125,634.8906 620.5,634.8906 Q619.7344,634.8906 619.0938,635.2188 Q618.4688,635.5469 617.9688,636.2969 Q617.4844,637.0469 617.4844,638.0781 L617.4844,639.1719 Q617.4844,640.4063 618.375,641.2344 Q619.2656,642.0469 620.8594,642.0469 Q621.7969,642.0469 622.4531,641.7969 Q622.8438,641.6406 623.2656,641.2031 Q623.5313,640.9375 623.6719,640.8594 Q623.8281,640.7813 624.0313,640.7813 Q624.3594,640.7813 624.6094,641.0469 Q624.875,641.2969 624.875,641.6406 Q624.875,641.9844 624.5313,642.3906 Q624.0313,642.9688 623.2344,643.2969 Q622.1563,643.75 620.8594,643.75 Q619.3438,643.75 618.1406,643.125 Q617.1563,642.625 616.4688,641.5625 Q615.7813,640.4844 615.7813,639.2031 L615.7813,638.0469 Q615.7813,636.7188 616.3906,635.5781 Q617.0156,634.4219 618.1094,633.8125 Q619.2031,633.1875 620.4375,633.1875 Q621.1719,633.1875 621.8125,633.3594 Q622.4688,633.5156 623.0156,633.875 Z "/><text fill="#000000" font-family="sans-serif" font-size="12" lengthAdjust="spacingAndGlyphs" textLength="79" x="640.75" y="642.9102">StartController</text><line style="stroke: #A80036; stroke-width: 1.5;" x1="577" x2="751" y1="654" y2="654"/><line style="stroke: #A80036; stroke-width: 1.5;" x1="577" x2="751" y1="662" y2="662"/><ellipse cx="587" cy="673" fill="#84BE84" rx="3" ry="3" style="stroke: #038048; stroke-width: 1.0;"/><text fill="#000000" font-family="sans-serif" font-size="11" lengthAdjust="spacingAndGlyphs" textLength="136" x="596" y="677.4189">StartController(Game, State)</text><ellipse cx="587" cy="686.8359" fill="#84BE84" rx="3" ry="3" style="stroke: #038048; stroke-width: 1.0;"/><text fill="#000000" font-family="sans-serif" font-size="11" lengthAdjust="spacingAndGlyphs" textLength="56" x="596" y="691.2549">start(): void</text><ellipse cx="587" cy="700.6719" fill="#84BE84" rx="3" ry="3" style="stroke: #038048; stroke-width: 1.0;"/><text fill="#000000" font-family="sans-serif" font-size="11" lengthAdjust="spacingAndGlyphs" textLength="112" x="596" y="705.0908">createPlayers(int): void</text><ellipse cx="587" cy="714.5078" fill="#84BE84" rx="3" ry="3" style="stroke: #038048; stroke-width: 1.0;"/><text fill="#000000" font-family="sans-serif" font-size="11" lengthAdjust="spacingAndGlyphs" textLength="150" x="596" y="718.9268">accept(ControllersVisitor): void</text><!--MD5=[b574e60c06c50037ff1b014277a67d62]
class tictactoe.controllers.PlayController--><rect fill="#FEFECE" filter="url(#f1xu6eaitvzphk)" height="283.2109" id="tictactoe.controllers.PlayController" style="stroke: #A80036; stroke-width: 1.5;" width="298" x="32" y="532"/><ellipse cx="138.25" cy="548" fill="#ADD1B2" rx="11" ry="11" style="stroke: #A80036; stroke-width: 1.0;"/><path d="M141.0156,543.875 Q141.1719,543.6563 141.3594,543.5469 Q141.5469,543.4375 141.7656,543.4375 Q142.1406,543.4375 142.375,543.7031 Q142.6094,543.9531 142.6094,544.5625 L142.6094,546.0156 Q142.6094,546.625 142.375,546.8906 Q142.1406,547.1563 141.7656,547.1563 Q141.4219,547.1563 141.2188,546.9531 Q141.0156,546.7656 140.9063,546.25 Q140.8594,545.8906 140.6719,545.7031 Q140.3438,545.3281 139.7344,545.1094 Q139.125,544.8906 138.5,544.8906 Q137.7344,544.8906 137.0938,545.2188 Q136.4688,545.5469 135.9688,546.2969 Q135.4844,547.0469 135.4844,548.0781 L135.4844,549.1719 Q135.4844,550.4063 136.375,551.2344 Q137.2656,552.0469 138.8594,552.0469 Q139.7969,552.0469 140.4531,551.7969 Q140.8438,551.6406 141.2656,551.2031 Q141.5313,550.9375 141.6719,550.8594 Q141.8281,550.7813 142.0313,550.7813 Q142.3594,550.7813 142.6094,551.0469 Q142.875,551.2969 142.875,551.6406 Q142.875,551.9844 142.5313,552.3906 Q142.0313,552.9688 141.2344,553.2969 Q140.1563,553.75 138.8594,553.75 Q137.3438,553.75 136.1406,553.125 Q135.1563,552.625 134.4688,551.5625 Q133.7813,550.4844 133.7813,549.2031 L133.7813,548.0469 Q133.7813,546.7188 134.3906,545.5781 Q135.0156,544.4219 136.1094,543.8125 Q137.2031,543.1875 138.4375,543.1875 Q139.1719,543.1875 139.8125,543.3594 Q140.4688,543.5156 141.0156,543.875 Z "/><text fill="#000000" font-family="sans-serif" font-size="12" lengthAdjust="spacingAndGlyphs" textLength="77" x="158.75" y="552.9102">PlayController</text><line style="stroke: #A80036; stroke-width: 1.5;" x1="33" x2="329" y1="564" y2="564"/><line style="stroke: #A80036; stroke-width: 1.5;" x1="33" x2="329" y1="572" y2="572"/><ellipse cx="43" cy="583" fill="#84BE84" rx="3" ry="3" style="stroke: #038048; stroke-width: 1.0;"/><text fill="#000000" font-family="sans-serif" font-size="11" lengthAdjust="spacingAndGlyphs" textLength="133" x="52" y="587.4189">PlayController(Game, State)</text><ellipse cx="43" cy="596.8359" fill="#84BE84" rx="3" ry="3" style="stroke: #038048; stroke-width: 1.0;"/><text fill="#000000" font-family="sans-serif" font-size="11" lengthAdjust="spacingAndGlyphs" textLength="164" x="52" y="601.2549">getTokenPlayerFromTurn(): Player</text><ellipse cx="43" cy="610.6719" fill="#84BE84" rx="3" ry="3" style="stroke: #038048; stroke-width: 1.0;"/><text fill="#000000" font-family="sans-serif" font-size="11" lengthAdjust="spacingAndGlyphs" textLength="224" x="52" y="615.0908">getTypeOfTokenPlayerFromTurn(): PlayerType</text><ellipse cx="43" cy="624.5078" fill="#84BE84" rx="3" ry="3" style="stroke: #038048; stroke-width: 1.0;"/><text fill="#000000" font-family="sans-serif" font-size="11" lengthAdjust="spacingAndGlyphs" textLength="196" x="52" y="628.9268">controlErrorsPutCoordinate(int, int): Error</text><ellipse cx="43" cy="638.3438" fill="#84BE84" rx="3" ry="3" style="stroke: #038048; stroke-width: 1.0;"/><text fill="#000000" font-family="sans-serif" font-size="11" lengthAdjust="spacingAndGlyphs" textLength="235" x="52" y="642.7627">controlErrorsMoveOriginCoordinate(int, int): Error</text><ellipse cx="43" cy="652.1797" fill="#84BE84" rx="3" ry="3" style="stroke: #038048; stroke-width: 1.0;"/><text fill="#000000" font-family="sans-serif" font-size="11" lengthAdjust="spacingAndGlyphs" textLength="272" x="52" y="656.5986">controlErrorsMoveTargetCoordinate(int, int, int, int): Error</text><ellipse cx="43" cy="666.0156" fill="#84BE84" rx="3" ry="3" style="stroke: #038048; stroke-width: 1.0;"/><text fill="#000000" font-family="sans-serif" font-size="11" lengthAdjust="spacingAndGlyphs" textLength="164" x="52" y="670.4346">isCoordinateValid(int, int): boolean</text><ellipse cx="43" cy="679.8516" fill="#84BE84" rx="3" ry="3" style="stroke: #038048; stroke-width: 1.0;"/><text fill="#000000" font-family="sans-serif" font-size="11" lengthAdjust="spacingAndGlyphs" textLength="165" x="52" y="684.2705">generateRandomCoordinate(): int[]</text><ellipse cx="43" cy="693.6875" fill="#84BE84" rx="3" ry="3" style="stroke: #038048; stroke-width: 1.0;"/><text fill="#000000" font-family="sans-serif" font-size="11" lengthAdjust="spacingAndGlyphs" textLength="133" x="52" y="698.1064">isBoardComplete(): boolean</text><ellipse cx="43" cy="707.5234" fill="#84BE84" rx="3" ry="3" style="stroke: #038048; stroke-width: 1.0;"/><text fill="#000000" font-family="sans-serif" font-size="11" lengthAdjust="spacingAndGlyphs" textLength="182" x="52" y="711.9424">putTokenPlayerFromTurn(int, int): void</text><ellipse cx="43" cy="721.3594" fill="#84BE84" rx="3" ry="3" style="stroke: #038048; stroke-width: 1.0;"/><text fill="#000000" font-family="sans-serif" font-size="11" lengthAdjust="spacingAndGlyphs" textLength="227" x="52" y="725.7783">moveTokenPlayerFromTurn(int, int, int, int): void</text><ellipse cx="43" cy="735.1953" fill="#84BE84" rx="3" ry="3" style="stroke: #038048; stroke-width: 1.0;"/><text fill="#000000" font-family="sans-serif" font-size="11" lengthAdjust="spacingAndGlyphs" textLength="92" x="52" y="739.6143">changeTurn(): void</text><ellipse cx="43" cy="749.0313" fill="#84BE84" rx="3" ry="3" style="stroke: #038048; stroke-width: 1.0;"/><text fill="#000000" font-family="sans-serif" font-size="11" lengthAdjust="spacingAndGlyphs" textLength="131" x="52" y="753.4502">getTokenChar(int, int): char</text><ellipse cx="43" cy="762.8672" fill="#84BE84" rx="3" ry="3" style="stroke: #038048; stroke-width: 1.0;"/><text fill="#000000" font-family="sans-serif" font-size="11" lengthAdjust="spacingAndGlyphs" textLength="146" x="52" y="767.2861">isEmptyToken(int, int): boolean</text><ellipse cx="43" cy="776.7031" fill="#84BE84" rx="3" ry="3" style="stroke: #038048; stroke-width: 1.0;"/><text fill="#000000" font-family="sans-serif" font-size="11" lengthAdjust="spacingAndGlyphs" textLength="141" x="52" y="781.1221">getCoordinateDimension(): int</text><ellipse cx="43" cy="790.5391" fill="#84BE84" rx="3" ry="3" style="stroke: #038048; stroke-width: 1.0;"/><text fill="#000000" font-family="sans-serif" font-size="11" lengthAdjust="spacingAndGlyphs" textLength="110" x="52" y="794.958">isTicTacToe(): boolean</text><ellipse cx="43" cy="804.375" fill="#84BE84" rx="3" ry="3" style="stroke: #038048; stroke-width: 1.0;"/><text fill="#000000" font-family="sans-serif" font-size="11" lengthAdjust="spacingAndGlyphs" textLength="150" x="52" y="808.7939">accept(ControllersVisitor): void</text><!--MD5=[3b8962fd5847b9038b2e29740dae8054]
class tictactoe.controllers.Logic--><rect fill="#FEFECE" filter="url(#f1xu6eaitvzphk)" height="117.1797" id="tictactoe.controllers.Logic" style="stroke: #A80036; stroke-width: 1.5;" width="220" x="532" y="42"/><ellipse cx="622.75" cy="58" fill="#ADD1B2" rx="11" ry="11" style="stroke: #A80036; stroke-width: 1.0;"/><path d="M625.5156,53.875 Q625.6719,53.6563 625.8594,53.5469 Q626.0469,53.4375 626.2656,53.4375 Q626.6406,53.4375 626.875,53.7031 Q627.1094,53.9531 627.1094,54.5625 L627.1094,56.0156 Q627.1094,56.625 626.875,56.8906 Q626.6406,57.1563 626.2656,57.1563 Q625.9219,57.1563 625.7188,56.9531 Q625.5156,56.7656 625.4063,56.25 Q625.3594,55.8906 625.1719,55.7031 Q624.8438,55.3281 624.2344,55.1094 Q623.625,54.8906 623,54.8906 Q622.2344,54.8906 621.5938,55.2188 Q620.9688,55.5469 620.4688,56.2969 Q619.9844,57.0469 619.9844,58.0781 L619.9844,59.1719 Q619.9844,60.4063 620.875,61.2344 Q621.7656,62.0469 623.3594,62.0469 Q624.2969,62.0469 624.9531,61.7969 Q625.3438,61.6406 625.7656,61.2031 Q626.0313,60.9375 626.1719,60.8594 Q626.3281,60.7813 626.5313,60.7813 Q626.8594,60.7813 627.1094,61.0469 Q627.375,61.2969 627.375,61.6406 Q627.375,61.9844 627.0313,62.3906 Q626.5313,62.9688 625.7344,63.2969 Q624.6563,63.75 623.3594,63.75 Q621.8438,63.75 620.6406,63.125 Q619.6563,62.625 618.9688,61.5625 Q618.2813,60.4844 618.2813,59.2031 L618.2813,58.0469 Q618.2813,56.7188 618.8906,55.5781 Q619.5156,54.4219 620.6094,53.8125 Q621.7031,53.1875 622.9375,53.1875 Q623.6719,53.1875 624.3125,53.3594 Q624.9688,53.5156 625.5156,53.875 Z "/><text fill="#000000" font-family="sans-serif" font-size="12" lengthAdjust="spacingAndGlyphs" textLength="30" x="643.25" y="62.9102">Logic</text><line style="stroke: #A80036; stroke-width: 1.5;" x1="533" x2="751" y1="74" y2="74"/><rect fill="none" height="6" style="stroke: #C82930; stroke-width: 1.0;" width="6" x="540" y="82"/><text fill="#000000" font-family="sans-serif" font-size="11" lengthAdjust="spacingAndGlyphs" textLength="55" x="552" y="89.4189">state: State</text><rect fill="none" height="6" style="stroke: #C82930; stroke-width: 1.0;" width="6" x="540" y="95.8359"/><text fill="#000000" font-family="sans-serif" font-size="11" lengthAdjust="spacingAndGlyphs" textLength="60" x="552" y="103.2549">game: Game</text><rect fill="none" height="6" style="stroke: #C82930; stroke-width: 1.0;" width="6" x="540" y="109.6719"/><text fill="#000000" font-family="sans-serif" font-size="11" lengthAdjust="spacingAndGlyphs" textLength="194" x="552" y="117.0908">controllers: Map&lt;StateValue, Controller&gt;</text><line style="stroke: #A80036; stroke-width: 1.5;" x1="533" x2="751" y1="123.5078" y2="123.5078"/><ellipse cx="543" cy="134.5078" fill="#84BE84" rx="3" ry="3" style="stroke: #038048; stroke-width: 1.0;"/><text fill="#000000" font-family="sans-serif" font-size="11" lengthAdjust="spacingAndGlyphs" textLength="34" x="552" y="138.9268">Logic()</text><ellipse cx="543" cy="148.3438" fill="#84BE84" rx="3" ry="3" style="stroke: #038048; stroke-width: 1.0;"/><text fill="#000000" font-family="sans-serif" font-size="11" lengthAdjust="spacingAndGlyphs" textLength="121" x="552" y="152.7627">getController(): Controller</text><!--MD5=[8d3188f3c370ea7d5d91d12bca83b67a]
class tictactoe.models.Game--><rect fill="#FEFECE" filter="url(#f1xu6eaitvzphk)" height="48" id="tictactoe.models.Game" style="stroke: #A80036; stroke-width: 1.5;" width="66" x="809" y="891"/><ellipse cx="824" cy="907" fill="#ADD1B2" rx="11" ry="11" style="stroke: #A80036; stroke-width: 1.0;"/><path d="M826.7656,902.875 Q826.9219,902.6563 827.1094,902.5469 Q827.2969,902.4375 827.5156,902.4375 Q827.8906,902.4375 828.125,902.7031 Q828.3594,902.9531 828.3594,903.5625 L828.3594,905.0156 Q828.3594,905.625 828.125,905.8906 Q827.8906,906.1563 827.5156,906.1563 Q827.1719,906.1563 826.9688,905.9531 Q826.7656,905.7656 826.6563,905.25 Q826.6094,904.8906 826.4219,904.7031 Q826.0938,904.3281 825.4844,904.1094 Q824.875,903.8906 824.25,903.8906 Q823.4844,903.8906 822.8438,904.2188 Q822.2188,904.5469 821.7188,905.2969 Q821.2344,906.0469 821.2344,907.0781 L821.2344,908.1719 Q821.2344,909.4063 822.125,910.2344 Q823.0156,911.0469 824.6094,911.0469 Q825.5469,911.0469 826.2031,910.7969 Q826.5938,910.6406 827.0156,910.2031 Q827.2813,909.9375 827.4219,909.8594 Q827.5781,909.7813 827.7813,909.7813 Q828.1094,909.7813 828.3594,910.0469 Q828.625,910.2969 828.625,910.6406 Q828.625,910.9844 828.2813,911.3906 Q827.7813,911.9688 826.9844,912.2969 Q825.9063,912.75 824.6094,912.75 Q823.0938,912.75 821.8906,912.125 Q820.9063,911.625 820.2188,910.5625 Q819.5313,909.4844 819.5313,908.2031 L819.5313,907.0469 Q819.5313,905.7188 820.1406,904.5781 Q820.7656,903.4219 821.8594,902.8125 Q822.9531,902.1875 824.1875,902.1875 Q824.9219,902.1875 825.5625,902.3594 Q826.2188,902.5156 826.7656,902.875 Z "/><text fill="#000000" font-family="sans-serif" font-size="12" lengthAdjust="spacingAndGlyphs" textLength="34" x="838" y="911.9102">Game</text><line style="stroke: #A80036; stroke-width: 1.5;" x1="810" x2="874" y1="923" y2="923"/><line style="stroke: #A80036; stroke-width: 1.5;" x1="810" x2="874" y1="931" y2="931"/><!--MD5=[895b6132a90c2908aef15a128e2ee1f5]
class tictactoe.models.State--><rect fill="#FEFECE" filter="url(#f1xu6eaitvzphk)" height="48" id="tictactoe.models.State" style="stroke: #A80036; stroke-width: 1.5;" width="60" x="910" y="891"/><ellipse cx="925" cy="907" fill="#ADD1B2" rx="11" ry="11" style="stroke: #A80036; stroke-width: 1.0;"/><path d="M927.7656,902.875 Q927.9219,902.6563 928.1094,902.5469 Q928.2969,902.4375 928.5156,902.4375 Q928.8906,902.4375 929.125,902.7031 Q929.3594,902.9531 929.3594,903.5625 L929.3594,905.0156 Q929.3594,905.625 929.125,905.8906 Q928.8906,906.1563 928.5156,906.1563 Q928.1719,906.1563 927.9688,905.9531 Q927.7656,905.7656 927.6563,905.25 Q927.6094,904.8906 927.4219,904.7031 Q927.0938,904.3281 926.4844,904.1094 Q925.875,903.8906 925.25,903.8906 Q924.4844,903.8906 923.8438,904.2188 Q923.2188,904.5469 922.7188,905.2969 Q922.2344,906.0469 922.2344,907.0781 L922.2344,908.1719 Q922.2344,909.4063 923.125,910.2344 Q924.0156,911.0469 925.6094,911.0469 Q926.5469,911.0469 927.2031,910.7969 Q927.5938,910.6406 928.0156,910.2031 Q928.2813,909.9375 928.4219,909.8594 Q928.5781,909.7813 928.7813,909.7813 Q929.1094,909.7813 929.3594,910.0469 Q929.625,910.2969 929.625,910.6406 Q929.625,910.9844 929.2813,911.3906 Q928.7813,911.9688 927.9844,912.2969 Q926.9063,912.75 925.6094,912.75 Q924.0938,912.75 922.8906,912.125 Q921.9063,911.625 921.2188,910.5625 Q920.5313,909.4844 920.5313,908.2031 L920.5313,907.0469 Q920.5313,905.7188 921.1406,904.5781 Q921.7656,903.4219 922.8594,902.8125 Q923.9531,902.1875 925.1875,902.1875 Q925.9219,902.1875 926.5625,902.3594 Q927.2188,902.5156 927.7656,902.875 Z "/><text fill="#000000" font-family="sans-serif" font-size="12" lengthAdjust="spacingAndGlyphs" textLength="28" x="939" y="911.9102">State</text><line style="stroke: #A80036; stroke-width: 1.5;" x1="911" x2="969" y1="923" y2="923"/><line style="stroke: #A80036; stroke-width: 1.5;" x1="911" x2="969" y1="931" y2="931"/><!--MD5=[c8f7ee38df84fc6c47e5792f2767cf35]
class tictactoe.models.StateValue--><rect fill="#FEFECE" filter="url(#f1xu6eaitvzphk)" height="48" id="tictactoe.models.StateValue" style="stroke: #A80036; stroke-width: 1.5;" width="91" x="1005.5" y="891"/><ellipse cx="1020.5" cy="907" fill="#ADD1B2" rx="11" ry="11" style="stroke: #A80036; stroke-width: 1.0;"/><path d="M1023.2656,902.875 Q1023.4219,902.6563 1023.6094,902.5469 Q1023.7969,902.4375 1024.0156,902.4375 Q1024.3906,902.4375 1024.625,902.7031 Q1024.8594,902.9531 1024.8594,903.5625 L1024.8594,905.0156 Q1024.8594,905.625 1024.625,905.8906 Q1024.3906,906.1563 1024.0156,906.1563 Q1023.6719,906.1563 1023.4688,905.9531 Q1023.2656,905.7656 1023.1563,905.25 Q1023.1094,904.8906 1022.9219,904.7031 Q1022.5938,904.3281 1021.9844,904.1094 Q1021.375,903.8906 1020.75,903.8906 Q1019.9844,903.8906 1019.3438,904.2188 Q1018.7188,904.5469 1018.2188,905.2969 Q1017.7344,906.0469 1017.7344,907.0781 L1017.7344,908.1719 Q1017.7344,909.4063 1018.625,910.2344 Q1019.5156,911.0469 1021.1094,911.0469 Q1022.0469,911.0469 1022.7031,910.7969 Q1023.0938,910.6406 1023.5156,910.2031 Q1023.7813,909.9375 1023.9219,909.8594 Q1024.0781,909.7813 1024.2813,909.7813 Q1024.6094,909.7813 1024.8594,910.0469 Q1025.125,910.2969 1025.125,910.6406 Q1025.125,910.9844 1024.7813,911.3906 Q1024.2813,911.9688 1023.4844,912.2969 Q1022.4063,912.75 1021.1094,912.75 Q1019.5938,912.75 1018.3906,912.125 Q1017.4063,911.625 1016.7188,910.5625 Q1016.0313,909.4844 1016.0313,908.2031 L1016.0313,907.0469 Q1016.0313,905.7188 1016.6406,904.5781 Q1017.2656,903.4219 1018.3594,902.8125 Q1019.4531,902.1875 1020.6875,902.1875 Q1021.4219,902.1875 1022.0625,902.3594 Q1022.7188,902.5156 1023.2656,902.875 Z "/><text fill="#000000" font-family="sans-serif" font-size="12" lengthAdjust="spacingAndGlyphs" textLength="59" x="1034.5" y="911.9102">StateValue</text><line style="stroke: #A80036; stroke-width: 1.5;" x1="1006.5" x2="1095.5" y1="923" y2="923"/><line style="stroke: #A80036; stroke-width: 1.5;" x1="1006.5" x2="1095.5" y1="931" y2="931"/><!--MD5=[55d70ecb9e3ba4786ec1f15d0b7dce13]
class tictactoe.models.Coordinate--><rect fill="#FEFECE" filter="url(#f1xu6eaitvzphk)" height="48" id="tictactoe.models.Coordinate" style="stroke: #A80036; stroke-width: 1.5;" width="93" x="680.5" y="891"/><ellipse cx="695.5" cy="907" fill="#ADD1B2" rx="11" ry="11" style="stroke: #A80036; stroke-width: 1.0;"/><path d="M698.2656,902.875 Q698.4219,902.6563 698.6094,902.5469 Q698.7969,902.4375 699.0156,902.4375 Q699.3906,902.4375 699.625,902.7031 Q699.8594,902.9531 699.8594,903.5625 L699.8594,905.0156 Q699.8594,905.625 699.625,905.8906 Q699.3906,906.1563 699.0156,906.1563 Q698.6719,906.1563 698.4688,905.9531 Q698.2656,905.7656 698.1563,905.25 Q698.1094,904.8906 697.9219,904.7031 Q697.5938,904.3281 696.9844,904.1094 Q696.375,903.8906 695.75,903.8906 Q694.9844,903.8906 694.3438,904.2188 Q693.7188,904.5469 693.2188,905.2969 Q692.7344,906.0469 692.7344,907.0781 L692.7344,908.1719 Q692.7344,909.4063 693.625,910.2344 Q694.5156,911.0469 696.1094,911.0469 Q697.0469,911.0469 697.7031,910.7969 Q698.0938,910.6406 698.5156,910.2031 Q698.7813,909.9375 698.9219,909.8594 Q699.0781,909.7813 699.2813,909.7813 Q699.6094,909.7813 699.8594,910.0469 Q700.125,910.2969 700.125,910.6406 Q700.125,910.9844 699.7813,911.3906 Q699.2813,911.9688 698.4844,912.2969 Q697.4063,912.75 696.1094,912.75 Q694.5938,912.75 693.3906,912.125 Q692.4063,911.625 691.7188,910.5625 Q691.0313,909.4844 691.0313,908.2031 L691.0313,907.0469 Q691.0313,905.7188 691.6406,904.5781 Q692.2656,903.4219 693.3594,902.8125 Q694.4531,902.1875 695.6875,902.1875 Q696.4219,902.1875 697.0625,902.3594 Q697.7188,902.5156 698.2656,902.875 Z "/><text fill="#000000" font-family="sans-serif" font-size="12" lengthAdjust="spacingAndGlyphs" textLength="61" x="709.5" y="911.9102">Coordinate</text><line style="stroke: #A80036; stroke-width: 1.5;" x1="681.5" x2="772.5" y1="923" y2="923"/><line style="stroke: #A80036; stroke-width: 1.5;" x1="681.5" x2="772.5" y1="931" y2="931"/><!--MD5=[23fa68f5dd51b02db50930b64c1246c4]
class mastermind.controllers.Logic--><rect fill="#FEFECE" filter="url(#f1xu6eaitvzphk)" height="48" id="mastermind.controllers.Logic" style="stroke: #A80036; stroke-width: 1.5;" width="62" x="1139" y="76.5"/><ellipse cx="1154" cy="92.5" fill="#ADD1B2" rx="11" ry="11" style="stroke: #A80036; stroke-width: 1.0;"/><path d="M1156.7656,88.375 Q1156.9219,88.1563 1157.1094,88.0469 Q1157.2969,87.9375 1157.5156,87.9375 Q1157.8906,87.9375 1158.125,88.2031 Q1158.3594,88.4531 1158.3594,89.0625 L1158.3594,90.5156 Q1158.3594,91.125 1158.125,91.3906 Q1157.8906,91.6563 1157.5156,91.6563 Q1157.1719,91.6563 1156.9688,91.4531 Q1156.7656,91.2656 1156.6563,90.75 Q1156.6094,90.3906 1156.4219,90.2031 Q1156.0938,89.8281 1155.4844,89.6094 Q1154.875,89.3906 1154.25,89.3906 Q1153.4844,89.3906 1152.8438,89.7188 Q1152.2188,90.0469 1151.7188,90.7969 Q1151.2344,91.5469 1151.2344,92.5781 L1151.2344,93.6719 Q1151.2344,94.9063 1152.125,95.7344 Q1153.0156,96.5469 1154.6094,96.5469 Q1155.5469,96.5469 1156.2031,96.2969 Q1156.5938,96.1406 1157.0156,95.7031 Q1157.2813,95.4375 1157.4219,95.3594 Q1157.5781,95.2813 1157.7813,95.2813 Q1158.1094,95.2813 1158.3594,95.5469 Q1158.625,95.7969 1158.625,96.1406 Q1158.625,96.4844 1158.2813,96.8906 Q1157.7813,97.4688 1156.9844,97.7969 Q1155.9063,98.25 1154.6094,98.25 Q1153.0938,98.25 1151.8906,97.625 Q1150.9063,97.125 1150.2188,96.0625 Q1149.5313,94.9844 1149.5313,93.7031 L1149.5313,92.5469 Q1149.5313,91.2188 1150.1406,90.0781 Q1150.7656,88.9219 1151.8594,88.3125 Q1152.9531,87.6875 1154.1875,87.6875 Q1154.9219,87.6875 1155.5625,87.8594 Q1156.2188,88.0156 1156.7656,88.375 Z "/><text fill="#000000" font-family="sans-serif" font-size="12" lengthAdjust="spacingAndGlyphs" textLength="30" x="1168" y="97.4102">Logic</text><line style="stroke: #A80036; stroke-width: 1.5;" x1="1140" x2="1200" y1="108.5" y2="108.5"/><line style="stroke: #A80036; stroke-width: 1.5;" x1="1140" x2="1200" y1="116.5" y2="116.5"/><!--MD5=[a8a83881b90490f923aa71f2c5ea5dc6]
class java.util.Map--><rect fill="#FEFECE" filter="url(#f1xu6eaitvzphk)" height="48" id="java.util.Map" style="stroke: #A80036; stroke-width: 1.5;" width="55" x="1142.5" y="246.5"/><ellipse cx="1157.5" cy="262.5" fill="#ADD1B2" rx="11" ry="11" style="stroke: #A80036; stroke-width: 1.0;"/><path d="M1160.2656,258.375 Q1160.4219,258.1563 1160.6094,258.0469 Q1160.7969,257.9375 1161.0156,257.9375 Q1161.3906,257.9375 1161.625,258.2031 Q1161.8594,258.4531 1161.8594,259.0625 L1161.8594,260.5156 Q1161.8594,261.125 1161.625,261.3906 Q1161.3906,261.6563 1161.0156,261.6563 Q1160.6719,261.6563 1160.4688,261.4531 Q1160.2656,261.2656 1160.1563,260.75 Q1160.1094,260.3906 1159.9219,260.2031 Q1159.5938,259.8281 1158.9844,259.6094 Q1158.375,259.3906 1157.75,259.3906 Q1156.9844,259.3906 1156.3438,259.7188 Q1155.7188,260.0469 1155.2188,260.7969 Q1154.7344,261.5469 1154.7344,262.5781 L1154.7344,263.6719 Q1154.7344,264.9063 1155.625,265.7344 Q1156.5156,266.5469 1158.1094,266.5469 Q1159.0469,266.5469 1159.7031,266.2969 Q1160.0938,266.1406 1160.5156,265.7031 Q1160.7813,265.4375 1160.9219,265.3594 Q1161.0781,265.2813 1161.2813,265.2813 Q1161.6094,265.2813 1161.8594,265.5469 Q1162.125,265.7969 1162.125,266.1406 Q1162.125,266.4844 1161.7813,266.8906 Q1161.2813,267.4688 1160.4844,267.7969 Q1159.4063,268.25 1158.1094,268.25 Q1156.5938,268.25 1155.3906,267.625 Q1154.4063,267.125 1153.7188,266.0625 Q1153.0313,264.9844 1153.0313,263.7031 L1153.0313,262.5469 Q1153.0313,261.2188 1153.6406,260.0781 Q1154.2656,258.9219 1155.3594,258.3125 Q1156.4531,257.6875 1157.6875,257.6875 Q1158.4219,257.6875 1159.0625,257.8594 Q1159.7188,258.0156 1160.2656,258.375 Z "/><text fill="#000000" font-family="sans-serif" font-size="12" lengthAdjust="spacingAndGlyphs" textLength="23" x="1171.5" y="267.4102">Map</text><line style="stroke: #A80036; stroke-width: 1.5;" x1="1143.5" x2="1196.5" y1="278.5" y2="278.5"/><line style="stroke: #A80036; stroke-width: 1.5;" x1="1143.5" x2="1196.5" y1="286.5" y2="286.5"/><!--MD5=[67f54059f517de4e17e4f415259fadfa]
link tictactoe.controllers.Controller to tictactoe.models.Game--><path d="M671.732,322.18 C700.598,373.47 743.663,455.854 769,532 C811.61,660.056 832.184,821.02 839.157,885.4382 " fill="none" id="tictactoe.controllers.Controller-&gt;tictactoe.models.Game" style="stroke: #A80036; stroke-width: 1.0;"/><polygon fill="#A80036" points="839.713,890.6392,842.7335,881.2649,839.1814,885.6675,834.7788,882.1155,839.713,890.6392" style="stroke: #A80036; stroke-width: 1.0;"/><!--MD5=[958c68ec9081d3cd0ffa7948938073c3]
link tictactoe.controllers.Controller to tictactoe.models.State--><path d="M698.459,322.2 C716.516,340.048 735.756,360.933 751,382 C872.149,549.418 921.942,801.917 935.74,885.7997 " fill="none" id="tictactoe.controllers.Controller-&gt;tictactoe.models.State" style="stroke: #A80036; stroke-width: 1.0;"/><polygon fill="#A80036" points="936.56,890.8444,939.0647,881.3194,935.7581,885.9091,931.1683,882.6025,936.56,890.8444" style="stroke: #A80036; stroke-width: 1.0;"/><!--MD5=[4127cc8c86163a8135ac1ffbe5841b27]
link tictactoe.controllers.Controller to tictactoe.controllers.ControllersVisitor--><path d="M614.823,322.089 C605.278,339.857 594.581,359.769 585.124,377.372 " fill="none" id="tictactoe.controllers.Controller-&gt;tictactoe.controllers.ControllersVisitor" style="stroke: #A80036; stroke-width: 1.0; stroke-dasharray: 7.0,7.0;"/><polygon fill="#A80036" points="582.748,381.794,590.5306,375.7582,585.114,377.3892,583.4829,371.9726,582.748,381.794" style="stroke: #A80036; stroke-width: 1.0;"/><!--MD5=[113dea69a3460f5570c3c0b3d2d08b7b]
link tictactoe.controllers.ControllersVisitor to tictactoe.controllers.ResultController--><path d="M539.804,472.277 C522.19,512.906 496.026,573.256 477.03,617.073 " fill="none" id="tictactoe.controllers.ControllersVisitor-&gt;tictactoe.controllers.ResultController" style="stroke: #A80036; stroke-width: 1.0; stroke-dasharray: 7.0,7.0;"/><polygon fill="#A80036" points="474.982,621.795,482.2317,615.1285,476.9707,617.2075,474.8917,611.9466,474.982,621.795" style="stroke: #A80036; stroke-width: 1.0;"/><!--MD5=[c4479c2b753b757fcf886b22c7a436e9]
link tictactoe.controllers.ControllersVisitor to tictactoe.controllers.StartController--><path d="M578.015,472.277 C595.463,512.906 621.38,573.256 640.197,617.073 " fill="none" id="tictactoe.controllers.ControllersVisitor-&gt;tictactoe.controllers.StartController" style="stroke: #A80036; stroke-width: 1.0; stroke-dasharray: 7.0,7.0;"/><polygon fill="#A80036" points="642.225,621.795,642.3493,611.9469,640.2521,617.2007,634.9984,615.1035,642.225,621.795" style="stroke: #A80036; stroke-width: 1.0;"/><!--MD5=[ccfc00cc7008c98e03882e77f79ceb2e]
link tictactoe.controllers.ControllersVisitor to tictactoe.controllers.PlayController--><path d="M481.465,460.469 C440.2,479.108 389.371,504.286 347,532 C342.853,534.713 338.695,537.516 334.537,540.395 " fill="none" id="tictactoe.controllers.ControllersVisitor-&gt;tictactoe.controllers.PlayController" style="stroke: #A80036; stroke-width: 1.0; stroke-dasharray: 7.0,7.0;"/><polygon fill="#A80036" points="330.381,543.297,340.0498,541.4225,334.48,540.4338,335.4687,534.864,330.381,543.297" style="stroke: #A80036; stroke-width: 1.0;"/><!--MD5=[bf6ea4e22b99b81dd48bbf2eb1cf70e8]
link tictactoe.controllers.Logic to tictactoe.models.Game--><path d="M723.1444,167.9198 C723.1444,167.9198 742.162,190.689 749,202.5 C880.994,430.501 858.375,767.352 846.516,877.6166 " fill="none" id="tictactoe.controllers.Logic-tictactoe.models.Game" style="stroke: #A80036; stroke-width: 1.0;"/><polygon fill="#A80036" points="845.033,890.782,850.0156,882.2865,845.5929,885.8134,842.0659,881.3907,845.033,890.782" style="stroke: #A80036; stroke-width: 1.0;"/><line style="stroke: #A80036; stroke-width: 1.0;" x1="845.5929" x2="846.4885" y1="885.8134" y2="877.8638"/><polygon fill="#A80036" points="714.912,159.189,716.1179,166.2986,723.1444,167.9198,721.9385,160.8103,714.912,159.189" style="stroke: #A80036; stroke-width: 1.0;"/><!--MD5=[758f687dc2a943dbf7811856af1b401c]
link tictactoe.controllers.Logic to tictactoe.models.State--><path d="M761.9792,163.218 C761.9792,163.218 791.159,188.163 802,202.5 C963.199,415.691 951.9,764.946 943.379,877.69 " fill="none" id="tictactoe.controllers.Logic-tictactoe.models.State" style="stroke: #A80036; stroke-width: 1.0;"/><polygon fill="#A80036" points="942.315,890.8292,947.0287,882.1816,942.7187,885.8455,939.0548,881.5356,942.315,890.8292" style="stroke: #A80036; stroke-width: 1.0;"/><line style="stroke: #A80036; stroke-width: 1.0;" x1="942.7187" x2="943.365" y1="885.8455" y2="877.8716"/><polygon fill="#A80036" points="752.333,156.08,754.7767,162.8644,761.9792,163.218,759.5354,156.4336,752.333,156.08" style="stroke: #A80036; stroke-width: 1.0;"/><!--MD5=[12d6b2ee7a1b6faf9fe809f483963ab7]
link tictactoe.controllers.Logic to tictactoe.controllers.Controller--><path d="M642,159.316 C642,176.863 642,196.105 642,213.529 " fill="none" id="tictactoe.controllers.Logic-&gt;tictactoe.controllers.Controller" style="stroke: #A80036; stroke-width: 1.0;"/><polygon fill="#A80036" points="642,218.874,646,209.874,642,213.874,638,209.874,642,218.874" style="stroke: #A80036; stroke-width: 1.0;"/><!--MD5=[096abf58a0a258fd61b5f735b2bb7393]
link tictactoe.controllers.Logic to tictactoe.models.StateValue--><path d="M763.3104,138.0586 C763.3104,138.0586 834.682,174.68 861,202.5 C1048.46,400.655 1055.43,762.704 1052.55,877.837 " fill="none" id="tictactoe.controllers.Logic-tictactoe.models.StateValue" style="stroke: #A80036; stroke-width: 1.0;"/><polygon fill="#A80036" points="1052.15,890.9247,1056.4227,882.0509,1052.3025,885.927,1048.4264,881.8069,1052.15,890.9247" style="stroke: #A80036; stroke-width: 1.0;"/><line style="stroke: #A80036; stroke-width: 1.0;" x1="1052.3025" x2="1052.54" y1="885.927" y2="877.9308"/><polygon fill="#A80036" points="752.26,133.38,756.2256,139.4028,763.3104,138.0586,759.3447,132.0358,752.26,133.38" style="stroke: #A80036; stroke-width: 1.0;"/><!--MD5=[fc24b75630ff8e398ba55db0f8ccdfce]
link mastermind.controllers.Logic to java.util.Map--><path d="M1170,136.507 C1170,136.507 1170,204.661 1170,232.922 " fill="none" id="mastermind.controllers.Logic-java.util.Map" style="stroke: #A80036; stroke-width: 1.0;"/><polygon fill="#A80036" points="1170,246.231,1174,237.231,1170,241.231,1166,237.231,1170,246.231" style="stroke: #A80036; stroke-width: 1.0;"/><line style="stroke: #A80036; stroke-width: 1.0;" x1="1170" x2="1170" y1="241.231" y2="233.231"/><polygon fill="#A80036" points="1170,124.507,1166,130.507,1170,136.507,1174,130.507,1170,124.507" style="stroke: #A80036; stroke-width: 1.0;"/><!--MD5=[5700b97431232c099330215bddfcc855]
reverse link tictactoe.controllers.Controller to tictactoe.controllers.PlayController--><path d="M533.725,317.187 C498.232,334.759 459.781,356.749 428,382 C374.225,424.726 323.468,480.534 282.116,531.803 " fill="none" id="tictactoe.controllers.Controller&lt;-tictactoe.controllers.PlayController" style="stroke: #A80036; stroke-width: 1.0;"/><polygon fill="none" points="530.907,310.775,551.964,308.408,536.979,323.389,530.907,310.775" style="stroke: #A80036; stroke-width: 1.0;"/><!--MD5=[70aedda6b24476e26c690784403df0dd]
link tictactoe.controllers.PlayController to tictactoe.models.Coordinate--><path d="M309.74,815.174 C321.716,824.093 334.187,832.201 347,839 C454.024,895.7919 598.632,909.7935 674.905,913.1055 " fill="none" id="tictactoe.controllers.PlayController-&gt;tictactoe.models.Coordinate" style="stroke: #A80036; stroke-width: 1.0; stroke-dasharray: 7.0,7.0;"/><polygon fill="#A80036" points="680.277,913.326,671.4479,908.9616,675.2812,913.1217,671.1211,916.9549,680.277,913.326" style="stroke: #A80036; stroke-width: 1.0;"/><!--MD5=[8f435ed2c59169c4603cda7b7477fe61]
reverse link tictactoe.controllers.Controller to tictactoe.controllers.ResultController--><path d="M533.983,315.712 C506.504,332.325 480.196,354.137 464,382 C420.755,456.396 430.234,560.553 441.39,621.829 " fill="none" id="tictactoe.controllers.Controller&lt;-tictactoe.controllers.ResultController" style="stroke: #A80036; stroke-width: 1.0;"/><polygon fill="none" points="530.774,309.486,551.638,305.784,537.636,321.689,530.774,309.486" style="stroke: #A80036; stroke-width: 1.0;"/><!--MD5=[5deb1e5c7bf9906a35de112138d88f9c]
reverse link tictactoe.controllers.Controller to tictactoe.controllers.StartController--><path d="M650.462,342.205 C651.821,355.415 653.08,369.116 654,382 C659.994,465.935 662.422,563.778 663.387,621.799 " fill="none" id="tictactoe.controllers.Controller&lt;-tictactoe.controllers.StartController" style="stroke: #A80036; stroke-width: 1.0;"/><polygon fill="none" points="643.472,342.675,648.281,322.039,657.391,341.17,643.472,342.675" style="stroke: #A80036; stroke-width: 1.0;"/><!--MD5=[8375c5fc1324d0c7dc67991225758085]
@startuml

class  tictactoe.controllers.Controller{
# game: Game
# state: State
~ Controller(Game, State)
+ {abstract} accept(ControllersVisitor): void
}
tictactoe.controllers.Controller -down-> tictactoe.models.Game
tictactoe.controllers.Controller -down-> tictactoe.models.State
tictactoe.controllers.Controller ..> tictactoe.controllers.ControllersVisitor

class  tictactoe.controllers.ControllersVisitor{
~ visit(StartController): void
~ visit(PlayController): void
~ visit(ResultController): void
}
tictactoe.controllers.ControllersVisitor ..> tictactoe.controllers.ResultController
tictactoe.controllers.ControllersVisitor ..> tictactoe.controllers.StartController
tictactoe.controllers.ControllersVisitor ..> tictactoe.controllers.PlayController

class  tictactoe.controllers.Logic{
- state: State
- game: Game
- controllers: Map<StateValue, Controller>
+ Logic()
+ getController(): Controller
}
tictactoe.controllers.Logic *-down-> tictactoe.models.Game
tictactoe.controllers.Logic *-down-> tictactoe.models.State
tictactoe.controllers.Logic - -> tictactoe.controllers.Controller
tictactoe.controllers.Logic *-down-> tictactoe.models.StateValue
mastermind.controllers.Logic *-down-> java.util.Map

class  tictactoe.controllers.PlayController{
+ PlayController(Game, State)
+ getTokenPlayerFromTurn(): Player
+ getTypeOfTokenPlayerFromTurn(): PlayerType
+ controlErrorsPutCoordinate(int, int): Error
+ controlErrorsMoveOriginCoordinate(int, int): Error
+ controlErrorsMoveTargetCoordinate(int, int, int, int): Error
+ isCoordinateValid(int, int): boolean
+ generateRandomCoordinate(): int[]
+ isBoardComplete(): boolean
+ putTokenPlayerFromTurn(int, int): void
+ moveTokenPlayerFromTurn(int, int, int, int): void
+ changeTurn(): void
+ getTokenChar(int, int): char
+ isEmptyToken(int, int): boolean
+ getCoordinateDimension(): int
+ isTicTacToe(): boolean
+ accept(ControllersVisitor): void
}
tictactoe.controllers.Controller <|-down- tictactoe.controllers.PlayController
tictactoe.controllers.PlayController ..> tictactoe.models.Coordinate

class  tictactoe.controllers.ResultController{
+ ResultController(Game, State)
+ finish(): void
+ getOtherValueFromTurn(): int
+ accept(ControllersVisitor): void
}
tictactoe.controllers.Controller <|-down- tictactoe.controllers.ResultController

class  tictactoe.controllers.StartController{
+ StartController(Game, State)
+ start(): void
+ createPlayers(int): void
+ accept(ControllersVisitor): void
}
tictactoe.controllers.Controller <|-down- tictactoe.controllers.StartController

@enduml

PlantUML version 1.2020.15(Sun Jun 28 13:39:45 CEST 2020)
(GPL source distribution)
Java Runtime: Java(TM) SE Runtime Environment
JVM: Java HotSpot(TM) 64-Bit Server VM
Default Encoding: windows-1252
Language: es
Country: ES
--></g></svg>