<?xml version="1.0" encoding="UTF-8" standalone="no"?><svg xmlns="http://www.w3.org/2000/svg" xmlns:xlink="http://www.w3.org/1999/xlink" contentScriptType="application/ecmascript" contentStyleType="text/css" height="1171px" preserveAspectRatio="none" style="width:1514px;height:1171px;" version="1.1" viewBox="0 0 1514 1171" width="1514px" zoomAndPan="magnify"><defs><filter height="300%" id="f277cz8n5lzh" width="300%" x="-1" y="-1"><feGaussianBlur result="blurOut" stdDeviation="2.0"/><feColorMatrix in="blurOut" result="blurOut2" type="matrix" values="0 0 0 0 0 0 0 0 0 0 0 0 0 0 0 0 0 0 .4 0"/><feOffset dx="4.0" dy="4.0" in="blurOut2" result="blurOut3"/><feBlend in="SourceGraphic" in2="blurOut3" mode="normal"/></filter></defs><g><!--MD5=[f4e83a21a957c5b9ba9691e6361db36b]
cluster tictactoe.views--><polygon fill="#FFFFFF" filter="url(#f277cz8n5lzh)" points="323,6,435,6,442,29.6094,1336,29.6094,1336,1159,323,1159,323,6" style="stroke: #000000; stroke-width: 1.5;"/><line style="stroke: #000000; stroke-width: 1.5;" x1="323" x2="442" y1="29.6094" y2="29.6094"/><text fill="#000000" font-family="sans-serif" font-size="14" font-weight="bold" lengthAdjust="spacingAndGlyphs" textLength="106" x="327" y="22.5332">tictactoe.views</text><!--MD5=[c52f45833d539af9e29a9d34b8b7302b]
cluster utils--><polygon fill="#FFFFFF" filter="url(#f277cz8n5lzh)" points="16,218,52,218,59,241.6094,299,241.6094,299,318,16,318,16,218" style="stroke: #000000; stroke-width: 1.5;"/><line style="stroke: #000000; stroke-width: 1.5;" x1="16" x2="59" y1="241.6094" y2="241.6094"/><text fill="#000000" font-family="sans-serif" font-size="14" font-weight="bold" lengthAdjust="spacingAndGlyphs" textLength="30" x="20" y="234.5332">utils</text><!--MD5=[51cd642fcc96b47682a93d9084d46dec]
cluster tictactoe.models--><polygon fill="#FFFFFF" filter="url(#f277cz8n5lzh)" points="1360,395.5,1482,395.5,1489,419.1094,1492,419.1094,1492,495.5,1360,495.5,1360,395.5" style="stroke: #000000; stroke-width: 1.5;"/><line style="stroke: #000000; stroke-width: 1.5;" x1="1360" x2="1489" y1="419.1094" y2="419.1094"/><text fill="#000000" font-family="sans-serif" font-size="14" font-weight="bold" lengthAdjust="spacingAndGlyphs" textLength="116" x="1364" y="412.0332">tictactoe.models</text><!--MD5=[edeafd8e862636cda68e6fb1f68b81b5]
class tictactoe.views.BoardView--><rect fill="#FEFECE" filter="url(#f277cz8n5lzh)" height="117.1797" id="tictactoe.views.BoardView" style="stroke: #A80036; stroke-width: 1.5;" width="201" x="737.5" y="397"/><ellipse cx="804.25" cy="413" fill="#ADD1B2" rx="11" ry="11" style="stroke: #A80036; stroke-width: 1.0;"/><path d="M807.0156,408.875 Q807.1719,408.6563 807.3594,408.5469 Q807.5469,408.4375 807.7656,408.4375 Q808.1406,408.4375 808.375,408.7031 Q808.6094,408.9531 808.6094,409.5625 L808.6094,411.0156 Q808.6094,411.625 808.375,411.8906 Q808.1406,412.1563 807.7656,412.1563 Q807.4219,412.1563 807.2188,411.9531 Q807.0156,411.7656 806.9063,411.25 Q806.8594,410.8906 806.6719,410.7031 Q806.3438,410.3281 805.7344,410.1094 Q805.125,409.8906 804.5,409.8906 Q803.7344,409.8906 803.0938,410.2188 Q802.4688,410.5469 801.9688,411.2969 Q801.4844,412.0469 801.4844,413.0781 L801.4844,414.1719 Q801.4844,415.4063 802.375,416.2344 Q803.2656,417.0469 804.8594,417.0469 Q805.7969,417.0469 806.4531,416.7969 Q806.8438,416.6406 807.2656,416.2031 Q807.5313,415.9375 807.6719,415.8594 Q807.8281,415.7813 808.0313,415.7813 Q808.3594,415.7813 808.6094,416.0469 Q808.875,416.2969 808.875,416.6406 Q808.875,416.9844 808.5313,417.3906 Q808.0313,417.9688 807.2344,418.2969 Q806.1563,418.75 804.8594,418.75 Q803.3438,418.75 802.1406,418.125 Q801.1563,417.625 800.4688,416.5625 Q799.7813,415.4844 799.7813,414.2031 L799.7813,413.0469 Q799.7813,411.7188 800.3906,410.5781 Q801.0156,409.4219 802.1094,408.8125 Q803.2031,408.1875 804.4375,408.1875 Q805.1719,408.1875 805.8125,408.3594 Q806.4688,408.5156 807.0156,408.875 Z "/><text fill="#000000" font-family="sans-serif" font-size="12" lengthAdjust="spacingAndGlyphs" textLength="59" x="824.75" y="417.9102">BoardView</text><line style="stroke: #A80036; stroke-width: 1.5;" x1="738.5" x2="937.5" y1="429" y2="429"/><polygon fill="none" points="748.5,436,744.5,442,752.5,442" style="stroke: #1963A0; stroke-width: 1.0;"/><text fill="#000000" font-family="sans-serif" font-size="11" lengthAdjust="spacingAndGlyphs" textLength="63" x="757.5" y="444.4189">board: Board</text><line style="stroke: #A80036; stroke-width: 1.5;" x1="738.5" x2="937.5" y1="450.8359" y2="450.8359"/><polygon fill="#4177AF" points="748.5,457.8359,744.5,463.8359,752.5,463.8359" style="stroke: #1963A0; stroke-width: 1.0;"/><text fill="#000000" font-family="sans-serif" font-size="11" lengthAdjust="spacingAndGlyphs" textLength="92" x="757.5" y="466.2549">BoardView(Board)</text><polygon fill="#4177AF" points="748.5,471.6719,744.5,477.6719,752.5,477.6719" style="stroke: #1963A0; stroke-width: 1.0;"/><text fill="#000000" font-family="sans-serif" font-size="11" lengthAdjust="spacingAndGlyphs" textLength="59" x="757.5" y="480.0908">write(): void</text><rect fill="#F24D5C" height="6" style="stroke: #C82930; stroke-width: 1.0;" width="6" x="745.5" y="486.5078"/><text fill="#000000" font-family="sans-serif" font-size="11" lengthAdjust="spacingAndGlyphs" textLength="118" x="757.5" y="493.9268">printRowBoard(int): void</text><rect fill="#F24D5C" height="6" style="stroke: #C82930; stroke-width: 1.0;" width="6" x="745.5" y="500.3438"/><text fill="#000000" font-family="sans-serif" font-size="11" lengthAdjust="spacingAndGlyphs" textLength="175" x="757.5" y="507.7627">printSquareValueBoard(int, int): void</text><!--MD5=[5dff601402b9962ae61c7ab4dc9cae89]
class tictactoe.views.CoordinateView--><rect fill="#FEFECE" filter="url(#f277cz8n5lzh)" height="61.8359" id="tictactoe.views.CoordinateView" style="stroke: #A80036; stroke-width: 1.5;" width="142" x="650" y="904"/><ellipse cx="675.35" cy="920" fill="#ADD1B2" rx="11" ry="11" style="stroke: #A80036; stroke-width: 1.0;"/><path d="M678.1156,915.875 Q678.2719,915.6563 678.4594,915.5469 Q678.6469,915.4375 678.8656,915.4375 Q679.2406,915.4375 679.475,915.7031 Q679.7094,915.9531 679.7094,916.5625 L679.7094,918.0156 Q679.7094,918.625 679.475,918.8906 Q679.2406,919.1563 678.8656,919.1563 Q678.5219,919.1563 678.3188,918.9531 Q678.1156,918.7656 678.0063,918.25 Q677.9594,917.8906 677.7719,917.7031 Q677.4438,917.3281 676.8344,917.1094 Q676.225,916.8906 675.6,916.8906 Q674.8344,916.8906 674.1938,917.2188 Q673.5688,917.5469 673.0688,918.2969 Q672.5844,919.0469 672.5844,920.0781 L672.5844,921.1719 Q672.5844,922.4063 673.475,923.2344 Q674.3656,924.0469 675.9594,924.0469 Q676.8969,924.0469 677.5531,923.7969 Q677.9438,923.6406 678.3656,923.2031 Q678.6313,922.9375 678.7719,922.8594 Q678.9281,922.7813 679.1313,922.7813 Q679.4594,922.7813 679.7094,923.0469 Q679.975,923.2969 679.975,923.6406 Q679.975,923.9844 679.6313,924.3906 Q679.1313,924.9688 678.3344,925.2969 Q677.2563,925.75 675.9594,925.75 Q674.4438,925.75 673.2406,925.125 Q672.2563,924.625 671.5688,923.5625 Q670.8813,922.4844 670.8813,921.2031 L670.8813,920.0469 Q670.8813,918.7188 671.4906,917.5781 Q672.1156,916.4219 673.2094,915.8125 Q674.3031,915.1875 675.5375,915.1875 Q676.2719,915.1875 676.9125,915.3594 Q677.5688,915.5156 678.1156,915.875 Z "/><text fill="#000000" font-family="sans-serif" font-size="12" lengthAdjust="spacingAndGlyphs" textLength="87" x="691.65" y="924.9102">CoordinateView</text><line style="stroke: #A80036; stroke-width: 1.5;" x1="651" x2="791" y1="936" y2="936"/><line style="stroke: #A80036; stroke-width: 1.5;" x1="651" x2="791" y1="944" y2="944"/><polygon fill="#4177AF" points="661,951,657,957,665,957" style="stroke: #1963A0; stroke-width: 1.0;"/><text fill="#000000" font-family="sans-serif" font-size="11" lengthAdjust="spacingAndGlyphs" textLength="116" x="670" y="959.4189">read(String): Coordinate</text><!--MD5=[17799e03bfee0ccb3aa03b93da9c26d6]
class tictactoe.views.ErrorView--><rect fill="#FEFECE" filter="url(#f277cz8n5lzh)" height="103.3438" id="tictactoe.views.ErrorView" style="stroke: #A80036; stroke-width: 1.5;" width="142" x="650" y="1040"/><ellipse cx="690.65" cy="1056" fill="#ADD1B2" rx="11" ry="11" style="stroke: #A80036; stroke-width: 1.0;"/><path d="M693.4156,1051.875 Q693.5719,1051.6563 693.7594,1051.5469 Q693.9469,1051.4375 694.1656,1051.4375 Q694.5406,1051.4375 694.775,1051.7031 Q695.0094,1051.9531 695.0094,1052.5625 L695.0094,1054.0156 Q695.0094,1054.625 694.775,1054.8906 Q694.5406,1055.1563 694.1656,1055.1563 Q693.8219,1055.1563 693.6188,1054.9531 Q693.4156,1054.7656 693.3063,1054.25 Q693.2594,1053.8906 693.0719,1053.7031 Q692.7438,1053.3281 692.1344,1053.1094 Q691.525,1052.8906 690.9,1052.8906 Q690.1344,1052.8906 689.4938,1053.2188 Q688.8688,1053.5469 688.3688,1054.2969 Q687.8844,1055.0469 687.8844,1056.0781 L687.8844,1057.1719 Q687.8844,1058.4063 688.775,1059.2344 Q689.6656,1060.0469 691.2594,1060.0469 Q692.1969,1060.0469 692.8531,1059.7969 Q693.2438,1059.6406 693.6656,1059.2031 Q693.9313,1058.9375 694.0719,1058.8594 Q694.2281,1058.7813 694.4313,1058.7813 Q694.7594,1058.7813 695.0094,1059.0469 Q695.275,1059.2969 695.275,1059.6406 Q695.275,1059.9844 694.9313,1060.3906 Q694.4313,1060.9688 693.6344,1061.2969 Q692.5563,1061.75 691.2594,1061.75 Q689.7438,1061.75 688.5406,1061.125 Q687.5563,1060.625 686.8688,1059.5625 Q686.1813,1058.4844 686.1813,1057.2031 L686.1813,1056.0469 Q686.1813,1054.7188 686.7906,1053.5781 Q687.4156,1052.4219 688.5094,1051.8125 Q689.6031,1051.1875 690.8375,1051.1875 Q691.5719,1051.1875 692.2125,1051.3594 Q692.8688,1051.5156 693.4156,1051.875 Z "/><text fill="#000000" font-family="sans-serif" font-size="12" lengthAdjust="spacingAndGlyphs" textLength="53" x="710.35" y="1060.9102">ErrorView</text><line style="stroke: #A80036; stroke-width: 1.5;" x1="651" x2="791" y1="1072" y2="1072"/><rect fill="none" height="6" style="stroke: #C82930; stroke-width: 1.0;" width="6" x="658" y="1080"/><text fill="#000000" font-family="sans-serif" font-size="11" lengthAdjust="spacingAndGlyphs" text-decoration="underline" textLength="97" x="670" y="1087.4189">MESSAGES: String[]</text><rect fill="none" height="6" style="stroke: #C82930; stroke-width: 1.0;" width="6" x="658" y="1093.8359"/><text fill="#000000" font-family="sans-serif" font-size="11" lengthAdjust="spacingAndGlyphs" textLength="54" x="670" y="1101.2549">error: Error</text><line style="stroke: #A80036; stroke-width: 1.5;" x1="651" x2="791" y1="1107.6719" y2="1107.6719"/><polygon fill="#4177AF" points="661,1114.6719,657,1120.6719,665,1120.6719" style="stroke: #1963A0; stroke-width: 1.0;"/><text fill="#000000" font-family="sans-serif" font-size="11" lengthAdjust="spacingAndGlyphs" textLength="82" x="670" y="1123.0908">ErrorView(Error)</text><polygon fill="#4177AF" points="661,1128.5078,657,1134.5078,665,1134.5078" style="stroke: #1963A0; stroke-width: 1.0;"/><text fill="#000000" font-family="sans-serif" font-size="11" lengthAdjust="spacingAndGlyphs" textLength="116" x="670" y="1136.9268">read(String): Coordinate</text><!--MD5=[f8a52b817e7e9bd4ce0280deb4d5cdc9]
class tictactoe.views.ChoosePlayerView--><rect fill="#FEFECE" filter="url(#f277cz8n5lzh)" height="61.8359" id="tictactoe.views.ChoosePlayerView" style="stroke: #A80036; stroke-width: 1.5;" width="136" x="492" y="424.5"/><ellipse cx="507" cy="440.5" fill="#ADD1B2" rx="11" ry="11" style="stroke: #A80036; stroke-width: 1.0;"/><path d="M509.7656,436.375 Q509.9219,436.1563 510.1094,436.0469 Q510.2969,435.9375 510.5156,435.9375 Q510.8906,435.9375 511.125,436.2031 Q511.3594,436.4531 511.3594,437.0625 L511.3594,438.5156 Q511.3594,439.125 511.125,439.3906 Q510.8906,439.6563 510.5156,439.6563 Q510.1719,439.6563 509.9688,439.4531 Q509.7656,439.2656 509.6563,438.75 Q509.6094,438.3906 509.4219,438.2031 Q509.0938,437.8281 508.4844,437.6094 Q507.875,437.3906 507.25,437.3906 Q506.4844,437.3906 505.8438,437.7188 Q505.2188,438.0469 504.7188,438.7969 Q504.2344,439.5469 504.2344,440.5781 L504.2344,441.6719 Q504.2344,442.9063 505.125,443.7344 Q506.0156,444.5469 507.6094,444.5469 Q508.5469,444.5469 509.2031,444.2969 Q509.5938,444.1406 510.0156,443.7031 Q510.2813,443.4375 510.4219,443.3594 Q510.5781,443.2813 510.7813,443.2813 Q511.1094,443.2813 511.3594,443.5469 Q511.625,443.7969 511.625,444.1406 Q511.625,444.4844 511.2813,444.8906 Q510.7813,445.4688 509.9844,445.7969 Q508.9063,446.25 507.6094,446.25 Q506.0938,446.25 504.8906,445.625 Q503.9063,445.125 503.2188,444.0625 Q502.5313,442.9844 502.5313,441.7031 L502.5313,440.5469 Q502.5313,439.2188 503.1406,438.0781 Q503.7656,436.9219 504.8594,436.3125 Q505.9531,435.6875 507.1875,435.6875 Q507.9219,435.6875 508.5625,435.8594 Q509.2188,436.0156 509.7656,436.375 Z "/><text fill="#000000" font-family="sans-serif" font-size="12" lengthAdjust="spacingAndGlyphs" textLength="104" x="521" y="445.4102">ChoosePlayerView</text><line style="stroke: #A80036; stroke-width: 1.5;" x1="493" x2="627" y1="456.5" y2="456.5"/><line style="stroke: #A80036; stroke-width: 1.5;" x1="493" x2="627" y1="464.5" y2="464.5"/><polygon fill="#4177AF" points="503,471.5,499,477.5,507,477.5" style="stroke: #1963A0; stroke-width: 1.0;"/><text fill="#000000" font-family="sans-serif" font-size="11" lengthAdjust="spacingAndGlyphs" textLength="92" x="512" y="479.9189">readPlayers(): void</text><!--MD5=[ac4b0e0875a820e87662d988d53b2072]
class tictactoe.views.MessageView--><rect fill="#FEFECE" filter="url(#f277cz8n5lzh)" height="241.7031" id="tictactoe.views.MessageView" style="stroke: #A80036; stroke-width: 1.5;" width="237" x="545.5" y="588"/><ellipse cx="621.25" cy="604" fill="#ADD1B2" rx="11" ry="11" style="stroke: #A80036; stroke-width: 1.0;"/><path d="M624.0156,599.875 Q624.1719,599.6563 624.3594,599.5469 Q624.5469,599.4375 624.7656,599.4375 Q625.1406,599.4375 625.375,599.7031 Q625.6094,599.9531 625.6094,600.5625 L625.6094,602.0156 Q625.6094,602.625 625.375,602.8906 Q625.1406,603.1563 624.7656,603.1563 Q624.4219,603.1563 624.2188,602.9531 Q624.0156,602.7656 623.9063,602.25 Q623.8594,601.8906 623.6719,601.7031 Q623.3438,601.3281 622.7344,601.1094 Q622.125,600.8906 621.5,600.8906 Q620.7344,600.8906 620.0938,601.2188 Q619.4688,601.5469 618.9688,602.2969 Q618.4844,603.0469 618.4844,604.0781 L618.4844,605.1719 Q618.4844,606.4063 619.375,607.2344 Q620.2656,608.0469 621.8594,608.0469 Q622.7969,608.0469 623.4531,607.7969 Q623.8438,607.6406 624.2656,607.2031 Q624.5313,606.9375 624.6719,606.8594 Q624.8281,606.7813 625.0313,606.7813 Q625.3594,606.7813 625.6094,607.0469 Q625.875,607.2969 625.875,607.6406 Q625.875,607.9844 625.5313,608.3906 Q625.0313,608.9688 624.2344,609.2969 Q623.1563,609.75 621.8594,609.75 Q620.3438,609.75 619.1406,609.125 Q618.1563,608.625 617.4688,607.5625 Q616.7813,606.4844 616.7813,605.2031 L616.7813,604.0469 Q616.7813,602.7188 617.3906,601.5781 Q618.0156,600.4219 619.1094,599.8125 Q620.2031,599.1875 621.4375,599.1875 Q622.1719,599.1875 622.8125,599.3594 Q623.4688,599.5156 624.0156,599.875 Z "/><text fill="#000000" font-family="sans-serif" font-size="12" lengthAdjust="spacingAndGlyphs" textLength="77" x="641.75" y="608.9102">MessageView</text><line style="stroke: #A80036; stroke-width: 1.5;" x1="546.5" x2="781.5" y1="620" y2="620"/><ellipse cx="556.5" cy="631" fill="none" rx="3" ry="3" style="stroke: #038048; stroke-width: 1.0;"/><text fill="#000000" font-family="sans-serif" font-size="11" lengthAdjust="spacingAndGlyphs" textLength="138" x="565.5" y="635.4189">LINE_BREAK: MessageView</text><ellipse cx="556.5" cy="644.8359" fill="none" rx="3" ry="3" style="stroke: #038048; stroke-width: 1.0;"/><text fill="#000000" font-family="sans-serif" font-size="11" lengthAdjust="spacingAndGlyphs" textLength="110" x="565.5" y="649.2549">EMPTY: MessageView</text><ellipse cx="556.5" cy="658.6719" fill="none" rx="3" ry="3" style="stroke: #038048; stroke-width: 1.0;"/><text fill="#000000" font-family="sans-serif" font-size="11" lengthAdjust="spacingAndGlyphs" textLength="139" x="565.5" y="663.0908">SEPARATOR: MessageView</text><ellipse cx="556.5" cy="672.5078" fill="none" rx="3" ry="3" style="stroke: #038048; stroke-width: 1.0;"/><text fill="#000000" font-family="sans-serif" font-size="11" lengthAdjust="spacingAndGlyphs" textLength="211" x="565.5" y="676.9268">VERTICAL_LINE_CENTERED: MessageView</text><ellipse cx="556.5" cy="686.3438" fill="none" rx="3" ry="3" style="stroke: #038048; stroke-width: 1.0;"/><text fill="#000000" font-family="sans-serif" font-size="11" lengthAdjust="spacingAndGlyphs" textLength="183" x="565.5" y="690.7627">VERTICAL_LINE_LEFT: MessageView</text><ellipse cx="556.5" cy="700.1797" fill="none" rx="3" ry="3" style="stroke: #038048; stroke-width: 1.0;"/><text fill="#000000" font-family="sans-serif" font-size="11" lengthAdjust="spacingAndGlyphs" textLength="142" x="565.5" y="704.5986">PLAYER_WIN: MessageView</text><ellipse cx="556.5" cy="714.0156" fill="none" rx="3" ry="3" style="stroke: #038048; stroke-width: 1.0;"/><text fill="#000000" font-family="sans-serif" font-size="11" lengthAdjust="spacingAndGlyphs" textLength="146" x="565.5" y="718.4346">START_GAME: MessageView</text><ellipse cx="556.5" cy="727.8516" fill="none" rx="3" ry="3" style="stroke: #038048; stroke-width: 1.0;"/><text fill="#000000" font-family="sans-serif" font-size="11" lengthAdjust="spacingAndGlyphs" textLength="166" x="565.5" y="732.2705">CHOOSE_PLAYER: MessageView</text><rect fill="none" height="6" style="stroke: #C82930; stroke-width: 1.0;" width="6" x="553.5" y="738.6875"/><text fill="#000000" font-family="sans-serif" font-size="11" lengthAdjust="spacingAndGlyphs" textLength="78" x="565.5" y="746.1064">message: String</text><rect fill="none" height="6" style="stroke: #C82930; stroke-width: 1.0;" width="6" x="553.5" y="752.5234"/><text fill="#000000" font-family="sans-serif" font-size="11" lengthAdjust="spacingAndGlyphs" textLength="83" x="565.5" y="759.9424">console: Console</text><line style="stroke: #A80036; stroke-width: 1.5;" x1="546.5" x2="781.5" y1="766.3594" y2="766.3594"/><rect fill="#F24D5C" height="6" style="stroke: #C82930; stroke-width: 1.0;" width="6" x="553.5" y="774.3594"/><text fill="#000000" font-family="sans-serif" font-size="11" lengthAdjust="spacingAndGlyphs" textLength="106" x="565.5" y="781.7783">MessageView(String)</text><polygon fill="#4177AF" points="556.5,787.1953,552.5,793.1953,560.5,793.1953" style="stroke: #1963A0; stroke-width: 1.0;"/><text fill="#000000" font-family="sans-serif" font-size="11" lengthAdjust="spacingAndGlyphs" textLength="101" x="565.5" y="795.6143">getMessage(): String</text><polygon fill="#4177AF" points="556.5,801.0313,552.5,807.0313,560.5,807.0313" style="stroke: #1963A0; stroke-width: 1.0;"/><text fill="#000000" font-family="sans-serif" font-size="11" lengthAdjust="spacingAndGlyphs" textLength="59" x="565.5" y="809.4502">write(): void</text><polygon fill="#4177AF" points="556.5,814.8672,552.5,820.8672,560.5,820.8672" style="stroke: #1963A0; stroke-width: 1.0;"/><text fill="#000000" font-family="sans-serif" font-size="11" lengthAdjust="spacingAndGlyphs" textLength="67" x="565.5" y="823.2861">writeln(): void</text><!--MD5=[a099f42e85b2b91eaa31b246ba25a0b3]
class tictactoe.views.MachinePlayerView--><rect fill="#FEFECE" filter="url(#f277cz8n5lzh)" height="89.5078" id="tictactoe.views.MachinePlayerView" style="stroke: #A80036; stroke-width: 1.5;" width="216" x="963" y="890"/><ellipse cx="1013.75" cy="906" fill="#ADD1B2" rx="11" ry="11" style="stroke: #A80036; stroke-width: 1.0;"/><path d="M1016.5156,901.875 Q1016.6719,901.6563 1016.8594,901.5469 Q1017.0469,901.4375 1017.2656,901.4375 Q1017.6406,901.4375 1017.875,901.7031 Q1018.1094,901.9531 1018.1094,902.5625 L1018.1094,904.0156 Q1018.1094,904.625 1017.875,904.8906 Q1017.6406,905.1563 1017.2656,905.1563 Q1016.9219,905.1563 1016.7188,904.9531 Q1016.5156,904.7656 1016.4063,904.25 Q1016.3594,903.8906 1016.1719,903.7031 Q1015.8438,903.3281 1015.2344,903.1094 Q1014.625,902.8906 1014,902.8906 Q1013.2344,902.8906 1012.5938,903.2188 Q1011.9688,903.5469 1011.4688,904.2969 Q1010.9844,905.0469 1010.9844,906.0781 L1010.9844,907.1719 Q1010.9844,908.4063 1011.875,909.2344 Q1012.7656,910.0469 1014.3594,910.0469 Q1015.2969,910.0469 1015.9531,909.7969 Q1016.3438,909.6406 1016.7656,909.2031 Q1017.0313,908.9375 1017.1719,908.8594 Q1017.3281,908.7813 1017.5313,908.7813 Q1017.8594,908.7813 1018.1094,909.0469 Q1018.375,909.2969 1018.375,909.6406 Q1018.375,909.9844 1018.0313,910.3906 Q1017.5313,910.9688 1016.7344,911.2969 Q1015.6563,911.75 1014.3594,911.75 Q1012.8438,911.75 1011.6406,911.125 Q1010.6563,910.625 1009.9688,909.5625 Q1009.2813,908.4844 1009.2813,907.2031 L1009.2813,906.0469 Q1009.2813,904.7188 1009.8906,903.5781 Q1010.5156,902.4219 1011.6094,901.8125 Q1012.7031,901.1875 1013.9375,901.1875 Q1014.6719,901.1875 1015.3125,901.3594 Q1015.9688,901.5156 1016.5156,901.875 Z "/><text fill="#000000" font-family="sans-serif" font-size="12" lengthAdjust="spacingAndGlyphs" textLength="106" x="1034.25" y="910.9102">MachinePlayerView</text><line style="stroke: #A80036; stroke-width: 1.5;" x1="964" x2="1178" y1="922" y2="922"/><line style="stroke: #A80036; stroke-width: 1.5;" x1="964" x2="1178" y1="930" y2="930"/><polygon fill="#4177AF" points="974,937,970,943,978,943" style="stroke: #1963A0; stroke-width: 1.0;"/><text fill="#000000" font-family="sans-serif" font-size="11" lengthAdjust="spacingAndGlyphs" textLength="134" x="983" y="945.4189">MachinePlayerView(Player)</text><polygon fill="#4177AF" points="974,950.8359,970,956.8359,978,956.8359" style="stroke: #1963A0; stroke-width: 1.0;"/><text fill="#000000" font-family="sans-serif" font-size="11" lengthAdjust="spacingAndGlyphs" textLength="167" x="983" y="959.2549">readCoordinateToPut(): Coordinate</text><polygon fill="#4177AF" points="974,964.6719,970,970.6719,978,970.6719" style="stroke: #1963A0; stroke-width: 1.0;"/><text fill="#000000" font-family="sans-serif" font-size="11" lengthAdjust="spacingAndGlyphs" textLength="190" x="983" y="973.0908">readCoordinatesToMove(): Coordinate[]</text><!--MD5=[2ae15d20e7f22fd333327d3852982126]
class tictactoe.views.PlayerView--><rect fill="#FEFECE" filter="url(#f277cz8n5lzh)" height="144.8516" id="tictactoe.views.PlayerView" style="stroke: #A80036; stroke-width: 1.5;" width="346" x="974" y="383"/><ellipse cx="1112.75" cy="399" fill="#ADD1B2" rx="11" ry="11" style="stroke: #A80036; stroke-width: 1.0;"/><path d="M1115.5156,394.875 Q1115.6719,394.6563 1115.8594,394.5469 Q1116.0469,394.4375 1116.2656,394.4375 Q1116.6406,394.4375 1116.875,394.7031 Q1117.1094,394.9531 1117.1094,395.5625 L1117.1094,397.0156 Q1117.1094,397.625 1116.875,397.8906 Q1116.6406,398.1563 1116.2656,398.1563 Q1115.9219,398.1563 1115.7188,397.9531 Q1115.5156,397.7656 1115.4063,397.25 Q1115.3594,396.8906 1115.1719,396.7031 Q1114.8438,396.3281 1114.2344,396.1094 Q1113.625,395.8906 1113,395.8906 Q1112.2344,395.8906 1111.5938,396.2188 Q1110.9688,396.5469 1110.4688,397.2969 Q1109.9844,398.0469 1109.9844,399.0781 L1109.9844,400.1719 Q1109.9844,401.4063 1110.875,402.2344 Q1111.7656,403.0469 1113.3594,403.0469 Q1114.2969,403.0469 1114.9531,402.7969 Q1115.3438,402.6406 1115.7656,402.2031 Q1116.0313,401.9375 1116.1719,401.8594 Q1116.3281,401.7813 1116.5313,401.7813 Q1116.8594,401.7813 1117.1094,402.0469 Q1117.375,402.2969 1117.375,402.6406 Q1117.375,402.9844 1117.0313,403.3906 Q1116.5313,403.9688 1115.7344,404.2969 Q1114.6563,404.75 1113.3594,404.75 Q1111.8438,404.75 1110.6406,404.125 Q1109.6563,403.625 1108.9688,402.5625 Q1108.2813,401.4844 1108.2813,400.2031 L1108.2813,399.0469 Q1108.2813,397.7188 1108.8906,396.5781 Q1109.5156,395.4219 1110.6094,394.8125 Q1111.7031,394.1875 1112.9375,394.1875 Q1113.6719,394.1875 1114.3125,394.3594 Q1114.9688,394.5156 1115.5156,394.875 Z "/><text fill="#000000" font-family="sans-serif" font-size="12" lengthAdjust="spacingAndGlyphs" textLength="60" x="1133.25" y="403.9102">PlayerView</text><line style="stroke: #A80036; stroke-width: 1.5;" x1="975" x2="1319" y1="415" y2="415"/><polygon fill="none" points="985,421,989,425,985,429,981,425" style="stroke: #B38D22; stroke-width: 1.0;"/><text fill="#000000" font-family="sans-serif" font-size="11" lengthAdjust="spacingAndGlyphs" textLength="66" x="994" y="430.4189">player: Player</text><line style="stroke: #A80036; stroke-width: 1.5;" x1="975" x2="1319" y1="436.8359" y2="436.8359"/><polygon fill="#4177AF" points="985,443.8359,981,449.8359,989,449.8359" style="stroke: #1963A0; stroke-width: 1.0;"/><text fill="#000000" font-family="sans-serif" font-size="11" lengthAdjust="spacingAndGlyphs" textLength="94" x="994" y="452.2549">PlayerView(Player)</text><polygon fill="#4177AF" points="985,457.6719,981,463.6719,989,463.6719" style="stroke: #1963A0; stroke-width: 1.0;"/><text fill="#000000" font-family="sans-serif" font-size="11" font-style="italic" lengthAdjust="spacingAndGlyphs" textLength="173" x="994" y="466.0908">readCoordinateToPut(): Coordinate</text><polygon fill="#4177AF" points="985,471.5078,981,477.5078,989,477.5078" style="stroke: #1963A0; stroke-width: 1.0;"/><text fill="#000000" font-family="sans-serif" font-size="11" font-style="italic" lengthAdjust="spacingAndGlyphs" textLength="195" x="994" y="479.9268">readCoordinatesToMove(): Coordinate[]</text><polygon fill="#4177AF" points="985,485.3438,981,491.3438,989,491.3438" style="stroke: #1963A0; stroke-width: 1.0;"/><text fill="#000000" font-family="sans-serif" font-size="11" lengthAdjust="spacingAndGlyphs" textLength="220" x="994" y="493.7627">controlErrorsPutCoordinate(Coordinate): Error</text><polygon fill="#4177AF" points="985,499.1797,981,505.1797,989,505.1797" style="stroke: #1963A0; stroke-width: 1.0;"/><text fill="#000000" font-family="sans-serif" font-size="11" lengthAdjust="spacingAndGlyphs" textLength="259" x="994" y="507.5986">controlErrorsMoveOriginCoordinate(Coordinate): Error</text><polygon fill="#4177AF" points="985,513.0156,981,519.0156,989,519.0156" style="stroke: #1963A0; stroke-width: 1.0;"/><text fill="#000000" font-family="sans-serif" font-size="11" lengthAdjust="spacingAndGlyphs" textLength="320" x="994" y="521.4346">controlErrorsMoveTargetCoordinate(Coordinate, Coordinate): Error</text><!--MD5=[d0ec73423b3bfd3954fbf7197d3af4d8]
class tictactoe.views.PlayView--><rect fill="#FEFECE" filter="url(#f277cz8n5lzh)" height="89.5078" id="tictactoe.views.PlayView" style="stroke: #A80036; stroke-width: 1.5;" width="114" x="1090" y="233"/><ellipse cx="1119.85" cy="249" fill="#ADD1B2" rx="11" ry="11" style="stroke: #A80036; stroke-width: 1.0;"/><path d="M1122.6156,244.875 Q1122.7719,244.6563 1122.9594,244.5469 Q1123.1469,244.4375 1123.3656,244.4375 Q1123.7406,244.4375 1123.975,244.7031 Q1124.2094,244.9531 1124.2094,245.5625 L1124.2094,247.0156 Q1124.2094,247.625 1123.975,247.8906 Q1123.7406,248.1563 1123.3656,248.1563 Q1123.0219,248.1563 1122.8188,247.9531 Q1122.6156,247.7656 1122.5063,247.25 Q1122.4594,246.8906 1122.2719,246.7031 Q1121.9438,246.3281 1121.3344,246.1094 Q1120.725,245.8906 1120.1,245.8906 Q1119.3344,245.8906 1118.6938,246.2188 Q1118.0688,246.5469 1117.5688,247.2969 Q1117.0844,248.0469 1117.0844,249.0781 L1117.0844,250.1719 Q1117.0844,251.4063 1117.975,252.2344 Q1118.8656,253.0469 1120.4594,253.0469 Q1121.3969,253.0469 1122.0531,252.7969 Q1122.4438,252.6406 1122.8656,252.2031 Q1123.1313,251.9375 1123.2719,251.8594 Q1123.4281,251.7813 1123.6313,251.7813 Q1123.9594,251.7813 1124.2094,252.0469 Q1124.475,252.2969 1124.475,252.6406 Q1124.475,252.9844 1124.1313,253.3906 Q1123.6313,253.9688 1122.8344,254.2969 Q1121.7563,254.75 1120.4594,254.75 Q1118.9438,254.75 1117.7406,254.125 Q1116.7563,253.625 1116.0688,252.5625 Q1115.3813,251.4844 1115.3813,250.2031 L1115.3813,249.0469 Q1115.3813,247.7188 1115.9906,246.5781 Q1116.6156,245.4219 1117.7094,244.8125 Q1118.8031,244.1875 1120.0375,244.1875 Q1120.7719,244.1875 1121.4125,244.3594 Q1122.0688,244.5156 1122.6156,244.875 Z "/><text fill="#000000" font-family="sans-serif" font-size="12" lengthAdjust="spacingAndGlyphs" textLength="49" x="1137.15" y="253.9102">PlayView</text><line style="stroke: #A80036; stroke-width: 1.5;" x1="1091" x2="1203" y1="265" y2="265"/><polygon fill="none" points="1101,272,1097,278,1105,278" style="stroke: #1963A0; stroke-width: 1.0;"/><text fill="#000000" font-family="sans-serif" font-size="11" lengthAdjust="spacingAndGlyphs" textLength="60" x="1110" y="280.4189">game: Game</text><line style="stroke: #A80036; stroke-width: 1.5;" x1="1091" x2="1203" y1="286.8359" y2="286.8359"/><polygon fill="#4177AF" points="1101,293.8359,1097,299.8359,1105,299.8359" style="stroke: #1963A0; stroke-width: 1.0;"/><text fill="#000000" font-family="sans-serif" font-size="11" lengthAdjust="spacingAndGlyphs" textLength="82" x="1110" y="302.2549">PlayView(Game)</text><polygon fill="#4177AF" points="1101,307.6719,1097,313.6719,1105,313.6719" style="stroke: #1963A0; stroke-width: 1.0;"/><text fill="#000000" font-family="sans-serif" font-size="11" lengthAdjust="spacingAndGlyphs" textLength="88" x="1110" y="316.0908">interact(): boolean</text><!--MD5=[973b15c09f519f065f4b28972f0c8773]
class tictactoe.views.ResultView--><rect fill="#FEFECE" filter="url(#f277cz8n5lzh)" height="89.5078" id="tictactoe.views.ResultView" style="stroke: #A80036; stroke-width: 1.5;" width="118" x="617" y="233"/><ellipse cx="642.8" cy="249" fill="#ADD1B2" rx="11" ry="11" style="stroke: #A80036; stroke-width: 1.0;"/><path d="M645.5656,244.875 Q645.7219,244.6563 645.9094,244.5469 Q646.0969,244.4375 646.3156,244.4375 Q646.6906,244.4375 646.925,244.7031 Q647.1594,244.9531 647.1594,245.5625 L647.1594,247.0156 Q647.1594,247.625 646.925,247.8906 Q646.6906,248.1563 646.3156,248.1563 Q645.9719,248.1563 645.7688,247.9531 Q645.5656,247.7656 645.4563,247.25 Q645.4094,246.8906 645.2219,246.7031 Q644.8938,246.3281 644.2844,246.1094 Q643.675,245.8906 643.05,245.8906 Q642.2844,245.8906 641.6438,246.2188 Q641.0188,246.5469 640.5188,247.2969 Q640.0344,248.0469 640.0344,249.0781 L640.0344,250.1719 Q640.0344,251.4063 640.925,252.2344 Q641.8156,253.0469 643.4094,253.0469 Q644.3469,253.0469 645.0031,252.7969 Q645.3938,252.6406 645.8156,252.2031 Q646.0813,251.9375 646.2219,251.8594 Q646.3781,251.7813 646.5813,251.7813 Q646.9094,251.7813 647.1594,252.0469 Q647.425,252.2969 647.425,252.6406 Q647.425,252.9844 647.0813,253.3906 Q646.5813,253.9688 645.7844,254.2969 Q644.7063,254.75 643.4094,254.75 Q641.8938,254.75 640.6906,254.125 Q639.7063,253.625 639.0188,252.5625 Q638.3313,251.4844 638.3313,250.2031 L638.3313,249.0469 Q638.3313,247.7188 638.9406,246.5781 Q639.5656,245.4219 640.6594,244.8125 Q641.7531,244.1875 642.9875,244.1875 Q643.7219,244.1875 644.3625,244.3594 Q645.0188,244.5156 645.5656,244.875 Z "/><text fill="#000000" font-family="sans-serif" font-size="12" lengthAdjust="spacingAndGlyphs" textLength="62" x="659.2" y="253.9102">ResultView</text><line style="stroke: #A80036; stroke-width: 1.5;" x1="618" x2="734" y1="265" y2="265"/><polygon fill="none" points="628,272,624,278,632,278" style="stroke: #1963A0; stroke-width: 1.0;"/><text fill="#000000" font-family="sans-serif" font-size="11" lengthAdjust="spacingAndGlyphs" textLength="60" x="637" y="280.4189">game: Game</text><line style="stroke: #A80036; stroke-width: 1.5;" x1="618" x2="734" y1="286.8359" y2="286.8359"/><polygon fill="#4177AF" points="628,293.8359,624,299.8359,632,299.8359" style="stroke: #1963A0; stroke-width: 1.0;"/><text fill="#000000" font-family="sans-serif" font-size="11" lengthAdjust="spacingAndGlyphs" textLength="92" x="637" y="302.2549">ResultView(Game)</text><polygon fill="#4177AF" points="628,307.6719,624,313.6719,632,313.6719" style="stroke: #1963A0; stroke-width: 1.0;"/><text fill="#000000" font-family="sans-serif" font-size="11" lengthAdjust="spacingAndGlyphs" textLength="70" x="637" y="316.0908">interact(): void</text><!--MD5=[24b5a9b67986ee811680be72c33ee9c1]
class tictactoe.views.TokenView--><rect fill="#FEFECE" filter="url(#f277cz8n5lzh)" height="89.5078" id="tictactoe.views.TokenView" style="stroke: #A80036; stroke-width: 1.5;" width="118" x="339" y="410.5"/><ellipse cx="365.7" cy="426.5" fill="#ADD1B2" rx="11" ry="11" style="stroke: #A80036; stroke-width: 1.0;"/><path d="M368.4656,422.375 Q368.6219,422.1563 368.8094,422.0469 Q368.9969,421.9375 369.2156,421.9375 Q369.5906,421.9375 369.825,422.2031 Q370.0594,422.4531 370.0594,423.0625 L370.0594,424.5156 Q370.0594,425.125 369.825,425.3906 Q369.5906,425.6563 369.2156,425.6563 Q368.8719,425.6563 368.6688,425.4531 Q368.4656,425.2656 368.3563,424.75 Q368.3094,424.3906 368.1219,424.2031 Q367.7938,423.8281 367.1844,423.6094 Q366.575,423.3906 365.95,423.3906 Q365.1844,423.3906 364.5438,423.7188 Q363.9188,424.0469 363.4188,424.7969 Q362.9344,425.5469 362.9344,426.5781 L362.9344,427.6719 Q362.9344,428.9063 363.825,429.7344 Q364.7156,430.5469 366.3094,430.5469 Q367.2469,430.5469 367.9031,430.2969 Q368.2938,430.1406 368.7156,429.7031 Q368.9813,429.4375 369.1219,429.3594 Q369.2781,429.2813 369.4813,429.2813 Q369.8094,429.2813 370.0594,429.5469 Q370.325,429.7969 370.325,430.1406 Q370.325,430.4844 369.9813,430.8906 Q369.4813,431.4688 368.6844,431.7969 Q367.6063,432.25 366.3094,432.25 Q364.7938,432.25 363.5906,431.625 Q362.6063,431.125 361.9188,430.0625 Q361.2313,428.9844 361.2313,427.7031 L361.2313,426.5469 Q361.2313,425.2188 361.8406,424.0781 Q362.4656,422.9219 363.5594,422.3125 Q364.6531,421.6875 365.8875,421.6875 Q366.6219,421.6875 367.2625,421.8594 Q367.9188,422.0156 368.4656,422.375 Z "/><text fill="#000000" font-family="sans-serif" font-size="12" lengthAdjust="spacingAndGlyphs" textLength="60" x="382.3" y="431.4102">TokenView</text><line style="stroke: #A80036; stroke-width: 1.5;" x1="340" x2="456" y1="442.5" y2="442.5"/><polygon fill="none" points="350,449.5,346,455.5,354,455.5" style="stroke: #1963A0; stroke-width: 1.0;"/><text fill="#000000" font-family="sans-serif" font-size="11" lengthAdjust="spacingAndGlyphs" textLength="61" x="359" y="457.9189">token: Token</text><line style="stroke: #A80036; stroke-width: 1.5;" x1="340" x2="456" y1="464.3359" y2="464.3359"/><polygon fill="#4177AF" points="350,471.3359,346,477.3359,354,477.3359" style="stroke: #1963A0; stroke-width: 1.0;"/><text fill="#000000" font-family="sans-serif" font-size="11" lengthAdjust="spacingAndGlyphs" textLength="92" x="359" y="479.7549">TokenView(Token)</text><polygon fill="#4177AF" points="350,485.1719,346,491.1719,354,491.1719" style="stroke: #1963A0; stroke-width: 1.0;"/><text fill="#000000" font-family="sans-serif" font-size="11" lengthAdjust="spacingAndGlyphs" textLength="59" x="359" y="493.5908">write(): void</text><!--MD5=[50a4c98617440bec164bf073e81d587d]
class tictactoe.views.StartView--><rect fill="#FEFECE" filter="url(#f277cz8n5lzh)" height="89.5078" id="tictactoe.views.StartView" style="stroke: #A80036; stroke-width: 1.5;" width="111" x="782.5" y="233"/><ellipse cx="810.1" cy="249" fill="#ADD1B2" rx="11" ry="11" style="stroke: #A80036; stroke-width: 1.0;"/><path d="M812.8656,244.875 Q813.0219,244.6563 813.2094,244.5469 Q813.3969,244.4375 813.6156,244.4375 Q813.9906,244.4375 814.225,244.7031 Q814.4594,244.9531 814.4594,245.5625 L814.4594,247.0156 Q814.4594,247.625 814.225,247.8906 Q813.9906,248.1563 813.6156,248.1563 Q813.2719,248.1563 813.0688,247.9531 Q812.8656,247.7656 812.7563,247.25 Q812.7094,246.8906 812.5219,246.7031 Q812.1938,246.3281 811.5844,246.1094 Q810.975,245.8906 810.35,245.8906 Q809.5844,245.8906 808.9438,246.2188 Q808.3188,246.5469 807.8188,247.2969 Q807.3344,248.0469 807.3344,249.0781 L807.3344,250.1719 Q807.3344,251.4063 808.225,252.2344 Q809.1156,253.0469 810.7094,253.0469 Q811.6469,253.0469 812.3031,252.7969 Q812.6938,252.6406 813.1156,252.2031 Q813.3813,251.9375 813.5219,251.8594 Q813.6781,251.7813 813.8813,251.7813 Q814.2094,251.7813 814.4594,252.0469 Q814.725,252.2969 814.725,252.6406 Q814.725,252.9844 814.3813,253.3906 Q813.8813,253.9688 813.0844,254.2969 Q812.0063,254.75 810.7094,254.75 Q809.1938,254.75 807.9906,254.125 Q807.0063,253.625 806.3188,252.5625 Q805.6313,251.4844 805.6313,250.2031 L805.6313,249.0469 Q805.6313,247.7188 806.2406,246.5781 Q806.8656,245.4219 807.9594,244.8125 Q809.0531,244.1875 810.2875,244.1875 Q811.0219,244.1875 811.6625,244.3594 Q812.3188,244.5156 812.8656,244.875 Z "/><text fill="#000000" font-family="sans-serif" font-size="12" lengthAdjust="spacingAndGlyphs" textLength="51" x="826.9" y="253.9102">StartView</text><line style="stroke: #A80036; stroke-width: 1.5;" x1="783.5" x2="892.5" y1="265" y2="265"/><polygon fill="none" points="793.5,272,789.5,278,797.5,278" style="stroke: #1963A0; stroke-width: 1.0;"/><text fill="#000000" font-family="sans-serif" font-size="11" lengthAdjust="spacingAndGlyphs" textLength="60" x="802.5" y="280.4189">game: Game</text><line style="stroke: #A80036; stroke-width: 1.5;" x1="783.5" x2="892.5" y1="286.8359" y2="286.8359"/><polygon fill="#4177AF" points="793.5,293.8359,789.5,299.8359,797.5,299.8359" style="stroke: #1963A0; stroke-width: 1.0;"/><text fill="#000000" font-family="sans-serif" font-size="11" lengthAdjust="spacingAndGlyphs" textLength="85" x="802.5" y="302.2549">StartView(Game)</text><polygon fill="#4177AF" points="793.5,307.6719,789.5,313.6719,797.5,313.6719" style="stroke: #1963A0; stroke-width: 1.0;"/><text fill="#000000" font-family="sans-serif" font-size="11" lengthAdjust="spacingAndGlyphs" textLength="70" x="802.5" y="316.0908">interact(): void</text><!--MD5=[4e5fca12f01c5426c188915da515377f]
class tictactoe.views.UserPlayerView--><rect fill="#FEFECE" filter="url(#f277cz8n5lzh)" height="117.1797" id="tictactoe.views.UserPlayerView" style="stroke: #A80036; stroke-width: 1.5;" width="233" x="817.5" y="650.5"/><ellipse cx="886.25" cy="666.5" fill="#ADD1B2" rx="11" ry="11" style="stroke: #A80036; stroke-width: 1.0;"/><path d="M889.0156,662.375 Q889.1719,662.1563 889.3594,662.0469 Q889.5469,661.9375 889.7656,661.9375 Q890.1406,661.9375 890.375,662.2031 Q890.6094,662.4531 890.6094,663.0625 L890.6094,664.5156 Q890.6094,665.125 890.375,665.3906 Q890.1406,665.6563 889.7656,665.6563 Q889.4219,665.6563 889.2188,665.4531 Q889.0156,665.2656 888.9063,664.75 Q888.8594,664.3906 888.6719,664.2031 Q888.3438,663.8281 887.7344,663.6094 Q887.125,663.3906 886.5,663.3906 Q885.7344,663.3906 885.0938,663.7188 Q884.4688,664.0469 883.9688,664.7969 Q883.4844,665.5469 883.4844,666.5781 L883.4844,667.6719 Q883.4844,668.9063 884.375,669.7344 Q885.2656,670.5469 886.8594,670.5469 Q887.7969,670.5469 888.4531,670.2969 Q888.8438,670.1406 889.2656,669.7031 Q889.5313,669.4375 889.6719,669.3594 Q889.8281,669.2813 890.0313,669.2813 Q890.3594,669.2813 890.6094,669.5469 Q890.875,669.7969 890.875,670.1406 Q890.875,670.4844 890.5313,670.8906 Q890.0313,671.4688 889.2344,671.7969 Q888.1563,672.25 886.8594,672.25 Q885.3438,672.25 884.1406,671.625 Q883.1563,671.125 882.4688,670.0625 Q881.7813,668.9844 881.7813,667.7031 L881.7813,666.5469 Q881.7813,665.2188 882.3906,664.0781 Q883.0156,662.9219 884.1094,662.3125 Q885.2031,661.6875 886.4375,661.6875 Q887.1719,661.6875 887.8125,661.8594 Q888.4688,662.0156 889.0156,662.375 Z "/><text fill="#000000" font-family="sans-serif" font-size="12" lengthAdjust="spacingAndGlyphs" textLength="87" x="906.75" y="671.4102">UserPlayerView</text><line style="stroke: #A80036; stroke-width: 1.5;" x1="818.5" x2="1049.5" y1="682.5" y2="682.5"/><polygon fill="none" points="828.5,689.5,824.5,695.5,832.5,695.5" style="stroke: #1963A0; stroke-width: 1.0;"/><text fill="#000000" font-family="sans-serif" font-size="11" lengthAdjust="spacingAndGlyphs" text-decoration="underline" textLength="183" x="837.5" y="697.9189">ENTER_COORDINATE_TO_PUT: String</text><polygon fill="none" points="828.5,703.3359,824.5,709.3359,832.5,709.3359" style="stroke: #1963A0; stroke-width: 1.0;"/><text fill="#000000" font-family="sans-serif" font-size="11" lengthAdjust="spacingAndGlyphs" text-decoration="underline" textLength="207" x="837.5" y="711.7549">ENTER_COORDINATE_TO_REMOVE: String</text><line style="stroke: #A80036; stroke-width: 1.5;" x1="818.5" x2="1049.5" y1="718.1719" y2="718.1719"/><polygon fill="#4177AF" points="828.5,725.1719,824.5,731.1719,832.5,731.1719" style="stroke: #1963A0; stroke-width: 1.0;"/><text fill="#000000" font-family="sans-serif" font-size="11" lengthAdjust="spacingAndGlyphs" textLength="117" x="837.5" y="733.5908">UserPlayerView(Player)</text><polygon fill="#4177AF" points="828.5,739.0078,824.5,745.0078,832.5,745.0078" style="stroke: #1963A0; stroke-width: 1.0;"/><text fill="#000000" font-family="sans-serif" font-size="11" lengthAdjust="spacingAndGlyphs" textLength="167" x="837.5" y="747.4268">readCoordinateToPut(): Coordinate</text><polygon fill="#4177AF" points="828.5,752.8438,824.5,758.8438,832.5,758.8438" style="stroke: #1963A0; stroke-width: 1.0;"/><text fill="#000000" font-family="sans-serif" font-size="11" lengthAdjust="spacingAndGlyphs" textLength="190" x="837.5" y="761.2627">readCoordinatesToMove(): Coordinate[]</text><!--MD5=[015754420c4cdd9bacda884b3fa8c6ca]
class tictactoe.views.View--><rect fill="#FEFECE" filter="url(#f277cz8n5lzh)" height="131.0156" id="tictactoe.views.View" style="stroke: #A80036; stroke-width: 1.5;" width="144" x="920" y="42"/><ellipse cx="974.75" cy="58" fill="#ADD1B2" rx="11" ry="11" style="stroke: #A80036; stroke-width: 1.0;"/><path d="M977.5156,53.875 Q977.6719,53.6563 977.8594,53.5469 Q978.0469,53.4375 978.2656,53.4375 Q978.6406,53.4375 978.875,53.7031 Q979.1094,53.9531 979.1094,54.5625 L979.1094,56.0156 Q979.1094,56.625 978.875,56.8906 Q978.6406,57.1563 978.2656,57.1563 Q977.9219,57.1563 977.7188,56.9531 Q977.5156,56.7656 977.4063,56.25 Q977.3594,55.8906 977.1719,55.7031 Q976.8438,55.3281 976.2344,55.1094 Q975.625,54.8906 975,54.8906 Q974.2344,54.8906 973.5938,55.2188 Q972.9688,55.5469 972.4688,56.2969 Q971.9844,57.0469 971.9844,58.0781 L971.9844,59.1719 Q971.9844,60.4063 972.875,61.2344 Q973.7656,62.0469 975.3594,62.0469 Q976.2969,62.0469 976.9531,61.7969 Q977.3438,61.6406 977.7656,61.2031 Q978.0313,60.9375 978.1719,60.8594 Q978.3281,60.7813 978.5313,60.7813 Q978.8594,60.7813 979.1094,61.0469 Q979.375,61.2969 979.375,61.6406 Q979.375,61.9844 979.0313,62.3906 Q978.5313,62.9688 977.7344,63.2969 Q976.6563,63.75 975.3594,63.75 Q973.8438,63.75 972.6406,63.125 Q971.6563,62.625 970.9688,61.5625 Q970.2813,60.4844 970.2813,59.2031 L970.2813,58.0469 Q970.2813,56.7188 970.8906,55.5781 Q971.5156,54.4219 972.6094,53.8125 Q973.7031,53.1875 974.9375,53.1875 Q975.6719,53.1875 976.3125,53.3594 Q976.9688,53.5156 977.5156,53.875 Z "/><text fill="#000000" font-family="sans-serif" font-size="12" lengthAdjust="spacingAndGlyphs" textLength="26" x="995.25" y="62.9102">View</text><line style="stroke: #A80036; stroke-width: 1.5;" x1="921" x2="1063" y1="74" y2="74"/><polygon fill="none" points="931,80,935,84,931,88,927,84" style="stroke: #B38D22; stroke-width: 1.0;"/><text fill="#000000" font-family="sans-serif" font-size="11" lengthAdjust="spacingAndGlyphs" textLength="60" x="940" y="89.4189">game: Game</text><rect fill="none" height="6" style="stroke: #C82930; stroke-width: 1.0;" width="6" x="928" y="95.8359"/><text fill="#000000" font-family="sans-serif" font-size="11" lengthAdjust="spacingAndGlyphs" textLength="103" x="940" y="103.2549">startView: StartView</text><rect fill="none" height="6" style="stroke: #C82930; stroke-width: 1.0;" width="6" x="928" y="109.6719"/><text fill="#000000" font-family="sans-serif" font-size="11" lengthAdjust="spacingAndGlyphs" textLength="98" x="940" y="117.0908">playView: PlayView</text><rect fill="none" height="6" style="stroke: #C82930; stroke-width: 1.0;" width="6" x="928" y="123.5078"/><text fill="#000000" font-family="sans-serif" font-size="11" lengthAdjust="spacingAndGlyphs" textLength="118" x="940" y="130.9268">ResultView: ResultView</text><line style="stroke: #A80036; stroke-width: 1.5;" x1="921" x2="1063" y1="137.3438" y2="137.3438"/><ellipse cx="931" cy="148.3438" fill="#84BE84" rx="3" ry="3" style="stroke: #038048; stroke-width: 1.0;"/><text fill="#000000" font-family="sans-serif" font-size="11" lengthAdjust="spacingAndGlyphs" textLength="62" x="940" y="152.7627">View(Game)</text><ellipse cx="931" cy="162.1797" fill="#84BE84" rx="3" ry="3" style="stroke: #038048; stroke-width: 1.0;"/><text fill="#000000" font-family="sans-serif" font-size="11" lengthAdjust="spacingAndGlyphs" textLength="70" x="940" y="166.5986">interact(): void</text><!--MD5=[959c5b36bcbb0655df73030dc49c5e5e]
class utils.WithConsoleModel--><rect fill="#FEFECE" filter="url(#f277cz8n5lzh)" height="48" id="utils.WithConsoleModel" style="stroke: #A80036; stroke-width: 1.5;" width="136" x="32" y="254"/><ellipse cx="47" cy="270" fill="#ADD1B2" rx="11" ry="11" style="stroke: #A80036; stroke-width: 1.0;"/><path d="M49.7656,265.875 Q49.9219,265.6563 50.1094,265.5469 Q50.2969,265.4375 50.5156,265.4375 Q50.8906,265.4375 51.125,265.7031 Q51.3594,265.9531 51.3594,266.5625 L51.3594,268.0156 Q51.3594,268.625 51.125,268.8906 Q50.8906,269.1563 50.5156,269.1563 Q50.1719,269.1563 49.9688,268.9531 Q49.7656,268.7656 49.6563,268.25 Q49.6094,267.8906 49.4219,267.7031 Q49.0938,267.3281 48.4844,267.1094 Q47.875,266.8906 47.25,266.8906 Q46.4844,266.8906 45.8438,267.2188 Q45.2188,267.5469 44.7188,268.2969 Q44.2344,269.0469 44.2344,270.0781 L44.2344,271.1719 Q44.2344,272.4063 45.125,273.2344 Q46.0156,274.0469 47.6094,274.0469 Q48.5469,274.0469 49.2031,273.7969 Q49.5938,273.6406 50.0156,273.2031 Q50.2813,272.9375 50.4219,272.8594 Q50.5781,272.7813 50.7813,272.7813 Q51.1094,272.7813 51.3594,273.0469 Q51.625,273.2969 51.625,273.6406 Q51.625,273.9844 51.2813,274.3906 Q50.7813,274.9688 49.9844,275.2969 Q48.9063,275.75 47.6094,275.75 Q46.0938,275.75 44.8906,275.125 Q43.9063,274.625 43.2188,273.5625 Q42.5313,272.4844 42.5313,271.2031 L42.5313,270.0469 Q42.5313,268.7188 43.1406,267.5781 Q43.7656,266.4219 44.8594,265.8125 Q45.9531,265.1875 47.1875,265.1875 Q47.9219,265.1875 48.5625,265.3594 Q49.2188,265.5156 49.7656,265.875 Z "/><text fill="#000000" font-family="sans-serif" font-size="12" lengthAdjust="spacingAndGlyphs" textLength="104" x="61" y="274.9102">WithConsoleModel</text><line style="stroke: #A80036; stroke-width: 1.5;" x1="33" x2="167" y1="286" y2="286"/><line style="stroke: #A80036; stroke-width: 1.5;" x1="33" x2="167" y1="294" y2="294"/><!--MD5=[8af4fdb787b135b7271f9ce04b92f747]
class utils.Console--><rect fill="#FEFECE" filter="url(#f277cz8n5lzh)" height="48" id="utils.Console" style="stroke: #A80036; stroke-width: 1.5;" width="79" x="203.5" y="254"/><ellipse cx="218.5" cy="270" fill="#ADD1B2" rx="11" ry="11" style="stroke: #A80036; stroke-width: 1.0;"/><path d="M221.2656,265.875 Q221.4219,265.6563 221.6094,265.5469 Q221.7969,265.4375 222.0156,265.4375 Q222.3906,265.4375 222.625,265.7031 Q222.8594,265.9531 222.8594,266.5625 L222.8594,268.0156 Q222.8594,268.625 222.625,268.8906 Q222.3906,269.1563 222.0156,269.1563 Q221.6719,269.1563 221.4688,268.9531 Q221.2656,268.7656 221.1563,268.25 Q221.1094,267.8906 220.9219,267.7031 Q220.5938,267.3281 219.9844,267.1094 Q219.375,266.8906 218.75,266.8906 Q217.9844,266.8906 217.3438,267.2188 Q216.7188,267.5469 216.2188,268.2969 Q215.7344,269.0469 215.7344,270.0781 L215.7344,271.1719 Q215.7344,272.4063 216.625,273.2344 Q217.5156,274.0469 219.1094,274.0469 Q220.0469,274.0469 220.7031,273.7969 Q221.0938,273.6406 221.5156,273.2031 Q221.7813,272.9375 221.9219,272.8594 Q222.0781,272.7813 222.2813,272.7813 Q222.6094,272.7813 222.8594,273.0469 Q223.125,273.2969 223.125,273.6406 Q223.125,273.9844 222.7813,274.3906 Q222.2813,274.9688 221.4844,275.2969 Q220.4063,275.75 219.1094,275.75 Q217.5938,275.75 216.3906,275.125 Q215.4063,274.625 214.7188,273.5625 Q214.0313,272.4844 214.0313,271.2031 L214.0313,270.0469 Q214.0313,268.7188 214.6406,267.5781 Q215.2656,266.4219 216.3594,265.8125 Q217.4531,265.1875 218.6875,265.1875 Q219.4219,265.1875 220.0625,265.3594 Q220.7188,265.5156 221.2656,265.875 Z "/><text fill="#000000" font-family="sans-serif" font-size="12" lengthAdjust="spacingAndGlyphs" textLength="47" x="232.5" y="274.9102">Console</text><line style="stroke: #A80036; stroke-width: 1.5;" x1="204.5" x2="281.5" y1="286" y2="286"/><line style="stroke: #A80036; stroke-width: 1.5;" x1="204.5" x2="281.5" y1="294" y2="294"/><!--MD5=[8d3188f3c370ea7d5d91d12bca83b67a]
class tictactoe.models.Game--><rect fill="#FEFECE" filter="url(#f277cz8n5lzh)" height="48" id="tictactoe.models.Game" style="stroke: #A80036; stroke-width: 1.5;" width="66" x="1376" y="431.5"/><ellipse cx="1391" cy="447.5" fill="#ADD1B2" rx="11" ry="11" style="stroke: #A80036; stroke-width: 1.0;"/><path d="M1393.7656,443.375 Q1393.9219,443.1563 1394.1094,443.0469 Q1394.2969,442.9375 1394.5156,442.9375 Q1394.8906,442.9375 1395.125,443.2031 Q1395.3594,443.4531 1395.3594,444.0625 L1395.3594,445.5156 Q1395.3594,446.125 1395.125,446.3906 Q1394.8906,446.6563 1394.5156,446.6563 Q1394.1719,446.6563 1393.9688,446.4531 Q1393.7656,446.2656 1393.6563,445.75 Q1393.6094,445.3906 1393.4219,445.2031 Q1393.0938,444.8281 1392.4844,444.6094 Q1391.875,444.3906 1391.25,444.3906 Q1390.4844,444.3906 1389.8438,444.7188 Q1389.2188,445.0469 1388.7188,445.7969 Q1388.2344,446.5469 1388.2344,447.5781 L1388.2344,448.6719 Q1388.2344,449.9063 1389.125,450.7344 Q1390.0156,451.5469 1391.6094,451.5469 Q1392.5469,451.5469 1393.2031,451.2969 Q1393.5938,451.1406 1394.0156,450.7031 Q1394.2813,450.4375 1394.4219,450.3594 Q1394.5781,450.2813 1394.7813,450.2813 Q1395.1094,450.2813 1395.3594,450.5469 Q1395.625,450.7969 1395.625,451.1406 Q1395.625,451.4844 1395.2813,451.8906 Q1394.7813,452.4688 1393.9844,452.7969 Q1392.9063,453.25 1391.6094,453.25 Q1390.0938,453.25 1388.8906,452.625 Q1387.9063,452.125 1387.2188,451.0625 Q1386.5313,449.9844 1386.5313,448.7031 L1386.5313,447.5469 Q1386.5313,446.2188 1387.1406,445.0781 Q1387.7656,443.9219 1388.8594,443.3125 Q1389.9531,442.6875 1391.1875,442.6875 Q1391.9219,442.6875 1392.5625,442.8594 Q1393.2188,443.0156 1393.7656,443.375 Z "/><text fill="#000000" font-family="sans-serif" font-size="12" lengthAdjust="spacingAndGlyphs" textLength="34" x="1405" y="452.4102">Game</text><line style="stroke: #A80036; stroke-width: 1.5;" x1="1377" x2="1441" y1="463.5" y2="463.5"/><line style="stroke: #A80036; stroke-width: 1.5;" x1="1377" x2="1441" y1="471.5" y2="471.5"/><!--MD5=[803524df15bfb341b4c6af689d68111c]
reverse link utils.WithConsoleModel to tictactoe.views.CoordinateView--><path d="M121.629,320.073 C149.054,370.772 199.054,458.766 251,528 C360.306,673.685 384.274,718.131 528,830 C565.996,859.574 613.567,885.315 651.972,903.789 " fill="none" id="utils.WithConsoleModel&lt;-tictactoe.views.CoordinateView" style="stroke: #A80036; stroke-width: 1.0;"/><polygon fill="none" points="115.375,323.222,112.108,302.285,127.718,316.615,115.375,323.222" style="stroke: #A80036; stroke-width: 1.0;"/><!--MD5=[4b31c31b5e3724f6ae6047fba7d06c34]
link tictactoe.views.CoordinateView to tictactoe.views.ErrorView--><path d="M721,966.156 C721,985.587 721,1011.446 721,1034.548 " fill="none" id="tictactoe.views.CoordinateView-&gt;tictactoe.views.ErrorView" style="stroke: #A80036; stroke-width: 1.0; stroke-dasharray: 7.0,7.0;"/><polygon fill="#A80036" points="721,1039.739,725,1030.739,721,1034.739,717,1030.739,721,1039.739" style="stroke: #A80036; stroke-width: 1.0;"/><!--MD5=[9d9eefca5b096b0841160e599e841e2e]
reverse link utils.WithConsoleModel to tictactoe.views.ErrorView--><path d="M103.657,322.248 C114.347,423.287 153.981,677.78 290,830 C392.095,944.256 556.39,1024.159 649.879,1063.199 " fill="none" id="utils.WithConsoleModel&lt;-tictactoe.views.ErrorView" style="stroke: #A80036; stroke-width: 1.0;"/><polygon fill="none" points="96.6629,322.65,101.699,302.067,110.597,321.298,96.6629,322.65" style="stroke: #A80036; stroke-width: 1.0;"/><!--MD5=[84c27f8b1e1dd541e0015606fcfe94ee]
reverse link utils.WithConsoleModel to tictactoe.views.ChoosePlayerView--><path d="M154.236,311.854 C164.531,317.157 175.403,322.158 186,326 C308.671,370.47 356.196,326.892 474,383 C495.211,393.103 515.584,409.628 531.172,424.249 " fill="none" id="utils.WithConsoleModel&lt;-tictactoe.views.ChoosePlayerView" style="stroke: #A80036; stroke-width: 1.0;"/><polygon fill="none" points="150.706,317.902,136.513,302.168,157.42,305.617,150.706,317.902" style="stroke: #A80036; stroke-width: 1.0;"/><!--MD5=[6d91909534c6522dcd03bcfbef4764f6]
link tictactoe.views.ChoosePlayerView to tictactoe.views.MessageView--><path d="M572.545,486.837 C582.627,511.218 597.51,547.209 612.354,583.106 " fill="none" id="tictactoe.views.ChoosePlayerView-&gt;tictactoe.views.MessageView" style="stroke: #A80036; stroke-width: 1.0; stroke-dasharray: 7.0,7.0;"/><polygon fill="#A80036" points="614.353,587.94,614.611,578.0945,612.4427,583.3193,607.2179,581.151,614.353,587.94" style="stroke: #A80036; stroke-width: 1.0;"/><!--MD5=[e0fedca8aad090be2a55777be0588077]
link tictactoe.views.ChoosePlayerView to tictactoe.views.ErrorView--><path d="M549.74,486.88 C529.511,551.631 489.632,707.324 528,830 C553.381,911.151 616.012,987.238 663.094,1035.979 " fill="none" id="tictactoe.views.ChoosePlayerView-&gt;tictactoe.views.ErrorView" style="stroke: #A80036; stroke-width: 1.0; stroke-dasharray: 7.0,7.0;"/><polygon fill="#A80036" points="666.741,1039.733,663.3395,1030.4902,663.2573,1036.1464,657.601,1036.0641,666.741,1039.733" style="stroke: #A80036; stroke-width: 1.0;"/><!--MD5=[20e81308c0403a45c4e97f8c1df924ce]
reverse link tictactoe.views.PlayerView to tictactoe.views.MachinePlayerView--><path d="M1132.4,548.239 C1116.07,650.807 1090.32,812.641 1078,889.992 " fill="none" id="tictactoe.views.PlayerView&lt;-tictactoe.views.MachinePlayerView" style="stroke: #A80036; stroke-width: 1.0;"/><polygon fill="none" points="1125.52,546.896,1135.58,528.245,1139.35,549.097,1125.52,546.896" style="stroke: #A80036; stroke-width: 1.0;"/><!--MD5=[f9c315c096834f768787d21fa9159728]
link tictactoe.views.MachinePlayerView to tictactoe.views.ErrorView--><path d="M971.172,980.067 C915.667,1004.568 847.705,1034.569 796.632,1057.114 " fill="none" id="tictactoe.views.MachinePlayerView-&gt;tictactoe.views.ErrorView" style="stroke: #A80036; stroke-width: 1.0; stroke-dasharray: 7.0,7.0;"/><polygon fill="#A80036" points="792.054,1059.135,801.9028,1059.161,796.6284,1057.1164,798.673,1051.842,792.054,1059.135" style="stroke: #A80036; stroke-width: 1.0;"/><!--MD5=[0ad3c58d95a8180d95833dfe832d13d7]
link tictactoe.views.MessageView to utils.Console--><path d="M545.133,671.931 C471.04,643.772 379.07,597.569 321,528 C265.964,462.065 249.665,357.221 244.913,307.263 " fill="none" id="tictactoe.views.MessageView-&gt;utils.Console" style="stroke: #A80036; stroke-width: 1.0; stroke-dasharray: 7.0,7.0;"/><polygon fill="#A80036" points="244.438,302.026,241.2671,311.3504,244.8895,307.0056,249.2344,310.628,244.438,302.026" style="stroke: #A80036; stroke-width: 1.0;"/><!--MD5=[ce514773479788e4563c803901aa0e8a]
link tictactoe.views.PlayView to tictactoe.models.Game--><path d="M1204.01,305.271 C1242.83,324.362 1294.51,352.175 1336,383 C1353.57,396.056 1371.16,413.138 1384.68,427.332 " fill="none" id="tictactoe.views.PlayView-&gt;tictactoe.models.Game" style="stroke: #A80036; stroke-width: 1.0; stroke-dasharray: 7.0,7.0;"/><polygon fill="#A80036" points="1388.37,431.253,1385.1107,421.9591,1384.9417,427.6134,1379.2873,427.4444,1388.37,431.253" style="stroke: #A80036; stroke-width: 1.0;"/><!--MD5=[ed2f2162f6705e4efea2048dc683c831]
link tictactoe.views.PlayView to tictactoe.views.PlayerView--><path d="M1147,323.286 C1147,339.808 1147,359.079 1147,377.685 " fill="none" id="tictactoe.views.PlayView-&gt;tictactoe.views.PlayerView" style="stroke: #A80036; stroke-width: 1.0; stroke-dasharray: 7.0,7.0;"/><polygon fill="#A80036" points="1147,382.912,1151,373.912,1147,377.912,1143,373.912,1147,382.912" style="stroke: #A80036; stroke-width: 1.0;"/><!--MD5=[96500f088718d150f81ca6b75f442d06]
link tictactoe.views.ResultView to tictactoe.models.Game--><path d="M735.461,314.377 C745.081,318.926 755.129,323.026 765,326 C1009.19,399.584 1104.96,275.002 1336,383 C1357.19,392.903 1375.91,411.567 1389.09,427.343 " fill="none" id="tictactoe.views.ResultView-&gt;tictactoe.models.Game" style="stroke: #A80036; stroke-width: 1.0; stroke-dasharray: 7.0,7.0;"/><polygon fill="#A80036" points="1392.32,431.284,1389.698,421.7906,1389.1462,427.4205,1383.5163,426.8687,1392.32,431.284" style="stroke: #A80036; stroke-width: 1.0;"/><!--MD5=[c036dee113f5971567d9d64c949bd867]
link tictactoe.views.ResultView to tictactoe.views.TokenView--><path d="M616.941,304.079 C575.283,323.015 519.098,351.131 474,383 C464.032,390.044 454.047,398.333 444.744,406.723 " fill="none" id="tictactoe.views.ResultView-&gt;tictactoe.views.TokenView" style="stroke: #A80036; stroke-width: 1.0; stroke-dasharray: 7.0,7.0;"/><polygon fill="#A80036" points="440.8,410.322,450.1442,407.2099,444.4933,406.9516,444.7516,401.3006,440.8,410.322" style="stroke: #A80036; stroke-width: 1.0;"/><!--MD5=[f07945de84a5d4a2de4970820f01fc75]
link tictactoe.views.ResultView to tictactoe.views.MessageView--><path d="M674.761,323.295 C673.064,383.955 669.95,495.302 667.506,582.653 " fill="none" id="tictactoe.views.ResultView-&gt;tictactoe.views.MessageView" style="stroke: #A80036; stroke-width: 1.0; stroke-dasharray: 7.0,7.0;"/><polygon fill="#A80036" points="667.361,587.844,671.6115,578.9596,667.501,582.846,663.6146,578.7355,667.361,587.844" style="stroke: #A80036; stroke-width: 1.0;"/><!--MD5=[38c294e5e74476c7cee307f42d87ec6f]
link tictactoe.views.StartView to tictactoe.models.Game--><path d="M893.814,290.229 C1021.79,316.032 1326.16,377.748 1336,383 C1356.34,393.861 1374.85,412.127 1388.14,427.477 " fill="none" id="tictactoe.views.StartView-&gt;tictactoe.models.Game" style="stroke: #A80036; stroke-width: 1.0; stroke-dasharray: 7.0,7.0;"/><polygon fill="#A80036" points="1391.4,431.31,1388.6025,421.8668,1388.1551,427.506,1382.516,427.0586,1391.4,431.31" style="stroke: #A80036; stroke-width: 1.0;"/><!--MD5=[ade498cb7559201fee6859bf082ba533]
link tictactoe.views.StartView to tictactoe.views.ChoosePlayerView--><path d="M782.411,314.093 C732.73,345.456 660.491,391.061 611.952,421.703 " fill="none" id="tictactoe.views.StartView-&gt;tictactoe.views.ChoosePlayerView" style="stroke: #A80036; stroke-width: 1.0; stroke-dasharray: 7.0,7.0;"/><polygon fill="#A80036" points="607.623,424.436,617.3687,423.014,611.851,421.7669,613.0981,416.2492,607.623,424.436" style="stroke: #A80036; stroke-width: 1.0;"/><!--MD5=[b594307ff552a83d04fdaea87608a81f]
link tictactoe.views.StartView to tictactoe.views.BoardView--><path d="M838,323.286 C838,344.055 838,369.17 838,391.844 " fill="none" id="tictactoe.views.StartView-&gt;tictactoe.views.BoardView" style="stroke: #A80036; stroke-width: 1.0; stroke-dasharray: 7.0,7.0;"/><polygon fill="#A80036" points="838,396.944,842,387.944,838,391.944,834,387.944,838,396.944" style="stroke: #A80036; stroke-width: 1.0;"/><!--MD5=[acc41e7aa9beecc5caef020a4c923094]
link tictactoe.views.StartView to tictactoe.views.MessageView--><path d="M782.46,315.119 C759.586,332.849 734.984,356.181 720,383 C701.043,416.931 686.442,506.284 676.909,582.729 " fill="none" id="tictactoe.views.StartView-&gt;tictactoe.views.MessageView" style="stroke: #A80036; stroke-width: 1.0; stroke-dasharray: 7.0,7.0;"/><polygon fill="#A80036" points="676.289,587.745,681.3643,579.3045,676.9032,582.7829,673.4248,578.3218,676.289,587.745" style="stroke: #A80036; stroke-width: 1.0;"/><!--MD5=[0a4ea30556102bb4afe6aa2298d83e2a]
reverse link utils.WithConsoleModel to tictactoe.views.TokenView--><path d="M156.594,312.33 C208.759,343.051 285.893,388.477 338.853,419.667 " fill="none" id="utils.WithConsoleModel&lt;-tictactoe.views.TokenView" style="stroke: #A80036; stroke-width: 1.0;"/><polygon fill="none" points="152.946,318.305,139.265,302.124,160.05,306.242,152.946,318.305" style="stroke: #A80036; stroke-width: 1.0;"/><!--MD5=[1e5f7c56ba0966e4189ee9d4368bbc75]
reverse link tictactoe.views.PlayerView to tictactoe.views.UserPlayerView--><path d="M1073.28,543.546 C1043.43,578.795 1009.77,618.54 983.014,650.127 " fill="none" id="tictactoe.views.PlayerView&lt;-tictactoe.views.UserPlayerView" style="stroke: #A80036; stroke-width: 1.0;"/><polygon fill="none" points="1067.98,538.971,1086.25,528.233,1078.66,548.019,1067.98,538.971" style="stroke: #A80036; stroke-width: 1.0;"/><!--MD5=[4574fdac031bfd32a1af6a2f4dae5e0a]
link tictactoe.views.UserPlayerView to tictactoe.views.CoordinateView--><path d="M879.147,767.686 C839.187,809.709 786.427,865.194 753.097,900.245 " fill="none" id="tictactoe.views.UserPlayerView-&gt;tictactoe.views.CoordinateView" style="stroke: #A80036; stroke-width: 1.0; stroke-dasharray: 7.0,7.0;"/><polygon fill="#A80036" points="749.533,903.994,758.6339,900.2293,752.9788,900.371,752.8371,894.7159,749.533,903.994" style="stroke: #A80036; stroke-width: 1.0;"/><!--MD5=[658a608cadae7f50017d4f067fcbd3fc]
link tictactoe.views.UserPlayerView to tictactoe.views.ErrorView--><path d="M912.025,767.61 C889.557,823.707 851.939,910.442 809,980 C797.302,998.949 782.831,1018.358 769.026,1035.517 " fill="none" id="tictactoe.views.UserPlayerView-&gt;tictactoe.views.ErrorView" style="stroke: #A80036; stroke-width: 1.0; stroke-dasharray: 7.0,7.0;"/><polygon fill="#A80036" points="765.533,1039.829,774.3059,1035.3527,768.6799,1035.9435,768.0891,1030.3176,765.533,1039.829" style="stroke: #A80036; stroke-width: 1.0;"/><!--MD5=[0696a78a81f063c18f1c08fd8fb67371]
link tictactoe.views.View to tictactoe.models.Game--><path d="M1075.481,133.8476 C1075.481,133.8476 1178.88,176.065 1222,210 C1298.2,269.968 1360.33,367.762 1390.05,419.632 " fill="none" id="tictactoe.views.View-tictactoe.models.Game" style="stroke: #A80036; stroke-width: 1.0;"/><polygon fill="#A80036" points="1396.56,431.178,1395.6242,421.3737,1394.1044,426.8226,1388.6555,425.3027,1396.56,431.178" style="stroke: #A80036; stroke-width: 1.0;"/><line style="stroke: #A80036; stroke-width: 1.0;" x1="1394.1044" x2="1390.175" y1="426.8226" y2="419.8555"/><polygon fill="#A80036" points="1064.17,129.84,1068.4896,135.6142,1075.481,133.8476,1071.1614,128.0735,1064.17,129.84" style="stroke: #A80036; stroke-width: 1.0;"/><!--MD5=[162e61ccfe0c70dae4a3356c790f8713]
link tictactoe.views.View to tictactoe.views.StartView--><path d="M924.8044,182.0178 C924.8044,182.0178 899.011,210.244 887.413,222.934 " fill="none" id="tictactoe.views.View-tictactoe.views.StartView" style="stroke: #A80036; stroke-width: 1.0;"/><polygon fill="#A80036" points="878.342,232.859,887.3663,228.9142,881.7152,229.1682,881.4611,223.5171,878.342,232.859" style="stroke: #A80036; stroke-width: 1.0;"/><line style="stroke: #A80036; stroke-width: 1.0;" x1="881.7152" x2="887.1125" y1="229.1682" y2="223.2635"/><polygon fill="#A80036" points="932.9,173.16,925.8996,174.8904,924.8044,182.0178,931.8048,180.2875,932.9,173.16" style="stroke: #A80036; stroke-width: 1.0;"/><!--MD5=[b154bf5c27e08267002d89cc620f84e6]
link tictactoe.views.View to tictactoe.views.PlayView--><path d="M1059.6091,181.9871 C1059.6091,181.9871 1085.59,210.244 1097.27,222.934 " fill="none" id="tictactoe.views.View-tictactoe.views.PlayView" style="stroke: #A80036; stroke-width: 1.0;"/><polygon fill="#A80036" points="1106.4,232.859,1103.2455,223.529,1103.0129,229.181,1097.3608,228.9484,1106.4,232.859" style="stroke: #A80036; stroke-width: 1.0;"/><line style="stroke: #A80036; stroke-width: 1.0;" x1="1103.0129" x2="1097.595" y1="229.181" y2="223.2915"/><polygon fill="#A80036" points="1051.48,173.16,1052.6022,180.2833,1059.6091,181.9871,1058.4869,174.8638,1051.48,173.16" style="stroke: #A80036; stroke-width: 1.0;"/><!--MD5=[c0ff314f7f4c61c51e1b0f6f69c0c7b0]
link tictactoe.views.View to tictactoe.views.ResultView--><path d="M908.8065,140.4186 C908.8065,140.4186 810.375,183.238 765,210 C757.187,214.608 749.25,219.776 741.497,225.145 " fill="none" id="tictactoe.views.View-tictactoe.views.ResultView" style="stroke: #A80036; stroke-width: 1.0;"/><polygon fill="#A80036" points="730.689,232.83,740.3416,230.8738,734.7637,229.9322,735.7052,224.3543,730.689,232.83" style="stroke: #A80036; stroke-width: 1.0;"/><line style="stroke: #A80036; stroke-width: 1.0;" x1="734.7637" x2="741.283" y1="229.9322" y2="225.296"/><polygon fill="#A80036" points="919.911,135.87,912.8425,134.4428,908.8065,140.4186,915.875,141.8458,919.911,135.87" style="stroke: #A80036; stroke-width: 1.0;"/><!--MD5=[64fc6777edf7630c43b86a31046b7a41]
@startuml

class  tictactoe.views.BoardView{
~ board: Board
~ BoardView(Board)
~ write(): void
- printRowBoard(int): void
- printSquareValueBoard(int, int): void
}

class  tictactoe.views.CoordinateView{
~ read(String): Coordinate
}
utils.WithConsoleModel <|-down- tictactoe.views.CoordinateView
tictactoe.views.CoordinateView ..> tictactoe.views.ErrorView

class  tictactoe.views.ErrorView{
- {static} MESSAGES: String[]
- error: Error
~ ErrorView(Error)
~ read(String): Coordinate
}
utils.WithConsoleModel <|-down- tictactoe.views.ErrorView

class  tictactoe.views.ChoosePlayerView{
~ readPlayers(): void
}
utils.WithConsoleModel <|-down- tictactoe.views.ChoosePlayerView
tictactoe.views.ChoosePlayerView ..> tictactoe.views.MessageView
tictactoe.views.ChoosePlayerView ..> tictactoe.views.ErrorView

class  tictactoe.views.MachinePlayerView{
~ MachinePlayerView(Player)
~ readCoordinateToPut(): Coordinate
~ readCoordinatesToMove(): Coordinate[]
}
tictactoe.views.PlayerView <|-down- tictactoe.views.MachinePlayerView
tictactoe.views.MachinePlayerView ..> tictactoe.views.ErrorView

class  tictactoe.views.MessageView{
+ LINE_BREAK: MessageView
+ EMPTY: MessageView
+ SEPARATOR: MessageView
+ VERTICAL_LINE_CENTERED: MessageView
+ VERTICAL_LINE_LEFT: MessageView
+	PLAYER_WIN: MessageView
+	START_GAME: MessageView
+	CHOOSE_PLAYER: MessageView
- message: String
- console: Console
- MessageView(String)
~ getMessage(): String
~ write(): void
~ writeln(): void
}
tictactoe.views.MessageView ..> utils.Console

class  tictactoe.views.PlayerView{
# player: Player
~ PlayerView(Player)
~ {abstract} readCoordinateToPut(): Coordinate
~ {abstract} readCoordinatesToMove(): Coordinate[]
~ controlErrorsPutCoordinate(Coordinate): Error
~ controlErrorsMoveOriginCoordinate(Coordinate): Error
~ controlErrorsMoveTargetCoordinate(Coordinate, Coordinate): Error
}

class  tictactoe.views.PlayView{
~ game: Game
~ PlayView(Game)
~ interact(): boolean
}
tictactoe.views.PlayView ..> tictactoe.models.Game
tictactoe.views.PlayView ..> tictactoe.views.PlayerView

class tictactoe.views.ResultView{
~ game: Game
~ ResultView(Game)
~ interact(): void
}
tictactoe.views.ResultView ..> tictactoe.models.Game
tictactoe.views.ResultView ..> tictactoe.views.TokenView
tictactoe.views.ResultView ..> tictactoe.views.MessageView

class tictactoe.views.StartView{
~ game: Game
~ StartView(Game)
~ interact(): void
}
tictactoe.views.StartView ..> tictactoe.models.Game
tictactoe.views.StartView ..> tictactoe.views.ChoosePlayerView
tictactoe.views.StartView ..> tictactoe.views.BoardView
tictactoe.views.StartView ..> tictactoe.views.MessageView

class tictactoe.views.TokenView{
~ token: Token
~ TokenView(Token)
~ write(): void
}
utils.WithConsoleModel <|-down- tictactoe.views.TokenView

class  tictactoe.views.UserPlayerView{
~ {static} ENTER_COORDINATE_TO_PUT: String
~ {static} ENTER_COORDINATE_TO_REMOVE: String
~ UserPlayerView(Player)
~ readCoordinateToPut(): Coordinate
~ readCoordinatesToMove(): Coordinate[]
}
tictactoe.views.PlayerView <|-down- tictactoe.views.UserPlayerView
tictactoe.views.UserPlayerView ..> tictactoe.views.CoordinateView
tictactoe.views.UserPlayerView ..> tictactoe.views.ErrorView

class  tictactoe.views.View{
# game: Game
- startView: StartView
- playView: PlayView
- ResultView: ResultView
+ View(Game)
+ interact(): void
}
tictactoe.views.View *-down-> tictactoe.models.Game
tictactoe.views.View *-down-> tictactoe.views.StartView
tictactoe.views.View *-down-> tictactoe.views.PlayView
tictactoe.views.View *-down-> tictactoe.views.ResultView

@enduml

PlantUML version 1.2020.15(Sun Jun 28 13:39:45 CEST 2020)
(GPL source distribution)
Java Runtime: Java(TM) SE Runtime Environment
JVM: Java HotSpot(TM) 64-Bit Server VM
Default Encoding: windows-1252
Language: es
Country: ES
--></g></svg>