<?xml version="1.0" encoding="UTF-8" standalone="no"?><svg xmlns="http://www.w3.org/2000/svg" xmlns:xlink="http://www.w3.org/1999/xlink" contentScriptType="application/ecmascript" contentStyleType="text/css" height="647px" preserveAspectRatio="none" style="width:1898px;height:647px;" version="1.1" viewBox="0 0 1898 647" width="1898px" zoomAndPan="magnify"><defs><filter height="300%" id="fi6wb6heqvcxp" width="300%" x="-1" y="-1"><feGaussianBlur result="blurOut" stdDeviation="2.0"/><feColorMatrix in="blurOut" result="blurOut2" type="matrix" values="0 0 0 0 0 0 0 0 0 0 0 0 0 0 0 0 0 0 .4 0"/><feOffset dx="4.0" dy="4.0" in="blurOut2" result="blurOut3"/><feBlend in="SourceGraphic" in2="blurOut3" mode="normal"/></filter></defs><g><!--MD5=[e6fee0bfb21fcf33ee1c5981f69ba248]
cluster tictactoe.controllers.implementation--><polygon fill="#FFFFFF" filter="url(#fi6wb6heqvcxp)" points="16,68.35,276,68.35,283,91.9594,830,91.9594,830,635.35,16,635.35,16,68.35" style="stroke: #000000; stroke-width: 1.5;"/><line style="stroke: #000000; stroke-width: 1.5;" x1="16" x2="283" y1="91.9594" y2="91.9594"/><text fill="#000000" font-family="sans-serif" font-size="14" font-weight="bold" lengthAdjust="spacingAndGlyphs" textLength="254" x="20" y="84.8832">tictactoe.controllers.implementation</text><!--MD5=[ee7e9a007a7c4d40c0679a27f272732d]
cluster tictactoe.controllers--><polygon fill="#FFFFFF" filter="url(#fi6wb6heqvcxp)" points="854,95.85,1002,95.85,1009,119.4594,1876,119.4594,1876,195.85,854,195.85,854,95.85" style="stroke: #000000; stroke-width: 1.5;"/><line style="stroke: #000000; stroke-width: 1.5;" x1="854" x2="1009" y1="119.4594" y2="119.4594"/><text fill="#000000" font-family="sans-serif" font-size="14" font-weight="bold" lengthAdjust="spacingAndGlyphs" textLength="142" x="858" y="112.3832">tictactoe.controllers</text><!--MD5=[c333c1dfe43cc7b36e6e5cd610b33d4f]
class tictactoe.controllers.implementation.LogicImplementation--><rect fill="#FEFECE" filter="url(#fi6wb6heqvcxp)" height="103.3438" id="tictactoe.controllers.implementation.LogicImplementation" style="stroke: #A80036; stroke-width: 1.5;" width="321" x="360.5" y="104.35"/><ellipse cx="458.75" cy="120.35" fill="#ADD1B2" rx="11" ry="11" style="stroke: #A80036; stroke-width: 1.0;"/><path d="M461.5156,116.225 Q461.6719,116.0063 461.8594,115.8969 Q462.0469,115.7875 462.2656,115.7875 Q462.6406,115.7875 462.875,116.0531 Q463.1094,116.3031 463.1094,116.9125 L463.1094,118.3656 Q463.1094,118.975 462.875,119.2406 Q462.6406,119.5063 462.2656,119.5063 Q461.9219,119.5063 461.7188,119.3031 Q461.5156,119.1156 461.4063,118.6 Q461.3594,118.2406 461.1719,118.0531 Q460.8438,117.6781 460.2344,117.4594 Q459.625,117.2406 459,117.2406 Q458.2344,117.2406 457.5938,117.5688 Q456.9688,117.8969 456.4688,118.6469 Q455.9844,119.3969 455.9844,120.4281 L455.9844,121.5219 Q455.9844,122.7563 456.875,123.5844 Q457.7656,124.3969 459.3594,124.3969 Q460.2969,124.3969 460.9531,124.1469 Q461.3438,123.9906 461.7656,123.5531 Q462.0313,123.2875 462.1719,123.2094 Q462.3281,123.1313 462.5313,123.1313 Q462.8594,123.1313 463.1094,123.3969 Q463.375,123.6469 463.375,123.9906 Q463.375,124.3344 463.0313,124.7406 Q462.5313,125.3188 461.7344,125.6469 Q460.6563,126.1 459.3594,126.1 Q457.8438,126.1 456.6406,125.475 Q455.6563,124.975 454.9688,123.9125 Q454.2813,122.8344 454.2813,121.5531 L454.2813,120.3969 Q454.2813,119.0688 454.8906,117.9281 Q455.5156,116.7719 456.6094,116.1625 Q457.7031,115.5375 458.9375,115.5375 Q459.6719,115.5375 460.3125,115.7094 Q460.9688,115.8656 461.5156,116.225 Z "/><text fill="#000000" font-family="sans-serif" font-size="12" lengthAdjust="spacingAndGlyphs" textLength="116" x="479.25" y="125.2602">LogicImplementation</text><line style="stroke: #A80036; stroke-width: 1.5;" x1="361.5" x2="680.5" y1="136.35" y2="136.35"/><polygon fill="none" points="371.5,142.35,375.5,146.35,371.5,150.35,367.5,146.35" style="stroke: #B38D22; stroke-width: 1.0;"/><text fill="#000000" font-family="sans-serif" font-size="11" lengthAdjust="spacingAndGlyphs" textLength="283" x="380.5" y="151.7689">startControllerImplementation: StartControllerImplementation</text><polygon fill="none" points="371.5,156.1859,375.5,160.1859,371.5,164.1859,367.5,160.1859" style="stroke: #B38D22; stroke-width: 1.0;"/><text fill="#000000" font-family="sans-serif" font-size="11" lengthAdjust="spacingAndGlyphs" textLength="278" x="380.5" y="165.6049">playControllerImplementation: PlayControllerImplementation</text><polygon fill="none" points="371.5,170.0219,375.5,174.0219,371.5,178.0219,367.5,174.0219" style="stroke: #B38D22; stroke-width: 1.0;"/><text fill="#000000" font-family="sans-serif" font-size="11" lengthAdjust="spacingAndGlyphs" textLength="295" x="380.5" y="179.4408">resultControllerImplementation: ResultControllerImplementation</text><line style="stroke: #A80036; stroke-width: 1.5;" x1="361.5" x2="680.5" y1="185.8578" y2="185.8578"/><ellipse cx="371.5" cy="196.8578" fill="#84BE84" rx="3" ry="3" style="stroke: #038048; stroke-width: 1.0;"/><text fill="#000000" font-family="sans-serif" font-size="11" lengthAdjust="spacingAndGlyphs" textLength="104" x="380.5" y="201.2768">LogicImplementation()</text><!--MD5=[b5960a36d531caecc790a6aa4a9cbf0e]
class tictactoe.controllers.implementation.StartControllerImplementation--><rect fill="#FEFECE" filter="url(#fi6wb6heqvcxp)" height="89.5078" id="tictactoe.controllers.implementation.StartControllerImplementation" style="stroke: #A80036; stroke-width: 1.5;" width="212" x="32" y="398.35"/><ellipse cx="53.75" cy="414.35" fill="#ADD1B2" rx="11" ry="11" style="stroke: #A80036; stroke-width: 1.0;"/><path d="M56.5156,410.225 Q56.6719,410.0063 56.8594,409.8969 Q57.0469,409.7875 57.2656,409.7875 Q57.6406,409.7875 57.875,410.0531 Q58.1094,410.3031 58.1094,410.9125 L58.1094,412.3656 Q58.1094,412.975 57.875,413.2406 Q57.6406,413.5063 57.2656,413.5063 Q56.9219,413.5063 56.7188,413.3031 Q56.5156,413.1156 56.4063,412.6 Q56.3594,412.2406 56.1719,412.0531 Q55.8438,411.6781 55.2344,411.4594 Q54.625,411.2406 54,411.2406 Q53.2344,411.2406 52.5938,411.5688 Q51.9688,411.8969 51.4688,412.6469 Q50.9844,413.3969 50.9844,414.4281 L50.9844,415.5219 Q50.9844,416.7563 51.875,417.5844 Q52.7656,418.3969 54.3594,418.3969 Q55.2969,418.3969 55.9531,418.1469 Q56.3438,417.9906 56.7656,417.5531 Q57.0313,417.2875 57.1719,417.2094 Q57.3281,417.1313 57.5313,417.1313 Q57.8594,417.1313 58.1094,417.3969 Q58.375,417.6469 58.375,417.9906 Q58.375,418.3344 58.0313,418.7406 Q57.5313,419.3188 56.7344,419.6469 Q55.6563,420.1 54.3594,420.1 Q52.8438,420.1 51.6406,419.475 Q50.6563,418.975 49.9688,417.9125 Q49.2813,416.8344 49.2813,415.5531 L49.2813,414.3969 Q49.2813,413.0688 49.8906,411.9281 Q50.5156,410.7719 51.6094,410.1625 Q52.7031,409.5375 53.9375,409.5375 Q54.6719,409.5375 55.3125,409.7094 Q55.9688,409.8656 56.5156,410.225 Z "/><text fill="#000000" font-family="sans-serif" font-size="12" lengthAdjust="spacingAndGlyphs" textLength="165" x="69.25" y="419.2602">StartControllerImplementation</text><line style="stroke: #A80036; stroke-width: 1.5;" x1="33" x2="243" y1="430.35" y2="430.35"/><line style="stroke: #A80036; stroke-width: 1.5;" x1="33" x2="243" y1="438.35" y2="438.35"/><ellipse cx="43" cy="449.35" fill="#84BE84" rx="3" ry="3" style="stroke: #038048; stroke-width: 1.0;"/><text fill="#000000" font-family="sans-serif" font-size="11" lengthAdjust="spacingAndGlyphs" textLength="186" x="52" y="453.7689">StartControllerImplementation(Session)</text><ellipse cx="43" cy="463.1859" fill="#84BE84" rx="3" ry="3" style="stroke: #038048; stroke-width: 1.0;"/><text fill="#000000" font-family="sans-serif" font-size="11" lengthAdjust="spacingAndGlyphs" textLength="56" x="52" y="467.6049">start(): void</text><ellipse cx="43" cy="477.0219" fill="#84BE84" rx="3" ry="3" style="stroke: #038048; stroke-width: 1.0;"/><text fill="#000000" font-family="sans-serif" font-size="11" lengthAdjust="spacingAndGlyphs" textLength="112" x="52" y="481.4408">createPlayers(int): void</text><!--MD5=[35267400d7f893f50c4fd917d9bdb48b]
class tictactoe.controllers.implementation.ResultControllerImplementation--><rect fill="#FEFECE" filter="url(#fi6wb6heqvcxp)" height="89.5078" id="tictactoe.controllers.implementation.ResultControllerImplementation" style="stroke: #A80036; stroke-width: 1.5;" width="219" x="279.5" y="398.35"/><ellipse cx="299.45" cy="414.35" fill="#ADD1B2" rx="11" ry="11" style="stroke: #A80036; stroke-width: 1.0;"/><path d="M302.2156,410.225 Q302.3719,410.0063 302.5594,409.8969 Q302.7469,409.7875 302.9656,409.7875 Q303.3406,409.7875 303.575,410.0531 Q303.8094,410.3031 303.8094,410.9125 L303.8094,412.3656 Q303.8094,412.975 303.575,413.2406 Q303.3406,413.5063 302.9656,413.5063 Q302.6219,413.5063 302.4188,413.3031 Q302.2156,413.1156 302.1063,412.6 Q302.0594,412.2406 301.8719,412.0531 Q301.5438,411.6781 300.9344,411.4594 Q300.325,411.2406 299.7,411.2406 Q298.9344,411.2406 298.2938,411.5688 Q297.6688,411.8969 297.1688,412.6469 Q296.6844,413.3969 296.6844,414.4281 L296.6844,415.5219 Q296.6844,416.7563 297.575,417.5844 Q298.4656,418.3969 300.0594,418.3969 Q300.9969,418.3969 301.6531,418.1469 Q302.0438,417.9906 302.4656,417.5531 Q302.7313,417.2875 302.8719,417.2094 Q303.0281,417.1313 303.2313,417.1313 Q303.5594,417.1313 303.8094,417.3969 Q304.075,417.6469 304.075,417.9906 Q304.075,418.3344 303.7313,418.7406 Q303.2313,419.3188 302.4344,419.6469 Q301.3563,420.1 300.0594,420.1 Q298.5438,420.1 297.3406,419.475 Q296.3563,418.975 295.6688,417.9125 Q294.9813,416.8344 294.9813,415.5531 L294.9813,414.3969 Q294.9813,413.0688 295.5906,411.9281 Q296.2156,410.7719 297.3094,410.1625 Q298.4031,409.5375 299.6375,409.5375 Q300.3719,409.5375 301.0125,409.7094 Q301.6688,409.8656 302.2156,410.225 Z "/><text fill="#000000" font-family="sans-serif" font-size="12" lengthAdjust="spacingAndGlyphs" textLength="176" x="314.55" y="419.2602">ResultControllerImplementation</text><line style="stroke: #A80036; stroke-width: 1.5;" x1="280.5" x2="497.5" y1="430.35" y2="430.35"/><line style="stroke: #A80036; stroke-width: 1.5;" x1="280.5" x2="497.5" y1="438.35" y2="438.35"/><ellipse cx="290.5" cy="449.35" fill="#84BE84" rx="3" ry="3" style="stroke: #038048; stroke-width: 1.0;"/><text fill="#000000" font-family="sans-serif" font-size="11" lengthAdjust="spacingAndGlyphs" textLength="193" x="299.5" y="453.7689">ResultControllerImplementation(Session)</text><ellipse cx="290.5" cy="463.1859" fill="#84BE84" rx="3" ry="3" style="stroke: #038048; stroke-width: 1.0;"/><text fill="#000000" font-family="sans-serif" font-size="11" lengthAdjust="spacingAndGlyphs" textLength="60" x="299.5" y="467.6049">finish(): void</text><ellipse cx="290.5" cy="477.0219" fill="#84BE84" rx="3" ry="3" style="stroke: #038048; stroke-width: 1.0;"/><text fill="#000000" font-family="sans-serif" font-size="11" lengthAdjust="spacingAndGlyphs" textLength="141" x="299.5" y="481.4408">getOtherValueFromTurn(): int</text><!--MD5=[d3e7a610b4fe98669ce32319d2e69889]
class tictactoe.controllers.implementation.PlayControllerImplementation--><rect fill="#FEFECE" filter="url(#fi6wb6heqvcxp)" height="352.3906" id="tictactoe.controllers.implementation.PlayControllerImplementation" style="stroke: #A80036; stroke-width: 1.5;" width="280" x="534" y="267.35"/><ellipse cx="588.25" cy="283.35" fill="#ADD1B2" rx="11" ry="11" style="stroke: #A80036; stroke-width: 1.0;"/><path d="M591.0156,279.225 Q591.1719,279.0063 591.3594,278.8969 Q591.5469,278.7875 591.7656,278.7875 Q592.1406,278.7875 592.375,279.0531 Q592.6094,279.3031 592.6094,279.9125 L592.6094,281.3656 Q592.6094,281.975 592.375,282.2406 Q592.1406,282.5063 591.7656,282.5063 Q591.4219,282.5063 591.2188,282.3031 Q591.0156,282.1156 590.9063,281.6 Q590.8594,281.2406 590.6719,281.0531 Q590.3438,280.6781 589.7344,280.4594 Q589.125,280.2406 588.5,280.2406 Q587.7344,280.2406 587.0938,280.5688 Q586.4688,280.8969 585.9688,281.6469 Q585.4844,282.3969 585.4844,283.4281 L585.4844,284.5219 Q585.4844,285.7563 586.375,286.5844 Q587.2656,287.3969 588.8594,287.3969 Q589.7969,287.3969 590.4531,287.1469 Q590.8438,286.9906 591.2656,286.5531 Q591.5313,286.2875 591.6719,286.2094 Q591.8281,286.1313 592.0313,286.1313 Q592.3594,286.1313 592.6094,286.3969 Q592.875,286.6469 592.875,286.9906 Q592.875,287.3344 592.5313,287.7406 Q592.0313,288.3188 591.2344,288.6469 Q590.1563,289.1 588.8594,289.1 Q587.3438,289.1 586.1406,288.475 Q585.1563,287.975 584.4688,286.9125 Q583.7813,285.8344 583.7813,284.5531 L583.7813,283.3969 Q583.7813,282.0688 584.3906,280.9281 Q585.0156,279.7719 586.1094,279.1625 Q587.2031,278.5375 588.4375,278.5375 Q589.1719,278.5375 589.8125,278.7094 Q590.4688,278.8656 591.0156,279.225 Z "/><text fill="#000000" font-family="sans-serif" font-size="12" lengthAdjust="spacingAndGlyphs" textLength="163" x="608.75" y="288.2602">PlayControllerImplementation</text><line style="stroke: #A80036; stroke-width: 1.5;" x1="535" x2="813" y1="299.35" y2="299.35"/><rect fill="none" height="6" style="stroke: #C82930; stroke-width: 1.0;" width="6" x="542" y="307.35"/><text fill="#000000" font-family="sans-serif" font-size="11" lengthAdjust="spacingAndGlyphs" textLength="196" x="554" y="314.7689">movementController: MovementController</text><rect fill="none" height="6" style="stroke: #C82930; stroke-width: 1.0;" width="6" x="542" y="321.1859"/><text fill="#000000" font-family="sans-serif" font-size="11" lengthAdjust="spacingAndGlyphs" textLength="147" x="554" y="328.6049">undoController: UndoController</text><rect fill="none" height="6" style="stroke: #C82930; stroke-width: 1.0;" width="6" x="542" y="335.0219"/><text fill="#000000" font-family="sans-serif" font-size="11" lengthAdjust="spacingAndGlyphs" textLength="145" x="554" y="342.4408">redoController: RedoController</text><line style="stroke: #A80036; stroke-width: 1.5;" x1="535" x2="813" y1="348.8578" y2="348.8578"/><ellipse cx="545" cy="359.8578" fill="#84BE84" rx="3" ry="3" style="stroke: #038048; stroke-width: 1.0;"/><text fill="#000000" font-family="sans-serif" font-size="11" lengthAdjust="spacingAndGlyphs" textLength="183" x="554" y="364.2768">PlayControllerImplementation(Session)</text><ellipse cx="545" cy="373.6938" fill="#84BE84" rx="3" ry="3" style="stroke: #038048; stroke-width: 1.0;"/><text fill="#000000" font-family="sans-serif" font-size="11" lengthAdjust="spacingAndGlyphs" textLength="58" x="554" y="378.1127">undo(): void</text><ellipse cx="545" cy="387.5297" fill="#84BE84" rx="3" ry="3" style="stroke: #038048; stroke-width: 1.0;"/><text fill="#000000" font-family="sans-serif" font-size="11" lengthAdjust="spacingAndGlyphs" textLength="56" x="554" y="391.9486">redo(): void</text><ellipse cx="545" cy="401.3656" fill="#84BE84" rx="3" ry="3" style="stroke: #038048; stroke-width: 1.0;"/><text fill="#000000" font-family="sans-serif" font-size="11" lengthAdjust="spacingAndGlyphs" textLength="96" x="554" y="405.7846">undoable(): boolean</text><ellipse cx="545" cy="415.2016" fill="#84BE84" rx="3" ry="3" style="stroke: #038048; stroke-width: 1.0;"/><text fill="#000000" font-family="sans-serif" font-size="11" lengthAdjust="spacingAndGlyphs" textLength="94" x="554" y="419.6205">redoable(): boolean</text><ellipse cx="545" cy="429.0375" fill="#84BE84" rx="3" ry="3" style="stroke: #038048; stroke-width: 1.0;"/><text fill="#000000" font-family="sans-serif" font-size="11" lengthAdjust="spacingAndGlyphs" textLength="224" x="554" y="433.4564">getTypeOfTokenPlayerFromTurn(): PlayerType</text><ellipse cx="545" cy="442.8734" fill="#84BE84" rx="3" ry="3" style="stroke: #038048; stroke-width: 1.0;"/><text fill="#000000" font-family="sans-serif" font-size="11" lengthAdjust="spacingAndGlyphs" textLength="178" x="554" y="447.2924">getErrorsPutCoordinate(int, int): Error</text><ellipse cx="545" cy="456.7094" fill="#84BE84" rx="3" ry="3" style="stroke: #038048; stroke-width: 1.0;"/><text fill="#000000" font-family="sans-serif" font-size="11" lengthAdjust="spacingAndGlyphs" textLength="217" x="554" y="461.1283">getErrorsMoveOriginCoordinate(int, int): Error</text><ellipse cx="545" cy="470.5453" fill="#84BE84" rx="3" ry="3" style="stroke: #038048; stroke-width: 1.0;"/><text fill="#000000" font-family="sans-serif" font-size="11" lengthAdjust="spacingAndGlyphs" textLength="254" x="554" y="474.9643">getErrorsMoveTargetCoordinate(int, int, int, int): Error</text><ellipse cx="545" cy="484.3813" fill="#84BE84" rx="3" ry="3" style="stroke: #038048; stroke-width: 1.0;"/><text fill="#000000" font-family="sans-serif" font-size="11" lengthAdjust="spacingAndGlyphs" textLength="164" x="554" y="488.8002">isCoordinateValid(int, int): boolean</text><ellipse cx="545" cy="498.2172" fill="#84BE84" rx="3" ry="3" style="stroke: #038048; stroke-width: 1.0;"/><text fill="#000000" font-family="sans-serif" font-size="11" lengthAdjust="spacingAndGlyphs" textLength="165" x="554" y="502.6361">generateRandomCoordinate(): int[]</text><ellipse cx="545" cy="512.0531" fill="#84BE84" rx="3" ry="3" style="stroke: #038048; stroke-width: 1.0;"/><text fill="#000000" font-family="sans-serif" font-size="11" lengthAdjust="spacingAndGlyphs" textLength="133" x="554" y="516.4721">isBoardComplete(): boolean</text><ellipse cx="545" cy="525.8891" fill="#84BE84" rx="3" ry="3" style="stroke: #038048; stroke-width: 1.0;"/><text fill="#000000" font-family="sans-serif" font-size="11" lengthAdjust="spacingAndGlyphs" textLength="182" x="554" y="530.308">putTokenPlayerFromTurn(int, int): void</text><ellipse cx="545" cy="539.725" fill="#84BE84" rx="3" ry="3" style="stroke: #038048; stroke-width: 1.0;"/><text fill="#000000" font-family="sans-serif" font-size="11" lengthAdjust="spacingAndGlyphs" textLength="227" x="554" y="544.1439">moveTokenPlayerFromTurn(int, int, int, int): void</text><ellipse cx="545" cy="553.5609" fill="#84BE84" rx="3" ry="3" style="stroke: #038048; stroke-width: 1.0;"/><text fill="#000000" font-family="sans-serif" font-size="11" lengthAdjust="spacingAndGlyphs" textLength="92" x="554" y="557.9799">changeTurn(): void</text><ellipse cx="545" cy="567.3969" fill="#84BE84" rx="3" ry="3" style="stroke: #038048; stroke-width: 1.0;"/><text fill="#000000" font-family="sans-serif" font-size="11" lengthAdjust="spacingAndGlyphs" textLength="131" x="554" y="571.8158">getTokenChar(int, int): char</text><ellipse cx="545" cy="581.2328" fill="#84BE84" rx="3" ry="3" style="stroke: #038048; stroke-width: 1.0;"/><text fill="#000000" font-family="sans-serif" font-size="11" lengthAdjust="spacingAndGlyphs" textLength="146" x="554" y="585.6518">isEmptyToken(int, int): boolean</text><ellipse cx="545" cy="595.0688" fill="#84BE84" rx="3" ry="3" style="stroke: #038048; stroke-width: 1.0;"/><text fill="#000000" font-family="sans-serif" font-size="11" lengthAdjust="spacingAndGlyphs" textLength="141" x="554" y="599.4877">getCoordinateDimension(): int</text><ellipse cx="545" cy="608.9047" fill="#84BE84" rx="3" ry="3" style="stroke: #038048; stroke-width: 1.0;"/><text fill="#000000" font-family="sans-serif" font-size="11" lengthAdjust="spacingAndGlyphs" textLength="110" x="554" y="613.3236">isTicTacToe(): boolean</text><!--MD5=[3b8962fd5847b9038b2e29740dae8054]
class tictactoe.controllers.Logic--><rect fill="#FEFECE" filter="url(#fi6wb6heqvcxp)" height="48" id="tictactoe.controllers.Logic" style="stroke: #A80036; stroke-width: 1.5;" width="62" x="1017" y="131.85"/><ellipse cx="1032" cy="147.85" fill="#ADD1B2" rx="11" ry="11" style="stroke: #A80036; stroke-width: 1.0;"/><path d="M1034.7656,143.725 Q1034.9219,143.5063 1035.1094,143.3969 Q1035.2969,143.2875 1035.5156,143.2875 Q1035.8906,143.2875 1036.125,143.5531 Q1036.3594,143.8031 1036.3594,144.4125 L1036.3594,145.8656 Q1036.3594,146.475 1036.125,146.7406 Q1035.8906,147.0063 1035.5156,147.0063 Q1035.1719,147.0063 1034.9688,146.8031 Q1034.7656,146.6156 1034.6563,146.1 Q1034.6094,145.7406 1034.4219,145.5531 Q1034.0938,145.1781 1033.4844,144.9594 Q1032.875,144.7406 1032.25,144.7406 Q1031.4844,144.7406 1030.8438,145.0688 Q1030.2188,145.3969 1029.7188,146.1469 Q1029.2344,146.8969 1029.2344,147.9281 L1029.2344,149.0219 Q1029.2344,150.2563 1030.125,151.0844 Q1031.0156,151.8969 1032.6094,151.8969 Q1033.5469,151.8969 1034.2031,151.6469 Q1034.5938,151.4906 1035.0156,151.0531 Q1035.2813,150.7875 1035.4219,150.7094 Q1035.5781,150.6313 1035.7813,150.6313 Q1036.1094,150.6313 1036.3594,150.8969 Q1036.625,151.1469 1036.625,151.4906 Q1036.625,151.8344 1036.2813,152.2406 Q1035.7813,152.8188 1034.9844,153.1469 Q1033.9063,153.6 1032.6094,153.6 Q1031.0938,153.6 1029.8906,152.975 Q1028.9063,152.475 1028.2188,151.4125 Q1027.5313,150.3344 1027.5313,149.0531 L1027.5313,147.8969 Q1027.5313,146.5688 1028.1406,145.4281 Q1028.7656,144.2719 1029.8594,143.6625 Q1030.9531,143.0375 1032.1875,143.0375 Q1032.9219,143.0375 1033.5625,143.2094 Q1034.2188,143.3656 1034.7656,143.725 Z "/><text fill="#000000" font-family="sans-serif" font-size="12" lengthAdjust="spacingAndGlyphs" textLength="30" x="1046" y="152.7602">Logic</text><line style="stroke: #A80036; stroke-width: 1.5;" x1="1018" x2="1078" y1="163.85" y2="163.85"/><line style="stroke: #A80036; stroke-width: 1.5;" x1="1018" x2="1078" y1="171.85" y2="171.85"/><!--MD5=[b574e60c06c50037ff1b014277a67d62]
class tictactoe.controllers.PlayController--><rect fill="#FEFECE" filter="url(#fi6wb6heqvcxp)" height="48" id="tictactoe.controllers.PlayController" style="stroke: #A80036; stroke-width: 1.5;" width="109" x="1448.5" y="131.85"/><ellipse cx="1463.5" cy="147.85" fill="#ADD1B2" rx="11" ry="11" style="stroke: #A80036; stroke-width: 1.0;"/><path d="M1466.2656,143.725 Q1466.4219,143.5063 1466.6094,143.3969 Q1466.7969,143.2875 1467.0156,143.2875 Q1467.3906,143.2875 1467.625,143.5531 Q1467.8594,143.8031 1467.8594,144.4125 L1467.8594,145.8656 Q1467.8594,146.475 1467.625,146.7406 Q1467.3906,147.0063 1467.0156,147.0063 Q1466.6719,147.0063 1466.4688,146.8031 Q1466.2656,146.6156 1466.1563,146.1 Q1466.1094,145.7406 1465.9219,145.5531 Q1465.5938,145.1781 1464.9844,144.9594 Q1464.375,144.7406 1463.75,144.7406 Q1462.9844,144.7406 1462.3438,145.0688 Q1461.7188,145.3969 1461.2188,146.1469 Q1460.7344,146.8969 1460.7344,147.9281 L1460.7344,149.0219 Q1460.7344,150.2563 1461.625,151.0844 Q1462.5156,151.8969 1464.1094,151.8969 Q1465.0469,151.8969 1465.7031,151.6469 Q1466.0938,151.4906 1466.5156,151.0531 Q1466.7813,150.7875 1466.9219,150.7094 Q1467.0781,150.6313 1467.2813,150.6313 Q1467.6094,150.6313 1467.8594,150.8969 Q1468.125,151.1469 1468.125,151.4906 Q1468.125,151.8344 1467.7813,152.2406 Q1467.2813,152.8188 1466.4844,153.1469 Q1465.4063,153.6 1464.1094,153.6 Q1462.5938,153.6 1461.3906,152.975 Q1460.4063,152.475 1459.7188,151.4125 Q1459.0313,150.3344 1459.0313,149.0531 L1459.0313,147.8969 Q1459.0313,146.5688 1459.6406,145.4281 Q1460.2656,144.2719 1461.3594,143.6625 Q1462.4531,143.0375 1463.6875,143.0375 Q1464.4219,143.0375 1465.0625,143.2094 Q1465.7188,143.3656 1466.2656,143.725 Z "/><text fill="#000000" font-family="sans-serif" font-size="12" lengthAdjust="spacingAndGlyphs" textLength="77" x="1477.5" y="152.7602">PlayController</text><line style="stroke: #A80036; stroke-width: 1.5;" x1="1449.5" x2="1556.5" y1="163.85" y2="163.85"/><line style="stroke: #A80036; stroke-width: 1.5;" x1="1449.5" x2="1556.5" y1="171.85" y2="171.85"/><!--MD5=[24677159852abec703b2234099a98eae]
class tictactoe.controllers.MovementController--><rect fill="#FEFECE" filter="url(#fi6wb6heqvcxp)" height="48" id="tictactoe.controllers.MovementController" style="stroke: #A80036; stroke-width: 1.5;" width="142" x="1271" y="131.85"/><ellipse cx="1286" cy="147.85" fill="#ADD1B2" rx="11" ry="11" style="stroke: #A80036; stroke-width: 1.0;"/><path d="M1288.7656,143.725 Q1288.9219,143.5063 1289.1094,143.3969 Q1289.2969,143.2875 1289.5156,143.2875 Q1289.8906,143.2875 1290.125,143.5531 Q1290.3594,143.8031 1290.3594,144.4125 L1290.3594,145.8656 Q1290.3594,146.475 1290.125,146.7406 Q1289.8906,147.0063 1289.5156,147.0063 Q1289.1719,147.0063 1288.9688,146.8031 Q1288.7656,146.6156 1288.6563,146.1 Q1288.6094,145.7406 1288.4219,145.5531 Q1288.0938,145.1781 1287.4844,144.9594 Q1286.875,144.7406 1286.25,144.7406 Q1285.4844,144.7406 1284.8438,145.0688 Q1284.2188,145.3969 1283.7188,146.1469 Q1283.2344,146.8969 1283.2344,147.9281 L1283.2344,149.0219 Q1283.2344,150.2563 1284.125,151.0844 Q1285.0156,151.8969 1286.6094,151.8969 Q1287.5469,151.8969 1288.2031,151.6469 Q1288.5938,151.4906 1289.0156,151.0531 Q1289.2813,150.7875 1289.4219,150.7094 Q1289.5781,150.6313 1289.7813,150.6313 Q1290.1094,150.6313 1290.3594,150.8969 Q1290.625,151.1469 1290.625,151.4906 Q1290.625,151.8344 1290.2813,152.2406 Q1289.7813,152.8188 1288.9844,153.1469 Q1287.9063,153.6 1286.6094,153.6 Q1285.0938,153.6 1283.8906,152.975 Q1282.9063,152.475 1282.2188,151.4125 Q1281.5313,150.3344 1281.5313,149.0531 L1281.5313,147.8969 Q1281.5313,146.5688 1282.1406,145.4281 Q1282.7656,144.2719 1283.8594,143.6625 Q1284.9531,143.0375 1286.1875,143.0375 Q1286.9219,143.0375 1287.5625,143.2094 Q1288.2188,143.3656 1288.7656,143.725 Z "/><text fill="#000000" font-family="sans-serif" font-size="12" lengthAdjust="spacingAndGlyphs" textLength="110" x="1300" y="152.7602">MovementController</text><line style="stroke: #A80036; stroke-width: 1.5;" x1="1272" x2="1412" y1="163.85" y2="163.85"/><line style="stroke: #A80036; stroke-width: 1.5;" x1="1272" x2="1412" y1="171.85" y2="171.85"/><!--MD5=[1f5f35d7f9326073e91e7944d692e6ef]
class tictactoe.controllers.UndoController--><rect fill="#FEFECE" filter="url(#fi6wb6heqvcxp)" height="48" id="tictactoe.controllers.UndoController" style="stroke: #A80036; stroke-width: 1.5;" width="116" x="1744" y="131.85"/><ellipse cx="1759" cy="147.85" fill="#ADD1B2" rx="11" ry="11" style="stroke: #A80036; stroke-width: 1.0;"/><path d="M1761.7656,143.725 Q1761.9219,143.5063 1762.1094,143.3969 Q1762.2969,143.2875 1762.5156,143.2875 Q1762.8906,143.2875 1763.125,143.5531 Q1763.3594,143.8031 1763.3594,144.4125 L1763.3594,145.8656 Q1763.3594,146.475 1763.125,146.7406 Q1762.8906,147.0063 1762.5156,147.0063 Q1762.1719,147.0063 1761.9688,146.8031 Q1761.7656,146.6156 1761.6563,146.1 Q1761.6094,145.7406 1761.4219,145.5531 Q1761.0938,145.1781 1760.4844,144.9594 Q1759.875,144.7406 1759.25,144.7406 Q1758.4844,144.7406 1757.8438,145.0688 Q1757.2188,145.3969 1756.7188,146.1469 Q1756.2344,146.8969 1756.2344,147.9281 L1756.2344,149.0219 Q1756.2344,150.2563 1757.125,151.0844 Q1758.0156,151.8969 1759.6094,151.8969 Q1760.5469,151.8969 1761.2031,151.6469 Q1761.5938,151.4906 1762.0156,151.0531 Q1762.2813,150.7875 1762.4219,150.7094 Q1762.5781,150.6313 1762.7813,150.6313 Q1763.1094,150.6313 1763.3594,150.8969 Q1763.625,151.1469 1763.625,151.4906 Q1763.625,151.8344 1763.2813,152.2406 Q1762.7813,152.8188 1761.9844,153.1469 Q1760.9063,153.6 1759.6094,153.6 Q1758.0938,153.6 1756.8906,152.975 Q1755.9063,152.475 1755.2188,151.4125 Q1754.5313,150.3344 1754.5313,149.0531 L1754.5313,147.8969 Q1754.5313,146.5688 1755.1406,145.4281 Q1755.7656,144.2719 1756.8594,143.6625 Q1757.9531,143.0375 1759.1875,143.0375 Q1759.9219,143.0375 1760.5625,143.2094 Q1761.2188,143.3656 1761.7656,143.725 Z "/><text fill="#000000" font-family="sans-serif" font-size="12" lengthAdjust="spacingAndGlyphs" textLength="84" x="1773" y="152.7602">UndoController</text><line style="stroke: #A80036; stroke-width: 1.5;" x1="1745" x2="1859" y1="163.85" y2="163.85"/><line style="stroke: #A80036; stroke-width: 1.5;" x1="1745" x2="1859" y1="171.85" y2="171.85"/><!--MD5=[1bd008d284a521cfc942b8fbe0753cf3]
class tictactoe.controllers.RedoController--><rect fill="#FEFECE" filter="url(#fi6wb6heqvcxp)" height="48" id="tictactoe.controllers.RedoController" style="stroke: #A80036; stroke-width: 1.5;" width="116" x="1593" y="131.85"/><ellipse cx="1608" cy="147.85" fill="#ADD1B2" rx="11" ry="11" style="stroke: #A80036; stroke-width: 1.0;"/><path d="M1610.7656,143.725 Q1610.9219,143.5063 1611.1094,143.3969 Q1611.2969,143.2875 1611.5156,143.2875 Q1611.8906,143.2875 1612.125,143.5531 Q1612.3594,143.8031 1612.3594,144.4125 L1612.3594,145.8656 Q1612.3594,146.475 1612.125,146.7406 Q1611.8906,147.0063 1611.5156,147.0063 Q1611.1719,147.0063 1610.9688,146.8031 Q1610.7656,146.6156 1610.6563,146.1 Q1610.6094,145.7406 1610.4219,145.5531 Q1610.0938,145.1781 1609.4844,144.9594 Q1608.875,144.7406 1608.25,144.7406 Q1607.4844,144.7406 1606.8438,145.0688 Q1606.2188,145.3969 1605.7188,146.1469 Q1605.2344,146.8969 1605.2344,147.9281 L1605.2344,149.0219 Q1605.2344,150.2563 1606.125,151.0844 Q1607.0156,151.8969 1608.6094,151.8969 Q1609.5469,151.8969 1610.2031,151.6469 Q1610.5938,151.4906 1611.0156,151.0531 Q1611.2813,150.7875 1611.4219,150.7094 Q1611.5781,150.6313 1611.7813,150.6313 Q1612.1094,150.6313 1612.3594,150.8969 Q1612.625,151.1469 1612.625,151.4906 Q1612.625,151.8344 1612.2813,152.2406 Q1611.7813,152.8188 1610.9844,153.1469 Q1609.9063,153.6 1608.6094,153.6 Q1607.0938,153.6 1605.8906,152.975 Q1604.9063,152.475 1604.2188,151.4125 Q1603.5313,150.3344 1603.5313,149.0531 L1603.5313,147.8969 Q1603.5313,146.5688 1604.1406,145.4281 Q1604.7656,144.2719 1605.8594,143.6625 Q1606.9531,143.0375 1608.1875,143.0375 Q1608.9219,143.0375 1609.5625,143.2094 Q1610.2188,143.3656 1610.7656,143.725 Z "/><text fill="#000000" font-family="sans-serif" font-size="12" lengthAdjust="spacingAndGlyphs" textLength="84" x="1622" y="152.7602">RedoController</text><line style="stroke: #A80036; stroke-width: 1.5;" x1="1594" x2="1708" y1="163.85" y2="163.85"/><line style="stroke: #A80036; stroke-width: 1.5;" x1="1594" x2="1708" y1="171.85" y2="171.85"/><!--MD5=[2c3ef77d19c2424f55dfd6db4f13e20e]
class tictactoe.controllers.ResultController--><rect fill="#FEFECE" filter="url(#fi6wb6heqvcxp)" height="48" id="tictactoe.controllers.ResultController" style="stroke: #A80036; stroke-width: 1.5;" width="122" x="1114" y="131.85"/><ellipse cx="1129" cy="147.85" fill="#ADD1B2" rx="11" ry="11" style="stroke: #A80036; stroke-width: 1.0;"/><path d="M1131.7656,143.725 Q1131.9219,143.5063 1132.1094,143.3969 Q1132.2969,143.2875 1132.5156,143.2875 Q1132.8906,143.2875 1133.125,143.5531 Q1133.3594,143.8031 1133.3594,144.4125 L1133.3594,145.8656 Q1133.3594,146.475 1133.125,146.7406 Q1132.8906,147.0063 1132.5156,147.0063 Q1132.1719,147.0063 1131.9688,146.8031 Q1131.7656,146.6156 1131.6563,146.1 Q1131.6094,145.7406 1131.4219,145.5531 Q1131.0938,145.1781 1130.4844,144.9594 Q1129.875,144.7406 1129.25,144.7406 Q1128.4844,144.7406 1127.8438,145.0688 Q1127.2188,145.3969 1126.7188,146.1469 Q1126.2344,146.8969 1126.2344,147.9281 L1126.2344,149.0219 Q1126.2344,150.2563 1127.125,151.0844 Q1128.0156,151.8969 1129.6094,151.8969 Q1130.5469,151.8969 1131.2031,151.6469 Q1131.5938,151.4906 1132.0156,151.0531 Q1132.2813,150.7875 1132.4219,150.7094 Q1132.5781,150.6313 1132.7813,150.6313 Q1133.1094,150.6313 1133.3594,150.8969 Q1133.625,151.1469 1133.625,151.4906 Q1133.625,151.8344 1133.2813,152.2406 Q1132.7813,152.8188 1131.9844,153.1469 Q1130.9063,153.6 1129.6094,153.6 Q1128.0938,153.6 1126.8906,152.975 Q1125.9063,152.475 1125.2188,151.4125 Q1124.5313,150.3344 1124.5313,149.0531 L1124.5313,147.8969 Q1124.5313,146.5688 1125.1406,145.4281 Q1125.7656,144.2719 1126.8594,143.6625 Q1127.9531,143.0375 1129.1875,143.0375 Q1129.9219,143.0375 1130.5625,143.2094 Q1131.2188,143.3656 1131.7656,143.725 Z "/><text fill="#000000" font-family="sans-serif" font-size="12" lengthAdjust="spacingAndGlyphs" textLength="90" x="1143" y="152.7602">ResultController</text><line style="stroke: #A80036; stroke-width: 1.5;" x1="1115" x2="1235" y1="163.85" y2="163.85"/><line style="stroke: #A80036; stroke-width: 1.5;" x1="1115" x2="1235" y1="171.85" y2="171.85"/><!--MD5=[8ede4dbfb3b498095887802b64b699f0]
class tictactoe.controllers.StartController--><rect fill="#FEFECE" filter="url(#fi6wb6heqvcxp)" height="48" id="tictactoe.controllers.StartController" style="stroke: #A80036; stroke-width: 1.5;" width="111" x="870.5" y="131.85"/><ellipse cx="885.5" cy="147.85" fill="#ADD1B2" rx="11" ry="11" style="stroke: #A80036; stroke-width: 1.0;"/><path d="M888.2656,143.725 Q888.4219,143.5063 888.6094,143.3969 Q888.7969,143.2875 889.0156,143.2875 Q889.3906,143.2875 889.625,143.5531 Q889.8594,143.8031 889.8594,144.4125 L889.8594,145.8656 Q889.8594,146.475 889.625,146.7406 Q889.3906,147.0063 889.0156,147.0063 Q888.6719,147.0063 888.4688,146.8031 Q888.2656,146.6156 888.1563,146.1 Q888.1094,145.7406 887.9219,145.5531 Q887.5938,145.1781 886.9844,144.9594 Q886.375,144.7406 885.75,144.7406 Q884.9844,144.7406 884.3438,145.0688 Q883.7188,145.3969 883.2188,146.1469 Q882.7344,146.8969 882.7344,147.9281 L882.7344,149.0219 Q882.7344,150.2563 883.625,151.0844 Q884.5156,151.8969 886.1094,151.8969 Q887.0469,151.8969 887.7031,151.6469 Q888.0938,151.4906 888.5156,151.0531 Q888.7813,150.7875 888.9219,150.7094 Q889.0781,150.6313 889.2813,150.6313 Q889.6094,150.6313 889.8594,150.8969 Q890.125,151.1469 890.125,151.4906 Q890.125,151.8344 889.7813,152.2406 Q889.2813,152.8188 888.4844,153.1469 Q887.4063,153.6 886.1094,153.6 Q884.5938,153.6 883.3906,152.975 Q882.4063,152.475 881.7188,151.4125 Q881.0313,150.3344 881.0313,149.0531 L881.0313,147.8969 Q881.0313,146.5688 881.6406,145.4281 Q882.2656,144.2719 883.3594,143.6625 Q884.4531,143.0375 885.6875,143.0375 Q886.4219,143.0375 887.0625,143.2094 Q887.7188,143.3656 888.2656,143.725 Z "/><text fill="#000000" font-family="sans-serif" font-size="12" lengthAdjust="spacingAndGlyphs" textLength="79" x="899.5" y="152.7602">StartController</text><line style="stroke: #A80036; stroke-width: 1.5;" x1="871.5" x2="980.5" y1="163.85" y2="163.85"/><line style="stroke: #A80036; stroke-width: 1.5;" x1="871.5" x2="980.5" y1="171.85" y2="171.85"/><!--MD5=[84529a1477187d2e134693bd654cc92f]
reverse link tictactoe.controllers.Logic to tictactoe.controllers.implementation.LogicImplementation--><path d="M1037.77,112.248 C1028.42,83.267 1011.35,47.496 981.5,30.35 C939.106,6 919.668,21.986 871.5,30.35 C789.511,44.586 701.336,76.246 633.936,104.204 " fill="none" id="tictactoe.controllers.Logic&lt;-tictactoe.controllers.implementation.LogicImplementation" style="stroke: #A80036; stroke-width: 1.0;"/><polygon fill="none" points="1044.59,110.638,1043.29,131.788,1031.12,114.443,1044.59,110.638" style="stroke: #A80036; stroke-width: 1.0;"/><!--MD5=[1a589552240386b338b4a0589382d188]
link tictactoe.controllers.implementation.LogicImplementation to tictactoe.controllers.implementation.StartControllerImplementation--><path d="M353.2949,212.3194 C353.2949,212.3194 288.739,245.781 262,267.35 C221.552,299.978 188.353,349.042 166.519,386.924 " fill="none" id="tictactoe.controllers.implementation.LogicImplementation-tictactoe.controllers.implementation.StartControllerImplementation" style="stroke: #A80036; stroke-width: 1.0;"/><polygon fill="#A80036" points="160.113,398.29,168.0164,392.4133,162.5679,393.9341,161.047,388.4855,160.113,398.29" style="stroke: #A80036; stroke-width: 1.0;"/><line style="stroke: #A80036; stroke-width: 1.0;" x1="162.5679" x2="166.496" y1="393.9341" y2="386.965"/><polygon fill="#A80036" points="364.218,207.351,357.1003,206.1942,353.2949,212.3194,360.4126,213.4763,364.218,207.351" style="stroke: #A80036; stroke-width: 1.0;"/><!--MD5=[e10138e16c48928daa9f5987aa3092bf]
link tictactoe.controllers.implementation.LogicImplementation to tictactoe.controllers.implementation.ResultControllerImplementation--><path d="M492.5165,218.4549 C492.5165,218.4549 437.171,338.162 414.977,386.164 " fill="none" id="tictactoe.controllers.implementation.LogicImplementation-tictactoe.controllers.implementation.ResultControllerImplementation" style="stroke: #A80036; stroke-width: 1.0;"/><polygon fill="#A80036" points="409.414,398.197,416.8217,391.7065,411.5123,393.6586,409.5603,388.3492,409.414,398.197" style="stroke: #A80036; stroke-width: 1.0;"/><line style="stroke: #A80036; stroke-width: 1.0;" x1="411.5123" x2="414.87" y1="393.6586" y2="386.3965"/><polygon fill="#A80036" points="497.553,207.563,491.4041,211.3301,492.5165,218.4549,498.6654,214.6878,497.553,207.563" style="stroke: #A80036; stroke-width: 1.0;"/><!--MD5=[f2ab626cbeac3ab8a7cc738a1d00f3c3]
link tictactoe.controllers.implementation.LogicImplementation to tictactoe.controllers.implementation.PlayControllerImplementation--><path d="M553.8447,218.1402 C553.8447,218.1402 567.014,242.714 573.795,255.367 " fill="none" id="tictactoe.controllers.implementation.LogicImplementation-tictactoe.controllers.implementation.PlayControllerImplementation" style="stroke: #A80036; stroke-width: 1.0;"/><polygon fill="#A80036" points="580.093,267.119,579.367,257.2969,577.731,262.7121,572.3159,261.0761,580.093,267.119" style="stroke: #A80036; stroke-width: 1.0;"/><line style="stroke: #A80036; stroke-width: 1.0;" x1="577.731" x2="573.9525" y1="262.7121" y2="255.6605"/><polygon fill="#A80036" points="548.177,207.563,547.4851,214.7408,553.8447,218.1402,554.5366,210.9624,548.177,207.563" style="stroke: #A80036; stroke-width: 1.0;"/><!--MD5=[d5f36abcbbee75d6ba99a6d2e005ace5]
reverse link tictactoe.controllers.PlayController to tictactoe.controllers.implementation.PlayControllerImplementation--><path d="M1458.14,191.471 C1449.43,197.273 1440.15,202.857 1431,207.35 C1226.56,307.708 970.071,376.522 814.277,412.635 " fill="none" id="tictactoe.controllers.PlayController&lt;-tictactoe.controllers.implementation.PlayControllerImplementation" style="stroke: #A80036; stroke-width: 1.0;"/><polygon fill="none" points="1454.14,185.73,1474.51,179.913,1462.21,197.166,1454.14,185.73" style="stroke: #A80036; stroke-width: 1.0;"/><!--MD5=[bfdd2e07fce2f0e06ea290db20a0eb2b]
link tictactoe.controllers.implementation.PlayControllerImplementation to tictactoe.controllers.MovementController--><path d="M825.2456,387.5409 C825.2456,387.5409 1112.24,276.348 1254,207.35 C1266.84,201.099 1280.38,193.742 1292.88,186.606 " fill="none" id="tictactoe.controllers.implementation.PlayControllerImplementation-tictactoe.controllers.MovementController" style="stroke: #A80036; stroke-width: 1.0;"/><polygon fill="#A80036" points="1304.49,179.875,1294.6982,180.9337,1300.1657,182.3851,1298.7144,187.8526,1304.49,179.875" style="stroke: #A80036; stroke-width: 1.0;"/><line style="stroke: #A80036; stroke-width: 1.0;" x1="1300.1657" x2="1293.245" y1="182.3851" y2="186.3945"/><polygon fill="#A80036" points="814.008,391.75,821.0298,393.3913,825.2456,387.5409,818.2237,385.8996,814.008,391.75" style="stroke: #A80036; stroke-width: 1.0;"/><!--MD5=[bf4f3a27df0a995f1a88a64451b5db0a]
link tictactoe.controllers.implementation.PlayControllerImplementation to tictactoe.controllers.UndoController--><path d="M826.037,426.4246 C826.037,426.4246 1422.98,338.074 1727,207.35 C1739.09,202.15 1751.31,194.937 1762.28,187.588 " fill="none" id="tictactoe.controllers.implementation.PlayControllerImplementation-tictactoe.controllers.UndoController" style="stroke: #A80036; stroke-width: 1.0;"/><polygon fill="#A80036" points="1773.19,179.959,1763.5213,181.834,1769.0911,182.8224,1768.1027,188.3922,1773.19,179.959" style="stroke: #A80036; stroke-width: 1.0;"/><line style="stroke: #A80036; stroke-width: 1.0;" x1="1769.0911" x2="1762.535" y1="182.8224" y2="187.407"/><polygon fill="#A80036" points="814.126,427.883,820.5677,431.1242,826.037,426.4246,819.5954,423.1835,814.126,427.883" style="stroke: #A80036; stroke-width: 1.0;"/><!--MD5=[b2076e75e31416059cc9356af2d99480]
link tictactoe.controllers.implementation.PlayControllerImplementation to tictactoe.controllers.RedoController--><path d="M826.0762,418.5644 C826.0762,418.5644 1324.81,319.319 1575,207.35 C1587.02,201.971 1599.25,194.76 1610.28,187.475 " fill="none" id="tictactoe.controllers.implementation.PlayControllerImplementation-tictactoe.controllers.RedoController" style="stroke: #A80036; stroke-width: 1.0;"/><polygon fill="#A80036" points="1621.28,179.93,1611.5958,181.7235,1617.1571,182.7588,1616.1219,188.3201,1621.28,179.93" style="stroke: #A80036; stroke-width: 1.0;"/><line style="stroke: #A80036; stroke-width: 1.0;" x1="1617.1571" x2="1610.565" y1="182.7588" y2="187.281"/><polygon fill="#A80036" points="814.255,420.628,820.8535,423.5366,826.0762,418.5644,819.4777,415.6558,814.255,420.628" style="stroke: #A80036; stroke-width: 1.0;"/><!--MD5=[25d3a21eb74faa5b2d0a75684cfea1d6]
reverse link tictactoe.controllers.ResultController to tictactoe.controllers.implementation.ResultControllerImplementation--><path d="M1129.61,191.269 C1119.35,197.584 1108.17,203.415 1097,207.35 C852.156,293.613 740.899,137.695 516,267.35 C464.615,296.973 428.282,356.692 407.994,398.072 " fill="none" id="tictactoe.controllers.ResultController&lt;-tictactoe.controllers.implementation.ResultControllerImplementation" style="stroke: #A80036; stroke-width: 1.0;"/><polygon fill="none" points="1125.85,185.36,1146.37,180.061,1133.63,196.998,1125.85,185.36" style="stroke: #A80036; stroke-width: 1.0;"/><!--MD5=[cfdc17c3df4067afc79a742990cee438]
reverse link tictactoe.controllers.StartController to tictactoe.controllers.implementation.StartControllerImplementation--><path d="M872.12,189.733 C858.77,196.59 844.208,203.037 830,207.35 C587.099,281.094 481.049,139.066 262,267.35 C211.233,297.081 175.897,356.774 156.283,398.119 " fill="none" id="tictactoe.controllers.StartController&lt;-tictactoe.controllers.implementation.StartControllerImplementation" style="stroke: #A80036; stroke-width: 1.0;"/><polygon fill="none" points="869.118,183.397,890.024,179.947,875.833,195.682,869.118,183.397" style="stroke: #A80036; stroke-width: 1.0;"/><!--MD5=[077c899ea1819e9113e85c76b58da388]
@startuml

class  tictactoe.controllers.implementation.LogicImplementation{
# startControllerImplementation: StartControllerImplementation
# playControllerImplementation: PlayControllerImplementation
# resultControllerImplementation: ResultControllerImplementation
+ LogicImplementation()
}
tictactoe.controllers.Logic <|-down- tictactoe.controllers.implementation.LogicImplementation
tictactoe.controllers.implementation.LogicImplementation *-down-> tictactoe.controllers.implementation.StartControllerImplementation
tictactoe.controllers.implementation.LogicImplementation *-down-> tictactoe.controllers.implementation.ResultControllerImplementation
tictactoe.controllers.implementation.LogicImplementation *-down-> tictactoe.controllers.implementation.PlayControllerImplementation

class  tictactoe.controllers.implementation.PlayControllerImplementation{
- movementController: MovementController
- undoController: UndoController
- redoController: RedoController
+ PlayControllerImplementation(Session)
+ undo(): void
+ redo(): void
+ undoable(): boolean
+ redoable(): boolean
+ getTypeOfTokenPlayerFromTurn(): PlayerType
+ getErrorsPutCoordinate(int, int): Error
+ getErrorsMoveOriginCoordinate(int, int): Error
+ getErrorsMoveTargetCoordinate(int, int, int, int): Error
+ isCoordinateValid(int, int): boolean
+ generateRandomCoordinate(): int[]
+ isBoardComplete(): boolean
+ putTokenPlayerFromTurn(int, int): void
+ moveTokenPlayerFromTurn(int, int, int, int): void
+ changeTurn(): void
+ getTokenChar(int, int): char
+ isEmptyToken(int, int): boolean
+ getCoordinateDimension(): int
+ isTicTacToe(): boolean
}
tictactoe.controllers.PlayController <|-down- tictactoe.controllers.implementation.PlayControllerImplementation
tictactoe.controllers.implementation.PlayControllerImplementation *-down-> tictactoe.controllers.MovementController
tictactoe.controllers.implementation.PlayControllerImplementation *-down-> tictactoe.controllers.UndoController
tictactoe.controllers.implementation.PlayControllerImplementation *-down-> tictactoe.controllers.RedoController

class  tictactoe.controllers.implementation.ResultControllerImplementation{
+ ResultControllerImplementation(Session)
+ finish(): void
+ getOtherValueFromTurn(): int
}
tictactoe.controllers.ResultController <|-down- tictactoe.controllers.implementation.ResultControllerImplementation

class  tictactoe.controllers.implementation.StartControllerImplementation{
+ StartControllerImplementation(Session)
+ start(): void
+ createPlayers(int): void
}
tictactoe.controllers.StartController <|-down- tictactoe.controllers.implementation.StartControllerImplementation

@enduml

PlantUML version 1.2020.15(Sun Jun 28 13:39:45 CEST 2020)
(GPL source distribution)
Java Runtime: Java(TM) SE Runtime Environment
JVM: Java HotSpot(TM) 64-Bit Server VM
Default Encoding: windows-1252
Language: es
Country: ES
--></g></svg>