<?xml version="1.0" encoding="UTF-8" standalone="no"?><svg xmlns="http://www.w3.org/2000/svg" xmlns:xlink="http://www.w3.org/1999/xlink" contentScriptType="application/ecmascript" contentStyleType="text/css" height="762px" preserveAspectRatio="none" style="width:1666px;height:762px;" version="1.1" viewBox="0 0 1666 762" width="1666px" zoomAndPan="magnify"><defs><filter height="300%" id="f1e0g34n6h10fu" width="300%" x="-1" y="-1"><feGaussianBlur result="blurOut" stdDeviation="2.0"/><feColorMatrix in="blurOut" result="blurOut2" type="matrix" values="0 0 0 0 0 0 0 0 0 0 0 0 0 0 0 0 0 0 .4 0"/><feOffset dx="4.0" dy="4.0" in="blurOut2" result="blurOut3"/><feBlend in="SourceGraphic" in2="blurOut3" mode="normal"/></filter></defs><g><!--MD5=[64182ab34c08ac367bbf699869515711]
cluster tictactoe.views.console--><polygon fill="#FFFFFF" filter="url(#f1e0g34n6h10fu)" points="346,130,518,130,525,153.6094,1304,153.6094,1304,626,346,626,346,130" style="stroke: #000000; stroke-width: 1.5;"/><line style="stroke: #000000; stroke-width: 1.5;" x1="346" x2="525" y1="153.6094" y2="153.6094"/><text fill="#000000" font-family="sans-serif" font-size="14" font-weight="bold" lengthAdjust="spacingAndGlyphs" textLength="166" x="350" y="146.5332">tictactoe.views.console</text><!--MD5=[c52f45833d539af9e29a9d34b8b7302b]
cluster utils--><polygon fill="#FFFFFF" filter="url(#f1e0g34n6h10fu)" points="16,328,52,328,59,351.6094,322,351.6094,322,428,16,428,16,328" style="stroke: #000000; stroke-width: 1.5;"/><line style="stroke: #000000; stroke-width: 1.5;" x1="16" x2="59" y1="351.6094" y2="351.6094"/><text fill="#000000" font-family="sans-serif" font-size="14" font-weight="bold" lengthAdjust="spacingAndGlyphs" textLength="30" x="20" y="344.5332">utils</text><!--MD5=[ee7e9a007a7c4d40c0679a27f272732d]
cluster tictactoe.controllers--><polygon fill="#FFFFFF" filter="url(#f1e0g34n6h10fu)" points="546,650,694,650,701,673.6094,991,673.6094,991,750,546,750,546,650" style="stroke: #000000; stroke-width: 1.5;"/><line style="stroke: #000000; stroke-width: 1.5;" x1="546" x2="701" y1="673.6094" y2="673.6094"/><text fill="#000000" font-family="sans-serif" font-size="14" font-weight="bold" lengthAdjust="spacingAndGlyphs" textLength="142" x="550" y="666.5332">tictactoe.controllers</text><!--MD5=[f4e83a21a957c5b9ba9691e6361db36b]
cluster tictactoe.views--><polygon fill="#FFFFFF" filter="url(#f1e0g34n6h10fu)" points="694,6,806,6,813,29.6094,1032,29.6094,1032,106,694,106,694,6" style="stroke: #000000; stroke-width: 1.5;"/><line style="stroke: #000000; stroke-width: 1.5;" x1="694" x2="813" y1="29.6094" y2="29.6094"/><text fill="#000000" font-family="sans-serif" font-size="14" font-weight="bold" lengthAdjust="spacingAndGlyphs" textLength="106" x="698" y="22.5332">tictactoe.views</text><!--MD5=[2d083dca3cab6023baf6a9cac5f9557f]
cluster tictactoe.types--><polygon fill="#FFFFFF" filter="url(#f1e0g34n6h10fu)" points="1328,491.5,1437,491.5,1444,515.1094,1547,515.1094,1547,591.5,1328,591.5,1328,491.5" style="stroke: #000000; stroke-width: 1.5;"/><line style="stroke: #000000; stroke-width: 1.5;" x1="1328" x2="1444" y1="515.1094" y2="515.1094"/><text fill="#000000" font-family="sans-serif" font-size="14" font-weight="bold" lengthAdjust="spacingAndGlyphs" textLength="103" x="1332" y="508.0332">tictactoe.types</text><!--MD5=[270aad5bca7cd81b5a24665b2403b70b]
class tictactoe.views.console.BoardView--><rect fill="#FEFECE" filter="url(#f1e0g34n6h10fu)" height="117.1797" id="tictactoe.views.console.BoardView" style="stroke: #A80036; stroke-width: 1.5;" width="201" x="362.5" y="493"/><ellipse cx="429.25" cy="509" fill="#ADD1B2" rx="11" ry="11" style="stroke: #A80036; stroke-width: 1.0;"/><path d="M432.0156,504.875 Q432.1719,504.6563 432.3594,504.5469 Q432.5469,504.4375 432.7656,504.4375 Q433.1406,504.4375 433.375,504.7031 Q433.6094,504.9531 433.6094,505.5625 L433.6094,507.0156 Q433.6094,507.625 433.375,507.8906 Q433.1406,508.1563 432.7656,508.1563 Q432.4219,508.1563 432.2188,507.9531 Q432.0156,507.7656 431.9063,507.25 Q431.8594,506.8906 431.6719,506.7031 Q431.3438,506.3281 430.7344,506.1094 Q430.125,505.8906 429.5,505.8906 Q428.7344,505.8906 428.0938,506.2188 Q427.4688,506.5469 426.9688,507.2969 Q426.4844,508.0469 426.4844,509.0781 L426.4844,510.1719 Q426.4844,511.4063 427.375,512.2344 Q428.2656,513.0469 429.8594,513.0469 Q430.7969,513.0469 431.4531,512.7969 Q431.8438,512.6406 432.2656,512.2031 Q432.5313,511.9375 432.6719,511.8594 Q432.8281,511.7813 433.0313,511.7813 Q433.3594,511.7813 433.6094,512.0469 Q433.875,512.2969 433.875,512.6406 Q433.875,512.9844 433.5313,513.3906 Q433.0313,513.9688 432.2344,514.2969 Q431.1563,514.75 429.8594,514.75 Q428.3438,514.75 427.1406,514.125 Q426.1563,513.625 425.4688,512.5625 Q424.7813,511.4844 424.7813,510.2031 L424.7813,509.0469 Q424.7813,507.7188 425.3906,506.5781 Q426.0156,505.4219 427.1094,504.8125 Q428.2031,504.1875 429.4375,504.1875 Q430.1719,504.1875 430.8125,504.3594 Q431.4688,504.5156 432.0156,504.875 Z "/><text fill="#000000" font-family="sans-serif" font-size="12" lengthAdjust="spacingAndGlyphs" textLength="59" x="449.75" y="513.9102">BoardView</text><line style="stroke: #A80036; stroke-width: 1.5;" x1="363.5" x2="562.5" y1="525" y2="525"/><rect fill="none" height="6" style="stroke: #C82930; stroke-width: 1.0;" width="6" x="370.5" y="533"/><text fill="#000000" font-family="sans-serif" font-size="11" lengthAdjust="spacingAndGlyphs" textLength="138" x="382.5" y="540.4189">playController: PlayController</text><line style="stroke: #A80036; stroke-width: 1.5;" x1="363.5" x2="562.5" y1="546.8359" y2="546.8359"/><polygon fill="#4177AF" points="373.5,553.8359,369.5,559.8359,377.5,559.8359" style="stroke: #1963A0; stroke-width: 1.0;"/><text fill="#000000" font-family="sans-serif" font-size="11" lengthAdjust="spacingAndGlyphs" textLength="129" x="382.5" y="562.2549">BoardView(PlayController)</text><polygon fill="#4177AF" points="373.5,567.6719,369.5,573.6719,377.5,573.6719" style="stroke: #1963A0; stroke-width: 1.0;"/><text fill="#000000" font-family="sans-serif" font-size="11" lengthAdjust="spacingAndGlyphs" textLength="59" x="382.5" y="576.0908">write(): void</text><rect fill="#F24D5C" height="6" style="stroke: #C82930; stroke-width: 1.0;" width="6" x="370.5" y="582.5078"/><text fill="#000000" font-family="sans-serif" font-size="11" lengthAdjust="spacingAndGlyphs" textLength="118" x="382.5" y="589.9268">printRowBoard(int): void</text><rect fill="#F24D5C" height="6" style="stroke: #C82930; stroke-width: 1.0;" width="6" x="370.5" y="596.3438"/><text fill="#000000" font-family="sans-serif" font-size="11" lengthAdjust="spacingAndGlyphs" textLength="175" x="382.5" y="603.7627">printSquareValueBoard(int, int): void</text><!--MD5=[bde0c8ed193d8d2dbac1dee471354ab0]
class tictactoe.views.console.ConsoleView--><rect fill="#FEFECE" filter="url(#f1e0g34n6h10fu)" height="117.1797" id="tictactoe.views.console.ConsoleView" style="stroke: #A80036; stroke-width: 1.5;" width="142" x="555" y="166"/><ellipse cx="586.65" cy="182" fill="#ADD1B2" rx="11" ry="11" style="stroke: #A80036; stroke-width: 1.0;"/><path d="M589.4156,177.875 Q589.5719,177.6563 589.7594,177.5469 Q589.9469,177.4375 590.1656,177.4375 Q590.5406,177.4375 590.775,177.7031 Q591.0094,177.9531 591.0094,178.5625 L591.0094,180.0156 Q591.0094,180.625 590.775,180.8906 Q590.5406,181.1563 590.1656,181.1563 Q589.8219,181.1563 589.6188,180.9531 Q589.4156,180.7656 589.3063,180.25 Q589.2594,179.8906 589.0719,179.7031 Q588.7438,179.3281 588.1344,179.1094 Q587.525,178.8906 586.9,178.8906 Q586.1344,178.8906 585.4938,179.2188 Q584.8688,179.5469 584.3688,180.2969 Q583.8844,181.0469 583.8844,182.0781 L583.8844,183.1719 Q583.8844,184.4063 584.775,185.2344 Q585.6656,186.0469 587.2594,186.0469 Q588.1969,186.0469 588.8531,185.7969 Q589.2438,185.6406 589.6656,185.2031 Q589.9313,184.9375 590.0719,184.8594 Q590.2281,184.7813 590.4313,184.7813 Q590.7594,184.7813 591.0094,185.0469 Q591.275,185.2969 591.275,185.6406 Q591.275,185.9844 590.9313,186.3906 Q590.4313,186.9688 589.6344,187.2969 Q588.5563,187.75 587.2594,187.75 Q585.7438,187.75 584.5406,187.125 Q583.5563,186.625 582.8688,185.5625 Q582.1813,184.4844 582.1813,183.2031 L582.1813,182.0469 Q582.1813,180.7188 582.7906,179.5781 Q583.4156,178.4219 584.5094,177.8125 Q585.6031,177.1875 586.8375,177.1875 Q587.5719,177.1875 588.2125,177.3594 Q588.8688,177.5156 589.4156,177.875 Z "/><text fill="#000000" font-family="sans-serif" font-size="12" lengthAdjust="spacingAndGlyphs" textLength="73" x="604.35" y="186.9102">ConsoleView</text><line style="stroke: #A80036; stroke-width: 1.5;" x1="556" x2="696" y1="198" y2="198"/><rect fill="none" height="6" style="stroke: #C82930; stroke-width: 1.0;" width="6" x="563" y="206"/><text fill="#000000" font-family="sans-serif" font-size="11" lengthAdjust="spacingAndGlyphs" textLength="103" x="575" y="213.4189">startView: StartView</text><rect fill="none" height="6" style="stroke: #C82930; stroke-width: 1.0;" width="6" x="563" y="219.8359"/><text fill="#000000" font-family="sans-serif" font-size="11" lengthAdjust="spacingAndGlyphs" textLength="98" x="575" y="227.2549">playView: PlayView</text><rect fill="none" height="6" style="stroke: #C82930; stroke-width: 1.0;" width="6" x="563" y="233.6719"/><text fill="#000000" font-family="sans-serif" font-size="11" lengthAdjust="spacingAndGlyphs" textLength="115" x="575" y="241.0908">resultView: ResultView</text><line style="stroke: #A80036; stroke-width: 1.5;" x1="556" x2="696" y1="247.5078" y2="247.5078"/><ellipse cx="566" cy="258.5078" fill="#84BE84" rx="3" ry="3" style="stroke: #038048; stroke-width: 1.0;"/><text fill="#000000" font-family="sans-serif" font-size="11" lengthAdjust="spacingAndGlyphs" textLength="73" x="575" y="262.9268">ConsoleView()</text><polygon fill="#FFFF44" points="566,267.3438,570,271.3438,566,275.3438,562,271.3438" style="stroke: #B38D22; stroke-width: 1.0;"/><text fill="#000000" font-family="sans-serif" font-size="11" lengthAdjust="spacingAndGlyphs" textLength="116" x="575" y="276.7627">interact(Controller): void</text><!--MD5=[54aa299435631381f3c0c028f26a058f]
class tictactoe.views.console.StartView--><rect fill="#FEFECE" filter="url(#f1e0g34n6h10fu)" height="61.8359" id="tictactoe.views.console.StartView" style="stroke: #A80036; stroke-width: 1.5;" width="165" x="559.5" y="357"/><ellipse cx="612.25" cy="373" fill="#ADD1B2" rx="11" ry="11" style="stroke: #A80036; stroke-width: 1.0;"/><path d="M615.0156,368.875 Q615.1719,368.6563 615.3594,368.5469 Q615.5469,368.4375 615.7656,368.4375 Q616.1406,368.4375 616.375,368.7031 Q616.6094,368.9531 616.6094,369.5625 L616.6094,371.0156 Q616.6094,371.625 616.375,371.8906 Q616.1406,372.1563 615.7656,372.1563 Q615.4219,372.1563 615.2188,371.9531 Q615.0156,371.7656 614.9063,371.25 Q614.8594,370.8906 614.6719,370.7031 Q614.3438,370.3281 613.7344,370.1094 Q613.125,369.8906 612.5,369.8906 Q611.7344,369.8906 611.0938,370.2188 Q610.4688,370.5469 609.9688,371.2969 Q609.4844,372.0469 609.4844,373.0781 L609.4844,374.1719 Q609.4844,375.4063 610.375,376.2344 Q611.2656,377.0469 612.8594,377.0469 Q613.7969,377.0469 614.4531,376.7969 Q614.8438,376.6406 615.2656,376.2031 Q615.5313,375.9375 615.6719,375.8594 Q615.8281,375.7813 616.0313,375.7813 Q616.3594,375.7813 616.6094,376.0469 Q616.875,376.2969 616.875,376.6406 Q616.875,376.9844 616.5313,377.3906 Q616.0313,377.9688 615.2344,378.2969 Q614.1563,378.75 612.8594,378.75 Q611.3438,378.75 610.1406,378.125 Q609.1563,377.625 608.4688,376.5625 Q607.7813,375.4844 607.7813,374.2031 L607.7813,373.0469 Q607.7813,371.7188 608.3906,370.5781 Q609.0156,369.4219 610.1094,368.8125 Q611.2031,368.1875 612.4375,368.1875 Q613.1719,368.1875 613.8125,368.3594 Q614.4688,368.5156 615.0156,368.875 Z "/><text fill="#000000" font-family="sans-serif" font-size="12" lengthAdjust="spacingAndGlyphs" textLength="51" x="632.75" y="377.9102">StartView</text><line style="stroke: #A80036; stroke-width: 1.5;" x1="560.5" x2="723.5" y1="389" y2="389"/><line style="stroke: #A80036; stroke-width: 1.5;" x1="560.5" x2="723.5" y1="397" y2="397"/><polygon fill="#4177AF" points="570.5,404,566.5,410,574.5,410" style="stroke: #1963A0; stroke-width: 1.0;"/><text fill="#000000" font-family="sans-serif" font-size="11" lengthAdjust="spacingAndGlyphs" textLength="139" x="579.5" y="412.4189">interact(StartController): void</text><!--MD5=[0158df0baddf48f83142f472e341eacc]
class tictactoe.views.console.PlayView--><rect fill="#FEFECE" filter="url(#f1e0g34n6h10fu)" height="61.8359" id="tictactoe.views.console.PlayView" style="stroke: #A80036; stroke-width: 1.5;" width="162" x="362" y="357"/><ellipse cx="414.25" cy="373" fill="#ADD1B2" rx="11" ry="11" style="stroke: #A80036; stroke-width: 1.0;"/><path d="M417.0156,368.875 Q417.1719,368.6563 417.3594,368.5469 Q417.5469,368.4375 417.7656,368.4375 Q418.1406,368.4375 418.375,368.7031 Q418.6094,368.9531 418.6094,369.5625 L418.6094,371.0156 Q418.6094,371.625 418.375,371.8906 Q418.1406,372.1563 417.7656,372.1563 Q417.4219,372.1563 417.2188,371.9531 Q417.0156,371.7656 416.9063,371.25 Q416.8594,370.8906 416.6719,370.7031 Q416.3438,370.3281 415.7344,370.1094 Q415.125,369.8906 414.5,369.8906 Q413.7344,369.8906 413.0938,370.2188 Q412.4688,370.5469 411.9688,371.2969 Q411.4844,372.0469 411.4844,373.0781 L411.4844,374.1719 Q411.4844,375.4063 412.375,376.2344 Q413.2656,377.0469 414.8594,377.0469 Q415.7969,377.0469 416.4531,376.7969 Q416.8438,376.6406 417.2656,376.2031 Q417.5313,375.9375 417.6719,375.8594 Q417.8281,375.7813 418.0313,375.7813 Q418.3594,375.7813 418.6094,376.0469 Q418.875,376.2969 418.875,376.6406 Q418.875,376.9844 418.5313,377.3906 Q418.0313,377.9688 417.2344,378.2969 Q416.1563,378.75 414.8594,378.75 Q413.3438,378.75 412.1406,378.125 Q411.1563,377.625 410.4688,376.5625 Q409.7813,375.4844 409.7813,374.2031 L409.7813,373.0469 Q409.7813,371.7188 410.3906,370.5781 Q411.0156,369.4219 412.1094,368.8125 Q413.2031,368.1875 414.4375,368.1875 Q415.1719,368.1875 415.8125,368.3594 Q416.4688,368.5156 417.0156,368.875 Z "/><text fill="#000000" font-family="sans-serif" font-size="12" lengthAdjust="spacingAndGlyphs" textLength="49" x="434.75" y="377.9102">PlayView</text><line style="stroke: #A80036; stroke-width: 1.5;" x1="363" x2="523" y1="389" y2="389"/><line style="stroke: #A80036; stroke-width: 1.5;" x1="363" x2="523" y1="397" y2="397"/><polygon fill="#4177AF" points="373,404,369,410,377,410" style="stroke: #1963A0; stroke-width: 1.0;"/><text fill="#000000" font-family="sans-serif" font-size="11" lengthAdjust="spacingAndGlyphs" textLength="136" x="382" y="412.4189">interact(PlayController): void</text><!--MD5=[4ad8229f56e3458317cb6855b3145039]
class tictactoe.views.console.ResultView--><rect fill="#FEFECE" filter="url(#f1e0g34n6h10fu)" height="61.8359" id="tictactoe.views.console.ResultView" style="stroke: #A80036; stroke-width: 1.5;" width="172" x="973" y="357"/><ellipse cx="1023.75" cy="373" fill="#ADD1B2" rx="11" ry="11" style="stroke: #A80036; stroke-width: 1.0;"/><path d="M1026.5156,368.875 Q1026.6719,368.6563 1026.8594,368.5469 Q1027.0469,368.4375 1027.2656,368.4375 Q1027.6406,368.4375 1027.875,368.7031 Q1028.1094,368.9531 1028.1094,369.5625 L1028.1094,371.0156 Q1028.1094,371.625 1027.875,371.8906 Q1027.6406,372.1563 1027.2656,372.1563 Q1026.9219,372.1563 1026.7188,371.9531 Q1026.5156,371.7656 1026.4063,371.25 Q1026.3594,370.8906 1026.1719,370.7031 Q1025.8438,370.3281 1025.2344,370.1094 Q1024.625,369.8906 1024,369.8906 Q1023.2344,369.8906 1022.5938,370.2188 Q1021.9688,370.5469 1021.4688,371.2969 Q1020.9844,372.0469 1020.9844,373.0781 L1020.9844,374.1719 Q1020.9844,375.4063 1021.875,376.2344 Q1022.7656,377.0469 1024.3594,377.0469 Q1025.2969,377.0469 1025.9531,376.7969 Q1026.3438,376.6406 1026.7656,376.2031 Q1027.0313,375.9375 1027.1719,375.8594 Q1027.3281,375.7813 1027.5313,375.7813 Q1027.8594,375.7813 1028.1094,376.0469 Q1028.375,376.2969 1028.375,376.6406 Q1028.375,376.9844 1028.0313,377.3906 Q1027.5313,377.9688 1026.7344,378.2969 Q1025.6563,378.75 1024.3594,378.75 Q1022.8438,378.75 1021.6406,378.125 Q1020.6563,377.625 1019.9688,376.5625 Q1019.2813,375.4844 1019.2813,374.2031 L1019.2813,373.0469 Q1019.2813,371.7188 1019.8906,370.5781 Q1020.5156,369.4219 1021.6094,368.8125 Q1022.7031,368.1875 1023.9375,368.1875 Q1024.6719,368.1875 1025.3125,368.3594 Q1025.9688,368.5156 1026.5156,368.875 Z "/><text fill="#000000" font-family="sans-serif" font-size="12" lengthAdjust="spacingAndGlyphs" textLength="62" x="1044.25" y="377.9102">ResultView</text><line style="stroke: #A80036; stroke-width: 1.5;" x1="974" x2="1144" y1="389" y2="389"/><line style="stroke: #A80036; stroke-width: 1.5;" x1="974" x2="1144" y1="397" y2="397"/><polygon fill="#4177AF" points="984,404,980,410,988,410" style="stroke: #1963A0; stroke-width: 1.0;"/><text fill="#000000" font-family="sans-serif" font-size="11" lengthAdjust="spacingAndGlyphs" textLength="146" x="993" y="412.4189">interact(ResultController): void</text><!--MD5=[8830b246a550294711e6eb5af1606829]
class tictactoe.views.console.CoordinateView--><rect fill="#FEFECE" filter="url(#f1e0g34n6h10fu)" height="89.5078" id="tictactoe.views.console.CoordinateView" style="stroke: #A80036; stroke-width: 1.5;" width="178" x="760" y="343"/><ellipse cx="801.55" cy="359" fill="#ADD1B2" rx="11" ry="11" style="stroke: #A80036; stroke-width: 1.0;"/><path d="M804.3156,354.875 Q804.4719,354.6563 804.6594,354.5469 Q804.8469,354.4375 805.0656,354.4375 Q805.4406,354.4375 805.675,354.7031 Q805.9094,354.9531 805.9094,355.5625 L805.9094,357.0156 Q805.9094,357.625 805.675,357.8906 Q805.4406,358.1563 805.0656,358.1563 Q804.7219,358.1563 804.5188,357.9531 Q804.3156,357.7656 804.2063,357.25 Q804.1594,356.8906 803.9719,356.7031 Q803.6438,356.3281 803.0344,356.1094 Q802.425,355.8906 801.8,355.8906 Q801.0344,355.8906 800.3938,356.2188 Q799.7688,356.5469 799.2688,357.2969 Q798.7844,358.0469 798.7844,359.0781 L798.7844,360.1719 Q798.7844,361.4063 799.675,362.2344 Q800.5656,363.0469 802.1594,363.0469 Q803.0969,363.0469 803.7531,362.7969 Q804.1438,362.6406 804.5656,362.2031 Q804.8313,361.9375 804.9719,361.8594 Q805.1281,361.7813 805.3313,361.7813 Q805.6594,361.7813 805.9094,362.0469 Q806.175,362.2969 806.175,362.6406 Q806.175,362.9844 805.8313,363.3906 Q805.3313,363.9688 804.5344,364.2969 Q803.4563,364.75 802.1594,364.75 Q800.6438,364.75 799.4406,364.125 Q798.4563,363.625 797.7688,362.5625 Q797.0813,361.4844 797.0813,360.2031 L797.0813,359.0469 Q797.0813,357.7188 797.6906,356.5781 Q798.3156,355.4219 799.4094,354.8125 Q800.5031,354.1875 801.7375,354.1875 Q802.4719,354.1875 803.1125,354.3594 Q803.7688,354.5156 804.3156,354.875 Z "/><text fill="#000000" font-family="sans-serif" font-size="12" lengthAdjust="spacingAndGlyphs" textLength="87" x="821.45" y="363.9102">CoordinateView</text><line style="stroke: #A80036; stroke-width: 1.5;" x1="761" x2="937" y1="375" y2="375"/><polygon fill="none" points="771,382,767,388,775,388" style="stroke: #1963A0; stroke-width: 1.0;"/><text fill="#000000" font-family="sans-serif" font-size="11" lengthAdjust="spacingAndGlyphs" textLength="138" x="780" y="390.4189">playController: PlayController</text><line style="stroke: #A80036; stroke-width: 1.5;" x1="761" x2="937" y1="396.8359" y2="396.8359"/><polygon fill="#4177AF" points="771,403.8359,767,409.8359,775,409.8359" style="stroke: #1963A0; stroke-width: 1.0;"/><text fill="#000000" font-family="sans-serif" font-size="11" lengthAdjust="spacingAndGlyphs" textLength="152" x="780" y="412.2549">CoordinateView(PlayController)</text><polygon fill="#4177AF" points="771,417.6719,767,423.6719,775,423.6719" style="stroke: #1963A0; stroke-width: 1.0;"/><text fill="#000000" font-family="sans-serif" font-size="11" lengthAdjust="spacingAndGlyphs" textLength="81" x="780" y="426.0908">read(String): int[]</text><!--MD5=[1ca4e66fd27a79cb5d7093d90b3139a4]
class tictactoe.views.console.ErrorView--><rect fill="#FEFECE" filter="url(#f1e0g34n6h10fu)" height="75.6719" id="tictactoe.views.console.ErrorView" style="stroke: #A80036; stroke-width: 1.5;" width="108" x="1180" y="350"/><ellipse cx="1205.35" cy="366" fill="#ADD1B2" rx="11" ry="11" style="stroke: #A80036; stroke-width: 1.0;"/><path d="M1208.1156,361.875 Q1208.2719,361.6563 1208.4594,361.5469 Q1208.6469,361.4375 1208.8656,361.4375 Q1209.2406,361.4375 1209.475,361.7031 Q1209.7094,361.9531 1209.7094,362.5625 L1209.7094,364.0156 Q1209.7094,364.625 1209.475,364.8906 Q1209.2406,365.1563 1208.8656,365.1563 Q1208.5219,365.1563 1208.3188,364.9531 Q1208.1156,364.7656 1208.0063,364.25 Q1207.9594,363.8906 1207.7719,363.7031 Q1207.4438,363.3281 1206.8344,363.1094 Q1206.225,362.8906 1205.6,362.8906 Q1204.8344,362.8906 1204.1938,363.2188 Q1203.5688,363.5469 1203.0688,364.2969 Q1202.5844,365.0469 1202.5844,366.0781 L1202.5844,367.1719 Q1202.5844,368.4063 1203.475,369.2344 Q1204.3656,370.0469 1205.9594,370.0469 Q1206.8969,370.0469 1207.5531,369.7969 Q1207.9438,369.6406 1208.3656,369.2031 Q1208.6313,368.9375 1208.7719,368.8594 Q1208.9281,368.7813 1209.1313,368.7813 Q1209.4594,368.7813 1209.7094,369.0469 Q1209.975,369.2969 1209.975,369.6406 Q1209.975,369.9844 1209.6313,370.3906 Q1209.1313,370.9688 1208.3344,371.2969 Q1207.2563,371.75 1205.9594,371.75 Q1204.4438,371.75 1203.2406,371.125 Q1202.2563,370.625 1201.5688,369.5625 Q1200.8813,368.4844 1200.8813,367.2031 L1200.8813,366.0469 Q1200.8813,364.7188 1201.4906,363.5781 Q1202.1156,362.4219 1203.2094,361.8125 Q1204.3031,361.1875 1205.5375,361.1875 Q1206.2719,361.1875 1206.9125,361.3594 Q1207.5688,361.5156 1208.1156,361.875 Z "/><text fill="#000000" font-family="sans-serif" font-size="12" lengthAdjust="spacingAndGlyphs" textLength="53" x="1221.65" y="370.9102">ErrorView</text><line style="stroke: #A80036; stroke-width: 1.5;" x1="1181" x2="1287" y1="382" y2="382"/><line style="stroke: #A80036; stroke-width: 1.5;" x1="1181" x2="1287" y1="390" y2="390"/><polygon fill="#4177AF" points="1191,397,1187,403,1195,403" style="stroke: #1963A0; stroke-width: 1.0;"/><text fill="#000000" font-family="sans-serif" font-size="11" lengthAdjust="spacingAndGlyphs" textLength="82" x="1200" y="405.4189">ErrorView(Error)</text><polygon fill="#4177AF" points="1191,410.8359,1187,416.8359,1195,416.8359" style="stroke: #1963A0; stroke-width: 1.0;"/><text fill="#000000" font-family="sans-serif" font-size="11" lengthAdjust="spacingAndGlyphs" textLength="67" x="1200" y="419.2549">writeln(): void</text><!--MD5=[4afe6aabb27d783e4a9a9dcc50c35fae]
class tictactoe.views.console.MachinePlayerView--><rect fill="#FEFECE" filter="url(#f1e0g34n6h10fu)" height="89.5078" id="tictactoe.views.console.MachinePlayerView" style="stroke: #A80036; stroke-width: 1.5;" width="196" x="1001" y="179.5"/><ellipse cx="1042.1" cy="195.5" fill="#ADD1B2" rx="11" ry="11" style="stroke: #A80036; stroke-width: 1.0;"/><path d="M1044.8656,191.375 Q1045.0219,191.1563 1045.2094,191.0469 Q1045.3969,190.9375 1045.6156,190.9375 Q1045.9906,190.9375 1046.225,191.2031 Q1046.4594,191.4531 1046.4594,192.0625 L1046.4594,193.5156 Q1046.4594,194.125 1046.225,194.3906 Q1045.9906,194.6563 1045.6156,194.6563 Q1045.2719,194.6563 1045.0688,194.4531 Q1044.8656,194.2656 1044.7563,193.75 Q1044.7094,193.3906 1044.5219,193.2031 Q1044.1938,192.8281 1043.5844,192.6094 Q1042.975,192.3906 1042.35,192.3906 Q1041.5844,192.3906 1040.9438,192.7188 Q1040.3188,193.0469 1039.8188,193.7969 Q1039.3344,194.5469 1039.3344,195.5781 L1039.3344,196.6719 Q1039.3344,197.9063 1040.225,198.7344 Q1041.1156,199.5469 1042.7094,199.5469 Q1043.6469,199.5469 1044.3031,199.2969 Q1044.6938,199.1406 1045.1156,198.7031 Q1045.3813,198.4375 1045.5219,198.3594 Q1045.6781,198.2813 1045.8813,198.2813 Q1046.2094,198.2813 1046.4594,198.5469 Q1046.725,198.7969 1046.725,199.1406 Q1046.725,199.4844 1046.3813,199.8906 Q1045.8813,200.4688 1045.0844,200.7969 Q1044.0063,201.25 1042.7094,201.25 Q1041.1938,201.25 1039.9906,200.625 Q1039.0063,200.125 1038.3188,199.0625 Q1037.6313,197.9844 1037.6313,196.7031 L1037.6313,195.5469 Q1037.6313,194.2188 1038.2406,193.0781 Q1038.8656,191.9219 1039.9594,191.3125 Q1041.0531,190.6875 1042.2875,190.6875 Q1043.0219,190.6875 1043.6625,190.8594 Q1044.3188,191.0156 1044.8656,191.375 Z "/><text fill="#000000" font-family="sans-serif" font-size="12" lengthAdjust="spacingAndGlyphs" textLength="106" x="1061.9" y="200.4102">MachinePlayerView</text><line style="stroke: #A80036; stroke-width: 1.5;" x1="1002" x2="1196" y1="211.5" y2="211.5"/><line style="stroke: #A80036; stroke-width: 1.5;" x1="1002" x2="1196" y1="219.5" y2="219.5"/><polygon fill="#4177AF" points="1012,226.5,1008,232.5,1016,232.5" style="stroke: #1963A0; stroke-width: 1.0;"/><text fill="#000000" font-family="sans-serif" font-size="11" lengthAdjust="spacingAndGlyphs" textLength="170" x="1021" y="234.9189">MachinePlayerView(PlayController)</text><polygon fill="#4177AF" points="1012,240.3359,1008,246.3359,1016,246.3359" style="stroke: #1963A0; stroke-width: 1.0;"/><text fill="#000000" font-family="sans-serif" font-size="11" lengthAdjust="spacingAndGlyphs" textLength="132" x="1021" y="248.7549">readCoordinateToPut(): int[]</text><polygon fill="#4177AF" points="1012,254.1719,1008,260.1719,1016,260.1719" style="stroke: #1963A0; stroke-width: 1.0;"/><text fill="#000000" font-family="sans-serif" font-size="11" lengthAdjust="spacingAndGlyphs" textLength="155" x="1021" y="262.5908">readCoordinatesToMove(): int[][]</text><!--MD5=[d4f4ae14a368e3fcfff527b6459d05f0]
class tictactoe.views.console.UserPlayerView--><rect fill="#FEFECE" filter="url(#f1e0g34n6h10fu)" height="117.1797" id="tictactoe.views.console.UserPlayerView" style="stroke: #A80036; stroke-width: 1.5;" width="233" x="732.5" y="166"/><ellipse cx="801.25" cy="182" fill="#ADD1B2" rx="11" ry="11" style="stroke: #A80036; stroke-width: 1.0;"/><path d="M804.0156,177.875 Q804.1719,177.6563 804.3594,177.5469 Q804.5469,177.4375 804.7656,177.4375 Q805.1406,177.4375 805.375,177.7031 Q805.6094,177.9531 805.6094,178.5625 L805.6094,180.0156 Q805.6094,180.625 805.375,180.8906 Q805.1406,181.1563 804.7656,181.1563 Q804.4219,181.1563 804.2188,180.9531 Q804.0156,180.7656 803.9063,180.25 Q803.8594,179.8906 803.6719,179.7031 Q803.3438,179.3281 802.7344,179.1094 Q802.125,178.8906 801.5,178.8906 Q800.7344,178.8906 800.0938,179.2188 Q799.4688,179.5469 798.9688,180.2969 Q798.4844,181.0469 798.4844,182.0781 L798.4844,183.1719 Q798.4844,184.4063 799.375,185.2344 Q800.2656,186.0469 801.8594,186.0469 Q802.7969,186.0469 803.4531,185.7969 Q803.8438,185.6406 804.2656,185.2031 Q804.5313,184.9375 804.6719,184.8594 Q804.8281,184.7813 805.0313,184.7813 Q805.3594,184.7813 805.6094,185.0469 Q805.875,185.2969 805.875,185.6406 Q805.875,185.9844 805.5313,186.3906 Q805.0313,186.9688 804.2344,187.2969 Q803.1563,187.75 801.8594,187.75 Q800.3438,187.75 799.1406,187.125 Q798.1563,186.625 797.4688,185.5625 Q796.7813,184.4844 796.7813,183.2031 L796.7813,182.0469 Q796.7813,180.7188 797.3906,179.5781 Q798.0156,178.4219 799.1094,177.8125 Q800.2031,177.1875 801.4375,177.1875 Q802.1719,177.1875 802.8125,177.3594 Q803.4688,177.5156 804.0156,177.875 Z "/><text fill="#000000" font-family="sans-serif" font-size="12" lengthAdjust="spacingAndGlyphs" textLength="87" x="821.75" y="186.9102">UserPlayerView</text><line style="stroke: #A80036; stroke-width: 1.5;" x1="733.5" x2="964.5" y1="198" y2="198"/><polygon fill="none" points="743.5,205,739.5,211,747.5,211" style="stroke: #1963A0; stroke-width: 1.0;"/><text fill="#000000" font-family="sans-serif" font-size="11" lengthAdjust="spacingAndGlyphs" text-decoration="underline" textLength="183" x="752.5" y="213.4189">ENTER_COORDINATE_TO_PUT: String</text><polygon fill="none" points="743.5,218.8359,739.5,224.8359,747.5,224.8359" style="stroke: #1963A0; stroke-width: 1.0;"/><text fill="#000000" font-family="sans-serif" font-size="11" lengthAdjust="spacingAndGlyphs" text-decoration="underline" textLength="207" x="752.5" y="227.2549">ENTER_COORDINATE_TO_REMOVE: String</text><line style="stroke: #A80036; stroke-width: 1.5;" x1="733.5" x2="964.5" y1="233.6719" y2="233.6719"/><polygon fill="#4177AF" points="743.5,240.6719,739.5,246.6719,747.5,246.6719" style="stroke: #1963A0; stroke-width: 1.0;"/><text fill="#000000" font-family="sans-serif" font-size="11" lengthAdjust="spacingAndGlyphs" textLength="153" x="752.5" y="249.0908">UserPlayerView(PlayController)</text><polygon fill="#4177AF" points="743.5,254.5078,739.5,260.5078,747.5,260.5078" style="stroke: #1963A0; stroke-width: 1.0;"/><text fill="#000000" font-family="sans-serif" font-size="11" lengthAdjust="spacingAndGlyphs" textLength="132" x="752.5" y="262.9268">readCoordinateToPut(): int[]</text><polygon fill="#4177AF" points="743.5,268.3438,739.5,274.3438,747.5,274.3438" style="stroke: #1963A0; stroke-width: 1.0;"/><text fill="#000000" font-family="sans-serif" font-size="11" lengthAdjust="spacingAndGlyphs" textLength="155" x="752.5" y="276.7627">readCoordinatesToMove(): int[][]</text><!--MD5=[2dcb8e10b6e8b78f41f52f48677e1ea3]
class utils.WithConsoleView--><rect fill="#FEFECE" filter="url(#f1e0g34n6h10fu)" height="48" id="utils.WithConsoleView" style="stroke: #A80036; stroke-width: 1.5;" width="129" x="32.5" y="364"/><ellipse cx="47.5" cy="380" fill="#ADD1B2" rx="11" ry="11" style="stroke: #A80036; stroke-width: 1.0;"/><path d="M50.2656,375.875 Q50.4219,375.6563 50.6094,375.5469 Q50.7969,375.4375 51.0156,375.4375 Q51.3906,375.4375 51.625,375.7031 Q51.8594,375.9531 51.8594,376.5625 L51.8594,378.0156 Q51.8594,378.625 51.625,378.8906 Q51.3906,379.1563 51.0156,379.1563 Q50.6719,379.1563 50.4688,378.9531 Q50.2656,378.7656 50.1563,378.25 Q50.1094,377.8906 49.9219,377.7031 Q49.5938,377.3281 48.9844,377.1094 Q48.375,376.8906 47.75,376.8906 Q46.9844,376.8906 46.3438,377.2188 Q45.7188,377.5469 45.2188,378.2969 Q44.7344,379.0469 44.7344,380.0781 L44.7344,381.1719 Q44.7344,382.4063 45.625,383.2344 Q46.5156,384.0469 48.1094,384.0469 Q49.0469,384.0469 49.7031,383.7969 Q50.0938,383.6406 50.5156,383.2031 Q50.7813,382.9375 50.9219,382.8594 Q51.0781,382.7813 51.2813,382.7813 Q51.6094,382.7813 51.8594,383.0469 Q52.125,383.2969 52.125,383.6406 Q52.125,383.9844 51.7813,384.3906 Q51.2813,384.9688 50.4844,385.2969 Q49.4063,385.75 48.1094,385.75 Q46.5938,385.75 45.3906,385.125 Q44.4063,384.625 43.7188,383.5625 Q43.0313,382.4844 43.0313,381.2031 L43.0313,380.0469 Q43.0313,378.7188 43.6406,377.5781 Q44.2656,376.4219 45.3594,375.8125 Q46.4531,375.1875 47.6875,375.1875 Q48.4219,375.1875 49.0625,375.3594 Q49.7188,375.5156 50.2656,375.875 Z "/><text fill="#000000" font-family="sans-serif" font-size="12" lengthAdjust="spacingAndGlyphs" textLength="97" x="61.5" y="384.9102">WithConsoleView</text><line style="stroke: #A80036; stroke-width: 1.5;" x1="33.5" x2="160.5" y1="396" y2="396"/><line style="stroke: #A80036; stroke-width: 1.5;" x1="33.5" x2="160.5" y1="404" y2="404"/><!--MD5=[55e41f1e5a8b39b15e1066bc4af42afb]
class utils.PlayersDialog--><rect fill="#FEFECE" filter="url(#f1e0g34n6h10fu)" height="48" id="utils.PlayersDialog" style="stroke: #A80036; stroke-width: 1.5;" width="109" x="196.5" y="364"/><ellipse cx="211.5" cy="380" fill="#ADD1B2" rx="11" ry="11" style="stroke: #A80036; stroke-width: 1.0;"/><path d="M214.2656,375.875 Q214.4219,375.6563 214.6094,375.5469 Q214.7969,375.4375 215.0156,375.4375 Q215.3906,375.4375 215.625,375.7031 Q215.8594,375.9531 215.8594,376.5625 L215.8594,378.0156 Q215.8594,378.625 215.625,378.8906 Q215.3906,379.1563 215.0156,379.1563 Q214.6719,379.1563 214.4688,378.9531 Q214.2656,378.7656 214.1563,378.25 Q214.1094,377.8906 213.9219,377.7031 Q213.5938,377.3281 212.9844,377.1094 Q212.375,376.8906 211.75,376.8906 Q210.9844,376.8906 210.3438,377.2188 Q209.7188,377.5469 209.2188,378.2969 Q208.7344,379.0469 208.7344,380.0781 L208.7344,381.1719 Q208.7344,382.4063 209.625,383.2344 Q210.5156,384.0469 212.1094,384.0469 Q213.0469,384.0469 213.7031,383.7969 Q214.0938,383.6406 214.5156,383.2031 Q214.7813,382.9375 214.9219,382.8594 Q215.0781,382.7813 215.2813,382.7813 Q215.6094,382.7813 215.8594,383.0469 Q216.125,383.2969 216.125,383.6406 Q216.125,383.9844 215.7813,384.3906 Q215.2813,384.9688 214.4844,385.2969 Q213.4063,385.75 212.1094,385.75 Q210.5938,385.75 209.3906,385.125 Q208.4063,384.625 207.7188,383.5625 Q207.0313,382.4844 207.0313,381.2031 L207.0313,380.0469 Q207.0313,378.7188 207.6406,377.5781 Q208.2656,376.4219 209.3594,375.8125 Q210.4531,375.1875 211.6875,375.1875 Q212.4219,375.1875 213.0625,375.3594 Q213.7188,375.5156 214.2656,375.875 Z "/><text fill="#000000" font-family="sans-serif" font-size="12" lengthAdjust="spacingAndGlyphs" textLength="77" x="225.5" y="384.9102">PlayersDialog</text><line style="stroke: #A80036; stroke-width: 1.5;" x1="197.5" x2="304.5" y1="396" y2="396"/><line style="stroke: #A80036; stroke-width: 1.5;" x1="197.5" x2="304.5" y1="404" y2="404"/><!--MD5=[b574e60c06c50037ff1b014277a67d62]
class tictactoe.controllers.PlayController--><rect fill="#FEFECE" filter="url(#f1e0g34n6h10fu)" height="48" id="tictactoe.controllers.PlayController" style="stroke: #A80036; stroke-width: 1.5;" width="109" x="562.5" y="686"/><ellipse cx="577.5" cy="702" fill="#ADD1B2" rx="11" ry="11" style="stroke: #A80036; stroke-width: 1.0;"/><path d="M580.2656,697.875 Q580.4219,697.6563 580.6094,697.5469 Q580.7969,697.4375 581.0156,697.4375 Q581.3906,697.4375 581.625,697.7031 Q581.8594,697.9531 581.8594,698.5625 L581.8594,700.0156 Q581.8594,700.625 581.625,700.8906 Q581.3906,701.1563 581.0156,701.1563 Q580.6719,701.1563 580.4688,700.9531 Q580.2656,700.7656 580.1563,700.25 Q580.1094,699.8906 579.9219,699.7031 Q579.5938,699.3281 578.9844,699.1094 Q578.375,698.8906 577.75,698.8906 Q576.9844,698.8906 576.3438,699.2188 Q575.7188,699.5469 575.2188,700.2969 Q574.7344,701.0469 574.7344,702.0781 L574.7344,703.1719 Q574.7344,704.4063 575.625,705.2344 Q576.5156,706.0469 578.1094,706.0469 Q579.0469,706.0469 579.7031,705.7969 Q580.0938,705.6406 580.5156,705.2031 Q580.7813,704.9375 580.9219,704.8594 Q581.0781,704.7813 581.2813,704.7813 Q581.6094,704.7813 581.8594,705.0469 Q582.125,705.2969 582.125,705.6406 Q582.125,705.9844 581.7813,706.3906 Q581.2813,706.9688 580.4844,707.2969 Q579.4063,707.75 578.1094,707.75 Q576.5938,707.75 575.3906,707.125 Q574.4063,706.625 573.7188,705.5625 Q573.0313,704.4844 573.0313,703.2031 L573.0313,702.0469 Q573.0313,700.7188 573.6406,699.5781 Q574.2656,698.4219 575.3594,697.8125 Q576.4531,697.1875 577.6875,697.1875 Q578.4219,697.1875 579.0625,697.3594 Q579.7188,697.5156 580.2656,697.875 Z "/><text fill="#000000" font-family="sans-serif" font-size="12" lengthAdjust="spacingAndGlyphs" textLength="77" x="591.5" y="706.9102">PlayController</text><line style="stroke: #A80036; stroke-width: 1.5;" x1="563.5" x2="670.5" y1="718" y2="718"/><line style="stroke: #A80036; stroke-width: 1.5;" x1="563.5" x2="670.5" y1="726" y2="726"/><!--MD5=[2c3ef77d19c2424f55dfd6db4f13e20e]
class tictactoe.controllers.ResultController--><rect fill="#FEFECE" filter="url(#f1e0g34n6h10fu)" height="48" id="tictactoe.controllers.ResultController" style="stroke: #A80036; stroke-width: 1.5;" width="122" x="853" y="686"/><ellipse cx="868" cy="702" fill="#ADD1B2" rx="11" ry="11" style="stroke: #A80036; stroke-width: 1.0;"/><path d="M870.7656,697.875 Q870.9219,697.6563 871.1094,697.5469 Q871.2969,697.4375 871.5156,697.4375 Q871.8906,697.4375 872.125,697.7031 Q872.3594,697.9531 872.3594,698.5625 L872.3594,700.0156 Q872.3594,700.625 872.125,700.8906 Q871.8906,701.1563 871.5156,701.1563 Q871.1719,701.1563 870.9688,700.9531 Q870.7656,700.7656 870.6563,700.25 Q870.6094,699.8906 870.4219,699.7031 Q870.0938,699.3281 869.4844,699.1094 Q868.875,698.8906 868.25,698.8906 Q867.4844,698.8906 866.8438,699.2188 Q866.2188,699.5469 865.7188,700.2969 Q865.2344,701.0469 865.2344,702.0781 L865.2344,703.1719 Q865.2344,704.4063 866.125,705.2344 Q867.0156,706.0469 868.6094,706.0469 Q869.5469,706.0469 870.2031,705.7969 Q870.5938,705.6406 871.0156,705.2031 Q871.2813,704.9375 871.4219,704.8594 Q871.5781,704.7813 871.7813,704.7813 Q872.1094,704.7813 872.3594,705.0469 Q872.625,705.2969 872.625,705.6406 Q872.625,705.9844 872.2813,706.3906 Q871.7813,706.9688 870.9844,707.2969 Q869.9063,707.75 868.6094,707.75 Q867.0938,707.75 865.8906,707.125 Q864.9063,706.625 864.2188,705.5625 Q863.5313,704.4844 863.5313,703.2031 L863.5313,702.0469 Q863.5313,700.7188 864.1406,699.5781 Q864.7656,698.4219 865.8594,697.8125 Q866.9531,697.1875 868.1875,697.1875 Q868.9219,697.1875 869.5625,697.3594 Q870.2188,697.5156 870.7656,697.875 Z "/><text fill="#000000" font-family="sans-serif" font-size="12" lengthAdjust="spacingAndGlyphs" textLength="90" x="882" y="706.9102">ResultController</text><line style="stroke: #A80036; stroke-width: 1.5;" x1="854" x2="974" y1="718" y2="718"/><line style="stroke: #A80036; stroke-width: 1.5;" x1="854" x2="974" y1="726" y2="726"/><!--MD5=[8ede4dbfb3b498095887802b64b699f0]
class tictactoe.controllers.StartController--><rect fill="#FEFECE" filter="url(#f1e0g34n6h10fu)" height="48" id="tictactoe.controllers.StartController" style="stroke: #A80036; stroke-width: 1.5;" width="111" x="706.5" y="686"/><ellipse cx="721.5" cy="702" fill="#ADD1B2" rx="11" ry="11" style="stroke: #A80036; stroke-width: 1.0;"/><path d="M724.2656,697.875 Q724.4219,697.6563 724.6094,697.5469 Q724.7969,697.4375 725.0156,697.4375 Q725.3906,697.4375 725.625,697.7031 Q725.8594,697.9531 725.8594,698.5625 L725.8594,700.0156 Q725.8594,700.625 725.625,700.8906 Q725.3906,701.1563 725.0156,701.1563 Q724.6719,701.1563 724.4688,700.9531 Q724.2656,700.7656 724.1563,700.25 Q724.1094,699.8906 723.9219,699.7031 Q723.5938,699.3281 722.9844,699.1094 Q722.375,698.8906 721.75,698.8906 Q720.9844,698.8906 720.3438,699.2188 Q719.7188,699.5469 719.2188,700.2969 Q718.7344,701.0469 718.7344,702.0781 L718.7344,703.1719 Q718.7344,704.4063 719.625,705.2344 Q720.5156,706.0469 722.1094,706.0469 Q723.0469,706.0469 723.7031,705.7969 Q724.0938,705.6406 724.5156,705.2031 Q724.7813,704.9375 724.9219,704.8594 Q725.0781,704.7813 725.2813,704.7813 Q725.6094,704.7813 725.8594,705.0469 Q726.125,705.2969 726.125,705.6406 Q726.125,705.9844 725.7813,706.3906 Q725.2813,706.9688 724.4844,707.2969 Q723.4063,707.75 722.1094,707.75 Q720.5938,707.75 719.3906,707.125 Q718.4063,706.625 717.7188,705.5625 Q717.0313,704.4844 717.0313,703.2031 L717.0313,702.0469 Q717.0313,700.7188 717.6406,699.5781 Q718.2656,698.4219 719.3594,697.8125 Q720.4531,697.1875 721.6875,697.1875 Q722.4219,697.1875 723.0625,697.3594 Q723.7188,697.5156 724.2656,697.875 Z "/><text fill="#000000" font-family="sans-serif" font-size="12" lengthAdjust="spacingAndGlyphs" textLength="79" x="735.5" y="706.9102">StartController</text><line style="stroke: #A80036; stroke-width: 1.5;" x1="707.5" x2="816.5" y1="718" y2="718"/><line style="stroke: #A80036; stroke-width: 1.5;" x1="707.5" x2="816.5" y1="726" y2="726"/><!--MD5=[015754420c4cdd9bacda884b3fa8c6ca]
class tictactoe.views.View--><rect fill="#FEFECE" filter="url(#f1e0g34n6h10fu)" height="48" id="tictactoe.views.View" style="stroke: #A80036; stroke-width: 1.5;" width="58" x="710" y="42"/><ellipse cx="725" cy="58" fill="#ADD1B2" rx="11" ry="11" style="stroke: #A80036; stroke-width: 1.0;"/><path d="M727.7656,53.875 Q727.9219,53.6563 728.1094,53.5469 Q728.2969,53.4375 728.5156,53.4375 Q728.8906,53.4375 729.125,53.7031 Q729.3594,53.9531 729.3594,54.5625 L729.3594,56.0156 Q729.3594,56.625 729.125,56.8906 Q728.8906,57.1563 728.5156,57.1563 Q728.1719,57.1563 727.9688,56.9531 Q727.7656,56.7656 727.6563,56.25 Q727.6094,55.8906 727.4219,55.7031 Q727.0938,55.3281 726.4844,55.1094 Q725.875,54.8906 725.25,54.8906 Q724.4844,54.8906 723.8438,55.2188 Q723.2188,55.5469 722.7188,56.2969 Q722.2344,57.0469 722.2344,58.0781 L722.2344,59.1719 Q722.2344,60.4063 723.125,61.2344 Q724.0156,62.0469 725.6094,62.0469 Q726.5469,62.0469 727.2031,61.7969 Q727.5938,61.6406 728.0156,61.2031 Q728.2813,60.9375 728.4219,60.8594 Q728.5781,60.7813 728.7813,60.7813 Q729.1094,60.7813 729.3594,61.0469 Q729.625,61.2969 729.625,61.6406 Q729.625,61.9844 729.2813,62.3906 Q728.7813,62.9688 727.9844,63.2969 Q726.9063,63.75 725.6094,63.75 Q724.0938,63.75 722.8906,63.125 Q721.9063,62.625 721.2188,61.5625 Q720.5313,60.4844 720.5313,59.2031 L720.5313,58.0469 Q720.5313,56.7188 721.1406,55.5781 Q721.7656,54.4219 722.8594,53.8125 Q723.9531,53.1875 725.1875,53.1875 Q725.9219,53.1875 726.5625,53.3594 Q727.2188,53.5156 727.7656,53.875 Z "/><text fill="#000000" font-family="sans-serif" font-size="12" lengthAdjust="spacingAndGlyphs" textLength="26" x="739" y="62.9102">View</text><line style="stroke: #A80036; stroke-width: 1.5;" x1="711" x2="767" y1="74" y2="74"/><line style="stroke: #A80036; stroke-width: 1.5;" x1="711" x2="767" y1="82" y2="82"/><!--MD5=[17799e03bfee0ccb3aa03b93da9c26d6]
class tictactoe.views.ErrorView--><rect fill="#FEFECE" filter="url(#f1e0g34n6h10fu)" height="48" id="tictactoe.views.ErrorView" style="stroke: #A80036; stroke-width: 1.5;" width="85" x="930.5" y="42"/><ellipse cx="945.5" cy="58" fill="#ADD1B2" rx="11" ry="11" style="stroke: #A80036; stroke-width: 1.0;"/><path d="M948.2656,53.875 Q948.4219,53.6563 948.6094,53.5469 Q948.7969,53.4375 949.0156,53.4375 Q949.3906,53.4375 949.625,53.7031 Q949.8594,53.9531 949.8594,54.5625 L949.8594,56.0156 Q949.8594,56.625 949.625,56.8906 Q949.3906,57.1563 949.0156,57.1563 Q948.6719,57.1563 948.4688,56.9531 Q948.2656,56.7656 948.1563,56.25 Q948.1094,55.8906 947.9219,55.7031 Q947.5938,55.3281 946.9844,55.1094 Q946.375,54.8906 945.75,54.8906 Q944.9844,54.8906 944.3438,55.2188 Q943.7188,55.5469 943.2188,56.2969 Q942.7344,57.0469 942.7344,58.0781 L942.7344,59.1719 Q942.7344,60.4063 943.625,61.2344 Q944.5156,62.0469 946.1094,62.0469 Q947.0469,62.0469 947.7031,61.7969 Q948.0938,61.6406 948.5156,61.2031 Q948.7813,60.9375 948.9219,60.8594 Q949.0781,60.7813 949.2813,60.7813 Q949.6094,60.7813 949.8594,61.0469 Q950.125,61.2969 950.125,61.6406 Q950.125,61.9844 949.7813,62.3906 Q949.2813,62.9688 948.4844,63.2969 Q947.4063,63.75 946.1094,63.75 Q944.5938,63.75 943.3906,63.125 Q942.4063,62.625 941.7188,61.5625 Q941.0313,60.4844 941.0313,59.2031 L941.0313,58.0469 Q941.0313,56.7188 941.6406,55.5781 Q942.2656,54.4219 943.3594,53.8125 Q944.4531,53.1875 945.6875,53.1875 Q946.4219,53.1875 947.0625,53.3594 Q947.7188,53.5156 948.2656,53.875 Z "/><text fill="#000000" font-family="sans-serif" font-size="12" lengthAdjust="spacingAndGlyphs" textLength="53" x="959.5" y="62.9102">ErrorView</text><line style="stroke: #A80036; stroke-width: 1.5;" x1="931.5" x2="1014.5" y1="74" y2="74"/><line style="stroke: #A80036; stroke-width: 1.5;" x1="931.5" x2="1014.5" y1="82" y2="82"/><!--MD5=[2ae15d20e7f22fd333327d3852982126]
class tictactoe.views.PlayerView--><rect fill="#FEFECE" filter="url(#f1e0g34n6h10fu)" height="48" id="tictactoe.views.PlayerView" style="stroke: #A80036; stroke-width: 1.5;" width="92" x="803" y="42"/><ellipse cx="818" cy="58" fill="#ADD1B2" rx="11" ry="11" style="stroke: #A80036; stroke-width: 1.0;"/><path d="M820.7656,53.875 Q820.9219,53.6563 821.1094,53.5469 Q821.2969,53.4375 821.5156,53.4375 Q821.8906,53.4375 822.125,53.7031 Q822.3594,53.9531 822.3594,54.5625 L822.3594,56.0156 Q822.3594,56.625 822.125,56.8906 Q821.8906,57.1563 821.5156,57.1563 Q821.1719,57.1563 820.9688,56.9531 Q820.7656,56.7656 820.6563,56.25 Q820.6094,55.8906 820.4219,55.7031 Q820.0938,55.3281 819.4844,55.1094 Q818.875,54.8906 818.25,54.8906 Q817.4844,54.8906 816.8438,55.2188 Q816.2188,55.5469 815.7188,56.2969 Q815.2344,57.0469 815.2344,58.0781 L815.2344,59.1719 Q815.2344,60.4063 816.125,61.2344 Q817.0156,62.0469 818.6094,62.0469 Q819.5469,62.0469 820.2031,61.7969 Q820.5938,61.6406 821.0156,61.2031 Q821.2813,60.9375 821.4219,60.8594 Q821.5781,60.7813 821.7813,60.7813 Q822.1094,60.7813 822.3594,61.0469 Q822.625,61.2969 822.625,61.6406 Q822.625,61.9844 822.2813,62.3906 Q821.7813,62.9688 820.9844,63.2969 Q819.9063,63.75 818.6094,63.75 Q817.0938,63.75 815.8906,63.125 Q814.9063,62.625 814.2188,61.5625 Q813.5313,60.4844 813.5313,59.2031 L813.5313,58.0469 Q813.5313,56.7188 814.1406,55.5781 Q814.7656,54.4219 815.8594,53.8125 Q816.9531,53.1875 818.1875,53.1875 Q818.9219,53.1875 819.5625,53.3594 Q820.2188,53.5156 820.7656,53.875 Z "/><text fill="#000000" font-family="sans-serif" font-size="12" lengthAdjust="spacingAndGlyphs" textLength="60" x="832" y="62.9102">PlayerView</text><line style="stroke: #A80036; stroke-width: 1.5;" x1="804" x2="894" y1="74" y2="74"/><line style="stroke: #A80036; stroke-width: 1.5;" x1="804" x2="894" y1="82" y2="82"/><!--MD5=[1aab8645402f9730c5a520f7fa330421]
class tictactoe.types.Error--><rect fill="#FEFECE" filter="url(#f1e0g34n6h10fu)" height="48" id="tictactoe.types.Error" style="stroke: #A80036; stroke-width: 1.5;" width="59" x="1471.5" y="527.5"/><ellipse cx="1486.5" cy="543.5" fill="#ADD1B2" rx="11" ry="11" style="stroke: #A80036; stroke-width: 1.0;"/><path d="M1489.2656,539.375 Q1489.4219,539.1563 1489.6094,539.0469 Q1489.7969,538.9375 1490.0156,538.9375 Q1490.3906,538.9375 1490.625,539.2031 Q1490.8594,539.4531 1490.8594,540.0625 L1490.8594,541.5156 Q1490.8594,542.125 1490.625,542.3906 Q1490.3906,542.6563 1490.0156,542.6563 Q1489.6719,542.6563 1489.4688,542.4531 Q1489.2656,542.2656 1489.1563,541.75 Q1489.1094,541.3906 1488.9219,541.2031 Q1488.5938,540.8281 1487.9844,540.6094 Q1487.375,540.3906 1486.75,540.3906 Q1485.9844,540.3906 1485.3438,540.7188 Q1484.7188,541.0469 1484.2188,541.7969 Q1483.7344,542.5469 1483.7344,543.5781 L1483.7344,544.6719 Q1483.7344,545.9063 1484.625,546.7344 Q1485.5156,547.5469 1487.1094,547.5469 Q1488.0469,547.5469 1488.7031,547.2969 Q1489.0938,547.1406 1489.5156,546.7031 Q1489.7813,546.4375 1489.9219,546.3594 Q1490.0781,546.2813 1490.2813,546.2813 Q1490.6094,546.2813 1490.8594,546.5469 Q1491.125,546.7969 1491.125,547.1406 Q1491.125,547.4844 1490.7813,547.8906 Q1490.2813,548.4688 1489.4844,548.7969 Q1488.4063,549.25 1487.1094,549.25 Q1485.5938,549.25 1484.3906,548.625 Q1483.4063,548.125 1482.7188,547.0625 Q1482.0313,545.9844 1482.0313,544.7031 L1482.0313,543.5469 Q1482.0313,542.2188 1482.6406,541.0781 Q1483.2656,539.9219 1484.3594,539.3125 Q1485.4531,538.6875 1486.6875,538.6875 Q1487.4219,538.6875 1488.0625,538.8594 Q1488.7188,539.0156 1489.2656,539.375 Z "/><text fill="#000000" font-family="sans-serif" font-size="12" lengthAdjust="spacingAndGlyphs" textLength="27" x="1500.5" y="548.4102">Error</text><line style="stroke: #A80036; stroke-width: 1.5;" x1="1472.5" x2="1529.5" y1="559.5" y2="559.5"/><line style="stroke: #A80036; stroke-width: 1.5;" x1="1472.5" x2="1529.5" y1="567.5" y2="567.5"/><!--MD5=[8016c4b7c5b6e1d0c1906a688d612470]
class tictactoe.types.PlayerType--><rect fill="#FEFECE" filter="url(#f1e0g34n6h10fu)" height="48" id="tictactoe.types.PlayerType" style="stroke: #A80036; stroke-width: 1.5;" width="92" x="1344" y="527.5"/><ellipse cx="1359" cy="543.5" fill="#ADD1B2" rx="11" ry="11" style="stroke: #A80036; stroke-width: 1.0;"/><path d="M1361.7656,539.375 Q1361.9219,539.1563 1362.1094,539.0469 Q1362.2969,538.9375 1362.5156,538.9375 Q1362.8906,538.9375 1363.125,539.2031 Q1363.3594,539.4531 1363.3594,540.0625 L1363.3594,541.5156 Q1363.3594,542.125 1363.125,542.3906 Q1362.8906,542.6563 1362.5156,542.6563 Q1362.1719,542.6563 1361.9688,542.4531 Q1361.7656,542.2656 1361.6563,541.75 Q1361.6094,541.3906 1361.4219,541.2031 Q1361.0938,540.8281 1360.4844,540.6094 Q1359.875,540.3906 1359.25,540.3906 Q1358.4844,540.3906 1357.8438,540.7188 Q1357.2188,541.0469 1356.7188,541.7969 Q1356.2344,542.5469 1356.2344,543.5781 L1356.2344,544.6719 Q1356.2344,545.9063 1357.125,546.7344 Q1358.0156,547.5469 1359.6094,547.5469 Q1360.5469,547.5469 1361.2031,547.2969 Q1361.5938,547.1406 1362.0156,546.7031 Q1362.2813,546.4375 1362.4219,546.3594 Q1362.5781,546.2813 1362.7813,546.2813 Q1363.1094,546.2813 1363.3594,546.5469 Q1363.625,546.7969 1363.625,547.1406 Q1363.625,547.4844 1363.2813,547.8906 Q1362.7813,548.4688 1361.9844,548.7969 Q1360.9063,549.25 1359.6094,549.25 Q1358.0938,549.25 1356.8906,548.625 Q1355.9063,548.125 1355.2188,547.0625 Q1354.5313,545.9844 1354.5313,544.7031 L1354.5313,543.5469 Q1354.5313,542.2188 1355.1406,541.0781 Q1355.7656,539.9219 1356.8594,539.3125 Q1357.9531,538.6875 1359.1875,538.6875 Q1359.9219,538.6875 1360.5625,538.8594 Q1361.2188,539.0156 1361.7656,539.375 Z "/><text fill="#000000" font-family="sans-serif" font-size="12" lengthAdjust="spacingAndGlyphs" textLength="60" x="1373" y="548.4102">PlayerType</text><line style="stroke: #A80036; stroke-width: 1.5;" x1="1345" x2="1435" y1="559.5" y2="559.5"/><line style="stroke: #A80036; stroke-width: 1.5;" x1="1345" x2="1435" y1="567.5" y2="567.5"/><!--MD5=[4fe29ebdeb3371b5754843c99b0088e8]
reverse link utils.WithConsoleView to tictactoe.views.console.BoardView--><path d="M152.301,422.059 C161.125,426.937 170.235,431.746 179,436 C238.544,464.899 307.343,492.77 362.311,513.778 " fill="none" id="utils.WithConsoleView&lt;-tictactoe.views.console.BoardView" style="stroke: #A80036; stroke-width: 1.0;"/><polygon fill="none" points="148.721,428.076,134.793,412.107,155.64,415.905,148.721,428.076" style="stroke: #A80036; stroke-width: 1.0;"/><!--MD5=[14af8e5c407c7d67ca0af798dc6967c5]
link tictactoe.views.console.BoardView to tictactoe.controllers.PlayController--><path d="M519.906,610.33 C544.004,634.819 570.925,662.177 590.296,681.8628 " fill="none" id="tictactoe.views.console.BoardView-&gt;tictactoe.controllers.PlayController" style="stroke: #A80036; stroke-width: 1.0; stroke-dasharray: 7.0,7.0;"/><polygon fill="#A80036" points="594.067,685.6945,590.6062,676.4737,590.5603,682.1304,584.9036,682.0844,594.067,685.6945" style="stroke: #A80036; stroke-width: 1.0;"/><!--MD5=[d1f1f21fa3eb12d639631512d925e9a6]
reverse link tictactoe.views.View to tictactoe.views.console.ConsoleView--><path d="M710.591,106.346 C697.595,124.344 681.941,146.024 667.651,165.816 " fill="none" id="tictactoe.views.View&lt;-tictactoe.views.console.ConsoleView" style="stroke: #A80036; stroke-width: 1.0;"/><polygon fill="none" points="704.943,102.209,722.326,90.092,716.294,110.405,704.943,102.209" style="stroke: #A80036; stroke-width: 1.0;"/><!--MD5=[9113815f8bbc012213d6467f94b3dc5b]
link tictactoe.views.console.ConsoleView to tictactoe.views.console.StartView--><path d="M632.9138,295.2906 C632.9138,295.2906 636.252,328.984 637.691,343.503 " fill="none" id="tictactoe.views.console.ConsoleView-tictactoe.views.console.StartView" style="stroke: #A80036; stroke-width: 1.0;"/><polygon fill="#A80036" points="638.999,356.708,642.0924,347.3576,638.5062,351.7323,634.1314,348.1461,638.999,356.708" style="stroke: #A80036; stroke-width: 1.0;"/><line style="stroke: #A80036; stroke-width: 1.0;" x1="638.5062" x2="637.717" y1="351.7323" y2="343.7705"/><polygon fill="#A80036" points="631.731,283.349,628.3419,289.7141,632.9138,295.2906,636.3029,288.9255,631.731,283.349" style="stroke: #A80036; stroke-width: 1.0;"/><!--MD5=[1735144fa38f1aa47117a26d071db586]
link tictactoe.views.console.ConsoleView to tictactoe.views.console.PlayView--><path d="M551.7104,291.061 C551.7104,291.061 506.135,331.283 487.057,348.119 " fill="none" id="tictactoe.views.console.ConsoleView-tictactoe.views.console.PlayView" style="stroke: #A80036; stroke-width: 1.0;"/><polygon fill="#A80036" points="477.169,356.845,486.5636,353.8884,480.9177,353.5364,481.2698,347.8905,477.169,356.845" style="stroke: #A80036; stroke-width: 1.0;"/><line style="stroke: #A80036; stroke-width: 1.0;" x1="480.9177" x2="486.916" y1="353.5364" y2="348.2435"/><polygon fill="#A80036" points="560.708,283.121,553.5625,284.0918,551.7104,291.061,558.8559,290.0902,560.708,283.121" style="stroke: #A80036; stroke-width: 1.0;"/><!--MD5=[44d2792f564883fbc9918566bab83309]
link tictactoe.views.console.ConsoleView to tictactoe.views.console.ResultView--><path d="M707.871,280.0547 C707.871,280.0547 712.931,282.214 715,283 C815.883,321.351 854.092,281.714 955,320 C973.927,327.181 993.014,338.156 1009.58,349.158 " fill="none" id="tictactoe.views.console.ConsoleView-tictactoe.views.console.ResultView" style="stroke: #A80036; stroke-width: 1.0;"/><polygon fill="#A80036" points="1020.61,356.733,1015.4539,348.3416,1016.4878,353.9032,1010.9263,354.9371,1020.61,356.733" style="stroke: #A80036; stroke-width: 1.0;"/><line style="stroke: #A80036; stroke-width: 1.0;" x1="1016.4878" x2="1009.895" y1="353.9032" y2="349.374"/><polygon fill="#A80036" points="697.009,274.954,700.7398,281.125,707.871,280.0547,704.1402,273.8837,697.009,274.954" style="stroke: #A80036; stroke-width: 1.0;"/><!--MD5=[d983ff7a7ecf259bcdad60485d19cf95]
reverse link utils.WithConsoleView to tictactoe.views.console.CoordinateView--><path d="M129.753,348.714 C147.415,330.633 170.834,311.096 196.5,301.5 C251.451,280.954 668.516,283.961 724.5,301.5 C751.499,309.959 777.777,326.566 799.178,342.988 " fill="none" id="utils.WithConsoleView&lt;-tictactoe.views.console.CoordinateView" style="stroke: #A80036; stroke-width: 1.0;"/><polygon fill="none" points="134.753,353.619,116.076,363.626,124.436,344.155,134.753,353.619" style="stroke: #A80036; stroke-width: 1.0;"/><!--MD5=[67c850538af862baf636b8ffc29fd4c9]
link tictactoe.views.console.CoordinateView to tictactoe.types.Error--><path d="M938.202,430.939 C943.822,432.834 949.45,434.547 955,436 C1062.76,464.219 1357.72,427.478 1454,483.5 C1469.23,492.36 1480.73,508.353 1488.54,522.492 " fill="none" id="tictactoe.views.console.CoordinateView-&gt;tictactoe.types.Error" style="stroke: #A80036; stroke-width: 1.0; stroke-dasharray: 7.0,7.0;"/><polygon fill="#A80036" points="1491.05,527.203,1490.3491,517.3791,1488.6993,522.79,1483.2883,521.1403,1491.05,527.203" style="stroke: #A80036; stroke-width: 1.0;"/><!--MD5=[e1dd5bcb520317c417af9a829227fa67]
link tictactoe.views.console.CoordinateView to tictactoe.controllers.PlayController--><path d="M938.177,431.036 C943.803,432.907 949.439,434.588 955,436 C1018.96,452.243 1502.24,435.009 1547,483.5 C1592.37,532.653 1594.08,586.482 1547,634 C1530.23,650.932 711.14,633.173 689,642 C668.558,650.15 650.45,667.0757 637.507,681.8751 " fill="none" id="tictactoe.views.console.CoordinateView-&gt;tictactoe.controllers.PlayController" style="stroke: #A80036; stroke-width: 1.0; stroke-dasharray: 7.0,7.0;"/><polygon fill="#A80036" points="633.996,685.9839,642.8845,681.742,637.2449,682.1833,636.8036,676.5437,633.996,685.9839" style="stroke: #A80036; stroke-width: 1.0;"/><!--MD5=[521be967e4e828bbb4868581b766b1da]
reverse link tictactoe.views.ErrorView to tictactoe.views.console.ErrorView--><path d="M1035.53,72.836 C1099.29,80.185 1192,95.215 1215,122 C1269.83,185.868 1256.14,293.351 1243.76,349.804 " fill="none" id="tictactoe.views.ErrorView&lt;-tictactoe.views.console.ErrorView" style="stroke: #A80036; stroke-width: 1.0;"/><polygon fill="none" points="1034.7,79.787,1015.57,70.673,1036.21,65.868,1034.7,79.787" style="stroke: #A80036; stroke-width: 1.0;"/><!--MD5=[f807ad8458e0e3d6ca100de41032e69a]
reverse link tictactoe.views.PlayerView to tictactoe.views.console.MachinePlayerView--><path d="M890.197,101.92 C897.435,106.654 905.169,110.93 913,114 C942.153,125.429 954.361,109.337 983,122 C1012.49,135.04 1039.92,158.292 1060.69,179.254 " fill="none" id="tictactoe.views.PlayerView&lt;-tictactoe.views.console.MachinePlayerView" style="stroke: #A80036; stroke-width: 1.0;"/><polygon fill="none" points="885.942,107.48,873.93,90.024,894.206,96.179,885.942,107.48" style="stroke: #A80036; stroke-width: 1.0;"/><!--MD5=[9623adb787708e117decab727ca41eb7]
link tictactoe.views.console.PlayView to tictactoe.views.console.BoardView--><path d="M446.762,419.377 C449.149,438.656 452.327,464.313 455.237,487.817 " fill="none" id="tictactoe.views.console.PlayView-&gt;tictactoe.views.console.BoardView" style="stroke: #A80036; stroke-width: 1.0; stroke-dasharray: 7.0,7.0;"/><polygon fill="#A80036" points="455.854,492.797,458.7178,483.3737,455.2396,487.8349,450.7784,484.3567,455.854,492.797" style="stroke: #A80036; stroke-width: 1.0;"/><!--MD5=[c652744ae97b12ae96764b7849bbed7e]
link tictactoe.views.console.PlayView to tictactoe.views.PlayerView--><path d="M443.456,356.852 C446.133,299.979 460.933,177.588 537,122 C559.26,105.733 758.943,123.008 785,114 C797.882,109.547 810.361,101.522 820.825,93.349 " fill="none" id="tictactoe.views.console.PlayView-&gt;tictactoe.views.PlayerView" style="stroke: #A80036; stroke-width: 1.0; stroke-dasharray: 7.0,7.0;"/><polygon fill="#A80036" points="824.883,90.095,815.3593,92.6048,820.9823,93.223,820.3641,98.846,824.883,90.095" style="stroke: #A80036; stroke-width: 1.0;"/><!--MD5=[58e59420f385c3dc7e125fbf21a51657]
link tictactoe.views.console.PlayView to tictactoe.controllers.PlayController--><path d="M508.716,419.188 C535.272,434.69 563.683,456.144 581,483.5 C620.201,545.429 621.558,635.516 619.285,680.7938 " fill="none" id="tictactoe.views.console.PlayView-&gt;tictactoe.controllers.PlayController" style="stroke: #A80036; stroke-width: 1.0; stroke-dasharray: 7.0,7.0;"/><polygon fill="#A80036" points="619.009,685.8249,623.4977,677.0584,619.2838,680.8325,615.5097,676.6186,619.009,685.8249" style="stroke: #A80036; stroke-width: 1.0;"/><!--MD5=[f4e7a1ad991c63f6358299a416cb7db3]
link tictactoe.views.console.PlayView to tictactoe.types.PlayerType--><path d="M496.84,419.094 C511.118,425.798 526.802,432.075 542,436 C870.543,520.854 986.674,363.314 1304,483.5 C1326.84,492.152 1348.51,509.109 1364.39,523.799 " fill="none" id="tictactoe.views.console.PlayView-&gt;tictactoe.types.PlayerType" style="stroke: #A80036; stroke-width: 1.0; stroke-dasharray: 7.0,7.0;"/><polygon fill="#A80036" points="1368.29,527.478,1364.4794,518.3962,1364.6497,524.0505,1358.9954,524.2207,1368.29,527.478" style="stroke: #A80036; stroke-width: 1.0;"/><!--MD5=[9744e604919ab000255dde255237b11a]
link tictactoe.views.console.ResultView to tictactoe.controllers.ResultController--><path d="M1116.91,419.087 C1131.61,425.622 1147.61,431.82 1163,436 C1259.4,462.178 1543.2,409.227 1610,483.5 C1654.73,533.234 1654.69,584.233 1610,634 C1568.35,680.3752 1146.5,700.5872 980.55,706.7872 " fill="none" id="tictactoe.views.console.ResultView-&gt;tictactoe.controllers.ResultController" style="stroke: #A80036; stroke-width: 1.0; stroke-dasharray: 7.0,7.0;"/><polygon fill="#A80036" points="975.235,706.9842,984.3763,710.6498,980.2316,706.7999,984.0815,702.6552,975.235,706.9842" style="stroke: #A80036; stroke-width: 1.0;"/><!--MD5=[43f857ab0050bb78ce27120a0af9afa2]
link tictactoe.views.console.StartView to utils.PlayersDialog--><path d="M610.979,356.755 C588.741,336.684 556.917,312.399 523.5,301.5 C455.894,279.45 430.826,278.609 363.5,301.5 C329.463,313.072 297.678,339.556 276.635,360.192 " fill="none" id="tictactoe.views.console.StartView-&gt;utils.PlayersDialog" style="stroke: #A80036; stroke-width: 1.0; stroke-dasharray: 7.0,7.0;"/><polygon fill="#A80036" points="272.833,363.972,282.0354,360.4625,276.3785,360.4465,276.3945,354.7896,272.833,363.972" style="stroke: #A80036; stroke-width: 1.0;"/><!--MD5=[d3767328306413c38638214ca1b9afec]
link tictactoe.views.console.StartView to tictactoe.controllers.StartController--><path d="M653.289,419.105 C676.443,480.848 729.013,621.035 751.49,680.9724 " fill="none" id="tictactoe.views.console.StartView-&gt;tictactoe.controllers.StartController" style="stroke: #A80036; stroke-width: 1.0; stroke-dasharray: 7.0,7.0;"/><polygon fill="#A80036" points="753.313,685.8335,753.8981,676.002,751.5574,681.1519,746.4075,678.8111,753.313,685.8335" style="stroke: #A80036; stroke-width: 1.0;"/><!--MD5=[e665259f0705ebc0d9068c66ae844f61]
reverse link tictactoe.views.PlayerView to tictactoe.views.console.UserPlayerView--><path d="M849,110.318 C849,127.479 849,147.46 849,165.816 " fill="none" id="tictactoe.views.PlayerView&lt;-tictactoe.views.console.UserPlayerView" style="stroke: #A80036; stroke-width: 1.0;"/><polygon fill="none" points="842,110.092,849,90.092,856,110.092,842,110.092" style="stroke: #A80036; stroke-width: 1.0;"/><!--MD5=[d08a44d06940417b04e1f442f789385d]
link tictactoe.views.console.UserPlayerView to tictactoe.views.console.ErrorView--><path d="M965.774,277.228 C971.56,279.28 977.324,281.219 983,283 C1060.93,307.451 1090.54,282.316 1163,320 C1175.86,326.686 1188.04,336.38 1198.58,346.326 " fill="none" id="tictactoe.views.console.UserPlayerView-&gt;tictactoe.views.console.ErrorView" style="stroke: #A80036; stroke-width: 1.0; stroke-dasharray: 7.0,7.0;"/><polygon fill="#A80036" points="1202.38,349.997,1198.6798,340.8697,1198.7815,346.5256,1193.1255,346.6273,1202.38,349.997" style="stroke: #A80036; stroke-width: 1.0;"/><!--MD5=[93525d2da9d792717dcb2150911bbe9e]
link tictactoe.views.console.UserPlayerView to tictactoe.views.console.CoordinateView--><path d="M849,283.349 C849,301.148 849,320.566 849,337.733 " fill="none" id="tictactoe.views.console.UserPlayerView-&gt;tictactoe.views.console.CoordinateView" style="stroke: #A80036; stroke-width: 1.0; stroke-dasharray: 7.0,7.0;"/><polygon fill="#A80036" points="849,342.984,853,333.984,849,337.984,845,333.984,849,342.984" style="stroke: #A80036; stroke-width: 1.0;"/><!--MD5=[36338a4018742ab92758d15103a94fa8]
@startuml

class  tictactoe.views.console.BoardView{
- playController: PlayController
~ BoardView(PlayController)
~ write(): void
- printRowBoard(int): void
- printSquareValueBoard(int, int): void
}
utils.WithConsoleView <|-down- tictactoe.views.console.BoardView
tictactoe.views.console.BoardView ..> tictactoe.controllers.PlayController

class  tictactoe.views.console.ConsoleView{
- startView: StartView
- playView: PlayView
- resultView: ResultView
+ ConsoleView()
# interact(Controller): void
}
tictactoe.views.View <|-down- tictactoe.views.console.ConsoleView
tictactoe.views.console.ConsoleView *-down-> tictactoe.views.console.StartView
tictactoe.views.console.ConsoleView *-down-> tictactoe.views.console.PlayView
tictactoe.views.console.ConsoleView *-down-> tictactoe.views.console.ResultView

class  tictactoe.views.console.CoordinateView{
~ playController: PlayController
~ CoordinateView(PlayController)
~ read(String): int[]
}
utils.WithConsoleView <|-down- tictactoe.views.console.CoordinateView
tictactoe.views.console.CoordinateView ..> tictactoe.types.Error
tictactoe.views.console.CoordinateView ..> tictactoe.controllers.PlayController

class  tictactoe.views.console.ErrorView{
~ ErrorView(Error)
~ writeln(): void
}
tictactoe.views.ErrorView <|-down- tictactoe.views.console.ErrorView

class  tictactoe.views.console.MachinePlayerView{
~ MachinePlayerView(PlayController)
~ readCoordinateToPut(): int[]
~ readCoordinatesToMove(): int[][]
}
tictactoe.views.PlayerView <|-down- tictactoe.views.console.MachinePlayerView

class  tictactoe.views.console.PlayView{
~ interact(PlayController): void
}
tictactoe.views.console.PlayView ..> tictactoe.views.console.BoardView
tictactoe.views.console.PlayView ..> tictactoe.views.PlayerView
tictactoe.views.console.PlayView ..> tictactoe.controllers.PlayController
tictactoe.views.console.PlayView ..> tictactoe.types.PlayerType

class tictactoe.views.console.ResultView{
~ interact(ResultController): void
}
tictactoe.views.console.ResultView ..> tictactoe.controllers.ResultController

class tictactoe.views.console.StartView{
~ interact(StartController): void
}
tictactoe.views.console.StartView ..> utils.PlayersDialog
tictactoe.views.console.StartView ..> tictactoe.controllers.StartController

class  tictactoe.views.console.UserPlayerView{
~ {static} ENTER_COORDINATE_TO_PUT: String
~ {static} ENTER_COORDINATE_TO_REMOVE: String
~ UserPlayerView(PlayController)
~ readCoordinateToPut(): int[]
~ readCoordinatesToMove(): int[][]
}
tictactoe.views.PlayerView <|-down- tictactoe.views.console.UserPlayerView
tictactoe.views.console.UserPlayerView ..> tictactoe.views.console.ErrorView
tictactoe.views.console.UserPlayerView ..> tictactoe.views.console.CoordinateView

@enduml

PlantUML version 1.2020.15(Sun Jun 28 13:39:45 CEST 2020)
(GPL source distribution)
Java Runtime: Java(TM) SE Runtime Environment
JVM: Java HotSpot(TM) 64-Bit Server VM
Default Encoding: windows-1252
Language: es
Country: ES
--></g></svg>