<?xml version="1.0" encoding="UTF-8" standalone="no"?><svg xmlns="http://www.w3.org/2000/svg" xmlns:xlink="http://www.w3.org/1999/xlink" contentScriptType="application/ecmascript" contentStyleType="text/css" height="350px" preserveAspectRatio="none" style="width:341px;height:350px;" version="1.1" viewBox="0 0 341 350" width="341px" zoomAndPan="magnify"><defs><filter height="300%" id="f1n89pkei7i45l" width="300%" x="-1" y="-1"><feGaussianBlur result="blurOut" stdDeviation="2.0"/><feColorMatrix in="blurOut" result="blurOut2" type="matrix" values="0 0 0 0 0 0 0 0 0 0 0 0 0 0 0 0 0 0 .4 0"/><feOffset dx="4.0" dy="4.0" in="blurOut2" result="blurOut3"/><feBlend in="SourceGraphic" in2="blurOut3" mode="normal"/></filter></defs><g><!--MD5=[2d083dca3cab6023baf6a9cac5f9557f]
cluster tictactoe.types--><polygon fill="#FFFFFF" filter="url(#f1n89pkei7i45l)" points="16,6,125,6,132,29.6094,319,29.6094,319,338,16,338,16,6" style="stroke: #000000; stroke-width: 1.5;"/><line style="stroke: #000000; stroke-width: 1.5;" x1="16" x2="132" y1="29.6094" y2="29.6094"/><text fill="#000000" font-family="sans-serif" font-size="14" font-weight="bold" lengthAdjust="spacingAndGlyphs" textLength="103" x="20" y="22.5332">tictactoe.types</text><!--MD5=[1aab8645402f9730c5a520f7fa330421]
class tictactoe.types.Error--><rect fill="#FEFECE" filter="url(#f1n89pkei7i45l)" height="103.3438" id="tictactoe.types.Error" style="stroke: #A80036; stroke-width: 1.5;" width="131" x="32.5" y="42"/><ellipse cx="80.25" cy="58" fill="#EB937F" rx="11" ry="11" style="stroke: #A80036; stroke-width: 1.0;"/><path d="M79.1094,58.7969 L79.1094,61.2969 L83.4375,61.2969 L83.4375,60.375 Q83.4375,59.7656 83.6719,59.5 Q83.9219,59.2344 84.2969,59.2344 Q84.6719,59.2344 84.9063,59.5 Q85.1406,59.7656 85.1406,60.375 L85.1406,63 L77.1406,63 Q76.5156,63 76.25,62.7656 Q76,62.5313 76,62.1406 Q76,61.7656 76.2656,61.5313 Q76.5313,61.2969 77.1406,61.2969 L77.4063,61.2969 L77.4063,54.6406 L77.1406,54.6406 Q76.5156,54.6406 76.25,54.4063 Q76,54.1719 76,53.7813 Q76,53.4063 76.25,53.1719 Q76.5156,52.9375 77.1406,52.9375 L84.7656,52.9375 L84.7656,55.5313 Q84.7656,56.1406 84.5313,56.4063 Q84.3125,56.6563 83.9219,56.6563 Q83.5469,56.6563 83.3125,56.4063 Q83.0781,56.1406 83.0781,55.5313 L83.0781,54.6406 L79.1094,54.6406 L79.1094,57.0938 L80.5938,57.0938 Q80.5938,56.4375 80.7188,56.25 Q80.9844,55.8438 81.4531,55.8438 Q81.8281,55.8438 82.0625,56.1094 Q82.2969,56.3594 82.2969,56.9688 L82.2969,58.9375 Q82.2969,59.4844 82.1719,59.6719 Q81.9063,60.0625 81.4531,60.0625 Q80.9844,60.0625 80.7188,59.6563 Q80.5938,59.4688 80.5938,58.7969 L79.1094,58.7969 Z "/><text fill="#000000" font-family="sans-serif" font-size="12" lengthAdjust="spacingAndGlyphs" textLength="27" x="100.75" y="62.9102">Error</text><line style="stroke: #A80036; stroke-width: 1.5;" x1="33.5" x2="162.5" y1="74" y2="74"/><text fill="#000000" font-family="sans-serif" font-size="11" lengthAdjust="spacingAndGlyphs" textLength="61" x="38.5" y="89.4189">NOT_EMPTY</text><text fill="#000000" font-family="sans-serif" font-size="11" lengthAdjust="spacingAndGlyphs" textLength="65" x="38.5" y="103.2549">NOT_OWNER</text><text fill="#000000" font-family="sans-serif" font-size="11" lengthAdjust="spacingAndGlyphs" textLength="108" x="38.5" y="117.0908">SAME_COORDINATES</text><text fill="#000000" font-family="sans-serif" font-size="11" lengthAdjust="spacingAndGlyphs" textLength="119" x="38.5" y="130.9268">WRONG_COORDINATES</text><line style="stroke: #A80036; stroke-width: 1.5;" x1="33.5" x2="162.5" y1="137.3438" y2="137.3438"/><!--MD5=[8016c4b7c5b6e1d0c1906a688d612470]
class tictactoe.types.PlayerType--><rect fill="#FEFECE" filter="url(#f1n89pkei7i45l)" height="75.6719" id="tictactoe.types.PlayerType" style="stroke: #A80036; stroke-width: 1.5;" width="104" x="199" y="55.5"/><ellipse cx="219.4" cy="71.5" fill="#EB937F" rx="11" ry="11" style="stroke: #A80036; stroke-width: 1.0;"/><path d="M218.2594,72.2969 L218.2594,74.7969 L222.5875,74.7969 L222.5875,73.875 Q222.5875,73.2656 222.8219,73 Q223.0719,72.7344 223.4469,72.7344 Q223.8219,72.7344 224.0563,73 Q224.2906,73.2656 224.2906,73.875 L224.2906,76.5 L216.2906,76.5 Q215.6656,76.5 215.4,76.2656 Q215.15,76.0313 215.15,75.6406 Q215.15,75.2656 215.4156,75.0313 Q215.6813,74.7969 216.2906,74.7969 L216.5563,74.7969 L216.5563,68.1406 L216.2906,68.1406 Q215.6656,68.1406 215.4,67.9063 Q215.15,67.6719 215.15,67.2813 Q215.15,66.9063 215.4,66.6719 Q215.6656,66.4375 216.2906,66.4375 L223.9156,66.4375 L223.9156,69.0313 Q223.9156,69.6406 223.6813,69.9063 Q223.4625,70.1563 223.0719,70.1563 Q222.6969,70.1563 222.4625,69.9063 Q222.2281,69.6406 222.2281,69.0313 L222.2281,68.1406 L218.2594,68.1406 L218.2594,70.5938 L219.7438,70.5938 Q219.7438,69.9375 219.8688,69.75 Q220.1344,69.3438 220.6031,69.3438 Q220.9781,69.3438 221.2125,69.6094 Q221.4469,69.8594 221.4469,70.4688 L221.4469,72.4375 Q221.4469,72.9844 221.3219,73.1719 Q221.0563,73.5625 220.6031,73.5625 Q220.1344,73.5625 219.8688,73.1563 Q219.7438,72.9688 219.7438,72.2969 L218.2594,72.2969 Z "/><text fill="#000000" font-family="sans-serif" font-size="12" lengthAdjust="spacingAndGlyphs" textLength="60" x="234.6" y="76.4102">PlayerType</text><line style="stroke: #A80036; stroke-width: 1.5;" x1="200" x2="302" y1="87.5" y2="87.5"/><text fill="#000000" font-family="sans-serif" font-size="11" lengthAdjust="spacingAndGlyphs" textLength="74" x="205" y="102.9189">USER_PLAYER</text><text fill="#000000" font-family="sans-serif" font-size="11" lengthAdjust="spacingAndGlyphs" textLength="92" x="205" y="116.7549">MACHINE_PLAYER</text><line style="stroke: #A80036; stroke-width: 1.5;" x1="200" x2="302" y1="123.1719" y2="123.1719"/><!--MD5=[068fe37cd9d2e226408ce790264f2fa7]
class tictactoe.types.StateValue--><rect fill="#FEFECE" filter="url(#f1n89pkei7i45l)" height="103.3438" id="tictactoe.types.StateValue" style="stroke: #A80036; stroke-width: 1.5;" width="91" x="52.5" y="212"/><ellipse cx="67.5" cy="228" fill="#EB937F" rx="11" ry="11" style="stroke: #A80036; stroke-width: 1.0;"/><path d="M66.3594,228.7969 L66.3594,231.2969 L70.6875,231.2969 L70.6875,230.375 Q70.6875,229.7656 70.9219,229.5 Q71.1719,229.2344 71.5469,229.2344 Q71.9219,229.2344 72.1563,229.5 Q72.3906,229.7656 72.3906,230.375 L72.3906,233 L64.3906,233 Q63.7656,233 63.5,232.7656 Q63.25,232.5313 63.25,232.1406 Q63.25,231.7656 63.5156,231.5313 Q63.7813,231.2969 64.3906,231.2969 L64.6563,231.2969 L64.6563,224.6406 L64.3906,224.6406 Q63.7656,224.6406 63.5,224.4063 Q63.25,224.1719 63.25,223.7813 Q63.25,223.4063 63.5,223.1719 Q63.7656,222.9375 64.3906,222.9375 L72.0156,222.9375 L72.0156,225.5313 Q72.0156,226.1406 71.7813,226.4063 Q71.5625,226.6563 71.1719,226.6563 Q70.7969,226.6563 70.5625,226.4063 Q70.3281,226.1406 70.3281,225.5313 L70.3281,224.6406 L66.3594,224.6406 L66.3594,227.0938 L67.8438,227.0938 Q67.8438,226.4375 67.9688,226.25 Q68.2344,225.8438 68.7031,225.8438 Q69.0781,225.8438 69.3125,226.1094 Q69.5469,226.3594 69.5469,226.9688 L69.5469,228.9375 Q69.5469,229.4844 69.4219,229.6719 Q69.1563,230.0625 68.7031,230.0625 Q68.2344,230.0625 67.9688,229.6563 Q67.8438,229.4688 67.8438,228.7969 L66.3594,228.7969 Z "/><text fill="#000000" font-family="sans-serif" font-size="12" lengthAdjust="spacingAndGlyphs" textLength="59" x="81.5" y="232.9102">StateValue</text><line style="stroke: #A80036; stroke-width: 1.5;" x1="53.5" x2="142.5" y1="244" y2="244"/><text fill="#000000" font-family="sans-serif" font-size="11" lengthAdjust="spacingAndGlyphs" textLength="33" x="58.5" y="259.4189">INITIAL</text><text fill="#000000" font-family="sans-serif" font-size="11" lengthAdjust="spacingAndGlyphs" textLength="45" x="58.5" y="273.2549">IN_GAME</text><text fill="#000000" font-family="sans-serif" font-size="11" lengthAdjust="spacingAndGlyphs" textLength="39" x="58.5" y="287.0908">RESULT</text><text fill="#000000" font-family="sans-serif" font-size="11" lengthAdjust="spacingAndGlyphs" textLength="21" x="58.5" y="300.9268">EXIT</text><line style="stroke: #A80036; stroke-width: 1.5;" x1="53.5" x2="142.5" y1="307.3438" y2="307.3438"/><!--MD5=[3b37da8b6e7a1800631cf51c5954ec17]
class tictactoe.types.Token--><rect fill="#FEFECE" filter="url(#f1n89pkei7i45l)" height="117.1797" id="tictactoe.types.Token" style="stroke: #A80036; stroke-width: 1.5;" width="101" x="178.5" y="205"/><ellipse cx="209.25" cy="221" fill="#EB937F" rx="11" ry="11" style="stroke: #A80036; stroke-width: 1.0;"/><path d="M208.1094,221.7969 L208.1094,224.2969 L212.4375,224.2969 L212.4375,223.375 Q212.4375,222.7656 212.6719,222.5 Q212.9219,222.2344 213.2969,222.2344 Q213.6719,222.2344 213.9063,222.5 Q214.1406,222.7656 214.1406,223.375 L214.1406,226 L206.1406,226 Q205.5156,226 205.25,225.7656 Q205,225.5313 205,225.1406 Q205,224.7656 205.2656,224.5313 Q205.5313,224.2969 206.1406,224.2969 L206.4063,224.2969 L206.4063,217.6406 L206.1406,217.6406 Q205.5156,217.6406 205.25,217.4063 Q205,217.1719 205,216.7813 Q205,216.4063 205.25,216.1719 Q205.5156,215.9375 206.1406,215.9375 L213.7656,215.9375 L213.7656,218.5313 Q213.7656,219.1406 213.5313,219.4063 Q213.3125,219.6563 212.9219,219.6563 Q212.5469,219.6563 212.3125,219.4063 Q212.0781,219.1406 212.0781,218.5313 L212.0781,217.6406 L208.1094,217.6406 L208.1094,220.0938 L209.5938,220.0938 Q209.5938,219.4375 209.7188,219.25 Q209.9844,218.8438 210.4531,218.8438 Q210.8281,218.8438 211.0625,219.1094 Q211.2969,219.3594 211.2969,219.9688 L211.2969,221.9375 Q211.2969,222.4844 211.1719,222.6719 Q210.9063,223.0625 210.4531,223.0625 Q209.9844,223.0625 209.7188,222.6563 Q209.5938,222.4688 209.5938,221.7969 L208.1094,221.7969 Z "/><text fill="#000000" font-family="sans-serif" font-size="12" lengthAdjust="spacingAndGlyphs" textLength="34" x="226.75" y="225.9102">Token</text><line style="stroke: #A80036; stroke-width: 1.5;" x1="179.5" x2="278.5" y1="237" y2="237"/><text fill="#000000" font-family="sans-serif" font-size="11" lengthAdjust="spacingAndGlyphs" textLength="47" x="198.5" y="252.4189">TOKEN_X</text><text fill="#000000" font-family="sans-serif" font-size="11" lengthAdjust="spacingAndGlyphs" textLength="48" x="198.5" y="266.2549">TOKEN_O</text><rect fill="none" height="6" style="stroke: #C82930; stroke-width: 1.0;" width="6" x="186.5" y="272.6719"/><text fill="#000000" font-family="sans-serif" font-size="11" lengthAdjust="spacingAndGlyphs" textLength="75" x="198.5" y="280.0908">character: char</text><line style="stroke: #A80036; stroke-width: 1.5;" x1="179.5" x2="278.5" y1="286.5078" y2="286.5078"/><polygon fill="#4177AF" points="189.5,293.5078,185.5,299.5078,193.5,299.5078" style="stroke: #1963A0; stroke-width: 1.0;"/><text fill="#000000" font-family="sans-serif" font-size="11" lengthAdjust="spacingAndGlyphs" textLength="59" x="198.5" y="301.9268">Token(char)</text><ellipse cx="189.5" cy="311.3438" fill="#84BE84" rx="3" ry="3" style="stroke: #038048; stroke-width: 1.0;"/><text fill="#000000" font-family="sans-serif" font-size="11" lengthAdjust="spacingAndGlyphs" textLength="74" x="198.5" y="315.7627">getChar(): char</text><!--MD5=[437d17e8b8710969a276c2fa953b1ad1]
link tictactoe.types.Error to tictactoe.types.PlayerType--><!--MD5=[dc9d72b6bd5fbd3f00e92c21197e3daf]
link tictactoe.types.Error to tictactoe.types.StateValue--><!--MD5=[c4c2c4ecadea90b331560708a9d81f8e]
link tictactoe.types.StateValue to tictactoe.types.Token--><!--MD5=[77bb54ab5539eae28c4e262a81ae228f]
@startuml

enum  tictactoe.types.Error{
NOT_EMPTY
NOT_OWNER
SAME_COORDINATES
WRONG_COORDINATES
}

enum  tictactoe.types.PlayerType{
USER_PLAYER
MACHINE_PLAYER
}

enum  tictactoe.types.StateValue{
INITIAL
IN_GAME
RESULT
EXIT
}

enum  tictactoe.types.Token{
TOKEN_X
TOKEN_O
- character: char
~ Token(char)
+ getChar(): char
}

@enduml

PlantUML version 1.2020.15(Sun Jun 28 13:39:45 CEST 2020)
(GPL source distribution)
Java Runtime: Java(TM) SE Runtime Environment
JVM: Java HotSpot(TM) 64-Bit Server VM
Default Encoding: windows-1252
Language: es
Country: ES
--></g></svg>