<?xml version="1.0" encoding="UTF-8" standalone="no"?><svg xmlns="http://www.w3.org/2000/svg" xmlns:xlink="http://www.w3.org/1999/xlink" contentScriptType="application/ecmascript" contentStyleType="text/css" height="652px" preserveAspectRatio="none" style="width:1616px;height:652px;" version="1.1" viewBox="0 0 1616 652" width="1616px" zoomAndPan="magnify"><defs><filter height="300%" id="f1ae3awu9cy3pw" width="300%" x="-1" y="-1"><feGaussianBlur result="blurOut" stdDeviation="2.0"/><feColorMatrix in="blurOut" result="blurOut2" type="matrix" values="0 0 0 0 0 0 0 0 0 0 0 0 0 0 0 0 0 0 .4 0"/><feOffset dx="4.0" dy="4.0" in="blurOut2" result="blurOut3"/><feBlend in="SourceGraphic" in2="blurOut3" mode="normal"/></filter></defs><g><!--MD5=[64182ab34c08ac367bbf699869515711]
cluster tictactoe.views.console--><polygon fill="#FFFFFF" filter="url(#f1ae3awu9cy3pw)" points="486,130,658,130,665,153.6094,1408,153.6094,1408,640,486,640,486,130" style="stroke: #000000; stroke-width: 1.5;"/><line style="stroke: #000000; stroke-width: 1.5;" x1="486" x2="665" y1="153.6094" y2="153.6094"/><text fill="#000000" font-family="sans-serif" font-size="14" font-weight="bold" lengthAdjust="spacingAndGlyphs" textLength="166" x="490" y="146.5332">tictactoe.views.console</text><!--MD5=[c52f45833d539af9e29a9d34b8b7302b]
cluster utils--><polygon fill="#FFFFFF" filter="url(#f1ae3awu9cy3pw)" points="1432,178.5,1468,178.5,1475,202.1094,1594,202.1094,1594,278.5,1432,278.5,1432,178.5" style="stroke: #000000; stroke-width: 1.5;"/><line style="stroke: #000000; stroke-width: 1.5;" x1="1432" x2="1475" y1="202.1094" y2="202.1094"/><text fill="#000000" font-family="sans-serif" font-size="14" font-weight="bold" lengthAdjust="spacingAndGlyphs" textLength="30" x="1436" y="195.0332">utils</text><!--MD5=[f4e83a21a957c5b9ba9691e6361db36b]
cluster tictactoe.views--><polygon fill="#FFFFFF" filter="url(#f1ae3awu9cy3pw)" points="780,6,892,6,899,29.6094,1118,29.6094,1118,106,780,106,780,6" style="stroke: #000000; stroke-width: 1.5;"/><line style="stroke: #000000; stroke-width: 1.5;" x1="780" x2="899" y1="29.6094" y2="29.6094"/><text fill="#000000" font-family="sans-serif" font-size="14" font-weight="bold" lengthAdjust="spacingAndGlyphs" textLength="106" x="784" y="22.5332">tictactoe.views</text><!--MD5=[ee7e9a007a7c4d40c0679a27f272732d]
cluster tictactoe.controllers--><polygon fill="#FFFFFF" filter="url(#f1ae3awu9cy3pw)" points="16,505.5,164,505.5,171,529.1094,462,529.1094,462,605.5,16,605.5,16,505.5" style="stroke: #000000; stroke-width: 1.5;"/><line style="stroke: #000000; stroke-width: 1.5;" x1="16" x2="171" y1="529.1094" y2="529.1094"/><text fill="#000000" font-family="sans-serif" font-size="14" font-weight="bold" lengthAdjust="spacingAndGlyphs" textLength="142" x="20" y="522.0332">tictactoe.controllers</text><!--MD5=[270aad5bca7cd81b5a24665b2403b70b]
class tictactoe.views.console.BoardView--><rect fill="#FEFECE" filter="url(#f1ae3awu9cy3pw)" height="117.1797" id="tictactoe.views.console.BoardView" style="stroke: #A80036; stroke-width: 1.5;" width="201" x="759.5" y="507"/><ellipse cx="826.25" cy="523" fill="#ADD1B2" rx="11" ry="11" style="stroke: #A80036; stroke-width: 1.0;"/><path d="M829.0156,518.875 Q829.1719,518.6563 829.3594,518.5469 Q829.5469,518.4375 829.7656,518.4375 Q830.1406,518.4375 830.375,518.7031 Q830.6094,518.9531 830.6094,519.5625 L830.6094,521.0156 Q830.6094,521.625 830.375,521.8906 Q830.1406,522.1563 829.7656,522.1563 Q829.4219,522.1563 829.2188,521.9531 Q829.0156,521.7656 828.9063,521.25 Q828.8594,520.8906 828.6719,520.7031 Q828.3438,520.3281 827.7344,520.1094 Q827.125,519.8906 826.5,519.8906 Q825.7344,519.8906 825.0938,520.2188 Q824.4688,520.5469 823.9688,521.2969 Q823.4844,522.0469 823.4844,523.0781 L823.4844,524.1719 Q823.4844,525.4063 824.375,526.2344 Q825.2656,527.0469 826.8594,527.0469 Q827.7969,527.0469 828.4531,526.7969 Q828.8438,526.6406 829.2656,526.2031 Q829.5313,525.9375 829.6719,525.8594 Q829.8281,525.7813 830.0313,525.7813 Q830.3594,525.7813 830.6094,526.0469 Q830.875,526.2969 830.875,526.6406 Q830.875,526.9844 830.5313,527.3906 Q830.0313,527.9688 829.2344,528.2969 Q828.1563,528.75 826.8594,528.75 Q825.3438,528.75 824.1406,528.125 Q823.1563,527.625 822.4688,526.5625 Q821.7813,525.4844 821.7813,524.2031 L821.7813,523.0469 Q821.7813,521.7188 822.3906,520.5781 Q823.0156,519.4219 824.1094,518.8125 Q825.2031,518.1875 826.4375,518.1875 Q827.1719,518.1875 827.8125,518.3594 Q828.4688,518.5156 829.0156,518.875 Z "/><text fill="#000000" font-family="sans-serif" font-size="12" lengthAdjust="spacingAndGlyphs" textLength="59" x="846.75" y="527.9102">BoardView</text><line style="stroke: #A80036; stroke-width: 1.5;" x1="760.5" x2="959.5" y1="539" y2="539"/><polygon fill="none" points="770.5,546,766.5,552,774.5,552" style="stroke: #1963A0; stroke-width: 1.0;"/><text fill="#000000" font-family="sans-serif" font-size="11" lengthAdjust="spacingAndGlyphs" textLength="63" x="779.5" y="554.4189">board: Board</text><line style="stroke: #A80036; stroke-width: 1.5;" x1="760.5" x2="959.5" y1="560.8359" y2="560.8359"/><polygon fill="#4177AF" points="770.5,567.8359,766.5,573.8359,774.5,573.8359" style="stroke: #1963A0; stroke-width: 1.0;"/><text fill="#000000" font-family="sans-serif" font-size="11" lengthAdjust="spacingAndGlyphs" textLength="92" x="779.5" y="576.2549">BoardView(Board)</text><polygon fill="#4177AF" points="770.5,581.6719,766.5,587.6719,774.5,587.6719" style="stroke: #1963A0; stroke-width: 1.0;"/><text fill="#000000" font-family="sans-serif" font-size="11" lengthAdjust="spacingAndGlyphs" textLength="59" x="779.5" y="590.0908">write(): void</text><rect fill="#F24D5C" height="6" style="stroke: #C82930; stroke-width: 1.0;" width="6" x="767.5" y="596.5078"/><text fill="#000000" font-family="sans-serif" font-size="11" lengthAdjust="spacingAndGlyphs" textLength="118" x="779.5" y="603.9268">printRowBoard(int): void</text><rect fill="#F24D5C" height="6" style="stroke: #C82930; stroke-width: 1.0;" width="6" x="767.5" y="610.3438"/><text fill="#000000" font-family="sans-serif" font-size="11" lengthAdjust="spacingAndGlyphs" textLength="175" x="779.5" y="617.7627">printSquareValueBoard(int, int): void</text><!--MD5=[0e5b47c419ba94b2bd3b06fa97d12493]
class tictactoe.views.console.ChoosePlayerView--><rect fill="#FEFECE" filter="url(#f1ae3awu9cy3pw)" height="75.6719" id="tictactoe.views.console.ChoosePlayerView" style="stroke: #A80036; stroke-width: 1.5;" width="139" x="1085.5" y="527.5"/><ellipse cx="1101.85" cy="543.5" fill="#ADD1B2" rx="11" ry="11" style="stroke: #A80036; stroke-width: 1.0;"/><path d="M1104.6156,539.375 Q1104.7719,539.1563 1104.9594,539.0469 Q1105.1469,538.9375 1105.3656,538.9375 Q1105.7406,538.9375 1105.975,539.2031 Q1106.2094,539.4531 1106.2094,540.0625 L1106.2094,541.5156 Q1106.2094,542.125 1105.975,542.3906 Q1105.7406,542.6563 1105.3656,542.6563 Q1105.0219,542.6563 1104.8188,542.4531 Q1104.6156,542.2656 1104.5063,541.75 Q1104.4594,541.3906 1104.2719,541.2031 Q1103.9438,540.8281 1103.3344,540.6094 Q1102.725,540.3906 1102.1,540.3906 Q1101.3344,540.3906 1100.6938,540.7188 Q1100.0688,541.0469 1099.5688,541.7969 Q1099.0844,542.5469 1099.0844,543.5781 L1099.0844,544.6719 Q1099.0844,545.9063 1099.975,546.7344 Q1100.8656,547.5469 1102.4594,547.5469 Q1103.3969,547.5469 1104.0531,547.2969 Q1104.4438,547.1406 1104.8656,546.7031 Q1105.1313,546.4375 1105.2719,546.3594 Q1105.4281,546.2813 1105.6313,546.2813 Q1105.9594,546.2813 1106.2094,546.5469 Q1106.475,546.7969 1106.475,547.1406 Q1106.475,547.4844 1106.1313,547.8906 Q1105.6313,548.4688 1104.8344,548.7969 Q1103.7563,549.25 1102.4594,549.25 Q1100.9438,549.25 1099.7406,548.625 Q1098.7563,548.125 1098.0688,547.0625 Q1097.3813,545.9844 1097.3813,544.7031 L1097.3813,543.5469 Q1097.3813,542.2188 1097.9906,541.0781 Q1098.6156,539.9219 1099.7094,539.3125 Q1100.8031,538.6875 1102.0375,538.6875 Q1102.7719,538.6875 1103.4125,538.8594 Q1104.0688,539.0156 1104.6156,539.375 Z "/><text fill="#000000" font-family="sans-serif" font-size="12" lengthAdjust="spacingAndGlyphs" textLength="104" x="1116.15" y="548.4102">ChoosePlayerView</text><line style="stroke: #A80036; stroke-width: 1.5;" x1="1086.5" x2="1223.5" y1="559.5" y2="559.5"/><line style="stroke: #A80036; stroke-width: 1.5;" x1="1086.5" x2="1223.5" y1="567.5" y2="567.5"/><polygon fill="#4177AF" points="1096.5,574.5,1092.5,580.5,1100.5,580.5" style="stroke: #1963A0; stroke-width: 1.0;"/><text fill="#000000" font-family="sans-serif" font-size="11" lengthAdjust="spacingAndGlyphs" textLength="92" x="1105.5" y="582.9189">readPlayers(): void</text><rect fill="#F24D5C" height="6" style="stroke: #C82930; stroke-width: 1.0;" width="6" x="1093.5" y="589.3359"/><text fill="#000000" font-family="sans-serif" font-size="11" lengthAdjust="spacingAndGlyphs" textLength="113" x="1105.5" y="596.7549">readUsersNumber(): int</text><!--MD5=[bde0c8ed193d8d2dbac1dee471354ab0]
class tictactoe.views.console.ConsoleView--><rect fill="#FEFECE" filter="url(#f1ae3awu9cy3pw)" height="144.8516" id="tictactoe.views.console.ConsoleView" style="stroke: #A80036; stroke-width: 1.5;" width="155" x="636.5" y="166"/><ellipse cx="674" cy="182" fill="#ADD1B2" rx="11" ry="11" style="stroke: #A80036; stroke-width: 1.0;"/><path d="M676.7656,177.875 Q676.9219,177.6563 677.1094,177.5469 Q677.2969,177.4375 677.5156,177.4375 Q677.8906,177.4375 678.125,177.7031 Q678.3594,177.9531 678.3594,178.5625 L678.3594,180.0156 Q678.3594,180.625 678.125,180.8906 Q677.8906,181.1563 677.5156,181.1563 Q677.1719,181.1563 676.9688,180.9531 Q676.7656,180.7656 676.6563,180.25 Q676.6094,179.8906 676.4219,179.7031 Q676.0938,179.3281 675.4844,179.1094 Q674.875,178.8906 674.25,178.8906 Q673.4844,178.8906 672.8438,179.2188 Q672.2188,179.5469 671.7188,180.2969 Q671.2344,181.0469 671.2344,182.0781 L671.2344,183.1719 Q671.2344,184.4063 672.125,185.2344 Q673.0156,186.0469 674.6094,186.0469 Q675.5469,186.0469 676.2031,185.7969 Q676.5938,185.6406 677.0156,185.2031 Q677.2813,184.9375 677.4219,184.8594 Q677.5781,184.7813 677.7813,184.7813 Q678.1094,184.7813 678.3594,185.0469 Q678.625,185.2969 678.625,185.6406 Q678.625,185.9844 678.2813,186.3906 Q677.7813,186.9688 676.9844,187.2969 Q675.9063,187.75 674.6094,187.75 Q673.0938,187.75 671.8906,187.125 Q670.9063,186.625 670.2188,185.5625 Q669.5313,184.4844 669.5313,183.2031 L669.5313,182.0469 Q669.5313,180.7188 670.1406,179.5781 Q670.7656,178.4219 671.8594,177.8125 Q672.9531,177.1875 674.1875,177.1875 Q674.9219,177.1875 675.5625,177.3594 Q676.2188,177.5156 676.7656,177.875 Z "/><text fill="#000000" font-family="sans-serif" font-size="12" lengthAdjust="spacingAndGlyphs" textLength="73" x="693" y="186.9102">ConsoleView</text><line style="stroke: #A80036; stroke-width: 1.5;" x1="637.5" x2="790.5" y1="198" y2="198"/><rect fill="none" height="6" style="stroke: #C82930; stroke-width: 1.0;" width="6" x="644.5" y="206"/><text fill="#000000" font-family="sans-serif" font-size="11" lengthAdjust="spacingAndGlyphs" textLength="103" x="656.5" y="213.4189">startView: StartView</text><rect fill="none" height="6" style="stroke: #C82930; stroke-width: 1.0;" width="6" x="644.5" y="219.8359"/><text fill="#000000" font-family="sans-serif" font-size="11" lengthAdjust="spacingAndGlyphs" textLength="98" x="656.5" y="227.2549">playView: PlayView</text><rect fill="none" height="6" style="stroke: #C82930; stroke-width: 1.0;" width="6" x="644.5" y="233.6719"/><text fill="#000000" font-family="sans-serif" font-size="11" lengthAdjust="spacingAndGlyphs" textLength="115" x="656.5" y="241.0908">resultView: ResultView</text><line style="stroke: #A80036; stroke-width: 1.5;" x1="637.5" x2="790.5" y1="247.5078" y2="247.5078"/><ellipse cx="647.5" cy="258.5078" fill="#84BE84" rx="3" ry="3" style="stroke: #038048; stroke-width: 1.0;"/><text fill="#000000" font-family="sans-serif" font-size="11" lengthAdjust="spacingAndGlyphs" textLength="73" x="656.5" y="262.9268">ConsoleView()</text><ellipse cx="647.5" cy="272.3438" fill="#84BE84" rx="3" ry="3" style="stroke: #038048; stroke-width: 1.0;"/><text fill="#000000" font-family="sans-serif" font-size="11" lengthAdjust="spacingAndGlyphs" textLength="122" x="656.5" y="276.7627">visit(StartController): void</text><ellipse cx="647.5" cy="286.1797" fill="#84BE84" rx="3" ry="3" style="stroke: #038048; stroke-width: 1.0;"/><text fill="#000000" font-family="sans-serif" font-size="11" lengthAdjust="spacingAndGlyphs" textLength="119" x="656.5" y="290.5986">visit(PlayController): void</text><ellipse cx="647.5" cy="300.0156" fill="#84BE84" rx="3" ry="3" style="stroke: #038048; stroke-width: 1.0;"/><text fill="#000000" font-family="sans-serif" font-size="11" lengthAdjust="spacingAndGlyphs" textLength="129" x="656.5" y="304.4346">visit(ResultController): void</text><!--MD5=[54aa299435631381f3c0c028f26a058f]
class tictactoe.views.console.StartView--><rect fill="#FEFECE" filter="url(#f1ae3awu9cy3pw)" height="61.8359" id="tictactoe.views.console.StartView" style="stroke: #A80036; stroke-width: 1.5;" width="165" x="906.5" y="378"/><ellipse cx="959.25" cy="394" fill="#ADD1B2" rx="11" ry="11" style="stroke: #A80036; stroke-width: 1.0;"/><path d="M962.0156,389.875 Q962.1719,389.6563 962.3594,389.5469 Q962.5469,389.4375 962.7656,389.4375 Q963.1406,389.4375 963.375,389.7031 Q963.6094,389.9531 963.6094,390.5625 L963.6094,392.0156 Q963.6094,392.625 963.375,392.8906 Q963.1406,393.1563 962.7656,393.1563 Q962.4219,393.1563 962.2188,392.9531 Q962.0156,392.7656 961.9063,392.25 Q961.8594,391.8906 961.6719,391.7031 Q961.3438,391.3281 960.7344,391.1094 Q960.125,390.8906 959.5,390.8906 Q958.7344,390.8906 958.0938,391.2188 Q957.4688,391.5469 956.9688,392.2969 Q956.4844,393.0469 956.4844,394.0781 L956.4844,395.1719 Q956.4844,396.4063 957.375,397.2344 Q958.2656,398.0469 959.8594,398.0469 Q960.7969,398.0469 961.4531,397.7969 Q961.8438,397.6406 962.2656,397.2031 Q962.5313,396.9375 962.6719,396.8594 Q962.8281,396.7813 963.0313,396.7813 Q963.3594,396.7813 963.6094,397.0469 Q963.875,397.2969 963.875,397.6406 Q963.875,397.9844 963.5313,398.3906 Q963.0313,398.9688 962.2344,399.2969 Q961.1563,399.75 959.8594,399.75 Q958.3438,399.75 957.1406,399.125 Q956.1563,398.625 955.4688,397.5625 Q954.7813,396.4844 954.7813,395.2031 L954.7813,394.0469 Q954.7813,392.7188 955.3906,391.5781 Q956.0156,390.4219 957.1094,389.8125 Q958.2031,389.1875 959.4375,389.1875 Q960.1719,389.1875 960.8125,389.3594 Q961.4688,389.5156 962.0156,389.875 Z "/><text fill="#000000" font-family="sans-serif" font-size="12" lengthAdjust="spacingAndGlyphs" textLength="51" x="979.75" y="398.9102">StartView</text><line style="stroke: #A80036; stroke-width: 1.5;" x1="907.5" x2="1070.5" y1="410" y2="410"/><line style="stroke: #A80036; stroke-width: 1.5;" x1="907.5" x2="1070.5" y1="418" y2="418"/><polygon fill="#4177AF" points="917.5,425,913.5,431,921.5,431" style="stroke: #1963A0; stroke-width: 1.0;"/><text fill="#000000" font-family="sans-serif" font-size="11" lengthAdjust="spacingAndGlyphs" textLength="139" x="926.5" y="433.4189">interact(StartController): void</text><!--MD5=[0158df0baddf48f83142f472e341eacc]
class tictactoe.views.console.PlayView--><rect fill="#FEFECE" filter="url(#f1ae3awu9cy3pw)" height="61.8359" id="tictactoe.views.console.PlayView" style="stroke: #A80036; stroke-width: 1.5;" width="162" x="502" y="378"/><ellipse cx="554.25" cy="394" fill="#ADD1B2" rx="11" ry="11" style="stroke: #A80036; stroke-width: 1.0;"/><path d="M557.0156,389.875 Q557.1719,389.6563 557.3594,389.5469 Q557.5469,389.4375 557.7656,389.4375 Q558.1406,389.4375 558.375,389.7031 Q558.6094,389.9531 558.6094,390.5625 L558.6094,392.0156 Q558.6094,392.625 558.375,392.8906 Q558.1406,393.1563 557.7656,393.1563 Q557.4219,393.1563 557.2188,392.9531 Q557.0156,392.7656 556.9063,392.25 Q556.8594,391.8906 556.6719,391.7031 Q556.3438,391.3281 555.7344,391.1094 Q555.125,390.8906 554.5,390.8906 Q553.7344,390.8906 553.0938,391.2188 Q552.4688,391.5469 551.9688,392.2969 Q551.4844,393.0469 551.4844,394.0781 L551.4844,395.1719 Q551.4844,396.4063 552.375,397.2344 Q553.2656,398.0469 554.8594,398.0469 Q555.7969,398.0469 556.4531,397.7969 Q556.8438,397.6406 557.2656,397.2031 Q557.5313,396.9375 557.6719,396.8594 Q557.8281,396.7813 558.0313,396.7813 Q558.3594,396.7813 558.6094,397.0469 Q558.875,397.2969 558.875,397.6406 Q558.875,397.9844 558.5313,398.3906 Q558.0313,398.9688 557.2344,399.2969 Q556.1563,399.75 554.8594,399.75 Q553.3438,399.75 552.1406,399.125 Q551.1563,398.625 550.4688,397.5625 Q549.7813,396.4844 549.7813,395.2031 L549.7813,394.0469 Q549.7813,392.7188 550.3906,391.5781 Q551.0156,390.4219 552.1094,389.8125 Q553.2031,389.1875 554.4375,389.1875 Q555.1719,389.1875 555.8125,389.3594 Q556.4688,389.5156 557.0156,389.875 Z "/><text fill="#000000" font-family="sans-serif" font-size="12" lengthAdjust="spacingAndGlyphs" textLength="49" x="574.75" y="398.9102">PlayView</text><line style="stroke: #A80036; stroke-width: 1.5;" x1="503" x2="663" y1="410" y2="410"/><line style="stroke: #A80036; stroke-width: 1.5;" x1="503" x2="663" y1="418" y2="418"/><polygon fill="#4177AF" points="513,425,509,431,517,431" style="stroke: #1963A0; stroke-width: 1.0;"/><text fill="#000000" font-family="sans-serif" font-size="11" lengthAdjust="spacingAndGlyphs" textLength="136" x="522" y="433.4189">interact(PlayController): void</text><!--MD5=[4ad8229f56e3458317cb6855b3145039]
class tictactoe.views.console.ResultView--><rect fill="#FEFECE" filter="url(#f1ae3awu9cy3pw)" height="61.8359" id="tictactoe.views.console.ResultView" style="stroke: #A80036; stroke-width: 1.5;" width="172" x="699" y="378"/><ellipse cx="749.75" cy="394" fill="#ADD1B2" rx="11" ry="11" style="stroke: #A80036; stroke-width: 1.0;"/><path d="M752.5156,389.875 Q752.6719,389.6563 752.8594,389.5469 Q753.0469,389.4375 753.2656,389.4375 Q753.6406,389.4375 753.875,389.7031 Q754.1094,389.9531 754.1094,390.5625 L754.1094,392.0156 Q754.1094,392.625 753.875,392.8906 Q753.6406,393.1563 753.2656,393.1563 Q752.9219,393.1563 752.7188,392.9531 Q752.5156,392.7656 752.4063,392.25 Q752.3594,391.8906 752.1719,391.7031 Q751.8438,391.3281 751.2344,391.1094 Q750.625,390.8906 750,390.8906 Q749.2344,390.8906 748.5938,391.2188 Q747.9688,391.5469 747.4688,392.2969 Q746.9844,393.0469 746.9844,394.0781 L746.9844,395.1719 Q746.9844,396.4063 747.875,397.2344 Q748.7656,398.0469 750.3594,398.0469 Q751.2969,398.0469 751.9531,397.7969 Q752.3438,397.6406 752.7656,397.2031 Q753.0313,396.9375 753.1719,396.8594 Q753.3281,396.7813 753.5313,396.7813 Q753.8594,396.7813 754.1094,397.0469 Q754.375,397.2969 754.375,397.6406 Q754.375,397.9844 754.0313,398.3906 Q753.5313,398.9688 752.7344,399.2969 Q751.6563,399.75 750.3594,399.75 Q748.8438,399.75 747.6406,399.125 Q746.6563,398.625 745.9688,397.5625 Q745.2813,396.4844 745.2813,395.2031 L745.2813,394.0469 Q745.2813,392.7188 745.8906,391.5781 Q746.5156,390.4219 747.6094,389.8125 Q748.7031,389.1875 749.9375,389.1875 Q750.6719,389.1875 751.3125,389.3594 Q751.9688,389.5156 752.5156,389.875 Z "/><text fill="#000000" font-family="sans-serif" font-size="12" lengthAdjust="spacingAndGlyphs" textLength="62" x="770.25" y="398.9102">ResultView</text><line style="stroke: #A80036; stroke-width: 1.5;" x1="700" x2="870" y1="410" y2="410"/><line style="stroke: #A80036; stroke-width: 1.5;" x1="700" x2="870" y1="418" y2="418"/><polygon fill="#4177AF" points="710,425,706,431,714,431" style="stroke: #1963A0; stroke-width: 1.0;"/><text fill="#000000" font-family="sans-serif" font-size="11" lengthAdjust="spacingAndGlyphs" textLength="146" x="719" y="433.4189">interact(ResultController): void</text><!--MD5=[8830b246a550294711e6eb5af1606829]
class tictactoe.views.console.CoordinateView--><rect fill="#FEFECE" filter="url(#f1ae3awu9cy3pw)" height="61.8359" id="tictactoe.views.console.CoordinateView" style="stroke: #A80036; stroke-width: 1.5;" width="142" x="1250" y="378"/><ellipse cx="1275.35" cy="394" fill="#ADD1B2" rx="11" ry="11" style="stroke: #A80036; stroke-width: 1.0;"/><path d="M1278.1156,389.875 Q1278.2719,389.6563 1278.4594,389.5469 Q1278.6469,389.4375 1278.8656,389.4375 Q1279.2406,389.4375 1279.475,389.7031 Q1279.7094,389.9531 1279.7094,390.5625 L1279.7094,392.0156 Q1279.7094,392.625 1279.475,392.8906 Q1279.2406,393.1563 1278.8656,393.1563 Q1278.5219,393.1563 1278.3188,392.9531 Q1278.1156,392.7656 1278.0063,392.25 Q1277.9594,391.8906 1277.7719,391.7031 Q1277.4438,391.3281 1276.8344,391.1094 Q1276.225,390.8906 1275.6,390.8906 Q1274.8344,390.8906 1274.1938,391.2188 Q1273.5688,391.5469 1273.0688,392.2969 Q1272.5844,393.0469 1272.5844,394.0781 L1272.5844,395.1719 Q1272.5844,396.4063 1273.475,397.2344 Q1274.3656,398.0469 1275.9594,398.0469 Q1276.8969,398.0469 1277.5531,397.7969 Q1277.9438,397.6406 1278.3656,397.2031 Q1278.6313,396.9375 1278.7719,396.8594 Q1278.9281,396.7813 1279.1313,396.7813 Q1279.4594,396.7813 1279.7094,397.0469 Q1279.975,397.2969 1279.975,397.6406 Q1279.975,397.9844 1279.6313,398.3906 Q1279.1313,398.9688 1278.3344,399.2969 Q1277.2563,399.75 1275.9594,399.75 Q1274.4438,399.75 1273.2406,399.125 Q1272.2563,398.625 1271.5688,397.5625 Q1270.8813,396.4844 1270.8813,395.2031 L1270.8813,394.0469 Q1270.8813,392.7188 1271.4906,391.5781 Q1272.1156,390.4219 1273.2094,389.8125 Q1274.3031,389.1875 1275.5375,389.1875 Q1276.2719,389.1875 1276.9125,389.3594 Q1277.5688,389.5156 1278.1156,389.875 Z "/><text fill="#000000" font-family="sans-serif" font-size="12" lengthAdjust="spacingAndGlyphs" textLength="87" x="1291.65" y="398.9102">CoordinateView</text><line style="stroke: #A80036; stroke-width: 1.5;" x1="1251" x2="1391" y1="410" y2="410"/><line style="stroke: #A80036; stroke-width: 1.5;" x1="1251" x2="1391" y1="418" y2="418"/><polygon fill="#4177AF" points="1261,425,1257,431,1265,431" style="stroke: #1963A0; stroke-width: 1.0;"/><text fill="#000000" font-family="sans-serif" font-size="11" lengthAdjust="spacingAndGlyphs" textLength="116" x="1270" y="433.4189">read(String): Coordinate</text><!--MD5=[1ca4e66fd27a79cb5d7093d90b3139a4]
class tictactoe.views.console.ErrorView--><rect fill="#FEFECE" filter="url(#f1ae3awu9cy3pw)" height="75.6719" id="tictactoe.views.console.ErrorView" style="stroke: #A80036; stroke-width: 1.5;" width="108" x="1107" y="371"/><ellipse cx="1132.35" cy="387" fill="#ADD1B2" rx="11" ry="11" style="stroke: #A80036; stroke-width: 1.0;"/><path d="M1135.1156,382.875 Q1135.2719,382.6563 1135.4594,382.5469 Q1135.6469,382.4375 1135.8656,382.4375 Q1136.2406,382.4375 1136.475,382.7031 Q1136.7094,382.9531 1136.7094,383.5625 L1136.7094,385.0156 Q1136.7094,385.625 1136.475,385.8906 Q1136.2406,386.1563 1135.8656,386.1563 Q1135.5219,386.1563 1135.3188,385.9531 Q1135.1156,385.7656 1135.0063,385.25 Q1134.9594,384.8906 1134.7719,384.7031 Q1134.4438,384.3281 1133.8344,384.1094 Q1133.225,383.8906 1132.6,383.8906 Q1131.8344,383.8906 1131.1938,384.2188 Q1130.5688,384.5469 1130.0688,385.2969 Q1129.5844,386.0469 1129.5844,387.0781 L1129.5844,388.1719 Q1129.5844,389.4063 1130.475,390.2344 Q1131.3656,391.0469 1132.9594,391.0469 Q1133.8969,391.0469 1134.5531,390.7969 Q1134.9438,390.6406 1135.3656,390.2031 Q1135.6313,389.9375 1135.7719,389.8594 Q1135.9281,389.7813 1136.1313,389.7813 Q1136.4594,389.7813 1136.7094,390.0469 Q1136.975,390.2969 1136.975,390.6406 Q1136.975,390.9844 1136.6313,391.3906 Q1136.1313,391.9688 1135.3344,392.2969 Q1134.2563,392.75 1132.9594,392.75 Q1131.4438,392.75 1130.2406,392.125 Q1129.2563,391.625 1128.5688,390.5625 Q1127.8813,389.4844 1127.8813,388.2031 L1127.8813,387.0469 Q1127.8813,385.7188 1128.4906,384.5781 Q1129.1156,383.4219 1130.2094,382.8125 Q1131.3031,382.1875 1132.5375,382.1875 Q1133.2719,382.1875 1133.9125,382.3594 Q1134.5688,382.5156 1135.1156,382.875 Z "/><text fill="#000000" font-family="sans-serif" font-size="12" lengthAdjust="spacingAndGlyphs" textLength="53" x="1148.65" y="391.9102">ErrorView</text><line style="stroke: #A80036; stroke-width: 1.5;" x1="1108" x2="1214" y1="403" y2="403"/><line style="stroke: #A80036; stroke-width: 1.5;" x1="1108" x2="1214" y1="411" y2="411"/><polygon fill="#4177AF" points="1118,418,1114,424,1122,424" style="stroke: #1963A0; stroke-width: 1.0;"/><text fill="#000000" font-family="sans-serif" font-size="11" lengthAdjust="spacingAndGlyphs" textLength="82" x="1127" y="426.4189">ErrorView(Error)</text><polygon fill="#4177AF" points="1118,431.8359,1114,437.8359,1122,437.8359" style="stroke: #1963A0; stroke-width: 1.0;"/><text fill="#000000" font-family="sans-serif" font-size="11" lengthAdjust="spacingAndGlyphs" textLength="67" x="1127" y="440.2549">writeln(): void</text><!--MD5=[4afe6aabb27d783e4a9a9dcc50c35fae]
class tictactoe.views.console.MachinePlayerView--><rect fill="#FEFECE" filter="url(#f1ae3awu9cy3pw)" height="89.5078" id="tictactoe.views.console.MachinePlayerView" style="stroke: #A80036; stroke-width: 1.5;" width="216" x="827" y="193.5"/><ellipse cx="877.75" cy="209.5" fill="#ADD1B2" rx="11" ry="11" style="stroke: #A80036; stroke-width: 1.0;"/><path d="M880.5156,205.375 Q880.6719,205.1563 880.8594,205.0469 Q881.0469,204.9375 881.2656,204.9375 Q881.6406,204.9375 881.875,205.2031 Q882.1094,205.4531 882.1094,206.0625 L882.1094,207.5156 Q882.1094,208.125 881.875,208.3906 Q881.6406,208.6563 881.2656,208.6563 Q880.9219,208.6563 880.7188,208.4531 Q880.5156,208.2656 880.4063,207.75 Q880.3594,207.3906 880.1719,207.2031 Q879.8438,206.8281 879.2344,206.6094 Q878.625,206.3906 878,206.3906 Q877.2344,206.3906 876.5938,206.7188 Q875.9688,207.0469 875.4688,207.7969 Q874.9844,208.5469 874.9844,209.5781 L874.9844,210.6719 Q874.9844,211.9063 875.875,212.7344 Q876.7656,213.5469 878.3594,213.5469 Q879.2969,213.5469 879.9531,213.2969 Q880.3438,213.1406 880.7656,212.7031 Q881.0313,212.4375 881.1719,212.3594 Q881.3281,212.2813 881.5313,212.2813 Q881.8594,212.2813 882.1094,212.5469 Q882.375,212.7969 882.375,213.1406 Q882.375,213.4844 882.0313,213.8906 Q881.5313,214.4688 880.7344,214.7969 Q879.6563,215.25 878.3594,215.25 Q876.8438,215.25 875.6406,214.625 Q874.6563,214.125 873.9688,213.0625 Q873.2813,211.9844 873.2813,210.7031 L873.2813,209.5469 Q873.2813,208.2188 873.8906,207.0781 Q874.5156,205.9219 875.6094,205.3125 Q876.7031,204.6875 877.9375,204.6875 Q878.6719,204.6875 879.3125,204.8594 Q879.9688,205.0156 880.5156,205.375 Z "/><text fill="#000000" font-family="sans-serif" font-size="12" lengthAdjust="spacingAndGlyphs" textLength="106" x="898.25" y="214.4102">MachinePlayerView</text><line style="stroke: #A80036; stroke-width: 1.5;" x1="828" x2="1042" y1="225.5" y2="225.5"/><line style="stroke: #A80036; stroke-width: 1.5;" x1="828" x2="1042" y1="233.5" y2="233.5"/><polygon fill="#4177AF" points="838,240.5,834,246.5,842,246.5" style="stroke: #1963A0; stroke-width: 1.0;"/><text fill="#000000" font-family="sans-serif" font-size="11" lengthAdjust="spacingAndGlyphs" textLength="134" x="847" y="248.9189">MachinePlayerView(Player)</text><polygon fill="#4177AF" points="838,254.3359,834,260.3359,842,260.3359" style="stroke: #1963A0; stroke-width: 1.0;"/><text fill="#000000" font-family="sans-serif" font-size="11" lengthAdjust="spacingAndGlyphs" textLength="167" x="847" y="262.7549">readCoordinateToPut(): Coordinate</text><polygon fill="#4177AF" points="838,268.1719,834,274.1719,842,274.1719" style="stroke: #1963A0; stroke-width: 1.0;"/><text fill="#000000" font-family="sans-serif" font-size="11" lengthAdjust="spacingAndGlyphs" textLength="190" x="847" y="276.5908">readCoordinatesToMove(): Coordinate[]</text><!--MD5=[d4f4ae14a368e3fcfff527b6459d05f0]
class tictactoe.views.console.UserPlayerView--><rect fill="#FEFECE" filter="url(#f1ae3awu9cy3pw)" height="117.1797" id="tictactoe.views.console.UserPlayerView" style="stroke: #A80036; stroke-width: 1.5;" width="233" x="1078.5" y="180"/><ellipse cx="1147.25" cy="196" fill="#ADD1B2" rx="11" ry="11" style="stroke: #A80036; stroke-width: 1.0;"/><path d="M1150.0156,191.875 Q1150.1719,191.6563 1150.3594,191.5469 Q1150.5469,191.4375 1150.7656,191.4375 Q1151.1406,191.4375 1151.375,191.7031 Q1151.6094,191.9531 1151.6094,192.5625 L1151.6094,194.0156 Q1151.6094,194.625 1151.375,194.8906 Q1151.1406,195.1563 1150.7656,195.1563 Q1150.4219,195.1563 1150.2188,194.9531 Q1150.0156,194.7656 1149.9063,194.25 Q1149.8594,193.8906 1149.6719,193.7031 Q1149.3438,193.3281 1148.7344,193.1094 Q1148.125,192.8906 1147.5,192.8906 Q1146.7344,192.8906 1146.0938,193.2188 Q1145.4688,193.5469 1144.9688,194.2969 Q1144.4844,195.0469 1144.4844,196.0781 L1144.4844,197.1719 Q1144.4844,198.4063 1145.375,199.2344 Q1146.2656,200.0469 1147.8594,200.0469 Q1148.7969,200.0469 1149.4531,199.7969 Q1149.8438,199.6406 1150.2656,199.2031 Q1150.5313,198.9375 1150.6719,198.8594 Q1150.8281,198.7813 1151.0313,198.7813 Q1151.3594,198.7813 1151.6094,199.0469 Q1151.875,199.2969 1151.875,199.6406 Q1151.875,199.9844 1151.5313,200.3906 Q1151.0313,200.9688 1150.2344,201.2969 Q1149.1563,201.75 1147.8594,201.75 Q1146.3438,201.75 1145.1406,201.125 Q1144.1563,200.625 1143.4688,199.5625 Q1142.7813,198.4844 1142.7813,197.2031 L1142.7813,196.0469 Q1142.7813,194.7188 1143.3906,193.5781 Q1144.0156,192.4219 1145.1094,191.8125 Q1146.2031,191.1875 1147.4375,191.1875 Q1148.1719,191.1875 1148.8125,191.3594 Q1149.4688,191.5156 1150.0156,191.875 Z "/><text fill="#000000" font-family="sans-serif" font-size="12" lengthAdjust="spacingAndGlyphs" textLength="87" x="1167.75" y="200.9102">UserPlayerView</text><line style="stroke: #A80036; stroke-width: 1.5;" x1="1079.5" x2="1310.5" y1="212" y2="212"/><polygon fill="none" points="1089.5,219,1085.5,225,1093.5,225" style="stroke: #1963A0; stroke-width: 1.0;"/><text fill="#000000" font-family="sans-serif" font-size="11" lengthAdjust="spacingAndGlyphs" text-decoration="underline" textLength="183" x="1098.5" y="227.4189">ENTER_COORDINATE_TO_PUT: String</text><polygon fill="none" points="1089.5,232.8359,1085.5,238.8359,1093.5,238.8359" style="stroke: #1963A0; stroke-width: 1.0;"/><text fill="#000000" font-family="sans-serif" font-size="11" lengthAdjust="spacingAndGlyphs" text-decoration="underline" textLength="207" x="1098.5" y="241.2549">ENTER_COORDINATE_TO_REMOVE: String</text><line style="stroke: #A80036; stroke-width: 1.5;" x1="1079.5" x2="1310.5" y1="247.6719" y2="247.6719"/><polygon fill="#4177AF" points="1089.5,254.6719,1085.5,260.6719,1093.5,260.6719" style="stroke: #1963A0; stroke-width: 1.0;"/><text fill="#000000" font-family="sans-serif" font-size="11" lengthAdjust="spacingAndGlyphs" textLength="117" x="1098.5" y="263.0908">UserPlayerView(Player)</text><polygon fill="#4177AF" points="1089.5,268.5078,1085.5,274.5078,1093.5,274.5078" style="stroke: #1963A0; stroke-width: 1.0;"/><text fill="#000000" font-family="sans-serif" font-size="11" lengthAdjust="spacingAndGlyphs" textLength="167" x="1098.5" y="276.9268">readCoordinateToPut(): Coordinate</text><polygon fill="#4177AF" points="1089.5,282.3438,1085.5,288.3438,1093.5,288.3438" style="stroke: #1963A0; stroke-width: 1.0;"/><text fill="#000000" font-family="sans-serif" font-size="11" lengthAdjust="spacingAndGlyphs" textLength="190" x="1098.5" y="290.7627">readCoordinatesToMove(): Coordinate[]</text><!--MD5=[2dcb8e10b6e8b78f41f52f48677e1ea3]
class utils.WithConsoleView--><rect fill="#FEFECE" filter="url(#f1ae3awu9cy3pw)" height="48" id="utils.WithConsoleView" style="stroke: #A80036; stroke-width: 1.5;" width="129" x="1448.5" y="214.5"/><ellipse cx="1463.5" cy="230.5" fill="#ADD1B2" rx="11" ry="11" style="stroke: #A80036; stroke-width: 1.0;"/><path d="M1466.2656,226.375 Q1466.4219,226.1563 1466.6094,226.0469 Q1466.7969,225.9375 1467.0156,225.9375 Q1467.3906,225.9375 1467.625,226.2031 Q1467.8594,226.4531 1467.8594,227.0625 L1467.8594,228.5156 Q1467.8594,229.125 1467.625,229.3906 Q1467.3906,229.6563 1467.0156,229.6563 Q1466.6719,229.6563 1466.4688,229.4531 Q1466.2656,229.2656 1466.1563,228.75 Q1466.1094,228.3906 1465.9219,228.2031 Q1465.5938,227.8281 1464.9844,227.6094 Q1464.375,227.3906 1463.75,227.3906 Q1462.9844,227.3906 1462.3438,227.7188 Q1461.7188,228.0469 1461.2188,228.7969 Q1460.7344,229.5469 1460.7344,230.5781 L1460.7344,231.6719 Q1460.7344,232.9063 1461.625,233.7344 Q1462.5156,234.5469 1464.1094,234.5469 Q1465.0469,234.5469 1465.7031,234.2969 Q1466.0938,234.1406 1466.5156,233.7031 Q1466.7813,233.4375 1466.9219,233.3594 Q1467.0781,233.2813 1467.2813,233.2813 Q1467.6094,233.2813 1467.8594,233.5469 Q1468.125,233.7969 1468.125,234.1406 Q1468.125,234.4844 1467.7813,234.8906 Q1467.2813,235.4688 1466.4844,235.7969 Q1465.4063,236.25 1464.1094,236.25 Q1462.5938,236.25 1461.3906,235.625 Q1460.4063,235.125 1459.7188,234.0625 Q1459.0313,232.9844 1459.0313,231.7031 L1459.0313,230.5469 Q1459.0313,229.2188 1459.6406,228.0781 Q1460.2656,226.9219 1461.3594,226.3125 Q1462.4531,225.6875 1463.6875,225.6875 Q1464.4219,225.6875 1465.0625,225.8594 Q1465.7188,226.0156 1466.2656,226.375 Z "/><text fill="#000000" font-family="sans-serif" font-size="12" lengthAdjust="spacingAndGlyphs" textLength="97" x="1477.5" y="235.4102">WithConsoleView</text><line style="stroke: #A80036; stroke-width: 1.5;" x1="1449.5" x2="1576.5" y1="246.5" y2="246.5"/><line style="stroke: #A80036; stroke-width: 1.5;" x1="1449.5" x2="1576.5" y1="254.5" y2="254.5"/><!--MD5=[015754420c4cdd9bacda884b3fa8c6ca]
class tictactoe.views.View--><rect fill="#FEFECE" filter="url(#f1ae3awu9cy3pw)" height="48" id="tictactoe.views.View" style="stroke: #A80036; stroke-width: 1.5;" width="58" x="796" y="42"/><ellipse cx="811" cy="58" fill="#ADD1B2" rx="11" ry="11" style="stroke: #A80036; stroke-width: 1.0;"/><path d="M813.7656,53.875 Q813.9219,53.6563 814.1094,53.5469 Q814.2969,53.4375 814.5156,53.4375 Q814.8906,53.4375 815.125,53.7031 Q815.3594,53.9531 815.3594,54.5625 L815.3594,56.0156 Q815.3594,56.625 815.125,56.8906 Q814.8906,57.1563 814.5156,57.1563 Q814.1719,57.1563 813.9688,56.9531 Q813.7656,56.7656 813.6563,56.25 Q813.6094,55.8906 813.4219,55.7031 Q813.0938,55.3281 812.4844,55.1094 Q811.875,54.8906 811.25,54.8906 Q810.4844,54.8906 809.8438,55.2188 Q809.2188,55.5469 808.7188,56.2969 Q808.2344,57.0469 808.2344,58.0781 L808.2344,59.1719 Q808.2344,60.4063 809.125,61.2344 Q810.0156,62.0469 811.6094,62.0469 Q812.5469,62.0469 813.2031,61.7969 Q813.5938,61.6406 814.0156,61.2031 Q814.2813,60.9375 814.4219,60.8594 Q814.5781,60.7813 814.7813,60.7813 Q815.1094,60.7813 815.3594,61.0469 Q815.625,61.2969 815.625,61.6406 Q815.625,61.9844 815.2813,62.3906 Q814.7813,62.9688 813.9844,63.2969 Q812.9063,63.75 811.6094,63.75 Q810.0938,63.75 808.8906,63.125 Q807.9063,62.625 807.2188,61.5625 Q806.5313,60.4844 806.5313,59.2031 L806.5313,58.0469 Q806.5313,56.7188 807.1406,55.5781 Q807.7656,54.4219 808.8594,53.8125 Q809.9531,53.1875 811.1875,53.1875 Q811.9219,53.1875 812.5625,53.3594 Q813.2188,53.5156 813.7656,53.875 Z "/><text fill="#000000" font-family="sans-serif" font-size="12" lengthAdjust="spacingAndGlyphs" textLength="26" x="825" y="62.9102">View</text><line style="stroke: #A80036; stroke-width: 1.5;" x1="797" x2="853" y1="74" y2="74"/><line style="stroke: #A80036; stroke-width: 1.5;" x1="797" x2="853" y1="82" y2="82"/><!--MD5=[17799e03bfee0ccb3aa03b93da9c26d6]
class tictactoe.views.ErrorView--><rect fill="#FEFECE" filter="url(#f1ae3awu9cy3pw)" height="48" id="tictactoe.views.ErrorView" style="stroke: #A80036; stroke-width: 1.5;" width="85" x="1016.5" y="42"/><ellipse cx="1031.5" cy="58" fill="#ADD1B2" rx="11" ry="11" style="stroke: #A80036; stroke-width: 1.0;"/><path d="M1034.2656,53.875 Q1034.4219,53.6563 1034.6094,53.5469 Q1034.7969,53.4375 1035.0156,53.4375 Q1035.3906,53.4375 1035.625,53.7031 Q1035.8594,53.9531 1035.8594,54.5625 L1035.8594,56.0156 Q1035.8594,56.625 1035.625,56.8906 Q1035.3906,57.1563 1035.0156,57.1563 Q1034.6719,57.1563 1034.4688,56.9531 Q1034.2656,56.7656 1034.1563,56.25 Q1034.1094,55.8906 1033.9219,55.7031 Q1033.5938,55.3281 1032.9844,55.1094 Q1032.375,54.8906 1031.75,54.8906 Q1030.9844,54.8906 1030.3438,55.2188 Q1029.7188,55.5469 1029.2188,56.2969 Q1028.7344,57.0469 1028.7344,58.0781 L1028.7344,59.1719 Q1028.7344,60.4063 1029.625,61.2344 Q1030.5156,62.0469 1032.1094,62.0469 Q1033.0469,62.0469 1033.7031,61.7969 Q1034.0938,61.6406 1034.5156,61.2031 Q1034.7813,60.9375 1034.9219,60.8594 Q1035.0781,60.7813 1035.2813,60.7813 Q1035.6094,60.7813 1035.8594,61.0469 Q1036.125,61.2969 1036.125,61.6406 Q1036.125,61.9844 1035.7813,62.3906 Q1035.2813,62.9688 1034.4844,63.2969 Q1033.4063,63.75 1032.1094,63.75 Q1030.5938,63.75 1029.3906,63.125 Q1028.4063,62.625 1027.7188,61.5625 Q1027.0313,60.4844 1027.0313,59.2031 L1027.0313,58.0469 Q1027.0313,56.7188 1027.6406,55.5781 Q1028.2656,54.4219 1029.3594,53.8125 Q1030.4531,53.1875 1031.6875,53.1875 Q1032.4219,53.1875 1033.0625,53.3594 Q1033.7188,53.5156 1034.2656,53.875 Z "/><text fill="#000000" font-family="sans-serif" font-size="12" lengthAdjust="spacingAndGlyphs" textLength="53" x="1045.5" y="62.9102">ErrorView</text><line style="stroke: #A80036; stroke-width: 1.5;" x1="1017.5" x2="1100.5" y1="74" y2="74"/><line style="stroke: #A80036; stroke-width: 1.5;" x1="1017.5" x2="1100.5" y1="82" y2="82"/><!--MD5=[2ae15d20e7f22fd333327d3852982126]
class tictactoe.views.PlayerView--><rect fill="#FEFECE" filter="url(#f1ae3awu9cy3pw)" height="48" id="tictactoe.views.PlayerView" style="stroke: #A80036; stroke-width: 1.5;" width="92" x="889" y="42"/><ellipse cx="904" cy="58" fill="#ADD1B2" rx="11" ry="11" style="stroke: #A80036; stroke-width: 1.0;"/><path d="M906.7656,53.875 Q906.9219,53.6563 907.1094,53.5469 Q907.2969,53.4375 907.5156,53.4375 Q907.8906,53.4375 908.125,53.7031 Q908.3594,53.9531 908.3594,54.5625 L908.3594,56.0156 Q908.3594,56.625 908.125,56.8906 Q907.8906,57.1563 907.5156,57.1563 Q907.1719,57.1563 906.9688,56.9531 Q906.7656,56.7656 906.6563,56.25 Q906.6094,55.8906 906.4219,55.7031 Q906.0938,55.3281 905.4844,55.1094 Q904.875,54.8906 904.25,54.8906 Q903.4844,54.8906 902.8438,55.2188 Q902.2188,55.5469 901.7188,56.2969 Q901.2344,57.0469 901.2344,58.0781 L901.2344,59.1719 Q901.2344,60.4063 902.125,61.2344 Q903.0156,62.0469 904.6094,62.0469 Q905.5469,62.0469 906.2031,61.7969 Q906.5938,61.6406 907.0156,61.2031 Q907.2813,60.9375 907.4219,60.8594 Q907.5781,60.7813 907.7813,60.7813 Q908.1094,60.7813 908.3594,61.0469 Q908.625,61.2969 908.625,61.6406 Q908.625,61.9844 908.2813,62.3906 Q907.7813,62.9688 906.9844,63.2969 Q905.9063,63.75 904.6094,63.75 Q903.0938,63.75 901.8906,63.125 Q900.9063,62.625 900.2188,61.5625 Q899.5313,60.4844 899.5313,59.2031 L899.5313,58.0469 Q899.5313,56.7188 900.1406,55.5781 Q900.7656,54.4219 901.8594,53.8125 Q902.9531,53.1875 904.1875,53.1875 Q904.9219,53.1875 905.5625,53.3594 Q906.2188,53.5156 906.7656,53.875 Z "/><text fill="#000000" font-family="sans-serif" font-size="12" lengthAdjust="spacingAndGlyphs" textLength="60" x="918" y="62.9102">PlayerView</text><line style="stroke: #A80036; stroke-width: 1.5;" x1="890" x2="980" y1="74" y2="74"/><line style="stroke: #A80036; stroke-width: 1.5;" x1="890" x2="980" y1="82" y2="82"/><!--MD5=[b574e60c06c50037ff1b014277a67d62]
class tictactoe.controllers.PlayController--><rect fill="#FEFECE" filter="url(#f1ae3awu9cy3pw)" height="48" id="tictactoe.controllers.PlayController" style="stroke: #A80036; stroke-width: 1.5;" width="109" x="32.5" y="541.5"/><ellipse cx="47.5" cy="557.5" fill="#ADD1B2" rx="11" ry="11" style="stroke: #A80036; stroke-width: 1.0;"/><path d="M50.2656,553.375 Q50.4219,553.1563 50.6094,553.0469 Q50.7969,552.9375 51.0156,552.9375 Q51.3906,552.9375 51.625,553.2031 Q51.8594,553.4531 51.8594,554.0625 L51.8594,555.5156 Q51.8594,556.125 51.625,556.3906 Q51.3906,556.6563 51.0156,556.6563 Q50.6719,556.6563 50.4688,556.4531 Q50.2656,556.2656 50.1563,555.75 Q50.1094,555.3906 49.9219,555.2031 Q49.5938,554.8281 48.9844,554.6094 Q48.375,554.3906 47.75,554.3906 Q46.9844,554.3906 46.3438,554.7188 Q45.7188,555.0469 45.2188,555.7969 Q44.7344,556.5469 44.7344,557.5781 L44.7344,558.6719 Q44.7344,559.9063 45.625,560.7344 Q46.5156,561.5469 48.1094,561.5469 Q49.0469,561.5469 49.7031,561.2969 Q50.0938,561.1406 50.5156,560.7031 Q50.7813,560.4375 50.9219,560.3594 Q51.0781,560.2813 51.2813,560.2813 Q51.6094,560.2813 51.8594,560.5469 Q52.125,560.7969 52.125,561.1406 Q52.125,561.4844 51.7813,561.8906 Q51.2813,562.4688 50.4844,562.7969 Q49.4063,563.25 48.1094,563.25 Q46.5938,563.25 45.3906,562.625 Q44.4063,562.125 43.7188,561.0625 Q43.0313,559.9844 43.0313,558.7031 L43.0313,557.5469 Q43.0313,556.2188 43.6406,555.0781 Q44.2656,553.9219 45.3594,553.3125 Q46.4531,552.6875 47.6875,552.6875 Q48.4219,552.6875 49.0625,552.8594 Q49.7188,553.0156 50.2656,553.375 Z "/><text fill="#000000" font-family="sans-serif" font-size="12" lengthAdjust="spacingAndGlyphs" textLength="77" x="61.5" y="562.4102">PlayController</text><line style="stroke: #A80036; stroke-width: 1.5;" x1="33.5" x2="140.5" y1="573.5" y2="573.5"/><line style="stroke: #A80036; stroke-width: 1.5;" x1="33.5" x2="140.5" y1="581.5" y2="581.5"/><!--MD5=[2c3ef77d19c2424f55dfd6db4f13e20e]
class tictactoe.controllers.ResultController--><rect fill="#FEFECE" filter="url(#f1ae3awu9cy3pw)" height="48" id="tictactoe.controllers.ResultController" style="stroke: #A80036; stroke-width: 1.5;" width="122" x="177" y="541.5"/><ellipse cx="192" cy="557.5" fill="#ADD1B2" rx="11" ry="11" style="stroke: #A80036; stroke-width: 1.0;"/><path d="M194.7656,553.375 Q194.9219,553.1563 195.1094,553.0469 Q195.2969,552.9375 195.5156,552.9375 Q195.8906,552.9375 196.125,553.2031 Q196.3594,553.4531 196.3594,554.0625 L196.3594,555.5156 Q196.3594,556.125 196.125,556.3906 Q195.8906,556.6563 195.5156,556.6563 Q195.1719,556.6563 194.9688,556.4531 Q194.7656,556.2656 194.6563,555.75 Q194.6094,555.3906 194.4219,555.2031 Q194.0938,554.8281 193.4844,554.6094 Q192.875,554.3906 192.25,554.3906 Q191.4844,554.3906 190.8438,554.7188 Q190.2188,555.0469 189.7188,555.7969 Q189.2344,556.5469 189.2344,557.5781 L189.2344,558.6719 Q189.2344,559.9063 190.125,560.7344 Q191.0156,561.5469 192.6094,561.5469 Q193.5469,561.5469 194.2031,561.2969 Q194.5938,561.1406 195.0156,560.7031 Q195.2813,560.4375 195.4219,560.3594 Q195.5781,560.2813 195.7813,560.2813 Q196.1094,560.2813 196.3594,560.5469 Q196.625,560.7969 196.625,561.1406 Q196.625,561.4844 196.2813,561.8906 Q195.7813,562.4688 194.9844,562.7969 Q193.9063,563.25 192.6094,563.25 Q191.0938,563.25 189.8906,562.625 Q188.9063,562.125 188.2188,561.0625 Q187.5313,559.9844 187.5313,558.7031 L187.5313,557.5469 Q187.5313,556.2188 188.1406,555.0781 Q188.7656,553.9219 189.8594,553.3125 Q190.9531,552.6875 192.1875,552.6875 Q192.9219,552.6875 193.5625,552.8594 Q194.2188,553.0156 194.7656,553.375 Z "/><text fill="#000000" font-family="sans-serif" font-size="12" lengthAdjust="spacingAndGlyphs" textLength="90" x="206" y="562.4102">ResultController</text><line style="stroke: #A80036; stroke-width: 1.5;" x1="178" x2="298" y1="573.5" y2="573.5"/><line style="stroke: #A80036; stroke-width: 1.5;" x1="178" x2="298" y1="581.5" y2="581.5"/><!--MD5=[8ede4dbfb3b498095887802b64b699f0]
class tictactoe.controllers.StartController--><rect fill="#FEFECE" filter="url(#f1ae3awu9cy3pw)" height="48" id="tictactoe.controllers.StartController" style="stroke: #A80036; stroke-width: 1.5;" width="111" x="334.5" y="541.5"/><ellipse cx="349.5" cy="557.5" fill="#ADD1B2" rx="11" ry="11" style="stroke: #A80036; stroke-width: 1.0;"/><path d="M352.2656,553.375 Q352.4219,553.1563 352.6094,553.0469 Q352.7969,552.9375 353.0156,552.9375 Q353.3906,552.9375 353.625,553.2031 Q353.8594,553.4531 353.8594,554.0625 L353.8594,555.5156 Q353.8594,556.125 353.625,556.3906 Q353.3906,556.6563 353.0156,556.6563 Q352.6719,556.6563 352.4688,556.4531 Q352.2656,556.2656 352.1563,555.75 Q352.1094,555.3906 351.9219,555.2031 Q351.5938,554.8281 350.9844,554.6094 Q350.375,554.3906 349.75,554.3906 Q348.9844,554.3906 348.3438,554.7188 Q347.7188,555.0469 347.2188,555.7969 Q346.7344,556.5469 346.7344,557.5781 L346.7344,558.6719 Q346.7344,559.9063 347.625,560.7344 Q348.5156,561.5469 350.1094,561.5469 Q351.0469,561.5469 351.7031,561.2969 Q352.0938,561.1406 352.5156,560.7031 Q352.7813,560.4375 352.9219,560.3594 Q353.0781,560.2813 353.2813,560.2813 Q353.6094,560.2813 353.8594,560.5469 Q354.125,560.7969 354.125,561.1406 Q354.125,561.4844 353.7813,561.8906 Q353.2813,562.4688 352.4844,562.7969 Q351.4063,563.25 350.1094,563.25 Q348.5938,563.25 347.3906,562.625 Q346.4063,562.125 345.7188,561.0625 Q345.0313,559.9844 345.0313,558.7031 L345.0313,557.5469 Q345.0313,556.2188 345.6406,555.0781 Q346.2656,553.9219 347.3594,553.3125 Q348.4531,552.6875 349.6875,552.6875 Q350.4219,552.6875 351.0625,552.8594 Q351.7188,553.0156 352.2656,553.375 Z "/><text fill="#000000" font-family="sans-serif" font-size="12" lengthAdjust="spacingAndGlyphs" textLength="79" x="363.5" y="562.4102">StartController</text><line style="stroke: #A80036; stroke-width: 1.5;" x1="335.5" x2="444.5" y1="573.5" y2="573.5"/><line style="stroke: #A80036; stroke-width: 1.5;" x1="335.5" x2="444.5" y1="581.5" y2="581.5"/><!--MD5=[4fe29ebdeb3371b5754843c99b0088e8]
reverse link utils.WithConsoleView to tictactoe.views.console.BoardView--><path d="M1497.3,281.522 C1476.11,335.914 1437.73,426.205 1409,447 C1284.9,536.841 1217.2,462.673 1068,497.5 C1032.53,505.779 994.416,517.271 960.624,528.401 " fill="none" id="utils.WithConsoleView&lt;-tictactoe.views.console.BoardView" style="stroke: #A80036; stroke-width: 1.0;"/><polygon fill="none" points="1490.83,278.83,1504.52,262.653,1503.91,283.834,1490.83,278.83" style="stroke: #A80036; stroke-width: 1.0;"/><!--MD5=[1b1ec1db639c24163e1745874c80bdf8]
reverse link utils.WithConsoleView to tictactoe.views.console.ChoosePlayerView--><path d="M1515.8,282.763 C1516.4,328.785 1510.2,401.141 1471,447 C1408.82,519.745 1297.17,547.498 1224.6,558.0564 " fill="none" id="utils.WithConsoleView&lt;-tictactoe.views.console.ChoosePlayerView" style="stroke: #A80036; stroke-width: 1.0;"/><polygon fill="none" points="1508.79,282.755,1515.07,262.518,1522.79,282.254,1508.79,282.755" style="stroke: #A80036; stroke-width: 1.0;"/><!--MD5=[d1f1f21fa3eb12d639631512d925e9a6]
reverse link tictactoe.views.View to tictactoe.views.console.ConsoleView--><path d="M798.878,107.125 C787.469,124.649 773.733,145.747 760.668,165.816 " fill="none" id="tictactoe.views.View&lt;-tictactoe.views.console.ConsoleView" style="stroke: #A80036; stroke-width: 1.0;"/><polygon fill="none" points="793.02,103.292,809.799,90.35,804.753,110.93,793.02,103.292" style="stroke: #A80036; stroke-width: 1.0;"/><!--MD5=[9113815f8bbc012213d6467f94b3dc5b]
link tictactoe.views.console.ConsoleView to tictactoe.views.console.StartView--><path d="M801.5445,306.1148 C801.5445,306.1148 806.849,309.622 809,311 C843.076,332.829 882.498,354.452 915.747,371.723 " fill="none" id="tictactoe.views.console.ConsoleView-tictactoe.views.console.StartView" style="stroke: #A80036; stroke-width: 1.0;"/><polygon fill="#A80036" points="927.696,377.882,921.5285,370.2033,923.2516,375.5914,917.8635,377.3144,927.696,377.882" style="stroke: #A80036; stroke-width: 1.0;"/><line style="stroke: #A80036; stroke-width: 1.0;" x1="923.2516" x2="916.1405" y1="375.5914" y2="371.9265"/><polygon fill="#A80036" points="791.614,299.378,794.3337,306.0566,801.5445,306.1148,798.8249,299.4362,791.614,299.378" style="stroke: #A80036; stroke-width: 1.0;"/><!--MD5=[1735144fa38f1aa47117a26d071db586]
link tictactoe.views.console.ConsoleView to tictactoe.views.console.PlayView--><path d="M650.698,320.9212 C650.698,320.9212 625.37,353.501 614.69,367.238 " fill="none" id="tictactoe.views.console.ConsoleView-tictactoe.views.console.PlayView" style="stroke: #A80036; stroke-width: 1.0;"/><polygon fill="#A80036" points="606.512,377.757,615.1939,373.1068,609.5809,373.8096,608.8781,368.1966,606.512,377.757" style="stroke: #A80036; stroke-width: 1.0;"/><line style="stroke: #A80036; stroke-width: 1.0;" x1="609.5809" x2="614.4915" y1="373.8096" y2="367.494"/><polygon fill="#A80036" points="658.064,311.448,651.2233,313.7293,650.698,320.9212,657.5387,318.6399,658.064,311.448" style="stroke: #A80036; stroke-width: 1.0;"/><!--MD5=[44d2792f564883fbc9918566bab83309]
link tictactoe.views.console.ConsoleView to tictactoe.views.console.ResultView--><path d="M748.9761,322.5062 C748.9761,322.5062 761.695,352.692 767.112,365.547 " fill="none" id="tictactoe.views.console.ConsoleView-tictactoe.views.console.ResultView" style="stroke: #A80036; stroke-width: 1.0;"/><polygon fill="#A80036" points="772.257,377.757,772.448,367.91,770.3153,373.1494,765.0759,371.0167,772.257,377.757" style="stroke: #A80036; stroke-width: 1.0;"/><line style="stroke: #A80036; stroke-width: 1.0;" x1="770.3153" x2="767.209" y1="373.1494" y2="365.777"/><polygon fill="#A80036" points="744.316,311.448,742.96,318.5305,748.9761,322.5062,750.3321,315.4237,744.316,311.448" style="stroke: #A80036; stroke-width: 1.0;"/><!--MD5=[d983ff7a7ecf259bcdad60485d19cf95]
reverse link utils.WithConsoleView to tictactoe.views.console.CoordinateView--><path d="M1471.41,275.996 C1436.73,306.431 1387.91,349.281 1355.4,377.812 " fill="none" id="utils.WithConsoleView&lt;-tictactoe.views.console.CoordinateView" style="stroke: #A80036; stroke-width: 1.0;"/><polygon fill="none" points="1467.06,270.507,1486.71,262.576,1476.29,281.029,1467.06,270.507" style="stroke: #A80036; stroke-width: 1.0;"/><!--MD5=[521be967e4e828bbb4868581b766b1da]
reverse link tictactoe.views.ErrorView to tictactoe.views.console.ErrorView--><path d="M1122.01,70.853 C1193.46,76.69 1303.37,90.623 1329,122 C1382.14,187.055 1371,238.253 1329,311 C1325.68,316.742 1262.86,352.135 1215,378.52 " fill="none" id="tictactoe.views.ErrorView&lt;-tictactoe.views.console.ErrorView" style="stroke: #A80036; stroke-width: 1.0;"/><polygon fill="none" points="1121.07,77.802,1101.66,69.321,1122.12,63.841,1121.07,77.802" style="stroke: #A80036; stroke-width: 1.0;"/><!--MD5=[f807ad8458e0e3d6ca100de41032e69a]
reverse link tictactoe.views.PlayerView to tictactoe.views.console.MachinePlayerView--><path d="M935,110.657 C935,136.045 935,167.952 935,193.414 " fill="none" id="tictactoe.views.PlayerView&lt;-tictactoe.views.console.MachinePlayerView" style="stroke: #A80036; stroke-width: 1.0;"/><polygon fill="none" points="928,110.35,935,90.35,942,110.35,928,110.35" style="stroke: #A80036; stroke-width: 1.0;"/><!--MD5=[9623adb787708e117decab727ca41eb7]
link tictactoe.views.console.PlayView to tictactoe.views.console.BoardView--><path d="M637.066,440.156 C670.562,458.839 714.713,483.465 754.881,505.869 " fill="none" id="tictactoe.views.console.PlayView-&gt;tictactoe.views.console.BoardView" style="stroke: #A80036; stroke-width: 1.0; stroke-dasharray: 7.0,7.0;"/><polygon fill="#A80036" points="759.255,508.308,753.3433,500.4307,754.8883,505.8725,749.4465,507.4175,759.255,508.308" style="stroke: #A80036; stroke-width: 1.0;"/><!--MD5=[c652744ae97b12ae96764b7849bbed7e]
link tictactoe.views.console.PlayView to tictactoe.views.PlayerView--><path d="M575.774,377.76 C563.641,318.58 547.032,187.536 619,122 C629.356,112.569 857.76,118.573 871,114 C883.883,109.55 896.362,101.526 906.827,93.353 " fill="none" id="tictactoe.views.console.PlayView-&gt;tictactoe.views.PlayerView" style="stroke: #A80036; stroke-width: 1.0; stroke-dasharray: 7.0,7.0;"/><polygon fill="#A80036" points="910.884,90.098,901.3608,92.6095,906.9838,93.2267,906.3667,98.8498,910.884,90.098" style="stroke: #A80036; stroke-width: 1.0;"/><!--MD5=[58e59420f385c3dc7e125fbf21a51657]
link tictactoe.views.console.PlayView to tictactoe.controllers.PlayController--><path d="M501.734,413.778 C413.049,420.772 269.037,440.705 159,497.5 C139.999,507.307 122.359,523.552 109.295,537.589 " fill="none" id="tictactoe.views.console.PlayView-&gt;tictactoe.controllers.PlayController" style="stroke: #A80036; stroke-width: 1.0; stroke-dasharray: 7.0,7.0;"/><polygon fill="#A80036" points="105.734,541.482,114.7594,537.5396,109.1082,537.7921,108.8556,532.1409,105.734,541.482" style="stroke: #A80036; stroke-width: 1.0;"/><!--MD5=[9744e604919ab000255dde255237b11a]
link tictactoe.views.console.ResultView to tictactoe.controllers.ResultController--><path d="M705.727,440.065 C697.446,442.644 689.098,445.02 681,447 C522.347,485.796 466.091,430.809 317,497.5 C296.116,506.842 276.479,523.445 262.007,537.786 " fill="none" id="tictactoe.views.console.ResultView-&gt;tictactoe.controllers.ResultController" style="stroke: #A80036; stroke-width: 1.0; stroke-dasharray: 7.0,7.0;"/><polygon fill="#A80036" points="258.441,541.377,267.6205,537.8081,261.9637,537.8286,261.9431,532.1718,258.441,541.377" style="stroke: #A80036; stroke-width: 1.0;"/><!--MD5=[dfa315847ca75b86a537546c793c8626]
link tictactoe.views.console.StartView to tictactoe.views.console.ChoosePlayerView--><path d="M1021.4,440.156 C1047.05,464.024 1083.11,497.592 1111.31,523.835 " fill="none" id="tictactoe.views.console.StartView-&gt;tictactoe.views.console.ChoosePlayerView" style="stroke: #A80036; stroke-width: 1.0; stroke-dasharray: 7.0,7.0;"/><polygon fill="#A80036" points="1115.06,527.324,1111.1886,518.268,1111.3967,523.921,1105.7437,524.1292,1115.06,527.324" style="stroke: #A80036; stroke-width: 1.0;"/><!--MD5=[d3767328306413c38638214ca1b9afec]
link tictactoe.views.console.StartView to tictactoe.controllers.StartController--><path d="M912.631,440.022 C904.396,442.644 896.076,445.04 888,447 C713.008,489.464 654.07,432.863 486,497.5 C461.662,506.86 437.607,523.666 419.664,538.104 " fill="none" id="tictactoe.views.console.StartView-&gt;tictactoe.controllers.StartController" style="stroke: #A80036; stroke-width: 1.0; stroke-dasharray: 7.0,7.0;"/><polygon fill="#A80036" points="415.701,541.335,425.204,538.7479,419.5762,538.1754,420.1487,532.5476,415.701,541.335" style="stroke: #A80036; stroke-width: 1.0;"/><!--MD5=[e665259f0705ebc0d9068c66ae844f61]
reverse link tictactoe.views.PlayerView to tictactoe.views.console.UserPlayerView--><path d="M976.743,102.135 C983.83,106.753 991.375,110.937 999,114 C1024.37,124.191 1035.02,110.874 1060,122 C1090.43,135.555 1119.21,158.229 1142.32,179.916 " fill="none" id="tictactoe.views.PlayerView&lt;-tictactoe.views.console.UserPlayerView" style="stroke: #A80036; stroke-width: 1.0;"/><polygon fill="none" points="972.333,107.582,960.28,90.154,980.57,96.263,972.333,107.582" style="stroke: #A80036; stroke-width: 1.0;"/><!--MD5=[d08a44d06940417b04e1f442f789385d]
link tictactoe.views.console.UserPlayerView to tictactoe.views.console.ErrorView--><path d="M1183.39,297.017 C1178.83,319.612 1173.7,345.069 1169.5,365.897 " fill="none" id="tictactoe.views.console.UserPlayerView-&gt;tictactoe.views.console.ErrorView" style="stroke: #A80036; stroke-width: 1.0; stroke-dasharray: 7.0,7.0;"/><polygon fill="#A80036" points="1168.5,370.813,1174.2009,362.7818,1169.4888,365.9118,1166.3589,361.1997,1168.5,370.813" style="stroke: #A80036; stroke-width: 1.0;"/><!--MD5=[93525d2da9d792717dcb2150911bbe9e]
link tictactoe.views.console.UserPlayerView to tictactoe.views.console.CoordinateView--><path d="M1238.01,297.017 C1257.07,322.506 1278.85,351.638 1295.32,373.658 " fill="none" id="tictactoe.views.console.UserPlayerView-&gt;tictactoe.views.console.CoordinateView" style="stroke: #A80036; stroke-width: 1.0; stroke-dasharray: 7.0,7.0;"/><polygon fill="#A80036" points="1298.33,377.684,1296.1552,368.0783,1295.3405,373.6761,1289.7426,372.8614,1298.33,377.684" style="stroke: #A80036; stroke-width: 1.0;"/><!--MD5=[8eadad6a3f55d9ccd43826cb68f68cd8]
@startuml

class  tictactoe.views.console.BoardView{
~ board: Board
~ BoardView(Board)
~ write(): void
- printRowBoard(int): void
- printSquareValueBoard(int, int): void
}
utils.WithConsoleView <|-down- tictactoe.views.console.BoardView

class  tictactoe.views.console.ChoosePlayerView{
~ readPlayers(): void
- readUsersNumber(): int
}
utils.WithConsoleView <|-down- tictactoe.views.console.ChoosePlayerView

class  tictactoe.views.console.ConsoleView{
- startView: StartView
- playView: PlayView
- resultView: ResultView
+ ConsoleView()
+ visit(StartController): void
+ visit(PlayController): void
+ visit(ResultController): void
}
tictactoe.views.View <|-down- tictactoe.views.console.ConsoleView
tictactoe.views.console.ConsoleView *-down-> tictactoe.views.console.StartView
tictactoe.views.console.ConsoleView *-down-> tictactoe.views.console.PlayView
tictactoe.views.console.ConsoleView *-down-> tictactoe.views.console.ResultView

class  tictactoe.views.console.CoordinateView{
~ read(String): Coordinate
}
utils.WithConsoleView <|-down- tictactoe.views.console.CoordinateView

class  tictactoe.views.console.ErrorView{
~ ErrorView(Error)
~ writeln(): void
}
tictactoe.views.ErrorView <|-down- tictactoe.views.console.ErrorView

class  tictactoe.views.console.MachinePlayerView{
~ MachinePlayerView(Player)
~ readCoordinateToPut(): Coordinate
~ readCoordinatesToMove(): Coordinate[]
}
tictactoe.views.PlayerView <|-down- tictactoe.views.console.MachinePlayerView

class  tictactoe.views.console.PlayView{
~ interact(PlayController): void
}
tictactoe.views.console.PlayView ..> tictactoe.views.console.BoardView
tictactoe.views.console.PlayView ..> tictactoe.views.PlayerView
tictactoe.views.console.PlayView ..> tictactoe.controllers.PlayController

class tictactoe.views.console.ResultView{
~ interact(ResultController): void
}
tictactoe.views.console.ResultView ..> tictactoe.controllers.ResultController

class tictactoe.views.console.StartView{
~ interact(StartController): void
}
tictactoe.views.console.StartView ..> tictactoe.views.console.ChoosePlayerView
tictactoe.views.console.StartView ..> tictactoe.controllers.StartController

class  tictactoe.views.console.UserPlayerView{
~ {static} ENTER_COORDINATE_TO_PUT: String
~ {static} ENTER_COORDINATE_TO_REMOVE: String
~ UserPlayerView(Player)
~ readCoordinateToPut(): Coordinate
~ readCoordinatesToMove(): Coordinate[]
}
tictactoe.views.PlayerView <|-down- tictactoe.views.console.UserPlayerView
tictactoe.views.console.UserPlayerView ..> tictactoe.views.console.ErrorView
tictactoe.views.console.UserPlayerView ..> tictactoe.views.console.CoordinateView

@enduml

PlantUML version 1.2020.15(Sun Jun 28 13:39:45 CEST 2020)
(GPL source distribution)
Java Runtime: Java(TM) SE Runtime Environment
JVM: Java HotSpot(TM) 64-Bit Server VM
Default Encoding: windows-1252
Language: es
Country: ES
--></g></svg>