<?xml version="1.0" encoding="UTF-8" standalone="no"?><svg xmlns="http://www.w3.org/2000/svg" xmlns:xlink="http://www.w3.org/1999/xlink" contentScriptType="application/ecmascript" contentStyleType="text/css" height="2479px" preserveAspectRatio="none" style="width:1159px;height:2479px;" version="1.1" viewBox="0 0 1159 2479" width="1159px" zoomAndPan="magnify"><defs><filter height="300%" id="f159rutipiebmj" width="300%" x="-1" y="-1"><feGaussianBlur result="blurOut" stdDeviation="2.0"/><feColorMatrix in="blurOut" result="blurOut2" type="matrix" values="0 0 0 0 0 0 0 0 0 0 0 0 0 0 0 0 0 0 .4 0"/><feOffset dx="4.0" dy="4.0" in="blurOut2" result="blurOut3"/><feBlend in="SourceGraphic" in2="blurOut3" mode="normal"/></filter></defs><g><!--MD5=[51cd642fcc96b47682a93d9084d46dec]
cluster tictactoe.models--><polygon fill="#FFFFFF" filter="url(#f159rutipiebmj)" points="291.1413,6,413.1413,6,420.1413,29.6094,769.1413,29.6094,769.1413,2343,291.1413,2343,291.1413,6" style="stroke: #000000; stroke-width: 1.5;"/><line style="stroke: #000000; stroke-width: 1.5;" x1="291.1413" x2="420.1413" y1="29.6094" y2="29.6094"/><text fill="#000000" font-family="sans-serif" font-size="14" font-weight="bold" lengthAdjust="spacingAndGlyphs" textLength="116" x="295.1413" y="22.5332">tictactoe.models</text><!--MD5=[c52f45833d539af9e29a9d34b8b7302b]
cluster utils--><polygon fill="#FFFFFF" filter="url(#f159rutipiebmj)" points="793.1413,1948,829.1413,1948,836.1413,1971.6094,1137.1383,1971.6094,1137.1383,2048,793.1413,2048,793.1413,1948" style="stroke: #000000; stroke-width: 1.5;"/><line style="stroke: #000000; stroke-width: 1.5;" x1="793.1413" x2="836.1413" y1="1971.6094" y2="1971.6094"/><text fill="#000000" font-family="sans-serif" font-size="14" font-weight="bold" lengthAdjust="spacingAndGlyphs" textLength="30" x="797.1413" y="1964.5332">utils</text><!--MD5=[7db3c59d38ae5b37b484eb2df9368145]
cluster java.util--><polygon fill="#FFFFFF" filter="url(#f159rutipiebmj)" points="291.1413,2367,352.1413,2367,359.1413,2390.6094,518.1413,2390.6094,518.1413,2467,291.1413,2467,291.1413,2367" style="stroke: #000000; stroke-width: 1.5;"/><line style="stroke: #000000; stroke-width: 1.5;" x1="291.1413" x2="359.1413" y1="2390.6094" y2="2390.6094"/><text fill="#000000" font-family="sans-serif" font-size="14" font-weight="bold" lengthAdjust="spacingAndGlyphs" textLength="55" x="295.1413" y="2383.5332">java.util</text><!--MD5=[2d083dca3cab6023baf6a9cac5f9557f]
cluster tictactoe.types--><polygon fill="#FFFFFF" filter="url(#f159rutipiebmj)" points="143.1411,817.5,252.1411,817.5,259.1411,841.1094,267.1413,841.1094,267.1413,917.5,143.1411,917.5,143.1411,817.5" style="stroke: #000000; stroke-width: 1.5;"/><line style="stroke: #000000; stroke-width: 1.5;" x1="143.1411" x2="259.1411" y1="841.1094" y2="841.1094"/><text fill="#000000" font-family="sans-serif" font-size="14" font-weight="bold" lengthAdjust="spacingAndGlyphs" textLength="103" x="147.1411" y="834.0332">tictactoe.types</text><!--MD5=[f2254b5fdbf93effa50eb20dc057829b]
class tictactoe.models.Board--><rect fill="#FEFECE" filter="url(#f159rutipiebmj)" height="283.2109" id="tictactoe.models.Board" style="stroke: #A80036; stroke-width: 1.5;" width="298" x="418.1413" y="1305"/><ellipse cx="546.3913" cy="1321" fill="#ADD1B2" rx="11" ry="11" style="stroke: #A80036; stroke-width: 1.0;"/><path d="M549.1569,1316.875 Q549.3132,1316.6563 549.5007,1316.5469 Q549.6882,1316.4375 549.9069,1316.4375 Q550.2819,1316.4375 550.5163,1316.7031 Q550.7507,1316.9531 550.7507,1317.5625 L550.7507,1319.0156 Q550.7507,1319.625 550.5163,1319.8906 Q550.2819,1320.1563 549.9069,1320.1563 Q549.5632,1320.1563 549.3601,1319.9531 Q549.1569,1319.7656 549.0476,1319.25 Q549.0007,1318.8906 548.8132,1318.7031 Q548.4851,1318.3281 547.8757,1318.1094 Q547.2663,1317.8906 546.6413,1317.8906 Q545.8757,1317.8906 545.2351,1318.2188 Q544.6101,1318.5469 544.1101,1319.2969 Q543.6257,1320.0469 543.6257,1321.0781 L543.6257,1322.1719 Q543.6257,1323.4063 544.5163,1324.2344 Q545.4069,1325.0469 547.0007,1325.0469 Q547.9382,1325.0469 548.5944,1324.7969 Q548.9851,1324.6406 549.4069,1324.2031 Q549.6726,1323.9375 549.8132,1323.8594 Q549.9694,1323.7813 550.1726,1323.7813 Q550.5007,1323.7813 550.7507,1324.0469 Q551.0163,1324.2969 551.0163,1324.6406 Q551.0163,1324.9844 550.6726,1325.3906 Q550.1726,1325.9688 549.3757,1326.2969 Q548.2976,1326.75 547.0007,1326.75 Q545.4851,1326.75 544.2819,1326.125 Q543.2976,1325.625 542.6101,1324.5625 Q541.9226,1323.4844 541.9226,1322.2031 L541.9226,1321.0469 Q541.9226,1319.7188 542.5319,1318.5781 Q543.1569,1317.4219 544.2507,1316.8125 Q545.3444,1316.1875 546.5788,1316.1875 Q547.3132,1316.1875 547.9538,1316.3594 Q548.6101,1316.5156 549.1569,1316.875 Z "/><text fill="#000000" font-family="sans-serif" font-size="12" lengthAdjust="spacingAndGlyphs" textLength="33" x="566.8913" y="1325.9102">Board</text><line style="stroke: #A80036; stroke-width: 1.5;" x1="419.1413" x2="715.1413" y1="1337" y2="1337"/><ellipse cx="429.1413" cy="1348" fill="none" rx="3" ry="3" style="stroke: #038048; stroke-width: 1.0;"/><text fill="#000000" font-family="sans-serif" font-size="11" lengthAdjust="spacingAndGlyphs" text-decoration="underline" textLength="62" x="438.1413" y="1352.4189">EMPTY: char</text><rect fill="none" height="6" style="stroke: #C82930; stroke-width: 1.0;" width="6" x="426.1413" y="1358.8359"/><text fill="#000000" font-family="sans-serif" font-size="11" lengthAdjust="spacingAndGlyphs" textLength="127" x="438.1413" y="1366.2549">coordinates: Coordinate[][]</text><line style="stroke: #A80036; stroke-width: 1.5;" x1="419.1413" x2="715.1413" y1="1372.6719" y2="1372.6719"/><ellipse cx="429.1413" cy="1383.6719" fill="#84BE84" rx="3" ry="3" style="stroke: #038048; stroke-width: 1.0;"/><text fill="#000000" font-family="sans-serif" font-size="11" lengthAdjust="spacingAndGlyphs" textLength="37" x="438.1413" y="1388.0908">Board()</text><ellipse cx="429.1413" cy="1397.5078" fill="#84BE84" rx="3" ry="3" style="stroke: #038048; stroke-width: 1.0;"/><text fill="#000000" font-family="sans-serif" font-size="11" lengthAdjust="spacingAndGlyphs" textLength="101" x="438.1413" y="1401.9268">Board(Coordinate[][])</text><ellipse cx="429.1413" cy="1411.3438" fill="#84BE84" rx="3" ry="3" style="stroke: #038048; stroke-width: 1.0;"/><text fill="#000000" font-family="sans-serif" font-size="11" lengthAdjust="spacingAndGlyphs" textLength="139" x="438.1413" y="1415.7627">getToken(Coordinate): Token</text><polygon fill="#4177AF" points="429.1413,1421.1797,425.1413,1427.1797,433.1413,1427.1797" style="stroke: #1963A0; stroke-width: 1.0;"/><text fill="#000000" font-family="sans-serif" font-size="11" lengthAdjust="spacingAndGlyphs" textLength="170" x="438.1413" y="1429.5986">move(Coordinate, Coordinate): void</text><polygon fill="#4177AF" points="429.1413,1435.0156,425.1413,1441.0156,433.1413,1441.0156" style="stroke: #1963A0; stroke-width: 1.0;"/><text fill="#000000" font-family="sans-serif" font-size="11" lengthAdjust="spacingAndGlyphs" textLength="136" x="438.1413" y="1443.4346">put(Coordinate, Token): void</text><rect fill="#F24D5C" height="6" style="stroke: #C82930; stroke-width: 1.0;" width="6" x="426.1413" y="1449.8516"/><text fill="#000000" font-family="sans-serif" font-size="11" lengthAdjust="spacingAndGlyphs" textLength="122" x="438.1413" y="1457.2705">remove(Coordinate): void</text><polygon fill="#4177AF" points="429.1413,1462.6875,425.1413,1468.6875,433.1413,1468.6875" style="stroke: #1963A0; stroke-width: 1.0;"/><text fill="#000000" font-family="sans-serif" font-size="11" lengthAdjust="spacingAndGlyphs" textLength="139" x="438.1413" y="1471.1064">isTicTacToe(Token): boolean</text><rect fill="#F24D5C" height="6" style="stroke: #C82930; stroke-width: 1.0;" width="6" x="426.1413" y="1477.5234"/><text fill="#000000" font-family="sans-serif" font-size="11" lengthAdjust="spacingAndGlyphs" textLength="189" x="438.1413" y="1484.9424">numberOfCoordinates(Coordinate[]): int</text><polygon fill="#4177AF" points="429.1413,1490.3594,425.1413,1496.3594,433.1413,1496.3594" style="stroke: #1963A0; stroke-width: 1.0;"/><text fill="#000000" font-family="sans-serif" font-size="11" lengthAdjust="spacingAndGlyphs" textLength="110" x="438.1413" y="1498.7783">isCompleted(): boolean</text><ellipse cx="429.1413" cy="1508.1953" fill="#84BE84" rx="3" ry="3" style="stroke: #038048; stroke-width: 1.0;"/><text fill="#000000" font-family="sans-serif" font-size="11" lengthAdjust="spacingAndGlyphs" textLength="141" x="438.1413" y="1512.6143">isEmpty(Coordinate): boolean</text><polygon fill="#4177AF" points="429.1413,1518.0313,425.1413,1524.0313,433.1413,1524.0313" style="stroke: #1963A0; stroke-width: 1.0;"/><text fill="#000000" font-family="sans-serif" font-size="11" lengthAdjust="spacingAndGlyphs" textLength="193" x="438.1413" y="1526.4502">isOccupied(Coordinate, Token): boolean</text><rect fill="#F24D5C" height="6" style="stroke: #C82930; stroke-width: 1.0;" width="6" x="426.1413" y="1532.8672"/><text fill="#000000" font-family="sans-serif" font-size="11" lengthAdjust="spacingAndGlyphs" textLength="246" x="438.1413" y="1540.2861">checkNumberOfCoordinates(Coordinate[]): boolean</text><rect fill="#F24D5C" height="6" style="stroke: #C82930; stroke-width: 1.0;" width="6" x="426.1413" y="1546.7031"/><text fill="#000000" font-family="sans-serif" font-size="11" lengthAdjust="spacingAndGlyphs" textLength="272" x="438.1413" y="1554.1221">checkDirectionOfFirstCoordinates(Coordinate[]): boolean</text><rect fill="#F24D5C" height="6" style="stroke: #C82930; stroke-width: 1.0;" width="6" x="426.1413" y="1560.5391"/><text fill="#000000" font-family="sans-serif" font-size="11" lengthAdjust="spacingAndGlyphs" textLength="263" x="438.1413" y="1567.958">checkDirectionOfAllCoordinates(Coordinate[]): boolean</text><polygon fill="#4177AF" points="429.1413,1573.375,425.1413,1579.375,433.1413,1579.375" style="stroke: #1963A0; stroke-width: 1.0;"/><text fill="#000000" font-family="sans-serif" font-size="11" lengthAdjust="spacingAndGlyphs" textLength="67" x="438.1413" y="1581.7939">copy(): Board</text><!--MD5=[55d70ecb9e3ba4786ec1f15d0b7dce13]
class tictactoe.models.Coordinate--><rect fill="#FEFECE" filter="url(#f159rutipiebmj)" height="158.6875" id="tictactoe.models.Coordinate" style="stroke: #A80036; stroke-width: 1.5;" width="191" x="561.6413" y="2168"/><ellipse cx="622.3913" cy="2184" fill="#ADD1B2" rx="11" ry="11" style="stroke: #A80036; stroke-width: 1.0;"/><path d="M625.1569,2179.875 Q625.3132,2179.6563 625.5007,2179.5469 Q625.6882,2179.4375 625.9069,2179.4375 Q626.2819,2179.4375 626.5163,2179.7031 Q626.7507,2179.9531 626.7507,2180.5625 L626.7507,2182.0156 Q626.7507,2182.625 626.5163,2182.8906 Q626.2819,2183.1563 625.9069,2183.1563 Q625.5632,2183.1563 625.3601,2182.9531 Q625.1569,2182.7656 625.0476,2182.25 Q625.0007,2181.8906 624.8132,2181.7031 Q624.4851,2181.3281 623.8757,2181.1094 Q623.2663,2180.8906 622.6413,2180.8906 Q621.8757,2180.8906 621.2351,2181.2188 Q620.6101,2181.5469 620.1101,2182.2969 Q619.6257,2183.0469 619.6257,2184.0781 L619.6257,2185.1719 Q619.6257,2186.4063 620.5163,2187.2344 Q621.4069,2188.0469 623.0007,2188.0469 Q623.9382,2188.0469 624.5944,2187.7969 Q624.9851,2187.6406 625.4069,2187.2031 Q625.6726,2186.9375 625.8132,2186.8594 Q625.9694,2186.7813 626.1726,2186.7813 Q626.5007,2186.7813 626.7507,2187.0469 Q627.0163,2187.2969 627.0163,2187.6406 Q627.0163,2187.9844 626.6726,2188.3906 Q626.1726,2188.9688 625.3757,2189.2969 Q624.2976,2189.75 623.0007,2189.75 Q621.4851,2189.75 620.2819,2189.125 Q619.2976,2188.625 618.6101,2187.5625 Q617.9226,2186.4844 617.9226,2185.2031 L617.9226,2184.0469 Q617.9226,2182.7188 618.5319,2181.5781 Q619.1569,2180.4219 620.2507,2179.8125 Q621.3444,2179.1875 622.5788,2179.1875 Q623.3132,2179.1875 623.9538,2179.3594 Q624.6101,2179.5156 625.1569,2179.875 Z "/><text fill="#000000" font-family="sans-serif" font-size="12" lengthAdjust="spacingAndGlyphs" textLength="61" x="642.8913" y="2188.9102">Coordinate</text><line style="stroke: #A80036; stroke-width: 1.5;" x1="562.6413" x2="751.6413" y1="2200" y2="2200"/><ellipse cx="572.6413" cy="2211" fill="none" rx="3" ry="3" style="stroke: #038048; stroke-width: 1.0;"/><text fill="#000000" font-family="sans-serif" font-size="11" lengthAdjust="spacingAndGlyphs" text-decoration="underline" textLength="82" x="581.6413" y="2215.4189">DIMENSION: char</text><line style="stroke: #A80036; stroke-width: 1.5;" x1="562.6413" x2="751.6413" y1="2221.8359" y2="2221.8359"/><ellipse cx="572.6413" cy="2232.8359" fill="#84BE84" rx="3" ry="3" style="stroke: #038048; stroke-width: 1.0;"/><text fill="#000000" font-family="sans-serif" font-size="11" lengthAdjust="spacingAndGlyphs" textLength="60" x="581.6413" y="2237.2549">Coordinate()</text><ellipse cx="572.6413" cy="2246.6719" fill="#84BE84" rx="3" ry="3" style="stroke: #038048; stroke-width: 1.0;"/><text fill="#000000" font-family="sans-serif" font-size="11" lengthAdjust="spacingAndGlyphs" textLength="88" x="581.6413" y="2251.0908">Coordinate(int, int)</text><polygon fill="#4177AF" points="572.6413,2256.5078,568.6413,2262.5078,576.6413,2262.5078" style="stroke: #1963A0; stroke-width: 1.0;"/><text fill="#000000" font-family="sans-serif" font-size="11" lengthAdjust="spacingAndGlyphs" textLength="154" x="581.6413" y="2264.9268">inDirection(Coordinate): boolean</text><polygon fill="#4177AF" points="572.6413,2270.3438,568.6413,2276.3438,576.6413,2276.3438" style="stroke: #1963A0; stroke-width: 1.0;"/><text fill="#000000" font-family="sans-serif" font-size="11" lengthAdjust="spacingAndGlyphs" textLength="165" x="581.6413" y="2278.7627">getDirection(Coordinate): Direction</text><rect fill="#F24D5C" height="6" style="stroke: #C82930; stroke-width: 1.0;" width="6" x="569.6413" y="2285.1797"/><text fill="#000000" font-family="sans-serif" font-size="11" lengthAdjust="spacingAndGlyphs" textLength="137" x="581.6413" y="2292.5986">inInverseDiagonal(): boolean</text><ellipse cx="572.6413" cy="2302.0156" fill="#84BE84" rx="3" ry="3" style="stroke: #038048; stroke-width: 1.0;"/><text fill="#000000" font-family="sans-serif" font-size="11" lengthAdjust="spacingAndGlyphs" textLength="84" x="581.6413" y="2306.4346">isValid(): boolean</text><ellipse cx="572.6413" cy="2315.8516" fill="#84BE84" rx="3" ry="3" style="stroke: #038048; stroke-width: 1.0;"/><text fill="#000000" font-family="sans-serif" font-size="11" lengthAdjust="spacingAndGlyphs" textLength="70" x="581.6413" y="2320.2705">random(): void</text><!--MD5=[b42b9147ed7462532394f7fe6f96703d]
class tictactoe.models.Turn--><rect fill="#FEFECE" filter="url(#f159rutipiebmj)" height="200.1953" id="tictactoe.models.Turn" style="stroke: #A80036; stroke-width: 1.5;" width="142" x="356.1413" y="1648"/><ellipse cx="410.3913" cy="1664" fill="#ADD1B2" rx="11" ry="11" style="stroke: #A80036; stroke-width: 1.0;"/><path d="M413.1569,1659.875 Q413.3132,1659.6563 413.5007,1659.5469 Q413.6882,1659.4375 413.9069,1659.4375 Q414.2819,1659.4375 414.5163,1659.7031 Q414.7507,1659.9531 414.7507,1660.5625 L414.7507,1662.0156 Q414.7507,1662.625 414.5163,1662.8906 Q414.2819,1663.1563 413.9069,1663.1563 Q413.5632,1663.1563 413.3601,1662.9531 Q413.1569,1662.7656 413.0476,1662.25 Q413.0007,1661.8906 412.8132,1661.7031 Q412.4851,1661.3281 411.8757,1661.1094 Q411.2663,1660.8906 410.6413,1660.8906 Q409.8757,1660.8906 409.2351,1661.2188 Q408.6101,1661.5469 408.1101,1662.2969 Q407.6257,1663.0469 407.6257,1664.0781 L407.6257,1665.1719 Q407.6257,1666.4063 408.5163,1667.2344 Q409.4069,1668.0469 411.0007,1668.0469 Q411.9382,1668.0469 412.5944,1667.7969 Q412.9851,1667.6406 413.4069,1667.2031 Q413.6726,1666.9375 413.8132,1666.8594 Q413.9694,1666.7813 414.1726,1666.7813 Q414.5007,1666.7813 414.7507,1667.0469 Q415.0163,1667.2969 415.0163,1667.6406 Q415.0163,1667.9844 414.6726,1668.3906 Q414.1726,1668.9688 413.3757,1669.2969 Q412.2976,1669.75 411.0007,1669.75 Q409.4851,1669.75 408.2819,1669.125 Q407.2976,1668.625 406.6101,1667.5625 Q405.9226,1666.4844 405.9226,1665.2031 L405.9226,1664.0469 Q405.9226,1662.7188 406.5319,1661.5781 Q407.1569,1660.4219 408.2507,1659.8125 Q409.3444,1659.1875 410.5788,1659.1875 Q411.3132,1659.1875 411.9538,1659.3594 Q412.6101,1659.5156 413.1569,1659.875 Z "/><text fill="#000000" font-family="sans-serif" font-size="12" lengthAdjust="spacingAndGlyphs" textLength="25" x="430.8913" y="1668.9102">Turn</text><line style="stroke: #A80036; stroke-width: 1.5;" x1="357.1413" x2="497.1413" y1="1680" y2="1680"/><ellipse cx="367.1413" cy="1691" fill="none" rx="3" ry="3" style="stroke: #038048; stroke-width: 1.0;"/><text fill="#000000" font-family="sans-serif" font-size="11" lengthAdjust="spacingAndGlyphs" text-decoration="underline" textLength="65" x="376.1413" y="1695.4189">PLAYERS: int</text><rect fill="none" height="6" style="stroke: #C82930; stroke-width: 1.0;" width="6" x="364.1413" y="1701.8359"/><text fill="#000000" font-family="sans-serif" font-size="11" lengthAdjust="spacingAndGlyphs" textLength="43" x="376.1413" y="1709.2549">value: int</text><rect fill="none" height="6" style="stroke: #C82930; stroke-width: 1.0;" width="6" x="364.1413" y="1715.6719"/><text fill="#000000" font-family="sans-serif" font-size="11" lengthAdjust="spacingAndGlyphs" textLength="78" x="376.1413" y="1723.0908">players: Player[]</text><line style="stroke: #A80036; stroke-width: 1.5;" x1="357.1413" x2="497.1413" y1="1729.5078" y2="1729.5078"/><ellipse cx="367.1413" cy="1740.5078" fill="#84BE84" rx="3" ry="3" style="stroke: #038048; stroke-width: 1.0;"/><text fill="#000000" font-family="sans-serif" font-size="11" lengthAdjust="spacingAndGlyphs" textLength="66" x="376.1413" y="1744.9268">Turn(Player[])</text><ellipse cx="367.1413" cy="1754.3438" fill="#84BE84" rx="3" ry="3" style="stroke: #038048; stroke-width: 1.0;"/><text fill="#000000" font-family="sans-serif" font-size="11" lengthAdjust="spacingAndGlyphs" textLength="83" x="376.1413" y="1758.7627">Turn(Player[], int)</text><polygon fill="#4177AF" points="367.1413,1764.1797,363.1413,1770.1797,371.1413,1770.1797" style="stroke: #1963A0; stroke-width: 1.0;"/><text fill="#000000" font-family="sans-serif" font-size="11" lengthAdjust="spacingAndGlyphs" textLength="70" x="376.1413" y="1772.5986">change(): void</text><polygon fill="#4177AF" points="367.1413,1778.0156,363.1413,1784.0156,371.1413,1784.0156" style="stroke: #1963A0; stroke-width: 1.0;"/><text fill="#000000" font-family="sans-serif" font-size="11" lengthAdjust="spacingAndGlyphs" textLength="89" x="376.1413" y="1786.4346">getPlayer(): Player</text><polygon fill="#4177AF" points="367.1413,1791.8516,363.1413,1797.8516,371.1413,1797.8516" style="stroke: #1963A0; stroke-width: 1.0;"/><text fill="#000000" font-family="sans-serif" font-size="11" lengthAdjust="spacingAndGlyphs" textLength="68" x="376.1413" y="1800.2705">getValue(): int</text><rect fill="#F24D5C" height="6" style="stroke: #C82930; stroke-width: 1.0;" width="6" x="364.1413" y="1806.6875"/><text fill="#000000" font-family="sans-serif" font-size="11" lengthAdjust="spacingAndGlyphs" textLength="95" x="376.1413" y="1814.1064">getOtherValue(): int</text><polygon fill="#4177AF" points="367.1413,1819.5234,363.1413,1825.5234,371.1413,1825.5234" style="stroke: #1963A0; stroke-width: 1.0;"/><text fill="#000000" font-family="sans-serif" font-size="11" lengthAdjust="spacingAndGlyphs" textLength="116" x="376.1413" y="1827.9424">getOtherPlayer(): Player</text><polygon fill="#4177AF" points="367.1413,1833.3594,363.1413,1839.3594,371.1413,1839.3594" style="stroke: #1963A0; stroke-width: 1.0;"/><text fill="#000000" font-family="sans-serif" font-size="11" lengthAdjust="spacingAndGlyphs" textLength="96" x="376.1413" y="1841.7783">copy(Player[]): Turn</text><!--MD5=[8d3188f3c370ea7d5d91d12bca83b67a]
class tictactoe.models.Game--><rect fill="#FEFECE" filter="url(#f159rutipiebmj)" height="324.7188" id="tictactoe.models.Game" style="stroke: #A80036; stroke-width: 1.5;" width="322" x="431.1413" y="715"/><ellipse cx="570.8913" cy="731" fill="#ADD1B2" rx="11" ry="11" style="stroke: #A80036; stroke-width: 1.0;"/><path d="M573.6569,726.875 Q573.8132,726.6563 574.0007,726.5469 Q574.1882,726.4375 574.4069,726.4375 Q574.7819,726.4375 575.0163,726.7031 Q575.2507,726.9531 575.2507,727.5625 L575.2507,729.0156 Q575.2507,729.625 575.0163,729.8906 Q574.7819,730.1563 574.4069,730.1563 Q574.0632,730.1563 573.8601,729.9531 Q573.6569,729.7656 573.5476,729.25 Q573.5007,728.8906 573.3132,728.7031 Q572.9851,728.3281 572.3757,728.1094 Q571.7663,727.8906 571.1413,727.8906 Q570.3757,727.8906 569.7351,728.2188 Q569.1101,728.5469 568.6101,729.2969 Q568.1257,730.0469 568.1257,731.0781 L568.1257,732.1719 Q568.1257,733.4063 569.0163,734.2344 Q569.9069,735.0469 571.5007,735.0469 Q572.4382,735.0469 573.0944,734.7969 Q573.4851,734.6406 573.9069,734.2031 Q574.1726,733.9375 574.3132,733.8594 Q574.4694,733.7813 574.6726,733.7813 Q575.0007,733.7813 575.2507,734.0469 Q575.5163,734.2969 575.5163,734.6406 Q575.5163,734.9844 575.1726,735.3906 Q574.6726,735.9688 573.8757,736.2969 Q572.7976,736.75 571.5007,736.75 Q569.9851,736.75 568.7819,736.125 Q567.7976,735.625 567.1101,734.5625 Q566.4226,733.4844 566.4226,732.2031 L566.4226,731.0469 Q566.4226,729.7188 567.0319,728.5781 Q567.6569,727.4219 568.7507,726.8125 Q569.8444,726.1875 571.0788,726.1875 Q571.8132,726.1875 572.4538,726.3594 Q573.1101,726.5156 573.6569,726.875 Z "/><text fill="#000000" font-family="sans-serif" font-size="12" lengthAdjust="spacingAndGlyphs" textLength="34" x="591.3913" y="735.9102">Game</text><line style="stroke: #A80036; stroke-width: 1.5;" x1="432.1413" x2="752.1413" y1="747" y2="747"/><rect fill="none" height="6" style="stroke: #C82930; stroke-width: 1.0;" width="6" x="439.1413" y="755"/><text fill="#000000" font-family="sans-serif" font-size="11" lengthAdjust="spacingAndGlyphs" textLength="63" x="451.1413" y="762.4189">board: Board</text><rect fill="none" height="6" style="stroke: #C82930; stroke-width: 1.0;" width="6" x="439.1413" y="768.8359"/><text fill="#000000" font-family="sans-serif" font-size="11" lengthAdjust="spacingAndGlyphs" textLength="84" x="451.1413" y="776.2549">players: Player[][]</text><rect fill="none" height="6" style="stroke: #C82930; stroke-width: 1.0;" width="6" x="439.1413" y="782.6719"/><text fill="#000000" font-family="sans-serif" font-size="11" lengthAdjust="spacingAndGlyphs" textLength="47" x="451.1413" y="790.0908">turn: Turn</text><line style="stroke: #A80036; stroke-width: 1.5;" x1="432.1413" x2="752.1413" y1="796.5078" y2="796.5078"/><ellipse cx="442.1413" cy="807.5078" fill="#84BE84" rx="3" ry="3" style="stroke: #038048; stroke-width: 1.0;"/><text fill="#000000" font-family="sans-serif" font-size="11" lengthAdjust="spacingAndGlyphs" textLength="36" x="451.1413" y="811.9268">Game()</text><ellipse cx="442.1413" cy="821.3438" fill="#84BE84" rx="3" ry="3" style="stroke: #038048; stroke-width: 1.0;"/><text fill="#000000" font-family="sans-serif" font-size="11" lengthAdjust="spacingAndGlyphs" textLength="112" x="451.1413" y="825.7627">createPlayers(int): void</text><polygon fill="#4177AF" points="442.1413,831.1797,438.1413,837.1797,446.1413,837.1797" style="stroke: #1963A0; stroke-width: 1.0;"/><text fill="#000000" font-family="sans-serif" font-size="11" lengthAdjust="spacingAndGlyphs" textLength="131" x="451.1413" y="839.5986">createMemento(): Memento</text><polygon fill="#4177AF" points="442.1413,845.0156,438.1413,851.0156,446.1413,851.0156" style="stroke: #1963A0; stroke-width: 1.0;"/><text fill="#000000" font-family="sans-serif" font-size="11" lengthAdjust="spacingAndGlyphs" textLength="92" x="451.1413" y="853.4346">set(Memento): void</text><rect fill="#F24D5C" height="6" style="stroke: #C82930; stroke-width: 1.0;" width="6" x="439.1413" y="859.8516"/><text fill="#000000" font-family="sans-serif" font-size="11" lengthAdjust="spacingAndGlyphs" textLength="225" x="451.1413" y="867.2705">createCopyOfPlayers(Player[], Board): Player[]</text><ellipse cx="442.1413" cy="876.6875" fill="#84BE84" rx="3" ry="3" style="stroke: #038048; stroke-width: 1.0;"/><text fill="#000000" font-family="sans-serif" font-size="11" lengthAdjust="spacingAndGlyphs" textLength="133" x="451.1413" y="881.1064">isBoardComplete(): boolean</text><ellipse cx="442.1413" cy="890.5234" fill="#84BE84" rx="3" ry="3" style="stroke: #038048; stroke-width: 1.0;"/><text fill="#000000" font-family="sans-serif" font-size="11" lengthAdjust="spacingAndGlyphs" textLength="206" x="451.1413" y="894.9424">putTokenPlayerFromTurn(Coordinate): void</text><ellipse cx="442.1413" cy="904.3594" fill="#84BE84" rx="3" ry="3" style="stroke: #038048; stroke-width: 1.0;"/><text fill="#000000" font-family="sans-serif" font-size="11" lengthAdjust="spacingAndGlyphs" textLength="223" x="451.1413" y="908.7783">moveTokenPlayerFromTurn(Coordinate[]): void</text><ellipse cx="442.1413" cy="918.1953" fill="#84BE84" rx="3" ry="3" style="stroke: #038048; stroke-width: 1.0;"/><text fill="#000000" font-family="sans-serif" font-size="11" lengthAdjust="spacingAndGlyphs" textLength="224" x="451.1413" y="922.6143">getTypeOfTokenPlayerFromTurn(): PlayerType</text><ellipse cx="442.1413" cy="932.0313" fill="#84BE84" rx="3" ry="3" style="stroke: #038048; stroke-width: 1.0;"/><text fill="#000000" font-family="sans-serif" font-size="11" lengthAdjust="spacingAndGlyphs" textLength="196" x="451.1413" y="936.4502">getPutCoordinateError(Coordinate): Error</text><ellipse cx="442.1413" cy="945.8672" fill="#84BE84" rx="3" ry="3" style="stroke: #038048; stroke-width: 1.0;"/><text fill="#000000" font-family="sans-serif" font-size="11" lengthAdjust="spacingAndGlyphs" textLength="235" x="451.1413" y="950.2861">getMoveOriginCoordinateError(Coordinate): Error</text><ellipse cx="442.1413" cy="959.7031" fill="#84BE84" rx="3" ry="3" style="stroke: #038048; stroke-width: 1.0;"/><text fill="#000000" font-family="sans-serif" font-size="11" lengthAdjust="spacingAndGlyphs" textLength="296" x="451.1413" y="964.1221">getMoveTargetCoordinateError(Coordinate, Coordinate): Error</text><ellipse cx="442.1413" cy="973.5391" fill="#84BE84" rx="3" ry="3" style="stroke: #038048; stroke-width: 1.0;"/><text fill="#000000" font-family="sans-serif" font-size="11" lengthAdjust="spacingAndGlyphs" textLength="139" x="451.1413" y="977.958">getToken(Coordinate): Token</text><ellipse cx="442.1413" cy="987.375" fill="#84BE84" rx="3" ry="3" style="stroke: #038048; stroke-width: 1.0;"/><text fill="#000000" font-family="sans-serif" font-size="11" lengthAdjust="spacingAndGlyphs" textLength="92" x="451.1413" y="991.7939">changeTurn(): void</text><ellipse cx="442.1413" cy="1001.2109" fill="#84BE84" rx="3" ry="3" style="stroke: #038048; stroke-width: 1.0;"/><text fill="#000000" font-family="sans-serif" font-size="11" lengthAdjust="spacingAndGlyphs" textLength="110" x="451.1413" y="1005.6299">isTicTacToe(): boolean</text><ellipse cx="442.1413" cy="1015.0469" fill="#84BE84" rx="3" ry="3" style="stroke: #038048; stroke-width: 1.0;"/><text fill="#000000" font-family="sans-serif" font-size="11" lengthAdjust="spacingAndGlyphs" textLength="114" x="451.1413" y="1019.4658">getValueFromTurn(): int</text><ellipse cx="442.1413" cy="1028.8828" fill="#84BE84" rx="3" ry="3" style="stroke: #038048; stroke-width: 1.0;"/><text fill="#000000" font-family="sans-serif" font-size="11" lengthAdjust="spacingAndGlyphs" textLength="84" x="451.1413" y="1033.3018">newGame(): void</text><!--MD5=[3b54484399e9c5d8797124604fd4af65]
class tictactoe.models.Player--><rect fill="#FEFECE" filter="url(#f159rutipiebmj)" height="200.1953" id="tictactoe.models.Player" style="stroke: #A80036; stroke-width: 1.5;" width="322" x="307.1413" y="1908"/><ellipse cx="446.8913" cy="1924" fill="#ADD1B2" rx="11" ry="11" style="stroke: #A80036; stroke-width: 1.0;"/><path d="M449.6569,1919.875 Q449.8132,1919.6563 450.0007,1919.5469 Q450.1882,1919.4375 450.4069,1919.4375 Q450.7819,1919.4375 451.0163,1919.7031 Q451.2507,1919.9531 451.2507,1920.5625 L451.2507,1922.0156 Q451.2507,1922.625 451.0163,1922.8906 Q450.7819,1923.1563 450.4069,1923.1563 Q450.0632,1923.1563 449.8601,1922.9531 Q449.6569,1922.7656 449.5476,1922.25 Q449.5007,1921.8906 449.3132,1921.7031 Q448.9851,1921.3281 448.3757,1921.1094 Q447.7663,1920.8906 447.1413,1920.8906 Q446.3757,1920.8906 445.7351,1921.2188 Q445.1101,1921.5469 444.6101,1922.2969 Q444.1257,1923.0469 444.1257,1924.0781 L444.1257,1925.1719 Q444.1257,1926.4063 445.0163,1927.2344 Q445.9069,1928.0469 447.5007,1928.0469 Q448.4382,1928.0469 449.0944,1927.7969 Q449.4851,1927.6406 449.9069,1927.2031 Q450.1726,1926.9375 450.3132,1926.8594 Q450.4694,1926.7813 450.6726,1926.7813 Q451.0007,1926.7813 451.2507,1927.0469 Q451.5163,1927.2969 451.5163,1927.6406 Q451.5163,1927.9844 451.1726,1928.3906 Q450.6726,1928.9688 449.8757,1929.2969 Q448.7976,1929.75 447.5007,1929.75 Q445.9851,1929.75 444.7819,1929.125 Q443.7976,1928.625 443.1101,1927.5625 Q442.4226,1926.4844 442.4226,1925.2031 L442.4226,1924.0469 Q442.4226,1922.7188 443.0319,1921.5781 Q443.6569,1920.4219 444.7507,1919.8125 Q445.8444,1919.1875 447.0788,1919.1875 Q447.8132,1919.1875 448.4538,1919.3594 Q449.1101,1919.5156 449.6569,1919.875 Z "/><text fill="#000000" font-family="sans-serif" font-size="12" lengthAdjust="spacingAndGlyphs" textLength="34" x="467.3913" y="1928.9102">Player</text><line style="stroke: #A80036; stroke-width: 1.5;" x1="308.1413" x2="628.1413" y1="1940" y2="1940"/><rect fill="none" height="6" style="stroke: #C82930; stroke-width: 1.0;" width="6" x="315.1413" y="1948"/><text fill="#000000" font-family="sans-serif" font-size="11" lengthAdjust="spacingAndGlyphs" textLength="61" x="327.1413" y="1955.4189">token: Token</text><rect fill="none" height="6" style="stroke: #C82930; stroke-width: 1.0;" width="6" x="315.1413" y="1961.8359"/><text fill="#000000" font-family="sans-serif" font-size="11" lengthAdjust="spacingAndGlyphs" textLength="63" x="327.1413" y="1969.2549">board: Board</text><rect fill="none" height="6" style="stroke: #C82930; stroke-width: 1.0;" width="6" x="315.1413" y="1975.6719"/><text fill="#000000" font-family="sans-serif" font-size="11" lengthAdjust="spacingAndGlyphs" textLength="81" x="327.1413" y="1983.0908">type: PlayerType</text><line style="stroke: #A80036; stroke-width: 1.5;" x1="308.1413" x2="628.1413" y1="1989.5078" y2="1989.5078"/><ellipse cx="318.1413" cy="2000.5078" fill="#84BE84" rx="3" ry="3" style="stroke: #038048; stroke-width: 1.0;"/><text fill="#000000" font-family="sans-serif" font-size="11" lengthAdjust="spacingAndGlyphs" textLength="162" x="327.1413" y="2004.9268">Player(Token, Board, PlayerType)</text><ellipse cx="318.1413" cy="2014.3438" fill="#84BE84" rx="3" ry="3" style="stroke: #038048; stroke-width: 1.0;"/><text fill="#000000" font-family="sans-serif" font-size="11" lengthAdjust="spacingAndGlyphs" textLength="107" x="327.1413" y="2018.7627">getType(): PlayerType</text><polygon fill="#4177AF" points="318.1413,2024.1797,314.1413,2030.1797,322.1413,2030.1797" style="stroke: #1963A0; stroke-width: 1.0;"/><text fill="#000000" font-family="sans-serif" font-size="11" lengthAdjust="spacingAndGlyphs" textLength="87" x="327.1413" y="2032.5986">getToken(): Token</text><polygon fill="#4177AF" points="318.1413,2038.0156,314.1413,2044.0156,322.1413,2044.0156" style="stroke: #1963A0; stroke-width: 1.0;"/><text fill="#000000" font-family="sans-serif" font-size="11" lengthAdjust="spacingAndGlyphs" textLength="101" x="327.1413" y="2046.4346">put(Coordinate): void</text><polygon fill="#4177AF" points="318.1413,2051.8516,314.1413,2057.8516,322.1413,2057.8516" style="stroke: #1963A0; stroke-width: 1.0;"/><text fill="#000000" font-family="sans-serif" font-size="11" lengthAdjust="spacingAndGlyphs" textLength="118" x="327.1413" y="2060.2705">move(Coordinate[]): void</text><ellipse cx="318.1413" cy="2069.6875" fill="#84BE84" rx="3" ry="3" style="stroke: #038048; stroke-width: 1.0;"/><text fill="#000000" font-family="sans-serif" font-size="11" lengthAdjust="spacingAndGlyphs" textLength="196" x="327.1413" y="2074.1064">getPutCoordinateError(Coordinate): Error</text><ellipse cx="318.1413" cy="2083.5234" fill="#84BE84" rx="3" ry="3" style="stroke: #038048; stroke-width: 1.0;"/><text fill="#000000" font-family="sans-serif" font-size="11" lengthAdjust="spacingAndGlyphs" textLength="235" x="327.1413" y="2087.9424">getMoveOriginCoordinateError(Coordinate): Error</text><ellipse cx="318.1413" cy="2097.3594" fill="#84BE84" rx="3" ry="3" style="stroke: #038048; stroke-width: 1.0;"/><text fill="#000000" font-family="sans-serif" font-size="11" lengthAdjust="spacingAndGlyphs" textLength="296" x="327.1413" y="2101.7783">getMoveTargetCoordinateError(Coordinate, Coordinate): Error</text><!--MD5=[e3e7462999bb53e8f1f807d9bd18d9da]
class tictactoe.models.Memento--><rect fill="#FEFECE" filter="url(#f159rutipiebmj)" height="144.8516" id="tictactoe.models.Memento" style="stroke: #A80036; stroke-width: 1.5;" width="176" x="307.1413" y="1100"/><ellipse cx="365.3913" cy="1116" fill="#ADD1B2" rx="11" ry="11" style="stroke: #A80036; stroke-width: 1.0;"/><path d="M368.1569,1111.875 Q368.3132,1111.6563 368.5007,1111.5469 Q368.6882,1111.4375 368.9069,1111.4375 Q369.2819,1111.4375 369.5163,1111.7031 Q369.7507,1111.9531 369.7507,1112.5625 L369.7507,1114.0156 Q369.7507,1114.625 369.5163,1114.8906 Q369.2819,1115.1563 368.9069,1115.1563 Q368.5632,1115.1563 368.3601,1114.9531 Q368.1569,1114.7656 368.0476,1114.25 Q368.0007,1113.8906 367.8132,1113.7031 Q367.4851,1113.3281 366.8757,1113.1094 Q366.2663,1112.8906 365.6413,1112.8906 Q364.8757,1112.8906 364.2351,1113.2188 Q363.6101,1113.5469 363.1101,1114.2969 Q362.6257,1115.0469 362.6257,1116.0781 L362.6257,1117.1719 Q362.6257,1118.4063 363.5163,1119.2344 Q364.4069,1120.0469 366.0007,1120.0469 Q366.9382,1120.0469 367.5944,1119.7969 Q367.9851,1119.6406 368.4069,1119.2031 Q368.6726,1118.9375 368.8132,1118.8594 Q368.9694,1118.7813 369.1726,1118.7813 Q369.5007,1118.7813 369.7507,1119.0469 Q370.0163,1119.2969 370.0163,1119.6406 Q370.0163,1119.9844 369.6726,1120.3906 Q369.1726,1120.9688 368.3757,1121.2969 Q367.2976,1121.75 366.0007,1121.75 Q364.4851,1121.75 363.2819,1121.125 Q362.2976,1120.625 361.6101,1119.5625 Q360.9226,1118.4844 360.9226,1117.2031 L360.9226,1116.0469 Q360.9226,1114.7188 361.5319,1113.5781 Q362.1569,1112.4219 363.2507,1111.8125 Q364.3444,1111.1875 365.5788,1111.1875 Q366.3132,1111.1875 366.9538,1111.3594 Q367.6101,1111.5156 368.1569,1111.875 Z "/><text fill="#000000" font-family="sans-serif" font-size="12" lengthAdjust="spacingAndGlyphs" textLength="51" x="385.8913" y="1120.9102">Memento</text><line style="stroke: #A80036; stroke-width: 1.5;" x1="308.1413" x2="482.1413" y1="1132" y2="1132"/><rect fill="none" height="6" style="stroke: #C82930; stroke-width: 1.0;" width="6" x="315.1413" y="1140"/><text fill="#000000" font-family="sans-serif" font-size="11" lengthAdjust="spacingAndGlyphs" textLength="63" x="327.1413" y="1147.4189">board: Board</text><rect fill="none" height="6" style="stroke: #C82930; stroke-width: 1.0;" width="6" x="315.1413" y="1153.8359"/><text fill="#000000" font-family="sans-serif" font-size="11" lengthAdjust="spacingAndGlyphs" textLength="84" x="327.1413" y="1161.2549">players: Player[][]</text><rect fill="none" height="6" style="stroke: #C82930; stroke-width: 1.0;" width="6" x="315.1413" y="1167.6719"/><text fill="#000000" font-family="sans-serif" font-size="11" lengthAdjust="spacingAndGlyphs" textLength="47" x="327.1413" y="1175.0908">turn: Turn</text><line style="stroke: #A80036; stroke-width: 1.5;" x1="308.1413" x2="482.1413" y1="1181.5078" y2="1181.5078"/><ellipse cx="318.1413" cy="1192.5078" fill="#84BE84" rx="3" ry="3" style="stroke: #038048; stroke-width: 1.0;"/><text fill="#000000" font-family="sans-serif" font-size="11" lengthAdjust="spacingAndGlyphs" textLength="150" x="327.1413" y="1196.9268">Memento(Board, Player[], Turn)</text><ellipse cx="318.1413" cy="1206.3438" fill="#84BE84" rx="3" ry="3" style="stroke: #038048; stroke-width: 1.0;"/><text fill="#000000" font-family="sans-serif" font-size="11" lengthAdjust="spacingAndGlyphs" textLength="87" x="327.1413" y="1210.7627">getBoard(): Board</text><polygon fill="#4177AF" points="318.1413,1216.1797,314.1413,1222.1797,322.1413,1222.1797" style="stroke: #1963A0; stroke-width: 1.0;"/><text fill="#000000" font-family="sans-serif" font-size="11" lengthAdjust="spacingAndGlyphs" textLength="101" x="327.1413" y="1224.5986">getPlayers(): Player[]</text><polygon fill="#4177AF" points="318.1413,1230.0156,314.1413,1236.0156,322.1413,1236.0156" style="stroke: #1963A0; stroke-width: 1.0;"/><text fill="#000000" font-family="sans-serif" font-size="11" lengthAdjust="spacingAndGlyphs" textLength="73" x="327.1413" y="1238.4346">getTurn(): Turn</text><!--MD5=[2b14e0e96db7f5316a979ffb128b98ab]
class tictactoe.models.Registry--><rect fill="#FEFECE" filter="url(#f159rutipiebmj)" height="172.5234" id="tictactoe.models.Registry" style="stroke: #A80036; stroke-width: 1.5;" width="192" x="504.1413" y="482"/><ellipse cx="573.3913" cy="498" fill="#ADD1B2" rx="11" ry="11" style="stroke: #A80036; stroke-width: 1.0;"/><path d="M576.1569,493.875 Q576.3132,493.6563 576.5007,493.5469 Q576.6882,493.4375 576.9069,493.4375 Q577.2819,493.4375 577.5163,493.7031 Q577.7507,493.9531 577.7507,494.5625 L577.7507,496.0156 Q577.7507,496.625 577.5163,496.8906 Q577.2819,497.1563 576.9069,497.1563 Q576.5632,497.1563 576.3601,496.9531 Q576.1569,496.7656 576.0476,496.25 Q576.0007,495.8906 575.8132,495.7031 Q575.4851,495.3281 574.8757,495.1094 Q574.2663,494.8906 573.6413,494.8906 Q572.8757,494.8906 572.2351,495.2188 Q571.6101,495.5469 571.1101,496.2969 Q570.6257,497.0469 570.6257,498.0781 L570.6257,499.1719 Q570.6257,500.4063 571.5163,501.2344 Q572.4069,502.0469 574.0007,502.0469 Q574.9382,502.0469 575.5944,501.7969 Q575.9851,501.6406 576.4069,501.2031 Q576.6726,500.9375 576.8132,500.8594 Q576.9694,500.7813 577.1726,500.7813 Q577.5007,500.7813 577.7507,501.0469 Q578.0163,501.2969 578.0163,501.6406 Q578.0163,501.9844 577.6726,502.3906 Q577.1726,502.9688 576.3757,503.2969 Q575.2976,503.75 574.0007,503.75 Q572.4851,503.75 571.2819,503.125 Q570.2976,502.625 569.6101,501.5625 Q568.9226,500.4844 568.9226,499.2031 L568.9226,498.0469 Q568.9226,496.7188 569.5319,495.5781 Q570.1569,494.4219 571.2507,493.8125 Q572.3444,493.1875 573.5788,493.1875 Q574.3132,493.1875 574.9538,493.3594 Q575.6101,493.5156 576.1569,493.875 Z "/><text fill="#000000" font-family="sans-serif" font-size="12" lengthAdjust="spacingAndGlyphs" textLength="45" x="593.8913" y="502.9102">Registry</text><line style="stroke: #A80036; stroke-width: 1.5;" x1="505.1413" x2="695.1413" y1="514" y2="514"/><rect fill="none" height="6" style="stroke: #C82930; stroke-width: 1.0;" width="6" x="512.1413" y="522"/><text fill="#000000" font-family="sans-serif" font-size="11" lengthAdjust="spacingAndGlyphs" textLength="166" x="524.1413" y="529.4189">mementoList: ArrayList&lt;Memento&gt;</text><rect fill="none" height="6" style="stroke: #C82930; stroke-width: 1.0;" width="6" x="512.1413" y="535.8359"/><text fill="#000000" font-family="sans-serif" font-size="11" lengthAdjust="spacingAndGlyphs" textLength="60" x="524.1413" y="543.2549">game: Game</text><rect fill="none" height="6" style="stroke: #C82930; stroke-width: 1.0;" width="6" x="512.1413" y="549.6719"/><text fill="#000000" font-family="sans-serif" font-size="11" lengthAdjust="spacingAndGlyphs" textLength="78" x="524.1413" y="557.0908">firstPrevious: int</text><line style="stroke: #A80036; stroke-width: 1.5;" x1="505.1413" x2="695.1413" y1="563.5078" y2="563.5078"/><polygon fill="#4177AF" points="515.1413,570.5078,511.1413,576.5078,519.1413,576.5078" style="stroke: #1963A0; stroke-width: 1.0;"/><text fill="#000000" font-family="sans-serif" font-size="11" lengthAdjust="spacingAndGlyphs" textLength="76" x="524.1413" y="578.9268">Registry(Game)</text><polygon fill="#4177AF" points="515.1413,584.3438,511.1413,590.3438,519.1413,590.3438" style="stroke: #1963A0; stroke-width: 1.0;"/><text fill="#000000" font-family="sans-serif" font-size="11" lengthAdjust="spacingAndGlyphs" textLength="71" x="524.1413" y="592.7627">registry(): void</text><polygon fill="#4177AF" points="515.1413,598.1797,511.1413,604.1797,519.1413,604.1797" style="stroke: #1963A0; stroke-width: 1.0;"/><text fill="#000000" font-family="sans-serif" font-size="11" lengthAdjust="spacingAndGlyphs" textLength="84" x="524.1413" y="606.5986">redo(Game): void</text><polygon fill="#4177AF" points="515.1413,612.0156,511.1413,618.0156,519.1413,618.0156" style="stroke: #1963A0; stroke-width: 1.0;"/><text fill="#000000" font-family="sans-serif" font-size="11" lengthAdjust="spacingAndGlyphs" textLength="96" x="524.1413" y="620.4346">undoable(): boolean</text><polygon fill="#4177AF" points="515.1413,625.8516,511.1413,631.8516,519.1413,631.8516" style="stroke: #1963A0; stroke-width: 1.0;"/><text fill="#000000" font-family="sans-serif" font-size="11" lengthAdjust="spacingAndGlyphs" textLength="94" x="524.1413" y="634.2705">redoable(): boolean</text><polygon fill="#4177AF" points="515.1413,639.6875,511.1413,645.6875,519.1413,645.6875" style="stroke: #1963A0; stroke-width: 1.0;"/><text fill="#000000" font-family="sans-serif" font-size="11" lengthAdjust="spacingAndGlyphs" textLength="59" x="524.1413" y="648.1064">reset(): void</text><!--MD5=[fa99c436b17806d9277b14ee7a9cac8e]
class tictactoe.models.Session--><rect fill="#FEFECE" filter="url(#f159rutipiebmj)" height="380.0625" id="tictactoe.models.Session" style="stroke: #A80036; stroke-width: 1.5;" width="328" x="425.1413" y="42"/><ellipse cx="561.8913" cy="58" fill="#ADD1B2" rx="11" ry="11" style="stroke: #A80036; stroke-width: 1.0;"/><path d="M564.6569,53.875 Q564.8132,53.6563 565.0007,53.5469 Q565.1882,53.4375 565.4069,53.4375 Q565.7819,53.4375 566.0163,53.7031 Q566.2507,53.9531 566.2507,54.5625 L566.2507,56.0156 Q566.2507,56.625 566.0163,56.8906 Q565.7819,57.1563 565.4069,57.1563 Q565.0632,57.1563 564.8601,56.9531 Q564.6569,56.7656 564.5476,56.25 Q564.5007,55.8906 564.3132,55.7031 Q563.9851,55.3281 563.3757,55.1094 Q562.7663,54.8906 562.1413,54.8906 Q561.3757,54.8906 560.7351,55.2188 Q560.1101,55.5469 559.6101,56.2969 Q559.1257,57.0469 559.1257,58.0781 L559.1257,59.1719 Q559.1257,60.4063 560.0163,61.2344 Q560.9069,62.0469 562.5007,62.0469 Q563.4382,62.0469 564.0944,61.7969 Q564.4851,61.6406 564.9069,61.2031 Q565.1726,60.9375 565.3132,60.8594 Q565.4694,60.7813 565.6726,60.7813 Q566.0007,60.7813 566.2507,61.0469 Q566.5163,61.2969 566.5163,61.6406 Q566.5163,61.9844 566.1726,62.3906 Q565.6726,62.9688 564.8757,63.2969 Q563.7976,63.75 562.5007,63.75 Q560.9851,63.75 559.7819,63.125 Q558.7976,62.625 558.1101,61.5625 Q557.4226,60.4844 557.4226,59.2031 L557.4226,58.0469 Q557.4226,56.7188 558.0319,55.5781 Q558.6569,54.4219 559.7507,53.8125 Q560.8444,53.1875 562.0788,53.1875 Q562.8132,53.1875 563.4538,53.3594 Q564.1101,53.5156 564.6569,53.875 Z "/><text fill="#000000" font-family="sans-serif" font-size="12" lengthAdjust="spacingAndGlyphs" textLength="46" x="582.3913" y="62.9102">Session</text><line style="stroke: #A80036; stroke-width: 1.5;" x1="426.1413" x2="752.1413" y1="74" y2="74"/><rect fill="none" height="6" style="stroke: #C82930; stroke-width: 1.0;" width="6" x="433.1413" y="82"/><text fill="#000000" font-family="sans-serif" font-size="11" lengthAdjust="spacingAndGlyphs" textLength="55" x="445.1413" y="89.4189">state: State</text><rect fill="none" height="6" style="stroke: #C82930; stroke-width: 1.0;" width="6" x="433.1413" y="95.8359"/><text fill="#000000" font-family="sans-serif" font-size="11" lengthAdjust="spacingAndGlyphs" textLength="60" x="445.1413" y="103.2549">game: Game</text><rect fill="none" height="6" style="stroke: #C82930; stroke-width: 1.0;" width="6" x="433.1413" y="109.6719"/><text fill="#000000" font-family="sans-serif" font-size="11" lengthAdjust="spacingAndGlyphs" textLength="83" x="445.1413" y="117.0908">registry: Registry</text><rect fill="none" height="6" style="stroke: #C82930; stroke-width: 1.0;" width="6" x="433.1413" y="123.5078"/><text fill="#000000" font-family="sans-serif" font-size="11" lengthAdjust="spacingAndGlyphs" textLength="56" x="445.1413" y="130.9268">tcpip: TCPIP</text><line style="stroke: #A80036; stroke-width: 1.5;" x1="426.1413" x2="752.1413" y1="137.3438" y2="137.3438"/><ellipse cx="436.1413" cy="148.3438" fill="#84BE84" rx="3" ry="3" style="stroke: #038048; stroke-width: 1.0;"/><text fill="#000000" font-family="sans-serif" font-size="11" lengthAdjust="spacingAndGlyphs" textLength="74" x="445.1413" y="152.7627">Session(TCPIP)</text><ellipse cx="436.1413" cy="162.1797" fill="#84BE84" rx="3" ry="3" style="stroke: #038048; stroke-width: 1.0;"/><text fill="#000000" font-family="sans-serif" font-size="11" lengthAdjust="spacingAndGlyphs" textLength="55" x="445.1413" y="166.5986">next(): void</text><ellipse cx="436.1413" cy="176.0156" fill="#84BE84" rx="3" ry="3" style="stroke: #038048; stroke-width: 1.0;"/><text fill="#000000" font-family="sans-serif" font-size="11" lengthAdjust="spacingAndGlyphs" textLength="96" x="445.1413" y="180.4346">undoable(): boolean</text><ellipse cx="436.1413" cy="189.8516" fill="#84BE84" rx="3" ry="3" style="stroke: #038048; stroke-width: 1.0;"/><text fill="#000000" font-family="sans-serif" font-size="11" lengthAdjust="spacingAndGlyphs" textLength="94" x="445.1413" y="194.2705">redoable(): boolean</text><ellipse cx="436.1413" cy="203.6875" fill="#84BE84" rx="3" ry="3" style="stroke: #038048; stroke-width: 1.0;"/><text fill="#000000" font-family="sans-serif" font-size="11" lengthAdjust="spacingAndGlyphs" textLength="58" x="445.1413" y="208.1064">undo(): void</text><ellipse cx="436.1413" cy="217.5234" fill="#84BE84" rx="3" ry="3" style="stroke: #038048; stroke-width: 1.0;"/><text fill="#000000" font-family="sans-serif" font-size="11" lengthAdjust="spacingAndGlyphs" textLength="56" x="445.1413" y="221.9424">redo(): void</text><ellipse cx="436.1413" cy="231.3594" fill="#84BE84" rx="3" ry="3" style="stroke: #038048; stroke-width: 1.0;"/><text fill="#000000" font-family="sans-serif" font-size="11" lengthAdjust="spacingAndGlyphs" textLength="112" x="445.1413" y="235.7783">createPlayers(int): void</text><ellipse cx="436.1413" cy="245.1953" fill="#84BE84" rx="3" ry="3" style="stroke: #038048; stroke-width: 1.0;"/><text fill="#000000" font-family="sans-serif" font-size="11" lengthAdjust="spacingAndGlyphs" textLength="224" x="445.1413" y="249.6143">getTypeOfTokenPlayerFromTurn(): PlayerType</text><ellipse cx="436.1413" cy="259.0313" fill="#84BE84" rx="3" ry="3" style="stroke: #038048; stroke-width: 1.0;"/><text fill="#000000" font-family="sans-serif" font-size="11" lengthAdjust="spacingAndGlyphs" textLength="202" x="445.1413" y="263.4502">getErrorsPutCoordinate(Coordinate): Error</text><ellipse cx="436.1413" cy="272.8672" fill="#84BE84" rx="3" ry="3" style="stroke: #038048; stroke-width: 1.0;"/><text fill="#000000" font-family="sans-serif" font-size="11" lengthAdjust="spacingAndGlyphs" textLength="241" x="445.1413" y="277.2861">getErrorsMoveOriginCoordinate(Coordinate): Error</text><ellipse cx="436.1413" cy="286.7031" fill="#84BE84" rx="3" ry="3" style="stroke: #038048; stroke-width: 1.0;"/><text fill="#000000" font-family="sans-serif" font-size="11" lengthAdjust="spacingAndGlyphs" textLength="302" x="445.1413" y="291.1221">getErrorsMoveTargetCoordinate(Coordinate, Coordinate): Error</text><ellipse cx="436.1413" cy="300.5391" fill="#84BE84" rx="3" ry="3" style="stroke: #038048; stroke-width: 1.0;"/><text fill="#000000" font-family="sans-serif" font-size="11" lengthAdjust="spacingAndGlyphs" textLength="133" x="445.1413" y="304.958">isBoardComplete(): boolean</text><ellipse cx="436.1413" cy="314.375" fill="#84BE84" rx="3" ry="3" style="stroke: #038048; stroke-width: 1.0;"/><text fill="#000000" font-family="sans-serif" font-size="11" lengthAdjust="spacingAndGlyphs" textLength="206" x="445.1413" y="318.7939">putTokenPlayerFromTurn(Coordinate): void</text><ellipse cx="436.1413" cy="328.2109" fill="#84BE84" rx="3" ry="3" style="stroke: #038048; stroke-width: 1.0;"/><text fill="#000000" font-family="sans-serif" font-size="11" lengthAdjust="spacingAndGlyphs" textLength="223" x="445.1413" y="332.6299">moveTokenPlayerFromTurn(Coordinate[]): void</text><ellipse cx="436.1413" cy="342.0469" fill="#84BE84" rx="3" ry="3" style="stroke: #038048; stroke-width: 1.0;"/><text fill="#000000" font-family="sans-serif" font-size="11" lengthAdjust="spacingAndGlyphs" textLength="92" x="445.1413" y="346.4658">changeTurn(): void</text><ellipse cx="436.1413" cy="355.8828" fill="#84BE84" rx="3" ry="3" style="stroke: #038048; stroke-width: 1.0;"/><text fill="#000000" font-family="sans-serif" font-size="11" lengthAdjust="spacingAndGlyphs" textLength="139" x="445.1413" y="360.3018">getToken(Coordinate): Token</text><ellipse cx="436.1413" cy="369.7188" fill="#84BE84" rx="3" ry="3" style="stroke: #038048; stroke-width: 1.0;"/><text fill="#000000" font-family="sans-serif" font-size="11" lengthAdjust="spacingAndGlyphs" textLength="110" x="445.1413" y="374.1377">isTicTacToe(): boolean</text><ellipse cx="436.1413" cy="383.5547" fill="#84BE84" rx="3" ry="3" style="stroke: #038048; stroke-width: 1.0;"/><text fill="#000000" font-family="sans-serif" font-size="11" lengthAdjust="spacingAndGlyphs" textLength="114" x="445.1413" y="387.9736">getValueFromTurn(): int</text><ellipse cx="436.1413" cy="397.3906" fill="#84BE84" rx="3" ry="3" style="stroke: #038048; stroke-width: 1.0;"/><text fill="#000000" font-family="sans-serif" font-size="11" lengthAdjust="spacingAndGlyphs" textLength="135" x="445.1413" y="401.8096">getValueState(): StateValue</text><ellipse cx="436.1413" cy="411.2266" fill="#84BE84" rx="3" ry="3" style="stroke: #038048; stroke-width: 1.0;"/><text fill="#000000" font-family="sans-serif" font-size="11" lengthAdjust="spacingAndGlyphs" textLength="84" x="445.1413" y="415.6455">newGame(): void</text><!--MD5=[895b6132a90c2908aef15a128e2ee1f5]
class tictactoe.models.State--><rect fill="#FEFECE" filter="url(#f159rutipiebmj)" height="117.1797" id="tictactoe.models.State" style="stroke: #A80036; stroke-width: 1.5;" width="161" x="307.6413" y="510"/><ellipse cx="369.8913" cy="526" fill="#ADD1B2" rx="11" ry="11" style="stroke: #A80036; stroke-width: 1.0;"/><path d="M372.6569,521.875 Q372.8132,521.6563 373.0007,521.5469 Q373.1882,521.4375 373.4069,521.4375 Q373.7819,521.4375 374.0163,521.7031 Q374.2507,521.9531 374.2507,522.5625 L374.2507,524.0156 Q374.2507,524.625 374.0163,524.8906 Q373.7819,525.1563 373.4069,525.1563 Q373.0632,525.1563 372.8601,524.9531 Q372.6569,524.7656 372.5476,524.25 Q372.5007,523.8906 372.3132,523.7031 Q371.9851,523.3281 371.3757,523.1094 Q370.7663,522.8906 370.1413,522.8906 Q369.3757,522.8906 368.7351,523.2188 Q368.1101,523.5469 367.6101,524.2969 Q367.1257,525.0469 367.1257,526.0781 L367.1257,527.1719 Q367.1257,528.4063 368.0163,529.2344 Q368.9069,530.0469 370.5007,530.0469 Q371.4382,530.0469 372.0944,529.7969 Q372.4851,529.6406 372.9069,529.2031 Q373.1726,528.9375 373.3132,528.8594 Q373.4694,528.7813 373.6726,528.7813 Q374.0007,528.7813 374.2507,529.0469 Q374.5163,529.2969 374.5163,529.6406 Q374.5163,529.9844 374.1726,530.3906 Q373.6726,530.9688 372.8757,531.2969 Q371.7976,531.75 370.5007,531.75 Q368.9851,531.75 367.7819,531.125 Q366.7976,530.625 366.1101,529.5625 Q365.4226,528.4844 365.4226,527.2031 L365.4226,526.0469 Q365.4226,524.7188 366.0319,523.5781 Q366.6569,522.4219 367.7507,521.8125 Q368.8444,521.1875 370.0788,521.1875 Q370.8132,521.1875 371.4538,521.3594 Q372.1101,521.5156 372.6569,521.875 Z "/><text fill="#000000" font-family="sans-serif" font-size="12" lengthAdjust="spacingAndGlyphs" textLength="28" x="390.3913" y="530.9102">State</text><line style="stroke: #A80036; stroke-width: 1.5;" x1="308.6413" x2="467.6413" y1="542" y2="542"/><rect fill="none" height="6" style="stroke: #C82930; stroke-width: 1.0;" width="6" x="315.6413" y="550"/><text fill="#000000" font-family="sans-serif" font-size="11" lengthAdjust="spacingAndGlyphs" textLength="111" x="327.6413" y="557.4189">stateValue: StateValue</text><line style="stroke: #A80036; stroke-width: 1.5;" x1="308.6413" x2="467.6413" y1="563.8359" y2="563.8359"/><ellipse cx="318.6413" cy="574.8359" fill="#84BE84" rx="3" ry="3" style="stroke: #038048; stroke-width: 1.0;"/><text fill="#000000" font-family="sans-serif" font-size="11" lengthAdjust="spacingAndGlyphs" textLength="33" x="327.6413" y="579.2549">State()</text><ellipse cx="318.6413" cy="588.6719" fill="#84BE84" rx="3" ry="3" style="stroke: #038048; stroke-width: 1.0;"/><text fill="#000000" font-family="sans-serif" font-size="11" lengthAdjust="spacingAndGlyphs" textLength="55" x="327.6413" y="593.0908">next(): void</text><ellipse cx="318.6413" cy="602.5078" fill="#84BE84" rx="3" ry="3" style="stroke: #038048; stroke-width: 1.0;"/><text fill="#000000" font-family="sans-serif" font-size="11" lengthAdjust="spacingAndGlyphs" textLength="59" x="327.6413" y="606.9268">reset(): void</text><ellipse cx="318.6413" cy="616.3438" fill="#84BE84" rx="3" ry="3" style="stroke: #038048; stroke-width: 1.0;"/><text fill="#000000" font-family="sans-serif" font-size="11" lengthAdjust="spacingAndGlyphs" textLength="135" x="327.6413" y="620.7627">getValueState(): StateValue</text><!--MD5=[63e92a92e730259d201bb8566c78f275]
class utils.Direction--><rect fill="#FEFECE" filter="url(#f159rutipiebmj)" height="48" id="utils.Direction" style="stroke: #A80036; stroke-width: 1.5;" width="81" x="809.6413" y="1984"/><ellipse cx="824.6413" cy="2000" fill="#ADD1B2" rx="11" ry="11" style="stroke: #A80036; stroke-width: 1.0;"/><path d="M827.4069,1995.875 Q827.5632,1995.6563 827.7507,1995.5469 Q827.9382,1995.4375 828.1569,1995.4375 Q828.5319,1995.4375 828.7663,1995.7031 Q829.0007,1995.9531 829.0007,1996.5625 L829.0007,1998.0156 Q829.0007,1998.625 828.7663,1998.8906 Q828.5319,1999.1563 828.1569,1999.1563 Q827.8132,1999.1563 827.6101,1998.9531 Q827.4069,1998.7656 827.2976,1998.25 Q827.2507,1997.8906 827.0632,1997.7031 Q826.7351,1997.3281 826.1257,1997.1094 Q825.5163,1996.8906 824.8913,1996.8906 Q824.1257,1996.8906 823.4851,1997.2188 Q822.8601,1997.5469 822.3601,1998.2969 Q821.8757,1999.0469 821.8757,2000.0781 L821.8757,2001.1719 Q821.8757,2002.4063 822.7663,2003.2344 Q823.6569,2004.0469 825.2507,2004.0469 Q826.1882,2004.0469 826.8444,2003.7969 Q827.2351,2003.6406 827.6569,2003.2031 Q827.9226,2002.9375 828.0632,2002.8594 Q828.2194,2002.7813 828.4226,2002.7813 Q828.7507,2002.7813 829.0007,2003.0469 Q829.2663,2003.2969 829.2663,2003.6406 Q829.2663,2003.9844 828.9226,2004.3906 Q828.4226,2004.9688 827.6257,2005.2969 Q826.5476,2005.75 825.2507,2005.75 Q823.7351,2005.75 822.5319,2005.125 Q821.5476,2004.625 820.8601,2003.5625 Q820.1726,2002.4844 820.1726,2001.2031 L820.1726,2000.0469 Q820.1726,1998.7188 820.7819,1997.5781 Q821.4069,1996.4219 822.5007,1995.8125 Q823.5944,1995.1875 824.8288,1995.1875 Q825.5632,1995.1875 826.2038,1995.3594 Q826.8601,1995.5156 827.4069,1995.875 Z "/><text fill="#000000" font-family="sans-serif" font-size="12" lengthAdjust="spacingAndGlyphs" textLength="49" x="838.6413" y="2004.9102">Direction</text><line style="stroke: #A80036; stroke-width: 1.5;" x1="810.6413" x2="889.6413" y1="2016" y2="2016"/><line style="stroke: #A80036; stroke-width: 1.5;" x1="810.6413" x2="889.6413" y1="2024" y2="2024"/><!--MD5=[4517a9099db328c27576a0137eb33da6]
class utils.Coordinate--><rect fill="#FEFECE" filter="url(#f159rutipiebmj)" height="48" id="utils.Coordinate" style="stroke: #A80036; stroke-width: 1.5;" width="93" x="925.6413" y="1984"/><ellipse cx="940.6413" cy="2000" fill="#ADD1B2" rx="11" ry="11" style="stroke: #A80036; stroke-width: 1.0;"/><path d="M943.4069,1995.875 Q943.5632,1995.6563 943.7507,1995.5469 Q943.9382,1995.4375 944.1569,1995.4375 Q944.5319,1995.4375 944.7663,1995.7031 Q945.0007,1995.9531 945.0007,1996.5625 L945.0007,1998.0156 Q945.0007,1998.625 944.7663,1998.8906 Q944.5319,1999.1563 944.1569,1999.1563 Q943.8132,1999.1563 943.6101,1998.9531 Q943.4069,1998.7656 943.2976,1998.25 Q943.2507,1997.8906 943.0632,1997.7031 Q942.7351,1997.3281 942.1257,1997.1094 Q941.5163,1996.8906 940.8913,1996.8906 Q940.1257,1996.8906 939.4851,1997.2188 Q938.8601,1997.5469 938.3601,1998.2969 Q937.8757,1999.0469 937.8757,2000.0781 L937.8757,2001.1719 Q937.8757,2002.4063 938.7663,2003.2344 Q939.6569,2004.0469 941.2507,2004.0469 Q942.1882,2004.0469 942.8444,2003.7969 Q943.2351,2003.6406 943.6569,2003.2031 Q943.9226,2002.9375 944.0632,2002.8594 Q944.2194,2002.7813 944.4226,2002.7813 Q944.7507,2002.7813 945.0007,2003.0469 Q945.2663,2003.2969 945.2663,2003.6406 Q945.2663,2003.9844 944.9226,2004.3906 Q944.4226,2004.9688 943.6257,2005.2969 Q942.5476,2005.75 941.2507,2005.75 Q939.7351,2005.75 938.5319,2005.125 Q937.5476,2004.625 936.8601,2003.5625 Q936.1726,2002.4844 936.1726,2001.2031 L936.1726,2000.0469 Q936.1726,1998.7188 936.7819,1997.5781 Q937.4069,1996.4219 938.5007,1995.8125 Q939.5944,1995.1875 940.8288,1995.1875 Q941.5632,1995.1875 942.2038,1995.3594 Q942.8601,1995.5156 943.4069,1995.875 Z "/><text fill="#000000" font-family="sans-serif" font-size="12" lengthAdjust="spacingAndGlyphs" textLength="61" x="954.6413" y="2004.9102">Coordinate</text><line style="stroke: #A80036; stroke-width: 1.5;" x1="926.6413" x2="1017.6413" y1="2016" y2="2016"/><line style="stroke: #A80036; stroke-width: 1.5;" x1="926.6413" x2="1017.6413" y1="2024" y2="2024"/><!--MD5=[2c721b8e75ee69878c5473c2e2c68362]
class utils.TCPIP--><rect fill="#FEFECE" filter="url(#f159rutipiebmj)" height="48" id="utils.TCPIP" style="stroke: #A80036; stroke-width: 1.5;" width="67" x="1053.6413" y="1984"/><ellipse cx="1068.6413" cy="2000" fill="#ADD1B2" rx="11" ry="11" style="stroke: #A80036; stroke-width: 1.0;"/><path d="M1071.4069,1995.875 Q1071.5632,1995.6563 1071.7507,1995.5469 Q1071.9382,1995.4375 1072.1569,1995.4375 Q1072.5319,1995.4375 1072.7663,1995.7031 Q1073.0007,1995.9531 1073.0007,1996.5625 L1073.0007,1998.0156 Q1073.0007,1998.625 1072.7663,1998.8906 Q1072.5319,1999.1563 1072.1569,1999.1563 Q1071.8132,1999.1563 1071.6101,1998.9531 Q1071.4069,1998.7656 1071.2976,1998.25 Q1071.2507,1997.8906 1071.0632,1997.7031 Q1070.7351,1997.3281 1070.1257,1997.1094 Q1069.5163,1996.8906 1068.8913,1996.8906 Q1068.1257,1996.8906 1067.4851,1997.2188 Q1066.8601,1997.5469 1066.3601,1998.2969 Q1065.8757,1999.0469 1065.8757,2000.0781 L1065.8757,2001.1719 Q1065.8757,2002.4063 1066.7663,2003.2344 Q1067.6569,2004.0469 1069.2507,2004.0469 Q1070.1882,2004.0469 1070.8444,2003.7969 Q1071.2351,2003.6406 1071.6569,2003.2031 Q1071.9226,2002.9375 1072.0632,2002.8594 Q1072.2194,2002.7813 1072.4226,2002.7813 Q1072.7507,2002.7813 1073.0007,2003.0469 Q1073.2663,2003.2969 1073.2663,2003.6406 Q1073.2663,2003.9844 1072.9226,2004.3906 Q1072.4226,2004.9688 1071.6257,2005.2969 Q1070.5476,2005.75 1069.2507,2005.75 Q1067.7351,2005.75 1066.5319,2005.125 Q1065.5476,2004.625 1064.8601,2003.5625 Q1064.1726,2002.4844 1064.1726,2001.2031 L1064.1726,2000.0469 Q1064.1726,1998.7188 1064.7819,1997.5781 Q1065.4069,1996.4219 1066.5007,1995.8125 Q1067.5944,1995.1875 1068.8288,1995.1875 Q1069.5632,1995.1875 1070.2038,1995.3594 Q1070.8601,1995.5156 1071.4069,1995.875 Z "/><text fill="#000000" font-family="sans-serif" font-size="12" lengthAdjust="spacingAndGlyphs" textLength="35" x="1082.6413" y="2004.9102">TCPIP</text><line style="stroke: #A80036; stroke-width: 1.5;" x1="1054.6413" x2="1119.6413" y1="2016" y2="2016"/><line style="stroke: #A80036; stroke-width: 1.5;" x1="1054.6413" x2="1119.6413" y1="2024" y2="2024"/><!--MD5=[6c70c0f5d22b0d421fe766e144384ba2]
class java.util.Random--><rect fill="#FEFECE" filter="url(#f159rutipiebmj)" height="48" id="java.util.Random" style="stroke: #A80036; stroke-width: 1.5;" width="80" x="422.1413" y="2403"/><ellipse cx="437.1413" cy="2419" fill="#ADD1B2" rx="11" ry="11" style="stroke: #A80036; stroke-width: 1.0;"/><path d="M439.9069,2414.875 Q440.0632,2414.6563 440.2507,2414.5469 Q440.4382,2414.4375 440.6569,2414.4375 Q441.0319,2414.4375 441.2663,2414.7031 Q441.5007,2414.9531 441.5007,2415.5625 L441.5007,2417.0156 Q441.5007,2417.625 441.2663,2417.8906 Q441.0319,2418.1563 440.6569,2418.1563 Q440.3132,2418.1563 440.1101,2417.9531 Q439.9069,2417.7656 439.7976,2417.25 Q439.7507,2416.8906 439.5632,2416.7031 Q439.2351,2416.3281 438.6257,2416.1094 Q438.0163,2415.8906 437.3913,2415.8906 Q436.6257,2415.8906 435.9851,2416.2188 Q435.3601,2416.5469 434.8601,2417.2969 Q434.3757,2418.0469 434.3757,2419.0781 L434.3757,2420.1719 Q434.3757,2421.4063 435.2663,2422.2344 Q436.1569,2423.0469 437.7507,2423.0469 Q438.6882,2423.0469 439.3444,2422.7969 Q439.7351,2422.6406 440.1569,2422.2031 Q440.4226,2421.9375 440.5632,2421.8594 Q440.7194,2421.7813 440.9226,2421.7813 Q441.2507,2421.7813 441.5007,2422.0469 Q441.7663,2422.2969 441.7663,2422.6406 Q441.7663,2422.9844 441.4226,2423.3906 Q440.9226,2423.9688 440.1257,2424.2969 Q439.0476,2424.75 437.7507,2424.75 Q436.2351,2424.75 435.0319,2424.125 Q434.0476,2423.625 433.3601,2422.5625 Q432.6726,2421.4844 432.6726,2420.2031 L432.6726,2419.0469 Q432.6726,2417.7188 433.2819,2416.5781 Q433.9069,2415.4219 435.0007,2414.8125 Q436.0944,2414.1875 437.3288,2414.1875 Q438.0632,2414.1875 438.7038,2414.3594 Q439.3601,2414.5156 439.9069,2414.875 Z "/><text fill="#000000" font-family="sans-serif" font-size="12" lengthAdjust="spacingAndGlyphs" textLength="48" x="451.1413" y="2423.9102">Random</text><line style="stroke: #A80036; stroke-width: 1.5;" x1="423.1413" x2="501.1413" y1="2435" y2="2435"/><line style="stroke: #A80036; stroke-width: 1.5;" x1="423.1413" x2="501.1413" y1="2443" y2="2443"/><!--MD5=[8479184e23c2bec09445fccfd361f5d2]
class java.util.ArrayList--><rect fill="#FEFECE" filter="url(#f159rutipiebmj)" height="48" id="java.util.ArrayList" style="stroke: #A80036; stroke-width: 1.5;" width="79" x="307.6413" y="2403"/><ellipse cx="322.6413" cy="2419" fill="#ADD1B2" rx="11" ry="11" style="stroke: #A80036; stroke-width: 1.0;"/><path d="M325.4069,2414.875 Q325.5632,2414.6563 325.7507,2414.5469 Q325.9382,2414.4375 326.1569,2414.4375 Q326.5319,2414.4375 326.7663,2414.7031 Q327.0007,2414.9531 327.0007,2415.5625 L327.0007,2417.0156 Q327.0007,2417.625 326.7663,2417.8906 Q326.5319,2418.1563 326.1569,2418.1563 Q325.8132,2418.1563 325.6101,2417.9531 Q325.4069,2417.7656 325.2976,2417.25 Q325.2507,2416.8906 325.0632,2416.7031 Q324.7351,2416.3281 324.1257,2416.1094 Q323.5163,2415.8906 322.8913,2415.8906 Q322.1257,2415.8906 321.4851,2416.2188 Q320.8601,2416.5469 320.3601,2417.2969 Q319.8757,2418.0469 319.8757,2419.0781 L319.8757,2420.1719 Q319.8757,2421.4063 320.7663,2422.2344 Q321.6569,2423.0469 323.2507,2423.0469 Q324.1882,2423.0469 324.8444,2422.7969 Q325.2351,2422.6406 325.6569,2422.2031 Q325.9226,2421.9375 326.0632,2421.8594 Q326.2194,2421.7813 326.4226,2421.7813 Q326.7507,2421.7813 327.0007,2422.0469 Q327.2663,2422.2969 327.2663,2422.6406 Q327.2663,2422.9844 326.9226,2423.3906 Q326.4226,2423.9688 325.6257,2424.2969 Q324.5476,2424.75 323.2507,2424.75 Q321.7351,2424.75 320.5319,2424.125 Q319.5476,2423.625 318.8601,2422.5625 Q318.1726,2421.4844 318.1726,2420.2031 L318.1726,2419.0469 Q318.1726,2417.7188 318.7819,2416.5781 Q319.4069,2415.4219 320.5007,2414.8125 Q321.5944,2414.1875 322.8288,2414.1875 Q323.5632,2414.1875 324.2038,2414.3594 Q324.8601,2414.5156 325.4069,2414.875 Z "/><text fill="#000000" font-family="sans-serif" font-size="12" lengthAdjust="spacingAndGlyphs" textLength="47" x="336.6413" y="2423.9102">ArrayList</text><line style="stroke: #A80036; stroke-width: 1.5;" x1="308.6413" x2="385.6413" y1="2435" y2="2435"/><line style="stroke: #A80036; stroke-width: 1.5;" x1="308.6413" x2="385.6413" y1="2443" y2="2443"/><!--MD5=[068fe37cd9d2e226408ce790264f2fa7]
class tictactoe.types.StateValue--><rect fill="#FEFECE" filter="url(#f159rutipiebmj)" height="48" id="tictactoe.types.StateValue" style="stroke: #A80036; stroke-width: 1.5;" width="91" x="159.6411" y="853.5"/><ellipse cx="174.6411" cy="869.5" fill="#ADD1B2" rx="11" ry="11" style="stroke: #A80036; stroke-width: 1.0;"/><path d="M177.4067,865.375 Q177.563,865.1563 177.7505,865.0469 Q177.938,864.9375 178.1567,864.9375 Q178.5317,864.9375 178.7661,865.2031 Q179.0005,865.4531 179.0005,866.0625 L179.0005,867.5156 Q179.0005,868.125 178.7661,868.3906 Q178.5317,868.6563 178.1567,868.6563 Q177.813,868.6563 177.6099,868.4531 Q177.4067,868.2656 177.2974,867.75 Q177.2505,867.3906 177.063,867.2031 Q176.7349,866.8281 176.1255,866.6094 Q175.5161,866.3906 174.8911,866.3906 Q174.1255,866.3906 173.4849,866.7188 Q172.8599,867.0469 172.3599,867.7969 Q171.8755,868.5469 171.8755,869.5781 L171.8755,870.6719 Q171.8755,871.9063 172.7661,872.7344 Q173.6567,873.5469 175.2505,873.5469 Q176.188,873.5469 176.8442,873.2969 Q177.2349,873.1406 177.6567,872.7031 Q177.9224,872.4375 178.063,872.3594 Q178.2192,872.2813 178.4224,872.2813 Q178.7505,872.2813 179.0005,872.5469 Q179.2661,872.7969 179.2661,873.1406 Q179.2661,873.4844 178.9224,873.8906 Q178.4224,874.4688 177.6255,874.7969 Q176.5474,875.25 175.2505,875.25 Q173.7349,875.25 172.5317,874.625 Q171.5474,874.125 170.8599,873.0625 Q170.1724,871.9844 170.1724,870.7031 L170.1724,869.5469 Q170.1724,868.2188 170.7817,867.0781 Q171.4067,865.9219 172.5005,865.3125 Q173.5942,864.6875 174.8286,864.6875 Q175.563,864.6875 176.2036,864.8594 Q176.8599,865.0156 177.4067,865.375 Z "/><text fill="#000000" font-family="sans-serif" font-size="12" lengthAdjust="spacingAndGlyphs" textLength="59" x="188.6411" y="874.4102">StateValue</text><line style="stroke: #A80036; stroke-width: 1.5;" x1="160.6411" x2="249.6411" y1="885.5" y2="885.5"/><line style="stroke: #A80036; stroke-width: 1.5;" x1="160.6411" x2="249.6411" y1="893.5" y2="893.5"/><!--MD5=[9415c0c61774263745e2cedb44e639c6]
link tictactoe.models.Board to tictactoe.models.Coordinate--><path d="M598.7062,1599.931 C598.7062,1599.931 635.6853,1805.026 646.1413,1908 C654.5913,1991.222 657.0463,2086.486 657.5603,2154.706 " fill="none" id="tictactoe.models.Board-tictactoe.models.Coordinate" style="stroke: #A80036; stroke-width: 1.0;"/><polygon fill="#A80036" points="657.6383,2167.978,661.5858,2158.9549,657.6092,2162.9781,653.586,2159.0014,657.6383,2167.978" style="stroke: #A80036; stroke-width: 1.0;"/><line style="stroke: #A80036; stroke-width: 1.0;" x1="657.6092" x2="657.5623" y1="2162.9781" y2="2154.9785"/><polygon fill="#A80036" points="596.4343,1588.148,593.6426,1594.7968,598.7062,1599.931,601.4979,1593.2822,596.4343,1588.148" style="stroke: #A80036; stroke-width: 1.0;"/><!--MD5=[f07f4b28b1c2eb27f6b3ca96953c68ab]
link tictactoe.models.Board to tictactoe.models.Turn--><path d="M501.4453,1588.042 C492.8083,1606.519 484.0843,1625.183 475.8003,1642.904 " fill="none" id="tictactoe.models.Board-&gt;tictactoe.models.Turn" style="stroke: #A80036; stroke-width: 1.0; stroke-dasharray: 7.0,7.0;"/><polygon fill="#A80036" points="473.4763,1647.876,480.9124,1641.4181,475.5945,1643.3468,473.6657,1638.029,473.4763,1647.876" style="stroke: #A80036; stroke-width: 1.0;"/><!--MD5=[1183b1fe88256d6abfae59cdbc015bea]
link tictactoe.models.Board to utils.Direction--><path d="M643.0193,1588.214 C653.5813,1608.226 664.2103,1628.594 674.1413,1648 C736.8603,1770.553 808.0363,1918.692 836.9203,1979.213 " fill="none" id="tictactoe.models.Board-&gt;utils.Direction" style="stroke: #A80036; stroke-width: 1.0; stroke-dasharray: 7.0,7.0;"/><polygon fill="#A80036" points="839.0903,1983.763,838.8254,1973.9177,836.9375,1979.2502,831.605,1977.3622,839.0903,1983.763" style="stroke: #A80036; stroke-width: 1.0;"/><!--MD5=[d279b4500bca5abba91dd5faa9f398fd]
reverse link utils.Coordinate to tictactoe.models.Coordinate--><path d="M951.8963,2049.752 C940.8723,2069.07 925.8563,2091.478 908.1413,2108 C863.0993,2150.008 802.9523,2183.767 752.8273,2207.435 " fill="none" id="utils.Coordinate&lt;-tictactoe.models.Coordinate" style="stroke: #A80036; stroke-width: 1.0;"/><polygon fill="none" points="945.7343,2046.431,961.3723,2032.133,958.0643,2053.063,945.7343,2046.431" style="stroke: #A80036; stroke-width: 1.0;"/><!--MD5=[997516208723a80710191e814da7328e]
link tictactoe.models.Coordinate to utils.Direction--><path d="M720.9913,2167.928 C757.8603,2122.557 801.9383,2068.316 827.8993,2036.37 " fill="none" id="tictactoe.models.Coordinate-&gt;utils.Direction" style="stroke: #A80036; stroke-width: 1.0; stroke-dasharray: 7.0,7.0;"/><polygon fill="#A80036" points="831.2843,2032.205,822.5051,2036.6688,828.1318,2036.086,828.7146,2041.7127,831.2843,2032.205" style="stroke: #A80036; stroke-width: 1.0;"/><!--MD5=[02a5e0cbda321227fb745cf81ac775a1]
link tictactoe.models.Coordinate to java.util.Random--><path d="M570.7593,2327.129 C542.3723,2352.969 512.7103,2379.969 491.5703,2399.2116 " fill="none" id="tictactoe.models.Coordinate-&gt;java.util.Random" style="stroke: #A80036; stroke-width: 1.0; stroke-dasharray: 7.0,7.0;"/><polygon fill="#A80036" points="487.7243,2402.7123,497.0725,2399.6121,491.4219,2399.3466,491.6874,2393.696,487.7243,2402.7123" style="stroke: #A80036; stroke-width: 1.0;"/><!--MD5=[b634369fa6e65a8dead148f8efc150f7]
link tictactoe.models.Game to tictactoe.models.Board--><path d="M584.4828,1052.2084 C584.4828,1052.2084 577.1673,1218.11 573.9233,1291.68 " fill="none" id="tictactoe.models.Game-tictactoe.models.Board" style="stroke: #A80036; stroke-width: 1.0;"/><polygon fill="#A80036" points="573.3463,1304.76,577.738,1295.9445,573.5661,1299.7648,569.7458,1295.5929,573.3463,1304.76" style="stroke: #A80036; stroke-width: 1.0;"/><line style="stroke: #A80036; stroke-width: 1.0;" x1="573.5661" x2="573.9188" y1="1299.7648" y2="1291.78"/><polygon fill="#A80036" points="585.0103,1040.22,580.7504,1046.0384,584.4828,1052.2084,588.7427,1046.39,585.0103,1040.22" style="stroke: #A80036; stroke-width: 1.0;"/><!--MD5=[1dc2bc8b0c5aa09eb02df64674797f09]
link tictactoe.models.Game to tictactoe.models.Player--><path d="M672.7741,1051.4623 C672.7741,1051.4623 786.3433,1408.37 734.1413,1588 C700.6003,1703.413 624.6393,1817.45 562.4423,1897.347 " fill="none" id="tictactoe.models.Game-tictactoe.models.Player" style="stroke: #A80036; stroke-width: 1.0;"/><polygon fill="#A80036" points="554.1533,1907.899,562.8587,1903.293,557.2422,1903.9673,556.5679,1898.3507,554.1533,1907.899" style="stroke: #A80036; stroke-width: 1.0;"/><line style="stroke: #A80036; stroke-width: 1.0;" x1="557.2422" x2="562.1833" y1="1903.9673" y2="1897.676"/><polygon fill="#A80036" points="668.3693,1040.3,666.8509,1047.3494,672.7741,1051.4623,674.2925,1044.4129,668.3693,1040.3" style="stroke: #A80036; stroke-width: 1.0;"/><!--MD5=[aa5c2eaa34da3707c874f29e1edc60f9]
link tictactoe.models.Game to tictactoe.models.Turn--><path d="M576.838,1052.1686 C576.838,1052.1686 541.0843,1189.8 500.1413,1245 C469.2643,1286.63 425.6783,1259.9 400.1413,1305 C369.3983,1359.3 388.4973,1522.444 406.5913,1634.572 " fill="none" id="tictactoe.models.Game-tictactoe.models.Turn" style="stroke: #A80036; stroke-width: 1.0;"/><polygon fill="#A80036" points="408.7333,1647.641,411.2249,1638.1125,407.9246,1642.7068,403.3303,1639.4065,408.7333,1647.641" style="stroke: #A80036; stroke-width: 1.0;"/><line style="stroke: #A80036; stroke-width: 1.0;" x1="407.9246" x2="406.6308" y1="1642.7068" y2="1634.812"/><polygon fill="#A80036" points="579.0273,1040.37,573.9998,1045.5395,576.838,1052.1686,581.8655,1046.9991,579.0273,1040.37" style="stroke: #A80036; stroke-width: 1.0;"/><!--MD5=[5fdd22b8e1e201e10f6f9767c3e91641]
link tictactoe.models.Game to tictactoe.models.Memento--><path d="M483.2693,1040.43 C470.3903,1059.58 457.7503,1078.38 446.2433,1095.5 " fill="none" id="tictactoe.models.Game-&gt;tictactoe.models.Memento" style="stroke: #A80036; stroke-width: 1.0; stroke-dasharray: 7.0,7.0;"/><polygon fill="#A80036" points="443.3423,1099.81,451.6927,1094.5879,446.1395,1095.6656,445.0617,1090.1124,443.3423,1099.81" style="stroke: #A80036; stroke-width: 1.0;"/><!--MD5=[0add7ab1c0e4f2d2e8b94d51df67b541]
link tictactoe.models.Memento to tictactoe.models.Board--><path d="M446.9676,1255.4644 C446.9676,1255.4644 462.9913,1280.8 471.0523,1293.55 " fill="none" id="tictactoe.models.Memento-tictactoe.models.Board" style="stroke: #A80036; stroke-width: 1.0;"/><polygon fill="#A80036" points="478.1593,1304.78,476.724,1295.0363,475.4844,1300.5557,469.965,1299.3161,478.1593,1304.78" style="stroke: #A80036; stroke-width: 1.0;"/><line style="stroke: #A80036; stroke-width: 1.0;" x1="475.4844" x2="471.2108" y1="1300.5557" y2="1293.795"/><polygon fill="#A80036" points="440.5573,1245.32,440.381,1252.5289,446.9676,1255.4644,447.1439,1248.2554,440.5573,1245.32" style="stroke: #A80036; stroke-width: 1.0;"/><!--MD5=[0965f470714fab33faa0fe72ca0accda]
link tictactoe.models.Memento to tictactoe.models.Player--><path d="M366.4702,1256.6316 C366.4702,1256.6316 265.9603,1645.681 338.1413,1848 C344.1673,1864.89 352.8423,1881.28 362.8943,1896.715 " fill="none" id="tictactoe.models.Memento-tictactoe.models.Player" style="stroke: #A80036; stroke-width: 1.0;"/><polygon fill="#A80036" points="370.4383,1907.779,368.6722,1898.0898,367.6212,1903.6481,362.0628,1902.5971,370.4383,1907.779" style="stroke: #A80036; stroke-width: 1.0;"/><line style="stroke: #A80036; stroke-width: 1.0;" x1="367.6212" x2="363.1143" y1="1903.6481" y2="1897.0385"/><polygon fill="#A80036" points="370.0563,1245.18,364.4461,1249.7105,366.4702,1256.6316,372.0805,1252.1012,370.0563,1245.18" style="stroke: #A80036; stroke-width: 1.0;"/><!--MD5=[e11dc50ca1268988a8df702a7479da15]
link tictactoe.models.Memento to tictactoe.models.Turn--><path d="M379.0303,1257.0788 C379.0303,1257.0788 374.4063,1289.77 373.1413,1305 C362.7283,1430.35 352.6433,1463.9 373.1413,1588 C375.7093,1603.547 379.6003,1619.616 384.1403,1635.295 " fill="none" id="tictactoe.models.Memento-tictactoe.models.Turn" style="stroke: #A80036; stroke-width: 1.0;"/><polygon fill="#A80036" points="387.9083,1647.768,389.1353,1637.9959,386.4626,1642.9816,381.477,1640.3089,387.9083,1647.768" style="stroke: #A80036; stroke-width: 1.0;"/><line style="stroke: #A80036; stroke-width: 1.0;" x1="386.4626" x2="384.1488" y1="1642.9816" y2="1635.3235"/><polygon fill="#A80036" points="380.9293,1245.23,376.0302,1250.5214,379.0303,1257.0788,383.9294,1251.7874,380.9293,1245.23" style="stroke: #A80036; stroke-width: 1.0;"/><!--MD5=[4d61797189bd4e3921b05d5b1c2f3641]
link tictactoe.models.Player to tictactoe.models.Board--><path d="M503.2646,1896.3982 C503.2646,1896.3982 511.8773,1863.444 515.1413,1848 C532.1673,1767.431 544.5163,1676.491 552.8953,1601.655 " fill="none" id="tictactoe.models.Player-tictactoe.models.Board" style="stroke: #A80036; stroke-width: 1.0;"/><polygon fill="#A80036" points="554.3623,1588.355,549.3994,1596.862,553.8139,1593.3248,557.3511,1597.7394,554.3623,1588.355" style="stroke: #A80036; stroke-width: 1.0;"/><line style="stroke: #A80036; stroke-width: 1.0;" x1="553.8139" x2="552.9368" y1="1593.3248" y2="1601.277"/><polygon fill="#A80036" points="500.0443,1907.958,505.5077,1903.2515,503.2646,1896.3982,497.8012,1901.1047,500.0443,1907.958" style="stroke: #A80036; stroke-width: 1.0;"/><!--MD5=[8c8274b143d2ce23d56b10c65f754674]
link tictactoe.models.Player to tictactoe.models.Coordinate--><path d="M546.9253,2108.002 C561.7093,2126.579 577.0213,2145.821 591.3593,2163.838 " fill="none" id="tictactoe.models.Player-&gt;tictactoe.models.Coordinate" style="stroke: #A80036; stroke-width: 1.0; stroke-dasharray: 7.0,7.0;"/><polygon fill="#A80036" points="594.5953,2167.904,592.1186,2158.3716,591.4809,2163.9924,585.8601,2163.3547,594.5953,2167.904" style="stroke: #A80036; stroke-width: 1.0;"/><!--MD5=[3152a19d553c2d3514b3b32b9814f169]
link tictactoe.models.Registry to tictactoe.models.Game--><path d="M597.5958,667.0158 C597.5958,667.0158 596.9953,690.23 596.7023,701.48 " fill="none" id="tictactoe.models.Registry-tictactoe.models.Game" style="stroke: #A80036; stroke-width: 1.0;"/><polygon fill="#A80036" points="596.3563,714.75,600.5923,705.8586,596.4882,709.7517,592.595,705.6476,596.3563,714.75" style="stroke: #A80036; stroke-width: 1.0;"/><line style="stroke: #A80036; stroke-width: 1.0;" x1="596.4882" x2="596.6948" y1="709.7517" y2="701.75"/><polygon fill="#A80036" points="597.9123,655.02,593.7555,660.9124,597.5958,667.0158,601.7527,661.1234,597.9123,655.02" style="stroke: #A80036; stroke-width: 1.0;"/><!--MD5=[a44038fa09e405fa1bcfa610e808471f]
link tictactoe.models.Registry to tictactoe.models.Memento--><path d="M494.5038,648.8287 C494.5038,648.8287 415.8153,709.79 413.1413,715 C352.6603,832.75 363.3903,991 378.1853,1086.89 " fill="none" id="tictactoe.models.Registry-tictactoe.models.Memento" style="stroke: #A80036; stroke-width: 1.0;"/><polygon fill="#A80036" points="380.2933,1099.99,382.8187,1090.4704,379.5021,1095.053,374.9195,1091.7364,380.2933,1099.99" style="stroke: #A80036; stroke-width: 1.0;"/><line style="stroke: #A80036; stroke-width: 1.0;" x1="379.5021" x2="378.2288" y1="1095.053" y2="1087.16"/><polygon fill="#A80036" points="504.0443,641.55,496.8478,642.0092,494.5038,648.8287,501.7003,648.3695,504.0443,641.55" style="stroke: #A80036; stroke-width: 1.0;"/><!--MD5=[fb5ba91e0149d488c8e3c668184c7961]
link tictactoe.models.Registry to java.util.ArrayList--><path d="M493.3869,651.6444 C493.3869,651.6444 488.2093,654.11 486.1413,655 C344.1063,716.45 247.4073,600.64 143.1411,715 C6,865.42 106.1411,967.95 106.1411,1171.5 C106.1411,1171.5 106.1411,1171.5 106.1411,2009 C106.1411,2171.647 245.2783,2327.875 312.1123,2393.5376 " fill="none" id="tictactoe.models.Registry-java.util.ArrayList" style="stroke: #A80036; stroke-width: 1.0;"/><polygon fill="#A80036" points="321.8053,2402.9226,318.1219,2393.7884,318.2132,2399.4446,312.5571,2399.5358,321.8053,2402.9226" style="stroke: #A80036; stroke-width: 1.0;"/><line style="stroke: #A80036; stroke-width: 1.0;" x1="318.2132" x2="312.4663" y1="2399.4446" y2="2393.8796"/><polygon fill="#A80036" points="504.0603,646.16,496.8955,645.3444,493.3869,651.6444,500.5518,652.46,504.0603,646.16" style="stroke: #A80036; stroke-width: 1.0;"/><!--MD5=[81c635d2699774312e0786044bb2c7df]
link tictactoe.models.Session to tictactoe.models.State--><path d="M469.2417,432.5241 C469.2417,432.5241 441.4093,478.85 429.7513,498.25 " fill="none" id="tictactoe.models.Session-tictactoe.models.State" style="stroke: #A80036; stroke-width: 1.0;"/><polygon fill="#A80036" points="422.8993,509.66,430.9651,504.0081,425.4758,505.375,424.109,499.8857,422.8993,509.66" style="stroke: #A80036; stroke-width: 1.0;"/><line style="stroke: #A80036; stroke-width: 1.0;" x1="425.4758" x2="429.5953" y1="505.375" y2="498.515"/><polygon fill="#A80036" points="475.4253,422.24,468.9054,425.3208,469.2417,432.5241,475.7615,429.4433,475.4253,422.24" style="stroke: #A80036; stroke-width: 1.0;"/><!--MD5=[16f80b9c05a1fd649d4fdff2813ca191]
link tictactoe.models.Session to tictactoe.models.Game--><path d="M698.4108,433.2434 C698.4108,433.2434 709.4333,466.24 713.1413,482 C730.7463,556.85 732.1633,580.5 713.1413,655 C709.0593,670.99 703.5613,687.06 697.1503,702.85 " fill="none" id="tictactoe.models.Session-tictactoe.models.Game" style="stroke: #A80036; stroke-width: 1.0;"/><polygon fill="#A80036" points="692.0793,714.87,699.2651,708.1347,694.0242,710.2638,691.8951,705.0229,692.0793,714.87" style="stroke: #A80036; stroke-width: 1.0;"/><line style="stroke: #A80036; stroke-width: 1.0;" x1="694.0242" x2="697.1343" y1="710.2638" y2="702.89"/><polygon fill="#A80036" points="694.2173,422,692.5663,429.0195,698.4108,433.2434,700.0619,426.2239,694.2173,422" style="stroke: #A80036; stroke-width: 1.0;"/><!--MD5=[8b9a7111cababfb559df54387fd36e41]
link tictactoe.models.Session to tictactoe.models.Registry--><path d="M595.7599,434.2335 C595.7599,434.2335 596.5313,457.73 596.8823,468.4 " fill="none" id="tictactoe.models.Session-tictactoe.models.Registry" style="stroke: #A80036; stroke-width: 1.0;"/><polygon fill="#A80036" points="597.3183,481.66,601.0194,472.533,597.1535,476.6627,593.0238,472.7968,597.3183,481.66" style="stroke: #A80036; stroke-width: 1.0;"/><line style="stroke: #A80036; stroke-width: 1.0;" x1="597.1535" x2="596.8908" y1="476.6627" y2="468.67"/><polygon fill="#A80036" points="595.3643,422.24,591.5643,428.3686,595.7599,434.2335,599.5599,428.1049,595.3643,422.24" style="stroke: #A80036; stroke-width: 1.0;"/><!--MD5=[98854079f8b47032907ceb9dcc9f21f2]
link tictactoe.models.Session to utils.TCPIP--><path d="M761.2811,394.1958 C761.2811,394.1958 993.1413,691.4 993.1413,876.5 C993.1413,876.5 993.1413,876.5 993.1413,1447.5 C993.1413,1647.785 1052.4473,1882.895 1076.8483,1971.143 " fill="none" id="tictactoe.models.Session-utils.TCPIP" style="stroke: #A80036; stroke-width: 1.0;"/><polygon fill="#A80036" points="1080.3783,1983.783,1081.8053,1974.0381,1079.0311,1978.9679,1074.1012,1976.1936,1080.3783,1983.783" style="stroke: #A80036; stroke-width: 1.0;"/><line style="stroke: #A80036; stroke-width: 1.0;" x1="1079.0311" x2="1076.8783" y1="1978.9679" y2="1971.2635"/><polygon fill="#A80036" points="753.1723,385.35,754.2781,392.4758,761.2811,394.1958,760.1753,387.07,753.1723,385.35" style="stroke: #A80036; stroke-width: 1.0;"/><!--MD5=[1144122d6943599b2215721923ef0ecc]
link tictactoe.models.State to tictactoe.types.StateValue--><path d="M341.1401,636.9977 C341.1401,636.9977 306.4693,689.35 291.1413,715 C265.6383,757.68 239.1753,808.53 222.4573,841.62 " fill="none" id="tictactoe.models.State-tictactoe.types.StateValue" style="stroke: #A80036; stroke-width: 1.0;"/><polygon fill="#A80036" points="216.5503,853.37,224.168,847.1273,218.7971,848.9033,217.0212,843.5324,216.5503,853.37" style="stroke: #A80036; stroke-width: 1.0;"/><line style="stroke: #A80036; stroke-width: 1.0;" x1="218.7971" x2="222.3878" y1="848.9033" y2="841.755"/><polygon fill="#A80036" points="347.8663,627.06,341.1906,629.7868,341.1401,636.9977,347.8157,634.2709,347.8663,627.06" style="stroke: #A80036; stroke-width: 1.0;"/><!--MD5=[445ca9be6ac7acaf2fbd96fa00e05ee8]
link tictactoe.models.Turn to tictactoe.models.Player--><path d="M444.7597,1859.8631 C444.7597,1859.8631 448.5273,1883.574 450.3073,1894.776 " fill="none" id="tictactoe.models.Turn-tictactoe.models.Player" style="stroke: #A80036; stroke-width: 1.0;"/><polygon fill="#A80036" points="452.3813,1907.827,454.9194,1898.3108,451.5967,1902.8889,447.0185,1899.5662,452.3813,1907.827" style="stroke: #A80036; stroke-width: 1.0;"/><line style="stroke: #A80036; stroke-width: 1.0;" x1="451.5967" x2="450.3408" y1="1902.8889" y2="1894.988"/><polygon fill="#A80036" points="442.8753,1848.012,439.8671,1854.5657,444.7597,1859.8631,447.7679,1853.3094,442.8753,1848.012" style="stroke: #A80036; stroke-width: 1.0;"/><!--MD5=[181ea5f8c1ca4b3f28e032afceb575b1]
@startuml

class  tictactoe.models.Board{
+ {static} EMPTY: char
- coordinates: Coordinate[][]
+ Board()
+ Board(Coordinate[][])
+ getToken(Coordinate): Token
~ move(Coordinate, Coordinate): void
~ put(Coordinate, Token): void
- remove(Coordinate): void
~ isTicTacToe(Token): boolean
- numberOfCoordinates(Coordinate[]): int
~ isCompleted(): boolean
+ isEmpty(Coordinate): boolean
~ isOccupied(Coordinate, Token): boolean
- checkNumberOfCoordinates(Coordinate[]): boolean
- checkDirectionOfFirstCoordinates(Coordinate[]): boolean
- checkDirectionOfAllCoordinates(Coordinate[]): boolean
~ copy(): Board
}
tictactoe.models.Board *-down-> tictactoe.models.Coordinate
tictactoe.models.Board ..> tictactoe.models.Turn
tictactoe.models.Board ..> utils.Direction

class  tictactoe.models.Coordinate{
+ {static} DIMENSION: char
+ Coordinate()
+ Coordinate(int, int)
~ inDirection(Coordinate): boolean
~ getDirection(Coordinate): Direction
- inInverseDiagonal(): boolean
+ isValid(): boolean
+ random(): void
}
utils.Coordinate <|-down- tictactoe.models.Coordinate
tictactoe.models.Coordinate ..> utils.Direction
tictactoe.models.Coordinate ..> java.util.Random

class  tictactoe.models.Game{
- board: Board
- players: Player[][]
- turn: Turn
+ Game()
+ createPlayers(int): void
~ createMemento(): Memento
~ set(Memento): void
- createCopyOfPlayers(Player[], Board): Player[]
+ isBoardComplete(): boolean
+ putTokenPlayerFromTurn(Coordinate): void
+ moveTokenPlayerFromTurn(Coordinate[]): void
+ getTypeOfTokenPlayerFromTurn(): PlayerType
+ getPutCoordinateError(Coordinate): Error
+ getMoveOriginCoordinateError(Coordinate): Error
+ getMoveTargetCoordinateError(Coordinate, Coordinate): Error
+ getToken(Coordinate): Token
+ changeTurn(): void
+ isTicTacToe(): boolean
+ getValueFromTurn(): int
+ newGame(): void
}
tictactoe.models.Game *-down-> tictactoe.models.Board
tictactoe.models.Game *-down-> tictactoe.models.Player
tictactoe.models.Game *-down-> tictactoe.models.Turn
tictactoe.models.Game ..> tictactoe.models.Memento

class  tictactoe.models.Memento{
- board: Board
- players: Player[][]
- turn: Turn
+ Memento(Board, Player[], Turn)
+ getBoard(): Board
~ getPlayers(): Player[]
~ getTurn(): Turn
}
tictactoe.models.Memento *-down-> tictactoe.models.Board
tictactoe.models.Memento *-down-> tictactoe.models.Player
tictactoe.models.Memento *-down-> tictactoe.models.Turn

class  tictactoe.models.Player{
- token: Token
- board: Board
- type: PlayerType
+ Player(Token, Board, PlayerType)
+ getType(): PlayerType
~ getToken(): Token
~ put(Coordinate): void
~ move(Coordinate[]): void
+ getPutCoordinateError(Coordinate): Error
+ getMoveOriginCoordinateError(Coordinate): Error
+ getMoveTargetCoordinateError(Coordinate, Coordinate): Error
}
tictactoe.models.Player *-down-> tictactoe.models.Board
tictactoe.models.Player ..> tictactoe.models.Coordinate

class  tictactoe.models.Registry{
- mementoList: ArrayList<Memento>
- game: Game
- firstPrevious: int
~ Registry(Game)
~ registry(): void
~ redo(Game): void
~ undoable(): boolean
~ redoable(): boolean
~ reset(): void
}
tictactoe.models.Registry *-down-> tictactoe.models.Game
tictactoe.models.Registry *-down-> tictactoe.models.Memento
tictactoe.models.Registry *-down-> java.util.ArrayList

class  tictactoe.models.Session{
- state: State
- game: Game
- registry: Registry
- tcpip: TCPIP
+ Session(TCPIP)
+ next(): void
+ undoable(): boolean
+ redoable(): boolean
+ undo(): void
+ redo(): void
+ createPlayers(int): void
+ getTypeOfTokenPlayerFromTurn(): PlayerType
+ getErrorsPutCoordinate(Coordinate): Error
+ getErrorsMoveOriginCoordinate(Coordinate): Error
+ getErrorsMoveTargetCoordinate(Coordinate, Coordinate): Error
+ isBoardComplete(): boolean
+ putTokenPlayerFromTurn(Coordinate): void
+ moveTokenPlayerFromTurn(Coordinate[]): void
+ changeTurn(): void
+ getToken(Coordinate): Token
+ isTicTacToe(): boolean
+ getValueFromTurn(): int
+ getValueState(): StateValue
+ newGame(): void
}
tictactoe.models.Session *-down-> tictactoe.models.State
tictactoe.models.Session *-down-> tictactoe.models.Game
tictactoe.models.Session *-down-> tictactoe.models.Registry
tictactoe.models.Session *-down-> utils.TCPIP

class  tictactoe.models.State{
- stateValue: StateValue
+ State()
+ next(): void
+ reset(): void
+ getValueState(): StateValue
}
tictactoe.models.State *-down-> tictactoe.types.StateValue

class  tictactoe.models.Turn{
+ {static} PLAYERS: int
- value: int
- players: Player[]
+ Turn(Player[])
+ Turn(Player[], int)
~ change(): void
~ getPlayer(): Player
~ getValue(): int
- getOtherValue(): int
~ getOtherPlayer(): Player
~ copy(Player[]): Turn
}
tictactoe.models.Turn *-down-> tictactoe.models.Player

@enduml

PlantUML version 1.2020.15(Sun Jun 28 13:39:45 CEST 2020)
(GPL source distribution)
Java Runtime: Java(TM) SE Runtime Environment
JVM: Java HotSpot(TM) 64-Bit Server VM
Default Encoding: windows-1252
Language: es
Country: ES
--></g></svg>