<?xml version="1.0" encoding="UTF-8" standalone="no"?><svg xmlns="http://www.w3.org/2000/svg" xmlns:xlink="http://www.w3.org/1999/xlink" contentScriptType="application/ecmascript" contentStyleType="text/css" height="1143px" preserveAspectRatio="none" style="width:1504px;height:1143px;" version="1.1" viewBox="0 0 1504 1143" width="1504px" zoomAndPan="magnify"><defs><filter height="300%" id="f2r67ercefm4g" width="300%" x="-1" y="-1"><feGaussianBlur result="blurOut" stdDeviation="2.0"/><feColorMatrix in="blurOut" result="blurOut2" type="matrix" values="0 0 0 0 0 0 0 0 0 0 0 0 0 0 0 0 0 0 .4 0"/><feOffset dx="4.0" dy="4.0" in="blurOut2" result="blurOut3"/><feBlend in="SourceGraphic" in2="blurOut3" mode="normal"/></filter></defs><g><!--MD5=[f4e83a21a957c5b9ba9691e6361db36b]
cluster tictactoe.views--><polygon fill="#FFFFFF" filter="url(#f2r67ercefm4g)" points="16,6,128,6,135,29.6094,1038,29.6094,1038,1131,16,1131,16,6" style="stroke: #000000; stroke-width: 1.5;"/><line style="stroke: #000000; stroke-width: 1.5;" x1="16" x2="135" y1="29.6094" y2="29.6094"/><text fill="#000000" font-family="sans-serif" font-size="14" font-weight="bold" lengthAdjust="spacingAndGlyphs" textLength="106" x="20" y="22.5332">tictactoe.views</text><!--MD5=[c52f45833d539af9e29a9d34b8b7302b]
cluster utils--><polygon fill="#FFFFFF" filter="url(#f2r67ercefm4g)" points="1062,683.5,1098,683.5,1105,707.1094,1482,707.1094,1482,783.5,1062,783.5,1062,683.5" style="stroke: #000000; stroke-width: 1.5;"/><line style="stroke: #000000; stroke-width: 1.5;" x1="1062" x2="1105" y1="707.1094" y2="707.1094"/><text fill="#000000" font-family="sans-serif" font-size="14" font-weight="bold" lengthAdjust="spacingAndGlyphs" textLength="30" x="1066" y="700.0332">utils</text><!--MD5=[51cd642fcc96b47682a93d9084d46dec]
cluster tictactoe.models--><polygon fill="#FFFFFF" filter="url(#f2r67ercefm4g)" points="1111,444,1233,444,1240,467.6094,1243,467.6094,1243,544,1111,544,1111,444" style="stroke: #000000; stroke-width: 1.5;"/><line style="stroke: #000000; stroke-width: 1.5;" x1="1111" x2="1240" y1="467.6094" y2="467.6094"/><text fill="#000000" font-family="sans-serif" font-size="14" font-weight="bold" lengthAdjust="spacingAndGlyphs" textLength="116" x="1115" y="460.5332">tictactoe.models</text><!--MD5=[edeafd8e862636cda68e6fb1f68b81b5]
class tictactoe.views.BoardView--><rect fill="#FEFECE" filter="url(#f2r67ercefm4g)" height="117.1797" id="tictactoe.views.BoardView" style="stroke: #A80036; stroke-width: 1.5;" width="201" x="820.5" y="445.5"/><ellipse cx="887.25" cy="461.5" fill="#ADD1B2" rx="11" ry="11" style="stroke: #A80036; stroke-width: 1.0;"/><path d="M890.0156,457.375 Q890.1719,457.1563 890.3594,457.0469 Q890.5469,456.9375 890.7656,456.9375 Q891.1406,456.9375 891.375,457.2031 Q891.6094,457.4531 891.6094,458.0625 L891.6094,459.5156 Q891.6094,460.125 891.375,460.3906 Q891.1406,460.6563 890.7656,460.6563 Q890.4219,460.6563 890.2188,460.4531 Q890.0156,460.2656 889.9063,459.75 Q889.8594,459.3906 889.6719,459.2031 Q889.3438,458.8281 888.7344,458.6094 Q888.125,458.3906 887.5,458.3906 Q886.7344,458.3906 886.0938,458.7188 Q885.4688,459.0469 884.9688,459.7969 Q884.4844,460.5469 884.4844,461.5781 L884.4844,462.6719 Q884.4844,463.9063 885.375,464.7344 Q886.2656,465.5469 887.8594,465.5469 Q888.7969,465.5469 889.4531,465.2969 Q889.8438,465.1406 890.2656,464.7031 Q890.5313,464.4375 890.6719,464.3594 Q890.8281,464.2813 891.0313,464.2813 Q891.3594,464.2813 891.6094,464.5469 Q891.875,464.7969 891.875,465.1406 Q891.875,465.4844 891.5313,465.8906 Q891.0313,466.4688 890.2344,466.7969 Q889.1563,467.25 887.8594,467.25 Q886.3438,467.25 885.1406,466.625 Q884.1563,466.125 883.4688,465.0625 Q882.7813,463.9844 882.7813,462.7031 L882.7813,461.5469 Q882.7813,460.2188 883.3906,459.0781 Q884.0156,457.9219 885.1094,457.3125 Q886.2031,456.6875 887.4375,456.6875 Q888.1719,456.6875 888.8125,456.8594 Q889.4688,457.0156 890.0156,457.375 Z "/><text fill="#000000" font-family="sans-serif" font-size="12" lengthAdjust="spacingAndGlyphs" textLength="59" x="907.75" y="466.4102">BoardView</text><line style="stroke: #A80036; stroke-width: 1.5;" x1="821.5" x2="1020.5" y1="477.5" y2="477.5"/><polygon fill="none" points="831.5,484.5,827.5,490.5,835.5,490.5" style="stroke: #1963A0; stroke-width: 1.0;"/><text fill="#000000" font-family="sans-serif" font-size="11" lengthAdjust="spacingAndGlyphs" textLength="63" x="840.5" y="492.9189">board: Board</text><line style="stroke: #A80036; stroke-width: 1.5;" x1="821.5" x2="1020.5" y1="499.3359" y2="499.3359"/><polygon fill="#4177AF" points="831.5,506.3359,827.5,512.3359,835.5,512.3359" style="stroke: #1963A0; stroke-width: 1.0;"/><text fill="#000000" font-family="sans-serif" font-size="11" lengthAdjust="spacingAndGlyphs" textLength="92" x="840.5" y="514.7549">BoardView(Board)</text><polygon fill="#4177AF" points="831.5,520.1719,827.5,526.1719,835.5,526.1719" style="stroke: #1963A0; stroke-width: 1.0;"/><text fill="#000000" font-family="sans-serif" font-size="11" lengthAdjust="spacingAndGlyphs" textLength="59" x="840.5" y="528.5908">write(): void</text><rect fill="#F24D5C" height="6" style="stroke: #C82930; stroke-width: 1.0;" width="6" x="828.5" y="535.0078"/><text fill="#000000" font-family="sans-serif" font-size="11" lengthAdjust="spacingAndGlyphs" textLength="118" x="840.5" y="542.4268">printRowBoard(int): void</text><rect fill="#F24D5C" height="6" style="stroke: #C82930; stroke-width: 1.0;" width="6" x="828.5" y="548.8438"/><text fill="#000000" font-family="sans-serif" font-size="11" lengthAdjust="spacingAndGlyphs" textLength="175" x="840.5" y="556.2627">printSquareValueBoard(int, int): void</text><!--MD5=[5dff601402b9962ae61c7ab4dc9cae89]
class tictactoe.views.CoordinateView--><rect fill="#FEFECE" filter="url(#f2r67ercefm4g)" height="61.8359" id="tictactoe.views.CoordinateView" style="stroke: #A80036; stroke-width: 1.5;" width="142" x="756" y="876"/><ellipse cx="781.35" cy="892" fill="#ADD1B2" rx="11" ry="11" style="stroke: #A80036; stroke-width: 1.0;"/><path d="M784.1156,887.875 Q784.2719,887.6563 784.4594,887.5469 Q784.6469,887.4375 784.8656,887.4375 Q785.2406,887.4375 785.475,887.7031 Q785.7094,887.9531 785.7094,888.5625 L785.7094,890.0156 Q785.7094,890.625 785.475,890.8906 Q785.2406,891.1563 784.8656,891.1563 Q784.5219,891.1563 784.3188,890.9531 Q784.1156,890.7656 784.0063,890.25 Q783.9594,889.8906 783.7719,889.7031 Q783.4438,889.3281 782.8344,889.1094 Q782.225,888.8906 781.6,888.8906 Q780.8344,888.8906 780.1938,889.2188 Q779.5688,889.5469 779.0688,890.2969 Q778.5844,891.0469 778.5844,892.0781 L778.5844,893.1719 Q778.5844,894.4063 779.475,895.2344 Q780.3656,896.0469 781.9594,896.0469 Q782.8969,896.0469 783.5531,895.7969 Q783.9438,895.6406 784.3656,895.2031 Q784.6313,894.9375 784.7719,894.8594 Q784.9281,894.7813 785.1313,894.7813 Q785.4594,894.7813 785.7094,895.0469 Q785.975,895.2969 785.975,895.6406 Q785.975,895.9844 785.6313,896.3906 Q785.1313,896.9688 784.3344,897.2969 Q783.2563,897.75 781.9594,897.75 Q780.4438,897.75 779.2406,897.125 Q778.2563,896.625 777.5688,895.5625 Q776.8813,894.4844 776.8813,893.2031 L776.8813,892.0469 Q776.8813,890.7188 777.4906,889.5781 Q778.1156,888.4219 779.2094,887.8125 Q780.3031,887.1875 781.5375,887.1875 Q782.2719,887.1875 782.9125,887.3594 Q783.5688,887.5156 784.1156,887.875 Z "/><text fill="#000000" font-family="sans-serif" font-size="12" lengthAdjust="spacingAndGlyphs" textLength="87" x="797.65" y="896.9102">CoordinateView</text><line style="stroke: #A80036; stroke-width: 1.5;" x1="757" x2="897" y1="908" y2="908"/><line style="stroke: #A80036; stroke-width: 1.5;" x1="757" x2="897" y1="916" y2="916"/><polygon fill="#4177AF" points="767,923,763,929,771,929" style="stroke: #1963A0; stroke-width: 1.0;"/><text fill="#000000" font-family="sans-serif" font-size="11" lengthAdjust="spacingAndGlyphs" textLength="116" x="776" y="931.4189">read(String): Coordinate</text><!--MD5=[17799e03bfee0ccb3aa03b93da9c26d6]
class tictactoe.views.ErrorView--><rect fill="#FEFECE" filter="url(#f2r67ercefm4g)" height="103.3438" id="tictactoe.views.ErrorView" style="stroke: #A80036; stroke-width: 1.5;" width="142" x="702" y="1012"/><ellipse cx="742.65" cy="1028" fill="#ADD1B2" rx="11" ry="11" style="stroke: #A80036; stroke-width: 1.0;"/><path d="M745.4156,1023.875 Q745.5719,1023.6563 745.7594,1023.5469 Q745.9469,1023.4375 746.1656,1023.4375 Q746.5406,1023.4375 746.775,1023.7031 Q747.0094,1023.9531 747.0094,1024.5625 L747.0094,1026.0156 Q747.0094,1026.625 746.775,1026.8906 Q746.5406,1027.1563 746.1656,1027.1563 Q745.8219,1027.1563 745.6188,1026.9531 Q745.4156,1026.7656 745.3063,1026.25 Q745.2594,1025.8906 745.0719,1025.7031 Q744.7438,1025.3281 744.1344,1025.1094 Q743.525,1024.8906 742.9,1024.8906 Q742.1344,1024.8906 741.4938,1025.2188 Q740.8688,1025.5469 740.3688,1026.2969 Q739.8844,1027.0469 739.8844,1028.0781 L739.8844,1029.1719 Q739.8844,1030.4063 740.775,1031.2344 Q741.6656,1032.0469 743.2594,1032.0469 Q744.1969,1032.0469 744.8531,1031.7969 Q745.2438,1031.6406 745.6656,1031.2031 Q745.9313,1030.9375 746.0719,1030.8594 Q746.2281,1030.7813 746.4313,1030.7813 Q746.7594,1030.7813 747.0094,1031.0469 Q747.275,1031.2969 747.275,1031.6406 Q747.275,1031.9844 746.9313,1032.3906 Q746.4313,1032.9688 745.6344,1033.2969 Q744.5563,1033.75 743.2594,1033.75 Q741.7438,1033.75 740.5406,1033.125 Q739.5563,1032.625 738.8688,1031.5625 Q738.1813,1030.4844 738.1813,1029.2031 L738.1813,1028.0469 Q738.1813,1026.7188 738.7906,1025.5781 Q739.4156,1024.4219 740.5094,1023.8125 Q741.6031,1023.1875 742.8375,1023.1875 Q743.5719,1023.1875 744.2125,1023.3594 Q744.8688,1023.5156 745.4156,1023.875 Z "/><text fill="#000000" font-family="sans-serif" font-size="12" lengthAdjust="spacingAndGlyphs" textLength="53" x="762.35" y="1032.9102">ErrorView</text><line style="stroke: #A80036; stroke-width: 1.5;" x1="703" x2="843" y1="1044" y2="1044"/><rect fill="none" height="6" style="stroke: #C82930; stroke-width: 1.0;" width="6" x="710" y="1052"/><text fill="#000000" font-family="sans-serif" font-size="11" lengthAdjust="spacingAndGlyphs" text-decoration="underline" textLength="97" x="722" y="1059.4189">MESSAGES: String[]</text><rect fill="none" height="6" style="stroke: #C82930; stroke-width: 1.0;" width="6" x="710" y="1065.8359"/><text fill="#000000" font-family="sans-serif" font-size="11" lengthAdjust="spacingAndGlyphs" textLength="54" x="722" y="1073.2549">error: Error</text><line style="stroke: #A80036; stroke-width: 1.5;" x1="703" x2="843" y1="1079.6719" y2="1079.6719"/><polygon fill="#4177AF" points="713,1086.6719,709,1092.6719,717,1092.6719" style="stroke: #1963A0; stroke-width: 1.0;"/><text fill="#000000" font-family="sans-serif" font-size="11" lengthAdjust="spacingAndGlyphs" textLength="82" x="722" y="1095.0908">ErrorView(Error)</text><polygon fill="#4177AF" points="713,1100.5078,709,1106.5078,717,1106.5078" style="stroke: #1963A0; stroke-width: 1.0;"/><text fill="#000000" font-family="sans-serif" font-size="11" lengthAdjust="spacingAndGlyphs" textLength="116" x="722" y="1108.9268">read(String): Coordinate</text><!--MD5=[a099f42e85b2b91eaa31b246ba25a0b3]
class tictactoe.views.MachinePlayerView--><rect fill="#FEFECE" filter="url(#f2r67ercefm4g)" height="89.5078" id="tictactoe.views.MachinePlayerView" style="stroke: #A80036; stroke-width: 1.5;" width="216" x="340" y="862"/><ellipse cx="390.75" cy="878" fill="#ADD1B2" rx="11" ry="11" style="stroke: #A80036; stroke-width: 1.0;"/><path d="M393.5156,873.875 Q393.6719,873.6563 393.8594,873.5469 Q394.0469,873.4375 394.2656,873.4375 Q394.6406,873.4375 394.875,873.7031 Q395.1094,873.9531 395.1094,874.5625 L395.1094,876.0156 Q395.1094,876.625 394.875,876.8906 Q394.6406,877.1563 394.2656,877.1563 Q393.9219,877.1563 393.7188,876.9531 Q393.5156,876.7656 393.4063,876.25 Q393.3594,875.8906 393.1719,875.7031 Q392.8438,875.3281 392.2344,875.1094 Q391.625,874.8906 391,874.8906 Q390.2344,874.8906 389.5938,875.2188 Q388.9688,875.5469 388.4688,876.2969 Q387.9844,877.0469 387.9844,878.0781 L387.9844,879.1719 Q387.9844,880.4063 388.875,881.2344 Q389.7656,882.0469 391.3594,882.0469 Q392.2969,882.0469 392.9531,881.7969 Q393.3438,881.6406 393.7656,881.2031 Q394.0313,880.9375 394.1719,880.8594 Q394.3281,880.7813 394.5313,880.7813 Q394.8594,880.7813 395.1094,881.0469 Q395.375,881.2969 395.375,881.6406 Q395.375,881.9844 395.0313,882.3906 Q394.5313,882.9688 393.7344,883.2969 Q392.6563,883.75 391.3594,883.75 Q389.8438,883.75 388.6406,883.125 Q387.6563,882.625 386.9688,881.5625 Q386.2813,880.4844 386.2813,879.2031 L386.2813,878.0469 Q386.2813,876.7188 386.8906,875.5781 Q387.5156,874.4219 388.6094,873.8125 Q389.7031,873.1875 390.9375,873.1875 Q391.6719,873.1875 392.3125,873.3594 Q392.9688,873.5156 393.5156,873.875 Z "/><text fill="#000000" font-family="sans-serif" font-size="12" lengthAdjust="spacingAndGlyphs" textLength="106" x="411.25" y="882.9102">MachinePlayerView</text><line style="stroke: #A80036; stroke-width: 1.5;" x1="341" x2="555" y1="894" y2="894"/><line style="stroke: #A80036; stroke-width: 1.5;" x1="341" x2="555" y1="902" y2="902"/><polygon fill="#4177AF" points="351,909,347,915,355,915" style="stroke: #1963A0; stroke-width: 1.0;"/><text fill="#000000" font-family="sans-serif" font-size="11" lengthAdjust="spacingAndGlyphs" textLength="134" x="360" y="917.4189">MachinePlayerView(Player)</text><polygon fill="#4177AF" points="351,922.8359,347,928.8359,355,928.8359" style="stroke: #1963A0; stroke-width: 1.0;"/><text fill="#000000" font-family="sans-serif" font-size="11" lengthAdjust="spacingAndGlyphs" textLength="167" x="360" y="931.2549">readCoordinateToPut(): Coordinate</text><polygon fill="#4177AF" points="351,936.6719,347,942.6719,355,942.6719" style="stroke: #1963A0; stroke-width: 1.0;"/><text fill="#000000" font-family="sans-serif" font-size="11" lengthAdjust="spacingAndGlyphs" textLength="190" x="360" y="945.0908">readCoordinatesToMove(): Coordinate[]</text><!--MD5=[2ae15d20e7f22fd333327d3852982126]
class tictactoe.views.PlayerView--><rect fill="#FEFECE" filter="url(#f2r67ercefm4g)" height="144.8516" id="tictactoe.views.PlayerView" style="stroke: #A80036; stroke-width: 1.5;" width="328" x="32" y="431.5"/><ellipse cx="161.75" cy="447.5" fill="#ADD1B2" rx="11" ry="11" style="stroke: #A80036; stroke-width: 1.0;"/><path d="M164.5156,443.375 Q164.6719,443.1563 164.8594,443.0469 Q165.0469,442.9375 165.2656,442.9375 Q165.6406,442.9375 165.875,443.2031 Q166.1094,443.4531 166.1094,444.0625 L166.1094,445.5156 Q166.1094,446.125 165.875,446.3906 Q165.6406,446.6563 165.2656,446.6563 Q164.9219,446.6563 164.7188,446.4531 Q164.5156,446.2656 164.4063,445.75 Q164.3594,445.3906 164.1719,445.2031 Q163.8438,444.8281 163.2344,444.6094 Q162.625,444.3906 162,444.3906 Q161.2344,444.3906 160.5938,444.7188 Q159.9688,445.0469 159.4688,445.7969 Q158.9844,446.5469 158.9844,447.5781 L158.9844,448.6719 Q158.9844,449.9063 159.875,450.7344 Q160.7656,451.5469 162.3594,451.5469 Q163.2969,451.5469 163.9531,451.2969 Q164.3438,451.1406 164.7656,450.7031 Q165.0313,450.4375 165.1719,450.3594 Q165.3281,450.2813 165.5313,450.2813 Q165.8594,450.2813 166.1094,450.5469 Q166.375,450.7969 166.375,451.1406 Q166.375,451.4844 166.0313,451.8906 Q165.5313,452.4688 164.7344,452.7969 Q163.6563,453.25 162.3594,453.25 Q160.8438,453.25 159.6406,452.625 Q158.6563,452.125 157.9688,451.0625 Q157.2813,449.9844 157.2813,448.7031 L157.2813,447.5469 Q157.2813,446.2188 157.8906,445.0781 Q158.5156,443.9219 159.6094,443.3125 Q160.7031,442.6875 161.9375,442.6875 Q162.6719,442.6875 163.3125,442.8594 Q163.9688,443.0156 164.5156,443.375 Z "/><text fill="#000000" font-family="sans-serif" font-size="12" lengthAdjust="spacingAndGlyphs" textLength="60" x="182.25" y="452.4102">PlayerView</text><line style="stroke: #A80036; stroke-width: 1.5;" x1="33" x2="359" y1="463.5" y2="463.5"/><polygon fill="none" points="43,469.5,47,473.5,43,477.5,39,473.5" style="stroke: #B38D22; stroke-width: 1.0;"/><text fill="#000000" font-family="sans-serif" font-size="11" lengthAdjust="spacingAndGlyphs" textLength="66" x="52" y="478.9189">player: Player</text><line style="stroke: #A80036; stroke-width: 1.5;" x1="33" x2="359" y1="485.3359" y2="485.3359"/><polygon fill="#4177AF" points="43,492.3359,39,498.3359,47,498.3359" style="stroke: #1963A0; stroke-width: 1.0;"/><text fill="#000000" font-family="sans-serif" font-size="11" lengthAdjust="spacingAndGlyphs" textLength="94" x="52" y="500.7549">PlayerView(Player)</text><polygon fill="#4177AF" points="43,506.1719,39,512.1719,47,512.1719" style="stroke: #1963A0; stroke-width: 1.0;"/><text fill="#000000" font-family="sans-serif" font-size="11" font-style="italic" lengthAdjust="spacingAndGlyphs" textLength="173" x="52" y="514.5908">readCoordinateToPut(): Coordinate</text><polygon fill="#4177AF" points="43,520.0078,39,526.0078,47,526.0078" style="stroke: #1963A0; stroke-width: 1.0;"/><text fill="#000000" font-family="sans-serif" font-size="11" font-style="italic" lengthAdjust="spacingAndGlyphs" textLength="195" x="52" y="528.4268">readCoordinatesToMove(): Coordinate[]</text><polygon fill="#4177AF" points="43,533.8438,39,539.8438,47,539.8438" style="stroke: #1963A0; stroke-width: 1.0;"/><text fill="#000000" font-family="sans-serif" font-size="11" lengthAdjust="spacingAndGlyphs" textLength="202" x="52" y="542.2627">getErrorsPutCoordinate(Coordinate): Error</text><polygon fill="#4177AF" points="43,547.6797,39,553.6797,47,553.6797" style="stroke: #1963A0; stroke-width: 1.0;"/><text fill="#000000" font-family="sans-serif" font-size="11" lengthAdjust="spacingAndGlyphs" textLength="241" x="52" y="556.0986">getErrorsMoveOriginCoordinate(Coordinate): Error</text><polygon fill="#4177AF" points="43,561.5156,39,567.5156,47,567.5156" style="stroke: #1963A0; stroke-width: 1.0;"/><text fill="#000000" font-family="sans-serif" font-size="11" lengthAdjust="spacingAndGlyphs" textLength="302" x="52" y="569.9346">getErrorsMoveTargetCoordinate(Coordinate, Coordinate): Error</text><!--MD5=[ac4b0e0875a820e87662d988d53b2072]
class tictactoe.views.MessageView--><rect fill="#FEFECE" filter="url(#f2r67ercefm4g)" height="241.7031" id="tictactoe.views.MessageView" style="stroke: #A80036; stroke-width: 1.5;" width="237" x="548.5" y="383"/><ellipse cx="624.25" cy="399" fill="#ADD1B2" rx="11" ry="11" style="stroke: #A80036; stroke-width: 1.0;"/><path d="M627.0156,394.875 Q627.1719,394.6563 627.3594,394.5469 Q627.5469,394.4375 627.7656,394.4375 Q628.1406,394.4375 628.375,394.7031 Q628.6094,394.9531 628.6094,395.5625 L628.6094,397.0156 Q628.6094,397.625 628.375,397.8906 Q628.1406,398.1563 627.7656,398.1563 Q627.4219,398.1563 627.2188,397.9531 Q627.0156,397.7656 626.9063,397.25 Q626.8594,396.8906 626.6719,396.7031 Q626.3438,396.3281 625.7344,396.1094 Q625.125,395.8906 624.5,395.8906 Q623.7344,395.8906 623.0938,396.2188 Q622.4688,396.5469 621.9688,397.2969 Q621.4844,398.0469 621.4844,399.0781 L621.4844,400.1719 Q621.4844,401.4063 622.375,402.2344 Q623.2656,403.0469 624.8594,403.0469 Q625.7969,403.0469 626.4531,402.7969 Q626.8438,402.6406 627.2656,402.2031 Q627.5313,401.9375 627.6719,401.8594 Q627.8281,401.7813 628.0313,401.7813 Q628.3594,401.7813 628.6094,402.0469 Q628.875,402.2969 628.875,402.6406 Q628.875,402.9844 628.5313,403.3906 Q628.0313,403.9688 627.2344,404.2969 Q626.1563,404.75 624.8594,404.75 Q623.3438,404.75 622.1406,404.125 Q621.1563,403.625 620.4688,402.5625 Q619.7813,401.4844 619.7813,400.2031 L619.7813,399.0469 Q619.7813,397.7188 620.3906,396.5781 Q621.0156,395.4219 622.1094,394.8125 Q623.2031,394.1875 624.4375,394.1875 Q625.1719,394.1875 625.8125,394.3594 Q626.4688,394.5156 627.0156,394.875 Z "/><text fill="#000000" font-family="sans-serif" font-size="12" lengthAdjust="spacingAndGlyphs" textLength="77" x="644.75" y="403.9102">MessageView</text><line style="stroke: #A80036; stroke-width: 1.5;" x1="549.5" x2="784.5" y1="415" y2="415"/><ellipse cx="559.5" cy="426" fill="none" rx="3" ry="3" style="stroke: #038048; stroke-width: 1.0;"/><text fill="#000000" font-family="sans-serif" font-size="11" lengthAdjust="spacingAndGlyphs" textLength="138" x="568.5" y="430.4189">LINE_BREAK: MessageView</text><ellipse cx="559.5" cy="439.8359" fill="none" rx="3" ry="3" style="stroke: #038048; stroke-width: 1.0;"/><text fill="#000000" font-family="sans-serif" font-size="11" lengthAdjust="spacingAndGlyphs" textLength="110" x="568.5" y="444.2549">EMPTY: MessageView</text><ellipse cx="559.5" cy="453.6719" fill="none" rx="3" ry="3" style="stroke: #038048; stroke-width: 1.0;"/><text fill="#000000" font-family="sans-serif" font-size="11" lengthAdjust="spacingAndGlyphs" textLength="139" x="568.5" y="458.0908">SEPARATOR: MessageView</text><ellipse cx="559.5" cy="467.5078" fill="none" rx="3" ry="3" style="stroke: #038048; stroke-width: 1.0;"/><text fill="#000000" font-family="sans-serif" font-size="11" lengthAdjust="spacingAndGlyphs" textLength="211" x="568.5" y="471.9268">VERTICAL_LINE_CENTERED: MessageView</text><ellipse cx="559.5" cy="481.3438" fill="none" rx="3" ry="3" style="stroke: #038048; stroke-width: 1.0;"/><text fill="#000000" font-family="sans-serif" font-size="11" lengthAdjust="spacingAndGlyphs" textLength="183" x="568.5" y="485.7627">VERTICAL_LINE_LEFT: MessageView</text><ellipse cx="559.5" cy="495.1797" fill="none" rx="3" ry="3" style="stroke: #038048; stroke-width: 1.0;"/><text fill="#000000" font-family="sans-serif" font-size="11" lengthAdjust="spacingAndGlyphs" textLength="142" x="568.5" y="499.5986">PLAYER_WIN: MessageView</text><ellipse cx="559.5" cy="509.0156" fill="none" rx="3" ry="3" style="stroke: #038048; stroke-width: 1.0;"/><text fill="#000000" font-family="sans-serif" font-size="11" lengthAdjust="spacingAndGlyphs" textLength="146" x="568.5" y="513.4346">START_GAME: MessageView</text><ellipse cx="559.5" cy="522.8516" fill="none" rx="3" ry="3" style="stroke: #038048; stroke-width: 1.0;"/><text fill="#000000" font-family="sans-serif" font-size="11" lengthAdjust="spacingAndGlyphs" textLength="166" x="568.5" y="527.2705">CHOOSE_PLAYER: MessageView</text><rect fill="none" height="6" style="stroke: #C82930; stroke-width: 1.0;" width="6" x="556.5" y="533.6875"/><text fill="#000000" font-family="sans-serif" font-size="11" lengthAdjust="spacingAndGlyphs" textLength="78" x="568.5" y="541.1064">message: String</text><rect fill="none" height="6" style="stroke: #C82930; stroke-width: 1.0;" width="6" x="556.5" y="547.5234"/><text fill="#000000" font-family="sans-serif" font-size="11" lengthAdjust="spacingAndGlyphs" textLength="83" x="568.5" y="554.9424">console: Console</text><line style="stroke: #A80036; stroke-width: 1.5;" x1="549.5" x2="784.5" y1="561.3594" y2="561.3594"/><rect fill="#F24D5C" height="6" style="stroke: #C82930; stroke-width: 1.0;" width="6" x="556.5" y="569.3594"/><text fill="#000000" font-family="sans-serif" font-size="11" lengthAdjust="spacingAndGlyphs" textLength="106" x="568.5" y="576.7783">MessageView(String)</text><polygon fill="#4177AF" points="559.5,582.1953,555.5,588.1953,563.5,588.1953" style="stroke: #1963A0; stroke-width: 1.0;"/><text fill="#000000" font-family="sans-serif" font-size="11" lengthAdjust="spacingAndGlyphs" textLength="101" x="568.5" y="590.6143">getMessage(): String</text><polygon fill="#4177AF" points="559.5,596.0313,555.5,602.0313,563.5,602.0313" style="stroke: #1963A0; stroke-width: 1.0;"/><text fill="#000000" font-family="sans-serif" font-size="11" lengthAdjust="spacingAndGlyphs" textLength="59" x="568.5" y="604.4502">write(): void</text><polygon fill="#4177AF" points="559.5,609.8672,555.5,615.8672,563.5,615.8672" style="stroke: #1963A0; stroke-width: 1.0;"/><text fill="#000000" font-family="sans-serif" font-size="11" lengthAdjust="spacingAndGlyphs" textLength="67" x="568.5" y="618.2861">writeln(): void</text><!--MD5=[d0ec73423b3bfd3954fbf7197d3af4d8]
class tictactoe.views.PlayView--><rect fill="#FEFECE" filter="url(#f2r67ercefm4g)" height="89.5078" id="tictactoe.views.PlayView" style="stroke: #A80036; stroke-width: 1.5;" width="114" x="585" y="233"/><ellipse cx="614.85" cy="249" fill="#ADD1B2" rx="11" ry="11" style="stroke: #A80036; stroke-width: 1.0;"/><path d="M617.6156,244.875 Q617.7719,244.6563 617.9594,244.5469 Q618.1469,244.4375 618.3656,244.4375 Q618.7406,244.4375 618.975,244.7031 Q619.2094,244.9531 619.2094,245.5625 L619.2094,247.0156 Q619.2094,247.625 618.975,247.8906 Q618.7406,248.1563 618.3656,248.1563 Q618.0219,248.1563 617.8188,247.9531 Q617.6156,247.7656 617.5063,247.25 Q617.4594,246.8906 617.2719,246.7031 Q616.9438,246.3281 616.3344,246.1094 Q615.725,245.8906 615.1,245.8906 Q614.3344,245.8906 613.6938,246.2188 Q613.0688,246.5469 612.5688,247.2969 Q612.0844,248.0469 612.0844,249.0781 L612.0844,250.1719 Q612.0844,251.4063 612.975,252.2344 Q613.8656,253.0469 615.4594,253.0469 Q616.3969,253.0469 617.0531,252.7969 Q617.4438,252.6406 617.8656,252.2031 Q618.1313,251.9375 618.2719,251.8594 Q618.4281,251.7813 618.6313,251.7813 Q618.9594,251.7813 619.2094,252.0469 Q619.475,252.2969 619.475,252.6406 Q619.475,252.9844 619.1313,253.3906 Q618.6313,253.9688 617.8344,254.2969 Q616.7563,254.75 615.4594,254.75 Q613.9438,254.75 612.7406,254.125 Q611.7563,253.625 611.0688,252.5625 Q610.3813,251.4844 610.3813,250.2031 L610.3813,249.0469 Q610.3813,247.7188 610.9906,246.5781 Q611.6156,245.4219 612.7094,244.8125 Q613.8031,244.1875 615.0375,244.1875 Q615.7719,244.1875 616.4125,244.3594 Q617.0688,244.5156 617.6156,244.875 Z "/><text fill="#000000" font-family="sans-serif" font-size="12" lengthAdjust="spacingAndGlyphs" textLength="49" x="632.15" y="253.9102">PlayView</text><line style="stroke: #A80036; stroke-width: 1.5;" x1="586" x2="698" y1="265" y2="265"/><polygon fill="none" points="596,272,592,278,600,278" style="stroke: #1963A0; stroke-width: 1.0;"/><text fill="#000000" font-family="sans-serif" font-size="11" lengthAdjust="spacingAndGlyphs" textLength="60" x="605" y="280.4189">game: Game</text><line style="stroke: #A80036; stroke-width: 1.5;" x1="586" x2="698" y1="286.8359" y2="286.8359"/><polygon fill="#4177AF" points="596,293.8359,592,299.8359,600,299.8359" style="stroke: #1963A0; stroke-width: 1.0;"/><text fill="#000000" font-family="sans-serif" font-size="11" lengthAdjust="spacingAndGlyphs" textLength="82" x="605" y="302.2549">PlayView(Game)</text><polygon fill="#4177AF" points="596,307.6719,592,313.6719,600,313.6719" style="stroke: #1963A0; stroke-width: 1.0;"/><text fill="#000000" font-family="sans-serif" font-size="11" lengthAdjust="spacingAndGlyphs" textLength="88" x="605" y="316.0908">interact(): boolean</text><!--MD5=[973b15c09f519f065f4b28972f0c8773]
class tictactoe.views.ResultView--><rect fill="#FEFECE" filter="url(#f2r67ercefm4g)" height="89.5078" id="tictactoe.views.ResultView" style="stroke: #A80036; stroke-width: 1.5;" width="118" x="734" y="233"/><ellipse cx="759.8" cy="249" fill="#ADD1B2" rx="11" ry="11" style="stroke: #A80036; stroke-width: 1.0;"/><path d="M762.5656,244.875 Q762.7219,244.6563 762.9094,244.5469 Q763.0969,244.4375 763.3156,244.4375 Q763.6906,244.4375 763.925,244.7031 Q764.1594,244.9531 764.1594,245.5625 L764.1594,247.0156 Q764.1594,247.625 763.925,247.8906 Q763.6906,248.1563 763.3156,248.1563 Q762.9719,248.1563 762.7688,247.9531 Q762.5656,247.7656 762.4563,247.25 Q762.4094,246.8906 762.2219,246.7031 Q761.8938,246.3281 761.2844,246.1094 Q760.675,245.8906 760.05,245.8906 Q759.2844,245.8906 758.6438,246.2188 Q758.0188,246.5469 757.5188,247.2969 Q757.0344,248.0469 757.0344,249.0781 L757.0344,250.1719 Q757.0344,251.4063 757.925,252.2344 Q758.8156,253.0469 760.4094,253.0469 Q761.3469,253.0469 762.0031,252.7969 Q762.3938,252.6406 762.8156,252.2031 Q763.0813,251.9375 763.2219,251.8594 Q763.3781,251.7813 763.5813,251.7813 Q763.9094,251.7813 764.1594,252.0469 Q764.425,252.2969 764.425,252.6406 Q764.425,252.9844 764.0813,253.3906 Q763.5813,253.9688 762.7844,254.2969 Q761.7063,254.75 760.4094,254.75 Q758.8938,254.75 757.6906,254.125 Q756.7063,253.625 756.0188,252.5625 Q755.3313,251.4844 755.3313,250.2031 L755.3313,249.0469 Q755.3313,247.7188 755.9406,246.5781 Q756.5656,245.4219 757.6594,244.8125 Q758.7531,244.1875 759.9875,244.1875 Q760.7219,244.1875 761.3625,244.3594 Q762.0188,244.5156 762.5656,244.875 Z "/><text fill="#000000" font-family="sans-serif" font-size="12" lengthAdjust="spacingAndGlyphs" textLength="62" x="776.2" y="253.9102">ResultView</text><line style="stroke: #A80036; stroke-width: 1.5;" x1="735" x2="851" y1="265" y2="265"/><polygon fill="none" points="745,272,741,278,749,278" style="stroke: #1963A0; stroke-width: 1.0;"/><text fill="#000000" font-family="sans-serif" font-size="11" lengthAdjust="spacingAndGlyphs" textLength="60" x="754" y="280.4189">game: Game</text><line style="stroke: #A80036; stroke-width: 1.5;" x1="735" x2="851" y1="286.8359" y2="286.8359"/><polygon fill="#4177AF" points="745,293.8359,741,299.8359,749,299.8359" style="stroke: #1963A0; stroke-width: 1.0;"/><text fill="#000000" font-family="sans-serif" font-size="11" lengthAdjust="spacingAndGlyphs" textLength="92" x="754" y="302.2549">ResultView(Game)</text><polygon fill="#4177AF" points="745,307.6719,741,313.6719,749,313.6719" style="stroke: #1963A0; stroke-width: 1.0;"/><text fill="#000000" font-family="sans-serif" font-size="11" lengthAdjust="spacingAndGlyphs" textLength="70" x="754" y="316.0908">interact(): void</text><!--MD5=[24b5a9b67986ee811680be72c33ee9c1]
class tictactoe.views.TokenView--><rect fill="#FEFECE" filter="url(#f2r67ercefm4g)" height="89.5078" id="tictactoe.views.TokenView" style="stroke: #A80036; stroke-width: 1.5;" width="118" x="395" y="459"/><ellipse cx="421.7" cy="475" fill="#ADD1B2" rx="11" ry="11" style="stroke: #A80036; stroke-width: 1.0;"/><path d="M424.4656,470.875 Q424.6219,470.6563 424.8094,470.5469 Q424.9969,470.4375 425.2156,470.4375 Q425.5906,470.4375 425.825,470.7031 Q426.0594,470.9531 426.0594,471.5625 L426.0594,473.0156 Q426.0594,473.625 425.825,473.8906 Q425.5906,474.1563 425.2156,474.1563 Q424.8719,474.1563 424.6688,473.9531 Q424.4656,473.7656 424.3563,473.25 Q424.3094,472.8906 424.1219,472.7031 Q423.7938,472.3281 423.1844,472.1094 Q422.575,471.8906 421.95,471.8906 Q421.1844,471.8906 420.5438,472.2188 Q419.9188,472.5469 419.4188,473.2969 Q418.9344,474.0469 418.9344,475.0781 L418.9344,476.1719 Q418.9344,477.4063 419.825,478.2344 Q420.7156,479.0469 422.3094,479.0469 Q423.2469,479.0469 423.9031,478.7969 Q424.2938,478.6406 424.7156,478.2031 Q424.9813,477.9375 425.1219,477.8594 Q425.2781,477.7813 425.4813,477.7813 Q425.8094,477.7813 426.0594,478.0469 Q426.325,478.2969 426.325,478.6406 Q426.325,478.9844 425.9813,479.3906 Q425.4813,479.9688 424.6844,480.2969 Q423.6063,480.75 422.3094,480.75 Q420.7938,480.75 419.5906,480.125 Q418.6063,479.625 417.9188,478.5625 Q417.2313,477.4844 417.2313,476.2031 L417.2313,475.0469 Q417.2313,473.7188 417.8406,472.5781 Q418.4656,471.4219 419.5594,470.8125 Q420.6531,470.1875 421.8875,470.1875 Q422.6219,470.1875 423.2625,470.3594 Q423.9188,470.5156 424.4656,470.875 Z "/><text fill="#000000" font-family="sans-serif" font-size="12" lengthAdjust="spacingAndGlyphs" textLength="60" x="438.3" y="479.9102">TokenView</text><line style="stroke: #A80036; stroke-width: 1.5;" x1="396" x2="512" y1="491" y2="491"/><polygon fill="none" points="406,498,402,504,410,504" style="stroke: #1963A0; stroke-width: 1.0;"/><text fill="#000000" font-family="sans-serif" font-size="11" lengthAdjust="spacingAndGlyphs" textLength="61" x="415" y="506.4189">token: Token</text><line style="stroke: #A80036; stroke-width: 1.5;" x1="396" x2="512" y1="512.8359" y2="512.8359"/><polygon fill="#4177AF" points="406,519.8359,402,525.8359,410,525.8359" style="stroke: #1963A0; stroke-width: 1.0;"/><text fill="#000000" font-family="sans-serif" font-size="11" lengthAdjust="spacingAndGlyphs" textLength="92" x="415" y="528.2549">TokenView(Token)</text><polygon fill="#4177AF" points="406,533.6719,402,539.6719,410,539.6719" style="stroke: #1963A0; stroke-width: 1.0;"/><text fill="#000000" font-family="sans-serif" font-size="11" lengthAdjust="spacingAndGlyphs" textLength="59" x="415" y="542.0908">write(): void</text><!--MD5=[50a4c98617440bec164bf073e81d587d]
class tictactoe.views.StartView--><rect fill="#FEFECE" filter="url(#f2r67ercefm4g)" height="89.5078" id="tictactoe.views.StartView" style="stroke: #A80036; stroke-width: 1.5;" width="111" x="887.5" y="233"/><ellipse cx="915.1" cy="249" fill="#ADD1B2" rx="11" ry="11" style="stroke: #A80036; stroke-width: 1.0;"/><path d="M917.8656,244.875 Q918.0219,244.6563 918.2094,244.5469 Q918.3969,244.4375 918.6156,244.4375 Q918.9906,244.4375 919.225,244.7031 Q919.4594,244.9531 919.4594,245.5625 L919.4594,247.0156 Q919.4594,247.625 919.225,247.8906 Q918.9906,248.1563 918.6156,248.1563 Q918.2719,248.1563 918.0688,247.9531 Q917.8656,247.7656 917.7563,247.25 Q917.7094,246.8906 917.5219,246.7031 Q917.1938,246.3281 916.5844,246.1094 Q915.975,245.8906 915.35,245.8906 Q914.5844,245.8906 913.9438,246.2188 Q913.3188,246.5469 912.8188,247.2969 Q912.3344,248.0469 912.3344,249.0781 L912.3344,250.1719 Q912.3344,251.4063 913.225,252.2344 Q914.1156,253.0469 915.7094,253.0469 Q916.6469,253.0469 917.3031,252.7969 Q917.6938,252.6406 918.1156,252.2031 Q918.3813,251.9375 918.5219,251.8594 Q918.6781,251.7813 918.8813,251.7813 Q919.2094,251.7813 919.4594,252.0469 Q919.725,252.2969 919.725,252.6406 Q919.725,252.9844 919.3813,253.3906 Q918.8813,253.9688 918.0844,254.2969 Q917.0063,254.75 915.7094,254.75 Q914.1938,254.75 912.9906,254.125 Q912.0063,253.625 911.3188,252.5625 Q910.6313,251.4844 910.6313,250.2031 L910.6313,249.0469 Q910.6313,247.7188 911.2406,246.5781 Q911.8656,245.4219 912.9594,244.8125 Q914.0531,244.1875 915.2875,244.1875 Q916.0219,244.1875 916.6625,244.3594 Q917.3188,244.5156 917.8656,244.875 Z "/><text fill="#000000" font-family="sans-serif" font-size="12" lengthAdjust="spacingAndGlyphs" textLength="51" x="931.9" y="253.9102">StartView</text><line style="stroke: #A80036; stroke-width: 1.5;" x1="888.5" x2="997.5" y1="265" y2="265"/><polygon fill="none" points="898.5,272,894.5,278,902.5,278" style="stroke: #1963A0; stroke-width: 1.0;"/><text fill="#000000" font-family="sans-serif" font-size="11" lengthAdjust="spacingAndGlyphs" textLength="60" x="907.5" y="280.4189">game: Game</text><line style="stroke: #A80036; stroke-width: 1.5;" x1="888.5" x2="997.5" y1="286.8359" y2="286.8359"/><polygon fill="#4177AF" points="898.5,293.8359,894.5,299.8359,902.5,299.8359" style="stroke: #1963A0; stroke-width: 1.0;"/><text fill="#000000" font-family="sans-serif" font-size="11" lengthAdjust="spacingAndGlyphs" textLength="85" x="907.5" y="302.2549">StartView(Game)</text><polygon fill="#4177AF" points="898.5,307.6719,894.5,313.6719,902.5,313.6719" style="stroke: #1963A0; stroke-width: 1.0;"/><text fill="#000000" font-family="sans-serif" font-size="11" lengthAdjust="spacingAndGlyphs" textLength="70" x="907.5" y="316.0908">interact(): void</text><!--MD5=[4e5fca12f01c5426c188915da515377f]
class tictactoe.views.UserPlayerView--><rect fill="#FEFECE" filter="url(#f2r67ercefm4g)" height="117.1797" id="tictactoe.views.UserPlayerView" style="stroke: #A80036; stroke-width: 1.5;" width="233" x="603.5" y="685"/><ellipse cx="672.25" cy="701" fill="#ADD1B2" rx="11" ry="11" style="stroke: #A80036; stroke-width: 1.0;"/><path d="M675.0156,696.875 Q675.1719,696.6563 675.3594,696.5469 Q675.5469,696.4375 675.7656,696.4375 Q676.1406,696.4375 676.375,696.7031 Q676.6094,696.9531 676.6094,697.5625 L676.6094,699.0156 Q676.6094,699.625 676.375,699.8906 Q676.1406,700.1563 675.7656,700.1563 Q675.4219,700.1563 675.2188,699.9531 Q675.0156,699.7656 674.9063,699.25 Q674.8594,698.8906 674.6719,698.7031 Q674.3438,698.3281 673.7344,698.1094 Q673.125,697.8906 672.5,697.8906 Q671.7344,697.8906 671.0938,698.2188 Q670.4688,698.5469 669.9688,699.2969 Q669.4844,700.0469 669.4844,701.0781 L669.4844,702.1719 Q669.4844,703.4063 670.375,704.2344 Q671.2656,705.0469 672.8594,705.0469 Q673.7969,705.0469 674.4531,704.7969 Q674.8438,704.6406 675.2656,704.2031 Q675.5313,703.9375 675.6719,703.8594 Q675.8281,703.7813 676.0313,703.7813 Q676.3594,703.7813 676.6094,704.0469 Q676.875,704.2969 676.875,704.6406 Q676.875,704.9844 676.5313,705.3906 Q676.0313,705.9688 675.2344,706.2969 Q674.1563,706.75 672.8594,706.75 Q671.3438,706.75 670.1406,706.125 Q669.1563,705.625 668.4688,704.5625 Q667.7813,703.4844 667.7813,702.2031 L667.7813,701.0469 Q667.7813,699.7188 668.3906,698.5781 Q669.0156,697.4219 670.1094,696.8125 Q671.2031,696.1875 672.4375,696.1875 Q673.1719,696.1875 673.8125,696.3594 Q674.4688,696.5156 675.0156,696.875 Z "/><text fill="#000000" font-family="sans-serif" font-size="12" lengthAdjust="spacingAndGlyphs" textLength="87" x="692.75" y="705.9102">UserPlayerView</text><line style="stroke: #A80036; stroke-width: 1.5;" x1="604.5" x2="835.5" y1="717" y2="717"/><polygon fill="none" points="614.5,724,610.5,730,618.5,730" style="stroke: #1963A0; stroke-width: 1.0;"/><text fill="#000000" font-family="sans-serif" font-size="11" lengthAdjust="spacingAndGlyphs" text-decoration="underline" textLength="183" x="623.5" y="732.4189">ENTER_COORDINATE_TO_PUT: String</text><polygon fill="none" points="614.5,737.8359,610.5,743.8359,618.5,743.8359" style="stroke: #1963A0; stroke-width: 1.0;"/><text fill="#000000" font-family="sans-serif" font-size="11" lengthAdjust="spacingAndGlyphs" text-decoration="underline" textLength="207" x="623.5" y="746.2549">ENTER_COORDINATE_TO_REMOVE: String</text><line style="stroke: #A80036; stroke-width: 1.5;" x1="604.5" x2="835.5" y1="752.6719" y2="752.6719"/><polygon fill="#4177AF" points="614.5,759.6719,610.5,765.6719,618.5,765.6719" style="stroke: #1963A0; stroke-width: 1.0;"/><text fill="#000000" font-family="sans-serif" font-size="11" lengthAdjust="spacingAndGlyphs" textLength="117" x="623.5" y="768.0908">UserPlayerView(Player)</text><polygon fill="#4177AF" points="614.5,773.5078,610.5,779.5078,618.5,779.5078" style="stroke: #1963A0; stroke-width: 1.0;"/><text fill="#000000" font-family="sans-serif" font-size="11" lengthAdjust="spacingAndGlyphs" textLength="167" x="623.5" y="781.9268">readCoordinateToPut(): Coordinate</text><polygon fill="#4177AF" points="614.5,787.3438,610.5,793.3438,618.5,793.3438" style="stroke: #1963A0; stroke-width: 1.0;"/><text fill="#000000" font-family="sans-serif" font-size="11" lengthAdjust="spacingAndGlyphs" textLength="190" x="623.5" y="795.7627">readCoordinatesToMove(): Coordinate[]</text><!--MD5=[015754420c4cdd9bacda884b3fa8c6ca]
class tictactoe.views.View--><rect fill="#FEFECE" filter="url(#f2r67ercefm4g)" height="131.0156" id="tictactoe.views.View" style="stroke: #A80036; stroke-width: 1.5;" width="144" x="796" y="42"/><ellipse cx="850.75" cy="58" fill="#ADD1B2" rx="11" ry="11" style="stroke: #A80036; stroke-width: 1.0;"/><path d="M853.5156,53.875 Q853.6719,53.6563 853.8594,53.5469 Q854.0469,53.4375 854.2656,53.4375 Q854.6406,53.4375 854.875,53.7031 Q855.1094,53.9531 855.1094,54.5625 L855.1094,56.0156 Q855.1094,56.625 854.875,56.8906 Q854.6406,57.1563 854.2656,57.1563 Q853.9219,57.1563 853.7188,56.9531 Q853.5156,56.7656 853.4063,56.25 Q853.3594,55.8906 853.1719,55.7031 Q852.8438,55.3281 852.2344,55.1094 Q851.625,54.8906 851,54.8906 Q850.2344,54.8906 849.5938,55.2188 Q848.9688,55.5469 848.4688,56.2969 Q847.9844,57.0469 847.9844,58.0781 L847.9844,59.1719 Q847.9844,60.4063 848.875,61.2344 Q849.7656,62.0469 851.3594,62.0469 Q852.2969,62.0469 852.9531,61.7969 Q853.3438,61.6406 853.7656,61.2031 Q854.0313,60.9375 854.1719,60.8594 Q854.3281,60.7813 854.5313,60.7813 Q854.8594,60.7813 855.1094,61.0469 Q855.375,61.2969 855.375,61.6406 Q855.375,61.9844 855.0313,62.3906 Q854.5313,62.9688 853.7344,63.2969 Q852.6563,63.75 851.3594,63.75 Q849.8438,63.75 848.6406,63.125 Q847.6563,62.625 846.9688,61.5625 Q846.2813,60.4844 846.2813,59.2031 L846.2813,58.0469 Q846.2813,56.7188 846.8906,55.5781 Q847.5156,54.4219 848.6094,53.8125 Q849.7031,53.1875 850.9375,53.1875 Q851.6719,53.1875 852.3125,53.3594 Q852.9688,53.5156 853.5156,53.875 Z "/><text fill="#000000" font-family="sans-serif" font-size="12" lengthAdjust="spacingAndGlyphs" textLength="26" x="871.25" y="62.9102">View</text><line style="stroke: #A80036; stroke-width: 1.5;" x1="797" x2="939" y1="74" y2="74"/><polygon fill="none" points="807,80,811,84,807,88,803,84" style="stroke: #B38D22; stroke-width: 1.0;"/><text fill="#000000" font-family="sans-serif" font-size="11" lengthAdjust="spacingAndGlyphs" textLength="60" x="816" y="89.4189">game: Game</text><rect fill="none" height="6" style="stroke: #C82930; stroke-width: 1.0;" width="6" x="804" y="95.8359"/><text fill="#000000" font-family="sans-serif" font-size="11" lengthAdjust="spacingAndGlyphs" textLength="103" x="816" y="103.2549">startView: StartView</text><rect fill="none" height="6" style="stroke: #C82930; stroke-width: 1.0;" width="6" x="804" y="109.6719"/><text fill="#000000" font-family="sans-serif" font-size="11" lengthAdjust="spacingAndGlyphs" textLength="98" x="816" y="117.0908">playView: PlayView</text><rect fill="none" height="6" style="stroke: #C82930; stroke-width: 1.0;" width="6" x="804" y="123.5078"/><text fill="#000000" font-family="sans-serif" font-size="11" lengthAdjust="spacingAndGlyphs" textLength="118" x="816" y="130.9268">ResultView: ResultView</text><line style="stroke: #A80036; stroke-width: 1.5;" x1="797" x2="939" y1="137.3438" y2="137.3438"/><ellipse cx="807" cy="148.3438" fill="#84BE84" rx="3" ry="3" style="stroke: #038048; stroke-width: 1.0;"/><text fill="#000000" font-family="sans-serif" font-size="11" lengthAdjust="spacingAndGlyphs" textLength="62" x="816" y="152.7627">View(Game)</text><ellipse cx="807" cy="162.1797" fill="#84BE84" rx="3" ry="3" style="stroke: #038048; stroke-width: 1.0;"/><text fill="#000000" font-family="sans-serif" font-size="11" lengthAdjust="spacingAndGlyphs" textLength="70" x="816" y="166.5986">interact(): void</text><!--MD5=[2dcb8e10b6e8b78f41f52f48677e1ea3]
class utils.WithConsoleView--><rect fill="#FEFECE" filter="url(#f2r67ercefm4g)" height="48" id="utils.WithConsoleView" style="stroke: #A80036; stroke-width: 1.5;" width="129" x="1078.5" y="719.5"/><ellipse cx="1093.5" cy="735.5" fill="#ADD1B2" rx="11" ry="11" style="stroke: #A80036; stroke-width: 1.0;"/><path d="M1096.2656,731.375 Q1096.4219,731.1563 1096.6094,731.0469 Q1096.7969,730.9375 1097.0156,730.9375 Q1097.3906,730.9375 1097.625,731.2031 Q1097.8594,731.4531 1097.8594,732.0625 L1097.8594,733.5156 Q1097.8594,734.125 1097.625,734.3906 Q1097.3906,734.6563 1097.0156,734.6563 Q1096.6719,734.6563 1096.4688,734.4531 Q1096.2656,734.2656 1096.1563,733.75 Q1096.1094,733.3906 1095.9219,733.2031 Q1095.5938,732.8281 1094.9844,732.6094 Q1094.375,732.3906 1093.75,732.3906 Q1092.9844,732.3906 1092.3438,732.7188 Q1091.7188,733.0469 1091.2188,733.7969 Q1090.7344,734.5469 1090.7344,735.5781 L1090.7344,736.6719 Q1090.7344,737.9063 1091.625,738.7344 Q1092.5156,739.5469 1094.1094,739.5469 Q1095.0469,739.5469 1095.7031,739.2969 Q1096.0938,739.1406 1096.5156,738.7031 Q1096.7813,738.4375 1096.9219,738.3594 Q1097.0781,738.2813 1097.2813,738.2813 Q1097.6094,738.2813 1097.8594,738.5469 Q1098.125,738.7969 1098.125,739.1406 Q1098.125,739.4844 1097.7813,739.8906 Q1097.2813,740.4688 1096.4844,740.7969 Q1095.4063,741.25 1094.1094,741.25 Q1092.5938,741.25 1091.3906,740.625 Q1090.4063,740.125 1089.7188,739.0625 Q1089.0313,737.9844 1089.0313,736.7031 L1089.0313,735.5469 Q1089.0313,734.2188 1089.6406,733.0781 Q1090.2656,731.9219 1091.3594,731.3125 Q1092.4531,730.6875 1093.6875,730.6875 Q1094.4219,730.6875 1095.0625,730.8594 Q1095.7188,731.0156 1096.2656,731.375 Z "/><text fill="#000000" font-family="sans-serif" font-size="12" lengthAdjust="spacingAndGlyphs" textLength="97" x="1107.5" y="740.4102">WithConsoleView</text><line style="stroke: #A80036; stroke-width: 1.5;" x1="1079.5" x2="1206.5" y1="751.5" y2="751.5"/><line style="stroke: #A80036; stroke-width: 1.5;" x1="1079.5" x2="1206.5" y1="759.5" y2="759.5"/><!--MD5=[8af4fdb787b135b7271f9ce04b92f747]
class utils.Console--><rect fill="#FEFECE" filter="url(#f2r67ercefm4g)" height="48" id="utils.Console" style="stroke: #A80036; stroke-width: 1.5;" width="79" x="1242.5" y="719.5"/><ellipse cx="1257.5" cy="735.5" fill="#ADD1B2" rx="11" ry="11" style="stroke: #A80036; stroke-width: 1.0;"/><path d="M1260.2656,731.375 Q1260.4219,731.1563 1260.6094,731.0469 Q1260.7969,730.9375 1261.0156,730.9375 Q1261.3906,730.9375 1261.625,731.2031 Q1261.8594,731.4531 1261.8594,732.0625 L1261.8594,733.5156 Q1261.8594,734.125 1261.625,734.3906 Q1261.3906,734.6563 1261.0156,734.6563 Q1260.6719,734.6563 1260.4688,734.4531 Q1260.2656,734.2656 1260.1563,733.75 Q1260.1094,733.3906 1259.9219,733.2031 Q1259.5938,732.8281 1258.9844,732.6094 Q1258.375,732.3906 1257.75,732.3906 Q1256.9844,732.3906 1256.3438,732.7188 Q1255.7188,733.0469 1255.2188,733.7969 Q1254.7344,734.5469 1254.7344,735.5781 L1254.7344,736.6719 Q1254.7344,737.9063 1255.625,738.7344 Q1256.5156,739.5469 1258.1094,739.5469 Q1259.0469,739.5469 1259.7031,739.2969 Q1260.0938,739.1406 1260.5156,738.7031 Q1260.7813,738.4375 1260.9219,738.3594 Q1261.0781,738.2813 1261.2813,738.2813 Q1261.6094,738.2813 1261.8594,738.5469 Q1262.125,738.7969 1262.125,739.1406 Q1262.125,739.4844 1261.7813,739.8906 Q1261.2813,740.4688 1260.4844,740.7969 Q1259.4063,741.25 1258.1094,741.25 Q1256.5938,741.25 1255.3906,740.625 Q1254.4063,740.125 1253.7188,739.0625 Q1253.0313,737.9844 1253.0313,736.7031 L1253.0313,735.5469 Q1253.0313,734.2188 1253.6406,733.0781 Q1254.2656,731.9219 1255.3594,731.3125 Q1256.4531,730.6875 1257.6875,730.6875 Q1258.4219,730.6875 1259.0625,730.8594 Q1259.7188,731.0156 1260.2656,731.375 Z "/><text fill="#000000" font-family="sans-serif" font-size="12" lengthAdjust="spacingAndGlyphs" textLength="47" x="1271.5" y="740.4102">Console</text><line style="stroke: #A80036; stroke-width: 1.5;" x1="1243.5" x2="1320.5" y1="751.5" y2="751.5"/><line style="stroke: #A80036; stroke-width: 1.5;" x1="1243.5" x2="1320.5" y1="759.5" y2="759.5"/><!--MD5=[55e41f1e5a8b39b15e1066bc4af42afb]
class utils.PlayersDialog--><rect fill="#FEFECE" filter="url(#f2r67ercefm4g)" height="48" id="utils.PlayersDialog" style="stroke: #A80036; stroke-width: 1.5;" width="109" x="1356.5" y="719.5"/><ellipse cx="1371.5" cy="735.5" fill="#ADD1B2" rx="11" ry="11" style="stroke: #A80036; stroke-width: 1.0;"/><path d="M1374.2656,731.375 Q1374.4219,731.1563 1374.6094,731.0469 Q1374.7969,730.9375 1375.0156,730.9375 Q1375.3906,730.9375 1375.625,731.2031 Q1375.8594,731.4531 1375.8594,732.0625 L1375.8594,733.5156 Q1375.8594,734.125 1375.625,734.3906 Q1375.3906,734.6563 1375.0156,734.6563 Q1374.6719,734.6563 1374.4688,734.4531 Q1374.2656,734.2656 1374.1563,733.75 Q1374.1094,733.3906 1373.9219,733.2031 Q1373.5938,732.8281 1372.9844,732.6094 Q1372.375,732.3906 1371.75,732.3906 Q1370.9844,732.3906 1370.3438,732.7188 Q1369.7188,733.0469 1369.2188,733.7969 Q1368.7344,734.5469 1368.7344,735.5781 L1368.7344,736.6719 Q1368.7344,737.9063 1369.625,738.7344 Q1370.5156,739.5469 1372.1094,739.5469 Q1373.0469,739.5469 1373.7031,739.2969 Q1374.0938,739.1406 1374.5156,738.7031 Q1374.7813,738.4375 1374.9219,738.3594 Q1375.0781,738.2813 1375.2813,738.2813 Q1375.6094,738.2813 1375.8594,738.5469 Q1376.125,738.7969 1376.125,739.1406 Q1376.125,739.4844 1375.7813,739.8906 Q1375.2813,740.4688 1374.4844,740.7969 Q1373.4063,741.25 1372.1094,741.25 Q1370.5938,741.25 1369.3906,740.625 Q1368.4063,740.125 1367.7188,739.0625 Q1367.0313,737.9844 1367.0313,736.7031 L1367.0313,735.5469 Q1367.0313,734.2188 1367.6406,733.0781 Q1368.2656,731.9219 1369.3594,731.3125 Q1370.4531,730.6875 1371.6875,730.6875 Q1372.4219,730.6875 1373.0625,730.8594 Q1373.7188,731.0156 1374.2656,731.375 Z "/><text fill="#000000" font-family="sans-serif" font-size="12" lengthAdjust="spacingAndGlyphs" textLength="77" x="1385.5" y="740.4102">PlayersDialog</text><line style="stroke: #A80036; stroke-width: 1.5;" x1="1357.5" x2="1464.5" y1="751.5" y2="751.5"/><line style="stroke: #A80036; stroke-width: 1.5;" x1="1357.5" x2="1464.5" y1="759.5" y2="759.5"/><!--MD5=[8d3188f3c370ea7d5d91d12bca83b67a]
class tictactoe.models.Game--><rect fill="#FEFECE" filter="url(#f2r67ercefm4g)" height="48" id="tictactoe.models.Game" style="stroke: #A80036; stroke-width: 1.5;" width="66" x="1128" y="480"/><ellipse cx="1143" cy="496" fill="#ADD1B2" rx="11" ry="11" style="stroke: #A80036; stroke-width: 1.0;"/><path d="M1145.7656,491.875 Q1145.9219,491.6563 1146.1094,491.5469 Q1146.2969,491.4375 1146.5156,491.4375 Q1146.8906,491.4375 1147.125,491.7031 Q1147.3594,491.9531 1147.3594,492.5625 L1147.3594,494.0156 Q1147.3594,494.625 1147.125,494.8906 Q1146.8906,495.1563 1146.5156,495.1563 Q1146.1719,495.1563 1145.9688,494.9531 Q1145.7656,494.7656 1145.6563,494.25 Q1145.6094,493.8906 1145.4219,493.7031 Q1145.0938,493.3281 1144.4844,493.1094 Q1143.875,492.8906 1143.25,492.8906 Q1142.4844,492.8906 1141.8438,493.2188 Q1141.2188,493.5469 1140.7188,494.2969 Q1140.2344,495.0469 1140.2344,496.0781 L1140.2344,497.1719 Q1140.2344,498.4063 1141.125,499.2344 Q1142.0156,500.0469 1143.6094,500.0469 Q1144.5469,500.0469 1145.2031,499.7969 Q1145.5938,499.6406 1146.0156,499.2031 Q1146.2813,498.9375 1146.4219,498.8594 Q1146.5781,498.7813 1146.7813,498.7813 Q1147.1094,498.7813 1147.3594,499.0469 Q1147.625,499.2969 1147.625,499.6406 Q1147.625,499.9844 1147.2813,500.3906 Q1146.7813,500.9688 1145.9844,501.2969 Q1144.9063,501.75 1143.6094,501.75 Q1142.0938,501.75 1140.8906,501.125 Q1139.9063,500.625 1139.2188,499.5625 Q1138.5313,498.4844 1138.5313,497.2031 L1138.5313,496.0469 Q1138.5313,494.7188 1139.1406,493.5781 Q1139.7656,492.4219 1140.8594,491.8125 Q1141.9531,491.1875 1143.1875,491.1875 Q1143.9219,491.1875 1144.5625,491.3594 Q1145.2188,491.5156 1145.7656,491.875 Z "/><text fill="#000000" font-family="sans-serif" font-size="12" lengthAdjust="spacingAndGlyphs" textLength="34" x="1157" y="500.9102">Game</text><line style="stroke: #A80036; stroke-width: 1.5;" x1="1129" x2="1193" y1="512" y2="512"/><line style="stroke: #A80036; stroke-width: 1.5;" x1="1129" x2="1193" y1="520" y2="520"/><!--MD5=[0078aa0d9a37798fa4eeae0c6b944122]
reverse link utils.WithConsoleView to tictactoe.views.CoordinateView--><path d="M1084.24,777.258 C1069.23,785.465 1053.08,794.161 1038,802 C988.54,827.717 931.836,855.577 889.675,875.983 " fill="none" id="utils.WithConsoleView&lt;-tictactoe.views.CoordinateView" style="stroke: #A80036; stroke-width: 1.0;"/><polygon fill="none" points="1080.93,771.089,1101.83,767.58,1087.68,783.355,1080.93,771.089" style="stroke: #A80036; stroke-width: 1.0;"/><!--MD5=[4b31c31b5e3724f6ae6047fba7d06c34]
link tictactoe.views.CoordinateView to tictactoe.views.ErrorView--><path d="M816.46,938.156 C809.64,957.668 800.555,983.663 792.454,1006.839 " fill="none" id="tictactoe.views.CoordinateView-&gt;tictactoe.views.ErrorView" style="stroke: #A80036; stroke-width: 1.0; stroke-dasharray: 7.0,7.0;"/><polygon fill="#A80036" points="790.742,1011.739,797.4879,1004.5631,792.392,1007.0191,789.936,1001.9232,790.742,1011.739" style="stroke: #A80036; stroke-width: 1.0;"/><!--MD5=[c8438395dc74a82079568b570bbee462]
reverse link utils.WithConsoleView to tictactoe.views.ErrorView--><path d="M1104.21,781.493 C1059.49,823.744 983.337,894.461 915,952 C891.105,972.12 864.21,993.382 840.306,1011.824 " fill="none" id="utils.WithConsoleView&lt;-tictactoe.views.ErrorView" style="stroke: #A80036; stroke-width: 1.0;"/><polygon fill="none" points="1099.59,776.225,1118.92,767.548,1109.22,786.386,1099.59,776.225" style="stroke: #A80036; stroke-width: 1.0;"/><!--MD5=[20e81308c0403a45c4e97f8c1df924ce]
reverse link tictactoe.views.PlayerView to tictactoe.views.MachinePlayerView--><path d="M251.819,593.822 C304.051,676.938 379.91,797.651 420.285,861.898 " fill="none" id="tictactoe.views.PlayerView&lt;-tictactoe.views.MachinePlayerView" style="stroke: #A80036; stroke-width: 1.0;"/><polygon fill="none" points="245.767,597.349,241.053,576.691,257.621,589.9,245.767,597.349" style="stroke: #A80036; stroke-width: 1.0;"/><!--MD5=[f9c315c096834f768787d21fa9159728]
link tictactoe.views.MachinePlayerView to tictactoe.views.ErrorView--><path d="M540.697,952.067 C590.216,975.608 650.413,1004.224 697.12,1026.428 " fill="none" id="tictactoe.views.MachinePlayerView-&gt;tictactoe.views.ErrorView" style="stroke: #A80036; stroke-width: 1.0; stroke-dasharray: 7.0,7.0;"/><polygon fill="#A80036" points="701.884,1028.692,695.4717,1021.2165,697.3679,1026.5461,692.0383,1028.4423,701.884,1028.692" style="stroke: #A80036; stroke-width: 1.0;"/><!--MD5=[0ad3c58d95a8180d95833dfe832d13d7]
link tictactoe.views.MessageView to utils.Console--><path d="M785.567,616.117 C791.289,619.377 797.109,622.362 803,625 C975.397,702.203 1058.55,586.188 1225,675.5 C1241.83,684.531 1255.82,700.728 1265.73,714.934 " fill="none" id="tictactoe.views.MessageView-&gt;utils.Console" style="stroke: #A80036; stroke-width: 1.0; stroke-dasharray: 7.0,7.0;"/><polygon fill="#A80036" points="1268.67,719.269,1266.9306,709.5749,1265.8643,715.1304,1260.3089,714.0641,1268.67,719.269" style="stroke: #A80036; stroke-width: 1.0;"/><!--MD5=[ce514773479788e4563c803901aa0e8a]
link tictactoe.views.PlayView to tictactoe.models.Game--><path d="M699.196,315.611 C704.752,318.369 710.405,320.892 716,323 C852.226,374.327 908.785,315.953 1038,383 C1081.16,405.395 1119.22,447.914 1141.18,475.855 " fill="none" id="tictactoe.views.PlayView-&gt;tictactoe.models.Game" style="stroke: #A80036; stroke-width: 1.0; stroke-dasharray: 7.0,7.0;"/><polygon fill="#A80036" points="1144.3,479.868,1141.9269,470.3093,1141.2282,475.9229,1135.6147,475.2242,1144.3,479.868" style="stroke: #A80036; stroke-width: 1.0;"/><!--MD5=[ed2f2162f6705e4efea2048dc683c831]
link tictactoe.views.PlayView to tictactoe.views.PlayerView--><path d="M584.904,297.474 C530.178,316.087 445.946,347.131 377,383 C351.39,396.324 324.907,412.413 300.365,428.421 " fill="none" id="tictactoe.views.PlayView-&gt;tictactoe.views.PlayerView" style="stroke: #A80036; stroke-width: 1.0; stroke-dasharray: 7.0,7.0;"/><polygon fill="#A80036" points="296.125,431.197,305.8454,429.6114,300.3075,428.4572,301.4617,422.9194,296.125,431.197" style="stroke: #A80036; stroke-width: 1.0;"/><!--MD5=[96500f088718d150f81ca6b75f442d06]
link tictactoe.views.ResultView to tictactoe.models.Game--><path d="M852.146,314.171 C858.105,317.298 864.125,320.298 870,323 C942.032,356.13 970.742,341.016 1038,383 C1078.52,408.296 1116.48,448.895 1139.22,475.757 " fill="none" id="tictactoe.views.ResultView-&gt;tictactoe.models.Game" style="stroke: #A80036; stroke-width: 1.0; stroke-dasharray: 7.0,7.0;"/><polygon fill="#A80036" points="1142.46,479.618,1139.7171,470.1588,1139.2372,475.7953,1133.6007,475.3153,1142.46,479.618" style="stroke: #A80036; stroke-width: 1.0;"/><!--MD5=[c036dee113f5971567d9d64c949bd867]
link tictactoe.views.ResultView to tictactoe.views.TokenView--><path d="M733.936,314.353 C727.96,317.443 721.914,320.385 716,323 C636.947,357.961 599.446,330.211 531,383 C506.919,401.572 488.218,429.955 475.279,454.455 " fill="none" id="tictactoe.views.ResultView-&gt;tictactoe.views.TokenView" style="stroke: #A80036; stroke-width: 1.0; stroke-dasharray: 7.0,7.0;"/><polygon fill="#A80036" points="472.93,458.981,480.6262,452.8354,475.2333,454.5431,473.5255,449.1502,472.93,458.981" style="stroke: #A80036; stroke-width: 1.0;"/><!--MD5=[f07945de84a5d4a2de4970820f01fc75]
link tictactoe.views.ResultView to tictactoe.views.MessageView--><path d="M768.106,323.255 C759.038,339.376 748.283,358.496 737.227,378.152 " fill="none" id="tictactoe.views.ResultView-&gt;tictactoe.views.MessageView" style="stroke: #A80036; stroke-width: 1.0; stroke-dasharray: 7.0,7.0;"/><polygon fill="#A80036" points="734.714,382.619,742.6124,376.7355,737.1651,378.261,735.6396,372.8137,734.714,382.619" style="stroke: #A80036; stroke-width: 1.0;"/><!--MD5=[38c294e5e74476c7cee307f42d87ec6f]
link tictactoe.views.StartView to tictactoe.models.Game--><path d="M998.792,306.164 C1031.73,324.353 1072.43,350.833 1101,383 C1125.17,410.217 1142.19,448.922 1151.78,474.948 " fill="none" id="tictactoe.views.StartView-&gt;tictactoe.models.Game" style="stroke: #A80036; stroke-width: 1.0; stroke-dasharray: 7.0,7.0;"/><polygon fill="#A80036" points="1153.49,479.654,1154.185,469.8297,1151.7868,474.953,1146.6635,472.5548,1153.49,479.654" style="stroke: #A80036; stroke-width: 1.0;"/><!--MD5=[e124272f5de4a434599cfb00bc237fb9]
link tictactoe.views.StartView to utils.PlayersDialog--><path d="M991.923,323.002 C1008.8,340.309 1026.56,361.24 1039,383 C1094.74,480.538 1029.67,548.558 1112,625 C1187.74,695.327 1247.52,627.391 1339,675.5 C1357.79,685.38 1375.31,701.464 1388.36,715.396 " fill="none" id="tictactoe.views.StartView-&gt;utils.PlayersDialog" style="stroke: #A80036; stroke-width: 1.0; stroke-dasharray: 7.0,7.0;"/><polygon fill="#A80036" points="1391.92,719.262,1388.7734,709.9293,1388.536,715.5812,1382.8841,715.3438,1391.92,719.262" style="stroke: #A80036; stroke-width: 1.0;"/><!--MD5=[b594307ff552a83d04fdaea87608a81f]
link tictactoe.views.StartView to tictactoe.views.BoardView--><path d="M938.654,323.255 C935.383,356.553 930.856,402.647 927.205,439.82 " fill="none" id="tictactoe.views.StartView-&gt;tictactoe.views.BoardView" style="stroke: #A80036; stroke-width: 1.0; stroke-dasharray: 7.0,7.0;"/><polygon fill="#A80036" points="926.673,445.237,931.5331,436.6708,927.1615,440.2609,923.5714,435.8893,926.673,445.237" style="stroke: #A80036; stroke-width: 1.0;"/><!--MD5=[acc41e7aa9beecc5caef020a4c923094]
link tictactoe.views.StartView to tictactoe.views.MessageView--><path d="M887.332,318.699 C861.323,337.665 830.172,360.985 803,383 C798.508,386.639 793.961,390.374 789.39,394.171 " fill="none" id="tictactoe.views.StartView-&gt;tictactoe.views.MessageView" style="stroke: #A80036; stroke-width: 1.0; stroke-dasharray: 7.0,7.0;"/><polygon fill="#A80036" points="785.545,397.375,795.0196,394.6859,789.386,394.1739,789.8979,388.5403,785.545,397.375" style="stroke: #A80036; stroke-width: 1.0;"/><!--MD5=[49bda9faf8a8e0ab629e1a0ab5e7f26c]
reverse link utils.WithConsoleView to tictactoe.views.TokenView--><path d="M1098.79,707.756 C1080.89,695.493 1059.41,682.921 1038,675.5 C824.037,601.346 724.078,743.321 531,625 C502.824,607.733 483.095,575.842 470.665,549.274 " fill="none" id="utils.WithConsoleView&lt;-tictactoe.views.TokenView" style="stroke: #A80036; stroke-width: 1.0;"/><polygon fill="none" points="1102.92,702.102,1115.05,719.476,1094.73,713.46,1102.92,702.102" style="stroke: #A80036; stroke-width: 1.0;"/><!--MD5=[1e5f7c56ba0966e4189ee9d4368bbc75]
reverse link tictactoe.views.PlayerView to tictactoe.views.UserPlayerView--><path d="M311.111,587.573 C332.46,601.064 354.983,614.154 377,625 C449.558,660.745 535.696,690.21 603.499,710.694 " fill="none" id="tictactoe.views.PlayerView&lt;-tictactoe.views.UserPlayerView" style="stroke: #A80036; stroke-width: 1.0;"/><polygon fill="none" points="307.28,593.432,294.274,576.703,314.873,581.67,307.28,593.432" style="stroke: #A80036; stroke-width: 1.0;"/><!--MD5=[4574fdac031bfd32a1af6a2f4dae5e0a]
link tictactoe.views.UserPlayerView to tictactoe.views.CoordinateView--><path d="M758.327,802.349 C773.667,825.502 790.82,851.393 804.147,871.506 " fill="none" id="tictactoe.views.UserPlayerView-&gt;tictactoe.views.CoordinateView" style="stroke: #A80036; stroke-width: 1.0; stroke-dasharray: 7.0,7.0;"/><polygon fill="#A80036" points="806.93,875.708,805.2928,865.9962,804.1681,871.5401,798.6241,870.4153,806.93,875.708" style="stroke: #A80036; stroke-width: 1.0;"/><!--MD5=[658a608cadae7f50017d4f067fcbd3fc]
link tictactoe.views.UserPlayerView to tictactoe.views.ErrorView--><path d="M721.603,802.228 C723.59,844.129 728.039,901.998 738,952 C741.63,970.22 747.193,989.669 752.824,1007.092 " fill="none" id="tictactoe.views.UserPlayerView-&gt;tictactoe.views.ErrorView" style="stroke: #A80036; stroke-width: 1.0; stroke-dasharray: 7.0,7.0;"/><polygon fill="#A80036" points="754.412,1011.95,755.4156,1002.1524,752.8575,1007.1978,747.8121,1004.6397,754.412,1011.95" style="stroke: #A80036; stroke-width: 1.0;"/><!--MD5=[0696a78a81f063c18f1c08fd8fb67371]
link tictactoe.views.View to tictactoe.models.Game--><path d="M949.3815,168.1554 C949.3815,168.1554 996.836,209.945 1016,233 C1078.06,307.656 1125.31,413.046 1147.34,467.438 " fill="none" id="tictactoe.views.View-tictactoe.models.Game" style="stroke: #A80036; stroke-width: 1.0;"/><polygon fill="#A80036" points="1152.27,479.806,1152.6524,469.9646,1150.4183,475.1615,1145.2213,472.9274,1152.27,479.806" style="stroke: #A80036; stroke-width: 1.0;"/><line style="stroke: #A80036; stroke-width: 1.0;" x1="1150.4183" x2="1147.455" y1="475.1615" y2="467.7295"/><polygon fill="#A80036" points="940.092,160.559,942.2046,167.4537,949.3815,168.1554,947.2689,161.2607,940.092,160.559" style="stroke: #A80036; stroke-width: 1.0;"/><!--MD5=[162e61ccfe0c70dae4a3356c790f8713]
link tictactoe.views.View to tictactoe.views.StartView--><path d="M901.661,184.1283 C901.661,184.1283 912.969,209.531 918.023,220.886 " fill="none" id="tictactoe.views.View-tictactoe.views.StartView" style="stroke: #A80036; stroke-width: 1.0;"/><polygon fill="#A80036" points="923.353,232.859,923.3467,223.0101,921.3194,228.2912,916.0383,226.2639,923.353,232.859" style="stroke: #A80036; stroke-width: 1.0;"/><line style="stroke: #A80036; stroke-width: 1.0;" x1="921.3194" x2="918.0665" y1="228.2912" y2="220.9825"/><polygon fill="#A80036" points="896.782,173.165,895.5671,180.273,901.661,184.1283,902.876,177.0203,896.782,173.165" style="stroke: #A80036; stroke-width: 1.0;"/><!--MD5=[b154bf5c27e08267002d89cc620f84e6]
link tictactoe.views.View to tictactoe.views.PlayView--><path d="M786.2502,169.4501 C786.2502,169.4501 733.469,208.803 709.795,226.454 " fill="none" id="tictactoe.views.View-tictactoe.views.PlayView" style="stroke: #A80036; stroke-width: 1.0;"/><polygon fill="#A80036" points="699.159,234.383,708.7653,232.2109,703.1677,231.3946,703.9839,225.797,699.159,234.383" style="stroke: #A80036; stroke-width: 1.0;"/><line style="stroke: #A80036; stroke-width: 1.0;" x1="703.1677" x2="709.5815" y1="231.3946" y2="226.613"/><polygon fill="#A80036" points="795.871,162.278,788.6699,162.6571,786.2502,169.4501,793.4513,169.071,795.871,162.278" style="stroke: #A80036; stroke-width: 1.0;"/><!--MD5=[c0ff314f7f4c61c51e1b0f6f69c0c7b0]
link tictactoe.views.View to tictactoe.views.ResultView--><path d="M834.339,184.1283 C834.339,184.1283 823.031,209.531 817.977,220.886 " fill="none" id="tictactoe.views.View-tictactoe.views.ResultView" style="stroke: #A80036; stroke-width: 1.0;"/><polygon fill="#A80036" points="812.647,232.859,819.9617,226.2639,814.6806,228.2912,812.6533,223.0101,812.647,232.859" style="stroke: #A80036; stroke-width: 1.0;"/><line style="stroke: #A80036; stroke-width: 1.0;" x1="814.6806" x2="817.9335" y1="228.2912" y2="220.9825"/><polygon fill="#A80036" points="839.218,173.165,833.124,177.0203,834.339,184.1283,840.4329,180.273,839.218,173.165" style="stroke: #A80036; stroke-width: 1.0;"/><!--MD5=[c2cd94ed8f2b98b399192521f7d765ef]
@startuml

class  tictactoe.views.BoardView{
~ board: Board
~ BoardView(Board)
~ write(): void
- printRowBoard(int): void
- printSquareValueBoard(int, int): void
}

class  tictactoe.views.CoordinateView{
~ read(String): Coordinate
}
utils.WithConsoleView <|-down- tictactoe.views.CoordinateView
tictactoe.views.CoordinateView ..> tictactoe.views.ErrorView

class  tictactoe.views.ErrorView{
- {static} MESSAGES: String[]
- error: Error
~ ErrorView(Error)
~ read(String): Coordinate
}
utils.WithConsoleView <|-down- tictactoe.views.ErrorView

class  tictactoe.views.MachinePlayerView{
~ MachinePlayerView(Player)
~ readCoordinateToPut(): Coordinate
~ readCoordinatesToMove(): Coordinate[]
}
tictactoe.views.PlayerView <|-down- tictactoe.views.MachinePlayerView
tictactoe.views.MachinePlayerView ..> tictactoe.views.ErrorView

class  tictactoe.views.MessageView{
+ LINE_BREAK: MessageView
+ EMPTY: MessageView
+ SEPARATOR: MessageView
+ VERTICAL_LINE_CENTERED: MessageView
+ VERTICAL_LINE_LEFT: MessageView
+	PLAYER_WIN: MessageView
+	START_GAME: MessageView
+	CHOOSE_PLAYER: MessageView
- message: String
- console: Console
- MessageView(String)
~ getMessage(): String
~ write(): void
~ writeln(): void
}
tictactoe.views.MessageView ..> utils.Console

class  tictactoe.views.PlayerView{
# player: Player
~ PlayerView(Player)
~ {abstract} readCoordinateToPut(): Coordinate
~ {abstract} readCoordinatesToMove(): Coordinate[]
~ getErrorsPutCoordinate(Coordinate): Error
~ getErrorsMoveOriginCoordinate(Coordinate): Error
~ getErrorsMoveTargetCoordinate(Coordinate, Coordinate): Error
}

class  tictactoe.views.PlayView{
~ game: Game
~ PlayView(Game)
~ interact(): boolean
}
tictactoe.views.PlayView ..> tictactoe.models.Game
tictactoe.views.PlayView ..> tictactoe.views.PlayerView

class tictactoe.views.ResultView{
~ game: Game
~ ResultView(Game)
~ interact(): void
}
tictactoe.views.ResultView ..> tictactoe.models.Game
tictactoe.views.ResultView ..> tictactoe.views.TokenView
tictactoe.views.ResultView ..> tictactoe.views.MessageView

class tictactoe.views.StartView{
~ game: Game
~ StartView(Game)
~ interact(): void
}
tictactoe.views.StartView ..> tictactoe.models.Game
tictactoe.views.StartView ..> utils.PlayersDialog
tictactoe.views.StartView ..> tictactoe.views.BoardView
tictactoe.views.StartView ..> tictactoe.views.MessageView

class tictactoe.views.TokenView{
~ token: Token
~ TokenView(Token)
~ write(): void
}
utils.WithConsoleView <|-down- tictactoe.views.TokenView

class  tictactoe.views.UserPlayerView{
~ {static} ENTER_COORDINATE_TO_PUT: String
~ {static} ENTER_COORDINATE_TO_REMOVE: String
~ UserPlayerView(Player)
~ readCoordinateToPut(): Coordinate
~ readCoordinatesToMove(): Coordinate[]
}
tictactoe.views.PlayerView <|-down- tictactoe.views.UserPlayerView
tictactoe.views.UserPlayerView ..> tictactoe.views.CoordinateView
tictactoe.views.UserPlayerView ..> tictactoe.views.ErrorView

class  tictactoe.views.View{
# game: Game
- startView: StartView
- playView: PlayView
- ResultView: ResultView
+ View(Game)
+ interact(): void
}
tictactoe.views.View *-down-> tictactoe.models.Game
tictactoe.views.View *-down-> tictactoe.views.StartView
tictactoe.views.View *-down-> tictactoe.views.PlayView
tictactoe.views.View *-down-> tictactoe.views.ResultView

@enduml

PlantUML version 1.2020.15(Sun Jun 28 13:39:45 CEST 2020)
(GPL source distribution)
Java Runtime: Java(TM) SE Runtime Environment
JVM: Java HotSpot(TM) 64-Bit Server VM
Default Encoding: windows-1252
Language: es
Country: ES
--></g></svg>