<?xml version="1.0" encoding="UTF-8" standalone="no"?><svg xmlns="http://www.w3.org/2000/svg" xmlns:xlink="http://www.w3.org/1999/xlink" contentScriptType="application/ecmascript" contentStyleType="text/css" height="1009px" preserveAspectRatio="none" style="width:2149px;height:1009px;" version="1.1" viewBox="0 0 2149 1009" width="2149px" zoomAndPan="magnify"><defs><filter height="300%" id="fyuj6b0x7yzl8" width="300%" x="-1" y="-1"><feGaussianBlur result="blurOut" stdDeviation="2.0"/><feColorMatrix in="blurOut" result="blurOut2" type="matrix" values="0 0 0 0 0 0 0 0 0 0 0 0 0 0 0 0 0 0 .4 0"/><feOffset dx="4.0" dy="4.0" in="blurOut2" result="blurOut3"/><feBlend in="SourceGraphic" in2="blurOut3" mode="normal"/></filter></defs><g><!--MD5=[c6efd01a6f310cf3950d2522b9f474d7]
cluster tictactoe.views.graphics--><polygon fill="#FFFFFF" filter="url(#fyuj6b0x7yzl8)" points="478.107,130,655.107,130,662.107,153.6094,1428.106,153.6094,1428.106,997,478.107,997,478.107,130" style="stroke: #000000; stroke-width: 1.5;"/><line style="stroke: #000000; stroke-width: 1.5;" x1="478.107" x2="662.107" y1="153.6094" y2="153.6094"/><text fill="#000000" font-family="sans-serif" font-size="14" font-weight="bold" lengthAdjust="spacingAndGlyphs" textLength="171" x="482.107" y="146.5332">tictactoe.views.graphics</text><!--MD5=[535aab4de90d4dfa371a9b40d5438fc3]
cluster javax.swing--><polygon fill="#FFFFFF" filter="url(#fyuj6b0x7yzl8)" points="1452.106,821,1540.106,821,1547.106,844.6094,2127.106,844.6094,2127.106,921,1452.106,921,1452.106,821" style="stroke: #000000; stroke-width: 1.5;"/><line style="stroke: #000000; stroke-width: 1.5;" x1="1452.106" x2="1547.106" y1="844.6094" y2="844.6094"/><text fill="#000000" font-family="sans-serif" font-size="14" font-weight="bold" lengthAdjust="spacingAndGlyphs" textLength="82" x="1456.106" y="837.5332">javax.swing</text><!--MD5=[d63c23c2d4b14118d71bd46d55a646bd]
cluster java.awt.event--><polygon fill="#FFFFFF" filter="url(#fyuj6b0x7yzl8)" points="48.1066,355.5,156.1066,355.5,163.1066,379.1094,454.107,379.1094,454.107,455.5,48.1066,455.5,48.1066,355.5" style="stroke: #000000; stroke-width: 1.5;"/><line style="stroke: #000000; stroke-width: 1.5;" x1="48.1066" x2="163.1066" y1="379.1094" y2="379.1094"/><text fill="#000000" font-family="sans-serif" font-size="14" font-weight="bold" lengthAdjust="spacingAndGlyphs" textLength="102" x="52.1066" y="372.0332">java.awt.event</text><!--MD5=[759bc1a2d1cdb88d67db1361d51b76e0]
cluster java.awt--><polygon fill="#FFFFFF" filter="url(#fyuj6b0x7yzl8)" points="280.107,574.5,343.107,574.5,350.107,598.1094,454.107,598.1094,454.107,674.5,280.107,674.5,280.107,574.5" style="stroke: #000000; stroke-width: 1.5;"/><line style="stroke: #000000; stroke-width: 1.5;" x1="280.107" x2="350.107" y1="598.1094" y2="598.1094"/><text fill="#000000" font-family="sans-serif" font-size="14" font-weight="bold" lengthAdjust="spacingAndGlyphs" textLength="57" x="284.107" y="591.0332">java.awt</text><!--MD5=[f4e83a21a957c5b9ba9691e6361db36b]
cluster tictactoe.views--><polygon fill="#FFFFFF" filter="url(#fyuj6b0x7yzl8)" points="824.107,6,936.107,6,943.107,29.6094,1041.106,29.6094,1041.106,106,824.107,106,824.107,6" style="stroke: #000000; stroke-width: 1.5;"/><line style="stroke: #000000; stroke-width: 1.5;" x1="824.107" x2="943.107" y1="29.6094" y2="29.6094"/><text fill="#000000" font-family="sans-serif" font-size="14" font-weight="bold" lengthAdjust="spacingAndGlyphs" textLength="106" x="828.107" y="22.5332">tictactoe.views</text><!--MD5=[1488acd067cf8477d3fdfc79c98f1c5a]
class tictactoe.views.graphics.BoardView--><rect fill="#FEFECE" filter="url(#fyuj6b0x7yzl8)" height="89.5078" id="tictactoe.views.graphics.BoardView" style="stroke: #A80036; stroke-width: 1.5;" width="231" x="1180.606" y="836"/><ellipse cx="1262.356" cy="852" fill="#ADD1B2" rx="11" ry="11" style="stroke: #A80036; stroke-width: 1.0;"/><path d="M1265.1216,847.875 Q1265.2779,847.6563 1265.4654,847.5469 Q1265.6529,847.4375 1265.8716,847.4375 Q1266.2466,847.4375 1266.481,847.7031 Q1266.7154,847.9531 1266.7154,848.5625 L1266.7154,850.0156 Q1266.7154,850.625 1266.481,850.8906 Q1266.2466,851.1563 1265.8716,851.1563 Q1265.5279,851.1563 1265.3248,850.9531 Q1265.1216,850.7656 1265.0123,850.25 Q1264.9654,849.8906 1264.7779,849.7031 Q1264.4498,849.3281 1263.8404,849.1094 Q1263.231,848.8906 1262.606,848.8906 Q1261.8404,848.8906 1261.1998,849.2188 Q1260.5748,849.5469 1260.0748,850.2969 Q1259.5904,851.0469 1259.5904,852.0781 L1259.5904,853.1719 Q1259.5904,854.4063 1260.481,855.2344 Q1261.3716,856.0469 1262.9654,856.0469 Q1263.9029,856.0469 1264.5591,855.7969 Q1264.9498,855.6406 1265.3716,855.2031 Q1265.6373,854.9375 1265.7779,854.8594 Q1265.9341,854.7813 1266.1373,854.7813 Q1266.4654,854.7813 1266.7154,855.0469 Q1266.981,855.2969 1266.981,855.6406 Q1266.981,855.9844 1266.6373,856.3906 Q1266.1373,856.9688 1265.3404,857.2969 Q1264.2623,857.75 1262.9654,857.75 Q1261.4498,857.75 1260.2466,857.125 Q1259.2623,856.625 1258.5748,855.5625 Q1257.8873,854.4844 1257.8873,853.2031 L1257.8873,852.0469 Q1257.8873,850.7188 1258.4966,849.5781 Q1259.1216,848.4219 1260.2154,847.8125 Q1261.3091,847.1875 1262.5435,847.1875 Q1263.2779,847.1875 1263.9185,847.3594 Q1264.5748,847.5156 1265.1216,847.875 Z "/><text fill="#000000" font-family="sans-serif" font-size="12" lengthAdjust="spacingAndGlyphs" textLength="59" x="1282.856" y="856.9102">BoardView</text><line style="stroke: #A80036; stroke-width: 1.5;" x1="1181.606" x2="1410.606" y1="868" y2="868"/><line style="stroke: #A80036; stroke-width: 1.5;" x1="1181.606" x2="1410.606" y1="876" y2="876"/><polygon fill="#4177AF" points="1191.606,883,1187.606,889,1195.606,889" style="stroke: #1963A0; stroke-width: 1.0;"/><text fill="#000000" font-family="sans-serif" font-size="11" lengthAdjust="spacingAndGlyphs" textLength="92" x="1200.606" y="891.4189">BoardView(Board)</text><rect fill="#F24D5C" height="6" style="stroke: #C82930; stroke-width: 1.0;" width="6" x="1188.606" y="897.8359"/><text fill="#000000" font-family="sans-serif" font-size="11" lengthAdjust="spacingAndGlyphs" textLength="153" x="1200.606" y="905.2549">printRowBoard(Board, int): void</text><rect fill="#F24D5C" height="6" style="stroke: #C82930; stroke-width: 1.0;" width="6" x="1188.606" y="911.6719"/><text fill="#000000" font-family="sans-serif" font-size="11" lengthAdjust="spacingAndGlyphs" textLength="205" x="1200.606" y="919.0908">getSquareBoardText(Board, int, int): String</text><!--MD5=[bf187ea903bc4b15dc6e3ab88f11d3ae]
class tictactoe.views.graphics.ChoosePlayersView--><rect fill="#FEFECE" filter="url(#fyuj6b0x7yzl8)" height="172.5234" id="tictactoe.views.graphics.ChoosePlayersView" style="stroke: #A80036; stroke-width: 1.5;" width="197" x="1205.606" y="548"/><ellipse cx="1244.906" cy="564" fill="#ADD1B2" rx="11" ry="11" style="stroke: #A80036; stroke-width: 1.0;"/><path d="M1247.6716,559.875 Q1247.8279,559.6563 1248.0154,559.5469 Q1248.2029,559.4375 1248.4216,559.4375 Q1248.7966,559.4375 1249.031,559.7031 Q1249.2654,559.9531 1249.2654,560.5625 L1249.2654,562.0156 Q1249.2654,562.625 1249.031,562.8906 Q1248.7966,563.1563 1248.4216,563.1563 Q1248.0779,563.1563 1247.8748,562.9531 Q1247.6716,562.7656 1247.5623,562.25 Q1247.5154,561.8906 1247.3279,561.7031 Q1246.9998,561.3281 1246.3904,561.1094 Q1245.781,560.8906 1245.156,560.8906 Q1244.3904,560.8906 1243.7498,561.2188 Q1243.1248,561.5469 1242.6248,562.2969 Q1242.1404,563.0469 1242.1404,564.0781 L1242.1404,565.1719 Q1242.1404,566.4063 1243.031,567.2344 Q1243.9216,568.0469 1245.5154,568.0469 Q1246.4529,568.0469 1247.1091,567.7969 Q1247.4998,567.6406 1247.9216,567.2031 Q1248.1873,566.9375 1248.3279,566.8594 Q1248.4841,566.7813 1248.6873,566.7813 Q1249.0154,566.7813 1249.2654,567.0469 Q1249.531,567.2969 1249.531,567.6406 Q1249.531,567.9844 1249.1873,568.3906 Q1248.6873,568.9688 1247.8904,569.2969 Q1246.8123,569.75 1245.5154,569.75 Q1243.9998,569.75 1242.7966,569.125 Q1241.8123,568.625 1241.1248,567.5625 Q1240.4373,566.4844 1240.4373,565.2031 L1240.4373,564.0469 Q1240.4373,562.7188 1241.0466,561.5781 Q1241.6716,560.4219 1242.7654,559.8125 Q1243.8591,559.1875 1245.0935,559.1875 Q1245.8279,559.1875 1246.4685,559.3594 Q1247.1248,559.5156 1247.6716,559.875 Z "/><text fill="#000000" font-family="sans-serif" font-size="12" lengthAdjust="spacingAndGlyphs" textLength="111" x="1264.306" y="568.9102">ChoosePlayersView</text><line style="stroke: #A80036; stroke-width: 1.5;" x1="1206.606" x2="1401.606" y1="580" y2="580"/><rect fill="none" height="6" style="stroke: #C82930; stroke-width: 1.0;" width="6" x="1213.606" y="588"/><text fill="#000000" font-family="sans-serif" font-size="11" lengthAdjust="spacingAndGlyphs" text-decoration="underline" textLength="74" x="1225.606" y="595.4189">ACCEPT: String</text><rect fill="none" height="6" style="stroke: #C82930; stroke-width: 1.0;" width="6" x="1213.606" y="601.8359"/><text fill="#000000" font-family="sans-serif" font-size="11" lengthAdjust="spacingAndGlyphs" textLength="59" x="1225.606" y="609.2549">label: JLabel</text><rect fill="none" height="6" style="stroke: #C82930; stroke-width: 1.0;" width="6" x="1213.606" y="615.6719"/><text fill="#000000" font-family="sans-serif" font-size="11" lengthAdjust="spacingAndGlyphs" textLength="94" x="1225.606" y="623.0908">textField: JTextField</text><rect fill="none" height="6" style="stroke: #C82930; stroke-width: 1.0;" width="6" x="1213.606" y="629.5078"/><text fill="#000000" font-family="sans-serif" font-size="11" lengthAdjust="spacingAndGlyphs" textLength="72" x="1225.606" y="636.9268">button: JButton</text><rect fill="none" height="6" style="stroke: #C82930; stroke-width: 1.0;" width="6" x="1213.606" y="643.3438"/><text fill="#000000" font-family="sans-serif" font-size="11" lengthAdjust="spacingAndGlyphs" textLength="107" x="1225.606" y="650.7627">playersNumber: String</text><line style="stroke: #A80036; stroke-width: 1.5;" x1="1206.606" x2="1401.606" y1="657.1797" y2="657.1797"/><polygon fill="#4177AF" points="1216.606,664.1797,1212.606,670.1797,1220.606,670.1797" style="stroke: #1963A0; stroke-width: 1.0;"/><text fill="#000000" font-family="sans-serif" font-size="11" lengthAdjust="spacingAndGlyphs" textLength="158" x="1225.606" y="672.5986">ChoosePlayersView(JRootPane)</text><polygon fill="#4177AF" points="1216.606,678.0156,1212.606,684.0156,1220.606,684.0156" style="stroke: #1963A0; stroke-width: 1.0;"/><text fill="#000000" font-family="sans-serif" font-size="11" lengthAdjust="spacingAndGlyphs" textLength="132" x="1225.606" y="686.4346">resetPlayersNumber(): void</text><polygon fill="#4177AF" points="1216.606,691.8516,1212.606,697.8516,1220.606,697.8516" style="stroke: #1963A0; stroke-width: 1.0;"/><text fill="#000000" font-family="sans-serif" font-size="11" lengthAdjust="spacingAndGlyphs" textLength="130" x="1225.606" y="700.2705">getPlayersNumber(): String</text><ellipse cx="1216.606" cy="709.6875" fill="#84BE84" rx="3" ry="3" style="stroke: #038048; stroke-width: 1.0;"/><text fill="#000000" font-family="sans-serif" font-size="11" lengthAdjust="spacingAndGlyphs" textLength="171" x="1225.606" y="714.1064">actionPerformed(ActionEvent): void</text><!--MD5=[a27bdde19497c0eda453638e91b4b00c]
class tictactoe.views.graphics.Constraints--><rect fill="#FEFECE" filter="url(#fyuj6b0x7yzl8)" height="61.8359" id="tictactoe.views.graphics.Constraints" style="stroke: #A80036; stroke-width: 1.5;" width="151" x="994.607" y="850"/><ellipse cx="1034.357" cy="866" fill="#ADD1B2" rx="11" ry="11" style="stroke: #A80036; stroke-width: 1.0;"/><path d="M1037.1226,861.875 Q1037.2789,861.6563 1037.4664,861.5469 Q1037.6539,861.4375 1037.8726,861.4375 Q1038.2476,861.4375 1038.482,861.7031 Q1038.7164,861.9531 1038.7164,862.5625 L1038.7164,864.0156 Q1038.7164,864.625 1038.482,864.8906 Q1038.2476,865.1563 1037.8726,865.1563 Q1037.5289,865.1563 1037.3258,864.9531 Q1037.1226,864.7656 1037.0133,864.25 Q1036.9664,863.8906 1036.7789,863.7031 Q1036.4508,863.3281 1035.8414,863.1094 Q1035.232,862.8906 1034.607,862.8906 Q1033.8414,862.8906 1033.2008,863.2188 Q1032.5758,863.5469 1032.0758,864.2969 Q1031.5914,865.0469 1031.5914,866.0781 L1031.5914,867.1719 Q1031.5914,868.4063 1032.482,869.2344 Q1033.3726,870.0469 1034.9664,870.0469 Q1035.9039,870.0469 1036.5601,869.7969 Q1036.9508,869.6406 1037.3726,869.2031 Q1037.6383,868.9375 1037.7789,868.8594 Q1037.9351,868.7813 1038.1383,868.7813 Q1038.4664,868.7813 1038.7164,869.0469 Q1038.982,869.2969 1038.982,869.6406 Q1038.982,869.9844 1038.6383,870.3906 Q1038.1383,870.9688 1037.3414,871.2969 Q1036.2633,871.75 1034.9664,871.75 Q1033.4508,871.75 1032.2476,871.125 Q1031.2633,870.625 1030.5758,869.5625 Q1029.8883,868.4844 1029.8883,867.2031 L1029.8883,866.0469 Q1029.8883,864.7188 1030.4976,863.5781 Q1031.1226,862.4219 1032.2164,861.8125 Q1033.3101,861.1875 1034.5445,861.1875 Q1035.2789,861.1875 1035.9195,861.3594 Q1036.5758,861.5156 1037.1226,861.875 Z "/><text fill="#000000" font-family="sans-serif" font-size="12" lengthAdjust="spacingAndGlyphs" textLength="64" x="1053.857" y="870.9102">Constraints</text><line style="stroke: #A80036; stroke-width: 1.5;" x1="995.607" x2="1144.607" y1="882" y2="882"/><line style="stroke: #A80036; stroke-width: 1.5;" x1="995.607" x2="1144.607" y1="890" y2="890"/><polygon fill="#4177AF" points="1005.607,897,1001.607,903,1009.607,903" style="stroke: #1963A0; stroke-width: 1.0;"/><text fill="#000000" font-family="sans-serif" font-size="11" lengthAdjust="spacingAndGlyphs" textLength="125" x="1014.607" y="905.4189">Constraints(int, int, int, int)</text><!--MD5=[2f24f05233341c14cf3ecc7d9f75747f]
class tictactoe.views.graphics.CoordinateMoveView--><rect fill="#FEFECE" filter="url(#fyuj6b0x7yzl8)" height="200.1953" id="tictactoe.views.graphics.CoordinateMoveView" style="stroke: #A80036; stroke-width: 1.5;" width="233" x="494.607" y="781"/><ellipse cx="549.357" cy="797" fill="#ADD1B2" rx="11" ry="11" style="stroke: #A80036; stroke-width: 1.0;"/><path d="M552.1226,792.875 Q552.2789,792.6563 552.4664,792.5469 Q552.6539,792.4375 552.8726,792.4375 Q553.2476,792.4375 553.482,792.7031 Q553.7164,792.9531 553.7164,793.5625 L553.7164,795.0156 Q553.7164,795.625 553.482,795.8906 Q553.2476,796.1563 552.8726,796.1563 Q552.5289,796.1563 552.3258,795.9531 Q552.1226,795.7656 552.0133,795.25 Q551.9664,794.8906 551.7789,794.7031 Q551.4508,794.3281 550.8414,794.1094 Q550.232,793.8906 549.607,793.8906 Q548.8414,793.8906 548.2008,794.2188 Q547.5758,794.5469 547.0758,795.2969 Q546.5914,796.0469 546.5914,797.0781 L546.5914,798.1719 Q546.5914,799.4063 547.482,800.2344 Q548.3726,801.0469 549.9664,801.0469 Q550.9039,801.0469 551.5601,800.7969 Q551.9508,800.6406 552.3726,800.2031 Q552.6383,799.9375 552.7789,799.8594 Q552.9351,799.7813 553.1383,799.7813 Q553.4664,799.7813 553.7164,800.0469 Q553.982,800.2969 553.982,800.6406 Q553.982,800.9844 553.6383,801.3906 Q553.1383,801.9688 552.3414,802.2969 Q551.2633,802.75 549.9664,802.75 Q548.4508,802.75 547.2476,802.125 Q546.2633,801.625 545.5758,800.5625 Q544.8883,799.4844 544.8883,798.2031 L544.8883,797.0469 Q544.8883,795.7188 545.4976,794.5781 Q546.1226,793.4219 547.2164,792.8125 Q548.3101,792.1875 549.5445,792.1875 Q550.2789,792.1875 550.9195,792.3594 Q551.5758,792.5156 552.1226,792.875 Z "/><text fill="#000000" font-family="sans-serif" font-size="12" lengthAdjust="spacingAndGlyphs" textLength="115" x="569.857" y="801.9102">CoordinateMoveView</text><line style="stroke: #A80036; stroke-width: 1.5;" x1="495.607" x2="726.607" y1="813" y2="813"/><rect fill="none" height="6" style="stroke: #C82930; stroke-width: 1.0;" width="6" x="502.607" y="821"/><text fill="#000000" font-family="sans-serif" font-size="11" lengthAdjust="spacingAndGlyphs" text-decoration="underline" textLength="207" x="514.607" y="828.4189">ENTER_COORDINATE_TO_REMOVE: String</text><rect fill="none" height="6" style="stroke: #C82930; stroke-width: 1.0;" width="6" x="502.607" y="834.8359"/><text fill="#000000" font-family="sans-serif" font-size="11" lengthAdjust="spacingAndGlyphs" textLength="120" x="514.607" y="842.2549">labelRowToMove: JLabel</text><rect fill="none" height="6" style="stroke: #C82930; stroke-width: 1.0;" width="6" x="502.607" y="848.6719"/><text fill="#000000" font-family="sans-serif" font-size="11" lengthAdjust="spacingAndGlyphs" textLength="132" x="514.607" y="856.0908">labelColumnToMove: JLabel</text><rect fill="none" height="6" style="stroke: #C82930; stroke-width: 1.0;" width="6" x="502.607" y="862.5078"/><text fill="#000000" font-family="sans-serif" font-size="11" lengthAdjust="spacingAndGlyphs" textLength="117" x="514.607" y="869.9268">titleLabelToMove: JLabel</text><rect fill="none" height="6" style="stroke: #C82930; stroke-width: 1.0;" width="6" x="502.607" y="876.3438"/><text fill="#000000" font-family="sans-serif" font-size="11" lengthAdjust="spacingAndGlyphs" textLength="155" x="514.607" y="883.7627">textFieldRowToMove: JTextField</text><rect fill="none" height="6" style="stroke: #C82930; stroke-width: 1.0;" width="6" x="502.607" y="890.1797"/><text fill="#000000" font-family="sans-serif" font-size="11" lengthAdjust="spacingAndGlyphs" textLength="167" x="514.607" y="897.5986">textFieldColumnToMove: JTextField</text><rect fill="none" height="6" style="stroke: #C82930; stroke-width: 1.0;" width="6" x="502.607" y="904.0156"/><text fill="#000000" font-family="sans-serif" font-size="11" lengthAdjust="spacingAndGlyphs" textLength="121" x="514.607" y="911.4346">coordinates: Coordinate[]</text><line style="stroke: #A80036; stroke-width: 1.5;" x1="495.607" x2="726.607" y1="917.8516" y2="917.8516"/><polygon fill="#4177AF" points="505.607,924.8516,501.607,930.8516,509.607,930.8516" style="stroke: #1963A0; stroke-width: 1.0;"/><text fill="#000000" font-family="sans-serif" font-size="11" lengthAdjust="spacingAndGlyphs" textLength="112" x="514.607" y="933.2705">CoordinateMoveView()</text><polygon fill="#4177AF" points="505.607,938.6875,501.607,944.6875,509.607,944.6875" style="stroke: #1963A0; stroke-width: 1.0;"/><text fill="#000000" font-family="sans-serif" font-size="11" lengthAdjust="spacingAndGlyphs" textLength="117" x="514.607" y="947.1064">resetCoordinates(): void</text><polygon fill="#4177AF" points="505.607,952.5234,501.607,958.5234,509.607,958.5234" style="stroke: #1963A0; stroke-width: 1.0;"/><text fill="#000000" font-family="sans-serif" font-size="11" lengthAdjust="spacingAndGlyphs" textLength="145" x="514.607" y="960.9424">getCoordinates(): Coordinate[]</text><ellipse cx="505.607" cy="970.3594" fill="#84BE84" rx="3" ry="3" style="stroke: #038048; stroke-width: 1.0;"/><text fill="#000000" font-family="sans-serif" font-size="11" lengthAdjust="spacingAndGlyphs" textLength="171" x="514.607" y="974.7783">actionPerformed(ActionEvent): void</text><!--MD5=[3eb81655dffb9cd825c31d070d9c4ca7]
class tictactoe.views.graphics.CoordinateView--><rect fill="#FEFECE" filter="url(#fyuj6b0x7yzl8)" height="172.5234" id="tictactoe.views.graphics.CoordinateView" style="stroke: #A80036; stroke-width: 1.5;" width="209" x="845.607" y="548"/><ellipse cx="902.357" cy="564" fill="#ADD1B2" rx="11" ry="11" style="stroke: #A80036; stroke-width: 1.0;"/><path d="M905.1226,559.875 Q905.2789,559.6563 905.4664,559.5469 Q905.6539,559.4375 905.8726,559.4375 Q906.2476,559.4375 906.482,559.7031 Q906.7164,559.9531 906.7164,560.5625 L906.7164,562.0156 Q906.7164,562.625 906.482,562.8906 Q906.2476,563.1563 905.8726,563.1563 Q905.5289,563.1563 905.3258,562.9531 Q905.1226,562.7656 905.0133,562.25 Q904.9664,561.8906 904.7789,561.7031 Q904.4508,561.3281 903.8414,561.1094 Q903.232,560.8906 902.607,560.8906 Q901.8414,560.8906 901.2008,561.2188 Q900.5758,561.5469 900.0758,562.2969 Q899.5914,563.0469 899.5914,564.0781 L899.5914,565.1719 Q899.5914,566.4063 900.482,567.2344 Q901.3726,568.0469 902.9664,568.0469 Q903.9039,568.0469 904.5601,567.7969 Q904.9508,567.6406 905.3726,567.2031 Q905.6383,566.9375 905.7789,566.8594 Q905.9351,566.7813 906.1383,566.7813 Q906.4664,566.7813 906.7164,567.0469 Q906.982,567.2969 906.982,567.6406 Q906.982,567.9844 906.6383,568.3906 Q906.1383,568.9688 905.3414,569.2969 Q904.2633,569.75 902.9664,569.75 Q901.4508,569.75 900.2476,569.125 Q899.2633,568.625 898.5758,567.5625 Q897.8883,566.4844 897.8883,565.2031 L897.8883,564.0469 Q897.8883,562.7188 898.4976,561.5781 Q899.1226,560.4219 900.2164,559.8125 Q901.3101,559.1875 902.5445,559.1875 Q903.2789,559.1875 903.9195,559.3594 Q904.5758,559.5156 905.1226,559.875 Z "/><text fill="#000000" font-family="sans-serif" font-size="12" lengthAdjust="spacingAndGlyphs" textLength="87" x="922.857" y="568.9102">CoordinateView</text><line style="stroke: #A80036; stroke-width: 1.5;" x1="846.607" x2="1053.607" y1="580" y2="580"/><polygon fill="none" points="856.607,586,860.607,590,856.607,594,852.607,590" style="stroke: #B38D22; stroke-width: 1.0;"/><text fill="#000000" font-family="sans-serif" font-size="11" lengthAdjust="spacingAndGlyphs" text-decoration="underline" textLength="183" x="865.607" y="595.4189">ENTER_COORDINATE_TO_PUT: String</text><polygon fill="none" points="856.607,599.8359,860.607,603.8359,856.607,607.8359,852.607,603.8359" style="stroke: #B38D22; stroke-width: 1.0;"/><text fill="#000000" font-family="sans-serif" font-size="11" lengthAdjust="spacingAndGlyphs" text-decoration="underline" textLength="74" x="865.607" y="609.2549">ACCEPT: String</text><polygon fill="none" points="856.607,613.6719,860.607,617.6719,856.607,621.6719,852.607,617.6719" style="stroke: #B38D22; stroke-width: 1.0;"/><text fill="#000000" font-family="sans-serif" font-size="11" lengthAdjust="spacingAndGlyphs" textLength="82" x="865.607" y="623.0908">labelRow: JLabel</text><polygon fill="none" points="856.607,627.5078,860.607,631.5078,856.607,635.5078,852.607,631.5078" style="stroke: #B38D22; stroke-width: 1.0;"/><text fill="#000000" font-family="sans-serif" font-size="11" lengthAdjust="spacingAndGlyphs" textLength="94" x="865.607" y="636.9268">labelColumn: JLabel</text><polygon fill="none" points="856.607,641.3438,860.607,645.3438,856.607,649.3438,852.607,645.3438" style="stroke: #B38D22; stroke-width: 1.0;"/><text fill="#000000" font-family="sans-serif" font-size="11" lengthAdjust="spacingAndGlyphs" textLength="79" x="865.607" y="650.7627">titleLabel: JLabel</text><polygon fill="none" points="856.607,655.1797,860.607,659.1797,856.607,663.1797,852.607,659.1797" style="stroke: #B38D22; stroke-width: 1.0;"/><text fill="#000000" font-family="sans-serif" font-size="11" lengthAdjust="spacingAndGlyphs" textLength="117" x="865.607" y="664.5986">textFieldRow: JTextField</text><polygon fill="none" points="856.607,669.0156,860.607,673.0156,856.607,677.0156,852.607,673.0156" style="stroke: #B38D22; stroke-width: 1.0;"/><text fill="#000000" font-family="sans-serif" font-size="11" lengthAdjust="spacingAndGlyphs" textLength="129" x="865.607" y="678.4346">textFieldColumn: JTextField</text><polygon fill="none" points="856.607,682.8516,860.607,686.8516,856.607,690.8516,852.607,686.8516" style="stroke: #B38D22; stroke-width: 1.0;"/><text fill="#000000" font-family="sans-serif" font-size="11" lengthAdjust="spacingAndGlyphs" textLength="72" x="865.607" y="692.2705">button: JButton</text><line style="stroke: #A80036; stroke-width: 1.5;" x1="846.607" x2="1053.607" y1="698.6875" y2="698.6875"/><polygon fill="#4177AF" points="856.607,705.6875,852.607,711.6875,860.607,711.6875" style="stroke: #1963A0; stroke-width: 1.0;"/><text fill="#000000" font-family="sans-serif" font-size="11" lengthAdjust="spacingAndGlyphs" textLength="86" x="865.607" y="714.1064">CoordinateView()</text><!--MD5=[98634edf8044393de7f32bab4509065b]
class tictactoe.views.graphics.CoordinatePutView--><rect fill="#FEFECE" filter="url(#fyuj6b0x7yzl8)" height="117.1797" id="tictactoe.views.graphics.CoordinatePutView" style="stroke: #A80036; stroke-width: 1.5;" width="197" x="762.607" y="822.5"/><ellipse cx="804.607" cy="838.5" fill="#ADD1B2" rx="11" ry="11" style="stroke: #A80036; stroke-width: 1.0;"/><path d="M807.3726,834.375 Q807.5289,834.1563 807.7164,834.0469 Q807.9039,833.9375 808.1226,833.9375 Q808.4976,833.9375 808.732,834.2031 Q808.9664,834.4531 808.9664,835.0625 L808.9664,836.5156 Q808.9664,837.125 808.732,837.3906 Q808.4976,837.6563 808.1226,837.6563 Q807.7789,837.6563 807.5758,837.4531 Q807.3726,837.2656 807.2633,836.75 Q807.2164,836.3906 807.0289,836.2031 Q806.7008,835.8281 806.0914,835.6094 Q805.482,835.3906 804.857,835.3906 Q804.0914,835.3906 803.4508,835.7188 Q802.8258,836.0469 802.3258,836.7969 Q801.8414,837.5469 801.8414,838.5781 L801.8414,839.6719 Q801.8414,840.9063 802.732,841.7344 Q803.6226,842.5469 805.2164,842.5469 Q806.1539,842.5469 806.8101,842.2969 Q807.2008,842.1406 807.6226,841.7031 Q807.8883,841.4375 808.0289,841.3594 Q808.1851,841.2813 808.3883,841.2813 Q808.7164,841.2813 808.9664,841.5469 Q809.232,841.7969 809.232,842.1406 Q809.232,842.4844 808.8883,842.8906 Q808.3883,843.4688 807.5914,843.7969 Q806.5133,844.25 805.2164,844.25 Q803.7008,844.25 802.4976,843.625 Q801.5133,843.125 800.8258,842.0625 Q800.1383,840.9844 800.1383,839.7031 L800.1383,838.5469 Q800.1383,837.2188 800.7476,836.0781 Q801.3726,834.9219 802.4664,834.3125 Q803.5601,833.6875 804.7945,833.6875 Q805.5289,833.6875 806.1695,833.8594 Q806.8258,834.0156 807.3726,834.375 Z "/><text fill="#000000" font-family="sans-serif" font-size="12" lengthAdjust="spacingAndGlyphs" textLength="105" x="824.607" y="843.4102">CoordinatePutView</text><line style="stroke: #A80036; stroke-width: 1.5;" x1="763.607" x2="958.607" y1="854.5" y2="854.5"/><rect fill="none" height="6" style="stroke: #C82930; stroke-width: 1.0;" width="6" x="770.607" y="862.5"/><text fill="#000000" font-family="sans-serif" font-size="11" lengthAdjust="spacingAndGlyphs" textLength="121" x="782.607" y="869.9189">coordinates: Coordinate[]</text><line style="stroke: #A80036; stroke-width: 1.5;" x1="763.607" x2="958.607" y1="876.3359" y2="876.3359"/><polygon fill="#4177AF" points="773.607,883.3359,769.607,889.3359,777.607,889.3359" style="stroke: #1963A0; stroke-width: 1.0;"/><text fill="#000000" font-family="sans-serif" font-size="11" lengthAdjust="spacingAndGlyphs" textLength="101" x="782.607" y="891.7549">CoordinatePutView()</text><polygon fill="#4177AF" points="773.607,897.1719,769.607,903.1719,777.607,903.1719" style="stroke: #1963A0; stroke-width: 1.0;"/><text fill="#000000" font-family="sans-serif" font-size="11" lengthAdjust="spacingAndGlyphs" textLength="111" x="782.607" y="905.5908">resetCoordinate(): void</text><polygon fill="#4177AF" points="773.607,911.0078,769.607,917.0078,777.607,917.0078" style="stroke: #1963A0; stroke-width: 1.0;"/><text fill="#000000" font-family="sans-serif" font-size="11" lengthAdjust="spacingAndGlyphs" textLength="133" x="782.607" y="919.4268">getCoordinate(): Coordinate</text><ellipse cx="773.607" cy="928.8438" fill="#84BE84" rx="3" ry="3" style="stroke: #038048; stroke-width: 1.0;"/><text fill="#000000" font-family="sans-serif" font-size="11" lengthAdjust="spacingAndGlyphs" textLength="171" x="782.607" y="933.2627">actionPerformed(ActionEvent): void</text><!--MD5=[d9ac63eb7bc90e7088d49ac170de6ce7]
class tictactoe.views.graphics.GameView--><rect fill="#FEFECE" filter="url(#fyuj6b0x7yzl8)" height="144.8516" id="tictactoe.views.graphics.GameView" style="stroke: #A80036; stroke-width: 1.5;" width="229" x="1054.606" y="343"/><ellipse cx="1134.856" cy="359" fill="#ADD1B2" rx="11" ry="11" style="stroke: #A80036; stroke-width: 1.0;"/><path d="M1137.6216,354.875 Q1137.7779,354.6563 1137.9654,354.5469 Q1138.1529,354.4375 1138.3716,354.4375 Q1138.7466,354.4375 1138.981,354.7031 Q1139.2154,354.9531 1139.2154,355.5625 L1139.2154,357.0156 Q1139.2154,357.625 1138.981,357.8906 Q1138.7466,358.1563 1138.3716,358.1563 Q1138.0279,358.1563 1137.8248,357.9531 Q1137.6216,357.7656 1137.5123,357.25 Q1137.4654,356.8906 1137.2779,356.7031 Q1136.9498,356.3281 1136.3404,356.1094 Q1135.731,355.8906 1135.106,355.8906 Q1134.3404,355.8906 1133.6998,356.2188 Q1133.0748,356.5469 1132.5748,357.2969 Q1132.0904,358.0469 1132.0904,359.0781 L1132.0904,360.1719 Q1132.0904,361.4063 1132.981,362.2344 Q1133.8716,363.0469 1135.4654,363.0469 Q1136.4029,363.0469 1137.0591,362.7969 Q1137.4498,362.6406 1137.8716,362.2031 Q1138.1373,361.9375 1138.2779,361.8594 Q1138.4341,361.7813 1138.6373,361.7813 Q1138.9654,361.7813 1139.2154,362.0469 Q1139.481,362.2969 1139.481,362.6406 Q1139.481,362.9844 1139.1373,363.3906 Q1138.6373,363.9688 1137.8404,364.2969 Q1136.7623,364.75 1135.4654,364.75 Q1133.9498,364.75 1132.7466,364.125 Q1131.7623,363.625 1131.0748,362.5625 Q1130.3873,361.4844 1130.3873,360.2031 L1130.3873,359.0469 Q1130.3873,357.7188 1130.9966,356.5781 Q1131.6216,355.4219 1132.7154,354.8125 Q1133.8091,354.1875 1135.0435,354.1875 Q1135.7779,354.1875 1136.4185,354.3594 Q1137.0748,354.5156 1137.6216,354.875 Z "/><text fill="#000000" font-family="sans-serif" font-size="12" lengthAdjust="spacingAndGlyphs" textLength="60" x="1155.356" y="363.9102">GameView</text><line style="stroke: #A80036; stroke-width: 1.5;" x1="1055.606" x2="1282.606" y1="375" y2="375"/><rect fill="none" height="6" style="stroke: #C82930; stroke-width: 1.0;" width="6" x="1062.606" y="383"/><text fill="#000000" font-family="sans-serif" font-size="11" lengthAdjust="spacingAndGlyphs" text-decoration="underline" textLength="99" x="1074.606" y="390.4189">GAME_OVER: String</text><rect fill="none" height="6" style="stroke: #C82930; stroke-width: 1.0;" width="6" x="1062.606" y="396.8359"/><text fill="#000000" font-family="sans-serif" font-size="11" lengthAdjust="spacingAndGlyphs" textLength="60" x="1074.606" y="404.2549">game: Game</text><rect fill="none" height="6" style="stroke: #C82930; stroke-width: 1.0;" width="6" x="1062.606" y="410.6719"/><text fill="#000000" font-family="sans-serif" font-size="11" lengthAdjust="spacingAndGlyphs" textLength="203" x="1074.606" y="418.0908">choosePlayersView: ChoosePlayersView</text><line style="stroke: #A80036; stroke-width: 1.5;" x1="1055.606" x2="1282.606" y1="424.5078" y2="424.5078"/><polygon fill="#4177AF" points="1065.606,431.5078,1061.606,437.5078,1069.606,437.5078" style="stroke: #1963A0; stroke-width: 1.0;"/><text fill="#000000" font-family="sans-serif" font-size="11" lengthAdjust="spacingAndGlyphs" textLength="90" x="1074.606" y="439.9268">GameView(Game)</text><polygon fill="#4177AF" points="1065.606,445.3438,1061.606,451.3438,1069.606,451.3438" style="stroke: #1963A0; stroke-width: 1.0;"/><text fill="#000000" font-family="sans-serif" font-size="11" lengthAdjust="spacingAndGlyphs" textLength="56" x="1074.606" y="453.7627">start(): void</text><polygon fill="#4177AF" points="1065.606,459.1797,1061.606,465.1797,1069.606,465.1797" style="stroke: #1963A0; stroke-width: 1.0;"/><text fill="#000000" font-family="sans-serif" font-size="11" lengthAdjust="spacingAndGlyphs" textLength="72" x="1074.606" y="467.5986">play(): boolean</text><polygon fill="#4177AF" points="1065.606,473.0156,1061.606,479.0156,1069.606,479.0156" style="stroke: #1963A0; stroke-width: 1.0;"/><text fill="#000000" font-family="sans-serif" font-size="11" lengthAdjust="spacingAndGlyphs" textLength="61" x="1074.606" y="481.4346">result(): void</text><!--MD5=[772dd3201fd937c98b35c61c5b2a37e1]
class tictactoe.views.graphics.GraphicsView--><rect fill="#FEFECE" filter="url(#fyuj6b0x7yzl8)" height="117.1797" id="tictactoe.views.graphics.GraphicsView" style="stroke: #A80036; stroke-width: 1.5;" width="138" x="978.107" y="166"/><ellipse cx="1006.607" cy="182" fill="#ADD1B2" rx="11" ry="11" style="stroke: #A80036; stroke-width: 1.0;"/><path d="M1009.3726,177.875 Q1009.5289,177.6563 1009.7164,177.5469 Q1009.9039,177.4375 1010.1226,177.4375 Q1010.4976,177.4375 1010.732,177.7031 Q1010.9664,177.9531 1010.9664,178.5625 L1010.9664,180.0156 Q1010.9664,180.625 1010.732,180.8906 Q1010.4976,181.1563 1010.1226,181.1563 Q1009.7789,181.1563 1009.5758,180.9531 Q1009.3726,180.7656 1009.2633,180.25 Q1009.2164,179.8906 1009.0289,179.7031 Q1008.7008,179.3281 1008.0914,179.1094 Q1007.482,178.8906 1006.857,178.8906 Q1006.0914,178.8906 1005.4508,179.2188 Q1004.8258,179.5469 1004.3258,180.2969 Q1003.8414,181.0469 1003.8414,182.0781 L1003.8414,183.1719 Q1003.8414,184.4063 1004.732,185.2344 Q1005.6226,186.0469 1007.2164,186.0469 Q1008.1539,186.0469 1008.8101,185.7969 Q1009.2008,185.6406 1009.6226,185.2031 Q1009.8883,184.9375 1010.0289,184.8594 Q1010.1851,184.7813 1010.3883,184.7813 Q1010.7164,184.7813 1010.9664,185.0469 Q1011.232,185.2969 1011.232,185.6406 Q1011.232,185.9844 1010.8883,186.3906 Q1010.3883,186.9688 1009.5914,187.2969 Q1008.5133,187.75 1007.2164,187.75 Q1005.7008,187.75 1004.4976,187.125 Q1003.5133,186.625 1002.8258,185.5625 Q1002.1383,184.4844 1002.1383,183.2031 L1002.1383,182.0469 Q1002.1383,180.7188 1002.7476,179.5781 Q1003.3726,178.4219 1004.4664,177.8125 Q1005.5601,177.1875 1006.7945,177.1875 Q1007.5289,177.1875 1008.1695,177.3594 Q1008.8258,177.5156 1009.3726,177.875 Z "/><text fill="#000000" font-family="sans-serif" font-size="12" lengthAdjust="spacingAndGlyphs" textLength="76" x="1023.607" y="186.9102">GraphicsView</text><line style="stroke: #A80036; stroke-width: 1.5;" x1="979.107" x2="1115.107" y1="198" y2="198"/><rect fill="none" height="6" style="stroke: #C82930; stroke-width: 1.0;" width="6" x="986.107" y="206"/><text fill="#000000" font-family="sans-serif" font-size="11" lengthAdjust="spacingAndGlyphs" textLength="112" x="998.107" y="213.4189">gameView: GameView</text><line style="stroke: #A80036; stroke-width: 1.5;" x1="979.107" x2="1115.107" y1="219.8359" y2="219.8359"/><ellipse cx="989.107" cy="230.8359" fill="#84BE84" rx="3" ry="3" style="stroke: #038048; stroke-width: 1.0;"/><text fill="#000000" font-family="sans-serif" font-size="11" lengthAdjust="spacingAndGlyphs" textLength="106" x="998.107" y="235.2549">GraphicsView(Game)</text><polygon fill="#FFFF44" points="989.107,239.6719,993.107,243.6719,989.107,247.6719,985.107,243.6719" style="stroke: #B38D22; stroke-width: 1.0;"/><text fill="#000000" font-family="sans-serif" font-size="11" lengthAdjust="spacingAndGlyphs" textLength="56" x="998.107" y="249.0908">start(): void</text><polygon fill="#FFFF44" points="989.107,253.5078,993.107,257.5078,989.107,261.5078,985.107,257.5078" style="stroke: #B38D22; stroke-width: 1.0;"/><text fill="#000000" font-family="sans-serif" font-size="11" lengthAdjust="spacingAndGlyphs" textLength="72" x="998.107" y="262.9268">play(): boolean</text><polygon fill="#FFFF44" points="989.107,267.3438,993.107,271.3438,989.107,275.3438,985.107,271.3438" style="stroke: #B38D22; stroke-width: 1.0;"/><text fill="#000000" font-family="sans-serif" font-size="11" lengthAdjust="spacingAndGlyphs" textLength="61" x="998.107" y="276.7627">result(): void</text><!--MD5=[830df04f7779d5ce39b6953cfbe3729d]
class tictactoe.views.graphics.MachinePlayerView--><rect fill="#FEFECE" filter="url(#fyuj6b0x7yzl8)" height="89.5078" id="tictactoe.views.graphics.MachinePlayerView" style="stroke: #A80036; stroke-width: 1.5;" width="216" x="727.107" y="179.5"/><ellipse cx="777.857" cy="195.5" fill="#ADD1B2" rx="11" ry="11" style="stroke: #A80036; stroke-width: 1.0;"/><path d="M780.6226,191.375 Q780.7789,191.1563 780.9664,191.0469 Q781.1539,190.9375 781.3726,190.9375 Q781.7476,190.9375 781.982,191.2031 Q782.2164,191.4531 782.2164,192.0625 L782.2164,193.5156 Q782.2164,194.125 781.982,194.3906 Q781.7476,194.6563 781.3726,194.6563 Q781.0289,194.6563 780.8258,194.4531 Q780.6226,194.2656 780.5133,193.75 Q780.4664,193.3906 780.2789,193.2031 Q779.9508,192.8281 779.3414,192.6094 Q778.732,192.3906 778.107,192.3906 Q777.3414,192.3906 776.7008,192.7188 Q776.0758,193.0469 775.5758,193.7969 Q775.0914,194.5469 775.0914,195.5781 L775.0914,196.6719 Q775.0914,197.9063 775.982,198.7344 Q776.8726,199.5469 778.4664,199.5469 Q779.4039,199.5469 780.0601,199.2969 Q780.4508,199.1406 780.8726,198.7031 Q781.1383,198.4375 781.2789,198.3594 Q781.4351,198.2813 781.6383,198.2813 Q781.9664,198.2813 782.2164,198.5469 Q782.482,198.7969 782.482,199.1406 Q782.482,199.4844 782.1383,199.8906 Q781.6383,200.4688 780.8414,200.7969 Q779.7633,201.25 778.4664,201.25 Q776.9508,201.25 775.7476,200.625 Q774.7633,200.125 774.0758,199.0625 Q773.3883,197.9844 773.3883,196.7031 L773.3883,195.5469 Q773.3883,194.2188 773.9976,193.0781 Q774.6226,191.9219 775.7164,191.3125 Q776.8101,190.6875 778.0445,190.6875 Q778.7789,190.6875 779.4195,190.8594 Q780.0758,191.0156 780.6226,191.375 Z "/><text fill="#000000" font-family="sans-serif" font-size="12" lengthAdjust="spacingAndGlyphs" textLength="106" x="798.357" y="200.4102">MachinePlayerView</text><line style="stroke: #A80036; stroke-width: 1.5;" x1="728.107" x2="942.107" y1="211.5" y2="211.5"/><line style="stroke: #A80036; stroke-width: 1.5;" x1="728.107" x2="942.107" y1="219.5" y2="219.5"/><polygon fill="#4177AF" points="738.107,226.5,734.107,232.5,742.107,232.5" style="stroke: #1963A0; stroke-width: 1.0;"/><text fill="#000000" font-family="sans-serif" font-size="11" lengthAdjust="spacingAndGlyphs" textLength="134" x="747.107" y="234.9189">MachinePlayerView(Player)</text><ellipse cx="738.107" cy="244.3359" fill="#84BE84" rx="3" ry="3" style="stroke: #038048; stroke-width: 1.0;"/><text fill="#000000" font-family="sans-serif" font-size="11" lengthAdjust="spacingAndGlyphs" textLength="167" x="747.107" y="248.7549">readCoordinateToPut(): Coordinate</text><ellipse cx="738.107" cy="258.1719" fill="#84BE84" rx="3" ry="3" style="stroke: #038048; stroke-width: 1.0;"/><text fill="#000000" font-family="sans-serif" font-size="11" lengthAdjust="spacingAndGlyphs" textLength="190" x="747.107" y="262.5908">readCoordinatesToMove(): Coordinate[]</text><!--MD5=[dc2150d6f822712ae93fd291d66241a9]
class tictactoe.views.graphics.UserPlayerView--><rect fill="#FEFECE" filter="url(#fyuj6b0x7yzl8)" height="144.8516" id="tictactoe.views.graphics.UserPlayerView" style="stroke: #A80036; stroke-width: 1.5;" width="239" x="516.607" y="562"/><ellipse cx="588.357" cy="578" fill="#ADD1B2" rx="11" ry="11" style="stroke: #A80036; stroke-width: 1.0;"/><path d="M591.1226,573.875 Q591.2789,573.6563 591.4664,573.5469 Q591.6539,573.4375 591.8726,573.4375 Q592.2476,573.4375 592.482,573.7031 Q592.7164,573.9531 592.7164,574.5625 L592.7164,576.0156 Q592.7164,576.625 592.482,576.8906 Q592.2476,577.1563 591.8726,577.1563 Q591.5289,577.1563 591.3258,576.9531 Q591.1226,576.7656 591.0133,576.25 Q590.9664,575.8906 590.7789,575.7031 Q590.4508,575.3281 589.8414,575.1094 Q589.232,574.8906 588.607,574.8906 Q587.8414,574.8906 587.2008,575.2188 Q586.5758,575.5469 586.0758,576.2969 Q585.5914,577.0469 585.5914,578.0781 L585.5914,579.1719 Q585.5914,580.4063 586.482,581.2344 Q587.3726,582.0469 588.9664,582.0469 Q589.9039,582.0469 590.5601,581.7969 Q590.9508,581.6406 591.3726,581.2031 Q591.6383,580.9375 591.7789,580.8594 Q591.9351,580.7813 592.1383,580.7813 Q592.4664,580.7813 592.7164,581.0469 Q592.982,581.2969 592.982,581.6406 Q592.982,581.9844 592.6383,582.3906 Q592.1383,582.9688 591.3414,583.2969 Q590.2633,583.75 588.9664,583.75 Q587.4508,583.75 586.2476,583.125 Q585.2633,582.625 584.5758,581.5625 Q583.8883,580.4844 583.8883,579.2031 L583.8883,578.0469 Q583.8883,576.7188 584.4976,575.5781 Q585.1226,574.4219 586.2164,573.8125 Q587.3101,573.1875 588.5445,573.1875 Q589.2789,573.1875 589.9195,573.3594 Q590.5758,573.5156 591.1226,573.875 Z "/><text fill="#000000" font-family="sans-serif" font-size="12" lengthAdjust="spacingAndGlyphs" textLength="87" x="608.857" y="582.9102">UserPlayerView</text><line style="stroke: #A80036; stroke-width: 1.5;" x1="517.607" x2="754.607" y1="594" y2="594"/><polygon fill="none" points="527.607,601,523.607,607,531.607,607" style="stroke: #1963A0; stroke-width: 1.0;"/><text fill="#000000" font-family="sans-serif" font-size="11" lengthAdjust="spacingAndGlyphs" text-decoration="underline" textLength="183" x="536.607" y="609.4189">ENTER_COORDINATE_TO_PUT: String</text><polygon fill="none" points="527.607,614.8359,523.607,620.8359,531.607,620.8359" style="stroke: #1963A0; stroke-width: 1.0;"/><text fill="#000000" font-family="sans-serif" font-size="11" lengthAdjust="spacingAndGlyphs" text-decoration="underline" textLength="207" x="536.607" y="623.2549">ENTER_COORDINATE_TO_REMOVE: String</text><polygon fill="none" points="527.607,628.6719,523.607,634.6719,531.607,634.6719" style="stroke: #1963A0; stroke-width: 1.0;"/><text fill="#000000" font-family="sans-serif" font-size="11" lengthAdjust="spacingAndGlyphs" textLength="191" x="536.607" y="637.0908">coordinatePutView: CoordinatePutView</text><polygon fill="none" points="527.607,642.5078,523.607,648.5078,531.607,648.5078" style="stroke: #1963A0; stroke-width: 1.0;"/><text fill="#000000" font-family="sans-serif" font-size="11" lengthAdjust="spacingAndGlyphs" textLength="213" x="536.607" y="650.9268">coordinateMoveView: CoordinateMoveView</text><line style="stroke: #A80036; stroke-width: 1.5;" x1="517.607" x2="754.607" y1="657.3438" y2="657.3438"/><polygon fill="#4177AF" points="527.607,664.3438,523.607,670.3438,531.607,670.3438" style="stroke: #1963A0; stroke-width: 1.0;"/><text fill="#000000" font-family="sans-serif" font-size="11" lengthAdjust="spacingAndGlyphs" textLength="117" x="536.607" y="672.7627">UserPlayerView(Player)</text><ellipse cx="527.607" cy="682.1797" fill="#84BE84" rx="3" ry="3" style="stroke: #038048; stroke-width: 1.0;"/><text fill="#000000" font-family="sans-serif" font-size="11" lengthAdjust="spacingAndGlyphs" textLength="167" x="536.607" y="686.5986">readCoordinateToPut(): Coordinate</text><ellipse cx="527.607" cy="696.0156" fill="#84BE84" rx="3" ry="3" style="stroke: #038048; stroke-width: 1.0;"/><text fill="#000000" font-family="sans-serif" font-size="11" lengthAdjust="spacingAndGlyphs" textLength="190" x="536.607" y="700.4346">readCoordinatesToMove(): Coordinate[]</text><!--MD5=[56a185cb33bdc7c23303e5865f20a19b]
class javax.swing.JPanel--><rect fill="#FEFECE" filter="url(#fyuj6b0x7yzl8)" height="48" id="javax.swing.JPanel" style="stroke: #A80036; stroke-width: 1.5;" width="70" x="1573.106" y="857"/><ellipse cx="1588.106" cy="873" fill="#ADD1B2" rx="11" ry="11" style="stroke: #A80036; stroke-width: 1.0;"/><path d="M1590.8716,868.875 Q1591.0279,868.6563 1591.2154,868.5469 Q1591.4029,868.4375 1591.6216,868.4375 Q1591.9966,868.4375 1592.231,868.7031 Q1592.4654,868.9531 1592.4654,869.5625 L1592.4654,871.0156 Q1592.4654,871.625 1592.231,871.8906 Q1591.9966,872.1563 1591.6216,872.1563 Q1591.2779,872.1563 1591.0748,871.9531 Q1590.8716,871.7656 1590.7623,871.25 Q1590.7154,870.8906 1590.5279,870.7031 Q1590.1998,870.3281 1589.5904,870.1094 Q1588.981,869.8906 1588.356,869.8906 Q1587.5904,869.8906 1586.9498,870.2188 Q1586.3248,870.5469 1585.8248,871.2969 Q1585.3404,872.0469 1585.3404,873.0781 L1585.3404,874.1719 Q1585.3404,875.4063 1586.231,876.2344 Q1587.1216,877.0469 1588.7154,877.0469 Q1589.6529,877.0469 1590.3091,876.7969 Q1590.6998,876.6406 1591.1216,876.2031 Q1591.3873,875.9375 1591.5279,875.8594 Q1591.6841,875.7813 1591.8873,875.7813 Q1592.2154,875.7813 1592.4654,876.0469 Q1592.731,876.2969 1592.731,876.6406 Q1592.731,876.9844 1592.3873,877.3906 Q1591.8873,877.9688 1591.0904,878.2969 Q1590.0123,878.75 1588.7154,878.75 Q1587.1998,878.75 1585.9966,878.125 Q1585.0123,877.625 1584.3248,876.5625 Q1583.6373,875.4844 1583.6373,874.2031 L1583.6373,873.0469 Q1583.6373,871.7188 1584.2466,870.5781 Q1584.8716,869.4219 1585.9654,868.8125 Q1587.0591,868.1875 1588.2935,868.1875 Q1589.0279,868.1875 1589.6685,868.3594 Q1590.3248,868.5156 1590.8716,868.875 Z "/><text fill="#000000" font-family="sans-serif" font-size="12" lengthAdjust="spacingAndGlyphs" textLength="38" x="1602.106" y="877.9102">JPanel</text><line style="stroke: #A80036; stroke-width: 1.5;" x1="1574.106" x2="1642.106" y1="889" y2="889"/><line style="stroke: #A80036; stroke-width: 1.5;" x1="1574.106" x2="1642.106" y1="897" y2="897"/><!--MD5=[9251eed55ebbbd8b0b3a23318ed1a9ff]
class javax.swing.JLabel--><rect fill="#FEFECE" filter="url(#fyuj6b0x7yzl8)" height="48" id="javax.swing.JLabel" style="stroke: #A80036; stroke-width: 1.5;" width="69" x="1468.606" y="857"/><ellipse cx="1483.606" cy="873" fill="#ADD1B2" rx="11" ry="11" style="stroke: #A80036; stroke-width: 1.0;"/><path d="M1486.3716,868.875 Q1486.5279,868.6563 1486.7154,868.5469 Q1486.9029,868.4375 1487.1216,868.4375 Q1487.4966,868.4375 1487.731,868.7031 Q1487.9654,868.9531 1487.9654,869.5625 L1487.9654,871.0156 Q1487.9654,871.625 1487.731,871.8906 Q1487.4966,872.1563 1487.1216,872.1563 Q1486.7779,872.1563 1486.5748,871.9531 Q1486.3716,871.7656 1486.2623,871.25 Q1486.2154,870.8906 1486.0279,870.7031 Q1485.6998,870.3281 1485.0904,870.1094 Q1484.481,869.8906 1483.856,869.8906 Q1483.0904,869.8906 1482.4498,870.2188 Q1481.8248,870.5469 1481.3248,871.2969 Q1480.8404,872.0469 1480.8404,873.0781 L1480.8404,874.1719 Q1480.8404,875.4063 1481.731,876.2344 Q1482.6216,877.0469 1484.2154,877.0469 Q1485.1529,877.0469 1485.8091,876.7969 Q1486.1998,876.6406 1486.6216,876.2031 Q1486.8873,875.9375 1487.0279,875.8594 Q1487.1841,875.7813 1487.3873,875.7813 Q1487.7154,875.7813 1487.9654,876.0469 Q1488.231,876.2969 1488.231,876.6406 Q1488.231,876.9844 1487.8873,877.3906 Q1487.3873,877.9688 1486.5904,878.2969 Q1485.5123,878.75 1484.2154,878.75 Q1482.6998,878.75 1481.4966,878.125 Q1480.5123,877.625 1479.8248,876.5625 Q1479.1373,875.4844 1479.1373,874.2031 L1479.1373,873.0469 Q1479.1373,871.7188 1479.7466,870.5781 Q1480.3716,869.4219 1481.4654,868.8125 Q1482.5591,868.1875 1483.7935,868.1875 Q1484.5279,868.1875 1485.1685,868.3594 Q1485.8248,868.5156 1486.3716,868.875 Z "/><text fill="#000000" font-family="sans-serif" font-size="12" lengthAdjust="spacingAndGlyphs" textLength="37" x="1497.606" y="877.9102">JLabel</text><line style="stroke: #A80036; stroke-width: 1.5;" x1="1469.606" x2="1536.606" y1="889" y2="889"/><line style="stroke: #A80036; stroke-width: 1.5;" x1="1469.606" x2="1536.606" y1="897" y2="897"/><!--MD5=[12253c888ffad55633ab8291887bf405]
class javax.swing.JTextField--><rect fill="#FEFECE" filter="url(#fyuj6b0x7yzl8)" height="48" id="javax.swing.JTextField" style="stroke: #A80036; stroke-width: 1.5;" width="87" x="1786.606" y="857"/><ellipse cx="1801.606" cy="873" fill="#ADD1B2" rx="11" ry="11" style="stroke: #A80036; stroke-width: 1.0;"/><path d="M1804.3716,868.875 Q1804.5279,868.6563 1804.7154,868.5469 Q1804.9029,868.4375 1805.1216,868.4375 Q1805.4966,868.4375 1805.731,868.7031 Q1805.9654,868.9531 1805.9654,869.5625 L1805.9654,871.0156 Q1805.9654,871.625 1805.731,871.8906 Q1805.4966,872.1563 1805.1216,872.1563 Q1804.7779,872.1563 1804.5748,871.9531 Q1804.3716,871.7656 1804.2623,871.25 Q1804.2154,870.8906 1804.0279,870.7031 Q1803.6998,870.3281 1803.0904,870.1094 Q1802.481,869.8906 1801.856,869.8906 Q1801.0904,869.8906 1800.4498,870.2188 Q1799.8248,870.5469 1799.3248,871.2969 Q1798.8404,872.0469 1798.8404,873.0781 L1798.8404,874.1719 Q1798.8404,875.4063 1799.731,876.2344 Q1800.6216,877.0469 1802.2154,877.0469 Q1803.1529,877.0469 1803.8091,876.7969 Q1804.1998,876.6406 1804.6216,876.2031 Q1804.8873,875.9375 1805.0279,875.8594 Q1805.1841,875.7813 1805.3873,875.7813 Q1805.7154,875.7813 1805.9654,876.0469 Q1806.231,876.2969 1806.231,876.6406 Q1806.231,876.9844 1805.8873,877.3906 Q1805.3873,877.9688 1804.5904,878.2969 Q1803.5123,878.75 1802.2154,878.75 Q1800.6998,878.75 1799.4966,878.125 Q1798.5123,877.625 1797.8248,876.5625 Q1797.1373,875.4844 1797.1373,874.2031 L1797.1373,873.0469 Q1797.1373,871.7188 1797.7466,870.5781 Q1798.3716,869.4219 1799.4654,868.8125 Q1800.5591,868.1875 1801.7935,868.1875 Q1802.5279,868.1875 1803.1685,868.3594 Q1803.8248,868.5156 1804.3716,868.875 Z "/><text fill="#000000" font-family="sans-serif" font-size="12" lengthAdjust="spacingAndGlyphs" textLength="55" x="1815.606" y="877.9102">JTextField</text><line style="stroke: #A80036; stroke-width: 1.5;" x1="1787.606" x2="1872.606" y1="889" y2="889"/><line style="stroke: #A80036; stroke-width: 1.5;" x1="1787.606" x2="1872.606" y1="897" y2="897"/><!--MD5=[7d319166b5dc6b8762d043b6fe35067f]
class javax.swing.JButton--><rect fill="#FEFECE" filter="url(#fyuj6b0x7yzl8)" height="48" id="javax.swing.JButton" style="stroke: #A80036; stroke-width: 1.5;" width="73" x="1678.606" y="857"/><ellipse cx="1693.606" cy="873" fill="#ADD1B2" rx="11" ry="11" style="stroke: #A80036; stroke-width: 1.0;"/><path d="M1696.3716,868.875 Q1696.5279,868.6563 1696.7154,868.5469 Q1696.9029,868.4375 1697.1216,868.4375 Q1697.4966,868.4375 1697.731,868.7031 Q1697.9654,868.9531 1697.9654,869.5625 L1697.9654,871.0156 Q1697.9654,871.625 1697.731,871.8906 Q1697.4966,872.1563 1697.1216,872.1563 Q1696.7779,872.1563 1696.5748,871.9531 Q1696.3716,871.7656 1696.2623,871.25 Q1696.2154,870.8906 1696.0279,870.7031 Q1695.6998,870.3281 1695.0904,870.1094 Q1694.481,869.8906 1693.856,869.8906 Q1693.0904,869.8906 1692.4498,870.2188 Q1691.8248,870.5469 1691.3248,871.2969 Q1690.8404,872.0469 1690.8404,873.0781 L1690.8404,874.1719 Q1690.8404,875.4063 1691.731,876.2344 Q1692.6216,877.0469 1694.2154,877.0469 Q1695.1529,877.0469 1695.8091,876.7969 Q1696.1998,876.6406 1696.6216,876.2031 Q1696.8873,875.9375 1697.0279,875.8594 Q1697.1841,875.7813 1697.3873,875.7813 Q1697.7154,875.7813 1697.9654,876.0469 Q1698.231,876.2969 1698.231,876.6406 Q1698.231,876.9844 1697.8873,877.3906 Q1697.3873,877.9688 1696.5904,878.2969 Q1695.5123,878.75 1694.2154,878.75 Q1692.6998,878.75 1691.4966,878.125 Q1690.5123,877.625 1689.8248,876.5625 Q1689.1373,875.4844 1689.1373,874.2031 L1689.1373,873.0469 Q1689.1373,871.7188 1689.7466,870.5781 Q1690.3716,869.4219 1691.4654,868.8125 Q1692.5591,868.1875 1693.7935,868.1875 Q1694.5279,868.1875 1695.1685,868.3594 Q1695.8248,868.5156 1696.3716,868.875 Z "/><text fill="#000000" font-family="sans-serif" font-size="12" lengthAdjust="spacingAndGlyphs" textLength="41" x="1707.606" y="877.9102">JButton</text><line style="stroke: #A80036; stroke-width: 1.5;" x1="1679.606" x2="1750.606" y1="889" y2="889"/><line style="stroke: #A80036; stroke-width: 1.5;" x1="1679.606" x2="1750.606" y1="897" y2="897"/><!--MD5=[1c2fa5f6ace53151c9bc1c52bddcba98]
class javax.swing.JRootPane--><rect fill="#FEFECE" filter="url(#fyuj6b0x7yzl8)" height="48" id="javax.swing.JRootPane" style="stroke: #A80036; stroke-width: 1.5;" width="93" x="1908.606" y="857"/><ellipse cx="1923.606" cy="873" fill="#ADD1B2" rx="11" ry="11" style="stroke: #A80036; stroke-width: 1.0;"/><path d="M1926.3716,868.875 Q1926.5279,868.6563 1926.7154,868.5469 Q1926.9029,868.4375 1927.1216,868.4375 Q1927.4966,868.4375 1927.731,868.7031 Q1927.9654,868.9531 1927.9654,869.5625 L1927.9654,871.0156 Q1927.9654,871.625 1927.731,871.8906 Q1927.4966,872.1563 1927.1216,872.1563 Q1926.7779,872.1563 1926.5748,871.9531 Q1926.3716,871.7656 1926.2623,871.25 Q1926.2154,870.8906 1926.0279,870.7031 Q1925.6998,870.3281 1925.0904,870.1094 Q1924.481,869.8906 1923.856,869.8906 Q1923.0904,869.8906 1922.4498,870.2188 Q1921.8248,870.5469 1921.3248,871.2969 Q1920.8404,872.0469 1920.8404,873.0781 L1920.8404,874.1719 Q1920.8404,875.4063 1921.731,876.2344 Q1922.6216,877.0469 1924.2154,877.0469 Q1925.1529,877.0469 1925.8091,876.7969 Q1926.1998,876.6406 1926.6216,876.2031 Q1926.8873,875.9375 1927.0279,875.8594 Q1927.1841,875.7813 1927.3873,875.7813 Q1927.7154,875.7813 1927.9654,876.0469 Q1928.231,876.2969 1928.231,876.6406 Q1928.231,876.9844 1927.8873,877.3906 Q1927.3873,877.9688 1926.5904,878.2969 Q1925.5123,878.75 1924.2154,878.75 Q1922.6998,878.75 1921.4966,878.125 Q1920.5123,877.625 1919.8248,876.5625 Q1919.1373,875.4844 1919.1373,874.2031 L1919.1373,873.0469 Q1919.1373,871.7188 1919.7466,870.5781 Q1920.3716,869.4219 1921.4654,868.8125 Q1922.5591,868.1875 1923.7935,868.1875 Q1924.5279,868.1875 1925.1685,868.3594 Q1925.8248,868.5156 1926.3716,868.875 Z "/><text fill="#000000" font-family="sans-serif" font-size="12" lengthAdjust="spacingAndGlyphs" textLength="61" x="1937.606" y="877.9102">JRootPane</text><line style="stroke: #A80036; stroke-width: 1.5;" x1="1909.606" x2="2000.606" y1="889" y2="889"/><line style="stroke: #A80036; stroke-width: 1.5;" x1="1909.606" x2="2000.606" y1="897" y2="897"/><!--MD5=[18a7562403221f513ca44e0f82c4c17a]
class javax.swing.JFrame--><rect fill="#FEFECE" filter="url(#fyuj6b0x7yzl8)" height="48" id="javax.swing.JFrame" style="stroke: #A80036; stroke-width: 1.5;" width="74" x="2037.106" y="857"/><ellipse cx="2052.106" cy="873" fill="#ADD1B2" rx="11" ry="11" style="stroke: #A80036; stroke-width: 1.0;"/><path d="M2054.8716,868.875 Q2055.0279,868.6563 2055.2154,868.5469 Q2055.4029,868.4375 2055.6216,868.4375 Q2055.9966,868.4375 2056.231,868.7031 Q2056.4654,868.9531 2056.4654,869.5625 L2056.4654,871.0156 Q2056.4654,871.625 2056.231,871.8906 Q2055.9966,872.1563 2055.6216,872.1563 Q2055.2779,872.1563 2055.0747,871.9531 Q2054.8716,871.7656 2054.7622,871.25 Q2054.7154,870.8906 2054.5279,870.7031 Q2054.1997,870.3281 2053.5904,870.1094 Q2052.981,869.8906 2052.356,869.8906 Q2051.5904,869.8906 2050.9497,870.2188 Q2050.3247,870.5469 2049.8247,871.2969 Q2049.3404,872.0469 2049.3404,873.0781 L2049.3404,874.1719 Q2049.3404,875.4063 2050.231,876.2344 Q2051.1216,877.0469 2052.7154,877.0469 Q2053.6529,877.0469 2054.3091,876.7969 Q2054.6997,876.6406 2055.1216,876.2031 Q2055.3872,875.9375 2055.5279,875.8594 Q2055.6841,875.7813 2055.8872,875.7813 Q2056.2154,875.7813 2056.4654,876.0469 Q2056.731,876.2969 2056.731,876.6406 Q2056.731,876.9844 2056.3872,877.3906 Q2055.8872,877.9688 2055.0904,878.2969 Q2054.0122,878.75 2052.7154,878.75 Q2051.1997,878.75 2049.9966,878.125 Q2049.0122,877.625 2048.3247,876.5625 Q2047.6372,875.4844 2047.6372,874.2031 L2047.6372,873.0469 Q2047.6372,871.7188 2048.2466,870.5781 Q2048.8716,869.4219 2049.9654,868.8125 Q2051.0591,868.1875 2052.2935,868.1875 Q2053.0279,868.1875 2053.6685,868.3594 Q2054.3247,868.5156 2054.8716,868.875 Z "/><text fill="#000000" font-family="sans-serif" font-size="12" lengthAdjust="spacingAndGlyphs" textLength="42" x="2066.106" y="877.9102">JFrame</text><line style="stroke: #A80036; stroke-width: 1.5;" x1="2038.106" x2="2110.106" y1="889" y2="889"/><line style="stroke: #A80036; stroke-width: 1.5;" x1="2038.106" x2="2110.106" y1="897" y2="897"/><!--MD5=[6631281fcee7fc541b441b6c950a0fa0]
class java.awt.event.ActionListener--><rect fill="#FEFECE" filter="url(#fyuj6b0x7yzl8)" height="48" id="java.awt.event.ActionListener" style="stroke: #A80036; stroke-width: 1.5;" width="110" x="197.107" y="391.5"/><ellipse cx="212.107" cy="407.5" fill="#ADD1B2" rx="11" ry="11" style="stroke: #A80036; stroke-width: 1.0;"/><path d="M214.8726,403.375 Q215.0289,403.1563 215.2164,403.0469 Q215.4039,402.9375 215.6226,402.9375 Q215.9976,402.9375 216.232,403.2031 Q216.4664,403.4531 216.4664,404.0625 L216.4664,405.5156 Q216.4664,406.125 216.232,406.3906 Q215.9976,406.6563 215.6226,406.6563 Q215.2789,406.6563 215.0757,406.4531 Q214.8726,406.2656 214.7632,405.75 Q214.7164,405.3906 214.5289,405.2031 Q214.2007,404.8281 213.5914,404.6094 Q212.982,404.3906 212.357,404.3906 Q211.5914,404.3906 210.9507,404.7188 Q210.3257,405.0469 209.8257,405.7969 Q209.3414,406.5469 209.3414,407.5781 L209.3414,408.6719 Q209.3414,409.9063 210.232,410.7344 Q211.1226,411.5469 212.7164,411.5469 Q213.6539,411.5469 214.3101,411.2969 Q214.7007,411.1406 215.1226,410.7031 Q215.3882,410.4375 215.5289,410.3594 Q215.6851,410.2813 215.8882,410.2813 Q216.2164,410.2813 216.4664,410.5469 Q216.732,410.7969 216.732,411.1406 Q216.732,411.4844 216.3882,411.8906 Q215.8882,412.4688 215.0914,412.7969 Q214.0132,413.25 212.7164,413.25 Q211.2007,413.25 209.9976,412.625 Q209.0132,412.125 208.3257,411.0625 Q207.6382,409.9844 207.6382,408.7031 L207.6382,407.5469 Q207.6382,406.2188 208.2476,405.0781 Q208.8726,403.9219 209.9664,403.3125 Q211.0601,402.6875 212.2945,402.6875 Q213.0289,402.6875 213.6695,402.8594 Q214.3257,403.0156 214.8726,403.375 Z "/><text fill="#000000" font-family="sans-serif" font-size="12" lengthAdjust="spacingAndGlyphs" textLength="78" x="226.107" y="412.4102">ActionListener</text><line style="stroke: #A80036; stroke-width: 1.5;" x1="198.107" x2="306.107" y1="423.5" y2="423.5"/><line style="stroke: #A80036; stroke-width: 1.5;" x1="198.107" x2="306.107" y1="431.5" y2="431.5"/><!--MD5=[3eb55d915ce4c988cc6fe2a782a0fcdf]
class java.awt.event.KeyListener--><rect fill="#FEFECE" filter="url(#fyuj6b0x7yzl8)" height="48" id="java.awt.event.KeyListener" style="stroke: #A80036; stroke-width: 1.5;" width="97" x="64.6066" y="391.5"/><ellipse cx="79.6066" cy="407.5" fill="#ADD1B2" rx="11" ry="11" style="stroke: #A80036; stroke-width: 1.0;"/><path d="M82.3722,403.375 Q82.5285,403.1563 82.716,403.0469 Q82.9035,402.9375 83.1222,402.9375 Q83.4972,402.9375 83.7316,403.2031 Q83.966,403.4531 83.966,404.0625 L83.966,405.5156 Q83.966,406.125 83.7316,406.3906 Q83.4972,406.6563 83.1222,406.6563 Q82.7785,406.6563 82.5754,406.4531 Q82.3722,406.2656 82.2629,405.75 Q82.216,405.3906 82.0285,405.2031 Q81.7004,404.8281 81.091,404.6094 Q80.4816,404.3906 79.8566,404.3906 Q79.091,404.3906 78.4504,404.7188 Q77.8254,405.0469 77.3254,405.7969 Q76.841,406.5469 76.841,407.5781 L76.841,408.6719 Q76.841,409.9063 77.7316,410.7344 Q78.6222,411.5469 80.216,411.5469 Q81.1535,411.5469 81.8097,411.2969 Q82.2004,411.1406 82.6222,410.7031 Q82.8879,410.4375 83.0285,410.3594 Q83.1847,410.2813 83.3879,410.2813 Q83.716,410.2813 83.966,410.5469 Q84.2316,410.7969 84.2316,411.1406 Q84.2316,411.4844 83.8879,411.8906 Q83.3879,412.4688 82.591,412.7969 Q81.5129,413.25 80.216,413.25 Q78.7004,413.25 77.4972,412.625 Q76.5129,412.125 75.8254,411.0625 Q75.1379,409.9844 75.1379,408.7031 L75.1379,407.5469 Q75.1379,406.2188 75.7472,405.0781 Q76.3722,403.9219 77.466,403.3125 Q78.5597,402.6875 79.7941,402.6875 Q80.5285,402.6875 81.1691,402.8594 Q81.8254,403.0156 82.3722,403.375 Z "/><text fill="#000000" font-family="sans-serif" font-size="12" lengthAdjust="spacingAndGlyphs" textLength="65" x="93.6066" y="412.4102">KeyListener</text><line style="stroke: #A80036; stroke-width: 1.5;" x1="65.6066" x2="160.6066" y1="423.5" y2="423.5"/><line style="stroke: #A80036; stroke-width: 1.5;" x1="65.6066" x2="160.6066" y1="431.5" y2="431.5"/><!--MD5=[fdbf4e06ff7e602aeb39791d8dea2518]
class java.awt.event.ActionEvent--><rect fill="#FEFECE" filter="url(#fyuj6b0x7yzl8)" height="48" id="java.awt.event.ActionEvent" style="stroke: #A80036; stroke-width: 1.5;" width="95" x="342.607" y="391.5"/><ellipse cx="357.607" cy="407.5" fill="#ADD1B2" rx="11" ry="11" style="stroke: #A80036; stroke-width: 1.0;"/><path d="M360.3726,403.375 Q360.5289,403.1563 360.7164,403.0469 Q360.9039,402.9375 361.1226,402.9375 Q361.4976,402.9375 361.732,403.2031 Q361.9664,403.4531 361.9664,404.0625 L361.9664,405.5156 Q361.9664,406.125 361.732,406.3906 Q361.4976,406.6563 361.1226,406.6563 Q360.7789,406.6563 360.5757,406.4531 Q360.3726,406.2656 360.2632,405.75 Q360.2164,405.3906 360.0289,405.2031 Q359.7007,404.8281 359.0914,404.6094 Q358.482,404.3906 357.857,404.3906 Q357.0914,404.3906 356.4507,404.7188 Q355.8257,405.0469 355.3257,405.7969 Q354.8414,406.5469 354.8414,407.5781 L354.8414,408.6719 Q354.8414,409.9063 355.732,410.7344 Q356.6226,411.5469 358.2164,411.5469 Q359.1539,411.5469 359.8101,411.2969 Q360.2007,411.1406 360.6226,410.7031 Q360.8882,410.4375 361.0289,410.3594 Q361.1851,410.2813 361.3882,410.2813 Q361.7164,410.2813 361.9664,410.5469 Q362.232,410.7969 362.232,411.1406 Q362.232,411.4844 361.8882,411.8906 Q361.3882,412.4688 360.5914,412.7969 Q359.5132,413.25 358.2164,413.25 Q356.7007,413.25 355.4976,412.625 Q354.5132,412.125 353.8257,411.0625 Q353.1382,409.9844 353.1382,408.7031 L353.1382,407.5469 Q353.1382,406.2188 353.7476,405.0781 Q354.3726,403.9219 355.4664,403.3125 Q356.5601,402.6875 357.7945,402.6875 Q358.5289,402.6875 359.1695,402.8594 Q359.8257,403.0156 360.3726,403.375 Z "/><text fill="#000000" font-family="sans-serif" font-size="12" lengthAdjust="spacingAndGlyphs" textLength="63" x="371.607" y="412.4102">ActionEvent</text><line style="stroke: #A80036; stroke-width: 1.5;" x1="343.607" x2="436.607" y1="423.5" y2="423.5"/><line style="stroke: #A80036; stroke-width: 1.5;" x1="343.607" x2="436.607" y1="431.5" y2="431.5"/><!--MD5=[f31f6503e4cc561363ee52d0041ef195]
class java.awt.GridBagConstraints--><rect fill="#FEFECE" filter="url(#fyuj6b0x7yzl8)" height="48" id="java.awt.GridBagConstraints" style="stroke: #A80036; stroke-width: 1.5;" width="141" x="296.607" y="610.5"/><ellipse cx="311.607" cy="626.5" fill="#ADD1B2" rx="11" ry="11" style="stroke: #A80036; stroke-width: 1.0;"/><path d="M314.3726,622.375 Q314.5289,622.1563 314.7164,622.0469 Q314.9039,621.9375 315.1226,621.9375 Q315.4976,621.9375 315.732,622.2031 Q315.9664,622.4531 315.9664,623.0625 L315.9664,624.5156 Q315.9664,625.125 315.732,625.3906 Q315.4976,625.6563 315.1226,625.6563 Q314.7789,625.6563 314.5757,625.4531 Q314.3726,625.2656 314.2632,624.75 Q314.2164,624.3906 314.0289,624.2031 Q313.7007,623.8281 313.0914,623.6094 Q312.482,623.3906 311.857,623.3906 Q311.0914,623.3906 310.4507,623.7188 Q309.8257,624.0469 309.3257,624.7969 Q308.8414,625.5469 308.8414,626.5781 L308.8414,627.6719 Q308.8414,628.9063 309.732,629.7344 Q310.6226,630.5469 312.2164,630.5469 Q313.1539,630.5469 313.8101,630.2969 Q314.2007,630.1406 314.6226,629.7031 Q314.8882,629.4375 315.0289,629.3594 Q315.1851,629.2813 315.3882,629.2813 Q315.7164,629.2813 315.9664,629.5469 Q316.232,629.7969 316.232,630.1406 Q316.232,630.4844 315.8882,630.8906 Q315.3882,631.4688 314.5914,631.7969 Q313.5132,632.25 312.2164,632.25 Q310.7007,632.25 309.4976,631.625 Q308.5132,631.125 307.8257,630.0625 Q307.1382,628.9844 307.1382,627.7031 L307.1382,626.5469 Q307.1382,625.2188 307.7476,624.0781 Q308.3726,622.9219 309.4664,622.3125 Q310.5601,621.6875 311.7945,621.6875 Q312.5289,621.6875 313.1695,621.8594 Q313.8257,622.0156 314.3726,622.375 Z "/><text fill="#000000" font-family="sans-serif" font-size="12" lengthAdjust="spacingAndGlyphs" textLength="109" x="325.607" y="631.4102">GridBagConstraints</text><line style="stroke: #A80036; stroke-width: 1.5;" x1="297.607" x2="436.607" y1="642.5" y2="642.5"/><line style="stroke: #A80036; stroke-width: 1.5;" x1="297.607" x2="436.607" y1="650.5" y2="650.5"/><!--MD5=[2ae15d20e7f22fd333327d3852982126]
class tictactoe.views.PlayerView--><rect fill="#FEFECE" filter="url(#fyuj6b0x7yzl8)" height="48" id="tictactoe.views.PlayerView" style="stroke: #A80036; stroke-width: 1.5;" width="92" x="840.107" y="42"/><ellipse cx="855.107" cy="58" fill="#ADD1B2" rx="11" ry="11" style="stroke: #A80036; stroke-width: 1.0;"/><path d="M857.8726,53.875 Q858.0289,53.6563 858.2164,53.5469 Q858.4039,53.4375 858.6226,53.4375 Q858.9976,53.4375 859.232,53.7031 Q859.4664,53.9531 859.4664,54.5625 L859.4664,56.0156 Q859.4664,56.625 859.232,56.8906 Q858.9976,57.1563 858.6226,57.1563 Q858.2789,57.1563 858.0758,56.9531 Q857.8726,56.7656 857.7633,56.25 Q857.7164,55.8906 857.5289,55.7031 Q857.2008,55.3281 856.5914,55.1094 Q855.982,54.8906 855.357,54.8906 Q854.5914,54.8906 853.9508,55.2188 Q853.3258,55.5469 852.8258,56.2969 Q852.3414,57.0469 852.3414,58.0781 L852.3414,59.1719 Q852.3414,60.4063 853.232,61.2344 Q854.1226,62.0469 855.7164,62.0469 Q856.6539,62.0469 857.3101,61.7969 Q857.7008,61.6406 858.1226,61.2031 Q858.3883,60.9375 858.5289,60.8594 Q858.6851,60.7813 858.8883,60.7813 Q859.2164,60.7813 859.4664,61.0469 Q859.732,61.2969 859.732,61.6406 Q859.732,61.9844 859.3883,62.3906 Q858.8883,62.9688 858.0914,63.2969 Q857.0133,63.75 855.7164,63.75 Q854.2008,63.75 852.9976,63.125 Q852.0133,62.625 851.3258,61.5625 Q850.6383,60.4844 850.6383,59.2031 L850.6383,58.0469 Q850.6383,56.7188 851.2476,55.5781 Q851.8726,54.4219 852.9664,53.8125 Q854.0601,53.1875 855.2945,53.1875 Q856.0289,53.1875 856.6695,53.3594 Q857.3258,53.5156 857.8726,53.875 Z "/><text fill="#000000" font-family="sans-serif" font-size="12" lengthAdjust="spacingAndGlyphs" textLength="60" x="869.107" y="62.9102">PlayerView</text><line style="stroke: #A80036; stroke-width: 1.5;" x1="841.107" x2="931.107" y1="74" y2="74"/><line style="stroke: #A80036; stroke-width: 1.5;" x1="841.107" x2="931.107" y1="82" y2="82"/><!--MD5=[015754420c4cdd9bacda884b3fa8c6ca]
class tictactoe.views.View--><rect fill="#FEFECE" filter="url(#fyuj6b0x7yzl8)" height="48" id="tictactoe.views.View" style="stroke: #A80036; stroke-width: 1.5;" width="58" x="967.107" y="42"/><ellipse cx="982.107" cy="58" fill="#ADD1B2" rx="11" ry="11" style="stroke: #A80036; stroke-width: 1.0;"/><path d="M984.8726,53.875 Q985.0289,53.6563 985.2164,53.5469 Q985.4039,53.4375 985.6226,53.4375 Q985.9976,53.4375 986.232,53.7031 Q986.4664,53.9531 986.4664,54.5625 L986.4664,56.0156 Q986.4664,56.625 986.232,56.8906 Q985.9976,57.1563 985.6226,57.1563 Q985.2789,57.1563 985.0758,56.9531 Q984.8726,56.7656 984.7633,56.25 Q984.7164,55.8906 984.5289,55.7031 Q984.2008,55.3281 983.5914,55.1094 Q982.982,54.8906 982.357,54.8906 Q981.5914,54.8906 980.9508,55.2188 Q980.3258,55.5469 979.8258,56.2969 Q979.3414,57.0469 979.3414,58.0781 L979.3414,59.1719 Q979.3414,60.4063 980.232,61.2344 Q981.1226,62.0469 982.7164,62.0469 Q983.6539,62.0469 984.3101,61.7969 Q984.7008,61.6406 985.1226,61.2031 Q985.3883,60.9375 985.5289,60.8594 Q985.6851,60.7813 985.8883,60.7813 Q986.2164,60.7813 986.4664,61.0469 Q986.732,61.2969 986.732,61.6406 Q986.732,61.9844 986.3883,62.3906 Q985.8883,62.9688 985.0914,63.2969 Q984.0133,63.75 982.7164,63.75 Q981.2008,63.75 979.9976,63.125 Q979.0133,62.625 978.3258,61.5625 Q977.6383,60.4844 977.6383,59.2031 L977.6383,58.0469 Q977.6383,56.7188 978.2476,55.5781 Q978.8726,54.4219 979.9664,53.8125 Q981.0601,53.1875 982.2945,53.1875 Q983.0289,53.1875 983.6695,53.3594 Q984.3258,53.5156 984.8726,53.875 Z "/><text fill="#000000" font-family="sans-serif" font-size="12" lengthAdjust="spacingAndGlyphs" textLength="26" x="996.107" y="62.9102">View</text><line style="stroke: #A80036; stroke-width: 1.5;" x1="968.107" x2="1024.107" y1="74" y2="74"/><line style="stroke: #A80036; stroke-width: 1.5;" x1="968.107" x2="1024.107" y1="82" y2="82"/><!--MD5=[cabe4b87987aefd6bf4718fce0f585b5]
reverse link javax.swing.JPanel to tictactoe.views.graphics.BoardView--><path d="M1597.466,837.544 C1587.506,807.271 1569.266,769.182 1537.606,751 C1511.396,735.947 1498.276,741.45 1469.606,751 C1419.436,767.711 1372.076,805.237 1339.546,835.696 " fill="none" id="javax.swing.JPanel&lt;-tictactoe.views.graphics.BoardView" style="stroke: #A80036; stroke-width: 1.0;"/><polygon fill="none" points="1604.236,835.753,1603.096,856.913,1590.786,839.666,1604.236,835.753" style="stroke: #A80036; stroke-width: 1.0;"/><!--MD5=[a60d4dd9da35e5e9d03c3586c16254c3]
link tictactoe.views.graphics.BoardView to javax.swing.JLabel--><path d="M1423.736,881 C1423.736,881 1445.176,881 1455.246,881 " fill="none" id="tictactoe.views.graphics.BoardView-javax.swing.JLabel" style="stroke: #A80036; stroke-width: 1.0;"/><polygon fill="#A80036" points="1468.486,881,1459.486,877,1463.486,881,1459.486,885,1468.486,881" style="stroke: #A80036; stroke-width: 1.0;"/><line style="stroke: #A80036; stroke-width: 1.0;" x1="1463.486" x2="1455.486" y1="881" y2="881"/><polygon fill="#A80036" points="1411.736,881,1417.736,885,1423.736,881,1417.736,877,1411.736,881" style="stroke: #A80036; stroke-width: 1.0;"/><!--MD5=[6472c94a80d8a0139752c3d3b04c0276]
link tictactoe.views.graphics.ChoosePlayersView to tictactoe.views.graphics.BoardView--><path d="M1301.306,721.014 C1300.116,757.594 1298.756,799.012 1297.726,830.401 " fill="none" id="tictactoe.views.graphics.ChoosePlayersView-&gt;tictactoe.views.graphics.BoardView" style="stroke: #A80036; stroke-width: 1.0; stroke-dasharray: 7.0,7.0;"/><polygon fill="#A80036" points="1297.556,835.745,1301.8494,826.8812,1297.7202,830.7477,1293.8537,826.6185,1297.556,835.745" style="stroke: #A80036; stroke-width: 1.0;"/><!--MD5=[727818a4ba2572f21a371543409f0646]
reverse link javax.swing.JPanel to tictactoe.views.graphics.ChoosePlayersView--><path d="M1592.116,838.405 C1583.296,819.308 1570.896,797.333 1555.106,781 C1512.216,736.639 1452.906,701.417 1402.706,676.745 " fill="none" id="javax.swing.JPanel&lt;-tictactoe.views.graphics.ChoosePlayersView" style="stroke: #A80036; stroke-width: 1.0;"/><polygon fill="none" points="1598.596,835.765,1600.006,856.907,1585.716,841.256,1598.596,835.765" style="stroke: #A80036; stroke-width: 1.0;"/><!--MD5=[3d7860d49b8d03eff20ee19c13a8b8ff]
reverse link java.awt.event.ActionListener to tictactoe.views.graphics.ChoosePlayersView--><path d="M281.818,454.973 C293.806,467.706 308.695,480.521 325.107,488 C476.648,557.057 909.464,512.207 1072.106,548 C1116.966,557.872 1164.856,574.428 1205.406,590.356 " fill="none" id="java.awt.event.ActionListener&lt;-tictactoe.views.graphics.ChoosePlayersView" style="stroke: #A80036; stroke-width: 1.0;"/><polygon fill="none" points="276.521,459.55,268.727,439.846,287.108,450.388,276.521,459.55" style="stroke: #A80036; stroke-width: 1.0;"/><!--MD5=[4558857917398b49749deef901c1a40f]
reverse link java.awt.event.KeyListener to tictactoe.views.graphics.ChoosePlayersView--><path d="M139.745,455.625 C150.43,468.173 163.849,480.7 179.107,488 C358.523,573.836 877.588,506.522 1072.106,548 C1117.026,557.579 1164.926,574.087 1205.466,590.059 " fill="none" id="java.awt.event.KeyListener&lt;-tictactoe.views.graphics.ChoosePlayersView" style="stroke: #A80036; stroke-width: 1.0;"/><polygon fill="none" points="134.022,459.665,127.351,439.553,145.108,451.115,134.022,459.665" style="stroke: #A80036; stroke-width: 1.0;"/><!--MD5=[10ea6f03fb925665c06b1dad1506bcde]
link tictactoe.views.graphics.ChoosePlayersView to javax.swing.JLabel--><path d="M1386.4429,730.5344 C1386.4429,730.5344 1415.106,764.826 1428.106,781 C1445.276,802.355 1463.876,826.9 1478.256,846.208 " fill="none" id="tictactoe.views.graphics.ChoosePlayersView-javax.swing.JLabel" style="stroke: #A80036; stroke-width: 1.0;"/><polygon fill="#A80036" points="1486.196,856.907,1484.0471,847.2954,1483.2173,852.8911,1477.6216,852.0613,1486.196,856.907" style="stroke: #A80036; stroke-width: 1.0;"/><line style="stroke: #A80036; stroke-width: 1.0;" x1="1483.2173" x2="1478.451" y1="852.8911" y2="846.467"/><polygon fill="#A80036" points="1378.696,721.37,1379.5146,728.5345,1386.4429,730.5344,1385.6242,723.3699,1378.696,721.37" style="stroke: #A80036; stroke-width: 1.0;"/><!--MD5=[89f1fb9a756a4b907f2aa36e42120567]
link tictactoe.views.graphics.ChoosePlayersView to javax.swing.JTextField--><path d="M1414.7152,647.825 C1414.7152,647.825 1665.626,700.54 1769.106,781 C1790.186,797.394 1805.776,823.282 1815.906,844.474 " fill="none" id="tictactoe.views.graphics.ChoosePlayersView-javax.swing.JTextField" style="stroke: #A80036; stroke-width: 1.0;"/><polygon fill="#A80036" points="1821.386,856.617,1821.331,846.7683,1819.3298,852.0593,1814.0388,850.0582,1821.386,856.617" style="stroke: #A80036; stroke-width: 1.0;"/><line style="stroke: #A80036; stroke-width: 1.0;" x1="1819.3298" x2="1816.041" y1="852.0593" y2="844.766"/><polygon fill="#A80036" points="1402.856,645.992,1408.1746,650.8616,1414.7152,647.825,1409.3966,642.9554,1402.856,645.992" style="stroke: #A80036; stroke-width: 1.0;"/><!--MD5=[4c5260bde3ce8e49162549ea989dbafe]
link tictactoe.views.graphics.ChoosePlayersView to javax.swing.JButton--><path d="M1414.4312,659.5774 C1414.4312,659.5774 1591.636,718.926 1661.106,781 C1680.206,798.068 1693.886,823.551 1702.706,844.388 " fill="none" id="tictactoe.views.graphics.ChoosePlayersView-javax.swing.JButton" style="stroke: #A80036; stroke-width: 1.0;"/><polygon fill="#A80036" points="1707.566,856.645,1707.9655,846.8042,1705.7223,851.9973,1700.5292,849.7541,1707.566,856.645" style="stroke: #A80036; stroke-width: 1.0;"/><line style="stroke: #A80036; stroke-width: 1.0;" x1="1705.7223" x2="1702.776" y1="851.9973" y2="844.561"/><polygon fill="#A80036" points="1402.856,656.413,1407.5888,661.8536,1414.4312,659.5774,1409.6984,654.1368,1402.856,656.413" style="stroke: #A80036; stroke-width: 1.0;"/><!--MD5=[0eb2ca1c2563986081c25bcdc723fdfe]
link tictactoe.views.graphics.ChoosePlayersView to javax.swing.JRootPane--><path d="M1402.796,650.929 C1548.736,675.23 1813.236,725.414 1891.106,781 C1915.986,798.762 1933.626,829.502 1943.996,852.028 " fill="none" id="tictactoe.views.graphics.ChoosePlayersView-&gt;javax.swing.JRootPane" style="stroke: #A80036; stroke-width: 1.0; stroke-dasharray: 7.0,7.0;"/><polygon fill="#A80036" points="1946.096,856.702,1946.0491,846.8533,1944.0436,852.1427,1938.7542,850.1371,1946.096,856.702" style="stroke: #A80036; stroke-width: 1.0;"/><!--MD5=[07c515c75c2fc272e37f9aea32d8b360]
link tictactoe.views.graphics.ChoosePlayersView to java.awt.event.ActionEvent--><path d="M1205.586,590.935 C1164.956,575.041 1116.966,558.356 1072.106,548 C813.563,488.314 723.374,589.247 478.107,488 C453.916,478.014 431.118,459.117 414.79,443.257 " fill="none" id="tictactoe.views.graphics.ChoosePlayersView-&gt;java.awt.event.ActionEvent" style="stroke: #A80036; stroke-width: 1.0; stroke-dasharray: 7.0,7.0;"/><polygon fill="#A80036" points="411.199,439.716,414.7976,448.8839,414.7587,443.2272,420.4155,443.1883,411.199,439.716" style="stroke: #A80036; stroke-width: 1.0;"/><!--MD5=[036ac694f9ef560a6efe6f0807c8a669]
link tictactoe.views.graphics.ChoosePlayersView to tictactoe.views.graphics.Constraints--><path d="M1220.756,721.071 C1201.746,740.705 1181.686,761.531 1163.106,781 C1142.506,802.594 1119.546,827.033 1101.586,846.227 " fill="none" id="tictactoe.views.graphics.ChoosePlayersView-&gt;tictactoe.views.graphics.Constraints" style="stroke: #A80036; stroke-width: 1.0; stroke-dasharray: 7.0,7.0;"/><polygon fill="#A80036" points="1098.066,849.994,1107.1399,846.1646,1101.486,846.3466,1101.304,840.6927,1098.066,849.994" style="stroke: #A80036; stroke-width: 1.0;"/><!--MD5=[bdb045c9d431250a5f9395ddd4bd6b7e]
reverse link java.awt.GridBagConstraints to tictactoe.views.graphics.Constraints--><path d="M404.168,672.237 C424.35,689.986 450.745,709.817 478.107,721 C684.877,805.513 777.766,680.205 977.107,781 C1008.042,796.642 1034.116,826.963 1050.706,849.948 " fill="none" id="java.awt.GridBagConstraints&lt;-tictactoe.views.graphics.Constraints" style="stroke: #A80036; stroke-width: 1.0;"/><polygon fill="none" points="399.387,677.35,389.414,658.654,408.869,667.051,399.387,677.35" style="stroke: #A80036; stroke-width: 1.0;"/><!--MD5=[10381ae29511add63f6bf8123459af4e]
reverse link tictactoe.views.graphics.CoordinateView to tictactoe.views.graphics.CoordinateMoveView--><path d="M829.019,720.867 C801.37,740.52 772.164,761.405 745.107,781 C739.484,785.072 733.738,789.25 727.941,793.479 " fill="none" id="tictactoe.views.graphics.CoordinateView&lt;-tictactoe.views.graphics.CoordinateMoveView" style="stroke: #A80036; stroke-width: 1.0;"/><polygon fill="none" points="825.183,715.006,845.543,709.137,833.287,726.422,825.183,715.006" style="stroke: #A80036; stroke-width: 1.0;"/><!--MD5=[5cd154c91e18ab8fe96bcf131be95657]
reverse link tictactoe.views.graphics.CoordinateView to tictactoe.views.graphics.CoordinatePutView--><path d="M911.999,740.189 C901.771,768.286 891.084,797.648 882.158,822.168 " fill="none" id="tictactoe.views.graphics.CoordinateView&lt;-tictactoe.views.graphics.CoordinatePutView" style="stroke: #A80036; stroke-width: 1.0;"/><polygon fill="none" points="905.56,737.413,918.979,721.014,918.715,742.202,905.56,737.413" style="stroke: #A80036; stroke-width: 1.0;"/><!--MD5=[8d59a044b1f407b3a8b407e7a1ed01d6]
reverse link javax.swing.JPanel to tictactoe.views.graphics.CoordinateView--><path d="M1595.396,837.763 C1587.136,817.492 1574.256,794.691 1555.106,781 C1420.656,684.88 1348.106,762.446 1188.106,721 C1143.696,709.495 1095.876,693.136 1054.846,677.802 " fill="none" id="javax.swing.JPanel&lt;-tictactoe.views.graphics.CoordinateView" style="stroke: #A80036; stroke-width: 1.0;"/><polygon fill="none" points="1602.046,835.571,1602.176,856.76,1588.856,840.278,1602.046,835.571" style="stroke: #A80036; stroke-width: 1.0;"/><!--MD5=[f06739bdc2562ef708a9105bc1eced38]
reverse link java.awt.event.ActionListener to tictactoe.views.graphics.CoordinateView--><path d="M282.688,455.183 C294.584,467.646 309.189,480.231 325.107,488 C505.639,576.117 580.696,490.254 773.107,548 C797.294,555.259 822.288,565.466 845.601,576.309 " fill="none" id="java.awt.event.ActionListener&lt;-tictactoe.views.graphics.CoordinateView" style="stroke: #A80036; stroke-width: 1.0;"/><polygon fill="none" points="277.137,459.471,269.175,439.835,287.645,450.22,277.137,459.471" style="stroke: #A80036; stroke-width: 1.0;"/><!--MD5=[8b96044bfe9f186552fa707236bac3d7]
reverse link java.awt.event.KeyListener to tictactoe.views.graphics.CoordinateView--><path d="M140.107,455.602 C150.768,468.037 164.078,480.498 179.107,488 C416.511,606.517 517.757,475.862 773.107,548 C797.245,554.819 822.113,564.771 845.302,575.494 " fill="none" id="java.awt.event.KeyListener&lt;-tictactoe.views.graphics.CoordinateView" style="stroke: #A80036; stroke-width: 1.0;"/><polygon fill="none" points="134.477,459.764,127.699,439.688,145.517,451.155,134.477,459.764" style="stroke: #A80036; stroke-width: 1.0;"/><!--MD5=[64ec8305c6b701a77e453d9781af2e4f]
link tictactoe.views.graphics.CoordinateView to javax.swing.JLabel--><path d="M1066.0684,679.7769 C1066.0684,679.7769 1148.306,708.908 1188.106,721 C1293.306,752.96 1336.366,720.403 1428.106,781 C1452.396,797.043 1471.926,823.697 1484.956,845.309 " fill="none" id="tictactoe.views.graphics.CoordinateView-javax.swing.JLabel" style="stroke: #A80036; stroke-width: 1.0;"/><polygon fill="#A80036" points="1491.516,856.697,1490.4916,846.9016,1489.0211,852.364,1483.5587,850.8935,1491.516,856.697" style="stroke: #A80036; stroke-width: 1.0;"/><line style="stroke: #A80036; stroke-width: 1.0;" x1="1489.0211" x2="1485.031" y1="852.364" y2="845.4335"/><polygon fill="#A80036" points="1054.796,675.662,1059.0606,681.4769,1066.0684,679.7769,1061.8038,673.962,1054.796,675.662" style="stroke: #A80036; stroke-width: 1.0;"/><!--MD5=[20428267ec9a0593e4e83535749df2f2]
link tictactoe.views.graphics.CoordinateView to javax.swing.JTextField--><path d="M1066.0494,683.4925 C1066.0494,683.4925 1148.006,711.87 1188.106,721 C1314.666,749.819 1659.186,711.972 1769.106,781 C1792.256,795.539 1807.986,822.4 1817.666,844.477 " fill="none" id="tictactoe.views.graphics.CoordinateView-javax.swing.JTextField" style="stroke: #A80036; stroke-width: 1.0;"/><polygon fill="#A80036" points="1822.676,856.794,1822.9902,846.9502,1820.7921,852.1625,1815.5797,849.9644,1822.676,856.794" style="stroke: #A80036; stroke-width: 1.0;"/><line style="stroke: #A80036; stroke-width: 1.0;" x1="1820.7921" x2="1817.781" y1="852.1625" y2="844.7525"/><polygon fill="#A80036" points="1054.806,679.299,1059.0299,685.1436,1066.0494,683.4925,1061.8255,677.648,1054.806,679.299" style="stroke: #A80036; stroke-width: 1.0;"/><!--MD5=[9b670b36bc06045cf072d235a6e64b39]
link tictactoe.views.graphics.CoordinateView to javax.swing.JButton--><path d="M1065.884,682.8231 C1065.884,682.8231 1147.846,711.339 1188.106,721 C1394.166,770.45 1486.066,661.556 1661.106,781 C1682.906,795.875 1696.716,822.531 1704.916,844.438 " fill="none" id="tictactoe.views.graphics.CoordinateView-javax.swing.JButton" style="stroke: #A80036; stroke-width: 1.0;"/><polygon fill="#A80036" points="1709.206,856.99,1710.077,847.1797,1707.5873,852.2593,1702.5078,849.7696,1709.206,856.99" style="stroke: #A80036; stroke-width: 1.0;"/><line style="stroke: #A80036; stroke-width: 1.0;" x1="1707.5873" x2="1705.001" y1="852.2593" y2="844.69"/><polygon fill="#A80036" points="1054.636,678.642,1058.8663,684.4819,1065.884,682.8231,1061.6537,676.9832,1054.636,678.642" style="stroke: #A80036; stroke-width: 1.0;"/><!--MD5=[c3f8f11eedec776d5e94d2264b4a4fe6]
link tictactoe.views.graphics.CoordinateView to tictactoe.views.graphics.Constraints--><path d="M992.077,721.014 C1013.013,763.672 1037.176,812.907 1053.006,845.148 " fill="none" id="tictactoe.views.graphics.CoordinateView-&gt;tictactoe.views.graphics.Constraints" style="stroke: #A80036; stroke-width: 1.0; stroke-dasharray: 7.0,7.0;"/><polygon fill="#A80036" points="1055.276,849.778,1054.9116,839.9359,1053.0776,845.2872,1047.7263,843.4532,1055.276,849.778" style="stroke: #A80036; stroke-width: 1.0;"/><!--MD5=[6e5bb3a92f06b6521fbaefcba998fa4f]
link tictactoe.views.graphics.CoordinateView to java.awt.event.ActionEvent--><path d="M845.209,577.541 C821.92,566.621 797.036,556.071 773.107,548 C646.329,505.237 599.074,545.168 478.107,488 C454.973,477.067 432.644,458.803 416.267,443.471 " fill="none" id="tictactoe.views.graphics.CoordinateView-&gt;java.awt.event.ActionEvent" style="stroke: #A80036; stroke-width: 1.0; stroke-dasharray: 7.0,7.0;"/><polygon fill="#A80036" points="412.234,439.643,416.0097,448.7394,415.8612,443.0845,421.5161,442.9359,412.234,439.643" style="stroke: #A80036; stroke-width: 1.0;"/><!--MD5=[47b0f7ebd6a1ec57eb5e415e44df3625]
reverse link javax.swing.JFrame to tictactoe.views.graphics.GameView--><path d="M2058.376,838.207 C2049.336,818.752 2036.306,796.532 2019.106,781 C1801.016,584.089 1460.376,482.439 1283.836,440.478 " fill="none" id="javax.swing.JFrame&lt;-tictactoe.views.graphics.GameView" style="stroke: #A80036; stroke-width: 1.0;"/><polygon fill="none" points="2064.866,835.591,2066.236,856.736,2051.976,841.057,2064.866,835.591" style="stroke: #A80036; stroke-width: 1.0;"/><!--MD5=[b5996867af380ca02459b04aa80f56b8]
link tictactoe.views.graphics.GameView to tictactoe.views.graphics.ChoosePlayersView--><path d="M1213.686,488.155 C1224.656,505.795 1236.546,524.91 1247.996,543.302 " fill="none" id="tictactoe.views.graphics.GameView-&gt;tictactoe.views.graphics.ChoosePlayersView" style="stroke: #A80036; stroke-width: 1.0; stroke-dasharray: 7.0,7.0;"/><polygon fill="#A80036" points="1250.896,547.961,1249.5351,538.2066,1248.2535,543.7164,1242.7437,542.4347,1250.896,547.961" style="stroke: #A80036; stroke-width: 1.0;"/><!--MD5=[c79a14885adf94ff16841042cb6332be]
link tictactoe.views.graphics.GameView to tictactoe.views.PlayerView--><path d="M1183.426,342.843 C1192.276,275.422 1192.486,176.86 1133.106,122 C1118.076,108.113 968.384,120.867 949.107,114 C936.397,109.472 924.107,101.431 913.808,93.266 " fill="none" id="tictactoe.views.graphics.GameView-&gt;tictactoe.views.PlayerView" style="stroke: #A80036; stroke-width: 1.0; stroke-dasharray: 7.0,7.0;"/><polygon fill="#A80036" points="909.816,90.015,914.2692,98.7996,913.6932,93.1722,919.3206,92.5962,909.816,90.015" style="stroke: #A80036; stroke-width: 1.0;"/><!--MD5=[cde31fc4b42824274c0456a9d3e41790]
link tictactoe.views.graphics.GameView to tictactoe.views.graphics.BoardView--><path d="M1163.096,488.092 C1160.236,551.143 1161.976,644.57 1188.106,721 C1202.106,761.946 1229.636,802.208 1253.396,831.972 " fill="none" id="tictactoe.views.graphics.GameView-&gt;tictactoe.views.graphics.BoardView" style="stroke: #A80036; stroke-width: 1.0; stroke-dasharray: 7.0,7.0;"/><polygon fill="#A80036" points="1256.576,835.917,1254.0368,826.4011,1253.436,832.0259,1247.8111,831.4251,1256.576,835.917" style="stroke: #A80036; stroke-width: 1.0;"/><!--MD5=[a43462772411fda6d5e604aa4dc9a36f]
link tictactoe.views.graphics.GameView to tictactoe.views.graphics.Constraints--><path d="M1153.796,488.16 C1132.286,588.909 1093.906,768.596 1077.676,844.548 " fill="none" id="tictactoe.views.graphics.GameView-&gt;tictactoe.views.graphics.Constraints" style="stroke: #A80036; stroke-width: 1.0; stroke-dasharray: 7.0,7.0;"/><polygon fill="#A80036" points="1076.546,849.835,1082.3388,841.8699,1077.5911,844.9454,1074.5155,840.1977,1076.546,849.835" style="stroke: #A80036; stroke-width: 1.0;"/><!--MD5=[7be369977caa022d054f8c60cd641674]
reverse link tictactoe.views.View to tictactoe.views.graphics.GraphicsView--><path d="M1009.85,109.172 C1015.524,126.585 1022.196,147.05 1028.306,165.816 " fill="none" id="tictactoe.views.View&lt;-tictactoe.views.graphics.GraphicsView" style="stroke: #A80036; stroke-width: 1.0;"/><polygon fill="none" points="1003.173,111.277,1003.632,90.092,1016.484,106.939,1003.173,111.277" style="stroke: #A80036; stroke-width: 1.0;"/><!--MD5=[56170282cb16756a44e05ee3fcd945e0]
link tictactoe.views.graphics.GraphicsView to tictactoe.views.graphics.GameView--><path d="M1090.8871,293.313 C1090.8871,293.313 1107.556,319.142 1115.536,331.508 " fill="none" id="tictactoe.views.graphics.GraphicsView-tictactoe.views.graphics.GameView" style="stroke: #A80036; stroke-width: 1.0;"/><polygon fill="#A80036" points="1122.806,342.765,1121.2876,333.0339,1120.0952,338.5636,1114.5654,337.3712,1122.806,342.765" style="stroke: #A80036; stroke-width: 1.0;"/><line style="stroke: #A80036; stroke-width: 1.0;" x1="1120.0952" x2="1115.751" y1="338.5636" y2="331.843"/><polygon fill="#A80036" points="1084.376,283.233,1084.2716,290.4433,1090.8871,293.313,1090.9915,286.1026,1084.376,283.233" style="stroke: #A80036; stroke-width: 1.0;"/><!--MD5=[b8439edf54a3c3807b534686210f66ce]
reverse link tictactoe.views.PlayerView to tictactoe.views.graphics.MachinePlayerView--><path d="M872.376,109.133 C865.309,130.822 856.695,157.252 849.53,179.238 " fill="none" id="tictactoe.views.PlayerView&lt;-tictactoe.views.graphics.MachinePlayerView" style="stroke: #A80036; stroke-width: 1.0;"/><polygon fill="none" points="865.729,106.939,878.581,90.092,879.04,111.277,865.729,106.939" style="stroke: #A80036; stroke-width: 1.0;"/><!--MD5=[5a23dad18e5d6887e4100af0bfeec4a7]
reverse link tictactoe.views.PlayerView to tictactoe.views.graphics.UserPlayerView--><path d="M820.161,78.548 C639.088,111.734 141.462,213.353 48.1066,343 C10.449,395.297 6,439.213 48.1066,488 C107.696,557.043 366.79,521.663 454.107,548 C474.662,554.2 495.844,562.356 516.167,571.169 " fill="none" id="tictactoe.views.PlayerView&lt;-tictactoe.views.graphics.UserPlayerView" style="stroke: #A80036; stroke-width: 1.0;"/><polygon fill="none" points="818.963,71.651,839.891,74.974,821.459,85.427,818.963,71.651" style="stroke: #A80036; stroke-width: 1.0;"/><!--MD5=[019086a575f29d92d2eda5b55be6f110]
link tictactoe.views.graphics.UserPlayerView to tictactoe.views.graphics.CoordinatePutView--><path d="M710.2199,716.0361 C710.2199,716.0361 771.68,782.823 798.927,812.432 " fill="none" id="tictactoe.views.graphics.UserPlayerView-tictactoe.views.graphics.CoordinatePutView" style="stroke: #A80036; stroke-width: 1.0;"/><polygon fill="#A80036" points="807.965,822.253,804.8139,812.9218,804.5792,818.5738,798.9272,818.3391,807.965,822.253" style="stroke: #A80036; stroke-width: 1.0;"/><line style="stroke: #A80036; stroke-width: 1.0;" x1="804.5792" x2="799.162" y1="818.5738" y2="812.687"/><polygon fill="#A80036" points="702.094,707.206,703.2136,714.3297,710.2199,716.0361,709.1003,708.9124,702.094,707.206" style="stroke: #A80036; stroke-width: 1.0;"/><!--MD5=[e04f6c8fd17d2a2d4f4737c18e94d2a3]
link tictactoe.views.graphics.UserPlayerView to tictactoe.views.graphics.CoordinateMoveView--><path d="M627.5552,719.1438 C627.5552,719.1438 624.235,751.6 622.619,767.406 " fill="none" id="tictactoe.views.graphics.UserPlayerView-tictactoe.views.graphics.CoordinateMoveView" style="stroke: #A80036; stroke-width: 1.0;"/><polygon fill="#A80036" points="621.269,780.61,626.164,772.0637,621.7778,775.636,618.2056,771.2497,621.269,780.61" style="stroke: #A80036; stroke-width: 1.0;"/><line style="stroke: #A80036; stroke-width: 1.0;" x1="621.7778" x2="622.5915" y1="775.636" y2="767.677"/><polygon fill="#A80036" points="628.775,707.206,624.1858,712.7683,627.5552,719.1438,632.1444,713.5815,628.775,707.206" style="stroke: #A80036; stroke-width: 1.0;"/><!--MD5=[b0ef6767024c98d104200c01c4e4d87d]
link tictactoe.views.graphics.UserPlayerView to tictactoe.views.graphics.Constraints--><path d="M755.647,689.533 C779.578,700.123 804.589,711.033 828.107,721 C893.836,748.859 918.175,740.706 977.107,781 C1003.021,798.719 1027.136,824.781 1044.306,845.718 " fill="none" id="tictactoe.views.graphics.UserPlayerView-&gt;tictactoe.views.graphics.Constraints" style="stroke: #A80036; stroke-width: 1.0; stroke-dasharray: 7.0,7.0;"/><polygon fill="#A80036" points="1047.646,849.833,1045.0836,840.3233,1044.4965,845.9496,1038.8702,845.3626,1047.646,849.833" style="stroke: #A80036; stroke-width: 1.0;"/><!--MD5=[3c921de16e2029585bbcefff27e90d5a]
@startuml

class  tictactoe.views.graphics.BoardView{
~ BoardView(Board)
- printRowBoard(Board, int): void
- getSquareBoardText(Board, int, int): String
}
javax.swing.JPanel <|-down- tictactoe.views.graphics.BoardView
tictactoe.views.graphics.BoardView *-down-> javax.swing.JLabel
tictactoe.views.graphics.ChoosePlayersView ..> tictactoe.views.graphics.BoardView

class  tictactoe.views.graphics.ChoosePlayersView{
- {static} ACCEPT: String
- label: JLabel
- textField: JTextField
- button: JButton
- playersNumber: String
~ ChoosePlayersView(JRootPane)
~ resetPlayersNumber(): void
~ getPlayersNumber(): String
+ actionPerformed(ActionEvent): void
}
javax.swing.JPanel <|-down- tictactoe.views.graphics.ChoosePlayersView
java.awt.event.ActionListener <|-down- tictactoe.views.graphics.ChoosePlayersView
java.awt.event.KeyListener <|-down- tictactoe.views.graphics.ChoosePlayersView
tictactoe.views.graphics.ChoosePlayersView *-down-> javax.swing.JLabel
tictactoe.views.graphics.ChoosePlayersView *-down-> javax.swing.JTextField
tictactoe.views.graphics.ChoosePlayersView *-down-> javax.swing.JButton
tictactoe.views.graphics.ChoosePlayersView ..> javax.swing.JRootPane
tictactoe.views.graphics.ChoosePlayersView ..> java.awt.event.ActionEvent
tictactoe.views.graphics.ChoosePlayersView ..> tictactoe.views.graphics.Constraints

class  tictactoe.views.graphics.Constraints{
~ Constraints(int, int, int, int)
}
java.awt.GridBagConstraints <|-down- tictactoe.views.graphics.Constraints

class  tictactoe.views.graphics.CoordinateMoveView{
- {static} ENTER_COORDINATE_TO_REMOVE: String
- labelRowToMove: JLabel
- labelColumnToMove: JLabel
- titleLabelToMove: JLabel
- textFieldRowToMove: JTextField
- textFieldColumnToMove: JTextField
- coordinates: Coordinate[]
~ CoordinateMoveView()
~ resetCoordinates(): void
~ getCoordinates(): Coordinate[]
+ actionPerformed(ActionEvent): void
}
tictactoe.views.graphics.CoordinateView <|-down- tictactoe.views.graphics.CoordinateMoveView

class  tictactoe.views.graphics.CoordinatePutView{
- coordinates: Coordinate[]
~ CoordinatePutView()
~ resetCoordinate(): void
~ getCoordinate(): Coordinate
+ actionPerformed(ActionEvent): void
}
tictactoe.views.graphics.CoordinateView <|-down- tictactoe.views.graphics.CoordinatePutView

class  tictactoe.views.graphics.CoordinateView{
# {static} ENTER_COORDINATE_TO_PUT: String
# {static} ACCEPT: String
# labelRow: JLabel
# labelColumn: JLabel
# titleLabel: JLabel
# textFieldRow: JTextField
# textFieldColumn: JTextField
# button: JButton
~ CoordinateView()
}
javax.swing.JPanel <|-down- tictactoe.views.graphics.CoordinateView
java.awt.event.ActionListener <|-down- tictactoe.views.graphics.CoordinateView
java.awt.event.KeyListener <|-down- tictactoe.views.graphics.CoordinateView
tictactoe.views.graphics.CoordinateView *-down-> javax.swing.JLabel
tictactoe.views.graphics.CoordinateView *-down-> javax.swing.JTextField
tictactoe.views.graphics.CoordinateView *-down-> javax.swing.JButton
tictactoe.views.graphics.CoordinateView ..> tictactoe.views.graphics.Constraints
tictactoe.views.graphics.CoordinateView ..> java.awt.event.ActionEvent

class  tictactoe.views.graphics.GameView{
- {static} GAME_OVER: String
- game: Game
- choosePlayersView: ChoosePlayersView
~ GameView(Game)
~ start(): void
~ play(): boolean
~ result(): void
}
javax.swing.JFrame <|-down- tictactoe.views.graphics.GameView
tictactoe.views.graphics.GameView ..> tictactoe.views.graphics.ChoosePlayersView
tictactoe.views.graphics.GameView ..> tictactoe.views.PlayerView
tictactoe.views.graphics.GameView ..> tictactoe.views.graphics.BoardView
tictactoe.views.graphics.GameView ..> tictactoe.views.graphics.Constraints

class  tictactoe.views.graphics.GraphicsView{
- gameView: GameView
+ GraphicsView(Game)
# start(): void
# play(): boolean
# result(): void
}
tictactoe.views.View <|-down- tictactoe.views.graphics.GraphicsView
tictactoe.views.graphics.GraphicsView *-down-> tictactoe.views.graphics.GameView

class  tictactoe.views.graphics.MachinePlayerView{
~ MachinePlayerView(Player)
+ readCoordinateToPut(): Coordinate
+ readCoordinatesToMove(): Coordinate[]
}
tictactoe.views.PlayerView <|-down- tictactoe.views.graphics.MachinePlayerView

class  tictactoe.views.graphics.UserPlayerView{
~ {static} ENTER_COORDINATE_TO_PUT: String
~ {static} ENTER_COORDINATE_TO_REMOVE: String
~ coordinatePutView: CoordinatePutView
~ coordinateMoveView: CoordinateMoveView
~ UserPlayerView(Player)
+ readCoordinateToPut(): Coordinate
+ readCoordinatesToMove(): Coordinate[]
}
tictactoe.views.PlayerView <|-down- tictactoe.views.graphics.UserPlayerView
tictactoe.views.graphics.UserPlayerView *-down-> tictactoe.views.graphics.CoordinatePutView
tictactoe.views.graphics.UserPlayerView *-down-> tictactoe.views.graphics.CoordinateMoveView
tictactoe.views.graphics.UserPlayerView ..> tictactoe.views.graphics.Constraints

@enduml

PlantUML version 1.2020.15(Sun Jun 28 13:39:45 CEST 2020)
(GPL source distribution)
Java Runtime: Java(TM) SE Runtime Environment
JVM: Java HotSpot(TM) 64-Bit Server VM
Default Encoding: windows-1252
Language: es
Country: ES
--></g></svg>