<?xml version="1.0" encoding="UTF-8" standalone="no"?><svg xmlns="http://www.w3.org/2000/svg" xmlns:xlink="http://www.w3.org/1999/xlink" contentScriptType="application/ecmascript" contentStyleType="text/css" height="503px" preserveAspectRatio="none" style="width:949px;height:503px;" version="1.1" viewBox="0 0 949 503" width="949px" zoomAndPan="magnify"><defs><filter height="300%" id="f168krmyp4qg6e" width="300%" x="-1" y="-1"><feGaussianBlur result="blurOut" stdDeviation="2.0"/><feColorMatrix in="blurOut" result="blurOut2" type="matrix" values="0 0 0 0 0 0 0 0 0 0 0 0 0 0 0 0 0 0 .4 0"/><feOffset dx="4.0" dy="4.0" in="blurOut2" result="blurOut3"/><feBlend in="SourceGraphic" in2="blurOut3" mode="normal"/></filter></defs><g><!--MD5=[f4e83a21a957c5b9ba9691e6361db36b]
cluster tictactoe.views--><polygon fill="#FFFFFF" filter="url(#f168krmyp4qg6e)" points="16,6,128,6,135,29.6094,622,29.6094,622,491,16,491,16,6" style="stroke: #000000; stroke-width: 1.5;"/><line style="stroke: #000000; stroke-width: 1.5;" x1="16" x2="135" y1="29.6094" y2="29.6094"/><text fill="#000000" font-family="sans-serif" font-size="14" font-weight="bold" lengthAdjust="spacingAndGlyphs" textLength="106" x="20" y="22.5332">tictactoe.views</text><!--MD5=[ee7e9a007a7c4d40c0679a27f272732d]
cluster tictactoe.controllers--><polygon fill="#FFFFFF" filter="url(#f168krmyp4qg6e)" points="646,342.5,794,342.5,801,366.1094,927,366.1094,927,442.5,646,442.5,646,342.5" style="stroke: #000000; stroke-width: 1.5;"/><line style="stroke: #000000; stroke-width: 1.5;" x1="646" x2="801" y1="366.1094" y2="366.1094"/><text fill="#000000" font-family="sans-serif" font-size="14" font-weight="bold" lengthAdjust="spacingAndGlyphs" textLength="142" x="650" y="359.0332">tictactoe.controllers</text><!--MD5=[17799e03bfee0ccb3aa03b93da9c26d6]
class tictactoe.views.ErrorView--><rect fill="#FEFECE" filter="url(#f168krmyp4qg6e)" height="89.5078" id="tictactoe.views.ErrorView" style="stroke: #A80036; stroke-width: 1.5;" width="123" x="32.5" y="111"/><ellipse cx="64.6" cy="127" fill="#ADD1B2" rx="11" ry="11" style="stroke: #A80036; stroke-width: 1.0;"/><path d="M67.3656,122.875 Q67.5219,122.6563 67.7094,122.5469 Q67.8969,122.4375 68.1156,122.4375 Q68.4906,122.4375 68.725,122.7031 Q68.9594,122.9531 68.9594,123.5625 L68.9594,125.0156 Q68.9594,125.625 68.725,125.8906 Q68.4906,126.1563 68.1156,126.1563 Q67.7719,126.1563 67.5688,125.9531 Q67.3656,125.7656 67.2563,125.25 Q67.2094,124.8906 67.0219,124.7031 Q66.6938,124.3281 66.0844,124.1094 Q65.475,123.8906 64.85,123.8906 Q64.0844,123.8906 63.4437,124.2188 Q62.8187,124.5469 62.3187,125.2969 Q61.8344,126.0469 61.8344,127.0781 L61.8344,128.1719 Q61.8344,129.4063 62.725,130.2344 Q63.6156,131.0469 65.2094,131.0469 Q66.1469,131.0469 66.8031,130.7969 Q67.1938,130.6406 67.6156,130.2031 Q67.8813,129.9375 68.0219,129.8594 Q68.1781,129.7813 68.3813,129.7813 Q68.7094,129.7813 68.9594,130.0469 Q69.225,130.2969 69.225,130.6406 Q69.225,130.9844 68.8813,131.3906 Q68.3813,131.9688 67.5844,132.2969 Q66.5063,132.75 65.2094,132.75 Q63.6937,132.75 62.4906,132.125 Q61.5062,131.625 60.8187,130.5625 Q60.1312,129.4844 60.1312,128.2031 L60.1312,127.0469 Q60.1312,125.7188 60.7406,124.5781 Q61.3656,123.4219 62.4594,122.8125 Q63.5531,122.1875 64.7875,122.1875 Q65.5219,122.1875 66.1625,122.3594 Q66.8188,122.5156 67.3656,122.875 Z "/><text fill="#000000" font-family="sans-serif" font-size="12" lengthAdjust="spacingAndGlyphs" textLength="53" x="82.4" y="131.9102">ErrorView</text><line style="stroke: #A80036; stroke-width: 1.5;" x1="33.5" x2="154.5" y1="143" y2="143"/><ellipse cx="43.5" cy="154" fill="none" rx="3" ry="3" style="stroke: #038048; stroke-width: 1.0;"/><text fill="#000000" font-family="sans-serif" font-size="11" lengthAdjust="spacingAndGlyphs" text-decoration="underline" textLength="97" x="52.5" y="158.4189">MESSAGES: String[]</text><polygon fill="none" points="43.5,162.8359,47.5,166.8359,43.5,170.8359,39.5,166.8359" style="stroke: #B38D22; stroke-width: 1.0;"/><text fill="#000000" font-family="sans-serif" font-size="11" lengthAdjust="spacingAndGlyphs" textLength="54" x="52.5" y="172.2549">error: Error</text><line style="stroke: #A80036; stroke-width: 1.5;" x1="33.5" x2="154.5" y1="178.6719" y2="178.6719"/><ellipse cx="43.5" cy="189.6719" fill="#84BE84" rx="3" ry="3" style="stroke: #038048; stroke-width: 1.0;"/><text fill="#000000" font-family="sans-serif" font-size="11" lengthAdjust="spacingAndGlyphs" textLength="82" x="52.5" y="194.0908">ErrorView(Error)</text><!--MD5=[ac4b0e0875a820e87662d988d53b2072]
class tictactoe.views.MessageView--><rect fill="#FEFECE" filter="url(#f168krmyp4qg6e)" height="227.8672" id="tictactoe.views.MessageView" style="stroke: #A80036; stroke-width: 1.5;" width="237" x="368.5" y="42"/><ellipse cx="444.25" cy="58" fill="#EB937F" rx="11" ry="11" style="stroke: #A80036; stroke-width: 1.0;"/><path d="M443.1094,58.7969 L443.1094,61.2969 L447.4375,61.2969 L447.4375,60.375 Q447.4375,59.7656 447.6719,59.5 Q447.9219,59.2344 448.2969,59.2344 Q448.6719,59.2344 448.9063,59.5 Q449.1406,59.7656 449.1406,60.375 L449.1406,63 L441.1406,63 Q440.5156,63 440.25,62.7656 Q440,62.5313 440,62.1406 Q440,61.7656 440.2656,61.5313 Q440.5313,61.2969 441.1406,61.2969 L441.4063,61.2969 L441.4063,54.6406 L441.1406,54.6406 Q440.5156,54.6406 440.25,54.4063 Q440,54.1719 440,53.7813 Q440,53.4063 440.25,53.1719 Q440.5156,52.9375 441.1406,52.9375 L448.7656,52.9375 L448.7656,55.5313 Q448.7656,56.1406 448.5313,56.4063 Q448.3125,56.6563 447.9219,56.6563 Q447.5469,56.6563 447.3125,56.4063 Q447.0781,56.1406 447.0781,55.5313 L447.0781,54.6406 L443.1094,54.6406 L443.1094,57.0938 L444.5938,57.0938 Q444.5938,56.4375 444.7188,56.25 Q444.9844,55.8438 445.4531,55.8438 Q445.8281,55.8438 446.0625,56.1094 Q446.2969,56.3594 446.2969,56.9688 L446.2969,58.9375 Q446.2969,59.4844 446.1719,59.6719 Q445.9063,60.0625 445.4531,60.0625 Q444.9844,60.0625 444.7188,59.6563 Q444.5938,59.4688 444.5938,58.7969 L443.1094,58.7969 Z "/><text fill="#000000" font-family="sans-serif" font-size="12" lengthAdjust="spacingAndGlyphs" textLength="77" x="464.75" y="62.9102">MessageView</text><line style="stroke: #A80036; stroke-width: 1.5;" x1="369.5" x2="604.5" y1="74" y2="74"/><ellipse cx="379.5" cy="85" fill="none" rx="3" ry="3" style="stroke: #038048; stroke-width: 1.0;"/><text fill="#000000" font-family="sans-serif" font-size="11" lengthAdjust="spacingAndGlyphs" textLength="110" x="388.5" y="89.4189">EMPTY: MessageView</text><ellipse cx="379.5" cy="98.8359" fill="none" rx="3" ry="3" style="stroke: #038048; stroke-width: 1.0;"/><text fill="#000000" font-family="sans-serif" font-size="11" lengthAdjust="spacingAndGlyphs" textLength="139" x="388.5" y="103.2549">SEPARATOR: MessageView</text><ellipse cx="379.5" cy="112.6719" fill="none" rx="3" ry="3" style="stroke: #038048; stroke-width: 1.0;"/><text fill="#000000" font-family="sans-serif" font-size="11" lengthAdjust="spacingAndGlyphs" textLength="211" x="388.5" y="117.0908">VERTICAL_LINE_CENTERED: MessageView</text><ellipse cx="379.5" cy="126.5078" fill="none" rx="3" ry="3" style="stroke: #038048; stroke-width: 1.0;"/><text fill="#000000" font-family="sans-serif" font-size="11" lengthAdjust="spacingAndGlyphs" textLength="183" x="388.5" y="130.9268">VERTICAL_LINE_LEFT: MessageView</text><ellipse cx="379.5" cy="140.3438" fill="none" rx="3" ry="3" style="stroke: #038048; stroke-width: 1.0;"/><text fill="#000000" font-family="sans-serif" font-size="11" lengthAdjust="spacingAndGlyphs" textLength="142" x="388.5" y="144.7627">PLAYER_WIN: MessageView</text><ellipse cx="379.5" cy="154.1797" fill="none" rx="3" ry="3" style="stroke: #038048; stroke-width: 1.0;"/><text fill="#000000" font-family="sans-serif" font-size="11" lengthAdjust="spacingAndGlyphs" textLength="146" x="388.5" y="158.5986">START_GAME: MessageView</text><ellipse cx="379.5" cy="168.0156" fill="none" rx="3" ry="3" style="stroke: #038048; stroke-width: 1.0;"/><text fill="#000000" font-family="sans-serif" font-size="11" lengthAdjust="spacingAndGlyphs" textLength="166" x="388.5" y="172.4346">CHOOSE_PLAYER: MessageView</text><ellipse cx="379.5" cy="181.8516" fill="none" rx="3" ry="3" style="stroke: #038048; stroke-width: 1.0;"/><text fill="#000000" font-family="sans-serif" font-size="11" lengthAdjust="spacingAndGlyphs" textLength="135" x="388.5" y="186.2705">READ_ROW: MessageView</text><ellipse cx="379.5" cy="195.6875" fill="none" rx="3" ry="3" style="stroke: #038048; stroke-width: 1.0;"/><text fill="#000000" font-family="sans-serif" font-size="11" lengthAdjust="spacingAndGlyphs" textLength="153" x="388.5" y="200.1064">READ_COLUMN: MessageView</text><ellipse cx="379.5" cy="209.5234" fill="none" rx="3" ry="3" style="stroke: #038048; stroke-width: 1.0;"/><text fill="#000000" font-family="sans-serif" font-size="11" lengthAdjust="spacingAndGlyphs" textLength="111" x="388.5" y="213.9424">ERROR: MessageView</text><rect fill="none" height="6" style="stroke: #C82930; stroke-width: 1.0;" width="6" x="376.5" y="220.3594"/><text fill="#000000" font-family="sans-serif" font-size="11" lengthAdjust="spacingAndGlyphs" textLength="78" x="388.5" y="227.7783">message: String</text><line style="stroke: #A80036; stroke-width: 1.5;" x1="369.5" x2="604.5" y1="234.1953" y2="234.1953"/><rect fill="#F24D5C" height="6" style="stroke: #C82930; stroke-width: 1.0;" width="6" x="376.5" y="242.1953"/><text fill="#000000" font-family="sans-serif" font-size="11" lengthAdjust="spacingAndGlyphs" textLength="106" x="388.5" y="249.6143">MessageView(String)</text><ellipse cx="379.5" cy="259.0313" fill="#84BE84" rx="3" ry="3" style="stroke: #038048; stroke-width: 1.0;"/><text fill="#000000" font-family="sans-serif" font-size="11" lengthAdjust="spacingAndGlyphs" textLength="101" x="388.5" y="263.4502">getMessage(): String</text><!--MD5=[2ae15d20e7f22fd333327d3852982126]
class tictactoe.views.PlayerView--><rect fill="#FEFECE" filter="url(#f168krmyp4qg6e)" height="144.8516" id="tictactoe.views.PlayerView" style="stroke: #A80036; stroke-width: 1.5;" width="346" x="32" y="330"/><ellipse cx="170.75" cy="346" fill="#ADD1B2" rx="11" ry="11" style="stroke: #A80036; stroke-width: 1.0;"/><path d="M173.5156,341.875 Q173.6719,341.6563 173.8594,341.5469 Q174.0469,341.4375 174.2656,341.4375 Q174.6406,341.4375 174.875,341.7031 Q175.1094,341.9531 175.1094,342.5625 L175.1094,344.0156 Q175.1094,344.625 174.875,344.8906 Q174.6406,345.1563 174.2656,345.1563 Q173.9219,345.1563 173.7188,344.9531 Q173.5156,344.7656 173.4063,344.25 Q173.3594,343.8906 173.1719,343.7031 Q172.8438,343.3281 172.2344,343.1094 Q171.625,342.8906 171,342.8906 Q170.2344,342.8906 169.5938,343.2188 Q168.9688,343.5469 168.4688,344.2969 Q167.9844,345.0469 167.9844,346.0781 L167.9844,347.1719 Q167.9844,348.4063 168.875,349.2344 Q169.7656,350.0469 171.3594,350.0469 Q172.2969,350.0469 172.9531,349.7969 Q173.3438,349.6406 173.7656,349.2031 Q174.0313,348.9375 174.1719,348.8594 Q174.3281,348.7813 174.5313,348.7813 Q174.8594,348.7813 175.1094,349.0469 Q175.375,349.2969 175.375,349.6406 Q175.375,349.9844 175.0313,350.3906 Q174.5313,350.9688 173.7344,351.2969 Q172.6563,351.75 171.3594,351.75 Q169.8438,351.75 168.6406,351.125 Q167.6563,350.625 166.9688,349.5625 Q166.2813,348.4844 166.2813,347.2031 L166.2813,346.0469 Q166.2813,344.7188 166.8906,343.5781 Q167.5156,342.4219 168.6094,341.8125 Q169.7031,341.1875 170.9375,341.1875 Q171.6719,341.1875 172.3125,341.3594 Q172.9688,341.5156 173.5156,341.875 Z "/><text fill="#000000" font-family="sans-serif" font-size="12" lengthAdjust="spacingAndGlyphs" textLength="60" x="191.25" y="350.9102">PlayerView</text><line style="stroke: #A80036; stroke-width: 1.5;" x1="33" x2="377" y1="362" y2="362"/><polygon fill="none" points="43,368,47,372,43,376,39,372" style="stroke: #B38D22; stroke-width: 1.0;"/><text fill="#000000" font-family="sans-serif" font-size="11" lengthAdjust="spacingAndGlyphs" textLength="66" x="52" y="377.4189">player: Player</text><line style="stroke: #A80036; stroke-width: 1.5;" x1="33" x2="377" y1="383.8359" y2="383.8359"/><ellipse cx="43" cy="394.8359" fill="#84BE84" rx="3" ry="3" style="stroke: #038048; stroke-width: 1.0;"/><text fill="#000000" font-family="sans-serif" font-size="11" lengthAdjust="spacingAndGlyphs" textLength="94" x="52" y="399.2549">PlayerView(Player)</text><ellipse cx="43" cy="408.6719" fill="#84BE84" rx="3" ry="3" style="stroke: #038048; stroke-width: 1.0;"/><text fill="#000000" font-family="sans-serif" font-size="11" font-style="italic" lengthAdjust="spacingAndGlyphs" textLength="173" x="52" y="413.0908">readCoordinateToPut(): Coordinate</text><ellipse cx="43" cy="422.5078" fill="#84BE84" rx="3" ry="3" style="stroke: #038048; stroke-width: 1.0;"/><text fill="#000000" font-family="sans-serif" font-size="11" font-style="italic" lengthAdjust="spacingAndGlyphs" textLength="195" x="52" y="426.9268">readCoordinatesToMove(): Coordinate[]</text><ellipse cx="43" cy="436.3438" fill="#84BE84" rx="3" ry="3" style="stroke: #038048; stroke-width: 1.0;"/><text fill="#000000" font-family="sans-serif" font-size="11" lengthAdjust="spacingAndGlyphs" textLength="220" x="52" y="440.7627">controlErrorsPutCoordinate(Coordinate): Error</text><ellipse cx="43" cy="450.1797" fill="#84BE84" rx="3" ry="3" style="stroke: #038048; stroke-width: 1.0;"/><text fill="#000000" font-family="sans-serif" font-size="11" lengthAdjust="spacingAndGlyphs" textLength="259" x="52" y="454.5986">controlErrorsMoveOriginCoordinate(Coordinate): Error</text><ellipse cx="43" cy="464.0156" fill="#84BE84" rx="3" ry="3" style="stroke: #038048; stroke-width: 1.0;"/><text fill="#000000" font-family="sans-serif" font-size="11" lengthAdjust="spacingAndGlyphs" textLength="320" x="52" y="468.4346">controlErrorsMoveTargetCoordinate(Coordinate, Coordinate): Error</text><!--MD5=[24b5a9b67986ee811680be72c33ee9c1]
class tictactoe.views.TokenView--><rect fill="#FEFECE" filter="url(#f168krmyp4qg6e)" height="89.5078" id="tictactoe.views.TokenView" style="stroke: #A80036; stroke-width: 1.5;" width="118" x="413" y="357.5"/><ellipse cx="439.7" cy="373.5" fill="#ADD1B2" rx="11" ry="11" style="stroke: #A80036; stroke-width: 1.0;"/><path d="M442.4656,369.375 Q442.6219,369.1563 442.8094,369.0469 Q442.9969,368.9375 443.2156,368.9375 Q443.5906,368.9375 443.825,369.2031 Q444.0594,369.4531 444.0594,370.0625 L444.0594,371.5156 Q444.0594,372.125 443.825,372.3906 Q443.5906,372.6563 443.2156,372.6563 Q442.8719,372.6563 442.6688,372.4531 Q442.4656,372.2656 442.3563,371.75 Q442.3094,371.3906 442.1219,371.2031 Q441.7938,370.8281 441.1844,370.6094 Q440.575,370.3906 439.95,370.3906 Q439.1844,370.3906 438.5438,370.7188 Q437.9188,371.0469 437.4188,371.7969 Q436.9344,372.5469 436.9344,373.5781 L436.9344,374.6719 Q436.9344,375.9063 437.825,376.7344 Q438.7156,377.5469 440.3094,377.5469 Q441.2469,377.5469 441.9031,377.2969 Q442.2938,377.1406 442.7156,376.7031 Q442.9813,376.4375 443.1219,376.3594 Q443.2781,376.2813 443.4813,376.2813 Q443.8094,376.2813 444.0594,376.5469 Q444.325,376.7969 444.325,377.1406 Q444.325,377.4844 443.9813,377.8906 Q443.4813,378.4688 442.6844,378.7969 Q441.6063,379.25 440.3094,379.25 Q438.7938,379.25 437.5906,378.625 Q436.6063,378.125 435.9188,377.0625 Q435.2313,375.9844 435.2313,374.7031 L435.2313,373.5469 Q435.2313,372.2188 435.8406,371.0781 Q436.4656,369.9219 437.5594,369.3125 Q438.6531,368.6875 439.8875,368.6875 Q440.6219,368.6875 441.2625,368.8594 Q441.9188,369.0156 442.4656,369.375 Z "/><text fill="#000000" font-family="sans-serif" font-size="12" lengthAdjust="spacingAndGlyphs" textLength="60" x="456.3" y="378.4102">TokenView</text><line style="stroke: #A80036; stroke-width: 1.5;" x1="414" x2="530" y1="389.5" y2="389.5"/><rect fill="none" height="6" style="stroke: #C82930; stroke-width: 1.0;" width="6" x="421" y="397.5"/><text fill="#000000" font-family="sans-serif" font-size="11" lengthAdjust="spacingAndGlyphs" textLength="61" x="433" y="404.9189">token: Token</text><line style="stroke: #A80036; stroke-width: 1.5;" x1="414" x2="530" y1="411.3359" y2="411.3359"/><ellipse cx="424" cy="422.3359" fill="#84BE84" rx="3" ry="3" style="stroke: #038048; stroke-width: 1.0;"/><text fill="#000000" font-family="sans-serif" font-size="11" lengthAdjust="spacingAndGlyphs" textLength="92" x="433" y="426.7549">TokenView(Token)</text><ellipse cx="424" cy="436.1719" fill="#84BE84" rx="3" ry="3" style="stroke: #038048; stroke-width: 1.0;"/><text fill="#000000" font-family="sans-serif" font-size="11" lengthAdjust="spacingAndGlyphs" textLength="80" x="433" y="440.5908">getToken(): char</text><!--MD5=[015754420c4cdd9bacda884b3fa8c6ca]
class tictactoe.views.View--><rect fill="#FEFECE" filter="url(#f168krmyp4qg6e)" height="61.8359" id="tictactoe.views.View" style="stroke: #A80036; stroke-width: 1.5;" width="142" x="191" y="125"/><ellipse cx="244.75" cy="141" fill="#ADD1B2" rx="11" ry="11" style="stroke: #A80036; stroke-width: 1.0;"/><path d="M247.5156,136.875 Q247.6719,136.6563 247.8594,136.5469 Q248.0469,136.4375 248.2656,136.4375 Q248.6406,136.4375 248.875,136.7031 Q249.1094,136.9531 249.1094,137.5625 L249.1094,139.0156 Q249.1094,139.625 248.875,139.8906 Q248.6406,140.1563 248.2656,140.1563 Q247.9219,140.1563 247.7188,139.9531 Q247.5156,139.7656 247.4063,139.25 Q247.3594,138.8906 247.1719,138.7031 Q246.8438,138.3281 246.2344,138.1094 Q245.625,137.8906 245,137.8906 Q244.2344,137.8906 243.5938,138.2188 Q242.9688,138.5469 242.4688,139.2969 Q241.9844,140.0469 241.9844,141.0781 L241.9844,142.1719 Q241.9844,143.4063 242.875,144.2344 Q243.7656,145.0469 245.3594,145.0469 Q246.2969,145.0469 246.9531,144.7969 Q247.3438,144.6406 247.7656,144.2031 Q248.0313,143.9375 248.1719,143.8594 Q248.3281,143.7813 248.5313,143.7813 Q248.8594,143.7813 249.1094,144.0469 Q249.375,144.2969 249.375,144.6406 Q249.375,144.9844 249.0313,145.3906 Q248.5313,145.9688 247.7344,146.2969 Q246.6563,146.75 245.3594,146.75 Q243.8438,146.75 242.6406,146.125 Q241.6563,145.625 240.9688,144.5625 Q240.2813,143.4844 240.2813,142.2031 L240.2813,141.0469 Q240.2813,139.7188 240.8906,138.5781 Q241.5156,137.4219 242.6094,136.8125 Q243.7031,136.1875 244.9375,136.1875 Q245.6719,136.1875 246.3125,136.3594 Q246.9688,136.5156 247.5156,136.875 Z "/><text fill="#000000" font-family="sans-serif" font-size="12" lengthAdjust="spacingAndGlyphs" textLength="26" x="265.25" y="145.9102">View</text><line style="stroke: #A80036; stroke-width: 1.5;" x1="192" x2="332" y1="157" y2="157"/><line style="stroke: #A80036; stroke-width: 1.5;" x1="192" x2="332" y1="165" y2="165"/><ellipse cx="202" cy="176" fill="#84BE84" rx="3" ry="3" style="stroke: #038048; stroke-width: 1.0;"/><text fill="#000000" font-family="sans-serif" font-size="11" lengthAdjust="spacingAndGlyphs" textLength="116" x="211" y="180.4189">interact(Controller): void</text><!--MD5=[cd4f094777041ea0b287ad7c5b510f06]
class tictactoe.controllers.ControllersVisitor--><rect fill="#FEFECE" filter="url(#f168krmyp4qg6e)" height="48" id="tictactoe.controllers.ControllersVisitor" style="stroke: #A80036; stroke-width: 1.5;" width="127" x="783.5" y="378.5"/><ellipse cx="798.5" cy="394.5" fill="#ADD1B2" rx="11" ry="11" style="stroke: #A80036; stroke-width: 1.0;"/><path d="M801.2656,390.375 Q801.4219,390.1563 801.6094,390.0469 Q801.7969,389.9375 802.0156,389.9375 Q802.3906,389.9375 802.625,390.2031 Q802.8594,390.4531 802.8594,391.0625 L802.8594,392.5156 Q802.8594,393.125 802.625,393.3906 Q802.3906,393.6563 802.0156,393.6563 Q801.6719,393.6563 801.4688,393.4531 Q801.2656,393.2656 801.1563,392.75 Q801.1094,392.3906 800.9219,392.2031 Q800.5938,391.8281 799.9844,391.6094 Q799.375,391.3906 798.75,391.3906 Q797.9844,391.3906 797.3438,391.7188 Q796.7188,392.0469 796.2188,392.7969 Q795.7344,393.5469 795.7344,394.5781 L795.7344,395.6719 Q795.7344,396.9063 796.625,397.7344 Q797.5156,398.5469 799.1094,398.5469 Q800.0469,398.5469 800.7031,398.2969 Q801.0938,398.1406 801.5156,397.7031 Q801.7813,397.4375 801.9219,397.3594 Q802.0781,397.2813 802.2813,397.2813 Q802.6094,397.2813 802.8594,397.5469 Q803.125,397.7969 803.125,398.1406 Q803.125,398.4844 802.7813,398.8906 Q802.2813,399.4688 801.4844,399.7969 Q800.4063,400.25 799.1094,400.25 Q797.5938,400.25 796.3906,399.625 Q795.4063,399.125 794.7188,398.0625 Q794.0313,396.9844 794.0313,395.7031 L794.0313,394.5469 Q794.0313,393.2188 794.6406,392.0781 Q795.2656,390.9219 796.3594,390.3125 Q797.4531,389.6875 798.6875,389.6875 Q799.4219,389.6875 800.0625,389.8594 Q800.7188,390.0156 801.2656,390.375 Z "/><text fill="#000000" font-family="sans-serif" font-size="12" lengthAdjust="spacingAndGlyphs" textLength="95" x="812.5" y="399.4102">ControllersVisitor</text><line style="stroke: #A80036; stroke-width: 1.5;" x1="784.5" x2="909.5" y1="410.5" y2="410.5"/><line style="stroke: #A80036; stroke-width: 1.5;" x1="784.5" x2="909.5" y1="418.5" y2="418.5"/><!--MD5=[957eef6538bab7382edbc29d98579a60]
class tictactoe.controllers.Controller--><rect fill="#FEFECE" filter="url(#f168krmyp4qg6e)" height="48" id="tictactoe.controllers.Controller" style="stroke: #A80036; stroke-width: 1.5;" width="86" x="662" y="378.5"/><ellipse cx="677" cy="394.5" fill="#ADD1B2" rx="11" ry="11" style="stroke: #A80036; stroke-width: 1.0;"/><path d="M679.7656,390.375 Q679.9219,390.1563 680.1094,390.0469 Q680.2969,389.9375 680.5156,389.9375 Q680.8906,389.9375 681.125,390.2031 Q681.3594,390.4531 681.3594,391.0625 L681.3594,392.5156 Q681.3594,393.125 681.125,393.3906 Q680.8906,393.6563 680.5156,393.6563 Q680.1719,393.6563 679.9688,393.4531 Q679.7656,393.2656 679.6563,392.75 Q679.6094,392.3906 679.4219,392.2031 Q679.0938,391.8281 678.4844,391.6094 Q677.875,391.3906 677.25,391.3906 Q676.4844,391.3906 675.8438,391.7188 Q675.2188,392.0469 674.7188,392.7969 Q674.2344,393.5469 674.2344,394.5781 L674.2344,395.6719 Q674.2344,396.9063 675.125,397.7344 Q676.0156,398.5469 677.6094,398.5469 Q678.5469,398.5469 679.2031,398.2969 Q679.5938,398.1406 680.0156,397.7031 Q680.2813,397.4375 680.4219,397.3594 Q680.5781,397.2813 680.7813,397.2813 Q681.1094,397.2813 681.3594,397.5469 Q681.625,397.7969 681.625,398.1406 Q681.625,398.4844 681.2813,398.8906 Q680.7813,399.4688 679.9844,399.7969 Q678.9063,400.25 677.6094,400.25 Q676.0938,400.25 674.8906,399.625 Q673.9063,399.125 673.2188,398.0625 Q672.5313,396.9844 672.5313,395.7031 L672.5313,394.5469 Q672.5313,393.2188 673.1406,392.0781 Q673.7656,390.9219 674.8594,390.3125 Q675.9531,389.6875 677.1875,389.6875 Q677.9219,389.6875 678.5625,389.8594 Q679.2188,390.0156 679.7656,390.375 Z "/><text fill="#000000" font-family="sans-serif" font-size="12" lengthAdjust="spacingAndGlyphs" textLength="54" x="691" y="399.4102">Controller</text><line style="stroke: #A80036; stroke-width: 1.5;" x1="663" x2="747" y1="410.5" y2="410.5"/><line style="stroke: #A80036; stroke-width: 1.5;" x1="663" x2="747" y1="418.5" y2="418.5"/><!--MD5=[bae5594b3c63cb06ff2a3325ab17e046]
reverse link tictactoe.controllers.ControllersVisitor to tictactoe.views.View--><path d="M813.205,363.753 C799.77,351.033 783.374,338.04 766,330 C596.867,251.738 512.392,363.184 351,270 C317.587,250.708 292.088,213.544 277.121,187.107 " fill="none" id="tictactoe.controllers.ControllersVisitor&lt;-tictactoe.views.View" style="stroke: #A80036; stroke-width: 1.0;"/><polygon fill="none" points="818.439,359.091,827.499,378.246,808.471,368.922,818.439,359.091" style="stroke: #A80036; stroke-width: 1.0;"/><!--MD5=[25fbbccb190c1d5943cb8f3b7cd08a5b]
link tictactoe.views.View to tictactoe.controllers.Controller--><path d="M277.766,187.035 C293.007,213.048 318.538,249.613 351,270 C455.468,335.608 511.709,274.738 622,330 C644.103,341.075 665.158,359.337 680.532,374.632 " fill="none" id="tictactoe.views.View-&gt;tictactoe.controllers.Controller" style="stroke: #A80036; stroke-width: 1.0; stroke-dasharray: 7.0,7.0;"/><polygon fill="#A80036" points="684.315,378.45,680.8222,369.2413,680.7959,374.8981,675.1391,374.8718,684.315,378.45" style="stroke: #A80036; stroke-width: 1.0;"/><!--MD5=[850cef324a7f3601308ed4cd9ba4a58a]
link tictactoe.views.ErrorView to tictactoe.views.MessageView--><!--MD5=[6c7ccf3e6b6e4bb20767c07f6c25060f]
link tictactoe.views.ErrorView to tictactoe.views.PlayerView--><!--MD5=[6d64bab494cb67cf43532b27e9b103f8]
link tictactoe.views.PlayerView to tictactoe.views.TokenView--><!--MD5=[ad1913877b3edf01e6d5b7c0d5d52e2b]
@startuml

class  tictactoe.views.ErrorView{
+ {static} MESSAGES: String[]
# error: Error
+ ErrorView(Error)
}

enum  tictactoe.views.MessageView{
+ EMPTY: MessageView
+ SEPARATOR: MessageView
+ VERTICAL_LINE_CENTERED: MessageView
+ VERTICAL_LINE_LEFT: MessageView
+	PLAYER_WIN: MessageView
+	START_GAME: MessageView
+	CHOOSE_PLAYER: MessageView
+	READ_ROW: MessageView
+	READ_COLUMN: MessageView
+	ERROR: MessageView
- message: String
- MessageView(String)
+ getMessage(): String
}

class  tictactoe.views.PlayerView{
# player: Player
+ PlayerView(Player)
+ {abstract} readCoordinateToPut(): Coordinate
+ {abstract} readCoordinatesToMove(): Coordinate[]
+ controlErrorsPutCoordinate(Coordinate): Error
+ controlErrorsMoveOriginCoordinate(Coordinate): Error
+ controlErrorsMoveTargetCoordinate(Coordinate, Coordinate): Error
}

class tictactoe.views.TokenView{
- token: Token
+ TokenView(Token)
+ getToken(): char
}

class  tictactoe.views.View{
+ interact(Controller): void
}
tictactoe.controllers.ControllersVisitor <|-down- tictactoe.views.View
tictactoe.views.View ..> tictactoe.controllers.Controller

@enduml

PlantUML version 1.2020.15(Sun Jun 28 13:39:45 CEST 2020)
(GPL source distribution)
Java Runtime: Java(TM) SE Runtime Environment
JVM: Java HotSpot(TM) 64-Bit Server VM
Default Encoding: windows-1252
Language: es
Country: ES
--></g></svg>