<?xml version="1.0" encoding="UTF-8" standalone="no"?><svg xmlns="http://www.w3.org/2000/svg" xmlns:xlink="http://www.w3.org/1999/xlink" contentScriptType="application/ecmascript" contentStyleType="text/css" height="436px" preserveAspectRatio="none" style="width:1000px;height:436px;" version="1.1" viewBox="0 0 1000 436" width="1000px" zoomAndPan="magnify"><defs><filter height="300%" id="f14frs14c1wkm5" width="300%" x="-1" y="-1"><feGaussianBlur result="blurOut" stdDeviation="2.0"/><feColorMatrix in="blurOut" result="blurOut2" type="matrix" values="0 0 0 0 0 0 0 0 0 0 0 0 0 0 0 0 0 0 .4 0"/><feOffset dx="4.0" dy="4.0" in="blurOut2" result="blurOut3"/><feBlend in="SourceGraphic" in2="blurOut3" mode="normal"/></filter></defs><g><!--MD5=[f4e83a21a957c5b9ba9691e6361db36b]
cluster tictactoe.views--><polygon fill="#FFFFFF" filter="url(#f14frs14c1wkm5)" points="16,6,128,6,135,29.6094,978,29.6094,978,300,16,300,16,6" style="stroke: #000000; stroke-width: 1.5;"/><line style="stroke: #000000; stroke-width: 1.5;" x1="16" x2="135" y1="29.6094" y2="29.6094"/><text fill="#000000" font-family="sans-serif" font-size="14" font-weight="bold" lengthAdjust="spacingAndGlyphs" textLength="106" x="20" y="22.5332">tictactoe.views</text><!--MD5=[ee7e9a007a7c4d40c0679a27f272732d]
cluster tictactoe.controllers--><polygon fill="#FFFFFF" filter="url(#f14frs14c1wkm5)" points="16,324,164,324,171,347.6094,441,347.6094,441,424,16,424,16,324" style="stroke: #000000; stroke-width: 1.5;"/><line style="stroke: #000000; stroke-width: 1.5;" x1="16" x2="171" y1="347.6094" y2="347.6094"/><text fill="#000000" font-family="sans-serif" font-size="14" font-weight="bold" lengthAdjust="spacingAndGlyphs" textLength="142" x="20" y="340.5332">tictactoe.controllers</text><!--MD5=[17799e03bfee0ccb3aa03b93da9c26d6]
class tictactoe.views.ErrorView--><rect fill="#FEFECE" filter="url(#f14frs14c1wkm5)" height="89.5078" id="tictactoe.views.ErrorView" style="stroke: #A80036; stroke-width: 1.5;" width="123" x="838.5" y="118"/><ellipse cx="870.6" cy="134" fill="#ADD1B2" rx="11" ry="11" style="stroke: #A80036; stroke-width: 1.0;"/><path d="M873.3656,129.875 Q873.5219,129.6563 873.7094,129.5469 Q873.8969,129.4375 874.1156,129.4375 Q874.4906,129.4375 874.725,129.7031 Q874.9594,129.9531 874.9594,130.5625 L874.9594,132.0156 Q874.9594,132.625 874.725,132.8906 Q874.4906,133.1563 874.1156,133.1563 Q873.7719,133.1563 873.5688,132.9531 Q873.3656,132.7656 873.2563,132.25 Q873.2094,131.8906 873.0219,131.7031 Q872.6938,131.3281 872.0844,131.1094 Q871.475,130.8906 870.85,130.8906 Q870.0844,130.8906 869.4438,131.2188 Q868.8188,131.5469 868.3188,132.2969 Q867.8344,133.0469 867.8344,134.0781 L867.8344,135.1719 Q867.8344,136.4063 868.725,137.2344 Q869.6156,138.0469 871.2094,138.0469 Q872.1469,138.0469 872.8031,137.7969 Q873.1938,137.6406 873.6156,137.2031 Q873.8813,136.9375 874.0219,136.8594 Q874.1781,136.7813 874.3813,136.7813 Q874.7094,136.7813 874.9594,137.0469 Q875.225,137.2969 875.225,137.6406 Q875.225,137.9844 874.8813,138.3906 Q874.3813,138.9688 873.5844,139.2969 Q872.5063,139.75 871.2094,139.75 Q869.6938,139.75 868.4906,139.125 Q867.5063,138.625 866.8188,137.5625 Q866.1313,136.4844 866.1313,135.2031 L866.1313,134.0469 Q866.1313,132.7188 866.7406,131.5781 Q867.3656,130.4219 868.4594,129.8125 Q869.5531,129.1875 870.7875,129.1875 Q871.5219,129.1875 872.1625,129.3594 Q872.8188,129.5156 873.3656,129.875 Z "/><text fill="#000000" font-family="sans-serif" font-size="12" lengthAdjust="spacingAndGlyphs" textLength="53" x="888.4" y="138.9102">ErrorView</text><line style="stroke: #A80036; stroke-width: 1.5;" x1="839.5" x2="960.5" y1="150" y2="150"/><ellipse cx="849.5" cy="161" fill="none" rx="3" ry="3" style="stroke: #038048; stroke-width: 1.0;"/><text fill="#000000" font-family="sans-serif" font-size="11" lengthAdjust="spacingAndGlyphs" text-decoration="underline" textLength="97" x="858.5" y="165.4189">MESSAGES: String[]</text><polygon fill="none" points="849.5,169.8359,853.5,173.8359,849.5,177.8359,845.5,173.8359" style="stroke: #B38D22; stroke-width: 1.0;"/><text fill="#000000" font-family="sans-serif" font-size="11" lengthAdjust="spacingAndGlyphs" textLength="54" x="858.5" y="179.2549">error: Error</text><line style="stroke: #A80036; stroke-width: 1.5;" x1="839.5" x2="960.5" y1="185.6719" y2="185.6719"/><ellipse cx="849.5" cy="196.6719" fill="#84BE84" rx="3" ry="3" style="stroke: #038048; stroke-width: 1.0;"/><text fill="#000000" font-family="sans-serif" font-size="11" lengthAdjust="spacingAndGlyphs" textLength="82" x="858.5" y="201.0908">ErrorView(Error)</text><!--MD5=[ac4b0e0875a820e87662d988d53b2072]
class tictactoe.views.MessageView--><rect fill="#FEFECE" filter="url(#f14frs14c1wkm5)" height="241.7031" id="tictactoe.views.MessageView" style="stroke: #A80036; stroke-width: 1.5;" width="237" x="566.5" y="42"/><ellipse cx="642.25" cy="58" fill="#EB937F" rx="11" ry="11" style="stroke: #A80036; stroke-width: 1.0;"/><path d="M641.1094,58.7969 L641.1094,61.2969 L645.4375,61.2969 L645.4375,60.375 Q645.4375,59.7656 645.6719,59.5 Q645.9219,59.2344 646.2969,59.2344 Q646.6719,59.2344 646.9063,59.5 Q647.1406,59.7656 647.1406,60.375 L647.1406,63 L639.1406,63 Q638.5156,63 638.25,62.7656 Q638,62.5313 638,62.1406 Q638,61.7656 638.2656,61.5313 Q638.5313,61.2969 639.1406,61.2969 L639.4063,61.2969 L639.4063,54.6406 L639.1406,54.6406 Q638.5156,54.6406 638.25,54.4063 Q638,54.1719 638,53.7813 Q638,53.4063 638.25,53.1719 Q638.5156,52.9375 639.1406,52.9375 L646.7656,52.9375 L646.7656,55.5313 Q646.7656,56.1406 646.5313,56.4063 Q646.3125,56.6563 645.9219,56.6563 Q645.5469,56.6563 645.3125,56.4063 Q645.0781,56.1406 645.0781,55.5313 L645.0781,54.6406 L641.1094,54.6406 L641.1094,57.0938 L642.5938,57.0938 Q642.5938,56.4375 642.7188,56.25 Q642.9844,55.8438 643.4531,55.8438 Q643.8281,55.8438 644.0625,56.1094 Q644.2969,56.3594 644.2969,56.9688 L644.2969,58.9375 Q644.2969,59.4844 644.1719,59.6719 Q643.9063,60.0625 643.4531,60.0625 Q642.9844,60.0625 642.7188,59.6563 Q642.5938,59.4688 642.5938,58.7969 L641.1094,58.7969 Z "/><text fill="#000000" font-family="sans-serif" font-size="12" lengthAdjust="spacingAndGlyphs" textLength="77" x="662.75" y="62.9102">MessageView</text><line style="stroke: #A80036; stroke-width: 1.5;" x1="567.5" x2="802.5" y1="74" y2="74"/><ellipse cx="577.5" cy="85" fill="none" rx="3" ry="3" style="stroke: #038048; stroke-width: 1.0;"/><text fill="#000000" font-family="sans-serif" font-size="11" lengthAdjust="spacingAndGlyphs" textLength="110" x="586.5" y="89.4189">EMPTY: MessageView</text><ellipse cx="577.5" cy="98.8359" fill="none" rx="3" ry="3" style="stroke: #038048; stroke-width: 1.0;"/><text fill="#000000" font-family="sans-serif" font-size="11" lengthAdjust="spacingAndGlyphs" textLength="139" x="586.5" y="103.2549">SEPARATOR: MessageView</text><ellipse cx="577.5" cy="112.6719" fill="none" rx="3" ry="3" style="stroke: #038048; stroke-width: 1.0;"/><text fill="#000000" font-family="sans-serif" font-size="11" lengthAdjust="spacingAndGlyphs" textLength="211" x="586.5" y="117.0908">VERTICAL_LINE_CENTERED: MessageView</text><ellipse cx="577.5" cy="126.5078" fill="none" rx="3" ry="3" style="stroke: #038048; stroke-width: 1.0;"/><text fill="#000000" font-family="sans-serif" font-size="11" lengthAdjust="spacingAndGlyphs" textLength="183" x="586.5" y="130.9268">VERTICAL_LINE_LEFT: MessageView</text><ellipse cx="577.5" cy="140.3438" fill="none" rx="3" ry="3" style="stroke: #038048; stroke-width: 1.0;"/><text fill="#000000" font-family="sans-serif" font-size="11" lengthAdjust="spacingAndGlyphs" textLength="142" x="586.5" y="144.7627">PLAYER_WIN: MessageView</text><ellipse cx="577.5" cy="154.1797" fill="none" rx="3" ry="3" style="stroke: #038048; stroke-width: 1.0;"/><text fill="#000000" font-family="sans-serif" font-size="11" lengthAdjust="spacingAndGlyphs" textLength="146" x="586.5" y="158.5986">START_GAME: MessageView</text><ellipse cx="577.5" cy="168.0156" fill="none" rx="3" ry="3" style="stroke: #038048; stroke-width: 1.0;"/><text fill="#000000" font-family="sans-serif" font-size="11" lengthAdjust="spacingAndGlyphs" textLength="166" x="586.5" y="172.4346">CHOOSE_PLAYER: MessageView</text><ellipse cx="577.5" cy="181.8516" fill="none" rx="3" ry="3" style="stroke: #038048; stroke-width: 1.0;"/><text fill="#000000" font-family="sans-serif" font-size="11" lengthAdjust="spacingAndGlyphs" textLength="135" x="586.5" y="186.2705">READ_ROW: MessageView</text><ellipse cx="577.5" cy="195.6875" fill="none" rx="3" ry="3" style="stroke: #038048; stroke-width: 1.0;"/><text fill="#000000" font-family="sans-serif" font-size="11" lengthAdjust="spacingAndGlyphs" textLength="153" x="586.5" y="200.1064">READ_COLUMN: MessageView</text><ellipse cx="577.5" cy="209.5234" fill="none" rx="3" ry="3" style="stroke: #038048; stroke-width: 1.0;"/><text fill="#000000" font-family="sans-serif" font-size="11" lengthAdjust="spacingAndGlyphs" textLength="111" x="586.5" y="213.9424">ERROR: MessageView</text><ellipse cx="577.5" cy="223.3594" fill="none" rx="3" ry="3" style="stroke: #038048; stroke-width: 1.0;"/><text fill="#000000" font-family="sans-serif" font-size="11" lengthAdjust="spacingAndGlyphs" textLength="117" x="586.5" y="227.7783">RESUME: MessageView</text><rect fill="none" height="6" style="stroke: #C82930; stroke-width: 1.0;" width="6" x="574.5" y="234.1953"/><text fill="#000000" font-family="sans-serif" font-size="11" lengthAdjust="spacingAndGlyphs" textLength="78" x="586.5" y="241.6143">message: String</text><line style="stroke: #A80036; stroke-width: 1.5;" x1="567.5" x2="802.5" y1="248.0313" y2="248.0313"/><rect fill="#F24D5C" height="6" style="stroke: #C82930; stroke-width: 1.0;" width="6" x="574.5" y="256.0313"/><text fill="#000000" font-family="sans-serif" font-size="11" lengthAdjust="spacingAndGlyphs" textLength="106" x="586.5" y="263.4502">MessageView(String)</text><ellipse cx="577.5" cy="272.8672" fill="#84BE84" rx="3" ry="3" style="stroke: #038048; stroke-width: 1.0;"/><text fill="#000000" font-family="sans-serif" font-size="11" lengthAdjust="spacingAndGlyphs" textLength="101" x="586.5" y="277.2861">getMessage(): String</text><!--MD5=[2ae15d20e7f22fd333327d3852982126]
class tictactoe.views.PlayerView--><rect fill="#FEFECE" filter="url(#f14frs14c1wkm5)" height="144.8516" id="tictactoe.views.PlayerView" style="stroke: #A80036; stroke-width: 1.5;" width="322" x="209" y="90.5"/><ellipse cx="335.75" cy="106.5" fill="#ADD1B2" rx="11" ry="11" style="stroke: #A80036; stroke-width: 1.0;"/><path d="M338.5156,102.375 Q338.6719,102.1563 338.8594,102.0469 Q339.0469,101.9375 339.2656,101.9375 Q339.6406,101.9375 339.875,102.2031 Q340.1094,102.4531 340.1094,103.0625 L340.1094,104.5156 Q340.1094,105.125 339.875,105.3906 Q339.6406,105.6563 339.2656,105.6563 Q338.9219,105.6563 338.7188,105.4531 Q338.5156,105.2656 338.4063,104.75 Q338.3594,104.3906 338.1719,104.2031 Q337.8438,103.8281 337.2344,103.6094 Q336.625,103.3906 336,103.3906 Q335.2344,103.3906 334.5938,103.7188 Q333.9688,104.0469 333.4688,104.7969 Q332.9844,105.5469 332.9844,106.5781 L332.9844,107.6719 Q332.9844,108.9063 333.875,109.7344 Q334.7656,110.5469 336.3594,110.5469 Q337.2969,110.5469 337.9531,110.2969 Q338.3438,110.1406 338.7656,109.7031 Q339.0313,109.4375 339.1719,109.3594 Q339.3281,109.2813 339.5313,109.2813 Q339.8594,109.2813 340.1094,109.5469 Q340.375,109.7969 340.375,110.1406 Q340.375,110.4844 340.0313,110.8906 Q339.5313,111.4688 338.7344,111.7969 Q337.6563,112.25 336.3594,112.25 Q334.8438,112.25 333.6406,111.625 Q332.6563,111.125 331.9688,110.0625 Q331.2813,108.9844 331.2813,107.7031 L331.2813,106.5469 Q331.2813,105.2188 331.8906,104.0781 Q332.5156,102.9219 333.6094,102.3125 Q334.7031,101.6875 335.9375,101.6875 Q336.6719,101.6875 337.3125,101.8594 Q337.9688,102.0156 338.5156,102.375 Z "/><text fill="#000000" font-family="sans-serif" font-size="12" lengthAdjust="spacingAndGlyphs" textLength="60" x="356.25" y="111.4102">PlayerView</text><line style="stroke: #A80036; stroke-width: 1.5;" x1="210" x2="530" y1="122.5" y2="122.5"/><polygon fill="none" points="220,128.5,224,132.5,220,136.5,216,132.5" style="stroke: #B38D22; stroke-width: 1.0;"/><text fill="#000000" font-family="sans-serif" font-size="11" lengthAdjust="spacingAndGlyphs" textLength="138" x="229" y="137.9189">playController: PlayController</text><line style="stroke: #A80036; stroke-width: 1.5;" x1="210" x2="530" y1="144.3359" y2="144.3359"/><ellipse cx="220" cy="155.3359" fill="#84BE84" rx="3" ry="3" style="stroke: #038048; stroke-width: 1.0;"/><text fill="#000000" font-family="sans-serif" font-size="11" lengthAdjust="spacingAndGlyphs" textLength="130" x="229" y="159.7549">PlayerView(PlayController)</text><ellipse cx="220" cy="169.1719" fill="#84BE84" rx="3" ry="3" style="stroke: #038048; stroke-width: 1.0;"/><text fill="#000000" font-family="sans-serif" font-size="11" font-style="italic" lengthAdjust="spacingAndGlyphs" textLength="173" x="229" y="173.5908">readCoordinateToPut(): Coordinate</text><ellipse cx="220" cy="183.0078" fill="#84BE84" rx="3" ry="3" style="stroke: #038048; stroke-width: 1.0;"/><text fill="#000000" font-family="sans-serif" font-size="11" font-style="italic" lengthAdjust="spacingAndGlyphs" textLength="195" x="229" y="187.4268">readCoordinatesToMove(): Coordinate[]</text><ellipse cx="220" cy="196.8438" fill="#84BE84" rx="3" ry="3" style="stroke: #038048; stroke-width: 1.0;"/><text fill="#000000" font-family="sans-serif" font-size="11" lengthAdjust="spacingAndGlyphs" textLength="196" x="229" y="201.2627">getPutCoordinateError(Coordinate): Error</text><ellipse cx="220" cy="210.6797" fill="#84BE84" rx="3" ry="3" style="stroke: #038048; stroke-width: 1.0;"/><text fill="#000000" font-family="sans-serif" font-size="11" lengthAdjust="spacingAndGlyphs" textLength="235" x="229" y="215.0986">getMoveOriginCoordinateError(Coordinate): Error</text><ellipse cx="220" cy="224.5156" fill="#84BE84" rx="3" ry="3" style="stroke: #038048; stroke-width: 1.0;"/><text fill="#000000" font-family="sans-serif" font-size="11" lengthAdjust="spacingAndGlyphs" textLength="296" x="229" y="228.9346">getMoveTargetCoordinateError(Coordinate, Coordinate): Error</text><!--MD5=[015754420c4cdd9bacda884b3fa8c6ca]
class tictactoe.views.View--><rect fill="#FEFECE" filter="url(#f14frs14c1wkm5)" height="61.8359" id="tictactoe.views.View" style="stroke: #A80036; stroke-width: 1.5;" width="142" x="32" y="132"/><ellipse cx="85.75" cy="148" fill="#ADD1B2" rx="11" ry="11" style="stroke: #A80036; stroke-width: 1.0;"/><path d="M88.5156,143.875 Q88.6719,143.6563 88.8594,143.5469 Q89.0469,143.4375 89.2656,143.4375 Q89.6406,143.4375 89.875,143.7031 Q90.1094,143.9531 90.1094,144.5625 L90.1094,146.0156 Q90.1094,146.625 89.875,146.8906 Q89.6406,147.1563 89.2656,147.1563 Q88.9219,147.1563 88.7188,146.9531 Q88.5156,146.7656 88.4063,146.25 Q88.3594,145.8906 88.1719,145.7031 Q87.8438,145.3281 87.2344,145.1094 Q86.625,144.8906 86,144.8906 Q85.2344,144.8906 84.5938,145.2188 Q83.9688,145.5469 83.4688,146.2969 Q82.9844,147.0469 82.9844,148.0781 L82.9844,149.1719 Q82.9844,150.4063 83.875,151.2344 Q84.7656,152.0469 86.3594,152.0469 Q87.2969,152.0469 87.9531,151.7969 Q88.3438,151.6406 88.7656,151.2031 Q89.0313,150.9375 89.1719,150.8594 Q89.3281,150.7813 89.5313,150.7813 Q89.8594,150.7813 90.1094,151.0469 Q90.375,151.2969 90.375,151.6406 Q90.375,151.9844 90.0313,152.3906 Q89.5313,152.9688 88.7344,153.2969 Q87.6563,153.75 86.3594,153.75 Q84.8438,153.75 83.6406,153.125 Q82.6563,152.625 81.9688,151.5625 Q81.2813,150.4844 81.2813,149.2031 L81.2813,148.0469 Q81.2813,146.7188 81.8906,145.5781 Q82.5156,144.4219 83.6094,143.8125 Q84.7031,143.1875 85.9375,143.1875 Q86.6719,143.1875 87.3125,143.3594 Q87.9688,143.5156 88.5156,143.875 Z "/><text fill="#000000" font-family="sans-serif" font-size="12" lengthAdjust="spacingAndGlyphs" textLength="26" x="106.25" y="152.9102">View</text><line style="stroke: #A80036; stroke-width: 1.5;" x1="33" x2="173" y1="164" y2="164"/><line style="stroke: #A80036; stroke-width: 1.5;" x1="33" x2="173" y1="172" y2="172"/><ellipse cx="43" cy="183" fill="#84BE84" rx="3" ry="3" style="stroke: #038048; stroke-width: 1.0;"/><text fill="#000000" font-family="sans-serif" font-size="11" lengthAdjust="spacingAndGlyphs" textLength="116" x="52" y="187.4189">interact(Controller): void</text><!--MD5=[b574e60c06c50037ff1b014277a67d62]
class tictactoe.controllers.PlayController--><rect fill="#FEFECE" filter="url(#f14frs14c1wkm5)" height="48" id="tictactoe.controllers.PlayController" style="stroke: #A80036; stroke-width: 1.5;" width="109" x="315.5" y="360"/><ellipse cx="330.5" cy="376" fill="#ADD1B2" rx="11" ry="11" style="stroke: #A80036; stroke-width: 1.0;"/><path d="M333.2656,371.875 Q333.4219,371.6563 333.6094,371.5469 Q333.7969,371.4375 334.0156,371.4375 Q334.3906,371.4375 334.625,371.7031 Q334.8594,371.9531 334.8594,372.5625 L334.8594,374.0156 Q334.8594,374.625 334.625,374.8906 Q334.3906,375.1563 334.0156,375.1563 Q333.6719,375.1563 333.4688,374.9531 Q333.2656,374.7656 333.1563,374.25 Q333.1094,373.8906 332.9219,373.7031 Q332.5938,373.3281 331.9844,373.1094 Q331.375,372.8906 330.75,372.8906 Q329.9844,372.8906 329.3438,373.2188 Q328.7188,373.5469 328.2188,374.2969 Q327.7344,375.0469 327.7344,376.0781 L327.7344,377.1719 Q327.7344,378.4063 328.625,379.2344 Q329.5156,380.0469 331.1094,380.0469 Q332.0469,380.0469 332.7031,379.7969 Q333.0938,379.6406 333.5156,379.2031 Q333.7813,378.9375 333.9219,378.8594 Q334.0781,378.7813 334.2813,378.7813 Q334.6094,378.7813 334.8594,379.0469 Q335.125,379.2969 335.125,379.6406 Q335.125,379.9844 334.7813,380.3906 Q334.2813,380.9688 333.4844,381.2969 Q332.4063,381.75 331.1094,381.75 Q329.5938,381.75 328.3906,381.125 Q327.4063,380.625 326.7188,379.5625 Q326.0313,378.4844 326.0313,377.2031 L326.0313,376.0469 Q326.0313,374.7188 326.6406,373.5781 Q327.2656,372.4219 328.3594,371.8125 Q329.4531,371.1875 330.6875,371.1875 Q331.4219,371.1875 332.0625,371.3594 Q332.7188,371.5156 333.2656,371.875 Z "/><text fill="#000000" font-family="sans-serif" font-size="12" lengthAdjust="spacingAndGlyphs" textLength="77" x="344.5" y="380.9102">PlayController</text><line style="stroke: #A80036; stroke-width: 1.5;" x1="316.5" x2="423.5" y1="392" y2="392"/><line style="stroke: #A80036; stroke-width: 1.5;" x1="316.5" x2="423.5" y1="400" y2="400"/><!--MD5=[cd4f094777041ea0b287ad7c5b510f06]
class tictactoe.controllers.ControllersVisitor--><rect fill="#FEFECE" filter="url(#f14frs14c1wkm5)" height="48" id="tictactoe.controllers.ControllersVisitor" style="stroke: #A80036; stroke-width: 1.5;" width="127" x="153.5" y="360"/><ellipse cx="168.5" cy="376" fill="#ADD1B2" rx="11" ry="11" style="stroke: #A80036; stroke-width: 1.0;"/><path d="M171.2656,371.875 Q171.4219,371.6563 171.6094,371.5469 Q171.7969,371.4375 172.0156,371.4375 Q172.3906,371.4375 172.625,371.7031 Q172.8594,371.9531 172.8594,372.5625 L172.8594,374.0156 Q172.8594,374.625 172.625,374.8906 Q172.3906,375.1563 172.0156,375.1563 Q171.6719,375.1563 171.4688,374.9531 Q171.2656,374.7656 171.1563,374.25 Q171.1094,373.8906 170.9219,373.7031 Q170.5938,373.3281 169.9844,373.1094 Q169.375,372.8906 168.75,372.8906 Q167.9844,372.8906 167.3438,373.2188 Q166.7188,373.5469 166.2188,374.2969 Q165.7344,375.0469 165.7344,376.0781 L165.7344,377.1719 Q165.7344,378.4063 166.625,379.2344 Q167.5156,380.0469 169.1094,380.0469 Q170.0469,380.0469 170.7031,379.7969 Q171.0938,379.6406 171.5156,379.2031 Q171.7813,378.9375 171.9219,378.8594 Q172.0781,378.7813 172.2813,378.7813 Q172.6094,378.7813 172.8594,379.0469 Q173.125,379.2969 173.125,379.6406 Q173.125,379.9844 172.7813,380.3906 Q172.2813,380.9688 171.4844,381.2969 Q170.4063,381.75 169.1094,381.75 Q167.5938,381.75 166.3906,381.125 Q165.4063,380.625 164.7188,379.5625 Q164.0313,378.4844 164.0313,377.2031 L164.0313,376.0469 Q164.0313,374.7188 164.6406,373.5781 Q165.2656,372.4219 166.3594,371.8125 Q167.4531,371.1875 168.6875,371.1875 Q169.4219,371.1875 170.0625,371.3594 Q170.7188,371.5156 171.2656,371.875 Z "/><text fill="#000000" font-family="sans-serif" font-size="12" lengthAdjust="spacingAndGlyphs" textLength="95" x="182.5" y="380.9102">ControllersVisitor</text><line style="stroke: #A80036; stroke-width: 1.5;" x1="154.5" x2="279.5" y1="392" y2="392"/><line style="stroke: #A80036; stroke-width: 1.5;" x1="154.5" x2="279.5" y1="400" y2="400"/><!--MD5=[957eef6538bab7382edbc29d98579a60]
class tictactoe.controllers.Controller--><rect fill="#FEFECE" filter="url(#f14frs14c1wkm5)" height="48" id="tictactoe.controllers.Controller" style="stroke: #A80036; stroke-width: 1.5;" width="86" x="32" y="360"/><ellipse cx="47" cy="376" fill="#ADD1B2" rx="11" ry="11" style="stroke: #A80036; stroke-width: 1.0;"/><path d="M49.7656,371.875 Q49.9219,371.6563 50.1094,371.5469 Q50.2969,371.4375 50.5156,371.4375 Q50.8906,371.4375 51.125,371.7031 Q51.3594,371.9531 51.3594,372.5625 L51.3594,374.0156 Q51.3594,374.625 51.125,374.8906 Q50.8906,375.1563 50.5156,375.1563 Q50.1719,375.1563 49.9688,374.9531 Q49.7656,374.7656 49.6563,374.25 Q49.6094,373.8906 49.4219,373.7031 Q49.0938,373.3281 48.4844,373.1094 Q47.875,372.8906 47.25,372.8906 Q46.4844,372.8906 45.8438,373.2188 Q45.2188,373.5469 44.7188,374.2969 Q44.2344,375.0469 44.2344,376.0781 L44.2344,377.1719 Q44.2344,378.4063 45.125,379.2344 Q46.0156,380.0469 47.6094,380.0469 Q48.5469,380.0469 49.2031,379.7969 Q49.5938,379.6406 50.0156,379.2031 Q50.2813,378.9375 50.4219,378.8594 Q50.5781,378.7813 50.7813,378.7813 Q51.1094,378.7813 51.3594,379.0469 Q51.625,379.2969 51.625,379.6406 Q51.625,379.9844 51.2813,380.3906 Q50.7813,380.9688 49.9844,381.2969 Q48.9063,381.75 47.6094,381.75 Q46.0938,381.75 44.8906,381.125 Q43.9063,380.625 43.2188,379.5625 Q42.5313,378.4844 42.5313,377.2031 L42.5313,376.0469 Q42.5313,374.7188 43.1406,373.5781 Q43.7656,372.4219 44.8594,371.8125 Q45.9531,371.1875 47.1875,371.1875 Q47.9219,371.1875 48.5625,371.3594 Q49.2188,371.5156 49.7656,371.875 Z "/><text fill="#000000" font-family="sans-serif" font-size="12" lengthAdjust="spacingAndGlyphs" textLength="54" x="61" y="380.9102">Controller</text><line style="stroke: #A80036; stroke-width: 1.5;" x1="33" x2="117" y1="392" y2="392"/><line style="stroke: #A80036; stroke-width: 1.5;" x1="33" x2="117" y1="400" y2="400"/><!--MD5=[cc7593614f05ee4a6cb72794fd99c0f8]
link tictactoe.views.PlayerView to tictactoe.controllers.PlayController--><path d="M370,235.709 C370,276.392 370,325.009 370,354.9452 " fill="none" id="tictactoe.views.PlayerView-&gt;tictactoe.controllers.PlayController" style="stroke: #A80036; stroke-width: 1.0; stroke-dasharray: 7.0,7.0;"/><polygon fill="#A80036" points="370,359.9481,374,350.9481,370,354.9481,366,350.9481,370,359.9481" style="stroke: #A80036; stroke-width: 1.0;"/><!--MD5=[bae5594b3c63cb06ff2a3325ab17e046]
reverse link tictactoe.controllers.ControllersVisitor to tictactoe.views.View--><path d="M195.639,341.9648 C173.329,299.105 138.853,232.875 118.851,194.451 " fill="none" id="tictactoe.controllers.ControllersVisitor&lt;-tictactoe.views.View" style="stroke: #A80036; stroke-width: 1.0;"/><polygon fill="none" points="201.913,338.856,204.938,359.8287,189.494,345.3205,201.913,338.856" style="stroke: #A80036; stroke-width: 1.0;"/><!--MD5=[25fbbccb190c1d5943cb8f3b7cd08a5b]
link tictactoe.views.View to tictactoe.controllers.Controller--><path d="M99.1067,194.451 C93.674,236.942 83.8937,313.439 78.6145,354.7293 " fill="none" id="tictactoe.views.View-&gt;tictactoe.controllers.Controller" style="stroke: #A80036; stroke-width: 1.0; stroke-dasharray: 7.0,7.0;"/><polygon fill="#A80036" points="77.9625,359.8287,83.0717,351.4087,78.5966,354.8691,75.1363,350.3941,77.9625,359.8287" style="stroke: #A80036; stroke-width: 1.0;"/><!--MD5=[a8b1c53403f5974b623bf50e233aca57]
@startuml

class  tictactoe.views.ErrorView{
+ {static} MESSAGES: String[]
# error: Error
+ ErrorView(Error)
}

enum  tictactoe.views.MessageView{
+ EMPTY: MessageView
+ SEPARATOR: MessageView
+ VERTICAL_LINE_CENTERED: MessageView
+ VERTICAL_LINE_LEFT: MessageView
+	PLAYER_WIN: MessageView
+	START_GAME: MessageView
+	CHOOSE_PLAYER: MessageView
+	READ_ROW: MessageView
+	READ_COLUMN: MessageView
+	ERROR: MessageView
+ RESUME: MessageView
- message: String
- MessageView(String)
+ getMessage(): String
}

class  tictactoe.views.PlayerView{
# playController: PlayController
+ PlayerView(PlayController)
+ {abstract} readCoordinateToPut(): Coordinate
+ {abstract} readCoordinatesToMove(): Coordinate[]
+ getPutCoordinateError(Coordinate): Error
+ getMoveOriginCoordinateError(Coordinate): Error
+ getMoveTargetCoordinateError(Coordinate, Coordinate): Error
}
tictactoe.views.PlayerView ..> tictactoe.controllers.PlayController

class  tictactoe.views.View{
+ interact(Controller): void
}
tictactoe.controllers.ControllersVisitor <|-down- tictactoe.views.View
tictactoe.views.View ..> tictactoe.controllers.Controller

@enduml

PlantUML version 1.2020.15(Sun Jun 28 13:39:45 CEST 2020)
(GPL source distribution)
Java Runtime: Java(TM) SE Runtime Environment
JVM: Java HotSpot(TM) 64-Bit Server VM
Default Encoding: windows-1252
Language: es
Country: ES
--></g></svg>