<?xml version="1.0" encoding="UTF-8" standalone="no"?><svg xmlns="http://www.w3.org/2000/svg" xmlns:xlink="http://www.w3.org/1999/xlink" contentScriptType="application/ecmascript" contentStyleType="text/css" height="707px" preserveAspectRatio="none" style="width:1067px;height:707px;" version="1.1" viewBox="0 0 1067 707" width="1067px" zoomAndPan="magnify"><defs><filter height="300%" id="f1sgbetksf1oca" width="300%" x="-1" y="-1"><feGaussianBlur result="blurOut" stdDeviation="2.0"/><feColorMatrix in="blurOut" result="blurOut2" type="matrix" values="0 0 0 0 0 0 0 0 0 0 0 0 0 0 0 0 0 0 .4 0"/><feOffset dx="4.0" dy="4.0" in="blurOut2" result="blurOut3"/><feBlend in="SourceGraphic" in2="blurOut3" mode="normal"/></filter></defs><g><!--MD5=[ee7e9a007a7c4d40c0679a27f272732d]
cluster tictactoe.controllers--><polygon fill="#FFFFFF" filter="url(#f1sgbetksf1oca)" points="16,6,164,6,171,29.6094,700,29.6094,700,571,16,571,16,6" style="stroke: #000000; stroke-width: 1.5;"/><line style="stroke: #000000; stroke-width: 1.5;" x1="16" x2="171" y1="29.6094" y2="29.6094"/><text fill="#000000" font-family="sans-serif" font-size="14" font-weight="bold" lengthAdjust="spacingAndGlyphs" textLength="142" x="20" y="22.5332">tictactoe.controllers</text><!--MD5=[51cd642fcc96b47682a93d9084d46dec]
cluster tictactoe.models--><polygon fill="#FFFFFF" filter="url(#f1sgbetksf1oca)" points="596,595,718,595,725,618.6094,1045,618.6094,1045,695,596,695,596,595" style="stroke: #000000; stroke-width: 1.5;"/><line style="stroke: #000000; stroke-width: 1.5;" x1="596" x2="725" y1="618.6094" y2="618.6094"/><text fill="#000000" font-family="sans-serif" font-size="14" font-weight="bold" lengthAdjust="spacingAndGlyphs" textLength="116" x="600" y="611.5332">tictactoe.models</text><!--MD5=[957eef6538bab7382edbc29d98579a60]
class tictactoe.controllers.Controller--><rect fill="#FEFECE" filter="url(#f1sgbetksf1oca)" height="103.3438" id="tictactoe.controllers.Controller" style="stroke: #A80036; stroke-width: 1.5;" width="139" x="497.5" y="219"/><ellipse cx="536.35" cy="235" fill="#ADD1B2" rx="11" ry="11" style="stroke: #A80036; stroke-width: 1.0;"/><path d="M539.1156,230.875 Q539.2719,230.6563 539.4594,230.5469 Q539.6469,230.4375 539.8656,230.4375 Q540.2406,230.4375 540.475,230.7031 Q540.7094,230.9531 540.7094,231.5625 L540.7094,233.0156 Q540.7094,233.625 540.475,233.8906 Q540.2406,234.1563 539.8656,234.1563 Q539.5219,234.1563 539.3188,233.9531 Q539.1156,233.7656 539.0063,233.25 Q538.9594,232.8906 538.7719,232.7031 Q538.4438,232.3281 537.8344,232.1094 Q537.225,231.8906 536.6,231.8906 Q535.8344,231.8906 535.1938,232.2188 Q534.5688,232.5469 534.0688,233.2969 Q533.5844,234.0469 533.5844,235.0781 L533.5844,236.1719 Q533.5844,237.4063 534.475,238.2344 Q535.3656,239.0469 536.9594,239.0469 Q537.8969,239.0469 538.5531,238.7969 Q538.9438,238.6406 539.3656,238.2031 Q539.6313,237.9375 539.7719,237.8594 Q539.9281,237.7813 540.1313,237.7813 Q540.4594,237.7813 540.7094,238.0469 Q540.975,238.2969 540.975,238.6406 Q540.975,238.9844 540.6313,239.3906 Q540.1313,239.9688 539.3344,240.2969 Q538.2563,240.75 536.9594,240.75 Q535.4438,240.75 534.2406,240.125 Q533.2563,239.625 532.5688,238.5625 Q531.8813,237.4844 531.8813,236.2031 L531.8813,235.0469 Q531.8813,233.7188 532.4906,232.5781 Q533.1156,231.4219 534.2094,230.8125 Q535.3031,230.1875 536.5375,230.1875 Q537.2719,230.1875 537.9125,230.3594 Q538.5688,230.5156 539.1156,230.875 Z "/><text fill="#000000" font-family="sans-serif" font-size="12" lengthAdjust="spacingAndGlyphs" textLength="54" x="555.65" y="239.9102">Controller</text><line style="stroke: #A80036; stroke-width: 1.5;" x1="498.5" x2="635.5" y1="251" y2="251"/><polygon fill="none" points="508.5,257,512.5,261,508.5,265,504.5,261" style="stroke: #B38D22; stroke-width: 1.0;"/><text fill="#000000" font-family="sans-serif" font-size="11" lengthAdjust="spacingAndGlyphs" textLength="60" x="517.5" y="266.4189">game: Game</text><polygon fill="none" points="508.5,270.8359,512.5,274.8359,508.5,278.8359,504.5,274.8359" style="stroke: #B38D22; stroke-width: 1.0;"/><text fill="#000000" font-family="sans-serif" font-size="11" lengthAdjust="spacingAndGlyphs" textLength="55" x="517.5" y="280.2549">state: State</text><line style="stroke: #A80036; stroke-width: 1.5;" x1="498.5" x2="635.5" y1="286.6719" y2="286.6719"/><polygon fill="#4177AF" points="508.5,293.6719,504.5,299.6719,512.5,299.6719" style="stroke: #1963A0; stroke-width: 1.0;"/><text fill="#000000" font-family="sans-serif" font-size="11" lengthAdjust="spacingAndGlyphs" textLength="113" x="517.5" y="302.0908">Controller(Game, State)</text><ellipse cx="508.5" cy="311.5078" fill="#84BE84" rx="3" ry="3" style="stroke: #038048; stroke-width: 1.0;"/><text fill="#000000" font-family="sans-serif" font-size="11" lengthAdjust="spacingAndGlyphs" textLength="87" x="517.5" y="315.9268">getBoard(): Board</text><!--MD5=[3b8962fd5847b9038b2e29740dae8054]
class tictactoe.controllers.Logic--><rect fill="#FEFECE" filter="url(#f1sgbetksf1oca)" height="117.1797" id="tictactoe.controllers.Logic" style="stroke: #A80036; stroke-width: 1.5;" width="220" x="464" y="42"/><ellipse cx="554.75" cy="58" fill="#ADD1B2" rx="11" ry="11" style="stroke: #A80036; stroke-width: 1.0;"/><path d="M557.5156,53.875 Q557.6719,53.6563 557.8594,53.5469 Q558.0469,53.4375 558.2656,53.4375 Q558.6406,53.4375 558.875,53.7031 Q559.1094,53.9531 559.1094,54.5625 L559.1094,56.0156 Q559.1094,56.625 558.875,56.8906 Q558.6406,57.1563 558.2656,57.1563 Q557.9219,57.1563 557.7188,56.9531 Q557.5156,56.7656 557.4063,56.25 Q557.3594,55.8906 557.1719,55.7031 Q556.8438,55.3281 556.2344,55.1094 Q555.625,54.8906 555,54.8906 Q554.2344,54.8906 553.5938,55.2188 Q552.9688,55.5469 552.4688,56.2969 Q551.9844,57.0469 551.9844,58.0781 L551.9844,59.1719 Q551.9844,60.4063 552.875,61.2344 Q553.7656,62.0469 555.3594,62.0469 Q556.2969,62.0469 556.9531,61.7969 Q557.3438,61.6406 557.7656,61.2031 Q558.0313,60.9375 558.1719,60.8594 Q558.3281,60.7813 558.5313,60.7813 Q558.8594,60.7813 559.1094,61.0469 Q559.375,61.2969 559.375,61.6406 Q559.375,61.9844 559.0313,62.3906 Q558.5313,62.9688 557.7344,63.2969 Q556.6563,63.75 555.3594,63.75 Q553.8438,63.75 552.6406,63.125 Q551.6563,62.625 550.9688,61.5625 Q550.2813,60.4844 550.2813,59.2031 L550.2813,58.0469 Q550.2813,56.7188 550.8906,55.5781 Q551.5156,54.4219 552.6094,53.8125 Q553.7031,53.1875 554.9375,53.1875 Q555.6719,53.1875 556.3125,53.3594 Q556.9688,53.5156 557.5156,53.875 Z "/><text fill="#000000" font-family="sans-serif" font-size="12" lengthAdjust="spacingAndGlyphs" textLength="30" x="575.25" y="62.9102">Logic</text><line style="stroke: #A80036; stroke-width: 1.5;" x1="465" x2="683" y1="74" y2="74"/><rect fill="none" height="6" style="stroke: #C82930; stroke-width: 1.0;" width="6" x="472" y="82"/><text fill="#000000" font-family="sans-serif" font-size="11" lengthAdjust="spacingAndGlyphs" textLength="55" x="484" y="89.4189">state: State</text><rect fill="none" height="6" style="stroke: #C82930; stroke-width: 1.0;" width="6" x="472" y="95.8359"/><text fill="#000000" font-family="sans-serif" font-size="11" lengthAdjust="spacingAndGlyphs" textLength="60" x="484" y="103.2549">game: Game</text><rect fill="none" height="6" style="stroke: #C82930; stroke-width: 1.0;" width="6" x="472" y="109.6719"/><text fill="#000000" font-family="sans-serif" font-size="11" lengthAdjust="spacingAndGlyphs" textLength="194" x="484" y="117.0908">controllers: Map&lt;StateValue, Controller&gt;</text><line style="stroke: #A80036; stroke-width: 1.5;" x1="465" x2="683" y1="123.5078" y2="123.5078"/><ellipse cx="475" cy="134.5078" fill="#84BE84" rx="3" ry="3" style="stroke: #038048; stroke-width: 1.0;"/><text fill="#000000" font-family="sans-serif" font-size="11" lengthAdjust="spacingAndGlyphs" textLength="34" x="484" y="138.9268">Logic()</text><ellipse cx="475" cy="148.3438" fill="#84BE84" rx="3" ry="3" style="stroke: #038048; stroke-width: 1.0;"/><text fill="#000000" font-family="sans-serif" font-size="11" lengthAdjust="spacingAndGlyphs" textLength="121" x="484" y="152.7627">getController(): Controller</text><!--MD5=[b574e60c06c50037ff1b014277a67d62]
class tictactoe.controllers.PlayController--><rect fill="#FEFECE" filter="url(#f1sgbetksf1oca)" height="172.5234" id="tictactoe.controllers.PlayController" style="stroke: #A80036; stroke-width: 1.5;" width="249" x="434.5" y="382"/><ellipse cx="516.25" cy="398" fill="#ADD1B2" rx="11" ry="11" style="stroke: #A80036; stroke-width: 1.0;"/><path d="M519.0156,393.875 Q519.1719,393.6563 519.3594,393.5469 Q519.5469,393.4375 519.7656,393.4375 Q520.1406,393.4375 520.375,393.7031 Q520.6094,393.9531 520.6094,394.5625 L520.6094,396.0156 Q520.6094,396.625 520.375,396.8906 Q520.1406,397.1563 519.7656,397.1563 Q519.4219,397.1563 519.2188,396.9531 Q519.0156,396.7656 518.9063,396.25 Q518.8594,395.8906 518.6719,395.7031 Q518.3438,395.3281 517.7344,395.1094 Q517.125,394.8906 516.5,394.8906 Q515.7344,394.8906 515.0938,395.2188 Q514.4688,395.5469 513.9688,396.2969 Q513.4844,397.0469 513.4844,398.0781 L513.4844,399.1719 Q513.4844,400.4063 514.375,401.2344 Q515.2656,402.0469 516.8594,402.0469 Q517.7969,402.0469 518.4531,401.7969 Q518.8438,401.6406 519.2656,401.2031 Q519.5313,400.9375 519.6719,400.8594 Q519.8281,400.7813 520.0313,400.7813 Q520.3594,400.7813 520.6094,401.0469 Q520.875,401.2969 520.875,401.6406 Q520.875,401.9844 520.5313,402.3906 Q520.0313,402.9688 519.2344,403.2969 Q518.1563,403.75 516.8594,403.75 Q515.3438,403.75 514.1406,403.125 Q513.1563,402.625 512.4688,401.5625 Q511.7813,400.4844 511.7813,399.2031 L511.7813,398.0469 Q511.7813,396.7188 512.3906,395.5781 Q513.0156,394.4219 514.1094,393.8125 Q515.2031,393.1875 516.4375,393.1875 Q517.1719,393.1875 517.8125,393.3594 Q518.4688,393.5156 519.0156,393.875 Z "/><text fill="#000000" font-family="sans-serif" font-size="12" lengthAdjust="spacingAndGlyphs" textLength="77" x="536.75" y="402.9102">PlayController</text><line style="stroke: #A80036; stroke-width: 1.5;" x1="435.5" x2="682.5" y1="414" y2="414"/><line style="stroke: #A80036; stroke-width: 1.5;" x1="435.5" x2="682.5" y1="422" y2="422"/><polygon fill="#4177AF" points="445.5,429,441.5,435,449.5,435" style="stroke: #1963A0; stroke-width: 1.0;"/><text fill="#000000" font-family="sans-serif" font-size="11" lengthAdjust="spacingAndGlyphs" textLength="133" x="454.5" y="437.4189">PlayController(Game, State)</text><polygon fill="#4177AF" points="445.5,442.8359,441.5,448.8359,449.5,448.8359" style="stroke: #1963A0; stroke-width: 1.0;"/><text fill="#000000" font-family="sans-serif" font-size="11" lengthAdjust="spacingAndGlyphs" textLength="164" x="454.5" y="451.2549">getTokenPlayerFromTurn(): Player</text><polygon fill="#4177AF" points="445.5,456.6719,441.5,462.6719,449.5,462.6719" style="stroke: #1963A0; stroke-width: 1.0;"/><text fill="#000000" font-family="sans-serif" font-size="11" lengthAdjust="spacingAndGlyphs" textLength="133" x="454.5" y="465.0908">isBoardComplete(): boolean</text><polygon fill="#4177AF" points="445.5,470.5078,441.5,476.5078,449.5,476.5078" style="stroke: #1963A0; stroke-width: 1.0;"/><text fill="#000000" font-family="sans-serif" font-size="11" lengthAdjust="spacingAndGlyphs" textLength="206" x="454.5" y="478.9268">putTokenPlayerFromTurn(Coordinate): void</text><polygon fill="#4177AF" points="445.5,484.3438,441.5,490.3438,449.5,490.3438" style="stroke: #1963A0; stroke-width: 1.0;"/><text fill="#000000" font-family="sans-serif" font-size="11" lengthAdjust="spacingAndGlyphs" textLength="223" x="454.5" y="492.7627">moveTokenPlayerFromTurn(Coordinate[]): void</text><polygon fill="#4177AF" points="445.5,498.1797,441.5,504.1797,449.5,504.1797" style="stroke: #1963A0; stroke-width: 1.0;"/><text fill="#000000" font-family="sans-serif" font-size="11" lengthAdjust="spacingAndGlyphs" textLength="92" x="454.5" y="506.5986">changeTurn(): void</text><polygon fill="#4177AF" points="445.5,512.0156,441.5,518.0156,449.5,518.0156" style="stroke: #1963A0; stroke-width: 1.0;"/><text fill="#000000" font-family="sans-serif" font-size="11" lengthAdjust="spacingAndGlyphs" textLength="115" x="454.5" y="520.4346">getToken(int, int): Token</text><polygon fill="#4177AF" points="445.5,525.8516,441.5,531.8516,449.5,531.8516" style="stroke: #1963A0; stroke-width: 1.0;"/><text fill="#000000" font-family="sans-serif" font-size="11" lengthAdjust="spacingAndGlyphs" textLength="141" x="454.5" y="534.2705">getCoordinateDimension(): int</text><polygon fill="#4177AF" points="445.5,539.6875,441.5,545.6875,449.5,545.6875" style="stroke: #1963A0; stroke-width: 1.0;"/><text fill="#000000" font-family="sans-serif" font-size="11" lengthAdjust="spacingAndGlyphs" textLength="110" x="454.5" y="548.1064">isTicTacToe(): boolean</text><!--MD5=[2c3ef77d19c2424f55dfd6db4f13e20e]
class tictactoe.controllers.ResultController--><rect fill="#FEFECE" filter="url(#f1sgbetksf1oca)" height="75.6719" id="tictactoe.controllers.ResultController" style="stroke: #A80036; stroke-width: 1.5;" width="169" x="32.5" y="430.5"/><ellipse cx="68.65" cy="446.5" fill="#ADD1B2" rx="11" ry="11" style="stroke: #A80036; stroke-width: 1.0;"/><path d="M71.4156,442.375 Q71.5719,442.1563 71.7594,442.0469 Q71.9469,441.9375 72.1656,441.9375 Q72.5406,441.9375 72.775,442.2031 Q73.0094,442.4531 73.0094,443.0625 L73.0094,444.5156 Q73.0094,445.125 72.775,445.3906 Q72.5406,445.6563 72.1656,445.6563 Q71.8219,445.6563 71.6188,445.4531 Q71.4156,445.2656 71.3063,444.75 Q71.2594,444.3906 71.0719,444.2031 Q70.7438,443.8281 70.1344,443.6094 Q69.525,443.3906 68.9,443.3906 Q68.1344,443.3906 67.4938,443.7188 Q66.8688,444.0469 66.3688,444.7969 Q65.8844,445.5469 65.8844,446.5781 L65.8844,447.6719 Q65.8844,448.9063 66.775,449.7344 Q67.6656,450.5469 69.2594,450.5469 Q70.1969,450.5469 70.8531,450.2969 Q71.2438,450.1406 71.6656,449.7031 Q71.9313,449.4375 72.0719,449.3594 Q72.2281,449.2813 72.4313,449.2813 Q72.7594,449.2813 73.0094,449.5469 Q73.275,449.7969 73.275,450.1406 Q73.275,450.4844 72.9313,450.8906 Q72.4313,451.4688 71.6344,451.7969 Q70.5563,452.25 69.2594,452.25 Q67.7438,452.25 66.5406,451.625 Q65.5563,451.125 64.8688,450.0625 Q64.1813,448.9844 64.1813,447.7031 L64.1813,446.5469 Q64.1813,445.2188 64.7906,444.0781 Q65.4156,442.9219 66.5094,442.3125 Q67.6031,441.6875 68.8375,441.6875 Q69.5719,441.6875 70.2125,441.8594 Q70.8688,442.0156 71.4156,442.375 Z "/><text fill="#000000" font-family="sans-serif" font-size="12" lengthAdjust="spacingAndGlyphs" textLength="90" x="87.35" y="451.4102">ResultController</text><line style="stroke: #A80036; stroke-width: 1.5;" x1="33.5" x2="200.5" y1="462.5" y2="462.5"/><line style="stroke: #A80036; stroke-width: 1.5;" x1="33.5" x2="200.5" y1="470.5" y2="470.5"/><polygon fill="#4177AF" points="43.5,477.5,39.5,483.5,47.5,483.5" style="stroke: #1963A0; stroke-width: 1.0;"/><text fill="#000000" font-family="sans-serif" font-size="11" lengthAdjust="spacingAndGlyphs" textLength="143" x="52.5" y="485.9189">ResultController(Game, State)</text><polygon fill="#4177AF" points="43.5,491.3359,39.5,497.3359,47.5,497.3359" style="stroke: #1963A0; stroke-width: 1.0;"/><text fill="#000000" font-family="sans-serif" font-size="11" lengthAdjust="spacingAndGlyphs" textLength="141" x="52.5" y="499.7549">getOtherValueFromTurn(): int</text><!--MD5=[8ede4dbfb3b498095887802b64b699f0]
class tictactoe.controllers.StartController--><rect fill="#FEFECE" filter="url(#f1sgbetksf1oca)" height="75.6719" id="tictactoe.controllers.StartController" style="stroke: #A80036; stroke-width: 1.5;" width="162" x="237" y="430.5"/><ellipse cx="274.95" cy="446.5" fill="#ADD1B2" rx="11" ry="11" style="stroke: #A80036; stroke-width: 1.0;"/><path d="M277.7156,442.375 Q277.8719,442.1563 278.0594,442.0469 Q278.2469,441.9375 278.4656,441.9375 Q278.8406,441.9375 279.075,442.2031 Q279.3094,442.4531 279.3094,443.0625 L279.3094,444.5156 Q279.3094,445.125 279.075,445.3906 Q278.8406,445.6563 278.4656,445.6563 Q278.1219,445.6563 277.9188,445.4531 Q277.7156,445.2656 277.6063,444.75 Q277.5594,444.3906 277.3719,444.2031 Q277.0438,443.8281 276.4344,443.6094 Q275.825,443.3906 275.2,443.3906 Q274.4344,443.3906 273.7938,443.7188 Q273.1688,444.0469 272.6688,444.7969 Q272.1844,445.5469 272.1844,446.5781 L272.1844,447.6719 Q272.1844,448.9063 273.075,449.7344 Q273.9656,450.5469 275.5594,450.5469 Q276.4969,450.5469 277.1531,450.2969 Q277.5438,450.1406 277.9656,449.7031 Q278.2313,449.4375 278.3719,449.3594 Q278.5281,449.2813 278.7313,449.2813 Q279.0594,449.2813 279.3094,449.5469 Q279.575,449.7969 279.575,450.1406 Q279.575,450.4844 279.2313,450.8906 Q278.7313,451.4688 277.9344,451.7969 Q276.8563,452.25 275.5594,452.25 Q274.0438,452.25 272.8406,451.625 Q271.8563,451.125 271.1688,450.0625 Q270.4813,448.9844 270.4813,447.7031 L270.4813,446.5469 Q270.4813,445.2188 271.0906,444.0781 Q271.7156,442.9219 272.8094,442.3125 Q273.9031,441.6875 275.1375,441.6875 Q275.8719,441.6875 276.5125,441.8594 Q277.1688,442.0156 277.7156,442.375 Z "/><text fill="#000000" font-family="sans-serif" font-size="12" lengthAdjust="spacingAndGlyphs" textLength="79" x="294.05" y="451.4102">StartController</text><line style="stroke: #A80036; stroke-width: 1.5;" x1="238" x2="398" y1="462.5" y2="462.5"/><line style="stroke: #A80036; stroke-width: 1.5;" x1="238" x2="398" y1="470.5" y2="470.5"/><polygon fill="#4177AF" points="248,477.5,244,483.5,252,483.5" style="stroke: #1963A0; stroke-width: 1.0;"/><text fill="#000000" font-family="sans-serif" font-size="11" lengthAdjust="spacingAndGlyphs" textLength="136" x="257" y="485.9189">StartController(Game, State)</text><polygon fill="#4177AF" points="248,491.3359,244,497.3359,252,497.3359" style="stroke: #1963A0; stroke-width: 1.0;"/><text fill="#000000" font-family="sans-serif" font-size="11" lengthAdjust="spacingAndGlyphs" textLength="101" x="257" y="499.7549">createPlayers(): void</text><!--MD5=[8d3188f3c370ea7d5d91d12bca83b67a]
class tictactoe.models.Game--><rect fill="#FEFECE" filter="url(#f1sgbetksf1oca)" height="48" id="tictactoe.models.Game" style="stroke: #A80036; stroke-width: 1.5;" width="66" x="741" y="631"/><ellipse cx="756" cy="647" fill="#ADD1B2" rx="11" ry="11" style="stroke: #A80036; stroke-width: 1.0;"/><path d="M758.7656,642.875 Q758.9219,642.6563 759.1094,642.5469 Q759.2969,642.4375 759.5156,642.4375 Q759.8906,642.4375 760.125,642.7031 Q760.3594,642.9531 760.3594,643.5625 L760.3594,645.0156 Q760.3594,645.625 760.125,645.8906 Q759.8906,646.1563 759.5156,646.1563 Q759.1719,646.1563 758.9688,645.9531 Q758.7656,645.7656 758.6563,645.25 Q758.6094,644.8906 758.4219,644.7031 Q758.0938,644.3281 757.4844,644.1094 Q756.875,643.8906 756.25,643.8906 Q755.4844,643.8906 754.8438,644.2188 Q754.2188,644.5469 753.7188,645.2969 Q753.2344,646.0469 753.2344,647.0781 L753.2344,648.1719 Q753.2344,649.4063 754.125,650.2344 Q755.0156,651.0469 756.6094,651.0469 Q757.5469,651.0469 758.2031,650.7969 Q758.5938,650.6406 759.0156,650.2031 Q759.2813,649.9375 759.4219,649.8594 Q759.5781,649.7813 759.7813,649.7813 Q760.1094,649.7813 760.3594,650.0469 Q760.625,650.2969 760.625,650.6406 Q760.625,650.9844 760.2813,651.3906 Q759.7813,651.9688 758.9844,652.2969 Q757.9063,652.75 756.6094,652.75 Q755.0938,652.75 753.8906,652.125 Q752.9063,651.625 752.2188,650.5625 Q751.5313,649.4844 751.5313,648.2031 L751.5313,647.0469 Q751.5313,645.7188 752.1406,644.5781 Q752.7656,643.4219 753.8594,642.8125 Q754.9531,642.1875 756.1875,642.1875 Q756.9219,642.1875 757.5625,642.3594 Q758.2188,642.5156 758.7656,642.875 Z "/><text fill="#000000" font-family="sans-serif" font-size="12" lengthAdjust="spacingAndGlyphs" textLength="34" x="770" y="651.9102">Game</text><line style="stroke: #A80036; stroke-width: 1.5;" x1="742" x2="806" y1="663" y2="663"/><line style="stroke: #A80036; stroke-width: 1.5;" x1="742" x2="806" y1="671" y2="671"/><!--MD5=[895b6132a90c2908aef15a128e2ee1f5]
class tictactoe.models.State--><rect fill="#FEFECE" filter="url(#f1sgbetksf1oca)" height="48" id="tictactoe.models.State" style="stroke: #A80036; stroke-width: 1.5;" width="60" x="842" y="631"/><ellipse cx="857" cy="647" fill="#ADD1B2" rx="11" ry="11" style="stroke: #A80036; stroke-width: 1.0;"/><path d="M859.7656,642.875 Q859.9219,642.6563 860.1094,642.5469 Q860.2969,642.4375 860.5156,642.4375 Q860.8906,642.4375 861.125,642.7031 Q861.3594,642.9531 861.3594,643.5625 L861.3594,645.0156 Q861.3594,645.625 861.125,645.8906 Q860.8906,646.1563 860.5156,646.1563 Q860.1719,646.1563 859.9688,645.9531 Q859.7656,645.7656 859.6563,645.25 Q859.6094,644.8906 859.4219,644.7031 Q859.0938,644.3281 858.4844,644.1094 Q857.875,643.8906 857.25,643.8906 Q856.4844,643.8906 855.8438,644.2188 Q855.2188,644.5469 854.7188,645.2969 Q854.2344,646.0469 854.2344,647.0781 L854.2344,648.1719 Q854.2344,649.4063 855.125,650.2344 Q856.0156,651.0469 857.6094,651.0469 Q858.5469,651.0469 859.2031,650.7969 Q859.5938,650.6406 860.0156,650.2031 Q860.2813,649.9375 860.4219,649.8594 Q860.5781,649.7813 860.7813,649.7813 Q861.1094,649.7813 861.3594,650.0469 Q861.625,650.2969 861.625,650.6406 Q861.625,650.9844 861.2813,651.3906 Q860.7813,651.9688 859.9844,652.2969 Q858.9063,652.75 857.6094,652.75 Q856.0938,652.75 854.8906,652.125 Q853.9063,651.625 853.2188,650.5625 Q852.5313,649.4844 852.5313,648.2031 L852.5313,647.0469 Q852.5313,645.7188 853.1406,644.5781 Q853.7656,643.4219 854.8594,642.8125 Q855.9531,642.1875 857.1875,642.1875 Q857.9219,642.1875 858.5625,642.3594 Q859.2188,642.5156 859.7656,642.875 Z "/><text fill="#000000" font-family="sans-serif" font-size="12" lengthAdjust="spacingAndGlyphs" textLength="28" x="871" y="651.9102">State</text><line style="stroke: #A80036; stroke-width: 1.5;" x1="843" x2="901" y1="663" y2="663"/><line style="stroke: #A80036; stroke-width: 1.5;" x1="843" x2="901" y1="671" y2="671"/><!--MD5=[c8f7ee38df84fc6c47e5792f2767cf35]
class tictactoe.models.StateValue--><rect fill="#FEFECE" filter="url(#f1sgbetksf1oca)" height="48" id="tictactoe.models.StateValue" style="stroke: #A80036; stroke-width: 1.5;" width="91" x="937.5" y="631"/><ellipse cx="952.5" cy="647" fill="#ADD1B2" rx="11" ry="11" style="stroke: #A80036; stroke-width: 1.0;"/><path d="M955.2656,642.875 Q955.4219,642.6563 955.6094,642.5469 Q955.7969,642.4375 956.0156,642.4375 Q956.3906,642.4375 956.625,642.7031 Q956.8594,642.9531 956.8594,643.5625 L956.8594,645.0156 Q956.8594,645.625 956.625,645.8906 Q956.3906,646.1563 956.0156,646.1563 Q955.6719,646.1563 955.4688,645.9531 Q955.2656,645.7656 955.1563,645.25 Q955.1094,644.8906 954.9219,644.7031 Q954.5938,644.3281 953.9844,644.1094 Q953.375,643.8906 952.75,643.8906 Q951.9844,643.8906 951.3438,644.2188 Q950.7188,644.5469 950.2188,645.2969 Q949.7344,646.0469 949.7344,647.0781 L949.7344,648.1719 Q949.7344,649.4063 950.625,650.2344 Q951.5156,651.0469 953.1094,651.0469 Q954.0469,651.0469 954.7031,650.7969 Q955.0938,650.6406 955.5156,650.2031 Q955.7813,649.9375 955.9219,649.8594 Q956.0781,649.7813 956.2813,649.7813 Q956.6094,649.7813 956.8594,650.0469 Q957.125,650.2969 957.125,650.6406 Q957.125,650.9844 956.7813,651.3906 Q956.2813,651.9688 955.4844,652.2969 Q954.4063,652.75 953.1094,652.75 Q951.5938,652.75 950.3906,652.125 Q949.4063,651.625 948.7188,650.5625 Q948.0313,649.4844 948.0313,648.2031 L948.0313,647.0469 Q948.0313,645.7188 948.6406,644.5781 Q949.2656,643.4219 950.3594,642.8125 Q951.4531,642.1875 952.6875,642.1875 Q953.4219,642.1875 954.0625,642.3594 Q954.7188,642.5156 955.2656,642.875 Z "/><text fill="#000000" font-family="sans-serif" font-size="12" lengthAdjust="spacingAndGlyphs" textLength="59" x="966.5" y="651.9102">StateValue</text><line style="stroke: #A80036; stroke-width: 1.5;" x1="938.5" x2="1027.5" y1="663" y2="663"/><line style="stroke: #A80036; stroke-width: 1.5;" x1="938.5" x2="1027.5" y1="671" y2="671"/><!--MD5=[55d70ecb9e3ba4786ec1f15d0b7dce13]
class tictactoe.models.Coordinate--><rect fill="#FEFECE" filter="url(#f1sgbetksf1oca)" height="48" id="tictactoe.models.Coordinate" style="stroke: #A80036; stroke-width: 1.5;" width="93" x="612.5" y="631"/><ellipse cx="627.5" cy="647" fill="#ADD1B2" rx="11" ry="11" style="stroke: #A80036; stroke-width: 1.0;"/><path d="M630.2656,642.875 Q630.4219,642.6563 630.6094,642.5469 Q630.7969,642.4375 631.0156,642.4375 Q631.3906,642.4375 631.625,642.7031 Q631.8594,642.9531 631.8594,643.5625 L631.8594,645.0156 Q631.8594,645.625 631.625,645.8906 Q631.3906,646.1563 631.0156,646.1563 Q630.6719,646.1563 630.4688,645.9531 Q630.2656,645.7656 630.1563,645.25 Q630.1094,644.8906 629.9219,644.7031 Q629.5938,644.3281 628.9844,644.1094 Q628.375,643.8906 627.75,643.8906 Q626.9844,643.8906 626.3438,644.2188 Q625.7188,644.5469 625.2188,645.2969 Q624.7344,646.0469 624.7344,647.0781 L624.7344,648.1719 Q624.7344,649.4063 625.625,650.2344 Q626.5156,651.0469 628.1094,651.0469 Q629.0469,651.0469 629.7031,650.7969 Q630.0938,650.6406 630.5156,650.2031 Q630.7813,649.9375 630.9219,649.8594 Q631.0781,649.7813 631.2813,649.7813 Q631.6094,649.7813 631.8594,650.0469 Q632.125,650.2969 632.125,650.6406 Q632.125,650.9844 631.7813,651.3906 Q631.2813,651.9688 630.4844,652.2969 Q629.4063,652.75 628.1094,652.75 Q626.5938,652.75 625.3906,652.125 Q624.4063,651.625 623.7188,650.5625 Q623.0313,649.4844 623.0313,648.2031 L623.0313,647.0469 Q623.0313,645.7188 623.6406,644.5781 Q624.2656,643.4219 625.3594,642.8125 Q626.4531,642.1875 627.6875,642.1875 Q628.4219,642.1875 629.0625,642.3594 Q629.7188,642.5156 630.2656,642.875 Z "/><text fill="#000000" font-family="sans-serif" font-size="12" lengthAdjust="spacingAndGlyphs" textLength="61" x="641.5" y="651.9102">Coordinate</text><line style="stroke: #A80036; stroke-width: 1.5;" x1="613.5" x2="704.5" y1="663" y2="663"/><line style="stroke: #A80036; stroke-width: 1.5;" x1="613.5" x2="704.5" y1="671" y2="671"/><!--MD5=[67f54059f517de4e17e4f415259fadfa]
link tictactoe.controllers.Controller to tictactoe.models.Game--><path d="M636.762,315.805 C660.188,333.786 684.522,356.388 701,382 C751.641,460.711 767.365,573.795 772.075,625.8359 " fill="none" id="tictactoe.controllers.Controller-&gt;tictactoe.models.Game" style="stroke: #A80036; stroke-width: 1.0; stroke-dasharray: 7.0,7.0;"/><polygon fill="#A80036" points="772.523,630.9778,775.7278,621.6649,772.0896,625.9966,767.7579,622.3584,772.523,630.9778" style="stroke: #A80036; stroke-width: 1.0;"/><!--MD5=[958c68ec9081d3cd0ffa7948938073c3]
link tictactoe.controllers.Controller to tictactoe.models.State--><path d="M636.7,297.837 C677.245,316.168 726.749,344.143 760,382 C824.97,455.97 855.602,572.781 866.769,625.9629 " fill="none" id="tictactoe.controllers.Controller-&gt;tictactoe.models.State" style="stroke: #A80036; stroke-width: 1.0; stroke-dasharray: 7.0,7.0;"/><polygon fill="#A80036" points="867.79,630.9073,869.8883,621.2846,866.7794,626.0105,862.0534,622.9016,867.79,630.9073" style="stroke: #A80036; stroke-width: 1.0;"/><!--MD5=[bf6ea4e22b99b81dd48bbf2eb1cf70e8]
link tictactoe.controllers.Logic to tictactoe.models.Game--><path d="M633.6784,168.3569 C633.6784,168.3569 733.931,301.728 760,382 C786.278,462.916 782.534,564.449 777.988,617.6503 " fill="none" id="tictactoe.controllers.Logic-tictactoe.models.Game" style="stroke: #A80036; stroke-width: 1.0;"/><polygon fill="#A80036" points="776.771,630.7056,781.5891,622.1157,777.2351,625.7272,773.6237,621.3732,776.771,630.7056" style="stroke: #A80036; stroke-width: 1.0;"/><line style="stroke: #A80036; stroke-width: 1.0;" x1="777.2351" x2="777.9775" y1="625.7272" y2="617.7617"/><polygon fill="#A80036" points="626.035,159.106,626.773,166.2792,633.6784,168.3569,632.9403,161.1837,626.035,159.106" style="stroke: #A80036; stroke-width: 1.0;"/><!--MD5=[758f687dc2a943dbf7811856af1b401c]
link tictactoe.controllers.Logic to tictactoe.models.State--><path d="M678.1089,166.6011 C678.1089,166.6011 716.43,199.988 731,219 C827.121,344.427 859.01,537.79 868.442,617.6156 " fill="none" id="tictactoe.controllers.Logic-tictactoe.models.State" style="stroke: #A80036; stroke-width: 1.0;"/><polygon fill="#A80036" points="869.906,630.727,872.8819,621.3385,869.3508,625.7579,864.9314,622.2268,869.906,630.727" style="stroke: #A80036; stroke-width: 1.0;"/><line style="stroke: #A80036; stroke-width: 1.0;" x1="869.3508" x2="868.463" y1="625.7579" y2="617.8074"/><polygon fill="#A80036" points="668.642,159.227,670.9174,166.0697,678.1089,166.6011,675.8335,159.7584,668.642,159.227" style="stroke: #A80036; stroke-width: 1.0;"/><!--MD5=[12d6b2ee7a1b6faf9fe809f483963ab7]
link tictactoe.controllers.Logic to tictactoe.controllers.Controller--><path d="M571.0912,171.3056 C571.0912,171.3056 570.111,194.846 569.663,205.581 " fill="none" id="tictactoe.controllers.Logic-tictactoe.controllers.Controller" style="stroke: #A80036; stroke-width: 1.0;"/><polygon fill="#A80036" points="569.109,218.874,573.4794,210.0479,569.3167,213.8783,565.4863,209.7156,569.109,218.874" style="stroke: #A80036; stroke-width: 1.0;"/><line style="stroke: #A80036; stroke-width: 1.0;" x1="569.3167" x2="569.651" y1="213.8783" y2="205.885"/><polygon fill="#A80036" points="571.591,159.316,567.3446,165.1442,571.0912,171.3056,575.3376,165.4774,571.591,159.316" style="stroke: #A80036; stroke-width: 1.0;"/><!--MD5=[096abf58a0a258fd61b5f735b2bb7393]
link tictactoe.controllers.Logic to tictactoe.models.StateValue--><path d="M694.7758,151.9442 C694.7758,151.9442 760.75,192.327 786,219 C900.086,339.515 956.205,537.519 975.256,618.1518 " fill="none" id="tictactoe.controllers.Logic-tictactoe.models.StateValue" style="stroke: #A80036; stroke-width: 1.0;"/><polygon fill="#A80036" points="978.194,630.9297,980.0751,621.2622,977.0734,626.0569,972.2787,623.0551,978.194,630.9297" style="stroke: #A80036; stroke-width: 1.0;"/><line style="stroke: #A80036; stroke-width: 1.0;" x1="977.0734" x2="975.281" y1="626.0569" y2="618.2603"/><polygon fill="#A80036" points="684.185,146.302,687.5997,152.6534,694.7758,151.9442,691.3611,145.5928,684.185,146.302" style="stroke: #A80036; stroke-width: 1.0;"/><!--MD5=[5700b97431232c099330215bddfcc855]
reverse link tictactoe.controllers.Controller to tictactoe.controllers.PlayController--><path d="M564.111,342.271 C563.59,355.051 563.041,368.502 562.504,381.656 " fill="none" id="tictactoe.controllers.Controller&lt;-tictactoe.controllers.PlayController" style="stroke: #A80036; stroke-width: 1.0;"/><polygon fill="none" points="557.119,341.928,564.929,322.23,571.108,342.499,557.119,341.928" style="stroke: #A80036; stroke-width: 1.0;"/><!--MD5=[70aedda6b24476e26c690784403df0dd]
link tictactoe.controllers.PlayController to tictactoe.models.Coordinate--><path d="M605.487,555.268 C619.405,580.947 633.688,607.298 643.993,626.3118 " fill="none" id="tictactoe.controllers.PlayController-&gt;tictactoe.models.Coordinate" style="stroke: #A80036; stroke-width: 1.0; stroke-dasharray: 7.0,7.0;"/><polygon fill="#A80036" points="646.525,630.9827,645.7529,621.1642,644.1424,626.5869,638.7196,624.9763,646.525,630.9827" style="stroke: #A80036; stroke-width: 1.0;"/><!--MD5=[8f435ed2c59169c4603cda7b7477fe61]
reverse link tictactoe.controllers.Controller to tictactoe.controllers.ResultController--><path d="M477.799,289.673 C405.111,306.818 301.387,336.719 219,382 C195.51,394.91 172.365,413.676 154.075,430.339 " fill="none" id="tictactoe.controllers.Controller&lt;-tictactoe.controllers.ResultController" style="stroke: #A80036; stroke-width: 1.0;"/><polygon fill="none" points="476.376,282.817,497.434,285.173,479.503,296.464,476.376,282.817" style="stroke: #A80036; stroke-width: 1.0;"/><!--MD5=[5deb1e5c7bf9906a35de112138d88f9c]
reverse link tictactoe.controllers.Controller to tictactoe.controllers.StartController--><path d="M481.162,332.968 C459.947,348.642 437.447,365.68 417,382 C397.831,397.301 377.216,414.909 359.786,430.154 " fill="none" id="tictactoe.controllers.Controller&lt;-tictactoe.controllers.StartController" style="stroke: #A80036; stroke-width: 1.0;"/><polygon fill="none" points="477.191,327.2,497.456,321.009,485.475,338.486,477.191,327.2" style="stroke: #A80036; stroke-width: 1.0;"/><!--MD5=[b83d41c116b67ff1aaf5e989ebd8a678]
@startuml

class  tictactoe.controllers.Controller{
# game: Game
# state: State
~ Controller(Game, State)
+ getBoard(): Board
}
tictactoe.controllers.Controller ..> tictactoe.models.Game
tictactoe.controllers.Controller ..> tictactoe.models.State

class  tictactoe.controllers.Logic{
- state: State
- game: Game
- controllers: Map<StateValue, Controller>
+ Logic()
+ getController(): Controller
}
tictactoe.controllers.Logic *-down-> tictactoe.models.Game
tictactoe.controllers.Logic *-down-> tictactoe.models.State
tictactoe.controllers.Logic *-down-> tictactoe.controllers.Controller
tictactoe.controllers.Logic *-down-> tictactoe.models.StateValue

class  tictactoe.controllers.PlayController{
~ PlayController(Game, State)
~ getTokenPlayerFromTurn(): Player
~ isBoardComplete(): boolean
~ putTokenPlayerFromTurn(Coordinate): void
~ moveTokenPlayerFromTurn(Coordinate[]): void
~ changeTurn(): void
~ getToken(int, int): Token
~ getCoordinateDimension(): int
~ isTicTacToe(): boolean
}
tictactoe.controllers.Controller <|-down- tictactoe.controllers.PlayController
tictactoe.controllers.PlayController ..> tictactoe.models.Coordinate

class  tictactoe.controllers.ResultController{
~ ResultController(Game, State)
~ getOtherValueFromTurn(): int
}
tictactoe.controllers.Controller <|-down- tictactoe.controllers.ResultController

class  tictactoe.controllers.StartController{
~ StartController(Game, State)
~ createPlayers(): void
}
tictactoe.controllers.Controller <|-down- tictactoe.controllers.StartController

@enduml

PlantUML version 1.2020.15(Sun Jun 28 13:39:45 CEST 2020)
(GPL source distribution)
Java Runtime: Java(TM) SE Runtime Environment
JVM: Java HotSpot(TM) 64-Bit Server VM
Default Encoding: windows-1252
Language: es
Country: ES
--></g></svg>