<?xml version="1.0" encoding="UTF-8" standalone="no"?><svg xmlns="http://www.w3.org/2000/svg" xmlns:xlink="http://www.w3.org/1999/xlink" contentScriptType="application/ecmascript" contentStyleType="text/css" height="516px" preserveAspectRatio="none" style="width:1372px;height:516px;" version="1.1" viewBox="0 0 1372 516" width="1372px" zoomAndPan="magnify"><defs><filter height="300%" id="f1olts1s1jtsx" width="300%" x="-1" y="-1"><feGaussianBlur result="blurOut" stdDeviation="2.0"/><feColorMatrix in="blurOut" result="blurOut2" type="matrix" values="0 0 0 0 0 0 0 0 0 0 0 0 0 0 0 0 0 0 .4 0"/><feOffset dx="4.0" dy="4.0" in="blurOut2" result="blurOut3"/><feBlend in="SourceGraphic" in2="blurOut3" mode="normal"/></filter></defs><g><!--MD5=[f4e83a21a957c5b9ba9691e6361db36b]
cluster tictactoe.views--><polygon fill="#FFFFFF" filter="url(#f1olts1s1jtsx)" points="315,6,427,6,434,29.6094,1128,29.6094,1128,380,315,380,315,6" style="stroke: #000000; stroke-width: 1.5;"/><line style="stroke: #000000; stroke-width: 1.5;" x1="315" x2="434" y1="29.6094" y2="29.6094"/><text fill="#000000" font-family="sans-serif" font-size="14" font-weight="bold" lengthAdjust="spacingAndGlyphs" textLength="106" x="319" y="22.5332">tictactoe.views</text><!--MD5=[ee7e9a007a7c4d40c0679a27f272732d]
cluster tictactoe.controllers--><polygon fill="#FFFFFF" filter="url(#f1olts1s1jtsx)" points="16,404,164,404,171,427.6094,952,427.6094,952,504,16,504,16,404" style="stroke: #000000; stroke-width: 1.5;"/><line style="stroke: #000000; stroke-width: 1.5;" x1="16" x2="171" y1="427.6094" y2="427.6094"/><text fill="#000000" font-family="sans-serif" font-size="14" font-weight="bold" lengthAdjust="spacingAndGlyphs" textLength="142" x="20" y="420.5332">tictactoe.controllers</text><!--MD5=[c8f472f346fc5da420fb1e34cc85077e]
cluster tictactoe.views.menus--><polygon fill="#FFFFFF" filter="url(#f1olts1s1jtsx)" points="976,404,1139,404,1146,427.6094,1149,427.6094,1149,504,976,504,976,404" style="stroke: #000000; stroke-width: 1.5;"/><line style="stroke: #000000; stroke-width: 1.5;" x1="976" x2="1146" y1="427.6094" y2="427.6094"/><text fill="#000000" font-family="sans-serif" font-size="14" font-weight="bold" lengthAdjust="spacingAndGlyphs" textLength="157" x="980" y="420.5332">tictactoe.views.menus</text><!--MD5=[c52f45833d539af9e29a9d34b8b7302b]
cluster utils--><polygon fill="#FFFFFF" filter="url(#f1olts1s1jtsx)" points="1152,75,1188,75,1195,98.6094,1314,98.6094,1314,175,1152,175,1152,75" style="stroke: #000000; stroke-width: 1.5;"/><line style="stroke: #000000; stroke-width: 1.5;" x1="1152" x2="1195" y1="98.6094" y2="98.6094"/><text fill="#000000" font-family="sans-serif" font-size="14" font-weight="bold" lengthAdjust="spacingAndGlyphs" textLength="30" x="1156" y="91.5332">utils</text><!--MD5=[a12d804b92463d10c3d536d6637273c5]
cluster tictactoe.views.models--><polygon fill="#FFFFFF" filter="url(#f1olts1s1jtsx)" points="1173,404,1340,404,1347,427.6094,1350,427.6094,1350,504,1173,504,1173,404" style="stroke: #000000; stroke-width: 1.5;"/><line style="stroke: #000000; stroke-width: 1.5;" x1="1173" x2="1347" y1="427.6094" y2="427.6094"/><text fill="#000000" font-family="sans-serif" font-size="14" font-weight="bold" lengthAdjust="spacingAndGlyphs" textLength="161" x="1177" y="420.5332">tictactoe.views.models</text><!--MD5=[d0ec73423b3bfd3954fbf7197d3af4d8]
class tictactoe.views.PlayView--><rect fill="#FEFECE" filter="url(#f1olts1s1jtsx)" height="61.8359" id="tictactoe.views.PlayView" style="stroke: #A80036; stroke-width: 1.5;" width="162" x="331" y="295"/><ellipse cx="383.25" cy="311" fill="#ADD1B2" rx="11" ry="11" style="stroke: #A80036; stroke-width: 1.0;"/><path d="M386.0156,306.875 Q386.1719,306.6563 386.3594,306.5469 Q386.5469,306.4375 386.7656,306.4375 Q387.1406,306.4375 387.375,306.7031 Q387.6094,306.9531 387.6094,307.5625 L387.6094,309.0156 Q387.6094,309.625 387.375,309.8906 Q387.1406,310.1563 386.7656,310.1563 Q386.4219,310.1563 386.2188,309.9531 Q386.0156,309.7656 385.9063,309.25 Q385.8594,308.8906 385.6719,308.7031 Q385.3438,308.3281 384.7344,308.1094 Q384.125,307.8906 383.5,307.8906 Q382.7344,307.8906 382.0938,308.2188 Q381.4688,308.5469 380.9688,309.2969 Q380.4844,310.0469 380.4844,311.0781 L380.4844,312.1719 Q380.4844,313.4063 381.375,314.2344 Q382.2656,315.0469 383.8594,315.0469 Q384.7969,315.0469 385.4531,314.7969 Q385.8438,314.6406 386.2656,314.2031 Q386.5313,313.9375 386.6719,313.8594 Q386.8281,313.7813 387.0313,313.7813 Q387.3594,313.7813 387.6094,314.0469 Q387.875,314.2969 387.875,314.6406 Q387.875,314.9844 387.5313,315.3906 Q387.0313,315.9688 386.2344,316.2969 Q385.1563,316.75 383.8594,316.75 Q382.3438,316.75 381.1406,316.125 Q380.1563,315.625 379.4688,314.5625 Q378.7813,313.4844 378.7813,312.2031 L378.7813,311.0469 Q378.7813,309.7188 379.3906,308.5781 Q380.0156,307.4219 381.1094,306.8125 Q382.2031,306.1875 383.4375,306.1875 Q384.1719,306.1875 384.8125,306.3594 Q385.4688,306.5156 386.0156,306.875 Z "/><text fill="#000000" font-family="sans-serif" font-size="12" lengthAdjust="spacingAndGlyphs" textLength="49" x="403.75" y="315.9102">PlayView</text><line style="stroke: #A80036; stroke-width: 1.5;" x1="332" x2="492" y1="327" y2="327"/><line style="stroke: #A80036; stroke-width: 1.5;" x1="332" x2="492" y1="335" y2="335"/><polygon fill="#4177AF" points="342,342,338,348,346,348" style="stroke: #1963A0; stroke-width: 1.0;"/><text fill="#000000" font-family="sans-serif" font-size="11" lengthAdjust="spacingAndGlyphs" textLength="136" x="351" y="350.4189">interact(PlayController): void</text><!--MD5=[137f690b5283483823808e0278817ad3]
class tictactoe.views.ResumeView--><rect fill="#FEFECE" filter="url(#f1olts1s1jtsx)" height="61.8359" id="tictactoe.views.ResumeView" style="stroke: #A80036; stroke-width: 1.5;" width="181" x="728.5" y="295"/><ellipse cx="777.75" cy="311" fill="#ADD1B2" rx="11" ry="11" style="stroke: #A80036; stroke-width: 1.0;"/><path d="M780.5156,306.875 Q780.6719,306.6563 780.8594,306.5469 Q781.0469,306.4375 781.2656,306.4375 Q781.6406,306.4375 781.875,306.7031 Q782.1094,306.9531 782.1094,307.5625 L782.1094,309.0156 Q782.1094,309.625 781.875,309.8906 Q781.6406,310.1563 781.2656,310.1563 Q780.9219,310.1563 780.7188,309.9531 Q780.5156,309.7656 780.4063,309.25 Q780.3594,308.8906 780.1719,308.7031 Q779.8438,308.3281 779.2344,308.1094 Q778.625,307.8906 778,307.8906 Q777.2344,307.8906 776.5938,308.2188 Q775.9688,308.5469 775.4688,309.2969 Q774.9844,310.0469 774.9844,311.0781 L774.9844,312.1719 Q774.9844,313.4063 775.875,314.2344 Q776.7656,315.0469 778.3594,315.0469 Q779.2969,315.0469 779.9531,314.7969 Q780.3438,314.6406 780.7656,314.2031 Q781.0313,313.9375 781.1719,313.8594 Q781.3281,313.7813 781.5313,313.7813 Q781.8594,313.7813 782.1094,314.0469 Q782.375,314.2969 782.375,314.6406 Q782.375,314.9844 782.0313,315.3906 Q781.5313,315.9688 780.7344,316.2969 Q779.6563,316.75 778.3594,316.75 Q776.8438,316.75 775.6406,316.125 Q774.6563,315.625 773.9688,314.5625 Q773.2813,313.4844 773.2813,312.2031 L773.2813,311.0469 Q773.2813,309.7188 773.8906,308.5781 Q774.5156,307.4219 775.6094,306.8125 Q776.7031,306.1875 777.9375,306.1875 Q778.6719,306.1875 779.3125,306.3594 Q779.9688,306.5156 780.5156,306.875 Z "/><text fill="#000000" font-family="sans-serif" font-size="12" lengthAdjust="spacingAndGlyphs" textLength="74" x="798.25" y="315.9102">ResumeView</text><line style="stroke: #A80036; stroke-width: 1.5;" x1="729.5" x2="908.5" y1="327" y2="327"/><line style="stroke: #A80036; stroke-width: 1.5;" x1="729.5" x2="908.5" y1="335" y2="335"/><polygon fill="#4177AF" points="739.5,342,735.5,348,743.5,348" style="stroke: #1963A0; stroke-width: 1.0;"/><text fill="#000000" font-family="sans-serif" font-size="11" lengthAdjust="spacingAndGlyphs" textLength="155" x="748.5" y="350.4189">interact(ResumeController): void</text><!--MD5=[db06473091eee30953b33a84556a77b0]
class tictactoe.views.SaveView--><rect fill="#FEFECE" filter="url(#f1olts1s1jtsx)" height="75.6719" id="tictactoe.views.SaveView" style="stroke: #A80036; stroke-width: 1.5;" width="167" x="944.5" y="288"/><ellipse cx="997.25" cy="304" fill="#ADD1B2" rx="11" ry="11" style="stroke: #A80036; stroke-width: 1.0;"/><path d="M1000.0156,299.875 Q1000.1719,299.6563 1000.3594,299.5469 Q1000.5469,299.4375 1000.7656,299.4375 Q1001.1406,299.4375 1001.375,299.7031 Q1001.6094,299.9531 1001.6094,300.5625 L1001.6094,302.0156 Q1001.6094,302.625 1001.375,302.8906 Q1001.1406,303.1563 1000.7656,303.1563 Q1000.4219,303.1563 1000.2188,302.9531 Q1000.0156,302.7656 999.9063,302.25 Q999.8594,301.8906 999.6719,301.7031 Q999.3438,301.3281 998.7344,301.1094 Q998.125,300.8906 997.5,300.8906 Q996.7344,300.8906 996.0938,301.2188 Q995.4688,301.5469 994.9688,302.2969 Q994.4844,303.0469 994.4844,304.0781 L994.4844,305.1719 Q994.4844,306.4063 995.375,307.2344 Q996.2656,308.0469 997.8594,308.0469 Q998.7969,308.0469 999.4531,307.7969 Q999.8438,307.6406 1000.2656,307.2031 Q1000.5313,306.9375 1000.6719,306.8594 Q1000.8281,306.7813 1001.0313,306.7813 Q1001.3594,306.7813 1001.6094,307.0469 Q1001.875,307.2969 1001.875,307.6406 Q1001.875,307.9844 1001.5313,308.3906 Q1001.0313,308.9688 1000.2344,309.2969 Q999.1563,309.75 997.8594,309.75 Q996.3438,309.75 995.1406,309.125 Q994.1563,308.625 993.4688,307.5625 Q992.7813,306.4844 992.7813,305.2031 L992.7813,304.0469 Q992.7813,302.7188 993.3906,301.5781 Q994.0156,300.4219 995.1094,299.8125 Q996.2031,299.1875 997.4375,299.1875 Q998.1719,299.1875 998.8125,299.3594 Q999.4688,299.5156 1000.0156,299.875 Z "/><text fill="#000000" font-family="sans-serif" font-size="12" lengthAdjust="spacingAndGlyphs" textLength="53" x="1017.75" y="308.9102">SaveView</text><line style="stroke: #A80036; stroke-width: 1.5;" x1="945.5" x2="1110.5" y1="320" y2="320"/><line style="stroke: #A80036; stroke-width: 1.5;" x1="945.5" x2="1110.5" y1="328" y2="328"/><polygon fill="#4177AF" points="955.5,335,951.5,341,959.5,341" style="stroke: #1963A0; stroke-width: 1.0;"/><text fill="#000000" font-family="sans-serif" font-size="11" lengthAdjust="spacingAndGlyphs" textLength="59" x="964.5" y="343.4189">SaveView()</text><polygon fill="#4177AF" points="955.5,348.8359,951.5,354.8359,959.5,354.8359" style="stroke: #1963A0; stroke-width: 1.0;"/><text fill="#000000" font-family="sans-serif" font-size="11" lengthAdjust="spacingAndGlyphs" textLength="141" x="964.5" y="357.2549">interact(SaveController): void</text><!--MD5=[50a4c98617440bec164bf073e81d587d]
class tictactoe.views.StartView--><rect fill="#FEFECE" filter="url(#f1olts1s1jtsx)" height="61.8359" id="tictactoe.views.StartView" style="stroke: #A80036; stroke-width: 1.5;" width="165" x="528.5" y="295"/><ellipse cx="581.25" cy="311" fill="#ADD1B2" rx="11" ry="11" style="stroke: #A80036; stroke-width: 1.0;"/><path d="M584.0156,306.875 Q584.1719,306.6563 584.3594,306.5469 Q584.5469,306.4375 584.7656,306.4375 Q585.1406,306.4375 585.375,306.7031 Q585.6094,306.9531 585.6094,307.5625 L585.6094,309.0156 Q585.6094,309.625 585.375,309.8906 Q585.1406,310.1563 584.7656,310.1563 Q584.4219,310.1563 584.2188,309.9531 Q584.0156,309.7656 583.9063,309.25 Q583.8594,308.8906 583.6719,308.7031 Q583.3438,308.3281 582.7344,308.1094 Q582.125,307.8906 581.5,307.8906 Q580.7344,307.8906 580.0938,308.2188 Q579.4688,308.5469 578.9688,309.2969 Q578.4844,310.0469 578.4844,311.0781 L578.4844,312.1719 Q578.4844,313.4063 579.375,314.2344 Q580.2656,315.0469 581.8594,315.0469 Q582.7969,315.0469 583.4531,314.7969 Q583.8438,314.6406 584.2656,314.2031 Q584.5313,313.9375 584.6719,313.8594 Q584.8281,313.7813 585.0313,313.7813 Q585.3594,313.7813 585.6094,314.0469 Q585.875,314.2969 585.875,314.6406 Q585.875,314.9844 585.5313,315.3906 Q585.0313,315.9688 584.2344,316.2969 Q583.1563,316.75 581.8594,316.75 Q580.3438,316.75 579.1406,316.125 Q578.1563,315.625 577.4688,314.5625 Q576.7813,313.4844 576.7813,312.2031 L576.7813,311.0469 Q576.7813,309.7188 577.3906,308.5781 Q578.0156,307.4219 579.1094,306.8125 Q580.2031,306.1875 581.4375,306.1875 Q582.1719,306.1875 582.8125,306.3594 Q583.4688,306.5156 584.0156,306.875 Z "/><text fill="#000000" font-family="sans-serif" font-size="12" lengthAdjust="spacingAndGlyphs" textLength="51" x="601.75" y="315.9102">StartView</text><line style="stroke: #A80036; stroke-width: 1.5;" x1="529.5" x2="692.5" y1="327" y2="327"/><line style="stroke: #A80036; stroke-width: 1.5;" x1="529.5" x2="692.5" y1="335" y2="335"/><polygon fill="#4177AF" points="539.5,342,535.5,348,543.5,348" style="stroke: #1963A0; stroke-width: 1.0;"/><text fill="#000000" font-family="sans-serif" font-size="11" lengthAdjust="spacingAndGlyphs" textLength="139" x="548.5" y="350.4189">interact(StartController): void</text><!--MD5=[015754420c4cdd9bacda884b3fa8c6ca]
class tictactoe.views.View--><rect fill="#FEFECE" filter="url(#f1olts1s1jtsx)" height="186.3594" id="tictactoe.views.View" style="stroke: #A80036; stroke-width: 1.5;" width="187" x="424.5" y="42"/><ellipse cx="500.75" cy="58" fill="#ADD1B2" rx="11" ry="11" style="stroke: #A80036; stroke-width: 1.0;"/><path d="M503.5156,53.875 Q503.6719,53.6563 503.8594,53.5469 Q504.0469,53.4375 504.2656,53.4375 Q504.6406,53.4375 504.875,53.7031 Q505.1094,53.9531 505.1094,54.5625 L505.1094,56.0156 Q505.1094,56.625 504.875,56.8906 Q504.6406,57.1563 504.2656,57.1563 Q503.9219,57.1563 503.7188,56.9531 Q503.5156,56.7656 503.4063,56.25 Q503.3594,55.8906 503.1719,55.7031 Q502.8438,55.3281 502.2344,55.1094 Q501.625,54.8906 501,54.8906 Q500.2344,54.8906 499.5938,55.2188 Q498.9688,55.5469 498.4688,56.2969 Q497.9844,57.0469 497.9844,58.0781 L497.9844,59.1719 Q497.9844,60.4063 498.875,61.2344 Q499.7656,62.0469 501.3594,62.0469 Q502.2969,62.0469 502.9531,61.7969 Q503.3438,61.6406 503.7656,61.2031 Q504.0313,60.9375 504.1719,60.8594 Q504.3281,60.7813 504.5313,60.7813 Q504.8594,60.7813 505.1094,61.0469 Q505.375,61.2969 505.375,61.6406 Q505.375,61.9844 505.0313,62.3906 Q504.5313,62.9688 503.7344,63.2969 Q502.6563,63.75 501.3594,63.75 Q499.8438,63.75 498.6406,63.125 Q497.6563,62.625 496.9688,61.5625 Q496.2813,60.4844 496.2813,59.2031 L496.2813,58.0469 Q496.2813,56.7188 496.8906,55.5781 Q497.5156,54.4219 498.6094,53.8125 Q499.7031,53.1875 500.9375,53.1875 Q501.6719,53.1875 502.3125,53.3594 Q502.9688,53.5156 503.5156,53.875 Z "/><text fill="#000000" font-family="sans-serif" font-size="12" lengthAdjust="spacingAndGlyphs" textLength="26" x="521.25" y="62.9102">View</text><line style="stroke: #A80036; stroke-width: 1.5;" x1="425.5" x2="610.5" y1="74" y2="74"/><rect fill="none" height="6" style="stroke: #C82930; stroke-width: 1.0;" width="6" x="432.5" y="82"/><text fill="#000000" font-family="sans-serif" font-size="11" lengthAdjust="spacingAndGlyphs" textLength="103" x="444.5" y="89.4189">startView: StartView</text><rect fill="none" height="6" style="stroke: #C82930; stroke-width: 1.0;" width="6" x="432.5" y="95.8359"/><text fill="#000000" font-family="sans-serif" font-size="11" lengthAdjust="spacingAndGlyphs" textLength="98" x="444.5" y="103.2549">playView: PlayView</text><rect fill="none" height="6" style="stroke: #C82930; stroke-width: 1.0;" width="6" x="432.5" y="109.6719"/><text fill="#000000" font-family="sans-serif" font-size="11" lengthAdjust="spacingAndGlyphs" textLength="107" x="444.5" y="117.0908">saveView: SaveView</text><rect fill="none" height="6" style="stroke: #C82930; stroke-width: 1.0;" width="6" x="432.5" y="123.5078"/><text fill="#000000" font-family="sans-serif" font-size="11" lengthAdjust="spacingAndGlyphs" textLength="133" x="444.5" y="130.9268">resumeView: ResumeView</text><line style="stroke: #A80036; stroke-width: 1.5;" x1="425.5" x2="610.5" y1="137.3438" y2="137.3438"/><ellipse cx="435.5" cy="148.3438" fill="#84BE84" rx="3" ry="3" style="stroke: #038048; stroke-width: 1.0;"/><text fill="#000000" font-family="sans-serif" font-size="11" lengthAdjust="spacingAndGlyphs" textLength="34" x="444.5" y="152.7627">View()</text><ellipse cx="435.5" cy="162.1797" fill="#84BE84" rx="3" ry="3" style="stroke: #038048; stroke-width: 1.0;"/><text fill="#000000" font-family="sans-serif" font-size="11" lengthAdjust="spacingAndGlyphs" textLength="161" x="444.5" y="166.5986">interact(AcceptorController): void</text><ellipse cx="435.5" cy="176.0156" fill="#84BE84" rx="3" ry="3" style="stroke: #038048; stroke-width: 1.0;"/><text fill="#000000" font-family="sans-serif" font-size="11" lengthAdjust="spacingAndGlyphs" textLength="122" x="444.5" y="180.4346">visit(StartController): void</text><ellipse cx="435.5" cy="189.8516" fill="#84BE84" rx="3" ry="3" style="stroke: #038048; stroke-width: 1.0;"/><text fill="#000000" font-family="sans-serif" font-size="11" lengthAdjust="spacingAndGlyphs" textLength="119" x="444.5" y="194.2705">visit(PlayController): void</text><ellipse cx="435.5" cy="203.6875" fill="#84BE84" rx="3" ry="3" style="stroke: #038048; stroke-width: 1.0;"/><text fill="#000000" font-family="sans-serif" font-size="11" lengthAdjust="spacingAndGlyphs" textLength="124" x="444.5" y="208.1064">visit(SaveController): void</text><ellipse cx="435.5" cy="217.5234" fill="#84BE84" rx="3" ry="3" style="stroke: #038048; stroke-width: 1.0;"/><text fill="#000000" font-family="sans-serif" font-size="11" lengthAdjust="spacingAndGlyphs" textLength="138" x="444.5" y="221.9424">visit(ResumeController): void</text><!--MD5=[b574e60c06c50037ff1b014277a67d62]
class tictactoe.controllers.PlayController--><rect fill="#FEFECE" filter="url(#f1olts1s1jtsx)" height="48" id="tictactoe.controllers.PlayController" style="stroke: #A80036; stroke-width: 1.5;" width="109" x="362.5" y="440"/><ellipse cx="377.5" cy="456" fill="#ADD1B2" rx="11" ry="11" style="stroke: #A80036; stroke-width: 1.0;"/><path d="M380.2656,451.875 Q380.4219,451.6563 380.6094,451.5469 Q380.7969,451.4375 381.0156,451.4375 Q381.3906,451.4375 381.625,451.7031 Q381.8594,451.9531 381.8594,452.5625 L381.8594,454.0156 Q381.8594,454.625 381.625,454.8906 Q381.3906,455.1563 381.0156,455.1563 Q380.6719,455.1563 380.4688,454.9531 Q380.2656,454.7656 380.1563,454.25 Q380.1094,453.8906 379.9219,453.7031 Q379.5938,453.3281 378.9844,453.1094 Q378.375,452.8906 377.75,452.8906 Q376.9844,452.8906 376.3438,453.2188 Q375.7188,453.5469 375.2188,454.2969 Q374.7344,455.0469 374.7344,456.0781 L374.7344,457.1719 Q374.7344,458.4063 375.625,459.2344 Q376.5156,460.0469 378.1094,460.0469 Q379.0469,460.0469 379.7031,459.7969 Q380.0938,459.6406 380.5156,459.2031 Q380.7813,458.9375 380.9219,458.8594 Q381.0781,458.7813 381.2813,458.7813 Q381.6094,458.7813 381.8594,459.0469 Q382.125,459.2969 382.125,459.6406 Q382.125,459.9844 381.7813,460.3906 Q381.2813,460.9688 380.4844,461.2969 Q379.4063,461.75 378.1094,461.75 Q376.5938,461.75 375.3906,461.125 Q374.4063,460.625 373.7188,459.5625 Q373.0313,458.4844 373.0313,457.2031 L373.0313,456.0469 Q373.0313,454.7188 373.6406,453.5781 Q374.2656,452.4219 375.3594,451.8125 Q376.4531,451.1875 377.6875,451.1875 Q378.4219,451.1875 379.0625,451.3594 Q379.7188,451.5156 380.2656,451.875 Z "/><text fill="#000000" font-family="sans-serif" font-size="12" lengthAdjust="spacingAndGlyphs" textLength="77" x="391.5" y="460.9102">PlayController</text><line style="stroke: #A80036; stroke-width: 1.5;" x1="363.5" x2="470.5" y1="472" y2="472"/><line style="stroke: #A80036; stroke-width: 1.5;" x1="363.5" x2="470.5" y1="480" y2="480"/><!--MD5=[d75e1ad11e6a17be2ba08b218e20e3d7]
class tictactoe.controllers.ResumeController--><rect fill="#FEFECE" filter="url(#f1olts1s1jtsx)" height="48" id="tictactoe.controllers.ResumeController" style="stroke: #A80036; stroke-width: 1.5;" width="134" x="653" y="440"/><ellipse cx="668" cy="456" fill="#ADD1B2" rx="11" ry="11" style="stroke: #A80036; stroke-width: 1.0;"/><path d="M670.7656,451.875 Q670.9219,451.6563 671.1094,451.5469 Q671.2969,451.4375 671.5156,451.4375 Q671.8906,451.4375 672.125,451.7031 Q672.3594,451.9531 672.3594,452.5625 L672.3594,454.0156 Q672.3594,454.625 672.125,454.8906 Q671.8906,455.1563 671.5156,455.1563 Q671.1719,455.1563 670.9688,454.9531 Q670.7656,454.7656 670.6563,454.25 Q670.6094,453.8906 670.4219,453.7031 Q670.0938,453.3281 669.4844,453.1094 Q668.875,452.8906 668.25,452.8906 Q667.4844,452.8906 666.8438,453.2188 Q666.2188,453.5469 665.7188,454.2969 Q665.2344,455.0469 665.2344,456.0781 L665.2344,457.1719 Q665.2344,458.4063 666.125,459.2344 Q667.0156,460.0469 668.6094,460.0469 Q669.5469,460.0469 670.2031,459.7969 Q670.5938,459.6406 671.0156,459.2031 Q671.2813,458.9375 671.4219,458.8594 Q671.5781,458.7813 671.7813,458.7813 Q672.1094,458.7813 672.3594,459.0469 Q672.625,459.2969 672.625,459.6406 Q672.625,459.9844 672.2813,460.3906 Q671.7813,460.9688 670.9844,461.2969 Q669.9063,461.75 668.6094,461.75 Q667.0938,461.75 665.8906,461.125 Q664.9063,460.625 664.2188,459.5625 Q663.5313,458.4844 663.5313,457.2031 L663.5313,456.0469 Q663.5313,454.7188 664.1406,453.5781 Q664.7656,452.4219 665.8594,451.8125 Q666.9531,451.1875 668.1875,451.1875 Q668.9219,451.1875 669.5625,451.3594 Q670.2188,451.5156 670.7656,451.875 Z "/><text fill="#000000" font-family="sans-serif" font-size="12" lengthAdjust="spacingAndGlyphs" textLength="102" x="682" y="460.9102">ResumeController</text><line style="stroke: #A80036; stroke-width: 1.5;" x1="654" x2="786" y1="472" y2="472"/><line style="stroke: #A80036; stroke-width: 1.5;" x1="654" x2="786" y1="480" y2="480"/><!--MD5=[ceb32bf16d0eacc5ebeb8fec652e21b2]
class tictactoe.controllers.SaveController--><rect fill="#FEFECE" filter="url(#f1olts1s1jtsx)" height="48" id="tictactoe.controllers.SaveController" style="stroke: #A80036; stroke-width: 1.5;" width="113" x="822.5" y="440"/><ellipse cx="837.5" cy="456" fill="#ADD1B2" rx="11" ry="11" style="stroke: #A80036; stroke-width: 1.0;"/><path d="M840.2656,451.875 Q840.4219,451.6563 840.6094,451.5469 Q840.7969,451.4375 841.0156,451.4375 Q841.3906,451.4375 841.625,451.7031 Q841.8594,451.9531 841.8594,452.5625 L841.8594,454.0156 Q841.8594,454.625 841.625,454.8906 Q841.3906,455.1563 841.0156,455.1563 Q840.6719,455.1563 840.4688,454.9531 Q840.2656,454.7656 840.1563,454.25 Q840.1094,453.8906 839.9219,453.7031 Q839.5938,453.3281 838.9844,453.1094 Q838.375,452.8906 837.75,452.8906 Q836.9844,452.8906 836.3438,453.2188 Q835.7188,453.5469 835.2188,454.2969 Q834.7344,455.0469 834.7344,456.0781 L834.7344,457.1719 Q834.7344,458.4063 835.625,459.2344 Q836.5156,460.0469 838.1094,460.0469 Q839.0469,460.0469 839.7031,459.7969 Q840.0938,459.6406 840.5156,459.2031 Q840.7813,458.9375 840.9219,458.8594 Q841.0781,458.7813 841.2813,458.7813 Q841.6094,458.7813 841.8594,459.0469 Q842.125,459.2969 842.125,459.6406 Q842.125,459.9844 841.7813,460.3906 Q841.2813,460.9688 840.4844,461.2969 Q839.4063,461.75 838.1094,461.75 Q836.5938,461.75 835.3906,461.125 Q834.4063,460.625 833.7188,459.5625 Q833.0313,458.4844 833.0313,457.2031 L833.0313,456.0469 Q833.0313,454.7188 833.6406,453.5781 Q834.2656,452.4219 835.3594,451.8125 Q836.4531,451.1875 837.6875,451.1875 Q838.4219,451.1875 839.0625,451.3594 Q839.7188,451.5156 840.2656,451.875 Z "/><text fill="#000000" font-family="sans-serif" font-size="12" lengthAdjust="spacingAndGlyphs" textLength="81" x="851.5" y="460.9102">SaveController</text><line style="stroke: #A80036; stroke-width: 1.5;" x1="823.5" x2="934.5" y1="472" y2="472"/><line style="stroke: #A80036; stroke-width: 1.5;" x1="823.5" x2="934.5" y1="480" y2="480"/><!--MD5=[8ede4dbfb3b498095887802b64b699f0]
class tictactoe.controllers.StartController--><rect fill="#FEFECE" filter="url(#f1olts1s1jtsx)" height="48" id="tictactoe.controllers.StartController" style="stroke: #A80036; stroke-width: 1.5;" width="111" x="506.5" y="440"/><ellipse cx="521.5" cy="456" fill="#ADD1B2" rx="11" ry="11" style="stroke: #A80036; stroke-width: 1.0;"/><path d="M524.2656,451.875 Q524.4219,451.6563 524.6094,451.5469 Q524.7969,451.4375 525.0156,451.4375 Q525.3906,451.4375 525.625,451.7031 Q525.8594,451.9531 525.8594,452.5625 L525.8594,454.0156 Q525.8594,454.625 525.625,454.8906 Q525.3906,455.1563 525.0156,455.1563 Q524.6719,455.1563 524.4688,454.9531 Q524.2656,454.7656 524.1563,454.25 Q524.1094,453.8906 523.9219,453.7031 Q523.5938,453.3281 522.9844,453.1094 Q522.375,452.8906 521.75,452.8906 Q520.9844,452.8906 520.3438,453.2188 Q519.7188,453.5469 519.2188,454.2969 Q518.7344,455.0469 518.7344,456.0781 L518.7344,457.1719 Q518.7344,458.4063 519.625,459.2344 Q520.5156,460.0469 522.1094,460.0469 Q523.0469,460.0469 523.7031,459.7969 Q524.0938,459.6406 524.5156,459.2031 Q524.7813,458.9375 524.9219,458.8594 Q525.0781,458.7813 525.2813,458.7813 Q525.6094,458.7813 525.8594,459.0469 Q526.125,459.2969 526.125,459.6406 Q526.125,459.9844 525.7813,460.3906 Q525.2813,460.9688 524.4844,461.2969 Q523.4063,461.75 522.1094,461.75 Q520.5938,461.75 519.3906,461.125 Q518.4063,460.625 517.7188,459.5625 Q517.0313,458.4844 517.0313,457.2031 L517.0313,456.0469 Q517.0313,454.7188 517.6406,453.5781 Q518.2656,452.4219 519.3594,451.8125 Q520.4531,451.1875 521.6875,451.1875 Q522.4219,451.1875 523.0625,451.3594 Q523.7188,451.5156 524.2656,451.875 Z "/><text fill="#000000" font-family="sans-serif" font-size="12" lengthAdjust="spacingAndGlyphs" textLength="79" x="535.5" y="460.9102">StartController</text><line style="stroke: #A80036; stroke-width: 1.5;" x1="507.5" x2="616.5" y1="472" y2="472"/><line style="stroke: #A80036; stroke-width: 1.5;" x1="507.5" x2="616.5" y1="480" y2="480"/><!--MD5=[cd4f094777041ea0b287ad7c5b510f06]
class tictactoe.controllers.ControllersVisitor--><rect fill="#FEFECE" filter="url(#f1olts1s1jtsx)" height="48" id="tictactoe.controllers.ControllersVisitor" style="stroke: #A80036; stroke-width: 1.5;" width="127" x="200.5" y="440"/><ellipse cx="215.5" cy="456" fill="#ADD1B2" rx="11" ry="11" style="stroke: #A80036; stroke-width: 1.0;"/><path d="M218.2656,451.875 Q218.4219,451.6563 218.6094,451.5469 Q218.7969,451.4375 219.0156,451.4375 Q219.3906,451.4375 219.625,451.7031 Q219.8594,451.9531 219.8594,452.5625 L219.8594,454.0156 Q219.8594,454.625 219.625,454.8906 Q219.3906,455.1563 219.0156,455.1563 Q218.6719,455.1563 218.4688,454.9531 Q218.2656,454.7656 218.1563,454.25 Q218.1094,453.8906 217.9219,453.7031 Q217.5938,453.3281 216.9844,453.1094 Q216.375,452.8906 215.75,452.8906 Q214.9844,452.8906 214.3438,453.2188 Q213.7188,453.5469 213.2188,454.2969 Q212.7344,455.0469 212.7344,456.0781 L212.7344,457.1719 Q212.7344,458.4063 213.625,459.2344 Q214.5156,460.0469 216.1094,460.0469 Q217.0469,460.0469 217.7031,459.7969 Q218.0938,459.6406 218.5156,459.2031 Q218.7813,458.9375 218.9219,458.8594 Q219.0781,458.7813 219.2813,458.7813 Q219.6094,458.7813 219.8594,459.0469 Q220.125,459.2969 220.125,459.6406 Q220.125,459.9844 219.7813,460.3906 Q219.2813,460.9688 218.4844,461.2969 Q217.4063,461.75 216.1094,461.75 Q214.5938,461.75 213.3906,461.125 Q212.4063,460.625 211.7188,459.5625 Q211.0313,458.4844 211.0313,457.2031 L211.0313,456.0469 Q211.0313,454.7188 211.6406,453.5781 Q212.2656,452.4219 213.3594,451.8125 Q214.4531,451.1875 215.6875,451.1875 Q216.4219,451.1875 217.0625,451.3594 Q217.7188,451.5156 218.2656,451.875 Z "/><text fill="#000000" font-family="sans-serif" font-size="12" lengthAdjust="spacingAndGlyphs" textLength="95" x="229.5" y="460.9102">ControllersVisitor</text><line style="stroke: #A80036; stroke-width: 1.5;" x1="201.5" x2="326.5" y1="472" y2="472"/><line style="stroke: #A80036; stroke-width: 1.5;" x1="201.5" x2="326.5" y1="480" y2="480"/><!--MD5=[294b28e7c71f580fcd8922373db841ed]
class tictactoe.controllers.AcceptorController--><rect fill="#FEFECE" filter="url(#f1olts1s1jtsx)" height="48" id="tictactoe.controllers.AcceptorController" style="stroke: #A80036; stroke-width: 1.5;" width="133" x="32.5" y="440"/><ellipse cx="47.5" cy="456" fill="#ADD1B2" rx="11" ry="11" style="stroke: #A80036; stroke-width: 1.0;"/><path d="M50.2656,451.875 Q50.4219,451.6563 50.6094,451.5469 Q50.7969,451.4375 51.0156,451.4375 Q51.3906,451.4375 51.625,451.7031 Q51.8594,451.9531 51.8594,452.5625 L51.8594,454.0156 Q51.8594,454.625 51.625,454.8906 Q51.3906,455.1563 51.0156,455.1563 Q50.6719,455.1563 50.4688,454.9531 Q50.2656,454.7656 50.1563,454.25 Q50.1094,453.8906 49.9219,453.7031 Q49.5938,453.3281 48.9844,453.1094 Q48.375,452.8906 47.75,452.8906 Q46.9844,452.8906 46.3438,453.2188 Q45.7188,453.5469 45.2188,454.2969 Q44.7344,455.0469 44.7344,456.0781 L44.7344,457.1719 Q44.7344,458.4063 45.625,459.2344 Q46.5156,460.0469 48.1094,460.0469 Q49.0469,460.0469 49.7031,459.7969 Q50.0938,459.6406 50.5156,459.2031 Q50.7813,458.9375 50.9219,458.8594 Q51.0781,458.7813 51.2813,458.7813 Q51.6094,458.7813 51.8594,459.0469 Q52.125,459.2969 52.125,459.6406 Q52.125,459.9844 51.7813,460.3906 Q51.2813,460.9688 50.4844,461.2969 Q49.4063,461.75 48.1094,461.75 Q46.5938,461.75 45.3906,461.125 Q44.4063,460.625 43.7188,459.5625 Q43.0313,458.4844 43.0313,457.2031 L43.0313,456.0469 Q43.0313,454.7188 43.6406,453.5781 Q44.2656,452.4219 45.3594,451.8125 Q46.4531,451.1875 47.6875,451.1875 Q48.4219,451.1875 49.0625,451.3594 Q49.7188,451.5156 50.2656,451.875 Z "/><text fill="#000000" font-family="sans-serif" font-size="12" lengthAdjust="spacingAndGlyphs" textLength="101" x="61.5" y="460.9102">AcceptorController</text><line style="stroke: #A80036; stroke-width: 1.5;" x1="33.5" x2="164.5" y1="472" y2="472"/><line style="stroke: #A80036; stroke-width: 1.5;" x1="33.5" x2="164.5" y1="480" y2="480"/><!--MD5=[dcf719b4766208d68ecb2f6f86eede79]
class tictactoe.views.menus.PlayMenu--><rect fill="#FEFECE" filter="url(#f1olts1s1jtsx)" height="48" id="tictactoe.views.menus.PlayMenu" style="stroke: #A80036; stroke-width: 1.5;" width="85" x="992.5" y="440"/><ellipse cx="1007.5" cy="456" fill="#ADD1B2" rx="11" ry="11" style="stroke: #A80036; stroke-width: 1.0;"/><path d="M1010.2656,451.875 Q1010.4219,451.6563 1010.6094,451.5469 Q1010.7969,451.4375 1011.0156,451.4375 Q1011.3906,451.4375 1011.625,451.7031 Q1011.8594,451.9531 1011.8594,452.5625 L1011.8594,454.0156 Q1011.8594,454.625 1011.625,454.8906 Q1011.3906,455.1563 1011.0156,455.1563 Q1010.6719,455.1563 1010.4688,454.9531 Q1010.2656,454.7656 1010.1563,454.25 Q1010.1094,453.8906 1009.9219,453.7031 Q1009.5938,453.3281 1008.9844,453.1094 Q1008.375,452.8906 1007.75,452.8906 Q1006.9844,452.8906 1006.3438,453.2188 Q1005.7188,453.5469 1005.2188,454.2969 Q1004.7344,455.0469 1004.7344,456.0781 L1004.7344,457.1719 Q1004.7344,458.4063 1005.625,459.2344 Q1006.5156,460.0469 1008.1094,460.0469 Q1009.0469,460.0469 1009.7031,459.7969 Q1010.0938,459.6406 1010.5156,459.2031 Q1010.7813,458.9375 1010.9219,458.8594 Q1011.0781,458.7813 1011.2813,458.7813 Q1011.6094,458.7813 1011.8594,459.0469 Q1012.125,459.2969 1012.125,459.6406 Q1012.125,459.9844 1011.7813,460.3906 Q1011.2813,460.9688 1010.4844,461.2969 Q1009.4063,461.75 1008.1094,461.75 Q1006.5938,461.75 1005.3906,461.125 Q1004.4063,460.625 1003.7188,459.5625 Q1003.0313,458.4844 1003.0313,457.2031 L1003.0313,456.0469 Q1003.0313,454.7188 1003.6406,453.5781 Q1004.2656,452.4219 1005.3594,451.8125 Q1006.4531,451.1875 1007.6875,451.1875 Q1008.4219,451.1875 1009.0625,451.3594 Q1009.7188,451.5156 1010.2656,451.875 Z "/><text fill="#000000" font-family="sans-serif" font-size="12" lengthAdjust="spacingAndGlyphs" textLength="53" x="1021.5" y="460.9102">PlayMenu</text><line style="stroke: #A80036; stroke-width: 1.5;" x1="993.5" x2="1076.5" y1="472" y2="472"/><line style="stroke: #A80036; stroke-width: 1.5;" x1="993.5" x2="1076.5" y1="480" y2="480"/><!--MD5=[2dcb8e10b6e8b78f41f52f48677e1ea3]
class utils.WithConsoleView--><rect fill="#FEFECE" filter="url(#f1olts1s1jtsx)" height="48" id="utils.WithConsoleView" style="stroke: #A80036; stroke-width: 1.5;" width="129" x="1168.5" y="111"/><ellipse cx="1183.5" cy="127" fill="#ADD1B2" rx="11" ry="11" style="stroke: #A80036; stroke-width: 1.0;"/><path d="M1186.2656,122.875 Q1186.4219,122.6563 1186.6094,122.5469 Q1186.7969,122.4375 1187.0156,122.4375 Q1187.3906,122.4375 1187.625,122.7031 Q1187.8594,122.9531 1187.8594,123.5625 L1187.8594,125.0156 Q1187.8594,125.625 1187.625,125.8906 Q1187.3906,126.1563 1187.0156,126.1563 Q1186.6719,126.1563 1186.4688,125.9531 Q1186.2656,125.7656 1186.1563,125.25 Q1186.1094,124.8906 1185.9219,124.7031 Q1185.5938,124.3281 1184.9844,124.1094 Q1184.375,123.8906 1183.75,123.8906 Q1182.9844,123.8906 1182.3438,124.2188 Q1181.7188,124.5469 1181.2188,125.2969 Q1180.7344,126.0469 1180.7344,127.0781 L1180.7344,128.1719 Q1180.7344,129.4063 1181.625,130.2344 Q1182.5156,131.0469 1184.1094,131.0469 Q1185.0469,131.0469 1185.7031,130.7969 Q1186.0938,130.6406 1186.5156,130.2031 Q1186.7813,129.9375 1186.9219,129.8594 Q1187.0781,129.7813 1187.2813,129.7813 Q1187.6094,129.7813 1187.8594,130.0469 Q1188.125,130.2969 1188.125,130.6406 Q1188.125,130.9844 1187.7813,131.3906 Q1187.2813,131.9688 1186.4844,132.2969 Q1185.4063,132.75 1184.1094,132.75 Q1182.5938,132.75 1181.3906,132.125 Q1180.4063,131.625 1179.7188,130.5625 Q1179.0313,129.4844 1179.0313,128.2031 L1179.0313,127.0469 Q1179.0313,125.7188 1179.6406,124.5781 Q1180.2656,123.4219 1181.3594,122.8125 Q1182.4531,122.1875 1183.6875,122.1875 Q1184.4219,122.1875 1185.0625,122.3594 Q1185.7188,122.5156 1186.2656,122.875 Z "/><text fill="#000000" font-family="sans-serif" font-size="12" lengthAdjust="spacingAndGlyphs" textLength="97" x="1197.5" y="131.9102">WithConsoleView</text><line style="stroke: #A80036; stroke-width: 1.5;" x1="1169.5" x2="1296.5" y1="143" y2="143"/><line style="stroke: #A80036; stroke-width: 1.5;" x1="1169.5" x2="1296.5" y1="151" y2="151"/><!--MD5=[3eea00d89eb7af8160b9007b551ff4f7]
class tictactoe.views.models.MessageView--><rect fill="#FEFECE" filter="url(#f1olts1s1jtsx)" height="48" id="tictactoe.views.models.MessageView" style="stroke: #A80036; stroke-width: 1.5;" width="109" x="1189.5" y="440"/><ellipse cx="1204.5" cy="456" fill="#ADD1B2" rx="11" ry="11" style="stroke: #A80036; stroke-width: 1.0;"/><path d="M1207.2656,451.875 Q1207.4219,451.6563 1207.6094,451.5469 Q1207.7969,451.4375 1208.0156,451.4375 Q1208.3906,451.4375 1208.625,451.7031 Q1208.8594,451.9531 1208.8594,452.5625 L1208.8594,454.0156 Q1208.8594,454.625 1208.625,454.8906 Q1208.3906,455.1563 1208.0156,455.1563 Q1207.6719,455.1563 1207.4688,454.9531 Q1207.2656,454.7656 1207.1563,454.25 Q1207.1094,453.8906 1206.9219,453.7031 Q1206.5938,453.3281 1205.9844,453.1094 Q1205.375,452.8906 1204.75,452.8906 Q1203.9844,452.8906 1203.3438,453.2188 Q1202.7188,453.5469 1202.2188,454.2969 Q1201.7344,455.0469 1201.7344,456.0781 L1201.7344,457.1719 Q1201.7344,458.4063 1202.625,459.2344 Q1203.5156,460.0469 1205.1094,460.0469 Q1206.0469,460.0469 1206.7031,459.7969 Q1207.0938,459.6406 1207.5156,459.2031 Q1207.7813,458.9375 1207.9219,458.8594 Q1208.0781,458.7813 1208.2813,458.7813 Q1208.6094,458.7813 1208.8594,459.0469 Q1209.125,459.2969 1209.125,459.6406 Q1209.125,459.9844 1208.7813,460.3906 Q1208.2813,460.9688 1207.4844,461.2969 Q1206.4063,461.75 1205.1094,461.75 Q1203.5938,461.75 1202.3906,461.125 Q1201.4063,460.625 1200.7188,459.5625 Q1200.0313,458.4844 1200.0313,457.2031 L1200.0313,456.0469 Q1200.0313,454.7188 1200.6406,453.5781 Q1201.2656,452.4219 1202.3594,451.8125 Q1203.4531,451.1875 1204.6875,451.1875 Q1205.4219,451.1875 1206.0625,451.3594 Q1206.7188,451.5156 1207.2656,451.875 Z "/><text fill="#000000" font-family="sans-serif" font-size="12" lengthAdjust="spacingAndGlyphs" textLength="77" x="1218.5" y="460.9102">MessageView</text><line style="stroke: #A80036; stroke-width: 1.5;" x1="1190.5" x2="1297.5" y1="472" y2="472"/><line style="stroke: #A80036; stroke-width: 1.5;" x1="1190.5" x2="1297.5" y1="480" y2="480"/><!--MD5=[0627087c8b360ca7b4e1fb8a5432e32d]
link tictactoe.views.PlayView to tictactoe.controllers.PlayController--><path d="M413.11,357.183 C413.957,380.221 415.116,411.751 415.948,434.3901 " fill="none" id="tictactoe.views.PlayView-&gt;tictactoe.controllers.PlayController" style="stroke: #A80036; stroke-width: 1.0; stroke-dasharray: 7.0,7.0;"/><polygon fill="#A80036" points="416.142,439.6546,419.8084,430.5136,415.9582,434.658,411.8138,430.8078,416.142,439.6546" style="stroke: #A80036; stroke-width: 1.0;"/><!--MD5=[d8bf4d629fd2f8015322eb04bfa59e8e]
link tictactoe.views.PlayView to tictactoe.views.menus.PlayMenu--><path d="M450.137,357.151 C467.641,369.168 489.302,381.639 511,388 C558.029,401.787 905.94,379.258 952,396 C974.623,404.223 995.671,421.3691 1010.91,436.2566 " fill="none" id="tictactoe.views.PlayView-&gt;tictactoe.views.menus.PlayMenu" style="stroke: #A80036; stroke-width: 1.0; stroke-dasharray: 7.0,7.0;"/><polygon fill="#A80036" points="1014.66,439.9861,1011.1048,430.8013,1011.1169,436.4581,1005.4601,436.4703,1014.66,439.9861" style="stroke: #A80036; stroke-width: 1.0;"/><!--MD5=[f587a20a185ef9755287c04e2c6563d6]
reverse link utils.WithConsoleView to tictactoe.views.ResumeView--><path d="M1197.94,173.616 C1178.82,192.241 1153.82,213.735 1128,228 C1046.4,273.088 1015.78,259.553 927,288 C920.111,290.207 912.991,292.537 905.845,294.91 " fill="none" id="utils.WithConsoleView&lt;-tictactoe.views.ResumeView" style="stroke: #A80036; stroke-width: 1.0;"/><polygon fill="none" points="1193.18,168.477,1212.22,159.177,1203.13,178.321,1193.18,168.477" style="stroke: #A80036; stroke-width: 1.0;"/><!--MD5=[f39eb4ea286d8685b2e22dc3f790a320]
link tictactoe.views.ResumeView to tictactoe.controllers.ResumeController--><path d="M797.029,357.183 C779.975,380.61 756.53,412.818 739.997,435.5287 " fill="none" id="tictactoe.views.ResumeView-&gt;tictactoe.controllers.ResumeController" style="stroke: #A80036; stroke-width: 1.0; stroke-dasharray: 7.0,7.0;"/><polygon fill="#A80036" points="736.994,439.6546,745.5243,434.7319,739.9364,435.612,739.0562,430.0241,736.994,439.6546" style="stroke: #A80036; stroke-width: 1.0;"/><!--MD5=[2270d6b38540c4abdd955792b3999cb2]
link tictactoe.views.ResumeView to tictactoe.views.models.MessageView--><path d="M861.334,357 C880.47,368.911 903.931,381.341 927,388 C998.393,408.607 1021.72,378.772 1094,396 C1130.87,404.787 1169.88,422.5061 1198.88,437.5156 " fill="none" id="tictactoe.views.ResumeView-&gt;tictactoe.views.models.MessageView" style="stroke: #A80036; stroke-width: 1.0; stroke-dasharray: 7.0,7.0;"/><polygon fill="#A80036" points="1203.44,439.8995,1197.3135,432.188,1199.0078,437.5852,1193.6107,439.2795,1203.44,439.8995" style="stroke: #A80036; stroke-width: 1.0;"/><!--MD5=[5f92c60181347c8b3d0795b487255df2]
reverse link utils.WithConsoleView to tictactoe.views.SaveView--><path d="M1193.07,172.814 C1157.03,206.04 1104.28,254.677 1068.17,287.97 " fill="none" id="utils.WithConsoleView&lt;-tictactoe.views.SaveView" style="stroke: #A80036; stroke-width: 1.0;"/><polygon fill="none" points="1188.41,167.585,1207.86,159.175,1197.9,177.878,1188.41,167.585" style="stroke: #A80036; stroke-width: 1.0;"/><!--MD5=[e7da8417e90a1dd7e138ce4fb41b934d]
link tictactoe.views.SaveView to tictactoe.controllers.SaveController--><path d="M987.285,364.163 C962.198,387.061 930.626,415.878 908.057,436.478 " fill="none" id="tictactoe.views.SaveView-&gt;tictactoe.controllers.SaveController" style="stroke: #A80036; stroke-width: 1.0; stroke-dasharray: 7.0,7.0;"/><polygon fill="#A80036" points="904.234,439.9679,913.5783,436.856,907.9274,436.5976,908.1858,430.9466,904.234,439.9679" style="stroke: #A80036; stroke-width: 1.0;"/><!--MD5=[51a96a9188f2b3a9a436efb5a620c595]
link tictactoe.views.SaveView to tictactoe.views.models.MessageView--><path d="M1087.02,364.163 C1123.84,387.345 1170.3,416.594 1203.09,437.2403 " fill="none" id="tictactoe.views.SaveView-&gt;tictactoe.views.models.MessageView" style="stroke: #A80036; stroke-width: 1.0; stroke-dasharray: 7.0,7.0;"/><polygon fill="#A80036" points="1207.42,439.9679,1201.9256,431.7941,1203.1857,437.3088,1197.671,438.5689,1207.42,439.9679" style="stroke: #A80036; stroke-width: 1.0;"/><!--MD5=[966179d8fef886a25ae727661f9b2e48]
reverse link utils.WithConsoleView to tictactoe.views.StartView--><path d="M1200.13,173.823 C1181.07,193.223 1155.45,215.371 1128,228 C957.898,306.261 892.484,241.922 711,288 C703.195,289.982 695.155,292.358 687.186,294.938 " fill="none" id="utils.WithConsoleView&lt;-tictactoe.views.StartView" style="stroke: #A80036; stroke-width: 1.0;"/><polygon fill="none" points="1195.14,168.908,1213.91,159.088,1205.36,178.474,1195.14,168.908" style="stroke: #A80036; stroke-width: 1.0;"/><!--MD5=[f18dc1c115513e0160ca5b4d42b5fd94]
link tictactoe.views.StartView to tictactoe.controllers.StartController--><path d="M600.125,357.183 C591.79,380.318 580.369,412.017 572.205,434.6762 " fill="none" id="tictactoe.views.StartView-&gt;tictactoe.controllers.StartController" style="stroke: #A80036; stroke-width: 1.0; stroke-dasharray: 7.0,7.0;"/><polygon fill="#A80036" points="570.411,439.6546,577.2255,432.5438,572.1062,434.9507,569.6993,429.8315,570.411,439.6546" style="stroke: #A80036; stroke-width: 1.0;"/><!--MD5=[a9d34e70fe4cb465d0d2ad36b511c9d4]
link tictactoe.views.StartView to tictactoe.views.models.MessageView--><path d="M649.574,357.125 C667.264,369.137 689.138,381.611 711,388 C751.856,399.939 1052.47,386.691 1094,396 C1131.25,404.348 1170.55,422.2808 1199.57,437.494 " fill="none" id="tictactoe.views.StartView-&gt;tictactoe.views.models.MessageView" style="stroke: #A80036; stroke-width: 1.0; stroke-dasharray: 7.0,7.0;"/><polygon fill="#A80036" points="1204.14,439.9104,1198.0419,432.1765,1199.7164,437.5798,1194.313,439.2543,1204.14,439.9104" style="stroke: #A80036; stroke-width: 1.0;"/><!--MD5=[bae5594b3c63cb06ff2a3325ab17e046]
reverse link tictactoe.controllers.ControllersVisitor to tictactoe.views.View--><path d="M268.167,419.793 C273.542,382.189 285.707,327.647 313,288 C341.452,246.669 384.849,212.16 424.401,186.525 " fill="none" id="tictactoe.controllers.ControllersVisitor&lt;-tictactoe.views.View" style="stroke: #A80036; stroke-width: 1.0;"/><polygon fill="none" points="275.104,420.7351,265.724,439.7355,261.208,419.033,275.104,420.7351" style="stroke: #A80036; stroke-width: 1.0;"/><!--MD5=[5d78c275b02ce59117e4a14d2ccb3ad7]
link tictactoe.views.View to tictactoe.controllers.AcceptorController--><path d="M424.324,184.621 C375.122,212.067 315.032,248.691 266,288 C208.304,334.254 150.969,399.672 120.795,436.0082 " fill="none" id="tictactoe.views.View-&gt;tictactoe.controllers.AcceptorController" style="stroke: #A80036; stroke-width: 1.0; stroke-dasharray: 7.0,7.0;"/><polygon fill="#A80036" points="117.606,439.862,126.4251,435.4776,120.7933,436.0096,120.2613,430.3778,117.606,439.862" style="stroke: #A80036; stroke-width: 1.0;"/><!--MD5=[162e61ccfe0c70dae4a3356c790f8713]
link tictactoe.views.View to tictactoe.views.StartView--><path d="M568.5724,238.7759 C568.5724,238.7759 584.009,270.148 590.405,283.145 " fill="none" id="tictactoe.views.View-tictactoe.views.StartView" style="stroke: #A80036; stroke-width: 1.0;"/><polygon fill="#A80036" points="596.216,294.955,595.8312,285.1137,594.0083,290.4688,588.6532,288.6459,596.216,294.955" style="stroke: #A80036; stroke-width: 1.0;"/><line style="stroke: #A80036; stroke-width: 1.0;" x1="594.0083" x2="590.4765" y1="290.4688" y2="283.291"/><polygon fill="#A80036" points="563.274,228.009,562.3342,235.1586,568.5724,238.7759,569.5122,231.6263,563.274,228.009" style="stroke: #A80036; stroke-width: 1.0;"/><!--MD5=[b154bf5c27e08267002d89cc620f84e6]
link tictactoe.views.View to tictactoe.views.PlayView--><path d="M460.5265,238.475 C460.5265,238.475 442.729,270.21 435.312,283.434 " fill="none" id="tictactoe.views.View-tictactoe.views.PlayView" style="stroke: #A80036; stroke-width: 1.0;"/><polygon fill="#A80036" points="428.85,294.955,436.7416,289.0624,431.2961,290.5942,429.7643,285.1487,428.85,294.955" style="stroke: #A80036; stroke-width: 1.0;"/><line style="stroke: #A80036; stroke-width: 1.0;" x1="431.2961" x2="435.2095" y1="290.5942" y2="283.617"/><polygon fill="#A80036" points="466.397,228.009,459.9731,231.2851,460.5265,238.475,466.9504,235.1988,466.397,228.009" style="stroke: #A80036; stroke-width: 1.0;"/><!--MD5=[afcf6b005ce7a9dee40893f2fbfbdb1e]
link tictactoe.views.View to tictactoe.views.SaveView--><path d="M622.7941,174.8361 C622.7941,174.8361 844.173,256.876 931.974,289.414 " fill="none" id="tictactoe.views.View-tictactoe.views.SaveView" style="stroke: #A80036; stroke-width: 1.0;"/><polygon fill="#A80036" points="944.346,293.999,937.2967,287.121,939.6575,292.2616,934.5169,294.6225,944.346,293.999" style="stroke: #A80036; stroke-width: 1.0;"/><line style="stroke: #A80036; stroke-width: 1.0;" x1="939.6575" x2="932.156" y1="292.2616" y2="289.4815"/><polygon fill="#A80036" points="611.542,170.666,615.778,176.5018,622.7941,174.8361,618.5581,169.0003,611.542,170.666" style="stroke: #A80036; stroke-width: 1.0;"/><!--MD5=[7b150ce1c9f94aa8e3a34d59dc556e30]
link tictactoe.views.View to tictactoe.views.ResumeView--><path d="M621.7508,201.146 C621.7508,201.146 720.83,263.358 759.799,287.827 " fill="none" id="tictactoe.views.View-tictactoe.views.ResumeView" style="stroke: #A80036; stroke-width: 1.0;"/><polygon fill="#A80036" points="770.936,294.821,765.4409,286.6477,766.7015,292.1623,761.1869,293.4229,770.936,294.821" style="stroke: #A80036; stroke-width: 1.0;"/><line style="stroke: #A80036; stroke-width: 1.0;" x1="766.7015" x2="759.9265" y1="292.1623" y2="287.9075"/><polygon fill="#A80036" points="611.588,194.765,614.5424,201.3431,621.7508,201.146,618.7964,194.5679,611.588,194.765" style="stroke: #A80036; stroke-width: 1.0;"/><!--MD5=[818eec0f12ea06cbe07b67f424616697]
@startuml

class tictactoe.views.PlayView{
~ interact(PlayController): void
}
tictactoe.views.PlayView ..> tictactoe.controllers.PlayController
tictactoe.views.PlayView ..> tictactoe.views.menus.PlayMenu

class tictactoe.views.ResumeView{
~ interact(ResumeController): void
}
utils.WithConsoleView <|-down- tictactoe.views.ResumeView
tictactoe.views.ResumeView ..> tictactoe.controllers.ResumeController
tictactoe.views.ResumeView ..> tictactoe.views.models.MessageView

class  tictactoe.views.SaveView{
~ SaveView()
~ interact(SaveController): void
}
utils.WithConsoleView <|-down- tictactoe.views.SaveView
tictactoe.views.SaveView ..> tictactoe.controllers.SaveController
tictactoe.views.SaveView..> tictactoe.views.models.MessageView

class tictactoe.views.StartView{
~ interact(StartController): void
}
utils.WithConsoleView <|-down- tictactoe.views.StartView
tictactoe.views.StartView ..> tictactoe.controllers.StartController
tictactoe.views.StartView ..> tictactoe.views.models.MessageView

class  tictactoe.views.View{
- startView: StartView
- playView: PlayView
- saveView: SaveView
- resumeView: ResumeView
+ View()
+ interact(AcceptorController): void
+ visit(StartController): void
+ visit(PlayController): void
+ visit(SaveController): void
+ visit(ResumeController): void
}
tictactoe.controllers.ControllersVisitor <|-down- tictactoe.views.View
tictactoe.views.View ..> tictactoe.controllers.AcceptorController
tictactoe.views.View *-down-> tictactoe.views.StartView
tictactoe.views.View *-down-> tictactoe.views.PlayView
tictactoe.views.View *-down-> tictactoe.views.SaveView
tictactoe.views.View *-down-> tictactoe.views.ResumeView

@enduml

PlantUML version 1.2020.15(Sun Jun 28 13:39:45 CEST 2020)
(GPL source distribution)
Java Runtime: Java(TM) SE Runtime Environment
JVM: Java HotSpot(TM) 64-Bit Server VM
Default Encoding: windows-1252
Language: es
Country: ES
--></g></svg>