<?xml version="1.0" encoding="UTF-8" standalone="no"?><svg xmlns="http://www.w3.org/2000/svg" xmlns:xlink="http://www.w3.org/1999/xlink" contentScriptType="application/ecmascript" contentStyleType="text/css" height="1394px" preserveAspectRatio="none" style="width:959px;height:1394px;" version="1.1" viewBox="0 0 959 1394" width="959px" zoomAndPan="magnify"><defs><filter height="300%" id="fcmfjco77ousx" width="300%" x="-1" y="-1"><feGaussianBlur result="blurOut" stdDeviation="2.0"/><feColorMatrix in="blurOut" result="blurOut2" type="matrix" values="0 0 0 0 0 0 0 0 0 0 0 0 0 0 0 0 0 0 .4 0"/><feOffset dx="4.0" dy="4.0" in="blurOut2" result="blurOut3"/><feBlend in="SourceGraphic" in2="blurOut3" mode="normal"/></filter></defs><g><!--MD5=[51cd642fcc96b47682a93d9084d46dec]
cluster tictactoe.models--><polygon fill="#FFFFFF" filter="url(#fcmfjco77ousx)" points="16,6,138,6,145,29.6094,671,29.6094,671,1258,16,1258,16,6" style="stroke: #000000; stroke-width: 1.5;"/><line style="stroke: #000000; stroke-width: 1.5;" x1="16" x2="145" y1="29.6094" y2="29.6094"/><text fill="#000000" font-family="sans-serif" font-size="14" font-weight="bold" lengthAdjust="spacingAndGlyphs" textLength="116" x="20" y="22.5332">tictactoe.models</text><!--MD5=[c52f45833d539af9e29a9d34b8b7302b]
cluster utils--><polygon fill="#FFFFFF" filter="url(#fcmfjco77ousx)" points="695,863,731,863,738,886.6094,937,886.6094,937,963,695,963,695,863" style="stroke: #000000; stroke-width: 1.5;"/><line style="stroke: #000000; stroke-width: 1.5;" x1="695" x2="738" y1="886.6094" y2="886.6094"/><text fill="#000000" font-family="sans-serif" font-size="14" font-weight="bold" lengthAdjust="spacingAndGlyphs" textLength="30" x="699" y="879.5332">utils</text><!--MD5=[7db3c59d38ae5b37b484eb2df9368145]
cluster java.util--><polygon fill="#FFFFFF" filter="url(#fcmfjco77ousx)" points="503,1282,564,1282,571,1305.6094,615,1305.6094,615,1382,503,1382,503,1282" style="stroke: #000000; stroke-width: 1.5;"/><line style="stroke: #000000; stroke-width: 1.5;" x1="503" x2="571" y1="1305.6094" y2="1305.6094"/><text fill="#000000" font-family="sans-serif" font-size="14" font-weight="bold" lengthAdjust="spacingAndGlyphs" textLength="55" x="507" y="1298.5332">java.util</text><!--MD5=[f2254b5fdbf93effa50eb20dc057829b]
class tictactoe.models.Board--><rect fill="#FEFECE" filter="url(#fcmfjco77ousx)" height="214.0313" id="tictactoe.models.Board" style="stroke: #A80036; stroke-width: 1.5;" width="219" x="272.5" y="330"/><ellipse cx="361.25" cy="346" fill="#ADD1B2" rx="11" ry="11" style="stroke: #A80036; stroke-width: 1.0;"/><path d="M364.0156,341.875 Q364.1719,341.6563 364.3594,341.5469 Q364.5469,341.4375 364.7656,341.4375 Q365.1406,341.4375 365.375,341.7031 Q365.6094,341.9531 365.6094,342.5625 L365.6094,344.0156 Q365.6094,344.625 365.375,344.8906 Q365.1406,345.1563 364.7656,345.1563 Q364.4219,345.1563 364.2188,344.9531 Q364.0156,344.7656 363.9063,344.25 Q363.8594,343.8906 363.6719,343.7031 Q363.3438,343.3281 362.7344,343.1094 Q362.125,342.8906 361.5,342.8906 Q360.7344,342.8906 360.0938,343.2188 Q359.4688,343.5469 358.9688,344.2969 Q358.4844,345.0469 358.4844,346.0781 L358.4844,347.1719 Q358.4844,348.4063 359.375,349.2344 Q360.2656,350.0469 361.8594,350.0469 Q362.7969,350.0469 363.4531,349.7969 Q363.8438,349.6406 364.2656,349.2031 Q364.5313,348.9375 364.6719,348.8594 Q364.8281,348.7813 365.0313,348.7813 Q365.3594,348.7813 365.6094,349.0469 Q365.875,349.2969 365.875,349.6406 Q365.875,349.9844 365.5313,350.3906 Q365.0313,350.9688 364.2344,351.2969 Q363.1563,351.75 361.8594,351.75 Q360.3438,351.75 359.1406,351.125 Q358.1563,350.625 357.4688,349.5625 Q356.7813,348.4844 356.7813,347.2031 L356.7813,346.0469 Q356.7813,344.7188 357.3906,343.5781 Q358.0156,342.4219 359.1094,341.8125 Q360.2031,341.1875 361.4375,341.1875 Q362.1719,341.1875 362.8125,341.3594 Q363.4688,341.5156 364.0156,341.875 Z "/><text fill="#000000" font-family="sans-serif" font-size="12" lengthAdjust="spacingAndGlyphs" textLength="33" x="381.75" y="350.9102">Board</text><line style="stroke: #A80036; stroke-width: 1.5;" x1="273.5" x2="490.5" y1="362" y2="362"/><ellipse cx="283.5" cy="373" fill="none" rx="3" ry="3" style="stroke: #038048; stroke-width: 1.0;"/><text fill="#000000" font-family="sans-serif" font-size="11" lengthAdjust="spacingAndGlyphs" text-decoration="underline" textLength="62" x="292.5" y="377.4189">EMPTY: char</text><rect fill="none" height="6" style="stroke: #C82930; stroke-width: 1.0;" width="6" x="280.5" y="383.8359"/><text fill="#000000" font-family="sans-serif" font-size="11" lengthAdjust="spacingAndGlyphs" textLength="127" x="292.5" y="391.2549">coordinates: Coordinate[][]</text><line style="stroke: #A80036; stroke-width: 1.5;" x1="273.5" x2="490.5" y1="397.6719" y2="397.6719"/><ellipse cx="283.5" cy="408.6719" fill="#84BE84" rx="3" ry="3" style="stroke: #038048; stroke-width: 1.0;"/><text fill="#000000" font-family="sans-serif" font-size="11" lengthAdjust="spacingAndGlyphs" textLength="37" x="292.5" y="413.0908">Board()</text><ellipse cx="283.5" cy="422.5078" fill="#84BE84" rx="3" ry="3" style="stroke: #038048; stroke-width: 1.0;"/><text fill="#000000" font-family="sans-serif" font-size="11" lengthAdjust="spacingAndGlyphs" textLength="139" x="292.5" y="426.9268">getToken(Coordinate): Token</text><polygon fill="#4177AF" points="283.5,432.3438,279.5,438.3438,287.5,438.3438" style="stroke: #1963A0; stroke-width: 1.0;"/><text fill="#000000" font-family="sans-serif" font-size="11" lengthAdjust="spacingAndGlyphs" textLength="170" x="292.5" y="440.7627">move(Coordinate, Coordinate): void</text><polygon fill="#4177AF" points="283.5,446.1797,279.5,452.1797,287.5,452.1797" style="stroke: #1963A0; stroke-width: 1.0;"/><text fill="#000000" font-family="sans-serif" font-size="11" lengthAdjust="spacingAndGlyphs" textLength="136" x="292.5" y="454.5986">put(Coordinate, Token): void</text><rect fill="#F24D5C" height="6" style="stroke: #C82930; stroke-width: 1.0;" width="6" x="280.5" y="461.0156"/><text fill="#000000" font-family="sans-serif" font-size="11" lengthAdjust="spacingAndGlyphs" textLength="122" x="292.5" y="468.4346">remove(Coordinate): void</text><polygon fill="#4177AF" points="283.5,473.8516,279.5,479.8516,287.5,479.8516" style="stroke: #1963A0; stroke-width: 1.0;"/><text fill="#000000" font-family="sans-serif" font-size="11" lengthAdjust="spacingAndGlyphs" textLength="139" x="292.5" y="482.2705">isTicTacToe(Token): boolean</text><rect fill="#F24D5C" height="6" style="stroke: #C82930; stroke-width: 1.0;" width="6" x="280.5" y="488.6875"/><text fill="#000000" font-family="sans-serif" font-size="11" lengthAdjust="spacingAndGlyphs" textLength="189" x="292.5" y="496.1064">numberOfCoordinates(Coordinate[]): int</text><polygon fill="#4177AF" points="283.5,501.5234,279.5,507.5234,287.5,507.5234" style="stroke: #1963A0; stroke-width: 1.0;"/><text fill="#000000" font-family="sans-serif" font-size="11" lengthAdjust="spacingAndGlyphs" textLength="110" x="292.5" y="509.9424">isCompleted(): boolean</text><ellipse cx="283.5" cy="519.3594" fill="#84BE84" rx="3" ry="3" style="stroke: #038048; stroke-width: 1.0;"/><text fill="#000000" font-family="sans-serif" font-size="11" lengthAdjust="spacingAndGlyphs" textLength="141" x="292.5" y="523.7783">isEmpty(Coordinate): boolean</text><polygon fill="#4177AF" points="283.5,529.1953,279.5,535.1953,287.5,535.1953" style="stroke: #1963A0; stroke-width: 1.0;"/><text fill="#000000" font-family="sans-serif" font-size="11" lengthAdjust="spacingAndGlyphs" textLength="193" x="292.5" y="537.6143">isOccupied(Coordinate, Token): boolean</text><!--MD5=[55d70ecb9e3ba4786ec1f15d0b7dce13]
class tictactoe.models.Coordinate--><rect fill="#FEFECE" filter="url(#fcmfjco77ousx)" height="158.6875" id="tictactoe.models.Coordinate" style="stroke: #A80036; stroke-width: 1.5;" width="191" x="463.5" y="1083"/><ellipse cx="524.25" cy="1099" fill="#ADD1B2" rx="11" ry="11" style="stroke: #A80036; stroke-width: 1.0;"/><path d="M527.0156,1094.875 Q527.1719,1094.6563 527.3594,1094.5469 Q527.5469,1094.4375 527.7656,1094.4375 Q528.1406,1094.4375 528.375,1094.7031 Q528.6094,1094.9531 528.6094,1095.5625 L528.6094,1097.0156 Q528.6094,1097.625 528.375,1097.8906 Q528.1406,1098.1563 527.7656,1098.1563 Q527.4219,1098.1563 527.2188,1097.9531 Q527.0156,1097.7656 526.9063,1097.25 Q526.8594,1096.8906 526.6719,1096.7031 Q526.3438,1096.3281 525.7344,1096.1094 Q525.125,1095.8906 524.5,1095.8906 Q523.7344,1095.8906 523.0938,1096.2188 Q522.4688,1096.5469 521.9688,1097.2969 Q521.4844,1098.0469 521.4844,1099.0781 L521.4844,1100.1719 Q521.4844,1101.4063 522.375,1102.2344 Q523.2656,1103.0469 524.8594,1103.0469 Q525.7969,1103.0469 526.4531,1102.7969 Q526.8438,1102.6406 527.2656,1102.2031 Q527.5313,1101.9375 527.6719,1101.8594 Q527.8281,1101.7813 528.0313,1101.7813 Q528.3594,1101.7813 528.6094,1102.0469 Q528.875,1102.2969 528.875,1102.6406 Q528.875,1102.9844 528.5313,1103.3906 Q528.0313,1103.9688 527.2344,1104.2969 Q526.1563,1104.75 524.8594,1104.75 Q523.3438,1104.75 522.1406,1104.125 Q521.1563,1103.625 520.4688,1102.5625 Q519.7813,1101.4844 519.7813,1100.2031 L519.7813,1099.0469 Q519.7813,1097.7188 520.3906,1096.5781 Q521.0156,1095.4219 522.1094,1094.8125 Q523.2031,1094.1875 524.4375,1094.1875 Q525.1719,1094.1875 525.8125,1094.3594 Q526.4688,1094.5156 527.0156,1094.875 Z "/><text fill="#000000" font-family="sans-serif" font-size="12" lengthAdjust="spacingAndGlyphs" textLength="61" x="544.75" y="1103.9102">Coordinate</text><line style="stroke: #A80036; stroke-width: 1.5;" x1="464.5" x2="653.5" y1="1115" y2="1115"/><ellipse cx="474.5" cy="1126" fill="none" rx="3" ry="3" style="stroke: #038048; stroke-width: 1.0;"/><text fill="#000000" font-family="sans-serif" font-size="11" lengthAdjust="spacingAndGlyphs" text-decoration="underline" textLength="82" x="483.5" y="1130.4189">DIMENSION: char</text><line style="stroke: #A80036; stroke-width: 1.5;" x1="464.5" x2="653.5" y1="1136.8359" y2="1136.8359"/><ellipse cx="474.5" cy="1147.8359" fill="#84BE84" rx="3" ry="3" style="stroke: #038048; stroke-width: 1.0;"/><text fill="#000000" font-family="sans-serif" font-size="11" lengthAdjust="spacingAndGlyphs" textLength="60" x="483.5" y="1152.2549">Coordinate()</text><ellipse cx="474.5" cy="1161.6719" fill="#84BE84" rx="3" ry="3" style="stroke: #038048; stroke-width: 1.0;"/><text fill="#000000" font-family="sans-serif" font-size="11" lengthAdjust="spacingAndGlyphs" textLength="88" x="483.5" y="1166.0908">Coordinate(int, int)</text><polygon fill="#4177AF" points="474.5,1171.5078,470.5,1177.5078,478.5,1177.5078" style="stroke: #1963A0; stroke-width: 1.0;"/><text fill="#000000" font-family="sans-serif" font-size="11" lengthAdjust="spacingAndGlyphs" textLength="154" x="483.5" y="1179.9268">inDirection(Coordinate): boolean</text><polygon fill="#4177AF" points="474.5,1185.3438,470.5,1191.3438,478.5,1191.3438" style="stroke: #1963A0; stroke-width: 1.0;"/><text fill="#000000" font-family="sans-serif" font-size="11" lengthAdjust="spacingAndGlyphs" textLength="165" x="483.5" y="1193.7627">getDirection(Coordinate): Direction</text><rect fill="#F24D5C" height="6" style="stroke: #C82930; stroke-width: 1.0;" width="6" x="471.5" y="1200.1797"/><text fill="#000000" font-family="sans-serif" font-size="11" lengthAdjust="spacingAndGlyphs" textLength="137" x="483.5" y="1207.5986">inInverseDiagonal(): boolean</text><ellipse cx="474.5" cy="1217.0156" fill="#84BE84" rx="3" ry="3" style="stroke: #038048; stroke-width: 1.0;"/><text fill="#000000" font-family="sans-serif" font-size="11" lengthAdjust="spacingAndGlyphs" textLength="84" x="483.5" y="1221.4346">isValid(): boolean</text><ellipse cx="474.5" cy="1230.8516" fill="#84BE84" rx="3" ry="3" style="stroke: #038048; stroke-width: 1.0;"/><text fill="#000000" font-family="sans-serif" font-size="11" lengthAdjust="spacingAndGlyphs" textLength="70" x="483.5" y="1235.2705">random(): void</text><!--MD5=[f99d6ba965ae285bf04848666e285ab1]
class tictactoe.models.Token--><rect fill="#FEFECE" filter="url(#fcmfjco77ousx)" height="117.1797" id="tictactoe.models.Token" style="stroke: #A80036; stroke-width: 1.5;" width="101" x="32.5" y="1104"/><ellipse cx="63.25" cy="1120" fill="#EB937F" rx="11" ry="11" style="stroke: #A80036; stroke-width: 1.0;"/><path d="M62.1094,1120.7969 L62.1094,1123.2969 L66.4375,1123.2969 L66.4375,1122.375 Q66.4375,1121.7656 66.6719,1121.5 Q66.9219,1121.2344 67.2969,1121.2344 Q67.6719,1121.2344 67.9063,1121.5 Q68.1406,1121.7656 68.1406,1122.375 L68.1406,1125 L60.1406,1125 Q59.5156,1125 59.25,1124.7656 Q59,1124.5313 59,1124.1406 Q59,1123.7656 59.2656,1123.5313 Q59.5313,1123.2969 60.1406,1123.2969 L60.4063,1123.2969 L60.4063,1116.6406 L60.1406,1116.6406 Q59.5156,1116.6406 59.25,1116.4063 Q59,1116.1719 59,1115.7813 Q59,1115.4063 59.25,1115.1719 Q59.5156,1114.9375 60.1406,1114.9375 L67.7656,1114.9375 L67.7656,1117.5313 Q67.7656,1118.1406 67.5313,1118.4063 Q67.3125,1118.6563 66.9219,1118.6563 Q66.5469,1118.6563 66.3125,1118.4063 Q66.0781,1118.1406 66.0781,1117.5313 L66.0781,1116.6406 L62.1094,1116.6406 L62.1094,1119.0938 L63.5938,1119.0938 Q63.5938,1118.4375 63.7188,1118.25 Q63.9844,1117.8438 64.4531,1117.8438 Q64.8281,1117.8438 65.0625,1118.1094 Q65.2969,1118.3594 65.2969,1118.9688 L65.2969,1120.9375 Q65.2969,1121.4844 65.1719,1121.6719 Q64.9063,1122.0625 64.4531,1122.0625 Q63.9844,1122.0625 63.7188,1121.6563 Q63.5938,1121.4688 63.5938,1120.7969 L62.1094,1120.7969 Z "/><text fill="#000000" font-family="sans-serif" font-size="12" lengthAdjust="spacingAndGlyphs" textLength="34" x="80.75" y="1124.9102">Token</text><line style="stroke: #A80036; stroke-width: 1.5;" x1="33.5" x2="132.5" y1="1136" y2="1136"/><text fill="#000000" font-family="sans-serif" font-size="11" lengthAdjust="spacingAndGlyphs" textLength="47" x="52.5" y="1151.4189">TOKEN_X</text><text fill="#000000" font-family="sans-serif" font-size="11" lengthAdjust="spacingAndGlyphs" textLength="48" x="52.5" y="1165.2549">TOKEN_O</text><rect fill="none" height="6" style="stroke: #C82930; stroke-width: 1.0;" width="6" x="40.5" y="1171.6719"/><text fill="#000000" font-family="sans-serif" font-size="11" lengthAdjust="spacingAndGlyphs" textLength="75" x="52.5" y="1179.0908">character: char</text><line style="stroke: #A80036; stroke-width: 1.5;" x1="33.5" x2="132.5" y1="1185.5078" y2="1185.5078"/><polygon fill="#4177AF" points="43.5,1192.5078,39.5,1198.5078,47.5,1198.5078" style="stroke: #1963A0; stroke-width: 1.0;"/><text fill="#000000" font-family="sans-serif" font-size="11" lengthAdjust="spacingAndGlyphs" textLength="59" x="52.5" y="1200.9268">Token(char)</text><ellipse cx="43.5" cy="1210.3438" fill="#84BE84" rx="3" ry="3" style="stroke: #038048; stroke-width: 1.0;"/><text fill="#000000" font-family="sans-serif" font-size="11" lengthAdjust="spacingAndGlyphs" textLength="74" x="52.5" y="1214.7627">getChar(): char</text><!--MD5=[b42b9147ed7462532394f7fe6f96703d]
class tictactoe.models.Turn--><rect fill="#FEFECE" filter="url(#fcmfjco77ousx)" height="158.6875" id="tictactoe.models.Turn" style="stroke: #A80036; stroke-width: 1.5;" width="142" x="235" y="604"/><ellipse cx="289.25" cy="620" fill="#ADD1B2" rx="11" ry="11" style="stroke: #A80036; stroke-width: 1.0;"/><path d="M292.0156,615.875 Q292.1719,615.6563 292.3594,615.5469 Q292.5469,615.4375 292.7656,615.4375 Q293.1406,615.4375 293.375,615.7031 Q293.6094,615.9531 293.6094,616.5625 L293.6094,618.0156 Q293.6094,618.625 293.375,618.8906 Q293.1406,619.1563 292.7656,619.1563 Q292.4219,619.1563 292.2188,618.9531 Q292.0156,618.7656 291.9063,618.25 Q291.8594,617.8906 291.6719,617.7031 Q291.3438,617.3281 290.7344,617.1094 Q290.125,616.8906 289.5,616.8906 Q288.7344,616.8906 288.0938,617.2188 Q287.4688,617.5469 286.9688,618.2969 Q286.4844,619.0469 286.4844,620.0781 L286.4844,621.1719 Q286.4844,622.4063 287.375,623.2344 Q288.2656,624.0469 289.8594,624.0469 Q290.7969,624.0469 291.4531,623.7969 Q291.8438,623.6406 292.2656,623.2031 Q292.5313,622.9375 292.6719,622.8594 Q292.8281,622.7813 293.0313,622.7813 Q293.3594,622.7813 293.6094,623.0469 Q293.875,623.2969 293.875,623.6406 Q293.875,623.9844 293.5313,624.3906 Q293.0313,624.9688 292.2344,625.2969 Q291.1563,625.75 289.8594,625.75 Q288.3438,625.75 287.1406,625.125 Q286.1563,624.625 285.4688,623.5625 Q284.7813,622.4844 284.7813,621.2031 L284.7813,620.0469 Q284.7813,618.7188 285.3906,617.5781 Q286.0156,616.4219 287.1094,615.8125 Q288.2031,615.1875 289.4375,615.1875 Q290.1719,615.1875 290.8125,615.3594 Q291.4688,615.5156 292.0156,615.875 Z "/><text fill="#000000" font-family="sans-serif" font-size="12" lengthAdjust="spacingAndGlyphs" textLength="25" x="309.75" y="624.9102">Turn</text><line style="stroke: #A80036; stroke-width: 1.5;" x1="236" x2="376" y1="636" y2="636"/><ellipse cx="246" cy="647" fill="none" rx="3" ry="3" style="stroke: #038048; stroke-width: 1.0;"/><text fill="#000000" font-family="sans-serif" font-size="11" lengthAdjust="spacingAndGlyphs" text-decoration="underline" textLength="65" x="255" y="651.4189">PLAYERS: int</text><rect fill="none" height="6" style="stroke: #C82930; stroke-width: 1.0;" width="6" x="243" y="657.8359"/><text fill="#000000" font-family="sans-serif" font-size="11" lengthAdjust="spacingAndGlyphs" textLength="43" x="255" y="665.2549">value: int</text><rect fill="none" height="6" style="stroke: #C82930; stroke-width: 1.0;" width="6" x="243" y="671.6719"/><text fill="#000000" font-family="sans-serif" font-size="11" lengthAdjust="spacingAndGlyphs" textLength="78" x="255" y="679.0908">players: Player[]</text><line style="stroke: #A80036; stroke-width: 1.5;" x1="236" x2="376" y1="685.5078" y2="685.5078"/><ellipse cx="246" cy="696.5078" fill="#84BE84" rx="3" ry="3" style="stroke: #038048; stroke-width: 1.0;"/><text fill="#000000" font-family="sans-serif" font-size="11" lengthAdjust="spacingAndGlyphs" textLength="66" x="255" y="700.9268">Turn(Player[])</text><polygon fill="#4177AF" points="246,706.3438,242,712.3438,250,712.3438" style="stroke: #1963A0; stroke-width: 1.0;"/><text fill="#000000" font-family="sans-serif" font-size="11" lengthAdjust="spacingAndGlyphs" textLength="70" x="255" y="714.7627">change(): void</text><polygon fill="#4177AF" points="246,720.1797,242,726.1797,250,726.1797" style="stroke: #1963A0; stroke-width: 1.0;"/><text fill="#000000" font-family="sans-serif" font-size="11" lengthAdjust="spacingAndGlyphs" textLength="89" x="255" y="728.5986">getPlayer(): Player</text><polygon fill="#4177AF" points="246,734.0156,242,740.0156,250,740.0156" style="stroke: #1963A0; stroke-width: 1.0;"/><text fill="#000000" font-family="sans-serif" font-size="11" lengthAdjust="spacingAndGlyphs" textLength="95" x="255" y="742.4346">getOtherValue(): int</text><polygon fill="#4177AF" points="246,747.8516,242,753.8516,250,753.8516" style="stroke: #1963A0; stroke-width: 1.0;"/><text fill="#000000" font-family="sans-serif" font-size="11" lengthAdjust="spacingAndGlyphs" textLength="116" x="255" y="756.2705">getOtherPlayer(): Player</text><!--MD5=[bb051b8e5b0ef95c5ce525ec83af3329]
class tictactoe.models.Error--><rect fill="#FEFECE" filter="url(#fcmfjco77ousx)" height="89.5078" id="tictactoe.models.Error" style="stroke: #A80036; stroke-width: 1.5;" width="120" x="169" y="1117.5"/><ellipse cx="211.45" cy="1133.5" fill="#EB937F" rx="11" ry="11" style="stroke: #A80036; stroke-width: 1.0;"/><path d="M210.3094,1134.2969 L210.3094,1136.7969 L214.6375,1136.7969 L214.6375,1135.875 Q214.6375,1135.2656 214.8719,1135 Q215.1219,1134.7344 215.4969,1134.7344 Q215.8719,1134.7344 216.1063,1135 Q216.3406,1135.2656 216.3406,1135.875 L216.3406,1138.5 L208.3406,1138.5 Q207.7156,1138.5 207.45,1138.2656 Q207.2,1138.0313 207.2,1137.6406 Q207.2,1137.2656 207.4656,1137.0313 Q207.7313,1136.7969 208.3406,1136.7969 L208.6063,1136.7969 L208.6063,1130.1406 L208.3406,1130.1406 Q207.7156,1130.1406 207.45,1129.9063 Q207.2,1129.6719 207.2,1129.2813 Q207.2,1128.9063 207.45,1128.6719 Q207.7156,1128.4375 208.3406,1128.4375 L215.9656,1128.4375 L215.9656,1131.0313 Q215.9656,1131.6406 215.7313,1131.9063 Q215.5125,1132.1563 215.1219,1132.1563 Q214.7469,1132.1563 214.5125,1131.9063 Q214.2781,1131.6406 214.2781,1131.0313 L214.2781,1130.1406 L210.3094,1130.1406 L210.3094,1132.5938 L211.7938,1132.5938 Q211.7938,1131.9375 211.9188,1131.75 Q212.1844,1131.3438 212.6531,1131.3438 Q213.0281,1131.3438 213.2625,1131.6094 Q213.4969,1131.8594 213.4969,1132.4688 L213.4969,1134.4375 Q213.4969,1134.9844 213.3719,1135.1719 Q213.1063,1135.5625 212.6531,1135.5625 Q212.1844,1135.5625 211.9188,1135.1563 Q211.7938,1134.9688 211.7938,1134.2969 L210.3094,1134.2969 Z "/><text fill="#000000" font-family="sans-serif" font-size="12" lengthAdjust="spacingAndGlyphs" textLength="27" x="231.55" y="1138.4102">Error</text><line style="stroke: #A80036; stroke-width: 1.5;" x1="170" x2="288" y1="1149.5" y2="1149.5"/><text fill="#000000" font-family="sans-serif" font-size="11" lengthAdjust="spacingAndGlyphs" textLength="61" x="175" y="1164.9189">NOT_EMPTY</text><text fill="#000000" font-family="sans-serif" font-size="11" lengthAdjust="spacingAndGlyphs" textLength="65" x="175" y="1178.7549">NOT_OWNER</text><text fill="#000000" font-family="sans-serif" font-size="11" lengthAdjust="spacingAndGlyphs" textLength="108" x="175" y="1192.5908">SAME_COORDINATES</text><line style="stroke: #A80036; stroke-width: 1.5;" x1="170" x2="288" y1="1199.0078" y2="1199.0078"/><!--MD5=[8d3188f3c370ea7d5d91d12bca83b67a]
class tictactoe.models.Game--><rect fill="#FEFECE" filter="url(#fcmfjco77ousx)" height="227.8672" id="tictactoe.models.Game" style="stroke: #A80036; stroke-width: 1.5;" width="249" x="111.5" y="42"/><ellipse cx="214.75" cy="58" fill="#ADD1B2" rx="11" ry="11" style="stroke: #A80036; stroke-width: 1.0;"/><path d="M217.5156,53.875 Q217.6719,53.6563 217.8594,53.5469 Q218.0469,53.4375 218.2656,53.4375 Q218.6406,53.4375 218.875,53.7031 Q219.1094,53.9531 219.1094,54.5625 L219.1094,56.0156 Q219.1094,56.625 218.875,56.8906 Q218.6406,57.1563 218.2656,57.1563 Q217.9219,57.1563 217.7188,56.9531 Q217.5156,56.7656 217.4063,56.25 Q217.3594,55.8906 217.1719,55.7031 Q216.8438,55.3281 216.2344,55.1094 Q215.625,54.8906 215,54.8906 Q214.2344,54.8906 213.5938,55.2188 Q212.9688,55.5469 212.4688,56.2969 Q211.9844,57.0469 211.9844,58.0781 L211.9844,59.1719 Q211.9844,60.4063 212.875,61.2344 Q213.7656,62.0469 215.3594,62.0469 Q216.2969,62.0469 216.9531,61.7969 Q217.3438,61.6406 217.7656,61.2031 Q218.0313,60.9375 218.1719,60.8594 Q218.3281,60.7813 218.5313,60.7813 Q218.8594,60.7813 219.1094,61.0469 Q219.375,61.2969 219.375,61.6406 Q219.375,61.9844 219.0313,62.3906 Q218.5313,62.9688 217.7344,63.2969 Q216.6563,63.75 215.3594,63.75 Q213.8438,63.75 212.6406,63.125 Q211.6563,62.625 210.9688,61.5625 Q210.2813,60.4844 210.2813,59.2031 L210.2813,58.0469 Q210.2813,56.7188 210.8906,55.5781 Q211.5156,54.4219 212.6094,53.8125 Q213.7031,53.1875 214.9375,53.1875 Q215.6719,53.1875 216.3125,53.3594 Q216.9688,53.5156 217.5156,53.875 Z "/><text fill="#000000" font-family="sans-serif" font-size="12" lengthAdjust="spacingAndGlyphs" textLength="34" x="235.25" y="62.9102">Game</text><line style="stroke: #A80036; stroke-width: 1.5;" x1="112.5" x2="359.5" y1="74" y2="74"/><rect fill="none" height="6" style="stroke: #C82930; stroke-width: 1.0;" width="6" x="119.5" y="82"/><text fill="#000000" font-family="sans-serif" font-size="11" lengthAdjust="spacingAndGlyphs" textLength="63" x="131.5" y="89.4189">board: Board</text><rect fill="none" height="6" style="stroke: #C82930; stroke-width: 1.0;" width="6" x="119.5" y="95.8359"/><text fill="#000000" font-family="sans-serif" font-size="11" lengthAdjust="spacingAndGlyphs" textLength="84" x="131.5" y="103.2549">players: Player[][]</text><rect fill="none" height="6" style="stroke: #C82930; stroke-width: 1.0;" width="6" x="119.5" y="109.6719"/><text fill="#000000" font-family="sans-serif" font-size="11" lengthAdjust="spacingAndGlyphs" textLength="47" x="131.5" y="117.0908">turn: Turn</text><line style="stroke: #A80036; stroke-width: 1.5;" x1="112.5" x2="359.5" y1="123.5078" y2="123.5078"/><ellipse cx="122.5" cy="134.5078" fill="#84BE84" rx="3" ry="3" style="stroke: #038048; stroke-width: 1.0;"/><text fill="#000000" font-family="sans-serif" font-size="11" lengthAdjust="spacingAndGlyphs" textLength="36" x="131.5" y="138.9268">Game()</text><ellipse cx="122.5" cy="148.3438" fill="#84BE84" rx="3" ry="3" style="stroke: #038048; stroke-width: 1.0;"/><text fill="#000000" font-family="sans-serif" font-size="11" lengthAdjust="spacingAndGlyphs" textLength="112" x="131.5" y="152.7627">createPlayers(int): void</text><ellipse cx="122.5" cy="162.1797" fill="#84BE84" rx="3" ry="3" style="stroke: #038048; stroke-width: 1.0;"/><text fill="#000000" font-family="sans-serif" font-size="11" lengthAdjust="spacingAndGlyphs" textLength="87" x="131.5" y="166.5986">getBoard(): Board</text><ellipse cx="122.5" cy="176.0156" fill="#84BE84" rx="3" ry="3" style="stroke: #038048; stroke-width: 1.0;"/><text fill="#000000" font-family="sans-serif" font-size="11" lengthAdjust="spacingAndGlyphs" textLength="133" x="131.5" y="180.4346">isBoardComplete(): boolean</text><ellipse cx="122.5" cy="189.8516" fill="#84BE84" rx="3" ry="3" style="stroke: #038048; stroke-width: 1.0;"/><text fill="#000000" font-family="sans-serif" font-size="11" lengthAdjust="spacingAndGlyphs" textLength="206" x="131.5" y="194.2705">putTokenPlayerFromTurn(Coordinate): void</text><ellipse cx="122.5" cy="203.6875" fill="#84BE84" rx="3" ry="3" style="stroke: #038048; stroke-width: 1.0;"/><text fill="#000000" font-family="sans-serif" font-size="11" lengthAdjust="spacingAndGlyphs" textLength="223" x="131.5" y="208.1064">moveTokenPlayerFromTurn(Coordinate[]): void</text><ellipse cx="122.5" cy="217.5234" fill="#84BE84" rx="3" ry="3" style="stroke: #038048; stroke-width: 1.0;"/><text fill="#000000" font-family="sans-serif" font-size="11" lengthAdjust="spacingAndGlyphs" textLength="175" x="131.5" y="221.9424">getTokenPlayerFromTurn(int): Player</text><ellipse cx="122.5" cy="231.3594" fill="#84BE84" rx="3" ry="3" style="stroke: #038048; stroke-width: 1.0;"/><text fill="#000000" font-family="sans-serif" font-size="11" lengthAdjust="spacingAndGlyphs" textLength="92" x="131.5" y="235.7783">changeTurn(): void</text><ellipse cx="122.5" cy="245.1953" fill="#84BE84" rx="3" ry="3" style="stroke: #038048; stroke-width: 1.0;"/><text fill="#000000" font-family="sans-serif" font-size="11" lengthAdjust="spacingAndGlyphs" textLength="110" x="131.5" y="249.6143">isTicTacToe(): boolean</text><ellipse cx="122.5" cy="259.0313" fill="#84BE84" rx="3" ry="3" style="stroke: #038048; stroke-width: 1.0;"/><text fill="#000000" font-family="sans-serif" font-size="11" lengthAdjust="spacingAndGlyphs" textLength="141" x="131.5" y="263.4502">getOtherValueFromTurn(): int</text><!--MD5=[3b54484399e9c5d8797124604fd4af65]
class tictactoe.models.Player--><rect fill="#FEFECE" filter="url(#fcmfjco77ousx)" height="200.1953" id="tictactoe.models.Player" style="stroke: #A80036; stroke-width: 1.5;" width="346" x="140" y="823"/><ellipse cx="291.75" cy="839" fill="#ADD1B2" rx="11" ry="11" style="stroke: #A80036; stroke-width: 1.0;"/><path d="M294.5156,834.875 Q294.6719,834.6563 294.8594,834.5469 Q295.0469,834.4375 295.2656,834.4375 Q295.6406,834.4375 295.875,834.7031 Q296.1094,834.9531 296.1094,835.5625 L296.1094,837.0156 Q296.1094,837.625 295.875,837.8906 Q295.6406,838.1563 295.2656,838.1563 Q294.9219,838.1563 294.7188,837.9531 Q294.5156,837.7656 294.4063,837.25 Q294.3594,836.8906 294.1719,836.7031 Q293.8438,836.3281 293.2344,836.1094 Q292.625,835.8906 292,835.8906 Q291.2344,835.8906 290.5938,836.2188 Q289.9688,836.5469 289.4688,837.2969 Q288.9844,838.0469 288.9844,839.0781 L288.9844,840.1719 Q288.9844,841.4063 289.875,842.2344 Q290.7656,843.0469 292.3594,843.0469 Q293.2969,843.0469 293.9531,842.7969 Q294.3438,842.6406 294.7656,842.2031 Q295.0313,841.9375 295.1719,841.8594 Q295.3281,841.7813 295.5313,841.7813 Q295.8594,841.7813 296.1094,842.0469 Q296.375,842.2969 296.375,842.6406 Q296.375,842.9844 296.0313,843.3906 Q295.5313,843.9688 294.7344,844.2969 Q293.6563,844.75 292.3594,844.75 Q290.8438,844.75 289.6406,844.125 Q288.6563,843.625 287.9688,842.5625 Q287.2813,841.4844 287.2813,840.2031 L287.2813,839.0469 Q287.2813,837.7188 287.8906,836.5781 Q288.5156,835.4219 289.6094,834.8125 Q290.7031,834.1875 291.9375,834.1875 Q292.6719,834.1875 293.3125,834.3594 Q293.9688,834.5156 294.5156,834.875 Z "/><text fill="#000000" font-family="sans-serif" font-size="12" lengthAdjust="spacingAndGlyphs" textLength="34" x="312.25" y="843.9102">Player</text><line style="stroke: #A80036; stroke-width: 1.5;" x1="141" x2="485" y1="855" y2="855"/><rect fill="none" height="6" style="stroke: #C82930; stroke-width: 1.0;" width="6" x="148" y="863"/><text fill="#000000" font-family="sans-serif" font-size="11" lengthAdjust="spacingAndGlyphs" textLength="61" x="160" y="870.4189">token: Token</text><rect fill="none" height="6" style="stroke: #C82930; stroke-width: 1.0;" width="6" x="148" y="876.8359"/><text fill="#000000" font-family="sans-serif" font-size="11" lengthAdjust="spacingAndGlyphs" textLength="63" x="160" y="884.2549">board: Board</text><rect fill="none" height="6" style="stroke: #C82930; stroke-width: 1.0;" width="6" x="148" y="890.6719"/><text fill="#000000" font-family="sans-serif" font-size="11" lengthAdjust="spacingAndGlyphs" textLength="81" x="160" y="898.0908">type: PlayerType</text><line style="stroke: #A80036; stroke-width: 1.5;" x1="141" x2="485" y1="904.5078" y2="904.5078"/><ellipse cx="151" cy="915.5078" fill="#84BE84" rx="3" ry="3" style="stroke: #038048; stroke-width: 1.0;"/><text fill="#000000" font-family="sans-serif" font-size="11" lengthAdjust="spacingAndGlyphs" textLength="162" x="160" y="919.9268">Player(Token, Board, PlayerType)</text><ellipse cx="151" cy="929.3438" fill="#84BE84" rx="3" ry="3" style="stroke: #038048; stroke-width: 1.0;"/><text fill="#000000" font-family="sans-serif" font-size="11" lengthAdjust="spacingAndGlyphs" textLength="107" x="160" y="933.7627">getType(): PlayerType</text><polygon fill="#4177AF" points="151,939.1797,147,945.1797,155,945.1797" style="stroke: #1963A0; stroke-width: 1.0;"/><text fill="#000000" font-family="sans-serif" font-size="11" lengthAdjust="spacingAndGlyphs" textLength="87" x="160" y="947.5986">getToken(): Token</text><polygon fill="#4177AF" points="151,953.0156,147,959.0156,155,959.0156" style="stroke: #1963A0; stroke-width: 1.0;"/><text fill="#000000" font-family="sans-serif" font-size="11" lengthAdjust="spacingAndGlyphs" textLength="101" x="160" y="961.4346">put(Coordinate): void</text><polygon fill="#4177AF" points="151,966.8516,147,972.8516,155,972.8516" style="stroke: #1963A0; stroke-width: 1.0;"/><text fill="#000000" font-family="sans-serif" font-size="11" lengthAdjust="spacingAndGlyphs" textLength="118" x="160" y="975.2705">move(Coordinate[]): void</text><ellipse cx="151" cy="984.6875" fill="#84BE84" rx="3" ry="3" style="stroke: #038048; stroke-width: 1.0;"/><text fill="#000000" font-family="sans-serif" font-size="11" lengthAdjust="spacingAndGlyphs" textLength="220" x="160" y="989.1064">controlErrorsPutCoordinate(Coordinate): Error</text><ellipse cx="151" cy="998.5234" fill="#84BE84" rx="3" ry="3" style="stroke: #038048; stroke-width: 1.0;"/><text fill="#000000" font-family="sans-serif" font-size="11" lengthAdjust="spacingAndGlyphs" textLength="259" x="160" y="1002.9424">controlErrorsMoveOriginCoordinate(Coordinate): Error</text><ellipse cx="151" cy="1012.3594" fill="#84BE84" rx="3" ry="3" style="stroke: #038048; stroke-width: 1.0;"/><text fill="#000000" font-family="sans-serif" font-size="11" lengthAdjust="spacingAndGlyphs" textLength="320" x="160" y="1016.7783">controlErrorsMoveTargetCoordinate(Coordinate, Coordinate): Error</text><!--MD5=[6a50f8bb579c19f28bd581c21a973438]
class tictactoe.models.PlayerType--><rect fill="#FEFECE" filter="url(#fcmfjco77ousx)" height="75.6719" id="tictactoe.models.PlayerType" style="stroke: #A80036; stroke-width: 1.5;" width="104" x="324" y="1124.5"/><ellipse cx="344.4" cy="1140.5" fill="#EB937F" rx="11" ry="11" style="stroke: #A80036; stroke-width: 1.0;"/><path d="M343.2594,1141.2969 L343.2594,1143.7969 L347.5875,1143.7969 L347.5875,1142.875 Q347.5875,1142.2656 347.8219,1142 Q348.0719,1141.7344 348.4469,1141.7344 Q348.8219,1141.7344 349.0563,1142 Q349.2906,1142.2656 349.2906,1142.875 L349.2906,1145.5 L341.2906,1145.5 Q340.6656,1145.5 340.4,1145.2656 Q340.15,1145.0313 340.15,1144.6406 Q340.15,1144.2656 340.4156,1144.0313 Q340.6813,1143.7969 341.2906,1143.7969 L341.5563,1143.7969 L341.5563,1137.1406 L341.2906,1137.1406 Q340.6656,1137.1406 340.4,1136.9063 Q340.15,1136.6719 340.15,1136.2813 Q340.15,1135.9063 340.4,1135.6719 Q340.6656,1135.4375 341.2906,1135.4375 L348.9156,1135.4375 L348.9156,1138.0313 Q348.9156,1138.6406 348.6813,1138.9063 Q348.4625,1139.1563 348.0719,1139.1563 Q347.6969,1139.1563 347.4625,1138.9063 Q347.2281,1138.6406 347.2281,1138.0313 L347.2281,1137.1406 L343.2594,1137.1406 L343.2594,1139.5938 L344.7438,1139.5938 Q344.7438,1138.9375 344.8688,1138.75 Q345.1344,1138.3438 345.6031,1138.3438 Q345.9781,1138.3438 346.2125,1138.6094 Q346.4469,1138.8594 346.4469,1139.4688 L346.4469,1141.4375 Q346.4469,1141.9844 346.3219,1142.1719 Q346.0563,1142.5625 345.6031,1142.5625 Q345.1344,1142.5625 344.8688,1142.1563 Q344.7438,1141.9688 344.7438,1141.2969 L343.2594,1141.2969 Z "/><text fill="#000000" font-family="sans-serif" font-size="12" lengthAdjust="spacingAndGlyphs" textLength="60" x="359.6" y="1145.4102">PlayerType</text><line style="stroke: #A80036; stroke-width: 1.5;" x1="325" x2="427" y1="1156.5" y2="1156.5"/><text fill="#000000" font-family="sans-serif" font-size="11" lengthAdjust="spacingAndGlyphs" textLength="74" x="330" y="1171.9189">USER_PLAYER</text><text fill="#000000" font-family="sans-serif" font-size="11" lengthAdjust="spacingAndGlyphs" textLength="92" x="330" y="1185.7549">MACHINE_PLAYER</text><line style="stroke: #A80036; stroke-width: 1.5;" x1="325" x2="427" y1="1192.1719" y2="1192.1719"/><!--MD5=[63e92a92e730259d201bb8566c78f275]
class utils.Direction--><rect fill="#FEFECE" filter="url(#fcmfjco77ousx)" height="48" id="utils.Direction" style="stroke: #A80036; stroke-width: 1.5;" width="81" x="839.5" y="899"/><ellipse cx="854.5" cy="915" fill="#ADD1B2" rx="11" ry="11" style="stroke: #A80036; stroke-width: 1.0;"/><path d="M857.2656,910.875 Q857.4219,910.6563 857.6094,910.5469 Q857.7969,910.4375 858.0156,910.4375 Q858.3906,910.4375 858.625,910.7031 Q858.8594,910.9531 858.8594,911.5625 L858.8594,913.0156 Q858.8594,913.625 858.625,913.8906 Q858.3906,914.1563 858.0156,914.1563 Q857.6719,914.1563 857.4688,913.9531 Q857.2656,913.7656 857.1563,913.25 Q857.1094,912.8906 856.9219,912.7031 Q856.5938,912.3281 855.9844,912.1094 Q855.375,911.8906 854.75,911.8906 Q853.9844,911.8906 853.3438,912.2188 Q852.7188,912.5469 852.2188,913.2969 Q851.7344,914.0469 851.7344,915.0781 L851.7344,916.1719 Q851.7344,917.4063 852.625,918.2344 Q853.5156,919.0469 855.1094,919.0469 Q856.0469,919.0469 856.7031,918.7969 Q857.0938,918.6406 857.5156,918.2031 Q857.7813,917.9375 857.9219,917.8594 Q858.0781,917.7813 858.2813,917.7813 Q858.6094,917.7813 858.8594,918.0469 Q859.125,918.2969 859.125,918.6406 Q859.125,918.9844 858.7813,919.3906 Q858.2813,919.9688 857.4844,920.2969 Q856.4063,920.75 855.1094,920.75 Q853.5938,920.75 852.3906,920.125 Q851.4063,919.625 850.7188,918.5625 Q850.0313,917.4844 850.0313,916.2031 L850.0313,915.0469 Q850.0313,913.7188 850.6406,912.5781 Q851.2656,911.4219 852.3594,910.8125 Q853.4531,910.1875 854.6875,910.1875 Q855.4219,910.1875 856.0625,910.3594 Q856.7188,910.5156 857.2656,910.875 Z "/><text fill="#000000" font-family="sans-serif" font-size="12" lengthAdjust="spacingAndGlyphs" textLength="49" x="868.5" y="919.9102">Direction</text><line style="stroke: #A80036; stroke-width: 1.5;" x1="840.5" x2="919.5" y1="931" y2="931"/><line style="stroke: #A80036; stroke-width: 1.5;" x1="840.5" x2="919.5" y1="939" y2="939"/><!--MD5=[4517a9099db328c27576a0137eb33da6]
class utils.Coordinate--><rect fill="#FEFECE" filter="url(#fcmfjco77ousx)" height="48" id="utils.Coordinate" style="stroke: #A80036; stroke-width: 1.5;" width="93" x="711.5" y="899"/><ellipse cx="726.5" cy="915" fill="#ADD1B2" rx="11" ry="11" style="stroke: #A80036; stroke-width: 1.0;"/><path d="M729.2656,910.875 Q729.4219,910.6563 729.6094,910.5469 Q729.7969,910.4375 730.0156,910.4375 Q730.3906,910.4375 730.625,910.7031 Q730.8594,910.9531 730.8594,911.5625 L730.8594,913.0156 Q730.8594,913.625 730.625,913.8906 Q730.3906,914.1563 730.0156,914.1563 Q729.6719,914.1563 729.4688,913.9531 Q729.2656,913.7656 729.1563,913.25 Q729.1094,912.8906 728.9219,912.7031 Q728.5938,912.3281 727.9844,912.1094 Q727.375,911.8906 726.75,911.8906 Q725.9844,911.8906 725.3438,912.2188 Q724.7188,912.5469 724.2188,913.2969 Q723.7344,914.0469 723.7344,915.0781 L723.7344,916.1719 Q723.7344,917.4063 724.625,918.2344 Q725.5156,919.0469 727.1094,919.0469 Q728.0469,919.0469 728.7031,918.7969 Q729.0938,918.6406 729.5156,918.2031 Q729.7813,917.9375 729.9219,917.8594 Q730.0781,917.7813 730.2813,917.7813 Q730.6094,917.7813 730.8594,918.0469 Q731.125,918.2969 731.125,918.6406 Q731.125,918.9844 730.7813,919.3906 Q730.2813,919.9688 729.4844,920.2969 Q728.4063,920.75 727.1094,920.75 Q725.5938,920.75 724.3906,920.125 Q723.4063,919.625 722.7188,918.5625 Q722.0313,917.4844 722.0313,916.2031 L722.0313,915.0469 Q722.0313,913.7188 722.6406,912.5781 Q723.2656,911.4219 724.3594,910.8125 Q725.4531,910.1875 726.6875,910.1875 Q727.4219,910.1875 728.0625,910.3594 Q728.7188,910.5156 729.2656,910.875 Z "/><text fill="#000000" font-family="sans-serif" font-size="12" lengthAdjust="spacingAndGlyphs" textLength="61" x="740.5" y="919.9102">Coordinate</text><line style="stroke: #A80036; stroke-width: 1.5;" x1="712.5" x2="803.5" y1="931" y2="931"/><line style="stroke: #A80036; stroke-width: 1.5;" x1="712.5" x2="803.5" y1="939" y2="939"/><!--MD5=[6c70c0f5d22b0d421fe766e144384ba2]
class java.util.Random--><rect fill="#FEFECE" filter="url(#fcmfjco77ousx)" height="48" id="java.util.Random" style="stroke: #A80036; stroke-width: 1.5;" width="80" x="519" y="1318"/><ellipse cx="534" cy="1334" fill="#ADD1B2" rx="11" ry="11" style="stroke: #A80036; stroke-width: 1.0;"/><path d="M536.7656,1329.875 Q536.9219,1329.6563 537.1094,1329.5469 Q537.2969,1329.4375 537.5156,1329.4375 Q537.8906,1329.4375 538.125,1329.7031 Q538.3594,1329.9531 538.3594,1330.5625 L538.3594,1332.0156 Q538.3594,1332.625 538.125,1332.8906 Q537.8906,1333.1563 537.5156,1333.1563 Q537.1719,1333.1563 536.9688,1332.9531 Q536.7656,1332.7656 536.6563,1332.25 Q536.6094,1331.8906 536.4219,1331.7031 Q536.0938,1331.3281 535.4844,1331.1094 Q534.875,1330.8906 534.25,1330.8906 Q533.4844,1330.8906 532.8438,1331.2188 Q532.2188,1331.5469 531.7188,1332.2969 Q531.2344,1333.0469 531.2344,1334.0781 L531.2344,1335.1719 Q531.2344,1336.4063 532.125,1337.2344 Q533.0156,1338.0469 534.6094,1338.0469 Q535.5469,1338.0469 536.2031,1337.7969 Q536.5938,1337.6406 537.0156,1337.2031 Q537.2813,1336.9375 537.4219,1336.8594 Q537.5781,1336.7813 537.7813,1336.7813 Q538.1094,1336.7813 538.3594,1337.0469 Q538.625,1337.2969 538.625,1337.6406 Q538.625,1337.9844 538.2813,1338.3906 Q537.7813,1338.9688 536.9844,1339.2969 Q535.9063,1339.75 534.6094,1339.75 Q533.0938,1339.75 531.8906,1339.125 Q530.9063,1338.625 530.2188,1337.5625 Q529.5313,1336.4844 529.5313,1335.2031 L529.5313,1334.0469 Q529.5313,1332.7188 530.1406,1331.5781 Q530.7656,1330.4219 531.8594,1329.8125 Q532.9531,1329.1875 534.1875,1329.1875 Q534.9219,1329.1875 535.5625,1329.3594 Q536.2188,1329.5156 536.7656,1329.875 Z "/><text fill="#000000" font-family="sans-serif" font-size="12" lengthAdjust="spacingAndGlyphs" textLength="48" x="548" y="1338.9102">Random</text><line style="stroke: #A80036; stroke-width: 1.5;" x1="520" x2="598" y1="1350" y2="1350"/><line style="stroke: #A80036; stroke-width: 1.5;" x1="520" x2="598" y1="1358" y2="1358"/><!--MD5=[9415c0c61774263745e2cedb44e639c6]
link tictactoe.models.Board to tictactoe.models.Coordinate--><path d="M423.7191,555.6895 C423.7191,555.6895 481.396,732.459 503,823 C522.742,905.736 537.883,1001.493 547.414,1070.002 " fill="none" id="tictactoe.models.Board-tictactoe.models.Coordinate" style="stroke: #A80036; stroke-width: 1.0;"/><polygon fill="#A80036" points="549.187,1082.898,551.9233,1073.4369,548.5057,1077.9446,543.9979,1074.527,549.187,1082.898" style="stroke: #A80036; stroke-width: 1.0;"/><line style="stroke: #A80036; stroke-width: 1.0;" x1="548.5057" x2="547.4165" y1="1077.9446" y2="1070.019"/><polygon fill="#A80036" points="419.854,544.329,417.9997,551.2976,423.7191,555.6895,425.5734,548.7209,419.854,544.329" style="stroke: #A80036; stroke-width: 1.0;"/><!--MD5=[4d767eb7856a0f3ee1c42783f4735c13]
link tictactoe.models.Board to tictactoe.models.Token--><path d="M272.115,536.722 C252.253,557.708 232.849,580.626 217,604 C157.459,691.814 149.48,720.524 122,823 C96.8003,916.971 87.8827,1029.91 84.7274,1098.66 " fill="none" id="tictactoe.models.Board-&gt;tictactoe.models.Token" style="stroke: #A80036; stroke-width: 1.0; stroke-dasharray: 7.0,7.0;"/><polygon fill="#A80036" points="84.4923,1103.943,88.8869,1095.129,84.7137,1098.9479,80.8948,1094.7747,84.4923,1103.943" style="stroke: #A80036; stroke-width: 1.0;"/><!--MD5=[f07f4b28b1c2eb27f6b3ca96953c68ab]
link tictactoe.models.Board to tictactoe.models.Turn--><path d="M348.997,544.175 C343.321,562.433 337.494,581.179 332.035,598.744 " fill="none" id="tictactoe.models.Board-&gt;tictactoe.models.Turn" style="stroke: #A80036; stroke-width: 1.0; stroke-dasharray: 7.0,7.0;"/><polygon fill="#A80036" points="330.505,603.666,336.9965,596.2593,331.9894,598.8914,329.3572,593.8843,330.505,603.666" style="stroke: #A80036; stroke-width: 1.0;"/><!--MD5=[1183b1fe88256d6abfae59cdbc015bea]
link tictactoe.models.Board to utils.Direction--><path d="M491.701,517.768 C586.546,590.296 723.516,703.907 822,823 C840.175,844.978 856.162,873.338 866.723,894.067 " fill="none" id="tictactoe.models.Board-&gt;utils.Direction" style="stroke: #A80036; stroke-width: 1.0; stroke-dasharray: 7.0,7.0;"/><polygon fill="#A80036" points="869.025,898.634,868.5464,888.7968,866.7747,894.169,861.4024,892.3973,869.025,898.634" style="stroke: #A80036; stroke-width: 1.0;"/><!--MD5=[d279b4500bca5abba91dd5faa9f398fd]
reverse link utils.Coordinate to tictactoe.models.Coordinate--><path d="M725.571,962.703 C698.372,995.164 658.661,1042.557 624.835,1082.928 " fill="none" id="utils.Coordinate&lt;-tictactoe.models.Coordinate" style="stroke: #A80036; stroke-width: 1.0;"/><polygon fill="none" points="720.346,958.039,738.557,947.205,731.077,967.031,720.346,958.039" style="stroke: #A80036; stroke-width: 1.0;"/><!--MD5=[997516208723a80710191e814da7328e]
link tictactoe.models.Coordinate to utils.Direction--><path d="M654.687,1126.479 C708.499,1103.263 774.249,1068.638 822,1023 C843.019,1002.911 858.925,973.547 868.715,952.015 " fill="none" id="tictactoe.models.Coordinate-&gt;utils.Direction" style="stroke: #A80036; stroke-width: 1.0; stroke-dasharray: 7.0,7.0;"/><polygon fill="#A80036" points="870.83,947.271,863.5107,953.861,868.7932,951.8373,870.8169,957.1198,870.83,947.271" style="stroke: #A80036; stroke-width: 1.0;"/><!--MD5=[02a5e0cbda321227fb745cf81ac775a1]
link tictactoe.models.Coordinate to java.util.Random--><path d="M559,1242.129 C559,1267.219 559,1293.401 559,1312.5154 " fill="none" id="tictactoe.models.Coordinate-&gt;java.util.Random" style="stroke: #A80036; stroke-width: 1.0; stroke-dasharray: 7.0,7.0;"/><polygon fill="#A80036" points="559,1317.7123,563,1308.7123,559,1312.7123,555,1308.7123,559,1317.7123" style="stroke: #A80036; stroke-width: 1.0;"/><!--MD5=[b634369fa6e65a8dead148f8efc150f7]
link tictactoe.models.Game to tictactoe.models.Board--><path d="M300.7375,280.7119 C300.7375,280.7119 314.13,306.3 320.476,318.43 " fill="none" id="tictactoe.models.Game-tictactoe.models.Board" style="stroke: #A80036; stroke-width: 1.0;"/><polygon fill="#A80036" points="326.519,329.98,325.8891,320.1513,324.2002,325.5502,318.8014,323.8613,326.519,329.98" style="stroke: #A80036; stroke-width: 1.0;"/><line style="stroke: #A80036; stroke-width: 1.0;" x1="324.2002" x2="320.491" y1="325.5502" y2="318.46"/><polygon fill="#A80036" points="295.173,270.08,294.4113,277.2508,300.7375,280.7119,301.4992,273.5411,295.173,270.08" style="stroke: #A80036; stroke-width: 1.0;"/><!--MD5=[1dc2bc8b0c5aa09eb02df64674797f09]
link tictactoe.models.Game to tictactoe.models.Player--><path d="M210.6381,282.098 C210.6381,282.098 172.17,602.018 217,763 C221.515,779.214 228.18,795.425 235.93,810.962 " fill="none" id="tictactoe.models.Game-tictactoe.models.Player" style="stroke: #A80036; stroke-width: 1.0;"/><polygon fill="#A80036" points="242.05,822.7,241.436,812.8703,239.7384,818.2664,234.3423,816.5688,242.05,822.7" style="stroke: #A80036; stroke-width: 1.0;"/><line style="stroke: #A80036; stroke-width: 1.0;" x1="239.7384" x2="236.0395" y1="818.2664" y2="811.1735"/><polygon fill="#A80036" points="212.603,270.26,207.6745,275.5241,210.6381,282.098,215.5666,276.834,212.603,270.26" style="stroke: #A80036; stroke-width: 1.0;"/><!--MD5=[aa5c2eaa34da3707c874f29e1edc60f9]
link tictactoe.models.Game to tictactoe.models.Turn--><path d="M232.5912,282.31 C232.5912,282.31 237.553,458.345 255,544 C258.188,559.651 262.847,575.892 268.072,591.508 " fill="none" id="tictactoe.models.Game-tictactoe.models.Turn" style="stroke: #A80036; stroke-width: 1.0;"/><polygon fill="#A80036" points="272.367,603.874,273.1933,594.0599,270.7268,599.1507,265.636,596.6842,272.367,603.874" style="stroke: #A80036; stroke-width: 1.0;"/><line style="stroke: #A80036; stroke-width: 1.0;" x1="270.7268" x2="268.102" y1="599.1507" y2="591.5935"/><polygon fill="#A80036" points="232.578,270.31,228.5846,276.3144,232.5912,282.31,236.5846,276.3056,232.578,270.31" style="stroke: #A80036; stroke-width: 1.0;"/><!--MD5=[d2299ef104f10d0c0da23783ac8f8a4a]
link tictactoe.models.Game to tictactoe.models.Token--><path d="M198.857,270.05 C192.859,289.92 186.989,310.49 182,330 C126.63,546.517 105.108,600.611 83,823 C73.4811,918.75 76.1386,1030.49 79.2906,1098.597 " fill="none" id="tictactoe.models.Game-&gt;tictactoe.models.Token" style="stroke: #A80036; stroke-width: 1.0; stroke-dasharray: 7.0,7.0;"/><polygon fill="#A80036" points="79.5377,1103.83,83.1063,1094.6504,79.3006,1098.8356,75.1153,1095.0298,79.5377,1103.83" style="stroke: #A80036; stroke-width: 1.0;"/><!--MD5=[69416bc90b50335ad17dcef673fc107e]
link tictactoe.models.Game to tictactoe.models.PlayerType--><path d="M360.64,203.04 C416.588,230.7 477.084,271.99 509,330 C551.21,406.719 588.295,813.201 503,1023 C489.147,1057.073 470.91,1055.937 446,1083 C435.001,1094.95 423.195,1108.072 412.47,1120.11 " fill="none" id="tictactoe.models.Game-&gt;tictactoe.models.PlayerType" style="stroke: #A80036; stroke-width: 1.0; stroke-dasharray: 7.0,7.0;"/><polygon fill="#A80036" points="408.877,1124.147,417.8473,1120.0808,412.2001,1120.4111,411.8698,1114.7639,408.877,1124.147" style="stroke: #A80036; stroke-width: 1.0;"/><!--MD5=[deb900ba4dab24d2621c91432ed3d5e7]
link tictactoe.models.Player to tictactoe.models.Token--><path d="M200.8382,1031.7518 C200.8382,1031.7518 166.597,1066.401 151,1083 C147.556,1086.665 144.056,1090.463 140.552,1094.322 " fill="none" id="tictactoe.models.Player-tictactoe.models.Token" style="stroke: #A80036; stroke-width: 1.0;"/><polygon fill="#A80036" points="131.865,1103.997,140.8537,1099.9716,135.205,1100.2762,134.9004,1094.6276,131.865,1103.997" style="stroke: #A80036; stroke-width: 1.0;"/><line style="stroke: #A80036; stroke-width: 1.0;" x1="135.205" x2="140.55" y1="1100.2762" y2="1094.3235"/><polygon fill="#A80036" points="209.338,1023.281,202.2645,1024.6831,200.8382,1031.7518,207.9117,1030.3496,209.338,1023.281" style="stroke: #A80036; stroke-width: 1.0;"/><!--MD5=[4d61797189bd4e3921b05d5b1c2f3641]
link tictactoe.models.Player to tictactoe.models.Board--><path d="M377.2279,812.0169 C377.2279,812.0169 390.139,779.083 394,763 C410.056,696.11 408.112,619.277 401.664,557.116 " fill="none" id="tictactoe.models.Player-tictactoe.models.Board" style="stroke: #A80036; stroke-width: 1.0;"/><polygon fill="#A80036" points="400.224,544.083,397.2372,553.4681,400.7734,549.0527,405.1888,552.5889,400.224,544.083" style="stroke: #A80036; stroke-width: 1.0;"/><line style="stroke: #A80036; stroke-width: 1.0;" x1="400.7734" x2="401.6515" y1="549.0527" y2="557.004"/><polygon fill="#A80036" points="372.337,822.975,378.4351,819.1263,377.2279,812.0169,371.1298,815.8657,372.337,822.975" style="stroke: #A80036; stroke-width: 1.0;"/><!--MD5=[1c628d4d7a21ed493d00a2e879fa52f1]
link tictactoe.models.Player to tictactoe.models.PlayerType--><path d="M342.3387,1034.6006 C342.3387,1034.6006 356.896,1089.482 362.787,1111.69 " fill="none" id="tictactoe.models.Player-tictactoe.models.PlayerType" style="stroke: #A80036; stroke-width: 1.0;"/><polygon fill="#A80036" points="366.184,1124.494,367.742,1114.7691,364.9016,1119.6612,360.0095,1116.8209,366.184,1124.494" style="stroke: #A80036; stroke-width: 1.0;"/><line style="stroke: #A80036; stroke-width: 1.0;" x1="364.9016" x2="362.85" y1="1119.6612" y2="1111.928"/><polygon fill="#A80036" points="339.261,1023.002,336.9336,1029.8272,342.3387,1034.6006,344.666,1027.7754,339.261,1023.002" style="stroke: #A80036; stroke-width: 1.0;"/><!--MD5=[8c8274b143d2ce23d56b10c65f754674]
link tictactoe.models.Player to tictactoe.models.Coordinate--><path d="M415.545,1023.002 C434.949,1041.736 455.053,1061.144 473.849,1079.292 " fill="none" id="tictactoe.models.Player-&gt;tictactoe.models.Coordinate" style="stroke: #A80036; stroke-width: 1.0; stroke-dasharray: 7.0,7.0;"/><polygon fill="#A80036" points="477.591,1082.904,473.8944,1073.7752,473.9939,1079.4312,468.3379,1079.5306,477.591,1082.904" style="stroke: #A80036; stroke-width: 1.0;"/><!--MD5=[709a42eaa5216de862f5cc1ce89966cc]
link tictactoe.models.Player to tictactoe.models.Error--><path d="M277.985,1023.002 C267.051,1053.916 255.467,1086.667 246.311,1112.556 " fill="none" id="tictactoe.models.Player-&gt;tictactoe.models.Error" style="stroke: #A80036; stroke-width: 1.0; stroke-dasharray: 7.0,7.0;"/><polygon fill="#A80036" points="244.63,1117.308,251.4024,1110.1572,246.2975,1112.5942,243.8604,1107.4893,244.63,1117.308" style="stroke: #A80036; stroke-width: 1.0;"/><!--MD5=[445ca9be6ac7acaf2fbd96fa00e05ee8]
link tictactoe.models.Turn to tictactoe.models.Player--><path d="M308.6757,775.2488 C308.6757,775.2488 309.361,798.545 309.69,809.697 " fill="none" id="tictactoe.models.Turn-tictactoe.models.Player" style="stroke: #A80036; stroke-width: 1.0;"/><polygon fill="#A80036" points="310.074,822.731,313.8072,813.6171,309.9267,817.7332,305.8107,813.8527,310.074,822.731" style="stroke: #A80036; stroke-width: 1.0;"/><line style="stroke: #A80036; stroke-width: 1.0;" x1="309.9267" x2="309.691" y1="817.7332" y2="809.736"/><polygon fill="#A80036" points="308.321,763.254,304.5001,769.3696,308.6757,775.2488,312.4966,769.1331,308.321,763.254" style="stroke: #A80036; stroke-width: 1.0;"/><!--MD5=[559331b67f17be6af874b8d5a2a26288]
@startuml

class  tictactoe.models.Board{
+ {static} EMPTY: char
- coordinates: Coordinate[][]
+ Board()
+ getToken(Coordinate): Token
~ move(Coordinate, Coordinate): void
~ put(Coordinate, Token): void
- remove(Coordinate): void
~ isTicTacToe(Token): boolean
- numberOfCoordinates(Coordinate[]): int
~ isCompleted(): boolean
+ isEmpty(Coordinate): boolean
~ isOccupied(Coordinate, Token): boolean
}
tictactoe.models.Board *-down-> tictactoe.models.Coordinate
tictactoe.models.Board ..> tictactoe.models.Token
tictactoe.models.Board ..> tictactoe.models.Turn
tictactoe.models.Board ..> utils.Direction

class  tictactoe.models.Coordinate{
+ {static} DIMENSION: char
+ Coordinate()
+ Coordinate(int, int)
~ inDirection(Coordinate): boolean
~ getDirection(Coordinate): Direction
- inInverseDiagonal(): boolean
+ isValid(): boolean
+ random(): void
}
utils.Coordinate <|-down- tictactoe.models.Coordinate
tictactoe.models.Coordinate ..> utils.Direction
tictactoe.models.Coordinate ..> java.util.Random

enum  tictactoe.models.Error{
NOT_EMPTY
NOT_OWNER
SAME_COORDINATES
}

class  tictactoe.models.Game{
- board: Board
- players: Player[][]
- turn: Turn
+ Game()
+ createPlayers(int): void
+ getBoard(): Board
+ isBoardComplete(): boolean
+ putTokenPlayerFromTurn(Coordinate): void
+ moveTokenPlayerFromTurn(Coordinate[]): void
+ getTokenPlayerFromTurn(int): Player
+ changeTurn(): void
+ isTicTacToe(): boolean
+ getOtherValueFromTurn(): int
}
tictactoe.models.Game *-down-> tictactoe.models.Board
tictactoe.models.Game *-down-> tictactoe.models.Player
tictactoe.models.Game *-down-> tictactoe.models.Turn
tictactoe.models.Game ..> tictactoe.models.Token
tictactoe.models.Game ..> tictactoe.models.PlayerType

class  tictactoe.models.Player{
- token: Token
- board: Board
- type: PlayerType
+ Player(Token, Board, PlayerType)
+ getType(): PlayerType
~ getToken(): Token
~ put(Coordinate): void
~ move(Coordinate[]): void
+ controlErrorsPutCoordinate(Coordinate): Error
+ controlErrorsMoveOriginCoordinate(Coordinate): Error
+ controlErrorsMoveTargetCoordinate(Coordinate, Coordinate): Error
}
tictactoe.models.Player *-down-> tictactoe.models.Token
tictactoe.models.Player *-down-> tictactoe.models.Board
tictactoe.models.Player *-down-> tictactoe.models.PlayerType
tictactoe.models.Player ..> tictactoe.models.Coordinate
tictactoe.models.Player ..> tictactoe.models.Error

enum  tictactoe.models.PlayerType{
USER_PLAYER
MACHINE_PLAYER
}

enum  tictactoe.models.Token{
TOKEN_X
TOKEN_O
- character: char
~ Token(char)
+ getChar(): char
}

class  tictactoe.models.Turn{
+ {static} PLAYERS: int
- value: int
- players: Player[]
+ Turn(Player[])
~ change(): void
~ getPlayer(): Player
~ getOtherValue(): int
~ getOtherPlayer(): Player
}
tictactoe.models.Turn *-down-> tictactoe.models.Player

@enduml

PlantUML version 1.2020.15(Sun Jun 28 13:39:45 CEST 2020)
(GPL source distribution)
Java Runtime: Java(TM) SE Runtime Environment
JVM: Java HotSpot(TM) 64-Bit Server VM
Default Encoding: windows-1252
Language: es
Country: ES
--></g></svg>