<?xml version="1.0" encoding="UTF-8" standalone="no"?><svg xmlns="http://www.w3.org/2000/svg" xmlns:xlink="http://www.w3.org/1999/xlink" contentScriptType="application/ecmascript" contentStyleType="text/css" height="1477px" preserveAspectRatio="none" style="width:1052px;height:1477px;" version="1.1" viewBox="0 0 1052 1477" width="1052px" zoomAndPan="magnify"><defs><filter height="300%" id="f1ntpylr2xzauk" width="300%" x="-1" y="-1"><feGaussianBlur result="blurOut" stdDeviation="2.0"/><feColorMatrix in="blurOut" result="blurOut2" type="matrix" values="0 0 0 0 0 0 0 0 0 0 0 0 0 0 0 0 0 0 .4 0"/><feOffset dx="4.0" dy="4.0" in="blurOut2" result="blurOut3"/><feBlend in="SourceGraphic" in2="blurOut3" mode="normal"/></filter></defs><g><!--MD5=[51cd642fcc96b47682a93d9084d46dec]
cluster tictactoe.models--><polygon fill="#FFFFFF" filter="url(#f1ntpylr2xzauk)" points="282,6,404,6,411,29.6094,686,29.6094,686,1341,282,1341,282,6" style="stroke: #000000; stroke-width: 1.5;"/><line style="stroke: #000000; stroke-width: 1.5;" x1="282" x2="411" y1="29.6094" y2="29.6094"/><text fill="#000000" font-family="sans-serif" font-size="14" font-weight="bold" lengthAdjust="spacingAndGlyphs" textLength="116" x="286" y="22.5332">tictactoe.models</text><!--MD5=[2d083dca3cab6023baf6a9cac5f9557f]
cluster tictactoe.types--><polygon fill="#FFFFFF" filter="url(#f1ntpylr2xzauk)" points="710,1185.5,819,1185.5,826,1209.1094,1030,1209.1094,1030,1285.5,710,1285.5,710,1185.5" style="stroke: #000000; stroke-width: 1.5;"/><line style="stroke: #000000; stroke-width: 1.5;" x1="710" x2="826" y1="1209.1094" y2="1209.1094"/><text fill="#000000" font-family="sans-serif" font-size="14" font-weight="bold" lengthAdjust="spacingAndGlyphs" textLength="103" x="714" y="1202.0332">tictactoe.types</text><!--MD5=[c52f45833d539af9e29a9d34b8b7302b]
cluster utils--><polygon fill="#FFFFFF" filter="url(#f1ntpylr2xzauk)" points="16,946,52,946,59,969.6094,258,969.6094,258,1046,16,1046,16,946" style="stroke: #000000; stroke-width: 1.5;"/><line style="stroke: #000000; stroke-width: 1.5;" x1="16" x2="59" y1="969.6094" y2="969.6094"/><text fill="#000000" font-family="sans-serif" font-size="14" font-weight="bold" lengthAdjust="spacingAndGlyphs" textLength="30" x="20" y="962.5332">utils</text><!--MD5=[7db3c59d38ae5b37b484eb2df9368145]
cluster java.util--><polygon fill="#FFFFFF" filter="url(#f1ntpylr2xzauk)" points="338,1365,399,1365,406,1388.6094,450,1388.6094,450,1465,338,1465,338,1365" style="stroke: #000000; stroke-width: 1.5;"/><line style="stroke: #000000; stroke-width: 1.5;" x1="338" x2="406" y1="1388.6094" y2="1388.6094"/><text fill="#000000" font-family="sans-serif" font-size="14" font-weight="bold" lengthAdjust="spacingAndGlyphs" textLength="55" x="342" y="1381.5332">java.util</text><!--MD5=[f2254b5fdbf93effa50eb20dc057829b]
class tictactoe.models.Board--><rect fill="#FEFECE" filter="url(#f1ntpylr2xzauk)" height="255.5391" id="tictactoe.models.Board" style="stroke: #A80036; stroke-width: 1.5;" width="298" x="298" y="371"/><ellipse cx="426.25" cy="387" fill="#ADD1B2" rx="11" ry="11" style="stroke: #A80036; stroke-width: 1.0;"/><path d="M429.0156,382.875 Q429.1719,382.6563 429.3594,382.5469 Q429.5469,382.4375 429.7656,382.4375 Q430.1406,382.4375 430.375,382.7031 Q430.6094,382.9531 430.6094,383.5625 L430.6094,385.0156 Q430.6094,385.625 430.375,385.8906 Q430.1406,386.1563 429.7656,386.1563 Q429.4219,386.1563 429.2188,385.9531 Q429.0156,385.7656 428.9063,385.25 Q428.8594,384.8906 428.6719,384.7031 Q428.3438,384.3281 427.7344,384.1094 Q427.125,383.8906 426.5,383.8906 Q425.7344,383.8906 425.0938,384.2188 Q424.4688,384.5469 423.9688,385.2969 Q423.4844,386.0469 423.4844,387.0781 L423.4844,388.1719 Q423.4844,389.4063 424.375,390.2344 Q425.2656,391.0469 426.8594,391.0469 Q427.7969,391.0469 428.4531,390.7969 Q428.8438,390.6406 429.2656,390.2031 Q429.5313,389.9375 429.6719,389.8594 Q429.8281,389.7813 430.0313,389.7813 Q430.3594,389.7813 430.6094,390.0469 Q430.875,390.2969 430.875,390.6406 Q430.875,390.9844 430.5313,391.3906 Q430.0313,391.9688 429.2344,392.2969 Q428.1563,392.75 426.8594,392.75 Q425.3438,392.75 424.1406,392.125 Q423.1563,391.625 422.4688,390.5625 Q421.7813,389.4844 421.7813,388.2031 L421.7813,387.0469 Q421.7813,385.7188 422.3906,384.5781 Q423.0156,383.4219 424.1094,382.8125 Q425.2031,382.1875 426.4375,382.1875 Q427.1719,382.1875 427.8125,382.3594 Q428.4688,382.5156 429.0156,382.875 Z "/><text fill="#000000" font-family="sans-serif" font-size="12" lengthAdjust="spacingAndGlyphs" textLength="33" x="446.75" y="391.9102">Board</text><line style="stroke: #A80036; stroke-width: 1.5;" x1="299" x2="595" y1="403" y2="403"/><ellipse cx="309" cy="414" fill="none" rx="3" ry="3" style="stroke: #038048; stroke-width: 1.0;"/><text fill="#000000" font-family="sans-serif" font-size="11" lengthAdjust="spacingAndGlyphs" text-decoration="underline" textLength="62" x="318" y="418.4189">EMPTY: char</text><rect fill="none" height="6" style="stroke: #C82930; stroke-width: 1.0;" width="6" x="306" y="424.8359"/><text fill="#000000" font-family="sans-serif" font-size="11" lengthAdjust="spacingAndGlyphs" textLength="127" x="318" y="432.2549">coordinates: Coordinate[][]</text><line style="stroke: #A80036; stroke-width: 1.5;" x1="299" x2="595" y1="438.6719" y2="438.6719"/><ellipse cx="309" cy="449.6719" fill="#84BE84" rx="3" ry="3" style="stroke: #038048; stroke-width: 1.0;"/><text fill="#000000" font-family="sans-serif" font-size="11" lengthAdjust="spacingAndGlyphs" textLength="37" x="318" y="454.0908">Board()</text><ellipse cx="309" cy="463.5078" fill="#84BE84" rx="3" ry="3" style="stroke: #038048; stroke-width: 1.0;"/><text fill="#000000" font-family="sans-serif" font-size="11" lengthAdjust="spacingAndGlyphs" textLength="139" x="318" y="467.9268">getToken(Coordinate): Token</text><polygon fill="#4177AF" points="309,473.3438,305,479.3438,313,479.3438" style="stroke: #1963A0; stroke-width: 1.0;"/><text fill="#000000" font-family="sans-serif" font-size="11" lengthAdjust="spacingAndGlyphs" textLength="170" x="318" y="481.7627">move(Coordinate, Coordinate): void</text><polygon fill="#4177AF" points="309,487.1797,305,493.1797,313,493.1797" style="stroke: #1963A0; stroke-width: 1.0;"/><text fill="#000000" font-family="sans-serif" font-size="11" lengthAdjust="spacingAndGlyphs" textLength="136" x="318" y="495.5986">put(Coordinate, Token): void</text><rect fill="#F24D5C" height="6" style="stroke: #C82930; stroke-width: 1.0;" width="6" x="306" y="502.0156"/><text fill="#000000" font-family="sans-serif" font-size="11" lengthAdjust="spacingAndGlyphs" textLength="122" x="318" y="509.4346">remove(Coordinate): void</text><polygon fill="#4177AF" points="309,514.8516,305,520.8516,313,520.8516" style="stroke: #1963A0; stroke-width: 1.0;"/><text fill="#000000" font-family="sans-serif" font-size="11" lengthAdjust="spacingAndGlyphs" textLength="139" x="318" y="523.2705">isTicTacToe(Token): boolean</text><rect fill="#F24D5C" height="6" style="stroke: #C82930; stroke-width: 1.0;" width="6" x="306" y="529.6875"/><text fill="#000000" font-family="sans-serif" font-size="11" lengthAdjust="spacingAndGlyphs" textLength="189" x="318" y="537.1064">numberOfCoordinates(Coordinate[]): int</text><polygon fill="#4177AF" points="309,542.5234,305,548.5234,313,548.5234" style="stroke: #1963A0; stroke-width: 1.0;"/><text fill="#000000" font-family="sans-serif" font-size="11" lengthAdjust="spacingAndGlyphs" textLength="110" x="318" y="550.9424">isCompleted(): boolean</text><ellipse cx="309" cy="560.3594" fill="#84BE84" rx="3" ry="3" style="stroke: #038048; stroke-width: 1.0;"/><text fill="#000000" font-family="sans-serif" font-size="11" lengthAdjust="spacingAndGlyphs" textLength="141" x="318" y="564.7783">isEmpty(Coordinate): boolean</text><polygon fill="#4177AF" points="309,570.1953,305,576.1953,313,576.1953" style="stroke: #1963A0; stroke-width: 1.0;"/><text fill="#000000" font-family="sans-serif" font-size="11" lengthAdjust="spacingAndGlyphs" textLength="193" x="318" y="578.6143">isOccupied(Coordinate, Token): boolean</text><rect fill="#F24D5C" height="6" style="stroke: #C82930; stroke-width: 1.0;" width="6" x="306" y="585.0313"/><text fill="#000000" font-family="sans-serif" font-size="11" lengthAdjust="spacingAndGlyphs" textLength="246" x="318" y="592.4502">checkNumberOfCoordinates(Coordinate[]): boolean</text><rect fill="#F24D5C" height="6" style="stroke: #C82930; stroke-width: 1.0;" width="6" x="306" y="598.8672"/><text fill="#000000" font-family="sans-serif" font-size="11" lengthAdjust="spacingAndGlyphs" textLength="272" x="318" y="606.2861">checkDirectionOfFirstCoordinates(Coordinate[]): boolean</text><rect fill="#F24D5C" height="6" style="stroke: #C82930; stroke-width: 1.0;" width="6" x="306" y="612.7031"/><text fill="#000000" font-family="sans-serif" font-size="11" lengthAdjust="spacingAndGlyphs" textLength="263" x="318" y="620.1221">checkDirectionOfAllCoordinates(Coordinate[]): boolean</text><!--MD5=[55d70ecb9e3ba4786ec1f15d0b7dce13]
class tictactoe.models.Coordinate--><rect fill="#FEFECE" filter="url(#f1ntpylr2xzauk)" height="158.6875" id="tictactoe.models.Coordinate" style="stroke: #A80036; stroke-width: 1.5;" width="191" x="298.5" y="1166"/><ellipse cx="359.25" cy="1182" fill="#ADD1B2" rx="11" ry="11" style="stroke: #A80036; stroke-width: 1.0;"/><path d="M362.0156,1177.875 Q362.1719,1177.6563 362.3594,1177.5469 Q362.5469,1177.4375 362.7656,1177.4375 Q363.1406,1177.4375 363.375,1177.7031 Q363.6094,1177.9531 363.6094,1178.5625 L363.6094,1180.0156 Q363.6094,1180.625 363.375,1180.8906 Q363.1406,1181.1563 362.7656,1181.1563 Q362.4219,1181.1563 362.2188,1180.9531 Q362.0156,1180.7656 361.9063,1180.25 Q361.8594,1179.8906 361.6719,1179.7031 Q361.3438,1179.3281 360.7344,1179.1094 Q360.125,1178.8906 359.5,1178.8906 Q358.7344,1178.8906 358.0938,1179.2188 Q357.4688,1179.5469 356.9688,1180.2969 Q356.4844,1181.0469 356.4844,1182.0781 L356.4844,1183.1719 Q356.4844,1184.4063 357.375,1185.2344 Q358.2656,1186.0469 359.8594,1186.0469 Q360.7969,1186.0469 361.4531,1185.7969 Q361.8438,1185.6406 362.2656,1185.2031 Q362.5313,1184.9375 362.6719,1184.8594 Q362.8281,1184.7813 363.0313,1184.7813 Q363.3594,1184.7813 363.6094,1185.0469 Q363.875,1185.2969 363.875,1185.6406 Q363.875,1185.9844 363.5313,1186.3906 Q363.0313,1186.9688 362.2344,1187.2969 Q361.1563,1187.75 359.8594,1187.75 Q358.3438,1187.75 357.1406,1187.125 Q356.1563,1186.625 355.4688,1185.5625 Q354.7813,1184.4844 354.7813,1183.2031 L354.7813,1182.0469 Q354.7813,1180.7188 355.3906,1179.5781 Q356.0156,1178.4219 357.1094,1177.8125 Q358.2031,1177.1875 359.4375,1177.1875 Q360.1719,1177.1875 360.8125,1177.3594 Q361.4688,1177.5156 362.0156,1177.875 Z "/><text fill="#000000" font-family="sans-serif" font-size="12" lengthAdjust="spacingAndGlyphs" textLength="61" x="379.75" y="1186.9102">Coordinate</text><line style="stroke: #A80036; stroke-width: 1.5;" x1="299.5" x2="488.5" y1="1198" y2="1198"/><ellipse cx="309.5" cy="1209" fill="none" rx="3" ry="3" style="stroke: #038048; stroke-width: 1.0;"/><text fill="#000000" font-family="sans-serif" font-size="11" lengthAdjust="spacingAndGlyphs" text-decoration="underline" textLength="82" x="318.5" y="1213.4189">DIMENSION: char</text><line style="stroke: #A80036; stroke-width: 1.5;" x1="299.5" x2="488.5" y1="1219.8359" y2="1219.8359"/><ellipse cx="309.5" cy="1230.8359" fill="#84BE84" rx="3" ry="3" style="stroke: #038048; stroke-width: 1.0;"/><text fill="#000000" font-family="sans-serif" font-size="11" lengthAdjust="spacingAndGlyphs" textLength="60" x="318.5" y="1235.2549">Coordinate()</text><ellipse cx="309.5" cy="1244.6719" fill="#84BE84" rx="3" ry="3" style="stroke: #038048; stroke-width: 1.0;"/><text fill="#000000" font-family="sans-serif" font-size="11" lengthAdjust="spacingAndGlyphs" textLength="88" x="318.5" y="1249.0908">Coordinate(int, int)</text><polygon fill="#4177AF" points="309.5,1254.5078,305.5,1260.5078,313.5,1260.5078" style="stroke: #1963A0; stroke-width: 1.0;"/><text fill="#000000" font-family="sans-serif" font-size="11" lengthAdjust="spacingAndGlyphs" textLength="154" x="318.5" y="1262.9268">inDirection(Coordinate): boolean</text><polygon fill="#4177AF" points="309.5,1268.3438,305.5,1274.3438,313.5,1274.3438" style="stroke: #1963A0; stroke-width: 1.0;"/><text fill="#000000" font-family="sans-serif" font-size="11" lengthAdjust="spacingAndGlyphs" textLength="165" x="318.5" y="1276.7627">getDirection(Coordinate): Direction</text><rect fill="#F24D5C" height="6" style="stroke: #C82930; stroke-width: 1.0;" width="6" x="306.5" y="1283.1797"/><text fill="#000000" font-family="sans-serif" font-size="11" lengthAdjust="spacingAndGlyphs" textLength="137" x="318.5" y="1290.5986">inInverseDiagonal(): boolean</text><ellipse cx="309.5" cy="1300.0156" fill="#84BE84" rx="3" ry="3" style="stroke: #038048; stroke-width: 1.0;"/><text fill="#000000" font-family="sans-serif" font-size="11" lengthAdjust="spacingAndGlyphs" textLength="84" x="318.5" y="1304.4346">isValid(): boolean</text><ellipse cx="309.5" cy="1313.8516" fill="#84BE84" rx="3" ry="3" style="stroke: #038048; stroke-width: 1.0;"/><text fill="#000000" font-family="sans-serif" font-size="11" lengthAdjust="spacingAndGlyphs" textLength="70" x="318.5" y="1318.2705">random(): void</text><!--MD5=[b42b9147ed7462532394f7fe6f96703d]
class tictactoe.models.Turn--><rect fill="#FEFECE" filter="url(#f1ntpylr2xzauk)" height="158.6875" id="tictactoe.models.Turn" style="stroke: #A80036; stroke-width: 1.5;" width="142" x="483" y="687"/><ellipse cx="537.25" cy="703" fill="#ADD1B2" rx="11" ry="11" style="stroke: #A80036; stroke-width: 1.0;"/><path d="M540.0156,698.875 Q540.1719,698.6563 540.3594,698.5469 Q540.5469,698.4375 540.7656,698.4375 Q541.1406,698.4375 541.375,698.7031 Q541.6094,698.9531 541.6094,699.5625 L541.6094,701.0156 Q541.6094,701.625 541.375,701.8906 Q541.1406,702.1563 540.7656,702.1563 Q540.4219,702.1563 540.2188,701.9531 Q540.0156,701.7656 539.9063,701.25 Q539.8594,700.8906 539.6719,700.7031 Q539.3438,700.3281 538.7344,700.1094 Q538.125,699.8906 537.5,699.8906 Q536.7344,699.8906 536.0938,700.2188 Q535.4688,700.5469 534.9688,701.2969 Q534.4844,702.0469 534.4844,703.0781 L534.4844,704.1719 Q534.4844,705.4063 535.375,706.2344 Q536.2656,707.0469 537.8594,707.0469 Q538.7969,707.0469 539.4531,706.7969 Q539.8438,706.6406 540.2656,706.2031 Q540.5313,705.9375 540.6719,705.8594 Q540.8281,705.7813 541.0313,705.7813 Q541.3594,705.7813 541.6094,706.0469 Q541.875,706.2969 541.875,706.6406 Q541.875,706.9844 541.5313,707.3906 Q541.0313,707.9688 540.2344,708.2969 Q539.1563,708.75 537.8594,708.75 Q536.3438,708.75 535.1406,708.125 Q534.1563,707.625 533.4688,706.5625 Q532.7813,705.4844 532.7813,704.2031 L532.7813,703.0469 Q532.7813,701.7188 533.3906,700.5781 Q534.0156,699.4219 535.1094,698.8125 Q536.2031,698.1875 537.4375,698.1875 Q538.1719,698.1875 538.8125,698.3594 Q539.4688,698.5156 540.0156,698.875 Z "/><text fill="#000000" font-family="sans-serif" font-size="12" lengthAdjust="spacingAndGlyphs" textLength="25" x="557.75" y="707.9102">Turn</text><line style="stroke: #A80036; stroke-width: 1.5;" x1="484" x2="624" y1="719" y2="719"/><ellipse cx="494" cy="730" fill="none" rx="3" ry="3" style="stroke: #038048; stroke-width: 1.0;"/><text fill="#000000" font-family="sans-serif" font-size="11" lengthAdjust="spacingAndGlyphs" text-decoration="underline" textLength="93" x="503" y="734.4189">NUM_PLAYERS: int</text><rect fill="none" height="6" style="stroke: #C82930; stroke-width: 1.0;" width="6" x="491" y="740.8359"/><text fill="#000000" font-family="sans-serif" font-size="11" lengthAdjust="spacingAndGlyphs" textLength="43" x="503" y="748.2549">value: int</text><rect fill="none" height="6" style="stroke: #C82930; stroke-width: 1.0;" width="6" x="491" y="754.6719"/><text fill="#000000" font-family="sans-serif" font-size="11" lengthAdjust="spacingAndGlyphs" textLength="78" x="503" y="762.0908">players: Player[]</text><line style="stroke: #A80036; stroke-width: 1.5;" x1="484" x2="624" y1="768.5078" y2="768.5078"/><ellipse cx="494" cy="779.5078" fill="#84BE84" rx="3" ry="3" style="stroke: #038048; stroke-width: 1.0;"/><text fill="#000000" font-family="sans-serif" font-size="11" lengthAdjust="spacingAndGlyphs" textLength="66" x="503" y="783.9268">Turn(Player[])</text><polygon fill="#4177AF" points="494,789.3438,490,795.3438,498,795.3438" style="stroke: #1963A0; stroke-width: 1.0;"/><text fill="#000000" font-family="sans-serif" font-size="11" lengthAdjust="spacingAndGlyphs" textLength="70" x="503" y="797.7627">change(): void</text><polygon fill="#4177AF" points="494,803.1797,490,809.1797,498,809.1797" style="stroke: #1963A0; stroke-width: 1.0;"/><text fill="#000000" font-family="sans-serif" font-size="11" lengthAdjust="spacingAndGlyphs" textLength="89" x="503" y="811.5986">getPlayer(): Player</text><polygon fill="#4177AF" points="494,817.0156,490,823.0156,498,823.0156" style="stroke: #1963A0; stroke-width: 1.0;"/><text fill="#000000" font-family="sans-serif" font-size="11" lengthAdjust="spacingAndGlyphs" textLength="95" x="503" y="825.4346">getOtherValue(): int</text><polygon fill="#4177AF" points="494,830.8516,490,836.8516,498,836.8516" style="stroke: #1963A0; stroke-width: 1.0;"/><text fill="#000000" font-family="sans-serif" font-size="11" lengthAdjust="spacingAndGlyphs" textLength="116" x="503" y="839.2705">getOtherPlayer(): Player</text><!--MD5=[8d3188f3c370ea7d5d91d12bca83b67a]
class tictactoe.models.Game--><rect fill="#FEFECE" filter="url(#f1ntpylr2xzauk)" height="269.375" id="tictactoe.models.Game" style="stroke: #A80036; stroke-width: 1.5;" width="346" x="324" y="42"/><ellipse cx="475.75" cy="58" fill="#ADD1B2" rx="11" ry="11" style="stroke: #A80036; stroke-width: 1.0;"/><path d="M478.5156,53.875 Q478.6719,53.6563 478.8594,53.5469 Q479.0469,53.4375 479.2656,53.4375 Q479.6406,53.4375 479.875,53.7031 Q480.1094,53.9531 480.1094,54.5625 L480.1094,56.0156 Q480.1094,56.625 479.875,56.8906 Q479.6406,57.1563 479.2656,57.1563 Q478.9219,57.1563 478.7188,56.9531 Q478.5156,56.7656 478.4063,56.25 Q478.3594,55.8906 478.1719,55.7031 Q477.8438,55.3281 477.2344,55.1094 Q476.625,54.8906 476,54.8906 Q475.2344,54.8906 474.5938,55.2188 Q473.9688,55.5469 473.4688,56.2969 Q472.9844,57.0469 472.9844,58.0781 L472.9844,59.1719 Q472.9844,60.4063 473.875,61.2344 Q474.7656,62.0469 476.3594,62.0469 Q477.2969,62.0469 477.9531,61.7969 Q478.3438,61.6406 478.7656,61.2031 Q479.0313,60.9375 479.1719,60.8594 Q479.3281,60.7813 479.5313,60.7813 Q479.8594,60.7813 480.1094,61.0469 Q480.375,61.2969 480.375,61.6406 Q480.375,61.9844 480.0313,62.3906 Q479.5313,62.9688 478.7344,63.2969 Q477.6563,63.75 476.3594,63.75 Q474.8438,63.75 473.6406,63.125 Q472.6563,62.625 471.9688,61.5625 Q471.2813,60.4844 471.2813,59.2031 L471.2813,58.0469 Q471.2813,56.7188 471.8906,55.5781 Q472.5156,54.4219 473.6094,53.8125 Q474.7031,53.1875 475.9375,53.1875 Q476.6719,53.1875 477.3125,53.3594 Q477.9688,53.5156 478.5156,53.875 Z "/><text fill="#000000" font-family="sans-serif" font-size="12" lengthAdjust="spacingAndGlyphs" textLength="34" x="496.25" y="62.9102">Game</text><line style="stroke: #A80036; stroke-width: 1.5;" x1="325" x2="669" y1="74" y2="74"/><rect fill="none" height="6" style="stroke: #C82930; stroke-width: 1.0;" width="6" x="332" y="82"/><text fill="#000000" font-family="sans-serif" font-size="11" lengthAdjust="spacingAndGlyphs" textLength="63" x="344" y="89.4189">board: Board</text><rect fill="none" height="6" style="stroke: #C82930; stroke-width: 1.0;" width="6" x="332" y="95.8359"/><text fill="#000000" font-family="sans-serif" font-size="11" lengthAdjust="spacingAndGlyphs" textLength="84" x="344" y="103.2549">players: Player[][]</text><rect fill="none" height="6" style="stroke: #C82930; stroke-width: 1.0;" width="6" x="332" y="109.6719"/><text fill="#000000" font-family="sans-serif" font-size="11" lengthAdjust="spacingAndGlyphs" textLength="47" x="344" y="117.0908">turn: Turn</text><line style="stroke: #A80036; stroke-width: 1.5;" x1="325" x2="669" y1="123.5078" y2="123.5078"/><ellipse cx="335" cy="134.5078" fill="#84BE84" rx="3" ry="3" style="stroke: #038048; stroke-width: 1.0;"/><text fill="#000000" font-family="sans-serif" font-size="11" lengthAdjust="spacingAndGlyphs" textLength="36" x="344" y="138.9268">Game()</text><ellipse cx="335" cy="148.3438" fill="#84BE84" rx="3" ry="3" style="stroke: #038048; stroke-width: 1.0;"/><text fill="#000000" font-family="sans-serif" font-size="11" lengthAdjust="spacingAndGlyphs" textLength="112" x="344" y="152.7627">createPlayers(int): void</text><ellipse cx="335" cy="162.1797" fill="#84BE84" rx="3" ry="3" style="stroke: #038048; stroke-width: 1.0;"/><text fill="#000000" font-family="sans-serif" font-size="11" lengthAdjust="spacingAndGlyphs" textLength="133" x="344" y="166.5986">isBoardComplete(): boolean</text><ellipse cx="335" cy="176.0156" fill="#84BE84" rx="3" ry="3" style="stroke: #038048; stroke-width: 1.0;"/><text fill="#000000" font-family="sans-serif" font-size="11" lengthAdjust="spacingAndGlyphs" textLength="206" x="344" y="180.4346">putTokenPlayerFromTurn(Coordinate): void</text><ellipse cx="335" cy="189.8516" fill="#84BE84" rx="3" ry="3" style="stroke: #038048; stroke-width: 1.0;"/><text fill="#000000" font-family="sans-serif" font-size="11" lengthAdjust="spacingAndGlyphs" textLength="223" x="344" y="194.2705">moveTokenPlayerFromTurn(Coordinate[]): void</text><ellipse cx="335" cy="203.6875" fill="#84BE84" rx="3" ry="3" style="stroke: #038048; stroke-width: 1.0;"/><text fill="#000000" font-family="sans-serif" font-size="11" lengthAdjust="spacingAndGlyphs" textLength="224" x="344" y="208.1064">getTypeOfTokenPlayerFromTurn(): PlayerType</text><ellipse cx="335" cy="217.5234" fill="#84BE84" rx="3" ry="3" style="stroke: #038048; stroke-width: 1.0;"/><text fill="#000000" font-family="sans-serif" font-size="11" lengthAdjust="spacingAndGlyphs" textLength="220" x="344" y="221.9424">controlErrorsPutCoordinate(Coordinate): Error</text><ellipse cx="335" cy="231.3594" fill="#84BE84" rx="3" ry="3" style="stroke: #038048; stroke-width: 1.0;"/><text fill="#000000" font-family="sans-serif" font-size="11" lengthAdjust="spacingAndGlyphs" textLength="259" x="344" y="235.7783">controlErrorsMoveOriginCoordinate(Coordinate): Error</text><ellipse cx="335" cy="245.1953" fill="#84BE84" rx="3" ry="3" style="stroke: #038048; stroke-width: 1.0;"/><text fill="#000000" font-family="sans-serif" font-size="11" lengthAdjust="spacingAndGlyphs" textLength="320" x="344" y="249.6143">controlErrorsMoveTargetCoordinate(Coordinate, Coordinate): Error</text><ellipse cx="335" cy="259.0313" fill="#84BE84" rx="3" ry="3" style="stroke: #038048; stroke-width: 1.0;"/><text fill="#000000" font-family="sans-serif" font-size="11" lengthAdjust="spacingAndGlyphs" textLength="115" x="344" y="263.4502">getToken(int, int): Token</text><ellipse cx="335" cy="272.8672" fill="#84BE84" rx="3" ry="3" style="stroke: #038048; stroke-width: 1.0;"/><text fill="#000000" font-family="sans-serif" font-size="11" lengthAdjust="spacingAndGlyphs" textLength="92" x="344" y="277.2861">changeTurn(): void</text><ellipse cx="335" cy="286.7031" fill="#84BE84" rx="3" ry="3" style="stroke: #038048; stroke-width: 1.0;"/><text fill="#000000" font-family="sans-serif" font-size="11" lengthAdjust="spacingAndGlyphs" textLength="110" x="344" y="291.1221">isTicTacToe(): boolean</text><ellipse cx="335" cy="300.5391" fill="#84BE84" rx="3" ry="3" style="stroke: #038048; stroke-width: 1.0;"/><text fill="#000000" font-family="sans-serif" font-size="11" lengthAdjust="spacingAndGlyphs" textLength="141" x="344" y="304.958">getOtherValueFromTurn(): int</text><!--MD5=[3b54484399e9c5d8797124604fd4af65]
class tictactoe.models.Player--><rect fill="#FEFECE" filter="url(#f1ntpylr2xzauk)" height="200.1953" id="tictactoe.models.Player" style="stroke: #A80036; stroke-width: 1.5;" width="328" x="342" y="906"/><ellipse cx="484.75" cy="922" fill="#ADD1B2" rx="11" ry="11" style="stroke: #A80036; stroke-width: 1.0;"/><path d="M487.5156,917.875 Q487.6719,917.6563 487.8594,917.5469 Q488.0469,917.4375 488.2656,917.4375 Q488.6406,917.4375 488.875,917.7031 Q489.1094,917.9531 489.1094,918.5625 L489.1094,920.0156 Q489.1094,920.625 488.875,920.8906 Q488.6406,921.1563 488.2656,921.1563 Q487.9219,921.1563 487.7188,920.9531 Q487.5156,920.7656 487.4063,920.25 Q487.3594,919.8906 487.1719,919.7031 Q486.8438,919.3281 486.2344,919.1094 Q485.625,918.8906 485,918.8906 Q484.2344,918.8906 483.5938,919.2188 Q482.9688,919.5469 482.4688,920.2969 Q481.9844,921.0469 481.9844,922.0781 L481.9844,923.1719 Q481.9844,924.4063 482.875,925.2344 Q483.7656,926.0469 485.3594,926.0469 Q486.2969,926.0469 486.9531,925.7969 Q487.3438,925.6406 487.7656,925.2031 Q488.0313,924.9375 488.1719,924.8594 Q488.3281,924.7813 488.5313,924.7813 Q488.8594,924.7813 489.1094,925.0469 Q489.375,925.2969 489.375,925.6406 Q489.375,925.9844 489.0313,926.3906 Q488.5313,926.9688 487.7344,927.2969 Q486.6563,927.75 485.3594,927.75 Q483.8438,927.75 482.6406,927.125 Q481.6563,926.625 480.9688,925.5625 Q480.2813,924.4844 480.2813,923.2031 L480.2813,922.0469 Q480.2813,920.7188 480.8906,919.5781 Q481.5156,918.4219 482.6094,917.8125 Q483.7031,917.1875 484.9375,917.1875 Q485.6719,917.1875 486.3125,917.3594 Q486.9688,917.5156 487.5156,917.875 Z "/><text fill="#000000" font-family="sans-serif" font-size="12" lengthAdjust="spacingAndGlyphs" textLength="34" x="505.25" y="926.9102">Player</text><line style="stroke: #A80036; stroke-width: 1.5;" x1="343" x2="669" y1="938" y2="938"/><rect fill="none" height="6" style="stroke: #C82930; stroke-width: 1.0;" width="6" x="350" y="946"/><text fill="#000000" font-family="sans-serif" font-size="11" lengthAdjust="spacingAndGlyphs" textLength="61" x="362" y="953.4189">token: Token</text><rect fill="none" height="6" style="stroke: #C82930; stroke-width: 1.0;" width="6" x="350" y="959.8359"/><text fill="#000000" font-family="sans-serif" font-size="11" lengthAdjust="spacingAndGlyphs" textLength="63" x="362" y="967.2549">board: Board</text><rect fill="none" height="6" style="stroke: #C82930; stroke-width: 1.0;" width="6" x="350" y="973.6719"/><text fill="#000000" font-family="sans-serif" font-size="11" lengthAdjust="spacingAndGlyphs" textLength="81" x="362" y="981.0908">type: PlayerType</text><line style="stroke: #A80036; stroke-width: 1.5;" x1="343" x2="669" y1="987.5078" y2="987.5078"/><ellipse cx="353" cy="998.5078" fill="#84BE84" rx="3" ry="3" style="stroke: #038048; stroke-width: 1.0;"/><text fill="#000000" font-family="sans-serif" font-size="11" lengthAdjust="spacingAndGlyphs" textLength="162" x="362" y="1002.9268">Player(Token, Board, PlayerType)</text><ellipse cx="353" cy="1012.3438" fill="#84BE84" rx="3" ry="3" style="stroke: #038048; stroke-width: 1.0;"/><text fill="#000000" font-family="sans-serif" font-size="11" lengthAdjust="spacingAndGlyphs" textLength="107" x="362" y="1016.7627">getType(): PlayerType</text><polygon fill="#4177AF" points="353,1022.1797,349,1028.1797,357,1028.1797" style="stroke: #1963A0; stroke-width: 1.0;"/><text fill="#000000" font-family="sans-serif" font-size="11" lengthAdjust="spacingAndGlyphs" textLength="87" x="362" y="1030.5986">getToken(): Token</text><polygon fill="#4177AF" points="353,1036.0156,349,1042.0156,357,1042.0156" style="stroke: #1963A0; stroke-width: 1.0;"/><text fill="#000000" font-family="sans-serif" font-size="11" lengthAdjust="spacingAndGlyphs" textLength="101" x="362" y="1044.4346">put(Coordinate): void</text><polygon fill="#4177AF" points="353,1049.8516,349,1055.8516,357,1055.8516" style="stroke: #1963A0; stroke-width: 1.0;"/><text fill="#000000" font-family="sans-serif" font-size="11" lengthAdjust="spacingAndGlyphs" textLength="118" x="362" y="1058.2705">move(Coordinate[]): void</text><ellipse cx="353" cy="1067.6875" fill="#84BE84" rx="3" ry="3" style="stroke: #038048; stroke-width: 1.0;"/><text fill="#000000" font-family="sans-serif" font-size="11" lengthAdjust="spacingAndGlyphs" textLength="202" x="362" y="1072.1064">getErrorsPutCoordinate(Coordinate): Error</text><ellipse cx="353" cy="1081.5234" fill="#84BE84" rx="3" ry="3" style="stroke: #038048; stroke-width: 1.0;"/><text fill="#000000" font-family="sans-serif" font-size="11" lengthAdjust="spacingAndGlyphs" textLength="241" x="362" y="1085.9424">getErrorsMoveOriginCoordinate(Coordinate): Error</text><ellipse cx="353" cy="1095.3594" fill="#84BE84" rx="3" ry="3" style="stroke: #038048; stroke-width: 1.0;"/><text fill="#000000" font-family="sans-serif" font-size="11" lengthAdjust="spacingAndGlyphs" textLength="302" x="362" y="1099.7783">getErrorsMoveTargetCoordinate(Coordinate, Coordinate): Error</text><!--MD5=[3b37da8b6e7a1800631cf51c5954ec17]
class tictactoe.types.Token--><rect fill="#FEFECE" filter="url(#f1ntpylr2xzauk)" height="48" id="tictactoe.types.Token" style="stroke: #A80036; stroke-width: 1.5;" width="66" x="821" y="1221.5"/><ellipse cx="836" cy="1237.5" fill="#ADD1B2" rx="11" ry="11" style="stroke: #A80036; stroke-width: 1.0;"/><path d="M838.7656,1233.375 Q838.9219,1233.1563 839.1094,1233.0469 Q839.2969,1232.9375 839.5156,1232.9375 Q839.8906,1232.9375 840.125,1233.2031 Q840.3594,1233.4531 840.3594,1234.0625 L840.3594,1235.5156 Q840.3594,1236.125 840.125,1236.3906 Q839.8906,1236.6563 839.5156,1236.6563 Q839.1719,1236.6563 838.9688,1236.4531 Q838.7656,1236.2656 838.6563,1235.75 Q838.6094,1235.3906 838.4219,1235.2031 Q838.0938,1234.8281 837.4844,1234.6094 Q836.875,1234.3906 836.25,1234.3906 Q835.4844,1234.3906 834.8438,1234.7188 Q834.2188,1235.0469 833.7188,1235.7969 Q833.2344,1236.5469 833.2344,1237.5781 L833.2344,1238.6719 Q833.2344,1239.9063 834.125,1240.7344 Q835.0156,1241.5469 836.6094,1241.5469 Q837.5469,1241.5469 838.2031,1241.2969 Q838.5938,1241.1406 839.0156,1240.7031 Q839.2813,1240.4375 839.4219,1240.3594 Q839.5781,1240.2813 839.7813,1240.2813 Q840.1094,1240.2813 840.3594,1240.5469 Q840.625,1240.7969 840.625,1241.1406 Q840.625,1241.4844 840.2813,1241.8906 Q839.7813,1242.4688 838.9844,1242.7969 Q837.9063,1243.25 836.6094,1243.25 Q835.0938,1243.25 833.8906,1242.625 Q832.9063,1242.125 832.2188,1241.0625 Q831.5313,1239.9844 831.5313,1238.7031 L831.5313,1237.5469 Q831.5313,1236.2188 832.1406,1235.0781 Q832.7656,1233.9219 833.8594,1233.3125 Q834.9531,1232.6875 836.1875,1232.6875 Q836.9219,1232.6875 837.5625,1232.8594 Q838.2188,1233.0156 838.7656,1233.375 Z "/><text fill="#000000" font-family="sans-serif" font-size="12" lengthAdjust="spacingAndGlyphs" textLength="34" x="850" y="1242.4102">Token</text><line style="stroke: #A80036; stroke-width: 1.5;" x1="822" x2="886" y1="1253.5" y2="1253.5"/><line style="stroke: #A80036; stroke-width: 1.5;" x1="822" x2="886" y1="1261.5" y2="1261.5"/><!--MD5=[8016c4b7c5b6e1d0c1906a688d612470]
class tictactoe.types.PlayerType--><rect fill="#FEFECE" filter="url(#f1ntpylr2xzauk)" height="48" id="tictactoe.types.PlayerType" style="stroke: #A80036; stroke-width: 1.5;" width="92" x="922" y="1221.5"/><ellipse cx="937" cy="1237.5" fill="#ADD1B2" rx="11" ry="11" style="stroke: #A80036; stroke-width: 1.0;"/><path d="M939.7656,1233.375 Q939.9219,1233.1563 940.1094,1233.0469 Q940.2969,1232.9375 940.5156,1232.9375 Q940.8906,1232.9375 941.125,1233.2031 Q941.3594,1233.4531 941.3594,1234.0625 L941.3594,1235.5156 Q941.3594,1236.125 941.125,1236.3906 Q940.8906,1236.6563 940.5156,1236.6563 Q940.1719,1236.6563 939.9688,1236.4531 Q939.7656,1236.2656 939.6563,1235.75 Q939.6094,1235.3906 939.4219,1235.2031 Q939.0938,1234.8281 938.4844,1234.6094 Q937.875,1234.3906 937.25,1234.3906 Q936.4844,1234.3906 935.8438,1234.7188 Q935.2188,1235.0469 934.7188,1235.7969 Q934.2344,1236.5469 934.2344,1237.5781 L934.2344,1238.6719 Q934.2344,1239.9063 935.125,1240.7344 Q936.0156,1241.5469 937.6094,1241.5469 Q938.5469,1241.5469 939.2031,1241.2969 Q939.5938,1241.1406 940.0156,1240.7031 Q940.2813,1240.4375 940.4219,1240.3594 Q940.5781,1240.2813 940.7813,1240.2813 Q941.1094,1240.2813 941.3594,1240.5469 Q941.625,1240.7969 941.625,1241.1406 Q941.625,1241.4844 941.2813,1241.8906 Q940.7813,1242.4688 939.9844,1242.7969 Q938.9063,1243.25 937.6094,1243.25 Q936.0938,1243.25 934.8906,1242.625 Q933.9063,1242.125 933.2188,1241.0625 Q932.5313,1239.9844 932.5313,1238.7031 L932.5313,1237.5469 Q932.5313,1236.2188 933.1406,1235.0781 Q933.7656,1233.9219 934.8594,1233.3125 Q935.9531,1232.6875 937.1875,1232.6875 Q937.9219,1232.6875 938.5625,1232.8594 Q939.2188,1233.0156 939.7656,1233.375 Z "/><text fill="#000000" font-family="sans-serif" font-size="12" lengthAdjust="spacingAndGlyphs" textLength="60" x="951" y="1242.4102">PlayerType</text><line style="stroke: #A80036; stroke-width: 1.5;" x1="923" x2="1013" y1="1253.5" y2="1253.5"/><line style="stroke: #A80036; stroke-width: 1.5;" x1="923" x2="1013" y1="1261.5" y2="1261.5"/><!--MD5=[1aab8645402f9730c5a520f7fa330421]
class tictactoe.types.Error--><rect fill="#FEFECE" filter="url(#f1ntpylr2xzauk)" height="48" id="tictactoe.types.Error" style="stroke: #A80036; stroke-width: 1.5;" width="59" x="726.5" y="1221.5"/><ellipse cx="741.5" cy="1237.5" fill="#ADD1B2" rx="11" ry="11" style="stroke: #A80036; stroke-width: 1.0;"/><path d="M744.2656,1233.375 Q744.4219,1233.1563 744.6094,1233.0469 Q744.7969,1232.9375 745.0156,1232.9375 Q745.3906,1232.9375 745.625,1233.2031 Q745.8594,1233.4531 745.8594,1234.0625 L745.8594,1235.5156 Q745.8594,1236.125 745.625,1236.3906 Q745.3906,1236.6563 745.0156,1236.6563 Q744.6719,1236.6563 744.4688,1236.4531 Q744.2656,1236.2656 744.1563,1235.75 Q744.1094,1235.3906 743.9219,1235.2031 Q743.5938,1234.8281 742.9844,1234.6094 Q742.375,1234.3906 741.75,1234.3906 Q740.9844,1234.3906 740.3438,1234.7188 Q739.7188,1235.0469 739.2188,1235.7969 Q738.7344,1236.5469 738.7344,1237.5781 L738.7344,1238.6719 Q738.7344,1239.9063 739.625,1240.7344 Q740.5156,1241.5469 742.1094,1241.5469 Q743.0469,1241.5469 743.7031,1241.2969 Q744.0938,1241.1406 744.5156,1240.7031 Q744.7813,1240.4375 744.9219,1240.3594 Q745.0781,1240.2813 745.2813,1240.2813 Q745.6094,1240.2813 745.8594,1240.5469 Q746.125,1240.7969 746.125,1241.1406 Q746.125,1241.4844 745.7813,1241.8906 Q745.2813,1242.4688 744.4844,1242.7969 Q743.4063,1243.25 742.1094,1243.25 Q740.5938,1243.25 739.3906,1242.625 Q738.4063,1242.125 737.7188,1241.0625 Q737.0313,1239.9844 737.0313,1238.7031 L737.0313,1237.5469 Q737.0313,1236.2188 737.6406,1235.0781 Q738.2656,1233.9219 739.3594,1233.3125 Q740.4531,1232.6875 741.6875,1232.6875 Q742.4219,1232.6875 743.0625,1232.8594 Q743.7188,1233.0156 744.2656,1233.375 Z "/><text fill="#000000" font-family="sans-serif" font-size="12" lengthAdjust="spacingAndGlyphs" textLength="27" x="755.5" y="1242.4102">Error</text><line style="stroke: #A80036; stroke-width: 1.5;" x1="727.5" x2="784.5" y1="1253.5" y2="1253.5"/><line style="stroke: #A80036; stroke-width: 1.5;" x1="727.5" x2="784.5" y1="1261.5" y2="1261.5"/><!--MD5=[63e92a92e730259d201bb8566c78f275]
class utils.Direction--><rect fill="#FEFECE" filter="url(#f1ntpylr2xzauk)" height="48" id="utils.Direction" style="stroke: #A80036; stroke-width: 1.5;" width="81" x="160.5" y="982"/><ellipse cx="175.5" cy="998" fill="#ADD1B2" rx="11" ry="11" style="stroke: #A80036; stroke-width: 1.0;"/><path d="M178.2656,993.875 Q178.4219,993.6563 178.6094,993.5469 Q178.7969,993.4375 179.0156,993.4375 Q179.3906,993.4375 179.625,993.7031 Q179.8594,993.9531 179.8594,994.5625 L179.8594,996.0156 Q179.8594,996.625 179.625,996.8906 Q179.3906,997.1563 179.0156,997.1563 Q178.6719,997.1563 178.4688,996.9531 Q178.2656,996.7656 178.1563,996.25 Q178.1094,995.8906 177.9219,995.7031 Q177.5938,995.3281 176.9844,995.1094 Q176.375,994.8906 175.75,994.8906 Q174.9844,994.8906 174.3438,995.2188 Q173.7188,995.5469 173.2188,996.2969 Q172.7344,997.0469 172.7344,998.0781 L172.7344,999.1719 Q172.7344,1000.4063 173.625,1001.2344 Q174.5156,1002.0469 176.1094,1002.0469 Q177.0469,1002.0469 177.7031,1001.7969 Q178.0938,1001.6406 178.5156,1001.2031 Q178.7813,1000.9375 178.9219,1000.8594 Q179.0781,1000.7813 179.2813,1000.7813 Q179.6094,1000.7813 179.8594,1001.0469 Q180.125,1001.2969 180.125,1001.6406 Q180.125,1001.9844 179.7813,1002.3906 Q179.2813,1002.9688 178.4844,1003.2969 Q177.4063,1003.75 176.1094,1003.75 Q174.5938,1003.75 173.3906,1003.125 Q172.4063,1002.625 171.7188,1001.5625 Q171.0313,1000.4844 171.0313,999.2031 L171.0313,998.0469 Q171.0313,996.7188 171.6406,995.5781 Q172.2656,994.4219 173.3594,993.8125 Q174.4531,993.1875 175.6875,993.1875 Q176.4219,993.1875 177.0625,993.3594 Q177.7188,993.5156 178.2656,993.875 Z "/><text fill="#000000" font-family="sans-serif" font-size="12" lengthAdjust="spacingAndGlyphs" textLength="49" x="189.5" y="1002.9102">Direction</text><line style="stroke: #A80036; stroke-width: 1.5;" x1="161.5" x2="240.5" y1="1014" y2="1014"/><line style="stroke: #A80036; stroke-width: 1.5;" x1="161.5" x2="240.5" y1="1022" y2="1022"/><!--MD5=[4517a9099db328c27576a0137eb33da6]
class utils.Coordinate--><rect fill="#FEFECE" filter="url(#f1ntpylr2xzauk)" height="48" id="utils.Coordinate" style="stroke: #A80036; stroke-width: 1.5;" width="93" x="32.5" y="982"/><ellipse cx="47.5" cy="998" fill="#ADD1B2" rx="11" ry="11" style="stroke: #A80036; stroke-width: 1.0;"/><path d="M50.2656,993.875 Q50.4219,993.6563 50.6094,993.5469 Q50.7969,993.4375 51.0156,993.4375 Q51.3906,993.4375 51.625,993.7031 Q51.8594,993.9531 51.8594,994.5625 L51.8594,996.0156 Q51.8594,996.625 51.625,996.8906 Q51.3906,997.1563 51.0156,997.1563 Q50.6719,997.1563 50.4688,996.9531 Q50.2656,996.7656 50.1563,996.25 Q50.1094,995.8906 49.9219,995.7031 Q49.5938,995.3281 48.9844,995.1094 Q48.375,994.8906 47.75,994.8906 Q46.9844,994.8906 46.3438,995.2188 Q45.7188,995.5469 45.2188,996.2969 Q44.7344,997.0469 44.7344,998.0781 L44.7344,999.1719 Q44.7344,1000.4063 45.625,1001.2344 Q46.5156,1002.0469 48.1094,1002.0469 Q49.0469,1002.0469 49.7031,1001.7969 Q50.0938,1001.6406 50.5156,1001.2031 Q50.7813,1000.9375 50.9219,1000.8594 Q51.0781,1000.7813 51.2813,1000.7813 Q51.6094,1000.7813 51.8594,1001.0469 Q52.125,1001.2969 52.125,1001.6406 Q52.125,1001.9844 51.7813,1002.3906 Q51.2813,1002.9688 50.4844,1003.2969 Q49.4063,1003.75 48.1094,1003.75 Q46.5938,1003.75 45.3906,1003.125 Q44.4063,1002.625 43.7188,1001.5625 Q43.0313,1000.4844 43.0313,999.2031 L43.0313,998.0469 Q43.0313,996.7188 43.6406,995.5781 Q44.2656,994.4219 45.3594,993.8125 Q46.4531,993.1875 47.6875,993.1875 Q48.4219,993.1875 49.0625,993.3594 Q49.7188,993.5156 50.2656,993.875 Z "/><text fill="#000000" font-family="sans-serif" font-size="12" lengthAdjust="spacingAndGlyphs" textLength="61" x="61.5" y="1002.9102">Coordinate</text><line style="stroke: #A80036; stroke-width: 1.5;" x1="33.5" x2="124.5" y1="1014" y2="1014"/><line style="stroke: #A80036; stroke-width: 1.5;" x1="33.5" x2="124.5" y1="1022" y2="1022"/><!--MD5=[6c70c0f5d22b0d421fe766e144384ba2]
class java.util.Random--><rect fill="#FEFECE" filter="url(#f1ntpylr2xzauk)" height="48" id="java.util.Random" style="stroke: #A80036; stroke-width: 1.5;" width="80" x="354" y="1401"/><ellipse cx="369" cy="1417" fill="#ADD1B2" rx="11" ry="11" style="stroke: #A80036; stroke-width: 1.0;"/><path d="M371.7656,1412.875 Q371.9219,1412.6563 372.1094,1412.5469 Q372.2969,1412.4375 372.5156,1412.4375 Q372.8906,1412.4375 373.125,1412.7031 Q373.3594,1412.9531 373.3594,1413.5625 L373.3594,1415.0156 Q373.3594,1415.625 373.125,1415.8906 Q372.8906,1416.1563 372.5156,1416.1563 Q372.1719,1416.1563 371.9688,1415.9531 Q371.7656,1415.7656 371.6563,1415.25 Q371.6094,1414.8906 371.4219,1414.7031 Q371.0938,1414.3281 370.4844,1414.1094 Q369.875,1413.8906 369.25,1413.8906 Q368.4844,1413.8906 367.8438,1414.2188 Q367.2188,1414.5469 366.7188,1415.2969 Q366.2344,1416.0469 366.2344,1417.0781 L366.2344,1418.1719 Q366.2344,1419.4063 367.125,1420.2344 Q368.0156,1421.0469 369.6094,1421.0469 Q370.5469,1421.0469 371.2031,1420.7969 Q371.5938,1420.6406 372.0156,1420.2031 Q372.2813,1419.9375 372.4219,1419.8594 Q372.5781,1419.7813 372.7813,1419.7813 Q373.1094,1419.7813 373.3594,1420.0469 Q373.625,1420.2969 373.625,1420.6406 Q373.625,1420.9844 373.2813,1421.3906 Q372.7813,1421.9688 371.9844,1422.2969 Q370.9063,1422.75 369.6094,1422.75 Q368.0938,1422.75 366.8906,1422.125 Q365.9063,1421.625 365.2188,1420.5625 Q364.5313,1419.4844 364.5313,1418.2031 L364.5313,1417.0469 Q364.5313,1415.7188 365.1406,1414.5781 Q365.7656,1413.4219 366.8594,1412.8125 Q367.9531,1412.1875 369.1875,1412.1875 Q369.9219,1412.1875 370.5625,1412.3594 Q371.2188,1412.5156 371.7656,1412.875 Z "/><text fill="#000000" font-family="sans-serif" font-size="12" lengthAdjust="spacingAndGlyphs" textLength="48" x="383" y="1421.9102">Random</text><line style="stroke: #A80036; stroke-width: 1.5;" x1="355" x2="433" y1="1433" y2="1433"/><line style="stroke: #A80036; stroke-width: 1.5;" x1="355" x2="433" y1="1441" y2="1441"/><!--MD5=[9415c0c61774263745e2cedb44e639c6]
link tictactoe.models.Board to tictactoe.models.Coordinate--><path d="M384.6177,638.2397 C384.6177,638.2397 286.099,946.987 324,1106 C327.795,1121.923 333.732,1138.09 340.58,1153.487 " fill="none" id="tictactoe.models.Board-tictactoe.models.Coordinate" style="stroke: #A80036; stroke-width: 1.0;"/><polygon fill="#A80036" points="346.244,1165.651,346.0711,1155.8037,344.1334,1161.1183,338.8188,1159.1806,346.244,1165.651" style="stroke: #A80036; stroke-width: 1.0;"/><line style="stroke: #A80036; stroke-width: 1.0;" x1="344.1334" x2="340.7565" y1="1161.1183" y2="1153.8655"/><polygon fill="#A80036" points="388.973,627.058,383.0681,631.1971,384.6177,638.2397,390.5226,634.1006,388.973,627.058" style="stroke: #A80036; stroke-width: 1.0;"/><!--MD5=[aaca2839b049c91838372e0d045bc145]
link tictactoe.models.Board to tictactoe.types.Token--><path d="M594.496,627.172 C611.876,646.112 628.275,666.272 642,687 C673.373,734.382 806.821,1110.422 844.221,1216.644 " fill="none" id="tictactoe.models.Board-&gt;tictactoe.types.Token" style="stroke: #A80036; stroke-width: 1.0; stroke-dasharray: 7.0,7.0;"/><polygon fill="#A80036" points="845.929,1221.496,846.7137,1211.6784,844.2688,1216.7797,839.1676,1214.3348,845.929,1221.496" style="stroke: #A80036; stroke-width: 1.0;"/><!--MD5=[f07f4b28b1c2eb27f6b3ca96953c68ab]
link tictactoe.models.Board to tictactoe.models.Turn--><path d="M498.306,627.307 C505.807,645.919 513.366,664.673 520.391,682.105 " fill="none" id="tictactoe.models.Board-&gt;tictactoe.models.Turn" style="stroke: #A80036; stroke-width: 1.0; stroke-dasharray: 7.0,7.0;"/><polygon fill="#A80036" points="522.357,686.985,522.7033,677.1422,520.4882,682.3474,515.2831,680.1323,522.357,686.985" style="stroke: #A80036; stroke-width: 1.0;"/><!--MD5=[1183b1fe88256d6abfae59cdbc015bea]
link tictactoe.models.Board to utils.Direction--><path d="M334.707,627.093 C320.788,646.379 307.712,666.653 297,687 C244.451,786.811 216.16,919.74 205.735,976.913 " fill="none" id="tictactoe.models.Board-&gt;utils.Direction" style="stroke: #A80036; stroke-width: 1.0; stroke-dasharray: 7.0,7.0;"/><polygon fill="#A80036" points="204.84,981.88,210.3732,973.7324,205.727,976.9593,202.5001,972.3131,204.84,981.88" style="stroke: #A80036; stroke-width: 1.0;"/><!--MD5=[d279b4500bca5abba91dd5faa9f398fd]
reverse link utils.Coordinate to tictactoe.models.Coordinate--><path d="M99.2444,1047.752 C110.269,1067.07 125.285,1089.478 143,1106 C188.041,1148.008 248.189,1181.767 298.313,1205.435 " fill="none" id="utils.Coordinate&lt;-tictactoe.models.Coordinate" style="stroke: #A80036; stroke-width: 1.0;"/><polygon fill="none" points="93.0771,1051.063,89.7685,1030.133,105.407,1044.431,93.0771,1051.063" style="stroke: #A80036; stroke-width: 1.0;"/><!--MD5=[997516208723a80710191e814da7328e]
link tictactoe.models.Coordinate to utils.Direction--><path d="M330.15,1165.928 C293.28,1120.557 249.202,1066.316 223.242,1034.37 " fill="none" id="tictactoe.models.Coordinate-&gt;utils.Direction" style="stroke: #A80036; stroke-width: 1.0; stroke-dasharray: 7.0,7.0;"/><polygon fill="#A80036" points="219.857,1030.205,222.4284,1039.7123,223.0102,1034.0854,228.637,1034.6672,219.857,1030.205" style="stroke: #A80036; stroke-width: 1.0;"/><!--MD5=[02a5e0cbda321227fb745cf81ac775a1]
link tictactoe.models.Coordinate to java.util.Random--><path d="M394,1325.129 C394,1350.219 394,1376.401 394,1395.5154 " fill="none" id="tictactoe.models.Coordinate-&gt;java.util.Random" style="stroke: #A80036; stroke-width: 1.0; stroke-dasharray: 7.0,7.0;"/><polygon fill="#A80036" points="394,1400.7123,398,1391.7123,394,1395.7123,390,1391.7123,394,1400.7123" style="stroke: #A80036; stroke-width: 1.0;"/><!--MD5=[b634369fa6e65a8dead148f8efc150f7]
link tictactoe.models.Game to tictactoe.models.Board--><path d="M474.2988,322.9551 C474.2988,322.9551 470.618,346.61 468.878,357.76 " fill="none" id="tictactoe.models.Game-tictactoe.models.Board" style="stroke: #A80036; stroke-width: 1.0;"/><polygon fill="#A80036" points="466.847,370.78,472.1931,362.5084,467.6216,365.8404,464.2897,361.269,466.847,370.78" style="stroke: #A80036; stroke-width: 1.0;"/><line style="stroke: #A80036; stroke-width: 1.0;" x1="467.6216" x2="468.8515" y1="365.8404" y2="357.935"/><polygon fill="#A80036" points="476.158,311.1,471.2767,316.4078,474.2988,322.9551,479.1801,317.6473,476.158,311.1" style="stroke: #A80036; stroke-width: 1.0;"/><!--MD5=[1dc2bc8b0c5aa09eb02df64674797f09]
link tictactoe.models.Game to tictactoe.models.Player--><path d="M611.1785,321.6071 C611.1785,321.6071 627.534,354.54 633,371 C699.531,571.393 715.155,647.929 642,846 C635.721,863 626.724,879.413 616.308,894.822 " fill="none" id="tictactoe.models.Game-tictactoe.models.Player" style="stroke: #A80036; stroke-width: 1.0;"/><polygon fill="#A80036" points="608.49,905.858,616.9562,900.8258,611.3801,901.7779,610.428,896.2017,608.49,905.858" style="stroke: #A80036; stroke-width: 1.0;"/><line style="stroke: #A80036; stroke-width: 1.0;" x1="611.3801" x2="616.004" y1="901.7779" y2="895.25"/><polygon fill="#A80036" points="605.31,311.14,604.7552,318.3297,611.1785,321.6071,611.7333,314.4174,605.31,311.14" style="stroke: #A80036; stroke-width: 1.0;"/><!--MD5=[aa5c2eaa34da3707c874f29e1edc60f9]
link tictactoe.models.Game to tictactoe.models.Turn--><path d="M594.6327,322.0816 C594.6327,322.0816 608.546,354.91 613,371 C643.35,480.66 635.755,515.521 613,627 C609.783,642.761 604.702,658.949 598.841,674.447 " fill="none" id="tictactoe.models.Game-tictactoe.models.Turn" style="stroke: #A80036; stroke-width: 1.0;"/><polygon fill="#A80036" points="593.993,686.708,601.0229,679.8101,595.832,682.0585,593.5837,676.8677,593.993,686.708" style="stroke: #A80036; stroke-width: 1.0;"/><line style="stroke: #A80036; stroke-width: 1.0;" x1="595.832" x2="598.773" y1="682.0585" y2="674.6185"/><polygon fill="#A80036" points="589.426,311.27,588.4255,318.4114,594.6327,322.0816,595.6332,314.9402,589.426,311.27" style="stroke: #A80036; stroke-width: 1.0;"/><!--MD5=[2d593b7d40fdf862a21f21908246be98]
link tictactoe.models.Game to tictactoe.types.Token--><path d="M632.137,311.15 C646.79,330.2 660.254,350.36 671,371 C828.786,674.027 850.526,1103.08 853.521,1216.248 " fill="none" id="tictactoe.models.Game-&gt;tictactoe.types.Token" style="stroke: #A80036; stroke-width: 1.0; stroke-dasharray: 7.0,7.0;"/><polygon fill="#A80036" points="853.65,1221.397,857.4225,1212.2993,853.5243,1216.3986,849.425,1212.5004,853.65,1221.397" style="stroke: #A80036; stroke-width: 1.0;"/><!--MD5=[b2478b45add4fa02c6eb045c3639ccdd]
link tictactoe.models.Game to tictactoe.types.PlayerType--><path d="M670.227,287.48 C698.84,312.04 725.731,340.1 746,371 C935.658,660.134 963.306,1101.012 967.321,1216.184 " fill="none" id="tictactoe.models.Game-&gt;tictactoe.types.PlayerType" style="stroke: #A80036; stroke-width: 1.0; stroke-dasharray: 7.0,7.0;"/><polygon fill="#A80036" points="967.495,1221.42,971.1945,1212.2924,967.3293,1216.4227,963.1989,1212.5575,967.495,1221.42" style="stroke: #A80036; stroke-width: 1.0;"/><!--MD5=[6788aa5eae5478765374437bd4c2e87f]
link tictactoe.models.Player to tictactoe.types.Token--><path d="M680.7631,1081.7931 C680.7631,1081.7931 767.592,1133.469 803,1166 C816.37,1178.284 827.784,1194.797 836.402,1209.508 " fill="none" id="tictactoe.models.Player-tictactoe.types.Token" style="stroke: #A80036; stroke-width: 1.0;"/><polygon fill="#A80036" points="842.965,1221.309,842.0864,1211.4994,840.5348,1216.9393,835.0949,1215.3877,842.965,1221.309" style="stroke: #A80036; stroke-width: 1.0;"/><line style="stroke: #A80036; stroke-width: 1.0;" x1="840.5348" x2="836.6465" y1="1216.9393" y2="1209.9475"/><polygon fill="#A80036" points="670.177,1076.142,673.5863,1082.4962,680.7631,1081.7931,677.3537,1075.4389,670.177,1076.142" style="stroke: #A80036; stroke-width: 1.0;"/><!--MD5=[4d61797189bd4e3921b05d5b1c2f3641]
link tictactoe.models.Player to tictactoe.models.Board--><path d="M474.447,894.2967 C474.447,894.2967 467.346,861.3 465,846 C454.7,778.836 449.985,703.574 447.932,640.439 " fill="none" id="tictactoe.models.Player-tictactoe.models.Board" style="stroke: #A80036; stroke-width: 1.0;"/><polygon fill="#A80036" points="447.533,627.159,443.8048,636.2749,447.683,632.1567,451.8012,636.035,447.533,627.159" style="stroke: #A80036; stroke-width: 1.0;"/><line style="stroke: #A80036; stroke-width: 1.0;" x1="447.683" x2="447.924" y1="632.1567" y2="640.1525"/><polygon fill="#A80036" points="477.207,905.975,479.7198,899.2159,474.447,894.2967,471.9342,901.0559,477.207,905.975" style="stroke: #A80036; stroke-width: 1.0;"/><!--MD5=[598ddb29be518176f0bd2caafd2edab8]
link tictactoe.models.Player to tictactoe.types.PlayerType--><path d="M681.4511,1055.0459 C681.4511,1055.0459 838.977,1117.165 905,1166 C921.121,1177.924 935.448,1194.931 946.35,1210.068 " fill="none" id="tictactoe.models.Player-tictactoe.types.PlayerType" style="stroke: #A80036; stroke-width: 1.0;"/><polygon fill="#A80036" points="953.992,1221.164,952.1808,1211.4831,951.1557,1217.0463,945.5925,1216.0212,953.992,1221.164" style="stroke: #A80036; stroke-width: 1.0;"/><line style="stroke: #A80036; stroke-width: 1.0;" x1="951.1557" x2="946.618" y1="1217.0463" y2="1210.457"/><polygon fill="#A80036" points="670.096,1051.165,674.4799,1056.8905,681.4511,1055.0459,677.0672,1049.3204,670.096,1051.165" style="stroke: #A80036; stroke-width: 1.0;"/><!--MD5=[8c8274b143d2ce23d56b10c65f754674]
link tictactoe.models.Player to tictactoe.models.Coordinate--><path d="M459.313,1106.002 C450.699,1124.267 441.783,1143.174 433.411,1160.928 " fill="none" id="tictactoe.models.Player-&gt;tictactoe.models.Coordinate" style="stroke: #A80036; stroke-width: 1.0; stroke-dasharray: 7.0,7.0;"/><polygon fill="#A80036" points="431.064,1165.904,438.5206,1159.4698,433.1966,1161.3816,431.2848,1156.0576,431.064,1165.904" style="stroke: #A80036; stroke-width: 1.0;"/><!--MD5=[11b8581993dcdd535fc279569dea0342]
link tictactoe.models.Player to tictactoe.types.Error--><path d="M622.611,1106.373 C644.109,1125.707 666.052,1146.145 686,1166 C702.465,1182.388 719.852,1201.874 733.179,1217.332 " fill="none" id="tictactoe.models.Player-&gt;tictactoe.types.Error" style="stroke: #A80036; stroke-width: 1.0; stroke-dasharray: 7.0,7.0;"/><polygon fill="#A80036" points="736.477,1221.171,733.6481,1211.7372,733.2195,1217.3777,727.5789,1216.9491,736.477,1221.171" style="stroke: #A80036; stroke-width: 1.0;"/><!--MD5=[445ca9be6ac7acaf2fbd96fa00e05ee8]
link tictactoe.models.Turn to tictactoe.models.Player--><path d="M535.7055,858.0161 C535.7055,858.0161 530.951,881.545 528.697,892.697 " fill="none" id="tictactoe.models.Turn-tictactoe.models.Player" style="stroke: #A80036; stroke-width: 1.0;"/><polygon fill="#A80036" points="526.063,905.731,531.7668,897.7019,527.0536,900.8301,523.9254,896.1169,526.063,905.731" style="stroke: #A80036; stroke-width: 1.0;"/><line style="stroke: #A80036; stroke-width: 1.0;" x1="527.0536" x2="528.638" y1="900.8301" y2="892.9885"/><polygon fill="#A80036" points="538.083,846.254,532.9736,851.3426,535.7055,858.0161,540.815,852.9276,538.083,846.254" style="stroke: #A80036; stroke-width: 1.0;"/><!--MD5=[ac3507e2bfc2e98319ef3ddce64da995]
@startuml

class  tictactoe.models.Board{
+ {static} EMPTY: char
- coordinates: Coordinate[][]
+ Board()
+ getToken(Coordinate): Token
~ move(Coordinate, Coordinate): void
~ put(Coordinate, Token): void
- remove(Coordinate): void
~ isTicTacToe(Token): boolean
- numberOfCoordinates(Coordinate[]): int
~ isCompleted(): boolean
+ isEmpty(Coordinate): boolean
~ isOccupied(Coordinate, Token): boolean
- checkNumberOfCoordinates(Coordinate[]): boolean
- checkDirectionOfFirstCoordinates(Coordinate[]): boolean
- checkDirectionOfAllCoordinates(Coordinate[]): boolean
}
tictactoe.models.Board *-down-> tictactoe.models.Coordinate
tictactoe.models.Board ..> tictactoe.types.Token
tictactoe.models.Board ..> tictactoe.models.Turn
tictactoe.models.Board ..> utils.Direction

class  tictactoe.models.Coordinate{
+ {static} DIMENSION: char
+ Coordinate()
+ Coordinate(int, int)
~ inDirection(Coordinate): boolean
~ getDirection(Coordinate): Direction
- inInverseDiagonal(): boolean
+ isValid(): boolean
+ random(): void
}
utils.Coordinate <|-down- tictactoe.models.Coordinate
tictactoe.models.Coordinate ..> utils.Direction
tictactoe.models.Coordinate ..> java.util.Random

class  tictactoe.models.Game{
- board: Board
- players: Player[][]
- turn: Turn
+ Game()
+ createPlayers(int): void
+ isBoardComplete(): boolean
+ putTokenPlayerFromTurn(Coordinate): void
+ moveTokenPlayerFromTurn(Coordinate[]): void
+ getTypeOfTokenPlayerFromTurn(): PlayerType
+ controlErrorsPutCoordinate(Coordinate): Error
+ controlErrorsMoveOriginCoordinate(Coordinate): Error
+ controlErrorsMoveTargetCoordinate(Coordinate, Coordinate): Error
+ getToken(int, int): Token
+ changeTurn(): void
+ isTicTacToe(): boolean
+ getOtherValueFromTurn(): int
}
tictactoe.models.Game *-down-> tictactoe.models.Board
tictactoe.models.Game *-down-> tictactoe.models.Player
tictactoe.models.Game *-down-> tictactoe.models.Turn
tictactoe.models.Game ..> tictactoe.types.Token
tictactoe.models.Game ..> tictactoe.types.PlayerType

class  tictactoe.models.Player{
- token: Token
- board: Board
- type: PlayerType
+ Player(Token, Board, PlayerType)
+ getType(): PlayerType
~ getToken(): Token
~ put(Coordinate): void
~ move(Coordinate[]): void
+ getErrorsPutCoordinate(Coordinate): Error
+ getErrorsMoveOriginCoordinate(Coordinate): Error
+ getErrorsMoveTargetCoordinate(Coordinate, Coordinate): Error
}
tictactoe.models.Player *-down-> tictactoe.types.Token
tictactoe.models.Player *-down-> tictactoe.models.Board
tictactoe.models.Player *-down-> tictactoe.types.PlayerType
tictactoe.models.Player ..> tictactoe.models.Coordinate
tictactoe.models.Player ..> tictactoe.types.Error

class  tictactoe.models.Turn{
+ {static} NUM_PLAYERS: int
- value: int
- players: Player[]
+ Turn(Player[])
~ change(): void
~ getPlayer(): Player
~ getOtherValue(): int
~ getOtherPlayer(): Player
}
tictactoe.models.Turn *-down-> tictactoe.models.Player

@enduml

PlantUML version 1.2020.15(Sun Jun 28 13:39:45 CEST 2020)
(GPL source distribution)
Java Runtime: Java(TM) SE Runtime Environment
JVM: Java HotSpot(TM) 64-Bit Server VM
Default Encoding: windows-1252
Language: es
Country: ES
--></g></svg>