<?xml version="1.0" encoding="UTF-8" standalone="no"?><svg xmlns="http://www.w3.org/2000/svg" xmlns:xlink="http://www.w3.org/1999/xlink" contentScriptType="application/ecmascript" contentStyleType="text/css" height="639px" preserveAspectRatio="none" style="width:1029px;height:639px;" version="1.1" viewBox="0 0 1029 639" width="1029px" zoomAndPan="magnify"><defs><filter height="300%" id="f1xhvnh7uinmrj" width="300%" x="-1" y="-1"><feGaussianBlur result="blurOut" stdDeviation="2.0"/><feColorMatrix in="blurOut" result="blurOut2" type="matrix" values="0 0 0 0 0 0 0 0 0 0 0 0 0 0 0 0 0 0 .4 0"/><feOffset dx="4.0" dy="4.0" in="blurOut2" result="blurOut3"/><feBlend in="SourceGraphic" in2="blurOut3" mode="normal"/></filter></defs><g><!--MD5=[64182ab34c08ac367bbf699869515711]
cluster tictactoe.views.console--><polygon fill="#FFFFFF" filter="url(#f1xhvnh7uinmrj)" points="49.732,130,221.732,130,228.732,153.6094,815.732,153.6094,815.732,627,49.732,627,49.732,130" style="stroke: #000000; stroke-width: 1.5;"/><line style="stroke: #000000; stroke-width: 1.5;" x1="49.732" x2="228.732" y1="153.6094" y2="153.6094"/><text fill="#000000" font-family="sans-serif" font-size="14" font-weight="bold" lengthAdjust="spacingAndGlyphs" textLength="166" x="53.732" y="146.5332">tictactoe.views.console</text><!--MD5=[c52f45833d539af9e29a9d34b8b7302b]
cluster utils--><polygon fill="#FFFFFF" filter="url(#f1xhvnh7uinmrj)" points="839.732,178.5,875.732,178.5,882.732,202.1094,1007.732,202.1094,1007.732,278.5,839.732,278.5,839.732,178.5" style="stroke: #000000; stroke-width: 1.5;"/><line style="stroke: #000000; stroke-width: 1.5;" x1="839.732" x2="882.732" y1="202.1094" y2="202.1094"/><text fill="#000000" font-family="sans-serif" font-size="14" font-weight="bold" lengthAdjust="spacingAndGlyphs" textLength="30" x="843.732" y="195.0332">utils</text><!--MD5=[f4e83a21a957c5b9ba9691e6361db36b]
cluster tictactoe.views--><polygon fill="#FFFFFF" filter="url(#f1xhvnh7uinmrj)" points="217.732,6,329.732,6,336.732,29.6094,555.732,29.6094,555.732,106,217.732,106,217.732,6" style="stroke: #000000; stroke-width: 1.5;"/><line style="stroke: #000000; stroke-width: 1.5;" x1="217.732" x2="336.732" y1="29.6094" y2="29.6094"/><text fill="#000000" font-family="sans-serif" font-size="14" font-weight="bold" lengthAdjust="spacingAndGlyphs" textLength="106" x="221.732" y="22.5332">tictactoe.views</text><!--MD5=[270aad5bca7cd81b5a24665b2403b70b]
class tictactoe.views.console.BoardView--><rect fill="#FEFECE" filter="url(#f1xhvnh7uinmrj)" height="89.5078" id="tictactoe.views.console.BoardView" style="stroke: #A80036; stroke-width: 1.5;" width="118" x="288.732" y="521"/><ellipse cx="315.882" cy="537" fill="#ADD1B2" rx="11" ry="11" style="stroke: #A80036; stroke-width: 1.0;"/><path d="M318.6476,532.875 Q318.8039,532.6563 318.9914,532.5469 Q319.1789,532.4375 319.3976,532.4375 Q319.7726,532.4375 320.007,532.7031 Q320.2414,532.9531 320.2414,533.5625 L320.2414,535.0156 Q320.2414,535.625 320.007,535.8906 Q319.7726,536.1563 319.3976,536.1563 Q319.0539,536.1563 318.8507,535.9531 Q318.6476,535.7656 318.5382,535.25 Q318.4914,534.8906 318.3039,534.7031 Q317.9757,534.3281 317.3664,534.1094 Q316.757,533.8906 316.132,533.8906 Q315.3664,533.8906 314.7257,534.2188 Q314.1007,534.5469 313.6007,535.2969 Q313.1164,536.0469 313.1164,537.0781 L313.1164,538.1719 Q313.1164,539.4063 314.007,540.2344 Q314.8976,541.0469 316.4914,541.0469 Q317.4289,541.0469 318.0851,540.7969 Q318.4757,540.6406 318.8976,540.2031 Q319.1632,539.9375 319.3039,539.8594 Q319.4601,539.7813 319.6632,539.7813 Q319.9914,539.7813 320.2414,540.0469 Q320.507,540.2969 320.507,540.6406 Q320.507,540.9844 320.1632,541.3906 Q319.6632,541.9688 318.8664,542.2969 Q317.7882,542.75 316.4914,542.75 Q314.9757,542.75 313.7726,542.125 Q312.7882,541.625 312.1007,540.5625 Q311.4132,539.4844 311.4132,538.2031 L311.4132,537.0469 Q311.4132,535.7188 312.0226,534.5781 Q312.6476,533.4219 313.7414,532.8125 Q314.8351,532.1875 316.0695,532.1875 Q316.8039,532.1875 317.4445,532.3594 Q318.1007,532.5156 318.6476,532.875 Z "/><text fill="#000000" font-family="sans-serif" font-size="12" lengthAdjust="spacingAndGlyphs" textLength="59" x="332.582" y="541.9102">BoardView</text><line style="stroke: #A80036; stroke-width: 1.5;" x1="289.732" x2="405.732" y1="553" y2="553"/><polygon fill="none" points="299.732,560,295.732,566,303.732,566" style="stroke: #1963A0; stroke-width: 1.0;"/><text fill="#000000" font-family="sans-serif" font-size="11" lengthAdjust="spacingAndGlyphs" textLength="63" x="308.732" y="568.4189">board: Board</text><line style="stroke: #A80036; stroke-width: 1.5;" x1="289.732" x2="405.732" y1="574.8359" y2="574.8359"/><polygon fill="#4177AF" points="299.732,581.8359,295.732,587.8359,303.732,587.8359" style="stroke: #1963A0; stroke-width: 1.0;"/><text fill="#000000" font-family="sans-serif" font-size="11" lengthAdjust="spacingAndGlyphs" textLength="92" x="308.732" y="590.2549">BoardView(Board)</text><polygon fill="#4177AF" points="299.732,595.6719,295.732,601.6719,303.732,601.6719" style="stroke: #1963A0; stroke-width: 1.0;"/><text fill="#000000" font-family="sans-serif" font-size="11" lengthAdjust="spacingAndGlyphs" textLength="59" x="308.732" y="604.0908">write(): void</text><!--MD5=[0e5b47c419ba94b2bd3b06fa97d12493]
class tictactoe.views.console.ChoosePlayerView--><rect fill="#FEFECE" filter="url(#f1xhvnh7uinmrj)" height="61.8359" id="tictactoe.views.console.ChoosePlayerView" style="stroke: #A80036; stroke-width: 1.5;" width="136" x="509.732" y="535"/><ellipse cx="524.732" cy="551" fill="#ADD1B2" rx="11" ry="11" style="stroke: #A80036; stroke-width: 1.0;"/><path d="M527.4976,546.875 Q527.6539,546.6563 527.8414,546.5469 Q528.0289,546.4375 528.2476,546.4375 Q528.6226,546.4375 528.857,546.7031 Q529.0914,546.9531 529.0914,547.5625 L529.0914,549.0156 Q529.0914,549.625 528.857,549.8906 Q528.6226,550.1563 528.2476,550.1563 Q527.9039,550.1563 527.7008,549.9531 Q527.4976,549.7656 527.3883,549.25 Q527.3414,548.8906 527.1539,548.7031 Q526.8258,548.3281 526.2164,548.1094 Q525.607,547.8906 524.982,547.8906 Q524.2164,547.8906 523.5758,548.2188 Q522.9508,548.5469 522.4508,549.2969 Q521.9664,550.0469 521.9664,551.0781 L521.9664,552.1719 Q521.9664,553.4063 522.857,554.2344 Q523.7476,555.0469 525.3414,555.0469 Q526.2789,555.0469 526.9351,554.7969 Q527.3258,554.6406 527.7476,554.2031 Q528.0133,553.9375 528.1539,553.8594 Q528.3101,553.7813 528.5133,553.7813 Q528.8414,553.7813 529.0914,554.0469 Q529.357,554.2969 529.357,554.6406 Q529.357,554.9844 529.0133,555.3906 Q528.5133,555.9688 527.7164,556.2969 Q526.6383,556.75 525.3414,556.75 Q523.8258,556.75 522.6226,556.125 Q521.6383,555.625 520.9508,554.5625 Q520.2633,553.4844 520.2633,552.2031 L520.2633,551.0469 Q520.2633,549.7188 520.8726,548.5781 Q521.4976,547.4219 522.5914,546.8125 Q523.6851,546.1875 524.9195,546.1875 Q525.6539,546.1875 526.2945,546.3594 Q526.9508,546.5156 527.4976,546.875 Z "/><text fill="#000000" font-family="sans-serif" font-size="12" lengthAdjust="spacingAndGlyphs" textLength="104" x="538.732" y="555.9102">ChoosePlayerView</text><line style="stroke: #A80036; stroke-width: 1.5;" x1="510.732" x2="644.732" y1="567" y2="567"/><line style="stroke: #A80036; stroke-width: 1.5;" x1="510.732" x2="644.732" y1="575" y2="575"/><polygon fill="#4177AF" points="520.732,582,516.732,588,524.732,588" style="stroke: #1963A0; stroke-width: 1.0;"/><text fill="#000000" font-family="sans-serif" font-size="11" lengthAdjust="spacingAndGlyphs" textLength="92" x="529.732" y="590.4189">readPlayers(): void</text><!--MD5=[bde0c8ed193d8d2dbac1dee471354ab0]
class tictactoe.views.console.ConsoleView--><rect fill="#FEFECE" filter="url(#f1xhvnh7uinmrj)" height="144.8516" id="tictactoe.views.console.ConsoleView" style="stroke: #A80036; stroke-width: 1.5;" width="141" x="88.232" y="166"/><ellipse cx="119.432" cy="182" fill="#ADD1B2" rx="11" ry="11" style="stroke: #A80036; stroke-width: 1.0;"/><path d="M122.1976,177.875 Q122.3539,177.6563 122.5414,177.5469 Q122.7289,177.4375 122.9476,177.4375 Q123.3226,177.4375 123.557,177.7031 Q123.7914,177.9531 123.7914,178.5625 L123.7914,180.0156 Q123.7914,180.625 123.557,180.8906 Q123.3226,181.1563 122.9476,181.1563 Q122.6039,181.1563 122.4008,180.9531 Q122.1976,180.7656 122.0883,180.25 Q122.0414,179.8906 121.8539,179.7031 Q121.5258,179.3281 120.9164,179.1094 Q120.307,178.8906 119.682,178.8906 Q118.9164,178.8906 118.2758,179.2188 Q117.6508,179.5469 117.1508,180.2969 Q116.6664,181.0469 116.6664,182.0781 L116.6664,183.1719 Q116.6664,184.4063 117.557,185.2344 Q118.4476,186.0469 120.0414,186.0469 Q120.9789,186.0469 121.6351,185.7969 Q122.0258,185.6406 122.4476,185.2031 Q122.7133,184.9375 122.8539,184.8594 Q123.0101,184.7813 123.2133,184.7813 Q123.5414,184.7813 123.7914,185.0469 Q124.057,185.2969 124.057,185.6406 Q124.057,185.9844 123.7133,186.3906 Q123.2133,186.9688 122.4164,187.2969 Q121.3383,187.75 120.0414,187.75 Q118.5258,187.75 117.3226,187.125 Q116.3383,186.625 115.6508,185.5625 Q114.9633,184.4844 114.9633,183.2031 L114.9633,182.0469 Q114.9633,180.7188 115.5726,179.5781 Q116.1976,178.4219 117.2914,177.8125 Q118.3851,177.1875 119.6195,177.1875 Q120.3539,177.1875 120.9945,177.3594 Q121.6508,177.5156 122.1976,177.875 Z "/><text fill="#000000" font-family="sans-serif" font-size="12" lengthAdjust="spacingAndGlyphs" textLength="73" x="137.032" y="186.9102">ConsoleView</text><line style="stroke: #A80036; stroke-width: 1.5;" x1="89.232" x2="228.232" y1="198" y2="198"/><rect fill="none" height="6" style="stroke: #C82930; stroke-width: 1.0;" width="6" x="96.232" y="206"/><text fill="#000000" font-family="sans-serif" font-size="11" lengthAdjust="spacingAndGlyphs" textLength="103" x="108.232" y="213.4189">startView: StartView</text><rect fill="none" height="6" style="stroke: #C82930; stroke-width: 1.0;" width="6" x="96.232" y="219.8359"/><text fill="#000000" font-family="sans-serif" font-size="11" lengthAdjust="spacingAndGlyphs" textLength="98" x="108.232" y="227.2549">playView: PlayView</text><rect fill="none" height="6" style="stroke: #C82930; stroke-width: 1.0;" width="6" x="96.232" y="233.6719"/><text fill="#000000" font-family="sans-serif" font-size="11" lengthAdjust="spacingAndGlyphs" textLength="115" x="108.232" y="241.0908">resultView: ResultView</text><line style="stroke: #A80036; stroke-width: 1.5;" x1="89.232" x2="228.232" y1="247.5078" y2="247.5078"/><ellipse cx="99.232" cy="258.5078" fill="#84BE84" rx="3" ry="3" style="stroke: #038048; stroke-width: 1.0;"/><text fill="#000000" font-family="sans-serif" font-size="11" lengthAdjust="spacingAndGlyphs" textLength="101" x="108.232" y="262.9268">ConsoleView(Game)</text><polygon fill="#FFFF44" points="99.232,267.3438,103.232,271.3438,99.232,275.3438,95.232,271.3438" style="stroke: #B38D22; stroke-width: 1.0;"/><text fill="#000000" font-family="sans-serif" font-size="11" lengthAdjust="spacingAndGlyphs" textLength="56" x="108.232" y="276.7627">start(): void</text><polygon fill="#FFFF44" points="99.232,281.1797,103.232,285.1797,99.232,289.1797,95.232,285.1797" style="stroke: #B38D22; stroke-width: 1.0;"/><text fill="#000000" font-family="sans-serif" font-size="11" lengthAdjust="spacingAndGlyphs" textLength="72" x="108.232" y="290.5986">play(): boolean</text><polygon fill="#FFFF44" points="99.232,295.0156,103.232,299.0156,99.232,303.0156,95.232,299.0156" style="stroke: #B38D22; stroke-width: 1.0;"/><text fill="#000000" font-family="sans-serif" font-size="11" lengthAdjust="spacingAndGlyphs" textLength="61" x="108.232" y="304.4346">result(): void</text><!--MD5=[54aa299435631381f3c0c028f26a058f]
class tictactoe.views.console.StartView--><rect fill="#FEFECE" filter="url(#f1xhvnh7uinmrj)" height="89.5078" id="tictactoe.views.console.StartView" style="stroke: #A80036; stroke-width: 1.5;" width="111" x="368.232" y="371"/><ellipse cx="395.832" cy="387" fill="#ADD1B2" rx="11" ry="11" style="stroke: #A80036; stroke-width: 1.0;"/><path d="M398.5976,382.875 Q398.7539,382.6563 398.9414,382.5469 Q399.1289,382.4375 399.3476,382.4375 Q399.7226,382.4375 399.957,382.7031 Q400.1914,382.9531 400.1914,383.5625 L400.1914,385.0156 Q400.1914,385.625 399.957,385.8906 Q399.7226,386.1563 399.3476,386.1563 Q399.0039,386.1563 398.8008,385.9531 Q398.5976,385.7656 398.4883,385.25 Q398.4414,384.8906 398.2539,384.7031 Q397.9258,384.3281 397.3164,384.1094 Q396.707,383.8906 396.082,383.8906 Q395.3164,383.8906 394.6758,384.2188 Q394.0508,384.5469 393.5508,385.2969 Q393.0664,386.0469 393.0664,387.0781 L393.0664,388.1719 Q393.0664,389.4063 393.957,390.2344 Q394.8476,391.0469 396.4414,391.0469 Q397.3789,391.0469 398.0351,390.7969 Q398.4258,390.6406 398.8476,390.2031 Q399.1133,389.9375 399.2539,389.8594 Q399.4101,389.7813 399.6133,389.7813 Q399.9414,389.7813 400.1914,390.0469 Q400.457,390.2969 400.457,390.6406 Q400.457,390.9844 400.1133,391.3906 Q399.6133,391.9688 398.8164,392.2969 Q397.7383,392.75 396.4414,392.75 Q394.9258,392.75 393.7226,392.125 Q392.7383,391.625 392.0508,390.5625 Q391.3633,389.4844 391.3633,388.2031 L391.3633,387.0469 Q391.3633,385.7188 391.9726,384.5781 Q392.5976,383.4219 393.6914,382.8125 Q394.7851,382.1875 396.0195,382.1875 Q396.7539,382.1875 397.3945,382.3594 Q398.0508,382.5156 398.5976,382.875 Z "/><text fill="#000000" font-family="sans-serif" font-size="12" lengthAdjust="spacingAndGlyphs" textLength="51" x="412.632" y="391.9102">StartView</text><line style="stroke: #A80036; stroke-width: 1.5;" x1="369.232" x2="478.232" y1="403" y2="403"/><polygon fill="none" points="379.232,410,375.232,416,383.232,416" style="stroke: #1963A0; stroke-width: 1.0;"/><text fill="#000000" font-family="sans-serif" font-size="11" lengthAdjust="spacingAndGlyphs" textLength="60" x="388.232" y="418.4189">game: Game</text><line style="stroke: #A80036; stroke-width: 1.5;" x1="369.232" x2="478.232" y1="424.8359" y2="424.8359"/><polygon fill="#4177AF" points="379.232,431.8359,375.232,437.8359,383.232,437.8359" style="stroke: #1963A0; stroke-width: 1.0;"/><text fill="#000000" font-family="sans-serif" font-size="11" lengthAdjust="spacingAndGlyphs" textLength="85" x="388.232" y="440.2549">StartView(Game)</text><polygon fill="#4177AF" points="379.232,445.6719,375.232,451.6719,383.232,451.6719" style="stroke: #1963A0; stroke-width: 1.0;"/><text fill="#000000" font-family="sans-serif" font-size="11" lengthAdjust="spacingAndGlyphs" textLength="70" x="388.232" y="454.0908">interact(): void</text><!--MD5=[0158df0baddf48f83142f472e341eacc]
class tictactoe.views.console.PlayView--><rect fill="#FEFECE" filter="url(#f1xhvnh7uinmrj)" height="89.5078" id="tictactoe.views.console.PlayView" style="stroke: #A80036; stroke-width: 1.5;" width="114" x="65.732" y="371"/><ellipse cx="95.582" cy="387" fill="#ADD1B2" rx="11" ry="11" style="stroke: #A80036; stroke-width: 1.0;"/><path d="M98.3476,382.875 Q98.5039,382.6563 98.6914,382.5469 Q98.8789,382.4375 99.0976,382.4375 Q99.4726,382.4375 99.707,382.7031 Q99.9414,382.9531 99.9414,383.5625 L99.9414,385.0156 Q99.9414,385.625 99.707,385.8906 Q99.4726,386.1563 99.0976,386.1563 Q98.7539,386.1563 98.5508,385.9531 Q98.3476,385.7656 98.2383,385.25 Q98.1914,384.8906 98.0039,384.7031 Q97.6758,384.3281 97.0664,384.1094 Q96.457,383.8906 95.832,383.8906 Q95.0664,383.8906 94.4258,384.2188 Q93.8008,384.5469 93.3008,385.2969 Q92.8164,386.0469 92.8164,387.0781 L92.8164,388.1719 Q92.8164,389.4063 93.707,390.2344 Q94.5976,391.0469 96.1914,391.0469 Q97.1289,391.0469 97.7851,390.7969 Q98.1758,390.6406 98.5976,390.2031 Q98.8633,389.9375 99.0039,389.8594 Q99.1601,389.7813 99.3633,389.7813 Q99.6914,389.7813 99.9414,390.0469 Q100.207,390.2969 100.207,390.6406 Q100.207,390.9844 99.8633,391.3906 Q99.3633,391.9688 98.5664,392.2969 Q97.4883,392.75 96.1914,392.75 Q94.6758,392.75 93.4726,392.125 Q92.4883,391.625 91.8008,390.5625 Q91.1133,389.4844 91.1133,388.2031 L91.1133,387.0469 Q91.1133,385.7188 91.7226,384.5781 Q92.3476,383.4219 93.4414,382.8125 Q94.5351,382.1875 95.7695,382.1875 Q96.5039,382.1875 97.1445,382.3594 Q97.8008,382.5156 98.3476,382.875 Z "/><text fill="#000000" font-family="sans-serif" font-size="12" lengthAdjust="spacingAndGlyphs" textLength="49" x="112.882" y="391.9102">PlayView</text><line style="stroke: #A80036; stroke-width: 1.5;" x1="66.732" x2="178.732" y1="403" y2="403"/><polygon fill="none" points="76.732,410,72.732,416,80.732,416" style="stroke: #1963A0; stroke-width: 1.0;"/><text fill="#000000" font-family="sans-serif" font-size="11" lengthAdjust="spacingAndGlyphs" textLength="60" x="85.732" y="418.4189">game: Game</text><line style="stroke: #A80036; stroke-width: 1.5;" x1="66.732" x2="178.732" y1="424.8359" y2="424.8359"/><polygon fill="#4177AF" points="76.732,431.8359,72.732,437.8359,80.732,437.8359" style="stroke: #1963A0; stroke-width: 1.0;"/><text fill="#000000" font-family="sans-serif" font-size="11" lengthAdjust="spacingAndGlyphs" textLength="82" x="85.732" y="440.2549">PlayView(Game)</text><polygon fill="#4177AF" points="76.732,445.6719,72.732,451.6719,80.732,451.6719" style="stroke: #1963A0; stroke-width: 1.0;"/><text fill="#000000" font-family="sans-serif" font-size="11" lengthAdjust="spacingAndGlyphs" textLength="88" x="85.732" y="454.0908">interact(): boolean</text><!--MD5=[4ad8229f56e3458317cb6855b3145039]
class tictactoe.views.console.ResultView--><rect fill="#FEFECE" filter="url(#f1xhvnh7uinmrj)" height="89.5078" id="tictactoe.views.console.ResultView" style="stroke: #A80036; stroke-width: 1.5;" width="118" x="214.732" y="371"/><ellipse cx="240.532" cy="387" fill="#ADD1B2" rx="11" ry="11" style="stroke: #A80036; stroke-width: 1.0;"/><path d="M243.2976,382.875 Q243.4539,382.6563 243.6414,382.5469 Q243.8289,382.4375 244.0476,382.4375 Q244.4226,382.4375 244.657,382.7031 Q244.8914,382.9531 244.8914,383.5625 L244.8914,385.0156 Q244.8914,385.625 244.657,385.8906 Q244.4226,386.1563 244.0476,386.1563 Q243.7039,386.1563 243.5008,385.9531 Q243.2976,385.7656 243.1883,385.25 Q243.1414,384.8906 242.9539,384.7031 Q242.6258,384.3281 242.0164,384.1094 Q241.407,383.8906 240.782,383.8906 Q240.0164,383.8906 239.3758,384.2188 Q238.7508,384.5469 238.2508,385.2969 Q237.7664,386.0469 237.7664,387.0781 L237.7664,388.1719 Q237.7664,389.4063 238.657,390.2344 Q239.5476,391.0469 241.1414,391.0469 Q242.0789,391.0469 242.7351,390.7969 Q243.1258,390.6406 243.5476,390.2031 Q243.8133,389.9375 243.9539,389.8594 Q244.1101,389.7813 244.3133,389.7813 Q244.6414,389.7813 244.8914,390.0469 Q245.157,390.2969 245.157,390.6406 Q245.157,390.9844 244.8133,391.3906 Q244.3133,391.9688 243.5164,392.2969 Q242.4383,392.75 241.1414,392.75 Q239.6258,392.75 238.4226,392.125 Q237.4383,391.625 236.7508,390.5625 Q236.0633,389.4844 236.0633,388.2031 L236.0633,387.0469 Q236.0633,385.7188 236.6726,384.5781 Q237.2976,383.4219 238.3914,382.8125 Q239.4851,382.1875 240.7195,382.1875 Q241.4539,382.1875 242.0945,382.3594 Q242.7508,382.5156 243.2976,382.875 Z "/><text fill="#000000" font-family="sans-serif" font-size="12" lengthAdjust="spacingAndGlyphs" textLength="62" x="256.932" y="391.9102">ResultView</text><line style="stroke: #A80036; stroke-width: 1.5;" x1="215.732" x2="331.732" y1="403" y2="403"/><polygon fill="none" points="225.732,410,221.732,416,229.732,416" style="stroke: #1963A0; stroke-width: 1.0;"/><text fill="#000000" font-family="sans-serif" font-size="11" lengthAdjust="spacingAndGlyphs" textLength="60" x="234.732" y="418.4189">game: Game</text><line style="stroke: #A80036; stroke-width: 1.5;" x1="215.732" x2="331.732" y1="424.8359" y2="424.8359"/><polygon fill="#4177AF" points="225.732,431.8359,221.732,437.8359,229.732,437.8359" style="stroke: #1963A0; stroke-width: 1.0;"/><text fill="#000000" font-family="sans-serif" font-size="11" lengthAdjust="spacingAndGlyphs" textLength="92" x="234.732" y="440.2549">ResultView(Game)</text><polygon fill="#4177AF" points="225.732,445.6719,221.732,451.6719,229.732,451.6719" style="stroke: #1963A0; stroke-width: 1.0;"/><text fill="#000000" font-family="sans-serif" font-size="11" lengthAdjust="spacingAndGlyphs" textLength="70" x="234.732" y="454.0908">interact(): void</text><!--MD5=[8830b246a550294711e6eb5af1606829]
class tictactoe.views.console.CoordinateView--><rect fill="#FEFECE" filter="url(#f1xhvnh7uinmrj)" height="61.8359" id="tictactoe.views.console.CoordinateView" style="stroke: #A80036; stroke-width: 1.5;" width="142" x="657.732" y="385"/><ellipse cx="683.082" cy="401" fill="#ADD1B2" rx="11" ry="11" style="stroke: #A80036; stroke-width: 1.0;"/><path d="M685.8476,396.875 Q686.0039,396.6563 686.1914,396.5469 Q686.3789,396.4375 686.5976,396.4375 Q686.9726,396.4375 687.207,396.7031 Q687.4414,396.9531 687.4414,397.5625 L687.4414,399.0156 Q687.4414,399.625 687.207,399.8906 Q686.9726,400.1563 686.5976,400.1563 Q686.2539,400.1563 686.0508,399.9531 Q685.8476,399.7656 685.7383,399.25 Q685.6914,398.8906 685.5039,398.7031 Q685.1758,398.3281 684.5664,398.1094 Q683.957,397.8906 683.332,397.8906 Q682.5664,397.8906 681.9258,398.2188 Q681.3008,398.5469 680.8008,399.2969 Q680.3164,400.0469 680.3164,401.0781 L680.3164,402.1719 Q680.3164,403.4063 681.207,404.2344 Q682.0976,405.0469 683.6914,405.0469 Q684.6289,405.0469 685.2851,404.7969 Q685.6758,404.6406 686.0976,404.2031 Q686.3633,403.9375 686.5039,403.8594 Q686.6601,403.7813 686.8633,403.7813 Q687.1914,403.7813 687.4414,404.0469 Q687.707,404.2969 687.707,404.6406 Q687.707,404.9844 687.3633,405.3906 Q686.8633,405.9688 686.0664,406.2969 Q684.9883,406.75 683.6914,406.75 Q682.1758,406.75 680.9726,406.125 Q679.9883,405.625 679.3008,404.5625 Q678.6133,403.4844 678.6133,402.2031 L678.6133,401.0469 Q678.6133,399.7188 679.2226,398.5781 Q679.8476,397.4219 680.9414,396.8125 Q682.0351,396.1875 683.2695,396.1875 Q684.0039,396.1875 684.6445,396.3594 Q685.3008,396.5156 685.8476,396.875 Z "/><text fill="#000000" font-family="sans-serif" font-size="12" lengthAdjust="spacingAndGlyphs" textLength="87" x="699.382" y="405.9102">CoordinateView</text><line style="stroke: #A80036; stroke-width: 1.5;" x1="658.732" x2="798.732" y1="417" y2="417"/><line style="stroke: #A80036; stroke-width: 1.5;" x1="658.732" x2="798.732" y1="425" y2="425"/><polygon fill="#4177AF" points="668.732,432,664.732,438,672.732,438" style="stroke: #1963A0; stroke-width: 1.0;"/><text fill="#000000" font-family="sans-serif" font-size="11" lengthAdjust="spacingAndGlyphs" textLength="116" x="677.732" y="440.4189">read(String): Coordinate</text><!--MD5=[1ca4e66fd27a79cb5d7093d90b3139a4]
class tictactoe.views.console.ErrorView--><rect fill="#FEFECE" filter="url(#f1xhvnh7uinmrj)" height="75.6719" id="tictactoe.views.console.ErrorView" style="stroke: #A80036; stroke-width: 1.5;" width="108" x="514.732" y="378"/><ellipse cx="540.082" cy="394" fill="#ADD1B2" rx="11" ry="11" style="stroke: #A80036; stroke-width: 1.0;"/><path d="M542.8476,389.875 Q543.0039,389.6563 543.1914,389.5469 Q543.3789,389.4375 543.5976,389.4375 Q543.9726,389.4375 544.207,389.7031 Q544.4414,389.9531 544.4414,390.5625 L544.4414,392.0156 Q544.4414,392.625 544.207,392.8906 Q543.9726,393.1563 543.5976,393.1563 Q543.2539,393.1563 543.0508,392.9531 Q542.8476,392.7656 542.7383,392.25 Q542.6914,391.8906 542.5039,391.7031 Q542.1758,391.3281 541.5664,391.1094 Q540.957,390.8906 540.332,390.8906 Q539.5664,390.8906 538.9258,391.2188 Q538.3008,391.5469 537.8008,392.2969 Q537.3164,393.0469 537.3164,394.0781 L537.3164,395.1719 Q537.3164,396.4063 538.207,397.2344 Q539.0976,398.0469 540.6914,398.0469 Q541.6289,398.0469 542.2851,397.7969 Q542.6758,397.6406 543.0976,397.2031 Q543.3633,396.9375 543.5039,396.8594 Q543.6601,396.7813 543.8633,396.7813 Q544.1914,396.7813 544.4414,397.0469 Q544.707,397.2969 544.707,397.6406 Q544.707,397.9844 544.3633,398.3906 Q543.8633,398.9688 543.0664,399.2969 Q541.9883,399.75 540.6914,399.75 Q539.1758,399.75 537.9726,399.125 Q536.9883,398.625 536.3008,397.5625 Q535.6133,396.4844 535.6133,395.2031 L535.6133,394.0469 Q535.6133,392.7188 536.2226,391.5781 Q536.8476,390.4219 537.9414,389.8125 Q539.0351,389.1875 540.2695,389.1875 Q541.0039,389.1875 541.6445,389.3594 Q542.3008,389.5156 542.8476,389.875 Z "/><text fill="#000000" font-family="sans-serif" font-size="12" lengthAdjust="spacingAndGlyphs" textLength="53" x="556.382" y="398.9102">ErrorView</text><line style="stroke: #A80036; stroke-width: 1.5;" x1="515.732" x2="621.732" y1="410" y2="410"/><line style="stroke: #A80036; stroke-width: 1.5;" x1="515.732" x2="621.732" y1="418" y2="418"/><polygon fill="#4177AF" points="525.732,425,521.732,431,529.732,431" style="stroke: #1963A0; stroke-width: 1.0;"/><text fill="#000000" font-family="sans-serif" font-size="11" lengthAdjust="spacingAndGlyphs" textLength="82" x="534.732" y="433.4189">ErrorView(Error)</text><polygon fill="#4177AF" points="525.732,438.8359,521.732,444.8359,529.732,444.8359" style="stroke: #1963A0; stroke-width: 1.0;"/><text fill="#000000" font-family="sans-serif" font-size="11" lengthAdjust="spacingAndGlyphs" textLength="67" x="534.732" y="447.2549">writeln(): void</text><!--MD5=[4afe6aabb27d783e4a9a9dcc50c35fae]
class tictactoe.views.console.MachinePlayerView--><rect fill="#FEFECE" filter="url(#f1xhvnh7uinmrj)" height="89.5078" id="tictactoe.views.console.MachinePlayerView" style="stroke: #A80036; stroke-width: 1.5;" width="216" x="264.732" y="193.5"/><ellipse cx="315.482" cy="209.5" fill="#ADD1B2" rx="11" ry="11" style="stroke: #A80036; stroke-width: 1.0;"/><path d="M318.2476,205.375 Q318.4039,205.1563 318.5914,205.0469 Q318.7789,204.9375 318.9976,204.9375 Q319.3726,204.9375 319.607,205.2031 Q319.8414,205.4531 319.8414,206.0625 L319.8414,207.5156 Q319.8414,208.125 319.607,208.3906 Q319.3726,208.6563 318.9976,208.6563 Q318.6539,208.6563 318.4507,208.4531 Q318.2476,208.2656 318.1382,207.75 Q318.0914,207.3906 317.9039,207.2031 Q317.5757,206.8281 316.9664,206.6094 Q316.357,206.3906 315.732,206.3906 Q314.9664,206.3906 314.3257,206.7188 Q313.7007,207.0469 313.2007,207.7969 Q312.7164,208.5469 312.7164,209.5781 L312.7164,210.6719 Q312.7164,211.9063 313.607,212.7344 Q314.4976,213.5469 316.0914,213.5469 Q317.0289,213.5469 317.6851,213.2969 Q318.0757,213.1406 318.4976,212.7031 Q318.7632,212.4375 318.9039,212.3594 Q319.0601,212.2813 319.2632,212.2813 Q319.5914,212.2813 319.8414,212.5469 Q320.107,212.7969 320.107,213.1406 Q320.107,213.4844 319.7632,213.8906 Q319.2632,214.4688 318.4664,214.7969 Q317.3882,215.25 316.0914,215.25 Q314.5757,215.25 313.3726,214.625 Q312.3882,214.125 311.7007,213.0625 Q311.0132,211.9844 311.0132,210.7031 L311.0132,209.5469 Q311.0132,208.2188 311.6226,207.0781 Q312.2476,205.9219 313.3414,205.3125 Q314.4351,204.6875 315.6695,204.6875 Q316.4039,204.6875 317.0445,204.8594 Q317.7007,205.0156 318.2476,205.375 Z "/><text fill="#000000" font-family="sans-serif" font-size="12" lengthAdjust="spacingAndGlyphs" textLength="106" x="335.982" y="214.4102">MachinePlayerView</text><line style="stroke: #A80036; stroke-width: 1.5;" x1="265.732" x2="479.732" y1="225.5" y2="225.5"/><line style="stroke: #A80036; stroke-width: 1.5;" x1="265.732" x2="479.732" y1="233.5" y2="233.5"/><polygon fill="#4177AF" points="275.732,240.5,271.732,246.5,279.732,246.5" style="stroke: #1963A0; stroke-width: 1.0;"/><text fill="#000000" font-family="sans-serif" font-size="11" lengthAdjust="spacingAndGlyphs" textLength="134" x="284.732" y="248.9189">MachinePlayerView(Player)</text><polygon fill="#4177AF" points="275.732,254.3359,271.732,260.3359,279.732,260.3359" style="stroke: #1963A0; stroke-width: 1.0;"/><text fill="#000000" font-family="sans-serif" font-size="11" lengthAdjust="spacingAndGlyphs" textLength="167" x="284.732" y="262.7549">readCoordinateToPut(): Coordinate</text><polygon fill="#4177AF" points="275.732,268.1719,271.732,274.1719,279.732,274.1719" style="stroke: #1963A0; stroke-width: 1.0;"/><text fill="#000000" font-family="sans-serif" font-size="11" lengthAdjust="spacingAndGlyphs" textLength="190" x="284.732" y="276.5908">readCoordinatesToMove(): Coordinate[]</text><!--MD5=[d4f4ae14a368e3fcfff527b6459d05f0]
class tictactoe.views.console.UserPlayerView--><rect fill="#FEFECE" filter="url(#f1xhvnh7uinmrj)" height="117.1797" id="tictactoe.views.console.UserPlayerView" style="stroke: #A80036; stroke-width: 1.5;" width="233" x="516.232" y="180"/><ellipse cx="584.982" cy="196" fill="#ADD1B2" rx="11" ry="11" style="stroke: #A80036; stroke-width: 1.0;"/><path d="M587.7476,191.875 Q587.9039,191.6563 588.0914,191.5469 Q588.2789,191.4375 588.4976,191.4375 Q588.8726,191.4375 589.107,191.7031 Q589.3414,191.9531 589.3414,192.5625 L589.3414,194.0156 Q589.3414,194.625 589.107,194.8906 Q588.8726,195.1563 588.4976,195.1563 Q588.1539,195.1563 587.9508,194.9531 Q587.7476,194.7656 587.6383,194.25 Q587.5914,193.8906 587.4039,193.7031 Q587.0758,193.3281 586.4664,193.1094 Q585.857,192.8906 585.232,192.8906 Q584.4664,192.8906 583.8258,193.2188 Q583.2008,193.5469 582.7008,194.2969 Q582.2164,195.0469 582.2164,196.0781 L582.2164,197.1719 Q582.2164,198.4063 583.107,199.2344 Q583.9976,200.0469 585.5914,200.0469 Q586.5289,200.0469 587.1851,199.7969 Q587.5758,199.6406 587.9976,199.2031 Q588.2633,198.9375 588.4039,198.8594 Q588.5601,198.7813 588.7633,198.7813 Q589.0914,198.7813 589.3414,199.0469 Q589.607,199.2969 589.607,199.6406 Q589.607,199.9844 589.2633,200.3906 Q588.7633,200.9688 587.9664,201.2969 Q586.8883,201.75 585.5914,201.75 Q584.0758,201.75 582.8726,201.125 Q581.8883,200.625 581.2008,199.5625 Q580.5133,198.4844 580.5133,197.2031 L580.5133,196.0469 Q580.5133,194.7188 581.1226,193.5781 Q581.7476,192.4219 582.8414,191.8125 Q583.9351,191.1875 585.1695,191.1875 Q585.9039,191.1875 586.5445,191.3594 Q587.2008,191.5156 587.7476,191.875 Z "/><text fill="#000000" font-family="sans-serif" font-size="12" lengthAdjust="spacingAndGlyphs" textLength="87" x="605.482" y="200.9102">UserPlayerView</text><line style="stroke: #A80036; stroke-width: 1.5;" x1="517.232" x2="748.232" y1="212" y2="212"/><polygon fill="none" points="527.232,219,523.232,225,531.232,225" style="stroke: #1963A0; stroke-width: 1.0;"/><text fill="#000000" font-family="sans-serif" font-size="11" lengthAdjust="spacingAndGlyphs" text-decoration="underline" textLength="183" x="536.232" y="227.4189">ENTER_COORDINATE_TO_PUT: String</text><polygon fill="none" points="527.232,232.8359,523.232,238.8359,531.232,238.8359" style="stroke: #1963A0; stroke-width: 1.0;"/><text fill="#000000" font-family="sans-serif" font-size="11" lengthAdjust="spacingAndGlyphs" text-decoration="underline" textLength="207" x="536.232" y="241.2549">ENTER_COORDINATE_TO_REMOVE: String</text><line style="stroke: #A80036; stroke-width: 1.5;" x1="517.232" x2="748.232" y1="247.6719" y2="247.6719"/><polygon fill="#4177AF" points="527.232,254.6719,523.232,260.6719,531.232,260.6719" style="stroke: #1963A0; stroke-width: 1.0;"/><text fill="#000000" font-family="sans-serif" font-size="11" lengthAdjust="spacingAndGlyphs" textLength="117" x="536.232" y="263.0908">UserPlayerView(Player)</text><polygon fill="#4177AF" points="527.232,268.5078,523.232,274.5078,531.232,274.5078" style="stroke: #1963A0; stroke-width: 1.0;"/><text fill="#000000" font-family="sans-serif" font-size="11" lengthAdjust="spacingAndGlyphs" textLength="167" x="536.232" y="276.9268">readCoordinateToPut(): Coordinate</text><polygon fill="#4177AF" points="527.232,282.3438,523.232,288.3438,531.232,288.3438" style="stroke: #1963A0; stroke-width: 1.0;"/><text fill="#000000" font-family="sans-serif" font-size="11" lengthAdjust="spacingAndGlyphs" textLength="190" x="536.232" y="290.7627">readCoordinatesToMove(): Coordinate[]</text><!--MD5=[959c5b36bcbb0655df73030dc49c5e5e]
class utils.WithConsoleModel--><rect fill="#FEFECE" filter="url(#f1xhvnh7uinmrj)" height="48" id="utils.WithConsoleModel" style="stroke: #A80036; stroke-width: 1.5;" width="136" x="855.732" y="214.5"/><ellipse cx="870.732" cy="230.5" fill="#ADD1B2" rx="11" ry="11" style="stroke: #A80036; stroke-width: 1.0;"/><path d="M873.4976,226.375 Q873.6539,226.1563 873.8414,226.0469 Q874.0289,225.9375 874.2476,225.9375 Q874.6226,225.9375 874.857,226.2031 Q875.0914,226.4531 875.0914,227.0625 L875.0914,228.5156 Q875.0914,229.125 874.857,229.3906 Q874.6226,229.6563 874.2476,229.6563 Q873.9039,229.6563 873.7008,229.4531 Q873.4976,229.2656 873.3883,228.75 Q873.3414,228.3906 873.1539,228.2031 Q872.8258,227.8281 872.2164,227.6094 Q871.607,227.3906 870.982,227.3906 Q870.2164,227.3906 869.5758,227.7188 Q868.9508,228.0469 868.4508,228.7969 Q867.9664,229.5469 867.9664,230.5781 L867.9664,231.6719 Q867.9664,232.9063 868.857,233.7344 Q869.7476,234.5469 871.3414,234.5469 Q872.2789,234.5469 872.9351,234.2969 Q873.3258,234.1406 873.7476,233.7031 Q874.0133,233.4375 874.1539,233.3594 Q874.3101,233.2813 874.5133,233.2813 Q874.8414,233.2813 875.0914,233.5469 Q875.357,233.7969 875.357,234.1406 Q875.357,234.4844 875.0133,234.8906 Q874.5133,235.4688 873.7164,235.7969 Q872.6383,236.25 871.3414,236.25 Q869.8258,236.25 868.6226,235.625 Q867.6383,235.125 866.9508,234.0625 Q866.2633,232.9844 866.2633,231.7031 L866.2633,230.5469 Q866.2633,229.2188 866.8726,228.0781 Q867.4976,226.9219 868.5914,226.3125 Q869.6851,225.6875 870.9195,225.6875 Q871.6539,225.6875 872.2945,225.8594 Q872.9508,226.0156 873.4976,226.375 Z "/><text fill="#000000" font-family="sans-serif" font-size="12" lengthAdjust="spacingAndGlyphs" textLength="104" x="884.732" y="235.4102">WithConsoleModel</text><line style="stroke: #A80036; stroke-width: 1.5;" x1="856.732" x2="990.732" y1="246.5" y2="246.5"/><line style="stroke: #A80036; stroke-width: 1.5;" x1="856.732" x2="990.732" y1="254.5" y2="254.5"/><!--MD5=[015754420c4cdd9bacda884b3fa8c6ca]
class tictactoe.views.View--><rect fill="#FEFECE" filter="url(#f1xhvnh7uinmrj)" height="48" id="tictactoe.views.View" style="stroke: #A80036; stroke-width: 1.5;" width="58" x="233.732" y="42"/><ellipse cx="248.732" cy="58" fill="#ADD1B2" rx="11" ry="11" style="stroke: #A80036; stroke-width: 1.0;"/><path d="M251.4976,53.875 Q251.6539,53.6563 251.8414,53.5469 Q252.0289,53.4375 252.2476,53.4375 Q252.6226,53.4375 252.857,53.7031 Q253.0914,53.9531 253.0914,54.5625 L253.0914,56.0156 Q253.0914,56.625 252.857,56.8906 Q252.6226,57.1563 252.2476,57.1563 Q251.9039,57.1563 251.7008,56.9531 Q251.4976,56.7656 251.3883,56.25 Q251.3414,55.8906 251.1539,55.7031 Q250.8258,55.3281 250.2164,55.1094 Q249.607,54.8906 248.982,54.8906 Q248.2164,54.8906 247.5758,55.2188 Q246.9508,55.5469 246.4508,56.2969 Q245.9664,57.0469 245.9664,58.0781 L245.9664,59.1719 Q245.9664,60.4063 246.857,61.2344 Q247.7476,62.0469 249.3414,62.0469 Q250.2789,62.0469 250.9351,61.7969 Q251.3258,61.6406 251.7476,61.2031 Q252.0133,60.9375 252.1539,60.8594 Q252.3101,60.7813 252.5133,60.7813 Q252.8414,60.7813 253.0914,61.0469 Q253.357,61.2969 253.357,61.6406 Q253.357,61.9844 253.0133,62.3906 Q252.5133,62.9688 251.7164,63.2969 Q250.6383,63.75 249.3414,63.75 Q247.8258,63.75 246.6226,63.125 Q245.6383,62.625 244.9508,61.5625 Q244.2633,60.4844 244.2633,59.2031 L244.2633,58.0469 Q244.2633,56.7188 244.8726,55.5781 Q245.4976,54.4219 246.5914,53.8125 Q247.6851,53.1875 248.9195,53.1875 Q249.6539,53.1875 250.2945,53.3594 Q250.9508,53.5156 251.4976,53.875 Z "/><text fill="#000000" font-family="sans-serif" font-size="12" lengthAdjust="spacingAndGlyphs" textLength="26" x="262.732" y="62.9102">View</text><line style="stroke: #A80036; stroke-width: 1.5;" x1="234.732" x2="290.732" y1="74" y2="74"/><line style="stroke: #A80036; stroke-width: 1.5;" x1="234.732" x2="290.732" y1="82" y2="82"/><!--MD5=[17799e03bfee0ccb3aa03b93da9c26d6]
class tictactoe.views.ErrorView--><rect fill="#FEFECE" filter="url(#f1xhvnh7uinmrj)" height="48" id="tictactoe.views.ErrorView" style="stroke: #A80036; stroke-width: 1.5;" width="85" x="454.232" y="42"/><ellipse cx="469.232" cy="58" fill="#ADD1B2" rx="11" ry="11" style="stroke: #A80036; stroke-width: 1.0;"/><path d="M471.9976,53.875 Q472.1539,53.6563 472.3414,53.5469 Q472.5289,53.4375 472.7476,53.4375 Q473.1226,53.4375 473.357,53.7031 Q473.5914,53.9531 473.5914,54.5625 L473.5914,56.0156 Q473.5914,56.625 473.357,56.8906 Q473.1226,57.1563 472.7476,57.1563 Q472.4039,57.1563 472.2007,56.9531 Q471.9976,56.7656 471.8882,56.25 Q471.8414,55.8906 471.6539,55.7031 Q471.3257,55.3281 470.7164,55.1094 Q470.107,54.8906 469.482,54.8906 Q468.7164,54.8906 468.0757,55.2188 Q467.4507,55.5469 466.9507,56.2969 Q466.4664,57.0469 466.4664,58.0781 L466.4664,59.1719 Q466.4664,60.4063 467.357,61.2344 Q468.2476,62.0469 469.8414,62.0469 Q470.7789,62.0469 471.4351,61.7969 Q471.8257,61.6406 472.2476,61.2031 Q472.5132,60.9375 472.6539,60.8594 Q472.8101,60.7813 473.0132,60.7813 Q473.3414,60.7813 473.5914,61.0469 Q473.857,61.2969 473.857,61.6406 Q473.857,61.9844 473.5132,62.3906 Q473.0132,62.9688 472.2164,63.2969 Q471.1382,63.75 469.8414,63.75 Q468.3257,63.75 467.1226,63.125 Q466.1382,62.625 465.4507,61.5625 Q464.7632,60.4844 464.7632,59.2031 L464.7632,58.0469 Q464.7632,56.7188 465.3726,55.5781 Q465.9976,54.4219 467.0914,53.8125 Q468.1851,53.1875 469.4195,53.1875 Q470.1539,53.1875 470.7945,53.3594 Q471.4507,53.5156 471.9976,53.875 Z "/><text fill="#000000" font-family="sans-serif" font-size="12" lengthAdjust="spacingAndGlyphs" textLength="53" x="483.232" y="62.9102">ErrorView</text><line style="stroke: #A80036; stroke-width: 1.5;" x1="455.232" x2="538.232" y1="74" y2="74"/><line style="stroke: #A80036; stroke-width: 1.5;" x1="455.232" x2="538.232" y1="82" y2="82"/><!--MD5=[2ae15d20e7f22fd333327d3852982126]
class tictactoe.views.PlayerView--><rect fill="#FEFECE" filter="url(#f1xhvnh7uinmrj)" height="48" id="tictactoe.views.PlayerView" style="stroke: #A80036; stroke-width: 1.5;" width="92" x="326.732" y="42"/><ellipse cx="341.732" cy="58" fill="#ADD1B2" rx="11" ry="11" style="stroke: #A80036; stroke-width: 1.0;"/><path d="M344.4976,53.875 Q344.6539,53.6563 344.8414,53.5469 Q345.0289,53.4375 345.2476,53.4375 Q345.6226,53.4375 345.857,53.7031 Q346.0914,53.9531 346.0914,54.5625 L346.0914,56.0156 Q346.0914,56.625 345.857,56.8906 Q345.6226,57.1563 345.2476,57.1563 Q344.9039,57.1563 344.7007,56.9531 Q344.4976,56.7656 344.3882,56.25 Q344.3414,55.8906 344.1539,55.7031 Q343.8257,55.3281 343.2164,55.1094 Q342.607,54.8906 341.982,54.8906 Q341.2164,54.8906 340.5757,55.2188 Q339.9507,55.5469 339.4507,56.2969 Q338.9664,57.0469 338.9664,58.0781 L338.9664,59.1719 Q338.9664,60.4063 339.857,61.2344 Q340.7476,62.0469 342.3414,62.0469 Q343.2789,62.0469 343.9351,61.7969 Q344.3257,61.6406 344.7476,61.2031 Q345.0132,60.9375 345.1539,60.8594 Q345.3101,60.7813 345.5132,60.7813 Q345.8414,60.7813 346.0914,61.0469 Q346.357,61.2969 346.357,61.6406 Q346.357,61.9844 346.0132,62.3906 Q345.5132,62.9688 344.7164,63.2969 Q343.6382,63.75 342.3414,63.75 Q340.8257,63.75 339.6226,63.125 Q338.6382,62.625 337.9507,61.5625 Q337.2632,60.4844 337.2632,59.2031 L337.2632,58.0469 Q337.2632,56.7188 337.8726,55.5781 Q338.4976,54.4219 339.5914,53.8125 Q340.6851,53.1875 341.9195,53.1875 Q342.6539,53.1875 343.2945,53.3594 Q343.9507,53.5156 344.4976,53.875 Z "/><text fill="#000000" font-family="sans-serif" font-size="12" lengthAdjust="spacingAndGlyphs" textLength="60" x="355.732" y="62.9102">PlayerView</text><line style="stroke: #A80036; stroke-width: 1.5;" x1="327.732" x2="417.732" y1="74" y2="74"/><line style="stroke: #A80036; stroke-width: 1.5;" x1="327.732" x2="417.732" y1="82" y2="82"/><!--MD5=[a6fae52730c8fcb5831e430ac9256e7b]
reverse link utils.WithConsoleModel to tictactoe.views.console.BoardView--><path d="M908.608,281.685 C887.133,339.237 847.049,437.873 816.732,461 C699.948,550.0884 634.423,486.149 491.732,521 C463.544,527.885 432.728,537.071 406.862,545.2691 " fill="none" id="utils.WithConsoleModel&lt;-tictactoe.views.console.BoardView" style="stroke: #A80036; stroke-width: 1.0;"/><polygon fill="none" points="902.165,278.922,915.625,262.557,915.309,283.744,902.165,278.922" style="stroke: #A80036; stroke-width: 1.0;"/><!--MD5=[3759dcab84bd93192393b69d4c36cc32]
reverse link utils.WithConsoleModel to tictactoe.views.console.ChoosePlayerView--><path d="M926.845,283.001 C927.928,332.114 922.002,411.593 878.732,461 C819.722,528.38 714.86,552.1289 645.809,560.4852 " fill="none" id="utils.WithConsoleModel&lt;-tictactoe.views.console.ChoosePlayerView" style="stroke: #A80036; stroke-width: 1.0;"/><polygon fill="none" points="919.842,283.076,925.963,262.79,933.828,282.466,919.842,283.076" style="stroke: #A80036; stroke-width: 1.0;"/><!--MD5=[d1f1f21fa3eb12d639631512d925e9a6]
reverse link tictactoe.views.View to tictactoe.views.console.ConsoleView--><path d="M237.919,107.68 C227.297,125.093 214.57,145.959 202.457,165.816 " fill="none" id="tictactoe.views.View&lt;-tictactoe.views.console.ConsoleView" style="stroke: #A80036; stroke-width: 1.0;"/><polygon fill="none" points="232.098,103.779,248.489,90.35,244.05,111.069,232.098,103.779" style="stroke: #A80036; stroke-width: 1.0;"/><!--MD5=[9113815f8bbc012213d6467f94b3dc5b]
link tictactoe.views.console.ConsoleView to tictactoe.views.console.StartView--><path d="M239.2461,305.7016 C239.2461,305.7016 244.518,309.47 246.732,311 C290.31,341.127 304.074,344.128 349.732,371 C352.047,372.362 354.401,373.75 356.778,375.153 " fill="none" id="tictactoe.views.console.ConsoleView-tictactoe.views.console.StartView" style="stroke: #A80036; stroke-width: 1.0;"/><polygon fill="#A80036" points="368.003,381.791,362.2926,373.7666,363.6993,379.2457,358.2202,380.6524,368.003,381.791" style="stroke: #A80036; stroke-width: 1.0;"/><line style="stroke: #A80036; stroke-width: 1.0;" x1="363.6993" x2="356.813" y1="379.2457" y2="375.174"/><polygon fill="#A80036" points="229.576,298.596,232.0425,305.3722,239.2461,305.7016,236.7796,298.9254,229.576,298.596" style="stroke: #A80036; stroke-width: 1.0;"/><!--MD5=[1735144fa38f1aa47117a26d071db586]
link tictactoe.views.console.ConsoleView to tictactoe.views.console.PlayView--><path d="M141.6251,322.8911 C141.6251,322.8911 136.663,347.085 134.438,357.935 " fill="none" id="tictactoe.views.console.ConsoleView-tictactoe.views.console.PlayView" style="stroke: #A80036; stroke-width: 1.0;"/><polygon fill="#A80036" points="131.8066,370.761,137.5339,362.7486,132.8116,365.863,129.6971,361.1407,131.8066,370.761" style="stroke: #A80036; stroke-width: 1.0;"/><line style="stroke: #A80036; stroke-width: 1.0;" x1="132.8116" x2="134.4189" y1="365.863" y2="358.0265"/><polygon fill="#A80036" points="144.037,311.136,138.9127,316.2096,141.6251,322.8911,146.7494,317.8175,144.037,311.136" style="stroke: #A80036; stroke-width: 1.0;"/><!--MD5=[44d2792f564883fbc9918566bab83309]
link tictactoe.views.console.ConsoleView to tictactoe.views.console.ResultView--><path d="M212.2501,321.173 C212.2501,321.173 229.631,347.698 237.453,359.636 " fill="none" id="tictactoe.views.console.ConsoleView-tictactoe.views.console.ResultView" style="stroke: #A80036; stroke-width: 1.0;"/><polygon fill="#A80036" points="244.744,370.761,243.1563,361.041,242.0033,366.5791,236.4652,365.4261,244.744,370.761" style="stroke: #A80036; stroke-width: 1.0;"/><line style="stroke: #A80036; stroke-width: 1.0;" x1="242.0033" x2="237.6185" y1="366.5791" y2="359.888"/><polygon fill="#A80036" points="205.673,311.136,205.6159,318.3469,212.2501,321.173,212.3072,313.9622,205.673,311.136" style="stroke: #A80036; stroke-width: 1.0;"/><!--MD5=[82de2d653d4865d631f6344f72cac18b]
reverse link utils.WithConsoleModel to tictactoe.views.console.CoordinateView--><path d="M882.602,276.517 C846.817,308.723 795.602,354.817 762.258,384.827 " fill="none" id="utils.WithConsoleModel&lt;-tictactoe.views.console.CoordinateView" style="stroke: #A80036; stroke-width: 1.0;"/><polygon fill="none" points="878.289,270.981,897.838,262.805,887.654,281.387,878.289,270.981" style="stroke: #A80036; stroke-width: 1.0;"/><!--MD5=[521be967e4e828bbb4868581b766b1da]
reverse link tictactoe.views.ErrorView to tictactoe.views.console.ErrorView--><path d="M559.746,70.853 C631.191,76.69 741.103,90.623 766.732,122 C819.871,187.055 811.687,240.042 766.732,311 C733.323,363.734 694.574,341.177 639.732,371 C634.254,373.979 628.613,377.199 623.019,380.494 " fill="none" id="tictactoe.views.ErrorView&lt;-tictactoe.views.console.ErrorView" style="stroke: #A80036; stroke-width: 1.0;"/><polygon fill="none" points="558.806,77.802,539.387,69.321,559.856,63.841,558.806,77.802" style="stroke: #A80036; stroke-width: 1.0;"/><!--MD5=[f807ad8458e0e3d6ca100de41032e69a]
reverse link tictactoe.views.PlayerView to tictactoe.views.console.MachinePlayerView--><path d="M372.732,110.657 C372.732,136.045 372.732,167.952 372.732,193.414 " fill="none" id="tictactoe.views.PlayerView&lt;-tictactoe.views.console.MachinePlayerView" style="stroke: #A80036; stroke-width: 1.0;"/><polygon fill="none" points="365.732,110.35,372.732,90.35,379.732,110.35,365.732,110.35" style="stroke: #A80036; stroke-width: 1.0;"/><!--MD5=[9623adb787708e117decab727ca41eb7]
link tictactoe.views.console.PlayView to tictactoe.views.console.BoardView--><path d="M179.8,454.538 C211.572,475.437 251.209,501.509 283.995,523.075 " fill="none" id="tictactoe.views.console.PlayView-&gt;tictactoe.views.console.BoardView" style="stroke: #A80036; stroke-width: 1.0; stroke-dasharray: 7.0,7.0;"/><polygon fill="#A80036" points="288.368,525.952,283.0483,517.6634,284.1911,523.2036,278.6509,524.3464,288.368,525.952" style="stroke: #A80036; stroke-width: 1.0;"/><!--MD5=[c652744ae97b12ae96764b7849bbed7e]
link tictactoe.views.console.PlayView to tictactoe.views.PlayerView--><path d="M94.7647,370.804 C58.2033,306.875 6,188.944 70.732,122 C79.9283,112.489 296.231,118.331 308.732,114 C321.611,109.538 334.089,101.511 344.554,93.34 " fill="none" id="tictactoe.views.console.PlayView-&gt;tictactoe.views.PlayerView" style="stroke: #A80036; stroke-width: 1.0; stroke-dasharray: 7.0,7.0;"/><polygon fill="#A80036" points="348.611,90.086,339.0878,92.5975,344.7108,93.2147,344.0937,98.8378,348.611,90.086" style="stroke: #A80036; stroke-width: 1.0;"/><!--MD5=[dfa315847ca75b86a537546c793c8626]
link tictactoe.views.console.StartView to tictactoe.views.console.ChoosePlayerView--><path d="M469.52,461.004 C492.988,483.558 521.112,510.586 542.806,531.434 " fill="none" id="tictactoe.views.console.StartView-&gt;tictactoe.views.console.ChoosePlayerView" style="stroke: #A80036; stroke-width: 1.0; stroke-dasharray: 7.0,7.0;"/><polygon fill="#A80036" points="546.504,534.989,542.7872,525.8684,542.8992,531.5241,537.2434,531.6361,546.504,534.989" style="stroke: #A80036; stroke-width: 1.0;"/><!--MD5=[e665259f0705ebc0d9068c66ae844f61]
reverse link tictactoe.views.PlayerView to tictactoe.views.console.UserPlayerView--><path d="M414.475,102.135 C421.562,106.753 429.107,110.937 436.732,114 C462.105,124.191 472.755,110.874 497.732,122 C528.162,135.555 556.944,158.229 580.052,179.916 " fill="none" id="tictactoe.views.PlayerView&lt;-tictactoe.views.console.UserPlayerView" style="stroke: #A80036; stroke-width: 1.0;"/><polygon fill="none" points="410.065,107.582,398.012,90.154,418.302,96.263,410.065,107.582" style="stroke: #A80036; stroke-width: 1.0;"/><!--MD5=[d08a44d06940417b04e1f442f789385d]
link tictactoe.views.console.UserPlayerView to tictactoe.views.console.ErrorView--><path d="M611.599,297.452 C602.591,322.153 592.279,350.429 584.027,373.057 " fill="none" id="tictactoe.views.console.UserPlayerView-&gt;tictactoe.views.console.ErrorView" style="stroke: #A80036; stroke-width: 1.0; stroke-dasharray: 7.0,7.0;"/><polygon fill="#A80036" points="582.299,377.797,589.1403,370.712,584.012,373.0996,581.6244,367.9713,582.299,377.797" style="stroke: #A80036; stroke-width: 1.0;"/><!--MD5=[93525d2da9d792717dcb2150911bbe9e]
link tictactoe.views.console.UserPlayerView to tictactoe.views.console.CoordinateView--><path d="M664.432,297.452 C679.383,324.783 696.728,356.492 709.632,380.084 " fill="none" id="tictactoe.views.console.UserPlayerView-&gt;tictactoe.views.console.CoordinateView" style="stroke: #A80036; stroke-width: 1.0; stroke-dasharray: 7.0,7.0;"/><polygon fill="#A80036" points="712.152,384.69,711.3443,374.8743,709.7534,380.3029,704.3249,378.712,712.152,384.69" style="stroke: #A80036; stroke-width: 1.0;"/><!--MD5=[a8f7f3d63782fa21dbd9605f96bfbf02]
@startuml

class  tictactoe.views.console.BoardView{
~ board: Board
~ BoardView(Board)
~ write(): void
}
utils.WithConsoleModel <|-down- tictactoe.views.console.BoardView

class  tictactoe.views.console.ChoosePlayerView{
~ readPlayers(): void
}
utils.WithConsoleModel <|-down- tictactoe.views.console.ChoosePlayerView

class  tictactoe.views.console.ConsoleView{
- startView: StartView
- playView: PlayView
- resultView: ResultView
+ ConsoleView(Game)
# start(): void
# play(): boolean
# result(): void
}
tictactoe.views.View <|-down- tictactoe.views.console.ConsoleView
tictactoe.views.console.ConsoleView *-down-> tictactoe.views.console.StartView
tictactoe.views.console.ConsoleView *-down-> tictactoe.views.console.PlayView
tictactoe.views.console.ConsoleView *-down-> tictactoe.views.console.ResultView

class  tictactoe.views.console.CoordinateView{
~ read(String): Coordinate
}
utils.WithConsoleModel <|-down- tictactoe.views.console.CoordinateView

class  tictactoe.views.console.ErrorView{
~ ErrorView(Error)
~ writeln(): void
}
tictactoe.views.ErrorView <|-down- tictactoe.views.console.ErrorView

class  tictactoe.views.console.MachinePlayerView{
~ MachinePlayerView(Player)
~ readCoordinateToPut(): Coordinate
~ readCoordinatesToMove(): Coordinate[]
}
tictactoe.views.PlayerView <|-down- tictactoe.views.console.MachinePlayerView

class  tictactoe.views.console.PlayView{
~ game: Game
~ PlayView(Game)
~ interact(): boolean
}
tictactoe.views.console.PlayView ..> tictactoe.views.console.BoardView
tictactoe.views.console.PlayView ..> tictactoe.views.PlayerView

class tictactoe.views.console.ResultView{
~ game: Game
~ ResultView(Game)
~ interact(): void
}

class tictactoe.views.console.StartView{
~ game: Game
~ StartView(Game)
~ interact(): void
}
tictactoe.views.console.StartView ..> tictactoe.views.console.ChoosePlayerView

class  tictactoe.views.console.UserPlayerView{
~ {static} ENTER_COORDINATE_TO_PUT: String
~ {static} ENTER_COORDINATE_TO_REMOVE: String
~ UserPlayerView(Player)
~ readCoordinateToPut(): Coordinate
~ readCoordinatesToMove(): Coordinate[]
}
tictactoe.views.PlayerView <|-down- tictactoe.views.console.UserPlayerView
tictactoe.views.console.UserPlayerView ..> tictactoe.views.console.ErrorView
tictactoe.views.console.UserPlayerView ..> tictactoe.views.console.CoordinateView

@enduml

PlantUML version 1.2020.15(Sun Jun 28 13:39:45 CEST 2020)
(GPL source distribution)
Java Runtime: Java(TM) SE Runtime Environment
JVM: Java HotSpot(TM) 64-Bit Server VM
Default Encoding: windows-1252
Language: es
Country: ES
--></g></svg>