<?xml version="1.0" encoding="UTF-8" standalone="no"?><svg xmlns="http://www.w3.org/2000/svg" xmlns:xlink="http://www.w3.org/1999/xlink" contentScriptType="application/ecmascript" contentStyleType="text/css" height="1011px" preserveAspectRatio="none" style="width:2656px;height:1011px;" version="1.1" viewBox="0 0 2656 1011" width="2656px" zoomAndPan="magnify"><defs><filter height="300%" id="fllpozxu3kmtz" width="300%" x="-1" y="-1"><feGaussianBlur result="blurOut" stdDeviation="2.0"/><feColorMatrix in="blurOut" result="blurOut2" type="matrix" values="0 0 0 0 0 0 0 0 0 0 0 0 0 0 0 0 0 0 .4 0"/><feOffset dx="4.0" dy="4.0" in="blurOut2" result="blurOut3"/><feBlend in="SourceGraphic" in2="blurOut3" mode="normal"/></filter></defs><g><!--MD5=[bcf2d0b3d12304fef0d13c0c68faae06]
cluster tictactoe.distributed--><polygon fill="#FFFFFF" filter="url(#fllpozxu3kmtz)" points="330.6297,130,478.6297,130,485.6297,153.6094,1614.6337,153.6094,1614.6337,875,330.6297,875,330.6297,130" style="stroke: #000000; stroke-width: 1.5;"/><line style="stroke: #000000; stroke-width: 1.5;" x1="330.6297" x2="485.6297" y1="153.6094" y2="153.6094"/><text fill="#000000" font-family="sans-serif" font-size="14" font-weight="bold" lengthAdjust="spacingAndGlyphs" textLength="142" x="334.6297" y="146.5332">tictactoe.distributed</text><!--MD5=[e6fee0bfb21fcf33ee1c5981f69ba248]
cluster tictactoe.controllers.implementation--><polygon fill="#FFFFFF" filter="url(#fllpozxu3kmtz)" points="1638.6337,164.5,1898.6337,164.5,1905.6337,188.1094,1908.6337,188.1094,1908.6337,264.5,1638.6337,264.5,1638.6337,164.5" style="stroke: #000000; stroke-width: 1.5;"/><line style="stroke: #000000; stroke-width: 1.5;" x1="1638.6337" x2="1905.6337" y1="188.1094" y2="188.1094"/><text fill="#000000" font-family="sans-serif" font-size="14" font-weight="bold" lengthAdjust="spacingAndGlyphs" textLength="254" x="1642.6337" y="181.0332">tictactoe.controllers.implementation</text><!--MD5=[224c42d171c8f8732ace39597cf483b4]
cluster tictactoe.distributed.dispatchers--><polygon fill="#FFFFFF" filter="url(#fllpozxu3kmtz)" points="206.6297,899,441.6297,899,448.6297,922.6094,511.6297,922.6094,511.6297,999,206.6297,999,206.6297,899" style="stroke: #000000; stroke-width: 1.5;"/><line style="stroke: #000000; stroke-width: 1.5;" x1="206.6297" x2="448.6297" y1="922.6094" y2="922.6094"/><text fill="#000000" font-family="sans-serif" font-size="14" font-weight="bold" lengthAdjust="spacingAndGlyphs" textLength="229" x="210.6297" y="915.5332">tictactoe.distributed.dispatchers</text><!--MD5=[ee7e9a007a7c4d40c0679a27f272732d]
cluster tictactoe.controllers--><polygon fill="#FFFFFF" filter="url(#fllpozxu3kmtz)" points="1932.6337,164.5,2080.6337,164.5,2087.6337,188.1094,2634.6337,188.1094,2634.6337,264.5,1932.6337,264.5,1932.6337,164.5" style="stroke: #000000; stroke-width: 1.5;"/><line style="stroke: #000000; stroke-width: 1.5;" x1="1932.6337" x2="2087.6337" y1="188.1094" y2="188.1094"/><text fill="#000000" font-family="sans-serif" font-size="14" font-weight="bold" lengthAdjust="spacingAndGlyphs" textLength="142" x="1936.6337" y="181.0332">tictactoe.controllers</text><!--MD5=[c52f45833d539af9e29a9d34b8b7302b]
cluster utils--><polygon fill="#FFFFFF" filter="url(#fllpozxu3kmtz)" points="753.6297,899,789.6297,899,796.6297,922.6094,853.6297,922.6094,853.6297,999,753.6297,999,753.6297,899" style="stroke: #000000; stroke-width: 1.5;"/><line style="stroke: #000000; stroke-width: 1.5;" x1="753.6297" x2="796.6297" y1="922.6094" y2="922.6094"/><text fill="#000000" font-family="sans-serif" font-size="14" font-weight="bold" lengthAdjust="spacingAndGlyphs" textLength="30" x="757.6297" y="915.5332">utils</text><!--MD5=[51cd642fcc96b47682a93d9084d46dec]
cluster tictactoe.models--><polygon fill="#FFFFFF" filter="url(#fllpozxu3kmtz)" points="1638.6337,328,1760.6337,328,1767.6337,351.6094,1770.6337,351.6094,1770.6337,428,1638.6337,428,1638.6337,328" style="stroke: #000000; stroke-width: 1.5;"/><line style="stroke: #000000; stroke-width: 1.5;" x1="1638.6337" x2="1767.6337" y1="351.6094" y2="351.6094"/><text fill="#000000" font-family="sans-serif" font-size="14" font-weight="bold" lengthAdjust="spacingAndGlyphs" textLength="116" x="1642.6337" y="344.5332">tictactoe.models</text><!--MD5=[807bc46d8103c809ff053af9e140e1f5]
cluster tictactoe--><polygon fill="#FFFFFF" filter="url(#fllpozxu3kmtz)" points="881.6297,6,948.6297,6,955.6297,29.6094,1003.6297,29.6094,1003.6297,106,881.6297,106,881.6297,6" style="stroke: #000000; stroke-width: 1.5;"/><line style="stroke: #000000; stroke-width: 1.5;" x1="881.6297" x2="955.6297" y1="29.6094" y2="29.6094"/><text fill="#000000" font-family="sans-serif" font-size="14" font-weight="bold" lengthAdjust="spacingAndGlyphs" textLength="61" x="885.6297" y="22.5332">tictactoe</text><!--MD5=[ee64cad9e60c97c58e2507b5e8951613]
class tictactoe.distributed.LogicImplementationServer--><rect fill="#FEFECE" filter="url(#fllpozxu3kmtz)" height="75.6719" id="tictactoe.distributed.LogicImplementationServer" style="stroke: #A80036; stroke-width: 1.5;" width="295" x="347.1297" y="350"/><ellipse cx="414.8797" cy="366" fill="#ADD1B2" rx="11" ry="11" style="stroke: #A80036; stroke-width: 1.0;"/><path d="M417.6453,361.875 Q417.8016,361.6563 417.9891,361.5469 Q418.1766,361.4375 418.3953,361.4375 Q418.7703,361.4375 419.0047,361.7031 Q419.2391,361.9531 419.2391,362.5625 L419.2391,364.0156 Q419.2391,364.625 419.0047,364.8906 Q418.7703,365.1563 418.3953,365.1563 Q418.0516,365.1563 417.8485,364.9531 Q417.6453,364.7656 417.536,364.25 Q417.4891,363.8906 417.3016,363.7031 Q416.9735,363.3281 416.3641,363.1094 Q415.7547,362.8906 415.1297,362.8906 Q414.3641,362.8906 413.7235,363.2188 Q413.0985,363.5469 412.5985,364.2969 Q412.1141,365.0469 412.1141,366.0781 L412.1141,367.1719 Q412.1141,368.4063 413.0047,369.2344 Q413.8953,370.0469 415.4891,370.0469 Q416.4266,370.0469 417.0828,369.7969 Q417.4735,369.6406 417.8953,369.2031 Q418.161,368.9375 418.3016,368.8594 Q418.4578,368.7813 418.661,368.7813 Q418.9891,368.7813 419.2391,369.0469 Q419.5047,369.2969 419.5047,369.6406 Q419.5047,369.9844 419.161,370.3906 Q418.661,370.9688 417.8641,371.2969 Q416.786,371.75 415.4891,371.75 Q413.9735,371.75 412.7703,371.125 Q411.786,370.625 411.0985,369.5625 Q410.411,368.4844 410.411,367.2031 L410.411,366.0469 Q410.411,364.7188 411.0203,363.5781 Q411.6453,362.4219 412.7391,361.8125 Q413.8328,361.1875 415.0672,361.1875 Q415.8016,361.1875 416.4422,361.3594 Q417.0985,361.5156 417.6453,361.875 Z "/><text fill="#000000" font-family="sans-serif" font-size="12" lengthAdjust="spacingAndGlyphs" textLength="151" x="435.3797" y="370.9102">LogicImplementationServer</text><line style="stroke: #A80036; stroke-width: 1.5;" x1="348.1297" x2="641.1297" y1="382" y2="382"/><line style="stroke: #A80036; stroke-width: 1.5;" x1="348.1297" x2="641.1297" y1="390" y2="390"/><ellipse cx="358.1297" cy="401" fill="#84BE84" rx="3" ry="3" style="stroke: #038048; stroke-width: 1.0;"/><text fill="#000000" font-family="sans-serif" font-size="11" lengthAdjust="spacingAndGlyphs" textLength="269" x="367.1297" y="405.4189">LogicImplementationServer(SessionImplementationDAO)</text><ellipse cx="358.1297" cy="414.8359" fill="#84BE84" rx="3" ry="3" style="stroke: #038048; stroke-width: 1.0;"/><text fill="#000000" font-family="sans-serif" font-size="11" lengthAdjust="spacingAndGlyphs" textLength="221" x="367.1297" y="419.2549">createDispatchers(DispatcherPrototype): void</text><!--MD5=[46db589fb040b8777b13689068a144db]
class tictactoe.distributed.LogicProxy--><rect fill="#FEFECE" filter="url(#fllpozxu3kmtz)" height="89.5078" id="tictactoe.distributed.LogicProxy" style="stroke: #A80036; stroke-width: 1.5;" width="91" x="897.1297" y="343"/><ellipse cx="912.1297" cy="359" fill="#ADD1B2" rx="11" ry="11" style="stroke: #A80036; stroke-width: 1.0;"/><path d="M914.8953,354.875 Q915.0516,354.6563 915.2391,354.5469 Q915.4266,354.4375 915.6453,354.4375 Q916.0203,354.4375 916.2547,354.7031 Q916.4891,354.9531 916.4891,355.5625 L916.4891,357.0156 Q916.4891,357.625 916.2547,357.8906 Q916.0203,358.1563 915.6453,358.1563 Q915.3016,358.1563 915.0985,357.9531 Q914.8953,357.7656 914.786,357.25 Q914.7391,356.8906 914.5516,356.7031 Q914.2235,356.3281 913.6141,356.1094 Q913.0047,355.8906 912.3797,355.8906 Q911.6141,355.8906 910.9735,356.2188 Q910.3485,356.5469 909.8485,357.2969 Q909.3641,358.0469 909.3641,359.0781 L909.3641,360.1719 Q909.3641,361.4063 910.2547,362.2344 Q911.1453,363.0469 912.7391,363.0469 Q913.6766,363.0469 914.3328,362.7969 Q914.7235,362.6406 915.1453,362.2031 Q915.411,361.9375 915.5516,361.8594 Q915.7078,361.7813 915.911,361.7813 Q916.2391,361.7813 916.4891,362.0469 Q916.7547,362.2969 916.7547,362.6406 Q916.7547,362.9844 916.411,363.3906 Q915.911,363.9688 915.1141,364.2969 Q914.036,364.75 912.7391,364.75 Q911.2235,364.75 910.0203,364.125 Q909.036,363.625 908.3485,362.5625 Q907.661,361.4844 907.661,360.2031 L907.661,359.0469 Q907.661,357.7188 908.2703,356.5781 Q908.8953,355.4219 909.9891,354.8125 Q911.0828,354.1875 912.3172,354.1875 Q913.0516,354.1875 913.6922,354.3594 Q914.3485,354.5156 914.8953,354.875 Z "/><text fill="#000000" font-family="sans-serif" font-size="12" lengthAdjust="spacingAndGlyphs" textLength="59" x="926.1297" y="363.9102">LogicProxy</text><line style="stroke: #A80036; stroke-width: 1.5;" x1="898.1297" x2="987.1297" y1="375" y2="375"/><rect fill="none" height="6" style="stroke: #C82930; stroke-width: 1.0;" width="6" x="905.1297" y="383"/><text fill="#000000" font-family="sans-serif" font-size="11" lengthAdjust="spacingAndGlyphs" textLength="56" x="917.1297" y="390.4189">tcpip: TCPIP</text><line style="stroke: #A80036; stroke-width: 1.5;" x1="898.1297" x2="987.1297" y1="396.8359" y2="396.8359"/><ellipse cx="908.1297" cy="407.8359" fill="#84BE84" rx="3" ry="3" style="stroke: #038048; stroke-width: 1.0;"/><text fill="#000000" font-family="sans-serif" font-size="11" lengthAdjust="spacingAndGlyphs" textLength="62" x="917.1297" y="412.2549">LogicProxy()</text><ellipse cx="908.1297" cy="421.6719" fill="#84BE84" rx="3" ry="3" style="stroke: #038048; stroke-width: 1.0;"/><text fill="#000000" font-family="sans-serif" font-size="11" lengthAdjust="spacingAndGlyphs" textLength="60" x="917.1297" y="426.0908">close(): void</text><!--MD5=[8ae3796e67c022c150040b77b6f1c8fc]
class tictactoe.distributed.SessionProxy--><rect fill="#FEFECE" filter="url(#fllpozxu3kmtz)" height="103.3438" id="tictactoe.distributed.SessionProxy" style="stroke: #A80036; stroke-width: 1.5;" width="161" x="585.1297" y="624.5"/><ellipse cx="624.4297" cy="640.5" fill="#ADD1B2" rx="11" ry="11" style="stroke: #A80036; stroke-width: 1.0;"/><path d="M627.1953,636.375 Q627.3516,636.1563 627.5391,636.0469 Q627.7266,635.9375 627.9453,635.9375 Q628.3203,635.9375 628.5547,636.2031 Q628.7891,636.4531 628.7891,637.0625 L628.7891,638.5156 Q628.7891,639.125 628.5547,639.3906 Q628.3203,639.6563 627.9453,639.6563 Q627.6016,639.6563 627.3985,639.4531 Q627.1953,639.2656 627.086,638.75 Q627.0391,638.3906 626.8516,638.2031 Q626.5235,637.8281 625.9141,637.6094 Q625.3047,637.3906 624.6797,637.3906 Q623.9141,637.3906 623.2735,637.7188 Q622.6485,638.0469 622.1485,638.7969 Q621.6641,639.5469 621.6641,640.5781 L621.6641,641.6719 Q621.6641,642.9063 622.5547,643.7344 Q623.4453,644.5469 625.0391,644.5469 Q625.9766,644.5469 626.6328,644.2969 Q627.0235,644.1406 627.4453,643.7031 Q627.711,643.4375 627.8516,643.3594 Q628.0078,643.2813 628.211,643.2813 Q628.5391,643.2813 628.7891,643.5469 Q629.0547,643.7969 629.0547,644.1406 Q629.0547,644.4844 628.711,644.8906 Q628.211,645.4688 627.4141,645.7969 Q626.336,646.25 625.0391,646.25 Q623.5235,646.25 622.3203,645.625 Q621.336,645.125 620.6485,644.0625 Q619.961,642.9844 619.961,641.7031 L619.961,640.5469 Q619.961,639.2188 620.5703,638.0781 Q621.1953,636.9219 622.2891,636.3125 Q623.3828,635.6875 624.6172,635.6875 Q625.3516,635.6875 625.9922,635.8594 Q626.6485,636.0156 627.1953,636.375 Z "/><text fill="#000000" font-family="sans-serif" font-size="12" lengthAdjust="spacingAndGlyphs" textLength="75" x="643.8297" y="645.4102">SessionProxy</text><line style="stroke: #A80036; stroke-width: 1.5;" x1="586.1297" x2="745.1297" y1="656.5" y2="656.5"/><rect fill="none" height="6" style="stroke: #C82930; stroke-width: 1.0;" width="6" x="593.1297" y="664.5"/><text fill="#000000" font-family="sans-serif" font-size="11" lengthAdjust="spacingAndGlyphs" textLength="56" x="605.1297" y="671.9189">tcpip: TCPIP</text><line style="stroke: #A80036; stroke-width: 1.5;" x1="586.1297" x2="745.1297" y1="678.3359" y2="678.3359"/><ellipse cx="596.1297" cy="689.3359" fill="#84BE84" rx="3" ry="3" style="stroke: #038048; stroke-width: 1.0;"/><text fill="#000000" font-family="sans-serif" font-size="11" lengthAdjust="spacingAndGlyphs" textLength="102" x="605.1297" y="693.7549">SessionProxy(TCPIP)</text><ellipse cx="596.1297" cy="703.1719" fill="#84BE84" rx="3" ry="3" style="stroke: #038048; stroke-width: 1.0;"/><text fill="#000000" font-family="sans-serif" font-size="11" lengthAdjust="spacingAndGlyphs" textLength="135" x="605.1297" y="707.5908">getValueState(): StateValue</text><ellipse cx="596.1297" cy="717.0078" fill="#84BE84" rx="3" ry="3" style="stroke: #038048; stroke-width: 1.0;"/><text fill="#000000" font-family="sans-serif" font-size="11" lengthAdjust="spacingAndGlyphs" textLength="67" x="605.1297" y="721.4268">getWidth(): int</text><!--MD5=[d29205834c3a61e3282a3f89120c7384]
class tictactoe.distributed.ResumeControllerProxy--><rect fill="#FEFECE" filter="url(#fllpozxu3kmtz)" height="89.5078" id="tictactoe.distributed.ResumeControllerProxy" style="stroke: #A80036; stroke-width: 1.5;" width="219" x="1139.1337" y="631"/><ellipse cx="1179.3337" cy="647" fill="#ADD1B2" rx="11" ry="11" style="stroke: #A80036; stroke-width: 1.0;"/><path d="M1182.0993,642.875 Q1182.2556,642.6563 1182.4431,642.5469 Q1182.6306,642.4375 1182.8493,642.4375 Q1183.2243,642.4375 1183.4587,642.7031 Q1183.6931,642.9531 1183.6931,643.5625 L1183.6931,645.0156 Q1183.6931,645.625 1183.4587,645.8906 Q1183.2243,646.1563 1182.8493,646.1563 Q1182.5056,646.1563 1182.3025,645.9531 Q1182.0993,645.7656 1181.99,645.25 Q1181.9431,644.8906 1181.7556,644.7031 Q1181.4275,644.3281 1180.8181,644.1094 Q1180.2087,643.8906 1179.5837,643.8906 Q1178.8181,643.8906 1178.1775,644.2188 Q1177.5525,644.5469 1177.0525,645.2969 Q1176.5681,646.0469 1176.5681,647.0781 L1176.5681,648.1719 Q1176.5681,649.4063 1177.4587,650.2344 Q1178.3493,651.0469 1179.9431,651.0469 Q1180.8806,651.0469 1181.5368,650.7969 Q1181.9275,650.6406 1182.3493,650.2031 Q1182.615,649.9375 1182.7556,649.8594 Q1182.9118,649.7813 1183.115,649.7813 Q1183.4431,649.7813 1183.6931,650.0469 Q1183.9587,650.2969 1183.9587,650.6406 Q1183.9587,650.9844 1183.615,651.3906 Q1183.115,651.9688 1182.3181,652.2969 Q1181.24,652.75 1179.9431,652.75 Q1178.4275,652.75 1177.2243,652.125 Q1176.24,651.625 1175.5525,650.5625 Q1174.865,649.4844 1174.865,648.2031 L1174.865,647.0469 Q1174.865,645.7188 1175.4743,644.5781 Q1176.0993,643.4219 1177.1931,642.8125 Q1178.2868,642.1875 1179.5212,642.1875 Q1180.2556,642.1875 1180.8962,642.3594 Q1181.5525,642.5156 1182.0993,642.875 Z "/><text fill="#000000" font-family="sans-serif" font-size="12" lengthAdjust="spacingAndGlyphs" textLength="131" x="1198.9337" y="651.9102">ResumeControllerProxy</text><line style="stroke: #A80036; stroke-width: 1.5;" x1="1140.1337" x2="1357.1337" y1="663" y2="663"/><rect fill="none" height="6" style="stroke: #C82930; stroke-width: 1.0;" width="6" x="1147.1337" y="671"/><text fill="#000000" font-family="sans-serif" font-size="11" lengthAdjust="spacingAndGlyphs" textLength="56" x="1159.1337" y="678.4189">tcpip: TCPIP</text><line style="stroke: #A80036; stroke-width: 1.5;" x1="1140.1337" x2="1357.1337" y1="684.8359" y2="684.8359"/><ellipse cx="1150.1337" cy="695.8359" fill="#84BE84" rx="3" ry="3" style="stroke: #038048; stroke-width: 1.0;"/><text fill="#000000" font-family="sans-serif" font-size="11" lengthAdjust="spacingAndGlyphs" textLength="193" x="1159.1337" y="700.2549">ResumeControllerProxy(Session, TCPIP)</text><ellipse cx="1150.1337" cy="709.6719" fill="#84BE84" rx="3" ry="3" style="stroke: #038048; stroke-width: 1.0;"/><text fill="#000000" font-family="sans-serif" font-size="11" lengthAdjust="spacingAndGlyphs" textLength="70" x="1159.1337" y="714.0908">resume(): void</text><!--MD5=[32643bbab8d0e578b12bbe8803f18baf]
class tictactoe.distributed.StartControllerProxy--><rect fill="#FEFECE" filter="url(#fllpozxu3kmtz)" height="131.0156" id="tictactoe.distributed.StartControllerProxy" style="stroke: #A80036; stroke-width: 1.5;" width="203" x="347.1297" y="610.5"/><ellipse cx="390.4797" cy="626.5" fill="#ADD1B2" rx="11" ry="11" style="stroke: #A80036; stroke-width: 1.0;"/><path d="M393.2453,622.375 Q393.4016,622.1563 393.5891,622.0469 Q393.7766,621.9375 393.9953,621.9375 Q394.3703,621.9375 394.6047,622.2031 Q394.8391,622.4531 394.8391,623.0625 L394.8391,624.5156 Q394.8391,625.125 394.6047,625.3906 Q394.3703,625.6563 393.9953,625.6563 Q393.6516,625.6563 393.4485,625.4531 Q393.2453,625.2656 393.136,624.75 Q393.0891,624.3906 392.9016,624.2031 Q392.5735,623.8281 391.9641,623.6094 Q391.3547,623.3906 390.7297,623.3906 Q389.9641,623.3906 389.3235,623.7188 Q388.6985,624.0469 388.1985,624.7969 Q387.7141,625.5469 387.7141,626.5781 L387.7141,627.6719 Q387.7141,628.9063 388.6047,629.7344 Q389.4953,630.5469 391.0891,630.5469 Q392.0266,630.5469 392.6828,630.2969 Q393.0735,630.1406 393.4953,629.7031 Q393.761,629.4375 393.9016,629.3594 Q394.0578,629.2813 394.261,629.2813 Q394.5891,629.2813 394.8391,629.5469 Q395.1047,629.7969 395.1047,630.1406 Q395.1047,630.4844 394.761,630.8906 Q394.261,631.4688 393.4641,631.7969 Q392.386,632.25 391.0891,632.25 Q389.5735,632.25 388.3703,631.625 Q387.386,631.125 386.6985,630.0625 Q386.011,628.9844 386.011,627.7031 L386.011,626.5469 Q386.011,625.2188 386.6203,624.0781 Q387.2453,622.9219 388.3391,622.3125 Q389.4328,621.6875 390.6672,621.6875 Q391.4016,621.6875 392.0422,621.8594 Q392.6985,622.0156 393.2453,622.375 Z "/><text fill="#000000" font-family="sans-serif" font-size="12" lengthAdjust="spacingAndGlyphs" textLength="108" x="410.7797" y="631.4102">StartControllerProxy</text><line style="stroke: #A80036; stroke-width: 1.5;" x1="348.1297" x2="549.1297" y1="642.5" y2="642.5"/><rect fill="none" height="6" style="stroke: #C82930; stroke-width: 1.0;" width="6" x="355.1297" y="650.5"/><text fill="#000000" font-family="sans-serif" font-size="11" lengthAdjust="spacingAndGlyphs" textLength="56" x="367.1297" y="657.9189">tcpip: TCPIP</text><line style="stroke: #A80036; stroke-width: 1.5;" x1="348.1297" x2="549.1297" y1="664.3359" y2="664.3359"/><ellipse cx="358.1297" cy="675.3359" fill="#84BE84" rx="3" ry="3" style="stroke: #038048; stroke-width: 1.0;"/><text fill="#000000" font-family="sans-serif" font-size="11" lengthAdjust="spacingAndGlyphs" textLength="177" x="367.1297" y="679.7549">StartControllerProxy(TCPIP, Session)</text><ellipse cx="358.1297" cy="689.1719" fill="#84BE84" rx="3" ry="3" style="stroke: #038048; stroke-width: 1.0;"/><text fill="#000000" font-family="sans-serif" font-size="11" lengthAdjust="spacingAndGlyphs" textLength="56" x="367.1297" y="693.5908">start(): void</text><ellipse cx="358.1297" cy="703.0078" fill="#84BE84" rx="3" ry="3" style="stroke: #038048; stroke-width: 1.0;"/><text fill="#000000" font-family="sans-serif" font-size="11" lengthAdjust="spacingAndGlyphs" textLength="84" x="367.1297" y="707.4268">start(String): void</text><ellipse cx="358.1297" cy="716.8438" fill="#84BE84" rx="3" ry="3" style="stroke: #038048; stroke-width: 1.0;"/><text fill="#000000" font-family="sans-serif" font-size="11" lengthAdjust="spacingAndGlyphs" textLength="112" x="367.1297" y="721.2627">createPlayers(int): void</text><ellipse cx="358.1297" cy="730.6797" fill="#84BE84" rx="3" ry="3" style="stroke: #038048; stroke-width: 1.0;"/><text fill="#000000" font-family="sans-serif" font-size="11" lengthAdjust="spacingAndGlyphs" textLength="130" x="367.1297" y="735.0986">getGamesNames(): String[]</text><!--MD5=[82b27bbcf8d0b0a3978f76c672d30087]
class tictactoe.distributed.PlayControllerProxy--><rect fill="#FEFECE" filter="url(#fllpozxu3kmtz)" height="366.2266" id="tictactoe.distributed.PlayControllerProxy" style="stroke: #A80036; stroke-width: 1.5;" width="322" x="781.6297" y="493"/><ellipse cx="885.3797" cy="509" fill="#ADD1B2" rx="11" ry="11" style="stroke: #A80036; stroke-width: 1.0;"/><path d="M888.1453,504.875 Q888.3016,504.6563 888.4891,504.5469 Q888.6766,504.4375 888.8953,504.4375 Q889.2703,504.4375 889.5047,504.7031 Q889.7391,504.9531 889.7391,505.5625 L889.7391,507.0156 Q889.7391,507.625 889.5047,507.8906 Q889.2703,508.1563 888.8953,508.1563 Q888.5516,508.1563 888.3485,507.9531 Q888.1453,507.7656 888.036,507.25 Q887.9891,506.8906 887.8016,506.7031 Q887.4735,506.3281 886.8641,506.1094 Q886.2547,505.8906 885.6297,505.8906 Q884.8641,505.8906 884.2235,506.2188 Q883.5985,506.5469 883.0985,507.2969 Q882.6141,508.0469 882.6141,509.0781 L882.6141,510.1719 Q882.6141,511.4063 883.5047,512.2344 Q884.3953,513.0469 885.9891,513.0469 Q886.9266,513.0469 887.5828,512.7969 Q887.9735,512.6406 888.3953,512.2031 Q888.661,511.9375 888.8016,511.8594 Q888.9578,511.7813 889.161,511.7813 Q889.4891,511.7813 889.7391,512.0469 Q890.0047,512.2969 890.0047,512.6406 Q890.0047,512.9844 889.661,513.3906 Q889.161,513.9688 888.3641,514.2969 Q887.286,514.75 885.9891,514.75 Q884.4735,514.75 883.2703,514.125 Q882.286,513.625 881.5985,512.5625 Q880.911,511.4844 880.911,510.2031 L880.911,509.0469 Q880.911,507.7188 881.5203,506.5781 Q882.1453,505.4219 883.2391,504.8125 Q884.3328,504.1875 885.5672,504.1875 Q886.3016,504.1875 886.9422,504.3594 Q887.5985,504.5156 888.1453,504.875 Z "/><text fill="#000000" font-family="sans-serif" font-size="12" lengthAdjust="spacingAndGlyphs" textLength="106" x="905.8797" y="513.9102">PlayControllerProxy</text><line style="stroke: #A80036; stroke-width: 1.5;" x1="782.6297" x2="1102.6297" y1="525" y2="525"/><rect fill="none" height="6" style="stroke: #C82930; stroke-width: 1.0;" width="6" x="789.6297" y="533"/><text fill="#000000" font-family="sans-serif" font-size="11" lengthAdjust="spacingAndGlyphs" textLength="56" x="801.6297" y="540.4189">tcpip: TCPIP</text><line style="stroke: #A80036; stroke-width: 1.5;" x1="782.6297" x2="1102.6297" y1="546.8359" y2="546.8359"/><ellipse cx="792.6297" cy="557.8359" fill="#84BE84" rx="3" ry="3" style="stroke: #038048; stroke-width: 1.0;"/><text fill="#000000" font-family="sans-serif" font-size="11" lengthAdjust="spacingAndGlyphs" textLength="174" x="801.6297" y="562.2549">PlayControllerProxy(TCPIP, Session)</text><ellipse cx="792.6297" cy="571.6719" fill="#84BE84" rx="3" ry="3" style="stroke: #038048; stroke-width: 1.0;"/><text fill="#000000" font-family="sans-serif" font-size="11" lengthAdjust="spacingAndGlyphs" textLength="58" x="801.6297" y="576.0908">undo(): void</text><ellipse cx="792.6297" cy="585.5078" fill="#84BE84" rx="3" ry="3" style="stroke: #038048; stroke-width: 1.0;"/><text fill="#000000" font-family="sans-serif" font-size="11" lengthAdjust="spacingAndGlyphs" textLength="56" x="801.6297" y="589.9268">redo(): void</text><ellipse cx="792.6297" cy="599.3438" fill="#84BE84" rx="3" ry="3" style="stroke: #038048; stroke-width: 1.0;"/><text fill="#000000" font-family="sans-serif" font-size="11" lengthAdjust="spacingAndGlyphs" textLength="55" x="801.6297" y="603.7627">next(): void</text><ellipse cx="792.6297" cy="613.1797" fill="#84BE84" rx="3" ry="3" style="stroke: #038048; stroke-width: 1.0;"/><text fill="#000000" font-family="sans-serif" font-size="11" lengthAdjust="spacingAndGlyphs" textLength="96" x="801.6297" y="617.5986">undoable(): boolean</text><ellipse cx="792.6297" cy="627.0156" fill="#84BE84" rx="3" ry="3" style="stroke: #038048; stroke-width: 1.0;"/><text fill="#000000" font-family="sans-serif" font-size="11" lengthAdjust="spacingAndGlyphs" textLength="94" x="801.6297" y="631.4346">redoable(): boolean</text><ellipse cx="792.6297" cy="640.8516" fill="#84BE84" rx="3" ry="3" style="stroke: #038048; stroke-width: 1.0;"/><text fill="#000000" font-family="sans-serif" font-size="11" lengthAdjust="spacingAndGlyphs" textLength="224" x="801.6297" y="645.2705">getTypeOfTokenPlayerFromTurn(): PlayerType</text><ellipse cx="792.6297" cy="654.6875" fill="#84BE84" rx="3" ry="3" style="stroke: #038048; stroke-width: 1.0;"/><text fill="#000000" font-family="sans-serif" font-size="11" lengthAdjust="spacingAndGlyphs" textLength="196" x="801.6297" y="659.1064">getPutCoordinateError(Coordinate): Error</text><ellipse cx="792.6297" cy="668.5234" fill="#84BE84" rx="3" ry="3" style="stroke: #038048; stroke-width: 1.0;"/><text fill="#000000" font-family="sans-serif" font-size="11" lengthAdjust="spacingAndGlyphs" textLength="235" x="801.6297" y="672.9424">getMoveOriginCoordinateError(Coordinate): Error</text><ellipse cx="792.6297" cy="682.3594" fill="#84BE84" rx="3" ry="3" style="stroke: #038048; stroke-width: 1.0;"/><text fill="#000000" font-family="sans-serif" font-size="11" lengthAdjust="spacingAndGlyphs" textLength="296" x="801.6297" y="686.7783">getMoveTargetCoordinateError(Coordinate, Coordinate): Error</text><ellipse cx="792.6297" cy="696.1953" fill="#84BE84" rx="3" ry="3" style="stroke: #038048; stroke-width: 1.0;"/><text fill="#000000" font-family="sans-serif" font-size="11" lengthAdjust="spacingAndGlyphs" textLength="188" x="801.6297" y="700.6143">isCoordinateValid(Coordinate): boolean</text><ellipse cx="792.6297" cy="710.0313" fill="#84BE84" rx="3" ry="3" style="stroke: #038048; stroke-width: 1.0;"/><text fill="#000000" font-family="sans-serif" font-size="11" lengthAdjust="spacingAndGlyphs" textLength="200" x="801.6297" y="714.4502">generateRandomCoordinate(): Coordinate</text><ellipse cx="792.6297" cy="723.8672" fill="#84BE84" rx="3" ry="3" style="stroke: #038048; stroke-width: 1.0;"/><text fill="#000000" font-family="sans-serif" font-size="11" lengthAdjust="spacingAndGlyphs" textLength="133" x="801.6297" y="728.2861">isBoardComplete(): boolean</text><ellipse cx="792.6297" cy="737.7031" fill="#84BE84" rx="3" ry="3" style="stroke: #038048; stroke-width: 1.0;"/><text fill="#000000" font-family="sans-serif" font-size="11" lengthAdjust="spacingAndGlyphs" textLength="206" x="801.6297" y="742.1221">putTokenPlayerFromTurn(Coordinate): void</text><ellipse cx="792.6297" cy="751.5391" fill="#84BE84" rx="3" ry="3" style="stroke: #038048; stroke-width: 1.0;"/><text fill="#000000" font-family="sans-serif" font-size="11" lengthAdjust="spacingAndGlyphs" textLength="223" x="801.6297" y="755.958">moveTokenPlayerFromTurn(Coordinate[]): void</text><ellipse cx="792.6297" cy="765.375" fill="#84BE84" rx="3" ry="3" style="stroke: #038048; stroke-width: 1.0;"/><text fill="#000000" font-family="sans-serif" font-size="11" lengthAdjust="spacingAndGlyphs" textLength="92" x="801.6297" y="769.7939">changeTurn(): void</text><ellipse cx="792.6297" cy="779.2109" fill="#84BE84" rx="3" ry="3" style="stroke: #038048; stroke-width: 1.0;"/><text fill="#000000" font-family="sans-serif" font-size="11" lengthAdjust="spacingAndGlyphs" textLength="155" x="801.6297" y="783.6299">getTokenChar(Coordinate): char</text><ellipse cx="792.6297" cy="793.0469" fill="#84BE84" rx="3" ry="3" style="stroke: #038048; stroke-width: 1.0;"/><text fill="#000000" font-family="sans-serif" font-size="11" lengthAdjust="spacingAndGlyphs" textLength="170" x="801.6297" y="797.4658">isEmptyToken(Coordinate): boolean</text><ellipse cx="792.6297" cy="806.8828" fill="#84BE84" rx="3" ry="3" style="stroke: #038048; stroke-width: 1.0;"/><text fill="#000000" font-family="sans-serif" font-size="11" lengthAdjust="spacingAndGlyphs" textLength="114" x="801.6297" y="811.3018">getValueFromTurn(): int</text><ellipse cx="792.6297" cy="820.7188" fill="#84BE84" rx="3" ry="3" style="stroke: #038048; stroke-width: 1.0;"/><text fill="#000000" font-family="sans-serif" font-size="11" lengthAdjust="spacingAndGlyphs" textLength="100" x="801.6297" y="825.1377">continueState(): void</text><ellipse cx="792.6297" cy="834.5547" fill="#84BE84" rx="3" ry="3" style="stroke: #038048; stroke-width: 1.0;"/><text fill="#000000" font-family="sans-serif" font-size="11" lengthAdjust="spacingAndGlyphs" textLength="141" x="801.6297" y="838.9736">getCoordinateDimension(): int</text><ellipse cx="792.6297" cy="848.3906" fill="#84BE84" rx="3" ry="3" style="stroke: #038048; stroke-width: 1.0;"/><text fill="#000000" font-family="sans-serif" font-size="11" lengthAdjust="spacingAndGlyphs" textLength="110" x="801.6297" y="852.8096">isTicTacToe(): boolean</text><!--MD5=[2f7970fa10c54139aaf9198a5f8ecb7b]
class tictactoe.distributed.SaveControllerProxy--><rect fill="#FEFECE" filter="url(#fllpozxu3kmtz)" height="144.8516" id="tictactoe.distributed.SaveControllerProxy" style="stroke: #A80036; stroke-width: 1.5;" width="205" x="1393.1337" y="603.5"/><ellipse cx="1436.4837" cy="619.5" fill="#ADD1B2" rx="11" ry="11" style="stroke: #A80036; stroke-width: 1.0;"/><path d="M1439.2493,615.375 Q1439.4056,615.1563 1439.5931,615.0469 Q1439.7806,614.9375 1439.9993,614.9375 Q1440.3743,614.9375 1440.6087,615.2031 Q1440.8431,615.4531 1440.8431,616.0625 L1440.8431,617.5156 Q1440.8431,618.125 1440.6087,618.3906 Q1440.3743,618.6563 1439.9993,618.6563 Q1439.6556,618.6563 1439.4524,618.4531 Q1439.2493,618.2656 1439.1399,617.75 Q1439.0931,617.3906 1438.9056,617.2031 Q1438.5774,616.8281 1437.9681,616.6094 Q1437.3587,616.3906 1436.7337,616.3906 Q1435.9681,616.3906 1435.3274,616.7188 Q1434.7024,617.0469 1434.2024,617.7969 Q1433.7181,618.5469 1433.7181,619.5781 L1433.7181,620.6719 Q1433.7181,621.9063 1434.6087,622.7344 Q1435.4993,623.5469 1437.0931,623.5469 Q1438.0306,623.5469 1438.6868,623.2969 Q1439.0774,623.1406 1439.4993,622.7031 Q1439.7649,622.4375 1439.9056,622.3594 Q1440.0618,622.2813 1440.2649,622.2813 Q1440.5931,622.2813 1440.8431,622.5469 Q1441.1087,622.7969 1441.1087,623.1406 Q1441.1087,623.4844 1440.7649,623.8906 Q1440.2649,624.4688 1439.4681,624.7969 Q1438.3899,625.25 1437.0931,625.25 Q1435.5774,625.25 1434.3743,624.625 Q1433.3899,624.125 1432.7024,623.0625 Q1432.0149,621.9844 1432.0149,620.7031 L1432.0149,619.5469 Q1432.0149,618.2188 1432.6243,617.0781 Q1433.2493,615.9219 1434.3431,615.3125 Q1435.4368,614.6875 1436.6712,614.6875 Q1437.4056,614.6875 1438.0462,614.8594 Q1438.7024,615.0156 1439.2493,615.375 Z "/><text fill="#000000" font-family="sans-serif" font-size="12" lengthAdjust="spacingAndGlyphs" textLength="110" x="1456.7837" y="624.4102">SaveControllerProxy</text><line style="stroke: #A80036; stroke-width: 1.5;" x1="1394.1337" x2="1597.1337" y1="635.5" y2="635.5"/><rect fill="none" height="6" style="stroke: #C82930; stroke-width: 1.0;" width="6" x="1401.1337" y="643.5"/><text fill="#000000" font-family="sans-serif" font-size="11" lengthAdjust="spacingAndGlyphs" textLength="56" x="1413.1337" y="650.9189">tcpip: TCPIP</text><line style="stroke: #A80036; stroke-width: 1.5;" x1="1394.1337" x2="1597.1337" y1="657.3359" y2="657.3359"/><polygon fill="#4177AF" points="1404.1337,664.3359,1400.1337,670.3359,1408.1337,670.3359" style="stroke: #1963A0; stroke-width: 1.0;"/><text fill="#000000" font-family="sans-serif" font-size="11" lengthAdjust="spacingAndGlyphs" textLength="179" x="1413.1337" y="672.7549">SaveControllerProxy(TCPIP, Session)</text><ellipse cx="1404.1337" cy="682.1719" fill="#84BE84" rx="3" ry="3" style="stroke: #038048; stroke-width: 1.0;"/><text fill="#000000" font-family="sans-serif" font-size="11" lengthAdjust="spacingAndGlyphs" textLength="55" x="1413.1337" y="686.5908">next(): void</text><ellipse cx="1404.1337" cy="696.0078" fill="#84BE84" rx="3" ry="3" style="stroke: #038048; stroke-width: 1.0;"/><text fill="#000000" font-family="sans-serif" font-size="11" lengthAdjust="spacingAndGlyphs" textLength="58" x="1413.1337" y="700.4268">save(): void</text><ellipse cx="1404.1337" cy="709.8438" fill="#84BE84" rx="3" ry="3" style="stroke: #038048; stroke-width: 1.0;"/><text fill="#000000" font-family="sans-serif" font-size="11" lengthAdjust="spacingAndGlyphs" textLength="86" x="1413.1337" y="714.2627">save(String): void</text><ellipse cx="1404.1337" cy="723.6797" fill="#84BE84" rx="3" ry="3" style="stroke: #038048; stroke-width: 1.0;"/><text fill="#000000" font-family="sans-serif" font-size="11" lengthAdjust="spacingAndGlyphs" textLength="109" x="1413.1337" y="728.0986">exists(String): boolean</text><ellipse cx="1404.1337" cy="737.5156" fill="#84BE84" rx="3" ry="3" style="stroke: #038048; stroke-width: 1.0;"/><text fill="#000000" font-family="sans-serif" font-size="11" lengthAdjust="spacingAndGlyphs" textLength="97" x="1413.1337" y="741.9346">hasName(): boolean</text><!--MD5=[21ce6f728e254c893f5541ef309b6f4c]
class tictactoe.distributed.TicTacToeClient--><rect fill="#FEFECE" filter="url(#fllpozxu3kmtz)" height="117.1797" id="tictactoe.distributed.TicTacToeClient" style="stroke: #A80036; stroke-width: 1.5;" width="136" x="874.6297" y="166"/><ellipse cx="896.3797" cy="182" fill="#ADD1B2" rx="11" ry="11" style="stroke: #A80036; stroke-width: 1.0;"/><path d="M899.1453,177.875 Q899.3016,177.6563 899.4891,177.5469 Q899.6766,177.4375 899.8953,177.4375 Q900.2703,177.4375 900.5047,177.7031 Q900.7391,177.9531 900.7391,178.5625 L900.7391,180.0156 Q900.7391,180.625 900.5047,180.8906 Q900.2703,181.1563 899.8953,181.1563 Q899.5516,181.1563 899.3485,180.9531 Q899.1453,180.7656 899.036,180.25 Q898.9891,179.8906 898.8016,179.7031 Q898.4735,179.3281 897.8641,179.1094 Q897.2547,178.8906 896.6297,178.8906 Q895.8641,178.8906 895.2235,179.2188 Q894.5985,179.5469 894.0985,180.2969 Q893.6141,181.0469 893.6141,182.0781 L893.6141,183.1719 Q893.6141,184.4063 894.5047,185.2344 Q895.3953,186.0469 896.9891,186.0469 Q897.9266,186.0469 898.5828,185.7969 Q898.9735,185.6406 899.3953,185.2031 Q899.661,184.9375 899.8016,184.8594 Q899.9578,184.7813 900.161,184.7813 Q900.4891,184.7813 900.7391,185.0469 Q901.0047,185.2969 901.0047,185.6406 Q901.0047,185.9844 900.661,186.3906 Q900.161,186.9688 899.3641,187.2969 Q898.286,187.75 896.9891,187.75 Q895.4735,187.75 894.2703,187.125 Q893.286,186.625 892.5985,185.5625 Q891.911,184.4844 891.911,183.2031 L891.911,182.0469 Q891.911,180.7188 892.5203,179.5781 Q893.1453,178.4219 894.2391,177.8125 Q895.3328,177.1875 896.5672,177.1875 Q897.3016,177.1875 897.9422,177.3594 Q898.5985,177.5156 899.1453,177.875 Z "/><text fill="#000000" font-family="sans-serif" font-size="12" lengthAdjust="spacingAndGlyphs" textLength="89" x="911.8797" y="186.9102">TicTacToeClient</text><line style="stroke: #A80036; stroke-width: 1.5;" x1="875.6297" x2="1009.6297" y1="198" y2="198"/><rect fill="none" height="6" style="stroke: #C82930; stroke-width: 1.0;" width="6" x="882.6297" y="206"/><text fill="#000000" font-family="sans-serif" font-size="11" lengthAdjust="spacingAndGlyphs" textLength="110" x="894.6297" y="213.4189">logicProxy: LogicProxy</text><line style="stroke: #A80036; stroke-width: 1.5;" x1="875.6297" x2="1009.6297" y1="219.8359" y2="219.8359"/><ellipse cx="885.6297" cy="230.8359" fill="#84BE84" rx="3" ry="3" style="stroke: #038048; stroke-width: 1.0;"/><text fill="#000000" font-family="sans-serif" font-size="11" lengthAdjust="spacingAndGlyphs" textLength="84" x="894.6297" y="235.2549">TicTacToeClient()</text><ellipse cx="885.6297" cy="244.6719" fill="#84BE84" rx="3" ry="3" style="stroke: #038048; stroke-width: 1.0;"/><text fill="#000000" font-family="sans-serif" font-size="11" lengthAdjust="spacingAndGlyphs" text-decoration="underline" textLength="90" x="894.6297" y="249.0908">main(String[]): void</text><polygon fill="#FFFF44" points="885.6297,253.5078,889.6297,257.5078,885.6297,261.5078,881.6297,257.5078" style="stroke: #B38D22; stroke-width: 1.0;"/><text fill="#000000" font-family="sans-serif" font-size="11" lengthAdjust="spacingAndGlyphs" textLength="97" x="894.6297" y="262.9268">createLogic(): Logic</text><polygon fill="#FFFF44" points="885.6297,267.3438,889.6297,271.3438,885.6297,275.3438,881.6297,271.3438" style="stroke: #B38D22; stroke-width: 1.0;"/><text fill="#000000" font-family="sans-serif" font-size="11" lengthAdjust="spacingAndGlyphs" textLength="54" x="894.6297" y="276.7627">play(): void</text><!--MD5=[73a32bc9a7664473c71614b3b73eef7b]
class tictactoe.distributed.TicTacToeServer--><rect fill="#FEFECE" filter="url(#fllpozxu3kmtz)" height="117.1797" id="tictactoe.distributed.TicTacToeServer" style="stroke: #A80036; stroke-width: 1.5;" width="227" x="364.1297" y="166"/><ellipse cx="427.3797" cy="182" fill="#ADD1B2" rx="11" ry="11" style="stroke: #A80036; stroke-width: 1.0;"/><path d="M430.1453,177.875 Q430.3016,177.6563 430.4891,177.5469 Q430.6766,177.4375 430.8953,177.4375 Q431.2703,177.4375 431.5047,177.7031 Q431.7391,177.9531 431.7391,178.5625 L431.7391,180.0156 Q431.7391,180.625 431.5047,180.8906 Q431.2703,181.1563 430.8953,181.1563 Q430.5516,181.1563 430.3485,180.9531 Q430.1453,180.7656 430.036,180.25 Q429.9891,179.8906 429.8016,179.7031 Q429.4735,179.3281 428.8641,179.1094 Q428.2547,178.8906 427.6297,178.8906 Q426.8641,178.8906 426.2235,179.2188 Q425.5985,179.5469 425.0985,180.2969 Q424.6141,181.0469 424.6141,182.0781 L424.6141,183.1719 Q424.6141,184.4063 425.5047,185.2344 Q426.3953,186.0469 427.9891,186.0469 Q428.9266,186.0469 429.5828,185.7969 Q429.9735,185.6406 430.3953,185.2031 Q430.661,184.9375 430.8016,184.8594 Q430.9578,184.7813 431.161,184.7813 Q431.4891,184.7813 431.7391,185.0469 Q432.0047,185.2969 432.0047,185.6406 Q432.0047,185.9844 431.661,186.3906 Q431.161,186.9688 430.3641,187.2969 Q429.286,187.75 427.9891,187.75 Q426.4735,187.75 425.2703,187.125 Q424.286,186.625 423.5985,185.5625 Q422.911,184.4844 422.911,183.2031 L422.911,182.0469 Q422.911,180.7188 423.5203,179.5781 Q424.1453,178.4219 425.2391,177.8125 Q426.3328,177.1875 427.5672,177.1875 Q428.3016,177.1875 428.9422,177.3594 Q429.5985,177.5156 430.1453,177.875 Z "/><text fill="#000000" font-family="sans-serif" font-size="12" lengthAdjust="spacingAndGlyphs" textLength="92" x="447.8797" y="186.9102">TicTacToeServer</text><line style="stroke: #A80036; stroke-width: 1.5;" x1="365.1297" x2="590.1297" y1="198" y2="198"/><rect fill="none" height="6" style="stroke: #C82930; stroke-width: 1.0;" width="6" x="372.1297" y="206"/><text fill="#000000" font-family="sans-serif" font-size="11" lengthAdjust="spacingAndGlyphs" textLength="201" x="384.1297" y="213.4189">dispatcherPrototype: DispatcherPrototype</text><rect fill="none" height="6" style="stroke: #C82930; stroke-width: 1.0;" width="6" x="372.1297" y="219.8359"/><text fill="#000000" font-family="sans-serif" font-size="11" lengthAdjust="spacingAndGlyphs" textLength="87" x="384.1297" y="227.2549">logic: LogicServer</text><line style="stroke: #A80036; stroke-width: 1.5;" x1="365.1297" x2="590.1297" y1="233.6719" y2="233.6719"/><rect fill="#F24D5C" height="6" style="stroke: #C82930; stroke-width: 1.0;" width="6" x="372.1297" y="241.6719"/><text fill="#000000" font-family="sans-serif" font-size="11" lengthAdjust="spacingAndGlyphs" textLength="91" x="384.1297" y="249.0908">TicTacToeServer()</text><ellipse cx="375.1297" cy="258.5078" fill="#84BE84" rx="3" ry="3" style="stroke: #038048; stroke-width: 1.0;"/><text fill="#000000" font-family="sans-serif" font-size="11" lengthAdjust="spacingAndGlyphs" text-decoration="underline" textLength="90" x="384.1297" y="262.9268">main(String[]): void</text><rect fill="#F24D5C" height="6" style="stroke: #C82930; stroke-width: 1.0;" width="6" x="372.1297" y="269.3438"/><text fill="#000000" font-family="sans-serif" font-size="11" lengthAdjust="spacingAndGlyphs" textLength="62" x="384.1297" y="276.7627">serve(): void</text><!--MD5=[c333c1dfe43cc7b36e6e5cd610b33d4f]
class tictactoe.controllers.implementation.LogicImplementation--><rect fill="#FEFECE" filter="url(#fllpozxu3kmtz)" height="48" id="tictactoe.controllers.implementation.LogicImplementation" style="stroke: #A80036; stroke-width: 1.5;" width="148" x="1654.6337" y="200.5"/><ellipse cx="1669.6337" cy="216.5" fill="#ADD1B2" rx="11" ry="11" style="stroke: #A80036; stroke-width: 1.0;"/><path d="M1672.3993,212.375 Q1672.5556,212.1563 1672.7431,212.0469 Q1672.9306,211.9375 1673.1493,211.9375 Q1673.5243,211.9375 1673.7587,212.2031 Q1673.9931,212.4531 1673.9931,213.0625 L1673.9931,214.5156 Q1673.9931,215.125 1673.7587,215.3906 Q1673.5243,215.6563 1673.1493,215.6563 Q1672.8056,215.6563 1672.6024,215.4531 Q1672.3993,215.2656 1672.2899,214.75 Q1672.2431,214.3906 1672.0556,214.2031 Q1671.7274,213.8281 1671.1181,213.6094 Q1670.5087,213.3906 1669.8837,213.3906 Q1669.1181,213.3906 1668.4774,213.7188 Q1667.8524,214.0469 1667.3524,214.7969 Q1666.8681,215.5469 1666.8681,216.5781 L1666.8681,217.6719 Q1666.8681,218.9063 1667.7587,219.7344 Q1668.6493,220.5469 1670.2431,220.5469 Q1671.1806,220.5469 1671.8368,220.2969 Q1672.2274,220.1406 1672.6493,219.7031 Q1672.9149,219.4375 1673.0556,219.3594 Q1673.2118,219.2813 1673.4149,219.2813 Q1673.7431,219.2813 1673.9931,219.5469 Q1674.2587,219.7969 1674.2587,220.1406 Q1674.2587,220.4844 1673.9149,220.8906 Q1673.4149,221.4688 1672.6181,221.7969 Q1671.5399,222.25 1670.2431,222.25 Q1668.7274,222.25 1667.5243,221.625 Q1666.5399,221.125 1665.8524,220.0625 Q1665.1649,218.9844 1665.1649,217.7031 L1665.1649,216.5469 Q1665.1649,215.2188 1665.7743,214.0781 Q1666.3993,212.9219 1667.4931,212.3125 Q1668.5868,211.6875 1669.8212,211.6875 Q1670.5556,211.6875 1671.1962,211.8594 Q1671.8524,212.0156 1672.3993,212.375 Z "/><text fill="#000000" font-family="sans-serif" font-size="12" lengthAdjust="spacingAndGlyphs" textLength="116" x="1683.6337" y="221.4102">LogicImplementation</text><line style="stroke: #A80036; stroke-width: 1.5;" x1="1655.6337" x2="1801.6337" y1="232.5" y2="232.5"/><line style="stroke: #A80036; stroke-width: 1.5;" x1="1655.6337" x2="1801.6337" y1="240.5" y2="240.5"/><!--MD5=[da64f50044ac304822a65f3f619b3bb4]
class tictactoe.distributed.dispatchers.DispatcherPrototype--><rect fill="#FEFECE" filter="url(#fllpozxu3kmtz)" height="48" id="tictactoe.distributed.dispatchers.DispatcherPrototype" style="stroke: #A80036; stroke-width: 1.5;" width="143" x="223.1297" y="935"/><ellipse cx="238.1297" cy="951" fill="#ADD1B2" rx="11" ry="11" style="stroke: #A80036; stroke-width: 1.0;"/><path d="M240.8953,946.875 Q241.0516,946.6563 241.2391,946.5469 Q241.4266,946.4375 241.6453,946.4375 Q242.0203,946.4375 242.2547,946.7031 Q242.4891,946.9531 242.4891,947.5625 L242.4891,949.0156 Q242.4891,949.625 242.2547,949.8906 Q242.0203,950.1563 241.6453,950.1563 Q241.3016,950.1563 241.0984,949.9531 Q240.8953,949.7656 240.7859,949.25 Q240.7391,948.8906 240.5516,948.7031 Q240.2234,948.3281 239.6141,948.1094 Q239.0047,947.8906 238.3797,947.8906 Q237.6141,947.8906 236.9734,948.2188 Q236.3484,948.5469 235.8484,949.2969 Q235.3641,950.0469 235.3641,951.0781 L235.3641,952.1719 Q235.3641,953.4063 236.2547,954.2344 Q237.1453,955.0469 238.7391,955.0469 Q239.6766,955.0469 240.3328,954.7969 Q240.7234,954.6406 241.1453,954.2031 Q241.4109,953.9375 241.5516,953.8594 Q241.7078,953.7813 241.9109,953.7813 Q242.2391,953.7813 242.4891,954.0469 Q242.7547,954.2969 242.7547,954.6406 Q242.7547,954.9844 242.4109,955.3906 Q241.9109,955.9688 241.1141,956.2969 Q240.0359,956.75 238.7391,956.75 Q237.2234,956.75 236.0203,956.125 Q235.0359,955.625 234.3484,954.5625 Q233.6609,953.4844 233.6609,952.2031 L233.6609,951.0469 Q233.6609,949.7188 234.2703,948.5781 Q234.8953,947.4219 235.9891,946.8125 Q237.0828,946.1875 238.3172,946.1875 Q239.0516,946.1875 239.6922,946.3594 Q240.3484,946.5156 240.8953,946.875 Z "/><text fill="#000000" font-family="sans-serif" font-size="12" lengthAdjust="spacingAndGlyphs" textLength="111" x="252.1297" y="955.9102">DispatcherPrototype</text><line style="stroke: #A80036; stroke-width: 1.5;" x1="224.1297" x2="365.1297" y1="967" y2="967"/><line style="stroke: #A80036; stroke-width: 1.5;" x1="224.1297" x2="365.1297" y1="975" y2="975"/><!--MD5=[fdac821697955e2463ccbcbfa9634439]
class tictactoe.distributed.dispatchers.FrameType--><rect fill="#FEFECE" filter="url(#fllpozxu3kmtz)" height="48" id="tictactoe.distributed.dispatchers.FrameType" style="stroke: #A80036; stroke-width: 1.5;" width="94" x="401.6297" y="935"/><ellipse cx="416.6297" cy="951" fill="#ADD1B2" rx="11" ry="11" style="stroke: #A80036; stroke-width: 1.0;"/><path d="M419.3953,946.875 Q419.5516,946.6563 419.7391,946.5469 Q419.9266,946.4375 420.1453,946.4375 Q420.5203,946.4375 420.7547,946.7031 Q420.9891,946.9531 420.9891,947.5625 L420.9891,949.0156 Q420.9891,949.625 420.7547,949.8906 Q420.5203,950.1563 420.1453,950.1563 Q419.8016,950.1563 419.5985,949.9531 Q419.3953,949.7656 419.286,949.25 Q419.2391,948.8906 419.0516,948.7031 Q418.7235,948.3281 418.1141,948.1094 Q417.5047,947.8906 416.8797,947.8906 Q416.1141,947.8906 415.4735,948.2188 Q414.8485,948.5469 414.3485,949.2969 Q413.8641,950.0469 413.8641,951.0781 L413.8641,952.1719 Q413.8641,953.4063 414.7547,954.2344 Q415.6453,955.0469 417.2391,955.0469 Q418.1766,955.0469 418.8328,954.7969 Q419.2235,954.6406 419.6453,954.2031 Q419.911,953.9375 420.0516,953.8594 Q420.2078,953.7813 420.411,953.7813 Q420.7391,953.7813 420.9891,954.0469 Q421.2547,954.2969 421.2547,954.6406 Q421.2547,954.9844 420.911,955.3906 Q420.411,955.9688 419.6141,956.2969 Q418.536,956.75 417.2391,956.75 Q415.7235,956.75 414.5203,956.125 Q413.536,955.625 412.8485,954.5625 Q412.161,953.4844 412.161,952.2031 L412.161,951.0469 Q412.161,949.7188 412.7703,948.5781 Q413.3953,947.4219 414.4891,946.8125 Q415.5828,946.1875 416.8172,946.1875 Q417.5516,946.1875 418.1922,946.3594 Q418.8485,946.5156 419.3953,946.875 Z "/><text fill="#000000" font-family="sans-serif" font-size="12" lengthAdjust="spacingAndGlyphs" textLength="62" x="430.6297" y="955.9102">FrameType</text><line style="stroke: #A80036; stroke-width: 1.5;" x1="402.6297" x2="494.6297" y1="967" y2="967"/><line style="stroke: #A80036; stroke-width: 1.5;" x1="402.6297" x2="494.6297" y1="975" y2="975"/><!--MD5=[3b8962fd5847b9038b2e29740dae8054]
class tictactoe.controllers.Logic--><rect fill="#FEFECE" filter="url(#fllpozxu3kmtz)" height="48" id="tictactoe.controllers.Logic" style="stroke: #A80036; stroke-width: 1.5;" width="62" x="1948.6337" y="200.5"/><ellipse cx="1963.6337" cy="216.5" fill="#ADD1B2" rx="11" ry="11" style="stroke: #A80036; stroke-width: 1.0;"/><path d="M1966.3993,212.375 Q1966.5556,212.1563 1966.7431,212.0469 Q1966.9306,211.9375 1967.1493,211.9375 Q1967.5243,211.9375 1967.7587,212.2031 Q1967.9931,212.4531 1967.9931,213.0625 L1967.9931,214.5156 Q1967.9931,215.125 1967.7587,215.3906 Q1967.5243,215.6563 1967.1493,215.6563 Q1966.8056,215.6563 1966.6024,215.4531 Q1966.3993,215.2656 1966.2899,214.75 Q1966.2431,214.3906 1966.0556,214.2031 Q1965.7274,213.8281 1965.1181,213.6094 Q1964.5087,213.3906 1963.8837,213.3906 Q1963.1181,213.3906 1962.4774,213.7188 Q1961.8524,214.0469 1961.3524,214.7969 Q1960.8681,215.5469 1960.8681,216.5781 L1960.8681,217.6719 Q1960.8681,218.9063 1961.7587,219.7344 Q1962.6493,220.5469 1964.2431,220.5469 Q1965.1806,220.5469 1965.8368,220.2969 Q1966.2274,220.1406 1966.6493,219.7031 Q1966.9149,219.4375 1967.0556,219.3594 Q1967.2118,219.2813 1967.4149,219.2813 Q1967.7431,219.2813 1967.9931,219.5469 Q1968.2587,219.7969 1968.2587,220.1406 Q1968.2587,220.4844 1967.9149,220.8906 Q1967.4149,221.4688 1966.6181,221.7969 Q1965.5399,222.25 1964.2431,222.25 Q1962.7274,222.25 1961.5243,221.625 Q1960.5399,221.125 1959.8524,220.0625 Q1959.1649,218.9844 1959.1649,217.7031 L1959.1649,216.5469 Q1959.1649,215.2188 1959.7743,214.0781 Q1960.3993,212.9219 1961.4931,212.3125 Q1962.5868,211.6875 1963.8212,211.6875 Q1964.5556,211.6875 1965.1962,211.8594 Q1965.8524,212.0156 1966.3993,212.375 Z "/><text fill="#000000" font-family="sans-serif" font-size="12" lengthAdjust="spacingAndGlyphs" textLength="30" x="1977.6337" y="221.4102">Logic</text><line style="stroke: #A80036; stroke-width: 1.5;" x1="1949.6337" x2="2009.6337" y1="232.5" y2="232.5"/><line style="stroke: #A80036; stroke-width: 1.5;" x1="1949.6337" x2="2009.6337" y1="240.5" y2="240.5"/><!--MD5=[b574e60c06c50037ff1b014277a67d62]
class tictactoe.controllers.PlayController--><rect fill="#FEFECE" filter="url(#fllpozxu3kmtz)" height="48" id="tictactoe.controllers.PlayController" style="stroke: #A80036; stroke-width: 1.5;" width="109" x="2340.1337" y="200.5"/><ellipse cx="2355.1337" cy="216.5" fill="#ADD1B2" rx="11" ry="11" style="stroke: #A80036; stroke-width: 1.0;"/><path d="M2357.8993,212.375 Q2358.0556,212.1563 2358.2431,212.0469 Q2358.4306,211.9375 2358.6493,211.9375 Q2359.0243,211.9375 2359.2587,212.2031 Q2359.4931,212.4531 2359.4931,213.0625 L2359.4931,214.5156 Q2359.4931,215.125 2359.2587,215.3906 Q2359.0243,215.6563 2358.6493,215.6563 Q2358.3056,215.6563 2358.1025,215.4531 Q2357.8993,215.2656 2357.79,214.75 Q2357.7431,214.3906 2357.5556,214.2031 Q2357.2275,213.8281 2356.6181,213.6094 Q2356.0087,213.3906 2355.3837,213.3906 Q2354.6181,213.3906 2353.9775,213.7188 Q2353.3525,214.0469 2352.8525,214.7969 Q2352.3681,215.5469 2352.3681,216.5781 L2352.3681,217.6719 Q2352.3681,218.9063 2353.2587,219.7344 Q2354.1493,220.5469 2355.7431,220.5469 Q2356.6806,220.5469 2357.3368,220.2969 Q2357.7275,220.1406 2358.1493,219.7031 Q2358.415,219.4375 2358.5556,219.3594 Q2358.7118,219.2813 2358.915,219.2813 Q2359.2431,219.2813 2359.4931,219.5469 Q2359.7587,219.7969 2359.7587,220.1406 Q2359.7587,220.4844 2359.415,220.8906 Q2358.915,221.4688 2358.1181,221.7969 Q2357.04,222.25 2355.7431,222.25 Q2354.2275,222.25 2353.0243,221.625 Q2352.04,221.125 2351.3525,220.0625 Q2350.665,218.9844 2350.665,217.7031 L2350.665,216.5469 Q2350.665,215.2188 2351.2743,214.0781 Q2351.8993,212.9219 2352.9931,212.3125 Q2354.0868,211.6875 2355.3212,211.6875 Q2356.0556,211.6875 2356.6962,211.8594 Q2357.3525,212.0156 2357.8993,212.375 Z "/><text fill="#000000" font-family="sans-serif" font-size="12" lengthAdjust="spacingAndGlyphs" textLength="77" x="2369.1337" y="221.4102">PlayController</text><line style="stroke: #A80036; stroke-width: 1.5;" x1="2341.1337" x2="2448.1337" y1="232.5" y2="232.5"/><line style="stroke: #A80036; stroke-width: 1.5;" x1="2341.1337" x2="2448.1337" y1="240.5" y2="240.5"/><!--MD5=[d75e1ad11e6a17be2ba08b218e20e3d7]
class tictactoe.controllers.ResumeController--><rect fill="#FEFECE" filter="url(#fllpozxu3kmtz)" height="48" id="tictactoe.controllers.ResumeController" style="stroke: #A80036; stroke-width: 1.5;" width="134" x="2484.6337" y="200.5"/><ellipse cx="2499.6337" cy="216.5" fill="#ADD1B2" rx="11" ry="11" style="stroke: #A80036; stroke-width: 1.0;"/><path d="M2502.3993,212.375 Q2502.5556,212.1563 2502.7431,212.0469 Q2502.9306,211.9375 2503.1493,211.9375 Q2503.5243,211.9375 2503.7587,212.2031 Q2503.9931,212.4531 2503.9931,213.0625 L2503.9931,214.5156 Q2503.9931,215.125 2503.7587,215.3906 Q2503.5243,215.6563 2503.1493,215.6563 Q2502.8056,215.6563 2502.6025,215.4531 Q2502.3993,215.2656 2502.29,214.75 Q2502.2431,214.3906 2502.0556,214.2031 Q2501.7275,213.8281 2501.1181,213.6094 Q2500.5087,213.3906 2499.8837,213.3906 Q2499.1181,213.3906 2498.4775,213.7188 Q2497.8525,214.0469 2497.3525,214.7969 Q2496.8681,215.5469 2496.8681,216.5781 L2496.8681,217.6719 Q2496.8681,218.9063 2497.7587,219.7344 Q2498.6493,220.5469 2500.2431,220.5469 Q2501.1806,220.5469 2501.8368,220.2969 Q2502.2275,220.1406 2502.6493,219.7031 Q2502.915,219.4375 2503.0556,219.3594 Q2503.2118,219.2813 2503.415,219.2813 Q2503.7431,219.2813 2503.9931,219.5469 Q2504.2587,219.7969 2504.2587,220.1406 Q2504.2587,220.4844 2503.915,220.8906 Q2503.415,221.4688 2502.6181,221.7969 Q2501.54,222.25 2500.2431,222.25 Q2498.7275,222.25 2497.5243,221.625 Q2496.54,221.125 2495.8525,220.0625 Q2495.165,218.9844 2495.165,217.7031 L2495.165,216.5469 Q2495.165,215.2188 2495.7743,214.0781 Q2496.3993,212.9219 2497.4931,212.3125 Q2498.5868,211.6875 2499.8212,211.6875 Q2500.5556,211.6875 2501.1962,211.8594 Q2501.8525,212.0156 2502.3993,212.375 Z "/><text fill="#000000" font-family="sans-serif" font-size="12" lengthAdjust="spacingAndGlyphs" textLength="102" x="2513.6337" y="221.4102">ResumeController</text><line style="stroke: #A80036; stroke-width: 1.5;" x1="2485.6337" x2="2617.6337" y1="232.5" y2="232.5"/><line style="stroke: #A80036; stroke-width: 1.5;" x1="2485.6337" x2="2617.6337" y1="240.5" y2="240.5"/><!--MD5=[ceb32bf16d0eacc5ebeb8fec652e21b2]
class tictactoe.controllers.SaveController--><rect fill="#FEFECE" filter="url(#fllpozxu3kmtz)" height="48" id="tictactoe.controllers.SaveController" style="stroke: #A80036; stroke-width: 1.5;" width="113" x="2192.1337" y="200.5"/><ellipse cx="2207.1337" cy="216.5" fill="#ADD1B2" rx="11" ry="11" style="stroke: #A80036; stroke-width: 1.0;"/><path d="M2209.8993,212.375 Q2210.0556,212.1563 2210.2431,212.0469 Q2210.4306,211.9375 2210.6493,211.9375 Q2211.0243,211.9375 2211.2587,212.2031 Q2211.4931,212.4531 2211.4931,213.0625 L2211.4931,214.5156 Q2211.4931,215.125 2211.2587,215.3906 Q2211.0243,215.6563 2210.6493,215.6563 Q2210.3056,215.6563 2210.1025,215.4531 Q2209.8993,215.2656 2209.79,214.75 Q2209.7431,214.3906 2209.5556,214.2031 Q2209.2275,213.8281 2208.6181,213.6094 Q2208.0087,213.3906 2207.3837,213.3906 Q2206.6181,213.3906 2205.9775,213.7188 Q2205.3525,214.0469 2204.8525,214.7969 Q2204.3681,215.5469 2204.3681,216.5781 L2204.3681,217.6719 Q2204.3681,218.9063 2205.2587,219.7344 Q2206.1493,220.5469 2207.7431,220.5469 Q2208.6806,220.5469 2209.3368,220.2969 Q2209.7275,220.1406 2210.1493,219.7031 Q2210.415,219.4375 2210.5556,219.3594 Q2210.7118,219.2813 2210.915,219.2813 Q2211.2431,219.2813 2211.4931,219.5469 Q2211.7587,219.7969 2211.7587,220.1406 Q2211.7587,220.4844 2211.415,220.8906 Q2210.915,221.4688 2210.1181,221.7969 Q2209.04,222.25 2207.7431,222.25 Q2206.2275,222.25 2205.0243,221.625 Q2204.04,221.125 2203.3525,220.0625 Q2202.665,218.9844 2202.665,217.7031 L2202.665,216.5469 Q2202.665,215.2188 2203.2743,214.0781 Q2203.8993,212.9219 2204.9931,212.3125 Q2206.0868,211.6875 2207.3212,211.6875 Q2208.0556,211.6875 2208.6962,211.8594 Q2209.3525,212.0156 2209.8993,212.375 Z "/><text fill="#000000" font-family="sans-serif" font-size="12" lengthAdjust="spacingAndGlyphs" textLength="81" x="2221.1337" y="221.4102">SaveController</text><line style="stroke: #A80036; stroke-width: 1.5;" x1="2193.1337" x2="2304.1337" y1="232.5" y2="232.5"/><line style="stroke: #A80036; stroke-width: 1.5;" x1="2193.1337" x2="2304.1337" y1="240.5" y2="240.5"/><!--MD5=[8ede4dbfb3b498095887802b64b699f0]
class tictactoe.controllers.StartController--><rect fill="#FEFECE" filter="url(#fllpozxu3kmtz)" height="48" id="tictactoe.controllers.StartController" style="stroke: #A80036; stroke-width: 1.5;" width="111" x="2046.1337" y="200.5"/><ellipse cx="2061.1337" cy="216.5" fill="#ADD1B2" rx="11" ry="11" style="stroke: #A80036; stroke-width: 1.0;"/><path d="M2063.8993,212.375 Q2064.0556,212.1563 2064.2431,212.0469 Q2064.4306,211.9375 2064.6493,211.9375 Q2065.0243,211.9375 2065.2587,212.2031 Q2065.4931,212.4531 2065.4931,213.0625 L2065.4931,214.5156 Q2065.4931,215.125 2065.2587,215.3906 Q2065.0243,215.6563 2064.6493,215.6563 Q2064.3056,215.6563 2064.1025,215.4531 Q2063.8993,215.2656 2063.79,214.75 Q2063.7431,214.3906 2063.5556,214.2031 Q2063.2275,213.8281 2062.6181,213.6094 Q2062.0087,213.3906 2061.3837,213.3906 Q2060.6181,213.3906 2059.9775,213.7188 Q2059.3525,214.0469 2058.8525,214.7969 Q2058.3681,215.5469 2058.3681,216.5781 L2058.3681,217.6719 Q2058.3681,218.9063 2059.2587,219.7344 Q2060.1493,220.5469 2061.7431,220.5469 Q2062.6806,220.5469 2063.3368,220.2969 Q2063.7275,220.1406 2064.1493,219.7031 Q2064.415,219.4375 2064.5556,219.3594 Q2064.7118,219.2813 2064.915,219.2813 Q2065.2431,219.2813 2065.4931,219.5469 Q2065.7587,219.7969 2065.7587,220.1406 Q2065.7587,220.4844 2065.415,220.8906 Q2064.915,221.4688 2064.1181,221.7969 Q2063.04,222.25 2061.7431,222.25 Q2060.2275,222.25 2059.0243,221.625 Q2058.04,221.125 2057.3525,220.0625 Q2056.665,218.9844 2056.665,217.7031 L2056.665,216.5469 Q2056.665,215.2188 2057.2743,214.0781 Q2057.8993,212.9219 2058.9931,212.3125 Q2060.0868,211.6875 2061.3212,211.6875 Q2062.0556,211.6875 2062.6962,211.8594 Q2063.3525,212.0156 2063.8993,212.375 Z "/><text fill="#000000" font-family="sans-serif" font-size="12" lengthAdjust="spacingAndGlyphs" textLength="79" x="2075.1337" y="221.4102">StartController</text><line style="stroke: #A80036; stroke-width: 1.5;" x1="2047.1337" x2="2156.1337" y1="232.5" y2="232.5"/><line style="stroke: #A80036; stroke-width: 1.5;" x1="2047.1337" x2="2156.1337" y1="240.5" y2="240.5"/><!--MD5=[2c721b8e75ee69878c5473c2e2c68362]
class utils.TCPIP--><rect fill="#FEFECE" filter="url(#fllpozxu3kmtz)" height="48" id="utils.TCPIP" style="stroke: #A80036; stroke-width: 1.5;" width="67" x="770.1297" y="935"/><ellipse cx="785.1297" cy="951" fill="#ADD1B2" rx="11" ry="11" style="stroke: #A80036; stroke-width: 1.0;"/><path d="M787.8953,946.875 Q788.0516,946.6563 788.2391,946.5469 Q788.4266,946.4375 788.6453,946.4375 Q789.0203,946.4375 789.2547,946.7031 Q789.4891,946.9531 789.4891,947.5625 L789.4891,949.0156 Q789.4891,949.625 789.2547,949.8906 Q789.0203,950.1563 788.6453,950.1563 Q788.3016,950.1563 788.0985,949.9531 Q787.8953,949.7656 787.786,949.25 Q787.7391,948.8906 787.5516,948.7031 Q787.2235,948.3281 786.6141,948.1094 Q786.0047,947.8906 785.3797,947.8906 Q784.6141,947.8906 783.9735,948.2188 Q783.3485,948.5469 782.8485,949.2969 Q782.3641,950.0469 782.3641,951.0781 L782.3641,952.1719 Q782.3641,953.4063 783.2547,954.2344 Q784.1453,955.0469 785.7391,955.0469 Q786.6766,955.0469 787.3328,954.7969 Q787.7235,954.6406 788.1453,954.2031 Q788.411,953.9375 788.5516,953.8594 Q788.7078,953.7813 788.911,953.7813 Q789.2391,953.7813 789.4891,954.0469 Q789.7547,954.2969 789.7547,954.6406 Q789.7547,954.9844 789.411,955.3906 Q788.911,955.9688 788.1141,956.2969 Q787.036,956.75 785.7391,956.75 Q784.2235,956.75 783.0203,956.125 Q782.036,955.625 781.3485,954.5625 Q780.661,953.4844 780.661,952.2031 L780.661,951.0469 Q780.661,949.7188 781.2703,948.5781 Q781.8953,947.4219 782.9891,946.8125 Q784.0828,946.1875 785.3172,946.1875 Q786.0516,946.1875 786.6922,946.3594 Q787.3485,946.5156 787.8953,946.875 Z "/><text fill="#000000" font-family="sans-serif" font-size="12" lengthAdjust="spacingAndGlyphs" textLength="35" x="799.1297" y="955.9102">TCPIP</text><line style="stroke: #A80036; stroke-width: 1.5;" x1="771.1297" x2="836.1297" y1="967" y2="967"/><line style="stroke: #A80036; stroke-width: 1.5;" x1="771.1297" x2="836.1297" y1="975" y2="975"/><!--MD5=[fa99c436b17806d9277b14ee7a9cac8e]
class tictactoe.models.Session--><rect fill="#FEFECE" filter="url(#fllpozxu3kmtz)" height="48" id="tictactoe.models.Session" style="stroke: #A80036; stroke-width: 1.5;" width="78" x="1654.6337" y="364"/><ellipse cx="1669.6337" cy="380" fill="#ADD1B2" rx="11" ry="11" style="stroke: #A80036; stroke-width: 1.0;"/><path d="M1672.3993,375.875 Q1672.5556,375.6563 1672.7431,375.5469 Q1672.9306,375.4375 1673.1493,375.4375 Q1673.5243,375.4375 1673.7587,375.7031 Q1673.9931,375.9531 1673.9931,376.5625 L1673.9931,378.0156 Q1673.9931,378.625 1673.7587,378.8906 Q1673.5243,379.1563 1673.1493,379.1563 Q1672.8056,379.1563 1672.6024,378.9531 Q1672.3993,378.7656 1672.2899,378.25 Q1672.2431,377.8906 1672.0556,377.7031 Q1671.7274,377.3281 1671.1181,377.1094 Q1670.5087,376.8906 1669.8837,376.8906 Q1669.1181,376.8906 1668.4774,377.2188 Q1667.8524,377.5469 1667.3524,378.2969 Q1666.8681,379.0469 1666.8681,380.0781 L1666.8681,381.1719 Q1666.8681,382.4063 1667.7587,383.2344 Q1668.6493,384.0469 1670.2431,384.0469 Q1671.1806,384.0469 1671.8368,383.7969 Q1672.2274,383.6406 1672.6493,383.2031 Q1672.9149,382.9375 1673.0556,382.8594 Q1673.2118,382.7813 1673.4149,382.7813 Q1673.7431,382.7813 1673.9931,383.0469 Q1674.2587,383.2969 1674.2587,383.6406 Q1674.2587,383.9844 1673.9149,384.3906 Q1673.4149,384.9688 1672.6181,385.2969 Q1671.5399,385.75 1670.2431,385.75 Q1668.7274,385.75 1667.5243,385.125 Q1666.5399,384.625 1665.8524,383.5625 Q1665.1649,382.4844 1665.1649,381.2031 L1665.1649,380.0469 Q1665.1649,378.7188 1665.7743,377.5781 Q1666.3993,376.4219 1667.4931,375.8125 Q1668.5868,375.1875 1669.8212,375.1875 Q1670.5556,375.1875 1671.1962,375.3594 Q1671.8524,375.5156 1672.3993,375.875 Z "/><text fill="#000000" font-family="sans-serif" font-size="12" lengthAdjust="spacingAndGlyphs" textLength="46" x="1683.6337" y="384.9102">Session</text><line style="stroke: #A80036; stroke-width: 1.5;" x1="1655.6337" x2="1731.6337" y1="396" y2="396"/><line style="stroke: #A80036; stroke-width: 1.5;" x1="1655.6337" x2="1731.6337" y1="404" y2="404"/><!--MD5=[dcfee6ff2a733e6a859ce2b7bcbe021e]
class tictactoe.TicTacToe--><rect fill="#FEFECE" filter="url(#fllpozxu3kmtz)" height="48" id="tictactoe.TicTacToe" style="stroke: #A80036; stroke-width: 1.5;" width="89" x="898.1297" y="42"/><ellipse cx="913.1297" cy="58" fill="#ADD1B2" rx="11" ry="11" style="stroke: #A80036; stroke-width: 1.0;"/><path d="M915.8953,53.875 Q916.0516,53.6563 916.2391,53.5469 Q916.4266,53.4375 916.6453,53.4375 Q917.0203,53.4375 917.2547,53.7031 Q917.4891,53.9531 917.4891,54.5625 L917.4891,56.0156 Q917.4891,56.625 917.2547,56.8906 Q917.0203,57.1563 916.6453,57.1563 Q916.3016,57.1563 916.0985,56.9531 Q915.8953,56.7656 915.786,56.25 Q915.7391,55.8906 915.5516,55.7031 Q915.2235,55.3281 914.6141,55.1094 Q914.0047,54.8906 913.3797,54.8906 Q912.6141,54.8906 911.9735,55.2188 Q911.3485,55.5469 910.8485,56.2969 Q910.3641,57.0469 910.3641,58.0781 L910.3641,59.1719 Q910.3641,60.4063 911.2547,61.2344 Q912.1453,62.0469 913.7391,62.0469 Q914.6766,62.0469 915.3328,61.7969 Q915.7235,61.6406 916.1453,61.2031 Q916.411,60.9375 916.5516,60.8594 Q916.7078,60.7813 916.911,60.7813 Q917.2391,60.7813 917.4891,61.0469 Q917.7547,61.2969 917.7547,61.6406 Q917.7547,61.9844 917.411,62.3906 Q916.911,62.9688 916.1141,63.2969 Q915.036,63.75 913.7391,63.75 Q912.2235,63.75 911.0203,63.125 Q910.036,62.625 909.3485,61.5625 Q908.661,60.4844 908.661,59.2031 L908.661,58.0469 Q908.661,56.7188 909.2703,55.5781 Q909.8953,54.4219 910.9891,53.8125 Q912.0828,53.1875 913.3172,53.1875 Q914.0516,53.1875 914.6922,53.3594 Q915.3485,53.5156 915.8953,53.875 Z "/><text fill="#000000" font-family="sans-serif" font-size="12" lengthAdjust="spacingAndGlyphs" textLength="57" x="927.1297" y="62.9102">TicTacToe</text><line style="stroke: #A80036; stroke-width: 1.5;" x1="899.1297" x2="986.1297" y1="74" y2="74"/><line style="stroke: #A80036; stroke-width: 1.5;" x1="899.1297" x2="986.1297" y1="82" y2="82"/><!--MD5=[8492d26fad2d87e062c7eb36d468d866]
reverse link tictactoe.controllers.implementation.LogicImplementation to tictactoe.distributed.LogicImplementationServer--><path d="M1674.9537,258.352 C1656.4837,268.06 1635.2537,277.542 1614.6337,283 C1456.5337,324.841 1042.1537,301.836 879.6297,320 C800.9107,328.798 713.9177,343.506 642.5697,356.904 " fill="none" id="tictactoe.controllers.implementation.LogicImplementation&lt;-tictactoe.distributed.LogicImplementationServer" style="stroke: #A80036; stroke-width: 1.0;"/><polygon fill="none" points="1671.8237,252.083,1692.7037,248.512,1678.6037,264.328,1671.8237,252.083" style="stroke: #A80036; stroke-width: 1.0;"/><!--MD5=[ddca5d656e8b1b0b25972b3816a53517]
link tictactoe.distributed.LogicImplementationServer to tictactoe.distributed.dispatchers.DispatcherPrototype--><path d="M346.9467,400.596 C285.1277,413.616 218.8747,440.044 180.6297,493 C79.1456,633.518 98.3756,730.426 180.6297,883 C192.1227,904.318 212.6157,920.5701 233.0877,932.4026 " fill="none" id="tictactoe.distributed.LogicImplementationServer-&gt;tictactoe.distributed.dispatchers.DispatcherPrototype" style="stroke: #A80036; stroke-width: 1.0; stroke-dasharray: 7.0,7.0;"/><polygon fill="#A80036" points="237.4527,934.8607,231.5726,926.9598,233.0958,932.4077,227.6478,933.9309,237.4527,934.8607" style="stroke: #A80036; stroke-width: 1.0;"/><!--MD5=[e1559b16d919bb0c8ef4b061281424cd]
link tictactoe.distributed.LogicImplementationServer to tictactoe.distributed.dispatchers.FrameType--><path d="M349.7777,426.085 C317.3877,441.403 286.9467,462.903 267.6297,493 C174.0067,638.874 149.3557,756.289 267.6297,883 C276.4457,892.445 371.9117,885.559 383.6297,891 C402.3057,899.672 418.4547,916.2392 429.9847,930.7291 " fill="none" id="tictactoe.distributed.LogicImplementationServer-&gt;tictactoe.distributed.dispatchers.FrameType" style="stroke: #A80036; stroke-width: 1.0; stroke-dasharray: 7.0,7.0;"/><polygon fill="#A80036" points="433.1117,934.7526,430.7456,925.1922,430.0428,930.8052,424.4298,930.1024,433.1117,934.7526" style="stroke: #A80036; stroke-width: 1.0;"/><!--MD5=[ac57849eaf70bf89df4d9fe514483d08]
reverse link tictactoe.controllers.Logic to tictactoe.distributed.LogicProxy--><path d="M1930.1037,247.217 C1898.7737,259.935 1857.0737,275.022 1818.6337,283 C1575.2737,333.502 1506.8437,286.072 1260.6337,320 C1162.6737,333.497 1049.8137,359.913 988.3517,375.236 " fill="none" id="tictactoe.controllers.Logic&lt;-tictactoe.distributed.LogicProxy" style="stroke: #A80036; stroke-width: 1.0;"/><polygon fill="none" points="1927.4537,240.74,1948.6037,239.494,1932.8437,253.66,1927.4537,240.74" style="stroke: #A80036; stroke-width: 1.0;"/><!--MD5=[5eb53b82bd19646fe2abe1bedb3d05a4]
link tictactoe.distributed.LogicProxy to utils.TCPIP--><path d="M884.9128,398.5445 C884.9128,398.5445 331.8797,490.336 329.6297,493 C273.7067,559.21 269.7077,820.386 329.6297,883 C336.6277,890.312 501.6007,889.64 511.6297,891 C599.6107,902.927 700.0917,928.7382 757.2837,944.6145 " fill="none" id="tictactoe.distributed.LogicProxy-utils.TCPIP" style="stroke: #A80036; stroke-width: 1.0;"/><polygon fill="#A80036" points="769.8337,948.1324,762.2472,941.8518,765.0192,946.7829,760.0881,949.555,769.8337,948.1324" style="stroke: #A80036; stroke-width: 1.0;"/><line style="stroke: #A80036; stroke-width: 1.0;" x1="765.0192" x2="757.3167" y1="946.7829" y2="944.6237"/><polygon fill="#A80036" points="896.7517,396.585,890.1791,393.6185,884.9128,398.5445,891.4854,401.5111,896.7517,396.585" style="stroke: #A80036; stroke-width: 1.0;"/><!--MD5=[f1b1a99fb31e756c5f6ceec412cc7464]
link tictactoe.distributed.LogicProxy to tictactoe.distributed.SessionProxy--><path d="M885.8936,412.0728 C885.8936,412.0728 797.9177,457.583 763.6297,493 C730.7757,526.936 705.7987,574.087 689.2847,611.893 " fill="none" id="tictactoe.distributed.LogicProxy-tictactoe.distributed.SessionProxy" style="stroke: #A80036; stroke-width: 1.0;"/><polygon fill="#A80036" points="684.0097,624.323,691.2077,617.6008,685.963,619.7203,683.8434,614.4755,684.0097,624.323" style="stroke: #A80036; stroke-width: 1.0;"/><line style="stroke: #A80036; stroke-width: 1.0;" x1="685.963" x2="689.0882" y1="619.7203" y2="612.3565"/><polygon fill="#A80036" points="896.8207,407.113,889.7039,405.9505,885.8936,412.0728,893.0104,413.2352,896.8207,407.113" style="stroke: #A80036; stroke-width: 1.0;"/><!--MD5=[4ad5bdf18b75ba68c13ac6d7148cb90b]
link tictactoe.distributed.LogicProxy to tictactoe.distributed.ResumeControllerProxy--><path d="M998.9962,414.096 C998.9962,414.096 1085.0037,460.25 1120.6337,493 C1160.4537,529.602 1195.0037,580.61 1218.1337,619.316 " fill="none" id="tictactoe.distributed.LogicProxy-tictactoe.distributed.ResumeControllerProxy" style="stroke: #A80036; stroke-width: 1.0;"/><polygon fill="#A80036" points="1224.9437,630.903,1223.8372,621.1165,1222.4125,626.591,1216.938,625.1664,1224.9437,630.903" style="stroke: #A80036; stroke-width: 1.0;"/><line style="stroke: #A80036; stroke-width: 1.0;" x1="1222.4125" x2="1218.3587" y1="626.591" y2="619.694"/><polygon fill="#A80036" points="988.1997,408.858,991.8519,415.0758,998.9962,414.096,995.3439,407.8782,988.1997,408.858" style="stroke: #A80036; stroke-width: 1.0;"/><!--MD5=[18a38945b26e937d75a9d166c77cf73f]
link tictactoe.distributed.LogicProxy to tictactoe.distributed.StartControllerProxy--><path d="M884.9562,392.4634 C884.9562,392.4634 663.6667,422.812 567.6297,493 C530.9137,519.834 502.4017,561.713 482.5037,598.537 " fill="none" id="tictactoe.distributed.LogicProxy-tictactoe.distributed.StartControllerProxy" style="stroke: #A80036; stroke-width: 1.0;"/><polygon fill="#A80036" points="476.3457,610.29,484.0654,604.174,478.666,605.861,476.979,600.4615,476.3457,610.29" style="stroke: #A80036; stroke-width: 1.0;"/><line style="stroke: #A80036; stroke-width: 1.0;" x1="478.666" x2="482.3792" y1="605.861" y2="598.7745"/><polygon fill="#A80036" points="896.9107,391.419,890.5853,387.9564,884.9562,392.4634,891.2816,395.926,896.9107,391.419" style="stroke: #A80036; stroke-width: 1.0;"/><!--MD5=[cf78edf6712ed0281ae7c0552a577c3a]
link tictactoe.distributed.LogicProxy to tictactoe.distributed.PlayControllerProxy--><path d="M942.6297,445.061 C942.6297,445.061 942.6297,467.741 942.6297,479.378 " fill="none" id="tictactoe.distributed.LogicProxy-tictactoe.distributed.PlayControllerProxy" style="stroke: #A80036; stroke-width: 1.0;"/><polygon fill="#A80036" points="942.6297,492.727,946.6297,483.727,942.6297,487.727,938.6297,483.727,942.6297,492.727" style="stroke: #A80036; stroke-width: 1.0;"/><line style="stroke: #A80036; stroke-width: 1.0;" x1="942.6297" x2="942.6297" y1="487.727" y2="479.727"/><polygon fill="#A80036" points="942.6297,433.061,938.6297,439.061,942.6297,445.061,946.6297,439.061,942.6297,433.061" style="stroke: #A80036; stroke-width: 1.0;"/><!--MD5=[85afb110ac59e91bf65d7f5c106f59da]
link tictactoe.distributed.LogicProxy to tictactoe.distributed.SaveControllerProxy--><path d="M1000.1501,389.7386 C1000.1501,389.7386 1260.3537,412.12 1375.6337,493 C1410.7037,517.607 1438.2237,556.04 1458.0137,591.26 " fill="none" id="tictactoe.distributed.LogicProxy-tictactoe.distributed.SaveControllerProxy" style="stroke: #A80036; stroke-width: 1.0;"/><polygon fill="#A80036" points="1464.4237,603.056,1463.6414,593.2383,1462.0365,598.6627,1456.6121,597.0578,1464.4237,603.056" style="stroke: #A80036; stroke-width: 1.0;"/><line style="stroke: #A80036; stroke-width: 1.0;" x1="1462.0365" x2="1458.2137" y1="598.6627" y2="591.6355"/><polygon fill="#A80036" points="988.1587,389.285,994.0032,393.5089,1000.1501,389.7386,994.3056,385.5147,988.1587,389.285" style="stroke: #A80036; stroke-width: 1.0;"/><!--MD5=[8eb5902b0eaf0704b38e1325364a8a68]
reverse link tictactoe.controllers.PlayController to tictactoe.distributed.PlayControllerProxy--><path d="M2356.2437,261.818 C2345.9737,269.881 2334.4237,277.619 2322.6337,283 C2239.9837,320.698 2209.8237,298.252 2121.6337,320 C1953.0737,361.567 1918.9137,402.175 1748.6337,436 C1474.1737,490.517 1374.5337,373.263 1121.6337,493 C1115.6237,495.845 1109.7037,498.981 1103.8837,502.365 " fill="none" id="tictactoe.controllers.PlayController&lt;-tictactoe.distributed.PlayControllerProxy" style="stroke: #A80036; stroke-width: 1.0;"/><polygon fill="none" points="2351.8737,256.341,2371.6537,248.741,2360.9337,267.017,2351.8737,256.341" style="stroke: #A80036; stroke-width: 1.0;"/><!--MD5=[50587b03ea94c4488a76ea0ca6669284]
link tictactoe.distributed.PlayControllerProxy to utils.TCPIP--><path d="M847.1195,870.0807 C847.1195,870.0807 828.0147,908.705 820.8727,923.1428 " fill="none" id="tictactoe.distributed.PlayControllerProxy-utils.TCPIP" style="stroke: #A80036; stroke-width: 1.0;"/><polygon fill="#A80036" points="815.0677,934.8768,822.6434,928.5833,817.2846,930.3951,815.4727,925.0363,815.0677,934.8768" style="stroke: #A80036; stroke-width: 1.0;"/><line style="stroke: #A80036; stroke-width: 1.0;" x1="817.2846" x2="820.8322" y1="930.3951" y2="923.2244"/><polygon fill="#A80036" points="852.4407,859.325,846.1949,862.9291,847.1195,870.0807,853.3654,866.4766,852.4407,859.325" style="stroke: #A80036; stroke-width: 1.0;"/><!--MD5=[6403431be7de952446031b42f62f4378]
link tictactoe.distributed.PlayControllerProxy to tictactoe.distributed.dispatchers.FrameType--><path d="M797.4387,859.107 C786.5727,867.873 775.2807,875.943 763.6297,883 C680.6817,933.2393 566.4887,949.8266 500.8247,955.3024 " fill="none" id="tictactoe.distributed.PlayControllerProxy-&gt;tictactoe.distributed.dispatchers.FrameType" style="stroke: #A80036; stroke-width: 1.0; stroke-dasharray: 7.0,7.0;"/><polygon fill="#A80036" points="495.7937,955.7081,505.0858,958.9726,500.7776,955.3067,504.4435,950.9984,495.7937,955.7081" style="stroke: #A80036; stroke-width: 1.0;"/><!--MD5=[967456c02912e355b60fbd7a4a66b84e]
reverse link tictactoe.controllers.ResumeController to tictactoe.distributed.ResumeControllerProxy--><path d="M2503.6737,260.045 C2491.8137,267.995 2478.9737,276.126 2466.6337,283 C2321.5137,363.839 2286.6237,395.096 2125.6337,436 C1963.6337,477.159 1520.7937,410.136 1375.6337,493 C1321.9237,523.657 1285.6437,587.412 1266.0437,630.713 " fill="none" id="tictactoe.controllers.ResumeController&lt;-tictactoe.distributed.ResumeControllerProxy" style="stroke: #A80036; stroke-width: 1.0;"/><polygon fill="none" points="2499.7237,254.266,2520.1737,248.693,2507.6637,265.799,2499.7237,254.266" style="stroke: #A80036; stroke-width: 1.0;"/><!--MD5=[d468a06e58c368ceade7fa6d3b007658]
link tictactoe.distributed.ResumeControllerProxy to utils.TCPIP--><path d="M1228.3751,732.2847 C1228.3751,732.2847 1172.4037,845.759 1120.6337,883 C1038.7637,941.8873 917.1427,955.1273 850.8697,957.7403 " fill="none" id="tictactoe.distributed.ResumeControllerProxy-utils.TCPIP" style="stroke: #A80036; stroke-width: 1.0;"/><polygon fill="#A80036" points="837.6017,958.1492,846.7205,961.8704,842.5993,957.9954,846.4744,953.8742,837.6017,958.1492" style="stroke: #A80036; stroke-width: 1.0;"/><line style="stroke: #A80036; stroke-width: 1.0;" x1="842.5993" x2="850.5957" y1="957.9954" y2="957.7487"/><polygon fill="#A80036" points="1232.9837,721.205,1226.9861,725.2087,1228.3751,732.2847,1234.3726,728.2811,1232.9837,721.205" style="stroke: #A80036; stroke-width: 1.0;"/><!--MD5=[c732b874a07f213dc97cb4448785efbb]
link tictactoe.distributed.ResumeControllerProxy to tictactoe.distributed.dispatchers.FrameType--><path d="M1235.2837,721.309 C1217.7837,770.653 1181.8937,848.06 1120.6337,883 C1102.9137,893.103 773.8797,888.579 753.6297,891 C663.5727,901.769 560.9657,927.0764 500.6717,943.3212 " fill="none" id="tictactoe.distributed.ResumeControllerProxy-&gt;tictactoe.distributed.dispatchers.FrameType" style="stroke: #A80036; stroke-width: 1.0; stroke-dasharray: 7.0,7.0;"/><polygon fill="#A80036" points="495.6887,944.6693,505.421,946.1803,500.5152,943.3636,503.3319,938.4578,495.6887,944.6693" style="stroke: #A80036; stroke-width: 1.0;"/><!--MD5=[9c4059538b8a602a801f371c1bc64d7a]
reverse link tictactoe.controllers.SaveController to tictactoe.distributed.SaveControllerProxy--><path d="M2210.5937,261.888 C2199.7537,270.258 2187.3937,278.125 2174.6337,283 C2063.0937,325.59 1735.2137,249.815 1638.6337,320 C1547.5237,386.205 1514.3737,520.368 1502.3737,603.474 " fill="none" id="tictactoe.controllers.SaveController&lt;-tictactoe.distributed.SaveControllerProxy" style="stroke: #A80036; stroke-width: 1.0;"/><polygon fill="none" points="2206.4237,256.244,2226.2237,248.679,2215.4637,266.936,2206.4237,256.244" style="stroke: #A80036; stroke-width: 1.0;"/><!--MD5=[655cd7be49e5bac3d1f07859580b185a]
link tictactoe.distributed.SaveControllerProxy to utils.TCPIP--><path d="M1468.0022,759.6108 C1468.0022,759.6108 1418.8637,854.247 1375.6337,883 C1289.6037,940.2071 970.7677,953.9181 850.2097,957.0857 " fill="none" id="tictactoe.distributed.SaveControllerProxy-utils.TCPIP" style="stroke: #A80036; stroke-width: 1.0;"/><polygon fill="#A80036" points="837.1797,957.4068,846.2754,961.1841,842.1782,957.2837,846.0785,953.1865,837.1797,957.4068" style="stroke: #A80036; stroke-width: 1.0;"/><line style="stroke: #A80036; stroke-width: 1.0;" x1="842.1782" x2="850.1757" y1="957.2837" y2="957.0865"/><polygon fill="#A80036" points="1472.6537,748.549,1466.6407,752.5294,1468.0022,759.6108,1474.0152,755.6304,1472.6537,748.549" style="stroke: #A80036; stroke-width: 1.0;"/><!--MD5=[1bfb9702a01de0e891c3730a2233ec07]
reverse link tictactoe.models.Session to tictactoe.distributed.SessionProxy--><path d="M1645.3737,422.475 C1635.5737,427.874 1625.0737,432.75 1614.6337,436 C1433.6637,492.334 923.0077,390.423 763.6297,493 C717.6097,522.619 691.6417,581.534 678.1667,624.332 " fill="none" id="tictactoe.models.Session&lt;-tictactoe.distributed.SessionProxy" style="stroke: #A80036; stroke-width: 1.0;"/><polygon fill="none" points="1641.8437,416.427,1662.5837,412.087,1649.0837,428.414,1641.8437,416.427" style="stroke: #A80036; stroke-width: 1.0;"/><!--MD5=[9f0101232deb54f0d14ed3adf2ef648c]
link tictactoe.distributed.SessionProxy to utils.TCPIP--><path d="M694.0166,738.5657 C694.0166,738.5657 739.5827,835.305 763.6297,883 C770.3257,896.281 777.9497,910.729 784.7327,923.3679 " fill="none" id="tictactoe.distributed.SessionProxy-utils.TCPIP" style="stroke: #A80036; stroke-width: 1.0;"/><polygon fill="#A80036" points="790.9207,934.8332,790.1666,925.0133,788.5461,930.433,783.1263,928.8126,790.9207,934.8332" style="stroke: #A80036; stroke-width: 1.0;"/><line style="stroke: #A80036; stroke-width: 1.0;" x1="788.5461" x2="784.7462" y1="930.433" y2="923.3931"/><polygon fill="#A80036" points="688.9517,727.687,687.8579,734.8147,694.0166,738.5657,695.1104,731.4381,688.9517,727.687" style="stroke: #A80036; stroke-width: 1.0;"/><!--MD5=[61b1700a719da9edb70e4242fee337e7]
link tictactoe.distributed.SessionProxy to tictactoe.distributed.dispatchers.FrameType--><path d="M650.4947,727.767 C635.1917,772.538 607.9997,837.546 567.6297,883 C549.0057,903.969 523.1427,921.2181 500.2837,933.8647 " fill="none" id="tictactoe.distributed.SessionProxy-&gt;tictactoe.distributed.dispatchers.FrameType" style="stroke: #A80036; stroke-width: 1.0; stroke-dasharray: 7.0,7.0;"/><polygon fill="#A80036" points="495.7557,936.3324,505.5724,935.5378,500.146,933.9397,501.7441,928.5133,495.7557,936.3324" style="stroke: #A80036; stroke-width: 1.0;"/><!--MD5=[779dca9be042fa644f6a71966827c8a6]
reverse link tictactoe.controllers.StartController to tictactoe.distributed.StartControllerProxy--><path d="M2064.1537,261.825 C2053.4537,270.196 2041.2537,278.079 2028.6337,283 C1927.9137,322.255 1650.5937,304.462 1543.6337,320 C1301.5637,355.163 1246.6737,394.403 1005.6297,436 C812.1807,469.383 733.8937,388.63 567.6297,493 C524.3047,520.197 493.5047,569.591 474.1087,610.066 " fill="none" id="tictactoe.controllers.StartController&lt;-tictactoe.distributed.StartControllerProxy" style="stroke: #A80036; stroke-width: 1.0;"/><polygon fill="none" points="2059.8137,256.32,2079.5637,248.625,2068.9237,266.953,2059.8137,256.32" style="stroke: #A80036; stroke-width: 1.0;"/><!--MD5=[37d6c00cb215c456ab4b34dfd0ecfc39]
link tictactoe.distributed.StartControllerProxy to utils.TCPIP--><path d="M476.1916,752.7948 C476.1916,752.7948 526.0017,849.521 567.6297,883 C623.1387,927.6434 705.6577,945.9158 756.9687,953.2519 " fill="none" id="tictactoe.distributed.StartControllerProxy-utils.TCPIP" style="stroke: #A80036; stroke-width: 1.0;"/><polygon fill="#A80036" points="769.9347,954.9676,761.5373,949.8213,764.9779,954.3116,760.4877,957.7521,769.9347,954.9676" style="stroke: #A80036; stroke-width: 1.0;"/><line style="stroke: #A80036; stroke-width: 1.0;" x1="764.9779" x2="757.0477" y1="954.3116" y2="953.2623"/><polygon fill="#A80036" points="471.4207,741.784,470.1359,748.8797,476.1916,752.7948,477.4764,745.6991,471.4207,741.784" style="stroke: #A80036; stroke-width: 1.0;"/><!--MD5=[b5b86e59c2a07fc2d0ab6bac9119ccbf]
link tictactoe.distributed.StartControllerProxy to tictactoe.distributed.dispatchers.FrameType--><path d="M448.6297,741.82 C448.6297,801.161 448.6297,886.175 448.6297,929.8028 " fill="none" id="tictactoe.distributed.StartControllerProxy-&gt;tictactoe.distributed.dispatchers.FrameType" style="stroke: #A80036; stroke-width: 1.0; stroke-dasharray: 7.0,7.0;"/><polygon fill="#A80036" points="448.6297,934.9137,452.6297,925.9137,448.6297,929.9137,444.6297,925.9137,448.6297,934.9137" style="stroke: #A80036; stroke-width: 1.0;"/><!--MD5=[2174d0cc54ae1814438ab3c9cb4f3765]
reverse link tictactoe.TicTacToe to tictactoe.distributed.TicTacToeClient--><path d="M942.6297,110.318 C942.6297,127.479 942.6297,147.46 942.6297,165.816 " fill="none" id="tictactoe.TicTacToe&lt;-tictactoe.distributed.TicTacToeClient" style="stroke: #A80036; stroke-width: 1.0;"/><polygon fill="none" points="935.6297,110.092,942.6297,90.092,949.6297,110.092,935.6297,110.092" style="stroke: #A80036; stroke-width: 1.0;"/><!--MD5=[8f2c08e9d570d0a8e0d41648a750fb0b]
link tictactoe.distributed.TicTacToeClient to tictactoe.distributed.LogicProxy--><path d="M942.6297,295.349 C942.6297,295.349 942.6297,318.97 942.6297,329.737 " fill="none" id="tictactoe.distributed.TicTacToeClient-tictactoe.distributed.LogicProxy" style="stroke: #A80036; stroke-width: 1.0;"/><polygon fill="#A80036" points="942.6297,342.984,946.6297,333.984,942.6297,337.984,938.6297,333.984,942.6297,342.984" style="stroke: #A80036; stroke-width: 1.0;"/><line style="stroke: #A80036; stroke-width: 1.0;" x1="942.6297" x2="942.6297" y1="337.984" y2="329.984"/><polygon fill="#A80036" points="942.6297,283.349,938.6297,289.349,942.6297,295.349,946.6297,289.349,942.6297,283.349" style="stroke: #A80036; stroke-width: 1.0;"/><!--MD5=[164623042d3c8b7d1e2f43292402fefb]
link tictactoe.distributed.TicTacToeServer to tictactoe.distributed.dispatchers.DispatcherPrototype--><path d="M353.0373,275.9597 C353.0373,275.9597 153.9857,391.038 103.6298,493 C26.8763,648.413 6,739.777 103.6298,883 C127.5683,918.1178 170.6757,936.7925 209.8867,946.723 " fill="none" id="tictactoe.distributed.TicTacToeServer-tictactoe.distributed.dispatchers.DispatcherPrototype" style="stroke: #A80036; stroke-width: 1.0;"/><polygon fill="#A80036" points="222.7267,949.7082,214.8665,943.7738,217.8566,948.5758,213.0546,951.5659,222.7267,949.7082" style="stroke: #A80036; stroke-width: 1.0;"/><line style="stroke: #A80036; stroke-width: 1.0;" x1="217.8566" x2="210.0642" y1="948.5758" y2="946.7642"/><polygon fill="#A80036" points="363.8407,270.736,356.6978,269.7467,353.0373,275.9597,360.1802,276.949,363.8407,270.736" style="stroke: #A80036; stroke-width: 1.0;"/><!--MD5=[13a60f28c4503026d1169de297b7811a]
link tictactoe.distributed.TicTacToeServer to tictactoe.distributed.LogicImplementationServer--><path d="M484.9754,295.283 C484.9754,295.283 487.9777,323.803 489.3107,336.469 " fill="none" id="tictactoe.distributed.TicTacToeServer-tictactoe.distributed.LogicImplementationServer" style="stroke: #A80036; stroke-width: 1.0;"/><polygon fill="#A80036" points="490.7017,349.686,493.7382,340.3169,490.1786,344.7134,485.7821,341.1539,490.7017,349.686" style="stroke: #A80036; stroke-width: 1.0;"/><line style="stroke: #A80036; stroke-width: 1.0;" x1="490.1786" x2="489.3407" y1="344.7134" y2="336.757"/><polygon fill="#A80036" points="483.7187,283.349,480.369,289.7349,484.9754,295.283,488.3251,288.8971,483.7187,283.349" style="stroke: #A80036; stroke-width: 1.0;"/><!--MD5=[b80f17fd04993af6f68434d3c62fad1d]
@startuml

class  tictactoe.distributed.LogicImplementationServer{
+ LogicImplementationServer(SessionImplementationDAO)
+ createDispatchers(DispatcherPrototype): void
}
tictactoe.controllers.implementation.LogicImplementation <|-down- tictactoe.distributed.LogicImplementationServer
tictactoe.distributed.LogicImplementationServer ..> tictactoe.distributed.dispatchers.DispatcherPrototype
tictactoe.distributed.LogicImplementationServer ..> tictactoe.distributed.dispatchers.FrameType

class  tictactoe.distributed.LogicProxy{
- tcpip: TCPIP
+ LogicProxy()
+ close(): void
}
tictactoe.controllers.Logic <|-down- tictactoe.distributed.LogicProxy
tictactoe.distributed.LogicProxy *-down-> utils.TCPIP
tictactoe.distributed.LogicProxy *-down-> tictactoe.distributed.SessionProxy
tictactoe.distributed.LogicProxy *-down-> tictactoe.distributed.ResumeControllerProxy
tictactoe.distributed.LogicProxy *-down-> tictactoe.distributed.StartControllerProxy
tictactoe.distributed.LogicProxy *-down-> tictactoe.distributed.PlayControllerProxy
tictactoe.distributed.LogicProxy *-down-> tictactoe.distributed.SaveControllerProxy

class  tictactoe.distributed.PlayControllerProxy{
- tcpip: TCPIP
+ PlayControllerProxy(TCPIP, Session)
+ undo(): void
+ redo(): void
+ next(): void
+ undoable(): boolean
+ redoable(): boolean
+ getTypeOfTokenPlayerFromTurn(): PlayerType
+ getPutCoordinateError(Coordinate): Error
+ getMoveOriginCoordinateError(Coordinate): Error
+ getMoveTargetCoordinateError(Coordinate, Coordinate): Error
+ isCoordinateValid(Coordinate): boolean
+ generateRandomCoordinate(): Coordinate
+ isBoardComplete(): boolean
+ putTokenPlayerFromTurn(Coordinate): void
+ moveTokenPlayerFromTurn(Coordinate[]): void
+ changeTurn(): void
+ getTokenChar(Coordinate): char
+ isEmptyToken(Coordinate): boolean
+ getValueFromTurn(): int
+ continueState(): void
+ getCoordinateDimension(): int
+ isTicTacToe(): boolean
}
tictactoe.controllers.PlayController <|-down- tictactoe.distributed.PlayControllerProxy
tictactoe.distributed.PlayControllerProxy *-down-> utils.TCPIP
tictactoe.distributed.PlayControllerProxy ..> tictactoe.distributed.dispatchers.FrameType

class  tictactoe.distributed.ResumeControllerProxy{
- tcpip: TCPIP
+ ResumeControllerProxy(Session, TCPIP)
+ resume(): void
}
tictactoe.controllers.ResumeController <|-down- tictactoe.distributed.ResumeControllerProxy
tictactoe.distributed.ResumeControllerProxy *-down-> utils.TCPIP
tictactoe.distributed.ResumeControllerProxy ..> tictactoe.distributed.dispatchers.FrameType

class  tictactoe.distributed.SaveControllerProxy{
- tcpip: TCPIP
~ SaveControllerProxy(TCPIP, Session)
+ next(): void
+ save(): void
+ save(String): void
+ exists(String): boolean
+ hasName(): boolean
}
tictactoe.controllers.SaveController <|-down- tictactoe.distributed.SaveControllerProxy
tictactoe.distributed.SaveControllerProxy *-down-> utils.TCPIP

class  tictactoe.distributed.SessionProxy{
- tcpip: TCPIP
+ SessionProxy(TCPIP)
+ getValueState(): StateValue
+ getWidth(): int
}
tictactoe.models.Session <|-down- tictactoe.distributed.SessionProxy
tictactoe.distributed.SessionProxy *-down-> utils.TCPIP
tictactoe.distributed.SessionProxy..> tictactoe.distributed.dispatchers.FrameType

class  tictactoe.distributed.StartControllerProxy{
- tcpip: TCPIP
+ StartControllerProxy(TCPIP, Session)
+ start(): void
+ start(String): void
+ createPlayers(int): void
+ getGamesNames(): String[]
}
tictactoe.controllers.StartController <|-down- tictactoe.distributed.StartControllerProxy
tictactoe.distributed.StartControllerProxy *-down-> utils.TCPIP
tictactoe.distributed.StartControllerProxy ..> tictactoe.distributed.dispatchers.FrameType

class  tictactoe.distributed.TicTacToeClient{
- logicProxy: LogicProxy
+ TicTacToeClient()
+ {static} main(String[]): void
# createLogic(): Logic
# play(): void
}
tictactoe.TicTacToe <|-down- tictactoe.distributed.TicTacToeClient
tictactoe.distributed.TicTacToeClient *-down-> tictactoe.distributed.LogicProxy

class  tictactoe.distributed.TicTacToeServer{
- dispatcherPrototype: DispatcherPrototype
- logic: LogicServer
- TicTacToeServer()
+ {static} main(String[]): void
- serve(): void
}
tictactoe.distributed.TicTacToeServer *-down-> tictactoe.distributed.dispatchers.DispatcherPrototype
tictactoe.distributed.TicTacToeServer *-down-> tictactoe.distributed.LogicImplementationServer

@enduml

PlantUML version 1.2020.15(Sun Jun 28 13:39:45 CEST 2020)
(GPL source distribution)
Java Runtime: Java(TM) SE Runtime Environment
JVM: Java HotSpot(TM) 64-Bit Server VM
Default Encoding: windows-1252
Language: es
Country: ES
--></g></svg>