<?xml version="1.0" encoding="UTF-8" standalone="no"?><svg xmlns="http://www.w3.org/2000/svg" xmlns:xlink="http://www.w3.org/1999/xlink" contentScriptType="application/ecmascript" contentStyleType="text/css" height="436px" preserveAspectRatio="none" style="width:998px;height:436px;" version="1.1" viewBox="0 0 998 436" width="998px" zoomAndPan="magnify"><defs><filter height="300%" id="f1gur4kr4z3v6e" width="300%" x="-1" y="-1"><feGaussianBlur result="blurOut" stdDeviation="2.0"/><feColorMatrix in="blurOut" result="blurOut2" type="matrix" values="0 0 0 0 0 0 0 0 0 0 0 0 0 0 0 0 0 0 .4 0"/><feOffset dx="4.0" dy="4.0" in="blurOut2" result="blurOut3"/><feBlend in="SourceGraphic" in2="blurOut3" mode="normal"/></filter></defs><g><!--MD5=[f4e83a21a957c5b9ba9691e6361db36b]
cluster tictactoe.views--><polygon fill="#FFFFFF" filter="url(#f1gur4kr4z3v6e)" points="16,6,128,6,135,29.6094,976,29.6094,976,300,16,300,16,6" style="stroke: #000000; stroke-width: 1.5;"/><line style="stroke: #000000; stroke-width: 1.5;" x1="16" x2="135" y1="29.6094" y2="29.6094"/><text fill="#000000" font-family="sans-serif" font-size="14" font-weight="bold" lengthAdjust="spacingAndGlyphs" textLength="106" x="20" y="22.5332">tictactoe.views</text><!--MD5=[ee7e9a007a7c4d40c0679a27f272732d]
cluster tictactoe.controllers--><polygon fill="#FFFFFF" filter="url(#f1gur4kr4z3v6e)" points="169,324,317,324,324,347.6094,327,347.6094,327,424,169,424,169,324" style="stroke: #000000; stroke-width: 1.5;"/><line style="stroke: #000000; stroke-width: 1.5;" x1="169" x2="324" y1="347.6094" y2="347.6094"/><text fill="#000000" font-family="sans-serif" font-size="14" font-weight="bold" lengthAdjust="spacingAndGlyphs" textLength="142" x="173" y="340.5332">tictactoe.controllers</text><!--MD5=[17799e03bfee0ccb3aa03b93da9c26d6]
class tictactoe.views.ErrorView--><rect fill="#FEFECE" filter="url(#f1gur4kr4z3v6e)" height="89.5078" id="tictactoe.views.ErrorView" style="stroke: #A80036; stroke-width: 1.5;" width="123" x="836.5" y="118"/><ellipse cx="868.6" cy="134" fill="#ADD1B2" rx="11" ry="11" style="stroke: #A80036; stroke-width: 1.0;"/><path d="M871.3656,129.875 Q871.5219,129.6563 871.7094,129.5469 Q871.8969,129.4375 872.1156,129.4375 Q872.4906,129.4375 872.725,129.7031 Q872.9594,129.9531 872.9594,130.5625 L872.9594,132.0156 Q872.9594,132.625 872.725,132.8906 Q872.4906,133.1563 872.1156,133.1563 Q871.7719,133.1563 871.5688,132.9531 Q871.3656,132.7656 871.2563,132.25 Q871.2094,131.8906 871.0219,131.7031 Q870.6938,131.3281 870.0844,131.1094 Q869.475,130.8906 868.85,130.8906 Q868.0844,130.8906 867.4438,131.2188 Q866.8188,131.5469 866.3188,132.2969 Q865.8344,133.0469 865.8344,134.0781 L865.8344,135.1719 Q865.8344,136.4063 866.725,137.2344 Q867.6156,138.0469 869.2094,138.0469 Q870.1469,138.0469 870.8031,137.7969 Q871.1938,137.6406 871.6156,137.2031 Q871.8813,136.9375 872.0219,136.8594 Q872.1781,136.7813 872.3813,136.7813 Q872.7094,136.7813 872.9594,137.0469 Q873.225,137.2969 873.225,137.6406 Q873.225,137.9844 872.8813,138.3906 Q872.3813,138.9688 871.5844,139.2969 Q870.5063,139.75 869.2094,139.75 Q867.6938,139.75 866.4906,139.125 Q865.5063,138.625 864.8188,137.5625 Q864.1313,136.4844 864.1313,135.2031 L864.1313,134.0469 Q864.1313,132.7188 864.7406,131.5781 Q865.3656,130.4219 866.4594,129.8125 Q867.5531,129.1875 868.7875,129.1875 Q869.5219,129.1875 870.1625,129.3594 Q870.8188,129.5156 871.3656,129.875 Z "/><text fill="#000000" font-family="sans-serif" font-size="12" lengthAdjust="spacingAndGlyphs" textLength="53" x="886.4" y="138.9102">ErrorView</text><line style="stroke: #A80036; stroke-width: 1.5;" x1="837.5" x2="958.5" y1="150" y2="150"/><ellipse cx="847.5" cy="161" fill="none" rx="3" ry="3" style="stroke: #038048; stroke-width: 1.0;"/><text fill="#000000" font-family="sans-serif" font-size="11" lengthAdjust="spacingAndGlyphs" text-decoration="underline" textLength="97" x="856.5" y="165.4189">MESSAGES: String[]</text><polygon fill="none" points="847.5,169.8359,851.5,173.8359,847.5,177.8359,843.5,173.8359" style="stroke: #B38D22; stroke-width: 1.0;"/><text fill="#000000" font-family="sans-serif" font-size="11" lengthAdjust="spacingAndGlyphs" textLength="54" x="856.5" y="179.2549">error: Error</text><line style="stroke: #A80036; stroke-width: 1.5;" x1="837.5" x2="958.5" y1="185.6719" y2="185.6719"/><ellipse cx="847.5" cy="196.6719" fill="#84BE84" rx="3" ry="3" style="stroke: #038048; stroke-width: 1.0;"/><text fill="#000000" font-family="sans-serif" font-size="11" lengthAdjust="spacingAndGlyphs" textLength="82" x="856.5" y="201.0908">ErrorView(Error)</text><!--MD5=[ac4b0e0875a820e87662d988d53b2072]
class tictactoe.views.MessageView--><rect fill="#FEFECE" filter="url(#f1gur4kr4z3v6e)" height="241.7031" id="tictactoe.views.MessageView" style="stroke: #A80036; stroke-width: 1.5;" width="237" x="564.5" y="42"/><ellipse cx="640.25" cy="58" fill="#EB937F" rx="11" ry="11" style="stroke: #A80036; stroke-width: 1.0;"/><path d="M639.1094,58.7969 L639.1094,61.2969 L643.4375,61.2969 L643.4375,60.375 Q643.4375,59.7656 643.6719,59.5 Q643.9219,59.2344 644.2969,59.2344 Q644.6719,59.2344 644.9063,59.5 Q645.1406,59.7656 645.1406,60.375 L645.1406,63 L637.1406,63 Q636.5156,63 636.25,62.7656 Q636,62.5313 636,62.1406 Q636,61.7656 636.2656,61.5313 Q636.5313,61.2969 637.1406,61.2969 L637.4063,61.2969 L637.4063,54.6406 L637.1406,54.6406 Q636.5156,54.6406 636.25,54.4063 Q636,54.1719 636,53.7813 Q636,53.4063 636.25,53.1719 Q636.5156,52.9375 637.1406,52.9375 L644.7656,52.9375 L644.7656,55.5313 Q644.7656,56.1406 644.5313,56.4063 Q644.3125,56.6563 643.9219,56.6563 Q643.5469,56.6563 643.3125,56.4063 Q643.0781,56.1406 643.0781,55.5313 L643.0781,54.6406 L639.1094,54.6406 L639.1094,57.0938 L640.5938,57.0938 Q640.5938,56.4375 640.7188,56.25 Q640.9844,55.8438 641.4531,55.8438 Q641.8281,55.8438 642.0625,56.1094 Q642.2969,56.3594 642.2969,56.9688 L642.2969,58.9375 Q642.2969,59.4844 642.1719,59.6719 Q641.9063,60.0625 641.4531,60.0625 Q640.9844,60.0625 640.7188,59.6563 Q640.5938,59.4688 640.5938,58.7969 L639.1094,58.7969 Z "/><text fill="#000000" font-family="sans-serif" font-size="12" lengthAdjust="spacingAndGlyphs" textLength="77" x="660.75" y="62.9102">MessageView</text><line style="stroke: #A80036; stroke-width: 1.5;" x1="565.5" x2="800.5" y1="74" y2="74"/><ellipse cx="575.5" cy="85" fill="none" rx="3" ry="3" style="stroke: #038048; stroke-width: 1.0;"/><text fill="#000000" font-family="sans-serif" font-size="11" lengthAdjust="spacingAndGlyphs" textLength="110" x="584.5" y="89.4189">EMPTY: MessageView</text><ellipse cx="575.5" cy="98.8359" fill="none" rx="3" ry="3" style="stroke: #038048; stroke-width: 1.0;"/><text fill="#000000" font-family="sans-serif" font-size="11" lengthAdjust="spacingAndGlyphs" textLength="139" x="584.5" y="103.2549">SEPARATOR: MessageView</text><ellipse cx="575.5" cy="112.6719" fill="none" rx="3" ry="3" style="stroke: #038048; stroke-width: 1.0;"/><text fill="#000000" font-family="sans-serif" font-size="11" lengthAdjust="spacingAndGlyphs" textLength="211" x="584.5" y="117.0908">VERTICAL_LINE_CENTERED: MessageView</text><ellipse cx="575.5" cy="126.5078" fill="none" rx="3" ry="3" style="stroke: #038048; stroke-width: 1.0;"/><text fill="#000000" font-family="sans-serif" font-size="11" lengthAdjust="spacingAndGlyphs" textLength="183" x="584.5" y="130.9268">VERTICAL_LINE_LEFT: MessageView</text><ellipse cx="575.5" cy="140.3438" fill="none" rx="3" ry="3" style="stroke: #038048; stroke-width: 1.0;"/><text fill="#000000" font-family="sans-serif" font-size="11" lengthAdjust="spacingAndGlyphs" textLength="142" x="584.5" y="144.7627">PLAYER_WIN: MessageView</text><ellipse cx="575.5" cy="154.1797" fill="none" rx="3" ry="3" style="stroke: #038048; stroke-width: 1.0;"/><text fill="#000000" font-family="sans-serif" font-size="11" lengthAdjust="spacingAndGlyphs" textLength="146" x="584.5" y="158.5986">START_GAME: MessageView</text><ellipse cx="575.5" cy="168.0156" fill="none" rx="3" ry="3" style="stroke: #038048; stroke-width: 1.0;"/><text fill="#000000" font-family="sans-serif" font-size="11" lengthAdjust="spacingAndGlyphs" textLength="166" x="584.5" y="172.4346">CHOOSE_PLAYER: MessageView</text><ellipse cx="575.5" cy="181.8516" fill="none" rx="3" ry="3" style="stroke: #038048; stroke-width: 1.0;"/><text fill="#000000" font-family="sans-serif" font-size="11" lengthAdjust="spacingAndGlyphs" textLength="135" x="584.5" y="186.2705">READ_ROW: MessageView</text><ellipse cx="575.5" cy="195.6875" fill="none" rx="3" ry="3" style="stroke: #038048; stroke-width: 1.0;"/><text fill="#000000" font-family="sans-serif" font-size="11" lengthAdjust="spacingAndGlyphs" textLength="153" x="584.5" y="200.1064">READ_COLUMN: MessageView</text><ellipse cx="575.5" cy="209.5234" fill="none" rx="3" ry="3" style="stroke: #038048; stroke-width: 1.0;"/><text fill="#000000" font-family="sans-serif" font-size="11" lengthAdjust="spacingAndGlyphs" textLength="111" x="584.5" y="213.9424">ERROR: MessageView</text><ellipse cx="575.5" cy="223.3594" fill="none" rx="3" ry="3" style="stroke: #038048; stroke-width: 1.0;"/><text fill="#000000" font-family="sans-serif" font-size="11" lengthAdjust="spacingAndGlyphs" textLength="117" x="584.5" y="227.7783">RESUME: MessageView</text><rect fill="none" height="6" style="stroke: #C82930; stroke-width: 1.0;" width="6" x="572.5" y="234.1953"/><text fill="#000000" font-family="sans-serif" font-size="11" lengthAdjust="spacingAndGlyphs" textLength="78" x="584.5" y="241.6143">message: String</text><line style="stroke: #A80036; stroke-width: 1.5;" x1="565.5" x2="800.5" y1="248.0313" y2="248.0313"/><rect fill="#F24D5C" height="6" style="stroke: #C82930; stroke-width: 1.0;" width="6" x="572.5" y="256.0313"/><text fill="#000000" font-family="sans-serif" font-size="11" lengthAdjust="spacingAndGlyphs" textLength="106" x="584.5" y="263.4502">MessageView(String)</text><ellipse cx="575.5" cy="272.8672" fill="#84BE84" rx="3" ry="3" style="stroke: #038048; stroke-width: 1.0;"/><text fill="#000000" font-family="sans-serif" font-size="11" lengthAdjust="spacingAndGlyphs" textLength="101" x="584.5" y="277.2861">getMessage(): String</text><!--MD5=[2ae15d20e7f22fd333327d3852982126]
class tictactoe.views.PlayerView--><rect fill="#FEFECE" filter="url(#f1gur4kr4z3v6e)" height="144.8516" id="tictactoe.views.PlayerView" style="stroke: #A80036; stroke-width: 1.5;" width="322" x="207" y="90.5"/><ellipse cx="333.75" cy="106.5" fill="#ADD1B2" rx="11" ry="11" style="stroke: #A80036; stroke-width: 1.0;"/><path d="M336.5156,102.375 Q336.6719,102.1563 336.8594,102.0469 Q337.0469,101.9375 337.2656,101.9375 Q337.6406,101.9375 337.875,102.2031 Q338.1094,102.4531 338.1094,103.0625 L338.1094,104.5156 Q338.1094,105.125 337.875,105.3906 Q337.6406,105.6563 337.2656,105.6563 Q336.9219,105.6563 336.7188,105.4531 Q336.5156,105.2656 336.4063,104.75 Q336.3594,104.3906 336.1719,104.2031 Q335.8438,103.8281 335.2344,103.6094 Q334.625,103.3906 334,103.3906 Q333.2344,103.3906 332.5938,103.7188 Q331.9688,104.0469 331.4688,104.7969 Q330.9844,105.5469 330.9844,106.5781 L330.9844,107.6719 Q330.9844,108.9063 331.875,109.7344 Q332.7656,110.5469 334.3594,110.5469 Q335.2969,110.5469 335.9531,110.2969 Q336.3438,110.1406 336.7656,109.7031 Q337.0313,109.4375 337.1719,109.3594 Q337.3281,109.2813 337.5313,109.2813 Q337.8594,109.2813 338.1094,109.5469 Q338.375,109.7969 338.375,110.1406 Q338.375,110.4844 338.0313,110.8906 Q337.5313,111.4688 336.7344,111.7969 Q335.6563,112.25 334.3594,112.25 Q332.8438,112.25 331.6406,111.625 Q330.6563,111.125 329.9688,110.0625 Q329.2813,108.9844 329.2813,107.7031 L329.2813,106.5469 Q329.2813,105.2188 329.8906,104.0781 Q330.5156,102.9219 331.6094,102.3125 Q332.7031,101.6875 333.9375,101.6875 Q334.6719,101.6875 335.3125,101.8594 Q335.9688,102.0156 336.5156,102.375 Z "/><text fill="#000000" font-family="sans-serif" font-size="12" lengthAdjust="spacingAndGlyphs" textLength="60" x="354.25" y="111.4102">PlayerView</text><line style="stroke: #A80036; stroke-width: 1.5;" x1="208" x2="528" y1="122.5" y2="122.5"/><polygon fill="none" points="218,128.5,222,132.5,218,136.5,214,132.5" style="stroke: #B38D22; stroke-width: 1.0;"/><text fill="#000000" font-family="sans-serif" font-size="11" lengthAdjust="spacingAndGlyphs" textLength="54" x="227" y="137.9189">logic: Logic</text><line style="stroke: #A80036; stroke-width: 1.5;" x1="208" x2="528" y1="144.3359" y2="144.3359"/><ellipse cx="218" cy="155.3359" fill="#84BE84" rx="3" ry="3" style="stroke: #038048; stroke-width: 1.0;"/><text fill="#000000" font-family="sans-serif" font-size="11" lengthAdjust="spacingAndGlyphs" textLength="90" x="227" y="159.7549">PlayerView(Logic)</text><ellipse cx="218" cy="169.1719" fill="#84BE84" rx="3" ry="3" style="stroke: #038048; stroke-width: 1.0;"/><text fill="#000000" font-family="sans-serif" font-size="11" font-style="italic" lengthAdjust="spacingAndGlyphs" textLength="137" x="227" y="173.5908">readCoordinateToPut(): int[]</text><ellipse cx="218" cy="183.0078" fill="#84BE84" rx="3" ry="3" style="stroke: #038048; stroke-width: 1.0;"/><text fill="#000000" font-family="sans-serif" font-size="11" font-style="italic" lengthAdjust="spacingAndGlyphs" textLength="159" x="227" y="187.4268">readCoordinatesToMove(): int[][]</text><ellipse cx="218" cy="196.8438" fill="#84BE84" rx="3" ry="3" style="stroke: #038048; stroke-width: 1.0;"/><text fill="#000000" font-family="sans-serif" font-size="11" lengthAdjust="spacingAndGlyphs" textLength="196" x="227" y="201.2627">getPutCoordinateError(Coordinate): Error</text><ellipse cx="218" cy="210.6797" fill="#84BE84" rx="3" ry="3" style="stroke: #038048; stroke-width: 1.0;"/><text fill="#000000" font-family="sans-serif" font-size="11" lengthAdjust="spacingAndGlyphs" textLength="235" x="227" y="215.0986">getMoveOriginCoordinateError(Coordinate): Error</text><ellipse cx="218" cy="224.5156" fill="#84BE84" rx="3" ry="3" style="stroke: #038048; stroke-width: 1.0;"/><text fill="#000000" font-family="sans-serif" font-size="11" lengthAdjust="spacingAndGlyphs" textLength="296" x="227" y="228.9346">getMoveTargetCoordinateError(Coordinate, Coordinate): Error</text><!--MD5=[015754420c4cdd9bacda884b3fa8c6ca]
class tictactoe.views.View--><rect fill="#FEFECE" filter="url(#f1gur4kr4z3v6e)" height="131.0156" id="tictactoe.views.View" style="stroke: #A80036; stroke-width: 1.5;" width="140" x="32" y="97.5"/><ellipse cx="84.75" cy="113.5" fill="#ADD1B2" rx="11" ry="11" style="stroke: #A80036; stroke-width: 1.0;"/><path d="M87.5156,109.375 Q87.6719,109.1563 87.8594,109.0469 Q88.0469,108.9375 88.2656,108.9375 Q88.6406,108.9375 88.875,109.2031 Q89.1094,109.4531 89.1094,110.0625 L89.1094,111.5156 Q89.1094,112.125 88.875,112.3906 Q88.6406,112.6563 88.2656,112.6563 Q87.9219,112.6563 87.7188,112.4531 Q87.5156,112.2656 87.4063,111.75 Q87.3594,111.3906 87.1719,111.2031 Q86.8438,110.8281 86.2344,110.6094 Q85.625,110.3906 85,110.3906 Q84.2344,110.3906 83.5938,110.7188 Q82.9688,111.0469 82.4688,111.7969 Q81.9844,112.5469 81.9844,113.5781 L81.9844,114.6719 Q81.9844,115.9063 82.875,116.7344 Q83.7656,117.5469 85.3594,117.5469 Q86.2969,117.5469 86.9531,117.2969 Q87.3438,117.1406 87.7656,116.7031 Q88.0313,116.4375 88.1719,116.3594 Q88.3281,116.2813 88.5313,116.2813 Q88.8594,116.2813 89.1094,116.5469 Q89.375,116.7969 89.375,117.1406 Q89.375,117.4844 89.0313,117.8906 Q88.5313,118.4688 87.7344,118.7969 Q86.6563,119.25 85.3594,119.25 Q83.8438,119.25 82.6406,118.625 Q81.6563,118.125 80.9688,117.0625 Q80.2813,115.9844 80.2813,114.7031 L80.2813,113.5469 Q80.2813,112.2188 80.8906,111.0781 Q81.5156,109.9219 82.6094,109.3125 Q83.7031,108.6875 84.9375,108.6875 Q85.6719,108.6875 86.3125,108.8594 Q86.9688,109.0156 87.5156,109.375 Z "/><text fill="#000000" font-family="sans-serif" font-size="12" lengthAdjust="spacingAndGlyphs" textLength="26" x="105.25" y="118.4102">View</text><line style="stroke: #A80036; stroke-width: 1.5;" x1="33" x2="171" y1="129.5" y2="129.5"/><polygon fill="none" points="43,135.5,47,139.5,43,143.5,39,139.5" style="stroke: #B38D22; stroke-width: 1.0;"/><text fill="#000000" font-family="sans-serif" font-size="11" lengthAdjust="spacingAndGlyphs" textLength="54" x="52" y="144.9189">logic: Logic</text><line style="stroke: #A80036; stroke-width: 1.5;" x1="33" x2="171" y1="151.3359" y2="151.3359"/><ellipse cx="43" cy="162.3359" fill="#84BE84" rx="3" ry="3" style="stroke: #038048; stroke-width: 1.0;"/><text fill="#000000" font-family="sans-serif" font-size="11" lengthAdjust="spacingAndGlyphs" textLength="60" x="52" y="166.7549">View(Logic)</text><ellipse cx="43" cy="176.1719" fill="#84BE84" rx="3" ry="3" style="stroke: #038048; stroke-width: 1.0;"/><text fill="#000000" font-family="sans-serif" font-size="11" lengthAdjust="spacingAndGlyphs" textLength="70" x="52" y="180.5908">interact(): void</text><polygon fill="#FFFF44" points="43,185.0078,47,189.0078,43,193.0078,39,189.0078" style="stroke: #B38D22; stroke-width: 1.0;"/><text fill="#000000" font-family="sans-serif" font-size="11" font-style="italic" lengthAdjust="spacingAndGlyphs" textLength="56" x="52" y="194.4268">start(): void</text><polygon fill="#FFFF44" points="43,198.8438,47,202.8438,43,206.8438,39,202.8438" style="stroke: #B38D22; stroke-width: 1.0;"/><text fill="#000000" font-family="sans-serif" font-size="11" font-style="italic" lengthAdjust="spacingAndGlyphs" textLength="74" x="52" y="208.2627">play(): boolean</text><polygon fill="#FFFF44" points="43,212.6797,47,216.6797,43,220.6797,39,216.6797" style="stroke: #B38D22; stroke-width: 1.0;"/><text fill="#000000" font-family="sans-serif" font-size="11" font-style="italic" lengthAdjust="spacingAndGlyphs" textLength="114" x="52" y="222.0986">isNewGame(): boolean</text><!--MD5=[3b8962fd5847b9038b2e29740dae8054]
class tictactoe.controllers.Logic--><rect fill="#FEFECE" filter="url(#f1gur4kr4z3v6e)" height="48" id="tictactoe.controllers.Logic" style="stroke: #A80036; stroke-width: 1.5;" width="62" x="204" y="360"/><ellipse cx="219" cy="376" fill="#ADD1B2" rx="11" ry="11" style="stroke: #A80036; stroke-width: 1.0;"/><path d="M221.7656,371.875 Q221.9219,371.6563 222.1094,371.5469 Q222.2969,371.4375 222.5156,371.4375 Q222.8906,371.4375 223.125,371.7031 Q223.3594,371.9531 223.3594,372.5625 L223.3594,374.0156 Q223.3594,374.625 223.125,374.8906 Q222.8906,375.1563 222.5156,375.1563 Q222.1719,375.1563 221.9688,374.9531 Q221.7656,374.7656 221.6563,374.25 Q221.6094,373.8906 221.4219,373.7031 Q221.0938,373.3281 220.4844,373.1094 Q219.875,372.8906 219.25,372.8906 Q218.4844,372.8906 217.8438,373.2188 Q217.2188,373.5469 216.7188,374.2969 Q216.2344,375.0469 216.2344,376.0781 L216.2344,377.1719 Q216.2344,378.4063 217.125,379.2344 Q218.0156,380.0469 219.6094,380.0469 Q220.5469,380.0469 221.2031,379.7969 Q221.5938,379.6406 222.0156,379.2031 Q222.2813,378.9375 222.4219,378.8594 Q222.5781,378.7813 222.7813,378.7813 Q223.1094,378.7813 223.3594,379.0469 Q223.625,379.2969 223.625,379.6406 Q223.625,379.9844 223.2813,380.3906 Q222.7813,380.9688 221.9844,381.2969 Q220.9063,381.75 219.6094,381.75 Q218.0938,381.75 216.8906,381.125 Q215.9063,380.625 215.2188,379.5625 Q214.5313,378.4844 214.5313,377.2031 L214.5313,376.0469 Q214.5313,374.7188 215.1406,373.5781 Q215.7656,372.4219 216.8594,371.8125 Q217.9531,371.1875 219.1875,371.1875 Q219.9219,371.1875 220.5625,371.3594 Q221.2188,371.5156 221.7656,371.875 Z "/><text fill="#000000" font-family="sans-serif" font-size="12" lengthAdjust="spacingAndGlyphs" textLength="30" x="233" y="380.9102">Logic</text><line style="stroke: #A80036; stroke-width: 1.5;" x1="205" x2="265" y1="392" y2="392"/><line style="stroke: #A80036; stroke-width: 1.5;" x1="205" x2="265" y1="400" y2="400"/><!--MD5=[0826ce6a55dffbd02177a8489a5e7113]
link tictactoe.views.PlayerView to tictactoe.controllers.Logic--><path d="M324.451,235.709 C299.641,276.56 269.974,325.411 251.813,355.3154 " fill="none" id="tictactoe.views.PlayerView-&gt;tictactoe.controllers.Logic" style="stroke: #A80036; stroke-width: 1.0; stroke-dasharray: 7.0,7.0;"/><polygon fill="#A80036" points="249,359.9481,257.0903,354.3314,251.5951,355.6743,250.2522,350.1792,249,359.9481" style="stroke: #A80036; stroke-width: 1.0;"/><!--MD5=[478401b1d344cb1f18d791b0f2dd26fc]
link tictactoe.views.View to tictactoe.controllers.Logic--><path d="M147.4143,238.7795 C147.4143,238.7795 196.494,319.596 214.179,348.7158 " fill="none" id="tictactoe.views.View-tictactoe.controllers.Logic" style="stroke: #A80036; stroke-width: 1.0;"/><polygon fill="#A80036" points="220.983,359.9191,219.7302,350.1502,218.3876,355.6455,212.8924,354.3029,220.983,359.9191" style="stroke: #A80036; stroke-width: 1.0;"/><line style="stroke: #A80036; stroke-width: 1.0;" x1="218.3876" x2="214.235" y1="355.6455" y2="348.8076"/><polygon fill="#A80036" points="141.185,228.523,140.8808,235.7277,147.4143,238.7795,147.7185,231.5748,141.185,228.523" style="stroke: #A80036; stroke-width: 1.0;"/><!--MD5=[9ea79824570e970c8a3508bcd8bb4505]
@startuml

class  tictactoe.views.ErrorView{
+ {static} MESSAGES: String[]
# error: Error
+ ErrorView(Error)
}

enum  tictactoe.views.MessageView{
+ EMPTY: MessageView
+ SEPARATOR: MessageView
+ VERTICAL_LINE_CENTERED: MessageView
+ VERTICAL_LINE_LEFT: MessageView
+	PLAYER_WIN: MessageView
+	START_GAME: MessageView
+	CHOOSE_PLAYER: MessageView
+	READ_ROW: MessageView
+	READ_COLUMN: MessageView
+	ERROR: MessageView
+ RESUME: MessageView
- message: String
- MessageView(String)
+ getMessage(): String
}

class  tictactoe.views.PlayerView{
# logic: Logic
+ PlayerView(Logic)
+ {abstract} readCoordinateToPut(): int[]
+ {abstract} readCoordinatesToMove(): int[][]
+ getPutCoordinateError(Coordinate): Error
+ getMoveOriginCoordinateError(Coordinate): Error
+ getMoveTargetCoordinateError(Coordinate, Coordinate): Error
}
tictactoe.views.PlayerView ..> tictactoe.controllers.Logic

class  tictactoe.views.View{
# logic: Logic
+ View(Logic)
+ interact(): void
# {abstract} start(): void
# {abstract} play(): boolean
# {abstract} isNewGame(): boolean
}
tictactoe.views.View *-down-> tictactoe.controllers.Logic

@enduml

PlantUML version 1.2020.15(Sun Jun 28 13:39:45 CEST 2020)
(GPL source distribution)
Java Runtime: Java(TM) SE Runtime Environment
JVM: Java HotSpot(TM) 64-Bit Server VM
Default Encoding: windows-1252
Language: es
Country: ES
--></g></svg>