<?xml version="1.0" encoding="UTF-8" standalone="no"?><svg xmlns="http://www.w3.org/2000/svg" xmlns:xlink="http://www.w3.org/1999/xlink" contentScriptType="application/ecmascript" contentStyleType="text/css" height="420px" preserveAspectRatio="none" style="width:964px;height:420px;" version="1.1" viewBox="0 0 964 420" width="964px" zoomAndPan="magnify"><defs><filter height="300%" id="f19fs7w6bk2430" width="300%" x="-1" y="-1"><feGaussianBlur result="blurOut" stdDeviation="2.0"/><feColorMatrix in="blurOut" result="blurOut2" type="matrix" values="0 0 0 0 0 0 0 0 0 0 0 0 0 0 0 0 0 0 .4 0"/><feOffset dx="4.0" dy="4.0" in="blurOut2" result="blurOut3"/><feBlend in="SourceGraphic" in2="blurOut3" mode="normal"/></filter></defs><g><!--MD5=[f4e83a21a957c5b9ba9691e6361db36b]
cluster tictactoe.views--><polygon fill="#FFFFFF" filter="url(#f19fs7w6bk2430)" points="16,6,128,6,135,29.6094,760,29.6094,760,408,16,408,16,6" style="stroke: #000000; stroke-width: 1.5;"/><line style="stroke: #000000; stroke-width: 1.5;" x1="16" x2="135" y1="29.6094" y2="29.6094"/><text fill="#000000" font-family="sans-serif" font-size="14" font-weight="bold" lengthAdjust="spacingAndGlyphs" textLength="106" x="20" y="22.5332">tictactoe.views</text><!--MD5=[ee7e9a007a7c4d40c0679a27f272732d]
cluster tictactoe.controllers--><polygon fill="#FFFFFF" filter="url(#f19fs7w6bk2430)" points="784,301,932,301,939,324.6094,942,324.6094,942,401,784,401,784,301" style="stroke: #000000; stroke-width: 1.5;"/><line style="stroke: #000000; stroke-width: 1.5;" x1="784" x2="939" y1="324.6094" y2="324.6094"/><text fill="#000000" font-family="sans-serif" font-size="14" font-weight="bold" lengthAdjust="spacingAndGlyphs" textLength="142" x="788" y="317.5332">tictactoe.controllers</text><!--MD5=[17799e03bfee0ccb3aa03b93da9c26d6]
class tictactoe.views.ErrorView--><rect fill="#FEFECE" filter="url(#f19fs7w6bk2430)" height="89.5078" id="tictactoe.views.ErrorView" style="stroke: #A80036; stroke-width: 1.5;" width="123" x="32.5" y="111"/><ellipse cx="64.6" cy="127" fill="#ADD1B2" rx="11" ry="11" style="stroke: #A80036; stroke-width: 1.0;"/><path d="M67.3656,122.875 Q67.5219,122.6563 67.7094,122.5469 Q67.8969,122.4375 68.1156,122.4375 Q68.4906,122.4375 68.725,122.7031 Q68.9594,122.9531 68.9594,123.5625 L68.9594,125.0156 Q68.9594,125.625 68.725,125.8906 Q68.4906,126.1563 68.1156,126.1563 Q67.7719,126.1563 67.5688,125.9531 Q67.3656,125.7656 67.2563,125.25 Q67.2094,124.8906 67.0219,124.7031 Q66.6938,124.3281 66.0844,124.1094 Q65.475,123.8906 64.85,123.8906 Q64.0844,123.8906 63.4437,124.2188 Q62.8187,124.5469 62.3187,125.2969 Q61.8344,126.0469 61.8344,127.0781 L61.8344,128.1719 Q61.8344,129.4063 62.725,130.2344 Q63.6156,131.0469 65.2094,131.0469 Q66.1469,131.0469 66.8031,130.7969 Q67.1938,130.6406 67.6156,130.2031 Q67.8813,129.9375 68.0219,129.8594 Q68.1781,129.7813 68.3813,129.7813 Q68.7094,129.7813 68.9594,130.0469 Q69.225,130.2969 69.225,130.6406 Q69.225,130.9844 68.8813,131.3906 Q68.3813,131.9688 67.5844,132.2969 Q66.5063,132.75 65.2094,132.75 Q63.6937,132.75 62.4906,132.125 Q61.5062,131.625 60.8187,130.5625 Q60.1312,129.4844 60.1312,128.2031 L60.1312,127.0469 Q60.1312,125.7188 60.7406,124.5781 Q61.3656,123.4219 62.4594,122.8125 Q63.5531,122.1875 64.7875,122.1875 Q65.5219,122.1875 66.1625,122.3594 Q66.8188,122.5156 67.3656,122.875 Z "/><text fill="#000000" font-family="sans-serif" font-size="12" lengthAdjust="spacingAndGlyphs" textLength="53" x="82.4" y="131.9102">ErrorView</text><line style="stroke: #A80036; stroke-width: 1.5;" x1="33.5" x2="154.5" y1="143" y2="143"/><ellipse cx="43.5" cy="154" fill="none" rx="3" ry="3" style="stroke: #038048; stroke-width: 1.0;"/><text fill="#000000" font-family="sans-serif" font-size="11" lengthAdjust="spacingAndGlyphs" text-decoration="underline" textLength="97" x="52.5" y="158.4189">MESSAGES: String[]</text><polygon fill="none" points="43.5,162.8359,47.5,166.8359,43.5,170.8359,39.5,166.8359" style="stroke: #B38D22; stroke-width: 1.0;"/><text fill="#000000" font-family="sans-serif" font-size="11" lengthAdjust="spacingAndGlyphs" textLength="54" x="52.5" y="172.2549">error: Error</text><line style="stroke: #A80036; stroke-width: 1.5;" x1="33.5" x2="154.5" y1="178.6719" y2="178.6719"/><ellipse cx="43.5" cy="189.6719" fill="#84BE84" rx="3" ry="3" style="stroke: #038048; stroke-width: 1.0;"/><text fill="#000000" font-family="sans-serif" font-size="11" lengthAdjust="spacingAndGlyphs" textLength="82" x="52.5" y="194.0908">ErrorView(Error)</text><!--MD5=[ac4b0e0875a820e87662d988d53b2072]
class tictactoe.views.MessageView--><rect fill="#FEFECE" filter="url(#f19fs7w6bk2430)" height="227.8672" id="tictactoe.views.MessageView" style="stroke: #A80036; stroke-width: 1.5;" width="237" x="506.5" y="42"/><ellipse cx="582.25" cy="58" fill="#EB937F" rx="11" ry="11" style="stroke: #A80036; stroke-width: 1.0;"/><path d="M581.1094,58.7969 L581.1094,61.2969 L585.4375,61.2969 L585.4375,60.375 Q585.4375,59.7656 585.6719,59.5 Q585.9219,59.2344 586.2969,59.2344 Q586.6719,59.2344 586.9063,59.5 Q587.1406,59.7656 587.1406,60.375 L587.1406,63 L579.1406,63 Q578.5156,63 578.25,62.7656 Q578,62.5313 578,62.1406 Q578,61.7656 578.2656,61.5313 Q578.5313,61.2969 579.1406,61.2969 L579.4063,61.2969 L579.4063,54.6406 L579.1406,54.6406 Q578.5156,54.6406 578.25,54.4063 Q578,54.1719 578,53.7813 Q578,53.4063 578.25,53.1719 Q578.5156,52.9375 579.1406,52.9375 L586.7656,52.9375 L586.7656,55.5313 Q586.7656,56.1406 586.5313,56.4063 Q586.3125,56.6563 585.9219,56.6563 Q585.5469,56.6563 585.3125,56.4063 Q585.0781,56.1406 585.0781,55.5313 L585.0781,54.6406 L581.1094,54.6406 L581.1094,57.0938 L582.5938,57.0938 Q582.5938,56.4375 582.7188,56.25 Q582.9844,55.8438 583.4531,55.8438 Q583.8281,55.8438 584.0625,56.1094 Q584.2969,56.3594 584.2969,56.9688 L584.2969,58.9375 Q584.2969,59.4844 584.1719,59.6719 Q583.9063,60.0625 583.4531,60.0625 Q582.9844,60.0625 582.7188,59.6563 Q582.5938,59.4688 582.5938,58.7969 L581.1094,58.7969 Z "/><text fill="#000000" font-family="sans-serif" font-size="12" lengthAdjust="spacingAndGlyphs" textLength="77" x="602.75" y="62.9102">MessageView</text><line style="stroke: #A80036; stroke-width: 1.5;" x1="507.5" x2="742.5" y1="74" y2="74"/><ellipse cx="517.5" cy="85" fill="none" rx="3" ry="3" style="stroke: #038048; stroke-width: 1.0;"/><text fill="#000000" font-family="sans-serif" font-size="11" lengthAdjust="spacingAndGlyphs" textLength="110" x="526.5" y="89.4189">EMPTY: MessageView</text><ellipse cx="517.5" cy="98.8359" fill="none" rx="3" ry="3" style="stroke: #038048; stroke-width: 1.0;"/><text fill="#000000" font-family="sans-serif" font-size="11" lengthAdjust="spacingAndGlyphs" textLength="139" x="526.5" y="103.2549">SEPARATOR: MessageView</text><ellipse cx="517.5" cy="112.6719" fill="none" rx="3" ry="3" style="stroke: #038048; stroke-width: 1.0;"/><text fill="#000000" font-family="sans-serif" font-size="11" lengthAdjust="spacingAndGlyphs" textLength="211" x="526.5" y="117.0908">VERTICAL_LINE_CENTERED: MessageView</text><ellipse cx="517.5" cy="126.5078" fill="none" rx="3" ry="3" style="stroke: #038048; stroke-width: 1.0;"/><text fill="#000000" font-family="sans-serif" font-size="11" lengthAdjust="spacingAndGlyphs" textLength="183" x="526.5" y="130.9268">VERTICAL_LINE_LEFT: MessageView</text><ellipse cx="517.5" cy="140.3438" fill="none" rx="3" ry="3" style="stroke: #038048; stroke-width: 1.0;"/><text fill="#000000" font-family="sans-serif" font-size="11" lengthAdjust="spacingAndGlyphs" textLength="142" x="526.5" y="144.7627">PLAYER_WIN: MessageView</text><ellipse cx="517.5" cy="154.1797" fill="none" rx="3" ry="3" style="stroke: #038048; stroke-width: 1.0;"/><text fill="#000000" font-family="sans-serif" font-size="11" lengthAdjust="spacingAndGlyphs" textLength="146" x="526.5" y="158.5986">START_GAME: MessageView</text><ellipse cx="517.5" cy="168.0156" fill="none" rx="3" ry="3" style="stroke: #038048; stroke-width: 1.0;"/><text fill="#000000" font-family="sans-serif" font-size="11" lengthAdjust="spacingAndGlyphs" textLength="166" x="526.5" y="172.4346">CHOOSE_PLAYER: MessageView</text><ellipse cx="517.5" cy="181.8516" fill="none" rx="3" ry="3" style="stroke: #038048; stroke-width: 1.0;"/><text fill="#000000" font-family="sans-serif" font-size="11" lengthAdjust="spacingAndGlyphs" textLength="135" x="526.5" y="186.2705">READ_ROW: MessageView</text><ellipse cx="517.5" cy="195.6875" fill="none" rx="3" ry="3" style="stroke: #038048; stroke-width: 1.0;"/><text fill="#000000" font-family="sans-serif" font-size="11" lengthAdjust="spacingAndGlyphs" textLength="153" x="526.5" y="200.1064">READ_COLUMN: MessageView</text><ellipse cx="517.5" cy="209.5234" fill="none" rx="3" ry="3" style="stroke: #038048; stroke-width: 1.0;"/><text fill="#000000" font-family="sans-serif" font-size="11" lengthAdjust="spacingAndGlyphs" textLength="111" x="526.5" y="213.9424">ERROR: MessageView</text><rect fill="none" height="6" style="stroke: #C82930; stroke-width: 1.0;" width="6" x="514.5" y="220.3594"/><text fill="#000000" font-family="sans-serif" font-size="11" lengthAdjust="spacingAndGlyphs" textLength="78" x="526.5" y="227.7783">message: String</text><line style="stroke: #A80036; stroke-width: 1.5;" x1="507.5" x2="742.5" y1="234.1953" y2="234.1953"/><rect fill="#F24D5C" height="6" style="stroke: #C82930; stroke-width: 1.0;" width="6" x="514.5" y="242.1953"/><text fill="#000000" font-family="sans-serif" font-size="11" lengthAdjust="spacingAndGlyphs" textLength="106" x="526.5" y="249.6143">MessageView(String)</text><ellipse cx="517.5" cy="259.0313" fill="#84BE84" rx="3" ry="3" style="stroke: #038048; stroke-width: 1.0;"/><text fill="#000000" font-family="sans-serif" font-size="11" lengthAdjust="spacingAndGlyphs" textLength="101" x="526.5" y="263.4502">getMessage(): String</text><!--MD5=[2ae15d20e7f22fd333327d3852982126]
class tictactoe.views.PlayerView--><rect fill="#FEFECE" filter="url(#f19fs7w6bk2430)" height="144.8516" id="tictactoe.views.PlayerView" style="stroke: #A80036; stroke-width: 1.5;" width="280" x="191" y="83.5"/><ellipse cx="296.75" cy="99.5" fill="#ADD1B2" rx="11" ry="11" style="stroke: #A80036; stroke-width: 1.0;"/><path d="M299.5156,95.375 Q299.6719,95.1563 299.8594,95.0469 Q300.0469,94.9375 300.2656,94.9375 Q300.6406,94.9375 300.875,95.2031 Q301.1094,95.4531 301.1094,96.0625 L301.1094,97.5156 Q301.1094,98.125 300.875,98.3906 Q300.6406,98.6563 300.2656,98.6563 Q299.9219,98.6563 299.7188,98.4531 Q299.5156,98.2656 299.4063,97.75 Q299.3594,97.3906 299.1719,97.2031 Q298.8438,96.8281 298.2344,96.6094 Q297.625,96.3906 297,96.3906 Q296.2344,96.3906 295.5938,96.7188 Q294.9688,97.0469 294.4688,97.7969 Q293.9844,98.5469 293.9844,99.5781 L293.9844,100.6719 Q293.9844,101.9063 294.875,102.7344 Q295.7656,103.5469 297.3594,103.5469 Q298.2969,103.5469 298.9531,103.2969 Q299.3438,103.1406 299.7656,102.7031 Q300.0313,102.4375 300.1719,102.3594 Q300.3281,102.2813 300.5313,102.2813 Q300.8594,102.2813 301.1094,102.5469 Q301.375,102.7969 301.375,103.1406 Q301.375,103.4844 301.0313,103.8906 Q300.5313,104.4688 299.7344,104.7969 Q298.6563,105.25 297.3594,105.25 Q295.8438,105.25 294.6406,104.625 Q293.6563,104.125 292.9688,103.0625 Q292.2813,101.9844 292.2813,100.7031 L292.2813,99.5469 Q292.2813,98.2188 292.8906,97.0781 Q293.5156,95.9219 294.6094,95.3125 Q295.7031,94.6875 296.9375,94.6875 Q297.6719,94.6875 298.3125,94.8594 Q298.9688,95.0156 299.5156,95.375 Z "/><text fill="#000000" font-family="sans-serif" font-size="12" lengthAdjust="spacingAndGlyphs" textLength="60" x="317.25" y="104.4102">PlayerView</text><line style="stroke: #A80036; stroke-width: 1.5;" x1="192" x2="470" y1="115.5" y2="115.5"/><polygon fill="none" points="202,121.5,206,125.5,202,129.5,198,125.5" style="stroke: #B38D22; stroke-width: 1.0;"/><text fill="#000000" font-family="sans-serif" font-size="11" lengthAdjust="spacingAndGlyphs" textLength="138" x="211" y="130.9189">playController: PlayController</text><line style="stroke: #A80036; stroke-width: 1.5;" x1="192" x2="470" y1="137.3359" y2="137.3359"/><ellipse cx="202" cy="148.3359" fill="#84BE84" rx="3" ry="3" style="stroke: #038048; stroke-width: 1.0;"/><text fill="#000000" font-family="sans-serif" font-size="11" lengthAdjust="spacingAndGlyphs" textLength="130" x="211" y="152.7549">PlayerView(PlayController)</text><ellipse cx="202" cy="162.1719" fill="#84BE84" rx="3" ry="3" style="stroke: #038048; stroke-width: 1.0;"/><text fill="#000000" font-family="sans-serif" font-size="11" font-style="italic" lengthAdjust="spacingAndGlyphs" textLength="137" x="211" y="166.5908">readCoordinateToPut(): int[]</text><ellipse cx="202" cy="176.0078" fill="#84BE84" rx="3" ry="3" style="stroke: #038048; stroke-width: 1.0;"/><text fill="#000000" font-family="sans-serif" font-size="11" font-style="italic" lengthAdjust="spacingAndGlyphs" textLength="159" x="211" y="180.4268">readCoordinatesToMove(): int[][]</text><ellipse cx="202" cy="189.8438" fill="#84BE84" rx="3" ry="3" style="stroke: #038048; stroke-width: 1.0;"/><text fill="#000000" font-family="sans-serif" font-size="11" lengthAdjust="spacingAndGlyphs" textLength="178" x="211" y="194.2627">getErrorsPutCoordinate(int, int): Error</text><ellipse cx="202" cy="203.6797" fill="#84BE84" rx="3" ry="3" style="stroke: #038048; stroke-width: 1.0;"/><text fill="#000000" font-family="sans-serif" font-size="11" lengthAdjust="spacingAndGlyphs" textLength="217" x="211" y="208.0986">getErrorsMoveOriginCoordinate(int, int): Error</text><ellipse cx="202" cy="217.5156" fill="#84BE84" rx="3" ry="3" style="stroke: #038048; stroke-width: 1.0;"/><text fill="#000000" font-family="sans-serif" font-size="11" lengthAdjust="spacingAndGlyphs" textLength="254" x="211" y="221.9346">getErrorsMoveTargetCoordinate(int, int, int, int): Error</text><!--MD5=[015754420c4cdd9bacda884b3fa8c6ca]
class tictactoe.views.View--><rect fill="#FEFECE" filter="url(#f19fs7w6bk2430)" height="61.8359" id="tictactoe.views.View" style="stroke: #A80036; stroke-width: 1.5;" width="146" x="32" y="330"/><ellipse cx="87.75" cy="346" fill="#ADD1B2" rx="11" ry="11" style="stroke: #A80036; stroke-width: 1.0;"/><path d="M90.5156,341.875 Q90.6719,341.6563 90.8594,341.5469 Q91.0469,341.4375 91.2656,341.4375 Q91.6406,341.4375 91.875,341.7031 Q92.1094,341.9531 92.1094,342.5625 L92.1094,344.0156 Q92.1094,344.625 91.875,344.8906 Q91.6406,345.1563 91.2656,345.1563 Q90.9219,345.1563 90.7188,344.9531 Q90.5156,344.7656 90.4063,344.25 Q90.3594,343.8906 90.1719,343.7031 Q89.8438,343.3281 89.2344,343.1094 Q88.625,342.8906 88,342.8906 Q87.2344,342.8906 86.5938,343.2188 Q85.9688,343.5469 85.4688,344.2969 Q84.9844,345.0469 84.9844,346.0781 L84.9844,347.1719 Q84.9844,348.4063 85.875,349.2344 Q86.7656,350.0469 88.3594,350.0469 Q89.2969,350.0469 89.9531,349.7969 Q90.3438,349.6406 90.7656,349.2031 Q91.0313,348.9375 91.1719,348.8594 Q91.3281,348.7813 91.5313,348.7813 Q91.8594,348.7813 92.1094,349.0469 Q92.375,349.2969 92.375,349.6406 Q92.375,349.9844 92.0313,350.3906 Q91.5313,350.9688 90.7344,351.2969 Q89.6563,351.75 88.3594,351.75 Q86.8438,351.75 85.6406,351.125 Q84.6563,350.625 83.9688,349.5625 Q83.2813,348.4844 83.2813,347.2031 L83.2813,346.0469 Q83.2813,344.7188 83.8906,343.5781 Q84.5156,342.4219 85.6094,341.8125 Q86.7031,341.1875 87.9375,341.1875 Q88.6719,341.1875 89.3125,341.3594 Q89.9688,341.5156 90.5156,341.875 Z "/><text fill="#000000" font-family="sans-serif" font-size="12" lengthAdjust="spacingAndGlyphs" textLength="26" x="108.25" y="350.9102">View</text><line style="stroke: #A80036; stroke-width: 1.5;" x1="33" x2="177" y1="362" y2="362"/><line style="stroke: #A80036; stroke-width: 1.5;" x1="33" x2="177" y1="370" y2="370"/><ellipse cx="43" cy="381" fill="#84BE84" rx="3" ry="3" style="stroke: #038048; stroke-width: 1.0;"/><text fill="#000000" font-family="sans-serif" font-size="11" font-style="italic" lengthAdjust="spacingAndGlyphs" textLength="120" x="52" y="385.4189">interact(Controller): void</text><!--MD5=[b574e60c06c50037ff1b014277a67d62]
class tictactoe.controllers.PlayController--><rect fill="#FEFECE" filter="url(#f19fs7w6bk2430)" height="48" id="tictactoe.controllers.PlayController" style="stroke: #A80036; stroke-width: 1.5;" width="109" x="800.5" y="337"/><ellipse cx="815.5" cy="353" fill="#ADD1B2" rx="11" ry="11" style="stroke: #A80036; stroke-width: 1.0;"/><path d="M818.2656,348.875 Q818.4219,348.6563 818.6094,348.5469 Q818.7969,348.4375 819.0156,348.4375 Q819.3906,348.4375 819.625,348.7031 Q819.8594,348.9531 819.8594,349.5625 L819.8594,351.0156 Q819.8594,351.625 819.625,351.8906 Q819.3906,352.1563 819.0156,352.1563 Q818.6719,352.1563 818.4688,351.9531 Q818.2656,351.7656 818.1563,351.25 Q818.1094,350.8906 817.9219,350.7031 Q817.5938,350.3281 816.9844,350.1094 Q816.375,349.8906 815.75,349.8906 Q814.9844,349.8906 814.3438,350.2188 Q813.7188,350.5469 813.2188,351.2969 Q812.7344,352.0469 812.7344,353.0781 L812.7344,354.1719 Q812.7344,355.4063 813.625,356.2344 Q814.5156,357.0469 816.1094,357.0469 Q817.0469,357.0469 817.7031,356.7969 Q818.0938,356.6406 818.5156,356.2031 Q818.7813,355.9375 818.9219,355.8594 Q819.0781,355.7813 819.2813,355.7813 Q819.6094,355.7813 819.8594,356.0469 Q820.125,356.2969 820.125,356.6406 Q820.125,356.9844 819.7813,357.3906 Q819.2813,357.9688 818.4844,358.2969 Q817.4063,358.75 816.1094,358.75 Q814.5938,358.75 813.3906,358.125 Q812.4063,357.625 811.7188,356.5625 Q811.0313,355.4844 811.0313,354.2031 L811.0313,353.0469 Q811.0313,351.7188 811.6406,350.5781 Q812.2656,349.4219 813.3594,348.8125 Q814.4531,348.1875 815.6875,348.1875 Q816.4219,348.1875 817.0625,348.3594 Q817.7188,348.5156 818.2656,348.875 Z "/><text fill="#000000" font-family="sans-serif" font-size="12" lengthAdjust="spacingAndGlyphs" textLength="77" x="829.5" y="357.9102">PlayController</text><line style="stroke: #A80036; stroke-width: 1.5;" x1="801.5" x2="908.5" y1="369" y2="369"/><line style="stroke: #A80036; stroke-width: 1.5;" x1="801.5" x2="908.5" y1="377" y2="377"/><!--MD5=[cc7593614f05ee4a6cb72794fd99c0f8]
link tictactoe.views.PlayerView to tictactoe.controllers.PlayController--><path d="M413.542,228.525 C436.578,244.867 462.574,260.271 489,270 C602.434,311.762 646.429,251.613 760,293 C784.504,301.93 808.477,318.917 826.211,333.5511 " fill="none" id="tictactoe.views.PlayerView-&gt;tictactoe.controllers.PlayController" style="stroke: #A80036; stroke-width: 1.0; stroke-dasharray: 7.0,7.0;"/><polygon fill="#A80036" points="830.125,336.8266,825.7895,327.9833,826.2903,333.618,820.6557,334.1188,830.125,336.8266" style="stroke: #A80036; stroke-width: 1.0;"/><!--MD5=[850cef324a7f3601308ed4cd9ba4a58a]
link tictactoe.views.ErrorView to tictactoe.views.MessageView--><!--MD5=[1d819adc83c2aa20cf9ec87c34150612]
link tictactoe.views.ErrorView to tictactoe.views.View--><!--MD5=[2f70563fc754b76e08b20ccc6f883396]
@startuml

class  tictactoe.views.ErrorView{
+ {static} MESSAGES: String[]
# error: Error
+ ErrorView(Error)
}

enum  tictactoe.views.MessageView{
+ EMPTY: MessageView
+ SEPARATOR: MessageView
+ VERTICAL_LINE_CENTERED: MessageView
+ VERTICAL_LINE_LEFT: MessageView
+	PLAYER_WIN: MessageView
+	START_GAME: MessageView
+	CHOOSE_PLAYER: MessageView
+	READ_ROW: MessageView
+	READ_COLUMN: MessageView
+	ERROR: MessageView
- message: String
- MessageView(String)
+ getMessage(): String
}

class  tictactoe.views.PlayerView{
# playController: PlayController
+ PlayerView(PlayController)
+ {abstract} readCoordinateToPut(): int[]
+ {abstract} readCoordinatesToMove(): int[][]
+ getErrorsPutCoordinate(int, int): Error
+ getErrorsMoveOriginCoordinate(int, int): Error
+ getErrorsMoveTargetCoordinate(int, int, int, int): Error
}
tictactoe.views.PlayerView ..> tictactoe.controllers.PlayController

class  tictactoe.views.View{
+ {abstract} interact(Controller): void
}

@enduml

PlantUML version 1.2020.15(Sun Jun 28 13:39:45 CEST 2020)
(GPL source distribution)
Java Runtime: Java(TM) SE Runtime Environment
JVM: Java HotSpot(TM) 64-Bit Server VM
Default Encoding: windows-1252
Language: es
Country: ES
--></g></svg>