<?xml version="1.0" encoding="UTF-8" standalone="no"?><svg xmlns="http://www.w3.org/2000/svg" xmlns:xlink="http://www.w3.org/1999/xlink" contentScriptType="application/ecmascript" contentStyleType="text/css" height="597px" preserveAspectRatio="none" style="width:852px;height:597px;" version="1.1" viewBox="0 0 852 597" width="852px" zoomAndPan="magnify"><defs><filter height="300%" id="fmz8deqyo4ap0" width="300%" x="-1" y="-1"><feGaussianBlur result="blurOut" stdDeviation="2.0"/><feColorMatrix in="blurOut" result="blurOut2" type="matrix" values="0 0 0 0 0 0 0 0 0 0 0 0 0 0 0 0 0 0 .4 0"/><feOffset dx="4.0" dy="4.0" in="blurOut2" result="blurOut3"/><feBlend in="SourceGraphic" in2="blurOut3" mode="normal"/></filter></defs><g><!--MD5=[c52f45833d539af9e29a9d34b8b7302b]
cluster utils--><polygon fill="#FFFFFF" filter="url(#fmz8deqyo4ap0)" points="16,6,52,6,59,29.6094,654,29.6094,654,585,16,585,16,6" style="stroke: #000000; stroke-width: 1.5;"/><line style="stroke: #000000; stroke-width: 1.5;" x1="16" x2="59" y1="29.6094" y2="29.6094"/><text fill="#000000" font-family="sans-serif" font-size="14" font-weight="bold" lengthAdjust="spacingAndGlyphs" textLength="30" x="20" y="22.5332">utils</text><!--MD5=[0d852700fdad35b7061d461d6907a324]
cluster java.io--><polygon fill="#FFFFFF" filter="url(#fmz8deqyo4ap0)" points="678,457.5,730,457.5,737,481.1094,830,481.1094,830,557.5,678,557.5,678,457.5" style="stroke: #000000; stroke-width: 1.5;"/><line style="stroke: #000000; stroke-width: 1.5;" x1="678" x2="737" y1="481.1094" y2="481.1094"/><text fill="#000000" font-family="sans-serif" font-size="14" font-weight="bold" lengthAdjust="spacingAndGlyphs" textLength="46" x="682" y="474.0332">java.io</text><!--MD5=[8af4fdb787b135b7271f9ce04b92f747]
class utils.Console--><rect fill="#FEFECE" filter="url(#fmz8deqyo4ap0)" height="200.1953" id="utils.Console" style="stroke: #A80036; stroke-width: 1.5;" width="187" x="280.5" y="192"/><ellipse cx="346.25" cy="208" fill="#ADD1B2" rx="11" ry="11" style="stroke: #A80036; stroke-width: 1.0;"/><path d="M349.0156,203.875 Q349.1719,203.6563 349.3594,203.5469 Q349.5469,203.4375 349.7656,203.4375 Q350.1406,203.4375 350.375,203.7031 Q350.6094,203.9531 350.6094,204.5625 L350.6094,206.0156 Q350.6094,206.625 350.375,206.8906 Q350.1406,207.1563 349.7656,207.1563 Q349.4219,207.1563 349.2188,206.9531 Q349.0156,206.7656 348.9063,206.25 Q348.8594,205.8906 348.6719,205.7031 Q348.3438,205.3281 347.7344,205.1094 Q347.125,204.8906 346.5,204.8906 Q345.7344,204.8906 345.0938,205.2188 Q344.4688,205.5469 343.9688,206.2969 Q343.4844,207.0469 343.4844,208.0781 L343.4844,209.1719 Q343.4844,210.4063 344.375,211.2344 Q345.2656,212.0469 346.8594,212.0469 Q347.7969,212.0469 348.4531,211.7969 Q348.8438,211.6406 349.2656,211.2031 Q349.5313,210.9375 349.6719,210.8594 Q349.8281,210.7813 350.0313,210.7813 Q350.3594,210.7813 350.6094,211.0469 Q350.875,211.2969 350.875,211.6406 Q350.875,211.9844 350.5313,212.3906 Q350.0313,212.9688 349.2344,213.2969 Q348.1563,213.75 346.8594,213.75 Q345.3438,213.75 344.1406,213.125 Q343.1563,212.625 342.4688,211.5625 Q341.7813,210.4844 341.7813,209.2031 L341.7813,208.0469 Q341.7813,206.7188 342.3906,205.5781 Q343.0156,204.4219 344.1094,203.8125 Q345.2031,203.1875 346.4375,203.1875 Q347.1719,203.1875 347.8125,203.3594 Q348.4688,203.5156 349.0156,203.875 Z "/><text fill="#000000" font-family="sans-serif" font-size="12" lengthAdjust="spacingAndGlyphs" textLength="47" x="366.75" y="212.9102">Console</text><line style="stroke: #A80036; stroke-width: 1.5;" x1="281.5" x2="466.5" y1="224" y2="224"/><rect fill="none" height="6" style="stroke: #C82930; stroke-width: 1.0;" width="6" x="288.5" y="232"/><text fill="#000000" font-family="sans-serif" font-size="11" lengthAdjust="spacingAndGlyphs" textLength="161" x="300.5" y="239.4189">bufferedReader: BufferedReader</text><line style="stroke: #A80036; stroke-width: 1.5;" x1="281.5" x2="466.5" y1="245.8359" y2="245.8359"/><ellipse cx="291.5" cy="256.8359" fill="#84BE84" rx="3" ry="3" style="stroke: #038048; stroke-width: 1.0;"/><text fill="#000000" font-family="sans-serif" font-size="11" lengthAdjust="spacingAndGlyphs" textLength="47" x="300.5" y="261.2549">Console()</text><ellipse cx="291.5" cy="270.6719" fill="#84BE84" rx="3" ry="3" style="stroke: #038048; stroke-width: 1.0;"/><text fill="#000000" font-family="sans-serif" font-size="11" lengthAdjust="spacingAndGlyphs" textLength="81" x="300.5" y="275.0908">write(char): void</text><ellipse cx="291.5" cy="284.5078" fill="#84BE84" rx="3" ry="3" style="stroke: #038048; stroke-width: 1.0;"/><text fill="#000000" font-family="sans-serif" font-size="11" lengthAdjust="spacingAndGlyphs" textLength="87" x="300.5" y="288.9268">write(String): void</text><ellipse cx="291.5" cy="298.3438" fill="#84BE84" rx="3" ry="3" style="stroke: #038048; stroke-width: 1.0;"/><text fill="#000000" font-family="sans-serif" font-size="11" lengthAdjust="spacingAndGlyphs" textLength="86" x="300.5" y="302.7627">readInt(String): int</text><ellipse cx="291.5" cy="312.1797" fill="#84BE84" rx="3" ry="3" style="stroke: #038048; stroke-width: 1.0;"/><text fill="#000000" font-family="sans-serif" font-size="11" lengthAdjust="spacingAndGlyphs" textLength="109" x="300.5" y="316.5986">readChar(String): char</text><ellipse cx="291.5" cy="326.0156" fill="#84BE84" rx="3" ry="3" style="stroke: #038048; stroke-width: 1.0;"/><text fill="#000000" font-family="sans-serif" font-size="11" lengthAdjust="spacingAndGlyphs" textLength="120" x="300.5" y="330.4346">readString(String): String</text><ellipse cx="291.5" cy="339.8516" fill="#84BE84" rx="3" ry="3" style="stroke: #038048; stroke-width: 1.0;"/><text fill="#000000" font-family="sans-serif" font-size="11" lengthAdjust="spacingAndGlyphs" textLength="78" x="300.5" y="344.2705">writeln(int): void</text><ellipse cx="291.5" cy="353.6875" fill="#84BE84" rx="3" ry="3" style="stroke: #038048; stroke-width: 1.0;"/><text fill="#000000" font-family="sans-serif" font-size="11" lengthAdjust="spacingAndGlyphs" textLength="95" x="300.5" y="358.1064">writeln(String): void</text><ellipse cx="291.5" cy="367.5234" fill="#84BE84" rx="3" ry="3" style="stroke: #038048; stroke-width: 1.0;"/><text fill="#000000" font-family="sans-serif" font-size="11" lengthAdjust="spacingAndGlyphs" textLength="67" x="300.5" y="371.9424">writeln(): void</text><rect fill="#F24D5C" height="6" style="stroke: #C82930; stroke-width: 1.0;" width="6" x="288.5" y="378.3594"/><text fill="#000000" font-family="sans-serif" font-size="11" lengthAdjust="spacingAndGlyphs" textLength="111" x="300.5" y="385.7783">writeError(String): void</text><!--MD5=[4517a9099db328c27576a0137eb33da6]
class utils.Coordinate--><rect fill="#FEFECE" filter="url(#fmz8deqyo4ap0)" height="227.8672" id="utils.Coordinate" style="stroke: #A80036; stroke-width: 1.5;" width="213" x="32.5" y="178"/><ellipse cx="104.25" cy="194" fill="#ADD1B2" rx="11" ry="11" style="stroke: #A80036; stroke-width: 1.0;"/><path d="M107.0156,189.875 Q107.1719,189.6563 107.3594,189.5469 Q107.5469,189.4375 107.7656,189.4375 Q108.1406,189.4375 108.375,189.7031 Q108.6094,189.9531 108.6094,190.5625 L108.6094,192.0156 Q108.6094,192.625 108.375,192.8906 Q108.1406,193.1563 107.7656,193.1563 Q107.4219,193.1563 107.2188,192.9531 Q107.0156,192.7656 106.9063,192.25 Q106.8594,191.8906 106.6719,191.7031 Q106.3438,191.3281 105.7344,191.1094 Q105.125,190.8906 104.5,190.8906 Q103.7344,190.8906 103.0938,191.2188 Q102.4688,191.5469 101.9688,192.2969 Q101.4844,193.0469 101.4844,194.0781 L101.4844,195.1719 Q101.4844,196.4063 102.375,197.2344 Q103.2656,198.0469 104.8594,198.0469 Q105.7969,198.0469 106.4531,197.7969 Q106.8438,197.6406 107.2656,197.2031 Q107.5313,196.9375 107.6719,196.8594 Q107.8281,196.7813 108.0313,196.7813 Q108.3594,196.7813 108.6094,197.0469 Q108.875,197.2969 108.875,197.6406 Q108.875,197.9844 108.5313,198.3906 Q108.0313,198.9688 107.2344,199.2969 Q106.1563,199.75 104.8594,199.75 Q103.3438,199.75 102.1406,199.125 Q101.1563,198.625 100.4688,197.5625 Q99.7813,196.4844 99.7813,195.2031 L99.7813,194.0469 Q99.7813,192.7188 100.3906,191.5781 Q101.0156,190.4219 102.1094,189.8125 Q103.2031,189.1875 104.4375,189.1875 Q105.1719,189.1875 105.8125,189.3594 Q106.4688,189.5156 107.0156,189.875 Z "/><text fill="#000000" font-family="sans-serif" font-size="12" lengthAdjust="spacingAndGlyphs" textLength="61" x="124.75" y="198.9102">Coordinate</text><line style="stroke: #A80036; stroke-width: 1.5;" x1="33.5" x2="244.5" y1="210" y2="210"/><polygon fill="none" points="43.5,216,47.5,220,43.5,224,39.5,220" style="stroke: #B38D22; stroke-width: 1.0;"/><text fill="#000000" font-family="sans-serif" font-size="11" lengthAdjust="spacingAndGlyphs" textLength="37" x="52.5" y="225.4189">row: int</text><polygon fill="none" points="43.5,229.8359,47.5,233.8359,43.5,237.8359,39.5,233.8359" style="stroke: #B38D22; stroke-width: 1.0;"/><text fill="#000000" font-family="sans-serif" font-size="11" lengthAdjust="spacingAndGlyphs" textLength="51" x="52.5" y="239.2549">column: int</text><line style="stroke: #A80036; stroke-width: 1.5;" x1="33.5" x2="244.5" y1="245.6719" y2="245.6719"/><polygon fill="#FFFF44" points="43.5,251.6719,47.5,255.6719,43.5,259.6719,39.5,255.6719" style="stroke: #B38D22; stroke-width: 1.0;"/><text fill="#000000" font-family="sans-serif" font-size="11" lengthAdjust="spacingAndGlyphs" textLength="60" x="52.5" y="261.0908">Coordinate()</text><polygon fill="#FFFF44" points="43.5,265.5078,47.5,269.5078,43.5,273.5078,39.5,269.5078" style="stroke: #B38D22; stroke-width: 1.0;"/><text fill="#000000" font-family="sans-serif" font-size="11" lengthAdjust="spacingAndGlyphs" textLength="88" x="52.5" y="274.9268">Coordinate(int, int)</text><polygon fill="#FFFF44" points="43.5,279.3438,47.5,283.3438,43.5,287.3438,39.5,283.3438" style="stroke: #B38D22; stroke-width: 1.0;"/><text fill="#000000" font-family="sans-serif" font-size="11" lengthAdjust="spacingAndGlyphs" textLength="187" x="52.5" y="288.7627">getMainDirection(Coordinate): Direction</text><rect fill="#F24D5C" height="6" style="stroke: #C82930; stroke-width: 1.0;" width="6" x="40.5" y="295.1797"/><text fill="#000000" font-family="sans-serif" font-size="11" lengthAdjust="spacingAndGlyphs" textLength="123" x="52.5" y="302.5986">inMainDiagonal(): boolean</text><rect fill="#F24D5C" height="6" style="stroke: #C82930; stroke-width: 1.0;" width="6" x="40.5" y="309.0156"/><text fill="#000000" font-family="sans-serif" font-size="11" lengthAdjust="spacingAndGlyphs" textLength="149" x="52.5" y="316.4346">inVertical(Coordinate): boolean</text><rect fill="#F24D5C" height="6" style="stroke: #C82930; stroke-width: 1.0;" width="6" x="40.5" y="322.8516"/><text fill="#000000" font-family="sans-serif" font-size="11" lengthAdjust="spacingAndGlyphs" textLength="160" x="52.5" y="330.2705">inHorizontal(Coordinate): boolean</text><polygon fill="#FFFF44" points="43.5,334.6875,47.5,338.6875,43.5,342.6875,39.5,338.6875" style="stroke: #B38D22; stroke-width: 1.0;"/><text fill="#000000" font-family="sans-serif" font-size="11" lengthAdjust="spacingAndGlyphs" textLength="84" x="52.5" y="344.1064">read(String): void</text><ellipse cx="43.5" cy="353.5234" fill="#84BE84" rx="3" ry="3" style="stroke: #038048; stroke-width: 1.0;"/><text fill="#000000" font-family="sans-serif" font-size="11" lengthAdjust="spacingAndGlyphs" textLength="63" x="52.5" y="357.9424">getRow(): int</text><ellipse cx="43.5" cy="367.3594" fill="#84BE84" rx="3" ry="3" style="stroke: #038048; stroke-width: 1.0;"/><text fill="#000000" font-family="sans-serif" font-size="11" lengthAdjust="spacingAndGlyphs" textLength="75" x="52.5" y="371.7783">getColumn(): int</text><ellipse cx="43.5" cy="381.1953" fill="#84BE84" rx="3" ry="3" style="stroke: #038048; stroke-width: 1.0;"/><text fill="#000000" font-family="sans-serif" font-size="11" lengthAdjust="spacingAndGlyphs" textLength="74" x="52.5" y="385.6143">hashCode(): int</text><ellipse cx="43.5" cy="395.0313" fill="#84BE84" rx="3" ry="3" style="stroke: #038048; stroke-width: 1.0;"/><text fill="#000000" font-family="sans-serif" font-size="11" lengthAdjust="spacingAndGlyphs" textLength="115" x="52.5" y="399.4502">equals(Object): boolean</text><!--MD5=[959c5b36bcbb0655df73030dc49c5e5e]
class utils.WithConsoleModel--><rect fill="#FEFECE" filter="url(#fmz8deqyo4ap0)" height="75.6719" id="utils.WithConsoleModel" style="stroke: #A80036; stroke-width: 1.5;" width="136" x="306" y="42"/><ellipse cx="321" cy="58" fill="#ADD1B2" rx="11" ry="11" style="stroke: #A80036; stroke-width: 1.0;"/><path d="M323.7656,53.875 Q323.9219,53.6563 324.1094,53.5469 Q324.2969,53.4375 324.5156,53.4375 Q324.8906,53.4375 325.125,53.7031 Q325.3594,53.9531 325.3594,54.5625 L325.3594,56.0156 Q325.3594,56.625 325.125,56.8906 Q324.8906,57.1563 324.5156,57.1563 Q324.1719,57.1563 323.9688,56.9531 Q323.7656,56.7656 323.6563,56.25 Q323.6094,55.8906 323.4219,55.7031 Q323.0938,55.3281 322.4844,55.1094 Q321.875,54.8906 321.25,54.8906 Q320.4844,54.8906 319.8438,55.2188 Q319.2188,55.5469 318.7188,56.2969 Q318.2344,57.0469 318.2344,58.0781 L318.2344,59.1719 Q318.2344,60.4063 319.125,61.2344 Q320.0156,62.0469 321.6094,62.0469 Q322.5469,62.0469 323.2031,61.7969 Q323.5938,61.6406 324.0156,61.2031 Q324.2813,60.9375 324.4219,60.8594 Q324.5781,60.7813 324.7813,60.7813 Q325.1094,60.7813 325.3594,61.0469 Q325.625,61.2969 325.625,61.6406 Q325.625,61.9844 325.2813,62.3906 Q324.7813,62.9688 323.9844,63.2969 Q322.9063,63.75 321.6094,63.75 Q320.0938,63.75 318.8906,63.125 Q317.9063,62.625 317.2188,61.5625 Q316.5313,60.4844 316.5313,59.2031 L316.5313,58.0469 Q316.5313,56.7188 317.1406,55.5781 Q317.7656,54.4219 318.8594,53.8125 Q319.9531,53.1875 321.1875,53.1875 Q321.9219,53.1875 322.5625,53.3594 Q323.2188,53.5156 323.7656,53.875 Z "/><text fill="#000000" font-family="sans-serif" font-size="12" lengthAdjust="spacingAndGlyphs" textLength="104" x="335" y="62.9102">WithConsoleModel</text><line style="stroke: #A80036; stroke-width: 1.5;" x1="307" x2="441" y1="74" y2="74"/><polygon fill="none" points="317,80,321,84,317,88,313,84" style="stroke: #B38D22; stroke-width: 1.0;"/><text fill="#000000" font-family="sans-serif" font-size="11" lengthAdjust="spacingAndGlyphs" textLength="83" x="326" y="89.4189">console: Console</text><line style="stroke: #A80036; stroke-width: 1.5;" x1="307" x2="441" y1="95.8359" y2="95.8359"/><polygon fill="#FFFF44" points="317,101.8359,321,105.8359,317,109.8359,313,105.8359" style="stroke: #B38D22; stroke-width: 1.0;"/><text fill="#000000" font-family="sans-serif" font-size="11" lengthAdjust="spacingAndGlyphs" textLength="96" x="326" y="111.2549">WithConsoleModel()</text><!--MD5=[63e92a92e730259d201bb8566c78f275]
class utils.Direction--><rect fill="#FEFECE" filter="url(#fmz8deqyo4ap0)" height="103.3438" id="utils.Direction" style="stroke: #A80036; stroke-width: 1.5;" width="115" x="81.5" y="466"/><ellipse cx="111.8" cy="482" fill="#EB937F" rx="11" ry="11" style="stroke: #A80036; stroke-width: 1.0;"/><path d="M110.6594,482.7969 L110.6594,485.2969 L114.9875,485.2969 L114.9875,484.375 Q114.9875,483.7656 115.2219,483.5 Q115.4719,483.2344 115.8469,483.2344 Q116.2219,483.2344 116.4563,483.5 Q116.6906,483.7656 116.6906,484.375 L116.6906,487 L108.6906,487 Q108.0656,487 107.8,486.7656 Q107.55,486.5313 107.55,486.1406 Q107.55,485.7656 107.8156,485.5313 Q108.0813,485.2969 108.6906,485.2969 L108.9563,485.2969 L108.9563,478.6406 L108.6906,478.6406 Q108.0656,478.6406 107.8,478.4063 Q107.55,478.1719 107.55,477.7813 Q107.55,477.4063 107.8,477.1719 Q108.0656,476.9375 108.6906,476.9375 L116.3156,476.9375 L116.3156,479.5313 Q116.3156,480.1406 116.0813,480.4063 Q115.8625,480.6563 115.4719,480.6563 Q115.0969,480.6563 114.8625,480.4063 Q114.6281,480.1406 114.6281,479.5313 L114.6281,478.6406 L110.6594,478.6406 L110.6594,481.0938 L112.1438,481.0938 Q112.1438,480.4375 112.2688,480.25 Q112.5344,479.8438 113.0031,479.8438 Q113.3781,479.8438 113.6125,480.1094 Q113.8469,480.3594 113.8469,480.9688 L113.8469,482.9375 Q113.8469,483.4844 113.7219,483.6719 Q113.4563,484.0625 113.0031,484.0625 Q112.5344,484.0625 112.2688,483.6563 Q112.1438,483.4688 112.1438,482.7969 L110.6594,482.7969 Z "/><text fill="#000000" font-family="sans-serif" font-size="12" lengthAdjust="spacingAndGlyphs" textLength="49" x="129.2" y="486.9102">Direction</text><line style="stroke: #A80036; stroke-width: 1.5;" x1="82.5" x2="195.5" y1="498" y2="498"/><text fill="#000000" font-family="sans-serif" font-size="11" lengthAdjust="spacingAndGlyphs" textLength="50" x="87.5" y="513.4189">VERTICAL</text><text fill="#000000" font-family="sans-serif" font-size="11" lengthAdjust="spacingAndGlyphs" textLength="66" x="87.5" y="527.2549">HORIZONTAL</text><text fill="#000000" font-family="sans-serif" font-size="11" lengthAdjust="spacingAndGlyphs" textLength="85" x="87.5" y="541.0908">MAIN_DIAGONAL</text><text fill="#000000" font-family="sans-serif" font-size="11" lengthAdjust="spacingAndGlyphs" textLength="103" x="87.5" y="554.9268">INVERSE_DIAGONAL</text><line style="stroke: #A80036; stroke-width: 1.5;" x1="82.5" x2="195.5" y1="561.3438" y2="561.3438"/><!--MD5=[55e41f1e5a8b39b15e1066bc4af42afb]
class utils.PlayersDialog--><rect fill="#FEFECE" filter="url(#fmz8deqyo4ap0)" height="75.6719" id="utils.PlayersDialog" style="stroke: #A80036; stroke-width: 1.5;" width="135" x="502.5" y="254"/><ellipse cx="529.2" cy="270" fill="#ADD1B2" rx="11" ry="11" style="stroke: #A80036; stroke-width: 1.0;"/><path d="M531.9656,265.875 Q532.1219,265.6563 532.3094,265.5469 Q532.4969,265.4375 532.7156,265.4375 Q533.0906,265.4375 533.325,265.7031 Q533.5594,265.9531 533.5594,266.5625 L533.5594,268.0156 Q533.5594,268.625 533.325,268.8906 Q533.0906,269.1563 532.7156,269.1563 Q532.3719,269.1563 532.1688,268.9531 Q531.9656,268.7656 531.8563,268.25 Q531.8094,267.8906 531.6219,267.7031 Q531.2938,267.3281 530.6844,267.1094 Q530.075,266.8906 529.45,266.8906 Q528.6844,266.8906 528.0438,267.2188 Q527.4188,267.5469 526.9188,268.2969 Q526.4344,269.0469 526.4344,270.0781 L526.4344,271.1719 Q526.4344,272.4063 527.325,273.2344 Q528.2156,274.0469 529.8094,274.0469 Q530.7469,274.0469 531.4031,273.7969 Q531.7938,273.6406 532.2156,273.2031 Q532.4813,272.9375 532.6219,272.8594 Q532.7781,272.7813 532.9813,272.7813 Q533.3094,272.7813 533.5594,273.0469 Q533.825,273.2969 533.825,273.6406 Q533.825,273.9844 533.4813,274.3906 Q532.9813,274.9688 532.1844,275.2969 Q531.1063,275.75 529.8094,275.75 Q528.2938,275.75 527.0906,275.125 Q526.1063,274.625 525.4188,273.5625 Q524.7313,272.4844 524.7313,271.2031 L524.7313,270.0469 Q524.7313,268.7188 525.3406,267.5781 Q525.9656,266.4219 527.0594,265.8125 Q528.1531,265.1875 529.3875,265.1875 Q530.1219,265.1875 530.7625,265.3594 Q531.4188,265.5156 531.9656,265.875 Z "/><text fill="#000000" font-family="sans-serif" font-size="12" lengthAdjust="spacingAndGlyphs" textLength="77" x="545.8" y="274.9102">PlayersDialog</text><line style="stroke: #A80036; stroke-width: 1.5;" x1="503.5" x2="636.5" y1="286" y2="286"/><rect fill="none" height="6" style="stroke: #C82930; stroke-width: 1.0;" width="6" x="510.5" y="294"/><text fill="#000000" font-family="sans-serif" font-size="11" lengthAdjust="spacingAndGlyphs" text-decoration="underline" textLength="109" x="522.5" y="301.4189">USERS_ERROR: String</text><line style="stroke: #A80036; stroke-width: 1.5;" x1="503.5" x2="636.5" y1="307.8359" y2="307.8359"/><ellipse cx="513.5" cy="318.8359" fill="#84BE84" rx="3" ry="3" style="stroke: #038048; stroke-width: 1.0;"/><text fill="#000000" font-family="sans-serif" font-size="11" lengthAdjust="spacingAndGlyphs" textLength="58" x="522.5" y="323.2549">read(int): int</text><!--MD5=[06343bf850d7d7a24456cd327e63b99b]
class java.io.BufferedReader--><rect fill="#FEFECE" filter="url(#fmz8deqyo4ap0)" height="48" id="java.io.BufferedReader" style="stroke: #A80036; stroke-width: 1.5;" width="119" x="694.5" y="493.5"/><ellipse cx="709.5" cy="509.5" fill="#ADD1B2" rx="11" ry="11" style="stroke: #A80036; stroke-width: 1.0;"/><path d="M712.2656,505.375 Q712.4219,505.1563 712.6094,505.0469 Q712.7969,504.9375 713.0156,504.9375 Q713.3906,504.9375 713.625,505.2031 Q713.8594,505.4531 713.8594,506.0625 L713.8594,507.5156 Q713.8594,508.125 713.625,508.3906 Q713.3906,508.6563 713.0156,508.6563 Q712.6719,508.6563 712.4688,508.4531 Q712.2656,508.2656 712.1563,507.75 Q712.1094,507.3906 711.9219,507.2031 Q711.5938,506.8281 710.9844,506.6094 Q710.375,506.3906 709.75,506.3906 Q708.9844,506.3906 708.3438,506.7188 Q707.7188,507.0469 707.2188,507.7969 Q706.7344,508.5469 706.7344,509.5781 L706.7344,510.6719 Q706.7344,511.9063 707.625,512.7344 Q708.5156,513.5469 710.1094,513.5469 Q711.0469,513.5469 711.7031,513.2969 Q712.0938,513.1406 712.5156,512.7031 Q712.7813,512.4375 712.9219,512.3594 Q713.0781,512.2813 713.2813,512.2813 Q713.6094,512.2813 713.8594,512.5469 Q714.125,512.7969 714.125,513.1406 Q714.125,513.4844 713.7813,513.8906 Q713.2813,514.4688 712.4844,514.7969 Q711.4063,515.25 710.1094,515.25 Q708.5938,515.25 707.3906,514.625 Q706.4063,514.125 705.7188,513.0625 Q705.0313,511.9844 705.0313,510.7031 L705.0313,509.5469 Q705.0313,508.2188 705.6406,507.0781 Q706.2656,505.9219 707.3594,505.3125 Q708.4531,504.6875 709.6875,504.6875 Q710.4219,504.6875 711.0625,504.8594 Q711.7188,505.0156 712.2656,505.375 Z "/><text fill="#000000" font-family="sans-serif" font-size="12" lengthAdjust="spacingAndGlyphs" textLength="87" x="723.5" y="514.4102">BufferedReader</text><line style="stroke: #A80036; stroke-width: 1.5;" x1="695.5" x2="812.5" y1="525.5" y2="525.5"/><line style="stroke: #A80036; stroke-width: 1.5;" x1="695.5" x2="812.5" y1="533.5" y2="533.5"/><!--MD5=[dea1a6a5eb2726644cb5ba3fdbe3e8f5]
link utils.Console to java.io.BufferedReader--><path d="M473.8657,399.0105 C473.8657,399.0105 481.538,404.004 485,406 C552.187,444.748 583.217,417.795 654,449.5 C675.322,459.05 697.092,473.037 714.853,485.764 " fill="none" id="utils.Console-java.io.BufferedReader" style="stroke: #A80036; stroke-width: 1.0;"/><polygon fill="#A80036" points="725.353,493.474,720.4661,484.9231,721.3228,490.5147,715.7312,491.3714,725.353,493.474" style="stroke: #A80036; stroke-width: 1.0;"/><line style="stroke: #A80036; stroke-width: 1.0;" x1="721.3228" x2="714.875" y1="490.5147" y2="485.7805"/><polygon fill="#A80036" points="464.075,392.072,466.6575,398.8048,473.8657,399.0105,471.2832,392.2777,464.075,392.072" style="stroke: #A80036; stroke-width: 1.0;"/><!--MD5=[0ded2565c4e46e957fc65c8bdba7d5c3]
reverse link utils.WithConsoleModel to utils.Coordinate--><path d="M315.947,131.329 C298.83,146.277 280.104,162.736 263,178 C257.35,183.042 251.569,188.226 245.741,193.47 " fill="none" id="utils.WithConsoleModel&lt;-utils.Coordinate" style="stroke: #A80036; stroke-width: 1.0;"/><polygon fill="none" points="311.446,125.967,331.122,118.104,320.644,136.521,311.446,125.967" style="stroke: #A80036; stroke-width: 1.0;"/><!--MD5=[7a93099a4dadc944cf6faf031ca4e2bf]
link utils.Coordinate to utils.Direction--><path d="M139,406.06 C139,425.095 139,444.08 139,460.804 " fill="none" id="utils.Coordinate-&gt;utils.Direction" style="stroke: #A80036; stroke-width: 1.0; stroke-dasharray: 7.0,7.0;"/><polygon fill="#A80036" points="139,465.92,143,456.92,139,460.92,135,456.92,139,465.92" style="stroke: #A80036; stroke-width: 1.0;"/><!--MD5=[f1aa797d9b348bba14427f0822bc11da]
reverse link utils.WithConsoleModel to utils.PlayersDialog--><path d="M436.227,131.371 C452.724,145.779 470.082,161.946 485,178 C507.059,201.737 528.968,231.039 545.018,253.855 " fill="none" id="utils.WithConsoleModel&lt;-utils.PlayersDialog" style="stroke: #A80036; stroke-width: 1.0;"/><polygon fill="none" points="431.429,136.478,420.783,118.156,440.531,125.84,431.429,136.478" style="stroke: #A80036; stroke-width: 1.0;"/><!--MD5=[e370295546abead647ce8c75ec4fffaf]
link utils.WithConsoleModel to utils.Console--><path d="M374,130.06 C374,130.06 374,161.905 374,178.395 " fill="none" id="utils.WithConsoleModel-utils.Console" style="stroke: #A80036; stroke-width: 1.0;"/><polygon fill="#A80036" points="374,191.642,378,182.642,374,186.642,370,182.642,374,191.642" style="stroke: #A80036; stroke-width: 1.0;"/><line style="stroke: #A80036; stroke-width: 1.0;" x1="374" x2="374" y1="186.642" y2="178.642"/><polygon fill="#A80036" points="374,118.06,370,124.06,374,130.06,378,124.06,374,118.06" style="stroke: #A80036; stroke-width: 1.0;"/><!--MD5=[897ecaf6643ad7d636f14c56c91e2d54]
@startuml

class  utils.Console{
- bufferedReader: BufferedReader
+ Console()
+ write(char): void
+ write(String): void
+ readInt(String): int
+ readChar(String): char
+ readString(String): String
+ writeln(int): void
+ writeln(String): void
+ writeln(): void
- writeError(String): void
}
utils.Console *-down-> java.io.BufferedReader

class  utils.Coordinate{
# row: int
# column: int
# Coordinate()
# Coordinate(int, int)
# getMainDirection(Coordinate): Direction
- inMainDiagonal(): boolean
- inVertical(Coordinate): boolean
- inHorizontal(Coordinate): boolean
# read(String): void
+ getRow(): int
+ getColumn(): int
+ hashCode(): int
+ equals(Object): boolean
}
utils.WithConsoleModel <|-down- utils.Coordinate
utils.Coordinate ..> utils.Direction

enum  utils.Direction{
  VERTICAL
  HORIZONTAL
  MAIN_DIAGONAL
  INVERSE_DIAGONAL
}

class  utils.PlayersDialog{
- {static} USERS_ERROR: String
+ read(int): int
}
utils.WithConsoleModel <|-down- utils.PlayersDialog

class  utils.WithConsoleModel{
# console: Console
# WithConsoleModel()
}
utils.WithConsoleModel *-down-> utils.Console

@enduml

PlantUML version 1.2020.15(Sun Jun 28 13:39:45 CEST 2020)
(GPL source distribution)
Java Runtime: Java(TM) SE Runtime Environment
JVM: Java HotSpot(TM) 64-Bit Server VM
Default Encoding: windows-1252
Language: es
Country: ES
--></g></svg>