<?xml version="1.0" encoding="UTF-8" standalone="no"?><svg xmlns="http://www.w3.org/2000/svg" xmlns:xlink="http://www.w3.org/1999/xlink" contentScriptType="application/ecmascript" contentStyleType="text/css" height="804px" preserveAspectRatio="none" style="width:1392px;height:804px;" version="1.1" viewBox="0 0 1392 804" width="1392px" zoomAndPan="magnify"><defs><filter height="300%" id="f1jfmneclynevo" width="300%" x="-1" y="-1"><feGaussianBlur result="blurOut" stdDeviation="2.0"/><feColorMatrix in="blurOut" result="blurOut2" type="matrix" values="0 0 0 0 0 0 0 0 0 0 0 0 0 0 0 0 0 0 .4 0"/><feOffset dx="4.0" dy="4.0" in="blurOut2" result="blurOut3"/><feBlend in="SourceGraphic" in2="blurOut3" mode="normal"/></filter></defs><g><!--MD5=[c52f45833d539af9e29a9d34b8b7302b]
cluster utils--><polygon fill="#FFFFFF" filter="url(#f1jfmneclynevo)" points="16,6,52,6,59,29.6094,910,29.6094,910,792,16,792,16,6" style="stroke: #000000; stroke-width: 1.5;"/><line style="stroke: #000000; stroke-width: 1.5;" x1="16" x2="59" y1="29.6094" y2="29.6094"/><text fill="#000000" font-family="sans-serif" font-size="14" font-weight="bold" lengthAdjust="spacingAndGlyphs" textLength="30" x="20" y="22.5332">utils</text><!--MD5=[0d852700fdad35b7061d461d6907a324]
cluster java.io--><polygon fill="#FFFFFF" filter="url(#f1jfmneclynevo)" points="934,657.5,986,657.5,993,681.1094,1210,681.1094,1210,757.5,934,757.5,934,657.5" style="stroke: #000000; stroke-width: 1.5;"/><line style="stroke: #000000; stroke-width: 1.5;" x1="934" x2="993" y1="681.1094" y2="681.1094"/><text fill="#000000" font-family="sans-serif" font-size="14" font-weight="bold" lengthAdjust="spacingAndGlyphs" textLength="46" x="938" y="674.0332">java.io</text><!--MD5=[ed2e990bb8b1341b3aaedff98fe17cdd]
cluster java.net--><polygon fill="#FFFFFF" filter="url(#f1jfmneclynevo)" points="973,439,1035,439,1042,462.6094,1214,462.6094,1214,539,973,539,973,439" style="stroke: #000000; stroke-width: 1.5;"/><line style="stroke: #000000; stroke-width: 1.5;" x1="973" x2="1042" y1="462.6094" y2="462.6094"/><text fill="#000000" font-family="sans-serif" font-size="14" font-weight="bold" lengthAdjust="spacingAndGlyphs" textLength="56" x="977" y="455.5332">java.net</text><!--MD5=[f2bedc297083edee028363469990e0f1]
cluster mastermind.utils--><polygon fill="#FFFFFF" filter="url(#f1jfmneclynevo)" points="1238,439,1360,439,1367,462.6094,1370,462.6094,1370,539,1238,539,1238,439" style="stroke: #000000; stroke-width: 1.5;"/><line style="stroke: #000000; stroke-width: 1.5;" x1="1238" x2="1367" y1="462.6094" y2="462.6094"/><text fill="#000000" font-family="sans-serif" font-size="14" font-weight="bold" lengthAdjust="spacingAndGlyphs" textLength="116" x="1242" y="455.5332">mastermind.utils</text><!--MD5=[1c2e2afe87d69baa60dd94a73d0524e3]
class utils.ClosedInterval--><rect fill="#FEFECE" filter="url(#f1jfmneclynevo)" height="103.3438" id="utils.ClosedInterval" style="stroke: #A80036; stroke-width: 1.5;" width="130" x="764" y="139"/><ellipse cx="787.55" cy="155" fill="#ADD1B2" rx="11" ry="11" style="stroke: #A80036; stroke-width: 1.0;"/><path d="M790.3156,150.875 Q790.4719,150.6563 790.6594,150.5469 Q790.8469,150.4375 791.0656,150.4375 Q791.4406,150.4375 791.675,150.7031 Q791.9094,150.9531 791.9094,151.5625 L791.9094,153.0156 Q791.9094,153.625 791.675,153.8906 Q791.4406,154.1563 791.0656,154.1563 Q790.7219,154.1563 790.5188,153.9531 Q790.3156,153.7656 790.2063,153.25 Q790.1594,152.8906 789.9719,152.7031 Q789.6438,152.3281 789.0344,152.1094 Q788.425,151.8906 787.8,151.8906 Q787.0344,151.8906 786.3938,152.2188 Q785.7688,152.5469 785.2688,153.2969 Q784.7844,154.0469 784.7844,155.0781 L784.7844,156.1719 Q784.7844,157.4063 785.675,158.2344 Q786.5656,159.0469 788.1594,159.0469 Q789.0969,159.0469 789.7531,158.7969 Q790.1438,158.6406 790.5656,158.2031 Q790.8313,157.9375 790.9719,157.8594 Q791.1281,157.7813 791.3313,157.7813 Q791.6594,157.7813 791.9094,158.0469 Q792.175,158.2969 792.175,158.6406 Q792.175,158.9844 791.8313,159.3906 Q791.3313,159.9688 790.5344,160.2969 Q789.4563,160.75 788.1594,160.75 Q786.6438,160.75 785.4406,160.125 Q784.4563,159.625 783.7688,158.5625 Q783.0813,157.4844 783.0813,156.2031 L783.0813,155.0469 Q783.0813,153.7188 783.6906,152.5781 Q784.3156,151.4219 785.4094,150.8125 Q786.5031,150.1875 787.7375,150.1875 Q788.4719,150.1875 789.1125,150.3594 Q789.7688,150.5156 790.3156,150.875 Z "/><text fill="#000000" font-family="sans-serif" font-size="12" lengthAdjust="spacingAndGlyphs" textLength="79" x="803.45" y="159.9102">ClosedInterval</text><line style="stroke: #A80036; stroke-width: 1.5;" x1="765" x2="893" y1="171" y2="171"/><rect fill="none" height="6" style="stroke: #C82930; stroke-width: 1.0;" width="6" x="772" y="179"/><text fill="#000000" font-family="sans-serif" font-size="11" lengthAdjust="spacingAndGlyphs" textLength="37" x="784" y="186.4189">max: int</text><rect fill="none" height="6" style="stroke: #C82930; stroke-width: 1.0;" width="6" x="772" y="192.8359"/><text fill="#000000" font-family="sans-serif" font-size="11" lengthAdjust="spacingAndGlyphs" textLength="33" x="784" y="200.2549">min: int</text><line style="stroke: #A80036; stroke-width: 1.5;" x1="765" x2="893" y1="206.6719" y2="206.6719"/><ellipse cx="775" cy="217.6719" fill="#84BE84" rx="3" ry="3" style="stroke: #038048; stroke-width: 1.0;"/><text fill="#000000" font-family="sans-serif" font-size="11" lengthAdjust="spacingAndGlyphs" textLength="104" x="784" y="222.0908">ClosedInterval(int, int)</text><ellipse cx="775" cy="231.5078" fill="#84BE84" rx="3" ry="3" style="stroke: #038048; stroke-width: 1.0;"/><text fill="#000000" font-family="sans-serif" font-size="11" lengthAdjust="spacingAndGlyphs" textLength="103" x="784" y="235.9268">includes(int): boolean</text><!--MD5=[8356458262f68e05fc628f2b3e46c9c1]
class utils.Command--><rect fill="#FEFECE" filter="url(#f1jfmneclynevo)" height="117.1797" id="utils.Command" style="stroke: #A80036; stroke-width: 1.5;" width="119" x="358.5" y="659"/><ellipse cx="386.1" cy="675" fill="#ADD1B2" rx="11" ry="11" style="stroke: #A80036; stroke-width: 1.0;"/><path d="M388.8656,670.875 Q389.0219,670.6563 389.2094,670.5469 Q389.3969,670.4375 389.6156,670.4375 Q389.9906,670.4375 390.225,670.7031 Q390.4594,670.9531 390.4594,671.5625 L390.4594,673.0156 Q390.4594,673.625 390.225,673.8906 Q389.9906,674.1563 389.6156,674.1563 Q389.2719,674.1563 389.0688,673.9531 Q388.8656,673.7656 388.7563,673.25 Q388.7094,672.8906 388.5219,672.7031 Q388.1938,672.3281 387.5844,672.1094 Q386.975,671.8906 386.35,671.8906 Q385.5844,671.8906 384.9438,672.2188 Q384.3188,672.5469 383.8188,673.2969 Q383.3344,674.0469 383.3344,675.0781 L383.3344,676.1719 Q383.3344,677.4063 384.225,678.2344 Q385.1156,679.0469 386.7094,679.0469 Q387.6469,679.0469 388.3031,678.7969 Q388.6938,678.6406 389.1156,678.2031 Q389.3813,677.9375 389.5219,677.8594 Q389.6781,677.7813 389.8813,677.7813 Q390.2094,677.7813 390.4594,678.0469 Q390.725,678.2969 390.725,678.6406 Q390.725,678.9844 390.3813,679.3906 Q389.8813,679.9688 389.0844,680.2969 Q388.0063,680.75 386.7094,680.75 Q385.1938,680.75 383.9906,680.125 Q383.0063,679.625 382.3188,678.5625 Q381.6313,677.4844 381.6313,676.2031 L381.6313,675.0469 Q381.6313,673.7188 382.2406,672.5781 Q382.8656,671.4219 383.9594,670.8125 Q385.0531,670.1875 386.2875,670.1875 Q387.0219,670.1875 387.6625,670.3594 Q388.3188,670.5156 388.8656,670.875 Z "/><text fill="#000000" font-family="sans-serif" font-size="12" lengthAdjust="spacingAndGlyphs" textLength="59" x="402.9" y="679.9102">Command</text><line style="stroke: #A80036; stroke-width: 1.5;" x1="359.5" x2="476.5" y1="691" y2="691"/><polygon fill="none" points="369.5,697,373.5,701,369.5,705,365.5,701" style="stroke: #B38D22; stroke-width: 1.0;"/><text fill="#000000" font-family="sans-serif" font-size="11" lengthAdjust="spacingAndGlyphs" textLength="50" x="378.5" y="706.4189">title: String</text><line style="stroke: #A80036; stroke-width: 1.5;" x1="359.5" x2="476.5" y1="712.8359" y2="712.8359"/><polygon fill="#FFFF44" points="369.5,718.8359,373.5,722.8359,369.5,726.8359,365.5,722.8359" style="stroke: #B38D22; stroke-width: 1.0;"/><text fill="#000000" font-family="sans-serif" font-size="11" lengthAdjust="spacingAndGlyphs" textLength="83" x="378.5" y="728.2549">Command(String)</text><polygon fill="#FFFF44" points="369.5,732.6719,373.5,736.6719,369.5,740.6719,365.5,736.6719" style="stroke: #B38D22; stroke-width: 1.0;"/><text fill="#000000" font-family="sans-serif" font-size="11" font-style="italic" lengthAdjust="spacingAndGlyphs" textLength="73" x="378.5" y="742.0908">execute(): void</text><polygon fill="#FFFF44" points="369.5,746.5078,373.5,750.5078,369.5,754.5078,365.5,750.5078" style="stroke: #B38D22; stroke-width: 1.0;"/><text fill="#000000" font-family="sans-serif" font-size="11" font-style="italic" lengthAdjust="spacingAndGlyphs" textLength="93" x="378.5" y="755.9268">isActive(): boolean</text><polygon fill="#4177AF" points="369.5,761.3438,365.5,767.3438,373.5,767.3438" style="stroke: #1963A0; stroke-width: 1.0;"/><text fill="#000000" font-family="sans-serif" font-size="11" lengthAdjust="spacingAndGlyphs" textLength="76" x="378.5" y="769.7627">getTitle(): String</text><!--MD5=[2dcb8e10b6e8b78f41f52f48677e1ea3]
class utils.WithConsoleView--><rect fill="#FEFECE" filter="url(#f1jfmneclynevo)" height="75.6719" id="utils.WithConsoleView" style="stroke: #A80036; stroke-width: 1.5;" width="129" x="258.5" y="152.5"/><ellipse cx="273.5" cy="168.5" fill="#ADD1B2" rx="11" ry="11" style="stroke: #A80036; stroke-width: 1.0;"/><path d="M276.2656,164.375 Q276.4219,164.1563 276.6094,164.0469 Q276.7969,163.9375 277.0156,163.9375 Q277.3906,163.9375 277.625,164.2031 Q277.8594,164.4531 277.8594,165.0625 L277.8594,166.5156 Q277.8594,167.125 277.625,167.3906 Q277.3906,167.6563 277.0156,167.6563 Q276.6719,167.6563 276.4688,167.4531 Q276.2656,167.2656 276.1563,166.75 Q276.1094,166.3906 275.9219,166.2031 Q275.5938,165.8281 274.9844,165.6094 Q274.375,165.3906 273.75,165.3906 Q272.9844,165.3906 272.3438,165.7188 Q271.7188,166.0469 271.2188,166.7969 Q270.7344,167.5469 270.7344,168.5781 L270.7344,169.6719 Q270.7344,170.9063 271.625,171.7344 Q272.5156,172.5469 274.1094,172.5469 Q275.0469,172.5469 275.7031,172.2969 Q276.0938,172.1406 276.5156,171.7031 Q276.7813,171.4375 276.9219,171.3594 Q277.0781,171.2813 277.2813,171.2813 Q277.6094,171.2813 277.8594,171.5469 Q278.125,171.7969 278.125,172.1406 Q278.125,172.4844 277.7813,172.8906 Q277.2813,173.4688 276.4844,173.7969 Q275.4063,174.25 274.1094,174.25 Q272.5938,174.25 271.3906,173.625 Q270.4063,173.125 269.7188,172.0625 Q269.0313,170.9844 269.0313,169.7031 L269.0313,168.5469 Q269.0313,167.2188 269.6406,166.0781 Q270.2656,164.9219 271.3594,164.3125 Q272.4531,163.6875 273.6875,163.6875 Q274.4219,163.6875 275.0625,163.8594 Q275.7188,164.0156 276.2656,164.375 Z "/><text fill="#000000" font-family="sans-serif" font-size="12" lengthAdjust="spacingAndGlyphs" textLength="97" x="287.5" y="173.4102">WithConsoleView</text><line style="stroke: #A80036; stroke-width: 1.5;" x1="259.5" x2="386.5" y1="184.5" y2="184.5"/><polygon fill="none" points="269.5,190.5,273.5,194.5,269.5,198.5,265.5,194.5" style="stroke: #B38D22; stroke-width: 1.0;"/><text fill="#000000" font-family="sans-serif" font-size="11" lengthAdjust="spacingAndGlyphs" textLength="83" x="278.5" y="199.9189">console: Console</text><line style="stroke: #A80036; stroke-width: 1.5;" x1="259.5" x2="386.5" y1="206.3359" y2="206.3359"/><polygon fill="#FFFF44" points="269.5,212.3359,273.5,216.3359,269.5,220.3359,265.5,216.3359" style="stroke: #B38D22; stroke-width: 1.0;"/><text fill="#000000" font-family="sans-serif" font-size="11" lengthAdjust="spacingAndGlyphs" textLength="94" x="278.5" y="221.7549">WithConsoleView()</text><!--MD5=[8af4fdb787b135b7271f9ce04b92f747]
class utils.Console--><rect fill="#FEFECE" filter="url(#f1jfmneclynevo)" height="200.1953" id="utils.Console" style="stroke: #A80036; stroke-width: 1.5;" width="187" x="624.5" y="399"/><ellipse cx="690.25" cy="415" fill="#ADD1B2" rx="11" ry="11" style="stroke: #A80036; stroke-width: 1.0;"/><path d="M693.0156,410.875 Q693.1719,410.6563 693.3594,410.5469 Q693.5469,410.4375 693.7656,410.4375 Q694.1406,410.4375 694.375,410.7031 Q694.6094,410.9531 694.6094,411.5625 L694.6094,413.0156 Q694.6094,413.625 694.375,413.8906 Q694.1406,414.1563 693.7656,414.1563 Q693.4219,414.1563 693.2188,413.9531 Q693.0156,413.7656 692.9063,413.25 Q692.8594,412.8906 692.6719,412.7031 Q692.3438,412.3281 691.7344,412.1094 Q691.125,411.8906 690.5,411.8906 Q689.7344,411.8906 689.0938,412.2188 Q688.4688,412.5469 687.9688,413.2969 Q687.4844,414.0469 687.4844,415.0781 L687.4844,416.1719 Q687.4844,417.4063 688.375,418.2344 Q689.2656,419.0469 690.8594,419.0469 Q691.7969,419.0469 692.4531,418.7969 Q692.8438,418.6406 693.2656,418.2031 Q693.5313,417.9375 693.6719,417.8594 Q693.8281,417.7813 694.0313,417.7813 Q694.3594,417.7813 694.6094,418.0469 Q694.875,418.2969 694.875,418.6406 Q694.875,418.9844 694.5313,419.3906 Q694.0313,419.9688 693.2344,420.2969 Q692.1563,420.75 690.8594,420.75 Q689.3438,420.75 688.1406,420.125 Q687.1563,419.625 686.4688,418.5625 Q685.7813,417.4844 685.7813,416.2031 L685.7813,415.0469 Q685.7813,413.7188 686.3906,412.5781 Q687.0156,411.4219 688.1094,410.8125 Q689.2031,410.1875 690.4375,410.1875 Q691.1719,410.1875 691.8125,410.3594 Q692.4688,410.5156 693.0156,410.875 Z "/><text fill="#000000" font-family="sans-serif" font-size="12" lengthAdjust="spacingAndGlyphs" textLength="47" x="710.75" y="419.9102">Console</text><line style="stroke: #A80036; stroke-width: 1.5;" x1="625.5" x2="810.5" y1="431" y2="431"/><rect fill="none" height="6" style="stroke: #C82930; stroke-width: 1.0;" width="6" x="632.5" y="439"/><text fill="#000000" font-family="sans-serif" font-size="11" lengthAdjust="spacingAndGlyphs" textLength="161" x="644.5" y="446.4189">bufferedReader: BufferedReader</text><line style="stroke: #A80036; stroke-width: 1.5;" x1="625.5" x2="810.5" y1="452.8359" y2="452.8359"/><ellipse cx="635.5" cy="463.8359" fill="#84BE84" rx="3" ry="3" style="stroke: #038048; stroke-width: 1.0;"/><text fill="#000000" font-family="sans-serif" font-size="11" lengthAdjust="spacingAndGlyphs" textLength="47" x="644.5" y="468.2549">Console()</text><ellipse cx="635.5" cy="477.6719" fill="#84BE84" rx="3" ry="3" style="stroke: #038048; stroke-width: 1.0;"/><text fill="#000000" font-family="sans-serif" font-size="11" lengthAdjust="spacingAndGlyphs" textLength="81" x="644.5" y="482.0908">write(char): void</text><ellipse cx="635.5" cy="491.5078" fill="#84BE84" rx="3" ry="3" style="stroke: #038048; stroke-width: 1.0;"/><text fill="#000000" font-family="sans-serif" font-size="11" lengthAdjust="spacingAndGlyphs" textLength="87" x="644.5" y="495.9268">write(String): void</text><ellipse cx="635.5" cy="505.3438" fill="#84BE84" rx="3" ry="3" style="stroke: #038048; stroke-width: 1.0;"/><text fill="#000000" font-family="sans-serif" font-size="11" lengthAdjust="spacingAndGlyphs" textLength="86" x="644.5" y="509.7627">readInt(String): int</text><ellipse cx="635.5" cy="519.1797" fill="#84BE84" rx="3" ry="3" style="stroke: #038048; stroke-width: 1.0;"/><text fill="#000000" font-family="sans-serif" font-size="11" lengthAdjust="spacingAndGlyphs" textLength="109" x="644.5" y="523.5986">readChar(String): char</text><ellipse cx="635.5" cy="533.0156" fill="#84BE84" rx="3" ry="3" style="stroke: #038048; stroke-width: 1.0;"/><text fill="#000000" font-family="sans-serif" font-size="11" lengthAdjust="spacingAndGlyphs" textLength="120" x="644.5" y="537.4346">readString(String): String</text><ellipse cx="635.5" cy="546.8516" fill="#84BE84" rx="3" ry="3" style="stroke: #038048; stroke-width: 1.0;"/><text fill="#000000" font-family="sans-serif" font-size="11" lengthAdjust="spacingAndGlyphs" textLength="78" x="644.5" y="551.2705">writeln(int): void</text><ellipse cx="635.5" cy="560.6875" fill="#84BE84" rx="3" ry="3" style="stroke: #038048; stroke-width: 1.0;"/><text fill="#000000" font-family="sans-serif" font-size="11" lengthAdjust="spacingAndGlyphs" textLength="95" x="644.5" y="565.1064">writeln(String): void</text><ellipse cx="635.5" cy="574.5234" fill="#84BE84" rx="3" ry="3" style="stroke: #038048; stroke-width: 1.0;"/><text fill="#000000" font-family="sans-serif" font-size="11" lengthAdjust="spacingAndGlyphs" textLength="67" x="644.5" y="578.9424">writeln(): void</text><ellipse cx="635.5" cy="588.3594" fill="#84BE84" rx="3" ry="3" style="stroke: #038048; stroke-width: 1.0;"/><text fill="#000000" font-family="sans-serif" font-size="11" lengthAdjust="spacingAndGlyphs" textLength="111" x="644.5" y="592.7783">writeError(String): void</text><!--MD5=[4517a9099db328c27576a0137eb33da6]
class utils.Coordinate--><rect fill="#FEFECE" filter="url(#f1jfmneclynevo)" height="200.1953" id="utils.Coordinate" style="stroke: #A80036; stroke-width: 1.5;" width="191" x="32.5" y="90.5"/><ellipse cx="93.25" cy="106.5" fill="#ADD1B2" rx="11" ry="11" style="stroke: #A80036; stroke-width: 1.0;"/><path d="M96.0156,102.375 Q96.1719,102.1563 96.3594,102.0469 Q96.5469,101.9375 96.7656,101.9375 Q97.1406,101.9375 97.375,102.2031 Q97.6094,102.4531 97.6094,103.0625 L97.6094,104.5156 Q97.6094,105.125 97.375,105.3906 Q97.1406,105.6563 96.7656,105.6563 Q96.4219,105.6563 96.2188,105.4531 Q96.0156,105.2656 95.9063,104.75 Q95.8594,104.3906 95.6719,104.2031 Q95.3438,103.8281 94.7344,103.6094 Q94.125,103.3906 93.5,103.3906 Q92.7344,103.3906 92.0938,103.7188 Q91.4688,104.0469 90.9688,104.7969 Q90.4844,105.5469 90.4844,106.5781 L90.4844,107.6719 Q90.4844,108.9063 91.375,109.7344 Q92.2656,110.5469 93.8594,110.5469 Q94.7969,110.5469 95.4531,110.2969 Q95.8438,110.1406 96.2656,109.7031 Q96.5313,109.4375 96.6719,109.3594 Q96.8281,109.2813 97.0313,109.2813 Q97.3594,109.2813 97.6094,109.5469 Q97.875,109.7969 97.875,110.1406 Q97.875,110.4844 97.5313,110.8906 Q97.0313,111.4688 96.2344,111.7969 Q95.1563,112.25 93.8594,112.25 Q92.3438,112.25 91.1406,111.625 Q90.1563,111.125 89.4688,110.0625 Q88.7813,108.9844 88.7813,107.7031 L88.7813,106.5469 Q88.7813,105.2188 89.3906,104.0781 Q90.0156,102.9219 91.1094,102.3125 Q92.2031,101.6875 93.4375,101.6875 Q94.1719,101.6875 94.8125,101.8594 Q95.4688,102.0156 96.0156,102.375 Z "/><text fill="#000000" font-family="sans-serif" font-size="12" lengthAdjust="spacingAndGlyphs" textLength="61" x="113.75" y="111.4102">Coordinate</text><line style="stroke: #A80036; stroke-width: 1.5;" x1="33.5" x2="222.5" y1="122.5" y2="122.5"/><polygon fill="none" points="43.5,128.5,47.5,132.5,43.5,136.5,39.5,132.5" style="stroke: #B38D22; stroke-width: 1.0;"/><text fill="#000000" font-family="sans-serif" font-size="11" lengthAdjust="spacingAndGlyphs" textLength="37" x="52.5" y="137.9189">row: int</text><polygon fill="none" points="43.5,142.3359,47.5,146.3359,43.5,150.3359,39.5,146.3359" style="stroke: #B38D22; stroke-width: 1.0;"/><text fill="#000000" font-family="sans-serif" font-size="11" lengthAdjust="spacingAndGlyphs" textLength="51" x="52.5" y="151.7549">column: int</text><line style="stroke: #A80036; stroke-width: 1.5;" x1="33.5" x2="222.5" y1="158.1719" y2="158.1719"/><polygon fill="#FFFF44" points="43.5,164.1719,47.5,168.1719,43.5,172.1719,39.5,168.1719" style="stroke: #B38D22; stroke-width: 1.0;"/><text fill="#000000" font-family="sans-serif" font-size="11" lengthAdjust="spacingAndGlyphs" textLength="60" x="52.5" y="173.5908">Coordinate()</text><polygon fill="#FFFF44" points="43.5,178.0078,47.5,182.0078,43.5,186.0078,39.5,182.0078" style="stroke: #B38D22; stroke-width: 1.0;"/><text fill="#000000" font-family="sans-serif" font-size="11" lengthAdjust="spacingAndGlyphs" textLength="88" x="52.5" y="187.4268">Coordinate(int, int)</text><polygon fill="#FFFF44" points="43.5,191.8438,47.5,195.8438,43.5,199.8438,39.5,195.8438" style="stroke: #B38D22; stroke-width: 1.0;"/><text fill="#000000" font-family="sans-serif" font-size="11" lengthAdjust="spacingAndGlyphs" textLength="165" x="52.5" y="201.2627">getDirection(Coordinate): Direction</text><rect fill="#F24D5C" height="6" style="stroke: #C82930; stroke-width: 1.0;" width="6" x="40.5" y="207.6797"/><text fill="#000000" font-family="sans-serif" font-size="11" lengthAdjust="spacingAndGlyphs" textLength="123" x="52.5" y="215.0986">inMainDiagonal(): boolean</text><rect fill="#F24D5C" height="6" style="stroke: #C82930; stroke-width: 1.0;" width="6" x="40.5" y="221.5156"/><text fill="#000000" font-family="sans-serif" font-size="11" lengthAdjust="spacingAndGlyphs" textLength="149" x="52.5" y="228.9346">inVertical(Coordinate): boolean</text><rect fill="#F24D5C" height="6" style="stroke: #C82930; stroke-width: 1.0;" width="6" x="40.5" y="235.3516"/><text fill="#000000" font-family="sans-serif" font-size="11" lengthAdjust="spacingAndGlyphs" textLength="160" x="52.5" y="242.7705">inHorizontal(Coordinate): boolean</text><ellipse cx="43.5" cy="252.1875" fill="#84BE84" rx="3" ry="3" style="stroke: #038048; stroke-width: 1.0;"/><text fill="#000000" font-family="sans-serif" font-size="11" lengthAdjust="spacingAndGlyphs" textLength="63" x="52.5" y="256.6064">getRow(): int</text><ellipse cx="43.5" cy="266.0234" fill="#84BE84" rx="3" ry="3" style="stroke: #038048; stroke-width: 1.0;"/><text fill="#000000" font-family="sans-serif" font-size="11" lengthAdjust="spacingAndGlyphs" textLength="75" x="52.5" y="270.4424">getColumn(): int</text><ellipse cx="43.5" cy="279.8594" fill="#84BE84" rx="3" ry="3" style="stroke: #038048; stroke-width: 1.0;"/><text fill="#000000" font-family="sans-serif" font-size="11" lengthAdjust="spacingAndGlyphs" textLength="136" x="52.5" y="284.2783">equals(Coordinate): boolean</text><!--MD5=[63e92a92e730259d201bb8566c78f275]
class utils.Direction--><rect fill="#FEFECE" filter="url(#f1jfmneclynevo)" height="103.3438" id="utils.Direction" style="stroke: #A80036; stroke-width: 1.5;" width="115" x="32.5" y="447.5"/><ellipse cx="62.8" cy="463.5" fill="#EB937F" rx="11" ry="11" style="stroke: #A80036; stroke-width: 1.0;"/><path d="M61.6594,464.2969 L61.6594,466.7969 L65.9875,466.7969 L65.9875,465.875 Q65.9875,465.2656 66.2219,465 Q66.4719,464.7344 66.8469,464.7344 Q67.2219,464.7344 67.4563,465 Q67.6906,465.2656 67.6906,465.875 L67.6906,468.5 L59.6906,468.5 Q59.0656,468.5 58.8,468.2656 Q58.55,468.0313 58.55,467.6406 Q58.55,467.2656 58.8156,467.0313 Q59.0813,466.7969 59.6906,466.7969 L59.9563,466.7969 L59.9563,460.1406 L59.6906,460.1406 Q59.0656,460.1406 58.8,459.9063 Q58.55,459.6719 58.55,459.2813 Q58.55,458.9063 58.8,458.6719 Q59.0656,458.4375 59.6906,458.4375 L67.3156,458.4375 L67.3156,461.0313 Q67.3156,461.6406 67.0813,461.9063 Q66.8625,462.1563 66.4719,462.1563 Q66.0969,462.1563 65.8625,461.9063 Q65.6281,461.6406 65.6281,461.0313 L65.6281,460.1406 L61.6594,460.1406 L61.6594,462.5938 L63.1438,462.5938 Q63.1438,461.9375 63.2688,461.75 Q63.5344,461.3438 64.0031,461.3438 Q64.3781,461.3438 64.6125,461.6094 Q64.8469,461.8594 64.8469,462.4688 L64.8469,464.4375 Q64.8469,464.9844 64.7219,465.1719 Q64.4563,465.5625 64.0031,465.5625 Q63.5344,465.5625 63.2688,465.1563 Q63.1438,464.9688 63.1438,464.2969 L61.6594,464.2969 Z "/><text fill="#000000" font-family="sans-serif" font-size="12" lengthAdjust="spacingAndGlyphs" textLength="49" x="80.2" y="468.4102">Direction</text><line style="stroke: #A80036; stroke-width: 1.5;" x1="33.5" x2="146.5" y1="479.5" y2="479.5"/><text fill="#000000" font-family="sans-serif" font-size="11" lengthAdjust="spacingAndGlyphs" textLength="50" x="38.5" y="494.9189">VERTICAL</text><text fill="#000000" font-family="sans-serif" font-size="11" lengthAdjust="spacingAndGlyphs" textLength="66" x="38.5" y="508.7549">HORIZONTAL</text><text fill="#000000" font-family="sans-serif" font-size="11" lengthAdjust="spacingAndGlyphs" textLength="85" x="38.5" y="522.5908">MAIN_DIAGONAL</text><text fill="#000000" font-family="sans-serif" font-size="11" lengthAdjust="spacingAndGlyphs" textLength="103" x="38.5" y="536.4268">INVERSE_DIAGONAL</text><line style="stroke: #A80036; stroke-width: 1.5;" x1="33.5" x2="146.5" y1="542.8438" y2="542.8438"/><!--MD5=[ad57fc3fed10c44941145670cf00f844]
class utils.Menu--><rect fill="#FEFECE" filter="url(#f1jfmneclynevo)" height="117.1797" id="utils.Menu" style="stroke: #A80036; stroke-width: 1.5;" width="199" x="182.5" y="440.5"/><ellipse cx="262.75" cy="456.5" fill="#ADD1B2" rx="11" ry="11" style="stroke: #A80036; stroke-width: 1.0;"/><path d="M265.5156,452.375 Q265.6719,452.1563 265.8594,452.0469 Q266.0469,451.9375 266.2656,451.9375 Q266.6406,451.9375 266.875,452.2031 Q267.1094,452.4531 267.1094,453.0625 L267.1094,454.5156 Q267.1094,455.125 266.875,455.3906 Q266.6406,455.6563 266.2656,455.6563 Q265.9219,455.6563 265.7188,455.4531 Q265.5156,455.2656 265.4063,454.75 Q265.3594,454.3906 265.1719,454.2031 Q264.8438,453.8281 264.2344,453.6094 Q263.625,453.3906 263,453.3906 Q262.2344,453.3906 261.5938,453.7188 Q260.9688,454.0469 260.4688,454.7969 Q259.9844,455.5469 259.9844,456.5781 L259.9844,457.6719 Q259.9844,458.9063 260.875,459.7344 Q261.7656,460.5469 263.3594,460.5469 Q264.2969,460.5469 264.9531,460.2969 Q265.3438,460.1406 265.7656,459.7031 Q266.0313,459.4375 266.1719,459.3594 Q266.3281,459.2813 266.5313,459.2813 Q266.8594,459.2813 267.1094,459.5469 Q267.375,459.7969 267.375,460.1406 Q267.375,460.4844 267.0313,460.8906 Q266.5313,461.4688 265.7344,461.7969 Q264.6563,462.25 263.3594,462.25 Q261.8438,462.25 260.6406,461.625 Q259.6563,461.125 258.9688,460.0625 Q258.2813,458.9844 258.2813,457.7031 L258.2813,456.5469 Q258.2813,455.2188 258.8906,454.0781 Q259.5156,452.9219 260.6094,452.3125 Q261.7031,451.6875 262.9375,451.6875 Q263.6719,451.6875 264.3125,451.8594 Q264.9688,452.0156 265.5156,452.375 Z "/><text fill="#000000" font-family="sans-serif" font-size="12" lengthAdjust="spacingAndGlyphs" textLength="30" x="283.25" y="461.4102">Menu</text><line style="stroke: #A80036; stroke-width: 1.5;" x1="183.5" x2="380.5" y1="472.5" y2="472.5"/><rect fill="none" height="6" style="stroke: #C82930; stroke-width: 1.0;" width="6" x="190.5" y="480.5"/><text fill="#000000" font-family="sans-serif" font-size="11" lengthAdjust="spacingAndGlyphs" text-decoration="underline" textLength="71" x="202.5" y="487.9189">OPTION: String</text><rect fill="none" height="6" style="stroke: #C82930; stroke-width: 1.0;" width="6" x="190.5" y="494.3359"/><text fill="#000000" font-family="sans-serif" font-size="11" lengthAdjust="spacingAndGlyphs" textLength="173" x="202.5" y="501.7549">commandList: ArrayList&lt;Command&gt;</text><line style="stroke: #A80036; stroke-width: 1.5;" x1="183.5" x2="380.5" y1="508.1719" y2="508.1719"/><ellipse cx="193.5" cy="519.1719" fill="#84BE84" rx="3" ry="3" style="stroke: #038048; stroke-width: 1.0;"/><text fill="#000000" font-family="sans-serif" font-size="11" lengthAdjust="spacingAndGlyphs" textLength="34" x="202.5" y="523.5908">Menu()</text><ellipse cx="193.5" cy="533.0078" fill="#84BE84" rx="3" ry="3" style="stroke: #038048; stroke-width: 1.0;"/><text fill="#000000" font-family="sans-serif" font-size="11" lengthAdjust="spacingAndGlyphs" textLength="73" x="202.5" y="537.4268">execute(): void</text><polygon fill="#FFFF44" points="193.5,541.8438,197.5,545.8438,193.5,549.8438,189.5,545.8438" style="stroke: #B38D22; stroke-width: 1.0;"/><text fill="#000000" font-family="sans-serif" font-size="11" lengthAdjust="spacingAndGlyphs" textLength="146" x="202.5" y="551.2627">addCommand(Command): void</text><!--MD5=[910eabe26e7ea2a3e38f9a1138d997ed]
class utils.CloseInterval--><rect fill="#FEFECE" filter="url(#f1jfmneclynevo)" height="48" id="utils.CloseInterval" style="stroke: #A80036; stroke-width: 1.5;" width="104" x="219" y="693.5"/><ellipse cx="234" cy="709.5" fill="#ADD1B2" rx="11" ry="11" style="stroke: #A80036; stroke-width: 1.0;"/><path d="M236.7656,705.375 Q236.9219,705.1563 237.1094,705.0469 Q237.2969,704.9375 237.5156,704.9375 Q237.8906,704.9375 238.125,705.2031 Q238.3594,705.4531 238.3594,706.0625 L238.3594,707.5156 Q238.3594,708.125 238.125,708.3906 Q237.8906,708.6563 237.5156,708.6563 Q237.1719,708.6563 236.9688,708.4531 Q236.7656,708.2656 236.6563,707.75 Q236.6094,707.3906 236.4219,707.2031 Q236.0938,706.8281 235.4844,706.6094 Q234.875,706.3906 234.25,706.3906 Q233.4844,706.3906 232.8438,706.7188 Q232.2188,707.0469 231.7188,707.7969 Q231.2344,708.5469 231.2344,709.5781 L231.2344,710.6719 Q231.2344,711.9063 232.125,712.7344 Q233.0156,713.5469 234.6094,713.5469 Q235.5469,713.5469 236.2031,713.2969 Q236.5938,713.1406 237.0156,712.7031 Q237.2813,712.4375 237.4219,712.3594 Q237.5781,712.2813 237.7813,712.2813 Q238.1094,712.2813 238.3594,712.5469 Q238.625,712.7969 238.625,713.1406 Q238.625,713.4844 238.2813,713.8906 Q237.7813,714.4688 236.9844,714.7969 Q235.9063,715.25 234.6094,715.25 Q233.0938,715.25 231.8906,714.625 Q230.9063,714.125 230.2188,713.0625 Q229.5313,711.9844 229.5313,710.7031 L229.5313,709.5469 Q229.5313,708.2188 230.1406,707.0781 Q230.7656,705.9219 231.8594,705.3125 Q232.9531,704.6875 234.1875,704.6875 Q234.9219,704.6875 235.5625,704.8594 Q236.2188,705.0156 236.7656,705.375 Z "/><text fill="#000000" font-family="sans-serif" font-size="12" lengthAdjust="spacingAndGlyphs" textLength="72" x="248" y="714.4102">CloseInterval</text><line style="stroke: #A80036; stroke-width: 1.5;" x1="220" x2="322" y1="725.5" y2="725.5"/><line style="stroke: #A80036; stroke-width: 1.5;" x1="220" x2="322" y1="733.5" y2="733.5"/><!--MD5=[55e41f1e5a8b39b15e1066bc4af42afb]
class utils.PlayersDialog--><rect fill="#FEFECE" filter="url(#f1jfmneclynevo)" height="75.6719" id="utils.PlayersDialog" style="stroke: #A80036; stroke-width: 1.5;" width="135" x="454.5" y="461"/><ellipse cx="481.2" cy="477" fill="#ADD1B2" rx="11" ry="11" style="stroke: #A80036; stroke-width: 1.0;"/><path d="M483.9656,472.875 Q484.1219,472.6563 484.3094,472.5469 Q484.4969,472.4375 484.7156,472.4375 Q485.0906,472.4375 485.325,472.7031 Q485.5594,472.9531 485.5594,473.5625 L485.5594,475.0156 Q485.5594,475.625 485.325,475.8906 Q485.0906,476.1563 484.7156,476.1563 Q484.3719,476.1563 484.1688,475.9531 Q483.9656,475.7656 483.8563,475.25 Q483.8094,474.8906 483.6219,474.7031 Q483.2938,474.3281 482.6844,474.1094 Q482.075,473.8906 481.45,473.8906 Q480.6844,473.8906 480.0438,474.2188 Q479.4188,474.5469 478.9188,475.2969 Q478.4344,476.0469 478.4344,477.0781 L478.4344,478.1719 Q478.4344,479.4063 479.325,480.2344 Q480.2156,481.0469 481.8094,481.0469 Q482.7469,481.0469 483.4031,480.7969 Q483.7938,480.6406 484.2156,480.2031 Q484.4813,479.9375 484.6219,479.8594 Q484.7781,479.7813 484.9813,479.7813 Q485.3094,479.7813 485.5594,480.0469 Q485.825,480.2969 485.825,480.6406 Q485.825,480.9844 485.4813,481.3906 Q484.9813,481.9688 484.1844,482.2969 Q483.1063,482.75 481.8094,482.75 Q480.2938,482.75 479.0906,482.125 Q478.1063,481.625 477.4188,480.5625 Q476.7313,479.4844 476.7313,478.2031 L476.7313,477.0469 Q476.7313,475.7188 477.3406,474.5781 Q477.9656,473.4219 479.0594,472.8125 Q480.1531,472.1875 481.3875,472.1875 Q482.1219,472.1875 482.7625,472.3594 Q483.4188,472.5156 483.9656,472.875 Z "/><text fill="#000000" font-family="sans-serif" font-size="12" lengthAdjust="spacingAndGlyphs" textLength="77" x="497.8" y="481.9102">PlayersDialog</text><line style="stroke: #A80036; stroke-width: 1.5;" x1="455.5" x2="588.5" y1="493" y2="493"/><rect fill="none" height="6" style="stroke: #C82930; stroke-width: 1.0;" width="6" x="462.5" y="501"/><text fill="#000000" font-family="sans-serif" font-size="11" lengthAdjust="spacingAndGlyphs" text-decoration="underline" textLength="109" x="474.5" y="508.4189">USERS_ERROR: String</text><line style="stroke: #A80036; stroke-width: 1.5;" x1="455.5" x2="588.5" y1="514.8359" y2="514.8359"/><ellipse cx="465.5" cy="525.8359" fill="#84BE84" rx="3" ry="3" style="stroke: #038048; stroke-width: 1.0;"/><text fill="#000000" font-family="sans-serif" font-size="11" lengthAdjust="spacingAndGlyphs" textLength="58" x="474.5" y="530.2549">read(int): int</text><!--MD5=[2c721b8e75ee69878c5473c2e2c68362]
class utils.TCPIP--><rect fill="#FEFECE" filter="url(#f1jfmneclynevo)" height="297.0469" id="utils.TCPIP" style="stroke: #A80036; stroke-width: 1.5;" width="306" x="423" y="42"/><ellipse cx="554.25" cy="58" fill="#ADD1B2" rx="11" ry="11" style="stroke: #A80036; stroke-width: 1.0;"/><path d="M557.0156,53.875 Q557.1719,53.6563 557.3594,53.5469 Q557.5469,53.4375 557.7656,53.4375 Q558.1406,53.4375 558.375,53.7031 Q558.6094,53.9531 558.6094,54.5625 L558.6094,56.0156 Q558.6094,56.625 558.375,56.8906 Q558.1406,57.1563 557.7656,57.1563 Q557.4219,57.1563 557.2188,56.9531 Q557.0156,56.7656 556.9063,56.25 Q556.8594,55.8906 556.6719,55.7031 Q556.3438,55.3281 555.7344,55.1094 Q555.125,54.8906 554.5,54.8906 Q553.7344,54.8906 553.0938,55.2188 Q552.4688,55.5469 551.9688,56.2969 Q551.4844,57.0469 551.4844,58.0781 L551.4844,59.1719 Q551.4844,60.4063 552.375,61.2344 Q553.2656,62.0469 554.8594,62.0469 Q555.7969,62.0469 556.4531,61.7969 Q556.8438,61.6406 557.2656,61.2031 Q557.5313,60.9375 557.6719,60.8594 Q557.8281,60.7813 558.0313,60.7813 Q558.3594,60.7813 558.6094,61.0469 Q558.875,61.2969 558.875,61.6406 Q558.875,61.9844 558.5313,62.3906 Q558.0313,62.9688 557.2344,63.2969 Q556.1563,63.75 554.8594,63.75 Q553.3438,63.75 552.1406,63.125 Q551.1563,62.625 550.4688,61.5625 Q549.7813,60.4844 549.7813,59.2031 L549.7813,58.0469 Q549.7813,56.7188 550.3906,55.5781 Q551.0156,54.4219 552.1094,53.8125 Q553.2031,53.1875 554.4375,53.1875 Q555.1719,53.1875 555.8125,53.3594 Q556.4688,53.5156 557.0156,53.875 Z "/><text fill="#000000" font-family="sans-serif" font-size="12" lengthAdjust="spacingAndGlyphs" textLength="35" x="574.75" y="62.9102">TCPIP</text><line style="stroke: #A80036; stroke-width: 1.5;" x1="424" x2="728" y1="74" y2="74"/><rect fill="none" height="6" style="stroke: #C82930; stroke-width: 1.0;" width="6" x="431" y="82"/><text fill="#000000" font-family="sans-serif" font-size="11" lengthAdjust="spacingAndGlyphs" textLength="137" x="443" y="89.4189">serverSocket: ServerSocket</text><rect fill="none" height="6" style="stroke: #C82930; stroke-width: 1.0;" width="6" x="431" y="95.8359"/><text fill="#000000" font-family="sans-serif" font-size="11" lengthAdjust="spacingAndGlyphs" textLength="71" x="443" y="103.2549">socket: Socket</text><rect fill="none" height="6" style="stroke: #C82930; stroke-width: 1.0;" width="6" x="431" y="109.6719"/><text fill="#000000" font-family="sans-serif" font-size="11" lengthAdjust="spacingAndGlyphs" textLength="71" x="443" y="117.0908">out: PrintWriter</text><rect fill="none" height="6" style="stroke: #C82930; stroke-width: 1.0;" width="6" x="431" y="123.5078"/><text fill="#000000" font-family="sans-serif" font-size="11" lengthAdjust="spacingAndGlyphs" textLength="92" x="443" y="130.9268">in: BufferedReader</text><line style="stroke: #A80036; stroke-width: 1.5;" x1="424" x2="728" y1="137.3438" y2="137.3438"/><ellipse cx="434" cy="148.3438" fill="#84BE84" rx="3" ry="3" style="stroke: #038048; stroke-width: 1.0;"/><text fill="#000000" font-family="sans-serif" font-size="11" lengthAdjust="spacingAndGlyphs" textLength="208" x="443" y="152.7627">TCPIP(PrintWriter, Socket, BufferedReader)</text><ellipse cx="434" cy="162.1797" fill="#84BE84" rx="3" ry="3" style="stroke: #038048; stroke-width: 1.0;"/><text fill="#000000" font-family="sans-serif" font-size="11" lengthAdjust="spacingAndGlyphs" textLength="280" x="443" y="166.5986">TCPIP(ServerSocket, PrintWriter, BufferedReader, Socket)</text><ellipse cx="434" cy="176.0156" fill="#84BE84" rx="3" ry="3" style="stroke: #038048; stroke-width: 1.0;"/><text fill="#000000" font-family="sans-serif" font-size="11" lengthAdjust="spacingAndGlyphs" textLength="60" x="443" y="180.4346">close(): void</text><ellipse cx="434" cy="189.8516" fill="#84BE84" rx="3" ry="3" style="stroke: #038048; stroke-width: 1.0;"/><text fill="#000000" font-family="sans-serif" font-size="11" lengthAdjust="spacingAndGlyphs" text-decoration="underline" textLength="131" x="443" y="194.2705">createClientSocket(): TCPIP</text><ellipse cx="434" cy="203.6875" fill="#84BE84" rx="3" ry="3" style="stroke: #038048; stroke-width: 1.0;"/><text fill="#000000" font-family="sans-serif" font-size="11" lengthAdjust="spacingAndGlyphs" text-decoration="underline" textLength="138" x="443" y="208.1064">createServerSocket(): TCPIP</text><ellipse cx="434" cy="217.5234" fill="#84BE84" rx="3" ry="3" style="stroke: #038048; stroke-width: 1.0;"/><text fill="#000000" font-family="sans-serif" font-size="11" lengthAdjust="spacingAndGlyphs" textLength="72" x="443" y="221.9424">receiveInt(): int</text><ellipse cx="434" cy="231.3594" fill="#84BE84" rx="3" ry="3" style="stroke: #038048; stroke-width: 1.0;"/><text fill="#000000" font-family="sans-serif" font-size="11" lengthAdjust="spacingAndGlyphs" textLength="69" x="443" y="235.7783">send(int): void</text><ellipse cx="434" cy="245.1953" fill="#84BE84" rx="3" ry="3" style="stroke: #038048; stroke-width: 1.0;"/><text fill="#000000" font-family="sans-serif" font-size="11" lengthAdjust="spacingAndGlyphs" textLength="86" x="443" y="249.6143">send(String): void</text><ellipse cx="434" cy="259.0313" fill="#84BE84" rx="3" ry="3" style="stroke: #038048; stroke-width: 1.0;"/><text fill="#000000" font-family="sans-serif" font-size="11" lengthAdjust="spacingAndGlyphs" textLength="96" x="443" y="263.4502">send(boolean): void</text><ellipse cx="434" cy="272.8672" fill="#84BE84" rx="3" ry="3" style="stroke: #038048; stroke-width: 1.0;"/><text fill="#000000" font-family="sans-serif" font-size="11" lengthAdjust="spacingAndGlyphs" textLength="80" x="443" y="277.2861">send(char): void</text><ellipse cx="434" cy="286.7031" fill="#84BE84" rx="3" ry="3" style="stroke: #038048; stroke-width: 1.0;"/><text fill="#000000" font-family="sans-serif" font-size="11" lengthAdjust="spacingAndGlyphs" textLength="127" x="443" y="291.1221">receiveBoolean(): boolean</text><ellipse cx="434" cy="300.5391" fill="#84BE84" rx="3" ry="3" style="stroke: #038048; stroke-width: 1.0;"/><text fill="#000000" font-family="sans-serif" font-size="11" lengthAdjust="spacingAndGlyphs" textLength="72" x="443" y="304.958">receiveInt(): int</text><ellipse cx="434" cy="314.375" fill="#84BE84" rx="3" ry="3" style="stroke: #038048; stroke-width: 1.0;"/><text fill="#000000" font-family="sans-serif" font-size="11" lengthAdjust="spacingAndGlyphs" textLength="95" x="443" y="318.7939">receiveChar(): char</text><ellipse cx="434" cy="328.2109" fill="#84BE84" rx="3" ry="3" style="stroke: #038048; stroke-width: 1.0;"/><text fill="#000000" font-family="sans-serif" font-size="11" lengthAdjust="spacingAndGlyphs" textLength="98" x="443" y="332.6299">receiveLine(): String</text><!--MD5=[06343bf850d7d7a24456cd327e63b99b]
class java.io.BufferedReader--><rect fill="#FEFECE" filter="url(#f1jfmneclynevo)" height="48" id="java.io.BufferedReader" style="stroke: #A80036; stroke-width: 1.5;" width="119" x="950.5" y="693.5"/><ellipse cx="965.5" cy="709.5" fill="#ADD1B2" rx="11" ry="11" style="stroke: #A80036; stroke-width: 1.0;"/><path d="M968.2656,705.375 Q968.4219,705.1563 968.6094,705.0469 Q968.7969,704.9375 969.0156,704.9375 Q969.3906,704.9375 969.625,705.2031 Q969.8594,705.4531 969.8594,706.0625 L969.8594,707.5156 Q969.8594,708.125 969.625,708.3906 Q969.3906,708.6563 969.0156,708.6563 Q968.6719,708.6563 968.4688,708.4531 Q968.2656,708.2656 968.1563,707.75 Q968.1094,707.3906 967.9219,707.2031 Q967.5938,706.8281 966.9844,706.6094 Q966.375,706.3906 965.75,706.3906 Q964.9844,706.3906 964.3438,706.7188 Q963.7188,707.0469 963.2188,707.7969 Q962.7344,708.5469 962.7344,709.5781 L962.7344,710.6719 Q962.7344,711.9063 963.625,712.7344 Q964.5156,713.5469 966.1094,713.5469 Q967.0469,713.5469 967.7031,713.2969 Q968.0938,713.1406 968.5156,712.7031 Q968.7813,712.4375 968.9219,712.3594 Q969.0781,712.2813 969.2813,712.2813 Q969.6094,712.2813 969.8594,712.5469 Q970.125,712.7969 970.125,713.1406 Q970.125,713.4844 969.7813,713.8906 Q969.2813,714.4688 968.4844,714.7969 Q967.4063,715.25 966.1094,715.25 Q964.5938,715.25 963.3906,714.625 Q962.4063,714.125 961.7188,713.0625 Q961.0313,711.9844 961.0313,710.7031 L961.0313,709.5469 Q961.0313,708.2188 961.6406,707.0781 Q962.2656,705.9219 963.3594,705.3125 Q964.4531,704.6875 965.6875,704.6875 Q966.4219,704.6875 967.0625,704.8594 Q967.7188,705.0156 968.2656,705.375 Z "/><text fill="#000000" font-family="sans-serif" font-size="12" lengthAdjust="spacingAndGlyphs" textLength="87" x="979.5" y="714.4102">BufferedReader</text><line style="stroke: #A80036; stroke-width: 1.5;" x1="951.5" x2="1068.5" y1="725.5" y2="725.5"/><line style="stroke: #A80036; stroke-width: 1.5;" x1="951.5" x2="1068.5" y1="733.5" y2="733.5"/><!--MD5=[e61417e1c56db1382337fcf0821547ce]
class java.io.PrintWriter--><rect fill="#FEFECE" filter="url(#f1jfmneclynevo)" height="48" id="java.io.PrintWriter" style="stroke: #A80036; stroke-width: 1.5;" width="89" x="1104.5" y="693.5"/><ellipse cx="1119.5" cy="709.5" fill="#ADD1B2" rx="11" ry="11" style="stroke: #A80036; stroke-width: 1.0;"/><path d="M1122.2656,705.375 Q1122.4219,705.1563 1122.6094,705.0469 Q1122.7969,704.9375 1123.0156,704.9375 Q1123.3906,704.9375 1123.625,705.2031 Q1123.8594,705.4531 1123.8594,706.0625 L1123.8594,707.5156 Q1123.8594,708.125 1123.625,708.3906 Q1123.3906,708.6563 1123.0156,708.6563 Q1122.6719,708.6563 1122.4688,708.4531 Q1122.2656,708.2656 1122.1563,707.75 Q1122.1094,707.3906 1121.9219,707.2031 Q1121.5938,706.8281 1120.9844,706.6094 Q1120.375,706.3906 1119.75,706.3906 Q1118.9844,706.3906 1118.3438,706.7188 Q1117.7188,707.0469 1117.2188,707.7969 Q1116.7344,708.5469 1116.7344,709.5781 L1116.7344,710.6719 Q1116.7344,711.9063 1117.625,712.7344 Q1118.5156,713.5469 1120.1094,713.5469 Q1121.0469,713.5469 1121.7031,713.2969 Q1122.0938,713.1406 1122.5156,712.7031 Q1122.7813,712.4375 1122.9219,712.3594 Q1123.0781,712.2813 1123.2813,712.2813 Q1123.6094,712.2813 1123.8594,712.5469 Q1124.125,712.7969 1124.125,713.1406 Q1124.125,713.4844 1123.7813,713.8906 Q1123.2813,714.4688 1122.4844,714.7969 Q1121.4063,715.25 1120.1094,715.25 Q1118.5938,715.25 1117.3906,714.625 Q1116.4063,714.125 1115.7188,713.0625 Q1115.0313,711.9844 1115.0313,710.7031 L1115.0313,709.5469 Q1115.0313,708.2188 1115.6406,707.0781 Q1116.2656,705.9219 1117.3594,705.3125 Q1118.4531,704.6875 1119.6875,704.6875 Q1120.4219,704.6875 1121.0625,704.8594 Q1121.7188,705.0156 1122.2656,705.375 Z "/><text fill="#000000" font-family="sans-serif" font-size="12" lengthAdjust="spacingAndGlyphs" textLength="57" x="1133.5" y="714.4102">PrintWriter</text><line style="stroke: #A80036; stroke-width: 1.5;" x1="1105.5" x2="1192.5" y1="725.5" y2="725.5"/><line style="stroke: #A80036; stroke-width: 1.5;" x1="1105.5" x2="1192.5" y1="733.5" y2="733.5"/><!--MD5=[f9f3829e644b8e7f7e69c821ea57052a]
class java.net.ServerSocket--><rect fill="#FEFECE" filter="url(#f1jfmneclynevo)" height="48" id="java.net.ServerSocket" style="stroke: #A80036; stroke-width: 1.5;" width="104" x="1094" y="475"/><ellipse cx="1109" cy="491" fill="#ADD1B2" rx="11" ry="11" style="stroke: #A80036; stroke-width: 1.0;"/><path d="M1111.7656,486.875 Q1111.9219,486.6563 1112.1094,486.5469 Q1112.2969,486.4375 1112.5156,486.4375 Q1112.8906,486.4375 1113.125,486.7031 Q1113.3594,486.9531 1113.3594,487.5625 L1113.3594,489.0156 Q1113.3594,489.625 1113.125,489.8906 Q1112.8906,490.1563 1112.5156,490.1563 Q1112.1719,490.1563 1111.9688,489.9531 Q1111.7656,489.7656 1111.6563,489.25 Q1111.6094,488.8906 1111.4219,488.7031 Q1111.0938,488.3281 1110.4844,488.1094 Q1109.875,487.8906 1109.25,487.8906 Q1108.4844,487.8906 1107.8438,488.2188 Q1107.2188,488.5469 1106.7188,489.2969 Q1106.2344,490.0469 1106.2344,491.0781 L1106.2344,492.1719 Q1106.2344,493.4063 1107.125,494.2344 Q1108.0156,495.0469 1109.6094,495.0469 Q1110.5469,495.0469 1111.2031,494.7969 Q1111.5938,494.6406 1112.0156,494.2031 Q1112.2813,493.9375 1112.4219,493.8594 Q1112.5781,493.7813 1112.7813,493.7813 Q1113.1094,493.7813 1113.3594,494.0469 Q1113.625,494.2969 1113.625,494.6406 Q1113.625,494.9844 1113.2813,495.3906 Q1112.7813,495.9688 1111.9844,496.2969 Q1110.9063,496.75 1109.6094,496.75 Q1108.0938,496.75 1106.8906,496.125 Q1105.9063,495.625 1105.2188,494.5625 Q1104.5313,493.4844 1104.5313,492.2031 L1104.5313,491.0469 Q1104.5313,489.7188 1105.1406,488.5781 Q1105.7656,487.4219 1106.8594,486.8125 Q1107.9531,486.1875 1109.1875,486.1875 Q1109.9219,486.1875 1110.5625,486.3594 Q1111.2188,486.5156 1111.7656,486.875 Z "/><text fill="#000000" font-family="sans-serif" font-size="12" lengthAdjust="spacingAndGlyphs" textLength="72" x="1123" y="495.9102">ServerSocket</text><line style="stroke: #A80036; stroke-width: 1.5;" x1="1095" x2="1197" y1="507" y2="507"/><line style="stroke: #A80036; stroke-width: 1.5;" x1="1095" x2="1197" y1="515" y2="515"/><!--MD5=[f187cbe17991579a55cdca54c27fd42b]
class java.net.Socket--><rect fill="#FEFECE" filter="url(#f1jfmneclynevo)" height="48" id="java.net.Socket" style="stroke: #A80036; stroke-width: 1.5;" width="69" x="989.5" y="475"/><ellipse cx="1004.5" cy="491" fill="#ADD1B2" rx="11" ry="11" style="stroke: #A80036; stroke-width: 1.0;"/><path d="M1007.2656,486.875 Q1007.4219,486.6563 1007.6094,486.5469 Q1007.7969,486.4375 1008.0156,486.4375 Q1008.3906,486.4375 1008.625,486.7031 Q1008.8594,486.9531 1008.8594,487.5625 L1008.8594,489.0156 Q1008.8594,489.625 1008.625,489.8906 Q1008.3906,490.1563 1008.0156,490.1563 Q1007.6719,490.1563 1007.4688,489.9531 Q1007.2656,489.7656 1007.1563,489.25 Q1007.1094,488.8906 1006.9219,488.7031 Q1006.5938,488.3281 1005.9844,488.1094 Q1005.375,487.8906 1004.75,487.8906 Q1003.9844,487.8906 1003.3438,488.2188 Q1002.7188,488.5469 1002.2188,489.2969 Q1001.7344,490.0469 1001.7344,491.0781 L1001.7344,492.1719 Q1001.7344,493.4063 1002.625,494.2344 Q1003.5156,495.0469 1005.1094,495.0469 Q1006.0469,495.0469 1006.7031,494.7969 Q1007.0938,494.6406 1007.5156,494.2031 Q1007.7813,493.9375 1007.9219,493.8594 Q1008.0781,493.7813 1008.2813,493.7813 Q1008.6094,493.7813 1008.8594,494.0469 Q1009.125,494.2969 1009.125,494.6406 Q1009.125,494.9844 1008.7813,495.3906 Q1008.2813,495.9688 1007.4844,496.2969 Q1006.4063,496.75 1005.1094,496.75 Q1003.5938,496.75 1002.3906,496.125 Q1001.4063,495.625 1000.7188,494.5625 Q1000.0313,493.4844 1000.0313,492.2031 L1000.0313,491.0469 Q1000.0313,489.7188 1000.6406,488.5781 Q1001.2656,487.4219 1002.3594,486.8125 Q1003.4531,486.1875 1004.6875,486.1875 Q1005.4219,486.1875 1006.0625,486.3594 Q1006.7188,486.5156 1007.2656,486.875 Z "/><text fill="#000000" font-family="sans-serif" font-size="12" lengthAdjust="spacingAndGlyphs" textLength="37" x="1018.5" y="495.9102">Socket</text><line style="stroke: #A80036; stroke-width: 1.5;" x1="990.5" x2="1057.5" y1="507" y2="507"/><line style="stroke: #A80036; stroke-width: 1.5;" x1="990.5" x2="1057.5" y1="515" y2="515"/><!--MD5=[841dd20c7e4001a875f8fa7e967f7b35]
class mastermind.utils.TCPIP--><rect fill="#FEFECE" filter="url(#f1jfmneclynevo)" height="48" id="mastermind.utils.TCPIP" style="stroke: #A80036; stroke-width: 1.5;" width="67" x="1254.5" y="475"/><ellipse cx="1269.5" cy="491" fill="#ADD1B2" rx="11" ry="11" style="stroke: #A80036; stroke-width: 1.0;"/><path d="M1272.2656,486.875 Q1272.4219,486.6563 1272.6094,486.5469 Q1272.7969,486.4375 1273.0156,486.4375 Q1273.3906,486.4375 1273.625,486.7031 Q1273.8594,486.9531 1273.8594,487.5625 L1273.8594,489.0156 Q1273.8594,489.625 1273.625,489.8906 Q1273.3906,490.1563 1273.0156,490.1563 Q1272.6719,490.1563 1272.4688,489.9531 Q1272.2656,489.7656 1272.1563,489.25 Q1272.1094,488.8906 1271.9219,488.7031 Q1271.5938,488.3281 1270.9844,488.1094 Q1270.375,487.8906 1269.75,487.8906 Q1268.9844,487.8906 1268.3438,488.2188 Q1267.7188,488.5469 1267.2188,489.2969 Q1266.7344,490.0469 1266.7344,491.0781 L1266.7344,492.1719 Q1266.7344,493.4063 1267.625,494.2344 Q1268.5156,495.0469 1270.1094,495.0469 Q1271.0469,495.0469 1271.7031,494.7969 Q1272.0938,494.6406 1272.5156,494.2031 Q1272.7813,493.9375 1272.9219,493.8594 Q1273.0781,493.7813 1273.2813,493.7813 Q1273.6094,493.7813 1273.8594,494.0469 Q1274.125,494.2969 1274.125,494.6406 Q1274.125,494.9844 1273.7813,495.3906 Q1273.2813,495.9688 1272.4844,496.2969 Q1271.4063,496.75 1270.1094,496.75 Q1268.5938,496.75 1267.3906,496.125 Q1266.4063,495.625 1265.7188,494.5625 Q1265.0313,493.4844 1265.0313,492.2031 L1265.0313,491.0469 Q1265.0313,489.7188 1265.6406,488.5781 Q1266.2656,487.4219 1267.3594,486.8125 Q1268.4531,486.1875 1269.6875,486.1875 Q1270.4219,486.1875 1271.0625,486.3594 Q1271.7188,486.5156 1272.2656,486.875 Z "/><text fill="#000000" font-family="sans-serif" font-size="12" lengthAdjust="spacingAndGlyphs" textLength="35" x="1283.5" y="495.9102">TCPIP</text><line style="stroke: #A80036; stroke-width: 1.5;" x1="1255.5" x2="1320.5" y1="507" y2="507"/><line style="stroke: #A80036; stroke-width: 1.5;" x1="1255.5" x2="1320.5" y1="515" y2="515"/><!--MD5=[7c8458d5d287153e1d8ff3fd0b2bab15]
reverse link utils.WithConsoleView to utils.Command--><path d="M348.455,247.214 C365.95,288.264 387.945,345.946 399,399 C417.614,488.333 420.114,594.631 419.547,658.77 " fill="none" id="utils.WithConsoleView&lt;-utils.Command" style="stroke: #A80036; stroke-width: 1.0;"/><polygon fill="none" points="341.99,249.901,340.419,228.769,354.825,244.309,341.99,249.901" style="stroke: #A80036; stroke-width: 1.0;"/><!--MD5=[dea1a6a5eb2726644cb5ba3fdbe3e8f5]
link utils.Console to java.io.BufferedReader--><path d="M820.9646,585.1971 C820.9646,585.1971 833.37,594.774 839,599 C861.875,616.17 922.175,657.255 964.664,685.976 " fill="none" id="utils.Console-java.io.BufferedReader" style="stroke: #A80036; stroke-width: 1.0;"/><polygon fill="#A80036" points="975.589,693.353,970.3689,685.0013,971.4453,690.5548,965.8918,691.6312,975.589,693.353" style="stroke: #A80036; stroke-width: 1.0;"/><line style="stroke: #A80036; stroke-width: 1.0;" x1="971.4453" x2="964.8155" y1="690.5548" y2="686.078"/><polygon fill="#A80036" points="811.518,577.797,813.7746,584.6459,820.9646,585.1971,818.708,578.3482,811.518,577.797" style="stroke: #A80036; stroke-width: 1.0;"/><!--MD5=[7a93099a4dadc944cf6faf031ca4e2bf]
link utils.Coordinate to utils.Direction--><path d="M115.715,290.588 C109.485,340.841 102.149,400.009 96.9104,442.262 " fill="none" id="utils.Coordinate-&gt;utils.Direction" style="stroke: #A80036; stroke-width: 1.0; stroke-dasharray: 7.0,7.0;"/><polygon fill="#A80036" points="96.2822,447.329,101.36,438.8901,96.8979,442.3671,93.4209,437.9049,96.2822,447.329" style="stroke: #A80036; stroke-width: 1.0;"/><!--MD5=[ba703005c14be8bedda969cb3aaae61e]
reverse link utils.WithConsoleView to utils.Menu--><path d="M315.356,248.641 C308.037,303.359 297.051,385.487 289.709,440.368 " fill="none" id="utils.WithConsoleView&lt;-utils.Menu" style="stroke: #A80036; stroke-width: 1.0;"/><polygon fill="none" points="308.424,247.672,318.014,228.776,322.3,249.528,308.424,247.672" style="stroke: #A80036; stroke-width: 1.0;"/><!--MD5=[bac3cba470fbad32067011aa33c731a4]
link utils.Menu to utils.Command--><path d="M324.6495,567.8959 C324.6495,567.8959 358.971,622.532 374.746,647.643 " fill="none" id="utils.Menu-utils.Command" style="stroke: #A80036; stroke-width: 1.0;"/><polygon fill="#A80036" points="381.834,658.927,380.4344,649.1781,379.1746,654.6929,373.6598,653.4331,381.834,658.927" style="stroke: #A80036; stroke-width: 1.0;"/><line style="stroke: #A80036; stroke-width: 1.0;" x1="379.1746" x2="374.919" y1="654.6929" y2="647.919"/><polygon fill="#A80036" points="318.267,557.734,318.071,564.9424,324.6495,567.8959,324.8455,560.6874,318.267,557.734" style="stroke: #A80036; stroke-width: 1.0;"/><!--MD5=[c312900921f22bb867473432cdd7049a]
link utils.Menu to utils.CloseInterval--><path d="M279.067,557.734 C276.922,599.944 274.106,655.364 272.432,688.322 " fill="none" id="utils.Menu-&gt;utils.CloseInterval" style="stroke: #A80036; stroke-width: 1.0; stroke-dasharray: 7.0,7.0;"/><polygon fill="#A80036" points="272.173,693.414,276.6255,684.629,272.4272,688.4205,268.6358,684.2222,272.173,693.414" style="stroke: #A80036; stroke-width: 1.0;"/><!--MD5=[a811d1bc5220b24febe296f2ebb8ff56]
reverse link utils.WithConsoleView to utils.PlayersDialog--><path d="M351.442,246.528 C366.531,274.685 385.87,309.213 405,339 C432.687,382.112 467.938,429.096 492.476,460.726 " fill="none" id="utils.WithConsoleView&lt;-utils.PlayersDialog" style="stroke: #A80036; stroke-width: 1.0;"/><polygon fill="none" points="345.134,249.575,341.958,228.624,357.506,243.021,345.134,249.575" style="stroke: #A80036; stroke-width: 1.0;"/><!--MD5=[d5a493f7c3c24598df3388c5b1b1857c]
link utils.TCPIP to java.net.ServerSocket--><path d="M739.7974,335.8963 C739.7974,335.8963 744.238,338.155 746,339 C880.408,403.472 950.304,318.858 1076,399 C1100,414.302 1118.18,441.058 1129.98,462.9 " fill="none" id="utils.TCPIP-java.net.ServerSocket" style="stroke: #A80036; stroke-width: 1.0;"/><polygon fill="#A80036" points="1136.04,474.746,1135.5029,464.9118,1133.7631,470.2945,1128.3804,468.5548,1136.04,474.746" style="stroke: #A80036; stroke-width: 1.0;"/><line style="stroke: #A80036; stroke-width: 1.0;" x1="1133.7631" x2="1130.12" y1="470.2945" y2="463.1715"/><polygon fill="#A80036" points="729.228,330.214,732.6186,336.5783,739.7974,335.8963,736.4068,329.532,729.228,330.214" style="stroke: #A80036; stroke-width: 1.0;"/><!--MD5=[67626a64a166e2911fe80fc587fa2ebb]
link utils.TCPIP to java.io.PrintWriter--><path d="M739.0664,334.6562 C739.0664,334.6562 744.05,337.811 746,339 C807.304,376.382 845.559,347.899 896,399 C962.912,466.788 907.336,530.003 973,599 C1011.2,639.142 1041.92,617.276 1087,649.5 C1100.26,658.98 1112.88,671.659 1123.22,683.436 " fill="none" id="utils.TCPIP-java.io.PrintWriter" style="stroke: #A80036; stroke-width: 1.0;"/><polygon fill="#A80036" points="1131.69,693.45,1128.9346,683.9944,1128.4621,689.6315,1122.8251,689.159,1131.69,693.45" style="stroke: #A80036; stroke-width: 1.0;"/><line style="stroke: #A80036; stroke-width: 1.0;" x1="1128.4621" x2="1123.295" y1="689.6315" y2="683.5235"/><polygon fill="#A80036" points="729.021,328.092,731.8556,334.7226,739.0664,334.6562,736.2318,328.0256,729.021,328.092" style="stroke: #A80036; stroke-width: 1.0;"/><!--MD5=[634f61b11763d51c07f48b87621966a9]
link utils.TCPIP to java.net.Socket--><path d="M739.3955,335.3259 C739.3955,335.3259 744.136,337.999 746,339 C833.78,386.137 882.15,339.409 962,399 C983.738,415.223 999.685,441.518 1009.96,462.932 " fill="none" id="utils.TCPIP-java.net.Socket" style="stroke: #A80036; stroke-width: 1.0;"/><polygon fill="#A80036" points="1015.35,474.863,1015.2861,465.0143,1013.2897,470.3072,1007.9969,468.3108,1015.35,474.863" style="stroke: #A80036; stroke-width: 1.0;"/><line style="stroke: #A80036; stroke-width: 1.0;" x1="1013.2897" x2="1009.995" y1="470.3072" y2="463.0175"/><polygon fill="#A80036" points="729.058,329.232,732.1955,335.7248,739.3955,335.3259,736.2581,328.8331,729.058,329.232" style="stroke: #A80036; stroke-width: 1.0;"/><!--MD5=[f143d6b40338063c9b46470e66a09947]
link utils.TCPIP to java.io.BufferedReader--><path d="M738.6401,333.1263 C738.6401,333.1263 743.847,337.293 746,339 C781.67,367.276 800.918,363.177 829,399 C888.165,474.477 860.286,516.989 910,599 C928.785,629.989 955.642,661.038 976.793,683.43 " fill="none" id="utils.TCPIP-java.io.BufferedReader" style="stroke: #A80036; stroke-width: 1.0;"/><polygon fill="#A80036" points="986.061,693.078,982.7105,683.8166,982.5971,689.4723,976.9413,689.3589,986.061,693.078" style="stroke: #A80036; stroke-width: 1.0;"/><line style="stroke: #A80036; stroke-width: 1.0;" x1="982.5971" x2="977.055" y1="689.4723" y2="683.702"/><polygon fill="#A80036" points="729.305,325.586,731.4591,332.4679,738.6401,333.1263,736.486,326.2445,729.305,325.586" style="stroke: #A80036; stroke-width: 1.0;"/><!--MD5=[5f25fdf29bcf345c096dbe00865ea77f]
link utils.TCPIP to mastermind.utils.TCPIP--><path d="M729.046,330.605 C734.638,333.632 740.294,336.445 746,339 C937.385,424.715 1032.88,293.312 1214,399 C1242.15,415.425 1262.94,447.205 1275.2,470.341 " fill="none" id="utils.TCPIP-&gt;mastermind.utils.TCPIP" style="stroke: #A80036; stroke-width: 1.0; stroke-dasharray: 7.0,7.0;"/><polygon fill="#A80036" points="1277.54,474.845,1276.9496,465.0139,1275.2391,470.4059,1269.8471,468.6953,1277.54,474.845" style="stroke: #A80036; stroke-width: 1.0;"/><!--MD5=[da832c9da4ef95f5f2858fb2fdd7fbea]
link utils.WithConsoleView to utils.Console--><path d="M338.8684,239.8675 C338.8684,239.8675 373.626,313.833 405,339 C478.054,397.603 525.196,353.401 607,399 C609.107,400.175 611.209,401.396 613.302,402.658 " fill="none" id="utils.WithConsoleView-utils.Console" style="stroke: #A80036; stroke-width: 1.0;"/><polygon fill="#A80036" points="624.403,409.772,618.9841,401.5479,620.1934,407.074,614.6673,408.2833,624.403,409.772" style="stroke: #A80036; stroke-width: 1.0;"/><line style="stroke: #A80036; stroke-width: 1.0;" x1="620.1934" x2="613.458" y1="407.074" y2="402.7575"/><polygon fill="#A80036" points="334.559,228.668,332.9805,235.7042,338.8684,239.8675,340.4469,232.8313,334.559,228.668" style="stroke: #A80036; stroke-width: 1.0;"/><!--MD5=[d9379ca19fbfe40db92c8787c48d3bf5]
@startuml

class  utils.ClosedInterval{
- max: int
- min: int
+ ClosedInterval(int, int)
+ includes(int): boolean
}

class  utils.Command{
# title: String
# Command(String)
# {abstract} execute(): void
# {abstract} isActive(): boolean
~ getTitle(): String
}
utils.WithConsoleView <|-down- utils.Command

class  utils.Console{
- bufferedReader: BufferedReader
+ Console()
+ write(char): void
+ write(String): void
+ readInt(String): int
+ readChar(String): char
+ readString(String): String
+ writeln(int): void
+ writeln(String): void
+ writeln(): void
+ writeError(String): void
}
utils.Console *-down-> java.io.BufferedReader

class  utils.Coordinate{
# row: int
# column: int
# Coordinate()
# Coordinate(int, int)
# getDirection(Coordinate): Direction
- inMainDiagonal(): boolean
- inVertical(Coordinate): boolean
- inHorizontal(Coordinate): boolean
+ getRow(): int
+ getColumn(): int
+ equals(Coordinate): boolean
}
utils.Coordinate ..> utils.Direction

enum  utils.Direction{
  VERTICAL
  HORIZONTAL
  MAIN_DIAGONAL
  INVERSE_DIAGONAL
}

class  utils.Menu{
- {static} OPTION: String
- commandList: ArrayList<Command>
+ Menu()
+ execute(): void
# addCommand(Command): void
}
utils.WithConsoleView <|-down- utils.Menu
utils.Menu *-down-> utils.Command
utils.Menu ..> utils.CloseInterval

class  utils.PlayersDialog{
- {static} USERS_ERROR: String
+ read(int): int
}
utils.WithConsoleView <|-down- utils.PlayersDialog

class  utils.TCPIP{
- serverSocket: ServerSocket
- socket: Socket
- out: PrintWriter
- in: BufferedReader
+ TCPIP(PrintWriter, Socket, BufferedReader)
+ TCPIP(ServerSocket, PrintWriter, BufferedReader, Socket)
+ close(): void
+ {static} createClientSocket(): TCPIP
+ {static} createServerSocket(): TCPIP
+ receiveInt(): int
+ send(int): void
+ send(String): void
+ send(boolean): void
+ send(char): void
+ receiveBoolean(): boolean
+ receiveInt(): int
+ receiveChar(): char
+ receiveLine(): String
}
utils.TCPIP *-down-> java.net.ServerSocket
utils.TCPIP *-down-> java.io.PrintWriter
utils.TCPIP *-down-> java.net.Socket
utils.TCPIP *-down-> java.io.BufferedReader
utils.TCPIP ..> mastermind.utils.TCPIP

class  utils.WithConsoleView{
# console: Console
# WithConsoleView()
}
utils.WithConsoleView *-down-> utils.Console

@enduml

PlantUML version 1.2020.15(Sun Jun 28 13:39:45 CEST 2020)
(GPL source distribution)
Java Runtime: Java(TM) SE Runtime Environment
JVM: Java HotSpot(TM) 64-Bit Server VM
Default Encoding: windows-1252
Language: es
Country: ES
--></g></svg>