<?xml version="1.0" encoding="UTF-8" standalone="no"?><svg xmlns="http://www.w3.org/2000/svg" xmlns:xlink="http://www.w3.org/1999/xlink" contentScriptType="application/ecmascript" contentStyleType="text/css" height="804px" preserveAspectRatio="none" style="width:1584px;height:804px;" version="1.1" viewBox="0 0 1584 804" width="1584px" zoomAndPan="magnify"><defs><filter height="300%" id="fmwdj29blhz2p" width="300%" x="-1" y="-1"><feGaussianBlur result="blurOut" stdDeviation="2.0"/><feColorMatrix in="blurOut" result="blurOut2" type="matrix" values="0 0 0 0 0 0 0 0 0 0 0 0 0 0 0 0 0 0 .4 0"/><feOffset dx="4.0" dy="4.0" in="blurOut2" result="blurOut3"/><feBlend in="SourceGraphic" in2="blurOut3" mode="normal"/></filter></defs><g><!--MD5=[c52f45833d539af9e29a9d34b8b7302b]
cluster utils--><polygon fill="#FFFFFF" filter="url(#fmwdj29blhz2p)" points="16,6,52,6,59,29.6094,1020,29.6094,1020,792,16,792,16,6" style="stroke: #000000; stroke-width: 1.5;"/><line style="stroke: #000000; stroke-width: 1.5;" x1="16" x2="59" y1="29.6094" y2="29.6094"/><text fill="#000000" font-family="sans-serif" font-size="14" font-weight="bold" lengthAdjust="spacingAndGlyphs" textLength="30" x="20" y="22.5332">utils</text><!--MD5=[0d852700fdad35b7061d461d6907a324]
cluster java.io--><polygon fill="#FFFFFF" filter="url(#fmwdj29blhz2p)" points="1044,657.5,1096,657.5,1103,681.1094,1320,681.1094,1320,757.5,1044,757.5,1044,657.5" style="stroke: #000000; stroke-width: 1.5;"/><line style="stroke: #000000; stroke-width: 1.5;" x1="1044" x2="1103" y1="681.1094" y2="681.1094"/><text fill="#000000" font-family="sans-serif" font-size="14" font-weight="bold" lengthAdjust="spacingAndGlyphs" textLength="46" x="1048" y="674.0332">java.io</text><!--MD5=[ed2e990bb8b1341b3aaedff98fe17cdd]
cluster java.net--><polygon fill="#FFFFFF" filter="url(#fmwdj29blhz2p)" points="1165,439,1227,439,1234,462.6094,1406,462.6094,1406,539,1165,539,1165,439" style="stroke: #000000; stroke-width: 1.5;"/><line style="stroke: #000000; stroke-width: 1.5;" x1="1165" x2="1234" y1="462.6094" y2="462.6094"/><text fill="#000000" font-family="sans-serif" font-size="14" font-weight="bold" lengthAdjust="spacingAndGlyphs" textLength="56" x="1169" y="455.5332">java.net</text><!--MD5=[f2bedc297083edee028363469990e0f1]
cluster mastermind.utils--><polygon fill="#FFFFFF" filter="url(#fmwdj29blhz2p)" points="1430,439,1552,439,1559,462.6094,1562,462.6094,1562,539,1430,539,1430,439" style="stroke: #000000; stroke-width: 1.5;"/><line style="stroke: #000000; stroke-width: 1.5;" x1="1430" x2="1559" y1="462.6094" y2="462.6094"/><text fill="#000000" font-family="sans-serif" font-size="14" font-weight="bold" lengthAdjust="spacingAndGlyphs" textLength="116" x="1434" y="455.5332">mastermind.utils</text><!--MD5=[1c2e2afe87d69baa60dd94a73d0524e3]
class utils.ClosedInterval--><rect fill="#FEFECE" filter="url(#fmwdj29blhz2p)" height="103.3438" id="utils.ClosedInterval" style="stroke: #A80036; stroke-width: 1.5;" width="130" x="874" y="139"/><ellipse cx="897.55" cy="155" fill="#ADD1B2" rx="11" ry="11" style="stroke: #A80036; stroke-width: 1.0;"/><path d="M900.3156,150.875 Q900.4719,150.6563 900.6594,150.5469 Q900.8469,150.4375 901.0656,150.4375 Q901.4406,150.4375 901.675,150.7031 Q901.9094,150.9531 901.9094,151.5625 L901.9094,153.0156 Q901.9094,153.625 901.675,153.8906 Q901.4406,154.1563 901.0656,154.1563 Q900.7219,154.1563 900.5188,153.9531 Q900.3156,153.7656 900.2063,153.25 Q900.1594,152.8906 899.9719,152.7031 Q899.6438,152.3281 899.0344,152.1094 Q898.425,151.8906 897.8,151.8906 Q897.0344,151.8906 896.3938,152.2188 Q895.7688,152.5469 895.2688,153.2969 Q894.7844,154.0469 894.7844,155.0781 L894.7844,156.1719 Q894.7844,157.4063 895.675,158.2344 Q896.5656,159.0469 898.1594,159.0469 Q899.0969,159.0469 899.7531,158.7969 Q900.1438,158.6406 900.5656,158.2031 Q900.8313,157.9375 900.9719,157.8594 Q901.1281,157.7813 901.3313,157.7813 Q901.6594,157.7813 901.9094,158.0469 Q902.175,158.2969 902.175,158.6406 Q902.175,158.9844 901.8313,159.3906 Q901.3313,159.9688 900.5344,160.2969 Q899.4563,160.75 898.1594,160.75 Q896.6438,160.75 895.4406,160.125 Q894.4563,159.625 893.7688,158.5625 Q893.0813,157.4844 893.0813,156.2031 L893.0813,155.0469 Q893.0813,153.7188 893.6906,152.5781 Q894.3156,151.4219 895.4094,150.8125 Q896.5031,150.1875 897.7375,150.1875 Q898.4719,150.1875 899.1125,150.3594 Q899.7688,150.5156 900.3156,150.875 Z "/><text fill="#000000" font-family="sans-serif" font-size="12" lengthAdjust="spacingAndGlyphs" textLength="79" x="913.45" y="159.9102">ClosedInterval</text><line style="stroke: #A80036; stroke-width: 1.5;" x1="875" x2="1003" y1="171" y2="171"/><rect fill="none" height="6" style="stroke: #C82930; stroke-width: 1.0;" width="6" x="882" y="179"/><text fill="#000000" font-family="sans-serif" font-size="11" lengthAdjust="spacingAndGlyphs" textLength="37" x="894" y="186.4189">max: int</text><rect fill="none" height="6" style="stroke: #C82930; stroke-width: 1.0;" width="6" x="882" y="192.8359"/><text fill="#000000" font-family="sans-serif" font-size="11" lengthAdjust="spacingAndGlyphs" textLength="33" x="894" y="200.2549">min: int</text><line style="stroke: #A80036; stroke-width: 1.5;" x1="875" x2="1003" y1="206.6719" y2="206.6719"/><ellipse cx="885" cy="217.6719" fill="#84BE84" rx="3" ry="3" style="stroke: #038048; stroke-width: 1.0;"/><text fill="#000000" font-family="sans-serif" font-size="11" lengthAdjust="spacingAndGlyphs" textLength="104" x="894" y="222.0908">ClosedInterval(int, int)</text><ellipse cx="885" cy="231.5078" fill="#84BE84" rx="3" ry="3" style="stroke: #038048; stroke-width: 1.0;"/><text fill="#000000" font-family="sans-serif" font-size="11" lengthAdjust="spacingAndGlyphs" textLength="103" x="894" y="235.9268">includes(int): boolean</text><!--MD5=[8356458262f68e05fc628f2b3e46c9c1]
class utils.Command--><rect fill="#FEFECE" filter="url(#fmwdj29blhz2p)" height="117.1797" id="utils.Command" style="stroke: #A80036; stroke-width: 1.5;" width="119" x="358.5" y="659"/><ellipse cx="386.1" cy="675" fill="#ADD1B2" rx="11" ry="11" style="stroke: #A80036; stroke-width: 1.0;"/><path d="M388.8656,670.875 Q389.0219,670.6563 389.2094,670.5469 Q389.3969,670.4375 389.6156,670.4375 Q389.9906,670.4375 390.225,670.7031 Q390.4594,670.9531 390.4594,671.5625 L390.4594,673.0156 Q390.4594,673.625 390.225,673.8906 Q389.9906,674.1563 389.6156,674.1563 Q389.2719,674.1563 389.0688,673.9531 Q388.8656,673.7656 388.7563,673.25 Q388.7094,672.8906 388.5219,672.7031 Q388.1938,672.3281 387.5844,672.1094 Q386.975,671.8906 386.35,671.8906 Q385.5844,671.8906 384.9438,672.2188 Q384.3188,672.5469 383.8188,673.2969 Q383.3344,674.0469 383.3344,675.0781 L383.3344,676.1719 Q383.3344,677.4063 384.225,678.2344 Q385.1156,679.0469 386.7094,679.0469 Q387.6469,679.0469 388.3031,678.7969 Q388.6938,678.6406 389.1156,678.2031 Q389.3813,677.9375 389.5219,677.8594 Q389.6781,677.7813 389.8813,677.7813 Q390.2094,677.7813 390.4594,678.0469 Q390.725,678.2969 390.725,678.6406 Q390.725,678.9844 390.3813,679.3906 Q389.8813,679.9688 389.0844,680.2969 Q388.0063,680.75 386.7094,680.75 Q385.1938,680.75 383.9906,680.125 Q383.0063,679.625 382.3188,678.5625 Q381.6313,677.4844 381.6313,676.2031 L381.6313,675.0469 Q381.6313,673.7188 382.2406,672.5781 Q382.8656,671.4219 383.9594,670.8125 Q385.0531,670.1875 386.2875,670.1875 Q387.0219,670.1875 387.6625,670.3594 Q388.3188,670.5156 388.8656,670.875 Z "/><text fill="#000000" font-family="sans-serif" font-size="12" lengthAdjust="spacingAndGlyphs" textLength="59" x="402.9" y="679.9102">Command</text><line style="stroke: #A80036; stroke-width: 1.5;" x1="359.5" x2="476.5" y1="691" y2="691"/><polygon fill="none" points="369.5,697,373.5,701,369.5,705,365.5,701" style="stroke: #B38D22; stroke-width: 1.0;"/><text fill="#000000" font-family="sans-serif" font-size="11" lengthAdjust="spacingAndGlyphs" textLength="50" x="378.5" y="706.4189">title: String</text><line style="stroke: #A80036; stroke-width: 1.5;" x1="359.5" x2="476.5" y1="712.8359" y2="712.8359"/><polygon fill="#FFFF44" points="369.5,718.8359,373.5,722.8359,369.5,726.8359,365.5,722.8359" style="stroke: #B38D22; stroke-width: 1.0;"/><text fill="#000000" font-family="sans-serif" font-size="11" lengthAdjust="spacingAndGlyphs" textLength="83" x="378.5" y="728.2549">Command(String)</text><polygon fill="#FFFF44" points="369.5,732.6719,373.5,736.6719,369.5,740.6719,365.5,736.6719" style="stroke: #B38D22; stroke-width: 1.0;"/><text fill="#000000" font-family="sans-serif" font-size="11" font-style="italic" lengthAdjust="spacingAndGlyphs" textLength="73" x="378.5" y="742.0908">execute(): void</text><polygon fill="#FFFF44" points="369.5,746.5078,373.5,750.5078,369.5,754.5078,365.5,750.5078" style="stroke: #B38D22; stroke-width: 1.0;"/><text fill="#000000" font-family="sans-serif" font-size="11" font-style="italic" lengthAdjust="spacingAndGlyphs" textLength="93" x="378.5" y="755.9268">isActive(): boolean</text><polygon fill="#4177AF" points="369.5,761.3438,365.5,767.3438,373.5,767.3438" style="stroke: #1963A0; stroke-width: 1.0;"/><text fill="#000000" font-family="sans-serif" font-size="11" lengthAdjust="spacingAndGlyphs" textLength="76" x="378.5" y="769.7627">getTitle(): String</text><!--MD5=[2dcb8e10b6e8b78f41f52f48677e1ea3]
class utils.WithConsoleView--><rect fill="#FEFECE" filter="url(#fmwdj29blhz2p)" height="75.6719" id="utils.WithConsoleView" style="stroke: #A80036; stroke-width: 1.5;" width="129" x="368.5" y="152.5"/><ellipse cx="383.5" cy="168.5" fill="#ADD1B2" rx="11" ry="11" style="stroke: #A80036; stroke-width: 1.0;"/><path d="M386.2656,164.375 Q386.4219,164.1563 386.6094,164.0469 Q386.7969,163.9375 387.0156,163.9375 Q387.3906,163.9375 387.625,164.2031 Q387.8594,164.4531 387.8594,165.0625 L387.8594,166.5156 Q387.8594,167.125 387.625,167.3906 Q387.3906,167.6563 387.0156,167.6563 Q386.6719,167.6563 386.4688,167.4531 Q386.2656,167.2656 386.1563,166.75 Q386.1094,166.3906 385.9219,166.2031 Q385.5938,165.8281 384.9844,165.6094 Q384.375,165.3906 383.75,165.3906 Q382.9844,165.3906 382.3438,165.7188 Q381.7188,166.0469 381.2188,166.7969 Q380.7344,167.5469 380.7344,168.5781 L380.7344,169.6719 Q380.7344,170.9063 381.625,171.7344 Q382.5156,172.5469 384.1094,172.5469 Q385.0469,172.5469 385.7031,172.2969 Q386.0938,172.1406 386.5156,171.7031 Q386.7813,171.4375 386.9219,171.3594 Q387.0781,171.2813 387.2813,171.2813 Q387.6094,171.2813 387.8594,171.5469 Q388.125,171.7969 388.125,172.1406 Q388.125,172.4844 387.7813,172.8906 Q387.2813,173.4688 386.4844,173.7969 Q385.4063,174.25 384.1094,174.25 Q382.5938,174.25 381.3906,173.625 Q380.4063,173.125 379.7188,172.0625 Q379.0313,170.9844 379.0313,169.7031 L379.0313,168.5469 Q379.0313,167.2188 379.6406,166.0781 Q380.2656,164.9219 381.3594,164.3125 Q382.4531,163.6875 383.6875,163.6875 Q384.4219,163.6875 385.0625,163.8594 Q385.7188,164.0156 386.2656,164.375 Z "/><text fill="#000000" font-family="sans-serif" font-size="12" lengthAdjust="spacingAndGlyphs" textLength="97" x="397.5" y="173.4102">WithConsoleView</text><line style="stroke: #A80036; stroke-width: 1.5;" x1="369.5" x2="496.5" y1="184.5" y2="184.5"/><polygon fill="none" points="379.5,190.5,383.5,194.5,379.5,198.5,375.5,194.5" style="stroke: #B38D22; stroke-width: 1.0;"/><text fill="#000000" font-family="sans-serif" font-size="11" lengthAdjust="spacingAndGlyphs" textLength="83" x="388.5" y="199.9189">console: Console</text><line style="stroke: #A80036; stroke-width: 1.5;" x1="369.5" x2="496.5" y1="206.3359" y2="206.3359"/><polygon fill="#FFFF44" points="379.5,212.3359,383.5,216.3359,379.5,220.3359,375.5,216.3359" style="stroke: #B38D22; stroke-width: 1.0;"/><text fill="#000000" font-family="sans-serif" font-size="11" lengthAdjust="spacingAndGlyphs" textLength="94" x="388.5" y="221.7549">WithConsoleView()</text><!--MD5=[8af4fdb787b135b7271f9ce04b92f747]
class utils.Console--><rect fill="#FEFECE" filter="url(#fmwdj29blhz2p)" height="200.1953" id="utils.Console" style="stroke: #A80036; stroke-width: 1.5;" width="187" x="816.5" y="399"/><ellipse cx="882.25" cy="415" fill="#ADD1B2" rx="11" ry="11" style="stroke: #A80036; stroke-width: 1.0;"/><path d="M885.0156,410.875 Q885.1719,410.6563 885.3594,410.5469 Q885.5469,410.4375 885.7656,410.4375 Q886.1406,410.4375 886.375,410.7031 Q886.6094,410.9531 886.6094,411.5625 L886.6094,413.0156 Q886.6094,413.625 886.375,413.8906 Q886.1406,414.1563 885.7656,414.1563 Q885.4219,414.1563 885.2188,413.9531 Q885.0156,413.7656 884.9063,413.25 Q884.8594,412.8906 884.6719,412.7031 Q884.3438,412.3281 883.7344,412.1094 Q883.125,411.8906 882.5,411.8906 Q881.7344,411.8906 881.0938,412.2188 Q880.4688,412.5469 879.9688,413.2969 Q879.4844,414.0469 879.4844,415.0781 L879.4844,416.1719 Q879.4844,417.4063 880.375,418.2344 Q881.2656,419.0469 882.8594,419.0469 Q883.7969,419.0469 884.4531,418.7969 Q884.8438,418.6406 885.2656,418.2031 Q885.5313,417.9375 885.6719,417.8594 Q885.8281,417.7813 886.0313,417.7813 Q886.3594,417.7813 886.6094,418.0469 Q886.875,418.2969 886.875,418.6406 Q886.875,418.9844 886.5313,419.3906 Q886.0313,419.9688 885.2344,420.2969 Q884.1563,420.75 882.8594,420.75 Q881.3438,420.75 880.1406,420.125 Q879.1563,419.625 878.4688,418.5625 Q877.7813,417.4844 877.7813,416.2031 L877.7813,415.0469 Q877.7813,413.7188 878.3906,412.5781 Q879.0156,411.4219 880.1094,410.8125 Q881.2031,410.1875 882.4375,410.1875 Q883.1719,410.1875 883.8125,410.3594 Q884.4688,410.5156 885.0156,410.875 Z "/><text fill="#000000" font-family="sans-serif" font-size="12" lengthAdjust="spacingAndGlyphs" textLength="47" x="902.75" y="419.9102">Console</text><line style="stroke: #A80036; stroke-width: 1.5;" x1="817.5" x2="1002.5" y1="431" y2="431"/><rect fill="none" height="6" style="stroke: #C82930; stroke-width: 1.0;" width="6" x="824.5" y="439"/><text fill="#000000" font-family="sans-serif" font-size="11" lengthAdjust="spacingAndGlyphs" textLength="161" x="836.5" y="446.4189">bufferedReader: BufferedReader</text><line style="stroke: #A80036; stroke-width: 1.5;" x1="817.5" x2="1002.5" y1="452.8359" y2="452.8359"/><ellipse cx="827.5" cy="463.8359" fill="#84BE84" rx="3" ry="3" style="stroke: #038048; stroke-width: 1.0;"/><text fill="#000000" font-family="sans-serif" font-size="11" lengthAdjust="spacingAndGlyphs" textLength="47" x="836.5" y="468.2549">Console()</text><ellipse cx="827.5" cy="477.6719" fill="#84BE84" rx="3" ry="3" style="stroke: #038048; stroke-width: 1.0;"/><text fill="#000000" font-family="sans-serif" font-size="11" lengthAdjust="spacingAndGlyphs" textLength="81" x="836.5" y="482.0908">write(char): void</text><ellipse cx="827.5" cy="491.5078" fill="#84BE84" rx="3" ry="3" style="stroke: #038048; stroke-width: 1.0;"/><text fill="#000000" font-family="sans-serif" font-size="11" lengthAdjust="spacingAndGlyphs" textLength="87" x="836.5" y="495.9268">write(String): void</text><ellipse cx="827.5" cy="505.3438" fill="#84BE84" rx="3" ry="3" style="stroke: #038048; stroke-width: 1.0;"/><text fill="#000000" font-family="sans-serif" font-size="11" lengthAdjust="spacingAndGlyphs" textLength="86" x="836.5" y="509.7627">readInt(String): int</text><ellipse cx="827.5" cy="519.1797" fill="#84BE84" rx="3" ry="3" style="stroke: #038048; stroke-width: 1.0;"/><text fill="#000000" font-family="sans-serif" font-size="11" lengthAdjust="spacingAndGlyphs" textLength="109" x="836.5" y="523.5986">readChar(String): char</text><ellipse cx="827.5" cy="533.0156" fill="#84BE84" rx="3" ry="3" style="stroke: #038048; stroke-width: 1.0;"/><text fill="#000000" font-family="sans-serif" font-size="11" lengthAdjust="spacingAndGlyphs" textLength="120" x="836.5" y="537.4346">readString(String): String</text><ellipse cx="827.5" cy="546.8516" fill="#84BE84" rx="3" ry="3" style="stroke: #038048; stroke-width: 1.0;"/><text fill="#000000" font-family="sans-serif" font-size="11" lengthAdjust="spacingAndGlyphs" textLength="78" x="836.5" y="551.2705">writeln(int): void</text><ellipse cx="827.5" cy="560.6875" fill="#84BE84" rx="3" ry="3" style="stroke: #038048; stroke-width: 1.0;"/><text fill="#000000" font-family="sans-serif" font-size="11" lengthAdjust="spacingAndGlyphs" textLength="95" x="836.5" y="565.1064">writeln(String): void</text><ellipse cx="827.5" cy="574.5234" fill="#84BE84" rx="3" ry="3" style="stroke: #038048; stroke-width: 1.0;"/><text fill="#000000" font-family="sans-serif" font-size="11" lengthAdjust="spacingAndGlyphs" textLength="67" x="836.5" y="578.9424">writeln(): void</text><ellipse cx="827.5" cy="588.3594" fill="#84BE84" rx="3" ry="3" style="stroke: #038048; stroke-width: 1.0;"/><text fill="#000000" font-family="sans-serif" font-size="11" lengthAdjust="spacingAndGlyphs" textLength="111" x="836.5" y="592.7783">writeError(String): void</text><!--MD5=[4517a9099db328c27576a0137eb33da6]
class utils.Coordinate--><rect fill="#FEFECE" filter="url(#fmwdj29blhz2p)" height="200.1953" id="utils.Coordinate" style="stroke: #A80036; stroke-width: 1.5;" width="191" x="32.5" y="90.5"/><ellipse cx="93.25" cy="106.5" fill="#ADD1B2" rx="11" ry="11" style="stroke: #A80036; stroke-width: 1.0;"/><path d="M96.0156,102.375 Q96.1719,102.1563 96.3594,102.0469 Q96.5469,101.9375 96.7656,101.9375 Q97.1406,101.9375 97.375,102.2031 Q97.6094,102.4531 97.6094,103.0625 L97.6094,104.5156 Q97.6094,105.125 97.375,105.3906 Q97.1406,105.6563 96.7656,105.6563 Q96.4219,105.6563 96.2188,105.4531 Q96.0156,105.2656 95.9063,104.75 Q95.8594,104.3906 95.6719,104.2031 Q95.3438,103.8281 94.7344,103.6094 Q94.125,103.3906 93.5,103.3906 Q92.7344,103.3906 92.0938,103.7188 Q91.4688,104.0469 90.9688,104.7969 Q90.4844,105.5469 90.4844,106.5781 L90.4844,107.6719 Q90.4844,108.9063 91.375,109.7344 Q92.2656,110.5469 93.8594,110.5469 Q94.7969,110.5469 95.4531,110.2969 Q95.8438,110.1406 96.2656,109.7031 Q96.5313,109.4375 96.6719,109.3594 Q96.8281,109.2813 97.0313,109.2813 Q97.3594,109.2813 97.6094,109.5469 Q97.875,109.7969 97.875,110.1406 Q97.875,110.4844 97.5313,110.8906 Q97.0313,111.4688 96.2344,111.7969 Q95.1563,112.25 93.8594,112.25 Q92.3438,112.25 91.1406,111.625 Q90.1563,111.125 89.4688,110.0625 Q88.7813,108.9844 88.7813,107.7031 L88.7813,106.5469 Q88.7813,105.2188 89.3906,104.0781 Q90.0156,102.9219 91.1094,102.3125 Q92.2031,101.6875 93.4375,101.6875 Q94.1719,101.6875 94.8125,101.8594 Q95.4688,102.0156 96.0156,102.375 Z "/><text fill="#000000" font-family="sans-serif" font-size="12" lengthAdjust="spacingAndGlyphs" textLength="61" x="113.75" y="111.4102">Coordinate</text><line style="stroke: #A80036; stroke-width: 1.5;" x1="33.5" x2="222.5" y1="122.5" y2="122.5"/><polygon fill="none" points="43.5,128.5,47.5,132.5,43.5,136.5,39.5,132.5" style="stroke: #B38D22; stroke-width: 1.0;"/><text fill="#000000" font-family="sans-serif" font-size="11" lengthAdjust="spacingAndGlyphs" textLength="37" x="52.5" y="137.9189">row: int</text><polygon fill="none" points="43.5,142.3359,47.5,146.3359,43.5,150.3359,39.5,146.3359" style="stroke: #B38D22; stroke-width: 1.0;"/><text fill="#000000" font-family="sans-serif" font-size="11" lengthAdjust="spacingAndGlyphs" textLength="51" x="52.5" y="151.7549">column: int</text><line style="stroke: #A80036; stroke-width: 1.5;" x1="33.5" x2="222.5" y1="158.1719" y2="158.1719"/><polygon fill="#FFFF44" points="43.5,164.1719,47.5,168.1719,43.5,172.1719,39.5,168.1719" style="stroke: #B38D22; stroke-width: 1.0;"/><text fill="#000000" font-family="sans-serif" font-size="11" lengthAdjust="spacingAndGlyphs" textLength="60" x="52.5" y="173.5908">Coordinate()</text><polygon fill="#FFFF44" points="43.5,178.0078,47.5,182.0078,43.5,186.0078,39.5,182.0078" style="stroke: #B38D22; stroke-width: 1.0;"/><text fill="#000000" font-family="sans-serif" font-size="11" lengthAdjust="spacingAndGlyphs" textLength="88" x="52.5" y="187.4268">Coordinate(int, int)</text><polygon fill="#FFFF44" points="43.5,191.8438,47.5,195.8438,43.5,199.8438,39.5,195.8438" style="stroke: #B38D22; stroke-width: 1.0;"/><text fill="#000000" font-family="sans-serif" font-size="11" lengthAdjust="spacingAndGlyphs" textLength="165" x="52.5" y="201.2627">getDirection(Coordinate): Direction</text><rect fill="#F24D5C" height="6" style="stroke: #C82930; stroke-width: 1.0;" width="6" x="40.5" y="207.6797"/><text fill="#000000" font-family="sans-serif" font-size="11" lengthAdjust="spacingAndGlyphs" textLength="123" x="52.5" y="215.0986">inMainDiagonal(): boolean</text><rect fill="#F24D5C" height="6" style="stroke: #C82930; stroke-width: 1.0;" width="6" x="40.5" y="221.5156"/><text fill="#000000" font-family="sans-serif" font-size="11" lengthAdjust="spacingAndGlyphs" textLength="149" x="52.5" y="228.9346">inVertical(Coordinate): boolean</text><rect fill="#F24D5C" height="6" style="stroke: #C82930; stroke-width: 1.0;" width="6" x="40.5" y="235.3516"/><text fill="#000000" font-family="sans-serif" font-size="11" lengthAdjust="spacingAndGlyphs" textLength="160" x="52.5" y="242.7705">inHorizontal(Coordinate): boolean</text><ellipse cx="43.5" cy="252.1875" fill="#84BE84" rx="3" ry="3" style="stroke: #038048; stroke-width: 1.0;"/><text fill="#000000" font-family="sans-serif" font-size="11" lengthAdjust="spacingAndGlyphs" textLength="63" x="52.5" y="256.6064">getRow(): int</text><ellipse cx="43.5" cy="266.0234" fill="#84BE84" rx="3" ry="3" style="stroke: #038048; stroke-width: 1.0;"/><text fill="#000000" font-family="sans-serif" font-size="11" lengthAdjust="spacingAndGlyphs" textLength="75" x="52.5" y="270.4424">getColumn(): int</text><ellipse cx="43.5" cy="279.8594" fill="#84BE84" rx="3" ry="3" style="stroke: #038048; stroke-width: 1.0;"/><text fill="#000000" font-family="sans-serif" font-size="11" lengthAdjust="spacingAndGlyphs" textLength="136" x="52.5" y="284.2783">equals(Coordinate): boolean</text><!--MD5=[63e92a92e730259d201bb8566c78f275]
class utils.Direction--><rect fill="#FEFECE" filter="url(#fmwdj29blhz2p)" height="103.3438" id="utils.Direction" style="stroke: #A80036; stroke-width: 1.5;" width="115" x="32.5" y="447.5"/><ellipse cx="62.8" cy="463.5" fill="#EB937F" rx="11" ry="11" style="stroke: #A80036; stroke-width: 1.0;"/><path d="M61.6594,464.2969 L61.6594,466.7969 L65.9875,466.7969 L65.9875,465.875 Q65.9875,465.2656 66.2219,465 Q66.4719,464.7344 66.8469,464.7344 Q67.2219,464.7344 67.4563,465 Q67.6906,465.2656 67.6906,465.875 L67.6906,468.5 L59.6906,468.5 Q59.0656,468.5 58.8,468.2656 Q58.55,468.0313 58.55,467.6406 Q58.55,467.2656 58.8156,467.0313 Q59.0813,466.7969 59.6906,466.7969 L59.9563,466.7969 L59.9563,460.1406 L59.6906,460.1406 Q59.0656,460.1406 58.8,459.9063 Q58.55,459.6719 58.55,459.2813 Q58.55,458.9063 58.8,458.6719 Q59.0656,458.4375 59.6906,458.4375 L67.3156,458.4375 L67.3156,461.0313 Q67.3156,461.6406 67.0813,461.9063 Q66.8625,462.1563 66.4719,462.1563 Q66.0969,462.1563 65.8625,461.9063 Q65.6281,461.6406 65.6281,461.0313 L65.6281,460.1406 L61.6594,460.1406 L61.6594,462.5938 L63.1438,462.5938 Q63.1438,461.9375 63.2688,461.75 Q63.5344,461.3438 64.0031,461.3438 Q64.3781,461.3438 64.6125,461.6094 Q64.8469,461.8594 64.8469,462.4688 L64.8469,464.4375 Q64.8469,464.9844 64.7219,465.1719 Q64.4563,465.5625 64.0031,465.5625 Q63.5344,465.5625 63.2688,465.1563 Q63.1438,464.9688 63.1438,464.2969 L61.6594,464.2969 Z "/><text fill="#000000" font-family="sans-serif" font-size="12" lengthAdjust="spacingAndGlyphs" textLength="49" x="80.2" y="468.4102">Direction</text><line style="stroke: #A80036; stroke-width: 1.5;" x1="33.5" x2="146.5" y1="479.5" y2="479.5"/><text fill="#000000" font-family="sans-serif" font-size="11" lengthAdjust="spacingAndGlyphs" textLength="50" x="38.5" y="494.9189">VERTICAL</text><text fill="#000000" font-family="sans-serif" font-size="11" lengthAdjust="spacingAndGlyphs" textLength="66" x="38.5" y="508.7549">HORIZONTAL</text><text fill="#000000" font-family="sans-serif" font-size="11" lengthAdjust="spacingAndGlyphs" textLength="85" x="38.5" y="522.5908">MAIN_DIAGONAL</text><text fill="#000000" font-family="sans-serif" font-size="11" lengthAdjust="spacingAndGlyphs" textLength="103" x="38.5" y="536.4268">INVERSE_DIAGONAL</text><line style="stroke: #A80036; stroke-width: 1.5;" x1="33.5" x2="146.5" y1="542.8438" y2="542.8438"/><!--MD5=[ad57fc3fed10c44941145670cf00f844]
class utils.Menu--><rect fill="#FEFECE" filter="url(#fmwdj29blhz2p)" height="117.1797" id="utils.Menu" style="stroke: #A80036; stroke-width: 1.5;" width="199" x="182.5" y="440.5"/><ellipse cx="262.75" cy="456.5" fill="#ADD1B2" rx="11" ry="11" style="stroke: #A80036; stroke-width: 1.0;"/><path d="M265.5156,452.375 Q265.6719,452.1563 265.8594,452.0469 Q266.0469,451.9375 266.2656,451.9375 Q266.6406,451.9375 266.875,452.2031 Q267.1094,452.4531 267.1094,453.0625 L267.1094,454.5156 Q267.1094,455.125 266.875,455.3906 Q266.6406,455.6563 266.2656,455.6563 Q265.9219,455.6563 265.7188,455.4531 Q265.5156,455.2656 265.4063,454.75 Q265.3594,454.3906 265.1719,454.2031 Q264.8438,453.8281 264.2344,453.6094 Q263.625,453.3906 263,453.3906 Q262.2344,453.3906 261.5938,453.7188 Q260.9688,454.0469 260.4688,454.7969 Q259.9844,455.5469 259.9844,456.5781 L259.9844,457.6719 Q259.9844,458.9063 260.875,459.7344 Q261.7656,460.5469 263.3594,460.5469 Q264.2969,460.5469 264.9531,460.2969 Q265.3438,460.1406 265.7656,459.7031 Q266.0313,459.4375 266.1719,459.3594 Q266.3281,459.2813 266.5313,459.2813 Q266.8594,459.2813 267.1094,459.5469 Q267.375,459.7969 267.375,460.1406 Q267.375,460.4844 267.0313,460.8906 Q266.5313,461.4688 265.7344,461.7969 Q264.6563,462.25 263.3594,462.25 Q261.8438,462.25 260.6406,461.625 Q259.6563,461.125 258.9688,460.0625 Q258.2813,458.9844 258.2813,457.7031 L258.2813,456.5469 Q258.2813,455.2188 258.8906,454.0781 Q259.5156,452.9219 260.6094,452.3125 Q261.7031,451.6875 262.9375,451.6875 Q263.6719,451.6875 264.3125,451.8594 Q264.9688,452.0156 265.5156,452.375 Z "/><text fill="#000000" font-family="sans-serif" font-size="12" lengthAdjust="spacingAndGlyphs" textLength="30" x="283.25" y="461.4102">Menu</text><line style="stroke: #A80036; stroke-width: 1.5;" x1="183.5" x2="380.5" y1="472.5" y2="472.5"/><rect fill="none" height="6" style="stroke: #C82930; stroke-width: 1.0;" width="6" x="190.5" y="480.5"/><text fill="#000000" font-family="sans-serif" font-size="11" lengthAdjust="spacingAndGlyphs" text-decoration="underline" textLength="71" x="202.5" y="487.9189">OPTION: String</text><rect fill="none" height="6" style="stroke: #C82930; stroke-width: 1.0;" width="6" x="190.5" y="494.3359"/><text fill="#000000" font-family="sans-serif" font-size="11" lengthAdjust="spacingAndGlyphs" textLength="173" x="202.5" y="501.7549">commandList: ArrayList&lt;Command&gt;</text><line style="stroke: #A80036; stroke-width: 1.5;" x1="183.5" x2="380.5" y1="508.1719" y2="508.1719"/><ellipse cx="193.5" cy="519.1719" fill="#84BE84" rx="3" ry="3" style="stroke: #038048; stroke-width: 1.0;"/><text fill="#000000" font-family="sans-serif" font-size="11" lengthAdjust="spacingAndGlyphs" textLength="34" x="202.5" y="523.5908">Menu()</text><ellipse cx="193.5" cy="533.0078" fill="#84BE84" rx="3" ry="3" style="stroke: #038048; stroke-width: 1.0;"/><text fill="#000000" font-family="sans-serif" font-size="11" lengthAdjust="spacingAndGlyphs" textLength="73" x="202.5" y="537.4268">execute(): void</text><polygon fill="#FFFF44" points="193.5,541.8438,197.5,545.8438,193.5,549.8438,189.5,545.8438" style="stroke: #B38D22; stroke-width: 1.0;"/><text fill="#000000" font-family="sans-serif" font-size="11" lengthAdjust="spacingAndGlyphs" textLength="146" x="202.5" y="551.2627">addCommand(Command): void</text><!--MD5=[910eabe26e7ea2a3e38f9a1138d997ed]
class utils.CloseInterval--><rect fill="#FEFECE" filter="url(#fmwdj29blhz2p)" height="48" id="utils.CloseInterval" style="stroke: #A80036; stroke-width: 1.5;" width="104" x="219" y="693.5"/><ellipse cx="234" cy="709.5" fill="#ADD1B2" rx="11" ry="11" style="stroke: #A80036; stroke-width: 1.0;"/><path d="M236.7656,705.375 Q236.9219,705.1563 237.1094,705.0469 Q237.2969,704.9375 237.5156,704.9375 Q237.8906,704.9375 238.125,705.2031 Q238.3594,705.4531 238.3594,706.0625 L238.3594,707.5156 Q238.3594,708.125 238.125,708.3906 Q237.8906,708.6563 237.5156,708.6563 Q237.1719,708.6563 236.9688,708.4531 Q236.7656,708.2656 236.6563,707.75 Q236.6094,707.3906 236.4219,707.2031 Q236.0938,706.8281 235.4844,706.6094 Q234.875,706.3906 234.25,706.3906 Q233.4844,706.3906 232.8438,706.7188 Q232.2188,707.0469 231.7188,707.7969 Q231.2344,708.5469 231.2344,709.5781 L231.2344,710.6719 Q231.2344,711.9063 232.125,712.7344 Q233.0156,713.5469 234.6094,713.5469 Q235.5469,713.5469 236.2031,713.2969 Q236.5938,713.1406 237.0156,712.7031 Q237.2813,712.4375 237.4219,712.3594 Q237.5781,712.2813 237.7813,712.2813 Q238.1094,712.2813 238.3594,712.5469 Q238.625,712.7969 238.625,713.1406 Q238.625,713.4844 238.2813,713.8906 Q237.7813,714.4688 236.9844,714.7969 Q235.9063,715.25 234.6094,715.25 Q233.0938,715.25 231.8906,714.625 Q230.9063,714.125 230.2188,713.0625 Q229.5313,711.9844 229.5313,710.7031 L229.5313,709.5469 Q229.5313,708.2188 230.1406,707.0781 Q230.7656,705.9219 231.8594,705.3125 Q232.9531,704.6875 234.1875,704.6875 Q234.9219,704.6875 235.5625,704.8594 Q236.2188,705.0156 236.7656,705.375 Z "/><text fill="#000000" font-family="sans-serif" font-size="12" lengthAdjust="spacingAndGlyphs" textLength="72" x="248" y="714.4102">CloseInterval</text><line style="stroke: #A80036; stroke-width: 1.5;" x1="220" x2="322" y1="725.5" y2="725.5"/><line style="stroke: #A80036; stroke-width: 1.5;" x1="220" x2="322" y1="733.5" y2="733.5"/><!--MD5=[55e41f1e5a8b39b15e1066bc4af42afb]
class utils.PlayersDialog--><rect fill="#FEFECE" filter="url(#fmwdj29blhz2p)" height="75.6719" id="utils.PlayersDialog" style="stroke: #A80036; stroke-width: 1.5;" width="135" x="454.5" y="461"/><ellipse cx="481.2" cy="477" fill="#ADD1B2" rx="11" ry="11" style="stroke: #A80036; stroke-width: 1.0;"/><path d="M483.9656,472.875 Q484.1219,472.6563 484.3094,472.5469 Q484.4969,472.4375 484.7156,472.4375 Q485.0906,472.4375 485.325,472.7031 Q485.5594,472.9531 485.5594,473.5625 L485.5594,475.0156 Q485.5594,475.625 485.325,475.8906 Q485.0906,476.1563 484.7156,476.1563 Q484.3719,476.1563 484.1688,475.9531 Q483.9656,475.7656 483.8563,475.25 Q483.8094,474.8906 483.6219,474.7031 Q483.2938,474.3281 482.6844,474.1094 Q482.075,473.8906 481.45,473.8906 Q480.6844,473.8906 480.0438,474.2188 Q479.4188,474.5469 478.9188,475.2969 Q478.4344,476.0469 478.4344,477.0781 L478.4344,478.1719 Q478.4344,479.4063 479.325,480.2344 Q480.2156,481.0469 481.8094,481.0469 Q482.7469,481.0469 483.4031,480.7969 Q483.7938,480.6406 484.2156,480.2031 Q484.4813,479.9375 484.6219,479.8594 Q484.7781,479.7813 484.9813,479.7813 Q485.3094,479.7813 485.5594,480.0469 Q485.825,480.2969 485.825,480.6406 Q485.825,480.9844 485.4813,481.3906 Q484.9813,481.9688 484.1844,482.2969 Q483.1063,482.75 481.8094,482.75 Q480.2938,482.75 479.0906,482.125 Q478.1063,481.625 477.4188,480.5625 Q476.7313,479.4844 476.7313,478.2031 L476.7313,477.0469 Q476.7313,475.7188 477.3406,474.5781 Q477.9656,473.4219 479.0594,472.8125 Q480.1531,472.1875 481.3875,472.1875 Q482.1219,472.1875 482.7625,472.3594 Q483.4188,472.5156 483.9656,472.875 Z "/><text fill="#000000" font-family="sans-serif" font-size="12" lengthAdjust="spacingAndGlyphs" textLength="77" x="497.8" y="481.9102">PlayersDialog</text><line style="stroke: #A80036; stroke-width: 1.5;" x1="455.5" x2="588.5" y1="493" y2="493"/><rect fill="none" height="6" style="stroke: #C82930; stroke-width: 1.0;" width="6" x="462.5" y="501"/><text fill="#000000" font-family="sans-serif" font-size="11" lengthAdjust="spacingAndGlyphs" text-decoration="underline" textLength="109" x="474.5" y="508.4189">USERS_ERROR: String</text><line style="stroke: #A80036; stroke-width: 1.5;" x1="455.5" x2="588.5" y1="514.8359" y2="514.8359"/><ellipse cx="465.5" cy="525.8359" fill="#84BE84" rx="3" ry="3" style="stroke: #038048; stroke-width: 1.0;"/><text fill="#000000" font-family="sans-serif" font-size="11" lengthAdjust="spacingAndGlyphs" textLength="58" x="474.5" y="530.2549">read(int): int</text><!--MD5=[2c721b8e75ee69878c5473c2e2c68362]
class utils.TCPIP--><rect fill="#FEFECE" filter="url(#fmwdj29blhz2p)" height="297.0469" id="utils.TCPIP" style="stroke: #A80036; stroke-width: 1.5;" width="306" x="533" y="42"/><ellipse cx="664.25" cy="58" fill="#ADD1B2" rx="11" ry="11" style="stroke: #A80036; stroke-width: 1.0;"/><path d="M667.0156,53.875 Q667.1719,53.6563 667.3594,53.5469 Q667.5469,53.4375 667.7656,53.4375 Q668.1406,53.4375 668.375,53.7031 Q668.6094,53.9531 668.6094,54.5625 L668.6094,56.0156 Q668.6094,56.625 668.375,56.8906 Q668.1406,57.1563 667.7656,57.1563 Q667.4219,57.1563 667.2188,56.9531 Q667.0156,56.7656 666.9063,56.25 Q666.8594,55.8906 666.6719,55.7031 Q666.3438,55.3281 665.7344,55.1094 Q665.125,54.8906 664.5,54.8906 Q663.7344,54.8906 663.0938,55.2188 Q662.4688,55.5469 661.9688,56.2969 Q661.4844,57.0469 661.4844,58.0781 L661.4844,59.1719 Q661.4844,60.4063 662.375,61.2344 Q663.2656,62.0469 664.8594,62.0469 Q665.7969,62.0469 666.4531,61.7969 Q666.8438,61.6406 667.2656,61.2031 Q667.5313,60.9375 667.6719,60.8594 Q667.8281,60.7813 668.0313,60.7813 Q668.3594,60.7813 668.6094,61.0469 Q668.875,61.2969 668.875,61.6406 Q668.875,61.9844 668.5313,62.3906 Q668.0313,62.9688 667.2344,63.2969 Q666.1563,63.75 664.8594,63.75 Q663.3438,63.75 662.1406,63.125 Q661.1563,62.625 660.4688,61.5625 Q659.7813,60.4844 659.7813,59.2031 L659.7813,58.0469 Q659.7813,56.7188 660.3906,55.5781 Q661.0156,54.4219 662.1094,53.8125 Q663.2031,53.1875 664.4375,53.1875 Q665.1719,53.1875 665.8125,53.3594 Q666.4688,53.5156 667.0156,53.875 Z "/><text fill="#000000" font-family="sans-serif" font-size="12" lengthAdjust="spacingAndGlyphs" textLength="35" x="684.75" y="62.9102">TCPIP</text><line style="stroke: #A80036; stroke-width: 1.5;" x1="534" x2="838" y1="74" y2="74"/><rect fill="none" height="6" style="stroke: #C82930; stroke-width: 1.0;" width="6" x="541" y="82"/><text fill="#000000" font-family="sans-serif" font-size="11" lengthAdjust="spacingAndGlyphs" textLength="137" x="553" y="89.4189">serverSocket: ServerSocket</text><rect fill="none" height="6" style="stroke: #C82930; stroke-width: 1.0;" width="6" x="541" y="95.8359"/><text fill="#000000" font-family="sans-serif" font-size="11" lengthAdjust="spacingAndGlyphs" textLength="71" x="553" y="103.2549">socket: Socket</text><rect fill="none" height="6" style="stroke: #C82930; stroke-width: 1.0;" width="6" x="541" y="109.6719"/><text fill="#000000" font-family="sans-serif" font-size="11" lengthAdjust="spacingAndGlyphs" textLength="71" x="553" y="117.0908">out: PrintWriter</text><rect fill="none" height="6" style="stroke: #C82930; stroke-width: 1.0;" width="6" x="541" y="123.5078"/><text fill="#000000" font-family="sans-serif" font-size="11" lengthAdjust="spacingAndGlyphs" textLength="92" x="553" y="130.9268">in: BufferedReader</text><line style="stroke: #A80036; stroke-width: 1.5;" x1="534" x2="838" y1="137.3438" y2="137.3438"/><ellipse cx="544" cy="148.3438" fill="#84BE84" rx="3" ry="3" style="stroke: #038048; stroke-width: 1.0;"/><text fill="#000000" font-family="sans-serif" font-size="11" lengthAdjust="spacingAndGlyphs" textLength="208" x="553" y="152.7627">TCPIP(PrintWriter, Socket, BufferedReader)</text><ellipse cx="544" cy="162.1797" fill="#84BE84" rx="3" ry="3" style="stroke: #038048; stroke-width: 1.0;"/><text fill="#000000" font-family="sans-serif" font-size="11" lengthAdjust="spacingAndGlyphs" textLength="280" x="553" y="166.5986">TCPIP(ServerSocket, PrintWriter, BufferedReader, Socket)</text><ellipse cx="544" cy="176.0156" fill="#84BE84" rx="3" ry="3" style="stroke: #038048; stroke-width: 1.0;"/><text fill="#000000" font-family="sans-serif" font-size="11" lengthAdjust="spacingAndGlyphs" textLength="60" x="553" y="180.4346">close(): void</text><ellipse cx="544" cy="189.8516" fill="#84BE84" rx="3" ry="3" style="stroke: #038048; stroke-width: 1.0;"/><text fill="#000000" font-family="sans-serif" font-size="11" lengthAdjust="spacingAndGlyphs" text-decoration="underline" textLength="131" x="553" y="194.2705">createClientSocket(): TCPIP</text><ellipse cx="544" cy="203.6875" fill="#84BE84" rx="3" ry="3" style="stroke: #038048; stroke-width: 1.0;"/><text fill="#000000" font-family="sans-serif" font-size="11" lengthAdjust="spacingAndGlyphs" text-decoration="underline" textLength="138" x="553" y="208.1064">createServerSocket(): TCPIP</text><ellipse cx="544" cy="217.5234" fill="#84BE84" rx="3" ry="3" style="stroke: #038048; stroke-width: 1.0;"/><text fill="#000000" font-family="sans-serif" font-size="11" lengthAdjust="spacingAndGlyphs" textLength="72" x="553" y="221.9424">receiveInt(): int</text><ellipse cx="544" cy="231.3594" fill="#84BE84" rx="3" ry="3" style="stroke: #038048; stroke-width: 1.0;"/><text fill="#000000" font-family="sans-serif" font-size="11" lengthAdjust="spacingAndGlyphs" textLength="69" x="553" y="235.7783">send(int): void</text><ellipse cx="544" cy="245.1953" fill="#84BE84" rx="3" ry="3" style="stroke: #038048; stroke-width: 1.0;"/><text fill="#000000" font-family="sans-serif" font-size="11" lengthAdjust="spacingAndGlyphs" textLength="86" x="553" y="249.6143">send(String): void</text><ellipse cx="544" cy="259.0313" fill="#84BE84" rx="3" ry="3" style="stroke: #038048; stroke-width: 1.0;"/><text fill="#000000" font-family="sans-serif" font-size="11" lengthAdjust="spacingAndGlyphs" textLength="96" x="553" y="263.4502">send(boolean): void</text><ellipse cx="544" cy="272.8672" fill="#84BE84" rx="3" ry="3" style="stroke: #038048; stroke-width: 1.0;"/><text fill="#000000" font-family="sans-serif" font-size="11" lengthAdjust="spacingAndGlyphs" textLength="80" x="553" y="277.2861">send(char): void</text><ellipse cx="544" cy="286.7031" fill="#84BE84" rx="3" ry="3" style="stroke: #038048; stroke-width: 1.0;"/><text fill="#000000" font-family="sans-serif" font-size="11" lengthAdjust="spacingAndGlyphs" textLength="127" x="553" y="291.1221">receiveBoolean(): boolean</text><ellipse cx="544" cy="300.5391" fill="#84BE84" rx="3" ry="3" style="stroke: #038048; stroke-width: 1.0;"/><text fill="#000000" font-family="sans-serif" font-size="11" lengthAdjust="spacingAndGlyphs" textLength="72" x="553" y="304.958">receiveInt(): int</text><ellipse cx="544" cy="314.375" fill="#84BE84" rx="3" ry="3" style="stroke: #038048; stroke-width: 1.0;"/><text fill="#000000" font-family="sans-serif" font-size="11" lengthAdjust="spacingAndGlyphs" textLength="95" x="553" y="318.7939">receiveChar(): char</text><ellipse cx="544" cy="328.2109" fill="#84BE84" rx="3" ry="3" style="stroke: #038048; stroke-width: 1.0;"/><text fill="#000000" font-family="sans-serif" font-size="11" lengthAdjust="spacingAndGlyphs" textLength="98" x="553" y="332.6299">receiveLine(): String</text><!--MD5=[ae8b7cdc49d99fbec8c7e641a97b4a7f]
class utils.YesNoDialog--><rect fill="#FEFECE" filter="url(#fmwdj29blhz2p)" height="158.6875" id="utils.YesNoDialog" style="stroke: #A80036; stroke-width: 1.5;" width="157" x="624.5" y="419.5"/><ellipse cx="662.9" cy="435.5" fill="#ADD1B2" rx="11" ry="11" style="stroke: #A80036; stroke-width: 1.0;"/><path d="M665.6656,431.375 Q665.8219,431.1563 666.0094,431.0469 Q666.1969,430.9375 666.4156,430.9375 Q666.7906,430.9375 667.025,431.2031 Q667.2594,431.4531 667.2594,432.0625 L667.2594,433.5156 Q667.2594,434.125 667.025,434.3906 Q666.7906,434.6563 666.4156,434.6563 Q666.0719,434.6563 665.8688,434.4531 Q665.6656,434.2656 665.5563,433.75 Q665.5094,433.3906 665.3219,433.2031 Q664.9938,432.8281 664.3844,432.6094 Q663.775,432.3906 663.15,432.3906 Q662.3844,432.3906 661.7438,432.7188 Q661.1188,433.0469 660.6188,433.7969 Q660.1344,434.5469 660.1344,435.5781 L660.1344,436.6719 Q660.1344,437.9063 661.025,438.7344 Q661.9156,439.5469 663.5094,439.5469 Q664.4469,439.5469 665.1031,439.2969 Q665.4938,439.1406 665.9156,438.7031 Q666.1813,438.4375 666.3219,438.3594 Q666.4781,438.2813 666.6813,438.2813 Q667.0094,438.2813 667.2594,438.5469 Q667.525,438.7969 667.525,439.1406 Q667.525,439.4844 667.1813,439.8906 Q666.6813,440.4688 665.8844,440.7969 Q664.8063,441.25 663.5094,441.25 Q661.9938,441.25 660.7906,440.625 Q659.8063,440.125 659.1188,439.0625 Q658.4313,437.9844 658.4313,436.7031 L658.4313,435.5469 Q658.4313,434.2188 659.0406,433.0781 Q659.6656,431.9219 660.7594,431.3125 Q661.8531,430.6875 663.0875,430.6875 Q663.8219,430.6875 664.4625,430.8594 Q665.1188,431.0156 665.6656,431.375 Z "/><text fill="#000000" font-family="sans-serif" font-size="12" lengthAdjust="spacingAndGlyphs" textLength="73" x="682.1" y="440.4102">YesNoDialog</text><line style="stroke: #A80036; stroke-width: 1.5;" x1="625.5" x2="780.5" y1="451.5" y2="451.5"/><rect fill="none" height="6" style="stroke: #C82930; stroke-width: 1.0;" width="6" x="632.5" y="459.5"/><text fill="#000000" font-family="sans-serif" font-size="11" lengthAdjust="spacingAndGlyphs" text-decoration="underline" textLength="89" x="644.5" y="466.9189">AFIRMATIVE: char</text><rect fill="none" height="6" style="stroke: #C82930; stroke-width: 1.0;" width="6" x="632.5" y="473.3359"/><text fill="#000000" font-family="sans-serif" font-size="11" lengthAdjust="spacingAndGlyphs" text-decoration="underline" textLength="79" x="644.5" y="480.7549">NEGATIVE: char</text><rect fill="none" height="6" style="stroke: #C82930; stroke-width: 1.0;" width="6" x="632.5" y="487.1719"/><text fill="#000000" font-family="sans-serif" font-size="11" lengthAdjust="spacingAndGlyphs" text-decoration="underline" textLength="85" x="644.5" y="494.5908">QUESTION: String</text><rect fill="none" height="6" style="stroke: #C82930; stroke-width: 1.0;" width="6" x="632.5" y="501.0078"/><text fill="#000000" font-family="sans-serif" font-size="11" lengthAdjust="spacingAndGlyphs" text-decoration="underline" textLength="84" x="644.5" y="508.4268">MESSAGE: String</text><line style="stroke: #A80036; stroke-width: 1.5;" x1="625.5" x2="780.5" y1="514.8438" y2="514.8438"/><ellipse cx="635.5" cy="525.8438" fill="#84BE84" rx="3" ry="3" style="stroke: #038048; stroke-width: 1.0;"/><text fill="#000000" font-family="sans-serif" font-size="11" lengthAdjust="spacingAndGlyphs" textLength="70" x="644.5" y="530.2627">YesNoDialog()</text><ellipse cx="635.5" cy="539.6797" fill="#84BE84" rx="3" ry="3" style="stroke: #038048; stroke-width: 1.0;"/><text fill="#000000" font-family="sans-serif" font-size="11" lengthAdjust="spacingAndGlyphs" textLength="102" x="644.5" y="544.0986">read(String): boolean</text><rect fill="#F24D5C" height="6" style="stroke: #C82930; stroke-width: 1.0;" width="6" x="632.5" y="550.5156"/><text fill="#000000" font-family="sans-serif" font-size="11" lengthAdjust="spacingAndGlyphs" text-decoration="underline" textLength="124" x="644.5" y="557.9346">isNegative(char): boolean</text><rect fill="#F24D5C" height="6" style="stroke: #C82930; stroke-width: 1.0;" width="6" x="632.5" y="564.3516"/><text fill="#000000" font-family="sans-serif" font-size="11" lengthAdjust="spacingAndGlyphs" text-decoration="underline" textLength="131" x="644.5" y="571.7705">isAfirmative(char): boolean</text><!--MD5=[06343bf850d7d7a24456cd327e63b99b]
class java.io.BufferedReader--><rect fill="#FEFECE" filter="url(#fmwdj29blhz2p)" height="48" id="java.io.BufferedReader" style="stroke: #A80036; stroke-width: 1.5;" width="119" x="1060.5" y="693.5"/><ellipse cx="1075.5" cy="709.5" fill="#ADD1B2" rx="11" ry="11" style="stroke: #A80036; stroke-width: 1.0;"/><path d="M1078.2656,705.375 Q1078.4219,705.1563 1078.6094,705.0469 Q1078.7969,704.9375 1079.0156,704.9375 Q1079.3906,704.9375 1079.625,705.2031 Q1079.8594,705.4531 1079.8594,706.0625 L1079.8594,707.5156 Q1079.8594,708.125 1079.625,708.3906 Q1079.3906,708.6563 1079.0156,708.6563 Q1078.6719,708.6563 1078.4688,708.4531 Q1078.2656,708.2656 1078.1563,707.75 Q1078.1094,707.3906 1077.9219,707.2031 Q1077.5938,706.8281 1076.9844,706.6094 Q1076.375,706.3906 1075.75,706.3906 Q1074.9844,706.3906 1074.3438,706.7188 Q1073.7188,707.0469 1073.2188,707.7969 Q1072.7344,708.5469 1072.7344,709.5781 L1072.7344,710.6719 Q1072.7344,711.9063 1073.625,712.7344 Q1074.5156,713.5469 1076.1094,713.5469 Q1077.0469,713.5469 1077.7031,713.2969 Q1078.0938,713.1406 1078.5156,712.7031 Q1078.7813,712.4375 1078.9219,712.3594 Q1079.0781,712.2813 1079.2813,712.2813 Q1079.6094,712.2813 1079.8594,712.5469 Q1080.125,712.7969 1080.125,713.1406 Q1080.125,713.4844 1079.7813,713.8906 Q1079.2813,714.4688 1078.4844,714.7969 Q1077.4063,715.25 1076.1094,715.25 Q1074.5938,715.25 1073.3906,714.625 Q1072.4063,714.125 1071.7188,713.0625 Q1071.0313,711.9844 1071.0313,710.7031 L1071.0313,709.5469 Q1071.0313,708.2188 1071.6406,707.0781 Q1072.2656,705.9219 1073.3594,705.3125 Q1074.4531,704.6875 1075.6875,704.6875 Q1076.4219,704.6875 1077.0625,704.8594 Q1077.7188,705.0156 1078.2656,705.375 Z "/><text fill="#000000" font-family="sans-serif" font-size="12" lengthAdjust="spacingAndGlyphs" textLength="87" x="1089.5" y="714.4102">BufferedReader</text><line style="stroke: #A80036; stroke-width: 1.5;" x1="1061.5" x2="1178.5" y1="725.5" y2="725.5"/><line style="stroke: #A80036; stroke-width: 1.5;" x1="1061.5" x2="1178.5" y1="733.5" y2="733.5"/><!--MD5=[e61417e1c56db1382337fcf0821547ce]
class java.io.PrintWriter--><rect fill="#FEFECE" filter="url(#fmwdj29blhz2p)" height="48" id="java.io.PrintWriter" style="stroke: #A80036; stroke-width: 1.5;" width="89" x="1214.5" y="693.5"/><ellipse cx="1229.5" cy="709.5" fill="#ADD1B2" rx="11" ry="11" style="stroke: #A80036; stroke-width: 1.0;"/><path d="M1232.2656,705.375 Q1232.4219,705.1563 1232.6094,705.0469 Q1232.7969,704.9375 1233.0156,704.9375 Q1233.3906,704.9375 1233.625,705.2031 Q1233.8594,705.4531 1233.8594,706.0625 L1233.8594,707.5156 Q1233.8594,708.125 1233.625,708.3906 Q1233.3906,708.6563 1233.0156,708.6563 Q1232.6719,708.6563 1232.4688,708.4531 Q1232.2656,708.2656 1232.1563,707.75 Q1232.1094,707.3906 1231.9219,707.2031 Q1231.5938,706.8281 1230.9844,706.6094 Q1230.375,706.3906 1229.75,706.3906 Q1228.9844,706.3906 1228.3438,706.7188 Q1227.7188,707.0469 1227.2188,707.7969 Q1226.7344,708.5469 1226.7344,709.5781 L1226.7344,710.6719 Q1226.7344,711.9063 1227.625,712.7344 Q1228.5156,713.5469 1230.1094,713.5469 Q1231.0469,713.5469 1231.7031,713.2969 Q1232.0938,713.1406 1232.5156,712.7031 Q1232.7813,712.4375 1232.9219,712.3594 Q1233.0781,712.2813 1233.2813,712.2813 Q1233.6094,712.2813 1233.8594,712.5469 Q1234.125,712.7969 1234.125,713.1406 Q1234.125,713.4844 1233.7813,713.8906 Q1233.2813,714.4688 1232.4844,714.7969 Q1231.4063,715.25 1230.1094,715.25 Q1228.5938,715.25 1227.3906,714.625 Q1226.4063,714.125 1225.7188,713.0625 Q1225.0313,711.9844 1225.0313,710.7031 L1225.0313,709.5469 Q1225.0313,708.2188 1225.6406,707.0781 Q1226.2656,705.9219 1227.3594,705.3125 Q1228.4531,704.6875 1229.6875,704.6875 Q1230.4219,704.6875 1231.0625,704.8594 Q1231.7188,705.0156 1232.2656,705.375 Z "/><text fill="#000000" font-family="sans-serif" font-size="12" lengthAdjust="spacingAndGlyphs" textLength="57" x="1243.5" y="714.4102">PrintWriter</text><line style="stroke: #A80036; stroke-width: 1.5;" x1="1215.5" x2="1302.5" y1="725.5" y2="725.5"/><line style="stroke: #A80036; stroke-width: 1.5;" x1="1215.5" x2="1302.5" y1="733.5" y2="733.5"/><!--MD5=[f9f3829e644b8e7f7e69c821ea57052a]
class java.net.ServerSocket--><rect fill="#FEFECE" filter="url(#fmwdj29blhz2p)" height="48" id="java.net.ServerSocket" style="stroke: #A80036; stroke-width: 1.5;" width="104" x="1286" y="475"/><ellipse cx="1301" cy="491" fill="#ADD1B2" rx="11" ry="11" style="stroke: #A80036; stroke-width: 1.0;"/><path d="M1303.7656,486.875 Q1303.9219,486.6563 1304.1094,486.5469 Q1304.2969,486.4375 1304.5156,486.4375 Q1304.8906,486.4375 1305.125,486.7031 Q1305.3594,486.9531 1305.3594,487.5625 L1305.3594,489.0156 Q1305.3594,489.625 1305.125,489.8906 Q1304.8906,490.1563 1304.5156,490.1563 Q1304.1719,490.1563 1303.9688,489.9531 Q1303.7656,489.7656 1303.6563,489.25 Q1303.6094,488.8906 1303.4219,488.7031 Q1303.0938,488.3281 1302.4844,488.1094 Q1301.875,487.8906 1301.25,487.8906 Q1300.4844,487.8906 1299.8438,488.2188 Q1299.2188,488.5469 1298.7188,489.2969 Q1298.2344,490.0469 1298.2344,491.0781 L1298.2344,492.1719 Q1298.2344,493.4063 1299.125,494.2344 Q1300.0156,495.0469 1301.6094,495.0469 Q1302.5469,495.0469 1303.2031,494.7969 Q1303.5938,494.6406 1304.0156,494.2031 Q1304.2813,493.9375 1304.4219,493.8594 Q1304.5781,493.7813 1304.7813,493.7813 Q1305.1094,493.7813 1305.3594,494.0469 Q1305.625,494.2969 1305.625,494.6406 Q1305.625,494.9844 1305.2813,495.3906 Q1304.7813,495.9688 1303.9844,496.2969 Q1302.9063,496.75 1301.6094,496.75 Q1300.0938,496.75 1298.8906,496.125 Q1297.9063,495.625 1297.2188,494.5625 Q1296.5313,493.4844 1296.5313,492.2031 L1296.5313,491.0469 Q1296.5313,489.7188 1297.1406,488.5781 Q1297.7656,487.4219 1298.8594,486.8125 Q1299.9531,486.1875 1301.1875,486.1875 Q1301.9219,486.1875 1302.5625,486.3594 Q1303.2188,486.5156 1303.7656,486.875 Z "/><text fill="#000000" font-family="sans-serif" font-size="12" lengthAdjust="spacingAndGlyphs" textLength="72" x="1315" y="495.9102">ServerSocket</text><line style="stroke: #A80036; stroke-width: 1.5;" x1="1287" x2="1389" y1="507" y2="507"/><line style="stroke: #A80036; stroke-width: 1.5;" x1="1287" x2="1389" y1="515" y2="515"/><!--MD5=[f187cbe17991579a55cdca54c27fd42b]
class java.net.Socket--><rect fill="#FEFECE" filter="url(#fmwdj29blhz2p)" height="48" id="java.net.Socket" style="stroke: #A80036; stroke-width: 1.5;" width="69" x="1181.5" y="475"/><ellipse cx="1196.5" cy="491" fill="#ADD1B2" rx="11" ry="11" style="stroke: #A80036; stroke-width: 1.0;"/><path d="M1199.2656,486.875 Q1199.4219,486.6563 1199.6094,486.5469 Q1199.7969,486.4375 1200.0156,486.4375 Q1200.3906,486.4375 1200.625,486.7031 Q1200.8594,486.9531 1200.8594,487.5625 L1200.8594,489.0156 Q1200.8594,489.625 1200.625,489.8906 Q1200.3906,490.1563 1200.0156,490.1563 Q1199.6719,490.1563 1199.4688,489.9531 Q1199.2656,489.7656 1199.1563,489.25 Q1199.1094,488.8906 1198.9219,488.7031 Q1198.5938,488.3281 1197.9844,488.1094 Q1197.375,487.8906 1196.75,487.8906 Q1195.9844,487.8906 1195.3438,488.2188 Q1194.7188,488.5469 1194.2188,489.2969 Q1193.7344,490.0469 1193.7344,491.0781 L1193.7344,492.1719 Q1193.7344,493.4063 1194.625,494.2344 Q1195.5156,495.0469 1197.1094,495.0469 Q1198.0469,495.0469 1198.7031,494.7969 Q1199.0938,494.6406 1199.5156,494.2031 Q1199.7813,493.9375 1199.9219,493.8594 Q1200.0781,493.7813 1200.2813,493.7813 Q1200.6094,493.7813 1200.8594,494.0469 Q1201.125,494.2969 1201.125,494.6406 Q1201.125,494.9844 1200.7813,495.3906 Q1200.2813,495.9688 1199.4844,496.2969 Q1198.4063,496.75 1197.1094,496.75 Q1195.5938,496.75 1194.3906,496.125 Q1193.4063,495.625 1192.7188,494.5625 Q1192.0313,493.4844 1192.0313,492.2031 L1192.0313,491.0469 Q1192.0313,489.7188 1192.6406,488.5781 Q1193.2656,487.4219 1194.3594,486.8125 Q1195.4531,486.1875 1196.6875,486.1875 Q1197.4219,486.1875 1198.0625,486.3594 Q1198.7188,486.5156 1199.2656,486.875 Z "/><text fill="#000000" font-family="sans-serif" font-size="12" lengthAdjust="spacingAndGlyphs" textLength="37" x="1210.5" y="495.9102">Socket</text><line style="stroke: #A80036; stroke-width: 1.5;" x1="1182.5" x2="1249.5" y1="507" y2="507"/><line style="stroke: #A80036; stroke-width: 1.5;" x1="1182.5" x2="1249.5" y1="515" y2="515"/><!--MD5=[841dd20c7e4001a875f8fa7e967f7b35]
class mastermind.utils.TCPIP--><rect fill="#FEFECE" filter="url(#fmwdj29blhz2p)" height="48" id="mastermind.utils.TCPIP" style="stroke: #A80036; stroke-width: 1.5;" width="67" x="1446.5" y="475"/><ellipse cx="1461.5" cy="491" fill="#ADD1B2" rx="11" ry="11" style="stroke: #A80036; stroke-width: 1.0;"/><path d="M1464.2656,486.875 Q1464.4219,486.6563 1464.6094,486.5469 Q1464.7969,486.4375 1465.0156,486.4375 Q1465.3906,486.4375 1465.625,486.7031 Q1465.8594,486.9531 1465.8594,487.5625 L1465.8594,489.0156 Q1465.8594,489.625 1465.625,489.8906 Q1465.3906,490.1563 1465.0156,490.1563 Q1464.6719,490.1563 1464.4688,489.9531 Q1464.2656,489.7656 1464.1563,489.25 Q1464.1094,488.8906 1463.9219,488.7031 Q1463.5938,488.3281 1462.9844,488.1094 Q1462.375,487.8906 1461.75,487.8906 Q1460.9844,487.8906 1460.3438,488.2188 Q1459.7188,488.5469 1459.2188,489.2969 Q1458.7344,490.0469 1458.7344,491.0781 L1458.7344,492.1719 Q1458.7344,493.4063 1459.625,494.2344 Q1460.5156,495.0469 1462.1094,495.0469 Q1463.0469,495.0469 1463.7031,494.7969 Q1464.0938,494.6406 1464.5156,494.2031 Q1464.7813,493.9375 1464.9219,493.8594 Q1465.0781,493.7813 1465.2813,493.7813 Q1465.6094,493.7813 1465.8594,494.0469 Q1466.125,494.2969 1466.125,494.6406 Q1466.125,494.9844 1465.7813,495.3906 Q1465.2813,495.9688 1464.4844,496.2969 Q1463.4063,496.75 1462.1094,496.75 Q1460.5938,496.75 1459.3906,496.125 Q1458.4063,495.625 1457.7188,494.5625 Q1457.0313,493.4844 1457.0313,492.2031 L1457.0313,491.0469 Q1457.0313,489.7188 1457.6406,488.5781 Q1458.2656,487.4219 1459.3594,486.8125 Q1460.4531,486.1875 1461.6875,486.1875 Q1462.4219,486.1875 1463.0625,486.3594 Q1463.7188,486.5156 1464.2656,486.875 Z "/><text fill="#000000" font-family="sans-serif" font-size="12" lengthAdjust="spacingAndGlyphs" textLength="35" x="1475.5" y="495.9102">TCPIP</text><line style="stroke: #A80036; stroke-width: 1.5;" x1="1447.5" x2="1512.5" y1="507" y2="507"/><line style="stroke: #A80036; stroke-width: 1.5;" x1="1447.5" x2="1512.5" y1="515" y2="515"/><!--MD5=[7c8458d5d287153e1d8ff3fd0b2bab15]
reverse link utils.WithConsoleView to utils.Command--><path d="M431.358,248.953 C428.475,349.868 422.534,557.818 419.647,658.863 " fill="none" id="utils.WithConsoleView&lt;-utils.Command" style="stroke: #A80036; stroke-width: 1.0;"/><polygon fill="none" points="424.365,248.628,431.933,228.836,438.359,249.028,424.365,248.628" style="stroke: #A80036; stroke-width: 1.0;"/><!--MD5=[dea1a6a5eb2726644cb5ba3fdbe3e8f5]
link utils.Console to java.io.BufferedReader--><path d="M1011.9898,605.1546 C1011.9898,605.1546 1068.16,663.051 1088.46,683.982 " fill="none" id="utils.Console-java.io.BufferedReader" style="stroke: #A80036; stroke-width: 1.0;"/><polygon fill="#A80036" points="1097.52,693.327,1094.1235,684.0824,1094.0382,689.7386,1088.382,689.6533,1097.52,693.327" style="stroke: #A80036; stroke-width: 1.0;"/><line style="stroke: #A80036; stroke-width: 1.0;" x1="1094.0382" x2="1088.475" y1="689.7386" y2="683.995"/><polygon fill="#A80036" points="1003.64,596.536,1004.942,603.6286,1011.9898,605.1546,1010.6878,598.0621,1003.64,596.536" style="stroke: #A80036; stroke-width: 1.0;"/><!--MD5=[7a93099a4dadc944cf6faf031ca4e2bf]
link utils.Coordinate to utils.Direction--><path d="M115.715,290.588 C109.485,340.841 102.149,400.009 96.9104,442.262 " fill="none" id="utils.Coordinate-&gt;utils.Direction" style="stroke: #A80036; stroke-width: 1.0; stroke-dasharray: 7.0,7.0;"/><polygon fill="#A80036" points="96.2822,447.329,101.36,438.8901,96.8979,442.3671,93.4209,437.9049,96.2822,447.329" style="stroke: #A80036; stroke-width: 1.0;"/><!--MD5=[ba703005c14be8bedda969cb3aaae61e]
reverse link utils.WithConsoleView to utils.Menu--><path d="M405.737,246.839 C378.787,301.542 337.729,384.881 310.393,440.368 " fill="none" id="utils.WithConsoleView&lt;-utils.Menu" style="stroke: #A80036; stroke-width: 1.0;"/><polygon fill="none" points="399.517,243.624,414.635,228.776,412.076,249.811,399.517,243.624" style="stroke: #A80036; stroke-width: 1.0;"/><!--MD5=[bac3cba470fbad32067011aa33c731a4]
link utils.Menu to utils.Command--><path d="M324.6495,567.8959 C324.6495,567.8959 358.971,622.532 374.746,647.643 " fill="none" id="utils.Menu-utils.Command" style="stroke: #A80036; stroke-width: 1.0;"/><polygon fill="#A80036" points="381.834,658.927,380.4344,649.1781,379.1746,654.6929,373.6598,653.4331,381.834,658.927" style="stroke: #A80036; stroke-width: 1.0;"/><line style="stroke: #A80036; stroke-width: 1.0;" x1="379.1746" x2="374.919" y1="654.6929" y2="647.919"/><polygon fill="#A80036" points="318.267,557.734,318.071,564.9424,324.6495,567.8959,324.8455,560.6874,318.267,557.734" style="stroke: #A80036; stroke-width: 1.0;"/><!--MD5=[c312900921f22bb867473432cdd7049a]
link utils.Menu to utils.CloseInterval--><path d="M279.067,557.734 C276.922,599.944 274.106,655.364 272.432,688.322 " fill="none" id="utils.Menu-&gt;utils.CloseInterval" style="stroke: #A80036; stroke-width: 1.0; stroke-dasharray: 7.0,7.0;"/><polygon fill="#A80036" points="272.173,693.414,276.6255,684.629,272.4272,688.4205,268.6358,684.2222,272.173,693.414" style="stroke: #A80036; stroke-width: 1.0;"/><!--MD5=[a811d1bc5220b24febe296f2ebb8ff56]
reverse link utils.WithConsoleView to utils.PlayersDialog--><path d="M449.51,248.356 C467.541,310.453 495.894,408.095 511.251,460.982 " fill="none" id="utils.WithConsoleView&lt;-utils.PlayersDialog" style="stroke: #A80036; stroke-width: 1.0;"/><polygon fill="none" points="442.679,249.935,443.824,228.776,456.124,246.031,442.679,249.935" style="stroke: #A80036; stroke-width: 1.0;"/><!--MD5=[d5a493f7c3c24598df3388c5b1b1857c]
link utils.TCPIP to java.net.ServerSocket--><path d="M849.7555,336.0038 C849.7555,336.0038 854.224,338.186 856,339 C1024.23,416.077 1110.24,302.284 1268,399 C1292.53,414.039 1310.82,441.241 1322.54,463.332 " fill="none" id="utils.TCPIP-java.net.ServerSocket" style="stroke: #A80036; stroke-width: 1.0;"/><polygon fill="#A80036" points="1328.38,474.968,1327.9251,465.1297,1326.1404,470.4976,1320.7725,468.713,1328.38,474.968" style="stroke: #A80036; stroke-width: 1.0;"/><line style="stroke: #A80036; stroke-width: 1.0;" x1="1326.1404" x2="1322.55" y1="470.4976" y2="463.347"/><polygon fill="#A80036" points="839.104,330.477,842.5875,336.7909,849.7555,336.0038,846.272,329.6899,839.104,330.477" style="stroke: #A80036; stroke-width: 1.0;"/><!--MD5=[67626a64a166e2911fe80fc587fa2ebb]
link utils.TCPIP to java.io.PrintWriter--><path d="M849.3756,335.3697 C849.3756,335.3697 854.129,338.012 856,339 C948.651,387.942 1005.34,329.777 1084,399 C1156,462.356 1116.54,516.244 1165,599 C1182.97,629.692 1208.42,660.972 1228.3,683.534 " fill="none" id="utils.TCPIP-java.io.PrintWriter" style="stroke: #A80036; stroke-width: 1.0;"/><polygon fill="#A80036" points="1237,693.253,1233.9778,683.8793,1233.6652,689.5275,1228.017,689.215,1237,693.253" style="stroke: #A80036; stroke-width: 1.0;"/><line style="stroke: #A80036; stroke-width: 1.0;" x1="1233.6652" x2="1228.33" y1="689.5275" y2="683.5655"/><polygon fill="#A80036" points="839.004,329.334,842.1779,335.8091,849.3756,335.3697,846.2017,328.8947,839.004,329.334" style="stroke: #A80036; stroke-width: 1.0;"/><!--MD5=[634f61b11763d51c07f48b87621966a9]
link utils.TCPIP to java.net.Socket--><path d="M849.5577,335.697 C849.5577,335.697 854.219,338.125 856,339 C977.258,398.575 1042.88,322.16 1154,399 C1176.45,414.523 1192.43,441.087 1202.54,462.792 " fill="none" id="utils.TCPIP-java.net.Socket" style="stroke: #A80036; stroke-width: 1.0;"/><polygon fill="#A80036" points="1207.82,474.89,1207.8869,465.0414,1205.8204,470.3072,1200.5545,468.2407,1207.82,474.89" style="stroke: #A80036; stroke-width: 1.0;"/><line style="stroke: #A80036; stroke-width: 1.0;" x1="1205.8204" x2="1202.62" y1="470.3072" y2="462.9745"/><polygon fill="#A80036" points="839.037,329.925,842.3733,336.3179,849.5577,335.697,846.2213,329.3041,839.037,329.925" style="stroke: #A80036; stroke-width: 1.0;"/><!--MD5=[f143d6b40338063c9b46470e66a09947]
link utils.TCPIP to java.io.BufferedReader--><path d="M849.2624,334.9222 C849.2624,334.9222 854.061,337.859 856,339 C923.258,378.563 967.122,342.555 1021,399 C1060.23,440.101 1097.66,605.669 1112.86,680.027 " fill="none" id="utils.TCPIP-java.io.BufferedReader" style="stroke: #A80036; stroke-width: 1.0;"/><polygon fill="#A80036" points="1115.52,693.21,1117.6628,683.5971,1114.532,688.3086,1109.8205,685.1778,1115.52,693.21" style="stroke: #A80036; stroke-width: 1.0;"/><line style="stroke: #A80036; stroke-width: 1.0;" x1="1114.532" x2="1112.95" y1="688.3086" y2="680.466"/><polygon fill="#A80036" points="839.13,328.493,842.0531,335.0851,849.2624,334.9222,846.3393,328.3301,839.13,328.493" style="stroke: #A80036; stroke-width: 1.0;"/><!--MD5=[5f25fdf29bcf345c096dbe00865ea77f]
link utils.TCPIP to mastermind.utils.TCPIP--><path d="M839.246,330.887 C844.77,333.82 850.36,336.538 856,339 C1081.35,437.389 1192.46,277.079 1406,399 C1434.3,415.159 1455.07,446.989 1467.28,470.209 " fill="none" id="utils.TCPIP-&gt;mastermind.utils.TCPIP" style="stroke: #A80036; stroke-width: 1.0; stroke-dasharray: 7.0,7.0;"/><polygon fill="#A80036" points="1469.61,474.731,1469.0446,464.8984,1467.3204,470.2861,1461.9327,468.5618,1469.61,474.731" style="stroke: #A80036; stroke-width: 1.0;"/><!--MD5=[da832c9da4ef95f5f2858fb2fdd7fbea]
link utils.WithConsoleView to utils.Console--><path d="M447.9604,239.9465 C447.9604,239.9465 482.431,314.962 515,339 C618.799,415.609 683.879,340.774 799,399 C801.02,400.022 803.031,401.089 805.033,402.199 " fill="none" id="utils.WithConsoleView-utils.Console" style="stroke: #A80036; stroke-width: 1.0;"/><polygon fill="#A80036" points="816.375,408.979,810.7029,400.9274,812.0835,406.4132,806.5977,407.7938,816.375,408.979" style="stroke: #A80036; stroke-width: 1.0;"/><line style="stroke: #A80036; stroke-width: 1.0;" x1="812.0835" x2="805.217" y1="406.4132" y2="402.3085"/><polygon fill="#A80036" points="443.813,228.686,442.1332,235.6987,447.9604,239.9465,449.6402,232.9338,443.813,228.686" style="stroke: #A80036; stroke-width: 1.0;"/><!--MD5=[82a20fc43030dfd0930f7facb7ac4b98]
reverse link utils.WithConsoleView to utils.YesNoDialog--><path d="M455.933,247.016 C469.997,276.591 490.095,312.274 515,339 C548.28,374.714 569.33,367.952 607,399 C614.667,405.319 622.371,412.192 629.899,419.271 " fill="none" id="utils.WithConsoleView&lt;-utils.YesNoDialog" style="stroke: #A80036; stroke-width: 1.0;"/><polygon fill="none" points="449.474,249.724,447.572,228.62,462.22,243.931,449.474,249.724" style="stroke: #A80036; stroke-width: 1.0;"/><!--MD5=[8a345d8f1ee5201d4008f66a27e92264]
@startuml

class  utils.ClosedInterval{
- max: int
- min: int
+ ClosedInterval(int, int)
+ includes(int): boolean
}

class  utils.Command{
# title: String
# Command(String)
# {abstract} execute(): void
# {abstract} isActive(): boolean
~ getTitle(): String
}
utils.WithConsoleView <|-down- utils.Command

class  utils.Console{
- bufferedReader: BufferedReader
+ Console()
+ write(char): void
+ write(String): void
+ readInt(String): int
+ readChar(String): char
+ readString(String): String
+ writeln(int): void
+ writeln(String): void
+ writeln(): void
+ writeError(String): void
}
utils.Console *-down-> java.io.BufferedReader

class  utils.Coordinate{
# row: int
# column: int
# Coordinate()
# Coordinate(int, int)
# getDirection(Coordinate): Direction
- inMainDiagonal(): boolean
- inVertical(Coordinate): boolean
- inHorizontal(Coordinate): boolean
+ getRow(): int
+ getColumn(): int
+ equals(Coordinate): boolean
}
utils.Coordinate ..> utils.Direction

enum  utils.Direction{
  VERTICAL
  HORIZONTAL
  MAIN_DIAGONAL
  INVERSE_DIAGONAL
}

class  utils.Menu{
- {static} OPTION: String
- commandList: ArrayList<Command>
+ Menu()
+ execute(): void
# addCommand(Command): void
}
utils.WithConsoleView <|-down- utils.Menu
utils.Menu *-down-> utils.Command
utils.Menu ..> utils.CloseInterval

class  utils.PlayersDialog{
- {static} USERS_ERROR: String
+ read(int): int
}
utils.WithConsoleView <|-down- utils.PlayersDialog

class  utils.TCPIP{
- serverSocket: ServerSocket
- socket: Socket
- out: PrintWriter
- in: BufferedReader
+ TCPIP(PrintWriter, Socket, BufferedReader)
+ TCPIP(ServerSocket, PrintWriter, BufferedReader, Socket)
+ close(): void
+ {static} createClientSocket(): TCPIP
+ {static} createServerSocket(): TCPIP
+ receiveInt(): int
+ send(int): void
+ send(String): void
+ send(boolean): void
+ send(char): void
+ receiveBoolean(): boolean
+ receiveInt(): int
+ receiveChar(): char
+ receiveLine(): String
}
utils.TCPIP *-down-> java.net.ServerSocket
utils.TCPIP *-down-> java.io.PrintWriter
utils.TCPIP *-down-> java.net.Socket
utils.TCPIP *-down-> java.io.BufferedReader
utils.TCPIP ..> mastermind.utils.TCPIP

class  utils.WithConsoleView{
# console: Console
# WithConsoleView()
}
utils.WithConsoleView *-down-> utils.Console

class  utils.YesNoDialog{
- {static} AFIRMATIVE: char
- {static} NEGATIVE: char
- {static} QUESTION: String
- {static} MESSAGE: String
+ YesNoDialog()
+ read(String): boolean
- {static} isNegative(char): boolean
- {static} isAfirmative(char): boolean
}
utils.WithConsoleView <|-down- utils.YesNoDialog

@enduml

PlantUML version 1.2020.15(Sun Jun 28 13:39:45 CEST 2020)
(GPL source distribution)
Java Runtime: Java(TM) SE Runtime Environment
JVM: Java HotSpot(TM) 64-Bit Server VM
Default Encoding: windows-1252
Language: es
Country: ES
--></g></svg>