<?xml version="1.0" encoding="UTF-8" standalone="no"?><svg xmlns="http://www.w3.org/2000/svg" xmlns:xlink="http://www.w3.org/1999/xlink" contentScriptType="application/ecmascript" contentStyleType="text/css" height="311px" preserveAspectRatio="none" style="width:842px;height:311px;" version="1.1" viewBox="0 0 842 311" width="842px" zoomAndPan="magnify"><defs><filter height="300%" id="fm42y6yt2v9i" width="300%" x="-1" y="-1"><feGaussianBlur result="blurOut" stdDeviation="2.0"/><feColorMatrix in="blurOut" result="blurOut2" type="matrix" values="0 0 0 0 0 0 0 0 0 0 0 0 0 0 0 0 0 0 .4 0"/><feOffset dx="4.0" dy="4.0" in="blurOut2" result="blurOut3"/><feBlend in="SourceGraphic" in2="blurOut3" mode="normal"/></filter></defs><g><!--MD5=[afa086bbcd8ffca9f665fc482cfb293b]
cluster usantatecla.tictactoe.views.console--><polygon fill="#FFFFFF" filter="url(#fm42y6yt2v9i)" points="16,199,273,199,280,222.6094,283,222.6094,283,299,16,299,16,199" style="stroke: #000000; stroke-width: 1.5;"/><line style="stroke: #000000; stroke-width: 1.5;" x1="16" x2="280" y1="222.6094" y2="222.6094"/><text fill="#000000" font-family="sans-serif" font-size="14" font-weight="bold" lengthAdjust="spacingAndGlyphs" textLength="251" x="20" y="215.5332">usantatecla.tictactoe.views.console</text><!--MD5=[ff910f53a95e9ddb48756cce2cdc7811]
cluster usantatecla.tictactoe.models--><polygon fill="#FFFFFF" filter="url(#fm42y6yt2v9i)" points="307,199,514,199,521,222.6094,524,222.6094,524,299,307,299,307,199" style="stroke: #000000; stroke-width: 1.5;"/><line style="stroke: #000000; stroke-width: 1.5;" x1="307" x2="521" y1="222.6094" y2="222.6094"/><text fill="#000000" font-family="sans-serif" font-size="14" font-weight="bold" lengthAdjust="spacingAndGlyphs" textLength="201" x="311" y="215.5332">usantatecla.tictactoe.models</text><!--MD5=[4a2c519a1d4e2059eb71d825c7d6555c]
cluster usantatecla.tictactoe.views.graphics--><polygon fill="#FFFFFF" filter="url(#fm42y6yt2v9i)" points="548,199,810,199,817,222.6094,820,222.6094,820,299,548,299,548,199" style="stroke: #000000; stroke-width: 1.5;"/><line style="stroke: #000000; stroke-width: 1.5;" x1="548" x2="817" y1="222.6094" y2="222.6094"/><text fill="#000000" font-family="sans-serif" font-size="14" font-weight="bold" lengthAdjust="spacingAndGlyphs" textLength="256" x="552" y="215.5332">usantatecla.tictactoe.views.graphics</text><!--MD5=[b59da53bc4cb019b9115ab51e8207bb0]
cluster usantatecla.tictactoe--><polygon fill="#FFFFFF" filter="url(#fm42y6yt2v9i)" points="186,6,338,6,345,29.6094,529,29.6094,529,175,186,175,186,6" style="stroke: #000000; stroke-width: 1.5;"/><line style="stroke: #000000; stroke-width: 1.5;" x1="186" x2="345" y1="29.6094" y2="29.6094"/><text fill="#000000" font-family="sans-serif" font-size="14" font-weight="bold" lengthAdjust="spacingAndGlyphs" textLength="146" x="190" y="22.5332">usantatecla.tictactoe</text><!--MD5=[c4911e3e347487aad58a8f7d79253fc2]
class usantatecla.tictactoe.views.console.View--><rect fill="#FEFECE" filter="url(#fm42y6yt2v9i)" height="48" id="usantatecla.tictactoe.views.console.View" style="stroke: #A80036; stroke-width: 1.5;" width="58" x="209" y="235"/><ellipse cx="224" cy="251" fill="#ADD1B2" rx="11" ry="11" style="stroke: #A80036; stroke-width: 1.0;"/><path d="M226.7656,246.875 Q226.9219,246.6563 227.1094,246.5469 Q227.2969,246.4375 227.5156,246.4375 Q227.8906,246.4375 228.125,246.6953 Q228.3594,246.9531 228.3594,247.5625 L228.3594,249.0156 Q228.3594,249.625 228.125,249.8906 Q227.8906,250.1563 227.5156,250.1563 Q227.1719,250.1563 226.9688,249.9531 Q226.7656,249.7656 226.6563,249.25 Q226.6094,248.8906 226.4219,248.7031 Q226.0938,248.3281 225.4844,248.1094 Q224.875,247.8906 224.25,247.8906 Q223.4844,247.8906 222.8516,248.2188 Q222.2188,248.5469 221.7266,249.2969 Q221.2344,250.0469 221.2344,251.0781 L221.2344,252.1719 Q221.2344,253.4063 222.125,254.2266 Q223.0156,255.0469 224.6094,255.0469 Q225.5469,255.0469 226.2031,254.7969 Q226.5938,254.6406 227.0156,254.2031 Q227.2813,253.9375 227.4297,253.8594 Q227.5781,253.7813 227.7813,253.7813 Q228.1094,253.7813 228.3672,254.0391 Q228.625,254.2969 228.625,254.6406 Q228.625,254.9844 228.2813,255.3906 Q227.7813,255.9688 226.9844,256.2969 Q225.9063,256.75 224.6094,256.75 Q223.0938,256.75 221.8906,256.125 Q220.9063,255.625 220.2188,254.5547 Q219.5313,253.4844 219.5313,252.2031 L219.5313,251.0469 Q219.5313,249.7188 220.1484,248.5703 Q220.7656,247.4219 221.8594,246.8047 Q222.9531,246.1875 224.1875,246.1875 Q224.9219,246.1875 225.5703,246.3516 Q226.2188,246.5156 226.7656,246.875 Z "/><text fill="#000000" font-family="sans-serif" font-size="12" lengthAdjust="spacingAndGlyphs" textLength="26" x="238" y="255.9102">View</text><line style="stroke: #A80036; stroke-width: 1.5;" x1="210" x2="266" y1="267" y2="267"/><line style="stroke: #A80036; stroke-width: 1.5;" x1="210" x2="266" y1="275" y2="275"/><!--MD5=[eee1b2c59fccd10800fe236232c65681]
class usantatecla.tictactoe.models.Game--><rect fill="#FEFECE" filter="url(#fm42y6yt2v9i)" height="48" id="usantatecla.tictactoe.models.Game" style="stroke: #A80036; stroke-width: 1.5;" width="66" x="367" y="235"/><ellipse cx="382" cy="251" fill="#ADD1B2" rx="11" ry="11" style="stroke: #A80036; stroke-width: 1.0;"/><path d="M384.7656,246.875 Q384.9219,246.6563 385.1094,246.5469 Q385.2969,246.4375 385.5156,246.4375 Q385.8906,246.4375 386.125,246.6953 Q386.3594,246.9531 386.3594,247.5625 L386.3594,249.0156 Q386.3594,249.625 386.125,249.8906 Q385.8906,250.1563 385.5156,250.1563 Q385.1719,250.1563 384.9688,249.9531 Q384.7656,249.7656 384.6563,249.25 Q384.6094,248.8906 384.4219,248.7031 Q384.0938,248.3281 383.4844,248.1094 Q382.875,247.8906 382.25,247.8906 Q381.4844,247.8906 380.8516,248.2188 Q380.2188,248.5469 379.7266,249.2969 Q379.2344,250.0469 379.2344,251.0781 L379.2344,252.1719 Q379.2344,253.4063 380.125,254.2266 Q381.0156,255.0469 382.6094,255.0469 Q383.5469,255.0469 384.2031,254.7969 Q384.5938,254.6406 385.0156,254.2031 Q385.2813,253.9375 385.4297,253.8594 Q385.5781,253.7813 385.7813,253.7813 Q386.1094,253.7813 386.3672,254.0391 Q386.625,254.2969 386.625,254.6406 Q386.625,254.9844 386.2813,255.3906 Q385.7813,255.9688 384.9844,256.2969 Q383.9063,256.75 382.6094,256.75 Q381.0938,256.75 379.8906,256.125 Q378.9063,255.625 378.2188,254.5547 Q377.5313,253.4844 377.5313,252.2031 L377.5313,251.0469 Q377.5313,249.7188 378.1484,248.5703 Q378.7656,247.4219 379.8594,246.8047 Q380.9531,246.1875 382.1875,246.1875 Q382.9219,246.1875 383.5703,246.3516 Q384.2188,246.5156 384.7656,246.875 Z "/><text fill="#000000" font-family="sans-serif" font-size="12" lengthAdjust="spacingAndGlyphs" textLength="34" x="396" y="255.9102">Game</text><line style="stroke: #A80036; stroke-width: 1.5;" x1="368" x2="432" y1="267" y2="267"/><line style="stroke: #A80036; stroke-width: 1.5;" x1="368" x2="432" y1="275" y2="275"/><!--MD5=[e1cf5598b47e4cc94d223fc7e89ccad6]
class usantatecla.tictactoe.views.graphics.View--><rect fill="#FEFECE" filter="url(#fm42y6yt2v9i)" height="48" id="usantatecla.tictactoe.views.graphics.View" style="stroke: #A80036; stroke-width: 1.5;" width="58" x="564" y="235"/><ellipse cx="579" cy="251" fill="#ADD1B2" rx="11" ry="11" style="stroke: #A80036; stroke-width: 1.0;"/><path d="M581.7656,246.875 Q581.9219,246.6563 582.1094,246.5469 Q582.2969,246.4375 582.5156,246.4375 Q582.8906,246.4375 583.125,246.6953 Q583.3594,246.9531 583.3594,247.5625 L583.3594,249.0156 Q583.3594,249.625 583.125,249.8906 Q582.8906,250.1563 582.5156,250.1563 Q582.1719,250.1563 581.9688,249.9531 Q581.7656,249.7656 581.6563,249.25 Q581.6094,248.8906 581.4219,248.7031 Q581.0938,248.3281 580.4844,248.1094 Q579.875,247.8906 579.25,247.8906 Q578.4844,247.8906 577.8516,248.2188 Q577.2188,248.5469 576.7266,249.2969 Q576.2344,250.0469 576.2344,251.0781 L576.2344,252.1719 Q576.2344,253.4063 577.125,254.2266 Q578.0156,255.0469 579.6094,255.0469 Q580.5469,255.0469 581.2031,254.7969 Q581.5938,254.6406 582.0156,254.2031 Q582.2813,253.9375 582.4297,253.8594 Q582.5781,253.7813 582.7813,253.7813 Q583.1094,253.7813 583.3672,254.0391 Q583.625,254.2969 583.625,254.6406 Q583.625,254.9844 583.2813,255.3906 Q582.7813,255.9688 581.9844,256.2969 Q580.9063,256.75 579.6094,256.75 Q578.0938,256.75 576.8906,256.125 Q575.9063,255.625 575.2188,254.5547 Q574.5313,253.4844 574.5313,252.2031 L574.5313,251.0469 Q574.5313,249.7188 575.1484,248.5703 Q575.7656,247.4219 576.8594,246.8047 Q577.9531,246.1875 579.1875,246.1875 Q579.9219,246.1875 580.5703,246.3516 Q581.2188,246.5156 581.7656,246.875 Z "/><text fill="#000000" font-family="sans-serif" font-size="12" lengthAdjust="spacingAndGlyphs" textLength="26" x="593" y="255.9102">View</text><line style="stroke: #A80036; stroke-width: 1.5;" x1="565" x2="621" y1="267" y2="267"/><line style="stroke: #A80036; stroke-width: 1.5;" x1="565" x2="621" y1="275" y2="275"/><!--MD5=[03c339352ae0a66a83a9809d2d9c2b7e]
class usantatecla.tictactoe.ConsoleTicTacToe--><rect fill="#FEFECE" filter="url(#fm42y6yt2v9i)" height="117.1797" id="usantatecla.tictactoe.ConsoleTicTacToe" style="stroke: #A80036; stroke-width: 1.5;" width="136" x="202" y="42"/><ellipse cx="217" cy="58" fill="#ADD1B2" rx="11" ry="11" style="stroke: #A80036; stroke-width: 1.0;"/><path d="M219.7656,53.875 Q219.9219,53.6563 220.1094,53.5469 Q220.2969,53.4375 220.5156,53.4375 Q220.8906,53.4375 221.125,53.6953 Q221.3594,53.9531 221.3594,54.5625 L221.3594,56.0156 Q221.3594,56.625 221.125,56.8906 Q220.8906,57.1563 220.5156,57.1563 Q220.1719,57.1563 219.9688,56.9531 Q219.7656,56.7656 219.6563,56.25 Q219.6094,55.8906 219.4219,55.7031 Q219.0938,55.3281 218.4844,55.1094 Q217.875,54.8906 217.25,54.8906 Q216.4844,54.8906 215.8516,55.2188 Q215.2188,55.5469 214.7266,56.2969 Q214.2344,57.0469 214.2344,58.0781 L214.2344,59.1719 Q214.2344,60.4063 215.125,61.2266 Q216.0156,62.0469 217.6094,62.0469 Q218.5469,62.0469 219.2031,61.7969 Q219.5938,61.6406 220.0156,61.2031 Q220.2813,60.9375 220.4297,60.8594 Q220.5781,60.7813 220.7813,60.7813 Q221.1094,60.7813 221.3672,61.0391 Q221.625,61.2969 221.625,61.6406 Q221.625,61.9844 221.2813,62.3906 Q220.7813,62.9688 219.9844,63.2969 Q218.9063,63.75 217.6094,63.75 Q216.0938,63.75 214.8906,63.125 Q213.9063,62.625 213.2188,61.5547 Q212.5313,60.4844 212.5313,59.2031 L212.5313,58.0469 Q212.5313,56.7188 213.1484,55.5703 Q213.7656,54.4219 214.8594,53.8047 Q215.9531,53.1875 217.1875,53.1875 Q217.9219,53.1875 218.5703,53.3516 Q219.2188,53.5156 219.7656,53.875 Z "/><text fill="#000000" font-family="sans-serif" font-size="12" lengthAdjust="spacingAndGlyphs" textLength="104" x="231" y="62.9102">ConsoleTicTacToe</text><line style="stroke: #A80036; stroke-width: 1.5;" x1="203" x2="337" y1="74" y2="74"/><rect fill="none" height="6" style="stroke: #C82930; stroke-width: 1.0;" width="6" x="210" y="82"/><text fill="#000000" font-family="sans-serif" font-size="11" lengthAdjust="spacingAndGlyphs" textLength="60" x="222" y="89.4189">Game game;</text><rect fill="none" height="6" style="stroke: #C82930; stroke-width: 1.0;" width="6" x="210" y="95.8359"/><text fill="#000000" font-family="sans-serif" font-size="11" lengthAdjust="spacingAndGlyphs" textLength="56" x="222" y="103.2549">View view;</text><line style="stroke: #A80036; stroke-width: 1.5;" x1="203" x2="337" y1="109.6719" y2="109.6719"/><text fill="#000000" font-family="sans-serif" font-size="11" lengthAdjust="spacingAndGlyphs" textLength="97" x="222" y="125.0908">ConsoleTicTacToe()</text><rect fill="#F24D5C" height="6" style="stroke: #C82930; stroke-width: 1.0;" width="6" x="210" y="131.5078"/><text fill="#000000" font-family="sans-serif" font-size="11" lengthAdjust="spacingAndGlyphs" textLength="51" x="222" y="138.9268">void play()</text><ellipse cx="213" cy="148.3438" fill="#84BE84" rx="3" ry="3" style="stroke: #038048; stroke-width: 1.0;"/><text fill="#000000" font-family="sans-serif" font-size="11" lengthAdjust="spacingAndGlyphs" text-decoration="underline" textLength="75" x="222" y="152.7627">void main(args)</text><!--MD5=[44e3097ba2e6697655acc7ad5ebd4556]
class usantatecla.tictactoe.GraphicsTicTacToe--><rect fill="#FEFECE" filter="url(#fm42y6yt2v9i)" height="117.1797" id="usantatecla.tictactoe.GraphicsTicTacToe" style="stroke: #A80036; stroke-width: 1.5;" width="139" x="373.5" y="42"/><ellipse cx="388.5" cy="58" fill="#ADD1B2" rx="11" ry="11" style="stroke: #A80036; stroke-width: 1.0;"/><path d="M391.2656,53.875 Q391.4219,53.6563 391.6094,53.5469 Q391.7969,53.4375 392.0156,53.4375 Q392.3906,53.4375 392.625,53.6953 Q392.8594,53.9531 392.8594,54.5625 L392.8594,56.0156 Q392.8594,56.625 392.625,56.8906 Q392.3906,57.1563 392.0156,57.1563 Q391.6719,57.1563 391.4688,56.9531 Q391.2656,56.7656 391.1563,56.25 Q391.1094,55.8906 390.9219,55.7031 Q390.5938,55.3281 389.9844,55.1094 Q389.375,54.8906 388.75,54.8906 Q387.9844,54.8906 387.3516,55.2188 Q386.7188,55.5469 386.2266,56.2969 Q385.7344,57.0469 385.7344,58.0781 L385.7344,59.1719 Q385.7344,60.4063 386.625,61.2266 Q387.5156,62.0469 389.1094,62.0469 Q390.0469,62.0469 390.7031,61.7969 Q391.0938,61.6406 391.5156,61.2031 Q391.7813,60.9375 391.9297,60.8594 Q392.0781,60.7813 392.2813,60.7813 Q392.6094,60.7813 392.8672,61.0391 Q393.125,61.2969 393.125,61.6406 Q393.125,61.9844 392.7813,62.3906 Q392.2813,62.9688 391.4844,63.2969 Q390.4063,63.75 389.1094,63.75 Q387.5938,63.75 386.3906,63.125 Q385.4063,62.625 384.7188,61.5547 Q384.0313,60.4844 384.0313,59.2031 L384.0313,58.0469 Q384.0313,56.7188 384.6484,55.5703 Q385.2656,54.4219 386.3594,53.8047 Q387.4531,53.1875 388.6875,53.1875 Q389.4219,53.1875 390.0703,53.3516 Q390.7188,53.5156 391.2656,53.875 Z "/><text fill="#000000" font-family="sans-serif" font-size="12" lengthAdjust="spacingAndGlyphs" textLength="107" x="402.5" y="62.9102">GraphicsTicTacToe</text><line style="stroke: #A80036; stroke-width: 1.5;" x1="374.5" x2="511.5" y1="74" y2="74"/><rect fill="none" height="6" style="stroke: #C82930; stroke-width: 1.0;" width="6" x="381.5" y="82"/><text fill="#000000" font-family="sans-serif" font-size="11" lengthAdjust="spacingAndGlyphs" textLength="60" x="393.5" y="89.4189">Game game;</text><rect fill="none" height="6" style="stroke: #C82930; stroke-width: 1.0;" width="6" x="381.5" y="95.8359"/><text fill="#000000" font-family="sans-serif" font-size="11" lengthAdjust="spacingAndGlyphs" textLength="56" x="393.5" y="103.2549">View view;</text><line style="stroke: #A80036; stroke-width: 1.5;" x1="374.5" x2="511.5" y1="109.6719" y2="109.6719"/><rect fill="#F24D5C" height="6" style="stroke: #C82930; stroke-width: 1.0;" width="6" x="381.5" y="117.6719"/><text fill="#000000" font-family="sans-serif" font-size="11" lengthAdjust="spacingAndGlyphs" textLength="102" x="393.5" y="125.0908">GraphicsTicTacToe()</text><rect fill="#F24D5C" height="6" style="stroke: #C82930; stroke-width: 1.0;" width="6" x="381.5" y="131.5078"/><text fill="#000000" font-family="sans-serif" font-size="11" lengthAdjust="spacingAndGlyphs" textLength="51" x="393.5" y="138.9268">void play()</text><ellipse cx="384.5" cy="148.3438" fill="#84BE84" rx="3" ry="3" style="stroke: #038048; stroke-width: 1.0;"/><text fill="#000000" font-family="sans-serif" font-size="11" lengthAdjust="spacingAndGlyphs" text-decoration="underline" textLength="82" x="393.5" y="152.7627">void main(Sargs)</text><!--MD5=[0de1c43649bb24fd158901e9abde5945]
link usantatecla.tictactoe.ConsoleTicTacToe to usantatecla.tictactoe.views.console.View--><path d="M255.7712,171.0868 C255.7712,171.0868 248.482,206.735 245.463,221.5029 " fill="none" id="usantatecla.tictactoe.ConsoleTicTacToe-usantatecla.tictactoe.views.console.View" style="stroke: #A80036; stroke-width: 1.0;"/><polygon fill="#A80036" points="242.765,234.6945,248.4871,226.6784,243.7668,229.7959,240.6493,225.0756,242.765,234.6945" style="stroke: #A80036; stroke-width: 1.0;"/><line style="stroke: #A80036; stroke-width: 1.0;" x1="243.7668" x2="245.3695" y1="229.7959" y2="221.9581"/><polygon fill="#A80036" points="258.175,159.33,253.0542,164.4071,255.7712,171.0868,260.892,166.0097,258.175,159.33" style="stroke: #A80036; stroke-width: 1.0;"/><!--MD5=[30d8f9020923e797d4b7d331f232d7ab]
link usantatecla.tictactoe.GraphicsTicTacToe to usantatecla.tictactoe.views.graphics.View--><path d="M506.7314,167.9934 C506.7314,167.9934 545.797,208.752 561.454,225.0875 " fill="none" id="usantatecla.tictactoe.GraphicsTicTacToe-usantatecla.tictactoe.views.graphics.View" style="stroke: #A80036; stroke-width: 1.0;"/><polygon fill="#A80036" points="570.662,234.6945,567.3224,225.4291,567.2023,231.0847,561.5467,230.9646,570.662,234.6945" style="stroke: #A80036; stroke-width: 1.0;"/><line style="stroke: #A80036; stroke-width: 1.0;" x1="567.2023" x2="561.667" y1="231.0847" y2="225.3093"/><polygon fill="#A80036" points="498.428,159.33,499.6919,166.4295,506.7314,167.9934,505.4675,160.8939,498.428,159.33" style="stroke: #A80036; stroke-width: 1.0;"/><!--MD5=[0daf196e6572ad69ee9a7d5fbbb76b14]
link usantatecla.tictactoe.ConsoleTicTacToe to usantatecla.tictactoe.models.Game--><path d="M325.7059,168.5605 C325.7059,168.5605 358.668,208.243 371.972,224.258 " fill="none" id="usantatecla.tictactoe.ConsoleTicTacToe-usantatecla.tictactoe.models.Game" style="stroke: #A80036; stroke-width: 1.0;"/><polygon fill="#A80036" points="380.641,234.6945,377.9671,225.2156,377.4461,230.8484,371.8133,230.3274,380.641,234.6945" style="stroke: #A80036; stroke-width: 1.0;"/><line style="stroke: #A80036; stroke-width: 1.0;" x1="377.4461" x2="372.334" y1="230.8484" y2="224.6946"/><polygon fill="#A80036" points="318.038,159.33,318.7951,166.5012,325.7059,168.5605,324.9488,161.3893,318.038,159.33" style="stroke: #A80036; stroke-width: 1.0;"/><!--MD5=[80864a3d6ee9b34976fa1adeac40664e]
link usantatecla.tictactoe.GraphicsTicTacToe to usantatecla.tictactoe.models.Game--><path d="M423.9317,170.9012 C423.9317,170.9012 413.986,207.097 409.903,221.9588 " fill="none" id="usantatecla.tictactoe.GraphicsTicTacToe-usantatecla.tictactoe.models.Game" style="stroke: #A80036; stroke-width: 1.0;"/><polygon fill="#A80036" points="406.403,234.6945,412.6445,227.0759,407.7277,229.8732,404.9304,224.9564,406.403,234.6945" style="stroke: #A80036; stroke-width: 1.0;"/><line style="stroke: #A80036; stroke-width: 1.0;" x1="407.7277" x2="409.8475" y1="229.8732" y2="222.1591"/><polygon fill="#A80036" points="427.111,159.33,421.6643,164.0558,423.9317,170.9012,429.3784,166.1753,427.111,159.33" style="stroke: #A80036; stroke-width: 1.0;"/><!--MD5=[77573e40987dbbf9c84c718566ff1d2c]
@startuml

namespace usantatecla.tictactoe.views.console {
class View
}


namespace usantatecla.tictactoe.models {
class Game
}

namespace usantatecla.tictactoe.views.graphics {
class View
}


namespace usantatecla.tictactoe {

class ConsoleTicTacToe {
	- Game game;
	- View view;
	ConsoleTicTacToe()
	- void play()
	+ {static} void main(args)

}

class GraphicsTicTacToe {
	- Game game;
	- View view;
	- GraphicsTicTacToe()
	- void play()
	+ {static} void main(Sargs)
}

}

usantatecla.tictactoe.ConsoleTicTacToe *-down-> usantatecla.tictactoe.views.console.View
usantatecla.tictactoe.GraphicsTicTacToe *-down-> usantatecla.tictactoe.views.graphics.View

usantatecla.tictactoe.ConsoleTicTacToe *-down-> usantatecla.tictactoe.models.Game
usantatecla.tictactoe.GraphicsTicTacToe *-down-> usantatecla.tictactoe.models.Game

@enduml

PlantUML version 1.2020.15(Sun Jun 28 13:39:45 CEST 2020)
(GPL source distribution)
Java Runtime: OpenJDK Runtime Environment
JVM: OpenJDK 64-Bit Server VM
Default Encoding: windows-1252
Language: es
Country: ES
--></g></svg>