<?xml version="1.0" encoding="UTF-8" standalone="no"?><svg xmlns="http://www.w3.org/2000/svg" xmlns:xlink="http://www.w3.org/1999/xlink" contentScriptType="application/ecmascript" contentStyleType="text/css" height="1231px" preserveAspectRatio="none" style="width:1451px;height:1231px;" version="1.1" viewBox="0 0 1451 1231" width="1451px" zoomAndPan="magnify"><defs><filter height="300%" id="f1pjef5t241e00" width="300%" x="-1" y="-1"><feGaussianBlur result="blurOut" stdDeviation="2.0"/><feColorMatrix in="blurOut" result="blurOut2" type="matrix" values="0 0 0 0 0 0 0 0 0 0 0 0 0 0 0 0 0 0 .4 0"/><feOffset dx="4.0" dy="4.0" in="blurOut2" result="blurOut3"/><feBlend in="SourceGraphic" in2="blurOut3" mode="normal"/></filter></defs><g><!--MD5=[807bc46d8103c809ff053af9e140e1f5]
cluster tictactoe--><polygon fill="#FFFFFF" filter="url(#f1pjef5t241e00)" points="29.2605,6,96.2605,6,103.2605,29.6094,1382.2605,29.6094,1382.2605,1095,29.2605,1095,29.2605,6" style="stroke: #000000; stroke-width: 1.5;"/><line style="stroke: #000000; stroke-width: 1.5;" x1="29.2605" x2="103.2605" y1="29.6094" y2="29.6094"/><text fill="#000000" font-family="sans-serif" font-size="14" font-weight="bold" lengthAdjust="spacingAndGlyphs" textLength="61" x="33.2605" y="22.5332">tictactoe</text><!--MD5=[c52f45833d539af9e29a9d34b8b7302b]
cluster utils--><polygon fill="#FFFFFF" filter="url(#f1pjef5t241e00)" points="572.2605,1119,608.2605,1119,615.2605,1142.6094,1099.2605,1142.6094,1099.2605,1219,572.2605,1219,572.2605,1119" style="stroke: #000000; stroke-width: 1.5;"/><line style="stroke: #000000; stroke-width: 1.5;" x1="572.2605" x2="615.2605" y1="1142.6094" y2="1142.6094"/><text fill="#000000" font-family="sans-serif" font-size="14" font-weight="bold" lengthAdjust="spacingAndGlyphs" textLength="30" x="576.2605" y="1135.5332">utils</text><!--MD5=[7db3c59d38ae5b37b484eb2df9368145]
cluster java.util--><polygon fill="#FFFFFF" filter="url(#f1pjef5t241e00)" points="436.2605,1119,497.2605,1119,504.2605,1142.6094,548.2605,1142.6094,548.2605,1219,436.2605,1219,436.2605,1119" style="stroke: #000000; stroke-width: 1.5;"/><line style="stroke: #000000; stroke-width: 1.5;" x1="436.2605" x2="504.2605" y1="1142.6094" y2="1142.6094"/><text fill="#000000" font-family="sans-serif" font-size="14" font-weight="bold" lengthAdjust="spacingAndGlyphs" textLength="55" x="440.2605" y="1135.5332">java.util</text><!--MD5=[fe8c2a3a027cc482bba355aece2adaca]
class tictactoe.Board--><rect fill="#FEFECE" filter="url(#f1pjef5t241e00)" height="283.2109" id="tictactoe.Board" style="stroke: #A80036; stroke-width: 1.5;" width="298" x="472.2605" y="563"/><ellipse cx="600.5105" cy="579" fill="#ADD1B2" rx="11" ry="11" style="stroke: #A80036; stroke-width: 1.0;"/><path d="M603.2761,574.875 Q603.4323,574.6563 603.6198,574.5469 Q603.8073,574.4375 604.0261,574.4375 Q604.4011,574.4375 604.6355,574.7031 Q604.8698,574.9531 604.8698,575.5625 L604.8698,577.0156 Q604.8698,577.625 604.6355,577.8906 Q604.4011,578.1563 604.0261,578.1563 Q603.6823,578.1563 603.4792,577.9531 Q603.2761,577.7656 603.1667,577.25 Q603.1198,576.8906 602.9323,576.7031 Q602.6042,576.3281 601.9948,576.1094 Q601.3855,575.8906 600.7605,575.8906 Q599.9948,575.8906 599.3542,576.2188 Q598.7292,576.5469 598.2292,577.2969 Q597.7448,578.0469 597.7448,579.0781 L597.7448,580.1719 Q597.7448,581.4063 598.6355,582.2344 Q599.5261,583.0469 601.1198,583.0469 Q602.0573,583.0469 602.7136,582.7969 Q603.1042,582.6406 603.5261,582.2031 Q603.7917,581.9375 603.9323,581.8594 Q604.0886,581.7813 604.2917,581.7813 Q604.6198,581.7813 604.8698,582.0469 Q605.1355,582.2969 605.1355,582.6406 Q605.1355,582.9844 604.7917,583.3906 Q604.2917,583.9688 603.4948,584.2969 Q602.4167,584.75 601.1198,584.75 Q599.6042,584.75 598.4011,584.125 Q597.4167,583.625 596.7292,582.5625 Q596.0417,581.4844 596.0417,580.2031 L596.0417,579.0469 Q596.0417,577.7188 596.6511,576.5781 Q597.2761,575.4219 598.3698,574.8125 Q599.4636,574.1875 600.698,574.1875 Q601.4323,574.1875 602.073,574.3594 Q602.7292,574.5156 603.2761,574.875 Z "/><text fill="#000000" font-family="sans-serif" font-size="12" lengthAdjust="spacingAndGlyphs" textLength="33" x="621.0105" y="583.9102">Board</text><line style="stroke: #A80036; stroke-width: 1.5;" x1="473.2605" x2="769.2605" y1="595" y2="595"/><rect fill="none" height="6" style="stroke: #C82930; stroke-width: 1.0;" width="6" x="480.2605" y="603"/><text fill="#000000" font-family="sans-serif" font-size="11" lengthAdjust="spacingAndGlyphs" textLength="127" x="492.2605" y="610.4189">coordinates: Coordinate[][]</text><line style="stroke: #A80036; stroke-width: 1.5;" x1="473.2605" x2="769.2605" y1="616.8359" y2="616.8359"/><polygon fill="#4177AF" points="483.2605,623.8359,479.2605,629.8359,487.2605,629.8359" style="stroke: #1963A0; stroke-width: 1.0;"/><text fill="#000000" font-family="sans-serif" font-size="11" lengthAdjust="spacingAndGlyphs" textLength="37" x="492.2605" y="632.2549">Board()</text><polygon fill="#4177AF" points="483.2605,637.6719,479.2605,643.6719,487.2605,643.6719" style="stroke: #1963A0; stroke-width: 1.0;"/><text fill="#000000" font-family="sans-serif" font-size="11" lengthAdjust="spacingAndGlyphs" textLength="59" x="492.2605" y="646.0908">write(): void</text><rect fill="#F24D5C" height="6" style="stroke: #C82930; stroke-width: 1.0;" width="6" x="480.2605" y="652.5078"/><text fill="#000000" font-family="sans-serif" font-size="11" lengthAdjust="spacingAndGlyphs" textLength="139" x="492.2605" y="659.9268">getToken(Coordinate): Token</text><polygon fill="#4177AF" points="483.2605,665.3438,479.2605,671.3438,487.2605,671.3438" style="stroke: #1963A0; stroke-width: 1.0;"/><text fill="#000000" font-family="sans-serif" font-size="11" lengthAdjust="spacingAndGlyphs" textLength="170" x="492.2605" y="673.7627">move(Coordinate, Coordinate): void</text><polygon fill="#4177AF" points="483.2605,679.1797,479.2605,685.1797,487.2605,685.1797" style="stroke: #1963A0; stroke-width: 1.0;"/><text fill="#000000" font-family="sans-serif" font-size="11" lengthAdjust="spacingAndGlyphs" textLength="136" x="492.2605" y="687.5986">put(Coordinate, Token): void</text><rect fill="#F24D5C" height="6" style="stroke: #C82930; stroke-width: 1.0;" width="6" x="480.2605" y="694.0156"/><text fill="#000000" font-family="sans-serif" font-size="11" lengthAdjust="spacingAndGlyphs" textLength="122" x="492.2605" y="701.4346">remove(Coordinate): void</text><polygon fill="#4177AF" points="483.2605,706.8516,479.2605,712.8516,487.2605,712.8516" style="stroke: #1963A0; stroke-width: 1.0;"/><text fill="#000000" font-family="sans-serif" font-size="11" lengthAdjust="spacingAndGlyphs" textLength="139" x="492.2605" y="715.2705">isTicTacToe(Token): boolean</text><rect fill="#F24D5C" height="6" style="stroke: #C82930; stroke-width: 1.0;" width="6" x="480.2605" y="721.6875"/><text fill="#000000" font-family="sans-serif" font-size="11" lengthAdjust="spacingAndGlyphs" textLength="189" x="492.2605" y="729.1064">numberOfCoordinates(Coordinate[]): int</text><polygon fill="#4177AF" points="483.2605,734.5234,479.2605,740.5234,487.2605,740.5234" style="stroke: #1963A0; stroke-width: 1.0;"/><text fill="#000000" font-family="sans-serif" font-size="11" lengthAdjust="spacingAndGlyphs" textLength="110" x="492.2605" y="742.9424">isCompleted(): boolean</text><polygon fill="#4177AF" points="483.2605,748.3594,479.2605,754.3594,487.2605,754.3594" style="stroke: #1963A0; stroke-width: 1.0;"/><text fill="#000000" font-family="sans-serif" font-size="11" lengthAdjust="spacingAndGlyphs" textLength="141" x="492.2605" y="756.7783">isEmpty(Coordinate): boolean</text><polygon fill="#4177AF" points="483.2605,762.1953,479.2605,768.1953,487.2605,768.1953" style="stroke: #1963A0; stroke-width: 1.0;"/><text fill="#000000" font-family="sans-serif" font-size="11" lengthAdjust="spacingAndGlyphs" textLength="193" x="492.2605" y="770.6143">isOccupied(Coordinate, Token): boolean</text><rect fill="#F24D5C" height="6" style="stroke: #C82930; stroke-width: 1.0;" width="6" x="480.2605" y="777.0313"/><text fill="#000000" font-family="sans-serif" font-size="11" lengthAdjust="spacingAndGlyphs" textLength="118" x="492.2605" y="784.4502">printRowBoard(int): void</text><rect fill="#F24D5C" height="6" style="stroke: #C82930; stroke-width: 1.0;" width="6" x="480.2605" y="790.8672"/><text fill="#000000" font-family="sans-serif" font-size="11" lengthAdjust="spacingAndGlyphs" textLength="175" x="492.2605" y="798.2861">printSquareValueBoard(int, int): void</text><rect fill="#F24D5C" height="6" style="stroke: #C82930; stroke-width: 1.0;" width="6" x="480.2605" y="804.7031"/><text fill="#000000" font-family="sans-serif" font-size="11" lengthAdjust="spacingAndGlyphs" textLength="246" x="492.2605" y="812.1221">checkNumberOfCoordinates(Coordinate[]): boolean</text><rect fill="#F24D5C" height="6" style="stroke: #C82930; stroke-width: 1.0;" width="6" x="480.2605" y="818.5391"/><text fill="#000000" font-family="sans-serif" font-size="11" lengthAdjust="spacingAndGlyphs" textLength="272" x="492.2605" y="825.958">checkDirectionOfFirstCoordinates(Coordinate[]): boolean</text><rect fill="#F24D5C" height="6" style="stroke: #C82930; stroke-width: 1.0;" width="6" x="480.2605" y="832.375"/><text fill="#000000" font-family="sans-serif" font-size="11" lengthAdjust="spacingAndGlyphs" textLength="263" x="492.2605" y="839.7939">checkDirectionOfAllCoordinates(Coordinate[]): boolean</text><!--MD5=[9a8c2a94ef3c6fa51e81ab3c6f9be706]
class tictactoe.Coordinate--><rect fill="#FEFECE" filter="url(#f1pjef5t241e00)" height="172.5234" id="tictactoe.Coordinate" style="stroke: #A80036; stroke-width: 1.5;" width="191" x="426.7605" y="906"/><ellipse cx="487.5105" cy="922" fill="#ADD1B2" rx="11" ry="11" style="stroke: #A80036; stroke-width: 1.0;"/><path d="M490.2761,917.875 Q490.4323,917.6563 490.6198,917.5469 Q490.8073,917.4375 491.0261,917.4375 Q491.4011,917.4375 491.6355,917.7031 Q491.8698,917.9531 491.8698,918.5625 L491.8698,920.0156 Q491.8698,920.625 491.6355,920.8906 Q491.4011,921.1563 491.0261,921.1563 Q490.6823,921.1563 490.4792,920.9531 Q490.2761,920.7656 490.1667,920.25 Q490.1198,919.8906 489.9323,919.7031 Q489.6042,919.3281 488.9948,919.1094 Q488.3855,918.8906 487.7605,918.8906 Q486.9948,918.8906 486.3542,919.2188 Q485.7292,919.5469 485.2292,920.2969 Q484.7448,921.0469 484.7448,922.0781 L484.7448,923.1719 Q484.7448,924.4063 485.6355,925.2344 Q486.5261,926.0469 488.1198,926.0469 Q489.0573,926.0469 489.7136,925.7969 Q490.1042,925.6406 490.5261,925.2031 Q490.7917,924.9375 490.9323,924.8594 Q491.0886,924.7813 491.2917,924.7813 Q491.6198,924.7813 491.8698,925.0469 Q492.1355,925.2969 492.1355,925.6406 Q492.1355,925.9844 491.7917,926.3906 Q491.2917,926.9688 490.4948,927.2969 Q489.4167,927.75 488.1198,927.75 Q486.6042,927.75 485.4011,927.125 Q484.4167,926.625 483.7292,925.5625 Q483.0417,924.4844 483.0417,923.2031 L483.0417,922.0469 Q483.0417,920.7188 483.6511,919.5781 Q484.2761,918.4219 485.3698,917.8125 Q486.4636,917.1875 487.698,917.1875 Q488.4323,917.1875 489.073,917.3594 Q489.7292,917.5156 490.2761,917.875 Z "/><text fill="#000000" font-family="sans-serif" font-size="12" lengthAdjust="spacingAndGlyphs" textLength="61" x="508.0105" y="926.9102">Coordinate</text><line style="stroke: #A80036; stroke-width: 1.5;" x1="427.7605" x2="616.7605" y1="938" y2="938"/><polygon fill="none" points="437.7605,945,433.7605,951,441.7605,951" style="stroke: #1963A0; stroke-width: 1.0;"/><text fill="#000000" font-family="sans-serif" font-size="11" lengthAdjust="spacingAndGlyphs" text-decoration="underline" textLength="82" x="446.7605" y="953.4189">DIMENSION: char</text><line style="stroke: #A80036; stroke-width: 1.5;" x1="427.7605" x2="616.7605" y1="959.8359" y2="959.8359"/><polygon fill="#4177AF" points="437.7605,966.8359,433.7605,972.8359,441.7605,972.8359" style="stroke: #1963A0; stroke-width: 1.0;"/><text fill="#000000" font-family="sans-serif" font-size="11" lengthAdjust="spacingAndGlyphs" textLength="60" x="446.7605" y="975.2549">Coordinate()</text><polygon fill="#4177AF" points="437.7605,980.6719,433.7605,986.6719,441.7605,986.6719" style="stroke: #1963A0; stroke-width: 1.0;"/><text fill="#000000" font-family="sans-serif" font-size="11" lengthAdjust="spacingAndGlyphs" textLength="88" x="446.7605" y="989.0908">Coordinate(int, int)</text><polygon fill="#4177AF" points="437.7605,994.5078,433.7605,1000.5078,441.7605,1000.5078" style="stroke: #1963A0; stroke-width: 1.0;"/><text fill="#000000" font-family="sans-serif" font-size="11" lengthAdjust="spacingAndGlyphs" textLength="154" x="446.7605" y="1002.9268">inDirection(Coordinate): boolean</text><polygon fill="#4177AF" points="437.7605,1008.3438,433.7605,1014.3438,441.7605,1014.3438" style="stroke: #1963A0; stroke-width: 1.0;"/><text fill="#000000" font-family="sans-serif" font-size="11" lengthAdjust="spacingAndGlyphs" textLength="165" x="446.7605" y="1016.7627">getDirection(Coordinate): Direction</text><rect fill="#F24D5C" height="6" style="stroke: #C82930; stroke-width: 1.0;" width="6" x="434.7605" y="1023.1797"/><text fill="#000000" font-family="sans-serif" font-size="11" lengthAdjust="spacingAndGlyphs" textLength="137" x="446.7605" y="1030.5986">inInverseDiagonal(): boolean</text><rect fill="#F24D5C" height="6" style="stroke: #C82930; stroke-width: 1.0;" width="6" x="434.7605" y="1037.0156"/><text fill="#000000" font-family="sans-serif" font-size="11" lengthAdjust="spacingAndGlyphs" textLength="84" x="446.7605" y="1044.4346">isValid(): boolean</text><polygon fill="#FFFF44" points="437.7605,1048.8516,441.7605,1052.8516,437.7605,1056.8516,433.7605,1052.8516" style="stroke: #B38D22; stroke-width: 1.0;"/><text fill="#000000" font-family="sans-serif" font-size="11" lengthAdjust="spacingAndGlyphs" textLength="84" x="446.7605" y="1058.2705">read(String): void</text><polygon fill="#4177AF" points="437.7605,1063.6875,433.7605,1069.6875,441.7605,1069.6875" style="stroke: #1963A0; stroke-width: 1.0;"/><text fill="#000000" font-family="sans-serif" font-size="11" lengthAdjust="spacingAndGlyphs" textLength="70" x="446.7605" y="1072.1064">random(): void</text><!--MD5=[5de8aa7dd09724b7d22be446bb0305c3]
class tictactoe.Token--><rect fill="#FEFECE" filter="url(#f1pjef5t241e00)" height="117.1797" id="tictactoe.Token" style="stroke: #A80036; stroke-width: 1.5;" width="101" x="652.7605" y="934"/><ellipse cx="683.5105" cy="950" fill="#EB937F" rx="11" ry="11" style="stroke: #A80036; stroke-width: 1.0;"/><path d="M682.3698,950.7969 L682.3698,953.2969 L686.698,953.2969 L686.698,952.375 Q686.698,951.7656 686.9323,951.5 Q687.1823,951.2344 687.5573,951.2344 Q687.9323,951.2344 688.1667,951.5 Q688.4011,951.7656 688.4011,952.375 L688.4011,955 L680.4011,955 Q679.7761,955 679.5105,954.7656 Q679.2605,954.5313 679.2605,954.1406 Q679.2605,953.7656 679.5261,953.5313 Q679.7917,953.2969 680.4011,953.2969 L680.6667,953.2969 L680.6667,946.6406 L680.4011,946.6406 Q679.7761,946.6406 679.5105,946.4063 Q679.2605,946.1719 679.2605,945.7813 Q679.2605,945.4063 679.5105,945.1719 Q679.7761,944.9375 680.4011,944.9375 L688.0261,944.9375 L688.0261,947.5313 Q688.0261,948.1406 687.7917,948.4063 Q687.573,948.6563 687.1823,948.6563 Q686.8073,948.6563 686.573,948.4063 Q686.3386,948.1406 686.3386,947.5313 L686.3386,946.6406 L682.3698,946.6406 L682.3698,949.0938 L683.8542,949.0938 Q683.8542,948.4375 683.9792,948.25 Q684.2448,947.8438 684.7136,947.8438 Q685.0886,947.8438 685.323,948.1094 Q685.5573,948.3594 685.5573,948.9688 L685.5573,950.9375 Q685.5573,951.4844 685.4323,951.6719 Q685.1667,952.0625 684.7136,952.0625 Q684.2448,952.0625 683.9792,951.6563 Q683.8542,951.4688 683.8542,950.7969 L682.3698,950.7969 Z "/><text fill="#000000" font-family="sans-serif" font-size="12" lengthAdjust="spacingAndGlyphs" textLength="34" x="701.0105" y="954.9102">Token</text><line style="stroke: #A80036; stroke-width: 1.5;" x1="653.7605" x2="752.7605" y1="966" y2="966"/><text fill="#000000" font-family="sans-serif" font-size="11" lengthAdjust="spacingAndGlyphs" textLength="47" x="672.7605" y="981.4189">TOKEN_X</text><text fill="#000000" font-family="sans-serif" font-size="11" lengthAdjust="spacingAndGlyphs" textLength="48" x="672.7605" y="995.2549">TOKEN_O</text><rect fill="none" height="6" style="stroke: #C82930; stroke-width: 1.0;" width="6" x="660.7605" y="1001.6719"/><text fill="#000000" font-family="sans-serif" font-size="11" lengthAdjust="spacingAndGlyphs" textLength="75" x="672.7605" y="1009.0908">character: char</text><line style="stroke: #A80036; stroke-width: 1.5;" x1="653.7605" x2="752.7605" y1="1015.5078" y2="1015.5078"/><polygon fill="#4177AF" points="663.7605,1022.5078,659.7605,1028.5078,667.7605,1028.5078" style="stroke: #1963A0; stroke-width: 1.0;"/><text fill="#000000" font-family="sans-serif" font-size="11" lengthAdjust="spacingAndGlyphs" textLength="59" x="672.7605" y="1030.9268">Token(char)</text><polygon fill="#4177AF" points="663.7605,1036.3438,659.7605,1042.3438,667.7605,1042.3438" style="stroke: #1963A0; stroke-width: 1.0;"/><text fill="#000000" font-family="sans-serif" font-size="11" lengthAdjust="spacingAndGlyphs" textLength="59" x="672.7605" y="1044.7627">write(): void</text><!--MD5=[a7c56956f32a3577b3d342bee43bd14f]
class tictactoe.Turn--><rect fill="#FEFECE" filter="url(#f1pjef5t241e00)" height="158.6875" id="tictactoe.Turn" style="stroke: #A80036; stroke-width: 1.5;" width="142" x="147.2605" y="913"/><ellipse cx="201.5105" cy="929" fill="#ADD1B2" rx="11" ry="11" style="stroke: #A80036; stroke-width: 1.0;"/><path d="M204.2761,924.875 Q204.4323,924.6563 204.6198,924.5469 Q204.8073,924.4375 205.0261,924.4375 Q205.4011,924.4375 205.6355,924.7031 Q205.8698,924.9531 205.8698,925.5625 L205.8698,927.0156 Q205.8698,927.625 205.6355,927.8906 Q205.4011,928.1563 205.0261,928.1563 Q204.6823,928.1563 204.4792,927.9531 Q204.2761,927.7656 204.1667,927.25 Q204.1198,926.8906 203.9323,926.7031 Q203.6042,926.3281 202.9948,926.1094 Q202.3855,925.8906 201.7605,925.8906 Q200.9948,925.8906 200.3542,926.2188 Q199.7292,926.5469 199.2292,927.2969 Q198.7448,928.0469 198.7448,929.0781 L198.7448,930.1719 Q198.7448,931.4063 199.6355,932.2344 Q200.5261,933.0469 202.1198,933.0469 Q203.0573,933.0469 203.7136,932.7969 Q204.1042,932.6406 204.5261,932.2031 Q204.7917,931.9375 204.9323,931.8594 Q205.0886,931.7813 205.2917,931.7813 Q205.6198,931.7813 205.8698,932.0469 Q206.1355,932.2969 206.1355,932.6406 Q206.1355,932.9844 205.7917,933.3906 Q205.2917,933.9688 204.4948,934.2969 Q203.4167,934.75 202.1198,934.75 Q200.6042,934.75 199.4011,934.125 Q198.4167,933.625 197.7292,932.5625 Q197.0417,931.4844 197.0417,930.2031 L197.0417,929.0469 Q197.0417,927.7188 197.6511,926.5781 Q198.2761,925.4219 199.3698,924.8125 Q200.4636,924.1875 201.698,924.1875 Q202.4323,924.1875 203.073,924.3594 Q203.7292,924.5156 204.2761,924.875 Z "/><text fill="#000000" font-family="sans-serif" font-size="12" lengthAdjust="spacingAndGlyphs" textLength="25" x="222.0105" y="933.9102">Turn</text><line style="stroke: #A80036; stroke-width: 1.5;" x1="148.2605" x2="288.2605" y1="945" y2="945"/><polygon fill="none" points="158.2605,952,154.2605,958,162.2605,958" style="stroke: #1963A0; stroke-width: 1.0;"/><text fill="#000000" font-family="sans-serif" font-size="11" lengthAdjust="spacingAndGlyphs" text-decoration="underline" textLength="65" x="167.2605" y="960.4189">PLAYERS: int</text><rect fill="none" height="6" style="stroke: #C82930; stroke-width: 1.0;" width="6" x="155.2605" y="966.8359"/><text fill="#000000" font-family="sans-serif" font-size="11" lengthAdjust="spacingAndGlyphs" textLength="43" x="167.2605" y="974.2549">value: int</text><rect fill="none" height="6" style="stroke: #C82930; stroke-width: 1.0;" width="6" x="155.2605" y="980.6719"/><text fill="#000000" font-family="sans-serif" font-size="11" lengthAdjust="spacingAndGlyphs" textLength="78" x="167.2605" y="988.0908">players: Player[]</text><line style="stroke: #A80036; stroke-width: 1.5;" x1="148.2605" x2="288.2605" y1="994.5078" y2="994.5078"/><polygon fill="#4177AF" points="158.2605,1001.5078,154.2605,1007.5078,162.2605,1007.5078" style="stroke: #1963A0; stroke-width: 1.0;"/><text fill="#000000" font-family="sans-serif" font-size="11" lengthAdjust="spacingAndGlyphs" textLength="66" x="167.2605" y="1009.9268">Turn(Player[])</text><polygon fill="#4177AF" points="158.2605,1015.3438,154.2605,1021.3438,162.2605,1021.3438" style="stroke: #1963A0; stroke-width: 1.0;"/><text fill="#000000" font-family="sans-serif" font-size="11" lengthAdjust="spacingAndGlyphs" textLength="70" x="167.2605" y="1023.7627">change(): void</text><polygon fill="#4177AF" points="158.2605,1029.1797,154.2605,1035.1797,162.2605,1035.1797" style="stroke: #1963A0; stroke-width: 1.0;"/><text fill="#000000" font-family="sans-serif" font-size="11" lengthAdjust="spacingAndGlyphs" textLength="89" x="167.2605" y="1037.5986">getPlayer(): Player</text><polygon fill="#4177AF" points="158.2605,1043.0156,154.2605,1049.0156,162.2605,1049.0156" style="stroke: #1963A0; stroke-width: 1.0;"/><text fill="#000000" font-family="sans-serif" font-size="11" lengthAdjust="spacingAndGlyphs" textLength="95" x="167.2605" y="1051.4346">getOtherValue(): int</text><polygon fill="#4177AF" points="158.2605,1056.8516,154.2605,1062.8516,162.2605,1062.8516" style="stroke: #1963A0; stroke-width: 1.0;"/><text fill="#000000" font-family="sans-serif" font-size="11" lengthAdjust="spacingAndGlyphs" textLength="116" x="167.2605" y="1065.2705">getOtherPlayer(): Player</text><!--MD5=[209038b141cf0ae64650b7d246435dec]
class tictactoe.Message--><rect fill="#FEFECE" filter="url(#f1pjef5t241e00)" height="117.1797" id="tictactoe.Message" style="stroke: #A80036; stroke-width: 1.5;" width="109" x="788.7605" y="934"/><ellipse cx="815.4605" cy="950" fill="#EB937F" rx="11" ry="11" style="stroke: #A80036; stroke-width: 1.0;"/><path d="M814.3198,950.7969 L814.3198,953.2969 L818.648,953.2969 L818.648,952.375 Q818.648,951.7656 818.8823,951.5 Q819.1323,951.2344 819.5073,951.2344 Q819.8823,951.2344 820.1167,951.5 Q820.3511,951.7656 820.3511,952.375 L820.3511,955 L812.3511,955 Q811.7261,955 811.4605,954.7656 Q811.2105,954.5313 811.2105,954.1406 Q811.2105,953.7656 811.4761,953.5313 Q811.7417,953.2969 812.3511,953.2969 L812.6167,953.2969 L812.6167,946.6406 L812.3511,946.6406 Q811.7261,946.6406 811.4605,946.4063 Q811.2105,946.1719 811.2105,945.7813 Q811.2105,945.4063 811.4605,945.1719 Q811.7261,944.9375 812.3511,944.9375 L819.9761,944.9375 L819.9761,947.5313 Q819.9761,948.1406 819.7417,948.4063 Q819.523,948.6563 819.1323,948.6563 Q818.7573,948.6563 818.523,948.4063 Q818.2886,948.1406 818.2886,947.5313 L818.2886,946.6406 L814.3198,946.6406 L814.3198,949.0938 L815.8042,949.0938 Q815.8042,948.4375 815.9292,948.25 Q816.1948,947.8438 816.6636,947.8438 Q817.0386,947.8438 817.273,948.1094 Q817.5073,948.3594 817.5073,948.9688 L817.5073,950.9375 Q817.5073,951.4844 817.3823,951.6719 Q817.1167,952.0625 816.6636,952.0625 Q816.1948,952.0625 815.9292,951.6563 Q815.8042,951.4688 815.8042,950.7969 L814.3198,950.7969 Z "/><text fill="#000000" font-family="sans-serif" font-size="12" lengthAdjust="spacingAndGlyphs" textLength="51" x="832.0605" y="954.9102">Message</text><line style="stroke: #A80036; stroke-width: 1.5;" x1="789.7605" x2="896.7605" y1="966" y2="966"/><rect fill="none" height="6" style="stroke: #C82930; stroke-width: 1.0;" width="6" x="796.7605" y="974"/><text fill="#000000" font-family="sans-serif" font-size="11" lengthAdjust="spacingAndGlyphs" textLength="78" x="808.7605" y="981.4189">message: String</text><rect fill="none" height="6" style="stroke: #C82930; stroke-width: 1.0;" width="6" x="796.7605" y="987.8359"/><text fill="#000000" font-family="sans-serif" font-size="11" lengthAdjust="spacingAndGlyphs" textLength="83" x="808.7605" y="995.2549">console: Console</text><line style="stroke: #A80036; stroke-width: 1.5;" x1="789.7605" x2="896.7605" y1="1001.6719" y2="1001.6719"/><rect fill="#F24D5C" height="6" style="stroke: #C82930; stroke-width: 1.0;" width="6" x="796.7605" y="1009.6719"/><text fill="#000000" font-family="sans-serif" font-size="11" lengthAdjust="spacingAndGlyphs" textLength="80" x="808.7605" y="1017.0908">Message(String)</text><polygon fill="#4177AF" points="799.7605,1022.5078,795.7605,1028.5078,803.7605,1028.5078" style="stroke: #1963A0; stroke-width: 1.0;"/><text fill="#000000" font-family="sans-serif" font-size="11" lengthAdjust="spacingAndGlyphs" textLength="59" x="808.7605" y="1030.9268">write(): void</text><polygon fill="#4177AF" points="799.7605,1036.3438,795.7605,1042.3438,803.7605,1042.3438" style="stroke: #1963A0; stroke-width: 1.0;"/><text fill="#000000" font-family="sans-serif" font-size="11" lengthAdjust="spacingAndGlyphs" textLength="67" x="808.7605" y="1044.7627">writeln(): void</text><!--MD5=[234bb57370d1b45707280660bb83d10d]
class tictactoe.Error--><rect fill="#FEFECE" filter="url(#f1pjef5t241e00)" height="131.0156" id="tictactoe.Error" style="stroke: #A80036; stroke-width: 1.5;" width="134" x="1232.2605" y="639"/><ellipse cx="1281.5105" cy="655" fill="#EB937F" rx="11" ry="11" style="stroke: #A80036; stroke-width: 1.0;"/><path d="M1280.3698,655.7969 L1280.3698,658.2969 L1284.698,658.2969 L1284.698,657.375 Q1284.698,656.7656 1284.9323,656.5 Q1285.1823,656.2344 1285.5573,656.2344 Q1285.9323,656.2344 1286.1667,656.5 Q1286.4011,656.7656 1286.4011,657.375 L1286.4011,660 L1278.4011,660 Q1277.7761,660 1277.5105,659.7656 Q1277.2605,659.5313 1277.2605,659.1406 Q1277.2605,658.7656 1277.5261,658.5313 Q1277.7917,658.2969 1278.4011,658.2969 L1278.6667,658.2969 L1278.6667,651.6406 L1278.4011,651.6406 Q1277.7761,651.6406 1277.5105,651.4063 Q1277.2605,651.1719 1277.2605,650.7813 Q1277.2605,650.4063 1277.5105,650.1719 Q1277.7761,649.9375 1278.4011,649.9375 L1286.0261,649.9375 L1286.0261,652.5313 Q1286.0261,653.1406 1285.7917,653.4063 Q1285.573,653.6563 1285.1823,653.6563 Q1284.8073,653.6563 1284.573,653.4063 Q1284.3386,653.1406 1284.3386,652.5313 L1284.3386,651.6406 L1280.3698,651.6406 L1280.3698,654.0938 L1281.8542,654.0938 Q1281.8542,653.4375 1281.9792,653.25 Q1282.2448,652.8438 1282.7136,652.8438 Q1283.0886,652.8438 1283.323,653.1094 Q1283.5573,653.3594 1283.5573,653.9688 L1283.5573,655.9375 Q1283.5573,656.4844 1283.4323,656.6719 Q1283.1667,657.0625 1282.7136,657.0625 Q1282.2448,657.0625 1281.9792,656.6563 Q1281.8542,656.4688 1281.8542,655.7969 L1280.3698,655.7969 Z "/><text fill="#000000" font-family="sans-serif" font-size="12" lengthAdjust="spacingAndGlyphs" textLength="27" x="1302.0105" y="659.9102">Error</text><line style="stroke: #A80036; stroke-width: 1.5;" x1="1233.2605" x2="1365.2605" y1="671" y2="671"/><text fill="#000000" font-family="sans-serif" font-size="11" lengthAdjust="spacingAndGlyphs" textLength="61" x="1252.2605" y="686.4189">NOT_EMPTY</text><text fill="#000000" font-family="sans-serif" font-size="11" lengthAdjust="spacingAndGlyphs" textLength="65" x="1252.2605" y="700.2549">NOT_OWNER</text><text fill="#000000" font-family="sans-serif" font-size="11" lengthAdjust="spacingAndGlyphs" textLength="108" x="1252.2605" y="714.0908">SAME_COORDINATES</text><rect fill="none" height="6" style="stroke: #C82930; stroke-width: 1.0;" width="6" x="1240.2605" y="720.5078"/><text fill="#000000" font-family="sans-serif" font-size="11" lengthAdjust="spacingAndGlyphs" textLength="78" x="1252.2605" y="727.9268">message: String</text><line style="stroke: #A80036; stroke-width: 1.5;" x1="1233.2605" x2="1365.2605" y1="734.3438" y2="734.3438"/><polygon fill="#4177AF" points="1243.2605,741.3438,1239.2605,747.3438,1247.2605,747.3438" style="stroke: #1963A0; stroke-width: 1.0;"/><text fill="#000000" font-family="sans-serif" font-size="11" lengthAdjust="spacingAndGlyphs" textLength="60" x="1252.2605" y="749.7627">Error(String)</text><polygon fill="#4177AF" points="1243.2605,755.1797,1239.2605,761.1797,1247.2605,761.1797" style="stroke: #1963A0; stroke-width: 1.0;"/><text fill="#000000" font-family="sans-serif" font-size="11" lengthAdjust="spacingAndGlyphs" textLength="67" x="1252.2605" y="763.5986">writeln(): void</text><!--MD5=[855f690391239d44857a3211eff2dccc]
class tictactoe.MachinePlayer--><rect fill="#FEFECE" filter="url(#f1pjef5t241e00)" height="103.3438" id="tictactoe.MachinePlayer" style="stroke: #A80036; stroke-width: 1.5;" width="317" x="879.7605" y="653"/><ellipse cx="994.0105" cy="669" fill="#ADD1B2" rx="11" ry="11" style="stroke: #A80036; stroke-width: 1.0;"/><path d="M996.7761,664.875 Q996.9323,664.6563 997.1198,664.5469 Q997.3073,664.4375 997.5261,664.4375 Q997.9011,664.4375 998.1355,664.7031 Q998.3698,664.9531 998.3698,665.5625 L998.3698,667.0156 Q998.3698,667.625 998.1355,667.8906 Q997.9011,668.1563 997.5261,668.1563 Q997.1823,668.1563 996.9792,667.9531 Q996.7761,667.7656 996.6667,667.25 Q996.6198,666.8906 996.4323,666.7031 Q996.1042,666.3281 995.4948,666.1094 Q994.8855,665.8906 994.2605,665.8906 Q993.4948,665.8906 992.8542,666.2188 Q992.2292,666.5469 991.7292,667.2969 Q991.2448,668.0469 991.2448,669.0781 L991.2448,670.1719 Q991.2448,671.4063 992.1355,672.2344 Q993.0261,673.0469 994.6198,673.0469 Q995.5573,673.0469 996.2136,672.7969 Q996.6042,672.6406 997.0261,672.2031 Q997.2917,671.9375 997.4323,671.8594 Q997.5886,671.7813 997.7917,671.7813 Q998.1198,671.7813 998.3698,672.0469 Q998.6355,672.2969 998.6355,672.6406 Q998.6355,672.9844 998.2917,673.3906 Q997.7917,673.9688 996.9948,674.2969 Q995.9167,674.75 994.6198,674.75 Q993.1042,674.75 991.9011,674.125 Q990.9167,673.625 990.2292,672.5625 Q989.5417,671.4844 989.5417,670.2031 L989.5417,669.0469 Q989.5417,667.7188 990.1511,666.5781 Q990.7761,665.4219 991.8698,664.8125 Q992.9636,664.1875 994.198,664.1875 Q994.9323,664.1875 995.573,664.3594 Q996.2292,664.5156 996.7761,664.875 Z "/><text fill="#000000" font-family="sans-serif" font-size="12" lengthAdjust="spacingAndGlyphs" textLength="80" x="1014.5105" y="673.9102">MachinePlayer</text><line style="stroke: #A80036; stroke-width: 1.5;" x1="880.7605" x2="1195.7605" y1="685" y2="685"/><line style="stroke: #A80036; stroke-width: 1.5;" x1="880.7605" x2="1195.7605" y1="693" y2="693"/><polygon fill="#4177AF" points="890.7605,700,886.7605,706,894.7605,706" style="stroke: #1963A0; stroke-width: 1.0;"/><text fill="#000000" font-family="sans-serif" font-size="11" lengthAdjust="spacingAndGlyphs" textLength="142" x="899.7605" y="708.4189">MachinePlayer(Token, Board)</text><polygon fill="#4177AF" points="890.7605,713.8359,886.7605,719.8359,894.7605,719.8359" style="stroke: #1963A0; stroke-width: 1.0;"/><text fill="#000000" font-family="sans-serif" font-size="11" lengthAdjust="spacingAndGlyphs" textLength="191" x="899.7605" y="722.2549">readCoordinateToPut(Coordinate): Error</text><polygon fill="#4177AF" points="890.7605,727.6719,886.7605,733.6719,894.7605,733.6719" style="stroke: #1963A0; stroke-width: 1.0;"/><text fill="#000000" font-family="sans-serif" font-size="11" lengthAdjust="spacingAndGlyphs" textLength="243" x="899.7605" y="736.0908">readCoordinateOriginToRemove(Coordinate): Error</text><polygon fill="#4177AF" points="890.7605,741.5078,886.7605,747.5078,894.7605,747.5078" style="stroke: #1963A0; stroke-width: 1.0;"/><text fill="#000000" font-family="sans-serif" font-size="11" lengthAdjust="spacingAndGlyphs" textLength="291" x="899.7605" y="749.9268">readCoordinateTargetToMove(Coordinate, Coordinate): Error</text><!--MD5=[2bd2a1c0286138c0547503259441e5fb]
class tictactoe.Player--><rect fill="#FEFECE" filter="url(#f1pjef5t241e00)" height="227.8672" id="tictactoe.Player" style="stroke: #A80036; stroke-width: 1.5;" width="346" x="645.2605" y="275"/><ellipse cx="797.0105" cy="291" fill="#ADD1B2" rx="11" ry="11" style="stroke: #A80036; stroke-width: 1.0;"/><path d="M799.7761,286.875 Q799.9323,286.6563 800.1198,286.5469 Q800.3073,286.4375 800.5261,286.4375 Q800.9011,286.4375 801.1355,286.7031 Q801.3698,286.9531 801.3698,287.5625 L801.3698,289.0156 Q801.3698,289.625 801.1355,289.8906 Q800.9011,290.1563 800.5261,290.1563 Q800.1823,290.1563 799.9792,289.9531 Q799.7761,289.7656 799.6667,289.25 Q799.6198,288.8906 799.4323,288.7031 Q799.1042,288.3281 798.4948,288.1094 Q797.8855,287.8906 797.2605,287.8906 Q796.4948,287.8906 795.8542,288.2188 Q795.2292,288.5469 794.7292,289.2969 Q794.2448,290.0469 794.2448,291.0781 L794.2448,292.1719 Q794.2448,293.4063 795.1355,294.2344 Q796.0261,295.0469 797.6198,295.0469 Q798.5573,295.0469 799.2136,294.7969 Q799.6042,294.6406 800.0261,294.2031 Q800.2917,293.9375 800.4323,293.8594 Q800.5886,293.7813 800.7917,293.7813 Q801.1198,293.7813 801.3698,294.0469 Q801.6355,294.2969 801.6355,294.6406 Q801.6355,294.9844 801.2917,295.3906 Q800.7917,295.9688 799.9948,296.2969 Q798.9167,296.75 797.6198,296.75 Q796.1042,296.75 794.9011,296.125 Q793.9167,295.625 793.2292,294.5625 Q792.5417,293.4844 792.5417,292.2031 L792.5417,291.0469 Q792.5417,289.7188 793.1511,288.5781 Q793.7761,287.4219 794.8698,286.8125 Q795.9636,286.1875 797.198,286.1875 Q797.9323,286.1875 798.573,286.3594 Q799.2292,286.5156 799.7761,286.875 Z "/><text fill="#000000" font-family="sans-serif" font-size="12" lengthAdjust="spacingAndGlyphs" textLength="34" x="817.5105" y="295.9102">Player</text><line style="stroke: #A80036; stroke-width: 1.5;" x1="646.2605" x2="990.2605" y1="307" y2="307"/><polygon fill="none" points="656.2605,313,660.2605,317,656.2605,321,652.2605,317" style="stroke: #B38D22; stroke-width: 1.0;"/><text fill="#000000" font-family="sans-serif" font-size="11" lengthAdjust="spacingAndGlyphs" textLength="61" x="665.2605" y="322.4189">token: Token</text><polygon fill="none" points="656.2605,326.8359,660.2605,330.8359,656.2605,334.8359,652.2605,330.8359" style="stroke: #B38D22; stroke-width: 1.0;"/><text fill="#000000" font-family="sans-serif" font-size="11" lengthAdjust="spacingAndGlyphs" textLength="63" x="665.2605" y="336.2549">board: Board</text><line style="stroke: #A80036; stroke-width: 1.5;" x1="646.2605" x2="990.2605" y1="342.6719" y2="342.6719"/><polygon fill="#4177AF" points="656.2605,349.6719,652.2605,355.6719,660.2605,355.6719" style="stroke: #1963A0; stroke-width: 1.0;"/><text fill="#000000" font-family="sans-serif" font-size="11" lengthAdjust="spacingAndGlyphs" textLength="102" x="665.2605" y="358.0908">Player(Token, Board)</text><polygon fill="#4177AF" points="656.2605,363.5078,652.2605,369.5078,660.2605,369.5078" style="stroke: #1963A0; stroke-width: 1.0;"/><text fill="#000000" font-family="sans-serif" font-size="11" lengthAdjust="spacingAndGlyphs" textLength="49" x="665.2605" y="371.9268">put(): void</text><polygon fill="#4177AF" points="656.2605,377.3438,652.2605,383.3438,660.2605,383.3438" style="stroke: #1963A0; stroke-width: 1.0;"/><text fill="#000000" font-family="sans-serif" font-size="11" lengthAdjust="spacingAndGlyphs" textLength="60" x="665.2605" y="385.7627">move(): void</text><polygon fill="#4177AF" points="656.2605,391.1797,652.2605,397.1797,660.2605,397.1797" style="stroke: #1963A0; stroke-width: 1.0;"/><text fill="#000000" font-family="sans-serif" font-size="11" font-style="italic" lengthAdjust="spacingAndGlyphs" textLength="198" x="665.2605" y="399.5986">readCoordinateToPut(Coordinate): Error</text><polygon fill="#4177AF" points="656.2605,405.0156,652.2605,411.0156,660.2605,411.0156" style="stroke: #1963A0; stroke-width: 1.0;"/><text fill="#000000" font-family="sans-serif" font-size="11" font-style="italic" lengthAdjust="spacingAndGlyphs" textLength="253" x="665.2605" y="413.4346">readCoordinateOriginToRemove(Coordinate): Error</text><polygon fill="#4177AF" points="656.2605,418.8516,652.2605,424.8516,660.2605,424.8516" style="stroke: #1963A0; stroke-width: 1.0;"/><text fill="#000000" font-family="sans-serif" font-size="11" font-style="italic" lengthAdjust="spacingAndGlyphs" textLength="300" x="665.2605" y="427.2705">readCoordinateTargetToMove(Coordinate, Coordinate): Error</text><polygon fill="#4177AF" points="656.2605,432.6875,652.2605,438.6875,660.2605,438.6875" style="stroke: #1963A0; stroke-width: 1.0;"/><text fill="#000000" font-family="sans-serif" font-size="11" lengthAdjust="spacingAndGlyphs" textLength="106" x="665.2605" y="441.1064">writeWin(Token): void</text><polygon fill="#4177AF" points="656.2605,446.5234,652.2605,452.5234,660.2605,452.5234" style="stroke: #1963A0; stroke-width: 1.0;"/><text fill="#000000" font-family="sans-serif" font-size="11" lengthAdjust="spacingAndGlyphs" textLength="87" x="665.2605" y="454.9424">getToken(): Token</text><polygon fill="#4177AF" points="656.2605,460.3594,652.2605,466.3594,660.2605,466.3594" style="stroke: #1963A0; stroke-width: 1.0;"/><text fill="#000000" font-family="sans-serif" font-size="11" lengthAdjust="spacingAndGlyphs" textLength="220" x="665.2605" y="468.7783">controlErrorsPutCoordinate(Coordinate): Error</text><polygon fill="#4177AF" points="656.2605,474.1953,652.2605,480.1953,660.2605,480.1953" style="stroke: #1963A0; stroke-width: 1.0;"/><text fill="#000000" font-family="sans-serif" font-size="11" lengthAdjust="spacingAndGlyphs" textLength="259" x="665.2605" y="482.6143">controlErrorsMoveOriginCoordinate(Coordinate): Error</text><polygon fill="#4177AF" points="656.2605,488.0313,652.2605,494.0313,660.2605,494.0313" style="stroke: #1963A0; stroke-width: 1.0;"/><text fill="#000000" font-family="sans-serif" font-size="11" lengthAdjust="spacingAndGlyphs" textLength="320" x="665.2605" y="496.4502">controlErrorsMoveTargetCoordinate(Coordinate, Coordinate): Error</text><!--MD5=[dcfee6ff2a733e6a859ce2b7bcbe021e]
class tictactoe.TicTacToe--><rect fill="#FEFECE" filter="url(#f1pjef5t241e00)" height="172.5234" id="tictactoe.TicTacToe" style="stroke: #A80036; stroke-width: 1.5;" width="150" x="638.2605" y="42"/><ellipse cx="680.7105" cy="58" fill="#ADD1B2" rx="11" ry="11" style="stroke: #A80036; stroke-width: 1.0;"/><path d="M683.4761,53.875 Q683.6323,53.6563 683.8198,53.5469 Q684.0073,53.4375 684.2261,53.4375 Q684.6011,53.4375 684.8355,53.7031 Q685.0698,53.9531 685.0698,54.5625 L685.0698,56.0156 Q685.0698,56.625 684.8355,56.8906 Q684.6011,57.1563 684.2261,57.1563 Q683.8823,57.1563 683.6792,56.9531 Q683.4761,56.7656 683.3667,56.25 Q683.3198,55.8906 683.1323,55.7031 Q682.8042,55.3281 682.1948,55.1094 Q681.5855,54.8906 680.9605,54.8906 Q680.1948,54.8906 679.5542,55.2188 Q678.9292,55.5469 678.4292,56.2969 Q677.9448,57.0469 677.9448,58.0781 L677.9448,59.1719 Q677.9448,60.4063 678.8355,61.2344 Q679.7261,62.0469 681.3198,62.0469 Q682.2573,62.0469 682.9136,61.7969 Q683.3042,61.6406 683.7261,61.2031 Q683.9917,60.9375 684.1323,60.8594 Q684.2886,60.7813 684.4917,60.7813 Q684.8198,60.7813 685.0698,61.0469 Q685.3355,61.2969 685.3355,61.6406 Q685.3355,61.9844 684.9917,62.3906 Q684.4917,62.9688 683.6948,63.2969 Q682.6167,63.75 681.3198,63.75 Q679.8042,63.75 678.6011,63.125 Q677.6167,62.625 676.9292,61.5625 Q676.2417,60.4844 676.2417,59.2031 L676.2417,58.0469 Q676.2417,56.7188 676.8511,55.5781 Q677.4761,54.4219 678.5698,53.8125 Q679.6636,53.1875 680.898,53.1875 Q681.6323,53.1875 682.273,53.3594 Q682.9292,53.5156 683.4761,53.875 Z "/><text fill="#000000" font-family="sans-serif" font-size="12" lengthAdjust="spacingAndGlyphs" textLength="57" x="700.8105" y="62.9102">TicTacToe</text><line style="stroke: #A80036; stroke-width: 1.5;" x1="639.2605" x2="787.2605" y1="74" y2="74"/><rect fill="none" height="6" style="stroke: #C82930; stroke-width: 1.0;" width="6" x="646.2605" y="82"/><text fill="#000000" font-family="sans-serif" font-size="11" lengthAdjust="spacingAndGlyphs" textLength="63" x="658.2605" y="89.4189">board: Board</text><rect fill="none" height="6" style="stroke: #C82930; stroke-width: 1.0;" width="6" x="646.2605" y="95.8359"/><text fill="#000000" font-family="sans-serif" font-size="11" lengthAdjust="spacingAndGlyphs" textLength="78" x="658.2605" y="103.2549">players: Players</text><rect fill="none" height="6" style="stroke: #C82930; stroke-width: 1.0;" width="6" x="646.2605" y="109.6719"/><text fill="#000000" font-family="sans-serif" font-size="11" lengthAdjust="spacingAndGlyphs" textLength="47" x="658.2605" y="117.0908">turn: Turn</text><line style="stroke: #A80036; stroke-width: 1.5;" x1="639.2605" x2="787.2605" y1="123.5078" y2="123.5078"/><polygon fill="#4177AF" points="649.2605,130.5078,645.2605,136.5078,653.2605,136.5078" style="stroke: #1963A0; stroke-width: 1.0;"/><text fill="#000000" font-family="sans-serif" font-size="11" lengthAdjust="spacingAndGlyphs" textLength="58" x="658.2605" y="138.9268">TicTacToe()</text><rect fill="#F24D5C" height="6" style="stroke: #C82930; stroke-width: 1.0;" width="6" x="646.2605" y="145.3438"/><text fill="#000000" font-family="sans-serif" font-size="11" lengthAdjust="spacingAndGlyphs" textLength="54" x="658.2605" y="152.7627">play(): void</text><rect fill="#F24D5C" height="6" style="stroke: #C82930; stroke-width: 1.0;" width="6" x="646.2605" y="159.1797"/><text fill="#000000" font-family="sans-serif" font-size="11" lengthAdjust="spacingAndGlyphs" textLength="124" x="658.2605" y="166.5986">playUntilTicTacToe(): void</text><rect fill="#F24D5C" height="6" style="stroke: #C82930; stroke-width: 1.0;" width="6" x="646.2605" y="173.0156"/><text fill="#000000" font-family="sans-serif" font-size="11" lengthAdjust="spacingAndGlyphs" textLength="101" x="658.2605" y="180.4346">createPlayers(): void</text><rect fill="#F24D5C" height="6" style="stroke: #C82930; stroke-width: 1.0;" width="6" x="646.2605" y="186.8516"/><text fill="#000000" font-family="sans-serif" font-size="11" lengthAdjust="spacingAndGlyphs" textLength="113" x="658.2605" y="194.2705">readUsersNumber(): int</text><ellipse cx="649.2605" cy="203.6875" fill="#84BE84" rx="3" ry="3" style="stroke: #038048; stroke-width: 1.0;"/><text fill="#000000" font-family="sans-serif" font-size="11" lengthAdjust="spacingAndGlyphs" textLength="90" x="658.2605" y="208.1064">main(String[]): void</text><!--MD5=[47381de0688774b77580192d455d0070]
class tictactoe.UserPlayer--><rect fill="#FEFECE" filter="url(#f1pjef5t241e00)" height="144.8516" id="tictactoe.UserPlayer" style="stroke: #A80036; stroke-width: 1.5;" width="317" x="82.7605" y="632"/><ellipse cx="206.5105" cy="648" fill="#ADD1B2" rx="11" ry="11" style="stroke: #A80036; stroke-width: 1.0;"/><path d="M209.2761,643.875 Q209.4323,643.6563 209.6198,643.5469 Q209.8073,643.4375 210.0261,643.4375 Q210.4011,643.4375 210.6355,643.7031 Q210.8698,643.9531 210.8698,644.5625 L210.8698,646.0156 Q210.8698,646.625 210.6355,646.8906 Q210.4011,647.1563 210.0261,647.1563 Q209.6823,647.1563 209.4792,646.9531 Q209.2761,646.7656 209.1667,646.25 Q209.1198,645.8906 208.9323,645.7031 Q208.6042,645.3281 207.9948,645.1094 Q207.3855,644.8906 206.7605,644.8906 Q205.9948,644.8906 205.3542,645.2188 Q204.7292,645.5469 204.2292,646.2969 Q203.7448,647.0469 203.7448,648.0781 L203.7448,649.1719 Q203.7448,650.4063 204.6355,651.2344 Q205.5261,652.0469 207.1198,652.0469 Q208.0573,652.0469 208.7136,651.7969 Q209.1042,651.6406 209.5261,651.2031 Q209.7917,650.9375 209.9323,650.8594 Q210.0886,650.7813 210.2917,650.7813 Q210.6198,650.7813 210.8698,651.0469 Q211.1355,651.2969 211.1355,651.6406 Q211.1355,651.9844 210.7917,652.3906 Q210.2917,652.9688 209.4948,653.2969 Q208.4167,653.75 207.1198,653.75 Q205.6042,653.75 204.4011,653.125 Q203.4167,652.625 202.7292,651.5625 Q202.0417,650.4844 202.0417,649.2031 L202.0417,648.0469 Q202.0417,646.7188 202.6511,645.5781 Q203.2761,644.4219 204.3698,643.8125 Q205.4636,643.1875 206.698,643.1875 Q207.4323,643.1875 208.073,643.3594 Q208.7292,643.5156 209.2761,643.875 Z "/><text fill="#000000" font-family="sans-serif" font-size="12" lengthAdjust="spacingAndGlyphs" textLength="61" x="227.0105" y="652.9102">UserPlayer</text><line style="stroke: #A80036; stroke-width: 1.5;" x1="83.7605" x2="398.7605" y1="664" y2="664"/><polygon fill="none" points="93.7605,671,89.7605,677,97.7605,677" style="stroke: #1963A0; stroke-width: 1.0;"/><text fill="#000000" font-family="sans-serif" font-size="11" lengthAdjust="spacingAndGlyphs" text-decoration="underline" textLength="183" x="102.7605" y="679.4189">ENTER_COORDINATE_TO_PUT: String</text><polygon fill="none" points="93.7605,684.8359,89.7605,690.8359,97.7605,690.8359" style="stroke: #1963A0; stroke-width: 1.0;"/><text fill="#000000" font-family="sans-serif" font-size="11" lengthAdjust="spacingAndGlyphs" text-decoration="underline" textLength="207" x="102.7605" y="693.2549">ENTER_COORDINATE_TO_REMOVE: String</text><line style="stroke: #A80036; stroke-width: 1.5;" x1="83.7605" x2="398.7605" y1="699.6719" y2="699.6719"/><polygon fill="#4177AF" points="93.7605,706.6719,89.7605,712.6719,97.7605,712.6719" style="stroke: #1963A0; stroke-width: 1.0;"/><text fill="#000000" font-family="sans-serif" font-size="11" lengthAdjust="spacingAndGlyphs" textLength="125" x="102.7605" y="715.0908">UserPlayer(Token, Board)</text><polygon fill="#4177AF" points="93.7605,720.5078,89.7605,726.5078,97.7605,726.5078" style="stroke: #1963A0; stroke-width: 1.0;"/><text fill="#000000" font-family="sans-serif" font-size="11" lengthAdjust="spacingAndGlyphs" textLength="191" x="102.7605" y="728.9268">readCoordinateToPut(Coordinate): Error</text><polygon fill="#4177AF" points="93.7605,734.3438,89.7605,740.3438,97.7605,740.3438" style="stroke: #1963A0; stroke-width: 1.0;"/><text fill="#000000" font-family="sans-serif" font-size="11" lengthAdjust="spacingAndGlyphs" textLength="243" x="102.7605" y="742.7627">readCoordinateOriginToRemove(Coordinate): Error</text><polygon fill="#4177AF" points="93.7605,748.1797,89.7605,754.1797,97.7605,754.1797" style="stroke: #1963A0; stroke-width: 1.0;"/><text fill="#000000" font-family="sans-serif" font-size="11" lengthAdjust="spacingAndGlyphs" textLength="291" x="102.7605" y="756.5986">readCoordinateTargetToMove(Coordinate, Coordinate): Error</text><rect fill="#F24D5C" height="6" style="stroke: #C82930; stroke-width: 1.0;" width="6" x="90.7605" y="763.0156"/><text fill="#000000" font-family="sans-serif" font-size="11" lengthAdjust="spacingAndGlyphs" textLength="168" x="102.7605" y="770.4346">writeErrorWhenNotNull(Error): void</text><!--MD5=[63e92a92e730259d201bb8566c78f275]
class utils.Direction--><rect fill="#FEFECE" filter="url(#f1pjef5t241e00)" height="48" id="utils.Direction" style="stroke: #A80036; stroke-width: 1.5;" width="81" x="716.7605" y="1155"/><ellipse cx="731.7605" cy="1171" fill="#ADD1B2" rx="11" ry="11" style="stroke: #A80036; stroke-width: 1.0;"/><path d="M734.5261,1166.875 Q734.6823,1166.6563 734.8698,1166.5469 Q735.0573,1166.4375 735.2761,1166.4375 Q735.6511,1166.4375 735.8855,1166.7031 Q736.1198,1166.9531 736.1198,1167.5625 L736.1198,1169.0156 Q736.1198,1169.625 735.8855,1169.8906 Q735.6511,1170.1563 735.2761,1170.1563 Q734.9323,1170.1563 734.7292,1169.9531 Q734.5261,1169.7656 734.4167,1169.25 Q734.3698,1168.8906 734.1823,1168.7031 Q733.8542,1168.3281 733.2448,1168.1094 Q732.6355,1167.8906 732.0105,1167.8906 Q731.2448,1167.8906 730.6042,1168.2188 Q729.9792,1168.5469 729.4792,1169.2969 Q728.9948,1170.0469 728.9948,1171.0781 L728.9948,1172.1719 Q728.9948,1173.4063 729.8855,1174.2344 Q730.7761,1175.0469 732.3698,1175.0469 Q733.3073,1175.0469 733.9636,1174.7969 Q734.3542,1174.6406 734.7761,1174.2031 Q735.0417,1173.9375 735.1823,1173.8594 Q735.3386,1173.7813 735.5417,1173.7813 Q735.8698,1173.7813 736.1198,1174.0469 Q736.3855,1174.2969 736.3855,1174.6406 Q736.3855,1174.9844 736.0417,1175.3906 Q735.5417,1175.9688 734.7448,1176.2969 Q733.6667,1176.75 732.3698,1176.75 Q730.8542,1176.75 729.6511,1176.125 Q728.6667,1175.625 727.9792,1174.5625 Q727.2917,1173.4844 727.2917,1172.2031 L727.2917,1171.0469 Q727.2917,1169.7188 727.9011,1168.5781 Q728.5261,1167.4219 729.6198,1166.8125 Q730.7136,1166.1875 731.948,1166.1875 Q732.6823,1166.1875 733.323,1166.3594 Q733.9792,1166.5156 734.5261,1166.875 Z "/><text fill="#000000" font-family="sans-serif" font-size="12" lengthAdjust="spacingAndGlyphs" textLength="49" x="745.7605" y="1175.9102">Direction</text><line style="stroke: #A80036; stroke-width: 1.5;" x1="717.7605" x2="796.7605" y1="1187" y2="1187"/><line style="stroke: #A80036; stroke-width: 1.5;" x1="717.7605" x2="796.7605" y1="1195" y2="1195"/><!--MD5=[4517a9099db328c27576a0137eb33da6]
class utils.Coordinate--><rect fill="#FEFECE" filter="url(#f1pjef5t241e00)" height="48" id="utils.Coordinate" style="stroke: #A80036; stroke-width: 1.5;" width="93" x="588.7605" y="1155"/><ellipse cx="603.7605" cy="1171" fill="#ADD1B2" rx="11" ry="11" style="stroke: #A80036; stroke-width: 1.0;"/><path d="M606.5261,1166.875 Q606.6823,1166.6563 606.8698,1166.5469 Q607.0573,1166.4375 607.2761,1166.4375 Q607.6511,1166.4375 607.8855,1166.7031 Q608.1198,1166.9531 608.1198,1167.5625 L608.1198,1169.0156 Q608.1198,1169.625 607.8855,1169.8906 Q607.6511,1170.1563 607.2761,1170.1563 Q606.9323,1170.1563 606.7292,1169.9531 Q606.5261,1169.7656 606.4167,1169.25 Q606.3698,1168.8906 606.1823,1168.7031 Q605.8542,1168.3281 605.2448,1168.1094 Q604.6355,1167.8906 604.0105,1167.8906 Q603.2448,1167.8906 602.6042,1168.2188 Q601.9792,1168.5469 601.4792,1169.2969 Q600.9948,1170.0469 600.9948,1171.0781 L600.9948,1172.1719 Q600.9948,1173.4063 601.8855,1174.2344 Q602.7761,1175.0469 604.3698,1175.0469 Q605.3073,1175.0469 605.9636,1174.7969 Q606.3542,1174.6406 606.7761,1174.2031 Q607.0417,1173.9375 607.1823,1173.8594 Q607.3386,1173.7813 607.5417,1173.7813 Q607.8698,1173.7813 608.1198,1174.0469 Q608.3855,1174.2969 608.3855,1174.6406 Q608.3855,1174.9844 608.0417,1175.3906 Q607.5417,1175.9688 606.7448,1176.2969 Q605.6667,1176.75 604.3698,1176.75 Q602.8542,1176.75 601.6511,1176.125 Q600.6667,1175.625 599.9792,1174.5625 Q599.2917,1173.4844 599.2917,1172.2031 L599.2917,1171.0469 Q599.2917,1169.7188 599.9011,1168.5781 Q600.5261,1167.4219 601.6198,1166.8125 Q602.7136,1166.1875 603.948,1166.1875 Q604.6823,1166.1875 605.323,1166.3594 Q605.9792,1166.5156 606.5261,1166.875 Z "/><text fill="#000000" font-family="sans-serif" font-size="12" lengthAdjust="spacingAndGlyphs" textLength="61" x="617.7605" y="1175.9102">Coordinate</text><line style="stroke: #A80036; stroke-width: 1.5;" x1="589.7605" x2="680.7605" y1="1187" y2="1187"/><line style="stroke: #A80036; stroke-width: 1.5;" x1="589.7605" x2="680.7605" y1="1195" y2="1195"/><!--MD5=[8af4fdb787b135b7271f9ce04b92f747]
class utils.Console--><rect fill="#FEFECE" filter="url(#f1pjef5t241e00)" height="48" id="utils.Console" style="stroke: #A80036; stroke-width: 1.5;" width="79" x="832.7605" y="1155"/><ellipse cx="847.7605" cy="1171" fill="#ADD1B2" rx="11" ry="11" style="stroke: #A80036; stroke-width: 1.0;"/><path d="M850.5261,1166.875 Q850.6823,1166.6563 850.8698,1166.5469 Q851.0573,1166.4375 851.2761,1166.4375 Q851.6511,1166.4375 851.8855,1166.7031 Q852.1198,1166.9531 852.1198,1167.5625 L852.1198,1169.0156 Q852.1198,1169.625 851.8855,1169.8906 Q851.6511,1170.1563 851.2761,1170.1563 Q850.9323,1170.1563 850.7292,1169.9531 Q850.5261,1169.7656 850.4167,1169.25 Q850.3698,1168.8906 850.1823,1168.7031 Q849.8542,1168.3281 849.2448,1168.1094 Q848.6355,1167.8906 848.0105,1167.8906 Q847.2448,1167.8906 846.6042,1168.2188 Q845.9792,1168.5469 845.4792,1169.2969 Q844.9948,1170.0469 844.9948,1171.0781 L844.9948,1172.1719 Q844.9948,1173.4063 845.8855,1174.2344 Q846.7761,1175.0469 848.3698,1175.0469 Q849.3073,1175.0469 849.9636,1174.7969 Q850.3542,1174.6406 850.7761,1174.2031 Q851.0417,1173.9375 851.1823,1173.8594 Q851.3386,1173.7813 851.5417,1173.7813 Q851.8698,1173.7813 852.1198,1174.0469 Q852.3855,1174.2969 852.3855,1174.6406 Q852.3855,1174.9844 852.0417,1175.3906 Q851.5417,1175.9688 850.7448,1176.2969 Q849.6667,1176.75 848.3698,1176.75 Q846.8542,1176.75 845.6511,1176.125 Q844.6667,1175.625 843.9792,1174.5625 Q843.2917,1173.4844 843.2917,1172.2031 L843.2917,1171.0469 Q843.2917,1169.7188 843.9011,1168.5781 Q844.5261,1167.4219 845.6198,1166.8125 Q846.7136,1166.1875 847.948,1166.1875 Q848.6823,1166.1875 849.323,1166.3594 Q849.9792,1166.5156 850.5261,1166.875 Z "/><text fill="#000000" font-family="sans-serif" font-size="12" lengthAdjust="spacingAndGlyphs" textLength="47" x="861.7605" y="1175.9102">Console</text><line style="stroke: #A80036; stroke-width: 1.5;" x1="833.7605" x2="910.7605" y1="1187" y2="1187"/><line style="stroke: #A80036; stroke-width: 1.5;" x1="833.7605" x2="910.7605" y1="1195" y2="1195"/><!--MD5=[959c5b36bcbb0655df73030dc49c5e5e]
class utils.WithConsoleModel--><rect fill="#FEFECE" filter="url(#f1pjef5t241e00)" height="48" id="utils.WithConsoleModel" style="stroke: #A80036; stroke-width: 1.5;" width="136" x="947.2605" y="1155"/><ellipse cx="962.2605" cy="1171" fill="#ADD1B2" rx="11" ry="11" style="stroke: #A80036; stroke-width: 1.0;"/><path d="M965.0261,1166.875 Q965.1823,1166.6563 965.3698,1166.5469 Q965.5573,1166.4375 965.7761,1166.4375 Q966.1511,1166.4375 966.3855,1166.7031 Q966.6198,1166.9531 966.6198,1167.5625 L966.6198,1169.0156 Q966.6198,1169.625 966.3855,1169.8906 Q966.1511,1170.1563 965.7761,1170.1563 Q965.4323,1170.1563 965.2292,1169.9531 Q965.0261,1169.7656 964.9167,1169.25 Q964.8698,1168.8906 964.6823,1168.7031 Q964.3542,1168.3281 963.7448,1168.1094 Q963.1355,1167.8906 962.5105,1167.8906 Q961.7448,1167.8906 961.1042,1168.2188 Q960.4792,1168.5469 959.9792,1169.2969 Q959.4948,1170.0469 959.4948,1171.0781 L959.4948,1172.1719 Q959.4948,1173.4063 960.3855,1174.2344 Q961.2761,1175.0469 962.8698,1175.0469 Q963.8073,1175.0469 964.4636,1174.7969 Q964.8542,1174.6406 965.2761,1174.2031 Q965.5417,1173.9375 965.6823,1173.8594 Q965.8386,1173.7813 966.0417,1173.7813 Q966.3698,1173.7813 966.6198,1174.0469 Q966.8855,1174.2969 966.8855,1174.6406 Q966.8855,1174.9844 966.5417,1175.3906 Q966.0417,1175.9688 965.2448,1176.2969 Q964.1667,1176.75 962.8698,1176.75 Q961.3542,1176.75 960.1511,1176.125 Q959.1667,1175.625 958.4792,1174.5625 Q957.7917,1173.4844 957.7917,1172.2031 L957.7917,1171.0469 Q957.7917,1169.7188 958.4011,1168.5781 Q959.0261,1167.4219 960.1198,1166.8125 Q961.2136,1166.1875 962.448,1166.1875 Q963.1823,1166.1875 963.823,1166.3594 Q964.4792,1166.5156 965.0261,1166.875 Z "/><text fill="#000000" font-family="sans-serif" font-size="12" lengthAdjust="spacingAndGlyphs" textLength="104" x="976.2605" y="1175.9102">WithConsoleModel</text><line style="stroke: #A80036; stroke-width: 1.5;" x1="948.2605" x2="1082.2605" y1="1187" y2="1187"/><line style="stroke: #A80036; stroke-width: 1.5;" x1="948.2605" x2="1082.2605" y1="1195" y2="1195"/><!--MD5=[6c70c0f5d22b0d421fe766e144384ba2]
class java.util.Random--><rect fill="#FEFECE" filter="url(#f1pjef5t241e00)" height="48" id="java.util.Random" style="stroke: #A80036; stroke-width: 1.5;" width="80" x="452.2605" y="1155"/><ellipse cx="467.2605" cy="1171" fill="#ADD1B2" rx="11" ry="11" style="stroke: #A80036; stroke-width: 1.0;"/><path d="M470.0261,1166.875 Q470.1823,1166.6563 470.3698,1166.5469 Q470.5573,1166.4375 470.7761,1166.4375 Q471.1511,1166.4375 471.3855,1166.7031 Q471.6198,1166.9531 471.6198,1167.5625 L471.6198,1169.0156 Q471.6198,1169.625 471.3855,1169.8906 Q471.1511,1170.1563 470.7761,1170.1563 Q470.4323,1170.1563 470.2292,1169.9531 Q470.0261,1169.7656 469.9167,1169.25 Q469.8698,1168.8906 469.6823,1168.7031 Q469.3542,1168.3281 468.7448,1168.1094 Q468.1355,1167.8906 467.5105,1167.8906 Q466.7448,1167.8906 466.1042,1168.2188 Q465.4792,1168.5469 464.9792,1169.2969 Q464.4948,1170.0469 464.4948,1171.0781 L464.4948,1172.1719 Q464.4948,1173.4063 465.3855,1174.2344 Q466.2761,1175.0469 467.8698,1175.0469 Q468.8073,1175.0469 469.4636,1174.7969 Q469.8542,1174.6406 470.2761,1174.2031 Q470.5417,1173.9375 470.6823,1173.8594 Q470.8386,1173.7813 471.0417,1173.7813 Q471.3698,1173.7813 471.6198,1174.0469 Q471.8855,1174.2969 471.8855,1174.6406 Q471.8855,1174.9844 471.5417,1175.3906 Q471.0417,1175.9688 470.2448,1176.2969 Q469.1667,1176.75 467.8698,1176.75 Q466.3542,1176.75 465.1511,1176.125 Q464.1667,1175.625 463.4792,1174.5625 Q462.7917,1173.4844 462.7917,1172.2031 L462.7917,1171.0469 Q462.7917,1169.7188 463.4011,1168.5781 Q464.0261,1167.4219 465.1198,1166.8125 Q466.2136,1166.1875 467.448,1166.1875 Q468.1823,1166.1875 468.823,1166.3594 Q469.4792,1166.5156 470.0261,1166.875 Z "/><text fill="#000000" font-family="sans-serif" font-size="12" lengthAdjust="spacingAndGlyphs" textLength="48" x="481.2605" y="1175.9102">Random</text><line style="stroke: #A80036; stroke-width: 1.5;" x1="453.2605" x2="531.2605" y1="1187" y2="1187"/><line style="stroke: #A80036; stroke-width: 1.5;" x1="453.2605" x2="531.2605" y1="1195" y2="1195"/><!--MD5=[404b23d618b71cde3be03a7a58004917]
link tictactoe.Board to tictactoe.Coordinate--><path d="M568.5596,857.7447 C568.5596,857.7447 560.1165,882.138 556.2305,893.364 " fill="none" id="tictactoe.Board-tictactoe.Coordinate" style="stroke: #A80036; stroke-width: 1.0;"/><polygon fill="#A80036" points="551.9095,905.848,558.6337,898.6519,553.5452,901.1231,551.0739,896.0346,551.9095,905.848" style="stroke: #A80036; stroke-width: 1.0;"/><line style="stroke: #A80036; stroke-width: 1.0;" x1="553.5452" x2="556.162" y1="901.1231" y2="893.5635"/><polygon fill="#A80036" points="572.4855,846.405,566.7427,850.7662,568.5596,857.7447,574.3024,853.3834,572.4855,846.405" style="stroke: #A80036; stroke-width: 1.0;"/><!--MD5=[f898b2b57adc118f28920c78a80f9c49]
link tictactoe.Board to tictactoe.Token--><path d="M661.6595,846.405 C669.9595,875.354 678.2925,904.417 685.2975,928.848 " fill="none" id="tictactoe.Board-&gt;tictactoe.Token" style="stroke: #A80036; stroke-width: 1.0; stroke-dasharray: 7.0,7.0;"/><polygon fill="#A80036" points="686.6805,933.671,688.0472,923.9174,685.3035,928.8644,680.3565,926.1206,686.6805,933.671" style="stroke: #A80036; stroke-width: 1.0;"/><!--MD5=[f29b9c18480b263534fc58049e46761a]
link tictactoe.Board to tictactoe.Turn--><path d="M472.0575,811.386 C411.3485,854.47 343.8365,902.381 293.7135,937.953 " fill="none" id="tictactoe.Board-&gt;tictactoe.Turn" style="stroke: #A80036; stroke-width: 1.0; stroke-dasharray: 7.0,7.0;"/><polygon fill="#A80036" points="289.5275,940.923,299.1821,938.9766,293.6051,938.0294,294.5523,932.4524,289.5275,940.923" style="stroke: #A80036; stroke-width: 1.0;"/><!--MD5=[f8596f186e78a1c116a3d6d74708ecf6]
link tictactoe.Board to utils.Direction--><path d="M770.6055,789.379 C834.4355,828.655 898.2305,873.772 915.2605,906 C956.1675,983.412 974.6515,1038.668 915.2605,1103 C900.1385,1119.38 835.1515,1100.932 815.2605,1111 C797.9695,1119.752 783.6515,1136.1135 773.5675,1150.4766 " fill="none" id="tictactoe.Board-&gt;utils.Direction" style="stroke: #A80036; stroke-width: 1.0; stroke-dasharray: 7.0,7.0;"/><polygon fill="#A80036" points="770.5755,1154.8594,778.9541,1149.6827,773.3951,1150.7303,772.3475,1145.1713,770.5755,1154.8594" style="stroke: #A80036; stroke-width: 1.0;"/><!--MD5=[b2dc8c8020d78699d8b087de435ff5e9]
link tictactoe.Board to tictactoe.Message--><path d="M730.6345,846.405 C753.2925,875.595 776.0405,904.902 795.1025,929.458 " fill="none" id="tictactoe.Board-&gt;tictactoe.Message" style="stroke: #A80036; stroke-width: 1.0; stroke-dasharray: 7.0,7.0;"/><polygon fill="#A80036" points="798.3725,933.671,796.0142,924.1086,795.3068,929.7211,789.6944,929.0137,798.3725,933.671" style="stroke: #A80036; stroke-width: 1.0;"/><!--MD5=[a2abebbd923c10e47f4ac2c7096ba5bf]
reverse link utils.Coordinate to tictactoe.Coordinate--><path d="M610.6805,1137.8672 C600.1095,1120.607 587.3195,1099.724 574.7905,1079.268 " fill="none" id="utils.Coordinate&lt;-tictactoe.Coordinate" style="stroke: #A80036; stroke-width: 1.0;"/><polygon fill="none" points="616.6865,1134.271,621.1635,1154.9827,604.7475,1141.5834,616.6865,1134.271" style="stroke: #A80036; stroke-width: 1.0;"/><!--MD5=[73fec0427d0feceed39310d568880c8d]
link tictactoe.Coordinate to utils.Direction--><path d="M598.1075,1079.057 C609.7115,1088.381 622.2045,1096.741 635.2605,1103 C661.1095,1115.391 673.9785,1097.489 699.2605,1111 C716.2295,1120.069 730.4615,1136.2672 740.5805,1150.4645 " fill="none" id="tictactoe.Coordinate-&gt;utils.Direction" style="stroke: #A80036; stroke-width: 1.0; stroke-dasharray: 7.0,7.0;"/><polygon fill="#A80036" points="743.5875,1154.7963,741.741,1145.1221,740.7362,1150.689,735.1693,1149.6841,743.5875,1154.7963" style="stroke: #A80036; stroke-width: 1.0;"/><!--MD5=[a6163c0a0995ceb9f818c9726db18b8b]
link tictactoe.Coordinate to java.util.Random--><path d="M508.3145,1079.268 C504.1745,1104.729 499.9265,1130.852 496.8415,1149.8269 " fill="none" id="tictactoe.Coordinate-&gt;java.util.Random" style="stroke: #A80036; stroke-width: 1.0; stroke-dasharray: 7.0,7.0;"/><polygon fill="#A80036" points="496.0035,1154.9827,501.3961,1146.7414,496.8059,1150.0475,493.4998,1145.4574,496.0035,1154.9827" style="stroke: #A80036; stroke-width: 1.0;"/><!--MD5=[5cc5e234a5219e75db51b67c2e00feec]
link tictactoe.Error to utils.Console--><path d="M1264.4505,770.205 C1250.1205,794.793 1232.5905,822.516 1214.2605,846 C1115.2505,972.84 1098.1505,1021.762 959.2605,1103 C947.7195,1109.75 941.5655,1103.861 930.2605,1111 C914.3455,1121.05 900.3955,1136.796 890.1665,1150.4989 " fill="none" id="tictactoe.Error-&gt;utils.Console" style="stroke: #A80036; stroke-width: 1.0; stroke-dasharray: 7.0,7.0;"/><polygon fill="#A80036" points="887.1135,1154.6774,895.6529,1149.7704,890.0633,1150.6403,889.1935,1145.0507,887.1135,1154.6774" style="stroke: #A80036; stroke-width: 1.0;"/><!--MD5=[d81eab81de183d659fd9189ef4ef9013]
reverse link tictactoe.Player to tictactoe.MachinePlayer--><path d="M909.1945,519.581 C942.0655,566.422 977.2795,616.603 1002.6075,652.695 " fill="none" id="tictactoe.Player&lt;-tictactoe.MachinePlayer" style="stroke: #A80036; stroke-width: 1.0;"/><polygon fill="none" points="903.4445,523.573,897.6855,503.181,914.9045,515.531,903.4445,523.573" style="stroke: #A80036; stroke-width: 1.0;"/><!--MD5=[723fb8ea50a3621038a61dec077d9317]
link tictactoe.Message to utils.Console--><path d="M852.3165,1051.118 C857.4895,1084.027 863.7435,1123.814 867.8525,1149.9556 " fill="none" id="tictactoe.Message-&gt;utils.Console" style="stroke: #A80036; stroke-width: 1.0; stroke-dasharray: 7.0,7.0;"/><polygon fill="#A80036" points="868.6445,1154.9958,871.1981,1145.4838,867.8679,1150.0565,863.2952,1146.7262,868.6445,1154.9958" style="stroke: #A80036; stroke-width: 1.0;"/><!--MD5=[e9f148de7e5f718f775a14a3e8ad1f15]
link tictactoe.Player to tictactoe.Token--><path d="M816.081,515.1047 C816.081,515.1047 805.3485,786.631 787.2605,846 C779.1885,872.496 765.5465,899.355 751.5775,922.663 " fill="none" id="tictactoe.Player-tictactoe.Token" style="stroke: #A80036; stroke-width: 1.0;"/><polygon fill="#A80036" points="744.7175,933.802,752.8431,928.2365,747.3395,929.5447,746.0314,924.0412,744.7175,933.802" style="stroke: #A80036; stroke-width: 1.0;"/><line style="stroke: #A80036; stroke-width: 1.0;" x1="747.3395" x2="751.5345" y1="929.5447" y2="922.733"/><polygon fill="#A80036" points="816.4015,503.109,812.2427,509,816.081,515.1047,820.2398,509.2137,816.4015,503.109" style="stroke: #A80036; stroke-width: 1.0;"/><!--MD5=[e6b2bf33f5e000488c598fabfd0a9dc4]
link tictactoe.Player to tictactoe.Board--><path d="M740.7535,513.3413 C740.7535,513.3413 724.5125,539.188 716.7395,551.558 " fill="none" id="tictactoe.Player-tictactoe.Board" style="stroke: #A80036; stroke-width: 1.0;"/><polygon fill="#A80036" points="709.6135,562.898,717.789,557.4061,712.2739,558.6645,711.0154,553.1494,709.6135,562.898" style="stroke: #A80036; stroke-width: 1.0;"/><line style="stroke: #A80036; stroke-width: 1.0;" x1="712.2739" x2="716.53" y1="558.6645" y2="551.891"/><polygon fill="#A80036" points="747.1385,503.181,740.5592,506.1328,740.7535,513.3413,747.3327,510.3895,747.1385,503.181" style="stroke: #A80036; stroke-width: 1.0;"/><!--MD5=[690eb190d5a3fe72ca44410244d1de56]
link tictactoe.Player to tictactoe.Coordinate--><path d="M644.9015,428.732 C573.0405,454.255 496.6835,495.866 454.2605,563 C389.3665,665.694 433.2255,809.061 474.5675,901.097 " fill="none" id="tictactoe.Player-&gt;tictactoe.Coordinate" style="stroke: #A80036; stroke-width: 1.0; stroke-dasharray: 7.0,7.0;"/><polygon fill="#A80036" points="476.6585,905.714,476.5887,895.8654,474.5955,901.1594,469.3014,899.1662,476.6585,905.714" style="stroke: #A80036; stroke-width: 1.0;"/><!--MD5=[f4051ae2c8072629186cb8844dc1e6ce]
link tictactoe.Player to tictactoe.Error--><path d="M991.7025,439.532 C1066.2305,467.069 1150.6305,507.267 1214.2605,563 C1236.4705,582.451 1254.6205,609.156 1268.3605,634.063 " fill="none" id="tictactoe.Player-&gt;tictactoe.Error" style="stroke: #A80036; stroke-width: 1.0; stroke-dasharray: 7.0,7.0;"/><polygon fill="#A80036" points="1270.8705,638.69,1270.0811,628.8728,1268.4801,634.2984,1263.0545,632.6974,1270.8705,638.69" style="stroke: #A80036; stroke-width: 1.0;"/><!--MD5=[261a7e360cf9cf8da7302ff98d0ec7d9]
link tictactoe.Player to tictactoe.Message--><path d="M822.9625,503.138 C828.1995,629.138 836.4765,828.288 840.6585,928.902 " fill="none" id="tictactoe.Player-&gt;tictactoe.Message" style="stroke: #A80036; stroke-width: 1.0; stroke-dasharray: 7.0,7.0;"/><polygon fill="#A80036" points="840.8675,933.913,844.4912,924.755,840.6603,928.9173,836.498,925.0864,840.8675,933.913" style="stroke: #A80036; stroke-width: 1.0;"/><!--MD5=[94a3f05f456c1427e6c5e1fe3e4db400]
reverse link utils.WithConsoleModel to tictactoe.TicTacToe--><path d="M1077.2405,1144.8157 C1164.8505,1093.931 1321.2405,987.471 1384.2605,846 C1435.4405,731.106 1439.8705,675.818 1384.2605,563 C1264.5405,320.109 937.1185,195.55 788.4605,150.12 " fill="none" id="utils.WithConsoleModel&lt;-tictactoe.TicTacToe" style="stroke: #A80036; stroke-width: 1.0;"/><polygon fill="none" points="1080.4905,1151.0185,1059.6505,1154.823,1073.5705,1138.8496,1080.4905,1151.0185" style="stroke: #A80036; stroke-width: 1.0;"/><!--MD5=[c42342be9a1e28cd0c014e08f74fb79b]
link tictactoe.TicTacToe to tictactoe.Board--><path d="M647.2732,225.6203 C647.2732,225.6203 631.8465,258.68 627.2605,275 C602.3305,363.725 600.1225,466.915 604.4835,549.796 " fill="none" id="tictactoe.TicTacToe-tictactoe.Board" style="stroke: #A80036; stroke-width: 1.0;"/><polygon fill="#A80036" points="605.2375,562.918,608.7146,553.7034,604.9506,557.9262,600.7278,554.1623,605.2375,562.918" style="stroke: #A80036; stroke-width: 1.0;"/><line style="stroke: #A80036; stroke-width: 1.0;" x1="604.9506" x2="604.491" y1="557.9262" y2="549.94"/><polygon fill="#A80036" points="652.9165,215.03,646.5648,218.4441,647.2732,225.6203,653.6249,222.2062,652.9165,215.03" style="stroke: #A80036; stroke-width: 1.0;"/><!--MD5=[b830720abb08504c8d94e403e81a072b]
link tictactoe.TicTacToe to tictactoe.Player--><path d="M752.5892,226.3399 C752.5892,226.3399 762.5385,250.818 767.3315,262.619 " fill="none" id="tictactoe.TicTacToe-tictactoe.Player" style="stroke: #A80036; stroke-width: 1.0;"/><polygon fill="#A80036" points="772.3135,274.884,772.632,265.0403,770.4316,270.2516,765.2203,268.0512,772.3135,274.884" style="stroke: #A80036; stroke-width: 1.0;"/><line style="stroke: #A80036; stroke-width: 1.0;" x1="770.4316" x2="767.422" y1="270.2516" y2="262.8395"/><polygon fill="#A80036" points="748.0785,215.22,746.6272,222.2836,752.5892,226.3399,754.0405,219.2764,748.0785,215.22" style="stroke: #A80036; stroke-width: 1.0;"/><!--MD5=[ac71361f5e1bb557c0f682e6a95deaa7]
link tictactoe.TicTacToe to tictactoe.Turn--><path d="M626.7178,157.173 C626.7178,157.173 185.0865,338.671 65.2605,563 C6,673.943 15.6717,730.41 65.2605,846 C80.3198,881.103 108.4692,911.736 136.5575,935.722 " fill="none" id="tictactoe.TicTacToe-tictactoe.Turn" style="stroke: #A80036; stroke-width: 1.0;"/><polygon fill="#A80036" points="146.8785,944.254,142.4902,935.4368,143.0247,941.0683,137.3931,941.6028,146.8785,944.254" style="stroke: #A80036; stroke-width: 1.0;"/><line style="stroke: #A80036; stroke-width: 1.0;" x1="143.0247" x2="136.8585" y1="941.0683" y2="935.971"/><polygon fill="#A80036" points="638.0375,153.19,631.0499,151.4083,626.7178,157.173,633.7053,158.9547,638.0375,153.19" style="stroke: #A80036; stroke-width: 1.0;"/><!--MD5=[a7c4824459e033ddfc3ddf654e1bd2c8]
link tictactoe.Token to utils.Console--><path d="M727.1485,1051.048 C737.9045,1070.364 752.4815,1090.223 771.2605,1103 C787.6935,1114.181 798.0395,1101.075 815.2605,1111 C831.6885,1120.468 845.5885,1136.5118 855.5485,1150.5257 " fill="none" id="tictactoe.Token-&gt;utils.Console" style="stroke: #A80036; stroke-width: 1.0; stroke-dasharray: 7.0,7.0;"/><polygon fill="#A80036" points="858.5125,1154.8001,856.6717,1145.1248,855.6636,1150.6911,850.0973,1149.683,858.5125,1154.8001" style="stroke: #A80036; stroke-width: 1.0;"/><!--MD5=[d3f992b0e8a95e0fad0f19bca03a3ff6]
reverse link tictactoe.Player to tictactoe.UserPlayer--><path d="M626.5895,464.354 C561.6965,492.24 489.8485,526.182 427.2605,563 C393.0765,583.109 357.8075,608.412 327.2935,631.985 " fill="none" id="tictactoe.Player&lt;-tictactoe.UserPlayer" style="stroke: #A80036; stroke-width: 1.0;"/><polygon fill="none" points="623.9965,457.85,645.1405,456.464,629.4755,470.733,623.9965,457.85" style="stroke: #A80036; stroke-width: 1.0;"/><!--MD5=[94a27ef21111c318f78cd15aba1be1ce]
@startuml

class  tictactoe.Board{
- coordinates: Coordinate[][]
~ Board()
~ write(): void
- getToken(Coordinate): Token
~ move(Coordinate, Coordinate): void
~ put(Coordinate, Token): void
- remove(Coordinate): void
~ isTicTacToe(Token): boolean
- numberOfCoordinates(Coordinate[]): int
~ isCompleted(): boolean
~ isEmpty(Coordinate): boolean
~ isOccupied(Coordinate, Token): boolean
- printRowBoard(int): void
- printSquareValueBoard(int, int): void
- checkNumberOfCoordinates(Coordinate[]): boolean
- checkDirectionOfFirstCoordinates(Coordinate[]): boolean
- checkDirectionOfAllCoordinates(Coordinate[]): boolean
}
tictactoe.Board *-down-> tictactoe.Coordinate
tictactoe.Board ..> tictactoe.Token
tictactoe.Board ..> tictactoe.Turn
tictactoe.Board ..> utils.Direction
tictactoe.Board ..> tictactoe.Message

class  tictactoe.Coordinate{
~ {static} DIMENSION: char
~ Coordinate()
~ Coordinate(int, int)
~ inDirection(Coordinate): boolean
~ getDirection(Coordinate): Direction
- inInverseDiagonal(): boolean
- isValid(): boolean
# read(String): void
~ random(): void
}
utils.Coordinate <|-down- tictactoe.Coordinate
tictactoe.Coordinate ..> utils.Direction
tictactoe.Coordinate ..> java.util.Random

enum  tictactoe.Error{
NOT_EMPTY
NOT_OWNER
SAME_COORDINATES
- message: String
~ Error(String)
~ writeln(): void
}
tictactoe.Error ..> utils.Console

class  tictactoe.MachinePlayer{
~ MachinePlayer(Token, Board)
~ readCoordinateToPut(Coordinate): Error
~ readCoordinateOriginToRemove(Coordinate): Error
~ readCoordinateTargetToMove(Coordinate, Coordinate): Error
}
tictactoe.Player <|-down- tictactoe.MachinePlayer

enum  tictactoe.Message{
- message: String
- console: Console
- Message(String)
~ write(): void
~ writeln(): void
}
tictactoe.Message ..> utils.Console

class  tictactoe.Player{
# token: Token
# board: Board
~ Player(Token, Board)
~ put(): void
~ move(): void
~ {abstract} readCoordinateToPut(Coordinate): Error
~ {abstract} readCoordinateOriginToRemove(Coordinate): Error
~ {abstract} readCoordinateTargetToMove(Coordinate, Coordinate): Error
~ writeWin(Token): void
~ getToken(): Token
~ controlErrorsPutCoordinate(Coordinate): Error
~ controlErrorsMoveOriginCoordinate(Coordinate): Error
~ controlErrorsMoveTargetCoordinate(Coordinate, Coordinate): Error
}
tictactoe.Player *-down-> tictactoe.Token
tictactoe.Player *-down-> tictactoe.Board
tictactoe.Player ..> tictactoe.Coordinate
tictactoe.Player ..> tictactoe.Error
tictactoe.Player ..> tictactoe.Message

class  tictactoe.TicTacToe{
- board: Board
- players: Players
- turn: Turn
~ TicTacToe()
- play(): void
- playUntilTicTacToe(): void
- createPlayers(): void
- readUsersNumber(): int
+ main(String[]): void
}
utils.WithConsoleModel <|-down- tictactoe.TicTacToe
tictactoe.TicTacToe *-down-> tictactoe.Board
tictactoe.TicTacToe *-down-> tictactoe.Player
tictactoe.TicTacToe *-down-> tictactoe.Turn

enum  tictactoe.Token{
TOKEN_X
TOKEN_O
- character: char
~ Token(char)
~ write(): void
}
tictactoe.Token..> utils.Console

class  tictactoe.Turn{
~ {static} PLAYERS: int
- value: int
- players: Player[]
~ Turn(Player[])
~ change(): void
~ getPlayer(): Player
~ getOtherValue(): int
~ getOtherPlayer(): Player
}

class  tictactoe.UserPlayer{
~ {static} ENTER_COORDINATE_TO_PUT: String
~ {static} ENTER_COORDINATE_TO_REMOVE: String
~ UserPlayer(Token, Board)
~ readCoordinateToPut(Coordinate): Error
~ readCoordinateOriginToRemove(Coordinate): Error
~ readCoordinateTargetToMove(Coordinate, Coordinate): Error
- writeErrorWhenNotNull(Error): void
}
tictactoe.Player <|-down- tictactoe.UserPlayer

@enduml

PlantUML version 1.2020.15(Sun Jun 28 13:39:45 CEST 2020)
(GPL source distribution)
Java Runtime: Java(TM) SE Runtime Environment
JVM: Java HotSpot(TM) 64-Bit Server VM
Default Encoding: windows-1252
Language: es
Country: ES
--></g></svg>