<?xml version="1.0" encoding="UTF-8" standalone="no"?><svg xmlns="http://www.w3.org/2000/svg" xmlns:xlink="http://www.w3.org/1999/xlink" contentScriptType="application/ecmascript" contentStyleType="text/css" height="303px" preserveAspectRatio="none" style="width:206px;height:303px;" version="1.1" viewBox="0 0 206 303" width="206px" zoomAndPan="magnify"><defs><filter height="300%" id="f1j5d8xp5lrerv" width="300%" x="-1" y="-1"><feGaussianBlur result="blurOut" stdDeviation="2.0"/><feColorMatrix in="blurOut" result="blurOut2" type="matrix" values="0 0 0 0 0 0 0 0 0 0 0 0 0 0 0 0 0 0 .4 0"/><feOffset dx="4.0" dy="4.0" in="blurOut2" result="blurOut3"/><feBlend in="SourceGraphic" in2="blurOut3" mode="normal"/></filter></defs><g><polygon fill="#DDDDDD" filter="url(#f1j5d8xp5lrerv)" points="62,6,129,6,136,29.6094,143,29.6094,143,61.2188,62,61.2188,62,6" style="stroke: #000000; stroke-width: 1.5;"/><line style="stroke: #000000; stroke-width: 1.5;" x1="62" x2="136" y1="29.6094" y2="29.6094"/><text fill="#000000" font-family="sans-serif" font-size="14" font-weight="bold" lengthAdjust="spacingAndGlyphs" textLength="61" x="66" y="22.5332">tictactoe</text><polygon fill="#FFFFFF" filter="url(#f1j5d8xp5lrerv)" points="16,121,77,121,84,144.6094,91,144.6094,91,176.2188,16,176.2188,16,121" style="stroke: #000000; stroke-width: 1.5;"/><line style="stroke: #000000; stroke-width: 1.5;" x1="16" x2="84" y1="144.6094" y2="144.6094"/><text fill="#000000" font-family="sans-serif" font-size="14" font-weight="bold" lengthAdjust="spacingAndGlyphs" textLength="55" x="20" y="137.5332">java.util</text><polygon fill="#DDDDDD" filter="url(#f1j5d8xp5lrerv)" points="126.5,121,162.5,121,169.5,144.6094,176.5,144.6094,176.5,176.2188,126.5,176.2188,126.5,121" style="stroke: #000000; stroke-width: 1.5;"/><line style="stroke: #000000; stroke-width: 1.5;" x1="126.5" x2="169.5" y1="144.6094" y2="144.6094"/><text fill="#000000" font-family="sans-serif" font-size="14" font-weight="bold" lengthAdjust="spacingAndGlyphs" textLength="30" x="130.5" y="137.5332">utils</text><polygon fill="#FFFFFF" filter="url(#f1j5d8xp5lrerv)" points="118.5,236,170.5,236,177.5,259.6094,184.5,259.6094,184.5,291.2188,118.5,291.2188,118.5,236" style="stroke: #000000; stroke-width: 1.5;"/><line style="stroke: #000000; stroke-width: 1.5;" x1="118.5" x2="177.5" y1="259.6094" y2="259.6094"/><text fill="#000000" font-family="sans-serif" font-size="14" font-weight="bold" lengthAdjust="spacingAndGlyphs" textLength="46" x="122.5" y="252.5332">java.io</text><!--MD5=[d51df217a00d7a0863d1abf45773ec68]
link tictactoe to java.util--><path d="M90.8877,61.279 C83.7479,77.745 74.5669,98.917 67.0896,116.161 " fill="none" id="tictactoe-&gt;java.util" style="stroke: #A80036; stroke-width: 1.0; stroke-dasharray: 7.0,7.0;"/><polygon fill="#A80036" points="65.029,120.913,72.2804,114.2483,67.0189,116.326,64.9412,111.0645,65.029,120.913" style="stroke: #A80036; stroke-width: 1.0;"/><!--MD5=[620c5fa6809933c6e79a112fa37207f5]
link tictactoe to utils--><path d="M114.1123,61.279 C121.252,77.745 130.433,98.917 137.91,116.161 " fill="none" id="tictactoe-&gt;utils" style="stroke: #A80036; stroke-width: 1.0; stroke-dasharray: 7.0,7.0;"/><polygon fill="#A80036" points="139.971,120.913,140.0587,111.0645,137.9811,116.326,132.7196,114.2484,139.971,120.913" style="stroke: #A80036; stroke-width: 1.0;"/><!--MD5=[e79504c030c2940e8dd8427e90ad9823]
link utils to java.io--><path d="M151.5,176.279 C151.5,192.6038 151.5,213.5556 151.5,230.7176 " fill="none" id="utils-&gt;java.io" style="stroke: #A80036; stroke-width: 1.0; stroke-dasharray: 7.0,7.0;"/><polygon fill="#A80036" points="151.5,235.9128,155.5,226.9128,151.5,230.9128,147.5,226.9128,151.5,235.9128" style="stroke: #A80036; stroke-width: 1.0;"/><!--MD5=[e88e7c570693c79b8abfd8c28b41a2d3]
@startuml

package tictactoe #DDDDDD { }
package java.util{ }
tictactoe .down.> java.util
tictactoe .down.> utils

package utils #DDDDDD { }
package java.io{ }
utils .down.> java.io

@enduml

PlantUML version 1.2020.15(Sun Jun 28 13:39:45 CEST 2020)
(GPL source distribution)
Java Runtime: Java(TM) SE Runtime Environment
JVM: Java HotSpot(TM) 64-Bit Server VM
Default Encoding: windows-1252
Language: es
Country: ES
--></g></svg>