<?xml version="1.0" encoding="UTF-8" standalone="no"?><svg xmlns="http://www.w3.org/2000/svg" xmlns:xlink="http://www.w3.org/1999/xlink" contentScriptType="application/ecmascript" contentStyleType="text/css" height="968px" preserveAspectRatio="none" style="width:1533px;height:968px;" version="1.1" viewBox="0 0 1533 968" width="1533px" zoomAndPan="magnify"><defs><filter height="300%" id="f2zpvd0cf4yp2" width="300%" x="-1" y="-1"><feGaussianBlur result="blurOut" stdDeviation="2.0"/><feColorMatrix in="blurOut" result="blurOut2" type="matrix" values="0 0 0 0 0 0 0 0 0 0 0 0 0 0 0 0 0 0 .4 0"/><feOffset dx="4.0" dy="4.0" in="blurOut2" result="blurOut3"/><feBlend in="SourceGraphic" in2="blurOut3" mode="normal"/></filter></defs><g><!--MD5=[807bc46d8103c809ff053af9e140e1f5]
cluster tictactoe--><polygon fill="#FFFFFF" filter="url(#f2zpvd0cf4yp2)" points="152,6,219,6,226,29.6094,1074,29.6094,1074,956,152,956,152,6" style="stroke: #000000; stroke-width: 1.5;"/><line style="stroke: #000000; stroke-width: 1.5;" x1="152" x2="226" y1="29.6094" y2="29.6094"/><text fill="#000000" font-family="sans-serif" font-size="14" font-weight="bold" lengthAdjust="spacingAndGlyphs" textLength="61" x="156" y="22.5332">tictactoe</text><!--MD5=[c52f45833d539af9e29a9d34b8b7302b]
cluster utils--><polygon fill="#FFFFFF" filter="url(#f2zpvd0cf4yp2)" points="1098,266,1134,266,1141,289.6094,1511,289.6094,1511,366,1098,366,1098,266" style="stroke: #000000; stroke-width: 1.5;"/><line style="stroke: #000000; stroke-width: 1.5;" x1="1098" x2="1141" y1="289.6094" y2="289.6094"/><text fill="#000000" font-family="sans-serif" font-size="14" font-weight="bold" lengthAdjust="spacingAndGlyphs" textLength="30" x="1102" y="282.5332">utils</text><!--MD5=[7db3c59d38ae5b37b484eb2df9368145]
cluster java.util--><polygon fill="#FFFFFF" filter="url(#f2zpvd0cf4yp2)" points="16,793.5,77,793.5,84,817.1094,128,817.1094,128,893.5,16,893.5,16,793.5" style="stroke: #000000; stroke-width: 1.5;"/><line style="stroke: #000000; stroke-width: 1.5;" x1="16" x2="84" y1="817.1094" y2="817.1094"/><text fill="#000000" font-family="sans-serif" font-size="14" font-weight="bold" lengthAdjust="spacingAndGlyphs" textLength="55" x="20" y="810.0332">java.util</text><!--MD5=[fe8c2a3a027cc482bba355aece2adaca]
class tictactoe.Board--><rect fill="#FEFECE" filter="url(#f2zpvd0cf4yp2)" height="227.8672" id="tictactoe.Board" style="stroke: #A80036; stroke-width: 1.5;" width="219" x="838.5" y="479"/><ellipse cx="927.25" cy="495" fill="#ADD1B2" rx="11" ry="11" style="stroke: #A80036; stroke-width: 1.0;"/><path d="M930.0156,490.875 Q930.1719,490.6563 930.3594,490.5469 Q930.5469,490.4375 930.7656,490.4375 Q931.1406,490.4375 931.375,490.7031 Q931.6094,490.9531 931.6094,491.5625 L931.6094,493.0156 Q931.6094,493.625 931.375,493.8906 Q931.1406,494.1563 930.7656,494.1563 Q930.4219,494.1563 930.2188,493.9531 Q930.0156,493.7656 929.9063,493.25 Q929.8594,492.8906 929.6719,492.7031 Q929.3438,492.3281 928.7344,492.1094 Q928.125,491.8906 927.5,491.8906 Q926.7344,491.8906 926.0938,492.2188 Q925.4688,492.5469 924.9688,493.2969 Q924.4844,494.0469 924.4844,495.0781 L924.4844,496.1719 Q924.4844,497.4063 925.375,498.2344 Q926.2656,499.0469 927.8594,499.0469 Q928.7969,499.0469 929.4531,498.7969 Q929.8438,498.6406 930.2656,498.2031 Q930.5313,497.9375 930.6719,497.8594 Q930.8281,497.7813 931.0313,497.7813 Q931.3594,497.7813 931.6094,498.0469 Q931.875,498.2969 931.875,498.6406 Q931.875,498.9844 931.5313,499.3906 Q931.0313,499.9688 930.2344,500.2969 Q929.1563,500.75 927.8594,500.75 Q926.3438,500.75 925.1406,500.125 Q924.1563,499.625 923.4688,498.5625 Q922.7813,497.4844 922.7813,496.2031 L922.7813,495.0469 Q922.7813,493.7188 923.3906,492.5781 Q924.0156,491.4219 925.1094,490.8125 Q926.2031,490.1875 927.4375,490.1875 Q928.1719,490.1875 928.8125,490.3594 Q929.4688,490.5156 930.0156,490.875 Z "/><text fill="#000000" font-family="sans-serif" font-size="12" lengthAdjust="spacingAndGlyphs" textLength="33" x="947.75" y="499.9102">Board</text><line style="stroke: #A80036; stroke-width: 1.5;" x1="839.5" x2="1056.5" y1="511" y2="511"/><ellipse cx="849.5" cy="522" fill="none" rx="3" ry="3" style="stroke: #038048; stroke-width: 1.0;"/><text fill="#000000" font-family="sans-serif" font-size="11" lengthAdjust="spacingAndGlyphs" text-decoration="underline" textLength="62" x="858.5" y="526.4189">EMPTY: char</text><rect fill="none" height="6" style="stroke: #C82930; stroke-width: 1.0;" width="6" x="846.5" y="532.8359"/><text fill="#000000" font-family="sans-serif" font-size="11" lengthAdjust="spacingAndGlyphs" textLength="127" x="858.5" y="540.2549">coordinates: Coordinate[][]</text><line style="stroke: #A80036; stroke-width: 1.5;" x1="839.5" x2="1056.5" y1="546.6719" y2="546.6719"/><ellipse cx="849.5" cy="557.6719" fill="#84BE84" rx="3" ry="3" style="stroke: #038048; stroke-width: 1.0;"/><text fill="#000000" font-family="sans-serif" font-size="11" lengthAdjust="spacingAndGlyphs" textLength="37" x="858.5" y="562.0908">Board()</text><polygon fill="#4177AF" points="849.5,567.5078,845.5,573.5078,853.5,573.5078" style="stroke: #1963A0; stroke-width: 1.0;"/><text fill="#000000" font-family="sans-serif" font-size="11" lengthAdjust="spacingAndGlyphs" textLength="59" x="858.5" y="575.9268">write(): void</text><rect fill="#F24D5C" height="6" style="stroke: #C82930; stroke-width: 1.0;" width="6" x="846.5" y="582.3438"/><text fill="#000000" font-family="sans-serif" font-size="11" lengthAdjust="spacingAndGlyphs" textLength="139" x="858.5" y="589.7627">getToken(Coordinate): Token</text><polygon fill="#4177AF" points="849.5,595.1797,845.5,601.1797,853.5,601.1797" style="stroke: #1963A0; stroke-width: 1.0;"/><text fill="#000000" font-family="sans-serif" font-size="11" lengthAdjust="spacingAndGlyphs" textLength="170" x="858.5" y="603.5986">move(Coordinate, Coordinate): void</text><polygon fill="#4177AF" points="849.5,609.0156,845.5,615.0156,853.5,615.0156" style="stroke: #1963A0; stroke-width: 1.0;"/><text fill="#000000" font-family="sans-serif" font-size="11" lengthAdjust="spacingAndGlyphs" textLength="136" x="858.5" y="617.4346">put(Coordinate, Token): void</text><rect fill="#F24D5C" height="6" style="stroke: #C82930; stroke-width: 1.0;" width="6" x="846.5" y="623.8516"/><text fill="#000000" font-family="sans-serif" font-size="11" lengthAdjust="spacingAndGlyphs" textLength="122" x="858.5" y="631.2705">remove(Coordinate): void</text><polygon fill="#4177AF" points="849.5,636.6875,845.5,642.6875,853.5,642.6875" style="stroke: #1963A0; stroke-width: 1.0;"/><text fill="#000000" font-family="sans-serif" font-size="11" lengthAdjust="spacingAndGlyphs" textLength="139" x="858.5" y="645.1064">isTicTacToe(Token): boolean</text><rect fill="#F24D5C" height="6" style="stroke: #C82930; stroke-width: 1.0;" width="6" x="846.5" y="651.5234"/><text fill="#000000" font-family="sans-serif" font-size="11" lengthAdjust="spacingAndGlyphs" textLength="189" x="858.5" y="658.9424">numberOfCoordinates(Coordinate[]): int</text><polygon fill="#4177AF" points="849.5,664.3594,845.5,670.3594,853.5,670.3594" style="stroke: #1963A0; stroke-width: 1.0;"/><text fill="#000000" font-family="sans-serif" font-size="11" lengthAdjust="spacingAndGlyphs" textLength="110" x="858.5" y="672.7783">isCompleted(): boolean</text><polygon fill="#4177AF" points="849.5,678.1953,845.5,684.1953,853.5,684.1953" style="stroke: #1963A0; stroke-width: 1.0;"/><text fill="#000000" font-family="sans-serif" font-size="11" lengthAdjust="spacingAndGlyphs" textLength="141" x="858.5" y="686.6143">isEmpty(Coordinate): boolean</text><polygon fill="#4177AF" points="849.5,692.0313,845.5,698.0313,853.5,698.0313" style="stroke: #1963A0; stroke-width: 1.0;"/><text fill="#000000" font-family="sans-serif" font-size="11" lengthAdjust="spacingAndGlyphs" textLength="193" x="858.5" y="700.4502">isOccupied(Coordinate, Token): boolean</text><!--MD5=[9a8c2a94ef3c6fa51e81ab3c6f9be706]
class tictactoe.Coordinate--><rect fill="#FEFECE" filter="url(#f2zpvd0cf4yp2)" height="172.5234" id="tictactoe.Coordinate" style="stroke: #A80036; stroke-width: 1.5;" width="191" x="859.5" y="767"/><ellipse cx="920.25" cy="783" fill="#ADD1B2" rx="11" ry="11" style="stroke: #A80036; stroke-width: 1.0;"/><path d="M923.0156,778.875 Q923.1719,778.6563 923.3594,778.5469 Q923.5469,778.4375 923.7656,778.4375 Q924.1406,778.4375 924.375,778.7031 Q924.6094,778.9531 924.6094,779.5625 L924.6094,781.0156 Q924.6094,781.625 924.375,781.8906 Q924.1406,782.1563 923.7656,782.1563 Q923.4219,782.1563 923.2188,781.9531 Q923.0156,781.7656 922.9063,781.25 Q922.8594,780.8906 922.6719,780.7031 Q922.3438,780.3281 921.7344,780.1094 Q921.125,779.8906 920.5,779.8906 Q919.7344,779.8906 919.0938,780.2188 Q918.4688,780.5469 917.9688,781.2969 Q917.4844,782.0469 917.4844,783.0781 L917.4844,784.1719 Q917.4844,785.4063 918.375,786.2344 Q919.2656,787.0469 920.8594,787.0469 Q921.7969,787.0469 922.4531,786.7969 Q922.8438,786.6406 923.2656,786.2031 Q923.5313,785.9375 923.6719,785.8594 Q923.8281,785.7813 924.0313,785.7813 Q924.3594,785.7813 924.6094,786.0469 Q924.875,786.2969 924.875,786.6406 Q924.875,786.9844 924.5313,787.3906 Q924.0313,787.9688 923.2344,788.2969 Q922.1563,788.75 920.8594,788.75 Q919.3438,788.75 918.1406,788.125 Q917.1563,787.625 916.4688,786.5625 Q915.7813,785.4844 915.7813,784.2031 L915.7813,783.0469 Q915.7813,781.7188 916.3906,780.5781 Q917.0156,779.4219 918.1094,778.8125 Q919.2031,778.1875 920.4375,778.1875 Q921.1719,778.1875 921.8125,778.3594 Q922.4688,778.5156 923.0156,778.875 Z "/><text fill="#000000" font-family="sans-serif" font-size="12" lengthAdjust="spacingAndGlyphs" textLength="61" x="940.75" y="787.9102">Coordinate</text><line style="stroke: #A80036; stroke-width: 1.5;" x1="860.5" x2="1049.5" y1="799" y2="799"/><ellipse cx="870.5" cy="810" fill="none" rx="3" ry="3" style="stroke: #038048; stroke-width: 1.0;"/><text fill="#000000" font-family="sans-serif" font-size="11" lengthAdjust="spacingAndGlyphs" text-decoration="underline" textLength="82" x="879.5" y="814.4189">DIMENSION: char</text><line style="stroke: #A80036; stroke-width: 1.5;" x1="860.5" x2="1049.5" y1="820.8359" y2="820.8359"/><ellipse cx="870.5" cy="831.8359" fill="#84BE84" rx="3" ry="3" style="stroke: #038048; stroke-width: 1.0;"/><text fill="#000000" font-family="sans-serif" font-size="11" lengthAdjust="spacingAndGlyphs" textLength="60" x="879.5" y="836.2549">Coordinate()</text><ellipse cx="870.5" cy="845.6719" fill="#84BE84" rx="3" ry="3" style="stroke: #038048; stroke-width: 1.0;"/><text fill="#000000" font-family="sans-serif" font-size="11" lengthAdjust="spacingAndGlyphs" textLength="88" x="879.5" y="850.0908">Coordinate(int, int)</text><polygon fill="#4177AF" points="870.5,855.5078,866.5,861.5078,874.5,861.5078" style="stroke: #1963A0; stroke-width: 1.0;"/><text fill="#000000" font-family="sans-serif" font-size="11" lengthAdjust="spacingAndGlyphs" textLength="154" x="879.5" y="863.9268">inDirection(Coordinate): boolean</text><polygon fill="#4177AF" points="870.5,869.3438,866.5,875.3438,874.5,875.3438" style="stroke: #1963A0; stroke-width: 1.0;"/><text fill="#000000" font-family="sans-serif" font-size="11" lengthAdjust="spacingAndGlyphs" textLength="165" x="879.5" y="877.7627">getDirection(Coordinate): Direction</text><rect fill="#F24D5C" height="6" style="stroke: #C82930; stroke-width: 1.0;" width="6" x="867.5" y="884.1797"/><text fill="#000000" font-family="sans-serif" font-size="11" lengthAdjust="spacingAndGlyphs" textLength="137" x="879.5" y="891.5986">inInverseDiagonal(): boolean</text><rect fill="#F24D5C" height="6" style="stroke: #C82930; stroke-width: 1.0;" width="6" x="867.5" y="898.0156"/><text fill="#000000" font-family="sans-serif" font-size="11" lengthAdjust="spacingAndGlyphs" textLength="84" x="879.5" y="905.4346">isValid(): boolean</text><polygon fill="#FFFF44" points="870.5,909.8516,874.5,913.8516,870.5,917.8516,866.5,913.8516" style="stroke: #B38D22; stroke-width: 1.0;"/><text fill="#000000" font-family="sans-serif" font-size="11" lengthAdjust="spacingAndGlyphs" textLength="84" x="879.5" y="919.2705">read(String): void</text><polygon fill="#4177AF" points="870.5,924.6875,866.5,930.6875,874.5,930.6875" style="stroke: #1963A0; stroke-width: 1.0;"/><text fill="#000000" font-family="sans-serif" font-size="11" lengthAdjust="spacingAndGlyphs" textLength="70" x="879.5" y="933.1064">random(): void</text><!--MD5=[5de8aa7dd09724b7d22be446bb0305c3]
class tictactoe.Token--><rect fill="#FEFECE" filter="url(#f2zpvd0cf4yp2)" height="117.1797" id="tictactoe.Token" style="stroke: #A80036; stroke-width: 1.5;" width="101" x="718.5" y="795"/><ellipse cx="749.25" cy="811" fill="#EB937F" rx="11" ry="11" style="stroke: #A80036; stroke-width: 1.0;"/><path d="M748.1094,811.7969 L748.1094,814.2969 L752.4375,814.2969 L752.4375,813.375 Q752.4375,812.7656 752.6719,812.5 Q752.9219,812.2344 753.2969,812.2344 Q753.6719,812.2344 753.9063,812.5 Q754.1406,812.7656 754.1406,813.375 L754.1406,816 L746.1406,816 Q745.5156,816 745.25,815.7656 Q745,815.5313 745,815.1406 Q745,814.7656 745.2656,814.5313 Q745.5313,814.2969 746.1406,814.2969 L746.4063,814.2969 L746.4063,807.6406 L746.1406,807.6406 Q745.5156,807.6406 745.25,807.4063 Q745,807.1719 745,806.7813 Q745,806.4063 745.25,806.1719 Q745.5156,805.9375 746.1406,805.9375 L753.7656,805.9375 L753.7656,808.5313 Q753.7656,809.1406 753.5313,809.4063 Q753.3125,809.6563 752.9219,809.6563 Q752.5469,809.6563 752.3125,809.4063 Q752.0781,809.1406 752.0781,808.5313 L752.0781,807.6406 L748.1094,807.6406 L748.1094,810.0938 L749.5938,810.0938 Q749.5938,809.4375 749.7188,809.25 Q749.9844,808.8438 750.4531,808.8438 Q750.8281,808.8438 751.0625,809.1094 Q751.2969,809.3594 751.2969,809.9688 L751.2969,811.9375 Q751.2969,812.4844 751.1719,812.6719 Q750.9063,813.0625 750.4531,813.0625 Q749.9844,813.0625 749.7188,812.6563 Q749.5938,812.4688 749.5938,811.7969 L748.1094,811.7969 Z "/><text fill="#000000" font-family="sans-serif" font-size="12" lengthAdjust="spacingAndGlyphs" textLength="34" x="766.75" y="815.9102">Token</text><line style="stroke: #A80036; stroke-width: 1.5;" x1="719.5" x2="818.5" y1="827" y2="827"/><text fill="#000000" font-family="sans-serif" font-size="11" lengthAdjust="spacingAndGlyphs" textLength="47" x="738.5" y="842.4189">TOKEN_X</text><text fill="#000000" font-family="sans-serif" font-size="11" lengthAdjust="spacingAndGlyphs" textLength="48" x="738.5" y="856.2549">TOKEN_O</text><rect fill="none" height="6" style="stroke: #C82930; stroke-width: 1.0;" width="6" x="726.5" y="862.6719"/><text fill="#000000" font-family="sans-serif" font-size="11" lengthAdjust="spacingAndGlyphs" textLength="75" x="738.5" y="870.0908">character: char</text><line style="stroke: #A80036; stroke-width: 1.5;" x1="719.5" x2="818.5" y1="876.5078" y2="876.5078"/><ellipse cx="729.5" cy="887.5078" fill="#84BE84" rx="3" ry="3" style="stroke: #038048; stroke-width: 1.0;"/><text fill="#000000" font-family="sans-serif" font-size="11" lengthAdjust="spacingAndGlyphs" textLength="59" x="738.5" y="891.9268">Token(char)</text><polygon fill="#4177AF" points="729.5,897.3438,725.5,903.3438,733.5,903.3438" style="stroke: #1963A0; stroke-width: 1.0;"/><text fill="#000000" font-family="sans-serif" font-size="11" lengthAdjust="spacingAndGlyphs" textLength="59" x="738.5" y="905.7627">write(): void</text><!--MD5=[a7c56956f32a3577b3d342bee43bd14f]
class tictactoe.Turn--><rect fill="#FEFECE" filter="url(#f2zpvd0cf4yp2)" height="158.6875" id="tictactoe.Turn" style="stroke: #A80036; stroke-width: 1.5;" width="142" x="357" y="774"/><ellipse cx="411.25" cy="790" fill="#ADD1B2" rx="11" ry="11" style="stroke: #A80036; stroke-width: 1.0;"/><path d="M414.0156,785.875 Q414.1719,785.6563 414.3594,785.5469 Q414.5469,785.4375 414.7656,785.4375 Q415.1406,785.4375 415.375,785.7031 Q415.6094,785.9531 415.6094,786.5625 L415.6094,788.0156 Q415.6094,788.625 415.375,788.8906 Q415.1406,789.1563 414.7656,789.1563 Q414.4219,789.1563 414.2188,788.9531 Q414.0156,788.7656 413.9063,788.25 Q413.8594,787.8906 413.6719,787.7031 Q413.3438,787.3281 412.7344,787.1094 Q412.125,786.8906 411.5,786.8906 Q410.7344,786.8906 410.0938,787.2188 Q409.4688,787.5469 408.9688,788.2969 Q408.4844,789.0469 408.4844,790.0781 L408.4844,791.1719 Q408.4844,792.4063 409.375,793.2344 Q410.2656,794.0469 411.8594,794.0469 Q412.7969,794.0469 413.4531,793.7969 Q413.8438,793.6406 414.2656,793.2031 Q414.5313,792.9375 414.6719,792.8594 Q414.8281,792.7813 415.0313,792.7813 Q415.3594,792.7813 415.6094,793.0469 Q415.875,793.2969 415.875,793.6406 Q415.875,793.9844 415.5313,794.3906 Q415.0313,794.9688 414.2344,795.2969 Q413.1563,795.75 411.8594,795.75 Q410.3438,795.75 409.1406,795.125 Q408.1563,794.625 407.4688,793.5625 Q406.7813,792.4844 406.7813,791.2031 L406.7813,790.0469 Q406.7813,788.7188 407.3906,787.5781 Q408.0156,786.4219 409.1094,785.8125 Q410.2031,785.1875 411.4375,785.1875 Q412.1719,785.1875 412.8125,785.3594 Q413.4688,785.5156 414.0156,785.875 Z "/><text fill="#000000" font-family="sans-serif" font-size="12" lengthAdjust="spacingAndGlyphs" textLength="25" x="431.75" y="794.9102">Turn</text><line style="stroke: #A80036; stroke-width: 1.5;" x1="358" x2="498" y1="806" y2="806"/><ellipse cx="368" cy="817" fill="none" rx="3" ry="3" style="stroke: #038048; stroke-width: 1.0;"/><text fill="#000000" font-family="sans-serif" font-size="11" lengthAdjust="spacingAndGlyphs" text-decoration="underline" textLength="65" x="377" y="821.4189">PLAYERS: int</text><rect fill="none" height="6" style="stroke: #C82930; stroke-width: 1.0;" width="6" x="365" y="827.8359"/><text fill="#000000" font-family="sans-serif" font-size="11" lengthAdjust="spacingAndGlyphs" textLength="43" x="377" y="835.2549">value: int</text><rect fill="none" height="6" style="stroke: #C82930; stroke-width: 1.0;" width="6" x="365" y="841.6719"/><text fill="#000000" font-family="sans-serif" font-size="11" lengthAdjust="spacingAndGlyphs" textLength="78" x="377" y="849.0908">players: Player[]</text><line style="stroke: #A80036; stroke-width: 1.5;" x1="358" x2="498" y1="855.5078" y2="855.5078"/><ellipse cx="368" cy="866.5078" fill="#84BE84" rx="3" ry="3" style="stroke: #038048; stroke-width: 1.0;"/><text fill="#000000" font-family="sans-serif" font-size="11" lengthAdjust="spacingAndGlyphs" textLength="66" x="377" y="870.9268">Turn(Player[])</text><polygon fill="#4177AF" points="368,876.3438,364,882.3438,372,882.3438" style="stroke: #1963A0; stroke-width: 1.0;"/><text fill="#000000" font-family="sans-serif" font-size="11" lengthAdjust="spacingAndGlyphs" textLength="70" x="377" y="884.7627">change(): void</text><polygon fill="#4177AF" points="368,890.1797,364,896.1797,372,896.1797" style="stroke: #1963A0; stroke-width: 1.0;"/><text fill="#000000" font-family="sans-serif" font-size="11" lengthAdjust="spacingAndGlyphs" textLength="89" x="377" y="898.5986">getPlayer(): Player</text><polygon fill="#4177AF" points="368,904.0156,364,910.0156,372,910.0156" style="stroke: #1963A0; stroke-width: 1.0;"/><text fill="#000000" font-family="sans-serif" font-size="11" lengthAdjust="spacingAndGlyphs" textLength="95" x="377" y="912.4346">getOtherValue(): int</text><polygon fill="#4177AF" points="368,917.8516,364,923.8516,372,923.8516" style="stroke: #1963A0; stroke-width: 1.0;"/><text fill="#000000" font-family="sans-serif" font-size="11" lengthAdjust="spacingAndGlyphs" textLength="116" x="377" y="926.2705">getOtherPlayer(): Player</text><!--MD5=[234bb57370d1b45707280660bb83d10d]
class tictactoe.Error--><rect fill="#FEFECE" filter="url(#f2zpvd0cf4yp2)" height="131.0156" id="tictactoe.Error" style="stroke: #A80036; stroke-width: 1.5;" width="134" x="205" y="527.5"/><ellipse cx="254.25" cy="543.5" fill="#EB937F" rx="11" ry="11" style="stroke: #A80036; stroke-width: 1.0;"/><path d="M253.1094,544.2969 L253.1094,546.7969 L257.4375,546.7969 L257.4375,545.875 Q257.4375,545.2656 257.6719,545 Q257.9219,544.7344 258.2969,544.7344 Q258.6719,544.7344 258.9063,545 Q259.1406,545.2656 259.1406,545.875 L259.1406,548.5 L251.1406,548.5 Q250.5156,548.5 250.25,548.2656 Q250,548.0313 250,547.6406 Q250,547.2656 250.2656,547.0313 Q250.5313,546.7969 251.1406,546.7969 L251.4063,546.7969 L251.4063,540.1406 L251.1406,540.1406 Q250.5156,540.1406 250.25,539.9063 Q250,539.6719 250,539.2813 Q250,538.9063 250.25,538.6719 Q250.5156,538.4375 251.1406,538.4375 L258.7656,538.4375 L258.7656,541.0313 Q258.7656,541.6406 258.5313,541.9063 Q258.3125,542.1563 257.9219,542.1563 Q257.5469,542.1563 257.3125,541.9063 Q257.0781,541.6406 257.0781,541.0313 L257.0781,540.1406 L253.1094,540.1406 L253.1094,542.5938 L254.5938,542.5938 Q254.5938,541.9375 254.7188,541.75 Q254.9844,541.3438 255.4531,541.3438 Q255.8281,541.3438 256.0625,541.6094 Q256.2969,541.8594 256.2969,542.4688 L256.2969,544.4375 Q256.2969,544.9844 256.1719,545.1719 Q255.9063,545.5625 255.4531,545.5625 Q254.9844,545.5625 254.7188,545.1563 Q254.5938,544.9688 254.5938,544.2969 L253.1094,544.2969 Z "/><text fill="#000000" font-family="sans-serif" font-size="12" lengthAdjust="spacingAndGlyphs" textLength="27" x="274.75" y="548.4102">Error</text><line style="stroke: #A80036; stroke-width: 1.5;" x1="206" x2="338" y1="559.5" y2="559.5"/><text fill="#000000" font-family="sans-serif" font-size="11" lengthAdjust="spacingAndGlyphs" textLength="61" x="225" y="574.9189">NOT_EMPTY</text><text fill="#000000" font-family="sans-serif" font-size="11" lengthAdjust="spacingAndGlyphs" textLength="65" x="225" y="588.7549">NOT_OWNER</text><text fill="#000000" font-family="sans-serif" font-size="11" lengthAdjust="spacingAndGlyphs" textLength="108" x="225" y="602.5908">SAME_COORDINATES</text><rect fill="none" height="6" style="stroke: #C82930; stroke-width: 1.0;" width="6" x="213" y="609.0078"/><text fill="#000000" font-family="sans-serif" font-size="11" lengthAdjust="spacingAndGlyphs" textLength="78" x="225" y="616.4268">message: String</text><line style="stroke: #A80036; stroke-width: 1.5;" x1="206" x2="338" y1="622.8438" y2="622.8438"/><ellipse cx="216" cy="633.8438" fill="#84BE84" rx="3" ry="3" style="stroke: #038048; stroke-width: 1.0;"/><text fill="#000000" font-family="sans-serif" font-size="11" lengthAdjust="spacingAndGlyphs" textLength="60" x="225" y="638.2627">Error(String)</text><polygon fill="#4177AF" points="216,643.6797,212,649.6797,220,649.6797" style="stroke: #1963A0; stroke-width: 1.0;"/><text fill="#000000" font-family="sans-serif" font-size="11" lengthAdjust="spacingAndGlyphs" textLength="67" x="225" y="652.0986">writeln(): void</text><!--MD5=[855f690391239d44857a3211eff2dccc]
class tictactoe.MachinePlayer--><rect fill="#FEFECE" filter="url(#f2zpvd0cf4yp2)" height="89.5078" id="tictactoe.MachinePlayer" style="stroke: #A80036; stroke-width: 1.5;" width="168" x="561" y="548"/><ellipse cx="601.2" cy="564" fill="#ADD1B2" rx="11" ry="11" style="stroke: #A80036; stroke-width: 1.0;"/><path d="M603.9656,559.875 Q604.1219,559.6563 604.3094,559.5469 Q604.4969,559.4375 604.7156,559.4375 Q605.0906,559.4375 605.325,559.7031 Q605.5594,559.9531 605.5594,560.5625 L605.5594,562.0156 Q605.5594,562.625 605.325,562.8906 Q605.0906,563.1563 604.7156,563.1563 Q604.3719,563.1563 604.1688,562.9531 Q603.9656,562.7656 603.8563,562.25 Q603.8094,561.8906 603.6219,561.7031 Q603.2938,561.3281 602.6844,561.1094 Q602.075,560.8906 601.45,560.8906 Q600.6844,560.8906 600.0438,561.2188 Q599.4188,561.5469 598.9188,562.2969 Q598.4344,563.0469 598.4344,564.0781 L598.4344,565.1719 Q598.4344,566.4063 599.325,567.2344 Q600.2156,568.0469 601.8094,568.0469 Q602.7469,568.0469 603.4031,567.7969 Q603.7938,567.6406 604.2156,567.2031 Q604.4813,566.9375 604.6219,566.8594 Q604.7781,566.7813 604.9813,566.7813 Q605.3094,566.7813 605.5594,567.0469 Q605.825,567.2969 605.825,567.6406 Q605.825,567.9844 605.4813,568.3906 Q604.9813,568.9688 604.1844,569.2969 Q603.1063,569.75 601.8094,569.75 Q600.2938,569.75 599.0906,569.125 Q598.1063,568.625 597.4188,567.5625 Q596.7313,566.4844 596.7313,565.2031 L596.7313,564.0469 Q596.7313,562.7188 597.3406,561.5781 Q597.9656,560.4219 599.0594,559.8125 Q600.1531,559.1875 601.3875,559.1875 Q602.1219,559.1875 602.7625,559.3594 Q603.4188,559.5156 603.9656,559.875 Z "/><text fill="#000000" font-family="sans-serif" font-size="12" lengthAdjust="spacingAndGlyphs" textLength="80" x="620.8" y="568.9102">MachinePlayer</text><line style="stroke: #A80036; stroke-width: 1.5;" x1="562" x2="728" y1="580" y2="580"/><line style="stroke: #A80036; stroke-width: 1.5;" x1="562" x2="728" y1="588" y2="588"/><ellipse cx="572" cy="599" fill="#84BE84" rx="3" ry="3" style="stroke: #038048; stroke-width: 1.0;"/><text fill="#000000" font-family="sans-serif" font-size="11" lengthAdjust="spacingAndGlyphs" textLength="142" x="581" y="603.4189">MachinePlayer(Token, Board)</text><polygon fill="#4177AF" points="572,608.8359,568,614.8359,576,614.8359" style="stroke: #1963A0; stroke-width: 1.0;"/><text fill="#000000" font-family="sans-serif" font-size="11" lengthAdjust="spacingAndGlyphs" textLength="49" x="581" y="617.2549">put(): void</text><polygon fill="#4177AF" points="572,622.6719,568,628.6719,576,628.6719" style="stroke: #1963A0; stroke-width: 1.0;"/><text fill="#000000" font-family="sans-serif" font-size="11" lengthAdjust="spacingAndGlyphs" textLength="60" x="581" y="631.0908">move(): void</text><!--MD5=[2bd2a1c0286138c0547503259441e5fb]
class tictactoe.Player--><rect fill="#FEFECE" filter="url(#f2zpvd0cf4yp2)" height="186.3594" id="tictactoe.Player" style="stroke: #A80036; stroke-width: 1.5;" width="346" x="579" y="233"/><ellipse cx="730.75" cy="249" fill="#ADD1B2" rx="11" ry="11" style="stroke: #A80036; stroke-width: 1.0;"/><path d="M733.5156,244.875 Q733.6719,244.6563 733.8594,244.5469 Q734.0469,244.4375 734.2656,244.4375 Q734.6406,244.4375 734.875,244.7031 Q735.1094,244.9531 735.1094,245.5625 L735.1094,247.0156 Q735.1094,247.625 734.875,247.8906 Q734.6406,248.1563 734.2656,248.1563 Q733.9219,248.1563 733.7188,247.9531 Q733.5156,247.7656 733.4063,247.25 Q733.3594,246.8906 733.1719,246.7031 Q732.8438,246.3281 732.2344,246.1094 Q731.625,245.8906 731,245.8906 Q730.2344,245.8906 729.5938,246.2188 Q728.9688,246.5469 728.4688,247.2969 Q727.9844,248.0469 727.9844,249.0781 L727.9844,250.1719 Q727.9844,251.4063 728.875,252.2344 Q729.7656,253.0469 731.3594,253.0469 Q732.2969,253.0469 732.9531,252.7969 Q733.3438,252.6406 733.7656,252.2031 Q734.0313,251.9375 734.1719,251.8594 Q734.3281,251.7813 734.5313,251.7813 Q734.8594,251.7813 735.1094,252.0469 Q735.375,252.2969 735.375,252.6406 Q735.375,252.9844 735.0313,253.3906 Q734.5313,253.9688 733.7344,254.2969 Q732.6563,254.75 731.3594,254.75 Q729.8438,254.75 728.6406,254.125 Q727.6563,253.625 726.9688,252.5625 Q726.2813,251.4844 726.2813,250.2031 L726.2813,249.0469 Q726.2813,247.7188 726.8906,246.5781 Q727.5156,245.4219 728.6094,244.8125 Q729.7031,244.1875 730.9375,244.1875 Q731.6719,244.1875 732.3125,244.3594 Q732.9688,244.5156 733.5156,244.875 Z "/><text fill="#000000" font-family="sans-serif" font-size="12" lengthAdjust="spacingAndGlyphs" textLength="34" x="751.25" y="253.9102">Player</text><line style="stroke: #A80036; stroke-width: 1.5;" x1="580" x2="924" y1="265" y2="265"/><polygon fill="none" points="590,271,594,275,590,279,586,275" style="stroke: #B38D22; stroke-width: 1.0;"/><text fill="#000000" font-family="sans-serif" font-size="11" lengthAdjust="spacingAndGlyphs" textLength="61" x="599" y="280.4189">token: Token</text><polygon fill="none" points="590,284.8359,594,288.8359,590,292.8359,586,288.8359" style="stroke: #B38D22; stroke-width: 1.0;"/><text fill="#000000" font-family="sans-serif" font-size="11" lengthAdjust="spacingAndGlyphs" textLength="63" x="599" y="294.2549">board: Board</text><line style="stroke: #A80036; stroke-width: 1.5;" x1="580" x2="924" y1="300.6719" y2="300.6719"/><ellipse cx="590" cy="311.6719" fill="#84BE84" rx="3" ry="3" style="stroke: #038048; stroke-width: 1.0;"/><text fill="#000000" font-family="sans-serif" font-size="11" lengthAdjust="spacingAndGlyphs" textLength="102" x="599" y="316.0908">Player(Token, Board)</text><polygon fill="#4177AF" points="590,321.5078,586,327.5078,594,327.5078" style="stroke: #1963A0; stroke-width: 1.0;"/><text fill="#000000" font-family="sans-serif" font-size="11" font-style="italic" lengthAdjust="spacingAndGlyphs" textLength="49" x="599" y="329.9268">put(): void</text><polygon fill="#4177AF" points="590,335.3438,586,341.3438,594,341.3438" style="stroke: #1963A0; stroke-width: 1.0;"/><text fill="#000000" font-family="sans-serif" font-size="11" font-style="italic" lengthAdjust="spacingAndGlyphs" textLength="60" x="599" y="343.7627">move(): void</text><polygon fill="#4177AF" points="590,349.1797,586,355.1797,594,355.1797" style="stroke: #1963A0; stroke-width: 1.0;"/><text fill="#000000" font-family="sans-serif" font-size="11" lengthAdjust="spacingAndGlyphs" textLength="106" x="599" y="357.5986">writeWin(Token): void</text><polygon fill="#4177AF" points="590,363.0156,586,369.0156,594,369.0156" style="stroke: #1963A0; stroke-width: 1.0;"/><text fill="#000000" font-family="sans-serif" font-size="11" lengthAdjust="spacingAndGlyphs" textLength="87" x="599" y="371.4346">getToken(): Token</text><polygon fill="#4177AF" points="590,376.8516,586,382.8516,594,382.8516" style="stroke: #1963A0; stroke-width: 1.0;"/><text fill="#000000" font-family="sans-serif" font-size="11" lengthAdjust="spacingAndGlyphs" textLength="220" x="599" y="385.2705">controlErrorsPutCoordinate(Coordinate): Error</text><polygon fill="#4177AF" points="590,390.6875,586,396.6875,594,396.6875" style="stroke: #1963A0; stroke-width: 1.0;"/><text fill="#000000" font-family="sans-serif" font-size="11" lengthAdjust="spacingAndGlyphs" textLength="259" x="599" y="399.1064">controlErrorsMoveOriginCoordinate(Coordinate): Error</text><polygon fill="#4177AF" points="590,404.5234,586,410.5234,594,410.5234" style="stroke: #1963A0; stroke-width: 1.0;"/><text fill="#000000" font-family="sans-serif" font-size="11" lengthAdjust="spacingAndGlyphs" textLength="320" x="599" y="412.9424">controlErrorsMoveTargetCoordinate(Coordinate, Coordinate): Error</text><!--MD5=[dcfee6ff2a733e6a859ce2b7bcbe021e]
class tictactoe.TicTacToe--><rect fill="#FEFECE" filter="url(#f2zpvd0cf4yp2)" height="131.0156" id="tictactoe.TicTacToe" style="stroke: #A80036; stroke-width: 1.5;" width="116" x="798" y="42"/><ellipse cx="825.15" cy="58" fill="#ADD1B2" rx="11" ry="11" style="stroke: #A80036; stroke-width: 1.0;"/><path d="M827.9156,53.875 Q828.0719,53.6563 828.2594,53.5469 Q828.4469,53.4375 828.6656,53.4375 Q829.0406,53.4375 829.275,53.7031 Q829.5094,53.9531 829.5094,54.5625 L829.5094,56.0156 Q829.5094,56.625 829.275,56.8906 Q829.0406,57.1563 828.6656,57.1563 Q828.3219,57.1563 828.1188,56.9531 Q827.9156,56.7656 827.8063,56.25 Q827.7594,55.8906 827.5719,55.7031 Q827.2438,55.3281 826.6344,55.1094 Q826.025,54.8906 825.4,54.8906 Q824.6344,54.8906 823.9938,55.2188 Q823.3688,55.5469 822.8688,56.2969 Q822.3844,57.0469 822.3844,58.0781 L822.3844,59.1719 Q822.3844,60.4063 823.275,61.2344 Q824.1656,62.0469 825.7594,62.0469 Q826.6969,62.0469 827.3531,61.7969 Q827.7438,61.6406 828.1656,61.2031 Q828.4313,60.9375 828.5719,60.8594 Q828.7281,60.7813 828.9313,60.7813 Q829.2594,60.7813 829.5094,61.0469 Q829.775,61.2969 829.775,61.6406 Q829.775,61.9844 829.4313,62.3906 Q828.9313,62.9688 828.1344,63.2969 Q827.0563,63.75 825.7594,63.75 Q824.2438,63.75 823.0406,63.125 Q822.0563,62.625 821.3688,61.5625 Q820.6813,60.4844 820.6813,59.2031 L820.6813,58.0469 Q820.6813,56.7188 821.2906,55.5781 Q821.9156,54.4219 823.0094,53.8125 Q824.1031,53.1875 825.3375,53.1875 Q826.0719,53.1875 826.7125,53.3594 Q827.3688,53.5156 827.9156,53.875 Z "/><text fill="#000000" font-family="sans-serif" font-size="12" lengthAdjust="spacingAndGlyphs" textLength="57" x="841.85" y="62.9102">TicTacToe</text><line style="stroke: #A80036; stroke-width: 1.5;" x1="799" x2="913" y1="74" y2="74"/><rect fill="none" height="6" style="stroke: #C82930; stroke-width: 1.0;" width="6" x="806" y="82"/><text fill="#000000" font-family="sans-serif" font-size="11" lengthAdjust="spacingAndGlyphs" textLength="63" x="818" y="89.4189">board: Board</text><rect fill="none" height="6" style="stroke: #C82930; stroke-width: 1.0;" width="6" x="806" y="95.8359"/><text fill="#000000" font-family="sans-serif" font-size="11" lengthAdjust="spacingAndGlyphs" textLength="78" x="818" y="103.2549">players: Players</text><rect fill="none" height="6" style="stroke: #C82930; stroke-width: 1.0;" width="6" x="806" y="109.6719"/><text fill="#000000" font-family="sans-serif" font-size="11" lengthAdjust="spacingAndGlyphs" textLength="47" x="818" y="117.0908">turn: Turn</text><line style="stroke: #A80036; stroke-width: 1.5;" x1="799" x2="913" y1="123.5078" y2="123.5078"/><ellipse cx="809" cy="134.5078" fill="#84BE84" rx="3" ry="3" style="stroke: #038048; stroke-width: 1.0;"/><text fill="#000000" font-family="sans-serif" font-size="11" lengthAdjust="spacingAndGlyphs" textLength="58" x="818" y="138.9268">TicTacToe()</text><rect fill="#F24D5C" height="6" style="stroke: #C82930; stroke-width: 1.0;" width="6" x="806" y="145.3438"/><text fill="#000000" font-family="sans-serif" font-size="11" lengthAdjust="spacingAndGlyphs" textLength="54" x="818" y="152.7627">play(): void</text><ellipse cx="809" cy="162.1797" fill="#84BE84" rx="3" ry="3" style="stroke: #038048; stroke-width: 1.0;"/><text fill="#000000" font-family="sans-serif" font-size="11" lengthAdjust="spacingAndGlyphs" textLength="90" x="818" y="166.5986">main(String[]): void</text><!--MD5=[47381de0688774b77580192d455d0070]
class tictactoe.UserPlayer--><rect fill="#FEFECE" filter="url(#f2zpvd0cf4yp2)" height="131.0156" id="tictactoe.UserPlayer" style="stroke: #A80036; stroke-width: 1.5;" width="151" x="374.5" y="527.5"/><ellipse cx="415.6" cy="543.5" fill="#ADD1B2" rx="11" ry="11" style="stroke: #A80036; stroke-width: 1.0;"/><path d="M418.3656,539.375 Q418.5219,539.1563 418.7094,539.0469 Q418.8969,538.9375 419.1156,538.9375 Q419.4906,538.9375 419.725,539.2031 Q419.9594,539.4531 419.9594,540.0625 L419.9594,541.5156 Q419.9594,542.125 419.725,542.3906 Q419.4906,542.6563 419.1156,542.6563 Q418.7719,542.6563 418.5688,542.4531 Q418.3656,542.2656 418.2563,541.75 Q418.2094,541.3906 418.0219,541.2031 Q417.6938,540.8281 417.0844,540.6094 Q416.475,540.3906 415.85,540.3906 Q415.0844,540.3906 414.4438,540.7188 Q413.8188,541.0469 413.3188,541.7969 Q412.8344,542.5469 412.8344,543.5781 L412.8344,544.6719 Q412.8344,545.9063 413.725,546.7344 Q414.6156,547.5469 416.2094,547.5469 Q417.1469,547.5469 417.8031,547.2969 Q418.1938,547.1406 418.6156,546.7031 Q418.8813,546.4375 419.0219,546.3594 Q419.1781,546.2813 419.3813,546.2813 Q419.7094,546.2813 419.9594,546.5469 Q420.225,546.7969 420.225,547.1406 Q420.225,547.4844 419.8813,547.8906 Q419.3813,548.4688 418.5844,548.7969 Q417.5063,549.25 416.2094,549.25 Q414.6938,549.25 413.4906,548.625 Q412.5063,548.125 411.8188,547.0625 Q411.1313,545.9844 411.1313,544.7031 L411.1313,543.5469 Q411.1313,542.2188 411.7406,541.0781 Q412.3656,539.9219 413.4594,539.3125 Q414.5531,538.6875 415.7875,538.6875 Q416.5219,538.6875 417.1625,538.8594 Q417.8188,539.0156 418.3656,539.375 Z "/><text fill="#000000" font-family="sans-serif" font-size="12" lengthAdjust="spacingAndGlyphs" textLength="61" x="435.4" y="548.4102">UserPlayer</text><line style="stroke: #A80036; stroke-width: 1.5;" x1="375.5" x2="524.5" y1="559.5" y2="559.5"/><ellipse cx="385.5" cy="570.5" fill="none" rx="3" ry="3" style="stroke: #038048; stroke-width: 1.0;"/><text fill="#000000" font-family="sans-serif" font-size="11" lengthAdjust="spacingAndGlyphs" text-decoration="underline" textLength="65" x="394.5" y="574.9189">PLAYERS: int</text><rect fill="none" height="6" style="stroke: #C82930; stroke-width: 1.0;" width="6" x="382.5" y="581.3359"/><text fill="#000000" font-family="sans-serif" font-size="11" lengthAdjust="spacingAndGlyphs" textLength="43" x="394.5" y="588.7549">value: int</text><rect fill="none" height="6" style="stroke: #C82930; stroke-width: 1.0;" width="6" x="382.5" y="595.1719"/><text fill="#000000" font-family="sans-serif" font-size="11" lengthAdjust="spacingAndGlyphs" textLength="78" x="394.5" y="602.5908">players: Player[]</text><line style="stroke: #A80036; stroke-width: 1.5;" x1="375.5" x2="524.5" y1="609.0078" y2="609.0078"/><ellipse cx="385.5" cy="620.0078" fill="#84BE84" rx="3" ry="3" style="stroke: #038048; stroke-width: 1.0;"/><text fill="#000000" font-family="sans-serif" font-size="11" lengthAdjust="spacingAndGlyphs" textLength="125" x="394.5" y="624.4268">UserPlayer(Token, Board)</text><polygon fill="#4177AF" points="385.5,629.8438,381.5,635.8438,389.5,635.8438" style="stroke: #1963A0; stroke-width: 1.0;"/><text fill="#000000" font-family="sans-serif" font-size="11" lengthAdjust="spacingAndGlyphs" textLength="49" x="394.5" y="638.2627">put(): void</text><polygon fill="#4177AF" points="385.5,643.6797,381.5,649.6797,389.5,649.6797" style="stroke: #1963A0; stroke-width: 1.0;"/><text fill="#000000" font-family="sans-serif" font-size="11" lengthAdjust="spacingAndGlyphs" textLength="60" x="394.5" y="652.0986">move(): void</text><!--MD5=[959c5b36bcbb0655df73030dc49c5e5e]
class utils.WithConsoleModel--><rect fill="#FEFECE" filter="url(#f2zpvd0cf4yp2)" height="48" id="utils.WithConsoleModel" style="stroke: #A80036; stroke-width: 1.5;" width="136" x="1114" y="302"/><ellipse cx="1129" cy="318" fill="#ADD1B2" rx="11" ry="11" style="stroke: #A80036; stroke-width: 1.0;"/><path d="M1131.7656,313.875 Q1131.9219,313.6563 1132.1094,313.5469 Q1132.2969,313.4375 1132.5156,313.4375 Q1132.8906,313.4375 1133.125,313.7031 Q1133.3594,313.9531 1133.3594,314.5625 L1133.3594,316.0156 Q1133.3594,316.625 1133.125,316.8906 Q1132.8906,317.1563 1132.5156,317.1563 Q1132.1719,317.1563 1131.9688,316.9531 Q1131.7656,316.7656 1131.6563,316.25 Q1131.6094,315.8906 1131.4219,315.7031 Q1131.0938,315.3281 1130.4844,315.1094 Q1129.875,314.8906 1129.25,314.8906 Q1128.4844,314.8906 1127.8438,315.2188 Q1127.2188,315.5469 1126.7188,316.2969 Q1126.2344,317.0469 1126.2344,318.0781 L1126.2344,319.1719 Q1126.2344,320.4063 1127.125,321.2344 Q1128.0156,322.0469 1129.6094,322.0469 Q1130.5469,322.0469 1131.2031,321.7969 Q1131.5938,321.6406 1132.0156,321.2031 Q1132.2813,320.9375 1132.4219,320.8594 Q1132.5781,320.7813 1132.7813,320.7813 Q1133.1094,320.7813 1133.3594,321.0469 Q1133.625,321.2969 1133.625,321.6406 Q1133.625,321.9844 1133.2813,322.3906 Q1132.7813,322.9688 1131.9844,323.2969 Q1130.9063,323.75 1129.6094,323.75 Q1128.0938,323.75 1126.8906,323.125 Q1125.9063,322.625 1125.2188,321.5625 Q1124.5313,320.4844 1124.5313,319.2031 L1124.5313,318.0469 Q1124.5313,316.7188 1125.1406,315.5781 Q1125.7656,314.4219 1126.8594,313.8125 Q1127.9531,313.1875 1129.1875,313.1875 Q1129.9219,313.1875 1130.5625,313.3594 Q1131.2188,313.5156 1131.7656,313.875 Z "/><text fill="#000000" font-family="sans-serif" font-size="12" lengthAdjust="spacingAndGlyphs" textLength="104" x="1143" y="322.9102">WithConsoleModel</text><line style="stroke: #A80036; stroke-width: 1.5;" x1="1115" x2="1249" y1="334" y2="334"/><line style="stroke: #A80036; stroke-width: 1.5;" x1="1115" x2="1249" y1="342" y2="342"/><!--MD5=[63e92a92e730259d201bb8566c78f275]
class utils.Direction--><rect fill="#FEFECE" filter="url(#f2zpvd0cf4yp2)" height="48" id="utils.Direction" style="stroke: #A80036; stroke-width: 1.5;" width="81" x="1285.5" y="302"/><ellipse cx="1300.5" cy="318" fill="#ADD1B2" rx="11" ry="11" style="stroke: #A80036; stroke-width: 1.0;"/><path d="M1303.2656,313.875 Q1303.4219,313.6563 1303.6094,313.5469 Q1303.7969,313.4375 1304.0156,313.4375 Q1304.3906,313.4375 1304.625,313.7031 Q1304.8594,313.9531 1304.8594,314.5625 L1304.8594,316.0156 Q1304.8594,316.625 1304.625,316.8906 Q1304.3906,317.1563 1304.0156,317.1563 Q1303.6719,317.1563 1303.4688,316.9531 Q1303.2656,316.7656 1303.1563,316.25 Q1303.1094,315.8906 1302.9219,315.7031 Q1302.5938,315.3281 1301.9844,315.1094 Q1301.375,314.8906 1300.75,314.8906 Q1299.9844,314.8906 1299.3438,315.2188 Q1298.7188,315.5469 1298.2188,316.2969 Q1297.7344,317.0469 1297.7344,318.0781 L1297.7344,319.1719 Q1297.7344,320.4063 1298.625,321.2344 Q1299.5156,322.0469 1301.1094,322.0469 Q1302.0469,322.0469 1302.7031,321.7969 Q1303.0938,321.6406 1303.5156,321.2031 Q1303.7813,320.9375 1303.9219,320.8594 Q1304.0781,320.7813 1304.2813,320.7813 Q1304.6094,320.7813 1304.8594,321.0469 Q1305.125,321.2969 1305.125,321.6406 Q1305.125,321.9844 1304.7813,322.3906 Q1304.2813,322.9688 1303.4844,323.2969 Q1302.4063,323.75 1301.1094,323.75 Q1299.5938,323.75 1298.3906,323.125 Q1297.4063,322.625 1296.7188,321.5625 Q1296.0313,320.4844 1296.0313,319.2031 L1296.0313,318.0469 Q1296.0313,316.7188 1296.6406,315.5781 Q1297.2656,314.4219 1298.3594,313.8125 Q1299.4531,313.1875 1300.6875,313.1875 Q1301.4219,313.1875 1302.0625,313.3594 Q1302.7188,313.5156 1303.2656,313.875 Z "/><text fill="#000000" font-family="sans-serif" font-size="12" lengthAdjust="spacingAndGlyphs" textLength="49" x="1314.5" y="322.9102">Direction</text><line style="stroke: #A80036; stroke-width: 1.5;" x1="1286.5" x2="1365.5" y1="334" y2="334"/><line style="stroke: #A80036; stroke-width: 1.5;" x1="1286.5" x2="1365.5" y1="342" y2="342"/><!--MD5=[4517a9099db328c27576a0137eb33da6]
class utils.Coordinate--><rect fill="#FEFECE" filter="url(#f2zpvd0cf4yp2)" height="48" id="utils.Coordinate" style="stroke: #A80036; stroke-width: 1.5;" width="93" x="1401.5" y="302"/><ellipse cx="1416.5" cy="318" fill="#ADD1B2" rx="11" ry="11" style="stroke: #A80036; stroke-width: 1.0;"/><path d="M1419.2656,313.875 Q1419.4219,313.6563 1419.6094,313.5469 Q1419.7969,313.4375 1420.0156,313.4375 Q1420.3906,313.4375 1420.625,313.7031 Q1420.8594,313.9531 1420.8594,314.5625 L1420.8594,316.0156 Q1420.8594,316.625 1420.625,316.8906 Q1420.3906,317.1563 1420.0156,317.1563 Q1419.6719,317.1563 1419.4688,316.9531 Q1419.2656,316.7656 1419.1563,316.25 Q1419.1094,315.8906 1418.9219,315.7031 Q1418.5938,315.3281 1417.9844,315.1094 Q1417.375,314.8906 1416.75,314.8906 Q1415.9844,314.8906 1415.3438,315.2188 Q1414.7188,315.5469 1414.2188,316.2969 Q1413.7344,317.0469 1413.7344,318.0781 L1413.7344,319.1719 Q1413.7344,320.4063 1414.625,321.2344 Q1415.5156,322.0469 1417.1094,322.0469 Q1418.0469,322.0469 1418.7031,321.7969 Q1419.0938,321.6406 1419.5156,321.2031 Q1419.7813,320.9375 1419.9219,320.8594 Q1420.0781,320.7813 1420.2813,320.7813 Q1420.6094,320.7813 1420.8594,321.0469 Q1421.125,321.2969 1421.125,321.6406 Q1421.125,321.9844 1420.7813,322.3906 Q1420.2813,322.9688 1419.4844,323.2969 Q1418.4063,323.75 1417.1094,323.75 Q1415.5938,323.75 1414.3906,323.125 Q1413.4063,322.625 1412.7188,321.5625 Q1412.0313,320.4844 1412.0313,319.2031 L1412.0313,318.0469 Q1412.0313,316.7188 1412.6406,315.5781 Q1413.2656,314.4219 1414.3594,313.8125 Q1415.4531,313.1875 1416.6875,313.1875 Q1417.4219,313.1875 1418.0625,313.3594 Q1418.7188,313.5156 1419.2656,313.875 Z "/><text fill="#000000" font-family="sans-serif" font-size="12" lengthAdjust="spacingAndGlyphs" textLength="61" x="1430.5" y="322.9102">Coordinate</text><line style="stroke: #A80036; stroke-width: 1.5;" x1="1402.5" x2="1493.5" y1="334" y2="334"/><line style="stroke: #A80036; stroke-width: 1.5;" x1="1402.5" x2="1493.5" y1="342" y2="342"/><!--MD5=[6c70c0f5d22b0d421fe766e144384ba2]
class java.util.Random--><rect fill="#FEFECE" filter="url(#f2zpvd0cf4yp2)" height="48" id="java.util.Random" style="stroke: #A80036; stroke-width: 1.5;" width="80" x="32" y="829.5"/><ellipse cx="47" cy="845.5" fill="#ADD1B2" rx="11" ry="11" style="stroke: #A80036; stroke-width: 1.0;"/><path d="M49.7656,841.375 Q49.9219,841.1563 50.1094,841.0469 Q50.2969,840.9375 50.5156,840.9375 Q50.8906,840.9375 51.125,841.2031 Q51.3594,841.4531 51.3594,842.0625 L51.3594,843.5156 Q51.3594,844.125 51.125,844.3906 Q50.8906,844.6563 50.5156,844.6563 Q50.1719,844.6563 49.9688,844.4531 Q49.7656,844.2656 49.6563,843.75 Q49.6094,843.3906 49.4219,843.2031 Q49.0938,842.8281 48.4844,842.6094 Q47.875,842.3906 47.25,842.3906 Q46.4844,842.3906 45.8438,842.7188 Q45.2188,843.0469 44.7188,843.7969 Q44.2344,844.5469 44.2344,845.5781 L44.2344,846.6719 Q44.2344,847.9063 45.125,848.7344 Q46.0156,849.5469 47.6094,849.5469 Q48.5469,849.5469 49.2031,849.2969 Q49.5938,849.1406 50.0156,848.7031 Q50.2813,848.4375 50.4219,848.3594 Q50.5781,848.2813 50.7813,848.2813 Q51.1094,848.2813 51.3594,848.5469 Q51.625,848.7969 51.625,849.1406 Q51.625,849.4844 51.2813,849.8906 Q50.7813,850.4688 49.9844,850.7969 Q48.9063,851.25 47.6094,851.25 Q46.0938,851.25 44.8906,850.625 Q43.9063,850.125 43.2188,849.0625 Q42.5313,847.9844 42.5313,846.7031 L42.5313,845.5469 Q42.5313,844.2188 43.1406,843.0781 Q43.7656,841.9219 44.8594,841.3125 Q45.9531,840.6875 47.1875,840.6875 Q47.9219,840.6875 48.5625,840.8594 Q49.2188,841.0156 49.7656,841.375 Z "/><text fill="#000000" font-family="sans-serif" font-size="12" lengthAdjust="spacingAndGlyphs" textLength="48" x="61" y="850.4102">Random</text><line style="stroke: #A80036; stroke-width: 1.5;" x1="33" x2="111" y1="861.5" y2="861.5"/><line style="stroke: #A80036; stroke-width: 1.5;" x1="33" x2="111" y1="869.5" y2="869.5"/><!--MD5=[1d992dad70e061cfd1c2057e508b7a40]
reverse link utils.WithConsoleModel to tictactoe.Board--><path d="M1148.3,365.163 C1121.96,394.995 1083.91,438.08 1048.04,478.704 " fill="none" id="utils.WithConsoleModel&lt;-tictactoe.Board" style="stroke: #A80036; stroke-width: 1.0;"/><polygon fill="none" points="1143.16,360.412,1161.64,350.053,1153.65,369.679,1143.16,360.412" style="stroke: #A80036; stroke-width: 1.0;"/><!--MD5=[404b23d618b71cde3be03a7a58004917]
link tictactoe.Board to tictactoe.Coordinate--><path d="M951.3844,719.0016 C951.3844,719.0016 952.029,742.775 952.326,753.74 " fill="none" id="tictactoe.Board-tictactoe.Coordinate" style="stroke: #A80036; stroke-width: 1.0;"/><polygon fill="#A80036" points="952.683,766.936,956.4382,757.8311,952.5478,761.9378,948.4411,758.0474,952.683,766.936" style="stroke: #A80036; stroke-width: 1.0;"/><line style="stroke: #A80036; stroke-width: 1.0;" x1="952.5478" x2="952.331" y1="761.9378" y2="753.941"/><polygon fill="#A80036" points="951.06,707.006,947.2237,713.1119,951.3844,719.0016,955.2207,712.8957,951.06,707.006" style="stroke: #A80036; stroke-width: 1.0;"/><!--MD5=[f898b2b57adc118f28920c78a80f9c49]
link tictactoe.Board to tictactoe.Token--><path d="M869.748,707.006 C849.917,735.645 829.337,765.365 811.987,790.421 " fill="none" id="tictactoe.Board-&gt;tictactoe.Token" style="stroke: #A80036; stroke-width: 1.0; stroke-dasharray: 7.0,7.0;"/><polygon fill="#A80036" points="809.009,794.722,817.4221,789.6015,811.8562,790.6119,810.8459,785.046,809.009,794.722" style="stroke: #A80036; stroke-width: 1.0;"/><!--MD5=[f29b9c18480b263534fc58049e46761a]
link tictactoe.Board to tictactoe.Turn--><path d="M838.264,657.506 C808.579,674.102 776.28,691.635 746,707 C664.444,748.384 568.764,791.443 503.818,819.877 " fill="none" id="tictactoe.Board-&gt;tictactoe.Turn" style="stroke: #A80036; stroke-width: 1.0; stroke-dasharray: 7.0,7.0;"/><polygon fill="#A80036" points="499.196,821.899,509.0447,821.9564,503.7768,819.895,505.8383,814.6271,499.196,821.899" style="stroke: #A80036; stroke-width: 1.0;"/><!--MD5=[f8596f186e78a1c116a3d6d74708ecf6]
link tictactoe.Board to utils.Direction--><path d="M1057.65,549.633 C1123.94,520.159 1207.11,475.943 1268,419 C1287.53,400.732 1303.21,374.514 1313.31,354.737 " fill="none" id="tictactoe.Board-&gt;utils.Direction" style="stroke: #A80036; stroke-width: 1.0; stroke-dasharray: 7.0,7.0;"/><polygon fill="#A80036" points="1315.63,350.112,1308.0114,356.3535,1313.3825,354.5784,1315.1576,359.9495,1315.63,350.112" style="stroke: #A80036; stroke-width: 1.0;"/><!--MD5=[a2abebbd923c10e47f4ac2c7096ba5bf]
reverse link utils.Coordinate to tictactoe.Coordinate--><path d="M1425.87,367.978 C1384.46,442.034 1289.31,600.354 1178,707 C1140.28,743.138 1092.41,775.722 1050.7,800.849 " fill="none" id="utils.Coordinate&lt;-tictactoe.Coordinate" style="stroke: #A80036; stroke-width: 1.0;"/><polygon fill="none" points="1419.86,364.369,1435.66,350.24,1432.12,371.133,1419.86,364.369" style="stroke: #A80036; stroke-width: 1.0;"/><!--MD5=[73fec0427d0feceed39310d568880c8d]
link tictactoe.Coordinate to utils.Direction--><path d="M1028.14,766.687 C1043.96,747.341 1060.33,726.697 1075,707 C1167.02,583.412 1184.02,548.184 1268,419 C1281.95,397.548 1297.38,373.027 1308.82,354.698 " fill="none" id="tictactoe.Coordinate-&gt;utils.Direction" style="stroke: #A80036; stroke-width: 1.0; stroke-dasharray: 7.0,7.0;"/><polygon fill="#A80036" points="1311.64,350.177,1303.4837,355.6974,1308.9944,354.4197,1310.272,359.9304,1311.64,350.177" style="stroke: #A80036; stroke-width: 1.0;"/><!--MD5=[d81eab81de183d659fd9189ef4ef9013]
reverse link tictactoe.Player to tictactoe.MachinePlayer--><path d="M707.167,438.034 C691.554,476.703 674.929,517.877 662.803,547.908 " fill="none" id="tictactoe.Player&lt;-tictactoe.MachinePlayer" style="stroke: #A80036; stroke-width: 1.0;"/><polygon fill="none" points="700.748,435.237,714.727,419.312,713.729,440.478,700.748,435.237" style="stroke: #A80036; stroke-width: 1.0;"/><!--MD5=[7b50d310a71cfc2d64f51592e80fbe77]
link tictactoe.MachinePlayer to java.util.Random--><path d="M616.544,638.178 C598.477,662.478 572.894,690.886 543,707 C388.24,790.422 307.5,684.966 152,767 C126.425,780.492 104.573,805.387 90.2014,824.848 " fill="none" id="tictactoe.MachinePlayer-&gt;java.util.Random" style="stroke: #A80036; stroke-width: 1.0; stroke-dasharray: 7.0,7.0;"/><polygon fill="#A80036" points="87.0708,829.163,95.5944,824.2286,90.0076,825.1164,89.1199,819.5297,87.0708,829.163" style="stroke: #A80036; stroke-width: 1.0;"/><!--MD5=[5bf90a838be05a56499c41bfe8b74cb6]
reverse link utils.WithConsoleModel to tictactoe.Player--><path d="M1093.69,326 C1037.46,326 981.234,326 925.008,326 " fill="none" id="utils.WithConsoleModel&lt;-tictactoe.Player" style="stroke: #A80036; stroke-width: 1.0;"/><polygon fill="none" points="1093.99,319,1113.99,326,1093.99,333,1093.99,319" style="stroke: #A80036; stroke-width: 1.0;"/><!--MD5=[e9f148de7e5f718f775a14a3e8ad1f15]
link tictactoe.Player to tictactoe.Token--><path d="M755.3687,431.1297 C755.3687,431.1297 763.798,691.697 766.707,781.607 " fill="none" id="tictactoe.Player-tictactoe.Token" style="stroke: #A80036; stroke-width: 1.0;"/><polygon fill="#A80036" points="767.129,794.649,770.8362,785.5245,766.9675,789.6516,762.8403,785.7829,767.129,794.649" style="stroke: #A80036; stroke-width: 1.0;"/><line style="stroke: #A80036; stroke-width: 1.0;" x1="766.9675" x2="766.708" y1="789.6516" y2="781.656"/><polygon fill="#A80036" points="754.981,419.136,751.1769,425.2621,755.3687,431.1297,759.1727,425.0036,754.981,419.136" style="stroke: #A80036; stroke-width: 1.0;"/><!--MD5=[e6b2bf33f5e000488c598fabfd0a9dc4]
link tictactoe.Player to tictactoe.Board--><path d="M827.4119,428.9597 C827.4119,428.9597 846.912,455.324 856.265,467.971 " fill="none" id="tictactoe.Player-tictactoe.Board" style="stroke: #A80036; stroke-width: 1.0;"/><polygon fill="#A80036" points="864.097,478.559,861.9612,468.9445,861.1238,474.539,855.5293,473.7016,864.097,478.559" style="stroke: #A80036; stroke-width: 1.0;"/><line style="stroke: #A80036; stroke-width: 1.0;" x1="861.1238" x2="856.366" y1="474.539" y2="468.1075"/><polygon fill="#A80036" points="820.276,419.312,820.628,426.5145,827.4119,428.9597,827.0599,421.7572,820.276,419.312" style="stroke: #A80036; stroke-width: 1.0;"/><!--MD5=[690eb190d5a3fe72ca44410244d1de56]
link tictactoe.Player to tictactoe.Coordinate--><path d="M762.723,419.013 C774.939,514.804 796.42,657.631 821,707 C830.818,726.72 844.13,745.693 858.568,763.056 " fill="none" id="tictactoe.Player-&gt;tictactoe.Coordinate" style="stroke: #A80036; stroke-width: 1.0; stroke-dasharray: 7.0,7.0;"/><polygon fill="#A80036" points="861.862,766.967,859.123,757.5067,858.6407,763.1429,853.0045,762.6607,861.862,766.967" style="stroke: #A80036; stroke-width: 1.0;"/><!--MD5=[f4051ae2c8072629186cb8844dc1e6ce]
link tictactoe.Player to tictactoe.Error--><path d="M578.531,370.595 C505.377,394.6 422.243,429.75 357,479 C340.925,491.135 326.422,507.099 314.136,523.19 " fill="none" id="tictactoe.Player-&gt;tictactoe.Error" style="stroke: #A80036; stroke-width: 1.0; stroke-dasharray: 7.0,7.0;"/><polygon fill="#A80036" points="311.061,527.282,319.6659,522.4908,314.0651,523.2851,313.2709,517.6843,311.061,527.282" style="stroke: #A80036; stroke-width: 1.0;"/><!--MD5=[94a3f05f456c1427e6c5e1fe3e4db400]
reverse link utils.WithConsoleModel to tictactoe.TicTacToe--><path d="M1142.31,288.08 C1122.49,270.475 1097.74,249.671 1074,233 C1022.28,196.681 959.212,161.563 914.243,137.937 " fill="none" id="utils.WithConsoleModel&lt;-tictactoe.TicTacToe" style="stroke: #A80036; stroke-width: 1.0;"/><polygon fill="none" points="1147.19,283.06,1157.34,301.664,1137.8,293.447,1147.19,283.06" style="stroke: #A80036; stroke-width: 1.0;"/><!--MD5=[c42342be9a1e28cd0c014e08f74fb79b]
link tictactoe.TicTacToe to tictactoe.Board--><path d="M917.758,183.1556 C917.758,183.1556 936.573,216.093 942,233 C965.939,307.577 967.824,395.433 963.536,465.565 " fill="none" id="tictactoe.TicTacToe-tictactoe.Board" style="stroke: #A80036; stroke-width: 1.0;"/><polygon fill="#A80036" points="962.635,478.896,967.2341,470.1869,962.9729,473.9074,959.2524,469.6462,962.635,478.896" style="stroke: #A80036; stroke-width: 1.0;"/><line style="stroke: #A80036; stroke-width: 1.0;" x1="962.9729" x2="963.5125" y1="473.9074" y2="465.9255"/><polygon fill="#A80036" points="911.165,173.129,911.1193,180.34,917.758,183.1556,917.8037,175.9446,911.165,173.129" style="stroke: #A80036; stroke-width: 1.0;"/><!--MD5=[b830720abb08504c8d94e403e81a072b]
link tictactoe.TicTacToe to tictactoe.Player--><path d="M819.7415,183.981 C819.7415,183.981 807.831,208.774 802.085,220.736 " fill="none" id="tictactoe.TicTacToe-tictactoe.Player" style="stroke: #A80036; stroke-width: 1.0;"/><polygon fill="#A80036" points="796.36,232.653,803.8629,226.2729,798.5252,228.1461,796.652,222.8085,796.36,232.653" style="stroke: #A80036; stroke-width: 1.0;"/><line style="stroke: #A80036; stroke-width: 1.0;" x1="798.5252" x2="801.9895" y1="228.1461" y2="220.9355"/><polygon fill="#A80036" points="824.937,173.164,818.7336,176.8406,819.7415,183.981,825.9449,180.3043,824.937,173.164" style="stroke: #A80036; stroke-width: 1.0;"/><!--MD5=[ac71361f5e1bb557c0f682e6a95deaa7]
link tictactoe.TicTacToe to tictactoe.Turn--><path d="M786.0529,121.6792 C786.0529,121.6792 310.885,249.233 187,479 C138.909,568.194 137.194,618.751 187,707 C220.499,766.356 289.016,804.221 344.459,826.395 " fill="none" id="tictactoe.TicTacToe-tictactoe.Turn" style="stroke: #A80036; stroke-width: 1.0;"/><polygon fill="#A80036" points="356.794,831.159,349.8398,824.1848,352.1299,829.3574,346.9573,831.6474,356.794,831.159" style="stroke: #A80036; stroke-width: 1.0;"/><line style="stroke: #A80036; stroke-width: 1.0;" x1="352.1299" x2="344.6675" y1="829.3574" y2="826.4755"/><polygon fill="#A80036" points="797.787,119.167,791.0826,116.5117,786.0529,121.6792,792.7573,124.3345,797.787,119.167" style="stroke: #A80036; stroke-width: 1.0;"/><!--MD5=[d3f992b0e8a95e0fad0f19bca03a3ff6]
reverse link tictactoe.Player to tictactoe.UserPlayer--><path d="M598.816,431.399 C579.409,446.629 560.309,462.697 543,479 C527.464,493.633 512.111,510.83 498.493,527.332 " fill="none" id="tictactoe.Player&lt;-tictactoe.UserPlayer" style="stroke: #A80036; stroke-width: 1.0;"/><polygon fill="none" points="594.67,425.756,614.786,419.096,603.214,436.847,594.67,425.756" style="stroke: #A80036; stroke-width: 1.0;"/><!--MD5=[445e71e8b582bd101780e9e5b467b7a9]
@startuml

class  tictactoe.Board{
+ {static} EMPTY: char
- coordinates: Coordinate[][]
+ Board()
~ write(): void
- getToken(Coordinate): Token
~ move(Coordinate, Coordinate): void
~ put(Coordinate, Token): void
- remove(Coordinate): void
~ isTicTacToe(Token): boolean
- numberOfCoordinates(Coordinate[]): int
~ isCompleted(): boolean
~ isEmpty(Coordinate): boolean
~ isOccupied(Coordinate, Token): boolean
}
utils.WithConsoleModel <|-down- tictactoe.Board
tictactoe.Board *-down-> tictactoe.Coordinate
tictactoe.Board ..> tictactoe.Token
tictactoe.Board ..> tictactoe.Turn
tictactoe.Board ..> utils.Direction

class  tictactoe.Coordinate{
+ {static} DIMENSION: char
+ Coordinate()
+ Coordinate(int, int)
~ inDirection(Coordinate): boolean
~ getDirection(Coordinate): Direction
- inInverseDiagonal(): boolean
- isValid(): boolean
# read(String): void
~ random(): void
}
utils.Coordinate <|-down- tictactoe.Coordinate
tictactoe.Coordinate ..> utils.Direction

enum  tictactoe.Error{
NOT_EMPTY
NOT_OWNER
SAME_COORDINATES
- message: String
+ Error(String)
~ writeln(): void
}

class  tictactoe.MachinePlayer{
+ MachinePlayer(Token, Board)
~ put(): void
~ move(): void
}
tictactoe.Player <|-down- tictactoe.MachinePlayer
tictactoe.MachinePlayer ..> java.util.Random

class  tictactoe.Player{
# token: Token
# board: Board
+ Player(Token, Board)
~ {abstract} put(): void
~ {abstract} move(): void
~ writeWin(Token): void
~ getToken(): Token
~ controlErrorsPutCoordinate(Coordinate): Error
~ controlErrorsMoveOriginCoordinate(Coordinate): Error
~ controlErrorsMoveTargetCoordinate(Coordinate, Coordinate): Error
}
utils.WithConsoleModel <|-down- tictactoe.Player
tictactoe.Player *-down-> tictactoe.Token
tictactoe.Player *-down-> tictactoe.Board
tictactoe.Player ..> tictactoe.Coordinate
tictactoe.Player ..> tictactoe.Error

class  tictactoe.TicTacToe{
- board: Board
- players: Players
- turn: Turn
+ TicTacToe()
- play(): void
+ main(String[]): void
}
utils.WithConsoleModel <|-down- tictactoe.TicTacToe
tictactoe.TicTacToe *-down-> tictactoe.Board
tictactoe.TicTacToe *-down-> tictactoe.Player
tictactoe.TicTacToe *-down-> tictactoe.Turn

enum  tictactoe.Token{
TOKEN_X
TOKEN_O
- character: char
+ Token(char)
~ write(): void
}

class  tictactoe.Turn{
+ {static} PLAYERS: int
- value: int
- players: Player[]
+ Turn(Player[])
~ change(): void
~ getPlayer(): Player
~ getOtherValue(): int
~ getOtherPlayer(): Player
}

class  tictactoe.UserPlayer{
+ {static} PLAYERS: int
- value: int
- players: Player[]
+ UserPlayer(Token, Board)
~ put(): void
~ move(): void
}
tictactoe.Player <|-down- tictactoe.UserPlayer

@enduml

PlantUML version 1.2020.15(Sun Jun 28 13:39:45 CEST 2020)
(GPL source distribution)
Java Runtime: Java(TM) SE Runtime Environment
JVM: Java HotSpot(TM) 64-Bit Server VM
Default Encoding: windows-1252
Language: es
Country: ES
--></g></svg>